<?xml version="1.0" encoding="utf-8"?>
<!-- Generator: Adobe Illustrator 21.1.0, SVG Export Plug-In . SVG Version: 6.00 Build 0)  -->
<svg version="1.1" xmlns="http://www.w3.org/2000/svg" xmlns:xlink="http://www.w3.org/1999/xlink" x="0px" y="0px"
	 viewBox="0 0 504 864" style="enable-background:new 0 0 504 864;" xml:space="preserve">
<g id="Слой_1">
</g>
<g id="Слой_2">
	<g>
		<path d="M503.8,18.2c-1.6-17.9-18.7-16.3-31.6-16.3c-45.9,0-91.8,0-137.6,0c-63.2,0-126.3,0-189.5,0c-40.6,0-81.2,0-121.8,0
			c-2.6,0-5.3-0.2-8,0.2c-9.5,1.2-15,9.2-15.2,18.2c-0.2,7.3,0,14.5,0,21.8c0,37.4,0,74.9,0,112.3c0,57,0,114.1,0,171.1
			c0,64.3,0,128.6,0,192.9c0,58.4,0,116.7,0,175.1c0,40.1,0,80.2,0,120.3c0,9.1,0,18.2,0,27.3c0,11.7,6.7,20.5,19.2,20.7
			c35.9,0.6,71.9,0,107.9,0c62.4,0,124.9,0,187.3,0c49.7,0,99.5,0,149.2,0c7.6,0,15.2,0,22.9,0c0.4,0,0.8-0.1,1.2-0.2
			c14.4-1.8,16.1-13.8,16.1-25.5c0-11.4,0-22.8,0-34.3c0-43.4,0-86.9,0-130.3c0-59.9,0-119.8,0-179.8c0-63.9,0-127.7,0-191.6
			c0-55.3,0-110.6,0-165.9c0-33.7,0-67.3,0-101C503.9,28.3,504.2,23.2,503.8,18.2z M486.6,852.8c-28.3,0-56.6,0-84.9,0
			c-59.9,0-119.8,0-179.7,0c-54,0-108,0-162,0c-13.1,0-26.1,0-39.2,0c-5.6,0-11-1.3-11.7-8.3c-0.2-1.5,0-3,0-4.5c0-26.5,0-53,0-79.5
			c0-50,0-100,0-149.9c0-61.8,0-123.6,0-185.4c0-61.4,0-122.7,0-184.1c0-48.9,0-97.7,0-146.6c0-24.2-0.8-48.6,0-72.7
			c0.2-5.3,1.6-10.1,8.3-10.8c2.2-0.2,4.5,0,6.7,0c14.8,0,29.6,0,44.5,0c55.6,0,111.3,0,166.9,0c58.9,0,117.8,0,176.7,0
			c18.9,0,37.9,0,56.8,0c8.1,0,24.7-3.1,25.9,8.4c0.5,5.2,0,10.8,0,16.1c0,13.5,0,27.1,0,40.6c0,45.5,0,91.1,0,136.6
			c0,60.1,0,120.2,0,180.3c0,62.6,0,125.2,0,187.7c0,52.8,0,105.6,0,158.4c0,31.4,0,62.7,0,94.1C494.8,840.3,496.9,852,486.6,852.8z
			"/>
		<path d="M460,790.9c1.2,0.1,2.4-0.7,2.4-2.2c0-23.7,0-47.4,0-71.1c0-56.4,0-112.8,0-169.2c0-68.7,0-137.4,0-206
			c0-59,0-117.9,0-176.9c0-19.6,0-39.2,0-58.8c0-8.9,1.3-19,0-27.9c-0.1-0.4,0-0.8,0-1.2c0-0.8-0.3-1.3-0.8-1.7
			c0.1-1.2-0.6-2.5-2.2-2.6c-13.1-0.5-25.3-13.8-25.8-26.7c0-0.5-0.2-0.8-0.4-1.1c-0.3-0.6-1-1.1-1.9-1.1c-40.5,0-80.9,0-121.4,0
			c-64.5,0-129,0-193.6,0c-14.9,0-29.7,0-44.6,0c-0.9,0-1.6,0.5-1.9,1.1c-0.2,0.3-0.3,0.7-0.4,1.2C69.1,59.5,57,72.8,43.9,73.3
			c-1.8,0.1-2.5,1.9-2,3.2c-0.2,0.3-0.2,0.6-0.2,1c0,23.7,0,47.4,0,71.1c0,56.4,0,112.8,0,169.2c0,68.7,0,137.4,0,206
			c0,59,0,117.9,0,176.9c0,19.6,0,39.2,0,58.8c0,8.9-1.3,19,0,27.9c0.1,0.4,0,0.8,0,1.2c0,0.9,0.5,1.6,1.1,1.9
			c0.3,0.2,0.7,0.3,1.2,0.4c13,0.5,25.3,13.3,25.8,26.2c0,0.5,0.2,0.8,0.4,1.1c0.3,0.6,1,1.1,1.9,1.1c40.5,0,80.9,0,121.4,0
			c64.5,0,129,0,193.6,0c14.9,0,29.7,0,44.6,0c0.9,0,1.6-0.5,1.9-1.1c0.2-0.3,0.3-0.7,0.4-1.2c0.5-12.9,12.7-25.7,25.8-26.2
			C459.6,791,459.8,790.9,460,790.9z M429.3,814.9c-39.8,0-79.6,0-119.3,0c-64.5,0-129,0-193.6,0c-14.2,0-28.3,0-42.5,0
			c-1.7-13.9-13.9-26.5-27.8-28.3c0-23,0-46,0-69.1c0-56.4,0-112.8,0-169.2c0-68.7,0-137.4,0-206c0-59,0-117.9,0-176.9
			c0-19.6,0-39.2,0-58.8c0-8.9,1.3-19,0-27.9c-0.1-0.4,0-0.8,0-1.2c14-1.8,26.1-14.9,27.8-28.7c39.8,0,79.5,0,119.3,0
			c64.5,0,129,0,193.6,0c14.2,0,28.3,0,42.5,0c1.7,14.1,14.3,27.4,28.5,28.8c0,23.7,0,47.3,0,71c0,56.4,0,112.8,0,169.2
			c0,68.7,0,137.4,0,206c0,59,0,117.9,0,176.9c0,19.6,0,39.2,0,58.8c0,8.6-1.2,18.4-0.1,27C443.6,788.1,431.1,800.9,429.3,814.9z"/>
		<path d="M175.2,792.9c-0.1,0-0.1-0.1-0.2-0.4c-0.1-0.2-0.1-0.3-0.2-0.3c0,0-0.3,0.1-0.8,0.2c0,0-0.1,0-0.2,0c-0.4,0-0.7-0.6-1-1.7
			c-0.2-0.8-0.4-1.3-0.4-1.4c-0.1-0.1-0.2-0.3-0.2-0.5c-0.1-0.4-0.3-1.3-0.8-2.8c-0.5-1.5-0.7-2.4-0.8-2.7c-0.2-1-0.4-1.5-0.5-1.7
			s-0.2-0.3-0.4-0.3c-0.3-0.1-0.4,0-0.5,0.1c-0.1,0.1-0.2,0.2-0.4,0.2c-0.2,0-0.4,0.1-0.4,0.2c0,0.1-0.1,0.1-0.2,0.1
			c-0.1,0-0.2,0.2-0.4,0.6c-0.2,0.4-0.3,0.8-0.5,1.2c-0.1,0.4-0.2,0.6-0.3,0.7c-0.1,0.1-0.1,0.2-0.1,0.4c0,0.2-0.1,0.6-0.4,1.2
			c-0.3,0.6-0.5,1.1-0.5,1.5c-0.1,0.4-0.2,0.6-0.2,0.7c-0.1,0.1-0.2,0.3-0.4,0.8c-0.2,0.5-0.3,0.7-0.3,0.8c-0.1,0.2-0.2,0.4-0.2,0.5
			c0,0.2,0,0.2-0.1,0.2s-0.2,0.1-0.3,0.4c-0.1,0.2-0.2,0.4-0.2,0.6c0,0.1-0.2,0.3-0.5,0.6c-0.3,0.3-0.5,0.4-0.7,0.4
			c-0.2,0-0.3,0.1-0.5,0.4c-0.2,0.2-0.4,0.4-0.5,0.4c-0.1,0-0.2,0.1-0.4,0.4c-0.1,0.2-0.1,0.3-0.1,0.4c0,0.1,0.1,0.3,0.4,0.5
			l0.5,0.4l2-0.1c1.1,0,1.8-0.1,2.1-0.1c0.3,0,0.5-0.1,0.5-0.2c0,0,0-0.1-0.1-0.2c-0.1-0.2-0.1-0.3,0.1-0.3c0.1,0,0.2-0.1,0.2-0.2
			c0-0.1-0.1-0.2-0.2-0.2s-0.3-0.1-0.4-0.2c-0.1-0.1-0.4-0.2-0.7-0.3c-0.5-0.1-0.7-0.3-0.7-0.5c0-0.1,0-0.2,0.1-0.3
			c0.1-0.2,0.2-0.3,0.2-0.5c0-0.1,0-0.2,0.1-0.2c0.1,0,0.1-0.2,0.1-0.7v-0.7h0.6c0.4,0,0.7-0.1,0.7-0.2c0.1-0.2,0.6-0.2,1.5-0.2h0.4
			c0.7,0,1,0,1.1,0.1c0.1,0.1,0.2,0.4,0.2,0.8c0,0.5,0.1,0.8,0.3,0.9c0.2,0.2,0.3,0.4,0.3,0.6c0,0,0,0,0,0.1s0,0.1,0,0.1
			c0,0.3-0.1,0.4-0.1,0.5c-0.1,0.1-0.3,0.1-0.6,0.2c-0.5,0.1-0.7,0.2-0.8,0.3c0,0.1-0.1,0.1-0.3,0.1c-0.2,0-0.3,0.1-0.3,0.3
			c0,0.3,0,0.4,0.1,0.5c0.1,0.1,0.3,0.1,0.6,0.1c0.3,0,0.7,0,1.3-0.1c0.6-0.1,1.3-0.1,2-0.1c0.4,0,0.7,0,0.8,0c0.2,0,0.4,0,0.6,0
			c0.3,0,0.5-0.1,0.5-0.3c0.1-0.2,0.1-0.3,0.2-0.3c0.1,0,0.1-0.2,0.1-0.5S175.3,792.9,175.2,792.9z M169,788.4c0,0-0.1,0-0.2,0
			c-0.1,0-0.1,0-0.1,0c-0.3,0-0.5,0.1-0.6,0.2c-0.1,0.1-0.3,0.2-0.4,0.2c-0.2,0-0.3-0.1-0.4-0.2c-0.1-0.1-0.2-0.2-0.3-0.2
			c-0.1,0-0.2-0.1-0.2-0.2c0-0.1,0-0.2,0.1-0.2s0.2-0.1,0.3-0.4c0.1-0.3,0.2-0.5,0.2-0.7c0-0.2,0.1-0.3,0.2-0.4
			c0.1,0,0.2-0.3,0.2-0.8c0.1-0.6,0.3-0.9,0.6-0.9c0.2,0,0.3,0.1,0.5,0.2c0.1,0.1,0.2,0.2,0.4,0.5c0.1,0.3,0.2,0.4,0.2,0.5
			c0,0-0.1,0.1-0.3,0.1c-0.2,0-0.3,0.1-0.4,0.2c-0.1,0.1,0,0.2,0.1,0.2c0.1,0,0.2,0.1,0.2,0.2c0.1,0.1,0.2,0.3,0.2,0.4
			c0.1,0.2,0.1,0.2,0.2,0.3c0.1,0.1,0.1,0.3,0.2,0.6l0.1,0.5L169,788.4z"/>
		<path d="M193.1,782.2h-1c-0.5,0-0.9,0-1.1-0.1c-0.2-0.1-0.3-0.3-0.3-0.5c0-0.1,0-0.2-0.1-0.2c-0.1,0-0.2,0-0.2,0.1
			c-0.1,0.1-0.3,0.2-0.7,0.2c-0.2,0-0.2,0-0.2-0.1c0-0.1-0.2-0.1-0.7-0.1c-0.5,0-0.8,0.1-0.8,0.2c-0.1,0.1-0.2,0.2-0.4,0.2
			c-0.2,0-0.3,0-0.4,0c-0.1,0-0.1,0-0.2,0c-0.1,0-0.2,0-0.2,0c-0.3,0-0.5,0.1-0.8,0.4c-0.3,0.3-0.5,0.5-0.7,0.5
			c-0.2,0.1-0.4,0.2-0.5,0.5c-0.1,0.3-0.3,0.4-0.6,0.4c-0.5,0.1-0.7,0.4-0.8,1c0,0.2-0.1,0.4-0.2,0.6c-0.1,0.2-0.2,0.5-0.2,0.6
			c0,0.3-0.1,0.4-0.2,0.5c-0.1,0.1-0.1,0.2-0.1,0.4c0,0.2-0.1,0.4-0.2,0.5c-0.1,0.1-0.2,0.6-0.2,1.5c0,1,0.1,1.6,0.2,1.6
			c0.1,0,0.1,0.1,0.1,0.3c0,0.1,0,0.2-0.1,0.2c-0.1,0,0,0.1,0.2,0.4c0.2,0.2,0.4,0.4,0.5,0.4c0.1,0,0.1,0.1,0.2,0.4
			c0.1,0.2,0.3,0.4,0.6,0.8c0.4,0.3,0.6,0.5,0.9,0.6c0.2,0.1,0.2,0.1,0.2,0.2c0,0.1,0.3,0.2,1,0.3c0.6,0.1,1.4,0.1,2.1,0.1
			c1.1,0,1.8-0.1,2-0.3c0.2-0.2,0.5-0.3,0.8-0.4c0.4-0.1,0.7-0.2,0.8-0.5c0.2-0.3,0.4-0.6,0.7-0.9c0.3-0.3,0.5-0.5,0.5-0.6
			c0-0.1-0.1-0.2-0.3-0.3c-0.4-0.2-0.6-0.3-0.8-0.3c-0.1,0-0.2,0.1-0.3,0.3c-0.1,0.3-0.2,0.4-0.4,0.4c-0.2,0-0.4,0.1-0.7,0.4
			c-0.2,0.3-0.4,0.3-0.5,0.2c-0.1-0.1-0.2-0.1-0.4,0.1c-0.1,0.1-0.4,0.2-0.7,0.2c-0.1,0-0.4,0-0.9-0.1c-0.7,0-1.1-0.1-1.3-0.2
			c-0.2-0.1-0.3-0.3-0.3-0.6c0-0.2-0.2-0.5-0.6-0.9c-0.3-0.3-0.5-0.5-0.6-0.7c-0.1-0.2-0.2-0.5-0.3-1c-0.1-0.7-0.2-1.1-0.3-1.1
			c-0.1,0-0.1-0.1-0.1-0.2c0-0.1,0-0.2,0.1-0.3c0.2,0,0.3-0.7,0.3-1.9c0-0.2,0.1-0.3,0.3-0.3c0.2,0,0.3-0.1,0.2-0.3
			c-0.1-0.3,0.1-0.4,0.4-0.6c0.3-0.1,0.5-0.3,0.5-0.4c0-0.1,0.1-0.3,0.3-0.4c0.2-0.1,0.5-0.2,0.7-0.2c0.2,0,0.3-0.1,0.3-0.2
			c0-0.1,0.2-0.2,0.7-0.3c0.1,0,0.1,0,0.2,0c0.1,0,0.1,0,0.2,0c0.6,0,1,0.2,1.2,0.5c0.1,0.2,0.3,0.3,0.6,0.4c0.2,0,0.3,0.1,0.3,0.1
			c0,0.1,0.1,0.1,0,0.3c-0.1,0.2,0,0.3,0.1,0.4c0.1,0.1,0.3,0.4,0.4,1c0.1,0.4,0.1,0.7,0.2,0.8c0.1,0.1,0.2,0.2,0.4,0.3
			c0.3,0.1,0.4,0.2,0.4,0.4c0,0.1,0,0.1,0,0.1c0,0,0.1,0,0.1,0c0.1-0.1,0.2-0.6,0.2-1.6c0-1,0.1-1.6,0.2-1.6c0.1-0.1,0.1-0.3,0-0.8
			L193.1,782.2z"/>
		<path d="M210.5,790.2c-0.1,0-0.3,0.2-0.5,0.5c-0.3,0.3-0.4,0.6-0.4,0.7c0,0.1-0.1,0.2-0.4,0.2c-0.1,0-0.2,0-0.3,0.1
			c0,0-0.1,0.1-0.1,0.1c0,0,0,0.1,0,0.3c0,0.2-0.1,0.3-0.4,0.3c0,0-0.1,0-0.1,0c-0.1,0-0.1,0-0.2,0c-0.2,0-0.4,0.1-0.6,0.3
			c-0.2,0.2-0.4,0.3-0.6,0.3c-0.1,0-0.2-0.1-0.2-0.2c0-0.1-0.1-0.1-0.4,0c-0.2,0.1-0.6,0.2-1.2,0.2c-0.5,0-0.7,0-0.7-0.1
			c0-0.1-0.1-0.1-0.2-0.1c-0.1,0-0.1-0.1-0.2-0.2c-0.1-0.2-0.1-0.3-0.1-0.4c0-0.1,0-0.2,0-0.3c0-0.2,0-0.4,0-0.6c0-0.3,0-0.5,0-0.8
			c0-0.3,0-0.5,0-0.8c0-0.3,0-0.5,0-0.6v-0.2c0-0.1,0.4-0.1,1.3-0.1c0.7,0,1.2,0.1,1.4,0.2c0.2,0.1,0.4,0.4,0.4,0.8
			c0,0.2,0,0.3,0.1,0.3c0,0,0.1,0,0.2,0c0.1-0.1,0.3-0.1,0.5-0.1c0.1,0,0.2,0,0.3-0.1c0-0.1,0.1-0.2,0.1-0.5c0-0.1,0-0.2,0-0.3
			c0-0.2,0-0.3,0-0.4v-0.2c0-0.3,0-0.6,0.1-0.7c0.1-0.1,0.1-0.3,0-0.4c-0.1-0.1-0.1-0.3,0.1-0.4c0.1-0.1,0.2-0.2,0.2-0.4
			c0-0.3-0.3-0.4-1-0.4c-0.4,0-0.6,0.2-0.6,0.5c0,0.1,0,0.2,0.1,0.3c0,0.2,0,0.4,0,0.5c-0.1,0.1-0.3,0.2-0.9,0.3
			c-0.5,0.1-1,0.1-1.5,0.1h-0.6v-0.6c0-0.4,0.1-0.6,0.2-0.6c0.1,0,0.2-0.1,0.2-0.4c0-0.3-0.1-0.5-0.2-0.9c-0.1-0.2-0.2-0.4-0.1-0.4
			c0-0.1,0.1-0.1,0.2-0.3c0.2-0.1,0.3-0.3,0.2-0.5c0,0,0-0.1,0-0.2c0-0.1,0.1-0.3,0.4-0.3c0.3-0.1,0.7-0.1,1.5-0.2
			c0.7,0,1.1-0.1,1.1-0.1c0.3,0,0.5,0.1,0.6,0.2c0.1,0.2,0.3,0.3,0.5,0.4c0.2,0.1,0.3,0.2,0.3,0.3c0,0.1,0.1,0.2,0.3,0.3
			c0.2,0.1,0.3,0.2,0.3,0.3c0,0.2,0.1,0.3,0.3,0.5c0.2,0.2,0.4,0.2,0.6,0.2h0c0.3,0,0.4-0.2,0.4-0.6c0-0.2-0.1-0.3-0.2-0.5
			c-0.1-0.1-0.2-0.3-0.2-0.5c0-0.3-0.1-0.5-0.2-0.5c-0.1,0-0.1-0.1,0-0.4c0.1-0.1,0.1-0.2,0.1-0.3c0,0-0.1-0.1-0.1-0.1
			c-0.1-0.1-0.2-0.2-0.2-0.3c0-0.1-0.1-0.3-0.3-0.5c-0.2-0.2-0.4-0.3-0.6-0.1c-0.3,0.1-1.8,0.3-4.7,0.4h-0.7c-1.5,0-2.2-0.1-2.3-0.3
			c0-0.1-0.1-0.1-0.2-0.1c-0.1,0-0.2,0-0.2,0.1l0,0.1c0,0.1,0,0.1,0,0.1c0,0,0,0.1,0,0.2c0,0.1,0,0.2,0,0.2c0,0.2-0.1,0.3-0.3,0.3
			c-0.2,0.1-0.3,0.2-0.2,0.5c0.1,0.2,0.1,0.4,0.2,0.5s0.2,0.1,0.3,0.1c0.1,0,0.3,0,0.4,0c0.1,0,0.2,0,0.4,0c0.3,0,0.5,0.1,0.6,0.4
			c0.1,0.2,0.1,0.7,0.1,1.4c0,0.9-0.1,1.4-0.2,1.4c-0.1,0-0.1,0.2,0,0.4c0.1,0.2,0.1,0.4,0,0.6c-0.1,0.2-0.2,0.3-0.3,0.3
			c-0.1,0-0.1,0.1,0.1,0.2c0.1,0.1,0.1,0.3,0.1,0.6c0,0.5-0.1,1.5-0.2,2.8l-0.1,0.9h-0.6c-0.4,0-0.6,0.1-0.6,0.3
			c0,0.2-0.1,0.3-0.3,0.3c-0.1,0-0.2,0.1-0.2,0.3c0,0.3,0.1,0.5,0.3,0.6c0.2,0.1,0.3,0.2,0.3,0.4c0,0.1,0.2,0.1,0.7,0.1
			c0.5,0,0.8-0.1,0.9-0.3c0.1-0.1,0.5-0.2,1.2-0.2c0.5,0,0.9,0,1.3,0c0.7,0,1.1,0.1,1.2,0.2c0,0.1,0.2,0.1,0.4,0
			c0.2-0.1,0.7-0.2,1.5-0.2c0.8,0,1.3,0,1.5-0.1c0.2,0,0.3-0.1,0.5-0.3c0.2-0.2,0.3-0.3,0.2-0.5c0-0.2,0-0.3,0.1-0.4
			c0.1-0.1,0.2-0.3,0.2-0.8c0-0.3,0-0.5,0-0.6s0.1-0.1,0.2-0.1c0.2,0,0.3-0.2,0.3-0.5c0-0.2-0.1-0.4-0.2-0.6
			C210.8,790.3,210.7,790.2,210.5,790.2z"/>
		<path d="M200.5,792c0.1-0.2,0.1-0.3,0-0.3c-0.1,0-0.2,0.1-0.2,0.2c0,0.1,0,0.2,0.1,0.2C200.4,792.1,200.4,792.1,200.5,792z"/>
		<path d="M242.4,785.7c-0.2-0.1-0.2-0.2-0.2-0.5c0-0.3,0-0.5-0.1-0.5c-0.1,0-0.1-0.1-0.1-0.4c0-0.3-0.1-0.4-0.2-0.4
			c-0.1,0-0.2-0.1-0.3-0.3c-0.1-0.2-0.2-0.3-0.3-0.4c-0.1-0.1-0.2-0.2-0.2-0.4c0-0.2-0.1-0.3-0.4-0.3c-0.7,0-1-0.1-1-0.4
			c0-0.1-0.1-0.2-0.2-0.2c-0.1,0-0.2,0-0.2-0.1c0-0.1-0.1-0.1-0.3-0.1c-0.2,0-0.3-0.1-0.4-0.2c0-0.1-0.5-0.2-1.5-0.2
			c-0.9,0-1.5,0.1-1.6,0.2c-0.1,0.1-0.2,0.2-0.4,0.2c-0.2,0-0.3,0.1-0.4,0.3c-0.1,0.2-0.3,0.4-0.6,0.4c-0.3,0-0.6,0.1-1.1,0.2
			c-0.5,0.1-0.7,0.3-0.8,0.5c0,0.2-0.2,0.4-0.5,0.7s-0.4,0.5-0.4,0.5c0,0.1-0.1,0.1-0.2,0.1c-0.1,0-0.2,0.1-0.3,0.4
			c-0.1,0.2-0.2,0.5-0.3,0.7c-0.2,0.3-0.2,0.8-0.2,1.8c0,1.2,0.1,2.1,0.4,2.9c0.5,1.4,0.9,2.2,1.2,2.3c0.2,0,0.3,0.1,0.3,0.3
			c0,0.2,0.2,0.2,0.4,0.2c0.2,0,0.4,0,0.4,0.1c0,0.1,0.1,0.1,0.3,0.1c0.2,0,0.3,0.1,0.3,0.4c0,0.2,0,0.3,0.1,0.4
			c0.1,0.1,0.2,0,0.4-0.1c0.1-0.1,0.2-0.1,0.3,0c0.2,0.1,0.9,0.2,2.2,0.2c1.1,0,1.7-0.1,1.7-0.2c0-0.1,0.3-0.2,0.7-0.2
			c0.4,0,0.6-0.1,0.6-0.2c0-0.2,0.1-0.3,0.2-0.3c0,0,0.2-0.1,0.4-0.3c0.3-0.2,0.4-0.3,0.5-0.3c0.1,0,0.2-0.1,0.2-0.3
			c0.1-0.2,0.2-0.3,0.3-0.3c0.1,0,0.2-0.1,0.3-0.3c0-0.2,0.2-0.3,0.4-0.3c0.2-0.1,0.3-0.1,0.3-0.2c0-0.1,0.1-0.1,0.2-0.1
			c0.1,0,0.2-0.2,0.2-0.6c0-0.3,0-0.5-0.1-0.5c-0.1,0-0.1-0.1,0-0.2c0.1-0.1,0.2-0.8,0.2-2.1c0-0.3,0-0.7,0-1.1
			C242.7,786,242.6,785.7,242.4,785.7z M240.2,788.8c-0.1,0-0.2,0.2-0.2,0.4c0,0.3-0.1,0.4-0.2,0.5c-0.1,0.1-0.2,0.4-0.3,0.8
			c-0.1,0.4-0.1,0.6-0.3,0.6c-0.1,0-0.2,0-0.2,0.1c0,0.1-0.1,0.2-0.4,0.2c-0.3,0.1-0.4,0.2-0.4,0.3c0,0.1,0,0.2-0.1,0.2
			c-0.1,0.1-0.2,0.1-0.4,0.2c-0.1,0.1-0.2,0.1-0.3,0.1c0,0.1-0.2,0.1-0.4,0.1c-0.2,0-0.3,0.1-0.5,0.2c-0.1,0.1-0.2,0.1-0.4,0.1
			c-0.2,0-0.4,0-0.7-0.1c-0.5-0.1-1-0.3-1.3-0.6c-0.3-0.3-0.7-0.8-1-1.5c-0.3-0.5-0.4-0.9-0.5-1.1c0-0.2-0.1-0.7-0.1-1.4
			c0-0.7,0-1.1,0.1-1.4c0-0.2,0.1-0.5,0.3-0.8c0.3-0.5,0.6-0.9,1-1.3c0.4-0.4,0.8-0.6,1-0.7c0.3,0,0.5-0.1,0.5-0.3
			c0-0.1,0.1-0.2,0.2-0.2c0.1,0,0.2,0,0.2-0.1c0-0.1,0.1-0.1,0.3-0.1c0.2,0,0.3,0,0.3,0.1c0,0.1,0.3,0.1,0.9,0.1
			c0.5,0,0.8,0.1,0.8,0.2c0,0.1,0.1,0.2,0.3,0.3c0.2,0.1,0.3,0.2,0.3,0.3c0,0.1,0.1,0.2,0.3,0.3c0.3,0.1,0.5,0.4,0.5,0.8
			c0,0.2,0.1,0.5,0.3,0.8c0.2,0.3,0.3,0.7,0.3,1.1c0,0.5,0,0.7,0.1,0.8c0.1,0.1,0.1,0.2,0.1,0.4
			C240.4,788.6,240.4,788.7,240.2,788.8z"/>
		<path d="M260.2,783.9c0-0.3-0.1-0.5-0.2-0.6c-0.1-0.1-0.1-0.2,0-0.4c0.1-0.1,0.1-0.2,0.1-0.2c0-0.1-0.1-0.2-0.2-0.2
			s-0.2-0.2-0.2-0.3c0-0.2-0.1-0.3-0.3-0.5c-0.2-0.2-0.4-0.3-0.5-0.3c-0.1,0-0.2,0-0.2,0.1c0,0.1-0.3,0.1-0.9,0.2
			c-0.5,0.1-1.1,0.1-1.7,0.1c-0.6,0-0.9,0-1,0.1c-0.1,0-0.5,0.1-1.4,0.1c-0.9,0.1-1.8,0.2-2.7,0.3c-0.9,0.1-1.4,0.2-1.4,0.2
			c0,0,0,0.1,0,0.2c0,0.1,0,0.2,0.1,0.3c0.1,0.2,0.1,0.3,0.2,0.4c0.1,0,0.3,0.1,0.6,0.1c0.5,0,0.9,0.1,1,0.3
			c0.1,0.2,0.2,0.7,0.2,1.6c0,0.9-0.1,1.4-0.2,1.5c-0.1,0.1-0.1,0.2,0,0.4c0.1,0.3,0.2,0.5,0,0.7c-0.1,0.2-0.2,0.3-0.3,0.3
			c-0.1,0,0,0.1,0.1,0.2c0.1,0.1,0.1,0.3,0.1,0.6c0,0.1,0,0.4-0.1,0.8c-0.1,1.4-0.2,2.3-0.2,2.6c-0.1,0.4-0.1,0.5-0.3,0.6
			c-0.2,0.1-0.5,0.3-0.8,0.6l-0.5,0.6h5v-0.5c0-0.2,0-0.4-0.1-0.4c0-0.1-0.1-0.1-0.3-0.1c-0.2,0-0.4,0-0.4-0.1s-0.1-0.1-0.2-0.1
			c-0.1,0-0.2-0.1-0.3-0.3c0-0.1,0-0.4,0-1.2c0-1.2,0-2.1,0.1-2.8c0-0.1,0.5-0.1,1.4-0.1c0.8,0,1.3,0.1,1.5,0.2
			c0.3,0.1,0.4,0.4,0.4,0.9c0,0.3,0,0.5,0.1,0.5c0.1,0,0.1-0.1,0.3-0.2c0.1-0.1,0.3-0.2,0.5-0.1c0.2,0.1,0.3,0,0.3-0.2
			c0-0.2,0-0.3,0.1-0.4c0.1-0.1,0.1-0.2,0-0.2c-0.1-0.1-0.2-0.3-0.2-0.6c0-0.4,0.1-0.7,0.2-0.8c0.1-0.1,0.1-0.1,0.1-0.2
			c0-0.1,0-0.1-0.1-0.2c-0.1-0.1-0.1-0.2-0.1-0.2c0-0.1,0-0.1,0.1-0.2c0.2-0.1,0.2-0.2,0.2-0.4c0-0.3-0.4-0.4-1.1-0.4
			c-0.4,0-0.6,0.2-0.6,0.5c0,0.1,0,0.2,0.1,0.3c0.1,0.2,0,0.4,0,0.5c-0.1,0.1-0.4,0.2-1,0.3c-0.6,0.1-1.1,0.2-1.6,0.2h-0.5v-0.6
			c0-0.4,0.1-0.6,0.2-0.7c0.1-0.1,0.2-0.2,0.2-0.4c0-0.3-0.1-0.5-0.2-0.8c-0.1-0.2-0.2-0.4-0.2-0.4c0-0.1,0.1-0.1,0.2-0.3
			c0.2-0.2,0.3-0.4,0.2-0.6c0-0.1,0-0.1,0-0.2c0-0.1,0.1-0.2,0.4-0.3c0.3-0.1,0.8-0.1,1.6-0.1c0.7,0,1.1-0.1,1.1-0.1
			c0.3,0,0.5,0.1,0.7,0.2c0.2,0.2,0.3,0.3,0.5,0.4c0.2,0.1,0.3,0.2,0.3,0.3c0,0.1,0.1,0.3,0.3,0.4c0.2,0.1,0.4,0.3,0.5,0.6
			c0.1,0.4,0.4,0.5,0.8,0.5c0.1,0,0.2,0,0.3-0.1c0.1-0.1,0.2-0.2,0.2-0.6c0-0.3-0.1-0.5-0.2-0.5
			C260.3,784.4,260.2,784.2,260.2,783.9z"/>
		<path d="M290,782.2h-1c-0.5,0-0.9,0-1.1-0.1c-0.2-0.1-0.3-0.3-0.3-0.5c0-0.1,0-0.2-0.1-0.2c-0.1,0-0.2,0-0.2,0.1
			c-0.1,0.1-0.3,0.2-0.7,0.2c-0.2,0-0.2,0-0.2-0.1c0-0.1-0.2-0.1-0.7-0.1c-0.5,0-0.8,0.1-0.8,0.2c-0.1,0.1-0.2,0.2-0.4,0.2
			c-0.2,0-0.3,0-0.4,0c-0.1,0-0.1,0-0.2,0c-0.1,0-0.2,0-0.2,0c-0.3,0-0.5,0.1-0.8,0.4c-0.3,0.3-0.5,0.5-0.7,0.5
			c-0.2,0.1-0.4,0.2-0.5,0.5c-0.1,0.3-0.3,0.4-0.6,0.4c-0.5,0.1-0.7,0.4-0.8,1c0,0.2-0.1,0.4-0.2,0.6c-0.1,0.2-0.2,0.5-0.2,0.6
			c0,0.3-0.1,0.4-0.2,0.5c-0.1,0.1-0.1,0.2-0.1,0.4c0,0.2-0.1,0.4-0.2,0.5c-0.1,0.1-0.2,0.6-0.2,1.5c0,1,0.1,1.6,0.2,1.6
			c0.1,0,0.1,0.1,0.1,0.3c0,0.1,0,0.2-0.1,0.2c-0.1,0,0,0.1,0.2,0.4c0.2,0.2,0.4,0.4,0.5,0.4c0.1,0,0.1,0.1,0.2,0.4
			c0.1,0.2,0.3,0.4,0.6,0.8c0.4,0.3,0.6,0.5,0.9,0.6c0.2,0.1,0.2,0.1,0.2,0.2c0,0.1,0.3,0.2,1,0.3c0.6,0.1,1.4,0.1,2.1,0.1
			c1.1,0,1.8-0.1,2-0.3c0.2-0.2,0.5-0.3,0.8-0.4c0.4-0.1,0.7-0.2,0.8-0.5c0.2-0.3,0.4-0.6,0.7-0.9c0.3-0.3,0.5-0.5,0.5-0.6
			c0-0.1-0.1-0.2-0.3-0.3c-0.4-0.2-0.6-0.3-0.8-0.3c-0.1,0-0.2,0.1-0.3,0.3c-0.1,0.3-0.2,0.4-0.4,0.4c-0.2,0-0.4,0.1-0.7,0.4
			c-0.2,0.3-0.4,0.3-0.5,0.2c-0.1-0.1-0.2-0.1-0.4,0.1c-0.1,0.1-0.4,0.2-0.7,0.2c-0.1,0-0.4,0-0.9-0.1c-0.7,0-1.1-0.1-1.3-0.2
			c-0.2-0.1-0.3-0.3-0.3-0.6c0-0.2-0.2-0.5-0.6-0.9c-0.3-0.3-0.5-0.5-0.6-0.7c-0.1-0.2-0.2-0.5-0.3-1c-0.1-0.7-0.2-1.1-0.3-1.1
			c-0.1,0-0.1-0.1-0.1-0.2c0-0.1,0-0.2,0.1-0.3c0.2,0,0.3-0.7,0.3-1.9c0-0.2,0.1-0.3,0.3-0.3c0.2,0,0.3-0.1,0.2-0.3
			c-0.1-0.3,0.1-0.4,0.4-0.6c0.3-0.1,0.5-0.3,0.5-0.4c0-0.1,0.1-0.3,0.3-0.4c0.2-0.1,0.5-0.2,0.7-0.2c0.2,0,0.3-0.1,0.3-0.2
			c0-0.1,0.2-0.2,0.7-0.3c0.1,0,0.1,0,0.2,0c0.1,0,0.1,0,0.2,0c0.6,0,1,0.2,1.2,0.5c0.1,0.2,0.3,0.3,0.6,0.4c0.2,0,0.3,0.1,0.3,0.1
			c0,0.1,0.1,0.1,0,0.3c-0.1,0.2,0,0.3,0.1,0.4c0.1,0.1,0.3,0.4,0.4,1c0.1,0.4,0.1,0.7,0.2,0.8c0.1,0.1,0.2,0.2,0.4,0.3
			c0.3,0.1,0.4,0.2,0.4,0.4c0,0.1,0,0.1,0,0.1c0,0,0.1,0,0.1,0c0.1-0.1,0.2-0.6,0.2-1.6c0-1,0.1-1.6,0.2-1.6c0.1-0.1,0.1-0.3,0-0.8
			L290,782.2z"/>
		<path d="M308.3,783h-0.2c-0.4,0-0.8-0.1-1-0.3c-0.2-0.1-0.3-0.2-0.4-0.2c0,0-0.1,0.1-0.1,0.2c0,0.1,0,0.2-0.1,0.2
			c-0.1,0-0.4,0-0.8,0.1c-0.6,0-1,0-1,0.1c-0.1,0.1-0.1,0.3-0.1,0.7l0,0.6l0.8,0.1l0.8,0v2.3c0,1.5,0,2.3,0.1,2.4
			c0.1,0,0.1,0.1-0.1,0.3c-0.1,0.2-0.2,0.4-0.2,0.5v0.2c0,0.3,0,0.6-0.1,0.9c-0.1,0.3-0.2,0.5-0.3,0.5c-0.1,0.1-0.2,0.1-0.2,0.3
			c0,0.1-0.1,0.3-0.3,0.4c-0.2,0.2-0.4,0.2-0.6,0.2c-0.3,0-0.4,0.1-0.5,0.2c-0.1,0.1-0.2,0.2-0.4,0.2c-0.1,0-0.2,0-0.5-0.1
			c-0.5-0.1-0.7-0.1-0.8-0.2c0-0.1-0.2-0.1-0.4-0.1c-0.2,0-0.4-0.1-0.8-0.2c-0.2-0.1-0.3-0.2-0.4-0.3s-0.1-0.2-0.1-0.5V791v-0.3
			c0-0.4,0-0.6-0.1-0.6c-0.1,0-0.2-0.1-0.1-0.3c0-0.2,0.1-0.3,0.2-0.3c0.1-0.1,0.1-0.1,0-0.2c-0.1,0-0.1-0.1-0.1-0.2
			c0-0.1,0-0.2,0-0.3c0-0.1,0.1-0.1,0.1-0.1c0.1,0,0.1-0.3,0.1-0.9c0-0.9-0.1-1.4-0.2-1.5c-0.1-0.1-0.1-0.2,0-0.3
			c0.1-0.1,0.2-0.4,0.2-0.8c0-0.1,0-0.2,0-0.3c0-0.1-0.1-0.2-0.1-0.3c0-0.1,0-0.1,0-0.1c0-0.1,0.5-0.1,1.4-0.1c0.1,0,0.1,0,0.2,0
			c0.1,0,0.1,0,0.2,0h0c0,0,0.1-0.1,0.1-0.2c0-0.1,0-0.3-0.1-0.6c0-0.2-0.1-0.4-0.3-0.5c-0.2-0.1-0.5-0.1-1-0.1
			c-0.1,0-0.6,0-1.5,0.1c-1.4,0.1-2.1,0.2-2.3,0.4c-0.2,0.2-0.2,0.4-0.2,0.5c0,0.4,0.3,0.6,1,0.7c0.5,0.1,0.7,0.2,0.7,0.4
			c0,0.1-0.1,0.2-0.2,0.3c-0.2,0.1-0.2,0.4-0.1,0.7c0.1,0.3,0.1,0.6,0,0.6c-0.1,0.1-0.2,0.1-0.3,0.1c-0.1,0-0.1,0-0.1,0.1
			c0,0.2,0.1,0.4,0.4,0.5c0.2,0.1,0.4,0.2,0.4,0.4c0,0.1-0.1,0.2-0.2,0.3c-0.1,0.1-0.2,0.4-0.2,0.9v0.4c0,0.8,0.1,1.3,0.2,1.3
			c0.1,0.1,0.1,0.2,0.1,0.5c0,0.2,0,0.3-0.1,0.3c-0.1,0-0.1,0.1-0.2,0.4c-0.1,0.3,0,0.4,0.2,0.5c0.1,0.1,0.3,0.3,0.4,0.6
			c0.1,0.3,0.2,0.5,0.3,0.5s0.1,0.1,0.2,0.4c0.1,0.3,0.2,0.4,0.4,0.4c0.2,0,0.4,0,0.5,0.1c0.1,0.1,1,0.2,2.5,0.2
			c1.3,0,1.9-0.1,1.9-0.2s0.1-0.2,0.2-0.2c0.1,0,0.2-0.1,0.3-0.2c0.1-0.1,0.2-0.2,0.4-0.2c0.2,0,0.3-0.1,0.3-0.3
			c0-0.1,0.1-0.2,0.1-0.3c0.1,0,0.2,0,0.5,0h0.1c0.3,0,0.5,0,0.5-0.1c0-0.1-0.1-0.1-0.2-0.2c-0.1-0.1-0.2-0.2-0.2-0.3
			c0-0.2,0.1-0.4,0.2-0.6c0.2-0.2,0.2-0.4,0.1-0.4c-0.1,0-0.2-0.1-0.2-0.2c0-0.1,0-0.2,0.1-0.2c0.1,0,0.2-0.2,0.2-0.4
			c0-0.2,0.1-0.6,0.1-0.9c0-0.4,0-0.6,0-0.6c0-0.1,0-0.5,0.1-1.1c0-0.6,0-1.2,0.1-1.7c0-0.5,0.1-0.8,0.2-0.9c0.1-0.1,0.2-0.2,0-0.2
			c-0.1-0.1-0.2-0.1-0.2-0.2c0-0.1,0.1-0.3,0.3-0.4c0.2-0.1,0.4-0.2,0.6-0.2c0.1,0,0.2,0,0.2,0c0,0,0.1,0,0.2,0
			c0.3,0,0.4-0.1,0.4-0.3c0-0.1,0-0.1-0.1-0.2c-0.1-0.1-0.1-0.2,0-0.2c0.1,0,0.1-0.1,0.1-0.2C309.4,783.1,309.1,783,308.3,783z"/>
		<path d="M322.8,780.6C322.9,780.6,322.9,780.5,322.8,780.6c0.1-0.1,0-0.1-0.2-0.1c-0.2,0-0.3,0.1-0.3,0.2
			C322.4,780.7,322.6,780.7,322.8,780.6C322.8,780.6,322.8,780.6,322.8,780.6z"/>
		<path d="M318.4,779.6c0-0.1-0.1-0.1-0.3-0.1c-0.2,0-0.3,0-0.3,0.1c0,0.1,0.1,0.2,0.3,0.2C318.3,779.8,318.4,779.7,318.4,779.6z"/>
		<path d="M326.1,782.4c-0.1,0-0.2,0-0.2-0.1s-0.1-0.2-0.4-0.3c-0.3-0.1-0.4-0.3-0.5-0.5l-0.2-0.3c-0.1-0.1-0.2-0.1-0.2,0.1
			c0,0.1-0.3,0.1-0.8,0.1c-0.6,0-0.9,0-0.9-0.1c0-0.1-0.1-0.1-0.3-0.1c-0.5,0-0.8-0.1-0.8-0.4c0-0.1-0.1-0.2-0.3-0.2
			s-0.3,0.1-0.2,0.3c0,0,0,0,0,0.1c0,0,0,0,0,0.1c0,0.1-0.6,0.2-1.8,0.2h-1.8l-0.5,0.5c-0.3,0.3-0.5,0.5-0.5,0.7
			c0,0.2,0.2,0.4,0.7,0.4c0.2,0,0.3,0,0.3,0.1c0,0.1,0,0.1,0.1,0.1c0.2,0,0.4,0.2,0.6,0.5c0.2,0.3,0.3,0.7,0.3,1.2
			c0,0.4,0.1,0.6,0.1,0.6c0,0.2-0.1,0.4-0.2,0.5c-0.2,0.1-0.2,0.2-0.1,0.3c0.1,0.1,0.2,0.3,0.2,0.7c0,0.3-0.1,0.5-0.2,0.5
			c-0.2,0-0.2,0,0,0.1c0.1,0.1,0.1,0.3,0,0.6c-0.1,0.3-0.1,0.5,0.1,0.6c0.1,0.1,0.1,0.2,0.1,0.3c0,0.2-0.1,0.4-0.2,0.5
			c-0.1,0.1-0.1,0.6-0.2,1.6l0,1.5l-0.4,0.2c-0.2,0.1-0.5,0.2-1.1,0.2c-0.3,0-0.5,0.1-0.5,0.1c-0.1,0.1-0.1,0.2-0.1,0.4
			c0,0.2,0.2,0.5,0.6,0.8c0.2,0.1,0.3,0.2,0.5,0.2c0.2,0,0.3-0.1,0.3-0.2c0.1-0.1,0.8-0.2,2.1-0.2c1.4-0.1,2.1-0.1,2.2-0.3
			c0.1-0.1,0.2-0.2,0.3-0.2c0.1,0,0.2-0.1,0.2-0.2c0-0.1-0.1-0.2-0.4-0.2c-0.3,0-0.4-0.1-0.5-0.3c0-0.2-0.2-0.3-0.5-0.4
			c-0.4-0.1-0.5-0.2-0.5-0.4c0-0.1,0-0.2,0.1-0.3c0.2-0.2,0.2-0.3,0.1-0.4c-0.1,0-0.2-0.6-0.2-1.6c0-0.3,0-0.6,0-1
			c0-0.3,0-0.4,0.1-0.5c0-0.1,0.1-0.1,0.2-0.1c0.2,0,0.5,0,0.8,0.1c0.3,0.1,0.5,0.2,0.6,0.3c0.1,0.1,0.7,0.2,1.7,0.2
			c0.8,0,1.2,0,1.2-0.1c0.1-0.1,0-0.2-0.2-0.3c-0.2-0.1-0.4-0.2-0.5-0.4c-0.1-0.1-0.2-0.2-0.2-0.2c0,0,0.1-0.1,0.3-0.1
			c0.3-0.1,0.4-0.1,0.4-0.2c0-0.1,0.1-0.2,0.4-0.3c0.3-0.1,0.4-0.2,0.4-0.4c0-0.5,0.1-0.7,0.3-0.7c0.1,0,0.2-0.1,0.4-0.2
			c0.2-0.2,0.2-0.7,0.2-1.5c0-1-0.1-1.5-0.3-1.7C326.3,782.5,326.2,782.4,326.1,782.4z M324.5,786.1c0,0-0.1,0.1-0.4,0.1h-0.1
			c0,0-0.1,0-0.1,0c-0.1,0-0.1,0,0,0.1c0.1,0.1,0.2,0.1,0.2,0.2c0,0.1-0.1,0.3-0.3,0.5c-0.2,0.2-0.5,0.3-0.7,0.3
			c-0.3,0-0.6,0.1-1.1,0.2c-0.1,0-0.2,0-0.3,0c-0.2,0-0.4-0.1-0.7-0.3c-0.2-0.2-0.3-0.3-0.4-0.3c0-0.1,0-0.1,0.1-0.2
			c0.1-0.1,0.2-0.7,0.2-1.6v-1.2c0-0.3,0.1-0.5,0.2-0.7c0.1-0.2,0.3-0.4,0.4-0.4h0.1l0.4,0.1c0.3,0,0.5,0.1,0.8,0.1
			c0.2,0.1,0.4,0.1,0.4,0.1c0,0.1,0.1,0.1,0.4,0.2c0.3,0.1,0.4,0.2,0.4,0.3c0,0.1,0.1,0.3,0.2,0.4c0.1,0.1,0.2,0.2,0.1,0.3
			c-0.1,0.1-0.1,0.3,0.1,0.6c0.1,0.2,0.2,0.4,0.2,0.6C324.6,785.3,324.6,785.6,324.5,786.1z"/>
		<path d="M336.3,788.7c0-0.1,0-0.2-0.1-0.2c-0.1,0-0.1,0-0.1,0.1l0.1,0.2C336.2,789,336.3,788.9,336.3,788.7z"/>
		<path d="M342.1,789.5c0-0.6-0.1-0.9-0.2-1.1c-0.1-0.2-0.3-0.4-0.6-0.5c-0.3-0.1-0.5-0.3-0.5-0.4c-0.1-0.1-0.3-0.3-0.9-0.6
			c-0.5-0.3-1-0.5-1.3-0.6c-0.2-0.1-0.5-0.2-0.9-0.5c-0.4-0.3-0.6-0.4-0.6-0.5c0-0.1-0.1-0.2-0.2-0.3c-0.2-0.1-0.2-0.2-0.2-0.3
			c0,0,0-0.1,0-0.1c0.1-0.1,0.1-0.2,0.1-0.3c0-0.1,0-0.3-0.1-0.6c0-0.1,0-0.2,0-0.2c0,0,0.2-0.1,0.3-0.1c0.3,0,0.4-0.1,0.4-0.2
			c0-0.1,0.1-0.2,0.4-0.4c0.3-0.2,0.4-0.3,0.4-0.3c0-0.1,0.1-0.1,0.4-0.2c0.1,0,0.1,0,0.2,0c0.4,0,0.8,0.2,1.2,0.5
			c0.5,0.3,0.7,0.6,0.7,0.9c0,0.2,0.1,0.4,0.3,0.5c0.2,0.1,0.3,0.3,0.3,0.4c0,0.1,0.1,0.3,0.2,0.5s0.3,0.3,0.4,0.3c0,0,0,0,0.1,0
			c0.1-0.1,0.1-0.7,0.2-2v-0.8c0-0.6-0.1-0.9-0.2-0.9c-0.1,0-0.1,0-0.1,0c-0.3,0.1-0.6,0.2-0.8,0.2c-0.3,0-0.6-0.1-1-0.3
			c-0.4-0.2-0.6-0.3-0.7-0.3c0,0-0.1,0-0.2,0.1c-0.3,0.1-0.6,0.1-0.8,0.1c-0.3,0-0.4,0-0.5,0.1c0,0.1-0.1,0.2-0.3,0.2
			c-0.2,0-0.4-0.1-0.5-0.2c-0.1-0.1-0.3-0.2-0.5-0.2h0c-0.1,0-0.1,0-0.1,0c-0.1,0-0.1,0-0.1,0c0,0,0.1,0,0.1,0
			c0.1,0.1,0.2,0.1,0.2,0.2c0,0.2-0.2,0.3-0.5,0.4c-0.3,0.1-0.4,0.2-0.4,0.4c0.1,0.2,0,0.3-0.2,0.4c-0.3,0.1-0.6,0.5-1.1,1.1
			c-0.1,0.2-0.2,0.4-0.2,0.6c0,0,0,0.3,0.1,0.8c0.1,0.7,0.3,1.1,0.4,1.3c0.1,0.2,0.4,0.4,0.7,0.7c0.4,0.3,0.6,0.4,0.8,0.4
			c0.1,0,0.3,0.1,0.6,0.4c0.4,0.3,0.9,0.6,1.7,0.8c0.5,0.1,0.8,0.3,1.1,0.6c0.2,0.2,0.3,0.4,0.5,0.7c0.1,0.3,0.2,0.5,0.2,0.7
			c0,0.1,0,0.1-0.1,0.2c-0.1,0-0.1,0.2-0.1,0.4c0.1,0.2,0,0.4-0.2,0.6c-0.1,0.1-0.2,0.3-0.2,0.4c0,0.2-0.5,0.4-1.4,0.5
			c-0.1,0-0.3,0-0.6,0c-0.9,0-1.7-0.4-2.2-1.2c-0.3-0.4-0.5-0.8-0.5-1c0,0,0-0.1,0-0.2c0-0.1,0-0.2,0-0.2c0,0-0.1-0.1-0.1-0.1
			c-0.1,0-0.1,0-0.1-0.1c0.1-0.3-0.1-0.5-0.4-0.6c-0.1,0-0.2-0.1-0.3-0.1c-0.3,0-0.4,0.2-0.5,0.5c-0.1,1.2-0.1,1.9-0.2,1.9
			c-0.1,0.1-0.1,0.4-0.2,0.8c0,0.1,0,0.3,0,0.4c0,0.2,0.1,0.4,0.3,0.6c0.1,0.1,0.2,0.2,0.3,0.2c0,0,0.1,0,0.2-0.2
			c0.1-0.2,0.2-0.3,0.2-0.4c0-0.3,0.2-0.3,0.5-0.1c0.9,0.5,1.8,0.7,2.9,0.7c0.5,0,1.1-0.1,1.6-0.2c0.6-0.1,1.1-0.3,1.4-0.6
			c0.3-0.3,0.5-0.5,0.5-0.5c0-0.1,0.1-0.2,0.2-0.3c0.2-0.1,0.3-0.4,0.3-0.9c0.1-0.5,0.1-0.7,0.2-0.7c0.1,0,0.1,0,0-0.1
			S342.2,790.2,342.1,789.5z M337.8,788C337.7,788,337.7,787.9,337.8,788c-0.1-0.1-0.1-0.1,0-0.1S337.8,787.9,337.8,788
			C337.8,787.9,337.8,788,337.8,788z"/>
		<polygon points="51.7,808.8 44,814 41.2,799.9 38.4,814 30.7,808.8 35.9,816.5 21.8,819.3 35.9,822 30.7,829.8 38.4,824.6 
			41.2,838.6 43.9,824.6 51.7,829.8 46.5,822 60.5,819.3 46.5,816.5 		"/>
		<polygon points="468.1,816.5 473.3,808.8 465.5,814 462.8,799.9 460,814 452.3,808.8 457.5,816.5 443.4,819.3 457.5,822 
			452.3,829.8 460,824.6 462.8,838.6 465.5,824.6 473.3,829.8 468.1,822 482.1,819.3 		"/>
		<polygon points="30.7,57.5 38.4,52.3 41.2,66.4 44,52.3 51.7,57.5 46.5,49.8 60.5,47 46.5,44.3 51.7,36.5 43.9,41.7 41.2,27.7 
			38.4,41.7 30.7,36.5 35.9,44.3 21.8,47 35.9,49.8 		"/>
		<polygon points="473.3,36.5 465.5,41.7 462.8,27.7 460,41.7 452.3,36.5 457.5,44.3 443.4,47 457.5,49.8 452.3,57.5 460,52.3 
			462.8,66.4 465.5,52.3 473.3,57.5 468.1,49.8 482.1,47 468.1,44.3 		"/>
		<polygon points="246,205.7 240,215.2 249.5,209.2 252,225 254.4,209.2 263.9,215.2 257.9,205.7 273.8,203.2 257.9,200.7 
			263.9,191.3 254.4,197.3 252,181.4 249.5,197.3 240,191.3 246,200.7 230.2,203.2 		"/>
		<path d="M179.8,482.6c3,0,5.5-1.6,5.5-6.7c0-5.1-5.5-40-5.5-40s-5.5,34.9-5.5,40C174.3,481,176.8,482.6,179.8,482.6z"/>
		<path d="M206,652.7c-8.2-7.9-17.9-13.8-27.3-20.1c0,0,0-0.1,0.1-0.1c1.4-4.3,0-10.3-0.5-14.7c-0.1-0.5-0.1-1-0.2-1.6
			c4.8-7.8,3.1-17.5-3.1-24c-0.6-0.6-1.7-0.5-2.1,0.3c-4.1,7.4-1.6,16.8,2.5,23.6c0.1,0.8,0.2,1.7,0.2,2.4c0.4,3.7,1.6,8.7,0.7,12.5
			c-4.5-3.1-8.9-6.3-12.9-10c-6.5-5.9-12-12.5-16.5-19.7c2.6-3.9,5.3-8.2,6.5-12.8c7.2-5.6,9.1-15.1,5.7-23.5
			c-0.4-0.9-1.5-0.8-2.1-0.3c-6.5,5.3-7.5,15.2-6.2,22.9c-1,3.9-3.2,7.6-5.4,11.1c-5-8.7-8.3-18.3-9.8-28.6
			c2.4-7.6,2.6-17.4-3.2-23.6c-0.6-0.6-1.7-0.5-2.1,0.3c-4.4,7.7-3.8,17.5,2.7,23.9c0.8,6,2.3,11.8,4.3,17.5
			c-0.5-0.4-0.9-0.8-1.4-1.3c-1.7-1.5-3.1-3.4-4.8-4.9c-2.5-7.5-8.1-15.8-16.5-17.4c-0.8-0.1-1.8,0.3-1.7,1.3
			c0.7,9.1,6.9,16.5,16.1,17.8c2,1.7,3.6,3.8,5.5,5.5c1.6,1.5,3.2,3,5,4.4c1.1,2.5,2.4,4.9,3.8,7.2c0.8,1.3,1.6,2.6,2.4,3.8
			c-5.5-2.1-10.8-5-16.4-6.7c0,0-0.1,0-0.1,0c-5-6-13-11.1-21.2-9.7c-0.9,0.2-1.2,1.2-0.8,2c4.1,7.8,12.6,12.4,21.4,10.8
			c0.2,0,0.5,0,0.7-0.1c0,0,0,0,0,0c6.5,2.1,12.4,5.6,19,7.6c9.1,12.2,21.2,21.5,33.9,30.2c1.6,1.1,3.2,2.1,4.7,3.2
			c-5.9,2.2-11.8,2-17.8-0.1c-3.5-1.3-6.8-2.9-10.2-4.6c-1.5-5.6-5.8-11.5-11-14.1c-4.3-6.6-11.9-13.1-20.3-12.5
			c-0.8,0.1-1.6,0.8-1.3,1.7c3,8.7,11,14.2,20.2,13.1c3.9,1.9,7.3,6,9.1,10.2c-1.2-0.6-2.4-1.1-3.6-1.6c-7.2-3-15.2-5.9-23.1-6.7
			c-0.1-0.1-0.3-0.2-0.5-0.2c-7.4-3.8-17.6-5.9-25-1c-0.7,0.4-1,1.5-0.3,2.1c7.2,6,17.4,7.3,25.3,1.8c9.6,0.8,19.6,4.8,27.9,8.9
			c0.3,0.1,0.6,0.3,0.9,0.4c0.1,0,0.1,0.1,0.2,0.1c4.4,2.2,8.9,4.5,13.6,5.9c-2.7,3-8.1,4.8-11.5,6.1c-3.3,1.3-6.7,2.6-10.1,3.4
			c-8.2-3.4-17.3-0.9-23,5.7c-0.7,0.8-0.4,1.8,0.6,2.2c7.9,3.3,17.1-0.6,23.4-5.4c4-1,7.9-2.5,11.6-4.1c4-1.7,9.3-3.6,11.9-7.3
			c0.2,0,0.3,0.1,0.5,0.1c5.1,0.9,10.5-0.3,15.2-2.2c0.1,0,0.1-0.1,0.1-0.1c5.3,3.6,10.5,7.4,15.2,12c2.5,2.4,4.8,5,7,7.6
			c-6.8-0.4-13.4-2.3-20.2-2.5c0,0-0.1,0-0.1,0c-6.4-4.5-15.4-7.4-23-4c-0.8,0.4-0.8,1.5-0.3,2.1c6,6.6,15.4,8.8,23.5,4.9
			c0.2,0,0.4-0.1,0.6-0.3c0,0,0,0,0.1,0c6.9,0.4,13.7,2.4,20.7,2.6c0.3,0,0.6-0.1,0.8-0.2c3.5,4.3,6.8,8.8,9.9,13.4
			c1,1.4,3.3,0.1,2.3-1.3C220.2,668.7,213.8,660.1,206,652.7z"/>
		<path d="M400.5,625.7c-7.5-4.9-17.6-2.8-25,1c-0.2,0-0.3,0.1-0.5,0.2c-7.9,0.7-16,3.6-23.1,6.7c-1.2,0.5-2.4,1.1-3.6,1.6
			c1.8-4.2,5.2-8.3,9.1-10.2c9.2,1.2,17.2-4.4,20.2-13.1c0.3-0.9-0.5-1.6-1.3-1.7c-8.5-0.6-16,5.9-20.3,12.5
			c-5.2,2.6-9.5,8.5-11,14.1c-3.3,1.7-6.6,3.3-10.2,4.6c-6,2.2-11.9,2.3-17.8,0.1c1.6-1.1,3.2-2.1,4.7-3.2
			c12.7-8.6,24.8-17.9,33.9-30.2c6.5-2,12.5-5.5,19-7.6c0,0,0,0,0,0c0.2,0.1,0.4,0.2,0.7,0.1c8.8,1.7,17.3-2.9,21.4-10.8
			c0.4-0.7,0.1-1.8-0.8-2c-8.2-1.4-16.1,3.7-21.2,9.7c0,0-0.1,0-0.1,0c-5.6,1.7-10.9,4.6-16.4,6.7c0.8-1.2,1.6-2.5,2.4-3.8
			c1.4-2.4,2.6-4.8,3.8-7.2c1.8-1.3,3.4-2.9,5-4.4c1.9-1.7,3.5-3.9,5.5-5.5c9.1-1.3,15.4-8.7,16.1-17.8c0.1-0.9-0.9-1.4-1.7-1.3
			c-8.4,1.6-14,9.9-16.5,17.4c-1.7,1.5-3.1,3.4-4.8,4.9c-0.5,0.4-0.9,0.8-1.4,1.3c2.1-5.6,3.5-11.5,4.3-17.5
			c6.5-6.4,7.1-16.2,2.7-23.9c-0.4-0.7-1.5-0.9-2.1-0.3c-5.8,6.2-5.6,16.1-3.2,23.6c-1.4,10.2-4.8,19.8-9.8,28.6
			c-2.2-3.4-4.4-7.1-5.4-11.1c1.3-7.7,0.4-17.6-6.2-22.9c-0.6-0.5-1.7-0.6-2.1,0.3c-3.4,8.3-1.5,17.8,5.7,23.5
			c1.2,4.6,3.9,8.9,6.5,12.8c-4.5,7.3-10,13.9-16.5,19.7c-4.1,3.7-8.4,6.9-12.9,10c-0.9-3.8,0.3-8.9,0.7-12.5
			c0.1-0.8,0.2-1.6,0.2-2.4c4.1-6.7,6.6-16.2,2.5-23.6c-0.4-0.7-1.5-0.9-2.1-0.3c-6.2,6.5-7.9,16.2-3.1,24c-0.1,0.5-0.1,1-0.2,1.6
			c-0.5,4.4-1.9,10.3-0.5,14.7c0,0,0,0.1,0.1,0.1c-9.4,6.4-19.1,12.2-27.3,20.1c-7.7,7.4-14.2,16-20.2,24.8c-1,1.4,1.3,2.7,2.3,1.3
			c3.1-4.6,6.4-9.1,9.9-13.4c0.2,0.1,0.5,0.2,0.8,0.2c7-0.2,13.8-2.1,20.7-2.6c0,0,0,0,0.1,0c0.2,0.1,0.3,0.2,0.6,0.3
			c8.1,3.9,17.5,1.6,23.5-4.9c0.5-0.6,0.5-1.7-0.3-2.1c-7.5-3.5-16.5-0.5-23,4c0,0-0.1,0-0.1,0c-6.8,0.3-13.4,2.1-20.2,2.5
			c2.2-2.6,4.6-5.2,7-7.6c4.7-4.6,9.9-8.3,15.2-12c0,0,0.1,0.1,0.1,0.1c4.7,1.9,10.1,3.1,15.2,2.2c0.2,0,0.3-0.1,0.5-0.1
			c2.6,3.7,7.9,5.7,11.9,7.3c3.7,1.6,7.6,3.1,11.6,4.1c6.2,4.9,15.5,8.8,23.4,5.4c1-0.4,1.3-1.4,0.6-2.2c-5.7-6.7-14.8-9.2-23-5.7
			c-3.4-0.9-6.8-2.2-10.1-3.4c-3.5-1.4-8.8-3.1-11.5-6.1c4.7-1.4,9.2-3.7,13.6-5.9c0.1,0,0.1-0.1,0.2-0.1c0.3-0.1,0.6-0.3,0.9-0.4
			c8.4-4.1,18.3-8.2,27.9-8.9c7.9,5.5,18.1,4.2,25.3-1.8C401.5,627.3,401.2,626.2,400.5,625.7z"/>
		<path d="M245.6,146.1c0.9,0.4,1.8,0.8,2.7,1.2c0.5,0.2,1.1,0.5,1.6,0.7c0.1,0.1,0.2,0.1,0.2,0.1c0,0,0,0,0,0.1
			c1,1.7,1.2,4.2,1.8,6.1c0.1,0.4,0.7,0.4,0.8,0c0.6-1.9,0.9-4.4,1.8-6.1c0,0,0,0,0-0.1c0,0,0.1,0,0.1-0.1c0.5-0.3,1.2-0.5,1.7-0.8
			c0.9-0.4,1.8-0.8,2.7-1.2c0.4-0.2,0.2-0.6-0.1-0.7c-0.9-0.4-1.8-0.8-2.7-1.1c-1.1-0.5-1.7-0.5-2-1.5c-0.6-1.9-1.1-3.9-1.6-5.9
			c0,0,0,0,0-0.1c0,0,0,0,0-0.1c-0.1-0.1-0.2-0.2-0.3-0.2c-0.1,0-0.3,0-0.3,0.2c0,0,0,0.1,0,0.1c0,0,0,0,0,0c0,0,0,0,0,0
			c0,0,0,0,0,0c-0.5,1.9-1,3.9-1.5,5.9c-0.5,1.5-3.3,2.1-4.7,2.7C245.5,145.5,245.3,145.9,245.6,146.1z M251.1,143.6
			c0.6-1,0.7-2.7,1-3.7c0.1-0.5,0.3-0.9,0.4-1.4c0.1,0.5,0.3,0.9,0.4,1.4c0.3,1.1,0.4,2.7,1,3.7c0.6,1.1,2.7,1.7,4.2,2.2
			c-0.7,0.3-1.5,0.7-2.2,1c-0.6,0.3-1.5,0.5-1.9,1c-0.6,0.8-0.7,2.4-1,3.4c-0.2,0.6-0.3,1.1-0.5,1.7c-0.2-0.6-0.3-1.1-0.5-1.7
			c-0.3-0.9-0.4-2.6-1-3.4c-0.4-0.6-1.2-0.7-1.9-1c-0.7-0.3-1.5-0.7-2.2-1C248.4,145.3,250.4,144.7,251.1,143.6z"/>
		<path d="M333.1,267.4c-1.1,0-1.9,0.9-1.9,2l0,0.5c0,1.1,0.9,1.9,2,1.9c0,0,0,0,0,0c1.1,0,1.9-0.9,1.9-2l0-0.5
			C335.1,268.3,334.2,267.4,333.1,267.4z"/>
		<path d="M334.6,377.1c0-1.1-0.8-2-1.9-2c-1.1,0-2,0.8-2,1.9l0,1c0,1.1,0.8,2,1.9,2c0,0,0.1,0,0.1,0c1,0,1.9-0.8,2-1.9L334.6,377.1
			z"/>
		<path d="M331.4,291.5c0,1.1,0.9,1.9,2,1.9c0,0,0,0,0,0c1.1,0,2-0.9,1.9-2l0-1l-1.3,0l-2.6,0L331.4,291.5z"/>
		<polygon points="333.3,290.5 334,290.5 335.3,290.5 		"/>
		<path d="M333.2,277.8c-1.1,0-1.9,0.9-1.9,2l0,1c0,1.1,0.9,1.9,2,1.9c0,0,0,0,0,0c1.1,0,1.9-0.9,1.9-2l0-1
			C335.2,278.6,334.3,277.7,333.2,277.8z"/>
		<path d="M331.5,312.2l0,1c0,1.1,0.9,2,2,2c0,0,0,0,0,0c1.1,0,2-0.9,2-2l0-1c0-1.1-0.9-2-2-2C332.4,310.2,331.5,311.1,331.5,312.2z
			"/>
		<path d="M333.4,299.4c-1.1,0-2,0.9-1.9,2l0,1c0,1.1,0.9,1.9,2,1.9c0,0,0,0,0,0c1.1,0,2-0.9,1.9-2l0-1
			C335.4,300.3,334.5,299.4,333.4,299.4z"/>
		<path d="M334.9,366.3c0-1.1-0.8-2-1.9-2c-1.1,0-2,0.8-2,1.9l0,1c0,1.1,0.8,2,1.9,2c0,0,0,0,0.1,0c1.1,0,1.9-0.8,2-1.9L334.9,366.3
			z"/>
		<path d="M324.5,444.2c0.9,0,1.6-0.6,1.9-1.4l0.3-1c0.3-1-0.3-2.1-1.4-2.4c-1-0.3-2.1,0.3-2.4,1.4l-0.3,0.9c-0.3,1,0.3,2.1,1.3,2.4
			C324.1,444.2,324.3,444.2,324.5,444.2z"/>
		<path d="M330.8,421.4l0.1-1c0.2-1.1-0.6-2.1-1.7-2.2c-1.1-0.2-2.1,0.6-2.2,1.7l-0.1,1c-0.2,1.1,0.6,2.1,1.6,2.2c0.1,0,0.2,0,0.3,0
			C329.8,423.1,330.7,422.4,330.8,421.4z"/>
		<path d="M322.1,449.7c-1-0.4-2.1,0.1-2.5,1.1c-0.1,0.3-0.2,0.6-0.4,0.9c-0.4,1,0.1,2.1,1.1,2.6c0.2,0.1,0.5,0.2,0.8,0.2
			c0.8,0,1.5-0.5,1.8-1.2c0.1-0.3,0.3-0.6,0.4-0.9C323.6,451.3,323.1,450.1,322.1,449.7z"/>
		<path d="M334,388.9l0.1-1c0.1-1.1-0.8-2-1.8-2.1c-1.1-0.1-2,0.8-2.1,1.8l-0.1,1c-0.1,1.1,0.8,2,1.8,2.1c0,0,0.1,0,0.1,0
			C333,390.8,333.9,390,334,388.9z"/>
		<path d="M333.2,399.8l0.1-1c0.1-1.1-0.7-2-1.8-2.1c-1.1-0.1-2,0.7-2.1,1.8l-0.1,1c-0.1,1.1,0.7,2,1.8,2.1c0.1,0,0.1,0,0.2,0
			C332.3,401.6,333.1,400.8,333.2,399.8z"/>
		<path d="M332.2,410.6l0.1-1c0.1-1.1-0.7-2-1.7-2.2c-1.1-0.1-2,0.7-2.2,1.7l-0.1,1c-0.1,1.1,0.7,2,1.7,2.2c0.1,0,0.1,0,0.2,0
			C331.2,412.3,332.1,411.6,332.2,410.6z"/>
		<path d="M328.9,432.1l0.2-1c0.2-1.1-0.5-2.1-1.5-2.3c-1.1-0.2-2.1,0.5-2.3,1.5l-0.2,1c-0.2,1.1,0.5,2.1,1.5,2.3c0.1,0,0.3,0,0.4,0
			C327.9,433.7,328.7,433.1,328.9,432.1z"/>
		<path d="M299.8,473.1c-0.3,0.1-0.6,0.2-0.9,0.3c-1,0.3-1.6,1.4-1.3,2.5c0.3,0.8,1,1.4,1.9,1.4c0.2,0,0.4,0,0.6-0.1
			c0.3-0.1,0.7-0.2,1-0.3c1-0.4,1.5-1.5,1.2-2.5C301.9,473.2,300.8,472.7,299.8,473.1z"/>
		<path d="M335.2,355.5c0-1.1-0.8-2-1.9-2c-1.1,0-2,0.8-2,1.9l0,1c0,1.1,0.8,2,1.9,2c0,0,0,0,0,0c1.1,0,1.9-0.9,2-1.9L335.2,355.5z"
			/>
		<path d="M314.8,460.2c-0.2,0.3-0.3,0.5-0.5,0.8c-0.6,0.9-0.3,2.1,0.6,2.7c0.3,0.2,0.7,0.3,1.1,0.3c0.6,0,1.3-0.3,1.6-0.9
			c0.2-0.3,0.4-0.6,0.6-0.9c0.6-0.9,0.3-2.1-0.6-2.7C316.6,459,315.4,459.2,314.8,460.2z"/>
		<path d="M289.3,474.8l-0.4,0c-1.1,0-2,0.9-2,1.9c0,1.1,0.9,2,1.9,2l0.5,0l0.5,0c1.1,0,1.9-0.9,1.9-2s-0.9-1.9-2-1.9L289.3,474.8z"
			/>
		<path d="M308.3,468c-0.2,0.2-0.5,0.4-0.7,0.6c-0.8,0.7-1,1.9-0.3,2.8c0.4,0.5,0.9,0.7,1.5,0.7c0.4,0,0.9-0.1,1.2-0.4
			c0.3-0.2,0.5-0.4,0.8-0.7c0.8-0.7,0.9-2,0.2-2.8C310.4,467.3,309.1,467.3,308.3,468z"/>
		<path d="M335.4,333.8c0-1.1-0.9-2-1.9-2c0,0,0,0,0,0c-1.1,0-2,0.9-2,1.9l0,1c0,1.1,0.9,2,1.9,2c0,0,0,0,0,0c1.1,0,2-0.9,2-1.9
			L335.4,333.8z"/>
		<path d="M335.4,323c0-1.1-0.9-2-2-2s-2,0.9-2,2v1c0,1.1,0.9,2,2,2c0,0,0,0,0,0c1.1,0,2-0.9,2-2V323z"/>
		<path d="M335.3,344.6c0-1.1-0.9-2-1.9-2c-1.1,0-2,0.9-2,1.9l0,1c0,1.1,0.9,2,1.9,2c0,0,0,0,0,0c1.1,0,1.9-0.9,2-1.9L335.3,344.6z"
			/>
		<path d="M279.4,473.7l-0.5-0.1c-1.1-0.2-2.1,0.4-2.3,1.5c-0.2,1.1,0.4,2.1,1.5,2.3l0.5,0.1c0.1,0,0.3,0,0.4,0
			c0.9,0,1.7-0.6,1.9-1.6C281.1,474.9,280.4,473.9,279.4,473.7z"/>
		<path d="M171.3,271.8C171.3,271.8,171.4,271.8,171.3,271.8c1.1,0,2-0.9,2-2l0-0.5c0-1.1-0.9-1.9-2-1.9c-1.1,0-1.9,0.9-1.9,2l0,0.5
			C169.4,271,170.3,271.8,171.3,271.8z"/>
		<path d="M167.9,323.5c0,1.1,0.8,2,1.9,2c0,0,0,0,0.1,0c1,0,1.9-0.8,2-1.9l0-1c0-1.1-0.8-2-1.9-2c-1.1-0.1-2,0.8-2,1.9L167.9,323.5
			z"/>
		<path d="M167.6,334.2c0,1.1,0.8,2,1.9,2c0,0,0,0,0,0c1.1,0,1.9-0.8,2-1.9l0-1c0-1.1-0.8-2-1.9-2c-1.1,0-2,0.8-2,1.9L167.6,334.2z"
			/>
		<path d="M167.5,345c0,1.1,0.9,2,2,2h0c1.1,0,2-0.9,2-2l0-1c0-1.1-0.9-2-2-2c0,0,0,0,0,0c-1.1,0-2,0.9-2,2L167.5,345z"/>
		<path d="M169.6,357.7C169.6,357.7,169.6,357.7,169.6,357.7c1.1,0,2-0.9,2-2l0-1c0-1.1-0.9-1.9-2-1.9c-1.1,0-1.9,0.9-1.9,2l0,1
			C167.7,356.9,168.6,357.7,169.6,357.7z"/>
		<path d="M171.3,282.6C171.3,282.6,171.3,282.6,171.3,282.6c1.1,0,2-0.9,2-1.9l0-1c0-1.1-0.9-2-1.9-2c0,0,0,0,0,0
			c-1.1,0-1.9,0.9-2,1.9l0,1C169.4,281.7,170.2,282.6,171.3,282.6z"/>
		<path d="M170.2,368.4c0.1,0,0.1,0,0.2,0c1.1-0.1,1.9-1,1.8-2.1l-0.1-1c-0.1-1.1-1-1.9-2.1-1.8c-1.1,0.1-1.9,1-1.8,2.1l0.1,1
			C168.4,367.7,169.2,368.4,170.2,368.4z"/>
		<path d="M169.1,291.3c0,1.1,0.8,2,1.9,2c0,0,0,0,0.1,0c1.1,0,1.9-0.8,2-1.9l0-1c0-1.1-0.8-2-1.9-2c-1.1,0-2,0.8-2,1.9L169.1,291.3
			z"/>
		<path d="M168.8,302c0,1.1,0.8,2,1.9,2c0,0,0.1,0,0.1,0c1,0,1.9-0.8,2-1.9l0-1c0-1.1-0.8-2-1.9-2c-1.1,0-2,0.8-2,1.9L168.8,302z"/>
		<path d="M168.3,312.7c0,1.1,0.8,2,1.9,2c0,0,0.1,0,0.1,0c1,0,1.9-0.8,2-1.9l0-1c0-1.1-0.8-2-1.9-2c-1.1,0-2,0.8-2,1.9L168.3,312.7
			z"/>
		<path d="M192.6,413.6c0.2,0.1,0.5,0.1,0.7,0.1c0.8,0,1.5-0.5,1.8-1.3c0.4-1-0.1-2.1-1.1-2.5c-0.3-0.1-0.6-0.2-0.8-0.3
			c-1-0.4-2.1,0-2.6,1c-0.4,1,0,2.1,1,2.6C191.9,413.3,192.2,413.5,192.6,413.6z"/>
		<path d="M203.6,415.8c0,0,0.1,0,0.1,0c1,0,1.9-0.8,2-1.9c0.1-1.1-0.8-2-1.9-2.1c-0.3,0-0.6,0-0.9-0.1c-1.1-0.1-2,0.7-2.1,1.8
			c-0.1,1.1,0.7,2,1.8,2.1C202.9,415.8,203.3,415.8,203.6,415.8z"/>
		<path d="M171.5,379.1c0.1,0,0.2,0,0.3,0c1.1-0.2,1.8-1.2,1.6-2.3l-0.2-0.9c-0.2-1.1-1.2-1.8-2.2-1.6c-1.1,0.2-1.8,1.2-1.6,2.2
			l0.2,1C169.8,378.4,170.6,379.1,171.5,379.1z"/>
		<path d="M213.7,415.4c0.3,0,0.7-0.1,1-0.1c1.1-0.2,1.8-1.2,1.6-2.2c-0.2-1.1-1.2-1.8-2.2-1.6c-0.3,0-0.6,0.1-0.9,0.1
			c-1.1,0.1-1.8,1.1-1.7,2.2c0.1,1,1,1.7,1.9,1.7C213.6,415.4,213.6,415.4,213.7,415.4z"/>
		<path d="M172,388.2c0.3,0.9,1,1.4,1.9,1.4c0.2,0,0.4,0,0.6-0.1c1-0.3,1.6-1.4,1.3-2.4c-0.1-0.3-0.2-0.6-0.3-0.9
			c-0.3-1-1.4-1.6-2.4-1.4c-1,0.3-1.6,1.4-1.4,2.4C171.8,387.5,171.9,387.8,172,388.2z"/>
		<path d="M176.2,398.5c0.4,0.7,1,1,1.7,1c0.3,0,0.6-0.1,0.9-0.2c1-0.5,1.3-1.7,0.8-2.6c-0.1-0.3-0.3-0.5-0.4-0.8
			c-0.5-1-1.7-1.4-2.6-0.9c-1,0.5-1.4,1.7-0.9,2.6C175.8,397.9,176,398.2,176.2,398.5z"/>
		<path d="M184.3,408.1c0.5,0,1-0.2,1.4-0.6c0.7-0.8,0.7-2-0.1-2.8c-0.2-0.2-0.4-0.4-0.6-0.6c-0.8-0.8-2-0.8-2.8,0
			c-0.8,0.8-0.8,2,0,2.8c0.2,0.2,0.5,0.5,0.7,0.7C183.3,407.9,183.8,408.1,184.3,408.1z"/>
		<path d="M224,413.2c0.2,0,0.3,0,0.5-0.1l0.5-0.1c1-0.3,1.7-1.4,1.4-2.4c-0.3-1-1.4-1.6-2.4-1.4l-0.5,0.1c-1,0.3-1.7,1.4-1.4,2.4
			C222.4,412.6,223.2,413.2,224,413.2z"/>
		<path d="M169.9,265.1c0,0,5.8,0,10.1,0c4.3,0,0,68,0,68c0,28,17.3,52.3,42,63.4c-0.1,0.4-0.1,0.9-0.1,1.3v1.5c0,4.9,4,8.9,8.8,9
			c0.1,11.7,0,21.9-0.9,23.4c-2.2,3.6-6.4,4.3-6.4,9.8c0,5.5,3.2,6.3,6.4,9.8c0.7,0.8,1.3,4.8,1.8,10.6h-0.8c-1.7,0-3.1,1.4-3.1,3.1
			v4.1c0,1.7,1.4,3.1,3.1,3.1h1.5c0.7,14.5,1,33.6,1.3,47.4c-3.7,0.9-6.7,4.7-7.7,9.6c-13.9,5.7-23.2,13.9-29.7,13.9
			c-10,0-10.4,0-10.4,0c-0.3,0-0.5,0.2-0.5,0.5v9.3c0,0.3,0.2,0.5,0.5,0.5h132.7c0.3,0,0.5-0.2,0.5-0.5v-9.3c0-0.3-0.2-0.5-0.5-0.5
			c0,0-0.9,0-10.4,0c-6.2,0-15.7-8.3-29.7-14c-1-4.8-4-8.6-7.6-9.5c0.4-13.8,0.9-32.9,1.6-47.5h1.1c1.7,0,3.1-1.4,3.1-3.1v-4.1
			c0-1.7-1.4-3.1-3.1-3.1h-0.4c0.4-5.8,0.9-9.7,1.4-10.6c2.2-3.6,6.4-4.2,6.4-9.8s-3.2-6.3-6.4-9.8c-1.3-1.4-1.5-11.7-1.3-23.4h0.2
			c5,0,9-4.1,9-9v-1.5c0-0.5,0-0.9-0.1-1.3c24.7-11.1,42-35.4,42-63.4c0,0-4.6-68,0-68c4.6,0,10.1,0,10.1,0c2.2,0,4-1.7,4-3.9v-4.3
			c0-2.1-1.8-3.9-4-3.9H169.9c-2.2,0-4,1.7-4,3.9v4.3C165.9,263.3,167.7,265.1,169.9,265.1z M251.8,384c-16-0.1-28.8-13.2-28.7-29.1
			c0-1.3,0.1-2.6,0.3-3.9c1.8,14.1,13.8,25.1,28.4,25.2c14.6,0.1,26.8-10.7,28.8-24.8c0.2,1.3,0.3,2.6,0.2,3.9
			C280.8,371.3,267.7,384.2,251.8,384z M206.1,275.1c2.1-2.4,4.3-4.5,6.8-5.8c4.2-2.2,9.5-2.9,13.9-4.8h49.3c0,0.1,0,0.1,0,0.2
			c7.8,2.1,10.1,6.8,12.1,8.7c2.2,2.1,6,3.5,8.7,4.3c5.4,1.7,12.4,2.4,15.1,9.9c-3.3-6.1-11.2-5.1-17.5-4.9
			c-3.2,0.1-6.2-0.1-8.9-1.1c-4.3-1.5-8.2-4.8-12.4-6.8l17.9,23.3l-24.6-18.9c1.9,4.6,5.6,8.8,7.2,13.4c1,2.7,1.2,5.7,1.1,8.9
			c-0.2,6.3-1.2,14.2,4.9,17.5c-7.5-2.7-8.2-9.8-9.9-15.1c-0.9-2.7-2.2-6.5-4.3-8.7c-1.8-1.9-6.3-4.2-8.5-11.4l-4.8,49.2l-4.8-49.2
			c-2.2,7.2-6.7,9.5-8.5,11.4c-2.1,2.2-3.5,6-4.3,8.7c-1.7,5.4-2.4,12.4-9.9,15.1c6.1-3.3,5.1-11.2,4.9-17.5
			c-0.1-3.2,0.1-6.2,1.1-8.9c1.7-4.6,5.3-8.9,7.2-13.4l-24.6,18.9l18.8-24.4c-6.8,4.4-12,2.9-14.7,3.1c-3,0.2-6.6,2.1-9.1,3.5
			c-4.9,2.8-10.2,7.5-17.5,4.4C197.4,286.4,202,279.9,206.1,275.1z"/>
	</g>
</g>
</svg>
