<?xml version="1.0" encoding="utf-8"?>
<!-- Generator: Adobe Illustrator 21.1.0, SVG Export Plug-In . SVG Version: 6.00 Build 0)  -->
<svg version="1.1" xmlns="http://www.w3.org/2000/svg" xmlns:xlink="http://www.w3.org/1999/xlink" x="0px" y="0px"
	 viewBox="0 0 504 864" style="enable-background:new 0 0 504 864;" xml:space="preserve">
<style type="text/css">
	.st0{fill:#040404;}
</style>
<g id="Слой_1">
</g>
<g id="Слой_2">
	<g>
		<path d="M503.8,18.2c-1.6-17.9-18.7-16.3-31.6-16.3c-45.9,0-91.8,0-137.6,0c-63.2,0-126.3,0-189.5,0c-40.6,0-81.2,0-121.8,0
			c-2.6,0-5.3-0.2-8,0.2c-9.5,1.2-15,9.2-15.2,18.2c-0.2,7.3,0,14.5,0,21.8c0,37.4,0,74.9,0,112.3c0,57,0,114.1,0,171.1
			c0,64.3,0,128.6,0,192.9c0,58.4,0,116.7,0,175.1c0,40.1,0,80.2,0,120.3c0,9.1,0,18.2,0,27.3c0,11.7,6.7,20.5,19.2,20.7
			c35.9,0.6,71.9,0,107.9,0c62.4,0,124.9,0,187.3,0c49.7,0,99.5,0,149.2,0c7.6,0,15.2,0,22.9,0c0.4,0,0.8-0.1,1.2-0.2
			c14.4-1.8,16.1-13.8,16.1-25.5c0-11.4,0-22.8,0-34.3c0-43.4,0-86.9,0-130.3c0-59.9,0-119.8,0-179.8c0-63.9,0-127.7,0-191.6
			c0-55.3,0-110.6,0-165.9c0-33.7,0-67.3,0-101C503.9,28.3,504.2,23.2,503.8,18.2z M486.6,852.8c-28.3,0-56.6,0-84.9,0
			c-59.9,0-119.8,0-179.7,0c-54,0-108,0-162,0c-13.1,0-26.1,0-39.2,0c-5.6,0-11-1.3-11.7-8.3c-0.2-1.5,0-3,0-4.5c0-26.5,0-53,0-79.5
			c0-50,0-100,0-149.9c0-61.8,0-123.6,0-185.4c0-61.4,0-122.7,0-184.1c0-48.9,0-97.7,0-146.6c0-24.2-0.8-48.6,0-72.7
			c0.2-5.3,1.6-10.1,8.3-10.8c2.2-0.2,4.5,0,6.7,0c14.8,0,29.6,0,44.5,0c55.6,0,111.3,0,166.9,0c58.9,0,117.8,0,176.7,0
			c18.9,0,37.9,0,56.8,0c8.1,0,24.7-3.1,25.9,8.4c0.5,5.2,0,10.8,0,16.1c0,13.5,0,27.1,0,40.6c0,45.5,0,91.1,0,136.6
			c0,60.1,0,120.2,0,180.3c0,62.6,0,125.2,0,187.7c0,52.8,0,105.6,0,158.4c0,31.4,0,62.7,0,94.1C494.8,840.3,496.9,852,486.6,852.8z
			"/>
		<path d="M460,790.9c1.2,0.1,2.4-0.7,2.4-2.2c0-23.7,0-47.4,0-71.1c0-56.4,0-112.8,0-169.2c0-68.7,0-137.4,0-206
			c0-59,0-117.9,0-176.9c0-19.6,0-39.2,0-58.8c0-8.9,1.3-19,0-27.9c-0.1-0.4,0-0.8,0-1.2c0-0.8-0.3-1.3-0.8-1.7
			c0.1-1.2-0.6-2.5-2.2-2.6c-13.1-0.5-25.3-13.8-25.8-26.7c0-0.5-0.2-0.8-0.4-1.1c-0.3-0.6-1-1.1-1.9-1.1c-40.5,0-80.9,0-121.4,0
			c-64.5,0-129,0-193.6,0c-14.9,0-29.7,0-44.6,0c-0.9,0-1.6,0.5-1.9,1.1c-0.2,0.3-0.3,0.7-0.4,1.2C69.1,59.5,57,72.8,43.9,73.3
			c-1.8,0.1-2.5,1.9-2,3.2c-0.2,0.3-0.2,0.6-0.2,1c0,23.7,0,47.4,0,71.1c0,56.4,0,112.8,0,169.2c0,68.7,0,137.4,0,206
			c0,59,0,117.9,0,176.9c0,19.6,0,39.2,0,58.8c0,8.9-1.3,19,0,27.9c0.1,0.4,0,0.8,0,1.2c0,0.9,0.5,1.6,1.1,1.9
			c0.3,0.2,0.7,0.3,1.2,0.4c13,0.5,25.3,13.3,25.8,26.2c0,0.5,0.2,0.8,0.4,1.1c0.3,0.6,1,1.1,1.9,1.1c40.5,0,80.9,0,121.4,0
			c64.5,0,129,0,193.6,0c14.9,0,29.7,0,44.6,0c0.9,0,1.6-0.5,1.9-1.1c0.2-0.3,0.3-0.7,0.4-1.2c0.5-12.9,12.7-25.7,25.8-26.2
			C459.6,791,459.8,790.9,460,790.9z M429.3,814.9c-39.8,0-79.6,0-119.3,0c-64.5,0-129,0-193.6,0c-14.2,0-28.3,0-42.5,0
			c-1.7-13.9-13.9-26.5-27.8-28.3c0-23,0-46,0-69.1c0-56.4,0-112.8,0-169.2c0-68.7,0-137.4,0-206c0-59,0-117.9,0-176.9
			c0-19.6,0-39.2,0-58.8c0-8.9,1.3-19,0-27.9c-0.1-0.4,0-0.8,0-1.2c14-1.8,26.1-14.9,27.8-28.7c39.8,0,79.5,0,119.3,0
			c64.5,0,129,0,193.6,0c14.2,0,28.3,0,42.5,0c1.7,14.1,14.3,27.4,28.5,28.8c0,23.7,0,47.3,0,71c0,56.4,0,112.8,0,169.2
			c0,68.7,0,137.4,0,206c0,59,0,117.9,0,176.9c0,19.6,0,39.2,0,58.8c0,8.6-1.2,18.4-0.1,27C443.6,788.1,431.1,800.9,429.3,814.9z"/>
		<path d="M340.5,808c-0.1,0-0.1,0.1-0.1,0.3c0,0.2,0,0.3,0.1,0.3c0.1,0,0.1-0.1,0.1-0.3C340.6,808.1,340.6,808,340.5,808z"/>
		<g>
			<path d="M125.4,793.7c-0.1,0-0.1-0.1-0.2-0.4c-0.1-0.2-0.1-0.3-0.2-0.3c0,0-0.3,0.1-0.8,0.2c0,0-0.1,0-0.2,0
				c-0.4,0-0.7-0.6-1-1.7c-0.2-0.8-0.4-1.3-0.4-1.4c-0.1-0.1-0.2-0.3-0.2-0.5c-0.1-0.4-0.3-1.3-0.8-2.8c-0.5-1.5-0.7-2.4-0.8-2.7
				c-0.2-1-0.4-1.5-0.5-1.7s-0.2-0.3-0.4-0.3c-0.3-0.1-0.4,0-0.5,0.1c-0.1,0.1-0.2,0.2-0.4,0.2c-0.2,0-0.4,0.1-0.4,0.2
				c0,0.1-0.1,0.1-0.2,0.1c-0.1,0-0.2,0.2-0.4,0.6c-0.2,0.4-0.3,0.8-0.5,1.2c-0.1,0.4-0.2,0.6-0.3,0.7c-0.1,0.1-0.1,0.2-0.1,0.4
				c0,0.2-0.1,0.6-0.4,1.2c-0.3,0.6-0.5,1.1-0.5,1.5c-0.1,0.4-0.2,0.6-0.2,0.7c-0.1,0.1-0.2,0.3-0.4,0.8c-0.2,0.5-0.3,0.7-0.3,0.8
				c-0.1,0.2-0.2,0.4-0.2,0.5c0,0.2,0,0.2-0.1,0.2s-0.2,0.1-0.3,0.4c-0.1,0.2-0.2,0.4-0.2,0.6c0,0.1-0.2,0.3-0.5,0.6
				c-0.3,0.3-0.5,0.4-0.7,0.4c-0.2,0-0.3,0.1-0.5,0.4c-0.2,0.2-0.4,0.4-0.5,0.4c-0.1,0-0.2,0.1-0.4,0.4c-0.1,0.2-0.1,0.3-0.1,0.4
				c0,0.1,0.1,0.3,0.4,0.5l0.5,0.4l2-0.1c1.1,0,1.8-0.1,2.1-0.1c0.3,0,0.5-0.1,0.5-0.2c0,0,0-0.1-0.1-0.2c-0.1-0.2-0.1-0.3,0.1-0.3
				c0.1,0,0.2-0.1,0.2-0.2c0-0.1-0.1-0.2-0.2-0.2s-0.3-0.1-0.4-0.2c-0.1-0.1-0.4-0.2-0.7-0.3c-0.5-0.1-0.7-0.3-0.7-0.5
				c0-0.1,0-0.2,0.1-0.3c0.1-0.2,0.2-0.3,0.2-0.5c0-0.1,0-0.2,0.1-0.2c0.1,0,0.1-0.2,0.1-0.7v-0.7h0.6c0.4,0,0.7-0.1,0.7-0.2
				c0.1-0.2,0.6-0.2,1.5-0.2h0.4c0.7,0,1,0,1.1,0.1c0.1,0.1,0.2,0.4,0.2,0.8c0,0.5,0.1,0.8,0.3,0.9c0.2,0.2,0.3,0.4,0.3,0.6
				c0,0,0,0,0,0.1c0,0,0,0.1,0,0.1c0,0.3-0.1,0.4-0.1,0.5c-0.1,0.1-0.3,0.1-0.6,0.2c-0.5,0.1-0.7,0.2-0.8,0.3c0,0.1-0.1,0.1-0.3,0.1
				c-0.2,0-0.3,0.1-0.3,0.3c0,0.3,0,0.4,0.1,0.5c0.1,0.1,0.3,0.1,0.6,0.1c0.3,0,0.7,0,1.3-0.1c0.6-0.1,1.3-0.1,2-0.1
				c0.4,0,0.7,0,0.8,0c0.2,0,0.4,0,0.6,0c0.3,0,0.5-0.1,0.5-0.3c0.1-0.2,0.1-0.3,0.2-0.3c0.1,0,0.1-0.2,0.1-0.5
				C125.6,793.9,125.5,793.7,125.4,793.7z M119.3,789.2c0,0-0.1,0-0.2,0c-0.1,0-0.1,0-0.1,0c-0.3,0-0.5,0.1-0.6,0.2
				c-0.1,0.1-0.3,0.2-0.4,0.2c-0.2,0-0.3-0.1-0.4-0.2c-0.1-0.1-0.2-0.2-0.3-0.2s-0.2-0.1-0.2-0.2c0-0.1,0-0.2,0.1-0.2
				s0.2-0.1,0.3-0.4c0.1-0.3,0.2-0.5,0.2-0.7c0-0.2,0.1-0.3,0.2-0.4c0.1,0,0.2-0.3,0.2-0.8c0.1-0.6,0.3-0.9,0.6-0.9
				c0.2,0,0.3,0.1,0.5,0.2c0.1,0.1,0.2,0.2,0.4,0.5c0.1,0.3,0.2,0.4,0.2,0.5c0,0-0.1,0.1-0.3,0.1c-0.2,0-0.3,0.1-0.4,0.2
				c-0.1,0.1,0,0.2,0.1,0.2c0.1,0,0.2,0.1,0.2,0.2c0.1,0.1,0.2,0.3,0.2,0.4c0.1,0.2,0.1,0.2,0.2,0.3c0.1,0.1,0.1,0.3,0.2,0.6
				l0.1,0.5L119.3,789.2z"/>
			<path d="M143.3,783h-1c-0.5,0-0.9,0-1.1-0.1c-0.2-0.1-0.3-0.3-0.3-0.5c0-0.1,0-0.2-0.1-0.2c-0.1,0-0.2,0-0.2,0.1
				c-0.1,0.1-0.3,0.2-0.7,0.2c-0.2,0-0.2,0-0.2-0.1c0-0.1-0.2-0.1-0.7-0.1c-0.5,0-0.8,0.1-0.8,0.2c-0.1,0.1-0.2,0.2-0.4,0.2
				c-0.2,0-0.3,0-0.4,0c-0.1,0-0.1,0-0.2,0c-0.1,0-0.2,0-0.2,0c-0.3,0-0.5,0.1-0.8,0.4c-0.3,0.3-0.5,0.5-0.7,0.5
				c-0.2,0.1-0.4,0.2-0.5,0.5c-0.1,0.3-0.3,0.4-0.6,0.4c-0.5,0.1-0.7,0.4-0.8,1c0,0.2-0.1,0.4-0.2,0.6c-0.1,0.2-0.2,0.5-0.2,0.6
				c0,0.3-0.1,0.4-0.2,0.5c-0.1,0.1-0.1,0.2-0.1,0.4c0,0.2-0.1,0.4-0.2,0.5c-0.1,0.1-0.2,0.6-0.2,1.5c0,1,0.1,1.6,0.2,1.6
				c0.1,0,0.1,0.1,0.1,0.3c0,0.1,0,0.2-0.1,0.2c-0.1,0,0,0.1,0.2,0.4c0.2,0.2,0.4,0.3,0.5,0.3c0.1,0,0.1,0.1,0.2,0.4
				c0.1,0.2,0.3,0.4,0.6,0.8c0.4,0.3,0.6,0.5,0.9,0.6c0.2,0.1,0.2,0.1,0.2,0.2c0,0.1,0.3,0.2,1,0.3c0.6,0.1,1.4,0.1,2.1,0.1
				c1.1,0,1.8-0.1,2-0.3s0.5-0.3,0.8-0.4c0.4-0.1,0.7-0.2,0.8-0.5c0.2-0.3,0.4-0.6,0.7-0.9c0.3-0.3,0.5-0.5,0.5-0.6
				c0-0.1-0.1-0.2-0.3-0.3c-0.4-0.2-0.6-0.3-0.8-0.3c-0.1,0-0.2,0.1-0.3,0.3c-0.1,0.3-0.2,0.4-0.4,0.4c-0.2,0-0.4,0.1-0.7,0.4
				c-0.2,0.3-0.4,0.3-0.5,0.2c-0.1-0.1-0.2-0.1-0.4,0.1c-0.1,0.1-0.4,0.2-0.7,0.2c-0.1,0-0.4,0-0.9-0.1c-0.7,0-1.1-0.1-1.3-0.2
				c-0.2-0.1-0.3-0.3-0.3-0.6c0-0.2-0.2-0.5-0.6-0.9c-0.3-0.3-0.5-0.5-0.6-0.7c-0.1-0.2-0.2-0.5-0.3-1c-0.1-0.7-0.2-1.1-0.3-1.1
				c-0.1,0-0.1-0.1-0.1-0.2c0-0.1,0-0.2,0.1-0.3c0.2,0,0.3-0.7,0.3-1.9c0-0.2,0.1-0.3,0.3-0.3c0.2,0,0.3-0.1,0.2-0.3
				c-0.1-0.3,0.1-0.4,0.4-0.6c0.3-0.1,0.5-0.3,0.5-0.4c0-0.1,0.1-0.3,0.3-0.4c0.2-0.1,0.5-0.2,0.7-0.2c0.2,0,0.3-0.1,0.3-0.2
				c0-0.1,0.2-0.2,0.7-0.3c0.1,0,0.1,0,0.2,0c0.1,0,0.1,0,0.2,0c0.6,0,1,0.2,1.2,0.5c0.1,0.2,0.3,0.3,0.6,0.4c0.2,0,0.3,0.1,0.3,0.1
				c0,0.1,0.1,0.1,0,0.3c-0.1,0.2,0,0.3,0.1,0.4c0.1,0.1,0.3,0.4,0.4,1c0.1,0.4,0.1,0.7,0.2,0.8c0.1,0.1,0.2,0.2,0.4,0.3
				c0.3,0.1,0.4,0.2,0.4,0.3c0,0.1,0,0.1,0,0.1c0,0,0.1,0,0.1,0c0.1-0.1,0.2-0.6,0.2-1.6c0-1,0.1-1.6,0.2-1.6c0.1-0.1,0.1-0.3,0-0.8
				L143.3,783z"/>
			<path d="M150.6,792.9c0,0,0.1,0,0.1-0.1c0.1-0.2,0.1-0.3,0-0.3c-0.1,0-0.2,0.1-0.2,0.2C150.5,792.8,150.5,792.9,150.6,792.9z"/>
			<path d="M160.8,791c-0.1,0-0.3,0.2-0.5,0.5c-0.3,0.3-0.4,0.5-0.4,0.7c0,0.1-0.1,0.2-0.4,0.2c-0.1,0-0.2,0-0.3,0.1
				c0,0-0.1,0.1-0.1,0.1c0,0,0,0.1,0,0.3c0,0.2-0.1,0.3-0.4,0.3c0,0-0.1,0-0.1,0s-0.1,0-0.2,0c-0.2,0-0.4,0.1-0.6,0.3
				c-0.2,0.2-0.4,0.3-0.6,0.3c-0.1,0-0.2-0.1-0.2-0.2c0-0.1-0.1-0.1-0.4,0c-0.2,0.1-0.6,0.2-1.2,0.2c-0.5,0-0.7,0-0.7-0.1
				c0-0.1-0.1-0.1-0.2-0.1c-0.1,0-0.1-0.1-0.2-0.2c-0.1-0.2-0.1-0.3-0.1-0.4c0-0.1,0-0.2,0-0.3c0-0.2,0-0.4,0-0.6c0-0.3,0-0.5,0-0.8
				c0-0.3,0-0.5,0-0.8c0-0.3,0-0.5,0-0.6v-0.2c0-0.1,0.4-0.1,1.3-0.1c0.7,0,1.2,0.1,1.4,0.2c0.2,0.1,0.4,0.4,0.4,0.8
				c0,0.2,0,0.3,0.1,0.3c0,0,0.1,0,0.2,0c0.1-0.1,0.3-0.1,0.5-0.1c0.1,0,0.2,0,0.3-0.1c0-0.1,0.1-0.2,0.1-0.5c0-0.1,0-0.2,0-0.3
				c0-0.2,0-0.3,0-0.4v-0.2c0-0.3,0-0.6,0.1-0.7c0.1-0.1,0.1-0.3,0-0.4c-0.1-0.1-0.1-0.3,0.1-0.3c0.1-0.1,0.2-0.2,0.2-0.4
				c0-0.3-0.3-0.4-1-0.4c-0.4,0-0.6,0.2-0.6,0.5c0,0.1,0,0.2,0.1,0.3c0,0.2,0,0.4,0,0.5c-0.1,0.1-0.3,0.2-0.9,0.3
				c-0.5,0.1-1,0.1-1.5,0.1h-0.6V788c0-0.4,0.1-0.6,0.2-0.6c0.1,0,0.2-0.1,0.2-0.4c0-0.3-0.1-0.5-0.2-0.9c-0.1-0.2-0.2-0.4-0.1-0.4
				c0-0.1,0.1-0.1,0.2-0.3c0.2-0.1,0.3-0.3,0.2-0.5c0,0,0-0.1,0-0.2c0-0.1,0.1-0.3,0.4-0.3c0.3-0.1,0.7-0.1,1.5-0.2
				c0.7,0,1.1-0.1,1.1-0.1c0.3,0,0.5,0.1,0.6,0.2c0.1,0.2,0.3,0.3,0.5,0.4c0.2,0.1,0.3,0.2,0.3,0.3c0,0.1,0.1,0.2,0.3,0.3
				c0.2,0.1,0.3,0.2,0.3,0.3c0,0.2,0.1,0.3,0.3,0.5c0.2,0.2,0.4,0.2,0.6,0.2h0c0.3,0,0.4-0.2,0.4-0.6c0-0.2-0.1-0.3-0.2-0.5
				c-0.1-0.1-0.2-0.3-0.2-0.5c0-0.3-0.1-0.5-0.2-0.5c-0.1,0-0.1-0.1,0-0.4c0.1-0.1,0.1-0.2,0.1-0.3c0,0-0.1-0.1-0.1-0.1
				c-0.1-0.1-0.2-0.2-0.2-0.3c0-0.1-0.1-0.3-0.3-0.5c-0.2-0.2-0.4-0.3-0.6-0.1c-0.3,0.1-1.8,0.3-4.7,0.4h-0.7
				c-1.5,0-2.2-0.1-2.3-0.3c0-0.1-0.1-0.1-0.2-0.1c-0.1,0-0.2,0-0.2,0.1l0,0.1c0,0.1,0,0.1,0,0.1c0,0,0,0.1,0,0.2c0,0.1,0,0.2,0,0.2
				c0,0.2-0.1,0.3-0.3,0.3c-0.2,0.1-0.3,0.2-0.2,0.5c0.1,0.2,0.1,0.4,0.2,0.5c0.1,0.1,0.2,0.1,0.3,0.1c0.1,0,0.3,0,0.4,0
				c0.1,0,0.2,0,0.4,0c0.3,0,0.5,0.1,0.6,0.4c0.1,0.2,0.1,0.7,0.1,1.4c0,0.9-0.1,1.4-0.2,1.4c-0.1,0-0.1,0.2,0,0.4
				c0.1,0.2,0.1,0.4,0,0.6c-0.1,0.2-0.2,0.3-0.3,0.3c-0.1,0-0.1,0.1,0.1,0.2c0.1,0.1,0.1,0.3,0.1,0.6c0,0.5-0.1,1.5-0.2,2.8
				l-0.1,0.9h-0.6c-0.4,0-0.6,0.1-0.6,0.3c0,0.2-0.1,0.3-0.3,0.3c-0.1,0-0.2,0.1-0.2,0.3c0,0.3,0.1,0.5,0.3,0.6
				c0.2,0.1,0.3,0.2,0.3,0.4c0,0.1,0.2,0.1,0.7,0.1c0.5,0,0.8-0.1,0.9-0.3c0.1-0.1,0.5-0.2,1.2-0.2c0.5,0,0.9,0,1.3,0
				c0.7,0,1.1,0.1,1.2,0.2c0,0.1,0.2,0.1,0.4,0c0.2-0.1,0.7-0.2,1.5-0.2c0.8,0,1.3,0,1.5-0.1c0.2,0,0.3-0.1,0.5-0.3
				c0.2-0.2,0.3-0.3,0.2-0.5c0-0.2,0-0.3,0.1-0.4c0.1-0.1,0.2-0.3,0.2-0.8c0-0.3,0-0.5,0-0.6c0-0.1,0.1-0.1,0.2-0.1
				c0.2,0,0.3-0.2,0.3-0.5c0-0.2-0.1-0.4-0.2-0.6C161.1,791.1,160.9,791,160.8,791z"/>
			<path d="M192.7,786.5c-0.2-0.1-0.2-0.2-0.2-0.5c0-0.3,0-0.5-0.1-0.5c-0.1,0-0.1-0.1-0.1-0.4c0-0.3-0.1-0.4-0.2-0.4
				c-0.1,0-0.2-0.1-0.3-0.3c-0.1-0.2-0.2-0.3-0.3-0.4c-0.1-0.1-0.2-0.2-0.2-0.4c0-0.2-0.1-0.3-0.4-0.3c-0.7,0-1-0.1-1-0.4
				c0-0.1-0.1-0.2-0.2-0.2c-0.1,0-0.2,0-0.2-0.1c0-0.1-0.1-0.1-0.3-0.1c-0.2,0-0.3-0.1-0.4-0.2c0-0.1-0.5-0.2-1.5-0.2
				c-0.9,0-1.5,0.1-1.6,0.2c-0.1,0.1-0.2,0.2-0.4,0.2c-0.2,0-0.3,0.1-0.4,0.3c-0.1,0.2-0.3,0.4-0.6,0.4c-0.3,0-0.6,0.1-1.1,0.2
				c-0.5,0.1-0.7,0.3-0.8,0.5c0,0.2-0.2,0.4-0.5,0.7s-0.4,0.5-0.4,0.5c0,0.1-0.1,0.1-0.2,0.1c-0.1,0-0.2,0.1-0.3,0.4
				c-0.1,0.2-0.2,0.4-0.3,0.7c-0.2,0.3-0.2,0.8-0.2,1.8c0,1.2,0.1,2.1,0.4,2.9c0.5,1.4,0.9,2.2,1.2,2.3c0.2,0,0.3,0.1,0.3,0.3
				c0,0.2,0.2,0.2,0.4,0.2c0.2,0,0.4,0,0.4,0.1s0.1,0.1,0.3,0.1s0.3,0.1,0.3,0.4c0,0.2,0,0.3,0.1,0.4c0.1,0.1,0.2,0,0.4-0.1
				c0.1-0.1,0.2-0.1,0.3,0c0.2,0.1,0.9,0.2,2.2,0.2c1.1,0,1.7-0.1,1.7-0.2c0-0.1,0.3-0.2,0.7-0.2c0.4,0,0.6-0.1,0.6-0.2
				c0-0.2,0.1-0.3,0.2-0.3c0,0,0.2-0.1,0.4-0.3c0.3-0.2,0.4-0.3,0.5-0.3c0.1,0,0.2-0.1,0.2-0.3c0.1-0.2,0.2-0.3,0.3-0.3
				c0.1,0,0.2-0.1,0.3-0.3c0-0.2,0.2-0.3,0.4-0.3c0.2-0.1,0.3-0.1,0.3-0.2c0-0.1,0.1-0.1,0.2-0.1c0.1,0,0.2-0.2,0.2-0.6
				c0-0.3,0-0.5-0.1-0.5c-0.1,0-0.1-0.1,0-0.2c0.1-0.1,0.2-0.8,0.2-2.1c0-0.3,0-0.7,0-1.1C192.9,786.8,192.9,786.5,192.7,786.5z
				 M190.5,789.6c-0.1,0-0.2,0.2-0.2,0.4s-0.1,0.4-0.2,0.5c-0.1,0.1-0.2,0.4-0.3,0.8c-0.1,0.4-0.1,0.6-0.3,0.6c-0.1,0-0.2,0-0.2,0.1
				c0,0.1-0.1,0.2-0.4,0.2c-0.3,0.1-0.4,0.2-0.4,0.3c0,0.1,0,0.2-0.1,0.2c-0.1,0.1-0.2,0.1-0.4,0.2c-0.1,0.1-0.2,0.1-0.3,0.1
				c0,0.1-0.2,0.1-0.4,0.1c-0.2,0-0.3,0.1-0.5,0.2c-0.1,0.1-0.2,0.1-0.4,0.1c-0.2,0-0.4,0-0.7-0.1c-0.5-0.1-1-0.3-1.3-0.6
				c-0.3-0.3-0.7-0.8-1-1.5c-0.3-0.5-0.4-0.9-0.5-1.1c0-0.2-0.1-0.7-0.1-1.4c0-0.7,0-1.1,0.1-1.4c0-0.2,0.1-0.5,0.3-0.8
				c0.3-0.5,0.6-0.9,1-1.3c0.4-0.4,0.8-0.6,1-0.7c0.3,0,0.5-0.1,0.5-0.3c0-0.1,0.1-0.2,0.2-0.2c0.1,0,0.2,0,0.2-0.1
				c0-0.1,0.1-0.1,0.3-0.1c0.2,0,0.3,0,0.3,0.1c0,0.1,0.3,0.1,0.9,0.1c0.5,0,0.8,0.1,0.8,0.2c0,0.1,0.1,0.2,0.3,0.3
				c0.2,0.1,0.3,0.2,0.3,0.3c0,0.1,0.1,0.2,0.3,0.3c0.3,0.1,0.5,0.4,0.5,0.8c0,0.2,0.1,0.5,0.3,0.8c0.2,0.3,0.3,0.7,0.3,1.1
				c0,0.5,0,0.7,0.1,0.8c0.1,0.1,0.1,0.2,0.1,0.4C190.7,789.4,190.6,789.5,190.5,789.6z"/>
			<path d="M210.5,784.7c0-0.3-0.1-0.5-0.2-0.6c-0.1-0.1-0.1-0.2,0-0.4c0.1-0.1,0.1-0.2,0.1-0.2c0-0.1-0.1-0.2-0.2-0.2
				c-0.1-0.1-0.2-0.2-0.2-0.3c0-0.2-0.1-0.3-0.3-0.5c-0.2-0.2-0.4-0.3-0.5-0.3c-0.1,0-0.2,0-0.2,0.1c0,0.1-0.3,0.1-0.9,0.2
				c-0.5,0.1-1.1,0.1-1.7,0.1c-0.6,0-0.9,0-1,0.1c-0.1,0-0.5,0.1-1.4,0.1c-0.9,0.1-1.8,0.2-2.7,0.3c-0.9,0.1-1.4,0.2-1.4,0.2
				c0,0,0,0.1,0,0.2c0,0.1,0,0.2,0.1,0.3c0.1,0.2,0.1,0.3,0.2,0.4c0.1,0,0.3,0.1,0.6,0.1c0.5,0,0.9,0.1,1,0.3
				c0.1,0.2,0.2,0.7,0.2,1.6c0,0.9-0.1,1.4-0.2,1.5c-0.1,0.1-0.1,0.2,0,0.4c0.1,0.3,0.2,0.5,0,0.7c-0.1,0.2-0.2,0.3-0.3,0.3
				c-0.1,0,0,0.1,0.1,0.2c0.1,0.1,0.1,0.3,0.1,0.6c0,0.1,0,0.4-0.1,0.8c-0.1,1.4-0.2,2.3-0.2,2.6c-0.1,0.3-0.1,0.5-0.3,0.6
				c-0.2,0.1-0.5,0.3-0.8,0.6l-0.5,0.6h5v-0.5c0-0.2,0-0.4-0.1-0.4c0-0.1-0.1-0.1-0.3-0.1c-0.2,0-0.4,0-0.4-0.1
				c0-0.1-0.1-0.1-0.2-0.1s-0.2-0.1-0.3-0.3c0-0.1,0-0.4,0-1.2c0-1.2,0-2.1,0.1-2.8c0-0.1,0.5-0.1,1.4-0.1c0.8,0,1.3,0.1,1.5,0.2
				c0.3,0.1,0.4,0.4,0.4,0.9c0,0.3,0,0.5,0.1,0.5c0.1,0,0.1-0.1,0.3-0.2c0.1-0.1,0.3-0.2,0.5-0.1c0.2,0.1,0.3,0,0.3-0.2
				c0-0.2,0-0.3,0.1-0.4c0.1-0.1,0.1-0.2,0-0.2c-0.1-0.1-0.2-0.3-0.2-0.6c0-0.4,0.1-0.7,0.2-0.8c0.1-0.1,0.1-0.1,0.1-0.2
				c0-0.1,0-0.1-0.1-0.2c-0.1-0.1-0.1-0.2-0.1-0.2c0-0.1,0-0.1,0.1-0.2c0.2-0.1,0.2-0.2,0.2-0.4c0-0.3-0.4-0.4-1.1-0.4
				c-0.4,0-0.6,0.2-0.6,0.5c0,0.1,0,0.2,0.1,0.3c0.1,0.2,0,0.4,0,0.5c-0.1,0.1-0.4,0.2-1,0.3c-0.6,0.1-1.1,0.2-1.6,0.2h-0.5v-0.6
				c0-0.4,0.1-0.6,0.2-0.7c0.1-0.1,0.2-0.2,0.2-0.4c0-0.3-0.1-0.5-0.2-0.8c-0.1-0.2-0.2-0.4-0.2-0.4s0.1-0.1,0.2-0.3
				c0.2-0.2,0.3-0.4,0.2-0.6c0-0.1,0-0.1,0-0.2c0-0.1,0.1-0.2,0.4-0.3c0.3-0.1,0.8-0.1,1.6-0.1c0.7,0,1.1-0.1,1.1-0.1
				c0.3,0,0.5,0.1,0.7,0.2c0.2,0.2,0.3,0.3,0.5,0.4c0.2,0.1,0.3,0.2,0.3,0.3c0,0.1,0.1,0.3,0.3,0.4c0.2,0.1,0.4,0.3,0.5,0.6
				c0.1,0.4,0.4,0.5,0.8,0.5c0.1,0,0.2,0,0.3-0.1c0.1-0.1,0.2-0.2,0.2-0.6c0-0.3-0.1-0.5-0.2-0.5C210.5,785.2,210.5,785,210.5,784.7
				z"/>
			<path d="M236.3,781.4C236.3,781.4,236.4,781.4,236.3,781.4c0.1-0.1,0.2-0.1,0.1-0.1c0,0-0.1,0-0.3,0c-0.2,0-0.3,0.1-0.3,0.2
				C236,781.5,236.1,781.5,236.3,781.4z"/>
			<path d="M239.7,783.2c-0.1,0-0.2,0-0.2-0.1c0-0.1-0.1-0.2-0.4-0.3c-0.3-0.1-0.4-0.3-0.5-0.5l-0.2-0.3c-0.1-0.1-0.2-0.1-0.2,0.1
				c0,0.1-0.3,0.1-0.8,0.1c-0.6,0-0.9,0-0.9-0.1c0-0.1-0.1-0.1-0.3-0.1c-0.5,0-0.8-0.1-0.8-0.4c0-0.1-0.1-0.2-0.3-0.2
				s-0.3,0.1-0.2,0.3c0,0,0,0,0,0.1c0,0,0,0,0,0.1c0,0.1-0.6,0.2-1.8,0.2h-1.8l-0.5,0.5c-0.3,0.3-0.5,0.5-0.5,0.7
				c0,0.2,0.2,0.4,0.7,0.4c0.2,0,0.3,0,0.3,0.1c0,0.1,0,0.1,0.1,0.1c0.2,0,0.4,0.2,0.6,0.5c0.2,0.3,0.3,0.7,0.3,1.2
				c0,0.4,0.1,0.6,0.1,0.6c0,0.2-0.1,0.4-0.2,0.5c-0.2,0.1-0.2,0.2-0.1,0.3c0.1,0.1,0.2,0.3,0.2,0.7c0,0.3-0.1,0.5-0.2,0.5
				c-0.2,0-0.2,0,0,0.1c0.1,0.1,0.1,0.3,0,0.6c-0.1,0.3-0.1,0.5,0.1,0.6c0.1,0.1,0.1,0.2,0.1,0.3c0,0.2-0.1,0.4-0.2,0.5
				c-0.1,0.1-0.1,0.6-0.2,1.6l0,1.5l-0.4,0.2c-0.2,0.1-0.5,0.2-1.1,0.2c-0.3,0-0.5,0.1-0.5,0.1c-0.1,0.1-0.1,0.2-0.1,0.4
				c0,0.2,0.2,0.5,0.6,0.8c0.2,0.1,0.3,0.2,0.5,0.2c0.2,0,0.3-0.1,0.3-0.2c0.1-0.1,0.8-0.2,2.1-0.2c1.4-0.1,2.1-0.1,2.2-0.3
				c0.1-0.1,0.2-0.2,0.3-0.2c0.1,0,0.2-0.1,0.2-0.2c0-0.1-0.1-0.2-0.4-0.2c-0.3,0-0.4-0.1-0.5-0.3c0-0.2-0.2-0.3-0.5-0.3
				c-0.4-0.1-0.5-0.2-0.5-0.4c0-0.1,0-0.2,0.1-0.3c0.2-0.2,0.2-0.3,0.1-0.4c-0.1,0-0.2-0.6-0.2-1.7c0-0.3,0-0.6,0-1
				c0-0.3,0-0.4,0.1-0.5c0-0.1,0.1-0.1,0.2-0.1c0.2,0,0.5,0,0.8,0.1c0.3,0.1,0.5,0.2,0.6,0.3c0.1,0.1,0.7,0.2,1.7,0.2
				c0.8,0,1.2,0,1.2-0.1c0.1-0.1,0-0.2-0.2-0.3c-0.2-0.1-0.4-0.2-0.5-0.4c-0.1-0.1-0.2-0.2-0.2-0.2s0.1-0.1,0.3-0.1
				c0.3-0.1,0.4-0.1,0.4-0.2c0-0.1,0.1-0.2,0.4-0.3c0.3-0.1,0.4-0.2,0.4-0.4c0-0.5,0.1-0.7,0.3-0.7c0.1,0,0.2-0.1,0.4-0.2
				c0.2-0.2,0.2-0.7,0.2-1.5c0-1-0.1-1.5-0.3-1.7C239.9,783.3,239.8,783.2,239.7,783.2z M238.1,786.9c0,0-0.1,0.1-0.4,0.1h-0.1
				c0,0-0.1,0-0.1,0c-0.1,0-0.1,0,0,0.1c0.1,0.1,0.2,0.1,0.2,0.2c0,0.1-0.1,0.3-0.3,0.5c-0.2,0.2-0.5,0.3-0.7,0.3
				c-0.3,0-0.6,0.1-1.1,0.2c-0.1,0-0.2,0-0.3,0c-0.2,0-0.4-0.1-0.7-0.3c-0.2-0.2-0.3-0.3-0.4-0.3c0-0.1,0-0.1,0.1-0.2
				c0.1-0.1,0.2-0.7,0.2-1.6v-1.2c0-0.3,0.1-0.5,0.2-0.7c0.1-0.2,0.3-0.4,0.4-0.4h0.1l0.4,0.1c0.3,0,0.5,0.1,0.8,0.1
				c0.2,0.1,0.4,0.1,0.4,0.1c0,0.1,0.1,0.1,0.4,0.2c0.3,0.1,0.4,0.2,0.4,0.3c0,0.1,0.1,0.3,0.2,0.3c0.1,0.1,0.2,0.2,0.1,0.3
				c-0.1,0.1-0.1,0.3,0.1,0.6c0.1,0.2,0.2,0.4,0.2,0.6C238.2,786.1,238.1,786.3,238.1,786.9z"/>
			<path d="M231.7,780.6c0.2,0,0.3-0.1,0.3-0.2c0-0.1-0.1-0.1-0.3-0.1c-0.2,0-0.3,0-0.3,0.1C231.4,780.5,231.5,780.6,231.7,780.6z"
				/>
			<path d="M257.5,791c-0.1,0-0.3,0.2-0.5,0.5c-0.3,0.3-0.4,0.5-0.4,0.7c0,0.1-0.1,0.2-0.4,0.2c-0.1,0-0.2,0-0.3,0.1
				c0,0-0.1,0.1-0.1,0.1c0,0,0,0.1,0,0.3c0,0.2-0.1,0.3-0.4,0.3c0,0-0.1,0-0.1,0s-0.1,0-0.2,0c-0.2,0-0.4,0.1-0.6,0.3
				c-0.2,0.2-0.4,0.3-0.6,0.3c-0.1,0-0.2-0.1-0.2-0.2c0-0.1-0.1-0.1-0.4,0c-0.2,0.1-0.6,0.2-1.2,0.2c-0.5,0-0.7,0-0.7-0.1
				c0-0.1-0.1-0.1-0.2-0.1c-0.1,0-0.1-0.1-0.2-0.2s-0.1-0.3-0.1-0.4c0-0.1,0-0.2,0-0.3c0-0.2,0-0.4,0-0.6c0-0.3,0-0.5,0-0.8
				c0-0.3,0-0.5,0-0.8s0-0.5,0-0.6v-0.2c0-0.1,0.4-0.1,1.3-0.1c0.7,0,1.2,0.1,1.4,0.2c0.2,0.1,0.4,0.4,0.4,0.8c0,0.2,0,0.3,0.1,0.3
				c0,0,0.1,0,0.2,0c0.1-0.1,0.3-0.1,0.5-0.1c0.1,0,0.2,0,0.3-0.1c0-0.1,0.1-0.2,0.1-0.5c0-0.1,0-0.2,0-0.3c0-0.2,0-0.3,0-0.4v-0.2
				c0-0.3,0-0.6,0.1-0.7c0.1-0.1,0.1-0.3,0-0.4c-0.1-0.1-0.1-0.3,0.1-0.3c0.1-0.1,0.2-0.2,0.2-0.4c0-0.3-0.3-0.4-1-0.4
				c-0.4,0-0.6,0.2-0.6,0.5c0,0.1,0,0.2,0.1,0.3c0,0.2,0,0.4,0,0.5c-0.1,0.1-0.3,0.2-0.9,0.3c-0.5,0.1-1,0.1-1.5,0.1h-0.6V788
				c0-0.4,0.1-0.6,0.2-0.6c0.1,0,0.2-0.1,0.2-0.4c0-0.3-0.1-0.5-0.2-0.9c-0.1-0.2-0.2-0.4-0.1-0.4c0-0.1,0.1-0.1,0.2-0.3
				c0.2-0.1,0.3-0.3,0.2-0.5c0,0,0-0.1,0-0.2c0-0.1,0.1-0.3,0.4-0.3c0.3-0.1,0.7-0.1,1.5-0.2c0.7,0,1.1-0.1,1.1-0.1
				c0.3,0,0.5,0.1,0.6,0.2c0.1,0.2,0.3,0.3,0.5,0.4c0.2,0.1,0.3,0.2,0.3,0.3c0,0.1,0.1,0.2,0.3,0.3c0.2,0.1,0.3,0.2,0.3,0.3
				c0,0.2,0.1,0.3,0.3,0.5c0.2,0.2,0.4,0.2,0.6,0.2h0c0.3,0,0.4-0.2,0.4-0.6c0-0.2-0.1-0.3-0.2-0.5c-0.1-0.1-0.2-0.3-0.2-0.5
				c0-0.3-0.1-0.5-0.2-0.5c-0.1,0-0.1-0.1,0-0.4c0.1-0.1,0.1-0.2,0.1-0.3c0,0-0.1-0.1-0.1-0.1c-0.1-0.1-0.2-0.2-0.2-0.3
				c0-0.1-0.1-0.3-0.3-0.5c-0.2-0.2-0.4-0.3-0.6-0.1c-0.3,0.1-1.8,0.3-4.7,0.4h-0.7c-1.5,0-2.2-0.1-2.3-0.3c0-0.1-0.1-0.1-0.2-0.1
				c-0.1,0-0.2,0-0.2,0.1l0,0.1c0,0.1,0,0.1,0,0.1c0,0,0,0.1,0,0.2c0,0.1,0,0.2,0,0.2c0,0.2-0.1,0.3-0.3,0.3
				c-0.2,0.1-0.3,0.2-0.2,0.5c0.1,0.2,0.1,0.4,0.2,0.5c0.1,0.1,0.2,0.1,0.3,0.1c0.1,0,0.3,0,0.4,0c0.1,0,0.2,0,0.4,0
				c0.3,0,0.5,0.1,0.6,0.4c0.1,0.2,0.1,0.7,0.1,1.4c0,0.9-0.1,1.4-0.2,1.4c-0.1,0-0.1,0.2,0,0.4c0.1,0.2,0.1,0.4,0,0.6
				c-0.1,0.2-0.2,0.3-0.3,0.3c-0.1,0-0.1,0.1,0.1,0.2c0.1,0.1,0.1,0.3,0.1,0.6c0,0.5-0.1,1.5-0.2,2.8l-0.1,0.9h-0.6
				c-0.4,0-0.6,0.1-0.6,0.3c0,0.2-0.1,0.3-0.3,0.3c-0.1,0-0.2,0.1-0.2,0.3c0,0.3,0.1,0.5,0.3,0.6c0.2,0.1,0.3,0.2,0.3,0.4
				c0,0.1,0.2,0.1,0.7,0.1c0.5,0,0.8-0.1,0.9-0.3c0.1-0.1,0.5-0.2,1.2-0.2c0.5,0,0.9,0,1.3,0c0.7,0,1.1,0.1,1.2,0.2
				c0,0.1,0.2,0.1,0.4,0c0.2-0.1,0.7-0.2,1.5-0.2c0.8,0,1.3,0,1.5-0.1c0.2,0,0.3-0.1,0.5-0.3c0.2-0.2,0.3-0.3,0.2-0.5
				c0-0.2,0-0.3,0.1-0.4c0.1-0.1,0.2-0.3,0.2-0.8c0-0.3,0-0.5,0-0.6c0-0.1,0.1-0.1,0.2-0.1c0.2,0,0.3-0.2,0.3-0.5
				c0-0.2-0.1-0.4-0.2-0.6C257.8,791.1,257.6,791,257.5,791z"/>
			<path d="M247.3,792.9c0,0,0.1,0,0.1-0.1c0.1-0.2,0.1-0.3,0-0.3c-0.1,0-0.2,0.1-0.2,0.2C247.2,792.8,247.2,792.9,247.3,792.9z"/>
			<path d="M278.1,782.8c-0.1,0-0.2,0-0.3,0.1c-0.2,0.1-0.3,0.1-0.3,0.1c-0.1,0-0.1-0.1-0.2-0.2c-0.1-0.2-0.3-0.3-0.4-0.3
				c-0.1,0-0.2-0.1-0.2-0.3c0-0.2-0.1-0.3-0.3-0.3c-0.2,0-0.3,0.1-0.3,0.3c0,0.2,0.1,0.3,0.2,0.3s0.2,0.1,0.2,0.3
				c0,0.2-0.1,0.3-0.2,0.3c-0.2,0-0.3-0.1-0.3-0.4c-0.1-0.2-0.2-0.4-0.3-0.4c-0.1,0-0.1,0-0.2,0.1c-0.2,0.2-0.2,0.3,0,0.3
				c0.1,0,0.2,0.1,0.2,0.1c0,0.1-0.1,0.2-0.4,0.2c-0.2,0-0.4,0-0.4-0.1s-0.1-0.1-0.4-0.1c-0.4,0-0.8,0.1-1.1,0.2
				c-0.4,0.2-0.6,0.4-0.6,0.7c0,0.3,0.3,0.5,0.8,0.6c0.4,0.1,0.6,0.1,0.6,0.2c0,0.1,0.1,0.1,0.3,0.1c0.3,0,0.5,0.2,0.6,0.6
				c0.1,0.4,0.2,1.2,0.2,2.4c0,1.4,0.1,2.2,0.1,2.4c0.1,0.1,0,0.3,0,0.6l-0.1,0.4l-0.5-0.5c-0.4-0.3-0.5-0.5-0.5-0.6
				c0-0.1-0.1-0.2-0.2-0.3s-0.3-0.2-0.4-0.4c-0.2-0.1-0.3-0.2-0.3-0.2c-0.1-0.1-0.3-0.2-0.3-0.2c-0.1,0-0.2-0.1-0.2-0.2
				c0-0.1-0.1-0.2-0.2-0.3c-0.1-0.1-0.3-0.2-0.4-0.2s-0.1-0.1-0.1-0.2c0-0.1-0.1-0.2-0.2-0.2c-0.1,0-0.1,0-0.1-0.1
				c0-0.1-0.1-0.2-0.4-0.5c-0.2-0.3-0.4-0.4-0.4-0.5c0-0.1-0.1-0.2-0.3-0.2c-0.2,0-0.3-0.1-0.5-0.2c-0.2-0.1-0.2-0.3-0.2-0.4
				c0-0.1-0.2-0.3-0.5-0.7c-0.3-0.4-0.5-0.6-0.5-0.7c0-0.1-0.1-0.2-0.3-0.4c-0.2-0.2-0.3-0.4-0.3-0.4c0-0.3-0.6-0.5-1.8-0.6
				c-0.6,0-0.9-0.1-0.9-0.1c-0.3,0-0.4,0.1-0.4,0.2c0,0.1,0,0.2,0,0.4c0,0.2,0,0.4,0.1,0.6c0.1,0.2,0.1,0.3,0.2,0.3
				c0.1,0,0.2,0.2,0.3,0.6c0.1,0.4,0.2,0.6,0.2,0.6c0.1,0,0.1,0.3,0.1,0.8c0,0.5,0,0.8-0.1,0.8c-0.1,0-0.1,0.1-0.1,0.4
				c0,0.2,0.1,0.6,0.2,1c0.1,0.2,0.1,0.6,0.1,1.1c0,0.7-0.1,1.1-0.2,1.1c-0.1,0-0.1,0.2-0.1,0.7c0,0.5,0,1.1-0.1,1.5
				c0,0.4-0.1,0.6-0.1,0.7c-0.1,0.1-0.2,0.2-0.4,0.2c-0.3,0.1-0.4,0.2-0.4,0.4c0,0.2,0.1,0.4,0.4,0.6c0.2,0.2,0.3,0.3,0.5,0.3
				c0.2,0,0.8,0,1.7,0c1,0,1.6,0,1.8-0.1c0.2-0.1,0.3-0.3,0.3-0.8c0-0.3-0.1-0.4-0.3-0.5c-0.2-0.1-0.3-0.1-0.3-0.2
				c0-0.1-0.2-0.1-0.6-0.1c-0.4,0-0.7-0.1-0.9-0.3c-0.2-0.2-0.2-0.3-0.1-0.4c0.1-0.1,0.2-0.2,0.2-0.6c0-0.3,0-0.5-0.1-0.5
				c-0.1-0.1-0.1-0.9-0.1-2.6c0-1.7,0.1-2.5,0.2-2.5c0.1,0,0.3,0.1,0.4,0.2c0.1,0.1,0.3,0.2,0.5,0.3c0.3,0.1,0.4,0.3,0.5,0.4
				c0,0.2,0.3,0.5,0.8,1.1c0.5,0.5,0.9,0.9,1.3,1.1c0.2,0.1,0.3,0.2,0.3,0.3c0,0.1,0.2,0.2,0.5,0.6c0.7,0.7,1.1,1.1,1.1,1.4
				c0,0.1,0.1,0.1,0.3,0.1c0.2,0,0.3,0,0.3,0.1c0,0.1,0.1,0.3,0.4,0.5c0.2,0.2,0.4,0.4,0.4,0.6c0,0.1,0.1,0.3,0.3,0.5
				c0.2,0.2,0.3,0.3,0.4,0.3c0.1,0,0.3,0.2,0.6,0.5c0.3,0.3,0.5,0.5,0.7,0.6c0.1,0.1,0.2,0.1,0.3,0.1c0.4,0,0.6-0.2,0.6-0.6
				c0-0.1,0-0.2,0-0.4c0-0.9-0.1-1.4-0.2-1.6c-0.1-0.1-0.1-0.5-0.1-1.3v-0.4c0-1,0-1.6-0.1-1.6c-0.1-0.1-0.2-0.4-0.2-1
				c0-0.5,0-0.8,0.1-0.8c0.1-0.1,0.2-0.2,0.2-0.5c0-0.3,0-0.4,0.1-0.4c0.1,0,0.1-0.1,0.1-0.4c0-0.3,0-0.4-0.1-0.4
				c-0.1,0-0.1-0.1-0.1-0.4c0-0.4,0.1-0.7,0.2-1c0.2-0.3,0.4-0.5,0.7-0.5c0.2,0,0.4-0.1,0.4-0.1c0.1,0,0.1-0.2,0.1-0.5v-0.2
				C278.4,783.1,278.3,782.8,278.1,782.8z"/>
			<path d="M297.8,784.9c0.1,0,0.2-0.2,0.2-0.5c0-0.3-0.1-0.4-0.2-0.4c-0.1,0-0.1-0.1-0.1-0.3c0-0.2,0.1-0.4,0.2-0.7
				c0.1-0.3,0-0.5-0.2-0.7c-0.2-0.2-0.5-0.3-0.9-0.3c-0.4,0-0.8,0.1-1.1,0.4c-0.3,0.2-0.5,0.3-0.6,0.2c-0.1-0.1-0.1-0.1-0.3-0.1
				c-0.1,0-0.2,0-0.6,0.1c-0.4,0.1-1.3,0.2-2.7,0.2c-1,0-1.5,0-1.6-0.1c-0.1-0.1-0.2,0-0.4,0.2c-0.1,0.1-0.3,0.2-0.4,0.2
				c-0.1,0-0.3,0-0.8-0.1c-0.8-0.2-1.2-0.3-1.3-0.3c0,0-0.1,0-0.3,0.1c-0.1,0-0.3,0.1-0.4,0.3c-0.1,0.2-0.2,0.4-0.2,0.5
				c0,0,0,0.1,0.1,0.2c0.1,0.1,0.1,0.2,0.2,0.5c0,0.1,0,0.2-0.1,0.3s-0.2,0.1-0.4,0.1c-0.1,0-0.3,0-0.4,0.1
				c-0.1,0.1-0.2,0.2-0.2,0.2c0,0.1,0,0.1,0.1,0.2c0.1,0.1,0.1,0.3,0.1,0.7c0,0.3-0.1,0.5-0.1,0.5c0,0.5,0.2,0.8,0.6,0.8
				c0.3,0,0.4-0.1,0.4-0.2c0-0.1,0.1-0.2,0.2-0.2c0.3,0,0.3-0.2,0-0.5c-0.1-0.1-0.2-0.2-0.2-0.3c0,0,0.1-0.1,0.3-0.1
				c0.2-0.1,0.3-0.2,0.2-0.4c-0.1-0.2,0-0.4,0-0.6c0.1-0.1,0.1-0.3,0-0.6c-0.1-0.3-0.1-0.4,0-0.4c0.1,0,0.1,0.1,0.1,0.2
				s0.2,0.3,0.6,0.4c0.4,0.1,0.8,0.2,1.1,0.2c0.4,0,0.7,0.1,0.9,0.3c0.2,0.2,0.4,0.2,0.5,0.2c0.1,0,0.2,0,0.2,0c0,0,0,0.1-0.1,0.1
				c-0.3,0.4-0.4,2.4-0.5,6.1c0,0.8-0.1,1.2-0.3,1.4c-0.2,0.2-0.3,0.3-0.3,0.5c0,0.1-0.3,0.2-0.8,0.2l-0.8,0.1l-0.1,0.6
				c0,0,0,0.1,0,0.1c0,0.1,0,0.1,0,0.1c0,0.2,0.2,0.5,0.5,0.8c0.3,0.3,0.6,0.4,0.7,0.4c0.1,0,0.2,0,0.2-0.1c0-0.1-0.1-0.1-0.2-0.1
				c-0.1,0-0.1,0-0.1-0.1c0-0.1,0.2-0.1,0.5-0.1c0.1,0,0.4,0,0.9,0c0.4,0,0.8,0,1,0c0.5,0,0.9,0,1-0.1c0.1-0.1,0.3-0.2,0.6-0.1
				c0.2,0,0.3,0,0.4-0.1c0.1-0.1,0.2-0.1,0.3-0.1c0.1,0,0.3-0.1,0.5-0.3c0.1-0.1,0.2-0.2,0.2-0.3c0-0.1-0.1-0.2-0.2-0.5
				c-0.2-0.3-0.3-0.5-0.5-0.5c-0.1,0-0.2-0.1-0.2-0.2c0-0.1-0.1-0.2-0.3-0.1c0,0-0.1,0-0.1,0c-0.1,0-0.1,0-0.1,0
				c-0.1,0-0.2,0-0.3-0.1c0-0.1-0.1-0.3-0.1-0.5v-0.5c0-0.5,0-0.8,0-0.9c0-0.1,0.1-0.2,0.2-0.2c0.2,0,0.2-0.1,0.2-0.4
				c0-0.3-0.1-0.5-0.2-0.5c-0.1,0-0.2-0.4-0.2-1.1c0-0.8,0.1-1.3,0.2-1.4c0.1-0.1,0.2-0.6,0.2-1.2c0-0.7,0.1-1.1,0.1-1.2
				c0.1-0.2,0.5-0.2,1.2-0.2c1.1,0,1.7,0.1,1.8,0.4c0,0.1,0.1,0.2,0.4,0.5c0.2,0.2,0.3,0.5,0.4,0.8c0,0.3,0.1,0.5,0.1,0.5
				c0.1,0.1,0.2,0.1,0.4,0.1c0.3,0,0.4,0,0.4-0.1c0-0.1,0.1-0.2,0.3-0.3c0.2-0.1,0.3-0.2,0.3-0.4c0-0.2-0.1-0.4-0.3-0.6
				C297.7,785,297.6,784.9,297.8,784.9z"/>
			<path d="M318.5,793.7c-0.1,0-0.1-0.1-0.2-0.4c-0.1-0.2-0.1-0.3-0.2-0.3c0,0-0.3,0.1-0.8,0.2c0,0-0.1,0-0.2,0
				c-0.4,0-0.7-0.6-1-1.7c-0.2-0.8-0.4-1.3-0.4-1.4c-0.1-0.1-0.2-0.3-0.2-0.5c-0.1-0.4-0.3-1.3-0.8-2.8c-0.5-1.5-0.7-2.4-0.8-2.7
				c-0.2-1-0.4-1.5-0.5-1.7c-0.1-0.2-0.2-0.3-0.4-0.3c-0.3-0.1-0.4,0-0.5,0.1c-0.1,0.1-0.2,0.2-0.4,0.2c-0.2,0-0.4,0.1-0.4,0.2
				c0,0.1-0.1,0.1-0.2,0.1c-0.1,0-0.2,0.2-0.4,0.6c-0.2,0.4-0.3,0.8-0.5,1.2s-0.2,0.6-0.3,0.7c-0.1,0.1-0.1,0.2-0.1,0.4
				c0,0.2-0.1,0.6-0.4,1.2c-0.3,0.6-0.5,1.1-0.5,1.5c-0.1,0.4-0.2,0.6-0.2,0.7c-0.1,0.1-0.2,0.3-0.4,0.8c-0.2,0.5-0.3,0.7-0.3,0.8
				c-0.1,0.2-0.2,0.4-0.2,0.5c0,0.2,0,0.2-0.1,0.2c-0.1,0-0.2,0.1-0.3,0.4c-0.1,0.2-0.2,0.4-0.2,0.6c0,0.1-0.2,0.3-0.5,0.6
				s-0.5,0.4-0.7,0.4c-0.2,0-0.3,0.1-0.5,0.4c-0.2,0.2-0.4,0.4-0.5,0.4c-0.1,0-0.2,0.1-0.4,0.4c-0.1,0.2-0.1,0.3-0.1,0.4
				c0,0.1,0.1,0.3,0.4,0.5l0.5,0.4l2-0.1c1.1,0,1.8-0.1,2.1-0.1s0.5-0.1,0.5-0.2c0,0,0-0.1-0.1-0.2c-0.1-0.2-0.1-0.3,0.1-0.3
				c0.1,0,0.2-0.1,0.2-0.2c0-0.1-0.1-0.2-0.2-0.2c-0.1,0-0.3-0.1-0.4-0.2c-0.1-0.1-0.4-0.2-0.7-0.3c-0.5-0.1-0.7-0.3-0.7-0.5
				c0-0.1,0-0.2,0.1-0.3c0.1-0.2,0.2-0.3,0.2-0.5c0-0.1,0-0.2,0.1-0.2c0.1,0,0.1-0.2,0.1-0.7v-0.7h0.6c0.4,0,0.7-0.1,0.7-0.2
				c0.1-0.2,0.6-0.2,1.5-0.2h0.4c0.7,0,1,0,1.1,0.1c0.1,0.1,0.2,0.4,0.2,0.8c0,0.5,0.1,0.8,0.3,0.9c0.2,0.2,0.3,0.4,0.3,0.6
				c0,0,0,0,0,0.1c0,0,0,0.1,0,0.1c0,0.3-0.1,0.4-0.1,0.5c-0.1,0.1-0.3,0.1-0.6,0.2c-0.5,0.1-0.7,0.2-0.8,0.3c0,0.1-0.1,0.1-0.3,0.1
				c-0.2,0-0.3,0.1-0.3,0.3c0,0.3,0,0.4,0.1,0.5s0.3,0.1,0.6,0.1c0.3,0,0.7,0,1.3-0.1c0.6-0.1,1.3-0.1,2-0.1c0.4,0,0.7,0,0.8,0
				c0.2,0,0.4,0,0.6,0c0.3,0,0.5-0.1,0.5-0.3c0.1-0.2,0.1-0.3,0.2-0.3c0.1,0,0.1-0.2,0.1-0.5C318.7,793.9,318.6,793.7,318.5,793.7z
				 M312.4,789.2c0,0-0.1,0-0.2,0c-0.1,0-0.1,0-0.1,0c-0.3,0-0.5,0.1-0.6,0.2c-0.1,0.1-0.3,0.2-0.4,0.2c-0.2,0-0.3-0.1-0.4-0.2
				c-0.1-0.1-0.2-0.2-0.3-0.2c-0.1,0-0.2-0.1-0.2-0.2c0-0.1,0-0.2,0.1-0.2c0.1,0,0.2-0.1,0.3-0.4c0.1-0.3,0.2-0.5,0.2-0.7
				c0-0.2,0.1-0.3,0.2-0.4c0.1,0,0.2-0.3,0.2-0.8c0.1-0.6,0.3-0.9,0.6-0.9c0.2,0,0.3,0.1,0.5,0.2c0.1,0.1,0.2,0.2,0.4,0.5
				c0.1,0.3,0.2,0.4,0.2,0.5c0,0-0.1,0.1-0.3,0.1c-0.2,0-0.3,0.1-0.4,0.2c-0.1,0.1,0,0.2,0.1,0.2c0.1,0,0.2,0.1,0.2,0.2
				c0.1,0.1,0.2,0.3,0.2,0.4c0.1,0.2,0.1,0.2,0.2,0.3c0.1,0.1,0.1,0.3,0.2,0.6l0.1,0.5L312.4,789.2z"/>
			<path d="M335.9,784.1H335c-0.5,0-0.8,0-1-0.1c-0.2-0.1-0.3-0.2-0.3-0.5c0-0.1,0-0.2-0.1-0.3c-0.1,0-0.1,0-0.2,0.1
				c-0.1,0.1-0.4,0.2-0.7,0.2c-0.1,0-0.2,0-0.2-0.1c0-0.1-0.2-0.1-0.7-0.1c-0.4,0-0.7,0.1-0.8,0.2c-0.1,0.1-0.2,0.2-0.4,0.2
				c-0.2,0-0.3,0-0.4,0c-0.1,0-0.1,0-0.2,0c-0.1,0-0.1,0-0.2,0c-0.3,0-0.5,0.1-0.7,0.4c-0.3,0.3-0.5,0.4-0.7,0.5
				c-0.1,0-0.3,0.2-0.5,0.5c-0.2,0.3-0.4,0.4-0.5,0.4c-0.4,0.1-0.7,0.4-0.7,0.9c0,0.2-0.1,0.4-0.2,0.6c-0.1,0.2-0.2,0.4-0.2,0.6
				c0,0.3,0,0.4-0.1,0.5c-0.1,0.1-0.2,0.2-0.2,0.4c0,0.2-0.1,0.3-0.2,0.4c-0.1,0.1-0.2,0.5-0.2,1.4c0,1,0.1,1.5,0.2,1.6
				c0.1,0,0.1,0.1,0.1,0.2c0,0.1,0,0.2-0.1,0.2c-0.1,0,0,0.2,0.2,0.4c0.3,0.2,0.4,0.4,0.5,0.4c0.1,0,0.1,0.1,0.2,0.3
				c0.1,0.2,0.2,0.4,0.6,0.7c0.3,0.3,0.6,0.5,0.8,0.6c0.2,0.1,0.2,0.1,0.2,0.2c0,0.1,0.3,0.2,0.9,0.3c0.6,0.1,1.3,0.1,2,0.1
				c1.1,0,1.7-0.1,1.9-0.3c0.1-0.1,0.4-0.3,0.8-0.3c0.3-0.1,0.6-0.2,0.8-0.5c0.3-0.4,0.5-0.7,0.7-0.8c0.3-0.3,0.4-0.5,0.4-0.6
				c0-0.1-0.1-0.2-0.3-0.3c-0.4-0.2-0.6-0.3-0.8-0.3c-0.1,0-0.2,0.1-0.3,0.3c-0.1,0.2-0.2,0.4-0.4,0.4c-0.2,0-0.4,0.1-0.6,0.4
				c-0.2,0.2-0.4,0.3-0.5,0.2c-0.1-0.1-0.2-0.1-0.4,0.1c-0.1,0.1-0.4,0.2-0.7,0.2c-0.1,0-0.4,0-0.8-0.1c-0.6,0-1.1-0.1-1.2-0.2
				c-0.2-0.1-0.3-0.3-0.3-0.5c0-0.2-0.2-0.5-0.6-0.9c-0.3-0.3-0.5-0.5-0.6-0.7c-0.1-0.2-0.2-0.5-0.3-0.9c-0.1-0.7-0.2-1-0.3-1
				c-0.1,0-0.1-0.1-0.1-0.2c0-0.1,0-0.2,0.1-0.2c0.2,0,0.3-0.7,0.3-1.9c0-0.2,0.1-0.2,0.3-0.2c0.2,0,0.3-0.1,0.2-0.3
				c0-0.1,0-0.2,0-0.3c0.1-0.1,0.2-0.1,0.4-0.2c0.3-0.1,0.5-0.3,0.5-0.4c0-0.1,0.1-0.3,0.3-0.4c0.2-0.1,0.4-0.2,0.7-0.2
				c0.2,0,0.3-0.1,0.3-0.2c0-0.1,0.2-0.2,0.7-0.2c0.1,0,0.2,0,0.4,0c0.5,0,0.9,0.2,1.1,0.5c0.2,0.2,0.4,0.3,0.6,0.4
				c0.3,0.1,0.4,0.2,0.4,0.4c-0.1,0.2,0,0.3,0.1,0.4c0.1,0.1,0.3,0.4,0.4,0.9c0.1,0.4,0.1,0.6,0.2,0.7c0.1,0.1,0.2,0.2,0.4,0.3
				c0.3,0.1,0.4,0.2,0.4,0.4c0,0.1,0.1,0.2,0.2,0.1c0.1-0.1,0.2-0.6,0.2-1.5c0-1,0.1-1.5,0.2-1.5c0.1-0.1,0.1-0.3,0-0.8L335.9,784.1
				z"/>
			<path d="M357.1,790.9c-0.1,0-0.2-0.1-0.2-0.3c-0.1-0.2-0.2-0.3-0.4-0.3c-0.2,0-0.4-0.1-0.4-0.4c0-0.1-0.1-0.2-0.2-0.3
				c-0.2-0.1-0.3-0.1-0.3,0.1c0,0.1-0.1,0.2-0.4,0.3c-0.2,0.1-0.3,0.2-0.1,0.3c0.1,0.1,0.2,0.3,0.2,0.6c0,0.3,0,0.4-0.1,0.4
				c-0.1,0-0.3,0.2-0.6,0.5c-0.6,0.6-1.1,0.9-1.5,0.9c-0.2,0-0.4,0.1-0.7,0.2c-0.3,0.1-0.7,0.2-1.2,0.2c-0.6,0-0.9-0.1-0.9-0.4
				c0-0.1,0-0.1,0-0.2c0.1-0.2,0.1-0.3,0-0.4c-0.1,0-0.1-0.2-0.1-0.4c0-0.4,0-0.7,0.1-1c0-0.1,0.1-0.2,0.1-0.4c0-0.1,0-0.4-0.1-0.6
				c0-0.1,0-0.3,0-0.5s0-0.3,0.1-0.4c0.2-0.1,0.2-0.3,0.2-0.8c0-0.2,0-0.3-0.1-0.4c-0.1-0.1-0.1-0.2,0-0.4c0.1-0.1,0.1-0.5,0.1-1.2
				v-0.4l-0.1-1.3h0.9c0.6,0,1-0.1,1.1-0.2c0.1-0.2,0.1-0.4,0.1-0.6c0-0.3-0.1-0.5-0.2-0.6c-0.1-0.1-1.1-0.1-2.9-0.1h-0.9
				c-1.2,0-1.8,0.1-1.8,0.2c-0.1,0.1-0.1,0.3-0.1,0.4c0,0.3,0.1,0.6,0.2,0.7c0.1,0.1,0.4,0.2,0.7,0.2c0.5,0,0.8,0.1,0.8,0.4
				c0,0.1,0,0.1-0.1,0.2c-0.1,0.1-0.1,0.4-0.1,0.7c0,0.3,0,0.6,0.1,0.8c0.1,0.3,0.1,0.4,0,0.5c-0.1,0.1-0.1,0.3-0.1,0.7
				c0,0.2,0,0.3,0,0.4c0,0.8,0.1,1.3,0.1,1.6c0,1.3-0.1,1.9-0.3,1.9c-0.1,0-0.2,0.2-0.2,0.7c0,0.2,0,0.3,0.1,0.4l0.1,0.1
				c0,0.2-0.3,0.2-0.9,0.2c-0.3,0-0.5,0.1-0.6,0.2c-0.1,0.1-0.2,0.4-0.2,0.8v0.2c0,0.5,0.2,0.8,0.6,0.8c0.1,0,0.3,0,0.4-0.1
				c0.3-0.1,0.4-0.2,0.4-0.3c0-0.1,0.3-0.1,1-0.1c0.7,0,1,0,1,0.1s0.7,0.1,2.1,0.1c1.4,0,2.1-0.1,2.1-0.1c0-0.1,0.3-0.1,0.8-0.1
				c0.6,0,0.9,0,0.9,0.1c0,0.1,0.1,0.2,0.4,0.2c0.2,0,0.4-0.1,0.4-0.3c0-0.1,0.1-0.3,0.3-0.4c0.2-0.1,0.3-0.2,0.3-0.4
				c0-0.2,0-0.4,0.1-0.5c0.1-0.1,0.1-0.3,0-0.4c0,0-0.1-0.1-0.1-0.2c0-0.2,0-0.5,0.1-0.8c0.1-0.3,0.2-0.4,0.2-0.4
				c0.1,0,0.1-0.1,0.1-0.3C357.2,791,357.2,790.9,357.1,790.9z"/>
			<path d="M358,791.5c0,0-0.1,0-0.1,0c-0.1,0-0.1,0-0.1,0.1c-0.2,0-0.3,0.1-0.3,0.3c0,0.1,0.1,0.2,0.3,0.2c0.2,0,0.3-0.1,0.3-0.3
				C358.1,791.5,358,791.4,358,791.5L358,791.5z"/>
			<path d="M375.8,791c-0.1,0-0.3,0.2-0.5,0.5c-0.3,0.3-0.4,0.6-0.4,0.7c0,0.1-0.1,0.2-0.4,0.2c-0.2,0-0.3,0.1-0.3,0.1
				c0,0,0,0.1,0,0.3v0.2c0,0.2-0.1,0.3-0.4,0.3c0,0-0.1,0-0.2,0c-0.1,0-0.1,0-0.2,0c-0.2,0-0.4,0.1-0.7,0.4
				c-0.2,0.2-0.4,0.3-0.6,0.3c-0.1,0-0.2-0.1-0.2-0.2s-0.2-0.1-0.4,0c-0.2,0.1-0.6,0.2-1.2,0.2c-0.5,0-0.7,0-0.7-0.1
				s-0.1-0.1-0.2-0.1c-0.1,0-0.1-0.1-0.2-0.2c-0.1-0.2-0.1-0.3-0.1-0.5c0,0,0-0.6,0.1-1.8c0-1.2,0.1-1.8,0.1-1.8
				c0-0.1,0.5-0.1,1.4-0.1c0.8,0,1.3,0.1,1.5,0.2c0.3,0.1,0.4,0.4,0.4,0.8c0,0.2,0,0.3,0.1,0.3c0,0,0.1,0,0.2,0
				c0.2-0.1,0.4-0.1,0.6-0.1h0.1c0.2,0,0.3-0.2,0.3-0.6c0-0.1,0-0.2,0-0.3c0-0.2,0-0.3,0-0.4v-0.3c0-0.4,0-0.6,0.1-0.6
				c0.1-0.1,0.1-0.3,0-0.4c-0.1-0.1-0.1-0.3,0.1-0.4c0.2-0.1,0.2-0.2,0.2-0.4c0-0.3-0.4-0.4-1.1-0.4c-0.4,0-0.6,0.2-0.6,0.5
				c0,0.1,0,0.2,0.1,0.3c0.1,0.2,0,0.3-0.1,0.5c-0.1,0.1-0.4,0.2-0.9,0.3c-0.6,0.1-1.1,0.2-1.6,0.2h-0.6v-0.6c0-0.4,0.1-0.6,0.2-0.6
				c0.1,0,0.2-0.1,0.2-0.4c0-0.3-0.1-0.6-0.2-0.9c-0.1-0.2-0.2-0.4-0.2-0.4c0-0.1,0.1-0.1,0.2-0.3c0.2-0.2,0.3-0.3,0.2-0.5
				c0,0,0-0.1,0-0.2c0-0.2,0.1-0.3,0.4-0.3c0.3-0.1,0.8-0.1,1.5-0.2c0.6,0,1-0.1,1.1-0.1c0.4,0,0.6,0.1,0.7,0.2
				c0.2,0.2,0.3,0.3,0.5,0.4c0.2,0.1,0.3,0.2,0.3,0.3c0,0.1,0.1,0.2,0.4,0.4c0.2,0.1,0.4,0.3,0.4,0.3c0,0.2,0.1,0.3,0.3,0.5
				c0.2,0.2,0.4,0.3,0.6,0.3h0.1c0.3,0,0.4-0.2,0.4-0.7c0-0.2-0.1-0.4-0.2-0.5c-0.1-0.2-0.2-0.4-0.2-0.6c0-0.3-0.1-0.5-0.2-0.5
				c-0.1-0.1-0.1-0.2,0-0.4c0.1-0.1,0.1-0.2,0.1-0.3c0-0.1-0.1-0.1-0.2-0.2c-0.1-0.1-0.2-0.2-0.2-0.3c0-0.1-0.1-0.3-0.3-0.5
				c-0.1-0.1-0.2-0.2-0.3-0.2c-0.1,0-0.2,0-0.3,0.1c-0.2,0.1-1.9,0.3-5,0.4h-0.7c-1.5,0-2.3-0.1-2.4-0.3c0-0.1-0.1-0.1-0.3-0.1
				c-0.1,0-0.2,0-0.2,0.1c0,0.1-0.1,0.2-0.1,0.3c0,0.2,0,0.3,0,0.3c0,0.2-0.1,0.3-0.3,0.4c-0.2,0-0.3,0.2-0.2,0.5
				c0.1,0.2,0.1,0.4,0.2,0.5c0.1,0.1,0.2,0.1,0.3,0.1s0.3,0,0.4,0c0.1,0,0.1,0,0.2,0c0.1,0,0.1,0,0.2,0c0.4,0,0.6,0.1,0.7,0.4
				c0.1,0.2,0.1,0.8,0.1,1.5c0,0.9-0.1,1.4-0.2,1.5c-0.1,0-0.1,0.2,0,0.4c0.1,0.3,0.1,0.5,0,0.7c-0.1,0.2-0.2,0.3-0.3,0.3
				c-0.1,0-0.1,0.1,0.1,0.2c0.1,0.1,0.1,0.3,0.1,0.6c0,0.3-0.1,1.3-0.2,3l-0.1,1h-0.6c-0.4,0-0.6,0.1-0.7,0.3
				c-0.1,0.2-0.2,0.3-0.3,0.3c-0.2,0-0.2,0.1-0.2,0.4c0,0.3,0.1,0.5,0.3,0.6c0.2,0.1,0.3,0.3,0.3,0.4c0,0.1,0.1,0.2,0.3,0.2
				s0.5,0,0.8-0.1s0.5-0.2,0.6-0.2c0.2-0.1,0.6-0.2,1.2-0.2c0.1,0,0.6,0,1.5,0.1c0.8,0,1.2,0.1,1.2,0.2c0.1,0.1,0.2,0.1,0.4,0
				c0.3-0.1,0.8-0.2,1.6-0.2c0.9,0,1.4,0,1.6-0.1c0.2,0,0.3-0.1,0.5-0.2c0.2-0.2,0.3-0.4,0.2-0.6c-0.1-0.2,0-0.4,0.2-0.4
				c0.1-0.1,0.2-0.4,0.2-0.8c0-0.3,0-0.5,0.1-0.6c0-0.1,0.1-0.1,0.2-0.1c0.2,0,0.3-0.2,0.3-0.5c0-0.3-0.1-0.5-0.2-0.7
				C376.1,791.1,376,791,375.8,791z"/>
			<path d="M365.1,793c0.1,0,0.1-0.1,0.2-0.1c0.1-0.2,0.1-0.3-0.1-0.3c-0.1,0-0.2,0.1-0.2,0.2C365,792.9,365,793,365.1,793z"/>
			<path d="M386,789.5c0-0.1,0-0.2-0.1-0.2c-0.1,0-0.1,0-0.1,0.1l0.1,0.2C386,789.8,386,789.7,386,789.5z"/>
			<path d="M392,791.5c-0.1-0.1-0.1-0.5-0.1-1.2c0-0.6-0.1-0.9-0.2-1.1c-0.1-0.2-0.3-0.4-0.6-0.5c-0.3-0.1-0.5-0.3-0.5-0.4
				c-0.1-0.1-0.3-0.3-0.9-0.6s-1-0.5-1.3-0.6c-0.2-0.1-0.5-0.2-0.9-0.5c-0.4-0.3-0.6-0.4-0.6-0.5c0-0.1-0.1-0.2-0.2-0.3
				c-0.2-0.1-0.2-0.2-0.2-0.3c0,0,0-0.1,0-0.1c0.1-0.1,0.1-0.2,0.1-0.3c0-0.1,0-0.3-0.1-0.6c0-0.1,0-0.2,0-0.2c0,0,0.2-0.1,0.3-0.1
				c0.3,0,0.4-0.1,0.4-0.2c0-0.1,0.1-0.2,0.4-0.4c0.3-0.2,0.4-0.3,0.4-0.3c0-0.1,0.1-0.1,0.4-0.2c0.1,0,0.1,0,0.2,0
				c0.4,0,0.8,0.2,1.2,0.5c0.5,0.3,0.7,0.6,0.7,0.9c0,0.2,0.1,0.4,0.3,0.5c0.2,0.1,0.3,0.3,0.3,0.4c0,0.1,0.1,0.3,0.2,0.5
				s0.3,0.3,0.4,0.3c0,0,0,0,0.1,0c0.1-0.1,0.1-0.7,0.2-2v-0.8c0-0.6-0.1-0.9-0.2-0.9c-0.1,0-0.1,0-0.1,0c-0.3,0.1-0.6,0.2-0.8,0.2
				c-0.3,0-0.6-0.1-1-0.3c-0.4-0.2-0.6-0.3-0.7-0.3c0,0-0.1,0-0.2,0.1c-0.3,0.1-0.6,0.1-0.8,0.1c-0.3,0-0.4,0-0.5,0.1
				c0,0.1-0.1,0.2-0.3,0.2c-0.2,0-0.4-0.1-0.5-0.2c-0.1-0.1-0.3-0.2-0.5-0.2h0c-0.1,0-0.1,0-0.1,0c-0.1,0-0.1,0-0.1,0
				c0,0,0.1,0,0.1,0c0.1,0.1,0.2,0.1,0.2,0.2c0,0.2-0.2,0.3-0.5,0.4c-0.3,0.1-0.4,0.2-0.4,0.4c0.1,0.2,0,0.3-0.2,0.4
				c-0.3,0.1-0.6,0.5-1.1,1.1c-0.1,0.2-0.2,0.4-0.2,0.6c0,0,0,0.3,0.1,0.8c0.1,0.7,0.3,1.1,0.4,1.3c0.1,0.2,0.4,0.4,0.7,0.7
				c0.4,0.3,0.6,0.4,0.8,0.4c0.1,0,0.3,0.1,0.6,0.4c0.4,0.3,0.9,0.6,1.7,0.8c0.5,0.1,0.8,0.3,1.1,0.6c0.2,0.2,0.3,0.4,0.5,0.7
				c0.1,0.3,0.2,0.5,0.2,0.7c0,0.1,0,0.1-0.1,0.2c-0.1,0-0.1,0.2-0.1,0.4c0.1,0.2,0,0.4-0.2,0.6c-0.1,0.1-0.2,0.3-0.2,0.4
				c0,0.2-0.5,0.4-1.4,0.5c-0.1,0-0.3,0-0.6,0c-0.9,0-1.7-0.4-2.2-1.2c-0.3-0.4-0.5-0.8-0.5-1c0,0,0-0.1,0-0.2c0-0.1,0-0.2,0-0.2
				c0,0-0.1-0.1-0.1-0.1c-0.1,0-0.1,0-0.1-0.1c0.1-0.3-0.1-0.5-0.4-0.6c-0.1,0-0.2-0.1-0.3-0.1c-0.3,0-0.4,0.2-0.5,0.5
				c-0.1,1.2-0.1,1.9-0.2,1.9c-0.1,0.1-0.1,0.4-0.2,0.8c0,0.1,0,0.3,0,0.4c0,0.2,0.1,0.4,0.3,0.6c0.1,0.1,0.2,0.2,0.3,0.2
				c0,0,0.1,0,0.2-0.2c0.1-0.2,0.2-0.3,0.2-0.4c0-0.3,0.2-0.3,0.5-0.1c0.9,0.5,1.8,0.7,2.9,0.7c0.5,0,1.1-0.1,1.6-0.2
				c0.6-0.1,1.1-0.3,1.4-0.6c0.3-0.3,0.5-0.5,0.5-0.5c0-0.1,0.1-0.2,0.2-0.3c0.2-0.1,0.3-0.4,0.3-0.9c0.1-0.5,0.1-0.7,0.2-0.7
				C392.1,791.6,392.1,791.6,392,791.5z M387.5,788.8C387.4,788.8,387.4,788.7,387.5,788.8c-0.1-0.1-0.1-0.1,0-0.1
				S387.6,788.6,387.5,788.8C387.6,788.7,387.6,788.8,387.5,788.8z"/>
		</g>
		<polygon points="51.7,808.8 44,814 41.2,799.9 38.4,814 30.7,808.8 35.9,816.5 21.8,819.3 35.9,822 30.7,829.8 38.4,824.6 
			41.2,838.6 43.9,824.6 51.7,829.8 46.5,822 60.5,819.3 46.5,816.5 		"/>
		<polygon points="468.1,816.5 473.3,808.8 465.5,814 462.8,799.9 460,814 452.3,808.8 457.5,816.5 443.4,819.3 457.5,822 
			452.3,829.8 460,824.6 462.8,838.6 465.5,824.6 473.3,829.8 468.1,822 482.1,819.3 		"/>
		<polygon points="30.7,57.5 38.4,52.3 41.2,66.4 44,52.3 51.7,57.5 46.5,49.8 60.5,47 46.5,44.3 51.7,36.5 43.9,41.7 41.2,27.7 
			38.4,41.7 30.7,36.5 35.9,44.3 21.8,47 35.9,49.8 		"/>
		<polygon points="473.3,36.5 465.5,41.7 462.8,27.7 460,41.7 452.3,36.5 457.5,44.3 443.4,47 457.5,49.8 452.3,57.5 460,52.3 
			462.8,66.4 465.5,52.3 473.3,57.5 468.1,49.8 482.1,47 468.1,44.3 		"/>
		<path d="M186.2,710.1c0.9,1.2,2.9,0,2-1.2c-3.3-4.6-6.6-9.3-9.9-14.1c0,0,0,0,0,0c1.8-2.8,2.3-6.9,3-10.1
			c0.9-3.8,1.9-7.7,2.3-11.6c4.8-7.7,3.2-17.4-2.8-24c-0.5-0.6-1.5-0.4-1.9,0.3c-4.3,7.4-1.8,17.1,2.2,23.9c0,0.1,0,0.1,0.1,0.1
			c-0.4,3.6-1.4,7.1-2.2,10.6c-0.6,2.6-1.1,5.9-2.2,8.5c-4.5-6.7-8.7-13.7-12.2-20.8c-2.6-5.4-4.7-10.9-6.2-16.6c0,0,0,0,0,0
			c3.7-3,6.5-6.1,9-10.1c1.1-1.8,2.2-3.6,3-5.4c0.1-0.1,0.2-0.1,0.3-0.3c6.1-7,6.1-17.1,0.9-24.5c-0.4-0.6-1.4-0.9-1.9-0.2
			c-5.2,6.7-4.2,16.2-1.3,23.6c-1,2.2-2.4,4.3-3.6,6.4c-1.9,3.2-4.3,5.7-7.1,8c-2.3-10.1-2.7-20.6-1-31c4.6-6.6,7.7-16.1,3.9-23.8
			c-0.4-0.7-1.4-0.7-1.9-0.2c-6.5,6.1-8.7,15.8-4.4,23.8c0,0,0,0,0,0c-1,6.4-1.3,12.8-0.8,19.1c-1.6-2.8-2.9-5.8-4.6-8.6
			c0-0.1,0-0.3,0-0.4c-0.2-7.9-3.3-17.4-10.8-21.3c-0.7-0.3-1.6,0-1.7,0.7c-2,8.8,1.8,18,10.3,21.8c2.7,4.2,4.3,8.9,7.4,12.9
			c0,0,0,0,0,0c0.6,4.4,1.5,8.7,2.8,12.9c-5-3.8-9.3-8.4-14.4-11.8c0,0,0,0-0.1,0c-3.1-7.3-9.2-14.6-17.6-15.6
			c-0.8-0.1-1.3,0.8-1.1,1.5c1.6,8.9,8.8,15.9,18,16.7c0.1,0,0.1,0,0.2,0c3.1,2.2,5.8,5,8.7,7.4c2.4,2,4.9,4,7.5,5.7
			c0.9,2.6,1.9,5.2,3.1,7.8c4.4,9.8,10.3,19.2,16.5,28.2c-0.3-0.1-0.6-0.2-0.8-0.3c-0.1,0-0.1-0.1-0.2-0.1c-4.8-1.7-10-2.8-14.6-3.9
			c-4.1-1.8-8-6.8-9.2-11.1c2.7-8.5-1.5-16.9-9.1-21.1c-0.7-0.4-1.4,0.1-1.6,0.8c-1.9,7.8,2.9,15.9,8.4,21.1
			c0.1,0.1,0.1,0.2,0.2,0.2c0.9,2.9,2.8,6.1,5.3,8.6c-6.6-1.9-13.4-4.6-18.9-8.4c-2.5-8.8-10.8-14.1-19.8-14c-0.7,0-1.2,0.8-1,1.5
			c2.6,8.2,11.5,12.9,19.4,14.5c0.1,0,0.2,0.1,0.3,0.1c6.2,4.2,13.7,6.8,20.7,8.9c5.3,1.6,11.5,2.6,17.3,4.3c-3.2,1.6-7.7,1.7-11,2
			c-3.6,0.3-7.4,0.6-11,0.4c-6.5-5.5-15.7-5.7-22.8-1.1c-0.6,0.4-0.7,1.3-0.1,1.8c6.3,5.3,15.9,4.5,23,1.7c0,0,0.1,0,0.1-0.1
			c3.8,0.2,7.8-0.1,11.6-0.5c4-0.4,9.6-0.6,13-3.2c1.1,0.4,2.2,0.9,3.3,1.4c1.4,1.9,2.7,3.9,4.1,5.8
			C184.2,707.4,186.1,710,186.2,710.1z"/>
		<path d="M374.6,700.4c-7-4.5-16.3-4.4-22.8,1.1c-3.6,0.2-7.4-0.1-11-0.4c-3.3-0.3-7.7-0.4-11-2c5.8-1.8,12-2.7,17.3-4.3
			c7-2.1,14.5-4.8,20.7-8.9c0.1,0,0.2,0,0.3-0.1c7.8-1.6,16.8-6.3,19.4-14.5c0.2-0.7-0.3-1.5-1-1.5c-8.9-0.1-17.3,5.2-19.8,14
			c-5.6,3.8-12.4,6.5-18.9,8.4c2.4-2.5,4.4-5.6,5.3-8.6c0.1-0.1,0.1-0.1,0.2-0.2c5.5-5.1,10.3-13.2,8.4-21.1c-0.2-0.7-1-1.1-1.6-0.8
			c-7.6,4.2-11.7,12.7-9.1,21.1c-1.2,4.3-5.1,9.2-9.2,11.1c-4.7,1.1-9.8,2.1-14.6,3.9c-0.1,0-0.2,0-0.2,0.1
			c-0.3,0.1-0.6,0.2-0.8,0.3c6.2-9,12.1-18.3,16.5-28.2c1.2-2.6,2.2-5.1,3.1-7.8c2.6-1.8,5.1-3.8,7.5-5.7c2.9-2.4,5.6-5.2,8.7-7.4
			c0.1,0,0.1,0,0.2,0c9.2-0.7,16.4-7.7,18-16.7c0.1-0.7-0.3-1.6-1.1-1.5c-8.3,1-14.4,8.3-17.6,15.6c0,0,0,0-0.1,0
			c-5.1,3.5-9.5,8-14.4,11.8c1.3-4.3,2.2-8.6,2.8-12.9c0,0,0,0,0,0c3.1-4,4.7-8.7,7.4-12.9c8.4-3.8,12.2-13,10.3-21.8
			c-0.2-0.8-1.1-1.1-1.7-0.7c-7.5,3.9-10.6,13.4-10.8,21.3c0,0.1,0,0.3,0,0.4c-1.7,2.8-3,5.8-4.6,8.6c0.5-6.3,0.2-12.7-0.8-19.1
			c0,0,0,0,0,0c4.3-8,2.2-17.7-4.4-23.8c-0.5-0.5-1.5-0.5-1.9,0.2c-3.8,7.7-0.7,17.2,3.9,23.8c1.7,10.4,1.3,20.9-1,31
			c-2.8-2.4-5.2-4.8-7.1-8c-1.2-2.1-2.7-4.2-3.6-6.4c3-7.4,3.9-16.9-1.3-23.6c-0.5-0.6-1.5-0.4-1.9,0.2c-5.2,7.4-5.3,17.5,0.9,24.5
			c0.1,0.1,0.2,0.2,0.3,0.3c0.9,1.9,2,3.6,3,5.4c2.4,4.1,5.3,7.1,9,10.1c0,0,0,0,0,0c-1.5,5.7-3.6,11.3-6.2,16.6
			c-3.5,7.2-7.7,14.1-12.2,20.8c-1.2-2.6-1.6-5.9-2.2-8.5c-0.8-3.5-1.8-7.1-2.2-10.6c0,0,0-0.1,0.1-0.1c4-6.8,6.5-16.5,2.2-23.9
			c-0.4-0.6-1.3-0.8-1.9-0.3c-6,6.5-7.7,16.2-2.8,24c0.4,3.9,1.4,7.8,2.3,11.6c0.8,3.2,1.3,7.3,3,10.1c0,0,0,0,0,0
			c-3.2,4.8-6.6,9.5-9.9,14.1c-0.9,1.2,1.2,2.5,2,1.2c0.1-0.1,2-2.7,2-2.7c1.4-1.9,2.7-3.9,4.1-5.8c1.1-0.5,2.2-1,3.3-1.4
			c3.4,2.6,9,2.8,13,3.2c3.8,0.4,7.7,0.7,11.6,0.5c0,0,0.1,0,0.1,0.1c7.1,2.8,16.7,3.6,23-1.7C375.3,701.7,375.2,700.8,374.6,700.4z
			"/>
		<path d="M245.1,148.9c0.9,0.4,1.8,0.8,2.7,1.2c0.5,0.2,1.1,0.5,1.6,0.7c0.1,0.1,0.2,0.1,0.2,0.1c0,0,0,0,0,0.1
			c1,1.7,1.2,4.2,1.8,6.1c0.1,0.4,0.7,0.4,0.8,0c0.6-1.9,0.9-4.4,1.8-6.1c0,0,0,0,0-0.1c0,0,0.1,0,0.1-0.1c0.5-0.3,1.2-0.5,1.7-0.8
			c0.9-0.4,1.8-0.8,2.7-1.2c0.4-0.2,0.2-0.6-0.1-0.7c-0.9-0.4-1.8-0.8-2.7-1.1c-1.1-0.5-1.7-0.5-2-1.5c-0.6-1.9-1.1-3.9-1.6-5.9
			c0,0,0,0,0-0.1c0,0,0,0,0-0.1c-0.1-0.1-0.2-0.2-0.3-0.2c-0.1,0-0.3,0-0.3,0.2c0,0,0,0.1,0,0.1c0,0,0,0,0,0c0,0,0,0,0,0
			c0,0,0,0,0,0c-0.5,1.9-1,3.9-1.5,5.9c-0.5,1.5-3.3,2.1-4.7,2.7C245,148.3,244.8,148.8,245.1,148.9z M250.6,146.4
			c0.6-1,0.7-2.7,1-3.7c0.1-0.5,0.2-0.9,0.4-1.4c0.1,0.5,0.3,0.9,0.4,1.4c0.3,1.1,0.4,2.7,1,3.7c0.6,1.1,2.7,1.7,4.2,2.2
			c-0.7,0.3-1.5,0.7-2.2,1c-0.6,0.3-1.5,0.5-1.9,1c-0.6,0.8-0.7,2.4-1,3.4c-0.2,0.6-0.3,1.1-0.5,1.7c-0.2-0.6-0.3-1.1-0.5-1.7
			c-0.3-0.9-0.4-2.6-1-3.4c-0.4-0.6-1.2-0.7-1.9-1c-0.7-0.3-1.5-0.7-2.2-1C247.9,148.1,249.9,147.5,250.6,146.4z"/>
		<polygon points="294.6,597.7 257.2,595.2 282.7,567 254.5,592.5 252,549.5 249.4,592.5 221.2,567 246.7,595.2 209.3,597.7 
			246.7,600.3 221.2,628.5 249.4,603 252,645.9 254.5,603 282.7,628.5 256.8,600.3 		"/>
		<path d="M321.5,486.6c-8.2-25.4-16.4-50.7-24.6-76.1l-2.7,1.9c5.3,16.3,10.6,32.9,15.9,49.1l6.8,21.2
			c-20.8-15.4-89.3-66.1-102.2-75.6l-1.1,3.2c12.1,9,68.4,50.7,83.3,61.7c7.4,5.5,14.8,10.9,22.2,16.4
			C320.2,489.3,321.9,487.9,321.5,486.6z"/>
		<path d="M207,401.5c-14-10.3-28.4-20.9-42.7-31.5c-6-4.5-12.1-8.9-18.1-13.4h126.3c-0.1-0.3-0.9-2.5-1.2-3.2h-130
			c-1.7,0-2,2.1-0.8,3c22.1,16.3,43.6,32.2,65.3,48.2L207,401.5z"/>
		<path d="M184.6,488.4c21.6-15.9,43.1-31.9,64.7-47.8c-0.1,0-2.4-2.1-2.5-2.1c-13.9,10.3-27.8,20.5-41.7,30.8l-18.3,13.5
			c8-24.8,35-108.2,39.9-123.5l-3.4,0.1c-4.7,14.6-26.9,83.3-32.8,101.4l-8.4,25.8C181.8,487.9,183.5,489.3,184.6,488.4z"/>
		<path d="M252.6,275.2c-0.2-0.1-0.3-0.1-0.5-0.1c0,0,0,0,0,0c-0.1,0-0.1,0-0.2,0c-0.1,0-0.1,0-0.2,0c0,0,0,0,0,0
			c-0.2,0-0.4,0.1-0.5,0.1c-0.5,0.2-0.8,0.6-0.9,1.2c-7.9,24.5-15.9,49.1-23.8,73.6c0,0,0.1,0,0.1,0c1.1,0.1,2.2,0.1,3.3-0.1
			c5.1-15.7,10.2-31.4,15.2-47.1c2.3-7,4.5-14,6.8-21c7.7,23.9,34,105.1,38.9,120.3l2.7-2.1c-4.7-14.5-31.7-98.1-31.7-98.1
			c-2.8-8.5-5.5-17.1-8.3-25.6C253.4,275.8,253.1,275.4,252.6,275.2z"/>
		<path d="M363.2,356.3c1.2-0.9,0.9-3-0.8-3h-80.3c0.4,1.1,0.8,2.1,1.1,3.2h74.3c-21,15.5-90.7,67.1-103.2,76.3l2.7,2
			c11.9-8.8,84-62.1,84-62.1C348.5,367.2,355.9,361.8,363.2,356.3z"/>
		<path d="M144.7,327.3c20.7-34.3,56.9-56.2,95.8-59.9c-0.1-1-0.3-2.1-0.2-3.1c-33.7,3.2-65.9,19.5-87.8,46.5
			c-7.6,9.3-13.6,19.5-18.2,30.3c1,0.1,2,0.5,2.9,1C139.3,337.1,141.8,332.1,144.7,327.3z"/>
		<path d="M127.5,361.2c-7.9,32.6-3.2,68,14.8,97.4c7.5,12.2,16.8,22.8,27.5,31.6c0.7-0.9,1.5-1.6,2.5-2c-6-4.9-11.5-10.3-16.5-16.3
			c-25.7-30.7-34.5-72.3-25.3-110.2C129.6,361.7,128.5,361.6,127.5,361.2z"/>
		<path d="M276.9,517.6c13.9-2.7,26.9-7.8,38.7-14.6c-0.6-0.8-1.1-1.8-1.5-2.7c-6.4,3.7-13.2,6.9-20.4,9.4
			c-35.7,12.6-75,7.8-106.6-11.2c-0.3,1-0.6,2-1.1,3C212.8,517.5,245.2,523.8,276.9,517.6z"/>
		<path d="M380.1,391.8c-0.1-10.3-1.4-20.5-3.9-30.3c-1,0.2-2.1,0.4-3.1,0.8c0,0,0,0,0,0c2.4,9.5,3.7,19.4,3.8,29.5
			c-0.3,37.5-17.4,72.7-45.3,96.2c0.8,0.6,1.6,1.3,2.4,2C362.1,466.1,379.8,430.3,380.1,391.8z"/>
		<path d="M277,269.2c40.7,8.3,73.3,36.5,89.3,72.9c0,0,0,0,0.1,0c0.7-0.2,1.3-0.1,1.8,0c0.2-0.2,0.3-0.3,0.5-0.5
			c0.2-0.3,0.4-0.4,0.7-0.6c-13.7-31.5-39.6-57.2-73-69.6c-10.5-3.9-21.3-6.2-32.1-7.2c0.3,1.1,0.4,2.1,0.5,3.2
			C268.7,267.8,272.9,268.4,277,269.2z"/>
		<path d="M245.9,265c0,0.7,2.8,1,3.8,2c1,1.1,1.4,5.2,2,5.2c0.6,0,1.3-4.2,2.2-5.1c1-0.9,3.8-1.3,3.8-1.9c0-0.6-2.9-1.1-3.8-2
			c-0.9-0.9-1.4-5.2-2-5.2c-0.6,0-1.2,4.1-2.2,5.1C248.7,264.2,245.9,264.3,245.9,265z"/>
		<path d="M128,352.7c0.7,1.4,0,4,0.6,4.2c0.6,0.2,1.8-2.3,3.1-2.9c1.3-0.6,5.4,0.3,5.6-0.3c0.2-0.6-3.6-2.5-4.2-3.7
			c-0.6-1.2-0.1-4-0.6-4.2c-0.5-0.2-2,2.4-3.1,2.9c-1.1,0.5-5.4-0.3-5.6,0.3C123.6,349.6,127.4,351.4,128,352.7z"/>
		<path d="M172.9,501.6c0.5,0.4,3.3-2.6,4.8-2.8c1.5-0.2,3.8,1.3,4.2,0.7c0.4-0.5-1.6-2.4-1.8-3.9c-0.2-1.4,1.9-5,1.4-5.4
			c-0.5-0.4-3.5,2.7-4.8,2.8c-1.3,0.2-3.9-1.2-4.2-0.7c-0.3,0.5,1.7,2.6,1.8,3.9C174.5,497.5,172.4,501.3,172.9,501.6z"/>
		<path d="M330.9,492.9c-0.4-0.6-2.8,0.8-4.2,0.6c-1.4-0.3-4.2-3.4-4.7-3c-0.5,0.4,1.4,4.2,1.2,5.5c-0.2,1.3-2.3,3.3-2,3.8
			c0.3,0.5,3-0.8,4.2-0.6c1.2,0.2,4.2,3.4,4.7,3c0.5-0.4-1.5-4-1.2-5.5C329.2,495.2,331.3,493.4,330.9,492.9z"/>
		<path d="M366,353.1c0.2,0.6,4.4-0.1,5.6,0.5c1.2,0.6,2.4,3.2,3,3.1c0.5-0.2,0.2-3.1,0.8-4.2c0.6-1.1,4.5-2.9,4.3-3.5
			c-0.2-0.6-4.3,0.2-5.6-0.5c-1.3-0.7-2.3-3.3-3-3.1c-0.7,0.2-0.1,2.9-0.8,4.2C369.6,350.9,365.8,352.5,366,353.1z"/>
		<path d="M215.5,338.6c-0.2-3.2-2.6-5.9-5.9-5.9c-3.2,0-5.9,2.7-5.9,5.9c0,3.1,2.6,5.8,5.7,5.9
			C212.8,344.6,215.4,341.9,215.5,338.6z M207,338.6c0-3.5,5.2-3.4,5.4,0C212.1,342,207,342.1,207,338.6z"/>
		<path d="M297.2,338.6c-0.2-3.2-2.6-5.9-5.9-5.9c-3.2,0-5.9,2.7-5.9,5.9c0,3.1,2.6,5.8,5.7,5.9C294.5,344.6,297,341.9,297.2,338.6z
			 M288.6,338.6c0-3.5,5.2-3.4,5.4,0C293.8,342,288.6,342.1,288.6,338.6z"/>
		<path d="M251.6,465.2c3.4,0.1,6-2.6,6.1-5.9c-0.2-3.2-2.6-5.9-5.9-5.9c-3.2,0-5.9,2.7-5.9,5.9C246,462.4,248.5,465.1,251.6,465.2z
			 M254.5,459.3c-0.2,3.4-5.4,3.5-5.4,0C249.2,455.9,254.3,455.9,254.5,459.3z"/>
		<path d="M187.4,411.3c0,3.1,2.6,5.8,5.7,5.9c3.4,0.1,6-2.6,6.1-5.9c-0.2-3.2-2.6-5.9-5.9-5.9C190.1,405.4,187.4,408.1,187.4,411.3
			z M196,411.3c-0.2,3.4-5.4,3.5-5.4,0C190.6,407.8,195.8,407.9,196,411.3z"/>
		<path d="M316.9,411.3c-0.2-3.2-2.6-5.9-5.9-5.9c-3.2,0-5.9,2.7-5.9,5.9c0,3.1,2.6,5.8,5.7,5.9
			C314.2,417.3,316.7,414.6,316.9,411.3z M308.3,411.3c0-3.5,5.2-3.4,5.4,0C313.5,414.7,308.3,414.8,308.3,411.3z"/>
		<polygon points="260.5,390.4 269,377.1 255.6,385.5 252.1,363.2 248.6,385.5 235.3,377.1 243.7,390.4 221.4,393.9 243.7,397.4 
			235.3,410.8 248.6,402.3 252.1,424.7 255.6,402.3 269,410.8 260.5,397.4 282.9,393.9 		"/>
		<path d="M257.5,217.4c0-5.1-5.5-40-5.5-40s-5.5,34.9-5.5,40c0,5.1,2.5,6.7,5.5,6.7S257.5,222.5,257.5,217.4z"/>
	</g>
</g>
</svg>
