<?xml version="1.0" encoding="utf-8"?>
<!-- Generator: Adobe Illustrator 21.1.0, SVG Export Plug-In . SVG Version: 6.00 Build 0)  -->
<svg version="1.1" id="Слой_1" xmlns="http://www.w3.org/2000/svg" xmlns:xlink="http://www.w3.org/1999/xlink" x="0px" y="0px"
	 viewBox="0 0 504 864" style="enable-background:new 0 0 504 864;" xml:space="preserve">
<style type="text/css">
	.st0{fill:#040404;}
	.st1{fill:#FFFFFF;}
</style>
<g>
	<g>
		<path d="M106.4,127.3l-0.6,0.4c-1.3,1-1.6,2.9-0.5,4.2c0.6,0.8,1.5,1.2,2.4,1.2c0.6,0,1.3-0.2,1.8-0.6l0.6-0.5
			c1.3-1,1.5-2.9,0.5-4.2C109.6,126.5,107.7,126.2,106.4,127.3z"/>
		<path d="M61.5,146l-0.7,0.1c-1.7,0.1-2.9,1.6-2.7,3.3c0.1,1.6,1.4,2.8,3,2.8c0.1,0,0.2,0,0.3,0l0.8-0.1c1.7-0.2,2.9-1.6,2.7-3.3
			C64.6,147.1,63.2,145.9,61.5,146z"/>
		<path d="M73.6,143.9l-0.7,0.2c-1.6,0.4-2.6,2-2.2,3.7c0.3,1.4,1.6,2.3,2.9,2.3c0.2,0,0.5,0,0.7-0.1l0.8-0.2
			c1.6-0.4,2.6-2.1,2.1-3.7C76.8,144.4,75.2,143.5,73.6,143.9z"/>
		<path d="M85.2,139.9l-0.7,0.3c-1.5,0.6-2.3,2.4-1.6,3.9c0.5,1.2,1.6,1.9,2.8,1.9c0.4,0,0.8-0.1,1.1-0.2l0.7-0.3
			c1.5-0.7,2.2-2.4,1.6-3.9C88.5,140,86.7,139.2,85.2,139.9z"/>
		<path d="M96.2,134.3l-0.6,0.4c-1.4,0.8-1.9,2.7-1.1,4.1c0.6,1,1.6,1.5,2.6,1.5c0.5,0,1-0.1,1.5-0.4l0.7-0.4c1.4-0.9,1.9-2.7,1-4.1
			C99.5,133.9,97.7,133.4,96.2,134.3z"/>
		<path d="M128,109c-1.3-1-3.2-0.7-4.2,0.6l-0.4,0.6c-1,1.3-0.8,3.2,0.6,4.2c0.5,0.4,1.2,0.6,1.8,0.6c0.9,0,1.8-0.4,2.4-1.2l0.5-0.6
			C129.6,111.9,129.3,110,128,109z"/>
		<path d="M117.3,124.6c0.8,0,1.5-0.3,2.1-0.9l0.5-0.5c1.2-1.2,1.2-3.1,0-4.3c-1.2-1.2-3.1-1.2-4.3,0l-0.5,0.5
			c-1.2,1.2-1.2,3.1,0,4.3C115.7,124.3,116.5,124.6,117.3,124.6z"/>
		<path d="M144,68.1c0.1,0,0.2,0,0.2,0c1.6,0,2.9-1.2,3-2.8l0.1-0.8c0.1-1.7-1.1-3.1-2.8-3.2c-1.7-0.1-3.1,1.1-3.2,2.8l-0.1,0.7
			C141.1,66.6,142.3,68,144,68.1z"/>
		<path d="M131.3,104c0.5,0.3,1,0.4,1.5,0.4c1,0,2.1-0.5,2.6-1.5l0.4-0.7c0.8-1.4,0.3-3.3-1.1-4.1c-1.4-0.8-3.3-0.3-4.1,1.1
			l-0.4,0.6C129.3,101.3,129.8,103.2,131.3,104z"/>
		<path d="M141.5,80.7c0.2,0.1,0.5,0.1,0.7,0.1c1.4,0,2.6-0.9,2.9-2.3l0.2-0.7c0.4-1.6-0.6-3.2-2.3-3.6c-1.6-0.4-3.2,0.6-3.6,2.3
			l-0.2,0.7C138.9,78.7,139.9,80.3,141.5,80.7z"/>
		<path d="M137.2,92.7c0.4,0.1,0.7,0.2,1.1,0.2c1.2,0,2.3-0.7,2.8-1.9l0.3-0.7c0.6-1.5-0.2-3.3-1.7-3.9c-1.5-0.6-3.3,0.2-3.9,1.7
			l-0.3,0.7C135,90.3,135.7,92.1,137.2,92.7z"/>
		<path d="M143.1,789.2c1.6-0.4,2.6-2,2.3-3.6l-0.2-0.7c-0.4-1.6-2-2.6-3.6-2.2c-1.6,0.4-2.6,2-2.2,3.6l0.2,0.7
			c0.3,1.4,1.6,2.3,2.9,2.3C142.6,789.2,142.8,789.2,143.1,789.2z"/>
		<path d="M144.4,807.9c-1.7-0.2-3.1,1.1-3.2,2.8l-0.1,0.7c-0.2,1.7,1.1,3.1,2.7,3.3c0.1,0,0.2,0,0.3,0c1.5,0,2.8-1.2,3-2.7l0.1-0.8
			C147.3,809.5,146,808,144.4,807.9z"/>
		<path d="M128.1,749.4c-1-1.3-2.9-1.6-4.2-0.6c-1.3,1-1.6,2.9-0.6,4.2l0.4,0.6c0.6,0.8,1.5,1.2,2.4,1.2c0.6,0,1.3-0.2,1.8-0.6
			c1.3-1,1.6-2.9,0.6-4.2L128.1,749.4z"/>
		<path d="M144,795.1c-1.7,0.1-2.9,1.6-2.8,3.2l0.1,0.7c0.1,1.6,1.4,2.8,3,2.8c0.1,0,0.1,0,0.2,0c1.7-0.1,2.9-1.6,2.8-3.2l-0.1-0.8
			C147.1,796.2,145.6,795,144,795.1z"/>
		<path d="M119.4,739.5c-1.2-1.2-3.1-1.2-4.3,0c-1.2,1.2-1.2,3.1,0,4.3l0.5,0.5c0.6,0.6,1.4,0.9,2.1,0.9c0.8,0,1.5-0.3,2.1-0.9
			c1.2-1.2,1.2-3.1,0-4.3L119.4,739.5z"/>
		<path d="M75.1,713.5l-0.8-0.2c-1.6-0.4-3.2,0.6-3.7,2.2c-0.4,1.6,0.6,3.2,2.2,3.7l0.7,0.2c0.3,0.1,0.5,0.1,0.8,0.1
			c1.3,0,2.5-0.9,2.9-2.2C77.7,715.6,76.7,714,75.1,713.5z"/>
		<path d="M110.2,731.2l-0.6-0.5c-1.3-1-3.2-0.8-4.2,0.5c-1,1.3-0.8,3.2,0.5,4.2l0.6,0.4c0.6,0.4,1.2,0.6,1.9,0.6
			c0.9,0,1.8-0.4,2.4-1.1C111.7,734.2,111.5,732.3,110.2,731.2z"/>
		<path d="M135.8,761l-0.4-0.7c-0.8-1.4-2.7-1.9-4.1-1.1c-1.4,0.8-1.9,2.7-1.1,4.1l0.4,0.6c0.6,1,1.6,1.5,2.6,1.5
			c0.5,0,1-0.1,1.5-0.4C136.1,764.3,136.6,762.5,135.8,761z"/>
		<path d="M99.3,723.8l-0.7-0.4c-1.4-0.8-3.3-0.4-4.1,1.1c-0.8,1.4-0.4,3.3,1.1,4.1l0.6,0.4c0.5,0.3,1,0.4,1.5,0.4
			c1,0,2-0.5,2.6-1.5C101.2,726.5,100.7,724.6,99.3,723.8z"/>
		<path d="M141.4,772.9l-0.3-0.7c-0.6-1.5-2.4-2.3-3.9-1.7c-1.5,0.6-2.3,2.4-1.7,3.9l0.3,0.7c0.5,1.2,1.6,1.9,2.8,1.9
			c0.4,0,0.7-0.1,1.1-0.2C141.3,776.2,142,774.5,141.4,772.9z"/>
		<path d="M87.6,717.8l-0.7-0.3c-1.5-0.6-3.3,0.1-3.9,1.6c-0.6,1.5,0.1,3.3,1.6,3.9l0.7,0.3c0.4,0.2,0.8,0.2,1.2,0.2
			c1.2,0,2.3-0.7,2.8-1.8C89.8,720.2,89.1,718.5,87.6,717.8z"/>
		<path d="M62.1,711.2l-0.8-0.1c-1.7-0.1-3.1,1.1-3.3,2.7c-0.1,1.7,1.1,3.1,2.7,3.3l0.7,0.1c0.1,0,0.2,0,0.3,0c1.5,0,2.8-1.2,3-2.7
			C64.9,712.8,63.7,711.4,62.1,711.2z"/>
		<path d="M440.9,152l0.8,0.1c0.1,0,0.2,0,0.3,0c1.5,0,2.9-1.2,3-2.8c0.1-1.7-1.1-3.1-2.7-3.3l-0.7-0.1c-1.7-0.1-3.1,1.1-3.3,2.7
			C438,150.4,439.2,151.9,440.9,152z"/>
		<path d="M453.9,152.2c0.1,0,0.2,0,0.2,0l0.8-0.1c1.7-0.2,2.9-1.6,2.7-3.3c-0.1-1.7-1.6-2.9-3.3-2.7l-0.7,0.1
			c-1.7,0.1-2.9,1.6-2.8,3.2C451.1,151,452.4,152.2,453.9,152.2z"/>
		<path d="M361.5,90.3l0.3,0.7c0.5,1.2,1.6,1.9,2.8,1.9c0.4,0,0.7-0.1,1.1-0.2c1.5-0.6,2.3-2.4,1.7-3.9l-0.3-0.7
			c-0.6-1.5-2.4-2.3-3.9-1.7C361.7,87,360.9,88.7,361.5,90.3z"/>
		<path d="M407.3,134.7l-0.6-0.4c-1.4-0.9-3.3-0.4-4.1,1c-0.9,1.4-0.4,3.3,1,4.1l0.7,0.4c0.5,0.3,1,0.4,1.5,0.4c1,0,2-0.5,2.6-1.5
			C409.2,137.3,408.8,135.5,407.3,134.7z"/>
		<path d="M372.4,99.3c-0.8-1.4-2.7-2-4.1-1.1c-1.4,0.8-2,2.7-1.1,4.1l0.4,0.7c0.6,1,1.6,1.5,2.6,1.5c0.5,0,1-0.1,1.5-0.4
			c1.4-0.8,1.9-2.7,1.1-4.1L372.4,99.3z"/>
		<path d="M379.2,109.6c-1-1.3-2.9-1.6-4.2-0.6c-1.3,1-1.6,2.9-0.6,4.2l0.5,0.6c0.6,0.8,1.5,1.2,2.4,1.2c0.6,0,1.3-0.2,1.8-0.6
			c1.3-1,1.6-2.9,0.6-4.2L379.2,109.6z"/>
		<path d="M397.1,127.7l-0.6-0.4c-1.3-1-3.2-0.8-4.2,0.5c-1,1.3-0.8,3.2,0.5,4.2l0.6,0.5c0.5,0.4,1.2,0.6,1.8,0.6
			c0.9,0,1.8-0.4,2.4-1.2C398.6,130.6,398.4,128.7,397.1,127.7z"/>
		<path d="M358.7,68.1c0.1,0,0.2,0,0.2,0c1.7-0.1,2.9-1.6,2.8-3.2l-0.1-0.7c-0.1-1.7-1.5-2.9-3.2-2.8c-1.7,0.1-2.9,1.6-2.8,3.2
			l0.1,0.8C355.9,66.9,357.2,68.1,358.7,68.1z"/>
		<path d="M387.3,119c-1.2-1.2-3.1-1.2-4.3,0c-1.2,1.2-1.2,3.1,0,4.3l0.5,0.5c0.6,0.6,1.4,0.9,2.1,0.9c0.8,0,1.5-0.3,2.1-0.9
			c1.2-1.2,1.2-3.1,0-4.3L387.3,119z"/>
		<path d="M415.4,145.4l0.7,0.3c0.4,0.2,0.8,0.2,1.1,0.2c1.2,0,2.3-0.7,2.8-1.9c0.6-1.5-0.1-3.3-1.6-3.9l-0.7-0.3
			c-1.5-0.6-3.3,0.1-3.9,1.6C413.1,143,413.8,144.8,415.4,145.4z"/>
		<path d="M427.8,149.7l0.8,0.2c0.2,0.1,0.5,0.1,0.7,0.1c1.3,0,2.6-0.9,2.9-2.3c0.4-1.6-0.6-3.2-2.2-3.7l-0.7-0.2
			c-1.6-0.4-3.3,0.5-3.7,2.1C425.3,147.6,426.2,149.3,427.8,149.7z"/>
		<path d="M359.9,74.1c-1.6,0.4-2.6,2-2.3,3.6l0.2,0.7c0.3,1.4,1.6,2.3,2.9,2.3c0.2,0,0.5,0,0.7-0.1c1.6-0.4,2.6-2,2.2-3.6l-0.2-0.7
			C363.1,74.7,361.5,73.7,359.9,74.1z"/>
		<path d="M404.3,723.4l-0.7,0.4c-1.4,0.9-1.9,2.7-1,4.1c0.6,0.9,1.6,1.5,2.6,1.5c0.5,0,1.1-0.1,1.5-0.4l0.6-0.4
			c1.4-0.8,1.9-2.7,1.1-4.1C407.6,723,405.7,722.5,404.3,723.4z"/>
		<path d="M379.1,748.8c-1.3-1-3.2-0.8-4.2,0.6l-0.5,0.6c-1,1.3-0.7,3.2,0.6,4.2c0.5,0.4,1.2,0.6,1.8,0.6c0.9,0,1.8-0.4,2.4-1.2
			l0.4-0.6C380.6,751.7,380.4,749.8,379.1,748.8z"/>
		<path d="M371.7,759.2c-1.4-0.8-3.3-0.3-4.1,1.1l-0.4,0.7c-0.8,1.4-0.3,3.3,1.1,4.1c0.5,0.3,1,0.4,1.5,0.4c1,0,2.1-0.6,2.6-1.5
			l0.4-0.6C373.6,761.9,373.1,760.1,371.7,759.2z"/>
		<path d="M383.5,739.5L383,740c-1.2,1.2-1.2,3.1,0,4.3c0.6,0.6,1.4,0.9,2.1,0.9c0.8,0,1.6-0.3,2.1-0.9l0.5-0.5
			c1.2-1.2,1.2-3.1,0-4.3C386.6,738.3,384.7,738.3,383.5,739.5z"/>
		<path d="M365.7,770.5c-1.5-0.6-3.3,0.1-3.9,1.7l-0.3,0.7c-0.6,1.5,0.2,3.3,1.7,3.9c0.4,0.1,0.7,0.2,1.1,0.2c1.2,0,2.3-0.7,2.8-1.9
			l0.3-0.7C368,772.9,367.2,771.2,365.7,770.5z"/>
		<path d="M393.4,730.8l-0.6,0.5c-1.3,1-1.5,2.9-0.5,4.2c0.6,0.8,1.5,1.1,2.4,1.1c0.7,0,1.3-0.2,1.9-0.6l0.6-0.4
			c1.3-1,1.6-2.9,0.5-4.2C396.6,730,394.7,729.8,393.4,730.8z"/>
		<path d="M417.7,723.3l0.7-0.3c1.5-0.6,2.3-2.4,1.6-3.9c-0.6-1.5-2.4-2.3-3.9-1.6l-0.7,0.3c-1.5,0.7-2.2,2.4-1.6,3.9
			c0.5,1.1,1.6,1.8,2.8,1.8C416.9,723.6,417.3,723.5,417.7,723.3z"/>
		<path d="M428.6,719.5c0.3,0,0.5,0,0.8-0.1l0.7-0.2c1.6-0.4,2.6-2,2.2-3.7c-0.4-1.6-2-2.6-3.7-2.2l-0.8,0.2
			c-1.6,0.4-2.6,2.1-2.1,3.7C426.1,718.6,427.3,719.5,428.6,719.5z"/>
		<path d="M453.7,717.1l0.7,0.1c0.1,0,0.2,0,0.3,0c1.5,0,2.9-1.2,3-2.7c0.1-1.7-1.1-3.1-2.7-3.3l-0.8-0.1c-1.7-0.1-3.1,1.1-3.2,2.8
			C450.8,715.5,452.1,717,453.7,717.1z"/>
		<path d="M441.2,717.2c0.1,0,0.2,0,0.3,0l0.7-0.1c1.7-0.1,2.9-1.6,2.7-3.3c-0.1-1.7-1.6-2.9-3.3-2.7l-0.8,0.1
			c-1.7,0.2-2.9,1.6-2.7,3.3C438.3,716,439.6,717.2,441.2,717.2z"/>
		<path d="M358.6,807.9c-1.7,0.1-2.9,1.6-2.8,3.2l0.1,0.8c0.1,1.6,1.5,2.7,3,2.7c0.1,0,0.2,0,0.3,0c1.7-0.2,2.9-1.6,2.7-3.3
			l-0.1-0.7C361.7,809,360.2,807.7,358.6,807.9z"/>
		<path d="M358.5,801.9c0.1,0,0.1,0,0.2,0c1.6,0,2.9-1.2,3-2.8l0.1-0.7c0.1-1.7-1.1-3.1-2.8-3.2c-1.7-0.1-3.1,1.1-3.2,2.8l-0.1,0.8
			C355.6,800.3,356.8,801.7,358.5,801.9z"/>
		<path d="M361.4,782.6c-1.6-0.4-3.2,0.6-3.6,2.2l-0.2,0.7c-0.4,1.6,0.6,3.2,2.3,3.6c0.2,0.1,0.5,0.1,0.7,0.1c1.4,0,2.6-0.9,2.9-2.3
			l0.2-0.7C364,784.6,363,783,361.4,782.6z"/>
		<path d="M503.8,18.2c-1.6-17.9-18.7-16.3-31.6-16.3c-45.9,0-91.8,0-137.6,0c-63.2,0-126.3,0-189.5,0c-40.6,0-81.2,0-121.8,0
			c-2.6,0-5.3-0.2-8,0.2c-9.5,1.2-15,9.2-15.2,18.2c-0.2,7.3,0,14.5,0,21.8c0,37.4,0,74.9,0,112.3c0,57,0,114.1,0,171.1
			c0,64.3,0,128.6,0,192.9c0,58.4,0,116.7,0,175.1c0,40.1,0,80.2,0,120.3c0,9.1,0,18.2,0,27.3c0,11.7,6.7,20.5,19.2,20.7
			c35.9,0.6,71.9,0,107.9,0c62.4,0,124.9,0,187.3,0c49.7,0,99.5,0,149.2,0c7.6,0,15.2,0,22.9,0c0.4,0,0.8-0.1,1.2-0.2
			c14.4-1.8,16.1-13.8,16.1-25.5c0-11.4,0-22.8,0-34.3c0-43.4,0-86.9,0-130.3c0-59.9,0-119.8,0-179.8c0-63.9,0-127.7,0-191.6
			c0-55.3,0-110.6,0-165.9c0-33.7,0-67.3,0-101C503.9,28.3,504.2,23.2,503.8,18.2z M486.6,852.8c-28.3,0-56.6,0-84.9,0
			c-59.9,0-119.8,0-179.7,0c-54,0-108,0-162,0c-13.1,0-26.1,0-39.2,0c-5.6,0-11-1.3-11.7-8.3c-0.2-1.5,0-3,0-4.5c0-26.5,0-53,0-79.5
			c0-50,0-100,0-149.9c0-61.8,0-123.6,0-185.4c0-61.4,0-122.7,0-184.1c0-48.9,0-97.7,0-146.6c0-24.2-0.8-48.6,0-72.7
			c0.2-5.3,1.6-10.1,8.3-10.8c2.2-0.2,4.5,0,6.7,0c14.8,0,29.6,0,44.5,0c55.6,0,111.3,0,166.9,0c58.9,0,117.8,0,176.7,0
			c18.9,0,37.9,0,56.8,0c8.1,0,24.7-3.1,25.9,8.4c0.5,5.2,0,10.8,0,16.1c0,13.5,0,27.1,0,40.6c0,45.5,0,91.1,0,136.6
			c0,60.1,0,120.2,0,180.3c0,62.6,0,125.2,0,187.7c0,52.8,0,105.6,0,158.4c0,31.4,0,62.7,0,94.1C494.8,840.3,496.9,852,486.6,852.8z
			"/>
		<path d="M421.9,779.1c12.5,3.9,25.1,7.9,37.6,11.8c0.9,0.3,1.6,0,2.1-0.5c0.4-0.4,0.7-0.9,0.7-1.7c0-23.7,0-47.4,0-71.1
			c0-56.4,0-112.8,0-169.2c0-68.7,0-137.4,0-206c0-59,0-117.9,0-176.9c0-19.6,0-39.2,0-58.8c0-8.9,1.3-19,0-27.9
			c-0.1-0.4,0-0.8,0-1.2c0-0.4-0.1-0.7-0.2-1c0.7-1.5-0.5-3.8-2.6-3.2c-12.5,3.9-25,7.8-37.6,11.7c4.1-12.6,8.2-25.2,12.3-37.9
			c0.5-1.7-0.9-2.8-2.2-2.8c-0.2-0.1-0.4-0.1-0.7-0.1c-40.5,0-80.9,0-121.4,0c-64.5,0-129,0-193.6,0c-14.9,0-29.7,0-44.6,0
			c-0.7,0-1.2,0.3-1.6,0.7c-0.6,0.5-0.9,1.2-0.6,2.2c4.1,12.6,8.2,25.2,12.3,37.9c-12.5-3.9-25-7.8-37.6-11.7
			c-2.1-0.6-3.2,1.6-2.6,3.1c-0.2,0.3-0.3,0.7-0.3,1.1c0,23.7,0,47.4,0,71.1c0,56.4,0,112.8,0,169.2c0,68.7,0,137.4,0,206
			c0,59,0,117.9,0,176.9c0,19.6,0,39.2,0,58.8c0,8.9-1.3,19,0,27.9c0.1,0.4,0,0.8,0,1.2c0,0.7,0.3,1.3,0.7,1.6
			c0.5,0.5,1.2,0.8,2.1,0.5C57,787,69.5,783,82,779.1c-4.1,12.5-8.2,25-12.3,37.4c-0.3,0.9,0,1.7,0.6,2.2c0.4,0.4,0.9,0.7,1.6,0.7
			c40.5,0,80.9,0,121.4,0c64.5,0,129,0,193.6,0c14.9,0,29.7,0,44.6,0c0.7,0,1.3-0.3,1.6-0.7c0.5-0.5,0.8-1.2,0.5-2.1
			C429.7,804.1,425.8,791.6,421.9,779.1z M310,814.9c-64.5,0-129,0-193.6,0c-13.8,0-27.6,0-41.5,0c4.2-12.9,8.5-25.8,12.7-38.7
			c0.5-1.6-1.2-3.3-2.8-2.8c-12.9,4-25.9,8.1-38.8,12.1c0-22.7,0-45.3,0-68c0-0.5,0-0.9,0-1.4c0.6,0.6,1.3,0.9,2.1,0.9
			c0.1,0,0.2,0,0.3,0l0.7-0.1c1.7-0.1,2.9-1.6,2.8-3.2c-0.1-1.7-1.6-2.9-3.2-2.8l-0.8,0.1c-0.7,0.1-1.4,0.4-1.9,0.9
			c0-54.5,0-109.1,0-163.6c0-68.7,0-137.4,0-206c0-59,0-117.9,0-176.9c0-4.8,0-9.5,0-14.3c0.5,0.5,1.1,0.8,1.9,0.9l0.8,0.1
			c0.1,0,0.2,0,0.2,0c1.6,0,2.9-1.2,3-2.8c0.1-1.7-1.1-3.1-2.8-3.2l-0.7-0.1c-0.9-0.1-1.8,0.3-2.4,0.9c0-13.4,0-26.9,0-40.3
			c0-8.9,1.3-19,0-27.9c0,0,0-0.1,0-0.2c12.9,4,25.9,8,38.8,12.1c1.6,0.5,3.3-1.2,2.8-2.8c-4.2-13-8.5-26-12.7-39.1
			c22.6,0,45.3,0,67.9,0c-1.2,0.5-1.9,1.7-1.8,3l0.1,0.7c0.1,1.6,1.4,2.8,3,2.8c0.1,0,0.2,0,0.2,0c1.7-0.1,2.9-1.6,2.8-3.2l-0.1-0.8
			c-0.1-1.1-0.8-2-1.8-2.5c16,0,32,0,48,0c54.8,0,109.6,0,164.4,0c-1,0.4-1.7,1.3-1.8,2.5l-0.1,0.8c-0.1,1.7,1.1,3.1,2.8,3.2
			c0.1,0,0.2,0,0.2,0c1.5,0,2.9-1.2,3-2.8l0.1-0.7c0.1-1.3-0.6-2.5-1.8-3c8.9,0,17.8,0,26.8,0c14.1,0,28.1,0,42.2,0
			c-4.2,13-8.5,26-12.7,39.1c-0.5,1.6,1.2,3.3,2.8,2.8c12.9-4,25.8-8,38.8-12.1c0,23.3,0,46.7,0,70c0,56.4,0,112.8,0,169.2
			c0,68.7,0,137.4,0,206c0,59,0,117.9,0,176.9c0,19.6,0,39.2,0,58.8c0,8.3-1.1,17.6-0.2,26c-12.8-4-25.7-8.1-38.5-12.1
			c-1.6-0.5-3.3,1.2-2.8,2.8c4,12.9,8,25.8,12,38.7C388.9,814.9,349.4,814.9,310,814.9z"/>
		<path d="M38.4,61.6c1,1,6.9-2.5,10-2.6c3.1-0.1,12,4.9,13.1,3.7c1.1-1.2-4.7-8.9-4.9-12.7c-0.2-3.7,3-9.1,1.7-10.2
			c-1.3-1.1-6.4,2.5-10,2.6c-3.6,0.2-12-4.9-13.1-3.7c-1.1,1.2,4.7,9.3,4.9,12.7C40.3,54.7,37.4,60.6,38.4,61.6z"/>
		<path d="M454.9,42.4c-3.6-0.2-8.8-3.8-10-2.6c-1.3,1.1,1.9,6.5,1.7,10.2c-0.2,3.7-5.9,11.5-4.9,12.7c1.1,1.2,9.9-3.9,13.1-3.7
			c3.1,0.1,9,3.6,10,2.6c1-1-1.9-6.9-1.7-10.2c0.1-3.3,5.9-11.5,4.9-12.7C466.9,37.6,458.6,42.6,454.9,42.4z"/>
		<path d="M48.4,807.4c-3.1-0.1-9-3.6-10-2.6c-1,1,1.9,6.9,1.7,10.2c-0.1,3.3-5.9,11.5-4.9,12.7c1.1,1.2,9.4-3.9,13.1-3.7
			s8.8,3.8,10,2.6c1.3-1.1-1.9-6.5-1.7-10.2c0.2-3.7,5.9-11.5,4.9-12.7C60.4,802.5,51.5,807.5,48.4,807.4z"/>
		<path d="M464.9,804.7c-1-1-6.9,2.5-10,2.6c-3.1,0.1-12-4.9-13.1-3.7c-1.1,1.2,4.7,8.9,4.9,12.7c0.2,3.7-3,9.1-1.7,10.2
			c1.3,1.1,6.4-2.5,10-2.6c3.6-0.2,12,4.9,13.1,3.7c1.1-1.2-4.7-9.3-4.9-12.7C463,811.6,465.9,805.7,464.9,804.7z"/>
	</g>
	<g>
		<g>
			<polygon points="252,334.1 246.1,419.9 181.5,361.4 240,426 108.3,431.9 240,437.8 181.5,502.4 246.1,443.9 252,529.7 
				257.9,443.9 322.5,502.4 264,437.8 395.6,431.9 264,426 322.5,361.4 257.9,420.8 			"/>
		</g>
		<g>
			<g>
				<g>
					<g>
						<path d="M251.8,300.9c-21.2,0.8-39.5,12.8-48.6,32.1c1.3,0,2.6,0,3.9,0c-15.2-32.8,8.2-71.7,44.9-71.7
							c36.3,0,59,37.7,45.4,70.4c1.4-0.2,2.7-0.4,4.1-0.5C291.8,312.3,273,300.9,251.8,300.9c-2.9,0-2.9,4.5,0,4.5
							c19.7,0,36.8,10.5,45.8,28c1,1.9,3.4,1.1,4.1-0.5c15.1-36.2-12-77.6-51.8-76.1c-39.4,1.5-62.9,43.4-46.7,78.4
							c0.7,1.5,3.2,1.5,3.9,0c8.4-17.8,25-29,44.7-29.8C254.7,305.3,254.7,300.8,251.8,300.9z"/>
					</g>
				</g>
			</g>
			<g>
				<g>
					<g>
						<path d="M201.1,204.9c0,4.8,0.6,9.3,1.6,13.9c0.5,2.3,3.7,2,4.4,0c6.6-19.9,25.2-33.5,46.4-32.6c20.4,0.9,37.3,15.3,42.7,34.6
							c0.6,2.1,3.8,2.2,4.4,0c8.2-29.5-10.4-60.7-41.3-65.2C229,151.3,202.4,174.8,201.1,204.9c-0.1,2.9,4.4,2.9,4.5,0
							c1.2-26.9,24.5-48,51.6-45c29,3.2,46.7,32.3,39,59.7c1.5,0,2.9,0,4.4,0c-6-21.4-24.7-37-47.1-37.9
							c-23.2-1-43.6,14.2-50.8,35.9c1.5,0,2.9,0,4.4,0c-1-4.2-1.5-8.4-1.5-12.7C205.6,202,201.1,202,201.1,204.9z"/>
					</g>
				</g>
			</g>
			<g>
				<g>
					<g>
						<path d="M251.8,558.4c-19.7-0.8-36.3-12-44.7-29.8c-0.7-1.5-3.2-1.5-3.9,0c-16.2,35,7.3,76.9,46.7,78.4
							c39.8,1.5,66.9-39.9,51.8-76.1c-0.7-1.6-3.1-2.4-4.1-0.5C288.6,547.8,271.5,558.4,251.8,558.4c-2.9,0-2.9,4.5,0,4.5
							c21.2,0,40-11.4,49.7-30.3c-1.4-0.2-2.7-0.4-4.1-0.5c13.6,32.7-9.1,70.4-45.4,70.4c-36.7,0-60.1-38.9-44.9-71.7
							c-1.3,0-2.6,0-3.9,0c9,19.2,27.4,31.2,48.6,32.1C254.7,563,254.7,558.5,251.8,558.4z"/>
					</g>
				</g>
			</g>
			<g>
				<g>
					<g>
						<path d="M205.6,658.9c0-4.3,0.5-8.5,1.5-12.7c-1.5,0-2.9,0-4.4,0c7.2,21.8,27.5,36.9,50.8,35.9c22.4-1,41-16.6,47.1-37.9
							c-1.5,0-2.9,0-4.4,0c7.6,27.4-10,56.6-39,59.7C230.1,706.9,206.8,685.7,205.6,658.9c-0.1-2.9-4.6-2.9-4.5,0
							c1.3,30.1,27.8,53.6,58.1,49.3c31-4.4,49.5-35.7,41.3-65.2c-0.6-2.2-3.7-2.1-4.4,0c-5.5,19.4-22.3,33.7-42.7,34.6
							c-21.2,0.9-39.8-12.7-46.4-32.6c-0.7-2-3.8-2.3-4.4,0c-1.1,4.6-1.6,9.1-1.6,13.9C201.1,661.8,205.6,661.8,205.6,658.9z"/>
					</g>
				</g>
			</g>
			<g>
				<g>
					<path d="M241.7,381.8c-20.9,4.7-37.3,21.5-40.3,43c-3,21.4,8.3,43,27.6,52.7c18.8,9.4,42.1,6.2,57.6-8
						c15.8-14.5,20.8-38.1,12.3-57.8C289.3,389.3,265.3,377.6,241.7,381.8c-2.9,0.5-1.6,4.9,1.2,4.4c25-4.5,49.7,11.4,54.8,36.6
						c5,24.9-11.7,49.8-36.6,54.8c-24.9,5-49.8-11.7-54.8-36.6c-5.1-25.4,11.9-49.2,36.6-54.8C245.7,385.6,244.5,381.2,241.7,381.8z
						"/>
				</g>
			</g>
		</g>
	</g>
</g>
</svg>
