<?xml version="1.0" encoding="utf-8"?>
<!-- Generator: Adobe Illustrator 21.1.0, SVG Export Plug-In . SVG Version: 6.00 Build 0)  -->
<svg version="1.1" id="Слой_1" xmlns="http://www.w3.org/2000/svg" xmlns:xlink="http://www.w3.org/1999/xlink" x="0px" y="0px"
	 viewBox="0 0 504 864" style="enable-background:new 0 0 504 864;" xml:space="preserve">
<style type="text/css">
	.st0{fill:#040404;}
	.st1{fill:#FFFFFF;}
</style>
<g>
	<g>
		<path d="M51.9,53.6c6.7-7.6,6.7-19,0.1-26.4c0.8,7.2-1.3,14.8-6.5,20.6c-5.2,5.8-12.3,8.7-19.5,8.6C34,62.2,45.2,61.1,51.9,53.6z"
			/>
		<path d="M458.4,47.7c-5.2-5.8-7.3-13.3-6.5-20.6c-6.5,7.5-6.6,18.9,0.2,26.4c6.7,7.6,17.9,8.6,25.9,2.8
			C470.7,56.4,463.6,53.5,458.4,47.7z"/>
		<path d="M26.1,807.4c7.2-0.1,14.3,2.8,19.5,8.6c5.2,5.8,7.3,13.3,6.5,20.6c6.5-7.5,6.6-18.9-0.1-26.4
			C45.2,802.6,34,801.6,26.1,807.4z"/>
		<path d="M452,810.2c-6.7,7.6-6.7,19-0.2,26.4c-0.8-7.2,1.3-14.8,6.5-20.6c5.2-5.8,12.3-8.7,19.5-8.6
			C470,801.6,458.8,802.6,452,810.2z"/>
		<path d="M503.8,18.2c-1.6-17.9-18.7-16.3-31.6-16.3c-45.9,0-91.8,0-137.6,0c-63.2,0-126.3,0-189.5,0c-40.6,0-81.2,0-121.8,0
			c-2.6,0-5.3-0.2-8,0.2c-9.5,1.2-15,9.2-15.2,18.2c-0.2,7.3,0,14.5,0,21.8c0,37.4,0,74.9,0,112.3c0,57,0,114.1,0,171.1
			c0,64.3,0,128.6,0,192.9c0,58.4,0,116.7,0,175.1c0,40.1,0,80.2,0,120.3c0,9.1,0,18.2,0,27.3c0,11.7,6.7,20.5,19.2,20.7
			c35.9,0.6,71.9,0,107.9,0c62.4,0,124.9,0,187.3,0c49.7,0,99.5,0,149.2,0c7.6,0,15.2,0,22.9,0c0.4,0,0.8-0.1,1.2-0.2
			c14.4-1.8,16.1-13.8,16.1-25.5c0-11.4,0-22.8,0-34.3c0-43.4,0-86.9,0-130.3c0-59.9,0-119.8,0-179.8c0-63.9,0-127.7,0-191.6
			c0-55.3,0-110.6,0-165.9c0-33.7,0-67.3,0-101C503.9,28.3,504.2,23.2,503.8,18.2z M486.6,852.8c-28.3,0-56.6,0-84.9,0
			c-59.9,0-119.8,0-179.7,0c-54,0-108,0-162,0c-13.1,0-26.1,0-39.2,0c-5.6,0-11-1.3-11.7-8.3c-0.2-1.5,0-3,0-4.5c0-26.5,0-53,0-79.5
			c0-50,0-100,0-149.9c0-61.8,0-123.6,0-185.4c0-61.4,0-122.7,0-184.1c0-48.9,0-97.7,0-146.6c0-24.2-0.8-48.6,0-72.7
			c0.2-5.3,1.6-10.1,8.3-10.8c2.2-0.2,4.5,0,6.7,0c14.8,0,29.6,0,44.5,0c55.6,0,111.3,0,166.9,0c58.9,0,117.8,0,176.7,0
			c18.9,0,37.9,0,56.8,0c8.1,0,24.7-3.1,25.9,8.4c0.5,5.2,0,10.8,0,16.1c0,13.5,0,27.1,0,40.6c0,45.5,0,91.1,0,136.6
			c0,60.1,0,120.2,0,180.3c0,62.6,0,125.2,0,187.7c0,52.8,0,105.6,0,158.4c0,31.4,0,62.7,0,94.1C494.8,840.3,496.9,852,486.6,852.8z
			"/>
		<path d="M460,790.9c1.2,0.1,2.4-0.7,2.4-2.2c0-23.7,0-47.4,0-71.1c0-56.4,0-112.8,0-169.2c0-68.7,0-137.4,0-206
			c0-59,0-117.9,0-176.9c0-19.6,0-39.2,0-58.8c0-8.9,1.3-19,0-27.9c-0.1-0.4,0-0.8,0-1.2c0-0.8-0.3-1.3-0.8-1.7
			c0.1-1.2-0.6-2.5-2.2-2.6c-13.1-0.5-25.3-13.8-25.8-26.7c0-0.5-0.2-0.8-0.4-1.1c-0.3-0.6-1-1.1-1.9-1.1c-40.5,0-80.9,0-121.4,0
			c-64.5,0-129,0-193.6,0c-14.9,0-29.7,0-44.6,0c-0.9,0-1.6,0.5-1.9,1.1c-0.2,0.3-0.3,0.7-0.4,1.2C69.1,59.5,57,72.8,43.9,73.3
			c-1.8,0.1-2.5,1.9-2,3.2c-0.2,0.3-0.2,0.6-0.2,1c0,23.7,0,47.4,0,71.1c0,56.4,0,112.8,0,169.2c0,68.7,0,137.4,0,206
			c0,59,0,117.9,0,176.9c0,19.6,0,39.2,0,58.8c0,8.9-1.3,19,0,27.9c0.1,0.4,0,0.8,0,1.2c0,0.9,0.5,1.6,1.1,1.9
			c0.3,0.2,0.7,0.3,1.2,0.4c13,0.5,25.3,13.3,25.8,26.2c0,0.5,0.2,0.8,0.4,1.1c0.3,0.6,1,1.1,1.9,1.1c40.5,0,80.9,0,121.4,0
			c64.5,0,129,0,193.6,0c14.9,0,29.7,0,44.6,0c0.9,0,1.6-0.5,1.9-1.1c0.2-0.3,0.3-0.7,0.4-1.2c0.5-12.9,12.7-25.7,25.8-26.2
			C459.6,791,459.8,790.9,460,790.9z M429.3,814.9c-39.8,0-79.6,0-119.3,0c-64.5,0-129,0-193.6,0c-14.2,0-28.3,0-42.5,0
			c-1.7-13.9-13.9-26.5-27.8-28.3c0-23,0-46,0-69.1c0-56.4,0-112.8,0-169.2c0-68.7,0-137.4,0-206c0-59,0-117.9,0-176.9
			c0-19.6,0-39.2,0-58.8c0-8.9,1.3-19,0-27.9c-0.1-0.4,0-0.8,0-1.2c14-1.8,26.1-14.9,27.8-28.7c39.8,0,79.6,0,119.3,0
			c64.5,0,129,0,193.6,0c14.2,0,28.3,0,42.5,0c1.7,14.1,14.3,27.4,28.5,28.8c0,23.7,0,47.3,0,71c0,56.4,0,112.8,0,169.2
			c0,68.7,0,137.4,0,206c0,59,0,117.9,0,176.9c0,19.6,0,39.2,0,58.8c0,8.6-1.2,18.4-0.1,27C443.6,788.1,431.1,800.9,429.3,814.9z"/>
		<path d="M241.4,80.1c0-1-0.1-1.6-0.4-1.7c-0.2-0.2-1.1-0.2-2.4-0.2c-1.6,0-2.4,0.1-2.4,0.4s-0.7,0.4-2,0.6c-2,0.1-2.9,0.6-2.9,1.4
			c0,0.3,0.1,0.7,0.3,1.1c0.2,0.4,0.4,0.6,0.6,0.6c0.2,0,0.4,0.2,0.7,0.6c0.3,0.4,0.2,0.8-0.1,1.1c-0.4,0.4-0.4,0.5-0.3,0.5
			c0.1,0,0.1,0.2-0.3,0.7c-0.3,0.4-0.4,0.8-0.4,1.2c0,0.2-0.2,0.6-0.7,1.1c-0.5,0.5-0.7,0.9-0.7,1c0,0.3-0.3,0.4-0.9,0.4
			c-0.4,0-0.7,0-0.8-0.1c-0.1-0.1-0.2-0.4-0.3-0.8c-0.1-0.7-0.4-1.1-0.7-1.4c-0.4-0.2-0.6-0.6-0.6-1.1c0-0.5-0.1-0.8-0.4-1
			c-0.2-0.1-0.4-0.5-0.6-1.2c-0.1-0.7-0.2-1.2-0.2-1.5s0.1-0.5,0.2-0.5c0.1-0.1,0.4-0.1,0.7-0.2c0.5-0.1,0.8-0.1,1-0.2
			c0.2-0.1,0.3-0.3,0.3-0.6c0-0.2,0-0.5-0.1-0.6l-0.2-0.9l-2.4,0.2c-1.6,0.1-2.4,0.2-2.5,0.4c-0.1,0.2-0.4,0.3-0.8,0.3
			c-0.4,0-0.6-0.1-0.6-0.3c0-0.2-0.2-0.3-0.5-0.5c-0.4-0.2-0.7-0.2-1.1-0.2c-0.6,0-0.9,0.2-0.9,0.6c0,0.2-0.2,0.4-0.7,0.4
			c-0.2,0-0.4,0.1-0.4,0.2c0.2,0.1,0.4,0.3,0.4,0.6c0,0.4,0.1,0.5,0.4,0.5c0.2,0,0.4,0.1,0.6,0.4c0.1,0.3,0.5,0.5,1.1,0.6
			c0.7,0.1,1.1,0.4,1.3,0.8c0.2,0.4,0.4,0.6,0.7,0.6c0.2,0,0.3,0.3,0.3,0.8c0,0.6,0.1,0.8,0.4,0.8c0.3,0,0.4,0.2,0.4,0.5
			c0,0.4,0.2,0.7,0.6,0.9c0.2,0.2,0.4,0.4,0.3,0.6c0,0.2,0.1,0.4,0.3,0.5c0.3,0.1,0.6,0.4,0.7,0.9c0.3,0.6,0.5,0.8,0.6,0.8
			c0.1,0,0.2,0.2,0.2,0.5c0,0.3,0.2,0.5,0.6,0.7c0.3,0.1,0.4,0.3,0.4,0.6c0,0.1,0,0.3-0.1,0.5c-0.1,0.2-0.1,0.4-0.1,0.6
			c0,0.2-0.2,0.4-0.5,0.5c-0.4,0.1-0.6,0.4-0.7,1c-0.1,0.6-0.3,0.8-0.4,0.8c-0.2,0-0.6,0.3-1.1,0.9c-0.5,0.6-0.8,1.1-0.8,1.3
			c0,0.3-0.1,0.5-0.4,0.5c-0.3,0-0.4,0.1-0.4,0.4c0,0.2-0.2,0.5-0.7,0.7c-0.5,0.2-0.7,0.6-0.7,1.2c0,0.3,0,0.5-0.1,0.6
			c-0.1,0.1-0.2,0.2-0.4,0.2c-0.2,0-0.6,0.1-1.2,0.1c-0.9,0.1-1.5,0.2-1.8,0.4c-0.2,0.2-0.4,0.7-0.4,1.5c0,0.7,0.1,1,0.4,1
			c0.1,0,0.3-0.1,0.4-0.4c0.1-0.2,1.2-0.4,3.4-0.4c1.4,0,2.3,0,2.7,0.1c0.4,0.1,0.6,0.2,0.6,0.4c0,0.3,0.1,0.4,0.3,0.1
			c0.2-0.2,0.4-0.3,0.5-0.2c0,0,0.1,0.1,0.2,0.1c0.2,0,0.4-0.1,0.7-0.4c0.3-0.2,0.4-0.5,0.5-0.8s0.1-0.5-0.1-0.6
			c-0.1-0.1-0.4-0.2-0.9-0.2c-1.2-0.2-1.8-0.6-1.8-1.2c0-0.2,0.1-0.3,0.4-0.3c0.3,0,0.4-0.2,0.4-0.7c0-0.5,0.1-0.7,0.4-0.7
			c0.3,0,0.4-0.1,0.4-0.4c0-0.2,0.2-0.5,0.7-1c0.5-0.4,0.7-0.7,0.6-0.8v-0.3c0-0.5,0.1-1,0.4-1.5c0.3-0.5,0.6-0.7,0.9-0.7
			c0.1,0,0.2,0,0.2,0.1c0.3,0.1,0.5,0.3,0.5,0.6c0,0.2,0.3,0.6,0.8,1.3c0.5,0.7,0.8,1.1,0.8,1.2c0,0.2,0.1,0.3,0.4,0.4
			c0.2,0.1,0.4,0.4,0.5,0.9c0.1,0.3,0.2,0.5,0.3,0.7c0.2,0.1,0.4,0.2,0.8,0.3l0.9,0.3l-0.9,0.1c-0.6,0.1-0.9,0.3-0.9,0.6
			c0,0.8-0.5,1.2-1.4,1.2c-0.3,0-0.5,0-0.6,0.1c-0.1,0.1-0.2,0.3-0.2,0.6v0.7h3.6c2.4,0,3.6,0.1,3.7,0.4c0.1,0.3,0.3,0.3,0.6-0.1
			c0.3-0.3,0.8-0.4,1.5-0.3l1.1,0.2v-0.9c0-0.5-0.1-0.8-0.2-0.9c-0.1-0.2-0.4-0.3-0.9-0.5c-0.7-0.3-1.1-0.5-1.1-0.6
			c0-0.1-0.3-0.3-0.8-0.6c-0.5-0.3-0.8-0.5-0.8-0.7c0-0.4-0.1-0.7-0.4-1.2c-0.3-0.4-0.5-0.6-0.7-0.6c-0.1,0-0.3-0.3-0.5-0.8
			c-0.2-0.6-0.4-0.8-0.6-0.8c-0.2,0-0.4-0.2-0.5-0.5c-0.1-0.4-0.6-0.9-1.4-1.8c-0.8-0.8-1.3-1.3-1.5-1.3c-0.1,0-0.2-0.1-0.2-0.4
			c0-0.8,0.4-1.7,1.2-2.6c0.6-0.6,0.9-1.1,0.9-1.4c0-0.2,0.3-0.6,0.8-1.1c0.5-0.5,0.9-0.8,1.1-0.8c0.2,0,0.3-0.2,0.3-0.5
			c0-0.9,0.3-1.4,0.8-1.4c0.4,0,0.5-0.1,0.5-0.3c0-0.2,0.2-0.4,0.5-0.7c0.3-0.2,0.6-0.4,0.9-0.4c0.3,0,0.6-0.2,0.9-0.6L239,81
			l0.2,0.6c0.1,0.4,0.3,0.6,0.6,0.6c0.2,0,0.4-0.2,0.5-0.5c0.1-0.4,0.4-0.6,0.7-0.6c0.2,0,0.4-0.1,0.5-0.2
			C241.4,80.8,241.4,80.6,241.4,80.1z M225,81c0,0-0.1-0.1-0.1-0.3c0-0.1,0-0.2,0-0.3c0-0.1,0-0.1,0.1-0.1l0.1,0.2
			C225.2,80.8,225.1,81,225,81z M225.6,85.6c-0.1,0-0.1-0.1-0.1-0.2c0-0.1,0-0.1,0.1-0.1c0.1,0,0.2,0,0.2,0.1
			C225.8,85.5,225.7,85.6,225.6,85.6z M226.1,87.4l-0.1-0.3c0-0.1,0-0.2,0-0.3c0-0.1,0-0.1,0.1-0.1C226.3,87,226.2,87.2,226.1,87.4z
			 M229.3,93.6c-0.2,0-0.3-0.1-0.3-0.3c0-0.2,0.1-0.3,0.3-0.3c0.2,0,0.3,0.1,0.3,0.3C229.6,93.5,229.5,93.6,229.3,93.6z"/>
		<path d="M220.8,86.7c0-0.2,0-0.4-0.1-0.6c-0.1-0.4-0.3-0.4-0.6-0.1c-0.1,0.1,0,0.4,0.3,0.8l0.4,0.7L220.8,86.7z"/>
		<path d="M256,79.3c-0.3-0.2-1.4-0.3-3.4-0.3c-2,0-2.9,0.1-2.9,0.3c0,0.1-0.3,0.2-0.9,0.2c-0.6,0-0.9,0.1-0.9,0.4s-0.1,0.4-0.3,0.4
			c-0.2,0-0.3,0.2-0.3,0.6c0,0.5,0.1,0.8,0.4,0.9c0.3,0.1,0.4,0.9,0.4,2.5c0,1.6,0.1,2.4,0.3,2.5c0.2,0.1,0.3,0.8,0.3,2.2
			c0,1.3-0.1,2-0.3,2.1c-0.2,0.1-0.4,1.5-0.4,4.3c-0.1,2.4-0.2,3.9-0.4,4.3c-0.2,0.5-0.8,0.8-1.8,0.9c-0.6,0-0.9,0.1-1,0.2
			c-0.1,0.1-0.2,0.4-0.2,0.8c0,0.6,0.1,0.9,0.4,0.9c0.3,0,0.6,0.1,0.9,0.4c0.3,0.3,0.5,0.4,0.6,0.2c0.1-0.2,1.5-0.4,4-0.4
			c2.1,0,3.2,0.1,3.2,0.3c0,0.2,0.2,0.3,0.5,0.3c0.4,0,0.6-0.1,0.6-0.2c0-0.1,0.2-0.3,0.6-0.5c0.4-0.2,0.6-0.4,0.6-0.6
			c0-0.9-0.7-1.4-1.9-1.5l-1.3-0.1l0.1-6.7c0.1-4.5,0.2-6.8,0.3-7c0.1-0.1,0.2-0.8,0.3-1.9c0.1-2.1,0.3-3.2,0.7-3.2
			c0.2,0,0.4-0.1,0.4-0.3c0-0.2,0.2-0.3,0.7-0.3c0.4,0,0.8-0.1,1-0.3s0.4-0.5,0.4-0.7C256.5,79.8,256.3,79.5,256,79.3z M249.2,96.6
			c-0.3,0-0.4-0.1-0.4-0.3c0-0.2,0.1-0.3,0.4-0.3c0.2,0,0.4,0.1,0.4,0.3C249.6,96.5,249.5,96.6,249.2,96.6z M250.9,89.2
			c-0.3,0-0.4-0.2-0.4-0.5c0-0.4,0.1-0.6,0.4-0.6c0.3,0,0.4,0.2,0.4,0.6C251.3,89,251.2,89.2,250.9,89.2z"/>
		<path d="M268.5,103.2c0,0.2,0.2,0.3,0.5,0.3c0.4,0,0.6-0.1,0.6-0.2c0-0.1,0.2-0.3,0.6-0.5c0.4-0.2,0.6-0.4,0.6-0.6
			c0-0.9-0.7-1.4-1.9-1.5l-1.3-0.1l0.1-6.7c0.1-4.5,0.2-6.8,0.3-7c0.1-0.1,0.2-0.8,0.3-1.9c0.1-2.1,0.3-3.2,0.7-3.2
			c0.2,0,0.4-0.1,0.4-0.3c0-0.2,0.2-0.3,0.7-0.3c0.4,0,0.8-0.1,1-0.3s0.4-0.5,0.4-0.7c0-0.3-0.2-0.6-0.5-0.8
			c-0.3-0.2-1.4-0.3-3.4-0.3c-2,0-2.9,0.1-2.9,0.3c0,0.1-0.3,0.2-0.9,0.2c-0.6,0-0.9,0.1-0.9,0.4s-0.1,0.4-0.3,0.4
			c-0.2,0-0.3,0.2-0.3,0.6c0,0.5,0.1,0.8,0.4,0.9c0.3,0.1,0.4,0.9,0.4,2.5c0,1.6,0.1,2.4,0.3,2.5c0.2,0.1,0.3,0.8,0.3,2.2
			c0,1.3-0.1,2-0.3,2.1c-0.2,0.1-0.4,1.5-0.4,4.3c-0.1,2.4-0.2,3.9-0.4,4.3c-0.2,0.5-0.8,0.8-1.8,0.9c-0.6,0-0.9,0.1-1,0.2
			c-0.1,0.1-0.2,0.4-0.2,0.8c0,0.6,0.1,0.9,0.4,0.9c0.3,0,0.6,0.1,0.9,0.4c0.3,0.3,0.5,0.4,0.6,0.2c0.1-0.2,1.5-0.4,4-0.4
			C267.4,102.9,268.5,103,268.5,103.2z M265.9,88c0.3,0,0.4,0.2,0.4,0.6c0,0.4-0.1,0.5-0.4,0.5c-0.3,0-0.4-0.2-0.4-0.5
			C265.5,88.2,265.6,88,265.9,88z M264.2,96.6c-0.3,0-0.4-0.1-0.4-0.3c0-0.2,0.1-0.3,0.4-0.3c0.2,0,0.4,0.1,0.4,0.3
			C264.6,96.5,264.5,96.6,264.2,96.6z"/>
		<path d="M283.5,103.2c0,0.2,0.2,0.3,0.5,0.3c0.4,0,0.6-0.1,0.6-0.2c0-0.1,0.2-0.3,0.6-0.5c0.4-0.2,0.6-0.4,0.6-0.6
			c0-0.9-0.7-1.4-1.9-1.5l-1.3-0.1l0.1-6.7c0.1-4.5,0.2-6.8,0.3-7c0.1-0.1,0.2-0.8,0.3-1.9c0.1-2.1,0.3-3.2,0.7-3.2
			c0.2,0,0.4-0.1,0.4-0.3c0-0.2,0.2-0.3,0.7-0.3c0.4,0,0.8-0.1,1-0.3s0.4-0.5,0.4-0.7c0-0.3-0.2-0.6-0.5-0.8
			c-0.3-0.2-1.4-0.3-3.4-0.3c-2,0-2.9,0.1-2.9,0.3c0,0.1-0.3,0.2-0.9,0.2c-0.6,0-0.9,0.1-0.9,0.4s-0.1,0.4-0.3,0.4
			c-0.2,0-0.3,0.2-0.3,0.6c0,0.5,0.1,0.8,0.4,0.9c0.3,0.1,0.4,0.9,0.4,2.5c0,1.6,0.1,2.4,0.3,2.5c0.2,0.1,0.3,0.8,0.3,2.2
			c0,1.3-0.1,2-0.3,2.1c-0.2,0.1-0.4,1.5-0.4,4.3c-0.1,2.4-0.2,3.9-0.4,4.3c-0.2,0.5-0.8,0.8-1.8,0.9c-0.6,0-0.9,0.1-1,0.2
			c-0.1,0.1-0.2,0.4-0.2,0.8c0,0.6,0.1,0.9,0.4,0.9c0.3,0,0.6,0.1,0.9,0.4c0.3,0.3,0.5,0.4,0.6,0.2c0.1-0.2,1.5-0.4,4-0.4
			C282.4,102.9,283.5,103,283.5,103.2z M279.2,96.6c-0.3,0-0.4-0.1-0.4-0.3c0-0.2,0.1-0.3,0.4-0.3c0.2,0,0.4,0.1,0.4,0.3
			C279.6,96.5,279.5,96.6,279.2,96.6z M280.9,89.2c-0.3,0-0.4-0.2-0.4-0.5c0-0.4,0.1-0.6,0.4-0.6c0.3,0,0.4,0.2,0.4,0.6
			C281.3,89,281.2,89.2,280.9,89.2z"/>
		<path d="M216.2,785.5c0-0.2-0.1-0.3-0.2-0.5c-0.2-0.2-0.3-0.3-0.4-0.3c-0.1,0-0.2-0.1-0.2-0.2c0-0.1-0.1-0.3-0.3-0.6
			c-0.2-0.2-0.3-0.3-0.4-0.3c-0.1,0-0.2-0.1-0.2-0.2c0-0.1-0.1-0.2-0.3-0.3c-0.2-0.1-0.3-0.1-0.3-0.2c0-0.1-0.1-0.1-0.4-0.1
			c-0.2,0-0.3-0.1-0.6-0.2c-0.2-0.1-0.4-0.2-0.5-0.2c-0.2,0-0.3,0-0.3-0.1c0-0.1-0.1-0.1-0.4-0.1c-0.2,0-0.3,0-0.4-0.1
			c-0.1-0.1-0.2-0.1-0.2-0.1c-0.1,0-0.2,0-0.4,0.1c-0.3,0.1-0.6,0.2-1,0.2c-0.2,0-0.4,0-0.4-0.1c-0.1,0-0.1-0.1-0.1-0.2
			c0-0.2-0.1-0.3-0.2-0.3c-0.1,0-0.2,0-0.3,0.2c-0.1,0.1-0.1,0.1-0.2,0c-0.2-0.3-0.3-0.2-0.4,0.1c-0.1,0.2-0.2,0.3-0.4,0.2
			c-0.2-0.1-0.5-0.2-1-0.2c-0.4,0-0.7-0.1-0.8-0.2c0-0.1-0.1-0.1-0.3,0.1s-0.3,0.1-0.3,0c-0.1-0.1-0.2-0.2-0.5-0.2
			c-0.2,0-0.4,0-0.4,0.1c0,0.1-0.1,0.1-0.3,0.1c-0.1,0-0.2,0-0.2,0.1c0,0.1-0.1,0.3-0.1,0.5s0,0.5,0.1,0.6c0,0.1,0.2,0.2,0.3,0.3
			c0.2,0.1,0.3,0.1,0.4,0.1c0,0,0.1,0,0.1,0c0.1,0,0.1,0,0.1,0c0.1,0,0.2,0,0.3,0.1c0.2,0.1,0.4,0.4,0.4,0.8c0,0.4,0,0.6-0.1,0.6
			c-0.1,0-0.1,0.3-0.1,0.9c0,0.6,0,0.8,0.1,0.8c0.1,0,0.1,0.1,0.1,0.4c0,0.2,0,0.4-0.1,0.5c-0.1,0.1-0.1,1-0.2,2.8l-0.1,2.7l-0.5,0
			c-0.4,0-0.6,0.2-0.8,0.4c-0.2,0.2-0.3,0.4-0.3,0.5c0,0.1,0.1,0.2,0.4,0.4c0.3,0.2,0.5,0.2,0.7,0.2c0.1,0,0.2,0,0.2-0.1
			c0-0.1,0.3-0.1,0.8-0.1s0.8,0,0.8,0.1c0,0.1,0.9,0.2,2.6,0.2c1.1,0,1.7,0,1.8-0.1c0.1-0.1,0.4-0.2,0.7-0.2
			c0.4-0.1,0.8-0.2,1.3-0.5c0.5-0.2,0.8-0.4,1-0.4c0.2,0,0.3-0.1,0.4-0.4c0.1-0.3,0.3-0.6,0.7-1.1c0.4-0.4,0.6-0.7,0.6-0.8
			s0-0.2,0.1-0.2c0.1,0,0.1-0.1,0.1-0.3c0-0.2,0.1-0.4,0.2-0.5c0.1-0.1,0.1-0.8,0.1-2c0-1.4-0.1-2.1-0.2-2.2
			C216.3,785.8,216.2,785.7,216.2,785.5z M214.1,789.7c-0.1,0.1-0.2,0.2-0.2,0.5c0,0.3-0.1,0.5-0.2,0.6c-0.3,0.3-0.5,0.6-0.6,1
			c-0.1,0.2-0.1,0.2-0.2,0.2s-0.3,0.2-0.7,0.5c-0.4,0.3-0.7,0.5-0.9,0.5c-0.2,0-0.3,0.1-0.4,0.2c-0.1,0.1-0.1,0.1-0.2,0
			c-0.1-0.1-0.1-0.2-0.3-0.2c-0.1,0-0.2,0.1-0.3,0.2c0,0.1-0.3,0.1-0.9,0.1c-0.6,0-1.1,0-1.6,0c-0.2,0-0.2-0.1-0.2-0.4
			c0-0.2-0.1-0.4-0.2-0.4s-0.2,0-0.2-0.1c0-0.1,0.1-0.1,0.2-0.2c0.1-0.1,0.2-0.2,0.2-0.3c0-0.1,0.1-0.2,0.2-0.2
			c0.1,0,0.1-0.1,0.2-0.4c0.1-0.2,0.1-0.5,0.1-0.8c0-0.1,0-0.3-0.1-0.5c0,0,0,0,0-0.1c0,0,0-0.1,0-0.1c0-0.2,0.1-0.4,0.2-0.6
			l0.2-0.4c0,0-0.1-0.1-0.2-0.1c-0.1,0-0.2-0.3-0.2-0.8c0-0.5,0-1,0-1.5c0-1.4,0.1-2.2,0.1-2.4c0-0.3,0.1-0.5,0.4-0.8
			c0.2-0.2,0.4-0.3,0.6-0.3c0.1,0,0.2,0,0.3,0c0.1,0,0.3,0,0.7,0.1c0.4,0,0.7,0.1,1,0.1c0.3,0.1,0.4,0.1,0.5,0.2
			c0.1,0.1,0.2,0.2,0.4,0.2c0.2,0,0.4,0.1,0.4,0.3c0.1,0.2,0.2,0.3,0.3,0.3c0.2,0,0.2,0,0.2,0.1s0.1,0.2,0.3,0.2
			c0.2,0.1,0.3,0.2,0.3,0.3c0,0.1,0.1,0.3,0.2,0.4c0.1,0.1,0.2,0.4,0.3,0.9c0,0.4,0.1,0.7,0.2,0.8c0.1,0.1,0.1,0.5,0.1,1.3
			S214.2,789.7,214.1,789.7z"/>
		<path d="M223.6,792c0.1-0.2,0.1-0.3,0-0.3c-0.1,0-0.2,0.1-0.2,0.2c0,0.1,0,0.2,0.1,0.2C223.6,792.1,223.6,792.1,223.6,792z"/>
		<path d="M233.7,790.2c-0.1,0-0.3,0.2-0.5,0.5c-0.3,0.3-0.4,0.6-0.4,0.7c0,0.1-0.1,0.2-0.4,0.2c-0.1,0-0.2,0-0.3,0.1
			c0,0-0.1,0.1-0.1,0.1c0,0,0,0.1,0,0.3c0,0.2-0.1,0.3-0.4,0.3c0,0-0.1,0-0.1,0c-0.1,0-0.1,0-0.2,0c-0.2,0-0.4,0.1-0.6,0.3
			c-0.2,0.2-0.4,0.3-0.6,0.3c-0.1,0-0.2-0.1-0.2-0.2c0-0.1-0.1-0.1-0.4,0c-0.2,0.1-0.6,0.2-1.2,0.2c-0.5,0-0.7,0-0.7-0.1
			c0-0.1-0.1-0.1-0.2-0.1c-0.1,0-0.1-0.1-0.2-0.2c-0.1-0.2-0.1-0.3-0.1-0.4c0-0.1,0-0.2,0-0.3c0-0.2,0-0.4,0-0.6c0-0.3,0-0.5,0-0.8
			c0-0.3,0-0.5,0-0.8c0-0.3,0-0.5,0-0.6v-0.2c0-0.1,0.4-0.1,1.3-0.1c0.7,0,1.2,0.1,1.4,0.2c0.2,0.1,0.4,0.4,0.4,0.8
			c0,0.2,0,0.3,0.1,0.3c0,0,0.1,0,0.2,0c0.1-0.1,0.3-0.1,0.5-0.1c0.1,0,0.2,0,0.3-0.1c0-0.1,0.1-0.2,0.1-0.5c0-0.1,0-0.2,0-0.3
			c0-0.2,0-0.3,0-0.4v-0.2c0-0.3,0-0.6,0.1-0.7c0.1-0.1,0.1-0.3,0-0.4c-0.1-0.1-0.1-0.3,0.1-0.4c0.1-0.1,0.2-0.2,0.2-0.4
			c0-0.3-0.3-0.4-1-0.4c-0.4,0-0.6,0.2-0.6,0.5c0,0.1,0,0.2,0.1,0.3c0,0.2,0,0.4,0,0.5c-0.1,0.1-0.3,0.2-0.9,0.3
			c-0.5,0.1-1,0.1-1.5,0.1h-0.6v-0.6c0-0.4,0.1-0.6,0.2-0.6c0.1,0,0.2-0.1,0.2-0.4c0-0.3-0.1-0.5-0.2-0.9c-0.1-0.2-0.2-0.4-0.1-0.4
			c0-0.1,0.1-0.1,0.2-0.3c0.2-0.1,0.3-0.3,0.2-0.5c0,0,0-0.1,0-0.2c0-0.1,0.1-0.3,0.4-0.3c0.3-0.1,0.7-0.1,1.5-0.2
			c0.7,0,1.1-0.1,1.1-0.1c0.3,0,0.5,0.1,0.6,0.2c0.1,0.2,0.3,0.3,0.5,0.4c0.2,0.1,0.3,0.2,0.3,0.3c0,0.1,0.1,0.2,0.3,0.3
			c0.2,0.1,0.3,0.2,0.3,0.3c0,0.2,0.1,0.3,0.3,0.5c0.2,0.2,0.4,0.2,0.6,0.2h0c0.3,0,0.4-0.2,0.4-0.6c0-0.2-0.1-0.3-0.2-0.5
			c-0.1-0.1-0.2-0.3-0.2-0.5c0-0.3-0.1-0.5-0.2-0.5c-0.1,0-0.1-0.1,0-0.4c0.1-0.1,0.1-0.2,0.1-0.3c0,0-0.1-0.1-0.1-0.1
			c-0.1-0.1-0.2-0.2-0.2-0.3s-0.1-0.3-0.3-0.5c-0.2-0.2-0.4-0.3-0.6-0.1c-0.3,0.1-1.8,0.3-4.7,0.4h-0.7c-1.5,0-2.2-0.1-2.3-0.3
			c0-0.1-0.1-0.1-0.2-0.1c-0.1,0-0.2,0-0.2,0.1l0,0.1c0,0.1,0,0.1,0,0.1c0,0,0,0.1,0,0.2c0,0.1,0,0.2,0,0.2c0,0.2-0.1,0.3-0.3,0.3
			c-0.2,0.1-0.3,0.2-0.2,0.5c0.1,0.2,0.1,0.4,0.2,0.5c0.1,0.1,0.2,0.1,0.3,0.1c0.1,0,0.3,0,0.4,0c0.1,0,0.2,0,0.4,0
			c0.3,0,0.5,0.1,0.6,0.4c0.1,0.2,0.1,0.7,0.1,1.4c0,0.9-0.1,1.4-0.2,1.4c-0.1,0-0.1,0.2,0,0.4c0.1,0.2,0.1,0.4,0,0.6
			c-0.1,0.2-0.2,0.3-0.3,0.3c-0.1,0-0.1,0.1,0.1,0.2c0.1,0.1,0.1,0.3,0.1,0.6c0,0.5-0.1,1.5-0.2,2.8l-0.1,0.9h-0.6
			c-0.4,0-0.6,0.1-0.6,0.3c0,0.2-0.1,0.3-0.3,0.3c-0.1,0-0.2,0.1-0.2,0.3c0,0.3,0.1,0.5,0.3,0.6c0.2,0.1,0.3,0.2,0.3,0.4
			c0,0.1,0.2,0.1,0.7,0.1c0.5,0,0.8-0.1,0.9-0.3c0.1-0.1,0.5-0.2,1.2-0.2c0.5,0,0.9,0,1.3,0c0.7,0,1.1,0.1,1.2,0.2
			c0,0.1,0.2,0.1,0.4,0c0.2-0.1,0.7-0.2,1.5-0.2c0.8,0,1.3,0,1.5-0.1c0.2,0,0.3-0.1,0.5-0.3c0.2-0.2,0.3-0.3,0.2-0.5
			c0-0.2,0-0.3,0.1-0.4c0.1-0.1,0.2-0.3,0.2-0.8c0-0.3,0-0.5,0-0.6c0-0.1,0.1-0.1,0.2-0.1c0.2,0,0.3-0.2,0.3-0.5
			c0-0.2-0.1-0.4-0.2-0.6C234,790.3,233.8,790.2,233.7,790.2z"/>
		<path d="M254.7,792.9c-0.1,0-0.1-0.1-0.2-0.4c-0.1-0.2-0.1-0.3-0.2-0.3c0,0-0.3,0.1-0.8,0.2c0,0-0.1,0-0.2,0c-0.4,0-0.7-0.6-1-1.7
			c-0.2-0.8-0.4-1.3-0.4-1.4c-0.1-0.1-0.2-0.3-0.2-0.5c-0.1-0.4-0.3-1.3-0.8-2.8c-0.5-1.5-0.7-2.4-0.8-2.7c-0.2-1-0.4-1.5-0.5-1.7
			c-0.1-0.2-0.2-0.3-0.4-0.3c-0.3-0.1-0.4,0-0.5,0.1c-0.1,0.1-0.2,0.2-0.4,0.2c-0.2,0-0.4,0.1-0.4,0.2c0,0.1-0.1,0.1-0.2,0.1
			c-0.1,0-0.2,0.2-0.4,0.6c-0.2,0.4-0.3,0.8-0.5,1.2c-0.1,0.4-0.2,0.6-0.3,0.7c-0.1,0.1-0.1,0.2-0.1,0.4c0,0.2-0.1,0.6-0.4,1.2
			c-0.3,0.6-0.5,1.1-0.5,1.5c-0.1,0.4-0.2,0.6-0.2,0.7c-0.1,0.1-0.2,0.3-0.4,0.8c-0.2,0.5-0.3,0.7-0.3,0.8c-0.1,0.2-0.2,0.4-0.2,0.5
			c0,0.2,0,0.2-0.1,0.2s-0.2,0.1-0.3,0.4c-0.1,0.2-0.2,0.4-0.2,0.6c0,0.1-0.2,0.3-0.5,0.6c-0.3,0.3-0.5,0.4-0.7,0.4
			c-0.2,0-0.3,0.1-0.5,0.4c-0.2,0.2-0.4,0.4-0.5,0.4c-0.1,0-0.2,0.1-0.4,0.4c-0.1,0.2-0.1,0.3-0.1,0.4c0,0.1,0.1,0.3,0.4,0.5
			l0.5,0.4l2-0.1c1.1,0,1.8-0.1,2.1-0.1s0.5-0.1,0.5-0.2c0,0,0-0.1-0.1-0.2c-0.1-0.2-0.1-0.3,0.1-0.3c0.1,0,0.2-0.1,0.2-0.2
			c0-0.1-0.1-0.2-0.2-0.2s-0.3-0.1-0.4-0.2s-0.4-0.2-0.7-0.3c-0.5-0.1-0.7-0.3-0.7-0.5c0-0.1,0-0.2,0.1-0.3c0.1-0.2,0.2-0.3,0.2-0.5
			c0-0.1,0-0.2,0.1-0.2c0.1,0,0.1-0.2,0.1-0.7v-0.7h0.6c0.4,0,0.7-0.1,0.7-0.2c0.1-0.2,0.6-0.2,1.5-0.2h0.4c0.7,0,1,0,1.1,0.1
			c0.1,0.1,0.2,0.4,0.2,0.8c0,0.5,0.1,0.8,0.3,0.9c0.2,0.2,0.3,0.4,0.3,0.6c0,0,0,0,0,0.1c0,0,0,0.1,0,0.1c0,0.3-0.1,0.4-0.1,0.5
			c-0.1,0.1-0.3,0.1-0.6,0.2c-0.5,0.1-0.7,0.2-0.8,0.3c0,0.1-0.1,0.1-0.3,0.1c-0.2,0-0.3,0.1-0.3,0.3c0,0.3,0,0.4,0.1,0.5
			c0.1,0.1,0.3,0.1,0.6,0.1c0.3,0,0.7,0,1.3-0.1c0.6-0.1,1.3-0.1,2-0.1c0.4,0,0.7,0,0.8,0c0.2,0,0.4,0,0.6,0c0.3,0,0.5-0.1,0.5-0.3
			c0.1-0.2,0.1-0.3,0.2-0.3c0.1,0,0.1-0.2,0.1-0.5C254.9,793.1,254.8,792.9,254.7,792.9z M248.6,788.4c0,0-0.1,0-0.2,0s-0.1,0-0.1,0
			c-0.3,0-0.5,0.1-0.6,0.2c-0.1,0.1-0.3,0.2-0.4,0.2c-0.2,0-0.3-0.1-0.4-0.2c-0.1-0.1-0.2-0.2-0.3-0.2c-0.1,0-0.2-0.1-0.2-0.2
			c0-0.1,0-0.2,0.1-0.2s0.2-0.1,0.3-0.4c0.1-0.3,0.2-0.5,0.2-0.7c0-0.2,0.1-0.3,0.2-0.4c0.1,0,0.2-0.3,0.2-0.8
			c0.1-0.6,0.3-0.9,0.6-0.9c0.2,0,0.3,0.1,0.5,0.2c0.1,0.1,0.2,0.2,0.4,0.5c0.1,0.3,0.2,0.4,0.2,0.5c0,0-0.1,0.1-0.3,0.1
			c-0.2,0-0.3,0.1-0.4,0.2c-0.1,0.1,0,0.2,0.1,0.2c0.1,0,0.2,0.1,0.2,0.2c0.1,0.1,0.2,0.3,0.2,0.4c0.1,0.2,0.1,0.2,0.2,0.3
			c0.1,0.1,0.1,0.3,0.2,0.6l0.1,0.5L248.6,788.4z"/>
		<path d="M273.6,785.3c0.1,0,0.2-0.2,0.2-0.5c0-0.2,0-0.4-0.1-0.4c-0.1,0-0.1-0.1-0.1-0.3c0-0.2,0.1-0.4,0.2-0.6
			c0.1-0.3,0.1-0.5-0.2-0.6c-0.2-0.2-0.5-0.3-0.9-0.3c-0.5,0-0.8,0.1-1.1,0.4c-0.3,0.2-0.4,0.3-0.5,0.2c-0.1-0.1-0.4-0.1-0.8,0
			c-0.5,0.1-1.4,0.2-2.6,0.2c-0.9,0-1.4,0-1.5-0.1c-0.1-0.1-0.2,0-0.4,0.2c-0.1,0.1-0.3,0.2-0.4,0.2c-0.2,0-0.4,0-0.7-0.1
			c-0.7-0.2-1.1-0.2-1.3-0.2c-0.1,0-0.2,0-0.2,0c-0.1,0-0.3,0.1-0.4,0.3c-0.1,0.2-0.2,0.4-0.2,0.5c0,0.1,0,0.1,0.1,0.2
			c0,0,0.1,0.2,0.1,0.5c0,0.1,0,0.2-0.1,0.3c-0.1,0-0.2,0.1-0.3,0.1c-0.3,0-0.5,0.1-0.5,0.3c0,0,0,0.1,0.1,0.2
			c0.1,0.1,0.1,0.3,0.1,0.6c0,0.3-0.1,0.4-0.1,0.5c0,0.5,0.2,0.8,0.6,0.8c0.3,0,0.4-0.1,0.4-0.2c0-0.1,0.1-0.2,0.2-0.2
			c0.1,0,0.1,0,0.2-0.1c0,0,0-0.1,0-0.2c0-0.1-0.1-0.2-0.2-0.2c-0.1-0.1-0.1-0.1-0.1-0.2c0,0,0-0.1,0-0.1c0,0,0-0.1,0.1-0.1
			c0,0,0.1,0,0.2-0.1c0.2-0.1,0.2-0.2,0.2-0.3c0,0,0-0.1,0-0.2c0-0.1,0-0.1,0-0.2c0-0.1,0-0.2,0.1-0.2c0.1-0.1,0.1-0.3,0-0.6
			c-0.1-0.3-0.1-0.4,0-0.4c0.1,0,0.1,0.1,0.1,0.2c0,0.1,0.2,0.2,0.5,0.4c0.4,0.1,0.7,0.2,1.1,0.2c0.4,0,0.7,0.1,0.8,0.3
			c0.2,0.2,0.3,0.2,0.5,0.2c0.1,0,0.1,0,0.1,0c0.1,0,0.1,0,0,0.1c-0.3,0.3-0.4,2.2-0.5,5.8c0,0.8-0.1,1.2-0.3,1.4
			c-0.2,0.1-0.3,0.3-0.3,0.4c0,0.1-0.3,0.2-0.8,0.2l-0.7,0.1l-0.1,0.5c0,0,0,0.1,0,0.1c0,0,0,0.1,0,0.1c0,0.2,0.1,0.4,0.4,0.7
			c0.3,0.3,0.5,0.4,0.7,0.4c0.1,0,0.1,0,0.1-0.1c0-0.1,0-0.1-0.1-0.1c-0.1,0-0.1,0-0.1-0.1c0-0.1,0.2-0.1,0.5-0.1c0.1,0,0.4,0,0.8,0
			c0.4,0,0.7,0,0.9,0c0.6,0,0.9-0.1,1.1-0.2c0.1-0.1,0.3-0.2,0.6-0.1c0.2,0.1,0.3,0,0.4-0.1c0.1-0.1,0.2-0.1,0.3-0.1
			c0.1,0,0.3-0.1,0.5-0.2c0.1-0.1,0.2-0.2,0.2-0.3c0-0.1-0.1-0.2-0.2-0.5c-0.2-0.3-0.3-0.4-0.5-0.4c-0.1,0-0.2-0.1-0.2-0.2
			c0-0.1-0.1-0.2-0.3-0.1c0,0-0.1,0-0.1,0c-0.1,0-0.1,0-0.1,0c-0.1,0-0.2,0-0.3-0.1c0-0.1-0.1-0.3-0.1-0.5v-0.4c0-0.5,0-0.8,0-0.9
			c0-0.1,0.1-0.2,0.2-0.2c0.2,0,0.2-0.1,0.2-0.4c0-0.3-0.1-0.5-0.2-0.5c-0.1,0-0.2-0.4-0.2-1.1c0-0.8,0.1-1.2,0.2-1.4
			c0.1-0.1,0.2-0.5,0.2-1.2c0-0.7,0.1-1,0.1-1.1c0.1-0.2,0.5-0.2,1.2-0.2c1,0,1.5,0.1,1.6,0.4c0,0.1,0.1,0.2,0.4,0.5
			c0.2,0.2,0.3,0.4,0.3,0.8c0,0.3,0.1,0.5,0.1,0.5c0,0.1,0.2,0.1,0.4,0.1c0.2,0,0.4,0,0.4-0.1c0-0.1,0.1-0.2,0.3-0.2
			c0.2-0.1,0.3-0.2,0.3-0.4c0-0.2-0.1-0.4-0.2-0.5C273.5,785.4,273.5,785.3,273.6,785.3z"/>
		<path d="M294.3,782.6c-0.2-0.1-0.5-0.1-0.8-0.1c-0.1,0-0.2,0-0.5,0.1c-0.3,0.1-0.5,0.1-0.7,0.1h-0.1H292c-0.2,0-0.5,0-1,0.1
			c-0.4,0-0.7,0.1-0.8,0.1c-0.1,0-0.2,0.1-0.2,0.2c0,0.2,0,0.3-0.1,0.3c-0.1,0-0.1,0-0.1,0.1c0,0.1,0,0.2,0,0.3
			c0,0.1,0.1,0.2,0.2,0.2c0.1,0.1,0.2,0.5,0.2,1.3c0,0.8,0.1,1.2,0.2,1.2c0.1,0,0.1,0.3,0.1,0.8v0.8h-1.3c-0.8,0-1.7,0-2.7-0.1
			l-1.4-0.1v-0.7c0-0.4,0-0.7,0.1-0.7c0.1,0,0.1-0.3,0.2-0.9c0-1.1,0.1-1.6,0.4-1.6c0.1,0,0.2,0,0.2-0.1c0-0.1,0.1-0.2,0.4-0.2
			c0.2,0,0.4-0.1,0.5-0.2c0.1-0.1,0.2-0.2,0.2-0.4c0-0.2-0.1-0.3-0.2-0.4c-0.2-0.1-0.5-0.2-1-0.2c-0.3,0-0.4,0-0.5,0.1
			c0,0-0.5,0.1-1.3,0.1c-0.9,0.1-1.7,0.2-2.4,0.5c-0.1,0-0.2,0.1-0.2,0.2c0,0.1,0.2,0.2,0.6,0.4l0.6,0.3l0,0.8v0.9v0.3
			c0,0.2,0,0.4,0.1,0.4c0.1,0.1,0.2,0.5,0.2,1.1c0,0.6-0.1,1.1-0.2,1.4c-0.1,0.3-0.2,0.6-0.2,0.8c0,0,0,0,0,0.1c0,0,0,0.1,0,0.1
			c0,0.2,0.1,0.4,0.1,0.6c0,0.5,0,1.1-0.1,1.8c-0.1,0.6-0.2,1-0.2,1.2c-0.1,0.2-0.4,0.3-0.8,0.3c-0.3,0-0.5,0.1-0.6,0.1
			c-0.1,0.1-0.1,0.2-0.1,0.4v0.5l0.7-0.1c0.3-0.1,1-0.1,2.2-0.1h0.7h0.7c1,0,1.6,0,1.6-0.1c0-0.1-0.1-0.3-0.2-0.5
			c-0.2-0.2-0.3-0.3-0.4-0.3h-0.1c-0.2,0.1-0.4,0.1-0.6-0.1c-0.1-0.1-0.2-0.1-0.3-0.2c0-0.1-0.1-0.2-0.1-0.4c0-0.3,0-0.5,0-0.8
			c0-0.9,0.1-1.6,0.1-2.1v-0.8h4.9l0.1,0.4c0,0.2,0.1,0.5,0.1,0.7c0,0.5,0,1.1-0.1,1.7c-0.1,0.6-0.2,1-0.3,1
			c-0.1,0.1-0.4,0.2-0.8,0.3c-0.3,0-0.5,0.1-0.5,0.1c-0.1,0.1-0.1,0.2-0.1,0.4c0,0.3,0.1,0.5,0.3,0.5c0.3,0.1,1.3,0.1,3.1,0.1
			c1.3,0,2,0,2.1-0.1c0.2-0.1,0.3-0.2,0.3-0.4c0-0.2-0.1-0.3-0.2-0.5c-0.1-0.2-0.3-0.2-0.4-0.2c0,0-0.1,0-0.1,0
			c-0.1,0.1-0.3,0.1-0.5,0l-0.4-0.1l0.1-3.5c0-2.3,0.1-3.5,0.2-3.6c0.1,0,0.1-0.3,0.1-0.9c0.1-1.1,0.2-1.6,0.4-1.6
			c0.1,0,0.2,0,0.2-0.1c0-0.1,0.1-0.2,0.4-0.2c0.2,0,0.4-0.1,0.5-0.2c0.2-0.1,0.2-0.3,0.2-0.4C294.6,782.8,294.5,782.7,294.3,782.6z
			 M283.4,791.5c-0.2-0.1-0.3-0.1-0.3-0.2c0-0.1,0-0.1,0.1-0.1c0.2,0,0.3,0.1,0.4,0.2c0,0,0,0,0,0.1
			C283.6,791.6,283.6,791.6,283.4,791.5z M284.1,791.5c-0.1,0-0.1-0.1-0.1-0.2c0-0.1,0-0.2,0.1-0.2c0.1,0,0.2,0.1,0.2,0.2
			C284.3,791.4,284.2,791.5,284.1,791.5z M284.1,787.8c-0.1,0-0.2-0.1-0.2-0.3c0-0.3,0.1-0.4,0.2-0.4c0.2,0,0.2,0.1,0.2,0.3
			C284.3,787.7,284.2,787.8,284.1,787.8z M291.2,791.5c-0.1,0.1-0.2,0.1-0.4,0c-0.2-0.1-0.3-0.1-0.3-0.2c0-0.1,0.1-0.1,0.2-0.1
			c0.3,0,0.5,0.1,0.5,0.2C291.3,791.5,291.3,791.5,291.2,791.5z M291.6,791.5c-0.1,0-0.2-0.1-0.2-0.2c0-0.1,0.1-0.2,0.2-0.2
			c0.1,0,0.1,0.1,0.1,0.2C291.8,791.4,291.7,791.5,291.6,791.5z M291.6,787.8c-0.1,0-0.2-0.1-0.2-0.3c0-0.3,0.1-0.4,0.2-0.4
			c0.1,0,0.2,0.1,0.2,0.3C291.8,787.7,291.7,787.8,291.6,787.8z"/>
	</g>
	<g>
		<g>
			<path class="st0" d="M64.6,362c0,0,30.4,0.4,37.3-7.2c7.6-8.4,7.2-40,7.2-40s-0.4,31.6,7.2,40c6.9,7.6,37.3,7.2,37.3,7.2
				s-30.4-0.4-37.3,7.2c-7.6,8.4-7.2,40-7.2,40s0.4-31.6-7.2-40C95,361.5,64.6,362,64.6,362z"/>
		</g>
		<g>
			<path class="st0" d="M120.7,409.9c0,0,10.6,0.2,13-2.5c2.6-2.9,2.5-13.9,2.5-13.9s-0.1,11,2.5,13.9c2.4,2.7,13,2.5,13,2.5
				s-10.6-0.2-13,2.5c-2.6,2.9-2.5,13.9-2.5,13.9s0.1-11-2.5-13.9C131.3,409.7,120.7,409.9,120.7,409.9z"/>
		</g>
		<g>
			<path class="st0" d="M349.7,267.8c0,0,23.2,0.4,28.5-5.8c5.8-6.8,5.5-32.2,5.5-32.2s-0.3,25.4,5.5,32.2
				c5.3,6.1,28.5,5.8,28.5,5.8s-23.2-0.4-28.5,5.8c-5.8,6.8-5.5,32.2-5.5,32.2s0.3-25.4-5.5-32.2C373,267.5,349.7,267.8,349.7,267.8
				z"/>
		</g>
		<g>
			<path class="st0" d="M377.4,601.8c0,0,23.2,0.4,28.5-5.8c5.8-6.8,5.5-32.2,5.5-32.2s-0.3,25.4,5.5,32.2
				c5.3,6.1,28.5,5.8,28.5,5.8s-23.2-0.4-28.5,5.8c-5.8,6.8-5.5,32.2-5.5,32.2s0.3-25.4-5.5-32.2
				C400.7,601.4,377.4,601.8,377.4,601.8z"/>
		</g>
		<g>
			<path class="st0" d="M354.5,370.3c0,0,6.8,0.1,8.4-1.6c1.7-1.9,1.6-9,1.6-9s-0.1,7.1,1.6,9c1.6,1.7,8.4,1.6,8.4,1.6
				s-6.8-0.1-8.4,1.6c-1.7,1.9-1.6,9-1.6,9s0.1-7.1-1.6-9C361.4,370.2,354.5,370.3,354.5,370.3z"/>
		</g>
		<g>
			<path class="st0" d="M339.7,607.2c0,0,6.8,0.1,8.4-1.6c1.7-1.9,1.6-9,1.6-9s-0.1,7.1,1.6,9c1.6,1.7,8.4,1.6,8.4,1.6
				s-6.8-0.1-8.4,1.6c-1.7,1.9-1.6,9-1.6,9s0.1-7.1-1.6-9C346.6,607.1,339.7,607.2,339.7,607.2z"/>
		</g>
		<g>
			<path class="st0" d="M378.4,411.9c0,0,14.4,0.2,17.7-3.4c3.6-4,3.4-19,3.4-19s-0.2,15,3.4,19c3.3,3.6,17.7,3.4,17.7,3.4
				s-14.4-0.2-17.7,3.4c-3.6,4-3.4,19-3.4,19s0.2-15-3.4-19C392.8,411.7,378.4,411.9,378.4,411.9z"/>
		</g>
		<g>
			<path class="st0" d="M129.6,636.1c0,0,12,0.2,14.7-2.8c3-3.3,2.8-15.8,2.8-15.8s-0.2,12.5,2.8,15.8c2.7,3,14.7,2.8,14.7,2.8
				s-12-0.2-14.7,2.8c-3,3.3-2.8,15.8-2.8,15.8s0.2-12.5-2.8-15.8C141.7,635.9,129.6,636.1,129.6,636.1z"/>
		</g>
		<g>
			<path class="st0" d="M344.6,665.4c0,0,12,0.2,14.7-2.8c3-3.3,2.8-15.8,2.8-15.8s-0.2,12.5,2.8,15.8c2.7,3,14.7,2.8,14.7,2.8
				s-12-0.2-14.7,2.8c-3,3.3-2.8,15.8-2.8,15.8s0.2-12.5-2.8-15.8C356.6,665.2,344.6,665.4,344.6,665.4z"/>
		</g>
		<g>
			<g>
				<g>
					<path d="M221.7,447.3c9.6,12.8-1.4,35.5-18,33.3c0.4,1,0.8,1.9,1.2,2.9c11.6-9.6,20.7-21.2,19.9-37.1c-0.1-2.2-3.5-2.2-3.4,0
						c0.7,14.9-8.2,25.7-18.9,34.7c-1.3,1.1-0.1,2.7,1.2,2.9c7.5,1,15.7-3.7,20.1-9.5c5.5-7.3,6.6-21.3,0.8-29
						C223.3,443.9,220.4,445.6,221.7,447.3L221.7,447.3z"/>
				</g>
			</g>
			<g>
				<g>
					<path d="M159.1,534.9c-4,1.4-9.7-0.1-13.6-1c-7.3-1.7-14.7-4.7-19.8-10.3c-9.2-10-12.6-28.3-5.6-40.5c-1-0.1-2.1-0.3-3.1-0.4
						c6.5,23.7,17.4,46.5,42.1,55.4c2,0.7,2.9-2.5,0.9-3.3c-23.4-8.5-33.5-30.7-39.7-53.1c-0.4-1.4-2.4-1.7-3.1-0.4
						c-7.5,13-4.3,32.1,4.9,43.2c5.3,6.4,13,10.1,20.9,12.1c4.9,1.3,12,3.1,17,1.4C162,537.5,161.1,534.2,159.1,534.9L159.1,534.9z"
						/>
				</g>
			</g>
			<g>
				<g>
					<g>
						<path d="M201.1,533.1c5.6-0.4,11.2-0.9,16.8-0.4c2.3,0.2,6.7,0,8.7,1.3c6.3,3.9,1.4,4.4-1.3,4.9c-3.6,0.7-7.6,0.8-11.2,0.7
							c-3.4-0.2-7.5-0.2-10.7-1.6c-3.3-1.4-8.2-3.8-1.9-4.9c2.1-0.4,1.2-3.7-0.9-3.3c-5.2,1-10.3,5.3-4.2,9.4
							c7.3,5,20.7,4.5,29.1,3.1c4.2-0.7,10.9-3.3,7-8.5c-2.2-2.9-6.6-3.6-10-4c-7.2-1-14.2-0.6-21.4-0.1
							C198.9,529.8,198.9,533.2,201.1,533.1L201.1,533.1z"/>
					</g>
				</g>
			</g>
			<g>
				<g>
					<path d="M237,436c-38.4,3.5-74.2,19.1-109.5,33.1c-12.9,5.1-26.4,10.4-38,18c-8.1,5.3-11,14.3-8.2,23.6
						c3.2,10.8,14.1,17.6,23.5,22.4c11.6,6,24.3,11.5,37.1,14.3c13.8,3,28.9,3,41.7-3.5c13.9-7,24.3-19.7,32.7-32.4
						c8.6-13.1,15.5-28.9,18.7-44.3c1.3-6.4,2.4-12.9,3.1-19.4c0.4-3.3,1.3-7.2,0.6-10.5c-0.5-2.1-3.7-1.2-3.3,0.9
						c1.5,6.6-1.5,16.2-2.7,22.7c-2.1,11.5-6,21.5-10.6,32.2c-12,27.8-34.8,54.7-67.6,52.6c-13.5-0.9-26-5.7-38.3-11.1
						c-9.6-4.2-20.2-9-27.1-17.1c-8.8-10.3-6.3-23.2,5.3-29.4c12.4-6.6,25-12.3,38.1-17.4c33.8-13.3,68-28,104.5-31.3
						C239.2,439.2,239.2,435.8,237,436L237,436z"/>
				</g>
			</g>
			<g>
				<g>
					<path d="M160,547.1c-3.5,6.5,0,14.3,4.2,19.7c6.5,8.4,17.4,10.9,27.3,12.2c16.7,2.2,34.3,0.7,50.5-3.7c5.7-1.5,10-3.2,11.8-9.3
						c2.9-9.8,0-21.7-1.8-31.3c-4.5-23.3-2.9-50.7-16.7-71c-1.2-1.8-4.2-0.1-2.9,1.7c10.9,16,11.6,37.1,14.1,55.8
						c1.4,10.2,4.3,20.3,4.7,30.5c0.3,7.6,1.1,16.7-7.3,19.6c-10.5,3.6-22.8,5.1-33.8,5.5c-9.6,0.3-19.9-0.5-29.1-3.2
						c-8.4-2.5-24-13.7-18-24.7C163.9,546.9,161,545.2,160,547.1L160,547.1z"/>
				</g>
			</g>
			<g>
				<g>
					<path d="M245.6,430c-4,0.8-6.2,4.4-9.1,6.9c-1.7,1.4,0.7,3.8,2.4,2.4c2.4-2,4.3-5.4,7.6-6C248.6,432.8,247.7,429.6,245.6,430
						L245.6,430z"/>
				</g>
			</g>
			<g>
				<g>
					<path d="M249,423.3c-3.5-5.6-12.8-10.2-18.8-12.2c-10.2-3.4-19.2-0.8-28.8,2.9c-10.4,4.1-21.7,4.8-31.7,10.1
						c-5.2,2.8-11.8,8.3-12.1,14.7c0,0.6,0.3,1.2,0.8,1.5c3.9,2,8.1-0.2,11.8-1.9c8.4-4,16-8.8,25.4-10.8c7.7-1.6,15.1-3.2,22.7-5.3
						c10-2.7,20.5-4.3,28.3,4c1.5,1.6,3.9-0.8,2.4-2.4c-9.7-10.1-22.9-7.6-35-3.9c-7.6,2.3-15.4,3.1-23,5.3
						c-7.9,2.3-14.2,6.1-21.5,9.7c-2.4,1.2-7.9,5-7.4,1.1c0.5-3.8,6.3-7.4,9.3-9c8.4-4.4,17.5-5.2,26.4-8.1c8.5-2.7,15.6-7,24.9-6
						c4.9,0.5,9.3,2.2,13.5,4.7c2.7,1.6,8.4,4.7,10,7.4C247.2,426.8,250.1,425.1,249,423.3L249,423.3z"/>
				</g>
			</g>
			<g>
				<g>
					<path d="M259.7,433.2c3.3,0.6,5.2,4,7.6,6c1.6,1.4,4-1,2.4-2.4c-2.9-2.5-5.1-6.1-9.1-6.9C258.5,429.6,257.6,432.8,259.7,433.2
						L259.7,433.2z"/>
				</g>
			</g>
			<g>
				<g>
					<path d="M260.2,425c1.5-2.5,6.6-5.3,9.1-6.8c4.4-2.8,9.2-4.7,14.4-5.3c9.2-1,16.4,3.3,24.9,6c8.5,2.8,17.3,3.6,25.4,7.6
						c3.5,1.7,8.5,4.6,9.7,8.5c0.4,1.1,1.4,1.5,0.8,2.6c-0.4,0.9-7.5-2.7-7.7-2.8c-6.9-3.4-12.7-7-20.1-9.3
						c-8-2.5-16.3-3.2-24.3-5.7c-12.1-3.7-25.3-6.3-35,3.9c-1.5,1.6,0.9,4,2.4,2.4c7.5-7.9,17.5-6.8,27.2-4.3
						c4.1,1.1,8,2.7,12.1,3.7c3.9,1,7.9,1.1,11.8,1.9c9,1.9,16.3,6.3,24.3,10.3c3.8,1.9,8.5,4.6,12.8,2.4c0.5-0.3,0.9-0.9,0.8-1.5
						c-0.3-6.4-6.9-11.9-12.1-14.7c-10-5.3-21.3-6.1-31.7-10.1c-9.6-3.8-18.6-6.3-28.8-2.9c-5.9,2-15.4,6.7-18.8,12.2
						C256.1,425.1,259,426.8,260.2,425L260.2,425z"/>
				</g>
			</g>
			<g>
				<g>
					<path d="M248.4,431.8c0-3.2,1.2-7.5,5.3-7.3c3.2,0.2,3.4,4.2,4.1,6.7c0.6,2.1,3.8,1.2,3.3-0.9c-1.2-4.5-2.3-9.4-8.1-9.1
						c-5.5,0.3-8,5.7-7.9,10.6C245,434,248.4,434,248.4,431.8L248.4,431.8z"/>
				</g>
			</g>
			<g>
				<g>
					<path d="M237.9,441c11.4,1,14.3,13.6,14.8,22.8c0.5,8.5,0.8,16.9,0.8,25.4c0.1,17.4-1.6,34.7-1.9,52c0,2.2,3.3,2.2,3.4,0
						c0.4-23.3,2.4-46.4,1.4-69.8c-0.6-13-1.3-32.3-18.5-33.9C235.8,437.4,235.8,440.8,237.9,441L237.9,441z"/>
				</g>
			</g>
			<g>
				<g>
					<path d="M268.6,436.9c-3-0.8-6,1.7-8.3,3.3c-3.3,2.4-6.6,4.7-8.7,8.3c-1.1,1.9,1.8,3.6,2.9,1.7c1.7-2.9,4.3-4.7,7-6.7
						c1.4-1,4.3-3.8,6.2-3.3C269.9,440.7,270.8,437.5,268.6,436.9L268.6,436.9z"/>
				</g>
			</g>
			<g>
				<path d="M140.6,489.4c0,0-0.7-16.3,9.5-20.1c10.2-3.8,20.7-0.6,23.4-4.8c0,0-4.1,14.9-11.6,17.8S150.9,480.6,140.6,489.4z"/>
			</g>
			<g>
				<path d="M167.2,525.4c0,0,12.4,5.5,18.6-1.9s7.2-17.1,11.2-18.1c0,0-12.8-1-17.5,4.4C175,515.3,177.3,519.4,167.2,525.4z"/>
			</g>
			<g>
				<path d="M151.9,515.3c0,0-5-12.4,5.9-19.7c11-7.3,15.4,0.1,23.2-7.5c0,0-1.9,13.6-10.4,17.3C162,509.1,152.9,508.5,151.9,515.3z
					"/>
			</g>
			<g>
				<g>
					<path d="M281.6,445.6c-5.8,7.7-4.6,21.7,0.8,29c4.3,5.8,12.6,10.4,20.1,9.5c1.3-0.2,2.5-1.8,1.2-2.9
						c-10.8-9-19.7-19.8-18.9-34.7c0.1-2.2-3.3-2.2-3.4,0c-0.8,15.9,8.4,27.5,19.9,37.1c0.4-1,0.8-1.9,1.2-2.9
						c-16.6,2.1-27.6-20.5-18-33.3C285.8,445.6,282.9,443.9,281.6,445.6L281.6,445.6z"/>
				</g>
			</g>
			<g>
				<g>
					<path d="M346.2,538.2c5,1.7,12.1-0.1,17-1.4c7.9-2.1,15.6-5.8,20.9-12.1c9.3-11.2,12.4-30.2,4.9-43.2c-0.7-1.3-2.7-1-3.1,0.4
						c-6.2,22.4-16.3,44.5-39.7,53.1c-2,0.7-1.2,4,0.9,3.3c24.6-9,35.6-31.8,42.1-55.4c-1,0.1-2.1,0.3-3.1,0.4
						c7,12.2,3.7,30.6-5.6,40.5c-5.1,5.5-12.6,8.6-19.8,10.3c-3.9,0.9-9.6,2.3-13.6,1C345.1,534.2,344.2,537.5,346.2,538.2
						L346.2,538.2z"/>
				</g>
			</g>
			<g>
				<g>
					<g>
						<path d="M305.1,529.7c-6.8-0.5-13.5-0.8-20.3,0c-3.6,0.4-8.5,0.8-11,3.9c-4.2,5.3,2.5,7.9,6.8,8.7c8.6,1.5,20.6,1.6,28.3-2.7
							c6.9-3.8,2.3-8.7-3.5-9.8c-2.1-0.4-3,2.9-0.9,3.3c6.3,1.2,1.5,3.5-1.9,4.9c-3.1,1.4-7.3,1.4-10.7,1.6
							c-3.6,0.2-7.6,0.1-11.2-0.7c-3-0.6-7.3-0.8-1.3-4.9c2.1-1.5,6.2-1.1,8.7-1.3c5.7-0.5,11.2-0.1,16.8,0.4
							C307.3,533.2,307.3,529.8,305.1,529.7L305.1,529.7z"/>
					</g>
				</g>
			</g>
			<g>
				<g>
					<path d="M269.2,439.4c32,2.9,62.7,14.6,92.2,26.5c15.7,6.3,31.2,12.3,46.2,20.2c9.2,4.8,17.2,10,14.5,22.1
						c-2.6,11.3-14.3,18.1-24,22.8c-10.2,5.1-21.2,9.8-32.3,12.5c-15.7,3.9-32.5,3.5-46.4-5.5c-12.7-8.2-22.7-21.1-30-34.1
						c-6.7-11.9-12.3-25.2-15.1-38.6c-1.2-5.8-2.1-11.7-2.8-17.6c-0.3-2.8-1.4-6.8-0.7-9.6c0.5-2.1-2.8-3-3.3-0.9
						c-1.6,7.2,1.4,17.4,2.7,24.5c2.4,13.5,7.3,25.6,13.2,38c6.8,14.1,17.1,28.1,29.5,37.8c12.2,9.5,26.1,12.8,41.4,11.4
						c13.8-1.3,26.6-6.4,39.1-12c10.4-4.6,22.1-10.2,28.6-20c5-7.5,6-18.6-0.2-25.7c-2.6-3-6.1-4.9-9.7-6.7
						c-6.5-3.4-12.9-7-19.6-9.9c-39.1-16.5-80.4-34.7-123.2-38.5C267,435.8,267,439.2,269.2,439.4L269.2,439.4z"/>
				</g>
			</g>
			<g>
				<g>
					<path d="M343.3,548.8c5.7,10.5-8.8,21.7-17,24.4c-9.4,3.1-20.2,3.8-30.1,3.5c-11.1-0.3-23.3-1.9-33.8-5.5
						c-8.4-2.9-7.7-11.9-7.3-19.6c0.4-10.2,3.4-20.4,4.7-30.5c2.5-18.7,3.2-39.8,14.1-55.8c1.2-1.8-1.7-3.5-2.9-1.7
						c-13.9,20.3-12.2,47.7-16.7,71c-1.9,9.7-4.8,21.5-1.8,31.3c1.8,6.1,6.1,7.8,11.8,9.3c16.3,4.4,33.8,5.9,50.5,3.7
						c10-1.3,20.8-3.8,27.3-12.2c4.2-5.4,7.7-13.2,4.2-19.7C345.2,545.2,342.3,546.9,343.3,548.8L343.3,548.8z"/>
				</g>
			</g>
			<g>
				<path d="M365.6,489.4c0,0,0.7-16.3-9.5-20.1s-20.7-0.6-23.4-4.8c0,0,4.1,14.9,11.6,17.8C351.9,485.1,355.3,480.6,365.6,489.4z"
					/>
			</g>
			<g>
				<path d="M339,525.4c0,0-12.4,5.5-18.6-1.9s-7.2-17.1-11.2-18.1c0,0,12.8-1,17.5,4.4C331.2,515.3,328.9,519.4,339,525.4z"/>
			</g>
			<g>
				<path d="M354.3,515.3c0,0,5-12.4-5.9-19.7c-11-7.3-15.4,0.1-23.2-7.5c0,0,1.9,13.6,10.4,17.3
					C344.2,509.1,353.3,508.5,354.3,515.3z"/>
			</g>
			<g>
				<g>
					<path d="M235.8,454.7c2.9,0.6,5.7,0.7,8.5,1.8c3,1.1,6.1,2.5,8.6,4.4c1.7,1.3,4.1-1,2.4-2.4c-2.6-2.1-5.6-3.5-8.7-4.7
						c-3.3-1.4-6.5-1.6-9.9-2.3C234.5,451,233.6,454.2,235.8,454.7L235.8,454.7z"/>
				</g>
			</g>
			<g>
				<g>
					<path d="M256.2,464.1c3.3-3.3,8.5-7.7,13.5-7.8c2.2,0,2.2-3.4,0-3.4c-6,0.1-11.8,4.7-15.9,8.8
						C252.3,463.3,254.7,465.7,256.2,464.1L256.2,464.1z"/>
				</g>
			</g>
		</g>
		<g>
			<path d="M263.6,675.8c0-9.7-10.5-76.6-10.5-76.6s-10.5,66.8-10.5,76.6s4.7,12.9,10.5,12.9C258.9,688.7,263.6,685.5,263.6,675.8z"
				/>
		</g>
		<g>
			<g>
				<g>
					<g>
						<path class="st0" d="M252.1,346.4c0.8-10.7-3.2-20.6-11.1-27.9c-4.4-4.2-8.9-7.4-12.6-12.3c-2.4-3.1-4.5-6.4-8.1-8.2
							c-1.2-0.6-2.4,0.2-2.5,1.5c-1.3,9.9,3.2,19.5,8.2,27.8c4.8,7.9,11,17.9,19.7,22.1c1.9,0.9,3.1,1.6,5,0.4
							c1.5-0.9,2.6-3.6,3.5-4.9c2.3-3.5,4.7-6.9,7.4-10.1c9.7-11.7,21.1-20,35.4-25.2c-0.7-0.4-1.4-0.8-2.1-1.2
							c1.3,7.7-9.3,16-14.1,21c-8.5,8.7-18.8,17.9-31.6,17.7c-2.2,0-2.2,3.4,0,3.4c14.2,0.2,25.5-9.9,34.8-19.6
							c5.7-5.9,15.7-14.1,14.1-23.4c-0.1-0.9-1.3-1.5-2.1-1.2c-8.8,3.2-17.4,7.4-24.7,13.4c-8.2,6.8-13.5,15.4-20.2,23.5
							c-2.3,2.7-2.2,3.5-5.6,2.2c-2.6-1-4.8-3.6-6.6-5.6c-3.3-3.8-6.3-8.1-9-12.3c-5.2-8.3-10.3-17.9-8.9-27.9
							c-0.8,0.5-1.7,1-2.5,1.5c4.2,2.1,6.4,6.6,9.2,10.1c2.1,2.6,4.5,4.5,7.1,6.6c9,7.5,14.7,16.6,13.8,28.7
							C248.6,348.5,252,348.5,252.1,346.4L252.1,346.4z"/>
					</g>
				</g>
				<g>
					<g>
						<path class="st0" d="M229.9,333.2c-2.3,9.4-3,20.2,3.3,28.3c6.6,8.6,17,9.1,26.9,6.9c14.7-3.4,36.3-21.8,21.5-37.4
							c-1.5-1.6-3.9,0.8-2.4,2.4c12.6,13.3-8.1,29.1-20,31.7c-9.1,2-19.1,1.6-24.5-7.2c-4.4-7.2-3.5-15.9-1.6-23.7
							C233.6,332,230.4,331.1,229.9,333.2L229.9,333.2z"/>
					</g>
				</g>
				<g>
					<g>
						<path class="st0" d="M219.7,313c-5,5.5-7.3,15.5-5.6,22.7c1.5,6.2,6.7,15.1,14.1,14.2c2.1-0.3,2.2-3.7,0-3.4
							c-6.3,0.8-10.7-8.6-11.1-13.9c-0.4-5.6,1.2-13,5-17.3C223.5,313.7,221.1,311.3,219.7,313L219.7,313z"/>
					</g>
				</g>
				<g>
					<g>
						<path class="st0" d="M293.4,319.3c7.7,7.1,1.7,22.2-7.4,24.7c-2.1,0.6-1.2,3.8,0.9,3.3c11.5-3.2,18.5-21.5,8.9-30.3
							C294.2,315.4,291.8,317.8,293.4,319.3L293.4,319.3z"/>
					</g>
				</g>
				<g>
					<g>
						<path class="st0" d="M222.6,346.1c-11.2,6.8-7.6,27-0.7,35.3c5.4,6.6,13.1,10.6,20.5,14.5c6.8,3.6,7.3,4.8,12.5-0.5
							c8-8.1,19.7-8.8,29.7-13c7.3-3.1,13.5-8.3,17.8-15c6.3-9.9,8.9-29-3.7-35.8c-1.9-1-3.6,1.9-1.7,2.9c5.5,2.9,7.3,10.8,7.3,16.6
							c0,7.1-3.9,14.3-8.6,19.5c-9.6,10.4-23.3,10.4-35.2,16.5c-3.7,1.9-8.5,8.6-12.6,7.9c-4.7-0.9-11.2-5.8-15.2-8.5
							c-5.7-3.9-11.2-9.1-13.1-16c-1.5-5.5-1.2-17.9,4.6-21.4C226.1,347.9,224.4,344.9,222.6,346.1L222.6,346.1z"/>
					</g>
				</g>
				<g>
					<g>
						<path class="st0" d="M215.8,362.6c-10.8,4.1-22.8,1.4-29.8-8.1c-5.7-7.8-3.4-16-5-24.7c-0.6-3.4-2.1-5.5,0.4-8.1
							c2.1-2.2,6.1-4.2,8.7-5.9c6.2-4.2,19.9-11,27.4-7.2c1.9,1,3.7-1.9,1.7-2.9c-8.3-4.2-20.7,1-28,5.4c-2.9,1.7-5.6,3.9-8.4,5.8
							c-1.7,1.2-4.3,2.1-5.8,3.5c-2.1,2.1-1.4,3.2-0.7,5.8c3.3,11.2,0,22.8,8.4,32.3c8.1,9.2,20.8,11.7,32,7.5
							C218.7,365.1,217.8,361.8,215.8,362.6L215.8,362.6z"/>
					</g>
				</g>
				<g>
					<g>
						<path class="st0" d="M306.5,356.4c9.8-1.5,17.7-6.2,22.6-15c6.4-11.8,2.1-25,6.4-37.3c0.3-0.9-0.3-1.9-1.2-2.1
							c-6.5-1.8-11.1-6.8-17.4-8.7c-6-1.8-13.1-0.8-19.1,0.4c-6.7,1.4-20.6,4.1-23.1,11.8c-0.7,2.1,2.6,3,3.3,0.9
							c2.3-7.2,22.5-10,27.9-10.4c6.5-0.4,11.1,0.6,16.6,4.2c3.6,2.4,6.8,3.9,11,5.1c-0.4-0.7-0.8-1.4-1.2-2.1
							c-1.5,4.4-2.7,8.8-2.8,13.4c-0.2,5.7,0.7,11.1-0.8,16.8c-3,11.6-11.7,18.2-23,19.9C303.5,353.5,304.4,356.7,306.5,356.4
							L306.5,356.4z"/>
					</g>
				</g>
				<g>
					<g>
						<path class="st0" d="M267.6,326.7c1.5-6.9-4.2-13.7-8.2-18.8c-3.9-4.9-10.7-8.3-16.3-10.8c-3.7-1.6-6.7-1.8-7.6,2.7
							c-1.1,5.6-0.3,12.2,0.4,17.9c0.3,2.1,3.7,2.2,3.4,0c-0.5-3.7-0.7-7.5-0.7-11.3c0-1.4-0.5-5,0.3-6.1c1.1-1.6,3.6,0.3,5.3,1.1
							c3.6,1.9,8.2,4,11.1,6.9c3.7,3.6,10.3,12.2,9.1,17.6C263.8,327.9,267.1,328.8,267.6,326.7L267.6,326.7z"/>
					</g>
				</g>
				<g>
					<g>
						<path class="st0" d="M258.4,300.3c3.7-6.7,10.5-12.2,16.4-17c5.9-4.7,13.5-11,21.3-12.2c-0.7-0.4-1.4-0.8-2.1-1.2
							c2.3,9,10.6,15.1,12.6,24.2c0.5,2.1,3.7,1.2,3.3-0.9c-2.1-9.1-10.3-15.2-12.6-24.2c-0.2-1-1.2-1.3-2.1-1.2
							c-7.9,1.2-15.2,7.2-21.3,11.9c-6.7,5.2-14.3,11.3-18.4,18.8C254.4,300.5,257.3,302.2,258.4,300.3L258.4,300.3z"/>
					</g>
				</g>
				<g>
					<g>
						<path class="st0" d="M271,284.3c-4.4-6.3-12.8-8.8-19.8-10.8c-10.8-3.1-21.4-4.5-31.8-9c-0.8-0.3-1.9-0.3-2.3,0.6
							c-4.8,9.5-14.7,15.1-19,24.9c-2.2,5.1-4.6,15,0.6,19c1.7,1.3,4.1-1.1,2.4-2.4c-3.1-2.4-1.7-9.6-0.8-12.5
							c1.4-4.7,4.1-8.4,7.4-12c4.5-4.9,9.3-9.3,12.4-15.3c-0.8,0.2-1.5,0.4-2.3,0.6c8.7,3.8,16.9,5.6,26.1,7.7
							c7.8,1.8,19.5,3.9,24.3,10.9C269.3,287.8,272.3,286.1,271,284.3L271,284.3z"/>
					</g>
				</g>
				<g>
					<g>
						<path class="st0" d="M283.6,314.1c-1.5-6.4-8.7-11.1-14-14.3c-6.9-4.1-13.3-2.7-20.2,1.1c-1.9,1-0.2,4,1.7,2.9
							c6.6-3.6,11.7-4.4,17.9-0.4c4.1,2.6,10.1,6.6,11.3,11.6C280.9,317.1,284.1,316.2,283.6,314.1L283.6,314.1z"/>
					</g>
				</g>
			</g>
			<g>
				<g>
					<path class="st0" d="M249.2,328.4c0.8-3.6,0.8-7.4,1.5-11c0.9-4.7,3-6.8,7.8-4.9c2,0.8,2.9-2.5,0.9-3.3c-4.6-1.8-9-0.9-11,4
						c-1.9,4.5-1.4,9.6-2.5,14.3C245.5,329.7,248.7,330.6,249.2,328.4L249.2,328.4z"/>
				</g>
			</g>
			<g>
				<g>
					<path class="st0" d="M243.4,272.8c1.4-5.5,15.7-13.1,20.8-12.5c3.4,0.4,5.6,2.9,8.4,4.7c3.9,2.6,8.1,4.7,10.8,8.7
						c1.2,1.8,4.1,0.1,2.9-1.7c-2.8-4.2-6.8-6.6-11-9.3c-3.6-2.3-7.8-7.7-12.5-7c-1.8,0.3-3.5,1.8-5.1,2.6c-3.3,1.8-6.8,3.3-10,5.2
						c-3.3,2-6.6,4.4-7.6,8.3C239.6,274.1,242.9,275,243.4,272.8L243.4,272.8z"/>
				</g>
			</g>
			<g>
				<g>
					<path class="st0" d="M205.5,282.2c-3.2-4.2-9.4-2.6-13.8-1.3c-3.8,1.2-7.3,3.2-10.7,5.2c-2.2,1.3-8.1,3.7-9.1,6.4
						c-0.7,1.8,0.2,2.6,1.1,4.3c1.9,4,3.3,8.1,4.1,12.5c0.7,3.7,0.2,10.4,5.1,11.2c2.1,0.4,3-2.9,0.9-3.3c-2-0.3-5.5-18.4-6.2-20.3
						c-1.1-3.3-1.4-2.8,1.5-5.2c1.8-1.5,4.3-2.6,6.4-3.7c3-1.7,14.6-8.2,17.8-4C203.9,285.6,206.8,283.9,205.5,282.2L205.5,282.2z"
						/>
				</g>
			</g>
			<g>
				<g>
					<path class="st0" d="M179.5,330.3c-5.4,0.7-6.2,7.9-6.8,12.2c-1,8-0.6,12.8,4.4,19.2c5.7,7.5,12.8,17.9,21.2,22.4
						c5,2.7,12.3,4.1,17.9,4.7c4.2,0.4,7.4-0.7,10.5-3.5c1.6-1.5-0.8-3.8-2.4-2.4c-7.3,6.5-24.5-0.6-30.1-6.4
						c-4.4-4.5-8.5-9.5-12.5-14.4c-3.8-4.7-6.1-7.6-6-13.7c0-2.5,0.1-14.3,3.8-14.7C181.6,333.4,181.7,330,179.5,330.3L179.5,330.3z
						"/>
				</g>
			</g>
			<g>
				<g>
					<path class="st0" d="M271.5,386.2c8.6,2.6,15.1,2.3,22.9-2c4.6-2.5,9.4-3.5,13.8-6.4c4.1-2.7,8.3-5.5,12.1-8.7
						c7.4-6.2,14.4-13.5,15.9-23.3c0.8-5.2,2.6-13.7-3.3-16.6c-1.9-1-3.7,2-1.7,2.9c2.8,1.4,2.3,6.2,2.1,8.7
						c-0.5,6.5-1.8,10.8-5.7,16c-4.8,6.3-11,11-17.5,15.4c-5.1,3.5-10.2,5.1-15.6,7.9c-3.8,2-6.8,4.3-11.2,4.5
						c-3.7,0.1-7.4-0.7-10.9-1.8C270.3,382.4,269.4,385.6,271.5,386.2L271.5,386.2z"/>
				</g>
			</g>
			<g>
				<g>
					<path class="st0" d="M263.8,289.1c-4-2.3-6.4-5.4-11.1-6.1c-3.8-0.5-8.7-0.1-12.4,1.1c-9.5,3.1-11,11.5-16,18.9
						c-1.2,1.8,1.7,3.5,2.9,1.7c4.3-6.2,5.5-14,13.3-17c3.3-1.3,7.9-1.8,11.5-1.3c3.9,0.6,6.7,3.6,10.1,5.6
						C264,293.1,265.7,290.2,263.8,289.1L263.8,289.1z"/>
				</g>
			</g>
		</g>
		<g>
			<path class="st0" d="M303.8,175.4c-3.6,26.2-26.1,46.4-53.3,46.3c-27.2-0.1-49.6-20.3-53.1-46.6c-0.3,2.4-0.5,4.8-0.5,7.2
				c-0.1,29.7,23.9,53.8,53.6,53.8c29.7,0.1,53.8-23.9,53.8-53.6C304.3,180.1,304.1,177.7,303.8,175.4z"/>
		</g>
	</g>
</g>
</svg>
