<svg version="1.2" xmlns="http://www.w3.org/2000/svg" viewBox="0 0 504 864" width="504" height="864">
	<title>outline-01</title>
	<style>
		.s0 { fill: #000000 } 
	</style>
	<g>
		<g>
			<path class="s0" d="m106.4 127.3l-0.6 0.4c-1.3 1-1.6 2.9-0.5 4.2 0.6 0.8 1.5 1.2 2.4 1.2 0.6 0 1.3-0.2 1.8-0.6l0.6-0.5c1.3-1 1.5-2.9 0.5-4.2-1-1.3-2.9-1.6-4.2-0.5z"/>
			<path class="s0" d="m61.5 146l-0.7 0.1c-1.7 0.1-2.9 1.6-2.7 3.3 0.1 1.6 1.4 2.8 3 2.8q0.2 0 0.3 0l0.8-0.1c1.7-0.2 2.9-1.6 2.7-3.3-0.3-1.7-1.7-2.9-3.4-2.8z"/>
			<path class="s0" d="m73.6 143.9l-0.7 0.2c-1.6 0.4-2.6 2-2.2 3.7 0.3 1.4 1.6 2.3 2.9 2.3 0.2 0 0.5 0 0.7-0.1l0.8-0.2c1.6-0.4 2.6-2.1 2.1-3.7-0.4-1.7-2-2.6-3.6-2.2z"/>
			<path class="s0" d="m85.2 139.9l-0.7 0.3c-1.5 0.6-2.3 2.4-1.6 3.9 0.5 1.2 1.6 1.9 2.8 1.9 0.4 0 0.8-0.1 1.1-0.2l0.7-0.3c1.5-0.7 2.2-2.4 1.6-3.9-0.6-1.6-2.4-2.4-3.9-1.7z"/>
			<path class="s0" d="m96.2 134.3l-0.6 0.4c-1.4 0.8-1.9 2.7-1.1 4.1 0.6 1 1.6 1.5 2.6 1.5 0.5 0 1-0.1 1.5-0.4l0.7-0.4c1.4-0.9 1.9-2.7 1-4.1-0.8-1.5-2.6-2-4.1-1.1z"/>
			<path class="s0" d="m128 109c-1.3-1-3.2-0.7-4.2 0.6l-0.4 0.6c-1 1.3-0.8 3.2 0.6 4.2 0.5 0.4 1.2 0.6 1.8 0.6 0.9 0 1.8-0.4 2.4-1.2l0.5-0.6c0.9-1.3 0.6-3.2-0.7-4.2z"/>
			<path class="s0" d="m117.3 124.6q1.2 0 2.1-0.9l0.5-0.5c1.2-1.2 1.2-3.1 0-4.3-1.2-1.2-3.1-1.2-4.3 0l-0.5 0.5c-1.2 1.2-1.2 3.1 0 4.3 0.6 0.6 1.4 0.9 2.2 0.9z"/>
			<path class="s0" d="m144 68.1c0.1 0 0.2 0 0.2 0 1.6 0 2.9-1.2 3-2.8l0.1-0.8c0.1-1.7-1.1-3.1-2.8-3.2-1.7-0.1-3.1 1.1-3.2 2.8l-0.1 0.7c-0.1 1.8 1.1 3.2 2.8 3.3z"/>
			<path class="s0" d="m131.3 104c0.5 0.3 1 0.4 1.5 0.4 1 0 2.1-0.5 2.6-1.5l0.4-0.7c0.8-1.4 0.3-3.3-1.1-4.1-1.4-0.8-3.3-0.3-4.1 1.1l-0.4 0.6c-0.9 1.5-0.4 3.4 1.1 4.2z"/>
			<path class="s0" d="m141.5 80.7c0.2 0.1 0.5 0.1 0.7 0.1 1.4 0 2.6-0.9 2.9-2.3l0.2-0.7c0.4-1.6-0.6-3.2-2.3-3.6-1.6-0.4-3.2 0.6-3.6 2.3l-0.2 0.7c-0.3 1.5 0.7 3.1 2.3 3.5z"/>
			<path class="s0" d="m137.2 92.7c0.4 0.1 0.7 0.2 1.1 0.2 1.2 0 2.3-0.7 2.8-1.9l0.3-0.7c0.6-1.5-0.2-3.3-1.7-3.9-1.5-0.6-3.3 0.2-3.9 1.7l-0.3 0.7c-0.5 1.5 0.2 3.3 1.7 3.9z"/>
			<path class="s0" d="m143.1 789.2c1.6-0.4 2.6-2 2.3-3.6l-0.2-0.7c-0.4-1.6-2-2.6-3.6-2.2-1.6 0.4-2.6 2-2.2 3.6l0.2 0.7c0.3 1.4 1.6 2.3 2.9 2.3 0.1-0.1 0.3-0.1 0.6-0.1z"/>
			<path class="s0" d="m144.4 807.9c-1.7-0.2-3.1 1.1-3.2 2.8l-0.1 0.7c-0.2 1.7 1.1 3.1 2.7 3.3q0.1 0 0.3 0c1.5 0 2.8-1.2 3-2.7l0.1-0.8c0.1-1.7-1.2-3.2-2.8-3.3z"/>
			<path class="s0" d="m128.1 749.4c-1-1.3-2.9-1.6-4.2-0.6-1.3 1-1.6 2.9-0.6 4.2l0.4 0.6c0.6 0.8 1.5 1.2 2.4 1.2 0.6 0 1.3-0.2 1.8-0.6 1.3-1 1.6-2.9 0.6-4.2z"/>
			<path class="s0" d="m144 795.1c-1.7 0.1-2.9 1.6-2.8 3.2l0.1 0.7c0.1 1.6 1.4 2.8 3 2.8 0.1 0 0.1 0 0.2 0 1.7-0.1 2.9-1.6 2.8-3.2l-0.1-0.8c-0.1-1.6-1.6-2.8-3.2-2.7z"/>
			<path class="s0" d="m119.4 739.5c-1.2-1.2-3.1-1.2-4.3 0-1.2 1.2-1.2 3.1 0 4.3l0.5 0.5c0.6 0.6 1.4 0.9 2.1 0.9q1.2 0 2.1-0.9c1.2-1.2 1.2-3.1 0-4.3z"/>
			<path class="s0" d="m75.1 713.5l-0.8-0.2c-1.6-0.4-3.2 0.6-3.7 2.2-0.4 1.6 0.6 3.2 2.2 3.7l0.7 0.2c0.3 0.1 0.5 0.1 0.8 0.1 1.3 0 2.5-0.9 2.9-2.2 0.5-1.7-0.5-3.3-2.1-3.8z"/>
			<path class="s0" d="m110.2 731.2l-0.6-0.5c-1.3-1-3.2-0.8-4.2 0.5-1 1.3-0.8 3.2 0.5 4.2l0.6 0.4c0.6 0.4 1.2 0.6 1.9 0.6 0.9 0 1.8-0.4 2.4-1.1 0.9-1.1 0.7-3-0.6-4.1z"/>
			<path class="s0" d="m135.8 761l-0.4-0.7c-0.8-1.4-2.7-1.9-4.1-1.1-1.4 0.8-1.9 2.7-1.1 4.1l0.4 0.6c0.6 1 1.6 1.5 2.6 1.5 0.5 0 1-0.1 1.5-0.4 1.4-0.7 1.9-2.5 1.1-4z"/>
			<path class="s0" d="m99.3 723.8l-0.7-0.4c-1.4-0.8-3.3-0.4-4.1 1.1-0.8 1.4-0.4 3.3 1.1 4.1l0.6 0.4c0.5 0.3 1 0.4 1.5 0.4 1 0 2-0.5 2.6-1.5 0.9-1.4 0.4-3.3-1-4.1z"/>
			<path class="s0" d="m141.4 772.9l-0.3-0.7c-0.6-1.5-2.4-2.3-3.9-1.7-1.5 0.6-2.3 2.4-1.7 3.9l0.3 0.7c0.5 1.2 1.6 1.9 2.8 1.9 0.4 0 0.7-0.1 1.1-0.2 1.6-0.6 2.3-2.3 1.7-3.9z"/>
			<path class="s0" d="m87.6 717.8l-0.7-0.3c-1.5-0.6-3.3 0.1-3.9 1.6-0.6 1.5 0.1 3.3 1.6 3.9l0.7 0.3c0.4 0.2 0.8 0.2 1.2 0.2 1.2 0 2.3-0.7 2.8-1.8 0.5-1.5-0.2-3.2-1.7-3.9z"/>
			<path class="s0" d="m62.1 711.2l-0.8-0.1c-1.7-0.1-3.1 1.1-3.3 2.7-0.1 1.7 1.1 3.1 2.7 3.3l0.7 0.1q0.2 0 0.3 0c1.5 0 2.8-1.2 3-2.7 0.2-1.7-1-3.1-2.6-3.3z"/>
			<path class="s0" d="m440.9 152l0.8 0.1q0.1 0 0.3 0c1.5 0 2.9-1.2 3-2.8 0.1-1.7-1.1-3.1-2.7-3.3l-0.7-0.1c-1.7-0.1-3.1 1.1-3.3 2.7-0.3 1.8 0.9 3.3 2.6 3.4z"/>
			<path class="s0" d="m453.9 152.2c0.1 0 0.2 0 0.2 0l0.8-0.1c1.7-0.2 2.9-1.6 2.7-3.3-0.1-1.7-1.6-2.9-3.3-2.7l-0.7 0.1c-1.7 0.1-2.9 1.6-2.8 3.2 0.3 1.6 1.6 2.8 3.1 2.8z"/>
			<path class="s0" d="m361.5 90.3l0.3 0.7c0.5 1.2 1.6 1.9 2.8 1.9 0.4 0 0.7-0.1 1.1-0.2 1.5-0.6 2.3-2.4 1.7-3.9l-0.3-0.7c-0.6-1.5-2.4-2.3-3.9-1.7-1.5 0.6-2.3 2.3-1.7 3.9z"/>
			<path class="s0" d="m407.3 134.7l-0.6-0.4c-1.4-0.9-3.3-0.4-4.1 1-0.9 1.4-0.4 3.3 1 4.1l0.7 0.4c0.5 0.3 1 0.4 1.5 0.4 1 0 2-0.5 2.6-1.5 0.8-1.4 0.4-3.2-1.1-4z"/>
			<path class="s0" d="m372.4 99.3c-0.8-1.4-2.7-2-4.1-1.1-1.4 0.8-2 2.7-1.1 4.1l0.4 0.7c0.6 1 1.6 1.5 2.6 1.5 0.5 0 1-0.1 1.5-0.4 1.4-0.8 1.9-2.7 1.1-4.1z"/>
			<path class="s0" d="m379.2 109.6c-1-1.3-2.9-1.6-4.2-0.6-1.3 1-1.6 2.9-0.6 4.2l0.5 0.6c0.6 0.8 1.5 1.2 2.4 1.2 0.6 0 1.3-0.2 1.8-0.6 1.3-1 1.6-2.9 0.6-4.2z"/>
			<path class="s0" d="m397.1 127.7l-0.6-0.4c-1.3-1-3.2-0.8-4.2 0.5-1 1.3-0.8 3.2 0.5 4.2l0.6 0.5c0.5 0.4 1.2 0.6 1.8 0.6 0.9 0 1.8-0.4 2.4-1.2 1-1.3 0.8-3.2-0.5-4.2z"/>
			<path class="s0" d="m358.7 68.1c0.1 0 0.2 0 0.2 0 1.7-0.1 2.9-1.6 2.8-3.2l-0.1-0.7c-0.1-1.7-1.5-2.9-3.2-2.8-1.7 0.1-2.9 1.6-2.8 3.2l0.1 0.8c0.2 1.5 1.5 2.7 3 2.7z"/>
			<path class="s0" d="m387.3 119c-1.2-1.2-3.1-1.2-4.3 0-1.2 1.2-1.2 3.1 0 4.3l0.5 0.5c0.6 0.6 1.4 0.9 2.1 0.9q1.2 0 2.1-0.9c1.2-1.2 1.2-3.1 0-4.3z"/>
			<path class="s0" d="m415.4 145.4l0.7 0.3c0.4 0.2 0.8 0.2 1.1 0.2 1.2 0 2.3-0.7 2.8-1.9 0.6-1.5-0.1-3.3-1.6-3.9l-0.7-0.3c-1.5-0.6-3.3 0.1-3.9 1.6-0.7 1.6 0 3.4 1.6 4z"/>
			<path class="s0" d="m427.8 149.7l0.8 0.2c0.2 0.1 0.5 0.1 0.7 0.1 1.3 0 2.6-0.9 2.9-2.3 0.4-1.6-0.6-3.2-2.2-3.7l-0.7-0.2c-1.6-0.4-3.3 0.5-3.7 2.1-0.3 1.7 0.6 3.4 2.2 3.8z"/>
			<path class="s0" d="m359.9 74.1c-1.6 0.4-2.6 2-2.3 3.6l0.2 0.7c0.3 1.4 1.6 2.3 2.9 2.3 0.2 0 0.5 0 0.7-0.1 1.6-0.4 2.6-2 2.2-3.6l-0.2-0.7c-0.3-1.6-1.9-2.6-3.5-2.2z"/>
			<path class="s0" d="m404.3 723.4l-0.7 0.4c-1.4 0.9-1.9 2.7-1 4.1 0.6 0.9 1.6 1.5 2.6 1.5 0.5 0 1.1-0.1 1.5-0.4l0.6-0.4c1.4-0.8 1.9-2.7 1.1-4.1-0.8-1.5-2.7-2-4.1-1.1z"/>
			<path class="s0" d="m379.1 748.8c-1.3-1-3.2-0.8-4.2 0.6l-0.5 0.6c-1 1.3-0.7 3.2 0.6 4.2 0.5 0.4 1.2 0.6 1.8 0.6 0.9 0 1.8-0.4 2.4-1.2l0.4-0.6c1-1.3 0.8-3.2-0.5-4.2z"/>
			<path class="s0" d="m371.7 759.2c-1.4-0.8-3.3-0.3-4.1 1.1l-0.4 0.7c-0.8 1.4-0.3 3.3 1.1 4.1 0.5 0.3 1 0.4 1.5 0.4 1 0 2.1-0.6 2.6-1.5l0.4-0.6c0.8-1.5 0.3-3.3-1.1-4.2z"/>
			<path class="s0" d="m383.5 739.5l-0.5 0.5c-1.2 1.2-1.2 3.1 0 4.3 0.6 0.6 1.4 0.9 2.1 0.9 0.8 0 1.6-0.3 2.1-0.9l0.5-0.5c1.2-1.2 1.2-3.1 0-4.3-1.1-1.2-3-1.2-4.2 0z"/>
			<path class="s0" d="m365.7 770.5c-1.5-0.6-3.3 0.1-3.9 1.7l-0.3 0.7c-0.6 1.5 0.2 3.3 1.7 3.9 0.4 0.1 0.7 0.2 1.1 0.2 1.2 0 2.3-0.7 2.8-1.9l0.3-0.7c0.6-1.5-0.2-3.2-1.7-3.9z"/>
			<path class="s0" d="m393.4 730.8l-0.6 0.5c-1.3 1-1.5 2.9-0.5 4.2 0.6 0.8 1.5 1.1 2.4 1.1 0.7 0 1.3-0.2 1.9-0.6l0.6-0.4c1.3-1 1.6-2.9 0.5-4.2-1.1-1.4-3-1.6-4.3-0.6z"/>
			<path class="s0" d="m417.7 723.3l0.7-0.3c1.5-0.6 2.3-2.4 1.6-3.9-0.6-1.5-2.4-2.3-3.9-1.6l-0.7 0.3c-1.5 0.7-2.2 2.4-1.6 3.9 0.5 1.1 1.6 1.8 2.8 1.8 0.3 0.1 0.7 0 1.1-0.2z"/>
			<path class="s0" d="m428.6 719.5c0.3 0 0.5 0 0.8-0.1l0.7-0.2c1.6-0.4 2.6-2 2.2-3.7-0.4-1.6-2-2.6-3.7-2.2l-0.8 0.2c-1.6 0.4-2.6 2.1-2.1 3.7 0.4 1.4 1.6 2.3 2.9 2.3z"/>
			<path class="s0" d="m453.7 717.1l0.7 0.1q0.1 0 0.3 0c1.5 0 2.9-1.2 3-2.7 0.1-1.7-1.1-3.1-2.7-3.3l-0.8-0.1c-1.7-0.1-3.1 1.1-3.2 2.8-0.2 1.6 1.1 3.1 2.7 3.2z"/>
			<path class="s0" d="m441.2 717.2q0.1 0 0.3 0l0.7-0.1c1.7-0.1 2.9-1.6 2.7-3.3-0.1-1.7-1.6-2.9-3.3-2.7l-0.8 0.1c-1.7 0.2-2.9 1.6-2.7 3.3 0.2 1.5 1.5 2.7 3.1 2.7z"/>
			<path class="s0" d="m358.6 807.9c-1.7 0.1-2.9 1.6-2.8 3.2l0.1 0.8c0.1 1.6 1.5 2.7 3 2.7q0.2 0 0.3 0c1.7-0.2 2.9-1.6 2.7-3.3l-0.1-0.7c-0.1-1.6-1.6-2.9-3.2-2.7z"/>
			<path class="s0" d="m358.5 801.9c0.1 0 0.1 0 0.2 0 1.6 0 2.9-1.2 3-2.8l0.1-0.7c0.1-1.7-1.1-3.1-2.8-3.2-1.7-0.1-3.1 1.1-3.2 2.8l-0.1 0.8c-0.1 1.5 1.1 2.9 2.8 3.1z"/>
			<path class="s0" d="m361.4 782.6c-1.6-0.4-3.2 0.6-3.6 2.2l-0.2 0.7c-0.4 1.6 0.6 3.2 2.3 3.6 0.2 0.1 0.5 0.1 0.7 0.1 1.4 0 2.6-0.9 2.9-2.3l0.2-0.7c0.3-1.6-0.7-3.2-2.3-3.6z"/>
			<path class="s0" d="m503.8 18.2c-1.6-17.9-18.7-16.3-31.6-16.3-45.9 0-91.8 0-137.6 0-63.2 0-126.3 0-189.5 0q-60.9 0-121.8 0c-2.6 0-5.3-0.2-8 0.2-9.5 1.2-15 9.2-15.2 18.2-0.2 7.3 0 14.5 0 21.8 0 37.4 0 74.9 0 112.3 0 57 0 114.1 0 171.1q0 96.5 0 192.9c0 58.4 0 116.7 0 175.1q0 60.2 0 120.3 0 13.7 0 27.3c0 11.7 6.7 20.5 19.2 20.7 35.9 0.6 71.9 0 107.9 0 62.4 0 124.9 0 187.3 0 49.7 0 99.5 0 149.2 0 7.6 0 15.2 0 22.9 0 0.4 0 0.8-0.1 1.2-0.2 14.4-1.8 16.1-13.8 16.1-25.5 0-11.4 0-22.8 0-34.3 0-43.4 0-86.9 0-130.3 0-59.9 0-119.8 0-179.8 0-63.9 0-127.7 0-191.6q0-82.9 0-165.9c0-33.7 0-67.3 0-101 0-4.9 0.3-10-0.1-15zm-17.2 834.6q-42.5 0-84.9 0-89.8 0-179.7 0-81 0-162 0c-13.1 0-26.1 0-39.2 0-5.6 0-11-1.3-11.7-8.3-0.2-1.5 0-3 0-4.5q0-39.8 0-79.5c0-50 0-100 0-149.9q0-92.7 0-185.4c0-61.4 0-122.7 0-184.1 0-48.9 0-97.7 0-146.6 0-24.2-0.8-48.6 0-72.7 0.2-5.3 1.6-10.1 8.3-10.8 2.2-0.2 4.5 0 6.7 0 14.8 0 29.6 0 44.5 0 55.6 0 111.3 0 166.9 0q88.3 0 176.7 0c18.9 0 37.9 0 56.8 0 8.1 0 24.7-3.1 25.9 8.4 0.5 5.2 0 10.8 0 16.1 0 13.5 0 27.1 0 40.6 0 45.5 0 91.1 0 136.6q0 90.1 0 180.3c0 62.6 0 125.2 0 187.7q0 79.2 0 158.4c0 31.4 0 62.7 0 94.1-0.1 7.1 2 18.8-8.3 19.6z"/>
			<path class="s0" d="m421.9 779.1c12.5 3.9 25.1 7.9 37.6 11.8 0.9 0.3 1.6 0 2.1-0.5 0.4-0.4 0.7-0.9 0.7-1.7q0-35.6 0-71.1 0-84.6 0-169.2c0-68.7 0-137.4 0-206 0-59 0-117.9 0-176.9q0-29.4 0-58.8c0-8.9 1.3-19 0-27.9-0.1-0.4 0-0.8 0-1.2 0-0.4-0.1-0.7-0.2-1 0.7-1.5-0.5-3.8-2.6-3.2-12.5 3.9-25 7.8-37.6 11.7 4.1-12.6 8.2-25.2 12.3-37.9 0.5-1.7-0.9-2.8-2.2-2.8-0.2-0.1-0.4-0.1-0.7-0.1-40.5 0-80.9 0-121.4 0-64.5 0-129 0-193.6 0-14.9 0-29.7 0-44.6 0-0.7 0-1.2 0.3-1.6 0.7-0.6 0.5-0.9 1.2-0.6 2.2 4.1 12.6 8.2 25.2 12.3 37.9-12.5-3.9-25-7.8-37.6-11.7-2.1-0.6-3.2 1.6-2.6 3.1-0.2 0.3-0.3 0.7-0.3 1.1q0 35.5 0 71.1 0 84.6 0 169.2c0 68.7 0 137.4 0 206 0 59 0 117.9 0 176.9q0 29.4 0 58.8c0 8.9-1.3 19 0 27.9 0.1 0.4 0 0.8 0 1.2 0 0.7 0.3 1.3 0.7 1.6 0.5 0.5 1.2 0.8 2.1 0.5 12.9-3.8 25.4-7.8 37.9-11.7-4.1 12.5-8.2 25-12.3 37.4-0.3 0.9 0 1.7 0.6 2.2 0.4 0.4 0.9 0.7 1.6 0.7 40.5 0 80.9 0 121.4 0 64.5 0 129 0 193.6 0 14.9 0 29.7 0 44.6 0 0.7 0 1.3-0.3 1.6-0.7 0.5-0.5 0.8-1.2 0.5-2.1q-5.8-18.7-11.7-37.5zm-111.9 35.8c-64.5 0-129 0-193.6 0-13.8 0-27.6 0-41.5 0 4.2-12.9 8.5-25.8 12.7-38.7 0.5-1.6-1.2-3.3-2.8-2.8-12.9 4-25.9 8.1-38.8 12.1 0-22.7 0-45.3 0-68 0-0.5 0-0.9 0-1.4q0.9 0.9 2.1 0.9 0.2 0 0.3 0l0.7-0.1c1.7-0.1 2.9-1.6 2.8-3.2-0.1-1.7-1.6-2.9-3.2-2.8l-0.8 0.1c-0.7 0.1-1.4 0.4-1.9 0.9 0-54.5 0-109.1 0-163.6 0-68.7 0-137.4 0-206 0-59 0-117.9 0-176.9 0-4.8 0-9.5 0-14.3 0.5 0.5 1.1 0.8 1.9 0.9l0.8 0.1c0.1 0 0.2 0 0.2 0 1.6 0 2.9-1.2 3-2.8 0.1-1.7-1.1-3.1-2.8-3.2l-0.7-0.1c-0.9-0.1-1.8 0.3-2.4 0.9 0-13.4 0-26.9 0-40.3 0-8.9 1.3-19 0-27.9 0 0 0-0.1 0-0.2 12.9 4 25.9 8 38.8 12.1 1.6 0.5 3.3-1.2 2.8-2.8-4.2-13-8.5-26-12.7-39.1 22.6 0 45.3 0 67.9 0-1.2 0.5-1.9 1.7-1.8 3l0.1 0.7c0.1 1.6 1.4 2.8 3 2.8 0.1 0 0.2 0 0.2 0 1.7-0.1 2.9-1.6 2.8-3.2l-0.1-0.8c-0.1-1.1-0.8-2-1.8-2.5q24 0 48 0 82.2 0 164.4 0c-1 0.4-1.7 1.3-1.8 2.5l-0.1 0.8c-0.1 1.7 1.1 3.1 2.8 3.2 0.1 0 0.2 0 0.2 0 1.5 0 2.9-1.2 3-2.8l0.1-0.7c0.1-1.3-0.6-2.5-1.8-3 8.9 0 17.8 0 26.8 0 14.1 0 28.1 0 42.2 0-4.2 13-8.5 26-12.7 39.1-0.5 1.6 1.2 3.3 2.8 2.8 12.9-4 25.8-8 38.8-12.1 0 23.3 0 46.7 0 70q0 84.6 0 169.2c0 68.7 0 137.4 0 206 0 59 0 117.9 0 176.9q0 29.4 0 58.8c0 8.3-1.1 17.6-0.2 26-12.8-4-25.7-8.1-38.5-12.1-1.6-0.5-3.3 1.2-2.8 2.8q6 19.3 12 38.7c-39.5 0.1-79 0.1-118.4 0.1z"/>
			<path class="s0" d="m38.4 61.6c1 1 6.9-2.5 10-2.6 3.1-0.1 12 4.9 13.1 3.7 1.1-1.2-4.7-8.9-4.9-12.7-0.2-3.7 3-9.1 1.7-10.2-1.3-1.1-6.4 2.5-10 2.6-3.6 0.2-12-4.9-13.1-3.7-1.1 1.2 4.7 9.3 4.9 12.7 0.2 3.3-2.7 9.2-1.7 10.2z"/>
			<path class="s0" d="m454.9 42.4c-3.6-0.2-8.8-3.8-10-2.6-1.3 1.1 1.9 6.5 1.7 10.2-0.2 3.7-5.9 11.5-4.9 12.7 1.1 1.2 9.9-3.9 13.1-3.7 3.1 0.1 9 3.6 10 2.6 1-1-1.9-6.9-1.7-10.2 0.1-3.3 5.9-11.5 4.9-12.7-1.1-1.1-9.4 3.9-13.1 3.7z"/>
			<path class="s0" d="m48.4 807.4c-3.1-0.1-9-3.6-10-2.6-1 1 1.9 6.9 1.7 10.2-0.1 3.3-5.9 11.5-4.9 12.7 1.1 1.2 9.4-3.9 13.1-3.7 3.7 0.2 8.8 3.8 10 2.6 1.3-1.1-1.9-6.5-1.7-10.2 0.2-3.7 5.9-11.5 4.9-12.7-1.1-1.2-10 3.8-13.1 3.7z"/>
			<path class="s0" d="m464.9 804.7c-1-1-6.9 2.5-10 2.6-3.1 0.1-12-4.9-13.1-3.7-1.1 1.2 4.7 8.9 4.9 12.7 0.2 3.7-3 9.1-1.7 10.2 1.3 1.1 6.4-2.5 10-2.6 3.6-0.2 12 4.9 13.1 3.7 1.1-1.2-4.7-9.3-4.9-12.7-0.2-3.3 2.7-9.2 1.7-10.2z"/>
		</g>
		<g>
			<g>
			</g>
			<g>
				<g>
					<g>
						<g>
						</g>
					</g>
				</g>
				<g>
					<g>
						<g>
						</g>
					</g>
				</g>
				<g>
					<g>
						<g>
						</g>
					</g>
				</g>
				<g>
					<g>
						<g>
						</g>
					</g>
				</g>
				<g>
					<g>
					</g>
				</g>
			</g>
		</g>
	</g>
</svg>