<?xml version="1.0" encoding="utf-8"?>
<!-- Generator: Adobe Illustrator 21.1.0, SVG Export Plug-In . SVG Version: 6.00 Build 0)  -->
<svg version="1.1" xmlns="http://www.w3.org/2000/svg" xmlns:xlink="http://www.w3.org/1999/xlink" x="0px" y="0px"
	 viewBox="0 0 504 864" style="enable-background:new 0 0 504 864;" xml:space="preserve">
<g id="Слой_1">
</g>
<g id="Слой_2">
	<g>
		<path d="M503.8,18.2c-1.6-17.9-18.7-16.3-31.6-16.3c-45.9,0-91.8,0-137.6,0c-63.2,0-126.3,0-189.5,0c-40.6,0-81.2,0-121.8,0
			c-2.6,0-5.3-0.2-8,0.2c-9.5,1.2-15,9.2-15.2,18.2c-0.2,7.3,0,14.5,0,21.8c0,37.4,0,74.9,0,112.3c0,57,0,114.1,0,171.1
			c0,64.3,0,128.6,0,192.9c0,58.4,0,116.7,0,175.1c0,40.1,0,80.2,0,120.3c0,9.1,0,18.2,0,27.3c0,11.7,6.7,20.5,19.2,20.7
			c35.9,0.6,71.9,0,107.9,0c62.4,0,124.9,0,187.3,0c49.7,0,99.5,0,149.2,0c7.6,0,15.2,0,22.9,0c0.4,0,0.8-0.1,1.2-0.2
			c14.4-1.8,16.1-13.8,16.1-25.5c0-11.4,0-22.8,0-34.3c0-43.4,0-86.9,0-130.3c0-59.9,0-119.8,0-179.8c0-63.9,0-127.7,0-191.6
			c0-55.3,0-110.6,0-165.9c0-33.7,0-67.3,0-101C503.9,28.3,504.2,23.2,503.8,18.2z M486.6,852.8c-28.3,0-56.6,0-84.9,0
			c-59.9,0-119.8,0-179.7,0c-54,0-108,0-162,0c-13.1,0-26.1,0-39.2,0c-5.6,0-11-1.3-11.7-8.3c-0.2-1.5,0-3,0-4.5c0-26.5,0-53,0-79.5
			c0-50,0-100,0-149.9c0-61.8,0-123.6,0-185.4c0-61.4,0-122.7,0-184.1c0-48.9,0-97.7,0-146.6c0-24.2-0.8-48.6,0-72.8
			c0.2-5.3,1.6-10.1,8.3-10.8c2.2-0.2,4.5,0,6.7,0c14.8,0,29.6,0,44.5,0c55.6,0,111.3,0,166.9,0c58.9,0,117.8,0,176.7,0
			c18.9,0,37.9,0,56.8,0c8.1,0,24.7-3.1,25.9,8.4c0.5,5.2,0,10.8,0,16.1c0,13.5,0,27.1,0,40.6c0,45.5,0,91.1,0,136.6
			c0,60.1,0,120.2,0,180.3c0,62.6,0,125.2,0,187.7c0,52.8,0,105.6,0,158.4c0,31.4,0,62.7,0,94.1C494.8,840.3,496.9,852,486.6,852.8z
			"/>
		<path d="M460,790.9c1.2,0.1,2.4-0.7,2.4-2.2c0-23.7,0-47.4,0-71.1c0-56.4,0-112.8,0-169.2c0-68.7,0-137.4,0-206
			c0-59,0-117.9,0-176.9c0-19.6,0-39.2,0-58.8c0-8.9,1.3-19,0-27.9c-0.1-0.4,0-0.8,0-1.2c0-0.8-0.3-1.3-0.8-1.7
			c0.1-1.2-0.6-2.5-2.2-2.6c-13.1-0.5-25.3-13.8-25.8-26.7c0-0.5-0.2-0.8-0.4-1.1c-0.3-0.6-1-1.1-1.9-1.1c-40.5,0-80.9,0-121.4,0
			c-64.5,0-129,0-193.6,0c-14.9,0-29.7,0-44.6,0c-0.9,0-1.6,0.5-1.9,1.1c-0.2,0.3-0.3,0.7-0.4,1.2C69.1,59.5,57,72.8,43.9,73.3
			c-1.8,0.1-2.5,1.9-2,3.2c-0.2,0.3-0.2,0.6-0.2,1c0,23.7,0,47.4,0,71.1c0,56.4,0,112.8,0,169.2c0,68.7,0,137.4,0,206
			c0,59,0,117.9,0,176.9c0,19.6,0,39.2,0,58.8c0,8.9-1.3,19,0,27.9c0.1,0.4,0,0.8,0,1.2c0,0.9,0.5,1.6,1.1,1.9
			c0.3,0.2,0.7,0.3,1.2,0.4c13,0.5,25.3,13.3,25.8,26.2c0,0.5,0.2,0.8,0.4,1.1c0.3,0.6,1,1.1,1.9,1.1c40.5,0,80.9,0,121.4,0
			c64.5,0,129,0,193.6,0c14.9,0,29.7,0,44.6,0c0.9,0,1.6-0.5,1.9-1.1c0.2-0.3,0.3-0.7,0.4-1.2c0.5-12.9,12.7-25.7,25.8-26.2
			C459.6,791,459.8,790.9,460,790.9z M429.3,814.9c-39.8,0-79.6,0-119.3,0c-64.5,0-129,0-193.6,0c-14.2,0-28.3,0-42.5,0
			c-1.7-13.9-13.9-26.5-27.8-28.3c0-23,0-46,0-69.1c0-56.4,0-112.8,0-169.2c0-68.7,0-137.4,0-206c0-59,0-117.9,0-176.9
			c0-19.6,0-39.2,0-58.8c0-8.9,1.3-19,0-27.9c-0.1-0.4,0-0.8,0-1.2c14-1.8,26.1-14.9,27.8-28.7c39.8,0,79.5,0,119.3,0
			c64.5,0,129,0,193.6,0c14.2,0,28.3,0,42.5,0c1.7,14.1,14.3,27.4,28.5,28.8c0,23.7,0,47.3,0,71c0,56.4,0,112.8,0,169.2
			c0,68.7,0,137.4,0,206c0,59,0,117.9,0,176.9c0,19.6,0,39.2,0,58.8c0,8.6-1.2,18.4-0.1,27C443.6,788.1,431.1,800.9,429.3,814.9z"/>
		<path d="M218.4,80.3c0.2,0,0.3,0.1,0.3,0.4c0,0.2,0.3,0.4,1,0.5c0.6,0.1,1.1,0.4,1.5,0.9c0.4,0.5,0.7,1.1,0.7,1.6
			c0,0.5,0.1,1,0.3,1.6c0.2,0.6,0.4,0.9,0.5,0.9c0.1,0,0.2,0.3,0.2,0.8c0,0.6,0.2,1.1,0.5,1.4c0.3,0.3,0.5,0.9,0.8,1.8
			c0.2,0.9,0.3,1.7,0.3,2.5c0,0.9,0.1,1.4,0.4,1.4c0.1,0.1,0.2,0.3,0.2,0.7c0,0.4,0.1,0.6,0.2,0.6c0.2,0.1,0.3,0.6,0.3,1.6
			c0,0.9,0.1,1.4,0.4,1.4c0.2,0,0.4,0.3,0.6,1c0.2,0.7,0.4,1,0.5,1c0.2,0,0.4,0.3,0.4,0.8c0.1,0.7,0.5,1,1.3,1c0.1,0,0.4,0,0.6-0.1
			c0.5-0.1,0.7-0.4,0.7-1.1c0-0.6,0.1-0.9,0.3-0.9c0.2,0,0.3-0.3,0.3-0.9c0-0.6,0.1-0.9,0.3-0.9c0.2-0.1,0.3-0.6,0.3-1.5
			c0-0.9,0.2-1.6,0.6-1.9c0.5-0.5,0.8-0.7,1.1-0.8c0.3-0.1,0.4-0.5,0.4-1.3c0-0.8,0.1-1.2,0.4-1.4c0.2-0.1,0.4-0.6,0.6-1.5
			c0.2-0.9,0.3-1.4,0.4-1.5c0.3-0.2,0.4-0.5,0.4-0.9c0-0.4,0.2-0.6,0.7-0.7c0.4,0,0.6-0.3,0.6-0.7c0-0.2-0.1-0.6-0.1-1
			c0-1,0.2-1.5,0.6-1.5c0.4,0,0.5-0.3,0.5-0.8c0-0.5,0.2-0.9,0.6-1.4c0.4-0.4,0.9-0.7,1.6-0.8c0.8-0.2,1.2-0.6,1.2-1.4
			c0-0.1,0-0.4-0.1-0.7l-0.1-0.6h-3.7c-2.5,0-3.7,0.1-3.7,0.3c0,0.2-0.1,0.3-0.3,0.3c-0.3,0-0.6,0.2-0.9,0.6
			c-0.4,0.5-0.4,0.7-0.2,0.7c0.3,0,0.5,0.1,0.5,0.4c0.1,0.3,0.5,0.4,1.1,0.4c0.6,0,1,0.2,1.1,0.7c0.1,0.5,0.1,0.7-0.1,0.8
			c-0.2,0.1-0.3,0.5-0.3,1.3c0,0.7-0.1,1.2-0.4,1.3c-0.2,0.1-0.3,0.3-0.3,0.7c0,0.1,0.1,0.2,0.1,0.4c0,0.5-0.1,0.9-0.3,1.4
			c-0.2,0.5-0.4,0.8-0.7,0.8c-0.4,0.1-0.5,0.4-0.5,0.9c0,0.5-0.1,0.9-0.3,1.1c-0.2,0.2-0.4,0.8-0.4,1.7c-0.1,1-0.3,1.5-0.6,1.5
			c-0.4,0-0.5,0.2-0.4,0.5c0,0.2,0,0.4,0,0.4c-0.1,0.1-0.2,0.1-0.4,0.1c-0.4,0-0.7-0.1-0.9-0.2c-0.5-0.3-0.7-1.2-0.8-2.9
			c0-0.7-0.1-1.2-0.4-1.4c-0.2-0.2-0.3-0.7-0.3-1.6c0-1.3-0.3-2.2-0.9-2.6c-0.2-0.1-0.2-0.3,0.1-0.4c0.1,0,0.2-0.2,0.3-0.4
			c0.1-0.2,0.1-0.5,0.1-0.7c0-0.2-0.1-0.3-0.2-0.3c-0.1,0-0.3-0.3-0.4-0.8c-0.1-0.6-0.4-0.9-0.7-0.9c-0.3-0.1-0.4-0.2-0.4-0.3
			c0-0.4,0.5-0.5,1.4-0.5c1.3,0,1.9-0.2,1.9-0.7c0-0.2,0.1-0.4,0.3-0.4c0.2,0,0.1-0.3-0.3-0.8c-0.4-0.5-0.9-0.8-1.6-0.8
			c-0.7,0-1.1-0.1-1.2-0.3c-0.1-0.1-0.3-0.1-0.7,0.1c-0.4,0.2-0.6,0.2-0.7-0.1c-0.2-0.2-0.3-0.3-0.4-0.1c-0.1,0.2-0.5,0.3-1.1,0.3
			c-0.4,0-0.6,0-0.8-0.1c-0.1-0.1-0.2-0.3-0.3-0.7c-0.1-0.5-0.3-0.8-0.7-0.8c-0.2,0-0.5,0.2-0.8,0.5c-0.4,0.4-0.7,0.5-1.2,0.5
			c-0.4,0-0.6,0.1-0.6,0.4c0,0.3-0.1,0.4-0.3,0.4s-0.3,0.2-0.3,0.6C218.1,80.1,218.2,80.3,218.4,80.3z"/>
		<path d="M252.9,103.2c0,0.2,0.2,0.3,0.5,0.3c0.4,0,0.6-0.1,0.6-0.2s0.2-0.3,0.6-0.5c0.4-0.2,0.6-0.4,0.6-0.6
			c0-0.9-0.7-1.4-1.9-1.5l-1.3-0.1l0.1-6.7c0.1-4.5,0.2-6.8,0.3-7c0.1-0.1,0.2-0.8,0.3-1.9c0.1-2.1,0.4-3.2,0.7-3.2
			c0.2,0,0.4-0.1,0.4-0.3c0-0.2,0.2-0.3,0.7-0.3c0.4,0,0.8-0.1,1-0.3c0.3-0.2,0.4-0.5,0.4-0.7c0-0.3-0.2-0.6-0.5-0.8
			c-0.3-0.2-1.4-0.3-3.4-0.3c-2,0-2.9,0.1-2.9,0.3c0,0.1-0.3,0.2-0.9,0.2c-0.6,0-0.9,0.1-0.9,0.4c0,0.3-0.1,0.4-0.3,0.4
			s-0.3,0.2-0.3,0.6c0,0.5,0.1,0.8,0.4,0.9c0.3,0.1,0.4,0.9,0.4,2.5c0,1.6,0.1,2.4,0.3,2.5c0.2,0.1,0.3,0.8,0.3,2.2
			c0,1.3-0.1,2-0.3,2.1c-0.2,0.1-0.4,1.5-0.4,4.3c-0.1,2.4-0.2,3.9-0.4,4.3c-0.2,0.5-0.8,0.8-1.8,0.9c-0.6,0-0.9,0.1-1,0.2
			c-0.1,0.1-0.2,0.4-0.2,0.8c0,0.6,0.1,0.9,0.4,0.9c0.3,0,0.6,0.1,0.9,0.4c0.3,0.3,0.5,0.4,0.6,0.2c0.1-0.2,1.5-0.4,4-0.4
			C251.8,102.9,252.9,103,252.9,103.2z M248.6,96.6c-0.3,0-0.4-0.1-0.4-0.3c0-0.2,0.1-0.3,0.4-0.3c0.2,0,0.4,0.1,0.4,0.3
			C249,96.5,248.9,96.6,248.6,96.6z M250.3,89.1c-0.3,0-0.4-0.2-0.4-0.5c0-0.4,0.1-0.6,0.4-0.6c0.3,0,0.4,0.2,0.4,0.6
			C250.7,89,250.5,89.1,250.3,89.1z"/>
		<path d="M270.4,79.3c-0.3-0.2-1.4-0.3-3.4-0.3c-2,0-2.9,0.1-2.9,0.3c0,0.1-0.3,0.2-0.9,0.2c-0.6,0-0.9,0.1-0.9,0.4
			c0,0.3-0.1,0.4-0.3,0.4s-0.3,0.2-0.3,0.6c0,0.5,0.1,0.8,0.4,0.9c0.3,0.1,0.4,0.9,0.4,2.5c0,1.6,0.1,2.4,0.3,2.5
			c0.2,0.1,0.3,0.8,0.3,2.2c0,1.3-0.1,2-0.3,2.1c-0.2,0.1-0.4,1.5-0.4,4.3c-0.1,2.4-0.2,3.9-0.4,4.3c-0.2,0.5-0.8,0.8-1.8,0.9
			c-0.6,0-0.9,0.1-1,0.2c-0.1,0.1-0.2,0.4-0.2,0.8c0,0.6,0.1,0.9,0.4,0.9c0.3,0,0.6,0.1,0.9,0.4c0.3,0.3,0.5,0.4,0.6,0.2
			c0.1-0.2,1.5-0.4,4-0.4c2.1,0,3.2,0.1,3.2,0.3c0,0.2,0.2,0.3,0.5,0.3c0.4,0,0.6-0.1,0.6-0.2s0.2-0.3,0.6-0.5
			c0.4-0.2,0.6-0.4,0.6-0.6c0-0.9-0.7-1.4-1.9-1.5l-1.3-0.1l0.1-6.7c0.1-4.5,0.2-6.8,0.3-7c0.1-0.1,0.2-0.8,0.3-1.9
			c0.1-2.1,0.4-3.2,0.7-3.2c0.2,0,0.4-0.1,0.4-0.3c0-0.2,0.2-0.3,0.7-0.3c0.4,0,0.8-0.1,1-0.3c0.3-0.2,0.4-0.5,0.4-0.7
			C270.8,79.8,270.7,79.5,270.4,79.3z M263.6,96.6c-0.3,0-0.4-0.1-0.4-0.3c0-0.2,0.1-0.3,0.4-0.3c0.2,0,0.4,0.1,0.4,0.3
			C264,96.5,263.9,96.6,263.6,96.6z M265.3,89.1c-0.3,0-0.4-0.2-0.4-0.5c0-0.4,0.1-0.6,0.4-0.6c0.3,0,0.4,0.2,0.4,0.6
			C265.7,89,265.5,89.1,265.3,89.1z"/>
		<path d="M282.9,103.2c0,0.2,0.2,0.3,0.5,0.3c0.4,0,0.6-0.1,0.6-0.2s0.2-0.3,0.6-0.5c0.4-0.2,0.6-0.4,0.6-0.6
			c0-0.9-0.7-1.4-1.9-1.5l-1.3-0.1l0.1-6.7c0.1-4.5,0.2-6.8,0.3-7c0.1-0.1,0.2-0.8,0.3-1.9c0.1-2.1,0.4-3.2,0.7-3.2
			c0.2,0,0.4-0.1,0.4-0.3c0-0.2,0.2-0.3,0.7-0.3c0.4,0,0.8-0.1,1-0.3c0.3-0.2,0.4-0.5,0.4-0.7c0-0.3-0.2-0.6-0.5-0.8
			c-0.3-0.2-1.4-0.3-3.4-0.3c-2,0-2.9,0.1-2.9,0.3c0,0.1-0.3,0.2-0.9,0.2c-0.6,0-0.9,0.1-0.9,0.4c0,0.3-0.1,0.4-0.3,0.4
			s-0.3,0.2-0.3,0.6c0,0.5,0.1,0.8,0.4,0.9c0.3,0.1,0.4,0.9,0.4,2.5c0,1.6,0.1,2.4,0.3,2.5c0.2,0.1,0.3,0.8,0.3,2.2
			c0,1.3-0.1,2-0.3,2.1c-0.2,0.1-0.4,1.5-0.4,4.3c-0.1,2.4-0.2,3.9-0.4,4.3c-0.2,0.5-0.8,0.8-1.8,0.9c-0.6,0-0.9,0.1-1,0.2
			c-0.1,0.1-0.2,0.4-0.2,0.8c0,0.6,0.1,0.9,0.4,0.9c0.3,0,0.6,0.1,0.9,0.4c0.3,0.3,0.5,0.4,0.6,0.2c0.1-0.2,1.5-0.4,4-0.4
			C281.8,102.9,282.9,103,282.9,103.2z M280.3,88c0.3,0,0.4,0.2,0.4,0.6c0,0.4-0.1,0.5-0.4,0.5c-0.3,0-0.4-0.2-0.4-0.5
			C279.9,88.2,280,88,280.3,88z M278.6,96.6c-0.3,0-0.4-0.1-0.4-0.3c0-0.2,0.1-0.3,0.4-0.3c0.2,0,0.4,0.1,0.4,0.3
			C279,96.5,278.9,96.6,278.6,96.6z"/>
		<path d="M129.3,792.1c0,0,0.1,0,0.1-0.1c0.1-0.2,0.1-0.3,0-0.3c-0.1,0-0.2,0.1-0.2,0.2C129.1,792,129.2,792.1,129.3,792.1z"/>
		<path d="M139.4,790.2c-0.1,0-0.3,0.2-0.5,0.5c-0.3,0.3-0.4,0.6-0.4,0.7c0,0.1-0.1,0.2-0.4,0.2c-0.1,0-0.2,0-0.3,0.1
			c0,0-0.1,0.1-0.1,0.1c0,0,0,0.1,0,0.3c0,0.2-0.1,0.3-0.4,0.3c0,0-0.1,0-0.1,0c-0.1,0-0.1,0-0.2,0c-0.2,0-0.4,0.1-0.6,0.3
			c-0.2,0.2-0.4,0.3-0.6,0.3c-0.1,0-0.2-0.1-0.2-0.2c0-0.1-0.1-0.1-0.4,0c-0.2,0.1-0.6,0.2-1.2,0.2c-0.5,0-0.7,0-0.7-0.1
			c0-0.1-0.1-0.1-0.2-0.1c-0.1,0-0.1-0.1-0.2-0.2s-0.1-0.3-0.1-0.4c0-0.1,0-0.2,0-0.3c0-0.2,0-0.4,0-0.6c0-0.3,0-0.5,0-0.8
			c0-0.3,0-0.5,0-0.8c0-0.3,0-0.5,0-0.6v-0.2c0-0.1,0.4-0.1,1.3-0.1c0.7,0,1.2,0.1,1.4,0.2c0.2,0.1,0.4,0.4,0.4,0.8
			c0,0.2,0,0.3,0.1,0.3c0,0,0.1,0,0.2,0c0.1-0.1,0.3-0.1,0.5-0.1c0.1,0,0.2,0,0.3-0.1c0-0.1,0.1-0.2,0.1-0.5c0-0.1,0-0.2,0-0.3
			c0-0.2,0-0.3,0-0.4v-0.2c0-0.3,0-0.6,0.1-0.7c0.1-0.1,0.1-0.3,0-0.4c-0.1-0.1-0.1-0.3,0.1-0.4c0.1-0.1,0.2-0.2,0.2-0.4
			c0-0.3-0.3-0.4-1-0.4c-0.4,0-0.6,0.2-0.6,0.5c0,0.1,0,0.2,0.1,0.3c0,0.2,0,0.4,0,0.5c-0.1,0.1-0.3,0.2-0.9,0.3
			c-0.5,0.1-1,0.1-1.5,0.1H133v-0.6c0-0.4,0.1-0.6,0.2-0.6c0.1,0,0.2-0.1,0.2-0.4c0-0.3-0.1-0.5-0.2-0.9c-0.1-0.2-0.2-0.4-0.1-0.4
			c0-0.1,0.1-0.1,0.2-0.3c0.2-0.1,0.3-0.3,0.2-0.5c0,0,0-0.1,0-0.2c0-0.1,0.1-0.3,0.4-0.3c0.3-0.1,0.7-0.1,1.5-0.2
			c0.7,0,1.1-0.1,1.1-0.1c0.3,0,0.5,0.1,0.6,0.2c0.1,0.2,0.3,0.3,0.5,0.4c0.2,0.1,0.3,0.2,0.3,0.3c0,0.1,0.1,0.2,0.3,0.3
			c0.2,0.1,0.3,0.2,0.3,0.3c0,0.2,0.1,0.3,0.3,0.5c0.2,0.2,0.4,0.2,0.6,0.2h0c0.3,0,0.4-0.2,0.4-0.6c0-0.2-0.1-0.3-0.2-0.5
			c-0.1-0.1-0.2-0.3-0.2-0.5c0-0.3-0.1-0.5-0.2-0.5c-0.1,0-0.1-0.1,0-0.4c0.1-0.1,0.1-0.2,0.1-0.3c0,0-0.1-0.1-0.1-0.1
			c-0.1-0.1-0.2-0.2-0.2-0.3c0-0.1-0.1-0.3-0.3-0.5c-0.2-0.2-0.4-0.3-0.6-0.1c-0.3,0.1-1.8,0.3-4.7,0.4h-0.7c-1.5,0-2.2-0.1-2.3-0.3
			c0-0.1-0.1-0.1-0.2-0.1c-0.1,0-0.2,0-0.2,0.1l0,0.1c0,0.1,0,0.1,0,0.1c0,0,0,0.1,0,0.2c0,0.1,0,0.2,0,0.2c0,0.2-0.1,0.3-0.3,0.3
			c-0.2,0.1-0.3,0.2-0.2,0.5c0.1,0.2,0.1,0.4,0.2,0.5c0.1,0.1,0.2,0.1,0.3,0.1c0.1,0,0.3,0,0.4,0c0.1,0,0.2,0,0.4,0
			c0.3,0,0.5,0.1,0.6,0.4c0.1,0.2,0.1,0.7,0.1,1.4c0,0.9-0.1,1.4-0.2,1.4c-0.1,0-0.1,0.2,0,0.4c0.1,0.2,0.1,0.4,0,0.6
			c-0.1,0.2-0.2,0.3-0.3,0.3c-0.1,0-0.1,0.1,0.1,0.2c0.1,0.1,0.1,0.3,0.1,0.6c0,0.5-0.1,1.5-0.2,2.8l-0.1,0.9h-0.6
			c-0.4,0-0.6,0.1-0.6,0.3c0,0.2-0.1,0.3-0.3,0.3c-0.1,0-0.2,0.1-0.2,0.3c0,0.3,0.1,0.5,0.3,0.6c0.2,0.1,0.3,0.2,0.3,0.4
			c0,0.1,0.2,0.1,0.7,0.1c0.5,0,0.8-0.1,0.9-0.3c0.1-0.1,0.5-0.2,1.2-0.2c0.5,0,0.9,0,1.3,0c0.7,0,1.1,0.1,1.2,0.2
			c0,0.1,0.2,0.1,0.4,0c0.2-0.1,0.7-0.2,1.5-0.2c0.8,0,1.3,0,1.5-0.1c0.2,0,0.3-0.1,0.5-0.3c0.2-0.2,0.3-0.3,0.2-0.5
			c0-0.2,0-0.3,0.1-0.4c0.1-0.1,0.2-0.3,0.2-0.8c0-0.3,0-0.5,0-0.6c0-0.1,0.1-0.1,0.2-0.1c0.2,0,0.3-0.2,0.3-0.5
			c0-0.2-0.1-0.4-0.2-0.6C139.7,790.3,139.6,790.2,139.4,790.2z"/>
		<path d="M151.1,781.9c-1,0-1.5,0-1.5,0.1c0,0.1-0.2,0.1-0.5,0.1c-0.3,0-0.5,0.1-0.5,0.2c0,0.1,0,0.2-0.1,0.2
			c-0.1,0-0.1,0.1-0.1,0.3c0,0.3,0.1,0.4,0.2,0.5c0.1,0.1,0.2,0.5,0.2,1.3c0,0.8,0,1.2,0.1,1.3c0.1,0,0.1,0.4,0.1,1.1
			c0,0.7,0,1-0.1,1.1c-0.1,0-0.2,0.8-0.2,2.2c0,1.2-0.1,2-0.2,2.2c-0.1,0.2-0.4,0.4-0.9,0.5c-0.3,0-0.5,0.1-0.5,0.1
			c-0.1,0.1-0.1,0.2-0.1,0.4c0,0.3,0.1,0.5,0.2,0.5c0.2,0,0.3,0.1,0.5,0.2c0.2,0.2,0.3,0.2,0.3,0.1c0.1-0.1,0.8-0.2,2.1-0.2
			c1.1,0,1.6,0.1,1.6,0.2c0,0.1,0.1,0.1,0.3,0.1c0.2,0,0.3,0,0.3-0.1c0-0.1,0.1-0.2,0.3-0.3c0.2-0.1,0.3-0.2,0.3-0.3
			c0-0.5-0.4-0.7-1-0.8l-0.6-0.1l0.1-3.5c0-2.3,0.1-3.5,0.2-3.6c0.1-0.1,0.1-0.4,0.1-1c0.1-1.1,0.2-1.6,0.4-1.6c0.1,0,0.2,0,0.2-0.1
			c0-0.1,0.1-0.2,0.4-0.2c0.2,0,0.4-0.1,0.5-0.2c0.1-0.1,0.2-0.2,0.2-0.4c0-0.2-0.1-0.3-0.2-0.4C152.8,782,152.2,781.9,151.1,781.9z
			 M149.4,790.9c-0.1,0-0.2,0-0.2-0.1c0-0.1,0.1-0.1,0.2-0.1c0.1,0,0.2,0,0.2,0.1C149.6,790.9,149.6,790.9,149.4,790.9z
			 M150.3,787.1c-0.1,0-0.2-0.1-0.2-0.3c0-0.2,0.1-0.3,0.2-0.3c0.1,0,0.2,0.1,0.2,0.3C150.5,787,150.4,787.1,150.3,787.1z"/>
		<path d="M169.5,790.1c-0.3,0-0.5,0-0.6,0c-0.7,0-1.1,0-1.3,0.1c-0.2,0.1-0.4,0.2-0.4,0.3c0,0.1-0.1,0.2-0.1,0.3
			c0,0.2,0.1,0.3,0.3,0.4c0.2,0.1,0.5,0.2,0.9,0.2c0.7,0.1,1,0.2,1,0.3c0,0-0.1,0.2-0.2,0.5c-0.1,0.3-0.3,0.5-0.5,0.5
			c-0.2,0-0.4,0.1-0.6,0.4c-0.1,0.2-0.2,0.3-0.3,0.3c0,0-0.1,0-0.1-0.1c0-0.1-0.1-0.1-0.1-0.1c-0.1,0-0.2,0-0.3,0.1
			c-0.1,0.1-0.4,0.2-0.8,0.2c-0.3,0-0.5,0-0.7,0c-0.6,0-1.1-0.1-1.2-0.2c-0.2-0.1-0.3-0.3-0.3-0.6c0-0.2-0.1-0.4-0.3-0.5
			c-0.2-0.1-0.3-0.2-0.3-0.4s0-0.2-0.1-0.2c-0.3,0-0.5-0.5-0.7-1.4c-0.1-0.7-0.2-1-0.3-1c-0.1,0-0.1-0.1-0.1-0.2s0-0.2,0.1-0.3
			c0.2,0,0.3-0.7,0.3-1.9c0-0.2,0.1-0.2,0.3-0.2c0.2,0,0.3-0.1,0.3-0.2c0-0.1,0-0.2-0.2-0.4c-0.1-0.1-0.1-0.2,0-0.2
			c0.2,0,0.4-0.1,0.6-0.2c0.2-0.1,0.4-0.3,0.4-0.4c0-0.1,0.1-0.3,0.3-0.4c0.2-0.1,0.4-0.2,0.7-0.2c0.2,0,0.3-0.1,0.3-0.2
			c0-0.1,0.2-0.2,0.7-0.2c0.1,0,0.2,0,0.4,0c0.5,0,0.9,0.2,1.1,0.5c0.1,0.2,0.4,0.3,0.6,0.4c0.2,0.1,0.4,0.2,0.4,0.3v0.2
			c0,0.1,0,0.2,0.1,0.3c0.1,0.1,0.2,0.2,0.3,0.5c0.1,0.2,0.1,0.3,0.2,0.4c0.1,0.1,0.2,0.1,0.5,0.1c0.2,0,0.3,0.1,0.4,0.1
			c0.1,0,0.2-0.1,0.3-0.4c0.1-0.2,0.1-0.5,0.1-0.9c0-0.3,0-0.5,0.1-0.5c0.1,0,0.1-0.1,0.1-0.2c0-0.3-0.1-0.6-0.2-0.9
			c-0.1-0.1-0.1-0.2-0.2-0.3c-0.1,0-0.4,0-0.8,0c-0.6,0-1,0-1.1-0.1c-0.1-0.1-0.8-0.2-2.1-0.2c-0.6,0-0.9,0-1.1,0.1
			c-0.7,0.1-1.1,0.2-1.2,0.3c-0.2,0.1-0.7,0.5-1.6,1.3c-0.8,0.8-1.2,1.2-1.2,1.3c0,0.1-0.1,0.2-0.2,0.4c-0.1,0.2-0.2,0.4-0.2,0.6
			c0,0.3,0,0.4-0.1,0.5c-0.1,0.1-0.2,0.2-0.2,0.3c0,0.2-0.1,0.3-0.2,0.4c-0.1,0.1-0.2,0.6-0.2,1.4c0,1,0.1,1.5,0.2,1.6
			c0.1,0,0.1,0.1,0.1,0.2s0,0.2-0.1,0.2c-0.1,0,0,0.2,0.2,0.4c0.3,0.2,0.4,0.4,0.5,0.4c0.1,0,0.1,0.1,0.2,0.3
			c0.1,0.2,0.2,0.4,0.6,0.7c0.3,0.3,0.6,0.5,0.8,0.6c0.2,0.1,0.2,0.1,0.2,0.2c0,0.1,0.3,0.2,1,0.3c0.6,0.1,1.3,0.1,2.1,0.1
			c1,0,1.6-0.1,1.8-0.3c0.1-0.1,0.3-0.2,0.6-0.3c0.4-0.1,0.6-0.2,0.7-0.2c0,0,0.1,0,0.1,0c0,0-0.1,0.2-0.2,0.5
			c-0.1,0.3-0.2,0.5-0.2,0.5c0,0.2,0.2,0.3,0.6,0.3c0.2,0,0.4,0,0.6,0c1-0.1,1.5-0.2,1.5-0.4c0-0.1-0.1-0.3-0.4-0.5
			c-0.2-0.1-0.3-0.3-0.3-0.4c0-0.2-0.1-0.6-0.1-1.2l-0.1-1.3l0.5,0.1c0.3,0,0.5,0,0.6-0.2c0.1-0.2,0.3-0.3,0.6-0.3
			c0.3,0,0.4-0.1,0.4-0.1c0-0.1,0.1-0.2,0.1-0.5v-0.6l-2.4-0.1C170,790.1,169.8,790.1,169.5,790.1z"/>
		<path d="M192.9,782.6c-0.2-0.1-0.5-0.1-0.8-0.1c-0.1,0-0.2,0-0.5,0.1c-0.3,0.1-0.5,0.1-0.7,0.1h-0.1h-0.2c-0.2,0-0.5,0-1,0.1
			c-0.4,0-0.7,0.1-0.8,0.1c-0.1,0-0.2,0.1-0.2,0.2c0,0.2,0,0.3-0.1,0.3c-0.1,0-0.1,0-0.1,0.1c0,0.1,0,0.2,0,0.3
			c0,0.1,0.1,0.2,0.2,0.2c0.1,0.1,0.2,0.5,0.2,1.3c0,0.8,0.1,1.2,0.2,1.2c0.1,0,0.1,0.3,0.1,0.8v0.8h-1.3c-0.8,0-1.7,0-2.7-0.1
			l-1.4-0.1v-0.7c0-0.4,0-0.7,0.1-0.7c0.1,0,0.1-0.3,0.2-0.9c0-1.1,0.1-1.6,0.4-1.6c0.1,0,0.2,0,0.2-0.1c0-0.1,0.1-0.2,0.4-0.2
			c0.2,0,0.4-0.1,0.5-0.2c0.1-0.1,0.2-0.2,0.2-0.4c0-0.2-0.1-0.3-0.2-0.4c-0.2-0.1-0.5-0.2-1-0.2c-0.3,0-0.4,0-0.5,0.1
			c0,0-0.5,0.1-1.3,0.1c-0.9,0.1-1.7,0.2-2.4,0.5c-0.1,0-0.2,0.1-0.2,0.2c0,0.1,0.2,0.2,0.6,0.4l0.6,0.3l0,0.8v0.9v0.3
			c0,0.2,0,0.4,0.1,0.4c0.1,0.1,0.2,0.5,0.2,1.1c0,0.6-0.1,1.1-0.2,1.4c-0.1,0.3-0.2,0.6-0.2,0.8c0,0,0,0,0,0.1c0,0,0,0.1,0,0.1
			c0,0.2,0.1,0.4,0.1,0.6c0,0.5,0,1.1-0.1,1.8c-0.1,0.6-0.2,1-0.2,1.2c-0.1,0.2-0.4,0.3-0.8,0.3c-0.3,0-0.5,0.1-0.6,0.1
			c-0.1,0.1-0.1,0.2-0.1,0.4v0.5l0.7-0.1c0.3-0.1,1-0.1,2.2-0.1h0.7h0.7c1,0,1.6,0,1.6-0.1c0-0.1-0.1-0.3-0.2-0.5
			c-0.2-0.2-0.3-0.3-0.4-0.3h-0.1c-0.2,0.1-0.4,0.1-0.6-0.1c-0.1-0.1-0.2-0.1-0.3-0.2c0-0.1-0.1-0.2-0.1-0.4c0-0.3,0-0.5,0-0.8
			c0-0.9,0.1-1.6,0.1-2.1v-0.8h4.9l0.1,0.4c0,0.2,0.1,0.5,0.1,0.7c0,0.5,0,1.1-0.1,1.7c-0.1,0.6-0.2,1-0.3,1
			c-0.1,0.1-0.4,0.2-0.8,0.3c-0.3,0-0.5,0.1-0.5,0.1c-0.1,0.1-0.1,0.2-0.1,0.4c0,0.3,0.1,0.5,0.3,0.5c0.3,0.1,1.3,0.1,3.1,0.1
			c1.3,0,2,0,2.1-0.1c0.2-0.1,0.3-0.2,0.3-0.4c0-0.2-0.1-0.3-0.2-0.5c-0.1-0.2-0.3-0.2-0.4-0.2c0,0-0.1,0-0.1,0
			c-0.1,0.1-0.3,0.1-0.5,0l-0.4-0.1l0.1-3.5c0-2.3,0.1-3.5,0.2-3.6c0.1,0,0.1-0.3,0.1-0.9c0.1-1.1,0.2-1.6,0.4-1.6
			c0.1,0,0.2,0,0.2-0.1c0-0.1,0.1-0.2,0.4-0.2c0.2,0,0.4-0.1,0.5-0.2c0.2-0.1,0.2-0.3,0.2-0.4C193.3,782.8,193.2,782.7,192.9,782.6z
			 M182.1,791.5c-0.2-0.1-0.3-0.1-0.3-0.2c0-0.1,0-0.1,0.1-0.1c0.2,0,0.3,0.1,0.4,0.2c0,0,0,0,0,0.1
			C182.3,791.6,182.2,791.6,182.1,791.5z M182.8,791.5c-0.1,0-0.1-0.1-0.1-0.2c0-0.1,0-0.2,0.1-0.2c0.1,0,0.2,0.1,0.2,0.2
			C182.9,791.4,182.9,791.5,182.8,791.5z M182.8,787.8c-0.1,0-0.2-0.1-0.2-0.3c0-0.3,0.1-0.4,0.2-0.4c0.2,0,0.2,0.1,0.2,0.3
			C183,787.7,182.9,787.8,182.8,787.8z M189.9,791.5c-0.1,0.1-0.2,0.1-0.4,0c-0.2-0.1-0.3-0.1-0.3-0.2c0-0.1,0.1-0.1,0.2-0.1
			c0.3,0,0.5,0.1,0.5,0.2C190,791.5,190,791.5,189.9,791.5z M190.3,791.5c-0.1,0-0.2-0.1-0.2-0.2c0-0.1,0.1-0.2,0.2-0.2
			c0.1,0,0.1,0.1,0.1,0.2C190.4,791.4,190.4,791.5,190.3,791.5z M190.3,787.8c-0.1,0-0.2-0.1-0.2-0.3c0-0.3,0.1-0.4,0.2-0.4
			c0.1,0,0.2,0.1,0.2,0.3C190.5,787.7,190.4,787.8,190.3,787.8z"/>
		<path d="M212,785.3c0.1,0,0.2-0.2,0.2-0.5c0-0.2,0-0.4-0.1-0.4c-0.1,0-0.1-0.1-0.1-0.3c0-0.2,0.1-0.4,0.2-0.6
			c0.1-0.3,0.1-0.5-0.2-0.6c-0.2-0.2-0.5-0.3-0.9-0.3c-0.5,0-0.8,0.1-1.1,0.4c-0.3,0.2-0.4,0.3-0.5,0.2c-0.1-0.1-0.4-0.1-0.8,0
			c-0.5,0.1-1.4,0.2-2.6,0.2c-0.9,0-1.4,0-1.5-0.1c-0.1-0.1-0.2,0-0.4,0.2c-0.1,0.1-0.3,0.2-0.4,0.2c-0.2,0-0.4,0-0.7-0.1
			c-0.7-0.2-1.1-0.2-1.3-0.2c-0.1,0-0.2,0-0.2,0c-0.1,0-0.3,0.1-0.4,0.3c-0.1,0.2-0.2,0.4-0.2,0.5c0,0.1,0,0.1,0.1,0.2
			c0,0,0.1,0.2,0.1,0.5c0,0.1,0,0.2-0.1,0.3c-0.1,0-0.2,0.1-0.3,0.1c-0.3,0-0.5,0.1-0.5,0.3c0,0,0,0.1,0.1,0.2
			c0.1,0.1,0.1,0.3,0.1,0.6c0,0.3-0.1,0.4-0.1,0.5c0,0.5,0.2,0.8,0.6,0.8c0.3,0,0.4-0.1,0.4-0.2c0-0.1,0.1-0.2,0.2-0.2
			c0.1,0,0.1,0,0.2-0.1c0,0,0-0.1,0-0.2c0-0.1-0.1-0.2-0.2-0.2c-0.1-0.1-0.1-0.1-0.1-0.2c0,0,0-0.1,0-0.1c0,0,0-0.1,0.1-0.1
			c0,0,0.1,0,0.2-0.1c0.2-0.1,0.2-0.2,0.2-0.3c0,0,0-0.1,0-0.2c0-0.1,0-0.1,0-0.2c0-0.1,0-0.2,0.1-0.2c0.1-0.1,0.1-0.3,0-0.6
			c-0.1-0.3-0.1-0.4,0-0.4c0.1,0,0.1,0.1,0.1,0.2c0,0.1,0.2,0.2,0.5,0.4c0.4,0.1,0.7,0.2,1.1,0.2c0.4,0,0.7,0.1,0.8,0.3
			c0.2,0.2,0.3,0.2,0.5,0.2c0.1,0,0.1,0,0.1,0c0.1,0,0.1,0,0,0.1c-0.3,0.3-0.4,2.2-0.5,5.8c0,0.8-0.1,1.2-0.3,1.4
			c-0.2,0.1-0.3,0.3-0.3,0.4c0,0.1-0.3,0.2-0.8,0.2l-0.7,0.1l-0.1,0.5c0,0,0,0.1,0,0.1c0,0,0,0.1,0,0.1c0,0.2,0.1,0.4,0.4,0.7
			c0.3,0.3,0.5,0.4,0.7,0.4c0.1,0,0.1,0,0.1-0.1c0-0.1,0-0.1-0.1-0.1c-0.1,0-0.1,0-0.1-0.1c0-0.1,0.2-0.1,0.5-0.1c0.1,0,0.4,0,0.8,0
			c0.4,0,0.7,0,0.9,0c0.6,0,0.9-0.1,1.1-0.2c0.1-0.1,0.3-0.2,0.6-0.1c0.2,0.1,0.3,0,0.4-0.1c0.1-0.1,0.2-0.1,0.3-0.1
			c0.1,0,0.3-0.1,0.5-0.2c0.1-0.1,0.2-0.2,0.2-0.3c0-0.1-0.1-0.2-0.2-0.5c-0.2-0.3-0.3-0.4-0.5-0.4c-0.1,0-0.2-0.1-0.2-0.2
			c0-0.1-0.1-0.2-0.3-0.1c0,0-0.1,0-0.1,0c-0.1,0-0.1,0-0.1,0c-0.1,0-0.2,0-0.3-0.1c0-0.1-0.1-0.3-0.1-0.5v-0.4c0-0.5,0-0.8,0-0.9
			c0-0.1,0.1-0.2,0.2-0.2c0.2,0,0.2-0.1,0.2-0.4c0-0.3-0.1-0.5-0.2-0.5c-0.1,0-0.2-0.4-0.2-1.1c0-0.8,0.1-1.2,0.2-1.4
			c0.1-0.1,0.2-0.5,0.2-1.2c0-0.7,0.1-1,0.1-1.1c0.1-0.2,0.5-0.2,1.2-0.2c1,0,1.5,0.1,1.6,0.4c0,0.1,0.1,0.2,0.4,0.5
			c0.2,0.2,0.3,0.4,0.3,0.8c0,0.3,0.1,0.5,0.1,0.5c0,0.1,0.2,0.1,0.4,0.1c0.2,0,0.4,0,0.4-0.1c0-0.1,0.1-0.2,0.3-0.2
			c0.2-0.1,0.3-0.2,0.3-0.4c0-0.2-0.1-0.4-0.2-0.5C211.9,785.4,211.9,785.3,212,785.3z"/>
		<path d="M243.6,785.7c-0.2-0.1-0.2-0.2-0.2-0.5c0-0.3,0-0.5-0.1-0.5c-0.1,0-0.1-0.1-0.1-0.4c0-0.3-0.1-0.4-0.2-0.4
			c-0.1,0-0.2-0.1-0.3-0.3c-0.1-0.2-0.2-0.3-0.3-0.4c-0.1-0.1-0.2-0.2-0.2-0.4c0-0.2-0.1-0.3-0.4-0.3c-0.7,0-1-0.1-1-0.4
			c0-0.1-0.1-0.2-0.2-0.2c-0.1,0-0.2,0-0.2-0.1c0-0.1-0.1-0.1-0.3-0.1c-0.2,0-0.3-0.1-0.4-0.2c0-0.1-0.5-0.2-1.5-0.2
			c-0.9,0-1.5,0.1-1.6,0.2c-0.1,0.1-0.2,0.2-0.4,0.2c-0.2,0-0.3,0.1-0.4,0.3c-0.1,0.2-0.3,0.4-0.6,0.4c-0.3,0-0.6,0.1-1.1,0.2
			c-0.5,0.1-0.7,0.3-0.8,0.5c0,0.2-0.2,0.4-0.5,0.7c-0.3,0.3-0.4,0.5-0.4,0.5c0,0.1-0.1,0.1-0.2,0.1c-0.1,0-0.2,0.1-0.3,0.4
			c-0.1,0.2-0.2,0.5-0.3,0.7c-0.2,0.3-0.2,0.8-0.2,1.8c0,1.2,0.1,2.1,0.4,2.9c0.5,1.4,0.9,2.2,1.2,2.3c0.2,0,0.3,0.1,0.3,0.3
			c0,0.2,0.2,0.2,0.4,0.2c0.2,0,0.4,0,0.4,0.1s0.1,0.1,0.3,0.1c0.2,0,0.3,0.1,0.3,0.4c0,0.2,0,0.3,0.1,0.4c0.1,0.1,0.2,0,0.4-0.1
			c0.1-0.1,0.2-0.1,0.3,0c0.2,0.1,0.9,0.2,2.2,0.2c1.1,0,1.7-0.1,1.7-0.2c0-0.1,0.3-0.2,0.7-0.2c0.4,0,0.6-0.1,0.6-0.2
			c0-0.2,0.1-0.3,0.2-0.3c0,0,0.2-0.1,0.4-0.3c0.3-0.2,0.4-0.3,0.5-0.3c0.1,0,0.2-0.1,0.2-0.3c0.1-0.2,0.2-0.3,0.3-0.3
			c0.1,0,0.2-0.1,0.3-0.3c0-0.2,0.2-0.3,0.4-0.3c0.2-0.1,0.3-0.1,0.3-0.2c0-0.1,0.1-0.1,0.2-0.1c0.1,0,0.2-0.2,0.2-0.6
			c0-0.3,0-0.5-0.1-0.5c-0.1,0-0.1-0.1,0-0.2c0.1-0.1,0.2-0.8,0.2-2.1c0-0.3,0-0.7,0-1.1C243.9,786,243.8,785.7,243.6,785.7z
			 M241.4,788.8c-0.1,0-0.2,0.2-0.2,0.4c0,0.3-0.1,0.4-0.2,0.5c-0.1,0.1-0.2,0.4-0.3,0.8c-0.1,0.4-0.1,0.6-0.3,0.6
			c-0.1,0-0.2,0-0.2,0.1c0,0.1-0.1,0.2-0.4,0.2c-0.3,0.1-0.4,0.2-0.4,0.3c0,0.1,0,0.2-0.1,0.2c-0.1,0.1-0.2,0.1-0.4,0.2
			c-0.1,0.1-0.2,0.1-0.3,0.1c0,0.1-0.2,0.1-0.4,0.1c-0.2,0-0.3,0.1-0.5,0.2c-0.1,0.1-0.2,0.1-0.4,0.1c-0.2,0-0.4,0-0.7-0.1
			c-0.5-0.1-1-0.3-1.3-0.6c-0.3-0.3-0.7-0.8-1-1.5c-0.3-0.5-0.4-0.9-0.5-1.1c0-0.2-0.1-0.7-0.1-1.4c0-0.7,0-1.1,0.1-1.4
			c0-0.2,0.1-0.5,0.3-0.8c0.3-0.5,0.6-0.9,1-1.3c0.4-0.4,0.8-0.6,1-0.7c0.3,0,0.5-0.1,0.5-0.3c0-0.1,0.1-0.2,0.2-0.2
			c0.1,0,0.2,0,0.2-0.1c0-0.1,0.1-0.1,0.3-0.1c0.2,0,0.3,0,0.3,0.1c0,0.1,0.3,0.1,0.9,0.1c0.5,0,0.8,0.1,0.8,0.2
			c0,0.1,0.1,0.2,0.3,0.3c0.2,0.1,0.3,0.2,0.3,0.3c0,0.1,0.1,0.2,0.3,0.3c0.3,0.1,0.5,0.4,0.5,0.8c0,0.2,0.1,0.5,0.3,0.8
			c0.2,0.3,0.3,0.7,0.3,1.1c0,0.5,0,0.7,0.1,0.8c0.1,0.1,0.1,0.2,0.1,0.4C241.6,788.6,241.6,788.7,241.4,788.8z"/>
		<path d="M261.4,783.9c0-0.3-0.1-0.5-0.2-0.6c-0.1-0.1-0.1-0.2,0-0.4c0.1-0.1,0.1-0.2,0.1-0.2c0-0.1-0.1-0.2-0.2-0.2
			c-0.1-0.1-0.2-0.2-0.2-0.3c0-0.2-0.1-0.3-0.3-0.5c-0.2-0.2-0.4-0.3-0.5-0.3c-0.1,0-0.2,0-0.2,0.1c0,0.1-0.3,0.1-0.9,0.2
			c-0.5,0.1-1.1,0.1-1.7,0.1c-0.6,0-0.9,0-1,0.1c-0.1,0-0.5,0.1-1.4,0.1c-0.9,0.1-1.8,0.2-2.7,0.3c-0.9,0.1-1.4,0.2-1.4,0.2
			c0,0,0,0.1,0,0.2c0,0.1,0,0.2,0.1,0.3c0.1,0.2,0.1,0.3,0.2,0.4c0.1,0,0.3,0.1,0.6,0.1c0.5,0,0.9,0.1,1,0.3
			c0.1,0.2,0.2,0.7,0.2,1.6c0,0.9-0.1,1.4-0.2,1.5c-0.1,0.1-0.1,0.2,0,0.4c0.1,0.3,0.2,0.5,0,0.7c-0.1,0.2-0.2,0.3-0.3,0.3
			c-0.1,0,0,0.1,0.1,0.2c0.1,0.1,0.1,0.3,0.1,0.6c0,0.1,0,0.4-0.1,0.8c-0.1,1.4-0.2,2.3-0.2,2.6s-0.1,0.5-0.3,0.6
			c-0.2,0.1-0.5,0.3-0.8,0.6l-0.5,0.6h5v-0.5c0-0.2,0-0.4-0.1-0.4c0-0.1-0.1-0.1-0.3-0.1c-0.2,0-0.4,0-0.4-0.1
			c0-0.1-0.1-0.1-0.2-0.1s-0.2-0.1-0.3-0.3c0-0.1,0-0.4,0-1.2c0-1.2,0-2.1,0.1-2.8c0-0.1,0.5-0.1,1.4-0.1c0.8,0,1.3,0.1,1.5,0.2
			c0.3,0.1,0.4,0.4,0.4,0.9c0,0.3,0,0.5,0.1,0.5c0.1,0,0.1-0.1,0.3-0.2c0.1-0.1,0.3-0.2,0.5-0.1c0.2,0.1,0.3,0,0.3-0.2
			c0-0.2,0-0.3,0.1-0.4c0.1-0.1,0.1-0.2,0-0.2c-0.1-0.1-0.2-0.3-0.2-0.6c0-0.4,0.1-0.7,0.2-0.8c0.1-0.1,0.1-0.1,0.1-0.2
			c0-0.1,0-0.1-0.1-0.2c-0.1-0.1-0.1-0.2-0.1-0.2c0-0.1,0-0.1,0.1-0.2c0.2-0.1,0.2-0.2,0.2-0.4c0-0.3-0.4-0.4-1.1-0.4
			c-0.4,0-0.6,0.2-0.6,0.5c0,0.1,0,0.2,0.1,0.3c0.1,0.2,0,0.4,0,0.5c-0.1,0.1-0.4,0.2-1,0.3c-0.6,0.1-1.1,0.2-1.6,0.2h-0.5v-0.6
			c0-0.4,0.1-0.6,0.2-0.7c0.1-0.1,0.2-0.2,0.2-0.4c0-0.3-0.1-0.5-0.2-0.8c-0.1-0.2-0.2-0.4-0.2-0.4s0.1-0.1,0.2-0.3
			c0.2-0.2,0.3-0.4,0.2-0.6c0-0.1,0-0.1,0-0.2c0-0.1,0.1-0.2,0.4-0.3c0.3-0.1,0.8-0.1,1.6-0.1c0.7,0,1.1-0.1,1.1-0.1
			c0.3,0,0.5,0.1,0.7,0.2c0.2,0.2,0.3,0.3,0.5,0.4c0.2,0.1,0.3,0.2,0.3,0.3c0,0.1,0.1,0.3,0.3,0.4c0.2,0.1,0.4,0.3,0.5,0.6
			c0.1,0.4,0.4,0.5,0.8,0.5c0.1,0,0.2,0,0.3-0.1c0.1-0.1,0.2-0.2,0.2-0.6c0-0.3-0.1-0.5-0.2-0.5
			C261.5,784.4,261.4,784.2,261.4,783.9z"/>
		<path d="M297,782.4c-0.1,0-0.3,0-0.5,0c-0.2,0-0.4,0-0.4,0c-0.4,0-0.6,0-0.7,0.1c-0.1,0-0.3,0.1-0.4,0.3c-0.2,0.2-0.3,0.3-0.3,0.4
			c0,0.1,0,0.1,0.2,0.2c0.3,0.2,0.5,0.2,0.7,0.2c0.3,0,0.4,0.1,0.5,0.3c0.1,0.2,0,0.3-0.1,0.4c-0.1,0-0.2,0.2-0.2,0.6
			c0,0.4-0.1,0.6-0.2,0.6c-0.2,0.1-0.2,0.2-0.2,0.4v0.4c0,0.6-0.1,0.9-0.3,0.9c-0.1,0-0.2,0.1-0.3,0.3c0,0.2-0.1,0.7-0.3,1.5
			c-0.1,0.4-0.2,0.6-0.4,0.6c-0.1,0-0.2,0.1-0.2,0.2c0,0.1,0,0.2-0.2,0.2c-0.3,0-0.4-0.1-0.5-0.2c-0.1-0.2-0.2-0.5-0.3-0.9
			c-0.1-0.4-0.2-1-0.2-1.7c-0.1-0.5-0.2-0.8-0.3-0.9c-0.1-0.1-0.1-0.4-0.1-0.7c0-0.3,0-0.5-0.1-0.5c-0.1,0-0.1-0.1-0.1-0.4
			c0-0.2-0.1-0.4-0.2-0.5c-0.1-0.1-0.2-0.1-0.2-0.2c0-0.1,0.2-0.2,0.6-0.2c0.4,0,0.7-0.1,0.9-0.3c0.1-0.1,0.2-0.2,0.2-0.3
			c0-0.1,0-0.2-0.1-0.4c-0.1-0.2-0.3-0.4-0.6-0.5c-0.3-0.1-0.8-0.1-1.6-0.1c-0.6,0-1-0.1-1-0.3c-0.1-0.2-0.1-0.3-0.2-0.3
			c-0.1,0-0.2,0.1-0.5,0.3c-0.3,0.2-0.4,0.3-0.5,0.3c-0.3,0-0.5,0.2-0.6,0.6v0.1l0,0.1c0,0.3,0.3,0.6,0.9,0.7c0.1,0,0.3,0.1,0.4,0.1
			c0.1,0.1,0.1,0.2,0.1,0.2c0,0.1-0.1,0.1-0.2,0.1c-0.1,0-0.1,0.2-0.1,0.6s-0.1,0.6-0.2,0.6c-0.1,0-0.1,0.2-0.1,0.5
			c0,0.7-0.2,1.1-0.5,1.2c-0.1,0-0.2,0.1-0.3,0.3c-0.1,0.2-0.1,0.7-0.3,1.5c-0.1,0.4-0.2,0.6-0.4,0.6c-0.2,0-0.2,0.1-0.2,0.2
			c0,0.1,0,0.2-0.2,0.2c-0.3,0-0.5-0.1-0.6-0.2c-0.1-0.2-0.2-0.5-0.2-0.9c0-0.6-0.1-0.9-0.2-1c-0.1-0.1-0.1-0.3-0.1-0.6
			c0-0.4-0.1-0.7-0.2-0.9c-0.1-0.3-0.2-0.5-0.1-0.8c0-0.3,0-0.5-0.1-0.5c-0.1,0-0.2-0.1-0.2-0.4c0-0.2-0.1-0.4-0.2-0.5
			c-0.1-0.1-0.2-0.1-0.2-0.2c0-0.1,0.2-0.2,0.6-0.2c0.4,0,0.7-0.1,0.9-0.3c0.1-0.1,0.2-0.2,0.2-0.3c0-0.1-0.1-0.2-0.2-0.4
			c-0.1-0.2-0.2-0.3-0.4-0.4c-0.2-0.1-0.5-0.1-0.9-0.1c-0.1,0-0.2,0-0.4,0c-0.2,0-0.4,0-0.5,0h-0.4c-0.3,0-0.4,0-0.5-0.1
			c-0.1,0-0.1-0.1-0.2-0.3c-0.1-0.2-0.1-0.4-0.3-0.4c-0.1,0-0.2,0.1-0.5,0.3c-0.2,0.2-0.4,0.3-0.5,0.3c-0.1,0-0.3,0.1-0.4,0.2
			c-0.1,0.1-0.2,0.3-0.2,0.4c0,0.4,0.3,0.7,0.9,0.8c0.5,0.1,0.9,0.6,1,1.6c0.1,0.4,0.2,0.6,0.3,0.8c0.1,0.1,0.2,0.4,0.2,0.7
			s0.1,0.5,0.2,0.6c0.4,0.4,0.5,1.1,0.5,1.9c0,0.4,0,0.6,0.1,0.7c0.1,0.1,0.1,0.2,0.1,0.4c0,0.2,0,0.3,0.1,0.4
			c0.1,0.1,0.2,0.3,0.2,0.8c0,0.4,0.1,0.6,0.2,0.6c0.1,0,0.2,0.2,0.2,0.5c0,0.3,0.1,0.5,0.2,0.5c0.1,0,0.2,0.1,0.3,0.4
			c0.1,0.3,0.3,0.5,0.6,0.5c0.1,0,0.3-0.1,0.4-0.2c0.1-0.1,0.2-0.3,0.2-0.4c0-0.3,0-0.4,0.1-0.4c0.1,0,0.2-0.1,0.2-0.4
			c0-0.3,0-0.5,0.1-0.5c0.1,0,0.2-0.2,0.2-0.5c0-0.3,0.1-0.6,0.3-0.9c0.2-0.3,0.4-0.5,0.6-0.6c0.2-0.1,0.3-0.3,0.3-0.6
			c0-0.4,0.1-0.6,0.2-0.6c0.1,0,0.2-0.2,0.2-0.5c0-0.3,0.1-0.6,0.2-0.8c0.1-0.2,0.2-0.4,0.1-0.5c-0.1-0.2,0.1-0.3,0.4-0.4
			c0.3-0.1,0.4-0.2,0.5-0.3c0.1,0,0.1,0.1,0.1,0.4c0,0.4,0.1,0.6,0.2,0.8c0.4,0.4,0.6,1.1,0.6,1.9c0,0.4,0,0.6,0.1,0.6
			c0.1,0,0.1,0.1,0.1,0.4c-0.1,0.2,0,0.4,0.1,0.5c0.1,0.1,0.2,0.3,0.2,0.8c0,0.4,0.1,0.6,0.2,0.6c0.2,0,0.2,0.2,0.2,0.5
			c0,0.3,0.1,0.5,0.2,0.5c0.1,0,0.2,0.1,0.3,0.4c0.1,0.3,0.3,0.5,0.6,0.5c0.1,0,0.3-0.1,0.4-0.2c0.1-0.1,0.2-0.3,0.2-0.4
			c0-0.3,0.1-0.4,0.2-0.4c0.1,0,0.1-0.1,0.1-0.4c0-0.3,0-0.5,0.1-0.5c0.1,0,0.2-0.2,0.2-0.5c0-0.3,0.1-0.6,0.3-1
			c0.2-0.4,0.4-0.6,0.5-0.6c0.1,0,0.2-0.2,0.2-0.6c0-0.4,0.1-0.7,0.2-0.7c0.1,0,0.2-0.2,0.2-0.5s0.1-0.6,0.2-0.8
			c0.1-0.2,0.2-0.4,0.2-0.6c0-0.1,0.1-0.2,0.4-0.3c0.3-0.1,0.4-0.2,0.4-0.3c0-0.1,0-0.1,0-0.2c0-0.1,0-0.1,0-0.2
			c0-0.6,0.1-0.9,0.3-0.9c0.1,0,0.1-0.1,0.2-0.4c0-0.3,0.1-0.4,0.2-0.4c0.1,0,0.2-0.1,0.2-0.2c0-0.1,0.1-0.2,0.4-0.2
			c0.3,0,0.5-0.1,0.6-0.2c0.1-0.1,0.2-0.3,0.2-0.6l0-0.4L297,782.4z"/>
		<path d="M319.3,792.9c-0.1,0-0.1-0.1-0.2-0.4c-0.1-0.2-0.1-0.3-0.2-0.3c0,0-0.3,0.1-0.8,0.2c0,0-0.1,0-0.2,0c-0.4,0-0.7-0.6-1-1.7
			c-0.2-0.8-0.4-1.3-0.4-1.4c-0.1-0.1-0.2-0.3-0.2-0.5c-0.1-0.4-0.3-1.3-0.8-2.8c-0.5-1.5-0.7-2.4-0.8-2.7c-0.2-1-0.4-1.5-0.5-1.7
			c-0.1-0.2-0.2-0.3-0.4-0.3c-0.3-0.1-0.4,0-0.5,0.1c-0.1,0.1-0.2,0.2-0.4,0.2c-0.2,0-0.4,0.1-0.4,0.2c0,0.1-0.1,0.1-0.2,0.1
			c-0.1,0-0.2,0.2-0.4,0.6c-0.2,0.4-0.3,0.8-0.5,1.2c-0.1,0.4-0.2,0.6-0.3,0.7c-0.1,0.1-0.1,0.2-0.1,0.4c0,0.2-0.1,0.6-0.4,1.2
			c-0.3,0.6-0.5,1.1-0.5,1.5c-0.1,0.4-0.2,0.6-0.2,0.7c-0.1,0.1-0.2,0.3-0.4,0.8c-0.2,0.5-0.3,0.7-0.3,0.8c-0.1,0.2-0.2,0.4-0.2,0.5
			c0,0.2,0,0.2-0.1,0.2c-0.1,0-0.2,0.1-0.3,0.4c-0.1,0.2-0.2,0.4-0.2,0.6c0,0.1-0.2,0.3-0.5,0.6c-0.3,0.3-0.5,0.4-0.7,0.4
			c-0.2,0-0.3,0.1-0.5,0.4c-0.2,0.2-0.4,0.4-0.5,0.4c-0.1,0-0.2,0.1-0.4,0.4c-0.1,0.2-0.1,0.3-0.1,0.4c0,0.1,0.1,0.3,0.4,0.5
			l0.5,0.4l2-0.1c1.1,0,1.8-0.1,2.1-0.1s0.5-0.1,0.5-0.2c0,0,0-0.1-0.1-0.2c-0.1-0.2-0.1-0.3,0.1-0.3c0.1,0,0.2-0.1,0.2-0.2
			c0-0.1-0.1-0.2-0.2-0.2c-0.1,0-0.3-0.1-0.4-0.2c-0.1-0.1-0.4-0.2-0.7-0.3c-0.5-0.1-0.7-0.3-0.7-0.5c0-0.1,0-0.2,0.1-0.3
			c0.1-0.2,0.2-0.3,0.2-0.5c0-0.1,0-0.2,0.1-0.2c0.1,0,0.1-0.2,0.1-0.7v-0.7h0.6c0.4,0,0.7-0.1,0.7-0.2c0.1-0.2,0.6-0.2,1.5-0.2h0.4
			c0.7,0,1,0,1.1,0.1c0.1,0.1,0.2,0.4,0.2,0.8c0,0.5,0.1,0.8,0.3,0.9c0.2,0.2,0.3,0.4,0.3,0.6c0,0,0,0,0,0.1c0,0,0,0.1,0,0.1
			c0,0.3-0.1,0.4-0.1,0.5c-0.1,0.1-0.3,0.1-0.6,0.2c-0.5,0.1-0.7,0.2-0.8,0.3c0,0.1-0.1,0.1-0.3,0.1c-0.2,0-0.3,0.1-0.3,0.3
			c0,0.3,0,0.4,0.1,0.5c0.1,0.1,0.3,0.1,0.6,0.1c0.3,0,0.7,0,1.3-0.1c0.6-0.1,1.3-0.1,2-0.1c0.4,0,0.7,0,0.8,0c0.2,0,0.4,0,0.6,0
			c0.3,0,0.5-0.1,0.5-0.3c0.1-0.2,0.1-0.3,0.2-0.3c0.1,0,0.1-0.2,0.1-0.5S319.4,792.9,319.3,792.9z M313.1,788.4c0,0-0.1,0-0.2,0
			c-0.1,0-0.1,0-0.1,0c-0.3,0-0.5,0.1-0.6,0.2c-0.1,0.1-0.3,0.2-0.4,0.2c-0.2,0-0.3-0.1-0.4-0.2c-0.1-0.1-0.2-0.2-0.3-0.2
			c-0.1,0-0.2-0.1-0.2-0.2c0-0.1,0-0.2,0.1-0.2c0.1,0,0.2-0.1,0.3-0.4c0.1-0.3,0.2-0.5,0.2-0.7c0-0.2,0.1-0.3,0.2-0.4
			c0.1,0,0.2-0.3,0.2-0.8c0.1-0.6,0.3-0.9,0.6-0.9c0.2,0,0.3,0.1,0.5,0.2c0.1,0.1,0.2,0.2,0.4,0.5c0.1,0.3,0.2,0.4,0.2,0.5
			c0,0-0.1,0.1-0.3,0.1c-0.2,0-0.3,0.1-0.4,0.2c-0.1,0.1,0,0.2,0.1,0.2c0.1,0,0.2,0.1,0.2,0.2c0.1,0.1,0.2,0.3,0.2,0.4
			c0.1,0.2,0.1,0.2,0.2,0.3c0.1,0.1,0.1,0.3,0.2,0.6l0.1,0.5L313.1,788.4z"/>
		<path d="M339.4,782c-0.1,0-0.2,0-0.3,0.1c-0.2,0.1-0.3,0.1-0.3,0.1c-0.1,0-0.1-0.1-0.2-0.2c-0.1-0.2-0.3-0.3-0.4-0.3
			c-0.1,0-0.2-0.1-0.2-0.3c0-0.2-0.1-0.3-0.3-0.3c-0.2,0-0.3,0.1-0.3,0.3c0,0.2,0.1,0.3,0.2,0.3s0.2,0.1,0.2,0.3
			c0,0.2-0.1,0.3-0.2,0.3c-0.2,0-0.3-0.1-0.3-0.4c-0.1-0.2-0.2-0.4-0.3-0.4c-0.1,0-0.1,0-0.2,0.1c-0.2,0.2-0.2,0.3,0,0.3
			c0.1,0,0.2,0.1,0.2,0.1c0,0.1-0.1,0.2-0.4,0.2c-0.2,0-0.4,0-0.4-0.1c0-0.1-0.1-0.1-0.4-0.1c-0.4,0-0.8,0.1-1.1,0.2
			c-0.4,0.2-0.6,0.4-0.6,0.7c0,0.3,0.3,0.5,0.8,0.6c0.4,0.1,0.6,0.1,0.6,0.2c0,0.1,0.1,0.1,0.3,0.1c0.3,0,0.5,0.2,0.6,0.6
			c0.1,0.4,0.2,1.2,0.2,2.4c0,1.4,0.1,2.2,0.1,2.4c0.1,0.1,0,0.3,0,0.6l-0.1,0.4l-0.5-0.5c-0.4-0.3-0.5-0.5-0.5-0.6
			c0-0.1-0.1-0.2-0.2-0.3c-0.1-0.1-0.3-0.2-0.4-0.4c-0.2-0.1-0.3-0.2-0.3-0.2c-0.1-0.1-0.3-0.2-0.3-0.2c-0.1,0-0.2-0.1-0.2-0.2
			c0-0.1-0.1-0.2-0.2-0.3c-0.1-0.1-0.3-0.2-0.4-0.2s-0.1-0.1-0.1-0.2c0-0.1-0.1-0.2-0.2-0.2c-0.1,0-0.1,0-0.1-0.1
			c0-0.1-0.1-0.2-0.4-0.5c-0.2-0.3-0.4-0.4-0.4-0.5c0-0.1-0.1-0.2-0.3-0.2c-0.2,0-0.3-0.1-0.5-0.2c-0.2-0.1-0.2-0.3-0.2-0.4
			c0-0.1-0.2-0.3-0.5-0.7c-0.3-0.4-0.5-0.6-0.5-0.7c0-0.1-0.1-0.2-0.3-0.4c-0.2-0.2-0.3-0.4-0.3-0.4c0-0.3-0.6-0.5-1.8-0.6
			c-0.6,0-0.9-0.1-0.9-0.1c-0.3,0-0.4,0.1-0.4,0.2c0,0.1,0,0.2,0,0.4c0,0.2,0,0.4,0.1,0.6c0.1,0.2,0.1,0.3,0.2,0.3
			c0.1,0,0.2,0.2,0.3,0.6c0.1,0.4,0.2,0.6,0.2,0.6c0.1,0,0.1,0.3,0.1,0.8c0,0.5,0,0.8-0.1,0.8c-0.1,0-0.1,0.1-0.1,0.4
			c0,0.2,0.1,0.6,0.2,1c0.1,0.2,0.1,0.6,0.1,1.1c0,0.7-0.1,1.1-0.2,1.1c-0.1,0-0.1,0.2-0.1,0.7c0,0.5,0,1.1-0.1,1.5
			c0,0.4-0.1,0.6-0.1,0.7c-0.1,0.1-0.2,0.2-0.4,0.2c-0.3,0.1-0.4,0.2-0.4,0.4c0,0.2,0.1,0.4,0.4,0.6c0.2,0.2,0.3,0.3,0.5,0.3
			c0.2,0,0.8,0,1.7,0c1,0,1.6,0,1.8-0.1c0.2-0.1,0.3-0.3,0.3-0.8c0-0.3-0.1-0.4-0.3-0.5c-0.2-0.1-0.3-0.1-0.3-0.2
			c0-0.1-0.2-0.1-0.6-0.1c-0.4,0-0.7-0.1-0.9-0.3c-0.2-0.2-0.2-0.3-0.1-0.4c0.1-0.1,0.2-0.2,0.2-0.6c0-0.3,0-0.5-0.1-0.5
			c-0.1-0.1-0.1-0.9-0.1-2.6c0-1.7,0.1-2.5,0.2-2.5c0.1,0,0.3,0.1,0.4,0.2c0.1,0.1,0.3,0.2,0.5,0.3c0.3,0.1,0.4,0.3,0.5,0.4
			c0,0.2,0.3,0.5,0.8,1.1c0.5,0.5,0.9,0.9,1.3,1.1c0.2,0.1,0.3,0.2,0.3,0.3c0,0.1,0.2,0.2,0.5,0.6c0.7,0.7,1.1,1.1,1.1,1.4
			c0,0.1,0.1,0.1,0.3,0.1c0.2,0,0.3,0,0.3,0.1c0,0.1,0.1,0.3,0.4,0.5c0.2,0.2,0.4,0.4,0.4,0.6c0,0.1,0.1,0.3,0.3,0.5
			c0.2,0.2,0.3,0.3,0.4,0.3c0.1,0,0.3,0.2,0.6,0.5c0.3,0.3,0.5,0.5,0.7,0.6c0.1,0.1,0.2,0.1,0.3,0.1c0.4,0,0.6-0.2,0.6-0.6
			c0-0.1,0-0.2,0-0.4c0-0.9-0.1-1.4-0.2-1.6c-0.1-0.1-0.1-0.5-0.1-1.3v-0.4c0-1,0-1.6-0.1-1.6c-0.1-0.1-0.2-0.4-0.2-1
			c0-0.5,0-0.8,0.1-0.8c0.1-0.1,0.2-0.2,0.2-0.5c0-0.3,0-0.4,0.1-0.4c0.1,0,0.1-0.1,0.1-0.4c0-0.3,0-0.4-0.1-0.4
			c-0.1,0-0.1-0.1-0.1-0.4c0-0.4,0.1-0.7,0.2-1c0.2-0.3,0.4-0.5,0.7-0.5c0.2,0,0.4-0.1,0.4-0.1c0.1,0,0.1-0.2,0.1-0.5v-0.2
			C339.8,782.3,339.7,782,339.4,782z"/>
		<path d="M359,785.5c0-0.2-0.1-0.3-0.2-0.5c-0.2-0.2-0.3-0.3-0.4-0.3c-0.1,0-0.2-0.1-0.2-0.2c0-0.1-0.1-0.3-0.3-0.6
			c-0.2-0.2-0.3-0.3-0.4-0.3c-0.1,0-0.2-0.1-0.2-0.2c0-0.1-0.1-0.2-0.3-0.3c-0.2-0.1-0.3-0.1-0.3-0.2c0-0.1-0.1-0.1-0.4-0.1
			c-0.2,0-0.3-0.1-0.6-0.2c-0.2-0.1-0.4-0.2-0.5-0.2c-0.2,0-0.3,0-0.3-0.1c0-0.1-0.1-0.1-0.4-0.1c-0.2,0-0.3,0-0.4-0.1
			c-0.1-0.1-0.2-0.1-0.2-0.1c-0.1,0-0.2,0-0.4,0.1c-0.3,0.1-0.6,0.2-1,0.2c-0.2,0-0.4,0-0.4-0.1c-0.1,0-0.1-0.1-0.1-0.2
			c0-0.2-0.1-0.3-0.2-0.3c-0.1,0-0.2,0-0.3,0.2c-0.1,0.1-0.1,0.1-0.2,0c-0.2-0.3-0.3-0.2-0.4,0.1c-0.1,0.2-0.2,0.3-0.4,0.2
			c-0.2-0.1-0.5-0.2-1-0.2c-0.4,0-0.7-0.1-0.8-0.2c0-0.1-0.1-0.1-0.3,0.1s-0.3,0.1-0.3,0c-0.1-0.1-0.2-0.2-0.5-0.2
			c-0.2,0-0.4,0-0.4,0.1c0,0.1-0.1,0.1-0.3,0.1c-0.1,0-0.2,0-0.2,0.1c0,0.1-0.1,0.3-0.1,0.5c0,0.3,0,0.5,0.1,0.6
			c0,0.1,0.2,0.2,0.3,0.3c0.2,0.1,0.3,0.1,0.4,0.1c0,0,0.1,0,0.1,0c0.1,0,0.1,0,0.1,0c0.1,0,0.2,0,0.3,0.1c0.2,0.1,0.4,0.4,0.4,0.8
			c0,0.4,0,0.6-0.1,0.6c-0.1,0-0.1,0.3-0.1,0.9c0,0.6,0,0.8,0.1,0.8c0.1,0,0.1,0.1,0.1,0.4c0,0.2,0,0.4-0.1,0.5
			c-0.1,0.1-0.1,1-0.2,2.8l-0.1,2.7l-0.5,0c-0.4,0-0.6,0.2-0.8,0.4c-0.2,0.2-0.3,0.4-0.3,0.5c0,0.1,0.1,0.2,0.4,0.4
			c0.3,0.2,0.5,0.2,0.7,0.2c0.1,0,0.2,0,0.2-0.1c0-0.1,0.3-0.1,0.8-0.1c0.5,0,0.8,0,0.8,0.1c0,0.1,0.9,0.2,2.6,0.2
			c1.1,0,1.7,0,1.8-0.1c0.1-0.1,0.4-0.2,0.7-0.2c0.4-0.1,0.8-0.2,1.3-0.5c0.5-0.2,0.8-0.4,1-0.4c0.2,0,0.3-0.1,0.4-0.4
			c0.1-0.3,0.3-0.6,0.7-1.1c0.4-0.4,0.6-0.7,0.6-0.8c0-0.1,0-0.2,0.1-0.2c0.1,0,0.1-0.1,0.1-0.3c0-0.2,0.1-0.4,0.2-0.5
			c0.1-0.1,0.1-0.8,0.1-2c0-1.4-0.1-2.1-0.2-2.2C359,785.8,359,785.7,359,785.5z M356.9,789.7c-0.1,0.1-0.2,0.2-0.2,0.5
			c0,0.3-0.1,0.5-0.2,0.6c-0.3,0.3-0.5,0.6-0.6,1c-0.1,0.2-0.1,0.2-0.2,0.2c-0.1,0-0.3,0.2-0.7,0.5c-0.4,0.3-0.7,0.5-0.9,0.5
			c-0.2,0-0.3,0.1-0.4,0.2c-0.1,0.1-0.1,0.1-0.2,0c-0.1-0.1-0.1-0.2-0.3-0.2s-0.2,0.1-0.3,0.2c0,0.1-0.3,0.1-0.9,0.1
			c-0.6,0-1.1,0-1.6,0c-0.2,0-0.2-0.1-0.2-0.4c0-0.2-0.1-0.4-0.2-0.4c-0.1,0-0.2,0-0.2-0.1c0-0.1,0.1-0.1,0.2-0.2
			c0.1-0.1,0.2-0.2,0.2-0.3c0-0.1,0.1-0.2,0.2-0.2c0.1,0,0.1-0.1,0.2-0.4c0.1-0.2,0.1-0.5,0.1-0.8c0-0.1,0-0.3-0.1-0.5
			c0,0,0,0,0-0.1c0,0,0-0.1,0-0.1c0-0.2,0.1-0.4,0.2-0.6l0.2-0.4c0,0-0.1-0.1-0.2-0.1c-0.1,0-0.2-0.3-0.2-0.8c0-0.5,0-1,0-1.5
			c0-1.4,0.1-2.2,0.1-2.4c0-0.3,0.1-0.5,0.4-0.8c0.2-0.2,0.4-0.3,0.6-0.3c0.1,0,0.2,0,0.3,0c0.1,0,0.3,0,0.7,0.1
			c0.4,0,0.7,0.1,1,0.1c0.3,0.1,0.4,0.1,0.5,0.2c0.1,0.1,0.2,0.2,0.4,0.2c0.2,0,0.4,0.1,0.4,0.3c0.1,0.2,0.2,0.3,0.3,0.3
			c0.2,0,0.2,0,0.2,0.1c0,0.1,0.1,0.2,0.3,0.2c0.2,0.1,0.3,0.2,0.3,0.3c0,0.1,0.1,0.3,0.2,0.4c0.1,0.1,0.2,0.4,0.3,0.9
			c0,0.4,0.1,0.7,0.2,0.8c0.1,0.1,0.1,0.5,0.1,1.3C357,789.2,356.9,789.7,356.9,789.7z"/>
		<path d="M374.6,789.5c0-0.6-0.1-0.9-0.2-1.1c-0.1-0.2-0.3-0.4-0.6-0.5c-0.3-0.1-0.5-0.3-0.5-0.4c-0.1-0.1-0.3-0.3-0.9-0.6
			c-0.5-0.3-1-0.5-1.3-0.6c-0.2-0.1-0.5-0.2-0.9-0.5c-0.4-0.3-0.6-0.4-0.6-0.5c0-0.1-0.1-0.2-0.2-0.3c-0.2-0.1-0.2-0.2-0.2-0.3
			c0,0,0-0.1,0-0.1c0.1-0.1,0.1-0.2,0.1-0.3c0-0.1,0-0.3-0.1-0.6c0-0.1,0-0.2,0-0.2c0,0,0.2-0.1,0.3-0.1c0.3,0,0.4-0.1,0.4-0.2
			c0-0.1,0.1-0.2,0.4-0.4c0.3-0.2,0.4-0.3,0.4-0.3c0-0.1,0.1-0.1,0.4-0.2c0.1,0,0.1,0,0.2,0c0.4,0,0.8,0.2,1.2,0.5
			c0.5,0.3,0.7,0.6,0.7,0.9c0,0.2,0.1,0.4,0.3,0.5c0.2,0.1,0.3,0.3,0.3,0.4c0,0.1,0.1,0.3,0.2,0.5c0.2,0.2,0.3,0.3,0.4,0.3
			c0,0,0,0,0.1,0c0.1-0.1,0.1-0.7,0.2-2v-0.8c0-0.6-0.1-0.9-0.2-0.9c-0.1,0-0.1,0-0.1,0c-0.3,0.1-0.6,0.2-0.8,0.2
			c-0.3,0-0.6-0.1-1-0.3c-0.4-0.2-0.6-0.3-0.7-0.3c0,0-0.1,0-0.2,0.1c-0.3,0.1-0.6,0.1-0.8,0.1c-0.3,0-0.4,0-0.5,0.1
			c0,0.1-0.1,0.2-0.3,0.2c-0.2,0-0.4-0.1-0.5-0.2c-0.1-0.1-0.3-0.2-0.5-0.2h0c-0.1,0-0.1,0-0.1,0c-0.1,0-0.1,0-0.1,0
			c0,0,0.1,0,0.1,0c0.1,0.1,0.2,0.1,0.2,0.2c0,0.2-0.2,0.3-0.5,0.4c-0.3,0.1-0.4,0.2-0.4,0.4c0.1,0.2,0,0.3-0.2,0.4
			c-0.3,0.1-0.6,0.5-1.1,1.1c-0.1,0.2-0.2,0.4-0.2,0.6c0,0,0,0.3,0.1,0.8c0.1,0.7,0.3,1.1,0.4,1.3c0.1,0.2,0.4,0.4,0.7,0.7
			c0.4,0.3,0.6,0.4,0.8,0.4c0.1,0,0.3,0.1,0.6,0.4c0.4,0.3,0.9,0.6,1.7,0.8c0.5,0.1,0.8,0.3,1.1,0.6c0.2,0.2,0.3,0.4,0.5,0.7
			c0.1,0.3,0.2,0.5,0.2,0.7c0,0.1,0,0.1-0.1,0.2c-0.1,0-0.1,0.2-0.1,0.4c0.1,0.2,0,0.4-0.2,0.6c-0.1,0.1-0.2,0.3-0.2,0.4
			c0,0.2-0.5,0.4-1.4,0.5c-0.1,0-0.3,0-0.6,0c-0.9,0-1.7-0.4-2.2-1.2c-0.3-0.4-0.5-0.8-0.5-1c0,0,0-0.1,0-0.2c0-0.1,0-0.2,0-0.2
			c0,0-0.1-0.1-0.1-0.1c-0.1,0-0.1,0-0.1-0.1c0.1-0.3-0.1-0.5-0.4-0.6c-0.1,0-0.2-0.1-0.3-0.1c-0.3,0-0.4,0.2-0.5,0.5
			c-0.1,1.2-0.1,1.9-0.2,1.9c-0.1,0.1-0.1,0.4-0.2,0.8c0,0.1,0,0.3,0,0.4c0,0.2,0.1,0.4,0.3,0.6c0.1,0.1,0.2,0.2,0.3,0.2
			c0,0,0.1,0,0.2-0.2c0.1-0.2,0.2-0.3,0.2-0.4c0-0.3,0.2-0.3,0.5-0.1c0.9,0.5,1.8,0.7,2.9,0.7c0.5,0,1.1-0.1,1.6-0.2
			c0.6-0.1,1.1-0.3,1.4-0.6c0.3-0.3,0.5-0.5,0.5-0.5c0-0.1,0.1-0.2,0.2-0.3c0.2-0.1,0.3-0.4,0.3-0.9c0.1-0.5,0.1-0.7,0.2-0.7
			c0.1,0,0.1,0,0-0.1C374.7,790.6,374.7,790.2,374.6,789.5z M370.3,788C370.2,788,370.2,787.9,370.3,788c-0.1-0.1-0.1-0.1,0-0.1
			S370.3,787.9,370.3,788C370.3,787.9,370.3,788,370.3,788z"/>
		<path d="M368.8,788.7c0-0.1,0-0.2-0.1-0.2c-0.1,0-0.1,0-0.1,0.1l0.1,0.2C368.7,789,368.8,788.9,368.8,788.7z"/>
		<polygon points="51.7,808.8 44,814 41.2,799.9 38.4,814 30.7,808.8 35.9,816.5 21.8,819.3 35.9,822 30.7,829.8 38.4,824.6 
			41.2,838.6 43.9,824.6 51.7,829.8 46.5,822 60.5,819.3 46.5,816.5 		"/>
		<polygon points="468.1,816.5 473.3,808.8 465.5,814 462.8,799.9 460,814 452.3,808.8 457.5,816.5 443.4,819.3 457.5,822 
			452.3,829.8 460,824.6 462.8,838.6 465.5,824.6 473.3,829.8 468.1,822 482.1,819.3 		"/>
		<polygon points="30.7,57.5 38.4,52.3 41.2,66.4 44,52.3 51.7,57.5 46.5,49.8 60.5,47 46.5,44.3 51.7,36.5 43.9,41.7 41.2,27.7 
			38.4,41.7 30.7,36.5 35.9,44.3 21.8,47 35.9,49.8 		"/>
		<polygon points="473.3,36.5 465.5,41.7 462.8,27.7 460,41.7 452.3,36.5 457.5,44.3 443.4,47 457.5,49.8 452.3,57.5 460,52.3 
			462.8,66.4 465.5,52.3 473.3,57.5 468.1,49.8 482.1,47 468.1,44.3 		"/>
		<path d="M113.2,496.9c-0.9-0.4-1.8-0.8-2.7-1.1c-1.1-0.5-1.7-0.5-2-1.5c-0.6-1.9-1.1-3.9-1.6-5.9c0,0,0,0,0-0.1c0,0,0,0,0-0.1
			c-0.1-0.1-0.2-0.2-0.3-0.2c-0.1,0-0.3,0-0.3,0.2c0,0,0,0.1,0,0.1c0,0,0,0,0,0c0,0,0,0,0,0c0,0,0,0,0,0c-0.5,1.9-0.9,3.9-1.5,5.9
			c-0.5,1.5-3.3,2.1-4.7,2.7c-0.3,0.1-0.5,0.6-0.1,0.7c0.9,0.4,1.8,0.8,2.7,1.2c0.5,0.2,1.1,0.5,1.6,0.7c0.1,0.1,0.2,0.1,0.2,0.1
			c0,0,0,0,0,0.1c1,1.7,1.2,4.2,1.8,6.1c0.1,0.4,0.7,0.4,0.8,0c0.6-1.9,0.9-4.4,1.8-6.1c0,0,0,0,0-0.1c0,0,0.1,0,0.1-0.1
			c0.5-0.3,1.2-0.5,1.7-0.8c0.9-0.4,1.8-0.8,2.7-1.2C113.6,497.4,113.5,497,113.2,496.9z M109.8,498.3c-0.6,0.3-1.5,0.5-1.9,1
			c-0.6,0.8-0.7,2.4-1,3.4c-0.2,0.6-0.3,1.1-0.5,1.7c-0.2-0.6-0.3-1.1-0.5-1.7c-0.3-0.9-0.4-2.6-1-3.4c-0.4-0.6-1.2-0.7-1.9-1
			c-0.7-0.3-1.5-0.7-2.2-1c1.5-0.5,3.5-1.1,4.2-2.2c0.6-1,0.7-2.7,1-3.7c0.1-0.5,0.3-0.9,0.4-1.4c0.1,0.5,0.3,0.9,0.4,1.4
			c0.3,1.1,0.4,2.7,1,3.7c0.6,1.1,2.7,1.7,4.2,2.2C111.3,497.6,110.5,498,109.8,498.3z"/>
		<path d="M113.2,363c-0.9-0.4-1.8-0.8-2.7-1.1c-1.1-0.5-1.7-0.5-2-1.5c-0.6-1.9-1.1-3.9-1.6-5.9c0,0,0,0,0-0.1c0,0,0,0,0-0.1
			c-0.1-0.1-0.2-0.2-0.3-0.2c-0.1,0-0.3,0-0.3,0.2c0,0,0,0.1,0,0.1c0,0,0,0,0,0c0,0,0,0,0,0c0,0,0,0,0,0c-0.5,1.9-0.9,3.9-1.5,5.9
			c-0.5,1.5-3.3,2.1-4.7,2.7c-0.3,0.1-0.5,0.6-0.1,0.7c0.9,0.4,1.8,0.8,2.7,1.2c0.5,0.2,1.1,0.5,1.6,0.7c0.1,0.1,0.2,0.1,0.2,0.1
			c0,0,0,0,0,0.1c1,1.7,1.2,4.2,1.8,6.1c0.1,0.4,0.7,0.4,0.8,0c0.6-1.9,0.9-4.4,1.8-6.1c0,0,0,0,0-0.1c0,0,0.1,0,0.1-0.1
			c0.5-0.3,1.2-0.5,1.7-0.8c0.9-0.4,1.8-0.8,2.7-1.2C113.6,363.6,113.5,363.1,113.2,363z M109.8,364.4c-0.6,0.3-1.5,0.5-1.9,1
			c-0.6,0.8-0.7,2.4-1,3.4c-0.2,0.6-0.3,1.1-0.5,1.7c-0.2-0.6-0.3-1.1-0.5-1.7c-0.3-0.9-0.4-2.6-1-3.4c-0.4-0.6-1.2-0.7-1.9-1
			c-0.7-0.3-1.5-0.7-2.2-1c1.5-0.5,3.5-1.1,4.2-2.2c0.6-1,0.7-2.7,1-3.7c0.1-0.5,0.3-0.9,0.4-1.4c0.1,0.5,0.3,0.9,0.4,1.4
			c0.3,1.1,0.4,2.7,1,3.7c0.6,1.1,2.7,1.7,4.2,2.2C111.3,363.8,110.5,364.1,109.8,364.4z"/>
		<path d="M113.2,407.7c-0.9-0.4-1.8-0.8-2.7-1.1c-1.1-0.5-1.7-0.5-2-1.5c-0.6-1.9-1.1-3.9-1.6-5.9c0,0,0,0,0-0.1c0,0,0,0,0-0.1
			c-0.1-0.1-0.2-0.2-0.3-0.2c-0.1,0-0.3,0-0.3,0.2c0,0,0,0.1,0,0.1c0,0,0,0,0,0c0,0,0,0,0,0c0,0,0,0,0,0c-0.5,1.9-0.9,3.9-1.5,5.9
			c-0.5,1.5-3.3,2.1-4.7,2.7c-0.3,0.1-0.5,0.6-0.1,0.7c0.9,0.4,1.8,0.8,2.7,1.2c0.5,0.2,1.1,0.5,1.6,0.7c0.1,0.1,0.2,0.1,0.2,0.1
			c0,0,0,0,0,0.1c1,1.7,1.2,4.2,1.8,6.1c0.1,0.4,0.7,0.4,0.8,0c0.6-1.9,0.9-4.4,1.8-6.1c0,0,0,0,0-0.1c0,0,0.1,0,0.1-0.1
			c0.5-0.3,1.2-0.5,1.7-0.8c0.9-0.4,1.8-0.8,2.7-1.2C113.6,408.3,113.5,407.8,113.2,407.7z M109.8,409.1c-0.6,0.3-1.5,0.5-1.9,1
			c-0.6,0.8-0.7,2.4-1,3.4c-0.2,0.6-0.3,1.1-0.5,1.7c-0.2-0.6-0.3-1.1-0.5-1.7c-0.3-0.9-0.4-2.6-1-3.4c-0.4-0.6-1.2-0.7-1.9-1
			c-0.7-0.3-1.5-0.7-2.2-1c1.5-0.5,3.5-1.1,4.2-2.2c0.6-1,0.7-2.7,1-3.7c0.1-0.5,0.3-0.9,0.4-1.4c0.1,0.5,0.3,0.9,0.4,1.4
			c0.3,1.1,0.4,2.7,1,3.7c0.6,1.1,2.7,1.7,4.2,2.2C111.3,408.5,110.5,408.8,109.8,409.1z"/>
		<path d="M113.2,452.1c-0.9-0.4-1.8-0.8-2.7-1.1c-1.1-0.5-1.7-0.5-2-1.5c-0.6-1.9-1.1-3.9-1.6-5.9c0,0,0,0,0-0.1c0,0,0,0,0-0.1
			c-0.1-0.1-0.2-0.2-0.3-0.2c-0.1,0-0.3,0-0.3,0.2c0,0,0,0.1,0,0.1c0,0,0,0,0,0c0,0,0,0,0,0c0,0,0,0,0,0c-0.5,1.9-0.9,3.9-1.5,5.9
			c-0.5,1.5-3.3,2.1-4.7,2.7c-0.3,0.1-0.5,0.6-0.1,0.7c0.9,0.4,1.8,0.8,2.7,1.2c0.5,0.2,1.1,0.5,1.6,0.7c0.1,0.1,0.2,0.1,0.2,0.1
			c0,0,0,0,0,0.1c1,1.7,1.2,4.2,1.8,6.1c0.1,0.4,0.7,0.4,0.8,0c0.6-1.9,0.9-4.4,1.8-6.1c0,0,0,0,0-0.1c0,0,0.1,0,0.1-0.1
			c0.5-0.3,1.2-0.5,1.7-0.8c0.9-0.4,1.8-0.8,2.7-1.2C113.6,452.7,113.5,452.3,113.2,452.1z M109.8,453.6c-0.6,0.3-1.5,0.5-1.9,1
			c-0.6,0.8-0.7,2.4-1,3.4c-0.2,0.6-0.3,1.1-0.5,1.7c-0.2-0.6-0.3-1.1-0.5-1.7c-0.3-0.9-0.4-2.6-1-3.4c-0.4-0.6-1.2-0.7-1.9-1
			c-0.7-0.3-1.5-0.7-2.2-1c1.5-0.5,3.5-1.1,4.2-2.2c0.6-1,0.7-2.7,1-3.7c0.1-0.5,0.3-0.9,0.4-1.4c0.1,0.5,0.3,0.9,0.4,1.4
			c0.3,1.1,0.4,2.7,1,3.7c0.6,1.1,2.7,1.7,4.2,2.2C111.3,452.9,110.5,453.2,109.8,453.6z"/>
		<path d="M404.2,496.9c-0.9-0.4-1.8-0.8-2.7-1.1c-1.1-0.5-1.7-0.5-2-1.5c-0.6-1.9-1.1-3.9-1.6-5.9c0,0,0,0,0-0.1c0,0,0,0,0-0.1
			c-0.1-0.1-0.2-0.2-0.3-0.2c-0.1,0-0.3,0-0.3,0.2c0,0,0,0.1,0,0.1c0,0,0,0,0,0c0,0,0,0,0,0c0,0,0,0,0,0c-0.5,1.9-1,3.9-1.5,5.9
			c-0.5,1.5-3.3,2.1-4.7,2.7c-0.3,0.1-0.5,0.6-0.1,0.7c0.9,0.4,1.8,0.8,2.7,1.2c0.5,0.2,1.1,0.5,1.6,0.7c0.1,0.1,0.2,0.1,0.2,0.1
			c0,0,0,0,0,0.1c1,1.7,1.2,4.2,1.8,6.1c0.1,0.4,0.7,0.4,0.8,0c0.6-1.9,0.9-4.4,1.8-6.1c0,0,0,0,0-0.1c0,0,0.1,0,0.1-0.1
			c0.5-0.3,1.2-0.5,1.7-0.8c0.9-0.4,1.8-0.8,2.7-1.2C404.7,497.4,404.5,497,404.2,496.9z M400.9,498.3c-0.6,0.3-1.5,0.5-1.9,1
			c-0.6,0.8-0.7,2.4-1,3.4c-0.2,0.6-0.3,1.1-0.5,1.7c-0.2-0.6-0.3-1.1-0.5-1.7c-0.3-0.9-0.4-2.6-1-3.4c-0.4-0.6-1.2-0.7-1.9-1
			c-0.7-0.3-1.5-0.7-2.2-1c1.5-0.5,3.5-1.1,4.2-2.2c0.6-1,0.7-2.7,1-3.7c0.1-0.5,0.2-0.9,0.4-1.4c0.1,0.5,0.3,0.9,0.4,1.4
			c0.3,1.1,0.4,2.7,1,3.7c0.6,1.1,2.7,1.7,4.2,2.2C402.3,497.6,401.6,498,400.9,498.3z"/>
		<path d="M404.2,363c-0.9-0.4-1.8-0.8-2.7-1.1c-1.1-0.5-1.7-0.5-2-1.5c-0.6-1.9-1.1-3.9-1.6-5.9c0,0,0,0,0-0.1c0,0,0,0,0-0.1
			c-0.1-0.1-0.2-0.2-0.3-0.2c-0.1,0-0.3,0-0.3,0.2c0,0,0,0.1,0,0.1c0,0,0,0,0,0c0,0,0,0,0,0c0,0,0,0,0,0c-0.5,1.9-1,3.9-1.5,5.9
			c-0.5,1.5-3.3,2.1-4.7,2.7c-0.3,0.1-0.5,0.6-0.1,0.7c0.9,0.4,1.8,0.8,2.7,1.2c0.5,0.2,1.1,0.5,1.6,0.7c0.1,0.1,0.2,0.1,0.2,0.1
			c0,0,0,0,0,0.1c1,1.7,1.2,4.2,1.8,6.1c0.1,0.4,0.7,0.4,0.8,0c0.6-1.9,0.9-4.4,1.8-6.1c0,0,0,0,0-0.1c0,0,0.1,0,0.1-0.1
			c0.5-0.3,1.2-0.5,1.7-0.8c0.9-0.4,1.8-0.8,2.7-1.2C404.7,363.6,404.5,363.1,404.2,363z M400.9,364.4c-0.6,0.3-1.5,0.5-1.9,1
			c-0.6,0.8-0.7,2.4-1,3.4c-0.2,0.6-0.3,1.1-0.5,1.7c-0.2-0.6-0.3-1.1-0.5-1.7c-0.3-0.9-0.4-2.6-1-3.4c-0.4-0.6-1.2-0.7-1.9-1
			c-0.7-0.3-1.5-0.7-2.2-1c1.5-0.5,3.5-1.1,4.2-2.2c0.6-1,0.7-2.7,1-3.7c0.1-0.5,0.2-0.9,0.4-1.4c0.1,0.5,0.3,0.9,0.4,1.4
			c0.3,1.1,0.4,2.7,1,3.7c0.6,1.1,2.7,1.7,4.2,2.2C402.3,363.8,401.6,364.1,400.9,364.4z"/>
		<path d="M404.2,407.7c-0.9-0.4-1.8-0.8-2.7-1.1c-1.1-0.5-1.7-0.5-2-1.5c-0.6-1.9-1.1-3.9-1.6-5.9c0,0,0,0,0-0.1c0,0,0,0,0-0.1
			c-0.1-0.1-0.2-0.2-0.3-0.2c-0.1,0-0.3,0-0.3,0.2c0,0,0,0.1,0,0.1c0,0,0,0,0,0c0,0,0,0,0,0c0,0,0,0,0,0c-0.5,1.9-1,3.9-1.5,5.9
			c-0.5,1.5-3.3,2.1-4.7,2.7c-0.3,0.1-0.5,0.6-0.1,0.7c0.9,0.4,1.8,0.8,2.7,1.2c0.5,0.2,1.1,0.5,1.6,0.7c0.1,0.1,0.2,0.1,0.2,0.1
			c0,0,0,0,0,0.1c1,1.7,1.2,4.2,1.8,6.1c0.1,0.4,0.7,0.4,0.8,0c0.6-1.9,0.9-4.4,1.8-6.1c0,0,0,0,0-0.1c0,0,0.1,0,0.1-0.1
			c0.5-0.3,1.2-0.5,1.7-0.8c0.9-0.4,1.8-0.8,2.7-1.2C404.7,408.3,404.5,407.8,404.2,407.7z M400.9,409.1c-0.6,0.3-1.5,0.5-1.9,1
			c-0.6,0.8-0.7,2.4-1,3.4c-0.2,0.6-0.3,1.1-0.5,1.7c-0.2-0.6-0.3-1.1-0.5-1.7c-0.3-0.9-0.4-2.6-1-3.4c-0.4-0.6-1.2-0.7-1.9-1
			c-0.7-0.3-1.5-0.7-2.2-1c1.5-0.5,3.5-1.1,4.2-2.2c0.6-1,0.7-2.7,1-3.7c0.1-0.5,0.2-0.9,0.4-1.4c0.1,0.5,0.3,0.9,0.4,1.4
			c0.3,1.1,0.4,2.7,1,3.7c0.6,1.1,2.7,1.7,4.2,2.2C402.3,408.5,401.6,408.8,400.9,409.1z"/>
		<path d="M404.2,452.1c-0.9-0.4-1.8-0.8-2.7-1.1c-1.1-0.5-1.7-0.5-2-1.5c-0.6-1.9-1.1-3.9-1.6-5.9c0,0,0,0,0-0.1c0,0,0,0,0-0.1
			c-0.1-0.1-0.2-0.2-0.3-0.2c-0.1,0-0.3,0-0.3,0.2c0,0,0,0.1,0,0.1c0,0,0,0,0,0c0,0,0,0,0,0c0,0,0,0,0,0c-0.5,1.9-1,3.9-1.5,5.9
			c-0.5,1.5-3.3,2.1-4.7,2.7c-0.3,0.1-0.5,0.6-0.1,0.7c0.9,0.4,1.8,0.8,2.7,1.2c0.5,0.2,1.1,0.5,1.6,0.7c0.1,0.1,0.2,0.1,0.2,0.1
			c0,0,0,0,0,0.1c1,1.7,1.2,4.2,1.8,6.1c0.1,0.4,0.7,0.4,0.8,0c0.6-1.9,0.9-4.4,1.8-6.1c0,0,0,0,0-0.1c0,0,0.1,0,0.1-0.1
			c0.5-0.3,1.2-0.5,1.7-0.8c0.9-0.4,1.8-0.8,2.7-1.2C404.7,452.7,404.5,452.3,404.2,452.1z M400.9,453.6c-0.6,0.3-1.5,0.5-1.9,1
			c-0.6,0.8-0.7,2.4-1,3.4c-0.2,0.6-0.3,1.1-0.5,1.7c-0.2-0.6-0.3-1.1-0.5-1.7c-0.3-0.9-0.4-2.6-1-3.4c-0.4-0.6-1.2-0.7-1.9-1
			c-0.7-0.3-1.5-0.7-2.2-1c1.5-0.5,3.5-1.1,4.2-2.2c0.6-1,0.7-2.7,1-3.7c0.1-0.5,0.2-0.9,0.4-1.4c0.1,0.5,0.3,0.9,0.4,1.4
			c0.3,1.1,0.4,2.7,1,3.7c0.6,1.1,2.7,1.7,4.2,2.2C402.3,452.9,401.6,453.2,400.9,453.6z"/>
		<path d="M157.6,180.4c-4.2,2.1-5.4,8.1-2.1,11.9c-1.8,1.2-2,4.7-2.1,6.5c0,0,0,0,0,0c-0.1,0.1-0.2,0.1-0.3,0.2
			c-1.7,1-2.5,1.8-2.2,4.1c0.2,1.4,1.9,1.7,3.4,1.7c-0.1,24.8-0.6,49.6-0.7,74.4c-0.2,0-0.4,0-0.6,0c-0.1,0-0.2,0-0.2,0.1
			c-0.2,0.1-0.3,0.2-0.3,0.4c0.1,1.5,0.3,3.9,1.5,5.2c-0.1,0.1-0.2,0.2-0.2,0.4c-0.1,11.1-0.4,22.2-0.5,33.2c0,0,0,0,0,0.1
			c-0.8,1.2-1,2.8-1.1,4.1c0,0.3,0.2,0.5,0.5,0.5c0.3,0,0.5,0,0.8,0c-0.1,26.6,0,53.2-0.1,79.9c-0.1,0-0.2,0-0.3,0
			c-0.1,0-0.2,0.1-0.3,0.1c0,0,0,0,0,0c0,0,0,0,0,0c-0.1,0.1-0.1,0.2-0.1,0.3c0,2.7,0,5.5,0,8.2c-0.6,0-1.2,0-1.8,0
			c-0.1,0-0.2,0.1-0.3,0.1c0,0,0,0,0,0c0,0,0,0,0,0c-0.1,0.1-0.1,0.2-0.1,0.3c0,1.9,0,3.9,0,5.8c0,0.3,0.2,0.5,0.5,0.5
			c0.3,0,0.6,0,0.9,0c0.1,2.1,0.4,6.1,2.9,6.7c0.5,0.1,1.1,0.2,1.8,0.2c-1.5,2.5,0,5.9,3.2,6c3.2,0,4.7-3.4,3.3-5.9
			c0.7,0,1.3,0,1.9-0.2c2.3-0.7,2.7-4.6,2.8-6.6c0.3,0,0.6,0,0.9,0c0.3,0,0.5-0.2,0.5-0.5c0-1.9,0-3.9,0-5.8c0-0.3-0.2-0.5-0.5-0.5
			c-0.6,0-1.2,0-1.8,0c0-2.7,0-5.5,0-8.2c0-0.3-0.2-0.5-0.5-0.5c-0.1,0-0.3,0-0.4,0c0.2-26.6,0.6-53.2,0.7-79.9c0.3,0,0.6,0,0.9,0
			c0.1,0,0.2,0,0.2-0.1c0.2-0.1,0.3-0.2,0.3-0.5c-0.1-1.3-0.3-3-1.1-4.2c0.1-11.1-0.1-22.2-0.1-33.2c0-0.1-0.1-0.2-0.1-0.3
			c1.2-1.3,1.5-3.7,1.6-5.2c0-0.3-0.2-0.5-0.5-0.5c-0.2,0-0.4,0-0.6,0c0.1-24.7,0-49.4,0.1-74.1c0-0.1,0-0.2-0.1-0.3
			c0.3,0,0.7,0,1,0c0.6,0,1.7,0.1,2.2-0.3c0.7-0.6,0.5-3.1,0.2-3.9c-0.3-0.8-1.3-1.4-2.2-1.8c-0.1-1.8-0.2-5.3-2-6.5
			c3.3-3.8,2.1-9.8-2-12c4.7-1.4,8.1-5.7,8.1-10.8c0-1.1-0.1-2.1-0.4-3.1c-1.4,4.8-5.8,8.2-11,8.2c-5.2,0-9.6-3.6-10.9-8.4
			c-0.3,1-0.5,2-0.5,3.1C149.5,174.5,152.9,178.9,157.6,180.4z M159.6,430.4c-2.6,0-3.6-3.1-1.9-4.9c0,0,0,0,0,0
			c0.7,0,1.3-0.1,1.9-0.1c0.6,0,1.3,0.1,2,0.1c0,0,0,0.1,0.1,0.1C163.3,427.4,162.2,430.4,159.6,430.4z M163.8,424.3
			c-1.3,0.1-2.8,0-4.1,0c-1.4,0-2.9,0.2-4.3,0c-2.3-0.3-2.5-3.8-2.6-5.7c4.6,0,9.2,0,13.8,0.1C166.4,420.6,166.2,424.1,163.8,424.3z
			 M168,412.9c0,0.8,0,1.6,0,2.4l-16.6-0.1c0-0.8,0-1.6,0-2.4C157,412.8,162.5,412.8,168,412.9z M164.9,394c0,2.3,0,4.6-0.1,6.9
			l-10.3-0.1c0-2.3,0-4.5,0-6.8C157,396.9,162.5,396.8,164.9,394z M154.6,391.9c0.1-22.2,0-44.3,0.1-66.5l10.9,0.1
			c-0.1,22.2-0.4,44.3-0.6,66.4C163.7,396.1,155.8,396.3,154.6,391.9z M165.8,404.1c0,2.5,0,4.9,0,7.4c-4,0-8,0-12-0.1
			c0-2.5,0-4.9,0-7.4C157.8,404.1,161.8,404.1,165.8,404.1z M166.9,322.2c-4.5,0-9,0-13.4-0.1c0.2-1.9,0.8-3.9,2.9-4
			c1.3,0,2.6,0,3.8,0c1.3,0,2.6-0.1,4,0C166.2,318.3,166.7,320.4,166.9,322.2z M154.5,317.5c0.1-10.7,0.4-21.3,0.5-32
			c0.2,0.1,0.4,0.2,0.7,0.2c1.5,0.3,3.2,0,4.7,0c1.5,0,3.4,0.3,4.9,0c0.1,0,0.3-0.1,0.4-0.1c0,10.6,0.2,21.3,0.1,31.9
			c-0.3-0.2-0.6-0.3-1-0.3c-1.5-0.2-3.2,0-4.7,0c-1.5,0-3.3-0.3-4.7,0C155.1,317.2,154.8,317.3,154.5,317.5z M167.1,280.3
			c-0.2,1.9-0.6,4.4-2.8,4.5c-1.3,0.1-2.6,0-4,0c-1.3,0-2.7,0.1-4,0c-2.1-0.1-2.6-2.6-2.7-4.5C158.2,280.2,162.7,280.3,167.1,280.3z
			 M166.1,216.1c0,20.3,0.1,40.7-0.1,61l-11.3-0.1c0.1-20.3,0.4-40.6,0.6-60.9c0,0,0,0,0,0C156.7,211.2,164.9,211,166.1,216.1z
			 M155.4,213.8c0-2.2,0-4.4,0-6.7l10.7,0.1c0,2.2,0,4.4,0,6.5C163.7,210.5,157.9,210.6,155.4,213.8z M168.6,200.3
			c0.3,0.2,0.6,0.3,0.8,0.6c0,0,0,0,0,0c0,0,0,0,0,0.1c0.1,0.4,0.3,2.2,0.1,2.7c0-0.1-0.3,0-0.7,0.1c-0.6,0-1.2,0.1-1.8,0.1
			c-1.7,0-3.4,0.1-5,0c-1.8,0-3.6,0-5.5-0.1c-1.1,0-3.1,0.2-4.1-0.3c-0.7-0.3-0.6-1-0.4-1.8c0.2-0.9,0.3-0.9,1.2-1.5
			c2.3-1.4,4.9-2.7,7.6-2.8C163.6,197.4,166.3,198.8,168.6,200.3z M167.2,198.3c-2-1.1-4.1-1.9-6.4-2c-2.3,0.1-4.4,0.9-6.4,1.9
			c0.1-1.9,0.4-5,2.5-5.3c1.3-0.2,2.7,0,3.9,0c1.3,0,2.7-0.2,3.9,0C166.8,193.3,167.1,196.4,167.2,198.3z M160.9,180.9
			c0.5,0,1,0,1.4-0.1c4.8,1,6.5,7.3,3.1,11c0,0.1-0.1,0.1-0.1,0.2c-1.3-0.3-3.1,0-4.4,0c-1.3,0-3-0.3-4.4-0.1c0,0,0,0,0,0
			c-3.5-3.7-1.8-10.1,3.1-11.1C160,180.8,160.4,180.9,160.9,180.9z"/>
		<path d="M159.5,224.1c0.5,0.5,0.9,2.9,1.2,2.9c0.3,0,0.6-2.3,1.1-2.9c0.6-0.6,2.1-0.7,2.1-1.1c0-0.4-1.5-0.5-2.1-1
			c-0.6-0.6-0.9-2.9-1.2-2.9c-0.3,0-0.7,2.4-1.1,2.9c-0.5,0.5-2.1,0.8-2.1,1.1S159,223.6,159.5,224.1z"/>
		<path d="M159.5,234c0.5,0.5,0.9,2.9,1.2,2.9c0.3,0,0.6-2.3,1.1-2.9s2.1-0.7,2.1-1.1c0-0.4-1.5-0.5-2.1-1c-0.6-0.6-0.9-2.9-1.2-2.9
			c-0.3,0-0.7,2.4-1.1,2.9c-0.5,0.5-2.1,0.8-2.1,1.1C157.4,233.3,159,233.5,159.5,234z"/>
		<path d="M158.8,375.1c0.5,0.5,0.9,2.9,1.2,2.9c0.3,0,0.6-2.3,1.1-2.9c0.6-0.6,2.1-0.7,2.1-1.1s-1.5-0.5-2.1-1
			c-0.6-0.6-0.9-2.9-1.2-2.9c-0.3,0-0.7,2.4-1.1,2.9c-0.5,0.5-2.1,0.8-2.1,1.1C156.6,374.4,158.2,374.6,158.8,375.1z"/>
		<path d="M159.9,387.9c0.3,0,0.6-2.3,1.1-2.9c0.6-0.6,2.1-0.7,2.1-1.1c0-0.4-1.5-0.5-2.1-1c-0.6-0.6-0.9-2.9-1.2-2.9
			c-0.3,0-0.7,2.4-1.1,2.9s-2.1,0.8-2.1,1.1c0,0.3,1.6,0.5,2.1,1C159.2,385.6,159.6,387.9,159.9,387.9z"/>
		<path d="M160.3,309.9c1,0,1.9-0.6,1.9-2.4c0-1.8-1.8-14.5-1.8-14.5s-1.9,12.6-1.9,14.5C158.4,309.3,159.2,309.9,160.3,309.9z"/>
		<polygon points="156,186.6 159.5,187.4 158.2,189.3 160.2,188 160.9,191.6 161.6,188 163.6,189.4 162.2,187.4 165.8,186.7 
			162.3,186 163.6,184 161.6,185.3 160.9,181.7 160.2,185.3 158.2,184 159.6,186 		"/>
		<path d="M212.8,428.1c0,1.1,0.1,2.1,0.4,3.1c1.4-4.8,5.8-8.2,11-8.2c5.2,0,9.6,3.6,10.9,8.4c0.3-1,0.5-2,0.5-3.1
			c0-5.2-3.3-9.5-8-11c4.2-2.1,5.4-8.1,2.1-11.9c1.8-1.2,2-4.7,2.1-6.5c0,0,0,0,0,0c0.1-0.1,0.2-0.1,0.3-0.2c1.7-1,2.5-1.8,2.2-4.1
			c-0.2-1.4-1.9-1.7-3.4-1.7c0.1-24.8,0.6-49.6,0.7-74.4c0.2,0,0.4,0,0.6,0c0.1,0,0.2,0,0.2-0.1c0.2-0.1,0.3-0.2,0.3-0.4
			c-0.1-1.5-0.3-3.9-1.5-5.2c0.1-0.1,0.2-0.2,0.2-0.4c0.1-11.1,0.4-22.2,0.5-33.2c0,0,0,0,0-0.1c0.8-1.2,1-2.8,1.1-4.1
			c0-0.3-0.2-0.5-0.5-0.5c-0.3,0-0.5,0-0.8,0c0.1-26.6,0-53.2,0.1-79.9c0.1,0,0.2,0,0.3,0c0.1,0,0.2-0.1,0.3-0.1c0,0,0,0,0,0
			c0,0,0,0,0,0c0.1-0.1,0.1-0.2,0.1-0.3c0-2.7,0-5.5,0-8.2c0.6,0,1.2,0,1.8,0c0.1,0,0.2-0.1,0.3-0.1c0,0,0,0,0,0c0,0,0,0,0,0
			c0.1-0.1,0.1-0.2,0.1-0.3c0-1.9,0-3.9,0-5.8c0-0.3-0.2-0.5-0.5-0.5c-0.3,0-0.6,0-0.9,0c-0.1-2.1-0.4-6.1-2.9-6.7
			c-0.5-0.1-1.1-0.2-1.8-0.2c1.5-2.5,0-5.9-3.2-6c-3.2,0-4.7,3.4-3.3,5.9c-0.7,0-1.3,0-1.9,0.2c-2.3,0.7-2.7,4.6-2.8,6.6
			c-0.3,0-0.6,0-0.9,0c-0.3,0-0.5,0.2-0.5,0.5c0,1.9,0,3.9,0,5.8c0,0.3,0.2,0.5,0.5,0.5c0.6,0,1.2,0,1.8,0c0,2.7,0,5.5,0,8.2
			c0,0.3,0.2,0.5,0.5,0.5c0.1,0,0.3,0,0.4,0c-0.2,26.6-0.6,53.2-0.7,79.9c-0.3,0-0.6,0-0.9,0c-0.1,0-0.2,0-0.2,0.1
			c-0.2,0.1-0.3,0.2-0.3,0.5c0.1,1.3,0.3,3,1.1,4.2c-0.1,11.1,0.1,22.2,0.1,33.2c0,0.1,0.1,0.2,0.1,0.3c-1.2,1.3-1.5,3.7-1.6,5.2
			c0,0.3,0.2,0.5,0.5,0.5c0.2,0,0.4,0,0.6,0c-0.1,24.7,0,49.4-0.1,74.1c0,0.1,0,0.2,0.1,0.3c-0.3,0-0.7,0-1,0
			c-0.6,0-1.7-0.1-2.2,0.3c-0.7,0.6-0.5,3.1-0.2,3.9c0.3,0.8,1.3,1.4,2.2,1.8c0.1,1.8,0.2,5.3,2,6.5c-3.3,3.8-2.1,9.8,2,12
			C216.3,418.7,212.9,423,212.8,428.1z M225.6,167.3c2.6,0,3.6,3.1,1.9,4.9c0,0,0,0,0,0c-0.7,0-1.3,0.1-1.9,0.1
			c-0.6,0-1.3-0.1-2-0.1c0,0,0-0.1-0.1-0.1C221.9,170.3,223,167.3,225.6,167.3z M221.4,173.3c1.3-0.1,2.8,0,4.1,0
			c1.4,0,2.9-0.2,4.3,0c2.3,0.3,2.5,3.8,2.6,5.7c-4.6,0-9.2,0-13.8-0.1C218.8,177,219,173.6,221.4,173.3z M217.2,184.8
			c0-0.8,0-1.6,0-2.4l16.6,0.1c0,0.8,0,1.6,0,2.4C228.3,184.9,222.7,184.8,217.2,184.8z M220.3,203.7c0-2.3,0-4.6,0.1-6.9l10.3,0.1
			c0,2.3,0,4.5,0,6.8C228.2,200.8,222.7,200.8,220.3,203.7z M230.6,205.7c-0.1,22.2,0,44.3-0.1,66.5l-10.9-0.1
			c0.1-22.1,0.4-44.3,0.6-66.4C221.5,201.5,229.4,201.4,230.6,205.7z M219.5,193.5c0-2.5,0-4.9,0-7.4c4,0,8,0,12,0.1
			c0,2.5,0,4.9,0,7.4C227.5,193.6,223.5,193.6,219.5,193.5z M218.3,275.5c4.5,0,9,0,13.4,0.1c-0.2,1.9-0.8,3.9-2.9,4
			c-1.3,0-2.6,0-3.8,0c-1.3,0-2.6,0.1-4,0C219,279.4,218.5,277.3,218.3,275.5z M230.7,280.2c-0.1,10.7-0.4,21.3-0.5,32
			c-0.2-0.1-0.4-0.2-0.7-0.2c-1.5-0.3-3.2,0-4.7,0c-1.5,0-3.4-0.3-4.9,0c-0.2,0-0.3,0.1-0.4,0.1c0-10.6-0.2-21.3-0.1-31.9
			c0.3,0.2,0.6,0.3,1,0.3c1.5,0.2,3.2,0,4.7,0c1.5,0,3.3,0.3,4.7,0C230.1,280.5,230.4,280.3,230.7,280.2z M218.1,317.4
			c0.2-1.9,0.6-4.4,2.8-4.5c1.3-0.1,2.6,0,4,0c1.3,0,2.7-0.1,4,0c2.1,0.1,2.6,2.6,2.7,4.5C227,317.4,222.6,317.4,218.1,317.4z
			 M219.1,381.6c0-20.3-0.1-40.7,0.1-61l11.3,0.1c-0.1,20.3-0.4,40.6-0.6,60.9c0,0,0,0,0,0C228.6,386.4,220.3,386.7,219.1,381.6z
			 M229.8,383.9c0,2.2,0,4.4,0,6.7l-10.7-0.1c0-2.2,0-4.4,0-6.5C221.6,387.2,227.3,387.1,229.8,383.9z M216.6,397.4
			c-0.3-0.2-0.6-0.3-0.8-0.6c0,0,0,0,0,0c0,0,0,0,0-0.1c-0.1-0.4-0.3-2.2-0.1-2.7c0,0.1,0.3,0,0.7-0.1c0.6,0,1.2-0.1,1.8-0.1
			c1.7,0,3.4-0.1,5,0c1.8,0,3.6,0,5.5,0.1c1.1,0,3.1-0.2,4.1,0.3c0.7,0.3,0.6,1,0.4,1.8c-0.2,0.9-0.3,0.9-1.2,1.5
			c-2.3,1.4-4.9,2.7-7.6,2.8C221.6,400.2,218.9,398.9,216.6,397.4z M218,399.4c2,1.1,4.1,1.9,6.4,2c2.3-0.1,4.4-0.9,6.4-1.9
			c-0.1,1.9-0.4,5-2.5,5.3c-1.3,0.2-2.7,0-3.9,0c-1.3,0-2.7,0.2-3.9,0C218.4,404.4,218.1,401.3,218,399.4z M219.8,405.9
			c0-0.1,0.1-0.1,0.1-0.2c1.3,0.3,3.1,0,4.4,0c1.3,0,3,0.3,4.4,0.1c0,0,0,0,0,0c3.5,3.7,1.8,10.1-3.1,11.1c-0.4-0.1-0.9-0.1-1.3-0.1
			c-0.5,0-1,0-1.4,0.1C218.1,415.9,216.4,409.6,219.8,405.9z"/>
		<path d="M225.7,373.6c-0.5-0.5-0.9-2.9-1.2-2.9c-0.3,0-0.6,2.3-1.1,2.9c-0.6,0.6-2.1,0.7-2.1,1.1c0,0.4,1.5,0.5,2.1,1
			c0.6,0.6,0.9,2.9,1.2,2.9c0.3,0,0.7-2.4,1.1-2.9c0.5-0.5,2.1-0.8,2.1-1.1S226.2,374.1,225.7,373.6z"/>
		<path d="M225.7,363.6c-0.5-0.5-0.9-2.9-1.2-2.9c-0.3,0-0.6,2.3-1.1,2.9c-0.6,0.6-2.1,0.7-2.1,1.1c0,0.4,1.5,0.5,2.1,1
			c0.6,0.6,0.9,2.9,1.2,2.9c0.3,0,0.7-2.4,1.1-2.9c0.5-0.5,2.1-0.8,2.1-1.1C227.8,364.4,226.3,364.2,225.7,363.6z"/>
		<path d="M226.5,222.6c-0.5-0.5-0.9-2.9-1.2-2.9c-0.3,0-0.6,2.3-1.1,2.9c-0.6,0.6-2.1,0.7-2.1,1.1c0,0.4,1.5,0.5,2.1,1
			c0.6,0.6,0.9,2.9,1.2,2.9c0.3,0,0.7-2.4,1.1-2.9c0.5-0.5,2.1-0.8,2.1-1.1S227,223.1,226.5,222.6z"/>
		<path d="M225.3,209.7c-0.3,0-0.6,2.3-1.1,2.9s-2.1,0.7-2.1,1.1c0,0.4,1.5,0.5,2.1,1c0.6,0.6,0.9,2.9,1.2,2.9
			c0.3,0,0.7-2.4,1.1-2.9c0.5-0.5,2.1-0.8,2.1-1.1c0-0.3-1.6-0.5-2.1-1C226,212.1,225.6,209.7,225.3,209.7z"/>
		<path d="M225,287.8c-1,0-1.9,0.6-1.9,2.4c0,1.8,1.8,14.5,1.8,14.5s1.9-12.6,1.9-14.5C226.8,288.4,226,287.8,225,287.8z"/>
		<polygon points="223.6,412.4 224.3,415.9 225,412.4 227,413.7 225.7,411.7 229.2,411 225.7,410.3 227,408.4 225,409.7 
			224.3,406.1 223.6,409.7 221.6,408.3 223,410.3 219.4,411 223,411.7 221.6,413.7 		"/>
		<path d="M287.4,174.6c-5.2,0-9.6-3.6-10.9-8.4c-0.3,1-0.5,2-0.5,3.1c0,5.1,3.3,9.5,8,11c-4.2,2.1-5.4,8.1-2.1,11.9
			c-1.8,1.2-2,4.7-2.1,6.5c0,0,0,0,0,0c-0.1,0.1-0.2,0.1-0.3,0.2c-1.7,1-2.5,1.8-2.2,4.1c0.2,1.4,1.9,1.7,3.4,1.7
			c-0.1,24.8-0.6,49.6-0.7,74.4c-0.2,0-0.4,0-0.6,0c-0.1,0-0.2,0-0.2,0.1c-0.2,0.1-0.3,0.2-0.3,0.4c0.1,1.5,0.3,3.9,1.5,5.2
			c-0.1,0.1-0.2,0.2-0.2,0.4c-0.1,11.1-0.4,22.2-0.5,33.2c0,0,0,0,0,0.1c-0.8,1.2-1,2.8-1.1,4.1c0,0.3,0.2,0.5,0.5,0.5
			c0.3,0,0.5,0,0.8,0c-0.1,26.6,0,53.2-0.1,79.9c-0.1,0-0.2,0-0.3,0c-0.1,0-0.2,0.1-0.3,0.1c0,0,0,0,0,0c0,0,0,0,0,0
			c-0.1,0.1-0.1,0.2-0.1,0.3c0,2.7,0,5.5,0,8.2c-0.6,0-1.2,0-1.8,0c-0.1,0-0.2,0.1-0.3,0.1c0,0,0,0,0,0c0,0,0,0,0,0
			c-0.1,0.1-0.1,0.2-0.1,0.3c0,1.9,0,3.9,0,5.8c0,0.3,0.2,0.5,0.5,0.5c0.3,0,0.6,0,0.9,0c0.1,2.1,0.4,6.1,2.9,6.7
			c0.5,0.1,1.1,0.2,1.8,0.2c-1.5,2.5,0,5.9,3.2,6c3.2,0,4.7-3.4,3.3-5.9c0.7,0,1.3,0,1.9-0.2c2.3-0.7,2.7-4.6,2.8-6.6
			c0.3,0,0.6,0,0.9,0c0.3,0,0.5-0.2,0.5-0.5c0-1.9,0-3.9,0-5.8c0-0.3-0.2-0.5-0.5-0.5c-0.6,0-1.2,0-1.8,0c0-2.7,0-5.5,0-8.2
			c0-0.3-0.2-0.5-0.5-0.5c-0.1,0-0.3,0-0.4,0c0.2-26.6,0.6-53.2,0.7-79.9c0.3,0,0.6,0,0.9,0c0.1,0,0.2,0,0.2-0.1
			c0.2-0.1,0.3-0.2,0.3-0.5c-0.1-1.3-0.3-3-1.1-4.2c0.1-11.1-0.1-22.2-0.1-33.2c0-0.1-0.1-0.2-0.1-0.3c1.2-1.3,1.5-3.7,1.6-5.2
			c0-0.3-0.2-0.5-0.5-0.5c-0.2,0-0.4,0-0.6,0c0.1-24.7,0-49.4,0.1-74.1c0-0.1,0-0.2-0.1-0.3c0.3,0,0.7,0,1,0c0.6,0,1.7,0.1,2.2-0.3
			c0.7-0.6,0.5-3.1,0.2-3.9c-0.3-0.8-1.3-1.4-2.2-1.8c-0.1-1.8-0.2-5.3-2-6.5c3.3-3.8,2.1-9.8-2-12c4.7-1.4,8.1-5.7,8.1-10.8
			c0-1.1-0.1-2.1-0.4-3.1C297.1,171.2,292.6,174.7,287.4,174.6z M286.1,430.4c-2.6,0-3.6-3.1-1.9-4.9c0,0,0,0,0,0
			c0.7,0,1.3-0.1,1.9-0.1c0.6,0,1.3,0.1,2,0.1c0,0,0,0.1,0.1,0.1C289.8,427.4,288.7,430.4,286.1,430.4z M290.3,424.3
			c-1.3,0.1-2.8,0-4.1,0c-1.4,0-2.9,0.2-4.3,0c-2.3-0.3-2.5-3.8-2.6-5.7c4.6,0,9.2,0,13.8,0.1C292.9,420.6,292.6,424.1,290.3,424.3z
			 M294.5,412.9c0,0.8,0,1.6,0,2.4l-16.6-0.1c0-0.8,0-1.6,0-2.4C283.4,412.8,289,412.8,294.5,412.9z M291.4,394c0,2.3,0,4.6-0.1,6.9
			l-10.3-0.1c0-2.3,0-4.5,0-6.8C283.5,396.9,289,396.8,291.4,394z M281.1,391.9c0.1-22.2,0-44.3,0.1-66.5l10.9,0.1
			c-0.1,22.2-0.4,44.3-0.6,66.4C290.2,396.1,282.3,396.3,281.1,391.9z M292.2,404.1c0,2.5,0,4.9,0,7.4c-4,0-8,0-12-0.1
			c0-2.5,0-4.9,0-7.4C284.2,404.1,288.2,404.1,292.2,404.1z M293.4,322.2c-4.5,0-9,0-13.4-0.1c0.2-1.9,0.8-3.9,2.9-4
			c1.3,0,2.6,0,3.8,0c1.3,0,2.6-0.1,4,0C292.7,318.3,293.2,320.4,293.4,322.2z M281,317.5c0.1-10.7,0.4-21.3,0.5-32
			c0.2,0.1,0.4,0.2,0.7,0.2c1.5,0.3,3.2,0,4.7,0c1.5,0,3.4,0.3,4.9,0c0.2,0,0.3-0.1,0.4-0.1c0,10.6,0.2,21.3,0.1,31.9
			c-0.3-0.2-0.6-0.3-1-0.3c-1.5-0.2-3.2,0-4.7,0c-1.5,0-3.3-0.3-4.7,0C281.6,317.2,281.3,317.3,281,317.5z M293.6,280.3
			c-0.2,1.9-0.6,4.4-2.8,4.5c-1.3,0.1-2.6,0-4,0c-1.3,0-2.7,0.1-4,0c-2.1-0.1-2.6-2.6-2.7-4.5C284.6,280.2,289.1,280.3,293.6,280.3z
			 M292.6,216.1c0,20.3,0.1,40.7-0.1,61l-11.3-0.1c0.1-20.3,0.4-40.6,0.6-60.9c0,0,0,0,0,0C283.1,211.2,291.4,211,292.6,216.1z
			 M281.9,213.8c0-2.2,0-4.4,0-6.7l10.7,0.1c0,2.2,0,4.4,0,6.5C290.1,210.5,284.4,210.6,281.9,213.8z M295.1,200.3
			c0.3,0.2,0.6,0.3,0.8,0.6c0,0,0,0,0,0c0,0,0,0,0,0.1c0.1,0.4,0.3,2.2,0.1,2.7c0-0.1-0.3,0-0.7,0.1c-0.6,0-1.2,0.1-1.8,0.1
			c-1.7,0-3.4,0.1-5,0c-1.8,0-3.6,0-5.5-0.1c-1.1,0-3.1,0.2-4.1-0.3c-0.7-0.3-0.6-1-0.4-1.8c0.2-0.9,0.3-0.9,1.2-1.5
			c2.3-1.4,4.9-2.7,7.6-2.8C290.1,197.4,292.8,198.8,295.1,200.3z M293.7,198.3c-2-1.1-4.1-1.9-6.4-2c-2.3,0.1-4.4,0.9-6.4,1.9
			c0.1-1.9,0.4-5,2.5-5.3c1.3-0.2,2.7,0,3.9,0c1.3,0,2.7-0.2,3.9,0C293.3,193.3,293.6,196.4,293.7,198.3z M291.9,191.8
			c0,0.1-0.1,0.1-0.1,0.2c-1.3-0.3-3.1,0-4.4,0c-1.3,0-3-0.3-4.4-0.1c0,0,0,0,0,0c-3.5-3.7-1.8-10.1,3.1-11.1
			c0.4,0.1,0.9,0.1,1.3,0.1c0.5,0,1,0,1.4-0.1C293.6,181.8,295.2,188.1,291.9,191.8z"/>
		<path d="M286,224.1c0.5,0.5,0.9,2.9,1.2,2.9c0.3,0,0.6-2.3,1.1-2.9s2.1-0.7,2.1-1.1c0-0.4-1.5-0.5-2.1-1c-0.6-0.6-0.9-2.9-1.2-2.9
			c-0.3,0-0.7,2.4-1.1,2.9s-2.1,0.8-2.1,1.1C283.9,223.3,285.5,223.6,286,224.1z"/>
		<path d="M286,234c0.5,0.5,0.9,2.9,1.2,2.9c0.3,0,0.6-2.3,1.1-2.9s2.1-0.7,2.1-1.1c0-0.4-1.5-0.5-2.1-1c-0.6-0.6-0.9-2.9-1.2-2.9
			c-0.3,0-0.7,2.4-1.1,2.9c-0.5,0.5-2.1,0.8-2.1,1.1C283.9,233.3,285.4,233.5,286,234z"/>
		<path d="M285.2,375.1c0.5,0.5,0.9,2.9,1.2,2.9c0.3,0,0.6-2.3,1.1-2.9c0.6-0.6,2.1-0.7,2.1-1.1c0-0.4-1.5-0.5-2.1-1
			c-0.6-0.6-0.9-2.9-1.2-2.9c-0.3,0-0.7,2.4-1.1,2.9s-2.1,0.8-2.1,1.1C283.1,374.4,284.7,374.6,285.2,375.1z"/>
		<path d="M286.4,387.9c0.3,0,0.6-2.3,1.1-2.9c0.6-0.6,2.1-0.7,2.1-1.1c0-0.4-1.5-0.5-2.1-1c-0.6-0.6-0.9-2.9-1.2-2.9
			c-0.3,0-0.7,2.4-1.1,2.9c-0.5,0.5-2.1,0.8-2.1,1.1c0,0.3,1.6,0.5,2.1,1C285.7,385.6,286.1,387.9,286.4,387.9z"/>
		<path d="M286.7,309.9c1,0,1.9-0.6,1.9-2.4s-1.8-14.5-1.8-14.5s-1.9,12.6-1.9,14.5C284.9,309.3,285.7,309.9,286.7,309.9z"/>
		<polygon points="288.1,185.3 287.4,181.7 286.7,185.3 284.7,184 286,186 282.5,186.6 286,187.4 284.7,189.3 286.7,188 
			287.4,191.6 288.1,188 290,189.4 288.7,187.4 292.3,186.7 288.7,186 290.1,184 		"/>
		<path d="M354.1,417.3c4.2-2.1,5.4-8.1,2.1-11.9c1.8-1.2,2-4.7,2.1-6.5c0,0,0,0,0,0c0.1-0.1,0.2-0.1,0.3-0.2c1.7-1,2.5-1.8,2.2-4.1
			c-0.2-1.4-1.9-1.7-3.4-1.7c0.1-24.8,0.6-49.6,0.7-74.4c0.2,0,0.4,0,0.6,0c0.1,0,0.2,0,0.2-0.1c0.2-0.1,0.3-0.2,0.3-0.4
			c-0.1-1.5-0.3-3.9-1.5-5.2c0.1-0.1,0.2-0.2,0.2-0.4c0.1-11.1,0.4-22.2,0.5-33.2c0,0,0,0,0-0.1c0.8-1.2,1-2.8,1.1-4.1
			c0-0.3-0.2-0.5-0.5-0.5c-0.3,0-0.5,0-0.8,0c0.1-26.6,0-53.2,0.1-79.9c0.1,0,0.2,0,0.3,0c0.1,0,0.2-0.1,0.3-0.1c0,0,0,0,0,0
			c0,0,0,0,0,0c0.1-0.1,0.1-0.2,0.1-0.3c0-2.7,0-5.5,0-8.2c0.6,0,1.2,0,1.8,0c0.1,0,0.2-0.1,0.3-0.1c0,0,0,0,0,0c0,0,0,0,0,0
			c0.1-0.1,0.1-0.2,0.1-0.3c0-1.9,0-3.9,0-5.8c0-0.3-0.2-0.5-0.5-0.5c-0.3,0-0.6,0-0.9,0c-0.1-2.1-0.4-6.1-2.9-6.7
			c-0.5-0.1-1.1-0.2-1.8-0.2c1.5-2.5,0-5.9-3.2-6c-3.2,0-4.7,3.4-3.3,5.9c-0.7,0-1.3,0-1.9,0.2c-2.3,0.7-2.7,4.6-2.8,6.6
			c-0.3,0-0.6,0-0.9,0c-0.3,0-0.5,0.2-0.5,0.5c0,1.9,0,3.9,0,5.8c0,0.3,0.2,0.5,0.5,0.5c0.6,0,1.2,0,1.8,0c0,2.7,0,5.5,0,8.2
			c0,0.3,0.2,0.5,0.5,0.5c0.1,0,0.3,0,0.4,0c-0.2,26.6-0.6,53.2-0.7,79.9c-0.3,0-0.6,0-0.9,0c-0.1,0-0.2,0-0.2,0.1
			c-0.2,0.1-0.3,0.2-0.3,0.5c0.1,1.3,0.3,3,1.1,4.2c-0.1,11.1,0.1,22.2,0.1,33.2c0,0.1,0.1,0.2,0.1,0.3c-1.2,1.3-1.5,3.7-1.6,5.2
			c0,0.3,0.2,0.5,0.5,0.5c0.2,0,0.4,0,0.6,0c-0.1,24.7,0,49.4-0.1,74.1c0,0.1,0,0.2,0.1,0.3c-0.3,0-0.7,0-1,0
			c-0.6,0-1.7-0.1-2.2,0.3c-0.7,0.6-0.5,3.1-0.2,3.9c0.3,0.8,1.3,1.4,2.2,1.8c0.1,1.8,0.2,5.3,2,6.5c-3.3,3.8-2.1,9.8,2,12
			c-4.7,1.4-8.1,5.7-8.1,10.8c0,1.1,0.1,2.1,0.4,3.1c1.4-4.8,5.8-8.2,11-8.2c5.2,0,9.6,3.6,10.9,8.4c0.3-1,0.5-2,0.5-3.1
			C362.1,423.2,358.8,418.8,354.1,417.3z M352.1,167.3c2.6,0,3.6,3.1,1.9,4.9c0,0,0,0,0,0c-0.7,0-1.3,0.1-1.9,0.1
			c-0.6,0-1.3-0.1-2-0.1c0,0,0-0.1-0.1-0.1C348.4,170.3,349.5,167.3,352.1,167.3z M347.9,173.3c1.3-0.1,2.8,0,4.1,0
			c1.4,0,2.9-0.2,4.3,0c2.3,0.3,2.5,3.8,2.6,5.7c-4.6,0-9.2,0-13.8-0.1C345.2,177,345.5,173.6,347.9,173.3z M343.7,184.8
			c0-0.8,0-1.6,0-2.4l16.6,0.1c0,0.8,0,1.6,0,2.4C354.7,184.9,349.2,184.8,343.7,184.8z M346.8,203.7c0-2.3,0-4.6,0.1-6.9l10.3,0.1
			c0,2.3,0,4.5,0,6.8C354.7,200.8,349.2,200.8,346.8,203.7z M357.1,205.7c-0.1,22.2,0,44.3-0.1,66.5l-10.9-0.1
			c0.1-22.1,0.4-44.3,0.6-66.4C348,201.5,355.9,201.4,357.1,205.7z M345.9,193.5c0-2.5,0-4.9,0-7.4c4,0,8,0,12,0.1
			c0,2.5,0,4.9,0,7.4C353.9,193.6,349.9,193.6,345.9,193.5z M344.8,275.5c4.5,0,9,0,13.4,0.1c-0.2,1.9-0.8,3.9-2.9,4
			c-1.3,0-2.6,0-3.8,0c-1.3,0-2.6,0.1-4,0C345.5,279.4,345,277.3,344.8,275.5z M357.2,280.2c-0.1,10.7-0.4,21.3-0.5,32
			c-0.2-0.1-0.4-0.2-0.7-0.2c-1.5-0.3-3.2,0-4.7,0c-1.5,0-3.4-0.3-4.9,0c-0.1,0-0.3,0.1-0.4,0.1c0-10.6-0.2-21.3-0.1-31.9
			c0.3,0.2,0.6,0.3,1,0.3c1.5,0.2,3.2,0,4.7,0c1.5,0,3.3,0.3,4.7,0C356.6,280.5,356.9,280.3,357.2,280.2z M344.6,317.4
			c0.2-1.9,0.6-4.4,2.8-4.5c1.3-0.1,2.6,0,4,0c1.3,0,2.7-0.1,4,0c2.1,0.1,2.6,2.6,2.7,4.5C353.5,317.4,349,317.4,344.6,317.4z
			 M345.6,381.6c0-20.3-0.1-40.7,0.1-61l11.3,0.1c-0.1,20.3-0.4,40.6-0.6,60.9c0,0,0,0,0,0C355,386.4,346.8,386.7,345.6,381.6z
			 M356.3,383.9c0,2.2,0,4.4,0,6.7l-10.7-0.1c0-2.2,0-4.4,0-6.5C348,387.2,353.8,387.1,356.3,383.9z M343.1,397.4
			c-0.3-0.2-0.6-0.3-0.8-0.6c0,0,0,0,0,0c0,0,0,0,0-0.1c-0.1-0.4-0.3-2.2-0.1-2.7c0,0.1,0.3,0,0.7-0.1c0.6,0,1.2-0.1,1.8-0.1
			c1.7,0,3.4-0.1,5,0c1.8,0,3.6,0,5.5,0.1c1.1,0,3.1-0.2,4.1,0.3c0.7,0.3,0.6,1,0.4,1.8c-0.2,0.9-0.3,0.9-1.2,1.5
			c-2.3,1.4-4.9,2.7-7.6,2.8C348,400.2,345.4,398.9,343.1,397.4z M344.5,399.4c2,1.1,4.1,1.9,6.4,2c2.3-0.1,4.4-0.9,6.4-1.9
			c-0.1,1.9-0.4,5-2.5,5.3c-1.3,0.2-2.7,0-3.9,0c-1.3,0-2.7,0.2-3.9,0C344.9,404.4,344.6,401.3,344.5,399.4z M350.8,416.8
			c-0.5,0-1,0-1.4,0.1c-4.8-1-6.5-7.3-3.1-11c0-0.1,0.1-0.1,0.1-0.2c1.3,0.3,3.1,0,4.4,0c1.3,0,3,0.3,4.4,0.1c0,0,0,0,0,0
			c3.5,3.7,1.8,10.1-3.1,11.1C351.7,416.9,351.3,416.8,350.8,416.8z"/>
		<path d="M352.1,373.6c-0.5-0.5-0.9-2.9-1.2-2.9c-0.3,0-0.6,2.3-1.1,2.9c-0.6,0.6-2.1,0.7-2.1,1.1c0,0.4,1.5,0.5,2.1,1
			c0.6,0.6,0.9,2.9,1.2,2.9c0.3,0,0.7-2.4,1.1-2.9c0.5-0.5,2.1-0.8,2.1-1.1C354.3,374.3,352.7,374.1,352.1,373.6z"/>
		<path d="M352.2,363.6c-0.5-0.5-0.9-2.9-1.2-2.9c-0.3,0-0.6,2.3-1.1,2.9c-0.6,0.6-2.1,0.7-2.1,1.1c0,0.4,1.5,0.5,2.1,1
			c0.6,0.6,0.9,2.9,1.2,2.9c0.3,0,0.7-2.4,1.1-2.9c0.5-0.5,2.1-0.8,2.1-1.1C354.3,364.4,352.7,364.2,352.2,363.6z"/>
		<path d="M352.9,222.6c-0.5-0.5-0.9-2.9-1.2-2.9c-0.3,0-0.6,2.3-1.1,2.9s-2.1,0.7-2.1,1.1c0,0.4,1.5,0.5,2.1,1
			c0.6,0.6,0.9,2.9,1.2,2.9c0.3,0,0.7-2.4,1.1-2.9c0.5-0.5,2.1-0.8,2.1-1.1C355.1,223.3,353.5,223.1,352.9,222.6z"/>
		<path d="M351.8,209.7c-0.3,0-0.6,2.3-1.1,2.9s-2.1,0.7-2.1,1.1c0,0.4,1.5,0.5,2.1,1c0.6,0.6,0.9,2.9,1.2,2.9
			c0.3,0,0.7-2.4,1.1-2.9c0.5-0.5,2.1-0.8,2.1-1.1c0-0.3-1.6-0.5-2.1-1C352.5,212.1,352.1,209.7,351.8,209.7z"/>
		<path d="M351.4,287.8c-1,0-1.9,0.6-1.9,2.4c0,1.8,1.8,14.5,1.8,14.5s1.9-12.6,1.9-14.5S352.5,287.8,351.4,287.8z"/>
		<polygon points="355.7,411 352.1,410.3 353.5,408.4 351.5,409.7 350.8,406.1 350.1,409.7 348.1,408.3 349.4,410.3 345.9,411 
			349.4,411.7 348.1,413.7 350.1,412.4 350.8,415.9 351.5,412.4 353.5,413.7 352.1,411.7 		"/>
		<path d="M162.9,702.5c0.7,0,1.3,0,1.9-0.2c2.3-0.7,2.7-4.6,2.8-6.6c0.3,0,0.6,0,0.9,0c0.3,0,0.5-0.2,0.5-0.5c0-1.9,0-3.9,0-5.8
			c0-0.3-0.2-0.5-0.5-0.5c-0.6,0-1.2,0-1.8,0c0-2.7,0-5.5,0-8.2c0-0.3-0.2-0.5-0.5-0.5c-0.1,0-0.3,0-0.4,0
			c0.2-26.6,0.6-53.2,0.7-79.9c0.3,0,0.6,0,0.9,0c0.1,0,0.2,0,0.2-0.1c0.2-0.1,0.3-0.2,0.3-0.5c-0.1-1.3-0.3-3-1.1-4.2
			c0.1-11.1-0.1-22.2-0.1-33.2c0-0.1-0.1-0.2-0.1-0.3c1.2-1.3,1.5-3.7,1.6-5.2c0-0.3-0.2-0.5-0.5-0.5c-0.2,0-0.4,0-0.6,0
			c0.1-24.7,0-49.4,0.1-74.1c0-0.1,0-0.2-0.1-0.3c0.3,0,0.7,0,1,0c0.6,0,1.7,0.1,2.2-0.3c0.7-0.6,0.5-3.1,0.2-3.9
			c-0.3-0.8-1.3-1.4-2.2-1.8c-0.1-1.8-0.2-5.3-2-6.5c3.3-3.8,2.1-9.8-2-12c4.7-1.4,8.1-5.7,8.1-10.8c0-1.1-0.1-2.1-0.4-3.1
			c-1.4,4.8-5.8,8.2-11,8.2c-5.2,0-9.6-3.6-10.9-8.4c-0.3,1-0.5,2-0.5,3.1c0,5.2,3.3,9.5,8,11c-4.2,2.1-5.4,8.1-2.1,11.9
			c-1.8,1.2-2,4.7-2.1,6.5c0,0,0,0,0,0c-0.1,0.1-0.2,0.1-0.3,0.2c-1.7,1-2.5,1.8-2.2,4.1c0.2,1.4,1.9,1.7,3.4,1.7
			c-0.1,24.8-0.6,49.6-0.7,74.4c-0.2,0-0.4,0-0.6,0c-0.1,0-0.2,0-0.2,0.1c-0.2,0.1-0.3,0.2-0.3,0.4c0.1,1.5,0.3,3.9,1.5,5.2
			c-0.1,0.1-0.2,0.2-0.2,0.4c-0.1,11.1-0.4,22.2-0.5,33.2c0,0,0,0,0,0.1c-0.8,1.2-1,2.8-1.1,4.1c0,0.3,0.2,0.5,0.5,0.5
			c0.3,0,0.5,0,0.8,0c-0.1,26.6,0,53.2-0.1,79.9c-0.1,0-0.2,0-0.3,0c-0.1,0-0.2,0.1-0.3,0.1c0,0,0,0,0,0c0,0,0,0,0,0
			c-0.1,0.1-0.1,0.2-0.1,0.3c0,2.7,0,5.5,0,8.2c-0.6,0-1.2,0-1.8,0c-0.1,0-0.2,0.1-0.3,0.1c0,0,0,0,0,0c0,0,0,0,0,0
			c-0.1,0.1-0.1,0.2-0.1,0.3c0,1.9,0,3.9,0,5.8c0,0.3,0.2,0.5,0.5,0.5c0.3,0,0.6,0,0.9,0c0.1,2.1,0.4,6.1,2.9,6.7
			c0.5,0.1,1.1,0.2,1.8,0.2c-1.5,2.5,0,5.9,3.2,6C162.8,708.4,164.3,705,162.9,702.5z M159.5,457.8c0.4,0.1,0.9,0.1,1.3,0.1
			c0.5,0,1,0,1.4-0.1c4.8,1,6.5,7.3,3.1,11c0,0.1-0.1,0.1-0.1,0.2c-1.3-0.3-3.1,0-4.4,0c-1.3,0-3-0.3-4.4-0.1c0,0,0,0,0,0
			C153,465.1,154.7,458.8,159.5,457.8z M157,470c1.3-0.2,2.7,0,3.9,0c1.3,0,2.7-0.2,3.9,0c2,0.3,2.3,3.4,2.4,5.3
			c-2-1.1-4.1-1.9-6.4-2c-2.3,0.1-4.4,0.9-6.4,1.9C154.6,473.3,154.9,470.2,157,470z M152.5,480.5c-0.7-0.3-0.6-1-0.4-1.8
			c0.2-0.9,0.3-0.9,1.2-1.5c2.3-1.4,4.9-2.7,7.6-2.8c2.8,0.1,5.5,1.5,7.7,3c0.3,0.2,0.6,0.3,0.8,0.6c0,0,0,0,0,0c0,0,0,0,0,0.1
			c0.1,0.4,0.3,2.2,0.1,2.7c0-0.1-0.3,0-0.7,0.1c-0.6,0-1.2,0.1-1.8,0.1c-1.7,0-3.4,0.1-5,0c-1.8,0-3.6,0-5.5-0.1
			C155.5,480.7,153.5,481,152.5,480.5z M155.4,490.8c0-2.2,0-4.4,0-6.7l10.7,0.1c0,2.2,0,4.4,0,6.5
			C163.7,487.5,157.9,487.6,155.4,490.8z M166.1,554.1l-11.3-0.1c0.1-20.3,0.4-40.6,0.6-60.9c0,0,0,0,0,0c1.3-4.9,9.5-5.1,10.8,0
			C166.1,513.4,166.2,533.7,166.1,554.1z M153.7,557.2c4.5,0,9,0,13.5,0.1c-0.2,1.9-0.6,4.4-2.8,4.5c-1.3,0.1-2.6,0-4,0
			c-1.3,0-2.7,0.1-4,0C154.3,561.6,153.8,559.1,153.7,557.2z M165.8,594.5c-0.3-0.2-0.6-0.3-1-0.3c-1.5-0.2-3.2,0-4.7,0
			c-1.5,0-3.3-0.3-4.7,0c-0.4,0.1-0.7,0.2-1,0.4c0.1-10.7,0.4-21.3,0.5-32c0.2,0.1,0.4,0.2,0.7,0.2c1.5,0.3,3.2,0,4.7,0
			c1.5,0,3.4,0.3,4.9,0c0.1,0,0.3-0.1,0.4-0.1C165.7,573.3,165.9,583.9,165.8,594.5z M153.5,599.2c0.2-1.9,0.8-3.9,2.9-4
			c1.3,0,2.6,0,3.8,0c1.3,0,2.6-0.1,4,0c2,0.1,2.6,2.2,2.7,4C162.4,599.2,158,599.2,153.5,599.2z M164.9,671c0,2.3,0,4.6-0.1,6.9
			l-10.3-0.1c0-2.3,0-4.5,0-6.8C157,673.9,162.5,673.9,164.9,671z M154.6,668.9c0.1-22.2,0-44.3,0.1-66.5l10.9,0.1
			c-0.1,22.2-0.4,44.3-0.6,66.4C163.7,673.2,155.8,673.3,154.6,668.9z M165.8,681.1c0,2.5,0,4.9,0,7.4c-4,0-8,0-12-0.1
			c0-2.5,0-4.9,0-7.4C157.8,681.1,161.8,681.1,165.8,681.1z M151.4,692.2c0-0.8,0-1.6,0-2.4c5.5,0,11,0.1,16.6,0.1
			c0,0.8,0,1.6,0,2.4L151.4,692.2z M155.4,701.3c-2.3-0.3-2.5-3.8-2.6-5.7c4.6,0,9.2,0,13.8,0.1c-0.1,2-0.4,5.4-2.8,5.7
			c-1.3,0.1-2.8,0-4.1,0C158.3,701.3,156.8,701.5,155.4,701.3z M159.6,707.4c-2.6,0-3.6-3.1-1.9-4.9c0,0,0,0,0,0
			c0.7,0,1.3-0.1,1.9-0.1c0.6,0,1.3,0.1,2,0.1c0,0,0,0.1,0.1,0.1C163.3,704.4,162.2,707.4,159.6,707.4z"/>
		<path d="M161.9,498.9c-0.6-0.6-0.9-2.9-1.2-2.9c-0.3,0-0.7,2.4-1.1,2.9c-0.5,0.5-2.1,0.8-2.1,1.1c0,0.3,1.6,0.5,2.1,1
			c0.5,0.5,0.9,2.9,1.2,2.9c0.3,0,0.6-2.3,1.1-2.9c0.6-0.6,2.1-0.7,2.1-1.1C164,499.6,162.5,499.5,161.9,498.9z"/>
		<path d="M161.8,508.9c-0.6-0.6-0.9-2.9-1.2-2.9c-0.3,0-0.7,2.4-1.1,2.9c-0.5,0.5-2.1,0.8-2.1,1.1c0,0.3,1.6,0.5,2.1,1
			c0.5,0.5,0.9,2.9,1.2,2.9c0.3,0,0.6-2.3,1.1-2.9c0.6-0.6,2.1-0.7,2.1-1.1C163.9,509.5,162.4,509.4,161.8,508.9z"/>
		<path d="M158.8,652.1c0.5,0.5,0.9,2.9,1.2,2.9c0.3,0,0.6-2.3,1.1-2.9c0.6-0.6,2.1-0.7,2.1-1.1c0-0.4-1.5-0.5-2.1-1
			c-0.6-0.6-0.9-2.9-1.2-2.9c-0.3,0-0.7,2.4-1.1,2.9c-0.5,0.5-2.1,0.8-2.1,1.1C156.6,651.4,158.2,651.6,158.8,652.1z"/>
		<path d="M159.9,664.9c0.3,0,0.6-2.3,1.1-2.9s2.1-0.7,2.1-1.1c0-0.4-1.5-0.5-2.1-1c-0.6-0.6-0.9-2.9-1.2-2.9
			c-0.3,0-0.7,2.4-1.1,2.9c-0.5,0.5-2.1,0.8-2.1,1.1c0,0.3,1.6,0.5,2.1,1C159.2,662.6,159.6,665,159.9,664.9z"/>
		<path d="M158.4,584.5c0,1.8,0.8,2.4,1.9,2.4c1,0,1.9-0.6,1.9-2.4c0-1.8-1.8-14.5-1.8-14.5S158.4,582.6,158.4,584.5z"/>
		<polygon points="158.2,466.3 160.2,465 160.9,468.6 161.6,465 163.6,466.4 162.2,464.4 165.8,463.7 162.3,463 163.6,461 
			161.6,462.3 160.9,458.8 160.2,462.3 158.2,461 159.6,463 156,463.7 159.5,464.4 		"/>
		<path d="M235.2,708.4c0.3-1,0.5-2,0.5-3.1c0-5.2-3.3-9.5-8-11c4.2-2.1,5.4-8.1,2.1-11.9c1.8-1.2,2-4.7,2.1-6.5c0,0,0,0,0,0
			c0.1-0.1,0.2-0.1,0.3-0.2c1.7-1,2.5-1.8,2.2-4.1c-0.2-1.4-1.9-1.7-3.4-1.7c0.1-24.8,0.6-49.6,0.7-74.4c0.2,0,0.4,0,0.6,0
			c0.1,0,0.2,0,0.2-0.1c0.2-0.1,0.3-0.2,0.3-0.4c-0.1-1.5-0.3-3.9-1.5-5.2c0.1-0.1,0.2-0.2,0.2-0.4c0.1-11.1,0.4-22.2,0.5-33.2
			c0,0,0,0,0-0.1c0.8-1.2,1-2.8,1.1-4.1c0-0.3-0.2-0.5-0.5-0.5c-0.3,0-0.5,0-0.8,0c0.1-26.6,0-53.2,0.1-79.9c0.1,0,0.2,0,0.3,0
			c0.1,0,0.2-0.1,0.3-0.1c0,0,0,0,0,0c0,0,0,0,0,0c0.1-0.1,0.1-0.2,0.1-0.3c0-2.7,0-5.5,0-8.2c0.6,0,1.2,0,1.8,0
			c0.1,0,0.2-0.1,0.3-0.1c0,0,0,0,0,0c0,0,0,0,0,0c0.1-0.1,0.1-0.2,0.1-0.3c0-1.9,0-3.9,0-5.8c0-0.3-0.2-0.5-0.5-0.5
			c-0.3,0-0.6,0-0.9,0c-0.1-2.1-0.4-6.1-2.9-6.7c-0.5-0.1-1.1-0.2-1.8-0.2c1.5-2.5,0-5.9-3.2-6c-3.2,0-4.7,3.4-3.3,5.9
			c-0.7,0-1.3,0-1.9,0.2c-2.3,0.7-2.7,4.6-2.8,6.6c-0.3,0-0.6,0-0.9,0c-0.3,0-0.5,0.2-0.5,0.5c0,1.9,0,3.9,0,5.8
			c0,0.3,0.2,0.5,0.5,0.5c0.6,0,1.2,0,1.8,0c0,2.7,0,5.5,0,8.2c0,0.3,0.2,0.5,0.5,0.5c0.1,0,0.3,0,0.4,0
			c-0.2,26.6-0.6,53.2-0.7,79.9c-0.3,0-0.6,0-0.9,0c-0.1,0-0.2,0-0.2,0.1c-0.2,0.1-0.3,0.2-0.3,0.5c0.1,1.3,0.3,3,1.1,4.2
			c-0.1,11.1,0.1,22.2,0.1,33.2c0,0.1,0.1,0.2,0.1,0.3c-1.2,1.3-1.5,3.7-1.6,5.2c0,0.3,0.2,0.5,0.5,0.5c0.2,0,0.4,0,0.6,0
			c-0.1,24.7,0,49.4-0.1,74.1c0,0.1,0,0.2,0.1,0.3c-0.3,0-0.7,0-1,0c-0.6,0-1.7-0.1-2.2,0.3c-0.7,0.6-0.5,3.1-0.2,3.9
			c0.3,0.8,1.3,1.4,2.2,1.8c0.1,1.8,0.2,5.3,2,6.5c-3.3,3.8-2.1,9.8,2,12c-4.7,1.4-8.1,5.7-8.1,10.8c0,1.1,0.1,2.1,0.4,3.1
			c1.4-4.8,5.8-8.2,11-8.2C229.5,700.1,233.8,703.6,235.2,708.4z M225.6,444.3c2.6,0,3.6,3.1,1.9,4.9c0,0,0,0,0,0
			c-0.7,0-1.3,0.1-1.9,0.1c-0.6,0-1.3-0.1-2-0.1c0,0,0-0.1-0.1-0.1C221.9,447.3,223,444.3,225.6,444.3z M221.4,450.4
			c1.3-0.1,2.8,0,4.1,0c1.4,0,2.9-0.2,4.3,0c2.3,0.3,2.5,3.8,2.6,5.7c-4.6,0-9.2,0-13.8-0.1C218.8,454.1,219,450.6,221.4,450.4z
			 M217.2,461.8c0-0.8,0-1.6,0-2.4l16.6,0.1c0,0.8,0,1.6,0,2.4C228.3,461.9,222.7,461.9,217.2,461.8z M220.3,480.7
			c0-2.3,0-4.6,0.1-6.9l10.3,0.1c0,2.3,0,4.5,0,6.8C228.2,477.8,222.7,477.9,220.3,480.7z M230.6,482.8c-0.1,22.2,0,44.3-0.1,66.5
			l-10.9-0.1c0.1-22.1,0.4-44.3,0.6-66.4C221.5,478.6,229.4,478.4,230.6,482.8z M219.5,470.6c0-2.5,0-4.9,0-7.4c4,0,8,0,12,0.1
			c0,2.5,0,4.9,0,7.4C227.5,470.6,223.5,470.6,219.5,470.6z M218.3,552.5c4.5,0,9,0,13.4,0.1c-0.2,1.9-0.8,3.9-2.9,4
			c-1.3,0-2.6,0-3.8,0c-1.3,0-2.6,0.1-4,0C219,556.4,218.5,554.3,218.3,552.5z M230.7,557.2c-0.1,10.7-0.4,21.3-0.5,32
			c-0.2-0.1-0.4-0.2-0.7-0.2c-1.5-0.3-3.2,0-4.7,0c-1.5,0-3.4-0.3-4.9,0c-0.2,0-0.3,0.1-0.4,0.1c0-10.6-0.2-21.3-0.1-31.9
			c0.3,0.2,0.6,0.3,1,0.3c1.5,0.2,3.2,0,4.7,0c1.5,0,3.3,0.3,4.7,0C230.1,557.5,230.4,557.4,230.7,557.2z M218.1,594.4
			c0.2-1.9,0.6-4.4,2.8-4.5c1.3-0.1,2.6,0,4,0c1.3,0,2.7-0.1,4,0c2.1,0.1,2.6,2.6,2.7,4.5C227,594.5,222.6,594.4,218.1,594.4z
			 M219.1,658.6c0-20.3-0.1-40.7,0.1-61l11.3,0.1c-0.1,20.3-0.4,40.6-0.6,60.9c0,0,0,0,0,0C228.6,663.5,220.3,663.7,219.1,658.6z
			 M229.8,660.9c0,2.2,0,4.4,0,6.7l-10.7-0.1c0-2.2,0-4.4,0-6.5C221.6,664.2,227.3,664.1,229.8,660.9z M216.6,674.4
			c-0.3-0.2-0.6-0.3-0.8-0.6c0,0,0,0,0,0c0,0,0,0,0-0.1c-0.1-0.4-0.3-2.2-0.1-2.7c0,0.1,0.3,0,0.7-0.1c0.6,0,1.2-0.1,1.8-0.1
			c1.7,0,3.4-0.1,5,0c1.8,0,3.6,0,5.5,0.1c1.1,0,3.1-0.2,4.1,0.3c0.7,0.3,0.6,1,0.4,1.8c-0.2,0.9-0.3,0.9-1.2,1.5
			c-2.3,1.4-4.9,2.7-7.6,2.8C221.6,677.3,218.9,675.9,216.6,674.4z M218,676.4c2,1.1,4.1,1.9,6.4,2c2.3-0.1,4.4-0.9,6.4-1.9
			c-0.1,1.9-0.4,5-2.5,5.3c-1.3,0.2-2.7,0-3.9,0c-1.3,0-2.7,0.2-3.9,0C218.4,681.4,218.1,678.3,218,676.4z M224.3,693.8
			c-0.5,0-1,0-1.4,0.1c-4.8-1-6.5-7.3-3.1-11c0-0.1,0.1-0.1,0.1-0.2c1.3,0.3,3.1,0,4.4,0c1.3,0,3,0.3,4.4,0.1c0,0,0,0,0,0
			c3.5,3.7,1.8,10.1-3.1,11.1C225.2,693.9,224.8,693.8,224.3,693.8z"/>
		<path d="M225.7,650.6c-0.5-0.5-0.9-2.9-1.2-2.9c-0.3,0-0.6,2.3-1.1,2.9c-0.6,0.6-2.1,0.7-2.1,1.1c0,0.4,1.5,0.5,2.1,1
			c0.6,0.6,0.9,2.9,1.2,2.9c0.3,0,0.7-2.4,1.1-2.9c0.5-0.5,2.1-0.8,2.1-1.1C227.8,651.3,226.2,651.1,225.7,650.6z"/>
		<path d="M225.7,640.7c-0.5-0.5-0.9-2.9-1.2-2.9c-0.3,0-0.6,2.3-1.1,2.9c-0.6,0.6-2.1,0.7-2.1,1.1s1.5,0.5,2.1,1
			c0.6,0.6,0.9,2.9,1.2,2.9s0.7-2.4,1.1-2.9c0.5-0.5,2.1-0.8,2.1-1.1C227.8,641.4,226.3,641.2,225.7,640.7z"/>
		<path d="M226.5,499.6c-0.5-0.5-0.9-2.9-1.2-2.9c-0.3,0-0.6,2.3-1.1,2.9c-0.6,0.6-2.1,0.7-2.1,1.1c0,0.4,1.5,0.5,2.1,1
			c0.6,0.6,0.9,2.9,1.2,2.9c0.3,0,0.7-2.4,1.1-2.9c0.5-0.5,2.1-0.8,2.1-1.1C228.6,500.3,227,500.1,226.5,499.6z"/>
		<path d="M225.3,486.8c-0.3,0-0.6,2.3-1.1,2.9c-0.6,0.6-2.1,0.7-2.1,1.1s1.5,0.5,2.1,1c0.6,0.6,0.9,2.9,1.2,2.9
			c0.3,0,0.7-2.4,1.1-2.9c0.5-0.5,2.1-0.8,2.1-1.1c0-0.3-1.6-0.5-2.1-1C226,489.1,225.6,486.8,225.3,486.8z"/>
		<path d="M225,564.8c-1,0-1.9,0.6-1.9,2.4c0,1.8,1.8,14.5,1.8,14.5s1.9-12.6,1.9-14.5C226.8,565.4,226,564.8,225,564.8z"/>
		<polygon points="229.2,688.1 225.7,687.3 227,685.4 225,686.7 224.3,683.1 223.6,686.7 221.6,685.3 223,687.3 219.4,688 
			223,688.7 221.6,690.7 223.6,689.4 224.3,693 225,689.4 227,690.7 225.7,688.7 		"/>
		<path d="M287.4,451.7c-5.2,0-9.6-3.6-10.9-8.4c-0.3,1-0.5,2-0.5,3.1c0,5.2,3.3,9.5,8,11c-4.2,2.1-5.4,8.1-2.1,11.9
			c-1.8,1.2-2,4.7-2.1,6.5c0,0,0,0,0,0c-0.1,0.1-0.2,0.1-0.3,0.2c-1.7,1-2.5,1.8-2.2,4.1c0.2,1.4,1.9,1.7,3.4,1.7
			c-0.1,24.8-0.6,49.6-0.7,74.4c-0.2,0-0.4,0-0.6,0c-0.1,0-0.2,0-0.2,0.1c-0.2,0.1-0.3,0.2-0.3,0.4c0.1,1.5,0.3,3.9,1.5,5.2
			c-0.1,0.1-0.2,0.2-0.2,0.4c-0.1,11.1-0.4,22.2-0.5,33.2c0,0,0,0,0,0.1c-0.8,1.2-1,2.8-1.1,4.1c0,0.3,0.2,0.5,0.5,0.5
			c0.3,0,0.5,0,0.8,0c-0.1,26.6,0,53.2-0.1,79.9c-0.1,0-0.2,0-0.3,0c-0.1,0-0.2,0.1-0.3,0.1c0,0,0,0,0,0c0,0,0,0,0,0
			c-0.1,0.1-0.1,0.2-0.1,0.3c0,2.7,0,5.5,0,8.2c-0.6,0-1.2,0-1.8,0c-0.1,0-0.2,0.1-0.3,0.1c0,0,0,0,0,0c0,0,0,0,0,0
			c-0.1,0.1-0.1,0.2-0.1,0.3c0,1.9,0,3.9,0,5.8c0,0.3,0.2,0.5,0.5,0.5c0.3,0,0.6,0,0.9,0c0.1,2.1,0.4,6.1,2.9,6.7
			c0.5,0.1,1.1,0.2,1.8,0.2c-1.5,2.5,0,5.9,3.2,6c3.2,0,4.7-3.4,3.3-5.9c0.7,0,1.3,0,1.9-0.2c2.3-0.7,2.7-4.6,2.8-6.6
			c0.3,0,0.6,0,0.9,0c0.3,0,0.5-0.2,0.5-0.5c0-1.9,0-3.9,0-5.8c0-0.3-0.2-0.5-0.5-0.5c-0.6,0-1.2,0-1.8,0c0-2.7,0-5.5,0-8.2
			c0-0.3-0.2-0.5-0.5-0.5c-0.1,0-0.3,0-0.4,0c0.2-26.6,0.6-53.2,0.7-79.9c0.3,0,0.6,0,0.9,0c0.1,0,0.2,0,0.2-0.1
			c0.2-0.1,0.3-0.2,0.3-0.5c-0.1-1.3-0.3-3-1.1-4.2c0.1-11.1-0.1-22.2-0.1-33.2c0-0.1-0.1-0.2-0.1-0.3c1.2-1.3,1.5-3.7,1.6-5.2
			c0-0.3-0.2-0.5-0.5-0.5c-0.2,0-0.4,0-0.6,0c0.1-24.7,0-49.4,0.1-74.1c0-0.1,0-0.2-0.1-0.3c0.3,0,0.7,0,1,0c0.6,0,1.7,0.1,2.2-0.3
			c0.7-0.6,0.5-3.1,0.2-3.9c-0.3-0.8-1.3-1.4-2.2-1.8c-0.1-1.8-0.2-5.3-2-6.5c3.3-3.8,2.1-9.8-2-12c4.7-1.4,8.1-5.7,8.1-10.8
			c0-1.1-0.1-2.1-0.4-3.1C297.1,448.2,292.6,451.7,287.4,451.7z M286.1,707.4c-2.6,0-3.6-3.1-1.9-4.9c0,0,0,0,0,0
			c0.7,0,1.3-0.1,1.9-0.1c0.6,0,1.3,0.1,2,0.1c0,0,0,0.1,0.1,0.1C289.8,704.4,288.7,707.4,286.1,707.4z M290.3,701.3
			c-1.3,0.1-2.8,0-4.1,0c-1.4,0-2.9,0.2-4.3,0c-2.3-0.3-2.5-3.8-2.6-5.7c4.6,0,9.2,0,13.8,0.1C292.9,697.7,292.6,701.1,290.3,701.3z
			 M294.5,689.9c0,0.8,0,1.6,0,2.4l-16.6-0.1c0-0.8,0-1.6,0-2.4C283.4,689.8,289,689.8,294.5,689.9z M291.4,671c0,2.3,0,4.6-0.1,6.9
			l-10.3-0.1c0-2.3,0-4.5,0-6.8C283.5,673.9,289,673.9,291.4,671z M281.1,668.9c0.1-22.2,0-44.3,0.1-66.5l10.9,0.1
			c-0.1,22.2-0.4,44.3-0.6,66.4C290.2,673.2,282.3,673.3,281.1,668.9z M292.2,681.1c0,2.5,0,4.9,0,7.4c-4,0-8,0-12-0.1
			c0-2.5,0-4.9,0-7.4C284.2,681.1,288.2,681.1,292.2,681.1z M293.4,599.2c-4.5,0-9,0-13.4-0.1c0.2-1.9,0.8-3.9,2.9-4
			c1.3,0,2.6,0,3.8,0c1.3,0,2.6-0.1,4,0C292.7,595.3,293.2,597.4,293.4,599.2z M281,594.5c0.1-10.7,0.4-21.3,0.5-32
			c0.2,0.1,0.4,0.2,0.7,0.2c1.5,0.3,3.2,0,4.7,0c1.5,0,3.4,0.3,4.9,0c0.2,0,0.3-0.1,0.4-0.1c0,10.6,0.2,21.3,0.1,31.9
			c-0.3-0.2-0.6-0.3-1-0.3c-1.5-0.2-3.2,0-4.7,0c-1.5,0-3.3-0.3-4.7,0C281.6,594.2,281.3,594.4,281,594.5z M293.6,557.3
			c-0.2,1.9-0.6,4.4-2.8,4.5c-1.3,0.1-2.6,0-4,0c-1.3,0-2.7,0.1-4,0c-2.1-0.1-2.6-2.6-2.7-4.5C284.6,557.3,289.1,557.3,293.6,557.3z
			 M292.6,493.1c0,20.3,0.1,40.7-0.1,61l-11.3-0.1c0.1-20.3,0.4-40.6,0.6-60.9c0,0,0,0,0,0C283.1,488.3,291.4,488,292.6,493.1z
			 M281.9,490.8c0-2.2,0-4.4,0-6.7l10.7,0.1c0,2.2,0,4.4,0,6.5C290.1,487.5,284.4,487.6,281.9,490.8z M295.1,477.3
			c0.3,0.2,0.6,0.3,0.8,0.6c0,0,0,0,0,0c0,0,0,0,0,0.1c0.1,0.4,0.3,2.2,0.1,2.7c0-0.1-0.3,0-0.7,0.1c-0.6,0-1.2,0.1-1.8,0.1
			c-1.7,0-3.4,0.1-5,0c-1.8,0-3.6,0-5.5-0.1c-1.1,0-3.1,0.2-4.1-0.3c-0.7-0.3-0.6-1-0.4-1.8c0.2-0.9,0.3-0.9,1.2-1.5
			c2.3-1.4,4.9-2.7,7.6-2.8C290.1,474.4,292.8,475.8,295.1,477.3z M293.7,475.3c-2-1.1-4.1-1.9-6.4-2c-2.3,0.1-4.4,0.9-6.4,1.9
			c0.1-1.9,0.4-5,2.5-5.3c1.3-0.2,2.7,0,3.9,0c1.3,0,2.7-0.2,3.9,0C293.3,470.3,293.6,473.4,293.7,475.3z M291.9,468.8
			c0,0.1-0.1,0.1-0.1,0.2c-1.3-0.3-3.1,0-4.4,0c-1.3,0-3-0.3-4.4-0.1c0,0,0,0,0,0c-3.5-3.7-1.8-10.1,3.1-11.1
			c0.4,0.1,0.9,0.1,1.3,0.1c0.5,0,1,0,1.4-0.1C293.6,458.8,295.2,465.1,291.9,468.8z"/>
		<path d="M286,501.1c0.5,0.5,0.9,2.9,1.2,2.9c0.3,0,0.6-2.3,1.1-2.9c0.6-0.6,2.1-0.7,2.1-1.1c0-0.4-1.5-0.5-2.1-1
			c-0.6-0.6-0.9-2.9-1.2-2.9c-0.3,0-0.7,2.4-1.1,2.9c-0.5,0.5-2.1,0.8-2.1,1.1C283.9,500.4,285.5,500.6,286,501.1z"/>
		<path d="M286,511.1c0.5,0.5,0.9,2.9,1.2,2.9c0.3,0,0.6-2.3,1.1-2.9c0.6-0.6,2.1-0.7,2.1-1.1c0-0.4-1.5-0.5-2.1-1
			c-0.6-0.6-0.9-2.9-1.2-2.9c-0.3,0-0.7,2.4-1.1,2.9c-0.5,0.5-2.1,0.8-2.1,1.1C283.9,510.3,285.4,510.5,286,511.1z"/>
		<path d="M285.2,652.1c0.5,0.5,0.9,2.9,1.2,2.9c0.3,0,0.6-2.3,1.1-2.9c0.6-0.6,2.1-0.7,2.1-1.1c0-0.4-1.5-0.5-2.1-1
			c-0.6-0.6-0.9-2.9-1.2-2.9c-0.3,0-0.7,2.4-1.1,2.9c-0.5,0.5-2.1,0.8-2.1,1.1C283.1,651.4,284.7,651.6,285.2,652.1z"/>
		<path d="M286.4,664.9c0.3,0,0.6-2.3,1.1-2.9s2.1-0.7,2.1-1.1c0-0.4-1.5-0.5-2.1-1c-0.6-0.6-0.9-2.9-1.2-2.9
			c-0.3,0-0.7,2.4-1.1,2.9c-0.5,0.5-2.1,0.8-2.1,1.1c0,0.3,1.6,0.5,2.1,1C285.7,662.6,286.1,665,286.4,664.9z"/>
		<path d="M286.7,586.9c1,0,1.9-0.6,1.9-2.4c0-1.8-1.8-14.5-1.8-14.5s-1.9,12.6-1.9,14.5C284.9,586.3,285.7,586.9,286.7,586.9z"/>
		<polygon points="288.1,462.3 287.4,458.8 286.7,462.3 284.7,461 286,463 282.5,463.7 286,464.4 284.7,466.3 286.7,465 
			287.4,468.6 288.1,465 290,466.4 288.7,464.4 292.3,463.7 288.7,463 290.1,461 		"/>
		<path d="M354.1,694.3c4.2-2.1,5.4-8.1,2.1-11.9c1.8-1.2,2-4.7,2.1-6.5c0,0,0,0,0,0c0.1-0.1,0.2-0.1,0.3-0.2c1.7-1,2.5-1.8,2.2-4.1
			c-0.2-1.4-1.9-1.7-3.4-1.7c0.1-24.8,0.6-49.6,0.7-74.4c0.2,0,0.4,0,0.6,0c0.1,0,0.2,0,0.2-0.1c0.2-0.1,0.3-0.2,0.3-0.4
			c-0.1-1.5-0.3-3.9-1.5-5.2c0.1-0.1,0.2-0.2,0.2-0.4c0.1-11.1,0.4-22.2,0.5-33.2c0,0,0,0,0-0.1c0.8-1.2,1-2.8,1.1-4.1
			c0-0.3-0.2-0.5-0.5-0.5c-0.3,0-0.5,0-0.8,0c0.1-26.6,0-53.2,0.1-79.9c0.1,0,0.2,0,0.3,0c0.1,0,0.2-0.1,0.3-0.1c0,0,0,0,0,0
			c0,0,0,0,0,0c0.1-0.1,0.1-0.2,0.1-0.3c0-2.7,0-5.5,0-8.2c0.6,0,1.2,0,1.8,0c0.1,0,0.2-0.1,0.3-0.1c0,0,0,0,0,0c0,0,0,0,0,0
			c0.1-0.1,0.1-0.2,0.1-0.3c0-1.9,0-3.9,0-5.8c0-0.3-0.2-0.5-0.5-0.5c-0.3,0-0.6,0-0.9,0c-0.1-2.1-0.4-6.1-2.9-6.7
			c-0.5-0.1-1.1-0.2-1.8-0.2c1.5-2.5,0-5.9-3.2-6c-3.2,0-4.7,3.4-3.3,5.9c-0.7,0-1.3,0-1.9,0.2c-2.3,0.7-2.7,4.6-2.8,6.6
			c-0.3,0-0.6,0-0.9,0c-0.3,0-0.5,0.2-0.5,0.5c0,1.9,0,3.9,0,5.8c0,0.3,0.2,0.5,0.5,0.5c0.6,0,1.2,0,1.8,0c0,2.7,0,5.5,0,8.2
			c0,0.3,0.2,0.5,0.5,0.5c0.1,0,0.3,0,0.4,0c-0.2,26.6-0.6,53.2-0.7,79.9c-0.3,0-0.6,0-0.9,0c-0.1,0-0.2,0-0.2,0.1
			c-0.2,0.1-0.3,0.2-0.3,0.5c0.1,1.3,0.3,3,1.1,4.2c-0.1,11.1,0.1,22.2,0.1,33.2c0,0.1,0.1,0.2,0.1,0.3c-1.2,1.3-1.5,3.7-1.6,5.2
			c0,0.3,0.2,0.5,0.5,0.5c0.2,0,0.4,0,0.6,0c-0.1,24.7,0,49.4-0.1,74.1c0,0.1,0,0.2,0.1,0.3c-0.3,0-0.7,0-1,0
			c-0.6,0-1.7-0.1-2.2,0.3c-0.7,0.6-0.5,3.1-0.2,3.9c0.3,0.8,1.3,1.4,2.2,1.8c0.1,1.8,0.2,5.3,2,6.5c-3.3,3.8-2.1,9.8,2,12
			c-4.7,1.4-8.1,5.7-8.1,10.8c0,1.1,0.1,2.1,0.4,3.1c1.4-4.8,5.8-8.2,11-8.2c5.2,0,9.6,3.6,10.9,8.4c0.3-1,0.5-2,0.5-3.1
			C362.1,700.2,358.8,695.8,354.1,694.3z M352.1,444.3c2.6,0,3.6,3.1,1.9,4.9c0,0,0,0,0,0c-0.7,0-1.3,0.1-1.9,0.1
			c-0.6,0-1.3-0.1-2-0.1c0,0,0-0.1-0.1-0.1C348.4,447.3,349.5,444.3,352.1,444.3z M347.9,450.4c1.3-0.1,2.8,0,4.1,0
			c1.4,0,2.9-0.2,4.3,0c2.3,0.3,2.5,3.8,2.6,5.7c-4.6,0-9.2,0-13.8-0.1C345.2,454.1,345.5,450.6,347.9,450.4z M343.7,461.8
			c0-0.8,0-1.6,0-2.4l16.6,0.1c0,0.8,0,1.6,0,2.4C354.7,461.9,349.2,461.9,343.7,461.8z M346.8,480.7c0-2.3,0-4.6,0.1-6.9l10.3,0.1
			c0,2.3,0,4.5,0,6.8C354.7,477.8,349.2,477.9,346.8,480.7z M357.1,482.8c-0.1,22.2,0,44.3-0.1,66.5l-10.9-0.1
			c0.1-22.1,0.4-44.3,0.6-66.4C348,478.6,355.9,478.4,357.1,482.8z M345.9,470.6c0-2.5,0-4.9,0-7.4c4,0,8,0,12,0.1
			c0,2.5,0,4.9,0,7.4C353.9,470.6,349.9,470.6,345.9,470.6z M344.8,552.5c4.5,0,9,0,13.4,0.1c-0.2,1.9-0.8,3.9-2.9,4
			c-1.3,0-2.6,0-3.8,0c-1.3,0-2.6,0.1-4,0C345.5,556.4,345,554.3,344.8,552.5z M357.2,557.2c-0.1,10.7-0.4,21.3-0.5,32
			c-0.2-0.1-0.4-0.2-0.7-0.2c-1.5-0.3-3.2,0-4.7,0c-1.5,0-3.4-0.3-4.9,0c-0.1,0-0.3,0.1-0.4,0.1c0-10.6-0.2-21.3-0.1-31.9
			c0.3,0.2,0.6,0.3,1,0.3c1.5,0.2,3.2,0,4.7,0c1.5,0,3.3,0.3,4.7,0C356.6,557.5,356.9,557.4,357.2,557.2z M344.6,594.4
			c0.2-1.9,0.6-4.4,2.8-4.5c1.3-0.1,2.6,0,4,0c1.3,0,2.7-0.1,4,0c2.1,0.1,2.6,2.6,2.7,4.5C353.5,594.5,349,594.4,344.6,594.4z
			 M345.6,658.6c0-20.3-0.1-40.7,0.1-61l11.3,0.1c-0.1,20.3-0.4,40.6-0.6,60.9c0,0,0,0,0,0C355,663.5,346.8,663.7,345.6,658.6z
			 M356.3,660.9c0,2.2,0,4.4,0,6.7l-10.7-0.1c0-2.2,0-4.4,0-6.5C348,664.2,353.8,664.1,356.3,660.9z M343.1,674.4
			c-0.3-0.2-0.6-0.3-0.8-0.6c0,0,0,0,0,0c0,0,0,0,0-0.1c-0.1-0.4-0.3-2.2-0.1-2.7c0,0.1,0.3,0,0.7-0.1c0.6,0,1.2-0.1,1.8-0.1
			c1.7,0,3.4-0.1,5,0c1.8,0,3.6,0,5.5,0.1c1.1,0,3.1-0.2,4.1,0.3c0.7,0.3,0.6,1,0.4,1.8c-0.2,0.9-0.3,0.9-1.2,1.5
			c-2.3,1.4-4.9,2.7-7.6,2.8C348,677.3,345.4,675.9,343.1,674.4z M344.5,676.4c2,1.1,4.1,1.9,6.4,2c2.3-0.1,4.4-0.9,6.4-1.9
			c-0.1,1.9-0.4,5-2.5,5.3c-1.3,0.2-2.7,0-3.9,0c-1.3,0-2.7,0.2-3.9,0C344.9,681.4,344.6,678.3,344.5,676.4z M350.8,693.8
			c-0.5,0-1,0-1.4,0.1c-4.8-1-6.5-7.3-3.1-11c0-0.1,0.1-0.1,0.1-0.2c1.3,0.3,3.1,0,4.4,0c1.3,0,3,0.3,4.4,0.1c0,0,0,0,0,0
			c3.5,3.7,1.8,10.1-3.1,11.1C351.7,693.9,351.3,693.8,350.8,693.8z"/>
		<path d="M352.1,650.6c-0.5-0.5-0.9-2.9-1.2-2.9c-0.3,0-0.6,2.3-1.1,2.9c-0.6,0.6-2.1,0.7-2.1,1.1c0,0.4,1.5,0.5,2.1,1
			c0.6,0.6,0.9,2.9,1.2,2.9c0.3,0,0.7-2.4,1.1-2.9c0.5-0.5,2.1-0.8,2.1-1.1C354.3,651.3,352.7,651.1,352.1,650.6z"/>
		<path d="M352.2,640.7c-0.5-0.5-0.9-2.9-1.2-2.9c-0.3,0-0.6,2.3-1.1,2.9c-0.6,0.6-2.1,0.7-2.1,1.1c0,0.4,1.5,0.5,2.1,1
			c0.6,0.6,0.9,2.9,1.2,2.9c0.3,0,0.7-2.4,1.1-2.9c0.5-0.5,2.1-0.8,2.1-1.1C354.3,641.4,352.7,641.2,352.2,640.7z"/>
		<path d="M352.9,499.6c-0.5-0.5-0.9-2.9-1.2-2.9c-0.3,0-0.6,2.3-1.1,2.9c-0.6,0.6-2.1,0.7-2.1,1.1c0,0.4,1.5,0.5,2.1,1
			c0.6,0.6,0.9,2.9,1.2,2.9c0.3,0,0.7-2.4,1.1-2.9c0.5-0.5,2.1-0.8,2.1-1.1C355.1,500.3,353.5,500.1,352.9,499.6z"/>
		<path d="M351.8,486.8c-0.3,0-0.6,2.3-1.1,2.9c-0.6,0.6-2.1,0.7-2.1,1.1c0,0.4,1.5,0.5,2.1,1c0.6,0.6,0.9,2.9,1.2,2.9
			c0.3,0,0.7-2.4,1.1-2.9s2.1-0.8,2.1-1.1c0-0.3-1.6-0.5-2.1-1C352.5,489.1,352.1,486.8,351.8,486.8z"/>
		<path d="M351.4,564.8c-1,0-1.9,0.6-1.9,2.4c0,1.8,1.8,14.5,1.8,14.5s1.9-12.6,1.9-14.5C353.3,565.4,352.5,564.8,351.4,564.8z"/>
		<polygon points="355.7,688.1 352.1,687.3 353.5,685.4 351.5,686.7 350.8,683.1 350.1,686.7 348.1,685.3 349.4,687.3 345.9,688 
			349.4,688.7 348.1,690.7 350.1,689.4 350.8,693 351.5,689.4 353.5,690.7 352.1,688.7 		"/>
	</g>
</g>
</svg>
