<?xml version="1.0" encoding="utf-8"?>
<!-- Generator: Adobe Illustrator 21.1.0, SVG Export Plug-In . SVG Version: 6.00 Build 0)  -->
<svg version="1.1" xmlns="http://www.w3.org/2000/svg" xmlns:xlink="http://www.w3.org/1999/xlink" x="0px" y="0px"
	 viewBox="0 0 504 864" style="enable-background:new 0 0 504 864;" xml:space="preserve">
<style type="text/css">
	.st0{fill:#040404;}
</style>
<g id="Слой_1">
</g>
<g id="Слой_2">
	<g>
		<path d="M503.8,18.2c-1.6-17.9-18.7-16.3-31.6-16.3c-45.9,0-91.8,0-137.6,0c-63.2,0-126.3,0-189.5,0c-40.6,0-81.2,0-121.8,0
			c-2.6,0-5.3-0.2-8,0.2c-9.5,1.2-15,9.2-15.2,18.2c-0.2,7.3,0,14.5,0,21.8c0,37.4,0,74.9,0,112.3c0,57,0,114.1,0,171.1
			c0,64.3,0,128.6,0,192.9c0,58.4,0,116.7,0,175.1c0,40.1,0,80.2,0,120.3c0,9.1,0,18.2,0,27.3c0,11.7,6.7,20.5,19.2,20.7
			c35.9,0.6,71.9,0,107.9,0c62.4,0,124.9,0,187.3,0c49.7,0,99.5,0,149.2,0c7.6,0,15.2,0,22.9,0c0.4,0,0.8-0.1,1.2-0.2
			c14.4-1.8,16.1-13.8,16.1-25.5c0-11.4,0-22.8,0-34.3c0-43.4,0-86.9,0-130.3c0-59.9,0-119.8,0-179.8c0-63.9,0-127.7,0-191.6
			c0-55.3,0-110.6,0-165.9c0-33.7,0-67.3,0-101C503.9,28.3,504.2,23.2,503.8,18.2z M486.6,852.8c-28.3,0-56.6,0-84.9,0
			c-59.9,0-119.8,0-179.7,0c-54,0-108,0-162,0c-13.1,0-26.1,0-39.2,0c-5.6,0-11-1.3-11.7-8.3c-0.2-1.5,0-3,0-4.5c0-26.5,0-53,0-79.5
			c0-50,0-100,0-149.9c0-61.8,0-123.6,0-185.4c0-61.4,0-122.7,0-184.1c0-48.9,0-97.7,0-146.6c0-24.2-0.8-48.6,0-72.8
			c0.2-5.3,1.6-10.1,8.3-10.8c2.2-0.2,4.5,0,6.7,0c14.8,0,29.6,0,44.5,0c55.6,0,111.3,0,166.9,0c58.9,0,117.8,0,176.7,0
			c18.9,0,37.9,0,56.8,0c8.1,0,24.7-3.1,25.9,8.4c0.5,5.2,0,10.8,0,16.1c0,13.5,0,27.1,0,40.6c0,45.5,0,91.1,0,136.6
			c0,60.1,0,120.2,0,180.3c0,62.6,0,125.2,0,187.7c0,52.8,0,105.6,0,158.4c0,31.4,0,62.7,0,94.1C494.8,840.3,496.9,852,486.6,852.8z
			"/>
		<path d="M240.6,78.2h-3.7c-2.5,0-3.7,0.1-3.7,0.3c0,0.2-0.1,0.3-0.3,0.3c-0.3,0-0.6,0.2-0.9,0.6c-0.4,0.5-0.4,0.7-0.2,0.7
			c0.3,0,0.5,0.1,0.5,0.4c0.1,0.3,0.5,0.4,1.1,0.4c0.6,0,1,0.2,1.1,0.7c0.1,0.5,0.1,0.7-0.1,0.8c-0.2,0.1-0.3,0.5-0.3,1.3
			c0,0.7-0.1,1.2-0.4,1.3c-0.2,0.1-0.3,0.3-0.3,0.7c0,0.1,0.1,0.2,0.1,0.4c0,0.5-0.1,0.9-0.3,1.4c-0.2,0.5-0.4,0.8-0.7,0.8
			c-0.4,0.1-0.5,0.4-0.5,0.9c0,0.5-0.1,0.9-0.3,1.1c-0.2,0.2-0.4,0.8-0.4,1.7c-0.1,1-0.3,1.5-0.6,1.5c-0.4,0-0.5,0.2-0.4,0.5
			c0,0.2,0,0.4,0,0.4c-0.1,0.1-0.2,0.1-0.4,0.1c-0.4,0-0.7-0.1-0.9-0.2c-0.5-0.3-0.7-1.2-0.8-2.9c0-0.7-0.1-1.2-0.4-1.4
			c-0.2-0.2-0.3-0.7-0.3-1.6c0-1.3-0.3-2.2-0.9-2.6c-0.2-0.1-0.2-0.3,0.1-0.4c0.1,0,0.2-0.2,0.3-0.4c0.1-0.2,0.1-0.5,0.1-0.7
			c0-0.2-0.1-0.3-0.2-0.3c-0.1,0-0.3-0.3-0.4-0.8c-0.1-0.6-0.4-0.9-0.7-0.9c-0.3-0.1-0.4-0.2-0.4-0.3c0-0.4,0.5-0.5,1.4-0.5
			c1.3,0,1.9-0.2,1.9-0.7c0-0.2,0.1-0.4,0.3-0.4c0.2,0,0.1-0.3-0.3-0.8c-0.4-0.5-0.9-0.8-1.6-0.8c-0.7,0-1.1-0.1-1.2-0.3
			c-0.1-0.1-0.3-0.1-0.7,0.1c-0.4,0.2-0.6,0.2-0.7-0.1c-0.2-0.2-0.3-0.3-0.4-0.1c-0.1,0.2-0.5,0.3-1.1,0.3c-0.4,0-0.6,0-0.8-0.1
			c-0.1-0.1-0.2-0.3-0.3-0.7c-0.1-0.5-0.3-0.8-0.7-0.8c-0.2,0-0.5,0.2-0.8,0.5c-0.4,0.4-0.7,0.5-1.2,0.5c-0.4,0-0.6,0.1-0.6,0.4
			c0,0.3-0.1,0.4-0.3,0.4s-0.3,0.2-0.3,0.6c0,0.5,0.1,0.7,0.3,0.7s0.3,0.1,0.3,0.4c0,0.2,0.3,0.4,1,0.5c0.6,0.1,1.1,0.4,1.5,0.9
			c0.4,0.5,0.7,1.1,0.7,1.6c0,0.5,0.1,1,0.3,1.6c0.2,0.6,0.4,0.9,0.5,0.9c0.1,0,0.2,0.3,0.2,0.8c0,0.6,0.2,1.1,0.5,1.4
			c0.3,0.3,0.5,0.9,0.8,1.8c0.2,0.9,0.3,1.7,0.3,2.5c0,0.9,0.1,1.4,0.4,1.4c0.1,0.1,0.2,0.3,0.2,0.7c0,0.4,0.1,0.6,0.2,0.6
			c0.2,0.1,0.3,0.6,0.3,1.6c0,0.9,0.1,1.4,0.4,1.4c0.2,0,0.4,0.3,0.6,1c0.2,0.7,0.4,1,0.5,1c0.2,0,0.4,0.3,0.4,0.8
			c0.1,0.7,0.5,1,1.3,1c0.1,0,0.4,0,0.6-0.1c0.5-0.1,0.7-0.4,0.7-1.1c0-0.6,0.1-0.9,0.3-0.9c0.2,0,0.3-0.3,0.3-0.9
			c0-0.6,0.1-0.9,0.3-0.9c0.2-0.1,0.3-0.6,0.3-1.5c0-0.9,0.2-1.6,0.6-1.9c0.5-0.5,0.8-0.7,1.1-0.8c0.3-0.1,0.4-0.5,0.4-1.3
			c0-0.8,0.1-1.2,0.4-1.4c0.2-0.1,0.4-0.6,0.6-1.5c0.2-0.9,0.3-1.4,0.4-1.5c0.3-0.2,0.4-0.5,0.4-0.9c0-0.4,0.2-0.6,0.7-0.7
			c0.4,0,0.6-0.3,0.6-0.7c0-0.2-0.1-0.6-0.1-1c0-1,0.2-1.5,0.6-1.5c0.4,0,0.5-0.3,0.5-0.8c0-0.5,0.2-0.9,0.6-1.4
			c0.4-0.4,0.9-0.7,1.6-0.8c0.8-0.2,1.2-0.6,1.2-1.4c0-0.1,0-0.4-0.1-0.7L240.6,78.2z"/>
		<path d="M245.7,103.3c0.1-0.2,1.5-0.4,4-0.4c2.1,0,3.2,0.1,3.2,0.3c0,0.2,0.2,0.3,0.5,0.3c0.4,0,0.6-0.1,0.6-0.2s0.2-0.3,0.6-0.5
			c0.4-0.2,0.6-0.4,0.6-0.6c0-0.9-0.7-1.4-1.9-1.5l-1.3-0.1l0.1-6.7c0.1-4.5,0.2-6.8,0.3-7c0.1-0.1,0.2-0.8,0.3-1.9
			c0.1-2.1,0.4-3.2,0.7-3.2c0.2,0,0.4-0.1,0.4-0.3c0-0.2,0.2-0.3,0.7-0.3c0.4,0,0.8-0.1,1-0.3c0.3-0.2,0.4-0.5,0.4-0.7
			c0-0.3-0.2-0.6-0.5-0.8c-0.3-0.2-1.4-0.3-3.4-0.3c-2,0-2.9,0.1-2.9,0.3c0,0.1-0.3,0.2-0.9,0.2c-0.6,0-0.9,0.1-0.9,0.4
			c0,0.3-0.1,0.4-0.3,0.4s-0.3,0.2-0.3,0.6c0,0.5,0.1,0.8,0.4,0.9c0.3,0.1,0.4,0.9,0.4,2.5c0,1.6,0.1,2.4,0.3,2.5
			c0.2,0.1,0.3,0.8,0.3,2.2c0,1.3-0.1,2-0.3,2.1c-0.2,0.1-0.4,1.5-0.4,4.3c-0.1,2.4-0.2,3.9-0.4,4.3c-0.2,0.5-0.8,0.8-1.8,0.9
			c-0.6,0-0.9,0.1-1,0.2c-0.1,0.1-0.2,0.4-0.2,0.8c0,0.6,0.1,0.9,0.4,0.9c0.3,0,0.6,0.1,0.9,0.4
			C245.4,103.4,245.6,103.5,245.7,103.3z M250.3,88c0.3,0,0.4,0.2,0.4,0.6c0,0.4-0.1,0.5-0.4,0.5c-0.3,0-0.4-0.2-0.4-0.5
			C249.8,88.2,250,88,250.3,88z M248.6,96c0.2,0,0.4,0.1,0.4,0.3c0,0.2-0.1,0.3-0.4,0.3c-0.3,0-0.4-0.1-0.4-0.3
			C248.2,96.1,248.4,96,248.6,96z"/>
		<path d="M267.9,103.2c0,0.2,0.2,0.3,0.5,0.3c0.4,0,0.6-0.1,0.6-0.2s0.2-0.3,0.6-0.5c0.4-0.2,0.6-0.4,0.6-0.6
			c0-0.9-0.7-1.4-1.9-1.5l-1.3-0.1l0.1-6.7c0.1-4.5,0.2-6.8,0.3-7c0.1-0.1,0.2-0.8,0.3-1.9c0.1-2.1,0.4-3.2,0.7-3.2
			c0.2,0,0.4-0.1,0.4-0.3c0-0.2,0.2-0.3,0.7-0.3c0.4,0,0.8-0.1,1-0.3c0.3-0.2,0.4-0.5,0.4-0.7c0-0.3-0.2-0.6-0.5-0.8
			c-0.3-0.2-1.4-0.3-3.4-0.3c-2,0-2.9,0.1-2.9,0.3c0,0.1-0.3,0.2-0.9,0.2c-0.6,0-0.9,0.1-0.9,0.4c0,0.3-0.1,0.4-0.3,0.4
			s-0.3,0.2-0.3,0.6c0,0.5,0.1,0.8,0.4,0.9c0.3,0.1,0.4,0.9,0.4,2.5c0,1.6,0.1,2.4,0.3,2.5c0.2,0.1,0.3,0.8,0.3,2.2
			c0,1.3-0.1,2-0.3,2.1c-0.2,0.1-0.4,1.5-0.4,4.3c-0.1,2.4-0.2,3.9-0.4,4.3c-0.2,0.5-0.8,0.8-1.8,0.9c-0.6,0-0.9,0.1-1,0.2
			c-0.1,0.1-0.2,0.4-0.2,0.8c0,0.6,0.1,0.9,0.4,0.9c0.3,0,0.6,0.1,0.9,0.4c0.3,0.3,0.5,0.4,0.6,0.2c0.1-0.2,1.5-0.4,4-0.4
			C266.8,102.9,267.9,103,267.9,103.2z M265.3,88c0.3,0,0.4,0.2,0.4,0.6c0,0.4-0.1,0.5-0.4,0.5c-0.3,0-0.4-0.2-0.4-0.5
			C264.8,88.2,265,88,265.3,88z M263.6,96.6c-0.3,0-0.4-0.1-0.4-0.3c0-0.2,0.1-0.3,0.4-0.3c0.2,0,0.4,0.1,0.4,0.3
			C264,96.5,263.9,96.6,263.6,96.6z"/>
		<path d="M282.9,103.2c0,0.2,0.2,0.3,0.5,0.3c0.4,0,0.6-0.1,0.6-0.2s0.2-0.3,0.6-0.5c0.4-0.2,0.6-0.4,0.6-0.6
			c0-0.9-0.7-1.4-1.9-1.5l-1.3-0.1l0.1-6.7c0.1-4.5,0.2-6.8,0.3-7c0.1-0.1,0.2-0.8,0.3-1.9c0.1-2.1,0.4-3.2,0.7-3.2
			c0.2,0,0.4-0.1,0.4-0.3c0-0.2,0.2-0.3,0.7-0.3c0.4,0,0.8-0.1,1-0.3c0.3-0.2,0.4-0.5,0.4-0.7c0-0.3-0.2-0.6-0.5-0.8
			c-0.3-0.2-1.4-0.3-3.4-0.3c-2,0-2.9,0.1-2.9,0.3c0,0.1-0.3,0.2-0.9,0.2c-0.6,0-0.9,0.1-0.9,0.4c0,0.3-0.1,0.4-0.3,0.4
			s-0.3,0.2-0.3,0.6c0,0.5,0.1,0.8,0.4,0.9c0.3,0.1,0.4,0.9,0.4,2.5c0,1.6,0.1,2.4,0.3,2.5c0.2,0.1,0.3,0.8,0.3,2.2
			c0,1.3-0.1,2-0.3,2.1c-0.2,0.1-0.4,1.5-0.4,4.3c-0.1,2.4-0.2,3.9-0.4,4.3c-0.2,0.5-0.8,0.8-1.8,0.9c-0.6,0-0.9,0.1-1,0.2
			c-0.1,0.1-0.2,0.4-0.2,0.8c0,0.6,0.1,0.9,0.4,0.9c0.3,0,0.6,0.1,0.9,0.4c0.3,0.3,0.5,0.4,0.6,0.2c0.1-0.2,1.5-0.4,4-0.4
			C281.8,102.9,282.9,103,282.9,103.2z M278.6,96.6c-0.3,0-0.4-0.1-0.4-0.3c0-0.2,0.1-0.3,0.4-0.3c0.2,0,0.4,0.1,0.4,0.3
			C279,96.5,278.9,96.6,278.6,96.6z M280.3,89.1c-0.3,0-0.4-0.2-0.4-0.5c0-0.4,0.1-0.6,0.4-0.6c0.3,0,0.4,0.2,0.4,0.6
			C280.7,89,280.6,89.1,280.3,89.1z"/>
		<path d="M357.4,808c-0.1,0-0.1,0.1-0.1,0.3c0,0.2,0,0.3,0.1,0.3c0.1,0,0.1-0.1,0.1-0.3C357.5,808.1,357.4,808,357.4,808z"/>
		<g>
			<path d="M105.4,790.2c-0.1,0-0.3,0.2-0.5,0.5c-0.3,0.3-0.4,0.6-0.4,0.7c0,0.1-0.1,0.2-0.4,0.2c-0.1,0-0.2,0-0.3,0.1
				c0,0-0.1,0.1-0.1,0.1c0,0,0,0.1,0,0.3c0,0.2-0.1,0.3-0.4,0.3c0,0-0.1,0-0.1,0c-0.1,0-0.1,0-0.2,0c-0.2,0-0.4,0.1-0.6,0.3
				c-0.2,0.2-0.4,0.3-0.6,0.3c-0.1,0-0.2-0.1-0.2-0.2c0-0.1-0.1-0.1-0.4,0c-0.2,0.1-0.6,0.2-1.2,0.2c-0.5,0-0.7,0-0.7-0.1
				c0-0.1-0.1-0.1-0.2-0.1c-0.1,0-0.1-0.1-0.2-0.2c-0.1-0.2-0.1-0.3-0.1-0.4c0-0.1,0-0.2,0-0.3c0-0.2,0-0.4,0-0.6c0-0.3,0-0.5,0-0.8
				c0-0.3,0-0.5,0-0.8s0-0.5,0-0.6v-0.2c0-0.1,0.4-0.1,1.3-0.1c0.7,0,1.2,0.1,1.4,0.2c0.2,0.1,0.4,0.4,0.4,0.8c0,0.2,0,0.3,0.1,0.3
				c0,0,0.1,0,0.2,0c0.1-0.1,0.3-0.1,0.5-0.1c0.1,0,0.2,0,0.3-0.1c0-0.1,0.1-0.2,0.1-0.5c0-0.1,0-0.2,0-0.3s0-0.3,0-0.4v-0.2
				c0-0.3,0-0.6,0.1-0.7c0.1-0.1,0.1-0.3,0-0.4c-0.1-0.1-0.1-0.3,0.1-0.4c0.1-0.1,0.2-0.2,0.2-0.4c0-0.3-0.3-0.4-1-0.4
				c-0.4,0-0.6,0.2-0.6,0.5c0,0.1,0,0.2,0.1,0.3c0,0.2,0,0.4,0,0.5c-0.1,0.1-0.3,0.2-0.9,0.3c-0.5,0.1-1,0.1-1.5,0.1h-0.6v-0.6
				c0-0.4,0.1-0.6,0.2-0.6c0.1,0,0.2-0.1,0.2-0.4c0-0.3-0.1-0.5-0.2-0.9C99,785.2,99,785,99,785c0-0.1,0.1-0.1,0.2-0.3
				c0.2-0.1,0.3-0.3,0.2-0.5c0,0,0-0.1,0-0.2c0-0.1,0.1-0.3,0.4-0.3c0.3-0.1,0.7-0.1,1.5-0.2c0.7,0,1.1-0.1,1.1-0.1
				c0.3,0,0.5,0.1,0.6,0.2c0.1,0.2,0.3,0.3,0.5,0.4c0.2,0.1,0.3,0.2,0.3,0.3c0,0.1,0.1,0.2,0.3,0.3c0.2,0.1,0.3,0.2,0.3,0.3
				c0,0.2,0.1,0.3,0.3,0.5c0.2,0.2,0.4,0.2,0.6,0.2h0c0.3,0,0.4-0.2,0.4-0.6c0-0.2-0.1-0.3-0.2-0.5c-0.1-0.1-0.2-0.3-0.2-0.5
				c0-0.3-0.1-0.5-0.2-0.5c-0.1,0-0.1-0.1,0-0.4c0.1-0.1,0.1-0.2,0.1-0.3c0,0-0.1-0.1-0.1-0.1c-0.1-0.1-0.2-0.2-0.2-0.3
				c0-0.1-0.1-0.3-0.3-0.5c-0.2-0.2-0.4-0.3-0.6-0.1c-0.3,0.1-1.8,0.3-4.7,0.4h-0.7c-1.5,0-2.2-0.1-2.3-0.3c0-0.1-0.1-0.1-0.2-0.1
				c-0.1,0-0.2,0-0.2,0.1l0,0.1c0,0.1,0,0.1,0,0.1c0,0,0,0.1,0,0.2c0,0.1,0,0.2,0,0.2c0,0.2-0.1,0.3-0.3,0.3
				c-0.2,0.1-0.3,0.2-0.2,0.5c0.1,0.2,0.1,0.4,0.2,0.5s0.2,0.1,0.3,0.1c0.1,0,0.3,0,0.4,0c0.1,0,0.2,0,0.4,0c0.3,0,0.5,0.1,0.6,0.4
				c0.1,0.2,0.1,0.7,0.1,1.4c0,0.9-0.1,1.4-0.2,1.4c-0.1,0-0.1,0.2,0,0.4c0.1,0.2,0.1,0.4,0,0.6c-0.1,0.2-0.2,0.3-0.3,0.3
				c-0.1,0-0.1,0.1,0.1,0.2c0.1,0.1,0.1,0.3,0.1,0.6c0,0.5-0.1,1.5-0.2,2.8l-0.1,0.9h-0.6c-0.4,0-0.6,0.1-0.6,0.3
				c0,0.2-0.1,0.3-0.3,0.3c-0.1,0-0.2,0.1-0.2,0.3c0,0.3,0.1,0.5,0.3,0.6c0.2,0.1,0.3,0.2,0.3,0.4c0,0.1,0.2,0.1,0.7,0.1
				c0.5,0,0.8-0.1,0.9-0.3c0.1-0.1,0.5-0.2,1.2-0.2c0.5,0,0.9,0,1.3,0c0.7,0,1.1,0.1,1.2,0.2c0,0.1,0.2,0.1,0.4,0
				c0.2-0.1,0.7-0.2,1.5-0.2c0.8,0,1.3,0,1.5-0.1c0.2,0,0.3-0.1,0.5-0.3c0.2-0.2,0.3-0.3,0.2-0.5c0-0.2,0-0.3,0.1-0.4
				c0.1-0.1,0.2-0.3,0.2-0.8c0-0.3,0-0.5,0-0.6c0-0.1,0.1-0.1,0.2-0.1c0.2,0,0.3-0.2,0.3-0.5c0-0.2-0.1-0.4-0.2-0.6
				C105.6,790.3,105.5,790.2,105.4,790.2z"/>
			<path d="M95.2,792.1c0,0,0.1,0,0.1-0.1c0.1-0.2,0.1-0.3,0-0.3c-0.1,0-0.2,0.1-0.2,0.2C95.1,792.1,95.1,792.1,95.2,792.1z"/>
			<path d="M117.1,781.9c-1,0-1.5,0-1.5,0.1c0,0.1-0.2,0.1-0.5,0.1c-0.3,0-0.5,0.1-0.5,0.2c0,0.1,0,0.2-0.1,0.2
				c-0.1,0-0.1,0.1-0.1,0.3c0,0.3,0.1,0.4,0.2,0.5c0.1,0.1,0.2,0.5,0.2,1.3c0,0.8,0,1.2,0.1,1.3c0.1,0,0.1,0.4,0.1,1.1
				c0,0.7,0,1-0.1,1.1c-0.1,0-0.2,0.8-0.2,2.2c0,1.2-0.1,2-0.2,2.2c-0.1,0.2-0.4,0.4-0.9,0.5c-0.3,0-0.5,0.1-0.5,0.1
				c-0.1,0.1-0.1,0.2-0.1,0.4c0,0.3,0.1,0.5,0.2,0.5c0.2,0,0.3,0.1,0.5,0.2c0.2,0.2,0.3,0.2,0.3,0.1c0.1-0.1,0.8-0.2,2.1-0.2
				c1.1,0,1.6,0.1,1.6,0.2c0,0.1,0.1,0.1,0.3,0.1c0.2,0,0.3,0,0.3-0.1c0-0.1,0.1-0.2,0.3-0.3c0.2-0.1,0.3-0.2,0.3-0.3
				c0-0.5-0.4-0.7-1-0.8L117,793l0.1-3.5c0-2.3,0.1-3.5,0.2-3.6c0.1-0.1,0.1-0.4,0.1-1c0.1-1.1,0.2-1.6,0.4-1.6c0.1,0,0.2,0,0.2-0.1
				c0-0.1,0.1-0.2,0.4-0.2c0.2,0,0.4-0.1,0.5-0.2c0.1-0.1,0.2-0.2,0.2-0.4c0-0.2-0.1-0.3-0.2-0.4C118.7,782,118.1,781.9,117.1,781.9
				z M115.4,790.9c-0.1,0-0.2,0-0.2-0.1c0-0.1,0.1-0.1,0.2-0.1c0.1,0,0.2,0,0.2,0.1C115.5,790.9,115.5,790.9,115.4,790.9z
				 M116.2,787.1c-0.1,0-0.2-0.1-0.2-0.3c0-0.2,0.1-0.3,0.2-0.3c0.1,0,0.2,0.1,0.2,0.3C116.4,787,116.3,787.1,116.2,787.1z"/>
			<path d="M135.4,790.1c-0.3,0-0.5,0-0.6,0c-0.7,0-1.1,0-1.3,0.1c-0.2,0.1-0.4,0.2-0.4,0.3c0,0.1-0.1,0.2-0.1,0.3
				c0,0.2,0.1,0.3,0.3,0.4c0.2,0.1,0.5,0.2,0.9,0.2c0.7,0.1,1,0.2,1,0.3c0,0-0.1,0.2-0.2,0.5c-0.1,0.3-0.3,0.5-0.5,0.5
				c-0.2,0-0.4,0.1-0.6,0.4c-0.1,0.2-0.2,0.3-0.3,0.3c0,0-0.1,0-0.1-0.1c0-0.1-0.1-0.1-0.1-0.1c-0.1,0-0.2,0-0.3,0.1
				c-0.1,0.1-0.4,0.2-0.8,0.2c-0.3,0-0.5,0-0.7,0c-0.6,0-1.1-0.1-1.2-0.2c-0.2-0.1-0.3-0.3-0.3-0.6c0-0.2-0.1-0.4-0.3-0.5
				c-0.2-0.1-0.3-0.2-0.3-0.4s0-0.2-0.1-0.2c-0.3,0-0.5-0.5-0.7-1.4c-0.1-0.7-0.2-1-0.3-1c-0.1,0-0.1-0.1-0.1-0.2s0-0.2,0.1-0.3
				c0.2,0,0.3-0.7,0.3-1.9c0-0.2,0.1-0.2,0.3-0.2c0.2,0,0.3-0.1,0.3-0.2c0-0.1,0-0.2-0.2-0.4c-0.1-0.1-0.1-0.2,0-0.2
				c0.2,0,0.4-0.1,0.6-0.2c0.2-0.1,0.4-0.3,0.4-0.4c0-0.1,0.1-0.3,0.3-0.4c0.2-0.1,0.4-0.2,0.7-0.2c0.2,0,0.3-0.1,0.3-0.2
				c0-0.1,0.2-0.2,0.7-0.2c0.1,0,0.2,0,0.4,0c0.5,0,0.9,0.2,1.1,0.5c0.1,0.2,0.4,0.3,0.6,0.4c0.2,0.1,0.4,0.2,0.4,0.3v0.2
				c0,0.1,0,0.2,0.1,0.3c0.1,0.1,0.2,0.2,0.3,0.5c0.1,0.2,0.1,0.3,0.2,0.4c0.1,0.1,0.2,0.1,0.5,0.1c0.2,0,0.3,0.1,0.4,0.1
				c0.1,0,0.2-0.1,0.3-0.4c0.1-0.2,0.1-0.5,0.1-0.9c0-0.3,0-0.5,0.1-0.5c0.1,0,0.1-0.1,0.1-0.2c0-0.3-0.1-0.6-0.2-0.9
				c-0.1-0.1-0.1-0.2-0.2-0.3c-0.1,0-0.4,0-0.8,0c-0.6,0-1,0-1.1-0.1c-0.1-0.1-0.8-0.2-2.1-0.2c-0.6,0-0.9,0-1.1,0.1
				c-0.7,0.1-1.1,0.2-1.2,0.3c-0.2,0.1-0.7,0.5-1.6,1.3c-0.8,0.8-1.2,1.2-1.2,1.3c0,0.1-0.1,0.2-0.2,0.4c-0.1,0.2-0.2,0.4-0.2,0.6
				c0,0.3,0,0.4-0.1,0.5c-0.1,0.1-0.2,0.2-0.2,0.3c0,0.2-0.1,0.3-0.2,0.4c-0.1,0.1-0.2,0.6-0.2,1.4c0,1,0.1,1.5,0.2,1.6
				c0.1,0,0.1,0.1,0.1,0.2c0,0.1,0,0.2-0.1,0.2c-0.1,0,0,0.2,0.2,0.4c0.3,0.2,0.4,0.4,0.5,0.4c0.1,0,0.1,0.1,0.2,0.3
				c0.1,0.2,0.2,0.4,0.6,0.7c0.3,0.3,0.6,0.5,0.8,0.6c0.2,0.1,0.2,0.1,0.2,0.2c0,0.1,0.3,0.2,1,0.3c0.6,0.1,1.3,0.1,2.1,0.1
				c1,0,1.6-0.1,1.8-0.3c0.1-0.1,0.3-0.2,0.6-0.3c0.4-0.1,0.6-0.2,0.7-0.2c0,0,0.1,0,0.1,0c0,0-0.1,0.2-0.2,0.5
				c-0.1,0.3-0.2,0.5-0.2,0.5c0,0.2,0.2,0.3,0.6,0.3c0.2,0,0.4,0,0.6,0c1-0.1,1.5-0.2,1.5-0.4c0-0.1-0.1-0.3-0.4-0.5
				c-0.2-0.1-0.3-0.3-0.3-0.4c0-0.2-0.1-0.6-0.1-1.2l-0.1-1.3l0.5,0.1c0.3,0,0.5,0,0.6-0.2c0.1-0.2,0.3-0.3,0.6-0.3
				c0.3,0,0.4-0.1,0.4-0.1c0-0.1,0.1-0.2,0.1-0.5v-0.6l-2.4-0.1C135.9,790.1,135.7,790.1,135.4,790.1z"/>
			<path d="M158.9,782.6c-0.2-0.1-0.5-0.1-0.8-0.1c-0.1,0-0.2,0-0.5,0.1c-0.3,0.1-0.5,0.1-0.7,0.1h-0.1h-0.2c-0.2,0-0.5,0-1,0.1
				c-0.4,0-0.7,0.1-0.8,0.1c-0.1,0-0.2,0.1-0.2,0.2c0,0.2,0,0.3-0.1,0.3c-0.1,0-0.1,0-0.1,0.1c0,0.1,0,0.2,0,0.3
				c0,0.1,0.1,0.2,0.2,0.2c0.1,0.1,0.2,0.5,0.2,1.3c0,0.8,0.1,1.2,0.2,1.2c0.1,0,0.1,0.3,0.1,0.8v0.8h-1.3c-0.8,0-1.7,0-2.7-0.1
				l-1.4-0.1v-0.7c0-0.4,0-0.7,0.1-0.7c0.1,0,0.1-0.3,0.2-0.9c0-1.1,0.1-1.6,0.4-1.6c0.1,0,0.2,0,0.2-0.1c0-0.1,0.1-0.2,0.4-0.2
				c0.2,0,0.4-0.1,0.5-0.2c0.1-0.1,0.2-0.2,0.2-0.4c0-0.2-0.1-0.3-0.2-0.4c-0.2-0.1-0.5-0.2-1-0.2c-0.3,0-0.4,0-0.5,0.1
				c0,0-0.5,0.1-1.3,0.1c-0.9,0.1-1.7,0.2-2.4,0.5c-0.1,0-0.2,0.1-0.2,0.2c0,0.1,0.2,0.2,0.6,0.4l0.6,0.3l0,0.8v0.9v0.3
				c0,0.2,0,0.4,0.1,0.4c0.1,0.1,0.2,0.5,0.2,1.1c0,0.6-0.1,1.1-0.2,1.4c-0.1,0.3-0.2,0.6-0.2,0.8c0,0,0,0,0,0.1c0,0,0,0.1,0,0.1
				c0,0.2,0.1,0.4,0.1,0.6c0,0.5,0,1.1-0.1,1.8c-0.1,0.6-0.2,1-0.2,1.2c-0.1,0.2-0.4,0.3-0.8,0.3c-0.3,0-0.5,0.1-0.6,0.1
				c-0.1,0.1-0.1,0.2-0.1,0.4v0.5l0.7-0.1c0.3-0.1,1-0.1,2.2-0.1h0.7h0.7c1,0,1.6,0,1.6-0.1c0-0.1-0.1-0.3-0.2-0.5
				c-0.2-0.2-0.3-0.3-0.4-0.3h-0.1c-0.2,0.1-0.4,0.1-0.6-0.1c-0.1-0.1-0.2-0.1-0.3-0.2c0-0.1-0.1-0.2-0.1-0.4c0-0.3,0-0.5,0-0.8
				c0-0.9,0.1-1.6,0.1-2.1v-0.8h4.9l0.1,0.4c0,0.2,0.1,0.5,0.1,0.7c0,0.5,0,1.1-0.1,1.7c-0.1,0.6-0.2,1-0.3,1
				c-0.1,0.1-0.4,0.2-0.8,0.3c-0.3,0-0.5,0.1-0.5,0.1c-0.1,0.1-0.1,0.2-0.1,0.4c0,0.3,0.1,0.5,0.3,0.5c0.3,0.1,1.3,0.1,3.1,0.1
				c1.3,0,2,0,2.1-0.1c0.2-0.1,0.3-0.2,0.3-0.4c0-0.2-0.1-0.3-0.2-0.5c-0.1-0.2-0.3-0.2-0.4-0.2c0,0-0.1,0-0.1,0
				c-0.1,0.1-0.3,0.1-0.5,0l-0.4-0.1l0.1-3.5c0-2.3,0.1-3.5,0.2-3.6c0.1,0,0.1-0.3,0.1-0.9c0.1-1.1,0.2-1.6,0.4-1.6
				c0.1,0,0.2,0,0.2-0.1c0-0.1,0.1-0.2,0.4-0.2c0.2,0,0.4-0.1,0.5-0.2c0.2-0.1,0.2-0.3,0.2-0.4C159.2,782.9,159.1,782.7,158.9,782.6
				z M148,791.6c-0.2-0.1-0.3-0.1-0.3-0.2c0-0.1,0-0.1,0.1-0.1c0.2,0,0.3,0.1,0.4,0.2c0,0,0,0,0,0.1
				C148.2,791.6,148.2,791.6,148,791.6z M148.7,791.5c-0.1,0-0.1-0.1-0.1-0.2c0-0.1,0-0.2,0.1-0.2c0.1,0,0.2,0.1,0.2,0.2
				C148.9,791.4,148.8,791.5,148.7,791.5z M148.7,787.8c-0.1,0-0.2-0.1-0.2-0.3c0-0.3,0.1-0.4,0.2-0.4c0.2,0,0.2,0.1,0.2,0.3
				C148.9,787.7,148.8,787.8,148.7,787.8z M155.8,791.6c-0.1,0.1-0.2,0.1-0.4,0c-0.2-0.1-0.3-0.1-0.3-0.2c0-0.1,0.1-0.1,0.2-0.1
				c0.3,0,0.5,0.1,0.5,0.2C155.9,791.5,155.9,791.5,155.8,791.6z M156.2,791.5c-0.1,0-0.2-0.1-0.2-0.2c0-0.1,0.1-0.2,0.2-0.2
				c0.1,0,0.1,0.1,0.1,0.2C156.4,791.4,156.3,791.5,156.2,791.5z M156.2,787.8c-0.1,0-0.2-0.1-0.2-0.3c0-0.3,0.1-0.4,0.2-0.4
				c0.1,0,0.2,0.1,0.2,0.3C156.4,787.7,156.3,787.8,156.2,787.8z"/>
			<path d="M177.9,785.3c0.1,0,0.2-0.2,0.2-0.5c0-0.2,0-0.4-0.1-0.4c-0.1,0-0.1-0.1-0.1-0.3c0-0.2,0.1-0.4,0.2-0.6
				c0.1-0.3,0.1-0.5-0.2-0.6c-0.2-0.2-0.5-0.3-0.9-0.3c-0.5,0-0.8,0.1-1.1,0.4c-0.3,0.2-0.4,0.3-0.5,0.2c-0.1-0.1-0.4-0.1-0.8,0
				c-0.5,0.1-1.4,0.2-2.6,0.2c-0.9,0-1.4,0-1.5-0.1c-0.1-0.1-0.2,0-0.4,0.2c-0.1,0.1-0.3,0.2-0.4,0.2c-0.2,0-0.4,0-0.7-0.1
				c-0.7-0.2-1.1-0.2-1.3-0.2c-0.1,0-0.2,0-0.2,0c-0.1,0-0.3,0.1-0.4,0.3c-0.1,0.2-0.2,0.4-0.2,0.5c0,0.1,0,0.1,0.1,0.2
				c0,0,0.1,0.2,0.1,0.5c0,0.1,0,0.2-0.1,0.3c-0.1,0-0.2,0.1-0.3,0.1c-0.3,0-0.5,0.1-0.5,0.3c0,0,0,0.1,0.1,0.2
				c0.1,0.1,0.1,0.3,0.1,0.6c0,0.3-0.1,0.4-0.1,0.5c0,0.5,0.2,0.8,0.6,0.8c0.3,0,0.4-0.1,0.4-0.2c0-0.1,0.1-0.2,0.2-0.2
				c0.1,0,0.1,0,0.2-0.1c0,0,0-0.1,0-0.2c0-0.1-0.1-0.2-0.2-0.2c-0.1-0.1-0.1-0.1-0.1-0.2c0,0,0-0.1,0-0.1c0,0,0-0.1,0.1-0.1
				c0,0,0.1,0,0.2-0.1c0.2-0.1,0.2-0.2,0.2-0.3c0,0,0-0.1,0-0.2c0-0.1,0-0.1,0-0.2c0-0.1,0-0.2,0.1-0.2c0.1-0.1,0.1-0.3,0-0.6
				c-0.1-0.3-0.1-0.4,0-0.4c0.1,0,0.1,0.1,0.1,0.2c0,0.1,0.2,0.2,0.5,0.4c0.4,0.1,0.7,0.2,1.1,0.2c0.4,0,0.7,0.1,0.8,0.3
				c0.2,0.2,0.3,0.2,0.5,0.2c0.1,0,0.1,0,0.1,0c0.1,0,0.1,0,0,0.1c-0.3,0.3-0.4,2.2-0.5,5.8c0,0.8-0.1,1.2-0.3,1.4
				c-0.2,0.1-0.3,0.3-0.3,0.4c0,0.1-0.3,0.2-0.8,0.2l-0.7,0.1l-0.1,0.5c0,0,0,0.1,0,0.1c0,0,0,0.1,0,0.1c0,0.2,0.1,0.4,0.4,0.7
				c0.3,0.3,0.5,0.4,0.7,0.4c0.1,0,0.1,0,0.1-0.1c0-0.1,0-0.1-0.1-0.1c-0.1,0-0.1,0-0.1-0.1c0-0.1,0.2-0.1,0.5-0.1
				c0.1,0,0.4,0,0.8,0c0.4,0,0.7,0,0.9,0c0.6,0,0.9-0.1,1.1-0.2c0.1-0.1,0.3-0.2,0.6-0.1c0.2,0.1,0.3,0,0.4-0.1
				c0.1-0.1,0.2-0.1,0.3-0.1c0.1,0,0.3-0.1,0.5-0.2c0.1-0.1,0.2-0.2,0.2-0.3c0-0.1-0.1-0.2-0.2-0.5c-0.2-0.3-0.3-0.4-0.5-0.4
				c-0.1,0-0.2-0.1-0.2-0.2c0-0.1-0.1-0.2-0.3-0.1c0,0-0.1,0-0.1,0c-0.1,0-0.1,0-0.1,0c-0.1,0-0.2,0-0.3-0.1c0-0.1-0.1-0.3-0.1-0.5
				v-0.4c0-0.5,0-0.8,0-0.9c0-0.1,0.1-0.2,0.2-0.2c0.2,0,0.2-0.1,0.2-0.4c0-0.3-0.1-0.5-0.2-0.5c-0.1,0-0.2-0.4-0.2-1.1
				c0-0.8,0.1-1.2,0.2-1.4c0.1-0.1,0.2-0.5,0.2-1.2c0-0.7,0.1-1,0.1-1.1c0.1-0.2,0.5-0.2,1.2-0.2c1,0,1.5,0.1,1.6,0.4
				c0,0.1,0.1,0.2,0.4,0.5c0.2,0.2,0.3,0.4,0.3,0.8c0,0.3,0.1,0.5,0.1,0.5c0,0.1,0.2,0.1,0.4,0.1c0.2,0,0.4,0,0.4-0.1
				c0-0.1,0.1-0.2,0.3-0.2c0.2-0.1,0.3-0.2,0.3-0.4c0-0.2-0.1-0.4-0.2-0.5C177.8,785.5,177.8,785.4,177.9,785.3z"/>
			<path d="M209.5,785.7c-0.2-0.1-0.2-0.2-0.2-0.5c0-0.3,0-0.5-0.1-0.5c-0.1,0-0.1-0.1-0.1-0.4s-0.1-0.4-0.2-0.4
				c-0.1,0-0.2-0.1-0.3-0.3c-0.1-0.2-0.2-0.3-0.3-0.4c-0.1-0.1-0.2-0.2-0.2-0.4c0-0.2-0.1-0.3-0.4-0.3c-0.7,0-1-0.1-1-0.4
				c0-0.1-0.1-0.2-0.2-0.2c-0.1,0-0.2,0-0.2-0.1c0-0.1-0.1-0.1-0.3-0.1c-0.2,0-0.3-0.1-0.4-0.2c0-0.1-0.5-0.2-1.5-0.2
				c-0.9,0-1.5,0.1-1.6,0.2c-0.1,0.1-0.2,0.2-0.4,0.2c-0.2,0-0.3,0.1-0.4,0.3c-0.1,0.2-0.3,0.4-0.6,0.4c-0.3,0-0.6,0.1-1.1,0.2
				c-0.5,0.1-0.7,0.3-0.8,0.5c0,0.2-0.2,0.4-0.5,0.7c-0.3,0.3-0.4,0.5-0.4,0.5c0,0.1-0.1,0.1-0.2,0.1c-0.1,0-0.2,0.1-0.3,0.4
				c-0.1,0.2-0.2,0.5-0.3,0.7c-0.2,0.3-0.2,0.8-0.2,1.8c0,1.2,0.1,2.1,0.4,2.9c0.5,1.4,0.9,2.2,1.2,2.3c0.2,0,0.3,0.1,0.3,0.3
				c0,0.2,0.2,0.2,0.4,0.2c0.2,0,0.4,0,0.4,0.1s0.1,0.1,0.3,0.1c0.2,0,0.3,0.1,0.3,0.4c0,0.2,0,0.3,0.1,0.4c0.1,0.1,0.2,0,0.4-0.1
				c0.1-0.1,0.2-0.1,0.3,0c0.2,0.1,0.9,0.2,2.2,0.2c1.1,0,1.7-0.1,1.7-0.2c0-0.1,0.3-0.2,0.7-0.2c0.4,0,0.6-0.1,0.6-0.2
				c0-0.2,0.1-0.3,0.2-0.3c0,0,0.2-0.1,0.4-0.3c0.3-0.2,0.4-0.3,0.5-0.3c0.1,0,0.2-0.1,0.2-0.3c0.1-0.2,0.2-0.3,0.3-0.3
				c0.1,0,0.2-0.1,0.3-0.3c0-0.2,0.2-0.3,0.4-0.3c0.2-0.1,0.3-0.1,0.3-0.2c0-0.1,0.1-0.1,0.2-0.1c0.1,0,0.2-0.2,0.2-0.6
				c0-0.3,0-0.5-0.1-0.5c-0.1,0-0.1-0.1,0-0.2c0.1-0.1,0.2-0.8,0.2-2.1c0-0.3,0-0.7,0-1.1C209.8,786,209.7,785.7,209.5,785.7z
				 M207.3,788.8c-0.1,0-0.2,0.2-0.2,0.4c0,0.3-0.1,0.4-0.2,0.5c-0.1,0.1-0.2,0.4-0.3,0.8c-0.1,0.4-0.1,0.6-0.3,0.6
				c-0.1,0-0.2,0-0.2,0.1c0,0.1-0.1,0.2-0.4,0.2c-0.3,0.1-0.4,0.2-0.4,0.3c0,0.1,0,0.2-0.1,0.2c-0.1,0.1-0.2,0.1-0.4,0.2
				c-0.1,0.1-0.2,0.1-0.3,0.1c0,0.1-0.2,0.1-0.4,0.1c-0.2,0-0.3,0.1-0.5,0.2c-0.1,0.1-0.2,0.1-0.4,0.1c-0.2,0-0.4,0-0.7-0.1
				c-0.5-0.1-1-0.3-1.3-0.6c-0.3-0.3-0.7-0.8-1-1.5c-0.3-0.5-0.4-0.9-0.5-1.1c0-0.2-0.1-0.7-0.1-1.4c0-0.7,0-1.1,0.1-1.4
				c0-0.2,0.1-0.5,0.3-0.8c0.3-0.5,0.6-0.9,1-1.3c0.4-0.4,0.8-0.6,1-0.7c0.3,0,0.5-0.1,0.5-0.3c0-0.1,0.1-0.2,0.2-0.2
				c0.1,0,0.2,0,0.2-0.1c0-0.1,0.1-0.1,0.3-0.1c0.2,0,0.3,0,0.3,0.1c0,0.1,0.3,0.1,0.9,0.1c0.5,0,0.8,0.1,0.8,0.2
				c0,0.1,0.1,0.2,0.3,0.3c0.2,0.1,0.3,0.2,0.3,0.3c0,0.1,0.1,0.2,0.3,0.3c0.3,0.1,0.5,0.4,0.5,0.8c0,0.2,0.1,0.5,0.3,0.8
				c0.2,0.3,0.3,0.7,0.3,1.1c0,0.5,0,0.7,0.1,0.8c0.1,0.1,0.1,0.2,0.1,0.4C207.5,788.6,207.5,788.8,207.3,788.8z"/>
			<path d="M227.3,783.9c0-0.3-0.1-0.5-0.2-0.6c-0.1-0.1-0.1-0.2,0-0.4c0.1-0.1,0.1-0.2,0.1-0.2c0-0.1-0.1-0.2-0.2-0.2
				c-0.1-0.1-0.2-0.2-0.2-0.3c0-0.2-0.1-0.3-0.3-0.5c-0.2-0.2-0.4-0.3-0.5-0.3c-0.1,0-0.2,0-0.2,0.1c0,0.1-0.3,0.1-0.9,0.2
				c-0.5,0.1-1.1,0.1-1.7,0.1c-0.6,0-0.9,0-1,0.1c-0.1,0-0.5,0.1-1.4,0.1c-0.9,0.1-1.8,0.2-2.7,0.3c-0.9,0.1-1.4,0.2-1.4,0.2
				c0,0,0,0.1,0,0.2c0,0.1,0,0.2,0.1,0.3c0.1,0.2,0.1,0.3,0.2,0.4c0.1,0,0.3,0.1,0.6,0.1c0.5,0,0.9,0.1,1,0.3
				c0.1,0.2,0.2,0.7,0.2,1.6c0,0.9-0.1,1.4-0.2,1.5c-0.1,0.1-0.1,0.2,0,0.4c0.1,0.3,0.2,0.5,0,0.7c-0.1,0.2-0.2,0.3-0.3,0.3
				c-0.1,0,0,0.1,0.1,0.2c0.1,0.1,0.1,0.3,0.1,0.6c0,0.1,0,0.4-0.1,0.8c-0.1,1.4-0.2,2.3-0.2,2.6s-0.1,0.5-0.3,0.6
				c-0.2,0.1-0.5,0.3-0.8,0.6l-0.5,0.6h5v-0.5c0-0.2,0-0.4-0.1-0.4c0-0.1-0.1-0.1-0.3-0.1c-0.2,0-0.4,0-0.4-0.1
				c0-0.1-0.1-0.1-0.2-0.1s-0.2-0.1-0.3-0.3c0-0.1,0-0.4,0-1.2c0-1.2,0-2.1,0.1-2.8c0-0.1,0.5-0.1,1.4-0.1c0.8,0,1.3,0.1,1.5,0.2
				c0.3,0.1,0.4,0.4,0.4,0.9c0,0.3,0,0.5,0.1,0.5c0.1,0,0.1-0.1,0.3-0.2c0.1-0.1,0.3-0.2,0.5-0.1c0.2,0.1,0.3,0,0.3-0.2
				c0-0.2,0-0.3,0.1-0.4c0.1-0.1,0.1-0.2,0-0.2c-0.1-0.1-0.2-0.3-0.2-0.6c0-0.4,0.1-0.7,0.2-0.8c0.1-0.1,0.1-0.1,0.1-0.2
				c0-0.1,0-0.1-0.1-0.2c-0.1-0.1-0.1-0.2-0.1-0.2c0-0.1,0-0.1,0.1-0.2c0.2-0.1,0.2-0.2,0.2-0.4c0-0.3-0.4-0.4-1.1-0.4
				c-0.4,0-0.6,0.2-0.6,0.5c0,0.1,0,0.2,0.1,0.3c0.1,0.2,0,0.4,0,0.5c-0.1,0.1-0.4,0.2-1,0.3c-0.6,0.1-1.1,0.2-1.6,0.2h-0.5v-0.6
				c0-0.4,0.1-0.6,0.2-0.7c0.1-0.1,0.2-0.2,0.2-0.4c0-0.3-0.1-0.5-0.2-0.8c-0.1-0.2-0.2-0.4-0.2-0.4s0.1-0.1,0.2-0.3
				c0.2-0.2,0.3-0.4,0.2-0.6c0-0.1,0-0.1,0-0.2c0-0.1,0.1-0.2,0.4-0.3c0.3-0.1,0.8-0.1,1.6-0.1c0.7,0,1.1-0.1,1.1-0.1
				c0.3,0,0.5,0.1,0.7,0.2c0.2,0.2,0.3,0.3,0.5,0.4c0.2,0.1,0.3,0.2,0.3,0.3c0,0.1,0.1,0.3,0.3,0.4c0.2,0.1,0.4,0.3,0.5,0.6
				c0.1,0.4,0.4,0.5,0.8,0.5c0.1,0,0.2,0,0.3-0.1c0.1-0.1,0.2-0.2,0.2-0.6c0-0.3-0.1-0.5-0.2-0.5
				C227.4,784.4,227.3,784.2,227.3,783.9z"/>
			<path d="M253.2,780.7C253.2,780.6,253.2,780.6,253.2,780.7c0.1-0.1,0.2-0.1,0.1-0.1c0,0-0.1,0-0.3,0c-0.2,0-0.3,0.1-0.3,0.2
				C252.8,780.8,253,780.8,253.2,780.7z"/>
			<path d="M248.6,779.8c0.2,0,0.3-0.1,0.3-0.2c0-0.1-0.1-0.1-0.3-0.1s-0.3,0-0.3,0.1C248.3,779.7,248.4,779.8,248.6,779.8z"/>
			<path d="M256.5,782.5c-0.1,0-0.2,0-0.2-0.1c0-0.1-0.1-0.2-0.4-0.3c-0.3-0.1-0.4-0.3-0.5-0.5l-0.2-0.3c-0.1-0.1-0.2-0.1-0.2,0.1
				c0,0.1-0.3,0.1-0.8,0.1c-0.6,0-0.9,0-0.9-0.1c0-0.1-0.1-0.1-0.3-0.1c-0.5,0-0.8-0.1-0.8-0.4c0-0.1-0.1-0.2-0.3-0.2
				s-0.3,0.1-0.2,0.3c0,0,0,0,0,0.1c0,0,0,0,0,0.1c0,0.1-0.6,0.2-1.8,0.2h-1.8l-0.5,0.5c-0.3,0.3-0.5,0.5-0.5,0.7
				c0,0.2,0.2,0.4,0.7,0.4c0.2,0,0.3,0,0.3,0.1c0,0.1,0,0.1,0.1,0.1c0.2,0,0.4,0.2,0.6,0.5c0.2,0.3,0.3,0.7,0.3,1.2
				c0,0.4,0.1,0.6,0.1,0.6c0,0.2-0.1,0.4-0.2,0.5c-0.2,0.1-0.2,0.2-0.1,0.3c0.1,0.1,0.2,0.3,0.2,0.7c0,0.3-0.1,0.5-0.2,0.5
				c-0.2,0-0.2,0,0,0.1c0.1,0.1,0.1,0.3,0,0.6c-0.1,0.3-0.1,0.5,0.1,0.6c0.1,0.1,0.1,0.2,0.1,0.3c0,0.2-0.1,0.4-0.2,0.5
				c-0.1,0.1-0.1,0.6-0.2,1.6l0,1.5l-0.4,0.2c-0.2,0.1-0.5,0.2-1.1,0.2c-0.3,0-0.5,0.1-0.5,0.1s-0.1,0.2-0.1,0.4
				c0,0.2,0.2,0.5,0.6,0.8c0.2,0.1,0.3,0.2,0.5,0.2c0.2,0,0.3-0.1,0.3-0.2c0.1-0.1,0.8-0.2,2.1-0.2c1.4-0.1,2.1-0.1,2.2-0.3
				c0.1-0.1,0.2-0.2,0.3-0.2c0.1,0,0.2-0.1,0.2-0.2c0-0.1-0.1-0.2-0.4-0.2c-0.3,0-0.4-0.1-0.5-0.3c0-0.2-0.2-0.3-0.5-0.4
				c-0.4-0.1-0.5-0.2-0.5-0.4c0-0.1,0-0.2,0.1-0.3c0.2-0.2,0.2-0.3,0.1-0.4c-0.1,0-0.2-0.6-0.2-1.6c0-0.3,0-0.6,0-1
				c0-0.3,0-0.4,0.1-0.5c0-0.1,0.1-0.1,0.2-0.1c0.2,0,0.5,0,0.8,0.1c0.3,0.1,0.5,0.2,0.6,0.3c0.1,0.1,0.7,0.2,1.7,0.2
				c0.8,0,1.2,0,1.2-0.1c0.1-0.1,0-0.2-0.2-0.3c-0.2-0.1-0.4-0.2-0.5-0.4c-0.1-0.1-0.2-0.2-0.2-0.2c0,0,0.1-0.1,0.3-0.1
				c0.3-0.1,0.4-0.1,0.4-0.2s0.1-0.2,0.4-0.3c0.3-0.1,0.4-0.2,0.4-0.4c0-0.5,0.1-0.7,0.3-0.7c0.1,0,0.2-0.1,0.4-0.2
				c0.2-0.2,0.2-0.7,0.2-1.5c0-1-0.1-1.5-0.3-1.7C256.7,782.5,256.6,782.5,256.5,782.5z M254.9,786.1c0,0-0.1,0.1-0.4,0.1h-0.1
				c0,0-0.1,0-0.1,0c-0.1,0-0.1,0,0,0.1c0.1,0.1,0.2,0.1,0.2,0.2c0,0.1-0.1,0.3-0.3,0.5c-0.2,0.2-0.5,0.3-0.7,0.3
				c-0.3,0-0.6,0.1-1.1,0.2c-0.1,0-0.2,0-0.3,0c-0.2,0-0.4-0.1-0.7-0.3c-0.2-0.2-0.3-0.3-0.4-0.3c0-0.1,0-0.1,0.1-0.2
				c0.1-0.1,0.2-0.7,0.2-1.6v-1.2c0-0.3,0.1-0.5,0.2-0.7c0.1-0.2,0.3-0.4,0.4-0.4h0.1l0.4,0.1c0.3,0,0.5,0.1,0.8,0.1
				c0.2,0.1,0.4,0.1,0.4,0.1c0,0.1,0.1,0.1,0.4,0.2c0.3,0.1,0.4,0.2,0.4,0.3c0,0.1,0.1,0.3,0.2,0.4c0.1,0.1,0.2,0.2,0.1,0.3
				c-0.1,0.1-0.1,0.3,0.1,0.6c0.1,0.2,0.2,0.4,0.2,0.6C255,785.3,255,785.6,254.9,786.1z"/>
			<path d="M274.3,790.2c-0.1,0-0.3,0.2-0.5,0.5c-0.3,0.3-0.4,0.6-0.4,0.7c0,0.1-0.1,0.2-0.4,0.2c-0.1,0-0.2,0-0.3,0.1
				c0,0-0.1,0.1-0.1,0.1c0,0,0,0.1,0,0.3c0,0.2-0.1,0.3-0.4,0.3c0,0-0.1,0-0.1,0c-0.1,0-0.1,0-0.2,0c-0.2,0-0.4,0.1-0.6,0.3
				c-0.2,0.2-0.4,0.3-0.6,0.3c-0.1,0-0.2-0.1-0.2-0.2c0-0.1-0.1-0.1-0.4,0c-0.2,0.1-0.6,0.2-1.2,0.2c-0.5,0-0.7,0-0.7-0.1
				c0-0.1-0.1-0.1-0.2-0.1c-0.1,0-0.1-0.1-0.2-0.2c-0.1-0.2-0.1-0.3-0.1-0.4c0-0.1,0-0.2,0-0.3c0-0.2,0-0.4,0-0.6c0-0.3,0-0.5,0-0.8
				c0-0.3,0-0.5,0-0.8s0-0.5,0-0.6v-0.2c0-0.1,0.4-0.1,1.3-0.1c0.7,0,1.2,0.1,1.4,0.2c0.2,0.1,0.4,0.4,0.4,0.8c0,0.2,0,0.3,0.1,0.3
				c0,0,0.1,0,0.2,0c0.1-0.1,0.3-0.1,0.5-0.1c0.1,0,0.2,0,0.3-0.1c0-0.1,0.1-0.2,0.1-0.5c0-0.1,0-0.2,0-0.3c0-0.2,0-0.3,0-0.4v-0.2
				c0-0.3,0-0.6,0.1-0.7c0.1-0.1,0.1-0.3,0-0.4c-0.1-0.1-0.1-0.3,0.1-0.4c0.1-0.1,0.2-0.2,0.2-0.4c0-0.3-0.3-0.4-1-0.4
				c-0.4,0-0.6,0.2-0.6,0.5c0,0.1,0,0.2,0.1,0.3c0,0.2,0,0.4,0,0.5c-0.1,0.1-0.3,0.2-0.9,0.3c-0.5,0.1-1,0.1-1.5,0.1h-0.6v-0.6
				c0-0.4,0.1-0.6,0.2-0.6c0.1,0,0.2-0.1,0.2-0.4c0-0.3-0.1-0.5-0.2-0.9c-0.1-0.2-0.2-0.4-0.1-0.4c0-0.1,0.1-0.1,0.2-0.3
				c0.2-0.1,0.3-0.3,0.2-0.5c0,0,0-0.1,0-0.2c0-0.1,0.1-0.3,0.4-0.3c0.3-0.1,0.7-0.1,1.5-0.2c0.7,0,1.1-0.1,1.1-0.1
				c0.3,0,0.5,0.1,0.6,0.2c0.1,0.2,0.3,0.3,0.5,0.4c0.2,0.1,0.3,0.2,0.3,0.3c0,0.1,0.1,0.2,0.3,0.3c0.2,0.1,0.3,0.2,0.3,0.3
				c0,0.2,0.1,0.3,0.3,0.5c0.2,0.2,0.4,0.2,0.6,0.2h0c0.3,0,0.4-0.2,0.4-0.6c0-0.2-0.1-0.3-0.2-0.5c-0.1-0.1-0.2-0.3-0.2-0.5
				c0-0.3-0.1-0.5-0.2-0.5c-0.1,0-0.1-0.1,0-0.4c0.1-0.1,0.1-0.2,0.1-0.3c0,0-0.1-0.1-0.1-0.1c-0.1-0.1-0.2-0.2-0.2-0.3
				c0-0.1-0.1-0.3-0.3-0.5c-0.2-0.2-0.4-0.3-0.6-0.1c-0.3,0.1-1.8,0.3-4.7,0.4h-0.7c-1.5,0-2.2-0.1-2.3-0.3c0-0.1-0.1-0.1-0.2-0.1
				c-0.1,0-0.2,0-0.2,0.1l0,0.1c0,0.1,0,0.1,0,0.1c0,0,0,0.1,0,0.2c0,0.1,0,0.2,0,0.2c0,0.2-0.1,0.3-0.3,0.3
				c-0.2,0.1-0.3,0.2-0.2,0.5c0.1,0.2,0.1,0.4,0.2,0.5s0.2,0.1,0.3,0.1c0.1,0,0.3,0,0.4,0c0.1,0,0.2,0,0.4,0c0.3,0,0.5,0.1,0.6,0.4
				c0.1,0.2,0.1,0.7,0.1,1.4c0,0.9-0.1,1.4-0.2,1.4c-0.1,0-0.1,0.2,0,0.4c0.1,0.2,0.1,0.4,0,0.6c-0.1,0.2-0.2,0.3-0.3,0.3
				c-0.1,0-0.1,0.1,0.1,0.2c0.1,0.1,0.1,0.3,0.1,0.6c0,0.5-0.1,1.5-0.2,2.8l-0.1,0.9h-0.6c-0.4,0-0.6,0.1-0.6,0.3
				c0,0.2-0.1,0.3-0.3,0.3c-0.1,0-0.2,0.1-0.2,0.3c0,0.3,0.1,0.5,0.3,0.6c0.2,0.1,0.3,0.2,0.3,0.4c0,0.1,0.2,0.1,0.7,0.1
				c0.5,0,0.8-0.1,0.9-0.3c0.1-0.1,0.5-0.2,1.2-0.2c0.5,0,0.9,0,1.3,0c0.7,0,1.1,0.1,1.2,0.2c0,0.1,0.2,0.1,0.4,0
				c0.2-0.1,0.7-0.2,1.5-0.2c0.8,0,1.3,0,1.5-0.1c0.2,0,0.3-0.1,0.5-0.3c0.2-0.2,0.3-0.3,0.2-0.5c0-0.2,0-0.3,0.1-0.4
				c0.1-0.1,0.2-0.3,0.2-0.8c0-0.3,0-0.5,0-0.6c0-0.1,0.1-0.1,0.2-0.1c0.2,0,0.3-0.2,0.3-0.5c0-0.2-0.1-0.4-0.2-0.6
				C274.6,790.3,274.5,790.2,274.3,790.2z"/>
			<path d="M264.2,792.1c0,0,0.1,0,0.1-0.1c0.1-0.2,0.1-0.3,0-0.3c-0.1,0-0.2,0.1-0.2,0.2C264,792.1,264.1,792.1,264.2,792.1z"/>
			<path d="M295,782.1c-0.1,0-0.2,0-0.3,0.1c-0.2,0.1-0.3,0.1-0.3,0.1c-0.1,0-0.1-0.1-0.2-0.2c-0.1-0.2-0.3-0.3-0.4-0.3
				c-0.1,0-0.2-0.1-0.2-0.3c0-0.2-0.1-0.3-0.3-0.3c-0.2,0-0.3,0.1-0.3,0.3c0,0.2,0.1,0.3,0.2,0.3c0.1,0,0.2,0.1,0.2,0.3
				c0,0.2-0.1,0.3-0.2,0.3c-0.2,0-0.3-0.1-0.3-0.4c-0.1-0.2-0.2-0.4-0.3-0.4c-0.1,0-0.1,0-0.2,0.1c-0.2,0.2-0.2,0.3,0,0.3
				c0.1,0,0.2,0.1,0.2,0.1c0,0.1-0.1,0.2-0.4,0.2c-0.2,0-0.4,0-0.4-0.1c0-0.1-0.1-0.1-0.4-0.1c-0.4,0-0.8,0.1-1.1,0.2
				c-0.4,0.2-0.6,0.4-0.6,0.7c0,0.3,0.3,0.5,0.8,0.6c0.4,0.1,0.6,0.1,0.6,0.2c0,0.1,0.1,0.1,0.3,0.1c0.3,0,0.5,0.2,0.6,0.6
				c0.1,0.4,0.2,1.2,0.2,2.4c0,1.4,0.1,2.2,0.1,2.4c0.1,0.1,0,0.3,0,0.6l-0.1,0.4l-0.5-0.5c-0.4-0.3-0.5-0.5-0.5-0.6
				c0-0.1-0.1-0.2-0.2-0.3c-0.1-0.1-0.3-0.2-0.4-0.4c-0.2-0.1-0.3-0.2-0.3-0.2c-0.1-0.1-0.3-0.2-0.3-0.2c-0.1,0-0.2-0.1-0.2-0.2
				c0-0.1-0.1-0.2-0.2-0.3c-0.1-0.1-0.3-0.2-0.4-0.2s-0.1-0.1-0.1-0.2c0-0.1-0.1-0.2-0.2-0.2c-0.1,0-0.1,0-0.1-0.1
				c0-0.1-0.1-0.2-0.4-0.5c-0.2-0.3-0.4-0.4-0.4-0.5c0-0.1-0.1-0.2-0.3-0.2c-0.2,0-0.3-0.1-0.5-0.2c-0.2-0.1-0.2-0.3-0.2-0.4
				c0-0.1-0.2-0.3-0.5-0.7c-0.3-0.4-0.5-0.6-0.5-0.7c0-0.1-0.1-0.2-0.3-0.4c-0.2-0.2-0.3-0.4-0.3-0.4c0-0.3-0.6-0.5-1.8-0.6
				c-0.6,0-0.9-0.1-0.9-0.1c-0.3,0-0.4,0.1-0.4,0.2c0,0.1,0,0.2,0,0.4c0,0.2,0,0.4,0.1,0.6c0.1,0.2,0.1,0.3,0.2,0.3
				c0.1,0,0.2,0.2,0.3,0.6c0.1,0.4,0.2,0.6,0.2,0.6c0.1,0,0.1,0.3,0.1,0.8c0,0.5,0,0.8-0.1,0.8c-0.1,0-0.1,0.1-0.1,0.4
				c0,0.2,0.1,0.6,0.2,1c0.1,0.2,0.1,0.6,0.1,1.1c0,0.7-0.1,1.1-0.2,1.1c-0.1,0-0.1,0.2-0.1,0.7c0,0.5,0,1.1-0.1,1.5
				c0,0.4-0.1,0.6-0.1,0.7c-0.1,0.1-0.2,0.2-0.4,0.2c-0.3,0.1-0.4,0.2-0.4,0.4c0,0.2,0.1,0.4,0.4,0.6c0.2,0.2,0.3,0.3,0.5,0.3
				c0.2,0,0.8,0,1.7,0c1,0,1.6,0,1.8-0.1c0.2-0.1,0.3-0.3,0.3-0.8c0-0.3-0.1-0.4-0.3-0.5c-0.2-0.1-0.3-0.1-0.3-0.2
				c0-0.1-0.2-0.1-0.6-0.1c-0.4,0-0.7-0.1-0.9-0.3c-0.2-0.2-0.2-0.3-0.1-0.4c0.1-0.1,0.2-0.2,0.2-0.6c0-0.3,0-0.5-0.1-0.5
				c-0.1-0.1-0.1-0.9-0.1-2.6c0-1.7,0.1-2.5,0.2-2.5c0.1,0,0.3,0.1,0.4,0.2c0.1,0.1,0.3,0.2,0.5,0.3c0.3,0.1,0.4,0.3,0.5,0.4
				c0,0.2,0.3,0.5,0.8,1.1c0.5,0.5,0.9,0.9,1.3,1.1c0.2,0.1,0.3,0.2,0.3,0.3c0,0.1,0.2,0.2,0.5,0.6c0.7,0.7,1.1,1.1,1.1,1.4
				c0,0.1,0.1,0.1,0.3,0.1c0.2,0,0.3,0,0.3,0.1c0,0.1,0.1,0.3,0.4,0.5c0.2,0.2,0.4,0.4,0.4,0.6c0,0.1,0.1,0.3,0.3,0.5
				c0.2,0.2,0.3,0.3,0.4,0.3c0.1,0,0.3,0.2,0.6,0.5c0.3,0.3,0.5,0.5,0.7,0.6c0.1,0.1,0.2,0.1,0.3,0.1c0.4,0,0.6-0.2,0.6-0.6
				c0-0.1,0-0.2,0-0.4c0-0.9-0.1-1.4-0.2-1.6c-0.1-0.1-0.1-0.5-0.1-1.3v-0.4c0-1,0-1.6-0.1-1.6c-0.1-0.1-0.2-0.4-0.2-1
				c0-0.5,0-0.8,0.1-0.8c0.1-0.1,0.2-0.2,0.2-0.5c0-0.3,0-0.4,0.1-0.4c0.1,0,0.1-0.1,0.1-0.4c0-0.3,0-0.4-0.1-0.4
				c-0.1,0-0.1-0.1-0.1-0.4c0-0.4,0.1-0.7,0.2-1c0.2-0.3,0.4-0.5,0.7-0.5c0.2,0,0.4-0.1,0.4-0.1c0.1,0,0.1-0.2,0.1-0.5v-0.2
				C295.3,782.3,295.2,782.1,295,782.1z"/>
			<path d="M314.6,784.1c0.1,0,0.2-0.2,0.2-0.5c0-0.3-0.1-0.4-0.2-0.4c-0.1,0-0.1-0.1-0.1-0.3c0-0.2,0.1-0.4,0.2-0.7
				c0.1-0.3,0-0.5-0.2-0.7c-0.2-0.2-0.5-0.3-0.9-0.3c-0.4,0-0.8,0.1-1.1,0.4c-0.3,0.2-0.5,0.3-0.6,0.2c-0.1-0.1-0.1-0.1-0.3-0.1
				c-0.1,0-0.2,0-0.6,0.1c-0.4,0.1-1.3,0.2-2.7,0.2c-1,0-1.5,0-1.6-0.1c-0.1-0.1-0.2,0-0.4,0.2c-0.1,0.1-0.3,0.2-0.4,0.2
				c-0.1,0-0.3,0-0.8-0.1c-0.8-0.2-1.2-0.3-1.3-0.3c0,0-0.1,0-0.3,0.1c-0.1,0-0.3,0.1-0.4,0.3c-0.1,0.2-0.2,0.4-0.2,0.5
				c0,0,0,0.1,0.1,0.2c0.1,0.1,0.1,0.2,0.2,0.5c0,0.1,0,0.2-0.1,0.3c-0.1,0-0.2,0.1-0.4,0.1c-0.1,0-0.3,0-0.4,0.1
				c-0.1,0.1-0.2,0.2-0.2,0.2c0,0.1,0,0.1,0.1,0.2c0.1,0.1,0.1,0.3,0.1,0.7c0,0.3-0.1,0.5-0.1,0.5c0,0.5,0.2,0.8,0.6,0.8
				c0.3,0,0.4-0.1,0.4-0.2c0-0.1,0.1-0.2,0.2-0.2c0.3,0,0.3-0.2,0-0.5c-0.1-0.1-0.2-0.2-0.2-0.3c0,0,0.1-0.1,0.3-0.1
				c0.2-0.1,0.3-0.2,0.2-0.4c-0.1-0.2,0-0.4,0-0.6c0.1-0.1,0.1-0.3,0-0.6c-0.1-0.3-0.1-0.4,0-0.4c0.1,0,0.1,0.1,0.1,0.2
				s0.2,0.3,0.6,0.4c0.4,0.1,0.8,0.2,1.1,0.2c0.4,0,0.7,0.1,0.9,0.3c0.2,0.2,0.4,0.2,0.5,0.2c0.1,0,0.2,0,0.2,0c0,0,0,0.1-0.1,0.1
				c-0.3,0.4-0.4,2.4-0.5,6.1c0,0.8-0.1,1.2-0.3,1.4c-0.2,0.2-0.3,0.3-0.3,0.5c0,0.1-0.3,0.2-0.8,0.2l-0.8,0.1l-0.1,0.6
				c0,0,0,0.1,0,0.1c0,0.1,0,0.1,0,0.1c0,0.2,0.2,0.5,0.5,0.8c0.3,0.3,0.6,0.4,0.7,0.4c0.1,0,0.2,0,0.2-0.1c0-0.1-0.1-0.1-0.2-0.1
				c-0.1,0-0.1,0-0.1-0.1c0-0.1,0.2-0.1,0.5-0.1c0.1,0,0.4,0,0.9,0c0.4,0,0.8,0,1,0c0.5,0,0.9,0,1-0.1c0.1-0.1,0.3-0.2,0.6-0.1
				c0.2,0,0.3,0,0.4-0.1c0.1-0.1,0.2-0.1,0.3-0.1c0.1,0,0.3-0.1,0.5-0.3c0.1-0.1,0.2-0.2,0.2-0.3c0-0.1-0.1-0.2-0.2-0.5
				c-0.2-0.3-0.3-0.5-0.5-0.5c-0.1,0-0.2-0.1-0.2-0.2c0-0.1-0.1-0.2-0.3-0.1c0,0-0.1,0-0.1,0c-0.1,0-0.1,0-0.1,0
				c-0.1,0-0.2,0-0.3-0.1c0-0.1-0.1-0.3-0.1-0.5v-0.5c0-0.5,0-0.8,0-0.9c0-0.1,0.1-0.2,0.2-0.2c0.2,0,0.2-0.1,0.2-0.4
				c0-0.3-0.1-0.5-0.2-0.5c-0.1,0-0.2-0.4-0.2-1.1c0-0.8,0.1-1.3,0.2-1.4c0.1-0.1,0.2-0.6,0.2-1.2c0-0.7,0.1-1.1,0.1-1.2
				c0.1-0.2,0.5-0.2,1.2-0.2c1.1,0,1.7,0.1,1.8,0.4c0,0.1,0.1,0.2,0.4,0.5c0.2,0.2,0.3,0.5,0.4,0.8c0,0.3,0.1,0.5,0.1,0.5
				c0.1,0.1,0.2,0.1,0.4,0.1c0.3,0,0.4,0,0.4-0.1c0-0.1,0.1-0.2,0.3-0.3c0.2-0.1,0.3-0.2,0.3-0.4s-0.1-0.4-0.3-0.6
				C314.5,784.3,314.5,784.1,314.6,784.1z"/>
			<path d="M335.4,792.9c-0.1,0-0.1-0.1-0.2-0.4c-0.1-0.2-0.1-0.3-0.2-0.3c0,0-0.3,0.1-0.8,0.2c0,0-0.1,0-0.2,0
				c-0.4,0-0.7-0.6-1-1.7c-0.2-0.8-0.4-1.3-0.4-1.4c-0.1-0.1-0.2-0.3-0.2-0.5c-0.1-0.4-0.3-1.3-0.8-2.8c-0.5-1.5-0.7-2.4-0.8-2.7
				c-0.2-1-0.4-1.5-0.5-1.7c-0.1-0.2-0.2-0.3-0.4-0.3c-0.3-0.1-0.4,0-0.5,0.1c-0.1,0.1-0.2,0.2-0.4,0.2c-0.2,0-0.4,0.1-0.4,0.2
				c0,0.1-0.1,0.1-0.2,0.1c-0.1,0-0.2,0.2-0.4,0.6c-0.2,0.4-0.3,0.8-0.5,1.2c-0.1,0.4-0.2,0.6-0.3,0.7c-0.1,0.1-0.1,0.2-0.1,0.4
				c0,0.2-0.1,0.6-0.4,1.2c-0.3,0.6-0.5,1.1-0.5,1.5c-0.1,0.4-0.2,0.6-0.2,0.7c-0.1,0.1-0.2,0.3-0.4,0.8c-0.2,0.5-0.3,0.7-0.3,0.8
				c-0.1,0.2-0.2,0.4-0.2,0.5c0,0.2,0,0.2-0.1,0.2c-0.1,0-0.2,0.1-0.3,0.4c-0.1,0.2-0.2,0.4-0.2,0.6c0,0.1-0.2,0.3-0.5,0.6
				c-0.3,0.3-0.5,0.4-0.7,0.4c-0.2,0-0.3,0.1-0.5,0.4c-0.2,0.2-0.4,0.4-0.5,0.4c-0.1,0-0.2,0.1-0.4,0.4c-0.1,0.2-0.1,0.3-0.1,0.4
				c0,0.1,0.1,0.3,0.4,0.5l0.5,0.4l2-0.1c1.1,0,1.8-0.1,2.1-0.1s0.5-0.1,0.5-0.2c0,0,0-0.1-0.1-0.2c-0.1-0.2-0.1-0.3,0.1-0.3
				c0.1,0,0.2-0.1,0.2-0.2c0-0.1-0.1-0.2-0.2-0.2c-0.1,0-0.3-0.1-0.4-0.2c-0.1-0.1-0.4-0.2-0.7-0.3c-0.5-0.1-0.7-0.3-0.7-0.5
				c0-0.1,0-0.2,0.1-0.3c0.1-0.2,0.2-0.3,0.2-0.5c0-0.1,0-0.2,0.1-0.2c0.1,0,0.1-0.2,0.1-0.7v-0.7h0.6c0.4,0,0.7-0.1,0.7-0.2
				c0.1-0.2,0.6-0.2,1.5-0.2h0.4c0.7,0,1,0,1.1,0.1c0.1,0.1,0.2,0.4,0.2,0.8c0,0.5,0.1,0.8,0.3,0.9c0.2,0.2,0.3,0.4,0.3,0.6
				c0,0,0,0,0,0.1c0,0,0,0.1,0,0.1c0,0.3-0.1,0.4-0.1,0.5c-0.1,0.1-0.3,0.1-0.6,0.2c-0.5,0.1-0.7,0.2-0.8,0.3c0,0.1-0.1,0.1-0.3,0.1
				c-0.2,0-0.3,0.1-0.3,0.3c0,0.3,0,0.4,0.1,0.5c0.1,0.1,0.3,0.1,0.6,0.1c0.3,0,0.7,0,1.3-0.1c0.6-0.1,1.3-0.1,2-0.1
				c0.4,0,0.7,0,0.8,0c0.2,0,0.4,0,0.6,0c0.3,0,0.5-0.1,0.5-0.3c0.1-0.2,0.1-0.3,0.2-0.3c0.1,0,0.1-0.2,0.1-0.5
				C335.5,793.1,335.5,792.9,335.4,792.9z M329.2,788.4c0,0-0.1,0-0.2,0c-0.1,0-0.1,0-0.1,0c-0.3,0-0.5,0.1-0.6,0.2
				c-0.1,0.1-0.3,0.2-0.4,0.2c-0.2,0-0.3-0.1-0.4-0.2c-0.1-0.1-0.2-0.2-0.3-0.2c-0.1,0-0.2-0.1-0.2-0.2c0-0.1,0-0.2,0.1-0.2
				c0.1,0,0.2-0.1,0.3-0.4c0.1-0.3,0.2-0.5,0.2-0.7c0-0.2,0.1-0.3,0.2-0.4c0.1,0,0.2-0.3,0.2-0.8c0.1-0.6,0.3-0.9,0.6-0.9
				c0.2,0,0.3,0.1,0.5,0.2c0.1,0.1,0.2,0.2,0.4,0.5c0.1,0.3,0.2,0.4,0.2,0.5c0,0-0.1,0.1-0.3,0.1c-0.2,0-0.3,0.1-0.4,0.2
				c-0.1,0.1,0,0.2,0.1,0.2c0.1,0,0.2,0.1,0.2,0.2c0.1,0.1,0.2,0.3,0.2,0.4c0.1,0.2,0.1,0.2,0.2,0.3c0.1,0.1,0.1,0.3,0.2,0.6
				l0.1,0.5L329.2,788.4z"/>
			<path d="M352.8,783.3h-0.9c-0.5,0-0.8,0-1-0.1c-0.2-0.1-0.3-0.2-0.3-0.5c0-0.1,0-0.2-0.1-0.3c-0.1,0-0.1,0-0.2,0.1
				c-0.1,0.1-0.4,0.2-0.7,0.2c-0.1,0-0.2,0-0.2-0.1c0-0.1-0.2-0.1-0.7-0.1c-0.4,0-0.7,0.1-0.8,0.2c-0.1,0.1-0.2,0.2-0.4,0.2
				c-0.2,0-0.3,0-0.4,0c-0.1,0-0.1,0-0.2,0c-0.1,0-0.1,0-0.2,0c-0.3,0-0.5,0.1-0.7,0.4c-0.3,0.3-0.5,0.4-0.7,0.5
				c-0.1,0-0.3,0.2-0.5,0.5c-0.2,0.3-0.4,0.4-0.5,0.4c-0.4,0.1-0.7,0.4-0.7,0.9c0,0.2-0.1,0.4-0.2,0.6c-0.1,0.2-0.2,0.4-0.2,0.6
				c0,0.3,0,0.4-0.1,0.5c-0.1,0.1-0.2,0.2-0.2,0.4c0,0.2-0.1,0.3-0.2,0.4c-0.1,0.1-0.2,0.5-0.2,1.4c0,1,0.1,1.5,0.2,1.6
				c0.1,0,0.1,0.1,0.1,0.2c0,0.1,0,0.2-0.1,0.2c-0.1,0,0,0.2,0.2,0.4c0.3,0.2,0.4,0.4,0.5,0.4c0.1,0,0.1,0.1,0.2,0.3
				c0.1,0.2,0.2,0.4,0.6,0.7c0.3,0.3,0.6,0.5,0.8,0.6c0.2,0.1,0.2,0.1,0.2,0.2c0,0.1,0.3,0.2,0.9,0.3c0.6,0.1,1.3,0.1,2,0.1
				c1.1,0,1.7-0.1,1.9-0.3c0.1-0.1,0.4-0.3,0.8-0.3c0.3-0.1,0.6-0.2,0.8-0.5c0.3-0.4,0.5-0.7,0.7-0.8c0.3-0.3,0.4-0.5,0.4-0.6
				c0-0.1-0.1-0.2-0.3-0.3c-0.4-0.2-0.6-0.3-0.8-0.3c-0.1,0-0.2,0.1-0.3,0.3c-0.1,0.2-0.2,0.4-0.4,0.4c-0.2,0-0.4,0.1-0.6,0.4
				c-0.2,0.2-0.4,0.3-0.5,0.2c-0.1-0.1-0.2-0.1-0.4,0.1c-0.1,0.1-0.4,0.2-0.7,0.2c-0.1,0-0.4,0-0.8-0.1c-0.6,0-1.1-0.1-1.2-0.2
				c-0.2-0.1-0.3-0.3-0.3-0.5c0-0.2-0.2-0.5-0.6-0.9c-0.3-0.3-0.5-0.5-0.6-0.7c-0.1-0.2-0.2-0.5-0.3-0.9c-0.1-0.7-0.2-1-0.3-1
				c-0.1,0-0.1-0.1-0.1-0.2c0-0.1,0-0.2,0.1-0.2c0.2,0,0.3-0.7,0.3-1.9c0-0.2,0.1-0.2,0.3-0.2c0.2,0,0.3-0.1,0.2-0.3
				c0-0.1,0-0.2,0-0.3s0.2-0.1,0.4-0.2c0.3-0.1,0.5-0.3,0.5-0.4c0-0.1,0.1-0.3,0.3-0.4c0.2-0.1,0.4-0.2,0.7-0.2
				c0.2,0,0.3-0.1,0.3-0.2c0-0.1,0.2-0.2,0.7-0.2c0.1,0,0.2,0,0.4,0c0.5,0,0.9,0.2,1.1,0.5c0.2,0.2,0.4,0.3,0.6,0.4
				c0.3,0.1,0.4,0.2,0.4,0.4s0,0.3,0.1,0.4c0.1,0.1,0.3,0.4,0.4,0.9c0.1,0.4,0.1,0.6,0.2,0.7c0.1,0.1,0.2,0.2,0.4,0.3
				c0.3,0.1,0.4,0.2,0.4,0.4c0,0.1,0.1,0.2,0.2,0.1c0.1-0.1,0.2-0.6,0.2-1.5c0-1,0.1-1.5,0.2-1.5c0.1-0.1,0.1-0.3,0-0.8L352.8,783.3
				z"/>
			<path d="M373.9,790.1c-0.1,0-0.2-0.1-0.2-0.3c-0.1-0.2-0.2-0.3-0.4-0.3c-0.2,0-0.4-0.1-0.4-0.4c0-0.1-0.1-0.2-0.2-0.3
				c-0.2-0.1-0.3-0.1-0.3,0.1c0,0.1-0.1,0.2-0.4,0.3c-0.2,0.1-0.3,0.2-0.1,0.3c0.1,0.1,0.2,0.3,0.2,0.6c0,0.3,0,0.4-0.1,0.4
				c-0.1,0-0.3,0.2-0.6,0.5c-0.6,0.6-1.1,0.9-1.5,0.9c-0.2,0-0.4,0.1-0.7,0.2c-0.3,0.1-0.7,0.2-1.2,0.2c-0.6,0-0.9-0.1-0.9-0.4
				c0-0.1,0-0.1,0-0.2c0.1-0.2,0.1-0.3,0-0.4c-0.1,0-0.1-0.2-0.1-0.4c0-0.4,0-0.7,0.1-1c0-0.1,0.1-0.2,0.1-0.4c0-0.1,0-0.4-0.1-0.6
				c0-0.1,0-0.3,0-0.5s0-0.3,0.1-0.4c0.2-0.1,0.2-0.3,0.2-0.8c0-0.2,0-0.3-0.1-0.4c-0.1-0.1-0.1-0.2,0-0.4c0.1-0.1,0.1-0.5,0.1-1.2
				V785l-0.1-1.3h0.9c0.6,0,1-0.1,1.1-0.2c0.1-0.2,0.1-0.4,0.1-0.6c0-0.3-0.1-0.5-0.2-0.6c-0.1-0.1-1.1-0.1-2.9-0.1h-0.9
				c-1.2,0-1.8,0.1-1.8,0.2c-0.1,0.1-0.1,0.3-0.1,0.4c0,0.3,0.1,0.6,0.2,0.7c0.1,0.1,0.4,0.2,0.7,0.2c0.5,0,0.8,0.1,0.8,0.4
				c0,0.1,0,0.1-0.1,0.2c-0.1,0.1-0.1,0.4-0.1,0.7c0,0.3,0,0.6,0.1,0.8c0.1,0.3,0.1,0.4,0,0.5c-0.1,0.1-0.1,0.3-0.1,0.7
				c0,0.2,0,0.3,0,0.4c0,0.8,0.1,1.3,0.1,1.6c0,1.3-0.1,1.9-0.3,1.9c-0.1,0-0.2,0.2-0.2,0.7c0,0.2,0,0.3,0.1,0.4l0.1,0.1
				c0,0.2-0.3,0.2-0.9,0.2c-0.3,0-0.5,0.1-0.6,0.2c-0.1,0.1-0.2,0.4-0.2,0.8v0.2c0,0.5,0.2,0.8,0.6,0.8c0.1,0,0.3,0,0.4-0.1
				c0.3-0.1,0.4-0.2,0.4-0.3c0-0.1,0.3-0.1,1-0.1c0.7,0,1,0,1,0.1c0,0.1,0.7,0.1,2.1,0.1c1.4,0,2.1-0.1,2.1-0.1
				c0-0.1,0.3-0.1,0.8-0.1c0.6,0,0.9,0,0.9,0.1c0,0.1,0.1,0.2,0.4,0.2c0.2,0,0.4-0.1,0.4-0.3c0-0.1,0.1-0.3,0.3-0.4
				c0.2-0.1,0.3-0.2,0.3-0.4c0-0.2,0-0.4,0.1-0.5c0.1-0.1,0.1-0.3,0-0.4c0,0-0.1-0.1-0.1-0.2c0-0.2,0-0.5,0.1-0.8
				c0.1-0.3,0.2-0.4,0.2-0.4c0.1,0,0.1-0.1,0.1-0.3C374.1,790.2,374,790.1,373.9,790.1z"/>
			<path d="M374.8,790.7c0,0-0.1,0-0.1,0c-0.1,0-0.1,0-0.1,0.1c-0.2,0-0.3,0.1-0.3,0.3c0,0.1,0.1,0.2,0.3,0.2c0.2,0,0.3-0.1,0.3-0.3
				C374.9,790.8,374.9,790.7,374.8,790.7L374.8,790.7z"/>
			<path d="M392.7,790.2c-0.1,0-0.3,0.2-0.5,0.5c-0.3,0.4-0.4,0.6-0.4,0.7c0,0.1-0.1,0.2-0.4,0.2c-0.2,0-0.3,0.1-0.3,0.1
				c0,0,0,0.1,0,0.3v0.2c0,0.2-0.1,0.3-0.4,0.3c0,0-0.1,0-0.2,0c-0.1,0-0.1,0-0.2,0c-0.2,0-0.4,0.1-0.7,0.4
				c-0.2,0.2-0.4,0.3-0.6,0.3c-0.1,0-0.2-0.1-0.2-0.2s-0.2-0.1-0.4,0c-0.2,0.1-0.6,0.2-1.2,0.2c-0.5,0-0.7,0-0.7-0.1
				c0-0.1-0.1-0.1-0.2-0.1c-0.1,0-0.1-0.1-0.2-0.2c-0.1-0.2-0.1-0.3-0.1-0.5c0,0,0-0.6,0.1-1.8c0-1.2,0.1-1.8,0.1-1.8
				c0-0.1,0.5-0.1,1.4-0.1c0.8,0,1.3,0.1,1.5,0.2c0.3,0.1,0.4,0.4,0.4,0.8c0,0.2,0,0.3,0.1,0.3c0,0,0.1,0,0.2,0
				c0.2-0.1,0.4-0.1,0.6-0.1h0.1c0.2,0,0.3-0.2,0.3-0.6c0-0.1,0-0.2,0-0.3c0-0.2,0-0.3,0-0.4v-0.3c0-0.4,0-0.6,0.1-0.6
				c0.1-0.1,0.1-0.3,0-0.4c-0.1-0.1-0.1-0.3,0.1-0.4c0.2-0.1,0.2-0.2,0.2-0.4c0-0.3-0.4-0.4-1.1-0.4c-0.4,0-0.6,0.2-0.6,0.5
				c0,0.1,0,0.2,0.1,0.3c0.1,0.2,0,0.3-0.1,0.5c-0.1,0.1-0.4,0.2-0.9,0.3c-0.6,0.1-1.1,0.2-1.6,0.2h-0.6v-0.6c0-0.4,0.1-0.6,0.2-0.6
				c0.1,0,0.2-0.1,0.2-0.4c0-0.3-0.1-0.6-0.2-0.9c-0.1-0.2-0.2-0.4-0.2-0.4c0-0.1,0.1-0.1,0.2-0.3c0.2-0.2,0.3-0.3,0.2-0.5
				c0,0,0-0.1,0-0.2c0-0.2,0.1-0.3,0.4-0.4c0.3-0.1,0.8-0.1,1.5-0.2c0.6,0,1-0.1,1.1-0.1c0.4,0,0.6,0.1,0.7,0.2
				c0.2,0.2,0.3,0.3,0.5,0.4c0.2,0.1,0.3,0.2,0.3,0.3c0,0.1,0.1,0.2,0.4,0.4c0.2,0.1,0.4,0.3,0.4,0.3c0,0.2,0.1,0.3,0.3,0.5
				c0.2,0.2,0.4,0.3,0.6,0.3h0.1c0.3,0,0.4-0.2,0.4-0.7c0-0.2-0.1-0.4-0.2-0.5c-0.1-0.2-0.2-0.4-0.2-0.6c0-0.3-0.1-0.5-0.2-0.5
				c-0.1-0.1-0.1-0.2,0-0.4c0.1-0.1,0.1-0.2,0.1-0.3c0-0.1-0.1-0.1-0.2-0.2c-0.1-0.1-0.2-0.2-0.2-0.3c0-0.1-0.1-0.3-0.3-0.5
				c-0.1-0.1-0.2-0.2-0.3-0.2c-0.1,0-0.2,0-0.3,0.1c-0.2,0.1-1.9,0.3-5,0.4h-0.7c-1.5,0-2.3-0.1-2.4-0.3c0-0.1-0.1-0.1-0.3-0.1
				c-0.1,0-0.2,0-0.2,0.1c0,0.1-0.1,0.2-0.1,0.3c0,0.2,0,0.3,0,0.3c0,0.2-0.1,0.3-0.3,0.4c-0.2,0-0.3,0.2-0.2,0.5
				c0.1,0.2,0.1,0.4,0.2,0.5c0.1,0.1,0.2,0.1,0.3,0.1s0.3,0,0.4,0c0.1,0,0.1,0,0.2,0c0.1,0,0.1,0,0.2,0c0.4,0,0.6,0.1,0.7,0.4
				c0.1,0.2,0.1,0.8,0.1,1.5c0,0.9-0.1,1.4-0.2,1.5c-0.1,0-0.1,0.2,0,0.4c0.1,0.3,0.1,0.5,0,0.7c-0.1,0.2-0.2,0.3-0.3,0.3
				c-0.1,0-0.1,0.1,0.1,0.2c0.1,0.1,0.1,0.3,0.1,0.6c0,0.3-0.1,1.3-0.2,3l-0.1,1H383c-0.4,0-0.6,0.1-0.7,0.3
				c-0.1,0.2-0.2,0.3-0.3,0.3c-0.2,0-0.2,0.1-0.2,0.4c0,0.3,0.1,0.5,0.3,0.6c0.2,0.1,0.3,0.3,0.3,0.4c0,0.1,0.1,0.2,0.3,0.2
				c0.2,0,0.5,0,0.8-0.1c0.3-0.1,0.5-0.2,0.6-0.2c0.2-0.1,0.6-0.2,1.2-0.2c0.1,0,0.6,0,1.5,0.1c0.8,0,1.2,0.1,1.2,0.2
				c0.1,0.1,0.2,0.1,0.4,0c0.3-0.1,0.8-0.2,1.6-0.2c0.9,0,1.4,0,1.6-0.1c0.2,0,0.3-0.1,0.5-0.2c0.2-0.2,0.3-0.4,0.2-0.6
				c-0.1-0.2,0-0.4,0.2-0.4c0.1-0.1,0.2-0.4,0.2-0.8c0-0.3,0-0.5,0.1-0.6c0-0.1,0.1-0.1,0.2-0.1c0.2,0,0.3-0.2,0.3-0.5
				c0-0.3-0.1-0.5-0.2-0.7C393,790.3,392.8,790.2,392.7,790.2z"/>
			<path d="M382,792.2c0.1,0,0.1-0.1,0.2-0.1c0.1-0.2,0.1-0.3-0.1-0.3c-0.1,0-0.2,0.1-0.2,0.2C381.8,792.1,381.9,792.2,382,792.2z"
				/>
			<path d="M402.9,788.8c0-0.1,0-0.2-0.1-0.2c-0.1,0-0.1,0-0.1,0.1l0.1,0.2C402.8,789,402.9,789,402.9,788.8z"/>
			<path d="M408.9,790.7c-0.1-0.1-0.1-0.5-0.1-1.2c0-0.6-0.1-0.9-0.2-1.1c-0.1-0.2-0.3-0.4-0.6-0.5c-0.3-0.1-0.5-0.3-0.5-0.4
				c-0.1-0.1-0.3-0.3-0.9-0.6c-0.5-0.3-1-0.5-1.3-0.6c-0.2-0.1-0.5-0.2-0.9-0.5c-0.4-0.3-0.6-0.4-0.6-0.5c0-0.1-0.1-0.2-0.2-0.3
				c-0.2-0.1-0.2-0.2-0.2-0.3c0,0,0-0.1,0-0.1c0.1-0.1,0.1-0.2,0.1-0.3c0-0.1,0-0.3-0.1-0.6c0-0.1,0-0.2,0-0.2c0,0,0.2-0.1,0.3-0.1
				c0.3,0,0.4-0.1,0.4-0.2c0-0.1,0.1-0.2,0.4-0.4c0.3-0.2,0.4-0.3,0.4-0.3c0-0.1,0.1-0.1,0.4-0.2c0.1,0,0.1,0,0.2,0
				c0.4,0,0.8,0.2,1.2,0.5s0.7,0.6,0.7,0.9c0,0.2,0.1,0.4,0.3,0.5c0.2,0.1,0.3,0.3,0.3,0.4c0,0.1,0.1,0.3,0.2,0.5
				c0.2,0.2,0.3,0.3,0.4,0.3c0,0,0,0,0.1,0c0.1-0.1,0.1-0.7,0.2-2v-0.8c0-0.6-0.1-0.9-0.2-0.9c-0.1,0-0.1,0-0.1,0
				c-0.3,0.1-0.6,0.2-0.8,0.2c-0.3,0-0.6-0.1-1-0.3c-0.4-0.2-0.6-0.3-0.7-0.3c0,0-0.1,0-0.2,0.1c-0.3,0.1-0.6,0.1-0.8,0.1
				c-0.3,0-0.4,0-0.5,0.1c0,0.1-0.1,0.2-0.3,0.2c-0.2,0-0.4-0.1-0.5-0.2c-0.1-0.1-0.3-0.2-0.5-0.2h0c-0.1,0-0.1,0-0.1,0
				c-0.1,0-0.1,0-0.1,0c0,0,0.1,0,0.1,0c0.1,0.1,0.2,0.1,0.2,0.2c0,0.2-0.2,0.3-0.5,0.4c-0.3,0.1-0.4,0.2-0.4,0.4
				c0.1,0.2,0,0.3-0.2,0.4c-0.3,0.1-0.6,0.5-1.1,1.1c-0.1,0.2-0.2,0.4-0.2,0.6c0,0,0,0.3,0.1,0.8c0.1,0.7,0.3,1.1,0.4,1.3
				c0.1,0.2,0.4,0.4,0.7,0.7c0.4,0.3,0.6,0.4,0.8,0.4c0.1,0,0.3,0.1,0.6,0.4c0.4,0.3,0.9,0.6,1.7,0.8c0.5,0.1,0.8,0.3,1.1,0.6
				c0.2,0.2,0.3,0.4,0.5,0.7c0.1,0.3,0.2,0.5,0.2,0.7c0,0.1,0,0.1-0.1,0.2c-0.1,0-0.1,0.2-0.1,0.4c0.1,0.2,0,0.4-0.2,0.6
				c-0.1,0.1-0.2,0.3-0.2,0.4c0,0.2-0.5,0.4-1.4,0.5c-0.1,0-0.3,0-0.6,0c-0.9,0-1.7-0.4-2.2-1.2c-0.3-0.4-0.5-0.8-0.5-1
				c0,0,0-0.1,0-0.2c0-0.1,0-0.2,0-0.2c0,0-0.1-0.1-0.1-0.1c-0.1,0-0.1,0-0.1-0.1c0.1-0.3-0.1-0.5-0.4-0.6c-0.1,0-0.2-0.1-0.3-0.1
				c-0.3,0-0.4,0.2-0.5,0.5c-0.1,1.2-0.1,1.9-0.2,1.9c-0.1,0.1-0.1,0.4-0.2,0.8c0,0.1,0,0.3,0,0.4c0,0.2,0.1,0.4,0.3,0.6
				c0.1,0.1,0.2,0.2,0.3,0.2c0,0,0.1,0,0.2-0.2c0.1-0.2,0.2-0.3,0.2-0.4c0-0.3,0.2-0.3,0.5-0.1c0.9,0.5,1.8,0.7,2.9,0.7
				c0.5,0,1.1-0.1,1.6-0.2c0.6-0.1,1.1-0.3,1.4-0.6c0.3-0.3,0.5-0.5,0.5-0.5c0-0.1,0.1-0.2,0.2-0.3c0.2-0.1,0.3-0.4,0.3-0.9
				c0.1-0.5,0.1-0.7,0.2-0.7C408.9,790.8,408.9,790.8,408.9,790.7z M404.3,788C404.3,788,404.3,788,404.3,788
				c-0.1-0.1-0.1-0.1,0-0.1S404.4,787.9,404.3,788C404.4,788,404.4,788,404.3,788z"/>
		</g>
		<g>
			<path d="M460,789.7c1.2,0.1,2.4-0.7,2.4-2.2c0-23.7,0-47.4,0-71.1c0-56.4,0-112.8,0-169.2c0-68.7,0-137.4,0-206
				c0-59,0-117.9,0-176.9c0-19.6,0-39.2,0-58.8c0-8.9,1.3-19,0-27.9c-0.1-0.4,0-0.8,0-1.2c0-0.8-0.3-1.3-0.8-1.7
				c0.1-1.2-0.6-2.5-2.2-2.6c-13.1-0.5-25.3-13.8-25.8-26.7c0-0.5-0.2-0.8-0.4-1.1c-0.3-0.6-1-1.1-1.9-1.1c-40.5,0-80.9,0-121.4,0
				c-64.5,0-129,0-193.6,0c-14.9,0-29.7,0-44.6,0c-0.9,0-1.6,0.5-1.9,1.1c-0.2,0.3-0.3,0.7-0.4,1.2C69.2,58.4,57,71.6,43.9,72.2
				c-1.8,0.1-2.5,1.9-2,3.2c-0.2,0.3-0.2,0.6-0.2,1c0,23.7,0,47.4,0,71.1c0,56.4,0,112.8,0,169.2c0,68.7,0,137.4,0,206
				c0,59,0,117.9,0,176.9c0,19.6,0,39.2,0,58.8c0,8.9-1.3,19,0,27.9c0.1,0.4,0,0.8,0,1.2c0,0.9,0.5,1.6,1.1,1.9
				c0.3,0.2,0.7,0.3,1.2,0.4c13,0.5,25.3,13.3,25.8,26.2c0,0.5,0.2,0.8,0.4,1.1c0.3,0.6,1,1.1,1.9,1.1c40.5,0,80.9,0,121.4,0
				c64.5,0,129,0,193.6,0c14.9,0,29.7,0,44.6,0c0.9,0,1.6-0.5,1.9-1.1c0.2-0.3,0.3-0.7,0.4-1.2c0.5-12.9,12.7-25.7,25.8-26.2
				C459.6,789.8,459.8,789.8,460,789.7z M429.4,813.8c-39.8,0-79.6,0-119.3,0c-64.5,0-129,0-193.6,0c-14.2,0-28.3,0-42.5,0
				c-1.7-13.9-13.9-26.5-27.8-28.3c0-23,0-46,0-69.1c0-56.4,0-112.8,0-169.2c0-68.7,0-137.4,0-206c0-59,0-117.9,0-176.9
				c0-19.6,0-39.2,0-58.8c0-8.9,1.3-19,0-27.9c-0.1-0.4,0-0.8,0-1.2c14-1.8,26.1-14.9,27.8-28.7c39.8,0,79.5,0,119.3,0
				c64.5,0,129,0,193.6,0c14.2,0,28.3,0,42.5,0c1.7,14.1,14.3,27.4,28.5,28.8c0,23.7,0,47.3,0,71c0,56.4,0,112.8,0,169.2
				c0,68.7,0,137.4,0,206c0,59,0,117.9,0,176.9c0,19.6,0,39.2,0,58.8c0,8.6-1.2,18.4-0.1,27C443.6,786.9,431.1,799.7,429.4,813.8z"
				/>
			<polygon points="51.7,807.6 44,812.8 41.2,798.8 38.5,812.8 30.7,807.6 35.9,815.4 21.9,818.1 35.9,820.9 30.7,828.6 38.5,823.4 
				41.2,837.5 44,823.5 51.7,828.6 46.5,820.9 60.6,818.1 46.5,815.4 			"/>
			<polygon points="468.1,815.4 473.3,807.6 465.5,812.8 462.8,798.8 460,812.8 452.3,807.6 457.5,815.4 443.4,818.1 457.5,820.9 
				452.3,828.6 460,823.4 462.8,837.5 465.5,823.5 473.3,828.6 468.1,820.9 482.1,818.1 			"/>
			<polygon points="30.7,56.4 38.5,51.2 41.2,65.2 44,51.2 51.7,56.4 46.5,48.6 60.6,45.9 46.5,43.1 51.7,35.4 44,40.5 41.2,26.5 
				38.5,40.6 30.7,35.4 35.9,43.1 21.9,45.9 35.9,48.6 			"/>
			<polygon points="473.3,35.4 465.5,40.5 462.8,26.5 460,40.6 452.3,35.4 457.5,43.1 443.4,45.9 457.5,48.6 452.3,56.4 460,51.2 
				462.8,65.2 465.5,51.2 473.3,56.4 468.1,48.6 482.1,45.9 468.1,43.1 			"/>
		</g>
		<path d="M258.7,363.9c-0.9-0.4-1.8-0.8-2.7-1.1c-1.1-0.5-1.7-0.5-2-1.5c-0.6-1.9-1.1-3.9-1.6-5.9c0,0,0,0,0-0.1c0,0,0,0,0-0.1
			c-0.1-0.1-0.2-0.2-0.3-0.2c-0.1,0-0.3,0-0.3,0.2c0,0,0,0.1,0,0.1c0,0,0,0,0,0c0,0,0,0,0,0c0,0,0,0,0,0c-0.5,1.9-1,3.9-1.5,5.9
			c-0.5,1.5-3.3,2.1-4.7,2.7c-0.3,0.1-0.5,0.6-0.1,0.7c0.9,0.4,1.8,0.8,2.7,1.2c0.5,0.2,1.1,0.5,1.6,0.7c0.1,0.1,0.2,0.1,0.2,0.1
			c0,0,0,0,0,0.1c1,1.7,1.2,4.2,1.8,6.1c0.1,0.4,0.7,0.4,0.8,0c0.6-1.9,0.9-4.4,1.8-6.1c0,0,0,0,0-0.1c0,0,0.1,0,0.1-0.1
			c0.5-0.3,1.2-0.5,1.7-0.8c0.9-0.4,1.8-0.8,2.7-1.2C259.2,364.5,259,364.1,258.7,363.9z M255.3,365.4c-0.6,0.3-1.5,0.5-1.9,1
			c-0.6,0.8-0.7,2.4-1,3.4c-0.2,0.6-0.3,1.1-0.5,1.7c-0.2-0.6-0.3-1.1-0.5-1.7c-0.3-0.9-0.4-2.6-1-3.4c-0.4-0.6-1.2-0.7-1.9-1
			c-0.7-0.3-1.5-0.7-2.2-1c1.5-0.5,3.5-1.1,4.2-2.2c0.6-1,0.7-2.7,1-3.7c0.1-0.5,0.2-0.9,0.4-1.4c0.1,0.5,0.3,0.9,0.4,1.4
			c0.3,1.1,0.4,2.7,1,3.7c0.6,1.1,2.7,1.7,4.2,2.2C256.8,364.7,256.1,365,255.3,365.4z"/>
		<path d="M258.7,408.7c-0.9-0.4-1.8-0.8-2.7-1.1c-1.1-0.5-1.7-0.5-2-1.5c-0.6-1.9-1.1-3.9-1.6-5.9c0,0,0,0,0-0.1c0,0,0,0,0-0.1
			c-0.1-0.1-0.2-0.2-0.3-0.2c-0.1,0-0.3,0-0.3,0.2c0,0,0,0.1,0,0.1c0,0,0,0,0,0c0,0,0,0,0,0c0,0,0,0,0,0c-0.5,1.9-1,3.9-1.5,5.9
			c-0.5,1.5-3.3,2.1-4.7,2.7c-0.3,0.1-0.5,0.6-0.1,0.7c0.9,0.4,1.8,0.8,2.7,1.2c0.5,0.2,1.1,0.5,1.6,0.7c0.1,0.1,0.2,0.1,0.2,0.1
			c0,0,0,0,0,0.1c1,1.7,1.2,4.2,1.8,6.1c0.1,0.4,0.7,0.4,0.8,0c0.6-1.9,0.9-4.4,1.8-6.1c0,0,0,0,0-0.1c0,0,0.1,0,0.1-0.1
			c0.5-0.3,1.2-0.5,1.7-0.8c0.9-0.4,1.8-0.8,2.7-1.2C259.2,409.2,259,408.8,258.7,408.7z M255.3,410.1c-0.6,0.3-1.5,0.5-1.9,1
			c-0.6,0.8-0.7,2.4-1,3.4c-0.2,0.6-0.3,1.1-0.5,1.7c-0.2-0.6-0.3-1.1-0.5-1.7c-0.3-0.9-0.4-2.6-1-3.4c-0.4-0.6-1.2-0.7-1.9-1
			c-0.7-0.3-1.5-0.7-2.2-1c1.5-0.5,3.5-1.1,4.2-2.2c0.6-1,0.7-2.7,1-3.7c0.1-0.5,0.2-0.9,0.4-1.4c0.1,0.5,0.3,0.9,0.4,1.4
			c0.3,1.1,0.4,2.7,1,3.7c0.6,1.1,2.7,1.7,4.2,2.2C256.8,409.4,256.1,409.8,255.3,410.1z"/>
		<path d="M258.7,274.8c-0.9-0.4-1.8-0.8-2.7-1.1c-1.1-0.5-1.7-0.5-2-1.5c-0.6-1.9-1.1-3.9-1.6-5.9c0,0,0,0,0-0.1c0,0,0,0,0-0.1
			c-0.1-0.1-0.2-0.2-0.3-0.2c-0.1,0-0.3,0-0.3,0.2c0,0,0,0.1,0,0.1c0,0,0,0,0,0c0,0,0,0,0,0c0,0,0,0,0,0c-0.5,1.9-1,3.9-1.5,5.9
			c-0.5,1.5-3.3,2.1-4.7,2.7c-0.3,0.1-0.5,0.6-0.1,0.7c0.9,0.4,1.8,0.8,2.7,1.2c0.5,0.2,1.1,0.5,1.6,0.7c0.1,0.1,0.2,0.1,0.2,0.1
			c0,0,0,0,0,0.1c1,1.7,1.2,4.2,1.8,6.1c0.1,0.4,0.7,0.4,0.8,0c0.6-1.9,0.9-4.4,1.8-6.1c0,0,0,0,0-0.1c0,0,0.1,0,0.1-0.1
			c0.5-0.3,1.2-0.5,1.7-0.8c0.9-0.4,1.8-0.8,2.7-1.2C259.2,275.4,259,274.9,258.7,274.8z M255.3,276.2c-0.6,0.3-1.5,0.5-1.9,1
			c-0.6,0.8-0.7,2.4-1,3.4c-0.2,0.6-0.3,1.1-0.5,1.7c-0.2-0.6-0.3-1.1-0.5-1.7c-0.3-0.9-0.4-2.6-1-3.4c-0.4-0.6-1.2-0.7-1.9-1
			c-0.7-0.3-1.5-0.7-2.2-1c1.5-0.5,3.5-1.1,4.2-2.2c0.6-1,0.7-2.7,1-3.7c0.1-0.5,0.2-0.9,0.4-1.4c0.1,0.5,0.3,0.9,0.4,1.4
			c0.3,1.1,0.4,2.7,1,3.7c0.6,1.1,2.7,1.7,4.2,2.2C256.8,275.6,256.1,275.9,255.3,276.2z"/>
		<path d="M258.7,319.2c-0.9-0.4-1.8-0.8-2.7-1.1c-1.1-0.5-1.7-0.5-2-1.5c-0.6-1.9-1.1-3.9-1.6-5.9c0,0,0,0,0-0.1c0,0,0,0,0-0.1
			c-0.1-0.1-0.2-0.2-0.3-0.2c-0.1,0-0.3,0-0.3,0.2c0,0,0,0.1,0,0.1c0,0,0,0,0,0c0,0,0,0,0,0c0,0,0,0,0,0c-0.5,1.9-1,3.9-1.5,5.9
			c-0.5,1.5-3.3,2.1-4.7,2.7c-0.3,0.1-0.5,0.6-0.1,0.7c0.9,0.4,1.8,0.8,2.7,1.2c0.5,0.2,1.1,0.5,1.6,0.7c0.1,0.1,0.2,0.1,0.2,0.1
			c0,0,0,0,0,0.1c1,1.7,1.2,4.2,1.8,6.1c0.1,0.4,0.7,0.4,0.8,0c0.6-1.9,0.9-4.4,1.8-6.1c0,0,0,0,0-0.1c0,0,0.1,0,0.1-0.1
			c0.5-0.3,1.2-0.5,1.7-0.8c0.9-0.4,1.8-0.8,2.7-1.2C259.2,319.8,259,319.3,258.7,319.2z M255.3,320.7c-0.6,0.3-1.5,0.5-1.9,1
			c-0.6,0.8-0.7,2.4-1,3.4c-0.2,0.6-0.3,1.1-0.5,1.7c-0.2-0.6-0.3-1.1-0.5-1.7c-0.3-0.9-0.4-2.6-1-3.4c-0.4-0.6-1.2-0.7-1.9-1
			c-0.7-0.3-1.5-0.7-2.2-1c1.5-0.5,3.5-1.1,4.2-2.2c0.6-1,0.7-2.7,1-3.7c0.1-0.5,0.2-0.9,0.4-1.4c0.1,0.5,0.3,0.9,0.4,1.4
			c0.3,1.1,0.4,2.7,1,3.7c0.6,1.1,2.7,1.7,4.2,2.2C256.8,320,256.1,320.3,255.3,320.7z"/>
		<path d="M258.7,543.7c-0.9-0.4-1.8-0.8-2.7-1.1c-1.1-0.5-1.7-0.5-2-1.5c-0.6-1.9-1.1-3.9-1.6-5.9c0,0,0,0,0-0.1c0,0,0,0,0-0.1
			c-0.1-0.1-0.2-0.2-0.3-0.2c-0.1,0-0.3,0-0.3,0.2c0,0,0,0.1,0,0.1c0,0,0,0,0,0c0,0,0,0,0,0c0,0,0,0,0,0c-0.5,1.9-1,3.9-1.5,5.9
			c-0.5,1.5-3.3,2.1-4.7,2.7c-0.3,0.1-0.5,0.6-0.1,0.7c0.9,0.4,1.8,0.8,2.7,1.2c0.5,0.2,1.1,0.5,1.6,0.7c0.1,0.1,0.2,0.1,0.2,0.1
			c0,0,0,0,0,0.1c1,1.7,1.2,4.2,1.8,6.1c0.1,0.4,0.7,0.4,0.8,0c0.6-1.9,0.9-4.4,1.8-6.1c0,0,0,0,0-0.1c0,0,0.1,0,0.1-0.1
			c0.5-0.3,1.2-0.5,1.7-0.8c0.9-0.4,1.8-0.8,2.7-1.2C259.2,544.3,259,543.9,258.7,543.7z M255.3,545.2c-0.6,0.3-1.5,0.5-1.9,1
			c-0.6,0.8-0.7,2.4-1,3.4c-0.2,0.6-0.3,1.1-0.5,1.7c-0.2-0.6-0.3-1.1-0.5-1.7c-0.3-0.9-0.4-2.6-1-3.4c-0.4-0.6-1.2-0.7-1.9-1
			c-0.7-0.3-1.5-0.7-2.2-1c1.5-0.5,3.5-1.1,4.2-2.2c0.6-1,0.7-2.7,1-3.7c0.1-0.5,0.2-0.9,0.4-1.4c0.1,0.5,0.3,0.9,0.4,1.4
			c0.3,1.1,0.4,2.7,1,3.7c0.6,1.1,2.7,1.7,4.2,2.2C256.8,544.5,256.1,544.8,255.3,545.2z"/>
		<path d="M258.7,588.5c-0.9-0.4-1.8-0.8-2.7-1.1c-1.1-0.5-1.7-0.5-2-1.5c-0.6-1.9-1.1-3.9-1.6-5.9c0,0,0,0,0-0.1c0,0,0,0,0-0.1
			c-0.1-0.1-0.2-0.2-0.3-0.2c-0.1,0-0.3,0-0.3,0.2c0,0,0,0.1,0,0.1c0,0,0,0,0,0c0,0,0,0,0,0c0,0,0,0,0,0c-0.5,1.9-1,3.9-1.5,5.9
			c-0.5,1.5-3.3,2.1-4.7,2.7c-0.3,0.1-0.5,0.6-0.1,0.7c0.9,0.4,1.8,0.8,2.7,1.2c0.5,0.2,1.1,0.5,1.6,0.7c0.1,0.1,0.2,0.1,0.2,0.1
			c0,0,0,0,0,0.1c1,1.7,1.2,4.2,1.8,6.1c0.1,0.4,0.7,0.4,0.8,0c0.6-1.9,0.9-4.4,1.8-6.1c0,0,0,0,0-0.1c0,0,0.1,0,0.1-0.1
			c0.5-0.3,1.2-0.5,1.7-0.8c0.9-0.4,1.8-0.8,2.7-1.2C259.2,589,259,588.6,258.7,588.5z M255.3,589.9c-0.6,0.3-1.5,0.5-1.9,1
			c-0.6,0.8-0.7,2.4-1,3.4c-0.2,0.6-0.3,1.1-0.5,1.7c-0.2-0.6-0.3-1.1-0.5-1.7c-0.3-0.9-0.4-2.6-1-3.4c-0.4-0.6-1.2-0.7-1.9-1
			c-0.7-0.3-1.5-0.7-2.2-1c1.5-0.5,3.5-1.1,4.2-2.2c0.6-1,0.7-2.7,1-3.7c0.1-0.5,0.2-0.9,0.4-1.4c0.1,0.5,0.3,0.9,0.4,1.4
			c0.3,1.1,0.4,2.7,1,3.7c0.6,1.1,2.7,1.7,4.2,2.2C256.8,589.2,256.1,589.6,255.3,589.9z"/>
		<path d="M258.7,454.6c-0.9-0.4-1.8-0.8-2.7-1.1c-1.1-0.5-1.7-0.5-2-1.5c-0.6-1.9-1.1-3.9-1.6-5.9c0,0,0,0,0-0.1c0,0,0,0,0-0.1
			c-0.1-0.1-0.2-0.2-0.3-0.2c-0.1,0-0.3,0-0.3,0.2c0,0,0,0.1,0,0.1c0,0,0,0,0,0c0,0,0,0,0,0c0,0,0,0,0,0c-0.5,1.9-1,3.9-1.5,5.9
			c-0.5,1.5-3.3,2.1-4.7,2.7c-0.3,0.1-0.5,0.6-0.1,0.7c0.9,0.4,1.8,0.8,2.7,1.2c0.5,0.2,1.1,0.5,1.6,0.7c0.1,0.1,0.2,0.1,0.2,0.1
			c0,0,0,0,0,0.1c1,1.7,1.2,4.2,1.8,6.1c0.1,0.4,0.7,0.4,0.8,0c0.6-1.9,0.9-4.4,1.8-6.1c0,0,0,0,0-0.1c0,0,0.1,0,0.1-0.1
			c0.5-0.3,1.2-0.5,1.7-0.8c0.9-0.4,1.8-0.8,2.7-1.2C259.2,455.2,259,454.7,258.7,454.6z M255.3,456c-0.6,0.3-1.5,0.5-1.9,1
			c-0.6,0.8-0.7,2.4-1,3.4c-0.2,0.6-0.3,1.1-0.5,1.7c-0.2-0.6-0.3-1.1-0.5-1.7c-0.3-0.9-0.4-2.6-1-3.4c-0.4-0.6-1.2-0.7-1.9-1
			c-0.7-0.3-1.5-0.7-2.2-1c1.5-0.5,3.5-1.1,4.2-2.2c0.6-1,0.7-2.7,1-3.7c0.1-0.5,0.2-0.9,0.4-1.4c0.1,0.5,0.3,0.9,0.4,1.4
			c0.3,1.1,0.4,2.7,1,3.7c0.6,1.1,2.7,1.7,4.2,2.2C256.8,455.4,256.1,455.7,255.3,456z"/>
		<path d="M258.7,499c-0.9-0.4-1.8-0.8-2.7-1.1c-1.1-0.5-1.7-0.5-2-1.5c-0.6-1.9-1.1-3.9-1.6-5.9c0,0,0,0,0-0.1c0,0,0,0,0-0.1
			c-0.1-0.1-0.2-0.2-0.3-0.2c-0.1,0-0.3,0-0.3,0.2c0,0,0,0.1,0,0.1c0,0,0,0,0,0c0,0,0,0,0,0c0,0,0,0,0,0c-0.5,1.9-1,3.9-1.5,5.9
			c-0.5,1.5-3.3,2.1-4.7,2.7c-0.3,0.1-0.5,0.6-0.1,0.7c0.9,0.4,1.8,0.8,2.7,1.2c0.5,0.2,1.1,0.5,1.6,0.7c0.1,0.1,0.2,0.1,0.2,0.1
			c0,0,0,0,0,0.1c1,1.7,1.2,4.2,1.8,6.1c0.1,0.4,0.7,0.4,0.8,0c0.6-1.9,0.9-4.4,1.8-6.1c0,0,0,0,0-0.1c0,0,0.1,0,0.1-0.1
			c0.5-0.3,1.2-0.5,1.7-0.8c0.9-0.4,1.8-0.8,2.7-1.2C259.2,499.6,259,499.1,258.7,499z M255.3,500.5c-0.6,0.3-1.5,0.5-1.9,1
			c-0.6,0.8-0.7,2.4-1,3.4c-0.2,0.6-0.3,1.1-0.5,1.7c-0.2-0.6-0.3-1.1-0.5-1.7c-0.3-0.9-0.4-2.6-1-3.4c-0.4-0.6-1.2-0.7-1.9-1
			c-0.7-0.3-1.5-0.7-2.2-1c1.5-0.5,3.5-1.1,4.2-2.2c0.6-1,0.7-2.7,1-3.7c0.1-0.5,0.2-0.9,0.4-1.4c0.1,0.5,0.3,0.9,0.4,1.4
			c0.3,1.1,0.4,2.7,1,3.7c0.6,1.1,2.7,1.7,4.2,2.2C256.8,499.8,256.1,500.1,255.3,500.5z"/>
		<path d="M149.3,228.6l-0.6,1.8l0.1,0.1c5.2,3.9,29.2,21.6,35.1,26l9.3,6.9c0.1,0.1,0.3,0.2,0.5,0.2c0.2,0,0.4-0.1,0.5-0.2
			c0.3-0.2,0.5-0.6,0.4-1L184.2,230l-1.5,1.1l9.4,29.1c-11.5-8.5-37.4-27.7-42.5-31.4L149.3,228.6z"/>
		<path d="M117.6,206.6c-0.1,0.4,0,0.8,0.4,1.1l0.7,0.5c9.2,6.8,17.9,13.2,26.8,19.8l0.2,0.2l0.7-1.7l-0.1-0.1
			c-5.9-4.3-12.1-8.9-18-13.3l-7.1-5.2h52.9l-0.1-0.3c0,0-0.1-0.2-0.1-0.4c-0.1-0.3-0.3-0.8-0.4-1l-0.1-0.2h-55
			C118,206,117.7,206.2,117.6,206.6z"/>
		<path d="M135.9,263.3c0.2,0.1,0.3,0.2,0.5,0.2c0.2,0,0.3-0.1,0.5-0.2l27.3-20.2l0.2-0.2l-0.2-0.2c0,0-0.8-0.7-1-0.9l-0.2-0.1
			l-24.9,18.4l16.7-51.7l-1.9,0l-17.4,53.8C135.4,262.7,135.5,263.1,135.9,263.3z"/>
		<path d="M165.5,173.1c-0.1,0-0.2-0.1-0.3-0.1c0,0,0,0-0.1,0c0,0-0.1,0-0.1,0c-0.1,0-0.2,0-0.3,0.1c-0.3,0.1-0.5,0.4-0.5,0.6
			l-10,31l0,0.3l0.3,0c0.4,0,0.9,0.1,1.4,0l0.1,0l9.1-28.2l16.3,50.4l1.5-1.2L166,173.8C165.9,173.4,165.8,173.2,165.5,173.1z"/>
		<path d="M177.6,206.3c0.2,0.4,0.3,0.9,0.5,1.4l0.1,0.2h30.8l-43,31.8l-0.2,0.2l1.5,1.1l44.9-33.2c0.3-0.3,0.5-0.7,0.4-1.1
			c-0.1-0.4-0.4-0.6-0.8-0.6h-34.2L177.6,206.3z"/>
		<path d="M116.6,201.7l0.2,0.1l0.1-0.2c0.9-2.2,2-4.3,3.2-6.2c8.5-14.1,23.6-23.5,40.2-25.2l0.2,0l0-0.2c-0.1-0.4-0.1-0.9-0.1-1.3
			l0-0.3l-0.3,0c-14.6,1.4-28.1,8.6-37.2,19.7c-3.1,3.9-5.7,8.2-7.7,12.8l-0.1,0.3l0.3,0C115.8,201.4,116.1,201.5,116.6,201.7z"/>
		<path d="M130.4,264.1l0.2,0.2l0.1-0.2c0.2-0.3,0.6-0.6,1-0.8l0.3-0.2l-0.3-0.2c-2.5-2.1-4.9-4.4-6.9-6.8
			c-10.6-12.7-14.6-30-10.6-46.3l0.1-0.3h-0.3c-0.4,0-0.8-0.1-1.2-0.2l-0.2-0.1l-0.1,0.2c-3.4,14.1-1.1,29.1,6.3,41.3
			C121.8,255.8,125.7,260.3,130.4,264.1z"/>
		<path d="M165.3,276.7c3.5,0,6.9-0.3,10.3-1c5.7-1.1,11.3-3.2,16.4-6.2l0.2-0.1l-0.1-0.2c-0.3-0.4-0.5-0.7-0.6-1.1l-0.1-0.2
			l-0.2,0.1c-2.8,1.6-5.6,2.9-8.6,4c-14.6,5.1-31.3,3.4-44.7-4.7l-0.3-0.2l-0.1,0.3c-0.1,0.5-0.3,0.9-0.5,1.2l-0.1,0.2l0.2,0.1
			C145.8,274,155.5,276.7,165.3,276.7z"/>
		<path d="M217.7,209.6l-0.1-0.2l-0.2,0c-0.5,0.1-0.9,0.2-1.3,0.3l-0.2,0l0.1,0.2c1,4.1,1.6,8.2,1.6,12.4
			c-0.1,15.6-7.1,30.3-19,40.4l-0.2,0.2l0.2,0.2c0.3,0.2,0.7,0.5,1,0.8l0.1,0.1l0.2-0.1c12.3-10.4,19.4-25.6,19.6-41.6
			C219.3,218.2,218.8,213.8,217.7,209.6z"/>
		<path d="M170.2,170l0,0.2l0.2,0c1.8,0.2,3.5,0.4,5.2,0.8c16.5,3.4,30.6,14.8,37.5,30.6l0.1,0.2l0.2,0c0.2-0.1,0.4-0.1,0.7,0l0.2,0
			l0.1-0.1c0.1-0.1,0.1-0.1,0.2-0.2c0.1-0.1,0.1-0.1,0.2-0.2l0.2-0.1l-0.1-0.2c-5.9-13.7-17.2-24.4-30.9-29.5
			c-4.3-1.6-8.9-2.6-13.6-3.1l-0.3,0l0.1,0.3C170.1,169.1,170.2,169.6,170.2,170z"/>
		<path d="M164.1,169.8c0.4,0.4,0.6,2.2,0.9,2.2s0.5-1.8,0.9-2.2c0.4-0.4,1.6-0.6,1.6-0.8c0-0.2-1.2-0.5-1.6-0.9
			c-0.4-0.4-0.6-2.2-0.9-2.2s-0.5,1.7-0.9,2.2c-0.5,0.4-1.6,0.5-1.6,0.8C162.5,169.3,163.7,169.4,164.1,169.8z"/>
		<path d="M112.8,206c0.3,0.6,0,1.7,0.3,1.8c0.3,0.1,0.8-1,1.3-1.2c0.6-0.3,2.3,0.1,2.4-0.1c0.1-0.3-1.5-1.1-1.8-1.6
			c-0.2-0.5,0-1.7-0.3-1.8c-0.2-0.1-0.8,1-1.3,1.2c-0.5,0.2-2.3-0.1-2.4,0.1C111,204.7,112.6,205.4,112.8,206z"/>
		<path d="M131.6,264.8c-0.1,0.2,0.7,1.1,0.8,1.6c0.1,0.5-0.8,2.1-0.6,2.3c0.2,0.2,1.4-1.1,2-1.2c0.6-0.1,1.6,0.5,1.8,0.3
			c0.2-0.2-0.7-1-0.8-1.6c-0.1-0.6,0.8-2.1,0.6-2.3c-0.2-0.2-1.5,1.1-2,1.2S131.7,264.7,131.6,264.8z"/>
		<path d="M198.4,265.1c-0.2-0.2-1.2,0.3-1.8,0.2c-0.6-0.1-1.8-1.4-2-1.3c-0.2,0.2,0.6,1.8,0.5,2.3c-0.1,0.6-1,1.4-0.8,1.6
			c0.1,0.2,1.3-0.3,1.8-0.2c0.5,0.1,1.8,1.4,2,1.3c0.2-0.2-0.6-1.7-0.5-2.3C197.7,266,198.6,265.3,198.4,265.1z"/>
		<path d="M213.2,206.2c0.1,0.3,1.9,0,2.4,0.2c0.5,0.3,1,1.4,1.3,1.3c0.2-0.1,0.1-1.3,0.3-1.8c0.2-0.5,1.9-1.2,1.8-1.5
			c-0.1-0.3-1.8,0.1-2.4-0.2c-0.6-0.3-1-1.4-1.3-1.3c-0.3,0.1,0,1.2-0.3,1.8C214.7,205.2,213.1,205.9,213.2,206.2z"/>
		<path d="M147.3,202.6c1.4,0,2.6-1.1,2.6-2.6l0,0l0,0c-0.1-1.5-1.2-2.6-2.6-2.6c-1.4,0-2.6,1.2-2.6,2.6c0,1.4,1.1,2.6,2.5,2.6
			C147.2,202.6,147.2,202.6,147.3,202.6z M146.3,200c0-0.6,0.5-0.9,0.9-0.9c0,0,0,0,0,0c0.5,0,1,0.3,1,0.9c0,0.7-0.5,0.9-1,0.9
			c0,0,0,0,0,0C146.7,200.9,146.3,200.6,146.3,200z"/>
		<path d="M181.7,202.6c1.4,0,2.6-1.1,2.6-2.6l0,0l0,0c-0.1-1.5-1.2-2.6-2.6-2.6c-1.4,0-2.6,1.2-2.6,2.6c0,1.4,1.1,2.6,2.5,2.6
			C181.6,202.6,181.7,202.6,181.7,202.6z M180.7,200c0-0.6,0.5-0.9,0.9-0.9c0,0,0,0,0,0c0.5,0,1,0.3,1,0.9c0,0.7-0.5,0.9-1,0.9
			c0,0,0,0,0,0C181.2,200.9,180.7,200.6,180.7,200z"/>
		<path d="M162.4,250.9c0,1.4,1.1,2.6,2.5,2.6c0,0,0.1,0,0.1,0c1.4,0,2.6-1.1,2.6-2.6c-0.1-1.5-1.2-2.6-2.6-2.6
			C163.6,248.3,162.4,249.5,162.4,250.9z M166,250.9c0,0.7-0.6,0.9-1,0.9c-0.5,0-0.9-0.3-0.9-0.9c0-0.6,0.5-0.9,0.9-0.9c0,0,0,0,0,0
			C165.5,250,166,250.3,166,250.9z"/>
		<path d="M140.4,233.3c1.4,0,2.6-1.1,2.6-2.6c-0.1-1.5-1.2-2.6-2.6-2.6c-1.4,0-2.6,1.2-2.6,2.6c0,1.4,1.1,2.6,2.5,2.6
			C140.3,233.3,140.3,233.3,140.4,233.3z M139.4,230.7c0-0.6,0.5-0.9,0.9-0.9c0,0,0,0,0,0c0.5,0,1,0.3,1,0.9c0,0.7-0.6,1-1,0.9
			C139.8,231.6,139.4,231.3,139.4,230.7z"/>
		<path d="M190,233.3c1.4,0,2.6-1.1,2.6-2.6c-0.1-1.5-1.2-2.6-2.6-2.6c-1.4,0-2.6,1.2-2.6,2.6c0,1.4,1.1,2.6,2.5,2.6
			C189.9,233.3,189.9,233.3,190,233.3z M189,230.7c0-0.6,0.5-0.9,0.9-0.9c0,0,0,0,0,0c0.5,0,1,0.3,1,0.9c0,0.7-0.6,1-1,0.9
			C189.5,231.6,189,231.3,189,230.7z"/>
		<polygon points="161.6,224.8 158.1,230.5 163.7,226.9 165.2,236.3 166.6,226.9 172.3,230.5 168.7,224.8 178.1,223.3 168.7,221.9 
			172.3,216.2 166.6,219.8 165.2,210.4 163.7,219.8 158.1,216.2 161.6,221.9 152.2,223.3 		"/>
		<path d="M323,228.6l-0.6,1.8l0.1,0.1c5.2,3.9,29.2,21.6,35.1,26l9.3,6.9c0.1,0.1,0.3,0.2,0.5,0.2c0.2,0,0.4-0.1,0.5-0.2
			c0.3-0.2,0.5-0.6,0.4-1L357.9,230l-1.5,1.1l9.4,29.1c-11.5-8.5-37.4-27.7-42.5-31.4L323,228.6z"/>
		<path d="M291.3,206.6c-0.1,0.4,0,0.8,0.4,1.1l0.7,0.5c9.2,6.8,17.9,13.2,26.8,19.8l0.2,0.2l0.7-1.7l-0.1-0.1
			c-5.9-4.3-12.1-8.9-18-13.3l-7.1-5.2h52.9l-0.1-0.3c0,0-0.1-0.2-0.1-0.4c-0.1-0.3-0.3-0.8-0.4-1l-0.1-0.2h-55
			C291.8,206,291.4,206.2,291.3,206.6z"/>
		<path d="M309.6,263.3c0.2,0.1,0.3,0.2,0.5,0.2c0.2,0,0.3-0.1,0.5-0.2l27.3-20.2l0.2-0.2l-0.2-0.2c0,0-0.8-0.7-1-0.9l-0.2-0.1
			l-24.9,18.4l16.7-51.7l-1.9,0l-17.4,53.8C309.1,262.7,309.2,263.1,309.6,263.3z"/>
		<path d="M339.2,173.1c-0.1,0-0.2-0.1-0.3-0.1c0,0,0,0-0.1,0c0,0-0.1,0-0.1,0c-0.1,0-0.2,0-0.3,0.1c-0.3,0.1-0.5,0.4-0.5,0.6
			l-10,31l0,0.3l0.3,0c0.4,0,0.9,0.1,1.4,0l0.1,0l9.1-28.2l16.3,50.4l1.5-1.2l-16.9-52.2C339.7,173.4,339.5,173.2,339.2,173.1z"/>
		<path d="M351.4,206.3c0.2,0.4,0.3,0.9,0.5,1.4l0.1,0.2h30.8l-43,31.8l-0.2,0.2l1.5,1.1l44.9-33.2c0.3-0.3,0.5-0.7,0.4-1.1
			c-0.1-0.4-0.4-0.6-0.8-0.6h-34.2L351.4,206.3z"/>
		<path d="M290.3,201.7l0.2,0.1l0.1-0.2c0.9-2.2,2-4.3,3.2-6.2c8.5-14.1,23.6-23.5,40.2-25.2l0.2,0l0-0.2c-0.1-0.4-0.1-0.9-0.1-1.3
			l0-0.3l-0.3,0c-14.6,1.4-28.1,8.6-37.2,19.7c-3.1,3.9-5.7,8.2-7.7,12.8l-0.1,0.3l0.3,0C289.5,201.4,289.9,201.5,290.3,201.7z"/>
		<path d="M287.9,209.5h-0.3c-0.4,0-0.8-0.1-1.2-0.2l-0.2-0.1l-0.1,0.2c-3.4,14.1-1.1,29.1,6.3,41.3c3.1,5.1,7,9.6,11.7,13.4
			l0.2,0.2l0.1-0.2c0.2-0.3,0.6-0.6,1-0.8l0.3-0.2l-0.3-0.2c-2.5-2.1-4.9-4.4-6.9-6.8c-10.6-12.7-14.6-30-10.6-46.3L287.9,209.5z"/>
		<path d="M365.7,269.5l0.2-0.1l-0.1-0.2c-0.3-0.4-0.5-0.7-0.6-1.1l-0.1-0.2l-0.2,0.1c-2.8,1.6-5.6,2.9-8.6,4
			c-14.6,5.1-31.3,3.4-44.7-4.7l-0.3-0.2l-0.1,0.3c-0.1,0.5-0.3,0.9-0.5,1.2l-0.1,0.2l0.2,0.1c8.6,5.2,18.4,7.8,28.2,7.8
			c3.5,0,6.9-0.3,10.3-1C355.1,274.6,360.6,272.5,365.7,269.5z"/>
		<path d="M391.4,209.6l-0.1-0.2l-0.2,0c-0.5,0.1-0.9,0.2-1.3,0.3l-0.2,0l0.1,0.2c1,4.1,1.6,8.2,1.6,12.4
			c-0.1,15.6-7.1,30.3-19,40.4L372,263l0.2,0.2c0.3,0.2,0.7,0.5,1,0.8l0.1,0.1l0.2-0.1c12.3-10.4,19.4-25.6,19.6-41.6
			C393.1,218.2,392.5,213.8,391.4,209.6z"/>
		<path d="M343.9,170l0,0.2l0.2,0c1.8,0.2,3.5,0.4,5.2,0.8c16.5,3.4,30.6,14.8,37.5,30.6l0.1,0.2l0.2,0c0.2-0.1,0.4-0.1,0.7,0l0.2,0
			l0.1-0.1c0.1-0.1,0.1-0.1,0.2-0.2c0.1-0.1,0.1-0.1,0.2-0.2l0.2-0.1l-0.1-0.2c-5.9-13.7-17.2-24.4-30.9-29.5
			c-4.3-1.6-8.9-2.6-13.6-3.1l-0.3,0l0.1,0.3C343.8,169.1,343.9,169.6,343.9,170z"/>
		<path d="M337.9,169.8c0.4,0.4,0.6,2.2,0.9,2.2s0.5-1.8,0.9-2.2c0.4-0.4,1.6-0.6,1.6-0.8c0-0.2-1.2-0.5-1.6-0.9s-0.6-2.2-0.9-2.2
			c-0.3,0-0.5,1.7-0.9,2.2c-0.5,0.4-1.6,0.5-1.6,0.8C336.3,169.3,337.4,169.4,337.9,169.8z"/>
		<path d="M284.8,204.4c-0.1,0.3,1.5,1,1.8,1.6s0,1.7,0.3,1.8c0.3,0.1,0.8-1,1.3-1.2c0.6-0.3,2.3,0.1,2.4-0.1
			c0.1-0.3-1.5-1.1-1.8-1.6c-0.2-0.5,0-1.7-0.3-1.8c-0.2-0.1-0.8,1-1.3,1.2C286.7,204.5,284.9,204.2,284.8,204.4z"/>
		<path d="M309.1,264c-0.2-0.2-1.5,1.1-2,1.2c-0.6,0.1-1.6-0.5-1.8-0.3c-0.1,0.2,0.7,1.1,0.8,1.6c0.1,0.5-0.8,2.1-0.6,2.3
			c0.2,0.2,1.4-1.1,2-1.2c0.6-0.1,1.6,0.5,1.8,0.3c0.2-0.2-0.7-1-0.8-1.6C308.4,265.6,309.3,264.1,309.1,264z"/>
		<path d="M372.1,265.1c-0.2-0.2-1.2,0.3-1.8,0.2c-0.6-0.1-1.8-1.4-2-1.3c-0.2,0.2,0.6,1.8,0.5,2.3c-0.1,0.6-1,1.4-0.8,1.6
			c0.1,0.2,1.3-0.3,1.8-0.2c0.5,0.1,1.8,1.4,2,1.3c0.2-0.2-0.6-1.7-0.5-2.3C371.4,266,372.3,265.3,372.1,265.1z"/>
		<path d="M386.9,206.2c0.1,0.3,1.9,0,2.4,0.2c0.5,0.3,1,1.4,1.3,1.3c0.2-0.1,0.1-1.3,0.3-1.8c0.2-0.5,1.9-1.2,1.8-1.5
			c-0.1-0.3-1.8,0.1-2.4-0.2c-0.6-0.3-1-1.4-1.3-1.3c-0.3,0.1,0,1.2-0.3,1.8C388.4,205.2,386.8,205.9,386.9,206.2z"/>
		<path d="M321,202.6c1.4,0,2.6-1.1,2.6-2.6l0,0l0,0c-0.1-1.5-1.2-2.6-2.6-2.6c-1.4,0-2.6,1.2-2.6,2.6c0,1.4,1.1,2.6,2.5,2.6
			C320.9,202.6,321,202.6,321,202.6z M320,200c0-0.6,0.5-0.9,0.9-0.9c0,0,0,0,0,0c0.5,0,1,0.3,1,0.9c0,0.7-0.5,0.9-1,0.9
			c0,0,0,0,0,0C320.5,200.9,320,200.6,320,200z"/>
		<path d="M355.4,202.6c1.4,0,2.6-1.1,2.6-2.6l0,0l0,0c-0.1-1.5-1.2-2.6-2.6-2.6c-1.4,0-2.6,1.2-2.6,2.6c0,1.4,1.1,2.6,2.5,2.6
			C355.4,202.6,355.4,202.6,355.4,202.6z M354.4,200c0-0.6,0.5-0.9,0.9-0.9c0,0,0,0,0,0c0.5,0,1,0.3,1,0.9c0,0.7-0.5,0.9-1,0.9
			c0,0,0,0,0,0C354.9,200.9,354.4,200.6,354.4,200z"/>
		<path d="M338.8,253.5c1.4,0,2.6-1.1,2.6-2.6c-0.1-1.5-1.2-2.6-2.6-2.6c-1.4,0-2.6,1.2-2.6,2.6c0,1.4,1.1,2.6,2.5,2.6
			C338.7,253.5,338.7,253.5,338.8,253.5z M337.8,250.9c0-0.6,0.5-0.9,0.9-0.9c0,0,0,0,0,0c0.5,0,1,0.3,1,0.9c0,0.7-0.6,0.9-1,0.9
			C338.3,251.8,337.8,251.5,337.8,250.9z"/>
		<path d="M314.1,233.3c1.4,0,2.6-1.1,2.6-2.6c-0.1-1.5-1.2-2.6-2.6-2.6c-1.4,0-2.6,1.2-2.6,2.6c0,1.4,1.1,2.6,2.5,2.6
			C314,233.3,314,233.3,314.1,233.3z M313.1,230.7c0-0.6,0.5-0.9,0.9-0.9c0,0,0,0,0,0c0.5,0,1,0.3,1,0.9c0,0.7-0.6,1-1,0.9
			C313.6,231.6,313.1,231.3,313.1,230.7z"/>
		<path d="M363.7,233.3c1.4,0,2.6-1.1,2.6-2.6c-0.1-1.5-1.2-2.6-2.6-2.6c-1.4,0-2.6,1.2-2.6,2.6c0,1.4,1.1,2.6,2.5,2.6
			C363.6,233.3,363.7,233.3,363.7,233.3z M362.7,230.7c0-0.6,0.5-0.9,0.9-0.9c0,0,0,0,0,0c0.5,0,1,0.3,1,0.9c0,0.7-0.6,1-1,0.9
			C363.2,231.6,362.7,231.3,362.7,230.7z"/>
		<polygon points="335.3,224.8 331.8,230.5 337.4,226.9 338.9,236.3 340.4,226.9 346,230.5 342.4,224.8 351.9,223.3 342.4,221.9 
			346,216.2 340.4,219.8 338.9,210.4 337.4,219.8 331.8,216.2 335.3,221.9 325.9,223.3 		"/>
		<path d="M149.3,350.2l-0.6,1.8l0.1,0.1c5.2,3.9,29.2,21.6,35.1,26l9.3,6.9c0.1,0.1,0.3,0.2,0.5,0.2c0.2,0,0.4-0.1,0.5-0.2
			c0.3-0.2,0.5-0.6,0.4-1l-10.5-32.4l-1.5,1.1l9.4,29.1c-11.5-8.5-37.4-27.7-42.5-31.4L149.3,350.2z"/>
		<path d="M118.7,329.8c9.2,6.8,17.9,13.2,26.8,19.8l0.2,0.2l0.7-1.7l-0.1-0.1c-5.9-4.3-12.1-8.9-18-13.3l-7.1-5.2h52.9l-0.1-0.3
			c0,0-0.1-0.2-0.1-0.4c-0.1-0.3-0.3-0.8-0.4-1l-0.1-0.2h-55c-0.4,0-0.7,0.2-0.8,0.6c-0.1,0.4,0,0.8,0.4,1.1L118.7,329.8z"/>
		<path d="M135.9,385c0.2,0.1,0.3,0.2,0.5,0.2c0.2,0,0.3-0.1,0.5-0.2l27.3-20.2l0.2-0.2l-0.2-0.2c0,0-0.8-0.7-1-0.9l-0.2-0.1
			l-24.9,18.4l16.7-51.7l-1.9,0L135.5,384C135.4,384.3,135.5,384.7,135.9,385z"/>
		<path d="M154.1,326.6l0.3,0c0.4,0,0.9,0.1,1.4,0l0.1,0l9.1-28.2l16.3,50.4l1.5-1.2L166,295.4c0-0.3-0.2-0.6-0.5-0.7
			c-0.1,0-0.2-0.1-0.3-0.1c0,0,0,0-0.1,0c0,0-0.1,0-0.1,0c-0.1,0-0.2,0-0.3,0.1c-0.3,0.1-0.5,0.4-0.5,0.6l-10,31L154.1,326.6z"/>
		<path d="M212.5,328.2c-0.1-0.4-0.4-0.6-0.8-0.6h-34.2l0.1,0.3c0.2,0.4,0.3,0.9,0.5,1.4l0.1,0.2h30.8l-43,31.8l-0.2,0.2l1.5,1.1
			l44.9-33.2C212.5,329,212.6,328.6,212.5,328.2z"/>
		<path d="M116.9,323.2c0.9-2.2,2-4.3,3.2-6.2c8.5-14.1,23.6-23.5,40.2-25.2l0.2,0l0-0.2c-0.1-0.4-0.1-0.9-0.1-1.3l0-0.3l-0.3,0
			c-14.6,1.4-28.1,8.6-37.2,19.7c-3.1,3.9-5.7,8.2-7.7,12.8l-0.1,0.3l0.3,0c0.4,0,0.7,0.2,1.2,0.4l0.2,0.1L116.9,323.2z"/>
		<path d="M130.4,385.7l0.2,0.2l0.1-0.2c0.2-0.3,0.6-0.6,1-0.8l0.3-0.2l-0.3-0.2c-2.5-2.1-4.9-4.4-6.9-6.8
			c-10.6-12.7-14.6-30-10.6-46.3l0.1-0.3h-0.3c-0.4,0-0.8-0.1-1.2-0.2l-0.2-0.1l-0.1,0.2c-3.4,14.1-1.1,29.1,6.3,41.3
			C121.8,377.4,125.7,381.9,130.4,385.7z"/>
		<path d="M165.3,398.3c3.5,0,6.9-0.3,10.3-1c5.7-1.1,11.3-3.2,16.4-6.2l0.2-0.1l-0.1-0.2c-0.3-0.4-0.5-0.7-0.6-1.1l-0.1-0.2
			l-0.2,0.1c-2.8,1.6-5.6,2.9-8.6,4c-14.6,5.1-31.3,3.4-44.7-4.7l-0.3-0.2l-0.1,0.3c-0.1,0.5-0.3,0.9-0.5,1.2l-0.1,0.2l0.2,0.1
			C145.8,395.7,155.5,398.3,165.3,398.3z"/>
		<path d="M217.7,331.2l-0.1-0.2l-0.2,0c-0.5,0.1-0.9,0.2-1.3,0.3l-0.2,0l0.1,0.2c1,4.1,1.6,8.2,1.6,12.4
			c-0.1,15.6-7.1,30.3-19,40.4l-0.2,0.2l0.2,0.2c0.3,0.2,0.7,0.5,1,0.8l0.1,0.1l0.2-0.1c12.3-10.4,19.4-25.6,19.6-41.6
			C219.3,339.8,218.8,335.4,217.7,331.2z"/>
		<path d="M183.9,293.1c-4.3-1.6-8.9-2.6-13.6-3.1l-0.3,0l0.1,0.3c0.1,0.4,0.2,0.9,0.2,1.3l0,0.2l0.2,0c1.8,0.2,3.5,0.4,5.2,0.8
			c16.5,3.4,30.6,14.8,37.5,30.6l0.1,0.2l0.2,0c0.2-0.1,0.4-0.1,0.7,0l0.2,0l0.1-0.1c0.1-0.1,0.1-0.1,0.2-0.2
			c0.1-0.1,0.1-0.1,0.2-0.2l0.2-0.1l-0.1-0.2C208.9,308.9,197.6,298.2,183.9,293.1z"/>
		<path d="M164.1,291.5c0.4,0.4,0.6,2.2,0.9,2.2c0.3,0,0.5-1.8,0.9-2.2c0.4-0.4,1.6-0.6,1.6-0.8c0-0.2-1.2-0.5-1.6-0.9
			c-0.4-0.4-0.6-2.2-0.9-2.2c-0.3,0-0.5,1.7-0.9,2.2c-0.5,0.4-1.6,0.5-1.6,0.8S163.7,291,164.1,291.5z"/>
		<path d="M113.1,329.4c0.3,0.1,0.8-1,1.3-1.2c0.6-0.3,2.3,0.1,2.4-0.1c0.1-0.3-1.5-1.1-1.8-1.6c-0.2-0.5,0-1.7-0.3-1.8
			c-0.2-0.1-0.8,1-1.3,1.2c-0.5,0.2-2.3-0.1-2.4,0.1c-0.1,0.3,1.5,1,1.8,1.6C113.1,328.2,112.8,329.3,113.1,329.4z"/>
		<path d="M131.6,386.5c-0.1,0.2,0.7,1.1,0.8,1.6c0.1,0.5-0.8,2.1-0.6,2.3c0.2,0.2,1.4-1.1,2-1.2c0.6-0.1,1.6,0.5,1.8,0.3
			c0.2-0.2-0.7-1-0.8-1.6c-0.1-0.6,0.8-2.1,0.6-2.3c-0.2-0.2-1.5,1.1-2,1.2C132.8,386.8,131.7,386.3,131.6,386.5z"/>
		<path d="M198.4,386.7c-0.2-0.2-1.2,0.3-1.8,0.2c-0.6-0.1-1.8-1.4-2-1.3c-0.2,0.2,0.6,1.8,0.5,2.3c-0.1,0.6-1,1.4-0.8,1.6
			c0.1,0.2,1.3-0.3,1.8-0.2c0.5,0.1,1.8,1.4,2,1.3c0.2-0.2-0.6-1.7-0.5-2.3C197.7,387.6,198.6,386.9,198.4,386.7z"/>
		<path d="M213.2,327.8c0.1,0.3,1.9,0,2.4,0.2c0.5,0.3,1,1.4,1.3,1.3c0.2-0.1,0.1-1.3,0.3-1.8c0.2-0.5,1.9-1.2,1.8-1.5
			c-0.1-0.3-1.8,0.1-2.4-0.2c-0.6-0.3-1-1.4-1.3-1.3c-0.3,0.1,0,1.2-0.3,1.8C214.7,326.8,213.1,327.5,213.2,327.8z"/>
		<path d="M147.3,319c-1.4,0-2.6,1.2-2.6,2.6c0,1.4,1.1,2.6,2.5,2.6c0,0,0.1,0,0.1,0c1.4,0,2.6-1.1,2.6-2.6l0,0l0,0
			C149.8,320.1,148.7,319,147.3,319z M147.2,322.6C147.2,322.6,147.2,322.6,147.2,322.6c-0.5,0-0.9-0.3-0.9-0.9
			c0-0.6,0.5-0.9,0.9-0.9c0,0,0,0,0,0c0.5,0,1,0.3,1,0.9C148.2,322.3,147.7,322.6,147.2,322.6z"/>
		<path d="M181.7,324.3c1.4,0,2.6-1.1,2.6-2.6l0,0l0,0c-0.1-1.5-1.2-2.6-2.6-2.6c-1.4,0-2.6,1.2-2.6,2.6c0,1.4,1.1,2.6,2.5,2.6
			C181.6,324.3,181.7,324.3,181.7,324.3z M180.7,321.6c0-0.6,0.5-0.9,0.9-0.9c0,0,0,0,0,0c0.5,0,1,0.3,1,0.9c0,0.7-0.5,0.9-1,0.9
			c0,0,0,0,0,0C181.2,322.5,180.7,322.3,180.7,321.6z"/>
		<path d="M162.4,372.5c0,1.4,1.1,2.6,2.5,2.6c0,0,0.1,0,0.1,0c1.4,0,2.6-1.1,2.6-2.6c-0.1-1.5-1.2-2.6-2.6-2.6
			C163.6,369.9,162.4,371.1,162.4,372.5z M166,372.5c0,0.7-0.6,0.9-1,0.9c-0.5,0-0.9-0.3-0.9-0.9c0-0.6,0.5-0.9,0.9-0.9c0,0,0,0,0,0
			C165.5,371.6,166,371.9,166,372.5z"/>
		<path d="M140.4,354.9c1.4,0,2.6-1.1,2.6-2.6c-0.1-1.5-1.2-2.6-2.6-2.6c-1.4,0-2.6,1.2-2.6,2.6c0,1.4,1.1,2.6,2.5,2.6
			C140.3,354.9,140.3,354.9,140.4,354.9z M139.4,352.3c0-0.6,0.5-0.9,0.9-0.9c0,0,0,0,0,0c0.5,0,1,0.3,1,0.9c0,0.7-0.6,1-1,0.9
			C139.8,353.2,139.4,352.9,139.4,352.3z"/>
		<path d="M190,354.9c1.4,0,2.6-1.1,2.6-2.6c-0.1-1.5-1.2-2.6-2.6-2.6c-1.4,0-2.6,1.2-2.6,2.6c0,1.4,1.1,2.6,2.5,2.6
			C189.9,354.9,189.9,354.9,190,354.9z M189,352.3c0-0.6,0.5-0.9,0.9-0.9c0,0,0,0,0,0c0.5,0,1,0.3,1,0.9c0,0.7-0.6,1-1,0.9
			C189.5,353.2,189,352.9,189,352.3z"/>
		<polygon points="161.6,346.4 158.1,352.1 163.7,348.5 165.2,357.9 166.6,348.5 172.3,352.1 168.7,346.4 178.1,345 168.7,343.5 
			172.3,337.8 166.6,341.4 165.2,332 163.7,341.4 158.1,337.8 161.6,343.5 152.2,345 		"/>
		<path d="M323,350.2l-0.6,1.8l0.1,0.1c5.2,3.9,29.2,21.6,35.1,26l9.3,6.9c0.1,0.1,0.3,0.2,0.5,0.2c0.2,0,0.4-0.1,0.5-0.2
			c0.3-0.2,0.5-0.6,0.4-1l-10.5-32.4l-1.5,1.1l9.4,29.1c-11.5-8.5-37.4-27.7-42.5-31.4L323,350.2z"/>
		<path d="M292.4,329.8c9.2,6.8,17.9,13.2,26.8,19.8l0.2,0.2l0.7-1.7l-0.1-0.1c-5.9-4.3-12.1-8.9-18-13.3l-7.1-5.2h52.9l-0.1-0.3
			c0,0-0.1-0.2-0.1-0.4c-0.1-0.3-0.3-0.8-0.4-1l-0.1-0.2h-55c-0.4,0-0.7,0.2-0.8,0.6c-0.1,0.4,0,0.8,0.4,1.1L292.4,329.8z"/>
		<path d="M309.6,385c0.2,0.1,0.3,0.2,0.5,0.2c0.2,0,0.3-0.1,0.5-0.2l27.3-20.2l0.2-0.2l-0.2-0.2c0,0-0.8-0.7-1-0.9l-0.2-0.1
			l-24.9,18.4l16.7-51.7l-1.9,0L309.2,384C309.1,384.3,309.2,384.7,309.6,385z"/>
		<path d="M339.2,294.7c-0.1,0-0.2-0.1-0.3-0.1c0,0,0,0-0.1,0c0,0-0.1,0-0.1,0c-0.1,0-0.2,0-0.3,0.1c-0.3,0.1-0.5,0.4-0.5,0.6
			l-10,31l0,0.3l0.3,0c0.4,0,0.9,0.1,1.4,0l0.1,0l9.1-28.2l16.3,50.4l1.5-1.2l-16.9-52.2C339.7,295.1,339.5,294.8,339.2,294.7z"/>
		<path d="M386.2,328.2c-0.1-0.4-0.4-0.6-0.8-0.6h-34.2l0.1,0.3c0.2,0.4,0.3,0.9,0.5,1.4l0.1,0.2h30.8l-43,31.8l-0.2,0.2l1.5,1.1
			l44.9-33.2C386.2,329,386.4,328.6,386.2,328.2z"/>
		<path d="M290.6,323.2c0.9-2.2,2-4.3,3.2-6.2c8.5-14.1,23.6-23.5,40.2-25.2l0.2,0l0-0.2c-0.1-0.4-0.1-0.9-0.1-1.3l0-0.3l-0.3,0
			c-14.6,1.4-28.1,8.6-37.2,19.7c-3.1,3.9-5.7,8.2-7.7,12.8l-0.1,0.3l0.3,0c0.4,0,0.7,0.2,1.2,0.4l0.2,0.1L290.6,323.2z"/>
		<path d="M292.4,372.4c3.1,5,7,9.6,11.7,13.4l0.2,0.2l0.1-0.2c0.2-0.3,0.6-0.6,1-0.8l0.3-0.2l-0.3-0.2c-2.5-2.1-4.9-4.4-6.9-6.8
			c-10.6-12.7-14.6-30-10.6-46.3l0.1-0.3h-0.3c-0.4,0-0.8-0.1-1.2-0.2l-0.2-0.1l-0.1,0.2C282.7,345.2,285,360.3,292.4,372.4z"/>
		<path d="M365.7,391.1l0.2-0.1l-0.1-0.2c-0.3-0.4-0.5-0.7-0.6-1.1l-0.1-0.2l-0.2,0.1c-2.8,1.6-5.6,2.9-8.6,4
			c-14.6,5.1-31.3,3.4-44.7-4.7l-0.3-0.2l-0.1,0.3c-0.1,0.5-0.3,0.9-0.5,1.2l-0.1,0.2l0.2,0.1c8.6,5.2,18.4,7.8,28.2,7.8
			c3.5,0,6.9-0.3,10.3-1C355.1,396.2,360.6,394.1,365.7,391.1z"/>
		<path d="M391.4,331.2l-0.1-0.2l-0.2,0c-0.5,0.1-0.9,0.2-1.3,0.3l-0.2,0l0.1,0.2c1,4.1,1.6,8.2,1.6,12.4
			c-0.1,15.6-7.1,30.3-19,40.4l-0.2,0.2l0.2,0.2c0.3,0.2,0.7,0.5,1,0.8l0.1,0.1l0.2-0.1c12.3-10.4,19.4-25.6,19.6-41.6
			C393.1,339.8,392.5,335.4,391.4,331.2z"/>
		<path d="M357.6,293.1c-4.3-1.6-8.9-2.6-13.6-3.1l-0.3,0l0.1,0.3c0.1,0.4,0.2,0.9,0.2,1.3l0,0.2l0.2,0c1.8,0.2,3.5,0.4,5.2,0.8
			c16.5,3.4,30.6,14.8,37.5,30.6l0.1,0.2l0.2,0c0.2-0.1,0.4-0.1,0.7,0l0.2,0l0.1-0.1c0.1-0.1,0.1-0.1,0.2-0.2
			c0.1-0.1,0.1-0.1,0.2-0.2l0.2-0.1l-0.1-0.2C382.6,308.9,371.3,298.2,357.6,293.1z"/>
		<path d="M339.7,289.8c-0.4-0.4-0.6-2.2-0.9-2.2c-0.3,0-0.5,1.7-0.9,2.2c-0.5,0.4-1.6,0.5-1.6,0.8c0,0.3,1.2,0.4,1.6,0.9
			c0.4,0.4,0.6,2.2,0.9,2.2c0.3,0,0.5-1.8,0.9-2.2c0.4-0.4,1.6-0.6,1.6-0.8C341.3,290.5,340.1,290.2,339.7,289.8z"/>
		<path d="M286.8,329.4c0.3,0.1,0.8-1,1.3-1.2s2.3,0.1,2.4-0.1c0.1-0.3-1.5-1.1-1.8-1.6c-0.2-0.5,0-1.7-0.3-1.8
			c-0.2-0.1-0.8,1-1.3,1.2c-0.5,0.2-2.3-0.1-2.4,0.1c-0.1,0.3,1.5,1,1.8,1.6C286.9,328.2,286.6,329.3,286.8,329.4z"/>
		<path d="M305.3,386.5c-0.1,0.2,0.7,1.1,0.8,1.6c0.1,0.5-0.8,2.1-0.6,2.3c0.2,0.2,1.4-1.1,2-1.2c0.6-0.1,1.6,0.5,1.8,0.3
			c0.2-0.2-0.7-1-0.8-1.6c-0.1-0.6,0.8-2.1,0.6-2.3c-0.2-0.2-1.5,1.1-2,1.2C306.5,386.8,305.5,386.3,305.3,386.5z"/>
		<path d="M372.1,386.7c-0.2-0.2-1.2,0.3-1.8,0.2c-0.6-0.1-1.8-1.4-2-1.3c-0.2,0.2,0.6,1.8,0.5,2.3c-0.1,0.6-1,1.4-0.8,1.6
			c0.1,0.2,1.3-0.3,1.8-0.2c0.5,0.1,1.8,1.4,2,1.3c0.2-0.2-0.6-1.7-0.5-2.3C371.4,387.6,372.3,386.9,372.1,386.7z"/>
		<path d="M386.9,327.8c0.1,0.3,1.9,0,2.4,0.2c0.5,0.3,1,1.4,1.3,1.3c0.2-0.1,0.1-1.3,0.3-1.8c0.2-0.5,1.9-1.2,1.8-1.5
			c-0.1-0.3-1.8,0.1-2.4-0.2c-0.6-0.3-1-1.4-1.3-1.3c-0.3,0.1,0,1.2-0.3,1.8C388.4,326.8,386.8,327.5,386.9,327.8z"/>
		<path d="M321,319c-1.4,0-2.6,1.2-2.6,2.6c0,1.4,1.1,2.6,2.5,2.6c0,0,0.1,0,0.1,0c1.4,0,2.6-1.1,2.6-2.6l0,0l0,0
			C323.5,320.1,322.4,319,321,319z M321,322.6C320.9,322.6,320.9,322.6,321,322.6c-0.5,0-0.9-0.3-0.9-0.9c0-0.6,0.5-0.9,0.9-0.9
			c0,0,0,0,0,0c0.5,0,1,0.3,1,0.9C321.9,322.3,321.4,322.6,321,322.6z"/>
		<path d="M355.4,324.3c1.4,0,2.6-1.1,2.6-2.6l0,0l0,0c-0.1-1.5-1.2-2.6-2.6-2.6c-1.4,0-2.6,1.2-2.6,2.6c0,1.4,1.1,2.6,2.5,2.6
			C355.4,324.3,355.4,324.3,355.4,324.3z M354.4,321.6c0-0.6,0.5-0.9,0.9-0.9c0,0,0,0,0,0c0.5,0,1,0.3,1,0.9c0,0.7-0.5,0.9-1,0.9
			c0,0,0,0,0,0C354.9,322.5,354.4,322.3,354.4,321.6z"/>
		<path d="M336.1,372.5c0,1.4,1.1,2.6,2.5,2.6c0,0,0.1,0,0.1,0c1.4,0,2.6-1.1,2.6-2.6c-0.1-1.5-1.2-2.6-2.6-2.6
			C337.4,369.9,336.1,371.1,336.1,372.5z M338.7,371.6C338.7,371.6,338.7,371.6,338.7,371.6c0.5,0,1,0.3,1,0.9c0,0.7-0.6,0.9-1,0.9
			c-0.5,0-0.9-0.3-0.9-0.9C337.8,371.9,338.3,371.6,338.7,371.6z"/>
		<path d="M314.1,354.9c1.4,0,2.6-1.1,2.6-2.6c-0.1-1.5-1.2-2.6-2.6-2.6c-1.4,0-2.6,1.2-2.6,2.6c0,1.4,1.1,2.6,2.5,2.6
			C314,354.9,314,354.9,314.1,354.9z M313.1,352.3c0-0.6,0.5-0.9,0.9-0.9c0,0,0,0,0,0c0.5,0,1,0.3,1,0.9c0,0.7-0.6,1-1,0.9
			C313.6,353.2,313.1,352.9,313.1,352.3z"/>
		<path d="M363.7,354.9c1.4,0,2.6-1.1,2.6-2.6c-0.1-1.5-1.2-2.6-2.6-2.6c-1.4,0-2.6,1.2-2.6,2.6c0,1.4,1.1,2.6,2.5,2.6
			C363.6,354.9,363.7,354.9,363.7,354.9z M362.7,352.3c0-0.6,0.5-0.9,0.9-0.9c0,0,0,0,0,0c0.5,0,1,0.3,1,0.9c0,0.7-0.6,1-1,0.9
			C363.2,353.2,362.7,352.9,362.7,352.3z"/>
		<polygon points="342.4,343.5 346,337.8 340.4,341.4 338.9,332 337.4,341.4 331.8,337.8 335.3,343.5 325.9,345 335.3,346.4 
			331.8,352.1 337.4,348.5 338.9,357.9 340.4,348.5 346,352.1 342.4,346.4 351.9,345 		"/>
		<path d="M149.3,528l-0.6,1.8l0.1,0.1c5.2,3.9,29.2,21.6,35.1,26l9.3,6.9c0.1,0.1,0.3,0.2,0.5,0.2c0.2,0,0.4-0.1,0.5-0.2
			c0.3-0.2,0.5-0.6,0.4-1l-10.5-32.4l-1.5,1.1l9.4,29.1c-11.5-8.5-37.4-27.7-42.5-31.4L149.3,528z"/>
		<path d="M118.7,507.6c9.2,6.8,17.9,13.2,26.8,19.8l0.2,0.2l0.7-1.7l-0.1-0.1c-5.9-4.3-12.1-8.9-18-13.3l-7.1-5.2h52.9l-0.1-0.3
			c0,0-0.1-0.2-0.1-0.4c-0.1-0.3-0.3-0.8-0.4-1l-0.1-0.2h-55c-0.4,0-0.7,0.2-0.8,0.6c-0.1,0.4,0,0.8,0.4,1.1L118.7,507.6z"/>
		<path d="M135.9,562.8c0.2,0.1,0.3,0.2,0.5,0.2c0.2,0,0.3-0.1,0.5-0.2l27.3-20.2l0.2-0.2l-0.2-0.2c0,0-0.8-0.7-1-0.9l-0.2-0.1
			l-24.9,18.4l16.7-51.7l-1.9,0l-17.4,53.8C135.4,562.1,135.5,562.5,135.9,562.8z"/>
		<path d="M154.1,504.4l0.3,0c0.4,0,0.9,0.1,1.4,0l0.1,0l9.1-28.2l16.3,50.4l1.5-1.2L166,473.2c0-0.3-0.2-0.6-0.5-0.7
			c-0.1,0-0.2-0.1-0.3-0.1c0,0,0,0-0.1,0c0,0-0.1,0-0.1,0c-0.1,0-0.2,0-0.3,0.1c-0.3,0.1-0.5,0.4-0.5,0.6l-10,31L154.1,504.4z"/>
		<path d="M212.5,506c-0.1-0.4-0.4-0.6-0.8-0.6h-34.2l0.1,0.3c0.2,0.4,0.3,0.9,0.5,1.4l0.1,0.2h30.8L166,539l-0.2,0.2l1.5,1.1
			l44.9-33.2C212.5,506.8,212.6,506.4,212.5,506z"/>
		<path d="M116.9,501c0.9-2.2,2-4.3,3.2-6.2c8.5-14.1,23.6-23.5,40.2-25.2l0.2,0l0-0.2c-0.1-0.4-0.1-0.9-0.1-1.3l0-0.3l-0.3,0
			c-14.6,1.4-28.1,8.6-37.2,19.7c-3.1,3.9-5.7,8.2-7.7,12.8l-0.1,0.3l0.3,0c0.4,0,0.7,0.2,1.2,0.4l0.2,0.1L116.9,501z"/>
		<path d="M130.4,563.6l0.2,0.2l0.1-0.2c0.2-0.3,0.6-0.6,1-0.8l0.3-0.2l-0.3-0.2c-2.5-2.1-4.9-4.4-6.9-6.8
			c-10.6-12.7-14.6-30-10.6-46.3l0.1-0.3h-0.3c-0.4,0-0.8-0.1-1.2-0.2l-0.2-0.1l-0.1,0.2c-3.4,14.1-1.1,29.1,6.3,41.3
			C121.8,555.2,125.7,559.7,130.4,563.6z"/>
		<path d="M165.3,576.1c3.5,0,6.9-0.3,10.3-1c5.7-1.1,11.3-3.2,16.4-6.2l0.2-0.1l-0.1-0.2c-0.3-0.4-0.5-0.7-0.6-1.1l-0.1-0.2
			l-0.2,0.1c-2.8,1.6-5.6,2.9-8.6,4c-14.6,5.1-31.3,3.4-44.7-4.7l-0.3-0.2l-0.1,0.3c-0.1,0.5-0.3,0.9-0.5,1.2l-0.1,0.2l0.2,0.1
			C145.8,573.5,155.5,576.1,165.3,576.1z"/>
		<path d="M217.7,509l-0.1-0.2l-0.2,0c-0.5,0.1-0.9,0.2-1.3,0.3l-0.2,0l0.1,0.2c1,4.1,1.6,8.2,1.6,12.4c-0.1,15.6-7.1,30.3-19,40.4
			l-0.2,0.2l0.2,0.2c0.3,0.2,0.7,0.5,1,0.8l0.1,0.1l0.2-0.1c12.3-10.4,19.4-25.6,19.6-41.6C219.3,517.6,218.8,513.3,217.7,509z"/>
		<path d="M183.9,470.9c-4.3-1.6-8.9-2.6-13.6-3.1l-0.3,0l0.1,0.3c0.1,0.4,0.2,0.9,0.2,1.3l0,0.2l0.2,0c1.8,0.2,3.5,0.4,5.2,0.8
			c16.5,3.4,30.6,14.8,37.5,30.6l0.1,0.2l0.2,0c0.2-0.1,0.4-0.1,0.7,0l0.2,0l0.1-0.1c0.1-0.1,0.1-0.1,0.2-0.2
			c0.1-0.1,0.1-0.1,0.2-0.2l0.2-0.1l-0.1-0.2C208.9,486.7,197.6,476,183.9,470.9z"/>
		<path d="M164.1,469.3c0.4,0.4,0.6,2.2,0.9,2.2c0.3,0,0.5-1.8,0.9-2.2s1.6-0.6,1.6-0.8c0-0.2-1.2-0.5-1.6-0.9
			c-0.4-0.4-0.6-2.2-0.9-2.2c-0.3,0-0.5,1.7-0.9,2.2c-0.5,0.4-1.6,0.5-1.6,0.8C162.5,468.7,163.7,468.8,164.1,469.3z"/>
		<path d="M113.1,507.2c0.3,0.1,0.8-1,1.3-1.2c0.6-0.3,2.3,0.1,2.4-0.1c0.1-0.3-1.5-1.1-1.8-1.6c-0.2-0.5,0-1.7-0.3-1.8
			c-0.2-0.1-0.8,1-1.3,1.2c-0.5,0.2-2.3-0.1-2.4,0.1c-0.1,0.3,1.5,1,1.8,1.6C113.1,506,112.8,507.1,113.1,507.2z"/>
		<path d="M131.6,564.3c-0.1,0.2,0.7,1.1,0.8,1.6c0.1,0.5-0.8,2.1-0.6,2.3c0.2,0.2,1.4-1.1,2-1.2c0.6-0.1,1.6,0.5,1.8,0.3
			c0.2-0.2-0.7-1-0.8-1.6c-0.1-0.6,0.8-2.1,0.6-2.3c-0.2-0.2-1.5,1.1-2,1.2C132.8,564.7,131.7,564.1,131.6,564.3z"/>
		<path d="M198.4,564.5c-0.2-0.2-1.2,0.3-1.8,0.2c-0.6-0.1-1.8-1.4-2-1.3c-0.2,0.2,0.6,1.8,0.5,2.3c-0.1,0.6-1,1.4-0.8,1.6
			c0.1,0.2,1.3-0.3,1.8-0.2c0.5,0.1,1.8,1.4,2,1.3c0.2-0.2-0.6-1.7-0.5-2.3C197.7,565.4,198.6,564.7,198.4,564.5z"/>
		<path d="M213.2,505.6c0.1,0.3,1.9,0,2.4,0.2c0.5,0.3,1,1.4,1.3,1.3c0.2-0.1,0.1-1.3,0.3-1.8c0.2-0.5,1.9-1.2,1.8-1.5
			c-0.1-0.3-1.8,0.1-2.4-0.2s-1-1.4-1.3-1.3c-0.3,0.1,0,1.2-0.3,1.8C214.7,504.6,213.1,505.3,213.2,505.6z"/>
		<path d="M147.3,496.8c-1.4,0-2.6,1.2-2.6,2.6c0,1.4,1.1,2.6,2.5,2.6c0,0,0.1,0,0.1,0c1.4,0,2.6-1.1,2.6-2.6l0,0l0,0
			C149.8,497.9,148.7,496.8,147.3,496.8z M147.2,500.4C147.2,500.4,147.2,500.4,147.2,500.4c-0.5,0-0.9-0.3-0.9-0.9
			c0-0.6,0.5-0.9,0.9-0.9c0,0,0,0,0,0c0.5,0,1,0.3,1,0.9C148.2,500.1,147.7,500.4,147.2,500.4z"/>
		<path d="M181.7,502.1c1.4,0,2.6-1.1,2.6-2.6l0,0l0,0c-0.1-1.5-1.2-2.6-2.6-2.6c-1.4,0-2.6,1.2-2.6,2.6c0,1.4,1.1,2.6,2.5,2.6
			C181.6,502.1,181.7,502.1,181.7,502.1z M180.7,499.4c0-0.6,0.5-0.9,0.9-0.9c0,0,0,0,0,0c0.5,0,1,0.3,1,0.9c0,0.7-0.5,0.9-1,0.9
			c0,0,0,0,0,0C181.2,500.4,180.7,500.1,180.7,499.4z"/>
		<path d="M162.4,550.3c0,1.4,1.1,2.6,2.5,2.6c0,0,0.1,0,0.1,0c1.4,0,2.6-1.1,2.6-2.6c-0.1-1.5-1.2-2.6-2.6-2.6
			C163.6,547.7,162.4,548.9,162.4,550.3z M166,550.3c0,0.7-0.6,0.9-1,0.9c-0.5,0-0.9-0.3-0.9-0.9c0-0.6,0.5-0.9,0.9-0.9c0,0,0,0,0,0
			C165.5,549.4,166,549.7,166,550.3z"/>
		<path d="M140.4,532.7c1.4,0,2.6-1.1,2.6-2.6c-0.1-1.5-1.2-2.6-2.6-2.6c-1.4,0-2.6,1.2-2.6,2.6c0,1.4,1.1,2.6,2.5,2.6
			C140.3,532.7,140.3,532.7,140.4,532.7z M139.4,530.1c0-0.6,0.5-0.9,0.9-0.9c0,0,0,0,0,0c0.5,0,1,0.3,1,0.9c0,0.7-0.6,1-1,0.9
			C139.8,531,139.4,530.7,139.4,530.1z"/>
		<path d="M190,532.7c1.4,0,2.6-1.1,2.6-2.6c-0.1-1.5-1.2-2.6-2.6-2.6c-1.4,0-2.6,1.2-2.6,2.6c0,1.4,1.1,2.6,2.5,2.6
			C189.9,532.7,189.9,532.7,190,532.7z M189,530.1c0-0.6,0.5-0.9,0.9-0.9c0,0,0,0,0,0c0.5,0,1,0.3,1,0.9c0,0.7-0.6,1-1,0.9
			C189.5,531,189,530.7,189,530.1z"/>
		<polygon points="161.6,524.2 158.1,529.9 163.7,526.3 165.2,535.7 166.6,526.3 172.3,529.9 168.7,524.2 178.1,522.8 168.7,521.3 
			172.3,515.7 166.6,519.2 165.2,509.8 163.7,519.2 158.1,515.7 161.6,521.3 152.2,522.8 		"/>
		<path d="M367.5,562.9c0.2,0,0.4-0.1,0.5-0.2c0.3-0.2,0.5-0.6,0.4-1l-10.5-32.4l-1.5,1.1l9.4,29.1c-11.5-8.5-37.4-27.7-42.5-31.4
			L323,528l-0.6,1.8l0.1,0.1c5.2,3.9,29.2,21.6,35.1,26l9.3,6.9C367.1,562.9,367.3,562.9,367.5,562.9z"/>
		<path d="M292.4,507.6c9.2,6.8,17.9,13.2,26.8,19.8l0.2,0.2l0.7-1.7l-0.1-0.1c-5.9-4.3-12.1-8.9-18-13.3l-7.1-5.2h52.9l-0.1-0.3
			c0,0-0.1-0.2-0.1-0.4c-0.1-0.3-0.3-0.8-0.4-1l-0.1-0.2h-55c-0.4,0-0.7,0.2-0.8,0.6c-0.1,0.4,0,0.8,0.4,1.1L292.4,507.6z"/>
		<path d="M309.6,562.8c0.2,0.1,0.3,0.2,0.5,0.2c0.2,0,0.3-0.1,0.5-0.2l27.3-20.2l0.2-0.2l-0.2-0.2c0,0-0.8-0.7-1-0.9l-0.2-0.1
			l-24.9,18.4l16.7-51.7l-1.9,0l-17.4,53.8C309.1,562.1,309.2,562.5,309.6,562.8z"/>
		<path d="M339.2,472.5c-0.1,0-0.2-0.1-0.3-0.1c0,0,0,0-0.1,0c0,0-0.1,0-0.1,0c-0.1,0-0.2,0-0.3,0.1c-0.3,0.1-0.5,0.4-0.5,0.6
			l-10,31l0,0.3l0.3,0c0.4,0,0.9,0.1,1.4,0l0.1,0l9.1-28.2l16.3,50.4l1.5-1.2l-16.9-52.2C339.7,472.9,339.5,472.6,339.2,472.5z"/>
		<path d="M386.2,506c-0.1-0.4-0.4-0.6-0.8-0.6h-34.2l0.1,0.3c0.2,0.4,0.3,0.9,0.5,1.4l0.1,0.2h30.8l-43,31.8l-0.2,0.2l1.5,1.1
			l44.9-33.2C386.2,506.8,386.4,506.4,386.2,506z"/>
		<path d="M290.6,501c0.9-2.2,2-4.3,3.2-6.2c8.5-14.1,23.6-23.5,40.2-25.2l0.2,0l0-0.2c-0.1-0.4-0.1-0.9-0.1-1.3l0-0.3l-0.3,0
			c-14.6,1.4-28.1,8.6-37.2,19.7c-3.1,3.9-5.7,8.2-7.7,12.8l-0.1,0.3l0.3,0c0.4,0,0.7,0.2,1.2,0.4l0.2,0.1L290.6,501z"/>
		<path d="M292.4,550.2c3.1,5,7,9.6,11.7,13.4l0.2,0.2l0.1-0.2c0.2-0.3,0.6-0.6,1-0.8l0.3-0.2l-0.3-0.2c-2.5-2.1-4.9-4.4-6.9-6.8
			c-10.6-12.7-14.6-30-10.6-46.3l0.1-0.3h-0.3c-0.4,0-0.8-0.1-1.2-0.2l-0.2-0.1l-0.1,0.2C282.7,523,285,538.1,292.4,550.2z"/>
		<path d="M365.7,568.9l0.2-0.1l-0.1-0.2c-0.3-0.4-0.5-0.7-0.6-1.1l-0.1-0.2l-0.2,0.1c-2.8,1.6-5.6,2.9-8.6,4
			c-14.6,5.1-31.3,3.4-44.7-4.7l-0.3-0.2l-0.1,0.3c-0.1,0.5-0.3,0.9-0.5,1.2l-0.1,0.2l0.2,0.1c8.6,5.2,18.4,7.8,28.2,7.8
			c3.5,0,6.9-0.3,10.3-1C355.1,574,360.6,571.9,365.7,568.9z"/>
		<path d="M391.4,509l-0.1-0.2l-0.2,0c-0.5,0.1-0.9,0.2-1.3,0.3l-0.2,0l0.1,0.2c1,4.1,1.6,8.2,1.6,12.4c-0.1,15.6-7.1,30.3-19,40.4
			l-0.2,0.2l0.2,0.2c0.3,0.2,0.7,0.5,1,0.8l0.1,0.1l0.2-0.1c12.3-10.4,19.4-25.6,19.6-41.6C393.1,517.6,392.5,513.3,391.4,509z"/>
		<path d="M357.6,470.9c-4.3-1.6-8.9-2.6-13.6-3.1l-0.3,0l0.1,0.3c0.1,0.4,0.2,0.9,0.2,1.3l0,0.2l0.2,0c1.8,0.2,3.5,0.4,5.2,0.8
			c16.5,3.4,30.6,14.8,37.5,30.6l0.1,0.2l0.2,0c0.2-0.1,0.4-0.1,0.7,0l0.2,0l0.1-0.1c0.1-0.1,0.1-0.1,0.2-0.2
			c0.1-0.1,0.1-0.1,0.2-0.2l0.2-0.1l-0.1-0.2C382.6,486.7,371.3,476,357.6,470.9z"/>
		<path d="M339.7,467.6c-0.4-0.4-0.6-2.2-0.9-2.2c-0.3,0-0.5,1.7-0.9,2.2c-0.5,0.4-1.6,0.5-1.6,0.8c0,0.3,1.2,0.4,1.6,0.9
			c0.4,0.4,0.6,2.2,0.9,2.2c0.3,0,0.5-1.8,0.9-2.2c0.4-0.4,1.6-0.6,1.6-0.8C341.3,468.3,340.1,468,339.7,467.6z"/>
		<path d="M286.8,507.2c0.3,0.1,0.8-1,1.3-1.2c0.6-0.3,2.3,0.1,2.4-0.1c0.1-0.3-1.5-1.1-1.8-1.6c-0.2-0.5,0-1.7-0.3-1.8
			c-0.2-0.1-0.8,1-1.3,1.2s-2.3-0.1-2.4,0.1c-0.1,0.3,1.5,1,1.8,1.6S286.6,507.1,286.8,507.2z"/>
		<path d="M305.5,568.2c0.2,0.2,1.4-1.1,2-1.2c0.6-0.1,1.6,0.5,1.8,0.3c0.2-0.2-0.7-1-0.8-1.6c-0.1-0.6,0.8-2.1,0.6-2.3
			c-0.2-0.2-1.5,1.1-2,1.2c-0.6,0.1-1.6-0.5-1.8-0.3c-0.1,0.2,0.7,1.1,0.8,1.6C306.2,566.4,305.3,568,305.5,568.2z"/>
		<path d="M372.1,564.5c-0.2-0.2-1.2,0.3-1.8,0.2c-0.6-0.1-1.8-1.4-2-1.3c-0.2,0.2,0.6,1.8,0.5,2.3c-0.1,0.6-1,1.4-0.8,1.6
			c0.1,0.2,1.3-0.3,1.8-0.2c0.5,0.1,1.8,1.4,2,1.3c0.2-0.2-0.6-1.7-0.5-2.3C371.4,565.4,372.3,564.7,372.1,564.5z"/>
		<path d="M386.9,505.6c0.1,0.3,1.9,0,2.4,0.2c0.5,0.3,1,1.4,1.3,1.3c0.2-0.1,0.1-1.3,0.3-1.8c0.2-0.5,1.9-1.2,1.8-1.5
			c-0.1-0.3-1.8,0.1-2.4-0.2s-1-1.4-1.3-1.3c-0.3,0.1,0,1.2-0.3,1.8C388.4,504.6,386.8,505.3,386.9,505.6z"/>
		<path d="M321,496.8c-1.4,0-2.6,1.2-2.6,2.6c0,1.4,1.1,2.6,2.5,2.6c0,0,0.1,0,0.1,0c1.4,0,2.6-1.1,2.6-2.6l0,0l0,0
			C323.5,497.9,322.4,496.8,321,496.8z M321,500.4C320.9,500.4,320.9,500.4,321,500.4c-0.5,0-0.9-0.3-0.9-0.9c0-0.6,0.5-0.9,0.9-0.9
			c0,0,0,0,0,0c0.5,0,1,0.3,1,0.9C321.9,500.1,321.4,500.4,321,500.4z"/>
		<path d="M355.4,502.1c1.4,0,2.6-1.1,2.6-2.6l0,0l0,0c-0.1-1.5-1.2-2.6-2.6-2.6c-1.4,0-2.6,1.2-2.6,2.6c0,1.4,1.1,2.6,2.5,2.6
			C355.4,502.1,355.4,502.1,355.4,502.1z M354.4,499.4c0-0.6,0.5-0.9,0.9-0.9c0,0,0,0,0,0c0.5,0,1,0.3,1,0.9c0,0.7-0.5,0.9-1,0.9
			c0,0,0,0,0,0C354.9,500.4,354.4,500.1,354.4,499.4z"/>
		<path d="M336.1,550.3c0,1.4,1.1,2.6,2.5,2.6c0,0,0.1,0,0.1,0c1.4,0,2.6-1.1,2.6-2.6c-0.1-1.5-1.2-2.6-2.6-2.6
			C337.4,547.7,336.1,548.9,336.1,550.3z M338.7,549.4C338.7,549.4,338.7,549.4,338.7,549.4c0.5,0,1,0.3,1,0.9c0,0.7-0.6,0.9-1,0.9
			c-0.5,0-0.9-0.3-0.9-0.9C337.8,549.7,338.3,549.4,338.7,549.4z"/>
		<path d="M311.4,530.1c0,1.4,1.1,2.6,2.5,2.6c0,0,0.1,0,0.1,0c1.4,0,2.6-1.1,2.6-2.6c-0.1-1.5-1.2-2.6-2.6-2.6
			C312.7,527.5,311.4,528.7,311.4,530.1z M315.1,530.1c0,0.7-0.6,1-1,0.9c-0.5,0-0.9-0.3-0.9-0.9c0-0.6,0.5-0.9,0.9-0.9c0,0,0,0,0,0
			C314.5,529.2,315,529.4,315.1,530.1z"/>
		<path d="M363.7,532.7c1.4,0,2.6-1.1,2.6-2.6c-0.1-1.5-1.2-2.6-2.6-2.6c-1.4,0-2.6,1.2-2.6,2.6c0,1.4,1.1,2.6,2.5,2.6
			C363.6,532.7,363.7,532.7,363.7,532.7z M362.7,530.1c0-0.6,0.5-0.9,0.9-0.9c0,0,0,0,0,0c0.5,0,1,0.3,1,0.9c0,0.7-0.6,1-1,0.9
			C363.2,531,362.7,530.7,362.7,530.1z"/>
		<polygon points="342.4,521.3 346,515.7 340.4,519.2 338.9,509.8 337.4,519.2 331.8,515.7 335.3,521.3 325.9,522.8 335.3,524.2 
			331.8,529.9 337.4,526.3 338.9,535.7 340.4,526.3 346,529.9 342.4,524.2 351.9,522.8 		"/>
		<path d="M194.6,683.4L184.2,651l-1.5,1.1l9.4,29.1c-11.5-8.5-37.4-27.7-42.5-31.4l-0.2-0.2l-0.6,1.8l0.1,0.1
			c5.2,3.9,29.2,21.6,35.1,26l9.3,6.9c0.1,0.1,0.3,0.2,0.5,0.2c0.2,0,0.4-0.1,0.5-0.2C194.6,684.1,194.7,683.7,194.6,683.4z"/>
		<path d="M118.7,629.2c9.2,6.8,17.9,13.2,26.8,19.8l0.2,0.2l0.7-1.7l-0.1-0.1c-5.9-4.3-12.1-8.9-18-13.3l-7.1-5.2h52.9l-0.1-0.3
			c0,0-0.1-0.2-0.1-0.4c-0.1-0.3-0.3-0.8-0.4-1l-0.1-0.2h-55c-0.4,0-0.7,0.2-0.8,0.6c-0.1,0.4,0,0.8,0.4,1.1L118.7,629.2z"/>
		<path d="M163.1,663l-0.2-0.1l-24.9,18.4l16.7-51.7l-1.9,0l-17.4,53.8c-0.1,0.4,0,0.8,0.4,1c0.2,0.1,0.3,0.2,0.5,0.2
			c0.2,0,0.3-0.1,0.5-0.2l27.3-20.2l0.2-0.2l-0.2-0.2C164.1,663.8,163.3,663.1,163.1,663z"/>
		<path d="M154.1,626l0.3,0c0.4,0,0.9,0.1,1.4,0l0.1,0l9.1-28.2l16.3,50.4l1.5-1.2L166,594.8c0-0.3-0.2-0.6-0.5-0.7
			c-0.1,0-0.2-0.1-0.3-0.1c0,0,0,0-0.1,0c0,0-0.1,0-0.1,0c-0.1,0-0.2,0-0.3,0.1c-0.3,0.1-0.5,0.4-0.5,0.6l-10,31L154.1,626z"/>
		<path d="M212.5,627.6c-0.1-0.4-0.4-0.6-0.8-0.6h-34.2l0.1,0.3c0.2,0.4,0.3,0.9,0.5,1.4l0.1,0.2h30.8l-43,31.8l-0.2,0.2l1.5,1.1
			l44.9-33.2C212.5,628.4,212.6,628,212.5,627.6z"/>
		<path d="M116.9,622.6c0.9-2.2,2-4.3,3.2-6.2c8.5-14.1,23.6-23.5,40.2-25.2l0.2,0l0-0.2c-0.1-0.4-0.1-0.9-0.1-1.3l0-0.3l-0.3,0
			c-14.6,1.4-28.1,8.6-37.2,19.7c-3.1,3.9-5.7,8.2-7.7,12.8l-0.1,0.3l0.3,0c0.4,0,0.7,0.2,1.2,0.4l0.2,0.1L116.9,622.6z"/>
		<path d="M130.4,685.2l0.2,0.2l0.1-0.2c0.2-0.3,0.6-0.6,1-0.8l0.3-0.2l-0.3-0.2c-2.5-2.1-4.9-4.4-6.9-6.8
			c-10.6-12.7-14.6-30-10.6-46.3l0.1-0.3h-0.3c-0.4,0-0.8-0.1-1.2-0.2l-0.2-0.1l-0.1,0.2c-3.4,14.1-1.1,29.1,6.3,41.3
			C121.8,676.8,125.7,681.3,130.4,685.2z"/>
		<path d="M191.5,689.1l-0.1-0.2l-0.2,0.1c-2.8,1.6-5.6,2.9-8.6,4c-14.6,5.1-31.3,3.4-44.7-4.7l-0.3-0.2l-0.1,0.3
			c-0.1,0.5-0.3,0.9-0.5,1.2l-0.1,0.2l0.2,0.1c8.6,5.2,18.4,7.8,28.2,7.8c3.5,0,6.9-0.3,10.3-1c5.7-1.1,11.3-3.2,16.4-6.2l0.2-0.1
			l-0.1-0.2C191.8,689.9,191.6,689.5,191.5,689.1z"/>
		<path d="M199.5,685l0.1,0.1l0.2-0.1c12.3-10.4,19.4-25.6,19.6-41.6c0-4.3-0.6-8.6-1.6-12.8l-0.1-0.2l-0.2,0
			c-0.5,0.1-0.9,0.2-1.3,0.3l-0.2,0l0.1,0.2c1,4.1,1.6,8.2,1.6,12.4c-0.1,15.6-7.1,30.3-19,40.4l-0.2,0.2l0.2,0.2
			C198.9,684.4,199.2,684.7,199.5,685z"/>
		<path d="M183.9,592.5c-4.3-1.6-8.9-2.6-13.6-3.1l-0.3,0l0.1,0.3c0.1,0.4,0.2,0.9,0.2,1.3l0,0.2l0.2,0c1.8,0.2,3.5,0.4,5.2,0.8
			c16.5,3.4,30.6,14.8,37.5,30.6l0.1,0.2l0.2,0c0.2-0.1,0.4-0.1,0.7,0l0.2,0l0.1-0.1c0.1-0.1,0.1-0.1,0.2-0.2s0.1-0.1,0.2-0.2
			l0.2-0.1l-0.1-0.2C208.9,608.3,197.6,597.6,183.9,592.5z"/>
		<path d="M164.1,590.9c0.4,0.4,0.6,2.2,0.9,2.2c0.3,0,0.5-1.8,0.9-2.2s1.6-0.6,1.6-0.8s-1.2-0.5-1.6-0.9c-0.4-0.4-0.6-2.2-0.9-2.2
			s-0.5,1.7-0.9,2.2c-0.5,0.4-1.6,0.5-1.6,0.8S163.7,590.4,164.1,590.9z"/>
		<path d="M113.1,628.8c0.3,0.1,0.8-1,1.3-1.2c0.6-0.3,2.3,0.1,2.4-0.1c0.1-0.3-1.5-1.1-1.8-1.6c-0.2-0.5,0-1.7-0.3-1.8
			c-0.2-0.1-0.8,1-1.3,1.2c-0.5,0.2-2.3-0.1-2.4,0.1c-0.1,0.3,1.5,1,1.8,1.6C113.1,627.6,112.8,628.7,113.1,628.8z"/>
		<path d="M131.8,689.8c0.2,0.2,1.4-1.1,2-1.2c0.6-0.1,1.6,0.5,1.8,0.3c0.2-0.2-0.7-1-0.8-1.6c-0.1-0.6,0.8-2.1,0.6-2.3
			c-0.2-0.2-1.5,1.1-2,1.2c-0.6,0.1-1.6-0.5-1.8-0.3c-0.1,0.2,0.7,1.1,0.8,1.6C132.4,688,131.5,689.6,131.8,689.8z"/>
		<path d="M197.5,687.7c0.1-0.6,1-1.4,0.8-1.6c-0.2-0.2-1.2,0.3-1.8,0.2c-0.6-0.1-1.8-1.4-2-1.3c-0.2,0.2,0.6,1.8,0.5,2.3
			c-0.1,0.6-1,1.4-0.8,1.6c0.1,0.2,1.3-0.3,1.8-0.2c0.5,0.1,1.8,1.4,2,1.3C198.3,689.8,197.4,688.3,197.5,687.7z"/>
		<path d="M213.2,627.2c0.1,0.3,1.9,0,2.4,0.2c0.5,0.3,1,1.4,1.3,1.3c0.2-0.1,0.1-1.3,0.3-1.8c0.2-0.5,1.9-1.2,1.8-1.5
			c-0.1-0.3-1.8,0.1-2.4-0.2c-0.6-0.3-1-1.4-1.3-1.3c-0.3,0.1,0,1.2-0.3,1.8C214.7,626.2,213.1,626.9,213.2,627.2z"/>
		<path d="M147.3,618.4c-1.4,0-2.6,1.2-2.6,2.6c0,1.4,1.1,2.6,2.5,2.6c0,0,0.1,0,0.1,0c1.4,0,2.6-1.1,2.6-2.6l0,0l0,0
			C149.8,619.5,148.7,618.4,147.3,618.4z M147.2,622C147.2,622,147.2,622,147.2,622c-0.5,0-0.9-0.3-0.9-0.9c0-0.6,0.5-0.9,0.9-0.9
			c0,0,0,0,0,0c0.5,0,1,0.3,1,0.9C148.2,621.7,147.7,622,147.2,622z"/>
		<path d="M181.7,618.4c-1.4,0-2.6,1.2-2.6,2.6c0,1.4,1.1,2.6,2.5,2.6c0,0,0.1,0,0.1,0c1.4,0,2.6-1.1,2.6-2.6l0,0l0,0
			C184.2,619.5,183.1,618.4,181.7,618.4z M181.7,622C181.7,622,181.6,622,181.7,622c-0.5,0-0.9-0.3-0.9-0.9c0-0.6,0.5-0.9,0.9-0.9
			c0,0,0,0,0,0c0.5,0,1,0.3,1,0.9C182.6,621.7,182.1,622,181.7,622z"/>
		<path d="M162.4,671.9c0,1.4,1.1,2.6,2.5,2.6c0,0,0.1,0,0.1,0c1.4,0,2.6-1.1,2.6-2.6c-0.1-1.5-1.2-2.6-2.6-2.6
			C163.6,669.3,162.4,670.5,162.4,671.9z M165,671C165,671,165,671,165,671c0.5,0,1,0.3,1,0.9c0,0.7-0.6,0.9-1,0.9
			c-0.5,0-0.9-0.3-0.9-0.9C164.1,671.3,164.5,671,165,671z"/>
		<path d="M137.7,651.7c0,1.4,1.1,2.6,2.5,2.6c0,0,0.1,0,0.1,0c1.4,0,2.6-1.1,2.6-2.6c-0.1-1.5-1.2-2.6-2.6-2.6
			C138.9,649.1,137.7,650.3,137.7,651.7z M141.3,651.7c0,0.7-0.6,1-1,0.9c-0.5,0-0.9-0.3-0.9-0.9c0-0.6,0.5-0.9,0.9-0.9c0,0,0,0,0,0
			C140.8,650.8,141.3,651.1,141.3,651.7z"/>
		<path d="M187.3,651.7c0,1.4,1.1,2.6,2.5,2.6c0,0,0.1,0,0.1,0c1.4,0,2.6-1.1,2.6-2.6c-0.1-1.5-1.2-2.6-2.6-2.6
			C188.5,649.1,187.3,650.3,187.3,651.7z M191,651.7c0,0.7-0.6,1-1,0.9c-0.5,0-0.9-0.3-0.9-0.9c0-0.6,0.5-0.9,0.9-0.9c0,0,0,0,0,0
			C190.4,650.8,190.9,651.1,191,651.7z"/>
		<polygon points="163.7,647.9 165.2,657.3 166.6,647.9 172.3,651.5 168.7,645.8 178.1,644.4 168.7,642.9 172.3,637.3 166.6,640.8 
			165.2,631.4 163.7,640.8 158.1,637.3 161.6,642.9 152.2,644.4 161.6,645.8 158.1,651.5 		"/>
		<path d="M367,684.4c0.1,0.1,0.3,0.2,0.5,0.2c0.2,0,0.4-0.1,0.5-0.2c0.3-0.2,0.5-0.6,0.4-1L357.9,651l-1.5,1.1l9.4,29.1
			c-11.5-8.5-37.4-27.7-42.5-31.4l-0.2-0.2l-0.6,1.8l0.1,0.1c5.2,3.9,29.2,21.6,35.1,26L367,684.4z"/>
		<path d="M292.4,629.2c9.2,6.8,17.9,13.2,26.8,19.8l0.2,0.2l0.7-1.7l-0.1-0.1c-5.9-4.3-12.1-8.9-18-13.3l-7.1-5.2h52.9l-0.1-0.3
			c0,0-0.1-0.2-0.1-0.4c-0.1-0.3-0.3-0.8-0.4-1l-0.1-0.2h-55c-0.4,0-0.7,0.2-0.8,0.6c-0.1,0.4,0,0.8,0.4,1.1L292.4,629.2z"/>
		<path d="M309.6,684.4c0.2,0.1,0.3,0.2,0.5,0.2c0.2,0,0.3-0.1,0.5-0.2l27.3-20.2l0.2-0.2l-0.2-0.2c0,0-0.8-0.7-1-0.9l-0.2-0.1
			l-24.9,18.4l16.7-51.7l-1.9,0l-17.4,53.8C309.1,683.7,309.2,684.1,309.6,684.4z"/>
		<path d="M339.2,594.1c-0.1,0-0.2-0.1-0.3-0.1c0,0,0,0-0.1,0c0,0-0.1,0-0.1,0c-0.1,0-0.2,0-0.3,0.1c-0.3,0.1-0.5,0.4-0.5,0.6
			l-10,31l0,0.3l0.3,0c0.4,0,0.9,0.1,1.4,0l0.1,0l9.1-28.2l16.3,50.4l1.5-1.2l-16.9-52.2C339.7,594.5,339.5,594.2,339.2,594.1z"/>
		<path d="M386.2,627.6c-0.1-0.4-0.4-0.6-0.8-0.6h-34.2l0.1,0.3c0.2,0.4,0.3,0.9,0.5,1.4l0.1,0.2h30.8l-43,31.8l-0.2,0.2l1.5,1.1
			l44.9-33.2C386.2,628.4,386.4,628,386.2,627.6z"/>
		<path d="M290.6,622.6c0.9-2.2,2-4.3,3.2-6.2c8.5-14.1,23.6-23.5,40.2-25.2l0.2,0l0-0.2c-0.1-0.4-0.1-0.9-0.1-1.3l0-0.3l-0.3,0
			c-14.6,1.4-28.1,8.6-37.2,19.7c-3.1,3.9-5.7,8.2-7.7,12.8l-0.1,0.3l0.3,0c0.4,0,0.7,0.2,1.2,0.4l0.2,0.1L290.6,622.6z"/>
		<path d="M304.3,685.3l0.1-0.2c0.2-0.3,0.6-0.6,1-0.8l0.3-0.2l-0.3-0.2c-2.5-2.1-4.9-4.4-6.9-6.8c-10.6-12.7-14.6-30-10.6-46.3
			l0.1-0.3h-0.3c-0.4,0-0.8-0.1-1.2-0.2l-0.2-0.1l-0.1,0.2c-3.4,14.1-1.1,29.1,6.3,41.3c3.1,5,7,9.6,11.7,13.4L304.3,685.3z"/>
		<path d="M365.7,690.6l0.2-0.1l-0.1-0.2c-0.3-0.4-0.5-0.7-0.6-1.1l-0.1-0.2l-0.2,0.1c-2.8,1.6-5.6,2.9-8.6,4
			c-14.6,5.1-31.3,3.4-44.7-4.7l-0.3-0.2l-0.1,0.3c-0.1,0.5-0.3,0.9-0.5,1.2l-0.1,0.2l0.2,0.1c8.6,5.2,18.4,7.8,28.2,7.8
			c3.5,0,6.9-0.3,10.3-1C355.1,695.6,360.6,693.5,365.7,690.6z"/>
		<path d="M391.4,630.6l-0.1-0.2l-0.2,0c-0.5,0.1-0.9,0.2-1.3,0.3l-0.2,0l0.1,0.2c1,4.1,1.6,8.2,1.6,12.4
			c-0.1,15.6-7.1,30.3-19,40.4L372,684l0.2,0.2c0.3,0.2,0.7,0.5,1,0.8l0.1,0.1l0.2-0.1c12.3-10.4,19.4-25.6,19.6-41.6
			C393.1,639.2,392.5,634.9,391.4,630.6z"/>
		<path d="M386.9,622.8l0.2,0c0.2-0.1,0.4-0.1,0.7,0l0.2,0l0.1-0.1c0.1-0.1,0.1-0.1,0.2-0.2c0.1-0.1,0.1-0.1,0.2-0.2l0.2-0.1
			l-0.1-0.2c-5.9-13.7-17.2-24.4-30.9-29.5c-4.3-1.6-8.9-2.6-13.6-3.1l-0.3,0l0.1,0.3c0.1,0.4,0.2,0.9,0.2,1.3l0,0.2l0.2,0
			c1.8,0.2,3.5,0.4,5.2,0.8c16.5,3.4,30.6,14.8,37.5,30.6L386.9,622.8z"/>
		<path d="M339.7,589.3c-0.4-0.4-0.6-2.2-0.9-2.2c-0.3,0-0.5,1.7-0.9,2.2c-0.5,0.4-1.6,0.5-1.6,0.8c0,0.3,1.2,0.4,1.6,0.9
			c0.4,0.4,0.6,2.2,0.9,2.2c0.3,0,0.5-1.8,0.9-2.2c0.4-0.4,1.6-0.6,1.6-0.8C341.3,589.9,340.1,589.6,339.7,589.3z"/>
		<path d="M286.8,628.8c0.3,0.1,0.8-1,1.3-1.2s2.3,0.1,2.4-0.1c0.1-0.3-1.5-1.1-1.8-1.6c-0.2-0.5,0-1.7-0.3-1.8
			c-0.2-0.1-0.8,1-1.3,1.2c-0.5,0.2-2.3-0.1-2.4,0.1c-0.1,0.3,1.5,1,1.8,1.6C286.9,627.6,286.6,628.7,286.8,628.8z"/>
		<path d="M305.5,689.8c0.2,0.2,1.4-1.1,2-1.2c0.6-0.1,1.6,0.5,1.8,0.3c0.2-0.2-0.7-1-0.8-1.6c-0.1-0.6,0.8-2.1,0.6-2.3
			c-0.2-0.2-1.5,1.1-2,1.2c-0.6,0.1-1.6-0.5-1.8-0.3c-0.1,0.2,0.7,1.1,0.8,1.6C306.2,688,305.3,689.6,305.5,689.8z"/>
		<path d="M372.1,686.1c-0.2-0.2-1.2,0.3-1.8,0.2c-0.6-0.1-1.8-1.4-2-1.3c-0.2,0.2,0.6,1.8,0.5,2.3c-0.1,0.6-1,1.4-0.8,1.6
			c0.1,0.2,1.3-0.3,1.8-0.2c0.5,0.1,1.8,1.4,2,1.3c0.2-0.2-0.6-1.7-0.5-2.3C371.4,687.1,372.3,686.3,372.1,686.1z"/>
		<path d="M389.2,627.4c0.5,0.3,1,1.4,1.3,1.3c0.2-0.1,0.1-1.3,0.3-1.8c0.2-0.5,1.9-1.2,1.8-1.5c-0.1-0.3-1.8,0.1-2.4-0.2
			c-0.6-0.3-1-1.4-1.3-1.3c-0.3,0.1,0,1.2-0.3,1.8c-0.3,0.5-1.9,1.2-1.8,1.5C387,627.4,388.7,627.1,389.2,627.4z"/>
		<path d="M321,618.4c-1.4,0-2.6,1.2-2.6,2.6c0,1.4,1.1,2.6,2.5,2.6c0,0,0.1,0,0.1,0c1.4,0,2.6-1.1,2.6-2.6l0,0l0,0
			C323.5,619.5,322.4,618.4,321,618.4z M321,622C320.9,622,320.9,622,321,622c-0.5,0-0.9-0.3-0.9-0.9c0-0.6,0.5-0.9,0.9-0.9
			c0,0,0,0,0,0c0.5,0,1,0.3,1,0.9C321.9,621.7,321.4,622,321,622z"/>
		<path d="M355.4,623.7c1.4,0,2.6-1.1,2.6-2.6l0,0l0,0c-0.1-1.5-1.2-2.6-2.6-2.6c-1.4,0-2.6,1.2-2.6,2.6c0,1.4,1.1,2.6,2.5,2.6
			C355.4,623.7,355.4,623.7,355.4,623.7z M354.4,621c0-0.6,0.5-0.9,0.9-0.9c0,0,0,0,0,0c0.5,0,1,0.3,1,0.9c0,0.7-0.5,0.9-1,0.9
			c0,0,0,0,0,0C354.9,622,354.4,621.7,354.4,621z"/>
		<path d="M338.7,674.6c0,0,0.1,0,0.1,0c1.4,0,2.6-1.1,2.6-2.6c-0.1-1.5-1.2-2.6-2.6-2.6c-1.4,0-2.6,1.2-2.6,2.6
			C336.1,673.3,337.3,674.5,338.7,674.6z M338.7,671C338.7,671,338.7,671,338.7,671c0.5,0,1,0.3,1,0.9c0,0.7-0.6,0.9-1,0.9
			c-0.5,0-0.9-0.3-0.9-0.9C337.8,671.3,338.3,671,338.7,671z"/>
		<path d="M311.4,651.7c0,1.4,1.1,2.6,2.5,2.6c0,0,0.1,0,0.1,0c1.4,0,2.6-1.1,2.6-2.6c-0.1-1.5-1.2-2.6-2.6-2.6
			C312.7,649.1,311.4,650.3,311.4,651.7z M315.1,651.7c0,0.7-0.6,1-1,0.9c-0.5,0-0.9-0.3-0.9-0.9c0-0.6,0.5-0.9,0.9-0.9c0,0,0,0,0,0
			C314.5,650.8,315,651.1,315.1,651.7z"/>
		<path d="M363.7,654.3c1.4,0,2.6-1.1,2.6-2.6c-0.1-1.5-1.2-2.6-2.6-2.6c-1.4,0-2.6,1.2-2.6,2.6c0,1.4,1.1,2.6,2.5,2.6
			C363.6,654.3,363.7,654.3,363.7,654.3z M362.7,651.7c0-0.6,0.5-0.9,0.9-0.9c0,0,0,0,0,0c0.5,0,1,0.3,1,0.9c0,0.7-0.6,1-1,0.9
			C363.2,652.6,362.7,652.3,362.7,651.7z"/>
		<polygon points="342.4,642.9 346,637.3 340.4,640.8 338.9,631.4 337.4,640.8 331.8,637.3 335.3,642.9 325.9,644.4 335.3,645.8 
			331.8,651.5 337.4,647.9 338.9,657.3 340.4,647.9 346,651.5 342.4,645.8 351.9,644.4 		"/>
	</g>
</g>
</svg>
