<?xml version="1.0" encoding="utf-8"?>
<!-- Generator: Adobe Illustrator 21.1.0, SVG Export Plug-In . SVG Version: 6.00 Build 0)  -->
<svg version="1.1" xmlns="http://www.w3.org/2000/svg" xmlns:xlink="http://www.w3.org/1999/xlink" x="0px" y="0px"
	 viewBox="0 0 504 864" style="enable-background:new 0 0 504 864;" xml:space="preserve">
<g id="Слой_1">
</g>
<g id="Слой_2">
	<g>
		<path d="M503.8,18.2c-1.6-17.9-18.7-16.3-31.6-16.3c-45.9,0-91.8,0-137.6,0c-63.2,0-126.3,0-189.5,0c-40.6,0-81.2,0-121.8,0
			c-2.6,0-5.3-0.2-8,0.2c-9.5,1.2-15,9.2-15.2,18.2c-0.2,7.3,0,14.5,0,21.8c0,37.4,0,74.9,0,112.3c0,57,0,114.1,0,171.1
			c0,64.3,0,128.6,0,192.9c0,58.4,0,116.7,0,175.1c0,40.1,0,80.2,0,120.3c0,9.1,0,18.2,0,27.3c0,11.7,6.7,20.5,19.2,20.7
			c35.9,0.6,71.9,0,107.9,0c62.4,0,124.9,0,187.3,0c49.7,0,99.5,0,149.2,0c7.6,0,15.2,0,22.9,0c0.4,0,0.8-0.1,1.2-0.2
			c14.4-1.8,16.1-13.8,16.1-25.5c0-11.4,0-22.8,0-34.3c0-43.4,0-86.9,0-130.3c0-59.9,0-119.8,0-179.8c0-63.9,0-127.7,0-191.6
			c0-55.3,0-110.6,0-165.9c0-33.7,0-67.3,0-101C503.9,28.3,504.2,23.2,503.8,18.2z M486.6,852.8c-28.3,0-56.6,0-84.9,0
			c-59.9,0-119.8,0-179.7,0c-54,0-108,0-162,0c-13.1,0-26.1,0-39.2,0c-5.6,0-11-1.3-11.7-8.3c-0.2-1.5,0-3,0-4.5c0-26.5,0-53,0-79.5
			c0-50,0-100,0-149.9c0-61.8,0-123.6,0-185.4c0-61.4,0-122.7,0-184.1c0-48.9,0-97.7,0-146.6c0-24.2-0.8-48.6,0-72.7
			c0.2-5.3,1.6-10.1,8.3-10.8c2.2-0.2,4.5,0,6.7,0c14.8,0,29.6,0,44.5,0c55.6,0,111.3,0,166.9,0c58.9,0,117.8,0,176.7,0
			c18.9,0,37.9,0,56.8,0c8.1,0,24.7-3.1,25.9,8.4c0.5,5.2,0,10.8,0,16.1c0,13.5,0,27.1,0,40.6c0,45.5,0,91.1,0,136.6
			c0,60.1,0,120.2,0,180.3c0,62.6,0,125.2,0,187.7c0,52.8,0,105.6,0,158.4c0,31.4,0,62.7,0,94.1C494.8,840.3,496.9,852,486.6,852.8z
			"/>
		<path d="M460,790.9c1.2,0.1,2.4-0.7,2.4-2.2c0-23.7,0-47.4,0-71.1c0-56.4,0-112.8,0-169.2c0-68.7,0-137.4,0-206
			c0-59,0-117.9,0-176.9c0-19.6,0-39.2,0-58.8c0-8.9,1.3-19,0-27.9c-0.1-0.4,0-0.8,0-1.2c0-0.8-0.3-1.3-0.8-1.7
			c0.1-1.2-0.6-2.5-2.2-2.6c-13.1-0.5-25.3-13.8-25.8-26.7c0-0.5-0.2-0.8-0.4-1.1c-0.3-0.6-1-1.1-1.9-1.1c-40.5,0-80.9,0-121.4,0
			c-64.5,0-129,0-193.6,0c-14.9,0-29.7,0-44.6,0c-0.9,0-1.6,0.5-1.9,1.1c-0.2,0.3-0.3,0.7-0.4,1.2C69.1,59.5,57,72.8,43.9,73.3
			c-1.8,0.1-2.5,1.9-2,3.2c-0.1,0.3-0.2,0.6-0.2,1c0,23.7,0,47.4,0,71.1c0,56.4,0,112.8,0,169.2c0,68.7,0,137.4,0,206
			c0,59,0,117.9,0,176.9c0,19.6,0,39.2,0,58.8c0,8.9-1.3,19,0,27.9c0.1,0.4,0,0.8,0,1.2c0,0.9,0.5,1.6,1.1,1.9
			c0.3,0.2,0.7,0.3,1.2,0.4c13,0.5,25.3,13.3,25.8,26.2c0,0.5,0.2,0.8,0.4,1.1c0.3,0.6,1,1.1,1.9,1.1c40.5,0,80.9,0,121.4,0
			c64.5,0,129,0,193.6,0c14.9,0,29.7,0,44.6,0c0.9,0,1.6-0.5,1.9-1.1c0.2-0.3,0.3-0.7,0.4-1.2c0.5-12.9,12.7-25.7,25.8-26.2
			C459.6,791,459.8,790.9,460,790.9z M429.3,814.9c-39.8,0-79.6,0-119.3,0c-64.5,0-129,0-193.6,0c-14.2,0-28.3,0-42.5,0
			c-1.7-13.9-13.9-26.5-27.8-28.3c0-23,0-46,0-69.1c0-56.4,0-112.8,0-169.2c0-68.7,0-137.4,0-206c0-59,0-117.9,0-176.9
			c0-19.6,0-39.2,0-58.8c0-8.9,1.3-19,0-27.9c-0.1-0.4,0-0.8,0-1.2c14-1.8,26.1-14.9,27.8-28.7c39.8,0,79.6,0,119.3,0
			c64.5,0,129,0,193.6,0c14.2,0,28.3,0,42.5,0c1.7,14.1,14.3,27.4,28.5,28.8c0,23.7,0,47.3,0,71c0,56.4,0,112.8,0,169.2
			c0,68.7,0,137.4,0,206c0,59,0,117.9,0,176.9c0,19.6,0,39.2,0,58.8c0,8.6-1.2,18.4-0.1,27C443.6,788.1,431.1,800.9,429.3,814.9z"/>
		<path d="M240.9,80.3c0.2,0,0.3,0.1,0.3,0.4c0,0.2,0.3,0.4,1,0.5c0.6,0.1,1.1,0.4,1.5,0.9c0.4,0.5,0.7,1.1,0.7,1.6
			c0,0.5,0.1,1,0.3,1.6c0.2,0.6,0.4,0.9,0.5,0.9c0.1,0,0.2,0.3,0.2,0.8c0,0.6,0.2,1.1,0.5,1.4c0.3,0.3,0.5,0.9,0.8,1.8
			c0.2,0.9,0.3,1.7,0.3,2.5c0,0.9,0.1,1.4,0.4,1.4c0.1,0.1,0.2,0.3,0.2,0.7c0,0.4,0.1,0.6,0.2,0.6c0.2,0.1,0.3,0.6,0.3,1.6
			c0,0.9,0.1,1.4,0.4,1.4c0.2,0,0.4,0.3,0.6,1c0.2,0.7,0.4,1,0.5,1c0.2,0,0.4,0.3,0.4,0.8c0.1,0.7,0.5,1,1.3,1c0.1,0,0.4,0,0.6-0.1
			c0.5-0.1,0.7-0.4,0.7-1.1c0-0.6,0.1-0.9,0.3-0.9c0.2,0,0.3-0.3,0.3-0.9c0-0.6,0.1-0.9,0.3-0.9c0.2-0.1,0.3-0.6,0.3-1.5
			c0-0.9,0.2-1.6,0.6-1.9c0.5-0.5,0.8-0.7,1.1-0.8c0.3-0.1,0.4-0.5,0.4-1.3c0-0.8,0.1-1.2,0.4-1.4c0.2-0.1,0.4-0.6,0.6-1.5
			c0.2-0.9,0.3-1.4,0.4-1.5c0.3-0.2,0.4-0.5,0.4-0.9c0-0.4,0.2-0.6,0.7-0.7c0.4,0,0.6-0.3,0.6-0.7c0-0.2-0.1-0.6-0.1-1
			c0-1,0.2-1.5,0.6-1.5c0.4,0,0.5-0.3,0.5-0.8c0-0.5,0.2-0.9,0.6-1.4c0.4-0.4,0.9-0.7,1.6-0.8c0.8-0.2,1.2-0.6,1.2-1.4
			c0-0.1,0-0.4-0.1-0.7l-0.1-0.6h-3.7c-2.5,0-3.7,0.1-3.7,0.3c0,0.2-0.1,0.3-0.3,0.3c-0.3,0-0.6,0.2-0.9,0.6
			c-0.4,0.5-0.4,0.7-0.2,0.7c0.3,0,0.5,0.1,0.5,0.4c0.1,0.3,0.5,0.4,1.1,0.4c0.6,0,1,0.2,1.1,0.7c0.1,0.5,0.1,0.7-0.1,0.8
			c-0.2,0.1-0.3,0.5-0.3,1.3c0,0.7-0.1,1.2-0.4,1.3c-0.2,0.1-0.3,0.3-0.3,0.7c0,0.1,0.1,0.2,0.1,0.4c0,0.5-0.1,0.9-0.3,1.4
			c-0.2,0.5-0.4,0.8-0.7,0.8c-0.4,0.1-0.5,0.4-0.5,0.9c0,0.5-0.1,0.9-0.3,1.1c-0.2,0.2-0.4,0.8-0.4,1.7c-0.1,1-0.3,1.5-0.6,1.5
			c-0.4,0-0.5,0.2-0.4,0.5c0,0.2,0,0.4,0,0.4c-0.1,0.1-0.2,0.1-0.4,0.1c-0.4,0-0.7-0.1-0.9-0.2c-0.5-0.3-0.7-1.2-0.8-2.9
			c0-0.7-0.1-1.2-0.4-1.4c-0.2-0.2-0.3-0.7-0.3-1.6c0-1.3-0.3-2.2-0.9-2.6c-0.2-0.1-0.2-0.3,0.1-0.4c0.1,0,0.2-0.2,0.3-0.4
			c0.1-0.2,0.1-0.5,0.1-0.7c0-0.2-0.1-0.3-0.2-0.3c-0.1,0-0.3-0.3-0.4-0.8c-0.1-0.6-0.4-0.9-0.7-0.9c-0.3-0.1-0.4-0.2-0.4-0.3
			c0-0.4,0.5-0.5,1.4-0.5c1.3,0,1.9-0.2,1.9-0.7c0-0.2,0.1-0.4,0.3-0.4c0.2,0,0.1-0.3-0.3-0.8c-0.4-0.5-0.9-0.8-1.6-0.8
			c-0.7,0-1.1-0.1-1.2-0.3c-0.1-0.1-0.3-0.1-0.7,0.1c-0.4,0.2-0.6,0.2-0.7-0.1c-0.2-0.2-0.3-0.3-0.4-0.1c-0.1,0.2-0.5,0.3-1.1,0.3
			c-0.4,0-0.6,0-0.8-0.1c-0.1-0.1-0.2-0.3-0.3-0.7c-0.1-0.5-0.3-0.8-0.7-0.8c-0.2,0-0.5,0.2-0.8,0.5c-0.4,0.4-0.7,0.5-1.2,0.5
			c-0.4,0-0.6,0.1-0.6,0.4c0,0.3-0.1,0.4-0.3,0.4s-0.3,0.2-0.3,0.6C240.6,80.1,240.7,80.3,240.9,80.3z"/>
		<path d="M150.8,783.9c0-0.3-0.1-0.5-0.2-0.6c-0.1-0.1-0.1-0.2,0-0.4c0.1-0.1,0.1-0.2,0.1-0.2c0-0.1-0.1-0.2-0.2-0.2
			c-0.1-0.1-0.2-0.2-0.2-0.3c0-0.2-0.1-0.3-0.3-0.5c-0.2-0.2-0.4-0.3-0.5-0.3c-0.1,0-0.2,0-0.2,0.1c0,0.1-0.3,0.1-0.9,0.2
			c-0.5,0.1-1.1,0.1-1.7,0.1c-0.6,0-0.9,0-1,0.1c-0.1,0-0.5,0.1-1.4,0.1c-0.9,0.1-1.8,0.2-2.7,0.3c-0.9,0.1-1.4,0.2-1.4,0.2
			c0,0,0,0.1,0,0.2c0,0.1,0,0.2,0.1,0.3c0.1,0.2,0.1,0.3,0.2,0.4c0.1,0,0.3,0.1,0.6,0.1c0.5,0,0.9,0.1,1,0.3
			c0.1,0.2,0.2,0.7,0.2,1.6c0,0.9-0.1,1.4-0.2,1.5c-0.1,0.1-0.1,0.2,0,0.4c0.1,0.3,0.2,0.5,0,0.7c-0.1,0.2-0.2,0.3-0.3,0.3
			c-0.1,0,0,0.1,0.1,0.2c0.1,0.1,0.1,0.3,0.1,0.6c0,0.1,0,0.4-0.1,0.8c-0.1,1.4-0.2,2.3-0.2,2.6c-0.1,0.4-0.1,0.5-0.3,0.6
			c-0.2,0.1-0.5,0.3-0.8,0.6l-0.5,0.6h5v-0.5c0-0.2,0-0.4-0.1-0.4c0-0.1-0.1-0.1-0.3-0.1c-0.2,0-0.4,0-0.4-0.1
			c0-0.1-0.1-0.1-0.2-0.1s-0.2-0.1-0.3-0.3c0-0.1,0-0.4,0-1.2c0-1.2,0-2.1,0.1-2.8c0-0.1,0.5-0.1,1.4-0.1c0.8,0,1.3,0.1,1.5,0.2
			c0.3,0.1,0.4,0.4,0.4,0.9c0,0.3,0,0.5,0.1,0.5c0.1,0,0.1-0.1,0.3-0.2c0.1-0.1,0.3-0.2,0.5-0.1c0.2,0.1,0.3,0,0.3-0.2
			c0-0.2,0-0.3,0.1-0.4c0.1-0.1,0.1-0.2,0-0.2c-0.1-0.1-0.2-0.3-0.2-0.6c0-0.4,0.1-0.7,0.2-0.8c0.1-0.1,0.1-0.1,0.1-0.2
			c0-0.1,0-0.1-0.1-0.2c-0.1-0.1-0.1-0.2-0.1-0.2c0-0.1,0-0.1,0.1-0.2c0.2-0.1,0.2-0.2,0.2-0.4c0-0.3-0.4-0.4-1.1-0.4
			c-0.4,0-0.6,0.2-0.6,0.5c0,0.1,0,0.2,0.1,0.3c0.1,0.2,0,0.4,0,0.5c-0.1,0.1-0.4,0.2-1,0.3c-0.6,0.1-1.1,0.2-1.6,0.2H144v-0.6
			c0-0.4,0.1-0.6,0.2-0.7c0.1-0.1,0.2-0.2,0.2-0.4c0-0.3-0.1-0.5-0.2-0.8c-0.1-0.2-0.2-0.4-0.2-0.4c0-0.1,0.1-0.1,0.2-0.3
			c0.2-0.2,0.3-0.4,0.2-0.6c0-0.1,0-0.1,0-0.2c0-0.1,0.1-0.2,0.4-0.3c0.3-0.1,0.8-0.1,1.6-0.1c0.7,0,1.1-0.1,1.1-0.1
			c0.3,0,0.5,0.1,0.7,0.2c0.2,0.2,0.3,0.3,0.5,0.4c0.2,0.1,0.3,0.2,0.3,0.3c0,0.1,0.1,0.3,0.3,0.4c0.2,0.1,0.4,0.3,0.5,0.6
			c0.1,0.4,0.4,0.5,0.8,0.5c0.1,0,0.2,0,0.3-0.1c0.1-0.1,0.2-0.2,0.2-0.6c0-0.3-0.1-0.5-0.2-0.5
			C150.8,784.4,150.8,784.2,150.8,783.9z"/>
		<path d="M164.1,782c-0.1-0.1-0.7-0.1-1.8-0.1c-1,0-1.5,0-1.5,0.1c0,0.1-0.2,0.1-0.5,0.1c-0.3,0-0.5,0.1-0.5,0.2
			c0,0.1,0,0.2-0.1,0.2c-0.1,0-0.1,0.1-0.1,0.3c0,0.3,0.1,0.4,0.2,0.5c0.1,0.1,0.2,0.5,0.2,1.3c0,0.8,0,1.2,0.1,1.3
			c0.1,0,0.1,0.4,0.1,1.1c0,0.7,0,1-0.1,1.1c-0.1,0-0.2,0.8-0.2,2.2c0,1.2-0.1,2-0.2,2.2c-0.1,0.2-0.4,0.4-0.9,0.5
			c-0.3,0-0.5,0.1-0.5,0.1c-0.1,0.1-0.1,0.2-0.1,0.4c0,0.3,0.1,0.5,0.2,0.5c0.2,0,0.3,0.1,0.5,0.2c0.2,0.2,0.3,0.2,0.3,0.1
			c0.1-0.1,0.8-0.2,2.1-0.2c1.1,0,1.6,0.1,1.6,0.2c0,0.1,0.1,0.1,0.3,0.1c0.2,0,0.3,0,0.3-0.1s0.1-0.2,0.3-0.3
			c0.2-0.1,0.3-0.2,0.3-0.3c0-0.4-0.4-0.7-1-0.8l-0.6-0.1l0.1-3.5c0-2.3,0.1-3.5,0.2-3.6c0.1-0.1,0.1-0.4,0.1-1
			c0.1-1.1,0.2-1.6,0.4-1.6c0.1,0,0.2,0,0.2-0.1c0-0.1,0.1-0.2,0.4-0.2c0.2,0,0.4-0.1,0.5-0.2c0.1-0.1,0.2-0.2,0.2-0.4
			C164.3,782.3,164.2,782.1,164.1,782z M160.6,790.9c-0.1,0-0.2,0-0.2-0.1c0-0.1,0.1-0.1,0.2-0.1c0.1,0,0.2,0,0.2,0.1
			C160.8,790.9,160.7,790.9,160.6,790.9z M161.4,787.1c-0.1,0-0.2-0.1-0.2-0.3c0-0.2,0.1-0.3,0.2-0.3c0.1,0,0.2,0.1,0.2,0.3
			C161.7,787,161.6,787.1,161.4,787.1z"/>
		<path d="M183.4,781h-2c-1.3,0-2,0-2,0.1c0,0.1-0.1,0.2-0.2,0.2c-0.1,0-0.3,0.1-0.5,0.4c-0.2,0.2-0.2,0.4-0.1,0.4
			c0.1,0,0.2,0.1,0.3,0.2c0.1,0.1,0.2,0.2,0.6,0.2c0.2,0,0.3,0,0.4,0.1c0.1,0.1,0.1,0.2,0.2,0.3c0.1,0.2,0,0.4-0.1,0.4
			c-0.1,0-0.2,0.3-0.2,0.6c0,0.4-0.1,0.6-0.2,0.7c-0.2,0.1-0.2,0.2-0.2,0.4c0,0,0,0.1,0,0.2c0,0.3-0.1,0.5-0.2,0.8
			c-0.1,0.3-0.2,0.4-0.4,0.5c-0.2,0.1-0.3,0.2-0.3,0.5c0,0.3,0,0.5-0.1,0.6c-0.1,0.1-0.2,0.4-0.2,0.9c-0.1,0.5-0.2,0.8-0.3,0.8
			c-0.1,0-0.2,0.1-0.2,0.2v0.2c0,0.1-0.1,0.2-0.2,0.2c-0.2,0-0.4,0-0.5-0.1c-0.2-0.2-0.4-0.7-0.4-1.5c0-0.3-0.1-0.5-0.2-0.8
			c-0.1-0.2-0.2-0.5-0.2-0.9c0-0.8-0.2-1.2-0.5-1.4c-0.1-0.1-0.1-0.1,0-0.2c0.1-0.1,0.2-0.2,0.2-0.5c0-0.2,0-0.3-0.1-0.3
			c-0.1,0-0.1-0.1-0.2-0.4c-0.1-0.3-0.2-0.4-0.4-0.5c-0.2-0.1-0.2-0.1-0.2-0.2c0-0.2,0.2-0.3,0.7-0.3c0.7,0,1.1-0.1,1.1-0.4
			c0-0.1,0.1-0.2,0.2-0.2s0.1-0.1-0.2-0.4c-0.2-0.3-0.5-0.4-0.8-0.4c-0.4,0-0.6-0.1-0.6-0.2c-0.1-0.1-0.2-0.1-0.4,0.1
			c-0.2,0.1-0.3,0.1-0.4,0c-0.1-0.1-0.2-0.2-0.2,0c-0.1,0.1-0.3,0.2-0.6,0.2c-0.2,0-0.3,0-0.4-0.1c-0.1-0.1-0.1-0.2-0.2-0.4
			c-0.1-0.3-0.2-0.4-0.4-0.4c-0.1,0-0.3,0.1-0.5,0.3c-0.2,0.2-0.4,0.3-0.6,0.3c-0.2,0-0.3,0.1-0.3,0.2c0,0.1,0,0.2-0.1,0.2
			c-0.1,0-0.1,0.1-0.1,0.4c0,0.2,0,0.4,0.1,0.4c0.1,0,0.1,0.1,0.1,0.2c0,0.1,0.2,0.2,0.5,0.3c0.3,0.1,0.6,0.2,0.8,0.5
			c0.2,0.3,0.4,0.6,0.4,0.9c0,0.3,0.1,0.5,0.2,0.9c0.1,0.3,0.2,0.5,0.3,0.5c0.1,0,0.1,0.2,0.1,0.5c0,0.3,0.1,0.5,0.3,0.7
			c0.2,0.2,0.3,0.5,0.4,1c0.1,0.5,0.2,0.9,0.2,1.4c0,0.5,0.1,0.7,0.2,0.8c0.1,0,0.2,0.1,0.1,0.3c0,0.2,0,0.3,0.1,0.4
			c0.1,0.1,0.2,0.4,0.2,0.9s0.1,0.8,0.2,0.8c0.1,0,0.2,0.2,0.3,0.6c0.1,0.4,0.2,0.6,0.3,0.6c0.1,0,0.2,0.1,0.3,0.4
			c0.1,0.4,0.3,0.6,0.7,0.6c0.1,0,0.2,0,0.3-0.1c0.2,0,0.3-0.1,0.3-0.1c0-0.1,0.1-0.2,0.1-0.4c0-0.3,0.1-0.5,0.2-0.5
			c0.1,0,0.1-0.2,0.1-0.5s0.1-0.5,0.2-0.5c0.1-0.1,0.2-0.3,0.2-0.8c0-0.5,0.1-0.8,0.4-1.1c0.1-0.1,0.2-0.2,0.4-0.3
			c0.2-0.1,0.3-0.2,0.3-0.3c0.1-0.1,0.1-0.3,0.1-0.6c0-0.4,0.1-0.6,0.2-0.8c0.1-0.1,0.2-0.3,0.3-0.8c0.1-0.5,0.2-0.7,0.3-0.8
			c0.1-0.1,0.2-0.3,0.2-0.5c0-0.2,0.1-0.4,0.4-0.4c0.1,0,0.1,0,0.2,0c0.1,0,0.1,0,0.1-0.1c0,0,0-0.1,0.1-0.1c0,0,0-0.1,0-0.1
			c0-0.1,0-0.3,0-0.5c0-0.6,0.1-0.8,0.3-0.8c0.2,0,0.3-0.1,0.3-0.4c0-0.3,0.1-0.5,0.4-0.7c0.2-0.2,0.5-0.4,0.8-0.4
			c0.4-0.1,0.7-0.3,0.7-0.8c0-0.1,0-0.2-0.1-0.4L183.4,781z"/>
		<path d="M190.4,791.9c0,0.1,0,0.2,0.1,0.2c0,0,0.1,0,0.1-0.1c0.1-0.2,0.1-0.3,0-0.3C190.5,791.7,190.4,791.8,190.4,791.9z"/>
		<path d="M200.7,790.2c-0.1,0-0.3,0.2-0.5,0.5c-0.3,0.3-0.4,0.5-0.4,0.7c0,0.1-0.1,0.2-0.4,0.2c-0.1,0-0.2,0-0.3,0.1
			c0,0-0.1,0.1-0.1,0.1c0,0,0,0.1,0,0.3c0,0.2-0.1,0.3-0.4,0.3c0,0-0.1,0-0.1,0c-0.1,0-0.1,0-0.2,0c-0.2,0-0.4,0.1-0.6,0.3
			s-0.4,0.3-0.6,0.3c-0.1,0-0.2-0.1-0.2-0.2c0-0.1-0.1-0.1-0.4,0c-0.2,0.1-0.6,0.2-1.2,0.2c-0.5,0-0.7,0-0.7-0.1s-0.1-0.1-0.2-0.1
			c-0.1,0-0.1-0.1-0.2-0.2c-0.1-0.2-0.1-0.3-0.1-0.4c0-0.1,0-0.2,0-0.3c0-0.2,0-0.4,0-0.6c0-0.3,0-0.5,0-0.8c0-0.3,0-0.5,0-0.8
			c0-0.3,0-0.5,0-0.6v-0.2c0-0.1,0.4-0.1,1.3-0.1c0.7,0,1.2,0.1,1.4,0.2c0.2,0.1,0.4,0.4,0.4,0.8c0,0.2,0,0.3,0.1,0.3
			c0,0,0.1,0,0.2,0c0.1-0.1,0.3-0.1,0.5-0.1c0.1,0,0.2,0,0.3-0.1c0-0.1,0.1-0.2,0.1-0.5c0-0.1,0-0.2,0-0.3c0-0.2,0-0.3,0-0.4v-0.2
			c0-0.3,0-0.6,0.1-0.7c0.1-0.1,0.1-0.3,0-0.4c-0.1-0.1-0.1-0.3,0.1-0.4c0.1-0.1,0.2-0.2,0.2-0.4c0-0.3-0.3-0.4-1-0.4
			c-0.4,0-0.6,0.2-0.6,0.5c0,0.1,0,0.2,0.1,0.3c0,0.2,0,0.4,0,0.5c-0.1,0.1-0.3,0.2-0.9,0.3c-0.5,0.1-1,0.1-1.5,0.1h-0.6v-0.6
			c0-0.4,0.1-0.6,0.2-0.6c0.1,0,0.2-0.1,0.2-0.4c0-0.3-0.1-0.5-0.2-0.9c-0.1-0.2-0.2-0.4-0.1-0.4c0-0.1,0.1-0.1,0.2-0.3
			c0.2-0.1,0.3-0.3,0.2-0.5c0,0,0-0.1,0-0.2c0-0.1,0.1-0.3,0.4-0.3c0.3-0.1,0.7-0.1,1.5-0.2c0.7,0,1.1-0.1,1.1-0.1
			c0.3,0,0.5,0.1,0.6,0.2c0.1,0.2,0.3,0.3,0.5,0.4c0.2,0.1,0.3,0.2,0.3,0.3c0,0.1,0.1,0.2,0.3,0.3c0.2,0.1,0.3,0.2,0.3,0.3
			c0,0.2,0.1,0.3,0.3,0.5c0.2,0.2,0.4,0.2,0.6,0.2h0c0.3,0,0.4-0.2,0.4-0.6c0-0.2-0.1-0.3-0.2-0.5c-0.1-0.1-0.2-0.3-0.2-0.5
			c0-0.3-0.1-0.5-0.2-0.5c-0.1,0-0.1-0.1,0-0.4c0.1-0.1,0.1-0.2,0.1-0.3c0,0-0.1-0.1-0.1-0.1c-0.1-0.1-0.2-0.2-0.2-0.3
			c0-0.1-0.1-0.3-0.3-0.5c-0.2-0.2-0.4-0.3-0.6-0.1c-0.3,0.1-1.8,0.3-4.7,0.4h-0.7c-1.5,0-2.2-0.1-2.3-0.3c0-0.1-0.1-0.1-0.2-0.1
			s-0.2,0-0.2,0.1l0,0.1c0,0.1,0,0.1,0,0.1c0,0,0,0.1,0,0.2c0,0.1,0,0.2,0,0.2c0,0.2-0.1,0.3-0.3,0.3c-0.2,0.1-0.3,0.2-0.2,0.5
			c0.1,0.2,0.1,0.4,0.2,0.5s0.2,0.1,0.3,0.1c0.1,0,0.3,0,0.4,0c0.1,0,0.2,0,0.4,0c0.3,0,0.5,0.1,0.6,0.4c0.1,0.2,0.1,0.7,0.1,1.4
			c0,0.9-0.1,1.4-0.2,1.4c-0.1,0-0.1,0.2,0,0.4c0.1,0.2,0.1,0.4,0,0.6c-0.1,0.2-0.2,0.3-0.3,0.3c-0.1,0-0.1,0.1,0.1,0.2
			c0.1,0.1,0.1,0.3,0.1,0.6c0,0.5-0.1,1.5-0.2,2.8l-0.1,0.9h-0.6c-0.4,0-0.6,0.1-0.6,0.3c0,0.2-0.1,0.3-0.3,0.3
			c-0.1,0-0.2,0.1-0.2,0.3c0,0.3,0.1,0.5,0.3,0.6c0.2,0.1,0.3,0.2,0.3,0.4c0,0.1,0.2,0.1,0.7,0.1c0.5,0,0.8-0.1,0.9-0.3
			c0.1-0.1,0.5-0.2,1.2-0.2c0.5,0,0.9,0,1.3,0c0.7,0,1.1,0.1,1.2,0.2c0,0.1,0.2,0.1,0.4,0c0.2-0.1,0.7-0.2,1.5-0.2
			c0.8,0,1.3,0,1.5-0.1c0.2,0,0.3-0.1,0.5-0.3c0.2-0.2,0.3-0.3,0.2-0.5c0-0.2,0-0.3,0.1-0.4c0.1-0.1,0.2-0.3,0.2-0.8
			c0-0.3,0-0.5,0-0.6c0-0.1,0.1-0.1,0.2-0.1c0.2,0,0.3-0.2,0.3-0.5c0-0.2-0.1-0.4-0.2-0.6C201,790.3,200.9,790.2,200.7,790.2z"/>
		<path d="M232.7,785.7c-0.2-0.1-0.2-0.2-0.2-0.5c0-0.3,0-0.5-0.1-0.5c-0.1,0-0.1-0.1-0.1-0.4c0-0.3-0.1-0.4-0.2-0.4
			c-0.1,0-0.2-0.1-0.3-0.3c-0.1-0.2-0.2-0.3-0.3-0.4c-0.1-0.1-0.2-0.2-0.2-0.4c0-0.2-0.1-0.3-0.4-0.3c-0.7,0-1-0.1-1-0.4
			c0-0.1-0.1-0.2-0.2-0.2c-0.1,0-0.2,0-0.2-0.1c0-0.1-0.1-0.1-0.3-0.1c-0.2,0-0.3-0.1-0.4-0.2c0-0.1-0.5-0.2-1.5-0.2
			c-0.9,0-1.5,0.1-1.6,0.2c-0.1,0.1-0.2,0.2-0.4,0.2c-0.2,0-0.3,0.1-0.4,0.3c-0.1,0.2-0.3,0.4-0.6,0.4c-0.3,0-0.6,0.1-1.1,0.2
			c-0.5,0.1-0.7,0.3-0.8,0.5c0,0.2-0.2,0.4-0.5,0.7c-0.3,0.3-0.4,0.5-0.4,0.5c0,0.1-0.1,0.1-0.2,0.1c-0.1,0-0.2,0.1-0.3,0.4
			c-0.1,0.2-0.2,0.4-0.3,0.7c-0.2,0.3-0.2,0.8-0.2,1.8c0,1.2,0.1,2.1,0.4,2.9c0.5,1.4,0.9,2.2,1.2,2.3c0.2,0,0.3,0.1,0.3,0.3
			c0,0.2,0.2,0.2,0.4,0.2c0.2,0,0.4,0,0.4,0.1c0,0.1,0.1,0.1,0.3,0.1s0.3,0.1,0.3,0.4c0,0.2,0,0.3,0.1,0.4c0.1,0.1,0.2,0,0.4-0.1
			c0.1-0.1,0.2-0.1,0.3,0c0.2,0.1,0.9,0.2,2.2,0.2c1.1,0,1.7-0.1,1.7-0.2c0-0.1,0.3-0.2,0.7-0.2c0.4,0,0.6-0.1,0.6-0.2
			c0-0.2,0.1-0.3,0.2-0.3c0,0,0.2-0.1,0.4-0.3c0.3-0.2,0.4-0.3,0.5-0.3c0.1,0,0.2-0.1,0.2-0.3c0.1-0.2,0.2-0.3,0.3-0.3
			c0.1,0,0.2-0.1,0.3-0.3c0-0.2,0.2-0.3,0.4-0.3c0.2-0.1,0.3-0.1,0.3-0.2c0-0.1,0.1-0.1,0.2-0.1c0.1,0,0.2-0.2,0.2-0.6
			c0-0.3,0-0.5-0.1-0.5c-0.1,0-0.1-0.1,0-0.2c0.1-0.1,0.2-0.8,0.2-2.1c0-0.3,0-0.7,0-1.1C232.9,786,232.8,785.7,232.7,785.7z
			 M230.5,788.8c-0.1,0-0.2,0.2-0.2,0.4c0,0.3-0.1,0.4-0.2,0.5c-0.1,0.1-0.2,0.4-0.3,0.8c-0.1,0.4-0.1,0.6-0.3,0.6
			c-0.1,0-0.2,0-0.2,0.1c0,0.1-0.1,0.2-0.4,0.2c-0.3,0.1-0.4,0.2-0.4,0.3c0,0.1,0,0.2-0.1,0.2c-0.1,0.1-0.2,0.1-0.4,0.2
			c-0.1,0.1-0.2,0.1-0.3,0.1c0,0.1-0.2,0.1-0.4,0.1c-0.2,0-0.3,0.1-0.5,0.2c-0.1,0.1-0.2,0.1-0.4,0.1c-0.2,0-0.4,0-0.7-0.1
			c-0.5-0.1-1-0.3-1.3-0.6c-0.3-0.3-0.7-0.8-1-1.5c-0.3-0.5-0.4-0.9-0.5-1.1c0-0.2-0.1-0.7-0.1-1.4c0-0.7,0-1.1,0.1-1.4
			c0-0.2,0.1-0.5,0.3-0.8c0.3-0.5,0.6-0.9,1-1.3c0.4-0.4,0.8-0.6,1-0.7c0.3,0,0.5-0.1,0.5-0.3c0-0.1,0.1-0.2,0.2-0.2
			c0.1,0,0.2,0,0.2-0.1c0-0.1,0.1-0.1,0.3-0.1c0.2,0,0.3,0,0.3,0.1c0,0.1,0.3,0.1,0.9,0.1c0.5,0,0.8,0.1,0.8,0.2
			c0,0.1,0.1,0.2,0.3,0.3c0.2,0.1,0.3,0.2,0.3,0.3s0.1,0.2,0.3,0.3c0.3,0.1,0.5,0.4,0.5,0.8c0,0.2,0.1,0.5,0.3,0.8
			c0.2,0.3,0.3,0.7,0.3,1.1c0,0.5,0,0.7,0.1,0.8c0.1,0.1,0.1,0.2,0.1,0.4C230.7,788.6,230.6,788.7,230.5,788.8z"/>
		<path d="M250.4,783.9c0-0.3-0.1-0.5-0.2-0.6c-0.1-0.1-0.1-0.2,0-0.4c0.1-0.1,0.1-0.2,0.1-0.2c0-0.1-0.1-0.2-0.2-0.2
			c-0.1-0.1-0.2-0.2-0.2-0.3c0-0.2-0.1-0.3-0.3-0.5c-0.2-0.2-0.4-0.3-0.5-0.3c-0.1,0-0.2,0-0.2,0.1c0,0.1-0.3,0.1-0.9,0.2
			c-0.5,0.1-1.1,0.1-1.7,0.1c-0.6,0-0.9,0-1,0.1c-0.1,0-0.5,0.1-1.4,0.1c-0.9,0.1-1.8,0.2-2.7,0.3c-0.9,0.1-1.4,0.2-1.4,0.2
			c0,0,0,0.1,0,0.2c0,0.1,0,0.2,0.1,0.3c0.1,0.2,0.1,0.3,0.2,0.4c0.1,0,0.3,0.1,0.6,0.1c0.5,0,0.9,0.1,1,0.3
			c0.1,0.2,0.2,0.7,0.2,1.6c0,0.9-0.1,1.4-0.2,1.5c-0.1,0.1-0.1,0.2,0,0.4c0.1,0.3,0.2,0.5,0,0.7c-0.1,0.2-0.2,0.3-0.3,0.3
			c-0.1,0,0,0.1,0.1,0.2c0.1,0.1,0.1,0.3,0.1,0.6c0,0.1,0,0.4-0.1,0.8c-0.1,1.4-0.2,2.3-0.2,2.6c-0.1,0.4-0.1,0.5-0.3,0.6
			c-0.2,0.1-0.5,0.3-0.8,0.6l-0.5,0.6h5v-0.5c0-0.2,0-0.4-0.1-0.4c0-0.1-0.1-0.1-0.3-0.1c-0.2,0-0.4,0-0.4-0.1
			c0-0.1-0.1-0.1-0.2-0.1s-0.2-0.1-0.3-0.3c0-0.1,0-0.4,0-1.2c0-1.2,0-2.1,0.1-2.8c0-0.1,0.5-0.1,1.4-0.1c0.8,0,1.3,0.1,1.5,0.2
			c0.3,0.1,0.4,0.4,0.4,0.9c0,0.3,0,0.5,0.1,0.5c0.1,0,0.1-0.1,0.3-0.2c0.1-0.1,0.3-0.2,0.5-0.1c0.2,0.1,0.3,0,0.3-0.2
			c0-0.2,0-0.3,0.1-0.4c0.1-0.1,0.1-0.2,0-0.2c-0.1-0.1-0.2-0.3-0.2-0.6c0-0.4,0.1-0.7,0.2-0.8c0.1-0.1,0.1-0.1,0.1-0.2
			c0-0.1,0-0.1-0.1-0.2c-0.1-0.1-0.1-0.2-0.1-0.2c0-0.1,0-0.1,0.1-0.2c0.2-0.1,0.2-0.2,0.2-0.4c0-0.3-0.4-0.4-1.1-0.4
			c-0.4,0-0.6,0.2-0.6,0.5c0,0.1,0,0.2,0.1,0.3c0.1,0.2,0,0.4,0,0.5c-0.1,0.1-0.4,0.2-1,0.3c-0.6,0.1-1.1,0.2-1.6,0.2h-0.5v-0.6
			c0-0.4,0.1-0.6,0.2-0.7c0.1-0.1,0.2-0.2,0.2-0.4c0-0.3-0.1-0.5-0.2-0.8c-0.1-0.2-0.2-0.4-0.2-0.4c0-0.1,0.1-0.1,0.2-0.3
			c0.2-0.2,0.3-0.4,0.2-0.6c0-0.1,0-0.1,0-0.2c0-0.1,0.1-0.2,0.4-0.3c0.3-0.1,0.8-0.1,1.6-0.1c0.7,0,1.1-0.1,1.1-0.1
			c0.3,0,0.5,0.1,0.7,0.2c0.2,0.2,0.3,0.3,0.5,0.4c0.2,0.1,0.3,0.2,0.3,0.3c0,0.1,0.1,0.3,0.3,0.4c0.2,0.1,0.4,0.3,0.5,0.6
			c0.1,0.4,0.4,0.5,0.8,0.5c0.1,0,0.2,0,0.3-0.1c0.1-0.1,0.2-0.2,0.2-0.6c0-0.3-0.1-0.5-0.2-0.5
			C250.5,784.4,250.4,784.2,250.4,783.9z"/>
		<path d="M286.1,782.4c-0.1,0-0.3,0-0.5,0c-0.2,0-0.4,0-0.4,0c-0.4,0-0.6,0-0.7,0.1c-0.1,0-0.3,0.1-0.4,0.3
			c-0.2,0.2-0.3,0.3-0.3,0.4c0,0.1,0,0.1,0.2,0.2c0.3,0.2,0.5,0.2,0.7,0.2c0.3,0,0.4,0.1,0.5,0.3c0.1,0.2,0,0.3-0.1,0.4
			c-0.1,0-0.2,0.2-0.2,0.6c0,0.4-0.1,0.6-0.2,0.6c-0.2,0.1-0.2,0.2-0.2,0.4v0.4c0,0.6-0.1,0.9-0.3,0.9c-0.1,0-0.2,0.1-0.3,0.3
			c0,0.2-0.1,0.7-0.3,1.5c-0.1,0.4-0.2,0.6-0.4,0.6c-0.1,0-0.2,0.1-0.2,0.2c0,0.1,0,0.2-0.2,0.2c-0.3,0-0.4-0.1-0.5-0.2
			c-0.1-0.2-0.2-0.5-0.3-0.9c-0.1-0.4-0.2-1-0.2-1.7c-0.1-0.5-0.2-0.8-0.3-0.9c-0.1-0.1-0.1-0.4-0.1-0.7c0-0.3,0-0.5-0.1-0.5
			c-0.1,0-0.1-0.1-0.1-0.4c0-0.2-0.1-0.4-0.2-0.5c-0.1-0.1-0.2-0.1-0.2-0.2c0-0.1,0.2-0.2,0.6-0.2c0.4,0,0.7-0.1,0.9-0.3
			c0.1-0.1,0.2-0.2,0.2-0.3c0-0.1,0-0.2-0.1-0.4c-0.1-0.2-0.3-0.4-0.6-0.5c-0.3-0.1-0.8-0.1-1.6-0.1c-0.6,0-1-0.1-1-0.3
			c-0.1-0.2-0.1-0.3-0.2-0.3c-0.1,0-0.2,0.1-0.5,0.3s-0.4,0.3-0.5,0.3c-0.3,0-0.5,0.2-0.6,0.6v0.1l0,0.1c0,0.3,0.3,0.6,0.9,0.7
			c0.1,0,0.3,0.1,0.4,0.1c0.1,0.1,0.1,0.2,0.1,0.2c0,0.1-0.1,0.1-0.2,0.1c-0.1,0-0.1,0.2-0.1,0.6c0,0.4-0.1,0.6-0.2,0.6
			c-0.1,0-0.1,0.2-0.1,0.5c0,0.7-0.2,1.1-0.5,1.2c-0.1,0-0.2,0.1-0.3,0.3c-0.1,0.2-0.1,0.7-0.3,1.5c-0.1,0.4-0.2,0.6-0.4,0.6
			c-0.2,0-0.2,0.1-0.2,0.2c0,0.1,0,0.2-0.2,0.2c-0.3,0-0.5-0.1-0.6-0.2c-0.1-0.2-0.2-0.5-0.2-0.9c0-0.6-0.1-0.9-0.2-1
			c-0.1-0.1-0.1-0.3-0.1-0.6c0-0.4-0.1-0.7-0.2-0.9c-0.1-0.3-0.2-0.5-0.1-0.8c0-0.3,0-0.5-0.1-0.5c-0.1,0-0.2-0.1-0.2-0.4
			c0-0.2-0.1-0.4-0.2-0.5c-0.1-0.1-0.2-0.1-0.2-0.2c0-0.1,0.2-0.2,0.6-0.2c0.4,0,0.7-0.1,0.9-0.3c0.1-0.1,0.2-0.2,0.2-0.3
			c0-0.1-0.1-0.2-0.2-0.4c-0.1-0.2-0.2-0.3-0.4-0.4c-0.2-0.1-0.5-0.1-0.9-0.1c-0.1,0-0.2,0-0.4,0c-0.2,0-0.4,0-0.5,0h-0.4
			c-0.3,0-0.4,0-0.5-0.1c-0.1,0-0.1-0.1-0.2-0.3c-0.1-0.2-0.1-0.4-0.3-0.4c-0.1,0-0.2,0.1-0.5,0.3c-0.2,0.2-0.4,0.3-0.5,0.3
			c-0.1,0-0.3,0.1-0.4,0.2c-0.1,0.1-0.2,0.3-0.2,0.4c0,0.4,0.3,0.7,0.9,0.8c0.5,0.1,0.9,0.6,1,1.6c0.1,0.4,0.2,0.6,0.3,0.8
			s0.2,0.4,0.2,0.7c0,0.3,0.1,0.5,0.2,0.6c0.4,0.4,0.5,1.1,0.5,1.9c0,0.4,0,0.6,0.1,0.7c0.1,0.1,0.1,0.2,0.1,0.4
			c0,0.2,0,0.3,0.1,0.4c0.1,0.1,0.2,0.3,0.2,0.8c0,0.4,0.1,0.6,0.2,0.6c0.1,0,0.2,0.2,0.2,0.5c0,0.3,0.1,0.5,0.2,0.5
			c0.1,0,0.2,0.1,0.3,0.4c0.1,0.3,0.3,0.5,0.6,0.5c0.1,0,0.3-0.1,0.4-0.2c0.1-0.1,0.2-0.3,0.2-0.4c0-0.3,0-0.4,0.1-0.4
			c0.1,0,0.2-0.1,0.2-0.4c0-0.3,0-0.5,0.1-0.5c0.1,0,0.2-0.2,0.2-0.5c0-0.3,0.1-0.6,0.3-0.9c0.2-0.3,0.4-0.5,0.6-0.6
			c0.2-0.1,0.3-0.3,0.3-0.6c0-0.4,0.1-0.6,0.2-0.6c0.1,0,0.2-0.2,0.2-0.5c0-0.3,0.1-0.6,0.2-0.8c0.1-0.2,0.2-0.4,0.1-0.5
			c-0.1-0.2,0.1-0.3,0.4-0.4c0.3-0.1,0.4-0.2,0.5-0.3c0.1,0,0.1,0.1,0.1,0.4c0,0.4,0.1,0.6,0.2,0.8c0.4,0.5,0.6,1.1,0.6,1.9
			c0,0.4,0,0.6,0.1,0.6c0.1,0,0.1,0.1,0.1,0.4c-0.1,0.2,0,0.4,0.1,0.5c0.1,0.1,0.2,0.3,0.2,0.8c0,0.4,0.1,0.6,0.2,0.6
			c0.2,0,0.2,0.2,0.2,0.5c0,0.3,0.1,0.5,0.2,0.5c0.1,0,0.2,0.1,0.3,0.4c0.1,0.3,0.3,0.5,0.6,0.5c0.1,0,0.3-0.1,0.4-0.2
			c0.1-0.1,0.2-0.3,0.2-0.4c0-0.3,0.1-0.4,0.2-0.4c0.1,0,0.1-0.1,0.1-0.4c0-0.3,0-0.5,0.1-0.5c0.1,0,0.2-0.2,0.2-0.5
			c0-0.3,0.1-0.6,0.3-1c0.2-0.4,0.4-0.6,0.5-0.6c0.1,0,0.2-0.2,0.2-0.6c0-0.5,0.1-0.7,0.2-0.7c0.1,0,0.2-0.2,0.2-0.5
			s0.1-0.6,0.2-0.8c0.1-0.2,0.2-0.4,0.2-0.6c0-0.1,0.1-0.2,0.4-0.3c0.3-0.1,0.4-0.2,0.4-0.3c0-0.1,0-0.1,0-0.2c0-0.1,0-0.1,0-0.2
			c0-0.6,0.1-0.9,0.3-0.9c0.1,0,0.1-0.1,0.2-0.4c0-0.3,0.1-0.4,0.2-0.4c0.1,0,0.2-0.1,0.2-0.2c0-0.1,0.1-0.2,0.4-0.2
			c0.3,0,0.5-0.1,0.6-0.2c0.1-0.1,0.2-0.3,0.2-0.6l0-0.4L286.1,782.4z"/>
		<path d="M308.3,792.9c-0.1,0-0.1-0.1-0.2-0.4c-0.1-0.2-0.1-0.3-0.2-0.3c0,0-0.3,0.1-0.8,0.2c0,0-0.1,0-0.2,0c-0.4,0-0.7-0.6-1-1.7
			c-0.2-0.8-0.4-1.3-0.4-1.4c-0.1-0.1-0.2-0.3-0.2-0.5c-0.1-0.4-0.3-1.3-0.8-2.8c-0.5-1.5-0.7-2.4-0.8-2.7c-0.2-1-0.4-1.5-0.5-1.7
			c-0.1-0.2-0.2-0.3-0.4-0.3c-0.3-0.1-0.4,0-0.5,0.1c-0.1,0.1-0.2,0.2-0.4,0.2c-0.2,0-0.4,0.1-0.4,0.2c0,0.1-0.1,0.1-0.2,0.1
			c-0.1,0-0.2,0.2-0.4,0.6c-0.2,0.4-0.3,0.8-0.5,1.2c-0.1,0.4-0.2,0.6-0.3,0.7c-0.1,0.1-0.1,0.2-0.1,0.4c0,0.2-0.1,0.6-0.4,1.2
			c-0.3,0.6-0.5,1.1-0.5,1.5c-0.1,0.4-0.2,0.6-0.2,0.7c-0.1,0.1-0.2,0.3-0.4,0.8c-0.2,0.5-0.3,0.7-0.3,0.8c-0.1,0.2-0.2,0.4-0.2,0.5
			c0,0.2,0,0.2-0.1,0.2c-0.1,0-0.2,0.1-0.3,0.4c-0.1,0.2-0.2,0.4-0.2,0.6c0,0.1-0.2,0.3-0.5,0.6c-0.3,0.3-0.5,0.4-0.7,0.4
			c-0.2,0-0.3,0.1-0.5,0.4c-0.2,0.2-0.4,0.4-0.5,0.4c-0.1,0-0.2,0.1-0.4,0.4c-0.1,0.2-0.1,0.3-0.1,0.4c0,0.1,0.1,0.3,0.4,0.5
			l0.5,0.4l2-0.1c1.1,0,1.8-0.1,2.1-0.1c0.3,0,0.5-0.1,0.5-0.2c0,0,0-0.1-0.1-0.2c-0.1-0.2-0.1-0.3,0.1-0.3c0.1,0,0.2-0.1,0.2-0.2
			c0-0.1-0.1-0.2-0.2-0.2c-0.1,0-0.3-0.1-0.4-0.2c-0.1-0.1-0.4-0.2-0.7-0.3c-0.5-0.1-0.7-0.3-0.7-0.5c0-0.1,0-0.2,0.1-0.3
			c0.1-0.2,0.2-0.3,0.2-0.5c0-0.1,0-0.2,0.1-0.2c0.1,0,0.1-0.2,0.1-0.7v-0.7h0.6c0.4,0,0.7-0.1,0.7-0.2c0.1-0.2,0.6-0.2,1.5-0.2h0.4
			c0.7,0,1,0,1.1,0.1c0.1,0.1,0.2,0.4,0.2,0.8c0,0.5,0.1,0.8,0.3,0.9c0.2,0.2,0.3,0.4,0.3,0.6c0,0,0,0,0,0.1c0,0,0,0.1,0,0.1
			c0,0.3-0.1,0.4-0.1,0.5c-0.1,0.1-0.3,0.1-0.6,0.2c-0.5,0.1-0.7,0.2-0.8,0.3c0,0.1-0.1,0.1-0.3,0.1c-0.2,0-0.3,0.1-0.3,0.3
			c0,0.3,0,0.4,0.1,0.5c0.1,0.1,0.3,0.1,0.6,0.1c0.3,0,0.7,0,1.3-0.1c0.6-0.1,1.3-0.1,2-0.1c0.4,0,0.7,0,0.8,0c0.2,0,0.4,0,0.6,0
			c0.3,0,0.5-0.1,0.5-0.3c0.1-0.2,0.1-0.3,0.2-0.3c0.1,0,0.1-0.2,0.1-0.5S308.4,792.9,308.3,792.9z M302.1,788.4c0,0-0.1,0-0.2,0
			c-0.1,0-0.1,0-0.1,0c-0.3,0-0.5,0.1-0.6,0.2c-0.1,0.1-0.3,0.2-0.4,0.2c-0.2,0-0.3-0.1-0.4-0.2c-0.1-0.1-0.2-0.2-0.3-0.2
			c-0.1,0-0.2-0.1-0.2-0.2c0-0.1,0-0.2,0.1-0.2c0.1,0,0.2-0.1,0.3-0.4c0.1-0.3,0.2-0.5,0.2-0.7c0-0.2,0.1-0.3,0.2-0.4
			c0.1,0,0.2-0.3,0.2-0.8c0.1-0.6,0.3-0.9,0.6-0.9c0.2,0,0.3,0.1,0.5,0.2c0.1,0.1,0.2,0.2,0.4,0.5c0.1,0.3,0.2,0.4,0.2,0.5
			c0,0-0.1,0.1-0.3,0.1c-0.2,0-0.3,0.1-0.4,0.2c-0.1,0.1,0,0.2,0.1,0.2c0.1,0,0.2,0.1,0.2,0.2c0.1,0.1,0.2,0.3,0.2,0.4
			c0.1,0.2,0.1,0.2,0.2,0.3c0.1,0.1,0.1,0.3,0.2,0.6l0.1,0.5L302.1,788.4z"/>
		<path d="M328.5,782c-0.1,0-0.2,0-0.3,0.1c-0.2,0.1-0.3,0.1-0.3,0.1c-0.1,0-0.1-0.1-0.2-0.2c-0.1-0.2-0.3-0.3-0.4-0.3
			c-0.1,0-0.2-0.1-0.2-0.3c0-0.2-0.1-0.3-0.3-0.3c-0.2,0-0.3,0.1-0.3,0.3c0,0.2,0.1,0.3,0.2,0.3s0.2,0.1,0.2,0.3
			c0,0.2-0.1,0.3-0.2,0.3c-0.2,0-0.3-0.1-0.3-0.4c-0.1-0.2-0.2-0.4-0.3-0.4c-0.1,0-0.1,0-0.2,0.1c-0.2,0.2-0.2,0.3,0,0.3
			c0.1,0,0.2,0.1,0.2,0.1c0,0.1-0.1,0.2-0.4,0.2c-0.2,0-0.4,0-0.4-0.1c0-0.1-0.1-0.1-0.4-0.1c-0.4,0-0.8,0.1-1.1,0.2
			c-0.4,0.2-0.6,0.4-0.6,0.7c0,0.3,0.3,0.5,0.8,0.6c0.4,0.1,0.6,0.1,0.6,0.2c0,0.1,0.1,0.1,0.3,0.1c0.3,0,0.5,0.2,0.6,0.6
			c0.1,0.4,0.2,1.2,0.2,2.4c0,1.4,0.1,2.2,0.1,2.4c0.1,0.1,0,0.3,0,0.6l-0.1,0.4l-0.5-0.5c-0.4-0.3-0.5-0.5-0.5-0.6
			c0-0.1-0.1-0.2-0.2-0.3c-0.1-0.1-0.3-0.2-0.4-0.4c-0.2-0.1-0.3-0.2-0.3-0.2c-0.1-0.1-0.3-0.2-0.3-0.2c-0.1,0-0.2-0.1-0.2-0.2
			c0-0.1-0.1-0.2-0.2-0.3c-0.1-0.1-0.3-0.2-0.4-0.2c-0.1,0-0.1-0.1-0.1-0.2s-0.1-0.2-0.2-0.2c-0.1,0-0.1,0-0.1-0.1
			c0-0.1-0.1-0.2-0.4-0.5c-0.2-0.3-0.4-0.4-0.4-0.5c0-0.1-0.1-0.2-0.3-0.2c-0.2,0-0.3-0.1-0.5-0.2c-0.2-0.1-0.2-0.3-0.2-0.4
			c0-0.1-0.2-0.3-0.5-0.7c-0.3-0.4-0.5-0.6-0.5-0.7c0-0.1-0.1-0.2-0.3-0.4c-0.2-0.2-0.3-0.4-0.3-0.4c0-0.3-0.6-0.5-1.8-0.6
			c-0.6,0-0.9-0.1-0.9-0.1c-0.3,0-0.4,0.1-0.4,0.2c0,0.1,0,0.2,0,0.4c0,0.2,0,0.4,0.1,0.6c0.1,0.2,0.1,0.3,0.2,0.3
			c0.1,0,0.2,0.2,0.3,0.6c0.1,0.4,0.2,0.6,0.2,0.6c0.1,0,0.1,0.3,0.1,0.8c0,0.5,0,0.8-0.1,0.8c-0.1,0-0.1,0.1-0.1,0.4
			c0,0.2,0.1,0.6,0.2,1c0.1,0.2,0.1,0.6,0.1,1.1c0,0.7-0.1,1.1-0.2,1.1c-0.1,0-0.1,0.2-0.1,0.7c0,0.5,0,1.1-0.1,1.5
			c0,0.4-0.1,0.6-0.1,0.7c-0.1,0.1-0.2,0.2-0.4,0.2c-0.3,0.1-0.4,0.2-0.4,0.4c0,0.2,0.1,0.4,0.4,0.6c0.2,0.2,0.3,0.3,0.5,0.3
			c0.2,0,0.8,0,1.7,0c1,0,1.6,0,1.8-0.1c0.2-0.1,0.3-0.3,0.3-0.8c0-0.3-0.1-0.4-0.3-0.5c-0.2-0.1-0.3-0.1-0.3-0.2
			c0-0.1-0.2-0.1-0.6-0.1c-0.4,0-0.7-0.1-0.9-0.3c-0.2-0.2-0.2-0.3-0.1-0.4c0.1-0.1,0.2-0.2,0.2-0.6c0-0.3,0-0.5-0.1-0.5
			c-0.1-0.1-0.1-0.9-0.1-2.6c0-1.7,0.1-2.5,0.2-2.5c0.1,0,0.3,0.1,0.4,0.2c0.1,0.1,0.3,0.2,0.5,0.3c0.3,0.1,0.4,0.3,0.5,0.4
			s0.3,0.5,0.8,1.1c0.5,0.5,0.9,0.9,1.3,1.1c0.2,0.1,0.3,0.2,0.3,0.3c0,0.1,0.2,0.2,0.5,0.6c0.7,0.7,1.1,1.1,1.1,1.4
			c0,0.1,0.1,0.1,0.3,0.1c0.2,0,0.3,0,0.3,0.1c0,0.1,0.1,0.3,0.4,0.5c0.2,0.2,0.4,0.4,0.4,0.6c0,0.1,0.1,0.3,0.3,0.5
			c0.2,0.2,0.3,0.3,0.4,0.3c0.1,0,0.3,0.2,0.6,0.5c0.3,0.3,0.5,0.5,0.7,0.6c0.1,0.1,0.2,0.1,0.3,0.1c0.4,0,0.6-0.2,0.6-0.6
			c0-0.1,0-0.2,0-0.4c0-0.9-0.1-1.4-0.2-1.6c-0.1-0.1-0.1-0.5-0.1-1.3v-0.4c0-1,0-1.6-0.1-1.6c-0.1-0.1-0.2-0.4-0.2-1
			c0-0.5,0-0.8,0.1-0.8c0.1-0.1,0.2-0.2,0.2-0.5c0-0.3,0-0.4,0.1-0.4c0.1,0,0.1-0.1,0.1-0.4c0-0.3,0-0.4-0.1-0.4
			c-0.1,0-0.1-0.1-0.1-0.4c0-0.4,0.1-0.7,0.2-1c0.2-0.3,0.4-0.5,0.7-0.5c0.2,0,0.4-0.1,0.4-0.1c0.1,0,0.1-0.2,0.1-0.5v-0.2
			C328.8,782.3,328.7,782,328.5,782z"/>
		<path d="M348,785.5c0-0.2-0.1-0.3-0.2-0.5c-0.2-0.2-0.3-0.3-0.4-0.3c-0.1,0-0.2-0.1-0.2-0.2c0-0.1-0.1-0.3-0.3-0.6
			c-0.2-0.2-0.3-0.3-0.4-0.3c-0.1,0-0.2-0.1-0.2-0.2c0-0.1-0.1-0.2-0.3-0.3c-0.2-0.1-0.3-0.1-0.3-0.2c0-0.1-0.1-0.1-0.4-0.1
			c-0.2,0-0.3-0.1-0.6-0.2c-0.2-0.1-0.4-0.2-0.5-0.2c-0.2,0-0.3,0-0.3-0.1c0-0.1-0.1-0.1-0.4-0.1c-0.2,0-0.3,0-0.4-0.1
			c-0.1-0.1-0.2-0.1-0.2-0.1c-0.1,0-0.2,0-0.4,0.1c-0.3,0.1-0.6,0.2-1,0.2c-0.2,0-0.4,0-0.4-0.1c-0.1,0-0.1-0.1-0.1-0.2
			c0-0.2-0.1-0.3-0.2-0.3c-0.1,0-0.2,0-0.3,0.2c-0.1,0.1-0.1,0.1-0.2,0c-0.2-0.3-0.3-0.2-0.4,0.1c-0.1,0.2-0.2,0.3-0.4,0.2
			c-0.2-0.1-0.5-0.2-1-0.2c-0.4,0-0.7-0.1-0.8-0.2c0-0.1-0.1-0.1-0.3,0.1c-0.2,0.1-0.3,0.1-0.3,0c-0.1-0.1-0.2-0.2-0.5-0.2
			c-0.2,0-0.4,0-0.4,0.1c0,0.1-0.1,0.1-0.3,0.1c-0.1,0-0.2,0-0.2,0.1c0,0.1-0.1,0.3-0.1,0.5c0,0.3,0,0.5,0.1,0.6
			c0,0.1,0.2,0.2,0.3,0.3c0.2,0.1,0.3,0.1,0.4,0.1c0,0,0.1,0,0.1,0c0.1,0,0.1,0,0.1,0c0.1,0,0.2,0,0.3,0.1c0.2,0.1,0.4,0.4,0.4,0.8
			c0,0.4,0,0.6-0.1,0.6c-0.1,0-0.1,0.3-0.1,0.9c0,0.6,0,0.8,0.1,0.8c0.1,0,0.1,0.1,0.1,0.4c0,0.2,0,0.4-0.1,0.5
			c-0.1,0.1-0.1,1-0.2,2.8l-0.1,2.7l-0.5,0c-0.4,0-0.6,0.2-0.8,0.4c-0.2,0.2-0.3,0.4-0.3,0.5c0,0.1,0.1,0.2,0.4,0.4
			c0.3,0.2,0.5,0.2,0.7,0.2c0.1,0,0.2,0,0.2-0.1c0-0.1,0.3-0.1,0.8-0.1c0.5,0,0.8,0,0.8,0.1c0,0.1,0.9,0.2,2.6,0.2
			c1.1,0,1.7,0,1.8-0.1c0.1-0.1,0.4-0.2,0.7-0.2c0.4-0.1,0.8-0.2,1.3-0.5c0.5-0.2,0.8-0.4,1-0.4c0.2,0,0.3-0.1,0.4-0.4
			c0.1-0.3,0.3-0.6,0.7-1.1c0.4-0.4,0.6-0.7,0.6-0.8c0-0.1,0-0.2,0.1-0.2c0.1,0,0.1-0.1,0.1-0.3c0-0.2,0.1-0.4,0.2-0.5
			c0.1-0.1,0.1-0.8,0.1-2c0-1.4-0.1-2.1-0.2-2.2C348,785.8,348,785.7,348,785.5z M345.9,789.7c-0.1,0.1-0.2,0.2-0.2,0.5
			c0,0.3-0.1,0.4-0.2,0.6c-0.3,0.3-0.5,0.6-0.6,1c-0.1,0.2-0.1,0.2-0.2,0.2c-0.1,0-0.3,0.2-0.7,0.5c-0.4,0.3-0.7,0.5-0.9,0.5
			c-0.2,0-0.3,0.1-0.4,0.2c-0.1,0.1-0.1,0.1-0.2,0c-0.1-0.1-0.1-0.2-0.3-0.2c-0.1,0-0.2,0.1-0.3,0.2c0,0.1-0.3,0.1-0.9,0.1
			c-0.6,0-1.1,0-1.6,0c-0.2,0-0.2-0.1-0.2-0.4c0-0.2-0.1-0.4-0.2-0.4s-0.2,0-0.2-0.1c0-0.1,0.1-0.1,0.2-0.2c0.1-0.1,0.2-0.2,0.2-0.3
			c0-0.1,0.1-0.2,0.2-0.2c0.1,0,0.1-0.1,0.2-0.4c0.1-0.2,0.1-0.5,0.1-0.8c0-0.1,0-0.3-0.1-0.5c0,0,0,0,0-0.1c0,0,0-0.1,0-0.1
			c0-0.2,0.1-0.4,0.2-0.6l0.2-0.4c0,0-0.1-0.1-0.2-0.1c-0.1,0-0.2-0.3-0.2-0.8c0-0.5,0-1,0-1.5c0-1.4,0.1-2.2,0.1-2.4
			c0-0.3,0.1-0.5,0.4-0.8c0.2-0.2,0.4-0.3,0.6-0.3c0.1,0,0.2,0,0.3,0c0.1,0,0.3,0,0.7,0.1c0.4,0,0.7,0.1,1,0.1
			c0.3,0.1,0.4,0.1,0.5,0.2c0.1,0.1,0.2,0.2,0.4,0.2c0.2,0,0.4,0.1,0.4,0.3c0.1,0.2,0.2,0.3,0.3,0.3c0.2,0,0.2,0,0.2,0.1
			c0,0.1,0.1,0.2,0.3,0.2c0.2,0.1,0.3,0.2,0.3,0.3c0,0.1,0.1,0.3,0.2,0.4c0.1,0.1,0.2,0.4,0.3,0.9c0,0.4,0.1,0.7,0.2,0.8
			c0.1,0.1,0.1,0.5,0.1,1.3S346,789.7,345.9,789.7z"/>
		<path d="M357.8,788.7c0-0.1,0-0.2-0.1-0.2c-0.1,0-0.1,0-0.1,0.1l0.1,0.2C357.8,789,357.8,788.9,357.8,788.7z"/>
		<path d="M363.7,789.5c0-0.6-0.1-0.9-0.2-1.1c-0.1-0.2-0.3-0.4-0.6-0.5c-0.3-0.1-0.5-0.3-0.5-0.4c-0.1-0.1-0.3-0.3-0.9-0.6
			s-1-0.5-1.3-0.6c-0.2-0.1-0.5-0.2-0.9-0.5c-0.4-0.3-0.6-0.4-0.6-0.5c0-0.1-0.1-0.2-0.2-0.3c-0.2-0.1-0.2-0.2-0.2-0.3
			c0,0,0-0.1,0-0.1c0.1-0.1,0.1-0.2,0.1-0.3s0-0.3-0.1-0.6c0-0.1,0-0.2,0-0.2c0,0,0.2-0.1,0.3-0.1c0.3,0,0.4-0.1,0.4-0.2
			c0-0.1,0.1-0.2,0.4-0.4c0.3-0.2,0.4-0.3,0.4-0.3c0-0.1,0.1-0.1,0.4-0.2c0.1,0,0.1,0,0.2,0c0.4,0,0.8,0.2,1.2,0.5
			c0.5,0.3,0.7,0.6,0.7,0.9c0,0.2,0.1,0.4,0.3,0.5c0.2,0.1,0.3,0.3,0.3,0.4c0,0.1,0.1,0.3,0.2,0.5c0.2,0.2,0.3,0.3,0.4,0.3
			c0,0,0,0,0.1,0c0.1-0.1,0.1-0.7,0.2-2v-0.8c0-0.6-0.1-0.9-0.2-0.9c-0.1,0-0.1,0-0.1,0c-0.3,0.1-0.6,0.2-0.8,0.2
			c-0.3,0-0.6-0.1-1-0.3c-0.4-0.2-0.6-0.3-0.7-0.3c0,0-0.1,0-0.2,0.1c-0.3,0.1-0.6,0.1-0.8,0.1c-0.3,0-0.4,0-0.5,0.1
			c0,0.1-0.1,0.2-0.3,0.2c-0.2,0-0.4-0.1-0.5-0.2c-0.1-0.1-0.3-0.2-0.5-0.2h0c-0.1,0-0.1,0-0.1,0c-0.1,0-0.1,0-0.1,0
			c0,0,0.1,0,0.1,0c0.1,0.1,0.2,0.1,0.2,0.2c0,0.2-0.2,0.3-0.5,0.4c-0.3,0.1-0.4,0.2-0.4,0.4c0.1,0.2,0,0.3-0.2,0.4
			c-0.3,0.1-0.6,0.5-1.1,1.1c-0.1,0.2-0.2,0.4-0.2,0.6c0,0,0,0.3,0.1,0.8c0.1,0.7,0.3,1.1,0.4,1.3c0.1,0.2,0.4,0.4,0.7,0.7
			c0.4,0.3,0.6,0.4,0.8,0.4c0.1,0,0.3,0.1,0.6,0.4c0.4,0.3,0.9,0.6,1.7,0.8c0.5,0.1,0.8,0.3,1.1,0.6c0.2,0.2,0.3,0.4,0.5,0.7
			c0.1,0.3,0.2,0.5,0.2,0.7c0,0.1,0,0.1-0.1,0.2c-0.1,0-0.1,0.2-0.1,0.4c0.1,0.2,0,0.4-0.2,0.6c-0.1,0.1-0.2,0.3-0.2,0.4
			c0,0.2-0.5,0.4-1.4,0.5c-0.1,0-0.3,0-0.6,0c-0.9,0-1.7-0.4-2.2-1.2c-0.3-0.4-0.5-0.8-0.5-1c0,0,0-0.1,0-0.2c0-0.1,0-0.2,0-0.2
			c0,0-0.1-0.1-0.1-0.1c-0.1,0-0.1,0-0.1-0.1c0.1-0.3-0.1-0.5-0.4-0.6c-0.1,0-0.2-0.1-0.3-0.1c-0.3,0-0.4,0.2-0.5,0.5
			c-0.1,1.2-0.1,1.9-0.2,1.9c-0.1,0.1-0.1,0.4-0.2,0.8c0,0.1,0,0.3,0,0.4c0,0.2,0.1,0.4,0.3,0.6c0.1,0.1,0.2,0.2,0.3,0.2
			c0,0,0.1,0,0.2-0.2c0.1-0.2,0.2-0.3,0.2-0.4c0-0.3,0.2-0.3,0.5-0.1c0.9,0.5,1.8,0.7,2.9,0.7c0.5,0,1.1-0.1,1.6-0.2
			c0.6-0.1,1.1-0.3,1.4-0.6c0.3-0.3,0.5-0.5,0.5-0.5c0-0.1,0.1-0.2,0.2-0.3c0.2-0.1,0.3-0.4,0.3-0.9c0.1-0.5,0.1-0.7,0.2-0.7
			c0.1,0,0.1,0,0-0.1C363.8,790.6,363.7,790.2,363.7,789.5z M359.3,788C359.2,788,359.2,787.9,359.3,788c-0.1-0.1-0.1-0.1,0-0.1
			S359.4,787.9,359.3,788C359.4,787.9,359.4,788,359.3,788z"/>
		<polygon points="51.7,808.8 44,814 41.2,799.9 38.4,814 30.7,808.8 35.9,816.5 21.8,819.3 35.9,822 30.7,829.8 38.4,824.6 
			41.2,838.6 43.9,824.6 51.7,829.8 46.5,822 60.5,819.3 46.5,816.5 		"/>
		<polygon points="468.1,816.5 473.3,808.8 465.5,814 462.8,799.9 460,814 452.3,808.8 457.5,816.5 443.4,819.3 457.5,822 
			452.3,829.8 460,824.6 462.8,838.6 465.5,824.6 473.3,829.8 468.1,822 482.1,819.3 		"/>
		<polygon points="30.7,57.5 38.4,52.3 41.2,66.4 44,52.3 51.7,57.5 46.5,49.8 60.5,47 46.5,44.3 51.7,36.5 43.9,41.7 41.2,27.7 
			38.4,41.7 30.7,36.5 35.9,44.3 21.8,47 35.9,49.8 		"/>
		<polygon points="473.3,36.5 465.5,41.7 462.8,27.7 460,41.7 452.3,36.5 457.5,44.3 443.4,47 457.5,49.8 452.3,57.5 460,52.3 
			462.8,66.4 465.5,52.3 473.3,57.5 468.1,49.8 482.1,47 468.1,44.3 		"/>
		<path d="M214.5,337.2c-0.9-0.4-1.8-0.8-2.7-1.1c-1.1-0.5-1.7-0.5-2-1.5c-0.6-1.9-1.1-3.9-1.6-5.9c0,0,0,0,0-0.1c0,0,0,0,0-0.1
			c-0.1-0.1-0.2-0.2-0.3-0.2c-0.1,0-0.3,0-0.3,0.2c0,0,0,0.1,0,0.1c0,0,0,0,0,0c0,0,0,0,0,0c0,0,0,0,0,0c-0.5,1.9-0.9,3.9-1.5,5.9
			c-0.5,1.5-3.3,2.1-4.7,2.7c-0.3,0.1-0.5,0.6-0.1,0.7c0.9,0.4,1.8,0.8,2.7,1.2c0.5,0.2,1.1,0.5,1.6,0.7c0.1,0.1,0.2,0.1,0.2,0.1
			c0,0,0,0,0,0.1c1,1.7,1.2,4.2,1.8,6.1c0.1,0.4,0.7,0.4,0.8,0c0.6-1.9,0.9-4.4,1.8-6.1c0,0,0,0,0-0.1c0,0,0.1,0,0.1-0.1
			c0.5-0.3,1.2-0.5,1.7-0.8c0.9-0.4,1.8-0.8,2.7-1.2C214.9,337.7,214.8,337.3,214.5,337.2z M211.1,338.6c-0.6,0.3-1.5,0.5-1.9,1
			c-0.6,0.8-0.7,2.4-1,3.4c-0.2,0.6-0.3,1.1-0.5,1.7c-0.2-0.6-0.3-1.1-0.5-1.7c-0.3-0.9-0.4-2.6-1-3.4c-0.4-0.6-1.2-0.7-1.9-1
			c-0.7-0.3-1.5-0.7-2.2-1c1.5-0.5,3.5-1.1,4.2-2.2c0.6-1,0.7-2.7,1-3.7c0.1-0.5,0.3-0.9,0.4-1.4c0.1,0.5,0.3,0.9,0.4,1.4
			c0.3,1.1,0.4,2.7,1,3.7c0.6,1.1,2.7,1.7,4.2,2.2C212.6,337.9,211.8,338.3,211.1,338.6z"/>
		<path d="M214.5,381.9c-0.9-0.4-1.8-0.8-2.7-1.1c-1.1-0.5-1.7-0.5-2-1.5c-0.6-1.9-1.1-3.9-1.6-5.9c0,0,0,0,0-0.1c0,0,0,0,0-0.1
			c-0.1-0.1-0.2-0.2-0.3-0.2c-0.1,0-0.3,0-0.3,0.2c0,0,0,0.1,0,0.1c0,0,0,0,0,0c0,0,0,0,0,0c0,0,0,0,0,0c-0.5,1.9-0.9,3.9-1.5,5.9
			c-0.5,1.5-3.3,2.1-4.7,2.7c-0.3,0.1-0.5,0.6-0.1,0.7c0.9,0.4,1.8,0.8,2.7,1.2c0.5,0.2,1.1,0.5,1.6,0.7c0.1,0.1,0.2,0.1,0.2,0.1
			c0,0,0,0,0,0.1c1,1.7,1.2,4.2,1.8,6.1c0.1,0.4,0.7,0.4,0.8,0c0.6-1.9,0.9-4.4,1.8-6.1c0,0,0,0,0-0.1c0,0,0.1,0,0.1-0.1
			c0.5-0.3,1.2-0.5,1.7-0.8c0.9-0.4,1.8-0.8,2.7-1.2C214.9,382.5,214.8,382,214.5,381.9z M211.1,383.3c-0.6,0.3-1.5,0.5-1.9,1
			c-0.6,0.8-0.7,2.4-1,3.4c-0.2,0.6-0.3,1.1-0.5,1.7c-0.2-0.6-0.3-1.1-0.5-1.7c-0.3-0.9-0.4-2.6-1-3.4c-0.4-0.6-1.2-0.7-1.9-1
			c-0.7-0.3-1.5-0.7-2.2-1c1.5-0.5,3.5-1.1,4.2-2.2c0.6-1,0.7-2.7,1-3.7c0.1-0.5,0.3-0.9,0.4-1.4c0.1,0.5,0.3,0.9,0.4,1.4
			c0.3,1.1,0.4,2.7,1,3.7c0.6,1.1,2.7,1.7,4.2,2.2C212.6,382.6,211.8,383,211.1,383.3z"/>
		<path d="M292,339.1c0.5,0.2,1.2,0.4,1.7,0.8c0.1,0,0.1,0.1,0.1,0.1c0,0,0,0,0,0.1c0.9,1.8,1.2,4.2,1.8,6.1c0.1,0.4,0.7,0.4,0.8,0
			c0.6-1.9,0.9-4.4,1.8-6.1c0,0,0-0.1,0-0.1c0,0,0.1,0,0.2-0.1c0.5-0.3,1.1-0.5,1.6-0.7c0.9-0.4,1.8-0.8,2.7-1.2
			c0.4-0.2,0.2-0.6-0.1-0.7c-1.5-0.6-4.3-1.2-4.7-2.7c-0.6-1.9-1-3.9-1.5-5.9c0,0,0,0,0,0c0,0,0,0,0,0c0,0,0,0,0,0c0,0,0-0.1,0-0.1
			c-0.1-0.1-0.2-0.2-0.3-0.2c-0.1,0-0.3,0.1-0.3,0.2c0,0,0,0,0,0.1c0,0,0,0,0,0.1c-0.5,2-1,4-1.6,5.9c-0.3,1-1,1-2,1.5
			c-0.9,0.4-1.8,0.8-2.7,1.1c-0.3,0.1-0.4,0.6-0.1,0.7C290.1,338.3,291.1,338.7,292,339.1z M294.7,335.4c0.6-1,0.7-2.6,1-3.7
			c0.1-0.5,0.3-0.9,0.4-1.4c0.1,0.5,0.3,0.9,0.4,1.4c0.3,1.1,0.4,2.8,1,3.7c0.7,1.1,2.7,1.7,4.2,2.2c-0.7,0.3-1.5,0.7-2.2,1
			c-0.6,0.3-1.5,0.5-1.9,1c-0.6,0.8-0.7,2.4-1,3.4c-0.2,0.6-0.3,1.1-0.5,1.7c-0.2-0.6-0.3-1.1-0.5-1.7c-0.3-0.9-0.4-2.6-1-3.4
			c-0.4-0.6-1.2-0.7-1.9-1c-0.7-0.3-1.5-0.7-2.2-1C292,337.1,294.1,336.5,294.7,335.4z"/>
		<path d="M296.4,390.9c0.6-1.9,0.9-4.4,1.8-6.1c0,0,0-0.1,0-0.1c0,0,0.1,0,0.2-0.1c0.5-0.3,1.1-0.5,1.6-0.7
			c0.9-0.4,1.8-0.8,2.7-1.2c0.4-0.2,0.2-0.6-0.1-0.7c-1.5-0.6-4.3-1.2-4.7-2.7c-0.6-1.9-1-3.9-1.5-5.9c0,0,0,0,0,0c0,0,0,0,0,0
			c0,0,0,0,0,0c0,0,0-0.1,0-0.1c-0.1-0.1-0.2-0.2-0.3-0.2c-0.1,0-0.3,0.1-0.3,0.2c0,0,0,0,0,0.1c0,0,0,0,0,0.1c-0.5,2-1,4-1.6,5.9
			c-0.3,1-1,1-2,1.5c-0.9,0.4-1.8,0.8-2.7,1.1c-0.3,0.1-0.4,0.6-0.1,0.7c0.9,0.4,1.8,0.8,2.7,1.2c0.5,0.2,1.2,0.4,1.7,0.8
			c0.1,0,0.1,0.1,0.1,0.1c0,0,0,0,0,0.1c0.9,1.8,1.2,4.2,1.8,6.1C295.8,391.3,296.3,391.3,296.4,390.9z M294.6,384.3
			c-0.4-0.6-1.2-0.7-1.9-1c-0.7-0.3-1.5-0.7-2.2-1c1.5-0.5,3.6-1.1,4.2-2.2c0.6-1,0.7-2.6,1-3.7c0.1-0.5,0.3-0.9,0.4-1.4
			c0.1,0.5,0.3,0.9,0.4,1.4c0.3,1.1,0.4,2.8,1,3.7c0.7,1.1,2.7,1.7,4.2,2.2c-0.7,0.3-1.5,0.7-2.2,1c-0.6,0.3-1.5,0.5-1.9,1
			c-0.6,0.8-0.7,2.4-1,3.4c-0.2,0.6-0.3,1.1-0.5,1.7c-0.2-0.6-0.3-1.1-0.5-1.7C295.3,386.8,295.1,385.1,294.6,384.3z"/>
		<path d="M256,184.1c-1.1-0.5-1.7-0.5-2-1.5c-0.6-1.9-1.1-3.9-1.6-5.9c0,0,0,0,0-0.1c0,0,0,0,0-0.1c-0.1-0.1-0.2-0.2-0.3-0.2
			c-0.1,0-0.3,0-0.3,0.2c0,0,0,0.1,0,0.1c0,0,0,0,0,0c0,0,0,0,0,0c0,0,0,0,0,0c-0.5,1.9-0.9,3.9-1.5,5.9c-0.5,1.5-3.3,2.1-4.7,2.7
			c-0.3,0.1-0.5,0.6-0.1,0.7c0.9,0.4,1.8,0.8,2.7,1.2c0.5,0.2,1.1,0.5,1.6,0.7c0.1,0.1,0.2,0.1,0.2,0.1c0,0,0,0,0,0.1
			c1,1.7,1.2,4.2,1.8,6.1c0.1,0.4,0.7,0.4,0.8,0c0.6-1.9,0.9-4.4,1.8-6.1c0,0,0,0,0-0.1c0,0,0.1,0,0.1-0.1c0.5-0.3,1.2-0.5,1.7-0.8
			c0.9-0.4,1.8-0.8,2.7-1.2c0.4-0.2,0.2-0.6-0.1-0.7C257.8,184.8,256.9,184.5,256,184.1z M255.3,186.6c-0.6,0.3-1.5,0.5-1.9,1
			c-0.6,0.8-0.7,2.4-1,3.4c-0.2,0.6-0.3,1.1-0.5,1.7c-0.2-0.6-0.3-1.1-0.5-1.7c-0.3-0.9-0.4-2.6-1-3.4c-0.4-0.6-1.2-0.7-1.9-1
			c-0.7-0.3-1.5-0.7-2.2-1c1.5-0.5,3.5-1.1,4.2-2.2c0.6-1,0.7-2.7,1-3.7c0.1-0.5,0.3-0.9,0.4-1.4c0.1,0.5,0.3,0.9,0.4,1.4
			c0.3,1.1,0.4,2.7,1,3.7c0.6,1.1,2.7,1.7,4.2,2.2C256.8,186,256.1,186.3,255.3,186.6z"/>
		<path d="M104.5,248.2c1.1,0.3,2.3,0.5,3.5,0.5c5.7,0,10.6-3.7,12.2-8.9c2.3,4.6,9,6,13.3,2.4c1.3,2,5.2,2.2,7.2,2.3c0,0,0,0,0,0
			c0.1,0.1,0.1,0.2,0.2,0.3c1.2,1.9,2,2.8,4.6,2.4c1.6-0.3,1.9-2.1,1.9-3.8c27.6,0.2,55.2,0.6,82.8,0.8c0,0.2,0,0.4,0,0.7
			c0,0.1,0,0.2,0.1,0.3c0.1,0.2,0.2,0.3,0.5,0.3c1.7-0.1,4.3-0.4,5.7-1.7c0.1,0.1,0.2,0.2,0.4,0.2c12.3,0.1,24.7,0.5,37,0.5
			c0,0,0.1,0,0.1,0c1.3,0.8,3.2,1.1,4.6,1.2c0.3,0,0.6-0.3,0.6-0.6c0-0.3,0-0.6,0-0.9c29.6,0.1,59.3,0,88.9,0.1c0,0.1,0,0.2,0,0.3
			c0,0.2,0.1,0.3,0.1,0.4c0,0,0,0,0,0c0,0,0,0,0,0c0.1,0.1,0.2,0.1,0.4,0.1c3,0,6.1,0,9.1,0c0,0.7,0,1.3,0,2c0,0.2,0.1,0.3,0.1,0.4
			c0,0,0,0,0,0c0,0,0,0,0,0c0.1,0.1,0.2,0.1,0.4,0.1c2.2,0,4.3,0,6.5,0c0.3,0,0.6-0.3,0.6-0.6c0-0.3,0-0.6,0-1
			c2.4-0.1,6.7-0.5,7.4-3.2c0.2-0.6,0.2-1.3,0.2-2c2.7,1.6,6.6,0,6.6-3.5c0-3.6-3.8-5.2-6.6-3.6c0-0.8,0-1.5-0.2-2.1
			c-0.8-2.6-5.1-3-7.4-3.1c0-0.3,0-0.6,0-1c0-0.3-0.3-0.6-0.6-0.6c-2.2,0-4.3,0-6.5,0c-0.3,0-0.6,0.3-0.6,0.6c0,0.7,0,1.3,0,2
			c-3,0-6.1,0-9.1,0c-0.3,0-0.6,0.3-0.6,0.6c0,0.1,0,0.3,0,0.4c-29.6-0.2-59.2-0.6-88.9-0.8c0-0.3,0-0.6,0-1c0-0.1,0-0.2-0.1-0.3
			c-0.1-0.2-0.2-0.3-0.5-0.3c-1.4,0.1-3.3,0.4-4.7,1.2c-12.3-0.1-24.7,0.2-37,0.1c-0.2,0-0.3,0.1-0.4,0.1c-1.4-1.3-4.1-1.6-5.8-1.8
			c-0.3,0-0.6,0.3-0.6,0.6c0,0.2,0,0.4,0,0.7c-27.5-0.2-55,0-82.4-0.1c-0.1,0-0.3,0.1-0.3,0.1c0-0.4,0-0.7,0-1.1
			c0-0.6,0.1-1.9-0.3-2.4c-0.7-0.7-3.5-0.6-4.3-0.2c-0.9,0.4-1.5,1.5-2,2.5c-2,0.1-5.9,0.3-7.2,2.2c-4.3-3.7-11-2.4-13.3,2.2
			c-1.6-5.2-6.3-9-12-9c-1.2,0-2.4,0.2-3.5,0.5c5.3,1.6,9.2,6.5,9.1,12.3C113.7,241.9,109.8,246.7,104.5,248.2z M392.9,235.3
			C392.9,235.3,392.9,235.3,392.9,235.3c2.1-1.9,5.5-0.7,5.5,2.2c0,2.9-3.5,4-5.5,2.1c0,0,0,0,0,0c0-0.7-0.1-1.5-0.1-2.1
			C392.7,236.9,392.8,236.1,392.9,235.3z M385.3,229.8c2.2,0.1,6,0.5,6.3,3.1c0.2,1.5,0,3.1,0,4.6c0,1.5,0.2,3.2,0,4.7
			c-0.4,2.5-4.2,2.8-6.3,2.9C385.3,240,385.3,234.9,385.3,229.8z M378.9,228.2c0.9,0,1.8,0,2.7,0l-0.1,18.4c-0.9,0-1.8,0-2.7,0
			C378.8,240.5,378.8,234.4,378.9,228.2z M369.1,230.7c2.7,0,5.5,0,8.2,0c0,4.5,0,8.9-0.1,13.4c-2.7,0-5.5,0-8.2,0
			C369.1,239.6,369.1,235.2,369.1,230.7z M365.6,231.7l-0.1,11.5c-2.5,0-5,0-7.6,0c3.2-2.7,3.1-8.7-0.1-11.5
			C360.5,231.6,363,231.7,365.6,231.7z M281.6,230.9c24.6,0.1,49.3,0.5,73.9,0.7c4.7,1.4,4.8,10.2,0,11.5c-24.7-0.1-49.3,0-74-0.1
			L281.6,230.9z M273.5,232.5c0.1-2.3,2.5-2.8,4.5-3c0,5-0.1,10-0.1,15c-2.1-0.2-4.4-0.9-4.4-3.2c0-1.4,0-2.8,0-4.3
			C273.5,235.4,273.4,233.9,273.5,232.5z M237.4,236.7c0-1.7,0.4-3.8,0-5.5c0-0.2-0.1-0.3-0.2-0.5c11.8,0,23.7-0.2,35.5-0.1
			c-0.2,0.3-0.3,0.7-0.4,1.1c-0.3,1.7,0,3.5,0,5.2c0,1.7-0.3,3.6,0,5.3c0.1,0.4,0.2,0.8,0.4,1.1c-11.9-0.1-23.7-0.4-35.6-0.5
			c0.1-0.2,0.2-0.5,0.3-0.7C237.7,240.3,237.4,238.4,237.4,236.7z M231.3,229.2c2.1,0.2,4.9,0.7,5,3.1c0.1,1.5,0,2.9,0,4.4
			c0,1.5,0.1,2.9,0,4.4c-0.2,2.4-2.9,2.9-5,3.1C231.3,239.2,231.3,234.2,231.3,229.2z M159.9,230.3c22.6,0,45.3-0.1,67.9,0.1
			l-0.1,12.6c-22.6-0.1-45.2-0.5-67.8-0.7c0,0,0,0,0,0C154.5,240.8,154.3,231.7,159.9,230.3z M150,230.3c2.4,0,4.8,0,7.3,0
			c-3.6,2.8-3.5,9.2,0.1,12c-2.5,0-4.9,0-7.4,0L150,230.3z M142.3,227.6c0.2-0.3,0.4-0.7,0.6-0.9c0,0,0,0,0.1-0.1c0,0,0,0,0.1,0
			c0.5-0.2,2.4-0.3,3-0.1c-0.1,0,0,0.4,0.1,0.7c0,0.7,0.1,1.3,0.1,2c0.1,1.9,0.1,3.7,0,5.6c0,2,0,4-0.1,6.1
			c-0.1,1.3,0.2,3.5-0.4,4.6c-0.4,0.8-1.1,0.6-2.1,0.4c-1-0.2-1-0.3-1.7-1.3c-1.6-2.5-3-5.4-3.1-8.5
			C139.1,233.1,140.6,230.1,142.3,227.6z M134.2,236.2c0-1.4-0.2-3,0-4.4c0.3-2.3,3.7-2.6,5.9-2.7c-1.2,2.2-2.1,4.6-2.2,7.1
			c0.1,2.5,1,4.9,2.2,7.1c-2.1-0.1-5.6-0.5-5.8-2.8C134,239.1,134.2,237.6,134.2,236.2z M120.6,234.5c1.2-5.3,8.1-7.2,12.3-3.4
			c0.1,0.1,0.1,0.1,0.2,0.1c-0.3,1.5,0,3.5,0,4.9c0,1.4-0.4,3.4-0.1,4.9c0,0,0,0,0,0c-4.1,3.8-11.2,2-12.3-3.4
			c0.1-0.5,0.1-1,0.1-1.5C120.7,235.6,120.7,235.1,120.6,234.5z"/>
		<path d="M166.4,237.7c0.6,0.5,0.9,2.3,1.2,2.3c0.3,0,0.6-1.8,1.2-2.4c0.6-0.6,3.2-1,3.2-1.4c0-0.4-2.6-0.6-3.2-1.3
			c-0.6-0.6-0.8-2.3-1.2-2.3c-0.4,0-0.5,1.7-1.2,2.4c-0.6,0.7-3.2,1-3.2,1.4C163.2,236.8,165.8,237.1,166.4,237.7z"/>
		<path d="M177.5,237.7c0.6,0.5,0.9,2.3,1.2,2.3c0.3,0,0.6-1.8,1.2-2.4c0.6-0.6,3.2-1,3.2-1.4c0-0.4-2.6-0.6-3.2-1.3
			s-0.8-2.3-1.2-2.3c-0.4,0-0.5,1.7-1.2,2.4c-0.6,0.7-3.2,1-3.2,1.4S176.9,237.2,177.5,237.7z"/>
		<path d="M336.8,235.9c-0.6-0.6-0.8-2.3-1.2-2.3c-0.4,0-0.5,1.7-1.2,2.4c-0.6,0.7-3.2,1-3.2,1.4c0,0.4,2.7,0.7,3.2,1.3
			c0.6,0.5,0.9,2.3,1.2,2.3c0.3,0,0.6-1.8,1.2-2.4c0.6-0.6,3.2-1,3.2-1.4C340,236.8,337.5,236.5,336.8,235.9z"/>
		<path d="M347.9,235.9c-0.6-0.6-0.8-2.3-1.2-2.3c-0.4,0-0.5,1.7-1.2,2.4c-0.6,0.7-3.2,1-3.2,1.4c0,0.4,2.7,0.7,3.2,1.3
			c0.6,0.5,0.9,2.3,1.2,2.3c0.3,0,0.6-1.8,1.2-2.4c0.6-0.6,3.2-1,3.2-1.4C351.1,236.8,348.6,236.6,347.9,235.9z"/>
		<path d="M264.3,236.8c0-1.2-0.7-2.1-2.7-2.1c-2,0-16.1,2-16.1,2s14,2.2,16.1,2.2C263.6,238.9,264.3,238,264.3,236.8z"/>
		<polygon points="124.2,239.1 126.4,237.6 127.1,241.6 127.9,237.6 130.1,239.1 128.7,236.9 132.6,236.1 128.7,235.3 130.1,233.2 
			127.9,234.6 127.2,230.6 126.4,234.6 124.2,233.1 125.7,235.3 121.7,236.1 125.6,236.9 		"/>
		<path d="M399.5,282.5c-1.1-0.3-2.3-0.5-3.5-0.5c-5.7,0-10.6,3.7-12.2,8.9c-2.3-4.6-9-6-13.3-2.4c-1.3-2-5.2-2.2-7.2-2.3
			c0,0,0,0,0,0c-0.1-0.1-0.1-0.2-0.2-0.3c-1.2-1.9-2-2.8-4.6-2.4c-1.6,0.3-1.9,2.1-1.9,3.8c-27.6-0.2-55.2-0.6-82.8-0.8
			c0-0.2,0-0.4,0-0.7c0-0.1,0-0.2-0.1-0.3c-0.1-0.2-0.2-0.3-0.5-0.3c-1.7,0.1-4.3,0.4-5.7,1.7c-0.1-0.1-0.2-0.2-0.4-0.2
			c-12.3-0.1-24.7-0.5-37-0.5c0,0-0.1,0-0.1,0c-1.3-0.8-3.2-1.1-4.6-1.2c-0.3,0-0.6,0.3-0.6,0.6c0,0.3,0,0.6,0,0.9
			c-29.6-0.1-59.3,0-88.9-0.1c0-0.1,0-0.2,0-0.3c0-0.2-0.1-0.3-0.1-0.4c0,0,0,0,0,0c0,0,0,0,0,0c-0.1-0.1-0.2-0.1-0.4-0.1
			c-3,0-6.1,0-9.1,0c0-0.7,0-1.3,0-2c0-0.2-0.1-0.3-0.1-0.4c0,0,0,0,0,0c0,0,0,0,0,0c-0.1-0.1-0.2-0.1-0.4-0.1c-2.2,0-4.3,0-6.5,0
			c-0.3,0-0.6,0.3-0.6,0.6c0,0.3,0,0.6,0,1c-2.4,0.1-6.7,0.5-7.4,3.2c-0.2,0.6-0.2,1.3-0.2,2c-2.7-1.6-6.6,0-6.6,3.5
			c0,3.6,3.8,5.2,6.6,3.6c0,0.8,0,1.5,0.2,2.1c0.8,2.6,5.1,3,7.4,3.1c0,0.3,0,0.6,0,1c0,0.3,0.3,0.6,0.6,0.6c2.2,0,4.3,0,6.5,0
			c0.3,0,0.6-0.3,0.6-0.6c0-0.7,0-1.3,0-2c3,0,6.1,0,9.1,0c0.3,0,0.6-0.3,0.6-0.6c0-0.1,0-0.3,0-0.4c29.6,0.2,59.2,0.6,88.9,0.8
			c0,0.3,0,0.6,0,1c0,0.1,0,0.2,0.1,0.3c0.1,0.2,0.2,0.3,0.5,0.3c1.4-0.1,3.3-0.4,4.7-1.2c12.3,0.1,24.7-0.2,37-0.1
			c0.2,0,0.3-0.1,0.4-0.1c1.4,1.3,4.1,1.6,5.8,1.8c0.3,0,0.6-0.3,0.6-0.6c0-0.2,0-0.4,0-0.7c27.5,0.2,55,0,82.4,0.1
			c0.1,0,0.3-0.1,0.3-0.1c0,0.4,0,0.7,0,1.1c0,0.6-0.1,1.9,0.3,2.4c0.7,0.7,3.5,0.6,4.3,0.2c0.9-0.4,1.5-1.5,2-2.5
			c2-0.1,5.9-0.3,7.2-2.2c4.3,3.7,11,2.4,13.3-2.2c1.6,5.2,6.3,9,12,9c1.2,0,2.4-0.2,3.5-0.5c-5.3-1.6-9.2-6.5-9.1-12.3
			C390.2,288.8,394.2,283.9,399.5,282.5z M111.1,295.3C111,295.3,111,295.4,111.1,295.3c-2.1,1.9-5.5,0.7-5.5-2.2
			c0-2.9,3.5-4,5.5-2.1c0,0,0,0,0,0c0,0.7,0.1,1.5,0.1,2.1C111.2,293.8,111.1,294.6,111.1,295.3z M118.6,300.9
			c-2.2-0.1-6-0.5-6.3-3.1c-0.2-1.5,0-3.1,0-4.6c0-1.5-0.2-3.2,0-4.7c0.4-2.5,4.2-2.8,6.3-2.9C118.7,290.6,118.7,295.7,118.6,300.9z
			 M125.1,302.4c-0.9,0-1.8,0-2.7,0l0.1-18.4c0.9,0,1.8,0,2.7,0C125.2,290.2,125.1,296.3,125.1,302.4z M134.8,300
			c-2.7,0-5.5,0-8.2,0c0-4.5,0-8.9,0.1-13.4c2.7,0,5.5,0,8.2,0C134.9,291,134.8,295.5,134.8,300z M138.4,299l0.1-11.5
			c2.5,0,5,0,7.6,0c-3.2,2.7-3.1,8.7,0.1,11.5C143.5,299,140.9,299,138.4,299z M222.3,299.7c-24.6-0.1-49.3-0.5-73.9-0.7
			c-4.7-1.4-4.8-10.2,0-11.5c24.7,0.1,49.3,0,74,0.1L222.3,299.7z M230.4,298.2c-0.1,2.3-2.5,2.8-4.5,3c0-5,0.1-10,0.1-15
			c2.1,0.2,4.4,0.9,4.4,3.2c0,1.4,0,2.8,0,4.3C230.5,295.2,230.5,296.7,230.4,298.2z M266.5,294c0,1.7-0.4,3.8,0,5.5
			c0,0.2,0.1,0.3,0.2,0.5c-11.8,0-23.7,0.2-35.5,0.1c0.2-0.3,0.3-0.7,0.4-1.1c0.3-1.7,0-3.5,0-5.2c0-1.7,0.3-3.6,0-5.3
			c-0.1-0.4-0.2-0.8-0.4-1.1c11.9,0.1,23.7,0.4,35.6,0.5c-0.1,0.2-0.2,0.5-0.3,0.7C266.2,290.3,266.5,292.3,266.5,294z M272.6,301.5
			c-2.1-0.2-4.9-0.7-5-3.1c-0.1-1.5,0-2.9,0-4.4c0-1.5-0.1-2.9,0-4.4c0.2-2.4,2.9-2.9,5-3.1C272.7,291.5,272.6,296.5,272.6,301.5z
			 M344.1,300.4c-22.6,0-45.3,0.1-67.9-0.1l0.1-12.6c22.6,0.1,45.2,0.5,67.8,0.7c0,0,0,0,0,0C349.5,289.8,349.7,299,344.1,300.4z
			 M354,300.4c-2.4,0-4.8,0-7.3,0c3.6-2.8,3.5-9.2-0.1-12c2.5,0,4.9,0,7.4,0L354,300.4z M361.6,303.1c-0.2,0.3-0.4,0.7-0.6,0.9
			c0,0,0,0-0.1,0.1c0,0,0,0-0.1,0c-0.5,0.2-2.4,0.3-3,0.1c0.1,0,0-0.4-0.1-0.7c0-0.7-0.1-1.3-0.1-2c-0.1-1.9-0.1-3.7,0-5.6
			c0-2,0-4,0.1-6.1c0.1-1.3-0.2-3.5,0.4-4.6c0.4-0.8,1.1-0.6,2.1-0.4c1,0.2,1,0.3,1.7,1.3c1.6,2.5,3,5.4,3.1,8.5
			C364.8,297.6,363.3,300.6,361.6,303.1z M369.8,294.5c0,1.4,0.2,3,0,4.4c-0.3,2.3-3.7,2.6-5.9,2.7c1.2-2.2,2.1-4.6,2.2-7.1
			c-0.1-2.5-1-4.9-2.2-7.1c2.1,0.1,5.6,0.5,5.8,2.8C370,291.5,369.8,293.1,369.8,294.5z M383.3,296.1c-1.2,5.3-8.1,7.2-12.3,3.4
			c-0.1-0.1-0.1-0.1-0.2-0.1c0.3-1.5,0-3.5,0-4.9c0-1.4,0.4-3.4,0.1-4.9c0,0,0,0,0,0c4.1-3.8,11.2-2,12.3,3.4
			c-0.1,0.5-0.1,1-0.1,1.5C383.3,295.1,383.3,295.6,383.3,296.1z"/>
		<path d="M337.6,293c-0.6-0.5-0.9-2.3-1.2-2.3c-0.3,0-0.6,1.8-1.2,2.4c-0.6,0.6-3.2,1-3.2,1.4c0,0.4,2.6,0.6,3.2,1.3
			c0.6,0.6,0.8,2.3,1.2,2.3c0.4,0,0.5-1.7,1.2-2.4c0.6-0.7,3.2-1,3.2-1.4C340.8,293.9,338.1,293.5,337.6,293z"/>
		<path d="M326.5,292.9c-0.6-0.5-0.9-2.3-1.2-2.3c-0.3,0-0.6,1.8-1.2,2.4c-0.6,0.6-3.2,1-3.2,1.4c0,0.4,2.6,0.6,3.2,1.3
			c0.6,0.6,0.8,2.3,1.2,2.3c0.4,0,0.5-1.7,1.2-2.4c0.6-0.7,3.2-1,3.2-1.4C329.7,293.8,327,293.5,326.5,292.9z"/>
		<path d="M167.1,294.8c0.6,0.6,0.8,2.3,1.2,2.3c0.4,0,0.5-1.7,1.2-2.4c0.6-0.7,3.2-1,3.2-1.4c0-0.4-2.7-0.7-3.2-1.3
			c-0.6-0.5-0.9-2.3-1.2-2.3c-0.3,0-0.6,1.8-1.2,2.4c-0.6,0.6-3.2,1-3.2,1.4C163.9,293.9,166.5,294.2,167.1,294.8z"/>
		<path d="M156,294.7c0.6,0.6,0.8,2.3,1.2,2.3c0.4,0,0.5-1.7,1.2-2.4c0.6-0.7,3.2-1,3.2-1.4c0-0.4-2.7-0.7-3.2-1.3
			c-0.6-0.5-0.9-2.3-1.2-2.3c-0.3,0-0.6,1.8-1.2,2.4c-0.6,0.6-3.2,1-3.2,1.4C152.8,293.8,155.4,294.1,156,294.7z"/>
		<path d="M239.7,293.8c0,1.2,0.7,2.1,2.7,2.1c2,0,16.1-2,16.1-2s-14-2.2-16.1-2.2C240.3,291.7,239.7,292.7,239.7,293.8z"/>
		<polygon points="379.8,291.6 377.6,293 376.8,289.1 376,293 373.8,291.6 375.3,293.8 371.3,294.5 375.3,295.3 373.8,297.5 
			376,296 376.8,300 377.6,296.1 379.8,297.5 378.3,295.3 382.3,294.6 378.3,293.8 		"/>
		<path d="M190.5,692.3c0-0.3-0.3-0.6-0.6-0.6c-0.7,0-1.3,0-2,0c0-3,0-6.1,0-9.1c0-0.3-0.3-0.6-0.6-0.6c-0.1,0-0.3,0-0.4,0
			c0.2-29.6,0.6-59.2,0.8-88.9c0.3,0,0.6,0,1,0c0.1,0,0.2,0,0.3-0.1c0.2-0.1,0.3-0.2,0.3-0.5c-0.1-1.4-0.4-3.3-1.2-4.7
			c0.1-12.3-0.2-24.7-0.1-37c0-0.2-0.1-0.3-0.1-0.4c1.3-1.4,1.6-4.1,1.8-5.8c0-0.3-0.3-0.6-0.6-0.6c-0.2,0-0.4,0-0.7,0
			c0.2-27.5,0-55,0.1-82.4c0-0.1-0.1-0.3-0.1-0.3c0.4,0,0.7,0,1.1,0c0.6,0,1.9,0.1,2.4-0.3c0.7-0.7,0.6-3.5,0.2-4.3
			c-0.4-0.9-1.5-1.5-2.5-2c-0.1-2-0.3-5.9-2.2-7.2c3.7-4.3,2.4-11-2.2-13.3c5.2-1.6,9-6.3,9-12c0-1.2-0.2-2.4-0.5-3.5
			c-1.5,5.3-6.5,9.2-12.3,9.1c-5.8,0-10.7-4-12.1-9.3c-0.3,1.1-0.5,2.3-0.5,3.5c0,5.7,3.7,10.6,8.9,12.2c-4.6,2.3-6,9-2.4,13.3
			c-2,1.3-2.2,5.2-2.3,7.2c0,0,0,0,0,0c-0.1,0.1-0.2,0.1-0.3,0.2c-1.9,1.2-2.8,2-2.4,4.6c0.3,1.6,2.1,1.9,3.8,1.9
			c-0.2,27.6-0.6,55.2-0.8,82.8c-0.2,0-0.4,0-0.7,0c-0.1,0-0.2,0-0.3,0.1c-0.2,0.1-0.3,0.2-0.3,0.5c0.1,1.7,0.4,4.3,1.7,5.7
			c-0.1,0.1-0.2,0.2-0.2,0.4c-0.1,12.3-0.5,24.7-0.5,37c0,0,0,0.1,0,0.1c-0.8,1.3-1.1,3.2-1.2,4.6c0,0.3,0.3,0.6,0.6,0.6
			c0.3,0,0.6,0,0.9,0c-0.1,29.6,0,59.3-0.1,88.9c-0.1,0-0.2,0-0.3,0c-0.2,0-0.3,0.1-0.4,0.1c0,0,0,0,0,0c0,0,0,0,0,0
			c-0.1,0.1-0.1,0.2-0.1,0.4c0,3,0,6.1,0,9.1c-0.7,0-1.3,0-2,0c-0.2,0-0.3,0.1-0.4,0.1c0,0,0,0,0,0c0,0,0,0,0,0
			c-0.1,0.1-0.1,0.2-0.1,0.4c0,2.2,0,4.3,0,6.5c0,0.3,0.3,0.6,0.6,0.6c0.3,0,0.6,0,1,0c0.1,2.4,0.5,6.7,3.2,7.4
			c0.6,0.2,1.3,0.2,2,0.2c-1.6,2.7,0,6.6,3.5,6.6c3.6,0,5.2-3.8,3.6-6.6c0.8,0,1.5,0,2.1-0.2c2.6-0.8,3-5.1,3.1-7.4c0.3,0,0.6,0,1,0
			c0.3,0,0.6-0.3,0.6-0.6C190.5,696.6,190.5,694.4,190.5,692.3z M180,434.6c0.5,0.1,1,0.1,1.5,0.1c0.5,0,1.1,0,1.6-0.1
			c5.3,1.2,7.2,8.1,3.4,12.3c-0.1,0.1-0.1,0.1-0.1,0.2c-1.5-0.3-3.5,0-4.9,0c-1.4,0-3.4-0.4-4.9-0.1c0,0,0,0,0,0
			C172.7,442.8,174.6,435.7,180,434.6z M177.1,448.2c1.4-0.2,2.9,0,4.4,0c1.4,0,3-0.2,4.4,0c2.3,0.3,2.6,3.7,2.7,5.9
			c-2.2-1.2-4.6-2.1-7.1-2.2c-2.5,0.1-4.9,1-7.1,2.2C174.5,451.9,174.9,448.5,177.1,448.2z M172.2,459.8c-0.8-0.4-0.6-1.1-0.4-2.1
			c0.2-1,0.3-1,1.3-1.7c2.5-1.6,5.4-3,8.5-3.1c3.1,0.1,6.1,1.6,8.6,3.4c0.3,0.2,0.7,0.4,0.9,0.6c0,0,0,0,0.1,0.1c0,0,0,0,0,0.1
			c0.2,0.5,0.3,2.4,0.1,3c0-0.1-0.4,0-0.7,0.1c-0.7,0-1.3,0.1-2,0.1c-1.9,0.1-3.7,0.1-5.6,0c-2,0-4,0-6.1-0.1
			C175.5,460.1,173.3,460.4,172.2,459.8z M175.4,471.3c0-2.5,0-4.9,0-7.4l11.9,0.1c0,2.4,0,4.8,0,7.3
			C184.6,467.7,178.2,467.8,175.4,471.3z M187.3,541.7l-12.6-0.1c0.1-22.6,0.5-45.2,0.7-67.8c0,0,0,0,0,0c1.4-5.4,10.6-5.7,12-0.1
			C187.3,496.5,187.4,519.1,187.3,541.7z M173.5,545.2c5,0,10,0.1,15,0.1c-0.2,2.1-0.7,4.9-3.1,5c-1.5,0.1-2.9,0-4.4,0
			c-1.5,0-3,0.1-4.4,0C174.1,550.1,173.7,547.4,173.5,545.2z M187,586.8c-0.3-0.2-0.7-0.3-1.1-0.4c-1.7-0.3-3.5,0-5.2,0
			c-1.7,0-3.6-0.3-5.3,0c-0.4,0.1-0.8,0.2-1.1,0.4c0.1-11.9,0.4-23.7,0.5-35.6c0.2,0.1,0.5,0.2,0.7,0.3c1.6,0.3,3.6,0,5.3,0
			c1.7,0,3.8,0.4,5.5,0c0.2,0,0.3-0.1,0.5-0.2C186.8,563.1,187.1,574.9,187,586.8z M173.2,591.9c0.2-2.1,0.9-4.4,3.2-4.4
			c1.4,0,2.8,0,4.3,0c1.5,0,2.9-0.1,4.4,0c2.3,0.1,2.8,2.5,3,4.5C183.2,592,178.2,591.9,173.2,591.9z M186,671.9
			c0,2.6,0,5.1-0.1,7.7l-11.5-0.1c0-2.5,0-5,0-7.6C177.2,675.1,183.3,675,186,671.9z M174.5,669.6c0.1-24.7,0-49.3,0.1-74l12.1,0.1
			c-0.1,24.6-0.5,49.3-0.7,73.9C184.6,674.2,175.8,674.4,174.5,669.6z M186.9,683.1c0,2.7,0,5.5,0,8.2c-4.5,0-8.9,0-13.4-0.1
			c0-2.7,0-5.5,0-8.2C178,683.1,182.5,683.1,186.9,683.1z M180.1,712.4c-2.9,0-4-3.5-2.1-5.5c0,0,0,0,0,0c0.7,0,1.5-0.1,2.1-0.1
			c0.7,0,1.4,0.1,2.2,0.1c0,0,0,0.1,0.1,0.1C184.2,709,183,712.4,180.1,712.4z M184.7,705.6c-1.5,0.2-3.1,0-4.6,0
			c-1.5,0-3.2,0.2-4.7,0c-2.5-0.4-2.8-4.2-2.9-6.3c5.1,0,10.2,0.1,15.3,0.1C187.7,701.5,187.4,705.3,184.7,705.6z M189.4,695.5
			l-18.4-0.1c0-0.9,0-1.8,0-2.7c6.1,0,12.3,0.1,18.4,0.1C189.4,693.7,189.4,694.6,189.4,695.5z"/>
		<path d="M182.6,480.3c-0.7-0.6-1-3.2-1.4-3.2c-0.4,0-0.7,2.7-1.3,3.2c-0.5,0.6-2.3,0.9-2.3,1.2s1.8,0.6,2.4,1.2
			c0.6,0.6,1,3.2,1.4,3.2c0.4,0,0.6-2.6,1.3-3.2c0.6-0.6,2.3-0.8,2.3-1.2C184.9,481.1,183.3,481,182.6,480.3z"/>
		<path d="M182.5,491.4c-0.7-0.6-1-3.2-1.4-3.2c-0.4,0-0.7,2.7-1.3,3.2c-0.5,0.6-2.3,0.9-2.3,1.2c0,0.3,1.8,0.6,2.4,1.2
			c0.6,0.6,1,3.2,1.4,3.2c0.4,0,0.6-2.6,1.3-3.2c0.6-0.6,2.3-0.8,2.3-1.2C184.9,492.2,183.2,492.1,182.5,491.4z"/>
		<path d="M179.1,650.9c0.6,0.6,1,3.2,1.4,3.2c0.4,0,0.6-2.6,1.3-3.2c0.6-0.6,2.3-0.8,2.3-1.2c0-0.4-1.7-0.5-2.4-1.2
			c-0.7-0.6-1-3.2-1.4-3.2c-0.4,0-0.7,2.7-1.3,3.2s-2.3,0.9-2.3,1.2C176.8,650,178.5,650.3,179.1,650.9z"/>
		<path d="M180.4,665.1c0.4,0,0.6-2.6,1.3-3.2c0.6-0.6,2.3-0.8,2.3-1.2c0-0.4-1.7-0.5-2.4-1.2c-0.7-0.6-1-3.2-1.4-3.2
			c-0.4,0-0.7,2.7-1.3,3.2c-0.5,0.6-2.3,0.9-2.3,1.2s1.8,0.6,2.4,1.2C179.7,662.5,180,665.1,180.4,665.1z"/>
		<path d="M178.7,575.6c0,2,0.9,2.7,2.1,2.7c1.2,0,2.1-0.7,2.1-2.7c0-2-2-16.1-2-16.1S178.7,573.5,178.7,575.6z"/>
		<polygon points="178.5,444.1 180.7,442.7 181.5,446.6 182.3,442.7 184.5,444.1 183,441.9 187,441.2 183,440.4 184.5,438.2 
			182.3,439.7 181.5,435.7 180.7,439.6 178.5,438.2 180,440.4 176,441.1 180,441.9 		"/>
		<path d="M255.7,697.8c4.6-2.3,6-9,2.4-13.3c2-1.3,2.2-5.2,2.3-7.2c0,0,0,0,0,0c0.1-0.1,0.2-0.1,0.3-0.2c1.9-1.2,2.8-2,2.4-4.6
			c-0.3-1.6-2.1-1.9-3.8-1.9c0.2-27.6,0.6-55.2,0.8-82.8c0.2,0,0.4,0,0.7,0c0.1,0,0.2,0,0.3-0.1c0.2-0.1,0.3-0.2,0.3-0.5
			c-0.1-1.7-0.4-4.3-1.7-5.7c0.1-0.1,0.2-0.2,0.2-0.4c0.1-12.3,0.5-24.7,0.5-37c0,0,0-0.1,0-0.1c0.8-1.3,1.1-3.2,1.2-4.6
			c0-0.3-0.3-0.6-0.6-0.6c-0.3,0-0.6,0-0.9,0c0.1-29.6,0-59.3,0.1-88.9c0.1,0,0.2,0,0.3,0c0.2,0,0.3-0.1,0.4-0.1c0,0,0,0,0,0
			c0,0,0,0,0,0c0.1-0.1,0.1-0.2,0.1-0.4c0-3,0-6.1,0-9.1c0.7,0,1.3,0,2,0c0.2,0,0.3-0.1,0.4-0.1c0,0,0,0,0,0c0,0,0,0,0,0
			c0.1-0.1,0.1-0.2,0.1-0.4c0-2.2,0-4.3,0-6.5c0-0.3-0.3-0.6-0.6-0.6c-0.3,0-0.6,0-1,0c-0.1-2.4-0.5-6.7-3.2-7.4
			c-0.6-0.2-1.3-0.2-2-0.2c1.6-2.7,0-6.6-3.5-6.6c-3.6,0-5.2,3.8-3.6,6.6c-0.8,0-1.5,0-2.1,0.2c-2.6,0.8-3,5.1-3.1,7.4
			c-0.3,0-0.6,0-1,0c-0.3,0-0.6,0.3-0.6,0.6c0,2.2,0,4.3,0,6.5c0,0.3,0.3,0.6,0.6,0.6c0.7,0,1.3,0,2,0c0,3,0,6.1,0,9.1
			c0,0.3,0.3,0.6,0.6,0.6c0.1,0,0.3,0,0.4,0c-0.2,29.6-0.6,59.2-0.8,88.9c-0.3,0-0.6,0-1,0c-0.1,0-0.2,0-0.3,0.1
			c-0.2,0.1-0.3,0.2-0.3,0.5c0.1,1.4,0.4,3.3,1.2,4.7c-0.1,12.3,0.2,24.7,0.1,37c0,0.2,0.1,0.3,0.1,0.4c-1.3,1.4-1.6,4.1-1.8,5.8
			c0,0.3,0.3,0.6,0.6,0.6c0.2,0,0.4,0,0.7,0c-0.2,27.5,0,55-0.1,82.4c0,0.1,0.1,0.3,0.1,0.3c-0.4,0-0.7,0-1.1,0
			c-0.6,0-1.9-0.1-2.4,0.3c-0.7,0.7-0.6,3.5-0.2,4.3c0.4,0.9,1.5,1.5,2.5,2c0.1,2,0.3,5.9,2.2,7.2c-3.7,4.3-2.4,11,2.2,13.3
			c-5.2,1.6-9,6.3-9,12c0,1.2,0.2,2.4,0.5,3.5c1.5-5.3,6.5-9.2,12.3-9.1c5.8,0,10.7,4,12.1,9.3c0.3-1.1,0.5-2.3,0.5-3.5
			C264.7,704.3,260.9,699.4,255.7,697.8z M253.5,419.6c2.9,0,4,3.5,2.1,5.5c0,0,0,0,0,0c-0.7,0-1.5,0.1-2.1,0.1
			c-0.7,0-1.4-0.1-2.2-0.1c0,0,0-0.1-0.1-0.1C249.4,423,250.6,419.6,253.5,419.6z M248.8,426.3c1.5-0.2,3.1,0,4.6,0
			c1.5,0,3.2-0.2,4.7,0c2.5,0.4,2.8,4.2,2.9,6.3c-5.1,0-10.2-0.1-15.3-0.1C245.9,430.4,246.2,426.6,248.8,426.3z M244.2,439.1
			c0-0.9,0-1.8,0-2.7l18.4,0.1c0,0.9,0,1.8,0,2.7C256.5,439.2,250.3,439.1,244.2,439.1z M247.6,460c0-2.6,0-5.1,0.1-7.7l11.5,0.1
			c0,2.5,0,5,0,7.6C256.4,456.8,250.3,456.9,247.6,460z M259.1,462.4c-0.1,24.7,0,49.3-0.1,74l-12.1-0.1c0.1-24.6,0.5-49.3,0.7-73.9
			C249,457.7,257.7,457.5,259.1,462.4z M246.7,448.8c0-2.7,0-5.5,0-8.2c4.5,0,8.9,0,13.4,0.1c0,2.7,0,5.5,0,8.2
			C255.6,448.8,251.1,448.8,246.7,448.8z M245.4,540c5,0,10,0.1,15,0.1c-0.2,2.1-0.9,4.4-3.2,4.4c-1.4,0-2.8,0-4.3,0
			c-1.5,0-2.9,0.1-4.4,0C246.2,544.3,245.6,542,245.4,540z M259.2,545.2c-0.1,11.9-0.4,23.7-0.5,35.6c-0.2-0.1-0.5-0.2-0.7-0.3
			c-1.6-0.3-3.6,0-5.3,0c-1.7,0-3.8-0.4-5.5,0c-0.2,0-0.3,0.1-0.5,0.2c0-11.8-0.2-23.7-0.1-35.5c0.3,0.2,0.7,0.3,1.1,0.4
			c1.7,0.3,3.5,0,5.2,0c1.7,0,3.6,0.3,5.3,0C258.5,545.5,258.9,545.4,259.2,545.2z M245.1,586.6c0.2-2.1,0.7-4.9,3.1-5
			c1.5-0.1,2.9,0,4.4,0c1.5,0,3-0.1,4.4,0c2.4,0.2,2.9,2.9,3.1,5C255.1,586.7,250.1,586.6,245.1,586.6z M246.2,658.1
			c0-22.6-0.1-45.3,0.1-67.9l12.6,0.1c-0.1,22.6-0.5,45.2-0.7,67.8c0,0,0,0,0,0C256.8,663.5,247.6,663.7,246.2,658.1z M258.2,660.6
			c0,2.5,0,4.9,0,7.4l-11.9-0.1c0-2.4,0-4.8,0-7.3C249,664.3,255.4,664.2,258.2,660.6z M243.5,675.6c-0.3-0.2-0.7-0.4-0.9-0.6
			c0,0,0,0-0.1-0.1c0,0,0,0,0-0.1c-0.2-0.5-0.3-2.4-0.1-3c0,0.1,0.4,0,0.7-0.1c0.7,0,1.3-0.1,2-0.1c1.9-0.1,3.7-0.1,5.6,0
			c2,0,4,0,6.1,0.1c1.3,0.1,3.5-0.2,4.6,0.4c0.8,0.4,0.6,1.1,0.4,2.1c-0.2,1-0.3,1-1.3,1.7c-2.5,1.6-5.4,3-8.5,3.1
			C249,678.8,246.1,677.3,243.5,675.6z M245,677.9c2.2,1.2,4.6,2.1,7.1,2.2c2.5-0.1,4.9-1,7.1-2.2c-0.1,2.1-0.5,5.6-2.8,5.8
			c-1.4,0.2-2.9,0-4.4,0c-1.4,0-3,0.2-4.4,0C245.5,683.4,245.2,680,245,677.9z M252.1,697.3c-0.5,0-1.1,0-1.6,0.1
			c-5.3-1.2-7.2-8.1-3.4-12.3c0.1-0.1,0.1-0.1,0.1-0.2c1.5,0.3,3.5,0,4.9,0c1.4,0,3.4,0.4,4.9,0.1c0,0,0,0,0,0
			c3.8,4.1,2,11.2-3.4,12.3C253.1,697.3,252.6,697.3,252.1,697.3z"/>
		<path d="M253.6,649.2c-0.6-0.6-1-3.2-1.4-3.2c-0.4,0-0.6,2.6-1.3,3.2c-0.6,0.6-2.3,0.8-2.3,1.2c0,0.4,1.7,0.5,2.4,1.2
			c0.7,0.6,1,3.2,1.4,3.2c0.4,0,0.7-2.7,1.3-3.2c0.5-0.6,2.3-0.9,2.3-1.2C255.9,650,254.2,649.7,253.6,649.2z"/>
		<path d="M253.6,638.1c-0.6-0.6-1-3.2-1.4-3.2c-0.4,0-0.6,2.6-1.3,3.2c-0.6,0.6-2.3,0.8-2.3,1.2c0,0.4,1.7,0.5,2.4,1.2
			c0.7,0.6,1,3.2,1.4,3.2c0.4,0,0.7-2.7,1.3-3.2c0.5-0.6,2.3-0.9,2.3-1.2C256,638.9,254.2,638.7,253.6,638.1z"/>
		<path d="M254.5,481.1c-0.6-0.6-1-3.2-1.4-3.2c-0.4,0-0.6,2.6-1.3,3.2c-0.6,0.6-2.3,0.8-2.3,1.2c0,0.4,1.7,0.5,2.4,1.2
			c0.7,0.6,1,3.2,1.4,3.2c0.4,0,0.7-2.7,1.3-3.2c0.5-0.6,2.3-0.9,2.3-1.2C256.8,481.9,255.1,481.7,254.5,481.1z"/>
		<path d="M253.2,466.8c-0.4,0-0.6,2.6-1.3,3.2c-0.6,0.6-2.3,0.8-2.3,1.2c0,0.4,1.7,0.5,2.4,1.2c0.7,0.6,1,3.2,1.4,3.2
			c0.4,0,0.7-2.7,1.3-3.2c0.5-0.6,2.3-0.9,2.3-1.2c0-0.3-1.8-0.6-2.4-1.2C253.9,469.4,253.5,466.8,253.2,466.8z"/>
		<path d="M252.8,553.6c-1.2,0-2.1,0.7-2.1,2.7c0,2,2,16.1,2,16.1s2.2-14,2.2-16.1C254.9,554.3,253.9,553.7,252.8,553.6z"/>
		<polygon points="257.6,690.8 253.6,690 255.1,687.8 252.9,689.3 252.1,685.3 251.3,689.3 249.1,687.8 250.6,690 246.6,690.8 
			250.6,691.6 249.1,693.8 251.3,692.3 252,696.3 252.8,692.3 255,693.8 253.6,691.6 		"/>
		<path d="M335,422.1c0-1.2-0.2-2.4-0.5-3.5c-1.5,5.3-6.5,9.2-12.3,9.1c-5.8,0-10.7-4-12.1-9.3c-0.3,1.1-0.5,2.3-0.5,3.5
			c0,5.7,3.7,10.6,8.9,12.2c-4.6,2.3-6,9-2.4,13.3c-2,1.3-2.2,5.2-2.3,7.2c0,0,0,0,0,0c-0.1,0.1-0.2,0.1-0.3,0.2
			c-1.9,1.2-2.8,2-2.4,4.6c0.3,1.6,2.1,1.9,3.8,1.9c-0.2,27.6-0.6,55.2-0.8,82.8c-0.2,0-0.4,0-0.7,0c-0.1,0-0.2,0-0.3,0.1
			c-0.2,0.1-0.3,0.2-0.3,0.5c0.1,1.7,0.4,4.3,1.7,5.7c-0.1,0.1-0.2,0.2-0.2,0.4c-0.1,12.3-0.5,24.7-0.5,37c0,0,0,0.1,0,0.1
			c-0.8,1.3-1.1,3.2-1.2,4.6c0,0.3,0.3,0.6,0.6,0.6c0.3,0,0.6,0,0.9,0c-0.1,29.6,0,59.3-0.1,88.9c-0.1,0-0.2,0-0.3,0
			c-0.2,0-0.3,0.1-0.4,0.1c0,0,0,0,0,0c0,0,0,0,0,0c-0.1,0.1-0.1,0.2-0.1,0.4c0,3,0,6.1,0,9.1c-0.7,0-1.3,0-2,0
			c-0.2,0-0.3,0.1-0.4,0.1c0,0,0,0,0,0c0,0,0,0,0,0c-0.1,0.1-0.1,0.2-0.1,0.4c0,2.2,0,4.3,0,6.5c0,0.3,0.3,0.6,0.6,0.6
			c0.3,0,0.6,0,1,0c0.1,2.4,0.5,6.7,3.2,7.4c0.6,0.2,1.3,0.2,2,0.2c-1.6,2.7,0,6.6,3.5,6.6c3.6,0,5.2-3.8,3.6-6.6
			c0.8,0,1.5,0,2.1-0.2c2.6-0.8,3-5.1,3.1-7.4c0.3,0,0.6,0,1,0c0.3,0,0.6-0.3,0.6-0.6c0-2.2,0-4.3,0-6.5c0-0.3-0.3-0.6-0.6-0.6
			c-0.7,0-1.3,0-2,0c0-3,0-6.1,0-9.1c0-0.3-0.3-0.6-0.6-0.6c-0.1,0-0.3,0-0.4,0c0.2-29.6,0.6-59.2,0.8-88.9c0.3,0,0.6,0,1,0
			c0.1,0,0.2,0,0.3-0.1c0.2-0.1,0.3-0.2,0.3-0.5c-0.1-1.4-0.4-3.3-1.2-4.7c0.1-12.3-0.2-24.7-0.1-37c0-0.2-0.1-0.3-0.1-0.4
			c1.3-1.4,1.6-4.1,1.8-5.8c0-0.3-0.3-0.6-0.6-0.6c-0.2,0-0.4,0-0.7,0c0.2-27.5,0-55,0.1-82.4c0-0.1-0.1-0.3-0.1-0.3
			c0.4,0,0.7,0,1.1,0c0.6,0,1.9,0.1,2.4-0.3c0.7-0.7,0.6-3.5,0.2-4.3c-0.4-0.9-1.5-1.5-2.5-2c-0.1-2-0.3-5.9-2.2-7.2
			c3.7-4.3,2.4-11-2.2-13.3C331.2,432.6,335,427.8,335,422.1z M320.8,712.4c-2.9,0-4-3.5-2.1-5.5c0,0,0,0,0,0c0.7,0,1.5-0.1,2.1-0.1
			c0.7,0,1.4,0.1,2.2,0.1c0,0,0,0.1,0.1,0.1C324.9,709,323.7,712.4,320.8,712.4z M325.5,705.6c-1.5,0.2-3.1,0-4.6,0
			c-1.5,0-3.2,0.2-4.7,0c-2.5-0.4-2.8-4.2-2.9-6.3c5.1,0,10.2,0.1,15.3,0.1C328.4,701.5,328.1,705.3,325.5,705.6z M330.1,692.9
			c0,0.9,0,1.8,0,2.7l-18.4-0.1c0-0.9,0-1.8,0-2.7C317.9,692.8,324,692.8,330.1,692.9z M326.7,671.9c0,2.6,0,5.1-0.1,7.7l-11.5-0.1
			c0-2.5,0-5,0-7.6C317.9,675.1,324,675,326.7,671.9z M315.3,669.6c0.1-24.7,0-49.3,0.1-74l12.1,0.1c-0.1,24.6-0.5,49.3-0.7,73.9
			C325.3,674.2,316.6,674.4,315.3,669.6z M327.7,683.1c0,2.7,0,5.5,0,8.2c-4.5,0-8.9,0-13.4-0.1c0-2.7,0-5.5,0-8.2
			C318.8,683.1,323.2,683.1,327.7,683.1z M328.9,592c-5,0-10-0.1-15-0.1c0.2-2.1,0.9-4.4,3.2-4.4c1.4,0,2.8,0,4.3,0
			c1.5,0,2.9-0.1,4.4,0C328.2,587.7,328.7,590,328.9,592z M315.2,586.8c0.1-11.9,0.4-23.7,0.5-35.6c0.2,0.1,0.5,0.2,0.7,0.3
			c1.6,0.3,3.6,0,5.3,0c1.7,0,3.8,0.4,5.5,0c0.2,0,0.3-0.1,0.5-0.2c0,11.8,0.2,23.7,0.1,35.5c-0.3-0.2-0.7-0.3-1.1-0.4
			c-1.7-0.3-3.5,0-5.2,0c-1.7,0-3.6-0.3-5.3,0C315.8,586.4,315.5,586.6,315.2,586.8z M329.2,545.3c-0.2,2.1-0.7,4.9-3.1,5
			c-1.5,0.1-2.9,0-4.4,0c-1.5,0-2.9,0.1-4.4,0c-2.4-0.2-2.9-2.9-3.1-5C319.2,545.3,324.2,545.3,329.2,545.3z M328.1,473.8
			c0,22.6,0.1,45.3-0.1,67.9l-12.6-0.1c0.1-22.6,0.5-45.2,0.7-67.8c0,0,0,0,0,0C317.5,468.5,326.7,468.2,328.1,473.8z M316.1,471.3
			c0-2.5,0-4.9,0-7.4l11.9,0.1c0,2.4,0,4.8,0,7.3C325.3,467.7,318.9,467.8,316.1,471.3z M330.8,456.3c0.3,0.2,0.7,0.4,0.9,0.6
			c0,0,0,0,0.1,0.1c0,0,0,0,0,0.1c0.2,0.5,0.3,2.4,0.1,3c0-0.1-0.4,0-0.7,0.1c-0.7,0-1.3,0.1-2,0.1c-1.9,0.1-3.7,0.1-5.6,0
			c-2,0-4,0-6.1-0.1c-1.3-0.1-3.5,0.2-4.6-0.4c-0.8-0.4-0.6-1.1-0.4-2.1c0.2-1,0.3-1,1.3-1.7c2.5-1.6,5.4-3,8.5-3.1
			C325.3,453.1,328.3,454.6,330.8,456.3z M329.3,454.1c-2.2-1.2-4.6-2.1-7.1-2.2c-2.5,0.1-4.9,1-7.1,2.2c0.1-2.1,0.5-5.6,2.8-5.8
			c1.4-0.2,2.9,0,4.4,0c1.4,0,3-0.2,4.4,0C328.8,448.6,329.2,451.9,329.3,454.1z M327.3,446.9c-0.1,0.1-0.1,0.1-0.1,0.2
			c-1.5-0.3-3.5,0-4.9,0c-1.4,0-3.4-0.4-4.9-0.1c0,0,0,0,0,0c-3.8-4.1-2-11.2,3.4-12.3c0.5,0.1,1,0.1,1.5,0.1c0.5,0,1.1,0,1.6-0.1
			C329.2,435.8,331,442.7,327.3,446.9z"/>
		<path d="M320.7,482.8c0.6,0.6,1,3.2,1.4,3.2c0.4,0,0.6-2.6,1.3-3.2c0.6-0.6,2.3-0.8,2.3-1.2c0-0.4-1.7-0.5-2.4-1.2
			c-0.7-0.6-1-3.2-1.4-3.2c-0.4,0-0.7,2.7-1.3,3.2c-0.5,0.6-2.3,0.9-2.3,1.2C318.4,482,320.2,482.2,320.7,482.8z"/>
		<path d="M320.7,493.9c0.6,0.6,1,3.2,1.4,3.2c0.4,0,0.6-2.6,1.3-3.2c0.6-0.6,2.3-0.8,2.3-1.2c0-0.4-1.7-0.5-2.4-1.2
			c-0.7-0.6-1-3.2-1.4-3.2c-0.4,0-0.7,2.7-1.3,3.2s-2.3,0.9-2.3,1.2C318.3,493,320.1,493.3,320.7,493.9z"/>
		<path d="M319.9,650.9c0.6,0.6,1,3.2,1.4,3.2c0.4,0,0.6-2.6,1.3-3.2c0.6-0.6,2.3-0.8,2.3-1.2c0-0.4-1.7-0.5-2.4-1.2
			c-0.7-0.6-1-3.2-1.4-3.2c-0.4,0-0.7,2.7-1.3,3.2s-2.3,0.9-2.3,1.2C317.5,650,319.3,650.3,319.9,650.9z"/>
		<path d="M321.2,665.1c0.4,0,0.6-2.6,1.3-3.2c0.6-0.6,2.3-0.8,2.3-1.2c0-0.4-1.7-0.5-2.4-1.2c-0.7-0.6-1-3.2-1.4-3.2
			c-0.4,0-0.7,2.7-1.3,3.2c-0.5,0.6-2.3,0.9-2.3,1.2c0,0.3,1.8,0.6,2.4,1.2S320.8,665.1,321.2,665.1z"/>
		<path d="M321.5,578.3c1.2,0,2.1-0.7,2.1-2.7c0-2-2-16.1-2-16.1s-2.2,14-2.2,16.1C319.5,577.6,320.4,578.3,321.5,578.3z"/>
		<polygon points="323,439.7 322.3,435.7 321.5,439.6 319.3,438.2 320.8,440.4 316.8,441.1 320.7,441.9 319.3,444.1 321.5,442.7 
			322.2,446.6 323,442.7 325.2,444.1 323.8,441.9 327.7,441.2 323.8,440.4 325.2,438.2 		"/>
	</g>
</g>
</svg>
