<?xml version="1.0" encoding="utf-8"?>
<!-- Generator: Adobe Illustrator 21.1.0, SVG Export Plug-In . SVG Version: 6.00 Build 0)  -->
<svg version="1.1" xmlns="http://www.w3.org/2000/svg" xmlns:xlink="http://www.w3.org/1999/xlink" x="0px" y="0px"
	 viewBox="0 0 504 864" style="enable-background:new 0 0 504 864;" xml:space="preserve">
<style type="text/css">
	.st0{fill:#040404;}
</style>
<g id="Слой_1">
</g>
<g id="Слой_2">
	<g>
		<polygon points="51.7,808.8 44,814 41.2,799.9 38.4,814 30.7,808.8 35.9,816.5 21.8,819.3 35.9,822 30.7,829.8 38.4,824.6 
			41.2,838.6 43.9,824.6 51.7,829.8 46.5,822 60.5,819.3 46.5,816.5 		"/>
		<polygon points="468.1,816.5 473.3,808.8 465.5,814 462.8,799.9 460,814 452.3,808.8 457.5,816.5 443.4,819.3 457.5,822 
			452.3,829.8 460,824.6 462.8,838.6 465.5,824.6 473.3,829.8 468.1,822 482.1,819.3 		"/>
		<polygon points="30.7,57.5 38.4,52.3 41.2,66.4 44,52.3 51.7,57.5 46.5,49.8 60.5,47 46.5,44.3 51.7,36.5 43.9,41.7 41.2,27.7 
			38.4,41.7 30.7,36.5 35.9,44.3 21.8,47 35.9,49.8 		"/>
		<polygon points="473.3,36.5 465.5,41.7 462.8,27.7 460,41.7 452.3,36.5 457.5,44.3 443.4,47 457.5,49.8 452.3,57.5 460,52.3 
			462.8,66.4 465.5,52.3 473.3,57.5 468.1,49.8 482.1,47 468.1,44.3 		"/>
		<path d="M503.8,18.2c-1.6-17.9-18.7-16.3-31.6-16.3c-45.9,0-91.8,0-137.6,0c-63.2,0-126.3,0-189.5,0c-40.6,0-81.2,0-121.8,0
			c-2.6,0-5.3-0.2-8,0.2c-9.5,1.2-15,9.2-15.2,18.2c-0.2,7.3,0,14.5,0,21.8c0,37.4,0,74.9,0,112.3c0,57,0,114.1,0,171.1
			c0,64.3,0,128.6,0,192.9c0,58.4,0,116.7,0,175.1c0,40.1,0,80.2,0,120.3c0,9.1,0,18.2,0,27.3c0,11.7,6.7,20.5,19.2,20.7
			c35.9,0.6,71.9,0,107.9,0c62.4,0,124.9,0,187.3,0c49.7,0,99.5,0,149.2,0c7.6,0,15.2,0,22.9,0c0.4,0,0.8-0.1,1.2-0.2
			c14.4-1.8,16.1-13.8,16.1-25.5c0-11.4,0-22.8,0-34.3c0-43.4,0-86.9,0-130.3c0-59.9,0-119.8,0-179.8c0-63.9,0-127.7,0-191.6
			c0-55.3,0-110.6,0-165.9c0-33.7,0-67.3,0-101C503.9,28.3,504.2,23.2,503.8,18.2z M486.6,852.8c-28.3,0-56.6,0-84.9,0
			c-59.9,0-119.8,0-179.7,0c-54,0-108,0-162,0c-13.1,0-26.1,0-39.2,0c-5.6,0-11-1.3-11.7-8.3c-0.1-1.5,0-3,0-4.5c0-26.5,0-53,0-79.5
			c0-50,0-100,0-149.9c0-61.8,0-123.6,0-185.4c0-61.4,0-122.7,0-184.1c0-48.9,0-97.7,0-146.6c0-24.2-0.8-48.6,0-72.7
			c0.2-5.3,1.6-10.1,8.3-10.8c2.2-0.2,4.5,0,6.7,0c14.8,0,29.6,0,44.5,0c55.6,0,111.3,0,166.9,0c58.9,0,117.8,0,176.7,0
			c18.9,0,37.9,0,56.8,0c8.1,0,24.7-3.1,25.9,8.4c0.5,5.2,0,10.8,0,16.1c0,13.5,0,27.1,0,40.6c0,45.5,0,91.1,0,136.6
			c0,60.1,0,120.2,0,180.3c0,62.6,0,125.2,0,187.7c0,52.8,0,105.6,0,158.4c0,31.4,0,62.7,0,94.1C494.8,840.3,496.9,852,486.6,852.8z
			"/>
		<path d="M460,790.9c1.2,0.1,2.4-0.7,2.4-2.2c0-23.7,0-47.4,0-71.1c0-56.4,0-112.8,0-169.2c0-68.7,0-137.4,0-206
			c0-59,0-117.9,0-176.9c0-19.6,0-39.2,0-58.8c0-8.9,1.3-19,0-27.9c-0.1-0.4,0-0.8,0-1.2c0-0.8-0.3-1.3-0.8-1.7
			c0.1-1.2-0.6-2.5-2.2-2.6c-13.1-0.5-25.3-13.8-25.8-26.7c0-0.5-0.2-0.8-0.4-1.1c-0.3-0.6-1-1.1-1.9-1.1c-40.5,0-80.9,0-121.4,0
			c-64.5,0-129,0-193.6,0c-14.9,0-29.7,0-44.6,0c-0.9,0-1.6,0.5-1.9,1.1c-0.2,0.3-0.3,0.7-0.4,1.2C69.1,59.5,57,72.8,43.9,73.3
			c-1.8,0.1-2.5,1.9-2,3.2c-0.2,0.3-0.2,0.6-0.2,1c0,23.7,0,47.4,0,71.1c0,56.4,0,112.8,0,169.2c0,68.7,0,137.4,0,206
			c0,59,0,117.9,0,176.9c0,19.6,0,39.2,0,58.8c0,8.9-1.3,19,0,27.9c0.1,0.4,0,0.8,0,1.2c0,0.9,0.5,1.6,1.1,1.9
			c0.3,0.2,0.7,0.3,1.2,0.4c13,0.5,25.3,13.3,25.8,26.2c0,0.5,0.2,0.8,0.4,1.1c0.3,0.6,1,1.1,1.9,1.1c40.5,0,80.9,0,121.4,0
			c64.5,0,129,0,193.6,0c14.9,0,29.7,0,44.6,0c0.9,0,1.6-0.5,1.9-1.1c0.2-0.3,0.3-0.7,0.4-1.2c0.5-12.9,12.7-25.7,25.8-26.2
			C459.6,791,459.8,790.9,460,790.9z M457.8,148.7c0,56.4,0,112.8,0,169.2c0,68.7,0,137.4,0,206c0,59,0,117.9,0,176.9
			c0,19.6,0,39.2,0,58.8c0,8.6-1.2,18.4-0.1,27c-14.1,1.5-26.7,14.3-28.4,28.3c-39.8,0-79.6,0-119.3,0c-64.5,0-129,0-193.6,0
			c-14.2,0-28.3,0-42.5,0c-1.7-13.9-13.9-26.5-27.8-28.3c0-23,0-46,0-69.1c0-56.4,0-112.8,0-169.2c0-68.7,0-137.4,0-206
			c0-59,0-117.9,0-176.9c0-19.6,0-39.2,0-58.8c0-8.9,1.3-19,0-27.9c-0.1-0.4,0-0.8,0-1.2c14-1.8,26.1-14.9,27.8-28.7
			c39.8,0,79.6,0,119.3,0c64.5,0,129,0,193.6,0c14.2,0,28.3,0,42.5,0c1.7,14.1,14.3,27.4,28.5,28.8
			C457.8,101.3,457.8,125,457.8,148.7z"/>
		<path d="M240.9,80.3c0.2,0,0.3,0.1,0.3,0.4c0,0.2,0.3,0.4,1,0.5c0.6,0.1,1.1,0.4,1.5,0.9c0.4,0.5,0.7,1.1,0.7,1.6
			c0,0.5,0.1,1,0.3,1.6c0.2,0.6,0.4,0.9,0.5,0.9c0.1,0,0.2,0.3,0.2,0.8c0,0.6,0.2,1.1,0.5,1.4c0.3,0.3,0.5,0.9,0.8,1.8
			c0.2,0.9,0.3,1.7,0.3,2.5c0,0.9,0.1,1.4,0.4,1.4c0.1,0.1,0.2,0.3,0.2,0.7c0,0.4,0.1,0.6,0.2,0.6c0.2,0.1,0.3,0.6,0.3,1.6
			c0,0.9,0.1,1.4,0.4,1.4c0.2,0,0.4,0.3,0.6,1c0.2,0.7,0.4,1,0.5,1c0.2,0,0.4,0.3,0.4,0.8c0.1,0.7,0.5,1,1.3,1c0.1,0,0.3,0,0.6-0.1
			c0.5-0.1,0.7-0.4,0.7-1.1c0-0.6,0.1-0.9,0.3-0.9c0.2,0,0.3-0.3,0.3-0.9c0-0.6,0.1-0.9,0.3-0.9c0.2-0.1,0.3-0.6,0.3-1.5
			c0-0.9,0.2-1.6,0.6-1.9c0.5-0.5,0.8-0.7,1.1-0.8c0.3-0.1,0.4-0.5,0.4-1.3c0-0.8,0.1-1.2,0.4-1.4c0.2-0.1,0.4-0.6,0.6-1.5
			c0.2-0.9,0.3-1.4,0.4-1.5c0.3-0.2,0.4-0.5,0.4-0.9c0-0.4,0.2-0.6,0.7-0.7c0.4,0,0.6-0.3,0.6-0.7c0-0.2-0.1-0.6-0.1-1
			c0-1,0.2-1.5,0.6-1.5c0.3,0,0.5-0.3,0.5-0.8c0-0.5,0.2-0.9,0.6-1.4c0.4-0.4,0.9-0.7,1.6-0.8c0.8-0.2,1.2-0.6,1.2-1.4
			c0-0.1,0-0.4-0.1-0.7l-0.1-0.6h-3.7c-2.5,0-3.7,0.1-3.7,0.3c0,0.2-0.1,0.3-0.3,0.3c-0.3,0-0.6,0.2-0.9,0.6
			c-0.4,0.5-0.4,0.7-0.2,0.7c0.3,0,0.5,0.1,0.5,0.4c0.1,0.3,0.5,0.4,1.1,0.4c0.6,0,1,0.2,1.1,0.7c0.1,0.5,0.1,0.7-0.1,0.8
			c-0.2,0.1-0.3,0.5-0.3,1.3c0,0.7-0.1,1.2-0.4,1.3c-0.2,0.1-0.3,0.3-0.3,0.7c0,0.1,0.1,0.2,0.1,0.4c0,0.5-0.1,0.9-0.3,1.4
			c-0.2,0.5-0.4,0.8-0.7,0.8c-0.4,0.1-0.5,0.4-0.5,0.9c0,0.5-0.1,0.9-0.3,1.1c-0.2,0.2-0.4,0.8-0.4,1.7c-0.1,1-0.3,1.5-0.6,1.5
			c-0.4,0-0.5,0.2-0.4,0.5c0,0.2,0,0.4,0,0.4c-0.1,0.1-0.2,0.1-0.4,0.1c-0.4,0-0.7-0.1-0.9-0.2c-0.5-0.3-0.7-1.2-0.8-2.9
			c0-0.7-0.1-1.2-0.4-1.4c-0.2-0.2-0.3-0.7-0.3-1.6c0-1.3-0.3-2.2-0.9-2.6c-0.2-0.1-0.2-0.3,0.1-0.4c0.1,0,0.2-0.2,0.3-0.4
			c0.1-0.2,0.1-0.5,0.1-0.7c0-0.2-0.1-0.3-0.2-0.3c-0.1,0-0.3-0.3-0.4-0.8c-0.1-0.6-0.4-0.9-0.7-0.9c-0.3-0.1-0.4-0.2-0.4-0.3
			c0-0.4,0.5-0.5,1.4-0.5c1.3,0,1.9-0.2,1.9-0.7c0-0.2,0.1-0.4,0.3-0.4c0.2,0,0.1-0.3-0.3-0.8c-0.4-0.5-0.9-0.8-1.6-0.8
			c-0.7,0-1.1-0.1-1.2-0.3c-0.1-0.1-0.3-0.1-0.7,0.1c-0.4,0.2-0.6,0.2-0.7-0.1c-0.2-0.2-0.3-0.3-0.4-0.1c-0.1,0.2-0.5,0.3-1.1,0.3
			c-0.4,0-0.6,0-0.8-0.1c-0.1-0.1-0.2-0.3-0.3-0.7c-0.1-0.5-0.3-0.8-0.7-0.8c-0.2,0-0.5,0.2-0.8,0.5c-0.4,0.4-0.7,0.5-1.2,0.5
			c-0.4,0-0.6,0.1-0.6,0.4c0,0.3-0.1,0.4-0.3,0.4c-0.2,0-0.3,0.2-0.3,0.6C240.6,80.1,240.7,80.3,240.9,80.3z"/>
		<path d="M116.7,783.9c0-0.3-0.1-0.5-0.2-0.6c-0.1-0.1-0.1-0.2,0-0.4c0.1-0.1,0.1-0.2,0.1-0.2c0-0.1-0.1-0.2-0.2-0.2
			c-0.1-0.1-0.2-0.2-0.2-0.3c0-0.2-0.1-0.3-0.3-0.5c-0.2-0.2-0.4-0.3-0.5-0.3c-0.1,0-0.2,0-0.2,0.1c0,0.1-0.3,0.1-0.9,0.2
			c-0.5,0.1-1.1,0.1-1.7,0.1c-0.6,0-0.9,0-1,0.1c-0.1,0-0.5,0.1-1.4,0.1c-0.9,0.1-1.8,0.2-2.7,0.3c-0.9,0.1-1.4,0.2-1.4,0.2
			c0,0,0,0.1,0,0.2c0,0.1,0,0.2,0.1,0.3c0.1,0.2,0.1,0.3,0.2,0.4c0.1,0,0.3,0.1,0.6,0.1c0.5,0,0.9,0.1,1,0.3
			c0.1,0.2,0.2,0.7,0.2,1.6c0,0.9-0.1,1.4-0.2,1.5c-0.1,0.1-0.1,0.2,0,0.4c0.1,0.3,0.2,0.5,0,0.7c-0.1,0.2-0.2,0.3-0.3,0.3
			c-0.1,0,0,0.1,0.1,0.2c0.1,0.1,0.1,0.3,0.1,0.6c0,0.1,0,0.4-0.1,0.8c-0.1,1.4-0.2,2.3-0.2,2.6c-0.1,0.4-0.1,0.5-0.3,0.6
			c-0.2,0.1-0.5,0.3-0.8,0.6l-0.5,0.6h5v-0.5c0-0.2,0-0.4-0.1-0.4c0-0.1-0.1-0.1-0.3-0.1c-0.2,0-0.4,0-0.4-0.1
			c0-0.1-0.1-0.1-0.2-0.1s-0.2-0.1-0.3-0.3c0-0.1,0-0.4,0-1.2c0-1.2,0-2.1,0.1-2.8c0-0.1,0.5-0.1,1.4-0.1c0.8,0,1.3,0.1,1.5,0.2
			c0.3,0.1,0.4,0.4,0.4,0.9c0,0.3,0,0.5,0.1,0.5c0.1,0,0.1-0.1,0.3-0.2c0.1-0.1,0.3-0.2,0.5-0.1c0.2,0.1,0.3,0,0.3-0.2
			c0-0.2,0-0.3,0.1-0.4c0.1-0.1,0.1-0.2,0-0.2c-0.1-0.1-0.2-0.3-0.2-0.6c0-0.4,0.1-0.7,0.2-0.8c0.1-0.1,0.1-0.1,0.1-0.2
			c0-0.1,0-0.1-0.1-0.2c-0.1-0.1-0.1-0.2-0.1-0.2c0-0.1,0-0.1,0.1-0.2c0.2-0.1,0.2-0.2,0.2-0.4c0-0.3-0.4-0.4-1.1-0.4
			c-0.4,0-0.6,0.2-0.6,0.5c0,0.1,0,0.2,0.1,0.3c0.1,0.2,0,0.4,0,0.5c-0.1,0.1-0.4,0.2-1,0.3c-0.6,0.1-1.1,0.2-1.6,0.2h-0.5v-0.6
			c0-0.4,0.1-0.6,0.2-0.7c0.1-0.1,0.2-0.2,0.2-0.4c0-0.3-0.1-0.5-0.2-0.8c-0.1-0.2-0.2-0.4-0.2-0.4c0-0.1,0.1-0.1,0.2-0.3
			c0.2-0.2,0.3-0.4,0.2-0.6c0-0.1,0-0.1,0-0.2c0-0.1,0.1-0.2,0.4-0.3c0.3-0.1,0.8-0.1,1.6-0.1c0.7,0,1.1-0.1,1.1-0.1
			c0.3,0,0.5,0.1,0.7,0.2c0.2,0.2,0.3,0.3,0.5,0.4c0.2,0.1,0.3,0.2,0.3,0.3c0,0.1,0.1,0.3,0.3,0.4c0.2,0.1,0.4,0.3,0.5,0.6
			c0.1,0.4,0.4,0.5,0.8,0.5c0.1,0,0.2,0,0.3-0.1c0.1-0.1,0.2-0.2,0.2-0.6c0-0.3-0.1-0.5-0.2-0.5
			C116.8,784.4,116.7,784.2,116.7,783.9z"/>
		<path d="M130,782c-0.1-0.1-0.7-0.1-1.8-0.1c-1,0-1.5,0-1.5,0.1c0,0.1-0.2,0.1-0.5,0.1c-0.3,0-0.5,0.1-0.5,0.2c0,0.1,0,0.2-0.1,0.2
			c-0.1,0-0.1,0.1-0.1,0.3c0,0.3,0.1,0.4,0.2,0.5c0.1,0.1,0.2,0.5,0.2,1.3c0,0.8,0,1.2,0.1,1.3c0.1,0,0.1,0.4,0.1,1.1
			c0,0.7,0,1-0.1,1.1c-0.1,0-0.2,0.8-0.2,2.2c0,1.2-0.1,2-0.2,2.2c-0.1,0.2-0.4,0.4-0.9,0.5c-0.3,0-0.5,0.1-0.5,0.1
			c-0.1,0.1-0.1,0.2-0.1,0.4c0,0.3,0.1,0.5,0.2,0.5c0.2,0,0.3,0.1,0.5,0.2c0.2,0.2,0.3,0.2,0.3,0.1c0.1-0.1,0.8-0.2,2.1-0.2
			c1.1,0,1.6,0.1,1.6,0.2c0,0.1,0.1,0.1,0.3,0.1c0.2,0,0.3,0,0.3-0.1s0.1-0.2,0.3-0.3c0.2-0.1,0.3-0.2,0.3-0.3c0-0.4-0.4-0.7-1-0.8
			l-0.6-0.1l0.1-3.5c0-2.3,0.1-3.5,0.2-3.6c0.1-0.1,0.1-0.4,0.1-1c0.1-1.1,0.2-1.6,0.4-1.6c0.1,0,0.2,0,0.2-0.1
			c0-0.1,0.1-0.2,0.4-0.2c0.2,0,0.4-0.1,0.5-0.2c0.1-0.1,0.2-0.2,0.2-0.4C130.2,782.3,130.1,782.1,130,782z M126.5,790.9
			c-0.1,0-0.2,0-0.2-0.1c0-0.1,0.1-0.1,0.2-0.1c0.1,0,0.2,0,0.2,0.1C126.7,790.9,126.6,790.9,126.5,790.9z M127.4,787.1
			c-0.1,0-0.2-0.1-0.2-0.3c0-0.2,0.1-0.3,0.2-0.3c0.1,0,0.2,0.1,0.2,0.3C127.6,787,127.5,787.1,127.4,787.1z"/>
		<path d="M149.3,781h-2c-1.3,0-2,0-2,0.1c0,0.1-0.1,0.2-0.2,0.2c-0.1,0-0.3,0.1-0.5,0.4c-0.2,0.2-0.2,0.4-0.1,0.4
			c0.1,0,0.2,0.1,0.3,0.2c0.1,0.1,0.2,0.2,0.6,0.2c0.2,0,0.3,0,0.4,0.1c0.1,0.1,0.1,0.2,0.2,0.3c0.1,0.2,0,0.4-0.1,0.4
			c-0.1,0-0.2,0.3-0.2,0.6c0,0.4-0.1,0.6-0.2,0.7c-0.2,0.1-0.2,0.2-0.2,0.4c0,0,0,0.1,0,0.2c0,0.3-0.1,0.5-0.2,0.8
			c-0.1,0.3-0.2,0.4-0.4,0.5c-0.2,0.1-0.3,0.2-0.3,0.5c0,0.3,0,0.5-0.1,0.6c-0.1,0.1-0.2,0.4-0.2,0.9c-0.1,0.5-0.2,0.8-0.3,0.8
			c-0.1,0-0.2,0.1-0.2,0.2v0.2c0,0.1-0.1,0.2-0.2,0.2c-0.2,0-0.4,0-0.5-0.1c-0.2-0.2-0.4-0.7-0.4-1.5c0-0.3-0.1-0.5-0.2-0.8
			c-0.1-0.2-0.2-0.5-0.2-0.9c0-0.8-0.2-1.2-0.5-1.4c-0.1-0.1-0.1-0.1,0-0.2c0.1-0.1,0.2-0.2,0.2-0.5c0-0.2,0-0.3-0.1-0.3
			c-0.1,0-0.1-0.1-0.2-0.4c-0.1-0.3-0.2-0.4-0.4-0.5c-0.2-0.1-0.2-0.1-0.2-0.2c0-0.2,0.2-0.3,0.7-0.3c0.7,0,1.1-0.1,1.1-0.4
			c0-0.1,0.1-0.2,0.2-0.2c0.1,0,0.1-0.1-0.2-0.4c-0.2-0.3-0.5-0.4-0.8-0.4c-0.4,0-0.6-0.1-0.6-0.2c-0.1-0.1-0.2-0.1-0.4,0.1
			c-0.2,0.1-0.3,0.1-0.4,0c-0.1-0.1-0.2-0.2-0.2,0c-0.1,0.1-0.3,0.2-0.6,0.2c-0.2,0-0.3,0-0.4-0.1c-0.1-0.1-0.1-0.2-0.2-0.4
			c-0.1-0.3-0.2-0.4-0.4-0.4c-0.1,0-0.3,0.1-0.5,0.3c-0.2,0.2-0.4,0.3-0.6,0.3c-0.2,0-0.3,0.1-0.3,0.2c0,0.1,0,0.2-0.1,0.2
			c-0.1,0-0.1,0.1-0.1,0.4c0,0.2,0,0.4,0.1,0.4c0.1,0,0.1,0.1,0.1,0.2c0,0.1,0.2,0.2,0.5,0.3c0.3,0.1,0.6,0.2,0.8,0.5
			c0.2,0.3,0.4,0.6,0.4,0.9c0,0.3,0.1,0.5,0.2,0.9c0.1,0.3,0.2,0.5,0.3,0.5c0.1,0,0.1,0.2,0.1,0.5c0,0.3,0.1,0.5,0.3,0.7
			c0.2,0.2,0.3,0.5,0.4,1c0.1,0.5,0.2,0.9,0.2,1.4c0,0.5,0.1,0.7,0.2,0.8c0.1,0,0.2,0.1,0.1,0.3c0,0.2,0,0.3,0.1,0.4
			c0.1,0.1,0.2,0.4,0.2,0.9s0.1,0.8,0.2,0.8c0.1,0,0.2,0.2,0.3,0.6c0.1,0.4,0.2,0.6,0.3,0.6c0.1,0,0.2,0.1,0.3,0.4
			c0.1,0.4,0.3,0.6,0.7,0.6c0.1,0,0.2,0,0.3-0.1c0.2,0,0.3-0.1,0.3-0.1c0-0.1,0.1-0.2,0.1-0.4c0-0.3,0.1-0.5,0.2-0.5
			c0.1,0,0.1-0.2,0.1-0.5s0.1-0.5,0.2-0.5c0.1-0.1,0.2-0.3,0.2-0.8c0-0.5,0.1-0.8,0.4-1.1c0.1-0.1,0.2-0.2,0.4-0.3
			c0.2-0.1,0.3-0.2,0.3-0.3c0.1-0.1,0.1-0.3,0.1-0.6c0-0.4,0.1-0.6,0.2-0.8c0.1-0.1,0.2-0.3,0.3-0.8c0.1-0.5,0.2-0.7,0.3-0.8
			c0.1-0.1,0.2-0.3,0.2-0.5c0-0.2,0.1-0.4,0.4-0.4c0.1,0,0.1,0,0.2,0c0.1,0,0.1,0,0.1-0.1c0,0,0-0.1,0.1-0.1c0,0,0-0.1,0-0.1
			c0-0.1,0-0.3,0-0.5c0-0.6,0.1-0.8,0.3-0.8c0.2,0,0.3-0.1,0.3-0.4c0-0.3,0.1-0.5,0.4-0.7c0.2-0.2,0.5-0.4,0.8-0.4
			c0.4-0.1,0.7-0.3,0.7-0.8c0-0.1,0-0.2-0.1-0.4L149.3,781z"/>
		<path d="M156.6,792c0.1-0.2,0.1-0.3,0-0.3c-0.1,0-0.2,0.1-0.2,0.2c0,0.1,0,0.2,0.1,0.2C156.5,792.1,156.6,792.1,156.6,792z"/>
		<path d="M166.7,790.2c-0.1,0-0.3,0.2-0.5,0.5c-0.3,0.3-0.4,0.5-0.4,0.7c0,0.1-0.1,0.2-0.4,0.2c-0.1,0-0.2,0-0.3,0.1
			c0,0-0.1,0.1-0.1,0.1c0,0,0,0.1,0,0.3c0,0.2-0.1,0.3-0.4,0.3c0,0-0.1,0-0.1,0c-0.1,0-0.1,0-0.2,0c-0.2,0-0.4,0.1-0.6,0.3
			c-0.2,0.2-0.4,0.3-0.6,0.3c-0.1,0-0.2-0.1-0.2-0.2c0-0.1-0.1-0.1-0.4,0c-0.2,0.1-0.6,0.2-1.2,0.2c-0.5,0-0.7,0-0.7-0.1
			s-0.1-0.1-0.2-0.1c-0.1,0-0.1-0.1-0.2-0.2c-0.1-0.2-0.1-0.3-0.1-0.4c0-0.1,0-0.2,0-0.3c0-0.2,0-0.4,0-0.6c0-0.3,0-0.5,0-0.8
			c0-0.3,0-0.5,0-0.8c0-0.3,0-0.5,0-0.6v-0.2c0-0.1,0.4-0.1,1.3-0.1c0.7,0,1.2,0.1,1.4,0.2c0.2,0.1,0.4,0.4,0.4,0.8
			c0,0.2,0,0.3,0.1,0.3c0,0,0.1,0,0.2,0c0.1-0.1,0.3-0.1,0.5-0.1c0.1,0,0.2,0,0.3-0.1c0-0.1,0.1-0.2,0.1-0.5c0-0.1,0-0.2,0-0.3
			c0-0.2,0-0.3,0-0.4v-0.2c0-0.3,0-0.6,0.1-0.7c0.1-0.1,0.1-0.3,0-0.4c-0.1-0.1-0.1-0.3,0.1-0.4c0.1-0.1,0.2-0.2,0.2-0.4
			c0-0.3-0.3-0.4-1-0.4c-0.4,0-0.6,0.2-0.6,0.5c0,0.1,0,0.2,0.1,0.3c0,0.2,0,0.4,0,0.5c-0.1,0.1-0.3,0.2-0.9,0.3
			c-0.5,0.1-1,0.1-1.5,0.1h-0.6v-0.6c0-0.4,0.1-0.6,0.2-0.6c0.1,0,0.2-0.1,0.2-0.4c0-0.3-0.1-0.5-0.2-0.9c-0.1-0.2-0.2-0.4-0.1-0.4
			c0-0.1,0.1-0.1,0.2-0.3c0.2-0.1,0.3-0.3,0.2-0.5c0,0,0-0.1,0-0.2c0-0.1,0.1-0.3,0.4-0.3c0.3-0.1,0.7-0.1,1.5-0.2
			c0.7,0,1.1-0.1,1.1-0.1c0.3,0,0.5,0.1,0.6,0.2c0.1,0.2,0.3,0.3,0.5,0.4c0.2,0.1,0.3,0.2,0.3,0.3c0,0.1,0.1,0.2,0.3,0.3
			c0.2,0.1,0.3,0.2,0.3,0.3c0,0.2,0.1,0.3,0.3,0.5c0.2,0.2,0.4,0.2,0.6,0.2h0c0.3,0,0.4-0.2,0.4-0.6c0-0.2-0.1-0.3-0.2-0.5
			c-0.1-0.1-0.2-0.3-0.2-0.5c0-0.3-0.1-0.5-0.2-0.5c-0.1,0-0.1-0.1,0-0.4c0.1-0.1,0.1-0.2,0.1-0.3c0,0-0.1-0.1-0.1-0.1
			c-0.1-0.1-0.2-0.2-0.2-0.3c0-0.1-0.1-0.3-0.3-0.5c-0.2-0.2-0.4-0.3-0.6-0.1c-0.3,0.1-1.8,0.3-4.7,0.4H160c-1.5,0-2.2-0.1-2.3-0.3
			c0-0.1-0.1-0.1-0.2-0.1s-0.2,0-0.2,0.1l0,0.1c0,0.1,0,0.1,0,0.1c0,0,0,0.1,0,0.2c0,0.1,0,0.2,0,0.2c0,0.2-0.1,0.3-0.3,0.3
			c-0.2,0.1-0.3,0.2-0.2,0.5c0.1,0.2,0.1,0.4,0.2,0.5c0.1,0.1,0.2,0.1,0.3,0.1c0.1,0,0.3,0,0.4,0c0.1,0,0.2,0,0.4,0
			c0.3,0,0.5,0.1,0.6,0.4c0.1,0.2,0.1,0.7,0.1,1.4c0,0.9-0.1,1.4-0.2,1.4c-0.1,0-0.1,0.2,0,0.4c0.1,0.2,0.1,0.4,0,0.6
			c-0.1,0.2-0.2,0.3-0.3,0.3c-0.1,0-0.1,0.1,0.1,0.2c0.1,0.1,0.1,0.3,0.1,0.6c0,0.5-0.1,1.5-0.2,2.8l-0.1,0.9h-0.6
			c-0.4,0-0.6,0.1-0.6,0.3c0,0.2-0.1,0.3-0.3,0.3c-0.1,0-0.2,0.1-0.2,0.3c0,0.3,0.1,0.5,0.3,0.6c0.2,0.1,0.3,0.2,0.3,0.4
			c0,0.1,0.2,0.1,0.7,0.1c0.5,0,0.8-0.1,0.9-0.3c0.1-0.1,0.5-0.2,1.2-0.2c0.5,0,0.9,0,1.3,0c0.7,0,1.1,0.1,1.2,0.2
			c0,0.1,0.2,0.1,0.4,0c0.2-0.1,0.7-0.2,1.5-0.2c0.8,0,1.3,0,1.5-0.1c0.2,0,0.3-0.1,0.5-0.3c0.2-0.2,0.3-0.3,0.2-0.5
			c0-0.2,0-0.3,0.1-0.4c0.1-0.1,0.2-0.3,0.2-0.8c0-0.3,0-0.5,0-0.6c0-0.1,0.1-0.1,0.2-0.1c0.2,0,0.3-0.2,0.3-0.5
			c0-0.2-0.1-0.4-0.2-0.6C166.9,790.3,166.8,790.2,166.7,790.2z"/>
		<path d="M198.6,785.7c-0.2-0.1-0.2-0.2-0.2-0.5c0-0.3,0-0.5-0.1-0.5c-0.1,0-0.1-0.1-0.1-0.4c0-0.3-0.1-0.4-0.2-0.4
			c-0.1,0-0.2-0.1-0.3-0.3c-0.1-0.2-0.2-0.3-0.3-0.4c-0.1-0.1-0.2-0.2-0.2-0.4c0-0.2-0.1-0.3-0.4-0.3c-0.7,0-1-0.1-1-0.4
			c0-0.1-0.1-0.2-0.2-0.2c-0.1,0-0.2,0-0.2-0.1c0-0.1-0.1-0.1-0.3-0.1c-0.2,0-0.3-0.1-0.4-0.2c0-0.1-0.5-0.2-1.5-0.2
			c-0.9,0-1.5,0.1-1.6,0.2c-0.1,0.1-0.2,0.2-0.4,0.2c-0.2,0-0.3,0.1-0.4,0.3c-0.1,0.2-0.3,0.4-0.6,0.4c-0.3,0-0.6,0.1-1.1,0.2
			c-0.5,0.1-0.7,0.3-0.8,0.5c0,0.2-0.2,0.4-0.5,0.7c-0.3,0.3-0.4,0.5-0.4,0.5c0,0.1-0.1,0.1-0.2,0.1c-0.1,0-0.2,0.1-0.3,0.4
			c-0.1,0.2-0.2,0.4-0.3,0.7c-0.2,0.3-0.2,0.8-0.2,1.8c0,1.2,0.1,2.1,0.4,2.9c0.5,1.4,0.9,2.2,1.2,2.3c0.2,0,0.3,0.1,0.3,0.3
			c0,0.2,0.2,0.2,0.4,0.2c0.2,0,0.4,0,0.4,0.1c0,0.1,0.1,0.1,0.3,0.1c0.2,0,0.3,0.1,0.3,0.4c0,0.2,0,0.3,0.1,0.4
			c0.1,0.1,0.2,0,0.4-0.1c0.1-0.1,0.2-0.1,0.3,0c0.2,0.1,0.9,0.2,2.2,0.2c1.1,0,1.7-0.1,1.7-0.2c0-0.1,0.3-0.2,0.7-0.2
			c0.4,0,0.6-0.1,0.6-0.2c0-0.2,0.1-0.3,0.2-0.3c0,0,0.2-0.1,0.4-0.3c0.3-0.2,0.4-0.3,0.5-0.3c0.1,0,0.2-0.1,0.2-0.3
			c0.1-0.2,0.2-0.3,0.3-0.3c0.1,0,0.2-0.1,0.3-0.3c0-0.2,0.2-0.3,0.4-0.3c0.2-0.1,0.3-0.1,0.3-0.2c0-0.1,0.1-0.1,0.2-0.1
			c0.1,0,0.2-0.2,0.2-0.6c0-0.3,0-0.5-0.1-0.5c-0.1,0-0.1-0.1,0-0.2c0.1-0.1,0.2-0.8,0.2-2.1c0-0.3,0-0.7,0-1.1
			C198.8,786,198.7,785.7,198.6,785.7z M196.4,788.8c-0.1,0-0.2,0.2-0.2,0.4c0,0.3-0.1,0.4-0.2,0.5c-0.1,0.1-0.2,0.4-0.3,0.8
			c-0.1,0.4-0.1,0.6-0.3,0.6c-0.1,0-0.2,0-0.2,0.1c0,0.1-0.1,0.2-0.4,0.2c-0.3,0.1-0.4,0.2-0.4,0.3c0,0.1,0,0.2-0.1,0.2
			c-0.1,0.1-0.2,0.1-0.4,0.2c-0.1,0.1-0.2,0.1-0.3,0.1c0,0.1-0.2,0.1-0.4,0.1c-0.2,0-0.3,0.1-0.5,0.2c-0.1,0.1-0.2,0.1-0.4,0.1
			c-0.2,0-0.4,0-0.7-0.1c-0.5-0.1-1-0.3-1.3-0.6c-0.3-0.3-0.7-0.8-1-1.5c-0.3-0.5-0.4-0.9-0.5-1.1c0-0.2-0.1-0.7-0.1-1.4
			c0-0.7,0-1.1,0.1-1.4c0-0.2,0.1-0.5,0.3-0.8c0.3-0.5,0.6-0.9,1-1.3c0.4-0.4,0.8-0.6,1-0.7c0.3,0,0.5-0.1,0.5-0.3
			c0-0.1,0.1-0.2,0.2-0.2c0.1,0,0.2,0,0.2-0.1c0-0.1,0.1-0.1,0.3-0.1c0.2,0,0.3,0,0.3,0.1c0,0.1,0.3,0.1,0.9,0.1
			c0.5,0,0.8,0.1,0.8,0.2c0,0.1,0.1,0.2,0.3,0.3c0.2,0.1,0.3,0.2,0.3,0.3s0.1,0.2,0.3,0.3c0.3,0.1,0.5,0.4,0.5,0.8
			c0,0.2,0.1,0.5,0.3,0.8c0.2,0.3,0.3,0.7,0.3,1.1c0,0.5,0,0.7,0.1,0.8c0.1,0.1,0.1,0.2,0.1,0.4
			C196.6,788.6,196.5,788.7,196.4,788.8z"/>
		<path d="M216.4,783.9c0-0.3-0.1-0.5-0.2-0.6c-0.1-0.1-0.1-0.2,0-0.4c0.1-0.1,0.1-0.2,0.1-0.2c0-0.1-0.1-0.2-0.2-0.2
			c-0.1-0.1-0.2-0.2-0.2-0.3c0-0.2-0.1-0.3-0.3-0.5c-0.2-0.2-0.4-0.3-0.5-0.3c-0.1,0-0.2,0-0.2,0.1c0,0.1-0.3,0.1-0.9,0.2
			c-0.5,0.1-1.1,0.1-1.7,0.1c-0.6,0-0.9,0-1,0.1c-0.1,0-0.5,0.1-1.4,0.1c-0.9,0.1-1.8,0.2-2.7,0.3c-0.9,0.1-1.4,0.2-1.4,0.2
			c0,0,0,0.1,0,0.2c0,0.1,0,0.2,0.1,0.3c0.1,0.2,0.1,0.3,0.2,0.4c0.1,0,0.3,0.1,0.6,0.1c0.5,0,0.9,0.1,1,0.3
			c0.1,0.2,0.2,0.7,0.2,1.6c0,0.9-0.1,1.4-0.2,1.5c-0.1,0.1-0.1,0.2,0,0.4c0.1,0.3,0.2,0.5,0,0.7c-0.1,0.2-0.2,0.3-0.3,0.3
			c-0.1,0,0,0.1,0.1,0.2c0.1,0.1,0.1,0.3,0.1,0.6c0,0.1,0,0.4-0.1,0.8c-0.1,1.4-0.2,2.3-0.2,2.6c-0.1,0.4-0.1,0.5-0.3,0.6
			c-0.2,0.1-0.5,0.3-0.8,0.6l-0.5,0.6h5v-0.5c0-0.2,0-0.4-0.1-0.4c0-0.1-0.1-0.1-0.3-0.1c-0.2,0-0.4,0-0.4-0.1
			c0-0.1-0.1-0.1-0.2-0.1s-0.2-0.1-0.3-0.3c0-0.1,0-0.4,0-1.2c0-1.2,0-2.1,0.1-2.8c0-0.1,0.5-0.1,1.4-0.1c0.8,0,1.3,0.1,1.5,0.2
			c0.3,0.1,0.4,0.4,0.4,0.9c0,0.3,0,0.5,0.1,0.5c0.1,0,0.1-0.1,0.3-0.2c0.1-0.1,0.3-0.2,0.5-0.1c0.2,0.1,0.3,0,0.3-0.2
			c0-0.2,0-0.3,0.1-0.4c0.1-0.1,0.1-0.2,0-0.2c-0.1-0.1-0.2-0.3-0.2-0.6c0-0.4,0.1-0.7,0.2-0.8c0.1-0.1,0.1-0.1,0.1-0.2
			c0-0.1,0-0.1-0.1-0.2c-0.1-0.1-0.1-0.2-0.1-0.2c0-0.1,0-0.1,0.1-0.2c0.2-0.1,0.2-0.2,0.2-0.4c0-0.3-0.4-0.4-1.1-0.4
			c-0.4,0-0.6,0.2-0.6,0.5c0,0.1,0,0.2,0.1,0.3c0.1,0.2,0,0.4,0,0.5c-0.1,0.1-0.4,0.2-1,0.3c-0.6,0.1-1.1,0.2-1.6,0.2h-0.5v-0.6
			c0-0.4,0.1-0.6,0.2-0.7c0.1-0.1,0.2-0.2,0.2-0.4c0-0.3-0.1-0.5-0.2-0.8c-0.1-0.2-0.2-0.4-0.2-0.4c0-0.1,0.1-0.1,0.2-0.3
			c0.2-0.2,0.3-0.4,0.2-0.6c0-0.1,0-0.1,0-0.2c0-0.1,0.1-0.2,0.4-0.3c0.3-0.1,0.8-0.1,1.6-0.1c0.7,0,1.1-0.1,1.1-0.1
			c0.3,0,0.5,0.1,0.7,0.2c0.2,0.2,0.3,0.3,0.5,0.4c0.2,0.1,0.3,0.2,0.3,0.3c0,0.1,0.1,0.3,0.3,0.4c0.2,0.1,0.4,0.3,0.5,0.6
			c0.1,0.4,0.4,0.5,0.8,0.5c0.1,0,0.2,0,0.3-0.1c0.1-0.1,0.2-0.2,0.2-0.6c0-0.3-0.1-0.5-0.2-0.5
			C216.4,784.4,216.4,784.2,216.4,783.9z"/>
		<path d="M242.3,780.6C242.3,780.6,242.4,780.5,242.3,780.6c0.1-0.1,0-0.1-0.2-0.1c-0.2,0-0.3,0.1-0.3,0.2
			C241.9,780.7,242,780.7,242.3,780.6C242.2,780.6,242.2,780.6,242.3,780.6z"/>
		<path d="M237.9,779.6c0-0.1-0.1-0.1-0.3-0.1s-0.3,0-0.3,0.1c0,0.1,0.1,0.2,0.3,0.2S237.9,779.7,237.9,779.6z"/>
		<path d="M245.5,782.4c-0.1,0-0.2,0-0.2-0.1c0-0.1-0.1-0.2-0.4-0.3c-0.3-0.1-0.4-0.3-0.5-0.5l-0.2-0.3c-0.1-0.1-0.2-0.1-0.2,0.1
			c0,0.1-0.3,0.1-0.8,0.1c-0.6,0-0.9,0-0.9-0.1c0-0.1-0.1-0.1-0.3-0.1c-0.5,0-0.8-0.1-0.8-0.4c0-0.1-0.1-0.2-0.3-0.2
			s-0.3,0.1-0.2,0.3c0,0,0,0,0,0.1c0,0,0,0,0,0.1c0,0.1-0.6,0.2-1.8,0.2h-1.8l-0.5,0.5c-0.3,0.3-0.5,0.5-0.5,0.7
			c0,0.2,0.2,0.4,0.7,0.4c0.2,0,0.3,0,0.3,0.1c0,0.1,0,0.1,0.1,0.1c0.2,0,0.4,0.2,0.6,0.5c0.2,0.3,0.3,0.7,0.3,1.2
			c0,0.4,0.1,0.6,0.1,0.6c0,0.2-0.1,0.4-0.2,0.5c-0.2,0.1-0.2,0.2-0.1,0.3c0.1,0.1,0.2,0.3,0.2,0.7c0,0.3-0.1,0.5-0.2,0.5
			c-0.2,0-0.2,0,0,0.1c0.1,0.1,0.1,0.3,0,0.6c-0.1,0.3-0.1,0.5,0.1,0.6c0.1,0.1,0.1,0.2,0.1,0.3c0,0.2-0.1,0.4-0.2,0.5
			c-0.1,0.1-0.1,0.6-0.2,1.6l0,1.5l-0.4,0.2c-0.2,0.1-0.5,0.2-1.1,0.2c-0.3,0-0.5,0.1-0.5,0.1s-0.1,0.2-0.1,0.4
			c0,0.2,0.2,0.5,0.6,0.8c0.2,0.1,0.3,0.2,0.5,0.2c0.2,0,0.3-0.1,0.3-0.2c0.1-0.1,0.8-0.2,2.1-0.2c1.4-0.1,2.1-0.1,2.2-0.3
			c0.1-0.1,0.2-0.2,0.3-0.2c0.1,0,0.2-0.1,0.2-0.2c0-0.1-0.1-0.2-0.4-0.2c-0.3,0-0.4-0.1-0.5-0.3c0-0.2-0.2-0.3-0.5-0.4
			c-0.4-0.1-0.5-0.2-0.5-0.4c0-0.1,0-0.2,0.1-0.3c0.2-0.2,0.2-0.3,0.1-0.4c-0.1,0-0.2-0.6-0.2-1.6c0-0.3,0-0.6,0-1
			c0-0.3,0-0.4,0.1-0.5c0-0.1,0.1-0.1,0.2-0.1c0.2,0,0.5,0,0.8,0.1c0.3,0.1,0.5,0.2,0.6,0.3c0.1,0.1,0.7,0.2,1.7,0.2
			c0.8,0,1.2,0,1.2-0.1c0.1-0.1,0-0.2-0.2-0.3c-0.2-0.1-0.4-0.2-0.5-0.4c-0.1-0.1-0.2-0.2-0.2-0.2c0,0,0.1-0.1,0.3-0.1
			c0.3-0.1,0.4-0.1,0.4-0.2s0.1-0.2,0.4-0.3c0.3-0.1,0.4-0.2,0.4-0.4c0-0.5,0.1-0.7,0.3-0.7c0.1,0,0.2-0.1,0.4-0.2
			c0.2-0.2,0.2-0.7,0.2-1.5c0-1-0.1-1.5-0.3-1.7C245.8,782.5,245.7,782.4,245.5,782.4z M243.9,786.1c0,0-0.1,0.1-0.4,0.1h-0.1
			c0,0-0.1,0-0.1,0c-0.1,0-0.1,0,0,0.1c0.1,0.1,0.2,0.1,0.2,0.2c0,0.1-0.1,0.3-0.3,0.5c-0.2,0.2-0.5,0.3-0.7,0.3s-0.6,0.1-1.1,0.2
			c-0.1,0-0.2,0-0.3,0c-0.2,0-0.4-0.1-0.7-0.3c-0.2-0.2-0.3-0.3-0.4-0.3c0-0.1,0-0.1,0.1-0.2c0.1-0.1,0.2-0.7,0.2-1.6v-1.2
			c0-0.3,0.1-0.5,0.2-0.7c0.1-0.2,0.3-0.4,0.4-0.4h0.1l0.4,0.1c0.3,0,0.5,0.1,0.8,0.1c0.2,0.1,0.4,0.1,0.4,0.1
			c0,0.1,0.1,0.1,0.4,0.2c0.3,0.1,0.4,0.2,0.4,0.3c0,0.1,0.1,0.3,0.2,0.4c0.1,0.1,0.2,0.2,0.1,0.3c-0.1,0.1-0.1,0.3,0.1,0.6
			c0.1,0.2,0.2,0.4,0.2,0.6C244.1,785.3,244,785.6,243.9,786.1z"/>
		<path d="M263.4,790.2c-0.1,0-0.3,0.2-0.5,0.5c-0.3,0.3-0.4,0.5-0.4,0.7c0,0.1-0.1,0.2-0.4,0.2c-0.1,0-0.2,0-0.3,0.1
			c0,0-0.1,0.1-0.1,0.1c0,0,0,0.1,0,0.3c0,0.2-0.1,0.3-0.4,0.3c0,0-0.1,0-0.1,0c-0.1,0-0.1,0-0.2,0c-0.2,0-0.4,0.1-0.6,0.3
			c-0.2,0.2-0.4,0.3-0.6,0.3c-0.1,0-0.2-0.1-0.2-0.2c0-0.1-0.1-0.1-0.4,0c-0.2,0.1-0.6,0.2-1.2,0.2c-0.5,0-0.7,0-0.7-0.1
			s-0.1-0.1-0.2-0.1c-0.1,0-0.1-0.1-0.2-0.2c-0.1-0.2-0.1-0.3-0.1-0.4c0-0.1,0-0.2,0-0.3c0-0.2,0-0.4,0-0.6c0-0.3,0-0.5,0-0.8
			c0-0.3,0-0.5,0-0.8c0-0.3,0-0.5,0-0.6v-0.2c0-0.1,0.4-0.1,1.3-0.1c0.7,0,1.2,0.1,1.4,0.2c0.2,0.1,0.4,0.4,0.4,0.8
			c0,0.2,0,0.3,0.1,0.3c0,0,0.1,0,0.2,0c0.1-0.1,0.3-0.1,0.5-0.1c0.1,0,0.2,0,0.3-0.1c0-0.1,0.1-0.2,0.1-0.5c0-0.1,0-0.2,0-0.3
			c0-0.2,0-0.3,0-0.4v-0.2c0-0.3,0-0.6,0.1-0.7c0.1-0.1,0.1-0.3,0-0.4c-0.1-0.1-0.1-0.3,0.1-0.4c0.1-0.1,0.2-0.2,0.2-0.4
			c0-0.3-0.3-0.4-1-0.4c-0.4,0-0.6,0.2-0.6,0.5c0,0.1,0,0.2,0.1,0.3c0,0.2,0,0.4,0,0.5c-0.1,0.1-0.3,0.2-0.9,0.3s-1,0.1-1.5,0.1H257
			v-0.6c0-0.4,0.1-0.6,0.2-0.6c0.1,0,0.2-0.1,0.2-0.4c0-0.3-0.1-0.5-0.2-0.9c-0.1-0.2-0.2-0.4-0.1-0.4c0-0.1,0.1-0.1,0.2-0.3
			c0.2-0.1,0.3-0.3,0.2-0.5c0,0,0-0.1,0-0.2c0-0.1,0.1-0.3,0.4-0.3c0.3-0.1,0.7-0.1,1.5-0.2c0.7,0,1.1-0.1,1.1-0.1
			c0.3,0,0.5,0.1,0.6,0.2c0.1,0.2,0.3,0.3,0.5,0.4c0.2,0.1,0.3,0.2,0.3,0.3c0,0.1,0.1,0.2,0.3,0.3c0.2,0.1,0.3,0.2,0.3,0.3
			c0,0.2,0.1,0.3,0.3,0.5c0.2,0.2,0.4,0.2,0.6,0.2h0c0.3,0,0.4-0.2,0.4-0.6c0-0.2-0.1-0.3-0.2-0.5c-0.1-0.1-0.2-0.3-0.2-0.5
			c0-0.3-0.1-0.5-0.2-0.5c-0.1,0-0.1-0.1,0-0.4c0.1-0.1,0.1-0.2,0.1-0.3c0,0-0.1-0.1-0.1-0.1c-0.1-0.1-0.2-0.2-0.2-0.3
			c0-0.1-0.1-0.3-0.3-0.5c-0.2-0.2-0.4-0.3-0.6-0.1c-0.3,0.1-1.8,0.3-4.7,0.4h-0.7c-1.5,0-2.2-0.1-2.3-0.3c0-0.1-0.1-0.1-0.2-0.1
			s-0.2,0-0.2,0.1l0,0.1c0,0.1,0,0.1,0,0.1c0,0,0,0.1,0,0.2c0,0.1,0,0.2,0,0.2c0,0.2-0.1,0.3-0.3,0.3c-0.2,0.1-0.3,0.2-0.2,0.5
			c0.1,0.2,0.1,0.4,0.2,0.5s0.2,0.1,0.3,0.1c0.1,0,0.3,0,0.4,0c0.1,0,0.2,0,0.4,0c0.3,0,0.5,0.1,0.6,0.4c0.1,0.2,0.1,0.7,0.1,1.4
			c0,0.9-0.1,1.4-0.2,1.4c-0.1,0-0.1,0.2,0,0.4c0.1,0.2,0.1,0.4,0,0.6c-0.1,0.2-0.2,0.3-0.3,0.3c-0.1,0-0.1,0.1,0.1,0.2
			c0.1,0.1,0.1,0.3,0.1,0.6c0,0.5-0.1,1.5-0.2,2.8l-0.1,0.9h-0.6c-0.4,0-0.6,0.1-0.6,0.3c0,0.2-0.1,0.3-0.3,0.3
			c-0.1,0-0.2,0.1-0.2,0.3c0,0.3,0.1,0.5,0.3,0.6c0.2,0.1,0.3,0.2,0.3,0.4c0,0.1,0.2,0.1,0.7,0.1c0.5,0,0.8-0.1,0.9-0.3
			c0.1-0.1,0.5-0.2,1.2-0.2c0.5,0,0.9,0,1.3,0c0.7,0,1.1,0.1,1.2,0.2c0,0.1,0.2,0.1,0.4,0c0.2-0.1,0.7-0.2,1.5-0.2
			c0.8,0,1.3,0,1.5-0.1c0.2,0,0.3-0.1,0.5-0.3c0.2-0.2,0.3-0.3,0.2-0.5c0-0.2,0-0.3,0.1-0.4c0.1-0.1,0.2-0.3,0.2-0.8
			c0-0.3,0-0.5,0-0.6c0-0.1,0.1-0.1,0.2-0.1c0.2,0,0.3-0.2,0.3-0.5c0-0.2-0.1-0.4-0.2-0.6C263.7,790.3,263.5,790.2,263.4,790.2z"/>
		<path d="M253.1,791.9c0,0.1,0,0.2,0.1,0.2c0,0,0.1,0,0.1-0.1c0.1-0.2,0.1-0.3,0-0.3C253.2,791.7,253.1,791.8,253.1,791.9z"/>
		<path d="M284,782c-0.1,0-0.2,0-0.3,0.1c-0.2,0.1-0.3,0.1-0.3,0.1c-0.1,0-0.1-0.1-0.2-0.2c-0.1-0.2-0.3-0.3-0.4-0.3
			c-0.1,0-0.2-0.1-0.2-0.3c0-0.2-0.1-0.3-0.3-0.3c-0.2,0-0.3,0.1-0.3,0.3c0,0.2,0.1,0.3,0.2,0.3s0.2,0.1,0.2,0.3
			c0,0.2-0.1,0.3-0.2,0.3c-0.2,0-0.3-0.1-0.3-0.4c-0.1-0.2-0.2-0.4-0.3-0.4c-0.1,0-0.1,0-0.2,0.1c-0.2,0.2-0.2,0.3,0,0.3
			c0.1,0,0.2,0.1,0.2,0.1c0,0.1-0.1,0.2-0.4,0.2c-0.2,0-0.4,0-0.4-0.1c0-0.1-0.1-0.1-0.4-0.1c-0.4,0-0.8,0.1-1.1,0.2
			c-0.4,0.2-0.6,0.4-0.6,0.7c0,0.3,0.3,0.5,0.8,0.6c0.4,0.1,0.6,0.1,0.6,0.2c0,0.1,0.1,0.1,0.3,0.1c0.3,0,0.5,0.2,0.6,0.6
			c0.1,0.4,0.2,1.2,0.2,2.4c0,1.4,0.1,2.2,0.1,2.4c0.1,0.1,0,0.3,0,0.6l-0.1,0.4l-0.5-0.5c-0.4-0.3-0.5-0.5-0.5-0.6
			c0-0.1-0.1-0.2-0.2-0.3c-0.1-0.1-0.3-0.2-0.4-0.4c-0.2-0.1-0.3-0.2-0.3-0.2c-0.1-0.1-0.3-0.2-0.3-0.2c-0.1,0-0.2-0.1-0.2-0.2
			c0-0.1-0.1-0.2-0.2-0.3c-0.1-0.1-0.3-0.2-0.4-0.2s-0.1-0.1-0.1-0.2s-0.1-0.2-0.2-0.2c-0.1,0-0.1,0-0.1-0.1c0-0.1-0.1-0.2-0.4-0.5
			c-0.2-0.3-0.4-0.4-0.4-0.5c0-0.1-0.1-0.2-0.3-0.2c-0.2,0-0.3-0.1-0.5-0.2c-0.2-0.1-0.2-0.3-0.2-0.4c0-0.1-0.2-0.3-0.5-0.7
			c-0.3-0.4-0.5-0.6-0.5-0.7c0-0.1-0.1-0.2-0.3-0.4c-0.2-0.2-0.3-0.4-0.3-0.4c0-0.3-0.6-0.5-1.8-0.6c-0.6,0-0.9-0.1-0.9-0.1
			c-0.3,0-0.4,0.1-0.4,0.2c0,0.1,0,0.2,0,0.4c0,0.2,0,0.4,0.1,0.6c0.1,0.2,0.1,0.3,0.2,0.3c0.1,0,0.2,0.2,0.3,0.6
			c0.1,0.4,0.2,0.6,0.2,0.6c0.1,0,0.1,0.3,0.1,0.8c0,0.5,0,0.8-0.1,0.8c-0.1,0-0.1,0.1-0.1,0.4c0,0.2,0.1,0.6,0.2,1
			c0.1,0.2,0.1,0.6,0.1,1.1c0,0.7-0.1,1.1-0.2,1.1c-0.1,0-0.1,0.2-0.1,0.7c0,0.5,0,1.1-0.1,1.5c0,0.4-0.1,0.6-0.1,0.7
			c-0.1,0.1-0.2,0.2-0.4,0.2c-0.3,0.1-0.4,0.2-0.4,0.4c0,0.2,0.1,0.4,0.4,0.6c0.2,0.2,0.3,0.3,0.5,0.3c0.2,0,0.8,0,1.7,0
			c1,0,1.6,0,1.8-0.1c0.2-0.1,0.3-0.3,0.3-0.8c0-0.3-0.1-0.4-0.3-0.5c-0.2-0.1-0.3-0.1-0.3-0.2c0-0.1-0.2-0.1-0.6-0.1
			c-0.4,0-0.7-0.1-0.9-0.3c-0.2-0.2-0.2-0.3-0.1-0.4c0.1-0.1,0.2-0.2,0.2-0.6c0-0.3,0-0.5-0.1-0.5c-0.1-0.1-0.1-0.9-0.1-2.6
			c0-1.7,0.1-2.5,0.2-2.5c0.1,0,0.3,0.1,0.4,0.2c0.1,0.1,0.3,0.2,0.5,0.3c0.3,0.1,0.4,0.3,0.5,0.4c0,0.2,0.3,0.5,0.8,1.1
			c0.5,0.5,0.9,0.9,1.3,1.1c0.2,0.1,0.3,0.2,0.3,0.3c0,0.1,0.2,0.2,0.5,0.6c0.7,0.7,1.1,1.1,1.1,1.4c0,0.1,0.1,0.1,0.3,0.1
			c0.2,0,0.3,0,0.3,0.1c0,0.1,0.1,0.3,0.4,0.5c0.2,0.2,0.4,0.4,0.4,0.6c0,0.1,0.1,0.3,0.3,0.5c0.2,0.2,0.3,0.3,0.4,0.3
			c0.1,0,0.3,0.2,0.6,0.5c0.3,0.3,0.5,0.5,0.7,0.6c0.1,0.1,0.2,0.1,0.3,0.1c0.4,0,0.6-0.2,0.6-0.6c0-0.1,0-0.2,0-0.4
			c0-0.9-0.1-1.4-0.2-1.6c-0.1-0.1-0.1-0.5-0.1-1.3v-0.4c0-1,0-1.6-0.1-1.6c-0.1-0.1-0.2-0.4-0.2-1c0-0.5,0-0.8,0.1-0.8
			c0.1-0.1,0.2-0.2,0.2-0.5c0-0.3,0-0.4,0.1-0.4c0.1,0,0.1-0.1,0.1-0.4c0-0.3,0-0.4-0.1-0.4c-0.1,0-0.1-0.1-0.1-0.4
			c0-0.4,0.1-0.7,0.2-1c0.2-0.3,0.4-0.5,0.7-0.5c0.2,0,0.4-0.1,0.4-0.1c0.1,0,0.1-0.2,0.1-0.5v-0.2C284.3,782.3,284.2,782,284,782z"
			/>
		<path d="M303.6,784.1c0.1,0,0.2-0.2,0.2-0.5c0-0.3-0.1-0.4-0.2-0.4c-0.1,0-0.1-0.1-0.1-0.3c0-0.2,0.1-0.4,0.2-0.7
			c0.1-0.3,0-0.5-0.2-0.7c-0.2-0.2-0.5-0.3-0.9-0.3c-0.4,0-0.8,0.1-1.1,0.4c-0.3,0.2-0.5,0.3-0.6,0.2c-0.1-0.1-0.1-0.1-0.3-0.1
			c-0.1,0-0.2,0-0.6,0.1c-0.4,0.1-1.3,0.2-2.7,0.2c-1,0-1.5,0-1.6-0.1c-0.1-0.1-0.2,0-0.4,0.2c-0.1,0.1-0.3,0.2-0.4,0.2
			c-0.1,0-0.3,0-0.8-0.1c-0.8-0.2-1.2-0.3-1.3-0.3c0,0-0.1,0-0.3,0.1c-0.1,0-0.3,0.1-0.4,0.3c-0.1,0.2-0.2,0.4-0.2,0.5
			c0,0,0,0.1,0.1,0.2c0.1,0.1,0.1,0.2,0.2,0.5c0,0.1,0,0.2-0.1,0.3c-0.1,0-0.2,0.1-0.4,0.1c-0.1,0-0.3,0-0.4,0.1
			c-0.1,0.1-0.2,0.2-0.2,0.2c0,0.1,0,0.1,0.1,0.2c0.1,0.1,0.1,0.3,0.1,0.7c0,0.3-0.1,0.5-0.1,0.5c0,0.5,0.2,0.8,0.6,0.8
			c0.3,0,0.4-0.1,0.4-0.2c0-0.1,0.1-0.2,0.2-0.2c0.3,0,0.3-0.2,0-0.5c-0.1-0.1-0.2-0.2-0.2-0.3c0,0,0.1-0.1,0.3-0.1
			c0.2-0.1,0.3-0.2,0.2-0.4c-0.1-0.2,0-0.4,0-0.6c0.1-0.1,0.1-0.3,0-0.6c-0.1-0.3-0.1-0.4,0-0.4c0.1,0,0.1,0.1,0.1,0.2
			s0.2,0.3,0.6,0.4c0.4,0.1,0.8,0.2,1.1,0.2c0.4,0,0.7,0.1,0.9,0.3c0.2,0.2,0.4,0.2,0.5,0.2c0.1,0,0.2,0,0.2,0s0,0.1-0.1,0.1
			c-0.3,0.4-0.4,2.4-0.5,6.1c0,0.8-0.1,1.2-0.3,1.4c-0.2,0.2-0.3,0.3-0.3,0.5c0,0.1-0.3,0.2-0.8,0.2l-0.8,0.1l-0.1,0.6
			c0,0,0,0.1,0,0.1c0,0.1,0,0.1,0,0.1c0,0.2,0.2,0.5,0.5,0.8c0.3,0.3,0.6,0.4,0.7,0.4c0.1,0,0.2,0,0.2-0.1c0-0.1-0.1-0.1-0.2-0.1
			c-0.1,0-0.1,0-0.1-0.1c0-0.1,0.2-0.1,0.5-0.1c0.1,0,0.4,0,0.9,0c0.4,0,0.8,0,1,0c0.5,0,0.9,0,1-0.1c0.1-0.1,0.3-0.2,0.6-0.1
			c0.2,0,0.3,0,0.4-0.1c0.1-0.1,0.2-0.1,0.3-0.1c0.1,0,0.3-0.1,0.5-0.3c0.1-0.1,0.2-0.2,0.2-0.3c0-0.1-0.1-0.2-0.2-0.5
			c-0.2-0.3-0.3-0.5-0.5-0.5c-0.1,0-0.2-0.1-0.2-0.2c0-0.1-0.1-0.2-0.3-0.1c0,0-0.1,0-0.1,0c-0.1,0-0.1,0-0.1,0
			c-0.1,0-0.2,0-0.3-0.1c0-0.1-0.1-0.3-0.1-0.5v-0.5c0-0.5,0-0.8,0-0.9c0-0.1,0.1-0.2,0.2-0.2c0.2,0,0.2-0.1,0.2-0.4
			c0-0.3-0.1-0.5-0.2-0.5c-0.1,0-0.2-0.4-0.2-1.1c0-0.8,0.1-1.3,0.2-1.4c0.1-0.1,0.2-0.6,0.2-1.2c0-0.7,0.1-1.1,0.1-1.2
			c0.1-0.2,0.5-0.2,1.2-0.2c1.1,0,1.7,0.1,1.8,0.4c0,0.1,0.1,0.2,0.4,0.5c0.2,0.2,0.3,0.5,0.4,0.8c0,0.3,0.1,0.5,0.1,0.5
			c0.1,0.1,0.2,0.1,0.4,0.1c0.3,0,0.4,0,0.4-0.1c0-0.1,0.1-0.2,0.3-0.3c0.2-0.1,0.3-0.2,0.3-0.4s-0.1-0.4-0.3-0.6
			C303.5,784.2,303.5,784.1,303.6,784.1z"/>
		<path d="M324.4,792.9c-0.1,0-0.1-0.1-0.2-0.4c-0.1-0.2-0.1-0.3-0.2-0.3c0,0-0.3,0.1-0.8,0.2c0,0-0.1,0-0.2,0c-0.4,0-0.7-0.6-1-1.7
			c-0.2-0.8-0.4-1.3-0.4-1.4c-0.1-0.1-0.2-0.3-0.2-0.5c-0.1-0.4-0.3-1.3-0.8-2.8c-0.5-1.5-0.7-2.4-0.8-2.7c-0.2-1-0.4-1.5-0.5-1.7
			c-0.1-0.2-0.2-0.3-0.4-0.3c-0.3-0.1-0.4,0-0.5,0.1c-0.1,0.1-0.2,0.2-0.4,0.2c-0.2,0-0.4,0.1-0.4,0.2c0,0.1-0.1,0.1-0.2,0.1
			c-0.1,0-0.2,0.2-0.4,0.6c-0.2,0.4-0.3,0.8-0.5,1.2c-0.1,0.4-0.2,0.6-0.3,0.7c-0.1,0.1-0.1,0.2-0.1,0.4c0,0.2-0.1,0.6-0.4,1.2
			c-0.3,0.6-0.5,1.1-0.5,1.5c-0.1,0.4-0.2,0.6-0.2,0.7c-0.1,0.1-0.2,0.3-0.4,0.8c-0.2,0.5-0.3,0.7-0.3,0.8c-0.1,0.2-0.2,0.4-0.2,0.5
			c0,0.2,0,0.2-0.1,0.2c-0.1,0-0.2,0.1-0.3,0.4c-0.1,0.2-0.2,0.4-0.2,0.6c0,0.1-0.2,0.3-0.5,0.6c-0.3,0.3-0.5,0.4-0.7,0.4
			c-0.2,0-0.3,0.1-0.5,0.4c-0.2,0.2-0.4,0.4-0.5,0.4c-0.1,0-0.2,0.1-0.4,0.4c-0.1,0.2-0.1,0.3-0.1,0.4c0,0.1,0.1,0.3,0.4,0.5
			l0.5,0.4l2-0.1c1.1,0,1.8-0.1,2.1-0.1c0.3,0,0.5-0.1,0.5-0.2c0,0,0-0.1-0.1-0.2c-0.1-0.2-0.1-0.3,0.1-0.3c0.1,0,0.2-0.1,0.2-0.2
			c0-0.1-0.1-0.2-0.2-0.2c-0.1,0-0.3-0.1-0.4-0.2c-0.1-0.1-0.4-0.2-0.7-0.3c-0.5-0.1-0.7-0.3-0.7-0.5c0-0.1,0-0.2,0.1-0.3
			c0.1-0.2,0.2-0.3,0.2-0.5c0-0.1,0-0.2,0.1-0.2c0.1,0,0.1-0.2,0.1-0.7v-0.7h0.6c0.4,0,0.7-0.1,0.7-0.2c0.1-0.2,0.6-0.2,1.5-0.2h0.4
			c0.7,0,1,0,1.1,0.1c0.1,0.1,0.2,0.4,0.2,0.8c0,0.5,0.1,0.8,0.3,0.9c0.2,0.2,0.3,0.4,0.3,0.6c0,0,0,0,0,0.1c0,0,0,0.1,0,0.1
			c0,0.3-0.1,0.4-0.1,0.5c-0.1,0.1-0.3,0.1-0.6,0.2c-0.5,0.1-0.7,0.2-0.8,0.3c0,0.1-0.1,0.1-0.3,0.1c-0.2,0-0.3,0.1-0.3,0.3
			c0,0.3,0,0.4,0.1,0.5c0.1,0.1,0.3,0.1,0.6,0.1c0.3,0,0.7,0,1.3-0.1c0.6-0.1,1.3-0.1,2-0.1c0.4,0,0.7,0,0.8,0c0.2,0,0.4,0,0.6,0
			c0.3,0,0.5-0.1,0.5-0.3c0.1-0.2,0.1-0.3,0.2-0.3c0.1,0,0.1-0.2,0.1-0.5S324.5,792.9,324.4,792.9z M318.2,788.4c0,0-0.1,0-0.2,0
			c-0.1,0-0.1,0-0.1,0c-0.3,0-0.5,0.1-0.6,0.2c-0.1,0.1-0.3,0.2-0.4,0.2s-0.3-0.1-0.4-0.2c-0.1-0.1-0.2-0.2-0.3-0.2
			s-0.2-0.1-0.2-0.2c0-0.1,0-0.2,0.1-0.2c0.1,0,0.2-0.1,0.3-0.4c0.1-0.3,0.2-0.5,0.2-0.7c0-0.2,0.1-0.3,0.2-0.4
			c0.1,0,0.2-0.3,0.2-0.8c0.1-0.6,0.3-0.9,0.6-0.9c0.2,0,0.3,0.1,0.5,0.2c0.1,0.1,0.2,0.2,0.4,0.5c0.1,0.3,0.2,0.4,0.2,0.5
			c0,0-0.1,0.1-0.3,0.1c-0.2,0-0.3,0.1-0.4,0.2c-0.1,0.1,0,0.2,0.1,0.2c0.1,0,0.2,0.1,0.2,0.2c0.1,0.1,0.2,0.3,0.2,0.4
			c0.1,0.2,0.1,0.2,0.2,0.3c0.1,0.1,0.1,0.3,0.2,0.6l0.1,0.5L318.2,788.4z"/>
		<path d="M341.8,783.3h-0.9c-0.5,0-0.8,0-1-0.1c-0.2-0.1-0.3-0.2-0.3-0.5c0-0.1,0-0.2-0.1-0.3c-0.1,0-0.1,0-0.2,0.1
			c-0.1,0.1-0.4,0.2-0.7,0.2c-0.1,0-0.2,0-0.2-0.1c0-0.1-0.2-0.1-0.7-0.1c-0.4,0-0.7,0.1-0.8,0.2c-0.1,0.1-0.2,0.2-0.4,0.2
			c-0.2,0-0.3,0-0.4,0c-0.1,0-0.1,0-0.2,0c-0.1,0-0.1,0-0.2,0c-0.3,0-0.5,0.1-0.7,0.4c-0.3,0.3-0.5,0.4-0.7,0.5
			c-0.1,0-0.3,0.2-0.5,0.5c-0.2,0.3-0.4,0.4-0.5,0.4c-0.4,0.1-0.7,0.4-0.7,0.9c0,0.2-0.1,0.4-0.2,0.6c-0.1,0.2-0.2,0.4-0.2,0.6
			c0,0.3,0,0.4-0.1,0.5c-0.1,0.1-0.2,0.2-0.2,0.4c0,0.2-0.1,0.3-0.2,0.4c-0.1,0.1-0.2,0.5-0.2,1.4c0,1,0.1,1.5,0.2,1.6
			c0.1,0,0.1,0.1,0.1,0.2c0,0.1,0,0.2-0.1,0.2c-0.1,0,0,0.2,0.2,0.4c0.3,0.2,0.4,0.4,0.5,0.4c0.1,0,0.1,0.1,0.2,0.3
			c0.1,0.2,0.2,0.4,0.6,0.7c0.3,0.3,0.6,0.5,0.8,0.6c0.2,0.1,0.2,0.1,0.2,0.2c0,0.1,0.3,0.2,0.9,0.3c0.6,0.1,1.3,0.1,2,0.1
			c1.1,0,1.7-0.1,1.9-0.3c0.1-0.1,0.4-0.3,0.8-0.3c0.3-0.1,0.6-0.2,0.8-0.5c0.3-0.4,0.5-0.7,0.7-0.8c0.3-0.3,0.4-0.5,0.4-0.6
			c0-0.1-0.1-0.2-0.3-0.3c-0.4-0.2-0.6-0.3-0.8-0.3c-0.1,0-0.2,0.1-0.3,0.3c-0.1,0.2-0.2,0.4-0.4,0.4c-0.2,0-0.4,0.1-0.6,0.4
			c-0.2,0.2-0.4,0.3-0.5,0.2c-0.1-0.1-0.2-0.1-0.4,0.1c-0.1,0.1-0.4,0.2-0.7,0.2c-0.1,0-0.4,0-0.8-0.1c-0.6,0-1.1-0.1-1.2-0.2
			c-0.2-0.1-0.3-0.3-0.3-0.5c0-0.2-0.2-0.5-0.6-0.9c-0.3-0.3-0.5-0.5-0.6-0.7c-0.1-0.2-0.2-0.5-0.3-0.9c-0.1-0.7-0.2-1-0.3-1
			c-0.1,0-0.1-0.1-0.1-0.2c0-0.1,0-0.2,0.1-0.2c0.2,0,0.3-0.7,0.3-1.9c0-0.2,0.1-0.2,0.3-0.2c0.2,0,0.3-0.1,0.2-0.3
			c0-0.1,0-0.2,0-0.3c0.1-0.1,0.2-0.1,0.4-0.2c0.3-0.1,0.5-0.3,0.5-0.4c0-0.1,0.1-0.3,0.3-0.4c0.2-0.1,0.4-0.2,0.7-0.2
			c0.2,0,0.3-0.1,0.3-0.2c0-0.1,0.2-0.2,0.7-0.2c0.1,0,0.2,0,0.4,0c0.5,0,0.9,0.2,1.1,0.5c0.2,0.2,0.4,0.3,0.6,0.4
			c0.3,0.1,0.4,0.2,0.4,0.4c-0.1,0.2,0,0.3,0.1,0.4c0.1,0.1,0.3,0.4,0.4,0.9c0.1,0.4,0.1,0.6,0.2,0.7c0.1,0.1,0.2,0.2,0.4,0.3
			c0.3,0.1,0.4,0.2,0.4,0.4c0,0.1,0.1,0.2,0.2,0.1c0.1-0.1,0.2-0.6,0.2-1.5c0-1,0.1-1.5,0.2-1.5c0.1-0.1,0.1-0.3,0-0.8L341.8,783.3z
			"/>
		<path d="M346.4,799.7c-0.1,0-0.1,0.1-0.1,0.3c0,0.2,0,0.3,0.1,0.3c0.1,0,0.1-0.1,0.1-0.3C346.5,799.8,346.5,799.7,346.4,799.7z"/>
		<path d="M363,790.1c-0.1,0-0.2-0.1-0.2-0.3c-0.1-0.2-0.2-0.3-0.4-0.3c-0.2,0-0.4-0.1-0.4-0.4c0-0.1-0.1-0.2-0.2-0.3
			c-0.2-0.1-0.3-0.1-0.3,0.1c0,0.1-0.1,0.2-0.4,0.3c-0.2,0.1-0.3,0.2-0.1,0.3c0.1,0.1,0.2,0.3,0.2,0.6c0,0.3,0,0.4-0.1,0.4
			c-0.1,0-0.3,0.2-0.6,0.5c-0.6,0.6-1.1,0.9-1.5,0.9c-0.2,0-0.4,0.1-0.7,0.2c-0.3,0.1-0.7,0.2-1.2,0.2c-0.6,0-0.9-0.1-0.9-0.4
			c0-0.1,0-0.1,0-0.2c0.1-0.2,0.1-0.3,0-0.4c-0.1,0-0.1-0.2-0.1-0.4c0-0.4,0-0.7,0.1-1c0-0.1,0.1-0.2,0.1-0.4c0-0.1,0-0.4-0.1-0.6
			c0-0.1,0-0.3,0-0.5c0-0.2,0-0.3,0.1-0.4c0.2-0.1,0.2-0.3,0.2-0.8c0-0.2,0-0.3-0.1-0.4c-0.1-0.1-0.1-0.2,0-0.4
			c0.1-0.1,0.1-0.5,0.1-1.2V785l-0.1-1.3h0.9c0.6,0,1-0.1,1.1-0.2c0.1-0.2,0.1-0.4,0.1-0.6c0-0.3-0.1-0.5-0.2-0.6
			c-0.1-0.1-1.1-0.1-2.9-0.1h-0.9c-1.2,0-1.8,0.1-1.8,0.2c-0.1,0.1-0.1,0.3-0.1,0.4c0,0.3,0.1,0.6,0.2,0.7c0.1,0.1,0.4,0.2,0.7,0.2
			c0.5,0,0.8,0.1,0.8,0.4c0,0.1,0,0.1-0.1,0.2c-0.1,0.1-0.1,0.4-0.1,0.7c0,0.3,0,0.6,0.1,0.8c0.1,0.3,0.1,0.4,0,0.5
			c-0.1,0.1-0.1,0.3-0.1,0.7c0,0.2,0,0.3,0,0.4c0,0.8,0.1,1.3,0.1,1.6c0,1.3-0.1,1.9-0.3,1.9c-0.1,0-0.2,0.2-0.2,0.7
			c0,0.2,0,0.3,0.1,0.4l0.1,0.1c0,0.2-0.3,0.2-0.9,0.2c-0.3,0-0.5,0.1-0.6,0.2c-0.1,0.1-0.2,0.4-0.2,0.8v0.2c0,0.5,0.2,0.8,0.6,0.8
			c0.1,0,0.3,0,0.4-0.1c0.3-0.1,0.4-0.2,0.4-0.3s0.3-0.1,1-0.1c0.7,0,1,0,1,0.1c0,0.1,0.7,0.1,2.1,0.1c1.4,0,2.1-0.1,2.1-0.1
			c0-0.1,0.3-0.1,0.8-0.1c0.6,0,0.9,0,0.9,0.1c0,0.1,0.1,0.2,0.4,0.2c0.2,0,0.4-0.1,0.4-0.3c0-0.1,0.1-0.3,0.3-0.4
			c0.2-0.1,0.3-0.2,0.3-0.4c0-0.2,0-0.4,0.1-0.5c0.1-0.1,0.1-0.3,0-0.4c0,0-0.1-0.1-0.1-0.2c0-0.2,0-0.5,0.1-0.8
			c0.1-0.3,0.2-0.4,0.2-0.4c0.1,0,0.1-0.1,0.1-0.3C363.1,790.2,363.1,790.1,363,790.1z"/>
		<path d="M363.9,790.7c0,0-0.1,0-0.1,0c-0.1,0-0.1,0-0.1,0.1c-0.2,0-0.3,0.1-0.3,0.3c0,0.1,0.1,0.2,0.3,0.2c0.2,0,0.3-0.1,0.3-0.3
			C363.9,790.7,363.9,790.6,363.9,790.7L363.9,790.7z"/>
		<path d="M381.7,790.2c-0.1,0-0.3,0.2-0.5,0.5c-0.3,0.4-0.4,0.6-0.4,0.7c0,0.1-0.1,0.2-0.4,0.2c-0.2,0-0.3,0.1-0.3,0.1
			c0,0,0,0.1,0,0.3v0.2c0,0.2-0.1,0.3-0.4,0.3c0,0-0.1,0-0.2,0c-0.1,0-0.1,0-0.2,0c-0.2,0-0.4,0.1-0.7,0.4c-0.2,0.2-0.4,0.3-0.6,0.3
			c-0.1,0-0.2-0.1-0.2-0.2c-0.1-0.1-0.2-0.1-0.4,0c-0.2,0.1-0.6,0.2-1.2,0.2c-0.5,0-0.7,0-0.7-0.1c0-0.1-0.1-0.1-0.2-0.1
			c-0.1,0-0.1-0.1-0.2-0.2c-0.1-0.2-0.1-0.3-0.1-0.5c0,0,0-0.6,0.1-1.8c0-1.2,0.1-1.8,0.1-1.8c0-0.1,0.5-0.1,1.4-0.1
			c0.8,0,1.3,0.1,1.5,0.2c0.3,0.1,0.4,0.4,0.4,0.8c0,0.2,0,0.3,0.1,0.3c0,0,0.1,0,0.2,0c0.2-0.1,0.4-0.1,0.6-0.1h0.1
			c0.2,0,0.3-0.2,0.3-0.6c0-0.1,0-0.2,0-0.3c0-0.2,0-0.3,0-0.4v-0.3c0-0.4,0-0.6,0.1-0.6c0.1-0.1,0.1-0.3,0-0.4
			c-0.1-0.1-0.1-0.3,0.1-0.4c0.2-0.1,0.2-0.2,0.2-0.4c0-0.3-0.4-0.4-1.1-0.4c-0.4,0-0.6,0.2-0.6,0.5c0,0.1,0,0.2,0.1,0.3
			c0.1,0.2,0,0.3-0.1,0.5c-0.1,0.1-0.4,0.2-0.9,0.3c-0.6,0.1-1.1,0.2-1.6,0.2H375V787c0-0.4,0.1-0.6,0.2-0.6c0.1,0,0.2-0.1,0.2-0.4
			c0-0.3-0.1-0.6-0.2-0.9c-0.1-0.2-0.2-0.4-0.2-0.4c0-0.1,0.1-0.1,0.2-0.3c0.2-0.2,0.3-0.3,0.2-0.5c0,0,0-0.1,0-0.2
			c0-0.2,0.1-0.3,0.4-0.4c0.3-0.1,0.8-0.1,1.5-0.2c0.6,0,1-0.1,1.1-0.1c0.4,0,0.6,0.1,0.7,0.2c0.2,0.2,0.3,0.3,0.5,0.4
			c0.2,0.1,0.3,0.2,0.3,0.3c0,0.1,0.1,0.2,0.4,0.4c0.2,0.1,0.4,0.3,0.4,0.3c0,0.2,0.1,0.3,0.3,0.5c0.2,0.2,0.4,0.3,0.6,0.3h0.1
			c0.3,0,0.4-0.2,0.4-0.7c0-0.2-0.1-0.4-0.2-0.5c-0.1-0.2-0.2-0.4-0.2-0.6c0-0.3-0.1-0.5-0.2-0.5c-0.1-0.1-0.1-0.2,0-0.4
			c0.1-0.1,0.1-0.2,0.1-0.3c0-0.1-0.1-0.1-0.2-0.2c-0.1-0.1-0.2-0.2-0.2-0.3c0-0.1-0.1-0.3-0.3-0.5c-0.1-0.1-0.2-0.2-0.3-0.2
			c-0.1,0-0.2,0-0.3,0.1c-0.2,0.1-1.9,0.3-5,0.4h-0.7c-1.5,0-2.3-0.1-2.4-0.3c0-0.1-0.1-0.1-0.3-0.1c-0.1,0-0.2,0-0.2,0.1
			c0,0.1-0.1,0.2-0.1,0.3s0,0.3,0,0.3c0,0.2-0.1,0.3-0.3,0.4c-0.2,0-0.3,0.2-0.2,0.5c0.1,0.2,0.1,0.4,0.2,0.5
			c0.1,0.1,0.2,0.1,0.3,0.1s0.3,0,0.4,0c0.1,0,0.1,0,0.2,0c0.1,0,0.1,0,0.2,0c0.4,0,0.6,0.1,0.7,0.4c0.1,0.2,0.1,0.8,0.1,1.5
			c0,0.9-0.1,1.4-0.2,1.5c-0.1,0-0.1,0.2,0,0.4c0.1,0.3,0.1,0.5,0,0.7c-0.1,0.2-0.2,0.3-0.3,0.3c-0.1,0-0.1,0.1,0.1,0.2
			c0.1,0.1,0.1,0.3,0.1,0.6c0,0.3-0.1,1.3-0.2,3l-0.1,1h-0.6c-0.4,0-0.6,0.1-0.7,0.3c-0.1,0.2-0.2,0.3-0.3,0.3
			c-0.2,0-0.2,0.1-0.2,0.4c0,0.3,0.1,0.5,0.3,0.6c0.2,0.1,0.3,0.3,0.3,0.4c0,0.1,0.1,0.2,0.3,0.2c0.2,0,0.5,0,0.8-0.1
			c0.3-0.1,0.5-0.2,0.6-0.2c0.2-0.1,0.6-0.2,1.2-0.2c0.1,0,0.6,0,1.5,0.1c0.8,0,1.2,0.1,1.2,0.2c0.1,0.1,0.2,0.1,0.4,0
			c0.3-0.1,0.8-0.2,1.6-0.2c0.9,0,1.4,0,1.6-0.1c0.2,0,0.3-0.1,0.5-0.2c0.2-0.2,0.3-0.4,0.2-0.6c-0.1-0.2,0-0.4,0.2-0.4
			c0.1-0.1,0.2-0.4,0.2-0.8c0-0.3,0-0.5,0.1-0.6c0-0.1,0.1-0.1,0.2-0.1c0.2,0,0.3-0.2,0.3-0.5c0-0.3-0.1-0.5-0.2-0.7
			C382,790.3,381.9,790.2,381.7,790.2z"/>
		<path d="M371,792.2c0.1,0,0.1-0.1,0.2-0.1c0.1-0.2,0.1-0.3-0.1-0.3c-0.1,0-0.2,0.1-0.2,0.2C370.9,792.1,370.9,792.2,371,792.2z"/>
		<path d="M391.9,788.7c0-0.1,0-0.2-0.1-0.2c-0.1,0-0.1,0-0.1,0.1l0.1,0.2C391.8,789,391.9,788.9,391.9,788.7z"/>
		<path d="M397.8,789.5c0-0.6-0.1-0.9-0.2-1.1c-0.1-0.2-0.3-0.4-0.6-0.5c-0.3-0.1-0.5-0.3-0.5-0.4c-0.1-0.1-0.3-0.3-0.9-0.6
			s-1-0.5-1.3-0.6c-0.2-0.1-0.5-0.2-0.9-0.5c-0.4-0.3-0.6-0.4-0.6-0.5c0-0.1-0.1-0.2-0.2-0.3c-0.2-0.1-0.2-0.2-0.2-0.3
			c0,0,0-0.1,0-0.1c0.1-0.1,0.1-0.2,0.1-0.3s0-0.3-0.1-0.6c0-0.1,0-0.2,0-0.2c0,0,0.2-0.1,0.3-0.1c0.3,0,0.4-0.1,0.4-0.2
			c0-0.1,0.1-0.2,0.4-0.4c0.3-0.2,0.4-0.3,0.4-0.3c0-0.1,0.1-0.1,0.4-0.2c0.1,0,0.1,0,0.2,0c0.4,0,0.8,0.2,1.2,0.5
			c0.5,0.3,0.7,0.6,0.7,0.9c0,0.2,0.1,0.4,0.3,0.5c0.2,0.1,0.3,0.3,0.3,0.4c0,0.1,0.1,0.3,0.2,0.5s0.3,0.3,0.4,0.3c0,0,0,0,0.1,0
			c0.1-0.1,0.1-0.7,0.2-2v-0.8c0-0.6-0.1-0.9-0.2-0.9c-0.1,0-0.1,0-0.1,0c-0.3,0.1-0.6,0.2-0.8,0.2c-0.3,0-0.6-0.1-1-0.3
			c-0.4-0.2-0.6-0.3-0.7-0.3c0,0-0.1,0-0.2,0.1c-0.3,0.1-0.6,0.1-0.8,0.1c-0.3,0-0.4,0-0.5,0.1c0,0.1-0.1,0.2-0.3,0.2
			c-0.2,0-0.4-0.1-0.5-0.2c-0.1-0.1-0.3-0.2-0.5-0.2h0c-0.1,0-0.1,0-0.1,0c-0.1,0-0.1,0-0.1,0c0,0,0.1,0,0.1,0
			c0.1,0.1,0.2,0.1,0.2,0.2c0,0.2-0.2,0.3-0.5,0.4c-0.3,0.1-0.4,0.2-0.4,0.4c0.1,0.2,0,0.3-0.2,0.4c-0.3,0.1-0.6,0.5-1.1,1.1
			c-0.1,0.2-0.2,0.4-0.2,0.6c0,0,0,0.3,0.1,0.8c0.1,0.7,0.3,1.1,0.4,1.3c0.1,0.2,0.4,0.4,0.7,0.7c0.4,0.3,0.6,0.4,0.8,0.4
			c0.1,0,0.3,0.1,0.6,0.4c0.4,0.3,0.9,0.6,1.7,0.8c0.5,0.1,0.8,0.3,1.1,0.6c0.2,0.2,0.3,0.4,0.5,0.7c0.1,0.3,0.2,0.5,0.2,0.7
			c0,0.1,0,0.1-0.1,0.2c-0.1,0-0.1,0.2-0.1,0.4c0.1,0.2,0,0.4-0.2,0.6c-0.1,0.1-0.2,0.3-0.2,0.4c0,0.2-0.5,0.4-1.4,0.5
			c-0.1,0-0.3,0-0.6,0c-0.9,0-1.7-0.4-2.2-1.2c-0.3-0.4-0.5-0.8-0.5-1c0,0,0-0.1,0-0.2c0-0.1,0-0.2,0-0.2c0,0-0.1-0.1-0.1-0.1
			c-0.1,0-0.1,0-0.1-0.1c0.1-0.3-0.1-0.5-0.4-0.6c-0.1,0-0.2-0.1-0.3-0.1c-0.3,0-0.4,0.2-0.5,0.5c-0.1,1.2-0.1,1.9-0.2,1.9
			c-0.1,0.1-0.1,0.4-0.2,0.8c0,0.1,0,0.3,0,0.4c0,0.2,0.1,0.4,0.3,0.6c0.1,0.1,0.2,0.2,0.3,0.2c0,0,0.1,0,0.2-0.2
			c0.1-0.2,0.2-0.3,0.2-0.4c0-0.3,0.2-0.3,0.5-0.1c0.9,0.5,1.8,0.7,2.9,0.7c0.5,0,1.1-0.1,1.6-0.2c0.6-0.1,1.1-0.3,1.4-0.6
			c0.3-0.3,0.5-0.5,0.5-0.5c0-0.1,0.1-0.2,0.2-0.3c0.2-0.1,0.3-0.4,0.3-0.9c0.1-0.5,0.1-0.7,0.2-0.7c0.1,0,0.1,0,0-0.1
			C397.8,790.6,397.8,790.2,397.8,789.5z M393.4,788C393.3,788,393.3,787.9,393.4,788c-0.1-0.1-0.1-0.1,0-0.1S393.5,787.9,393.4,788
			C393.5,787.9,393.4,788,393.4,788z"/>
		<path d="M136.3,504c0.5,0.2,1.1,0.5,1.6,0.7c0.1,0.1,0.2,0.1,0.2,0.1c0,0,0,0,0,0.1c1,1.7,1.2,4.2,1.8,6.1c0.1,0.4,0.7,0.4,0.8,0
			c0.6-1.9,0.9-4.4,1.8-6.1c0,0,0,0,0-0.1c0,0,0.1,0,0.1-0.1c0.5-0.3,1.2-0.5,1.7-0.8c0.9-0.4,1.8-0.8,2.7-1.2
			c0.4-0.2,0.2-0.6-0.1-0.7c-0.9-0.4-1.8-0.8-2.7-1.1c-1.1-0.5-1.7-0.5-2-1.5c-0.6-1.9-1.1-3.9-1.6-5.9c0,0,0,0,0-0.1c0,0,0,0,0-0.1
			c-0.1-0.1-0.2-0.2-0.3-0.2c-0.1,0-0.3,0-0.3,0.2c0,0,0,0.1,0,0.1c0,0,0,0,0,0c0,0,0,0,0,0c0,0,0,0,0,0c-0.5,1.9-0.9,3.9-1.5,5.9
			c-0.5,1.5-3.3,2.1-4.7,2.7c-0.3,0.1-0.5,0.6-0.1,0.7C134.4,503.2,135.3,503.6,136.3,504z M139,500.3c0.6-1,0.7-2.7,1-3.7
			c0.1-0.5,0.3-0.9,0.4-1.4c0.1,0.5,0.3,0.9,0.4,1.4c0.3,1.1,0.4,2.7,1,3.7c0.6,1.1,2.7,1.7,4.2,2.2c-0.7,0.3-1.5,0.7-2.2,1
			c-0.6,0.3-1.5,0.5-1.9,1c-0.6,0.8-0.7,2.4-1,3.4c-0.2,0.6-0.3,1.1-0.5,1.7c-0.2-0.6-0.3-1.1-0.5-1.7c-0.3-0.9-0.4-2.6-1-3.4
			c-0.4-0.6-1.2-0.7-1.9-1c-0.7-0.3-1.5-0.7-2.2-1C136.3,502,138.3,501.4,139,500.3z"/>
		<path d="M138.1,549.6C138.1,549.6,138.1,549.6,138.1,549.6c1,1.8,1.3,4.3,1.9,6.2c0.1,0.4,0.7,0.4,0.8,0c0.6-1.9,0.9-4.4,1.8-6.1
			c0,0,0,0,0-0.1c0,0,0.1,0,0.1-0.1c0.5-0.3,1.2-0.5,1.7-0.8c0.9-0.4,1.8-0.8,2.7-1.2c0.4-0.2,0.2-0.6-0.1-0.7
			c-0.9-0.4-1.8-0.8-2.7-1.1c-1.1-0.5-1.7-0.5-2-1.5c-0.6-1.9-1.1-3.9-1.6-5.9c0,0,0,0,0-0.1c0,0,0,0,0-0.1
			c-0.1-0.1-0.2-0.2-0.3-0.2c-0.1,0-0.3,0-0.3,0.2c0,0,0,0.1,0,0.1c0,0,0,0,0,0c0,0,0,0,0,0c0,0,0,0,0,0c-0.5,1.9-0.9,3.9-1.5,5.9
			c-0.5,1.5-3.3,2.1-4.7,2.7c-0.3,0.1-0.5,0.6-0.1,0.7c0.9,0.4,1.8,0.8,2.7,1.2c0.5,0.2,1.1,0.5,1.6,0.7
			C138,549.5,138.1,549.6,138.1,549.6z M134.8,547.2c1.5-0.5,3.5-1.1,4.2-2.2c0.6-1,0.7-2.7,1-3.7c0.1-0.5,0.3-0.9,0.4-1.4
			c0.1,0.5,0.3,0.9,0.4,1.4c0.3,1.1,0.4,2.7,1,3.7c0.6,1.1,2.7,1.7,4.2,2.2c-0.7,0.3-1.5,0.7-2.2,1c-0.6,0.3-1.5,0.5-1.9,1
			c-0.6,0.8-0.7,2.4-1,3.4c-0.2,0.6-0.3,1.1-0.5,1.7c-0.2-0.6-0.3-1.1-0.5-1.7c-0.3-0.9-0.4-2.6-1-3.4c-0.4-0.6-1.2-0.7-1.9-1
			C136.3,547.9,135.5,547.6,134.8,547.2z"/>
		<path d="M367.2,502.1c-1.5-0.6-4.3-1.2-4.7-2.7c-0.6-1.9-1-3.9-1.5-5.9c0,0,0,0,0,0c0,0,0,0,0,0c0,0,0,0,0,0c0,0,0-0.1,0-0.1
			c-0.1-0.1-0.2-0.2-0.3-0.2c-0.1,0-0.2,0.1-0.3,0.2c0,0,0,0,0,0.1c0,0,0,0,0,0.1c-0.5,2-1,4-1.6,5.9c-0.3,1-1,1-2,1.5
			c-0.9,0.4-1.8,0.8-2.7,1.1c-0.3,0.1-0.4,0.6-0.1,0.7c0.9,0.4,1.8,0.8,2.7,1.2c0.5,0.2,1.2,0.4,1.7,0.8c0.1,0,0.1,0.1,0.1,0.1
			c0,0,0,0,0,0.1c0.9,1.8,1.2,4.2,1.8,6.1c0.1,0.4,0.7,0.4,0.8,0c0.6-1.9,0.9-4.4,1.8-6.1c0,0,0-0.1,0-0.1c0,0,0.1,0,0.2-0.1
			c0.5-0.3,1.1-0.5,1.6-0.7c0.9-0.4,1.8-0.8,2.7-1.2C367.7,502.7,367.5,502.2,367.2,502.1z M363.8,503.5c-0.6,0.3-1.5,0.5-1.9,1
			c-0.6,0.8-0.7,2.4-1,3.4c-0.2,0.6-0.3,1.1-0.5,1.7c-0.2-0.6-0.3-1.1-0.5-1.7c-0.3-0.9-0.4-2.6-1-3.4c-0.4-0.6-1.2-0.7-1.9-1
			c-0.7-0.3-1.5-0.7-2.2-1c1.5-0.5,3.6-1.1,4.2-2.2c0.6-1,0.7-2.6,1-3.7c0.1-0.5,0.3-0.9,0.4-1.4c0.1,0.5,0.3,0.9,0.4,1.4
			c0.3,1.1,0.4,2.8,1,3.7c0.7,1.1,2.7,1.7,4.2,2.2C365.3,502.8,364.6,503.2,363.8,503.5z"/>
		<path d="M367.2,546.8c-1.5-0.6-4.3-1.2-4.7-2.7c-0.6-1.9-1-3.9-1.5-5.9c0,0,0,0,0,0c0,0,0,0,0,0c0,0,0,0,0,0c0,0,0-0.1,0-0.1
			c-0.1-0.1-0.2-0.2-0.3-0.2c-0.1,0-0.2,0.1-0.3,0.2c0,0,0,0,0,0.1c0,0,0,0,0,0.1c-0.5,2-1,4-1.6,5.9c-0.3,1-1,1-2,1.5
			c-0.9,0.4-1.8,0.8-2.7,1.1c-0.3,0.1-0.4,0.6-0.1,0.7c0.9,0.4,1.8,0.8,2.7,1.2c0.5,0.2,1.2,0.4,1.7,0.8c0.1,0,0.1,0.1,0.1,0.1
			c0,0,0,0,0,0.1c0.9,1.8,1.2,4.2,1.8,6.1c0.1,0.4,0.7,0.4,0.8,0c0.6-1.9,0.9-4.4,1.8-6.1c0,0,0-0.1,0-0.1c0,0,0.1,0,0.2-0.1
			c0.5-0.3,1.1-0.5,1.6-0.7c0.9-0.4,1.8-0.8,2.7-1.2C367.7,547.4,367.5,546.9,367.2,546.8z M363.8,548.2c-0.6,0.3-1.5,0.5-1.9,1
			c-0.6,0.8-0.7,2.4-1,3.4c-0.2,0.6-0.3,1.1-0.5,1.7c-0.2-0.6-0.3-1.1-0.5-1.7c-0.3-0.9-0.4-2.6-1-3.4c-0.4-0.6-1.2-0.7-1.9-1
			c-0.7-0.3-1.5-0.7-2.2-1c1.5-0.5,3.6-1.1,4.2-2.2c0.6-1,0.7-2.6,1-3.7c0.1-0.5,0.3-0.9,0.4-1.4c0.1,0.5,0.3,0.9,0.4,1.4
			c0.3,1.1,0.4,2.8,1,3.7c0.7,1.1,2.7,1.7,4.2,2.2C365.3,547.6,364.6,547.9,363.8,548.2z"/>
		<path d="M254.2,180.6c0,0,0.1,0,0.1-0.1c0.5-0.3,1.2-0.5,1.7-0.8c0.9-0.4,1.8-0.8,2.7-1.2c0.4-0.2,0.2-0.6-0.1-0.7
			c-0.9-0.4-1.8-0.8-2.7-1.1c-1.1-0.5-1.7-0.5-2-1.5c-0.6-1.9-1.1-3.9-1.6-5.9c0,0,0,0,0-0.1c0,0,0,0,0-0.1
			c-0.1-0.1-0.2-0.2-0.3-0.2c-0.1,0-0.3,0-0.3,0.2c0,0,0,0.1,0,0.1c0,0,0,0,0,0c0,0,0,0,0,0c0,0,0,0,0,0c-0.5,1.9-0.9,3.9-1.5,5.9
			c-0.5,1.5-3.3,2.1-4.7,2.7c-0.3,0.1-0.5,0.6-0.1,0.7c0.9,0.4,1.8,0.8,2.7,1.2c0.5,0.2,1.1,0.5,1.6,0.7c0.1,0.1,0.2,0.1,0.2,0.1
			c0,0,0,0,0,0.1c1,1.7,1.2,4.2,1.8,6.1c0.1,0.4,0.7,0.4,0.8,0C253,184.8,253.3,182.4,254.2,180.6
			C254.2,180.6,254.2,180.6,254.2,180.6z M252.5,183.6c-0.2,0.6-0.3,1.1-0.5,1.7c-0.2-0.6-0.3-1.1-0.5-1.7c-0.3-0.9-0.4-2.6-1-3.4
			c-0.4-0.6-1.2-0.7-1.9-1c-0.7-0.3-1.5-0.7-2.2-1c1.5-0.5,3.5-1.1,4.2-2.2c0.6-1,0.7-2.7,1-3.7c0.1-0.5,0.3-0.9,0.4-1.4
			c0.1,0.5,0.3,0.9,0.4,1.4c0.3,1.1,0.4,2.7,1,3.7c0.6,1.1,2.7,1.7,4.2,2.2c-0.7,0.3-1.5,0.7-2.2,1c-0.6,0.3-1.5,0.5-1.9,1
			C252.9,181,252.8,182.6,252.5,183.6z"/>
		<path d="M175.1,422c-3.8-11.9-7.7-23.7-11.5-35.6l-1.3,0.9c2.5,7.6,5,15.4,7.4,23l3.2,9.9c-9.7-7.2-41.8-30.9-47.8-35.4l-0.5,1.5
			c5.7,4.2,32.1,23.7,39,28.9c3.5,2.6,6.9,5.1,10.4,7.7C174.6,423.3,175.3,422.6,175.1,422z"/>
		<path d="M90.4,361c10.3,7.6,20.4,15.1,30.6,22.6l0.6-1.5c-6.6-4.8-13.3-9.8-20-14.8c-2.8-2.1-5.7-4.2-8.5-6.3h59.2
			c-0.1-0.2-0.4-1.1-0.5-1.5H90.7C89.9,359.6,89.8,360.6,90.4,361z"/>
		<path d="M129.2,362.4c-2.2,6.8-12.6,39-15.4,47.5l-3.9,12.1c-0.2,0.6,0.6,1.2,1.1,0.9c10.1-7.5,20.2-14.9,30.3-22.4
			c0,0-1.1-1-1.2-1c-6.5,4.8-13,9.6-19.5,14.4l-8.6,6.3c3.8-11.6,16.4-50.7,18.7-57.8L129.2,362.4z"/>
		<path d="M142.9,323c-0.1,0-0.2-0.1-0.2-0.1c0,0,0,0,0,0c0,0,0,0-0.1,0c0,0-0.1,0-0.1,0c0,0,0,0,0,0c-0.1,0-0.2,0-0.3,0.1
			c-0.2,0.1-0.4,0.3-0.4,0.6c-3.7,11.5-7.4,23-11.2,34.5c0,0,0,0,0,0c0.5,0,1,0.1,1.5,0c2.4-7.4,4.8-14.7,7.1-22.1
			c1.1-3.3,2.1-6.6,3.2-9.9c3.6,11.2,15.9,49.2,18.2,56.3l1.3-1c-2.2-6.8-14.9-45.9-14.9-45.9c-1.3-4-2.6-8-3.9-12
			C143.3,323.3,143.1,323.1,142.9,323z"/>
		<path d="M194.7,361c0.6-0.4,0.4-1.4-0.4-1.4h-37.6c0.2,0.5,0.4,1,0.5,1.5H192c-9.8,7.3-42.5,31.4-48.3,35.7l1.3,0.9
			c5.6-4.1,39.3-29.1,39.3-29.1C187.8,366.1,191.2,363.6,194.7,361z"/>
		<path d="M92.3,347.4c9.7-16.1,26.7-26.3,44.9-28.1c-0.1-0.5-0.1-1-0.1-1.4c-15.8,1.5-30.8,9.1-41.1,21.8
			c-3.5,4.4-6.4,9.2-8.5,14.2c0.5,0.1,0.9,0.2,1.4,0.5C89.8,352,91,349.7,92.3,347.4z"/>
		<path d="M97.6,415.2c-12-14.4-16.1-33.8-11.8-51.6c-0.5,0-1-0.1-1.4-0.2c-3.7,15.3-1.5,31.8,7,45.6c3.5,5.7,7.9,10.7,12.9,14.8
			c0.3-0.4,0.7-0.7,1.2-0.9C102.5,420.5,99.9,418,97.6,415.2z"/>
		<path d="M162.1,432.8c-16.7,5.9-35.1,3.6-49.9-5.2c-0.1,0.5-0.3,1-0.5,1.4c12.6,7.5,27.8,10.5,42.6,7.6c6.5-1.3,12.6-3.6,18.1-6.8
			c-0.3-0.4-0.5-0.8-0.7-1.3C168.6,430.2,165.4,431.7,162.1,432.8z"/>
		<path d="M200.8,363.4c-0.5,0.1-1,0.2-1.5,0.4c0,0,0,0,0,0c1.1,4.5,1.7,9.1,1.8,13.8c-0.1,17.6-8.2,34.1-21.2,45
			c0.4,0.3,0.8,0.6,1.1,1c13.2-11.2,21.5-27.9,21.6-46C202.6,372.8,201.9,368,200.8,363.4z"/>
		<path d="M154.3,320.2c19,3.9,34.3,17.1,41.8,34.1c0,0,0,0,0,0c0.3-0.1,0.6-0.1,0.9,0c0.1-0.1,0.2-0.2,0.2-0.2
			c0.1-0.1,0.2-0.2,0.3-0.3c-6.4-14.8-18.6-26.8-34.2-32.6c-4.9-1.8-10-2.9-15.1-3.4c0.1,0.5,0.2,1,0.2,1.5
			C150.4,319.6,152.4,319.8,154.3,320.2z"/>
		<path d="M141.5,319.2c0.5,0.5,0.7,2.4,0.9,2.5c0.3,0,0.6-2,1-2.4c0.5-0.4,1.8-0.6,1.8-0.9c0-0.3-1.4-0.5-1.8-1
			c-0.4-0.4-0.7-2.4-0.9-2.5c-0.3,0-0.5,1.9-1,2.4c-0.5,0.5-1.8,0.6-1.8,0.9C139.7,318.6,141,318.7,141.5,319.2z"/>
		<path d="M84.5,359.3c0.3,0.6,0,1.9,0.3,2c0.3,0.1,0.8-1.1,1.4-1.4c0.6-0.3,2.5,0.1,2.6-0.1c0.1-0.3-1.7-1.2-2-1.7
			c-0.3-0.6,0-1.9-0.3-2c-0.3-0.1-0.9,1.1-1.4,1.4c-0.5,0.3-2.5-0.1-2.6,0.1C82.5,357.9,84.2,358.7,84.5,359.3z"/>
		<path d="M109.8,428.1c0.2-0.3-0.8-1.1-0.9-1.8c-0.1-0.7,0.9-2.4,0.7-2.5c-0.2-0.2-1.6,1.2-2.3,1.3c-0.6,0.1-1.8-0.6-2-0.3
			c-0.2,0.2,0.8,1.2,0.9,1.8c0.1,0.6-0.9,2.4-0.7,2.5c0.2,0.2,1.6-1.2,2.3-1.3C108.5,427.6,109.6,428.3,109.8,428.1z"/>
		<path d="M179.6,425c-0.2-0.3-1.3,0.4-2,0.3c-0.7-0.1-2-1.6-2.2-1.4c-0.2,0.2,0.7,1.9,0.6,2.6c-0.1,0.6-1.1,1.5-0.9,1.8
			c0.2,0.2,1.4-0.4,2-0.3c0.6,0.1,2,1.6,2.2,1.4c0.2-0.2-0.7-1.9-0.6-2.6C178.7,426,179.7,425.2,179.6,425z"/>
		<path d="M199.8,357.3c-0.6-0.3-1.1-1.5-1.4-1.4c-0.3,0.1,0,1.4-0.4,2c-0.3,0.6-2.1,1.4-2,1.7c0.1,0.3,2.1,0,2.6,0.3
			c0.6,0.3,1.1,1.5,1.4,1.4c0.3-0.1,0.1-1.5,0.4-2s2.1-1.4,2-1.7C202.3,357.3,200.4,357.7,199.8,357.3z"/>
		<path d="M125.5,352.7c-0.1-1.5-1.2-2.8-2.8-2.8c-1.5,0-2.8,1.3-2.8,2.8c0,1.5,1.2,2.7,2.7,2.8
			C124.3,355.5,125.4,354.2,125.5,352.7z M121.5,352.7c0-1.6,2.4-1.6,2.5,0C123.9,354.3,121.5,354.3,121.5,352.7z"/>
		<path d="M163.8,352.7c-0.1-1.5-1.2-2.8-2.8-2.8c-1.5,0-2.8,1.3-2.8,2.8c0,1.5,1.2,2.7,2.7,2.8
			C162.5,355.5,163.7,354.2,163.8,352.7z M159.8,352.7c0-1.6,2.4-1.6,2.5,0C162.2,354.3,159.8,354.3,159.8,352.7z"/>
		<path d="M142.4,412c1.6,0.1,2.8-1.2,2.9-2.8c-0.1-1.5-1.2-2.8-2.8-2.8c-1.5,0-2.8,1.3-2.8,2.8C139.8,410.7,141,411.9,142.4,412z
			 M143.8,409.2c-0.1,1.6-2.5,1.6-2.5,0C141.3,407.6,143.7,407.6,143.8,409.2z"/>
		<path d="M112.3,386.8c0,1.5,1.2,2.7,2.7,2.8c1.6,0.1,2.8-1.2,2.9-2.8c-0.1-1.5-1.2-2.8-2.8-2.8C113.6,384,112.3,385.3,112.3,386.8
			z M116.3,386.8c-0.1,1.6-2.5,1.6-2.5,0C113.8,385.1,116.3,385.2,116.3,386.8z"/>
		<path d="M167.4,386.8c0,1.5,1.2,2.7,2.7,2.8c1.6,0.1,2.8-1.2,2.9-2.8c-0.1-1.5-1.2-2.8-2.8-2.8C168.7,384,167.4,385.3,167.4,386.8
			z M171.5,386.8c-0.1,1.6-2.5,1.6-2.5,0C169,385.1,171.4,385.2,171.5,386.8z"/>
		<polygon points="141,382.6 142.7,393 144.3,382.6 150.6,386.5 146.6,380.3 157,378.6 146.6,377 150.6,370.7 144.3,374.7 
			142.7,364.2 141,374.7 134.8,370.7 138.7,377 128.3,378.6 138.7,380.3 134.8,386.5 		"/>
		<path d="M233.4,288.4c5.7,4.2,32.1,23.7,39,28.9c3.5,2.6,6.9,5.1,10.4,7.7c0.5,0.4,1.3-0.3,1.1-0.8c-3.8-11.9-7.7-23.7-11.5-35.6
			l-1.3,0.9c2.5,7.6,5,15.4,7.4,23l3.2,9.9c-9.7-7.2-41.8-30.9-47.8-35.4L233.4,288.4z"/>
		<path d="M199.2,263.1c10.3,7.6,20.4,15.1,30.6,22.6l0.6-1.5c-6.6-4.8-13.3-9.8-20-14.8c-2.8-2.1-5.7-4.2-8.5-6.3H261
			c-0.1-0.2-0.4-1.1-0.5-1.5h-60.9C198.8,261.6,198.6,262.6,199.2,263.1z"/>
		<path d="M219.9,324.9c10.1-7.5,20.2-14.9,30.3-22.4c0,0-1.1-1-1.2-1c-6.5,4.8-13,9.6-19.5,14.4l-8.6,6.3
			c3.8-11.6,16.4-50.7,18.7-57.8l-1.6,0c-2.2,6.8-12.6,39-15.4,47.5l-3.9,12.1C218.6,324.7,219.3,325.3,219.9,324.9z"/>
		<path d="M239.5,260.1c0.5,0,1,0.1,1.5,0c2.4-7.4,4.8-14.7,7.1-22.1c1.1-3.3,2.1-6.6,3.2-9.9c3.6,11.2,15.9,49.2,18.2,56.3l1.3-1
			c-2.2-6.8-14.9-45.9-14.9-45.9c-1.3-4-2.6-8-3.9-12c0-0.3-0.2-0.5-0.4-0.6c-0.1,0-0.2-0.1-0.2-0.1c0,0,0,0,0,0c0,0-0.1,0-0.1,0
			c0,0-0.1,0-0.1,0c0,0,0,0,0,0c-0.1,0-0.2,0-0.3,0.1c-0.2,0.1-0.4,0.3-0.4,0.6C246.9,237.1,243.2,248.6,239.5,260.1
			C239.5,260.1,239.5,260.1,239.5,260.1z"/>
		<path d="M266.1,263.2h34.8c-9.8,7.3-42.5,31.4-48.3,35.7l1.3,0.9c5.6-4.1,39.3-29.1,39.3-29.1c3.5-2.6,6.9-5.1,10.4-7.7
			c0.6-0.4,0.4-1.4-0.4-1.4h-37.6C265.7,262.2,265.9,262.7,266.1,263.2z"/>
		<path d="M201.2,249.5c9.7-16.1,26.7-26.3,44.9-28.1c-0.1-0.5-0.1-1-0.1-1.4c-15.8,1.5-30.9,9.1-41.1,21.8
			c-3.5,4.4-6.4,9.2-8.5,14.2c0.5,0.1,0.9,0.2,1.4,0.5C198.6,254.1,199.8,251.7,201.2,249.5z"/>
		<path d="M213,325.8c0.3-0.4,0.7-0.7,1.2-0.9c-2.8-2.3-5.4-4.8-7.7-7.6c-12-14.4-16.1-33.8-11.8-51.6c-0.5,0-1-0.1-1.4-0.2
			c-3.7,15.3-1.5,31.8,7,45.6C203.6,316.7,208,321.7,213,325.8z"/>
		<path d="M263.1,338.6c6.5-1.3,12.6-3.6,18.1-6.8c-0.3-0.4-0.5-0.8-0.7-1.3c-3,1.7-6.2,3.2-9.5,4.4c-16.7,5.9-35.1,3.6-49.9-5.2
			c-0.1,0.5-0.3,1-0.5,1.4C233,338.5,248.2,341.5,263.1,338.6z"/>
		<path d="M308.2,265.8C308.2,265.8,308.2,265.8,308.2,265.8c1.1,4.5,1.7,9.1,1.8,13.8c-0.1,17.6-8.2,34.1-21.2,45
			c0.4,0.3,0.8,0.6,1.1,1c13.2-11.2,21.5-27.9,21.6-46c0-4.8-0.7-9.6-1.8-14.2C309.1,265.6,308.6,265.7,308.2,265.8z"/>
		<path d="M257.3,221.4c1.9,0.2,3.8,0.5,5.8,0.9c19,3.9,34.3,17.1,41.8,34.1c0,0,0,0,0,0c0.3-0.1,0.6-0.1,0.9,0
			c0.1-0.1,0.2-0.2,0.2-0.2c0.1-0.1,0.2-0.2,0.3-0.3c-6.4-14.8-18.6-26.8-34.2-32.6c-4.9-1.8-10-2.9-15.1-3.4
			C257.2,220.4,257.3,220.9,257.3,221.4z"/>
		<path d="M251.4,217c-0.3,0-0.5,1.9-1.1,2.4c-0.5,0.5-1.8,0.6-1.8,0.9c0,0.3,1.3,0.5,1.8,1c0.5,0.5,0.7,2.4,0.9,2.5
			c0.3,0,0.6-2,1.1-2.4c0.5-0.4,1.8-0.6,1.8-0.9c0-0.3-1.4-0.5-1.8-1C252,219,251.7,217,251.4,217z"/>
		<path d="M193.4,261.4c0.3,0.6,0,1.9,0.3,2c0.3,0.1,0.8-1.1,1.4-1.4c0.6-0.3,2.5,0.1,2.6-0.1c0.1-0.3-1.7-1.2-2-1.7
			c-0.3-0.6,0-1.9-0.3-2c-0.3-0.1-0.9,1.1-1.4,1.4c-0.5,0.3-2.5-0.1-2.6,0.1C191.3,259.9,193.1,260.7,193.4,261.4z"/>
		<path d="M214.4,331.1c0.2,0.2,1.6-1.2,2.3-1.3c0.7-0.1,1.8,0.6,2,0.3c0.2-0.3-0.8-1.1-0.9-1.8c-0.1-0.7,0.9-2.4,0.7-2.5
			c-0.2-0.2-1.6,1.2-2.3,1.3c-0.6,0.1-1.8-0.6-2-0.3c-0.2,0.2,0.8,1.2,0.9,1.8C215.1,329.2,214.1,330.9,214.4,331.1z"/>
		<path d="M288.4,327c-0.2-0.3-1.3,0.4-2,0.3c-0.7-0.1-2-1.6-2.2-1.4c-0.2,0.2,0.7,1.9,0.6,2.6c-0.1,0.6-1.1,1.5-0.9,1.8
			c0.2,0.2,1.4-0.4,2-0.3c0.6,0.1,2,1.6,2.2,1.4c0.2-0.2-0.7-1.9-0.6-2.6C287.6,328.1,288.6,327.3,288.4,327z"/>
		<path d="M304.8,261.6c0.1,0.3,2.1,0,2.6,0.3c0.6,0.3,1.1,1.5,1.4,1.4c0.3-0.1,0.1-1.5,0.4-2c0.3-0.5,2.1-1.4,2-1.7
			c-0.1-0.3-2,0.1-2.6-0.3c-0.6-0.3-1.1-1.5-1.4-1.4c-0.3,0.1,0,1.4-0.4,2C306.5,260.5,304.7,261.3,304.8,261.6z"/>
		<path d="M234.4,254.7c-0.1-1.5-1.2-2.8-2.8-2.8c-1.5,0-2.8,1.3-2.8,2.8c0,1.5,1.2,2.7,2.7,2.8
			C233.1,257.6,234.3,256.3,234.4,254.7z M230.3,254.7c0-1.6,2.4-1.6,2.5,0C232.8,256.4,230.3,256.4,230.3,254.7z"/>
		<path d="M272.6,254.7c-0.1-1.5-1.2-2.8-2.8-2.8c-1.5,0-2.8,1.3-2.8,2.8c0,1.5,1.2,2.7,2.7,2.8
			C271.3,257.6,272.5,256.3,272.6,254.7z M268.6,254.7c0-1.6,2.4-1.6,2.5,0C271,256.4,268.6,256.4,268.6,254.7z"/>
		<path d="M248.6,311.3c0,1.5,1.2,2.7,2.7,2.8c1.6,0.1,2.8-1.2,2.9-2.8c-0.1-1.5-1.2-2.8-2.8-2.8
			C249.9,308.5,248.6,309.8,248.6,311.3z M252.6,311.3c-0.1,1.6-2.5,1.6-2.5,0C250.1,309.7,252.5,309.7,252.6,311.3z"/>
		<path d="M226.7,288.8c-0.1-1.5-1.2-2.8-2.8-2.8c-1.5,0-2.8,1.3-2.8,2.8c0,1.5,1.2,2.7,2.7,2.8
			C225.4,291.6,226.6,290.3,226.7,288.8z M222.7,288.8c0-1.6,2.4-1.6,2.5,0C225.1,290.4,222.7,290.4,222.7,288.8z"/>
		<path d="M281.8,288.8c-0.1-1.5-1.2-2.8-2.8-2.8c-1.5,0-2.8,1.3-2.8,2.8c0,1.5,1.2,2.7,2.7,2.8
			C280.5,291.6,281.7,290.3,281.8,288.8z M277.8,288.8c0-1.6,2.4-1.6,2.5,0C280.2,290.4,277.8,290.4,277.8,288.8z"/>
		<polygon points="247.5,282.3 243.6,288.6 249.8,284.6 251.5,295.1 253.1,284.6 259.4,288.6 255.4,282.3 265.9,280.7 255.4,279 
			259.4,272.8 253.1,276.7 251.5,266.3 249.8,276.7 243.6,272.8 247.5,279 237.1,280.7 		"/>
		<path d="M284,522.8c-3.8-11.9-7.7-23.7-11.5-35.6l-1.3,0.9c2.5,7.6,5,15.4,7.4,23l3.2,9.9c-9.7-7.2-41.8-30.9-47.8-35.4l-0.5,1.5
			c5.7,4.2,32.1,23.7,39,28.9c3.5,2.6,6.9,5.1,10.4,7.7C283.4,524,284.1,523.4,284,522.8z"/>
		<path d="M230.3,482.9c-6.6-4.8-13.3-9.8-20-14.8c-2.8-2.1-5.7-4.2-8.5-6.3H261c-0.1-0.2-0.4-1.1-0.5-1.5h-60.9
			c-0.8,0-0.9,1-0.4,1.4c10.3,7.6,20.4,15.1,30.6,22.6L230.3,482.9z"/>
		<path d="M219.9,523.7c10.1-7.5,20.2-14.9,30.3-22.4c0,0-1.1-1-1.2-1c-6.5,4.8-13,9.6-19.5,14.4l-8.6,6.3
			c3.8-11.6,16.4-50.7,18.7-57.8l-1.6,0c-2.2,6.8-12.6,39-15.4,47.5l-3.9,12.1C218.6,523.4,219.3,524,219.9,523.7z"/>
		<path d="M239.5,458.8c0.5,0,1,0.1,1.5,0c2.4-7.4,4.8-14.7,7.1-22.1c1.1-3.3,2.1-6.6,3.2-9.9c3.6,11.2,15.9,49.2,18.2,56.3l1.3-1
			c-2.2-6.8-14.9-45.9-14.9-45.9c-1.3-4-2.6-8-3.9-12c0-0.3-0.2-0.5-0.4-0.6c-0.1,0-0.2-0.1-0.2-0.1c0,0,0,0,0,0c0,0-0.1,0-0.1,0
			c0,0-0.1,0-0.1,0c0,0,0,0,0,0c-0.1,0-0.2,0-0.3,0.1c-0.2,0.1-0.4,0.3-0.4,0.6C246.9,435.8,243.2,447.3,239.5,458.8
			C239.5,458.8,239.5,458.8,239.5,458.8z"/>
		<path d="M303.5,461.8c0.6-0.4,0.4-1.4-0.4-1.4h-37.6c0.2,0.5,0.4,1,0.5,1.5h34.8c-9.8,7.3-42.5,31.4-48.3,35.7l1.3,0.9
			c5.6-4.1,39.3-29.1,39.3-29.1C296.6,466.9,300.1,464.3,303.5,461.8z"/>
		<path d="M197.6,455.2c1-2.4,2.2-4.7,3.5-7c9.7-16.1,26.7-26.3,44.9-28.1c-0.1-0.5-0.1-1-0.1-1.4c-15.8,1.5-30.9,9.1-41.1,21.8
			c-3.5,4.4-6.4,9.2-8.5,14.2C196.7,454.7,197.2,454.9,197.6,455.2z"/>
		<path d="M193.1,464.1c-3.7,15.3-1.5,31.8,7,45.6c3.5,5.7,7.9,10.7,12.9,14.8c0.3-0.4,0.7-0.7,1.2-0.9c-2.8-2.3-5.4-4.8-7.7-7.6
			c-12-14.4-16.1-33.8-11.8-51.6C194.1,464.3,193.6,464.2,193.1,464.1z"/>
		<path d="M281.2,530.5c-0.3-0.4-0.5-0.8-0.7-1.3c-3,1.7-6.2,3.2-9.5,4.4c-16.7,5.9-35.1,3.6-49.9-5.2c-0.1,0.5-0.3,1-0.5,1.4
			c12.6,7.5,27.8,10.5,42.6,7.6C269.6,536,275.7,533.7,281.2,530.5z"/>
		<path d="M309.6,464.2c-0.5,0.1-1,0.2-1.5,0.4c0,0,0,0,0,0c1.1,4.5,1.7,9.1,1.8,13.8c-0.1,17.6-8.2,34.1-21.2,45
			c0.4,0.3,0.8,0.6,1.1,1c13.2-11.2,21.5-27.9,21.6-46C311.4,473.6,310.8,468.8,309.6,464.2z"/>
		<path d="M272.2,422c-4.9-1.8-10-2.9-15.1-3.4c0.1,0.5,0.2,1,0.2,1.5c1.9,0.2,3.8,0.5,5.8,0.9c19,3.9,34.3,17.1,41.8,34.1
			c0,0,0,0,0,0c0.3-0.1,0.6-0.1,0.9,0c0.1-0.1,0.2-0.2,0.2-0.2c0.1-0.1,0.2-0.2,0.3-0.3C299.9,439.9,287.8,427.8,272.2,422z"/>
		<path d="M250.3,420c0.5,0.5,0.7,2.4,0.9,2.5c0.3,0,0.6-2,1.1-2.4c0.5-0.4,1.8-0.6,1.8-0.9c0-0.3-1.4-0.5-1.8-1
			c-0.4-0.4-0.7-2.4-0.9-2.5c-0.3,0-0.5,1.9-1.1,2.4c-0.5,0.5-1.8,0.6-1.8,0.9C248.6,419.3,249.9,419.5,250.3,420z"/>
		<path d="M195.8,458.8c-0.3-0.6,0-1.9-0.3-2c-0.3-0.1-0.9,1.1-1.4,1.4c-0.5,0.3-2.5-0.1-2.6,0.1c-0.1,0.3,1.7,1.1,2,1.7
			c0.3,0.6,0,1.9,0.3,2c0.3,0.1,0.8-1.1,1.4-1.4c0.6-0.3,2.5,0.1,2.6-0.1C197.8,460.3,196,459.4,195.8,458.8z"/>
		<path d="M214.4,529.8c0.2,0.2,1.6-1.2,2.3-1.3c0.7-0.1,1.8,0.6,2,0.3c0.2-0.3-0.8-1.1-0.9-1.8c-0.1-0.7,0.9-2.4,0.7-2.5
			c-0.2-0.2-1.6,1.2-2.3,1.3c-0.6,0.1-1.8-0.6-2-0.3c-0.2,0.2,0.8,1.2,0.9,1.8C215.1,527.9,214.1,529.7,214.4,529.8z"/>
		<path d="M288.4,525.7c-0.2-0.3-1.3,0.4-2,0.3c-0.7-0.1-2-1.6-2.2-1.4c-0.2,0.2,0.7,1.9,0.6,2.6c-0.1,0.6-1.1,1.5-0.9,1.8
			c0.2,0.2,1.4-0.4,2-0.3c0.6,0.1,2,1.6,2.2,1.4c0.2-0.2-0.7-1.9-0.6-2.6C287.6,526.8,288.6,526,288.4,525.7z"/>
		<path d="M304.8,460.3c0.1,0.3,2.1,0,2.6,0.3c0.6,0.3,1.1,1.5,1.4,1.4s0.1-1.5,0.4-2c0.3-0.5,2.1-1.4,2-1.7c-0.1-0.3-2,0.1-2.6-0.3
			c-0.6-0.3-1.1-1.5-1.4-1.4c-0.3,0.1,0,1.4-0.4,2C306.5,459.2,304.7,460,304.8,460.3z"/>
		<path d="M234.4,453.5c-0.1-1.5-1.2-2.8-2.8-2.8c-1.5,0-2.8,1.3-2.8,2.8c0,1.5,1.2,2.7,2.7,2.8C233.1,456.3,234.3,455,234.4,453.5z
			 M230.3,453.5c0-1.6,2.4-1.6,2.5,0C232.8,455.1,230.3,455.1,230.3,453.5z"/>
		<path d="M272.6,453.5c-0.1-1.5-1.2-2.8-2.8-2.8c-1.5,0-2.8,1.3-2.8,2.8c0,1.5,1.2,2.7,2.7,2.8C271.3,456.3,272.5,455,272.6,453.5z
			 M268.6,453.5c0-1.6,2.4-1.6,2.5,0C271,455.1,268.6,455.1,268.6,453.5z"/>
		<path d="M251.2,512.8c1.6,0.1,2.8-1.2,2.9-2.8c-0.1-1.5-1.2-2.8-2.8-2.8c-1.5,0-2.8,1.3-2.8,2.8
			C248.6,511.5,249.8,512.7,251.2,512.8z M252.6,510c-0.1,1.6-2.5,1.6-2.5,0C250.1,508.4,252.5,508.4,252.6,510z"/>
		<path d="M221.2,487.5c0,1.5,1.2,2.7,2.7,2.8c1.6,0.1,2.8-1.2,2.9-2.8c-0.1-1.5-1.2-2.8-2.8-2.8C222.4,484.8,221.2,486,221.2,487.5
			z M225.2,487.5c-0.1,1.6-2.5,1.6-2.5,0C222.7,485.9,225.1,485.9,225.2,487.5z"/>
		<path d="M281.8,487.5c-0.1-1.5-1.2-2.8-2.8-2.8c-1.5,0-2.8,1.3-2.8,2.8c0,1.5,1.2,2.7,2.7,2.8
			C280.5,490.4,281.7,489.1,281.8,487.5z M277.8,487.5c0-1.6,2.4-1.6,2.5,0C280.2,489.1,277.8,489.2,277.8,487.5z"/>
		<polygon points="255.4,477.8 259.4,471.5 253.1,475.5 251.5,465 249.8,475.5 243.6,471.5 247.5,477.8 237.1,479.4 247.5,481 
			243.6,487.3 249.8,483.3 251.5,493.8 253.1,483.3 259.4,487.3 255.4,481 265.9,479.4 		"/>
		<path d="M282.8,674.1c0.5,0.4,1.3-0.3,1.1-0.8c-3.8-11.9-7.7-23.7-11.5-35.6l-1.3,0.9c2.5,7.6,5,15.4,7.4,23l3.2,9.9
			c-9.7-7.2-41.8-30.9-47.8-35.4l-0.5,1.5c5.7,4.2,32.1,23.7,39,28.9C275.9,669,279.4,671.6,282.8,674.1z"/>
		<path d="M260.5,610.8h-60.9c-0.8,0-0.9,1-0.4,1.4c10.3,7.6,20.4,15.1,30.6,22.6l0.6-1.5c-6.6-4.8-13.3-9.8-20-14.8
			c-2.8-2.1-5.7-4.2-8.5-6.3H261C260.9,612.2,260.6,611.2,260.5,610.8z"/>
		<path d="M249,650.7c-6.5,4.8-13,9.6-19.5,14.4l-8.6,6.3c3.8-11.6,16.4-50.7,18.7-57.8l-1.6,0c-2.2,6.8-12.6,39-15.4,47.5
			l-3.9,12.1c-0.2,0.6,0.6,1.2,1.1,0.8c10.1-7.5,20.2-14.9,30.3-22.4C250.1,651.7,249,650.7,249,650.7z"/>
		<path d="M239.5,609.3c0.5,0,1,0.1,1.5,0c2.4-7.4,4.8-14.7,7.1-22.1c1.1-3.3,2.1-6.6,3.2-9.9c3.6,11.2,15.9,49.2,18.2,56.3l1.3-1
			c-2.2-6.8-14.9-45.9-14.9-45.9c-1.3-4-2.6-8-3.9-12c0-0.3-0.2-0.5-0.4-0.6c-0.1,0-0.2-0.1-0.2-0.1c0,0,0,0,0,0c0,0-0.1,0-0.1,0
			c0,0-0.1,0-0.1,0c0,0,0,0,0,0c-0.1,0-0.2,0-0.3,0.1c-0.2,0.1-0.4,0.3-0.4,0.6C246.9,586.3,243.2,597.8,239.5,609.3
			C239.5,609.3,239.5,609.3,239.5,609.3z"/>
		<path d="M303.5,612.2c0.6-0.4,0.4-1.4-0.4-1.4h-37.6c0.2,0.5,0.4,1,0.5,1.5h34.8c-9.8,7.3-42.5,31.4-48.3,35.7l1.3,0.9
			c5.6-4.1,39.3-29.1,39.3-29.1C296.6,617.4,300.1,614.8,303.5,612.2z"/>
		<path d="M246,570.6c-0.1-0.5-0.1-1-0.1-1.4c-15.8,1.5-30.9,9.1-41.1,21.8c-3.5,4.4-6.4,9.2-8.5,14.2c0.5,0.1,0.9,0.2,1.4,0.5
			c1-2.4,2.2-4.7,3.5-7C210.8,582.6,227.8,572.4,246,570.6z"/>
		<path d="M213,675c0.3-0.4,0.7-0.7,1.2-0.9c-2.8-2.3-5.4-4.8-7.7-7.6c-12-14.4-16.1-33.8-11.8-51.6c-0.5,0-1-0.1-1.4-0.2
			c-3.7,15.3-1.5,31.8,7,45.6C203.6,665.9,208,670.8,213,675z"/>
		<path d="M281.2,680.9c-0.3-0.4-0.5-0.8-0.7-1.3c-3,1.7-6.2,3.2-9.5,4.4c-16.7,5.9-35.1,3.6-49.9-5.2c-0.1,0.5-0.3,1-0.5,1.4
			c12.6,7.5,27.8,10.5,42.6,7.6C269.6,686.5,275.7,684.1,281.2,680.9z"/>
		<path d="M309.6,614.7c-0.5,0.1-1,0.2-1.5,0.4c0,0,0,0,0,0c1.1,4.5,1.7,9.1,1.8,13.8c-0.1,17.6-8.2,34.1-21.2,45
			c0.4,0.3,0.8,0.6,1.1,1c13.2-11.2,21.5-27.9,21.6-46C311.4,624,310.8,619.3,309.6,614.7z"/>
		<path d="M305,605.6c0.3-0.1,0.6-0.1,0.9,0c0.1-0.1,0.2-0.2,0.2-0.2c0.1-0.1,0.2-0.2,0.3-0.3c-6.4-14.8-18.6-26.8-34.2-32.6
			c-4.9-1.8-10-2.9-15.1-3.4c0.1,0.5,0.2,1,0.2,1.5c1.9,0.2,3.8,0.5,5.8,0.9C282.2,575.4,297.4,588.6,305,605.6
			C304.9,605.6,304.9,605.6,305,605.6z"/>
		<path d="M251.3,572.9c0.3,0,0.6-2,1.1-2.4c0.5-0.4,1.8-0.6,1.8-0.9c0-0.3-1.4-0.5-1.8-1c-0.4-0.4-0.7-2.4-0.9-2.5
			c-0.3,0-0.5,1.9-1.1,2.4c-0.5,0.5-1.8,0.6-1.8,0.9c0,0.3,1.3,0.5,1.8,1C250.8,570.9,251,572.9,251.3,572.9z"/>
		<path d="M193.6,612.5c0.3,0.1,0.8-1.1,1.4-1.4c0.6-0.3,2.5,0.1,2.6-0.1c0.1-0.3-1.7-1.2-2-1.7c-0.3-0.6,0-1.9-0.3-2
			c-0.3-0.1-0.9,1.1-1.4,1.4c-0.5,0.3-2.5-0.1-2.6,0.1c-0.1,0.3,1.7,1.1,2,1.7S193.3,612.4,193.6,612.5z"/>
		<path d="M218.4,675c-0.2-0.2-1.6,1.2-2.3,1.3c-0.6,0.1-1.8-0.6-2-0.3c-0.2,0.2,0.8,1.2,0.9,1.8c0.1,0.6-0.9,2.4-0.7,2.5
			c0.2,0.2,1.6-1.2,2.3-1.3c0.7-0.1,1.8,0.6,2,0.3c0.2-0.3-0.8-1.1-0.9-1.8C217.6,676.8,218.6,675.2,218.4,675z"/>
		<path d="M288.4,676.2c-0.2-0.3-1.3,0.4-2,0.3c-0.7-0.1-2-1.6-2.2-1.4c-0.2,0.2,0.7,1.9,0.6,2.6c-0.1,0.6-1.1,1.5-0.9,1.8
			c0.2,0.2,1.4-0.4,2-0.3c0.6,0.1,2,1.6,2.2,1.4c0.2-0.2-0.7-1.9-0.6-2.6C287.6,677.3,288.6,676.5,288.4,676.2z"/>
		<path d="M307.4,611c0.6,0.3,1.1,1.5,1.4,1.4c0.3-0.1,0.1-1.5,0.4-2c0.3-0.5,2.1-1.4,2-1.7c-0.1-0.3-2,0.1-2.6-0.3
			c-0.6-0.3-1.1-1.5-1.4-1.4c-0.3,0.1,0,1.4-0.4,2c-0.3,0.6-2.1,1.4-2,1.7C304.9,611,306.9,610.7,307.4,611z"/>
		<path d="M228.8,603.9c0,1.5,1.2,2.7,2.7,2.8c1.6,0.1,2.8-1.2,2.9-2.8c-0.1-1.5-1.2-2.8-2.8-2.8
			C230.1,601.2,228.8,602.4,228.8,603.9z M232.8,603.9c-0.1,1.6-2.5,1.6-2.5,0C230.3,602.3,232.8,602.3,232.8,603.9z"/>
		<path d="M272.6,603.9c-0.1-1.5-1.2-2.8-2.8-2.8c-1.5,0-2.8,1.3-2.8,2.8c0,1.5,1.2,2.7,2.7,2.8
			C271.3,606.8,272.5,605.5,272.6,603.9z M268.6,603.9c0-1.6,2.4-1.6,2.5,0C271,605.6,268.6,605.6,268.6,603.9z"/>
		<path d="M248.6,660.5c0,1.5,1.2,2.7,2.7,2.8c1.6,0.1,2.8-1.2,2.9-2.8c-0.1-1.5-1.2-2.8-2.8-2.8C249.9,657.7,248.6,659,248.6,660.5
			z M252.6,660.5c-0.1,1.6-2.5,1.6-2.5,0C250.1,658.9,252.5,658.9,252.6,660.5z"/>
		<path d="M221.2,638c0,1.5,1.2,2.7,2.7,2.8c1.6,0.1,2.8-1.2,2.9-2.8c-0.1-1.5-1.2-2.8-2.8-2.8C222.4,635.2,221.2,636.5,221.2,638z
			 M225.2,638c-0.1,1.6-2.5,1.6-2.5,0C222.7,636.4,225.1,636.4,225.2,638z"/>
		<path d="M281.8,638c-0.1-1.5-1.2-2.8-2.8-2.8c-1.5,0-2.8,1.3-2.8,2.8c0,1.5,1.2,2.7,2.7,2.8C280.5,640.8,281.7,639.5,281.8,638z
			 M277.8,638c0-1.6,2.4-1.6,2.5,0C280.2,639.6,277.8,639.6,277.8,638z"/>
		<polygon points="247.5,631.5 243.6,637.8 249.8,633.8 251.5,644.3 253.1,633.8 259.4,637.8 255.4,631.5 265.9,629.9 255.4,628.2 
			259.4,622 253.1,625.9 251.5,615.5 249.8,625.9 243.6,622 247.5,628.2 237.1,629.9 		"/>
		<path d="M392.8,425.3c0.5,0.4,1.3-0.3,1.1-0.9c-3.8-11.9-7.7-23.7-11.5-35.6l-1.3,0.9c2.5,7.6,5,15.4,7.4,23l3.2,9.9
			c-9.7-7.2-41.8-30.9-47.8-35.4l-0.5,1.5c5.7,4.2,32.1,23.7,39,28.9C385.9,420.1,389.3,422.7,392.8,425.3z"/>
		<path d="M370.4,362h-60.9c-0.8,0-0.9,1-0.4,1.4c10.3,7.6,20.4,15.1,30.6,22.6l0.6-1.5c-6.6-4.8-13.3-9.8-20-14.8
			c-2.8-2.1-5.7-4.2-8.5-6.3H371C370.9,363.3,370.5,362.3,370.4,362z"/>
		<path d="M358.9,401.9c-6.5,4.8-13,9.6-19.5,14.4l-8.6,6.3c3.8-11.6,16.4-50.7,18.7-57.8l-1.6,0c-2.2,6.8-12.6,39-15.4,47.5
			l-3.9,12.1c-0.2,0.6,0.6,1.2,1.1,0.9c10.1-7.5,20.2-14.9,30.3-22.4C360.1,402.8,359,401.9,358.9,401.9z"/>
		<path d="M361.7,325.4c-0.1,0-0.2-0.1-0.2-0.1c0,0,0,0,0,0c0,0,0,0-0.1,0c0,0-0.1,0-0.1,0c0,0,0,0,0,0c-0.1,0-0.2,0-0.3,0.1
			c-0.2,0.1-0.4,0.3-0.4,0.6c-3.7,11.5-7.4,23-11.2,34.5c0,0,0,0,0,0c0.5,0,1,0.1,1.5,0c2.4-7.4,4.8-14.7,7.1-22.1
			c1.1-3.3,2.1-6.6,3.2-9.9c3.6,11.2,15.9,49.2,18.2,56.3l1.3-1c-2.2-6.8-14.9-45.9-14.9-45.9c-1.3-4-2.6-8-3.9-12
			C362.1,325.7,361.9,325.5,361.7,325.4z"/>
		<path d="M413.5,363.4c0.6-0.4,0.4-1.4-0.4-1.4h-37.6c0.2,0.5,0.4,1,0.5,1.5h34.8c-9.8,7.3-42.5,31.4-48.3,35.7l1.3,0.9
			c5.6-4.1,39.3-29.1,39.3-29.1C406.6,368.5,410,365.9,413.5,363.4z"/>
		<path d="M307.6,356.8c1-2.4,2.2-4.7,3.5-7c9.7-16.1,26.7-26.3,44.9-28.1c-0.1-0.5-0.1-1-0.1-1.4c-15.8,1.5-30.9,9.1-41.1,21.8
			c-3.5,4.4-6.4,9.2-8.5,14.2C306.7,356.3,307.1,356.5,307.6,356.8z"/>
		<path d="M322.9,426.1c0.3-0.4,0.7-0.7,1.2-0.9c-2.8-2.3-5.4-4.8-7.7-7.6c-12-14.4-16.1-33.8-11.8-51.6c-0.5,0-1-0.1-1.4-0.2
			c-3.7,15.3-1.5,31.8,7,45.6C313.5,417,317.9,422,322.9,426.1z"/>
		<path d="M373,438.9c6.5-1.3,12.6-3.6,18.1-6.8c-0.3-0.4-0.5-0.8-0.7-1.3c-3,1.7-6.2,3.2-9.5,4.4c-16.7,5.9-35.1,3.6-49.9-5.2
			c-0.1,0.5-0.3,1-0.5,1.4C343,438.9,358.2,441.8,373,438.9z"/>
		<path d="M418.1,366.2C418.1,366.2,418.1,366.2,418.1,366.2c1.1,4.5,1.7,9.1,1.8,13.8c-0.1,17.6-8.2,34.1-21.2,45
			c0.4,0.3,0.8,0.6,1.1,1c13.2-11.2,21.5-27.9,21.6-46c0-4.8-0.7-9.6-1.8-14.2C419.1,365.9,418.6,366,418.1,366.2z"/>
		<path d="M373.1,322.6c19,3.9,34.3,17.1,41.8,34.1c0,0,0,0,0,0c0.3-0.1,0.6-0.1,0.9,0c0.1-0.1,0.2-0.2,0.2-0.2
			c0.1-0.1,0.2-0.2,0.3-0.3c-6.4-14.8-18.6-26.8-34.2-32.6c-4.9-1.8-10-2.9-15.1-3.4c0.1,0.5,0.2,1,0.2,1.5
			C369.2,321.9,371.1,322.2,373.1,322.6z"/>
		<path d="M360.3,321.6c0.5,0.5,0.7,2.4,0.9,2.5c0.3,0,0.6-2,1-2.4c0.5-0.4,1.8-0.6,1.8-0.9s-1.4-0.5-1.8-1
			c-0.4-0.4-0.7-2.4-0.9-2.5c-0.3,0-0.5,1.9-1,2.4c-0.5,0.5-1.8,0.6-1.8,0.9C358.5,320.9,359.8,321.1,360.3,321.6z"/>
		<path d="M303.6,363.7c0.3,0.1,0.8-1.1,1.4-1.4c0.6-0.3,2.5,0.1,2.6-0.1c0.1-0.3-1.7-1.2-2-1.7c-0.3-0.6,0-1.9-0.3-2
			c-0.3-0.1-0.9,1.1-1.4,1.4c-0.5,0.3-2.5-0.1-2.6,0.1c-0.1,0.3,1.7,1.1,2,1.7C303.6,362.3,303.3,363.6,303.6,363.7z"/>
		<path d="M328.4,426.1c-0.2-0.2-1.6,1.2-2.3,1.3c-0.6,0.1-1.8-0.6-2-0.3c-0.2,0.2,0.8,1.2,0.9,1.8c0.1,0.6-0.9,2.4-0.7,2.5
			c0.2,0.2,1.6-1.2,2.3-1.3c0.7-0.1,1.8,0.6,2,0.3c0.2-0.3-0.8-1.1-0.9-1.8C327.6,428,328.6,426.3,328.4,426.1z"/>
		<path d="M398.3,427.3c-0.2-0.3-1.3,0.4-2,0.3c-0.7-0.1-2-1.6-2.2-1.4c-0.2,0.2,0.7,1.9,0.6,2.6s-1.1,1.5-0.9,1.8
			c0.2,0.2,1.4-0.4,2-0.3c0.6,0.1,2,1.6,2.2,1.4c0.2-0.2-0.7-1.9-0.6-2.6S398.5,427.6,398.3,427.3z"/>
		<path d="M414.7,361.9c0.1,0.3,2.1,0,2.6,0.3c0.6,0.3,1.1,1.5,1.4,1.4c0.3-0.1,0.1-1.5,0.4-2c0.3-0.5,2.1-1.4,2-1.7
			c-0.1-0.3-2,0.1-2.6-0.3c-0.6-0.3-1.1-1.5-1.4-1.4c-0.3,0.1,0,1.4-0.4,2C416.5,360.8,414.7,361.6,414.7,361.9z"/>
		<path d="M344.3,355.1c-0.1-1.5-1.2-2.8-2.8-2.8c-1.5,0-2.8,1.3-2.8,2.8c0,1.5,1.2,2.7,2.7,2.8C343,357.9,344.2,356.6,344.3,355.1z
			 M340.3,355.1c0-1.6,2.4-1.6,2.5,0C342.7,356.7,340.3,356.7,340.3,355.1z"/>
		<path d="M382.6,355.1c-0.1-1.5-1.2-2.8-2.8-2.8c-1.5,0-2.8,1.3-2.8,2.8c0,1.5,1.2,2.7,2.7,2.8
			C381.3,357.9,382.5,356.6,382.6,355.1z M378.5,355.1c0-1.6,2.4-1.6,2.5,0C381,356.7,378.5,356.7,378.5,355.1z"/>
		<path d="M358.6,411.6c0,1.5,1.2,2.7,2.7,2.8c1.6,0.1,2.8-1.2,2.9-2.8c-0.1-1.5-1.2-2.8-2.8-2.8
			C359.8,408.9,358.6,410.1,358.6,411.6z M362.6,411.6c-0.1,1.6-2.5,1.6-2.5,0C360.1,410,362.5,410,362.6,411.6z"/>
		<path d="M331.1,389.1c0,1.5,1.2,2.7,2.7,2.8c1.6,0.1,2.8-1.2,2.9-2.8c-0.1-1.5-1.2-2.8-2.8-2.8
			C332.4,386.4,331.1,387.6,331.1,389.1z M335.1,389.1c-0.1,1.6-2.5,1.6-2.5,0C332.6,387.5,335,387.5,335.1,389.1z"/>
		<path d="M391.8,389.1c-0.1-1.5-1.2-2.8-2.8-2.8c-1.5,0-2.8,1.3-2.8,2.8c0,1.5,1.2,2.7,2.7,2.8C390.5,392,391.7,390.7,391.8,389.1z
			 M387.7,389.1c0-1.6,2.4-1.6,2.5,0C390.2,390.8,387.7,390.8,387.7,389.1z"/>
		<polygon points="357.5,382.6 353.5,388.9 359.8,384.9 361.4,395.4 363.1,384.9 369.3,388.9 365.4,382.6 375.8,381 365.4,379.4 
			369.3,373.1 363.1,377.1 361.4,366.6 359.8,377.1 353.5,373.1 357.5,379.4 347,381 		"/>
	</g>
</g>
</svg>
