<?xml version="1.0" encoding="utf-8"?>
<!-- Generator: Adobe Illustrator 21.1.0, SVG Export Plug-In . SVG Version: 6.00 Build 0)  -->
<svg version="1.1" xmlns="http://www.w3.org/2000/svg" xmlns:xlink="http://www.w3.org/1999/xlink" x="0px" y="0px"
	 viewBox="0 0 504 864" style="enable-background:new 0 0 504 864;" xml:space="preserve">
<g id="Слой_1">
</g>
<g id="Слой_2">
	<g>
		<path d="M503.8,18.2c-1.6-17.9-18.7-16.3-31.6-16.3c-45.9,0-91.8,0-137.6,0c-63.2,0-126.3,0-189.5,0c-40.6,0-81.2,0-121.8,0
			c-2.6,0-5.3-0.2-8,0.2c-9.5,1.2-15,9.2-15.2,18.2c-0.2,7.3,0,14.5,0,21.8c0,37.4,0,74.9,0,112.3c0,57,0,114.1,0,171.1
			c0,64.3,0,128.6,0,192.9c0,58.4,0,116.7,0,175.1c0,40.1,0,80.2,0,120.3c0,9.1,0,18.2,0,27.3c0,11.7,6.7,20.5,19.2,20.7
			c35.9,0.6,71.9,0,107.9,0c62.4,0,124.9,0,187.3,0c49.7,0,99.5,0,149.2,0c7.6,0,15.2,0,22.9,0c0.4,0,0.8-0.1,1.2-0.2
			c14.4-1.8,16.1-13.8,16.1-25.5c0-11.4,0-22.8,0-34.3c0-43.4,0-86.9,0-130.3c0-59.9,0-119.8,0-179.8c0-63.9,0-127.7,0-191.6
			c0-55.3,0-110.6,0-165.9c0-33.7,0-67.3,0-101C503.9,28.3,504.2,23.2,503.8,18.2z M486.6,852.8c-28.3,0-56.6,0-84.9,0
			c-59.9,0-119.8,0-179.7,0c-54,0-108,0-162,0c-13.1,0-26.1,0-39.2,0c-5.6,0-11-1.3-11.7-8.3c-0.2-1.5,0-3,0-4.5c0-26.5,0-53,0-79.5
			c0-50,0-100,0-149.9c0-61.8,0-123.6,0-185.4c0-61.4,0-122.7,0-184.1c0-48.9,0-97.7,0-146.6c0-24.2-0.8-48.6,0-72.7
			c0.2-5.3,1.6-10.1,8.3-10.8c2.2-0.2,4.5,0,6.7,0c14.8,0,29.6,0,44.5,0c55.6,0,111.3,0,166.9,0c58.9,0,117.8,0,176.7,0
			c18.9,0,37.9,0,56.8,0c8.1,0,24.7-3.1,25.9,8.4c0.5,5.2,0,10.8,0,16.1c0,13.5,0,27.1,0,40.6c0,45.5,0,91.1,0,136.6
			c0,60.1,0,120.2,0,180.3c0,62.6,0,125.1,0,187.7c0,52.8,0,105.6,0,158.4c0,31.4,0,62.7,0,94.1C494.8,840.3,496.9,852,486.6,852.8z
			"/>
		<path d="M460,790.9c1.2,0.1,2.4-0.7,2.4-2.2c0-23.7,0-47.4,0-71.1c0-56.4,0-112.8,0-169.2c0-68.7,0-137.4,0-206
			c0-59,0-117.9,0-176.9c0-19.6,0-39.2,0-58.8c0-8.9,1.3-19,0-27.9c-0.1-0.4,0-0.8,0-1.2c0-0.8-0.3-1.3-0.8-1.7
			c0.1-1.2-0.6-2.5-2.2-2.6c-13.1-0.5-25.3-13.8-25.8-26.7c0-0.5-0.2-0.8-0.4-1.1c-0.3-0.6-1-1.1-1.9-1.1c-40.5,0-80.9,0-121.4,0
			c-64.5,0-129,0-193.6,0c-14.9,0-29.7,0-44.6,0c-0.9,0-1.6,0.5-1.9,1.1c-0.2,0.3-0.3,0.7-0.4,1.2C69.1,59.5,57,72.8,43.9,73.3
			c-1.8,0.1-2.5,1.9-2,3.2c-0.2,0.3-0.2,0.6-0.2,1c0,23.7,0,47.4,0,71.1c0,56.4,0,112.8,0,169.2c0,68.7,0,137.4,0,206
			c0,59,0,117.9,0,176.9c0,19.6,0,39.2,0,58.8c0,8.9-1.3,19,0,27.9c0.1,0.4,0,0.8,0,1.2c0,0.9,0.5,1.6,1.1,1.9
			c0.3,0.2,0.7,0.3,1.2,0.4c13,0.5,25.3,13.3,25.8,26.2c0,0.5,0.2,0.8,0.4,1.1c0.3,0.6,1,1.1,1.9,1.1c40.5,0,80.9,0,121.4,0
			c64.5,0,129,0,193.6,0c14.9,0,29.7,0,44.6,0c0.9,0,1.6-0.5,1.9-1.1c0.2-0.3,0.3-0.7,0.4-1.2c0.5-12.9,12.7-25.7,25.8-26.2
			C459.6,791,459.8,790.9,460,790.9z M429.3,814.9c-39.8,0-79.6,0-119.3,0c-64.5,0-129,0-193.6,0c-14.2,0-28.3,0-42.5,0
			c-1.7-13.9-13.9-26.5-27.8-28.3c0-23,0-46,0-69.1c0-56.4,0-112.8,0-169.2c0-68.7,0-137.4,0-206c0-59,0-117.9,0-176.9
			c0-19.6,0-39.2,0-58.8c0-8.9,1.3-19,0-27.9c-0.1-0.4,0-0.8,0-1.2c14-1.8,26.1-14.9,27.8-28.7c39.8,0,79.5,0,119.3,0
			c64.5,0,129,0,193.6,0c14.2,0,28.3,0,42.5,0c1.7,14.1,14.3,27.4,28.5,28.8c0,23.7,0,47.3,0,71c0,56.4,0,112.8,0,169.2
			c0,68.7,0,137.4,0,206c0,59,0,117.9,0,176.9c0,19.6,0,39.2,0,58.8c0,8.6-1.2,18.4-0.1,27C443.6,788.1,431.1,800.9,429.3,814.9z"/>
		<path d="M240.9,80.3c0.2,0,0.3,0.1,0.3,0.4c0,0.2,0.3,0.4,1,0.5c0.6,0.1,1.1,0.4,1.5,0.9c0.4,0.5,0.7,1.1,0.7,1.6
			c0,0.5,0.1,1,0.3,1.6c0.2,0.6,0.4,0.9,0.5,0.9c0.1,0,0.2,0.3,0.2,0.8c0,0.6,0.2,1.1,0.5,1.4c0.3,0.3,0.5,0.9,0.8,1.8
			c0.2,0.9,0.3,1.7,0.3,2.5c0,0.9,0.1,1.4,0.4,1.4c0.1,0.1,0.2,0.3,0.2,0.7s0.1,0.6,0.2,0.6c0.2,0.1,0.3,0.6,0.3,1.6
			c0,0.9,0.1,1.4,0.4,1.4c0.2,0,0.4,0.3,0.6,1c0.2,0.7,0.4,1,0.5,1c0.2,0,0.4,0.3,0.4,0.8c0.1,0.7,0.5,1,1.3,1c0.1,0,0.4,0,0.6-0.1
			c0.5-0.1,0.7-0.4,0.7-1.1c0-0.6,0.1-0.9,0.3-0.9c0.2,0,0.3-0.3,0.3-0.9c0-0.6,0.1-0.9,0.3-0.9c0.2-0.1,0.3-0.6,0.3-1.5
			c0-0.9,0.2-1.6,0.6-1.9c0.5-0.5,0.8-0.7,1.1-0.8c0.3-0.1,0.4-0.5,0.4-1.3c0-0.8,0.1-1.2,0.4-1.4c0.2-0.1,0.4-0.6,0.6-1.5
			c0.2-0.9,0.3-1.4,0.4-1.5c0.3-0.2,0.4-0.5,0.4-0.9c0-0.4,0.2-0.6,0.7-0.7c0.4,0,0.6-0.3,0.6-0.7c0-0.2-0.1-0.6-0.1-1
			c0-1,0.2-1.5,0.6-1.5c0.4,0,0.5-0.3,0.5-0.8c0-0.5,0.2-0.9,0.6-1.4c0.4-0.4,0.9-0.7,1.6-0.8c0.8-0.2,1.2-0.6,1.2-1.4
			c0-0.1,0-0.4-0.1-0.7l-0.1-0.6h-3.7c-2.5,0-3.7,0.1-3.7,0.3c0,0.2-0.1,0.3-0.3,0.3c-0.3,0-0.6,0.2-0.9,0.6
			c-0.4,0.5-0.4,0.7-0.2,0.7c0.3,0,0.5,0.1,0.5,0.4c0.1,0.3,0.5,0.4,1.1,0.4c0.6,0,1,0.2,1.1,0.7c0.1,0.5,0.1,0.7-0.1,0.8
			c-0.2,0.1-0.3,0.5-0.3,1.3c0,0.7-0.1,1.2-0.4,1.3c-0.2,0.1-0.3,0.3-0.3,0.7c0,0.1,0.1,0.2,0.1,0.4c0,0.5-0.1,0.9-0.3,1.4
			c-0.2,0.5-0.4,0.8-0.7,0.8c-0.4,0.1-0.5,0.4-0.5,0.9c0,0.5-0.1,0.9-0.3,1.1c-0.2,0.2-0.4,0.8-0.4,1.7c-0.1,1-0.3,1.5-0.6,1.5
			c-0.4,0-0.5,0.2-0.4,0.5c0,0.2,0,0.4,0,0.4c-0.1,0.1-0.2,0.1-0.4,0.1c-0.4,0-0.7-0.1-0.9-0.2c-0.5-0.3-0.7-1.2-0.8-2.9
			c0-0.7-0.1-1.2-0.4-1.4c-0.2-0.2-0.3-0.7-0.3-1.6c0-1.3-0.3-2.2-0.9-2.6c-0.2-0.1-0.2-0.3,0.1-0.4c0.1,0,0.2-0.2,0.3-0.4
			c0.1-0.2,0.1-0.5,0.1-0.7c0-0.2-0.1-0.3-0.2-0.3c-0.1,0-0.3-0.3-0.4-0.8c-0.1-0.6-0.4-0.9-0.7-0.9c-0.3-0.1-0.4-0.2-0.4-0.3
			c0-0.4,0.5-0.5,1.4-0.5c1.3,0,1.9-0.2,1.9-0.7c0-0.2,0.1-0.4,0.3-0.4c0.2,0,0.1-0.3-0.3-0.8c-0.4-0.5-0.9-0.8-1.6-0.8
			c-0.7,0-1.1-0.1-1.2-0.3c-0.1-0.1-0.3-0.1-0.7,0.1c-0.4,0.2-0.6,0.2-0.7-0.1c-0.2-0.2-0.3-0.3-0.4-0.1c-0.1,0.2-0.5,0.3-1.1,0.3
			c-0.4,0-0.6,0-0.8-0.1c-0.1-0.1-0.2-0.3-0.3-0.7c-0.1-0.5-0.3-0.8-0.7-0.8c-0.2,0-0.5,0.2-0.8,0.5c-0.4,0.4-0.7,0.5-1.2,0.5
			c-0.4,0-0.6,0.1-0.6,0.4c0,0.3-0.1,0.4-0.3,0.4c-0.2,0-0.3,0.2-0.3,0.6C240.6,80.1,240.7,80.3,240.9,80.3z"/>
		<path d="M143.5,783.9c0-0.3-0.1-0.5-0.2-0.6c-0.1-0.1-0.1-0.2,0-0.4c0.1-0.1,0.1-0.2,0.1-0.2c0-0.1-0.1-0.2-0.2-0.2
			c-0.1-0.1-0.2-0.2-0.2-0.3c0-0.2-0.1-0.3-0.3-0.5c-0.2-0.2-0.4-0.3-0.5-0.3c-0.1,0-0.2,0-0.2,0.1c0,0.1-0.3,0.1-0.9,0.2
			c-0.5,0.1-1.1,0.1-1.7,0.1c-0.6,0-0.9,0-1,0.1c-0.1,0-0.5,0.1-1.4,0.1c-0.9,0.1-1.8,0.2-2.7,0.3c-0.9,0.1-1.4,0.2-1.4,0.2
			c0,0,0,0.1,0,0.2c0,0.1,0,0.2,0.1,0.3c0.1,0.2,0.1,0.3,0.2,0.4c0.1,0,0.3,0.1,0.6,0.1c0.5,0,0.9,0.1,1,0.3
			c0.1,0.2,0.2,0.7,0.2,1.6c0,0.9-0.1,1.4-0.2,1.5c-0.1,0.1-0.1,0.2,0,0.4c0.1,0.3,0.2,0.5,0,0.7c-0.1,0.2-0.2,0.3-0.3,0.3
			c-0.1,0,0,0.1,0.1,0.2c0.1,0.1,0.1,0.3,0.1,0.6c0,0.1,0,0.4-0.1,0.8c-0.1,1.4-0.2,2.3-0.2,2.6c-0.1,0.4-0.1,0.5-0.3,0.6
			c-0.2,0.1-0.5,0.3-0.8,0.6l-0.5,0.6h5v-0.5c0-0.2,0-0.4-0.1-0.4c0-0.1-0.1-0.1-0.3-0.1c-0.2,0-0.4,0-0.4-0.1s-0.1-0.1-0.2-0.1
			c-0.1,0-0.2-0.1-0.3-0.3c0-0.1,0-0.4,0-1.2c0-1.2,0-2.1,0.1-2.8c0-0.1,0.5-0.1,1.4-0.1c0.8,0,1.3,0.1,1.5,0.2
			c0.3,0.1,0.4,0.4,0.4,0.9c0,0.3,0,0.5,0.1,0.5c0.1,0,0.1-0.1,0.3-0.2c0.1-0.1,0.3-0.2,0.5-0.1c0.2,0.1,0.3,0,0.3-0.2
			c0-0.2,0-0.3,0.1-0.4c0.1-0.1,0.1-0.2,0-0.2c-0.1-0.1-0.2-0.3-0.2-0.6c0-0.4,0.1-0.7,0.2-0.8c0.1-0.1,0.1-0.1,0.1-0.2
			c0-0.1,0-0.1-0.1-0.2c-0.1-0.1-0.1-0.2-0.1-0.2c0-0.1,0-0.1,0.1-0.2c0.2-0.1,0.2-0.2,0.2-0.4c0-0.3-0.4-0.4-1.1-0.4
			c-0.4,0-0.6,0.2-0.6,0.5c0,0.1,0,0.2,0.1,0.3c0.1,0.2,0,0.4,0,0.5c-0.1,0.1-0.4,0.2-1,0.3c-0.6,0.1-1.1,0.2-1.6,0.2h-0.5v-0.6
			c0-0.4,0.1-0.6,0.2-0.7c0.1-0.1,0.2-0.2,0.2-0.4c0-0.3-0.1-0.5-0.2-0.8c-0.1-0.2-0.2-0.4-0.2-0.4c0-0.1,0.1-0.1,0.2-0.3
			c0.2-0.2,0.3-0.4,0.2-0.6c0-0.1,0-0.1,0-0.2c0-0.1,0.1-0.2,0.4-0.3c0.3-0.1,0.8-0.1,1.6-0.1c0.7,0,1.1-0.1,1.1-0.1
			c0.3,0,0.5,0.1,0.7,0.2c0.2,0.2,0.3,0.3,0.5,0.4c0.2,0.1,0.3,0.2,0.3,0.3c0,0.1,0.1,0.3,0.3,0.4c0.2,0.1,0.4,0.3,0.5,0.6
			c0.1,0.4,0.4,0.5,0.8,0.5c0.1,0,0.2,0,0.3-0.1c0.1-0.1,0.2-0.2,0.2-0.6c0-0.3-0.1-0.5-0.2-0.5
			C143.6,784.4,143.5,784.2,143.5,783.9z"/>
		<path d="M156.8,782c-0.1-0.1-0.7-0.1-1.8-0.1c-1,0-1.5,0-1.5,0.1c0,0.1-0.2,0.1-0.5,0.1c-0.3,0-0.5,0.1-0.5,0.2
			c0,0.1,0,0.2-0.1,0.2c-0.1,0-0.1,0.1-0.1,0.3c0,0.3,0.1,0.4,0.2,0.5c0.1,0.1,0.2,0.5,0.2,1.3c0,0.8,0,1.2,0.1,1.3
			c0.1,0,0.1,0.4,0.1,1.1c0,0.7,0,1-0.1,1.1c-0.1,0-0.2,0.8-0.2,2.2c0,1.2-0.1,2-0.2,2.2c-0.1,0.2-0.4,0.4-0.9,0.5
			c-0.3,0-0.5,0.1-0.5,0.1c-0.1,0.1-0.1,0.2-0.1,0.4c0,0.3,0.1,0.5,0.2,0.5c0.2,0,0.3,0.1,0.5,0.2c0.2,0.2,0.3,0.2,0.3,0.1
			c0.1-0.1,0.8-0.2,2.1-0.2c1.1,0,1.6,0.1,1.6,0.2c0,0.1,0.1,0.1,0.3,0.1c0.2,0,0.3,0,0.3-0.1c0-0.1,0.1-0.2,0.3-0.3
			c0.2-0.1,0.3-0.2,0.3-0.3c0-0.5-0.4-0.7-1-0.8L155,793l0.1-3.5c0-2.3,0.1-3.5,0.2-3.6c0.1-0.1,0.1-0.4,0.1-1
			c0.1-1.1,0.2-1.6,0.4-1.6c0.1,0,0.2,0,0.2-0.1c0-0.1,0.1-0.2,0.4-0.2c0.2,0,0.4-0.1,0.5-0.2c0.1-0.1,0.2-0.2,0.2-0.4
			C157.1,782.3,157,782.1,156.8,782z M153.3,790.9c-0.1,0-0.2,0-0.2-0.1c0-0.1,0.1-0.1,0.2-0.1c0.1,0,0.2,0,0.2,0.1
			C153.5,790.9,153.5,790.9,153.3,790.9z M154.2,787.1c-0.1,0-0.2-0.1-0.2-0.3c0-0.2,0.1-0.3,0.2-0.3c0.1,0,0.2,0.1,0.2,0.3
			C154.4,787,154.3,787.1,154.2,787.1z"/>
		<path d="M176.1,781h-2c-1.3,0-2,0-2,0.1c0,0.1-0.1,0.2-0.2,0.2c-0.1,0-0.3,0.1-0.5,0.4c-0.2,0.2-0.2,0.4-0.1,0.4
			c0.1,0,0.2,0.1,0.3,0.2c0.1,0.1,0.2,0.2,0.6,0.2c0.2,0,0.3,0,0.4,0.1c0.1,0.1,0.1,0.2,0.2,0.3c0.1,0.2,0,0.4-0.1,0.4
			c-0.1,0-0.2,0.3-0.2,0.6c0,0.4-0.1,0.6-0.2,0.7c-0.2,0.1-0.2,0.2-0.2,0.4c0,0,0,0.1,0,0.2c0,0.3-0.1,0.5-0.2,0.8
			c-0.1,0.3-0.2,0.4-0.4,0.5c-0.2,0.1-0.3,0.2-0.3,0.5c0,0.3,0,0.5-0.1,0.6c-0.1,0.1-0.2,0.4-0.2,0.9c-0.1,0.5-0.2,0.8-0.3,0.8
			c-0.1,0-0.2,0.1-0.2,0.2v0.2c0,0.1-0.1,0.2-0.2,0.2c-0.2,0-0.4,0-0.5-0.1c-0.2-0.2-0.4-0.7-0.4-1.5c0-0.3-0.1-0.5-0.2-0.8
			c-0.1-0.2-0.2-0.5-0.2-0.9c0-0.8-0.2-1.2-0.5-1.4c-0.1-0.1-0.1-0.1,0-0.2c0.1-0.1,0.2-0.2,0.2-0.5c0-0.2,0-0.3-0.1-0.3
			c-0.1,0-0.1-0.1-0.2-0.4c-0.1-0.3-0.2-0.4-0.4-0.5c-0.2-0.1-0.2-0.1-0.2-0.2c0-0.2,0.2-0.3,0.7-0.3c0.7,0,1.1-0.1,1.1-0.4
			c0-0.1,0.1-0.2,0.2-0.2c0.1,0,0.1-0.1-0.2-0.4c-0.2-0.3-0.5-0.4-0.8-0.4c-0.4,0-0.6-0.1-0.6-0.2c-0.1-0.1-0.2-0.1-0.4,0.1
			c-0.2,0.1-0.3,0.1-0.4,0c-0.1-0.1-0.2-0.2-0.2,0c-0.1,0.1-0.3,0.2-0.6,0.2c-0.2,0-0.3,0-0.4-0.1c-0.1-0.1-0.1-0.2-0.2-0.4
			c-0.1-0.3-0.2-0.4-0.4-0.4c-0.1,0-0.3,0.1-0.5,0.3c-0.2,0.2-0.4,0.3-0.6,0.3c-0.2,0-0.3,0.1-0.3,0.2c0,0.1,0,0.2-0.1,0.2
			c-0.1,0-0.1,0.1-0.1,0.4c0,0.2,0,0.4,0.1,0.4c0.1,0,0.1,0.1,0.1,0.2c0,0.1,0.2,0.2,0.5,0.3c0.3,0.1,0.6,0.2,0.8,0.5
			c0.2,0.3,0.4,0.6,0.4,0.9c0,0.3,0.1,0.5,0.2,0.9c0.1,0.3,0.2,0.5,0.3,0.5c0.1,0,0.1,0.2,0.1,0.5c0,0.3,0.1,0.5,0.3,0.7
			c0.2,0.2,0.3,0.5,0.4,1c0.1,0.5,0.2,0.9,0.2,1.4c0,0.5,0.1,0.7,0.2,0.8c0.1,0,0.2,0.1,0.1,0.3c0,0.2,0,0.3,0.1,0.4
			c0.1,0.1,0.2,0.4,0.2,0.9c0,0.5,0.1,0.8,0.2,0.8c0.1,0,0.2,0.2,0.3,0.6c0.1,0.4,0.2,0.6,0.3,0.6c0.1,0,0.2,0.1,0.3,0.4
			c0.1,0.4,0.3,0.6,0.7,0.6c0.1,0,0.2,0,0.3-0.1c0.2,0,0.3-0.1,0.3-0.1c0-0.1,0.1-0.2,0.1-0.4c0-0.3,0.1-0.5,0.2-0.5
			c0.1,0,0.1-0.2,0.1-0.5c0-0.3,0.1-0.5,0.2-0.5c0.1-0.1,0.2-0.3,0.2-0.8c0-0.5,0.1-0.8,0.4-1.1c0.1-0.1,0.2-0.2,0.4-0.3
			c0.2-0.1,0.3-0.2,0.3-0.3c0.1-0.1,0.1-0.3,0.1-0.6c0-0.4,0.1-0.6,0.2-0.8c0.1-0.1,0.2-0.3,0.3-0.8c0.1-0.5,0.2-0.7,0.3-0.8
			c0.1-0.1,0.2-0.3,0.2-0.5c0-0.2,0.1-0.4,0.4-0.4c0.1,0,0.1,0,0.2,0c0.1,0,0.1,0,0.1-0.1c0,0,0-0.1,0.1-0.1c0,0,0-0.1,0-0.1
			c0-0.1,0-0.3,0-0.5c0-0.6,0.1-0.8,0.3-0.8c0.2,0,0.3-0.1,0.3-0.4c0-0.3,0.1-0.5,0.4-0.7c0.2-0.2,0.5-0.4,0.8-0.4
			c0.4-0.1,0.7-0.3,0.7-0.8c0-0.1,0-0.2-0.1-0.4L176.1,781z"/>
		<path d="M193.5,790.2c-0.1,0-0.3,0.2-0.5,0.5c-0.3,0.3-0.4,0.6-0.4,0.7c0,0.1-0.1,0.2-0.4,0.2c-0.1,0-0.2,0-0.3,0.1
			c0,0-0.1,0.1-0.1,0.1c0,0,0,0.1,0,0.3c0,0.2-0.1,0.3-0.4,0.3c0,0-0.1,0-0.1,0c-0.1,0-0.1,0-0.2,0c-0.2,0-0.4,0.1-0.6,0.3
			c-0.2,0.2-0.4,0.3-0.6,0.3c-0.1,0-0.2-0.1-0.2-0.2c0-0.1-0.1-0.1-0.4,0c-0.2,0.1-0.6,0.2-1.2,0.2c-0.5,0-0.7,0-0.7-0.1
			c0-0.1-0.1-0.1-0.2-0.1c-0.1,0-0.1-0.1-0.2-0.2c-0.1-0.2-0.1-0.3-0.1-0.4c0-0.1,0-0.2,0-0.3c0-0.2,0-0.4,0-0.6c0-0.3,0-0.5,0-0.8
			c0-0.3,0-0.5,0-0.8c0-0.3,0-0.5,0-0.6v-0.2c0-0.1,0.4-0.1,1.3-0.1c0.7,0,1.2,0.1,1.4,0.2c0.2,0.1,0.4,0.4,0.4,0.8
			c0,0.2,0,0.3,0.1,0.3c0,0,0.1,0,0.2,0c0.1-0.1,0.3-0.1,0.5-0.1c0.1,0,0.2,0,0.3-0.1c0-0.1,0.1-0.2,0.1-0.5c0-0.1,0-0.2,0-0.3
			c0-0.2,0-0.3,0-0.4v-0.2c0-0.3,0-0.6,0.1-0.7c0.1-0.1,0.1-0.3,0-0.4c-0.1-0.1-0.1-0.3,0.1-0.4c0.1-0.1,0.2-0.2,0.2-0.4
			c0-0.3-0.3-0.4-1-0.4c-0.4,0-0.6,0.2-0.6,0.5c0,0.1,0,0.2,0.1,0.3c0,0.2,0,0.4,0,0.5c-0.1,0.1-0.3,0.2-0.9,0.3
			c-0.5,0.1-1,0.1-1.5,0.1h-0.6v-0.6c0-0.4,0.1-0.6,0.2-0.6c0.1,0,0.2-0.1,0.2-0.4c0-0.3-0.1-0.5-0.2-0.9c-0.1-0.2-0.2-0.4-0.1-0.4
			c0-0.1,0.1-0.1,0.2-0.3c0.2-0.1,0.3-0.3,0.2-0.5c0,0,0-0.1,0-0.2c0-0.1,0.1-0.3,0.4-0.3c0.3-0.1,0.7-0.1,1.5-0.2
			c0.7,0,1.1-0.1,1.1-0.1c0.3,0,0.5,0.1,0.6,0.2c0.1,0.2,0.3,0.3,0.5,0.4c0.2,0.1,0.3,0.2,0.3,0.3c0,0.1,0.1,0.2,0.3,0.3
			c0.2,0.1,0.3,0.2,0.3,0.3c0,0.2,0.1,0.3,0.3,0.5c0.2,0.2,0.4,0.2,0.6,0.2h0c0.3,0,0.4-0.2,0.4-0.6c0-0.2-0.1-0.3-0.2-0.5
			c-0.1-0.1-0.2-0.3-0.2-0.5c0-0.3-0.1-0.5-0.2-0.5c-0.1,0-0.1-0.1,0-0.4c0.1-0.1,0.1-0.2,0.1-0.3c0,0-0.1-0.1-0.1-0.1
			c-0.1-0.1-0.2-0.2-0.2-0.3c0-0.1-0.1-0.3-0.3-0.5c-0.2-0.2-0.4-0.3-0.6-0.1c-0.3,0.1-1.8,0.3-4.7,0.4h-0.7c-1.5,0-2.2-0.1-2.3-0.3
			c0-0.1-0.1-0.1-0.2-0.1c-0.1,0-0.2,0-0.2,0.1l0,0.1c0,0.1,0,0.1,0,0.1c0,0,0,0.1,0,0.2c0,0.1,0,0.2,0,0.2c0,0.2-0.1,0.3-0.3,0.3
			c-0.2,0.1-0.3,0.2-0.2,0.5c0.1,0.2,0.1,0.4,0.2,0.5c0.1,0.1,0.2,0.1,0.3,0.1c0.1,0,0.3,0,0.4,0c0.1,0,0.2,0,0.4,0
			c0.3,0,0.5,0.1,0.6,0.4c0.1,0.2,0.1,0.7,0.1,1.4c0,0.9-0.1,1.4-0.2,1.4c-0.1,0-0.1,0.2,0,0.4c0.1,0.2,0.1,0.4,0,0.6
			c-0.1,0.2-0.2,0.3-0.3,0.3c-0.1,0-0.1,0.1,0.1,0.2c0.1,0.1,0.1,0.3,0.1,0.6c0,0.5-0.1,1.5-0.2,2.8l-0.1,0.9h-0.6
			c-0.4,0-0.6,0.1-0.6,0.3c0,0.2-0.1,0.3-0.3,0.3c-0.1,0-0.2,0.1-0.2,0.3c0,0.3,0.1,0.5,0.3,0.6c0.2,0.1,0.3,0.2,0.3,0.4
			c0,0.1,0.2,0.1,0.7,0.1c0.5,0,0.8-0.1,0.9-0.3c0.1-0.1,0.5-0.2,1.2-0.2c0.5,0,0.9,0,1.3,0c0.7,0,1.1,0.1,1.2,0.2
			c0,0.1,0.2,0.1,0.4,0c0.2-0.1,0.7-0.2,1.5-0.2c0.8,0,1.3,0,1.5-0.1c0.2,0,0.3-0.1,0.5-0.3c0.2-0.2,0.3-0.3,0.2-0.5
			c0-0.2,0-0.3,0.1-0.4c0.1-0.1,0.2-0.3,0.2-0.8c0-0.3,0-0.5,0-0.6c0-0.1,0.1-0.1,0.2-0.1c0.2,0,0.3-0.2,0.3-0.5
			c0-0.2-0.1-0.4-0.2-0.6C193.8,790.3,193.6,790.2,193.5,790.2z"/>
		<path d="M183.4,792c0.1-0.2,0.1-0.3,0-0.3c-0.1,0-0.2,0.1-0.2,0.2c0,0.1,0,0.2,0.1,0.2C183.4,792.1,183.4,792.1,183.4,792z"/>
		<path d="M225.4,785.7c-0.2-0.1-0.2-0.2-0.2-0.5c0-0.3,0-0.5-0.1-0.5c-0.1,0-0.1-0.1-0.1-0.4s-0.1-0.4-0.2-0.4
			c-0.1,0-0.2-0.1-0.3-0.3c-0.1-0.2-0.2-0.3-0.3-0.4c-0.1-0.1-0.2-0.2-0.2-0.4c0-0.2-0.1-0.3-0.4-0.3c-0.7,0-1-0.1-1-0.4
			c0-0.1-0.1-0.2-0.2-0.2c-0.1,0-0.2,0-0.2-0.1s-0.1-0.1-0.3-0.1c-0.2,0-0.3-0.1-0.4-0.2c0-0.1-0.5-0.2-1.5-0.2
			c-0.9,0-1.5,0.1-1.6,0.2c-0.1,0.1-0.2,0.2-0.4,0.2c-0.2,0-0.3,0.1-0.4,0.3c-0.1,0.2-0.3,0.4-0.6,0.4c-0.3,0-0.6,0.1-1.1,0.2
			c-0.5,0.1-0.7,0.3-0.8,0.5c0,0.2-0.2,0.4-0.5,0.7s-0.4,0.5-0.4,0.5c0,0.1-0.1,0.1-0.2,0.1c-0.1,0-0.2,0.1-0.3,0.4
			c-0.1,0.2-0.2,0.5-0.3,0.7c-0.2,0.3-0.2,0.8-0.2,1.8c0,1.2,0.1,2.1,0.4,2.9c0.5,1.4,0.9,2.2,1.2,2.3c0.2,0,0.3,0.1,0.3,0.3
			c0,0.2,0.2,0.2,0.4,0.2c0.2,0,0.4,0,0.4,0.1c0,0.1,0.1,0.1,0.3,0.1s0.3,0.1,0.3,0.4c0,0.2,0,0.3,0.1,0.4c0.1,0.1,0.2,0,0.4-0.1
			c0.1-0.1,0.2-0.1,0.3,0c0.2,0.1,0.9,0.2,2.2,0.2c1.1,0,1.7-0.1,1.7-0.2c0-0.1,0.3-0.2,0.7-0.2c0.4,0,0.6-0.1,0.6-0.2
			c0-0.2,0.1-0.3,0.2-0.3c0,0,0.2-0.1,0.4-0.3c0.3-0.2,0.4-0.3,0.5-0.3c0.1,0,0.2-0.1,0.2-0.3c0.1-0.2,0.2-0.3,0.3-0.3
			c0.1,0,0.2-0.1,0.3-0.3c0-0.2,0.2-0.3,0.4-0.3c0.2-0.1,0.3-0.1,0.3-0.2c0-0.1,0.1-0.1,0.2-0.1c0.1,0,0.2-0.2,0.2-0.6
			c0-0.3,0-0.5-0.1-0.5c-0.1,0-0.1-0.1,0-0.2c0.1-0.1,0.2-0.8,0.2-2.1c0-0.3,0-0.7,0-1.1C225.6,786,225.6,785.7,225.4,785.7z
			 M223.2,788.8c-0.1,0-0.2,0.2-0.2,0.4c0,0.3-0.1,0.4-0.2,0.5c-0.1,0.1-0.2,0.4-0.3,0.8c-0.1,0.4-0.1,0.6-0.3,0.6
			c-0.1,0-0.2,0-0.2,0.1c0,0.1-0.1,0.2-0.4,0.2c-0.3,0.1-0.4,0.2-0.4,0.3c0,0.1,0,0.2-0.1,0.2c-0.1,0.1-0.2,0.1-0.4,0.2
			c-0.1,0.1-0.2,0.1-0.3,0.1c0,0.1-0.2,0.1-0.4,0.1c-0.2,0-0.3,0.1-0.5,0.2c-0.1,0.1-0.2,0.1-0.4,0.1c-0.2,0-0.4,0-0.7-0.1
			c-0.5-0.1-1-0.3-1.3-0.6c-0.3-0.3-0.7-0.8-1-1.5c-0.3-0.5-0.4-0.9-0.5-1.1c0-0.2-0.1-0.7-0.1-1.4c0-0.7,0-1.1,0.1-1.4
			c0-0.2,0.1-0.5,0.3-0.8c0.3-0.5,0.6-0.9,1-1.3c0.4-0.4,0.8-0.6,1-0.7c0.3,0,0.5-0.1,0.5-0.3c0-0.1,0.1-0.2,0.2-0.2
			c0.1,0,0.2,0,0.2-0.1c0-0.1,0.1-0.1,0.3-0.1c0.2,0,0.3,0,0.3,0.1c0,0.1,0.3,0.1,0.9,0.1c0.5,0,0.8,0.1,0.8,0.2
			c0,0.1,0.1,0.2,0.3,0.3c0.2,0.1,0.3,0.2,0.3,0.3c0,0.1,0.1,0.2,0.3,0.3c0.3,0.1,0.5,0.4,0.5,0.8c0,0.2,0.1,0.5,0.3,0.8
			c0.2,0.3,0.3,0.7,0.3,1.1c0,0.5,0,0.7,0.1,0.8c0.1,0.1,0.1,0.2,0.1,0.4C223.4,788.6,223.3,788.7,223.2,788.8z"/>
		<path d="M243.2,783.9c0-0.3-0.1-0.5-0.2-0.6c-0.1-0.1-0.1-0.2,0-0.4c0.1-0.1,0.1-0.2,0.1-0.2c0-0.1-0.1-0.2-0.2-0.2
			c-0.1-0.1-0.2-0.2-0.2-0.3c0-0.2-0.1-0.3-0.3-0.5c-0.2-0.2-0.4-0.3-0.5-0.3c-0.1,0-0.2,0-0.2,0.1c0,0.1-0.3,0.1-0.9,0.2
			c-0.5,0.1-1.1,0.1-1.7,0.1c-0.6,0-0.9,0-1,0.1c-0.1,0-0.5,0.1-1.4,0.1c-0.9,0.1-1.8,0.2-2.7,0.3c-0.9,0.1-1.4,0.2-1.4,0.2
			c0,0,0,0.1,0,0.2c0,0.1,0,0.2,0.1,0.3c0.1,0.2,0.1,0.3,0.2,0.4c0.1,0,0.3,0.1,0.6,0.1c0.5,0,0.9,0.1,1,0.3
			c0.1,0.2,0.2,0.7,0.2,1.6c0,0.9-0.1,1.4-0.2,1.5c-0.1,0.1-0.1,0.2,0,0.4c0.1,0.3,0.2,0.5,0,0.7c-0.1,0.2-0.2,0.3-0.3,0.3
			c-0.1,0,0,0.1,0.1,0.2c0.1,0.1,0.1,0.3,0.1,0.6c0,0.1,0,0.4-0.1,0.8c-0.1,1.4-0.2,2.3-0.2,2.6c-0.1,0.4-0.1,0.5-0.3,0.6
			c-0.2,0.1-0.5,0.3-0.8,0.6l-0.5,0.6h5v-0.5c0-0.2,0-0.4-0.1-0.4c0-0.1-0.1-0.1-0.3-0.1c-0.2,0-0.4,0-0.4-0.1s-0.1-0.1-0.2-0.1
			s-0.2-0.1-0.3-0.3c0-0.1,0-0.4,0-1.2c0-1.2,0-2.1,0.1-2.8c0-0.1,0.5-0.1,1.4-0.1c0.8,0,1.3,0.1,1.5,0.2c0.3,0.1,0.4,0.4,0.4,0.9
			c0,0.3,0,0.5,0.1,0.5c0.1,0,0.1-0.1,0.3-0.2c0.1-0.1,0.3-0.2,0.5-0.1c0.2,0.1,0.3,0,0.3-0.2c0-0.2,0-0.3,0.1-0.4
			c0.1-0.1,0.1-0.2,0-0.2c-0.1-0.1-0.2-0.3-0.2-0.6c0-0.4,0.1-0.7,0.2-0.8c0.1-0.1,0.1-0.1,0.1-0.2c0-0.1,0-0.1-0.1-0.2
			c-0.1-0.1-0.1-0.2-0.1-0.2c0-0.1,0-0.1,0.1-0.2c0.2-0.1,0.2-0.2,0.2-0.4c0-0.3-0.4-0.4-1.1-0.4c-0.4,0-0.6,0.2-0.6,0.5
			c0,0.1,0,0.2,0.1,0.3c0.1,0.2,0,0.4,0,0.5c-0.1,0.1-0.4,0.2-1,0.3c-0.6,0.1-1.1,0.2-1.6,0.2h-0.5v-0.6c0-0.4,0.1-0.6,0.2-0.7
			c0.1-0.1,0.2-0.2,0.2-0.4c0-0.3-0.1-0.5-0.2-0.8c-0.1-0.2-0.2-0.4-0.2-0.4c0-0.1,0.1-0.1,0.2-0.3c0.2-0.2,0.3-0.4,0.2-0.6
			c0-0.1,0-0.1,0-0.2c0-0.1,0.1-0.2,0.4-0.3c0.3-0.1,0.8-0.1,1.6-0.1c0.7,0,1.1-0.1,1.1-0.1c0.3,0,0.5,0.1,0.7,0.2
			c0.2,0.2,0.3,0.3,0.5,0.4c0.2,0.1,0.3,0.2,0.3,0.3c0,0.1,0.1,0.3,0.3,0.4c0.2,0.1,0.4,0.3,0.5,0.6c0.1,0.4,0.4,0.5,0.8,0.5
			c0.1,0,0.2,0,0.3-0.1c0.1-0.1,0.2-0.2,0.2-0.6c0-0.3-0.1-0.5-0.2-0.5C243.3,784.4,243.2,784.2,243.2,783.9z"/>
		<path d="M271.6,790.5c0-0.6-0.1-0.9-0.2-1.1c-0.1-0.2-0.3-0.4-0.6-0.5c-0.3-0.1-0.5-0.3-0.5-0.4c-0.1-0.1-0.3-0.3-0.9-0.6
			c-0.5-0.3-1-0.5-1.3-0.6c-0.2-0.1-0.5-0.2-0.9-0.5c-0.4-0.3-0.6-0.4-0.6-0.5c0-0.1-0.1-0.2-0.2-0.3c-0.2-0.1-0.2-0.2-0.2-0.3
			c0,0,0-0.1,0-0.1c0.1-0.1,0.1-0.2,0.1-0.3s0-0.3-0.1-0.6c0-0.1,0-0.2,0-0.2c0,0,0.2-0.1,0.3-0.1c0.3,0,0.4-0.1,0.4-0.2
			c0-0.1,0.1-0.2,0.4-0.4c0.3-0.2,0.4-0.3,0.4-0.3c0-0.1,0.1-0.1,0.4-0.2c0.1,0,0.1,0,0.2,0c0.4,0,0.8,0.2,1.2,0.5
			c0.5,0.3,0.7,0.6,0.7,0.9c0,0.2,0.1,0.4,0.3,0.5c0.2,0.1,0.3,0.3,0.3,0.4c0,0.1,0.1,0.3,0.2,0.5s0.3,0.3,0.4,0.3c0,0,0,0,0.1,0
			c0.1-0.1,0.1-0.7,0.2-2v-0.8c0-0.6-0.1-0.9-0.2-0.9c-0.1,0-0.1,0-0.1,0c-0.3,0.1-0.6,0.2-0.8,0.2c-0.3,0-0.6-0.1-1-0.3
			c-0.4-0.2-0.6-0.3-0.7-0.3c0,0-0.1,0-0.2,0.1c-0.3,0.1-0.6,0.1-0.8,0.1c-0.3,0-0.4,0-0.5,0.1c0,0.1-0.1,0.2-0.3,0.2
			c-0.2,0-0.4-0.1-0.5-0.2c-0.1-0.1-0.3-0.2-0.5-0.2h0c-0.1,0-0.1,0-0.1,0c-0.1,0-0.1,0-0.1,0c0,0,0.1,0,0.1,0
			c0.1,0.1,0.2,0.1,0.2,0.2c0,0.2-0.2,0.3-0.5,0.4c-0.3,0.1-0.4,0.2-0.4,0.4c0.1,0.2,0,0.3-0.2,0.4c-0.3,0.1-0.6,0.5-1.1,1.1
			c-0.1,0.2-0.2,0.4-0.2,0.6c0,0,0,0.3,0.1,0.8c0.1,0.7,0.3,1.1,0.4,1.3c0.1,0.2,0.4,0.4,0.7,0.7c0.4,0.3,0.6,0.4,0.8,0.4
			c0.1,0,0.3,0.1,0.6,0.4c0.4,0.3,0.9,0.6,1.7,0.8c0.5,0.1,0.8,0.3,1.1,0.6c0.2,0.2,0.3,0.4,0.5,0.7c0.1,0.3,0.2,0.5,0.2,0.7
			c0,0.1,0,0.1-0.1,0.2c-0.1,0-0.1,0.2-0.1,0.4c0.1,0.2,0,0.4-0.2,0.6c-0.1,0.1-0.2,0.3-0.2,0.4c0,0.2-0.5,0.4-1.4,0.5
			c-0.1,0-0.3,0-0.6,0c-0.9,0-1.7-0.4-2.2-1.2c-0.3-0.4-0.5-0.8-0.5-1c0,0,0-0.1,0-0.2c0-0.1,0-0.2,0-0.2c0,0-0.1-0.1-0.1-0.1
			c-0.1,0-0.1,0-0.1-0.1c0.1-0.3-0.1-0.5-0.4-0.6c-0.1,0-0.2-0.1-0.3-0.1c-0.3,0-0.4,0.2-0.5,0.5c-0.1,1.2-0.1,1.9-0.2,1.9
			c-0.1,0.1-0.1,0.4-0.2,0.8c0,0.1,0,0.3,0,0.4c0,0.2,0.1,0.4,0.3,0.6c0.1,0.1,0.2,0.2,0.3,0.2c0,0,0.1,0,0.2-0.2
			c0.1-0.2,0.2-0.3,0.2-0.4c0-0.3,0.2-0.3,0.5-0.1c0.9,0.5,1.8,0.7,2.9,0.7c0.5,0,1.1-0.1,1.6-0.2c0.6-0.1,1.1-0.3,1.4-0.6
			c0.3-0.3,0.5-0.5,0.5-0.5c0-0.1,0.1-0.2,0.2-0.3c0.2-0.1,0.3-0.4,0.3-0.9c0.1-0.5,0.1-0.7,0.2-0.7s0.1,0,0-0.1
			C271.7,791.5,271.7,791.2,271.6,790.5z M267.3,788.9C267.2,788.9,267.2,788.9,267.3,788.9c-0.1-0.1-0.1-0.1,0-0.1
			S267.3,788.8,267.3,788.9C267.3,788.9,267.3,788.9,267.3,788.9z"/>
		<path d="M265.8,789.7c0-0.1,0-0.2-0.1-0.2c-0.1,0-0.1,0-0.1,0.1l0.1,0.2C265.7,789.9,265.8,789.9,265.8,789.7z"/>
		<path d="M294.4,782.4c-0.1,0-0.3,0-0.5,0c-0.2,0-0.4,0-0.4,0c-0.4,0-0.6,0-0.7,0.1c-0.1,0-0.3,0.1-0.4,0.3
			c-0.2,0.2-0.3,0.3-0.3,0.4c0,0.1,0,0.1,0.2,0.2c0.3,0.2,0.5,0.2,0.7,0.2c0.3,0,0.4,0.1,0.5,0.3c0.1,0.2,0,0.3-0.1,0.4
			c-0.1,0-0.2,0.2-0.2,0.6c0,0.4-0.1,0.6-0.2,0.6c-0.2,0.1-0.2,0.2-0.2,0.4v0.4c0,0.6-0.1,0.9-0.3,0.9c-0.1,0-0.2,0.1-0.3,0.3
			c0,0.2-0.1,0.7-0.3,1.5c-0.1,0.4-0.2,0.6-0.4,0.6c-0.1,0-0.2,0.1-0.2,0.2c0,0.1,0,0.2-0.2,0.2c-0.3,0-0.4-0.1-0.5-0.2
			c-0.1-0.2-0.2-0.5-0.3-0.9c-0.1-0.4-0.2-1-0.2-1.7c-0.1-0.5-0.2-0.8-0.3-0.9c-0.1-0.1-0.1-0.4-0.1-0.7c0-0.3,0-0.5-0.1-0.5
			c-0.1,0-0.1-0.1-0.1-0.4c0-0.2-0.1-0.4-0.2-0.5c-0.1-0.1-0.2-0.1-0.2-0.2c0-0.1,0.2-0.2,0.6-0.2c0.4,0,0.7-0.1,0.9-0.3
			c0.1-0.1,0.2-0.2,0.2-0.3c0-0.1,0-0.2-0.1-0.4c-0.1-0.2-0.3-0.4-0.6-0.5c-0.3-0.1-0.8-0.1-1.6-0.1c-0.6,0-1-0.1-1-0.3
			c-0.1-0.2-0.1-0.3-0.2-0.3c-0.1,0-0.2,0.1-0.5,0.3c-0.3,0.2-0.4,0.3-0.5,0.3c-0.3,0-0.5,0.2-0.6,0.6v0.1l0,0.1
			c0,0.3,0.3,0.6,0.9,0.7c0.1,0,0.3,0.1,0.4,0.1c0.1,0.1,0.1,0.2,0.1,0.2s-0.1,0.1-0.2,0.1c-0.1,0-0.1,0.2-0.1,0.6
			c0,0.4-0.1,0.6-0.2,0.6c-0.1,0-0.1,0.2-0.1,0.5c0,0.7-0.2,1.1-0.5,1.2c-0.1,0-0.2,0.1-0.3,0.3c-0.1,0.2-0.1,0.7-0.3,1.5
			c-0.1,0.4-0.2,0.6-0.4,0.6c-0.2,0-0.2,0.1-0.2,0.2c0,0.1,0,0.2-0.2,0.2c-0.3,0-0.5-0.1-0.6-0.2c-0.1-0.2-0.2-0.5-0.2-0.9
			c0-0.6-0.1-0.9-0.2-1c-0.1-0.1-0.1-0.3-0.1-0.6c0-0.4-0.1-0.7-0.2-0.9c-0.1-0.3-0.2-0.5-0.1-0.8c0-0.3,0-0.5-0.1-0.5
			c-0.1,0-0.2-0.1-0.2-0.4c0-0.2-0.1-0.4-0.2-0.5c-0.1-0.1-0.2-0.1-0.2-0.2c0-0.1,0.2-0.2,0.6-0.2c0.4,0,0.7-0.1,0.9-0.3
			c0.1-0.1,0.2-0.2,0.2-0.3c0-0.1-0.1-0.2-0.2-0.4c-0.1-0.2-0.2-0.3-0.4-0.4c-0.2-0.1-0.5-0.1-0.9-0.1c-0.1,0-0.2,0-0.4,0
			c-0.2,0-0.4,0-0.5,0h-0.4c-0.3,0-0.4,0-0.5-0.1c-0.1,0-0.1-0.1-0.2-0.3c-0.1-0.2-0.1-0.4-0.3-0.4c-0.1,0-0.2,0.1-0.5,0.3
			s-0.4,0.3-0.5,0.3c-0.1,0-0.3,0.1-0.4,0.2c-0.1,0.1-0.2,0.3-0.2,0.4c0,0.4,0.3,0.7,0.9,0.8c0.5,0.1,0.9,0.6,1,1.6
			c0.1,0.4,0.2,0.6,0.3,0.8c0.1,0.1,0.2,0.4,0.2,0.7c0,0.3,0.1,0.5,0.2,0.6c0.4,0.4,0.5,1.1,0.5,1.9c0,0.4,0,0.6,0.1,0.7
			c0.1,0.1,0.1,0.2,0.1,0.4c0,0.2,0,0.3,0.1,0.4c0.1,0.1,0.2,0.3,0.2,0.8c0,0.4,0.1,0.6,0.2,0.6c0.1,0,0.2,0.2,0.2,0.5
			c0,0.3,0.1,0.5,0.2,0.5c0.1,0,0.2,0.1,0.3,0.4c0.1,0.3,0.3,0.5,0.6,0.5c0.1,0,0.3-0.1,0.4-0.2c0.1-0.1,0.2-0.3,0.2-0.4
			c0-0.3,0-0.4,0.1-0.4c0.1,0,0.2-0.1,0.2-0.4c0-0.3,0-0.5,0.1-0.5c0.1,0,0.2-0.2,0.2-0.5c0-0.3,0.1-0.6,0.3-0.9
			c0.2-0.3,0.4-0.5,0.6-0.6c0.2-0.1,0.3-0.3,0.3-0.6c0-0.4,0.1-0.6,0.2-0.6c0.1,0,0.2-0.2,0.2-0.5c0-0.3,0.1-0.6,0.2-0.8
			c0.1-0.2,0.2-0.4,0.1-0.5c-0.1-0.2,0.1-0.3,0.4-0.4c0.3-0.1,0.4-0.2,0.5-0.3c0.1,0,0.1,0.1,0.1,0.4c0,0.4,0.1,0.6,0.2,0.8
			c0.4,0.5,0.6,1.1,0.6,1.9c0,0.4,0,0.6,0.1,0.6c0.1,0,0.1,0.1,0.1,0.4c-0.1,0.2,0,0.4,0.1,0.5c0.1,0.1,0.2,0.3,0.2,0.8
			c0,0.4,0.1,0.6,0.2,0.6c0.2,0,0.2,0.2,0.2,0.5c0,0.3,0.1,0.5,0.2,0.5c0.1,0,0.2,0.1,0.3,0.4c0.1,0.3,0.3,0.5,0.6,0.5
			c0.1,0,0.3-0.1,0.4-0.2c0.1-0.1,0.2-0.3,0.2-0.4c0-0.3,0.1-0.4,0.2-0.4c0.1,0,0.1-0.1,0.1-0.4c0-0.3,0-0.5,0.1-0.5
			c0.1,0,0.2-0.2,0.2-0.5c0-0.3,0.1-0.6,0.3-1c0.2-0.4,0.4-0.6,0.5-0.6c0.1,0,0.2-0.2,0.2-0.6c0-0.5,0.1-0.7,0.2-0.7
			c0.1,0,0.2-0.2,0.2-0.5c0-0.3,0.1-0.6,0.2-0.8c0.1-0.2,0.2-0.4,0.2-0.6c0-0.1,0.1-0.2,0.4-0.3c0.3-0.1,0.4-0.2,0.4-0.3
			c0-0.1,0-0.1,0-0.2c0-0.1,0-0.1,0-0.2c0-0.6,0.1-0.9,0.3-0.9c0.1,0,0.1-0.1,0.2-0.4c0-0.3,0.1-0.4,0.2-0.4c0.1,0,0.2-0.1,0.2-0.2
			c0-0.1,0.1-0.2,0.4-0.2c0.3,0,0.5-0.1,0.6-0.2c0.1-0.1,0.2-0.3,0.2-0.6l0-0.4L294.4,782.4z"/>
		<path d="M315.4,785.7c-0.2-0.1-0.2-0.2-0.2-0.5c0-0.3,0-0.5-0.1-0.5c-0.1,0-0.1-0.1-0.1-0.4s-0.1-0.4-0.2-0.4
			c-0.1,0-0.2-0.1-0.3-0.3c-0.1-0.2-0.2-0.3-0.3-0.4c-0.1-0.1-0.2-0.2-0.2-0.4c0-0.2-0.1-0.3-0.4-0.3c-0.7,0-1-0.1-1-0.4
			c0-0.1-0.1-0.2-0.2-0.2c-0.1,0-0.2,0-0.2-0.1s-0.1-0.1-0.3-0.1c-0.2,0-0.3-0.1-0.4-0.2c0-0.1-0.5-0.2-1.5-0.2
			c-0.9,0-1.5,0.1-1.6,0.2c-0.1,0.1-0.2,0.2-0.4,0.2c-0.2,0-0.3,0.1-0.4,0.3c-0.1,0.2-0.3,0.4-0.6,0.4c-0.3,0-0.6,0.1-1.1,0.2
			c-0.5,0.1-0.7,0.3-0.8,0.5c0,0.2-0.2,0.4-0.5,0.7c-0.3,0.3-0.4,0.5-0.4,0.5c0,0.1-0.1,0.1-0.2,0.1c-0.1,0-0.2,0.1-0.3,0.4
			c-0.1,0.2-0.2,0.5-0.3,0.7c-0.2,0.3-0.2,0.8-0.2,1.8c0,1.2,0.1,2.1,0.4,2.9c0.5,1.4,0.9,2.2,1.2,2.3c0.2,0,0.3,0.1,0.3,0.3
			c0,0.2,0.2,0.2,0.4,0.2c0.2,0,0.4,0,0.4,0.1c0,0.1,0.1,0.1,0.3,0.1c0.2,0,0.3,0.1,0.3,0.4c0,0.2,0,0.3,0.1,0.4
			c0.1,0.1,0.2,0,0.4-0.1c0.1-0.1,0.2-0.1,0.3,0c0.2,0.1,0.9,0.2,2.2,0.2c1.1,0,1.7-0.1,1.7-0.2c0-0.1,0.3-0.2,0.7-0.2
			c0.4,0,0.6-0.1,0.6-0.2c0-0.2,0.1-0.3,0.2-0.3c0,0,0.2-0.1,0.4-0.3c0.3-0.2,0.4-0.3,0.5-0.3c0.1,0,0.2-0.1,0.2-0.3
			c0.1-0.2,0.2-0.3,0.3-0.3c0.1,0,0.2-0.1,0.3-0.3c0-0.2,0.2-0.3,0.4-0.3c0.2-0.1,0.3-0.1,0.3-0.2c0-0.1,0.1-0.1,0.2-0.1
			c0.1,0,0.2-0.2,0.2-0.6c0-0.3,0-0.5-0.1-0.5c-0.1,0-0.1-0.1,0-0.2c0.1-0.1,0.2-0.8,0.2-2.1c0-0.3,0-0.7,0-1.1
			C315.7,786,315.6,785.7,315.4,785.7z M313.2,788.8c-0.1,0-0.2,0.2-0.2,0.4c0,0.3-0.1,0.4-0.2,0.5c-0.1,0.1-0.2,0.4-0.3,0.8
			c-0.1,0.4-0.1,0.6-0.3,0.6c-0.1,0-0.2,0-0.2,0.1c0,0.1-0.1,0.2-0.4,0.2c-0.3,0.1-0.4,0.2-0.4,0.3c0,0.1,0,0.2-0.1,0.2
			c-0.1,0.1-0.2,0.1-0.4,0.2c-0.1,0.1-0.2,0.1-0.3,0.1c0,0.1-0.2,0.1-0.4,0.1c-0.2,0-0.3,0.1-0.5,0.2c-0.1,0.1-0.2,0.1-0.4,0.1
			c-0.2,0-0.4,0-0.7-0.1c-0.5-0.1-1-0.3-1.3-0.6c-0.3-0.3-0.7-0.8-1-1.5c-0.3-0.5-0.4-0.9-0.5-1.1c0-0.2-0.1-0.7-0.1-1.4
			c0-0.7,0-1.1,0.1-1.4c0-0.2,0.1-0.5,0.3-0.8c0.3-0.5,0.6-0.9,1-1.3c0.4-0.4,0.8-0.6,1-0.7c0.3,0,0.5-0.1,0.5-0.3
			c0-0.1,0.1-0.2,0.2-0.2c0.1,0,0.2,0,0.2-0.1c0-0.1,0.1-0.1,0.3-0.1c0.2,0,0.3,0,0.3,0.1c0,0.1,0.3,0.1,0.9,0.1
			c0.5,0,0.8,0.1,0.8,0.2c0,0.1,0.1,0.2,0.3,0.3c0.2,0.1,0.3,0.2,0.3,0.3c0,0.1,0.1,0.2,0.3,0.3c0.3,0.1,0.5,0.4,0.5,0.8
			c0,0.2,0.1,0.5,0.3,0.8c0.2,0.3,0.3,0.7,0.3,1.1c0,0.5,0,0.7,0.1,0.8c0.1,0.1,0.1,0.2,0.1,0.4
			C313.4,788.6,313.4,788.7,313.2,788.8z"/>
		<path d="M335.9,792.7c-0.1,0-0.2-0.1-0.3-0.4c-0.1-0.2-0.3-0.4-0.5-0.4c-0.2,0-0.4-0.1-0.6-0.2c-0.2-0.1-0.4-0.2-0.4-0.4
			c-0.1-0.1-0.1-0.2-0.3-0.2c-0.1,0-0.3-0.1-0.6-0.4c-0.2-0.3-0.4-0.6-0.6-0.9c-0.1-0.3-0.4-0.6-0.8-1.1c-0.4-0.5-0.7-0.7-0.8-0.7
			c-0.1,0-0.2-0.1-0.4-0.3c-0.1-0.1-0.2-0.2-0.1-0.3c0,0,0.1-0.1,0.3-0.2c0.8-0.3,1.2-0.6,1.2-0.9c0-0.5,0.1-0.7,0.3-0.7
			c0.1,0,0.2-0.1,0.4-0.2c0.2-0.2,0.2-0.7,0.2-1.5c0-1-0.1-1.5-0.3-1.7c-0.1-0.1-0.2-0.2-0.4-0.2c-0.1,0-0.2,0-0.2-0.1
			c0-0.1-0.1-0.2-0.4-0.3c-0.3-0.1-0.4-0.3-0.5-0.5l-0.2-0.3c-0.1-0.1-0.2-0.1-0.2,0.1c0,0.1-0.3,0.1-0.8,0.1c-0.6,0-0.9,0-0.9-0.1
			c0-0.1-0.1-0.1-0.4-0.1s-0.5-0.1-0.6-0.3c-0.2-0.2-0.3-0.3-0.4-0.3c-0.1,0-0.2,0.1-0.1,0.3c0,0,0,0,0,0.1v0.1
			c0,0.1-0.6,0.2-1.8,0.2H324l-0.5,0.5c-0.3,0.3-0.5,0.6-0.5,0.7c0,0.1,0.2,0.2,0.5,0.3c0.3,0.1,0.5,0.1,0.5,0.2
			c0,0.1,0,0.1,0.1,0.1c0.2,0,0.4,0.2,0.6,0.5c0.2,0.3,0.3,0.7,0.3,1.2c0,0.4,0.1,0.6,0.1,0.6c0,0.2-0.1,0.4-0.2,0.5
			c-0.2,0.1-0.2,0.2-0.1,0.3c0.1,0.1,0.2,0.3,0.2,0.7c0,0.3-0.1,0.5-0.2,0.5c-0.1,0-0.2,0,0,0.1c0.1,0.1,0.2,0.2,0.2,0.4
			c0,0.2-0.1,0.4-0.2,0.5c-0.1,0.1-0.1,0.3,0.1,0.4c0.1,0.1,0.2,0.3,0.2,0.4c0,0.1-0.1,0.3-0.2,0.4c-0.2,0.2-0.3,0.7-0.3,1.6
			c0,0.7,0,1.1-0.1,1.2c0,0.1-0.1,0.2-0.3,0.3c-0.2,0.1-0.3,0.1-0.3,0.2c0,0.1-0.3,0.1-0.8,0.1c-0.4,0-0.6,0.1-0.7,0.1
			c-0.1,0.1-0.1,0.2-0.1,0.5c0,0.2,0.2,0.5,0.6,0.8c0.2,0.1,0.3,0.2,0.5,0.2c0.2,0,0.3-0.1,0.3-0.2c0.1-0.1,0.8-0.2,2.1-0.2
			c1.3,0,2.1-0.1,2.2-0.3c0.1-0.1,0.2-0.2,0.3-0.2c0.1,0,0.2-0.1,0.2-0.2c0-0.1-0.1-0.2-0.4-0.2c-0.3,0-0.4-0.1-0.5-0.3
			c0-0.2-0.2-0.3-0.5-0.4c-0.4-0.1-0.5-0.2-0.5-0.4c0-0.1,0-0.2,0.1-0.3c0.2-0.2,0.2-0.3,0.1-0.4c-0.1,0-0.2-0.6-0.2-1.6
			c0-0.3,0-0.6,0-1c0-0.3,0-0.4,0.1-0.5c0-0.1,0.1-0.1,0.2-0.1c0.5,0,1,0.2,1.5,0.5c0.5,0.4,0.8,0.7,0.8,1c0,0.2,0.1,0.3,0.2,0.3
			s0.2,0.1,0.2,0.4c0,0.5,0.3,0.8,0.8,1c0.2,0.1,0.4,0.3,0.5,0.7c0.1,0.4,0.3,0.8,0.7,1.2l0.6,0.7l0.9-0.1c0.1,0,0.3,0,0.6-0.1
			c0.3,0,0.6,0,0.8-0.1c0.2,0,0.4-0.1,0.7-0.1c0.3-0.1,0.4-0.1,0.6-0.2c0.1-0.1,0.2-0.2,0.2-0.3C336.1,792.8,336,792.7,335.9,792.7z
			 M330.3,785.9c-0.1,0-0.2,0-0.2,0.1c-0.1,0-0.1,0,0,0.1c0.2,0,0.2,0.1,0.2,0.2c0,0.1-0.1,0.3-0.4,0.4c-0.2,0.2-0.5,0.3-0.7,0.3
			c-0.3,0-0.6,0.1-1.1,0.2c-0.1,0-0.2,0-0.3,0c-0.2,0-0.4-0.1-0.7-0.3c-0.2-0.2-0.3-0.3-0.4-0.3c0-0.1,0-0.1,0.1-0.2
			c0.1-0.1,0.2-0.7,0.2-1.6v-1.2c0-0.3,0.1-0.5,0.2-0.7s0.3-0.4,0.4-0.4h0.1l0.4,0.1c0.3,0,0.5,0.1,0.8,0.1c0.2,0.1,0.4,0.1,0.4,0.1
			c0,0.1,0.1,0.1,0.4,0.2c0.3,0.1,0.4,0.2,0.4,0.3c0,0.1,0.1,0.3,0.2,0.4c0.1,0.1,0.2,0.2,0.1,0.3c-0.1,0.1-0.1,0.3,0.1,0.6
			c0.1,0.2,0.2,0.5,0.2,0.8v0.1c0,0.2-0.1,0.4-0.1,0.4S330.5,785.9,330.3,785.9z"/>
		<path d="M329,780.4C329.1,780.3,329.1,780.3,329,780.4c0.1-0.1,0-0.1-0.2-0.1c-0.2,0-0.3,0.1-0.3,0.2
			C328.6,780.5,328.8,780.5,329,780.4C329,780.4,329,780.4,329,780.4z"/>
		<path d="M324.6,779.4c0-0.1-0.1-0.1-0.3-0.1c-0.2,0-0.3,0-0.3,0.1c0,0.1,0.1,0.2,0.3,0.2C324.5,779.5,324.6,779.5,324.6,779.4z"/>
		<path d="M355.2,785.5c0-0.2-0.1-0.3-0.2-0.5c-0.2-0.2-0.3-0.3-0.4-0.3c-0.1,0-0.2-0.1-0.2-0.2c0-0.1-0.1-0.3-0.3-0.6
			c-0.2-0.2-0.3-0.3-0.4-0.3c-0.1,0-0.2-0.1-0.2-0.2c0-0.1-0.1-0.2-0.3-0.3c-0.2-0.1-0.3-0.1-0.3-0.2c0-0.1-0.1-0.1-0.4-0.1
			c-0.2,0-0.3-0.1-0.6-0.2c-0.2-0.1-0.4-0.2-0.5-0.2c-0.2,0-0.3,0-0.3-0.1s-0.1-0.1-0.4-0.1c-0.2,0-0.3,0-0.4-0.1
			c-0.1-0.1-0.2-0.1-0.2-0.1c-0.1,0-0.2,0-0.4,0.1c-0.3,0.1-0.6,0.2-1,0.2c-0.2,0-0.4,0-0.4-0.1c-0.1,0-0.1-0.1-0.1-0.2
			c0-0.2-0.1-0.3-0.2-0.3c-0.1,0-0.2,0-0.3,0.2c-0.1,0.1-0.1,0.1-0.2,0c-0.2-0.3-0.3-0.2-0.4,0.1c-0.1,0.2-0.2,0.3-0.4,0.2
			c-0.2-0.1-0.5-0.2-1-0.2c-0.4,0-0.7-0.1-0.8-0.2c0-0.1-0.1-0.1-0.3,0.1c-0.2,0.1-0.3,0.1-0.3,0c-0.1-0.1-0.2-0.2-0.5-0.2
			c-0.2,0-0.4,0-0.4,0.1s-0.1,0.1-0.3,0.1c-0.1,0-0.2,0-0.2,0.1c0,0.1-0.1,0.3-0.1,0.5c0,0.3,0,0.5,0.1,0.6c0,0.1,0.2,0.2,0.3,0.3
			c0.2,0.1,0.3,0.1,0.4,0.1c0,0,0.1,0,0.1,0c0.1,0,0.1,0,0.1,0c0.1,0,0.2,0,0.3,0.1c0.2,0.1,0.4,0.4,0.4,0.8c0,0.4,0,0.6-0.1,0.6
			c-0.1,0-0.1,0.3-0.1,0.9c0,0.6,0,0.8,0.1,0.8c0.1,0,0.1,0.1,0.1,0.4c0,0.2,0,0.4-0.1,0.5c-0.1,0.1-0.1,1-0.2,2.8l-0.1,2.7l-0.5,0
			c-0.4,0-0.6,0.2-0.8,0.4c-0.2,0.2-0.3,0.4-0.3,0.5c0,0.1,0.1,0.2,0.4,0.4c0.3,0.2,0.5,0.2,0.7,0.2c0.1,0,0.2,0,0.2-0.1
			c0-0.1,0.3-0.1,0.8-0.1c0.5,0,0.8,0,0.8,0.1c0,0.1,0.9,0.2,2.6,0.2c1.1,0,1.7,0,1.8-0.1c0.1-0.1,0.4-0.2,0.7-0.2
			c0.4-0.1,0.8-0.2,1.3-0.5c0.5-0.2,0.8-0.4,1-0.4c0.2,0,0.3-0.1,0.4-0.4c0.1-0.3,0.3-0.6,0.7-1.1c0.4-0.4,0.6-0.7,0.6-0.8
			c0-0.1,0-0.2,0.1-0.2c0.1,0,0.1-0.1,0.1-0.3c0-0.2,0.1-0.4,0.2-0.5c0.1-0.1,0.1-0.8,0.1-2c0-1.4-0.1-2.1-0.2-2.2
			C355.3,785.8,355.2,785.7,355.2,785.5z M353.1,789.7c-0.1,0.1-0.2,0.2-0.2,0.5c0,0.3-0.1,0.5-0.2,0.6c-0.3,0.3-0.5,0.6-0.6,1
			c-0.1,0.2-0.1,0.2-0.2,0.2c-0.1,0-0.3,0.2-0.7,0.5c-0.4,0.3-0.7,0.5-0.9,0.5c-0.2,0-0.3,0.1-0.4,0.2c-0.1,0.1-0.1,0.1-0.2,0
			c-0.1-0.1-0.1-0.2-0.3-0.2c-0.1,0-0.2,0.1-0.3,0.2c0,0.1-0.3,0.1-0.9,0.1c-0.6,0-1.1,0-1.6,0c-0.2,0-0.2-0.1-0.2-0.4
			s-0.1-0.4-0.2-0.4s-0.2,0-0.2-0.1c0-0.1,0.1-0.1,0.2-0.2c0.1-0.1,0.2-0.2,0.2-0.3c0-0.1,0.1-0.2,0.2-0.2c0.1,0,0.1-0.1,0.2-0.4
			c0.1-0.2,0.1-0.5,0.1-0.8c0-0.1,0-0.3-0.1-0.5c0,0,0,0,0-0.1c0,0,0-0.1,0-0.1c0-0.2,0.1-0.4,0.2-0.6l0.2-0.4c0,0-0.1-0.1-0.2-0.1
			c-0.1,0-0.2-0.3-0.2-0.8c0-0.5,0-1,0-1.5c0-1.4,0.1-2.2,0.1-2.4c0-0.3,0.1-0.5,0.4-0.8c0.2-0.2,0.4-0.3,0.6-0.3c0.1,0,0.2,0,0.3,0
			c0.1,0,0.3,0,0.7,0.1c0.4,0,0.7,0.1,1,0.1c0.3,0.1,0.4,0.1,0.5,0.2c0.1,0.1,0.2,0.2,0.4,0.2c0.2,0,0.4,0.1,0.4,0.3
			c0.1,0.2,0.2,0.3,0.3,0.3c0.2,0,0.2,0,0.2,0.1s0.1,0.2,0.3,0.2c0.2,0.1,0.3,0.2,0.3,0.3c0,0.1,0.1,0.3,0.2,0.4
			c0.1,0.1,0.2,0.4,0.3,0.9c0,0.4,0.1,0.7,0.2,0.8c0.1,0.1,0.1,0.5,0.1,1.3S353.2,789.7,353.1,789.7z"/>
		<path d="M370.9,789.5c0-0.6-0.1-0.9-0.2-1.1c-0.1-0.2-0.3-0.4-0.6-0.5c-0.3-0.1-0.5-0.3-0.5-0.4c-0.1-0.1-0.3-0.3-0.9-0.6
			c-0.5-0.3-1-0.5-1.3-0.6c-0.2-0.1-0.5-0.2-0.9-0.5c-0.4-0.3-0.6-0.4-0.6-0.5c0-0.1-0.1-0.2-0.2-0.3c-0.2-0.1-0.2-0.2-0.2-0.3
			c0,0,0-0.1,0-0.1c0.1-0.1,0.1-0.2,0.1-0.3c0-0.1,0-0.3-0.1-0.6c0-0.1,0-0.2,0-0.2c0,0,0.2-0.1,0.3-0.1c0.3,0,0.4-0.1,0.4-0.2
			c0-0.1,0.1-0.2,0.4-0.4c0.3-0.2,0.4-0.3,0.4-0.3c0-0.1,0.1-0.1,0.4-0.2c0.1,0,0.1,0,0.2,0c0.4,0,0.8,0.2,1.2,0.5
			c0.5,0.3,0.7,0.6,0.7,0.9c0,0.2,0.1,0.4,0.3,0.5c0.2,0.1,0.3,0.3,0.3,0.4s0.1,0.3,0.2,0.5s0.3,0.3,0.4,0.3c0,0,0,0,0.1,0
			c0.1-0.1,0.1-0.7,0.2-2v-0.8c0-0.6-0.1-0.9-0.2-0.9c-0.1,0-0.1,0-0.1,0c-0.3,0.1-0.6,0.2-0.8,0.2c-0.3,0-0.6-0.1-1-0.3
			c-0.4-0.2-0.6-0.3-0.7-0.3c0,0-0.1,0-0.2,0.1c-0.3,0.1-0.6,0.1-0.8,0.1c-0.3,0-0.4,0-0.5,0.1c0,0.1-0.1,0.2-0.3,0.2
			c-0.2,0-0.4-0.1-0.5-0.2c-0.1-0.1-0.3-0.2-0.5-0.2h0c-0.1,0-0.1,0-0.1,0c-0.1,0-0.1,0-0.1,0c0,0,0.1,0,0.1,0
			c0.1,0.1,0.2,0.1,0.2,0.2c0,0.2-0.2,0.3-0.5,0.4c-0.3,0.1-0.4,0.2-0.4,0.4c0.1,0.2,0,0.3-0.2,0.4c-0.3,0.1-0.6,0.5-1.1,1.1
			c-0.1,0.2-0.2,0.4-0.2,0.6c0,0,0,0.3,0.1,0.8c0.1,0.7,0.3,1.1,0.4,1.3c0.1,0.2,0.4,0.4,0.7,0.7c0.4,0.3,0.6,0.4,0.8,0.4
			c0.1,0,0.3,0.1,0.6,0.4c0.4,0.3,0.9,0.6,1.7,0.8c0.5,0.1,0.8,0.3,1.1,0.6c0.2,0.2,0.3,0.4,0.5,0.7c0.1,0.3,0.2,0.5,0.2,0.7
			c0,0.1,0,0.1-0.1,0.2c-0.1,0-0.1,0.2-0.1,0.4c0.1,0.2,0,0.4-0.2,0.6c-0.1,0.1-0.2,0.3-0.2,0.4c0,0.2-0.5,0.4-1.4,0.5
			c-0.1,0-0.3,0-0.6,0c-0.9,0-1.7-0.4-2.2-1.2c-0.3-0.4-0.5-0.8-0.5-1c0,0,0-0.1,0-0.2c0-0.1,0-0.2,0-0.2c0,0-0.1-0.1-0.1-0.1
			c-0.1,0-0.1,0-0.1-0.1c0.1-0.3-0.1-0.5-0.4-0.6c-0.1,0-0.2-0.1-0.3-0.1c-0.3,0-0.4,0.2-0.5,0.5c-0.1,1.2-0.1,1.9-0.2,1.9
			c-0.1,0.1-0.1,0.4-0.2,0.8c0,0.1,0,0.3,0,0.4c0,0.2,0.1,0.4,0.3,0.6c0.1,0.1,0.2,0.2,0.3,0.2c0,0,0.1,0,0.2-0.2
			c0.1-0.2,0.2-0.3,0.2-0.4c0-0.3,0.2-0.3,0.5-0.1c0.9,0.5,1.8,0.7,2.9,0.7c0.5,0,1.1-0.1,1.6-0.2c0.6-0.1,1.1-0.3,1.4-0.6
			c0.3-0.3,0.5-0.5,0.5-0.5c0-0.1,0.1-0.2,0.2-0.3c0.2-0.1,0.3-0.4,0.3-0.9c0.1-0.5,0.1-0.7,0.2-0.7c0.1,0,0.1,0,0-0.1
			S371,790.2,370.9,789.5z M366.6,788C366.5,788,366.5,787.9,366.6,788c-0.1-0.1-0.1-0.1,0-0.1S366.6,787.9,366.6,788
			C366.6,787.9,366.6,788,366.6,788z"/>
		<path d="M365.1,788.7c0-0.1,0-0.2-0.1-0.2c-0.1,0-0.1,0-0.1,0.1l0.1,0.2C365,789,365.1,788.9,365.1,788.7z"/>
		<polygon points="51.7,808.8 44,814 41.2,799.9 38.4,814 30.7,808.8 35.9,816.5 21.8,819.3 35.9,822 30.7,829.8 38.4,824.6 
			41.2,838.6 43.9,824.6 51.7,829.8 46.5,822 60.5,819.3 46.5,816.5 		"/>
		<polygon points="468.1,816.5 473.3,808.8 465.5,814 462.8,799.9 460,814 452.3,808.8 457.5,816.5 443.4,819.3 457.5,822 
			452.3,829.8 460,824.6 462.8,838.6 465.5,824.6 473.3,829.8 468.1,822 482.1,819.3 		"/>
		<polygon points="30.7,57.5 38.4,52.3 41.2,66.4 44,52.3 51.7,57.5 46.5,49.8 60.5,47 46.5,44.3 51.7,36.5 43.9,41.7 41.2,27.7 
			38.4,41.7 30.7,36.5 35.9,44.3 21.8,47 35.9,49.8 		"/>
		<polygon points="473.3,36.5 465.5,41.7 462.8,27.7 460,41.7 452.3,36.5 457.5,44.3 443.4,47 457.5,49.8 452.3,57.5 460,52.3 
			462.8,66.4 465.5,52.3 473.3,57.5 468.1,49.8 482.1,47 468.1,44.3 		"/>
		<ellipse transform="matrix(3.032039e-03 -1 1 3.032039e-03 -6.784 423.532)" cx="209" cy="215.2" rx="1.3" ry="1.3"/>
		<path d="M259.3,238.2c0-1.1,0-2.2,0-3.2c0-0.4-0.3-0.7-0.7-0.7c-0.5,0-1,0-1.5,0c-0.2-0.7-0.3-1.6,0.2-2.2
			c0.4-0.5,1.2-0.7,1.6-1.2c0.7-0.8,0.9-1.8,0.6-2.8c-0.3-1.1-1-1.8-1.9-2.2c-0.1-2.1,0.8-2.8,3-3.5c1.4-0.4,2.8-0.4,4.2-0.5
			c2.8-0.1,5.6-0.1,8.4-0.1c5.1,0.1,10.2,0.3,15.4,0.6c2.1,0.1,4.3,0.4,6.3,0.1c1.7-0.3,1.8-0.9,2.5-2.2c0.3-0.6-0.2-0.2,0.4-0.6
			c0.2-0.1,0.7-0.2,1-0.3c0.7-0.3,1.3-0.7,1.8-1.3c1.5-1.7,1.6-4.1,1.7-6.2c0-0.3-0.3-0.7-0.7-0.7c-7.1,0.5-14.1,0.8-21.2,1.1
			c-5,0.2-10.1,0.3-15.1,0.3c-1.9,0-3.9-0.1-5.8-0.3c-1.7-0.2-2.9-0.1-2.9-1.8c2.3-0.2,3.5-1.9,3.6-4.2c0.1-2.5-0.5-4.4-2.9-5.4
			c-0.2-0.1-0.3-0.1-0.4,0c0,0,0,0-0.1,0c0.5-0.8,0.8-1.7,0.9-2.8c0.1-1.4-0.3-2.6-1.4-3.5c0.7-2,1.2-4,1.6-6.1c0-0.1,0-0.2,0-0.3
			c0.2-1.4,0.4-2.8,0.5-4.2c0-0.1,0-0.2,0-0.4c0.2-2.6,0.1-5.2,0-7.8c-0.2-4.3-0.6-9.2-2.2-13.3c1-1,1.2-2.5,0.8-3.9
			c-0.5-1.8-2-3.1-4-3.1c-1.8,0-3.5,1-4,2.8c-0.4,1.3-0.1,3,0.8,4.1c-1.6,4.1-2,9-2.3,13.3c-0.4,6.2-0.1,12.8,2,18.7
			c-1.1,1-1.7,2.2-1.5,3.8c0.1,1.1,0.4,1.8,0.9,2.6c-1.3-0.1-2.6,0.8-3.1,2c-0.6,1.4-0.4,3.5,0,4.9c0.5,1.7,1.7,2.4,3.4,2.4
			c-0.1,1.9-0.9,1.8-2.9,2c-1.9,0.2-3.9,0.2-5.8,0.2c-5,0-10.1-0.1-15.1-0.4c-7.1-0.3-14.2-0.7-21.2-1.2c-0.3,0-0.7,0.3-0.7,0.7
			c0,2,0.2,4.3,1.5,6c0.8,1,2.8,1.5,3.2,2.1c0.4,0.5,0.1,1.2,0.6,1.7c0.4,0.5,1,0.6,1.6,0.8c2,0.4,4.4,0.1,6.4,0
			c4.9-0.2,9.8-0.4,14.8-0.5c2.7,0,5.5,0,8.2,0.1c1.4,0,3,0,4.3,0.3c2.4,0.5,3.3,1.4,3.4,3.6c-0.6,0.3-1.1,0.8-1.4,1.3
			c-0.6,1-0.8,2.2-0.2,3.2c0.3,0.5,0.7,0.9,1.2,1.2c0.7,0.5,1.2,0.6,1.2,1.7c0,0.3-0.1,0.7-0.2,1c-0.4,0-0.7,0-1.1,0
			c-0.4,0-0.7,0.3-0.7,0.7c0,1.1,0,2.2,0,3.2c0,0,0,0,0,0c-2.7,0.2-4.1,1.5-4.1,4.3c0,2,0.7,3.2,2.1,3.8c0,0,0,0,0,0
			c0,1.2,0,2.4,0,3.6c0,0.4,0.3,0.7,0.7,0.7c0.1,0,0.1,0,0.2,0c-0.1,21.3-0.1,42.7-0.2,64c-0.1,26.6-0.2,53.1-0.2,79.7
			c0,2.6,0.3,4.3,1,6.8c1.9,6.8,3.8,13.6,5.7,20.4c0,0,0,0,0,0c0,0,0,0.1,0.1,0.1c0,0,0,0.1,0.1,0.1c0,0,0,0.1,0.1,0.1
			c0.2,0.2,0.6,0.2,0.8,0c0,0,0.1,0,0.1-0.1c0,0,0-0.1,0.1-0.1c0,0,0-0.1,0.1-0.1c0,0,0,0,0,0c1.7-6.1,3.5-12.1,5.2-18.1
			c0.7-2.4,1.7-4.8,1.7-7.4c0-9.3,0.1-18.5,0.1-27.8c0.1-31.3,0.2-62.5,0.3-93.8c0-7.9,0-15.9,0.1-23.8c0.1,0,0.1,0,0.2,0
			c0.2,0,0.3-0.1,0.4-0.2c0,0,0,0,0,0c0,0,0,0,0-0.1c0.1-0.1,0.2-0.2,0.2-0.4c0-1.2,0-2.4,0-3.6c0,0,0-0.1,0-0.1
			C264.7,244.3,264,238.5,259.3,238.2z M278.6,220.8c0.3-0.7,1.1-0.9,1.9-0.9c1,0,1.8,0.3,2.2,1.1
			C281.4,220.9,280,220.8,278.6,220.8z M301,212.7c-0.2,2.9-1,5.4-4.2,5.9c-2.2-2.4-7.6-1.7-8.3-5.2
			C292.6,213.2,296.8,213,301,212.7z M276.9,213.8c3.4-0.1,6.8-0.2,10.3-0.4c0.3,1.7,1.5,2.8,3.1,3.6c1.7,0.9,4.8,1.1,5.8,2.9
			c-0.4,1.5-3,1.6-5.5,1.5c-2.2-3-4.9-5-8.8-5.3c-2.4-0.2-4.7,0.5-7,0.8c-2.9,0.4-7.8-0.1-9.7-2.9C269,214.1,272.9,214,276.9,213.8z
			 M252.9,157.1c1.4-0.1,2.6,0.7,3,2c0.3,0.9,0.3,2.3-0.6,2.8c0,0,0,0,0,0c-0.2,0.1-0.4,0.4-0.3,0.7c0.4,0.9,0.7,1.9,0.9,2.8
			c-1.8-0.2-3.4-0.8-4.6-2.2c0.1-0.2,0.1-0.4,0.2-0.6c0.1-0.1,0.1-0.3,0.1-0.4c0-0.1-0.1-0.2-0.2-0.3
			C249.4,160.5,250.6,157.3,252.9,157.1z M250.7,164.7c1.5,1.4,3.4,2,5.4,2.1c0.2,1,0.4,2.1,0.5,3.1c-2.4-0.1-4.7-0.9-6.4-2.6
			c0,0-0.1-0.1-0.1-0.1C250.3,166.4,250.5,165.6,250.7,164.7z M249.8,168.7c1.9,1.7,4.4,2.4,7,2.6c0.1,1,0.2,2.1,0.3,3.1
			c-2.8-0.1-5.5-0.8-7.7-2.5C249.5,170.8,249.7,169.8,249.8,168.7z M249.1,176c0.1-0.9,0.1-1.7,0.2-2.6c2.3,1.6,5.1,2.2,7.9,2.3
			c0,0.1,0,0.2,0,0.3c0.1,0.9,0.1,1.8,0.1,2.8c-2.9-0.2-5.7-0.8-8-2.6C249.2,176.1,249.2,176.1,249.1,176
			C249.1,176.1,249.1,176,249.1,176z M249,177.6c2.5,1.7,5.3,2.3,8.3,2.5c0,1,0,2.1-0.1,3.1c-2.9-0.2-5.9-0.8-8.3-2.6c0,0,0,0,0,0
			C249,179.6,249,178.6,249,177.6z M249,182.2c2.4,1.6,5.3,2.2,8.2,2.4c-0.1,1-0.2,2.1-0.3,3.1c-2.8-0.2-5.5-0.8-7.7-2.6
			C249.1,184.1,249,183.1,249,182.2z M249.7,189.4c-0.2-0.9-0.3-1.8-0.4-2.7c2.2,1.4,4.7,2,7.3,2.2c-0.2,1-0.4,2.1-0.7,3.1
			C253.6,191.9,251.4,191.2,249.7,189.4z M255.5,193.3c-0.1,0.4-0.2,0.7-0.4,1.1c0,0,0,0,0,0.1c-1.2,0.7-2.9,0.5-4,0.1
			c0-0.1,0-0.1,0-0.2c-0.3-0.9-0.6-1.9-0.9-2.9C251.8,192.6,253.6,193.1,255.5,193.3z M250.6,195.8c1.6,0.6,3.4,0.7,5-0.1
			c2,1.5,0.6,4.1-0.5,5.7c-1.4,0.2-2.8,0.1-4.2-0.1C249.7,199.5,248.8,197.5,250.6,195.8z M205.1,212.4c4.2,0.3,8.3,0.6,12.5,0.8
			c-0.8,3.6-6.2,2.8-8.4,5.2C206.1,217.8,205.3,215.3,205.1,212.4z M215.5,221.2c-2.5,0.1-5.1-0.1-5.5-1.6c1-1.7,4.2-2,5.8-2.8
			c1.6-0.8,2.8-1.9,3.1-3.6c3.4,0.2,6.8,0.3,10.3,0.5c3.9,0.1,7.9,0.3,11.8,0.2c-1.7,2.6-6.1,3.3-8.8,3c-2.7-0.3-5.2-1.1-7.9-0.9
			C220.4,216.2,217.7,218.2,215.5,221.2z M223.3,220.8c0.4-0.8,1.2-1.1,2.2-1.1c0.8,0,1.6,0.2,1.9,1
			C226,220.7,224.7,220.7,223.3,220.8z M243.8,220.8c-4-0.5-8.3-0.3-12.3-0.3c-0.9,0-1.8,0-2.8,0.1c0,0,0-0.1,0-0.1
			c-0.4-1.5-1.8-2.1-3.3-2.2c-1.7,0-3.2,0.8-3.6,2.5c-0.8,0-1.5,0.1-2.3,0.1c-0.5,0-1.4,0.1-2.4,0.2c1.8-2.2,4.1-3.6,7.1-3.8
			c3-0.2,5.9,0.9,8.8,1c3.3,0.1,7.8-1.2,9.4-4.4c0.7,0,1.5,0,2.2-0.1c1.4-0.1,3-0.1,4.3-0.5c1.7-0.5,1.7-1.8,1.7-3.6
			c0-0.5-0.5-0.7-0.8-0.6c-0.1,0-0.2-0.1-0.3,0c-2.3,0-2.5-1.9-2.6-3.8c0-1.4,0.5-2.9,1.9-2.9c1,0,2.3,0.4,3.3,0.5
			c1.6,0.1,3.1,0,4.6-0.6c0,0,0,0,0.1,0c0,0,0,0,0.1,0c1.7,0.7,2,2.2,1.9,3.9c0,1.7-0.6,3.1-2.5,3.2c-0.1,0-0.1,0-0.2,0
			c-0.4-0.1-0.9,0.1-1,0.6c-0.5,4,2.9,3.7,6,3.9c0.7,0,1.5,0.1,2.2,0.1c1.6,3.2,6,4.6,9.4,4.5c2.8-0.1,5.5-1.1,8.4-1
			c3.2,0.1,5.6,1.5,7.5,3.8c-1-0.1-1.8-0.2-2.4-0.2c-0.8,0-1.5-0.1-2.3-0.1c-0.4-1.7-1.9-2.5-3.6-2.5c-1.4,0-2.9,0.7-3.3,2.1
			c0,0,0,0.1,0,0.1c-1.1,0-2.1-0.1-3.2-0.1c-3.9-0.1-8-0.3-11.9,0.2c-1.4,0.2-3.9,0.7-5.1,1.8c-0.8,0.8-0.9,1.9-0.8,3
			c-0.6,0-1.3,0.1-1.9,0.4c-0.7,0.3-1.3,0.8-2.2,0.6c-0.4-0.1-0.9-0.4-1.3-0.6c-0.5-0.3-1.1-0.5-1.7-0.5c0,0-0.1,0-0.1,0
			C248.9,222.5,247.1,221.2,243.8,220.8z M253.2,231.2c-0.8,0.3-1.1-0.7-1.2-1.2c-0.1-0.7,0-1.4,0.3-2c0.4,0,0.7,0,1-0.1
			C253.8,228.7,254.2,230.7,253.2,231.2z M247.3,228.3c0.2-0.7,0.7-1.2,1.3-1.4c0.1,0,0.1,0,0.2-0.1c0.3-0.1,0.5-0.1,0.8,0
			c0.5,0.1,1,0.4,1.5,0.7c-0.8,1.9-0.5,5.4,2.1,5c2.2-0.3,2.2-3.5,1.4-5.2c0.1-0.1,0.3-0.1,0.4-0.2c1.3-0.6,3.1,0.1,3.3,1.6
			c0.2,1.4-1.1,1.7-1.9,2.4c-0.8,0.8-0.9,2-0.6,3.1c-2,0-4.1,0-6.1,0c0.2-0.8,0.3-1.7-0.1-2.5C248.9,230.5,246.7,230.2,247.3,228.3z
			 M247.9,235.6c3.4,0,6.7,0,10.1,0c0,0.7,0,1.5,0,2.2c-3.4,0-6.7-0.1-10.1,0C247.9,237.1,247.9,236.3,247.9,235.6z M252.1,307.8
			c-0.1,30.8-0.2,61.5-0.3,92.3c0,5.5,0,11-0.1,16.5c-1.2-4.5-2.5-8.9-3.7-13.4c-0.8-2.8-1.7-5-1.7-7.6c0-9.3,0.1-18.7,0.1-28
			c0.1-31.3,0.2-62.5,0.3-93.8c0-7.8,0-15.6,0.1-23.4c1.8,0,3.7,0,5.5,0C252.2,269.6,252.1,288.7,252.1,307.8z M258.9,314
			c-0.1,26.7-0.2,53.4-0.2,80.1c0,2.9-0.2,3.8-1,6.6c-1.5,5.3-3,10.6-4.5,15.9c0.1-17.7,0.1-35.4,0.2-53.2
			c0.1-30.8,0.2-61.5,0.3-92.3c0-6.9,0-13.7,0.1-20.6c1.8,0,3.7,0,5.5,0C259,271.7,259,292.8,258.9,314z M260,249.2
			c-4.7,0-9.4-0.1-14.1,0c0-0.7,0-1.5,0-2.2c4.7,0,9.4,0.1,14.1,0C260,247.7,260,248.5,260,249.2z M262,243.6
			c-0.4,1.4-1.7,1.7-3,1.9c-1.2,0.1-2.6,0-3.8,0c-2.9,0-5.8,0-8.7,0c-2.3-0.2-2.9-1.8-2.7-3.6c0.2-1.6,1.5-2.1,3-2.3
			c1.3-0.2,2.8,0,4.1,0c2.7,0,5.7-0.3,8.4,0C261.5,239.8,262.6,241.4,262,243.6z"/>
		<ellipse transform="matrix(3.176191e-03 -1 1 3.176191e-03 80.6663 511.8054)" cx="297" cy="215.4" rx="1.3" ry="1.3"/>
		<path d="M253,225c0.7,0,0.6-5.1,1.6-6.1c1-1,4.6-0.7,4.6-1.3c0-0.6-3.7-0.4-4.6-1.4s-0.9-6.1-1.5-6.1c-0.7,0-0.4,5-1.6,6.1
			c-1.1,1.1-4.6,0.6-4.6,1.3c0,0.7,3.6,0.3,4.6,1.4C252.6,220,252.4,225,253,225z"/>
		<ellipse transform="matrix(0.8387 -0.5446 0.5446 0.8387 -155.4055 143.1122)" cx="163.9" cy="333.9" rx="1.3" ry="1.3"/>
		<path d="M88.5,386c0.7,0.2,1.4,0.2,2.2,0.1c0.3,0,0.8-0.3,1-0.3c0.7,0.1,0,0,0.6,0.3c1.3,0.7,1.7,1.2,3.3,0.5
			c1.9-0.8,3.6-2.3,5.3-3.5c4.2-3,8.3-5.9,12.6-8.8c2.3-1.6,4.7-3.1,7.1-4.5c1.2-0.7,2.4-1.4,3.8-1.9c2.1-0.7,3.3-0.5,4.4,1.3
			c-0.5,0.8-0.7,1.8-0.4,2.9c0.3,1,1,1.7,2,2c0.7,0.2,1.4-0.1,2,0.1c0.8,0.3,1.1,1,1.3,1.8c-0.4,0.3-0.8,0.5-1.2,0.8
			c-0.3,0.2-0.4,0.6-0.2,0.9c0.6,0.9,1.2,1.8,1.8,2.7c-3.8,2.8-1.1,8.1,2.7,7.8c0,0,0,0.1,0,0.1c0.6,1,1.3,2,1.9,3
			c0.1,0.1,0.2,0.2,0.4,0.3c0,0,0,0,0.1,0c0,0,0,0,0,0c0.1,0,0.3,0,0.5-0.1c0.1,0,0.1-0.1,0.2-0.1c4.3,6.7,8.6,13.3,13,20
			c17,26.2,34.1,52.4,51.1,78.7c5,7.8,10.1,15.5,15.1,23.3c1.4,2.1,3.5,3.6,5.5,5.3c4.7,4.1,9.5,8.3,14.2,12.4c0,0,0,0,0,0
			c0,0,0.1,0.1,0.1,0.1c0,0,0.1,0,0.1,0c0,0,0.1,0,0.1,0c0.3,0,0.6-0.2,0.7-0.5c0,0,0-0.1,0-0.1c0,0,0-0.1,0-0.1c0,0,0-0.1,0-0.1
			c0,0,0,0,0,0c-2.1-6.8-4.2-13.5-6.3-20.3c-0.8-2.5-1.4-4.1-2.8-6.3c-14.5-22.3-28.9-44.6-43.4-66.8
			c-11.6-17.9-23.2-35.8-34.8-53.7c0.1,0,0.1-0.1,0.2-0.1c0.3-0.2,0.4-0.6,0.2-0.9c-0.6-1-1.3-2-1.9-3c0,0,0,0,0,0
			c0.8-1.3,0.7-2.7-0.3-4.4c-1.5-2.3-3.4-2.7-5.7-1.4c0,0,0,0,0,0c-0.6-0.9-1.2-1.8-1.8-2.7c-0.2-0.3-0.6-0.4-0.9-0.2
			c-0.3,0.2-0.6,0.4-0.9,0.6c-0.3-0.2-0.6-0.5-0.7-0.8c-0.6-1-0.2-1.3,0.1-2.1c0.2-0.5,0.4-1,0.3-1.6c-0.1-1.2-0.9-2.1-1.9-2.6
			c-0.6-0.3-1.3-0.4-1.9-0.3c-1.1-1.9-0.8-3.1,0.9-4.9c1-1,2.3-1.8,3.5-2.6c2.2-1.6,4.5-3,6.8-4.5c4.2-2.6,8.4-5.1,12.7-7.6
			c1.8-1.1,3.9-2,5.4-3.5c0.4-0.4,0.8-0.9,0.9-1.5c0.1-0.8-0.4-1.2-0.4-1.8c0-0.7,1.5-2.2,1.6-3.5c0.2-2.1-0.9-4.1-2-5.8
			c-0.2-0.3-0.6-0.4-0.9-0.2c-5.7,4.3-11.4,8.4-17.2,12.5c-4.1,2.9-8.3,5.8-12.5,8.5c-1.6,1-3.3,2.1-5,2.9c-1.7,0.9-2.4,1.4-3.5-0.1
			c1.4-0.9,2-2.2,1.5-3.9c-0.4-1.4-1.4-3.3-2.7-4.1c-1.1-0.7-2.7-0.8-3.7,0c0-0.9-0.2-1.8-0.6-2.7c-0.7-1.4-1.8-2.1-3.3-2.3
			c-1.4-6.1-4.8-11.8-8.5-16.8c-2.6-3.5-5.5-7.4-9.1-10c0.3-1.4-0.5-3-1.5-3.9c-1.4-1.3-3.4-1.2-4.9-0.2c-1.6,1-2.2,2.9-1.6,4.7
			c0.4,1.3,1.4,2.5,2.8,2.8c0.9,4.3,3.2,8.6,5.4,12.4c1.3,2.2,2.7,4.4,4.2,6.5c0,0.1,0.1,0.2,0.2,0.3c0.8,1.1,1.7,2.2,2.6,3.2
			c0,0.1,0.1,0.1,0.2,0.2c1.4,1.6,3,3,4.6,4.3c-0.4,1.3-0.1,2.6,0.7,3.7c0.7,0.9,1.4,1.4,2.3,1.9c0,0,0,0,0,0
			c-0.1,0-0.2,0.1-0.3,0.2c-1.5,2.1-0.9,4.1,0.5,6.1c1.3,1.9,3.3,2.6,5.3,1.5c0.9,1.4-0.1,2-1.5,3.1c-1.5,1.2-3.1,2.3-4.7,3.3
			c-4.2,2.8-8.5,5.4-12.9,8c-6.1,3.6-12.2,7.2-18.4,10.6c-0.3,0.2-0.4,0.6-0.2,0.9C85,383.5,86.4,385.4,88.5,386z M105.1,378.7
			c-0.1-0.9,0.4-1.6,1.2-2.1c0.7-0.4,1.4-0.7,2.1-0.2C107.3,377.1,106.2,377.9,105.1,378.7z M223.6,516.2c-2.2-1.9-2.9-2.6-4.5-5
			c-14.5-22.4-29.1-44.8-43.6-67.2c-11.5-17.7-23-35.5-34.5-53.2c1.5-1,3.1-2,4.6-3c3.7,5.8,7.5,11.5,11.2,17.3
			c16.8,25.8,33.5,51.6,50.3,77.4c9.6,14.9,19.3,29.7,28.9,44.6C231.9,523.4,227.7,519.8,223.6,516.2z M164,403.7
			c17,26.2,34,52.4,51.1,78.6c5.1,7.8,10.2,15.6,15.2,23.5c1.4,2.1,1.8,4.5,2.7,7.3c1.4,4.4,2.7,8.8,4.1,13.3c-3-4.6-6-9.2-9-13.8
			c-16.8-25.8-33.5-51.6-50.3-77.4c-10.4-16-20.8-32-31.2-48c1.5-1,3.1-2,4.6-3C155.6,390.6,159.8,397.1,164,403.7z M151.3,382.5
			c-4,2.5-7.9,5.1-11.8,7.7c-0.4-0.6-0.8-1.3-1.2-1.9c3.9-2.5,7.9-5.1,11.8-7.7C150.5,381.2,150.9,381.9,151.3,382.5z M145.3,374.8
			c1.4-0.6,2.7-0.9,3.8,0.3c1.2,1.4,1.6,3.1-0.3,4.5c-2.4,1.6-4.8,3.1-7.3,4.7c-1,0.7-2.1,1.5-3.2,2.1c-1.2,0.6-2.4,1.1-3.6,0.1
			c-1.7-1.5-1.6-3.5,0.1-4.9c2.1-1.8,4.7-3.1,7-4.6C143,376.3,144.1,375.4,145.3,374.8z M142.3,372.1c0.4,0.6,0.8,1.3,1.2,1.9
			c-2.8,1.8-5.7,3.6-8.5,5.5c-0.4-0.6-0.8-1.3-1.2-1.9C136.6,375.8,139.4,374,142.3,372.1z M136.8,365.3c0.1,0,0.1,0,0.2-0.1
			c0.6-0.2,1.4,0,1.9,0.4c1.5,1.3-0.2,2.7-0.1,4.2c0.1,0.9,0.6,1.6,1.2,2.2c-1.7,1.1-3.4,2.2-5.1,3.3c-0.4-1.1-1.1-2-2.2-2.3
			c-1.1-0.2-2.4,0.3-2.9-1c-0.6-1.4,0.5-3,1.9-3.2c0.2,0,0.3,0,0.5-0.1c0.3,1.8,2,4.6,4,3.6c2.4-1.1,0.8-4.2-0.9-5.4
			c0.3-0.5,0.5-1,0.9-1.3C136.3,365.5,136.5,365.4,136.8,365.3z M133.4,368.6c0.3-0.1,0.6-0.2,0.9-0.5c0.6,0.3,1.1,0.9,1.4,1.5
			c0.2,0.5,0.5,1.5-0.3,1.7C134.4,371.5,133.5,369.5,133.4,368.6z M151.4,348.4c-0.1-0.8,0.4-1.4,1.1-1.8c0.8-0.6,1.6-0.7,2.4-0.3
			C153.7,347,152.6,347.7,151.4,348.4z M165.7,329.4c1.5,2.6,2.1,5.1-0.3,7.3c-3.1-0.8-7.2,2.8-9.8,0.2
			C158.9,334.4,162.3,332,165.7,329.4z M146.1,343.6c2.8-2,5.6-3.9,8.4-6c1.2,1.2,2.8,1.5,4.6,1.3c1.9-0.2,4.7-1.7,6.4-0.8
			c0.4,1.4-1.6,3-3.8,4.3c-3.5-1.3-6.9-1.5-10.2,0.4c-2.4,1.3-4.1,3.4-6.2,5.1c-2.1,1.7-6.2,3.5-9,2.3
			C139.7,348.1,142.9,345.8,146.1,343.6z M96.9,314.7c-0.1-0.3-0.3-0.5-0.6-0.5c0,0,0,0-0.1,0c-1.1,0-1.8-1.1-2.1-2
			c-0.4-1.4,0.2-2.6,1.4-3.3c2.1-1.1,4.8,0.9,4,3.2c-0.1,0.1-0.1,0.3,0,0.4c0,0.1,0.1,0.3,0.3,0.3c0.2,0.1,0.3,0.3,0.5,0.4
			c-0.3,1.8-1.3,3.2-2.7,4.4C97.3,316.6,97,315.7,96.9,314.7z M98.1,318.9c1.6-1.2,2.9-2.8,3.4-4.7c0.6,0.6,1.3,1.1,1.9,1.8
			c0,0.1,0,0.1-0.1,0.2c-0.5,2.4-2,4.3-4,5.7C98.9,320.8,98.5,319.8,98.1,318.9z M99.9,322.9c2.1-1.5,3.8-3.5,4.5-5.9
			c0.7,0.8,1.4,1.6,2,2.4c-0.9,2.7-2.8,4.7-5.1,6.3C100.9,324.8,100.4,323.9,99.9,322.9z M102.2,327.1c-0.1-0.1-0.1-0.2-0.2-0.3
			c2.3-1.6,4.3-3.6,5.4-6.2c0.5,0.7,1.1,1.4,1.6,2.1c0,0,0,0,0,0.1c0,0-0.1,0.1-0.1,0.2c-0.9,2.8-3,4.9-5.3,6.6
			C103.1,328.7,102.6,327.9,102.2,327.1z M104.3,330.6c2.4-1.7,4.5-3.9,5.6-6.6c0.6,0.8,1.1,1.6,1.7,2.5c0,0,0,0,0,0
			c-1,2.8-3.1,5-5.5,6.7C105.4,332.3,104.9,331.5,104.3,330.6z M106.8,334.2c2.4-1.7,4.4-3.8,5.6-6.4c0.5,0.8,1,1.6,1.4,2.5
			c-0.9,2.7-2.8,4.7-5,6.4C108.1,335.9,107.5,335.1,106.8,334.2z M112,339.9c-0.8-0.7-1.6-1.4-2.3-2.2c2.1-1.6,3.9-3.4,4.9-5.8
			c0.4,0.8,0.8,1.6,1.1,2.5C115.2,336.7,113.8,338.5,112,339.9z M113.9,341.4c-0.3-0.2-0.6-0.5-0.9-0.7c1.5-1.2,2.8-2.6,3.5-4.4
			c0.3,0.9,0.6,1.9,0.8,2.9c0,0.1,0,0.1,0.1,0.2C116.6,340.4,115.3,341.4,113.9,341.4C113.9,341.5,113.9,341.5,113.9,341.4z
			 M114.2,342.8c1.7-0.2,3.2-1.3,4.2-2.7c2.4,0.5,2.7,2.7,2.7,4.8c-1.1,0.9-2.1,1.8-3.5,2.4C116,346.6,113.3,345.1,114.2,342.8z
			 M119.2,361.2c2.5-1.8,5.4-3.4,2.9-6.5c-0.3-0.4-0.9-0.3-1.1,0c0,0-0.1,0-0.1,0.1c-1.6,0.9-2.9,0.1-3.8-1.3
			c-0.9-1.4-1.5-2.7-0.5-4.3c0,0,0,0,0-0.1c0,0,0,0,0.1,0c1.5-0.3,2.9-1.1,4.2-2c0.9-0.6,1.6-1.7,2.5-2.2c1.2-0.7,2.5,0.3,3.2,1.4
			c1,1.6,1.9,3.3-0.1,4.6c-0.1,0.1-0.1,0.1-0.2,0.2c-0.4,0.1-0.6,0.5-0.4,1c0.9,1.5,1.6,2.6,3.3,2.1c1.4-0.4,2.7-1.2,3.9-1.9
			c0.6-0.4,1.3-0.8,1.9-1.1c3.1,1.8,7.6,0.5,10.3-1.4c2.4-1.7,4.2-4.2,6.9-5.6c2.6-1.5,5.3-1.5,8-0.6c-0.9,0.5-1.6,0.9-2.1,1.1
			c-0.7,0.4-1.3,0.8-2,1.2c-1.3-1.2-3-1.1-4.4-0.1c-1.2,0.8-2,2.1-1.6,3.6c0,0,0,0,0,0.1c-0.8,0.5-1.6,1-2.4,1.4
			c-3.4,2.1-7.1,4.3-10.2,6.9c-2.5,2.1-3.3,4.1-1.9,6.8c0,0-0.1,0-0.1,0c-0.5,0.3-0.8,0.8-1.1,1.3c-0.2,0.4-0.4,0.9-0.7,1.2
			c-0.6,0.7-1.4,0.6-2.2,0.7c-0.7,0.1-1.3,0.4-1.8,0.8c-0.5-0.9-1.1-1.8-2.3-2.1c-1.6-0.3-3.9,0.6-5.2,1.2
			c-3.5,1.7-6.9,4.1-10.1,6.3c-0.9,0.6-1.7,1.2-2.6,1.8c0,0,0,0-0.1-0.1c-1.2-1-2.7-0.8-3.9,0c-1.5,0.9-2.2,2.4-1.7,4
			c-0.6,0.4-1.3,0.9-1.9,1.3c-0.4,0.3-1.1,0.9-1.9,1.5c0.4-3,1.6-5.5,4.2-7.3c2.3-1.6,5.2-2.3,7.6-3.7c2.9-1.7,5.9-5.3,5.5-8.9
			C118,362,118.6,361.6,119.2,361.2z M97.3,374.8c3-1.7,5.9-3.5,8.8-5.2c3.4-2,6.7-4.1,10-6.3c0,3.4-3.9,6.5-6.5,7.7
			c-2.2,1-4.4,1.7-6.3,3.2c-3.1,2.3-4.3,5.5-4.5,9.2c-2,1.4-4.3,2.7-5.5,1.7c-0.1-2,2.4-3.9,3.3-5.6C97.5,378,97.9,376.4,97.3,374.8
			z M96.2,375.5c1.3,3.4-3.6,5.7-4.2,8.9c-3,1.3-5-0.3-6.7-2.7C88.9,379.6,92.6,377.5,96.2,375.5z"/>
		<ellipse transform="matrix(0.8387 -0.5446 0.5446 0.8387 -193.4246 110.6362)" cx="90.1" cy="381.8" rx="1.3" ry="1.3"/>
		<path d="M127.7,361.7c1.4,0.3,4,4.6,4.6,4.3c0.5-0.4-2.3-4.4-2-5.9c0.3-1.5,3.5-3.1,3.2-3.6c-0.4-0.6-3.1,1.7-4.6,1.4
			c-1.5-0.3-4-4.6-4.6-4.3c-0.5,0.4,2.3,4.7,2,5.9c-0.3,1.3-3.5,3.2-3.2,3.6S126.3,361.4,127.7,361.7z"/>
		<ellipse transform="matrix(0.5446 -0.8387 0.8387 0.5446 -125.1754 437.2692)" cx="340.1" cy="333.9" rx="1.3" ry="1.3"/>
		<path d="M420,380.9c-6.2-3.4-12.3-7-18.4-10.6c-4.3-2.6-8.7-5.2-12.9-8c-1.6-1.1-3.2-2.1-4.7-3.3c-1.4-1.1-2.4-1.6-1.5-3.1
			c2.1,1.1,4,0.3,5.3-1.5c1.4-2,2-4,0.5-6.1c-0.1-0.1-0.2-0.2-0.3-0.2c0,0,0,0,0,0c0.9-0.4,1.6-1,2.3-1.9c0.8-1.1,1.1-2.4,0.7-3.7
			c1.7-1.3,3.2-2.7,4.6-4.3c0.1-0.1,0.1-0.1,0.2-0.2c0.9-1,1.8-2.1,2.6-3.2c0.1-0.1,0.2-0.2,0.2-0.3c1.5-2.1,2.9-4.3,4.2-6.5
			c2.2-3.8,4.5-8,5.4-12.4c1.4-0.3,2.4-1.5,2.8-2.8c0.6-1.8-0.1-3.7-1.6-4.7c-1.5-1-3.5-1-4.9,0.2c-1,0.9-1.8,2.5-1.5,3.9
			c-3.6,2.6-6.5,6.5-9.1,10c-3.7,5-7,10.6-8.5,16.8c-1.5,0.2-2.6,1-3.3,2.3c-0.5,0.9-0.6,1.8-0.6,2.7c-1-0.8-2.6-0.7-3.7,0
			c-1.3,0.8-2.2,2.7-2.7,4.1c-0.5,1.7,0.2,2.9,1.5,3.9c-1.1,1.5-1.7,1-3.5,0.1c-1.7-0.9-3.3-1.9-5-2.9c-4.3-2.7-8.4-5.6-12.5-8.5
			c-5.8-4.1-11.5-8.3-17.2-12.5c-0.3-0.2-0.7-0.1-0.9,0.2c-1.1,1.7-2.2,3.7-2,5.8c0.1,1.3,1.6,2.8,1.6,3.5c0,0.7-0.5,1-0.4,1.8
			c0.1,0.6,0.5,1.1,0.9,1.5c1.5,1.5,3.6,2.5,5.4,3.5c4.2,2.5,8.5,5,12.7,7.6c2.3,1.4,4.6,2.9,6.8,4.5c1.2,0.8,2.5,1.6,3.5,2.6
			c1.7,1.7,2,2.9,0.9,4.9c-0.7-0.1-1.3,0.1-1.9,0.3c-1,0.5-1.8,1.4-1.9,2.6c0,0.6,0.1,1.1,0.3,1.6c0.3,0.8,0.7,1.1,0.1,2.1
			c-0.2,0.3-0.4,0.5-0.7,0.8c-0.3-0.2-0.6-0.4-0.9-0.6c-0.3-0.2-0.7-0.1-0.9,0.2c-0.6,0.9-1.2,1.8-1.8,2.7c0,0,0,0,0,0
			c-2.3-1.3-4.2-0.9-5.7,1.4c-1.1,1.6-1.1,3.1-0.3,4.4c0,0,0,0,0,0c-0.6,1-1.3,2-1.9,3c-0.2,0.3-0.1,0.7,0.2,0.9
			c0.1,0,0.1,0.1,0.2,0.1c-11.6,17.9-23.2,35.8-34.8,53.7c-14.5,22.3-28.9,44.6-43.4,66.8c-1.4,2.2-2,3.7-2.8,6.3
			c-2.1,6.8-4.2,13.5-6.3,20.3c0,0,0,0,0,0c0,0,0,0.1,0,0.1c0,0,0,0.1,0,0.1c0,0,0,0.1,0,0.1c0.1,0.3,0.4,0.5,0.7,0.5
			c0,0,0.1,0,0.1,0c0,0,0.1,0,0.1,0c0,0,0.1,0,0.1-0.1c0,0,0,0,0,0c4.7-4.1,9.5-8.3,14.2-12.4c1.9-1.7,4.1-3.1,5.5-5.3
			c5-7.8,10.1-15.5,15.1-23.3c17-26.2,34.1-52.4,51.1-78.7c4.3-6.7,8.6-13.3,13-20c0.1,0,0.1,0.1,0.2,0.1c0.2,0.1,0.3,0.1,0.5,0.1
			c0,0,0,0,0,0c0,0,0,0,0.1,0c0.1,0,0.3-0.1,0.4-0.3c0.6-1,1.3-2,1.9-3c0,0,0-0.1,0-0.1c3.9,0.3,6.5-4.9,2.7-7.8
			c0.6-0.9,1.2-1.8,1.8-2.7c0.2-0.3,0.1-0.7-0.2-0.9c-0.4-0.3-0.8-0.5-1.2-0.8c0.2-0.7,0.6-1.5,1.3-1.8c0.6-0.2,1.4,0.1,2-0.1
			c1-0.3,1.7-1,2-2c0.3-1.1,0.1-2.1-0.4-2.9c1.1-1.8,2.2-1.9,4.4-1.3c1.4,0.4,2.6,1.1,3.8,1.9c2.4,1.4,4.8,3,7.1,4.5
			c4.3,2.8,8.4,5.8,12.6,8.8c1.7,1.2,3.4,2.7,5.3,3.5c1.6,0.7,2,0.2,3.3-0.5c0.6-0.4-0.1-0.2,0.6-0.3c0.2,0,0.7,0.2,1,0.3
			c0.7,0.1,1.5,0.1,2.2-0.1c2.1-0.6,3.6-2.5,4.8-4.3C420.4,381.5,420.3,381,420,380.9z M404.1,312.8c0.1-0.1,0.2-0.2,0.3-0.3
			c0-0.1,0-0.3,0-0.4c-0.7-2.3,2-4.3,4-3.2c1.2,0.7,1.8,1.9,1.4,3.3c-0.3,0.9-1,2-2.1,2c0,0,0,0-0.1,0c-0.3,0-0.5,0.1-0.6,0.5
			c-0.2,1-0.5,1.9-0.8,2.9c-1.4-1.1-2.4-2.5-2.7-4.4C403.8,313.1,403.9,313,404.1,312.8z M402.5,314.1c0.5,2,1.8,3.5,3.4,4.7
			c-0.4,1-0.8,1.9-1.2,2.9c-2-1.4-3.5-3.3-4-5.7c0-0.1,0-0.1-0.1-0.2C401.2,315.3,401.8,314.7,402.5,314.1z M399.5,317
			c0.7,2.5,2.4,4.4,4.5,5.9c-0.5,0.9-1,1.8-1.5,2.7c-2.2-1.6-4.2-3.6-5.1-6.3C398.2,318.6,398.8,317.8,399.5,317z M395,322.7
			c0.5-0.7,1-1.4,1.6-2.1c1.1,2.6,3.1,4.6,5.4,6.2c-0.1,0.1-0.1,0.2-0.2,0.3c-0.5,0.8-0.9,1.6-1.4,2.4c-2.3-1.7-4.4-3.8-5.3-6.6
			C395,322.9,395,322.8,395,322.7C395,322.8,395,322.7,395,322.7z M394,324c1.1,2.7,3.2,4.9,5.6,6.6c-0.6,0.9-1.1,1.7-1.7,2.6
			c-2.4-1.7-4.5-3.8-5.5-6.7c0,0,0,0,0,0C392.9,325.6,393.5,324.8,394,324z M391.5,327.8c1.2,2.6,3.2,4.7,5.6,6.4
			c-0.6,0.8-1.3,1.6-2,2.4c-2.2-1.6-4.2-3.7-5-6.4C390.6,329.5,391,328.6,391.5,327.8z M389.3,331.9c1.1,2.4,2.9,4.2,4.9,5.8
			c-0.7,0.8-1.5,1.5-2.3,2.2c-1.9-1.4-3.3-3.2-3.8-5.5C388.6,333.5,388.9,332.7,389.3,331.9z M386.7,339.2c0.2-1,0.5-1.9,0.8-2.9
			c0.7,1.7,2,3.2,3.5,4.4c-0.3,0.2-0.6,0.5-0.9,0.7c0,0,0,0,0,0c-1.4-0.1-2.7-1.1-3.4-2.1C386.6,339.4,386.6,339.3,386.7,339.2z
			 M385.5,340.1c1,1.4,2.5,2.5,4.2,2.7c0.9,2.3-1.7,3.8-3.5,4.5c-1.3-0.6-2.4-1.4-3.5-2.4C382.8,342.8,383.1,340.6,385.5,340.1z
			 M338.3,329.4c3.3,2.5,6.7,5,10.1,7.4c-2.6,2.6-6.7-1-9.8-0.2C336.2,334.5,336.8,332,338.3,329.4z M342.2,342.5
			c-2.1-1.3-4.2-2.8-3.8-4.3c1.8-0.9,4.6,0.6,6.4,0.8c1.8,0.2,3.3-0.1,4.6-1.3c2.8,2,5.6,4,8.4,6c3.2,2.2,6.5,4.5,9.8,6.6
			c-2.9,1.2-6.9-0.6-9-2.3c-2.1-1.7-3.8-3.7-6.2-5.1C349.1,341,345.7,341.1,342.2,342.5z M349,346.3c0.8-0.5,1.6-0.3,2.4,0.3
			c0.6,0.4,1.2,1.1,1.1,1.8C351.4,347.7,350.2,347,349,346.3z M270.9,513c0.9-2.8,1.3-5.1,2.7-7.3c5.1-7.8,10.2-15.6,15.2-23.5
			c17-26.2,34-52.4,51.1-78.6c4.2-6.5,8.5-13.1,12.7-19.6c1.5,1,3.1,2,4.6,3c-10.4,16-20.8,32-31.2,48
			c-16.8,25.8-33.5,51.6-50.3,77.4c-3,4.6-6,9.2-9,13.8C268.2,521.9,269.6,517.5,270.9,513z M328.4,444
			c-14.5,22.4-29.1,44.8-43.6,67.2c-1.6,2.4-2.3,3.1-4.5,5c-4.1,3.6-8.3,7.2-12.4,10.9c9.6-14.9,19.3-29.7,28.9-44.6
			c16.8-25.8,33.5-51.6,50.3-77.4c3.7-5.8,7.5-11.5,11.2-17.3c1.5,1,3.1,2,4.6,3C351.5,408.5,339.9,426.2,328.4,444z M364.4,390.1
			c-3.9-2.6-7.9-5.1-11.8-7.7c0.4-0.6,0.8-1.3,1.2-1.9c3.9,2.6,7.9,5.1,11.8,7.7C365.2,388.9,364.8,389.5,364.4,390.1z M369.2,386.5
			c-1.1,1-2.3,0.5-3.6-0.1c-1.1-0.6-2.2-1.4-3.2-2.1c-2.4-1.6-4.8-3.1-7.3-4.7c-1.9-1.4-1.5-3.1-0.3-4.5c1.1-1.3,2.4-1,3.8-0.3
			c1.2,0.6,2.3,1.5,3.4,2.2c2.3,1.5,4.9,2.8,7,4.6C370.8,383,370.8,385,369.2,386.5z M368.9,379.5c-2.8-1.9-5.6-3.7-8.5-5.5
			c0.4-0.6,0.8-1.3,1.2-1.9c2.8,1.9,5.6,3.7,8.5,5.5C369.8,378.3,369.3,378.9,368.9,379.5z M374.2,372.1c-0.6,1.3-1.9,0.8-2.9,1
			c-1.2,0.3-1.9,1.2-2.2,2.3c-1.7-1.1-3.4-2.2-5.1-3.3c0.6-0.6,1.1-1.3,1.2-2.2c0.2-1.5-1.6-2.9-0.1-4.2c0.5-0.5,1.3-0.6,1.9-0.4
			c0.1,0,0.1,0,0.2,0.1c0.3,0.1,0.5,0.2,0.7,0.4c0.4,0.4,0.6,0.9,0.9,1.3c-1.7,1.2-3.3,4.2-0.9,5.4c2,0.9,3.7-1.8,4-3.6
			c0.2,0,0.3,0,0.5,0.1C373.7,369.1,374.8,370.6,374.2,372.1z M369.6,368.1c0.3,0.2,0.6,0.4,0.9,0.5c-0.1,1-0.9,2.9-2,2.7
			c-0.8-0.1-0.5-1.2-0.3-1.7C368.5,369,369,368.4,369.6,368.1z M395.5,376.4c0.7-0.4,1.5-0.2,2.1,0.2c0.8,0.5,1.3,1.2,1.2,2.1
			C397.8,377.9,396.6,377.1,395.5,376.4z M401.9,380.8c-0.6-0.4-1.3-0.9-1.9-1.3c0.6-1.7-0.2-3.1-1.7-4c-1.2-0.8-2.8-1-3.9,0
			c0,0,0,0-0.1,0.1c-0.9-0.6-1.7-1.2-2.6-1.8c-3.3-2.2-6.6-4.6-10.1-6.3c-1.3-0.6-3.7-1.5-5.2-1.2c-1.1,0.2-1.7,1.1-2.3,2.1
			c-0.5-0.4-1.2-0.7-1.8-0.8c-0.8-0.1-1.6-0.1-2.2-0.7c-0.3-0.3-0.5-0.8-0.7-1.2c-0.3-0.5-0.6-1-1.1-1.3c0,0-0.1,0-0.1,0
			c1.4-2.6,0.6-4.6-1.9-6.8c-3.1-2.6-6.8-4.7-10.2-6.9c-0.8-0.5-1.6-1-2.4-1.4c0,0,0,0,0-0.1c0.5-1.5-0.4-2.8-1.6-3.6
			c-1.4-1-3.1-1.1-4.4,0.1c-0.7-0.4-1.3-0.8-2-1.2c-0.5-0.3-1.2-0.7-2.1-1.1c2.7-0.8,5.4-0.8,8,0.6c2.6,1.5,4.4,3.9,6.9,5.6
			c2.7,1.9,7.2,3.2,10.3,1.4c0.6,0.4,1.3,0.8,1.9,1.1c1.2,0.7,2.5,1.6,3.9,1.9c1.8,0.5,2.4-0.6,3.3-2.1c0.3-0.4,0-0.8-0.4-1
			c0-0.1-0.1-0.1-0.2-0.2c-2-1.2-1.1-3-0.1-4.6c0.7-1.2,2-2.1,3.2-1.4c0.9,0.5,1.7,1.6,2.5,2.2c1.3,0.9,2.6,1.7,4.2,2c0,0,0,0,0.1,0
			c0,0,0,0,0,0.1c1.1,1.5,0.5,2.9-0.5,4.3c-0.9,1.4-2.2,2.3-3.8,1.3c-0.1,0-0.1,0-0.1-0.1c-0.2-0.3-0.8-0.4-1.1,0
			c-2.5,3.1,0.4,4.7,2.9,6.5c0.6,0.4,1.2,0.9,1.8,1.3c-0.4,3.6,2.6,7.1,5.5,8.9c2.4,1.4,5.2,2.1,7.6,3.7c2.6,1.8,3.8,4.3,4.2,7.3
			C403,381.7,402.4,381.2,401.9,380.8z M405.2,383.3c-0.2-3.7-1.4-6.9-4.5-9.2c-1.9-1.4-4.2-2.2-6.3-3.2c-2.7-1.2-6.5-4.3-6.5-7.7
			c3.3,2.2,6.6,4.2,10,6.3c2.9,1.8,5.9,3.5,8.8,5.2c-0.6,1.6-0.2,3.2,0.7,4.7c1,1.6,3.4,3.6,3.3,5.6
			C409.5,386,407.2,384.8,405.2,383.3z M411.9,384.3c-0.5-3.2-5.5-5.5-4.2-8.9c3.6,2.1,7.3,4.2,10.9,6.2
			C417,384,414.9,385.6,411.9,384.3z"/>
		<ellipse transform="matrix(0.5446 -0.8387 0.8387 0.5446 -131.7614 521.0262)" cx="413.9" cy="381.8" rx="1.3" ry="1.3"/>
		<path d="M377.8,359.5c-0.3-1.3,2.6-5.6,2-5.9c-0.5-0.4-3.1,3.9-4.6,4.3c-1.5,0.3-4.2-2-4.6-1.4c-0.4,0.6,2.8,2.2,3.2,3.6
			c0.3,1.5-2.6,5.6-2,5.9c0.5,0.4,3.2-4,4.6-4.3c1.4-0.3,4.3,1.9,4.6,1.4S378,360.8,377.8,359.5z"/>
		<ellipse transform="matrix(0.8387 -0.5446 0.5446 0.8387 -251.6425 171.6163)" cx="163.9" cy="510.6" rx="1.3" ry="1.3"/>
		<path d="M224.5,695.4c4.7,4.1,9.5,8.3,14.2,12.4c0,0,0,0,0,0c0,0,0.1,0.1,0.1,0.1c0,0,0.1,0,0.1,0c0,0,0.1,0,0.1,0
			c0.3,0,0.6-0.2,0.7-0.5c0,0,0-0.1,0-0.1c0,0,0-0.1,0-0.1c0,0,0-0.1,0-0.1c0,0,0,0,0,0c-2.1-6.8-4.2-13.5-6.3-20.3
			c-0.8-2.5-1.4-4.1-2.8-6.3c-14.5-22.3-28.9-44.6-43.4-66.8c-11.6-17.9-23.2-35.8-34.8-53.7c0.1,0,0.1-0.1,0.2-0.1
			c0.3-0.2,0.4-0.6,0.2-0.9c-0.6-1-1.3-2-1.9-3c0,0,0,0,0,0c0.8-1.3,0.7-2.7-0.3-4.4c-1.5-2.3-3.4-2.7-5.7-1.4c0,0,0,0,0,0
			c-0.6-0.9-1.2-1.8-1.8-2.7c-0.2-0.3-0.6-0.4-0.9-0.2c-0.3,0.2-0.6,0.4-0.9,0.6c-0.3-0.2-0.6-0.5-0.7-0.8c-0.6-1-0.2-1.3,0.1-2.1
			c0.2-0.5,0.4-1,0.3-1.6c-0.1-1.2-0.9-2.1-1.9-2.6c-0.6-0.3-1.3-0.4-1.9-0.3c-1.1-1.9-0.8-3.1,0.9-4.9c1-1,2.3-1.8,3.5-2.6
			c2.2-1.6,4.5-3,6.8-4.5c4.2-2.6,8.4-5.1,12.7-7.6c1.8-1.1,3.9-2,5.4-3.5c0.4-0.4,0.8-0.9,0.9-1.5c0.1-0.8-0.4-1.2-0.4-1.8
			c0-0.7,1.5-2.2,1.6-3.5c0.2-2.1-0.9-4.1-2-5.8c-0.2-0.3-0.6-0.4-0.9-0.2c-5.7,4.3-11.4,8.4-17.2,12.5c-4.1,2.9-8.3,5.8-12.5,8.5
			c-1.6,1-3.3,2.1-5,2.9c-1.7,0.9-2.4,1.4-3.5-0.1c1.4-0.9,2-2.2,1.5-3.9c-0.4-1.4-1.4-3.3-2.7-4.1c-1.1-0.7-2.7-0.8-3.7,0
			c0-0.9-0.2-1.8-0.6-2.7c-0.7-1.4-1.8-2.1-3.3-2.3c-1.4-6.1-4.8-11.8-8.5-16.8c-2.6-3.5-5.5-7.4-9.1-10c0.3-1.4-0.5-3-1.5-3.9
			c-1.4-1.3-3.4-1.2-4.9-0.2c-1.6,1-2.2,2.9-1.6,4.7c0.4,1.3,1.4,2.5,2.8,2.8c0.9,4.3,3.2,8.6,5.4,12.4c1.3,2.2,2.7,4.4,4.2,6.5
			c0,0.1,0.1,0.2,0.2,0.3c0.8,1.1,1.7,2.2,2.6,3.2c0,0.1,0.1,0.1,0.2,0.2c1.4,1.6,3,3,4.6,4.3c-0.4,1.3-0.1,2.6,0.7,3.7
			c0.7,0.9,1.4,1.4,2.3,1.9c0,0,0,0,0,0c-0.1,0-0.2,0.1-0.3,0.2c-1.5,2.1-0.9,4.1,0.5,6.1c1.3,1.9,3.3,2.6,5.3,1.5
			c0.9,1.4-0.1,2-1.5,3.1c-1.5,1.2-3.1,2.3-4.7,3.3c-4.2,2.8-8.5,5.4-12.9,8c-6.1,3.6-12.2,7.2-18.4,10.6c-0.3,0.2-0.4,0.6-0.2,0.9
			c1.2,1.7,2.6,3.7,4.8,4.3c0.7,0.2,1.4,0.2,2.2,0.1c0.3,0,0.8-0.3,1-0.3c0.7,0.1,0,0,0.6,0.3c1.3,0.7,1.7,1.2,3.3,0.5
			c1.9-0.8,3.6-2.3,5.3-3.5c4.2-3,8.3-5.9,12.6-8.8c2.3-1.6,4.7-3.1,7.1-4.5c1.2-0.7,2.4-1.4,3.8-1.9c2.1-0.7,3.3-0.5,4.4,1.3
			c-0.5,0.8-0.7,1.8-0.4,2.9c0.3,1,1,1.7,2,2c0.7,0.2,1.4-0.1,2,0.1c0.8,0.3,1.1,1,1.3,1.8c-0.4,0.3-0.8,0.5-1.2,0.8
			c-0.3,0.2-0.4,0.6-0.2,0.9c0.6,0.9,1.2,1.8,1.8,2.7c-3.8,2.8-1.1,8.1,2.7,7.8c0,0,0,0.1,0,0.1c0.6,1,1.3,2,1.9,3
			c0.1,0.1,0.2,0.2,0.4,0.3c0,0,0,0,0.1,0c0,0,0,0,0,0c0.1,0,0.3,0,0.5-0.1c0.1,0,0.1-0.1,0.2-0.1c4.3,6.7,8.6,13.3,13,20
			c17,26.2,34.1,52.4,51.1,78.7c5,7.8,10.1,15.5,15.1,23.3C220.4,692.3,222.6,693.7,224.5,695.4z M164,580.4
			c17,26.2,34,52.4,51.1,78.6c5.1,7.8,10.2,15.6,15.2,23.5c1.4,2.1,1.8,4.5,2.7,7.3c1.4,4.4,2.7,8.8,4.1,13.3c-3-4.6-6-9.2-9-13.8
			c-16.8-25.8-33.5-51.6-50.3-77.4c-10.4-16-20.8-32-31.2-48c1.5-1,3.1-2,4.6-3C155.6,567.3,159.8,573.8,164,580.4z M151.4,525.2
			c-0.1-0.8,0.4-1.4,1.1-1.8c0.8-0.6,1.6-0.7,2.4-0.3C153.7,523.7,152.6,524.5,151.4,525.2z M165.7,506.2c1.5,2.6,2.1,5.1-0.3,7.3
			c-3.1-0.8-7.2,2.8-9.8,0.2C158.9,511.1,162.3,508.7,165.7,506.2z M146.1,520.3c2.8-2,5.6-3.9,8.4-6c1.2,1.2,2.8,1.5,4.6,1.3
			c1.9-0.2,4.7-1.7,6.4-0.8c0.4,1.4-1.6,3-3.8,4.3c-3.5-1.3-6.9-1.5-10.2,0.4c-2.4,1.3-4.1,3.4-6.2,5.1c-2.1,1.7-6.2,3.5-9,2.3
			C139.7,524.8,142.9,522.6,146.1,520.3z M96.9,491.4c-0.1-0.3-0.3-0.5-0.6-0.5c0,0,0,0-0.1,0c-1.1,0-1.8-1.1-2.1-2
			c-0.4-1.4,0.2-2.6,1.4-3.3c2.1-1.1,4.8,0.9,4,3.2c-0.1,0.1-0.1,0.3,0,0.4c0,0.1,0.1,0.2,0.3,0.3c0.2,0.1,0.3,0.3,0.5,0.4
			c-0.3,1.8-1.3,3.2-2.7,4.4C97.3,493.3,97,492.4,96.9,491.4z M98.1,495.6c1.6-1.2,2.9-2.8,3.4-4.7c0.6,0.6,1.3,1.1,1.9,1.8
			c0,0.1,0,0.1-0.1,0.2c-0.5,2.4-2,4.3-4,5.7C98.9,497.5,98.5,496.6,98.1,495.6z M99.9,499.7c2.1-1.5,3.8-3.5,4.5-5.9
			c0.7,0.8,1.4,1.6,2,2.4c-0.9,2.7-2.8,4.7-5.1,6.3C100.9,501.5,100.4,500.6,99.9,499.7z M102.2,503.8c-0.1-0.1-0.1-0.2-0.2-0.3
			c2.3-1.6,4.3-3.6,5.4-6.2c0.5,0.7,1.1,1.4,1.6,2.1c0,0,0,0,0,0.1c0,0-0.1,0.1-0.1,0.2c-0.9,2.8-3,4.9-5.3,6.6
			C103.1,505.4,102.6,504.6,102.2,503.8z M104.3,507.3c2.4-1.7,4.5-3.9,5.6-6.6c0.6,0.8,1.1,1.6,1.7,2.5c0,0,0,0,0,0
			c-1,2.8-3.1,5-5.5,6.7C105.4,509.1,104.9,508.2,104.3,507.3z M106.8,511c2.4-1.7,4.4-3.8,5.6-6.4c0.5,0.8,1,1.6,1.4,2.5
			c-0.9,2.7-2.8,4.7-5,6.4C108.1,512.6,107.5,511.8,106.8,511z M112,516.6c-0.8-0.7-1.6-1.4-2.3-2.2c2.1-1.6,3.9-3.4,4.9-5.8
			c0.4,0.8,0.8,1.6,1.1,2.5C115.2,513.4,113.8,515.2,112,516.6z M113.9,518.2c-0.3-0.2-0.6-0.5-0.9-0.7c1.5-1.2,2.8-2.6,3.5-4.4
			c0.3,0.9,0.6,1.9,0.8,2.9c0,0.1,0,0.1,0.1,0.2C116.6,517.1,115.3,518.1,113.9,518.2C113.9,518.2,113.9,518.2,113.9,518.2z
			 M114.2,519.5c1.7-0.2,3.2-1.3,4.2-2.7c2.4,0.5,2.7,2.7,2.7,4.8c-1.1,0.9-2.1,1.8-3.5,2.4C116,523.3,113.3,521.8,114.2,519.5z
			 M92,561.1c-3,1.3-5-0.3-6.7-2.7c3.7-2,7.3-4.1,10.9-6.2C97.5,555.6,92.6,557.9,92,561.1z M93.3,561.8c-0.1-2,2.4-3.9,3.3-5.6
			c0.9-1.5,1.3-3.1,0.7-4.7c3-1.7,5.9-3.5,8.8-5.2c3.4-2,6.7-4.1,10-6.3c0,3.4-3.9,6.5-6.5,7.7c-2.2,1-4.4,1.7-6.3,3.2
			c-3.1,2.3-4.3,5.5-4.5,9.2C96.7,561.5,94.4,562.8,93.3,561.8z M105.1,555.4c-0.1-0.9,0.4-1.6,1.2-2.1c0.7-0.4,1.4-0.7,2.1-0.2
			C107.3,553.8,106.2,554.6,105.1,555.4z M127.5,543c-1.6-0.3-3.9,0.6-5.2,1.2c-3.5,1.7-6.9,4.1-10.1,6.3c-0.9,0.6-1.7,1.2-2.6,1.8
			c0,0,0,0-0.1-0.1c-1.2-1-2.7-0.8-3.9,0c-1.5,0.9-2.2,2.4-1.7,4c-0.6,0.4-1.3,0.9-1.9,1.3c-0.4,0.3-1.1,0.9-1.9,1.5
			c0.4-3,1.6-5.5,4.2-7.3c2.3-1.6,5.2-2.3,7.6-3.7c2.9-1.7,5.9-5.3,5.5-8.9c0.6-0.4,1.2-0.9,1.8-1.3c2.5-1.8,5.4-3.4,2.9-6.5
			c-0.3-0.4-0.9-0.3-1.1,0c0,0-0.1,0-0.1,0.1c-1.6,0.9-2.9,0.1-3.8-1.3c-0.9-1.4-1.5-2.7-0.5-4.3c0,0,0,0,0-0.1c0,0,0,0,0.1,0
			c1.5-0.3,2.9-1.1,4.2-2c0.9-0.6,1.6-1.7,2.5-2.2c1.2-0.7,2.5,0.3,3.2,1.4c1,1.6,1.9,3.3-0.1,4.6c-0.1,0.1-0.1,0.1-0.2,0.2
			c-0.4,0.1-0.6,0.5-0.4,1c0.9,1.5,1.6,2.6,3.3,2.1c1.4-0.4,2.7-1.2,3.9-1.9c0.6-0.4,1.3-0.8,1.9-1.1c3.1,1.8,7.6,0.5,10.3-1.4
			c2.4-1.7,4.2-4.2,6.9-5.6c2.6-1.5,5.3-1.5,8-0.6c-0.9,0.5-1.6,0.9-2.1,1.1c-0.7,0.4-1.3,0.8-2,1.2c-1.3-1.2-3-1.1-4.4-0.1
			c-1.2,0.8-2,2.1-1.6,3.6c0,0,0,0,0,0.1c-0.8,0.5-1.6,1-2.4,1.4c-3.4,2.1-7.1,4.3-10.2,6.9c-2.5,2.1-3.3,4.1-1.9,6.8
			c0,0-0.1,0-0.1,0c-0.5,0.3-0.8,0.8-1.1,1.3c-0.2,0.4-0.4,0.9-0.7,1.2c-0.6,0.7-1.4,0.6-2.2,0.7c-0.7,0.1-1.3,0.4-1.8,0.8
			C129.2,544.1,128.6,543.2,127.5,543z M135.8,546.3c0.2,0.5,0.5,1.5-0.3,1.7c-1.1,0.2-1.9-1.7-2-2.7c0.3-0.1,0.6-0.2,0.9-0.5
			C135,545.1,135.5,545.7,135.8,546.3z M132.7,549.8c-1.1-0.2-2.4,0.3-2.9-1c-0.6-1.4,0.5-3,1.9-3.2c0.2,0,0.3,0,0.5-0.1
			c0.3,1.8,2,4.6,4,3.6c2.4-1.1,0.8-4.2-0.9-5.4c0.3-0.5,0.5-1,0.9-1.3c0.2-0.2,0.4-0.3,0.7-0.4c0.1,0,0.1,0,0.2-0.1
			c0.6-0.2,1.4,0,1.9,0.4c1.5,1.3-0.2,2.7-0.1,4.2c0.1,0.9,0.6,1.6,1.2,2.2c-1.7,1.1-3.4,2.2-5.1,3.3
			C134.6,551,133.9,550,132.7,549.8z M133.8,554.4c2.8-1.8,5.7-3.6,8.5-5.5c0.4,0.6,0.8,1.3,1.2,1.9c-2.8,1.8-5.7,3.6-8.5,5.5
			C134.6,555.6,134.2,555,133.8,554.4z M134.8,563.2c-1.7-1.5-1.6-3.5,0.1-4.9c2.1-1.8,4.7-3.1,7-4.6c1.1-0.7,2.2-1.7,3.4-2.2
			c1.4-0.6,2.7-0.9,3.8,0.3c1.2,1.4,1.6,3.1-0.3,4.5c-2.4,1.6-4.8,3.1-7.3,4.7c-1,0.7-2.1,1.5-3.2,2.1
			C137.1,563.8,135.9,564.2,134.8,563.2z M139.5,566.9c-0.4-0.6-0.8-1.3-1.2-1.9c3.9-2.5,7.9-5.1,11.8-7.7c0.4,0.6,0.8,1.3,1.2,1.9
			C147.4,561.7,143.5,564.3,139.5,566.9z M175.5,620.7c-11.5-17.7-23-35.5-34.5-53.2c1.5-1,3.1-2,4.6-3c3.7,5.8,7.5,11.5,11.2,17.3
			c16.8,25.8,33.5,51.6,50.3,77.4c9.6,14.9,19.3,29.7,28.9,44.6c-4.1-3.6-8.3-7.2-12.4-10.9c-2.2-1.9-2.9-2.6-4.5-5
			C204.6,665.5,190.1,643.1,175.5,620.7z"/>
		<ellipse transform="matrix(0.8387 -0.5446 0.5446 0.8387 -289.6616 139.1403)" cx="90.1" cy="558.6" rx="1.3" ry="1.3"/>
		<path d="M132.2,542.7c0.5-0.4-2.3-4.4-2-5.9c0.3-1.5,3.5-3.1,3.2-3.6c-0.4-0.6-3.1,1.7-4.6,1.4c-1.5-0.3-4-4.6-4.6-4.3
			c-0.5,0.4,2.3,4.7,2,5.9c-0.3,1.3-3.5,3.2-3.2,3.6c0.3,0.5,3.2-1.7,4.6-1.4C129,538.7,131.7,543.1,132.2,542.7z"/>
		<ellipse transform="matrix(0.5446 -0.8387 0.8387 0.5446 -273.3835 517.7444)" cx="340.1" cy="510.6" rx="1.3" ry="1.3"/>
		<path d="M420,557.6c-6.2-3.4-12.3-7-18.4-10.6c-4.3-2.6-8.7-5.2-12.9-8c-1.6-1.1-3.2-2.1-4.7-3.3c-1.4-1.1-2.4-1.6-1.5-3.1
			c2.1,1.1,4,0.3,5.3-1.5c1.4-2,2-4,0.5-6.1c-0.1-0.1-0.2-0.2-0.3-0.2c0,0,0,0,0,0c0.9-0.4,1.6-1,2.3-1.9c0.8-1.1,1.1-2.4,0.7-3.7
			c1.7-1.3,3.2-2.7,4.6-4.3c0.1-0.1,0.1-0.1,0.2-0.2c0.9-1,1.8-2.1,2.6-3.2c0.1-0.1,0.2-0.2,0.2-0.3c1.5-2.1,2.9-4.3,4.2-6.5
			c2.2-3.8,4.5-8,5.4-12.4c1.4-0.3,2.4-1.5,2.8-2.8c0.6-1.8-0.1-3.7-1.6-4.7c-1.5-1-3.5-1-4.9,0.2c-1,0.9-1.8,2.5-1.5,3.9
			c-3.6,2.6-6.5,6.5-9.1,10c-3.7,5-7,10.6-8.5,16.8c-1.5,0.2-2.6,1-3.3,2.3c-0.5,0.9-0.6,1.8-0.6,2.7c-1-0.8-2.6-0.7-3.7,0
			c-1.3,0.8-2.2,2.7-2.7,4.1c-0.5,1.7,0.2,2.9,1.5,3.9c-1.1,1.5-1.7,1-3.5,0.1c-1.7-0.9-3.3-1.9-5-2.9c-4.3-2.7-8.4-5.6-12.5-8.5
			c-5.8-4.1-11.5-8.3-17.2-12.5c-0.3-0.2-0.7-0.1-0.9,0.2c-1.1,1.7-2.2,3.7-2,5.8c0.1,1.3,1.6,2.8,1.6,3.5c0,0.7-0.5,1-0.4,1.8
			c0.1,0.6,0.5,1.1,0.9,1.5c1.5,1.5,3.6,2.5,5.4,3.5c4.2,2.5,8.5,5,12.7,7.6c2.3,1.4,4.6,2.9,6.8,4.5c1.2,0.8,2.5,1.6,3.5,2.6
			c1.7,1.7,2,2.9,0.9,4.9c-0.7-0.1-1.3,0.1-1.9,0.3c-1,0.5-1.8,1.4-1.9,2.6c0,0.6,0.1,1.1,0.3,1.6c0.3,0.8,0.7,1.1,0.1,2.1
			c-0.2,0.3-0.4,0.5-0.7,0.8c-0.3-0.2-0.6-0.4-0.9-0.6c-0.3-0.2-0.7-0.1-0.9,0.2c-0.6,0.9-1.2,1.8-1.8,2.7c0,0,0,0,0,0
			c-2.3-1.3-4.2-0.9-5.7,1.4c-1.1,1.6-1.1,3.1-0.3,4.4c0,0,0,0,0,0c-0.6,1-1.3,2-1.9,3c-0.2,0.3-0.1,0.7,0.2,0.9
			c0.1,0,0.1,0.1,0.2,0.1c-11.6,17.9-23.2,35.8-34.8,53.7c-14.5,22.3-28.9,44.6-43.4,66.8c-1.4,2.2-2,3.7-2.8,6.3
			c-2.1,6.8-4.2,13.5-6.3,20.3c0,0,0,0,0,0c0,0,0,0.1,0,0.1c0,0,0,0.1,0,0.1c0,0,0,0.1,0,0.1c0.1,0.3,0.4,0.5,0.7,0.5
			c0,0,0.1,0,0.1,0c0,0,0.1,0,0.1,0c0,0,0.1,0,0.1-0.1c0,0,0,0,0,0c4.7-4.1,9.5-8.3,14.2-12.4c1.9-1.7,4.1-3.1,5.5-5.3
			c5-7.8,10.1-15.5,15.1-23.3c17-26.2,34.1-52.4,51.1-78.7c4.3-6.7,8.6-13.3,13-20c0.1,0,0.1,0.1,0.2,0.1c0.2,0.1,0.3,0.1,0.5,0.1
			c0,0,0,0,0,0c0,0,0,0,0.1,0c0.1,0,0.3-0.1,0.4-0.3c0.6-1,1.3-2,1.9-3c0,0,0-0.1,0-0.1c3.9,0.3,6.5-4.9,2.7-7.8
			c0.6-0.9,1.2-1.8,1.8-2.7c0.2-0.3,0.1-0.7-0.2-0.9c-0.4-0.3-0.8-0.5-1.2-0.8c0.2-0.7,0.6-1.5,1.3-1.8c0.6-0.2,1.4,0.1,2-0.1
			c1-0.3,1.7-1,2-2c0.3-1.1,0.1-2.1-0.4-2.9c1.1-1.8,2.2-1.9,4.4-1.3c1.4,0.4,2.6,1.1,3.8,1.9c2.4,1.4,4.8,3,7.1,4.5
			c4.3,2.8,8.4,5.8,12.6,8.8c1.7,1.2,3.4,2.7,5.3,3.5c1.6,0.7,2,0.2,3.3-0.5c0.6-0.4-0.1-0.2,0.6-0.3c0.2,0,0.7,0.2,1,0.3
			c0.7,0.1,1.5,0.1,2.2-0.1c2.1-0.6,3.6-2.5,4.8-4.3C420.4,558.2,420.3,557.8,420,557.6z M404.1,489.5c0.1-0.1,0.2-0.2,0.3-0.3
			c0-0.1,0-0.3,0-0.4c-0.7-2.3,2-4.3,4-3.2c1.2,0.7,1.8,1.9,1.4,3.3c-0.3,0.9-1,2-2.1,2c0,0,0,0-0.1,0c-0.3,0-0.5,0.1-0.6,0.5
			c-0.2,1-0.5,1.9-0.8,2.9c-1.4-1.1-2.4-2.5-2.7-4.4C403.8,489.8,403.9,489.7,404.1,489.5z M402.5,490.8c0.5,2,1.8,3.5,3.4,4.7
			c-0.4,1-0.8,1.9-1.2,2.9c-2-1.4-3.5-3.3-4-5.7c0-0.1,0-0.1-0.1-0.2C401.2,492,401.8,491.4,402.5,490.8z M399.5,493.7
			c0.7,2.5,2.4,4.4,4.5,5.9c-0.5,0.9-1,1.8-1.5,2.7c-2.2-1.6-4.2-3.6-5.1-6.3C398.2,495.3,398.8,494.5,399.5,493.7z M395,499.4
			c0.5-0.7,1-1.4,1.6-2.1c1.1,2.6,3.1,4.6,5.4,6.2c-0.1,0.1-0.1,0.2-0.2,0.3c-0.5,0.8-0.9,1.6-1.4,2.4c-2.3-1.7-4.4-3.8-5.3-6.6
			C395,499.6,395,499.5,395,499.4C395,499.5,395,499.5,395,499.4z M394,500.7c1.1,2.7,3.2,4.9,5.6,6.6c-0.6,0.9-1.1,1.7-1.7,2.6
			c-2.4-1.7-4.5-3.8-5.5-6.7c0,0,0,0,0,0C392.9,502.4,393.5,501.5,394,500.7z M391.5,504.5c1.2,2.6,3.2,4.7,5.6,6.4
			c-0.6,0.8-1.3,1.6-2,2.4c-2.2-1.6-4.2-3.7-5-6.4C390.6,506.2,391,505.4,391.5,504.5z M389.3,508.6c1.1,2.4,2.9,4.2,4.9,5.8
			c-0.7,0.8-1.5,1.5-2.3,2.2c-1.9-1.4-3.3-3.2-3.8-5.5C388.6,510.2,388.9,509.4,389.3,508.6z M386.7,515.9c0.2-1,0.5-1.9,0.8-2.9
			c0.7,1.7,2,3.2,3.5,4.4c-0.3,0.2-0.6,0.5-0.9,0.7c0,0,0,0,0,0c-1.4-0.1-2.7-1.1-3.4-2.1C386.6,516.1,386.6,516,386.7,515.9z
			 M385.5,516.8c1,1.4,2.5,2.5,4.2,2.7c0.9,2.3-1.7,3.8-3.5,4.5c-1.3-0.6-2.4-1.4-3.5-2.4C382.8,519.5,383.1,517.3,385.5,516.8z
			 M338.3,506.2c3.3,2.5,6.7,5,10.1,7.4c-2.6,2.6-6.7-1-9.8-0.2C336.2,511.2,336.8,508.7,338.3,506.2z M342.2,519.2
			c-2.1-1.3-4.2-2.8-3.8-4.3c1.8-0.9,4.6,0.6,6.4,0.8c1.8,0.2,3.3-0.1,4.6-1.3c2.8,2,5.6,4,8.4,6c3.2,2.2,6.5,4.5,9.8,6.6
			c-2.9,1.2-6.9-0.6-9-2.3c-2.1-1.7-3.8-3.7-6.2-5.1C349.1,517.7,345.7,517.9,342.2,519.2z M349,523.1c0.8-0.5,1.6-0.3,2.4,0.3
			c0.6,0.4,1.2,1.1,1.1,1.8C351.4,524.5,350.2,523.7,349,523.1z M270.9,689.7c0.9-2.8,1.3-5.1,2.7-7.3c5.1-7.8,10.2-15.6,15.2-23.5
			c17-26.2,34-52.4,51.1-78.6c4.2-6.5,8.5-13.1,12.7-19.6c1.5,1,3.1,2,4.6,3c-10.4,16-20.8,32-31.2,48
			c-16.8,25.8-33.5,51.6-50.3,77.4c-3,4.6-6,9.2-9,13.8C268.2,698.6,269.6,694.2,270.9,689.7z M328.4,620.7
			c-14.5,22.4-29.1,44.8-43.6,67.2c-1.6,2.4-2.3,3.1-4.5,5c-4.1,3.6-8.3,7.2-12.4,10.9c9.6-14.9,19.3-29.7,28.9-44.6
			c16.8-25.8,33.5-51.6,50.3-77.4c3.7-5.8,7.5-11.5,11.2-17.3c1.5,1,3.1,2,4.6,3C351.5,585.2,339.9,602.9,328.4,620.7z M364.4,566.9
			c-3.9-2.6-7.9-5.1-11.8-7.7c0.4-0.6,0.8-1.3,1.2-1.9c3.9,2.6,7.9,5.1,11.8,7.7C365.2,565.6,364.8,566.2,364.4,566.9z M369.2,563.2
			c-1.1,1-2.3,0.5-3.6-0.1c-1.1-0.6-2.2-1.4-3.2-2.1c-2.4-1.6-4.8-3.1-7.3-4.7c-1.9-1.4-1.5-3.1-0.3-4.5c1.1-1.3,2.4-1,3.8-0.3
			c1.2,0.6,2.3,1.5,3.4,2.2c2.3,1.5,4.9,2.8,7,4.6C370.8,559.7,370.8,561.7,369.2,563.2z M368.9,556.2c-2.8-1.9-5.6-3.7-8.5-5.5
			c0.4-0.6,0.8-1.3,1.2-1.9c2.8,1.9,5.6,3.7,8.5,5.5C369.8,555,369.3,555.6,368.9,556.2z M374.2,548.8c-0.6,1.3-1.9,0.8-2.9,1
			c-1.2,0.3-1.9,1.2-2.2,2.3c-1.7-1.1-3.4-2.2-5.1-3.3c0.6-0.6,1.1-1.3,1.2-2.2c0.2-1.5-1.6-2.9-0.1-4.2c0.5-0.5,1.3-0.6,1.9-0.4
			c0.1,0,0.1,0,0.2,0.1c0.3,0.1,0.5,0.2,0.7,0.4c0.4,0.4,0.6,0.9,0.9,1.3c-1.7,1.2-3.3,4.2-0.9,5.4c2,0.9,3.7-1.8,4-3.6
			c0.2,0,0.3,0,0.5,0.1C373.7,545.8,374.8,547.4,374.2,548.8z M369.6,544.8c0.3,0.2,0.6,0.4,0.9,0.5c-0.1,1-0.9,2.9-2,2.7
			c-0.8-0.1-0.5-1.2-0.3-1.7C368.5,545.7,369,545.1,369.6,544.8z M395.5,553.1c0.7-0.4,1.5-0.2,2.1,0.2c0.8,0.5,1.3,1.2,1.2,2.1
			C397.8,554.6,396.6,553.8,395.5,553.1z M401.9,557.6c-0.6-0.4-1.3-0.9-1.9-1.3c0.6-1.7-0.2-3.1-1.7-4c-1.2-0.8-2.8-1-3.9,0
			c0,0,0,0-0.1,0.1c-0.9-0.6-1.7-1.2-2.6-1.8c-3.3-2.2-6.6-4.6-10.1-6.3c-1.3-0.6-3.7-1.5-5.2-1.2c-1.1,0.2-1.7,1.1-2.3,2.1
			c-0.5-0.4-1.2-0.7-1.8-0.8c-0.8-0.1-1.6-0.1-2.2-0.7c-0.3-0.3-0.5-0.8-0.7-1.2c-0.3-0.5-0.6-1-1.1-1.3c0,0-0.1,0-0.1,0
			c1.4-2.6,0.6-4.6-1.9-6.8c-3.1-2.6-6.8-4.7-10.2-6.9c-0.8-0.5-1.6-1-2.4-1.4c0,0,0,0,0-0.1c0.5-1.5-0.4-2.8-1.6-3.6
			c-1.4-1-3.1-1.1-4.4,0.1c-0.7-0.4-1.3-0.8-2-1.2c-0.5-0.3-1.2-0.7-2.1-1.1c2.7-0.8,5.4-0.8,8,0.6c2.6,1.5,4.4,3.9,6.9,5.6
			c2.7,1.9,7.2,3.2,10.3,1.4c0.6,0.4,1.3,0.8,1.9,1.1c1.2,0.7,2.5,1.6,3.9,1.9c1.8,0.5,2.4-0.6,3.3-2.1c0.3-0.4,0-0.8-0.4-1
			c0-0.1-0.1-0.1-0.2-0.2c-2-1.2-1.1-3-0.1-4.6c0.7-1.2,2-2.1,3.2-1.4c0.9,0.5,1.7,1.6,2.5,2.2c1.3,0.9,2.6,1.7,4.2,2c0,0,0,0,0.1,0
			c0,0,0,0,0,0.1c1.1,1.5,0.5,2.9-0.5,4.3c-0.9,1.4-2.2,2.3-3.8,1.3c-0.1,0-0.1,0-0.1-0.1c-0.2-0.3-0.8-0.4-1.1,0
			c-2.5,3.1,0.4,4.7,2.9,6.5c0.6,0.4,1.2,0.9,1.8,1.3c-0.4,3.6,2.6,7.1,5.5,8.9c2.4,1.4,5.2,2.1,7.6,3.7c2.6,1.8,3.8,4.3,4.2,7.3
			C403,558.4,402.4,557.9,401.9,557.6z M405.2,560.1c-0.2-3.7-1.4-6.9-4.5-9.2c-1.9-1.4-4.2-2.2-6.3-3.2c-2.7-1.2-6.5-4.3-6.5-7.7
			c3.3,2.2,6.6,4.2,10,6.3c2.9,1.8,5.9,3.5,8.8,5.2c-0.6,1.6-0.2,3.2,0.7,4.7c1,1.6,3.4,3.6,3.3,5.6
			C409.5,562.8,407.2,561.5,405.2,560.1z M411.9,561.1c-0.5-3.2-5.5-5.5-4.2-8.9c3.6,2.1,7.3,4.2,10.9,6.2
			C417,560.7,414.9,562.3,411.9,561.1z"/>
		<ellipse transform="matrix(0.5446 -0.8387 0.8387 0.5446 -279.9694 601.5013)" cx="413.9" cy="558.6" rx="1.3" ry="1.3"/>
		<path d="M377.8,536.2c-0.3-1.3,2.6-5.6,2-5.9c-0.5-0.4-3.1,3.9-4.6,4.3c-1.5,0.3-4.2-2-4.6-1.4c-0.4,0.6,2.8,2.2,3.2,3.6
			c0.3,1.5-2.6,5.6-2,5.9c0.5,0.4,3.2-4,4.6-4.3s4.3,1.9,4.6,1.4C381.2,539.3,378,537.5,377.8,536.2z"/>
		<path d="M246.9,604c0,4.7,2.3,6.2,5,6.2c2.8,0,5-1.5,5-6.2c0-4.7-5-36.6-5-36.6S246.9,599.4,246.9,604z"/>
		<path d="M201,338c0.9,0.4,1.8,0.8,2.7,1.2c0.5,0.2,1.1,0.5,1.6,0.7c0.1,0.1,0.2,0.1,0.2,0.1c0,0,0,0,0,0.1c1,1.7,1.2,4.2,1.8,6.1
			c0.1,0.4,0.7,0.4,0.8,0c0.6-1.9,0.9-4.4,1.8-6.1c0,0,0,0,0-0.1c0,0,0.1,0,0.1-0.1c0.5-0.3,1.2-0.5,1.7-0.8
			c0.9-0.4,1.8-0.8,2.7-1.2c0.4-0.2,0.2-0.6-0.1-0.7c-0.9-0.4-1.8-0.8-2.7-1.1c-1.1-0.5-1.7-0.5-2-1.5c-0.6-1.9-1.1-3.9-1.6-5.9
			c0,0,0,0,0-0.1c0,0,0,0,0-0.1c-0.1-0.1-0.2-0.2-0.3-0.2c-0.1,0-0.3,0-0.3,0.2c0,0,0,0.1,0,0.1c0,0,0,0,0,0c0,0,0,0,0,0
			c0,0,0,0,0,0c-0.5,1.9-1,3.9-1.5,5.9c-0.5,1.5-3.3,2.1-4.7,2.7C200.8,337.3,200.6,337.8,201,338z M206.4,335.4
			c0.6-1,0.7-2.7,1-3.7c0.1-0.5,0.3-0.9,0.4-1.4c0.1,0.5,0.3,0.9,0.4,1.4c0.3,1.1,0.4,2.7,1,3.7c0.6,1.1,2.7,1.7,4.2,2.2
			c-0.7,0.3-1.5,0.7-2.2,1c-0.6,0.3-1.5,0.5-1.9,1c-0.6,0.8-0.7,2.4-1,3.4c-0.2,0.6-0.3,1.1-0.5,1.7c-0.2-0.6-0.3-1.1-0.5-1.7
			c-0.3-0.9-0.4-2.6-1-3.4c-0.4-0.6-1.2-0.7-1.9-1c-0.7-0.3-1.5-0.7-2.2-1C203.8,337.1,205.8,336.5,206.4,335.4z"/>
		<path d="M201,382.7c0.9,0.4,1.8,0.8,2.7,1.2c0.5,0.2,1.1,0.5,1.6,0.7c0.1,0.1,0.2,0.1,0.2,0.1c0,0,0,0,0,0.1
			c1,1.7,1.2,4.2,1.8,6.1c0.1,0.4,0.7,0.4,0.8,0c0.6-1.9,0.9-4.4,1.8-6.1c0,0,0,0,0-0.1c0,0,0.1,0,0.1-0.1c0.5-0.3,1.2-0.5,1.7-0.8
			c0.9-0.4,1.8-0.8,2.7-1.2c0.4-0.2,0.2-0.6-0.1-0.7c-0.9-0.4-1.8-0.8-2.7-1.1c-1.1-0.5-1.7-0.5-2-1.5c-0.6-1.9-1.1-3.9-1.6-5.9
			c0,0,0,0,0-0.1c0,0,0,0,0-0.1c-0.1-0.1-0.2-0.2-0.3-0.2c-0.1,0-0.3,0-0.3,0.2c0,0,0,0.1,0,0.1c0,0,0,0,0,0c0,0,0,0,0,0
			c0,0,0,0,0,0c-0.5,1.9-1,3.9-1.5,5.9c-0.5,1.5-3.3,2.1-4.7,2.7C200.8,382,200.6,382.5,201,382.7z M206.4,380.2
			c0.6-1,0.7-2.7,1-3.7c0.1-0.5,0.3-0.9,0.4-1.4c0.1,0.5,0.3,0.9,0.4,1.4c0.3,1.1,0.4,2.7,1,3.7c0.6,1.1,2.7,1.7,4.2,2.2
			c-0.7,0.3-1.5,0.7-2.2,1c-0.6,0.3-1.5,0.5-1.9,1c-0.6,0.8-0.7,2.4-1,3.4c-0.2,0.6-0.3,1.1-0.5,1.7c-0.2-0.6-0.3-1.1-0.5-1.7
			c-0.3-0.9-0.4-2.6-1-3.4c-0.4-0.6-1.2-0.7-1.9-1c-0.7-0.3-1.5-0.7-2.2-1C203.8,381.8,205.8,381.2,206.4,380.2z"/>
		<path d="M298.1,334.5c-0.6-1.9-1-3.9-1.5-5.9c0,0,0,0,0,0c0,0,0,0,0,0c0,0,0,0,0,0c0,0,0-0.1,0-0.1c-0.1-0.1-0.2-0.2-0.3-0.2
			c-0.1,0-0.3,0.1-0.3,0.2c0,0,0,0,0,0.1c0,0,0,0,0,0.1c-0.5,2-1,4-1.6,5.9c-0.3,1-1,1-2,1.5c-0.9,0.4-1.8,0.8-2.7,1.1
			c-0.3,0.1-0.4,0.6-0.1,0.7c0.9,0.4,1.8,0.8,2.7,1.2c0.5,0.2,1.2,0.4,1.7,0.8c0.1,0,0.1,0.1,0.1,0.1c0,0,0,0,0,0.1
			c0.9,1.8,1.2,4.2,1.8,6.1c0.1,0.4,0.7,0.4,0.8,0c0.6-1.9,0.9-4.4,1.8-6.1c0,0,0-0.1,0-0.1c0,0,0.1,0,0.2-0.1
			c0.5-0.3,1.1-0.5,1.6-0.7c0.9-0.4,1.8-0.8,2.7-1.2c0.4-0.2,0.2-0.6-0.1-0.7C301.4,336.6,298.6,336,298.1,334.5z M299.5,338.6
			c-0.6,0.3-1.5,0.5-1.9,1c-0.6,0.8-0.7,2.4-1,3.4c-0.2,0.6-0.3,1.1-0.5,1.7c-0.2-0.6-0.3-1.1-0.5-1.7c-0.3-0.9-0.4-2.6-1-3.4
			c-0.4-0.6-1.2-0.7-1.9-1c-0.7-0.3-1.5-0.7-2.2-1c1.5-0.5,3.6-1.1,4.2-2.2c0.6-1,0.7-2.6,1-3.7c0.1-0.5,0.3-0.9,0.4-1.4
			c0.1,0.5,0.3,0.9,0.4,1.4c0.3,1.1,0.4,2.8,1,3.7c0.7,1.1,2.7,1.7,4.2,2.2C301,338,300.2,338.3,299.5,338.6z"/>
		<path d="M302.9,381.9c-1.5-0.6-4.3-1.2-4.7-2.7c-0.6-1.9-1-3.9-1.5-5.9c0,0,0,0,0,0c0,0,0,0,0,0c0,0,0,0,0,0c0,0,0-0.1,0-0.1
			c-0.1-0.1-0.2-0.2-0.3-0.2c-0.1,0-0.3,0.1-0.3,0.2c0,0,0,0,0,0.1c0,0,0,0,0,0.1c-0.5,2-1,4-1.6,5.9c-0.3,1-1,1-2,1.5
			c-0.9,0.4-1.8,0.8-2.7,1.1c-0.3,0.1-0.4,0.6-0.1,0.7c0.9,0.4,1.8,0.8,2.7,1.2c0.5,0.2,1.2,0.4,1.7,0.8c0.1,0,0.1,0.1,0.1,0.1
			c0,0,0,0,0,0.1c0.9,1.8,1.2,4.2,1.8,6.1c0.1,0.4,0.7,0.4,0.8,0c0.6-1.9,0.9-4.4,1.8-6.1c0,0,0-0.1,0-0.1c0,0,0.1,0,0.2-0.1
			c0.5-0.3,1.1-0.5,1.6-0.7c0.9-0.4,1.8-0.8,2.7-1.2C303.3,382.5,303.1,382,302.9,381.9z M299.5,383.3c-0.6,0.3-1.5,0.5-1.9,1
			c-0.6,0.8-0.7,2.4-1,3.4c-0.2,0.6-0.3,1.1-0.5,1.7c-0.2-0.6-0.3-1.1-0.5-1.7c-0.3-0.9-0.4-2.6-1-3.4c-0.4-0.6-1.2-0.7-1.9-1
			c-0.7-0.3-1.5-0.7-2.2-1c1.5-0.5,3.6-1.1,4.2-2.2c0.6-1,0.7-2.6,1-3.7c0.1-0.5,0.3-0.9,0.4-1.4c0.1,0.5,0.3,0.9,0.4,1.4
			c0.3,1.1,0.4,2.8,1,3.7c0.7,1.1,2.7,1.7,4.2,2.2C301,382.7,300.2,383,299.5,383.3z"/>
		<path d="M258.7,445.4c-0.9-0.4-1.8-0.8-2.7-1.1c-1.1-0.5-1.7-0.5-2-1.5c-0.6-1.9-1.1-3.9-1.6-5.9c0,0,0,0,0-0.1c0,0,0,0,0-0.1
			c-0.1-0.1-0.2-0.2-0.3-0.2c-0.1,0-0.3,0-0.3,0.2c0,0,0,0.1,0,0.1c0,0,0,0,0,0c0,0,0,0,0,0c0,0,0,0,0,0c-0.5,1.9-0.9,3.9-1.5,5.9
			c-0.5,1.5-3.3,2.1-4.7,2.7c-0.3,0.1-0.5,0.6-0.1,0.7c0.9,0.4,1.8,0.8,2.7,1.2c0.5,0.2,1.1,0.5,1.6,0.7c0.1,0.1,0.2,0.1,0.2,0.1
			c0,0,0,0,0,0.1c1,1.7,1.2,4.2,1.8,6.1c0.1,0.4,0.7,0.4,0.8,0c0.6-1.9,0.9-4.4,1.8-6.1c0,0,0,0,0-0.1c0,0,0.1,0,0.1-0.1
			c0.5-0.3,1.2-0.5,1.7-0.8c0.9-0.4,1.8-0.8,2.7-1.2C259.2,445.9,259,445.5,258.7,445.4z M255.3,446.8c-0.6,0.3-1.5,0.5-1.9,1
			c-0.6,0.8-0.7,2.4-1,3.4c-0.2,0.6-0.3,1.1-0.5,1.7c-0.2-0.6-0.3-1.1-0.5-1.7c-0.3-0.9-0.4-2.6-1-3.4c-0.4-0.6-1.2-0.7-1.9-1
			c-0.7-0.3-1.5-0.7-2.2-1c1.5-0.5,3.5-1.1,4.2-2.2c0.6-1,0.7-2.7,1-3.7c0.1-0.5,0.3-0.9,0.4-1.4c0.1,0.5,0.3,0.9,0.4,1.4
			c0.3,1.1,0.4,2.7,1,3.7c0.6,1.1,2.7,1.7,4.2,2.2C256.8,446.1,256.1,446.5,255.3,446.8z"/>
	</g>
</g>
</svg>
