<?xml version="1.0" encoding="utf-8"?>
<!-- Generator: Adobe Illustrator 21.1.0, SVG Export Plug-In . SVG Version: 6.00 Build 0)  -->
<svg version="1.1" xmlns="http://www.w3.org/2000/svg" xmlns:xlink="http://www.w3.org/1999/xlink" x="0px" y="0px"
	 viewBox="0 0 504 864" style="enable-background:new 0 0 504 864;" xml:space="preserve">
<g id="Слой_1">
</g>
<g id="Слой_2">
	<g>
		<path d="M503.8,18.2c-1.6-17.9-18.7-16.3-31.6-16.3c-45.9,0-91.8,0-137.6,0c-63.2,0-126.3,0-189.5,0c-40.6,0-81.2,0-121.8,0
			c-2.6,0-5.3-0.2-8,0.2c-9.5,1.2-15,9.2-15.2,18.2c-0.2,7.3,0,14.5,0,21.8c0,37.4,0,74.9,0,112.3c0,57,0,114.1,0,171.1
			c0,64.3,0,128.6,0,192.9c0,58.4,0,116.7,0,175.1c0,40.1,0,80.2,0,120.3c0,9.1,0,18.2,0,27.3c0,11.7,6.7,20.5,19.2,20.7
			c35.9,0.6,71.9,0,107.9,0c62.4,0,124.9,0,187.3,0c49.7,0,99.5,0,149.2,0c7.6,0,15.2,0,22.9,0c0.4,0,0.8-0.1,1.2-0.2
			c14.4-1.8,16.1-13.8,16.1-25.5c0-11.4,0-22.8,0-34.3c0-43.4,0-86.9,0-130.3c0-59.9,0-119.8,0-179.8c0-63.9,0-127.7,0-191.6
			c0-55.3,0-110.6,0-165.9c0-33.7,0-67.3,0-101C503.9,28.3,504.2,23.2,503.8,18.2z M486.6,852.8c-28.3,0-56.6,0-84.9,0
			c-59.9,0-119.8,0-179.7,0c-54,0-108,0-162,0c-13.1,0-26.1,0-39.2,0c-5.6,0-11-1.3-11.7-8.3c-0.2-1.5,0-3,0-4.5c0-26.5,0-53,0-79.5
			c0-50,0-100,0-149.9c0-61.8,0-123.6,0-185.4c0-61.4,0-122.7,0-184.1c0-48.9,0-97.7,0-146.6c0-24.2-0.8-48.6,0-72.7
			c0.2-5.3,1.6-10.1,8.3-10.8c2.2-0.2,4.5,0,6.7,0c14.8,0,29.6,0,44.5,0c55.6,0,111.3,0,166.9,0c58.9,0,117.8,0,176.7,0
			c18.9,0,37.9,0,56.8,0c8.1,0,24.7-3.1,25.9,8.4c0.5,5.2,0,10.8,0,16.1c0,13.5,0,27.1,0,40.6c0,45.5,0,91.1,0,136.6
			c0,60.1,0,120.2,0,180.3c0,62.6,0,125.1,0,187.7c0,52.8,0,105.6,0,158.4c0,31.4,0,62.7,0,94.1C494.8,840.3,496.9,852,486.6,852.8z
			"/>
		<path d="M460,790.9c1.2,0.1,2.4-0.7,2.4-2.2c0-23.7,0-47.4,0-71.1c0-56.4,0-112.8,0-169.2c0-68.7,0-137.4,0-206
			c0-59,0-117.9,0-176.9c0-19.6,0-39.2,0-58.8c0-8.9,1.3-19,0-27.9c-0.1-0.4,0-0.8,0-1.2c0-0.8-0.3-1.3-0.8-1.7
			c0.1-1.2-0.6-2.5-2.2-2.6c-13.1-0.5-25.3-13.8-25.8-26.7c0-0.5-0.2-0.8-0.4-1.1c-0.3-0.6-1-1.1-1.9-1.1c-40.5,0-80.9,0-121.4,0
			c-64.5,0-129,0-193.6,0c-14.9,0-29.7,0-44.6,0c-0.9,0-1.6,0.5-1.9,1.1c-0.2,0.3-0.3,0.7-0.4,1.2C69.1,59.5,57,72.8,43.9,73.3
			c-1.8,0.1-2.5,1.9-2,3.2c-0.2,0.3-0.2,0.6-0.2,1c0,23.7,0,47.4,0,71.1c0,56.4,0,112.8,0,169.2c0,68.7,0,137.4,0,206
			c0,59,0,117.9,0,176.9c0,19.6,0,39.2,0,58.8c0,8.9-1.3,19,0,27.9c0.1,0.4,0,0.8,0,1.2c0,0.9,0.5,1.6,1.1,1.9
			c0.3,0.2,0.7,0.3,1.2,0.4c13,0.5,25.3,13.3,25.8,26.2c0,0.5,0.2,0.8,0.4,1.1c0.3,0.6,1,1.1,1.9,1.1c40.5,0,80.9,0,121.4,0
			c64.5,0,129,0,193.6,0c14.9,0,29.7,0,44.6,0c0.9,0,1.6-0.5,1.9-1.1c0.2-0.3,0.3-0.7,0.4-1.2c0.5-12.9,12.7-25.7,25.8-26.2
			C459.6,791,459.8,790.9,460,790.9z M429.3,814.9c-39.8,0-79.6,0-119.3,0c-64.5,0-129,0-193.6,0c-14.2,0-28.3,0-42.5,0
			c-1.7-13.9-13.9-26.5-27.8-28.3c0-23,0-46,0-69.1c0-56.4,0-112.8,0-169.2c0-68.7,0-137.4,0-206c0-59,0-117.9,0-176.9
			c0-19.6,0-39.2,0-58.8c0-8.9,1.3-19,0-27.9c-0.1-0.4,0-0.8,0-1.2c14-1.8,26.1-14.9,27.8-28.7c39.8,0,79.5,0,119.3,0
			c64.5,0,129,0,193.6,0c14.2,0,28.3,0,42.5,0c1.7,14.1,14.3,27.4,28.5,28.8c0,23.7,0,47.3,0,71c0,56.4,0,112.8,0,169.2
			c0,68.7,0,137.4,0,206c0,59,0,117.9,0,176.9c0,19.6,0,39.2,0,58.8c0,8.6-1.2,18.4-0.1,27C443.6,788.1,431.1,800.9,429.3,814.9z"/>
		<path d="M240.9,80.3c0.2,0,0.3,0.1,0.3,0.4c0,0.2,0.3,0.4,1,0.5c0.6,0.1,1.1,0.4,1.5,0.9c0.4,0.5,0.7,1.1,0.7,1.6
			c0,0.5,0.1,1,0.3,1.6c0.2,0.6,0.4,0.9,0.5,0.9c0.1,0,0.2,0.3,0.2,0.8c0,0.6,0.2,1.1,0.5,1.4c0.3,0.3,0.5,0.9,0.8,1.8
			c0.2,0.9,0.3,1.7,0.3,2.5c0,0.9,0.1,1.4,0.4,1.4c0.1,0.1,0.2,0.3,0.2,0.7c0,0.4,0.1,0.6,0.2,0.6c0.2,0.1,0.3,0.6,0.3,1.6
			c0,0.9,0.1,1.4,0.4,1.4c0.2,0,0.4,0.3,0.6,1c0.2,0.7,0.4,1,0.5,1c0.2,0,0.4,0.3,0.4,0.8c0.1,0.7,0.5,1,1.3,1c0.1,0,0.4,0,0.6-0.1
			c0.5-0.1,0.7-0.4,0.7-1.1c0-0.6,0.1-0.9,0.3-0.9c0.2,0,0.3-0.3,0.3-0.9c0-0.6,0.1-0.9,0.3-0.9c0.2-0.1,0.3-0.6,0.3-1.5
			c0-0.9,0.2-1.6,0.6-1.9c0.5-0.5,0.8-0.7,1.1-0.8c0.3-0.1,0.4-0.5,0.4-1.3c0-0.8,0.1-1.2,0.4-1.4c0.2-0.1,0.4-0.6,0.6-1.5
			c0.2-0.9,0.3-1.4,0.4-1.5c0.3-0.2,0.4-0.5,0.4-0.9c0-0.4,0.2-0.6,0.7-0.7c0.4,0,0.6-0.3,0.6-0.7c0-0.2-0.1-0.6-0.1-1
			c0-1,0.2-1.5,0.6-1.5c0.4,0,0.5-0.3,0.5-0.8c0-0.5,0.2-0.9,0.6-1.4c0.4-0.4,0.9-0.7,1.6-0.8c0.8-0.2,1.2-0.6,1.2-1.4
			c0-0.1,0-0.4-0.1-0.7l-0.1-0.6h-3.7c-2.5,0-3.7,0.1-3.7,0.3c0,0.2-0.1,0.3-0.3,0.3c-0.3,0-0.6,0.2-0.9,0.6
			c-0.4,0.5-0.4,0.7-0.2,0.7c0.3,0,0.5,0.1,0.5,0.4c0.1,0.3,0.5,0.4,1.1,0.4c0.6,0,1,0.2,1.1,0.7c0.1,0.5,0.1,0.7-0.1,0.8
			c-0.2,0.1-0.3,0.5-0.3,1.3c0,0.7-0.1,1.2-0.4,1.3c-0.2,0.1-0.3,0.3-0.3,0.7c0,0.1,0.1,0.2,0.1,0.4c0,0.5-0.1,0.9-0.3,1.4
			c-0.2,0.5-0.4,0.8-0.7,0.8c-0.4,0.1-0.5,0.4-0.5,0.9c0,0.5-0.1,0.9-0.3,1.1c-0.2,0.2-0.4,0.8-0.4,1.7c-0.1,1-0.3,1.5-0.6,1.5
			c-0.4,0-0.5,0.2-0.4,0.5c0,0.2,0,0.4,0,0.4c-0.1,0.1-0.2,0.1-0.4,0.1c-0.4,0-0.7-0.1-0.9-0.2c-0.5-0.3-0.7-1.2-0.8-2.9
			c0-0.7-0.1-1.2-0.4-1.4c-0.2-0.2-0.3-0.7-0.3-1.6c0-1.3-0.3-2.2-0.9-2.6c-0.2-0.1-0.2-0.3,0.1-0.4c0.1,0,0.2-0.2,0.3-0.4
			c0.1-0.2,0.1-0.5,0.1-0.7c0-0.2-0.1-0.3-0.2-0.3c-0.1,0-0.3-0.3-0.4-0.8c-0.1-0.6-0.4-0.9-0.7-0.9c-0.3-0.1-0.4-0.2-0.4-0.3
			c0-0.4,0.5-0.5,1.4-0.5c1.3,0,1.9-0.2,1.9-0.7c0-0.2,0.1-0.4,0.3-0.4c0.2,0,0.1-0.3-0.3-0.8c-0.4-0.5-0.9-0.8-1.6-0.8
			c-0.7,0-1.1-0.1-1.2-0.3c-0.1-0.1-0.3-0.1-0.7,0.1c-0.4,0.2-0.6,0.2-0.7-0.1c-0.2-0.2-0.3-0.3-0.4-0.1c-0.1,0.2-0.5,0.3-1.1,0.3
			c-0.4,0-0.6,0-0.8-0.1c-0.1-0.1-0.2-0.3-0.3-0.7c-0.1-0.5-0.3-0.8-0.7-0.8c-0.2,0-0.5,0.2-0.8,0.5c-0.4,0.4-0.7,0.5-1.2,0.5
			c-0.4,0-0.6,0.1-0.6,0.4c0,0.3-0.1,0.4-0.3,0.4c-0.2,0-0.3,0.2-0.3,0.6C240.6,80.1,240.7,80.3,240.9,80.3z"/>
		<path d="M166.4,783.9c0-0.3-0.1-0.5-0.2-0.6c-0.1-0.1-0.1-0.2,0-0.4c0.1-0.1,0.1-0.2,0.1-0.2c0-0.1-0.1-0.2-0.2-0.2
			c-0.1-0.1-0.2-0.2-0.2-0.3c0-0.2-0.1-0.3-0.3-0.5c-0.2-0.2-0.4-0.3-0.5-0.3c-0.1,0-0.2,0-0.2,0.1c0,0.1-0.3,0.1-0.9,0.2
			c-0.5,0.1-1.1,0.1-1.7,0.1c-0.6,0-0.9,0-1,0.1c-0.1,0-0.5,0.1-1.4,0.1c-0.9,0.1-1.8,0.2-2.7,0.3c-0.9,0.1-1.4,0.2-1.4,0.2
			c0,0,0,0.1,0,0.2c0,0.1,0,0.2,0.1,0.3c0.1,0.2,0.1,0.3,0.2,0.4c0.1,0,0.3,0.1,0.6,0.1c0.5,0,0.9,0.1,1,0.3
			c0.1,0.2,0.2,0.7,0.2,1.6c0,0.9-0.1,1.4-0.2,1.5c-0.1,0.1-0.1,0.2,0,0.4c0.1,0.3,0.2,0.5,0,0.7c-0.1,0.2-0.2,0.3-0.3,0.3
			c-0.1,0,0,0.1,0.1,0.2c0.1,0.1,0.1,0.3,0.1,0.6c0,0.1,0,0.4-0.1,0.8c-0.1,1.4-0.2,2.3-0.2,2.6c-0.1,0.4-0.1,0.5-0.3,0.6
			c-0.2,0.1-0.5,0.3-0.8,0.6l-0.5,0.6h5v-0.5c0-0.2,0-0.4-0.1-0.4c0-0.1-0.1-0.1-0.3-0.1c-0.2,0-0.4,0-0.4-0.1s-0.1-0.1-0.2-0.1
			s-0.2-0.1-0.3-0.3c0-0.1,0-0.4,0-1.2c0-1.2,0-2.1,0.1-2.8c0-0.1,0.5-0.1,1.4-0.1c0.8,0,1.3,0.1,1.5,0.2c0.3,0.1,0.4,0.4,0.4,0.9
			c0,0.3,0,0.5,0.1,0.5c0.1,0,0.1-0.1,0.3-0.2c0.1-0.1,0.3-0.2,0.5-0.1c0.2,0.1,0.3,0,0.3-0.2c0-0.2,0-0.3,0.1-0.4
			c0.1-0.1,0.1-0.2,0-0.2c-0.1-0.1-0.2-0.3-0.2-0.6c0-0.4,0.1-0.7,0.2-0.8c0.1-0.1,0.1-0.1,0.1-0.2c0-0.1,0-0.1-0.1-0.2
			c-0.1-0.1-0.1-0.2-0.1-0.2c0-0.1,0-0.1,0.1-0.2c0.2-0.1,0.2-0.2,0.2-0.4c0-0.3-0.4-0.4-1.1-0.4c-0.4,0-0.6,0.2-0.6,0.5
			c0,0.1,0,0.2,0.1,0.3c0.1,0.2,0,0.4,0,0.5c-0.1,0.1-0.4,0.2-1,0.3c-0.6,0.1-1.1,0.2-1.6,0.2h-0.5v-0.6c0-0.4,0.1-0.6,0.2-0.7
			c0.1-0.1,0.2-0.2,0.2-0.4c0-0.3-0.1-0.5-0.2-0.8c-0.1-0.2-0.2-0.4-0.2-0.4c0-0.1,0.1-0.1,0.2-0.3c0.2-0.2,0.3-0.4,0.2-0.6
			c0-0.1,0-0.1,0-0.2c0-0.1,0.1-0.2,0.4-0.3c0.3-0.1,0.8-0.1,1.6-0.1c0.7,0,1.1-0.1,1.1-0.1c0.3,0,0.5,0.1,0.7,0.2
			c0.2,0.2,0.3,0.3,0.5,0.4c0.2,0.1,0.3,0.2,0.3,0.3c0,0.1,0.1,0.3,0.3,0.4c0.2,0.1,0.4,0.3,0.5,0.6c0.1,0.4,0.4,0.5,0.8,0.5
			c0.1,0,0.2,0,0.3-0.1c0.1-0.1,0.2-0.2,0.2-0.6c0-0.3-0.1-0.5-0.2-0.5C166.5,784.4,166.4,784.2,166.4,783.9z"/>
		<path d="M179.7,782c-0.1-0.1-0.7-0.1-1.8-0.1c-1,0-1.5,0-1.5,0.1c0,0.1-0.2,0.1-0.5,0.1c-0.3,0-0.5,0.1-0.5,0.2
			c0,0.1,0,0.2-0.1,0.2c-0.1,0-0.1,0.1-0.1,0.3c0,0.3,0.1,0.4,0.2,0.5c0.1,0.1,0.2,0.5,0.2,1.3c0,0.8,0,1.2,0.1,1.3
			c0.1,0,0.1,0.4,0.1,1.1c0,0.7,0,1-0.1,1.1c-0.1,0-0.2,0.8-0.2,2.2c0,1.2-0.1,2-0.2,2.2c-0.1,0.2-0.4,0.4-0.9,0.5
			c-0.3,0-0.5,0.1-0.5,0.1c-0.1,0.1-0.1,0.2-0.1,0.4c0,0.3,0.1,0.5,0.2,0.5c0.2,0,0.3,0.1,0.5,0.2c0.2,0.2,0.3,0.2,0.3,0.1
			c0.1-0.1,0.8-0.2,2.1-0.2c1.1,0,1.6,0.1,1.6,0.2c0,0.1,0.1,0.1,0.3,0.1c0.2,0,0.3,0,0.3-0.1c0-0.1,0.1-0.2,0.3-0.3
			c0.2-0.1,0.3-0.2,0.3-0.3c0-0.5-0.4-0.7-1-0.8l-0.6-0.1l0.1-3.5c0-2.3,0.1-3.5,0.2-3.6c0.1-0.1,0.1-0.4,0.1-1
			c0.1-1.1,0.2-1.6,0.4-1.6c0.1,0,0.2,0,0.2-0.1c0-0.1,0.1-0.2,0.4-0.2c0.2,0,0.4-0.1,0.5-0.2c0.1-0.1,0.2-0.2,0.2-0.4
			C180,782.3,179.9,782.1,179.7,782z M176.2,790.9c-0.1,0-0.2,0-0.2-0.1s0.1-0.1,0.2-0.1c0.1,0,0.2,0,0.2,0.1
			S176.4,790.9,176.2,790.9z M177.1,787.1c-0.1,0-0.2-0.1-0.2-0.3c0-0.2,0.1-0.3,0.2-0.3c0.1,0,0.2,0.1,0.2,0.3
			C177.3,787,177.2,787.1,177.1,787.1z"/>
		<path d="M199,781h-2c-1.3,0-2,0-2,0.1c0,0.1-0.1,0.2-0.2,0.2c-0.1,0-0.3,0.1-0.5,0.4c-0.2,0.2-0.2,0.4-0.1,0.4
			c0.1,0,0.2,0.1,0.3,0.2c0.1,0.1,0.2,0.2,0.6,0.2c0.2,0,0.3,0,0.4,0.1c0.1,0.1,0.1,0.2,0.2,0.3c0.1,0.2,0,0.4-0.1,0.4
			c-0.1,0-0.2,0.3-0.2,0.6c0,0.4-0.1,0.6-0.2,0.7c-0.2,0.1-0.2,0.2-0.2,0.4c0,0,0,0.1,0,0.2c0,0.3-0.1,0.5-0.2,0.8
			c-0.1,0.3-0.2,0.4-0.4,0.5c-0.2,0.1-0.3,0.2-0.3,0.5c0,0.3,0,0.5-0.1,0.6c-0.1,0.1-0.2,0.4-0.2,0.9c-0.1,0.5-0.2,0.8-0.3,0.8
			c-0.1,0-0.2,0.1-0.2,0.2v0.2c0,0.1-0.1,0.2-0.2,0.2c-0.2,0-0.4,0-0.5-0.1c-0.2-0.2-0.4-0.7-0.4-1.5c0-0.3-0.1-0.5-0.2-0.8
			c-0.1-0.2-0.2-0.5-0.2-0.9c0-0.8-0.2-1.2-0.5-1.4c-0.1-0.1-0.1-0.1,0-0.2c0.1-0.1,0.2-0.2,0.2-0.5c0-0.2,0-0.3-0.1-0.3
			c-0.1,0-0.1-0.1-0.2-0.4c-0.1-0.3-0.2-0.4-0.4-0.5c-0.2-0.1-0.2-0.1-0.2-0.2c0-0.2,0.2-0.3,0.7-0.3c0.7,0,1.1-0.1,1.1-0.4
			c0-0.1,0.1-0.2,0.2-0.2s0.1-0.1-0.2-0.4c-0.2-0.3-0.5-0.4-0.8-0.4c-0.4,0-0.6-0.1-0.6-0.2c-0.1-0.1-0.2-0.1-0.4,0.1
			c-0.2,0.1-0.3,0.1-0.4,0c-0.1-0.1-0.2-0.2-0.2,0c-0.1,0.1-0.3,0.2-0.6,0.2c-0.2,0-0.3,0-0.4-0.1c-0.1-0.1-0.1-0.2-0.2-0.4
			c-0.1-0.3-0.2-0.4-0.4-0.4c-0.1,0-0.3,0.1-0.5,0.3c-0.2,0.2-0.4,0.3-0.6,0.3c-0.2,0-0.3,0.1-0.3,0.2c0,0.1,0,0.2-0.1,0.2
			c-0.1,0-0.1,0.1-0.1,0.4c0,0.2,0,0.4,0.1,0.4c0.1,0,0.1,0.1,0.1,0.2c0,0.1,0.2,0.2,0.5,0.3c0.3,0.1,0.6,0.2,0.8,0.5
			c0.2,0.3,0.4,0.6,0.4,0.9c0,0.3,0.1,0.5,0.2,0.9c0.1,0.3,0.2,0.5,0.3,0.5c0.1,0,0.1,0.2,0.1,0.5c0,0.3,0.1,0.5,0.3,0.7
			c0.2,0.2,0.3,0.5,0.4,1c0.1,0.5,0.2,0.9,0.2,1.4c0,0.5,0.1,0.7,0.2,0.8c0.1,0,0.2,0.1,0.1,0.3c0,0.2,0,0.3,0.1,0.4
			c0.1,0.1,0.2,0.4,0.2,0.9c0,0.5,0.1,0.8,0.2,0.8c0.1,0,0.2,0.2,0.3,0.6c0.1,0.4,0.2,0.6,0.3,0.6c0.1,0,0.2,0.1,0.3,0.4
			c0.1,0.4,0.3,0.6,0.7,0.6c0.1,0,0.2,0,0.3-0.1c0.2,0,0.3-0.1,0.3-0.1c0-0.1,0.1-0.2,0.1-0.4c0-0.3,0.1-0.5,0.2-0.5
			c0.1,0,0.1-0.2,0.1-0.5c0-0.3,0.1-0.5,0.2-0.5c0.1-0.1,0.2-0.3,0.2-0.8c0-0.5,0.1-0.8,0.4-1.1c0.1-0.1,0.2-0.2,0.4-0.3
			c0.2-0.1,0.3-0.2,0.3-0.3c0.1-0.1,0.1-0.3,0.1-0.6c0-0.4,0.1-0.6,0.2-0.8c0.1-0.1,0.2-0.3,0.3-0.8c0.1-0.5,0.2-0.7,0.3-0.8
			c0.1-0.1,0.2-0.3,0.2-0.5c0-0.2,0.1-0.4,0.4-0.4c0.1,0,0.1,0,0.2,0c0.1,0,0.1,0,0.1-0.1c0,0,0-0.1,0.1-0.1c0,0,0-0.1,0-0.1
			c0-0.1,0-0.3,0-0.5c0-0.6,0.1-0.8,0.3-0.8c0.2,0,0.3-0.1,0.3-0.4c0-0.3,0.1-0.5,0.4-0.7c0.2-0.2,0.5-0.4,0.8-0.4
			c0.4-0.1,0.7-0.3,0.7-0.8c0-0.1,0-0.2-0.1-0.4L199,781z"/>
		<path d="M206.2,792.1c0,0,0.1,0,0.1-0.1c0.1-0.2,0.1-0.3,0-0.3c-0.1,0-0.2,0.1-0.2,0.2C206.1,792,206.1,792.1,206.2,792.1z"/>
		<path d="M216.4,790.2c-0.1,0-0.3,0.2-0.5,0.5c-0.3,0.3-0.4,0.6-0.4,0.7c0,0.1-0.1,0.2-0.4,0.2c-0.1,0-0.2,0-0.3,0.1
			c0,0-0.1,0.1-0.1,0.1c0,0,0,0.1,0,0.3c0,0.2-0.1,0.3-0.4,0.3c0,0-0.1,0-0.1,0c-0.1,0-0.1,0-0.2,0c-0.2,0-0.4,0.1-0.6,0.3
			c-0.2,0.2-0.4,0.3-0.6,0.3c-0.1,0-0.2-0.1-0.2-0.2c0-0.1-0.1-0.1-0.4,0c-0.2,0.1-0.6,0.2-1.2,0.2c-0.5,0-0.7,0-0.7-0.1
			c0-0.1-0.1-0.1-0.2-0.1c-0.1,0-0.1-0.1-0.2-0.2c-0.1-0.2-0.1-0.3-0.1-0.4c0-0.1,0-0.2,0-0.3c0-0.2,0-0.4,0-0.6c0-0.3,0-0.5,0-0.8
			c0-0.3,0-0.5,0-0.8c0-0.3,0-0.5,0-0.6v-0.2c0-0.1,0.4-0.1,1.3-0.1c0.7,0,1.2,0.1,1.4,0.2c0.2,0.1,0.4,0.4,0.4,0.8
			c0,0.2,0,0.3,0.1,0.3c0,0,0.1,0,0.2,0c0.1-0.1,0.3-0.1,0.5-0.1c0.1,0,0.2,0,0.3-0.1c0-0.1,0.1-0.2,0.1-0.5c0-0.1,0-0.2,0-0.3
			c0-0.2,0-0.3,0-0.4v-0.2c0-0.3,0-0.6,0.1-0.7c0.1-0.1,0.1-0.3,0-0.4c-0.1-0.1-0.1-0.3,0.1-0.4c0.1-0.1,0.2-0.2,0.2-0.4
			c0-0.3-0.3-0.4-1-0.4c-0.4,0-0.6,0.2-0.6,0.5c0,0.1,0,0.2,0.1,0.3c0,0.2,0,0.4,0,0.5c-0.1,0.1-0.3,0.2-0.9,0.3
			c-0.5,0.1-1,0.1-1.5,0.1H210v-0.6c0-0.4,0.1-0.6,0.2-0.6c0.1,0,0.2-0.1,0.2-0.4c0-0.3-0.1-0.5-0.2-0.9c-0.1-0.2-0.2-0.4-0.1-0.4
			c0-0.1,0.1-0.1,0.2-0.3c0.2-0.1,0.3-0.3,0.2-0.5c0,0,0-0.1,0-0.2c0-0.1,0.1-0.3,0.4-0.3c0.3-0.1,0.7-0.1,1.5-0.2
			c0.7,0,1.1-0.1,1.1-0.1c0.3,0,0.5,0.1,0.6,0.2c0.1,0.2,0.3,0.3,0.5,0.4c0.2,0.1,0.3,0.2,0.3,0.3c0,0.1,0.1,0.2,0.3,0.3
			c0.2,0.1,0.3,0.2,0.3,0.3c0,0.2,0.1,0.3,0.3,0.5c0.2,0.2,0.4,0.2,0.6,0.2h0c0.3,0,0.4-0.2,0.4-0.6c0-0.2-0.1-0.3-0.2-0.5
			c-0.1-0.1-0.2-0.3-0.2-0.5c0-0.3-0.1-0.5-0.2-0.5c-0.1,0-0.1-0.1,0-0.4c0.1-0.1,0.1-0.2,0.1-0.3c0,0-0.1-0.1-0.1-0.1
			c-0.1-0.1-0.2-0.2-0.2-0.3c0-0.1-0.1-0.3-0.3-0.5c-0.2-0.2-0.4-0.3-0.6-0.1c-0.3,0.1-1.8,0.3-4.7,0.4h-0.7c-1.5,0-2.2-0.1-2.3-0.3
			c0-0.1-0.1-0.1-0.2-0.1c-0.1,0-0.2,0-0.2,0.1l0,0.1c0,0.1,0,0.1,0,0.1c0,0,0,0.1,0,0.2c0,0.1,0,0.2,0,0.2c0,0.2-0.1,0.3-0.3,0.3
			c-0.2,0.1-0.3,0.2-0.2,0.5c0.1,0.2,0.1,0.4,0.2,0.5c0.1,0.1,0.2,0.1,0.3,0.1c0.1,0,0.3,0,0.4,0c0.1,0,0.2,0,0.4,0
			c0.3,0,0.5,0.1,0.6,0.4c0.1,0.2,0.1,0.7,0.1,1.4c0,0.9-0.1,1.4-0.2,1.4c-0.1,0-0.1,0.2,0,0.4c0.1,0.2,0.1,0.4,0,0.6
			c-0.1,0.2-0.2,0.3-0.3,0.3c-0.1,0-0.1,0.1,0.1,0.2c0.1,0.1,0.1,0.3,0.1,0.6c0,0.5-0.1,1.5-0.2,2.8l-0.1,0.9h-0.6
			c-0.4,0-0.6,0.1-0.6,0.3c0,0.2-0.1,0.3-0.3,0.3c-0.1,0-0.2,0.1-0.2,0.3c0,0.3,0.1,0.5,0.3,0.6c0.2,0.1,0.3,0.2,0.3,0.4
			c0,0.1,0.2,0.1,0.7,0.1c0.5,0,0.8-0.1,0.9-0.3c0.1-0.1,0.5-0.2,1.2-0.2c0.5,0,0.9,0,1.3,0c0.7,0,1.1,0.1,1.2,0.2
			c0,0.1,0.2,0.1,0.4,0c0.2-0.1,0.7-0.2,1.5-0.2c0.8,0,1.3,0,1.5-0.1c0.2,0,0.3-0.1,0.5-0.3c0.2-0.2,0.3-0.3,0.2-0.5
			c0-0.2,0-0.3,0.1-0.4c0.1-0.1,0.2-0.3,0.2-0.8c0-0.3,0-0.5,0-0.6c0-0.1,0.1-0.1,0.2-0.1c0.2,0,0.3-0.2,0.3-0.5
			c0-0.2-0.1-0.4-0.2-0.6C216.7,790.3,216.5,790.2,216.4,790.2z"/>
		<path d="M248.3,785.7c-0.2-0.1-0.2-0.2-0.2-0.5c0-0.3,0-0.5-0.1-0.5c-0.1,0-0.1-0.1-0.1-0.4c0-0.3-0.1-0.4-0.2-0.4
			c-0.1,0-0.2-0.1-0.3-0.3c-0.1-0.2-0.2-0.3-0.3-0.4c-0.1-0.1-0.2-0.2-0.2-0.4c0-0.2-0.1-0.3-0.4-0.3c-0.7,0-1-0.1-1-0.4
			c0-0.1-0.1-0.2-0.2-0.2c-0.1,0-0.2,0-0.2-0.1c0-0.1-0.1-0.1-0.3-0.1c-0.2,0-0.3-0.1-0.4-0.2c0-0.1-0.5-0.2-1.5-0.2
			c-0.9,0-1.5,0.1-1.6,0.2c-0.1,0.1-0.2,0.2-0.4,0.2c-0.2,0-0.3,0.1-0.4,0.3c-0.1,0.2-0.3,0.4-0.6,0.4c-0.3,0-0.6,0.1-1.1,0.2
			c-0.5,0.1-0.7,0.3-0.8,0.5c0,0.2-0.2,0.4-0.5,0.7c-0.3,0.3-0.4,0.5-0.4,0.5c0,0.1-0.1,0.1-0.2,0.1c-0.1,0-0.2,0.1-0.3,0.4
			c-0.1,0.2-0.2,0.5-0.3,0.7c-0.2,0.3-0.2,0.8-0.2,1.8c0,1.2,0.1,2.1,0.4,2.9c0.5,1.4,0.9,2.2,1.2,2.3c0.2,0,0.3,0.1,0.3,0.3
			c0,0.2,0.2,0.2,0.4,0.2c0.2,0,0.4,0,0.4,0.1c0,0.1,0.1,0.1,0.3,0.1s0.3,0.1,0.3,0.4c0,0.2,0,0.3,0.1,0.4c0.1,0.1,0.2,0,0.4-0.1
			c0.1-0.1,0.2-0.1,0.3,0c0.2,0.1,0.9,0.2,2.2,0.2c1.1,0,1.7-0.1,1.7-0.2c0-0.1,0.3-0.2,0.7-0.2c0.4,0,0.6-0.1,0.6-0.2
			c0-0.2,0.1-0.3,0.2-0.3c0,0,0.2-0.1,0.4-0.3c0.3-0.2,0.4-0.3,0.5-0.3c0.1,0,0.2-0.1,0.2-0.3c0.1-0.2,0.2-0.3,0.3-0.3
			c0.1,0,0.2-0.1,0.3-0.3c0-0.2,0.2-0.3,0.4-0.3c0.2-0.1,0.3-0.1,0.3-0.2c0-0.1,0.1-0.1,0.2-0.1c0.1,0,0.2-0.2,0.2-0.6
			c0-0.3,0-0.5-0.1-0.5c-0.1,0-0.1-0.1,0-0.2c0.1-0.1,0.2-0.8,0.2-2.1c0-0.3,0-0.7,0-1.1C248.6,786,248.5,785.7,248.3,785.7z
			 M246.1,788.8c-0.1,0-0.2,0.2-0.2,0.4c0,0.3-0.1,0.4-0.2,0.5c-0.1,0.1-0.2,0.4-0.3,0.8c-0.1,0.4-0.1,0.6-0.3,0.6
			c-0.1,0-0.2,0-0.2,0.1c0,0.1-0.1,0.2-0.4,0.2c-0.3,0.1-0.4,0.2-0.4,0.3c0,0.1,0,0.2-0.1,0.2c-0.1,0.1-0.2,0.1-0.4,0.2
			c-0.1,0.1-0.2,0.1-0.3,0.1c0,0.1-0.2,0.1-0.4,0.1c-0.2,0-0.3,0.1-0.5,0.2c-0.1,0.1-0.2,0.1-0.4,0.1c-0.2,0-0.4,0-0.7-0.1
			c-0.5-0.1-1-0.3-1.3-0.6c-0.3-0.3-0.7-0.8-1-1.5c-0.3-0.5-0.4-0.9-0.5-1.1c0-0.2-0.1-0.7-0.1-1.4c0-0.7,0-1.1,0.1-1.4
			c0-0.2,0.1-0.5,0.3-0.8c0.3-0.5,0.6-0.9,1-1.3c0.4-0.4,0.8-0.6,1-0.7c0.3,0,0.5-0.1,0.5-0.3c0-0.1,0.1-0.2,0.2-0.2
			c0.1,0,0.2,0,0.2-0.1c0-0.1,0.1-0.1,0.3-0.1c0.2,0,0.3,0,0.3,0.1c0,0.1,0.3,0.1,0.9,0.1c0.5,0,0.8,0.1,0.8,0.2
			c0,0.1,0.1,0.2,0.3,0.3c0.2,0.1,0.3,0.2,0.3,0.3c0,0.1,0.1,0.2,0.3,0.3c0.3,0.1,0.5,0.4,0.5,0.8c0,0.2,0.1,0.5,0.3,0.8
			c0.2,0.3,0.3,0.7,0.3,1.1c0,0.5,0,0.7,0.1,0.8c0.1,0.1,0.1,0.2,0.1,0.4C246.3,788.6,246.2,788.7,246.1,788.8z"/>
		<path d="M266.1,783.9c0-0.3-0.1-0.5-0.2-0.6c-0.1-0.1-0.1-0.2,0-0.4c0.1-0.1,0.1-0.2,0.1-0.2c0-0.1-0.1-0.2-0.2-0.2
			c-0.1-0.1-0.2-0.2-0.2-0.3c0-0.2-0.1-0.3-0.3-0.5c-0.2-0.2-0.4-0.3-0.5-0.3c-0.1,0-0.2,0-0.2,0.1c0,0.1-0.3,0.1-0.9,0.2
			c-0.5,0.1-1.1,0.1-1.7,0.1c-0.6,0-0.9,0-1,0.1c-0.1,0-0.5,0.1-1.4,0.1c-0.9,0.1-1.8,0.2-2.7,0.3c-0.9,0.1-1.4,0.2-1.4,0.2
			c0,0,0,0.1,0,0.2c0,0.1,0,0.2,0.1,0.3c0.1,0.2,0.1,0.3,0.2,0.4c0.1,0,0.3,0.1,0.6,0.1c0.5,0,0.9,0.1,1,0.3
			c0.1,0.2,0.2,0.7,0.2,1.6c0,0.9-0.1,1.4-0.2,1.5c-0.1,0.1-0.1,0.2,0,0.4c0.1,0.3,0.2,0.5,0,0.7c-0.1,0.2-0.2,0.3-0.3,0.3
			c-0.1,0,0,0.1,0.1,0.2c0.1,0.1,0.1,0.3,0.1,0.6c0,0.1,0,0.4-0.1,0.8c-0.1,1.4-0.2,2.3-0.2,2.6c-0.1,0.4-0.1,0.5-0.3,0.6
			c-0.2,0.1-0.5,0.3-0.8,0.6l-0.5,0.6h5v-0.5c0-0.2,0-0.4-0.1-0.4c0-0.1-0.1-0.1-0.3-0.1c-0.2,0-0.4,0-0.4-0.1s-0.1-0.1-0.2-0.1
			c-0.1,0-0.2-0.1-0.3-0.3c0-0.1,0-0.4,0-1.2c0-1.2,0-2.1,0.1-2.8c0-0.1,0.5-0.1,1.4-0.1c0.8,0,1.3,0.1,1.5,0.2
			c0.3,0.1,0.4,0.4,0.4,0.9c0,0.3,0,0.5,0.1,0.5c0.1,0,0.1-0.1,0.3-0.2c0.1-0.1,0.3-0.2,0.5-0.1c0.2,0.1,0.3,0,0.3-0.2
			c0-0.2,0-0.3,0.1-0.4c0.1-0.1,0.1-0.2,0-0.2c-0.1-0.1-0.2-0.3-0.2-0.6c0-0.4,0.1-0.7,0.2-0.8c0.1-0.1,0.1-0.1,0.1-0.2
			c0-0.1,0-0.1-0.1-0.2c-0.1-0.1-0.1-0.2-0.1-0.2c0-0.1,0-0.1,0.1-0.2c0.2-0.1,0.2-0.2,0.2-0.4c0-0.3-0.4-0.4-1.1-0.4
			c-0.4,0-0.6,0.2-0.6,0.5c0,0.1,0,0.2,0.1,0.3c0.1,0.2,0,0.4,0,0.5c-0.1,0.1-0.4,0.2-1,0.3c-0.6,0.1-1.1,0.2-1.6,0.2h-0.5v-0.6
			c0-0.4,0.1-0.6,0.2-0.7c0.1-0.1,0.2-0.2,0.2-0.4c0-0.3-0.1-0.5-0.2-0.8c-0.1-0.2-0.2-0.4-0.2-0.4c0-0.1,0.1-0.1,0.2-0.3
			c0.2-0.2,0.3-0.4,0.2-0.6c0-0.1,0-0.1,0-0.2c0-0.1,0.1-0.2,0.4-0.3c0.3-0.1,0.8-0.1,1.6-0.1c0.7,0,1.1-0.1,1.1-0.1
			c0.3,0,0.5,0.1,0.7,0.2c0.2,0.2,0.3,0.3,0.5,0.4c0.2,0.1,0.3,0.2,0.3,0.3c0,0.1,0.1,0.3,0.3,0.4c0.2,0.1,0.4,0.3,0.5,0.6
			c0.1,0.4,0.4,0.5,0.8,0.5c0.1,0,0.2,0,0.3-0.1c0.1-0.1,0.2-0.2,0.2-0.6c0-0.3-0.1-0.5-0.2-0.5
			C266.2,784.4,266.1,784.2,266.1,783.9z"/>
		<path d="M295.9,782.2h-1c-0.5,0-0.9,0-1.1-0.1c-0.2-0.1-0.3-0.3-0.3-0.5c0-0.1,0-0.2-0.1-0.2c-0.1,0-0.2,0-0.2,0.1
			c-0.1,0.1-0.3,0.2-0.7,0.2c-0.2,0-0.2,0-0.2-0.1c0-0.1-0.2-0.1-0.7-0.1c-0.5,0-0.8,0.1-0.8,0.2c-0.1,0.1-0.2,0.2-0.4,0.2
			c-0.2,0-0.3,0-0.4,0c-0.1,0-0.1,0-0.2,0c-0.1,0-0.2,0-0.2,0c-0.3,0-0.5,0.1-0.8,0.4c-0.3,0.3-0.5,0.5-0.7,0.5
			c-0.2,0.1-0.4,0.2-0.5,0.5c-0.1,0.3-0.3,0.4-0.6,0.4c-0.5,0.1-0.7,0.4-0.8,1c0,0.2-0.1,0.4-0.2,0.6c-0.1,0.2-0.2,0.5-0.2,0.6
			c0,0.3-0.1,0.4-0.2,0.5c-0.1,0.1-0.1,0.2-0.1,0.4c0,0.2-0.1,0.4-0.2,0.5c-0.1,0.1-0.2,0.6-0.2,1.5c0,1,0.1,1.6,0.2,1.6
			c0.1,0,0.1,0.1,0.1,0.3c0,0.1,0,0.2-0.1,0.2c-0.1,0,0,0.1,0.2,0.4c0.2,0.2,0.4,0.4,0.5,0.4c0.1,0,0.1,0.1,0.2,0.4
			c0.1,0.2,0.3,0.4,0.6,0.8c0.4,0.3,0.6,0.5,0.9,0.6c0.2,0.1,0.2,0.1,0.2,0.2c0,0.1,0.3,0.2,1,0.3c0.6,0.1,1.4,0.1,2.1,0.1
			c1.1,0,1.8-0.1,2-0.3c0.2-0.2,0.5-0.3,0.8-0.4c0.4-0.1,0.7-0.2,0.8-0.5c0.2-0.3,0.4-0.6,0.7-0.9c0.3-0.3,0.5-0.5,0.5-0.6
			c0-0.1-0.1-0.2-0.3-0.3c-0.4-0.2-0.6-0.3-0.8-0.3c-0.1,0-0.2,0.1-0.3,0.3c-0.1,0.3-0.2,0.4-0.4,0.4c-0.2,0-0.4,0.1-0.7,0.4
			c-0.2,0.3-0.4,0.3-0.5,0.2c-0.1-0.1-0.2-0.1-0.4,0.1c-0.1,0.1-0.4,0.2-0.7,0.2c-0.1,0-0.4,0-0.9-0.1c-0.7,0-1.1-0.1-1.3-0.2
			c-0.2-0.1-0.3-0.3-0.3-0.6c0-0.2-0.2-0.5-0.6-0.9c-0.3-0.3-0.5-0.5-0.6-0.7c-0.1-0.2-0.2-0.5-0.3-1c-0.1-0.7-0.2-1.1-0.3-1.1
			c-0.1,0-0.1-0.1-0.1-0.2c0-0.1,0-0.2,0.1-0.3c0.2,0,0.3-0.7,0.3-1.9c0-0.2,0.1-0.3,0.3-0.3c0.2,0,0.3-0.1,0.2-0.3
			c-0.1-0.3,0.1-0.4,0.4-0.6c0.3-0.1,0.5-0.3,0.5-0.4c0-0.1,0.1-0.3,0.3-0.4c0.2-0.1,0.5-0.2,0.7-0.2c0.2,0,0.3-0.1,0.3-0.2
			c0-0.1,0.2-0.2,0.7-0.3c0.1,0,0.1,0,0.2,0c0.1,0,0.1,0,0.2,0c0.6,0,1,0.2,1.2,0.5c0.1,0.2,0.3,0.3,0.6,0.4c0.2,0,0.3,0.1,0.3,0.1
			c0,0.1,0.1,0.1,0,0.3c-0.1,0.2,0,0.3,0.1,0.4c0.1,0.1,0.3,0.4,0.4,1c0.1,0.4,0.1,0.7,0.2,0.8c0.1,0.1,0.2,0.2,0.4,0.3
			c0.3,0.1,0.4,0.2,0.4,0.4c0,0.1,0,0.1,0,0.1c0,0,0.1,0,0.1,0c0.1-0.1,0.2-0.6,0.2-1.6c0-1,0.1-1.6,0.2-1.6c0.1-0.1,0.1-0.3,0-0.8
			L295.9,782.2z"/>
		<path d="M314.2,783H314c-0.4,0-0.8-0.1-1-0.3c-0.2-0.1-0.3-0.2-0.4-0.2c0,0-0.1,0.1-0.1,0.2c0,0.1,0,0.2-0.1,0.2
			c-0.1,0-0.4,0-0.8,0.1c-0.6,0-1,0-1,0.1c-0.1,0.1-0.1,0.3-0.1,0.7l0,0.6l0.8,0.1l0.8,0v2.3c0,1.5,0,2.3,0.1,2.4
			c0.1,0,0.1,0.1-0.1,0.3c-0.1,0.2-0.2,0.4-0.2,0.5v0.2c0,0.3,0,0.6-0.1,0.9c-0.1,0.3-0.2,0.5-0.3,0.5c-0.1,0.1-0.2,0.1-0.2,0.3
			c0,0.1-0.1,0.3-0.3,0.4c-0.2,0.2-0.4,0.2-0.6,0.2c-0.3,0-0.4,0.1-0.5,0.2c-0.1,0.1-0.2,0.2-0.4,0.2c-0.1,0-0.2,0-0.5-0.1
			c-0.5-0.1-0.7-0.1-0.8-0.2c0-0.1-0.2-0.1-0.4-0.1c-0.2,0-0.4-0.1-0.8-0.2c-0.2-0.1-0.3-0.2-0.4-0.3s-0.1-0.2-0.1-0.5V791v-0.3
			c0-0.4,0-0.6-0.1-0.6c-0.1,0-0.2-0.1-0.1-0.3c0-0.2,0.1-0.3,0.2-0.3c0.1-0.1,0.1-0.1,0-0.2c-0.1,0-0.1-0.1-0.1-0.2
			c0-0.1,0-0.2,0-0.3c0-0.1,0.1-0.1,0.1-0.1c0.1,0,0.1-0.3,0.1-0.9c0-0.9-0.1-1.4-0.2-1.5c-0.1-0.1-0.1-0.2,0-0.3
			c0.1-0.1,0.2-0.4,0.2-0.8c0-0.1,0-0.2,0-0.3c0-0.1-0.1-0.2-0.1-0.3c0-0.1,0-0.1,0-0.1c0-0.1,0.5-0.1,1.4-0.1c0.1,0,0.1,0,0.2,0
			c0.1,0,0.1,0,0.2,0h0c0,0,0.1-0.1,0.1-0.2c0-0.1,0-0.3-0.1-0.6c0-0.2-0.1-0.4-0.3-0.5c-0.2-0.1-0.5-0.1-1-0.1
			c-0.1,0-0.6,0-1.5,0.1c-1.4,0.1-2.1,0.2-2.3,0.4c-0.2,0.2-0.2,0.4-0.2,0.5c0,0.4,0.3,0.6,1,0.7c0.5,0.1,0.7,0.2,0.7,0.4
			c0,0.1-0.1,0.2-0.2,0.3c-0.2,0.1-0.2,0.4-0.1,0.7c0.1,0.3,0.1,0.6,0,0.6c-0.1,0.1-0.2,0.1-0.3,0.1c-0.1,0-0.1,0-0.1,0.1
			c0,0.2,0.1,0.4,0.4,0.5c0.2,0.1,0.4,0.2,0.4,0.4c0,0.1-0.1,0.2-0.2,0.3c-0.1,0.1-0.2,0.4-0.2,0.9v0.4c0,0.8,0.1,1.3,0.2,1.3
			c0.1,0.1,0.1,0.2,0.1,0.5c0,0.2,0,0.3-0.1,0.3c-0.1,0-0.1,0.1-0.2,0.4c-0.1,0.3,0,0.4,0.2,0.5c0.1,0.1,0.3,0.3,0.4,0.6
			c0.1,0.3,0.2,0.5,0.3,0.5s0.1,0.1,0.2,0.4c0.1,0.3,0.2,0.4,0.4,0.4c0.2,0,0.4,0,0.5,0.1c0.1,0.1,1,0.2,2.5,0.2
			c1.3,0,1.9-0.1,1.9-0.2s0.1-0.2,0.2-0.2c0.1,0,0.2-0.1,0.3-0.2c0.1-0.1,0.2-0.2,0.4-0.2c0.2,0,0.3-0.1,0.3-0.3
			c0-0.1,0.1-0.2,0.1-0.3c0.1,0,0.2,0,0.5,0h0.1c0.3,0,0.5,0,0.5-0.1c0-0.1-0.1-0.1-0.2-0.2c-0.1-0.1-0.2-0.2-0.2-0.3
			c0-0.2,0.1-0.4,0.2-0.6c0.2-0.2,0.2-0.4,0.1-0.4c-0.1,0-0.2-0.1-0.2-0.2c0-0.1,0-0.2,0.1-0.2c0.1,0,0.2-0.2,0.2-0.4
			c0-0.2,0.1-0.6,0.1-0.9c0-0.4,0-0.6,0-0.6c0-0.1,0-0.5,0.1-1.1c0-0.6,0-1.2,0.1-1.7c0-0.5,0.1-0.8,0.2-0.9c0.1-0.1,0.2-0.2,0-0.2
			c-0.1-0.1-0.2-0.1-0.2-0.2c0-0.1,0.1-0.3,0.3-0.4c0.2-0.1,0.4-0.2,0.6-0.2c0.1,0,0.2,0,0.2,0c0,0,0.1,0,0.2,0
			c0.3,0,0.4-0.1,0.4-0.3c0-0.1,0-0.1-0.1-0.2c-0.1-0.1-0.1-0.2,0-0.2c0.1,0,0.1-0.1,0.1-0.2C315.3,783.1,314.9,783,314.2,783z"/>
		<path d="M332,782.4c-0.1,0-0.2,0-0.2-0.1s-0.1-0.2-0.4-0.3c-0.3-0.1-0.4-0.3-0.5-0.5l-0.2-0.3c-0.1-0.1-0.2-0.1-0.2,0.1
			c0,0.1-0.3,0.1-0.8,0.1c-0.6,0-0.9,0-0.9-0.1c0-0.1-0.1-0.1-0.3-0.1c-0.5,0-0.8-0.1-0.8-0.4c0-0.1-0.1-0.2-0.3-0.2
			s-0.3,0.1-0.2,0.3c0,0,0,0,0,0.1c0,0,0,0,0,0.1c0,0.1-0.6,0.2-1.8,0.2h-1.8l-0.5,0.5c-0.3,0.3-0.5,0.5-0.5,0.7
			c0,0.2,0.2,0.4,0.7,0.4c0.2,0,0.3,0,0.3,0.1s0,0.1,0.1,0.1c0.2,0,0.4,0.2,0.6,0.5c0.2,0.3,0.3,0.7,0.3,1.2c0,0.4,0.1,0.6,0.1,0.6
			c0,0.2-0.1,0.4-0.2,0.5c-0.2,0.1-0.2,0.2-0.1,0.3c0.1,0.1,0.2,0.3,0.2,0.7c0,0.3-0.1,0.5-0.2,0.5c-0.2,0-0.2,0,0,0.1
			c0.1,0.1,0.1,0.3,0,0.6c-0.1,0.3-0.1,0.5,0.1,0.6c0.1,0.1,0.1,0.2,0.1,0.3c0,0.2-0.1,0.4-0.2,0.5c-0.1,0.1-0.1,0.6-0.2,1.6l0,1.5
			l-0.4,0.2c-0.2,0.1-0.5,0.2-1.1,0.2c-0.3,0-0.5,0.1-0.5,0.1c-0.1,0.1-0.1,0.2-0.1,0.4c0,0.2,0.2,0.5,0.6,0.8
			c0.2,0.1,0.3,0.2,0.5,0.2c0.2,0,0.3-0.1,0.3-0.2c0.1-0.1,0.8-0.2,2.1-0.2c1.4-0.1,2.1-0.1,2.2-0.3c0.1-0.1,0.2-0.2,0.3-0.2
			c0.1,0,0.2-0.1,0.2-0.2c0-0.1-0.1-0.2-0.4-0.2c-0.3,0-0.4-0.1-0.5-0.3c0-0.2-0.2-0.3-0.5-0.4c-0.4-0.1-0.5-0.2-0.5-0.4
			c0-0.1,0-0.2,0.1-0.3c0.2-0.2,0.2-0.3,0.1-0.4c-0.1,0-0.2-0.6-0.2-1.6c0-0.3,0-0.6,0-1c0-0.3,0-0.4,0.1-0.5c0-0.1,0.1-0.1,0.2-0.1
			c0.2,0,0.5,0,0.8,0.1c0.3,0.1,0.5,0.2,0.6,0.3c0.1,0.1,0.7,0.2,1.7,0.2c0.8,0,1.2,0,1.2-0.1c0.1-0.1,0-0.2-0.2-0.3
			c-0.2-0.1-0.4-0.2-0.5-0.4c-0.1-0.1-0.2-0.2-0.2-0.2c0,0,0.1-0.1,0.3-0.1c0.3-0.1,0.4-0.1,0.4-0.2s0.1-0.2,0.4-0.3
			c0.3-0.1,0.4-0.2,0.4-0.4c0-0.5,0.1-0.7,0.3-0.7c0.1,0,0.2-0.1,0.4-0.2c0.2-0.2,0.2-0.7,0.2-1.5c0-1-0.1-1.5-0.3-1.7
			C332.2,782.5,332.1,782.4,332,782.4z M330.4,786.1c0,0-0.1,0.1-0.4,0.1h-0.1c0,0-0.1,0-0.1,0c-0.1,0-0.1,0,0,0.1
			c0.1,0.1,0.2,0.1,0.2,0.2c0,0.1-0.1,0.3-0.3,0.5c-0.2,0.2-0.5,0.3-0.7,0.3c-0.3,0-0.6,0.1-1.1,0.2c-0.1,0-0.2,0-0.3,0
			c-0.2,0-0.4-0.1-0.7-0.3c-0.2-0.2-0.3-0.3-0.4-0.3c0-0.1,0-0.1,0.1-0.2c0.1-0.1,0.2-0.7,0.2-1.6v-1.2c0-0.3,0.1-0.5,0.2-0.7
			c0.1-0.2,0.3-0.4,0.4-0.4h0.1l0.4,0.1c0.3,0,0.5,0.1,0.8,0.1c0.2,0.1,0.4,0.1,0.4,0.1c0,0.1,0.1,0.1,0.4,0.2
			c0.3,0.1,0.4,0.2,0.4,0.3c0,0.1,0.1,0.3,0.2,0.4c0.1,0.1,0.2,0.2,0.1,0.3c-0.1,0.1-0.1,0.3,0.1,0.6c0.1,0.2,0.2,0.4,0.2,0.6
			C330.5,785.3,330.4,785.6,330.4,786.1z"/>
		<path d="M328.7,780.6C328.8,780.6,328.8,780.5,328.7,780.6c0.1-0.1,0-0.1-0.2-0.1c-0.2,0-0.3,0.1-0.3,0.2
			C328.3,780.7,328.5,780.7,328.7,780.6C328.7,780.6,328.7,780.6,328.7,780.6z"/>
		<path d="M323.7,779.6c0,0.1,0.1,0.2,0.3,0.2c0.2,0,0.3-0.1,0.3-0.2c0-0.1-0.1-0.1-0.3-0.1C323.8,779.5,323.7,779.5,323.7,779.6z"
			/>
		<path d="M342.2,788.7c0-0.1,0-0.2-0.1-0.2c-0.1,0-0.1,0-0.1,0.1l0.1,0.2C342.1,789,342.2,788.9,342.2,788.7z"/>
		<path d="M348,789.5c0-0.6-0.1-0.9-0.2-1.1c-0.1-0.2-0.3-0.4-0.6-0.5c-0.3-0.1-0.5-0.3-0.5-0.4c-0.1-0.1-0.3-0.3-0.9-0.6
			c-0.5-0.3-1-0.5-1.3-0.6c-0.2-0.1-0.5-0.2-0.9-0.5c-0.4-0.3-0.6-0.4-0.6-0.5c0-0.1-0.1-0.2-0.2-0.3c-0.2-0.1-0.2-0.2-0.2-0.3
			c0,0,0-0.1,0-0.1c0.1-0.1,0.1-0.2,0.1-0.3c0-0.1,0-0.3-0.1-0.6c0-0.1,0-0.2,0-0.2c0,0,0.2-0.1,0.3-0.1c0.3,0,0.4-0.1,0.4-0.2
			c0-0.1,0.1-0.2,0.4-0.4c0.3-0.2,0.4-0.3,0.4-0.3c0-0.1,0.1-0.1,0.4-0.2c0.1,0,0.1,0,0.2,0c0.4,0,0.8,0.2,1.2,0.5
			c0.5,0.3,0.7,0.6,0.7,0.9c0,0.2,0.1,0.4,0.3,0.5c0.2,0.1,0.3,0.3,0.3,0.4c0,0.1,0.1,0.3,0.2,0.5s0.3,0.3,0.4,0.3c0,0,0,0,0.1,0
			c0.1-0.1,0.1-0.7,0.2-2v-0.8c0-0.6-0.1-0.9-0.2-0.9c-0.1,0-0.1,0-0.1,0c-0.3,0.1-0.6,0.2-0.8,0.2c-0.3,0-0.6-0.1-1-0.3
			c-0.4-0.2-0.6-0.3-0.7-0.3c0,0-0.1,0-0.2,0.1c-0.3,0.1-0.6,0.1-0.8,0.1c-0.3,0-0.4,0-0.5,0.1c0,0.1-0.1,0.2-0.3,0.2
			c-0.2,0-0.4-0.1-0.5-0.2c-0.1-0.1-0.3-0.2-0.5-0.2h0c-0.1,0-0.1,0-0.1,0c-0.1,0-0.1,0-0.1,0c0,0,0.1,0,0.1,0
			c0.1,0.1,0.2,0.1,0.2,0.2c0,0.2-0.2,0.3-0.5,0.4c-0.3,0.1-0.4,0.2-0.4,0.4c0.1,0.2,0,0.3-0.2,0.4c-0.3,0.1-0.6,0.5-1.1,1.1
			c-0.1,0.2-0.2,0.4-0.2,0.6c0,0,0,0.3,0.1,0.8c0.1,0.7,0.3,1.1,0.4,1.3c0.1,0.2,0.4,0.4,0.7,0.7c0.4,0.3,0.6,0.4,0.8,0.4
			c0.1,0,0.3,0.1,0.6,0.4c0.4,0.3,0.9,0.6,1.7,0.8c0.5,0.1,0.8,0.3,1.1,0.6c0.2,0.2,0.3,0.4,0.5,0.7c0.1,0.3,0.2,0.5,0.2,0.7
			c0,0.1,0,0.1-0.1,0.2c-0.1,0-0.1,0.2-0.1,0.4c0.1,0.2,0,0.4-0.2,0.6c-0.1,0.1-0.2,0.3-0.2,0.4c0,0.2-0.5,0.4-1.4,0.5
			c-0.1,0-0.3,0-0.6,0c-0.9,0-1.7-0.4-2.2-1.2c-0.3-0.4-0.5-0.8-0.5-1c0,0,0-0.1,0-0.2c0-0.1,0-0.2,0-0.2c0,0-0.1-0.1-0.1-0.1
			c-0.1,0-0.1,0-0.1-0.1c0.1-0.3-0.1-0.5-0.4-0.6c-0.1,0-0.2-0.1-0.3-0.1c-0.3,0-0.4,0.2-0.5,0.5c-0.1,1.2-0.1,1.9-0.2,1.9
			c-0.1,0.1-0.1,0.4-0.2,0.8c0,0.1,0,0.3,0,0.4c0,0.2,0.1,0.4,0.3,0.6c0.1,0.1,0.2,0.2,0.3,0.2c0,0,0.1,0,0.2-0.2
			c0.1-0.2,0.2-0.3,0.2-0.4c0-0.3,0.2-0.3,0.5-0.1c0.9,0.5,1.8,0.7,2.9,0.7c0.5,0,1.1-0.1,1.6-0.2c0.6-0.1,1.1-0.3,1.4-0.6
			c0.3-0.3,0.5-0.5,0.5-0.5c0-0.1,0.1-0.2,0.2-0.3c0.2-0.1,0.3-0.4,0.3-0.9c0.1-0.5,0.1-0.7,0.2-0.7c0.1,0,0.1,0,0-0.1
			S348.1,790.2,348,789.5z M343.6,788C343.6,788,343.6,787.9,343.6,788c-0.1-0.1-0.1-0.1,0-0.1S343.7,787.9,343.6,788
			C343.7,787.9,343.7,788,343.6,788z"/>
		<polygon points="51.7,808.8 44,814 41.2,799.9 38.4,814 30.7,808.8 35.9,816.5 21.8,819.3 35.9,822 30.7,829.8 38.4,824.6 
			41.2,838.6 43.9,824.6 51.7,829.8 46.5,822 60.5,819.3 46.5,816.5 		"/>
		<polygon points="468.1,816.5 473.3,808.8 465.5,814 462.8,799.9 460,814 452.3,808.8 457.5,816.5 443.4,819.3 457.5,822 
			452.3,829.8 460,824.6 462.8,838.6 465.5,824.6 473.3,829.8 468.1,822 482.1,819.3 		"/>
		<polygon points="30.7,57.5 38.4,52.3 41.2,66.4 44,52.3 51.7,57.5 46.5,49.8 60.5,47 46.5,44.3 51.7,36.5 43.9,41.7 41.2,27.7 
			38.4,41.7 30.7,36.5 35.9,44.3 21.8,47 35.9,49.8 		"/>
		<polygon points="473.3,36.5 465.5,41.7 462.8,27.7 460,41.7 452.3,36.5 457.5,44.3 443.4,47 457.5,49.8 452.3,57.5 460,52.3 
			462.8,66.4 465.5,52.3 473.3,57.5 468.1,49.8 482.1,47 468.1,44.3 		"/>
		<path d="M256.2,287.5c0-3.9-4.2-30.8-4.2-30.8s-4.2,26.9-4.2,30.8c0,3.9,1.9,5.2,4.2,5.2C254.3,292.7,256.2,291.4,256.2,287.5z"/>
		<path d="M245.1,322.6c0.9,0.4,1.8,0.8,2.7,1.2c0.5,0.2,1.1,0.5,1.6,0.7c0.1,0.1,0.2,0.1,0.2,0.1c0,0,0,0,0,0.1
			c1,1.7,1.2,4.2,1.8,6.1c0.1,0.4,0.7,0.4,0.8,0c0.6-1.9,0.9-4.4,1.8-6.1c0,0,0,0,0-0.1c0,0,0.1,0,0.1-0.1c0.5-0.3,1.2-0.5,1.7-0.8
			c0.9-0.4,1.8-0.8,2.7-1.2c0.4-0.2,0.2-0.6-0.1-0.7c-0.9-0.4-1.8-0.8-2.7-1.1c-1.1-0.5-1.7-0.5-2-1.5c-0.6-1.9-1.1-3.9-1.6-5.9
			c0,0,0,0,0-0.1c0,0,0,0,0-0.1c-0.1-0.1-0.2-0.2-0.3-0.2c-0.1,0-0.3,0-0.3,0.2c0,0,0,0.1,0,0.1c0,0,0,0,0,0c0,0,0,0,0,0
			c0,0,0,0,0,0c-0.5,1.9-1,3.9-1.5,5.9c-0.5,1.5-3.3,2.1-4.7,2.7C245,322,244.8,322.4,245.1,322.6z M250.6,320.1
			c0.6-1,0.7-2.7,1-3.7c0.1-0.5,0.3-0.9,0.4-1.4c0.1,0.5,0.3,0.9,0.4,1.4c0.3,1.1,0.4,2.7,1,3.7c0.6,1.1,2.7,1.7,4.2,2.2
			c-0.7,0.3-1.5,0.7-2.2,1c-0.6,0.3-1.5,0.5-1.9,1c-0.6,0.8-0.7,2.4-1,3.4c-0.2,0.6-0.3,1.1-0.5,1.7c-0.2-0.6-0.3-1.1-0.5-1.7
			c-0.3-0.9-0.4-2.6-1-3.4c-0.4-0.6-1.2-0.7-1.9-1c-0.7-0.3-1.5-0.7-2.2-1C247.9,321.8,249.9,321.2,250.6,320.1z"/>
		<path d="M259.4,546.6c0.4-0.2,0.2-0.6-0.1-0.7c-0.9-0.4-1.8-0.8-2.7-1.1c-1.1-0.5-1.7-0.5-2-1.5c-0.6-1.9-1.1-3.9-1.6-5.9
			c0,0,0,0,0-0.1c0,0,0,0,0-0.1c-0.1-0.1-0.2-0.2-0.3-0.2c-0.1,0-0.3,0-0.3,0.2c0,0,0,0.1,0,0.1c0,0,0,0,0,0c0,0,0,0,0,0
			c0,0,0,0,0,0c-0.5,1.9-1,3.9-1.5,5.9c-0.5,1.5-3.3,2.1-4.7,2.7c-0.3,0.1-0.5,0.6-0.1,0.7c0.9,0.4,1.8,0.8,2.7,1.2
			c0.5,0.2,1.1,0.5,1.6,0.7c0.1,0.1,0.2,0.1,0.2,0.1c0,0,0,0,0,0.1c1,1.7,1.2,4.2,1.8,6.1c0.1,0.4,0.7,0.4,0.8,0
			c0.6-1.9,0.9-4.4,1.8-6.1c0,0,0,0,0-0.1c0,0,0.1,0,0.1-0.1c0.5-0.3,1.2-0.5,1.7-0.8C257.6,547.4,258.5,547,259.4,546.6z
			 M254.1,548.3c-0.6,0.8-0.7,2.4-1,3.4c-0.2,0.6-0.3,1.1-0.5,1.7c-0.2-0.6-0.3-1.1-0.5-1.7c-0.3-0.9-0.4-2.6-1-3.4
			c-0.4-0.6-1.2-0.7-1.9-1c-0.7-0.3-1.5-0.7-2.2-1c1.5-0.5,3.5-1.1,4.2-2.2c0.6-1,0.7-2.7,1-3.7c0.1-0.5,0.3-0.9,0.4-1.4
			c0.1,0.5,0.3,0.9,0.4,1.4c0.3,1.1,0.4,2.7,1,3.7c0.6,1.1,2.7,1.7,4.2,2.2c-0.7,0.3-1.5,0.7-2.2,1
			C255.3,547.6,254.5,547.7,254.1,548.3z"/>
		<path d="M258.7,228c-0.9-0.4-1.8-0.8-2.7-1.1c-1.1-0.5-1.7-0.5-2-1.5c-0.6-1.9-1.1-3.9-1.6-5.9c0,0,0,0,0-0.1c0,0,0,0,0-0.1
			c-0.1-0.1-0.2-0.2-0.3-0.2c-0.1,0-0.3,0-0.3,0.2c0,0,0,0.1,0,0.1c0,0,0,0,0,0c0,0,0,0,0,0c0,0,0,0,0,0c-0.5,1.9-1,3.9-1.5,5.9
			c-0.5,1.5-3.3,2.1-4.7,2.7c-0.3,0.1-0.5,0.6-0.1,0.7c0.9,0.4,1.8,0.8,2.7,1.2c0.5,0.2,1.1,0.5,1.6,0.7c0.1,0.1,0.2,0.1,0.2,0.1
			c0,0,0,0,0,0.1c1,1.7,1.2,4.2,1.8,6.1c0.1,0.4,0.7,0.4,0.8,0c0.6-1.9,0.9-4.4,1.8-6.1c0,0,0,0,0-0.1c0,0,0.1,0,0.1-0.1
			c0.5-0.3,1.2-0.5,1.7-0.8c0.9-0.4,1.8-0.8,2.7-1.2C259.2,228.6,259,228.1,258.7,228z M255.3,229.4c-0.6,0.3-1.5,0.5-1.9,1
			c-0.6,0.8-0.7,2.4-1,3.4c-0.2,0.6-0.3,1.1-0.5,1.7c-0.2-0.6-0.3-1.1-0.5-1.7c-0.3-0.9-0.4-2.6-1-3.4c-0.4-0.6-1.2-0.7-1.9-1
			c-0.7-0.3-1.5-0.7-2.2-1c1.5-0.5,3.5-1.1,4.2-2.2c0.6-1,0.7-2.7,1-3.7c0.1-0.5,0.3-0.9,0.4-1.4c0.1,0.5,0.3,0.9,0.4,1.4
			c0.3,1.1,0.4,2.7,1,3.7c0.6,1.1,2.7,1.7,4.2,2.2C256.8,228.8,256.1,229.1,255.3,229.4z"/>
		<path d="M149.5,428.2c-1.1-0.5-1.7-0.5-2-1.5c-0.6-1.9-1.1-3.9-1.6-5.9c0,0,0,0,0-0.1c0,0,0,0,0-0.1c-0.1-0.1-0.2-0.2-0.3-0.2
			c-0.1,0-0.3,0-0.3,0.2c0,0,0,0.1,0,0.1c0,0,0,0,0,0c0,0,0,0,0,0c0,0,0,0,0,0c-0.5,1.9-1,3.9-1.5,5.9c-0.5,1.5-3.3,2.1-4.7,2.7
			c-0.3,0.1-0.5,0.6-0.1,0.7c0.9,0.4,1.8,0.8,2.7,1.2c0.5,0.2,1.1,0.5,1.6,0.7c0.1,0.1,0.2,0.1,0.2,0.1c0,0,0,0,0,0.1
			c1,1.7,1.2,4.2,1.8,6.1c0.1,0.4,0.7,0.4,0.8,0c0.6-1.9,0.9-4.4,1.8-6.1c0,0,0,0,0-0.1c0,0,0.1,0,0.1-0.1c0.5-0.3,1.2-0.5,1.7-0.8
			c0.9-0.4,1.8-0.8,2.7-1.2c0.4-0.2,0.2-0.6-0.1-0.7C151.3,429,150.4,428.6,149.5,428.2z M148.8,430.8c-0.6,0.3-1.5,0.5-1.9,1
			c-0.6,0.8-0.7,2.4-1,3.4c-0.2,0.6-0.3,1.1-0.5,1.7c-0.2-0.6-0.3-1.1-0.5-1.7c-0.3-0.9-0.4-2.6-1-3.4c-0.4-0.6-1.2-0.7-1.9-1
			c-0.7-0.3-1.5-0.7-2.2-1c1.5-0.5,3.5-1.1,4.2-2.2c0.6-1,0.7-2.7,1-3.7c0.1-0.5,0.3-0.9,0.4-1.4c0.1,0.5,0.3,0.9,0.4,1.4
			c0.3,1.1,0.4,2.7,1,3.7c0.6,1.1,2.7,1.7,4.2,2.2C150.3,430.2,149.6,430.5,148.8,430.8z"/>
		<path d="M354.4,431.4c0.5,0.2,1.1,0.5,1.6,0.7c0.1,0.1,0.2,0.1,0.2,0.1c0,0,0,0,0,0.1c1,1.7,1.2,4.2,1.8,6.1
			c0.1,0.4,0.7,0.4,0.8,0c0.6-1.9,0.9-4.4,1.8-6.1c0,0,0,0,0-0.1c0,0,0.1,0,0.1-0.1c0.5-0.3,1.2-0.5,1.7-0.8
			c0.9-0.4,1.8-0.8,2.7-1.2c0.4-0.2,0.2-0.6-0.1-0.7c-0.9-0.4-1.8-0.8-2.7-1.1c-1.1-0.5-1.7-0.5-2-1.5c-0.6-1.9-1.1-3.9-1.6-5.9
			c0,0,0,0,0-0.1c0,0,0,0,0-0.1c-0.1-0.1-0.2-0.2-0.3-0.2c-0.1,0-0.3,0-0.3,0.2c0,0,0,0.1,0,0.1c0,0,0,0,0,0c0,0,0,0,0,0
			c0,0,0,0,0,0c-0.5,1.9-1,3.9-1.5,5.9c-0.5,1.5-3.3,2.1-4.7,2.7c-0.3,0.1-0.5,0.6-0.1,0.7C352.6,430.6,353.5,431,354.4,431.4z
			 M357.1,427.7c0.6-1,0.7-2.7,1-3.7c0.1-0.5,0.3-0.9,0.4-1.4c0.1,0.5,0.3,0.9,0.4,1.4c0.3,1.1,0.4,2.7,1,3.7
			c0.6,1.1,2.7,1.7,4.2,2.2c-0.7,0.3-1.5,0.7-2.2,1c-0.6,0.3-1.5,0.5-1.9,1c-0.6,0.8-0.7,2.4-1,3.4c-0.2,0.6-0.3,1.1-0.5,1.7
			c-0.2-0.6-0.3-1.1-0.5-1.7c-0.3-0.9-0.4-2.6-1-3.4c-0.4-0.6-1.2-0.7-1.9-1c-0.7-0.3-1.5-0.7-2.2-1
			C354.4,429.4,356.4,428.8,357.1,427.7z"/>
		<path d="M185.8,201c-0.5,0-1,0.4-1,1l0,0.2c0,0.5,0.4,1,1,1c0,0,0,0,0,0c0.5,0,1-0.4,1-1l0-0.2C186.8,201.4,186.3,201,185.8,201z"
			/>
		<path d="M186.5,255.5c0-0.5-0.4-1-0.9-1c-0.5,0-1,0.4-1,0.9l0,0.5c0,0.5,0.4,1,0.9,1c0,0,0,0,0,0c0.5,0,0.9-0.4,1-0.9L186.5,255.5
			z"/>
		<path d="M184.9,213c0,0.5,0.4,1,1,1c0,0,0,0,0,0c0.5,0,1-0.4,1-1l0-0.5l-0.6,0l-1.3,0L184.9,213z"/>
		<polygon points="185.9,212.5 186.2,212.5 186.9,212.5 		"/>
		<path d="M185.8,206.1c-0.5,0-1,0.4-1,1l0,0.5c0,0.5,0.4,1,1,1c0,0,0,0,0,0c0.5,0,1-0.4,1-1l0-0.5
			C186.8,206.5,186.4,206.1,185.8,206.1z"/>
		<path d="M185,223.2l0,0.5c0,0.5,0.4,1,1,1c0,0,0,0,0,0c0.5,0,1-0.4,1-1l0-0.5c0-0.5-0.4-1-1-1C185.4,222.2,185,222.7,185,223.2z"
			/>
		<path d="M185.9,216.9c-0.5,0-1,0.4-1,1l0,0.5c0,0.5,0.4,1,1,1c0,0,0,0,0,0c0.5,0,1-0.4,1-1l0-0.5
			C186.9,217.3,186.5,216.9,185.9,216.9z"/>
		<path d="M186.7,250.1c0-0.5-0.4-1-0.9-1c-0.5,0-1,0.4-1,0.9l0,0.5c0,0.5,0.4,1,0.9,1c0,0,0,0,0,0c0.5,0,1-0.4,1-0.9L186.7,250.1z"
			/>
		<path d="M181.5,288.8c0.4,0,0.8-0.3,0.9-0.7l0.1-0.5c0.1-0.5-0.2-1.1-0.7-1.2c-0.5-0.1-1.1,0.2-1.2,0.7l-0.1,0.5
			c-0.1,0.5,0.2,1.1,0.7,1.2C181.3,288.8,181.4,288.8,181.5,288.8z"/>
		<path d="M184.6,277.5l0.1-0.5c0.1-0.5-0.3-1-0.8-1.1c-0.5-0.1-1,0.3-1.1,0.8l-0.1,0.5c-0.1,0.5,0.3,1,0.8,1.1c0,0,0.1,0,0.1,0
			C184.1,278.3,184.6,277.9,184.6,277.5z"/>
		<path d="M180.3,291.6c-0.5-0.2-1.1,0-1.3,0.5c-0.1,0.1-0.1,0.3-0.2,0.4c-0.2,0.5,0,1.1,0.5,1.3c0.1,0.1,0.2,0.1,0.4,0.1
			c0.4,0,0.7-0.2,0.9-0.6c0.1-0.2,0.1-0.3,0.2-0.5C181,292.3,180.8,291.8,180.3,291.6z"/>
		<path d="M186.2,261.3l0-0.5c0-0.5-0.4-1-0.9-1c-0.5,0-1,0.4-1,0.9l0,0.5c0,0.5,0.4,1,0.9,1c0,0,0,0,0.1,0
			C185.7,262.3,186.2,261.9,186.2,261.3z"/>
		<path d="M185.8,266.7l0-0.5c0-0.5-0.4-1-0.9-1c-0.5,0-1,0.4-1,0.9l0,0.5c0,0.5,0.4,1,0.9,1c0,0,0.1,0,0.1,0
			C185.4,267.6,185.8,267.2,185.8,266.7z"/>
		<path d="M185.3,272.1l0.1-0.5c0.1-0.5-0.3-1-0.9-1.1c-0.5-0.1-1,0.3-1.1,0.9l-0.1,0.5c-0.1,0.5,0.3,1,0.9,1.1c0,0,0.1,0,0.1,0
			C184.8,273,185.3,272.6,185.3,272.1z"/>
		<path d="M183.7,282.8l0.1-0.5c0.1-0.5-0.2-1-0.8-1.1c-0.5-0.1-1,0.2-1.1,0.8l-0.1,0.5c-0.1,0.5,0.2,1,0.8,1.1c0.1,0,0.1,0,0.2,0
			C183.2,283.6,183.6,283.3,183.7,282.8z"/>
		<path d="M169.2,303.1c-0.1,0.1-0.3,0.1-0.4,0.1c-0.5,0.2-0.8,0.7-0.6,1.2c0.1,0.4,0.5,0.7,0.9,0.7c0.1,0,0.2,0,0.3,0
			c0.2-0.1,0.3-0.1,0.5-0.2c0.5-0.2,0.8-0.7,0.6-1.2C170.3,303.2,169.7,303,169.2,303.1z"/>
		<path d="M186.8,244.7c0-0.5-0.4-1-1-1c-0.5,0-1,0.4-1,1l0,0.5c0,0.5,0.4,1,1,1c0,0,0,0,0,0c0.5,0,1-0.4,1-1L186.8,244.7z"/>
		<path d="M176.7,296.7c-0.1,0.1-0.2,0.3-0.3,0.4c-0.3,0.4-0.2,1.1,0.3,1.3c0.2,0.1,0.4,0.2,0.5,0.2c0.3,0,0.6-0.2,0.8-0.4
			c0.1-0.1,0.2-0.3,0.3-0.4c0.3-0.5,0.1-1.1-0.3-1.3C177.6,296.1,177,296.3,176.7,296.7z"/>
		<path d="M164,304l-0.2,0c-0.5,0-1,0.4-1,1c0,0.5,0.4,1,1,1l0.2,0l0.3,0c0.5,0,1-0.4,1-1c0-0.5-0.5-1-1-1L164,304z"/>
		<path d="M173.5,300.6c-0.1,0.1-0.2,0.2-0.3,0.3c-0.4,0.3-0.5,1-0.1,1.4c0.2,0.2,0.5,0.4,0.8,0.4c0.2,0,0.4-0.1,0.6-0.2
			c0.1-0.1,0.3-0.2,0.4-0.3c0.4-0.4,0.4-1,0.1-1.4C174.5,300.3,173.9,300.3,173.5,300.6z"/>
		<path d="M186.9,234c0-0.5-0.4-1-1-1c0,0,0,0,0,0c-0.5,0-1,0.4-1,1l0,0.5c0,0.5,0.4,1,1,1c0,0,0,0,0,0c0.5,0,1-0.4,1-1L186.9,234z"
			/>
		<path d="M186.9,228.6c0-0.5-0.4-1-1-1c-0.5,0-1,0.4-1,1v0.5c0,0.5,0.4,1,1,1h0c0.5,0,1-0.4,1-1V228.6z"/>
		<path d="M186.9,239.3c0-0.5-0.4-1-1-1c-0.5,0-1,0.4-1,1l0,0.5c0,0.5,0.4,1,1,1c0,0,0,0,0,0c0.5,0,1-0.4,1-1L186.9,239.3z"/>
		<path d="M159.1,303.4l-0.2,0c-0.5-0.1-1,0.2-1.2,0.7c-0.1,0.5,0.2,1,0.7,1.2l0.2,0.1c0.1,0,0.1,0,0.2,0c0.4,0,0.9-0.3,1-0.8
			C159.9,304.1,159.6,303.5,159.1,303.4z"/>
		<path d="M105.4,203.2C105.4,203.2,105.4,203.2,105.4,203.2c0.5,0,1-0.4,1-1l0-0.2c0-0.5-0.4-1-1-1c-0.5,0-1,0.4-1,1l0,0.2
			C104.5,202.8,104.9,203.2,105.4,203.2z"/>
		<path d="M103.7,228.8c0,0.5,0.4,1,0.9,1c0,0,0,0,0,0c0.5,0,1-0.4,1-0.9l0-0.5c0-0.5-0.4-1-0.9-1c-0.5,0-1,0.4-1,0.9L103.7,228.8z"
			/>
		<path d="M103.6,234.2c0,0.5,0.4,1,1,1c0,0,0,0,0,0c0.5,0,1-0.4,1-1l0-0.5c0-0.5-0.4-1-0.9-1c-0.5,0-1,0.4-1,0.9L103.6,234.2z"/>
		<path d="M103.5,239.5c0,0.5,0.4,1,1,1h0c0.5,0,1-0.4,1-1l0-0.5c0-0.5-0.4-1-1-1c0,0,0,0,0,0c-0.5,0-1,0.4-1,1L103.5,239.5z"/>
		<path d="M104.6,245.8C104.6,245.8,104.6,245.8,104.6,245.8c0.6,0,1-0.5,1-1l0-0.5c0-0.5-0.5-1-1-0.9c-0.5,0-1,0.5-0.9,1l0,0.5
			C103.6,245.4,104,245.8,104.6,245.8z"/>
		<path d="M105.4,208.5C105.4,208.5,105.4,208.5,105.4,208.5c0.5,0,1-0.4,1-1l0-0.5c0-0.5-0.4-1-1-1c0,0,0,0,0,0c-0.5,0-1,0.4-1,1
			l0,0.5C104.4,208.1,104.9,208.5,105.4,208.5z"/>
		<path d="M104.9,251.2C104.9,251.2,104.9,251.2,104.9,251.2c0.6,0,1-0.5,1-1.1l0-0.5c0-0.5-0.5-0.9-1-0.9c-0.5,0-0.9,0.5-0.9,1
			l0,0.5C103.9,250.8,104.4,251.2,104.9,251.2z"/>
		<path d="M104.3,212.8c0,0.5,0.4,1,0.9,1c0,0,0,0,0,0c0.5,0,1-0.4,1-0.9l0-0.5c0-0.5-0.4-1-0.9-1c-0.5,0-1,0.4-1,0.9L104.3,212.8z"
			/>
		<path d="M104.1,218.2c0,0.5,0.4,1,0.9,1c0,0,0,0,0,0c0.5,0,1-0.4,1-0.9l0-0.5c0-0.5-0.4-1-0.9-1c-0.5,0-1,0.4-1,0.9L104.1,218.2z"
			/>
		<path d="M103.9,223.5c0,0.5,0.4,1,0.9,1c0,0,0,0,0,0c0.5,0,0.9-0.4,1-0.9l0-0.5c0-0.5-0.4-1-0.9-1c-0.5,0-1,0.4-1,0.9L103.9,223.5
			z"/>
		<path d="M116,273.6c0.1,0,0.2,0.1,0.3,0.1c0.4,0,0.8-0.2,0.9-0.6c0.2-0.5-0.1-1.1-0.6-1.3c-0.1-0.1-0.3-0.1-0.4-0.2
			c-0.5-0.2-1.1,0-1.3,0.5c-0.2,0.5,0,1.1,0.5,1.3C115.6,273.5,115.8,273.5,116,273.6z"/>
		<path d="M121.5,274.7C121.5,274.7,121.5,274.7,121.5,274.7c0.6,0,1-0.4,1-0.9c0-0.5-0.4-1-0.9-1c-0.2,0-0.3,0-0.5,0
			c-0.5,0-1,0.4-1,0.9c0,0.5,0.4,1,0.9,1C121.1,274.7,121.3,274.7,121.5,274.7z"/>
		<path d="M105.5,256.5c0.1,0,0.1,0,0.2,0c0.5-0.1,0.9-0.6,0.8-1.1l-0.1-0.5c-0.1-0.5-0.6-0.9-1.1-0.8c-0.5,0.1-0.9,0.6-0.8,1.1
			l0.1,0.5C104.6,256.1,105,256.5,105.5,256.5z"/>
		<path d="M126.5,274.5c0.2,0,0.3,0,0.5-0.1c0.5-0.1,0.9-0.6,0.8-1.1c-0.1-0.5-0.6-0.9-1.1-0.8c-0.2,0-0.3,0-0.5,0.1
			c-0.5,0.1-0.9,0.6-0.8,1.1c0.1,0.5,0.5,0.8,1,0.8C126.4,274.5,126.4,274.5,126.5,274.5z"/>
		<path d="M105.8,261c0.1,0.4,0.5,0.7,0.9,0.7c0.1,0,0.2,0,0.3,0c0.5-0.2,0.8-0.7,0.7-1.2c0-0.1-0.1-0.3-0.1-0.5
			c-0.1-0.5-0.7-0.8-1.2-0.7c-0.5,0.1-0.8,0.7-0.7,1.2C105.7,260.6,105.7,260.8,105.8,261z"/>
		<path d="M107.8,266.1c0.2,0.3,0.5,0.5,0.9,0.5c0.2,0,0.3,0,0.5-0.1c0.5-0.3,0.7-0.8,0.4-1.3c-0.1-0.1-0.1-0.3-0.2-0.4
			c-0.2-0.5-0.8-0.7-1.3-0.4c-0.5,0.2-0.7,0.8-0.4,1.3C107.6,265.8,107.7,265.9,107.8,266.1z"/>
		<path d="M112.5,269.2c-0.1-0.1-0.2-0.2-0.3-0.3c-0.4-0.4-1-0.4-1.4,0c-0.4,0.4-0.4,1,0,1.4c0.1,0.1,0.2,0.2,0.4,0.4
			c0.2,0.2,0.4,0.3,0.7,0.3c0.3,0,0.5-0.1,0.7-0.3C112.9,270.2,112.9,269.5,112.5,269.2z"/>
		<path d="M131.6,273.4c0.1,0,0.2,0,0.3,0l0.2-0.1c0.5-0.1,0.8-0.7,0.7-1.2c-0.1-0.5-0.7-0.8-1.2-0.7l-0.2,0.1
			c-0.5,0.1-0.8,0.7-0.7,1.2C130.8,273.1,131.2,273.4,131.6,273.4z"/>
		<path d="M104.7,199.8c0,0,2.9,0,5,0c2.1,0,0,33.8,0,33.8c0,13.9,8.6,26,20.9,31.5c0,0.2-0.1,0.4-0.1,0.7v0.7c0,2.4,2,4.4,4.4,4.5
			c0.1,5.8,0,10.9-0.5,11.6c-1.1,1.8-3.2,2.2-3.2,4.9c0,2.7,1.6,3.1,3.2,4.9c0.4,0.4,0.7,2.4,0.9,5.3h-0.4c-0.9,0-1.6,0.7-1.6,1.6v2
			c0,0.9,0.7,1.6,1.6,1.6h0.7c0.3,7.2,0.5,16.7,0.6,23.6c-1.8,0.5-3.3,2.3-3.8,4.8c-6.9,2.8-11.5,6.9-14.8,6.9c-5,0-5.2,0-5.2,0
			c-0.1,0-0.3,0.1-0.3,0.3v4.6c0,0.1,0.1,0.3,0.3,0.3h65.9c0.1,0,0.3-0.1,0.3-0.3v-4.6c0-0.1-0.1-0.3-0.3-0.3c0,0-0.5,0-5.2,0
			c-3.1,0-7.8-4.1-14.8-6.9c-0.5-2.4-2-4.3-3.8-4.7c0.2-6.9,0.5-16.3,0.8-23.6h0.5c0.9,0,1.6-0.7,1.6-1.6v-2c0-0.9-0.7-1.6-1.6-1.6
			h-0.2c0.2-2.9,0.4-4.8,0.7-5.3c1.1-1.8,3.2-2.1,3.2-4.9s-1.6-3.1-3.2-4.9c-0.6-0.7-0.8-5.8-0.7-11.6h0.1c2.5,0,4.5-2,4.5-4.5v-0.7
			c0-0.2,0-0.4-0.1-0.7c12.3-5.5,20.9-17.6,20.9-31.5c0,0-2.3-33.8,0-33.8c2.3,0,5,0,5,0c1.1,0,2-0.9,2-1.9v-2.1
			c0-1.1-0.9-1.9-2-1.9h-81.5c-1.1,0-2,0.9-2,1.9v2.1C102.7,198.9,103.6,199.8,104.7,199.8z M145.4,258.9
			c-7.9-0.1-14.3-6.5-14.2-14.5c0-0.7,0.1-1.3,0.1-1.9c0.9,7,6.9,12.5,14.1,12.5c7.3,0.1,13.3-5.3,14.3-12.3
			c0.1,0.6,0.1,1.3,0.1,1.9C159.8,252.6,153.3,259,145.4,258.9z M122.7,204.8c1-1.2,2.1-2.2,3.4-2.9c2.1-1.1,4.7-1.4,6.9-2.4h24.5
			c0,0,0,0.1,0,0.1c3.9,1,5,3.4,6,4.3c1.1,1,3,1.7,4.3,2.1c2.7,0.9,6.2,1.2,7.5,4.9c-1.6-3-5.6-2.5-8.7-2.4
			c-1.6,0.1-3.1-0.1-4.4-0.5c-2.1-0.8-4.1-2.4-6.2-3.4l8.9,11.5l-12.2-9.4c1,2.3,2.8,4.4,3.6,6.7c0.5,1.3,0.6,2.8,0.5,4.4
			c-0.1,3.1-0.6,7.1,2.4,8.7c-3.7-1.3-4.1-4.9-4.9-7.5c-0.4-1.3-1.1-3.2-2.1-4.3c-0.9-0.9-3.1-2.1-4.2-5.6l-2.4,24.4l-2.4-24.4
			c-1.1,3.6-3.3,4.7-4.2,5.6c-1,1.1-1.7,3-2.1,4.3c-0.9,2.7-1.2,6.2-4.9,7.5c3-1.6,2.5-5.6,2.4-8.7c-0.1-1.6,0.1-3.1,0.5-4.4
			c0.8-2.3,2.6-4.4,3.6-6.7l-12.2,9.4l9.3-12.1c-3.4,2.2-5.9,1.5-7.3,1.5c-1.5,0.1-3.3,1-4.5,1.7c-2.4,1.4-5.1,3.7-8.7,2.2
			C118.4,210.4,120.6,207.2,122.7,204.8z"/>
		<path d="M292.3,363.9c-0.5,0-1,0.4-1,1l0,0.2c0,0.5,0.4,1,1,1c0,0,0,0,0,0c0.5,0,1-0.4,1-1l0-0.2
			C293.3,364.3,292.8,363.9,292.3,363.9z"/>
		<path d="M293,418.3c0-0.5-0.4-1-0.9-1c-0.5,0-1,0.4-1,0.9l0,0.5c0,0.5,0.4,1,0.9,1c0,0,0,0,0,0c0.5,0,0.9-0.4,1-0.9L293,418.3z"/>
		<path d="M291.4,375.8c0,0.5,0.4,1,1,1c0,0,0,0,0,0c0.5,0,1-0.4,1-1l0-0.5l-0.6,0l-1.3,0L291.4,375.8z"/>
		<polygon points="292.4,375.3 292.7,375.3 293.4,375.3 		"/>
		<path d="M292.3,369c-0.5,0-1,0.4-1,1l0,0.5c0,0.5,0.4,1,1,1c0,0,0,0,0,0c0.5,0,1-0.4,1-1l0-0.5C293.3,369.4,292.9,369,292.3,369z"
			/>
		<path d="M291.5,386.1l0,0.5c0,0.5,0.4,1,1,1c0,0,0,0,0,0c0.5,0,1-0.4,1-1l0-0.5c0-0.5-0.4-1-1-1
			C291.9,385.1,291.5,385.5,291.5,386.1z"/>
		<path d="M292.4,379.7c-0.5,0-1,0.4-1,1l0,0.5c0,0.5,0.4,1,1,1c0,0,0,0,0,0c0.5,0,1-0.4,1-1l0-0.5
			C293.4,380.2,293,379.7,292.4,379.7z"/>
		<path d="M293.2,413c0-0.5-0.4-1-0.9-1c-0.5,0-1,0.4-1,0.9l0,0.5c0,0.5,0.4,1,0.9,1c0,0,0,0,0,0c0.5,0,1-0.4,1-0.9L293.2,413z"/>
		<path d="M288,451.7c0.4,0,0.8-0.3,0.9-0.7l0.1-0.5c0.1-0.5-0.2-1.1-0.7-1.2c-0.5-0.1-1.1,0.2-1.2,0.7l-0.1,0.5
			c-0.1,0.5,0.2,1.1,0.7,1.2C287.8,451.7,287.9,451.7,288,451.7z"/>
		<path d="M291.1,440.3l0.1-0.5c0.1-0.5-0.3-1-0.8-1.1c-0.5-0.1-1,0.3-1.1,0.8l-0.1,0.5c-0.1,0.5,0.3,1,0.8,1.1c0,0,0.1,0,0.1,0
			C290.7,441.2,291.1,440.8,291.1,440.3z"/>
		<path d="M286.8,454.4c-0.5-0.2-1.1,0-1.3,0.5c-0.1,0.1-0.1,0.3-0.2,0.4c-0.2,0.5,0,1.1,0.5,1.3c0.1,0.1,0.2,0.1,0.4,0.1
			c0.4,0,0.7-0.2,0.9-0.6c0.1-0.2,0.1-0.3,0.2-0.5C287.5,455.2,287.3,454.6,286.8,454.4z"/>
		<path d="M292.7,424.2l0-0.5c0-0.5-0.4-1-0.9-1c-0.5,0-1,0.4-1,0.9l0,0.5c0,0.5,0.4,1,0.9,1c0,0,0,0,0.1,0
			C292.2,425.1,292.7,424.7,292.7,424.2z"/>
		<path d="M292.3,429.6l0-0.5c0-0.5-0.4-1-0.9-1c-0.5,0-1,0.4-1,0.9l0,0.5c0,0.5,0.4,1,0.9,1c0,0,0.1,0,0.1,0
			C291.9,430.5,292.3,430.1,292.3,429.6z"/>
		<path d="M291.8,435l0.1-0.5c0.1-0.5-0.3-1-0.9-1.1c-0.5-0.1-1,0.3-1.1,0.9l-0.1,0.5c-0.1,0.5,0.3,1,0.9,1.1c0,0,0.1,0,0.1,0
			C291.3,435.8,291.8,435.5,291.8,435z"/>
		<path d="M290.2,445.7l0.1-0.5c0.1-0.5-0.2-1-0.8-1.1c-0.5-0.1-1,0.2-1.1,0.8l-0.1,0.5c-0.1,0.5,0.2,1,0.8,1.1c0.1,0,0.1,0,0.2,0
			C289.7,446.5,290.1,446.1,290.2,445.7z"/>
		<path d="M275.7,466c-0.1,0.1-0.3,0.1-0.4,0.1c-0.5,0.2-0.8,0.7-0.6,1.2c0.1,0.4,0.5,0.7,0.9,0.7c0.1,0,0.2,0,0.3,0
			c0.2-0.1,0.3-0.1,0.5-0.2c0.5-0.2,0.8-0.7,0.6-1.2C276.8,466.1,276.2,465.8,275.7,466z"/>
		<path d="M293.3,407.6c0-0.5-0.4-1-1-1c-0.5,0-1,0.4-1,1l0,0.5c0,0.5,0.4,1,1,1c0,0,0,0,0,0c0.5,0,1-0.4,1-1L293.3,407.6z"/>
		<path d="M283.2,459.6c-0.1,0.1-0.2,0.3-0.3,0.4c-0.3,0.4-0.2,1.1,0.3,1.3c0.2,0.1,0.4,0.2,0.5,0.2c0.3,0,0.6-0.2,0.8-0.4
			c0.1-0.1,0.2-0.3,0.3-0.4c0.3-0.5,0.1-1.1-0.3-1.3C284.1,459,283.5,459.1,283.2,459.6z"/>
		<path d="M270.5,466.9l-0.2,0c-0.5,0-1,0.4-1,1c0,0.5,0.4,1,1,1l0.2,0l0.3,0c0.5,0,1-0.4,1-1c0-0.5-0.5-1-1-1L270.5,466.9z"/>
		<path d="M280,463.5c-0.1,0.1-0.2,0.2-0.3,0.3c-0.4,0.3-0.5,1-0.1,1.4c0.2,0.2,0.5,0.4,0.8,0.4c0.2,0,0.4-0.1,0.6-0.2
			c0.1-0.1,0.3-0.2,0.4-0.3c0.4-0.4,0.4-1,0.1-1.4C281,463.2,280.4,463.1,280,463.5z"/>
		<path d="M293.4,396.8c0-0.5-0.4-1-1-1c0,0,0,0,0,0c-0.5,0-1,0.4-1,1l0,0.5c0,0.5,0.4,1,1,1c0,0,0,0,0,0c0.5,0,1-0.4,1-1
			L293.4,396.8z"/>
		<path d="M293.4,391.5c0-0.5-0.4-1-1-1c-0.5,0-1,0.4-1,1v0.5c0,0.5,0.4,1,1,1h0c0.5,0,1-0.4,1-1V391.5z"/>
		<path d="M293.4,402.2c0-0.5-0.4-1-1-1c-0.5,0-1,0.4-1,1l0,0.5c0,0.5,0.4,1,1,1c0,0,0,0,0,0c0.5,0,1-0.4,1-1L293.4,402.2z"/>
		<path d="M265.6,466.3l-0.2,0c-0.5-0.1-1,0.2-1.2,0.7c-0.1,0.5,0.2,1,0.7,1.2l0.2,0.1c0.1,0,0.1,0,0.2,0c0.4,0,0.9-0.3,1-0.8
			C266.4,466.9,266.1,466.4,265.6,466.3z"/>
		<path d="M211.9,366C211.9,366,211.9,366,211.9,366c0.5,0,1-0.4,1-1l0-0.2c0-0.5-0.4-1-1-1c-0.5,0-1,0.4-1,1l0,0.2
			C211,365.6,211.4,366,211.9,366z"/>
		<path d="M210.2,391.7c0,0.5,0.4,1,0.9,1c0,0,0,0,0,0c0.5,0,1-0.4,1-0.9l0-0.5c0-0.5-0.4-1-0.9-1c-0.5,0-1,0.4-1,0.9L210.2,391.7z"
			/>
		<path d="M210.1,397c0,0.5,0.4,1,1,1c0,0,0,0,0,0c0.5,0,1-0.4,1-1l0-0.5c0-0.5-0.4-1-0.9-1c-0.5,0-1,0.4-1,0.9L210.1,397z"/>
		<path d="M210,402.4c0,0.5,0.4,1,1,1l0,0c0.5,0,1-0.4,1-1l0-0.5c0-0.5-0.4-1-1-1c0,0,0,0,0,0c-0.5,0-1,0.4-1,1L210,402.4z"/>
		<path d="M211.1,408.7c0.5,0,1-0.5,0.9-1l0-0.5c0-0.5-0.5-1-1-0.9c-0.5,0-1,0.5-0.9,1l0,0.5C210.1,408.3,210.5,408.7,211.1,408.7
			C211.1,408.7,211.1,408.7,211.1,408.7z"/>
		<path d="M211.9,371.4C211.9,371.4,211.9,371.4,211.9,371.4c0.5,0,1-0.4,1-1l0-0.5c0-0.5-0.4-1-1-1c0,0,0,0,0,0c-0.5,0-1,0.4-1,1
			l0,0.5C210.9,370.9,211.4,371.4,211.9,371.4z"/>
		<path d="M211.4,414C211.4,414,211.4,414,211.4,414c0.6,0,1-0.5,1-1.1l0-0.5c0-0.5-0.5-0.9-1-0.9c-0.5,0-0.9,0.5-0.9,1l0,0.5
			C210.4,413.7,210.9,414,211.4,414z"/>
		<path d="M210.8,375.7c0,0.5,0.4,1,0.9,1c0,0,0,0,0,0c0.5,0,1-0.4,1-0.9l0-0.5c0-0.5-0.4-1-0.9-1c-0.5,0-1,0.4-1,0.9L210.8,375.7z"
			/>
		<path d="M210.6,381c0,0.5,0.4,1,0.9,1c0,0,0,0,0,0c0.5,0,1-0.4,1-0.9l0-0.5c0-0.5-0.4-1-0.9-1c-0.5,0-1,0.4-1,0.9L210.6,381z"/>
		<path d="M210.4,386.4c0,0.5,0.4,1,0.9,1c0,0,0,0,0,0c0.5,0,0.9-0.4,1-0.9l0-0.5c0-0.5-0.4-1-0.9-1c-0.5,0-1,0.4-1,0.9L210.4,386.4
			z"/>
		<path d="M222.5,436.5c0.1,0,0.2,0.1,0.3,0.1c0.4,0,0.8-0.2,0.9-0.6c0.2-0.5-0.1-1.1-0.6-1.3c-0.1-0.1-0.3-0.1-0.4-0.2
			c-0.5-0.2-1.1,0-1.3,0.5c-0.2,0.5,0,1.1,0.5,1.3C222.1,436.3,222.3,436.4,222.5,436.5z"/>
		<path d="M228,437.6C228,437.6,228,437.6,228,437.6c0.6,0,1-0.4,1-0.9c0-0.5-0.4-1-0.9-1c-0.2,0-0.3,0-0.5,0c-0.5,0-1,0.4-1,0.9
			c0,0.5,0.4,1,0.9,1C227.6,437.6,227.8,437.6,228,437.6z"/>
		<path d="M211.8,416.9c-0.5,0.1-0.9,0.6-0.8,1.1l0.1,0.5c0.1,0.5,0.5,0.8,1,0.8c0.1,0,0.1,0,0.2,0c0.5-0.1,0.9-0.6,0.8-1.1
			l-0.1-0.5C212.8,417.2,212.3,416.8,211.8,416.9z"/>
		<path d="M233,437.4c0.2,0,0.3,0,0.5-0.1c0.5-0.1,0.9-0.6,0.8-1.1c-0.1-0.5-0.6-0.9-1.1-0.8c-0.2,0-0.3,0-0.5,0.1
			c-0.5,0.1-0.9,0.6-0.8,1.1c0.1,0.5,0.5,0.8,1,0.8C232.9,437.4,232.9,437.4,233,437.4z"/>
		<path d="M214,422.8c-0.1-0.5-0.7-0.8-1.2-0.7c-0.5,0.1-0.8,0.7-0.7,1.2c0,0.2,0.1,0.3,0.1,0.5c0.1,0.4,0.5,0.7,0.9,0.7
			c0.1,0,0.2,0,0.3,0c0.5-0.2,0.8-0.7,0.7-1.2C214.1,423.1,214,423,214,422.8z"/>
		<path d="M214.3,429c0.2,0.3,0.5,0.5,0.9,0.5c0.2,0,0.3,0,0.5-0.1c0.5-0.3,0.7-0.8,0.4-1.3c-0.1-0.1-0.1-0.3-0.2-0.4
			c-0.2-0.5-0.8-0.7-1.3-0.4c-0.5,0.2-0.7,0.8-0.4,1.3C214.2,428.7,214.2,428.8,214.3,429z"/>
		<path d="M219,432c-0.1-0.1-0.2-0.2-0.3-0.3c-0.4-0.4-1-0.4-1.4,0c-0.4,0.4-0.4,1,0,1.4c0.1,0.1,0.2,0.2,0.4,0.4
			c0.2,0.2,0.4,0.3,0.7,0.3c0.3,0,0.5-0.1,0.7-0.3C219.4,433,219.4,432.4,219,432z"/>
		<path d="M238.1,436.3c0.1,0,0.2,0,0.3,0l0.2-0.1c0.5-0.1,0.8-0.7,0.7-1.2c-0.1-0.5-0.7-0.8-1.2-0.7l-0.2,0.1
			c-0.5,0.1-0.8,0.7-0.7,1.2C237.3,436,237.7,436.3,238.1,436.3z"/>
		<path d="M285.2,505.8v-4.6c0-0.1-0.1-0.3-0.3-0.3c0,0-0.5,0-5.2,0c-3.1,0-7.8-4.1-14.8-6.9c-0.5-2.4-2-4.3-3.8-4.7
			c0.2-6.9,0.5-16.3,0.8-23.6h0.5c0.9,0,1.6-0.7,1.6-1.6v-2c0-0.9-0.7-1.6-1.6-1.6h-0.2c0.2-2.9,0.4-4.8,0.7-5.3
			c1.1-1.8,3.2-2.1,3.2-4.9s-1.6-3.1-3.2-4.9c-0.6-0.7-0.8-5.8-0.7-11.6h0.1c2.5,0,4.5-2,4.5-4.5v-0.7c0-0.2,0-0.4-0.1-0.7
			c12.3-5.5,20.9-17.6,20.9-31.5c0,0-2.3-33.8,0-33.8c2.3,0,5,0,5,0c1.1,0,2-0.9,2-1.9v-2.1c0-1.1-0.9-1.9-2-1.9h-81.5
			c-1.1,0-2,0.9-2,1.9v2.1c0,1.1,0.9,1.9,2,1.9c0,0,2.9,0,5,0c2.1,0,0,33.8,0,33.8c0,13.9,8.6,26,20.9,31.5c0,0.2-0.1,0.4-0.1,0.7
			v0.7c0,2.4,2,4.4,4.4,4.5c0.1,5.8,0,10.9-0.5,11.6c-1.1,1.8-3.2,2.2-3.2,4.9s1.6,3.1,3.2,4.9c0.4,0.4,0.7,2.4,0.9,5.3h-0.4
			c-0.9,0-1.6,0.7-1.6,1.6v2c0,0.9,0.7,1.6,1.6,1.6h0.7c0.3,7.2,0.5,16.7,0.6,23.6c-1.8,0.5-3.3,2.3-3.8,4.8
			c-6.9,2.8-11.5,6.9-14.8,6.9c-5,0-5.2,0-5.2,0c-0.1,0-0.3,0.1-0.3,0.3v4.6c0,0.1,0.1,0.3,0.3,0.3h65.9
			C285.1,506,285.2,505.9,285.2,505.8z M232.7,379.1L242,367c-3.4,2.2-5.9,1.5-7.3,1.5c-1.5,0.1-3.3,1-4.5,1.7
			c-2.4,1.4-5.1,3.7-8.7,2.2c3.3,0.8,5.6-2.4,7.7-4.8c1-1.2,2.1-2.2,3.4-2.9c2.1-1.1,4.7-1.4,6.9-2.4h24.5c0,0,0,0.1,0,0.1
			c3.9,1,5,3.4,6,4.3c1.1,1,3,1.7,4.3,2.1c2.7,0.9,6.2,1.2,7.5,4.9c-1.6-3-5.6-2.5-8.7-2.4c-1.6,0.1-3.1-0.1-4.4-0.5
			c-2.1-0.8-4.1-2.4-6.2-3.4l8.9,11.5l-12.2-9.4c1,2.3,2.8,4.4,3.6,6.7c0.5,1.3,0.6,2.8,0.5,4.4c-0.1,3.1-0.6,7.1,2.4,8.7
			c-3.7-1.3-4.1-4.9-4.9-7.5c-0.4-1.3-1.1-3.2-2.1-4.3c-0.9-0.9-3.1-2.1-4.2-5.6l-2.4,24.4l-2.4-24.4c-1.1,3.6-3.3,4.7-4.2,5.6
			c-1,1.1-1.7,3-2.1,4.3c-0.9,2.7-1.2,6.2-4.9,7.5c3-1.6,2.5-5.6,2.4-8.7c-0.1-1.6,0.1-3.1,0.5-4.4c0.8-2.3,2.6-4.4,3.6-6.7
			L232.7,379.1z M237.6,407.3c0-0.7,0.1-1.3,0.1-1.9c0.9,7,6.9,12.5,14.1,12.5c7.3,0.1,13.3-5.3,14.3-12.3c0.1,0.6,0.1,1.3,0.1,1.9
			c-0.1,7.9-6.5,14.3-14.5,14.2C243.9,421.7,237.6,415.3,237.6,407.3z"/>
		<path d="M398.8,201c-0.5,0-1,0.4-1,1l0,0.2c0,0.5,0.4,1,1,1c0,0,0,0,0,0c0.5,0,1-0.4,1-1l0-0.2C399.8,201.4,399.3,201,398.8,201z"
			/>
		<path d="M397.5,255.9c0,0.5,0.4,1,0.9,1c0,0,0,0,0,0c0.5,0,0.9-0.4,1-0.9l0-0.5c0-0.5-0.4-1-0.9-1c-0.5,0-1,0.4-1,0.9L397.5,255.9
			z"/>
		<path d="M397.9,213c0,0.5,0.4,1,1,1c0,0,0,0,0,0c0.5,0,1-0.4,1-1l0-0.5l-0.6,0l-1.3,0L397.9,213z"/>
		<polygon points="398.9,212.5 399.2,212.5 399.9,212.5 		"/>
		<path d="M398.8,206.1c-0.5,0-1,0.4-1,1l0,0.5c0,0.5,0.4,1,1,1c0,0,0,0,0,0c0.5,0,1-0.4,1-1l0-0.5
			C399.8,206.5,399.4,206.1,398.8,206.1z"/>
		<path d="M399,222.2c-0.5,0-1,0.4-1,1l0,0.5c0,0.5,0.4,1,1,1c0,0,0,0,0,0c0.5,0,1-0.4,1-1l0-0.5C399.9,222.7,399.5,222.2,399,222.2
			z"/>
		<path d="M398.9,216.9c-0.5,0-1,0.4-1,1l0,0.5c0,0.5,0.4,1,1,1c0,0,0,0,0,0c0.5,0,1-0.4,1-1l0-0.5
			C399.9,217.3,399.5,216.9,398.9,216.9z"/>
		<path d="M397.7,250.5c0,0.5,0.4,1,0.9,1c0,0,0,0,0,0c0.5,0,1-0.4,1-0.9l0-0.5c0-0.5-0.4-1-0.9-1c-0.5,0-1,0.4-1,0.9L397.7,250.5z"
			/>
		<path d="M393.7,287.1l-0.1,0.5c-0.1,0.5,0.2,1.1,0.7,1.2c0.1,0,0.2,0,0.3,0c0.4,0,0.8-0.3,0.9-0.7l0.1-0.5
			c0.1-0.5-0.2-1.1-0.7-1.2C394.4,286.3,393.8,286.6,393.7,287.1z"/>
		<path d="M395.8,276.7l-0.1,0.5c-0.1,0.5,0.3,1,0.8,1.1c0,0,0.1,0,0.1,0c0.5,0,0.9-0.3,1-0.8l0.1-0.5c0.1-0.5-0.3-1-0.8-1.1
			C396.4,275.8,395.9,276.2,395.8,276.7z"/>
		<path d="M392,292.1c-0.1,0.1-0.1,0.3-0.2,0.4c-0.2,0.5,0,1.1,0.5,1.3c0.1,0.1,0.2,0.1,0.4,0.1c0.4,0,0.7-0.2,0.9-0.6
			c0.1-0.2,0.1-0.3,0.2-0.5c0.2-0.5,0-1.1-0.5-1.3C392.8,291.3,392.2,291.6,392,292.1z"/>
		<path d="M397.3,261.2c0,0.5,0.4,1,0.9,1c0,0,0,0,0.1,0c0.5,0,0.9-0.4,1-0.9l0-0.5c0-0.5-0.4-1-0.9-1c-0.5,0-1,0.4-1,0.9
			L397.3,261.2z"/>
		<path d="M396.9,266.6c0,0.5,0.4,1,0.9,1c0,0,0.1,0,0.1,0c0.5,0,0.9-0.4,1-0.9l0-0.5c0-0.5-0.4-1-0.9-1c-0.5,0-1,0.4-1,0.9
			L396.9,266.6z"/>
		<path d="M396.4,271.4l-0.1,0.5c-0.1,0.5,0.3,1,0.9,1.1c0,0,0.1,0,0.1,0c0.5,0,0.9-0.4,1-0.9l0.1-0.5c0.1-0.5-0.3-1-0.9-1.1
			C397,270.5,396.5,270.9,396.4,271.4z"/>
		<path d="M394.9,281.9l-0.1,0.5c-0.1,0.5,0.2,1,0.8,1.1c0.1,0,0.1,0,0.2,0c0.5,0,0.9-0.3,1-0.8l0.1-0.5c0.1-0.5-0.2-1-0.8-1.1
			C395.5,281.1,395,281.4,394.9,281.9z"/>
		<path d="M382.2,303.1c-0.1,0.1-0.3,0.1-0.4,0.1c-0.5,0.2-0.8,0.7-0.6,1.2c0.1,0.4,0.5,0.7,0.9,0.7c0.1,0,0.2,0,0.3,0
			c0.2-0.1,0.3-0.1,0.5-0.2c0.5-0.2,0.8-0.7,0.6-1.2C383.3,303.2,382.7,303,382.2,303.1z"/>
		<path d="M398.9,243.7c-0.5,0-1,0.4-1,1l0,0.5c0,0.5,0.4,1,1,1c0,0,0,0,0,0c0.5,0,1-0.4,1-1l0-0.5
			C399.8,244.2,399.4,243.7,398.9,243.7z"/>
		<path d="M389.7,296.7c-0.1,0.1-0.2,0.3-0.3,0.4c-0.3,0.4-0.2,1.1,0.3,1.3c0.2,0.1,0.4,0.2,0.5,0.2c0.3,0,0.6-0.2,0.8-0.4
			c0.1-0.1,0.2-0.3,0.3-0.4c0.3-0.5,0.1-1.1-0.3-1.3C390.6,296.1,390,296.3,389.7,296.7z"/>
		<path d="M377,304l-0.2,0c-0.5,0-1,0.4-1,1c0,0.5,0.4,1,1,1l0.2,0l0.3,0c0.5,0,1-0.4,1-1c0-0.5-0.5-1-1-1L377,304z"/>
		<path d="M386.5,300.6c-0.1,0.1-0.2,0.2-0.3,0.3c-0.4,0.3-0.5,1-0.1,1.4c0.2,0.2,0.5,0.4,0.8,0.4c0.2,0,0.4-0.1,0.6-0.2
			c0.1-0.1,0.3-0.2,0.4-0.3c0.4-0.4,0.4-1,0.1-1.4C387.5,300.3,386.9,300.3,386.5,300.6z"/>
		<path d="M399.9,234c0-0.5-0.4-1-1-1c0,0,0,0,0,0c-0.5,0-1,0.4-1,1l0,0.5c0,0.5,0.4,1,1,1c0,0,0,0,0,0c0.5,0,1-0.4,1-1L399.9,234z"
			/>
		<path d="M399.9,228.6c0-0.5-0.4-1-1-1c-0.5,0-1,0.4-1,1v0.5c0,0.5,0.4,1,1,1h0c0.5,0,1-0.4,1-1V228.6z"/>
		<path d="M399.9,239.3c0-0.5-0.4-1-1-1c-0.5,0-1,0.4-1,1l0,0.5c0,0.5,0.4,1,1,1c0,0,0,0,0,0c0.5,0,1-0.4,1-1L399.9,239.3z"/>
		<path d="M372.1,303.4l-0.2,0c-0.5-0.1-1,0.2-1.2,0.7c-0.1,0.5,0.2,1,0.7,1.2l0.2,0.1c0.1,0,0.1,0,0.2,0c0.4,0,0.9-0.3,1-0.8
			C373,304.1,372.6,303.5,372.1,303.4z"/>
		<path d="M318.4,203.2C318.4,203.2,318.4,203.2,318.4,203.2c0.5,0,1-0.4,1-1l0-0.2c0-0.5-0.4-1-1-1c-0.5,0-1,0.4-1,1l0,0.2
			C317.5,202.8,317.9,203.2,318.4,203.2z"/>
		<path d="M316.7,228.8c0,0.5,0.4,1,0.9,1c0,0,0,0,0,0c0.5,0,1-0.4,1-0.9l0-0.5c0-0.5-0.4-1-0.9-1c-0.5,0-1,0.4-1,0.9L316.7,228.8z"
			/>
		<path d="M316.6,234.2c0,0.5,0.4,1,1,1c0,0,0,0,0,0c0.5,0,1-0.4,1-1l0-0.5c0-0.5-0.4-1-0.9-1c-0.5,0-1,0.4-1,0.9L316.6,234.2z"/>
		<path d="M316.5,239.5c0,0.5,0.4,1,1,1h0c0.5,0,1-0.4,1-1l0-0.5c0-0.5-0.4-1-1-1c0,0,0,0,0,0c-0.5,0-1,0.4-1,1L316.5,239.5z"/>
		<path d="M317.6,245.8c0.5,0,1-0.5,0.9-1l0-0.5c0-0.5-0.5-1-1-0.9c-0.5,0-1,0.5-0.9,1l0,0.5C316.6,245.4,317,245.8,317.6,245.8
			C317.6,245.8,317.6,245.8,317.6,245.8z"/>
		<path d="M318.4,208.5C318.4,208.5,318.4,208.5,318.4,208.5c0.5,0,1-0.4,1-1l0-0.5c0-0.5-0.4-1-1-1c0,0,0,0,0,0c-0.5,0-1,0.4-1,1
			l0,0.5C317.4,208.1,317.9,208.5,318.4,208.5z"/>
		<path d="M317.9,251.2C317.9,251.2,317.9,251.2,317.9,251.2c0.6,0,1-0.5,1-1.1l0-0.5c0-0.5-0.5-0.9-1-0.9c-0.5,0-0.9,0.5-0.9,1
			l0,0.5C316.9,250.8,317.4,251.2,317.9,251.2z"/>
		<path d="M317.3,212.8c0,0.5,0.4,1,0.9,1c0,0,0,0,0,0c0.5,0,1-0.4,1-0.9l0-0.5c0-0.5-0.4-1-0.9-1c-0.5,0-1,0.4-1,0.9L317.3,212.8z"
			/>
		<path d="M317.1,218.2c0,0.5,0.4,1,0.9,1c0,0,0,0,0,0c0.5,0,1-0.4,1-0.9l0-0.5c0-0.5-0.4-1-0.9-1c-0.5,0-1,0.4-1,0.9L317.1,218.2z"
			/>
		<path d="M316.9,223.5c0,0.5,0.4,1,0.9,1c0,0,0,0,0,0c0.5,0,0.9-0.4,1-0.9l0-0.5c0-0.5-0.4-1-0.9-1c-0.5,0-1,0.4-1,0.9L316.9,223.5
			z"/>
		<path d="M329,273.6c0.1,0,0.2,0.1,0.3,0.1c0.4,0,0.8-0.2,0.9-0.6c0.2-0.5-0.1-1.1-0.6-1.3c-0.1-0.1-0.3-0.1-0.4-0.2
			c-0.5-0.2-1.1,0-1.3,0.5c-0.2,0.5,0,1.1,0.5,1.3C328.7,273.5,328.8,273.5,329,273.6z"/>
		<path d="M334.5,274.7C334.5,274.7,334.5,274.7,334.5,274.7c0.6,0,1-0.4,1-0.9c0-0.5-0.4-1-0.9-1c-0.2,0-0.3,0-0.5,0
			c-0.5,0-1,0.4-1,0.9c0,0.5,0.4,1,0.9,1C334.1,274.7,334.3,274.7,334.5,274.7z"/>
		<path d="M318.3,254c-0.5,0.1-0.9,0.6-0.8,1.1l0.1,0.5c0.1,0.5,0.5,0.8,1,0.8c0.1,0,0.1,0,0.2,0c0.5-0.1,0.9-0.6,0.8-1.1l-0.1-0.5
			C319.3,254.3,318.8,254,318.3,254z"/>
		<path d="M339.5,274.5c0.2,0,0.3,0,0.5-0.1c0.5-0.1,0.9-0.6,0.8-1.1c-0.1-0.5-0.6-0.9-1.1-0.8c-0.2,0-0.3,0-0.5,0.1
			c-0.5,0.1-0.9,0.6-0.8,1.1c0.1,0.5,0.5,0.8,1,0.8C339.4,274.5,339.4,274.5,339.5,274.5z"/>
		<path d="M320.5,260c-0.1-0.5-0.7-0.8-1.2-0.7c-0.5,0.1-0.8,0.7-0.7,1.2c0,0.2,0.1,0.3,0.1,0.5c0.1,0.4,0.5,0.7,0.9,0.7
			c0.1,0,0.2,0,0.3,0c0.5-0.2,0.8-0.7,0.7-1.2C320.6,260.3,320.5,260.1,320.5,260z"/>
		<path d="M320.8,266.1c0.2,0.3,0.5,0.5,0.9,0.5c0.2,0,0.3,0,0.5-0.1c0.5-0.3,0.7-0.8,0.4-1.3c-0.1-0.1-0.1-0.3-0.2-0.4
			c-0.2-0.5-0.8-0.7-1.3-0.4c-0.5,0.2-0.7,0.8-0.4,1.3C320.7,265.8,320.7,265.9,320.8,266.1z"/>
		<path d="M324.8,270.8c0.3,0,0.5-0.1,0.7-0.3c0.4-0.4,0.4-1,0-1.4c-0.1-0.1-0.2-0.2-0.3-0.3c-0.4-0.4-1-0.4-1.4,0
			c-0.4,0.4-0.4,1,0,1.4c0.1,0.1,0.2,0.2,0.4,0.4C324.4,270.8,324.6,270.8,324.8,270.8z"/>
		<path d="M344.6,273.4c0.1,0,0.2,0,0.3,0l0.2-0.1c0.5-0.1,0.8-0.7,0.7-1.2c-0.1-0.5-0.7-0.8-1.2-0.7l-0.2,0.1
			c-0.5,0.1-0.8,0.7-0.7,1.2C343.8,273.1,344.2,273.4,344.6,273.4z"/>
		<path d="M399.2,193.9h-81.5c-1.1,0-2,0.9-2,1.9v2.1c0,1.1,0.9,1.9,2,1.9c0,0,2.9,0,5,0c2.1,0,0,33.8,0,33.8
			c0,13.9,8.6,26,20.9,31.5c0,0.2-0.1,0.4-0.1,0.7v0.7c0,2.4,2,4.4,4.4,4.5c0.1,5.8,0,10.9-0.5,11.6c-1.1,1.8-3.2,2.2-3.2,4.9
			c0,2.7,1.6,3.1,3.2,4.9c0.4,0.4,0.7,2.4,0.9,5.3h-0.4c-0.9,0-1.6,0.7-1.6,1.6v2c0,0.9,0.7,1.6,1.6,1.6h0.7
			c0.3,7.2,0.5,16.7,0.6,23.6c-1.8,0.5-3.3,2.3-3.8,4.8c-6.9,2.8-11.5,6.9-14.8,6.9c-5,0-5.2,0-5.2,0c-0.1,0-0.3,0.1-0.3,0.3v4.6
			c0,0.1,0.1,0.3,0.3,0.3h65.9c0.1,0,0.3-0.1,0.3-0.3v-4.6c0-0.1-0.1-0.3-0.3-0.3c0,0-0.5,0-5.2,0c-3.1,0-7.8-4.1-14.8-6.9
			c-0.5-2.4-2-4.3-3.8-4.7c0.2-6.9,0.5-16.3,0.8-23.6h0.5c0.9,0,1.6-0.7,1.6-1.6v-2c0-0.9-0.7-1.6-1.6-1.6h-0.2
			c0.2-2.9,0.4-4.8,0.7-5.3c1.1-1.8,3.2-2.1,3.2-4.9s-1.6-3.1-3.2-4.9c-0.6-0.7-0.8-5.8-0.7-11.6h0.1c2.5,0,4.5-2,4.5-4.5v-0.7
			c0-0.2,0-0.4-0.1-0.7c12.3-5.5,20.9-17.6,20.9-31.5c0,0-2.3-33.8,0-33.8c2.3,0,5,0,5,0c1.1,0,2-0.9,2-1.9v-2.1
			C401.2,194.7,400.3,193.9,399.2,193.9z M358.4,258.9c-7.9-0.1-14.3-6.5-14.2-14.5c0-0.7,0.1-1.3,0.1-1.9c0.9,7,6.9,12.5,14.1,12.5
			c7.3,0.1,13.3-5.3,14.3-12.3c0.1,0.6,0.1,1.3,0.1,1.9C372.8,252.6,366.3,259,358.4,258.9z M379.6,208.6c-1.6,0.1-3.1-0.1-4.4-0.5
			c-2.1-0.8-4.1-2.4-6.2-3.4l8.9,11.5l-12.2-9.4c1,2.3,2.8,4.4,3.6,6.7c0.5,1.3,0.6,2.8,0.5,4.4c-0.1,3.1-0.6,7.1,2.4,8.7
			c-3.7-1.3-4.1-4.9-4.9-7.5c-0.4-1.3-1.1-3.2-2.1-4.3c-0.9-0.9-3.1-2.1-4.2-5.6l-2.4,24.4l-2.4-24.4c-1.1,3.6-3.3,4.7-4.2,5.6
			c-1,1.1-1.7,3-2.1,4.3c-0.9,2.7-1.2,6.2-4.9,7.5c3-1.6,2.5-5.6,2.4-8.7c-0.1-1.6,0.1-3.1,0.5-4.4c0.8-2.3,2.6-4.4,3.6-6.7
			l-12.2,9.4l9.3-12.1c-3.4,2.2-5.9,1.5-7.3,1.5c-1.5,0.1-3.3,1-4.5,1.7c-2.4,1.4-5.1,3.7-8.7,2.2c3.3,0.8,5.6-2.4,7.7-4.8
			c1-1.2,2.1-2.2,3.4-2.9c2.1-1.1,4.7-1.4,6.9-2.4h24.5c0,0,0,0.1,0,0.1c3.9,1,5,3.4,6,4.3c1.1,1,3,1.7,4.3,2.1
			c2.7,0.9,6.2,1.2,7.5,4.9C386.6,208,382.7,208.5,379.6,208.6z"/>
		<path d="M185.8,529.9c0.5,0,1-0.4,1-1l0-0.2c0-0.5-0.4-1-1-1c-0.5,0-1,0.4-1,1l0,0.2C184.8,529.5,185.3,529.9,185.8,529.9
			C185.8,529.9,185.8,529.9,185.8,529.9z"/>
		<path d="M185.6,581.2c-0.5,0-1,0.4-1,0.9l0,0.5c0,0.5,0.4,1,0.9,1c0,0,0,0,0,0c0.5,0,0.9-0.4,1-0.9l0-0.5
			C186.5,581.7,186.1,581.3,185.6,581.2z"/>
		<path d="M185.9,540.7C185.9,540.7,185.9,540.7,185.9,540.7c0.5,0,1-0.4,1-1l0-0.5l-0.6,0l-1.3,0l0,0.5
			C184.9,540.3,185.4,540.7,185.9,540.7z"/>
		<polygon points="185.9,539.2 186.2,539.2 186.9,539.2 		"/>
		<path d="M185.8,535.3C185.8,535.3,185.9,535.3,185.8,535.3c0.5,0,1-0.4,1-1l0-0.5c0-0.5-0.4-1-1-1c-0.5,0-1,0.4-1,1l0,0.5
			C184.9,534.9,185.3,535.3,185.8,535.3z"/>
		<path d="M185,550l0,0.5c0,0.5,0.4,1,1,1c0,0,0,0,0,0c0.5,0,1-0.4,1-1l0-0.5c0-0.5-0.4-1-1-1C185.4,549,185,549.4,185,550z"/>
		<path d="M185.9,546.1C185.9,546.1,185.9,546.1,185.9,546.1c0.5,0,1-0.4,1-1l0-0.5c0-0.5-0.4-1-1-1c-0.5,0-1,0.4-1,1l0,0.5
			C185,545.6,185.4,546.1,185.9,546.1z"/>
		<path d="M185.7,575.9c-0.5,0-1,0.4-1,0.9l0,0.5c0,0.5,0.4,1,0.9,1c0,0,0,0,0,0c0.5,0,1-0.4,1-0.9l0-0.5
			C186.7,576.3,186.3,575.9,185.7,575.9z"/>
		<path d="M181.9,613.2c-0.5-0.1-1.1,0.2-1.2,0.7l-0.1,0.5c-0.1,0.5,0.2,1.1,0.7,1.2c0.1,0,0.2,0,0.3,0c0.4,0,0.8-0.3,0.9-0.7
			l0.1-0.5C182.7,613.9,182.4,613.3,181.9,613.2z"/>
		<path d="M183.9,602.6c-0.5-0.1-1,0.3-1.1,0.8l-0.1,0.5c-0.1,0.5,0.3,1,0.8,1.1c0,0,0.1,0,0.1,0c0.5,0,0.9-0.3,1-0.8l0.1-0.5
			C184.8,603.2,184.4,602.7,183.9,602.6z"/>
		<path d="M180.3,618.3c-0.5-0.2-1.1,0-1.3,0.5c-0.1,0.1-0.1,0.3-0.2,0.4c-0.2,0.5,0,1.1,0.5,1.3c0.1,0.1,0.2,0.1,0.4,0.1
			c0.4,0,0.7-0.2,0.9-0.6c0.1-0.2,0.1-0.3,0.2-0.5C181,619.1,180.8,618.5,180.3,618.3z"/>
		<path d="M185.3,586.6c-0.5,0-1,0.4-1,0.9l0,0.5c0,0.5,0.4,1,0.9,1c0,0,0,0,0.1,0c0.5,0,0.9-0.4,1-0.9l0-0.5
			C186.3,587.1,185.9,586.6,185.3,586.6z"/>
		<path d="M185,592c-0.5,0-1,0.4-1,0.9l0,0.5c0,0.5,0.4,1,0.9,1c0,0,0.1,0,0.1,0c0.5,0,0.9-0.4,1-0.9l0-0.5
			C185.9,592.5,185.5,592,185,592z"/>
		<path d="M184.5,597.3c-0.5-0.1-1,0.3-1.1,0.9l-0.1,0.5c-0.1,0.5,0.3,1,0.9,1.1c0,0,0.1,0,0.1,0c0.5,0,0.9-0.4,1-0.9l0.1-0.5
			C185.4,597.8,185,597.4,184.5,597.3z"/>
		<path d="M183,607.9c-0.5-0.1-1,0.2-1.1,0.8l-0.1,0.5c-0.1,0.5,0.2,1,0.8,1.1c0.1,0,0.1,0,0.2,0c0.5,0,0.9-0.3,1-0.8l0.1-0.5
			C183.9,608.6,183.6,608,183,607.9z"/>
		<path d="M169.2,629.9c-0.1,0.1-0.3,0.1-0.4,0.1c-0.5,0.2-0.8,0.7-0.6,1.2c0.1,0.4,0.5,0.7,0.9,0.7c0.1,0,0.2,0,0.3,0
			c0.2-0.1,0.3-0.1,0.5-0.2c0.5-0.2,0.8-0.7,0.6-1.2C170.3,630,169.7,629.7,169.2,629.9z"/>
		<path d="M185.8,570.5c-0.5,0-1,0.4-1,1l0,0.5c0,0.5,0.4,1,1,1c0,0,0,0,0,0c0.5,0,1-0.4,1-1l0-0.5
			C186.8,570.9,186.4,570.5,185.8,570.5z"/>
		<path d="M176.7,623.5c-0.1,0.1-0.2,0.3-0.3,0.4c-0.3,0.4-0.2,1.1,0.3,1.3c0.2,0.1,0.4,0.2,0.5,0.2c0.3,0,0.6-0.2,0.8-0.4
			c0.1-0.1,0.2-0.3,0.3-0.4c0.3-0.5,0.1-1.1-0.3-1.3C177.6,622.9,177,623,176.7,623.5z"/>
		<path d="M164,630.7l-0.2,0c-0.5,0-1,0.4-1,1c0,0.5,0.4,1,1,1l0.2,0l0.3,0c0.5,0,1-0.4,1-1c0-0.5-0.5-1-1-1L164,630.7z"/>
		<path d="M173.5,627.4c-0.1,0.1-0.2,0.2-0.3,0.3c-0.4,0.3-0.5,1-0.1,1.4c0.2,0.2,0.5,0.4,0.8,0.4c0.2,0,0.4-0.1,0.6-0.2
			c0.1-0.1,0.3-0.2,0.4-0.3c0.4-0.4,0.4-1,0.1-1.4C174.5,627.1,173.9,627,173.5,627.4z"/>
		<path d="M185.9,562.2C185.9,562.2,185.9,562.2,185.9,562.2c0.5,0,1-0.4,1-1l0-0.5c0-0.5-0.4-1-1-1c0,0,0,0,0,0c-0.5,0-1,0.4-1,1
			l0,0.5C185,561.7,185.4,562.2,185.9,562.2z"/>
		<path d="M186.9,555.3c0-0.5-0.4-1-1-1c-0.5,0-1,0.4-1,1v0.5c0,0.5,0.4,1,1,1h0c0.5,0,1-0.4,1-1V555.3z"/>
		<path d="M185.9,565.1c-0.5,0-1,0.4-1,1l0,0.5c0,0.5,0.4,1,1,1c0,0,0,0,0,0c0.5,0,1-0.4,1-1l0-0.5
			C186.9,565.6,186.5,565.1,185.9,565.1z"/>
		<path d="M159.1,630.2l-0.2,0c-0.5-0.1-1,0.2-1.2,0.7c-0.1,0.5,0.2,1,0.7,1.2l0.2,0.1c0.1,0,0.1,0,0.2,0c0.4,0,0.9-0.3,1-0.8
			C159.9,630.8,159.6,630.3,159.1,630.2z"/>
		<path d="M105.4,529.9C105.4,529.9,105.4,529.9,105.4,529.9c0.5,0,1-0.4,1-1l0-0.2c0-0.5-0.4-1-1-1c-0.5,0-1,0.4-1,1l0,0.2
			C104.5,529.5,104.9,529.9,105.4,529.9z"/>
		<path d="M103.7,555.6c0,0.5,0.4,1,0.9,1c0,0,0,0,0,0c0.5,0,1-0.4,1-0.9l0-0.5c0-0.5-0.4-1-0.9-1c-0.5,0-1,0.4-1,0.9L103.7,555.6z"
			/>
		<path d="M103.6,560.9c0,0.5,0.4,1,1,1c0,0,0,0,0,0c0.5,0,1-0.4,1-1l0-0.5c0-0.5-0.4-1-0.9-1c-0.5,0-1,0.4-1,0.9L103.6,560.9z"/>
		<path d="M103.5,566.3c0,0.5,0.4,1,1,1h0c0.5,0,1-0.4,1-1l0-0.5c0-0.5-0.4-1-1-1c0,0,0,0,0,0c-0.5,0-1,0.4-1,1L103.5,566.3z"/>
		<path d="M104.6,572.6C104.6,572.6,104.6,572.6,104.6,572.6c0.6,0,1-0.5,1-1l0-0.5c0-0.5-0.5-1-1-0.9c-0.5,0-1,0.5-0.9,1l0,0.5
			C103.6,572.2,104,572.6,104.6,572.6z"/>
		<path d="M105.4,535.3C105.4,535.3,105.4,535.3,105.4,535.3c0.5,0,1-0.4,1-1l0-0.5c0-0.5-0.4-1-1-1c0,0,0,0,0,0c-0.5,0-1,0.4-1,1
			l0,0.5C104.4,534.8,104.9,535.3,105.4,535.3z"/>
		<path d="M104.9,577.9c0.5,0,0.9-0.5,0.9-1.1l0-0.5c0-0.5-0.5-0.9-1-0.9c-0.5,0-0.9,0.5-0.9,1l0,0.5
			C103.9,577.5,104.4,577.9,104.9,577.9C104.9,577.9,104.9,577.9,104.9,577.9z"/>
		<path d="M104.3,539.6c0,0.5,0.4,1,0.9,1c0,0,0,0,0,0c0.5,0,1-0.4,1-0.9l0-0.5c0-0.5-0.4-1-0.9-1c-0.5,0-1,0.4-1,0.9L104.3,539.6z"
			/>
		<path d="M104.1,544.9c0,0.5,0.4,1,0.9,1c0,0,0,0,0,0c0.5,0,1-0.4,1-0.9l0-0.5c0-0.5-0.4-1-0.9-1c-0.5,0-1,0.4-1,0.9L104.1,544.9z"
			/>
		<path d="M103.9,550.3c0,0.5,0.4,1,0.9,1c0,0,0,0,0,0c0.5,0,0.9-0.4,1-0.9l0-0.5c0-0.5-0.4-1-0.9-1c-0.5,0-1,0.4-1,0.9L103.9,550.3
			z"/>
		<path d="M116,600.4c0.1,0,0.2,0.1,0.3,0.1c0.4,0,0.8-0.2,0.9-0.6c0.2-0.5-0.1-1.1-0.6-1.3c-0.1-0.1-0.3-0.1-0.4-0.2
			c-0.5-0.2-1.1,0-1.3,0.5c-0.2,0.5,0,1.1,0.5,1.3C115.6,600.2,115.8,600.3,116,600.4z"/>
		<path d="M121.5,601.5C121.5,601.5,121.5,601.5,121.5,601.5c0.6,0,1-0.4,1-0.9c0-0.5-0.4-1-0.9-1c-0.2,0-0.3,0-0.5,0
			c-0.5,0-1,0.4-1,0.9c0,0.5,0.4,1,0.9,1C121.1,601.5,121.3,601.5,121.5,601.5z"/>
		<path d="M106.5,582.1l-0.1-0.5c-0.1-0.5-0.6-0.9-1.1-0.8c-0.5,0.1-0.9,0.6-0.8,1.1l0.1,0.5c0.1,0.5,0.5,0.8,1,0.8
			c0.1,0,0.1,0,0.2,0C106.2,583.1,106.6,582.6,106.5,582.1z"/>
		<path d="M126.5,601.2c0.2,0,0.3,0,0.5-0.1c0.5-0.1,0.9-0.6,0.8-1.1c-0.1-0.5-0.6-0.9-1.1-0.8c-0.2,0-0.3,0-0.5,0.1
			c-0.5,0.1-0.9,0.6-0.8,1.1c0.1,0.5,0.5,0.8,1,0.8C126.4,601.3,126.4,601.3,126.5,601.2z"/>
		<path d="M107.6,587.2c0-0.1-0.1-0.3-0.1-0.5c-0.1-0.5-0.7-0.8-1.2-0.7c-0.5,0.1-0.8,0.7-0.7,1.2c0,0.2,0.1,0.3,0.1,0.5
			c0.1,0.4,0.5,0.7,0.9,0.7c0.1,0,0.2,0,0.3,0C107.5,588.2,107.8,587.7,107.6,587.2z"/>
		<path d="M109.3,591.5c-0.2-0.5-0.8-0.7-1.3-0.4c-0.5,0.2-0.7,0.8-0.4,1.3c0.1,0.2,0.2,0.3,0.2,0.4c0.2,0.3,0.5,0.5,0.9,0.5
			c0.2,0,0.3,0,0.5-0.1c0.5-0.3,0.7-0.8,0.4-1.3C109.4,591.8,109.4,591.7,109.3,591.5z"/>
		<path d="M112.5,595.9c-0.1-0.1-0.2-0.2-0.3-0.3c-0.4-0.4-1-0.4-1.4,0c-0.4,0.4-0.4,1,0,1.4c0.1,0.1,0.2,0.2,0.4,0.4
			c0.2,0.2,0.4,0.3,0.7,0.3c0.3,0,0.5-0.1,0.7-0.3C112.9,596.9,112.9,596.3,112.5,595.9z"/>
		<path d="M131.6,600.2c0.1,0,0.2,0,0.3,0l0.2-0.1c0.5-0.1,0.8-0.7,0.7-1.2c-0.1-0.5-0.7-0.8-1.2-0.7l-0.2,0.1
			c-0.5,0.1-0.8,0.7-0.7,1.2C130.8,599.9,131.2,600.2,131.6,600.2z"/>
		<path d="M178.7,669.7V665c0-0.1-0.1-0.3-0.3-0.3c0,0-0.5,0-5.2,0c-3.1,0-7.8-4.1-14.8-6.9c-0.5-2.4-2-4.3-3.8-4.7
			c0.2-6.9,0.5-16.3,0.8-23.6h0.5c0.9,0,1.6-0.7,1.6-1.6v-2c0-0.9-0.7-1.6-1.6-1.6h-0.2c0.2-2.9,0.4-4.8,0.7-5.3
			c1.1-1.8,3.2-2.1,3.2-4.9c0-2.8-1.6-3.1-3.2-4.9c-0.6-0.7-0.8-5.8-0.7-11.6h0.1c2.5,0,4.5-2,4.5-4.5v-0.7c0-0.2,0-0.4-0.1-0.7
			c12.3-5.5,20.9-17.6,20.9-31.5c0,0-2.3-33.8,0-33.8c2.3,0,5,0,5,0c1.1,0,2-0.9,2-1.9v-2.1c0-1.1-0.9-1.9-2-1.9h-81.5
			c-1.1,0-2,0.9-2,1.9v2.1c0,1.1,0.9,1.9,2,1.9c0,0,2.9,0,5,0c2.1,0,0,33.8,0,33.8c0,13.9,8.6,26,20.9,31.5c0,0.2-0.1,0.4-0.1,0.7
			v0.7c0,2.4,2,4.4,4.4,4.5c0.1,5.8,0,10.9-0.5,11.6c-1.1,1.8-3.2,2.2-3.2,4.9c0,2.7,1.6,3.1,3.2,4.9c0.4,0.4,0.7,2.4,0.9,5.3h-0.4
			c-0.9,0-1.6,0.7-1.6,1.6v2c0,0.9,0.7,1.6,1.6,1.6h0.7c0.3,7.2,0.5,16.7,0.6,23.6c-1.8,0.5-3.3,2.3-3.8,4.8
			c-6.9,2.8-11.5,6.9-14.8,6.9c-5,0-5.2,0-5.2,0c-0.1,0-0.3,0.1-0.3,0.3v4.6c0,0.1,0.1,0.3,0.3,0.3h65.9
			C178.6,669.9,178.7,669.8,178.7,669.7z M126.2,543l9.3-12.1c-3.4,2.2-5.9,1.5-7.3,1.5c-1.5,0.1-3.3,1-4.5,1.7
			c-2.4,1.4-5.1,3.7-8.7,2.2c3.3,0.8,5.6-2.4,7.7-4.8c1-1.2,2.1-2.2,3.4-2.9c2.1-1.1,4.7-1.4,6.9-2.4h24.5c0,0,0,0.1,0,0.1
			c3.9,1,5,3.4,6,4.3c1.1,1,3,1.7,4.3,2.1c2.7,0.9,6.2,1.2,7.5,4.9c-1.6-3-5.6-2.5-8.7-2.4c-1.6,0.1-3.1-0.1-4.4-0.5
			c-2.1-0.8-4.1-2.4-6.2-3.4l8.9,11.5l-12.2-9.4c1,2.3,2.8,4.4,3.6,6.7c0.5,1.3,0.6,2.8,0.5,4.4c-0.1,3.1-0.6,7.1,2.4,8.7
			c-3.7-1.3-4.1-4.9-4.9-7.5c-0.4-1.3-1.1-3.2-2.1-4.3c-0.9-0.9-3.1-2.1-4.2-5.6l-2.4,24.4l-2.4-24.4c-1.1,3.6-3.3,4.7-4.2,5.6
			c-1,1.1-1.7,3-2.1,4.3c-0.9,2.7-1.2,6.2-4.9,7.5c3-1.6,2.5-5.6,2.4-8.7c-0.1-1.6,0.1-3.1,0.5-4.4c0.8-2.3,2.6-4.4,3.6-6.7
			L126.2,543z M131.1,571.2c0-0.7,0.1-1.3,0.1-1.9c0.9,7,6.9,12.5,14.1,12.5c7.3,0.1,13.3-5.3,14.3-12.3c0.1,0.6,0.1,1.3,0.1,1.9
			c-0.1,7.9-6.5,14.3-14.5,14.2C137.4,585.6,131.1,579.1,131.1,571.2z"/>
		<path d="M398.8,527.8c-0.5,0-1,0.4-1,1l0,0.2c0,0.5,0.4,1,1,1c0,0,0,0,0,0c0.5,0,1-0.4,1-1l0-0.2
			C399.8,528.2,399.3,527.8,398.8,527.8z"/>
		<path d="M398.6,581.2c-0.5,0-1,0.4-1,0.9l0,0.5c0,0.5,0.4,1,0.9,1c0,0,0,0,0,0c0.5,0,0.9-0.4,1-0.9l0-0.5
			C399.5,581.7,399.1,581.3,398.6,581.2z"/>
		<path d="M397.9,539.7c0,0.5,0.4,1,1,1c0,0,0,0,0,0c0.5,0,1-0.4,1-1l0-0.5l-0.6,0l-1.3,0L397.9,539.7z"/>
		<polygon points="398.9,539.2 399.2,539.2 399.9,539.2 		"/>
		<path d="M398.8,532.9c-0.5,0-1,0.4-1,1l0,0.5c0,0.5,0.4,1,1,1c0,0,0,0,0,0c0.5,0,1-0.4,1-1l0-0.5
			C399.8,533.3,399.4,532.9,398.8,532.9z"/>
		<path d="M398,550l0,0.5c0,0.5,0.4,1,1,1c0,0,0,0,0,0c0.5,0,1-0.4,1-1l0-0.5c0-0.5-0.4-1-1-1C398.4,549,398,549.4,398,550z"/>
		<path d="M398.9,543.6c-0.5,0-1,0.4-1,1l0,0.5c0,0.5,0.4,1,1,1c0,0,0,0,0,0c0.5,0,1-0.4,1-1l0-0.5
			C399.9,544.1,399.5,543.6,398.9,543.6z"/>
		<path d="M398.7,575.9c-0.5,0-1,0.4-1,0.9l0,0.5c0,0.5,0.4,1,0.9,1c0,0,0,0,0,0c0.5,0,1-0.4,1-0.9l0-0.5
			C399.7,576.3,399.3,575.9,398.7,575.9z"/>
		<path d="M394.9,613.2c-0.5-0.1-1.1,0.2-1.2,0.7l-0.1,0.5c-0.1,0.5,0.2,1.1,0.7,1.2c0.1,0,0.2,0,0.3,0c0.4,0,0.8-0.3,0.9-0.7
			l0.1-0.5C395.7,613.9,395.4,613.3,394.9,613.2z"/>
		<path d="M396.9,602.6c-0.5-0.1-1,0.3-1.1,0.8l-0.1,0.5c-0.1,0.5,0.3,1,0.8,1.1c0,0,0.1,0,0.1,0c0.5,0,0.9-0.3,1-0.8l0.1-0.5
			C397.8,603.2,397.4,602.7,396.9,602.6z"/>
		<path d="M393.3,618.3c-0.5-0.2-1.1,0-1.3,0.5c-0.1,0.1-0.1,0.3-0.2,0.4c-0.2,0.5,0,1.1,0.5,1.3c0.1,0.1,0.2,0.1,0.4,0.1
			c0.4,0,0.7-0.2,0.9-0.6c0.1-0.2,0.1-0.3,0.2-0.5C394,619.1,393.8,618.5,393.3,618.3z"/>
		<path d="M398.3,586.6c-0.5,0-1,0.4-1,0.9l0,0.5c0,0.5,0.4,1,0.9,1c0,0,0,0,0.1,0c0.5,0,0.9-0.4,1-0.9l0-0.5
			C399.3,587.1,398.9,586.6,398.3,586.6z"/>
		<path d="M398,592c-0.5,0-1,0.4-1,0.9l0,0.5c0,0.5,0.4,1,0.9,1c0,0,0.1,0,0.1,0c0.5,0,0.9-0.4,1-0.9l0-0.5
			C398.9,592.5,398.5,592,398,592z"/>
		<path d="M397.5,597.3c-0.5-0.1-1,0.3-1.1,0.9l-0.1,0.5c-0.1,0.5,0.3,1,0.9,1.1c0,0,0.1,0,0.1,0c0.5,0,0.9-0.4,1-0.9l0.1-0.5
			C398.4,597.8,398.1,597.4,397.5,597.3z"/>
		<path d="M396,607.9c-0.5-0.1-1,0.2-1.1,0.8l-0.1,0.5c-0.1,0.5,0.2,1,0.8,1.1c0.1,0,0.1,0,0.2,0c0.5,0,0.9-0.3,1-0.8l0.1-0.5
			C396.9,608.6,396.6,608,396,607.9z"/>
		<path d="M382.2,629.9c-0.1,0.1-0.3,0.1-0.4,0.1c-0.5,0.2-0.8,0.7-0.6,1.2c0.1,0.4,0.5,0.7,0.9,0.7c0.1,0,0.2,0,0.3,0
			c0.2-0.1,0.3-0.1,0.5-0.2c0.5-0.2,0.8-0.7,0.6-1.2C383.3,630,382.7,629.7,382.2,629.9z"/>
		<path d="M398.9,570.5c-0.5,0-1,0.4-1,1l0,0.5c0,0.5,0.4,1,1,1c0,0,0,0,0,0c0.5,0,1-0.4,1-1l0-0.5
			C399.8,570.9,399.4,570.5,398.9,570.5z"/>
		<path d="M389.7,623.5c-0.1,0.1-0.2,0.3-0.3,0.4c-0.3,0.4-0.2,1.1,0.3,1.3c0.2,0.1,0.4,0.2,0.5,0.2c0.3,0,0.6-0.2,0.8-0.4
			c0.1-0.1,0.2-0.3,0.3-0.4c0.3-0.5,0.1-1.1-0.3-1.3C390.6,622.9,390,623,389.7,623.5z"/>
		<path d="M377,630.7l-0.2,0c-0.5,0-1,0.4-1,1c0,0.5,0.4,1,1,1l0.2,0l0.3,0c0.5,0,1-0.4,1-1c0-0.5-0.5-1-1-1L377,630.7z"/>
		<path d="M386.5,627.4c-0.1,0.1-0.2,0.2-0.3,0.3c-0.4,0.3-0.5,1-0.1,1.4c0.2,0.2,0.5,0.4,0.8,0.4c0.2,0,0.4-0.1,0.6-0.2
			c0.1-0.1,0.3-0.2,0.4-0.3c0.4-0.4,0.4-1,0.1-1.4C387.5,627.1,386.9,627,386.5,627.4z"/>
		<path d="M399,559.7C399,559.7,399,559.7,399,559.7c-0.5,0-1,0.4-1,1l0,0.5c0,0.5,0.4,1,1,1c0,0,0,0,0,0c0.5,0,1-0.4,1-1l0-0.5
			C399.9,560.2,399.5,559.7,399,559.7z"/>
		<path d="M399,554.4c-0.5,0-1,0.4-1,1v0.5c0,0.5,0.4,1,1,1h0c0.5,0,1-0.4,1-1v-0.5C399.9,554.8,399.5,554.4,399,554.4z"/>
		<path d="M398.9,565.1c-0.5,0-1,0.4-1,1l0,0.5c0,0.5,0.4,1,1,1c0,0,0,0,0,0c0.5,0,1-0.4,1-1l0-0.5
			C399.9,565.6,399.5,565.1,398.9,565.1z"/>
		<path d="M372.1,630.2l-0.2,0c-0.5-0.1-1,0.2-1.2,0.7c-0.1,0.5,0.2,1,0.7,1.2l0.2,0.1c0.1,0,0.1,0,0.2,0c0.4,0,0.9-0.3,1-0.8
			C373,630.8,372.6,630.3,372.1,630.2z"/>
		<path d="M318.4,529.9C318.4,529.9,318.4,529.9,318.4,529.9c0.5,0,1-0.4,1-1l0-0.2c0-0.5-0.4-1-1-1c-0.5,0-1,0.4-1,1l0,0.2
			C317.5,529.5,317.9,529.9,318.4,529.9z"/>
		<path d="M316.7,555.6c0,0.5,0.4,1,0.9,1c0,0,0,0,0,0c0.5,0,1-0.4,1-0.9l0-0.5c0-0.5-0.4-1-0.9-1c-0.5,0-1,0.4-1,0.9L316.7,555.6z"
			/>
		<path d="M316.6,560.9c0,0.5,0.4,1,1,1c0,0,0,0,0,0c0.5,0,1-0.4,1-1l0-0.5c0-0.5-0.4-1-0.9-1c-0.5,0-1,0.4-1,0.9L316.6,560.9z"/>
		<path d="M316.5,566.3c0,0.5,0.4,1,1,1h0c0.5,0,1-0.4,1-1l0-0.5c0-0.5-0.4-1-1-1c0,0,0,0,0,0c-0.5,0-1,0.4-1,1L316.5,566.3z"/>
		<path d="M317.6,572.6C317.6,572.6,317.6,572.6,317.6,572.6c0.6,0,1-0.5,1-1l0-0.5c0-0.5-0.5-1-1-0.9c-0.5,0-1,0.5-0.9,1l0,0.5
			C316.6,572.2,317,572.6,317.6,572.6z"/>
		<path d="M318.4,535.3C318.4,535.3,318.4,535.3,318.4,535.3c0.5,0,1-0.4,1-1l0-0.5c0-0.5-0.4-1-1-1c0,0,0,0,0,0c-0.5,0-1,0.4-1,1
			l0,0.5C317.4,534.8,317.9,535.3,318.4,535.3z"/>
		<path d="M318,577.9c0.5,0,0.9-0.5,0.9-1.1l0-0.5c0-0.5-0.5-0.9-1-0.9c-0.5,0-0.9,0.5-0.9,1l0,0.5
			C316.9,577.5,317.4,577.9,318,577.9C317.9,577.9,317.9,577.9,318,577.9z"/>
		<path d="M317.3,539.6c0,0.5,0.4,1,0.9,1c0,0,0,0,0,0c0.5,0,1-0.4,1-0.9l0-0.5c0-0.5-0.4-1-0.9-1c-0.5,0-1,0.4-1,0.9L317.3,539.6z"
			/>
		<path d="M317.1,544.9c0,0.5,0.4,1,0.9,1c0,0,0,0,0,0c0.5,0,1-0.4,1-0.9l0-0.5c0-0.5-0.4-1-0.9-1c-0.5,0-1,0.4-1,0.9L317.1,544.9z"
			/>
		<path d="M316.9,550.3c0,0.5,0.4,1,0.9,1c0,0,0,0,0,0c0.5,0,0.9-0.4,1-0.9l0-0.5c0-0.5-0.4-1-0.9-1c-0.5,0-1,0.4-1,0.9L316.9,550.3
			z"/>
		<path d="M329,600.4c0.1,0,0.2,0.1,0.3,0.1c0.4,0,0.8-0.2,0.9-0.6c0.2-0.5-0.1-1.1-0.6-1.3c-0.1-0.1-0.3-0.1-0.4-0.2
			c-0.5-0.2-1.1,0-1.3,0.5c-0.2,0.5,0,1.1,0.5,1.3C328.7,600.2,328.8,600.3,329,600.4z"/>
		<path d="M334.5,601.5C334.5,601.5,334.5,601.5,334.5,601.5c0.6,0,1-0.4,1-0.9c0-0.5-0.4-1-0.9-1c-0.2,0-0.3,0-0.5,0
			c-0.5,0-1,0.4-1,0.9c0,0.5,0.4,1,0.9,1C334.1,601.5,334.3,601.5,334.5,601.5z"/>
		<path d="M319.5,582.1l-0.1-0.5c-0.1-0.5-0.6-0.9-1.1-0.8c-0.5,0.1-0.9,0.6-0.8,1.1l0.1,0.5c0.1,0.5,0.5,0.8,1,0.8
			c0.1,0,0.1,0,0.2,0C319.2,583.1,319.6,582.6,319.5,582.1z"/>
		<path d="M339.5,601.2c0.2,0,0.3,0,0.5-0.1c0.5-0.1,0.9-0.6,0.8-1.1c-0.1-0.5-0.6-0.9-1.1-0.8c-0.2,0-0.3,0-0.5,0.1
			c-0.5,0.1-0.9,0.6-0.8,1.1c0.1,0.5,0.5,0.8,1,0.8C339.4,601.3,339.4,601.3,339.5,601.2z"/>
		<path d="M320.6,587.2c0-0.1-0.1-0.3-0.1-0.5c-0.1-0.5-0.7-0.8-1.2-0.7c-0.5,0.1-0.8,0.7-0.7,1.2c0,0.2,0.1,0.3,0.1,0.5
			c0.1,0.4,0.5,0.7,0.9,0.7c0.1,0,0.2,0,0.3,0C320.5,588.2,320.8,587.7,320.6,587.2z"/>
		<path d="M322.5,591.9c-0.1-0.1-0.1-0.3-0.2-0.4c-0.2-0.5-0.8-0.7-1.3-0.4c-0.5,0.2-0.7,0.8-0.4,1.3c0.1,0.2,0.2,0.3,0.2,0.4
			c0.2,0.3,0.5,0.5,0.9,0.5c0.2,0,0.3,0,0.5-0.1C322.6,593,322.8,592.4,322.5,591.9z"/>
		<path d="M325.6,597.3c0.4-0.4,0.4-1,0-1.4c-0.1-0.1-0.2-0.2-0.3-0.3c-0.4-0.4-1-0.4-1.4,0c-0.4,0.4-0.4,1,0,1.4
			c0.1,0.1,0.2,0.2,0.4,0.4c0.2,0.2,0.4,0.3,0.7,0.3C325.1,597.6,325.4,597.5,325.6,597.3z"/>
		<path d="M344.6,600.2c0.1,0,0.2,0,0.3,0l0.2-0.1c0.5-0.1,0.8-0.7,0.7-1.2c-0.1-0.5-0.7-0.8-1.2-0.7l-0.2,0.1
			c-0.5,0.1-0.8,0.7-0.7,1.2C343.8,599.9,344.2,600.2,344.6,600.2z"/>
		<path d="M399.2,520.6h-81.5c-1.1,0-2,0.9-2,1.9v2.1c0,1.1,0.9,1.9,2,1.9c0,0,2.9,0,5,0c2.1,0,0,33.8,0,33.8
			c0,13.9,8.6,26,20.9,31.5c0,0.2-0.1,0.4-0.1,0.7v0.7c0,2.4,2,4.4,4.4,4.5c0.1,5.8,0,10.9-0.5,11.6c-1.1,1.8-3.2,2.2-3.2,4.9
			c0,2.7,1.6,3.1,3.2,4.9c0.4,0.4,0.7,2.4,0.9,5.3h-0.4c-0.9,0-1.6,0.7-1.6,1.6v2c0,0.9,0.7,1.6,1.6,1.6h0.7
			c0.3,7.2,0.5,16.7,0.6,23.6c-1.8,0.5-3.3,2.3-3.8,4.8c-6.9,2.8-11.5,6.9-14.8,6.9c-5,0-5.2,0-5.2,0c-0.1,0-0.3,0.1-0.3,0.3v4.6
			c0,0.1,0.1,0.3,0.3,0.3h65.9c0.1,0,0.3-0.1,0.3-0.3V665c0-0.1-0.1-0.3-0.3-0.3c0,0-0.5,0-5.2,0c-3.1,0-7.8-4.1-14.8-6.9
			c-0.5-2.4-2-4.3-3.8-4.7c0.2-6.9,0.5-16.3,0.8-23.6h0.5c0.9,0,1.6-0.7,1.6-1.6v-2c0-0.9-0.7-1.6-1.6-1.6h-0.2
			c0.2-2.9,0.4-4.8,0.7-5.3c1.1-1.8,3.2-2.1,3.2-4.9c0-2.8-1.6-3.1-3.2-4.9c-0.6-0.7-0.8-5.8-0.7-11.6h0.1c2.5,0,4.5-2,4.5-4.5v-0.7
			c0-0.2,0-0.4-0.1-0.7c12.3-5.5,20.9-17.6,20.9-31.5c0,0-2.3-33.8,0-33.8c2.3,0,5,0,5,0c1.1,0,2-0.9,2-1.9v-2.1
			C401.2,521.5,400.3,520.6,399.2,520.6z M358.4,585.7c-7.9-0.1-14.3-6.5-14.2-14.5c0-0.7,0.1-1.3,0.1-1.9c0.9,7,6.9,12.5,14.1,12.5
			c7.3,0.1,13.3-5.3,14.3-12.3c0.1,0.6,0.1,1.3,0.1,1.9C372.8,579.4,366.3,585.7,358.4,585.7z M379.6,535.3
			c-1.6,0.1-3.1-0.1-4.4-0.5c-2.1-0.8-4.1-2.4-6.2-3.4l8.9,11.5l-12.2-9.4c1,2.3,2.8,4.4,3.6,6.7c0.5,1.3,0.6,2.8,0.5,4.4
			c-0.1,3.1-0.6,7.1,2.4,8.7c-3.7-1.3-4.1-4.9-4.9-7.5c-0.4-1.3-1.1-3.2-2.1-4.3c-0.9-0.9-3.1-2.1-4.2-5.6l-2.4,24.4l-2.4-24.4
			c-1.1,3.6-3.3,4.7-4.2,5.6c-1,1.1-1.7,3-2.1,4.3c-0.9,2.7-1.2,6.2-4.9,7.5c3-1.6,2.5-5.6,2.4-8.7c-0.1-1.6,0.1-3.1,0.5-4.4
			c0.8-2.3,2.6-4.4,3.6-6.7l-12.2,9.4l9.3-12.1c-3.4,2.2-5.9,1.5-7.3,1.5c-1.5,0.1-3.3,1-4.5,1.7c-2.4,1.4-5.1,3.7-8.7,2.2
			c3.3,0.8,5.6-2.4,7.7-4.8c1-1.2,2.1-2.2,3.4-2.9c2.1-1.1,4.7-1.4,6.9-2.4h24.5c0,0,0,0.1,0,0.1c3.9,1,5,3.4,6,4.3
			c1.1,1,3,1.7,4.3,2.1c2.7,0.9,6.2,1.2,7.5,4.9C386.6,534.8,382.7,535.2,379.6,535.3z"/>
	</g>
</g>
</svg>
