<?xml version="1.0" encoding="utf-8"?>
<!-- Generator: Adobe Illustrator 21.1.0, SVG Export Plug-In . SVG Version: 6.00 Build 0)  -->
<svg version="1.1" id="Слой_1" xmlns="http://www.w3.org/2000/svg" xmlns:xlink="http://www.w3.org/1999/xlink" x="0px" y="0px"
	 viewBox="0 0 525.6 864" style="enable-background:new 0 0 525.6 864;" xml:space="preserve">
<style type="text/css">
	.st0{fill:#040404;}
	.st1{fill:#FFFFFF;}
</style>
<g>
	<g>
		<path d="M252.2,100.4h-3.5c-2.3,0-3.5,0.1-3.5,0.2c0,0.2-0.1,0.2-0.3,0.2c-0.3,0-0.6,0.2-0.9,0.6c-0.3,0.4-0.4,0.6-0.1,0.6
			c0.3,0,0.4,0.1,0.5,0.3c0.1,0.3,0.5,0.4,1,0.4c0.6,0,0.9,0.2,1,0.6c0.1,0.4,0.1,0.7-0.1,0.7c-0.2,0.1-0.3,0.5-0.3,1.2
			c0,0.7-0.1,1.1-0.4,1.2c-0.2,0.1-0.3,0.3-0.2,0.6c0,0.1,0,0.2,0,0.4c0,0.4-0.1,0.9-0.3,1.4c-0.2,0.5-0.4,0.7-0.6,0.8
			c-0.3,0.1-0.5,0.4-0.5,0.8c0,0.5-0.1,0.8-0.2,1c-0.2,0.2-0.3,0.7-0.4,1.6c-0.1,0.9-0.3,1.4-0.5,1.4c-0.3,0-0.4,0.2-0.3,0.5
			c0,0.2,0,0.3,0,0.4c0,0.1-0.2,0.1-0.4,0.1c-0.4,0-0.6-0.1-0.8-0.2c-0.4-0.3-0.7-1.2-0.7-2.7c0-0.7-0.1-1.1-0.3-1.3
			c-0.2-0.2-0.2-0.7-0.2-1.5c0-1.2-0.3-2-0.8-2.4c-0.2-0.1-0.1-0.2,0-0.3c0.1,0,0.2-0.2,0.2-0.4c0.1-0.2,0.1-0.4,0-0.6
			c0-0.2-0.1-0.3-0.2-0.3c-0.1,0-0.3-0.2-0.4-0.7c-0.1-0.5-0.3-0.8-0.6-0.9c-0.3-0.1-0.4-0.2-0.4-0.3c0-0.3,0.4-0.5,1.3-0.5
			c1.2,0,1.8-0.2,1.8-0.6c0-0.2,0.1-0.3,0.2-0.3c0.2,0,0.1-0.2-0.2-0.7c-0.3-0.5-0.8-0.7-1.5-0.7c-0.7,0-1-0.1-1.1-0.2
			c-0.1-0.1-0.3-0.1-0.7,0c-0.3,0.2-0.6,0.1-0.7,0c-0.2-0.2-0.3-0.2-0.4,0c-0.1,0.2-0.5,0.3-1,0.3c-0.4,0-0.6,0-0.7-0.1
			c-0.1-0.1-0.2-0.3-0.3-0.6c-0.1-0.5-0.3-0.7-0.6-0.7c-0.2,0-0.5,0.2-0.8,0.5c-0.3,0.3-0.7,0.5-1.1,0.5c-0.4,0-0.5,0.1-0.5,0.3
			c0,0.3-0.1,0.4-0.2,0.4s-0.2,0.2-0.2,0.6c0,0.4,0.1,0.6,0.2,0.6s0.2,0.1,0.2,0.3c0,0.2,0.3,0.4,0.9,0.5c0.5,0.1,1,0.3,1.4,0.8
			c0.4,0.5,0.6,1,0.6,1.5c0,0.4,0.1,0.9,0.3,1.5c0.2,0.6,0.3,0.9,0.5,0.9c0.1,0,0.2,0.3,0.2,0.8c0,0.6,0.1,1,0.4,1.3
			c0.3,0.3,0.5,0.8,0.7,1.7c0.2,0.8,0.3,1.6,0.3,2.3c0,0.8,0.1,1.3,0.3,1.3c0.1,0.1,0.2,0.3,0.2,0.6s0.1,0.6,0.2,0.6
			c0.2,0.1,0.2,0.6,0.2,1.5c0,0.9,0.1,1.3,0.3,1.3c0.2,0,0.3,0.3,0.5,1c0.2,0.6,0.4,1,0.5,1c0.2,0,0.3,0.2,0.4,0.7
			c0.1,0.6,0.5,0.9,1.2,0.9c0.1,0,0.3,0,0.6-0.1c0.4-0.1,0.6-0.4,0.6-1c0-0.6,0.1-0.8,0.2-0.8c0.2,0,0.2-0.3,0.2-0.8
			c0-0.5,0.1-0.8,0.3-0.9c0.2-0.1,0.3-0.5,0.3-1.4c0-0.9,0.2-1.5,0.6-1.8c0.4-0.4,0.8-0.7,1-0.7c0.3-0.1,0.4-0.5,0.4-1.2
			c0-0.7,0.1-1.2,0.4-1.3c0.2-0.1,0.4-0.6,0.5-1.4c0.1-0.8,0.3-1.3,0.4-1.4c0.3-0.2,0.4-0.5,0.4-0.8c0-0.4,0.2-0.6,0.7-0.6
			c0.4,0,0.6-0.2,0.6-0.6c0-0.2,0-0.5,0-0.9c0-1,0.2-1.4,0.5-1.4c0.3,0,0.5-0.2,0.5-0.7c0-0.5,0.2-0.9,0.6-1.3
			c0.4-0.4,0.9-0.6,1.5-0.7c0.8-0.2,1.1-0.6,1.1-1.3c0-0.1,0-0.4-0.1-0.7L252.2,100.4z"/>
		<path d="M266,101.4c-0.3-0.2-1.3-0.2-3.2-0.2c-1.8,0-2.8,0.1-2.8,0.2c0,0.1-0.3,0.2-0.9,0.2s-0.9,0.1-0.9,0.4
			c0,0.3-0.1,0.4-0.2,0.4c-0.2,0-0.2,0.2-0.2,0.5c0,0.5,0.1,0.7,0.3,0.8c0.3,0.1,0.4,0.9,0.4,2.3c0,1.5,0.1,2.3,0.2,2.4
			c0.2,0.1,0.2,0.8,0.2,2.1c0,1.3-0.1,1.9-0.2,2c-0.2,0.1-0.3,1.4-0.4,4c-0.1,2.3-0.2,3.6-0.4,4.1c-0.2,0.4-0.7,0.7-1.7,0.9
			c-0.5,0-0.8,0.1-1,0.2c-0.1,0.1-0.2,0.4-0.2,0.8c0,0.6,0.1,0.9,0.3,0.9c0.3,0,0.6,0.1,0.8,0.4c0.3,0.3,0.5,0.3,0.6,0.1
			c0.1-0.2,1.4-0.3,3.7-0.3c2,0,3,0.1,3,0.3c0,0.2,0.2,0.2,0.5,0.2c0.4,0,0.5-0.1,0.5-0.2s0.2-0.3,0.5-0.5c0.3-0.2,0.5-0.4,0.5-0.6
			c0-0.8-0.6-1.3-1.8-1.4l-1.2-0.1l0.1-6.3c0.1-4.2,0.2-6.4,0.3-6.6c0.1-0.1,0.2-0.7,0.2-1.8c0.1-2,0.3-3,0.7-3
			c0.2,0,0.3-0.1,0.3-0.2c0-0.2,0.2-0.3,0.7-0.3c0.4,0,0.7-0.1,1-0.3c0.2-0.2,0.4-0.4,0.4-0.7C266.4,101.9,266.3,101.6,266,101.4z
			 M259.7,117.6c-0.3,0-0.4-0.1-0.4-0.2c0-0.2,0.1-0.2,0.4-0.2c0.2,0,0.3,0.1,0.3,0.2C260,117.5,259.9,117.6,259.7,117.6z
			 M261.2,110.6c-0.3,0-0.4-0.2-0.4-0.5c0-0.4,0.1-0.5,0.4-0.5c0.3,0,0.4,0.2,0.4,0.5C261.6,110.5,261.5,110.6,261.2,110.6z"/>
		<path d="M280,101.4c-0.3-0.2-1.3-0.2-3.2-0.2c-1.8,0-2.8,0.1-2.8,0.2c0,0.1-0.3,0.2-0.9,0.2c-0.6,0-0.9,0.1-0.9,0.4
			c0,0.3-0.1,0.4-0.2,0.4c-0.2,0-0.2,0.2-0.2,0.5c0,0.5,0.1,0.7,0.3,0.8c0.3,0.1,0.4,0.9,0.4,2.3c0,1.5,0.1,2.3,0.2,2.4
			c0.2,0.1,0.2,0.8,0.2,2.1c0,1.3-0.1,1.9-0.2,2c-0.2,0.1-0.3,1.4-0.4,4c-0.1,2.3-0.2,3.6-0.4,4.1c-0.2,0.4-0.7,0.7-1.7,0.9
			c-0.5,0-0.8,0.1-1,0.2c-0.1,0.1-0.2,0.4-0.2,0.8c0,0.6,0.1,0.9,0.3,0.9c0.3,0,0.6,0.1,0.8,0.4c0.3,0.3,0.5,0.3,0.6,0.1
			c0.1-0.2,1.4-0.3,3.7-0.3c2,0,3,0.1,3,0.3c0,0.2,0.2,0.2,0.5,0.2c0.4,0,0.5-0.1,0.5-0.2s0.2-0.3,0.5-0.5c0.3-0.2,0.5-0.4,0.5-0.6
			c0-0.8-0.6-1.3-1.8-1.4l-1.2-0.1l0.1-6.3c0.1-4.2,0.2-6.4,0.3-6.6c0.1-0.1,0.2-0.7,0.2-1.8c0.1-2,0.3-3,0.7-3
			c0.2,0,0.3-0.1,0.3-0.2c0-0.2,0.2-0.3,0.7-0.3c0.4,0,0.7-0.1,1-0.3c0.2-0.2,0.4-0.4,0.4-0.7C280.5,101.9,280.3,101.6,280,101.4z
			 M273.7,117.6c-0.3,0-0.4-0.1-0.4-0.2c0-0.2,0.1-0.2,0.4-0.2c0.2,0,0.3,0.1,0.3,0.2C274.1,117.5,274,117.6,273.7,117.6z
			 M275.3,110.6c-0.3,0-0.4-0.2-0.4-0.5c0-0.4,0.1-0.5,0.4-0.5c0.3,0,0.4,0.2,0.4,0.5C275.7,110.5,275.5,110.6,275.3,110.6z"/>
		<path d="M285,123.9c0.1-0.2,1.4-0.3,3.7-0.3c2,0,3,0.1,3,0.3c0,0.2,0.2,0.2,0.5,0.2c0.4,0,0.5-0.1,0.5-0.2s0.2-0.3,0.5-0.5
			c0.3-0.2,0.5-0.4,0.5-0.6c0-0.8-0.6-1.3-1.8-1.4l-1.2-0.1l0.1-6.3c0.1-4.2,0.2-6.4,0.3-6.6c0.1-0.1,0.2-0.7,0.2-1.8
			c0.1-2,0.3-3,0.7-3c0.2,0,0.3-0.1,0.3-0.2c0-0.2,0.2-0.3,0.7-0.3c0.4,0,0.7-0.1,1-0.3c0.2-0.2,0.4-0.4,0.4-0.7
			c0-0.3-0.1-0.5-0.4-0.7c-0.3-0.2-1.3-0.2-3.2-0.2c-1.8,0-2.8,0.1-2.8,0.2c0,0.1-0.3,0.2-0.9,0.2s-0.9,0.1-0.9,0.4
			c0,0.3-0.1,0.4-0.2,0.4c-0.2,0-0.2,0.2-0.2,0.5c0,0.5,0.1,0.7,0.3,0.8c0.3,0.1,0.4,0.9,0.4,2.3c0,1.5,0.1,2.3,0.2,2.4
			c0.2,0.1,0.2,0.8,0.2,2.1c0,1.3-0.1,1.9-0.2,2c-0.2,0.1-0.3,1.4-0.4,4c-0.1,2.3-0.2,3.6-0.4,4.1c-0.2,0.4-0.7,0.7-1.7,0.9
			c-0.5,0-0.8,0.1-1,0.2c-0.1,0.1-0.2,0.4-0.2,0.8c0,0.6,0.1,0.9,0.3,0.9c0.3,0,0.6,0.1,0.8,0.4C284.7,124,284.9,124.1,285,123.9z
			 M289.3,109.6c0.3,0,0.4,0.2,0.4,0.5c0,0.3-0.1,0.5-0.4,0.5c-0.3,0-0.4-0.2-0.4-0.5C288.9,109.8,289.1,109.6,289.3,109.6z
			 M287.8,117.1c0.2,0,0.3,0.1,0.3,0.2c0,0.2-0.1,0.2-0.3,0.2c-0.3,0-0.4-0.1-0.4-0.2C287.4,117.2,287.5,117.1,287.8,117.1z"/>
	</g>
	<path d="M75.3,77.3c6.3-7.1,6.2-17.8,0.1-24.8c0.8,6.8-1.3,13.8-6.1,19.3C64.4,77.2,57.7,80,51,79.9C58.5,85.4,68.9,84.4,75.3,77.3
		z"/>
	<path d="M456.3,71.8c-4.9-5.4-6.9-12.5-6.1-19.3c-6.1,7-6.2,17.7,0.1,24.8c6.3,7.1,16.8,8.1,24.2,2.6
		C467.8,80,461.1,77.2,456.3,71.8z"/>
	<path d="M51,783.9c6.7-0.1,13.4,2.6,18.3,8.1c4.9,5.4,6.9,12.5,6.1,19.3c6.1-7,6.2-17.7-0.1-24.8C68.9,779.4,58.5,778.4,51,783.9z"
		/>
	<path d="M450.3,786.5c-6.3,7.1-6.2,17.8-0.1,24.8c-0.8-6.8,1.3-13.8,6.1-19.3c4.9-5.4,11.6-8.2,18.3-8.1
		C467.1,778.4,456.6,779.4,450.3,786.5z"/>
	<path d="M498.8,44.1c-1.5-16.8-17.5-15.2-29.6-15.2c-43,0-86,0-129,0c-59.2,0-118.4,0-177.6,0c-38.1,0-76.1,0-114.2,0
		c-2.5,0-5-0.2-7.5,0.2c-8.9,1.1-14,8.6-14.3,17.1c-0.2,6.8,0,13.6,0,20.4c0,35.1,0,70.2,0,105.3c0,53.5,0,106.9,0,160.4
		c0,60.3,0,120.6,0,180.8c0,54.7,0,109.4,0,164.1c0,37.6,0,75.2,0,112.8c0,8.5,0,17,0,25.6c0,11,6.3,19.2,18,19.4
		c33.7,0.6,67.4,0,101.1,0c58.5,0,117,0,175.5,0c46.6,0,93.3,0,139.9,0c7.1,0,14.3,0,21.4,0c0.4,0,0.8-0.1,1.1-0.1
		c13.5-1.7,15.1-12.9,15.1-23.9c0-10.7,0-21.4,0-32.1c0-40.7,0-81.4,0-122.2c0-56.2,0-112.3,0-168.5c0-59.8,0-119.7,0-179.5
		c0-51.8,0-103.7,0-155.5c0-31.6,0-63.1,0-94.7C498.9,53.6,499.2,48.8,498.8,44.1z M482.7,826.5c-26.5,0-53.1,0-79.6,0
		c-56.1,0-112.3,0-168.4,0c-50.6,0-101.2,0-151.8,0c-12.2,0-24.5,0-36.7,0c-5.3,0-10.3-1.2-11-7.8c-0.1-1.4,0-2.9,0-4.2
		c0-24.8,0-49.7,0-74.5c0-46.8,0-93.7,0-140.5c0-57.9,0-115.8,0-173.8c0-57.5,0-115,0-172.6c0-45.8,0-91.6,0-137.4
		c0-22.7-0.7-45.5,0-68.2c0.2-5,1.5-9.4,7.8-10.1c2-0.2,4.2,0,6.2,0c13.9,0,27.8,0,41.7,0c52.2,0,104.3,0,156.5,0
		c55.2,0,110.4,0,165.6,0c17.8,0,35.5,0,53.3,0c7.6,0,23.2-2.9,24.3,7.8c0.5,4.9,0,10.1,0,15.1c0,12.7,0,25.4,0,38
		c0,42.7,0,85.4,0,128.1c0,56.3,0,112.7,0,169c0,58.7,0,117.3,0,176c0,49.5,0,99,0,148.4c0,29.4,0,58.8,0,88.2
		C490.4,814.7,492.3,825.7,482.7,826.5z"/>
	<path d="M457.8,768.4c1.1,0.1,2.2-0.6,2.2-2c0-22.2,0-44.4,0-66.6c0-52.9,0-105.7,0-158.6c0-64.4,0-128.8,0-193.1
		c0-55.3,0-110.6,0-165.8c0-18.4,0-36.7,0-55.1c0-8.4,1.3-17.8,0-26.1c-0.1-0.4,0-0.8,0-1.1c0-0.7-0.3-1.2-0.7-1.6
		c0.1-1.1-0.6-2.4-2-2.4c-12.3-0.5-23.7-12.9-24.2-25c0-0.4-0.1-0.8-0.3-1.1c-0.3-0.6-0.9-1-1.8-1c-37.9,0-75.8,0-113.8,0
		c-60.5,0-121,0-181.4,0c-13.9,0-27.8,0-41.8,0c-0.9,0-1.5,0.4-1.8,1c-0.2,0.3-0.3,0.7-0.3,1.1c-0.5,12.1-11.8,24.5-24.2,25
		c-1.7,0.1-2.4,1.8-1.9,3c-0.1,0.3-0.2,0.6-0.2,1c0,22.2,0,44.4,0,66.6c0,52.9,0,105.7,0,158.6c0,64.4,0,128.8,0,193.1
		c0,55.3,0,110.6,0,165.8c0,18.4,0,36.7,0,55.1c0,8.4-1.3,17.8,0,26.1c0.1,0.4,0,0.8,0,1.1c0,0.9,0.4,1.5,1,1.8
		c0.3,0.2,0.6,0.3,1.1,0.3c12.2,0.5,23.7,12.4,24.2,24.6c0,0.4,0.1,0.8,0.3,1.1c0.3,0.6,0.9,1,1.8,1c37.9,0,75.8,0,113.8,0
		c60.5,0,121,0,181.4,0c13.9,0,27.8,0,41.8,0c0.9,0,1.5-0.4,1.8-1c0.2-0.3,0.3-0.7,0.3-1.1c0.5-12.1,11.9-24.1,24.2-24.6
		C457.4,768.5,457.6,768.4,457.8,768.4z M429,790.9c-37.3,0-74.6,0-111.8,0c-60.5,0-121,0-181.4,0c-13.3,0-26.6,0-39.9,0
		c-1.6-13-13.1-24.8-26.1-26.5c0-21.6,0-43.2,0-64.7c0-52.9,0-105.7,0-158.6c0-64.4,0-128.8,0-193.1c0-55.3,0-110.6,0-165.8
		c0-18.4,0-36.7,0-55.1c0-8.4,1.3-17.8,0-26.1c-0.1-0.4,0-0.7,0-1.1c13.1-1.7,24.5-13.9,26.1-26.9c37.3,0,74.6,0,111.8,0
		c60.5,0,121,0,181.4,0c13.3,0,26.6,0,39.8,0c1.6,13.2,13.4,25.6,26.7,27c0,22.2,0,44.4,0,66.6c0,52.9,0,105.7,0,158.6
		c0,64.4,0,128.8,0,193.1c0,55.3,0,110.6,0,165.8c0,18.4,0,36.7,0,55.1c0,8.1-1.2,17.2-0.1,25.3C442.4,765.8,430.7,777.8,429,790.9z
		"/>
	<path d="M200.1,767.1c0-0.5-0.1-0.9-0.2-1c-0.1-0.2-0.3-0.3-0.6-0.5c-0.3-0.1-0.4-0.3-0.5-0.4c-0.1-0.1-0.3-0.3-0.8-0.5
		c-0.5-0.3-0.9-0.4-1.2-0.5c-0.2-0.1-0.5-0.2-0.9-0.5c-0.4-0.2-0.5-0.4-0.6-0.5c0-0.1-0.1-0.2-0.2-0.3c-0.1-0.1-0.2-0.2-0.2-0.3
		c0,0,0-0.1,0-0.1c0.1-0.1,0.1-0.2,0.1-0.3c0-0.1,0-0.3-0.1-0.5c0-0.1,0-0.1,0-0.2c0,0,0.1-0.1,0.3-0.1c0.3,0,0.4-0.1,0.4-0.2
		c0-0.1,0.1-0.2,0.4-0.3c0.3-0.2,0.4-0.2,0.4-0.3c0-0.1,0.1-0.1,0.4-0.2c0.1,0,0.1,0,0.2,0c0.4,0,0.7,0.1,1.2,0.4s0.6,0.6,0.6,0.8
		c0,0.2,0.1,0.4,0.3,0.5c0.2,0.1,0.3,0.3,0.3,0.4s0.1,0.3,0.2,0.5c0.1,0.2,0.3,0.3,0.3,0.3c0,0,0,0,0.1,0c0.1-0.1,0.1-0.7,0.2-1.9
		v-0.8c0-0.6-0.1-0.9-0.2-0.9c-0.1,0-0.1,0-0.1,0c-0.3,0.1-0.6,0.2-0.8,0.2c-0.3,0-0.6-0.1-0.9-0.3c-0.3-0.2-0.6-0.3-0.7-0.3
		c0,0-0.1,0-0.2,0c-0.3,0.1-0.5,0.1-0.7,0.1c-0.3,0-0.4,0-0.5,0.1c0,0.1-0.1,0.2-0.3,0.2c-0.2,0-0.4-0.1-0.5-0.2
		c-0.1-0.1-0.3-0.2-0.4-0.2h0c-0.1,0-0.1,0-0.1,0c-0.1,0-0.1,0-0.1,0c0,0,0.1,0,0.1,0c0.1,0.1,0.2,0.1,0.2,0.2
		c0,0.2-0.2,0.3-0.5,0.4c-0.3,0.1-0.4,0.2-0.4,0.4c0.1,0.2,0,0.3-0.2,0.4c-0.3,0.1-0.6,0.4-1,1c-0.1,0.2-0.2,0.4-0.2,0.5
		c0,0,0,0.3,0.1,0.7c0.1,0.6,0.3,1.1,0.4,1.2c0.1,0.2,0.3,0.4,0.7,0.7c0.3,0.3,0.6,0.4,0.7,0.4c0.1,0,0.3,0.1,0.6,0.4
		c0.3,0.3,0.9,0.5,1.6,0.7c0.4,0.1,0.8,0.3,1.1,0.6c0.2,0.2,0.3,0.4,0.4,0.6c0.1,0.3,0.2,0.5,0.2,0.6c0,0.1,0,0.1-0.1,0.2
		c-0.1,0-0.1,0.2-0.1,0.4c0.1,0.2,0,0.4-0.2,0.5c-0.1,0.1-0.2,0.2-0.2,0.4c0,0.2-0.4,0.3-1.3,0.4c-0.1,0-0.3,0-0.5,0
		c-0.9,0-1.6-0.4-2.1-1.1c-0.3-0.4-0.4-0.7-0.4-1c0,0,0-0.1,0-0.2c0-0.1,0-0.2,0-0.2c0,0-0.1-0.1-0.1-0.1c-0.1,0-0.1,0-0.1-0.1
		c0-0.3-0.1-0.4-0.4-0.6c-0.1,0-0.2-0.1-0.3-0.1c-0.3,0-0.4,0.2-0.4,0.5c-0.1,1.2-0.1,1.8-0.2,1.8c-0.1,0.1-0.1,0.3-0.2,0.8
		c0,0.1,0,0.3,0,0.4c0,0.2,0.1,0.4,0.3,0.6c0.1,0.1,0.2,0.2,0.3,0.2c0,0,0.1,0,0.2-0.2c0.1-0.2,0.2-0.3,0.2-0.4
		c0-0.2,0.2-0.3,0.5-0.1c0.8,0.4,1.7,0.6,2.7,0.6c0.5,0,1-0.1,1.5-0.2c0.6-0.1,1-0.3,1.3-0.6c0.3-0.3,0.4-0.5,0.4-0.5
		c0-0.1,0.1-0.2,0.2-0.3c0.2-0.1,0.3-0.4,0.3-0.8c0.1-0.5,0.1-0.7,0.2-0.7c0.1,0,0.1,0,0-0.1C200.1,768.1,200.1,767.7,200.1,767.1z
		 M196,765.7C195.9,765.7,195.9,765.6,196,765.7c-0.1-0.1-0.1-0.1,0-0.1C196,765.5,196,765.6,196,765.7
		C196,765.6,196,765.7,196,765.7z"/>
	<path d="M194.6,766.4c0-0.1,0-0.2-0.1-0.2c-0.1,0-0.1,0-0.1,0.1l0.1,0.2C194.5,766.6,194.6,766.6,194.6,766.4z"/>
	<path d="M217.8,763.1c0.1,0,0.2-0.2,0.2-0.5c0-0.2,0-0.3-0.1-0.3c-0.1,0-0.1-0.1-0.1-0.3c0-0.2,0.1-0.4,0.2-0.6
		c0.1-0.2,0.1-0.4-0.2-0.6c-0.2-0.2-0.5-0.3-0.8-0.3c-0.4,0-0.8,0.1-1,0.3c-0.3,0.2-0.4,0.3-0.5,0.2c-0.1-0.1-0.4-0.1-0.8,0
		c-0.5,0.1-1.3,0.2-2.5,0.2c-0.8,0-1.3,0-1.4-0.1c-0.1-0.1-0.2,0-0.4,0.2c-0.1,0.1-0.3,0.2-0.4,0.2c-0.2,0-0.4,0-0.7-0.1
		c-0.7-0.2-1.1-0.2-1.2-0.2c-0.1,0-0.2,0-0.2,0c-0.1,0-0.2,0.1-0.4,0.3c-0.1,0.2-0.2,0.3-0.2,0.5c0,0.1,0,0.1,0.1,0.2
		c0,0,0.1,0.2,0.1,0.5c0,0.1,0,0.2-0.1,0.2c-0.1,0-0.2,0.1-0.3,0.1c-0.3,0-0.5,0.1-0.5,0.3c0,0,0,0.1,0.1,0.2
		c0.1,0.1,0.1,0.3,0.1,0.6c0,0.2-0.1,0.4-0.1,0.5c0,0.5,0.2,0.7,0.5,0.7c0.3,0,0.4-0.1,0.4-0.2c0-0.1,0.1-0.2,0.2-0.2
		c0.1,0,0.1,0,0.2-0.1c0,0,0-0.1,0-0.2c0-0.1-0.1-0.1-0.2-0.2c-0.1-0.1-0.1-0.1-0.1-0.2c0,0,0-0.1,0-0.1s0-0.1,0.1-0.1
		c0,0,0.1,0,0.2-0.1c0.2-0.1,0.2-0.2,0.2-0.3c0,0,0-0.1,0-0.2c0-0.1,0-0.1,0-0.2c0-0.1,0-0.2,0.1-0.2c0.1-0.1,0.1-0.3,0-0.6
		c-0.1-0.3-0.1-0.4,0-0.4c0.1,0,0.1,0.1,0.1,0.2c0,0.1,0.2,0.2,0.5,0.3c0.3,0.1,0.7,0.2,1,0.2c0.4,0,0.6,0.1,0.8,0.3
		c0.2,0.2,0.3,0.2,0.5,0.2c0.1,0,0.1,0,0.1,0c0.1,0,0.1,0,0,0.1c-0.2,0.3-0.4,2.1-0.4,5.4c0,0.7-0.1,1.1-0.3,1.3
		c-0.2,0.1-0.3,0.3-0.3,0.4c0,0.1-0.2,0.2-0.7,0.2l-0.7,0.1l-0.1,0.5c0,0,0,0.1,0,0.1c0,0,0,0.1,0,0.1c0,0.2,0.1,0.4,0.4,0.7
		c0.3,0.3,0.5,0.4,0.7,0.4c0.1,0,0.1,0,0.1-0.1c0-0.1,0-0.1-0.1-0.1c-0.1,0-0.1,0-0.1-0.1c0-0.1,0.1-0.1,0.4-0.1c0.1,0,0.4,0,0.7,0
		c0.4,0,0.6,0,0.8,0c0.5,0,0.9-0.1,1-0.2c0.1-0.1,0.3-0.1,0.5-0.1c0.2,0.1,0.3,0,0.4-0.1c0.1-0.1,0.2-0.1,0.3-0.1
		c0.1,0,0.3-0.1,0.4-0.2c0.1-0.1,0.2-0.2,0.2-0.3c0-0.1-0.1-0.2-0.2-0.4c-0.2-0.3-0.3-0.4-0.4-0.4c-0.1,0-0.2-0.1-0.2-0.2
		c0-0.1-0.1-0.2-0.3-0.1c0,0-0.1,0-0.1,0c-0.1,0-0.1,0-0.1,0c-0.1,0-0.2,0-0.3-0.1c0-0.1-0.1-0.3-0.1-0.5V769c0-0.4,0-0.7,0-0.8
		c0-0.1,0.1-0.2,0.2-0.2c0.2,0,0.2-0.1,0.2-0.4c0-0.3,0-0.4-0.2-0.5c-0.1,0-0.2-0.3-0.2-1c0-0.7,0.1-1.1,0.2-1.3
		c0.1-0.1,0.1-0.5,0.2-1.1c0-0.6,0.1-1,0.1-1.1c0.1-0.2,0.5-0.2,1.1-0.2c0.9,0,1.4,0.1,1.5,0.3c0,0.1,0.1,0.2,0.3,0.4
		c0.2,0.2,0.3,0.4,0.3,0.7c0,0.3,0.1,0.4,0.1,0.5c0,0.1,0.2,0.1,0.4,0.1c0.2,0,0.3,0,0.3-0.1c0-0.1,0.1-0.2,0.3-0.2
		c0.2-0.1,0.3-0.2,0.3-0.3c0-0.2-0.1-0.4-0.2-0.5C217.7,763.3,217.6,763.2,217.8,763.1z"/>
	<path d="M226.2,757.7c0.2,0,0.3-0.1,0.3-0.2c0-0.1-0.1-0.1-0.3-0.1c-0.2,0-0.3,0-0.3,0.1C225.9,757.7,226,757.7,226.2,757.7z"/>
	<path d="M230.5,758.6C230.5,758.5,230.6,758.5,230.5,758.6c0.1-0.1,0.1-0.1,0.1-0.1c0,0-0.1,0-0.3,0c-0.2,0-0.2,0.1-0.3,0.2
		C230.2,758.7,230.4,758.7,230.5,758.6z"/>
	<path d="M237.1,770.1c-0.1,0-0.2-0.1-0.3-0.3c-0.1-0.2-0.3-0.3-0.5-0.3c-0.2,0-0.4-0.1-0.6-0.2c-0.2-0.1-0.4-0.2-0.4-0.3
		c-0.1-0.1-0.1-0.2-0.3-0.2s-0.3-0.1-0.5-0.4s-0.4-0.5-0.5-0.8c-0.1-0.2-0.4-0.6-0.8-1c-0.4-0.5-0.7-0.7-0.8-0.7
		c-0.1,0-0.2-0.1-0.3-0.3c-0.1-0.1-0.1-0.2-0.1-0.2c0,0,0.1-0.1,0.3-0.2c0.7-0.3,1.1-0.6,1.1-0.8c0-0.4,0.1-0.7,0.3-0.7
		c0.1,0,0.2-0.1,0.4-0.2c0.2-0.2,0.2-0.6,0.2-1.4c0-0.9-0.1-1.4-0.3-1.6c-0.1-0.1-0.2-0.2-0.3-0.2c-0.1,0-0.2,0-0.2-0.1
		c0-0.1-0.1-0.2-0.3-0.3c-0.2-0.1-0.4-0.3-0.4-0.5l-0.2-0.3c-0.1-0.1-0.2-0.1-0.2,0.1c0,0.1-0.3,0.1-0.8,0.1c-0.5,0-0.8,0-0.8-0.1
		c0-0.1-0.1-0.1-0.4-0.1c-0.3,0-0.5-0.1-0.6-0.3c-0.2-0.2-0.3-0.3-0.4-0.3c-0.1,0-0.2,0.1-0.1,0.3c0,0,0,0,0,0.1v0.1
		c0,0.1-0.6,0.2-1.7,0.2h-1.7l-0.4,0.5c-0.3,0.3-0.4,0.5-0.4,0.6c0,0.1,0.1,0.2,0.4,0.3c0.3,0.1,0.5,0.1,0.5,0.2
		c0,0.1,0,0.1,0.1,0.1c0.2,0,0.4,0.1,0.5,0.4c0.2,0.3,0.3,0.7,0.3,1.1c0,0.4,0.1,0.6,0.1,0.6c0,0.2-0.1,0.4-0.2,0.5
		c-0.2,0.1-0.2,0.2-0.1,0.3c0.1,0.1,0.2,0.3,0.2,0.6c0,0.3-0.1,0.5-0.2,0.5c-0.1,0-0.1,0,0,0.1c0.1,0,0.2,0.2,0.2,0.4
		c0,0.2-0.1,0.3-0.2,0.4c-0.1,0.1-0.1,0.2,0.1,0.4c0.1,0.1,0.2,0.3,0.2,0.4s-0.1,0.3-0.2,0.4c-0.2,0.2-0.2,0.7-0.3,1.5
		c0,0.6,0,1-0.1,1.2c0,0.1-0.1,0.2-0.2,0.3c-0.2,0.1-0.3,0.1-0.3,0.2c0,0-0.2,0.1-0.7,0.1c-0.4,0-0.6,0-0.6,0.1
		c-0.1,0.1-0.1,0.2-0.1,0.4c0,0.2,0.2,0.4,0.5,0.7c0.2,0.1,0.3,0.2,0.5,0.2c0.2,0,0.3-0.1,0.3-0.2c0.1-0.1,0.7-0.2,2-0.2
		c1.3,0,1.9-0.1,2-0.3c0.1-0.1,0.2-0.2,0.3-0.2c0.1,0,0.2-0.1,0.2-0.2c0-0.1-0.1-0.2-0.4-0.2c-0.2,0-0.4-0.1-0.4-0.3
		c0-0.2-0.2-0.3-0.5-0.3c-0.3,0-0.5-0.2-0.5-0.3c0-0.1,0-0.2,0.1-0.3c0.2-0.2,0.2-0.3,0.1-0.4c-0.1,0-0.2-0.5-0.2-1.5
		c0-0.3,0-0.6,0-0.9c0-0.3,0-0.4,0.1-0.5c0-0.1,0.1-0.1,0.2-0.1c0.4,0,0.9,0.2,1.4,0.5c0.5,0.3,0.7,0.6,0.7,1c0,0.2,0.1,0.3,0.2,0.3
		s0.2,0.1,0.2,0.4c0,0.5,0.3,0.8,0.7,0.9c0.2,0.1,0.4,0.3,0.4,0.7c0.1,0.3,0.3,0.7,0.7,1.1l0.6,0.6l0.8-0.1c0.1,0,0.3,0,0.6,0
		c0.3,0,0.5,0,0.7-0.1c0.2,0,0.4-0.1,0.7-0.1s0.4-0.1,0.5-0.2c0.1-0.1,0.2-0.2,0.2-0.3C237.2,770.1,237.2,770.1,237.1,770.1z
		 M231.8,763.7c-0.1,0-0.2,0-0.2,0.1c-0.1,0-0.1,0,0,0.1c0.2,0,0.2,0.1,0.2,0.2c0,0.1-0.1,0.3-0.3,0.4c-0.2,0.2-0.4,0.2-0.7,0.3
		c-0.3,0-0.6,0.1-1,0.2c-0.1,0-0.2,0-0.3,0c-0.2,0-0.4-0.1-0.6-0.3c-0.2-0.2-0.3-0.3-0.3-0.3s0-0.1,0.1-0.2c0.1-0.1,0.2-0.7,0.2-1.5
		v-1.2c0-0.2,0.1-0.5,0.2-0.7c0.1-0.2,0.3-0.3,0.4-0.3h0.1l0.4,0.1c0.3,0,0.5,0.1,0.7,0.1c0.2,0,0.3,0.1,0.3,0.1
		c0,0,0.1,0.1,0.4,0.2c0.3,0.1,0.4,0.2,0.4,0.3c0,0.1,0.1,0.2,0.2,0.3c0.1,0.1,0.2,0.2,0,0.3c-0.1,0.1-0.1,0.3,0.1,0.6
		c0.1,0.2,0.2,0.4,0.2,0.7v0.1c0,0.2-0.1,0.4-0.1,0.4C232.1,763.6,232,763.7,231.8,763.7z"/>
	<path d="M243.8,769.5c0,0,0.1,0,0.1-0.1c0.1-0.2,0.1-0.3,0-0.3c-0.1,0-0.2,0.1-0.2,0.2C243.7,769.5,243.7,769.5,243.8,769.5z"/>
	<path d="M253.3,767.8c-0.1,0-0.2,0.2-0.5,0.5c-0.2,0.3-0.4,0.5-0.4,0.6c0,0.1-0.1,0.2-0.3,0.2c-0.1,0-0.2,0-0.2,0.1
		c0,0-0.1,0.1-0.1,0.1c0,0,0,0.1,0,0.3c0,0.2-0.1,0.3-0.4,0.3c0,0-0.1,0-0.1,0c-0.1,0-0.1,0-0.2,0c-0.2,0-0.4,0.1-0.6,0.3
		c-0.2,0.2-0.4,0.3-0.5,0.3c-0.1,0-0.2,0-0.2-0.2c0-0.1-0.1-0.1-0.3,0c-0.2,0.1-0.5,0.2-1.1,0.2c-0.5,0-0.7,0-0.7-0.1
		c0-0.1-0.1-0.1-0.2-0.1c-0.1,0-0.1-0.1-0.2-0.2c-0.1-0.1-0.1-0.3-0.1-0.4c0-0.1,0-0.1,0-0.3c0-0.1,0-0.3,0-0.6c0-0.3,0-0.5,0-0.8
		c0-0.2,0-0.5,0-0.7c0-0.2,0-0.4,0-0.6v-0.2c0-0.1,0.4-0.1,1.2-0.1c0.7,0,1.1,0.1,1.4,0.2c0.2,0.1,0.3,0.4,0.3,0.7
		c0,0.2,0,0.2,0.1,0.3c0,0,0.1,0,0.2,0c0.1-0.1,0.3-0.1,0.5-0.1c0.1,0,0.2,0,0.2-0.1c0-0.1,0.1-0.2,0.1-0.5c0-0.1,0-0.1,0-0.3
		c0-0.1,0-0.3,0-0.4v-0.2c0-0.3,0-0.5,0.1-0.6c0.1-0.1,0.1-0.3,0-0.4c-0.1-0.1-0.1-0.2,0.1-0.3c0.1-0.1,0.2-0.2,0.2-0.4
		c0-0.3-0.3-0.4-1-0.4c-0.4,0-0.5,0.2-0.5,0.5c0,0.1,0,0.1,0.1,0.3c0,0.2,0,0.4,0,0.5c-0.1,0.1-0.3,0.2-0.8,0.3
		c-0.5,0.1-1,0.1-1.4,0.1h-0.6v-0.6c0-0.4,0.1-0.6,0.2-0.6c0.1,0,0.2-0.1,0.2-0.3c0-0.2-0.1-0.5-0.2-0.8c-0.1-0.2-0.1-0.3-0.1-0.4
		c0-0.1,0.1-0.1,0.2-0.2c0.2-0.1,0.3-0.3,0.2-0.5c0,0,0-0.1,0-0.2c0-0.1,0.1-0.2,0.4-0.3c0.2-0.1,0.7-0.1,1.4-0.2
		c0.7,0,1-0.1,1.1-0.1c0.3,0,0.5,0.1,0.6,0.2c0.1,0.2,0.3,0.3,0.5,0.3c0.2,0.1,0.3,0.2,0.3,0.3c0,0.1,0.1,0.2,0.3,0.3
		c0.2,0.1,0.3,0.2,0.3,0.3c0,0.2,0.1,0.3,0.3,0.5c0.2,0.2,0.4,0.2,0.6,0.2h0c0.2,0,0.4-0.2,0.4-0.6c0-0.2-0.1-0.3-0.2-0.5
		c-0.1-0.1-0.2-0.3-0.2-0.5c0-0.3,0-0.4-0.2-0.5c-0.1,0-0.1-0.1,0-0.4c0.1-0.1,0.1-0.2,0.1-0.2c0,0-0.1-0.1-0.1-0.1
		c-0.1-0.1-0.2-0.2-0.2-0.3s-0.1-0.3-0.3-0.5c-0.2-0.2-0.4-0.2-0.5-0.1c-0.2,0.1-1.7,0.2-4.4,0.3h-0.7c-1.4,0-2.1-0.1-2.2-0.3
		c0-0.1-0.1-0.1-0.2-0.1c-0.1,0-0.2,0-0.2,0l0,0.1c0,0,0,0.1,0,0.1c0,0,0,0.1,0,0.2c0,0.1,0,0.2,0,0.2c0,0.2-0.1,0.3-0.3,0.3
		c-0.2,0.1-0.2,0.2-0.2,0.4c0.1,0.2,0.1,0.4,0.2,0.4c0.1,0.1,0.1,0.1,0.3,0.1c0.1,0,0.2,0,0.3,0c0.1,0,0.2,0,0.3,0
		c0.3,0,0.5,0.1,0.6,0.3c0.1,0.2,0.1,0.7,0.1,1.3c0,0.8-0.1,1.3-0.2,1.3c-0.1,0-0.1,0.1,0,0.4c0.1,0.2,0.1,0.4,0,0.6
		c-0.1,0.2-0.2,0.3-0.3,0.3c-0.1,0-0.1,0.1,0.1,0.2c0.1,0.1,0.1,0.3,0.1,0.6c0,0.5-0.1,1.4-0.2,2.6l-0.1,0.8h-0.5
		c-0.3,0-0.5,0.1-0.6,0.3c0,0.2-0.1,0.3-0.3,0.3c-0.1,0-0.2,0.1-0.2,0.3c0,0.3,0.1,0.4,0.3,0.6c0.2,0.1,0.3,0.2,0.3,0.4
		c0,0.1,0.2,0.1,0.7,0.1c0.4,0,0.7-0.1,0.9-0.3c0.1-0.1,0.5-0.2,1.1-0.2c0.5,0,0.9,0,1.2,0c0.7,0,1.1,0.1,1.1,0.2
		c0,0.1,0.2,0.1,0.4,0c0.2-0.1,0.7-0.1,1.4-0.2c0.8,0,1.2,0,1.4-0.1c0.2,0,0.3-0.1,0.5-0.2c0.2-0.2,0.3-0.3,0.2-0.5
		c0-0.2,0-0.3,0.1-0.4c0.1-0.1,0.2-0.3,0.2-0.7c0-0.3,0-0.5,0-0.6c0-0.1,0.1-0.1,0.2-0.1c0.2,0,0.3-0.1,0.3-0.4
		c0-0.2-0.1-0.4-0.2-0.6C253.6,767.8,253.5,767.8,253.3,767.8z"/>
	<path d="M272.7,760.1c-0.1,0-0.2,0-0.3,0.1c-0.2,0.1-0.3,0.1-0.3,0.1s-0.1-0.1-0.2-0.2c-0.1-0.2-0.3-0.3-0.4-0.3
		c-0.1,0-0.2-0.1-0.2-0.3c0-0.2-0.1-0.3-0.3-0.3c-0.2,0-0.3,0.1-0.3,0.3c0,0.2,0.1,0.3,0.2,0.3c0.1,0,0.2,0.1,0.2,0.3
		c0,0.2-0.1,0.3-0.2,0.3c-0.2,0-0.3-0.1-0.3-0.3c-0.1-0.2-0.2-0.3-0.3-0.3c-0.1,0-0.1,0-0.2,0.1c-0.2,0.2-0.2,0.3,0,0.3
		c0.1,0,0.2,0.1,0.2,0.1c0,0.1-0.1,0.2-0.4,0.2c-0.2,0-0.3,0-0.3-0.1c0-0.1-0.1-0.1-0.4-0.1c-0.4,0-0.8,0.1-1.1,0.2
		c-0.4,0.2-0.5,0.4-0.5,0.6c0,0.3,0.2,0.4,0.7,0.5c0.4,0.1,0.6,0.1,0.6,0.2c0,0.1,0.1,0.1,0.3,0.1c0.3,0,0.4,0.2,0.5,0.6
		c0.1,0.4,0.2,1.1,0.2,2.3c0,1.3,0.1,2.1,0.1,2.3c0.1,0.1,0,0.3,0,0.6l-0.1,0.4l-0.5-0.4c-0.3-0.3-0.5-0.5-0.5-0.6
		c0-0.1-0.1-0.2-0.2-0.3s-0.3-0.2-0.4-0.3c-0.2-0.1-0.2-0.2-0.3-0.2c-0.1-0.1-0.2-0.2-0.3-0.2c-0.1,0-0.2,0-0.2-0.2
		c0-0.1-0.1-0.2-0.2-0.3c-0.1-0.1-0.2-0.2-0.3-0.2s-0.1-0.1-0.1-0.2c0-0.1-0.1-0.2-0.2-0.2c-0.1,0-0.1,0-0.1-0.1
		c0-0.1-0.1-0.2-0.3-0.4c-0.2-0.2-0.3-0.4-0.3-0.5c0-0.1-0.1-0.2-0.3-0.2c-0.2,0-0.3-0.1-0.4-0.2c-0.1-0.1-0.2-0.2-0.2-0.4
		c0-0.1-0.2-0.3-0.5-0.7c-0.3-0.4-0.5-0.6-0.5-0.7c0-0.1-0.1-0.2-0.3-0.4s-0.3-0.3-0.3-0.4c0-0.3-0.6-0.4-1.7-0.5
		c-0.5,0-0.8-0.1-0.9-0.1c-0.3,0-0.4,0.1-0.4,0.2c0,0.1,0,0.2,0,0.3c0,0.2,0,0.4,0.1,0.6c0.1,0.2,0.1,0.3,0.2,0.3
		c0.1,0,0.2,0.2,0.3,0.6c0.1,0.4,0.1,0.6,0.2,0.6c0.1,0,0.1,0.2,0.1,0.7c0,0.5,0,0.7-0.1,0.7c-0.1,0-0.1,0.1-0.1,0.3
		c0,0.2,0.1,0.5,0.2,0.9c0.1,0.2,0.1,0.5,0.1,1c0,0.7-0.1,1-0.2,1c-0.1,0-0.1,0.2-0.1,0.7c0,0.5,0,1-0.1,1.4c0,0.4-0.1,0.6-0.1,0.7
		c-0.1,0.1-0.2,0.2-0.4,0.2c-0.3,0.1-0.4,0.2-0.4,0.4c0,0.2,0.1,0.4,0.3,0.6c0.2,0.2,0.3,0.3,0.5,0.3c0.2,0,0.7,0,1.6,0
		c1,0,1.5,0,1.7-0.1c0.2-0.1,0.3-0.3,0.3-0.7c0-0.3-0.1-0.4-0.3-0.5c-0.2-0.1-0.3-0.1-0.3-0.2c0-0.1-0.2-0.1-0.6-0.1
		c-0.4,0-0.6-0.1-0.8-0.3c-0.2-0.2-0.2-0.3-0.1-0.3c0.1-0.1,0.2-0.2,0.2-0.5c0-0.3,0-0.5-0.1-0.5c-0.1-0.1-0.1-0.9-0.1-2.5
		c0-1.6,0.1-2.4,0.2-2.4c0.1,0,0.2,0.1,0.4,0.2c0.1,0.1,0.2,0.2,0.5,0.3c0.3,0.1,0.4,0.2,0.5,0.4c0,0.2,0.3,0.5,0.7,1
		c0.5,0.5,0.9,0.8,1.2,1.1c0.2,0.1,0.3,0.2,0.3,0.3c0,0.1,0.2,0.2,0.5,0.5c0.7,0.6,1,1.1,1,1.3c0,0.1,0.1,0.1,0.3,0.1
		c0.2,0,0.3,0,0.3,0.1c0,0.1,0.1,0.3,0.3,0.5c0.2,0.2,0.3,0.4,0.3,0.6c0,0.1,0.1,0.3,0.3,0.5c0.2,0.2,0.3,0.3,0.4,0.3
		c0.1,0,0.3,0.1,0.6,0.4c0.3,0.3,0.5,0.5,0.7,0.6c0.1,0.1,0.2,0.1,0.3,0.1c0.4,0,0.6-0.2,0.6-0.6c0-0.1,0-0.2,0-0.4
		c0-0.8-0.1-1.3-0.2-1.5c-0.1-0.1-0.1-0.5-0.1-1.2v-0.4c0-1,0-1.5-0.1-1.5c-0.1,0-0.2-0.4-0.2-0.9c0-0.5,0-0.7,0.1-0.8
		c0.1-0.1,0.2-0.2,0.2-0.5s0-0.4,0.1-0.4c0.1,0,0.1-0.1,0.1-0.4c0-0.3,0-0.4-0.1-0.4c-0.1,0-0.1-0.1-0.1-0.4c0-0.3,0.1-0.6,0.2-0.9
		c0.2-0.3,0.4-0.5,0.7-0.5c0.2,0,0.4-0.1,0.4-0.1c0.1,0,0.1-0.2,0.1-0.4v-0.2C273,760.3,272.9,760.1,272.7,760.1z"/>
	<path d="M288.7,766.3c-0.3,0-0.5,0-0.6,0c-0.7,0-1.1,0-1.3,0.1c-0.2,0.1-0.4,0.2-0.4,0.3c0,0.1-0.1,0.2-0.1,0.3
		c0,0.3,0.4,0.4,1.2,0.6c0.7,0.1,1,0.2,1,0.3c0,0-0.1,0.2-0.2,0.6c-0.1,0.3-0.3,0.5-0.5,0.5c-0.2,0-0.4,0.1-0.6,0.4
		c-0.2,0.3-0.3,0.3-0.4,0.2c-0.1-0.1-0.2-0.1-0.4,0.1c-0.2,0.2-0.4,0.2-0.7,0.2c-0.1,0-0.3,0-0.8-0.1c-0.6,0-1-0.1-1.2-0.2
		c-0.2-0.1-0.3-0.3-0.3-0.6c0-0.2-0.1-0.4-0.3-0.5c-0.2-0.1-0.3-0.2-0.3-0.3c0-0.2,0-0.2-0.1-0.2c-0.3,0-0.5-0.5-0.7-1.4
		c-0.1-0.7-0.2-1-0.3-1c-0.1,0-0.1-0.1-0.1-0.2c0-0.1,0-0.2,0.1-0.2c0.2,0,0.2-0.6,0.3-1.8c0-0.2,0.1-0.2,0.3-0.2
		c0.2,0,0.2-0.1,0.3-0.2c0-0.1,0-0.2-0.2-0.4c-0.1-0.1-0.1-0.2,0.1-0.2c0.2,0,0.4-0.1,0.6-0.2c0.2-0.1,0.3-0.3,0.3-0.4
		s0.1-0.2,0.3-0.4c0.2-0.1,0.4-0.2,0.6-0.2c0.2,0,0.3-0.1,0.3-0.2c0-0.1,0.2-0.2,0.7-0.3c0,0,0.1,0,0.2,0c0.1,0,0.1,0,0.2,0
		c0.6,0,0.9,0.2,1.2,0.5c0.1,0.2,0.3,0.3,0.6,0.3c0.2,0.1,0.4,0.2,0.4,0.3c0,0,0,0,0,0.1c0,0,0,0.1,0,0.1c0,0.1,0,0.2,0.1,0.3
		c0.1,0.1,0.2,0.2,0.3,0.5c0.1,0.2,0.1,0.3,0.2,0.4c0.1,0.1,0.3,0.1,0.5,0.2c0.1,0,0.2,0,0.3,0c0.1,0,0.1,0,0.2,0
		c0,0,0.1-0.1,0.1-0.1c0-0.1,0-0.1,0.1-0.2c0.1-0.2,0.1-0.5,0.1-0.9c0-0.3,0-0.5,0.1-0.5c0.1,0,0.1-0.1,0.1-0.3c0-0.2,0-0.5-0.1-0.8
		c0-0.1-0.1-0.2-0.2-0.3c-0.1,0-0.4-0.1-0.8-0.1c-0.6,0-1,0-1.1-0.1c-0.1-0.1-0.8-0.2-2.1-0.2c-0.5,0-0.9,0-1.1,0.1
		c-0.6,0.1-1,0.2-1.2,0.3c-0.2,0.1-0.7,0.5-1.5,1.2c-0.8,0.7-1.2,1.2-1.2,1.3c0,0.1-0.1,0.2-0.2,0.3c-0.1,0.2-0.2,0.4-0.2,0.6
		s-0.1,0.4-0.2,0.5c-0.1,0.1-0.1,0.2-0.1,0.3c0,0.2-0.1,0.3-0.2,0.4c-0.1,0.1-0.2,0.5-0.2,1.4c0,1,0.1,1.5,0.2,1.5
		c0.1,0,0.1,0.1,0.1,0.3c0,0.1,0,0.2-0.1,0.2c-0.1,0,0,0.1,0.2,0.4c0.2,0.2,0.4,0.3,0.5,0.3c0.1,0,0.2,0.1,0.2,0.3
		c0,0.2,0.2,0.4,0.6,0.7c0.3,0.3,0.6,0.5,0.8,0.6c0.2,0.1,0.2,0.1,0.2,0.2c0,0.1,0.3,0.2,1,0.3c0.7,0.1,1.3,0.1,2,0.1
		c1,0,1.6-0.1,1.7-0.3c0.1-0.1,0.3-0.2,0.6-0.3c0.3-0.1,0.6-0.2,0.7-0.2c0,0,0.1,0,0.1,0c0,0-0.1,0.2-0.2,0.5
		c-0.1,0.2-0.2,0.4-0.2,0.5c0,0.2,0.2,0.3,0.6,0.3c0.2,0,0.4,0,0.6,0c1-0.1,1.5-0.2,1.5-0.4c0-0.1-0.1-0.3-0.4-0.5
		c-0.2-0.1-0.3-0.3-0.3-0.4c0-0.2-0.1-0.5-0.1-1.2l-0.1-1.3l0.5,0c0.3,0.1,0.5,0,0.6-0.2c0.1-0.2,0.3-0.3,0.6-0.3
		c0.3,0,0.4-0.1,0.4-0.1c0,0,0.1-0.2,0.1-0.5v-0.6l-2.4-0.1C289.2,766.3,289,766.3,288.7,766.3z"/>
	<path d="M309.3,763.1c0.1,0,0.2-0.2,0.2-0.5c0-0.2,0-0.3-0.1-0.3c-0.1,0-0.1-0.1-0.1-0.3c0-0.2,0.1-0.4,0.2-0.6
		c0.1-0.2,0.1-0.4-0.2-0.6c-0.2-0.2-0.5-0.3-0.8-0.3c-0.4,0-0.8,0.1-1,0.3c-0.3,0.2-0.4,0.3-0.5,0.2c-0.1-0.1-0.4-0.1-0.8,0
		c-0.5,0.1-1.3,0.2-2.5,0.2c-0.8,0-1.3,0-1.4-0.1c-0.1-0.1-0.2,0-0.4,0.2c-0.1,0.1-0.3,0.2-0.4,0.2c-0.2,0-0.4,0-0.7-0.1
		c-0.7-0.2-1.1-0.2-1.2-0.2c-0.1,0-0.2,0-0.2,0c-0.1,0-0.2,0.1-0.4,0.3s-0.2,0.3-0.2,0.5c0,0.1,0,0.1,0.1,0.2c0,0,0.1,0.2,0.1,0.5
		c0,0.1,0,0.2-0.1,0.2c-0.1,0-0.2,0.1-0.3,0.1c-0.3,0-0.5,0.1-0.5,0.3c0,0,0,0.1,0.1,0.2c0.1,0.1,0.1,0.3,0.1,0.6
		c0,0.2-0.1,0.4-0.1,0.5c0,0.5,0.2,0.7,0.5,0.7c0.3,0,0.4-0.1,0.4-0.2c0-0.1,0.1-0.2,0.2-0.2c0.1,0,0.1,0,0.2-0.1c0,0,0-0.1,0-0.2
		c0-0.1-0.1-0.1-0.2-0.2c-0.1-0.1-0.1-0.1-0.1-0.2c0,0,0-0.1,0-0.1s0-0.1,0.1-0.1c0,0,0.1,0,0.2-0.1c0.2-0.1,0.2-0.2,0.2-0.3
		c0,0,0-0.1,0-0.2c0-0.1,0-0.1,0-0.2c0-0.1,0-0.2,0.1-0.2c0.1-0.1,0.1-0.3,0-0.6c-0.1-0.3-0.1-0.4,0-0.4c0.1,0,0.1,0.1,0.1,0.2
		c0,0.1,0.2,0.2,0.5,0.3c0.3,0.1,0.7,0.2,1,0.2c0.4,0,0.6,0.1,0.8,0.3c0.2,0.2,0.3,0.2,0.5,0.2c0.1,0,0.1,0,0.1,0c0.1,0,0.1,0,0,0.1
		c-0.2,0.3-0.4,2.1-0.4,5.4c0,0.7-0.1,1.1-0.3,1.3c-0.2,0.1-0.3,0.3-0.3,0.4c0,0.1-0.2,0.2-0.7,0.2l-0.7,0.1l-0.1,0.5
		c0,0,0,0.1,0,0.1c0,0,0,0.1,0,0.1c0,0.2,0.1,0.4,0.4,0.7c0.3,0.3,0.5,0.4,0.7,0.4c0.1,0,0.1,0,0.1-0.1c0-0.1,0-0.1-0.1-0.1
		c-0.1,0-0.1,0-0.1-0.1c0-0.1,0.1-0.1,0.4-0.1c0.1,0,0.4,0,0.7,0c0.4,0,0.6,0,0.8,0c0.5,0,0.9-0.1,1-0.2c0.1-0.1,0.3-0.1,0.5-0.1
		c0.2,0.1,0.3,0,0.4-0.1c0.1-0.1,0.2-0.1,0.3-0.1c0.1,0,0.3-0.1,0.4-0.2c0.1-0.1,0.2-0.2,0.2-0.3c0-0.1-0.1-0.2-0.2-0.4
		c-0.2-0.3-0.3-0.4-0.4-0.4c-0.1,0-0.2-0.1-0.2-0.2c0-0.1-0.1-0.2-0.3-0.1c0,0-0.1,0-0.1,0c-0.1,0-0.1,0-0.1,0c-0.1,0-0.2,0-0.3-0.1
		c0-0.1-0.1-0.3-0.1-0.5V769c0-0.4,0-0.7,0-0.8c0-0.1,0.1-0.2,0.2-0.2c0.2,0,0.2-0.1,0.2-0.4c0-0.3,0-0.4-0.2-0.5
		c-0.1,0-0.2-0.3-0.2-1c0-0.7,0.1-1.1,0.2-1.3c0.1-0.1,0.1-0.5,0.2-1.1c0-0.6,0.1-1,0.1-1.1c0.1-0.2,0.5-0.2,1.1-0.2
		c0.9,0,1.4,0.1,1.5,0.3c0,0.1,0.1,0.2,0.3,0.4c0.2,0.2,0.3,0.4,0.3,0.7c0,0.3,0.1,0.4,0.1,0.5c0,0.1,0.2,0.1,0.4,0.1
		c0.2,0,0.3,0,0.3-0.1c0-0.1,0.1-0.2,0.3-0.2c0.2-0.1,0.3-0.2,0.3-0.3c0-0.2-0.1-0.4-0.2-0.5C309.2,763.3,309.2,763.2,309.3,763.1z"
		/>
	<path d="M328.7,760.6c-0.2-0.1-0.4-0.1-0.7-0.1c-0.1,0-0.2,0-0.4,0c-0.3,0.1-0.5,0.1-0.7,0.1h-0.1h-0.2c-0.2,0-0.5,0-0.9,0
		c-0.4,0-0.6,0.1-0.7,0.1c-0.1,0-0.2,0.1-0.2,0.2c0,0.2,0,0.3-0.1,0.3c-0.1,0-0.1,0-0.1,0.1c0,0.1,0,0.2,0,0.3
		c0,0.1,0.1,0.2,0.2,0.2c0.1,0.1,0.2,0.5,0.2,1.2c0,0.7,0.1,1.1,0.2,1.1c0.1,0,0.1,0.2,0.1,0.7v0.7h-1.2c-0.7,0-1.6,0-2.5-0.1
		l-1.3-0.1v-0.6c0-0.4,0-0.6,0.1-0.7c0.1,0,0.1-0.3,0.2-0.8c0-1,0.1-1.5,0.3-1.5c0.1,0,0.2,0,0.2-0.1c0-0.1,0.1-0.2,0.4-0.2
		c0.2,0,0.4-0.1,0.5-0.2c0.1-0.1,0.2-0.2,0.2-0.4c0-0.2-0.1-0.3-0.2-0.4c-0.2-0.1-0.5-0.2-1-0.2c-0.2,0-0.4,0-0.4,0.1
		c0,0-0.4,0.1-1.2,0.1c-0.9,0.1-1.6,0.2-2.3,0.4c-0.1,0-0.2,0.1-0.2,0.2c0,0.1,0.2,0.2,0.6,0.4l0.6,0.3l0,0.8v0.8v0.3
		c0,0.2,0,0.3,0.1,0.4c0.1,0.1,0.2,0.4,0.2,1c0,0.6-0.1,1-0.2,1.3c-0.1,0.3-0.2,0.5-0.2,0.7c0,0,0,0,0,0.1c0,0,0,0.1,0,0.1
		c0,0.2,0.1,0.4,0.1,0.6c0,0.5,0,1-0.1,1.6c-0.1,0.6-0.1,1-0.2,1.1c-0.1,0.2-0.4,0.3-0.8,0.3c-0.3,0-0.5,0.1-0.5,0.1
		c-0.1,0-0.1,0.2-0.1,0.4v0.5l0.6-0.1c0.3-0.1,1-0.1,2.1-0.1h0.6h0.6c1,0,1.5,0,1.5-0.1c0-0.1-0.1-0.3-0.2-0.5
		c-0.2-0.2-0.3-0.3-0.4-0.3h-0.1c-0.2,0.1-0.3,0.1-0.6-0.1c-0.1,0-0.2-0.1-0.3-0.2c0-0.1-0.1-0.2-0.1-0.4c0-0.3,0-0.5,0-0.7
		c0-0.8,0-1.5,0-1.9V767h4.6l0.1,0.4c0,0.2,0.1,0.4,0.1,0.7c0,0.5,0,1.1-0.1,1.6c-0.1,0.6-0.2,0.9-0.2,1c-0.1,0.1-0.4,0.2-0.8,0.3
		c-0.3,0-0.4,0.1-0.5,0.1c-0.1,0-0.1,0.2-0.1,0.4c0,0.3,0.1,0.5,0.3,0.5c0.3,0.1,1.2,0.1,2.9,0.1c1.2,0,1.9,0,2-0.1
		c0.2-0.1,0.3-0.2,0.3-0.3c0-0.2-0.1-0.3-0.2-0.4c-0.1-0.1-0.3-0.2-0.4-0.2c0,0-0.1,0-0.1,0c-0.1,0.1-0.3,0.1-0.5,0l-0.3-0.1
		l0.1-3.3c0-2.2,0.1-3.3,0.2-3.4c0,0,0.1-0.3,0.1-0.9c0.1-1,0.2-1.5,0.3-1.5c0.1,0,0.2,0,0.2-0.1c0-0.1,0.1-0.2,0.3-0.2
		c0.2,0,0.4-0.1,0.5-0.2c0.2-0.1,0.2-0.2,0.2-0.4C329,760.8,328.9,760.7,328.7,760.6z M318.5,769c-0.2-0.1-0.3-0.1-0.3-0.2
		c0-0.1,0-0.1,0.1-0.1c0.2,0,0.3,0.1,0.4,0.2c0,0,0,0,0,0.1C318.7,769,318.6,769,318.5,769z M319.1,768.9c-0.1,0-0.1-0.1-0.1-0.2
		c0-0.1,0-0.2,0.1-0.2c0.1,0,0.2,0.1,0.2,0.2C319.3,768.9,319.2,768.9,319.1,768.9z M319.2,765.5c-0.1,0-0.2-0.1-0.2-0.3
		c0-0.2,0.1-0.4,0.2-0.4c0.2,0,0.2,0.1,0.2,0.3C319.3,765.4,319.3,765.5,319.2,765.5z M325.8,769c-0.1,0.1-0.2,0.1-0.3,0
		c-0.2-0.1-0.3-0.1-0.3-0.2c0-0.1,0.1-0.1,0.2-0.1c0.3,0,0.4,0.1,0.4,0.2C325.9,768.9,325.9,769,325.8,769z M326.2,768.9
		c-0.1,0-0.2-0.1-0.2-0.2c0-0.1,0.1-0.2,0.2-0.2c0.1,0,0.1,0.1,0.1,0.2C326.3,768.9,326.3,768.9,326.2,768.9z M326.2,765.5
		c-0.1,0-0.2-0.1-0.2-0.3c0-0.2,0.1-0.4,0.2-0.4c0.1,0,0.2,0.1,0.2,0.3C326.4,765.4,326.3,765.5,326.2,765.5z"/>
	<g>
		<g>
			<path d="M170.1,225.1c-3.7-3.7-3.6-24.6-6.2-24.6c-2.6,0-1.7,20.1-6.2,24.6s-18.8,2.6-18.8,5.5s14.4,1.1,18.8,5.5
				c4.3,4.3,3.6,24.6,6.2,24.6c2.6,0,2.2-20.6,6.2-24.6c4-4,18.8-3.1,18.8-5.5C188.9,228.1,173.9,228.8,170.1,225.1z"/>
		</g>
		<g>
			<path d="M153.8,619.1c-3.7-3.7-3.6-24.6-6.2-24.6c-2.6,0-1.7,20.1-6.2,24.6c-4.5,4.5-18.8,2.6-18.8,5.5c0,2.9,14.4,1.1,18.8,5.5
				c4.3,4.3,3.6,24.6,6.2,24.6c2.6,0,2.2-20.6,6.2-24.6c4-4,18.8-3.1,18.8-5.5C172.6,622.2,157.5,622.8,153.8,619.1z"/>
		</g>
		<g>
			<path d="M355.8,266.3c-4.5-4.5-4.3-29.9-7.6-29.9c-3.2,0-2.1,24.5-7.6,29.9c-5.5,5.5-22.8,3.1-22.8,6.6s17.6,1.4,22.8,6.6
				c5.3,5.3,4.3,29.9,7.6,29.9c3.2,0,2.7-25.1,7.6-29.9s22.8-3.7,22.8-6.6S360.4,270.8,355.8,266.3z"/>
		</g>
		<g>
			<path d="M396.6,231.9c-2.2-2.2-2.1-14.3-3.6-14.3c-1.5,0-1,11.7-3.6,14.3c-2.6,2.6-10.9,1.5-10.9,3.2s8.4,0.6,10.9,3.2
				c2.5,2.5,2.1,14.3,3.6,14.3c1.5,0,1.3-11.9,3.6-14.3c2.3-2.3,10.9-1.8,10.9-3.2S398.7,234.1,396.6,231.9z"/>
		</g>
		<g>
			<path d="M420.5,294c-1.1-1.1-1-7.1-1.8-7.1s-0.5,5.8-1.8,7.1c-1.3,1.3-5.4,0.7-5.4,1.6c0,0.8,4.2,0.3,5.4,1.6
				c1.3,1.3,1,7.1,1.8,7.1s0.6-6,1.8-7.1c1.2-1.2,5.4-0.9,5.4-1.6C425.9,294.9,421.6,295.1,420.5,294z"/>
		</g>
		<g>
			<path d="M387.9,653.1c-1.1-1.1-1-7.1-1.8-7.1s-0.5,5.8-1.8,7.1c-1.3,1.3-5.4,0.7-5.4,1.6c0,0.8,4.2,0.3,5.4,1.6
				c1.3,1.3,1,7.1,1.8,7.1s0.6-6,1.8-7.1s5.4-0.9,5.4-1.6S389,654.1,387.9,653.1z"/>
		</g>
		<g>
			<path d="M349.3,620.3c-2.9-2.9-2.8-19.1-4.8-19.1c-2.1,0-1.3,15.6-4.8,19.1c-3.5,3.5-14.6,2-14.6,4.2s11.2,0.9,14.6,4.2
				c3.4,3.4,2.8,19.1,4.8,19.1c2.1,0,1.7-16,4.8-19.1c3.1-3.1,14.6-2.4,14.6-4.2S352.2,623.2,349.3,620.3z"/>
		</g>
		<g>
			<path d="M121.4,575.8c-1.5-1.5-1.5-10.1-2.6-10.1c-1.1,0-0.7,8.3-2.6,10.1c-1.8,1.8-7.7,1.1-7.7,2.2c0,1.2,5.9,0.5,7.7,2.2
				s1.5,10.1,2.6,10.1s0.9-8.5,2.6-10.1c1.6-1.6,7.7-1.3,7.7-2.2C129.1,577,122.9,577.3,121.4,575.8z"/>
		</g>
		<g>
			<path d="M396.5,565.5c-2.1-2.1-2-13.9-3.5-13.9c-1.5,0-1,11.4-3.5,13.9c-2.5,2.5-10.6,1.5-10.6,3.1s8.1,0.6,10.6,3.1
				s2,13.9,3.5,13.9s1.2-11.6,3.5-13.9s10.6-1.7,10.6-3.1C407.1,567.2,398.6,567.6,396.5,565.5z"/>
		</g>
		<g>
			<path d="M120.7,290.7c-1.5-1.5-1.5-10.1-2.6-10.1c-1.1,0-0.7,8.3-2.6,10.1c-1.8,1.8-7.7,1.1-7.7,2.2s5.9,0.5,7.7,2.2
				c1.8,1.8,1.5,10.1,2.6,10.1s0.9-8.5,2.6-10.1c1.6-1.6,7.7-1.3,7.7-2.2S122.2,292.2,120.7,290.7z"/>
		</g>
		<g>
			<path class="st1" d="M202.8,573.1c-0.9-0.9-0.8-5.8-1.5-5.8c-0.6,0-0.4,4.8-1.5,5.8c-1.1,1.1-4.4,0.6-4.4,1.3
				c0,0.7,3.4,0.3,4.4,1.3c1,1,0.8,5.8,1.5,5.8c0.6,0,0.5-4.9,1.5-5.8c0.9-0.9,4.4-0.7,4.4-1.3S203.7,574,202.8,573.1z"/>
		</g>
		<g>
			<g>
				<path class="st0" d="M362.8,479.1c0.1-0.2,0.2-0.2,0.2-0.2c-0.1-0.1-0.2-0.1-0.3-0.2L362.8,479.1z"/>
			</g>
			<g>
				<path class="st0" d="M430.7,364.1c-2.1-8.8-7-16.8-14.1-22.4c-7.2-5.8-16.2-9.2-25.3-10.4c-13.4-1.8-26.9-0.6-40.3-0.1
					c-6.7,0.3-13.5,0.4-20.2-0.1c-6.8-0.5-13.5-1.7-20.1-3.2c-13.1-2.8-25.9-6.7-38.8-10.4c-11.9-3.4-23.7-6.2-36.2-6.8
					c-8.1-0.4-64.2-4.3-105.4,28.7c-15.7,12.6-29.7,34.1-34.4,53.7c-5.2,21.9-1.2,41.5,7.7,52.9c5.5,7,15,16,21.3,22.3
					c10.4,10.3,15.1,21.3,18.5,35.3c3.2,13.6,4.1,27.7,8.1,41.2c3,9.9,7,19.6,12.8,28.2c5.6,8.4,12.8,15.7,21.5,21.1
					c9.9,6.1,33.1,16.2,68.9,14.8c26.8-1,46.9-15.6,53.9-22.1c7.8-7.2,13.6-16.5,19.8-25c5.9-8.1,12-16.1,19.5-22.7
					c7-6.2,15.9-12.6,24.5-16.3c10.3-4.4,20.5-8.1,28.6-16.2c4.7-4.7,8.2-10.4,11-16.4c3.4-7.2,5.8-14.8,6.6-22.7
					c1.5-13.6-1.8-27.1-1-40.6c0.6-10.1,5.6-20.8,9-30.3c1.9-5.3,3.8-10.6,4.6-16.2C432.2,374.7,432,369.3,430.7,364.1z
					 M386.2,378.1c6.4,15.4,0,32.9-14.2,40.7c5.2-10.7,6-23.4,1.1-35.2c-4.9-11.8-14.5-20.3-25.8-24.1
					C362.9,354.9,379.8,362.7,386.2,378.1z M321.2,381.6l1.7,2.4l-1.2,0.8l-1.7-2.4L321.2,381.6z M317.5,376.2l1.7,2.4l-1.2,0.8
					l-1.7-2.4L317.5,376.2z M313.8,370.8l1.7,2.4l-1.2,0.8l-1.7-2.4L313.8,370.8z M310.1,365.4l1.7,2.4l-1.2,0.8l-1.7-2.4
					L310.1,365.4z M290,351.6l2.9,0.2l-0.1,1.5L290,353L290,351.6z M286.6,471.7c-0.4-0.1-1.8,4.8-1.8,4.7c-0.1-0.1-0.5-1.4-0.8-2.6
					l-0.6,1.8l-1.4-0.4l0.9-2.8l0.7,0.2c-0.1-0.4-0.2-0.7-0.2-0.9c0,0-4.9-0.7-5.1-0.8c0.1-0.2,2.4-2,3.4-2.5c0,0-2.7-3.3-2.8-3.5
					c0.2,0,3.3,0.8,4.3,1.2c0,0,1.7-4.1,1.9-4.3c0.1,0.2,1.2,4.6,1.2,4.6c0.8-0.4,4.3-1.6,4.4-1.6c0,0.2-2,3.2-2.8,4.1
					c0,0,3.1,3.6,3.2,3.7C290.9,472.6,288,472,286.6,471.7z M289.4,533.3l-1.7,2.4l-1.2-0.8l1.7-2.4L289.4,533.3z M282.3,479
					l-0.9,2.8l-1.4-0.4l0.9-2.8L282.3,479z M276,417.4l-0.4-2.9l1.4-0.2l0.4,2.9L276,417.4z M278,420.7l0.4,2.9l-1.4,0.2l-0.4-2.9
					L278,420.7z M275,410.9l-0.4-2.9l1.4-0.2l0.4,2.9L275,410.9z M275,497.3l1.4,0.4l-0.9,2.8l-1.4-0.4L275,497.3z M276.1,493.9
					l0.9-2.8l1.4,0.4l-0.9,2.8L276.1,493.9z M277.5,427.4l1.4-0.2l0.4,2.9l-1.4,0.2L277.5,427.4z M282,456.2l-0.4-2.9l1.4-0.2
					l0.4,2.9L282,456.2z M284,459.6l0.4,2.9l-1.4,0.2l-0.4-2.9L284,459.6z M281,449.8l-0.4-2.9l1.4-0.2l0.4,2.9L281,449.8z
					 M280,443.3l-0.4-2.9l1.4-0.2l0.4,2.9L280,443.3z M279,436.8l-0.4-2.9l1.4-0.2l0.4,2.9L279,436.8z M283.5,351.2l2.9,0.2
					l-0.1,1.5l-2.9-0.2L283.5,351.2z M277,350.7l2.9,0.2l-0.1,1.5l-2.9-0.2L277,350.7z M270.4,350.3l2.9,0.2l-0.1,1.5l-2.9-0.2
					L270.4,350.3z M263.9,349.9l2.9,0.2l-0.1,1.5l-2.9-0.2L263.9,349.9z M269.6,395c-0.7-1.4-1.9-5.2-1.9-5.5c0.4,0,6.6,3,6.6,3
					c1.2-1.1,4.9-4.3,5.3-4.5c0.1-0.1-2.1,6.7-1.5,6.9c1.8,0.6,5.7,2.3,5.8,2.4c-0.2,0.1-6.6,1.8-6.6,1.8c0.2,1.7,0.2,6.8,0.1,6.9
					c-0.1,0-1-1.2-1.9-2.5l0.1,0.6l-1.4,0.2l-0.4-2.9l0.3,0c-0.2-0.3-0.3-0.5-0.4-0.7c0,0-4.6,4.3-4.9,4.5c0-0.2,0.7-3.9,1-5.6
					l-1.3,1.2l-0.9-1.1l1.3-1.1c-1.9-0.5-4.7-1.5-4.9-1.6C263.9,396.7,269.6,395,269.6,395z M257.3,349.5l2.9,0.2l-0.1,1.5l-2.9-0.2
					L257.3,349.5z M250.8,349.1l2.9,0.2l-0.1,1.5l-2.9-0.2L250.8,349.1z M249.5,414.9l0.9,1.1l-2.2,1.9l-0.9-1.1L249.5,414.9z
					 M244.3,348.7l2.9,0.2l-0.1,1.5l-2.9-0.2L244.3,348.7z M244.5,419.1l0.9,1.1l-2.2,1.9l-0.9-1.1L244.5,419.1z M225.6,346
					c0,0-1.5-5.9-1.6-6.2c0.2,0,3.3,2.4,4.6,3.6c0.4,0.4,4.8-4.5,4.9-4.4c0.1,0.4-0.8,4.8-1.2,6.3c0,0,4.5,3.1,5.3,3.8l0.1-0.9
					l2.9,0.2l-0.1,1.5l-2.9-0.2l0-0.4c-0.7,0.2-3.9,0.9-5.2,0.9c0,0,1.2,5.4,1.2,5.7c-0.3-0.1-3.4-2.8-4.3-4c0,0-4.4,3.7-4.6,3.8
					c0-0.3,1.3-6,1.3-6c-1.2,0-5.9-0.6-6-0.7C220.1,349,224.2,346.6,225.6,346z M240.5,424.5l-2.2,1.9l-0.9-1.1l2.2-1.9L240.5,424.5
					z M236.8,437c-0.2,0-4.6-1.4-5.6-1.9c0,0-0.4,1.8-0.7,3.4l0.5-0.1l0.5,2.9l-1.4,0.3l-0.1-0.7c0,0.1,0,0.1,0,0.1
					c-0.2-0.2-2.5-5.3-2.5-5.3c-1.3,0.6-5.2,1.7-5.5,1.8c0.1-0.3,3.4-4.6,3.4-4.6c-1.2-0.7-4.2-2.9-4.4-3.1c0.3-0.2,6.5-1.2,6.5-1.2
					c0.3-1.4,1.3-5.8,1.6-6.1c0.1-0.1,2,6.1,2.5,5.9c1.7-0.5,5.4-1.3,5.6-1.2c-0.1,0.2-4,4.8-4,4.8C234.2,433,236.8,436.8,236.8,437
					z M233.4,451.3l0.5,2.9l-1.4,0.3l-0.5-2.9L233.4,451.3z M231.3,448l-0.5-2.9l1.4-0.3l0.5,2.9L231.3,448z M234.5,457.8l0.5,2.9
					l-1.4,0.3l-0.5-2.9L234.5,457.8z M227,470.8l-2.9,0.5l-0.3-1.4l2.9-0.5L227,470.8z M220.3,470.6l0.3,1.4l-2.9,0.5l-0.3-1.4
					L220.3,470.6z M135.5,422.7c-1.1,1.1-1,6.8-1.7,6.8c-0.7,0-0.5-5.6-1.7-6.8c-1.2-1.2-5.2-0.7-5.2-1.5c0-0.8,3.9-0.3,5.2-1.5
					c1.2-1.2,1-6.8,1.7-6.8c0.7,0,0.7,5.8,1.7,6.8c1,1,5.2,0.8,5.2,1.5C140.7,421.8,136.6,421.6,135.5,422.7z M166.1,409l-2.9-28.6
					l-8.2,5.5l5.5-8.2l-21.8-2.9l21.8-2.9l-5.5-8.2l8.2,5.5l2.9-28.6l2.9,28.6l8.2-5.5l-5.5,8.2l21.8,2.9l-21.8,2.9l5.5,8.2
					l-8.2-5.5L166.1,409z M186.8,482.8c-0.2-0.1-1.7-2.3-2.2-3.1c0,0-3.7,0.7-3.9,0.7c0.1-0.2,1.2-2,1.7-2.7c0,0-2.8-1.7-2.9-1.8
					c0.2-0.1,2.6-0.3,3.4-0.2c0,0,0.2-3.4,0.2-3.5c0.1,0.1,2,3,2,3c0.5-0.5,2.6-2.3,2.7-2.3c0,0.1-0.6,2.8-0.9,3.7
					c0,0,0.2,0.1,0.5,0.3l0-0.1l0.6-0.1l0.1,0.6c0.9,0.5,2,1.1,2.1,1.2c-0.1,0.1-2.4,0.5-3.4,0.5C186.6,479,186.9,482.9,186.8,482.8
					z M184.3,432.1c-1.6,1.6-1.5,10-2.5,10s-0.8-8.2-2.5-10c-1.8-1.8-7.6-1-7.6-2.2c0-1.2,5.8-0.4,7.6-2.2c1.8-1.8,1.5-10,2.5-10
					c1.1,0,1,8.5,2.5,10c1.5,1.5,7.6,1.2,7.6,2.2C191.9,430.9,185.9,430.5,184.3,432.1z M170.7,523.4c-0.3-11.2,7.9-20.7,18.7-22.3
					c-5.8,5.5-9.4,13.3-9.1,22c0.3,8.6,4.3,16.3,10.4,21.4C179.8,543.6,171,534.6,170.7,523.4z M192,477.5l-0.3-1.4l2.9-0.5l0.3,1.4
					L192,477.5z M198.4,476.2l-0.3-1.4l2.9-0.5l0.3,1.4L198.4,476.2z M204.9,475l-0.3-1.4l2.9-0.5l0.3,1.4L204.9,475z M207.8,391.7
					c-0.7,0-0.5-5.1-1.6-6.2c-1.1-1.1-4.7-0.6-4.7-1.4c0-0.7,3.6-0.2,4.7-1.4c1.1-1.1,0.9-6.2,1.6-6.2c0.7,0,0.6,5.3,1.6,6.2
					s4.7,0.8,4.7,1.4c0,0.6-3.7,0.4-4.7,1.4S208.4,391.7,207.8,391.7z M211.3,473.8l-0.3-1.4l2.9-0.5l0.3,1.4L211.3,473.8z
					 M225.1,539.4c-1.3,1.3-1.2,8.1-2,8.1s-0.6-6.7-2-8.1c-1.4-1.4-6.2-0.8-6.2-1.8c0-0.9,4.7-0.3,6.2-1.8c1.5-1.5,1.2-8.1,2-8.1
					s0.8,6.9,2,8.1c1.2,1.2,6.2,1,6.2,1.8C231.3,538.4,226.4,538.1,225.1,539.4z M233.5,469.6L233.5,469.6c-1.2,0.4-2.7,0.8-2.8,0.8
					c0,0,0.1-0.2,0.2-0.3l-0.2,0l-0.3-1.4l1.8-0.3c0.5-0.7,0.9-1.2,0.9-1.2c-0.9-0.5-3-2.1-3.1-2.2c0.2-0.1,4.6-0.9,4.6-0.9
					c0.2-1,1-4.1,1.1-4.4c0.1-0.1,1.4,4.4,1.8,4.2c1.2-0.4,3.9-0.9,4-0.9c-0.1,0.1-2.8,3.5-2.8,3.5c0.7,0.8,2.6,3.5,2.7,3.7
					c-0.1,0-3.3-1-4-1.4c0,0-0.8,4.1-0.9,4.2c-0.1-0.1-1.8-3.8-1.8-3.8C234.3,469.3,233.9,469.4,233.5,469.6L233.5,469.6z
					 M248.5,572.7c0.2,1.7,0.2,6.8,0.1,6.9c-0.1-0.1-3.2-4.2-3.8-5.3c0,0-4.6,4.3-4.9,4.5c0-0.3,1.1-6.4,1.1-6.4
					c-1.6-0.3-5.7-1.7-6-1.9c0.3-0.2,6-1.9,6-1.9c-0.7-1.4-1.9-5.2-1.9-5.5c0.4,0,6.6,3,6.6,3c1.2-1.1,4.9-4.3,5.3-4.5
					c0.1,0-1.1,3.6-1.5,5.6l0.9,1.1l-0.4,0.4c1.9,0.7,5.2,2.1,5.3,2.3C254.9,571,248.5,572.7,248.5,572.7z M253,565.9l-0.9-1.1
					l2.2-1.9l0.9,1.1L253,565.9z M253.2,413.6l-0.9-1.1l2.2-1.9l0.9,1.1L253.2,413.6z M258,561.7l-0.9-1.1l2.2-1.9l0.9,1.1
					L258,561.7z M258.2,409.3l-0.9-1.1l2.2-1.9l0.9,1.1L258.2,409.3z M263.1,557.5l-0.9-1.1l2.2-1.9l0.9,1.1L263.1,557.5z
					 M263.1,405.1l-0.9-1.1l2.2-1.9l0.9,1.1L263.1,405.1z M268.1,553.2l-0.9-1.1l2.2-1.9l0.9,1.1L268.1,553.2z M267.7,510.8
					c0.1-0.2,1.2-2,1.7-2.7c0,0-2.8-1.7-2.9-1.8c0.2-0.1,2.6-0.3,3.4-0.2c0,0,0.2-3.4,0.2-3.5c0.1,0.1,2,3,2,3
					c0.1-0.1,0.2-0.2,0.3-0.3l0.5-1.6l1,0.3c0.5-0.4,0.8-0.7,0.9-0.7c0,0.1-0.6,2.8-0.9,3.7c0,0,3.2,1.7,3.3,1.8
					c-0.1,0.1-2.4,0.5-3.4,0.5c-0.3,0,0,3.9-0.1,3.8c-0.2-0.1-1.7-2.3-2.2-3.1C271.6,510,267.9,510.8,267.7,510.8z M273.1,549
					l-0.9-1.1l2.2-1.9l0.9,1.1L273.1,549z M278.1,544.8l-0.9-1.1l2.2-1.9l0.9,1.1L278.1,544.8z M279.5,488l-1.4-0.4l0.9-2.8l1.4,0.4
					L279.5,488z M290.6,541.7c-0.1,0-2.9-0.9-3.6-1.2c0,0-0.7,3.6-0.8,3.7c-0.1-0.1-1.6-3.4-1.6-3.4c-0.8,0.4-3.3,1.1-3.5,1.1
					c0-0.1,0.9-1.2,1.5-2l-0.4-0.5l0.7-0.6c-0.9-0.6-2.3-1.6-2.4-1.7c0.2-0.1,4.1-0.8,4.1-0.8c0.2-0.9,0.8-3.6,1-3.9
					c0-0.1,1.3,3.8,1.6,3.7c1-0.3,3.4-0.8,3.5-0.8c-0.1,0.1-2.5,3.1-2.5,3.1C288.9,539.2,290.5,541.6,290.6,541.7z M291.5,530.4
					l-1.2-0.8l1.7-2.4l1.2,0.8L291.5,530.4z M295.2,525l-1.2-0.8l1.7-2.4l1.2,0.8L295.2,525z M299,519.6l-1.2-0.8l1.7-2.4l1.2,0.8
					L299,519.6z M302.8,514.3l-1.2-0.8l1.7-2.4l1.2,0.8L302.8,514.3z M301.6,353.8c-0.1,0,0,0.7,0.1,1.4l0.9-0.6l1.7,2.4l-1.2,0.8
					l-1.1-1.6c0.2,0.7,0.3,1.4,0.3,1.4c-0.2-0.1-2.1-1.9-2.7-2.6c0,0-3.5,1.4-3.7,1.4c0-0.2,0.8-2.2,1.2-2.9l-0.5,0l0-0.2
					c-0.9-0.3-2.5-0.9-2.7-1c0.1-0.1,2.5-0.8,3.3-0.9c0,0-0.5-3.4-0.4-3.5c0.1,0.1,2.5,2.6,2.5,2.6c0.4-0.6,2.2-2.7,2.2-2.8
					c0.1,0.1-0.1,2.9-0.2,3.8c0,0,3.4,1.1,3.6,1.2C304.8,352.7,302.6,353.5,301.6,353.8z M306.3,360l1.7,2.4l-1.2,0.8l-1.7-2.4
					L306.3,360z M306.6,508.9l-1.2-0.8l1.7-2.4l1.2,0.8L306.6,508.9z M307.3,458.8c0-0.6,2.9-0.2,3.8-1.1c0.9-0.9,0.7-5,1.3-5
					c0.5,0,0.5,4.2,1.3,5c0.8,0.8,3.8,0.6,3.8,1.1c0,0.5-3,0.3-3.8,1.1c-0.8,0.8-0.7,5-1.3,5c-0.5,0-0.4-4.1-1.3-5
					C310.2,459.1,307.3,459.4,307.3,458.8z M310.4,503.6l-1.2-0.8l1.7-2.4l1.2,0.8L310.4,503.6z M323.3,496.4c-0.1,0-3.3-1-4-1.4
					c0,0-0.8,4.1-0.9,4.2c-0.1-0.1-1.8-3.8-1.8-3.8c-0.2,0.1-0.5,0.2-0.8,0.3l0.1,0.1l-1.7,2.4l-1.2-0.8l0.7-1
					c-0.6,0.2-1,0.3-1.1,0.3c0.1-0.2,2.5-3.3,2.5-3.3c-0.9-0.5-3-2.1-3.1-2.2c0.2-0.1,4.6-0.9,4.6-0.9c0.2-1,1-4.1,1.1-4.4
					c0.1-0.1,1.4,4.4,1.8,4.2c0.9-0.3,2.6-0.6,3.4-0.8l-0.1-0.2l2.8-0.8l0.4,1.4l-2.8,0.8l-0.2-0.7c-0.8,1-2.4,2.9-2.4,2.9
					C321.3,493.5,323.2,496.2,323.3,496.4z M327.7,391.6c-0.4,0-0.8,5-0.9,5c-0.2-0.2-1.8-3.4-2.2-4.4c0,0-4.9,0.2-5.2,0.1
					c0.1-0.2,2-2.4,2.8-3.1c0,0-3.3-2.7-3.4-2.9c0.2,0,3.4,0.1,4.5,0.4c0,0,0.9-4.4,1-4.5c0.1,0.2,2,4.3,2,4.3
					c0.7-0.6,3.9-2.4,4-2.4c0,0.2-1.4,3.5-2,4.6c0,0,3.8,2.9,3.9,3C332,391.7,329,391.8,327.7,391.6z M329.5,488.7l-0.4-1.4l2.8-0.8
					l0.4,1.4L329.5,488.7z M335.8,487l-0.4-1.4l2.8-0.8l0.4,1.4L335.8,487z M342.1,485.2l-0.4-1.4l2.8-0.8l0.4,1.4L342.1,485.2z
					 M343.5,429c-1.6,1.6-1.5,10-2.5,10c-1.1,0-0.8-8.2-2.5-10c-1.8-1.8-7.6-1-7.6-2.2s5.8-0.4,7.6-2.2s1.5-10,2.5-10
					c1.1,0,1,8.5,2.5,10c1.5,1.5,7.6,1.2,7.6,2.2C351.2,427.8,345.2,427.4,343.5,429z M348.5,483.4l-0.4-1.4l2.8-0.8l0.4,1.4
					L348.5,483.4z M354.8,481.7l-0.4-1.4l2.8-0.8l0.4,1.4L354.8,481.7z M374.5,483.1c-0.2,0-4.6-1.4-5.6-1.9c0,0-1.2,5.7-1.3,5.9
					c-0.2-0.2-2.5-5.3-2.5-5.3c-1.3,0.6-5.2,1.7-5.5,1.8c0.1-0.2,2-2.8,2.9-4l-1.4,0.4l-0.4-1.4l1.2-0.3c-1.4-0.9-3.1-2.2-3.2-2.4
					c0.3-0.2,6.5-1.2,6.5-1.2c0.3-1.4,1.3-5.8,1.6-6.1c0.1-0.1,2,6.1,2.5,5.9c1.7-0.5,5.4-1.3,5.6-1.2c-0.1,0.2-4,4.8-4,4.8
					C371.8,479.1,374.5,482.9,374.5,483.1z M383.9,448.2c-1.3,1.3-1.2,8-2,8c-0.9,0-0.6-6.6-2-8c-1.4-1.4-6.1-0.8-6.1-1.8
					c0-0.9,4.7-0.3,6.1-1.8c1.5-1.5,1.2-8,2-8s0.8,6.8,2,8c1.2,1.2,6.1,1,6.1,1.8C390,447.2,385.2,446.9,383.9,448.2z M412.8,372
					c-0.9,0.9-0.8,5.6-1.4,5.6c-0.6,0-0.4-4.6-1.4-5.6c-1-1-4.2-0.6-4.2-1.2s3.2-0.2,4.2-1.2c1-1,0.8-5.6,1.4-5.6
					c0.6,0,0.6,4.7,1.4,5.6c0.8,0.8,4.2,0.7,4.2,1.2S413.7,371.1,412.8,372z"/>
			</g>
		</g>
	</g>
</g>
</svg>
