<?xml version="1.0" encoding="utf-8"?>
<!-- Generator: Adobe Illustrator 21.1.0, SVG Export Plug-In . SVG Version: 6.00 Build 0)  -->
<svg version="1.1" xmlns="http://www.w3.org/2000/svg" xmlns:xlink="http://www.w3.org/1999/xlink" x="0px" y="0px"
	 viewBox="0 0 504 864" style="enable-background:new 0 0 504 864;" xml:space="preserve">
<g id="Слой_1">
</g>
<g id="Слой_2">
	<g>
		<path d="M503.8,18.2c-1.6-17.9-18.7-16.3-31.6-16.3c-45.9,0-91.8,0-137.6,0c-63.2,0-126.3,0-189.5,0c-40.6,0-81.2,0-121.8,0
			c-2.6,0-5.3-0.2-8,0.2c-9.5,1.2-15,9.2-15.2,18.2c-0.2,7.3,0,14.5,0,21.8c0,37.4,0,74.9,0,112.3c0,57,0,114.1,0,171.1
			c0,64.3,0,128.6,0,192.9c0,58.4,0,116.7,0,175.1c0,40.1,0,80.2,0,120.3c0,9.1,0,18.2,0,27.3c0,11.7,6.7,20.5,19.2,20.7
			c35.9,0.6,71.9,0,107.9,0c62.4,0,124.9,0,187.3,0c49.7,0,99.5,0,149.2,0c7.6,0,15.2,0,22.9,0c0.4,0,0.8-0.1,1.2-0.2
			c14.4-1.8,16.1-13.8,16.1-25.5c0-11.4,0-22.8,0-34.3c0-43.4,0-86.9,0-130.3c0-59.9,0-119.8,0-179.8c0-63.9,0-127.7,0-191.6
			c0-55.3,0-110.6,0-165.9c0-33.7,0-67.3,0-101C503.9,28.3,504.2,23.2,503.8,18.2z M486.6,852.8c-28.3,0-56.6,0-84.9,0
			c-59.9,0-119.8,0-179.7,0c-54,0-108,0-162,0c-13.1,0-26.1,0-39.2,0c-5.6,0-11-1.3-11.7-8.3c-0.2-1.5,0-3,0-4.5c0-26.5,0-53,0-79.5
			c0-50,0-100,0-149.9c0-61.8,0-123.6,0-185.4c0-61.4,0-122.7,0-184.1c0-48.9,0-97.7,0-146.6c0-24.2-0.8-48.6,0-72.7
			c0.2-5.3,1.6-10.1,8.3-10.8c2.2-0.2,4.5,0,6.7,0c14.8,0,29.6,0,44.5,0c55.6,0,111.3,0,166.9,0c58.9,0,117.8,0,176.7,0
			c18.9,0,37.9,0,56.8,0c8.1,0,24.7-3.1,25.9,8.4c0.5,5.2,0,10.8,0,16.1c0,13.5,0,27.1,0,40.6c0,45.5,0,91.1,0,136.6
			c0,60.1,0,120.2,0,180.3c0,62.6,0,125.1,0,187.7c0,52.8,0,105.6,0,158.4c0,31.4,0,62.7,0,94.1C494.8,840.3,496.9,852,486.6,852.8z
			"/>
		<path d="M460,790.9c1.2,0.1,2.4-0.7,2.4-2.2c0-23.7,0-47.4,0-71.1c0-56.4,0-112.8,0-169.2c0-68.7,0-137.4,0-206
			c0-59,0-117.9,0-176.9c0-19.6,0-39.2,0-58.8c0-8.9,1.3-19,0-27.9c-0.1-0.4,0-0.8,0-1.2c0-0.8-0.3-1.3-0.8-1.7
			c0.1-1.2-0.6-2.5-2.2-2.6c-13.1-0.5-25.3-13.8-25.8-26.7c0-0.5-0.2-0.8-0.4-1.1c-0.3-0.6-1-1.1-1.9-1.1c-40.5,0-80.9,0-121.4,0
			c-64.5,0-129,0-193.6,0c-14.9,0-29.7,0-44.6,0c-0.9,0-1.6,0.5-1.9,1.1c-0.2,0.3-0.3,0.7-0.4,1.2C69.1,59.5,57,72.8,43.9,73.3
			c-1.8,0.1-2.5,1.9-2,3.2c-0.2,0.3-0.2,0.6-0.2,1c0,23.7,0,47.4,0,71.1c0,56.4,0,112.8,0,169.2c0,68.7,0,137.4,0,206
			c0,59,0,117.9,0,176.9c0,19.6,0,39.2,0,58.8c0,8.9-1.3,19,0,27.9c0.1,0.4,0,0.8,0,1.2c0,0.9,0.5,1.6,1.1,1.9
			c0.3,0.2,0.7,0.3,1.2,0.4c13,0.5,25.3,13.3,25.8,26.2c0,0.5,0.2,0.8,0.4,1.1c0.3,0.6,1,1.1,1.9,1.1c40.5,0,80.9,0,121.4,0
			c64.5,0,129,0,193.6,0c14.9,0,29.7,0,44.6,0c0.9,0,1.6-0.5,1.9-1.1c0.2-0.3,0.3-0.7,0.4-1.2c0.5-12.9,12.7-25.7,25.8-26.2
			C459.6,791,459.8,790.9,460,790.9z M429.3,814.9c-39.8,0-79.6,0-119.3,0c-64.5,0-129,0-193.6,0c-14.2,0-28.3,0-42.5,0
			c-1.7-13.9-13.9-26.5-27.8-28.3c0-23,0-46,0-69.1c0-56.4,0-112.8,0-169.2c0-68.7,0-137.4,0-206c0-59,0-117.9,0-176.9
			c0-19.6,0-39.2,0-58.8c0-8.9,1.3-19,0-27.9c-0.1-0.4,0-0.8,0-1.2c14-1.8,26.1-14.9,27.8-28.7c39.8,0,79.5,0,119.3,0
			c64.5,0,129,0,193.6,0c14.2,0,28.3,0,42.5,0c1.7,14.1,14.3,27.4,28.5,28.8c0,23.7,0,47.3,0,71c0,56.4,0,112.8,0,169.2
			c0,68.7,0,137.4,0,206c0,59,0,117.9,0,176.9c0,19.6,0,39.2,0,58.8c0,8.6-1.2,18.4-0.1,27C443.6,788.1,431.1,800.9,429.3,814.9z"/>
		<path d="M233.5,102.7c0.3,0,0.6,0.1,0.9,0.4c0.3,0.3,0.5,0.4,0.6,0.2c0.1-0.2,1.5-0.4,4-0.4c2.1,0,3.2,0.1,3.2,0.3
			c0,0.2,0.2,0.3,0.5,0.3c0.4,0,0.6-0.1,0.6-0.2c0-0.1,0.2-0.3,0.6-0.5c0.4-0.2,0.6-0.4,0.6-0.6c0-0.9-0.7-1.4-1.9-1.5l-1.3-0.1
			l0.1-6.7c0.1-4.5,0.2-6.8,0.3-7c0.1-0.1,0.2-0.8,0.3-1.9c0.1-2.1,0.3-3.2,0.7-3.2c0.2,0,0.4-0.1,0.4-0.3c0-0.2,0.2-0.3,0.7-0.3
			c0.4,0,0.8-0.1,1-0.3s0.4-0.5,0.4-0.7c0-0.3-0.2-0.6-0.5-0.8c-0.3-0.2-1.4-0.3-3.4-0.3c-2,0-2.9,0.1-2.9,0.3
			c0,0.1-0.3,0.2-0.9,0.2c-0.6,0-0.9,0.1-0.9,0.4s-0.1,0.4-0.3,0.4c-0.2,0-0.3,0.2-0.3,0.6c0,0.5,0.1,0.8,0.4,0.9
			c0.3,0.1,0.4,0.9,0.4,2.5c0,1.6,0.1,2.4,0.3,2.5c0.2,0.1,0.3,0.8,0.3,2.2c0,1.3-0.1,2-0.3,2.1c-0.2,0.1-0.4,1.5-0.4,4.3
			c-0.1,2.4-0.2,3.9-0.4,4.3c-0.2,0.5-0.8,0.8-1.8,0.9c-0.6,0-0.9,0.1-1,0.2c-0.1,0.1-0.2,0.4-0.2,0.8
			C233.1,102.4,233.2,102.7,233.5,102.7z M239.6,88c0.3,0,0.4,0.2,0.4,0.6c0,0.4-0.1,0.5-0.4,0.5c-0.3,0-0.4-0.2-0.4-0.5
			C239.2,88.2,239.3,88,239.6,88z M237.9,96c0.2,0,0.4,0.1,0.4,0.3c0,0.2-0.1,0.3-0.4,0.3c-0.3,0-0.4-0.1-0.4-0.3
			C237.5,96.1,237.7,96,237.9,96z"/>
		<path d="M248.4,80.3c0.2,0,0.3,0.1,0.3,0.4c0,0.2,0.3,0.4,1,0.5c0.6,0.1,1.1,0.4,1.5,0.9c0.4,0.5,0.7,1.1,0.7,1.6
			c0,0.5,0.1,1,0.3,1.6c0.2,0.6,0.4,0.9,0.5,0.9c0.1,0,0.2,0.3,0.2,0.8c0,0.6,0.2,1.1,0.5,1.4c0.3,0.3,0.5,0.9,0.8,1.8
			c0.2,0.9,0.3,1.7,0.3,2.5c0,0.9,0.1,1.4,0.4,1.4c0.1,0.1,0.2,0.3,0.2,0.7c0,0.4,0.1,0.6,0.2,0.6c0.2,0.1,0.3,0.6,0.3,1.6
			c0,0.9,0.1,1.4,0.4,1.4c0.2,0,0.4,0.3,0.6,1c0.2,0.7,0.4,1,0.5,1c0.2,0,0.3,0.3,0.4,0.8c0.1,0.7,0.5,1,1.3,1c0.1,0,0.4,0,0.6-0.1
			c0.5-0.1,0.7-0.4,0.7-1.1c0-0.6,0.1-0.9,0.3-0.9c0.2,0,0.3-0.3,0.3-0.9c0-0.6,0.1-0.9,0.3-0.9c0.2-0.1,0.3-0.6,0.3-1.5
			c0-0.9,0.2-1.6,0.6-1.9c0.5-0.5,0.8-0.7,1.1-0.8c0.3-0.1,0.4-0.5,0.4-1.3c0-0.8,0.1-1.2,0.4-1.4c0.2-0.1,0.4-0.6,0.6-1.5
			c0.2-0.9,0.3-1.4,0.4-1.5c0.3-0.2,0.4-0.5,0.4-0.9c0-0.4,0.2-0.6,0.7-0.7c0.4,0,0.6-0.3,0.6-0.7c0-0.2-0.1-0.6-0.1-1
			c0-1,0.2-1.5,0.6-1.5c0.4,0,0.5-0.3,0.5-0.8c0-0.5,0.2-0.9,0.6-1.4c0.4-0.4,0.9-0.7,1.6-0.8c0.8-0.2,1.2-0.6,1.2-1.4
			c0-0.1,0-0.4-0.1-0.7l-0.1-0.6H267c-2.5,0-3.7,0.1-3.7,0.3c0,0.2-0.1,0.3-0.3,0.3c-0.3,0-0.6,0.2-0.9,0.6
			c-0.4,0.5-0.4,0.7-0.2,0.7c0.3,0,0.5,0.1,0.5,0.4c0.1,0.3,0.5,0.4,1.1,0.4c0.6,0,1,0.2,1.1,0.7c0.1,0.5,0.1,0.7-0.1,0.8
			c-0.2,0.1-0.3,0.5-0.3,1.3c0,0.7-0.1,1.2-0.4,1.3c-0.2,0.1-0.3,0.3-0.3,0.7c0,0.1,0.1,0.2,0.1,0.4c0,0.5-0.1,0.9-0.3,1.4
			c-0.2,0.5-0.4,0.8-0.7,0.8c-0.4,0.1-0.5,0.4-0.5,0.9c0,0.5-0.1,0.9-0.3,1.1c-0.2,0.2-0.4,0.8-0.4,1.7c-0.1,1-0.3,1.5-0.6,1.5
			c-0.4,0-0.5,0.2-0.4,0.5c0,0.2,0,0.4,0,0.4c-0.1,0.1-0.2,0.1-0.4,0.1c-0.4,0-0.7-0.1-0.9-0.2c-0.5-0.3-0.7-1.2-0.8-2.9
			c0-0.7-0.1-1.2-0.4-1.4c-0.2-0.2-0.3-0.7-0.3-1.6c0-1.3-0.3-2.2-0.9-2.6c-0.2-0.1-0.2-0.3,0.1-0.4c0.1,0,0.2-0.2,0.3-0.4
			c0.1-0.2,0.1-0.5,0.1-0.7c0-0.2-0.1-0.3-0.2-0.3c-0.1,0-0.3-0.3-0.4-0.8c-0.1-0.6-0.4-0.9-0.7-0.9c-0.3-0.1-0.4-0.2-0.4-0.3
			c0-0.4,0.5-0.5,1.4-0.5c1.3,0,1.9-0.2,1.9-0.7c0-0.2,0.1-0.4,0.3-0.4c0.2,0,0.1-0.3-0.3-0.8c-0.4-0.5-0.9-0.8-1.6-0.8
			s-1.1-0.1-1.2-0.3c-0.1-0.1-0.3-0.1-0.7,0.1c-0.4,0.2-0.6,0.2-0.7-0.1c-0.2-0.2-0.3-0.3-0.4-0.1c-0.1,0.2-0.5,0.3-1.1,0.3
			c-0.4,0-0.6,0-0.8-0.1c-0.1-0.1-0.2-0.3-0.3-0.7c-0.1-0.5-0.3-0.8-0.7-0.8c-0.2,0-0.5,0.2-0.8,0.5c-0.4,0.4-0.7,0.5-1.2,0.5
			c-0.4,0-0.6,0.1-0.6,0.4c0,0.3-0.1,0.4-0.3,0.4c-0.2,0-0.3,0.2-0.3,0.6C248.1,80.1,248.2,80.3,248.4,80.3z"/>
		<path d="M138.8,783.9c0-0.3-0.1-0.5-0.2-0.6c-0.1-0.1-0.1-0.2,0-0.4c0.1-0.1,0.1-0.2,0.1-0.2c0-0.1-0.1-0.2-0.2-0.2
			c-0.1-0.1-0.2-0.2-0.2-0.3c0-0.2-0.1-0.3-0.3-0.5c-0.2-0.2-0.4-0.3-0.5-0.3c-0.1,0-0.2,0-0.2,0.1c0,0.1-0.3,0.1-0.9,0.2
			c-0.5,0.1-1.1,0.1-1.7,0.1c-0.6,0-0.9,0-1,0.1c-0.1,0-0.5,0.1-1.4,0.1c-0.9,0.1-1.8,0.2-2.7,0.3c-0.9,0.1-1.4,0.2-1.4,0.2
			c0,0,0,0.1,0,0.2c0,0.1,0,0.2,0.1,0.3c0.1,0.2,0.1,0.3,0.2,0.4c0.1,0,0.3,0.1,0.6,0.1c0.5,0,0.9,0.1,1,0.3
			c0.1,0.2,0.2,0.7,0.2,1.6c0,0.9-0.1,1.4-0.2,1.5c-0.1,0.1-0.1,0.2,0,0.4c0.1,0.3,0.2,0.5,0,0.7c-0.1,0.2-0.2,0.3-0.3,0.3
			c-0.1,0,0,0.1,0.1,0.2c0.1,0.1,0.1,0.3,0.1,0.6c0,0.1,0,0.4-0.1,0.8c-0.1,1.4-0.2,2.3-0.2,2.6c-0.1,0.4-0.1,0.5-0.3,0.6
			c-0.2,0.1-0.5,0.3-0.8,0.6l-0.5,0.6h5v-0.5c0-0.2,0-0.4-0.1-0.4c0-0.1-0.1-0.1-0.3-0.1c-0.2,0-0.4,0-0.4-0.1
			c0-0.1-0.1-0.1-0.2-0.1s-0.2-0.1-0.3-0.3c0-0.1,0-0.4,0-1.2c0-1.2,0-2.1,0.1-2.8c0-0.1,0.5-0.1,1.4-0.1c0.8,0,1.3,0.1,1.5,0.2
			c0.3,0.1,0.4,0.4,0.4,0.9c0,0.3,0,0.5,0.1,0.5c0.1,0,0.1-0.1,0.3-0.2c0.1-0.1,0.3-0.2,0.5-0.1c0.2,0.1,0.3,0,0.3-0.2
			c0-0.2,0-0.3,0.1-0.4c0.1-0.1,0.1-0.2,0-0.2c-0.1-0.1-0.2-0.3-0.2-0.6c0-0.4,0.1-0.7,0.2-0.8c0.1-0.1,0.1-0.1,0.1-0.2
			c0-0.1,0-0.1-0.1-0.2c-0.1-0.1-0.1-0.2-0.1-0.2c0-0.1,0-0.1,0.1-0.2c0.2-0.1,0.2-0.2,0.2-0.4c0-0.3-0.4-0.4-1.1-0.4
			c-0.4,0-0.6,0.2-0.6,0.5c0,0.1,0,0.2,0.1,0.3c0.1,0.2,0,0.4,0,0.5c-0.1,0.1-0.4,0.2-1,0.3c-0.6,0.1-1.1,0.2-1.6,0.2H132v-0.6
			c0-0.4,0.1-0.6,0.2-0.7c0.1-0.1,0.2-0.2,0.2-0.4c0-0.3-0.1-0.5-0.2-0.8c-0.1-0.2-0.2-0.4-0.2-0.4c0-0.1,0.1-0.1,0.2-0.3
			c0.2-0.2,0.3-0.4,0.2-0.6c0-0.1,0-0.1,0-0.2c0-0.1,0.1-0.2,0.4-0.3c0.3-0.1,0.8-0.1,1.6-0.1c0.7,0,1.1-0.1,1.1-0.1
			c0.3,0,0.5,0.1,0.7,0.2c0.2,0.2,0.3,0.3,0.5,0.4c0.2,0.1,0.3,0.2,0.3,0.3c0,0.1,0.1,0.3,0.3,0.4c0.2,0.1,0.4,0.3,0.5,0.6
			c0.1,0.4,0.4,0.5,0.8,0.5c0.1,0,0.2,0,0.3-0.1c0.1-0.1,0.2-0.2,0.2-0.6c0-0.3-0.1-0.5-0.2-0.5
			C138.9,784.4,138.8,784.2,138.8,783.9z"/>
		<path d="M158.4,785.7c-0.2-0.1-0.2-0.2-0.2-0.5c0-0.3,0-0.5-0.1-0.5c-0.1,0-0.1-0.1-0.1-0.4c0-0.3-0.1-0.4-0.2-0.4
			c-0.1,0-0.2-0.1-0.3-0.3c-0.1-0.2-0.2-0.3-0.3-0.4c-0.1-0.1-0.2-0.2-0.2-0.4c0-0.2-0.1-0.3-0.4-0.3c-0.7,0-1-0.1-1-0.4
			c0-0.1-0.1-0.2-0.2-0.2c-0.1,0-0.2,0-0.2-0.1s-0.1-0.1-0.3-0.1c-0.2,0-0.3-0.1-0.4-0.2c0-0.1-0.5-0.2-1.5-0.2
			c-0.9,0-1.5,0.1-1.6,0.2c-0.1,0.1-0.2,0.2-0.4,0.2c-0.2,0-0.3,0.1-0.4,0.3c-0.1,0.2-0.3,0.4-0.6,0.4c-0.3,0-0.6,0.1-1.1,0.2
			c-0.5,0.1-0.7,0.3-0.8,0.5c0,0.2-0.2,0.4-0.5,0.7s-0.4,0.5-0.4,0.5c0,0.1-0.1,0.1-0.2,0.1c-0.1,0-0.2,0.1-0.3,0.4
			c-0.1,0.2-0.2,0.5-0.3,0.7c-0.2,0.3-0.2,0.8-0.2,1.8c0,1.2,0.1,2.1,0.4,2.9c0.5,1.4,0.9,2.2,1.2,2.3c0.2,0,0.3,0.1,0.3,0.3
			c0,0.2,0.2,0.2,0.4,0.2c0.2,0,0.4,0,0.4,0.1c0,0.1,0.1,0.1,0.3,0.1s0.3,0.1,0.3,0.4c0,0.2,0,0.3,0.1,0.4c0.1,0.1,0.2,0,0.4-0.1
			c0.1-0.1,0.2-0.1,0.3,0c0.2,0.1,0.9,0.2,2.2,0.2c1.1,0,1.7-0.1,1.7-0.2c0-0.1,0.3-0.2,0.7-0.2c0.4,0,0.6-0.1,0.6-0.2
			c0-0.2,0.1-0.3,0.2-0.3c0,0,0.2-0.1,0.4-0.3c0.3-0.2,0.4-0.3,0.5-0.3c0.1,0,0.2-0.1,0.2-0.3c0.1-0.2,0.2-0.3,0.3-0.3
			c0.1,0,0.2-0.1,0.3-0.3c0-0.2,0.2-0.3,0.4-0.3c0.2-0.1,0.3-0.1,0.3-0.2c0-0.1,0.1-0.1,0.2-0.1c0.1,0,0.2-0.2,0.2-0.6
			c0-0.3,0-0.5-0.1-0.5c-0.1,0-0.1-0.1,0-0.2c0.1-0.1,0.2-0.8,0.2-2.1c0-0.3,0-0.7,0-1.1C158.6,786,158.6,785.7,158.4,785.7z
			 M156.2,788.8c-0.1,0-0.2,0.2-0.2,0.4c0,0.3-0.1,0.4-0.2,0.5c-0.1,0.1-0.2,0.4-0.3,0.8c-0.1,0.4-0.1,0.6-0.3,0.6
			c-0.1,0-0.2,0-0.2,0.1c0,0.1-0.1,0.2-0.4,0.2c-0.3,0.1-0.4,0.2-0.4,0.3c0,0.1,0,0.2-0.1,0.2c-0.1,0.1-0.2,0.1-0.4,0.2
			c-0.1,0.1-0.2,0.1-0.3,0.1c0,0.1-0.2,0.1-0.4,0.1c-0.2,0-0.3,0.1-0.5,0.2c-0.1,0.1-0.2,0.1-0.4,0.1c-0.2,0-0.4,0-0.7-0.1
			c-0.5-0.1-1-0.3-1.3-0.6c-0.3-0.3-0.7-0.8-1-1.5c-0.3-0.5-0.4-0.9-0.5-1.1c0-0.2-0.1-0.7-0.1-1.4c0-0.7,0-1.1,0.1-1.4
			c0-0.2,0.1-0.5,0.3-0.8c0.3-0.5,0.6-0.9,1-1.3c0.4-0.4,0.8-0.6,1-0.7c0.3,0,0.5-0.1,0.5-0.3c0-0.1,0.1-0.2,0.2-0.2
			c0.1,0,0.2,0,0.2-0.1c0-0.1,0.1-0.1,0.3-0.1c0.2,0,0.3,0,0.3,0.1c0,0.1,0.3,0.1,0.9,0.1c0.5,0,0.8,0.1,0.8,0.2
			c0,0.1,0.1,0.2,0.3,0.3c0.2,0.1,0.3,0.2,0.3,0.3c0,0.1,0.1,0.2,0.3,0.3c0.3,0.1,0.5,0.4,0.5,0.8c0,0.2,0.1,0.5,0.3,0.8
			c0.2,0.3,0.3,0.7,0.3,1.1c0,0.5,0,0.7,0.1,0.8c0.1,0.1,0.1,0.2,0.1,0.4C156.4,788.6,156.3,788.7,156.2,788.8z"/>
		<path d="M177.2,781.9h-0.2c-0.4,0-0.8-0.1-1.1-0.3c-0.3-0.2-0.4-0.2-0.4,0c0,0.1-0.1,0.2-0.2,0.2c-0.1,0-0.4,0-0.8,0.1
			c-0.7,0-1,0-1.1,0.1c-0.1,0.1-0.1,0.3-0.1,0.7l0,0.6c0.2,0,0.5,0,0.8,0.1c0.4,0,0.7,0.1,0.8,0.1v2.4c0,1.6,0.1,2.4,0.2,2.5
			c0,0,0.1,0,0.1,0.1c0,0,0,0.1,0,0.1c0,0-0.1,0.1-0.1,0.1c-0.1,0.2-0.2,0.4-0.2,0.5v0.2c0,0.3,0,0.6-0.1,0.9
			c-0.1,0.3-0.2,0.5-0.3,0.6c-0.1,0.1-0.2,0.1-0.2,0.3c0,0.1-0.1,0.3-0.3,0.5c-0.2,0.2-0.4,0.2-0.6,0.2c-0.3,0-0.4,0.1-0.6,0.2
			c-0.1,0.1-0.2,0.2-0.5,0.2c0,0-0.2,0-0.5-0.1c-0.5-0.1-0.7-0.2-0.8-0.2c0-0.1-0.2-0.1-0.4-0.1c-0.2,0-0.5-0.1-0.8-0.2
			c-0.2-0.1-0.3-0.2-0.4-0.2c0-0.1-0.1-0.2-0.1-0.5v-0.4v-0.2c0-0.4-0.1-0.7-0.2-0.8c-0.1,0-0.2-0.1-0.2-0.3c0-0.2,0.1-0.3,0.2-0.4
			c0.1-0.1,0.1-0.1,0-0.2c-0.1,0-0.1-0.1-0.2-0.2c0-0.1,0-0.2,0-0.3s0.1-0.1,0.1-0.1c0.1,0,0.1-0.3,0.1-0.9c0-1-0.1-1.5-0.2-1.6
			c-0.1-0.1-0.1-0.2,0-0.3c0.1-0.1,0.2-0.4,0.2-0.9c0-0.1,0-0.2-0.1-0.3c0-0.1-0.1-0.2-0.1-0.3l0-0.1c0,0,0.1,0,0.3-0.1
			c0.2,0,0.4,0,0.6-0.1c0.2,0,0.5,0,0.6,0c0.1,0,0.1,0,0.2,0c0.1,0,0.1,0,0.1,0h0c0.1,0,0.1-0.1,0.1-0.2c0-0.1,0-0.4-0.1-0.6
			c0-0.2-0.1-0.4-0.3-0.5c-0.2-0.1-0.5-0.1-1-0.1c-0.2,0-0.7,0-1.6,0.1c-1.4,0.1-2.2,0.2-2.4,0.4c-0.2,0.2-0.3,0.4-0.3,0.6
			c0,0.4,0.4,0.6,1.1,0.7c0.5,0.1,0.8,0.2,0.8,0.4c0,0.1-0.1,0.2-0.2,0.3c-0.1,0.1-0.2,0.2-0.2,0.3c0,0.1,0,0.2,0.1,0.5
			c0.1,0.4,0.1,0.6,0,0.7c-0.1,0.1-0.2,0.1-0.3,0.1c-0.1,0-0.1,0.1-0.1,0.1c0,0.2,0.1,0.4,0.4,0.5c0.3,0.1,0.4,0.2,0.4,0.4
			c0,0.1-0.1,0.2-0.2,0.3c-0.2,0.1-0.2,0.4-0.2,1v0.4c0,0.8,0.1,1.3,0.2,1.4c0.1,0.1,0.1,0.3,0.1,0.5c0,0.2,0,0.3-0.1,0.3
			c-0.1,0-0.1,0.1-0.2,0.4c-0.1,0.3,0,0.4,0.2,0.5c0.2,0.1,0.3,0.3,0.5,0.7c0.1,0.3,0.2,0.5,0.3,0.5c0.1,0,0.1,0.1,0.2,0.4
			c0.1,0.3,0.2,0.4,0.4,0.4c0.2,0,0.4,0.1,0.5,0.2c0.1,0.1,1,0.2,2.7,0.2c1.4,0,2-0.1,2-0.2c0-0.1,0-0.2,0.1-0.2
			c0.1,0,0.2-0.1,0.3-0.2c0.1-0.2,0.2-0.2,0.4-0.2c0.2,0,0.3-0.1,0.3-0.3c0-0.2,0.2-0.3,0.5-0.3h0.2h0.1c0.3,0,0.5,0,0.5-0.1
			c0,0-0.1-0.1-0.2-0.2c-0.1-0.1-0.2-0.1-0.2-0.3c0-0.1,0.1-0.3,0.2-0.5c0.1-0.2,0.2-0.4,0.2-0.5c0,0,0-0.1-0.1-0.1
			c-0.1,0-0.2-0.1-0.2-0.3s0.1-0.2,0.2-0.3c0.1,0,0.2-0.2,0.2-0.4c0-0.3,0.1-0.6,0.1-1s0-0.6,0-0.7c0.1-0.4,0.1-1.1,0.1-2.2
			c0-1,0.1-1.5,0.2-1.6c0.1-0.1,0.2-0.2,0-0.2c-0.1-0.1-0.2-0.1-0.2-0.2c0-0.1,0.1-0.3,0.3-0.4c0.2-0.1,0.4-0.2,0.6-0.2
			c0.1,0,0.2,0,0.2,0c0,0,0.1,0,0.2,0c0.3,0,0.4-0.1,0.4-0.4c0-0.1,0-0.1-0.1-0.2c-0.1-0.1-0.1-0.2,0-0.2c0.1,0,0.2-0.1,0.2-0.2
			C178.4,782,178,781.9,177.2,781.9z"/>
		<path d="M191.8,780.4C191.9,780.3,191.9,780.3,191.8,780.4c0.1-0.1,0-0.1-0.2-0.1c-0.2,0-0.3,0.1-0.3,0.2
			C191.4,780.5,191.5,780.5,191.8,780.4C191.7,780.4,191.8,780.4,191.8,780.4z"/>
		<path d="M187.4,779.4c0-0.1-0.1-0.1-0.3-0.1c-0.2,0-0.3,0-0.3,0.1c0,0.1,0.1,0.2,0.3,0.2C187.3,779.5,187.4,779.5,187.4,779.4z"/>
		<path d="M198.7,792.7c-0.1,0-0.2-0.1-0.3-0.4c-0.1-0.2-0.3-0.4-0.5-0.4c-0.2,0-0.4-0.1-0.6-0.2c-0.2-0.1-0.4-0.2-0.4-0.4
			c-0.1-0.1-0.1-0.2-0.3-0.2s-0.3-0.1-0.6-0.4c-0.2-0.3-0.4-0.6-0.6-0.9c-0.1-0.3-0.4-0.6-0.8-1.1c-0.4-0.5-0.7-0.7-0.8-0.7
			c-0.1,0-0.2-0.1-0.4-0.3c-0.1-0.1-0.2-0.2-0.1-0.3c0,0,0.1-0.1,0.3-0.2c0.8-0.3,1.2-0.6,1.2-0.9c0-0.5,0.1-0.7,0.3-0.7
			c0.1,0,0.2-0.1,0.4-0.2c0.2-0.2,0.2-0.7,0.2-1.5c0-1-0.1-1.5-0.3-1.7c-0.1-0.1-0.2-0.2-0.4-0.2c-0.1,0-0.2,0-0.2-0.1
			c0-0.1-0.1-0.2-0.4-0.3c-0.3-0.1-0.4-0.3-0.5-0.5l-0.2-0.3c-0.1-0.1-0.2-0.1-0.2,0.1c0,0.1-0.3,0.1-0.8,0.1c-0.6,0-0.9,0-0.9-0.1
			c0-0.1-0.1-0.1-0.4-0.1c-0.3,0-0.5-0.1-0.6-0.3c-0.2-0.2-0.3-0.3-0.4-0.3s-0.2,0.1-0.1,0.3c0,0,0,0,0,0.1v0.1
			c0,0.1-0.6,0.2-1.8,0.2h-1.9l-0.5,0.5c-0.3,0.3-0.5,0.6-0.5,0.7c0,0.1,0.2,0.2,0.5,0.3c0.3,0.1,0.5,0.1,0.5,0.2
			c0,0.1,0,0.1,0.1,0.1c0.2,0,0.4,0.2,0.6,0.5c0.2,0.3,0.3,0.7,0.3,1.2c0,0.4,0.1,0.6,0.1,0.6c0,0.2-0.1,0.4-0.2,0.5
			c-0.2,0.1-0.2,0.2-0.1,0.3c0.1,0.1,0.2,0.3,0.2,0.7c0,0.3-0.1,0.5-0.2,0.5c-0.1,0-0.2,0,0,0.1c0.1,0.1,0.2,0.2,0.2,0.4
			c0,0.2-0.1,0.4-0.2,0.5c-0.1,0.1-0.1,0.3,0.1,0.4c0.1,0.1,0.2,0.3,0.2,0.4c0,0.1-0.1,0.3-0.2,0.4c-0.2,0.2-0.3,0.7-0.3,1.6
			c0,0.7,0,1.1-0.1,1.2c0,0.1-0.1,0.2-0.3,0.3c-0.2,0.1-0.3,0.1-0.3,0.2c0,0.1-0.3,0.1-0.8,0.1c-0.4,0-0.6,0.1-0.7,0.1
			c-0.1,0.1-0.1,0.2-0.1,0.5c0,0.2,0.2,0.5,0.6,0.8c0.2,0.1,0.3,0.2,0.5,0.2c0.2,0,0.3-0.1,0.3-0.2c0.1-0.1,0.8-0.2,2.1-0.2
			c1.3,0,2.1-0.1,2.2-0.3c0.1-0.1,0.2-0.2,0.3-0.2c0.1,0,0.2-0.1,0.2-0.2c0-0.1-0.1-0.2-0.4-0.2c-0.3,0-0.4-0.1-0.5-0.3
			c0-0.2-0.2-0.3-0.5-0.4c-0.4-0.1-0.5-0.2-0.5-0.4c0-0.1,0-0.2,0.1-0.3c0.2-0.2,0.2-0.3,0.1-0.4c-0.1,0-0.2-0.6-0.2-1.6
			c0-0.3,0-0.6,0-1c0-0.3,0-0.4,0.1-0.5c0-0.1,0.1-0.1,0.2-0.1c0.5,0,1,0.2,1.5,0.5c0.5,0.4,0.8,0.7,0.8,1c0,0.2,0.1,0.3,0.2,0.3
			s0.2,0.1,0.2,0.4c0,0.5,0.3,0.8,0.8,1c0.2,0.1,0.4,0.3,0.5,0.7c0.1,0.4,0.3,0.8,0.7,1.2l0.6,0.7l0.9-0.1c0.1,0,0.3,0,0.6-0.1
			c0.3,0,0.6,0,0.8-0.1c0.2,0,0.4-0.1,0.7-0.1c0.3-0.1,0.4-0.1,0.6-0.2c0.1-0.1,0.2-0.2,0.2-0.3
			C198.8,792.8,198.8,792.7,198.7,792.7z M193.1,785.9c-0.1,0-0.2,0-0.2,0.1c-0.1,0-0.1,0,0,0.1c0.2,0,0.2,0.1,0.2,0.2
			c0,0.1-0.1,0.3-0.4,0.4c-0.2,0.2-0.5,0.3-0.7,0.3c-0.3,0-0.6,0.1-1.1,0.2c-0.1,0-0.2,0-0.3,0c-0.2,0-0.4-0.1-0.7-0.3
			c-0.2-0.2-0.3-0.3-0.4-0.3c0-0.1,0-0.1,0.1-0.2c0.1-0.1,0.2-0.7,0.2-1.6v-1.2c0-0.3,0.1-0.5,0.2-0.7c0.1-0.2,0.3-0.4,0.4-0.4h0.1
			l0.4,0.1c0.3,0,0.5,0.1,0.8,0.1c0.2,0.1,0.4,0.1,0.4,0.1c0,0.1,0.1,0.1,0.4,0.2c0.3,0.1,0.4,0.2,0.4,0.3c0,0.1,0.1,0.3,0.2,0.4
			c0.1,0.1,0.2,0.2,0.1,0.3c-0.1,0.1-0.1,0.3,0.1,0.6c0.1,0.2,0.2,0.5,0.2,0.8v0.1c0,0.2-0.1,0.4-0.1,0.4S193.3,785.9,193.1,785.9z"
			/>
		<path d="M230.2,785.7c-0.2-0.1-0.2-0.2-0.2-0.5c0-0.3,0-0.5-0.1-0.5c-0.1,0-0.1-0.1-0.1-0.4c0-0.3-0.1-0.4-0.2-0.4
			c-0.1,0-0.2-0.1-0.3-0.3c-0.1-0.2-0.2-0.3-0.3-0.4c-0.1-0.1-0.2-0.2-0.2-0.4c0-0.2-0.1-0.3-0.4-0.3c-0.7,0-1-0.1-1-0.4
			c0-0.1-0.1-0.2-0.2-0.2c-0.1,0-0.2,0-0.2-0.1s-0.1-0.1-0.3-0.1c-0.2,0-0.3-0.1-0.4-0.2c0-0.1-0.5-0.2-1.5-0.2
			c-0.9,0-1.5,0.1-1.6,0.2c-0.1,0.1-0.2,0.2-0.4,0.2c-0.2,0-0.3,0.1-0.4,0.3c-0.1,0.2-0.3,0.4-0.6,0.4c-0.3,0-0.6,0.1-1.1,0.2
			c-0.5,0.1-0.7,0.3-0.8,0.5c0,0.2-0.2,0.4-0.5,0.7c-0.3,0.3-0.4,0.5-0.4,0.5c0,0.1-0.1,0.1-0.2,0.1c-0.1,0-0.2,0.1-0.3,0.4
			c-0.1,0.2-0.2,0.5-0.3,0.7c-0.2,0.3-0.2,0.8-0.2,1.8c0,1.2,0.1,2.1,0.4,2.9c0.5,1.4,0.9,2.2,1.2,2.3c0.2,0,0.3,0.1,0.3,0.3
			c0,0.2,0.2,0.2,0.4,0.2c0.2,0,0.4,0,0.4,0.1c0,0.1,0.1,0.1,0.3,0.1c0.2,0,0.3,0.1,0.3,0.4c0,0.2,0,0.3,0.1,0.4
			c0.1,0.1,0.2,0,0.4-0.1c0.1-0.1,0.2-0.1,0.3,0c0.2,0.1,0.9,0.2,2.2,0.2c1.1,0,1.7-0.1,1.7-0.2c0-0.1,0.3-0.2,0.7-0.2
			c0.4,0,0.6-0.1,0.6-0.2c0-0.2,0.1-0.3,0.2-0.3c0,0,0.2-0.1,0.4-0.3c0.3-0.2,0.4-0.3,0.5-0.3c0.1,0,0.2-0.1,0.2-0.3
			c0.1-0.2,0.2-0.3,0.3-0.3c0.1,0,0.2-0.1,0.3-0.3c0-0.2,0.2-0.3,0.4-0.3c0.2-0.1,0.3-0.1,0.3-0.2c0-0.1,0.1-0.1,0.2-0.1
			c0.1,0,0.2-0.2,0.2-0.6c0-0.3,0-0.5-0.1-0.5c-0.1,0-0.1-0.1,0-0.2c0.1-0.1,0.2-0.8,0.2-2.1c0-0.3,0-0.7,0-1.1
			C230.4,786,230.3,785.7,230.2,785.7z M228,788.8c-0.1,0-0.2,0.2-0.2,0.4c0,0.3-0.1,0.4-0.2,0.5c-0.1,0.1-0.2,0.4-0.3,0.8
			c-0.1,0.4-0.1,0.6-0.3,0.6c-0.1,0-0.2,0-0.2,0.1c0,0.1-0.1,0.2-0.4,0.2c-0.3,0.1-0.4,0.2-0.4,0.3c0,0.1,0,0.2-0.1,0.2
			c-0.1,0.1-0.2,0.1-0.4,0.2c-0.1,0.1-0.2,0.1-0.3,0.1c0,0.1-0.2,0.1-0.4,0.1c-0.2,0-0.3,0.1-0.5,0.2c-0.1,0.1-0.2,0.1-0.4,0.1
			c-0.2,0-0.4,0-0.7-0.1c-0.5-0.1-1-0.3-1.3-0.6c-0.3-0.3-0.7-0.8-1-1.5c-0.3-0.5-0.4-0.9-0.5-1.1c0-0.2-0.1-0.7-0.1-1.4
			c0-0.7,0-1.1,0.1-1.4c0-0.2,0.1-0.5,0.3-0.8c0.3-0.5,0.6-0.9,1-1.3c0.4-0.4,0.8-0.6,1-0.7c0.3,0,0.5-0.1,0.5-0.3
			c0-0.1,0.1-0.2,0.2-0.2c0.1,0,0.2,0,0.2-0.1c0-0.1,0.1-0.1,0.3-0.1c0.2,0,0.3,0,0.3,0.1c0,0.1,0.3,0.1,0.9,0.1
			c0.5,0,0.8,0.1,0.8,0.2c0,0.1,0.1,0.2,0.3,0.3c0.2,0.1,0.3,0.2,0.3,0.3c0,0.1,0.1,0.2,0.3,0.3c0.3,0.1,0.5,0.4,0.5,0.8
			c0,0.2,0.1,0.5,0.3,0.8c0.2,0.3,0.3,0.7,0.3,1.1c0,0.5,0,0.7,0.1,0.8c0.1,0.1,0.1,0.2,0.1,0.4C228.1,788.6,228.1,788.7,228,788.8z
			"/>
		<path d="M247.9,783.9c0-0.3-0.1-0.5-0.2-0.6c-0.1-0.1-0.1-0.2,0-0.4c0.1-0.1,0.1-0.2,0.1-0.2c0-0.1-0.1-0.2-0.2-0.2
			c-0.1-0.1-0.2-0.2-0.2-0.3c0-0.2-0.1-0.3-0.3-0.5c-0.2-0.2-0.4-0.3-0.5-0.3c-0.1,0-0.2,0-0.2,0.1c0,0.1-0.3,0.1-0.9,0.2
			c-0.5,0.1-1.1,0.1-1.7,0.1c-0.6,0-0.9,0-1,0.1c-0.1,0-0.5,0.1-1.4,0.1c-0.9,0.1-1.8,0.2-2.7,0.3c-0.9,0.1-1.4,0.2-1.4,0.2
			c0,0,0,0.1,0,0.2s0,0.2,0.1,0.3c0.1,0.2,0.1,0.3,0.2,0.4c0.1,0,0.3,0.1,0.6,0.1c0.5,0,0.9,0.1,1,0.3c0.1,0.2,0.2,0.7,0.2,1.6
			c0,0.9-0.1,1.4-0.2,1.5c-0.1,0.1-0.1,0.2,0,0.4c0.1,0.3,0.2,0.5,0,0.7c-0.1,0.2-0.2,0.3-0.3,0.3c-0.1,0,0,0.1,0.1,0.2
			c0.1,0.1,0.1,0.3,0.1,0.6c0,0.1,0,0.4-0.1,0.8c-0.1,1.4-0.2,2.3-0.2,2.6c-0.1,0.4-0.1,0.5-0.3,0.6c-0.2,0.1-0.5,0.3-0.8,0.6
			l-0.5,0.6h5v-0.5c0-0.2,0-0.4-0.1-0.4c0-0.1-0.1-0.1-0.3-0.1c-0.2,0-0.4,0-0.4-0.1c0-0.1-0.1-0.1-0.2-0.1s-0.2-0.1-0.3-0.3
			c0-0.1,0-0.4,0-1.2c0-1.2,0-2.1,0.1-2.8c0-0.1,0.5-0.1,1.4-0.1c0.8,0,1.3,0.1,1.5,0.2c0.3,0.1,0.4,0.4,0.4,0.9
			c0,0.3,0,0.5,0.1,0.5c0.1,0,0.1-0.1,0.3-0.2c0.1-0.1,0.3-0.2,0.5-0.1c0.2,0.1,0.3,0,0.3-0.2c0-0.2,0-0.3,0.1-0.4
			c0.1-0.1,0.1-0.2,0-0.2c-0.1-0.1-0.2-0.3-0.2-0.6c0-0.4,0.1-0.7,0.2-0.8c0.1-0.1,0.1-0.1,0.1-0.2c0-0.1,0-0.1-0.1-0.2
			c-0.1-0.1-0.1-0.2-0.1-0.2c0-0.1,0-0.1,0.1-0.2c0.2-0.1,0.2-0.2,0.2-0.4c0-0.3-0.4-0.4-1.1-0.4c-0.4,0-0.6,0.2-0.6,0.5
			c0,0.1,0,0.2,0.1,0.3c0.1,0.2,0,0.4,0,0.5c-0.1,0.1-0.4,0.2-1,0.3c-0.6,0.1-1.1,0.2-1.6,0.2h-0.5v-0.6c0-0.4,0.1-0.6,0.2-0.7
			c0.1-0.1,0.2-0.2,0.2-0.4c0-0.3-0.1-0.5-0.2-0.8c-0.1-0.2-0.2-0.4-0.2-0.4c0-0.1,0.1-0.1,0.2-0.3c0.2-0.2,0.3-0.4,0.2-0.6
			c0-0.1,0-0.1,0-0.2c0-0.1,0.1-0.2,0.4-0.3c0.3-0.1,0.8-0.1,1.6-0.1c0.7,0,1.1-0.1,1.1-0.1c0.3,0,0.5,0.1,0.7,0.2
			c0.2,0.2,0.3,0.3,0.5,0.4c0.2,0.1,0.3,0.2,0.3,0.3c0,0.1,0.1,0.3,0.3,0.4c0.2,0.1,0.4,0.3,0.5,0.6c0.1,0.4,0.4,0.5,0.8,0.5
			c0.1,0,0.2,0,0.3-0.1c0.1-0.1,0.2-0.2,0.2-0.6c0-0.3-0.1-0.5-0.2-0.5C248,784.4,247.9,784.2,247.9,783.9z"/>
		<path d="M270.5,789.7c0-0.1,0-0.2-0.1-0.2c-0.1,0-0.1,0-0.1,0.1l0.1,0.2C270.5,789.9,270.5,789.9,270.5,789.7z"/>
		<path d="M276.4,790.5c0-0.6-0.1-0.9-0.2-1.1c-0.1-0.2-0.3-0.4-0.6-0.5c-0.3-0.1-0.5-0.3-0.5-0.4c-0.1-0.1-0.3-0.3-0.9-0.6
			c-0.5-0.3-1-0.5-1.3-0.6c-0.2-0.1-0.5-0.2-0.9-0.5c-0.4-0.3-0.6-0.4-0.6-0.5c0-0.1-0.1-0.2-0.2-0.3c-0.2-0.1-0.2-0.2-0.2-0.3
			c0,0,0-0.1,0-0.1c0.1-0.1,0.1-0.2,0.1-0.3s0-0.3-0.1-0.6c0-0.1,0-0.2,0-0.2c0,0,0.2-0.1,0.3-0.1c0.3,0,0.4-0.1,0.4-0.2
			c0-0.1,0.1-0.2,0.4-0.4c0.3-0.2,0.4-0.3,0.4-0.3c0-0.1,0.1-0.1,0.4-0.2c0.1,0,0.1,0,0.2,0c0.4,0,0.8,0.2,1.2,0.5
			c0.5,0.3,0.7,0.6,0.7,0.9c0,0.2,0.1,0.4,0.3,0.5c0.2,0.1,0.3,0.3,0.3,0.4c0,0.1,0.1,0.3,0.2,0.5s0.3,0.3,0.4,0.3c0,0,0,0,0.1,0
			c0.1-0.1,0.1-0.7,0.2-2v-0.8c0-0.6-0.1-0.9-0.2-0.9c-0.1,0-0.1,0-0.1,0c-0.3,0.1-0.6,0.2-0.8,0.2c-0.3,0-0.6-0.1-1-0.3
			c-0.4-0.2-0.6-0.3-0.7-0.3c0,0-0.1,0-0.2,0.1c-0.3,0.1-0.6,0.1-0.8,0.1c-0.3,0-0.4,0-0.5,0.1c0,0.1-0.1,0.2-0.3,0.2
			c-0.2,0-0.4-0.1-0.5-0.2c-0.1-0.1-0.3-0.2-0.5-0.2h0c-0.1,0-0.1,0-0.1,0c-0.1,0-0.1,0-0.1,0c0,0,0.1,0,0.1,0
			c0.1,0.1,0.2,0.1,0.2,0.2c0,0.2-0.2,0.3-0.5,0.4c-0.3,0.1-0.4,0.2-0.4,0.4c0.1,0.2,0,0.3-0.2,0.4c-0.3,0.1-0.6,0.5-1.1,1.1
			c-0.1,0.2-0.2,0.4-0.2,0.6c0,0,0,0.3,0.1,0.8c0.1,0.7,0.3,1.1,0.4,1.3c0.1,0.2,0.4,0.4,0.7,0.7c0.4,0.3,0.6,0.4,0.8,0.4
			c0.1,0,0.3,0.1,0.6,0.4c0.4,0.3,0.9,0.6,1.7,0.8c0.5,0.1,0.8,0.3,1.1,0.6c0.2,0.2,0.3,0.4,0.5,0.7c0.1,0.3,0.2,0.5,0.2,0.7
			c0,0.1,0,0.1-0.1,0.2c-0.1,0-0.1,0.2-0.1,0.4c0.1,0.2,0,0.4-0.2,0.6c-0.1,0.1-0.2,0.3-0.2,0.4c0,0.2-0.5,0.4-1.4,0.5
			c-0.1,0-0.3,0-0.6,0c-0.9,0-1.7-0.4-2.2-1.2c-0.3-0.4-0.5-0.8-0.5-1c0,0,0-0.1,0-0.2c0-0.1,0-0.2,0-0.2c0,0-0.1-0.1-0.1-0.1
			c-0.1,0-0.1,0-0.1-0.1c0.1-0.3-0.1-0.5-0.4-0.6c-0.1,0-0.2-0.1-0.3-0.1c-0.3,0-0.4,0.2-0.5,0.5c-0.1,1.2-0.1,1.9-0.2,1.9
			c-0.1,0.1-0.1,0.4-0.2,0.8c0,0.1,0,0.3,0,0.4c0,0.2,0.1,0.4,0.3,0.6c0.1,0.1,0.2,0.2,0.3,0.2c0,0,0.1,0,0.2-0.2
			c0.1-0.2,0.2-0.3,0.2-0.4c0-0.3,0.2-0.3,0.5-0.1c0.9,0.5,1.8,0.7,2.9,0.7c0.5,0,1.1-0.1,1.6-0.2c0.6-0.1,1.1-0.3,1.4-0.6
			c0.3-0.3,0.5-0.5,0.5-0.5c0-0.1,0.1-0.2,0.2-0.3c0.2-0.1,0.3-0.4,0.3-0.9c0.1-0.5,0.1-0.7,0.2-0.7c0.1,0,0.1,0,0-0.1
			S276.4,791.2,276.4,790.5z M272,788.9C272,788.9,271.9,788.9,272,788.9c-0.1-0.1-0.1-0.1,0-0.1S272.1,788.8,272,788.9
			C272.1,788.9,272.1,788.9,272,788.9z"/>
		<path d="M299.2,782.4c-0.1,0-0.3,0-0.5,0c-0.2,0-0.4,0-0.4,0c-0.4,0-0.6,0-0.7,0.1c-0.1,0-0.3,0.1-0.4,0.3
			c-0.2,0.2-0.3,0.3-0.3,0.4c0,0.1,0,0.1,0.2,0.2c0.3,0.2,0.5,0.2,0.7,0.2c0.3,0,0.4,0.1,0.5,0.3c0.1,0.2,0,0.3-0.1,0.4
			c-0.1,0-0.2,0.2-0.2,0.6c0,0.4-0.1,0.6-0.2,0.6c-0.2,0.1-0.2,0.2-0.2,0.4v0.4c0,0.6-0.1,0.9-0.3,0.9c-0.1,0-0.2,0.1-0.3,0.3
			c0,0.2-0.1,0.7-0.3,1.5c-0.1,0.4-0.2,0.6-0.4,0.6c-0.1,0-0.2,0.1-0.2,0.2c0,0.1,0,0.2-0.2,0.2c-0.3,0-0.4-0.1-0.5-0.2
			c-0.1-0.2-0.2-0.5-0.3-0.9c-0.1-0.4-0.2-1-0.2-1.7c-0.1-0.5-0.2-0.8-0.3-0.9c-0.1-0.1-0.1-0.4-0.1-0.7c0-0.3,0-0.5-0.1-0.5
			c-0.1,0-0.1-0.1-0.1-0.4c0-0.2-0.1-0.4-0.2-0.5c-0.1-0.1-0.2-0.1-0.2-0.2c0-0.1,0.2-0.2,0.6-0.2c0.4,0,0.7-0.1,0.9-0.3
			c0.1-0.1,0.2-0.2,0.2-0.3c0-0.1,0-0.2-0.1-0.4c-0.1-0.2-0.3-0.4-0.6-0.5c-0.3-0.1-0.8-0.1-1.6-0.1c-0.6,0-1-0.1-1-0.3
			c-0.1-0.2-0.1-0.3-0.2-0.3c-0.1,0-0.2,0.1-0.5,0.3c-0.3,0.2-0.4,0.3-0.5,0.3c-0.3,0-0.5,0.2-0.6,0.6v0.1l0,0.1
			c0,0.3,0.3,0.6,0.9,0.7c0.1,0,0.3,0.1,0.4,0.1c0.1,0.1,0.1,0.2,0.1,0.2c0,0.1-0.1,0.1-0.2,0.1c-0.1,0-0.1,0.2-0.1,0.6
			c0,0.4-0.1,0.6-0.2,0.6c-0.1,0-0.1,0.2-0.1,0.5c0,0.7-0.2,1.1-0.5,1.2c-0.1,0-0.2,0.1-0.3,0.3c-0.1,0.2-0.1,0.7-0.3,1.5
			c-0.1,0.4-0.2,0.6-0.4,0.6c-0.2,0-0.2,0.1-0.2,0.2c0,0.1,0,0.2-0.2,0.2c-0.3,0-0.5-0.1-0.6-0.2c-0.1-0.2-0.2-0.5-0.2-0.9
			c0-0.6-0.1-0.9-0.2-1c-0.1-0.1-0.1-0.3-0.1-0.6c0-0.4-0.1-0.7-0.2-0.9c-0.1-0.3-0.2-0.5-0.1-0.8c0-0.3,0-0.5-0.1-0.5
			c-0.1,0-0.2-0.1-0.2-0.4c0-0.2-0.1-0.4-0.2-0.5c-0.1-0.1-0.2-0.1-0.2-0.2c0-0.1,0.2-0.2,0.6-0.2c0.4,0,0.7-0.1,0.9-0.3
			c0.1-0.1,0.2-0.2,0.2-0.3s-0.1-0.2-0.2-0.4c-0.1-0.2-0.2-0.3-0.4-0.4c-0.2-0.1-0.5-0.1-0.9-0.1c-0.1,0-0.2,0-0.4,0
			c-0.2,0-0.4,0-0.5,0H286c-0.3,0-0.4,0-0.5-0.1c-0.1,0-0.1-0.1-0.2-0.3c-0.1-0.2-0.1-0.4-0.3-0.4c-0.1,0-0.2,0.1-0.5,0.3
			c-0.2,0.2-0.4,0.3-0.5,0.3c-0.1,0-0.3,0.1-0.4,0.2c-0.1,0.1-0.2,0.3-0.2,0.4c0,0.4,0.3,0.7,0.9,0.8c0.5,0.1,0.9,0.6,1,1.6
			c0.1,0.4,0.2,0.6,0.3,0.8c0.1,0.1,0.2,0.4,0.2,0.7c0,0.3,0.1,0.5,0.2,0.6c0.4,0.4,0.5,1.1,0.5,1.9c0,0.4,0,0.6,0.1,0.7
			c0.1,0.1,0.1,0.2,0.1,0.4c0,0.2,0,0.3,0.1,0.4c0.1,0.1,0.2,0.3,0.2,0.8s0.1,0.6,0.2,0.6c0.1,0,0.2,0.2,0.2,0.5
			c0,0.3,0.1,0.5,0.2,0.5c0.1,0,0.2,0.1,0.3,0.4c0.1,0.3,0.3,0.5,0.6,0.5c0.1,0,0.3-0.1,0.4-0.2c0.1-0.1,0.2-0.3,0.2-0.4
			c0-0.3,0-0.4,0.1-0.4c0.1,0,0.2-0.1,0.2-0.4c0-0.3,0-0.5,0.1-0.5c0.1,0,0.2-0.2,0.2-0.5c0-0.3,0.1-0.6,0.3-0.9
			c0.2-0.3,0.4-0.5,0.6-0.6c0.2-0.1,0.3-0.3,0.3-0.6c0-0.4,0.1-0.6,0.2-0.6c0.1,0,0.2-0.2,0.2-0.5c0-0.3,0.1-0.6,0.2-0.8
			c0.1-0.2,0.2-0.4,0.1-0.5c-0.1-0.2,0.1-0.3,0.4-0.4c0.3-0.1,0.4-0.2,0.5-0.3c0.1,0,0.1,0.1,0.1,0.4c0,0.4,0.1,0.6,0.2,0.8
			c0.4,0.5,0.6,1.1,0.6,1.9c0,0.4,0,0.6,0.1,0.6c0.1,0,0.1,0.1,0.1,0.4c-0.1,0.2,0,0.4,0.1,0.5c0.1,0.1,0.2,0.3,0.2,0.8
			s0.1,0.6,0.2,0.6c0.2,0,0.2,0.2,0.2,0.5c0,0.3,0.1,0.5,0.2,0.5c0.1,0,0.2,0.1,0.3,0.4c0.1,0.3,0.3,0.5,0.6,0.5
			c0.1,0,0.3-0.1,0.4-0.2c0.1-0.1,0.2-0.3,0.2-0.4c0-0.3,0.1-0.4,0.2-0.4c0.1,0,0.1-0.1,0.1-0.4c0-0.3,0-0.5,0.1-0.5
			c0.1,0,0.2-0.2,0.2-0.5c0-0.3,0.1-0.6,0.3-1c0.2-0.4,0.4-0.6,0.5-0.6c0.1,0,0.2-0.2,0.2-0.6c0-0.5,0.1-0.7,0.2-0.7
			c0.1,0,0.2-0.2,0.2-0.5c0-0.3,0.1-0.6,0.2-0.8c0.1-0.2,0.2-0.4,0.2-0.6c0-0.1,0.1-0.2,0.4-0.3c0.3-0.1,0.4-0.2,0.4-0.3
			c0-0.1,0-0.1,0-0.2c0-0.1,0-0.1,0-0.2c0-0.6,0.1-0.9,0.3-0.9c0.1,0,0.1-0.1,0.2-0.4c0-0.3,0.1-0.4,0.2-0.4c0.1,0,0.2-0.1,0.2-0.2
			c0-0.1,0.1-0.2,0.4-0.2c0.3,0,0.5-0.1,0.6-0.2c0.1-0.1,0.2-0.3,0.2-0.6l0-0.4L299.2,782.4z"/>
		<path d="M320.2,785.7c-0.2-0.1-0.2-0.2-0.2-0.5c0-0.3,0-0.5-0.1-0.5c-0.1,0-0.1-0.1-0.1-0.4c0-0.3-0.1-0.4-0.2-0.4
			c-0.1,0-0.2-0.1-0.3-0.3c-0.1-0.2-0.2-0.3-0.3-0.4c-0.1-0.1-0.2-0.2-0.2-0.4c0-0.2-0.1-0.3-0.4-0.3c-0.7,0-1-0.1-1-0.4
			c0-0.1-0.1-0.2-0.2-0.2c-0.1,0-0.2,0-0.2-0.1s-0.1-0.1-0.3-0.1c-0.2,0-0.3-0.1-0.4-0.2c0-0.1-0.5-0.2-1.5-0.2
			c-0.9,0-1.5,0.1-1.6,0.2c-0.1,0.1-0.2,0.2-0.4,0.2c-0.2,0-0.3,0.1-0.4,0.3c-0.1,0.2-0.3,0.4-0.6,0.4c-0.3,0-0.6,0.1-1.1,0.2
			c-0.5,0.1-0.7,0.3-0.8,0.5c0,0.2-0.2,0.4-0.5,0.7s-0.4,0.5-0.4,0.5c0,0.1-0.1,0.1-0.2,0.1c-0.1,0-0.2,0.1-0.3,0.4
			c-0.1,0.2-0.2,0.5-0.3,0.7c-0.2,0.3-0.2,0.8-0.2,1.8c0,1.2,0.1,2.1,0.4,2.9c0.5,1.4,0.9,2.2,1.2,2.3c0.2,0,0.3,0.1,0.3,0.3
			c0,0.2,0.2,0.2,0.4,0.2c0.2,0,0.4,0,0.4,0.1c0,0.1,0.1,0.1,0.3,0.1s0.3,0.1,0.3,0.4c0,0.2,0,0.3,0.1,0.4c0.1,0.1,0.2,0,0.4-0.1
			c0.1-0.1,0.2-0.1,0.3,0c0.2,0.1,0.9,0.2,2.2,0.2c1.1,0,1.7-0.1,1.7-0.2c0-0.1,0.3-0.2,0.7-0.2c0.4,0,0.6-0.1,0.6-0.2
			c0-0.2,0.1-0.3,0.2-0.3c0,0,0.2-0.1,0.4-0.3c0.3-0.2,0.4-0.3,0.5-0.3c0.1,0,0.2-0.1,0.2-0.3c0.1-0.2,0.2-0.3,0.3-0.3
			c0.1,0,0.2-0.1,0.3-0.3c0-0.2,0.2-0.3,0.4-0.3c0.2-0.1,0.3-0.1,0.3-0.2c0-0.1,0.1-0.1,0.2-0.1c0.1,0,0.2-0.2,0.2-0.6
			c0-0.3,0-0.5-0.1-0.5c-0.1,0-0.1-0.1,0-0.2c0.1-0.1,0.2-0.8,0.2-2.1c0-0.3,0-0.7,0-1.1C320.4,786,320.3,785.7,320.2,785.7z
			 M318,788.8c-0.1,0-0.2,0.2-0.2,0.4c0,0.3-0.1,0.4-0.2,0.5c-0.1,0.1-0.2,0.4-0.3,0.8c-0.1,0.4-0.1,0.6-0.3,0.6
			c-0.1,0-0.2,0-0.2,0.1c0,0.1-0.1,0.2-0.4,0.2c-0.3,0.1-0.4,0.2-0.4,0.3c0,0.1,0,0.2-0.1,0.2c-0.1,0.1-0.2,0.1-0.4,0.2
			c-0.1,0.1-0.2,0.1-0.3,0.1c0,0.1-0.2,0.1-0.4,0.1c-0.2,0-0.3,0.1-0.5,0.2c-0.1,0.1-0.2,0.1-0.4,0.1c-0.2,0-0.4,0-0.7-0.1
			c-0.5-0.1-1-0.3-1.3-0.6c-0.3-0.3-0.7-0.8-1-1.5c-0.3-0.5-0.4-0.9-0.5-1.1c0-0.2-0.1-0.7-0.1-1.4c0-0.7,0-1.1,0.1-1.4
			c0-0.2,0.1-0.5,0.3-0.8c0.3-0.5,0.6-0.9,1-1.3c0.4-0.4,0.8-0.6,1-0.7c0.3,0,0.5-0.1,0.5-0.3c0-0.1,0.1-0.2,0.2-0.2
			c0.1,0,0.2,0,0.2-0.1c0-0.1,0.1-0.1,0.3-0.1c0.2,0,0.3,0,0.3,0.1c0,0.1,0.3,0.1,0.9,0.1c0.5,0,0.8,0.1,0.8,0.2
			c0,0.1,0.1,0.2,0.3,0.3c0.2,0.1,0.3,0.2,0.3,0.3c0,0.1,0.1,0.2,0.3,0.3c0.3,0.1,0.5,0.4,0.5,0.8c0,0.2,0.1,0.5,0.3,0.8
			c0.2,0.3,0.3,0.7,0.3,1.1c0,0.5,0,0.7,0.1,0.8c0.1,0.1,0.1,0.2,0.1,0.4C318.2,788.6,318.1,788.7,318,788.8z"/>
		<path d="M329.3,779.4c0-0.1-0.1-0.1-0.3-0.1c-0.2,0-0.3,0-0.3,0.1c0,0.1,0.1,0.2,0.3,0.2C329.2,779.5,329.3,779.5,329.3,779.4z"/>
		<path d="M340.7,792.7c-0.1,0-0.2-0.1-0.3-0.4c-0.1-0.2-0.3-0.4-0.5-0.4c-0.2,0-0.4-0.1-0.6-0.2c-0.2-0.1-0.4-0.2-0.4-0.4
			c-0.1-0.1-0.1-0.2-0.3-0.2c-0.1,0-0.3-0.1-0.6-0.4c-0.2-0.3-0.4-0.6-0.6-0.9c-0.1-0.3-0.4-0.6-0.8-1.1c-0.4-0.5-0.7-0.7-0.8-0.7
			c-0.1,0-0.2-0.1-0.4-0.3c-0.1-0.1-0.2-0.2-0.1-0.3c0,0,0.1-0.1,0.3-0.2c0.8-0.3,1.2-0.6,1.2-0.9c0-0.5,0.1-0.7,0.3-0.7
			c0.1,0,0.2-0.1,0.4-0.2c0.2-0.2,0.2-0.7,0.2-1.5c0-1-0.1-1.5-0.3-1.7c-0.1-0.1-0.2-0.2-0.4-0.2c-0.1,0-0.2,0-0.2-0.1
			c0-0.1-0.1-0.2-0.4-0.3c-0.3-0.1-0.4-0.3-0.5-0.5l-0.2-0.3c-0.1-0.1-0.2-0.1-0.2,0.1c0,0.1-0.3,0.1-0.8,0.1c-0.6,0-0.9,0-0.9-0.1
			c0-0.1-0.1-0.1-0.4-0.1c-0.3,0-0.5-0.1-0.6-0.3c-0.2-0.2-0.3-0.3-0.4-0.3c-0.1,0-0.2,0.1-0.1,0.3c0,0,0,0,0,0.1v0.1
			c0,0.1-0.6,0.2-1.8,0.2h-1.9l-0.5,0.5c-0.3,0.3-0.5,0.6-0.5,0.7c0,0.1,0.2,0.2,0.5,0.3c0.3,0.1,0.5,0.1,0.5,0.2
			c0,0.1,0,0.1,0.1,0.1c0.2,0,0.4,0.2,0.6,0.5c0.2,0.3,0.3,0.7,0.3,1.2c0,0.4,0.1,0.6,0.1,0.6c0,0.2-0.1,0.4-0.2,0.5
			c-0.2,0.1-0.2,0.2-0.1,0.3c0.1,0.1,0.2,0.3,0.2,0.7c0,0.3-0.1,0.5-0.2,0.5c-0.1,0-0.2,0,0,0.1c0.1,0.1,0.2,0.2,0.2,0.4
			c0,0.2-0.1,0.4-0.2,0.5c-0.1,0.1-0.1,0.3,0.1,0.4c0.1,0.1,0.2,0.3,0.2,0.4c0,0.1-0.1,0.3-0.2,0.4c-0.2,0.2-0.3,0.7-0.3,1.6
			c0,0.7,0,1.1-0.1,1.2c0,0.1-0.1,0.2-0.3,0.3c-0.2,0.1-0.3,0.1-0.3,0.2c0,0.1-0.3,0.1-0.8,0.1c-0.4,0-0.6,0.1-0.7,0.1
			c-0.1,0.1-0.1,0.2-0.1,0.5c0,0.2,0.2,0.5,0.6,0.8c0.2,0.1,0.3,0.2,0.5,0.2c0.2,0,0.3-0.1,0.3-0.2c0.1-0.1,0.8-0.2,2.1-0.2
			c1.3,0,2.1-0.1,2.2-0.3c0.1-0.1,0.2-0.2,0.3-0.2c0.1,0,0.2-0.1,0.2-0.2c0-0.1-0.1-0.2-0.4-0.2c-0.3,0-0.4-0.1-0.5-0.3
			c0-0.2-0.2-0.3-0.5-0.4c-0.4-0.1-0.5-0.2-0.5-0.4c0-0.1,0-0.2,0.1-0.3c0.2-0.2,0.2-0.3,0.1-0.4c-0.1,0-0.2-0.6-0.2-1.6
			c0-0.3,0-0.6,0-1c0-0.3,0-0.4,0.1-0.5c0-0.1,0.1-0.1,0.2-0.1c0.5,0,1,0.2,1.5,0.5c0.5,0.4,0.8,0.7,0.8,1c0,0.2,0.1,0.3,0.2,0.3
			c0.1,0,0.2,0.1,0.2,0.4c0,0.5,0.3,0.8,0.8,1c0.2,0.1,0.4,0.3,0.5,0.7c0.1,0.4,0.3,0.8,0.7,1.2l0.6,0.7l0.9-0.1
			c0.1,0,0.3,0,0.6-0.1c0.3,0,0.6,0,0.8-0.1c0.2,0,0.4-0.1,0.7-0.1c0.3-0.1,0.4-0.1,0.6-0.2c0.1-0.1,0.2-0.2,0.2-0.3
			C340.8,792.8,340.8,792.7,340.7,792.7z M335,785.9c-0.1,0-0.2,0-0.2,0.1c-0.1,0-0.1,0,0,0.1c0.2,0,0.2,0.1,0.2,0.2
			c0,0.1-0.1,0.3-0.4,0.4c-0.2,0.2-0.5,0.3-0.7,0.3c-0.3,0-0.6,0.1-1.1,0.2c-0.1,0-0.2,0-0.3,0c-0.2,0-0.4-0.1-0.7-0.3
			c-0.2-0.2-0.3-0.3-0.4-0.3c0-0.1,0-0.1,0.1-0.2c0.1-0.1,0.2-0.7,0.2-1.6v-1.2c0-0.3,0.1-0.5,0.2-0.7c0.1-0.2,0.3-0.4,0.4-0.4h0.1
			l0.4,0.1c0.3,0,0.5,0.1,0.8,0.1c0.2,0.1,0.4,0.1,0.4,0.1c0,0.1,0.1,0.1,0.4,0.2c0.3,0.1,0.4,0.2,0.4,0.3c0,0.1,0.1,0.3,0.2,0.4
			c0.1,0.1,0.2,0.2,0.1,0.3c-0.1,0.1-0.1,0.3,0.1,0.6c0.1,0.2,0.2,0.5,0.2,0.8v0.1c0,0.2-0.1,0.4-0.1,0.4
			C335.4,785.8,335.2,785.9,335,785.9z"/>
		<path d="M333.7,780.4C333.8,780.3,333.8,780.3,333.7,780.4c0.1-0.1,0-0.1-0.2-0.1c-0.2,0-0.3,0.1-0.3,0.2
			C333.4,780.5,333.5,780.5,333.7,780.4C333.7,780.4,333.7,780.4,333.7,780.4z"/>
		<path d="M360,785.5c0-0.2-0.1-0.3-0.2-0.5c-0.2-0.2-0.3-0.3-0.4-0.3c-0.1,0-0.2-0.1-0.2-0.2c0-0.1-0.1-0.3-0.3-0.6
			c-0.2-0.2-0.3-0.3-0.4-0.3c-0.1,0-0.2-0.1-0.2-0.2c0-0.1-0.1-0.2-0.3-0.3c-0.2-0.1-0.3-0.1-0.3-0.2c0-0.1-0.1-0.1-0.4-0.1
			c-0.2,0-0.3-0.1-0.6-0.2c-0.2-0.1-0.4-0.2-0.5-0.2c-0.2,0-0.3,0-0.3-0.1s-0.1-0.1-0.4-0.1c-0.2,0-0.3,0-0.4-0.1
			c-0.1-0.1-0.2-0.1-0.2-0.1c-0.1,0-0.2,0-0.4,0.1c-0.3,0.1-0.6,0.2-1,0.2c-0.2,0-0.4,0-0.4-0.1c-0.1,0-0.1-0.1-0.1-0.2
			c0-0.2-0.1-0.3-0.2-0.3c-0.1,0-0.2,0-0.3,0.2c-0.1,0.1-0.1,0.1-0.2,0c-0.2-0.3-0.3-0.2-0.4,0.1c-0.1,0.2-0.2,0.3-0.4,0.2
			c-0.2-0.1-0.5-0.2-1-0.2c-0.4,0-0.7-0.1-0.8-0.2c0-0.1-0.1-0.1-0.3,0.1c-0.2,0.1-0.3,0.1-0.3,0c-0.1-0.1-0.2-0.2-0.5-0.2
			c-0.2,0-0.4,0-0.4,0.1c0,0.1-0.1,0.1-0.3,0.1c-0.1,0-0.2,0-0.2,0.1c0,0.1-0.1,0.3-0.1,0.5c0,0.3,0,0.5,0.1,0.6
			c0,0.1,0.2,0.2,0.3,0.3c0.2,0.1,0.3,0.1,0.4,0.1c0,0,0.1,0,0.1,0c0.1,0,0.1,0,0.1,0c0.1,0,0.2,0,0.3,0.1c0.2,0.1,0.4,0.4,0.4,0.8
			c0,0.4,0,0.6-0.1,0.6c-0.1,0-0.1,0.3-0.1,0.9c0,0.6,0,0.8,0.1,0.8c0.1,0,0.1,0.1,0.1,0.4c0,0.2,0,0.4-0.1,0.5
			c-0.1,0.1-0.1,1-0.2,2.8l-0.1,2.7l-0.5,0c-0.4,0-0.6,0.2-0.8,0.4c-0.2,0.2-0.3,0.4-0.3,0.5c0,0.1,0.1,0.2,0.4,0.4
			c0.3,0.2,0.5,0.2,0.7,0.2c0.1,0,0.2,0,0.2-0.1c0-0.1,0.3-0.1,0.8-0.1c0.5,0,0.8,0,0.8,0.1c0,0.1,0.9,0.2,2.6,0.2
			c1.1,0,1.7,0,1.8-0.1c0.1-0.1,0.4-0.2,0.7-0.2c0.4-0.1,0.8-0.2,1.3-0.5c0.5-0.2,0.8-0.4,1-0.4c0.2,0,0.3-0.1,0.4-0.4
			c0.1-0.3,0.3-0.6,0.7-1.1c0.4-0.4,0.6-0.7,0.6-0.8c0-0.1,0-0.2,0.1-0.2c0.1,0,0.1-0.1,0.1-0.3c0-0.2,0.1-0.4,0.2-0.5
			c0.1-0.1,0.1-0.8,0.1-2c0-1.4-0.1-2.1-0.2-2.2C360,785.8,360,785.7,360,785.5z M357.9,789.7c-0.1,0.1-0.2,0.2-0.2,0.5
			s-0.1,0.5-0.2,0.6c-0.3,0.3-0.5,0.6-0.6,1c-0.1,0.2-0.1,0.2-0.2,0.2c-0.1,0-0.3,0.2-0.7,0.5c-0.4,0.3-0.7,0.5-0.9,0.5
			c-0.2,0-0.3,0.1-0.4,0.2c-0.1,0.1-0.1,0.1-0.2,0c-0.1-0.1-0.1-0.2-0.3-0.2c-0.1,0-0.2,0.1-0.3,0.2c0,0.1-0.3,0.1-0.9,0.1
			c-0.6,0-1.1,0-1.6,0c-0.2,0-0.2-0.1-0.2-0.4c0-0.2-0.1-0.4-0.2-0.4s-0.2,0-0.2-0.1c0-0.1,0.1-0.1,0.2-0.2c0.1-0.1,0.2-0.2,0.2-0.3
			c0-0.1,0.1-0.2,0.2-0.2c0.1,0,0.1-0.1,0.2-0.4c0.1-0.2,0.1-0.5,0.1-0.8c0-0.1,0-0.3-0.1-0.5c0,0,0,0,0-0.1c0,0,0-0.1,0-0.1
			c0-0.2,0.1-0.4,0.2-0.6l0.2-0.4c0,0-0.1-0.1-0.2-0.1c-0.1,0-0.2-0.3-0.2-0.8c0-0.5,0-1,0-1.5c0-1.4,0.1-2.2,0.1-2.4
			c0-0.3,0.1-0.5,0.4-0.8c0.2-0.2,0.4-0.3,0.6-0.3c0.1,0,0.2,0,0.3,0c0.1,0,0.3,0,0.7,0.1c0.4,0,0.7,0.1,1,0.1
			c0.3,0.1,0.4,0.1,0.5,0.2c0.1,0.1,0.2,0.2,0.4,0.2c0.2,0,0.4,0.1,0.4,0.3c0.1,0.2,0.2,0.3,0.3,0.3c0.2,0,0.2,0,0.2,0.1
			c0,0.1,0.1,0.2,0.3,0.2c0.2,0.1,0.3,0.2,0.3,0.3c0,0.1,0.1,0.3,0.2,0.4c0.1,0.1,0.2,0.4,0.3,0.9c0,0.4,0.1,0.7,0.2,0.8
			c0.1,0.1,0.1,0.5,0.1,1.3S358,789.7,357.9,789.7z"/>
		<path d="M369.8,788.7c0-0.1,0-0.2-0.1-0.2c-0.1,0-0.1,0-0.1,0.1l0.1,0.2C369.8,789,369.8,788.9,369.8,788.7z"/>
		<path d="M375.7,789.5c0-0.6-0.1-0.9-0.2-1.1c-0.1-0.2-0.3-0.4-0.6-0.5c-0.3-0.1-0.5-0.3-0.5-0.4c-0.1-0.1-0.3-0.3-0.9-0.6
			c-0.5-0.3-1-0.5-1.3-0.6c-0.2-0.1-0.5-0.2-0.9-0.5c-0.4-0.3-0.6-0.4-0.6-0.5c0-0.1-0.1-0.2-0.2-0.3c-0.2-0.1-0.2-0.2-0.2-0.3
			c0,0,0-0.1,0-0.1c0.1-0.1,0.1-0.2,0.1-0.3c0-0.1,0-0.3-0.1-0.6c0-0.1,0-0.2,0-0.2c0,0,0.2-0.1,0.3-0.1c0.3,0,0.4-0.1,0.4-0.2
			c0-0.1,0.1-0.2,0.4-0.4c0.3-0.2,0.4-0.3,0.4-0.3c0-0.1,0.1-0.1,0.4-0.2c0.1,0,0.1,0,0.2,0c0.4,0,0.8,0.2,1.2,0.5
			c0.5,0.3,0.7,0.6,0.7,0.9c0,0.2,0.1,0.4,0.3,0.5c0.2,0.1,0.3,0.3,0.3,0.4c0,0.1,0.1,0.3,0.2,0.5c0.2,0.2,0.3,0.3,0.4,0.3
			c0,0,0,0,0.1,0c0.1-0.1,0.1-0.7,0.2-2v-0.8c0-0.6-0.1-0.9-0.2-0.9c-0.1,0-0.1,0-0.1,0c-0.3,0.1-0.6,0.2-0.8,0.2
			c-0.3,0-0.6-0.1-1-0.3c-0.4-0.2-0.6-0.3-0.7-0.3c0,0-0.1,0-0.2,0.1c-0.3,0.1-0.6,0.1-0.8,0.1c-0.3,0-0.4,0-0.5,0.1
			c0,0.1-0.1,0.2-0.3,0.2c-0.2,0-0.4-0.1-0.5-0.2c-0.1-0.1-0.3-0.2-0.5-0.2h0c-0.1,0-0.1,0-0.1,0c-0.1,0-0.1,0-0.1,0
			c0,0,0.1,0,0.1,0c0.1,0.1,0.2,0.1,0.2,0.2c0,0.2-0.2,0.3-0.5,0.4c-0.3,0.1-0.4,0.2-0.4,0.4c0.1,0.2,0,0.3-0.2,0.4
			c-0.3,0.1-0.6,0.5-1.1,1.1c-0.1,0.2-0.2,0.4-0.2,0.6c0,0,0,0.3,0.1,0.8c0.1,0.7,0.3,1.1,0.4,1.3c0.1,0.2,0.4,0.4,0.7,0.7
			c0.4,0.3,0.6,0.4,0.8,0.4c0.1,0,0.3,0.1,0.6,0.4c0.4,0.3,0.9,0.6,1.7,0.8c0.5,0.1,0.8,0.3,1.1,0.6c0.2,0.2,0.3,0.4,0.5,0.7
			c0.1,0.3,0.2,0.5,0.2,0.7c0,0.1,0,0.1-0.1,0.2c-0.1,0-0.1,0.2-0.1,0.4c0.1,0.2,0,0.4-0.2,0.6c-0.1,0.1-0.2,0.3-0.2,0.4
			c0,0.2-0.5,0.4-1.4,0.5c-0.1,0-0.3,0-0.6,0c-0.9,0-1.7-0.4-2.2-1.2c-0.3-0.4-0.5-0.8-0.5-1c0,0,0-0.1,0-0.2c0-0.1,0-0.2,0-0.2
			c0,0-0.1-0.1-0.1-0.1c-0.1,0-0.1,0-0.1-0.1c0.1-0.3-0.1-0.5-0.4-0.6c-0.1,0-0.2-0.1-0.3-0.1c-0.3,0-0.4,0.2-0.5,0.5
			c-0.1,1.2-0.1,1.9-0.2,1.9c-0.1,0.1-0.1,0.4-0.2,0.8c0,0.1,0,0.3,0,0.4c0,0.2,0.1,0.4,0.3,0.6c0.1,0.1,0.2,0.2,0.3,0.2
			c0,0,0.1,0,0.2-0.2c0.1-0.2,0.2-0.3,0.2-0.4c0-0.3,0.2-0.3,0.5-0.1c0.9,0.5,1.8,0.7,2.9,0.7c0.5,0,1.1-0.1,1.6-0.2
			c0.6-0.1,1.1-0.3,1.4-0.6c0.3-0.3,0.5-0.5,0.5-0.5c0-0.1,0.1-0.2,0.2-0.3c0.2-0.1,0.3-0.4,0.3-0.9c0.1-0.5,0.1-0.7,0.2-0.7
			c0.1,0,0.1,0,0-0.1S375.7,790.2,375.7,789.5z M371.3,788C371.2,788,371.2,787.9,371.3,788c-0.1-0.1-0.1-0.1,0-0.1
			S371.4,787.9,371.3,788C371.4,787.9,371.3,788,371.3,788z"/>
		<polygon points="51.7,808.8 44,814 41.2,799.9 38.4,814 30.7,808.8 35.9,816.5 21.8,819.3 35.9,822 30.7,829.8 38.4,824.6 
			41.2,838.6 43.9,824.6 51.7,829.8 46.5,822 60.5,819.3 46.5,816.5 		"/>
		<polygon points="468.1,816.5 473.3,808.8 465.5,814 462.8,799.9 460,814 452.3,808.8 457.5,816.5 443.4,819.3 457.5,822 
			452.3,829.8 460,824.6 462.8,838.6 465.5,824.6 473.3,829.8 468.1,822 482.1,819.3 		"/>
		<polygon points="30.7,57.5 38.4,52.3 41.2,66.4 44,52.3 51.7,57.5 46.5,49.8 60.5,47 46.5,44.3 51.7,36.5 43.9,41.7 41.2,27.7 
			38.4,41.7 30.7,36.5 35.9,44.3 21.8,47 35.9,49.8 		"/>
		<polygon points="473.3,36.5 465.5,41.7 462.8,27.7 460,41.7 452.3,36.5 457.5,44.3 443.4,47 457.5,49.8 452.3,57.5 460,52.3 
			462.8,66.4 465.5,52.3 473.3,57.5 468.1,49.8 482.1,47 468.1,44.3 		"/>
		<ellipse transform="matrix(1 -3.060429e-03 3.060429e-03 1 -0.6219 0.694)" cx="226.4" cy="203.6" rx="1.3" ry="1.3"/>
		<path d="M133.2,208c0.3,0.1,0.8,0.2,1,0.3c0.6,0.5,0,0,0.4,0.6c0.7,1.4,0.8,2,2.6,2.3c2.1,0.4,4.4,0,6.6-0.1
			c5.3-0.3,10.6-0.5,15.9-0.6c2.9,0,5.8-0.1,8.7,0.1c1.5,0.1,2.9,0.1,4.3,0.5c2.2,0.6,3.2,1.4,3.1,3.6c-0.9,0.4-1.6,1.2-2,2.3
			c-0.3,1-0.1,2.1,0.6,2.9c0.5,0.5,1.3,0.7,1.7,1.2c0.5,0.7,0.4,1.5,0.2,2.3c-0.5,0-1,0-1.5,0c-0.4,0-0.7,0.3-0.7,0.7
			c0,1.1,0,2.2,0,3.4c-4.9,0.4-5.5,6.4-2,8.3c0,0,0,0.1,0,0.1c0,1.2,0,2.5,0,3.7c0,0.2,0.1,0.3,0.2,0.4c0,0,0,0,0,0.1c0,0,0,0,0,0
			c0.1,0.1,0.3,0.2,0.5,0.2c0.1,0,0.2,0,0.2,0c0,8.2,0.1,16.5,0.1,24.7c0.1,32.5,0.2,64.9,0.3,97.4c0,9.6,0.1,19.2,0.1,28.8
			c0,2.7,1.1,5.1,1.8,7.7c1.8,6.3,3.6,12.6,5.4,18.8c0,0,0,0,0,0c0,0,0,0.1,0.1,0.1c0,0,0,0.1,0.1,0.1c0,0,0,0.1,0.1,0.1
			c0.2,0.2,0.6,0.2,0.9,0c0,0,0.1,0,0.1-0.1c0,0,0-0.1,0.1-0.1c0,0,0-0.1,0.1-0.1c0,0,0,0,0,0c2-7.1,4-14.1,5.9-21.2
			c0.7-2.7,1.1-4.4,1.1-7.1c-0.1-27.6-0.2-55.2-0.3-82.7c-0.1-22.1-0.1-44.3-0.2-66.4c0.1,0,0.2,0,0.2,0c0.4,0,0.7-0.3,0.7-0.7
			c0-1.2,0-2.5,0-3.7c0,0,0,0,0,0c1.4-0.7,2.2-2,2.2-4c0-2.8-1.4-4.3-4.2-4.4c0,0,0,0,0,0c0-1.1,0-2.2,0-3.4c0-0.4-0.3-0.7-0.7-0.7
			c-0.4,0-0.8,0-1.2,0c-0.1-0.3-0.2-0.7-0.2-1.1c0-1.2,0.5-1.3,1.3-1.8c0.5-0.3,0.9-0.7,1.2-1.2c0.6-1.1,0.4-2.3-0.2-3.3
			c-0.4-0.6-0.9-1.1-1.5-1.4c0.1-2.3,1-3.2,3.5-3.7c1.4-0.3,3-0.3,4.5-0.3c2.8-0.1,5.7-0.1,8.5-0.1c5.1,0.1,10.2,0.3,15.3,0.5
			c2.2,0.1,4.6,0.4,6.7,0c0.6-0.1,1.2-0.3,1.6-0.8c0.6-0.6,0.3-1.2,0.7-1.8c0.4-0.6,2.5-1.1,3.4-2.2c1.4-1.7,1.5-4.1,1.6-6.2
			c0-0.3-0.3-0.7-0.7-0.7c-7.3,0.5-14.7,0.9-22,1.3c-5.2,0.2-10.5,0.4-15.7,0.4c-2,0-4,0-6-0.2c-2-0.2-2.9-0.1-3-2
			c1.7,0,3-0.8,3.5-2.5c0.4-1.5,0.7-3.7,0-5.1c-0.6-1.2-1.9-2.2-3.3-2.1c0.5-0.8,0.8-1.6,1-2.7c0.2-1.6-0.4-2.9-1.6-3.9
			c2.2-6.2,2.5-12.9,2.1-19.4c-0.3-4.5-0.7-9.5-2.3-13.8c1-1.1,1.3-2.8,0.9-4.2c-0.5-1.9-2.2-3-4.1-2.9c-2,0-3.6,1.3-4.1,3.2
			c-0.4,1.4-0.2,3,0.8,4c-1.6,4.3-2,9.3-2.2,13.8c-0.1,2.7-0.2,5.4,0,8.1c0,0.1,0,0.3,0,0.4c0.1,1.4,0.3,2.9,0.5,4.3
			c0,0.1,0,0.2,0,0.3c0.4,2.2,0.9,4.3,1.6,6.3c-1.1,0.9-1.5,2.2-1.5,3.6c0.1,1.2,0.4,2,0.9,2.9c0,0,0,0-0.1,0c-0.1,0-0.3,0-0.4,0
			c-2.5,1-3.1,3.1-3,5.6c0.1,2.4,1.4,4.1,3.8,4.3c0,1.8-1.2,1.7-3,1.9c-2,0.2-4,0.2-6,0.3c-5.2,0.1-10.5-0.1-15.7-0.3
			c-7.3-0.3-14.7-0.6-22-1.1c-0.4,0-0.7,0.3-0.7,0.7c0.1,2.2,0.2,4.7,1.8,6.4C131.9,207.2,132.5,207.7,133.2,208z M149.9,209.6
			c0.4-0.8,1.3-1.2,2.3-1.1c0.8,0,1.6,0.2,2,1C152.8,209.4,151.4,209.5,149.9,209.6z M176,396.1c-0.8-2.9-1.1-3.9-1.1-6.9
			c-0.1-27.7-0.2-55.4-0.3-83.1c-0.1-21.9-0.1-43.9-0.2-65.8c1.9,0,3.8,0,5.7,0c0,7.1,0,14.3,0.1,21.4c0.1,31.9,0.2,63.9,0.3,95.8
			c0.1,18.4,0.1,36.8,0.2,55.2C179.2,407.1,177.6,401.6,176,396.1z M186,398.7c-1.3,4.6-2.6,9.3-3.9,13.9c0-5.7,0-11.4-0.1-17.1
			c-0.1-31.9-0.2-63.9-0.3-95.8c-0.1-19.8-0.1-39.6-0.2-59.4c1.9,0,3.8,0,5.7,0c0,8.1,0,16.2,0.1,24.2c0.1,32.4,0.2,64.9,0.3,97.3
			c0,9.7,0.1,19.4,0.1,29C187.7,393.5,186.8,395.8,186,398.7z M173.6,238.9c0-0.8,0-1.6,0-2.3c4.9,0,9.7,0,14.6,0c0,0.8,0,1.6,0,2.3
			C183.3,238.9,178.4,238.9,173.6,238.9z M187.2,228.8c1.6,0.2,2.9,0.7,3.1,2.4c0.3,1.9-0.3,3.6-2.8,3.8c-3,0-6,0-9,0
			c-1.3,0-2.7,0.1-4,0c-1.4-0.1-2.7-0.4-3.1-1.9c-0.6-2.2,0.5-3.9,2.8-4.2c2.8-0.3,5.9,0,8.7,0C184.3,228.8,185.9,228.6,187.2,228.8
			z M186.1,224.8c0,0.8,0,1.6,0,2.3c-3.5,0-7,0-10.5,0c0-0.8,0-1.6,0-2.3C179.1,224.8,182.6,224.8,186.1,224.8z M186.7,217.2
			c0.6,1.9-1.7,2.2-2.4,3.6c-0.4,0.8-0.4,1.7-0.1,2.6c-2.1,0-4.2,0-6.3,0c0.3-1.1,0.2-2.4-0.6-3.3c-0.8-0.8-2.2-1.1-2-2.5
			c0.3-1.6,2.1-2.3,3.5-1.7c0.2,0.1,0.3,0.1,0.4,0.2c-0.8,1.7-0.8,5.1,1.5,5.4c2.7,0.4,3-3.2,2.2-5.2c0.5-0.3,1-0.6,1.5-0.7
			c0.3-0.1,0.6,0,0.8,0c0.1,0,0.1,0,0.2,0.1C186,216,186.5,216.5,186.7,217.2z M180.4,216.7c0.4,0.1,0.7,0.2,1.1,0.1
			c0.3,0.6,0.4,1.4,0.4,2.1c-0.1,0.6-0.4,1.6-1.2,1.3C179.6,219.7,179.9,217.6,180.4,216.7z M207.4,209.2c0.3-0.7,1.2-1,2-1
			c1,0,1.8,0.3,2.3,1.1C210.2,209.3,208.8,209.3,207.4,209.2z M230.5,200.7c-0.2,3-1,5.6-4.3,6.2c-2.3-2.4-7.9-1.7-8.7-5.4
			C221.8,201.3,226.2,201,230.5,200.7z M205.5,202c3.6-0.1,7.1-0.3,10.7-0.5c0.4,1.8,1.6,2.9,3.2,3.7c1.8,0.9,5,1.2,6.1,2.9
			c-0.4,1.5-3.1,1.7-5.7,1.6c-2.3-3.1-5.2-5.2-9.1-5.4c-2.8-0.2-5.5,0.7-8.2,1c-2.8,0.3-7.3-0.4-9.1-3.1
			C197.3,202.3,201.4,202.2,205.5,202z M177.8,145.4c0.4-1.4,1.6-2.2,3.1-2.1c2.4,0.2,3.7,3.5,1.7,5.1c-0.1,0.1-0.2,0.2-0.3,0.3
			c0,0.1,0,0.3,0.1,0.4c0.1,0.2,0.1,0.4,0.2,0.6c-1.3,1.4-3,2.1-4.8,2.3c0.3-1,0.6-2,0.9-2.9c0.1-0.3,0-0.6-0.3-0.7c0,0,0,0-0.1,0
			C177.6,147.7,177.5,146.3,177.8,145.4z M177.5,153.4c2.1-0.1,4.1-0.8,5.6-2.2c0.3,0.8,0.5,1.7,0.7,2.6c-0.1,0-0.1,0.1-0.1,0.1
			c-1.8,1.8-4.1,2.6-6.7,2.7C177.1,155.6,177.3,154.5,177.5,153.4z M176.8,158c2.7-0.1,5.2-0.9,7.3-2.7c0.2,1.1,0.3,2.2,0.4,3.3
			c-2.3,1.8-5.1,2.5-7.9,2.6C176.6,160.2,176.7,159.1,176.8,158z M176.4,162.9c0-0.1,0-0.2,0-0.3c2.9-0.1,5.8-0.8,8.2-2.4
			c0.1,0.9,0.1,1.8,0.2,2.7c0,0,0,0.1,0,0.1c-0.1,0-0.1,0.1-0.2,0.1c-2.4,1.9-5.4,2.6-8.3,2.7C176.3,164.8,176.4,163.9,176.4,162.9z
			 M176.3,167.2c3.1-0.2,6.1-0.9,8.6-2.6c0,1,0.1,2,0.1,3.1c0,0,0,0,0,0c-2.5,1.9-5.5,2.6-8.6,2.7
			C176.3,169.3,176.3,168.3,176.3,167.2z M176.5,171.8c3-0.2,5.9-0.8,8.5-2.4c0,1-0.1,2-0.2,3c-2.3,1.9-5.1,2.5-8,2.7
			C176.7,173.9,176.6,172.8,176.5,171.8z M177.1,176.3c2.7-0.2,5.3-0.8,7.6-2.3c-0.1,0.9-0.3,1.9-0.4,2.8c-1.7,1.8-4,2.5-6.4,2.7
			C177.5,178.5,177.3,177.4,177.1,176.3z M183.7,179c-0.3,1-0.6,2-0.9,3c0,0.1,0,0.1,0,0.2c-1.2,0.4-2.9,0.6-4.2-0.1c0,0,0,0,0-0.1
			c-0.1-0.4-0.3-0.7-0.4-1.1C180.2,180.7,182.1,180.1,183.7,179z M178.1,183.4c1.6,0.8,3.5,0.7,5.2,0.1c1.8,1.8,0.9,3.9-0.3,5.8
			c-1.5,0.2-2.9,0.4-4.3,0.1C177.5,187.6,176.1,184.9,178.1,183.4z M172.2,202.2c3.1-0.2,6.7,0.1,6.2-4c-0.1-0.5-0.6-0.7-1-0.6
			c-0.1,0-0.1,0-0.2,0c-1.9-0.1-2.6-1.6-2.6-3.3c0-1.7,0.2-3.3,2-4c0,0,0,0,0.1,0c0,0,0,0,0.1,0c1.5,0.6,3.1,0.7,4.8,0.6
			c1.1-0.1,2.4-0.6,3.5-0.5c1.5,0.1,2.1,1.6,2,3c-0.1,1.9-0.2,4-2.7,3.9c-0.1,0-0.2,0-0.3,0.1c-0.4-0.1-0.9,0.1-0.9,0.6
			c-0.1,1.8-0.1,3.1,1.7,3.7c1.4,0.4,3,0.4,4.5,0.5c0.8,0,1.5,0.1,2.3,0.1c1.7,3.3,6.3,4.7,9.8,4.6c3.1-0.1,6-1.2,9.2-1.1
			c3.1,0.2,5.4,1.7,7.3,3.9c-1-0.1-1.9-0.2-2.5-0.2c-0.8,0-1.6-0.1-2.4-0.1c-0.5-1.8-2-2.6-3.7-2.5c-1.5,0-3,0.7-3.4,2.2
			c0,0,0,0.1,0,0.1c-1,0-1.9-0.1-2.9-0.1c-4.2-0.1-8.6-0.3-12.8,0.3c-3.4,0.4-5.2,1.7-5.5,4.8c0,0-0.1,0-0.1,0
			c-0.7,0-1.2,0.2-1.7,0.5c-0.4,0.2-0.9,0.6-1.3,0.7c-0.9,0.2-1.6-0.3-2.3-0.6c-0.7-0.3-1.3-0.4-2-0.4c0.1-1.1,0.1-2.2-0.8-3.1
			c-1.2-1.1-3.8-1.7-5.3-1.9c-4.1-0.5-8.3-0.3-12.4-0.2c-1.1,0-2.2,0.1-3.3,0.1c0,0,0-0.1,0-0.1c-0.4-1.5-1.9-2.2-3.4-2.2
			c-1.8,0-3.3,0.8-3.7,2.6c-0.8,0-1.6,0.1-2.4,0.1c-0.6,0-1.5,0.1-2.5,0.2c2-2.4,4.5-3.9,7.8-4c2.9-0.1,5.8,0.9,8.7,1
			c3.5,0.1,8.1-1.3,9.7-4.6C170.6,202.3,171.4,202.3,172.2,202.2z M145.4,201.8c3.6,0.2,7.1,0.3,10.7,0.4c4.1,0.1,8.2,0.2,12.3,0.2
			c-1.9,3-7,3.5-10,3.1c-2.4-0.3-4.8-1-7.3-0.8c-4,0.3-6.8,2.3-9.1,5.5c-2.6,0.1-5.3-0.1-5.7-1.6c1-1.8,4.3-2.1,6-3
			C143.8,204.7,145,203.6,145.4,201.8z M144,201.7c-0.8,3.7-6.4,3-8.6,5.4c-3.3-0.6-4.2-3.1-4.4-6.1
			C135.3,201.3,139.7,201.5,144,201.7z"/>
		<ellipse transform="matrix(1 -3.199538e-03 3.199538e-03 1 -0.6515 0.4332)" cx="135.1" cy="203.8" rx="1.3" ry="1.3"/>
		<path d="M179.2,207.5c1,1,0.9,6.3,1.6,6.3c0.7,0,0.5-5.2,1.6-6.3c1.1-1.1,4.8-0.7,4.8-1.4c0-0.7-3.7-0.2-4.8-1.4
			c-1.2-1.1-0.9-6.3-1.6-6.3c-0.7,0-0.6,5.3-1.6,6.3s-4.8,0.8-4.8,1.4C174.4,206.7,178.2,206.4,179.2,207.5z"/>
		<ellipse transform="matrix(1 -3.199538e-03 3.199538e-03 1 -0.6494 1.1814)" cx="368.9" cy="203.6" rx="1.3" ry="1.3"/>
		<path d="M275.7,208c0.3,0.1,0.8,0.2,1,0.3c0.6,0.5,0,0,0.4,0.6c0.7,1.4,0.8,2,2.6,2.3c2.1,0.4,4.4,0,6.6-0.1
			c5.3-0.3,10.6-0.5,15.9-0.6c2.9,0,5.8-0.1,8.7,0.1c1.5,0.1,2.9,0.1,4.3,0.5c2.2,0.6,3.2,1.4,3.1,3.6c-0.9,0.4-1.6,1.2-2,2.3
			c-0.3,1-0.1,2.1,0.6,2.9c0.5,0.5,1.3,0.7,1.7,1.2c0.5,0.7,0.4,1.5,0.2,2.3c-0.5,0-1,0-1.5,0c-0.4,0-0.7,0.3-0.7,0.7
			c0,1.1,0,2.2,0,3.4c-4.9,0.4-5.5,6.4-2,8.3c0,0,0,0.1,0,0.1c0,1.2,0,2.5,0,3.7c0,0.2,0.1,0.3,0.2,0.4c0,0,0,0,0,0.1c0,0,0,0,0,0
			c0.1,0.1,0.3,0.2,0.5,0.2c0.1,0,0.2,0,0.2,0c0,8.2,0.1,16.5,0.1,24.7c0.1,32.5,0.2,64.9,0.3,97.4c0,9.6,0.1,19.2,0.1,28.8
			c0,2.7,1.1,5.1,1.8,7.7c1.8,6.3,3.6,12.6,5.4,18.8c0,0,0,0,0,0c0,0,0,0.1,0.1,0.1c0,0,0,0.1,0.1,0.1c0,0,0,0.1,0.1,0.1
			c0.2,0.2,0.6,0.2,0.9,0c0,0,0.1,0,0.1-0.1c0,0,0-0.1,0.1-0.1c0,0,0-0.1,0.1-0.1c0,0,0,0,0,0c2-7.1,4-14.1,5.9-21.2
			c0.7-2.7,1.1-4.4,1.1-7.1c-0.1-27.6-0.2-55.2-0.3-82.7c-0.1-22.1-0.1-44.3-0.2-66.4c0.1,0,0.2,0,0.2,0c0.4,0,0.7-0.3,0.7-0.7
			c0-1.2,0-2.5,0-3.7c0,0,0,0,0,0c1.4-0.7,2.2-2,2.2-4c0-2.8-1.4-4.3-4.2-4.4c0,0,0,0,0,0c0-1.1,0-2.2,0-3.4c0-0.4-0.3-0.7-0.7-0.7
			c-0.4,0-0.8,0-1.2,0c-0.1-0.3-0.2-0.7-0.2-1.1c0-1.2,0.5-1.3,1.3-1.8c0.5-0.3,0.9-0.7,1.2-1.2c0.6-1.1,0.4-2.3-0.2-3.3
			c-0.4-0.6-0.9-1.1-1.5-1.4c0.1-2.3,1-3.2,3.5-3.7c1.4-0.3,3-0.3,4.5-0.3c2.8-0.1,5.7-0.1,8.5-0.1c5.1,0.1,10.2,0.3,15.3,0.5
			c2.2,0.1,4.6,0.4,6.7,0c0.6-0.1,1.2-0.3,1.6-0.8c0.6-0.6,0.3-1.2,0.7-1.8c0.4-0.6,2.5-1.1,3.4-2.2c1.4-1.7,1.5-4.1,1.6-6.2
			c0-0.3-0.3-0.7-0.7-0.7c-7.3,0.5-14.7,0.9-22,1.3c-5.2,0.2-10.5,0.4-15.7,0.4c-2,0-4,0-6-0.2c-2-0.2-2.9-0.1-3-2
			c1.7,0,3-0.8,3.5-2.5c0.4-1.5,0.7-3.7,0-5.1c-0.6-1.2-1.9-2.2-3.3-2.1c0.5-0.8,0.8-1.6,1-2.7c0.2-1.6-0.4-2.9-1.6-3.9
			c2.2-6.2,2.5-12.9,2.1-19.4c-0.3-4.5-0.7-9.5-2.3-13.8c1-1.1,1.3-2.8,0.9-4.2c-0.5-1.9-2.2-3-4.1-2.9c-2,0-3.6,1.3-4.1,3.2
			c-0.4,1.4-0.2,3,0.8,4c-1.6,4.3-2,9.3-2.2,13.8c-0.1,2.7-0.2,5.4,0,8.1c0,0.1,0,0.3,0,0.4c0.1,1.4,0.3,2.9,0.5,4.3
			c0,0.1,0,0.2,0,0.3c0.4,2.2,0.9,4.3,1.6,6.3c-1.1,0.9-1.5,2.2-1.5,3.6c0.1,1.2,0.4,2,0.9,2.9c0,0,0,0-0.1,0c-0.1,0-0.3,0-0.4,0
			c-2.5,1-3.1,3.1-3,5.6c0.1,2.4,1.4,4.1,3.8,4.3c0,1.8-1.2,1.7-3,1.9c-2,0.2-4,0.2-6,0.3c-5.2,0.1-10.5-0.1-15.7-0.3
			c-7.3-0.3-14.7-0.6-22-1.1c-0.4,0-0.7,0.3-0.7,0.7c0.1,2.2,0.2,4.7,1.8,6.4C274.3,207.2,275,207.7,275.7,208z M292.4,209.6
			c0.4-0.8,1.3-1.2,2.3-1.1c0.8,0,1.6,0.2,2,1C295.2,209.4,293.8,209.5,292.4,209.6z M318.5,396.1c-0.8-2.9-1.1-3.9-1.1-6.9
			c-0.1-27.7-0.2-55.4-0.3-83.1c-0.1-21.9-0.1-43.9-0.2-65.8c1.9,0,3.8,0,5.7,0c0,7.1,0,14.3,0.1,21.4c0.1,31.9,0.2,63.9,0.3,95.8
			c0.1,18.4,0.1,36.8,0.2,55.2C321.6,407.1,320,401.6,318.5,396.1z M328.4,398.7c-1.3,4.6-2.6,9.3-3.9,13.9c0-5.7,0-11.4-0.1-17.1
			c-0.1-31.9-0.2-63.9-0.3-95.8c-0.1-19.8-0.1-39.6-0.2-59.4c1.9,0,3.8,0,5.7,0c0,8.1,0.1,16.2,0.1,24.2c0.1,32.4,0.2,64.9,0.3,97.3
			c0,9.7,0.1,19.4,0.1,29C330.2,393.5,329.2,395.8,328.4,398.7z M316,238.9c0-0.8,0-1.6,0-2.3c4.9,0,9.7,0,14.6,0c0,0.8,0,1.6,0,2.3
			C325.8,238.9,320.9,238.9,316,238.9z M329.7,228.8c1.6,0.2,2.9,0.7,3.1,2.4c0.3,1.9-0.3,3.6-2.8,3.8c-3,0-6,0-9,0
			c-1.3,0-2.7,0.1-4,0c-1.4-0.1-2.7-0.4-3.1-1.9c-0.6-2.2,0.5-3.9,2.8-4.2c2.8-0.3,5.9,0,8.7,0C326.8,228.8,328.3,228.6,329.7,228.8
			z M328.5,224.8c0,0.8,0,1.6,0,2.3c-3.5,0-7,0-10.5,0c0-0.8,0-1.6,0-2.3C321.5,224.8,325,224.8,328.5,224.8z M329.2,217.2
			c0.6,1.9-1.7,2.2-2.4,3.6c-0.4,0.8-0.4,1.7-0.1,2.6c-2.1,0-4.2,0-6.3,0c0.3-1.1,0.2-2.4-0.6-3.3c-0.8-0.8-2.2-1.1-2-2.5
			c0.3-1.6,2.1-2.3,3.4-1.7c0.2,0.1,0.3,0.1,0.4,0.2c-0.8,1.7-0.8,5.1,1.5,5.4c2.7,0.4,3-3.2,2.2-5.2c0.5-0.3,1-0.6,1.5-0.7
			c0.3-0.1,0.6,0,0.8,0c0.1,0,0.1,0,0.2,0.1C328.4,216,329,216.5,329.2,217.2z M322.8,216.7c0.4,0.1,0.7,0.2,1.1,0.1
			c0.3,0.6,0.4,1.4,0.4,2.1c-0.1,0.6-0.4,1.6-1.2,1.3C322,219.7,322.4,217.6,322.8,216.7z M349.8,209.2c0.3-0.7,1.2-1,2-1
			c1,0,1.8,0.3,2.3,1.1C352.7,209.3,351.2,209.3,349.8,209.2z M372.9,200.7c-0.2,3-1,5.6-4.3,6.2c-2.3-2.4-7.9-1.7-8.7-5.4
			C364.3,201.3,368.6,201,372.9,200.7z M347.9,202c3.6-0.1,7.1-0.3,10.7-0.5c0.4,1.8,1.6,2.9,3.2,3.7c1.8,0.9,5,1.2,6.1,2.9
			c-0.4,1.5-3.1,1.7-5.7,1.6c-2.3-3.1-5.2-5.2-9.1-5.4c-2.8-0.2-5.5,0.7-8.2,1c-2.8,0.3-7.3-0.4-9.1-3.1
			C339.8,202.3,343.9,202.2,347.9,202z M320.3,145.4c0.4-1.4,1.6-2.2,3.1-2.1c2.4,0.2,3.7,3.5,1.7,5.1c-0.1,0.1-0.2,0.2-0.3,0.3
			c0,0.1,0,0.3,0.1,0.4c0.1,0.2,0.1,0.4,0.2,0.6c-1.3,1.4-3,2.1-4.8,2.3c0.3-1,0.6-2,0.9-2.9c0.1-0.3,0-0.6-0.3-0.7c0,0,0,0-0.1,0
			C320,147.7,320,146.3,320.3,145.4z M320,153.4c2.1-0.1,4.1-0.8,5.6-2.2c0.3,0.8,0.5,1.7,0.7,2.6c-0.1,0-0.1,0.1-0.1,0.1
			c-1.8,1.8-4.1,2.6-6.7,2.7C319.6,155.6,319.7,154.5,320,153.4z M319.3,158c2.7-0.1,5.2-0.9,7.3-2.7c0.2,1.1,0.3,2.2,0.4,3.3
			c-2.3,1.8-5.1,2.5-7.9,2.6C319.1,160.2,319.2,159.1,319.3,158z M318.9,162.9c0-0.1,0-0.2,0-0.3c2.9-0.1,5.8-0.8,8.2-2.4
			c0.1,0.9,0.1,1.8,0.2,2.7c0,0,0,0.1,0,0.1c-0.1,0-0.1,0.1-0.2,0.1c-2.4,1.9-5.4,2.6-8.3,2.7C318.8,164.8,318.8,163.9,318.9,162.9z
			 M318.8,167.2c3.1-0.2,6.1-0.9,8.6-2.6c0,1,0.1,2,0.1,3.1c0,0,0,0,0,0c-2.5,1.9-5.5,2.6-8.6,2.7
			C318.8,169.3,318.8,168.3,318.8,167.2z M318.9,171.8c3-0.2,5.9-0.8,8.5-2.4c0,1-0.1,2-0.2,3c-2.3,1.9-5.1,2.5-8,2.7
			C319.1,173.9,319,172.8,318.9,171.8z M319.5,176.3c2.7-0.2,5.3-0.8,7.6-2.3c-0.1,0.9-0.3,1.9-0.4,2.8c-1.7,1.8-4,2.5-6.4,2.7
			C320,178.5,319.7,177.4,319.5,176.3z M326.2,179c-0.3,1-0.6,2-0.9,3c0,0.1,0,0.1,0,0.2c-1.2,0.4-2.9,0.6-4.2-0.1c0,0,0,0,0-0.1
			c-0.1-0.4-0.3-0.7-0.4-1.1C322.6,180.7,324.5,180.1,326.2,179z M320.6,183.4c1.6,0.8,3.5,0.7,5.2,0.1c1.8,1.8,0.9,3.9-0.4,5.8
			c-1.5,0.2-2.9,0.4-4.3,0.1C320,187.6,318.5,184.9,320.6,183.4z M314.6,202.2c3.1-0.2,6.7,0.1,6.2-4c-0.1-0.5-0.6-0.7-1-0.6
			c-0.1,0-0.1,0-0.2,0c-1.9-0.1-2.6-1.6-2.6-3.3c0-1.7,0.2-3.3,2-4c0,0,0,0,0.1,0c0,0,0,0,0.1,0c1.5,0.6,3.1,0.7,4.8,0.6
			c1.1-0.1,2.4-0.6,3.5-0.5c1.5,0.1,2.1,1.6,2,3c-0.1,1.9-0.2,4-2.7,3.9c-0.1,0-0.2,0-0.3,0.1c-0.4-0.1-0.9,0.1-0.9,0.6
			c-0.1,1.8-0.1,3.1,1.7,3.7c1.4,0.4,3,0.4,4.5,0.5c0.8,0,1.5,0.1,2.3,0.1c1.7,3.3,6.3,4.7,9.8,4.6c3.1-0.1,6-1.2,9.2-1.1
			c3.1,0.2,5.4,1.7,7.3,3.9c-1-0.1-1.9-0.2-2.5-0.2c-0.8,0-1.6-0.1-2.4-0.1c-0.5-1.8-2-2.6-3.7-2.5c-1.5,0-3,0.7-3.4,2.2
			c0,0,0,0.1,0,0.1c-1,0-1.9-0.1-2.9-0.1c-4.2-0.1-8.6-0.3-12.8,0.3c-3.4,0.4-5.2,1.7-5.5,4.8c0,0-0.1,0-0.1,0
			c-0.7,0-1.2,0.2-1.7,0.5c-0.4,0.2-0.9,0.6-1.3,0.7c-0.9,0.2-1.6-0.3-2.3-0.6c-0.7-0.3-1.3-0.4-2-0.4c0.1-1.1,0.1-2.2-0.8-3.1
			c-1.2-1.1-3.8-1.7-5.3-1.9c-4.1-0.5-8.3-0.3-12.4-0.2c-1.1,0-2.2,0.1-3.3,0.1c0,0,0-0.1,0-0.1c-0.4-1.5-1.9-2.2-3.4-2.2
			c-1.8,0-3.3,0.8-3.7,2.6c-0.8,0-1.6,0.1-2.4,0.1c-0.6,0-1.5,0.1-2.5,0.2c2-2.4,4.5-3.9,7.8-4c2.9-0.1,5.8,0.9,8.7,1
			c3.5,0.1,8.1-1.3,9.7-4.6C313.1,202.3,313.8,202.3,314.6,202.2z M287.8,201.8c3.6,0.2,7.1,0.3,10.7,0.4c4.1,0.1,8.2,0.2,12.3,0.2
			c-1.9,3-7,3.5-10,3.1c-2.4-0.3-4.8-1-7.3-0.8c-4,0.3-6.8,2.3-9.1,5.5c-2.6,0.1-5.3-0.1-5.7-1.6c1-1.8,4.3-2.1,6-3
			C286.2,204.7,287.4,203.6,287.8,201.8z M286.5,201.7c-0.8,3.7-6.4,3-8.6,5.4c-3.3-0.6-4.2-3.1-4.4-6.1
			C277.8,201.3,282.1,201.5,286.5,201.7z"/>
		<ellipse transform="matrix(1 -3.060429e-03 3.060429e-03 1 -0.6226 0.8503)" cx="277.5" cy="203.8" rx="1.3" ry="1.3"/>
		<path d="M321.6,207.5c1,1,0.9,6.3,1.6,6.3c0.7,0,0.5-5.2,1.6-6.3c1.1-1.1,4.8-0.7,4.8-1.4c0-0.7-3.7-0.2-4.8-1.4
			c-1.2-1.1-0.9-6.3-1.6-6.3c-0.7,0-0.6,5.3-1.6,6.3c-1,1-4.8,0.8-4.8,1.4C316.8,206.7,320.6,206.4,321.6,207.5z"/>
		<ellipse transform="matrix(1 -3.060217e-03 3.060217e-03 1 -1.5512 0.6954)" cx="226.4" cy="507.2" rx="1.3" ry="1.3"/>
		<path d="M231.2,502.9c-7.3,0.5-14.7,0.9-22,1.3c-5.2,0.2-10.5,0.4-15.7,0.4c-2,0-4,0-6-0.2c-2-0.2-2.9-0.1-3-2
			c1.7,0,3-0.8,3.5-2.5c0.4-1.5,0.7-3.7,0-5.1c-0.6-1.2-1.9-2.2-3.3-2.1c0.5-0.8,0.8-1.6,1-2.7c0.2-1.6-0.4-2.9-1.6-3.9
			c2.2-6.2,2.5-12.9,2.1-19.4c-0.3-4.5-0.7-9.5-2.3-13.8c1-1.1,1.3-2.8,0.9-4.2c-0.5-1.9-2.2-3-4.1-2.9c-2,0-3.6,1.3-4.1,3.2
			c-0.4,1.4-0.2,3,0.8,4c-1.6,4.3-2,9.3-2.2,13.8c-0.1,2.7-0.2,5.4,0,8.1c0,0.1,0,0.3,0,0.4c0.1,1.4,0.3,2.9,0.5,4.3
			c0,0.1,0,0.2,0,0.3c0.4,2.2,0.9,4.3,1.6,6.3c-1.1,0.9-1.5,2.2-1.5,3.6c0.1,1.2,0.4,2,0.9,2.9c0,0,0,0-0.1,0c-0.1,0-0.3,0-0.4,0
			c-2.5,1-3.1,3.1-3,5.6c0.1,2.4,1.4,4.1,3.8,4.3c0,1.8-1.2,1.7-3,1.9c-2,0.2-4,0.2-6,0.3c-5.2,0.1-10.5-0.1-15.7-0.3
			c-7.3-0.3-14.7-0.6-22-1.1c-0.4,0-0.7,0.3-0.7,0.7c0.1,2.2,0.2,4.7,1.8,6.4c0.5,0.6,1.1,1,1.9,1.3c0.3,0.1,0.8,0.2,1,0.3
			c0.6,0.5,0,0,0.4,0.6c0.7,1.4,0.8,2,2.6,2.3c2.1,0.4,4.4,0,6.6-0.1c5.3-0.3,10.6-0.5,15.9-0.6c2.9,0,5.8-0.1,8.7,0.1
			c1.5,0.1,2.9,0.1,4.3,0.5c2.2,0.6,3.2,1.4,3.1,3.6c-0.9,0.4-1.6,1.2-2,2.3c-0.3,1-0.1,2.1,0.6,2.9c0.5,0.5,1.3,0.7,1.7,1.2
			c0.5,0.7,0.4,1.5,0.2,2.3c-0.5,0-1,0-1.5,0c-0.4,0-0.7,0.3-0.7,0.7c0,1.1,0,2.2,0,3.4c-4.9,0.4-5.5,6.4-2,8.3c0,0,0,0.1,0,0.1
			c0,1.2,0,2.5,0,3.7c0,0.2,0.1,0.3,0.2,0.4c0,0,0,0,0,0.1c0,0,0,0,0,0c0.1,0.1,0.3,0.2,0.5,0.2c0.1,0,0.2,0,0.2,0
			c0,8.2,0.1,16.5,0.1,24.7c0.1,32.5,0.2,64.9,0.3,97.4c0,9.6,0.1,19.2,0.1,28.8c0,2.7,1.1,5.1,1.8,7.7c1.8,6.3,3.6,12.6,5.4,18.8
			c0,0,0,0,0,0c0,0,0,0.1,0.1,0.1c0,0,0,0.1,0.1,0.1c0,0,0,0.1,0.1,0.1c0.2,0.2,0.6,0.2,0.9,0c0,0,0.1,0,0.1-0.1c0,0,0-0.1,0.1-0.1
			c0,0,0-0.1,0.1-0.1c0,0,0,0,0,0c2-7.1,4-14.1,5.9-21.2c0.7-2.7,1.1-4.4,1.1-7.1c-0.1-27.6-0.2-55.2-0.3-82.7
			c-0.1-22.1-0.1-44.3-0.2-66.4c0.1,0,0.2,0,0.2,0c0.4,0,0.7-0.3,0.7-0.7c0-1.2,0-2.5,0-3.7c0,0,0,0,0,0c1.4-0.7,2.2-2,2.2-4
			c0-2.8-1.4-4.3-4.2-4.4c0,0,0,0,0,0c0-1.1,0-2.2,0-3.4c0-0.4-0.3-0.7-0.7-0.7c-0.4,0-0.8,0-1.2,0c-0.1-0.3-0.2-0.7-0.2-1.1
			c0-1.2,0.5-1.3,1.3-1.8c0.5-0.3,0.9-0.7,1.2-1.2c0.6-1.1,0.4-2.3-0.2-3.3c-0.4-0.6-0.9-1.1-1.5-1.4c0.1-2.3,1-3.2,3.5-3.7
			c1.4-0.3,3-0.3,4.5-0.3c2.8-0.1,5.7-0.1,8.5-0.1c5.1,0.1,10.2,0.3,15.3,0.5c2.2,0.1,4.6,0.4,6.7,0c0.6-0.1,1.2-0.3,1.6-0.8
			c0.6-0.6,0.3-1.2,0.7-1.8c0.4-0.6,2.5-1.1,3.4-2.2c1.4-1.7,1.5-4.1,1.6-6.2C231.9,503.3,231.6,502.9,231.2,502.9z M177.8,449.1
			c0.4-1.4,1.6-2.2,3.1-2.1c2.4,0.2,3.7,3.5,1.7,5.1c-0.1,0.1-0.2,0.2-0.3,0.3c0,0.1,0,0.3,0.1,0.4c0.1,0.2,0.1,0.4,0.2,0.6
			c-1.3,1.4-3,2.1-4.8,2.3c0.3-1,0.6-2,0.9-2.9c0.1-0.3,0-0.6-0.3-0.7c0,0,0,0-0.1,0C177.6,451.4,177.5,450,177.8,449.1z
			 M177.5,457.1c2.1-0.1,4.1-0.8,5.6-2.2c0.3,0.8,0.5,1.7,0.7,2.6c-0.1,0-0.1,0.1-0.1,0.1c-1.8,1.8-4.1,2.6-6.7,2.7
			C177.1,459.2,177.3,458.2,177.5,457.1z M176.8,461.7c2.7-0.1,5.2-0.9,7.3-2.7c0.2,1.1,0.3,2.2,0.4,3.3c-2.3,1.8-5.1,2.5-7.9,2.6
			C176.6,463.9,176.7,462.8,176.8,461.7z M176.4,466.6c0-0.1,0-0.2,0-0.3c2.9-0.1,5.8-0.8,8.2-2.4c0.1,0.9,0.1,1.8,0.2,2.7
			c0,0,0,0.1,0,0.1c-0.1,0-0.1,0.1-0.2,0.1c-2.4,1.9-5.4,2.6-8.3,2.7C176.3,468.5,176.4,467.6,176.4,466.6z M176.3,470.9
			c3.1-0.2,6.1-0.9,8.6-2.6c0,1,0.1,2,0.1,3.1c0,0,0,0,0,0c-2.5,1.9-5.5,2.6-8.6,2.7C176.3,473,176.3,471.9,176.3,470.9z
			 M176.5,475.4c3-0.2,5.9-0.8,8.5-2.4c0,1-0.1,2-0.2,3c-2.3,1.9-5.1,2.5-8,2.7C176.7,477.6,176.6,476.5,176.5,475.4z M177.1,480
			c2.7-0.2,5.3-0.8,7.6-2.3c-0.1,0.9-0.3,1.9-0.4,2.8c-1.7,1.8-4,2.5-6.4,2.7C177.5,482.2,177.3,481.1,177.1,480z M183.7,482.7
			c-0.3,1-0.6,2-0.9,3c0,0.1,0,0.1,0,0.2c-1.2,0.4-2.9,0.6-4.2-0.1c0,0,0,0,0-0.1c-0.1-0.4-0.3-0.7-0.4-1.1
			C180.2,484.4,182.1,483.8,183.7,482.7z M178.1,487c1.6,0.8,3.5,0.7,5.2,0.1c1.8,1.8,0.9,3.9-0.3,5.8c-1.5,0.2-2.9,0.4-4.3,0.1
			C177.5,491.3,176.1,488.6,178.1,487z M135.4,510.8c-3.3-0.6-4.2-3.1-4.4-6.1c4.3,0.3,8.7,0.5,13,0.7
			C143.2,509.1,137.6,508.4,135.4,510.8z M136.1,512.1c1-1.8,4.3-2.1,6-3c1.6-0.8,2.9-1.9,3.2-3.7c3.6,0.2,7.1,0.3,10.7,0.4
			c4.1,0.1,8.2,0.2,12.3,0.2c-1.9,3-7,3.5-10,3.1c-2.4-0.3-4.8-1-7.3-0.8c-4,0.3-6.8,2.3-9.1,5.5
			C139.2,513.8,136.5,513.7,136.1,512.1z M149.9,513.2c0.4-0.8,1.3-1.2,2.3-1.1c0.8,0,1.6,0.2,2,1
			C152.8,513.1,151.4,513.2,149.9,513.2z M176,699.8c-0.8-2.9-1.1-3.9-1.1-6.9c-0.1-27.7-0.2-55.4-0.3-83.1
			c-0.1-21.9-0.1-43.9-0.2-65.8c1.9,0,3.8,0,5.7,0c0,7.1,0,14.3,0.1,21.4c0.1,31.9,0.2,63.9,0.3,95.8c0.1,18.4,0.1,36.8,0.2,55.2
			C179.2,710.8,177.6,705.3,176,699.8z M186,702.4c-1.3,4.6-2.6,9.3-3.9,13.9c0-5.7,0-11.4-0.1-17.1c-0.1-31.9-0.2-63.9-0.3-95.8
			c-0.1-19.8-0.1-39.6-0.2-59.4c1.9,0,3.8,0,5.7,0c0,8.1,0,16.2,0.1,24.2c0.1,32.4,0.2,64.9,0.3,97.3c0,9.7,0.1,19.4,0.1,29
			C187.7,697.2,186.8,699.5,186,702.4z M173.6,542.6c0-0.8,0-1.6,0-2.3c4.9,0,9.7,0,14.6,0c0,0.8,0,1.6,0,2.3
			C183.3,542.5,178.4,542.6,173.6,542.6z M187.2,532.5c1.6,0.2,2.9,0.7,3.1,2.4c0.3,1.9-0.3,3.6-2.8,3.8c-3,0-6,0-9,0
			c-1.3,0-2.7,0.1-4,0c-1.4-0.1-2.7-0.4-3.1-1.9c-0.6-2.2,0.5-3.9,2.8-4.2c2.8-0.3,5.9,0,8.7,0C184.3,532.5,185.9,532.3,187.2,532.5
			z M186.1,528.4c0,0.8,0,1.6,0,2.3c-3.5,0-7,0-10.5,0c0-0.8,0-1.6,0-2.3C179.1,528.5,182.6,528.5,186.1,528.4z M186.7,520.9
			c0.6,1.9-1.7,2.2-2.4,3.6c-0.4,0.8-0.4,1.7-0.1,2.6c-2.1,0-4.2,0-6.3,0c0.3-1.1,0.2-2.4-0.6-3.3c-0.8-0.8-2.2-1.1-2-2.5
			c0.3-1.6,2.1-2.3,3.5-1.7c0.2,0.1,0.3,0.1,0.4,0.2c-0.8,1.7-0.8,5.1,1.5,5.4c2.7,0.4,3-3.2,2.2-5.2c0.5-0.3,1-0.6,1.5-0.7
			c0.3-0.1,0.6,0,0.8,0c0.1,0,0.1,0,0.2,0.1C186,519.7,186.5,520.2,186.7,520.9z M180.4,520.3c0.4,0.1,0.7,0.2,1.1,0.1
			c0.3,0.6,0.4,1.4,0.4,2.1c-0.1,0.6-0.4,1.6-1.2,1.3C179.6,523.4,179.9,521.3,180.4,520.3z M207.4,512.9c0.3-0.7,1.2-1,2-1
			c1,0,1.8,0.3,2.3,1.1C210.2,513,208.8,512.9,207.4,512.9z M215.5,513.2c-0.8,0-1.6-0.1-2.4-0.1c-0.5-1.8-2-2.6-3.7-2.5
			c-1.5,0-3,0.7-3.4,2.2c0,0,0,0.1,0,0.1c-1,0-1.9-0.1-2.9-0.1c-4.2-0.1-8.6-0.3-12.8,0.3c-3.4,0.4-5.2,1.7-5.5,4.8c0,0-0.1,0-0.1,0
			c-0.7,0-1.2,0.2-1.7,0.5c-0.4,0.2-0.9,0.6-1.3,0.7c-0.9,0.2-1.6-0.3-2.3-0.6c-0.7-0.3-1.3-0.4-2-0.4c0.1-1.1,0.1-2.2-0.8-3.1
			c-1.2-1.1-3.8-1.7-5.3-1.9c-4.1-0.5-8.3-0.3-12.4-0.2c-1.1,0-2.2,0.1-3.3,0.1c0,0,0-0.1,0-0.1c-0.4-1.5-1.9-2.2-3.4-2.2
			c-1.8,0-3.3,0.8-3.7,2.6c-0.8,0-1.6,0.1-2.4,0.1c-0.6,0-1.5,0.1-2.5,0.2c2-2.4,4.5-3.9,7.8-4c2.9-0.1,5.8,0.9,8.7,1
			c3.5,0.1,8.1-1.3,9.7-4.6c0.8,0,1.5-0.1,2.3-0.1c3.1-0.2,6.7,0.1,6.2-4c-0.1-0.5-0.6-0.7-1-0.6c-0.1,0-0.1,0-0.2,0
			c-1.9-0.1-2.6-1.6-2.6-3.3c0-1.7,0.2-3.3,2-4c0,0,0,0,0.1,0c0,0,0,0,0.1,0c1.5,0.6,3.1,0.7,4.8,0.6c1.1-0.1,2.4-0.6,3.5-0.5
			c1.5,0.1,2.1,1.6,2,3c-0.1,1.9-0.2,4-2.7,3.9c-0.1,0-0.2,0-0.3,0.1c-0.4-0.1-0.9,0.1-0.9,0.6c-0.1,1.8-0.1,3.1,1.7,3.7
			c1.4,0.4,3,0.4,4.5,0.5c0.8,0,1.5,0.1,2.3,0.1c1.7,3.3,6.3,4.7,9.8,4.6c3.1-0.1,6-1.2,9.2-1.1c3.1,0.2,5.4,1.7,7.3,3.9
			C216.9,513.3,216,513.2,215.5,513.2z M219.7,513.5c-2.3-3.1-5.2-5.2-9.1-5.4c-2.8-0.2-5.5,0.7-8.2,1c-2.8,0.3-7.3-0.4-9.1-3.1
			c4.1,0.1,8.2-0.1,12.2-0.2c3.6-0.1,7.1-0.3,10.7-0.5c0.4,1.8,1.6,2.9,3.2,3.7c1.8,0.9,5,1.2,6.1,2.9
			C225,513.4,222.3,513.6,219.7,513.5z M226.2,510.5c-2.3-2.4-7.9-1.7-8.7-5.4c4.3-0.2,8.7-0.5,13-0.8
			C230.3,507.4,229.5,509.9,226.2,510.5z"/>
		<ellipse transform="matrix(1 -3.199538e-03 3.199538e-03 1 -1.6232 0.4348)" cx="135.1" cy="507.5" rx="1.3" ry="1.3"/>
		<path d="M182.4,508.3c-1.2-1.1-0.9-6.3-1.6-6.3c-0.7,0-0.6,5.3-1.6,6.3s-4.8,0.8-4.8,1.4c0,0.6,3.8,0.4,4.8,1.4
			c1,1,0.9,6.3,1.6,6.3c0.7,0,0.5-5.2,1.6-6.3c1.1-1.1,4.8-0.7,4.8-1.4C187.2,509,183.5,509.5,182.4,508.3z"/>
		<ellipse transform="matrix(1 -3.199316e-03 3.199316e-03 1 -1.6209 1.1828)" cx="368.9" cy="507.2" rx="1.3" ry="1.3"/>
		<path d="M369.4,512c0.4-0.6,2.5-1.1,3.4-2.2c1.4-1.7,1.5-4.1,1.6-6.2c0-0.3-0.3-0.7-0.7-0.7c-7.3,0.5-14.7,0.9-22,1.3
			c-5.2,0.2-10.5,0.4-15.7,0.4c-2,0-4,0-6-0.2c-2-0.2-2.9-0.1-3-2c1.7,0,3-0.8,3.5-2.5c0.4-1.5,0.7-3.7,0-5.1
			c-0.6-1.2-1.9-2.2-3.3-2.1c0.5-0.8,0.8-1.6,1-2.7c0.2-1.6-0.4-2.9-1.6-3.9c2.2-6.2,2.5-12.9,2.1-19.4c-0.3-4.5-0.7-9.5-2.3-13.8
			c1-1.1,1.3-2.8,0.9-4.2c-0.5-1.9-2.2-3-4.1-2.9c-2,0-3.6,1.3-4.1,3.2c-0.4,1.4-0.2,3,0.8,4c-1.6,4.3-2,9.3-2.2,13.8
			c-0.1,2.7-0.2,5.4,0,8.1c0,0.1,0,0.3,0,0.4c0.1,1.4,0.3,2.9,0.5,4.3c0,0.1,0,0.2,0,0.3c0.4,2.2,0.9,4.3,1.6,6.3
			c-1.1,0.9-1.5,2.2-1.5,3.6c0.1,1.2,0.4,2,0.9,2.9c0,0,0,0-0.1,0c-0.1,0-0.3,0-0.4,0c-2.5,1-3.1,3.1-3,5.6c0.1,2.4,1.4,4.1,3.8,4.3
			c0,1.8-1.2,1.7-3,1.9c-2,0.2-4,0.2-6,0.3c-5.2,0.1-10.5-0.1-15.7-0.3c-7.3-0.3-14.7-0.6-22-1.1c-0.4,0-0.7,0.3-0.7,0.7
			c0.1,2.2,0.2,4.7,1.8,6.4c0.5,0.6,1.1,1,1.9,1.3c0.3,0.1,0.8,0.2,1,0.3c0.6,0.5,0,0,0.4,0.6c0.7,1.4,0.8,2,2.6,2.3
			c2.1,0.4,4.4,0,6.6-0.1c5.3-0.3,10.6-0.5,15.9-0.6c2.9,0,5.8-0.1,8.7,0.1c1.5,0.1,2.9,0.1,4.3,0.5c2.2,0.6,3.2,1.4,3.1,3.6
			c-0.9,0.4-1.6,1.2-2,2.3c-0.3,1-0.1,2.1,0.6,2.9c0.5,0.5,1.3,0.7,1.7,1.2c0.5,0.7,0.4,1.5,0.2,2.3c-0.5,0-1,0-1.5,0
			c-0.4,0-0.7,0.3-0.7,0.7c0,1.1,0,2.2,0,3.4c-4.9,0.4-5.5,6.4-2,8.3c0,0,0,0.1,0,0.1c0,1.2,0,2.5,0,3.7c0,0.2,0.1,0.3,0.2,0.4
			c0,0,0,0,0,0.1c0,0,0,0,0,0c0.1,0.1,0.3,0.2,0.5,0.2c0.1,0,0.2,0,0.2,0c0,8.2,0.1,16.5,0.1,24.7c0.1,32.5,0.2,64.9,0.3,97.4
			c0,9.6,0.1,19.2,0.1,28.8c0,2.7,1.1,5.1,1.8,7.7c1.8,6.3,3.6,12.6,5.4,18.8c0,0,0,0,0,0c0,0,0,0.1,0.1,0.1c0,0,0,0.1,0.1,0.1
			c0,0,0,0.1,0.1,0.1c0.2,0.2,0.6,0.2,0.9,0c0,0,0.1,0,0.1-0.1c0,0,0-0.1,0.1-0.1c0,0,0-0.1,0.1-0.1c0,0,0,0,0,0
			c2-7.1,4-14.1,5.9-21.2c0.7-2.7,1.1-4.4,1.1-7.1c-0.1-27.6-0.2-55.2-0.3-82.7c-0.1-22.1-0.1-44.3-0.2-66.4c0.1,0,0.2,0,0.2,0
			c0.4,0,0.7-0.3,0.7-0.7c0-1.2,0-2.5,0-3.7c0,0,0,0,0,0c1.4-0.7,2.2-2,2.2-4c0-2.8-1.4-4.3-4.2-4.4c0,0,0,0,0,0c0-1.1,0-2.2,0-3.4
			c0-0.4-0.3-0.7-0.7-0.7c-0.4,0-0.8,0-1.2,0c-0.1-0.3-0.2-0.7-0.2-1.1c0-1.2,0.5-1.3,1.3-1.8c0.5-0.3,0.9-0.7,1.2-1.2
			c0.6-1.1,0.4-2.3-0.2-3.3c-0.4-0.6-0.9-1.1-1.5-1.4c0.1-2.3,1-3.2,3.5-3.7c1.4-0.3,3-0.3,4.5-0.3c2.8-0.1,5.7-0.1,8.5-0.1
			c5.1,0.1,10.2,0.3,15.3,0.5c2.2,0.1,4.6,0.4,6.7,0c0.6-0.1,1.2-0.3,1.6-0.8C369.3,513.2,369,512.6,369.4,512z M320.3,449.1
			c0.4-1.4,1.6-2.2,3.1-2.1c2.4,0.2,3.7,3.5,1.7,5.1c-0.1,0.1-0.2,0.2-0.3,0.3c0,0.1,0,0.3,0.1,0.4c0.1,0.2,0.1,0.4,0.2,0.6
			c-1.3,1.4-3,2.1-4.8,2.3c0.3-1,0.6-2,0.9-2.9c0.1-0.3,0-0.6-0.3-0.7c0,0,0,0-0.1,0C320,451.4,320,450,320.3,449.1z M320,457.1
			c2.1-0.1,4.1-0.8,5.6-2.2c0.3,0.8,0.5,1.7,0.7,2.6c-0.1,0-0.1,0.1-0.1,0.1c-1.8,1.8-4.1,2.6-6.7,2.7
			C319.6,459.2,319.7,458.2,320,457.1z M319.3,461.7c2.7-0.1,5.2-0.9,7.3-2.7c0.2,1.1,0.3,2.2,0.4,3.3c-2.3,1.8-5.1,2.5-7.9,2.6
			C319.1,463.9,319.2,462.8,319.3,461.7z M318.9,466.6c0-0.1,0-0.2,0-0.3c2.9-0.1,5.8-0.8,8.2-2.4c0.1,0.9,0.1,1.8,0.2,2.7
			c0,0,0,0.1,0,0.1c-0.1,0-0.1,0.1-0.2,0.1c-2.4,1.9-5.4,2.6-8.3,2.7C318.8,468.5,318.8,467.6,318.9,466.6z M318.8,470.9
			c3.1-0.2,6.1-0.9,8.6-2.6c0,1,0.1,2,0.1,3.1c0,0,0,0,0,0c-2.5,1.9-5.5,2.6-8.6,2.7C318.8,473,318.8,471.9,318.8,470.9z
			 M318.9,475.4c3-0.2,5.9-0.8,8.5-2.4c0,1-0.1,2-0.2,3c-2.3,1.9-5.1,2.5-8,2.7C319.1,477.6,319,476.5,318.9,475.4z M319.5,480
			c2.7-0.2,5.3-0.8,7.6-2.3c-0.1,0.9-0.3,1.9-0.4,2.8c-1.7,1.8-4,2.5-6.4,2.7C320,482.2,319.7,481.1,319.5,480z M326.2,482.7
			c-0.3,1-0.6,2-0.9,3c0,0.1,0,0.1,0,0.2c-1.2,0.4-2.9,0.6-4.2-0.1c0,0,0,0,0-0.1c-0.1-0.4-0.3-0.7-0.4-1.1
			C322.6,484.4,324.5,483.8,326.2,482.7z M320.6,487c1.6,0.8,3.5,0.7,5.2,0.1c1.8,1.8,0.9,3.9-0.4,5.8c-1.5,0.2-2.9,0.4-4.3,0.1
			C320,491.3,318.5,488.6,320.6,487z M277.8,510.8c-3.3-0.6-4.2-3.1-4.4-6.1c4.3,0.3,8.7,0.5,13,0.7
			C285.7,509.1,280.1,508.4,277.8,510.8z M278.5,512.1c1-1.8,4.3-2.1,6-3c1.6-0.8,2.9-1.9,3.2-3.7c3.6,0.2,7.1,0.3,10.7,0.4
			c4.1,0.1,8.2,0.2,12.3,0.2c-1.9,3-7,3.5-10,3.1c-2.4-0.3-4.8-1-7.3-0.8c-4,0.3-6.8,2.3-9.1,5.5C281.7,513.8,279,513.7,278.5,512.1
			z M292.4,513.2c0.4-0.8,1.3-1.2,2.3-1.1c0.8,0,1.6,0.2,2,1C295.2,513.1,293.8,513.2,292.4,513.2z M318.5,699.8
			c-0.8-2.9-1.1-3.9-1.1-6.9c-0.1-27.7-0.2-55.4-0.3-83.1c-0.1-21.9-0.1-43.9-0.2-65.8c1.9,0,3.8,0,5.7,0c0,7.1,0,14.3,0.1,21.4
			c0.1,31.9,0.2,63.9,0.3,95.8c0.1,18.4,0.1,36.8,0.2,55.2C321.6,710.8,320,705.3,318.5,699.8z M328.4,702.4
			c-1.3,4.6-2.6,9.3-3.9,13.9c0-5.7,0-11.4-0.1-17.1c-0.1-31.9-0.2-63.9-0.3-95.8c-0.1-19.8-0.1-39.6-0.2-59.4c1.9,0,3.8,0,5.7,0
			c0,8.1,0.1,16.2,0.1,24.2c0.1,32.4,0.2,64.9,0.3,97.3c0,9.7,0.1,19.4,0.1,29C330.2,697.2,329.2,699.5,328.4,702.4z M316,542.6
			c0-0.8,0-1.6,0-2.3c4.9,0,9.7,0,14.6,0c0,0.8,0,1.6,0,2.3C325.8,542.5,320.9,542.6,316,542.6z M329.7,532.5
			c1.6,0.2,2.9,0.7,3.1,2.4c0.3,1.9-0.3,3.6-2.8,3.8c-3,0-6,0-9,0c-1.3,0-2.7,0.1-4,0c-1.4-0.1-2.7-0.4-3.1-1.9
			c-0.6-2.2,0.5-3.9,2.8-4.2c2.8-0.3,5.9,0,8.7,0C326.8,532.5,328.3,532.3,329.7,532.5z M328.5,528.4c0,0.8,0,1.6,0,2.3
			c-3.5,0-7,0-10.5,0c0-0.8,0-1.6,0-2.3C321.5,528.5,325,528.5,328.5,528.4z M329.2,520.9c0.6,1.9-1.7,2.2-2.4,3.6
			c-0.4,0.8-0.4,1.7-0.1,2.6c-2.1,0-4.2,0-6.3,0c0.3-1.1,0.2-2.4-0.6-3.3c-0.8-0.8-2.2-1.1-2-2.5c0.3-1.6,2.1-2.3,3.4-1.7
			c0.2,0.1,0.3,0.1,0.4,0.2c-0.8,1.7-0.8,5.1,1.5,5.4c2.7,0.4,3-3.2,2.2-5.2c0.5-0.3,1-0.6,1.5-0.7c0.3-0.1,0.6,0,0.8,0
			c0.1,0,0.1,0,0.2,0.1C328.4,519.7,329,520.2,329.2,520.9z M322.8,520.3c0.4,0.1,0.7,0.2,1.1,0.1c0.3,0.6,0.4,1.4,0.4,2.1
			c-0.1,0.6-0.4,1.6-1.2,1.3C322,523.4,322.4,521.3,322.8,520.3z M349.8,512.9c0.3-0.7,1.2-1,2-1c1,0,1.8,0.3,2.3,1.1
			C352.7,513,351.2,512.9,349.8,512.9z M357.9,513.2c-0.8,0-1.6-0.1-2.4-0.1c-0.5-1.8-2-2.6-3.7-2.5c-1.5,0-3,0.7-3.4,2.2
			c0,0,0,0.1,0,0.1c-1,0-1.9-0.1-2.9-0.1c-4.2-0.1-8.6-0.3-12.8,0.3c-3.4,0.4-5.2,1.7-5.5,4.8c0,0-0.1,0-0.1,0
			c-0.7,0-1.2,0.2-1.7,0.5c-0.4,0.2-0.9,0.6-1.3,0.7c-0.9,0.2-1.6-0.3-2.3-0.6c-0.7-0.3-1.3-0.4-2-0.4c0.1-1.1,0.1-2.2-0.8-3.1
			c-1.2-1.1-3.8-1.7-5.3-1.9c-4.1-0.5-8.3-0.3-12.4-0.2c-1.1,0-2.2,0.1-3.3,0.1c0,0,0-0.1,0-0.1c-0.4-1.5-1.9-2.2-3.4-2.2
			c-1.8,0-3.3,0.8-3.7,2.6c-0.8,0-1.6,0.1-2.4,0.1c-0.6,0-1.5,0.1-2.5,0.2c2-2.4,4.5-3.9,7.8-4c2.9-0.1,5.8,0.9,8.7,1
			c3.5,0.1,8.1-1.3,9.7-4.6c0.8,0,1.5-0.1,2.3-0.1c3.1-0.2,6.7,0.1,6.2-4c-0.1-0.5-0.6-0.7-1-0.6c-0.1,0-0.1,0-0.2,0
			c-1.9-0.1-2.6-1.6-2.6-3.3c0-1.7,0.2-3.3,2-4c0,0,0,0,0.1,0c0,0,0,0,0.1,0c1.5,0.6,3.1,0.7,4.8,0.6c1.1-0.1,2.4-0.6,3.5-0.5
			c1.5,0.1,2.1,1.6,2,3c-0.1,1.9-0.2,4-2.7,3.9c-0.1,0-0.2,0-0.3,0.1c-0.4-0.1-0.9,0.1-0.9,0.6c-0.1,1.8-0.1,3.1,1.7,3.7
			c1.4,0.4,3,0.4,4.5,0.5c0.8,0,1.5,0.1,2.3,0.1c1.7,3.3,6.3,4.7,9.8,4.6c3.1-0.1,6-1.2,9.2-1.1c3.1,0.2,5.4,1.7,7.3,3.9
			C359.4,513.3,358.5,513.2,357.9,513.2z M362.2,513.5c-2.3-3.1-5.2-5.2-9.1-5.4c-2.8-0.2-5.5,0.7-8.2,1c-2.8,0.3-7.3-0.4-9.1-3.1
			c4.1,0.1,8.2-0.1,12.2-0.2c3.6-0.1,7.1-0.3,10.7-0.5c0.4,1.8,1.6,2.9,3.2,3.7c1.8,0.9,5,1.2,6.1,2.9
			C367.5,513.4,364.8,513.6,362.2,513.5z M360,505.2c4.3-0.2,8.7-0.5,13-0.8c-0.2,3-1,5.6-4.3,6.2
			C366.3,508.1,360.7,508.9,360,505.2z"/>
		<ellipse transform="matrix(1 -3.060429e-03 3.060429e-03 1 -1.552 0.8517)" cx="277.5" cy="507.5" rx="1.3" ry="1.3"/>
		<path d="M324.8,508.3c-1.2-1.1-0.9-6.3-1.6-6.3c-0.7,0-0.6,5.3-1.6,6.3c-1,1-4.8,0.8-4.8,1.4c0,0.6,3.8,0.4,4.8,1.4
			c1,1,0.9,6.3,1.6,6.3c0.7,0,0.5-5.2,1.6-6.3c1.1-1.1,4.8-0.7,4.8-1.4C329.6,509,326,509.5,324.8,508.3z"/>
		<path d="M245.1,258.2c0.9,0.4,1.8,0.8,2.7,1.2c0.5,0.2,1.1,0.5,1.6,0.7c0.1,0.1,0.2,0.1,0.2,0.1c0,0,0,0,0,0.1
			c1,1.7,1.2,4.2,1.8,6.1c0.1,0.4,0.7,0.4,0.8,0c0.6-1.9,0.9-4.4,1.8-6.1c0,0,0,0,0-0.1c0,0,0.1,0,0.1-0.1c0.5-0.3,1.2-0.5,1.7-0.8
			c0.9-0.4,1.8-0.8,2.7-1.2c0.4-0.2,0.2-0.6-0.1-0.7c-0.9-0.4-1.8-0.8-2.7-1.1c-1.1-0.5-1.7-0.5-2-1.5c-0.6-1.9-1.1-3.9-1.6-5.9
			c0,0,0,0,0-0.1c0,0,0,0,0-0.1c-0.1-0.1-0.2-0.2-0.3-0.2c-0.1,0-0.3,0-0.3,0.2c0,0,0,0.1,0,0.1c0,0,0,0,0,0c0,0,0,0,0,0
			c0,0,0,0,0,0c-0.5,1.9-1,3.9-1.5,5.9c-0.5,1.5-3.3,2.1-4.7,2.7C245,257.6,244.8,258.1,245.1,258.2z M250.6,255.7
			c0.6-1,0.7-2.7,1-3.7c0.1-0.5,0.3-0.9,0.4-1.4c0.1,0.5,0.3,0.9,0.4,1.4c0.3,1.1,0.4,2.7,1,3.7c0.6,1.1,2.7,1.7,4.2,2.2
			c-0.7,0.3-1.5,0.7-2.2,1c-0.6,0.3-1.5,0.5-1.9,1c-0.6,0.8-0.7,2.4-1,3.4c-0.2,0.6-0.3,1.1-0.5,1.7c-0.2-0.6-0.3-1.1-0.5-1.7
			c-0.3-0.9-0.4-2.6-1-3.4c-0.4-0.6-1.2-0.7-1.9-1c-0.7-0.3-1.5-0.7-2.2-1C247.9,257.4,249.9,256.8,250.6,255.7z"/>
		<path d="M258.7,302.2c-0.9-0.4-1.8-0.8-2.7-1.1c-1.1-0.5-1.7-0.5-2-1.5c-0.6-1.9-1.1-3.9-1.6-5.9c0,0,0,0,0-0.1c0,0,0,0,0-0.1
			c-0.1-0.1-0.2-0.2-0.3-0.2c-0.1,0-0.3,0-0.3,0.2c0,0,0,0.1,0,0.1c0,0,0,0,0,0c0,0,0,0,0,0c0,0,0,0,0,0c-0.5,1.9-1,3.9-1.5,5.9
			c-0.5,1.5-3.3,2.1-4.7,2.7c-0.3,0.1-0.5,0.6-0.1,0.7c0.9,0.4,1.8,0.8,2.7,1.2c0.5,0.2,1.1,0.5,1.6,0.7c0.1,0.1,0.2,0.1,0.2,0.1
			c0,0,0,0,0,0.1c1,1.7,1.2,4.2,1.8,6.1c0.1,0.4,0.7,0.4,0.8,0c0.6-1.9,0.9-4.4,1.8-6.1c0,0,0,0,0-0.1c0,0,0.1,0,0.1-0.1
			c0.5-0.3,1.2-0.5,1.7-0.8c0.9-0.4,1.8-0.8,2.7-1.2C259.2,302.7,259,302.3,258.7,302.2z M255.3,303.6c-0.6,0.3-1.5,0.5-1.9,1
			c-0.6,0.8-0.7,2.4-1,3.4c-0.2,0.6-0.3,1.1-0.5,1.7c-0.2-0.6-0.3-1.1-0.5-1.7c-0.3-0.9-0.4-2.6-1-3.4c-0.4-0.6-1.2-0.7-1.9-1
			c-0.7-0.3-1.5-0.7-2.2-1c1.5-0.5,3.5-1.1,4.2-2.2c0.6-1,0.7-2.7,1-3.7c0.1-0.5,0.3-0.9,0.4-1.4c0.1,0.5,0.3,0.9,0.4,1.4
			c0.3,1.1,0.4,2.7,1,3.7c0.6,1.1,2.7,1.7,4.2,2.2C256.8,302.9,256.1,303.3,255.3,303.6z"/>
		<path d="M258.7,561.1c-0.9-0.4-1.8-0.8-2.7-1.1c-1.1-0.5-1.7-0.5-2-1.5c-0.6-1.9-1.1-3.9-1.6-5.9c0,0,0,0,0-0.1c0,0,0,0,0-0.1
			c-0.1-0.1-0.2-0.2-0.3-0.2c-0.1,0-0.3,0-0.3,0.2c0,0,0,0.1,0,0.1c0,0,0,0,0,0c0,0,0,0,0,0c0,0,0,0,0,0c-0.5,1.9-1,3.9-1.5,5.9
			c-0.5,1.5-3.3,2.1-4.7,2.7c-0.3,0.1-0.5,0.6-0.1,0.7c0.9,0.4,1.8,0.8,2.7,1.2c0.5,0.2,1.1,0.5,1.6,0.7c0.1,0.1,0.2,0.1,0.2,0.1
			c0,0,0,0,0,0.1c1,1.7,1.2,4.2,1.8,6.1c0.1,0.4,0.7,0.4,0.8,0c0.6-1.9,0.9-4.4,1.8-6.1c0,0,0,0,0-0.1c0,0,0.1,0,0.1-0.1
			c0.5-0.3,1.2-0.5,1.7-0.8c0.9-0.4,1.8-0.8,2.7-1.2C259.2,561.7,259,561.2,258.7,561.1z M255.3,562.5c-0.6,0.3-1.5,0.5-1.9,1
			c-0.6,0.8-0.7,2.4-1,3.4c-0.2,0.6-0.3,1.1-0.5,1.7c-0.2-0.6-0.3-1.1-0.5-1.7c-0.3-0.9-0.4-2.6-1-3.4c-0.4-0.6-1.2-0.7-1.9-1
			c-0.7-0.3-1.5-0.7-2.2-1c1.5-0.5,3.5-1.1,4.2-2.2c0.6-1,0.7-2.7,1-3.7c0.1-0.5,0.3-0.9,0.4-1.4c0.1,0.5,0.3,0.9,0.4,1.4
			c0.3,1.1,0.4,2.7,1,3.7c0.6,1.1,2.7,1.7,4.2,2.2C256.8,561.9,256.1,562.2,255.3,562.5z"/>
		<path d="M258.7,605.8c-0.9-0.4-1.8-0.8-2.7-1.1c-1.1-0.5-1.7-0.5-2-1.5c-0.6-1.9-1.1-3.9-1.6-5.9c0,0,0,0,0-0.1c0,0,0,0,0-0.1
			c-0.1-0.1-0.2-0.2-0.3-0.2c-0.1,0-0.3,0-0.3,0.2c0,0,0,0.1,0,0.1c0,0,0,0,0,0c0,0,0,0,0,0c0,0,0,0,0,0c-0.5,1.9-1,3.9-1.5,5.9
			c-0.5,1.5-3.3,2.1-4.7,2.7c-0.3,0.1-0.5,0.6-0.1,0.7c0.9,0.4,1.8,0.8,2.7,1.2c0.5,0.2,1.1,0.5,1.6,0.7c0.1,0.1,0.2,0.1,0.2,0.1
			c0,0,0,0,0,0.1c1,1.7,1.2,4.2,1.8,6.1c0.1,0.4,0.7,0.4,0.8,0c0.6-1.9,0.9-4.4,1.8-6.1c0,0,0,0,0-0.1c0,0,0.1,0,0.1-0.1
			c0.5-0.3,1.2-0.5,1.7-0.8c0.9-0.4,1.8-0.8,2.7-1.2C259.2,606.4,259,605.9,258.7,605.8z M255.3,607.3c-0.6,0.3-1.5,0.5-1.9,1
			c-0.6,0.8-0.7,2.4-1,3.4c-0.2,0.6-0.3,1.1-0.5,1.7c-0.2-0.6-0.3-1.1-0.5-1.7c-0.3-0.9-0.4-2.6-1-3.4c-0.4-0.6-1.2-0.7-1.9-1
			c-0.7-0.3-1.5-0.7-2.2-1c1.5-0.5,3.5-1.1,4.2-2.2c0.6-1,0.7-2.7,1-3.7c0.1-0.5,0.3-0.9,0.4-1.4c0.1,0.5,0.3,0.9,0.4,1.4
			c0.3,1.1,0.4,2.7,1,3.7c0.6,1.1,2.7,1.7,4.2,2.2C256.8,606.6,256.1,606.9,255.3,607.3z"/>
		<polygon points="248,441.4 252,466.6 255.9,441.4 271,450.9 261.5,435.8 286.6,431.9 261.5,428 271,412.9 255.9,422.4 252,397.2 
			248,422.4 233,412.9 242.5,428 217.3,431.9 242.5,435.8 233,450.9 		"/>
	</g>
</g>
</svg>
