<?xml version="1.0" encoding="utf-8"?>
<!-- Generator: Adobe Illustrator 21.1.0, SVG Export Plug-In . SVG Version: 6.00 Build 0)  -->
<svg version="1.1" xmlns="http://www.w3.org/2000/svg" xmlns:xlink="http://www.w3.org/1999/xlink" x="0px" y="0px"
	 viewBox="0 0 504 864" style="enable-background:new 0 0 504 864;" xml:space="preserve">
<g id="Слой_1">
</g>
<g id="Слой_2">
	<g>
		<g>
			<g>
				<polygon points="60.5,819.3 46.5,816.5 51.7,808.8 44,814 41.2,799.9 38.4,814 30.7,808.8 35.9,816.5 21.8,819.3 35.9,822 
					30.7,829.8 38.4,824.6 41.2,838.6 43.9,824.6 51.7,829.8 46.5,822 				"/>
				<polygon points="482.1,819.3 468.1,816.5 473.3,808.8 465.5,814 462.8,799.9 460,814 452.3,808.8 457.5,816.5 443.4,819.3 
					457.5,822 452.3,829.8 460,824.6 462.8,838.6 465.5,824.6 473.3,829.8 468.1,822 				"/>
			</g>
			<g>
				<polygon points="60.5,47 46.5,49.8 51.7,57.5 44,52.3 41.2,66.4 38.4,52.3 30.7,57.5 35.9,49.8 21.8,47 35.9,44.3 30.7,36.5 
					38.4,41.7 41.2,27.7 43.9,41.7 51.7,36.5 46.5,44.3 				"/>
				<polygon points="482.1,47 468.1,49.8 473.3,57.5 465.5,52.3 462.8,66.4 460,52.3 452.3,57.5 457.5,49.8 443.4,47 457.5,44.3 
					452.3,36.5 460,41.7 462.8,27.7 465.5,41.7 473.3,36.5 468.1,44.3 				"/>
			</g>
		</g>
		<g>
			<path d="M503.8,18.2c-1.6-17.9-18.7-16.3-31.6-16.3c-45.9,0-91.8,0-137.6,0c-63.2,0-126.3,0-189.5,0c-40.6,0-81.2,0-121.8,0
				c-2.6,0-5.3-0.2-8,0.2c-9.5,1.2-15,9.2-15.2,18.2c-0.2,7.3,0,14.5,0,21.8c0,37.4,0,74.9,0,112.3c0,57,0,114.1,0,171.1
				c0,64.3,0,128.6,0,192.9c0,58.4,0,116.7,0,175.1c0,40.1,0,80.2,0,120.3c0,9.1,0,18.2,0,27.3c0,11.7,6.7,20.5,19.2,20.7
				c35.9,0.6,71.9,0,107.9,0c62.4,0,124.9,0,187.3,0c49.7,0,99.5,0,149.2,0c7.6,0,15.2,0,22.9,0c0.4,0,0.8-0.1,1.2-0.2
				c14.4-1.8,16.1-13.8,16.1-25.5c0-11.4,0-22.8,0-34.3c0-43.4,0-86.9,0-130.3c0-59.9,0-119.8,0-179.8c0-63.9,0-127.7,0-191.6
				c0-55.3,0-110.6,0-165.9c0-33.7,0-67.3,0-101C503.9,28.3,504.2,23.2,503.8,18.2z M486.6,852.8c-28.3,0-56.6,0-84.9,0
				c-59.9,0-119.8,0-179.7,0c-54,0-108,0-162,0c-13.1,0-26.1,0-39.2,0c-5.6,0-11-1.3-11.7-8.3c-0.2-1.5,0-3,0-4.5
				c0-26.5,0-53,0-79.5c0-50,0-100,0-149.9c0-61.8,0-123.6,0-185.4c0-61.4,0-122.7,0-184.1c0-48.9,0-97.7,0-146.6
				c0-24.2-0.8-48.6,0-72.7c0.2-5.3,1.6-10.1,8.3-10.8c2.2-0.2,4.5,0,6.7,0c14.8,0,29.6,0,44.5,0c55.6,0,111.3,0,166.9,0
				c58.9,0,117.8,0,176.7,0c18.9,0,37.9,0,56.8,0c8.1,0,24.7-3.1,25.9,8.4c0.5,5.2,0,10.8,0,16.1c0,13.5,0,27.1,0,40.6
				c0,45.5,0,91.1,0,136.6c0,60.1,0,120.2,0,180.3c0,62.6,0,125.1,0,187.7c0,52.8,0,105.6,0,158.4c0,31.4,0,62.7,0,94.1
				C494.8,840.3,496.9,852,486.6,852.8z"/>
			<path d="M462.3,77.6c0-0.8-0.3-1.3-0.8-1.7c0.1-1.2-0.6-2.5-2.2-2.6c-13.1-0.5-25.3-13.8-25.8-26.7c0-0.5-0.2-0.8-0.4-1.1
				c-0.3-0.6-1-1.1-1.9-1.1c-40.5,0-80.9,0-121.4,0c-64.5,0-129,0-193.6,0c-14.9,0-29.7,0-44.6,0c-0.9,0-1.6,0.5-1.9,1.1
				c-0.2,0.3-0.3,0.7-0.4,1.2C69.1,59.5,57,72.8,43.9,73.3c-1.8,0.1-2.5,1.9-2,3.2c-0.2,0.3-0.2,0.6-0.2,1c0,23.7,0,47.4,0,71.1
				c0,56.4,0,112.8,0,169.2c0,68.7,0,137.4,0,206c0,59,0,117.9,0,176.9c0,19.6,0,39.2,0,58.8c0,8.9-1.3,19,0,27.9
				c0.1,0.4,0,0.8,0,1.2c0,0.9,0.5,1.6,1.1,1.9c0.3,0.2,0.7,0.3,1.2,0.4c13,0.5,25.3,13.3,25.8,26.2c0,0.5,0.2,0.8,0.4,1.1
				c0.3,0.6,1,1.1,1.9,1.1c40.5,0,80.9,0,121.4,0c64.5,0,129,0,193.6,0c14.9,0,29.7,0,44.6,0c0.9,0,1.6-0.5,1.9-1.1
				c0.2-0.3,0.3-0.7,0.4-1.2c0.5-12.9,12.7-25.7,25.8-26.2c0.2,0,0.4,0,0.6-0.1c1.2,0.1,2.4-0.7,2.4-2.2c0-23.7,0-47.4,0-71.1
				c0-56.4,0-112.8,0-169.2c0-68.7,0-137.4,0-206c0-59,0-117.9,0-176.9c0-19.6,0-39.2,0-58.8c0-8.9,1.3-19,0-27.9
				C462.3,78.4,462.3,78,462.3,77.6z M429.3,814.9c-39.8,0-79.6,0-119.3,0c-64.5,0-129,0-193.6,0c-14.2,0-28.3,0-42.5,0
				c-1.7-13.9-13.9-26.5-27.8-28.3c0-23,0-46,0-69.1c0-56.4,0-112.8,0-169.2c0-68.7,0-137.4,0-206c0-59,0-117.9,0-176.9
				c0-19.6,0-39.2,0-58.8c0-8.9,1.3-19,0-27.9c-0.1-0.4,0-0.8,0-1.2c14-1.8,26.1-14.9,27.8-28.7c39.8,0,79.5,0,119.3,0
				c64.5,0,129,0,193.6,0c14.2,0,28.3,0,42.5,0c1.7,14.1,14.3,27.4,28.5,28.8c0,23.7,0,47.3,0,71c0,56.4,0,112.8,0,169.2
				c0,68.7,0,137.4,0,206c0,59,0,117.9,0,176.9c0,19.6,0,39.2,0,58.8c0,8.6-1.2,18.4-0.1,27C443.6,788.1,431.1,800.9,429.3,814.9z"
				/>
			<path d="M233.5,102.7c0.3,0,0.6,0.1,0.9,0.4c0.3,0.3,0.5,0.4,0.6,0.2c0.1-0.2,1.5-0.4,4-0.4c2.1,0,3.2,0.1,3.2,0.3
				c0,0.2,0.2,0.3,0.5,0.3c0.4,0,0.6-0.1,0.6-0.2c0-0.1,0.2-0.3,0.6-0.5c0.4-0.2,0.6-0.4,0.6-0.6c0-0.9-0.7-1.4-1.9-1.5l-1.3-0.1
				l0.1-6.7c0.1-4.5,0.2-6.8,0.3-7c0.1-0.1,0.2-0.8,0.3-1.9c0.1-2.1,0.3-3.2,0.7-3.2c0.2,0,0.4-0.1,0.4-0.3c0-0.2,0.2-0.3,0.7-0.3
				c0.4,0,0.8-0.1,1-0.3c0.3-0.2,0.4-0.5,0.4-0.7c0-0.3-0.2-0.6-0.5-0.8c-0.3-0.2-1.4-0.3-3.4-0.3c-2,0-2.9,0.1-2.9,0.3
				c0,0.1-0.3,0.2-0.9,0.2c-0.6,0-0.9,0.1-0.9,0.4s-0.1,0.4-0.3,0.4c-0.2,0-0.3,0.2-0.3,0.6c0,0.5,0.1,0.8,0.4,0.9
				c0.3,0.1,0.4,0.9,0.4,2.5c0,1.6,0.1,2.4,0.3,2.5c0.2,0.1,0.3,0.8,0.3,2.2c0,1.3-0.1,2-0.3,2.1c-0.2,0.1-0.4,1.5-0.4,4.3
				c-0.1,2.4-0.2,3.9-0.4,4.3c-0.2,0.5-0.8,0.8-1.8,0.9c-0.6,0-0.9,0.1-1,0.2c-0.1,0.1-0.2,0.4-0.2,0.8
				C233.1,102.4,233.2,102.7,233.5,102.7z M239.6,88c0.3,0,0.4,0.2,0.4,0.6c0,0.4-0.1,0.5-0.4,0.5c-0.3,0-0.4-0.2-0.4-0.5
				C239.2,88.2,239.3,88,239.6,88z M237.9,96c0.2,0,0.4,0.1,0.4,0.3c0,0.2-0.1,0.3-0.4,0.3c-0.3,0-0.4-0.1-0.4-0.3
				C237.5,96.1,237.7,96,237.9,96z"/>
			<path d="M248.4,80.3c0.2,0,0.3,0.1,0.3,0.4c0,0.2,0.3,0.4,1,0.5c0.6,0.1,1.1,0.4,1.5,0.9s0.7,1.1,0.7,1.6c0,0.5,0.1,1,0.3,1.6
				c0.2,0.6,0.4,0.9,0.5,0.9c0.1,0,0.2,0.3,0.2,0.8c0,0.6,0.2,1.1,0.5,1.4c0.3,0.3,0.5,0.9,0.8,1.8c0.2,0.9,0.3,1.7,0.3,2.5
				c0,0.9,0.1,1.4,0.4,1.4c0.1,0.1,0.2,0.3,0.2,0.7c0,0.4,0.1,0.6,0.2,0.6c0.2,0.1,0.3,0.6,0.3,1.6c0,0.9,0.1,1.4,0.4,1.4
				c0.2,0,0.4,0.3,0.6,1c0.2,0.7,0.4,1,0.5,1c0.2,0,0.3,0.3,0.4,0.8c0.1,0.7,0.5,1,1.3,1c0.1,0,0.4,0,0.6-0.1
				c0.5-0.1,0.7-0.4,0.7-1.1c0-0.6,0.1-0.9,0.3-0.9c0.2,0,0.3-0.3,0.3-0.9c0-0.6,0.1-0.9,0.3-0.9c0.2-0.1,0.3-0.6,0.3-1.5
				c0-0.9,0.2-1.6,0.6-1.9c0.5-0.5,0.8-0.7,1.1-0.8c0.3-0.1,0.4-0.5,0.4-1.3c0-0.8,0.1-1.2,0.4-1.4c0.2-0.1,0.4-0.6,0.6-1.5
				c0.2-0.9,0.3-1.4,0.4-1.5c0.3-0.2,0.4-0.5,0.4-0.9c0-0.4,0.2-0.6,0.7-0.7c0.4,0,0.6-0.3,0.6-0.7c0-0.2-0.1-0.6-0.1-1
				c0-1,0.2-1.5,0.6-1.5c0.4,0,0.5-0.3,0.5-0.8c0-0.5,0.2-0.9,0.6-1.4c0.4-0.4,0.9-0.7,1.6-0.8c0.8-0.2,1.2-0.6,1.2-1.4
				c0-0.1,0-0.4-0.1-0.7l-0.1-0.6H267c-2.5,0-3.7,0.1-3.7,0.3c0,0.2-0.1,0.3-0.3,0.3c-0.3,0-0.6,0.2-0.9,0.6
				c-0.4,0.5-0.4,0.7-0.2,0.7c0.3,0,0.5,0.1,0.5,0.4c0.1,0.3,0.5,0.4,1.1,0.4c0.6,0,1,0.2,1.1,0.7c0.1,0.5,0.1,0.7-0.1,0.8
				c-0.2,0.1-0.3,0.5-0.3,1.3c0,0.7-0.1,1.2-0.4,1.3c-0.2,0.1-0.3,0.3-0.3,0.7c0,0.1,0.1,0.2,0.1,0.4c0,0.5-0.1,0.9-0.3,1.4
				c-0.2,0.5-0.4,0.8-0.7,0.8c-0.4,0.1-0.5,0.4-0.5,0.9c0,0.5-0.1,0.9-0.3,1.1c-0.2,0.2-0.4,0.8-0.4,1.7c-0.1,1-0.3,1.5-0.6,1.5
				c-0.4,0-0.5,0.2-0.4,0.5c0,0.2,0,0.4,0,0.4c-0.1,0.1-0.2,0.1-0.4,0.1c-0.4,0-0.7-0.1-0.9-0.2c-0.5-0.3-0.7-1.2-0.8-2.9
				c0-0.7-0.1-1.2-0.4-1.4c-0.2-0.2-0.3-0.7-0.3-1.6c0-1.3-0.3-2.2-0.9-2.6c-0.2-0.1-0.2-0.3,0.1-0.4c0.1,0,0.2-0.2,0.3-0.4
				c0.1-0.2,0.1-0.5,0.1-0.7c0-0.2-0.1-0.3-0.2-0.3c-0.1,0-0.3-0.3-0.4-0.8c-0.1-0.6-0.4-0.9-0.7-0.9c-0.3-0.1-0.4-0.2-0.4-0.3
				c0-0.4,0.5-0.5,1.4-0.5c1.3,0,1.9-0.2,1.9-0.7c0-0.2,0.1-0.4,0.3-0.4c0.2,0,0.1-0.3-0.3-0.8c-0.4-0.5-0.9-0.8-1.6-0.8
				c-0.7,0-1.1-0.1-1.2-0.3c-0.1-0.1-0.3-0.1-0.7,0.1c-0.4,0.2-0.6,0.2-0.7-0.1c-0.2-0.2-0.3-0.3-0.4-0.1c-0.1,0.2-0.5,0.3-1.1,0.3
				c-0.4,0-0.6,0-0.8-0.1c-0.1-0.1-0.2-0.3-0.3-0.7c-0.1-0.5-0.3-0.8-0.7-0.8c-0.2,0-0.5,0.2-0.8,0.5c-0.4,0.4-0.7,0.5-1.2,0.5
				c-0.4,0-0.6,0.1-0.6,0.4c0,0.3-0.1,0.4-0.3,0.4c-0.2,0-0.3,0.2-0.3,0.6C248.1,80.1,248.2,80.3,248.4,80.3z"/>
			<path d="M161.7,783.9c0-0.3-0.1-0.5-0.2-0.6c-0.1-0.1-0.1-0.2,0-0.4c0.1-0.1,0.1-0.2,0.1-0.2c0-0.1-0.1-0.2-0.2-0.2
				c-0.1-0.1-0.2-0.2-0.2-0.3c0-0.2-0.1-0.3-0.3-0.5c-0.2-0.2-0.4-0.3-0.5-0.3c-0.1,0-0.2,0-0.2,0.1c0,0.1-0.3,0.1-0.9,0.2
				c-0.5,0.1-1.1,0.1-1.7,0.1c-0.6,0-0.9,0-1,0.1c-0.1,0-0.5,0.1-1.4,0.1c-0.9,0.1-1.8,0.2-2.7,0.3c-0.9,0.1-1.4,0.2-1.4,0.2
				c0,0,0,0.1,0,0.2c0,0.1,0,0.2,0.1,0.3c0.1,0.2,0.1,0.3,0.2,0.4c0.1,0,0.3,0.1,0.6,0.1c0.5,0,0.9,0.1,1,0.3
				c0.1,0.2,0.2,0.7,0.2,1.6c0,0.9-0.1,1.4-0.2,1.5c-0.1,0.1-0.1,0.2,0,0.4c0.1,0.3,0.2,0.5,0,0.7c-0.1,0.2-0.2,0.3-0.3,0.3
				c-0.1,0,0,0.1,0.1,0.2c0.1,0.1,0.1,0.3,0.1,0.6c0,0.1,0,0.4-0.1,0.8c-0.1,1.4-0.2,2.3-0.2,2.6c-0.1,0.4-0.1,0.5-0.3,0.6
				c-0.2,0.1-0.5,0.3-0.8,0.6l-0.5,0.6h5v-0.5c0-0.2,0-0.4-0.1-0.4c0-0.1-0.1-0.1-0.3-0.1c-0.2,0-0.4,0-0.4-0.1s-0.1-0.1-0.2-0.1
				s-0.2-0.1-0.3-0.3c0-0.1,0-0.4,0-1.2c0-1.2,0-2.1,0.1-2.8c0-0.1,0.5-0.1,1.4-0.1c0.8,0,1.3,0.1,1.5,0.2c0.3,0.1,0.4,0.4,0.4,0.9
				c0,0.3,0,0.5,0.1,0.5c0.1,0,0.1-0.1,0.3-0.2c0.1-0.1,0.3-0.2,0.5-0.1c0.2,0.1,0.3,0,0.3-0.2c0-0.2,0-0.3,0.1-0.4
				c0.1-0.1,0.1-0.2,0-0.2c-0.1-0.1-0.2-0.3-0.2-0.6c0-0.4,0.1-0.7,0.2-0.8c0.1-0.1,0.1-0.1,0.1-0.2c0-0.1,0-0.1-0.1-0.2
				c-0.1-0.1-0.1-0.2-0.1-0.2c0-0.1,0-0.1,0.1-0.2c0.2-0.1,0.2-0.2,0.2-0.4c0-0.3-0.4-0.4-1.1-0.4c-0.4,0-0.6,0.2-0.6,0.5
				c0,0.1,0,0.2,0.1,0.3c0.1,0.2,0,0.4,0,0.5c-0.1,0.1-0.4,0.2-1,0.3c-0.6,0.1-1.1,0.2-1.6,0.2h-0.5v-0.6c0-0.4,0.1-0.6,0.2-0.7
				c0.1-0.1,0.2-0.2,0.2-0.4c0-0.3-0.1-0.5-0.2-0.8c-0.1-0.2-0.2-0.4-0.2-0.4c0-0.1,0.1-0.1,0.2-0.3c0.2-0.2,0.3-0.4,0.2-0.6
				c0-0.1,0-0.1,0-0.2c0-0.1,0.1-0.2,0.4-0.3c0.3-0.1,0.8-0.1,1.6-0.1c0.7,0,1.1-0.1,1.1-0.1c0.3,0,0.5,0.1,0.7,0.2
				c0.2,0.2,0.3,0.3,0.5,0.4c0.2,0.1,0.3,0.2,0.3,0.3c0,0.1,0.1,0.3,0.3,0.4c0.2,0.1,0.4,0.3,0.5,0.6c0.1,0.4,0.4,0.5,0.8,0.5
				c0.1,0,0.2,0,0.3-0.1c0.1-0.1,0.2-0.2,0.2-0.6c0-0.3-0.1-0.5-0.2-0.5C161.8,784.4,161.7,784.2,161.7,783.9z"/>
			<path d="M181.3,785.7c-0.2-0.1-0.2-0.2-0.2-0.5c0-0.3,0-0.5-0.1-0.5c-0.1,0-0.1-0.1-0.1-0.4c0-0.3-0.1-0.4-0.2-0.4
				c-0.1,0-0.2-0.1-0.3-0.3c-0.1-0.2-0.2-0.3-0.3-0.4c-0.1-0.1-0.2-0.2-0.2-0.4c0-0.2-0.1-0.3-0.4-0.3c-0.7,0-1-0.1-1-0.4
				c0-0.1-0.1-0.2-0.2-0.2c-0.1,0-0.2,0-0.2-0.1s-0.1-0.1-0.3-0.1c-0.2,0-0.3-0.1-0.4-0.2c0-0.1-0.5-0.2-1.5-0.2
				c-0.9,0-1.5,0.1-1.6,0.2c-0.1,0.1-0.2,0.2-0.4,0.2c-0.2,0-0.3,0.1-0.4,0.3c-0.1,0.2-0.3,0.4-0.6,0.4c-0.3,0-0.6,0.1-1.1,0.2
				c-0.5,0.1-0.7,0.3-0.8,0.5c0,0.2-0.2,0.4-0.5,0.7s-0.4,0.5-0.4,0.5c0,0.1-0.1,0.1-0.2,0.1c-0.1,0-0.2,0.1-0.3,0.4
				c-0.1,0.2-0.2,0.5-0.3,0.7c-0.2,0.3-0.2,0.8-0.2,1.8c0,1.2,0.1,2.1,0.4,2.9c0.5,1.4,0.9,2.2,1.2,2.3c0.2,0,0.3,0.1,0.3,0.3
				c0,0.2,0.2,0.2,0.4,0.2c0.2,0,0.4,0,0.4,0.1c0,0.1,0.1,0.1,0.3,0.1s0.3,0.1,0.3,0.4c0,0.2,0,0.3,0.1,0.4c0.1,0.1,0.2,0,0.4-0.1
				c0.1-0.1,0.2-0.1,0.3,0c0.2,0.1,0.9,0.2,2.2,0.2c1.1,0,1.7-0.1,1.7-0.2c0-0.1,0.3-0.2,0.7-0.2c0.4,0,0.6-0.1,0.6-0.2
				c0-0.2,0.1-0.3,0.2-0.3c0,0,0.2-0.1,0.4-0.3c0.3-0.2,0.4-0.3,0.5-0.3c0.1,0,0.2-0.1,0.2-0.3c0.1-0.2,0.2-0.3,0.3-0.3
				c0.1,0,0.2-0.1,0.3-0.3c0-0.2,0.2-0.3,0.4-0.3c0.2-0.1,0.3-0.1,0.3-0.2c0-0.1,0.1-0.1,0.2-0.1c0.1,0,0.2-0.2,0.2-0.6
				c0-0.3,0-0.5-0.1-0.5c-0.1,0-0.1-0.1,0-0.2c0.1-0.1,0.2-0.8,0.2-2.1c0-0.3,0-0.7,0-1.1C181.5,786,181.5,785.7,181.3,785.7z
				 M179.1,788.8c-0.1,0-0.2,0.2-0.2,0.4c0,0.3-0.1,0.4-0.2,0.5c-0.1,0.1-0.2,0.4-0.3,0.8c-0.1,0.4-0.1,0.6-0.3,0.6
				c-0.1,0-0.2,0-0.2,0.1c0,0.1-0.1,0.2-0.4,0.2c-0.3,0.1-0.4,0.2-0.4,0.3c0,0.1,0,0.2-0.1,0.2c-0.1,0.1-0.2,0.1-0.4,0.2
				c-0.1,0.1-0.2,0.1-0.3,0.1c0,0.1-0.2,0.1-0.4,0.1c-0.2,0-0.3,0.1-0.5,0.2c-0.1,0.1-0.2,0.1-0.4,0.1c-0.2,0-0.4,0-0.7-0.1
				c-0.5-0.1-1-0.3-1.3-0.6c-0.3-0.3-0.7-0.8-1-1.5c-0.3-0.5-0.4-0.9-0.5-1.1c0-0.2-0.1-0.7-0.1-1.4c0-0.7,0-1.1,0.1-1.4
				c0-0.2,0.1-0.5,0.3-0.8c0.3-0.5,0.6-0.9,1-1.3c0.4-0.4,0.8-0.6,1-0.7c0.3,0,0.5-0.1,0.5-0.3c0-0.1,0.1-0.2,0.2-0.2
				c0.1,0,0.2,0,0.2-0.1c0-0.1,0.1-0.1,0.3-0.1c0.2,0,0.3,0,0.3,0.1c0,0.1,0.3,0.1,0.9,0.1c0.5,0,0.8,0.1,0.8,0.2
				c0,0.1,0.1,0.2,0.3,0.3c0.2,0.1,0.3,0.2,0.3,0.3c0,0.1,0.1,0.2,0.3,0.3c0.3,0.1,0.5,0.4,0.5,0.8c0,0.2,0.1,0.5,0.3,0.8
				c0.2,0.3,0.3,0.7,0.3,1.1c0,0.5,0,0.7,0.1,0.8c0.1,0.1,0.1,0.2,0.1,0.4C179.3,788.6,179.2,788.7,179.1,788.8z"/>
			<path d="M200.1,781.9H200c-0.4,0-0.8-0.1-1.1-0.3c-0.3-0.2-0.4-0.2-0.4,0c0,0.1-0.1,0.2-0.2,0.2c-0.1,0-0.4,0-0.8,0.1
				c-0.7,0-1,0-1.1,0.1c-0.1,0.1-0.1,0.3-0.1,0.7l0,0.6c0.2,0,0.5,0,0.8,0.1c0.4,0,0.7,0.1,0.8,0.1v2.4c0,1.6,0.1,2.4,0.2,2.5
				c0,0,0.1,0,0.1,0.1c0,0,0,0.1,0,0.1c0,0-0.1,0.1-0.1,0.1c-0.1,0.2-0.2,0.4-0.2,0.5v0.2c0,0.3,0,0.6-0.1,0.9
				c-0.1,0.3-0.2,0.5-0.3,0.6c-0.1,0.1-0.2,0.1-0.2,0.3c0,0.1-0.1,0.3-0.3,0.5c-0.2,0.2-0.4,0.2-0.6,0.2c-0.3,0-0.4,0.1-0.6,0.2
				c-0.1,0.1-0.2,0.2-0.5,0.2c0,0-0.2,0-0.5-0.1c-0.5-0.1-0.7-0.2-0.8-0.2c0-0.1-0.2-0.1-0.4-0.1c-0.2,0-0.5-0.1-0.8-0.2
				c-0.2-0.1-0.3-0.2-0.4-0.2s-0.1-0.2-0.1-0.5v-0.4v-0.2c0-0.4-0.1-0.7-0.2-0.8c-0.1,0-0.2-0.1-0.2-0.3c0-0.2,0.1-0.3,0.2-0.4
				c0.1-0.1,0.1-0.1,0-0.2c-0.1,0-0.1-0.1-0.2-0.2c0-0.1,0-0.2,0-0.3c0-0.1,0.1-0.1,0.1-0.1c0.1,0,0.1-0.3,0.1-0.9
				c0-1-0.1-1.5-0.2-1.6c-0.1-0.1-0.1-0.2,0-0.3c0.1-0.1,0.2-0.4,0.2-0.9c0-0.1,0-0.2-0.1-0.3c0-0.1-0.1-0.2-0.1-0.3l0-0.1
				c0,0,0.1,0,0.3-0.1c0.2,0,0.4,0,0.6-0.1c0.2,0,0.5,0,0.6,0c0.1,0,0.1,0,0.2,0c0.1,0,0.1,0,0.1,0h0c0.1,0,0.1-0.1,0.1-0.2
				c0-0.1,0-0.4-0.1-0.6c0-0.2-0.1-0.4-0.3-0.5c-0.2-0.1-0.5-0.1-1-0.1c-0.2,0-0.7,0-1.6,0.1c-1.4,0.1-2.2,0.2-2.4,0.4
				c-0.2,0.2-0.3,0.4-0.3,0.6c0,0.4,0.4,0.6,1.1,0.7c0.5,0.1,0.8,0.2,0.8,0.4c0,0.1-0.1,0.2-0.2,0.3s-0.2,0.2-0.2,0.3
				c0,0.1,0,0.2,0.1,0.5c0.1,0.4,0.1,0.6,0,0.7s-0.2,0.1-0.3,0.1c-0.1,0-0.1,0.1-0.1,0.1c0,0.2,0.1,0.4,0.4,0.5
				c0.3,0.1,0.4,0.2,0.4,0.4c0,0.1-0.1,0.2-0.2,0.3c-0.2,0.1-0.2,0.4-0.2,1v0.4c0,0.8,0.1,1.3,0.2,1.4c0.1,0.1,0.1,0.3,0.1,0.5
				c0,0.2,0,0.3-0.1,0.3c-0.1,0-0.1,0.1-0.2,0.4c-0.1,0.3,0,0.4,0.2,0.5c0.2,0.1,0.3,0.3,0.5,0.7c0.1,0.3,0.2,0.5,0.3,0.5
				c0.1,0,0.1,0.1,0.2,0.4c0.1,0.3,0.2,0.4,0.4,0.4c0.2,0,0.4,0.1,0.5,0.2c0.1,0.1,1,0.2,2.7,0.2c1.4,0,2-0.1,2-0.2
				c0-0.1,0-0.2,0.1-0.2c0.1,0,0.2-0.1,0.3-0.2c0.1-0.2,0.2-0.2,0.4-0.2c0.2,0,0.3-0.1,0.3-0.3c0-0.2,0.2-0.3,0.5-0.3h0.2h0.1
				c0.3,0,0.5,0,0.5-0.1c0,0-0.1-0.1-0.2-0.2c-0.1-0.1-0.2-0.1-0.2-0.3s0.1-0.3,0.2-0.5c0.1-0.2,0.2-0.4,0.2-0.5c0,0,0-0.1-0.1-0.1
				c-0.1,0-0.2-0.1-0.2-0.3s0.1-0.2,0.2-0.3c0.1,0,0.2-0.2,0.2-0.4c0-0.3,0.1-0.6,0.1-1c0-0.4,0-0.6,0-0.7c0.1-0.4,0.1-1.1,0.1-2.2
				c0-1,0.1-1.5,0.2-1.6c0.1-0.1,0.2-0.2,0-0.2c-0.1-0.1-0.2-0.1-0.2-0.2c0-0.1,0.1-0.3,0.3-0.4c0.2-0.1,0.4-0.2,0.6-0.2
				c0.1,0,0.2,0,0.2,0c0,0,0.1,0,0.2,0c0.3,0,0.4-0.1,0.4-0.4c0-0.1,0-0.1-0.1-0.2c-0.1-0.1-0.1-0.2,0-0.2c0.1,0,0.2-0.1,0.2-0.2
				C201.3,782,200.9,781.9,200.1,781.9z"/>
			<path d="M209.7,779.4c0,0.1,0.1,0.2,0.3,0.2s0.3-0.1,0.3-0.2c0-0.1-0.1-0.1-0.3-0.1S209.7,779.3,209.7,779.4z"/>
			<path d="M221.6,792.7c-0.1,0-0.2-0.1-0.3-0.4c-0.1-0.2-0.3-0.4-0.5-0.4c-0.2,0-0.4-0.1-0.6-0.2c-0.2-0.1-0.4-0.2-0.4-0.4
				c-0.1-0.1-0.1-0.2-0.3-0.2s-0.3-0.1-0.6-0.4c-0.2-0.3-0.4-0.6-0.6-0.9c-0.1-0.3-0.4-0.6-0.8-1.1c-0.4-0.5-0.7-0.7-0.8-0.7
				c-0.1,0-0.2-0.1-0.4-0.3c-0.1-0.1-0.2-0.2-0.1-0.3c0,0,0.1-0.1,0.3-0.2c0.8-0.3,1.2-0.6,1.2-0.9c0-0.5,0.1-0.7,0.3-0.7
				c0.1,0,0.2-0.1,0.4-0.2c0.2-0.2,0.2-0.7,0.2-1.5c0-1-0.1-1.5-0.3-1.7c-0.1-0.1-0.2-0.2-0.4-0.2c-0.1,0-0.2,0-0.2-0.1
				c0-0.1-0.1-0.2-0.4-0.3c-0.3-0.1-0.4-0.3-0.5-0.5l-0.2-0.3c-0.1-0.1-0.2-0.1-0.2,0.1c0,0.1-0.3,0.1-0.8,0.1c-0.6,0-0.9,0-0.9-0.1
				c0-0.1-0.1-0.1-0.4-0.1c-0.3,0-0.5-0.1-0.6-0.3c-0.2-0.2-0.3-0.3-0.4-0.3s-0.2,0.1-0.1,0.3c0,0,0,0,0,0.1v0.1
				c0,0.1-0.6,0.2-1.8,0.2h-1.9l-0.5,0.5c-0.3,0.3-0.5,0.6-0.5,0.7c0,0.1,0.2,0.2,0.5,0.3c0.3,0.1,0.5,0.1,0.5,0.2
				c0,0.1,0,0.1,0.1,0.1c0.2,0,0.4,0.2,0.6,0.5c0.2,0.3,0.3,0.7,0.3,1.2c0,0.4,0.1,0.6,0.1,0.6c0,0.2-0.1,0.4-0.2,0.5
				c-0.2,0.1-0.2,0.2-0.1,0.3c0.1,0.1,0.2,0.3,0.2,0.7c0,0.3-0.1,0.5-0.2,0.5c-0.1,0-0.2,0,0,0.1c0.1,0.1,0.2,0.2,0.2,0.4
				c0,0.2-0.1,0.4-0.2,0.5c-0.1,0.1-0.1,0.3,0.1,0.4c0.1,0.1,0.2,0.3,0.2,0.4c0,0.1-0.1,0.3-0.2,0.4c-0.2,0.2-0.3,0.7-0.3,1.6
				c0,0.7,0,1.1-0.1,1.2c0,0.1-0.1,0.2-0.3,0.3c-0.2,0.1-0.3,0.1-0.3,0.2c0,0.1-0.3,0.1-0.8,0.1c-0.4,0-0.6,0.1-0.7,0.1
				c-0.1,0.1-0.1,0.2-0.1,0.5c0,0.2,0.2,0.5,0.6,0.8c0.2,0.1,0.3,0.2,0.5,0.2c0.2,0,0.3-0.1,0.3-0.2c0.1-0.1,0.8-0.2,2.1-0.2
				c1.3,0,2.1-0.1,2.2-0.3c0.1-0.1,0.2-0.2,0.3-0.2c0.1,0,0.2-0.1,0.2-0.2c0-0.1-0.1-0.2-0.4-0.2c-0.3,0-0.4-0.1-0.5-0.3
				c0-0.2-0.2-0.3-0.5-0.4c-0.4-0.1-0.5-0.2-0.5-0.4c0-0.1,0-0.2,0.1-0.3c0.2-0.2,0.2-0.3,0.1-0.4c-0.1,0-0.2-0.6-0.2-1.6
				c0-0.3,0-0.6,0-1c0-0.3,0-0.4,0.1-0.5c0-0.1,0.1-0.1,0.2-0.1c0.5,0,1,0.2,1.5,0.5c0.5,0.4,0.8,0.7,0.8,1c0,0.2,0.1,0.3,0.2,0.3
				c0.1,0,0.2,0.1,0.2,0.4c0,0.5,0.3,0.8,0.8,1c0.2,0.1,0.4,0.3,0.5,0.7c0.1,0.4,0.3,0.8,0.7,1.2l0.6,0.7l0.9-0.1
				c0.1,0,0.3,0,0.6-0.1c0.3,0,0.6,0,0.8-0.1c0.2,0,0.4-0.1,0.7-0.1c0.3-0.1,0.4-0.1,0.6-0.2c0.1-0.1,0.2-0.2,0.2-0.3
				C221.7,792.8,221.7,792.7,221.6,792.7z M216,785.9c-0.1,0-0.2,0-0.2,0.1c-0.1,0-0.1,0,0,0.1c0.2,0,0.2,0.1,0.2,0.2
				c0,0.1-0.1,0.3-0.4,0.4c-0.2,0.2-0.5,0.3-0.7,0.3c-0.3,0-0.6,0.1-1.1,0.2c-0.1,0-0.2,0-0.3,0c-0.2,0-0.4-0.1-0.7-0.3
				c-0.2-0.2-0.3-0.3-0.4-0.3s0-0.1,0.1-0.2c0.1-0.1,0.2-0.7,0.2-1.6v-1.2c0-0.3,0.1-0.5,0.2-0.7c0.1-0.2,0.3-0.4,0.4-0.4h0.1
				l0.4,0.1c0.3,0,0.5,0.1,0.8,0.1c0.2,0.1,0.4,0.1,0.4,0.1c0,0.1,0.1,0.1,0.4,0.2c0.3,0.1,0.4,0.2,0.4,0.3c0,0.1,0.1,0.3,0.2,0.4
				c0.1,0.1,0.2,0.2,0.1,0.3c-0.1,0.1-0.1,0.3,0.1,0.6c0.1,0.2,0.2,0.5,0.2,0.8v0.1c0,0.2-0.1,0.4-0.1,0.4
				C216.3,785.8,216.2,785.9,216,785.9z"/>
			<path d="M214.6,780.4C214.6,780.4,214.7,780.4,214.6,780.4c0.1-0.1,0.2-0.1,0.1-0.1c0,0-0.1,0-0.3,0c-0.2,0-0.3,0.1-0.3,0.2
				C214.3,780.5,214.5,780.5,214.6,780.4z"/>
			<path d="M253.1,785.7c-0.2-0.1-0.2-0.2-0.2-0.5c0-0.3,0-0.5-0.1-0.5c-0.1,0-0.1-0.1-0.1-0.4c0-0.3-0.1-0.4-0.2-0.4
				c-0.1,0-0.2-0.1-0.3-0.3c-0.1-0.2-0.2-0.3-0.3-0.4c-0.1-0.1-0.2-0.2-0.2-0.4c0-0.2-0.1-0.3-0.4-0.3c-0.7,0-1-0.1-1-0.4
				c0-0.1-0.1-0.2-0.2-0.2c-0.1,0-0.2,0-0.2-0.1s-0.1-0.1-0.3-0.1c-0.2,0-0.3-0.1-0.4-0.2c0-0.1-0.5-0.2-1.5-0.2
				c-0.9,0-1.5,0.1-1.6,0.2c-0.1,0.1-0.2,0.2-0.4,0.2c-0.2,0-0.3,0.1-0.4,0.3c-0.1,0.2-0.3,0.4-0.6,0.4c-0.3,0-0.6,0.1-1.1,0.2
				c-0.5,0.1-0.7,0.3-0.8,0.5c0,0.2-0.2,0.4-0.5,0.7s-0.4,0.5-0.4,0.5c0,0.1-0.1,0.1-0.2,0.1c-0.1,0-0.2,0.1-0.3,0.4
				c-0.1,0.2-0.2,0.5-0.3,0.7c-0.2,0.3-0.2,0.8-0.2,1.8c0,1.2,0.1,2.1,0.4,2.9c0.5,1.4,0.9,2.2,1.2,2.3c0.2,0,0.3,0.1,0.3,0.3
				c0,0.2,0.2,0.2,0.4,0.2c0.2,0,0.4,0,0.4,0.1c0,0.1,0.1,0.1,0.3,0.1s0.3,0.1,0.3,0.4c0,0.2,0,0.3,0.1,0.4c0.1,0.1,0.2,0,0.4-0.1
				c0.1-0.1,0.2-0.1,0.3,0c0.2,0.1,0.9,0.2,2.2,0.2c1.1,0,1.7-0.1,1.7-0.2c0-0.1,0.3-0.2,0.7-0.2c0.4,0,0.6-0.1,0.6-0.2
				c0-0.2,0.1-0.3,0.2-0.3c0,0,0.2-0.1,0.4-0.3c0.3-0.2,0.4-0.3,0.5-0.3c0.1,0,0.2-0.1,0.2-0.3c0.1-0.2,0.2-0.3,0.3-0.3
				c0.1,0,0.2-0.1,0.3-0.3c0-0.2,0.2-0.3,0.4-0.3c0.2-0.1,0.3-0.1,0.3-0.2c0-0.1,0.1-0.1,0.2-0.1c0.1,0,0.2-0.2,0.2-0.6
				c0-0.3,0-0.5-0.1-0.5c-0.1,0-0.1-0.1,0-0.2c0.1-0.1,0.2-0.8,0.2-2.1c0-0.3,0-0.7,0-1.1C253.3,786,253.2,785.7,253.1,785.7z
				 M250.9,788.8c-0.1,0-0.2,0.2-0.2,0.4c0,0.3-0.1,0.4-0.2,0.5c-0.1,0.1-0.2,0.4-0.3,0.8c-0.1,0.4-0.1,0.6-0.3,0.6
				c-0.1,0-0.2,0-0.2,0.1c0,0.1-0.1,0.2-0.4,0.2c-0.3,0.1-0.4,0.2-0.4,0.3c0,0.1,0,0.2-0.1,0.2c-0.1,0.1-0.2,0.1-0.4,0.2
				c-0.1,0.1-0.2,0.1-0.3,0.1c0,0.1-0.2,0.1-0.4,0.1c-0.2,0-0.3,0.1-0.5,0.2c-0.1,0.1-0.2,0.1-0.4,0.1c-0.2,0-0.4,0-0.7-0.1
				c-0.5-0.1-1-0.3-1.3-0.6c-0.3-0.3-0.7-0.8-1-1.5c-0.3-0.5-0.4-0.9-0.5-1.1c0-0.2-0.1-0.7-0.1-1.4c0-0.7,0-1.1,0.1-1.4
				c0-0.2,0.1-0.5,0.3-0.8c0.3-0.5,0.6-0.9,1-1.3c0.4-0.4,0.8-0.6,1-0.7c0.3,0,0.5-0.1,0.5-0.3c0-0.1,0.1-0.2,0.2-0.2
				c0.1,0,0.2,0,0.2-0.1c0-0.1,0.1-0.1,0.3-0.1c0.2,0,0.3,0,0.3,0.1c0,0.1,0.3,0.1,0.9,0.1c0.5,0,0.8,0.1,0.8,0.2
				c0,0.1,0.1,0.2,0.3,0.3c0.2,0.1,0.3,0.2,0.3,0.3c0,0.1,0.1,0.2,0.3,0.3c0.3,0.1,0.5,0.4,0.5,0.8c0,0.2,0.1,0.5,0.3,0.8
				c0.2,0.3,0.3,0.7,0.3,1.1c0,0.5,0,0.7,0.1,0.8c0.1,0.1,0.1,0.2,0.1,0.4C251.1,788.6,251,788.7,250.9,788.8z"/>
			<path d="M270.8,783.9c0-0.3-0.1-0.5-0.2-0.6c-0.1-0.1-0.1-0.2,0-0.4c0.1-0.1,0.1-0.2,0.1-0.2c0-0.1-0.1-0.2-0.2-0.2
				c-0.1-0.1-0.2-0.2-0.2-0.3c0-0.2-0.1-0.3-0.3-0.5c-0.2-0.2-0.4-0.3-0.5-0.3c-0.1,0-0.2,0-0.2,0.1c0,0.1-0.3,0.1-0.9,0.2
				c-0.5,0.1-1.1,0.1-1.7,0.1c-0.6,0-0.9,0-1,0.1c-0.1,0-0.5,0.1-1.4,0.1c-0.9,0.1-1.8,0.2-2.7,0.3c-0.9,0.1-1.4,0.2-1.4,0.2
				c0,0,0,0.1,0,0.2c0,0.1,0,0.2,0.1,0.3c0.1,0.2,0.1,0.3,0.2,0.4c0.1,0,0.3,0.1,0.6,0.1c0.5,0,0.9,0.1,1,0.3
				c0.1,0.2,0.2,0.7,0.2,1.6c0,0.9-0.1,1.4-0.2,1.5c-0.1,0.1-0.1,0.2,0,0.4c0.1,0.3,0.2,0.5,0,0.7c-0.1,0.2-0.2,0.3-0.3,0.3
				c-0.1,0,0,0.1,0.1,0.2c0.1,0.1,0.1,0.3,0.1,0.6c0,0.1,0,0.4-0.1,0.8c-0.1,1.4-0.2,2.3-0.2,2.6c-0.1,0.4-0.1,0.5-0.3,0.6
				c-0.2,0.1-0.5,0.3-0.8,0.6l-0.5,0.6h5v-0.5c0-0.2,0-0.4-0.1-0.4c0-0.1-0.1-0.1-0.3-0.1c-0.2,0-0.4,0-0.4-0.1s-0.1-0.1-0.2-0.1
				c-0.1,0-0.2-0.1-0.3-0.3c0-0.1,0-0.4,0-1.2c0-1.2,0-2.1,0.1-2.8c0-0.1,0.5-0.1,1.4-0.1c0.8,0,1.3,0.1,1.5,0.2
				c0.3,0.1,0.4,0.4,0.4,0.9c0,0.3,0,0.5,0.1,0.5c0.1,0,0.1-0.1,0.3-0.2c0.1-0.1,0.3-0.2,0.5-0.1c0.2,0.1,0.3,0,0.3-0.2
				c0-0.2,0-0.3,0.1-0.4c0.1-0.1,0.1-0.2,0-0.2c-0.1-0.1-0.2-0.3-0.2-0.6c0-0.4,0.1-0.7,0.2-0.8c0.1-0.1,0.1-0.1,0.1-0.2
				c0-0.1,0-0.1-0.1-0.2c-0.1-0.1-0.1-0.2-0.1-0.2c0-0.1,0-0.1,0.1-0.2c0.2-0.1,0.2-0.2,0.2-0.4c0-0.3-0.4-0.4-1.1-0.4
				c-0.4,0-0.6,0.2-0.6,0.5c0,0.1,0,0.2,0.1,0.3c0.1,0.2,0,0.4,0,0.5c-0.1,0.1-0.4,0.2-1,0.3c-0.6,0.1-1.1,0.2-1.6,0.2H264v-0.6
				c0-0.4,0.1-0.6,0.2-0.7c0.1-0.1,0.2-0.2,0.2-0.4c0-0.3-0.1-0.5-0.2-0.8c-0.1-0.2-0.2-0.4-0.2-0.4c0-0.1,0.1-0.1,0.2-0.3
				c0.2-0.2,0.3-0.4,0.2-0.6c0-0.1,0-0.1,0-0.2c0-0.1,0.1-0.2,0.4-0.3c0.3-0.1,0.8-0.1,1.6-0.1c0.7,0,1.1-0.1,1.1-0.1
				c0.3,0,0.5,0.1,0.7,0.2c0.2,0.2,0.3,0.3,0.5,0.4c0.2,0.1,0.3,0.2,0.3,0.3c0,0.1,0.1,0.3,0.3,0.4c0.2,0.1,0.4,0.3,0.5,0.6
				c0.1,0.4,0.4,0.5,0.8,0.5c0.1,0,0.2,0,0.3-0.1c0.1-0.1,0.2-0.2,0.2-0.6c0-0.3-0.1-0.5-0.2-0.5
				C270.9,784.4,270.8,784.2,270.8,783.9z"/>
			<path d="M300.6,782.2h-1c-0.5,0-0.9,0-1.1-0.1c-0.2-0.1-0.3-0.3-0.3-0.5c0-0.1,0-0.2-0.1-0.2c-0.1,0-0.2,0-0.2,0.1
				c-0.1,0.1-0.3,0.2-0.7,0.2c-0.2,0-0.2,0-0.2-0.1c0-0.1-0.2-0.1-0.7-0.1c-0.5,0-0.8,0.1-0.8,0.2c-0.1,0.1-0.2,0.2-0.4,0.2
				c-0.2,0-0.3,0-0.4,0c-0.1,0-0.1,0-0.2,0c-0.1,0-0.2,0-0.2,0c-0.3,0-0.5,0.1-0.8,0.4c-0.3,0.3-0.5,0.5-0.7,0.5
				c-0.2,0.1-0.4,0.2-0.5,0.5c-0.1,0.3-0.3,0.4-0.6,0.4c-0.5,0.1-0.7,0.4-0.8,1c0,0.2-0.1,0.4-0.2,0.6c-0.1,0.2-0.2,0.5-0.2,0.6
				c0,0.3-0.1,0.4-0.2,0.5c-0.1,0.1-0.1,0.2-0.1,0.4c0,0.2-0.1,0.4-0.2,0.5c-0.1,0.1-0.2,0.6-0.2,1.5c0,1,0.1,1.6,0.2,1.6
				c0.1,0,0.1,0.1,0.1,0.3c0,0.1,0,0.2-0.1,0.2c-0.1,0,0,0.1,0.2,0.4c0.2,0.2,0.4,0.4,0.5,0.4c0.1,0,0.1,0.1,0.2,0.4
				c0.1,0.2,0.3,0.4,0.6,0.8c0.4,0.3,0.6,0.5,0.9,0.6c0.2,0.1,0.2,0.1,0.2,0.2c0,0.1,0.3,0.2,1,0.3c0.6,0.1,1.4,0.1,2.1,0.1
				c1.1,0,1.8-0.1,2-0.3c0.2-0.2,0.5-0.3,0.8-0.4c0.4-0.1,0.7-0.2,0.8-0.5c0.2-0.3,0.4-0.6,0.7-0.9c0.3-0.3,0.5-0.5,0.5-0.6
				c0-0.1-0.1-0.2-0.3-0.3c-0.4-0.2-0.6-0.3-0.8-0.3c-0.1,0-0.2,0.1-0.3,0.3c-0.1,0.3-0.2,0.4-0.4,0.4c-0.2,0-0.4,0.1-0.7,0.4
				c-0.2,0.3-0.4,0.3-0.5,0.2c-0.1-0.1-0.2-0.1-0.4,0.1c-0.1,0.1-0.4,0.2-0.7,0.2c-0.1,0-0.4,0-0.9-0.1c-0.7,0-1.1-0.1-1.3-0.2
				c-0.2-0.1-0.3-0.3-0.3-0.6c0-0.2-0.2-0.5-0.6-0.9c-0.3-0.3-0.5-0.5-0.6-0.7c-0.1-0.2-0.2-0.5-0.3-1c-0.1-0.7-0.2-1.1-0.3-1.1
				c-0.1,0-0.1-0.1-0.1-0.2c0-0.1,0-0.2,0.1-0.3c0.2,0,0.3-0.7,0.3-1.9c0-0.2,0.1-0.3,0.3-0.3c0.2,0,0.3-0.1,0.2-0.3
				c-0.1-0.3,0.1-0.4,0.4-0.6c0.3-0.1,0.5-0.3,0.5-0.4c0-0.1,0.1-0.3,0.3-0.4c0.2-0.1,0.5-0.2,0.7-0.2c0.2,0,0.3-0.1,0.3-0.2
				c0-0.1,0.2-0.2,0.7-0.3c0.1,0,0.1,0,0.2,0c0.1,0,0.1,0,0.2,0c0.6,0,1,0.2,1.2,0.5c0.1,0.2,0.3,0.3,0.6,0.4c0.2,0,0.3,0.1,0.3,0.1
				c0,0.1,0.1,0.1,0,0.3c-0.1,0.2,0,0.3,0.1,0.4c0.1,0.1,0.3,0.4,0.4,1c0.1,0.4,0.1,0.7,0.2,0.8c0.1,0.1,0.2,0.2,0.4,0.3
				c0.3,0.1,0.4,0.2,0.4,0.4c0,0.1,0,0.1,0,0.1c0,0,0.1,0,0.1,0c0.1-0.1,0.2-0.6,0.2-1.6c0-1,0.1-1.6,0.2-1.6c0.1-0.1,0.1-0.3,0-0.8
				L300.6,782.2z"/>
			<path d="M318.9,783h-0.2c-0.4,0-0.8-0.1-1-0.3c-0.2-0.1-0.3-0.2-0.4-0.2c0,0-0.1,0.1-0.1,0.2c0,0.1,0,0.2-0.1,0.2
				c-0.1,0-0.4,0-0.8,0.1c-0.6,0-1,0-1,0.1c-0.1,0.1-0.1,0.3-0.1,0.7l0,0.6l0.8,0.1l0.8,0v2.3c0,1.5,0,2.3,0.1,2.4
				c0.1,0,0.1,0.1-0.1,0.3c-0.1,0.2-0.2,0.4-0.2,0.5v0.2c0,0.3,0,0.6-0.1,0.9c-0.1,0.3-0.2,0.5-0.3,0.5c-0.1,0.1-0.2,0.1-0.2,0.3
				c0,0.1-0.1,0.3-0.3,0.4c-0.2,0.2-0.4,0.2-0.6,0.2c-0.3,0-0.4,0.1-0.5,0.2c-0.1,0.1-0.2,0.2-0.4,0.2c-0.1,0-0.2,0-0.5-0.1
				c-0.5-0.1-0.7-0.1-0.8-0.2c0-0.1-0.2-0.1-0.4-0.1c-0.2,0-0.4-0.1-0.8-0.2c-0.2-0.1-0.3-0.2-0.4-0.3s-0.1-0.2-0.1-0.5V791v-0.3
				c0-0.4,0-0.6-0.1-0.6c-0.1,0-0.2-0.1-0.1-0.3c0-0.2,0.1-0.3,0.2-0.3c0.1-0.1,0.1-0.1,0-0.2c-0.1,0-0.1-0.1-0.1-0.2
				c0-0.1,0-0.2,0-0.3c0-0.1,0.1-0.1,0.1-0.1c0.1,0,0.1-0.3,0.1-0.9c0-0.9-0.1-1.4-0.2-1.5c-0.1-0.1-0.1-0.2,0-0.3
				c0.1-0.1,0.2-0.4,0.2-0.8c0-0.1,0-0.2,0-0.3c0-0.1-0.1-0.2-0.1-0.3c0-0.1,0-0.1,0-0.1c0-0.1,0.5-0.1,1.4-0.1c0.1,0,0.1,0,0.2,0
				c0.1,0,0.1,0,0.2,0h0c0,0,0.1-0.1,0.1-0.2c0-0.1,0-0.3-0.1-0.6c0-0.2-0.1-0.4-0.3-0.5c-0.2-0.1-0.5-0.1-1-0.1
				c-0.1,0-0.6,0-1.5,0.1c-1.4,0.1-2.1,0.2-2.3,0.4c-0.2,0.2-0.2,0.4-0.2,0.5c0,0.4,0.3,0.6,1,0.7c0.5,0.1,0.7,0.2,0.7,0.4
				c0,0.1-0.1,0.2-0.2,0.3c-0.2,0.1-0.2,0.4-0.1,0.7c0.1,0.3,0.1,0.6,0,0.6c-0.1,0.1-0.2,0.1-0.3,0.1c-0.1,0-0.1,0-0.1,0.1
				c0,0.2,0.1,0.4,0.4,0.5c0.2,0.1,0.4,0.2,0.4,0.4c0,0.1-0.1,0.2-0.2,0.3c-0.1,0.1-0.2,0.4-0.2,0.9v0.4c0,0.8,0.1,1.3,0.2,1.3
				c0.1,0.1,0.1,0.2,0.1,0.5c0,0.2,0,0.3-0.1,0.3c-0.1,0-0.1,0.1-0.2,0.4c-0.1,0.3,0,0.4,0.2,0.5c0.1,0.1,0.3,0.3,0.4,0.6
				c0.1,0.3,0.2,0.5,0.3,0.5s0.1,0.1,0.2,0.4c0.1,0.3,0.2,0.4,0.4,0.4c0.2,0,0.4,0,0.5,0.1c0.1,0.1,1,0.2,2.5,0.2
				c1.3,0,1.9-0.1,1.9-0.2s0.1-0.2,0.2-0.2c0.1,0,0.2-0.1,0.3-0.2c0.1-0.1,0.2-0.2,0.4-0.2c0.2,0,0.3-0.1,0.3-0.3
				c0-0.1,0.1-0.2,0.1-0.3c0.1,0,0.2,0,0.5,0h0.1c0.3,0,0.5,0,0.5-0.1c0-0.1-0.1-0.1-0.2-0.2c-0.1-0.1-0.2-0.2-0.2-0.3
				c0-0.2,0.1-0.4,0.2-0.6c0.2-0.2,0.2-0.4,0.1-0.4c-0.1,0-0.2-0.1-0.2-0.2c0-0.1,0-0.2,0.1-0.2c0.1,0,0.2-0.2,0.2-0.4
				c0-0.2,0.1-0.6,0.1-0.9c0-0.4,0-0.6,0-0.6c0-0.1,0-0.5,0.1-1.1c0-0.6,0-1.2,0.1-1.7c0-0.5,0.1-0.8,0.2-0.9c0.1-0.1,0.2-0.2,0-0.2
				c-0.1-0.1-0.2-0.1-0.2-0.2c0-0.1,0.1-0.3,0.3-0.4c0.2-0.1,0.4-0.2,0.6-0.2c0.1,0,0.2,0,0.2,0c0,0,0.1,0,0.2,0
				c0.3,0,0.4-0.1,0.4-0.3c0-0.1,0-0.1-0.1-0.2c-0.1-0.1-0.1-0.2,0-0.2c0.1,0,0.1-0.1,0.1-0.2C320.1,783.1,319.7,783,318.9,783z"/>
			<path d="M336.7,782.4c-0.1,0-0.2,0-0.2-0.1s-0.1-0.2-0.4-0.3c-0.3-0.1-0.4-0.3-0.5-0.5l-0.2-0.3c-0.1-0.1-0.2-0.1-0.2,0.1
				c0,0.1-0.3,0.1-0.8,0.1c-0.6,0-0.9,0-0.9-0.1s-0.1-0.1-0.3-0.1c-0.5,0-0.8-0.1-0.8-0.4c0-0.1-0.1-0.2-0.3-0.2s-0.3,0.1-0.2,0.3
				c0,0,0,0,0,0.1c0,0,0,0,0,0.1c0,0.1-0.6,0.2-1.8,0.2h-1.8l-0.5,0.5c-0.3,0.3-0.5,0.5-0.5,0.7c0,0.2,0.2,0.4,0.7,0.4
				c0.2,0,0.3,0,0.3,0.1c0,0.1,0,0.1,0.1,0.1c0.2,0,0.4,0.2,0.6,0.5c0.2,0.3,0.3,0.7,0.3,1.2c0,0.4,0.1,0.6,0.1,0.6
				c0,0.2-0.1,0.4-0.2,0.5c-0.2,0.1-0.2,0.2-0.1,0.3c0.1,0.1,0.2,0.3,0.2,0.7c0,0.3-0.1,0.5-0.2,0.5c-0.2,0-0.2,0,0,0.1
				c0.1,0.1,0.1,0.3,0,0.6c-0.1,0.3-0.1,0.5,0.1,0.6c0.1,0.1,0.1,0.2,0.1,0.3c0,0.2-0.1,0.4-0.2,0.5c-0.1,0.1-0.1,0.6-0.2,1.6l0,1.5
				l-0.4,0.2c-0.2,0.1-0.5,0.2-1.1,0.2c-0.3,0-0.5,0.1-0.5,0.1c-0.1,0.1-0.1,0.2-0.1,0.4c0,0.2,0.2,0.5,0.6,0.8
				c0.2,0.1,0.3,0.2,0.5,0.2c0.2,0,0.3-0.1,0.3-0.2c0.1-0.1,0.8-0.2,2.1-0.2c1.4-0.1,2.1-0.1,2.2-0.3c0.1-0.1,0.2-0.2,0.3-0.2
				c0.1,0,0.2-0.1,0.2-0.2c0-0.1-0.1-0.2-0.4-0.2c-0.3,0-0.4-0.1-0.5-0.3c0-0.2-0.2-0.3-0.5-0.4c-0.4-0.1-0.5-0.2-0.5-0.4
				c0-0.1,0-0.2,0.1-0.3c0.2-0.2,0.2-0.3,0.1-0.4c-0.1,0-0.2-0.6-0.2-1.6c0-0.3,0-0.6,0-1c0-0.3,0-0.4,0.1-0.5
				c0-0.1,0.1-0.1,0.2-0.1c0.2,0,0.5,0,0.8,0.1c0.3,0.1,0.5,0.2,0.6,0.3c0.1,0.1,0.7,0.2,1.7,0.2c0.8,0,1.2,0,1.2-0.1
				c0.1-0.1,0-0.2-0.2-0.3c-0.2-0.1-0.4-0.2-0.5-0.4c-0.1-0.1-0.2-0.2-0.2-0.2c0,0,0.1-0.1,0.3-0.1c0.3-0.1,0.4-0.1,0.4-0.2
				c0-0.1,0.1-0.2,0.4-0.3c0.3-0.1,0.4-0.2,0.4-0.4c0-0.5,0.1-0.7,0.3-0.7c0.1,0,0.2-0.1,0.4-0.2c0.2-0.2,0.2-0.7,0.2-1.5
				c0-1-0.1-1.5-0.3-1.7C337,782.5,336.8,782.4,336.7,782.4z M335.1,786.1c0,0-0.1,0.1-0.4,0.1h-0.1c0,0-0.1,0-0.1,0
				c-0.1,0-0.1,0,0,0.1c0.1,0.1,0.2,0.1,0.2,0.2c0,0.1-0.1,0.3-0.3,0.5c-0.2,0.2-0.5,0.3-0.7,0.3c-0.3,0-0.6,0.1-1.1,0.2
				c-0.1,0-0.2,0-0.3,0c-0.2,0-0.4-0.1-0.7-0.3c-0.2-0.2-0.3-0.3-0.4-0.3c0-0.1,0-0.1,0.1-0.2c0.1-0.1,0.2-0.7,0.2-1.6v-1.2
				c0-0.3,0.1-0.5,0.2-0.7c0.1-0.2,0.3-0.4,0.4-0.4h0.1l0.4,0.1c0.3,0,0.5,0.1,0.8,0.1c0.2,0.1,0.4,0.1,0.4,0.1
				c0,0.1,0.1,0.1,0.4,0.2c0.3,0.1,0.4,0.2,0.4,0.3c0,0.1,0.1,0.3,0.2,0.4c0.1,0.1,0.2,0.2,0.1,0.3c-0.1,0.1-0.1,0.3,0.1,0.6
				c0.1,0.2,0.2,0.4,0.2,0.6C335.2,785.3,335.2,785.6,335.1,786.1z"/>
			<path d="M333.4,780.6C333.5,780.6,333.5,780.5,333.4,780.6c0.1-0.1,0-0.1-0.2-0.1c-0.2,0-0.3,0.1-0.3,0.2
				C333.1,780.7,333.2,780.7,333.4,780.6C333.4,780.6,333.4,780.6,333.4,780.6z"/>
			<path d="M329,779.6c0-0.1-0.1-0.1-0.3-0.1c-0.2,0-0.3,0-0.3,0.1c0,0.1,0.1,0.2,0.3,0.2C328.9,779.8,329,779.7,329,779.6z"/>
			<path d="M352.8,789.5c0-0.6-0.1-0.9-0.2-1.1c-0.1-0.2-0.3-0.4-0.6-0.5c-0.3-0.1-0.5-0.3-0.5-0.4c-0.1-0.1-0.3-0.3-0.9-0.6
				c-0.5-0.3-1-0.5-1.3-0.6c-0.2-0.1-0.5-0.2-0.9-0.5c-0.4-0.3-0.6-0.4-0.6-0.5c0-0.1-0.1-0.2-0.2-0.3c-0.2-0.1-0.2-0.2-0.2-0.3
				c0,0,0-0.1,0-0.1c0.1-0.1,0.1-0.2,0.1-0.3c0-0.1,0-0.3-0.1-0.6c0-0.1,0-0.2,0-0.2c0,0,0.2-0.1,0.3-0.1c0.3,0,0.4-0.1,0.4-0.2
				c0-0.1,0.1-0.2,0.4-0.4c0.3-0.2,0.4-0.3,0.4-0.3c0-0.1,0.1-0.1,0.4-0.2c0.1,0,0.1,0,0.2,0c0.4,0,0.8,0.2,1.2,0.5
				c0.5,0.3,0.7,0.6,0.7,0.9c0,0.2,0.1,0.4,0.3,0.5c0.2,0.1,0.3,0.3,0.3,0.4c0,0.1,0.1,0.3,0.2,0.5s0.3,0.3,0.4,0.3c0,0,0,0,0.1,0
				c0.1-0.1,0.1-0.7,0.2-2v-0.8c0-0.6-0.1-0.9-0.2-0.9c-0.1,0-0.1,0-0.1,0c-0.3,0.1-0.6,0.2-0.8,0.2c-0.3,0-0.6-0.1-1-0.3
				c-0.4-0.2-0.6-0.3-0.7-0.3c0,0-0.1,0-0.2,0.1c-0.3,0.1-0.6,0.1-0.8,0.1c-0.3,0-0.4,0-0.5,0.1c0,0.1-0.1,0.2-0.3,0.2
				c-0.2,0-0.4-0.1-0.5-0.2c-0.1-0.1-0.3-0.2-0.5-0.2h0c-0.1,0-0.1,0-0.1,0c-0.1,0-0.1,0-0.1,0c0,0,0.1,0,0.1,0
				c0.1,0.1,0.2,0.1,0.2,0.2c0,0.2-0.2,0.3-0.5,0.4c-0.3,0.1-0.4,0.2-0.4,0.4c0.1,0.2,0,0.3-0.2,0.4c-0.3,0.1-0.6,0.5-1.1,1.1
				c-0.1,0.2-0.2,0.4-0.2,0.6c0,0,0,0.3,0.1,0.8c0.1,0.7,0.3,1.1,0.4,1.3c0.1,0.2,0.4,0.4,0.7,0.7c0.4,0.3,0.6,0.4,0.8,0.4
				c0.1,0,0.3,0.1,0.6,0.4c0.4,0.3,0.9,0.6,1.7,0.8c0.5,0.1,0.8,0.3,1.1,0.6c0.2,0.2,0.3,0.4,0.5,0.7c0.1,0.3,0.2,0.5,0.2,0.7
				c0,0.1,0,0.1-0.1,0.2c-0.1,0-0.1,0.2-0.1,0.4c0.1,0.2,0,0.4-0.2,0.6c-0.1,0.1-0.2,0.3-0.2,0.4c0,0.2-0.5,0.4-1.4,0.5
				c-0.1,0-0.3,0-0.6,0c-0.9,0-1.7-0.4-2.2-1.2c-0.3-0.4-0.5-0.8-0.5-1c0,0,0-0.1,0-0.2c0-0.1,0-0.2,0-0.2c0,0-0.1-0.1-0.1-0.1
				c-0.1,0-0.1,0-0.1-0.1c0.1-0.3-0.1-0.5-0.4-0.6c-0.1,0-0.2-0.1-0.3-0.1c-0.3,0-0.4,0.2-0.5,0.5c-0.1,1.2-0.1,1.9-0.2,1.9
				c-0.1,0.1-0.1,0.4-0.2,0.8c0,0.1,0,0.3,0,0.4c0,0.2,0.1,0.4,0.3,0.6c0.1,0.1,0.2,0.2,0.3,0.2c0,0,0.1,0,0.2-0.2
				c0.1-0.2,0.2-0.3,0.2-0.4c0-0.3,0.2-0.3,0.5-0.1c0.9,0.5,1.8,0.7,2.9,0.7c0.5,0,1.1-0.1,1.6-0.2c0.6-0.1,1.1-0.3,1.4-0.6
				c0.3-0.3,0.5-0.5,0.5-0.5c0-0.1,0.1-0.2,0.2-0.3c0.2-0.1,0.3-0.4,0.3-0.9c0.1-0.5,0.1-0.7,0.2-0.7c0.1,0,0.1,0,0-0.1
				S352.8,790.2,352.8,789.5z M348.4,788C348.3,788,348.3,787.9,348.4,788c-0.1-0.1-0.1-0.1,0-0.1
				C348.4,787.8,348.5,787.9,348.4,788C348.5,787.9,348.4,788,348.4,788z"/>
			<path d="M346.9,788.7c0-0.1,0-0.2-0.1-0.2c-0.1,0-0.1,0-0.1,0.1l0.1,0.2C346.9,789,346.9,788.9,346.9,788.7z"/>
			<polygon points="263.9,407.2 254.4,413.2 252,397.4 249.5,413.2 240,407.2 246,416.7 230.2,419.1 246,421.6 240,431.1 
				249.5,425.1 252,440.9 254.4,425.1 263.9,431.1 257.9,421.6 273.8,419.1 257.9,416.7 			"/>
			<path d="M245.1,281.9c0.9,0.4,1.8,0.8,2.7,1.2c0.5,0.2,1.1,0.5,1.6,0.7c0.1,0.1,0.2,0.1,0.2,0.1c0,0,0,0,0,0.1
				c1,1.7,1.2,4.2,1.8,6.1c0.1,0.4,0.7,0.4,0.8,0c0.6-1.9,0.9-4.4,1.8-6.1c0,0,0,0,0-0.1c0,0,0.1,0,0.1-0.1c0.5-0.3,1.2-0.5,1.7-0.8
				c0.9-0.4,1.8-0.8,2.7-1.2c0.4-0.2,0.2-0.6-0.1-0.7c-0.9-0.4-1.8-0.8-2.7-1.1c-1.1-0.5-1.7-0.5-2-1.5c-0.6-1.9-1.1-3.9-1.6-5.9
				c0,0,0,0,0-0.1c0,0,0,0,0-0.1c-0.1-0.1-0.2-0.2-0.3-0.2c-0.1,0-0.3,0-0.3,0.2c0,0,0,0.1,0,0.1c0,0,0,0,0,0c0,0,0,0,0,0
				c0,0,0,0,0,0c-0.5,1.9-1,3.9-1.5,5.9c-0.5,1.5-3.3,2.1-4.7,2.7C245,281.3,244.8,281.8,245.1,281.9z M250.6,279.4
				c0.6-1,0.7-2.7,1-3.7c0.1-0.5,0.2-0.9,0.4-1.4c0.1,0.5,0.3,0.9,0.4,1.4c0.3,1.1,0.4,2.7,1,3.7c0.6,1.1,2.7,1.7,4.2,2.2
				c-0.7,0.3-1.5,0.7-2.2,1c-0.6,0.3-1.5,0.5-1.9,1c-0.6,0.8-0.7,2.4-1,3.4c-0.2,0.6-0.3,1.1-0.5,1.7c-0.2-0.6-0.3-1.1-0.5-1.7
				c-0.3-0.9-0.4-2.6-1-3.4c-0.4-0.6-1.2-0.7-1.9-1c-0.7-0.3-1.5-0.7-2.2-1C247.9,281.1,249.9,280.5,250.6,279.4z"/>
			<path d="M258.7,325.8c-0.9-0.4-1.8-0.8-2.7-1.1c-1.1-0.5-1.7-0.5-2-1.5c-0.6-1.9-1.1-3.9-1.6-5.9c0,0,0,0,0-0.1c0,0,0,0,0-0.1
				c-0.1-0.1-0.2-0.2-0.3-0.2c-0.1,0-0.3,0-0.3,0.2c0,0,0,0.1,0,0.1c0,0,0,0,0,0c0,0,0,0,0,0c0,0,0,0,0,0c-0.5,1.9-1,3.9-1.5,5.9
				c-0.5,1.5-3.3,2.1-4.7,2.7c-0.3,0.1-0.5,0.6-0.1,0.7c0.9,0.4,1.8,0.8,2.7,1.2c0.5,0.2,1.1,0.5,1.6,0.7c0.1,0.1,0.2,0.1,0.2,0.1
				c0,0,0,0,0,0.1c1,1.7,1.2,4.2,1.8,6.1c0.1,0.4,0.7,0.4,0.8,0c0.6-1.9,0.9-4.4,1.8-6.1c0,0,0,0,0-0.1c0,0,0.1,0,0.1-0.1
				c0.5-0.3,1.2-0.5,1.7-0.8c0.9-0.4,1.8-0.8,2.7-1.2C259.2,326.4,259,326,258.7,325.8z M255.3,327.3c-0.6,0.3-1.5,0.5-1.9,1
				c-0.6,0.8-0.7,2.4-1,3.4c-0.2,0.6-0.3,1.1-0.5,1.7c-0.2-0.6-0.3-1.1-0.5-1.7c-0.3-0.9-0.4-2.6-1-3.4c-0.4-0.6-1.2-0.7-1.9-1
				c-0.7-0.3-1.5-0.7-2.2-1c1.5-0.5,3.5-1.1,4.2-2.2c0.6-1,0.7-2.7,1-3.7c0.1-0.5,0.2-0.9,0.4-1.4c0.1,0.5,0.3,0.9,0.4,1.4
				c0.3,1.1,0.4,2.7,1,3.7c0.6,1.1,2.7,1.7,4.2,2.2C256.8,326.6,256.1,326.9,255.3,327.3z"/>
			<path d="M258.7,523.9c-0.9-0.4-1.8-0.8-2.7-1.1c-1.1-0.5-1.7-0.5-2-1.5c-0.6-1.9-1.1-3.9-1.6-5.9c0,0,0,0,0-0.1c0,0,0,0,0-0.1
				c-0.1-0.1-0.2-0.2-0.3-0.2c-0.1,0-0.3,0-0.3,0.2c0,0,0,0.1,0,0.1c0,0,0,0,0,0c0,0,0,0,0,0c0,0,0,0,0,0c-0.5,1.9-1,3.9-1.5,5.9
				c-0.5,1.5-3.3,2.1-4.7,2.7c-0.3,0.1-0.5,0.6-0.1,0.7c0.9,0.4,1.8,0.8,2.7,1.2c0.5,0.2,1.1,0.5,1.6,0.7c0.1,0.1,0.2,0.1,0.2,0.1
				c0,0,0,0,0,0.1c1,1.7,1.2,4.2,1.8,6.1c0.1,0.4,0.7,0.4,0.8,0c0.6-1.9,0.9-4.4,1.8-6.1c0,0,0,0,0-0.1c0,0,0.1,0,0.1-0.1
				c0.5-0.3,1.2-0.5,1.7-0.8c0.9-0.4,1.8-0.8,2.7-1.2C259.2,524.5,259,524,258.7,523.9z M255.3,525.3c-0.6,0.3-1.5,0.5-1.9,1
				c-0.6,0.8-0.7,2.4-1,3.4c-0.2,0.6-0.3,1.1-0.5,1.7c-0.2-0.6-0.3-1.1-0.5-1.7c-0.3-0.9-0.4-2.6-1-3.4c-0.4-0.6-1.2-0.7-1.9-1
				c-0.7-0.3-1.5-0.7-2.2-1c1.5-0.5,3.5-1.1,4.2-2.2c0.6-1,0.7-2.7,1-3.7c0.1-0.5,0.2-0.9,0.4-1.4c0.1,0.5,0.3,0.9,0.4,1.4
				c0.3,1.1,0.4,2.7,1,3.7c0.6,1.1,2.7,1.7,4.2,2.2C256.8,524.7,256.1,525,255.3,525.3z"/>
			<path d="M258.7,568.6c-0.9-0.4-1.8-0.8-2.7-1.1c-1.1-0.5-1.7-0.5-2-1.5c-0.6-1.9-1.1-3.9-1.6-5.9c0,0,0,0,0-0.1c0,0,0,0,0-0.1
				c-0.1-0.1-0.2-0.2-0.3-0.2c-0.1,0-0.3,0-0.3,0.2c0,0,0,0.1,0,0.1c0,0,0,0,0,0c0,0,0,0,0,0c0,0,0,0,0,0c-0.5,1.9-1,3.9-1.5,5.9
				c-0.5,1.5-3.3,2.1-4.7,2.7c-0.3,0.1-0.5,0.6-0.1,0.7c0.9,0.4,1.8,0.8,2.7,1.2c0.5,0.2,1.1,0.5,1.6,0.7c0.1,0.1,0.2,0.1,0.2,0.1
				c0,0,0,0,0,0.1c1,1.7,1.2,4.2,1.8,6.1c0.1,0.4,0.7,0.4,0.8,0c0.6-1.9,0.9-4.4,1.8-6.1c0,0,0,0,0-0.1c0,0,0.1,0,0.1-0.1
				c0.5-0.3,1.2-0.5,1.7-0.8c0.9-0.4,1.8-0.8,2.7-1.2C259.2,569.2,259,568.7,258.7,568.6z M255.3,570c-0.6,0.3-1.5,0.5-1.9,1
				c-0.6,0.8-0.7,2.4-1,3.4c-0.2,0.6-0.3,1.1-0.5,1.7c-0.2-0.6-0.3-1.1-0.5-1.7c-0.3-0.9-0.4-2.6-1-3.4c-0.4-0.6-1.2-0.7-1.9-1
				c-0.7-0.3-1.5-0.7-2.2-1c1.5-0.5,3.5-1.1,4.2-2.2c0.6-1,0.7-2.7,1-3.7c0.1-0.5,0.2-0.9,0.4-1.4c0.1,0.5,0.3,0.9,0.4,1.4
				c0.3,1.1,0.4,2.7,1,3.7c0.6,1.1,2.7,1.7,4.2,2.2C256.8,569.4,256.1,569.7,255.3,570z"/>
			<path d="M215.7,235.2c-0.7,0-1.2,0.5-1.2,1.2l0,0.3c0,0.6,0.5,1.2,1.2,1.2c0,0,0,0,0,0c0.7,0,1.2-0.5,1.2-1.2l0-0.3
				C216.9,235.7,216.4,235.2,215.7,235.2z"/>
			<path d="M216.6,301.3c0-0.7-0.5-1.2-1.1-1.2c-0.6,0-1.2,0.5-1.2,1.1l0,0.6c0,0.7,0.5,1.2,1.1,1.2c0,0,0,0,0.1,0
				c0.6,0,1.2-0.5,1.2-1.1L216.6,301.3z"/>
			<path d="M214.7,249.7c0,0.6,0.5,1.2,1.2,1.2c0,0,0,0,0,0c0.7,0,1.2-0.5,1.2-1.2l0-0.6l-0.8,0l-1.6,0L214.7,249.7z"/>
			<polygon points="215.8,249.1 216.2,249.1 217,249.1 			"/>
			<path d="M215.8,241.4c-0.7,0-1.2,0.5-1.2,1.2l0,0.6c0,0.6,0.5,1.2,1.2,1.2c0,0,0,0,0,0c0.7,0,1.2-0.5,1.2-1.2l0-0.6
				C217,241.9,216.4,241.4,215.8,241.4z"/>
			<path d="M214.7,262.1l0,0.6c0,0.7,0.5,1.2,1.2,1.2c0,0,0,0,0,0c0.7,0,1.2-0.5,1.2-1.2l0-0.6c0-0.7-0.5-1.2-1.2-1.2
				C215.3,260.9,214.7,261.5,214.7,262.1z"/>
			<path d="M215.9,254.4c-0.7,0-1.2,0.5-1.2,1.2l0,0.6c0,0.6,0.5,1.2,1.2,1.2c0,0,0,0,0,0c0.7,0,1.2-0.5,1.2-1.2l0-0.6
				C217.1,254.9,216.5,254.4,215.9,254.4z"/>
			<path d="M216.8,294.8c0-0.7-0.5-1.2-1.1-1.2c-0.7,0-1.2,0.5-1.2,1.1l0,0.6c0,0.7,0.5,1.2,1.1,1.2c0,0,0,0,0,0
				c0.6,0,1.2-0.5,1.2-1.1L216.8,294.8z"/>
			<path d="M210.5,341.8c0.5,0,1-0.3,1.1-0.9l0.2-0.6c0.2-0.6-0.2-1.3-0.8-1.5c-0.6-0.2-1.3,0.2-1.5,0.8l-0.2,0.6
				c-0.2,0.6,0.2,1.3,0.8,1.5C210.3,341.7,210.4,341.8,210.5,341.8z"/>
			<path d="M214.3,328l0.1-0.6c0.1-0.6-0.4-1.2-1-1.3c-0.6-0.1-1.2,0.4-1.3,1l-0.1,0.6c-0.1,0.6,0.3,1.2,1,1.3c0.1,0,0.1,0,0.2,0
				C213.7,329,214.2,328.6,214.3,328z"/>
			<path d="M209,345.1c-0.6-0.2-1.3,0.1-1.5,0.7c-0.1,0.2-0.1,0.4-0.2,0.5c-0.3,0.6,0,1.3,0.6,1.5c0.1,0.1,0.3,0.1,0.5,0.1
				c0.5,0,0.9-0.3,1.1-0.7c0.1-0.2,0.2-0.4,0.2-0.6C209.9,346,209.6,345.3,209,345.1z"/>
			<path d="M216.2,308.4l0-0.6c0-0.7-0.5-1.2-1.1-1.2c-0.7,0-1.2,0.5-1.2,1.1l0,0.6c0,0.7,0.5,1.2,1.1,1.2c0,0,0,0,0.1,0
				C215.7,309.5,216.2,309.1,216.2,308.4z"/>
			<path d="M215.8,315l0-0.6c0.1-0.6-0.4-1.2-1.1-1.3c-0.6-0.1-1.2,0.4-1.3,1.1l0,0.6c-0.1,0.6,0.4,1.2,1.1,1.3c0,0,0.1,0,0.1,0
				C215.2,316,215.7,315.6,215.8,315z"/>
			<path d="M215.2,321.5l0.1-0.6c0.1-0.6-0.4-1.2-1-1.3c-0.6-0.1-1.2,0.4-1.3,1l-0.1,0.6c-0.1,0.6,0.4,1.2,1,1.3c0,0,0.1,0,0.1,0
				C214.6,322.5,215.1,322.1,215.2,321.5z"/>
			<path d="M213.2,334.5l0.1-0.6c0.1-0.6-0.3-1.3-0.9-1.4c-0.6-0.1-1.3,0.3-1.4,0.9l-0.1,0.6c-0.1,0.6,0.3,1.3,0.9,1.4
				c0.1,0,0.2,0,0.2,0C212.6,335.4,213.1,335,213.2,334.5z"/>
			<path d="M195.6,359.2c-0.2,0.1-0.3,0.1-0.5,0.2c-0.6,0.2-1,0.9-0.8,1.5c0.2,0.5,0.6,0.8,1.1,0.8c0.1,0,0.2,0,0.4-0.1
				c0.2-0.1,0.4-0.1,0.6-0.2c0.6-0.2,0.9-0.9,0.7-1.5C196.9,359.3,196.2,358.9,195.6,359.2z"/>
			<path d="M217,288.2c0-0.7-0.5-1.2-1.2-1.2c-0.7,0-1.2,0.5-1.2,1.2l0,0.6c0,0.7,0.5,1.2,1.2,1.2c0,0,0,0,0,0
				c0.6,0,1.2-0.5,1.2-1.2L217,288.2z"/>
			<path d="M204.7,351.4c-0.1,0.2-0.2,0.3-0.3,0.5c-0.4,0.5-0.2,1.3,0.3,1.6c0.2,0.1,0.4,0.2,0.6,0.2c0.4,0,0.8-0.2,1-0.5
				c0.1-0.2,0.2-0.3,0.3-0.5c0.3-0.6,0.2-1.3-0.4-1.6C205.8,350.7,205,350.8,204.7,351.4z"/>
			<path d="M189.3,360.2l-0.3,0c-0.6,0-1.2,0.5-1.2,1.2c0,0.7,0.5,1.2,1.2,1.2l0.3,0l0.3,0c0.7,0,1.2-0.5,1.2-1.2
				c0-0.7-0.6-1.2-1.2-1.2L189.3,360.2z"/>
			<path d="M200.8,356.1c-0.1,0.1-0.3,0.2-0.4,0.4c-0.5,0.4-0.6,1.2-0.2,1.7c0.2,0.3,0.6,0.4,0.9,0.4c0.3,0,0.5-0.1,0.8-0.3
				c0.2-0.1,0.3-0.3,0.5-0.4c0.5-0.4,0.5-1.2,0.1-1.7C202,355.7,201.2,355.7,200.8,356.1z"/>
			<path d="M217.1,275.2c0-0.7-0.5-1.2-1.2-1.2c0,0,0,0,0,0c-0.6,0-1.2,0.5-1.2,1.2l0,0.6c0,0.7,0.5,1.2,1.2,1.2c0,0,0,0,0,0
				c0.6,0,1.2-0.5,1.2-1.2L217.1,275.2z"/>
			<path d="M217.1,268.7c0-0.7-0.5-1.2-1.2-1.2c-0.7,0-1.2,0.5-1.2,1.2v0.6c0,0.7,0.5,1.2,1.2,1.2c0,0,0,0,0,0
				c0.7,0,1.2-0.5,1.2-1.2V268.7z"/>
			<path d="M217,281.7c0-0.7-0.5-1.2-1.2-1.2c-0.7,0-1.2,0.5-1.2,1.2l0,0.6c0,0.7,0.5,1.2,1.2,1.2c0,0,0,0,0,0
				c0.6,0,1.2-0.5,1.2-1.2L217,281.7z"/>
			<path d="M183.3,359.5l-0.3-0.1c-0.6-0.1-1.3,0.3-1.4,0.9c-0.1,0.6,0.3,1.3,0.9,1.4l0.3,0.1c0.1,0,0.2,0,0.2,0
				c0.5,0,1-0.4,1.2-0.9C184.3,360.3,183.9,359.7,183.3,359.5z"/>
			<path d="M118.1,237.8C118.2,237.8,118.2,237.8,118.1,237.8c0.7,0,1.2-0.5,1.2-1.2l0-0.3c0-0.7-0.5-1.2-1.2-1.2
				c-0.7,0-1.2,0.5-1.2,1.2l0,0.3C117,237.3,117.5,237.8,118.1,237.8z"/>
			<path d="M116.1,269c0,0.7,0.5,1.2,1.1,1.2c0,0,0,0,0,0c0.6,0,1.2-0.5,1.2-1.1l0-0.6c0-0.7-0.5-1.2-1.1-1.2
				c-0.7,0-1.2,0.5-1.2,1.1L116.1,269z"/>
			<path d="M115.9,275.4c0,0.7,0.5,1.2,1.2,1.2c0,0,0,0,0,0c0.6,0,1.2-0.5,1.2-1.2l0-0.6c0-0.7-0.5-1.2-1.2-1.2
				c-0.6,0-1.2,0.5-1.2,1.2L115.9,275.4z"/>
			<path d="M115.8,281.9c0,0.7,0.5,1.2,1.2,1.2h0c0.7,0,1.2-0.5,1.2-1.2l0-0.6c0-0.7-0.5-1.2-1.2-1.2c0,0,0,0,0,0
				c-0.7,0-1.2,0.5-1.2,1.2L115.8,281.9z"/>
			<path d="M117.1,289.6C117.1,289.6,117.1,289.6,117.1,289.6c0.7,0,1.2-0.6,1.2-1.2l0-0.6c0-0.7-0.6-1.2-1.2-1.1
				c-0.7,0-1.2,0.6-1.1,1.2l0,0.6C115.9,289.1,116.5,289.6,117.1,289.6z"/>
			<path d="M118.1,244.3C118.1,244.3,118.1,244.3,118.1,244.3c0.7,0,1.2-0.5,1.2-1.2l0-0.6c0-0.7-0.5-1.2-1.2-1.2c0,0,0,0,0,0
				c-0.6,0-1.2,0.5-1.2,1.2l0,0.6C117,243.7,117.5,244.3,118.1,244.3z"/>
			<path d="M117.5,296.1c0,0,0.1,0,0.1,0c0.6-0.1,1.1-0.6,1.1-1.3l0-0.6c-0.1-0.6-0.6-1.1-1.3-1.1c-0.6,0.1-1.1,0.6-1.1,1.3l0,0.6
				C116.4,295.6,116.9,296.1,117.5,296.1z"/>
			<path d="M116.8,249.5c0,0.7,0.5,1.2,1.1,1.2c0,0,0,0,0,0c0.6,0,1.2-0.5,1.2-1.1l0-0.6c0-0.7-0.5-1.2-1.1-1.2
				c-0.7,0-1.2,0.5-1.2,1.1L116.8,249.5z"/>
			<path d="M116.6,256c0,0.7,0.5,1.2,1.1,1.2c0,0,0,0,0,0c0.6,0,1.2-0.5,1.2-1.1l0-0.6c0-0.7-0.5-1.2-1.1-1.2
				c-0.6,0-1.2,0.5-1.2,1.1L116.6,256z"/>
			<path d="M116.3,262.5c0,0.7,0.5,1.2,1.1,1.2c0,0,0,0,0,0c0.6,0,1.2-0.5,1.2-1.1l0-0.6c0-0.7-0.5-1.2-1.1-1.2
				c-0.7,0-1.2,0.5-1.2,1.1L116.3,262.5z"/>
			<path d="M131,323.3c0.1,0.1,0.3,0.1,0.4,0.1c0.5,0,0.9-0.3,1.1-0.8c0.2-0.6-0.1-1.3-0.7-1.5c-0.2-0.1-0.3-0.1-0.5-0.2
				c-0.6-0.3-1.3,0-1.5,0.6c-0.3,0.6,0,1.3,0.6,1.5C130.6,323.1,130.8,323.2,131,323.3z"/>
			<path d="M137.6,324.7C137.6,324.7,137.7,324.7,137.6,324.7c0.7,0,1.2-0.5,1.2-1.1c0-0.7-0.5-1.2-1.1-1.2c-0.2,0-0.4,0-0.6,0
				c-0.6,0-1.2,0.4-1.3,1.1c-0.1,0.7,0.4,1.2,1.1,1.3C137.2,324.6,137.4,324.6,137.6,324.7z"/>
			<path d="M118.3,302.5c0.1,0,0.1,0,0.2,0c0.6-0.1,1.1-0.7,1-1.4l-0.1-0.6c-0.1-0.6-0.7-1.1-1.3-1c-0.6,0.1-1.1,0.7-1,1.3l0.1,0.6
				C117.2,302.1,117.7,302.5,118.3,302.5z"/>
			<path d="M143.7,324.4c0.2,0,0.4-0.1,0.6-0.1c0.6-0.1,1.1-0.7,1-1.3c-0.1-0.6-0.7-1.1-1.3-1c-0.2,0-0.4,0.1-0.6,0.1
				c-0.6,0.1-1.1,0.7-1,1.3c0.1,0.6,0.6,1,1.2,1C143.6,324.4,143.7,324.4,143.7,324.4z"/>
			<path d="M118.6,308c0.2,0.5,0.6,0.8,1.1,0.8c0.1,0,0.2,0,0.3,0c0.6-0.2,1-0.8,0.8-1.5c-0.1-0.2-0.1-0.4-0.2-0.5
				c-0.2-0.6-0.8-1-1.5-0.8c-0.6,0.2-1,0.8-0.8,1.5C118.4,307.6,118.5,307.8,118.6,308z"/>
			<path d="M121,314.2c0.2,0.4,0.6,0.6,1,0.6c0.2,0,0.4,0,0.6-0.1c0.6-0.3,0.8-1,0.5-1.6c-0.1-0.2-0.2-0.3-0.3-0.5
				c-0.3-0.6-1-0.8-1.6-0.5c-0.6,0.3-0.8,1-0.5,1.6C120.9,313.8,121,314,121,314.2z"/>
			<path d="M126.8,317.9c-0.1-0.1-0.3-0.3-0.4-0.4c-0.5-0.5-1.2-0.5-1.7,0c-0.5,0.5-0.5,1.2,0,1.7c0.1,0.1,0.3,0.3,0.5,0.4
				c0.2,0.2,0.5,0.3,0.8,0.3c0.3,0,0.6-0.1,0.9-0.4C127.2,319.1,127.2,318.4,126.8,317.9z"/>
			<path d="M149.9,323.1c0.1,0,0.2,0,0.3,0l0.3-0.1c0.6-0.2,1-0.8,0.8-1.5c-0.2-0.6-0.8-1-1.5-0.8l-0.3,0.1c-0.6,0.2-1,0.8-0.8,1.4
				C148.9,322.7,149.4,323.1,149.9,323.1z"/>
			<path d="M117.3,233.7c0,0,3.5,0,6.1,0c2.6,0,0,41,0,41c0,16.9,10.4,31.6,25.3,38.2c0,0.3-0.1,0.5-0.1,0.8v0.9
				c0,3,2.4,5.4,5.3,5.4c0.1,7,0,13.2-0.6,14.1c-1.3,2.2-3.8,2.6-3.8,5.9c0,3.3,1.9,3.8,3.8,5.9c0.5,0.5,0.8,2.9,1.1,6.4H154
				c-1,0-1.9,0.9-1.9,1.9v2.5c0,1,0.9,1.9,1.9,1.9h0.9c0.4,8.8,0.6,20.3,0.8,28.6c-2.2,0.6-4,2.8-4.6,5.8c-8.4,3.4-14,8.4-17.9,8.4
				c-6.1,0-6.3,0-6.3,0c-0.2,0-0.3,0.1-0.3,0.3v5.6c0,0.2,0.1,0.3,0.3,0.3h80c0.2,0,0.3-0.1,0.3-0.3v-5.6c0-0.2-0.1-0.3-0.3-0.3
				c0,0-0.6,0-6.3,0c-3.8,0-9.4-5-17.9-8.4c-0.6-2.9-2.4-5.2-4.6-5.7c0.2-8.3,0.6-19.8,1-28.6h0.6c1,0,1.9-0.9,1.9-1.9v-2.5
				c0-1-0.9-1.9-1.9-1.9h-0.3c0.3-3.5,0.5-5.9,0.8-6.4c1.3-2.2,3.8-2.5,3.8-5.9c0-3.4-1.9-3.8-3.8-5.9c-0.8-0.9-0.9-7.1-0.8-14.1
				h0.1c3,0,5.4-2.4,5.4-5.4v-0.9c0-0.3,0-0.5-0.1-0.8c14.9-6.7,25.3-21.3,25.3-38.2c0,0-2.8-41,0-41c2.8,0,6.1,0,6.1,0
				c1.3,0,2.4-1,2.4-2.3v-2.6c0-1.3-1.1-2.3-2.4-2.3h-99c-1.3,0-2.4,1-2.4,2.3v2.6C114.9,232.7,116,233.7,117.3,233.7z M166.6,305.5
				c-9.6-0.1-17.4-7.9-17.3-17.6c0-0.8,0.1-1.6,0.2-2.3c1.1,8.5,8.3,15.1,17.1,15.2c8.8,0.1,16.2-6.4,17.4-14.9
				c0.1,0.8,0.2,1.5,0.1,2.3C184.1,297.8,176.3,305.6,166.6,305.5z M139.1,239.8c1.2-1.5,2.6-2.7,4.1-3.5c2.5-1.3,5.7-1.8,8.4-2.9
				h29.7c0,0,0,0.1,0,0.1c4.7,1.2,6.1,4.1,7.3,5.2c1.3,1.3,3.6,2.1,5.3,2.6c3.2,1,7.5,1.5,9.1,6c-2-3.7-6.8-3.1-10.6-2.9
				c-1.9,0.1-3.7-0.1-5.3-0.7c-2.6-0.9-5-2.9-7.5-4.1l10.8,14l-14.8-11.4c1.2,2.8,3.4,5.3,4.4,8.1c0.6,1.6,0.7,3.4,0.7,5.3
				c-0.1,3.8-0.7,8.6,2.9,10.6c-4.5-1.6-4.9-5.9-6-9.1c-0.5-1.6-1.3-3.9-2.6-5.3c-1.1-1.1-3.8-2.5-5.1-6.9l-2.9,29.6l-2.9-29.6
				c-1.3,4.3-4,5.7-5.1,6.9c-1.3,1.3-2.1,3.6-2.6,5.3c-1,3.2-1.5,7.5-6,9.1c3.7-2,3.1-6.8,2.9-10.6c-0.1-1.9,0.1-3.7,0.7-5.3
				c1-2.8,3.2-5.3,4.4-8.1l-14.8,11.4l11.3-14.7c-4.1,2.7-7.2,1.8-8.8,1.9c-1.8,0.1-4,1.3-5.5,2.1c-3,1.7-6.1,4.5-10.6,2.7
				C133.9,246.6,136.6,242.7,139.1,239.8z"/>
			<path d="M386.1,235.2c-0.7,0-1.2,0.5-1.2,1.2l0,0.3c0,0.6,0.5,1.2,1.2,1.2c0,0,0,0,0,0c0.7,0,1.2-0.5,1.2-1.2l0-0.3
				C387.3,235.7,386.8,235.2,386.1,235.2z"/>
			<path d="M384.6,301.8c0,0.7,0.5,1.2,1.1,1.2c0,0,0,0,0.1,0c0.6,0,1.2-0.5,1.2-1.1l0-0.6c0-0.7-0.5-1.2-1.1-1.2
				c-0.6,0-1.2,0.5-1.2,1.1L384.6,301.8z"/>
			<path d="M385.1,249.7c0,0.6,0.5,1.2,1.2,1.2c0,0,0,0,0,0c0.7,0,1.2-0.5,1.2-1.2l0-0.6l-0.8,0l-1.6,0L385.1,249.7z"/>
			<polygon points="386.2,249.1 386.6,249.1 387.4,249.1 			"/>
			<path d="M386.2,241.4c-0.7,0-1.2,0.5-1.2,1.2l0,0.6c0,0.6,0.5,1.2,1.2,1.2c0,0,0,0,0,0c0.7,0,1.2-0.5,1.2-1.2l0-0.6
				C387.4,241.9,386.8,241.4,386.2,241.4z"/>
			<path d="M386.3,260.9c-0.7,0-1.2,0.5-1.2,1.2l0,0.6c0,0.7,0.5,1.2,1.2,1.2c0,0,0,0,0,0c0.7,0,1.2-0.5,1.2-1.2l0-0.6
				C387.5,261.5,387,260.9,386.3,260.9z"/>
			<path d="M386.3,254.4c-0.7,0-1.2,0.5-1.2,1.2l0,0.6c0,0.6,0.5,1.2,1.2,1.2c0,0,0,0,0,0c0.7,0,1.2-0.5,1.2-1.2l0-0.6
				C387.5,254.9,386.9,254.4,386.3,254.4z"/>
			<path d="M384.8,295.3c0,0.7,0.5,1.2,1.1,1.2c0,0,0,0,0,0c0.6,0,1.2-0.5,1.2-1.1l0-0.6c0-0.7-0.5-1.2-1.1-1.2
				c-0.7,0-1.2,0.5-1.2,1.1L384.8,295.3z"/>
			<path d="M379.9,339.7l-0.2,0.6c-0.2,0.6,0.2,1.3,0.8,1.5c0.1,0,0.2,0,0.3,0c0.5,0,1-0.3,1.1-0.9l0.2-0.6c0.2-0.6-0.2-1.3-0.8-1.5
				C380.7,338.7,380.1,339.1,379.9,339.7z"/>
			<path d="M382.5,327.1l-0.1,0.6c-0.1,0.6,0.3,1.2,1,1.3c0.1,0,0.1,0,0.2,0c0.6,0,1.1-0.4,1.2-1l0.1-0.6c0.1-0.6-0.4-1.2-1-1.3
				C383.2,326,382.6,326.4,382.5,327.1z"/>
			<path d="M377.9,345.8c-0.1,0.2-0.1,0.4-0.2,0.5c-0.3,0.6,0,1.3,0.6,1.5c0.1,0.1,0.3,0.1,0.5,0.1c0.5,0,0.9-0.3,1.1-0.7
				c0.1-0.2,0.2-0.4,0.2-0.6c0.2-0.6-0.1-1.3-0.7-1.5C378.8,344.9,378.2,345.1,377.9,345.8z"/>
			<path d="M384.3,308.3c0,0.7,0.5,1.2,1.1,1.2c0,0,0,0,0.1,0c0.6,0,1.1-0.5,1.2-1.1l0-0.6c0-0.7-0.5-1.2-1.1-1.2
				c-0.7,0-1.2,0.5-1.2,1.1L384.3,308.3z"/>
			<path d="M383.8,314.8c-0.1,0.6,0.4,1.2,1.1,1.3c0,0,0.1,0,0.1,0c0.6,0,1.1-0.5,1.2-1.1l0-0.6c0.1-0.6-0.4-1.2-1.1-1.3
				c-0.6-0.1-1.2,0.4-1.3,1.1L383.8,314.8z"/>
			<path d="M383.3,320.6l-0.1,0.6c-0.1,0.6,0.4,1.2,1,1.3c0,0,0.1,0,0.1,0c0.6,0,1.1-0.4,1.2-1.1l0.1-0.6c0.1-0.6-0.4-1.2-1-1.3
				C383.9,319.5,383.3,320,383.3,320.6z"/>
			<path d="M381.4,333.4l-0.1,0.6c-0.1,0.6,0.3,1.3,0.9,1.4c0.1,0,0.2,0,0.2,0c0.5,0,1-0.4,1.2-0.9l0.1-0.6c0.1-0.6-0.3-1.3-0.9-1.4
				C382.1,332.4,381.5,332.8,381.4,333.4z"/>
			<path d="M366,359.2c-0.2,0.1-0.3,0.1-0.5,0.2c-0.6,0.2-1,0.9-0.8,1.5c0.2,0.5,0.6,0.8,1.1,0.8c0.1,0,0.2,0,0.4-0.1
				c0.2-0.1,0.4-0.1,0.6-0.2c0.6-0.2,0.9-0.9,0.7-1.5C367.3,359.3,366.6,358.9,366,359.2z"/>
			<path d="M386.2,287c-0.7,0-1.2,0.5-1.2,1.2l0,0.6c0,0.7,0.5,1.2,1.2,1.2c0,0,0,0,0,0c0.6,0,1.2-0.5,1.2-1.2l0-0.6
				C387.4,287.6,386.8,287,386.2,287z"/>
			<path d="M375.1,351.4c-0.1,0.2-0.2,0.3-0.3,0.5c-0.4,0.5-0.2,1.3,0.3,1.6c0.2,0.1,0.4,0.2,0.6,0.2c0.4,0,0.8-0.2,1-0.5
				c0.1-0.2,0.2-0.3,0.3-0.5c0.3-0.6,0.2-1.3-0.4-1.6C376.2,350.7,375.4,350.8,375.1,351.4z"/>
			<path d="M359.7,360.2l-0.3,0c-0.6,0-1.2,0.5-1.2,1.2c0,0.7,0.5,1.2,1.2,1.2l0.3,0l0.3,0c0.7,0,1.2-0.5,1.2-1.2
				c0-0.7-0.6-1.2-1.2-1.2L359.7,360.2z"/>
			<path d="M371.2,356.1c-0.1,0.1-0.3,0.2-0.4,0.4c-0.5,0.4-0.6,1.2-0.2,1.7c0.2,0.3,0.6,0.4,0.9,0.4c0.3,0,0.5-0.1,0.8-0.3
				c0.2-0.1,0.3-0.3,0.5-0.4c0.5-0.4,0.5-1.2,0.1-1.7C372.4,355.7,371.6,355.7,371.2,356.1z"/>
			<path d="M387.5,275.2c0-0.7-0.5-1.2-1.2-1.2c0,0,0,0,0,0c-0.6,0-1.2,0.5-1.2,1.2l0,0.6c0,0.7,0.5,1.2,1.2,1.2c0,0,0,0,0,0
				c0.6,0,1.2-0.5,1.2-1.2L387.5,275.2z"/>
			<path d="M387.5,268.7c0-0.7-0.5-1.2-1.2-1.2c-0.7,0-1.2,0.5-1.2,1.2v0.6c0,0.7,0.5,1.2,1.2,1.2h0c0.7,0,1.2-0.5,1.2-1.2V268.7z"
				/>
			<path d="M387.4,281.7c0-0.7-0.5-1.2-1.2-1.2c-0.7,0-1.2,0.5-1.2,1.2l0,0.6c0,0.7,0.5,1.2,1.2,1.2c0,0,0,0,0,0
				c0.6,0,1.2-0.5,1.2-1.2L387.4,281.7z"/>
			<path d="M353.7,359.5l-0.3-0.1c-0.6-0.1-1.3,0.3-1.4,0.9c-0.1,0.6,0.3,1.3,0.9,1.4l0.3,0.1c0.1,0,0.2,0,0.2,0
				c0.5,0,1-0.4,1.2-0.9C354.7,360.3,354.3,359.7,353.7,359.5z"/>
			<path d="M288.5,237.8C288.6,237.8,288.6,237.8,288.5,237.8c0.7,0,1.2-0.5,1.2-1.2l0-0.3c0-0.7-0.5-1.2-1.2-1.2
				c-0.7,0-1.2,0.5-1.2,1.2l0,0.3C287.4,237.3,287.9,237.8,288.5,237.8z"/>
			<path d="M286.5,269c0,0.7,0.5,1.2,1.1,1.2c0,0,0,0,0,0c0.6,0,1.2-0.5,1.2-1.1l0-0.6c0-0.7-0.5-1.2-1.1-1.2
				c-0.7,0-1.2,0.5-1.2,1.1L286.5,269z"/>
			<path d="M286.3,275.4c0,0.7,0.5,1.2,1.2,1.2c0,0,0,0,0,0c0.6,0,1.2-0.5,1.2-1.2l0-0.6c0-0.7-0.5-1.2-1.2-1.2
				c-0.6,0-1.2,0.5-1.2,1.2L286.3,275.4z"/>
			<path d="M286.2,281.9c0,0.7,0.5,1.2,1.2,1.2l0,0c0.7,0,1.2-0.5,1.2-1.2l0-0.6c0-0.7-0.5-1.2-1.2-1.2c0,0,0,0,0,0
				c-0.6,0-1.2,0.5-1.2,1.2L286.2,281.9z"/>
			<path d="M287.5,289.6c0.7,0,1.2-0.6,1.1-1.2l0-0.6c0-0.7-0.6-1.2-1.2-1.1c-0.7,0-1.2,0.6-1.1,1.2l0,0.6
				C286.3,289.1,286.9,289.6,287.5,289.6C287.5,289.6,287.5,289.6,287.5,289.6z"/>
			<path d="M288.5,244.3C288.5,244.3,288.5,244.3,288.5,244.3c0.7,0,1.2-0.5,1.2-1.2l0-0.6c0-0.7-0.5-1.2-1.2-1.2c0,0,0,0,0,0
				c-0.6,0-1.2,0.5-1.2,1.2l0,0.6C287.4,243.7,287.9,244.3,288.5,244.3z"/>
			<path d="M287.9,296.1c0,0,0.1,0,0.1,0c0.6-0.1,1.1-0.6,1.1-1.3l0-0.6c-0.1-0.6-0.6-1.1-1.3-1.1c-0.6,0.1-1.1,0.6-1.1,1.3l0,0.6
				C286.8,295.6,287.3,296.1,287.9,296.1z"/>
			<path d="M287.2,249.5c0,0.7,0.5,1.2,1.1,1.2c0,0,0,0,0,0c0.6,0,1.2-0.5,1.2-1.1l0-0.6c0-0.7-0.5-1.2-1.1-1.2
				c-0.7,0-1.2,0.5-1.2,1.1L287.2,249.5z"/>
			<path d="M287,256c0,0.7,0.5,1.2,1.1,1.2c0,0,0,0,0,0c0.6,0,1.2-0.5,1.2-1.1l0-0.6c0-0.7-0.5-1.2-1.1-1.2c-0.6,0-1.2,0.5-1.2,1.1
				L287,256z"/>
			<path d="M286.7,262.5c0,0.7,0.5,1.2,1.1,1.2c0,0,0,0,0,0c0.6,0,1.2-0.5,1.2-1.1l0-0.6c0-0.7-0.5-1.2-1.1-1.2
				c-0.7,0-1.2,0.5-1.2,1.1L286.7,262.5z"/>
			<path d="M301.4,323.3c0.1,0.1,0.3,0.1,0.4,0.1c0.5,0,0.9-0.3,1.1-0.8c0.2-0.6-0.1-1.3-0.7-1.5c-0.2-0.1-0.3-0.1-0.5-0.2
				c-0.6-0.3-1.3,0-1.5,0.6c-0.3,0.6,0,1.3,0.6,1.5C301,323.1,301.2,323.2,301.4,323.3z"/>
			<path d="M308,324.7C308,324.7,308.1,324.7,308,324.7c0.7,0,1.2-0.5,1.2-1.1c0-0.7-0.5-1.2-1.1-1.2c-0.2,0-0.4,0-0.6,0
				c-0.6,0-1.2,0.4-1.3,1.1c-0.1,0.7,0.4,1.2,1.1,1.3C307.6,324.6,307.8,324.6,308,324.7z"/>
			<path d="M288.4,299.6c-0.6,0.1-1.1,0.7-1,1.3l0.1,0.6c0.1,0.6,0.6,1,1.2,1c0.1,0,0.1,0,0.2,0c0.6-0.1,1.1-0.7,1-1.4l-0.1-0.6
				C289.6,299.9,289,299.5,288.4,299.6z"/>
			<path d="M314.1,324.4c0.2,0,0.4-0.1,0.6-0.1c0.6-0.1,1.1-0.7,1-1.3c-0.1-0.6-0.7-1.1-1.3-1c-0.2,0-0.4,0.1-0.6,0.1
				c-0.6,0.1-1.1,0.7-1,1.3c0.1,0.6,0.6,1,1.2,1C314,324.4,314.1,324.4,314.1,324.4z"/>
			<path d="M291.1,306.7c-0.2-0.6-0.8-1-1.5-0.8c-0.6,0.2-1,0.8-0.8,1.5c0.1,0.2,0.1,0.4,0.2,0.6c0.2,0.5,0.6,0.8,1.1,0.8
				c0.1,0,0.2,0,0.3,0c0.6-0.2,1-0.8,0.8-1.5C291.2,307.1,291.1,306.9,291.1,306.7z"/>
			<path d="M291.5,314.2c0.2,0.4,0.6,0.6,1,0.6c0.2,0,0.4,0,0.6-0.1c0.6-0.3,0.8-1,0.5-1.6c-0.1-0.2-0.2-0.3-0.3-0.5
				c-0.3-0.6-1-0.8-1.6-0.5c-0.6,0.3-0.8,1-0.5,1.6C291.3,313.8,291.4,314,291.5,314.2z"/>
			<path d="M296.3,320c0.3,0,0.6-0.1,0.9-0.4c0.4-0.5,0.4-1.2,0-1.7c-0.1-0.1-0.3-0.3-0.4-0.4c-0.5-0.5-1.2-0.5-1.7,0
				c-0.5,0.5-0.5,1.2,0,1.7c0.1,0.1,0.3,0.3,0.5,0.4C295.8,319.9,296.1,320,296.3,320z"/>
			<path d="M320.3,323.1c0.1,0,0.2,0,0.3,0l0.3-0.1c0.6-0.2,1-0.8,0.8-1.5c-0.2-0.6-0.8-1-1.5-0.8l-0.3,0.1c-0.6,0.2-1,0.8-0.8,1.4
				C319.3,322.7,319.8,323.1,320.3,323.1z"/>
			<path d="M386.7,226.5h-99c-1.3,0-2.4,1-2.4,2.3v2.6c0,1.3,1.1,2.3,2.4,2.3c0,0,3.5,0,6.1,0c2.6,0,0,41,0,41
				c0,16.9,10.4,31.6,25.3,38.2c0,0.3-0.1,0.5-0.1,0.8v0.9c0,3,2.4,5.4,5.3,5.4c0.1,7,0,13.2-0.6,14.1c-1.3,2.2-3.8,2.6-3.8,5.9
				c0,3.3,1.9,3.8,3.8,5.9c0.5,0.5,0.8,2.9,1.1,6.4h-0.5c-1,0-1.9,0.9-1.9,1.9v2.5c0,1,0.9,1.9,1.9,1.9h0.9
				c0.4,8.8,0.6,20.3,0.8,28.6c-2.2,0.6-4,2.8-4.6,5.8c-8.4,3.4-14,8.4-17.9,8.4c-6.1,0-6.3,0-6.3,0c-0.2,0-0.3,0.1-0.3,0.3v5.6
				c0,0.2,0.1,0.3,0.3,0.3h80c0.2,0,0.3-0.1,0.3-0.3v-5.6c0-0.2-0.1-0.3-0.3-0.3c0,0-0.6,0-6.3,0c-3.8,0-9.4-5-17.9-8.4
				c-0.6-2.9-2.4-5.2-4.6-5.7c0.2-8.3,0.6-19.8,1-28.6h0.6c1,0,1.9-0.9,1.9-1.9v-2.5c0-1-0.9-1.9-1.9-1.9h-0.3
				c0.3-3.5,0.5-5.9,0.8-6.4c1.3-2.2,3.8-2.5,3.8-5.9c0-3.4-1.9-3.8-3.8-5.9c-0.8-0.9-0.9-7.1-0.8-14.1h0.1c3,0,5.4-2.4,5.4-5.4
				v-0.9c0-0.3,0-0.5-0.1-0.8c14.9-6.7,25.3-21.3,25.3-38.2c0,0-2.8-41,0-41c2.8,0,6.1,0,6.1,0c1.3,0,2.4-1,2.4-2.3v-2.6
				C389.1,227.5,388,226.5,386.7,226.5z M337.1,305.5c-9.6-0.1-17.4-7.9-17.3-17.6c0-0.8,0.1-1.6,0.2-2.3
				c1.1,8.5,8.3,15.1,17.1,15.2c8.8,0.1,16.2-6.4,17.4-14.9c0.1,0.8,0.2,1.5,0.1,2.3C354.5,297.8,346.7,305.6,337.1,305.5z
				 M362.8,244.4c-1.9,0.1-3.7-0.1-5.3-0.7c-2.6-0.9-5-2.9-7.5-4.1l10.8,14l-14.8-11.4c1.2,2.8,3.4,5.3,4.4,8.1
				c0.6,1.6,0.7,3.4,0.7,5.3c-0.1,3.8-0.7,8.6,2.9,10.6c-4.5-1.6-4.9-5.9-6-9.1c-0.5-1.6-1.3-3.9-2.6-5.3c-1.1-1.1-3.8-2.5-5.1-6.9
				l-2.9,29.6l-2.9-29.6c-1.3,4.3-4,5.7-5.1,6.9c-1.3,1.3-2.1,3.6-2.6,5.3c-1,3.2-1.5,7.5-6,9.1c3.7-2,3.1-6.8,2.9-10.6
				c-0.1-1.9,0.1-3.7,0.7-5.3c1-2.8,3.2-5.3,4.4-8.1l-14.8,11.4l11.3-14.7c-4.1,2.7-7.2,1.8-8.8,1.9c-1.8,0.1-4,1.3-5.5,2.1
				c-3,1.7-6.1,4.5-10.6,2.7c4,1,6.8-2.9,9.3-5.8c1.2-1.5,2.6-2.7,4.1-3.5c2.5-1.3,5.7-1.8,8.4-2.9h29.7c0,0,0,0.1,0,0.1
				c4.7,1.2,6.1,4.1,7.3,5.2c1.3,1.3,3.6,2.1,5.3,2.6c3.2,1,7.5,1.5,9.1,6C371.4,243.6,366.6,244.2,362.8,244.4z"/>
			<path d="M215.7,464.7c-0.7,0-1.2,0.5-1.2,1.2l0,0.3c0,0.6,0.5,1.2,1.2,1.2c0,0,0,0,0,0c0.7,0,1.2-0.5,1.2-1.2l0-0.3
				C216.9,465.2,216.4,464.7,215.7,464.7z"/>
			<path d="M216.6,530.8c0-0.7-0.5-1.2-1.1-1.2c-0.6,0-1.2,0.5-1.2,1.1l0,0.6c0,0.7,0.5,1.2,1.1,1.2c0,0,0,0,0.1,0
				c0.6,0,1.2-0.5,1.2-1.1L216.6,530.8z"/>
			<path d="M214.7,479.2c0,0.6,0.5,1.2,1.2,1.2c0,0,0,0,0,0c0.7,0,1.2-0.5,1.2-1.2l0-0.6l-0.8,0l-1.6,0L214.7,479.2z"/>
			<polygon points="215.8,478.6 216.2,478.6 217,478.6 			"/>
			<path d="M215.8,470.9c-0.7,0-1.2,0.5-1.2,1.2l0,0.6c0,0.6,0.5,1.2,1.2,1.2c0,0,0,0,0,0c0.7,0,1.2-0.5,1.2-1.2l0-0.6
				C217,471.4,216.4,470.9,215.8,470.9z"/>
			<path d="M214.7,491.7l0,0.6c0,0.7,0.5,1.2,1.2,1.2c0,0,0,0,0,0c0.7,0,1.2-0.5,1.2-1.2l0-0.6c0-0.7-0.5-1.2-1.2-1.2
				C215.3,490.5,214.7,491,214.7,491.7z"/>
			<path d="M215.9,484c-0.7,0-1.2,0.5-1.2,1.2l0,0.6c0,0.6,0.5,1.2,1.2,1.2c0,0,0,0,0,0c0.7,0,1.2-0.5,1.2-1.2l0-0.6
				C217.1,484.5,216.5,483.9,215.9,484z"/>
			<path d="M216.8,524.3c0-0.7-0.5-1.2-1.1-1.2c-0.7,0-1.2,0.5-1.2,1.1l0,0.6c0,0.7,0.5,1.2,1.1,1.2c0,0,0,0,0,0
				c0.6,0,1.2-0.5,1.2-1.1L216.8,524.3z"/>
			<path d="M211.6,570.4l0.2-0.6c0.2-0.6-0.2-1.3-0.8-1.5c-0.6-0.2-1.3,0.2-1.5,0.8l-0.2,0.6c-0.2,0.6,0.2,1.3,0.8,1.5
				c0.1,0,0.2,0,0.3,0C211,571.3,211.5,571,211.6,570.4z"/>
			<path d="M214.3,557.5l0.1-0.6c0.1-0.6-0.4-1.2-1-1.3c-0.6-0.1-1.2,0.4-1.3,1l-0.1,0.6c-0.1,0.6,0.3,1.2,1,1.3c0.1,0,0.1,0,0.2,0
				C213.7,558.5,214.2,558.1,214.3,557.5z"/>
			<path d="M209.5,576.7c0.1-0.2,0.2-0.4,0.2-0.6c0.2-0.6-0.1-1.3-0.7-1.5c-0.6-0.2-1.3,0.1-1.5,0.7c-0.1,0.2-0.1,0.4-0.2,0.5
				c-0.3,0.6,0,1.3,0.6,1.5c0.1,0.1,0.3,0.1,0.5,0.1C208.8,577.5,209.3,577.2,209.5,576.7z"/>
			<path d="M216.2,538l0-0.6c0-0.7-0.5-1.2-1.1-1.2c-0.7,0-1.2,0.5-1.2,1.1l0,0.6c0,0.7,0.5,1.2,1.1,1.2c0,0,0,0,0.1,0
				C215.7,539.1,216.2,538.6,216.2,538z"/>
			<path d="M215.8,544.5l0-0.6c0.1-0.6-0.4-1.2-1.1-1.3c-0.6-0.1-1.2,0.4-1.3,1.1l0,0.6c-0.1,0.6,0.4,1.2,1.1,1.3c0,0,0.1,0,0.1,0
				C215.2,545.6,215.7,545.1,215.8,544.5z"/>
			<path d="M215.2,551l0.1-0.6c0.1-0.6-0.4-1.2-1-1.3c-0.6-0.1-1.2,0.4-1.3,1l-0.1,0.6c-0.1,0.6,0.4,1.2,1,1.3c0,0,0.1,0,0.1,0
				C214.6,552.1,215.1,551.6,215.2,551z"/>
			<path d="M213.2,564l0.1-0.6c0.1-0.6-0.3-1.3-0.9-1.4c-0.6-0.1-1.3,0.3-1.4,0.9l-0.1,0.6c-0.1,0.6,0.3,1.3,0.9,1.4
				c0.1,0,0.2,0,0.2,0C212.6,565,213.1,564.6,213.2,564z"/>
			<path d="M195.6,588.7c-0.2,0.1-0.3,0.1-0.5,0.2c-0.6,0.2-1,0.9-0.8,1.5c0.2,0.5,0.6,0.8,1.1,0.8c0.1,0,0.2,0,0.4-0.1
				c0.2-0.1,0.4-0.1,0.6-0.2c0.6-0.2,0.9-0.9,0.7-1.5C196.9,588.8,196.2,588.5,195.6,588.7z"/>
			<path d="M217,517.8c0-0.7-0.5-1.2-1.2-1.2c-0.7,0-1.2,0.5-1.2,1.2l0,0.6c0,0.7,0.5,1.2,1.2,1.2c0,0,0,0,0,0
				c0.6,0,1.2-0.5,1.2-1.2L217,517.8z"/>
			<path d="M204.7,580.9c-0.1,0.2-0.2,0.3-0.3,0.5c-0.4,0.5-0.2,1.3,0.3,1.6c0.2,0.1,0.4,0.2,0.6,0.2c0.4,0,0.8-0.2,1-0.5
				c0.1-0.2,0.2-0.3,0.3-0.5c0.3-0.6,0.2-1.3-0.4-1.6C205.8,580.2,205,580.4,204.7,580.9z"/>
			<path d="M189.3,589.7l-0.3,0c-0.6,0-1.2,0.5-1.2,1.2c0,0.7,0.5,1.2,1.2,1.2l0.3,0l0.3,0c0.7,0,1.2-0.5,1.2-1.2
				c0-0.7-0.6-1.2-1.2-1.2L189.3,589.7z"/>
			<path d="M200.8,585.6c-0.1,0.1-0.3,0.2-0.4,0.4c-0.5,0.4-0.6,1.2-0.2,1.7c0.2,0.3,0.6,0.4,0.9,0.4c0.3,0,0.5-0.1,0.8-0.3
				c0.2-0.1,0.3-0.3,0.5-0.4c0.5-0.4,0.5-1.2,0.1-1.7C202,585.2,201.2,585.2,200.8,585.6z"/>
			<path d="M217.1,504.7c0-0.7-0.5-1.2-1.2-1.2c0,0,0,0,0,0c-0.6,0-1.2,0.5-1.2,1.2l0,0.6c0,0.7,0.5,1.2,1.2,1.2c0,0,0,0,0,0
				c0.6,0,1.2-0.5,1.2-1.2L217.1,504.7z"/>
			<path d="M217.1,498.2c0-0.7-0.5-1.2-1.2-1.2c-0.7,0-1.2,0.5-1.2,1.2v0.6c0,0.7,0.5,1.2,1.2,1.2c0,0,0,0,0,0
				c0.7,0,1.2-0.5,1.2-1.2V498.2z"/>
			<path d="M217,511.2c0-0.7-0.5-1.2-1.2-1.2c-0.7,0-1.2,0.5-1.2,1.2l0,0.6c0,0.7,0.5,1.2,1.2,1.2c0,0,0,0,0,0
				c0.6,0,1.2-0.5,1.2-1.2L217,511.2z"/>
			<path d="M183.3,589.1L183,589c-0.6-0.1-1.3,0.3-1.4,0.9c-0.1,0.6,0.3,1.3,0.9,1.4l0.3,0.1c0.1,0,0.2,0,0.2,0c0.5,0,1-0.4,1.2-0.9
				C184.3,589.8,183.9,589.2,183.3,589.1z"/>
			<path d="M118.1,467.3C118.2,467.3,118.2,467.3,118.1,467.3c0.7,0,1.2-0.5,1.2-1.2l0-0.3c0-0.7-0.5-1.2-1.2-1.2
				c-0.7,0-1.2,0.5-1.2,1.2l0,0.3C117,466.8,117.5,467.3,118.1,467.3z"/>
			<path d="M116.1,498.5c0,0.7,0.5,1.2,1.1,1.2c0,0,0,0,0,0c0.6,0,1.2-0.5,1.2-1.1l0-0.6c0-0.7-0.5-1.2-1.1-1.2
				c-0.7,0-1.2,0.5-1.2,1.1L116.1,498.5z"/>
			<path d="M115.9,505c0,0.7,0.5,1.2,1.2,1.2c0,0,0,0,0,0c0.6,0,1.2-0.5,1.2-1.2l0-0.6c0-0.7-0.5-1.2-1.2-1.2
				c-0.6,0-1.2,0.5-1.2,1.2L115.9,505z"/>
			<path d="M115.8,511.5c0,0.7,0.5,1.2,1.2,1.2h0c0.7,0,1.2-0.5,1.2-1.2l0-0.6c0-0.7-0.5-1.2-1.2-1.2c0,0,0,0,0,0
				c-0.7,0-1.2,0.5-1.2,1.2L115.8,511.5z"/>
			<path d="M117.1,519.1C117.1,519.1,117.1,519.1,117.1,519.1c0.7,0,1.2-0.6,1.2-1.2l0-0.6c0-0.7-0.6-1.2-1.2-1.1
				c-0.7,0-1.2,0.6-1.1,1.2l0,0.6C115.9,518.6,116.5,519.1,117.1,519.1z"/>
			<path d="M118.1,473.8C118.1,473.8,118.1,473.8,118.1,473.8c0.7,0,1.2-0.5,1.2-1.2l0-0.6c0-0.7-0.5-1.2-1.2-1.2c0,0,0,0,0,0
				c-0.6,0-1.2,0.5-1.2,1.2l0,0.6C117,473.3,117.5,473.8,118.1,473.8z"/>
			<path d="M117.6,525.6c0.6-0.1,1.1-0.6,1.1-1.3l0-0.6c-0.1-0.6-0.6-1.1-1.3-1.1c-0.6,0.1-1.1,0.6-1.1,1.3l0,0.6
				c0.1,0.6,0.6,1.1,1.2,1.1C117.5,525.6,117.5,525.6,117.6,525.6z"/>
			<path d="M116.8,479.1c0,0.7,0.5,1.2,1.1,1.2c0,0,0,0,0,0c0.6,0,1.2-0.5,1.2-1.1l0-0.6c0-0.7-0.5-1.2-1.1-1.2
				c-0.7,0-1.2,0.5-1.2,1.1L116.8,479.1z"/>
			<path d="M116.6,485.5c0,0.7,0.5,1.2,1.1,1.2c0,0,0,0,0,0c0.6,0,1.2-0.5,1.2-1.1l0-0.6c0-0.7-0.5-1.2-1.1-1.2
				c-0.6,0-1.2,0.5-1.2,1.1L116.6,485.5z"/>
			<path d="M116.3,492c0,0.7,0.5,1.2,1.1,1.2c0,0,0,0,0,0c0.6,0,1.2-0.5,1.2-1.1l0-0.6c0-0.7-0.5-1.2-1.1-1.2
				c-0.7,0-1.2,0.5-1.2,1.1L116.3,492z"/>
			<path d="M131,552.8c0.1,0.1,0.3,0.1,0.4,0.1c0.5,0,0.9-0.3,1.1-0.8c0.2-0.6-0.1-1.3-0.7-1.5c-0.2-0.1-0.3-0.1-0.5-0.2
				c-0.6-0.3-1.3,0-1.5,0.6c-0.3,0.6,0,1.3,0.6,1.5C130.6,552.7,130.8,552.8,131,552.8z"/>
			<path d="M137.6,554.2C137.6,554.2,137.7,554.2,137.6,554.2c0.7,0,1.2-0.5,1.2-1.1c0-0.7-0.5-1.2-1.1-1.2c-0.2,0-0.4,0-0.6,0
				c-0.6,0-1.2,0.4-1.3,1.1c-0.1,0.7,0.4,1.2,1.1,1.3C137.2,554.2,137.4,554.2,137.6,554.2z"/>
			<path d="M119.4,530.7l-0.1-0.6c-0.1-0.6-0.7-1.1-1.3-1c-0.6,0.1-1.1,0.7-1,1.3l0.1,0.6c0.1,0.6,0.6,1,1.2,1c0.1,0,0.1,0,0.2,0
				C119.1,531.9,119.5,531.3,119.4,530.7z"/>
			<path d="M143.7,553.9c0.2,0,0.4-0.1,0.6-0.1c0.6-0.1,1.1-0.7,1-1.3c-0.1-0.6-0.7-1.1-1.3-1c-0.2,0-0.4,0.1-0.6,0.1
				c-0.6,0.1-1.1,0.7-1,1.3c0.1,0.6,0.6,1,1.2,1C143.6,553.9,143.7,553.9,143.7,553.9z"/>
			<path d="M120.8,536.8c-0.1-0.2-0.1-0.4-0.2-0.5c-0.2-0.6-0.8-1-1.5-0.8c-0.6,0.2-1,0.8-0.8,1.5c0.1,0.2,0.1,0.4,0.2,0.6
				c0.2,0.5,0.6,0.8,1.1,0.8c0.1,0,0.2,0,0.3,0C120.6,538.1,121,537.4,120.8,536.8z"/>
			<path d="M122.9,542.1c-0.3-0.6-1-0.8-1.6-0.5c-0.6,0.3-0.8,1-0.5,1.6c0.1,0.2,0.2,0.4,0.3,0.5c0.2,0.4,0.6,0.6,1,0.6
				c0.2,0,0.4,0,0.6-0.1c0.6-0.3,0.8-1,0.5-1.6C123,542.4,123,542.3,122.9,542.1z"/>
			<path d="M126.8,547.5c-0.1-0.1-0.3-0.3-0.4-0.4c-0.5-0.5-1.2-0.5-1.7,0c-0.5,0.5-0.5,1.2,0,1.7c0.1,0.1,0.3,0.3,0.5,0.4
				c0.2,0.2,0.5,0.3,0.8,0.3c0.3,0,0.6-0.1,0.9-0.4C127.2,548.7,127.2,547.9,126.8,547.5z"/>
			<path d="M149.9,552.6c0.1,0,0.2,0,0.3,0l0.3-0.1c0.6-0.2,1-0.8,0.8-1.5c-0.2-0.6-0.8-1-1.5-0.8l-0.3,0.1c-0.6,0.2-1,0.8-0.8,1.4
				C148.9,552.3,149.4,552.6,149.9,552.6z"/>
			<path d="M206.8,631c0,0-0.6,0-6.3,0c-3.8,0-9.4-5-17.9-8.4c-0.6-2.9-2.4-5.2-4.6-5.7c0.2-8.3,0.6-19.8,1-28.6h0.6
				c1,0,1.9-0.9,1.9-1.9v-2.5c0-1-0.9-1.9-1.9-1.9h-0.3c0.3-3.5,0.5-5.9,0.8-6.4c1.3-2.2,3.8-2.5,3.8-5.9c0-3.4-1.9-3.8-3.8-5.9
				c-0.8-0.9-0.9-7.1-0.8-14.1h0.1c3,0,5.4-2.4,5.4-5.4v-0.9c0-0.3,0-0.5-0.1-0.8c14.9-6.7,25.3-21.3,25.3-38.2c0,0-2.8-41,0-41
				c2.8,0,6.1,0,6.1,0c1.3,0,2.4-1,2.4-2.3v-2.6c0-1.3-1.1-2.3-2.4-2.3h-99c-1.3,0-2.4,1-2.4,2.3v2.6c0,1.3,1.1,2.3,2.4,2.3
				c0,0,3.5,0,6.1,0c2.6,0,0,41,0,41c0,16.9,10.4,31.6,25.3,38.2c0,0.3-0.1,0.5-0.1,0.8v0.9c0,3,2.4,5.4,5.3,5.4
				c0.1,7,0,13.2-0.6,14.1c-1.3,2.2-3.8,2.6-3.8,5.9c0,3.3,1.9,3.8,3.8,5.9c0.5,0.5,0.8,2.9,1.1,6.4H154c-1,0-1.9,0.9-1.9,1.9v2.5
				c0,1,0.9,1.9,1.9,1.9h0.9c0.4,8.8,0.6,20.3,0.8,28.6c-2.2,0.6-4,2.8-4.6,5.8c-8.4,3.4-14,8.4-17.9,8.4c-6.1,0-6.3,0-6.3,0
				c-0.2,0-0.3,0.1-0.3,0.3v5.6c0,0.2,0.1,0.3,0.3,0.3h80c0.2,0,0.3-0.1,0.3-0.3v-5.6C207.1,631.2,207,631,206.8,631z M143.4,483.2
				l11.3-14.7c-4.1,2.7-7.2,1.8-8.8,1.9c-1.8,0.1-4,1.3-5.5,2.1c-3,1.7-6.1,4.5-10.6,2.7c4,1,6.8-2.9,9.3-5.8
				c1.2-1.5,2.6-2.7,4.1-3.5c2.5-1.3,5.7-1.8,8.4-2.9h29.7c0,0,0,0.1,0,0.1c4.7,1.2,6.1,4.1,7.3,5.2c1.3,1.3,3.6,2.1,5.3,2.6
				c3.2,1,7.5,1.5,9.1,6c-2-3.7-6.8-3.1-10.6-2.9c-1.9,0.1-3.7-0.1-5.3-0.7c-2.6-0.9-5-2.9-7.5-4.1l10.8,14l-14.8-11.4
				c1.2,2.8,3.4,5.3,4.4,8.1c0.6,1.6,0.7,3.4,0.7,5.3c-0.1,3.8-0.7,8.6,2.9,10.6c-4.5-1.6-4.9-5.9-6-9.1c-0.5-1.6-1.3-3.9-2.6-5.3
				c-1.1-1.1-3.8-2.5-5.1-6.9l-2.9,29.6l-2.9-29.6c-1.3,4.3-4,5.7-5.1,6.9c-1.3,1.3-2.1,3.6-2.6,5.3c-1,3.2-1.5,7.5-6,9.1
				c3.7-2,3.1-6.8,2.9-10.6c-0.1-1.9,0.1-3.7,0.7-5.3c1-2.8,3.2-5.3,4.4-8.1L143.4,483.2z M149.4,517.5c0-0.8,0.1-1.6,0.2-2.3
				c1.1,8.5,8.3,15.1,17.1,15.2c8.8,0.1,16.2-6.4,17.4-14.9c0.1,0.8,0.2,1.5,0.1,2.3c-0.1,9.6-7.9,17.4-17.6,17.3
				C157,534.9,149.3,527.1,149.4,517.5z"/>
			<path d="M386.1,464.7c-0.7,0-1.2,0.5-1.2,1.2l0,0.3c0,0.6,0.5,1.2,1.2,1.2c0,0,0,0,0,0c0.7,0,1.2-0.5,1.2-1.2l0-0.3
				C387.3,465.2,386.8,464.7,386.1,464.7z"/>
			<path d="M385.8,529.6c-0.6,0-1.2,0.5-1.2,1.1l0,0.6c0,0.7,0.5,1.2,1.1,1.2c0,0,0,0,0.1,0c0.6,0,1.2-0.5,1.2-1.1l0-0.6
				C387,530.2,386.5,529.6,385.8,529.6z"/>
			<path d="M385.1,479.2c0,0.6,0.5,1.2,1.2,1.2c0,0,0,0,0,0c0.7,0,1.2-0.5,1.2-1.2l0-0.6l-0.8,0l-1.6,0L385.1,479.2z"/>
			<polygon points="386.2,478.6 386.6,478.6 387.4,478.6 			"/>
			<path d="M386.2,470.9c-0.7,0-1.2,0.5-1.2,1.2l0,0.6c0,0.6,0.5,1.2,1.2,1.2c0,0,0,0,0,0c0.7,0,1.2-0.5,1.2-1.2l0-0.6
				C387.4,471.4,386.8,470.9,386.2,470.9z"/>
			<path d="M385.1,491.7l0,0.6c0,0.7,0.5,1.2,1.2,1.2c0,0,0,0,0,0c0.7,0,1.2-0.5,1.2-1.2l0-0.6c0-0.7-0.5-1.2-1.2-1.2
				C385.7,490.5,385.1,491,385.1,491.7z"/>
			<path d="M386.3,484c-0.7,0-1.2,0.5-1.2,1.2l0,0.6c0,0.6,0.5,1.2,1.2,1.2c0,0,0,0,0,0c0.7,0,1.2-0.5,1.2-1.2l0-0.6
				C387.5,484.5,386.9,483.9,386.3,484z"/>
			<path d="M386.1,523.1c-0.7,0-1.2,0.5-1.2,1.1l0,0.6c0,0.7,0.5,1.2,1.1,1.2c0,0,0,0,0,0c0.6,0,1.2-0.5,1.2-1.1l0-0.6
				C387.2,523.7,386.7,523.1,386.1,523.1z"/>
			<path d="M381.4,568.4c-0.6-0.2-1.3,0.2-1.5,0.8l-0.2,0.6c-0.2,0.6,0.2,1.3,0.8,1.5c0.1,0,0.2,0,0.3,0c0.5,0,1-0.3,1.1-0.9
				l0.2-0.6C382.4,569.2,382,568.6,381.4,568.4z"/>
			<path d="M383.8,555.6c-0.6-0.1-1.2,0.4-1.3,1l-0.1,0.6c-0.1,0.6,0.3,1.2,1,1.3c0.1,0,0.1,0,0.2,0c0.6,0,1.1-0.4,1.2-1l0.1-0.6
				C384.9,556.3,384.5,555.7,383.8,555.6z"/>
			<path d="M379.4,574.6c-0.6-0.2-1.3,0.1-1.5,0.7c-0.1,0.2-0.1,0.4-0.2,0.5c-0.3,0.6,0,1.3,0.6,1.5c0.1,0.1,0.3,0.1,0.5,0.1
				c0.5,0,0.9-0.3,1.1-0.7c0.1-0.2,0.2-0.4,0.2-0.6C380.3,575.6,380,574.9,379.4,574.6z"/>
			<path d="M385.6,536.1c-0.7,0-1.2,0.5-1.2,1.1l0,0.6c0,0.7,0.5,1.2,1.1,1.2c0,0,0,0,0.1,0c0.6,0,1.1-0.5,1.2-1.1l0-0.6
				C386.7,536.7,386.2,536.2,385.6,536.1z"/>
			<path d="M385.1,542.6c-0.6-0.1-1.2,0.4-1.3,1.1l0,0.6c-0.1,0.6,0.4,1.2,1.1,1.3c0,0,0.1,0,0.1,0c0.6,0,1.1-0.5,1.2-1.1l0-0.6
				C386.3,543.3,385.8,542.7,385.1,542.6z"/>
			<path d="M384.6,549.1c-0.6-0.1-1.2,0.4-1.3,1l-0.1,0.6c-0.1,0.6,0.4,1.2,1,1.3c0,0,0.1,0,0.1,0c0.6,0,1.1-0.4,1.2-1.1l0.1-0.6
				C385.7,549.8,385.2,549.2,384.6,549.1z"/>
			<path d="M382.8,562c-0.6-0.1-1.3,0.3-1.4,0.9l-0.1,0.6c-0.1,0.6,0.3,1.3,0.9,1.4c0.1,0,0.2,0,0.2,0c0.5,0,1-0.4,1.2-0.9l0.1-0.6
				C383.8,562.8,383.4,562.2,382.8,562z"/>
			<path d="M366,588.7c-0.2,0.1-0.3,0.1-0.5,0.2c-0.6,0.2-1,0.9-0.8,1.5c0.2,0.5,0.6,0.8,1.1,0.8c0.1,0,0.2,0,0.4-0.1
				c0.2-0.1,0.4-0.1,0.6-0.2c0.6-0.2,0.9-0.9,0.7-1.5C367.3,588.8,366.6,588.5,366,588.7z"/>
			<path d="M386.2,516.6c-0.7,0-1.2,0.5-1.2,1.2l0,0.6c0,0.7,0.5,1.2,1.2,1.2c0,0,0,0,0,0c0.6,0,1.2-0.5,1.2-1.2l0-0.6
				C387.4,517.1,386.8,516.6,386.2,516.6z"/>
			<path d="M375.1,580.9c-0.1,0.2-0.2,0.3-0.3,0.5c-0.4,0.5-0.2,1.3,0.3,1.6c0.2,0.1,0.4,0.2,0.6,0.2c0.4,0,0.8-0.2,1-0.5
				c0.1-0.2,0.2-0.3,0.3-0.5c0.3-0.6,0.2-1.3-0.4-1.6C376.2,580.2,375.4,580.4,375.1,580.9z"/>
			<path d="M359.7,589.7l-0.3,0c-0.6,0-1.2,0.5-1.2,1.2c0,0.7,0.5,1.2,1.2,1.2l0.3,0l0.3,0c0.7,0,1.2-0.5,1.2-1.2
				c0-0.7-0.6-1.2-1.2-1.2L359.7,589.7z"/>
			<path d="M371.2,585.6c-0.1,0.1-0.3,0.2-0.4,0.4c-0.5,0.4-0.6,1.2-0.2,1.7c0.2,0.3,0.6,0.4,0.9,0.4c0.3,0,0.5-0.1,0.8-0.3
				c0.2-0.1,0.3-0.3,0.5-0.4c0.5-0.4,0.5-1.2,0.1-1.7C372.4,585.2,371.6,585.2,371.2,585.6z"/>
			<path d="M386.3,503.5C386.3,503.5,386.3,503.5,386.3,503.5c-0.7,0-1.2,0.5-1.2,1.2l0,0.6c0,0.7,0.5,1.2,1.2,1.2c0,0,0,0,0,0
				c0.6,0,1.2-0.5,1.2-1.2l0-0.6C387.5,504.1,387,503.5,386.3,503.5z"/>
			<path d="M386.3,497c-0.7,0-1.2,0.5-1.2,1.2v0.6c0,0.7,0.5,1.2,1.2,1.2h0c0.7,0,1.2-0.5,1.2-1.2v-0.6
				C387.5,497.5,387,497,386.3,497z"/>
			<path d="M386.3,510c-0.7,0-1.2,0.5-1.2,1.2l0,0.6c0,0.7,0.5,1.2,1.2,1.2c0,0,0,0,0,0c0.6,0,1.2-0.5,1.2-1.2l0-0.6
				C387.5,510.6,386.9,510.1,386.3,510z"/>
			<path d="M353.7,589.1l-0.3-0.1c-0.6-0.1-1.3,0.3-1.4,0.9c-0.1,0.6,0.3,1.3,0.9,1.4l0.3,0.1c0.1,0,0.2,0,0.2,0
				c0.5,0,1-0.4,1.2-0.9C354.7,589.8,354.3,589.2,353.7,589.1z"/>
			<path d="M288.5,467.3C288.6,467.3,288.6,467.3,288.5,467.3c0.7,0,1.2-0.5,1.2-1.2l0-0.3c0-0.7-0.5-1.2-1.2-1.2
				c-0.7,0-1.2,0.5-1.2,1.2l0,0.3C287.4,466.8,287.9,467.3,288.5,467.3z"/>
			<path d="M286.5,498.5c0,0.7,0.5,1.2,1.1,1.2c0,0,0,0,0,0c0.6,0,1.2-0.5,1.2-1.1l0-0.6c0-0.7-0.5-1.2-1.1-1.2
				c-0.7,0-1.2,0.5-1.2,1.1L286.5,498.5z"/>
			<path d="M286.3,505c0,0.7,0.5,1.2,1.2,1.2c0,0,0,0,0,0c0.6,0,1.2-0.5,1.2-1.2l0-0.6c0-0.7-0.5-1.2-1.2-1.2
				c-0.6,0-1.2,0.5-1.2,1.2L286.3,505z"/>
			<path d="M286.2,511.5c0,0.7,0.5,1.2,1.2,1.2l0,0c0.7,0,1.2-0.5,1.2-1.2l0-0.6c0-0.7-0.5-1.2-1.2-1.2c0,0,0,0,0,0
				c-0.6,0-1.2,0.5-1.2,1.2L286.2,511.5z"/>
			<path d="M287.5,519.1C287.5,519.1,287.5,519.1,287.5,519.1c0.7,0,1.2-0.6,1.2-1.2l0-0.6c0-0.7-0.6-1.2-1.2-1.1
				c-0.7,0-1.2,0.6-1.1,1.2l0,0.6C286.3,518.6,286.9,519.1,287.5,519.1z"/>
			<path d="M288.5,473.8C288.5,473.8,288.5,473.8,288.5,473.8c0.7,0,1.2-0.5,1.2-1.2l0-0.6c0-0.7-0.5-1.2-1.2-1.2c0,0,0,0,0,0
				c-0.6,0-1.2,0.5-1.2,1.2l0,0.6C287.4,473.3,287.9,473.8,288.5,473.8z"/>
			<path d="M288,525.6c0.6-0.1,1.1-0.6,1.1-1.3l0-0.6c-0.1-0.6-0.6-1.1-1.3-1.1c-0.6,0.1-1.1,0.6-1.1,1.3l0,0.6
				c0.1,0.6,0.6,1.1,1.2,1.1C287.9,525.6,287.9,525.6,288,525.6z"/>
			<path d="M287.2,479.1c0,0.7,0.5,1.2,1.1,1.2c0,0,0,0,0,0c0.6,0,1.2-0.5,1.2-1.1l0-0.6c0-0.7-0.5-1.2-1.1-1.2
				c-0.7,0-1.2,0.5-1.2,1.1L287.2,479.1z"/>
			<path d="M287,485.5c0,0.7,0.5,1.2,1.1,1.2c0,0,0,0,0,0c0.6,0,1.2-0.5,1.2-1.1l0-0.6c0-0.7-0.5-1.2-1.1-1.2
				c-0.6,0-1.2,0.5-1.2,1.1L287,485.5z"/>
			<path d="M286.7,492c0,0.7,0.5,1.2,1.1,1.2c0,0,0,0,0,0c0.6,0,1.2-0.5,1.2-1.1l0-0.6c0-0.7-0.5-1.2-1.1-1.2
				c-0.7,0-1.2,0.5-1.2,1.1L286.7,492z"/>
			<path d="M301.4,552.8c0.1,0.1,0.3,0.1,0.4,0.1c0.5,0,0.9-0.3,1.1-0.8c0.2-0.6-0.1-1.3-0.7-1.5c-0.2-0.1-0.3-0.1-0.5-0.2
				c-0.6-0.3-1.3,0-1.5,0.6c-0.3,0.6,0,1.3,0.6,1.5C301,552.7,301.2,552.8,301.4,552.8z"/>
			<path d="M308,554.2C308,554.2,308.1,554.2,308,554.2c0.7,0,1.2-0.5,1.2-1.1c0-0.7-0.5-1.2-1.1-1.2c-0.2,0-0.4,0-0.6,0
				c-0.6,0-1.2,0.4-1.3,1.1c-0.1,0.7,0.4,1.2,1.1,1.3C307.6,554.2,307.8,554.2,308,554.2z"/>
			<path d="M289.8,530.7l-0.1-0.6c-0.1-0.6-0.7-1.1-1.3-1c-0.6,0.1-1.1,0.7-1,1.3l0.1,0.6c0.1,0.6,0.6,1,1.2,1c0.1,0,0.1,0,0.2,0
				C289.5,531.9,289.9,531.3,289.8,530.7z"/>
			<path d="M314.1,553.9c0.2,0,0.4-0.1,0.6-0.1c0.6-0.1,1.1-0.7,1-1.3c-0.1-0.6-0.7-1.1-1.3-1c-0.2,0-0.4,0.1-0.6,0.1
				c-0.6,0.1-1.1,0.7-1,1.3c0.1,0.6,0.6,1,1.2,1C314,553.9,314.1,553.9,314.1,553.9z"/>
			<path d="M290.4,538.3c0.6-0.2,1-0.8,0.8-1.5c-0.1-0.2-0.1-0.4-0.2-0.5c-0.2-0.6-0.8-1-1.5-0.8c-0.6,0.2-1,0.8-0.8,1.5
				c0.1,0.2,0.1,0.4,0.2,0.6c0.2,0.5,0.6,0.8,1.1,0.8C290.2,538.3,290.3,538.3,290.4,538.3z"/>
			<path d="M291.5,543.7c0.2,0.4,0.6,0.6,1,0.6c0.2,0,0.4,0,0.6-0.1c0.6-0.3,0.8-1,0.5-1.6c-0.1-0.2-0.2-0.3-0.3-0.5
				c-0.3-0.6-1-0.8-1.6-0.5c-0.6,0.3-0.8,1-0.5,1.6C291.3,543.4,291.4,543.5,291.5,543.7z"/>
			<path d="M295.5,549.2c0.2,0.2,0.5,0.3,0.8,0.3c0.3,0,0.6-0.1,0.9-0.4c0.4-0.5,0.4-1.2,0-1.7c-0.1-0.1-0.3-0.3-0.4-0.4
				c-0.5-0.5-1.2-0.5-1.7,0s-0.5,1.2,0,1.7C295.2,548.9,295.4,549,295.5,549.2z"/>
			<path d="M320.3,552.6c0.1,0,0.2,0,0.3,0l0.3-0.1c0.6-0.2,1-0.8,0.8-1.5c-0.2-0.6-0.8-1-1.5-0.8l-0.3,0.1c-0.6,0.2-1,0.8-0.8,1.4
				C319.3,552.3,319.8,552.6,320.3,552.6z"/>
			<path d="M386.7,456h-99c-1.3,0-2.4,1-2.4,2.3v2.6c0,1.3,1.1,2.3,2.4,2.3c0,0,3.5,0,6.1,0c2.6,0,0,41,0,41
				c0,16.9,10.4,31.6,25.3,38.2c0,0.3-0.1,0.5-0.1,0.8v0.9c0,3,2.4,5.4,5.3,5.4c0.1,7,0,13.2-0.6,14.1c-1.3,2.2-3.8,2.6-3.8,5.9
				c0,3.3,1.9,3.8,3.8,5.9c0.5,0.5,0.8,2.9,1.1,6.4h-0.5c-1,0-1.9,0.9-1.9,1.9v2.5c0,1,0.9,1.9,1.9,1.9h0.9
				c0.4,8.8,0.6,20.3,0.8,28.6c-2.2,0.6-4,2.8-4.6,5.8c-8.4,3.4-14,8.4-17.9,8.4c-6.1,0-6.3,0-6.3,0c-0.2,0-0.3,0.1-0.3,0.3v5.6
				c0,0.2,0.1,0.3,0.3,0.3h80c0.2,0,0.3-0.1,0.3-0.3v-5.6c0-0.2-0.1-0.3-0.3-0.3c0,0-0.6,0-6.3,0c-3.8,0-9.4-5-17.9-8.4
				c-0.6-2.9-2.4-5.2-4.6-5.7c0.2-8.3,0.6-19.8,1-28.6h0.6c1,0,1.9-0.9,1.9-1.9v-2.5c0-1-0.9-1.9-1.9-1.9h-0.3
				c0.3-3.5,0.5-5.9,0.8-6.4c1.3-2.2,3.8-2.5,3.8-5.9c0-3.4-1.9-3.8-3.8-5.9c-0.8-0.9-0.9-7.1-0.8-14.1h0.1c3,0,5.4-2.4,5.4-5.4
				v-0.9c0-0.3,0-0.5-0.1-0.8c14.9-6.7,25.3-21.3,25.3-38.2c0,0-2.8-41,0-41c2.8,0,6.1,0,6.1,0c1.3,0,2.4-1,2.4-2.3v-2.6
				C389.1,457.1,388,456,386.7,456z M337.1,535c-9.6-0.1-17.4-7.9-17.3-17.6c0-0.8,0.1-1.6,0.2-2.3c1.1,8.5,8.3,15.1,17.1,15.2
				c8.8,0.1,16.2-6.4,17.4-14.9c0.1,0.8,0.2,1.5,0.1,2.3C354.5,527.3,346.7,535.1,337.1,535z M362.8,473.9c-1.9,0.1-3.7-0.1-5.3-0.7
				c-2.6-0.9-5-2.9-7.5-4.1l10.8,14l-14.8-11.4c1.2,2.8,3.4,5.3,4.4,8.1c0.6,1.6,0.7,3.4,0.7,5.3c-0.1,3.8-0.7,8.6,2.9,10.6
				c-4.5-1.6-4.9-5.9-6-9.1c-0.5-1.6-1.3-3.9-2.6-5.3c-1.1-1.1-3.8-2.5-5.1-6.9l-2.9,29.6l-2.9-29.6c-1.3,4.3-4,5.7-5.1,6.9
				c-1.3,1.3-2.1,3.6-2.6,5.3c-1,3.2-1.5,7.5-6,9.1c3.7-2,3.1-6.8,2.9-10.6c-0.1-1.9,0.1-3.7,0.7-5.3c1-2.8,3.2-5.3,4.4-8.1
				l-14.8,11.4l11.3-14.7c-4.1,2.7-7.2,1.8-8.8,1.9c-1.8,0.1-4,1.3-5.5,2.1c-3,1.7-6.1,4.5-10.6,2.7c4,1,6.8-2.9,9.3-5.8
				c1.2-1.5,2.6-2.7,4.1-3.5c2.5-1.3,5.7-1.8,8.4-2.9h29.7c0,0,0,0.1,0,0.1c4.7,1.2,6.1,4.1,7.3,5.2c1.3,1.3,3.6,2.1,5.3,2.6
				c3.2,1,7.5,1.5,9.1,6C371.4,473.2,366.6,473.8,362.8,473.9z"/>
		</g>
	</g>
</g>
</svg>
