<?xml version="1.0" encoding="utf-8"?>
<!-- Generator: Adobe Illustrator 21.1.0, SVG Export Plug-In . SVG Version: 6.00 Build 0)  -->
<svg version="1.1" xmlns="http://www.w3.org/2000/svg" xmlns:xlink="http://www.w3.org/1999/xlink" x="0px" y="0px"
	 viewBox="0 0 504 864" style="enable-background:new 0 0 504 864;" xml:space="preserve">
<style type="text/css">
	.st0{fill:#040404;}
</style>
<g id="Слой_1">
</g>
<g id="Слой_2">
	<g>
		<path d="M503.8,18.2c-1.6-17.9-18.7-16.3-31.6-16.3c-45.9,0-91.8,0-137.6,0c-63.2,0-126.3,0-189.5,0c-40.6,0-81.2,0-121.8,0
			c-2.6,0-5.3-0.2-8,0.2c-9.5,1.2-15,9.2-15.2,18.2c-0.2,7.3,0,14.5,0,21.8c0,37.4,0,74.9,0,112.3c0,57,0,114.1,0,171.1
			c0,64.3,0,128.6,0,192.9c0,58.4,0,116.7,0,175.1c0,40.1,0,80.2,0,120.3c0,9.1,0,18.2,0,27.3c0,11.7,6.7,20.5,19.2,20.7
			c35.9,0.6,71.9,0,107.9,0c62.4,0,124.9,0,187.3,0c49.7,0,99.5,0,149.2,0c7.6,0,15.2,0,22.9,0c0.4,0,0.8-0.1,1.2-0.2
			c14.4-1.8,16.1-13.8,16.1-25.5c0-11.4,0-22.8,0-34.3c0-43.4,0-86.9,0-130.3c0-59.9,0-119.8,0-179.8c0-63.9,0-127.7,0-191.6
			c0-55.3,0-110.6,0-165.9c0-33.7,0-67.3,0-101C503.9,28.3,504.2,23.2,503.8,18.2z M486.6,852.8c-28.3,0-56.6,0-84.9,0
			c-59.9,0-119.8,0-179.7,0c-54,0-108,0-162,0c-13.1,0-26.1,0-39.2,0c-5.6,0-11-1.3-11.7-8.3c-0.2-1.5,0-3,0-4.5c0-26.5,0-53,0-79.5
			c0-50,0-100,0-149.9c0-61.8,0-123.6,0-185.4c0-61.4,0-122.7,0-184.1c0-48.9,0-97.7,0-146.6c0-24.2-0.8-48.6,0-72.7
			c0.2-5.3,1.6-10.1,8.3-10.8c2.2-0.2,4.5,0,6.7,0c14.8,0,29.6,0,44.5,0c55.6,0,111.3,0,166.9,0c58.9,0,117.8,0,176.7,0
			c18.9,0,37.9,0,56.8,0c8.1,0,24.7-3.1,25.9,8.4c0.5,5.2,0,10.8,0,16.1c0,13.5,0,27.1,0,40.6c0,45.5,0,91.1,0,136.6
			c0,60.1,0,120.2,0,180.3c0,62.6,0,125.2,0,187.7c0,52.8,0,105.6,0,158.4c0,31.4,0,62.7,0,94.1C494.8,840.3,496.9,852,486.6,852.8z
			"/>
		<path d="M460,790.9c1.2,0.1,2.4-0.7,2.4-2.2c0-23.7,0-47.4,0-71.1c0-56.4,0-112.8,0-169.2c0-68.7,0-137.4,0-206
			c0-59,0-117.9,0-176.9c0-19.6,0-39.2,0-58.8c0-8.9,1.3-19,0-27.9c-0.1-0.4,0-0.8,0-1.2c0-0.8-0.3-1.3-0.8-1.7
			c0.1-1.2-0.6-2.5-2.2-2.6c-13.1-0.5-25.3-13.8-25.8-26.7c0-0.5-0.2-0.8-0.4-1.1c-0.3-0.6-1-1.1-1.9-1.1c-40.5,0-80.9,0-121.4,0
			c-64.5,0-129,0-193.6,0c-14.9,0-29.7,0-44.6,0c-0.9,0-1.6,0.5-1.9,1.1c-0.2,0.3-0.3,0.7-0.4,1.2C69.1,59.5,57,72.8,43.9,73.3
			c-1.8,0.1-2.5,1.9-2,3.2c-0.2,0.3-0.2,0.6-0.2,1c0,23.7,0,47.4,0,71.1c0,56.4,0,112.8,0,169.2c0,68.7,0,137.4,0,206
			c0,59,0,117.9,0,176.9c0,19.6,0,39.2,0,58.8c0,8.9-1.3,19,0,27.9c0.1,0.4,0,0.8,0,1.2c0,0.9,0.5,1.6,1.1,1.9
			c0.3,0.2,0.7,0.3,1.2,0.4c13,0.5,25.3,13.3,25.8,26.2c0,0.5,0.2,0.8,0.4,1.1c0.3,0.6,1,1.1,1.9,1.1c40.5,0,80.9,0,121.4,0
			c64.5,0,129,0,193.6,0c14.9,0,29.7,0,44.6,0c0.9,0,1.6-0.5,1.9-1.1c0.2-0.3,0.3-0.7,0.4-1.2c0.5-12.9,12.7-25.7,25.8-26.2
			C459.6,791,459.8,790.9,460,790.9z M429.3,814.9c-39.8,0-79.6,0-119.3,0c-64.5,0-129,0-193.6,0c-14.2,0-28.3,0-42.5,0
			c-1.7-13.9-13.9-26.5-27.8-28.3c0-23,0-46,0-69.1c0-56.4,0-112.8,0-169.2c0-68.7,0-137.4,0-206c0-59,0-117.9,0-176.9
			c0-19.6,0-39.2,0-58.8c0-8.9,1.3-19,0-27.9c-0.1-0.4,0-0.8,0-1.2c14-1.8,26.1-14.9,27.8-28.7c39.8,0,79.5,0,119.3,0
			c64.5,0,129,0,193.6,0c14.2,0,28.3,0,42.5,0c1.7,14.1,14.3,27.4,28.5,28.8c0,23.7,0,47.3,0,71c0,56.4,0,112.8,0,169.2
			c0,68.7,0,137.4,0,206c0,59,0,117.9,0,176.9c0,19.6,0,39.2,0,58.8c0,8.6-1.2,18.4-0.1,27C443.6,788.1,431.1,800.9,429.3,814.9z"/>
		<path d="M233.5,102.7c0.3,0,0.6,0.1,0.9,0.4c0.3,0.3,0.5,0.4,0.6,0.2c0.1-0.2,1.5-0.4,4-0.4c2.1,0,3.2,0.1,3.2,0.3
			c0,0.2,0.2,0.3,0.5,0.3c0.4,0,0.6-0.1,0.6-0.2c0-0.1,0.2-0.3,0.6-0.5c0.4-0.2,0.6-0.4,0.6-0.6c0-0.9-0.7-1.4-1.9-1.5l-1.3-0.1
			l0.1-6.7c0.1-4.5,0.2-6.8,0.3-7c0.1-0.1,0.2-0.8,0.3-1.9c0.1-2.1,0.3-3.2,0.7-3.2c0.2,0,0.4-0.1,0.4-0.3c0-0.2,0.2-0.3,0.7-0.3
			c0.4,0,0.8-0.1,1-0.3s0.4-0.5,0.4-0.7c0-0.3-0.2-0.6-0.5-0.8c-0.3-0.2-1.4-0.3-3.4-0.3c-2,0-2.9,0.1-2.9,0.3
			c0,0.1-0.3,0.2-0.9,0.2c-0.6,0-0.9,0.1-0.9,0.4s-0.1,0.4-0.3,0.4c-0.2,0-0.3,0.2-0.3,0.6c0,0.5,0.1,0.8,0.4,0.9
			c0.3,0.1,0.4,0.9,0.4,2.5c0,1.6,0.1,2.4,0.3,2.5c0.2,0.1,0.3,0.8,0.3,2.2c0,1.3-0.1,2-0.3,2.1c-0.2,0.1-0.4,1.5-0.4,4.3
			c-0.1,2.4-0.2,3.9-0.4,4.3c-0.2,0.5-0.8,0.8-1.8,0.9c-0.6,0-0.9,0.1-1,0.2c-0.1,0.1-0.2,0.4-0.2,0.8
			C233.1,102.4,233.2,102.7,233.5,102.7z M239.6,88c0.3,0,0.4,0.2,0.4,0.6c0,0.4-0.1,0.5-0.4,0.5c-0.3,0-0.4-0.2-0.4-0.5
			C239.2,88.2,239.3,88,239.6,88z M237.9,96c0.2,0,0.4,0.1,0.4,0.3c0,0.2-0.1,0.3-0.4,0.3c-0.3,0-0.4-0.1-0.4-0.3
			C237.5,96.1,237.7,96,237.9,96z"/>
		<path d="M248.4,80.3c0.2,0,0.3,0.1,0.3,0.4c0,0.2,0.3,0.4,1,0.5c0.6,0.1,1.1,0.4,1.5,0.9s0.7,1.1,0.7,1.6c0,0.5,0.1,1,0.3,1.6
			c0.2,0.6,0.4,0.9,0.5,0.9c0.1,0,0.2,0.3,0.2,0.8c0,0.6,0.2,1.1,0.5,1.4c0.3,0.3,0.5,0.9,0.8,1.8c0.2,0.9,0.3,1.7,0.3,2.5
			c0,0.9,0.1,1.4,0.4,1.4c0.1,0.1,0.2,0.3,0.2,0.7c0,0.4,0.1,0.6,0.2,0.6c0.2,0.1,0.3,0.6,0.3,1.6c0,0.9,0.1,1.4,0.4,1.4
			c0.2,0,0.4,0.3,0.6,1c0.2,0.7,0.4,1,0.5,1c0.2,0,0.3,0.3,0.4,0.8c0.1,0.7,0.5,1,1.3,1c0.1,0,0.4,0,0.6-0.1
			c0.5-0.1,0.7-0.4,0.7-1.1c0-0.6,0.1-0.9,0.3-0.9c0.2,0,0.3-0.3,0.3-0.9c0-0.6,0.1-0.9,0.3-0.9c0.2-0.1,0.3-0.6,0.3-1.5
			c0-0.9,0.2-1.6,0.6-1.9c0.5-0.5,0.8-0.7,1.1-0.8c0.3-0.1,0.4-0.5,0.4-1.3c0-0.8,0.1-1.2,0.4-1.4c0.2-0.1,0.4-0.6,0.6-1.5
			c0.2-0.9,0.3-1.4,0.4-1.5c0.3-0.2,0.4-0.5,0.4-0.9c0-0.4,0.2-0.6,0.7-0.7c0.4,0,0.6-0.3,0.6-0.7c0-0.2-0.1-0.6-0.1-1
			c0-1,0.2-1.5,0.6-1.5c0.4,0,0.5-0.3,0.5-0.8c0-0.5,0.2-0.9,0.6-1.4c0.4-0.4,0.9-0.7,1.6-0.8c0.8-0.2,1.2-0.6,1.2-1.4
			c0-0.1,0-0.4-0.1-0.7l-0.1-0.6H267c-2.5,0-3.7,0.1-3.7,0.3c0,0.2-0.1,0.3-0.3,0.3c-0.3,0-0.6,0.2-0.9,0.6
			c-0.4,0.5-0.4,0.7-0.2,0.7c0.3,0,0.5,0.1,0.5,0.4c0.1,0.3,0.5,0.4,1.1,0.4c0.6,0,1,0.2,1.1,0.7c0.1,0.5,0.1,0.7-0.1,0.8
			c-0.2,0.1-0.3,0.5-0.3,1.3c0,0.7-0.1,1.2-0.4,1.3c-0.2,0.1-0.3,0.3-0.3,0.7c0,0.1,0.1,0.2,0.1,0.4c0,0.5-0.1,0.9-0.3,1.4
			c-0.2,0.5-0.4,0.8-0.7,0.8c-0.4,0.1-0.5,0.4-0.5,0.9c0,0.5-0.1,0.9-0.3,1.1c-0.2,0.2-0.4,0.8-0.4,1.7c-0.1,1-0.3,1.5-0.6,1.5
			c-0.4,0-0.5,0.2-0.4,0.5c0,0.2,0,0.4,0,0.4c-0.1,0.1-0.2,0.1-0.4,0.1c-0.4,0-0.7-0.1-0.9-0.2c-0.5-0.3-0.7-1.2-0.8-2.9
			c0-0.7-0.1-1.2-0.4-1.4c-0.2-0.2-0.3-0.7-0.3-1.6c0-1.3-0.3-2.2-0.9-2.6c-0.2-0.1-0.2-0.3,0.1-0.4c0.1,0,0.2-0.2,0.3-0.4
			c0.1-0.2,0.1-0.5,0.1-0.7c0-0.2-0.1-0.3-0.2-0.3c-0.1,0-0.3-0.3-0.4-0.8c-0.1-0.6-0.4-0.9-0.7-0.9c-0.3-0.1-0.4-0.2-0.4-0.3
			c0-0.4,0.5-0.5,1.4-0.5c1.3,0,1.9-0.2,1.9-0.7c0-0.2,0.1-0.4,0.3-0.4c0.2,0,0.1-0.3-0.3-0.8c-0.4-0.5-0.9-0.8-1.6-0.8
			c-0.7,0-1.1-0.1-1.2-0.3c-0.1-0.1-0.3-0.1-0.7,0.1c-0.4,0.2-0.6,0.2-0.7-0.1c-0.2-0.2-0.3-0.3-0.4-0.1c-0.1,0.2-0.5,0.3-1.1,0.3
			c-0.4,0-0.6,0-0.8-0.1c-0.1-0.1-0.2-0.3-0.3-0.7c-0.1-0.5-0.3-0.8-0.7-0.8c-0.2,0-0.5,0.2-0.8,0.5c-0.4,0.4-0.7,0.5-1.2,0.5
			c-0.4,0-0.6,0.1-0.6,0.4c0,0.3-0.1,0.4-0.3,0.4c-0.2,0-0.3,0.2-0.3,0.6C248.1,80.1,248.2,80.3,248.4,80.3z"/>
		<path d="M351.1,808c-0.1,0-0.1,0.1-0.1,0.3c0,0.2,0,0.3,0.1,0.3c0.1,0,0.1-0.1,0.1-0.3C351.3,808.1,351.2,808,351.1,808z"/>
		<g>
			<path d="M112,781.7c0-0.3-0.1-0.5-0.2-0.6c-0.1-0.1-0.1-0.2,0-0.4c0.1-0.1,0.1-0.2,0.1-0.2c0-0.1-0.1-0.2-0.2-0.2
				c-0.1-0.1-0.2-0.2-0.2-0.3c0-0.2-0.1-0.3-0.3-0.5c-0.2-0.2-0.4-0.3-0.5-0.3c-0.1,0-0.2,0-0.2,0.1c0,0.1-0.3,0.1-0.9,0.2
				c-0.5,0.1-1.1,0.1-1.7,0.1c-0.6,0-0.9,0-1,0.1c-0.1,0-0.5,0.1-1.4,0.1c-0.9,0.1-1.8,0.2-2.7,0.3c-0.9,0.1-1.4,0.2-1.4,0.2
				c0,0,0,0.1,0,0.2c0,0.1,0,0.2,0.1,0.3c0.1,0.2,0.1,0.3,0.2,0.4c0.1,0,0.3,0.1,0.6,0.1c0.5,0,0.9,0.1,1,0.3
				c0.1,0.2,0.2,0.7,0.2,1.6c0,0.9-0.1,1.4-0.2,1.5c-0.1,0.1-0.1,0.2,0,0.4c0.1,0.3,0.2,0.5,0,0.7c-0.1,0.2-0.2,0.3-0.3,0.3
				c-0.1,0,0,0.1,0.1,0.2c0.1,0.1,0.1,0.3,0.1,0.6c0,0.1,0,0.4-0.1,0.8c-0.1,1.4-0.2,2.3-0.2,2.6c-0.1,0.4-0.1,0.5-0.3,0.6
				c-0.2,0.1-0.5,0.3-0.8,0.6l-0.5,0.6h5v-0.5c0-0.2,0-0.4-0.1-0.4c0-0.1-0.1-0.1-0.3-0.1c-0.2,0-0.4,0-0.4-0.1
				c0-0.1-0.1-0.1-0.2-0.1s-0.2-0.1-0.3-0.3c0-0.1,0-0.4,0-1.2c0-1.2,0-2.1,0.1-2.8c0-0.1,0.5-0.1,1.4-0.1c0.8,0,1.3,0.1,1.5,0.2
				c0.3,0.1,0.4,0.4,0.4,0.9c0,0.3,0,0.5,0.1,0.5c0.1,0,0.1-0.1,0.3-0.2c0.1-0.1,0.3-0.2,0.5-0.1c0.2,0.1,0.3,0,0.3-0.2
				c0-0.2,0-0.3,0.1-0.4c0.1-0.1,0.1-0.2,0-0.2c-0.1-0.1-0.2-0.3-0.2-0.6c0-0.4,0.1-0.7,0.2-0.8c0.1-0.1,0.1-0.1,0.1-0.2
				c0-0.1,0-0.1-0.1-0.2c-0.1-0.1-0.1-0.2-0.1-0.2c0-0.1,0-0.1,0.1-0.2c0.2-0.1,0.2-0.2,0.2-0.4c0-0.3-0.4-0.4-1.1-0.4
				c-0.4,0-0.6,0.2-0.6,0.5c0,0.1,0,0.2,0.1,0.3c0.1,0.2,0,0.4,0,0.5c-0.1,0.1-0.4,0.2-1,0.3c-0.6,0.1-1.1,0.2-1.6,0.2h-0.5v-0.6
				c0-0.4,0.1-0.6,0.2-0.7c0.1-0.1,0.2-0.2,0.2-0.4c0-0.3-0.1-0.5-0.2-0.8c-0.1-0.2-0.2-0.4-0.2-0.4c0-0.1,0.1-0.1,0.2-0.3
				c0.2-0.2,0.3-0.4,0.2-0.6c0-0.1,0-0.1,0-0.2c0-0.1,0.1-0.2,0.4-0.3c0.3-0.1,0.8-0.1,1.6-0.1c0.7,0,1.1-0.1,1.1-0.1
				c0.3,0,0.5,0.1,0.7,0.2c0.2,0.2,0.3,0.3,0.5,0.4c0.2,0.1,0.3,0.2,0.3,0.3c0,0.1,0.1,0.3,0.3,0.4c0.2,0.1,0.4,0.3,0.5,0.6
				c0.1,0.4,0.4,0.5,0.8,0.5c0.1,0,0.2,0,0.3-0.1c0.1-0.1,0.2-0.2,0.2-0.6c0-0.3-0.1-0.5-0.2-0.5C112,782.2,112,782,112,781.7z"/>
			<path d="M131.6,783.5c-0.2-0.1-0.2-0.2-0.2-0.5c0-0.3,0-0.5-0.1-0.5c-0.1,0-0.1-0.1-0.1-0.4c0-0.3-0.1-0.4-0.2-0.4
				c-0.1,0-0.2-0.1-0.3-0.3c-0.1-0.2-0.2-0.3-0.3-0.4c-0.1-0.1-0.2-0.2-0.2-0.4c0-0.2-0.1-0.3-0.4-0.3c-0.7,0-1-0.1-1-0.4
				c0-0.1-0.1-0.2-0.2-0.2c-0.1,0-0.2,0-0.2-0.1c0-0.1-0.1-0.1-0.3-0.1c-0.2,0-0.3-0.1-0.4-0.2c0-0.1-0.5-0.2-1.5-0.2
				c-0.9,0-1.5,0.1-1.6,0.2c-0.1,0.1-0.2,0.2-0.4,0.2c-0.2,0-0.3,0.1-0.4,0.3c-0.1,0.2-0.3,0.4-0.6,0.4c-0.3,0-0.6,0.1-1.1,0.2
				c-0.5,0.1-0.7,0.3-0.8,0.5c0,0.2-0.2,0.4-0.5,0.7c-0.3,0.3-0.4,0.5-0.4,0.5c0,0.1-0.1,0.1-0.2,0.1c-0.1,0-0.2,0.1-0.3,0.4
				c-0.1,0.2-0.2,0.4-0.3,0.7c-0.2,0.3-0.2,0.8-0.2,1.8c0,1.2,0.1,2.1,0.4,2.9c0.5,1.4,0.9,2.2,1.2,2.3c0.2,0,0.3,0.1,0.3,0.3
				c0,0.2,0.2,0.2,0.4,0.2c0.2,0,0.4,0,0.4,0.1c0,0.1,0.1,0.1,0.3,0.1c0.2,0,0.3,0.1,0.3,0.4c0,0.2,0,0.3,0.1,0.4
				c0.1,0.1,0.2,0,0.4-0.1c0.1-0.1,0.2-0.1,0.3,0c0.2,0.1,0.9,0.2,2.2,0.2c1.1,0,1.7-0.1,1.7-0.2c0-0.1,0.3-0.2,0.7-0.2
				c0.4,0,0.6-0.1,0.6-0.2c0-0.2,0.1-0.3,0.2-0.3c0,0,0.2-0.1,0.4-0.3c0.3-0.2,0.4-0.3,0.5-0.3c0.1,0,0.2-0.1,0.2-0.3
				c0.1-0.2,0.2-0.3,0.3-0.3c0.1,0,0.2-0.1,0.3-0.3c0-0.2,0.2-0.3,0.4-0.3c0.2-0.1,0.3-0.1,0.3-0.2c0-0.1,0.1-0.1,0.2-0.1
				c0.1,0,0.2-0.2,0.2-0.6c0-0.3,0-0.5-0.1-0.5c-0.1,0-0.1-0.1,0-0.2c0.1-0.1,0.2-0.8,0.2-2.1c0-0.3,0-0.7,0-1.1
				C131.8,783.8,131.7,783.5,131.6,783.5z M129.4,786.6c-0.1,0-0.2,0.2-0.2,0.4c0,0.3-0.1,0.4-0.2,0.5c-0.1,0.1-0.2,0.4-0.3,0.8
				c-0.1,0.4-0.1,0.6-0.3,0.6c-0.1,0-0.2,0-0.2,0.1c0,0.1-0.1,0.2-0.4,0.2c-0.3,0.1-0.4,0.2-0.4,0.3c0,0.1,0,0.2-0.1,0.2
				c-0.1,0.1-0.2,0.1-0.4,0.2c-0.1,0.1-0.2,0.1-0.3,0.1c0,0.1-0.2,0.1-0.4,0.1c-0.2,0-0.3,0.1-0.5,0.2c-0.1,0.1-0.2,0.1-0.4,0.1
				c-0.2,0-0.4,0-0.7-0.1c-0.5-0.1-1-0.3-1.3-0.6c-0.3-0.3-0.7-0.8-1-1.5c-0.3-0.5-0.4-0.9-0.5-1.1c0-0.2-0.1-0.7-0.1-1.4
				c0-0.7,0-1.1,0.1-1.4c0-0.2,0.1-0.5,0.3-0.8c0.3-0.5,0.6-0.9,1-1.3c0.4-0.4,0.8-0.6,1-0.7c0.3,0,0.5-0.1,0.5-0.3
				c0-0.1,0.1-0.2,0.2-0.2c0.1,0,0.2,0,0.2-0.1c0-0.1,0.1-0.1,0.3-0.1c0.2,0,0.3,0,0.3,0.1c0,0.1,0.3,0.1,0.9,0.1
				c0.5,0,0.8,0.1,0.8,0.2c0,0.1,0.1,0.2,0.3,0.3c0.2,0.1,0.3,0.2,0.3,0.3s0.1,0.2,0.3,0.3c0.3,0.1,0.5,0.4,0.5,0.8
				c0,0.2,0.1,0.5,0.3,0.8c0.2,0.3,0.3,0.7,0.3,1.1c0,0.5,0,0.7,0.1,0.8c0.1,0.1,0.1,0.2,0.1,0.4
				C129.6,786.4,129.5,786.5,129.4,786.6z"/>
			<path d="M150.4,779.7h-0.2c-0.4,0-0.8-0.1-1.1-0.3c-0.3-0.2-0.4-0.2-0.4,0c0,0.1-0.1,0.2-0.2,0.2c-0.1,0-0.4,0-0.8,0.1
				c-0.7,0-1,0-1.1,0.1c-0.1,0.1-0.1,0.3-0.1,0.7l0,0.6c0.2,0,0.5,0,0.8,0.1c0.4,0,0.7,0.1,0.8,0.1v2.4c0,1.6,0.1,2.4,0.2,2.5
				c0,0,0.1,0,0.1,0.1c0,0,0,0.1,0,0.1c0,0-0.1,0.1-0.1,0.1c-0.1,0.2-0.2,0.4-0.2,0.5v0.2c0,0.3,0,0.6-0.1,0.9
				c-0.1,0.3-0.2,0.5-0.3,0.6c-0.1,0.1-0.2,0.1-0.2,0.3c0,0.1-0.1,0.3-0.3,0.5c-0.2,0.2-0.4,0.2-0.6,0.2c-0.3,0-0.4,0.1-0.6,0.2
				c-0.1,0.1-0.2,0.2-0.5,0.2c0,0-0.2,0-0.5-0.1c-0.5-0.1-0.7-0.2-0.8-0.2c0-0.1-0.2-0.1-0.4-0.1c-0.2,0-0.5-0.1-0.8-0.2
				c-0.2-0.1-0.3-0.2-0.4-0.2c0-0.1-0.1-0.2-0.1-0.5v-0.4v-0.2c0-0.4-0.1-0.7-0.2-0.8c-0.1,0-0.2-0.1-0.2-0.3c0-0.2,0.1-0.3,0.2-0.4
				c0.1-0.1,0.1-0.1,0-0.2c-0.1,0-0.1-0.1-0.2-0.2c0-0.1,0-0.2,0-0.3c0-0.1,0.1-0.1,0.1-0.1c0.1,0,0.1-0.3,0.1-0.9
				c0-1-0.1-1.5-0.2-1.6c-0.1-0.1-0.1-0.2,0-0.3c0.1-0.1,0.2-0.4,0.2-0.9c0-0.1,0-0.2-0.1-0.3c0-0.1-0.1-0.2-0.1-0.3l0-0.1
				c0,0,0.1,0,0.3-0.1c0.2,0,0.4,0,0.6-0.1c0.2,0,0.5,0,0.6,0c0.1,0,0.1,0,0.2,0c0.1,0,0.1,0,0.1,0h0c0.1,0,0.1-0.1,0.1-0.2
				c0-0.1,0-0.4-0.1-0.6c0-0.2-0.1-0.4-0.3-0.5c-0.2-0.1-0.5-0.1-1-0.1c-0.2,0-0.7,0-1.6,0.1c-1.4,0.1-2.2,0.2-2.4,0.4
				c-0.2,0.2-0.3,0.4-0.3,0.6c0,0.4,0.4,0.6,1.1,0.7c0.5,0.1,0.8,0.2,0.8,0.4c0,0.1-0.1,0.2-0.2,0.3c-0.1,0.1-0.2,0.2-0.2,0.3
				c0,0.1,0,0.2,0.1,0.5c0.1,0.4,0.1,0.6,0,0.7c-0.1,0.1-0.2,0.1-0.3,0.1c-0.1,0-0.1,0.1-0.1,0.1c0,0.2,0.1,0.4,0.4,0.5
				c0.3,0.1,0.4,0.2,0.4,0.4c0,0.1-0.1,0.2-0.2,0.3c-0.2,0.1-0.2,0.4-0.2,1v0.4c0,0.8,0.1,1.3,0.2,1.4c0.1,0.1,0.1,0.3,0.1,0.5
				c0,0.2,0,0.3-0.1,0.3c-0.1,0-0.1,0.1-0.2,0.4c-0.1,0.3,0,0.4,0.2,0.5c0.2,0.1,0.3,0.3,0.5,0.7c0.1,0.3,0.2,0.5,0.3,0.5
				c0.1,0,0.1,0.1,0.2,0.4c0.1,0.3,0.2,0.4,0.4,0.4c0.2,0,0.4,0.1,0.5,0.2c0.1,0.1,1,0.2,2.7,0.2c1.4,0,2-0.1,2-0.2
				c0-0.1,0-0.2,0.1-0.2c0.1,0,0.2-0.1,0.3-0.2c0.1-0.2,0.2-0.2,0.4-0.2c0.2,0,0.3-0.1,0.3-0.3c0-0.2,0.2-0.3,0.5-0.3h0.2h0.1
				c0.3,0,0.5,0,0.5-0.1c0,0-0.1-0.1-0.2-0.2c-0.1-0.1-0.2-0.1-0.2-0.3s0.1-0.3,0.2-0.5c0.1-0.2,0.2-0.4,0.2-0.5c0,0,0-0.1-0.1-0.1
				c-0.1,0-0.2-0.1-0.2-0.3s0.1-0.2,0.2-0.3c0.1,0,0.2-0.2,0.2-0.4c0-0.3,0.1-0.6,0.1-1c0-0.4,0-0.6,0-0.7c0.1-0.4,0.1-1.1,0.1-2.2
				c0-1,0.1-1.5,0.2-1.6c0.1-0.1,0.2-0.2,0-0.2c-0.1-0.1-0.2-0.1-0.2-0.2c0-0.1,0.1-0.3,0.3-0.4c0.2-0.1,0.4-0.2,0.6-0.2
				c0.1,0,0.2,0,0.2,0c0,0,0.1,0,0.2,0c0.3,0,0.4-0.1,0.4-0.4c0-0.1,0-0.1-0.1-0.2c-0.1-0.1-0.1-0.2,0-0.2c0.1,0,0.2-0.1,0.2-0.2
				C151.6,779.8,151.2,779.7,150.4,779.7z"/>
			<path d="M171.9,790.5c-0.1,0-0.2-0.1-0.3-0.4c-0.1-0.2-0.3-0.4-0.5-0.4c-0.2,0-0.4-0.1-0.6-0.2c-0.2-0.1-0.4-0.2-0.4-0.4
				c-0.1-0.1-0.1-0.2-0.3-0.2s-0.3-0.1-0.6-0.4c-0.2-0.3-0.4-0.6-0.6-0.9c-0.1-0.3-0.4-0.6-0.8-1.1c-0.4-0.5-0.7-0.7-0.8-0.7
				c-0.1,0-0.2-0.1-0.4-0.3c-0.1-0.1-0.2-0.2-0.1-0.3c0,0,0.1-0.1,0.3-0.2c0.8-0.3,1.2-0.6,1.2-0.9c0-0.5,0.1-0.7,0.3-0.7
				c0.1,0,0.2-0.1,0.4-0.2c0.2-0.2,0.2-0.7,0.2-1.5c0-1-0.1-1.5-0.3-1.7c-0.1-0.1-0.2-0.2-0.4-0.2c-0.1,0-0.2,0-0.2-0.1
				c0-0.1-0.1-0.2-0.4-0.3c-0.3-0.1-0.4-0.3-0.5-0.5l-0.2-0.3c-0.1-0.1-0.2-0.1-0.2,0.1c0,0.1-0.3,0.1-0.8,0.1c-0.6,0-0.9,0-0.9-0.1
				s-0.1-0.1-0.4-0.1c-0.3,0-0.5-0.1-0.6-0.3c-0.2-0.2-0.3-0.3-0.4-0.3s-0.2,0.1-0.1,0.3c0,0,0,0,0,0.1v0.1c0,0.1-0.6,0.2-1.8,0.2
				h-1.9l-0.5,0.5c-0.3,0.3-0.5,0.6-0.5,0.7c0,0.1,0.2,0.2,0.5,0.3c0.3,0.1,0.5,0.1,0.5,0.2c0,0.1,0,0.1,0.1,0.1
				c0.2,0,0.4,0.2,0.6,0.5c0.2,0.3,0.3,0.7,0.3,1.2c0,0.4,0.1,0.6,0.1,0.6c0,0.2-0.1,0.4-0.2,0.5c-0.2,0.1-0.2,0.2-0.1,0.3
				c0.1,0.1,0.2,0.3,0.2,0.7c0,0.3-0.1,0.5-0.2,0.5c-0.1,0-0.2,0,0,0.1c0.1,0.1,0.2,0.2,0.2,0.4c0,0.2-0.1,0.4-0.2,0.5
				c-0.1,0.1-0.1,0.3,0.1,0.4c0.1,0.1,0.2,0.3,0.2,0.4c0,0.1-0.1,0.3-0.2,0.4c-0.2,0.2-0.3,0.7-0.3,1.6c0,0.7,0,1.1-0.1,1.2
				s-0.1,0.2-0.3,0.3c-0.2,0.1-0.3,0.1-0.3,0.2c0,0.1-0.3,0.1-0.8,0.1c-0.4,0-0.6,0.1-0.7,0.1c-0.1,0.1-0.1,0.2-0.1,0.5
				c0,0.2,0.2,0.5,0.6,0.8c0.2,0.1,0.3,0.2,0.5,0.2c0.2,0,0.3-0.1,0.3-0.2c0.1-0.1,0.8-0.2,2.1-0.2c1.3,0,2.1-0.1,2.2-0.3
				c0.1-0.1,0.2-0.2,0.3-0.2c0.1,0,0.2-0.1,0.2-0.2c0-0.1-0.1-0.2-0.4-0.2c-0.3,0-0.4-0.1-0.5-0.3c0-0.2-0.2-0.3-0.5-0.4
				c-0.4-0.1-0.5-0.2-0.5-0.4c0-0.1,0-0.2,0.1-0.3c0.2-0.2,0.2-0.3,0.1-0.4c-0.1,0-0.2-0.6-0.2-1.6c0-0.3,0-0.6,0-1
				c0-0.3,0-0.4,0.1-0.5c0-0.1,0.1-0.1,0.2-0.1c0.5,0,1,0.2,1.5,0.5c0.5,0.4,0.8,0.7,0.8,1c0,0.2,0.1,0.3,0.2,0.3s0.2,0.1,0.2,0.4
				c0,0.5,0.3,0.8,0.8,1c0.2,0.1,0.4,0.3,0.5,0.7c0.1,0.4,0.3,0.8,0.7,1.2l0.6,0.7l0.9-0.1c0.1,0,0.3,0,0.6-0.1c0.3,0,0.6,0,0.8-0.1
				c0.2,0,0.4-0.1,0.7-0.1s0.4-0.1,0.6-0.2c0.1-0.1,0.2-0.2,0.2-0.3C172,790.5,172,790.5,171.9,790.5z M166.2,783.7
				c-0.1,0-0.2,0-0.2,0.1c-0.1,0-0.1,0,0,0.1c0.2,0,0.2,0.1,0.2,0.2c0,0.1-0.1,0.3-0.4,0.4c-0.2,0.2-0.5,0.3-0.7,0.3
				c-0.3,0-0.6,0.1-1.1,0.2c-0.1,0-0.2,0-0.3,0c-0.2,0-0.4-0.1-0.7-0.3c-0.2-0.2-0.3-0.3-0.4-0.3c0-0.1,0-0.1,0.1-0.2
				c0.1-0.1,0.2-0.7,0.2-1.6v-1.2c0-0.3,0.1-0.5,0.2-0.7c0.1-0.2,0.3-0.4,0.4-0.4h0.1l0.4,0.1c0.3,0,0.5,0.1,0.8,0.1
				c0.2,0.1,0.4,0.1,0.4,0.1c0,0.1,0.1,0.1,0.4,0.2c0.3,0.1,0.4,0.2,0.4,0.3c0,0.1,0.1,0.3,0.2,0.4c0.1,0.1,0.2,0.2,0.1,0.3
				c-0.1,0.1-0.1,0.3,0.1,0.6c0.1,0.2,0.2,0.5,0.2,0.8v0.1c0,0.2-0.1,0.4-0.1,0.4S166.4,783.7,166.2,783.7z"/>
			<path d="M160.3,777.3c0.2,0,0.3-0.1,0.3-0.2c0-0.1-0.1-0.1-0.3-0.1s-0.3,0-0.3,0.1C160,777.3,160.1,777.3,160.3,777.3z"/>
			<path d="M164.9,778.2C164.9,778.2,164.9,778.1,164.9,778.2c0.1-0.1,0.2-0.1,0.1-0.1c0,0-0.1,0-0.3,0c-0.2,0-0.3,0.1-0.3,0.2
				C164.6,778.3,164.7,778.3,164.9,778.2z"/>
			<path d="M203.3,783.5c-0.2-0.1-0.2-0.2-0.2-0.5c0-0.3,0-0.5-0.1-0.5c-0.1,0-0.1-0.1-0.1-0.4c0-0.3-0.1-0.4-0.2-0.4
				c-0.1,0-0.2-0.1-0.3-0.3c-0.1-0.2-0.2-0.3-0.3-0.4c-0.1-0.1-0.2-0.2-0.2-0.4c0-0.2-0.1-0.3-0.4-0.3c-0.7,0-1-0.1-1-0.4
				c0-0.1-0.1-0.2-0.2-0.2c-0.1,0-0.2,0-0.2-0.1c0-0.1-0.1-0.1-0.3-0.1c-0.2,0-0.3-0.1-0.4-0.2c0-0.1-0.5-0.2-1.5-0.2
				c-0.9,0-1.5,0.1-1.6,0.2c-0.1,0.1-0.2,0.2-0.4,0.2c-0.2,0-0.3,0.1-0.4,0.3c-0.1,0.2-0.3,0.4-0.6,0.4c-0.3,0-0.6,0.1-1.1,0.2
				c-0.5,0.1-0.7,0.3-0.8,0.5c0,0.2-0.2,0.4-0.5,0.7c-0.3,0.3-0.4,0.5-0.4,0.5c0,0.1-0.1,0.1-0.2,0.1c-0.1,0-0.2,0.1-0.3,0.4
				c-0.1,0.2-0.2,0.4-0.3,0.7c-0.2,0.3-0.2,0.8-0.2,1.8c0,1.2,0.1,2.1,0.4,2.9c0.5,1.4,0.9,2.2,1.2,2.3c0.2,0,0.3,0.1,0.3,0.3
				c0,0.2,0.2,0.2,0.4,0.2c0.2,0,0.4,0,0.4,0.1c0,0.1,0.1,0.1,0.3,0.1s0.3,0.1,0.3,0.4c0,0.2,0,0.3,0.1,0.4c0.1,0.1,0.2,0,0.4-0.1
				c0.1-0.1,0.2-0.1,0.3,0c0.2,0.1,0.9,0.2,2.2,0.2c1.1,0,1.7-0.1,1.7-0.2c0-0.1,0.3-0.2,0.7-0.2c0.4,0,0.6-0.1,0.6-0.2
				c0-0.2,0.1-0.3,0.2-0.3c0,0,0.2-0.1,0.4-0.3c0.3-0.2,0.4-0.3,0.5-0.3c0.1,0,0.2-0.1,0.2-0.3c0.1-0.2,0.2-0.3,0.3-0.3
				c0.1,0,0.2-0.1,0.3-0.3c0-0.2,0.2-0.3,0.4-0.3c0.2-0.1,0.3-0.1,0.3-0.2c0-0.1,0.1-0.1,0.2-0.1c0.1,0,0.2-0.2,0.2-0.6
				c0-0.3,0-0.5-0.1-0.5c-0.1,0-0.1-0.1,0-0.2c0.1-0.1,0.2-0.8,0.2-2.1c0-0.3,0-0.7,0-1.1C203.6,783.8,203.5,783.5,203.3,783.5z
				 M201.1,786.6c-0.1,0-0.2,0.2-0.2,0.4c0,0.3-0.1,0.4-0.2,0.5c-0.1,0.1-0.2,0.4-0.3,0.8c-0.1,0.4-0.1,0.6-0.3,0.6
				c-0.1,0-0.2,0-0.2,0.1c0,0.1-0.1,0.2-0.4,0.2c-0.3,0.1-0.4,0.2-0.4,0.3c0,0.1,0,0.2-0.1,0.2c-0.1,0.1-0.2,0.1-0.4,0.2
				c-0.1,0.1-0.2,0.1-0.3,0.1c0,0.1-0.2,0.1-0.4,0.1c-0.2,0-0.3,0.1-0.5,0.2c-0.1,0.1-0.2,0.1-0.4,0.1c-0.2,0-0.4,0-0.7-0.1
				c-0.5-0.1-1-0.3-1.3-0.6c-0.3-0.3-0.7-0.8-1-1.5c-0.3-0.5-0.4-0.9-0.5-1.1c0-0.2-0.1-0.7-0.1-1.4c0-0.7,0-1.1,0.1-1.4
				c0-0.2,0.1-0.5,0.3-0.8c0.3-0.5,0.6-0.9,1-1.3c0.4-0.4,0.8-0.6,1-0.7c0.3,0,0.5-0.1,0.5-0.3c0-0.1,0.1-0.2,0.2-0.2
				c0.1,0,0.2,0,0.2-0.1c0-0.1,0.1-0.1,0.3-0.1c0.2,0,0.3,0,0.3,0.1c0,0.1,0.3,0.1,0.9,0.1c0.5,0,0.8,0.1,0.8,0.2
				c0,0.1,0.1,0.2,0.3,0.3c0.2,0.1,0.3,0.2,0.3,0.3s0.1,0.2,0.3,0.3c0.3,0.1,0.5,0.4,0.5,0.8c0,0.2,0.1,0.5,0.3,0.8
				c0.2,0.3,0.3,0.7,0.3,1.1c0,0.5,0,0.7,0.1,0.8c0.1,0.1,0.1,0.2,0.1,0.4C201.3,786.4,201.3,786.5,201.1,786.6z"/>
			<path d="M221.1,781.7c0-0.3-0.1-0.5-0.2-0.6c-0.1-0.1-0.1-0.2,0-0.4c0.1-0.1,0.1-0.2,0.1-0.2c0-0.1-0.1-0.2-0.2-0.2
				c-0.1-0.1-0.2-0.2-0.2-0.3c0-0.2-0.1-0.3-0.3-0.5c-0.2-0.2-0.4-0.3-0.5-0.3c-0.1,0-0.2,0-0.2,0.1c0,0.1-0.3,0.1-0.9,0.2
				c-0.5,0.1-1.1,0.1-1.7,0.1c-0.6,0-0.9,0-1,0.1c-0.1,0-0.5,0.1-1.4,0.1c-0.9,0.1-1.8,0.2-2.7,0.3c-0.9,0.1-1.4,0.2-1.4,0.2
				c0,0,0,0.1,0,0.2c0,0.1,0,0.2,0.1,0.3c0.1,0.2,0.1,0.3,0.2,0.4c0.1,0,0.3,0.1,0.6,0.1c0.5,0,0.9,0.1,1,0.3
				c0.1,0.2,0.2,0.7,0.2,1.6c0,0.9-0.1,1.4-0.2,1.5c-0.1,0.1-0.1,0.2,0,0.4c0.1,0.3,0.2,0.5,0,0.7c-0.1,0.2-0.2,0.3-0.3,0.3
				c-0.1,0,0,0.1,0.1,0.2c0.1,0.1,0.1,0.3,0.1,0.6c0,0.1,0,0.4-0.1,0.8c-0.1,1.4-0.2,2.3-0.2,2.6c-0.1,0.4-0.1,0.5-0.3,0.6
				c-0.2,0.1-0.5,0.3-0.8,0.6l-0.5,0.6h5v-0.5c0-0.2,0-0.4-0.1-0.4c0-0.1-0.1-0.1-0.3-0.1c-0.2,0-0.4,0-0.4-0.1
				c0-0.1-0.1-0.1-0.2-0.1s-0.2-0.1-0.3-0.3c0-0.1,0-0.4,0-1.2c0-1.2,0-2.1,0.1-2.8c0-0.1,0.5-0.1,1.4-0.1c0.8,0,1.3,0.1,1.5,0.2
				c0.3,0.1,0.4,0.4,0.4,0.9c0,0.3,0,0.5,0.1,0.5c0.1,0,0.1-0.1,0.3-0.2c0.1-0.1,0.3-0.2,0.5-0.1c0.2,0.1,0.3,0,0.3-0.2
				c0-0.2,0-0.3,0.1-0.4c0.1-0.1,0.1-0.2,0-0.2c-0.1-0.1-0.2-0.3-0.2-0.6c0-0.4,0.1-0.7,0.2-0.8c0.1-0.1,0.1-0.1,0.1-0.2
				c0-0.1,0-0.1-0.1-0.2c-0.1-0.1-0.1-0.2-0.1-0.2c0-0.1,0-0.1,0.1-0.2c0.2-0.1,0.2-0.2,0.2-0.4c0-0.3-0.4-0.4-1.1-0.4
				c-0.4,0-0.6,0.2-0.6,0.5c0,0.1,0,0.2,0.1,0.3c0.1,0.2,0,0.4,0,0.5c-0.1,0.1-0.4,0.2-1,0.3c-0.6,0.1-1.1,0.2-1.6,0.2h-0.5v-0.6
				c0-0.4,0.1-0.6,0.2-0.7c0.1-0.1,0.2-0.2,0.2-0.4c0-0.3-0.1-0.5-0.2-0.8c-0.1-0.2-0.2-0.4-0.2-0.4c0-0.1,0.1-0.1,0.2-0.3
				c0.2-0.2,0.3-0.4,0.2-0.6c0-0.1,0-0.1,0-0.2c0-0.1,0.1-0.2,0.4-0.3c0.3-0.1,0.8-0.1,1.6-0.1c0.7,0,1.1-0.1,1.1-0.1
				c0.3,0,0.5,0.1,0.7,0.2c0.2,0.2,0.3,0.3,0.5,0.4c0.2,0.1,0.3,0.2,0.3,0.3c0,0.1,0.1,0.3,0.3,0.4c0.2,0.1,0.4,0.3,0.5,0.6
				c0.1,0.4,0.4,0.5,0.8,0.5c0.1,0,0.2,0,0.3-0.1c0.1-0.1,0.2-0.2,0.2-0.6c0-0.3-0.1-0.5-0.2-0.5C221.2,782.2,221.1,782,221.1,781.7
				z"/>
			<path d="M247,778.4C247,778.4,247,778.4,247,778.4c0.1-0.1,0.2-0.1,0.1-0.1c0,0-0.1,0-0.3,0c-0.2,0-0.3,0.1-0.3,0.2
				C246.6,778.5,246.8,778.5,247,778.4z"/>
			<path d="M250.3,780.2c-0.1,0-0.2,0-0.2-0.1c0-0.1-0.1-0.2-0.4-0.3c-0.3-0.1-0.4-0.3-0.5-0.5l-0.2-0.3c-0.1-0.1-0.2-0.1-0.2,0.1
				c0,0.1-0.3,0.1-0.8,0.1c-0.6,0-0.9,0-0.9-0.1c0-0.1-0.1-0.1-0.3-0.1c-0.5,0-0.8-0.1-0.8-0.4c0-0.1-0.1-0.2-0.3-0.2
				s-0.3,0.1-0.2,0.3c0,0,0,0,0,0.1c0,0,0,0,0,0.1c0,0.1-0.6,0.2-1.8,0.2H242l-0.5,0.5c-0.3,0.3-0.5,0.5-0.5,0.7
				c0,0.2,0.2,0.4,0.7,0.4c0.2,0,0.3,0,0.3,0.1c0,0.1,0,0.1,0.1,0.1c0.2,0,0.4,0.2,0.6,0.5c0.2,0.3,0.3,0.7,0.3,1.2
				c0,0.4,0.1,0.6,0.1,0.6c0,0.2-0.1,0.4-0.2,0.5c-0.2,0.1-0.2,0.2-0.1,0.3c0.1,0.1,0.2,0.3,0.2,0.7c0,0.3-0.1,0.5-0.2,0.5
				c-0.2,0-0.2,0,0,0.1c0.1,0.1,0.1,0.3,0,0.6c-0.1,0.3-0.1,0.5,0.1,0.6c0.1,0.1,0.1,0.2,0.1,0.3c0,0.2-0.1,0.4-0.2,0.5
				c-0.1,0.1-0.1,0.6-0.2,1.6l0,1.5l-0.4,0.2c-0.2,0.1-0.5,0.2-1.1,0.2c-0.3,0-0.5,0.1-0.5,0.1s-0.1,0.2-0.1,0.4
				c0,0.2,0.2,0.5,0.6,0.8c0.2,0.1,0.3,0.2,0.5,0.2c0.2,0,0.3-0.1,0.3-0.2c0.1-0.1,0.8-0.2,2.1-0.2c1.4-0.1,2.1-0.1,2.2-0.3
				c0.1-0.1,0.2-0.2,0.3-0.2c0.1,0,0.2-0.1,0.2-0.2c0-0.1-0.1-0.2-0.4-0.2c-0.3,0-0.4-0.1-0.5-0.3c0-0.2-0.2-0.3-0.5-0.4
				c-0.4-0.1-0.5-0.2-0.5-0.4c0-0.1,0-0.2,0.1-0.3c0.2-0.2,0.2-0.3,0.1-0.4c-0.1,0-0.2-0.6-0.2-1.6c0-0.3,0-0.6,0-1
				c0-0.3,0-0.4,0.1-0.5c0-0.1,0.1-0.1,0.2-0.1c0.2,0,0.5,0,0.8,0.1c0.3,0.1,0.5,0.2,0.6,0.3c0.1,0.1,0.7,0.2,1.7,0.2
				c0.8,0,1.2,0,1.2-0.1c0.1-0.1,0-0.2-0.2-0.3c-0.2-0.1-0.4-0.2-0.5-0.4c-0.1-0.1-0.2-0.2-0.2-0.2s0.1-0.1,0.3-0.1
				c0.3-0.1,0.4-0.1,0.4-0.2c0-0.1,0.1-0.2,0.4-0.3c0.3-0.1,0.4-0.2,0.4-0.4c0-0.5,0.1-0.7,0.3-0.7c0.1,0,0.2-0.1,0.4-0.2
				c0.2-0.2,0.2-0.7,0.2-1.5c0-1-0.1-1.5-0.3-1.7C250.5,780.3,250.4,780.2,250.3,780.2z M248.7,783.9c0,0-0.1,0.1-0.4,0.1h-0.1
				c0,0-0.1,0-0.1,0c-0.1,0-0.1,0,0,0.1c0.1,0.1,0.2,0.1,0.2,0.2c0,0.1-0.1,0.3-0.3,0.5c-0.2,0.2-0.5,0.3-0.7,0.3
				c-0.3,0-0.6,0.1-1.1,0.2c-0.1,0-0.2,0-0.3,0c-0.2,0-0.4-0.1-0.7-0.3c-0.2-0.2-0.3-0.3-0.4-0.3c0-0.1,0-0.1,0.1-0.2
				c0.1-0.1,0.2-0.7,0.2-1.6v-1.2c0-0.3,0.1-0.5,0.2-0.7c0.1-0.2,0.3-0.4,0.4-0.4h0.1l0.4,0.1c0.3,0,0.5,0.1,0.8,0.1
				c0.2,0.1,0.4,0.1,0.4,0.1c0,0.1,0.1,0.1,0.4,0.2c0.3,0.1,0.4,0.2,0.4,0.3c0,0.1,0.1,0.3,0.2,0.4c0.1,0.1,0.2,0.2,0.1,0.3
				c-0.1,0.1-0.1,0.3,0.1,0.6c0.1,0.2,0.2,0.4,0.2,0.6C248.8,783.1,248.8,783.3,248.7,783.9z"/>
			<path d="M242.3,777.6c0.2,0,0.3-0.1,0.3-0.2c0-0.1-0.1-0.1-0.3-0.1c-0.2,0-0.3,0-0.3,0.1C242.1,777.5,242.2,777.6,242.3,777.6z"
				/>
			<path d="M268.1,788c-0.1,0-0.3,0.2-0.5,0.5c-0.3,0.3-0.4,0.5-0.4,0.7c0,0.1-0.1,0.2-0.4,0.2c-0.1,0-0.2,0-0.3,0.1
				c0,0-0.1,0.1-0.1,0.1c0,0,0,0.1,0,0.3c0,0.2-0.1,0.3-0.4,0.3c0,0-0.1,0-0.1,0c-0.1,0-0.1,0-0.2,0c-0.2,0-0.4,0.1-0.6,0.3
				c-0.2,0.2-0.4,0.3-0.6,0.3c-0.1,0-0.2-0.1-0.2-0.2c0-0.1-0.1-0.1-0.4,0c-0.2,0.1-0.6,0.2-1.2,0.2c-0.5,0-0.7,0-0.7-0.1
				s-0.1-0.1-0.2-0.1c-0.1,0-0.1-0.1-0.2-0.2c-0.1-0.2-0.1-0.3-0.1-0.4c0-0.1,0-0.2,0-0.3c0-0.2,0-0.4,0-0.6c0-0.3,0-0.5,0-0.8
				c0-0.3,0-0.5,0-0.8c0-0.3,0-0.5,0-0.6v-0.2c0-0.1,0.4-0.1,1.3-0.1c0.7,0,1.2,0.1,1.4,0.2c0.2,0.1,0.4,0.4,0.4,0.8
				c0,0.2,0,0.3,0.1,0.3c0,0,0.1,0,0.2,0c0.1-0.1,0.3-0.1,0.5-0.1c0.1,0,0.2,0,0.3-0.1c0-0.1,0.1-0.2,0.1-0.5c0-0.1,0-0.2,0-0.3
				c0-0.2,0-0.3,0-0.4V786c0-0.3,0-0.6,0.1-0.7c0.1-0.1,0.1-0.3,0-0.4c-0.1-0.1-0.1-0.3,0.1-0.4c0.1-0.1,0.2-0.2,0.2-0.4
				c0-0.3-0.3-0.4-1-0.4c-0.4,0-0.6,0.2-0.6,0.5c0,0.1,0,0.2,0.1,0.3c0,0.2,0,0.4,0,0.5s-0.3,0.2-0.9,0.3c-0.5,0.1-1,0.1-1.5,0.1
				h-0.6V785c0-0.4,0.1-0.6,0.2-0.6c0.1,0,0.2-0.1,0.2-0.4c0-0.3-0.1-0.5-0.2-0.9c-0.1-0.2-0.2-0.4-0.1-0.4c0-0.1,0.1-0.1,0.2-0.3
				c0.2-0.1,0.3-0.3,0.2-0.5c0,0,0-0.1,0-0.2c0-0.1,0.1-0.3,0.4-0.3c0.3-0.1,0.7-0.1,1.5-0.2c0.7,0,1.1-0.1,1.1-0.1
				c0.3,0,0.5,0.1,0.6,0.2c0.1,0.2,0.3,0.3,0.5,0.4c0.2,0.1,0.3,0.2,0.3,0.3c0,0.1,0.1,0.2,0.3,0.3c0.2,0.1,0.3,0.2,0.3,0.3
				c0,0.2,0.1,0.3,0.3,0.5c0.2,0.2,0.4,0.2,0.6,0.2h0c0.3,0,0.4-0.2,0.4-0.6c0-0.2-0.1-0.3-0.2-0.5c-0.1-0.1-0.2-0.3-0.2-0.5
				c0-0.3-0.1-0.5-0.2-0.5c-0.1,0-0.1-0.1,0-0.4c0.1-0.1,0.1-0.2,0.1-0.3c0,0-0.1-0.1-0.1-0.1c-0.1-0.1-0.2-0.2-0.2-0.3
				c0-0.1-0.1-0.3-0.3-0.5c-0.2-0.2-0.4-0.3-0.6-0.1c-0.3,0.1-1.8,0.3-4.7,0.4h-0.7c-1.5,0-2.2-0.1-2.3-0.3c0-0.1-0.1-0.1-0.2-0.1
				c-0.1,0-0.2,0-0.2,0.1l0,0.1c0,0.1,0,0.1,0,0.1c0,0,0,0.1,0,0.2c0,0.1,0,0.2,0,0.2c0,0.2-0.1,0.3-0.3,0.3
				c-0.2,0.1-0.3,0.2-0.2,0.5c0.1,0.2,0.1,0.4,0.2,0.5s0.2,0.1,0.3,0.1c0.1,0,0.3,0,0.4,0c0.1,0,0.2,0,0.4,0c0.3,0,0.5,0.1,0.6,0.4
				c0.1,0.2,0.1,0.7,0.1,1.4c0,0.9-0.1,1.4-0.2,1.4c-0.1,0-0.1,0.2,0,0.4c0.1,0.2,0.1,0.4,0,0.6c-0.1,0.2-0.2,0.3-0.3,0.3
				c-0.1,0-0.1,0.1,0.1,0.2c0.1,0.1,0.1,0.3,0.1,0.6c0,0.5-0.1,1.5-0.2,2.8l-0.1,0.9H259c-0.4,0-0.6,0.1-0.6,0.3
				c0,0.2-0.1,0.3-0.3,0.3c-0.1,0-0.2,0.1-0.2,0.3c0,0.3,0.1,0.5,0.3,0.6c0.2,0.1,0.3,0.2,0.3,0.4c0,0.1,0.2,0.1,0.7,0.1
				c0.5,0,0.8-0.1,0.9-0.3c0.1-0.1,0.5-0.2,1.2-0.2c0.5,0,0.9,0,1.3,0c0.7,0,1.1,0.1,1.2,0.2c0,0.1,0.2,0.1,0.4,0
				c0.2-0.1,0.7-0.2,1.5-0.2c0.8,0,1.3,0,1.5-0.1c0.2,0,0.3-0.1,0.5-0.3c0.2-0.2,0.3-0.3,0.2-0.5c0-0.2,0-0.3,0.1-0.4
				c0.1-0.1,0.2-0.3,0.2-0.8c0-0.3,0-0.5,0-0.6c0-0.1,0.1-0.1,0.2-0.1c0.2,0,0.3-0.2,0.3-0.5c0-0.2-0.1-0.4-0.2-0.6
				C268.4,788.1,268.3,788,268.1,788z"/>
			<path d="M258,789.9c0,0,0.1,0,0.1-0.1c0.1-0.2,0.1-0.3,0-0.3c-0.1,0-0.2,0.1-0.2,0.2C257.8,789.8,257.9,789.9,258,789.9z"/>
			<path d="M288.7,779.8c-0.1,0-0.2,0-0.3,0.1c-0.2,0.1-0.3,0.1-0.3,0.1c-0.1,0-0.1-0.1-0.2-0.2c-0.1-0.2-0.3-0.3-0.4-0.3
				c-0.1,0-0.2-0.1-0.2-0.3c0-0.2-0.1-0.3-0.3-0.3c-0.2,0-0.3,0.1-0.3,0.3c0,0.2,0.1,0.3,0.2,0.3s0.2,0.1,0.2,0.3
				c0,0.2-0.1,0.3-0.2,0.3c-0.2,0-0.3-0.1-0.3-0.4c-0.1-0.2-0.2-0.4-0.3-0.4c-0.1,0-0.1,0-0.2,0.1c-0.2,0.2-0.2,0.3,0,0.3
				c0.1,0,0.2,0.1,0.2,0.1c0,0.1-0.1,0.2-0.4,0.2c-0.2,0-0.4,0-0.4-0.1c0-0.1-0.1-0.1-0.4-0.1c-0.4,0-0.8,0.1-1.1,0.2
				c-0.4,0.2-0.6,0.4-0.6,0.7c0,0.3,0.3,0.5,0.8,0.6c0.4,0.1,0.6,0.1,0.6,0.2c0,0.1,0.1,0.1,0.3,0.1c0.3,0,0.5,0.2,0.6,0.6
				c0.1,0.4,0.2,1.2,0.2,2.4c0,1.4,0.1,2.2,0.1,2.4c0.1,0.1,0,0.3,0,0.6l-0.1,0.4l-0.5-0.5c-0.4-0.3-0.5-0.5-0.5-0.6
				c0-0.1-0.1-0.2-0.2-0.3c-0.1-0.1-0.3-0.2-0.4-0.4c-0.2-0.1-0.3-0.2-0.3-0.2c-0.1-0.1-0.3-0.2-0.3-0.2c-0.1,0-0.2-0.1-0.2-0.2
				c0-0.1-0.1-0.2-0.2-0.3c-0.1-0.1-0.3-0.2-0.4-0.2s-0.1-0.1-0.1-0.2c0-0.1-0.1-0.2-0.2-0.2c-0.1,0-0.1,0-0.1-0.1
				c0-0.1-0.1-0.2-0.4-0.5c-0.2-0.3-0.4-0.4-0.4-0.5c0-0.1-0.1-0.2-0.3-0.2c-0.2,0-0.3-0.1-0.5-0.2c-0.2-0.1-0.2-0.3-0.2-0.4
				c0-0.1-0.2-0.3-0.5-0.7c-0.3-0.4-0.5-0.6-0.5-0.7c0-0.1-0.1-0.2-0.3-0.4c-0.2-0.2-0.3-0.4-0.3-0.4c0-0.3-0.6-0.5-1.8-0.6
				c-0.6,0-0.9-0.1-0.9-0.1c-0.3,0-0.4,0.1-0.4,0.2c0,0.1,0,0.2,0,0.4c0,0.2,0,0.4,0.1,0.6c0.1,0.2,0.1,0.3,0.2,0.3
				c0.1,0,0.2,0.2,0.3,0.6c0.1,0.4,0.2,0.6,0.2,0.6c0.1,0,0.1,0.3,0.1,0.8c0,0.5,0,0.8-0.1,0.8c-0.1,0-0.1,0.1-0.1,0.4
				c0,0.2,0.1,0.6,0.2,1c0.1,0.2,0.1,0.6,0.1,1.1c0,0.7-0.1,1.1-0.2,1.1c-0.1,0-0.1,0.2-0.1,0.7c0,0.5,0,1.1-0.1,1.5
				c0,0.4-0.1,0.6-0.1,0.7c-0.1,0.1-0.2,0.2-0.4,0.2c-0.3,0.1-0.4,0.2-0.4,0.4c0,0.2,0.1,0.4,0.4,0.6c0.2,0.2,0.3,0.3,0.5,0.3
				c0.2,0,0.8,0,1.7,0c1,0,1.6,0,1.8-0.1c0.2-0.1,0.3-0.3,0.3-0.8c0-0.3-0.1-0.4-0.3-0.5c-0.2-0.1-0.3-0.1-0.3-0.2
				c0-0.1-0.2-0.1-0.6-0.1c-0.4,0-0.7-0.1-0.9-0.3c-0.2-0.2-0.2-0.3-0.1-0.4c0.1-0.1,0.2-0.2,0.2-0.6c0-0.3,0-0.5-0.1-0.5
				c-0.1-0.1-0.1-0.9-0.1-2.6c0-1.7,0.1-2.5,0.2-2.5c0.1,0,0.3,0.1,0.4,0.2c0.1,0.1,0.3,0.2,0.5,0.3c0.3,0.1,0.4,0.3,0.5,0.4
				c0,0.2,0.3,0.5,0.8,1.1c0.5,0.5,0.9,0.9,1.3,1.1c0.2,0.1,0.3,0.2,0.3,0.3c0,0.1,0.2,0.2,0.5,0.6c0.7,0.7,1.1,1.1,1.1,1.4
				c0,0.1,0.1,0.1,0.3,0.1c0.2,0,0.3,0,0.3,0.1c0,0.1,0.1,0.3,0.4,0.5c0.2,0.2,0.4,0.4,0.4,0.6c0,0.1,0.1,0.3,0.3,0.5
				c0.2,0.2,0.3,0.3,0.4,0.3c0.1,0,0.3,0.2,0.6,0.5c0.3,0.3,0.5,0.5,0.7,0.6c0.1,0.1,0.2,0.1,0.3,0.1c0.4,0,0.6-0.2,0.6-0.6
				c0-0.1,0-0.2,0-0.4c0-0.9-0.1-1.4-0.2-1.6c-0.1-0.1-0.1-0.5-0.1-1.3v-0.4c0-1,0-1.6-0.1-1.6c-0.1-0.1-0.2-0.4-0.2-1
				c0-0.5,0-0.8,0.1-0.8c0.1-0.1,0.2-0.2,0.2-0.5c0-0.3,0-0.4,0.1-0.4c0.1,0,0.1-0.1,0.1-0.4c0-0.3,0-0.4-0.1-0.4
				c-0.1,0-0.1-0.1-0.1-0.4c0-0.4,0.1-0.7,0.2-1c0.2-0.3,0.4-0.5,0.7-0.5c0.2,0,0.4-0.1,0.4-0.1c0.1,0,0.1-0.2,0.1-0.5v-0.2
				C289.1,780,288.9,779.8,288.7,779.8z"/>
			<path d="M308.4,781.9c0.1,0,0.2-0.2,0.2-0.5c0-0.3-0.1-0.4-0.2-0.4c-0.1,0-0.1-0.1-0.1-0.3c0-0.2,0.1-0.4,0.2-0.7
				c0.1-0.3,0-0.5-0.2-0.7c-0.2-0.2-0.5-0.3-0.9-0.3c-0.4,0-0.8,0.1-1.1,0.4c-0.3,0.2-0.5,0.3-0.6,0.2c-0.1-0.1-0.1-0.1-0.3-0.1
				c-0.1,0-0.2,0-0.6,0.1c-0.4,0.1-1.3,0.2-2.7,0.2c-1,0-1.5,0-1.6-0.1c-0.1-0.1-0.2,0-0.4,0.2c-0.1,0.1-0.3,0.2-0.4,0.2
				c-0.1,0-0.3,0-0.8-0.1c-0.8-0.2-1.2-0.3-1.3-0.3c0,0-0.1,0-0.3,0.1c-0.1,0-0.3,0.1-0.4,0.3c-0.1,0.2-0.2,0.4-0.2,0.5
				c0,0,0,0.1,0.1,0.2c0.1,0.1,0.1,0.2,0.2,0.5c0,0.1,0,0.2-0.1,0.3c-0.1,0-0.2,0.1-0.4,0.1c-0.1,0-0.3,0-0.4,0.1
				c-0.1,0.1-0.2,0.2-0.2,0.2c0,0.1,0,0.1,0.1,0.2c0.1,0.1,0.1,0.3,0.1,0.7c0,0.3-0.1,0.5-0.1,0.5c0,0.5,0.2,0.8,0.6,0.8
				c0.3,0,0.4-0.1,0.4-0.2c0-0.1,0.1-0.2,0.2-0.2c0.3,0,0.3-0.2,0-0.5c-0.1-0.1-0.2-0.2-0.2-0.3c0,0,0.1-0.1,0.3-0.1
				c0.2-0.1,0.3-0.2,0.2-0.4c-0.1-0.2,0-0.4,0-0.6c0.1-0.1,0.1-0.3,0-0.6c-0.1-0.3-0.1-0.4,0-0.4c0.1,0,0.1,0.1,0.1,0.2
				s0.2,0.3,0.6,0.4c0.4,0.1,0.8,0.2,1.1,0.2c0.4,0,0.7,0.1,0.9,0.3c0.2,0.2,0.4,0.2,0.5,0.2c0.1,0,0.2,0,0.2,0c0,0,0,0.1-0.1,0.1
				c-0.3,0.4-0.4,2.4-0.5,6.1c0,0.8-0.1,1.2-0.3,1.4c-0.2,0.2-0.3,0.3-0.3,0.5c0,0.1-0.3,0.2-0.8,0.2l-0.8,0.1l-0.1,0.6
				c0,0,0,0.1,0,0.1c0,0.1,0,0.1,0,0.1c0,0.2,0.2,0.5,0.5,0.8c0.3,0.3,0.6,0.4,0.7,0.4c0.1,0,0.2,0,0.2-0.1c0-0.1-0.1-0.1-0.2-0.1
				c-0.1,0-0.1,0-0.1-0.1c0-0.1,0.2-0.1,0.5-0.1c0.1,0,0.4,0,0.9,0c0.4,0,0.8,0,1,0c0.5,0,0.9,0,1-0.1c0.1-0.1,0.3-0.2,0.6-0.1
				c0.2,0,0.3,0,0.4-0.1c0.1-0.1,0.2-0.1,0.3-0.1c0.1,0,0.3-0.1,0.5-0.3c0.1-0.1,0.2-0.2,0.2-0.3c0-0.1-0.1-0.2-0.2-0.5
				c-0.2-0.3-0.3-0.5-0.5-0.5c-0.1,0-0.2-0.1-0.2-0.2c0-0.1-0.1-0.2-0.3-0.1c0,0-0.1,0-0.1,0c-0.1,0-0.1,0-0.1,0
				c-0.1,0-0.2,0-0.3-0.1c0-0.1-0.1-0.3-0.1-0.5v-0.5c0-0.5,0-0.8,0-0.9c0-0.1,0.1-0.2,0.2-0.2c0.2,0,0.2-0.1,0.2-0.4
				c0-0.3-0.1-0.5-0.2-0.5c-0.1,0-0.2-0.4-0.2-1.1c0-0.8,0.1-1.3,0.2-1.4c0.1-0.1,0.2-0.6,0.2-1.2c0-0.7,0.1-1.1,0.1-1.2
				c0.1-0.2,0.5-0.2,1.2-0.2c1.1,0,1.7,0.1,1.8,0.4c0,0.1,0.1,0.2,0.4,0.5c0.2,0.2,0.3,0.5,0.4,0.8c0,0.3,0.1,0.5,0.1,0.5
				c0.1,0.1,0.2,0.1,0.4,0.1c0.3,0,0.4,0,0.4-0.1c0-0.1,0.1-0.2,0.3-0.3c0.2-0.1,0.3-0.2,0.3-0.4s-0.1-0.4-0.3-0.6
				C308.3,782,308.3,781.9,308.4,781.9z"/>
			<path d="M329.2,790.7c-0.1,0-0.1-0.1-0.2-0.4c-0.1-0.2-0.1-0.3-0.2-0.3c0,0-0.3,0.1-0.8,0.2c0,0-0.1,0-0.2,0
				c-0.4,0-0.7-0.6-1-1.7c-0.2-0.8-0.4-1.3-0.4-1.4c-0.1-0.1-0.2-0.3-0.2-0.5c-0.1-0.4-0.3-1.3-0.8-2.8c-0.5-1.5-0.7-2.4-0.8-2.7
				c-0.2-1-0.4-1.5-0.5-1.7c-0.1-0.2-0.2-0.3-0.4-0.3c-0.3-0.1-0.4,0-0.5,0.1c-0.1,0.1-0.2,0.2-0.4,0.2c-0.2,0-0.4,0.1-0.4,0.2
				c0,0.1-0.1,0.1-0.2,0.1c-0.1,0-0.2,0.2-0.4,0.6c-0.2,0.4-0.3,0.8-0.5,1.2s-0.2,0.6-0.3,0.7c-0.1,0.1-0.1,0.2-0.1,0.4
				c0,0.2-0.1,0.6-0.4,1.2c-0.3,0.6-0.5,1.1-0.5,1.5c-0.1,0.4-0.2,0.6-0.2,0.7c-0.1,0.1-0.2,0.3-0.4,0.8c-0.2,0.5-0.3,0.7-0.3,0.8
				c-0.1,0.2-0.2,0.4-0.2,0.5c0,0.2,0,0.2-0.1,0.2c-0.1,0-0.2,0.1-0.3,0.4c-0.1,0.2-0.2,0.4-0.2,0.6c0,0.1-0.2,0.3-0.5,0.6
				c-0.3,0.3-0.5,0.4-0.7,0.4c-0.2,0-0.3,0.1-0.5,0.4c-0.2,0.2-0.4,0.4-0.5,0.4c-0.1,0-0.2,0.1-0.4,0.4c-0.1,0.2-0.1,0.3-0.1,0.4
				c0,0.1,0.1,0.3,0.4,0.5l0.5,0.4l2-0.1c1.1,0,1.8-0.1,2.1-0.1c0.3,0,0.5-0.1,0.5-0.2c0,0,0-0.1-0.1-0.2c-0.1-0.2-0.1-0.3,0.1-0.3
				c0.1,0,0.2-0.1,0.2-0.2c0-0.1-0.1-0.2-0.2-0.2c-0.1,0-0.3-0.1-0.4-0.2c-0.1-0.1-0.4-0.2-0.7-0.3c-0.5-0.1-0.7-0.3-0.7-0.5
				c0-0.1,0-0.2,0.1-0.3c0.1-0.2,0.2-0.3,0.2-0.5c0-0.1,0-0.2,0.1-0.2c0.1,0,0.1-0.2,0.1-0.7v-0.7h0.6c0.4,0,0.7-0.1,0.7-0.2
				c0.1-0.2,0.6-0.2,1.5-0.2h0.4c0.7,0,1,0,1.1,0.1c0.1,0.1,0.2,0.4,0.2,0.8c0,0.5,0.1,0.8,0.3,0.9c0.2,0.2,0.3,0.4,0.3,0.6
				c0,0,0,0,0,0.1c0,0,0,0.1,0,0.1c0,0.3-0.1,0.4-0.1,0.5c-0.1,0.1-0.3,0.1-0.6,0.2c-0.5,0.1-0.7,0.2-0.8,0.3c0,0.1-0.1,0.1-0.3,0.1
				c-0.2,0-0.3,0.1-0.3,0.3c0,0.3,0,0.4,0.1,0.5c0.1,0.1,0.3,0.1,0.6,0.1c0.3,0,0.7,0,1.3-0.1c0.6-0.1,1.3-0.1,2-0.1
				c0.4,0,0.7,0,0.8,0c0.2,0,0.4,0,0.6,0c0.3,0,0.5-0.1,0.5-0.3c0.1-0.2,0.1-0.3,0.2-0.3c0.1,0,0.1-0.2,0.1-0.5
				S329.3,790.7,329.2,790.7z M323,786.2c0,0-0.1,0-0.2,0c-0.1,0-0.1,0-0.1,0c-0.3,0-0.5,0.1-0.6,0.2c-0.1,0.1-0.3,0.2-0.4,0.2
				c-0.2,0-0.3-0.1-0.4-0.2c-0.1-0.1-0.2-0.2-0.3-0.2c-0.1,0-0.2-0.1-0.2-0.2c0-0.1,0-0.2,0.1-0.2c0.1,0,0.2-0.1,0.3-0.4
				c0.1-0.3,0.2-0.5,0.2-0.7c0-0.2,0.1-0.3,0.2-0.4c0.1,0,0.2-0.3,0.2-0.8c0.1-0.6,0.3-0.9,0.6-0.9c0.2,0,0.3,0.1,0.5,0.2
				c0.1,0.1,0.2,0.2,0.4,0.5c0.1,0.3,0.2,0.4,0.2,0.5c0,0-0.1,0.1-0.3,0.1c-0.2,0-0.3,0.1-0.4,0.2c-0.1,0.1,0,0.2,0.1,0.2
				c0.1,0,0.2,0.1,0.2,0.2c0.1,0.1,0.2,0.3,0.2,0.4c0.1,0.2,0.1,0.2,0.2,0.3c0.1,0.1,0.1,0.3,0.2,0.6l0.1,0.5L323,786.2z"/>
			<path d="M346.6,781.1h-0.9c-0.5,0-0.8,0-1-0.1c-0.2-0.1-0.3-0.2-0.3-0.5c0-0.1,0-0.2-0.1-0.3c-0.1,0-0.1,0-0.2,0.1
				c-0.1,0.1-0.4,0.2-0.7,0.2c-0.1,0-0.2,0-0.2-0.1c0-0.1-0.2-0.1-0.7-0.1c-0.4,0-0.7,0.1-0.8,0.2c-0.1,0.1-0.2,0.2-0.4,0.2
				c-0.2,0-0.3,0-0.4,0c-0.1,0-0.1,0-0.2,0c-0.1,0-0.1,0-0.2,0c-0.3,0-0.5,0.1-0.7,0.4c-0.3,0.3-0.5,0.4-0.7,0.5
				c-0.1,0-0.3,0.2-0.5,0.5c-0.2,0.3-0.4,0.4-0.5,0.4c-0.4,0.1-0.7,0.4-0.7,0.9c0,0.2-0.1,0.4-0.2,0.6c-0.1,0.2-0.2,0.4-0.2,0.6
				c0,0.3,0,0.4-0.1,0.5c-0.1,0.1-0.2,0.2-0.2,0.4c0,0.2-0.1,0.3-0.2,0.4c-0.1,0.1-0.2,0.5-0.2,1.4c0,1,0.1,1.5,0.2,1.6
				c0.1,0,0.1,0.1,0.1,0.2c0,0.1,0,0.2-0.1,0.2c-0.1,0,0,0.2,0.2,0.4c0.3,0.2,0.4,0.4,0.5,0.4c0.1,0,0.1,0.1,0.2,0.3
				c0.1,0.2,0.2,0.4,0.6,0.7c0.3,0.3,0.6,0.5,0.8,0.6c0.2,0.1,0.2,0.1,0.2,0.2c0,0.1,0.3,0.2,0.9,0.3c0.6,0.1,1.3,0.1,2,0.1
				c1.1,0,1.7-0.1,1.9-0.3c0.1-0.1,0.4-0.3,0.8-0.3c0.3-0.1,0.6-0.2,0.8-0.5c0.3-0.4,0.5-0.7,0.7-0.8c0.3-0.3,0.4-0.5,0.4-0.6
				c0-0.1-0.1-0.2-0.3-0.3c-0.4-0.2-0.6-0.3-0.8-0.3c-0.1,0-0.2,0.1-0.3,0.3c-0.1,0.2-0.2,0.4-0.4,0.4c-0.2,0-0.4,0.1-0.6,0.4
				c-0.2,0.2-0.4,0.3-0.5,0.2c-0.1-0.1-0.2-0.1-0.4,0.1c-0.1,0.1-0.4,0.2-0.7,0.2c-0.1,0-0.4,0-0.8-0.1c-0.6,0-1.1-0.1-1.2-0.2
				c-0.2-0.1-0.3-0.3-0.3-0.5c0-0.2-0.2-0.5-0.6-0.9c-0.3-0.3-0.5-0.5-0.6-0.7c-0.1-0.2-0.2-0.5-0.3-0.9c-0.1-0.7-0.2-1-0.3-1
				c-0.1,0-0.1-0.1-0.1-0.2c0-0.1,0-0.2,0.1-0.2c0.2,0,0.3-0.7,0.3-1.9c0-0.2,0.1-0.2,0.3-0.2c0.2,0,0.3-0.1,0.2-0.3
				c0-0.1,0-0.2,0-0.3c0.1-0.1,0.2-0.1,0.4-0.2c0.3-0.1,0.5-0.3,0.5-0.4c0-0.1,0.1-0.3,0.3-0.4c0.2-0.1,0.4-0.2,0.7-0.2
				c0.2,0,0.3-0.1,0.3-0.2c0-0.1,0.2-0.2,0.7-0.2c0.1,0,0.2,0,0.4,0c0.5,0,0.9,0.2,1.1,0.5c0.2,0.2,0.4,0.3,0.6,0.4
				c0.3,0.1,0.4,0.2,0.4,0.4c-0.1,0.2,0,0.3,0.1,0.4c0.1,0.1,0.3,0.4,0.4,0.9c0.1,0.4,0.1,0.6,0.2,0.7c0.1,0.1,0.2,0.2,0.4,0.3
				c0.3,0.1,0.4,0.2,0.4,0.4c0,0.1,0.1,0.2,0.2,0.1c0.1-0.1,0.2-0.6,0.2-1.5c0-1,0.1-1.5,0.2-1.5c0.1-0.1,0.1-0.3,0-0.8L346.6,781.1
				z"/>
			<path d="M368.6,788.5c0,0-0.1,0-0.1,0c-0.1,0-0.1,0-0.1,0.1c-0.2,0-0.3,0.1-0.3,0.3c0,0.1,0.1,0.2,0.3,0.2c0.2,0,0.3-0.1,0.3-0.3
				C368.7,788.5,368.7,788.4,368.6,788.5L368.6,788.5z"/>
			<path d="M367.7,787.9c-0.1,0-0.2-0.1-0.2-0.3c-0.1-0.2-0.2-0.3-0.4-0.3c-0.2,0-0.4-0.1-0.4-0.4c0-0.1-0.1-0.2-0.2-0.3
				c-0.2-0.1-0.3-0.1-0.3,0.1c0,0.1-0.1,0.2-0.4,0.3c-0.2,0.1-0.3,0.2-0.1,0.3c0.1,0.1,0.2,0.3,0.2,0.6c0,0.3,0,0.4-0.1,0.4
				c-0.1,0-0.3,0.2-0.6,0.5c-0.6,0.6-1.1,0.9-1.5,0.9c-0.2,0-0.4,0.1-0.7,0.2c-0.3,0.1-0.7,0.2-1.2,0.2c-0.6,0-0.9-0.1-0.9-0.4
				c0-0.1,0-0.1,0-0.2c0.1-0.2,0.1-0.3,0-0.4c-0.1,0-0.1-0.2-0.1-0.4c0-0.4,0-0.7,0.1-1c0-0.1,0.1-0.2,0.1-0.4c0-0.1,0-0.4-0.1-0.6
				c0-0.1,0-0.3,0-0.5c0-0.2,0-0.3,0.1-0.4c0.2-0.1,0.2-0.3,0.2-0.8c0-0.2,0-0.3-0.1-0.4c-0.1-0.1-0.1-0.2,0-0.4
				c0.1-0.1,0.1-0.5,0.1-1.2v-0.4l-0.1-1.3h0.9c0.6,0,1-0.1,1.1-0.2c0.1-0.2,0.1-0.4,0.1-0.6c0-0.3-0.1-0.5-0.2-0.6
				c-0.1-0.1-1.1-0.1-2.9-0.1h-0.9c-1.2,0-1.8,0.1-1.8,0.2c-0.1,0.1-0.1,0.3-0.1,0.4c0,0.3,0.1,0.6,0.2,0.7c0.1,0.1,0.4,0.2,0.7,0.2
				c0.5,0,0.8,0.1,0.8,0.4c0,0.1,0,0.1-0.1,0.2c-0.1,0.1-0.1,0.4-0.1,0.7c0,0.3,0,0.6,0.1,0.8c0.1,0.3,0.1,0.4,0,0.5
				c-0.1,0.1-0.1,0.3-0.1,0.7c0,0.2,0,0.3,0,0.4c0,0.8,0.1,1.3,0.1,1.6c0,1.3-0.1,1.9-0.3,1.9c-0.1,0-0.2,0.2-0.2,0.7
				c0,0.2,0,0.3,0.1,0.4l0.1,0.1c0,0.2-0.3,0.2-0.9,0.2c-0.3,0-0.5,0.1-0.6,0.2c-0.1,0.1-0.2,0.4-0.2,0.8v0.2c0,0.5,0.2,0.8,0.6,0.8
				c0.1,0,0.3,0,0.4-0.1c0.3-0.1,0.4-0.2,0.4-0.3s0.3-0.1,1-0.1c0.7,0,1,0,1,0.1c0,0.1,0.7,0.1,2.1,0.1c1.4,0,2.1-0.1,2.1-0.1
				c0-0.1,0.3-0.1,0.8-0.1c0.6,0,0.9,0,0.9,0.1c0,0.1,0.1,0.2,0.4,0.2c0.2,0,0.4-0.1,0.4-0.3c0-0.1,0.1-0.3,0.3-0.4
				c0.2-0.1,0.3-0.2,0.3-0.4c0-0.2,0-0.4,0.1-0.5c0.1-0.1,0.1-0.3,0-0.4c0,0-0.1-0.1-0.1-0.2c0-0.2,0-0.5,0.1-0.8
				c0.1-0.3,0.2-0.4,0.2-0.4c0.1,0,0.1-0.1,0.1-0.3C367.8,787.9,367.8,787.9,367.7,787.9z"/>
			<path d="M375.7,790c0.1,0,0.1-0.1,0.2-0.1c0.1-0.2,0.1-0.3-0.1-0.3c-0.1,0-0.2,0.1-0.2,0.2C375.6,789.9,375.7,790,375.7,790z"/>
			<path d="M386.4,788c-0.1,0-0.3,0.2-0.5,0.5c-0.3,0.4-0.4,0.6-0.4,0.7c0,0.1-0.1,0.2-0.4,0.2c-0.2,0-0.3,0.1-0.3,0.1
				c0,0,0,0.1,0,0.3v0.2c0,0.2-0.1,0.3-0.4,0.3c0,0-0.1,0-0.2,0c-0.1,0-0.1,0-0.2,0c-0.2,0-0.4,0.1-0.7,0.4
				c-0.2,0.2-0.4,0.3-0.6,0.3c-0.1,0-0.2-0.1-0.2-0.2c-0.1-0.1-0.2-0.1-0.4,0c-0.2,0.1-0.6,0.2-1.2,0.2c-0.5,0-0.7,0-0.7-0.1
				c0-0.1-0.1-0.1-0.2-0.1c-0.1,0-0.1-0.1-0.2-0.2c-0.1-0.2-0.1-0.3-0.1-0.5c0,0,0-0.6,0.1-1.8c0-1.2,0.1-1.8,0.1-1.8
				c0-0.1,0.5-0.1,1.4-0.1c0.8,0,1.3,0.1,1.5,0.2c0.3,0.1,0.4,0.4,0.4,0.8c0,0.2,0,0.3,0.1,0.3c0,0,0.1,0,0.2,0
				c0.2-0.1,0.4-0.1,0.6-0.1h0.1c0.2,0,0.3-0.2,0.3-0.6c0-0.1,0-0.2,0-0.3c0-0.2,0-0.3,0-0.4v-0.3c0-0.4,0-0.6,0.1-0.6
				c0.1-0.1,0.1-0.3,0-0.4c-0.1-0.1-0.1-0.3,0.1-0.4c0.2-0.1,0.2-0.2,0.2-0.4c0-0.3-0.4-0.4-1.1-0.4c-0.4,0-0.6,0.2-0.6,0.5
				c0,0.1,0,0.2,0.1,0.3c0.1,0.2,0,0.3-0.1,0.5c-0.1,0.1-0.4,0.2-0.9,0.3c-0.6,0.1-1.1,0.2-1.6,0.2h-0.6v-0.6c0-0.4,0.1-0.6,0.2-0.6
				c0.1,0,0.2-0.1,0.2-0.4c0-0.3-0.1-0.6-0.2-0.9c-0.1-0.2-0.2-0.4-0.2-0.4c0-0.1,0.1-0.1,0.2-0.3c0.2-0.2,0.3-0.3,0.2-0.5
				c0,0,0-0.1,0-0.2c0-0.2,0.1-0.3,0.4-0.4c0.3-0.1,0.8-0.1,1.5-0.2c0.6,0,1-0.1,1.1-0.1c0.4,0,0.6,0.1,0.7,0.2
				c0.2,0.2,0.3,0.3,0.5,0.4c0.2,0.1,0.3,0.2,0.3,0.3c0,0.1,0.1,0.2,0.4,0.4c0.2,0.1,0.4,0.3,0.4,0.3c0,0.2,0.1,0.3,0.3,0.5
				c0.2,0.2,0.4,0.3,0.6,0.3h0.1c0.3,0,0.4-0.2,0.4-0.7c0-0.2-0.1-0.4-0.2-0.5c-0.1-0.2-0.2-0.4-0.2-0.6c0-0.3-0.1-0.5-0.2-0.5
				c-0.1-0.1-0.1-0.2,0-0.4c0.1-0.1,0.1-0.2,0.1-0.3c0-0.1-0.1-0.1-0.2-0.2c-0.1-0.1-0.2-0.2-0.2-0.3c0-0.1-0.1-0.3-0.3-0.5
				c-0.1-0.1-0.2-0.2-0.3-0.2c-0.1,0-0.2,0-0.3,0.1c-0.2,0.1-1.9,0.3-5,0.4h-0.7c-1.5,0-2.3-0.1-2.4-0.3c0-0.1-0.1-0.1-0.3-0.1
				c-0.1,0-0.2,0-0.2,0.1c0,0.1-0.1,0.2-0.1,0.3s0,0.3,0,0.3c0,0.2-0.1,0.3-0.3,0.4c-0.2,0-0.3,0.2-0.2,0.5c0.1,0.2,0.1,0.4,0.2,0.5
				c0.1,0.1,0.2,0.1,0.3,0.1s0.3,0,0.4,0c0.1,0,0.1,0,0.2,0c0.1,0,0.1,0,0.2,0c0.4,0,0.6,0.1,0.7,0.4c0.1,0.2,0.1,0.8,0.1,1.5
				c0,0.9-0.1,1.4-0.2,1.5c-0.1,0-0.1,0.2,0,0.4c0.1,0.3,0.1,0.5,0,0.7c-0.1,0.2-0.2,0.3-0.3,0.3c-0.1,0-0.1,0.1,0.1,0.2
				c0.1,0.1,0.1,0.3,0.1,0.6c0,0.3-0.1,1.3-0.2,3l-0.1,1h-0.6c-0.4,0-0.6,0.1-0.7,0.3c-0.1,0.2-0.2,0.3-0.3,0.3
				c-0.2,0-0.2,0.1-0.2,0.4c0,0.3,0.1,0.5,0.3,0.6c0.2,0.1,0.3,0.3,0.3,0.4c0,0.1,0.1,0.2,0.3,0.2s0.5,0,0.8-0.1
				c0.3-0.1,0.5-0.2,0.6-0.2c0.2-0.1,0.6-0.2,1.2-0.2c0.1,0,0.6,0,1.5,0.1c0.8,0,1.2,0.1,1.2,0.2c0.1,0.1,0.2,0.1,0.4,0
				c0.3-0.1,0.8-0.2,1.6-0.2c0.9,0,1.4,0,1.6-0.1c0.2,0,0.3-0.1,0.5-0.2c0.2-0.2,0.3-0.4,0.2-0.6c-0.1-0.2,0-0.4,0.2-0.4
				c0.1-0.1,0.2-0.4,0.2-0.8c0-0.3,0-0.5,0.1-0.6c0-0.1,0.1-0.1,0.2-0.1c0.2,0,0.3-0.2,0.3-0.5c0-0.3-0.1-0.5-0.2-0.7
				C386.8,788.1,386.6,788,386.4,788z"/>
			<path d="M402.6,788.5c-0.1-0.1-0.1-0.5-0.1-1.2c0-0.6-0.1-0.9-0.2-1.1c-0.1-0.2-0.3-0.4-0.6-0.5c-0.3-0.1-0.5-0.3-0.5-0.4
				c-0.1-0.1-0.3-0.3-0.9-0.6s-1-0.5-1.3-0.6c-0.2-0.1-0.5-0.2-0.9-0.5c-0.4-0.3-0.6-0.4-0.6-0.5c0-0.1-0.1-0.2-0.2-0.3
				c-0.2-0.1-0.2-0.2-0.2-0.3c0,0,0-0.1,0-0.1c0.1-0.1,0.1-0.2,0.1-0.3s0-0.3-0.1-0.6c0-0.1,0-0.2,0-0.2c0,0,0.2-0.1,0.3-0.1
				c0.3,0,0.4-0.1,0.4-0.2c0-0.1,0.1-0.2,0.4-0.4c0.3-0.2,0.4-0.3,0.4-0.3c0-0.1,0.1-0.1,0.4-0.2c0.1,0,0.1,0,0.2,0
				c0.4,0,0.8,0.2,1.2,0.5c0.5,0.3,0.7,0.6,0.7,0.9c0,0.2,0.1,0.4,0.3,0.5c0.2,0.1,0.3,0.3,0.3,0.4c0,0.1,0.1,0.3,0.2,0.5
				s0.3,0.3,0.4,0.3c0,0,0,0,0.1,0c0.1-0.1,0.1-0.7,0.2-2v-0.8c0-0.6-0.1-0.9-0.2-0.9c-0.1,0-0.1,0-0.1,0c-0.3,0.1-0.6,0.2-0.8,0.2
				c-0.3,0-0.6-0.1-1-0.3c-0.4-0.2-0.6-0.3-0.7-0.3c0,0-0.1,0-0.2,0.1c-0.3,0.1-0.6,0.1-0.8,0.1c-0.3,0-0.4,0-0.5,0.1
				c0,0.1-0.1,0.2-0.3,0.2c-0.2,0-0.4-0.1-0.5-0.2c-0.1-0.1-0.3-0.2-0.5-0.2h0c-0.1,0-0.1,0-0.1,0c-0.1,0-0.1,0-0.1,0
				c0,0,0.1,0,0.1,0c0.1,0.1,0.2,0.1,0.2,0.2c0,0.2-0.2,0.3-0.5,0.4c-0.3,0.1-0.4,0.2-0.4,0.4c0.1,0.2,0,0.3-0.2,0.4
				c-0.3,0.1-0.6,0.5-1.1,1.1c-0.1,0.2-0.2,0.4-0.2,0.6c0,0,0,0.3,0.1,0.8c0.1,0.7,0.3,1.1,0.4,1.3c0.1,0.2,0.4,0.4,0.7,0.7
				c0.4,0.3,0.6,0.4,0.8,0.4c0.1,0,0.3,0.1,0.6,0.4c0.4,0.3,0.9,0.6,1.7,0.8c0.5,0.1,0.8,0.3,1.1,0.6c0.2,0.2,0.3,0.4,0.5,0.7
				c0.1,0.3,0.2,0.5,0.2,0.7c0,0.1,0,0.1-0.1,0.2c-0.1,0-0.1,0.2-0.1,0.4c0.1,0.2,0,0.4-0.2,0.6c-0.1,0.1-0.2,0.3-0.2,0.4
				c0,0.2-0.5,0.4-1.4,0.5c-0.1,0-0.3,0-0.6,0c-0.9,0-1.7-0.4-2.2-1.2c-0.3-0.4-0.5-0.8-0.5-1c0,0,0-0.1,0-0.2c0-0.1,0-0.2,0-0.2
				c0,0-0.1-0.1-0.1-0.1c-0.1,0-0.1,0-0.1-0.1c0.1-0.3-0.1-0.5-0.4-0.6c-0.1,0-0.2-0.1-0.3-0.1c-0.3,0-0.4,0.2-0.5,0.5
				c-0.1,1.2-0.1,1.9-0.2,1.9c-0.1,0.1-0.1,0.4-0.2,0.8c0,0.1,0,0.3,0,0.4c0,0.2,0.1,0.4,0.3,0.6c0.1,0.1,0.2,0.2,0.3,0.2
				c0,0,0.1,0,0.2-0.2c0.1-0.2,0.2-0.3,0.2-0.4c0-0.3,0.2-0.3,0.5-0.1c0.9,0.5,1.8,0.7,2.9,0.7c0.5,0,1.1-0.1,1.6-0.2
				c0.6-0.1,1.1-0.3,1.4-0.6c0.3-0.3,0.5-0.5,0.5-0.5c0-0.1,0.1-0.2,0.2-0.3c0.2-0.1,0.3-0.4,0.3-0.9c0.1-0.5,0.1-0.7,0.2-0.7
				C402.7,788.6,402.7,788.5,402.6,788.5z M398.1,785.7C398.1,785.7,398,785.7,398.1,785.7c-0.1-0.1-0.1-0.1,0-0.1
				S398.2,785.6,398.1,785.7C398.2,785.7,398.2,785.7,398.1,785.7z"/>
			<path d="M396.6,786.5c0-0.1,0-0.2-0.1-0.2c-0.1,0-0.1,0-0.1,0.1l0.1,0.2C396.6,786.7,396.6,786.7,396.6,786.5z"/>
		</g>
		<polygon points="51.7,808.8 44,814 41.2,799.9 38.4,814 30.7,808.8 35.9,816.5 21.8,819.3 35.9,822 30.7,829.8 38.4,824.6 
			41.2,838.6 43.9,824.6 51.7,829.8 46.5,822 60.5,819.3 46.5,816.5 		"/>
		<polygon points="468.1,816.5 473.3,808.8 465.5,814 462.8,799.9 460,814 452.3,808.8 457.5,816.5 443.4,819.3 457.5,822 
			452.3,829.8 460,824.6 462.8,838.6 465.5,824.6 473.3,829.8 468.1,822 482.1,819.3 		"/>
		<polygon points="30.7,57.5 38.4,52.3 41.2,66.4 44,52.3 51.7,57.5 46.5,49.8 60.5,47 46.5,44.3 51.7,36.5 43.9,41.7 41.2,27.7 
			38.4,41.7 30.7,36.5 35.9,44.3 21.8,47 35.9,49.8 		"/>
		<polygon points="473.3,36.5 465.5,41.7 462.8,27.7 460,41.7 452.3,36.5 457.5,44.3 443.4,47 457.5,49.8 452.3,57.5 460,52.3 
			462.8,66.4 465.5,52.3 473.3,57.5 468.1,49.8 482.1,47 468.1,44.3 		"/>
		<polygon points="246.7,234.5 221.2,262.7 249.4,237.2 252,280.2 254.5,237.2 282.7,262.7 256.8,234.5 294.6,232 257.2,229.4 
			282.7,201.2 254.5,226.7 252,183.8 249.4,226.7 221.2,201.2 246.7,229.4 209.3,232 		"/>
		<path d="M258.7,417.5c-0.9-0.4-1.8-0.8-2.7-1.1c-1.1-0.5-1.7-0.5-2-1.5c-0.6-1.9-1.1-3.9-1.6-5.9c0,0,0,0,0-0.1c0,0,0,0,0-0.1
			c-0.1-0.1-0.2-0.2-0.3-0.2c-0.1,0-0.3,0-0.3,0.2c0,0,0,0.1,0,0.1c0,0,0,0,0,0c0,0,0,0,0,0c0,0,0,0,0,0c-0.5,1.9-1,3.9-1.5,5.9
			c-0.5,1.5-3.3,2.1-4.7,2.7c-0.3,0.1-0.5,0.6-0.1,0.7c0.9,0.4,1.8,0.8,2.7,1.2c0.5,0.2,1.1,0.5,1.6,0.7c0.1,0.1,0.2,0.1,0.2,0.1
			c0,0,0,0,0,0.1c1,1.7,1.2,4.2,1.8,6.1c0.1,0.4,0.7,0.4,0.8,0c0.6-1.9,0.9-4.4,1.8-6.1c0,0,0,0,0-0.1c0,0,0.1,0,0.1-0.1
			c0.5-0.3,1.2-0.5,1.7-0.8c0.9-0.4,1.8-0.8,2.7-1.2C259.2,418.1,259,417.7,258.7,417.5z M255.3,419c-0.6,0.3-1.5,0.5-1.9,1
			c-0.6,0.8-0.7,2.4-1,3.4c-0.2,0.6-0.3,1.1-0.5,1.7c-0.2-0.6-0.3-1.1-0.5-1.7c-0.3-0.9-0.4-2.6-1-3.4c-0.4-0.6-1.2-0.7-1.9-1
			c-0.7-0.3-1.5-0.7-2.2-1c1.5-0.5,3.5-1.1,4.2-2.2c0.6-1,0.7-2.7,1-3.7c0.1-0.5,0.2-0.9,0.4-1.4c0.1,0.5,0.3,0.9,0.4,1.4
			c0.3,1.1,0.4,2.7,1,3.7c0.6,1.1,2.7,1.7,4.2,2.2C256.8,418.3,256.1,418.6,255.3,419z"/>
		<path d="M258.7,462.3c-0.9-0.4-1.8-0.8-2.7-1.1c-1.1-0.5-1.7-0.5-2-1.5c-0.6-1.9-1.1-3.9-1.6-5.9c0,0,0,0,0-0.1c0,0,0,0,0-0.1
			c-0.1-0.1-0.2-0.2-0.3-0.2c-0.1,0-0.3,0-0.3,0.2c0,0,0,0.1,0,0.1c0,0,0,0,0,0c0,0,0,0,0,0c0,0,0,0,0,0c-0.5,1.9-1,3.9-1.5,5.9
			c-0.5,1.5-3.3,2.1-4.7,2.7c-0.3,0.1-0.5,0.6-0.1,0.7c0.9,0.4,1.8,0.8,2.7,1.2c0.5,0.2,1.1,0.5,1.6,0.7c0.1,0.1,0.2,0.1,0.2,0.1
			c0,0,0,0,0,0.1c1,1.7,1.2,4.2,1.8,6.1c0.1,0.4,0.7,0.4,0.8,0c0.6-1.9,0.9-4.4,1.8-6.1c0,0,0,0,0-0.1c0,0,0.1,0,0.1-0.1
			c0.5-0.3,1.2-0.5,1.7-0.8c0.9-0.4,1.8-0.8,2.7-1.2C259.2,462.8,259,462.4,258.7,462.3z M255.3,463.7c-0.6,0.3-1.5,0.5-1.9,1
			c-0.6,0.8-0.7,2.4-1,3.4c-0.2,0.6-0.3,1.1-0.5,1.7c-0.2-0.6-0.3-1.1-0.5-1.7c-0.3-0.9-0.4-2.6-1-3.4c-0.4-0.6-1.2-0.7-1.9-1
			c-0.7-0.3-1.5-0.7-2.2-1c1.5-0.5,3.5-1.1,4.2-2.2c0.6-1,0.7-2.7,1-3.7c0.1-0.5,0.2-0.9,0.4-1.4c0.1,0.5,0.3,0.9,0.4,1.4
			c0.3,1.1,0.4,2.7,1,3.7c0.6,1.1,2.7,1.7,4.2,2.2C256.8,463,256.1,463.4,255.3,463.7z"/>
		<path d="M258.7,620.1c-0.9-0.4-1.8-0.8-2.7-1.1c-1.1-0.5-1.7-0.5-2-1.5c-0.6-1.9-1.1-3.9-1.6-5.9c0,0,0,0,0-0.1c0,0,0,0,0-0.1
			c-0.1-0.1-0.2-0.2-0.3-0.2c-0.1,0-0.3,0-0.3,0.2c0,0,0,0.1,0,0.1c0,0,0,0,0,0c0,0,0,0,0,0c0,0,0,0,0,0c-0.5,1.9-1,3.9-1.5,5.9
			c-0.5,1.5-3.3,2.1-4.7,2.7c-0.3,0.1-0.5,0.6-0.1,0.7c0.9,0.4,1.8,0.8,2.7,1.2c0.5,0.2,1.1,0.5,1.6,0.7c0.1,0.1,0.2,0.1,0.2,0.1
			c0,0,0,0,0,0.1c1,1.7,1.2,4.2,1.8,6.1c0.1,0.4,0.7,0.4,0.8,0c0.6-1.9,0.9-4.4,1.8-6.1c0,0,0,0,0-0.1c0,0,0.1,0,0.1-0.1
			c0.5-0.3,1.2-0.5,1.7-0.8c0.9-0.4,1.8-0.8,2.7-1.2C259.2,620.7,259,620.2,258.7,620.1z M255.3,621.5c-0.6,0.3-1.5,0.5-1.9,1
			c-0.6,0.8-0.7,2.4-1,3.4c-0.2,0.6-0.3,1.1-0.5,1.7c-0.2-0.6-0.3-1.1-0.5-1.7c-0.3-0.9-0.4-2.6-1-3.4c-0.4-0.6-1.2-0.7-1.9-1
			c-0.7-0.3-1.5-0.7-2.2-1c1.5-0.5,3.5-1.1,4.2-2.2c0.6-1,0.7-2.7,1-3.7c0.1-0.5,0.2-0.9,0.4-1.4c0.1,0.5,0.3,0.9,0.4,1.4
			c0.3,1.1,0.4,2.7,1,3.7c0.6,1.1,2.7,1.7,4.2,2.2C256.8,620.9,256.1,621.2,255.3,621.5z"/>
		<path d="M258.7,664.8c-0.9-0.4-1.8-0.8-2.7-1.1c-1.1-0.5-1.7-0.5-2-1.5c-0.6-1.9-1.1-3.9-1.6-5.9c0,0,0,0,0-0.1c0,0,0,0,0-0.1
			c-0.1-0.1-0.2-0.2-0.3-0.2c-0.1,0-0.3,0-0.3,0.2c0,0,0,0.1,0,0.1c0,0,0,0,0,0c0,0,0,0,0,0c0,0,0,0,0,0c-0.5,1.9-1,3.9-1.5,5.9
			c-0.5,1.5-3.3,2.1-4.7,2.7c-0.3,0.1-0.5,0.6-0.1,0.7c0.9,0.4,1.8,0.8,2.7,1.2c0.5,0.2,1.1,0.5,1.6,0.7c0.1,0.1,0.2,0.1,0.2,0.1
			c0,0,0,0,0,0.1c1,1.7,1.2,4.2,1.8,6.1c0.1,0.4,0.7,0.4,0.8,0c0.6-1.9,0.9-4.4,1.8-6.1c0,0,0,0,0-0.1c0,0,0.1,0,0.1-0.1
			c0.5-0.3,1.2-0.5,1.7-0.8c0.9-0.4,1.8-0.8,2.7-1.2C259.2,665.4,259,664.9,258.7,664.8z M255.3,666.2c-0.6,0.3-1.5,0.5-1.9,1
			c-0.6,0.8-0.7,2.4-1,3.4c-0.2,0.6-0.3,1.1-0.5,1.7c-0.2-0.6-0.3-1.1-0.5-1.7c-0.3-0.9-0.4-2.6-1-3.4c-0.4-0.6-1.2-0.7-1.9-1
			c-0.7-0.3-1.5-0.7-2.2-1c1.5-0.5,3.5-1.1,4.2-2.2c0.6-1,0.7-2.7,1-3.7c0.1-0.5,0.2-0.9,0.4-1.4c0.1,0.5,0.3,0.9,0.4,1.4
			c0.3,1.1,0.4,2.7,1,3.7c0.6,1.1,2.7,1.7,4.2,2.2C256.8,665.6,256.1,665.9,255.3,666.2z"/>
		<path d="M200.8,414.8c-4.4-13.6-8.8-27.3-13.2-40.9l-1.5,1c2.8,8.8,5.7,17.7,8.5,26.4l3.7,11.4c-11.2-8.3-48-35.5-54.9-40.7
			l-0.6,1.7c6.5,4.8,36.8,27.2,44.8,33.2c4,2.9,7.9,5.9,11.9,8.8C200.2,416.3,201,415.5,200.8,414.8z"/>
		<path d="M103.4,344.8c11.9,8.8,23.4,17.3,35.1,25.9l0.6-1.7c-7.6-5.5-15.3-11.3-23-17c-3.2-2.4-6.5-4.8-9.7-7.2h67.9
			c-0.1-0.2-0.5-1.3-0.6-1.7h-69.9C103,343.1,102.8,344.3,103.4,344.8z"/>
		<path d="M127.2,415.8c11.6-8.6,23.2-17.1,34.8-25.7c0,0-1.3-1.1-1.3-1.2c-7.5,5.5-14.9,11-22.4,16.6l-9.8,7.3
			c4.3-13.3,18.8-58.2,21.5-66.4l-1.8,0c-2.5,7.9-14.5,44.8-17.6,54.5l-4.5,13.9C125.7,415.5,126.6,416.3,127.2,415.8z"/>
		<path d="M163.8,301.1c-0.1,0-0.2-0.1-0.3-0.1c0,0,0,0,0,0c0,0-0.1,0-0.1,0c0,0-0.1,0-0.1,0c0,0,0,0,0,0c-0.1,0-0.2,0-0.3,0.1
			c-0.3,0.1-0.5,0.3-0.5,0.6c-4.3,13.2-8.5,26.4-12.8,39.6c0,0,0,0,0.1,0c0.6,0,1.2,0.1,1.8,0c2.7-8.5,5.5-16.9,8.2-25.4
			c1.2-3.8,2.4-7.5,3.7-11.3c4.1,12.8,18.3,56.5,20.9,64.7l1.5-1.1c-2.5-7.8-17.1-52.8-17.1-52.8c-1.5-4.6-3-9.2-4.5-13.8
			C164.2,301.4,164,301.2,163.8,301.1z"/>
		<path d="M180.3,344.9h39.9c-11.3,8.4-48.8,36.1-55.5,41l1.5,1.1c6.4-4.7,45.2-33.4,45.2-33.4c4-2.9,7.9-5.9,11.9-8.8
			c0.7-0.5,0.5-1.6-0.4-1.6h-43.2C179.9,343.7,180.1,344.3,180.3,344.9z"/>
		<path d="M105.7,329.2c11.1-18.4,30.6-30.2,51.5-32.2c-0.1-0.6-0.2-1.1-0.1-1.7c-18.1,1.7-35.4,10.5-47.2,25
			c-4.1,5-7.3,10.5-9.8,16.3c0.6,0.1,1.1,0.3,1.6,0.6C102.8,334.4,104.2,331.7,105.7,329.2z"/>
		<path d="M119.3,416.8c0.4-0.5,0.8-0.8,1.3-1.1c-3.2-2.6-6.2-5.5-8.9-8.8c-13.8-16.5-18.5-38.9-13.6-59.3c-0.6,0-1.1-0.1-1.6-0.2
			c-4.2,17.5-1.7,36.6,8,52.4C108.5,406.4,113.5,412.1,119.3,416.8z"/>
		<path d="M196.8,422.2c-3.5,2-7.1,3.7-11,5.1c-19.2,6.8-40.3,4.2-57.3-6c-0.1,0.6-0.3,1.1-0.6,1.6c14.4,8.6,31.9,12,48.9,8.7
			c7.5-1.5,14.5-4.2,20.8-7.9C197.3,423.2,197,422.7,196.8,422.2z"/>
		<path d="M206.2,415.6c0.5,0.3,0.9,0.7,1.3,1.1c15.2-12.9,24.7-32.1,24.8-52.8c0-5.6-0.8-11-2.1-16.3c-0.6,0.1-1.1,0.2-1.7,0.4
			c0,0,0,0,0,0c1.3,5.1,2,10.4,2,15.9C230.5,384,221.3,403,206.2,415.6z"/>
		<path d="M176.9,297.9c21.9,4.5,39.4,19.6,48,39.2c0,0,0,0,0,0c0.4-0.1,0.7-0.1,1,0c0.1-0.1,0.2-0.2,0.3-0.3
			c0.1-0.1,0.2-0.2,0.4-0.3c-7.4-17-21.3-30.8-39.3-37.5c-5.6-2.1-11.4-3.4-17.3-3.9c0.1,0.6,0.2,1.1,0.3,1.7
			C172.5,297.2,174.7,297.5,176.9,297.9z"/>
		<path d="M162.2,296.7c0.5,0.6,0.8,2.8,1.1,2.8c0.3,0,0.7-2.3,1.2-2.8c0.5-0.5,2.1-0.7,2.1-1c0-0.3-1.6-0.6-2-1.1
			c-0.5-0.5-0.8-2.8-1.1-2.8c-0.3,0-0.6,2.2-1.2,2.8c-0.6,0.6-2.1,0.6-2.1,1C160.2,296,161.7,296.2,162.2,296.7z"/>
		<path d="M96.8,342.8c0.4,0.7,0,2.2,0.3,2.3c0.3,0.1,1-1.2,1.7-1.6c0.7-0.3,2.9,0.2,3-0.2c0.1-0.3-1.9-1.4-2.3-2
			c-0.3-0.7,0-2.2-0.3-2.3c-0.3-0.1-1.1,1.3-1.7,1.6c-0.6,0.3-2.9-0.2-3,0.2C94.4,341.1,96.4,342.1,96.8,342.8z"/>
		<path d="M120.9,422.9c0.3,0.2,1.8-1.4,2.6-1.5c0.8-0.1,2,0.7,2.3,0.4c0.2-0.3-0.9-1.3-1-2.1c-0.1-0.8,1-2.7,0.8-2.9
			c-0.3-0.2-1.9,1.4-2.6,1.5c-0.7,0.1-2.1-0.6-2.3-0.4s0.9,1.4,1,2.1C121.7,420.7,120.6,422.7,120.9,422.9z"/>
		<path d="M205.9,418.2c-0.2-0.3-1.5,0.4-2.3,0.3c-0.8-0.1-2.3-1.8-2.5-1.6c-0.3,0.2,0.8,2.2,0.7,2.9c-0.1,0.7-1.3,1.8-1.1,2
			c0.2,0.3,1.6-0.4,2.3-0.3c0.7,0.1,2.3,1.8,2.5,1.6c0.3-0.2-0.8-2.1-0.7-2.9C205,419.4,206.1,418.5,205.9,418.2z"/>
		<path d="M227.7,343.3c0.6,0.3,1.3,1.7,1.6,1.7c0.3-0.1,0.1-1.7,0.4-2.3c0.3-0.6,2.4-1.6,2.3-1.9c-0.1-0.3-2.3,0.1-3-0.3
			c-0.7-0.4-1.2-1.8-1.6-1.7c-0.4,0.1,0,1.6-0.4,2.3c-0.4,0.7-2.4,1.6-2.3,1.9C224.8,343.4,227.1,343,227.7,343.3z"/>
		<path d="M143.8,335.2c-0.1-1.7-1.4-3.2-3.2-3.2c-1.7,0-3.2,1.4-3.2,3.2c0,1.7,1.4,3.1,3,3.2C142.4,338.5,143.7,337,143.8,335.2z
			 M139.2,335.2c0-1.9,2.8-1.8,2.9,0C142,337.1,139.2,337.1,139.2,335.2z"/>
		<path d="M187.8,335.2c-0.1-1.7-1.4-3.2-3.2-3.2c-1.7,0-3.2,1.4-3.2,3.2c0,1.7,1.4,3.1,3,3.2C186.3,338.5,187.7,337,187.8,335.2z
			 M183.2,335.2c0-1.9,2.8-1.8,2.9,0C185.9,337.1,183.2,337.1,183.2,335.2z"/>
		<path d="M163.2,403.3c1.8,0.1,3.2-1.4,3.3-3.2c-0.1-1.7-1.4-3.2-3.2-3.2c-1.7,0-3.2,1.4-3.2,3.2
			C160.2,401.8,161.6,403.3,163.2,403.3z M164.8,400.2c-0.1,1.8-2.9,1.9-2.9,0C161.9,398.3,164.7,398.3,164.8,400.2z"/>
		<path d="M135,374.3c-0.1-1.7-1.4-3.2-3.2-3.2c-1.7,0-3.2,1.4-3.2,3.2c0,1.7,1.4,3.1,3,3.2C133.6,377.6,134.9,376.1,135,374.3z
			 M130.4,374.3c0-1.9,2.8-1.8,2.9,0C133.2,376.2,130.4,376.2,130.4,374.3z"/>
		<path d="M198.3,374.3c-0.1-1.7-1.4-3.2-3.2-3.2c-1.7,0-3.2,1.4-3.2,3.2c0,1.7,1.4,3.1,3,3.2C196.9,377.6,198.2,376.1,198.3,374.3z
			 M193.7,374.3c0-1.9,2.8-1.8,2.9,0C196.5,376.2,193.7,376.2,193.7,374.3z"/>
		<polygon points="168,363.1 172.6,355.9 165.4,360.5 163.5,348.5 161.6,360.5 154.4,355.9 159,363.1 147,365 159,366.9 
			154.4,374.1 161.6,369.5 163.5,381.5 165.4,369.5 172.6,374.1 168,366.9 180,365 		"/>
		<path d="M210.7,575.3c-4.4-13.6-8.8-27.3-13.2-40.9l-1.5,1c2.8,8.8,5.7,17.7,8.5,26.4l3.7,11.4c-11.2-8.3-48-35.5-54.9-40.7
			l-0.6,1.7c6.5,4.8,36.8,27.2,44.8,33.2c4,2.9,7.9,5.9,11.9,8.8C210,576.7,210.9,576,210.7,575.3z"/>
		<path d="M183.7,503.6h-69.9c-0.9,0-1.1,1.1-0.4,1.6c11.9,8.8,23.4,17.3,35.1,25.9l0.6-1.7c-7.6-5.5-15.3-11.3-23-17
			c-3.2-2.4-6.5-4.8-9.7-7.2h67.9C184.3,505.2,183.8,504,183.7,503.6z"/>
		<path d="M170.5,549.4c-7.5,5.5-14.9,11-22.4,16.6l-9.8,7.3c4.3-13.3,18.8-58.2,21.5-66.4l-1.8,0c-2.5,7.9-14.5,44.8-17.6,54.5
			l-4.5,13.9c-0.2,0.7,0.7,1.4,1.3,1c11.6-8.6,23.2-17.1,34.8-25.7C171.8,550.5,170.6,549.4,170.5,549.4z"/>
		<path d="M159.6,501.8c0.6,0,1.2,0.1,1.8,0c2.7-8.5,5.5-16.9,8.2-25.4c1.2-3.8,2.4-7.5,3.7-11.3c4.1,12.8,18.3,56.5,20.9,64.7
			l1.5-1.1c-2.5-7.8-17.1-52.8-17.1-52.8c-1.5-4.6-3-9.2-4.5-13.8c0-0.3-0.2-0.5-0.5-0.6c-0.1,0-0.2-0.1-0.3-0.1c0,0,0,0,0,0
			c0,0-0.1,0-0.1,0c0,0-0.1,0-0.1,0c0,0,0,0,0,0c-0.1,0-0.2,0-0.3,0.1c-0.3,0.1-0.5,0.3-0.5,0.6
			C168.1,475.4,163.8,488.6,159.6,501.8C159.6,501.8,159.6,501.8,159.6,501.8z"/>
		<path d="M233.2,505.2c0.7-0.5,0.5-1.6-0.4-1.6h-43.2c0.2,0.6,0.4,1.2,0.6,1.7h39.9c-11.3,8.4-48.8,36.1-55.5,41l1.5,1.1
			c6.4-4.7,45.2-33.4,45.2-33.4C225.2,511.1,229.2,508.2,233.2,505.2z"/>
		<path d="M167.1,457.4c-0.1-0.6-0.2-1.1-0.1-1.7c-18.1,1.7-35.4,10.5-47.2,25c-4.1,5-7.3,10.5-9.8,16.3c0.6,0.1,1.1,0.3,1.6,0.6
			c1.2-2.7,2.5-5.4,4.1-8C126.7,471.2,146.2,459.4,167.1,457.4z"/>
		<path d="M129.2,577.3c0.4-0.5,0.8-0.8,1.3-1.1c-3.2-2.6-6.2-5.5-8.9-8.8c-13.8-16.5-18.5-38.9-13.6-59.3c-0.6,0-1.1-0.1-1.6-0.2
			c-4.2,17.5-1.7,36.6,8,52.4C118.4,566.8,123.4,572.5,129.2,577.3z"/>
		<path d="M195.7,587.7c-19.2,6.8-40.3,4.2-57.3-6c-0.1,0.6-0.3,1.1-0.6,1.6c14.4,8.6,31.9,12,48.9,8.7c7.5-1.5,14.5-4.2,20.8-7.9
			c-0.3-0.5-0.6-0.9-0.8-1.5C203.2,584.7,199.6,586.4,195.7,587.7z"/>
		<path d="M240.2,508c-0.6,0.1-1.1,0.2-1.7,0.4c0,0,0,0,0,0c1.3,5.1,2,10.4,2,15.9c-0.2,20.2-9.4,39.1-24.4,51.7
			c0.5,0.3,0.9,0.7,1.3,1.1c15.2-12.9,24.7-32.1,24.8-52.8C242.2,518.7,241.5,513.3,240.2,508z"/>
		<path d="M234.8,497.6c0.4-0.1,0.7-0.1,1,0c0.1-0.1,0.2-0.2,0.3-0.3c0.1-0.1,0.2-0.2,0.4-0.3c-7.4-17-21.3-30.8-39.3-37.5
			c-5.6-2.1-11.4-3.4-17.3-3.9c0.1,0.6,0.2,1.1,0.3,1.7c2.2,0.2,4.4,0.5,6.6,1C208.6,462.9,226.2,478,234.8,497.6
			C234.8,497.6,234.8,497.6,234.8,497.6z"/>
		<path d="M173.2,460c0.3,0,0.7-2.3,1.2-2.8c0.5-0.5,2.1-0.7,2.1-1c0-0.3-1.6-0.6-2-1.1c-0.5-0.5-0.8-2.8-1.1-2.8
			c-0.3,0-0.6,2.2-1.2,2.8s-2.1,0.6-2.1,1c0,0.4,1.5,0.5,2,1.1C172.6,457.8,172.8,460,173.2,460z"/>
		<path d="M107,505.6c0.3,0.1,1-1.2,1.7-1.6c0.7-0.3,2.9,0.2,3-0.2c0.1-0.3-1.9-1.4-2.3-2c-0.3-0.7,0-2.2-0.3-2.3
			c-0.3-0.1-1.1,1.3-1.7,1.6c-0.6,0.3-2.9-0.2-3,0.2c-0.1,0.3,1.9,1.3,2.3,2C107,504,106.6,505.4,107,505.6z"/>
		<path d="M135.4,577.3c-0.3-0.2-1.9,1.4-2.6,1.5c-0.7,0.1-2.1-0.6-2.3-0.4c-0.2,0.2,0.9,1.4,1,2.1c0.1,0.7-1,2.7-0.8,2.9
			c0.3,0.2,1.8-1.4,2.6-1.5c0.8-0.1,2,0.7,2.3,0.4c0.2-0.3-0.9-1.3-1-2.1C134.5,579.4,135.7,577.5,135.4,577.3z"/>
		<path d="M215.8,578.7c-0.2-0.3-1.5,0.4-2.3,0.3c-0.8-0.1-2.3-1.8-2.5-1.6c-0.3,0.2,0.8,2.2,0.7,2.9c-0.1,0.7-1.3,1.8-1.1,2
			c0.2,0.3,1.6-0.4,2.3-0.3c0.7,0.1,2.3,1.8,2.5,1.6c0.3-0.2-0.8-2.1-0.7-2.9C214.9,579.9,216,579,215.8,578.7z"/>
		<path d="M237.6,503.8c0.6,0.3,1.3,1.7,1.6,1.7c0.3-0.1,0.1-1.7,0.4-2.3c0.3-0.6,2.4-1.6,2.3-1.9c-0.1-0.3-2.3,0.1-3-0.3
			c-0.7-0.4-1.2-1.8-1.6-1.7c-0.4,0.1,0,1.6-0.4,2.3c-0.4,0.7-2.4,1.6-2.3,1.9C234.7,503.8,237,503.5,237.6,503.8z"/>
		<path d="M147.4,495.7c0,1.7,1.4,3.1,3,3.2c1.8,0.1,3.2-1.4,3.3-3.2c-0.1-1.7-1.4-3.2-3.2-3.2C148.8,492.5,147.4,494,147.4,495.7z
			 M152,495.7c-0.1,1.8-2.9,1.9-2.9,0C149.1,493.8,151.9,493.8,152,495.7z"/>
		<path d="M197.7,495.7c-0.1-1.7-1.4-3.2-3.2-3.2c-1.7,0-3.2,1.4-3.2,3.2c0,1.7,1.4,3.1,3,3.2C196.2,498.9,197.6,497.4,197.7,495.7z
			 M193,495.7c0-1.9,2.8-1.8,2.9,0C195.8,497.5,193,497.5,193,495.7z"/>
		<path d="M173.1,563.8c1.8,0.1,3.2-1.4,3.3-3.2c-0.1-1.7-1.4-3.2-3.2-3.2c-1.7,0-3.2,1.4-3.2,3.2
			C170.1,562.3,171.5,563.7,173.1,563.8z M174.7,560.6c-0.1,1.8-2.9,1.9-2.9,0C171.8,558.8,174.6,558.8,174.7,560.6z"/>
		<path d="M138.6,534.8c0,1.7,1.4,3.1,3,3.2c1.8,0.1,3.2-1.4,3.3-3.2c-0.1-1.7-1.4-3.2-3.2-3.2C140,531.6,138.6,533.1,138.6,534.8z
			 M143.2,534.8c-0.1,1.8-2.9,1.9-2.9,0C140.3,532.9,143.1,533,143.2,534.8z"/>
		<path d="M201.9,534.8c0,1.7,1.4,3.1,3,3.2c1.8,0.1,3.2-1.4,3.3-3.2c-0.1-1.7-1.4-3.2-3.2-3.2C203.3,531.6,201.9,533.1,201.9,534.8
			z M206.5,534.8c-0.1,1.8-2.9,1.9-2.9,0C203.6,532.9,206.4,533,206.5,534.8z"/>
		<polygon points="171.5,530 173.4,542 175.3,530 182.5,534.5 177.9,527.3 189.9,525.4 177.9,523.6 182.5,516.4 175.3,520.9 
			173.4,508.9 171.5,520.9 164.3,516.4 168.9,523.6 156.9,525.4 168.9,527.3 164.3,534.5 		"/>
		<path d="M319.9,371.2c6.5,4.8,36.8,27.2,44.8,33.2c4,2.9,7.9,5.9,11.9,8.8c0.6,0.5,1.5-0.3,1.3-1c-4.4-13.6-8.8-27.3-13.2-40.9
			l-1.5,1c2.8,8.8,5.7,17.7,8.5,26.4l3.7,11.4c-11.2-8.3-48-35.5-54.9-40.7L319.9,371.2z"/>
		<path d="M280.5,342.1c11.9,8.8,23.4,17.3,35.1,25.9l0.6-1.7c-7.6-5.5-15.3-11.3-23-17c-3.2-2.4-6.5-4.8-9.7-7.2h67.9
			c-0.1-0.2-0.5-1.3-0.6-1.7H281C280,340.5,279.9,341.6,280.5,342.1z"/>
		<path d="M304.3,413.2c11.6-8.6,23.2-17.1,34.8-25.7c0,0-1.3-1.1-1.3-1.2c-7.5,5.5-14.9,11-22.4,16.6l-9.8,7.3
			c4.3-13.3,18.8-58.2,21.5-66.4l-1.8,0c-2.5,7.9-14.5,44.8-17.6,54.5l-4.5,13.9C302.8,412.9,303.7,413.6,304.3,413.2z"/>
		<path d="M340.9,298.4c-0.1,0-0.2-0.1-0.3-0.1c0,0,0,0,0,0c0,0-0.1,0-0.1,0c0,0-0.1,0-0.1,0c0,0,0,0,0,0c-0.1,0-0.2,0-0.3,0.1
			c-0.3,0.1-0.5,0.3-0.5,0.6c-4.3,13.2-8.5,26.4-12.8,39.6c0,0,0,0,0.1,0c0.6,0,1.2,0.1,1.8,0c2.7-8.5,5.5-16.9,8.2-25.4
			c1.2-3.8,2.4-7.5,3.7-11.3c4.1,12.8,18.3,56.5,20.9,64.7l1.5-1.1c-2.5-7.8-17.1-52.8-17.1-52.8c-1.5-4.6-3-9.2-4.5-13.8
			C341.3,298.8,341.1,298.6,340.9,298.4z"/>
		<path d="M400.4,342.1c0.7-0.5,0.5-1.6-0.4-1.6h-43.2c0.2,0.6,0.4,1.2,0.6,1.7h39.9c-11.3,8.4-48.8,36.1-55.5,41l1.5,1.1
			c6.4-4.7,45.2-33.4,45.2-33.4C392.4,348,396.4,345,400.4,342.1z"/>
		<path d="M286.9,317.6c-4.1,5-7.3,10.5-9.8,16.3c0.6,0.1,1.1,0.3,1.6,0.6c1.2-2.7,2.5-5.4,4.1-8c11.1-18.4,30.6-30.2,51.5-32.2
			c-0.1-0.6-0.2-1.1-0.1-1.7C316.1,294.3,298.8,303.1,286.9,317.6z"/>
		<path d="M296.4,414.1c0.4-0.5,0.8-0.8,1.3-1.1c-3.2-2.6-6.2-5.5-8.9-8.8c-13.8-16.5-18.5-38.9-13.6-59.3c-0.6,0-1.1-0.1-1.6-0.2
			c-4.2,17.5-1.7,36.6,8,52.4C285.6,403.7,290.6,409.4,296.4,414.1z"/>
		<path d="M374.7,421c-0.3-0.5-0.6-0.9-0.8-1.5c-3.5,2-7.1,3.7-11,5.1c-19.2,6.8-40.3,4.2-57.3-6c-0.1,0.6-0.3,1.1-0.6,1.6
			c14.4,8.6,31.9,12,48.9,8.7C361.4,427.4,368.4,424.7,374.7,421z"/>
		<path d="M405.7,345.3C405.7,345.3,405.7,345.3,405.7,345.3c1.3,5.1,2,10.5,2,15.9c-0.2,20.2-9.4,39.1-24.4,51.7
			c0.5,0.3,0.9,0.7,1.3,1.1c15.2-12.9,24.7-32.1,24.8-52.8c0-5.6-0.8-11-2.1-16.3C406.8,345,406.2,345.1,405.7,345.3z"/>
		<path d="M354,295.3c21.9,4.5,39.4,19.6,48,39.2c0,0,0,0,0,0c0.4-0.1,0.7-0.1,1,0c0.1-0.1,0.2-0.2,0.3-0.3c0.1-0.1,0.2-0.2,0.4-0.3
			c-7.4-17-21.3-30.8-39.3-37.5c-5.6-2.1-11.4-3.4-17.3-3.9c0.1,0.6,0.2,1.1,0.3,1.7C349.5,294.5,351.8,294.8,354,295.3z"/>
		<path d="M339.3,294.1c0.5,0.6,0.8,2.8,1.1,2.8c0.3,0,0.7-2.3,1.2-2.8c0.5-0.5,2.1-0.7,2.1-1c0-0.3-1.6-0.6-2-1.1
			c-0.5-0.5-0.8-2.8-1.1-2.8c-0.3,0-0.6,2.2-1.2,2.8c-0.6,0.6-2.1,0.6-2.1,1C337.3,293.3,338.7,293.5,339.3,294.1z"/>
		<path d="M274.2,342.4c0.3,0.1,1-1.2,1.7-1.6c0.7-0.3,2.9,0.2,3-0.2c0.1-0.3-1.9-1.4-2.3-2c-0.3-0.7,0-2.2-0.3-2.3
			c-0.3-0.1-1.1,1.3-1.7,1.6c-0.6,0.3-2.9-0.2-3,0.2c-0.1,0.3,1.9,1.3,2.3,2C274.2,340.9,273.8,342.3,274.2,342.4z"/>
		<path d="M298,420.3c0.3,0.2,1.8-1.4,2.6-1.5c0.8-0.1,2,0.7,2.3,0.4c0.2-0.3-0.9-1.3-1-2.1c-0.1-0.8,1-2.7,0.8-2.9
			c-0.3-0.2-1.9,1.4-2.6,1.5c-0.7,0.1-2.1-0.6-2.3-0.4s0.9,1.4,1,2.1C298.8,418,297.7,420.1,298,420.3z"/>
		<path d="M383,415.6c-0.2-0.3-1.5,0.4-2.3,0.3c-0.8-0.1-2.3-1.8-2.5-1.6c-0.3,0.2,0.8,2.2,0.7,2.9c-0.1,0.7-1.3,1.8-1.1,2
			c0.2,0.3,1.6-0.4,2.3-0.3c0.7,0.1,2.3,1.8,2.5,1.6c0.3-0.2-0.8-2.1-0.7-2.9C382,416.8,383.2,415.9,383,415.6z"/>
		<path d="M401.8,340.4c0.1,0.3,2.4,0,3,0.3c0.6,0.3,1.3,1.7,1.6,1.7c0.3-0.1,0.1-1.7,0.4-2.3c0.3-0.6,2.4-1.6,2.3-1.9
			c-0.1-0.3-2.3,0.1-3-0.3c-0.7-0.4-1.2-1.8-1.6-1.7c-0.4,0.1,0,1.6-0.4,2.3C403.8,339.2,401.7,340.1,401.8,340.4z"/>
		<path d="M320.9,332.6c-0.1-1.7-1.4-3.2-3.2-3.2c-1.7,0-3.2,1.4-3.2,3.2c0,1.7,1.4,3.1,3,3.2C319.5,335.8,320.8,334.3,320.9,332.6z
			 M316.3,332.6c0-1.9,2.8-1.8,2.9,0C319.1,334.4,316.3,334.4,316.3,332.6z"/>
		<path d="M364.9,332.6c-0.1-1.7-1.4-3.2-3.2-3.2c-1.7,0-3.2,1.4-3.2,3.2c0,1.7,1.4,3.1,3,3.2C363.4,335.8,364.8,334.3,364.9,332.6z
			 M360.2,332.6c0-1.9,2.8-1.8,2.9,0C363,334.4,360.2,334.4,360.2,332.6z"/>
		<path d="M340.3,400.7c1.8,0.1,3.2-1.4,3.3-3.2c-0.1-1.7-1.4-3.2-3.2-3.2c-1.7,0-3.2,1.4-3.2,3.2
			C337.3,399.2,338.7,400.6,340.3,400.7z M341.9,397.5c-0.1,1.8-2.9,1.9-2.9,0C339,395.6,341.8,395.7,341.9,397.5z"/>
		<path d="M312.1,371.7c-0.1-1.7-1.4-3.2-3.2-3.2c-1.7,0-3.2,1.4-3.2,3.2c0,1.7,1.4,3.1,3,3.2C310.7,374.9,312,373.4,312.1,371.7z
			 M307.5,371.7c0-1.9,2.8-1.8,2.9,0C310.3,373.5,307.5,373.5,307.5,371.7z"/>
		<path d="M375.4,371.7c-0.1-1.7-1.4-3.2-3.2-3.2c-1.7,0-3.2,1.4-3.2,3.2c0,1.7,1.4,3.1,3,3.2C374,374.9,375.3,373.4,375.4,371.7z
			 M370.8,371.7c0-1.9,2.8-1.8,2.9,0C373.6,373.5,370.8,373.5,370.8,371.7z"/>
		<polygon points="345.1,360.5 349.7,353.3 342.5,357.8 340.6,345.8 338.7,357.8 331.5,353.3 336.1,360.5 324.1,362.3 336.1,364.2 
			331.5,371.4 338.7,366.9 340.6,378.9 342.5,366.9 349.7,371.4 345.1,364.2 357.1,362.3 		"/>
		<path d="M377.9,575.3c-4.4-13.6-8.8-27.3-13.2-40.9l-1.5,1c2.8,8.8,5.7,17.7,8.5,26.4l3.7,11.4c-11.2-8.3-48-35.5-54.9-40.7
			l-0.6,1.7c6.5,4.8,36.8,27.2,44.8,33.2c4,2.9,7.9,5.9,11.9,8.8C377.2,576.7,378.1,576,377.9,575.3z"/>
		<path d="M316.3,529.5c-7.6-5.5-15.3-11.3-23-17c-3.2-2.4-6.5-4.8-9.7-7.2h67.9c-0.1-0.2-0.5-1.3-0.6-1.7H281
			c-0.9,0-1.1,1.1-0.4,1.6c11.9,8.8,23.4,17.3,35.1,25.9L316.3,529.5z"/>
		<path d="M304.3,576.3c11.6-8.6,23.2-17.1,34.8-25.7c0,0-1.3-1.1-1.3-1.2c-7.5,5.5-14.9,11-22.4,16.6l-9.8,7.3
			c4.3-13.3,18.8-58.2,21.5-66.4l-1.8,0c-2.5,7.9-14.5,44.8-17.6,54.5l-4.5,13.9C302.8,576,303.7,576.7,304.3,576.3z"/>
		<path d="M326.8,501.8c0.6,0,1.2,0.1,1.8,0c2.7-8.5,5.5-16.9,8.2-25.4c1.2-3.8,2.4-7.5,3.7-11.3c4.1,12.8,18.3,56.5,20.9,64.7
			l1.5-1.1c-2.5-7.8-17.1-52.8-17.1-52.8c-1.5-4.6-3-9.2-4.5-13.8c0-0.3-0.2-0.5-0.5-0.6c-0.1,0-0.2-0.1-0.3-0.1c0,0,0,0,0,0
			c0,0-0.1,0-0.1,0c0,0-0.1,0-0.1,0c0,0,0,0,0,0c-0.1,0-0.2,0-0.3,0.1c-0.3,0.1-0.5,0.3-0.5,0.6C335.3,475.4,331,488.6,326.8,501.8
			C326.8,501.8,326.8,501.8,326.8,501.8z"/>
		<path d="M400.4,505.2c0.7-0.5,0.5-1.6-0.4-1.6h-43.2c0.2,0.6,0.4,1.2,0.6,1.7h39.9c-11.3,8.4-48.8,36.1-55.5,41l1.5,1.1
			c6.4-4.7,45.2-33.4,45.2-33.4C392.4,511.1,396.4,508.2,400.4,505.2z"/>
		<path d="M282.8,489.6c11.1-18.4,30.6-30.2,51.5-32.2c-0.1-0.6-0.2-1.1-0.1-1.7c-18.1,1.7-35.4,10.5-47.2,25
			c-4.1,5-7.3,10.5-9.8,16.3c0.6,0.1,1.1,0.3,1.6,0.6C279.9,494.9,281.2,492.2,282.8,489.6z"/>
		<path d="M297.7,576.2c-3.2-2.6-6.2-5.5-8.9-8.8c-13.8-16.5-18.5-38.9-13.6-59.3c-0.6,0-1.1-0.1-1.6-0.2c-4.2,17.5-1.7,36.6,8,52.4
			c4,6.5,9.1,12.2,14.8,17C296.7,576.8,297.2,576.4,297.7,576.2z"/>
		<path d="M362.9,587.7c-19.2,6.8-40.3,4.2-57.3-6c-0.1,0.6-0.3,1.1-0.6,1.6c14.4,8.6,31.9,12,48.9,8.7c7.5-1.5,14.5-4.2,20.8-7.9
			c-0.3-0.5-0.6-0.9-0.8-1.5C370.4,584.7,366.8,586.4,362.9,587.7z"/>
		<path d="M405.7,508.4C405.7,508.4,405.7,508.4,405.7,508.4c1.3,5.1,2,10.5,2,15.9c-0.2,20.2-9.4,39.1-24.4,51.7
			c0.5,0.3,0.9,0.7,1.3,1.1c15.2-12.9,24.7-32.1,24.8-52.8c0-5.6-0.8-11-2.1-16.3C406.8,508.1,406.2,508.2,405.7,508.4z"/>
		<path d="M364.4,459.6c-5.6-2.1-11.4-3.4-17.3-3.9c0.1,0.6,0.2,1.1,0.3,1.7c2.2,0.2,4.4,0.5,6.6,1c21.9,4.5,39.4,19.6,48,39.2
			c0,0,0,0,0,0c0.4-0.1,0.7-0.1,1,0c0.1-0.1,0.2-0.2,0.3-0.3c0.1-0.1,0.2-0.2,0.4-0.3C396.3,480,382.3,466.2,364.4,459.6z"/>
		<path d="M340.4,460c0.3,0,0.7-2.3,1.2-2.8c0.5-0.5,2.1-0.7,2.1-1c0-0.3-1.6-0.6-2-1.1c-0.5-0.5-0.8-2.8-1.1-2.8
			c-0.3,0-0.6,2.2-1.2,2.8c-0.6,0.6-2.1,0.6-2.1,1c0,0.4,1.5,0.5,2,1.1C339.8,457.8,340,460,340.4,460z"/>
		<path d="M273.9,503.3c0.4,0.7,0,2.2,0.3,2.3c0.3,0.1,1-1.2,1.7-1.6c0.7-0.3,2.9,0.2,3-0.2c0.1-0.3-1.9-1.4-2.3-2
			c-0.3-0.7,0-2.2-0.3-2.3c-0.3-0.1-1.1,1.3-1.7,1.6c-0.6,0.3-2.9-0.2-3,0.2C271.5,501.6,273.5,502.6,273.9,503.3z"/>
		<path d="M298,583.4c0.3,0.2,1.8-1.4,2.6-1.5c0.8-0.1,2,0.7,2.3,0.4c0.2-0.3-0.9-1.3-1-2.1c-0.1-0.8,1-2.7,0.8-2.9
			c-0.3-0.2-1.9,1.4-2.6,1.5c-0.7,0.1-2.1-0.6-2.3-0.4s0.9,1.4,1,2.1C298.8,581.1,297.7,583.2,298,583.4z"/>
		<path d="M383,578.7c-0.2-0.3-1.5,0.4-2.3,0.3c-0.8-0.1-2.3-1.8-2.5-1.6c-0.3,0.2,0.8,2.2,0.7,2.9s-1.3,1.8-1.1,2
			c0.2,0.3,1.6-0.4,2.3-0.3c0.7,0.1,2.3,1.8,2.5,1.6c0.3-0.2-0.8-2.1-0.7-2.9C382,579.9,383.2,579,383,578.7z"/>
		<path d="M401.8,503.5c0.1,0.3,2.4,0,3,0.3c0.6,0.3,1.3,1.7,1.6,1.7c0.3-0.1,0.1-1.7,0.4-2.3c0.3-0.6,2.4-1.6,2.3-1.9
			c-0.1-0.3-2.3,0.1-3-0.3c-0.7-0.4-1.2-1.8-1.6-1.7c-0.4,0.1,0,1.6-0.4,2.3C403.8,502.3,401.7,503.2,401.8,503.5z"/>
		<path d="M314.6,495.7c0,1.7,1.4,3.1,3,3.2c1.8,0.1,3.2-1.4,3.3-3.2c-0.1-1.7-1.4-3.2-3.2-3.2C316,492.5,314.6,494,314.6,495.7z
			 M319.2,495.7c-0.1,1.8-2.9,1.9-2.9,0C316.3,493.8,319.1,493.8,319.2,495.7z"/>
		<path d="M364.9,495.7c-0.1-1.7-1.4-3.2-3.2-3.2c-1.7,0-3.2,1.4-3.2,3.2c0,1.7,1.4,3.1,3,3.2C363.4,498.9,364.8,497.4,364.9,495.7z
			 M360.2,495.7c0-1.9,2.8-1.8,2.9,0C363,497.5,360.2,497.5,360.2,495.7z"/>
		<path d="M340.3,563.8c1.8,0.1,3.2-1.4,3.3-3.2c-0.1-1.7-1.4-3.2-3.2-3.2c-1.7,0-3.2,1.4-3.2,3.2
			C337.3,562.3,338.7,563.7,340.3,563.8z M341.9,560.6c-0.1,1.8-2.9,1.9-2.9,0C339,558.8,341.8,558.8,341.9,560.6z"/>
		<path d="M305.8,534.8c0,1.7,1.4,3.1,3,3.2c1.8,0.1,3.2-1.4,3.3-3.2c-0.1-1.7-1.4-3.2-3.2-3.2C307.2,531.6,305.8,533.1,305.8,534.8
			z M310.4,534.8c-0.1,1.8-2.9,1.9-2.9,0C307.5,532.9,310.3,533,310.4,534.8z"/>
		<path d="M375.4,534.8c-0.1-1.7-1.4-3.2-3.2-3.2c-1.7,0-3.2,1.4-3.2,3.2c0,1.7,1.4,3.1,3,3.2C374,538,375.3,536.6,375.4,534.8z
			 M370.8,534.8c0-1.9,2.8-1.8,2.9,0C373.6,536.6,370.8,536.7,370.8,534.8z"/>
		<polygon points="345.1,523.6 349.7,516.4 342.5,520.9 340.6,508.9 338.7,520.9 331.5,516.4 336.1,523.6 324.1,525.4 336.1,527.3 
			331.5,534.5 338.7,530 340.6,542 342.5,530 349.7,534.5 345.1,527.3 357.1,525.4 		"/>
	</g>
</g>
</svg>
