<?xml version="1.0" encoding="utf-8"?>
<!-- Generator: Adobe Illustrator 21.1.0, SVG Export Plug-In . SVG Version: 6.00 Build 0)  -->
<svg version="1.1" xmlns="http://www.w3.org/2000/svg" xmlns:xlink="http://www.w3.org/1999/xlink" x="0px" y="0px"
	 viewBox="0 0 504 864" style="enable-background:new 0 0 504 864;" xml:space="preserve">
<g id="Слой_1">
</g>
<g id="Слой_2">
	<g>
		<path d="M503.8,18.2c-1.6-17.9-18.7-16.3-31.6-16.3c-45.9,0-91.8,0-137.6,0c-63.2,0-126.3,0-189.5,0c-40.6,0-81.2,0-121.8,0
			c-2.6,0-5.3-0.2-8,0.2c-9.5,1.2-15,9.2-15.2,18.2c-0.2,7.3,0,14.5,0,21.8c0,37.4,0,74.9,0,112.3c0,57,0,114.1,0,171.1
			c0,64.3,0,128.6,0,192.9c0,58.4,0,116.7,0,175.1c0,40.1,0,80.2,0,120.3c0,9.1,0,18.2,0,27.3c0,11.7,6.7,20.5,19.2,20.7
			c35.9,0.6,71.9,0,107.9,0c62.4,0,124.9,0,187.3,0c49.7,0,99.5,0,149.2,0c7.6,0,15.2,0,22.9,0c0.4,0,0.8-0.1,1.2-0.2
			c14.4-1.8,16.1-13.8,16.1-25.5c0-11.4,0-22.8,0-34.3c0-43.4,0-86.9,0-130.3c0-59.9,0-119.8,0-179.8c0-63.9,0-127.7,0-191.6
			c0-55.3,0-110.6,0-165.9c0-33.7,0-67.3,0-101C503.9,28.3,504.2,23.2,503.8,18.2z M486.6,852.8c-28.3,0-56.6,0-84.9,0
			c-59.9,0-119.8,0-179.7,0c-54,0-108,0-162,0c-13.1,0-26.1,0-39.2,0c-5.6,0-11-1.3-11.7-8.3c-0.2-1.5,0-3,0-4.5c0-26.5,0-53,0-79.5
			c0-50,0-100,0-149.9c0-61.8,0-123.6,0-185.4c0-61.4,0-122.7,0-184.1c0-48.9,0-97.7,0-146.6c0-24.2-0.8-48.6,0-72.7
			c0.2-5.3,1.6-10.1,8.3-10.8c2.2-0.2,4.5,0,6.7,0c14.8,0,29.6,0,44.5,0c55.6,0,111.3,0,166.9,0c58.9,0,117.8,0,176.7,0
			c18.9,0,37.9,0,56.8,0c8.1,0,24.7-3.1,25.9,8.4c0.5,5.2,0,10.8,0,16.1c0,13.5,0,27.1,0,40.6c0,45.5,0,91.1,0,136.6
			c0,60.1,0,120.2,0,180.3c0,62.6,0,125.2,0,187.7c0,52.8,0,105.6,0,158.4c0,31.4,0,62.7,0,94.1C494.8,840.3,496.9,852,486.6,852.8z
			"/>
		<path d="M460,790.9c1.2,0.1,2.4-0.7,2.4-2.2c0-23.7,0-47.4,0-71.1c0-56.4,0-112.8,0-169.2c0-68.7,0-137.4,0-206
			c0-59,0-117.9,0-176.9c0-19.6,0-39.2,0-58.8c0-8.9,1.3-19,0-27.9c-0.1-0.4,0-0.8,0-1.2c0-0.8-0.3-1.3-0.8-1.7
			c0.1-1.2-0.6-2.5-2.2-2.6c-13.1-0.5-25.3-13.8-25.8-26.7c0-0.5-0.2-0.8-0.4-1.1c-0.3-0.6-1-1.1-1.9-1.1c-40.5,0-80.9,0-121.4,0
			c-64.5,0-129,0-193.6,0c-14.9,0-29.7,0-44.6,0c-0.9,0-1.6,0.5-1.9,1.1c-0.2,0.3-0.3,0.7-0.4,1.2C69.1,59.5,57,72.8,43.9,73.3
			c-1.8,0.1-2.5,1.9-2,3.2c-0.2,0.3-0.2,0.6-0.2,1c0,23.7,0,47.4,0,71.1c0,56.4,0,112.8,0,169.2c0,68.7,0,137.4,0,206
			c0,59,0,117.9,0,176.9c0,19.6,0,39.2,0,58.8c0,8.9-1.3,19,0,27.9c0.1,0.4,0,0.8,0,1.2c0,0.9,0.5,1.6,1.1,1.9
			c0.3,0.2,0.7,0.3,1.2,0.4c13,0.5,25.3,13.3,25.8,26.2c0,0.5,0.2,0.8,0.4,1.1c0.3,0.6,1,1.1,1.9,1.1c40.5,0,80.9,0,121.4,0
			c64.5,0,129,0,193.6,0c14.9,0,29.7,0,44.6,0c0.9,0,1.6-0.5,1.9-1.1c0.2-0.3,0.3-0.7,0.4-1.2c0.5-12.9,12.7-25.7,25.8-26.2
			C459.6,791,459.8,790.9,460,790.9z M429.3,814.9c-39.8,0-79.6,0-119.3,0c-64.5,0-129,0-193.6,0c-14.2,0-28.3,0-42.5,0
			c-1.7-13.9-13.9-26.5-27.8-28.3c0-23,0-46,0-69.1c0-56.4,0-112.8,0-169.2c0-68.7,0-137.4,0-206c0-59,0-117.9,0-176.9
			c0-19.6,0-39.2,0-58.8c0-8.9,1.3-19,0-27.9c-0.1-0.4,0-0.8,0-1.2c14-1.8,26.1-14.9,27.8-28.7c39.8,0,79.5,0,119.3,0
			c64.5,0,129,0,193.6,0c14.2,0,28.3,0,42.5,0c1.7,14.1,14.3,27.4,28.5,28.8c0,23.7,0,47.3,0,71c0,56.4,0,112.8,0,169.2
			c0,68.7,0,137.4,0,206c0,59,0,117.9,0,176.9c0,19.6,0,39.2,0,58.8c0,8.6-1.2,18.4-0.1,27C443.6,788.1,431.1,800.9,429.3,814.9z"/>
		<path d="M242.5,100.7l-1.3-0.1l0.1-6.7c0.1-4.5,0.2-6.8,0.3-7c0.1-0.1,0.2-0.8,0.3-1.9c0.1-2.1,0.3-3.2,0.7-3.2
			c0.2,0,0.4-0.1,0.4-0.3c0-0.2,0.2-0.3,0.7-0.3c0.4,0,0.8-0.1,1-0.3s0.4-0.5,0.4-0.7c0-0.3-0.2-0.6-0.5-0.8
			c-0.3-0.2-1.4-0.3-3.4-0.3c-2,0-2.9,0.1-2.9,0.3c0,0.1-0.3,0.2-0.9,0.2c-0.6,0-0.9,0.1-0.9,0.4s-0.1,0.4-0.3,0.4
			c-0.2,0-0.3,0.2-0.3,0.6c0,0.5,0.1,0.8,0.4,0.9c0.3,0.1,0.4,0.9,0.4,2.5c0,1.6,0.1,2.4,0.3,2.5c0.2,0.1,0.3,0.8,0.3,2.2
			c0,1.3-0.1,2-0.3,2.1c-0.2,0.1-0.4,1.5-0.4,4.3c-0.1,2.4-0.2,3.9-0.4,4.3c-0.2,0.5-0.8,0.8-1.8,0.9c-0.6,0-0.9,0.1-1,0.2
			c-0.1,0.1-0.2,0.4-0.2,0.8c0,0.6,0.1,0.9,0.4,0.9c0.3,0,0.6,0.1,0.9,0.4c0.3,0.3,0.5,0.4,0.6,0.2c0.1-0.2,1.5-0.4,4-0.4
			c2.1,0,3.2,0.1,3.2,0.3c0,0.2,0.2,0.3,0.5,0.3c0.4,0,0.6-0.1,0.6-0.2c0-0.1,0.2-0.3,0.6-0.5c0.4-0.2,0.6-0.4,0.6-0.6
			C244.4,101.3,243.7,100.8,242.5,100.7z M237.9,96.6c-0.3,0-0.4-0.1-0.4-0.3c0-0.2,0.1-0.3,0.4-0.3c0.2,0,0.4,0.1,0.4,0.3
			C238.3,96.5,238.2,96.6,237.9,96.6z M239.6,89.1c-0.3,0-0.4-0.2-0.4-0.5c0-0.4,0.1-0.6,0.4-0.6c0.3,0,0.4,0.2,0.4,0.6
			C240,89,239.9,89.1,239.6,89.1z"/>
		<path d="M265.7,87.1c0.4,0,0.6-0.3,0.6-0.7c0-0.2-0.1-0.6-0.1-1c0-1,0.2-1.5,0.6-1.5c0.4,0,0.5-0.3,0.5-0.8c0-0.5,0.2-0.9,0.6-1.4
			c0.4-0.4,0.9-0.7,1.6-0.8c0.8-0.2,1.2-0.6,1.2-1.4c0-0.1,0-0.4-0.1-0.7l-0.1-0.6H267c-2.5,0-3.7,0.1-3.7,0.3
			c0,0.2-0.1,0.3-0.3,0.3c-0.3,0-0.6,0.2-0.9,0.6c-0.4,0.5-0.4,0.7-0.2,0.7c0.3,0,0.5,0.1,0.5,0.4c0.1,0.3,0.5,0.4,1.1,0.4
			c0.6,0,1,0.2,1.1,0.7c0.1,0.5,0.1,0.7-0.1,0.8c-0.2,0.1-0.3,0.5-0.3,1.3c0,0.7-0.1,1.2-0.4,1.3c-0.2,0.1-0.3,0.3-0.3,0.7
			c0,0.1,0.1,0.2,0.1,0.4c0,0.5-0.1,0.9-0.3,1.4c-0.2,0.5-0.4,0.8-0.7,0.8c-0.4,0.1-0.5,0.4-0.5,0.9c0,0.5-0.1,0.9-0.3,1.1
			c-0.2,0.2-0.4,0.8-0.4,1.7c-0.1,1-0.3,1.5-0.6,1.5c-0.4,0-0.5,0.2-0.4,0.5c0,0.2,0,0.4,0,0.4c-0.1,0.1-0.2,0.1-0.4,0.1
			c-0.4,0-0.7-0.1-0.9-0.2c-0.5-0.3-0.7-1.2-0.8-2.9c0-0.7-0.1-1.2-0.4-1.4c-0.2-0.2-0.3-0.7-0.3-1.6c0-1.3-0.3-2.2-0.9-2.6
			c-0.2-0.1-0.2-0.3,0.1-0.4c0.1,0,0.2-0.2,0.3-0.4c0.1-0.2,0.1-0.5,0.1-0.7c0-0.2-0.1-0.3-0.2-0.3c-0.1,0-0.3-0.3-0.4-0.8
			c-0.1-0.6-0.4-0.9-0.7-0.9c-0.3-0.1-0.4-0.2-0.4-0.3c0-0.4,0.5-0.5,1.4-0.5c1.3,0,1.9-0.2,1.9-0.7c0-0.2,0.1-0.4,0.3-0.4
			c0.2,0,0.1-0.3-0.3-0.8c-0.4-0.5-0.9-0.8-1.6-0.8c-0.7,0-1.1-0.1-1.2-0.3c-0.1-0.1-0.3-0.1-0.7,0.1c-0.4,0.2-0.6,0.2-0.7-0.1
			c-0.2-0.2-0.3-0.3-0.4-0.1c-0.1,0.2-0.5,0.3-1.1,0.3c-0.4,0-0.6,0-0.8-0.1c-0.1-0.1-0.2-0.3-0.3-0.7c-0.1-0.5-0.3-0.8-0.7-0.8
			c-0.2,0-0.5,0.2-0.8,0.5c-0.4,0.4-0.7,0.5-1.2,0.5c-0.4,0-0.6,0.1-0.6,0.4c0,0.3-0.1,0.4-0.3,0.4c-0.2,0-0.3,0.2-0.3,0.6
			c0,0.5,0.1,0.7,0.3,0.7c0.2,0,0.3,0.1,0.3,0.4c0,0.2,0.3,0.4,1,0.5c0.6,0.1,1.1,0.4,1.5,0.9s0.7,1.1,0.7,1.6c0,0.5,0.1,1,0.3,1.6
			c0.2,0.6,0.4,0.9,0.5,0.9c0.1,0,0.2,0.3,0.2,0.8c0,0.6,0.2,1.1,0.5,1.4c0.3,0.3,0.5,0.9,0.8,1.8c0.2,0.9,0.3,1.7,0.3,2.5
			c0,0.9,0.1,1.4,0.4,1.4c0.1,0.1,0.2,0.3,0.2,0.7c0,0.4,0.1,0.6,0.2,0.6c0.2,0.1,0.3,0.6,0.3,1.6c0,0.9,0.1,1.4,0.4,1.4
			c0.2,0,0.4,0.3,0.6,1c0.2,0.7,0.4,1,0.5,1c0.2,0,0.3,0.3,0.4,0.8c0.1,0.7,0.5,1,1.3,1c0.1,0,0.4,0,0.6-0.1
			c0.5-0.1,0.7-0.4,0.7-1.1c0-0.6,0.1-0.9,0.3-0.9c0.2,0,0.3-0.3,0.3-0.9c0-0.6,0.1-0.9,0.3-0.9c0.2-0.1,0.3-0.6,0.3-1.5
			c0-0.9,0.2-1.6,0.6-1.9c0.5-0.5,0.8-0.7,1.1-0.8c0.3-0.1,0.4-0.5,0.4-1.3c0-0.8,0.1-1.2,0.4-1.4c0.2-0.1,0.4-0.6,0.6-1.5
			c0.2-0.9,0.3-1.4,0.4-1.5c0.3-0.2,0.4-0.5,0.4-0.9C265,87.4,265.3,87.2,265.7,87.1z"/>
		<path d="M146,783.9c0-0.3-0.1-0.5-0.2-0.6c-0.1-0.1-0.1-0.2,0-0.4c0.1-0.1,0.1-0.2,0.1-0.2c0-0.1-0.1-0.2-0.2-0.2
			c-0.1-0.1-0.2-0.2-0.2-0.3c0-0.2-0.1-0.3-0.3-0.5s-0.4-0.3-0.5-0.3c-0.1,0-0.2,0-0.2,0.1c0,0.1-0.3,0.1-0.9,0.2
			c-0.5,0.1-1.1,0.1-1.7,0.1c-0.6,0-0.9,0-1,0.1c-0.1,0-0.5,0.1-1.4,0.1c-0.9,0.1-1.8,0.2-2.7,0.3c-0.9,0.1-1.4,0.2-1.4,0.2
			c0,0,0,0.1,0,0.2s0,0.2,0.1,0.3c0.1,0.2,0.1,0.3,0.2,0.4c0.1,0,0.3,0.1,0.6,0.1c0.5,0,0.9,0.1,1,0.3c0.1,0.2,0.2,0.7,0.2,1.6
			c0,0.9-0.1,1.4-0.2,1.5c-0.1,0.1-0.1,0.2,0,0.4c0.1,0.3,0.2,0.5,0,0.7c-0.1,0.2-0.2,0.3-0.3,0.3c-0.1,0,0,0.1,0.1,0.2
			c0.1,0.1,0.1,0.3,0.1,0.6c0,0.1,0,0.4-0.1,0.8c-0.1,1.4-0.2,2.3-0.2,2.6c-0.1,0.4-0.1,0.5-0.3,0.6c-0.2,0.1-0.5,0.3-0.8,0.6
			l-0.5,0.6h5v-0.5c0-0.2,0-0.4-0.1-0.4c0-0.1-0.1-0.1-0.3-0.1c-0.2,0-0.4,0-0.4-0.1c0-0.1-0.1-0.1-0.2-0.1s-0.2-0.1-0.3-0.3
			c0-0.1,0-0.4,0-1.2c0-1.2,0-2.1,0.1-2.8c0-0.1,0.5-0.1,1.4-0.1c0.8,0,1.3,0.1,1.5,0.2c0.3,0.1,0.4,0.4,0.4,0.9
			c0,0.3,0,0.5,0.1,0.5c0.1,0,0.1-0.1,0.3-0.2c0.1-0.1,0.3-0.2,0.5-0.1c0.2,0.1,0.3,0,0.3-0.2c0-0.2,0-0.3,0.1-0.4
			c0.1-0.1,0.1-0.2,0-0.2c-0.1-0.1-0.2-0.3-0.2-0.6c0-0.4,0.1-0.7,0.2-0.8c0.1-0.1,0.1-0.1,0.1-0.2c0-0.1,0-0.1-0.1-0.2
			c-0.1-0.1-0.1-0.2-0.1-0.2c0-0.1,0-0.1,0.1-0.2c0.2-0.1,0.2-0.2,0.2-0.4c0-0.3-0.4-0.4-1.1-0.4c-0.4,0-0.6,0.2-0.6,0.5
			c0,0.1,0,0.2,0.1,0.3c0.1,0.2,0,0.4,0,0.5c-0.1,0.1-0.4,0.2-1,0.3c-0.6,0.1-1.1,0.2-1.6,0.2h-0.5v-0.6c0-0.4,0.1-0.6,0.2-0.7
			c0.1-0.1,0.2-0.2,0.2-0.4c0-0.3-0.1-0.5-0.2-0.8c-0.1-0.2-0.2-0.4-0.2-0.4c0-0.1,0.1-0.1,0.2-0.3c0.2-0.2,0.3-0.4,0.2-0.6
			c0-0.1,0-0.1,0-0.2c0-0.1,0.1-0.2,0.4-0.3c0.3-0.1,0.8-0.1,1.6-0.1c0.7,0,1.1-0.1,1.1-0.1c0.3,0,0.5,0.1,0.7,0.2
			c0.2,0.2,0.3,0.3,0.5,0.4c0.2,0.1,0.3,0.2,0.3,0.3c0,0.1,0.1,0.3,0.3,0.4c0.2,0.1,0.4,0.3,0.5,0.6c0.1,0.4,0.4,0.5,0.8,0.5
			c0.1,0,0.2,0,0.3-0.1c0.1-0.1,0.2-0.2,0.2-0.6c0-0.3-0.1-0.5-0.2-0.5C146.1,784.4,146,784.2,146,783.9z"/>
		<path d="M165.6,785.7c-0.2-0.1-0.2-0.2-0.2-0.5c0-0.3,0-0.5-0.1-0.5c-0.1,0-0.1-0.1-0.1-0.4s-0.1-0.4-0.2-0.4
			c-0.1,0-0.2-0.1-0.3-0.3c-0.1-0.2-0.2-0.3-0.3-0.4c-0.1-0.1-0.2-0.2-0.2-0.4c0-0.2-0.1-0.3-0.4-0.3c-0.7,0-1-0.1-1-0.4
			c0-0.1-0.1-0.2-0.2-0.2c-0.1,0-0.2,0-0.2-0.1c0-0.1-0.1-0.1-0.3-0.1c-0.2,0-0.3-0.1-0.4-0.2c0-0.1-0.5-0.2-1.5-0.2
			c-0.9,0-1.5,0.1-1.6,0.2c-0.1,0.1-0.2,0.2-0.4,0.2c-0.2,0-0.3,0.1-0.4,0.3c-0.1,0.2-0.3,0.4-0.6,0.4c-0.3,0-0.6,0.1-1.1,0.2
			c-0.5,0.1-0.7,0.3-0.8,0.5c0,0.2-0.2,0.4-0.5,0.7c-0.3,0.3-0.4,0.5-0.4,0.5c0,0.1-0.1,0.1-0.2,0.1c-0.1,0-0.2,0.1-0.3,0.4
			c-0.1,0.2-0.2,0.4-0.3,0.7c-0.2,0.3-0.2,0.8-0.2,1.8c0,1.2,0.1,2.1,0.4,2.9c0.5,1.4,0.9,2.2,1.2,2.3c0.2,0,0.3,0.1,0.3,0.3
			c0,0.2,0.2,0.2,0.4,0.2c0.2,0,0.4,0,0.4,0.1c0,0.1,0.1,0.1,0.3,0.1s0.3,0.1,0.3,0.4c0,0.2,0,0.3,0.1,0.4c0.1,0.1,0.2,0,0.4-0.1
			c0.1-0.1,0.2-0.1,0.3,0c0.2,0.1,0.9,0.2,2.2,0.2c1.1,0,1.7-0.1,1.7-0.2c0-0.1,0.3-0.2,0.7-0.2c0.4,0,0.6-0.1,0.6-0.2
			c0-0.2,0.1-0.3,0.2-0.3c0,0,0.2-0.1,0.4-0.3c0.3-0.2,0.4-0.3,0.5-0.3c0.1,0,0.2-0.1,0.2-0.3c0.1-0.2,0.2-0.3,0.3-0.3
			c0.1,0,0.2-0.1,0.3-0.3c0-0.2,0.2-0.3,0.4-0.3c0.2-0.1,0.3-0.1,0.3-0.2c0-0.1,0.1-0.1,0.2-0.1c0.1,0,0.2-0.2,0.2-0.6
			c0-0.3,0-0.5-0.1-0.5c-0.1,0-0.1-0.1,0-0.2c0.1-0.1,0.2-0.8,0.2-2.1c0-0.3,0-0.7,0-1.1C165.9,786,165.8,785.7,165.6,785.7z
			 M163.4,788.8c-0.1,0-0.2,0.2-0.2,0.4c0,0.3-0.1,0.4-0.2,0.5c-0.1,0.1-0.2,0.4-0.3,0.8c-0.1,0.4-0.1,0.6-0.3,0.6
			c-0.1,0-0.2,0-0.2,0.1c0,0.1-0.1,0.2-0.4,0.2c-0.3,0.1-0.4,0.2-0.4,0.3c0,0.1,0,0.2-0.1,0.2c-0.1,0.1-0.2,0.1-0.4,0.2
			c-0.1,0.1-0.2,0.1-0.3,0.1c0,0.1-0.2,0.1-0.4,0.1c-0.2,0-0.3,0.1-0.5,0.2c-0.1,0.1-0.2,0.1-0.4,0.1c-0.2,0-0.4,0-0.7-0.1
			c-0.5-0.1-1-0.3-1.3-0.6c-0.3-0.3-0.7-0.8-1-1.5c-0.3-0.5-0.4-0.9-0.5-1.1c0-0.2-0.1-0.7-0.1-1.4c0-0.7,0-1.1,0.1-1.4
			c0-0.2,0.1-0.5,0.3-0.8c0.3-0.5,0.6-0.9,1-1.3c0.4-0.4,0.8-0.6,1-0.7c0.3,0,0.5-0.1,0.5-0.3c0-0.1,0.1-0.2,0.2-0.2
			c0.1,0,0.2,0,0.2-0.1c0-0.1,0.1-0.1,0.3-0.1c0.2,0,0.3,0,0.3,0.1c0,0.1,0.3,0.1,0.9,0.1c0.5,0,0.8,0.1,0.8,0.2
			c0,0.1,0.1,0.2,0.3,0.3c0.2,0.1,0.3,0.2,0.3,0.3s0.1,0.2,0.3,0.3c0.3,0.1,0.5,0.4,0.5,0.8c0,0.2,0.1,0.5,0.3,0.8
			c0.2,0.3,0.3,0.7,0.3,1.1c0,0.5,0,0.7,0.1,0.8c0.1,0.1,0.1,0.2,0.1,0.4C163.6,788.6,163.6,788.7,163.4,788.8z"/>
		<path d="M184.5,781.9h-0.2c-0.4,0-0.8-0.1-1.1-0.3c-0.3-0.2-0.4-0.2-0.4,0c0,0.1-0.1,0.2-0.2,0.2c-0.1,0-0.4,0-0.8,0.1
			c-0.7,0-1,0-1.1,0.1c-0.1,0.1-0.1,0.3-0.1,0.7l0,0.6c0.2,0,0.5,0,0.8,0.1c0.4,0,0.7,0.1,0.8,0.1v2.4c0,1.6,0.1,2.4,0.2,2.5
			c0,0,0.1,0,0.1,0.1c0,0,0,0.1,0,0.1s-0.1,0.1-0.1,0.1c-0.1,0.2-0.2,0.4-0.2,0.5v0.2c0,0.3,0,0.6-0.1,0.9c-0.1,0.3-0.2,0.5-0.3,0.6
			c-0.1,0.1-0.2,0.1-0.2,0.3c0,0.1-0.1,0.3-0.3,0.5c-0.2,0.2-0.4,0.2-0.6,0.2c-0.3,0-0.4,0.1-0.6,0.2c-0.1,0.1-0.2,0.2-0.5,0.2
			c0,0-0.2,0-0.5-0.1c-0.5-0.1-0.7-0.2-0.8-0.2c0-0.1-0.2-0.1-0.4-0.1c-0.2,0-0.5-0.1-0.8-0.2c-0.2-0.1-0.3-0.2-0.4-0.2
			c0-0.1-0.1-0.2-0.1-0.5v-0.4v-0.2c0-0.4-0.1-0.7-0.2-0.8c-0.1,0-0.2-0.1-0.2-0.3c0-0.2,0.1-0.3,0.2-0.4c0.1-0.1,0.1-0.1,0-0.2
			c-0.1,0-0.1-0.1-0.2-0.2c0-0.1,0-0.2,0-0.3c0-0.1,0.1-0.1,0.1-0.1c0.1,0,0.1-0.3,0.1-0.9c0-1-0.1-1.5-0.2-1.6
			c-0.1-0.1-0.1-0.2,0-0.3c0.1-0.1,0.2-0.4,0.2-0.9c0-0.1,0-0.2-0.1-0.3c0-0.1-0.1-0.2-0.1-0.3l0-0.1c0,0,0.1,0,0.3-0.1
			c0.2,0,0.4,0,0.6-0.1c0.2,0,0.5,0,0.6,0c0.1,0,0.1,0,0.2,0c0.1,0,0.1,0,0.1,0h0c0.1,0,0.1-0.1,0.1-0.2c0-0.1,0-0.4-0.1-0.6
			c0-0.2-0.1-0.4-0.3-0.5c-0.2-0.1-0.5-0.1-1-0.1c-0.2,0-0.7,0-1.6,0.1c-1.4,0.1-2.2,0.2-2.4,0.4c-0.2,0.2-0.3,0.4-0.3,0.6
			c0,0.4,0.4,0.6,1.1,0.7c0.5,0.1,0.8,0.2,0.8,0.4c0,0.1-0.1,0.2-0.2,0.3c-0.1,0.1-0.2,0.2-0.2,0.3c0,0.1,0,0.2,0.1,0.5
			c0.1,0.4,0.1,0.6,0,0.7c-0.1,0.1-0.2,0.1-0.3,0.1c-0.1,0-0.1,0.1-0.1,0.1c0,0.2,0.1,0.4,0.4,0.5c0.3,0.1,0.4,0.2,0.4,0.4
			c0,0.1-0.1,0.2-0.2,0.3c-0.2,0.1-0.2,0.4-0.2,1v0.4c0,0.8,0.1,1.3,0.2,1.4c0.1,0.1,0.1,0.3,0.1,0.5c0,0.2,0,0.3-0.1,0.3
			c-0.1,0-0.1,0.1-0.2,0.4c-0.1,0.3,0,0.4,0.2,0.5c0.2,0.1,0.3,0.3,0.5,0.7c0.1,0.3,0.2,0.5,0.3,0.5c0.1,0,0.1,0.1,0.2,0.4
			c0.1,0.3,0.2,0.4,0.4,0.4c0.2,0,0.4,0.1,0.5,0.2c0.1,0.1,1,0.2,2.7,0.2c1.4,0,2-0.1,2-0.2c0-0.1,0-0.2,0.1-0.2
			c0.1,0,0.2-0.1,0.3-0.2c0.1-0.2,0.2-0.2,0.4-0.2c0.2,0,0.3-0.1,0.3-0.3c0-0.2,0.2-0.3,0.5-0.3h0.2h0.1c0.3,0,0.5,0,0.5-0.1
			c0,0-0.1-0.1-0.2-0.2c-0.1-0.1-0.2-0.1-0.2-0.3c0-0.1,0.1-0.3,0.2-0.5c0.1-0.2,0.2-0.4,0.2-0.5c0,0,0-0.1-0.1-0.1
			c-0.1,0-0.2-0.1-0.2-0.3c0-0.1,0.1-0.2,0.2-0.3c0.1,0,0.2-0.2,0.2-0.4c0-0.3,0.1-0.6,0.1-1c0-0.4,0-0.6,0-0.7
			c0.1-0.4,0.1-1.1,0.1-2.2c0-1,0.1-1.5,0.2-1.6c0.1-0.1,0.2-0.2,0-0.2c-0.1-0.1-0.2-0.1-0.2-0.2c0-0.1,0.1-0.3,0.3-0.4
			c0.2-0.1,0.4-0.2,0.6-0.2c0.1,0,0.2,0,0.2,0c0,0,0.1,0,0.2,0c0.3,0,0.4-0.1,0.4-0.4c0-0.1,0-0.1-0.1-0.2c-0.1-0.1-0.1-0.2,0-0.2
			c0.1,0,0.2-0.1,0.2-0.2C185.6,782,185.3,781.9,184.5,781.9z"/>
		<path d="M194.1,779.4c0,0.1,0.1,0.2,0.3,0.2c0.2,0,0.3-0.1,0.3-0.2c0-0.1-0.1-0.1-0.3-0.1C194.2,779.2,194.1,779.3,194.1,779.4z"
			/>
		<path d="M198.5,780.4c0.1,0.1,0.3,0.1,0.4,0c0,0,0,0,0.1,0c0.1-0.1,0.1-0.1,0.1-0.1c0,0-0.1,0-0.3,0
			C198.7,780.2,198.6,780.3,198.5,780.4z"/>
		<path d="M206,792.7c-0.1,0-0.2-0.1-0.3-0.4c-0.1-0.2-0.3-0.4-0.5-0.4c-0.2,0-0.4-0.1-0.6-0.2c-0.2-0.1-0.4-0.2-0.4-0.4
			c-0.1-0.1-0.1-0.2-0.3-0.2s-0.3-0.1-0.6-0.4c-0.2-0.3-0.4-0.6-0.6-0.9c-0.1-0.3-0.4-0.6-0.8-1.1c-0.4-0.5-0.7-0.7-0.8-0.7
			c-0.1,0-0.2-0.1-0.4-0.3c-0.1-0.1-0.2-0.2-0.1-0.3c0,0,0.1-0.1,0.3-0.2c0.8-0.3,1.2-0.6,1.2-0.9c0-0.5,0.1-0.7,0.3-0.7
			c0.1,0,0.2-0.1,0.4-0.2c0.2-0.2,0.2-0.7,0.2-1.5c0-1-0.1-1.5-0.3-1.7c-0.1-0.1-0.2-0.2-0.4-0.2c-0.1,0-0.2,0-0.2-0.1
			c0-0.1-0.1-0.2-0.4-0.3c-0.3-0.1-0.4-0.3-0.5-0.5l-0.2-0.3c-0.1-0.1-0.2-0.1-0.2,0.1c0,0.1-0.3,0.1-0.8,0.1c-0.6,0-0.9,0-0.9-0.1
			s-0.1-0.1-0.4-0.1c-0.3,0-0.5-0.1-0.6-0.3c-0.2-0.2-0.3-0.3-0.4-0.3s-0.2,0.1-0.1,0.3c0,0,0,0,0,0.1v0.1c0,0.1-0.6,0.2-1.8,0.2
			H194l-0.5,0.5c-0.3,0.3-0.5,0.6-0.5,0.7c0,0.1,0.2,0.2,0.5,0.3c0.3,0.1,0.5,0.1,0.5,0.2c0,0.1,0,0.1,0.1,0.1
			c0.2,0,0.4,0.2,0.6,0.5c0.2,0.3,0.3,0.7,0.3,1.2c0,0.4,0.1,0.6,0.1,0.6c0,0.2-0.1,0.4-0.2,0.5c-0.2,0.1-0.2,0.2-0.1,0.3
			c0.1,0.1,0.2,0.3,0.2,0.7c0,0.3-0.1,0.5-0.2,0.5c-0.1,0-0.2,0,0,0.1c0.1,0.1,0.2,0.2,0.2,0.4s-0.1,0.4-0.2,0.5
			c-0.1,0.1-0.1,0.3,0.1,0.4c0.1,0.1,0.2,0.3,0.2,0.4c0,0.1-0.1,0.3-0.2,0.4c-0.2,0.2-0.3,0.7-0.3,1.6c0,0.7,0,1.1-0.1,1.2
			c0,0.1-0.1,0.2-0.3,0.3c-0.2,0.1-0.3,0.1-0.3,0.2c0,0.1-0.3,0.1-0.8,0.1c-0.4,0-0.6,0.1-0.7,0.1c-0.1,0.1-0.1,0.2-0.1,0.5
			c0,0.2,0.2,0.5,0.6,0.8c0.2,0.1,0.3,0.2,0.5,0.2c0.2,0,0.3-0.1,0.3-0.2c0.1-0.1,0.8-0.2,2.1-0.2c1.3,0,2.1-0.1,2.2-0.3
			c0.1-0.1,0.2-0.2,0.3-0.2c0.1,0,0.2-0.1,0.2-0.2c0-0.1-0.1-0.2-0.4-0.2c-0.3,0-0.4-0.1-0.5-0.3c0-0.2-0.2-0.3-0.5-0.4
			c-0.4-0.1-0.5-0.2-0.5-0.4c0-0.1,0-0.2,0.1-0.3c0.2-0.2,0.2-0.3,0.1-0.4c-0.1,0-0.2-0.6-0.2-1.6c0-0.3,0-0.6,0-1
			c0-0.3,0-0.4,0.1-0.5c0-0.1,0.1-0.1,0.2-0.1c0.5,0,1,0.2,1.5,0.5c0.5,0.4,0.8,0.7,0.8,1c0,0.2,0.1,0.3,0.2,0.3
			c0.1,0,0.2,0.1,0.2,0.4c0,0.5,0.3,0.8,0.8,1c0.2,0.1,0.4,0.3,0.5,0.7c0.1,0.4,0.3,0.8,0.7,1.2l0.6,0.7l0.9-0.1
			c0.1,0,0.3,0,0.6-0.1c0.3,0,0.6,0,0.8-0.1c0.2,0,0.4-0.1,0.7-0.1c0.3-0.1,0.4-0.1,0.6-0.2c0.1-0.1,0.2-0.2,0.2-0.3
			C206.1,792.8,206.1,792.7,206,792.7z M200.3,785.9c-0.1,0-0.2,0-0.2,0.1c-0.1,0-0.1,0,0,0.1c0.2,0,0.2,0.1,0.2,0.2
			c0,0.1-0.1,0.3-0.4,0.4c-0.2,0.2-0.5,0.3-0.7,0.3c-0.3,0-0.6,0.1-1.1,0.2c-0.1,0-0.2,0-0.3,0c-0.2,0-0.4-0.1-0.7-0.3
			c-0.2-0.2-0.3-0.3-0.4-0.3c0-0.1,0-0.1,0.1-0.2c0.1-0.1,0.2-0.7,0.2-1.6v-1.2c0-0.3,0.1-0.5,0.2-0.7c0.1-0.2,0.3-0.4,0.4-0.4h0.1
			l0.4,0.1c0.3,0,0.5,0.1,0.8,0.1c0.2,0.1,0.4,0.1,0.4,0.1c0,0.1,0.1,0.1,0.4,0.2c0.3,0.1,0.4,0.2,0.4,0.3c0,0.1,0.1,0.3,0.2,0.4
			c0.1,0.1,0.2,0.2,0.1,0.3c-0.1,0.1-0.1,0.3,0.1,0.6c0.1,0.2,0.2,0.5,0.2,0.8v0.1c0,0.2-0.1,0.4-0.1,0.4
			C200.7,785.8,200.5,785.9,200.3,785.9z"/>
		<path d="M237.4,785.7c-0.2-0.1-0.2-0.2-0.2-0.5c0-0.3,0-0.5-0.1-0.5c-0.1,0-0.1-0.1-0.1-0.4s-0.1-0.4-0.2-0.4
			c-0.1,0-0.2-0.1-0.3-0.3c-0.1-0.2-0.2-0.3-0.3-0.4c-0.1-0.1-0.2-0.2-0.2-0.4c0-0.2-0.1-0.3-0.4-0.3c-0.7,0-1-0.1-1-0.4
			c0-0.1-0.1-0.2-0.2-0.2c-0.1,0-0.2,0-0.2-0.1c0-0.1-0.1-0.1-0.3-0.1c-0.2,0-0.3-0.1-0.4-0.2c0-0.1-0.5-0.2-1.5-0.2
			c-0.9,0-1.5,0.1-1.6,0.2c-0.1,0.1-0.2,0.2-0.4,0.2c-0.2,0-0.3,0.1-0.4,0.3c-0.1,0.2-0.3,0.4-0.6,0.4c-0.3,0-0.6,0.1-1.1,0.2
			c-0.5,0.1-0.7,0.3-0.8,0.5c0,0.2-0.2,0.4-0.5,0.7c-0.3,0.3-0.4,0.5-0.4,0.5c0,0.1-0.1,0.1-0.2,0.1c-0.1,0-0.2,0.1-0.3,0.4
			c-0.1,0.2-0.2,0.4-0.3,0.7c-0.2,0.3-0.2,0.8-0.2,1.8c0,1.2,0.1,2.1,0.4,2.9c0.5,1.4,0.9,2.2,1.2,2.3c0.2,0,0.3,0.1,0.3,0.3
			c0,0.2,0.2,0.2,0.4,0.2c0.2,0,0.4,0,0.4,0.1c0,0.1,0.1,0.1,0.3,0.1c0.2,0,0.3,0.1,0.3,0.4c0,0.2,0,0.3,0.1,0.4
			c0.1,0.1,0.2,0,0.4-0.1c0.1-0.1,0.2-0.1,0.3,0c0.2,0.1,0.9,0.2,2.2,0.2c1.1,0,1.7-0.1,1.7-0.2c0-0.1,0.3-0.2,0.7-0.2
			c0.4,0,0.6-0.1,0.6-0.2c0-0.2,0.1-0.3,0.2-0.3c0,0,0.2-0.1,0.4-0.3c0.3-0.2,0.4-0.3,0.5-0.3c0.1,0,0.2-0.1,0.2-0.3
			c0.1-0.2,0.2-0.3,0.3-0.3c0.1,0,0.2-0.1,0.3-0.3c0-0.2,0.2-0.3,0.4-0.3c0.2-0.1,0.3-0.1,0.3-0.2c0-0.1,0.1-0.1,0.2-0.1
			c0.1,0,0.2-0.2,0.2-0.6c0-0.3,0-0.5-0.1-0.5c-0.1,0-0.1-0.1,0-0.2c0.1-0.1,0.2-0.8,0.2-2.1c0-0.3,0-0.7,0-1.1
			C237.6,786,237.6,785.7,237.4,785.7z M235.2,788.8c-0.1,0-0.2,0.2-0.2,0.4c0,0.3-0.1,0.4-0.2,0.5c-0.1,0.1-0.2,0.4-0.3,0.8
			c-0.1,0.4-0.1,0.6-0.3,0.6c-0.1,0-0.2,0-0.2,0.1c0,0.1-0.1,0.2-0.4,0.2c-0.3,0.1-0.4,0.2-0.4,0.3c0,0.1,0,0.2-0.1,0.2
			c-0.1,0.1-0.2,0.1-0.4,0.2c-0.1,0.1-0.2,0.1-0.3,0.1c0,0.1-0.2,0.1-0.4,0.1c-0.2,0-0.3,0.1-0.5,0.2c-0.1,0.1-0.2,0.1-0.4,0.1
			c-0.2,0-0.4,0-0.7-0.1c-0.5-0.1-1-0.3-1.3-0.6c-0.3-0.3-0.7-0.8-1-1.5c-0.3-0.5-0.4-0.9-0.5-1.1c0-0.2-0.1-0.7-0.1-1.4
			c0-0.7,0-1.1,0.1-1.4c0-0.2,0.1-0.5,0.3-0.8c0.3-0.5,0.6-0.9,1-1.3c0.4-0.4,0.8-0.6,1-0.7c0.3,0,0.5-0.1,0.5-0.3
			c0-0.1,0.1-0.2,0.2-0.2c0.1,0,0.2,0,0.2-0.1c0-0.1,0.1-0.1,0.3-0.1c0.2,0,0.3,0,0.3,0.1c0,0.1,0.3,0.1,0.9,0.1
			c0.5,0,0.8,0.1,0.8,0.2c0,0.1,0.1,0.2,0.3,0.3c0.2,0.1,0.3,0.2,0.3,0.3s0.1,0.2,0.3,0.3c0.3,0.1,0.5,0.4,0.5,0.8
			c0,0.2,0.1,0.5,0.3,0.8c0.2,0.3,0.3,0.7,0.3,1.1c0,0.5,0,0.7,0.1,0.8c0.1,0.1,0.1,0.2,0.1,0.4
			C235.4,788.6,235.3,788.7,235.2,788.8z"/>
		<path d="M255.2,783.9c0-0.3-0.1-0.5-0.2-0.6c-0.1-0.1-0.1-0.2,0-0.4c0.1-0.1,0.1-0.2,0.1-0.2c0-0.1-0.1-0.2-0.2-0.2
			c-0.1-0.1-0.2-0.2-0.2-0.3c0-0.2-0.1-0.3-0.3-0.5s-0.4-0.3-0.5-0.3c-0.1,0-0.2,0-0.2,0.1c0,0.1-0.3,0.1-0.9,0.2
			c-0.5,0.1-1.1,0.1-1.7,0.1c-0.6,0-0.9,0-1,0.1c-0.1,0-0.5,0.1-1.4,0.1c-0.9,0.1-1.8,0.2-2.7,0.3c-0.9,0.1-1.4,0.2-1.4,0.2
			c0,0,0,0.1,0,0.2s0,0.2,0.1,0.3c0.1,0.2,0.1,0.3,0.2,0.4c0.1,0,0.3,0.1,0.6,0.1c0.5,0,0.9,0.1,1,0.3c0.1,0.2,0.2,0.7,0.2,1.6
			c0,0.9-0.1,1.4-0.2,1.5c-0.1,0.1-0.1,0.2,0,0.4c0.1,0.3,0.2,0.5,0,0.7c-0.1,0.2-0.2,0.3-0.3,0.3c-0.1,0,0,0.1,0.1,0.2
			c0.1,0.1,0.1,0.3,0.1,0.6c0,0.1,0,0.4-0.1,0.8c-0.1,1.4-0.2,2.3-0.2,2.6c-0.1,0.4-0.1,0.5-0.3,0.6c-0.2,0.1-0.5,0.3-0.8,0.6
			l-0.5,0.6h5v-0.5c0-0.2,0-0.4-0.1-0.4c0-0.1-0.1-0.1-0.3-0.1c-0.2,0-0.4,0-0.4-0.1c0-0.1-0.1-0.1-0.2-0.1s-0.2-0.1-0.3-0.3
			c0-0.1,0-0.4,0-1.2c0-1.2,0-2.1,0.1-2.8c0-0.1,0.5-0.1,1.4-0.1c0.8,0,1.3,0.1,1.5,0.2c0.3,0.1,0.4,0.4,0.4,0.9
			c0,0.3,0,0.5,0.1,0.5c0.1,0,0.1-0.1,0.3-0.2c0.1-0.1,0.3-0.2,0.5-0.1c0.2,0.1,0.3,0,0.3-0.2c0-0.2,0-0.3,0.1-0.4
			c0.1-0.1,0.1-0.2,0-0.2c-0.1-0.1-0.2-0.3-0.2-0.6c0-0.4,0.1-0.7,0.2-0.8c0.1-0.1,0.1-0.1,0.1-0.2c0-0.1,0-0.1-0.1-0.2
			c-0.1-0.1-0.1-0.2-0.1-0.2c0-0.1,0-0.1,0.1-0.2c0.2-0.1,0.2-0.2,0.2-0.4c0-0.3-0.4-0.4-1.1-0.4c-0.4,0-0.6,0.2-0.6,0.5
			c0,0.1,0,0.2,0.1,0.3c0.1,0.2,0,0.4,0,0.5c-0.1,0.1-0.4,0.2-1,0.3c-0.6,0.1-1.1,0.2-1.6,0.2h-0.5v-0.6c0-0.4,0.1-0.6,0.2-0.7
			c0.1-0.1,0.2-0.2,0.2-0.4c0-0.3-0.1-0.5-0.2-0.8c-0.1-0.2-0.2-0.4-0.2-0.4c0-0.1,0.1-0.1,0.2-0.3c0.2-0.2,0.3-0.4,0.2-0.6
			c0-0.1,0-0.1,0-0.2c0-0.1,0.1-0.2,0.4-0.3c0.3-0.1,0.8-0.1,1.6-0.1c0.7,0,1.1-0.1,1.1-0.1c0.3,0,0.5,0.1,0.7,0.2
			c0.2,0.2,0.3,0.3,0.5,0.4c0.2,0.1,0.3,0.2,0.3,0.3c0,0.1,0.1,0.3,0.3,0.4c0.2,0.1,0.4,0.3,0.5,0.6c0.1,0.4,0.4,0.5,0.8,0.5
			c0.1,0,0.2,0,0.3-0.1c0.1-0.1,0.2-0.2,0.2-0.6c0-0.3-0.1-0.5-0.2-0.5C255.3,784.4,255.2,784.2,255.2,783.9z"/>
		<path d="M290.8,782.4c-0.1,0-0.3,0-0.5,0c-0.2,0-0.4,0-0.4,0c-0.4,0-0.6,0-0.7,0.1c-0.1,0-0.3,0.1-0.4,0.3
			c-0.2,0.2-0.3,0.3-0.3,0.4c0,0.1,0,0.1,0.2,0.2c0.3,0.2,0.5,0.2,0.7,0.2c0.3,0,0.4,0.1,0.5,0.3c0.1,0.2,0,0.3-0.1,0.4
			c-0.1,0-0.2,0.2-0.2,0.6c0,0.4-0.1,0.6-0.2,0.6c-0.2,0.1-0.2,0.2-0.2,0.4v0.4c0,0.6-0.1,0.9-0.3,0.9c-0.1,0-0.2,0.1-0.3,0.3
			c0,0.2-0.1,0.7-0.3,1.5c-0.1,0.4-0.2,0.6-0.4,0.6c-0.1,0-0.2,0.1-0.2,0.2c0,0.1,0,0.2-0.2,0.2c-0.3,0-0.4-0.1-0.5-0.2
			c-0.1-0.2-0.2-0.5-0.3-0.9c-0.1-0.4-0.2-1-0.2-1.7c-0.1-0.5-0.2-0.8-0.3-0.9c-0.1-0.1-0.1-0.4-0.1-0.7c0-0.3,0-0.5-0.1-0.5
			c-0.1,0-0.1-0.1-0.1-0.4c0-0.2-0.1-0.4-0.2-0.5c-0.1-0.1-0.2-0.1-0.2-0.2c0-0.1,0.2-0.2,0.6-0.2c0.4,0,0.7-0.1,0.9-0.3
			c0.1-0.1,0.2-0.2,0.2-0.3c0-0.1,0-0.2-0.1-0.4c-0.1-0.2-0.3-0.4-0.6-0.5c-0.3-0.1-0.8-0.1-1.6-0.1c-0.6,0-1-0.1-1-0.3
			c-0.1-0.2-0.1-0.3-0.2-0.3c-0.1,0-0.2,0.1-0.5,0.3c-0.3,0.2-0.4,0.3-0.5,0.3c-0.3,0-0.5,0.2-0.6,0.6v0.1l0,0.1
			c0,0.3,0.3,0.6,0.9,0.7c0.1,0,0.3,0.1,0.4,0.1c0.1,0.1,0.1,0.2,0.1,0.2s-0.1,0.1-0.2,0.1c-0.1,0-0.1,0.2-0.1,0.6
			c0,0.4-0.1,0.6-0.2,0.6c-0.1,0-0.1,0.2-0.1,0.5c0,0.7-0.2,1.1-0.5,1.2c-0.1,0-0.2,0.1-0.3,0.3c-0.1,0.2-0.1,0.7-0.3,1.5
			c-0.1,0.4-0.2,0.6-0.4,0.6c-0.2,0-0.2,0.1-0.2,0.2c0,0.1,0,0.2-0.2,0.2c-0.3,0-0.5-0.1-0.6-0.2c-0.1-0.2-0.2-0.5-0.2-0.9
			c0-0.6-0.1-0.9-0.2-1c-0.1-0.1-0.1-0.3-0.1-0.6c0-0.4-0.1-0.7-0.2-0.9c-0.1-0.3-0.2-0.5-0.1-0.8c0-0.3,0-0.5-0.1-0.5
			c-0.1,0-0.2-0.1-0.2-0.4c0-0.2-0.1-0.4-0.2-0.5c-0.1-0.1-0.2-0.1-0.2-0.2c0-0.1,0.2-0.2,0.6-0.2c0.4,0,0.7-0.1,0.9-0.3
			c0.1-0.1,0.2-0.2,0.2-0.3c0-0.1-0.1-0.2-0.2-0.4c-0.1-0.2-0.2-0.3-0.4-0.4c-0.2-0.1-0.5-0.1-0.9-0.1c-0.1,0-0.2,0-0.4,0
			c-0.2,0-0.4,0-0.5,0h-0.4c-0.3,0-0.4,0-0.5-0.1c-0.1,0-0.1-0.1-0.2-0.3c-0.1-0.2-0.1-0.4-0.3-0.4c-0.1,0-0.2,0.1-0.5,0.3
			c-0.2,0.2-0.4,0.3-0.5,0.3c-0.1,0-0.3,0.1-0.4,0.2c-0.1,0.1-0.2,0.3-0.2,0.4c0,0.4,0.3,0.7,0.9,0.8c0.5,0.1,0.9,0.6,1,1.6
			c0.1,0.4,0.2,0.6,0.3,0.8c0.1,0.1,0.2,0.4,0.2,0.7c0,0.3,0.1,0.5,0.2,0.6c0.4,0.4,0.5,1.1,0.5,1.9c0,0.4,0,0.6,0.1,0.7
			c0.1,0.1,0.1,0.2,0.1,0.4c0,0.2,0,0.3,0.1,0.4c0.1,0.1,0.2,0.3,0.2,0.8c0,0.4,0.1,0.6,0.2,0.6c0.1,0,0.2,0.2,0.2,0.5
			c0,0.3,0.1,0.5,0.2,0.5c0.1,0,0.2,0.1,0.3,0.4c0.1,0.3,0.3,0.5,0.6,0.5c0.1,0,0.3-0.1,0.4-0.2c0.1-0.1,0.2-0.3,0.2-0.4
			c0-0.3,0-0.4,0.1-0.4c0.1,0,0.2-0.1,0.2-0.4c0-0.3,0-0.5,0.1-0.5c0.1,0,0.2-0.2,0.2-0.5c0-0.3,0.1-0.6,0.3-0.9
			c0.2-0.3,0.4-0.5,0.6-0.6c0.2-0.1,0.3-0.3,0.3-0.6c0-0.4,0.1-0.6,0.2-0.6c0.1,0,0.2-0.2,0.2-0.5c0-0.3,0.1-0.6,0.2-0.8
			c0.1-0.2,0.2-0.4,0.1-0.5c-0.1-0.2,0.1-0.3,0.4-0.4c0.3-0.1,0.4-0.2,0.5-0.3c0.1,0,0.1,0.1,0.1,0.4c0,0.4,0.1,0.6,0.2,0.8
			c0.4,0.5,0.6,1.1,0.6,1.9c0,0.4,0,0.6,0.1,0.6c0.1,0,0.1,0.1,0.1,0.4c-0.1,0.2,0,0.4,0.1,0.5c0.1,0.1,0.2,0.3,0.2,0.8
			c0,0.4,0.1,0.6,0.2,0.6c0.2,0,0.2,0.2,0.2,0.5c0,0.3,0.1,0.5,0.2,0.5c0.1,0,0.2,0.1,0.3,0.4c0.1,0.3,0.3,0.5,0.6,0.5
			c0.1,0,0.3-0.1,0.4-0.2c0.1-0.1,0.2-0.3,0.2-0.4c0-0.3,0.1-0.4,0.2-0.4c0.1,0,0.1-0.1,0.1-0.4c0-0.3,0-0.5,0.1-0.5
			c0.1,0,0.2-0.2,0.2-0.5c0-0.3,0.1-0.6,0.3-1c0.2-0.4,0.4-0.6,0.5-0.6c0.1,0,0.2-0.2,0.2-0.6c0-0.5,0.1-0.7,0.2-0.7
			c0.1,0,0.2-0.2,0.2-0.5c0-0.3,0.1-0.6,0.2-0.8c0.1-0.2,0.2-0.4,0.2-0.6c0-0.1,0.1-0.2,0.4-0.3c0.3-0.1,0.4-0.2,0.4-0.3
			c0-0.1,0-0.1,0-0.2c0-0.1,0-0.1,0-0.2c0-0.6,0.1-0.9,0.3-0.9c0.1,0,0.1-0.1,0.2-0.4c0-0.3,0.1-0.4,0.2-0.4c0.1,0,0.2-0.1,0.2-0.2
			c0-0.1,0.1-0.2,0.4-0.2c0.3,0,0.5-0.1,0.6-0.2c0.1-0.1,0.2-0.3,0.2-0.6l0-0.4L290.8,782.4z"/>
		<path d="M313.1,792.9c-0.1,0-0.1-0.1-0.2-0.4c-0.1-0.2-0.1-0.3-0.2-0.3c0,0-0.3,0.1-0.8,0.2c0,0-0.1,0-0.2,0c-0.4,0-0.7-0.6-1-1.7
			c-0.2-0.8-0.4-1.3-0.4-1.4c-0.1-0.1-0.2-0.3-0.2-0.5c-0.1-0.4-0.3-1.3-0.8-2.8c-0.5-1.5-0.7-2.4-0.8-2.7c-0.2-1-0.4-1.5-0.5-1.7
			c-0.1-0.2-0.2-0.3-0.4-0.3c-0.3-0.1-0.4,0-0.5,0.1c-0.1,0.1-0.2,0.2-0.4,0.2c-0.2,0-0.4,0.1-0.4,0.2c0,0.1-0.1,0.1-0.2,0.1
			c-0.1,0-0.2,0.2-0.4,0.6c-0.2,0.4-0.3,0.8-0.5,1.2s-0.2,0.6-0.3,0.7c-0.1,0.1-0.1,0.2-0.1,0.4c0,0.2-0.1,0.6-0.4,1.2
			c-0.3,0.6-0.5,1.1-0.5,1.5c-0.1,0.4-0.2,0.6-0.2,0.7c-0.1,0.1-0.2,0.3-0.4,0.8c-0.2,0.5-0.3,0.7-0.3,0.8c-0.1,0.2-0.2,0.4-0.2,0.5
			c0,0.2,0,0.2-0.1,0.2c-0.1,0-0.2,0.1-0.3,0.4c-0.1,0.2-0.2,0.4-0.2,0.6c0,0.1-0.2,0.3-0.5,0.6c-0.3,0.3-0.5,0.4-0.7,0.4
			c-0.2,0-0.3,0.1-0.5,0.4c-0.2,0.2-0.4,0.4-0.5,0.4c-0.1,0-0.2,0.1-0.4,0.4c-0.1,0.2-0.1,0.3-0.1,0.4c0,0.1,0.1,0.3,0.4,0.5
			l0.5,0.4l2-0.1c1.1,0,1.8-0.1,2.1-0.1c0.3,0,0.5-0.1,0.5-0.2c0,0,0-0.1-0.1-0.2c-0.1-0.2-0.1-0.3,0.1-0.3c0.1,0,0.2-0.1,0.2-0.2
			c0-0.1-0.1-0.2-0.2-0.2c-0.1,0-0.3-0.1-0.4-0.2c-0.1-0.1-0.4-0.2-0.7-0.3c-0.5-0.1-0.7-0.3-0.7-0.5c0-0.1,0-0.2,0.1-0.3
			c0.1-0.2,0.2-0.3,0.2-0.5c0-0.1,0-0.2,0.1-0.2c0.1,0,0.1-0.2,0.1-0.7v-0.7h0.6c0.4,0,0.7-0.1,0.7-0.2c0.1-0.2,0.6-0.2,1.5-0.2h0.4
			c0.7,0,1,0,1.1,0.1c0.1,0.1,0.2,0.4,0.2,0.8c0,0.5,0.1,0.8,0.3,0.9c0.2,0.2,0.3,0.4,0.3,0.6c0,0,0,0,0,0.1c0,0,0,0.1,0,0.1
			c0,0.3-0.1,0.4-0.1,0.5c-0.1,0.1-0.3,0.1-0.6,0.2c-0.5,0.1-0.7,0.2-0.8,0.3c0,0.1-0.1,0.1-0.3,0.1c-0.2,0-0.3,0.1-0.3,0.3
			c0,0.3,0,0.4,0.1,0.5c0.1,0.1,0.3,0.1,0.6,0.1c0.3,0,0.7,0,1.3-0.1c0.6-0.1,1.3-0.1,2-0.1c0.4,0,0.7,0,0.8,0c0.2,0,0.4,0,0.6,0
			c0.3,0,0.5-0.1,0.5-0.3c0.1-0.2,0.1-0.3,0.2-0.3c0.1,0,0.1-0.2,0.1-0.5C313.2,793.1,313.2,792.9,313.1,792.9z M306.9,788.4
			c0,0-0.1,0-0.2,0c-0.1,0-0.1,0-0.1,0c-0.3,0-0.5,0.1-0.6,0.2c-0.1,0.1-0.3,0.2-0.4,0.2c-0.2,0-0.3-0.1-0.4-0.2
			c-0.1-0.1-0.2-0.2-0.3-0.2c-0.1,0-0.2-0.1-0.2-0.2c0-0.1,0-0.2,0.1-0.2c0.1,0,0.2-0.1,0.3-0.4c0.1-0.3,0.2-0.5,0.2-0.7
			c0-0.2,0.1-0.3,0.2-0.4c0.1,0,0.2-0.3,0.2-0.8c0.1-0.6,0.3-0.9,0.6-0.9c0.2,0,0.3,0.1,0.5,0.2c0.1,0.1,0.2,0.2,0.4,0.5
			c0.1,0.3,0.2,0.4,0.2,0.5c0,0-0.1,0.1-0.3,0.1c-0.2,0-0.3,0.1-0.4,0.2c-0.1,0.1,0,0.2,0.1,0.2c0.1,0,0.2,0.1,0.2,0.2
			c0.1,0.1,0.2,0.3,0.2,0.4c0.1,0.2,0.1,0.2,0.2,0.3c0.1,0.1,0.1,0.3,0.2,0.6l0.1,0.5L306.9,788.4z"/>
		<path d="M333.2,782c-0.1,0-0.2,0-0.3,0.1c-0.2,0.1-0.3,0.1-0.3,0.1c-0.1,0-0.1-0.1-0.2-0.2c-0.1-0.2-0.3-0.3-0.4-0.3
			c-0.1,0-0.2-0.1-0.2-0.3c0-0.2-0.1-0.3-0.3-0.3c-0.2,0-0.3,0.1-0.3,0.3c0,0.2,0.1,0.3,0.2,0.3s0.2,0.1,0.2,0.3
			c0,0.2-0.1,0.3-0.2,0.3c-0.2,0-0.3-0.1-0.3-0.4c-0.1-0.2-0.2-0.4-0.3-0.4c-0.1,0-0.1,0-0.2,0.1c-0.2,0.2-0.2,0.3,0,0.3
			c0.1,0,0.2,0.1,0.2,0.1c0,0.1-0.1,0.2-0.4,0.2c-0.2,0-0.4,0-0.4-0.1c0-0.1-0.1-0.1-0.4-0.1c-0.4,0-0.8,0.1-1.1,0.2
			c-0.4,0.2-0.6,0.4-0.6,0.7c0,0.3,0.3,0.5,0.8,0.6c0.4,0.1,0.6,0.1,0.6,0.2c0,0.1,0.1,0.1,0.3,0.1c0.3,0,0.5,0.2,0.6,0.6
			c0.1,0.4,0.2,1.2,0.2,2.4c0,1.4,0.1,2.2,0.1,2.4c0.1,0.1,0,0.3,0,0.6l-0.1,0.4l-0.5-0.5c-0.4-0.3-0.5-0.5-0.5-0.6
			c0-0.1-0.1-0.2-0.2-0.3c-0.1-0.1-0.3-0.2-0.4-0.4c-0.2-0.1-0.3-0.2-0.3-0.2c-0.1-0.1-0.3-0.2-0.3-0.2c-0.1,0-0.2-0.1-0.2-0.2
			c0-0.1-0.1-0.2-0.2-0.3c-0.1-0.1-0.3-0.2-0.4-0.2c-0.1,0-0.1-0.1-0.1-0.2c0-0.1-0.1-0.2-0.2-0.2c-0.1,0-0.1,0-0.1-0.1
			c0-0.1-0.1-0.2-0.4-0.5c-0.2-0.3-0.4-0.4-0.4-0.5c0-0.1-0.1-0.2-0.3-0.2c-0.2,0-0.3-0.1-0.5-0.2c-0.2-0.1-0.2-0.3-0.2-0.4
			c0-0.1-0.2-0.3-0.5-0.7c-0.3-0.4-0.5-0.6-0.5-0.7c0-0.1-0.1-0.2-0.3-0.4c-0.2-0.2-0.3-0.4-0.3-0.4c0-0.3-0.6-0.5-1.8-0.6
			c-0.6,0-0.9-0.1-0.9-0.1c-0.3,0-0.4,0.1-0.4,0.2c0,0.1,0,0.2,0,0.4c0,0.2,0,0.4,0.1,0.6c0.1,0.2,0.1,0.3,0.2,0.3
			c0.1,0,0.2,0.2,0.3,0.6c0.1,0.4,0.2,0.6,0.2,0.6c0.1,0,0.1,0.3,0.1,0.8c0,0.5,0,0.8-0.1,0.8c-0.1,0-0.1,0.1-0.1,0.4
			c0,0.2,0.1,0.6,0.2,1c0.1,0.2,0.1,0.6,0.1,1.1c0,0.7-0.1,1.1-0.2,1.1c-0.1,0-0.1,0.2-0.1,0.7c0,0.5,0,1.1-0.1,1.5
			c0,0.4-0.1,0.6-0.1,0.7c-0.1,0.1-0.2,0.2-0.4,0.2c-0.3,0.1-0.4,0.2-0.4,0.4c0,0.2,0.1,0.4,0.4,0.6c0.2,0.2,0.3,0.3,0.5,0.3
			c0.2,0,0.8,0,1.7,0c1,0,1.6,0,1.8-0.1c0.2-0.1,0.3-0.3,0.3-0.8c0-0.3-0.1-0.4-0.3-0.5c-0.2-0.1-0.3-0.1-0.3-0.2
			c0-0.1-0.2-0.1-0.6-0.1c-0.4,0-0.7-0.1-0.9-0.3c-0.2-0.2-0.2-0.3-0.1-0.4c0.1-0.1,0.2-0.2,0.2-0.6c0-0.3,0-0.5-0.1-0.5
			c-0.1-0.1-0.1-0.9-0.1-2.6c0-1.7,0.1-2.5,0.2-2.5c0.1,0,0.3,0.1,0.4,0.2c0.1,0.1,0.3,0.2,0.5,0.3c0.3,0.1,0.4,0.3,0.5,0.4
			c0,0.2,0.3,0.5,0.8,1.1c0.5,0.5,0.9,0.9,1.3,1.1c0.2,0.1,0.3,0.2,0.3,0.3c0,0.1,0.2,0.2,0.5,0.6c0.7,0.7,1.1,1.1,1.1,1.4
			c0,0.1,0.1,0.1,0.3,0.1c0.2,0,0.3,0,0.3,0.1c0,0.1,0.1,0.3,0.4,0.5c0.2,0.2,0.4,0.4,0.4,0.6c0,0.1,0.1,0.3,0.3,0.5
			c0.2,0.2,0.3,0.3,0.4,0.3c0.1,0,0.3,0.2,0.6,0.5c0.3,0.3,0.5,0.5,0.7,0.6c0.1,0.1,0.2,0.1,0.3,0.1c0.4,0,0.6-0.2,0.6-0.6
			c0-0.1,0-0.2,0-0.4c0-0.9-0.1-1.4-0.2-1.6c-0.1-0.1-0.1-0.5-0.1-1.3v-0.4c0-1,0-1.6-0.1-1.6c-0.1-0.1-0.2-0.4-0.2-1
			c0-0.5,0-0.8,0.1-0.8c0.1-0.1,0.2-0.2,0.2-0.5s0-0.4,0.1-0.4c0.1,0,0.1-0.1,0.1-0.4c0-0.3,0-0.4-0.1-0.4c-0.1,0-0.1-0.1-0.1-0.4
			c0-0.4,0.1-0.7,0.2-1c0.2-0.3,0.4-0.5,0.7-0.5c0.2,0,0.4-0.1,0.4-0.1c0.1,0,0.1-0.2,0.1-0.5v-0.2C333.5,782.3,333.4,782,333.2,782
			z"/>
		<path d="M352.7,785.5c0-0.2-0.1-0.3-0.2-0.5c-0.2-0.2-0.3-0.3-0.4-0.3c-0.1,0-0.2-0.1-0.2-0.2c0-0.1-0.1-0.3-0.3-0.6
			c-0.2-0.2-0.3-0.3-0.4-0.3c-0.1,0-0.2-0.1-0.2-0.2c0-0.1-0.1-0.2-0.3-0.3c-0.2-0.1-0.3-0.1-0.3-0.2c0-0.1-0.1-0.1-0.4-0.1
			c-0.2,0-0.3-0.1-0.6-0.2c-0.2-0.1-0.4-0.2-0.5-0.2c-0.2,0-0.3,0-0.3-0.1c0-0.1-0.1-0.1-0.4-0.1c-0.2,0-0.3,0-0.4-0.1
			c-0.1-0.1-0.2-0.1-0.2-0.1c-0.1,0-0.2,0-0.4,0.1c-0.3,0.1-0.6,0.2-1,0.2c-0.2,0-0.4,0-0.4-0.1c-0.1,0-0.1-0.1-0.1-0.2
			c0-0.2-0.1-0.3-0.2-0.3c-0.1,0-0.2,0-0.3,0.2c-0.1,0.1-0.1,0.1-0.2,0c-0.2-0.3-0.3-0.2-0.4,0.1c-0.1,0.2-0.2,0.3-0.4,0.2
			c-0.2-0.1-0.5-0.2-1-0.2c-0.4,0-0.7-0.1-0.8-0.2c0-0.1-0.1-0.1-0.3,0.1c-0.2,0.1-0.3,0.1-0.3,0c-0.1-0.1-0.2-0.2-0.5-0.2
			c-0.2,0-0.4,0-0.4,0.1c0,0.1-0.1,0.1-0.3,0.1c-0.1,0-0.2,0-0.2,0.1c0,0.1-0.1,0.3-0.1,0.5c0,0.3,0,0.5,0.1,0.6
			c0,0.1,0.2,0.2,0.3,0.3c0.2,0.1,0.3,0.1,0.4,0.1c0,0,0.1,0,0.1,0c0.1,0,0.1,0,0.1,0c0.1,0,0.2,0,0.3,0.1c0.2,0.1,0.4,0.4,0.4,0.8
			c0,0.4,0,0.6-0.1,0.6c-0.1,0-0.1,0.3-0.1,0.9c0,0.6,0,0.8,0.1,0.8c0.1,0,0.1,0.1,0.1,0.4c0,0.2,0,0.4-0.1,0.5
			c-0.1,0.1-0.1,1-0.2,2.8L342,793l-0.5,0c-0.4,0-0.6,0.2-0.8,0.4c-0.2,0.2-0.3,0.4-0.3,0.5c0,0.1,0.1,0.2,0.4,0.4
			c0.3,0.2,0.5,0.2,0.7,0.2c0.1,0,0.2,0,0.2-0.1c0-0.1,0.3-0.1,0.8-0.1c0.5,0,0.8,0,0.8,0.1c0,0.1,0.9,0.2,2.6,0.2
			c1.1,0,1.7,0,1.8-0.1c0.1-0.1,0.4-0.2,0.7-0.2c0.4-0.1,0.8-0.2,1.3-0.5c0.5-0.2,0.8-0.4,1-0.4c0.2,0,0.3-0.1,0.4-0.4
			c0.1-0.3,0.3-0.6,0.7-1.1c0.4-0.4,0.6-0.7,0.6-0.8c0-0.1,0-0.2,0.1-0.2c0.1,0,0.1-0.1,0.1-0.3c0-0.2,0.1-0.4,0.2-0.5
			c0.1-0.1,0.1-0.8,0.1-2c0-1.4-0.1-2.1-0.2-2.2C352.8,785.8,352.7,785.7,352.7,785.5z M350.6,789.7c-0.1,0.1-0.2,0.2-0.2,0.5
			c0,0.3-0.1,0.4-0.2,0.6c-0.3,0.3-0.5,0.6-0.6,1c-0.1,0.2-0.1,0.2-0.2,0.2c-0.1,0-0.3,0.2-0.7,0.5c-0.4,0.3-0.7,0.5-0.9,0.5
			c-0.2,0-0.3,0.1-0.4,0.2c-0.1,0.1-0.1,0.1-0.2,0c-0.1-0.1-0.1-0.2-0.3-0.2c-0.1,0-0.2,0.1-0.3,0.2c0,0.1-0.3,0.1-0.9,0.1
			c-0.6,0-1.1,0-1.6,0c-0.2,0-0.2-0.1-0.2-0.4c0-0.2-0.1-0.4-0.2-0.4s-0.2,0-0.2-0.1c0-0.1,0.1-0.1,0.2-0.2c0.1-0.1,0.2-0.2,0.2-0.3
			c0-0.1,0.1-0.2,0.2-0.2c0.1,0,0.1-0.1,0.2-0.4c0.1-0.2,0.1-0.5,0.1-0.8c0-0.1,0-0.3-0.1-0.5c0,0,0,0,0-0.1s0-0.1,0-0.1
			c0-0.2,0.1-0.4,0.2-0.6l0.2-0.4c0,0-0.1-0.1-0.2-0.1c-0.1,0-0.2-0.3-0.2-0.8c0-0.5,0-1,0-1.5c0-1.4,0.1-2.2,0.1-2.4
			c0-0.3,0.1-0.5,0.4-0.8c0.2-0.2,0.4-0.3,0.6-0.3c0.1,0,0.2,0,0.3,0c0.1,0,0.3,0,0.7,0.1c0.4,0,0.7,0.1,1,0.1
			c0.3,0.1,0.4,0.1,0.5,0.2c0.1,0.1,0.2,0.2,0.4,0.2c0.2,0,0.4,0.1,0.4,0.3c0.1,0.2,0.2,0.3,0.3,0.3c0.2,0,0.2,0,0.2,0.1
			s0.1,0.2,0.3,0.2c0.2,0.1,0.3,0.2,0.3,0.3c0,0.1,0.1,0.3,0.2,0.4c0.1,0.1,0.2,0.4,0.3,0.9c0,0.4,0.1,0.7,0.2,0.8
			c0.1,0.1,0.1,0.5,0.1,1.3S350.7,789.7,350.6,789.7z"/>
		<path d="M368.4,789.5c0-0.6-0.1-0.9-0.2-1.1c-0.1-0.2-0.3-0.4-0.6-0.5c-0.3-0.1-0.5-0.3-0.5-0.4c-0.1-0.1-0.3-0.3-0.9-0.6
			c-0.5-0.3-1-0.5-1.3-0.6c-0.2-0.1-0.5-0.2-0.9-0.5c-0.4-0.3-0.6-0.4-0.6-0.5c0-0.1-0.1-0.2-0.2-0.3c-0.2-0.1-0.2-0.2-0.2-0.3
			c0,0,0-0.1,0-0.1c0.1-0.1,0.1-0.2,0.1-0.3s0-0.3-0.1-0.6c0-0.1,0-0.2,0-0.2c0,0,0.2-0.1,0.3-0.1c0.3,0,0.4-0.1,0.4-0.2
			c0-0.1,0.1-0.2,0.4-0.4c0.3-0.2,0.4-0.3,0.4-0.3c0-0.1,0.1-0.1,0.4-0.2c0.1,0,0.1,0,0.2,0c0.4,0,0.8,0.2,1.2,0.5
			c0.5,0.3,0.7,0.6,0.7,0.9c0,0.2,0.1,0.4,0.3,0.5c0.2,0.1,0.3,0.3,0.3,0.4s0.1,0.3,0.2,0.5s0.3,0.3,0.4,0.3c0,0,0,0,0.1,0
			c0.1-0.1,0.1-0.7,0.2-2v-0.8c0-0.6-0.1-0.9-0.2-0.9c-0.1,0-0.1,0-0.1,0c-0.3,0.1-0.6,0.2-0.8,0.2c-0.3,0-0.6-0.1-1-0.3
			c-0.4-0.2-0.6-0.3-0.7-0.3c0,0-0.1,0-0.2,0.1c-0.3,0.1-0.6,0.1-0.8,0.1c-0.3,0-0.4,0-0.5,0.1c0,0.1-0.1,0.2-0.3,0.2
			c-0.2,0-0.4-0.1-0.5-0.2c-0.1-0.1-0.3-0.2-0.5-0.2h0c-0.1,0-0.1,0-0.1,0c-0.1,0-0.1,0-0.1,0c0,0,0.1,0,0.1,0
			c0.1,0.1,0.2,0.1,0.2,0.2c0,0.2-0.2,0.3-0.5,0.4c-0.3,0.1-0.4,0.2-0.4,0.4c0.1,0.2,0,0.3-0.2,0.4c-0.3,0.1-0.6,0.5-1.1,1.1
			c-0.1,0.2-0.2,0.4-0.2,0.6c0,0,0,0.3,0.1,0.8c0.1,0.7,0.3,1.1,0.4,1.3c0.1,0.2,0.4,0.4,0.7,0.7c0.4,0.3,0.6,0.4,0.8,0.4
			c0.1,0,0.3,0.1,0.6,0.4c0.4,0.3,0.9,0.6,1.7,0.8c0.5,0.1,0.8,0.3,1.1,0.6c0.2,0.2,0.3,0.4,0.5,0.7c0.1,0.3,0.2,0.5,0.2,0.7
			c0,0.1,0,0.1-0.1,0.2c-0.1,0-0.1,0.2-0.1,0.4c0.1,0.2,0,0.4-0.2,0.6c-0.1,0.1-0.2,0.3-0.2,0.4c0,0.2-0.5,0.4-1.4,0.5
			c-0.1,0-0.3,0-0.6,0c-0.9,0-1.7-0.4-2.2-1.2c-0.3-0.4-0.5-0.8-0.5-1c0,0,0-0.1,0-0.2c0-0.1,0-0.2,0-0.2c0,0-0.1-0.1-0.1-0.1
			c-0.1,0-0.1,0-0.1-0.1c0.1-0.3-0.1-0.5-0.4-0.6c-0.1,0-0.2-0.1-0.3-0.1c-0.3,0-0.4,0.2-0.5,0.5c-0.1,1.2-0.1,1.9-0.2,1.9
			c-0.1,0.1-0.1,0.4-0.2,0.8c0,0.1,0,0.3,0,0.4c0,0.2,0.1,0.4,0.3,0.6c0.1,0.1,0.2,0.2,0.3,0.2c0,0,0.1,0,0.2-0.2
			c0.1-0.2,0.2-0.3,0.2-0.4c0-0.3,0.2-0.3,0.5-0.1c0.9,0.5,1.8,0.7,2.9,0.7c0.5,0,1.1-0.1,1.6-0.2c0.6-0.1,1.1-0.3,1.4-0.6
			c0.3-0.3,0.5-0.5,0.5-0.5c0-0.1,0.1-0.2,0.2-0.3c0.2-0.1,0.3-0.4,0.3-0.9c0.1-0.5,0.1-0.7,0.2-0.7c0.1,0,0.1,0,0-0.1
			C368.5,790.6,368.5,790.2,368.4,789.5z M364,788C364,788,364,787.9,364,788c-0.1-0.1-0.1-0.1,0-0.1S364.1,787.9,364,788
			C364.1,787.9,364.1,788,364,788z"/>
		<path d="M362.6,788.7c0-0.1,0-0.2-0.1-0.2c-0.1,0-0.1,0-0.1,0.1l0.1,0.2C362.5,789,362.6,788.9,362.6,788.7z"/>
		<polygon points="51.7,808.8 44,814 41.2,799.9 38.4,814 30.7,808.8 35.9,816.5 21.8,819.3 35.9,822 30.7,829.8 38.4,824.6 
			41.2,838.6 43.9,824.6 51.7,829.8 46.5,822 60.5,819.3 46.5,816.5 		"/>
		<polygon points="468.1,816.5 473.3,808.8 465.5,814 462.8,799.9 460,814 452.3,808.8 457.5,816.5 443.4,819.3 457.5,822 
			452.3,829.8 460,824.6 462.8,838.6 465.5,824.6 473.3,829.8 468.1,822 482.1,819.3 		"/>
		<polygon points="30.7,57.5 38.4,52.3 41.2,66.4 44,52.3 51.7,57.5 46.5,49.8 60.5,47 46.5,44.3 51.7,36.5 43.9,41.7 41.2,27.7 
			38.4,41.7 30.7,36.5 35.9,44.3 21.8,47 35.9,49.8 		"/>
		<polygon points="473.3,36.5 465.5,41.7 462.8,27.7 460,41.7 452.3,36.5 457.5,44.3 443.4,47 457.5,49.8 452.3,57.5 460,52.3 
			462.8,66.4 465.5,52.3 473.3,57.5 468.1,49.8 482.1,47 468.1,44.3 		"/>
		<path d="M258.7,189.3c-0.9-0.4-1.8-0.8-2.7-1.1c-1.1-0.5-1.7-0.5-2-1.5c-0.6-1.9-1.1-3.9-1.6-5.9c0,0,0,0,0-0.1c0,0,0,0,0-0.1
			c-0.1-0.1-0.2-0.2-0.3-0.2c-0.1,0-0.3,0-0.3,0.2c0,0,0,0.1,0,0.1c0,0,0,0,0,0c0,0,0,0,0,0c0,0,0,0,0,0c-0.5,1.9-1,3.9-1.5,5.9
			c-0.5,1.5-3.3,2.1-4.7,2.7c-0.3,0.1-0.5,0.6-0.1,0.7c0.9,0.4,1.8,0.8,2.7,1.2c0.5,0.2,1.1,0.5,1.6,0.7c0.1,0.1,0.2,0.1,0.2,0.1
			c0,0,0,0,0,0.1c1,1.7,1.2,4.2,1.8,6.1c0.1,0.4,0.7,0.4,0.8,0c0.6-1.9,0.9-4.4,1.8-6.1c0,0,0,0,0-0.1c0,0,0.1,0,0.1-0.1
			c0.5-0.3,1.2-0.5,1.7-0.8c0.9-0.4,1.8-0.8,2.7-1.2C259.2,189.9,259,189.5,258.7,189.3z M255.3,190.8c-0.6,0.3-1.5,0.5-1.9,1
			c-0.6,0.8-0.7,2.4-1,3.4c-0.2,0.6-0.3,1.1-0.5,1.7c-0.2-0.6-0.3-1.1-0.5-1.7c-0.3-0.9-0.4-2.6-1-3.4c-0.4-0.6-1.2-0.7-1.9-1
			c-0.7-0.3-1.5-0.7-2.2-1c1.5-0.5,3.5-1.1,4.2-2.2c0.6-1,0.7-2.7,1-3.7c0.1-0.5,0.2-0.9,0.4-1.4c0.1,0.5,0.3,0.9,0.4,1.4
			c0.3,1.1,0.4,2.7,1,3.7c0.6,1.1,2.7,1.7,4.2,2.2C256.8,190.1,256.1,190.4,255.3,190.8z"/>
		<path d="M258.7,234.1c-0.9-0.4-1.8-0.8-2.7-1.1c-1.1-0.5-1.7-0.5-2-1.5c-0.6-1.9-1.1-3.9-1.6-5.9c0,0,0,0,0-0.1c0,0,0,0,0-0.1
			c-0.1-0.1-0.2-0.2-0.3-0.2c-0.1,0-0.3,0-0.3,0.2c0,0,0,0.1,0,0.1c0,0,0,0,0,0c0,0,0,0,0,0c0,0,0,0,0,0c-0.5,1.9-1,3.9-1.5,5.9
			c-0.5,1.5-3.3,2.1-4.7,2.7c-0.3,0.1-0.5,0.6-0.1,0.7c0.9,0.4,1.8,0.8,2.7,1.2c0.5,0.2,1.1,0.5,1.6,0.7c0.1,0.1,0.2,0.1,0.2,0.1
			c0,0,0,0,0,0.1c1,1.7,1.2,4.2,1.8,6.1c0.1,0.4,0.7,0.4,0.8,0c0.6-1.9,0.9-4.4,1.8-6.1c0,0,0,0,0-0.1c0,0,0.1,0,0.1-0.1
			c0.5-0.3,1.2-0.5,1.7-0.8c0.9-0.4,1.8-0.8,2.7-1.2C259.2,234.6,259,234.2,258.7,234.1z M255.3,235.5c-0.6,0.3-1.5,0.5-1.9,1
			c-0.6,0.8-0.7,2.4-1,3.4c-0.2,0.6-0.3,1.1-0.5,1.7c-0.2-0.6-0.3-1.1-0.5-1.7c-0.3-0.9-0.4-2.6-1-3.4c-0.4-0.6-1.2-0.7-1.9-1
			c-0.7-0.3-1.5-0.7-2.2-1c1.5-0.5,3.5-1.1,4.2-2.2c0.6-1,0.7-2.7,1-3.7c0.1-0.5,0.2-0.9,0.4-1.4c0.1,0.5,0.3,0.9,0.4,1.4
			c0.3,1.1,0.4,2.7,1,3.7c0.6,1.1,2.7,1.7,4.2,2.2C256.8,234.8,256.1,235.2,255.3,235.5z"/>
		<path d="M258.7,638.1c-0.9-0.4-1.8-0.8-2.7-1.1c-1.1-0.5-1.7-0.5-2-1.5c-0.6-1.9-1.1-3.9-1.6-5.9c0,0,0,0,0-0.1c0,0,0,0,0-0.1
			c-0.1-0.1-0.2-0.2-0.3-0.2c-0.1,0-0.3,0-0.3,0.2c0,0,0,0.1,0,0.1c0,0,0,0,0,0c0,0,0,0,0,0c0,0,0,0,0,0c-0.5,1.9-1,3.9-1.5,5.9
			c-0.5,1.5-3.3,2.1-4.7,2.7c-0.3,0.1-0.5,0.6-0.1,0.7c0.9,0.4,1.8,0.8,2.7,1.2c0.5,0.2,1.1,0.5,1.6,0.7c0.1,0.1,0.2,0.1,0.2,0.1
			c0,0,0,0,0,0.1c1,1.7,1.2,4.2,1.8,6.1c0.1,0.4,0.7,0.4,0.8,0c0.6-1.9,0.9-4.4,1.8-6.1c0,0,0,0,0-0.1c0,0,0.1,0,0.1-0.1
			c0.5-0.3,1.2-0.5,1.7-0.8c0.9-0.4,1.8-0.8,2.7-1.2C259.2,638.7,259,638.2,258.7,638.1z M255.3,639.5c-0.6,0.3-1.5,0.5-1.9,1
			c-0.6,0.8-0.7,2.4-1,3.4c-0.2,0.6-0.3,1.1-0.5,1.7c-0.2-0.6-0.3-1.1-0.5-1.7c-0.3-0.9-0.4-2.6-1-3.4c-0.4-0.6-1.2-0.7-1.9-1
			c-0.7-0.3-1.5-0.7-2.2-1c1.5-0.5,3.5-1.1,4.2-2.2c0.6-1,0.7-2.7,1-3.7c0.1-0.5,0.2-0.9,0.4-1.4c0.1,0.5,0.3,0.9,0.4,1.4
			c0.3,1.1,0.4,2.7,1,3.7c0.6,1.1,2.7,1.7,4.2,2.2C256.8,638.9,256.1,639.2,255.3,639.5z"/>
		<path d="M258.7,682.8c-0.9-0.4-1.8-0.8-2.7-1.1c-1.1-0.5-1.7-0.5-2-1.5c-0.6-1.9-1.1-3.9-1.6-5.9c0,0,0,0,0-0.1c0,0,0,0,0-0.1
			c-0.1-0.1-0.2-0.2-0.3-0.2c-0.1,0-0.3,0-0.3,0.2c0,0,0,0.1,0,0.1c0,0,0,0,0,0c0,0,0,0,0,0c0,0,0,0,0,0c-0.5,1.9-1,3.9-1.5,5.9
			c-0.5,1.5-3.3,2.1-4.7,2.7c-0.3,0.1-0.5,0.6-0.1,0.7c0.9,0.4,1.8,0.8,2.7,1.2c0.5,0.2,1.1,0.5,1.6,0.7c0.1,0.1,0.2,0.1,0.2,0.1
			c0,0,0,0,0,0.1c1,1.7,1.2,4.2,1.8,6.1c0.1,0.4,0.7,0.4,0.8,0c0.6-1.9,0.9-4.4,1.8-6.1c0,0,0,0,0-0.1c0,0,0.1,0,0.1-0.1
			c0.5-0.3,1.2-0.5,1.7-0.8c0.9-0.4,1.8-0.8,2.7-1.2C259.2,683.4,259,682.9,258.7,682.8z M255.3,684.3c-0.6,0.3-1.5,0.5-1.9,1
			c-0.6,0.8-0.7,2.4-1,3.4c-0.2,0.6-0.3,1.1-0.5,1.7c-0.2-0.6-0.3-1.1-0.5-1.7c-0.3-0.9-0.4-2.6-1-3.4c-0.4-0.6-1.2-0.7-1.9-1
			c-0.7-0.3-1.5-0.7-2.2-1c1.5-0.5,3.5-1.1,4.2-2.2c0.6-1,0.7-2.7,1-3.7c0.1-0.5,0.2-0.9,0.4-1.4c0.1,0.5,0.3,0.9,0.4,1.4
			c0.3,1.1,0.4,2.7,1,3.7c0.6,1.1,2.7,1.7,4.2,2.2C256.8,683.6,256.1,683.9,255.3,684.3z"/>
		<path d="M116.9,415c-0.9-0.4-1.8-0.8-2.7-1.1c-1.1-0.5-1.7-0.5-2-1.5c-0.6-1.9-1.1-3.9-1.6-5.9c0,0,0,0,0-0.1c0,0,0,0,0-0.1
			c-0.1-0.1-0.2-0.2-0.3-0.2c-0.1,0-0.3,0-0.3,0.2c0,0,0,0.1,0,0.1c0,0,0,0,0,0c0,0,0,0,0,0c0,0,0,0,0,0c-0.5,1.9-0.9,3.9-1.5,5.9
			c-0.5,1.5-3.3,2.1-4.7,2.7c-0.3,0.1-0.5,0.6-0.1,0.7c0.9,0.4,1.8,0.8,2.7,1.2c0.5,0.2,1.1,0.5,1.6,0.7c0.1,0.1,0.2,0.1,0.2,0.1
			c0,0,0,0,0,0.1c1,1.7,1.2,4.2,1.8,6.1c0.1,0.4,0.7,0.4,0.8,0c0.6-1.9,0.9-4.4,1.8-6.1c0,0,0,0,0-0.1c0,0,0.1,0,0.1-0.1
			c0.5-0.3,1.2-0.5,1.7-0.8c0.9-0.4,1.8-0.8,2.7-1.2C117.3,415.6,117.2,415.1,116.9,415z M113.5,416.4c-0.6,0.3-1.5,0.5-1.9,1
			c-0.6,0.8-0.7,2.4-1,3.4c-0.2,0.6-0.3,1.1-0.5,1.7c-0.2-0.6-0.3-1.1-0.5-1.7c-0.3-0.9-0.4-2.6-1-3.4c-0.4-0.6-1.2-0.7-1.9-1
			c-0.7-0.3-1.5-0.7-2.2-1c1.5-0.5,3.5-1.1,4.2-2.2c0.6-1,0.7-2.7,1-3.7c0.1-0.5,0.3-0.9,0.4-1.4c0.1,0.5,0.3,0.9,0.4,1.4
			c0.3,1.1,0.4,2.7,1,3.7c0.6,1.1,2.7,1.7,4.2,2.2C115,415.8,114.2,416.1,113.5,416.4z"/>
		<path d="M116.9,459.7c-0.9-0.4-1.8-0.8-2.7-1.1c-1.1-0.5-1.7-0.5-2-1.5c-0.6-1.9-1.1-3.9-1.6-5.9c0,0,0,0,0-0.1c0,0,0,0,0-0.1
			c-0.1-0.1-0.2-0.2-0.3-0.2c-0.1,0-0.3,0-0.3,0.2c0,0,0,0.1,0,0.1c0,0,0,0,0,0c0,0,0,0,0,0c0,0,0,0,0,0c-0.5,1.9-0.9,3.9-1.5,5.9
			c-0.5,1.5-3.3,2.1-4.7,2.7c-0.3,0.1-0.5,0.6-0.1,0.7c0.9,0.4,1.8,0.8,2.7,1.2c0.5,0.2,1.1,0.5,1.6,0.7c0.1,0.1,0.2,0.1,0.2,0.1
			c0,0,0,0,0,0.1c1,1.7,1.2,4.2,1.8,6.1c0.1,0.4,0.7,0.4,0.8,0c0.6-1.9,0.9-4.4,1.8-6.1c0,0,0,0,0-0.1c0,0,0.1,0,0.1-0.1
			c0.5-0.3,1.2-0.5,1.7-0.8c0.9-0.4,1.8-0.8,2.7-1.2C117.3,460.3,117.2,459.8,116.9,459.7z M113.5,461.1c-0.6,0.3-1.5,0.5-1.9,1
			c-0.6,0.8-0.7,2.4-1,3.4c-0.2,0.6-0.3,1.1-0.5,1.7c-0.2-0.6-0.3-1.1-0.5-1.7c-0.3-0.9-0.4-2.6-1-3.4c-0.4-0.6-1.2-0.7-1.9-1
			c-0.7-0.3-1.5-0.7-2.2-1c1.5-0.5,3.5-1.1,4.2-2.2c0.6-1,0.7-2.7,1-3.7c0.1-0.5,0.3-0.9,0.4-1.4c0.1,0.5,0.3,0.9,0.4,1.4
			c0.3,1.1,0.4,2.7,1,3.7c0.6,1.1,2.7,1.7,4.2,2.2C115,460.5,114.2,460.8,113.5,461.1z"/>
		<path d="M389.7,417c0.5,0.2,1.1,0.5,1.6,0.7c0.1,0.1,0.2,0.1,0.2,0.1c0,0,0,0,0,0.1c1,1.7,1.2,4.2,1.8,6.1c0.1,0.4,0.7,0.4,0.8,0
			c0.6-1.9,0.9-4.4,1.8-6.1c0,0,0,0,0-0.1c0,0,0.1,0,0.1-0.1c0.5-0.3,1.2-0.5,1.7-0.8c0.9-0.4,1.8-0.8,2.7-1.2
			c0.4-0.2,0.2-0.6-0.1-0.7c-0.9-0.4-1.8-0.8-2.7-1.1c-1.1-0.5-1.7-0.5-2-1.5c-0.6-1.9-1.1-3.9-1.6-5.9c0,0,0,0,0-0.1c0,0,0,0,0-0.1
			c-0.1-0.1-0.2-0.2-0.3-0.2c-0.1,0-0.3,0-0.3,0.2c0,0,0,0.1,0,0.1c0,0,0,0,0,0c0,0,0,0,0,0c0,0,0,0,0,0c-0.5,1.9-1,3.9-1.5,5.9
			c-0.5,1.5-3.3,2.1-4.7,2.7c-0.3,0.1-0.5,0.6-0.1,0.7C387.9,416.2,388.8,416.6,389.7,417z M392.4,413.3c0.6-1,0.7-2.7,1-3.7
			c0.1-0.5,0.2-0.9,0.4-1.4c0.1,0.5,0.3,0.9,0.4,1.4c0.3,1.1,0.4,2.7,1,3.7c0.6,1.1,2.7,1.7,4.2,2.2c-0.7,0.3-1.5,0.7-2.2,1
			c-0.6,0.3-1.5,0.5-1.9,1c-0.6,0.8-0.7,2.4-1,3.4c-0.2,0.6-0.3,1.1-0.5,1.7c-0.2-0.6-0.3-1.1-0.5-1.7c-0.3-0.9-0.4-2.6-1-3.4
			c-0.4-0.6-1.2-0.7-1.9-1c-0.7-0.3-1.5-0.7-2.2-1C389.8,415,391.8,414.4,392.4,413.3z"/>
		<path d="M387,460.5c0.9,0.4,1.8,0.8,2.7,1.2c0.5,0.2,1.1,0.5,1.6,0.7c0.1,0.1,0.2,0.1,0.2,0.1c0,0,0,0,0,0.1
			c1,1.7,1.2,4.2,1.8,6.1c0.1,0.4,0.7,0.4,0.8,0c0.6-1.9,0.9-4.4,1.8-6.1c0,0,0,0,0-0.1c0,0,0.1,0,0.1-0.1c0.5-0.3,1.2-0.5,1.7-0.8
			c0.9-0.4,1.8-0.8,2.7-1.2c0.4-0.2,0.2-0.6-0.1-0.7c-0.9-0.4-1.8-0.8-2.7-1.1c-1.1-0.5-1.7-0.5-2-1.5c-0.6-1.9-1.1-3.9-1.6-5.9
			c0,0,0,0,0-0.1c0,0,0,0,0-0.1c-0.1-0.1-0.2-0.2-0.3-0.2c-0.1,0-0.3,0-0.3,0.2c0,0,0,0.1,0,0.1c0,0,0,0,0,0c0,0,0,0,0,0
			c0,0,0,0,0,0c-0.5,1.9-1,3.9-1.5,5.9c-0.5,1.5-3.3,2.1-4.7,2.7C386.8,459.9,386.6,460.3,387,460.5z M392.4,458
			c0.6-1,0.7-2.7,1-3.7c0.1-0.5,0.2-0.9,0.4-1.4c0.1,0.5,0.3,0.9,0.4,1.4c0.3,1.1,0.4,2.7,1,3.7c0.6,1.1,2.7,1.7,4.2,2.2
			c-0.7,0.3-1.5,0.7-2.2,1c-0.6,0.3-1.5,0.5-1.9,1c-0.6,0.8-0.7,2.4-1,3.4c-0.2,0.6-0.3,1.1-0.5,1.7c-0.2-0.6-0.3-1.1-0.5-1.7
			c-0.3-0.9-0.4-2.6-1-3.4c-0.4-0.6-1.2-0.7-1.9-1c-0.7-0.3-1.5-0.7-2.2-1C389.8,459.7,391.8,459.1,392.4,458z"/>
		<path d="M102.7,142c-2.1,3.8,0.1,8.9,4.6,10.2c-0.7,1.8,1,4.6,1.8,6c-0.4,0.8-0.9,1.7-0.7,2.5c0.1,0.7,1.3,2.7,2.2,2.8
			c0.6,0.1,1.4-0.6,1.8-0.9c0.3-0.2,0.5-0.3,0.8-0.5c0,0.1,0,0.2,0.1,0.3c12.8,18.8,25.4,37.8,38.2,56.6c-0.2,0.1-0.3,0.2-0.5,0.3
			c-0.2,0.1-0.3,0.5-0.1,0.7c0.9,1.1,2.3,2.8,3.9,3.2c0,0.1,0,0.2,0.1,0.3c5.7,8.5,11.2,17,17,25.5c0,1.3,0.7,2.8,1.3,3.8
			c0.1,0.2,0.3,0.2,0.5,0.2c0.1,0,0.1,0,0.2-0.1c0.2-0.1,0.4-0.3,0.7-0.4c13.8,20.3,27.8,40.4,41.6,60.7c-0.1,0.1-0.2,0.1-0.3,0.2
			c-0.2,0.1-0.3,0.4-0.1,0.7c1.4,2.1,2.8,4.2,4.3,6.2c-0.4,0.3-0.9,0.6-1.3,0.9c-0.2,0.1-0.3,0.4-0.1,0.7c1,1.5,2,2.9,3,4.4
			c0.1,0.2,0.4,0.3,0.7,0.1c0.2-0.2,0.4-0.3,0.7-0.5c1.2,1.5,3.4,4.3,5.6,3.6c0.5-0.2,1.1-0.5,1.6-0.8c0.2,2.6,3.1,4.5,5.5,2.8
			c2.4-1.7,1.8-5.1-0.6-6.2c0.5-0.3,0.9-0.7,1.3-1.1c1.6-1.8-0.2-4.9-1.2-6.6c0.2-0.2,0.4-0.3,0.7-0.5c0.2-0.1,0.3-0.4,0.1-0.7
			c-1-1.5-2-2.9-3-4.4c-0.1-0.1-0.2-0.2-0.3-0.2c0,0,0,0,0,0c0,0,0,0,0,0c-0.1,0-0.2,0-0.3,0.1c-0.4,0.3-0.9,0.6-1.3,0.9
			c-1.4-2.1-2.8-4.2-4.3-6.2c-0.1-0.1-0.2-0.2-0.3-0.2c0,0,0,0,0,0c0,0,0,0,0,0c-0.1,0-0.2,0-0.3,0.1c-0.1,0.1-0.2,0.1-0.2,0.2
			c-13.8-20.3-27.4-40.7-41.2-61c0.2-0.1,0.4-0.3,0.6-0.4c0.2-0.1,0.3-0.5,0.1-0.7c-0.7-0.9-1.8-2.1-3-2.6c0,0,0,0,0-0.1
			c-5.8-8.4-11.7-16.7-17.5-25.2c-0.1-0.1-0.2-0.2-0.3-0.2c0.2-1.6-0.8-3.5-1.5-4.7c-0.1-0.2-0.3-0.2-0.4-0.2c-0.1,0-0.1,0-0.2,0.1
			c-0.2,0.1-0.3,0.2-0.5,0.3c-12.9-18.9-25.9-37.6-38.8-56.5c1.2-0.8,2.3-1.9,1.7-3.1c-0.9-1.9-1.9-2.1-3.8-2c-0.1,0-0.2,0-0.3,0
			c0,0,0,0,0,0c-1-1.3-2.9-3.9-4.9-3.9c0.5-4.6-3.5-8.6-7.8-8c2.8-3.5,3.2-8.6,0.5-12.5c-0.6-0.8-1.2-1.5-1.9-2.1
			c1.5,4.3-0.1,9.3-4,12c-4,2.7-9.1,2.3-12.6-0.6c0.3,0.9,0.7,1.8,1.3,2.6C93.6,141.8,98.4,143.4,102.7,142z M234.8,330.8
			c-2,1.3-4.3-0.4-4.1-2.7c0,0,0-0.1,0-0.1c0.5-0.4,1-0.8,1.4-1.1c0.5-0.3,1-0.6,1.5-0.9c0,0,0,0,0,0
			C236,326.5,236.8,329.4,234.8,330.8z M234.9,324c-0.9,0.8-2.2,1.5-3.2,2.2c-1,0.7-2.1,1.6-3.2,2.1c-1.9,1-3.9-1.5-5-2.9
			c3.5-2.4,7-4.8,10.5-7.1C234.9,319.8,236.5,322.6,234.9,324z M232,313.1c0.4,0.6,0.8,1.2,1.2,1.8l-12.6,8.6
			c-0.4-0.6-0.8-1.2-1.2-1.8C223.6,318.9,227.8,316,232,313.1z M225.8,307.7c1.3,1.9,2.6,3.7,3.8,5.6c-3,2.1-6.1,4.1-9.1,6.2
			c-1.3-1.9-2.6-3.7-3.8-5.6C219.7,311.8,222.7,309.7,225.8,307.7z M223.5,305.7l-7.8,5.3c-1.2-1.7-2.4-3.5-3.6-5.2
			c3.3,0.9,7.5-1.9,7.9-5.3C221.2,302.2,222.3,303.9,223.5,305.7z M184.6,248c11.5,16.9,22.8,33.9,34.3,50.8
			c1.3,3.9-4.8,7.9-7.9,5.3c-11.5-16.8-23.2-33.6-34.6-50.5L184.6,248z M183.9,244.9c-3.4,2.3-6.8,4.6-10.2,7
			c-0.8-1.5-1.5-3.3,0-4.5c1-0.7,2-1.4,3-2.1c1-0.7,1.9-1.4,2.9-2C181.3,242.3,182.8,243.6,183.9,244.9z M163.9,217.6
			c5.5,8.1,11.3,16.1,16.8,24.2c-0.3,0-0.6,0.1-0.9,0.2c-1.3,0.6-2.5,1.7-3.6,2.4c-1.1,0.8-2.5,1.5-3.6,2.4
			c-0.2,0.2-0.4,0.5-0.6,0.8c-5.5-8.1-10.8-16.3-16.3-24.5c0.1,0,0.3-0.1,0.4-0.1c1.3-0.5,2.6-1.7,3.8-2.5c1.1-0.8,2.6-1.5,3.6-2.5
			C163.7,218,163.8,217.8,163.9,217.6z M162.2,212.9c0.9,1.5,1.8,3.6,0.2,4.9c-1,0.7-2,1.4-3,2.1c-1,0.7-2,1.4-3,2.1
			c-1.7,1-3.3-0.6-4.4-2C155.3,217.6,158.7,215.3,162.2,212.9z M127.9,164.8c10.6,15.4,21.2,30.8,31.8,46.3l-8.6,5.9
			c-10.5-15.5-20.9-31.1-31.4-46.6C118,165.8,124.4,161.7,127.9,164.8C127.9,164.8,127.9,164.8,127.9,164.8z M123.2,157.9
			c1.2,1.7,2.3,3.4,3.5,5.1c-3.6-1.2-8,1.7-8.3,5.5c-1.1-1.7-2.2-3.3-3.4-5L123.2,157.9z M121.3,151.5c1,0,1-0.1,1.6,0.5
			c0.6,0.6,1,1,0.6,1.6c-0.5,0.9-2.2,1.8-3,2.4c-1.4,1-2.7,2-4.1,2.9c-1.3,0.9-2.6,1.7-3.9,2.6c-0.5,0.3-0.9,0.6-1.4,0.9
			c-0.3,0.2-0.6,0.2-0.5,0.3c-0.4-0.3-1.2-1.7-1.3-2.1c0,0,0,0,0-0.1c0,0,0,0,0-0.1c0-0.3,0.2-0.6,0.3-0.8c1-2.4,2.3-4.7,4.4-6.3
			C116.2,151.9,118.8,151.5,121.3,151.5z M119.4,150.6c-2.1,0.2-4.1,0.7-5.9,1.8c-1.7,1.2-2.9,3-3.8,4.8c-0.9-1.5-2.3-4-0.9-5.3
			c0.9-0.8,2-1.4,3-2c1-0.7,1.9-1.5,3-2C116.5,147.1,118.3,149.2,119.4,150.6z M104.4,141.3c0.4-0.2,0.8-0.4,1.1-0.7
			c0.3-0.2,0.7-0.5,1-0.8c4.2-1.7,8.8,2.3,8.1,6.9c0,0,0,0,0,0c-1.2,0.5-2.4,1.7-3.3,2.3c-1,0.7-2.5,1.4-3.4,2.3
			c0,0-0.1-0.1-0.2-0.1C103.2,150.2,101.3,144.6,104.4,141.3z"/>
		<path d="M125.9,172.5c-0.2,0.8-1.3,1.6-1.1,1.9s1.4-0.4,2.2-0.2c0.7,0.2,2.1,1.8,2.4,1.6c0.3-0.2-0.7-2.1-0.5-2.8
			c0.1-0.7,1.2-1.6,1.1-1.9c-0.2-0.2-1.5,0.4-2.2,0.2c-0.6-0.1-2.1-1.8-2.4-1.6C125.1,169.9,126.1,171.8,125.9,172.5z"/>
		<path d="M130,182c0.2,0.3,1.4-0.4,2.2-0.2c0.7,0.2,2.1,1.8,2.4,1.6c0.3-0.2-0.7-2.1-0.5-2.8c0.1-0.7,1.2-1.6,1.1-1.9
			c-0.2-0.2-1.5,0.4-2.2,0.2c-0.6-0.1-2.1-1.8-2.4-1.6c-0.3,0.2,0.7,2.1,0.5,2.8C130.9,180.9,129.8,181.7,130,182z"/>
		<path d="M203.1,289.5c0.2,0.3,1.4-0.4,2.2-0.2c0.7,0.2,2.1,1.8,2.4,1.6c0.3-0.2-0.7-2.1-0.5-2.8c0.1-0.7,1.2-1.6,1.1-1.9
			c-0.2-0.2-1.5,0.4-2.2,0.2c-0.6-0.1-2.1-1.8-2.4-1.6c-0.3,0.2,0.7,2.1,0.5,2.8C204,288.4,202.9,289.2,203.1,289.5z"/>
		<path d="M208.3,297.1c0.2,0.3,1.4-0.4,2.2-0.2c0.7,0.2,2.1,1.8,2.4,1.6c0.3-0.2-0.7-2.1-0.5-2.8c0.1-0.7,1.2-1.6,1.1-1.9
			c-0.2-0.2-1.5,0.4-2.2,0.2c-0.6-0.1-2.1-1.8-2.4-1.6c-0.3,0.2,0.7,2.1,0.5,2.8C209.2,296,208.1,296.8,208.3,297.1z"/>
		<path d="M172.4,239c0.8-0.5,1.1-1.4,0.2-2.8c-1-1.4-8.9-10.1-8.9-10.1s5.1,10.6,6.1,12C170.7,239.5,171.6,239.6,172.4,239z"/>
		<polygon points="107.9,146.3 107.9,148.5 108.7,146.5 111.1,148.9 109.8,145.8 111.9,145.8 109.9,144.9 112.3,142.6 109.2,143.9 
			109.2,141.7 108.4,143.7 106,141.4 107.3,144.4 105.1,144.5 107.1,145.3 104.8,147.7 		"/>
		<path d="M102.7,230.1c-2.1,3.8,0.1,8.9,4.6,10.2c-0.7,1.8,1,4.6,1.8,6c-0.4,0.8-0.9,1.7-0.7,2.5c0.1,0.7,1.3,2.7,2.2,2.8
			c0.6,0.1,1.4-0.6,1.8-0.9c0.3-0.2,0.5-0.3,0.8-0.5c0,0.1,0,0.2,0.1,0.3c12.8,18.8,25.4,37.8,38.2,56.6c-0.2,0.1-0.3,0.2-0.5,0.3
			c-0.2,0.1-0.3,0.5-0.1,0.7c0.9,1.1,2.3,2.8,3.9,3.2c0,0.1,0,0.2,0.1,0.3c5.7,8.5,11.2,17,17,25.5c0,1.3,0.7,2.8,1.3,3.8
			c0.1,0.2,0.3,0.2,0.5,0.2c0.1,0,0.1,0,0.2-0.1c0.2-0.1,0.4-0.3,0.7-0.4c13.8,20.3,27.8,40.4,41.6,60.7c-0.1,0.1-0.2,0.1-0.3,0.2
			c-0.2,0.1-0.3,0.4-0.1,0.7c1.4,2.1,2.8,4.2,4.3,6.2c-0.4,0.3-0.9,0.6-1.3,0.9c-0.2,0.1-0.3,0.4-0.1,0.7c1,1.5,2,2.9,3,4.4
			c0.1,0.2,0.4,0.3,0.7,0.1c0.2-0.1,0.4-0.3,0.7-0.5c1.2,1.5,3.4,4.3,5.6,3.6c0.5-0.2,1.1-0.5,1.6-0.8c0.2,2.6,3.1,4.5,5.5,2.8
			c2.4-1.7,1.8-5.1-0.6-6.2c0.5-0.3,0.9-0.7,1.3-1.1c1.6-1.8-0.2-4.9-1.2-6.6c0.2-0.2,0.4-0.3,0.7-0.5c0.2-0.1,0.3-0.4,0.1-0.7
			c-1-1.5-2-2.9-3-4.4c-0.1-0.1-0.2-0.2-0.3-0.2c0,0,0,0,0,0c0,0,0,0,0,0c-0.1,0-0.2,0-0.3,0.1c-0.4,0.3-0.9,0.6-1.3,0.9
			c-1.4-2.1-2.8-4.2-4.3-6.2c-0.1-0.1-0.2-0.2-0.3-0.2c0,0,0,0,0,0c0,0,0,0,0,0c-0.1,0-0.2,0-0.3,0.1c-0.1,0.1-0.2,0.1-0.2,0.2
			c-13.8-20.3-27.4-40.7-41.2-61c0.2-0.1,0.4-0.3,0.6-0.4c0.2-0.1,0.3-0.5,0.1-0.7c-0.7-0.9-1.8-2.1-3-2.6c0,0,0,0,0-0.1
			c-5.8-8.4-11.7-16.7-17.5-25.2c-0.1-0.1-0.2-0.2-0.3-0.2c0.2-1.6-0.8-3.5-1.5-4.7c-0.1-0.2-0.3-0.2-0.4-0.2c-0.1,0-0.1,0-0.2,0.1
			c-0.2,0.1-0.3,0.2-0.5,0.3c-12.9-18.9-25.9-37.6-38.8-56.5c1.2-0.8,2.3-1.9,1.7-3.1c-0.9-1.9-1.9-2.1-3.8-2c-0.1,0-0.2,0-0.3,0
			c0,0,0,0,0,0c-1-1.3-2.9-3.9-4.9-3.9c0.5-4.6-3.5-8.6-7.8-8c2.8-3.5,3.2-8.6,0.5-12.5c-0.6-0.8-1.2-1.5-1.9-2.1
			c1.5,4.3-0.1,9.3-4,12c-4,2.7-9.1,2.3-12.6-0.6c0.3,0.9,0.7,1.8,1.3,2.6C93.6,229.9,98.4,231.4,102.7,230.1z M234.8,418.8
			c-2,1.3-4.3-0.4-4.1-2.7c0,0,0-0.1,0-0.1c0.5-0.4,1-0.8,1.4-1.1c0.5-0.3,1-0.6,1.5-0.9c0,0,0,0,0,0
			C236,414.6,236.8,417.5,234.8,418.8z M234.9,412c-0.9,0.8-2.2,1.5-3.2,2.2c-1,0.7-2.1,1.6-3.2,2.1c-1.9,1-3.9-1.5-5-2.9
			c3.5-2.4,7-4.8,10.5-7.1C234.9,407.8,236.5,410.6,234.9,412z M232,401.2c0.4,0.6,0.8,1.2,1.2,1.8l-12.6,8.6
			c-0.4-0.6-0.8-1.2-1.2-1.8C223.6,406.9,227.8,404,232,401.2z M225.8,395.7c1.3,1.9,2.6,3.7,3.8,5.6c-3,2.1-6.1,4.1-9.1,6.2
			c-1.3-1.9-2.6-3.7-3.8-5.6C219.7,399.8,222.7,397.8,225.8,395.7z M223.5,393.7l-7.8,5.3c-1.2-1.7-2.4-3.5-3.6-5.2
			c3.3,0.9,7.5-1.9,7.9-5.3C221.2,390.2,222.3,392,223.5,393.7z M184.6,336.1c11.5,16.9,22.8,33.9,34.3,50.8
			c1.3,3.9-4.8,7.9-7.9,5.3c-11.5-16.8-23.2-33.6-34.6-50.5L184.6,336.1z M183.9,332.9c-3.4,2.3-6.8,4.6-10.2,7
			c-0.8-1.5-1.5-3.3,0-4.5c1-0.7,2-1.4,3-2.1c1-0.7,1.9-1.4,2.9-2C181.3,330.3,182.8,331.6,183.9,332.9z M163.9,305.7
			c5.5,8.1,11.3,16.1,16.8,24.2c-0.3,0-0.6,0.1-0.9,0.2c-1.3,0.6-2.5,1.7-3.6,2.4c-1.1,0.8-2.5,1.5-3.6,2.4
			c-0.2,0.2-0.4,0.5-0.6,0.8c-5.5-8.1-10.8-16.3-16.3-24.5c0.1,0,0.3-0.1,0.4-0.1c1.3-0.5,2.6-1.7,3.8-2.5c1.1-0.8,2.6-1.5,3.6-2.5
			C163.7,306,163.8,305.8,163.9,305.7z M162.2,301c0.9,1.5,1.8,3.6,0.2,4.9c-1,0.7-2,1.4-3,2.1c-1,0.7-2,1.4-3,2.1
			c-1.7,1-3.3-0.6-4.4-2C155.3,305.6,158.7,303.3,162.2,301z M127.9,252.8c10.6,15.4,21.2,30.8,31.8,46.3l-8.6,5.9
			c-10.5-15.5-20.9-31.1-31.4-46.6C118,253.8,124.4,249.7,127.9,252.8C127.9,252.8,127.9,252.8,127.9,252.8z M123.2,246
			c1.2,1.7,2.3,3.4,3.5,5.1c-3.6-1.2-8,1.7-8.3,5.5c-1.1-1.7-2.2-3.3-3.4-5L123.2,246z M121.3,239.5c1,0,1-0.1,1.6,0.5
			c0.6,0.6,1,1,0.6,1.6c-0.5,0.9-2.2,1.8-3,2.4c-1.4,1-2.7,2-4.1,2.9c-1.3,0.9-2.6,1.7-3.9,2.6c-0.5,0.3-0.9,0.6-1.4,0.9
			c-0.3,0.2-0.6,0.2-0.5,0.3c-0.4-0.3-1.2-1.7-1.3-2.1c0,0,0,0,0-0.1c0,0,0,0,0-0.1c0-0.3,0.2-0.6,0.3-0.8c1-2.4,2.3-4.7,4.4-6.3
			C116.2,239.9,118.8,239.5,121.3,239.5z M119.4,238.7c-2.1,0.2-4.1,0.7-5.9,1.8c-1.7,1.2-2.9,3-3.8,4.8c-0.9-1.5-2.3-4-0.9-5.3
			c0.9-0.8,2-1.4,3-2c1-0.7,1.9-1.5,3-2C116.5,235.1,118.3,237.3,119.4,238.7z M104.4,229.4c0.4-0.2,0.8-0.4,1.1-0.7
			c0.3-0.2,0.7-0.5,1-0.8c4.2-1.7,8.8,2.3,8.1,6.9c0,0,0,0,0,0c-1.2,0.5-2.4,1.7-3.3,2.3c-1,0.7-2.5,1.4-3.4,2.3
			c0,0-0.1-0.1-0.2-0.1C103.2,238.3,101.3,232.6,104.4,229.4z"/>
		<path d="M125.9,260.6c-0.2,0.8-1.3,1.6-1.1,1.9c0.2,0.3,1.4-0.4,2.2-0.2c0.7,0.2,2.1,1.8,2.4,1.6c0.3-0.2-0.7-2.1-0.5-2.8
			c0.1-0.7,1.2-1.6,1.1-1.9c-0.2-0.2-1.5,0.4-2.2,0.2c-0.6-0.1-2.1-1.8-2.4-1.6C125.1,257.9,126.1,259.8,125.9,260.6z"/>
		<path d="M130,270c0.2,0.3,1.4-0.4,2.2-0.2c0.7,0.2,2.1,1.8,2.4,1.6c0.3-0.2-0.7-2.1-0.5-2.8s1.2-1.6,1.1-1.9
			c-0.2-0.2-1.5,0.4-2.2,0.2c-0.6-0.1-2.1-1.8-2.4-1.6c-0.3,0.2,0.7,2.1,0.5,2.8C130.9,268.9,129.8,269.8,130,270z"/>
		<path d="M203.1,377.5c0.2,0.3,1.4-0.4,2.2-0.2c0.7,0.2,2.1,1.8,2.4,1.6c0.3-0.2-0.7-2.1-0.5-2.8c0.1-0.7,1.2-1.6,1.1-1.9
			c-0.2-0.2-1.5,0.4-2.2,0.2c-0.6-0.1-2.1-1.8-2.4-1.6c-0.3,0.2,0.7,2.1,0.5,2.8S202.9,377.2,203.1,377.5z"/>
		<path d="M208.3,385.1c0.2,0.3,1.4-0.4,2.2-0.2s2.1,1.8,2.4,1.6c0.3-0.2-0.7-2.1-0.5-2.8s1.2-1.6,1.1-1.9c-0.2-0.2-1.5,0.4-2.2,0.2
			c-0.6-0.1-2.1-1.8-2.4-1.6c-0.3,0.2,0.7,2.1,0.5,2.8C209.2,384,208.1,384.8,208.3,385.1z"/>
		<path d="M172.4,327c0.8-0.5,1.1-1.4,0.2-2.8c-1-1.4-8.9-10.1-8.9-10.1s5.1,10.6,6.1,12C170.7,327.6,171.6,327.6,172.4,327z"/>
		<polygon points="107.9,234.4 107.9,236.6 108.7,234.5 111.1,236.9 109.8,233.8 111.9,233.8 109.9,233 112.3,230.6 109.2,231.9 
			109.2,229.7 108.4,231.7 106,229.4 107.3,232.5 105.1,232.5 107.1,233.3 104.8,235.7 		"/>
		<path d="M399.2,135.9c-4-2.7-5.5-7.7-4-12c-0.7,0.6-1.4,1.3-1.9,2.1c-2.7,3.9-2.3,9,0.5,12.5c-4.3-0.6-8.3,3.4-7.8,8
			c-2,0-3.9,2.6-4.9,3.9c0,0,0,0,0,0c-0.1,0-0.2,0-0.3,0c-1.8-0.1-2.9,0.1-3.8,2c-0.5,1.2,0.6,2.3,1.8,3.1
			c-12.9,18.9-25.9,37.6-38.8,56.5c-0.2-0.1-0.3-0.2-0.5-0.3c-0.1,0-0.1-0.1-0.2-0.1c-0.2,0-0.3,0-0.4,0.2c-0.7,1.2-1.7,3.1-1.5,4.7
			c-0.1,0-0.2,0.1-0.3,0.2c-5.8,8.4-11.7,16.7-17.5,25.2c0,0,0,0,0,0.1c-1.2,0.5-2.2,1.7-3,2.6c-0.2,0.2-0.1,0.5,0.1,0.7
			c0.2,0.1,0.4,0.3,0.6,0.4c-13.8,20.3-27.4,40.7-41.2,61c-0.1-0.1-0.2-0.1-0.2-0.2c-0.1-0.1-0.2-0.1-0.3-0.1c0,0,0,0,0,0
			c0,0,0,0,0,0c-0.1,0-0.2,0.1-0.3,0.2c-1.4,2.1-2.8,4.2-4.3,6.2c-0.4-0.3-0.9-0.6-1.3-0.9c-0.1-0.1-0.2-0.1-0.3-0.1c0,0,0,0,0,0
			c0,0,0,0,0,0c-0.1,0-0.2,0.1-0.3,0.2c-1,1.5-2,2.9-3,4.4c-0.1,0.2-0.1,0.5,0.1,0.7c0.2,0.2,0.4,0.3,0.7,0.5
			c-1,1.7-2.8,4.9-1.2,6.6c0.3,0.4,0.8,0.7,1.3,1.1c-2.4,1.1-3.1,4.5-0.6,6.2c2.4,1.7,5.3-0.2,5.5-2.8c0.5,0.4,1,0.7,1.6,0.8
			c2.2,0.6,4.4-2.1,5.6-3.6c0.2,0.1,0.4,0.3,0.7,0.5c0.2,0.1,0.5,0.1,0.7-0.1c1-1.5,2-2.9,3-4.4c0.1-0.2,0.1-0.5-0.1-0.7
			c-0.4-0.3-0.9-0.6-1.3-0.9c1.4-2.1,2.8-4.2,4.3-6.2c0.1-0.2,0.1-0.5-0.1-0.7c-0.1-0.1-0.2-0.1-0.3-0.2
			c13.8-20.3,27.8-40.4,41.6-60.7c0.2,0.1,0.4,0.3,0.7,0.4c0.1,0,0.1,0.1,0.2,0.1c0.2,0,0.3,0,0.5-0.2c0.6-1,1.3-2.5,1.3-3.8
			c5.8-8.4,11.3-17,17-25.5c0.1-0.1,0.1-0.2,0.1-0.3c1.6-0.4,3-2.1,3.9-3.2c0.2-0.2,0.1-0.5-0.1-0.7c-0.2-0.1-0.3-0.2-0.5-0.3
			c12.8-18.8,25.4-37.8,38.2-56.6c0.1-0.1,0.1-0.2,0.1-0.3c0.3,0.2,0.5,0.3,0.8,0.5c0.4,0.3,1.2,1,1.8,0.9c0.8-0.1,2-2.1,2.2-2.8
			c0.2-0.8-0.3-1.7-0.7-2.5c0.8-1.4,2.5-4.2,1.8-6c4.5-1.2,6.7-6.4,4.6-10.2c4.3,1.3,9.1-0.2,11.8-4.1c0.6-0.8,1-1.7,1.3-2.6
			C408.4,138.3,403.2,138.6,399.2,135.9z M266.7,330.8c-2-1.4-1.2-4.3,1.1-4.8c0,0,0,0,0,0c0.5,0.3,1.1,0.6,1.5,0.9
			c0.4,0.3,0.9,0.7,1.4,1.1c0,0,0,0.1,0,0.1C271,330.4,268.7,332.1,266.7,330.8z M273,328.3c-1.1-0.6-2.1-1.4-3.2-2.1
			c-1-0.7-2.3-1.4-3.2-2.2c-1.6-1.4,0-4.2,0.9-5.7c3.5,2.4,7,4.8,10.5,7.1C276.9,326.9,274.9,329.4,273,328.3z M282.1,321.7
			c-0.4,0.6-0.8,1.2-1.2,1.8l-12.6-8.6c0.4-0.6,0.8-1.2,1.2-1.8C273.7,316,277.9,318.9,282.1,321.7z M281.1,319.5
			c-3-2.1-6.1-4.1-9.1-6.2c1.3-1.9,2.6-3.7,3.8-5.6c3,2.1,6.1,4.1,9.1,6.2C283.6,315.8,282.3,317.6,281.1,319.5z M285.9,311
			l-7.8-5.3c1.2-1.7,2.3-3.5,3.5-5.2c0.4,3.4,4.6,6.2,7.9,5.3C288.3,307.5,287.1,309.2,285.9,311z M290.5,304.2
			c-3.1,2.5-9.2-1.4-7.9-5.3c11.4-16.9,22.8-33.9,34.3-50.8l8.3,5.6C313.7,270.5,302.1,287.3,290.5,304.2z M327.9,251.8
			c-3.4-2.3-6.8-4.6-10.2-7c1.1-1.3,2.6-2.6,4.3-1.6c1,0.6,1.9,1.3,2.9,2c1,0.7,2.1,1.3,3,2.1C329.4,248.5,328.7,250.4,327.9,251.8z
			 M329.5,247.7c-0.1-0.3-0.3-0.5-0.6-0.8c-1-0.9-2.4-1.6-3.6-2.4c-1.1-0.8-2.3-1.9-3.6-2.4c-0.3-0.1-0.6-0.2-0.9-0.2
			c5.5-8.1,11.3-16.1,16.8-24.2c0.1,0.2,0.2,0.4,0.4,0.5c1,1,2.5,1.7,3.6,2.5c1.2,0.8,2.4,2,3.8,2.5c0.1,0.1,0.3,0.1,0.4,0.1
			C340.3,231.4,335,239.6,329.5,247.7z M345.2,221.9c-1-0.6-2-1.4-3-2.1c-1-0.7-2.1-1.3-3-2.1c-1.6-1.2-0.6-3.3,0.2-4.9
			c3.4,2.3,6.8,4.6,10.3,7C348.5,221.3,346.9,222.9,345.2,221.9z M381.9,170.3c-10.5,15.5-20.9,31.1-31.4,46.6l-8.6-5.9
			c10.5-15.5,21.2-30.8,31.8-46.3c0,0,0,0,0,0C377.1,161.7,383.5,165.8,381.9,170.3z M383.1,168.5c-0.2-3.7-4.7-6.6-8.3-5.5
			c1.2-1.7,2.3-3.4,3.5-5.1l8.2,5.6C385.4,165.2,384.2,166.8,383.1,168.5z M392.2,160.5c-0.1,0.4-0.9,1.8-1.3,2.1
			c0.1-0.1-0.3-0.1-0.5-0.3c-0.5-0.3-0.9-0.6-1.4-0.9c-1.3-0.8-2.6-1.7-3.9-2.6c-1.4-0.9-2.8-1.9-4.1-2.9c-0.8-0.6-2.5-1.4-3-2.4
			c-0.4-0.6,0.1-1,0.6-1.6c0.6-0.6,0.7-0.6,1.6-0.5c2.5,0.1,5.1,0.4,7.3,1.8c2.1,1.5,3.4,3.9,4.4,6.3c0.1,0.3,0.3,0.6,0.3,0.8
			C392.2,160.4,392.2,160.4,392.2,160.5C392.2,160.4,392.2,160.5,392.2,160.5z M391.9,157.2c-1-1.8-2.2-3.6-3.8-4.8
			c-1.8-1.1-3.8-1.6-5.9-1.8c1.1-1.4,2.9-3.6,4.6-2.7c1,0.5,2,1.4,3,2c1,0.7,2.1,1.2,3,2C394.1,153.2,392.8,155.7,391.9,157.2z
			 M393.8,151.3c-0.1,0-0.1,0-0.2,0.1c-0.9-0.9-2.4-1.6-3.4-2.3c-1-0.7-2.2-1.8-3.3-2.3c0,0,0,0,0,0c-0.7-4.6,3.8-8.6,8.1-6.9
			c0.3,0.3,0.6,0.5,1,0.8c0.4,0.2,0.7,0.5,1.1,0.7C400.3,144.6,398.3,150.2,393.8,151.3z"/>
		<path d="M376.2,169.7c-0.3-0.2-1.7,1.5-2.4,1.6c-0.6,0.1-2-0.5-2.2-0.2c-0.2,0.2,0.9,1.2,1.1,1.9c0.1,0.7-0.8,2.6-0.5,2.8
			c0.3,0.2,1.6-1.5,2.4-1.6c0.7-0.2,2,0.5,2.2,0.2c0.2-0.3-0.9-1.1-1.1-1.9C375.5,171.8,376.5,169.9,376.2,169.7z"/>
		<path d="M371,177.3c-0.3-0.2-1.7,1.5-2.4,1.6c-0.6,0.1-2-0.5-2.2-0.2c-0.2,0.2,0.9,1.2,1.1,1.9c0.1,0.7-0.8,2.6-0.5,2.8
			c0.3,0.2,1.6-1.5,2.4-1.6s2,0.5,2.2,0.2c0.2-0.3-0.9-1.1-1.1-1.9C370.3,179.4,371.3,177.5,371,177.3z"/>
		<path d="M297.9,284.8c-0.3-0.2-1.7,1.5-2.4,1.6c-0.6,0.1-2-0.5-2.2-0.2c-0.2,0.2,0.9,1.2,1.1,1.9c0.1,0.7-0.8,2.6-0.5,2.8
			c0.3,0.2,1.6-1.5,2.4-1.6c0.7-0.2,2,0.5,2.2,0.2c0.2-0.3-0.9-1.1-1.1-1.9C297.2,286.9,298.2,285,297.9,284.8z"/>
		<path d="M292.7,292.4c-0.3-0.2-1.7,1.5-2.4,1.6c-0.6,0.1-2-0.5-2.2-0.2c-0.2,0.2,0.9,1.2,1.1,1.9c0.1,0.7-0.8,2.6-0.5,2.8
			c0.3,0.2,1.6-1.5,2.4-1.6c0.7-0.2,2,0.5,2.2,0.2c0.2-0.3-0.9-1.1-1.1-1.9C292,294.5,293,292.6,292.7,292.4z"/>
		<path d="M329.1,239c0.8,0.5,1.7,0.5,2.7-0.9c1-1.4,6.1-12,6.1-12s-8,8.7-8.9,10.1C328,237.6,328.4,238.5,329.1,239z"/>
		<polygon points="396.4,144.5 394.3,144.4 395.6,141.4 393.2,143.7 392.4,141.7 392.4,143.9 389.3,142.6 391.6,144.9 389.6,145.8 
			391.8,145.8 390.5,148.9 392.9,146.5 393.7,148.5 393.7,146.3 396.8,147.7 394.4,145.3 		"/>
		<path d="M399.2,224c-4-2.7-5.5-7.7-4-12c-0.7,0.6-1.4,1.3-1.9,2.1c-2.7,3.9-2.3,9,0.5,12.5c-4.3-0.6-8.3,3.4-7.8,8
			c-2,0-3.9,2.6-4.9,3.9c0,0,0,0,0,0c-0.1,0-0.2,0-0.3,0c-1.8-0.1-2.9,0.1-3.8,2c-0.5,1.2,0.6,2.3,1.8,3.1
			c-12.9,18.9-25.9,37.6-38.8,56.5c-0.2-0.1-0.3-0.2-0.5-0.3c-0.1,0-0.1-0.1-0.2-0.1c-0.2,0-0.3,0-0.4,0.2c-0.7,1.2-1.7,3.1-1.5,4.7
			c-0.1,0-0.2,0.1-0.3,0.2c-5.8,8.4-11.7,16.7-17.5,25.2c0,0,0,0,0,0.1c-1.2,0.5-2.2,1.7-3,2.6c-0.2,0.2-0.1,0.5,0.1,0.7
			c0.2,0.1,0.4,0.3,0.6,0.4c-13.8,20.3-27.4,40.7-41.2,61c-0.1-0.1-0.2-0.1-0.2-0.2c-0.1-0.1-0.2-0.1-0.3-0.1c0,0,0,0,0,0
			c0,0,0,0,0,0c-0.1,0-0.2,0.1-0.3,0.2c-1.4,2.1-2.8,4.2-4.3,6.2c-0.4-0.3-0.9-0.6-1.3-0.9c-0.1-0.1-0.2-0.1-0.3-0.1c0,0,0,0,0,0
			c0,0,0,0,0,0c-0.1,0-0.2,0.1-0.3,0.2c-1,1.5-2,2.9-3,4.4c-0.1,0.2-0.1,0.5,0.1,0.7c0.2,0.2,0.4,0.3,0.7,0.5
			c-1,1.7-2.8,4.9-1.2,6.6c0.3,0.4,0.8,0.7,1.3,1.1c-2.4,1.1-3.1,4.5-0.6,6.2c2.4,1.7,5.3-0.2,5.5-2.8c0.5,0.4,1,0.7,1.6,0.8
			c2.2,0.6,4.4-2.1,5.6-3.6c0.2,0.1,0.4,0.3,0.7,0.5c0.2,0.1,0.5,0.1,0.7-0.1c1-1.5,2-2.9,3-4.4c0.1-0.2,0.1-0.5-0.1-0.7
			c-0.4-0.3-0.9-0.6-1.3-0.9c1.4-2.1,2.8-4.2,4.3-6.2c0.1-0.2,0.1-0.5-0.1-0.7c-0.1-0.1-0.2-0.1-0.3-0.2
			c13.8-20.3,27.8-40.4,41.6-60.7c0.2,0.1,0.4,0.3,0.7,0.4c0.1,0,0.1,0.1,0.2,0.1c0.2,0,0.3,0,0.5-0.2c0.6-1,1.3-2.5,1.3-3.8
			c5.8-8.4,11.3-17,17-25.5c0.1-0.1,0.1-0.2,0.1-0.3c1.6-0.4,3-2.1,3.9-3.2c0.2-0.2,0.1-0.5-0.1-0.7c-0.2-0.1-0.3-0.2-0.5-0.3
			c12.8-18.8,25.4-37.8,38.2-56.6c0.1-0.1,0.1-0.2,0.1-0.3c0.3,0.2,0.5,0.3,0.8,0.5c0.4,0.3,1.2,1,1.8,0.9c0.8-0.1,2-2.1,2.2-2.8
			c0.2-0.8-0.3-1.7-0.7-2.5c0.8-1.4,2.5-4.2,1.8-6c4.5-1.2,6.7-6.4,4.6-10.2c4.3,1.3,9.1-0.2,11.8-4.1c0.6-0.8,1-1.7,1.3-2.6
			C408.4,226.3,403.2,226.7,399.2,224z M266.7,418.8c-2-1.4-1.2-4.3,1.1-4.8c0,0,0,0,0,0c0.5,0.3,1.1,0.6,1.5,0.9
			c0.4,0.3,0.9,0.7,1.4,1.1c0,0,0,0.1,0,0.1C271,418.4,268.7,420.2,266.7,418.8z M273,416.4c-1.1-0.6-2.1-1.4-3.2-2.1
			c-1-0.7-2.3-1.4-3.2-2.2c-1.6-1.4,0-4.2,0.9-5.7c3.5,2.4,7,4.8,10.5,7.1C276.9,414.9,274.9,417.4,273,416.4z M282.1,409.7
			c-0.4,0.6-0.8,1.2-1.2,1.8l-12.6-8.6c0.4-0.6,0.8-1.2,1.2-1.8C273.7,404,277.9,406.9,282.1,409.7z M281.1,407.5
			c-3-2.1-6.1-4.1-9.1-6.2c1.3-1.9,2.6-3.7,3.8-5.6c3,2.1,6.1,4.1,9.1,6.2C283.6,403.8,282.3,405.7,281.1,407.5z M285.9,399
			l-7.8-5.3c1.2-1.7,2.3-3.5,3.5-5.2c0.4,3.4,4.6,6.2,7.9,5.3C288.3,395.5,287.1,397.3,285.9,399z M290.5,392.2
			c-3.1,2.5-9.2-1.4-7.9-5.3c11.4-16.9,22.8-33.9,34.3-50.8l8.3,5.6C313.7,358.6,302.1,375.3,290.5,392.2z M327.9,339.9
			c-3.4-2.3-6.8-4.6-10.2-7c1.1-1.3,2.6-2.6,4.3-1.6c1,0.6,1.9,1.3,2.9,2c1,0.7,2.1,1.3,3,2.1C329.4,336.5,328.7,338.4,327.9,339.9z
			 M329.5,335.7c-0.1-0.3-0.3-0.5-0.6-0.8c-1-0.9-2.4-1.6-3.6-2.4c-1.1-0.8-2.3-1.9-3.6-2.4c-0.3-0.1-0.6-0.2-0.9-0.2
			c5.5-8.1,11.3-16.1,16.8-24.2c0.1,0.2,0.2,0.4,0.4,0.5c1,1,2.5,1.7,3.6,2.5c1.2,0.8,2.4,2,3.8,2.5c0.1,0.1,0.3,0.1,0.4,0.1
			C340.3,319.4,335,327.6,329.5,335.7z M345.2,309.9c-1-0.6-2-1.4-3-2.1c-1-0.7-2.1-1.3-3-2.1c-1.6-1.2-0.6-3.3,0.2-4.9
			c3.4,2.3,6.8,4.6,10.3,7C348.5,309.3,346.9,310.9,345.2,309.9z M381.9,258.3c-10.5,15.5-20.9,31.1-31.4,46.6l-8.6-5.9
			c10.5-15.5,21.2-30.8,31.8-46.3c0,0,0,0,0,0C377.1,249.7,383.5,253.8,381.9,258.3z M383.1,256.5c-0.2-3.7-4.7-6.6-8.3-5.5
			c1.2-1.7,2.3-3.4,3.5-5.1l8.2,5.6C385.4,253.2,384.2,254.9,383.1,256.5z M392.2,248.5c-0.1,0.4-0.9,1.8-1.3,2.1
			c0.1-0.1-0.3-0.1-0.5-0.3c-0.5-0.3-0.9-0.6-1.4-0.9c-1.3-0.8-2.6-1.7-3.9-2.6c-1.4-0.9-2.8-1.9-4.1-2.9c-0.8-0.6-2.5-1.4-3-2.4
			c-0.4-0.6,0.1-1,0.6-1.6c0.6-0.6,0.7-0.6,1.6-0.5c2.5,0.1,5.1,0.4,7.3,1.8c2.1,1.5,3.4,3.9,4.4,6.3c0.1,0.3,0.3,0.6,0.3,0.8
			C392.2,248.4,392.2,248.4,392.2,248.5C392.2,248.5,392.2,248.5,392.2,248.5z M391.9,245.3c-1-1.8-2.2-3.6-3.8-4.8
			c-1.8-1.1-3.8-1.6-5.9-1.8c1.1-1.4,2.9-3.6,4.6-2.7c1,0.5,2,1.4,3,2c1,0.7,2.1,1.2,3,2C394.1,241.3,392.8,243.7,391.9,245.3z
			 M393.8,239.4c-0.1,0-0.1,0-0.2,0.1c-0.9-0.9-2.4-1.6-3.4-2.3c-1-0.7-2.2-1.8-3.3-2.3c0,0,0,0,0,0c-0.7-4.6,3.8-8.6,8.1-6.9
			c0.3,0.3,0.6,0.5,1,0.8c0.4,0.2,0.7,0.5,1.1,0.7C400.3,232.6,398.3,238.3,393.8,239.4z"/>
		<path d="M376.2,257.8c-0.3-0.2-1.7,1.5-2.4,1.6c-0.6,0.1-2-0.5-2.2-0.2c-0.2,0.2,0.9,1.2,1.1,1.9c0.1,0.7-0.8,2.6-0.5,2.8
			c0.3,0.2,1.6-1.5,2.4-1.6c0.7-0.2,2,0.5,2.2,0.2c0.2-0.3-0.9-1.1-1.1-1.9C375.5,259.8,376.5,257.9,376.2,257.8z"/>
		<path d="M371,265.3c-0.3-0.2-1.7,1.5-2.4,1.6c-0.6,0.1-2-0.5-2.2-0.2c-0.2,0.2,0.9,1.2,1.1,1.9c0.1,0.7-0.8,2.6-0.5,2.8
			c0.3,0.2,1.6-1.5,2.4-1.6c0.7-0.2,2,0.5,2.2,0.2c0.2-0.3-0.9-1.1-1.1-1.9C370.3,267.4,371.3,265.5,371,265.3z"/>
		<path d="M297.9,372.8c-0.3-0.2-1.7,1.5-2.4,1.6c-0.6,0.1-2-0.5-2.2-0.2c-0.2,0.2,0.9,1.2,1.1,1.9c0.1,0.7-0.8,2.6-0.5,2.8
			c0.3,0.2,1.6-1.5,2.4-1.6c0.7-0.2,2,0.5,2.2,0.2c0.2-0.3-0.9-1.1-1.1-1.9C297.2,374.9,298.2,373,297.9,372.8z"/>
		<path d="M292.7,380.4c-0.3-0.2-1.7,1.5-2.4,1.6c-0.6,0.1-2-0.5-2.2-0.2c-0.2,0.2,0.9,1.2,1.1,1.9s-0.8,2.6-0.5,2.8
			c0.3,0.2,1.6-1.5,2.4-1.6c0.7-0.2,2,0.5,2.2,0.2c0.2-0.3-0.9-1.1-1.1-1.9C292,382.5,293,380.6,292.7,380.4z"/>
		<path d="M329.1,327c0.8,0.5,1.7,0.5,2.7-0.9c1-1.4,6.1-12,6.1-12s-8,8.7-8.9,10.1C328,325.6,328.4,326.5,329.1,327z"/>
		<polygon points="396.4,232.5 394.3,232.5 395.6,229.4 393.2,231.7 392.4,229.7 392.4,231.9 389.3,230.6 391.6,233 389.6,233.8 
			391.8,233.8 390.5,236.9 392.9,234.5 393.7,236.6 393.7,234.4 396.8,235.7 394.4,233.3 		"/>
		<path d="M398.8,721.7c2.1-3.8-0.1-8.9-4.6-10.2c0.7-1.8-1-4.6-1.8-6c0.4-0.8,0.9-1.7,0.7-2.5c-0.1-0.7-1.3-2.7-2.2-2.8
			c-0.6-0.1-1.4,0.6-1.8,0.9c-0.3,0.2-0.5,0.3-0.8,0.5c0-0.1,0-0.2-0.1-0.3c-12.8-18.8-25.4-37.8-38.2-56.6c0.2-0.1,0.3-0.2,0.5-0.3
			c0.2-0.1,0.3-0.5,0.1-0.7c-0.9-1.1-2.3-2.8-3.9-3.2c0-0.1,0-0.2-0.1-0.3c-5.7-8.5-11.2-17-17-25.5c0-1.3-0.7-2.8-1.3-3.8
			c-0.1-0.2-0.3-0.2-0.5-0.2c-0.1,0-0.1,0-0.2,0.1c-0.2,0.1-0.4,0.3-0.7,0.4c-13.8-20.3-27.8-40.4-41.6-60.7
			c0.1-0.1,0.2-0.1,0.3-0.2c0.2-0.1,0.3-0.4,0.1-0.7c-1.4-2.1-2.8-4.2-4.3-6.2c0.4-0.3,0.9-0.6,1.3-0.9c0.2-0.1,0.3-0.4,0.1-0.7
			c-1-1.5-2-2.9-3-4.4c-0.1-0.2-0.4-0.3-0.7-0.1c-0.2,0.2-0.4,0.3-0.7,0.5c-1.2-1.5-3.4-4.3-5.6-3.6c-0.5,0.2-1.1,0.5-1.6,0.8
			c-0.2-2.6-3.1-4.5-5.5-2.8c-2.4,1.7-1.8,5.1,0.6,6.2c-0.5,0.3-0.9,0.7-1.3,1.1c-1.6,1.8,0.2,4.9,1.2,6.6c-0.2,0.2-0.4,0.3-0.7,0.5
			c-0.2,0.1-0.3,0.4-0.1,0.7c1,1.5,2,2.9,3,4.4c0.1,0.1,0.2,0.2,0.3,0.2c0,0,0,0,0,0c0,0,0,0,0,0c0.1,0,0.2,0,0.3-0.1
			c0.4-0.3,0.9-0.6,1.3-0.9c1.4,2.1,2.8,4.2,4.3,6.2c0.1,0.1,0.2,0.2,0.3,0.2c0,0,0,0,0,0c0,0,0,0,0,0c0.1,0,0.2,0,0.3-0.1
			c0.1-0.1,0.2-0.1,0.2-0.2c13.8,20.3,27.4,40.7,41.2,61c-0.2,0.1-0.4,0.3-0.6,0.4c-0.2,0.1-0.3,0.5-0.1,0.7c0.7,0.9,1.8,2.1,3,2.6
			c0,0,0,0,0,0.1c5.8,8.4,11.7,16.7,17.5,25.2c0.1,0.1,0.2,0.2,0.3,0.2c-0.2,1.6,0.8,3.5,1.5,4.7c0.1,0.2,0.3,0.2,0.4,0.2
			c0.1,0,0.1,0,0.2-0.1c0.2-0.1,0.3-0.2,0.5-0.3c12.9,18.9,25.9,37.6,38.8,56.5c-1.2,0.8-2.3,1.9-1.8,3.1c0.9,1.9,1.9,2.1,3.8,2
			c0.1,0,0.2,0,0.3,0c0,0,0,0,0,0c1,1.3,2.9,3.9,4.9,3.9c-0.5,4.6,3.5,8.6,7.8,8c-2.8,3.5-3.2,8.6-0.5,12.5c0.6,0.8,1.2,1.5,1.9,2.1
			c-1.5-4.3,0.1-9.3,4-12c4-2.7,9.1-2.3,12.6,0.6c-0.3-0.9-0.7-1.8-1.3-2.6C407.9,721.9,403.1,720.4,398.8,721.7z M266.7,533
			c2-1.3,4.3,0.4,4.1,2.7c0,0,0,0.1,0,0.1c-0.5,0.4-1,0.8-1.4,1.1c-0.5,0.3-1,0.6-1.5,0.9c0,0,0,0,0,0
			C265.5,537.2,264.7,534.3,266.7,533z M266.6,539.8c0.9-0.8,2.2-1.5,3.2-2.2c1-0.7,2.1-1.6,3.2-2.1c1.9-1,3.9,1.5,5,2.9
			c-3.5,2.4-7,4.8-10.5,7.1C266.6,544,265,541.2,266.6,539.8z M269.5,550.6c-0.4-0.6-0.8-1.2-1.2-1.8l12.6-8.6
			c0.4,0.6,0.8,1.2,1.2,1.8C277.9,544.9,273.7,547.8,269.5,550.6z M275.8,556.1c-1.3-1.9-2.6-3.7-3.8-5.6c3-2.1,6.1-4.1,9.1-6.2
			c1.3,1.9,2.6,3.7,3.8,5.6C281.8,552,278.8,554,275.8,556.1z M278,558.1l7.8-5.3c1.2,1.7,2.4,3.5,3.6,5.2c-3.3-0.9-7.5,1.9-7.9,5.3
			C280.4,561.6,279.2,559.8,278,558.1z M316.9,615.7c-11.5-16.9-22.8-33.9-34.3-50.8c-1.3-3.9,4.8-7.9,7.9-5.3
			c11.5,16.8,23.2,33.6,34.6,50.5L316.9,615.7z M317.7,618.9c3.4-2.3,6.8-4.6,10.2-7c0.8,1.5,1.5,3.3,0,4.5c-1,0.7-2,1.4-3,2.1
			c-1,0.7-1.9,1.4-2.9,2C320.3,621.5,318.8,620.2,317.7,618.9z M337.7,646.1c-5.5-8.1-11.3-16.1-16.8-24.2c0.3,0,0.6-0.1,0.9-0.2
			c1.3-0.6,2.5-1.7,3.6-2.4c1.1-0.8,2.5-1.5,3.6-2.4c0.2-0.2,0.4-0.5,0.6-0.8c5.5,8.1,10.8,16.3,16.3,24.5c-0.1,0-0.3,0.1-0.4,0.1
			c-1.3,0.5-2.6,1.7-3.8,2.5c-1.1,0.8-2.6,1.5-3.6,2.5C337.9,645.8,337.8,646,337.7,646.1z M339.4,650.8c-0.9-1.5-1.8-3.6-0.2-4.9
			c1-0.7,2-1.4,3-2.1c1-0.7,2-1.4,3-2.1c1.7-1,3.3,0.6,4.4,2C346.2,646.2,342.8,648.5,339.4,650.8z M373.6,699
			c-10.6-15.4-21.2-30.8-31.8-46.3l8.6-5.9c10.5,15.5,20.9,31.1,31.4,46.6C383.5,698,377.1,702.1,373.6,699
			C373.7,699,373.7,699,373.6,699z M378.3,705.8c-1.2-1.7-2.3-3.4-3.5-5.1c3.6,1.2,8-1.7,8.3-5.5c1.1,1.7,2.2,3.3,3.4,5L378.3,705.8
			z M380.3,712.3c-1,0-1,0.1-1.6-0.5c-0.6-0.6-1-1-0.6-1.6c0.5-0.9,2.2-1.8,3-2.4c1.4-1,2.7-2,4.1-2.9c1.3-0.9,2.6-1.7,3.9-2.6
			c0.5-0.3,0.9-0.6,1.4-0.9c0.3-0.2,0.6-0.2,0.5-0.3c0.4,0.3,1.2,1.7,1.3,2.1c0,0,0,0,0,0.1c0,0,0,0,0,0.1c0,0.3-0.2,0.6-0.3,0.8
			c-1,2.4-2.3,4.7-4.4,6.3C385.4,711.9,382.7,712.3,380.3,712.3z M382.2,713.1c2.1-0.2,4.1-0.7,5.9-1.8c1.7-1.2,2.9-3,3.8-4.8
			c0.9,1.5,2.3,4,0.9,5.3c-0.9,0.8-2,1.4-3,2c-1,0.7-1.9,1.5-3,2C385.1,716.7,383.2,714.5,382.2,713.1z M397.1,722.4
			c-0.4,0.2-0.8,0.4-1.1,0.7c-0.3,0.2-0.7,0.5-1,0.8c-4.2,1.7-8.8-2.3-8.1-6.9c0,0,0,0,0,0c1.2-0.5,2.4-1.7,3.3-2.3
			c1-0.7,2.5-1.4,3.4-2.3c0,0,0.1,0.1,0.2,0.1C398.3,713.5,400.3,719.2,397.1,722.4z"/>
		<path d="M375.7,691.2c0.2-0.8,1.3-1.6,1.1-1.9c-0.2-0.3-1.4,0.4-2.2,0.2c-0.7-0.2-2.1-1.8-2.4-1.6c-0.3,0.2,0.7,2.1,0.5,2.8
			c-0.1,0.7-1.2,1.6-1.1,1.9c0.2,0.2,1.5-0.4,2.2-0.2c0.6,0.1,2.1,1.8,2.4,1.6C376.5,693.9,375.5,692,375.7,691.2z"/>
		<path d="M371.6,681.8c-0.2-0.3-1.4,0.4-2.2,0.2c-0.7-0.2-2.1-1.8-2.4-1.6c-0.3,0.2,0.7,2.1,0.5,2.8c-0.1,0.7-1.2,1.6-1.1,1.9
			c0.2,0.2,1.5-0.4,2.2-0.2c0.6,0.1,2.1,1.8,2.4,1.6c0.3-0.2-0.7-2.1-0.5-2.8C370.7,682.9,371.8,682,371.6,681.8z"/>
		<path d="M298.4,574.3c-0.2-0.3-1.4,0.4-2.2,0.2c-0.7-0.2-2.1-1.8-2.4-1.6c-0.3,0.2,0.7,2.1,0.5,2.8c-0.1,0.7-1.2,1.6-1.1,1.9
			c0.2,0.2,1.5-0.4,2.2-0.2c0.6,0.1,2.1,1.8,2.4,1.6c0.3-0.2-0.7-2.1-0.5-2.8C297.5,575.4,298.6,574.6,298.4,574.3z"/>
		<path d="M293.3,566.7c-0.2-0.3-1.4,0.4-2.2,0.2c-0.7-0.2-2.1-1.8-2.4-1.6c-0.3,0.2,0.7,2.1,0.5,2.8s-1.2,1.6-1.1,1.9
			c0.2,0.2,1.5-0.4,2.2-0.2c0.6,0.1,2.1,1.8,2.4,1.6c0.3-0.2-0.7-2.1-0.5-2.8C292.4,567.8,293.5,567,293.3,566.7z"/>
		<path d="M329.1,624.8c-0.8,0.5-1.1,1.4-0.2,2.8c1,1.4,8.9,10.1,8.9,10.1s-5.1-10.6-6.1-12C330.9,624.2,329.9,624.2,329.1,624.8z"
			/>
		<polygon points="393.7,717.4 393.7,715.2 392.9,717.3 390.5,714.9 391.8,718 389.6,718 391.6,718.8 389.3,721.2 392.4,719.9 
			392.4,722.1 393.2,720.1 395.6,722.4 394.3,719.3 396.4,719.3 394.4,718.5 396.8,716.1 		"/>
		<path d="M398.8,633.7c2.1-3.8-0.1-8.9-4.6-10.2c0.7-1.8-1-4.6-1.8-6c0.4-0.8,0.9-1.7,0.7-2.5c-0.1-0.7-1.3-2.7-2.2-2.8
			c-0.6-0.1-1.4,0.6-1.8,0.9c-0.3,0.2-0.5,0.3-0.8,0.5c0-0.1,0-0.2-0.1-0.3c-12.8-18.8-25.4-37.8-38.2-56.6c0.2-0.1,0.3-0.2,0.5-0.3
			c0.2-0.1,0.3-0.5,0.1-0.7c-0.9-1.1-2.3-2.8-3.9-3.2c0-0.1,0-0.2-0.1-0.3c-5.7-8.5-11.2-17-17-25.5c0-1.3-0.7-2.8-1.3-3.8
			c-0.1-0.2-0.3-0.2-0.5-0.2c-0.1,0-0.1,0-0.2,0.1c-0.2,0.1-0.4,0.3-0.7,0.4c-13.8-20.3-27.8-40.4-41.6-60.7
			c0.1-0.1,0.2-0.1,0.3-0.2c0.2-0.1,0.3-0.4,0.1-0.7c-1.4-2.1-2.8-4.2-4.3-6.2c0.4-0.3,0.9-0.6,1.3-0.9c0.2-0.1,0.3-0.4,0.1-0.7
			c-1-1.5-2-2.9-3-4.4c-0.1-0.2-0.4-0.3-0.7-0.1c-0.2,0.2-0.4,0.3-0.7,0.5c-1.2-1.5-3.4-4.3-5.6-3.6c-0.5,0.2-1.1,0.5-1.6,0.8
			c-0.2-2.6-3.1-4.5-5.5-2.8c-2.4,1.7-1.8,5.1,0.6,6.2c-0.5,0.3-0.9,0.7-1.3,1.1c-1.6,1.8,0.2,4.9,1.2,6.6c-0.2,0.2-0.4,0.3-0.7,0.5
			c-0.2,0.1-0.3,0.4-0.1,0.7c1,1.5,2,2.9,3,4.4c0.1,0.1,0.2,0.2,0.3,0.2c0,0,0,0,0,0c0,0,0,0,0,0c0.1,0,0.2,0,0.3-0.1
			c0.4-0.3,0.9-0.6,1.3-0.9c1.4,2.1,2.8,4.2,4.3,6.2c0.1,0.1,0.2,0.2,0.3,0.2c0,0,0,0,0,0c0,0,0,0,0,0c0.1,0,0.2,0,0.3-0.1
			c0.1-0.1,0.2-0.1,0.2-0.2c13.8,20.3,27.4,40.7,41.2,61c-0.2,0.1-0.4,0.3-0.6,0.4c-0.2,0.1-0.3,0.5-0.1,0.7c0.7,0.9,1.8,2.1,3,2.6
			c0,0,0,0,0,0.1c5.8,8.4,11.7,16.7,17.5,25.2c0.1,0.1,0.2,0.2,0.3,0.2c-0.2,1.6,0.8,3.5,1.5,4.7c0.1,0.2,0.3,0.2,0.4,0.2
			c0.1,0,0.1,0,0.2-0.1c0.2-0.1,0.3-0.2,0.5-0.3c12.9,18.9,25.9,37.6,38.8,56.5c-1.2,0.8-2.3,1.9-1.8,3.1c0.9,1.9,1.9,2.1,3.8,2
			c0.1,0,0.2,0,0.3,0c0,0,0,0,0,0c1,1.3,2.9,3.9,4.9,3.9c-0.5,4.6,3.5,8.6,7.8,8c-2.8,3.5-3.2,8.6-0.5,12.5c0.6,0.8,1.2,1.5,1.9,2.1
			c-1.5-4.3,0.1-9.3,4-12c4-2.7,9.1-2.3,12.6,0.6c-0.3-0.9-0.7-1.8-1.3-2.6C407.9,633.9,403.1,632.4,398.8,633.7z M266.7,444.9
			c2-1.3,4.3,0.4,4.1,2.7c0,0,0,0.1,0,0.1c-0.5,0.4-1,0.8-1.4,1.1c-0.5,0.3-1,0.6-1.5,0.9c0,0,0,0,0,0
			C265.5,449.2,264.7,446.3,266.7,444.9z M266.6,451.8c0.9-0.8,2.2-1.5,3.2-2.2c1-0.7,2.1-1.6,3.2-2.1c1.9-1,3.9,1.5,5,2.9
			c-3.5,2.4-7,4.8-10.5,7.1C266.6,455.9,265,453.2,266.6,451.8z M269.5,462.6c-0.4-0.6-0.8-1.2-1.2-1.8l12.6-8.6
			c0.4,0.6,0.8,1.2,1.2,1.8C277.9,456.9,273.7,459.8,269.5,462.6z M275.8,468.1c-1.3-1.9-2.6-3.7-3.8-5.6c3-2.1,6.1-4.1,9.1-6.2
			c1.3,1.9,2.6,3.7,3.8,5.6C281.8,463.9,278.8,466,275.8,468.1z M278,470.1l7.8-5.3c1.2,1.7,2.4,3.5,3.6,5.2
			c-3.3-0.9-7.5,1.9-7.9,5.3C280.4,473.5,279.2,471.8,278,470.1z M316.9,527.7c-11.5-16.9-22.8-33.9-34.3-50.8
			c-1.3-3.9,4.8-7.9,7.9-5.3c11.5,16.8,23.2,33.6,34.6,50.5L316.9,527.7z M317.7,530.9c3.4-2.3,6.8-4.6,10.2-7
			c0.8,1.5,1.5,3.3,0,4.5c-1,0.7-2,1.4-3,2.1c-1,0.7-1.9,1.4-2.9,2C320.3,533.5,318.8,532.2,317.7,530.9z M337.7,558.1
			c-5.5-8.1-11.3-16.1-16.8-24.2c0.3,0,0.6-0.1,0.9-0.2c1.3-0.6,2.5-1.7,3.6-2.4c1.1-0.8,2.5-1.5,3.6-2.4c0.2-0.2,0.4-0.5,0.6-0.8
			c5.5,8.1,10.8,16.3,16.3,24.5c-0.1,0-0.3,0.1-0.4,0.1c-1.3,0.5-2.6,1.7-3.8,2.5c-1.1,0.8-2.6,1.5-3.6,2.5
			C337.9,557.8,337.8,557.9,337.7,558.1z M339.4,562.8c-0.9-1.5-1.8-3.6-0.2-4.9c1-0.7,2-1.4,3-2.1c1-0.7,2-1.4,3-2.1
			c1.7-1,3.3,0.6,4.4,2C346.2,558.2,342.8,560.5,339.4,562.8z M373.6,611c-10.6-15.4-21.2-30.8-31.8-46.3l8.6-5.9
			c10.5,15.5,20.9,31.1,31.4,46.6C383.5,610,377.1,614,373.6,611C373.7,611,373.7,611,373.6,611z M378.3,617.8
			c-1.2-1.7-2.3-3.4-3.5-5.1c3.6,1.2,8-1.7,8.3-5.5c1.1,1.7,2.2,3.3,3.4,5L378.3,617.8z M380.3,624.3c-1,0-1,0.1-1.6-0.5
			c-0.6-0.6-1-1-0.6-1.6c0.5-0.9,2.2-1.8,3-2.4c1.4-1,2.7-2,4.1-2.9c1.3-0.9,2.6-1.7,3.9-2.6c0.5-0.3,0.9-0.6,1.4-0.9
			c0.3-0.2,0.6-0.2,0.5-0.3c0.4,0.3,1.2,1.7,1.3,2.1c0,0,0,0,0,0.1c0,0,0,0,0,0.1c0,0.3-0.2,0.6-0.3,0.8c-1,2.4-2.3,4.7-4.4,6.3
			C385.4,623.9,382.7,624.2,380.3,624.3z M382.2,625.1c2.1-0.2,4.1-0.7,5.9-1.8c1.7-1.2,2.9-3,3.8-4.8c0.9,1.5,2.3,4,0.9,5.3
			c-0.9,0.8-2,1.4-3,2c-1,0.7-1.9,1.5-3,2C385.1,628.7,383.2,626.5,382.2,625.1z M397.1,634.4c-0.4,0.2-0.8,0.4-1.1,0.7
			c-0.3,0.2-0.7,0.5-1,0.8c-4.2,1.7-8.8-2.3-8.1-6.9c0,0,0,0,0,0c1.2-0.5,2.4-1.7,3.3-2.3c1-0.7,2.5-1.4,3.4-2.3
			c0,0,0.1,0.1,0.2,0.1C398.3,625.5,400.3,631.2,397.1,634.4z"/>
		<path d="M375.7,603.2c0.2-0.8,1.3-1.6,1.1-1.9c-0.2-0.3-1.4,0.4-2.2,0.2c-0.7-0.2-2.1-1.8-2.4-1.6c-0.3,0.2,0.7,2.1,0.5,2.8
			c-0.1,0.7-1.2,1.6-1.1,1.9c0.2,0.2,1.5-0.4,2.2-0.2c0.6,0.1,2.1,1.8,2.4,1.6C376.5,605.8,375.5,604,375.7,603.2z"/>
		<path d="M371.6,593.7c-0.2-0.3-1.4,0.4-2.2,0.2c-0.7-0.2-2.1-1.8-2.4-1.6c-0.3,0.2,0.7,2.1,0.5,2.8c-0.1,0.7-1.2,1.6-1.1,1.9
			c0.2,0.2,1.5-0.4,2.2-0.2c0.6,0.1,2.1,1.8,2.4,1.6c0.3-0.2-0.7-2.1-0.5-2.8C370.7,594.9,371.8,594,371.6,593.7z"/>
		<path d="M298.4,486.2c-0.2-0.3-1.4,0.4-2.2,0.2c-0.7-0.2-2.1-1.8-2.4-1.6c-0.3,0.2,0.7,2.1,0.5,2.8c-0.1,0.7-1.2,1.6-1.1,1.9
			c0.2,0.2,1.5-0.4,2.2-0.2c0.6,0.1,2.1,1.8,2.4,1.6c0.3-0.2-0.7-2.1-0.5-2.8C297.5,487.4,298.6,486.5,298.4,486.2z"/>
		<path d="M293.3,478.6c-0.2-0.3-1.4,0.4-2.2,0.2c-0.7-0.2-2.1-1.8-2.4-1.6c-0.3,0.2,0.7,2.1,0.5,2.8c-0.1,0.7-1.2,1.6-1.1,1.9
			c0.2,0.2,1.5-0.4,2.2-0.2c0.6,0.1,2.1,1.8,2.4,1.6c0.3-0.2-0.7-2.1-0.5-2.8C292.4,479.8,293.5,478.9,293.3,478.6z"/>
		<path d="M329.1,536.7c-0.8,0.5-1.1,1.4-0.2,2.8c1,1.4,8.9,10.1,8.9,10.1s-5.1-10.6-6.1-12C330.9,536.2,329.9,536.2,329.1,536.7z"
			/>
		<polygon points="393.7,629.4 393.7,627.2 392.9,629.2 390.5,626.9 391.8,630 389.6,630 391.6,630.8 389.3,633.2 392.4,631.9 
			392.4,634.1 393.2,632 395.6,634.4 394.3,631.3 396.4,631.3 394.4,630.5 396.8,628.1 		"/>
		<path d="M122.8,708.1c12.9-18.9,25.9-37.6,38.8-56.5c0.2,0.1,0.3,0.2,0.5,0.3c0.1,0,0.1,0.1,0.2,0.1c0.2,0,0.3,0,0.4-0.2
			c0.7-1.2,1.7-3.1,1.5-4.7c0.1,0,0.2-0.1,0.3-0.2c5.8-8.4,11.7-16.7,17.5-25.2c0,0,0,0,0-0.1c1.2-0.5,2.2-1.7,3-2.6
			c0.2-0.2,0.1-0.5-0.1-0.7c-0.2-0.1-0.4-0.3-0.6-0.4c13.8-20.3,27.4-40.7,41.2-61c0.1,0.1,0.2,0.1,0.2,0.2c0.1,0.1,0.2,0.1,0.3,0.1
			c0,0,0,0,0,0c0,0,0,0,0,0c0.1,0,0.2-0.1,0.3-0.2c1.4-2.1,2.8-4.2,4.3-6.2c0.4,0.3,0.9,0.6,1.3,0.9c0.1,0.1,0.2,0.1,0.3,0.1
			c0,0,0,0,0,0c0,0,0,0,0,0c0.1,0,0.2-0.1,0.3-0.2c1-1.5,2-2.9,3-4.4c0.1-0.2,0.1-0.5-0.1-0.7c-0.2-0.2-0.4-0.3-0.7-0.5
			c1-1.7,2.8-4.9,1.2-6.6c-0.3-0.4-0.8-0.7-1.3-1.1c2.4-1.1,3.1-4.5,0.6-6.2c-2.4-1.7-5.3,0.2-5.5,2.8c-0.5-0.4-1-0.7-1.6-0.8
			c-2.2-0.6-4.4,2.1-5.6,3.6c-0.2-0.2-0.4-0.3-0.7-0.5c-0.2-0.1-0.5-0.1-0.7,0.1c-1,1.5-2,2.9-3,4.4c-0.1,0.2-0.1,0.5,0.1,0.7
			c0.4,0.3,0.9,0.6,1.3,0.9c-1.4,2.1-2.8,4.2-4.3,6.2c-0.1,0.2-0.1,0.5,0.1,0.7c0.1,0.1,0.2,0.1,0.3,0.2
			c-13.8,20.3-27.8,40.4-41.6,60.7c-0.2-0.1-0.4-0.3-0.7-0.4c-0.1,0-0.1-0.1-0.2-0.1c-0.2,0-0.3,0-0.5,0.2c-0.6,1-1.3,2.5-1.3,3.8
			c-5.8,8.4-11.3,17-17,25.5c-0.1,0.1-0.1,0.2-0.1,0.3c-1.6,0.4-3,2.1-3.9,3.2c-0.2,0.2-0.1,0.5,0.1,0.7c0.2,0.1,0.3,0.2,0.5,0.3
			c-12.8,18.8-25.4,37.8-38.2,56.6c-0.1,0.1-0.1,0.2-0.1,0.3c-0.3-0.2-0.5-0.3-0.8-0.5c-0.4-0.3-1.2-1-1.8-0.9
			c-0.8,0.1-2,2.1-2.2,2.8c-0.2,0.8,0.3,1.7,0.7,2.5c-0.8,1.4-2.5,4.2-1.8,6c-4.5,1.2-6.7,6.4-4.6,10.2c-4.3-1.3-9.1,0.2-11.8,4.1
			c-0.6,0.8-1,1.7-1.3,2.6c3.5-2.9,8.7-3.3,12.6-0.6c4,2.7,5.5,7.7,4,12c0.7-0.6,1.4-1.3,1.9-2.1c2.7-3.9,2.3-9-0.5-12.5
			c4.3,0.6,8.3-3.4,7.8-8c2,0,3.9-2.6,4.9-3.9c0,0,0,0,0,0c0.1,0,0.2,0,0.3,0c1.8,0.1,2.9-0.1,3.8-2C125.1,710,124,709,122.8,708.1z
			 M234.8,533c2,1.4,1.2,4.3-1.1,4.8c0,0,0,0,0,0c-0.5-0.3-1.1-0.6-1.5-0.9c-0.4-0.3-0.9-0.7-1.4-1.1c0,0,0-0.1,0-0.1
			C230.5,533.4,232.9,531.6,234.8,533z M228.5,535.4c1.1,0.6,2.1,1.4,3.2,2.1c1,0.7,2.3,1.4,3.2,2.2c1.6,1.4,0,4.2-0.9,5.7
			c-3.5-2.4-7-4.8-10.5-7.1C224.6,536.9,226.6,534.4,228.5,535.4z M219.4,542.1c0.4-0.6,0.8-1.2,1.2-1.8l12.6,8.6
			c-0.4,0.6-0.8,1.2-1.2,1.8C227.8,547.8,223.6,544.9,219.4,542.1z M220.5,544.3c3,2.1,6.1,4.1,9.1,6.2c-1.3,1.9-2.6,3.7-3.8,5.6
			c-3-2.1-6.1-4.1-9.1-6.2C217.9,548,219.2,546.1,220.5,544.3z M215.7,552.8l7.8,5.3c-1.2,1.7-2.3,3.4-3.5,5.2
			c-0.4-3.4-4.6-6.2-7.9-5.3C213.3,556.3,214.5,554.5,215.7,552.8z M211,559.6c3.1-2.5,9.2,1.4,7.9,5.3
			c-11.4,16.9-22.8,33.9-34.3,50.8l-8.3-5.6C187.8,593.2,199.5,576.5,211,559.6z M173.6,611.9c3.4,2.3,6.8,4.6,10.2,7
			c-1.1,1.3-2.6,2.6-4.3,1.6c-1-0.6-1.9-1.3-2.9-2c-1-0.7-2.1-1.3-3-2.1C172.2,615.3,172.9,613.4,173.6,611.9z M172,616.1
			c0.1,0.3,0.3,0.5,0.6,0.8c1,0.9,2.4,1.6,3.6,2.4c1.1,0.8,2.3,1.9,3.6,2.4c0.3,0.1,0.6,0.2,0.9,0.2c-5.5,8.1-11.3,16.1-16.8,24.2
			c-0.1-0.2-0.2-0.4-0.4-0.5c-1-1-2.5-1.7-3.6-2.5c-1.2-0.8-2.4-2-3.8-2.5c-0.1-0.1-0.3-0.1-0.4-0.1
			C161.2,632.4,166.5,624.2,172,616.1z M156.3,641.9c1,0.6,2,1.4,3,2.1c1,0.7,2.1,1.3,3,2.1c1.6,1.2,0.6,3.3-0.2,4.9
			c-3.4-2.3-6.8-4.6-10.3-7C153,642.5,154.6,640.9,156.3,641.9z M119.6,693.5c10.5-15.5,20.9-31.1,31.4-46.6l8.6,5.9
			c-10.5,15.5-21.2,30.8-31.8,46.3c0,0,0,0,0,0C124.4,702.1,118,698,119.6,693.5z M118.4,695.3c0.2,3.7,4.7,6.6,8.3,5.5
			c-1.2,1.7-2.3,3.4-3.5,5.1l-8.2-5.6C116.2,698.6,117.3,696.9,118.4,695.3z M106.5,723.9c-0.3-0.3-0.6-0.5-1-0.8
			c-0.4-0.2-0.7-0.5-1.1-0.7c-3.1-3.3-1.2-8.9,3.3-10c0.1,0,0.1,0,0.2-0.1c0.9,0.9,2.4,1.6,3.4,2.3c1,0.7,2.2,1.8,3.3,2.3
			c0,0,0,0,0,0C115.3,721.6,110.8,725.6,106.5,723.9z M114.8,715.9c-1-0.5-2-1.4-3-2c-1-0.7-2.1-1.2-3-2c-1.4-1.3,0-3.8,0.9-5.3
			c1,1.8,2.1,3.6,3.8,4.8c1.8,1.1,3.8,1.6,5.9,1.8C118.3,714.5,116.5,716.7,114.8,715.9z M122.9,711.8c-0.6,0.6-0.7,0.6-1.6,0.5
			c-2.5-0.1-5.1-0.4-7.3-1.8c-2.1-1.5-3.4-3.9-4.4-6.3c-0.1-0.3-0.3-0.6-0.3-0.8c0,0,0,0,0-0.1c0,0,0,0,0-0.1
			c0.1-0.4,0.9-1.8,1.3-2.1c-0.1,0.1,0.3,0.1,0.5,0.3c0.5,0.3,0.9,0.6,1.4,0.9c1.3,0.8,2.6,1.7,3.9,2.6c1.4,0.9,2.8,1.9,4.1,2.9
			c0.8,0.6,2.5,1.4,3,2.4C123.9,710.8,123.5,711.2,122.9,711.8z"/>
		<path d="M125.4,694c0.3,0.2,1.7-1.5,2.4-1.6c0.6-0.1,2,0.5,2.2,0.2c0.2-0.2-0.9-1.2-1.1-1.9c-0.1-0.7,0.8-2.6,0.5-2.8
			c-0.3-0.2-1.6,1.5-2.4,1.6c-0.7,0.2-2-0.5-2.2-0.2s0.9,1.1,1.1,1.9S125.1,693.9,125.4,694z"/>
		<path d="M130.5,686.5c0.3,0.2,1.7-1.5,2.4-1.6c0.6-0.1,2,0.5,2.2,0.2c0.2-0.2-0.9-1.2-1.1-1.9c-0.1-0.7,0.8-2.6,0.5-2.8
			c-0.3-0.2-1.6,1.5-2.4,1.6c-0.7,0.2-2-0.5-2.2-0.2c-0.2,0.3,0.9,1.1,1.1,1.9C131.2,684.4,130.3,686.3,130.5,686.5z"/>
		<path d="M203.7,579c0.3,0.2,1.7-1.5,2.4-1.6c0.6-0.1,2,0.5,2.2,0.2c0.2-0.2-0.9-1.2-1.1-1.9c-0.1-0.7,0.8-2.6,0.5-2.8
			c-0.3-0.2-1.6,1.5-2.4,1.6c-0.7,0.2-2-0.5-2.2-0.2c-0.2,0.3,0.9,1.1,1.1,1.9C204.3,576.9,203.4,578.8,203.7,579z"/>
		<path d="M208.8,571.4c0.3,0.2,1.7-1.5,2.4-1.6c0.6-0.1,2,0.5,2.2,0.2c0.2-0.2-0.9-1.2-1.1-1.9s0.8-2.6,0.5-2.8
			c-0.3-0.2-1.6,1.5-2.4,1.6s-2-0.5-2.2-0.2c-0.2,0.3,0.9,1.1,1.1,1.9C209.5,569.3,208.5,571.2,208.8,571.4z"/>
		<path d="M172.4,624.8c-0.8-0.5-1.7-0.5-2.7,0.9c-1,1.4-6.1,12-6.1,12s8-8.7,8.9-10.1C173.5,626.2,173.2,625.3,172.4,624.8z"/>
		<polygon points="111.9,718 109.8,718 111.1,714.9 108.7,717.3 107.9,715.2 107.9,717.4 104.8,716.1 107.1,718.5 105.1,719.3 
			107.3,719.3 106,722.4 108.4,720.1 109.2,722.1 109.2,719.9 112.3,721.2 109.9,718.8 		"/>
		<path d="M102.3,639.8c4,2.7,5.5,7.7,4,12c0.7-0.6,1.4-1.3,1.9-2.1c2.7-3.9,2.3-9-0.5-12.5c4.3,0.6,8.3-3.4,7.8-8
			c2,0,3.9-2.6,4.9-3.9c0,0,0,0,0,0c0.1,0,0.2,0,0.3,0c1.8,0.1,2.9-0.1,3.8-2c0.5-1.2-0.6-2.3-1.7-3.1
			c12.9-18.9,25.9-37.6,38.8-56.5c0.2,0.1,0.3,0.2,0.5,0.3c0.1,0,0.1,0.1,0.2,0.1c0.2,0,0.3,0,0.4-0.2c0.7-1.2,1.7-3.1,1.5-4.7
			c0.1,0,0.2-0.1,0.3-0.2c5.8-8.4,11.7-16.7,17.5-25.2c0,0,0,0,0-0.1c1.2-0.5,2.2-1.7,3-2.6c0.2-0.2,0.1-0.5-0.1-0.7
			c-0.2-0.1-0.4-0.3-0.6-0.4c13.8-20.3,27.4-40.7,41.2-61c0.1,0.1,0.2,0.1,0.2,0.2c0.1,0.1,0.2,0.1,0.3,0.1c0,0,0,0,0,0c0,0,0,0,0,0
			c0.1,0,0.2-0.1,0.3-0.2c1.4-2.1,2.8-4.2,4.3-6.2c0.4,0.3,0.9,0.6,1.3,0.9c0.1,0.1,0.2,0.1,0.3,0.1c0,0,0,0,0,0c0,0,0,0,0,0
			c0.1,0,0.2-0.1,0.3-0.2c1-1.5,2-2.9,3-4.4c0.1-0.2,0.1-0.5-0.1-0.7c-0.2-0.1-0.4-0.3-0.7-0.5c1-1.7,2.8-4.9,1.2-6.6
			c-0.3-0.4-0.8-0.7-1.3-1.1c2.4-1.1,3.1-4.5,0.6-6.2c-2.4-1.7-5.3,0.2-5.5,2.8c-0.5-0.4-1-0.7-1.6-0.8c-2.2-0.6-4.4,2.1-5.6,3.6
			c-0.2-0.2-0.4-0.3-0.7-0.5c-0.2-0.1-0.5-0.1-0.7,0.1c-1,1.5-2,2.9-3,4.4c-0.1,0.2-0.1,0.5,0.1,0.7c0.4,0.3,0.9,0.6,1.3,0.9
			c-1.4,2.1-2.8,4.2-4.3,6.2c-0.1,0.2-0.1,0.5,0.1,0.7c0.1,0.1,0.2,0.1,0.3,0.2c-13.8,20.3-27.8,40.4-41.6,60.7
			c-0.2-0.1-0.4-0.3-0.7-0.4c-0.1,0-0.1-0.1-0.2-0.1c-0.2,0-0.3,0-0.5,0.2c-0.6,1-1.3,2.5-1.3,3.8c-5.8,8.4-11.3,17-17,25.5
			c-0.1,0.1-0.1,0.2-0.1,0.3c-1.6,0.4-3,2.1-3.9,3.2c-0.2,0.2-0.1,0.5,0.1,0.7c0.2,0.1,0.3,0.2,0.5,0.3
			c-12.8,18.8-25.4,37.8-38.2,56.6c-0.1,0.1-0.1,0.2-0.1,0.3c-0.3-0.2-0.5-0.3-0.8-0.5c-0.4-0.3-1.2-1-1.8-0.9
			c-0.8,0.1-2,2.1-2.2,2.8c-0.2,0.8,0.3,1.7,0.7,2.5c-0.8,1.4-2.5,4.2-1.8,6c-4.5,1.2-6.7,6.4-4.6,10.2c-4.3-1.3-9.1,0.2-11.8,4.1
			c-0.6,0.8-1,1.7-1.3,2.6C93.2,637.5,98.3,637.1,102.3,639.8z M234.8,444.9c2,1.4,1.2,4.3-1.1,4.8c0,0,0,0,0,0
			c-0.5-0.3-1.1-0.6-1.5-0.9c-0.4-0.3-0.9-0.7-1.4-1.1c0,0,0-0.1,0-0.1C230.5,445.4,232.9,443.6,234.8,444.9z M228.5,447.4
			c1.1,0.6,2.1,1.4,3.2,2.1c1,0.7,2.3,1.4,3.2,2.2c1.6,1.4,0,4.2-0.9,5.7c-3.5-2.4-7-4.8-10.5-7.1
			C224.6,448.9,226.6,446.4,228.5,447.4z M219.4,454c0.4-0.6,0.8-1.2,1.2-1.8l12.6,8.6c-0.4,0.6-0.8,1.2-1.2,1.8
			C227.8,459.8,223.6,456.9,219.4,454z M220.5,456.2c3,2.1,6.1,4.1,9.1,6.2c-1.3,1.9-2.6,3.7-3.8,5.6c-3-2.1-6.1-4.1-9.1-6.2
			C217.9,460,219.2,458.1,220.5,456.2z M215.7,464.8l7.8,5.3c-1.2,1.7-2.3,3.5-3.5,5.2c-0.4-3.4-4.6-6.2-7.9-5.3
			C213.3,468.3,214.5,466.5,215.7,464.8z M211,471.6c3.1-2.5,9.2,1.4,7.9,5.3c-11.4,16.9-22.8,33.9-34.3,50.8l-8.3-5.6
			C187.8,505.2,199.5,488.4,211,471.6z M173.6,523.9c3.4,2.3,6.8,4.6,10.2,7c-1.1,1.3-2.6,2.6-4.3,1.6c-1-0.6-1.9-1.3-2.9-2
			c-1-0.7-2.1-1.3-3-2.1C172.2,527.2,172.9,525.4,173.6,523.9z M172,528c0.1,0.3,0.3,0.5,0.6,0.8c1,0.9,2.4,1.6,3.6,2.4
			c1.1,0.8,2.3,1.9,3.6,2.4c0.3,0.1,0.6,0.2,0.9,0.2c-5.5,8.1-11.3,16.1-16.8,24.2c-0.1-0.2-0.2-0.4-0.4-0.5c-1-1-2.5-1.7-3.6-2.5
			c-1.2-0.8-2.4-2-3.8-2.5c-0.1-0.1-0.3-0.1-0.4-0.1C161.2,544.4,166.5,536.1,172,528z M156.3,553.9c1,0.6,2,1.4,3,2.1
			c1,0.7,2.1,1.3,3,2.1c1.6,1.2,0.6,3.3-0.2,4.9c-3.4-2.3-6.8-4.6-10.3-7C153,554.5,154.6,552.8,156.3,553.9z M119.6,605.5
			c10.5-15.5,20.9-31.1,31.4-46.6l8.6,5.9c-10.5,15.5-21.2,30.8-31.8,46.3c0,0,0,0,0,0C124.4,614,118,610,119.6,605.5z M118.4,607.3
			c0.2,3.7,4.7,6.6,8.3,5.5c-1.2,1.7-2.3,3.4-3.5,5.1l-8.2-5.6C116.2,610.6,117.3,608.9,118.4,607.3z M109.3,615.3
			c0.1-0.4,0.9-1.8,1.3-2.1c-0.1,0.1,0.3,0.1,0.5,0.3c0.5,0.3,0.9,0.6,1.4,0.9c1.3,0.8,2.6,1.7,3.9,2.6c1.4,0.9,2.8,1.9,4.1,2.9
			c0.8,0.6,2.5,1.4,3,2.4c0.4,0.6-0.1,1-0.6,1.6c-0.6,0.6-0.7,0.6-1.6,0.5c-2.5-0.1-5.1-0.4-7.3-1.8c-2.1-1.5-3.4-3.9-4.4-6.3
			c-0.1-0.3-0.3-0.6-0.3-0.8C109.3,615.4,109.3,615.4,109.3,615.3C109.3,615.3,109.3,615.3,109.3,615.3z M109.7,618.5
			c1,1.8,2.1,3.6,3.8,4.8c1.8,1.1,3.8,1.6,5.9,1.8c-1.1,1.4-2.9,3.6-4.6,2.7c-1-0.5-2-1.4-3-2c-1-0.7-2.1-1.2-3-2
			C107.4,622.5,108.8,620,109.7,618.5z M107.7,624.4c0.1,0,0.1,0,0.2-0.1c0.9,0.9,2.4,1.6,3.4,2.3c1,0.7,2.2,1.8,3.3,2.3
			c0,0,0,0,0,0c0.7,4.6-3.8,8.6-8.1,6.9c-0.3-0.3-0.6-0.5-1-0.8c-0.4-0.2-0.7-0.5-1.1-0.7C101.3,631.2,103.2,625.5,107.7,624.4z"/>
		<path d="M125.4,606c0.3,0.2,1.7-1.5,2.4-1.6c0.6-0.1,2,0.5,2.2,0.2c0.2-0.2-0.9-1.2-1.1-1.9c-0.1-0.7,0.8-2.6,0.5-2.8
			c-0.3-0.2-1.6,1.5-2.4,1.6c-0.7,0.2-2-0.5-2.2-0.2c-0.2,0.3,0.9,1.1,1.1,1.9C126.1,604,125.1,605.8,125.4,606z"/>
		<path d="M130.5,598.4c0.3,0.2,1.7-1.5,2.4-1.6c0.6-0.1,2,0.5,2.2,0.2c0.2-0.2-0.9-1.2-1.1-1.9c-0.1-0.7,0.8-2.6,0.5-2.8
			c-0.3-0.2-1.6,1.5-2.4,1.6c-0.7,0.2-2-0.5-2.2-0.2c-0.2,0.3,0.9,1.1,1.1,1.9C131.2,596.4,130.3,598.3,130.5,598.4z"/>
		<path d="M203.7,490.9c0.3,0.2,1.7-1.5,2.4-1.6c0.6-0.1,2,0.5,2.2,0.2c0.2-0.2-0.9-1.2-1.1-1.9c-0.1-0.7,0.8-2.6,0.5-2.8
			c-0.3-0.2-1.6,1.5-2.4,1.6c-0.7,0.2-2-0.5-2.2-0.2c-0.2,0.3,0.9,1.1,1.1,1.9C204.3,488.9,203.4,490.8,203.7,490.9z"/>
		<path d="M208.8,483.3c0.3,0.2,1.7-1.5,2.4-1.6c0.6-0.1,2,0.5,2.2,0.2c0.2-0.2-0.9-1.2-1.1-1.9c-0.1-0.7,0.8-2.6,0.5-2.8
			c-0.3-0.2-1.6,1.5-2.4,1.6c-0.7,0.2-2-0.5-2.2-0.2c-0.2,0.3,0.9,1.1,1.1,1.9C209.5,481.3,208.5,483.2,208.8,483.3z"/>
		<path d="M172.4,536.7c-0.8-0.5-1.7-0.5-2.7,0.9c-1,1.4-6.1,12-6.1,12s8-8.7,8.9-10.1C173.5,538.2,173.2,537.3,172.4,536.7z"/>
		<polygon points="105.1,631.3 107.3,631.3 106,634.4 108.4,632 109.2,634.1 109.2,631.9 112.3,633.2 109.9,630.8 111.9,630 
			109.8,630 111.1,626.9 108.7,629.2 107.9,627.2 107.9,629.4 104.8,628.1 107.1,630.5 		"/>
	</g>
</g>
</svg>
