<?xml version="1.0" encoding="utf-8"?>
<!-- Generator: Adobe Illustrator 21.1.0, SVG Export Plug-In . SVG Version: 6.00 Build 0)  -->
<svg version="1.1" id="Слой_1" xmlns="http://www.w3.org/2000/svg" xmlns:xlink="http://www.w3.org/1999/xlink" x="0px" y="0px"
	 viewBox="0 0 504 864" style="enable-background:new 0 0 504 864;" xml:space="preserve">
<style type="text/css">
	.st0{fill:#040404;}
	.st1{fill:#FFFFFF;}
</style>
<g>
	<g>
		<path d="M51.9,53.6c6.7-7.6,6.7-19,0.1-26.4c0.8,7.2-1.3,14.8-6.5,20.6c-5.2,5.8-12.3,8.7-19.5,8.6C34,62.2,45.2,61.1,51.9,53.6z"
			/>
		<path d="M458.4,47.7c-5.2-5.8-7.3-13.3-6.5-20.6c-6.5,7.5-6.6,18.9,0.2,26.4c6.7,7.6,17.9,8.6,25.9,2.8
			C470.7,56.4,463.6,53.5,458.4,47.7z"/>
		<path d="M26.1,807.4c7.2-0.1,14.3,2.8,19.5,8.6c5.2,5.8,7.3,13.3,6.5,20.6c6.5-7.5,6.6-18.9-0.1-26.4
			C45.2,802.6,34,801.6,26.1,807.4z"/>
		<path d="M452,810.2c-6.7,7.6-6.7,19-0.2,26.4c-0.8-7.2,1.3-14.8,6.5-20.6c5.2-5.8,12.3-8.7,19.5-8.6
			C470,801.6,458.8,802.6,452,810.2z"/>
		<path d="M503.8,18.2c-1.6-17.9-18.7-16.3-31.6-16.3c-45.9,0-91.8,0-137.6,0c-63.2,0-126.3,0-189.5,0c-40.6,0-81.2,0-121.8,0
			c-2.6,0-5.3-0.2-8,0.2c-9.5,1.2-15,9.2-15.2,18.2c-0.2,7.3,0,14.5,0,21.8c0,37.4,0,74.9,0,112.3c0,57,0,114.1,0,171.1
			c0,64.3,0,128.6,0,192.9c0,58.4,0,116.7,0,175.1c0,40.1,0,80.2,0,120.3c0,9.1,0,18.2,0,27.3c0,11.7,6.7,20.5,19.2,20.7
			c35.9,0.6,71.9,0,107.9,0c62.4,0,124.9,0,187.3,0c49.7,0,99.5,0,149.2,0c7.6,0,15.2,0,22.9,0c0.4,0,0.8-0.1,1.2-0.2
			c14.4-1.8,16.1-13.8,16.1-25.5c0-11.4,0-22.8,0-34.3c0-43.4,0-86.9,0-130.3c0-59.9,0-119.8,0-179.8c0-63.9,0-127.7,0-191.6
			c0-55.3,0-110.6,0-165.9c0-33.7,0-67.3,0-101C503.9,28.3,504.2,23.2,503.8,18.2z M486.6,852.8c-28.3,0-56.6,0-84.9,0
			c-59.9,0-119.8,0-179.7,0c-54,0-108,0-162,0c-13.1,0-26.1,0-39.2,0c-5.6,0-11-1.3-11.7-8.3c-0.2-1.5,0-3,0-4.5c0-26.5,0-53,0-79.5
			c0-50,0-100,0-149.9c0-61.8,0-123.6,0-185.4c0-61.4,0-122.7,0-184.1c0-48.9,0-97.7,0-146.6c0-24.2-0.8-48.6,0-72.7
			c0.2-5.3,1.6-10.1,8.3-10.8c2.2-0.2,4.5,0,6.7,0c14.8,0,29.6,0,44.5,0c55.6,0,111.3,0,166.9,0c58.9,0,117.8,0,176.7,0
			c18.9,0,37.9,0,56.8,0c8.1,0,24.7-3.1,25.9,8.4c0.5,5.2,0,10.8,0,16.1c0,13.5,0,27.1,0,40.6c0,45.5,0,91.1,0,136.6
			c0,60.1,0,120.2,0,180.3c0,62.6,0,125.2,0,187.7c0,52.8,0,105.6,0,158.4c0,31.4,0,62.7,0,94.1C494.8,840.3,496.9,852,486.6,852.8z
			"/>
		<path d="M460,790.9c1.2,0.1,2.4-0.7,2.4-2.2c0-23.7,0-47.4,0-71.1c0-56.4,0-112.8,0-169.2c0-68.7,0-137.4,0-206
			c0-59,0-117.9,0-176.9c0-19.6,0-39.2,0-58.8c0-8.9,1.3-19,0-27.9c-0.1-0.4,0-0.8,0-1.2c0-0.8-0.3-1.3-0.8-1.7
			c0.1-1.2-0.6-2.5-2.2-2.6c-13.1-0.5-25.3-13.8-25.8-26.7c0-0.5-0.2-0.8-0.4-1.1c-0.3-0.6-1-1.1-1.9-1.1c-40.5,0-80.9,0-121.4,0
			c-64.5,0-129,0-193.6,0c-14.9,0-29.7,0-44.6,0c-0.9,0-1.6,0.5-1.9,1.1c-0.2,0.3-0.3,0.7-0.4,1.2C69.1,59.5,57,72.8,43.9,73.3
			c-1.8,0.1-2.5,1.9-2,3.2c-0.2,0.3-0.2,0.6-0.2,1c0,23.7,0,47.4,0,71.1c0,56.4,0,112.8,0,169.2c0,68.7,0,137.4,0,206
			c0,59,0,117.9,0,176.9c0,19.6,0,39.2,0,58.8c0,8.9-1.3,19,0,27.9c0.1,0.4,0,0.8,0,1.2c0,0.9,0.5,1.6,1.1,1.9
			c0.3,0.2,0.7,0.3,1.2,0.4c13,0.5,25.3,13.3,25.8,26.2c0,0.5,0.2,0.8,0.4,1.1c0.3,0.6,1,1.1,1.9,1.1c40.5,0,80.9,0,121.4,0
			c64.5,0,129,0,193.6,0c14.9,0,29.7,0,44.6,0c0.9,0,1.6-0.5,1.9-1.1c0.2-0.3,0.3-0.7,0.4-1.2c0.5-12.9,12.7-25.7,25.8-26.2
			C459.6,791,459.8,790.9,460,790.9z M429.3,814.9c-39.8,0-79.6,0-119.3,0c-64.5,0-129,0-193.6,0c-14.2,0-28.3,0-42.5,0
			c-1.7-13.9-13.9-26.5-27.8-28.3c0-23,0-46,0-69.1c0-56.4,0-112.8,0-169.2c0-68.7,0-137.4,0-206c0-59,0-117.9,0-176.9
			c0-19.6,0-39.2,0-58.8c0-8.9,1.3-19,0-27.9c-0.1-0.4,0-0.8,0-1.2c14-1.8,26.1-14.9,27.8-28.7c39.8,0,79.6,0,119.3,0
			c64.5,0,129,0,193.6,0c14.2,0,28.3,0,42.5,0c1.7,14.1,14.3,27.4,28.5,28.8c0,23.7,0,47.3,0,71c0,56.4,0,112.8,0,169.2
			c0,68.7,0,137.4,0,206c0,59,0,117.9,0,176.9c0,19.6,0,39.2,0,58.8c0,8.6-1.2,18.4-0.1,27C443.6,788.1,431.1,800.9,429.3,814.9z"/>
		<path d="M230.3,86.7c0-0.2,0-0.3-0.1-0.5c-0.1-0.5-0.3-0.5-0.6-0.2c-0.1,0.1,0,0.4,0.3,0.8l0.3,0.6L230.3,86.7z"/>
		<path d="M240.7,99.7c0,0.7-0.4,1.1-1.3,1.1c-0.5,0-0.7,0.2-0.7,0.7v0.6h3.4c2.3,0,3.5,0.1,3.6,0.4c0.1,0.2,0.3,0.2,0.6-0.1
			c0.2-0.3,0.7-0.4,1.4-0.3l1,0.2v-0.9c0-0.4-0.1-0.7-0.2-0.9c-0.1-0.2-0.4-0.3-0.9-0.5c-0.7-0.2-1.1-0.4-1.1-0.6
			c0-0.1-0.3-0.3-0.8-0.6c-0.5-0.3-0.8-0.5-0.8-0.7c0-0.3-0.1-0.7-0.3-1.1c-0.2-0.4-0.4-0.6-0.6-0.6c-0.1,0-0.3-0.3-0.5-0.8
			c-0.2-0.5-0.4-0.8-0.5-0.8c-0.2,0-0.4-0.2-0.5-0.5c-0.1-0.3-0.5-0.9-1.3-1.7c-0.8-0.8-1.2-1.2-1.4-1.2c-0.1,0-0.2-0.1-0.2-0.4
			c0-0.8,0.4-1.6,1.1-2.4c0.6-0.7,0.9-1.1,0.9-1.4c0-0.2,0.3-0.5,0.8-1.1c0.5-0.5,0.9-0.8,1.1-0.8c0.1,0,0.2-0.2,0.2-0.5
			c0-0.9,0.3-1.4,0.8-1.4c0.3,0,0.5-0.1,0.5-0.3c0-0.2,0.2-0.4,0.5-0.7c0.3-0.3,0.6-0.4,0.8-0.4c0.3,0,0.6-0.2,0.8-0.6l0.4-0.6
			l0.2,0.6c0.1,0.2,0.2,0.4,0.3,0.5c0.1,0.1,0.3,0.1,0.4,0c0.1-0.1,0.2-0.2,0.3-0.4c0.1-0.4,0.3-0.5,0.7-0.5c0.2,0,0.4-0.1,0.4-0.2
			s0.1-0.4,0.1-0.8c0-0.9-0.1-1.4-0.3-1.6c-0.2-0.2-1-0.2-2.3-0.2c-1.5,0-2.3,0.1-2.3,0.4c0,0.2-0.6,0.4-1.9,0.5
			c-1.9,0.1-2.8,0.6-2.8,1.4c0,0.3,0.1,0.6,0.3,1c0.2,0.4,0.4,0.6,0.5,0.6c0.2,0,0.5,0.2,0.6,0.6c0.2,0.4,0.2,0.7-0.1,1.1
			c-0.2,0.3-0.3,0.5-0.2,0.5c0,0,0,0.1,0,0.2c-0.1,0.1-0.1,0.3-0.2,0.5c-0.3,0.4-0.4,0.8-0.4,1.1c0,0.4-0.2,0.7-0.6,1.1
			c-0.4,0.4-0.6,0.7-0.6,0.9c0,0.3-0.3,0.4-0.9,0.4c-0.4,0-0.6-0.1-0.8-0.2c-0.1-0.1-0.2-0.4-0.3-0.8c-0.1-0.6-0.4-1.1-0.7-1.3
			c-0.4-0.2-0.5-0.5-0.5-1c0-0.4-0.1-0.7-0.4-1.1c-0.3-0.3-0.5-0.6-0.5-1c-0.1-0.9-0.2-1.4-0.2-1.4c0-0.4,0.3-0.6,0.9-0.6
			c0.3,0,0.6-0.1,0.8-0.1c0.2-0.1,0.3-0.1,0.3-0.2c0.1-0.1,0.1-0.2,0.1-0.4c0-0.2,0-0.4-0.1-0.6l-0.2-0.8l-2.3,0.1
			c-1.5,0.1-2.3,0.2-2.4,0.4c0,0.1-0.2,0.2-0.4,0.3c-0.2,0.1-0.4,0.1-0.6,0c-0.2-0.1-0.3-0.1-0.3-0.2c0-0.1-0.2-0.3-0.5-0.4
			c-0.4-0.2-0.7-0.2-1.1-0.2c-0.5,0-0.8,0.2-0.8,0.6c0,0.2-0.2,0.4-0.7,0.4c-0.2,0-0.3,0.1-0.4,0.2c0.2,0.1,0.3,0.3,0.3,0.6
			c0,0.3,0.1,0.5,0.4,0.5c0.3,0,0.5,0.1,0.6,0.4c0.1,0.2,0.4,0.4,1.1,0.6c0.7,0.1,1.1,0.4,1.2,0.8c0.2,0.4,0.4,0.6,0.6,0.6
			c0.2,0,0.3,0.3,0.3,0.8c0,0.5,0.1,0.8,0.4,0.8c0.2,0,0.4,0.2,0.4,0.5c0,0.4,0.2,0.7,0.6,0.9c0.3,0.2,0.5,0.5,0.4,0.6
			c-0.1,0.2,0,0.4,0.2,0.5c0.2,0.1,0.5,0.4,0.7,0.9c0.2,0.5,0.4,0.8,0.6,0.8c0.1,0,0.2,0.2,0.2,0.5c0,0.4,0.2,0.6,0.6,0.7
			c0.2,0.1,0.4,0.2,0.4,0.5c0,0.1,0,0.3-0.1,0.5c-0.1,0.2-0.1,0.4-0.1,0.5c0,0.2-0.2,0.4-0.5,0.5c-0.3,0.1-0.5,0.4-0.7,0.9
			c-0.1,0.5-0.3,0.8-0.4,0.8c-0.2,0-0.5,0.3-1.1,0.9c-0.5,0.6-0.8,1-0.8,1.3c0,0.3-0.1,0.5-0.4,0.5c-0.3,0-0.4,0.1-0.4,0.3
			c0,0.3-0.2,0.5-0.6,0.7c-0.4,0.2-0.6,0.5-0.6,1.1c0,0.2,0,0.4,0,0.4c0,0.1-0.1,0.2-0.2,0.2c-0.1,0.1-0.3,0.1-0.4,0.1
			c-0.2,0-0.5,0-0.9,0.1c-0.9,0-1.4,0.2-1.7,0.4c-0.2,0.2-0.4,0.7-0.4,1.4l0.2,0.8c0.2,0.4,0.4,0.3,0.5-0.2c0.1-0.2,1.2-0.4,3.3-0.4
			c1.4,0,2.3,0,2.6,0.1c0.3,0,0.5,0.2,0.5,0.4c0,0.1,0.1,0.2,0.2,0.2c0.2-0.2,0.4-0.3,0.5-0.3c0,0,0.1,0.1,0.2,0.1
			c0.2,0,0.4-0.1,0.6-0.3c0.2-0.2,0.4-0.5,0.5-0.8c0.1-0.2,0.1-0.4-0.1-0.5c-0.1-0.1-0.4-0.2-0.9-0.2c-1.2-0.2-1.8-0.6-1.8-1.2
			c0-0.2,0.1-0.3,0.4-0.3c0.2,0,0.4-0.2,0.4-0.6s0.1-0.6,0.4-0.6c0.2,0,0.4-0.1,0.4-0.4c0-0.1,0.2-0.4,0.6-0.8
			c0.4-0.5,0.6-0.8,0.6-0.9c0-0.5,0.1-1,0.3-1.5c0.3-0.5,0.6-0.7,0.9-0.7l0.1,0.1c0,0,0.1,0,0.1,0c0.3,0.1,0.4,0.2,0.4,0.5
			c0,0.1,0.3,0.5,0.8,1.2c0.5,0.7,0.8,1.1,0.8,1.2c0,0.2,0.1,0.3,0.4,0.4c0.2,0.1,0.4,0.4,0.5,0.9c0.1,0.5,0.4,0.8,1,0.9l0.9,0.2
			l-0.8,0.1C241,99.2,240.7,99.4,240.7,99.7z M234.4,81.1c0,0.1,0,0.1-0.1,0.1l-0.1-0.3c0-0.1,0-0.2,0.1-0.3c0-0.1,0.1-0.1,0.1,0.1
			C234.5,80.9,234.5,81,234.4,81.1z M234.9,85.6c-0.1,0-0.2,0-0.2-0.1c0-0.1,0.1-0.2,0.2-0.2c0.1,0,0.1,0.1,0.1,0.2
			C235,85.5,235,85.6,234.9,85.6z M235.5,87.2c0,0.1,0,0.1-0.1,0.1l-0.1-0.3c0-0.2,0.1-0.3,0.2-0.2C235.5,87,235.5,87.1,235.5,87.2z
			 M238.4,93.1c-0.2,0-0.3-0.1-0.3-0.3c0-0.2,0.1-0.3,0.3-0.3c0.2,0,0.3,0.1,0.3,0.3C238.7,93.1,238.6,93.1,238.4,93.1z"/>
		<path d="M274,78.1c-1.6,0-2.4,0.1-2.4,0.4s-0.7,0.4-2,0.6c-2,0.1-2.9,0.6-2.9,1.4c0,0.3,0.1,0.7,0.3,1.1c0.2,0.4,0.4,0.6,0.6,0.6
			c0.2,0,0.4,0.2,0.7,0.6c0.3,0.4,0.2,0.8-0.1,1.1c-0.4,0.4-0.4,0.5-0.3,0.5c0.1,0,0.1,0.2-0.3,0.7c-0.3,0.4-0.4,0.8-0.4,1.2
			c0,0.2-0.2,0.6-0.7,1.1c-0.5,0.5-0.7,0.9-0.7,1c0,0.3-0.3,0.4-0.9,0.4c-0.4,0-0.7,0-0.8-0.1s-0.2-0.4-0.3-0.8
			c-0.1-0.7-0.4-1.1-0.7-1.4c-0.4-0.2-0.6-0.6-0.6-1.1c0-0.5-0.1-0.8-0.4-1c-0.2-0.1-0.4-0.5-0.6-1.2c-0.1-0.7-0.2-1.2-0.2-1.5
			s0.1-0.5,0.2-0.5c0.1-0.1,0.4-0.1,0.7-0.2c0.5-0.1,0.8-0.1,1-0.2c0.2-0.1,0.3-0.3,0.3-0.6c0-0.2,0-0.5-0.1-0.6l-0.2-0.9l-2.4,0.2
			c-1.6,0.1-2.4,0.2-2.5,0.4c-0.1,0.2-0.4,0.3-0.8,0.3c-0.4,0-0.6-0.1-0.6-0.3c0-0.2-0.2-0.3-0.5-0.5c-0.4-0.2-0.7-0.2-1.1-0.2
			c-0.6,0-0.9,0.2-0.9,0.6c0,0.2-0.2,0.4-0.7,0.4c-0.2,0-0.4,0.1-0.4,0.2c0.2,0.1,0.4,0.3,0.4,0.6c0,0.4,0.1,0.5,0.4,0.5
			c0.2,0,0.4,0.1,0.6,0.4c0.1,0.3,0.5,0.5,1.1,0.6c0.7,0.1,1.1,0.4,1.3,0.8c0.2,0.4,0.4,0.6,0.7,0.6c0.2,0,0.3,0.3,0.3,0.8
			s0.1,0.8,0.4,0.8c0.3,0,0.4,0.2,0.4,0.5c0,0.4,0.2,0.7,0.6,0.9c0.2,0.2,0.4,0.4,0.3,0.6c0,0.2,0.1,0.4,0.3,0.5
			c0.3,0.1,0.6,0.4,0.7,0.9c0.3,0.6,0.5,0.8,0.6,0.8c0.1,0,0.2,0.2,0.2,0.5c0,0.3,0.2,0.5,0.6,0.7c0.3,0.1,0.4,0.3,0.4,0.6
			c0,0.1,0,0.3-0.1,0.5s-0.1,0.4-0.1,0.6c0,0.2-0.2,0.4-0.5,0.5c-0.4,0.1-0.6,0.4-0.7,1c-0.1,0.6-0.3,0.8-0.4,0.8
			c-0.2,0-0.6,0.3-1.1,0.9c-0.5,0.6-0.8,1.1-0.8,1.3c0,0.3-0.1,0.5-0.4,0.5c-0.3,0-0.4,0.1-0.4,0.4s-0.2,0.5-0.7,0.7
			c-0.5,0.2-0.7,0.6-0.7,1.2c0,0.3,0,0.5-0.1,0.6c-0.1,0.1-0.2,0.2-0.4,0.2c-0.2,0-0.6,0.1-1.2,0.1c-0.9,0.1-1.5,0.2-1.8,0.4
			c-0.2,0.2-0.4,0.7-0.4,1.5c0,0.7,0.1,1,0.4,1c0.1,0,0.3-0.1,0.4-0.4c0.1-0.2,1.2-0.4,3.4-0.4c1.4,0,2.3,0,2.7,0.1
			c0.4,0.1,0.6,0.2,0.6,0.4c0,0.3,0.1,0.4,0.3,0.1c0.2-0.2,0.4-0.3,0.5-0.2c0,0,0.1,0.1,0.2,0.1c0.2,0,0.4-0.1,0.7-0.4
			s0.4-0.5,0.5-0.8c0.1-0.3,0.1-0.5-0.1-0.6c-0.1-0.1-0.4-0.2-0.9-0.2c-1.2-0.2-1.8-0.6-1.8-1.2c0-0.2,0.1-0.3,0.4-0.3
			c0.3,0,0.4-0.2,0.4-0.7c0-0.5,0.1-0.7,0.4-0.7c0.3,0,0.4-0.1,0.4-0.4c0-0.2,0.2-0.5,0.7-1c0.5-0.4,0.7-0.7,0.6-0.8v-0.3
			c0-0.5,0.1-1,0.4-1.5c0.3-0.5,0.6-0.7,0.9-0.7c0.1,0,0.2,0,0.2,0.1c0.3,0.1,0.5,0.3,0.5,0.6c0,0.2,0.3,0.6,0.8,1.3
			c0.5,0.7,0.8,1.1,0.8,1.2c0,0.2,0.1,0.3,0.4,0.4c0.2,0.1,0.4,0.4,0.5,0.9c0.1,0.3,0.2,0.5,0.3,0.7c0.2,0.1,0.4,0.2,0.8,0.3
			l0.9,0.3l-0.9,0.1c-0.6,0.1-0.9,0.3-0.9,0.6c0,0.8-0.5,1.2-1.4,1.2c-0.3,0-0.5,0-0.6,0.1c-0.1,0.1-0.2,0.3-0.2,0.6v0.7h3.6
			c2.4,0,3.6,0.1,3.7,0.4c0.1,0.3,0.3,0.3,0.6-0.1c0.3-0.3,0.8-0.4,1.5-0.3l1.1,0.2v-0.9c0-0.5-0.1-0.8-0.2-0.9
			c-0.1-0.2-0.4-0.3-0.9-0.5c-0.7-0.3-1.1-0.5-1.1-0.6c0-0.1-0.3-0.3-0.8-0.6c-0.5-0.3-0.8-0.5-0.8-0.7c0-0.4-0.1-0.7-0.4-1.2
			c-0.3-0.4-0.5-0.6-0.7-0.6c-0.1,0-0.3-0.3-0.5-0.8c-0.2-0.6-0.4-0.8-0.6-0.8c-0.2,0-0.4-0.2-0.5-0.5c-0.1-0.4-0.6-0.9-1.4-1.8
			c-0.8-0.8-1.3-1.3-1.5-1.3c-0.1,0-0.2-0.1-0.2-0.4c0-0.8,0.4-1.7,1.2-2.6c0.6-0.6,0.9-1.1,0.9-1.4c0-0.2,0.3-0.6,0.8-1.1
			c0.5-0.5,0.9-0.8,1.1-0.8c0.2,0,0.3-0.2,0.3-0.5c0-0.9,0.3-1.4,0.8-1.4c0.3,0,0.5-0.1,0.5-0.3c0-0.2,0.2-0.4,0.5-0.7
			c0.3-0.2,0.6-0.4,0.9-0.4c0.4,0,0.6-0.2,0.9-0.6l0.5-0.6l0.2,0.6c0.1,0.4,0.3,0.6,0.6,0.6c0.2,0,0.4-0.2,0.5-0.5
			c0.1-0.4,0.4-0.6,0.7-0.6c0.2,0,0.4-0.1,0.5-0.2c0.1-0.1,0.1-0.4,0.1-0.9c0-1-0.1-1.6-0.4-1.7C276.2,78.2,275.4,78.1,274,78.1z
			 M260.4,81c0,0-0.1-0.1-0.1-0.3c0-0.1,0-0.2,0-0.3c0-0.1,0-0.1,0.1-0.1l0.1,0.2C260.5,80.8,260.5,81,260.4,81z M261,85.6
			c-0.1,0-0.1-0.1-0.1-0.2c0-0.1,0-0.1,0.1-0.1c0.1,0,0.2,0,0.2,0.1C261.1,85.5,261.1,85.6,261,85.6z M261.5,87.4l-0.1-0.3
			c0-0.1,0-0.2,0-0.3c0-0.1,0-0.1,0.1-0.1C261.6,87,261.6,87.2,261.5,87.4z M264.7,93.6c-0.2,0-0.3-0.1-0.3-0.3
			c0-0.2,0.1-0.3,0.3-0.3s0.3,0.1,0.3,0.3C265,93.5,264.9,93.6,264.7,93.6z"/>
		<path d="M256.2,86.7c0-0.2,0-0.4-0.1-0.6c-0.1-0.4-0.3-0.4-0.6-0.1c-0.1,0.1,0,0.4,0.3,0.8l0.4,0.7L256.2,86.7z"/>
		<path d="M176.1,782.1c-0.1-0.1-0.2-0.2-0.3-0.4c-0.1-0.2-0.3-0.3-0.6-0.3c-0.3,0-0.5,0.1-0.6,0.2c-0.1,0.1-0.2,0.2-0.3,0.2
			s-0.2-0.1-0.3-0.2c-0.1-0.1-0.3-0.2-0.6-0.2c-0.2,0-0.3,0-0.3,0.1s-0.1,0.1-0.3,0.1c-0.2,0-0.4,0.1-0.6,0.2
			c-0.2,0.1-0.3,0.2-0.4,0.1c0,0,0,0-0.1,0.1c0,0.1-0.1,0.2-0.2,0.2c-0.1,0-0.2,0.1-0.2,0.3c0,0.2,0,0.3,0.1,0.4
			c0,0,0.3,0.1,0.8,0.1c0.5,0.1,0.8,0.1,0.8,0.2c0,0.1,0,0.3,0,0.6c-0.1,0.4-0.2,0.5-0.4,0.5c-0.1,0-0.2,0-0.2,0.1
			c-0.1,0-0.1,0.1,0,0.1c0,0.1,0.1,0.1,0.2,0.1c0.1,0,0.2,0.3,0.2,0.8c0,0.5,0,1.8,0,3.9c0,2.3,0,3.7-0.1,4.2c0,0.5-0.2,0.7-0.4,0.7
			c-0.1,0-0.2,0.1-0.2,0.3c0,0.2-0.1,0.3-0.2,0.3s-0.2,0-0.2-0.1c0-0.1-0.2-0.2-0.6-0.4c-0.3-0.1-0.5-0.2-0.6-0.2
			c-0.1,0-0.2,0-0.2,0.1c-0.1,0.1-0.2,0.1-0.5,0.1c-0.2,0-0.3,0.1-0.4,0.4c-0.1,0.3-0.2,0.4-0.2,0.5c-0.1,0.1-0.1,0.1-0.1,0.2
			c0,0.2,0.2,0.4,0.5,0.8c0.3,0.3,0.5,0.4,0.6,0.4c0,0,0.1,0,0.1,0c0.1-0.1,0.4-0.1,0.9-0.1c0.4,0,0.7-0.1,0.8-0.2
			c0.1-0.1,0.3-0.2,0.4-0.2c0.2,0,0.3,0,0.3-0.1c0-0.1,0.1-0.1,0.3-0.1c0.2,0,0.3-0.1,0.3-0.2c0-0.1,0.1-0.3,0.4-0.6
			c0.2-0.3,0.4-0.5,0.4-0.7c0-0.1,0.1-0.3,0.3-0.4c0.2-0.1,0.3-0.7,0.3-1.6V792c0-0.5,0.1-0.8,0.2-0.8c0.1,0,0.1-0.1,0.1-0.4
			c0,0,0,0,0-0.1c0,0,0-0.1,0-0.1c0-0.1,0-0.3,0.1-0.7c0.1-0.3,0.1-0.6,0.1-0.7c0-0.2,0-0.3-0.1-0.3c-0.1-0.2-0.1-0.4,0-0.5
			c0.1-0.1,0.1-0.2,0-0.3c-0.1-0.2-0.1-0.3-0.1-0.4c0.1-0.1,0.1-0.5,0.2-1.2c0-0.7,0.1-1,0.1-1.1c0.1,0,0.1-0.1,0.1-0.3
			c0-0.2-0.1-0.3-0.1-0.3c-0.1-0.1-0.1-0.2,0-0.4c0.1-0.2,0.2-0.3,0.2-0.4c0-0.1-0.1-0.2-0.2-0.4c-0.1-0.1-0.2-0.2-0.2-0.3
			c0-0.2,0.1-0.3,0.3-0.3c0.2,0,0.4-0.1,0.7-0.3c0.3-0.2,0.5-0.4,0.5-0.5C176.3,782.2,176.2,782.1,176.1,782.1z"/>
		<path d="M194.4,783h-0.2c-0.4,0-0.8-0.1-1-0.3c-0.2-0.1-0.3-0.2-0.4-0.2c0,0-0.1,0.1-0.1,0.2c0,0.1,0,0.2-0.1,0.2
			c-0.1,0-0.4,0-0.8,0.1c-0.6,0-1,0-1,0.1c-0.1,0.1-0.1,0.3-0.1,0.7l0,0.6l0.8,0.1l0.8,0v2.3c0,1.5,0,2.3,0.1,2.4
			c0.1,0,0.1,0.1-0.1,0.3c-0.1,0.2-0.2,0.4-0.2,0.5v0.2c0,0.3,0,0.6-0.1,0.9c-0.1,0.3-0.2,0.5-0.3,0.5c-0.1,0.1-0.2,0.1-0.2,0.3
			c0,0.1-0.1,0.3-0.3,0.4c-0.2,0.2-0.4,0.2-0.6,0.2c-0.3,0-0.4,0.1-0.5,0.2c-0.1,0.1-0.2,0.2-0.4,0.2c-0.1,0-0.2,0-0.5-0.1
			c-0.5-0.1-0.7-0.1-0.8-0.2c0-0.1-0.2-0.1-0.4-0.1c-0.2,0-0.4-0.1-0.8-0.2c-0.2-0.1-0.3-0.2-0.4-0.3c-0.1-0.1-0.1-0.2-0.1-0.5V791
			v-0.3c0-0.4,0-0.6-0.1-0.6c-0.1,0-0.2-0.1-0.1-0.3c0-0.2,0.1-0.3,0.2-0.3c0.1-0.1,0.1-0.1,0-0.2c-0.1,0-0.1-0.1-0.1-0.2
			c0-0.1,0-0.2,0-0.3c0-0.1,0.1-0.1,0.1-0.1c0.1,0,0.1-0.3,0.1-0.9c0-0.9-0.1-1.4-0.2-1.5c-0.1-0.1-0.1-0.2,0-0.3
			c0.1-0.1,0.2-0.4,0.2-0.8c0-0.1,0-0.2,0-0.3c0-0.1-0.1-0.2-0.1-0.3c0-0.1,0-0.1,0-0.1c0-0.1,0.5-0.1,1.4-0.1c0.1,0,0.1,0,0.2,0
			c0.1,0,0.1,0,0.2,0h0c0,0,0.1-0.1,0.1-0.2c0-0.1,0-0.3-0.1-0.6c0-0.2-0.1-0.4-0.3-0.5c-0.2-0.1-0.5-0.1-1-0.1
			c-0.1,0-0.6,0-1.5,0.1c-1.4,0.1-2.1,0.2-2.3,0.4c-0.2,0.2-0.2,0.4-0.2,0.5c0,0.4,0.3,0.6,1,0.7c0.5,0.1,0.7,0.2,0.7,0.4
			c0,0.1-0.1,0.2-0.2,0.3c-0.2,0.1-0.2,0.4-0.1,0.7c0.1,0.3,0.1,0.6,0,0.6c-0.1,0.1-0.2,0.1-0.3,0.1c-0.1,0-0.1,0-0.1,0.1
			c0,0.2,0.1,0.4,0.4,0.5c0.2,0.1,0.4,0.2,0.4,0.4c0,0.1-0.1,0.2-0.2,0.3c-0.1,0.1-0.2,0.4-0.2,0.9v0.4c0,0.8,0.1,1.3,0.2,1.3
			c0.1,0.1,0.1,0.2,0.1,0.5c0,0.2,0,0.3-0.1,0.3c-0.1,0-0.1,0.1-0.2,0.4c-0.1,0.3,0,0.4,0.2,0.5c0.1,0.1,0.3,0.3,0.4,0.6
			c0.1,0.3,0.2,0.5,0.3,0.5s0.1,0.1,0.2,0.4c0.1,0.3,0.2,0.4,0.4,0.4c0.2,0,0.4,0,0.5,0.1c0.1,0.1,1,0.2,2.5,0.2
			c1.3,0,1.9-0.1,1.9-0.2s0.1-0.2,0.2-0.2c0.1,0,0.2-0.1,0.3-0.2c0.1-0.1,0.2-0.2,0.4-0.2c0.2,0,0.3-0.1,0.3-0.3
			c0-0.1,0.1-0.2,0.1-0.3c0.1,0,0.2,0,0.5,0h0.1c0.3,0,0.5,0,0.5-0.1c0-0.1-0.1-0.1-0.2-0.2c-0.1-0.1-0.2-0.2-0.2-0.3
			c0-0.2,0.1-0.4,0.2-0.6c0.2-0.2,0.2-0.4,0.1-0.4c-0.1,0-0.2-0.1-0.2-0.2c0-0.1,0-0.2,0.1-0.2c0.1,0,0.2-0.2,0.2-0.4
			c0-0.2,0.1-0.6,0.1-0.9c0-0.4,0-0.6,0-0.6c0-0.1,0-0.5,0.1-1.1c0-0.6,0-1.2,0.1-1.7c0-0.5,0.1-0.8,0.2-0.9c0.1-0.1,0.2-0.2,0-0.2
			c-0.1-0.1-0.2-0.1-0.2-0.2c0-0.1,0.1-0.3,0.3-0.4c0.2-0.1,0.4-0.2,0.6-0.2c0.1,0,0.2,0,0.2,0c0,0,0.1,0,0.2,0
			c0.3,0,0.4-0.1,0.4-0.3c0-0.1,0-0.1-0.1-0.2c-0.1-0.1-0.1-0.2,0-0.2c0.1,0,0.1-0.1,0.1-0.2C195.5,783.1,195.1,783,194.4,783z"/>
		<path d="M214.7,785.5c0-0.2-0.1-0.3-0.2-0.5c-0.2-0.2-0.3-0.3-0.4-0.3c-0.1,0-0.2-0.1-0.2-0.2c0-0.1-0.1-0.3-0.3-0.6
			c-0.2-0.2-0.3-0.3-0.4-0.3c-0.1,0-0.2-0.1-0.2-0.2c0-0.1-0.1-0.2-0.3-0.3c-0.2-0.1-0.3-0.1-0.3-0.2c0-0.1-0.1-0.1-0.4-0.1
			c-0.2,0-0.3-0.1-0.6-0.2c-0.2-0.1-0.4-0.2-0.5-0.2c-0.2,0-0.3,0-0.3-0.1c0-0.1-0.1-0.1-0.4-0.1c-0.2,0-0.3,0-0.4-0.1
			c-0.1-0.1-0.2-0.1-0.2-0.1c-0.1,0-0.2,0-0.4,0.1c-0.3,0.1-0.6,0.2-1,0.2c-0.2,0-0.4,0-0.4-0.1c-0.1,0-0.1-0.1-0.1-0.2
			c0-0.2-0.1-0.3-0.2-0.3c-0.1,0-0.2,0-0.3,0.2c-0.1,0.1-0.1,0.1-0.2,0c-0.2-0.3-0.3-0.2-0.4,0.1c-0.1,0.2-0.2,0.3-0.4,0.2
			c-0.2-0.1-0.5-0.2-1-0.2c-0.4,0-0.7-0.1-0.8-0.2c0-0.1-0.1-0.1-0.3,0.1c-0.2,0.1-0.3,0.1-0.3,0c-0.1-0.1-0.2-0.2-0.5-0.2
			c-0.2,0-0.4,0-0.4,0.1s-0.1,0.1-0.3,0.1c-0.1,0-0.2,0-0.2,0.1c0,0.1-0.1,0.3-0.1,0.5c0,0.3,0,0.5,0.1,0.6c0,0.1,0.2,0.2,0.3,0.3
			c0.2,0.1,0.3,0.1,0.4,0.1c0,0,0.1,0,0.1,0c0.1,0,0.1,0,0.1,0c0.1,0,0.2,0,0.3,0.1c0.2,0.1,0.4,0.4,0.4,0.8c0,0.4,0,0.6-0.1,0.6
			c-0.1,0-0.1,0.3-0.1,0.9c0,0.6,0,0.8,0.1,0.8c0.1,0,0.1,0.1,0.1,0.4c0,0.2,0,0.4-0.1,0.5c-0.1,0.1-0.1,1-0.2,2.8L204,793l-0.5,0
			c-0.4,0-0.6,0.2-0.8,0.4c-0.2,0.2-0.3,0.4-0.3,0.5c0,0.1,0.1,0.2,0.4,0.4c0.3,0.2,0.5,0.2,0.7,0.2c0.1,0,0.2,0,0.2-0.1
			s0.3-0.1,0.8-0.1c0.5,0,0.8,0,0.8,0.1c0,0.1,0.9,0.2,2.6,0.2c1.1,0,1.7,0,1.8-0.1c0.1-0.1,0.4-0.2,0.7-0.2
			c0.4-0.1,0.8-0.2,1.3-0.5c0.5-0.2,0.8-0.4,1-0.4c0.2,0,0.3-0.1,0.4-0.4c0.1-0.3,0.3-0.6,0.7-1.1c0.4-0.4,0.6-0.7,0.6-0.8
			c0-0.1,0-0.2,0.1-0.2c0.1,0,0.1-0.1,0.1-0.3c0-0.2,0.1-0.4,0.2-0.5c0.1-0.1,0.1-0.8,0.1-2c0-1.4-0.1-2.1-0.2-2.2
			C214.7,785.8,214.7,785.7,214.7,785.5z M212.6,789.7c-0.1,0.1-0.2,0.2-0.2,0.5c0,0.3-0.1,0.4-0.2,0.6c-0.3,0.3-0.5,0.6-0.6,1
			c-0.1,0.2-0.1,0.2-0.2,0.2s-0.3,0.2-0.7,0.5c-0.4,0.3-0.7,0.5-0.9,0.5c-0.2,0-0.3,0.1-0.4,0.2c-0.1,0.1-0.1,0.1-0.2,0
			c-0.1-0.1-0.1-0.2-0.3-0.2s-0.2,0.1-0.3,0.2c0,0.1-0.3,0.1-0.9,0.1c-0.6,0-1.1,0-1.6,0c-0.2,0-0.2-0.1-0.2-0.4
			c0-0.2-0.1-0.4-0.2-0.4s-0.2,0-0.2-0.1c0-0.1,0.1-0.1,0.2-0.2c0.1-0.1,0.2-0.2,0.2-0.3c0-0.1,0.1-0.2,0.2-0.2
			c0.1,0,0.1-0.1,0.2-0.4s0.1-0.5,0.1-0.8c0-0.1,0-0.3-0.1-0.5c0,0,0,0,0-0.1c0,0,0-0.1,0-0.1c0-0.2,0.1-0.4,0.2-0.6l0.2-0.4
			c0,0-0.1-0.1-0.2-0.1c-0.1,0-0.2-0.3-0.2-0.8c0-0.5,0-1,0-1.5c0-1.4,0.1-2.2,0.1-2.4c0-0.3,0.1-0.5,0.4-0.8
			c0.2-0.2,0.4-0.3,0.6-0.3c0.1,0,0.2,0,0.3,0c0.1,0,0.3,0,0.7,0.1c0.4,0,0.7,0.1,1,0.1c0.3,0.1,0.4,0.1,0.5,0.2
			c0.1,0.1,0.2,0.2,0.4,0.2c0.2,0,0.4,0.1,0.4,0.3c0.1,0.2,0.2,0.3,0.3,0.3c0.2,0,0.2,0,0.2,0.1c0,0.1,0.1,0.2,0.3,0.2
			c0.2,0.1,0.3,0.2,0.3,0.3c0,0.1,0.1,0.3,0.2,0.4c0.1,0.1,0.2,0.4,0.3,0.9c0,0.4,0.1,0.7,0.2,0.8c0.1,0.1,0.1,0.5,0.1,1.3
			S212.6,789.7,212.6,789.7z"/>
		<path d="M231.2,790.1c-0.3,0-0.5,0-0.6,0c-0.7,0-1.1,0-1.3,0.1c-0.2,0.1-0.4,0.2-0.4,0.3c0,0.1-0.1,0.2-0.1,0.3
			c0,0.2,0.1,0.3,0.3,0.4c0.2,0.1,0.5,0.2,0.9,0.2c0.7,0.1,1,0.2,1,0.3c0,0-0.1,0.2-0.2,0.5c-0.1,0.3-0.3,0.5-0.5,0.5
			c-0.2,0-0.4,0.1-0.6,0.4c-0.1,0.2-0.2,0.3-0.3,0.3c0,0-0.1,0-0.1-0.1c0-0.1-0.1-0.1-0.1-0.1c-0.1,0-0.2,0-0.3,0.1
			c-0.1,0.1-0.4,0.2-0.8,0.2c-0.3,0-0.5,0-0.7,0c-0.6,0-1.1-0.1-1.2-0.2c-0.2-0.1-0.3-0.3-0.3-0.6c0-0.2-0.1-0.4-0.3-0.5
			c-0.2-0.1-0.3-0.2-0.3-0.4s0-0.2-0.1-0.2c-0.3,0-0.5-0.5-0.7-1.4c-0.1-0.7-0.2-1-0.3-1c-0.1,0-0.1-0.1-0.1-0.2s0-0.2,0.1-0.3
			c0.2,0,0.3-0.7,0.3-1.9c0-0.2,0.1-0.2,0.3-0.2c0.2,0,0.3-0.1,0.3-0.2c0-0.1,0-0.2-0.2-0.4c-0.1-0.1-0.1-0.2,0-0.2
			c0.2,0,0.4-0.1,0.6-0.2c0.2-0.1,0.4-0.3,0.4-0.4c0-0.1,0.1-0.3,0.3-0.4c0.2-0.1,0.4-0.2,0.7-0.2c0.2,0,0.3-0.1,0.3-0.2
			c0-0.1,0.2-0.2,0.7-0.2c0.1,0,0.2,0,0.4,0c0.5,0,0.9,0.2,1.1,0.5c0.1,0.2,0.4,0.3,0.6,0.4c0.2,0.1,0.4,0.2,0.4,0.3v0.2
			c0,0.1,0,0.2,0.1,0.3c0.1,0.1,0.2,0.2,0.3,0.5c0.1,0.2,0.1,0.3,0.2,0.4c0.1,0.1,0.2,0.1,0.5,0.1c0.2,0,0.3,0.1,0.4,0.1
			c0.1,0,0.2-0.1,0.3-0.4c0.1-0.2,0.1-0.5,0.1-0.9c0-0.3,0-0.5,0.1-0.5c0.1,0,0.1-0.1,0.1-0.2c0-0.3-0.1-0.6-0.2-0.9
			c-0.1-0.1-0.1-0.2-0.2-0.3c-0.1,0-0.4,0-0.8,0c-0.6,0-1,0-1.1-0.1c-0.1-0.1-0.8-0.2-2.1-0.2c-0.6,0-0.9,0-1.1,0.1
			c-0.7,0.1-1.1,0.2-1.2,0.3c-0.2,0.1-0.7,0.5-1.6,1.3c-0.8,0.8-1.2,1.2-1.2,1.3c0,0.1-0.1,0.2-0.2,0.4c-0.1,0.2-0.2,0.4-0.2,0.6
			c0,0.3,0,0.4-0.1,0.5c-0.1,0.1-0.2,0.2-0.2,0.3c0,0.2-0.1,0.3-0.2,0.4c-0.1,0.1-0.2,0.6-0.2,1.4c0,1,0.1,1.5,0.2,1.6
			c0.1,0,0.1,0.1,0.1,0.2c0,0.1,0,0.2-0.1,0.2c-0.1,0,0,0.2,0.2,0.4c0.3,0.2,0.4,0.4,0.5,0.4c0.1,0,0.1,0.1,0.2,0.3
			c0.1,0.2,0.2,0.4,0.6,0.7c0.3,0.3,0.6,0.5,0.8,0.6c0.2,0.1,0.2,0.1,0.2,0.2c0,0.1,0.3,0.2,1,0.3c0.6,0.1,1.3,0.1,2.1,0.1
			c1,0,1.6-0.1,1.8-0.3c0.1-0.1,0.3-0.2,0.6-0.3c0.4-0.1,0.6-0.2,0.7-0.2c0,0,0.1,0,0.1,0c0,0-0.1,0.2-0.2,0.5
			c-0.1,0.3-0.2,0.5-0.2,0.5c0,0.2,0.2,0.3,0.6,0.3c0.2,0,0.4,0,0.6,0c1-0.1,1.5-0.2,1.5-0.4c0-0.1-0.1-0.3-0.4-0.5
			c-0.2-0.1-0.3-0.3-0.3-0.4c0-0.2-0.1-0.6-0.1-1.2l-0.1-1.3l0.5,0.1c0.3,0,0.5,0,0.6-0.2c0.1-0.2,0.3-0.3,0.6-0.3
			c0.3,0,0.4-0.1,0.4-0.1c0-0.1,0.1-0.2,0.1-0.5v-0.6l-2.4-0.1C231.8,790.1,231.5,790.1,231.2,790.1z"/>
		<path d="M251.6,790.2c-0.1,0-0.3,0.2-0.5,0.5c-0.3,0.3-0.4,0.6-0.4,0.7c0,0.1-0.1,0.2-0.4,0.2c-0.1,0-0.2,0-0.3,0.1
			c0,0-0.1,0.1-0.1,0.1c0,0,0,0.1,0,0.3c0,0.2-0.1,0.3-0.4,0.3c0,0-0.1,0-0.1,0c-0.1,0-0.1,0-0.2,0c-0.2,0-0.4,0.1-0.6,0.3
			c-0.2,0.2-0.4,0.3-0.6,0.3c-0.1,0-0.2-0.1-0.2-0.2c0-0.1-0.1-0.1-0.4,0c-0.2,0.1-0.6,0.2-1.2,0.2c-0.5,0-0.7,0-0.7-0.1
			c0-0.1-0.1-0.1-0.2-0.1c-0.1,0-0.1-0.1-0.2-0.2c-0.1-0.2-0.1-0.3-0.1-0.4c0-0.1,0-0.2,0-0.3c0-0.2,0-0.4,0-0.6c0-0.3,0-0.5,0-0.8
			c0-0.3,0-0.5,0-0.8s0-0.5,0-0.6v-0.2c0-0.1,0.4-0.1,1.3-0.1c0.7,0,1.2,0.1,1.4,0.2c0.2,0.1,0.4,0.4,0.4,0.8c0,0.2,0,0.3,0.1,0.3
			c0,0,0.1,0,0.2,0c0.1-0.1,0.3-0.1,0.5-0.1c0.1,0,0.2,0,0.3-0.1c0-0.1,0.1-0.2,0.1-0.5c0-0.1,0-0.2,0-0.3c0-0.2,0-0.3,0-0.4v-0.2
			c0-0.3,0-0.6,0.1-0.7c0.1-0.1,0.1-0.3,0-0.4c-0.1-0.1-0.1-0.3,0.1-0.4c0.1-0.1,0.2-0.2,0.2-0.4c0-0.3-0.3-0.4-1-0.4
			c-0.4,0-0.6,0.2-0.6,0.5c0,0.1,0,0.2,0.1,0.3c0,0.2,0,0.4,0,0.5c-0.1,0.1-0.3,0.2-0.9,0.3c-0.5,0.1-1,0.1-1.5,0.1h-0.6v-0.6
			c0-0.4,0.1-0.6,0.2-0.6c0.1,0,0.2-0.1,0.2-0.4c0-0.3-0.1-0.5-0.2-0.9c-0.1-0.2-0.2-0.4-0.1-0.4c0-0.1,0.1-0.1,0.2-0.3
			c0.2-0.1,0.3-0.3,0.2-0.5c0,0,0-0.1,0-0.2c0-0.1,0.1-0.3,0.4-0.3c0.3-0.1,0.7-0.1,1.5-0.2c0.7,0,1.1-0.1,1.1-0.1
			c0.3,0,0.5,0.1,0.6,0.2c0.1,0.2,0.3,0.3,0.5,0.4c0.2,0.1,0.3,0.2,0.3,0.3c0,0.1,0.1,0.2,0.3,0.3c0.2,0.1,0.3,0.2,0.3,0.3
			c0,0.2,0.1,0.3,0.3,0.5c0.2,0.2,0.4,0.2,0.6,0.2h0c0.3,0,0.4-0.2,0.4-0.6c0-0.2-0.1-0.3-0.2-0.5c-0.1-0.1-0.2-0.3-0.2-0.5
			c0-0.3-0.1-0.5-0.2-0.5c-0.1,0-0.1-0.1,0-0.4c0.1-0.1,0.1-0.2,0.1-0.3c0,0-0.1-0.1-0.1-0.1c-0.1-0.1-0.2-0.2-0.2-0.3
			c0-0.1-0.1-0.3-0.3-0.5c-0.2-0.2-0.4-0.3-0.6-0.1c-0.3,0.1-1.8,0.3-4.7,0.4H245c-1.5,0-2.2-0.1-2.3-0.3c0-0.1-0.1-0.1-0.2-0.1
			c-0.1,0-0.2,0-0.2,0.1l0,0.1c0,0.1,0,0.1,0,0.1c0,0,0,0.1,0,0.2c0,0.1,0,0.2,0,0.2c0,0.2-0.1,0.3-0.3,0.3
			c-0.2,0.1-0.3,0.2-0.2,0.5c0.1,0.2,0.1,0.4,0.2,0.5c0.1,0.1,0.2,0.1,0.3,0.1c0.1,0,0.3,0,0.4,0c0.1,0,0.2,0,0.4,0
			c0.3,0,0.5,0.1,0.6,0.4c0.1,0.2,0.1,0.7,0.1,1.4c0,0.9-0.1,1.4-0.2,1.4c-0.1,0-0.1,0.2,0,0.4c0.1,0.2,0.1,0.4,0,0.6
			c-0.1,0.2-0.2,0.3-0.3,0.3c-0.1,0-0.1,0.1,0.1,0.2c0.1,0.1,0.1,0.3,0.1,0.6c0,0.5-0.1,1.5-0.2,2.8l-0.1,0.9h-0.6
			c-0.4,0-0.6,0.1-0.6,0.3c0,0.2-0.1,0.3-0.3,0.3c-0.1,0-0.2,0.1-0.2,0.3c0,0.3,0.1,0.5,0.3,0.6c0.2,0.1,0.3,0.2,0.3,0.4
			c0,0.1,0.2,0.1,0.7,0.1c0.5,0,0.8-0.1,0.9-0.3c0.1-0.1,0.5-0.2,1.2-0.2c0.5,0,0.9,0,1.3,0c0.7,0,1.1,0.1,1.2,0.2
			c0,0.1,0.2,0.1,0.4,0c0.2-0.1,0.7-0.2,1.5-0.2c0.8,0,1.3,0,1.5-0.1c0.2,0,0.3-0.1,0.5-0.3c0.2-0.2,0.3-0.3,0.2-0.5
			c0-0.2,0-0.3,0.1-0.4c0.1-0.1,0.2-0.3,0.2-0.8c0-0.3,0-0.5,0-0.6c0-0.1,0.1-0.1,0.2-0.1c0.2,0,0.3-0.2,0.3-0.5
			c0-0.2-0.1-0.4-0.2-0.6C251.9,790.3,251.7,790.2,251.6,790.2z"/>
		<path d="M241.3,791.9c0,0.1,0,0.2,0.1,0.2c0,0,0.1,0,0.1-0.1c0.1-0.2,0.1-0.3,0-0.3C241.4,791.7,241.3,791.8,241.3,791.9z"/>
		<path d="M264.1,800.6c-0.1,0-0.2,0.1-0.2,0.2c0,0.1,0.1,0.2,0.2,0.2s0.2-0.1,0.2-0.2C264.4,800.7,264.3,800.6,264.1,800.6z"/>
		<path d="M272.1,782.6c-0.3,0-0.5,0-0.7,0c-0.4,0-0.7,0.1-0.7,0.1c-0.1,0-0.2,0-0.2,0c-0.1,0-0.1-0.1-0.1-0.1c0,0,0-0.1-0.1-0.2
			c0-0.1,0-0.2,0-0.2c0-0.1,0-0.1,0,0c0,0,0,0.1,0,0.2c0,0.2-0.2,0.3-0.4,0.4c-0.2,0.1-0.4,0.2-0.4,0.4c0,0.1-0.1,0.3-0.2,0.4
			c-0.1,0.1-0.2,0.3-0.2,0.4c0,0.2-0.1,0.4-0.2,0.6c-0.1,0.2-0.2,0.4-0.2,0.6c0,0.2,0,0.3-0.1,0.3c-0.1,0-0.2,0.1-0.2,0.4
			c0,0.2-0.1,0.4-0.2,0.5c-0.1,0.1-0.2,0.2-0.3,0.5c-0.1,0.3-0.1,0.4-0.2,0.4c-0.1,0-0.1,0.1-0.1,0.3c0,0.2,0,0.4-0.2,0.5
			c-0.2,0.2-0.3,0.5-0.3,0.9c-0.1,0.4-0.2,0.6-0.4,0.6c-0.2,0-0.3,0.1-0.3,0.2c0,0.1,0,0.2-0.1,0.2s-0.1,0.1-0.1,0.3
			c0,0.2-0.1,0.3-0.3,0.3c-0.2,0-0.3-0.2-0.3-0.5c0-0.3-0.1-0.5-0.2-0.5s-0.2-0.1-0.2-0.3c0-0.2,0-0.3-0.1-0.3
			c-0.1,0-0.2-0.2-0.2-0.6c0-0.4-0.1-0.6-0.2-0.6c-0.1-0.1-0.2-0.2-0.2-0.4c0-0.2,0-0.3-0.1-0.3c-0.1,0-0.2-0.2-0.2-0.5
			s-0.1-0.6-0.3-0.7c-0.2-0.2-0.3-0.5-0.3-0.9c0-0.5,0-0.7-0.1-0.7c-0.1,0-0.2-0.3-0.2-0.8c-0.1-0.6-0.2-0.9-0.4-0.9
			c-0.2,0-0.4-0.1-0.5-0.3c-0.1-0.2-0.3-0.3-0.4-0.3c-0.2,0-0.3-0.1-0.4-0.3l-0.1-0.2l0,0.2c0,0.2-0.1,0.3-0.4,0.3
			c-0.3,0-0.4,0-0.4,0.1c0,0.1-0.1,0.1-0.2,0.1c-0.1,0-0.2,0.1-0.3,0.2c-0.1,0.1-0.2,0.2-0.4,0.1c-0.3-0.1-0.4,0-0.4,0.1
			c0,0.1,0.1,0.3,0.3,0.4c0.2,0.2,0.4,0.3,0.5,0.3c0.3,0.1,0.4,0.7,0.4,1.8c0,0.6,0,1,0,1.4c0,0.3,0,0.7,0,1.1
			c0,0.6,0.1,0.9,0.2,1.1c0.1,0.1,0.1,0.2,0,0.2c-0.2,0-0.2,0.1-0.2,0.2c0,0.1,0,0.2-0.1,0.5c-0.1,0.8-0.2,1.3-0.2,1.5
			c0,0.2,0,0.3,0.1,0.3c0.1,0,0.1,0.1,0.1,0.2c0,0.1,0,0.2-0.1,0.2c-0.1,0-0.1,0.1-0.2,0.3c-0.1,0.2-0.3,0.3-0.6,0.4
			c-0.3,0.1-0.5,0.2-0.5,0.5c0,0.1,0,0.2,0.1,0.4c0,0.2,0.1,0.3,0.2,0.3c0.1,0,0.4,0,0.8,0c0.6,0,0.9,0,0.9-0.1
			c0-0.1,0.3-0.1,0.8-0.1c0.6,0,1-0.1,1-0.4c0-0.1,0-0.2,0-0.2c-0.1-0.2-0.3-0.3-0.6-0.3c-0.4,0-0.6-0.1-0.6-0.2
			c0-0.1-0.1-1.3-0.2-3.7c0-0.7,0-1.5,0-2.4c0-0.8,0.1-1.2,0.2-1.2c0.1,0,0.2,0.1,0.2,0.2c0,0.1,0.1,0.2,0.2,0.2
			c0.1,0,0.1,0.1,0.1,0.4c0,0.3,0,0.4,0.1,0.4c0.1,0,0.1,0.1,0.2,0.4c0.1,0.2,0.2,0.5,0.3,0.9c0.2,0.4,0.3,0.6,0.4,0.6
			c0,0,0.1,0.1,0.1,0.4s0.1,0.5,0.2,0.7c0.1,0.2,0.1,0.4,0.1,0.4c0.1,0,0.1,0.2,0.2,0.5c0.1,0.3,0.2,0.5,0.2,0.5
			c0.1,0,0.1,0.2,0.2,0.5c0,0.2,0.1,0.5,0.3,0.9c0.2,0.4,0.3,0.7,0.3,0.9c0,0.3,0.1,0.4,0.4,0.5h0.1c0.4,0,0.7-0.3,0.8-1
			c0.1-0.3,0.1-0.5,0.2-0.6c0.1-0.1,0.1-0.2,0.1-0.4c0-0.2,0.1-0.3,0.4-0.4c0.2-0.1,0.4-0.3,0.4-0.6c0-0.2,0.1-0.4,0.2-0.6
			c0.1-0.2,0.2-0.4,0.2-0.7c0-0.2,0-0.3,0-0.4c0-0.1,0.1-0.1,0.1,0c0.1,0,0.1,0,0.1,0c0,0,0-0.1,0-0.2c0-0.2,0.1-0.3,0.2-0.4
			c0.1-0.1,0.2-0.3,0.3-0.6c0.1-0.3,0.2-0.5,0.2-0.5c0.1,0,0.1-0.1,0.1-0.4c0-0.2,0.1-0.4,0.2-0.4c0.1-0.1,0.2-0.2,0.2-0.3
			c0-0.1,0.1-0.3,0.2-0.4c0.1-0.1,0.2-0.2,0.3-0.2c0.2,0,0.2,0.1,0.2,0.4c0,0.1,0,0.2,0,0.2c0,0.3-0.1,0.7-0.1,1.4v0.7
			c0,0.2,0,0.5,0,0.9c0,0.5,0,0.8-0.1,0.8c-0.1,0-0.2,0.5-0.2,1.4l0,1.4l-0.8,0.1c-0.5,0-0.7,0.1-0.8,0.3c0,0.1-0.1,0.2-0.1,0.2
			c0,0.2,0.2,0.3,0.6,0.3c0.3,0,0.5,0,0.5,0.1c0,0.1,0.7,0.1,2.2,0.1c0.9,0,1.3,0,1.3-0.1c0-0.1,0.1-0.1,0.2-0.1s0.2-0.1,0.2-0.4
			c0-0.3-0.1-0.5-0.3-0.6c-0.1,0-0.1,0-0.2,0c-0.1,0-0.1,0-0.2,0c-0.1,0-0.1,0-0.2,0c-0.1,0-0.2,0-0.2,0c-0.1,0-0.2-0.1-0.2-0.2
			c0-0.1-0.1-0.3-0.1-0.6c0-0.5,0.1-0.8,0.2-0.9c0.1,0,0.1-0.3,0.1-0.6c0-0.4,0-0.5-0.1-0.5c-0.1,0-0.2-0.1-0.2-0.4
			c0-0.3,0.1-0.5,0.2-0.6c0.1-0.1,0.1-0.1,0-0.2c-0.1-0.1-0.2-0.7-0.2-1.9c0-1.1,0.1-1.7,0.2-1.7c0.1,0,0.1-0.2,0.1-0.5
			c0-0.3,0.1-0.4,0.2-0.5c0.1-0.1,0.3-0.1,0.7-0.1c0.2,0,0.3,0,0.4-0.1c0-0.1,0.1-0.2,0.1-0.5c0-0.3-0.1-0.5-0.2-0.6
			C272.8,782.6,272.5,782.6,272.1,782.6z M264.6,789.4c-0.1,0-0.1,0-0.1-0.1c0-0.1,0-0.2,0.1-0.2c0.1,0,0.1,0.1,0.1,0.2
			C264.8,789.4,264.7,789.4,264.6,789.4z M270.1,786.6c-0.1,0-0.1-0.1-0.1-0.2c0-0.1,0.1-0.1,0.1-0.1c0.1,0,0.2,0.1,0.2,0.2
			C270.3,786.6,270.2,786.6,270.1,786.6z"/>
		<path d="M280.2,792.1c0,0,0.1,0,0.1-0.1c0.1-0.2,0.1-0.3,0-0.3c-0.1,0-0.2,0.1-0.2,0.2C280,792,280.1,792.1,280.2,792.1z"/>
		<path d="M290.3,790.2c-0.1,0-0.3,0.2-0.5,0.5c-0.3,0.3-0.4,0.6-0.4,0.7c0,0.1-0.1,0.2-0.4,0.2c-0.1,0-0.2,0-0.3,0.1
			c0,0-0.1,0.1-0.1,0.1c0,0,0,0.1,0,0.3c0,0.2-0.1,0.3-0.4,0.3c0,0-0.1,0-0.1,0c-0.1,0-0.1,0-0.2,0c-0.2,0-0.4,0.1-0.6,0.3
			c-0.2,0.2-0.4,0.3-0.6,0.3c-0.1,0-0.2-0.1-0.2-0.2c0-0.1-0.1-0.1-0.4,0c-0.2,0.1-0.6,0.2-1.2,0.2c-0.5,0-0.7,0-0.7-0.1
			c0-0.1-0.1-0.1-0.2-0.1c-0.1,0-0.1-0.1-0.2-0.2c-0.1-0.2-0.1-0.3-0.1-0.4c0-0.1,0-0.2,0-0.3c0-0.2,0-0.4,0-0.6c0-0.3,0-0.5,0-0.8
			c0-0.3,0-0.5,0-0.8c0-0.3,0-0.5,0-0.6v-0.2c0-0.1,0.4-0.1,1.3-0.1c0.7,0,1.2,0.1,1.4,0.2c0.2,0.1,0.4,0.4,0.4,0.8
			c0,0.2,0,0.3,0.1,0.3c0,0,0.1,0,0.2,0c0.1-0.1,0.3-0.1,0.5-0.1c0.1,0,0.2,0,0.3-0.1c0-0.1,0.1-0.2,0.1-0.5c0-0.1,0-0.2,0-0.3
			c0-0.2,0-0.3,0-0.4v-0.2c0-0.3,0-0.6,0.1-0.7c0.1-0.1,0.1-0.3,0-0.4c-0.1-0.1-0.1-0.3,0.1-0.4c0.1-0.1,0.2-0.2,0.2-0.4
			c0-0.3-0.3-0.4-1-0.4c-0.4,0-0.6,0.2-0.6,0.5c0,0.1,0,0.2,0.1,0.3c0,0.2,0,0.4,0,0.5s-0.3,0.2-0.9,0.3s-1,0.1-1.5,0.1h-0.6v-0.6
			c0-0.4,0.1-0.6,0.2-0.6c0.1,0,0.2-0.1,0.2-0.4c0-0.3-0.1-0.5-0.2-0.9c-0.1-0.2-0.2-0.4-0.1-0.4c0-0.1,0.1-0.1,0.2-0.3
			c0.2-0.1,0.3-0.3,0.2-0.5c0,0,0-0.1,0-0.2c0-0.1,0.1-0.3,0.4-0.3c0.3-0.1,0.7-0.1,1.5-0.2c0.7,0,1.1-0.1,1.1-0.1
			c0.3,0,0.5,0.1,0.6,0.2c0.1,0.2,0.3,0.3,0.5,0.4c0.2,0.1,0.3,0.2,0.3,0.3c0,0.1,0.1,0.2,0.3,0.3c0.2,0.1,0.3,0.2,0.3,0.3
			c0,0.2,0.1,0.3,0.3,0.5s0.4,0.2,0.6,0.2h0c0.3,0,0.4-0.2,0.4-0.6c0-0.2-0.1-0.3-0.2-0.5c-0.1-0.1-0.2-0.3-0.2-0.5
			c0-0.3-0.1-0.5-0.2-0.5c-0.1,0-0.1-0.1,0-0.4c0.1-0.1,0.1-0.2,0.1-0.3c0,0-0.1-0.1-0.1-0.1c-0.1-0.1-0.2-0.2-0.2-0.3
			c0-0.1-0.1-0.3-0.3-0.5c-0.2-0.2-0.4-0.3-0.6-0.1c-0.3,0.1-1.8,0.3-4.7,0.4h-0.7c-1.5,0-2.2-0.1-2.3-0.3c0-0.1-0.1-0.1-0.2-0.1
			c-0.1,0-0.2,0-0.2,0.1l0,0.1c0,0.1,0,0.1,0,0.1c0,0,0,0.1,0,0.2c0,0.1,0,0.2,0,0.2c0,0.2-0.1,0.3-0.3,0.3
			c-0.2,0.1-0.3,0.2-0.2,0.5c0.1,0.2,0.1,0.4,0.2,0.5c0.1,0.1,0.2,0.1,0.3,0.1c0.1,0,0.3,0,0.4,0c0.1,0,0.2,0,0.4,0
			c0.3,0,0.5,0.1,0.6,0.4c0.1,0.2,0.1,0.7,0.1,1.4c0,0.9-0.1,1.4-0.2,1.4c-0.1,0-0.1,0.2,0,0.4c0.1,0.2,0.1,0.4,0,0.6
			c-0.1,0.2-0.2,0.3-0.3,0.3c-0.1,0-0.1,0.1,0.1,0.2c0.1,0.1,0.1,0.3,0.1,0.6c0,0.5-0.1,1.5-0.2,2.8l-0.1,0.9h-0.6
			c-0.4,0-0.6,0.1-0.6,0.3c0,0.2-0.1,0.3-0.3,0.3c-0.1,0-0.2,0.1-0.2,0.3c0,0.3,0.1,0.5,0.3,0.6c0.2,0.1,0.3,0.2,0.3,0.4
			c0,0.1,0.2,0.1,0.7,0.1c0.5,0,0.8-0.1,0.9-0.3c0.1-0.1,0.5-0.2,1.2-0.2c0.5,0,0.9,0,1.3,0c0.7,0,1.1,0.1,1.2,0.2
			c0,0.1,0.2,0.1,0.4,0c0.2-0.1,0.7-0.2,1.5-0.2c0.8,0,1.3,0,1.5-0.1c0.2,0,0.3-0.1,0.5-0.3c0.2-0.2,0.3-0.3,0.2-0.5
			c0-0.2,0-0.3,0.1-0.4c0.1-0.1,0.2-0.3,0.2-0.8c0-0.3,0-0.5,0-0.6c0-0.1,0.1-0.1,0.2-0.1c0.2,0,0.3-0.2,0.3-0.5
			c0-0.2-0.1-0.4-0.2-0.6C290.6,790.3,290.5,790.2,290.3,790.2z"/>
		<path d="M310.9,782c-0.1,0-0.2,0-0.3,0.1c-0.2,0.1-0.3,0.1-0.3,0.1c-0.1,0-0.1-0.1-0.2-0.2c-0.1-0.2-0.3-0.3-0.4-0.3
			c-0.1,0-0.2-0.1-0.2-0.3c0-0.2-0.1-0.3-0.3-0.3c-0.2,0-0.3,0.1-0.3,0.3c0,0.2,0.1,0.3,0.2,0.3s0.2,0.1,0.2,0.3
			c0,0.2-0.1,0.3-0.2,0.3c-0.2,0-0.3-0.1-0.3-0.4c-0.1-0.2-0.2-0.4-0.3-0.4c-0.1,0-0.1,0-0.2,0.1c-0.2,0.2-0.2,0.3,0,0.3
			c0.1,0,0.2,0.1,0.2,0.1c0,0.1-0.1,0.2-0.4,0.2c-0.2,0-0.4,0-0.4-0.1c0-0.1-0.1-0.1-0.4-0.1c-0.4,0-0.8,0.1-1.1,0.2
			c-0.4,0.2-0.6,0.4-0.6,0.7c0,0.3,0.3,0.5,0.8,0.6c0.4,0.1,0.6,0.1,0.6,0.2c0,0.1,0.1,0.1,0.3,0.1c0.3,0,0.5,0.2,0.6,0.6
			c0.1,0.4,0.2,1.2,0.2,2.4c0,1.4,0.1,2.2,0.1,2.4c0.1,0.1,0,0.3,0,0.6l-0.1,0.4l-0.5-0.5c-0.4-0.3-0.5-0.5-0.5-0.6
			c0-0.1-0.1-0.2-0.2-0.3c-0.1-0.1-0.3-0.2-0.4-0.4c-0.2-0.1-0.3-0.2-0.3-0.2c-0.1-0.1-0.3-0.2-0.3-0.2c-0.1,0-0.2-0.1-0.2-0.2
			c0-0.1-0.1-0.2-0.2-0.3c-0.1-0.1-0.3-0.2-0.4-0.2s-0.1-0.1-0.1-0.2c0-0.1-0.1-0.2-0.2-0.2c-0.1,0-0.1,0-0.1-0.1
			c0-0.1-0.1-0.2-0.4-0.5c-0.2-0.3-0.4-0.4-0.4-0.5c0-0.1-0.1-0.2-0.3-0.2c-0.2,0-0.3-0.1-0.5-0.2c-0.2-0.1-0.2-0.3-0.2-0.4
			c0-0.1-0.2-0.3-0.5-0.7c-0.3-0.4-0.5-0.6-0.5-0.7c0-0.1-0.1-0.2-0.3-0.4c-0.2-0.2-0.3-0.4-0.3-0.4c0-0.3-0.6-0.5-1.8-0.6
			c-0.6,0-0.9-0.1-0.9-0.1c-0.3,0-0.4,0.1-0.4,0.2c0,0.1,0,0.2,0,0.4c0,0.2,0,0.4,0.1,0.6c0.1,0.2,0.1,0.3,0.2,0.3
			c0.1,0,0.2,0.2,0.3,0.6c0.1,0.4,0.2,0.6,0.2,0.6c0.1,0,0.1,0.3,0.1,0.8c0,0.5,0,0.8-0.1,0.8c-0.1,0-0.1,0.1-0.1,0.4
			c0,0.2,0.1,0.6,0.2,1c0.1,0.2,0.1,0.6,0.1,1.1c0,0.7-0.1,1.1-0.2,1.1c-0.1,0-0.1,0.2-0.1,0.7c0,0.5,0,1.1-0.1,1.5
			c0,0.4-0.1,0.6-0.1,0.7c-0.1,0.1-0.2,0.2-0.4,0.2c-0.3,0.1-0.4,0.2-0.4,0.4c0,0.2,0.1,0.4,0.4,0.6c0.2,0.2,0.3,0.3,0.5,0.3
			c0.2,0,0.8,0,1.7,0c1,0,1.6,0,1.8-0.1c0.2-0.1,0.3-0.3,0.3-0.8c0-0.3-0.1-0.4-0.3-0.5c-0.2-0.1-0.3-0.1-0.3-0.2
			c0-0.1-0.2-0.1-0.6-0.1c-0.4,0-0.7-0.1-0.9-0.3c-0.2-0.2-0.2-0.3-0.1-0.4c0.1-0.1,0.2-0.2,0.2-0.6c0-0.3,0-0.5-0.1-0.5
			c-0.1-0.1-0.1-0.9-0.1-2.6c0-1.7,0.1-2.5,0.2-2.5c0.1,0,0.3,0.1,0.4,0.2c0.1,0.1,0.3,0.2,0.5,0.3c0.3,0.1,0.4,0.3,0.5,0.4
			c0,0.2,0.3,0.5,0.8,1.1c0.5,0.5,0.9,0.9,1.3,1.1c0.2,0.1,0.3,0.2,0.3,0.3c0,0.1,0.2,0.2,0.5,0.6c0.7,0.7,1.1,1.1,1.1,1.4
			c0,0.1,0.1,0.1,0.3,0.1c0.2,0,0.3,0,0.3,0.1c0,0.1,0.1,0.3,0.4,0.5c0.2,0.2,0.4,0.4,0.4,0.6c0,0.1,0.1,0.3,0.3,0.5
			c0.2,0.2,0.3,0.3,0.4,0.3c0.1,0,0.3,0.2,0.6,0.5c0.3,0.3,0.5,0.5,0.7,0.6c0.1,0.1,0.2,0.1,0.3,0.1c0.4,0,0.6-0.2,0.6-0.6
			c0-0.1,0-0.2,0-0.4c0-0.9-0.1-1.4-0.2-1.6c-0.1-0.1-0.1-0.5-0.1-1.3v-0.4c0-1,0-1.6-0.1-1.6c-0.1-0.1-0.2-0.4-0.2-1
			c0-0.5,0-0.8,0.1-0.8c0.1-0.1,0.2-0.2,0.2-0.5c0-0.3,0-0.4,0.1-0.4c0.1,0,0.1-0.1,0.1-0.4s0-0.4-0.1-0.4c-0.1,0-0.1-0.1-0.1-0.4
			c0-0.4,0.1-0.7,0.2-1c0.2-0.3,0.4-0.5,0.7-0.5c0.2,0,0.4-0.1,0.4-0.1c0.1,0,0.1-0.2,0.1-0.5v-0.2C311.3,782.3,311.2,782,310.9,782
			z"/>
		<path d="M330.6,784.1c0.1,0,0.2-0.2,0.2-0.5c0-0.3-0.1-0.4-0.2-0.4c-0.1,0-0.1-0.1-0.1-0.3c0-0.2,0.1-0.4,0.2-0.7
			c0.1-0.3,0-0.5-0.2-0.7c-0.2-0.2-0.5-0.3-0.9-0.3c-0.4,0-0.8,0.1-1.1,0.4c-0.3,0.2-0.5,0.3-0.6,0.2c-0.1-0.1-0.1-0.1-0.3-0.1
			c-0.1,0-0.2,0-0.6,0.1c-0.4,0.1-1.3,0.2-2.7,0.2c-1,0-1.5,0-1.6-0.1c-0.1-0.1-0.2,0-0.4,0.2c-0.1,0.1-0.3,0.2-0.4,0.2
			c-0.1,0-0.3,0-0.8-0.1c-0.8-0.2-1.2-0.3-1.3-0.3c0,0-0.1,0-0.3,0.1c-0.1,0-0.3,0.1-0.4,0.3c-0.1,0.2-0.2,0.4-0.2,0.5
			c0,0,0,0.1,0.1,0.2c0.1,0.1,0.1,0.2,0.2,0.5c0,0.1,0,0.2-0.1,0.3c-0.1,0-0.2,0.1-0.4,0.1c-0.1,0-0.3,0-0.4,0.1
			c-0.1,0.1-0.2,0.2-0.2,0.2c0,0.1,0,0.1,0.1,0.2c0.1,0.1,0.1,0.3,0.1,0.7c0,0.3-0.1,0.5-0.1,0.5c0,0.5,0.2,0.8,0.6,0.8
			c0.3,0,0.4-0.1,0.4-0.2c0-0.1,0.1-0.2,0.2-0.2c0.3,0,0.3-0.2,0-0.5c-0.1-0.1-0.2-0.2-0.2-0.3c0,0,0.1-0.1,0.3-0.1
			c0.2-0.1,0.3-0.2,0.2-0.4c-0.1-0.2,0-0.4,0-0.6c0.1-0.1,0.1-0.3,0-0.6c-0.1-0.3-0.1-0.4,0-0.4c0.1,0,0.1,0.1,0.1,0.2
			c0,0.1,0.2,0.3,0.6,0.4c0.4,0.1,0.8,0.2,1.1,0.2c0.4,0,0.7,0.1,0.9,0.3c0.2,0.2,0.4,0.2,0.5,0.2c0.1,0,0.2,0,0.2,0
			c0,0,0,0.1-0.1,0.1c-0.3,0.4-0.4,2.4-0.5,6.1c0,0.8-0.1,1.2-0.3,1.4c-0.2,0.2-0.3,0.3-0.3,0.5c0,0.1-0.3,0.2-0.8,0.2l-0.8,0.1
			l-0.1,0.6c0,0,0,0.1,0,0.1c0,0.1,0,0.1,0,0.1c0,0.2,0.2,0.5,0.5,0.8c0.3,0.3,0.6,0.4,0.7,0.4c0.1,0,0.2,0,0.2-0.1
			c0-0.1-0.1-0.1-0.2-0.1c-0.1,0-0.1,0-0.1-0.1c0-0.1,0.2-0.1,0.5-0.1c0.1,0,0.4,0,0.9,0c0.4,0,0.8,0,1,0c0.5,0,0.9,0,1-0.1
			c0.1-0.1,0.3-0.2,0.6-0.1c0.2,0,0.3,0,0.4-0.1c0.1-0.1,0.2-0.1,0.3-0.1c0.1,0,0.3-0.1,0.5-0.3c0.1-0.1,0.2-0.2,0.2-0.3
			c0-0.1-0.1-0.2-0.2-0.5c-0.2-0.3-0.3-0.5-0.5-0.5c-0.1,0-0.2-0.1-0.2-0.2c0-0.1-0.1-0.2-0.3-0.1c0,0-0.1,0-0.1,0
			c-0.1,0-0.1,0-0.1,0c-0.1,0-0.2,0-0.3-0.1c0-0.1-0.1-0.3-0.1-0.5v-0.5c0-0.5,0-0.8,0-0.9c0-0.1,0.1-0.2,0.2-0.2
			c0.2,0,0.2-0.1,0.2-0.4c0-0.3-0.1-0.5-0.2-0.5c-0.1,0-0.2-0.4-0.2-1.1c0-0.8,0.1-1.3,0.2-1.4c0.1-0.1,0.2-0.6,0.2-1.2
			c0-0.7,0.1-1.1,0.1-1.2c0.1-0.2,0.5-0.2,1.2-0.2c1.1,0,1.7,0.1,1.8,0.4c0,0.1,0.1,0.2,0.4,0.5c0.2,0.2,0.3,0.5,0.4,0.8
			c0,0.3,0.1,0.5,0.1,0.5c0.1,0.1,0.2,0.1,0.4,0.1c0.3,0,0.4,0,0.4-0.1c0-0.1,0.1-0.2,0.3-0.3c0.2-0.1,0.3-0.2,0.3-0.4
			s-0.1-0.4-0.3-0.6C330.5,784.2,330.5,784.1,330.6,784.1z"/>
	</g>
	<g>
		<g>
			<path class="st0" d="M350.6,602c0,0,22.7,0.3,27.8-5.6c5.7-6.6,5.4-31.4,5.4-31.4s-0.3,24.8,5.4,31.4c5.1,6,27.8,5.6,27.8,5.6
				s-22.7-0.3-27.8,5.6c-5.7,6.6-5.4,31.4-5.4,31.4s0.3-24.8-5.4-31.4C373.3,601.7,350.6,602,350.6,602z"/>
		</g>
		<g>
			<path class="st0" d="M382.9,316c0,0,7.3,0.1,8.9-1.7c1.8-2,1.7-9.6,1.7-9.6s-0.1,7.6,1.7,9.6c1.7,1.8,8.9,1.7,8.9,1.7
				s-7.3-0.1-8.9,1.7c-1.8,2-1.7,9.6-1.7,9.6s0.1-7.6-1.7-9.6C390.2,315.9,382.9,316,382.9,316z"/>
		</g>
		<g>
			<g>
				<g>
					<path d="M244,281c-2-2.3-2.6-6.3-1.2-9.1c0.2-0.4,1.9-2.8,2-2.9c0.4-0.1,1.5,0.4,1.9,0.5c4.4,1,8.9,1.1,13.1-0.7
						c2-0.9,0.3-3.8-1.7-2.9c-3.4,1.5-7.5,1.1-11.1,0.3c-2.3-0.6-3.3-0.3-5.1,1.5c-4.3,4.1-4,11.5-0.2,15.8
						C243.1,285.1,245.4,282.7,244,281L244,281z"/>
				</g>
			</g>
			<g>
				<g>
					<path d="M258.9,268.8c5.4,2.6,3.9,8.5,1.2,12.6c-1.2,1.8,1.7,3.5,2.9,1.7c3.6-5.6,4.6-13.8-2.5-17.2
						C258.6,264.9,256.9,267.9,258.9,268.8L258.9,268.8z"/>
				</g>
			</g>
			<g>
				<g>
					<path d="M261.1,268c2-3.1,2-6.2,2-9.7c0.1-3.4-0.1-5.8-2.6-8.4c-0.5-0.5-1.5-0.7-2.1-0.3c-3.4,2.5-8.7,1.5-12.5,0.4
						c-0.6-0.2-1.2,0-1.6,0.4c-4.2,4.3-4,12.6-0.9,17.5c1.2,1.8,4.1,0.1,2.9-1.7c-2.2-3.5-2.7-10.3,0.4-13.4
						c-0.5,0.1-1.1,0.3-1.6,0.4c4.6,1.3,10.9,2.2,15.1-0.8c-0.7-0.1-1.4-0.2-2.1-0.3c2.9,3,2.2,10.6,0.1,14
						C257,268.2,259.9,269.9,261.1,268L261.1,268z"/>
				</g>
			</g>
			<g>
				<g>
					<path d="M261.1,252c3.5-5.5,2.8-13.3-1.8-17.8c-0.5-0.5-1.4-0.7-2.1-0.3c-2.9,2.1-7.2,1.2-9.9,0c-0.7-0.3-1.5-0.3-2.1,0.3
						c-4.6,4.5-5.3,12.3-1.8,17.8c1.2,1.8,4.1,0.1,2.9-1.7c-2.7-4.2-2.2-10.2,1.3-13.7c-0.7,0.1-1.4,0.2-2.1,0.3
						c4.2,1.8,9.4,2.8,13.4,0c-0.7-0.1-1.4-0.2-2.1-0.3c3.5,3.4,3.9,9.5,1.3,13.7C257,252.2,259.9,253.9,261.1,252L261.1,252z"/>
				</g>
			</g>
			<g>
				<g>
					<path d="M260,236.6c3.4-5.7,3.4-13.3-1.2-18.3c-0.7-0.7-1.7-0.5-2.4,0c-2.4,1.8-6.1,0.9-8.6-0.3c-0.7-0.3-1.5-0.3-2.1,0.3
						c-4.5,4.8-4.7,12.4-1.3,18c1.1,1.9,4,0.2,2.9-1.7c-2.5-4.2-2.7-10.2,0.8-13.9c-0.7,0.1-1.4,0.2-2.1,0.3c4.1,2,8.9,2.7,12.7-0.3
						c-0.8,0-1.6,0-2.4,0c3.5,3.8,3.3,9.9,0.7,14.2C255.9,236.7,258.8,238.4,260,236.6L260,236.6z"/>
				</g>
			</g>
			<g>
				<g>
					<path d="M242.3,302.7c-21.6,4.1-42.7-5.6-64.3-4.7c-6.4,0.3-12.8,3.3-18.8,5.2c-3.2,1-8.5,3.3-11.9,2.6
						c-6.8-1.3-1.3-7.1,1.7-9.9c15.2-14.1,35.2-9.9,54-9.1c12.3,0.5,28.6,2.5,40.3-2.3c2-0.8,1.1-4.1-0.9-3.3
						c-5.3,2.2-11.7,2.1-17.4,2.3c-7.6,0.3-15.3,0.2-22.9-0.2c-15.7-0.7-32.6-4.3-47,3.9c-4.4,2.5-22.2,15.4-12.4,21
						c4,2.3,10,0.4,14-0.7c6.7-1.9,13.4-5.2,20.3-5.9c5.5-0.6,11.5,0.8,17,1.4c6.8,0.9,13.6,1.6,20.4,2.6c9.8,1.5,18.9,2.2,28.8,0.4
						C245.3,305.6,244.4,302.3,242.3,302.7L242.3,302.7z"/>
				</g>
			</g>
			<g>
				<g>
					<g>
						<path d="M256.9,316.8c4.8,10.2,19.6,13.6,19.2,25.9c-0.2,7.4-0.5,14.7-0.8,22.1c-1,27.5-2.1,54.9-3.3,82.3
							c-2.9,66.7-5.7,133.6-11.9,200.1c-1,10.9-2.1,21.8-3.8,32.7c-0.8,5.4-1.5,11.3-3.8,16.3c-0.1,0.3,0.4,1,0-0.5
							c-0.6-2.2-1.4-4.3-1.9-6.5c-1.9-8.7-2.9-17.6-3.9-26.4c-7.1-64-9.5-128.7-12.5-193.1c-1.4-30.1-2.6-60.2-3.7-90.3
							c-0.4-9.7-0.7-19.4-1-29.2c-0.2-5.9-1.7-11.9,2.7-16.5c5.2-5.4,13.9-9.5,16.4-17c0.7-2.1-2.6-3-3.3-0.9
							c-3.7,11.1-19.8,13-19.4,26.2c0.2,7.3,0.5,14.7,0.7,22c1,28.7,2.2,57.4,3.4,86c3,68.4,5.7,137.1,12.6,205.3
							c1,10.1,2.1,20.2,3.9,30.2c0.6,3.4,1.1,11.2,4.3,13.6c7.3,5.3,9.7-24,10-26.9c8.3-64.8,10.3-130.7,13.3-195.8
							c1.5-31.8,2.8-63.6,4-95.5c0.4-10.1,0.7-20.3,1.1-30.4c0.1-4.4,1.4-10.7-0.3-14.9c-3.6-8.7-15.1-11.9-19.1-20.5
							C258.9,313.1,256,314.9,256.9,316.8L256.9,316.8z"/>
					</g>
				</g>
				<g>
					<g>
						<path d="M228.1,338.9c5.8-1.1,20.3-1.2,22.7,5.8c0.7,2,4,1.2,3.3-0.9c-3.2-9.2-19-9.6-26.9-8.1
							C225.1,336,226,339.3,228.1,338.9L228.1,338.9z"/>
					</g>
				</g>
				<g>
					<g>
						<path d="M277,335.6c-7.8-1.5-23.1-1-26.2,8.1c-0.7,2.1,2.6,3,3.3,0.9c2.3-6.9,16.2-6.8,22-5.8
							C278.2,339.3,279.1,336,277,335.6L277,335.6z"/>
					</g>
				</g>
				<g>
					<g>
						<path d="M246.3,317.3c3.9,1.7,8.8,2.5,12.6,0c1.8-1.2,0.1-4.1-1.7-2.9c-1.9,1.2-4,1.3-6.2,0.9c-0.7-0.1-1.4-0.3-2.1-0.6
							c-0.2-0.1-1.2-0.5-0.9-0.3C246,313.5,244.3,316.4,246.3,317.3L246.3,317.3z"/>
					</g>
				</g>
				<g>
					<g>
						<path d="M235.2,330c11.3,2.2,23.9,3.3,35,0c2.1-0.6,1.2-3.9-0.9-3.3c-10.5,3.1-22.6,2.1-33.2,0
							C234,326.3,233.1,329.6,235.2,330L235.2,330z"/>
					</g>
				</g>
				<g>
					<g>
						<path d="M250.8,342.6c0,40,0,80.1,0,120.1c0,63.8,0,127.6,0,191.5c0,14.6,0,29.3,0,43.9c0,2.2,3.4,2.2,3.4,0
							c0-40,0-80.1,0-120.1c0-63.8,0-127.6,0-191.5c0-14.6,0-29.3,0-43.9C254.2,340.4,250.8,340.4,250.8,342.6L250.8,342.6z"/>
					</g>
				</g>
			</g>
			<g>
				<path d="M256.4,289.9c-2.2-2.2-2.1-14.6-3.7-14.6c-1.6,0-1,11.9-3.7,14.6c-2.7,2.7-11.1,1.5-11.1,3.2s8.6,0.7,11.1,3.2
					c2.6,2.6,2.1,14.6,3.7,14.6c1.6,0,0.3-12.2,2.7-14.6c2.4-2.4,12.1-1.8,12.1-3.2S258.6,292.1,256.4,289.9z"/>
			</g>
			<g>
				<g>
					<path d="M241.1,305.2c-0.1,2.3,0.8,4.3,1.6,6.3c0.7,1.8,1.4,3.6,2.6,5.2c1.4,1.7,3.8-0.7,2.4-2.4c-1-1.2-1.4-2.8-1.9-4.2
						c-0.6-1.6-1.3-3.2-1.3-4.9C244.6,303,241.2,303,241.1,305.2L241.1,305.2z"/>
				</g>
			</g>
			<g>
				<g>
					<path d="M260.9,305.2c0.1,1.8-0.6,3.3-1.3,4.9c-0.6,1.4-1,3-1.9,4.2c-1.4,1.7,1,4.1,2.4,2.4c1.3-1.5,1.9-3.3,2.6-5.2
						c0.8-2.1,1.7-4.1,1.6-6.3C264.2,303,260.8,303,260.9,305.2L260.9,305.2z"/>
				</g>
			</g>
			<g>
				<g>
					<path d="M200.2,286.4c8.5,9,22.7,12.6,30.3,0.5c1.2-1.8-1.8-3.6-2.9-1.7c-6.4,10.3-18.1,6.1-25-1.2
						C201.1,282.4,198.7,284.8,200.2,286.4L200.2,286.4z"/>
				</g>
			</g>
			<g>
				<g>
					<path d="M159.3,288.6c9.7,6.6,37.3-0.9,39.9,13.2c0.4,2.1,3.7,1.2,3.3-0.9c-3.2-17.3-31-8.1-41.5-15.3
						C159.2,284.5,157.5,287.4,159.3,288.6L159.3,288.6z"/>
				</g>
			</g>
			<g>
				<g>
					<path d="M176.5,292.2c1.1,1.1,3.8,4.6,2.1,6c-1.6,1.4,0.8,3.8,2.4,2.4c3.4-2.9,0.4-8.3-2.1-10.8
						C177.4,288.3,175,290.6,176.5,292.2L176.5,292.2z"/>
				</g>
			</g>
			<g>
				<g>
					<path d="M248.4,219.8c-0.6-4.5-1.3-8.4-3.6-12.3c-1.1-1.9-3.3-2.4-1.7-5.9c0.7-1.4,2.9-2.5,4.3-2.9c2.6-0.8,5.9-0.9,8.6-0.4
						c3.2,0.6,6.4,2.9,5.4,6.6c-0.6,2.1-2.6,3.5-3.4,5.4c-1.2,2.8-1.1,6.6-1.4,9.6c-0.2,2.2,3.2,2.2,3.4,0c0.2-2.9,0.1-6.7,1.7-9.1
						c1.3-2.2,3.1-3.7,3.3-6.5c0.5-5.8-4.6-8.9-9.7-9.5c-5.4-0.6-12.5,0.3-15.3,5.6c-1.3,2.4-0.9,4.6,0.5,6.8c1.2,2,2.7,3.5,3.5,5.8
						c0.7,2.2,0.9,4.5,1.2,6.7C245.3,221.9,248.6,221.9,248.4,219.8L248.4,219.8z"/>
				</g>
			</g>
			<g>
				<path d="M253.6,204.9c-0.1-0.6-1.4-4.7-1.4-4.7s-1.3,4.1-1.4,4.7c-0.4,0.3-3.2,1.5-3.2,1.5l3.2,1.5l1.5,4.5l0.5-4.5l4.1-1.5
					C256.8,206.4,254,205.2,253.6,204.9z"/>
			</g>
			<g>
				<path d="M166,303.4c0.3-5.4-6-5.7-9.8-5.4c-5.9,0.5-9.8,2.9-13.4,7.2c0.4,1.2,1.3,2.3,2.5,2.5c1.3,0.2,2.6,0,3.8-0.3
					C154.7,306.3,160.6,305,166,303.4z"/>
			</g>
			<g>
				<g>
					<path d="M262.2,306c19.4,3.7,39.4-2.2,58.8-4.1c8-0.8,14.2,1.3,21.7,3.8c5.2,1.7,11.5,4.3,17,3.4c12.7-2-0.1-15.3-4.7-18.7
						c-13.7-10.3-30.1-8.5-46.2-7.4c-8.3,0.6-16.6,0.8-24.9,0.6c-6.7-0.1-14.6,0.2-21-2.4c-2-0.8-2.9,2.4-0.9,3.3
						c11.5,4.7,27.4,2.8,39.4,2.3c19.1-0.8,39.4-5.3,54.9,9.1c2.9,2.7,8.8,8.5,1.7,9.9c-3.3,0.6-8-1.4-11.1-2.3
						c-6.2-1.9-12.6-4.9-19.1-5.4c-10.2-0.7-21.5,2-31.7,3.4c-11.4,1.5-21.7,3.4-33.2,1.2C261,302.3,260.1,305.6,262.2,306
						L262.2,306z"/>
				</g>
			</g>
			<g>
				<g>
					<path d="M302.8,284c-6.8,7.2-18.5,11.5-25,1.2c-1.2-1.8-4.1-0.1-2.9,1.7c7.6,12,21.8,8.5,30.3-0.5
						C306.7,284.8,304.3,282.4,302.8,284L302.8,284z"/>
				</g>
			</g>
			<g>
				<g>
					<path d="M344.4,285.7c-10.5,7.2-38.3-2-41.5,15.3c-0.4,2.1,2.9,3,3.3,0.9c2.6-14.2,30.2-6.6,39.9-13.2
						C347.9,287.4,346.3,284.5,344.4,285.7L344.4,285.7z"/>
				</g>
			</g>
			<g>
				<g>
					<path d="M326.5,289.8c-2.5,2.4-5.5,7.9-2.1,10.8c1.6,1.4,4-1,2.4-2.4c-1.7-1.4,1-4.9,2.1-6C330.4,290.6,328,288.3,326.5,289.8
						L326.5,289.8z"/>
				</g>
			</g>
			<g>
				<path d="M339.4,303.4c-0.3-5.4,6-5.7,9.8-5.4c5.9,0.5,9.8,2.9,13.4,7.2c-0.4,1.2-1.3,2.3-2.5,2.5c-1.3,0.2-2.6,0-3.8-0.3
					C350.7,306.3,344.8,305,339.4,303.4z"/>
			</g>
		</g>
		<g>
			<path d="M353.1,435.8c-1.7,0-3-1.3-3-3v-0.8c0-1.7,1.3-3,3-3s3,1.3,3,3v0.8C356.1,434.5,354.7,435.8,353.1,435.8z M353.1,421.6
				c-1.7,0-3-1.3-3-3v-0.8c0-1.7,1.3-3,3-3s3,1.3,3,3v0.8C356.1,420.2,354.7,421.6,353.1,421.6z M353.1,407.3c-1.7,0-3-1.3-3-3v-0.8
				c0-1.7,1.3-3,3-3s3,1.3,3,3v0.8C356.1,405.9,354.7,407.3,353.1,407.3z M353.1,393c-1.7,0-3-1.3-3-3v-0.8c0-1.7,1.3-3,3-3
				s3,1.3,3,3v0.8C356.1,391.6,354.7,393,353.1,393z M353.1,378.7c-1.7,0-3-1.3-3-3v-0.8c0-1.7,1.3-3,3-3s3,1.3,3,3v0.8
				C356.1,377.3,354.7,378.7,353.1,378.7z M353.1,364.4c-1.7,0-3-1.3-3-3v-0.8c0-1.7,1.3-3,3-3s3,1.3,3,3v0.8
				C356.1,363.1,354.7,364.4,353.1,364.4z M353.1,350.1c-1.7,0-3-1.3-3-3v-0.8c0-1.7,1.3-3,3-3s3,1.3,3,3v0.8
				C356.1,348.8,354.7,350.1,353.1,350.1z M353.1,335.8c-1.7,0-3-1.3-3-3v-0.8c0-1.7,1.3-3,3-3s3,1.3,3,3v0.8
				C356.1,334.5,354.7,335.8,353.1,335.8z M353.1,321.5c-1.7,0-3-1.3-3-3v-0.8c0-1.7,1.3-3,3-3s3,1.3,3,3v0.8
				C356.1,320.2,354.7,321.5,353.1,321.5z"/>
		</g>
		<g>
			<path d="M151.8,493c-1.7,0-3-1.3-3-3v-0.8c0-1.7,1.3-3,3-3s3,1.3,3,3v0.8C154.8,491.7,153.5,493,151.8,493z M151.8,478.7
				c-1.7,0-3-1.3-3-3V475c0-1.7,1.3-3,3-3s3,1.3,3,3v0.8C154.8,477.4,153.5,478.7,151.8,478.7z M151.8,464.4c-1.7,0-3-1.3-3-3v-0.8
				c0-1.7,1.3-3,3-3s3,1.3,3,3v0.8C154.8,463.1,153.5,464.4,151.8,464.4z M151.8,450.1c-1.7,0-3-1.3-3-3v-0.8c0-1.7,1.3-3,3-3
				s3,1.3,3,3v0.8C154.8,448.8,153.5,450.1,151.8,450.1z M151.8,435.8c-1.7,0-3-1.3-3-3v-0.8c0-1.7,1.3-3,3-3s3,1.3,3,3v0.8
				C154.8,434.5,153.5,435.8,151.8,435.8z M151.8,421.6c-1.7,0-3-1.3-3-3v-0.8c0-1.7,1.3-3,3-3s3,1.3,3,3v0.8
				C154.8,420.2,153.5,421.6,151.8,421.6z M151.8,407.3c-1.7,0-3-1.3-3-3v-0.8c0-1.7,1.3-3,3-3s3,1.3,3,3v0.8
				C154.8,405.9,153.5,407.3,151.8,407.3z M151.8,393c-1.7,0-3-1.3-3-3v-0.8c0-1.7,1.3-3,3-3s3,1.3,3,3v0.8
				C154.8,391.6,153.5,393,151.8,393z M151.8,378.7c-1.7,0-3-1.3-3-3v-0.8c0-1.7,1.3-3,3-3s3,1.3,3,3v0.8
				C154.8,377.3,153.5,378.7,151.8,378.7z M151.8,364.4c-1.7,0-3-1.3-3-3v-0.8c0-1.7,1.3-3,3-3s3,1.3,3,3v0.8
				C154.8,363.1,153.5,364.4,151.8,364.4z M151.8,350.1c-1.7,0-3-1.3-3-3v-0.8c0-1.7,1.3-3,3-3s3,1.3,3,3v0.8
				C154.8,348.8,153.5,350.1,151.8,350.1z M151.8,335.8c-1.7,0-3-1.3-3-3v-0.8c0-1.7,1.3-3,3-3s3,1.3,3,3v0.8
				C154.8,334.5,153.5,335.8,151.8,335.8z M151.8,321.5c-1.7,0-3-1.3-3-3v-0.8c0-1.7,1.3-3,3-3s3,1.3,3,3v0.8
				C154.8,320.2,153.5,321.5,151.8,321.5z"/>
		</g>
		<g>
			<g>
				<path d="M339.4,313.3c0,0-0.1,0-0.1,0c-1.7-0.1-2.9-1.5-2.9-3.1l0-0.2c0-1.7,1.3-3,3-3c0,0,0,0,0,0c1.6,0,3,1.3,3,3
					c0,0.2,0,0.4,0,0.5C342.3,312.1,341,313.3,339.4,313.3z"/>
			</g>
			<g>
				<path d="M301.9,369.1c-0.1,0-0.2,0-0.3,0c-0.3,0-0.6-0.1-0.9-0.1c-1.6-0.3-2.8-1.8-2.5-3.4c0.3-1.6,1.8-2.8,3.4-2.5
					c0.2,0,0.4,0.1,0.6,0.1c1.7,0.2,2.9,1.6,2.7,3.3C304.8,368,303.5,369.1,301.9,369.1z M314.2,364.2c-0.8,0-1.7-0.3-2.3-1
					c-1.1-1.3-1-3.2,0.3-4.2l0.5-0.5c1.2-1.1,3.1-1,4.3,0.2c1.1,1.2,1,3.1-0.2,4.3c-0.2,0.2-0.4,0.4-0.6,0.5
					C315.6,363.9,314.9,364.2,314.2,364.2z M290.3,361.5c-0.9,0-1.8-0.4-2.4-1.2l-0.4-0.6c-1-1.3-0.8-3.2,0.6-4.2
					c1.3-1,3.2-0.8,4.2,0.5l0.4,0.6c1,1.3,0.8,3.2-0.5,4.2C291.6,361.3,290.9,361.5,290.3,361.5z M323.4,353.1
					c-0.6,0-1.1-0.2-1.6-0.5c-1.4-0.9-1.8-2.8-0.9-4.2l0.4-0.6c0.9-1.4,2.8-1.8,4.2-0.9c1.4,0.9,1.8,2.8,0.9,4.2l-0.4,0.6
					C325.3,352.6,324.4,353.1,323.4,353.1z M330.3,340.5c-0.4,0-0.9-0.1-1.3-0.3c-1.5-0.7-2.1-2.5-1.4-4l0.3-0.7
					c0.7-1.5,2.5-2.1,4-1.4c1.5,0.7,2.1,2.5,1.4,4l-0.3,0.7C332.5,339.9,331.5,340.5,330.3,340.5z M335.8,327.2
					c-0.3,0-0.7-0.1-1-0.2c-1.6-0.5-2.4-2.3-1.9-3.8l0.2-0.7c0.5-1.6,2.3-2.4,3.8-1.9c1.6,0.5,2.4,2.3,1.9,3.8l-0.2,0.7
					C338.2,326.4,337.1,327.2,335.8,327.2z"/>
			</g>
			<g>
				<path d="M283.1,349c-1.2,0-2.3-0.7-2.8-1.8l-0.1-0.3c-0.7-1.5,0-3.3,1.5-4c1.5-0.7,3.3,0,4,1.5l0.2,0.4c0.7,1.5,0,3.3-1.6,4
					C283.9,348.9,283.5,349,283.1,349z"/>
			</g>
		</g>
		<g>
			<g>
				<path d="M163.7,313.3c-1.6,0-2.9-1.3-3-2.9c0-0.2,0-0.4,0-0.5c0-1.6,1.4-3,3-3c0,0,0,0,0,0c1.7,0,3,1.4,3,3l0,0.2
					c0.1,1.7-1.2,3.1-2.9,3.1C163.8,313.3,163.8,313.3,163.7,313.3z"/>
			</g>
			<g>
				<path d="M203.1,369.1c-1.5,0-2.8-1.2-3-2.7c-0.2-1.7,1-3.1,2.7-3.3c0.2,0,0.4,0,0.6-0.1c1.6-0.3,3.2,0.9,3.4,2.5
					c0.3,1.6-0.9,3.2-2.5,3.4c-0.3,0.1-0.6,0.1-0.9,0.1C203.3,369.1,203.2,369.1,203.1,369.1z M190.5,364.4c-0.7,0-1.3-0.2-1.9-0.7
					c-0.2-0.2-0.4-0.4-0.6-0.5c-1.3-1.1-1.4-3-0.3-4.2c1.1-1.3,3-1.4,4.2-0.3l0.5,0.5c1.3,1.1,1.5,2.9,0.4,4.2
					C192.2,364,191.3,364.4,190.5,364.4z M215.2,361.5c-0.7,0-1.4-0.2-1.9-0.7c-1.3-1.1-1.5-3-0.4-4.2c0.1-0.2,0.3-0.4,0.4-0.5
					c1-1.3,2.9-1.5,4.2-0.5c1.3,1,1.5,2.9,0.5,4.2c-0.2,0.2-0.3,0.4-0.5,0.6C216.9,361.2,216,361.5,215.2,361.5z M180.8,353.5
					c-1,0-1.9-0.5-2.5-1.3l-0.4-0.6c-0.9-1.4-0.6-3.2,0.8-4.2c1.4-0.9,3.2-0.6,4.2,0.8l0.4,0.6c0.9,1.4,0.6,3.2-0.8,4.2
					C182,353.3,181.4,353.5,180.8,353.5z M173.4,340.8c-1.1,0-2.2-0.6-2.7-1.6l-0.4-0.7c-0.7-1.5-0.1-3.3,1.4-4
					c1.5-0.7,3.3-0.1,4,1.4l0.3,0.7c0.8,1.5,0.2,3.3-1.3,4C174.3,340.7,173.9,340.8,173.4,340.8z M167.6,327.4c-1.2,0-2.4-0.7-2.8-2
					l-0.3-0.8c-0.6-1.6,0.2-3.3,1.8-3.9c1.6-0.6,3.3,0.2,3.9,1.8l0.3,0.7c0.6,1.6-0.2,3.3-1.8,3.9
					C168.3,327.3,167.9,327.4,167.6,327.4z"/>
			</g>
			<g>
				<path d="M222.7,348.9c-0.4,0-0.8-0.1-1.2-0.3c-1.5-0.7-2.2-2.4-1.5-3.9c0,0,0-0.1,0-0.1l0.1-0.2c0.7-1.5,2.5-2.2,4-1.5
					c1.5,0.7,2.2,2.5,1.5,4l-0.1,0.3C225,348.3,223.8,348.9,222.7,348.9z"/>
			</g>
		</g>
		<g>
			<path d="M358.3,536.5c0-6.7-6.5-52.3-6.5-52.3s-6.5,45.6-6.5,52.3c0,6.7,2.9,8.8,6.5,8.8C355.4,545.3,358.3,543.2,358.3,536.5z"
				/>
		</g>
		<g>
			<path class="st0" d="M107.5,211.7c0,0,29.7,0.4,36.4-7c7.4-8.2,7-39.1,7-39.1s-0.4,30.9,7,39.1c6.7,7.5,36.4,7,36.4,7
				s-29.7-0.4-36.4,7c-7.4,8.2-7,39.1-7,39.1s0.4-30.9-7-39.1C137.2,211.3,107.5,211.7,107.5,211.7z"/>
		</g>
		<g>
			<path class="st0" d="M72.7,264c0,0,10.3,0.2,12.7-2.4c2.6-2.9,2.4-13.6,2.4-13.6s-0.1,10.7,2.4,13.6c2.3,2.6,12.7,2.4,12.7,2.4
				s-10.3-0.2-12.7,2.4c-2.6,2.9-2.4,13.6-2.4,13.6s0.1-10.7-2.4-13.6C83.1,263.9,72.7,264,72.7,264z"/>
		</g>
		<g>
			<path class="st0" d="M302.5,635.5c0,0,6.7,0.1,8.2-1.6c1.7-1.8,1.6-8.8,1.6-8.8s-0.1,6.9,1.6,8.8c1.5,1.7,8.2,1.6,8.2,1.6
				s-6.7-0.1-8.2,1.6c-1.7,1.8-1.6,8.8-1.6,8.8s0.1-6.9-1.6-8.8C309.2,635.4,302.5,635.5,302.5,635.5z"/>
		</g>
		<g>
			<path class="st0" d="M97.7,293.1c0,0,6.7,0.1,8.2-1.6c1.7-1.8,1.6-8.8,1.6-8.8s-0.1,6.9,1.6,8.8c1.5,1.7,8.2,1.6,8.2,1.6
				s-6.7-0.1-8.2,1.6c-1.7,1.8-1.6,8.8-1.6,8.8s0.1-6.9-1.6-8.8C104.4,293,97.7,293.1,97.7,293.1z"/>
		</g>
		<g>
			<path class="st0" d="M337.7,230.6c0,0,11.7,0.2,14.4-2.8c2.9-3.2,2.8-15.4,2.8-15.4s-0.2,12.2,2.8,15.4
				c2.7,2.9,14.4,2.8,14.4,2.8s-11.7-0.2-14.4,2.8c-2.9,3.2-2.8,15.4-2.8,15.4s0.2-12.2-2.8-15.4
				C349.4,230.5,337.7,230.6,337.7,230.6z"/>
		</g>
		<g>
			<path class="st0" d="M77.9,428.4c0,0,11.7,0.2,14.4-2.8c2.9-3.2,2.8-15.4,2.8-15.4s-0.2,12.2,2.8,15.4c2.7,2.9,14.4,2.8,14.4,2.8
				s-11.7-0.2-14.4,2.8c-2.9,3.2-2.8,15.4-2.8,15.4s0.2-12.2-2.8-15.4C89.6,428.2,77.9,428.4,77.9,428.4z"/>
		</g>
		<g>
			<path class="st0" d="M314.6,660.5c0,0,11.7,0.2,14.4-2.8c2.9-3.2,2.8-15.4,2.8-15.4s-0.2,12.2,2.8,15.4
				c2.7,2.9,14.4,2.8,14.4,2.8s-11.7-0.2-14.4,2.8c-2.9,3.2-2.8,15.4-2.8,15.4s0.2-12.2-2.8-15.4
				C326.4,660.3,314.6,660.5,314.6,660.5z"/>
		</g>
		<g>
			<path class="st0" d="M374,272.2c0,0,20.6,0.3,25.3-4.9c5.1-5.7,4.9-27.1,4.9-27.1s-0.3,21.4,4.9,27.1c4.7,5.2,25.3,4.9,25.3,4.9
				s-20.6-0.3-25.3,4.9c-5.1,5.7-4.9,27.1-4.9,27.1s0.3-21.4-4.9-27.1C394.7,271.9,374,272.2,374,272.2z"/>
		</g>
		<g>
			<g>
				<path d="M407.6,420c0-5.2-0.8-10.2-2.1-14.9c-6.4,22.9-27.4,39.7-52.4,39.8c-25,0.1-46-16.6-52.6-39.5c-1.3,4.7-2,9.7-2,14.9
					c0.1,30.1,24.6,54.5,54.7,54.4C383.3,474.6,407.7,450.1,407.6,420z"/>
			</g>
		</g>
		<g>
			<path class="st0" d="M201.2,581.9c-3.7-2.2-7.7-3.8-11.9-5.2l31.8-6l-35.3-6.4c3.5-3.2,7-6.2,10.6-8.2
				c9.5-6.8,19.7-6.9,29.2-19.2c-10.7,10.6-22.2,8.6-33.3,11.2c-4.1,0.6-8.1,1.7-12.1,3.2l30.6-39.7l-39.3,30.3
				c0.7-5.5,1.5-11,3.3-15.5c3-11.3,10.8-17.9,10.4-33.4c-1.5,15-11.6,20.8-18.6,29.8c-3.4,3.7-6.2,8.1-8.7,12.7l-6.3-34.1
				l-6.4,34.8c-3.4-4.2-6.7-8.4-8.7-12.7c-6.1-10-5.5-20.2-17-30.5c9.8,11.4,7,22.8,8.7,34c0.3,4.9,1.5,9.7,3,14.6l-24.5-15.6
				l14.7,23.4c-6,0.5-12,1-17.2,0.1c-11.7-0.7-19.7-6.9-34.8-3.2c15-1.6,22.7,7.1,33,12c4.6,2.7,9.7,4.6,15,6.1l-35.2,6.4l35.8,6.5
				c-3.5,3.3-7.1,6.3-10.8,8.4c-9.5,6.8-19.7,6.9-29.2,19.2c10.7-10.6,22.2-8.6,33.3-11.2c3.8-0.5,7.6-1.6,11.3-2.9l-15.9,24.8
				l24.8-15.8c-0.6,4.4-1.4,8.7-2.8,12.4c-3,11.3-10.8,17.9-10.4,33.4c1.5-15,11.6-20.8,18.6-29.8c3.2-3.4,5.8-7.4,8.1-11.7
				l6.5,36.1l6.5-36c2.9,3.6,5.5,7.2,7.2,10.9c6.1,10,5.5,20.2,17,30.5c-9.8-11.4-7-22.8-8.7-34c-0.3-4-1.1-8-2.2-12l25.1,16
				l-15.7-24.7c6.5-0.6,13-1.1,18.5-0.3c11.7,0.7,19.7,6.9,34.8,3.2C219.2,595.5,211.4,586.8,201.2,581.9z M155.4,572.7l19.7,21.5
				l-21.5-19.4l-2,32.7l-2-32.7l-21.5,19.4l19.4-21.5l-28.5-2l28.5-2l-19.4-21.5l21.5,19.4l2-32.7l2,32.7l21.5-19.4l-19.4,21.5
				l28.5,2L155.4,572.7z"/>
		</g>
	</g>
</g>
</svg>
