<?xml version="1.0" encoding="utf-8"?>
<!-- Generator: Adobe Illustrator 21.1.0, SVG Export Plug-In . SVG Version: 6.00 Build 0)  -->
<svg version="1.1" id="Слой_1" xmlns="http://www.w3.org/2000/svg" xmlns:xlink="http://www.w3.org/1999/xlink" x="0px" y="0px"
	 viewBox="0 0 525.6 864" style="enable-background:new 0 0 525.6 864;" xml:space="preserve">
<style type="text/css">
	.st0{fill:#040404;}
	.st1{fill:#FFFFFF;}
</style>
<g>
	<path d="M75.3,77.3c6.3-7.1,6.2-17.8,0.1-24.8c0.8,6.8-1.3,13.8-6.1,19.3C64.4,77.2,57.7,80,51,79.9C58.5,85.4,68.9,84.4,75.3,77.3
		z"/>
	<path d="M456.3,71.8c-4.9-5.4-6.9-12.5-6.1-19.3c-6.1,7-6.2,17.7,0.1,24.8c6.3,7.1,16.8,8.1,24.2,2.6
		C467.8,80,461.1,77.2,456.3,71.8z"/>
	<path d="M51,783.9c6.7-0.1,13.4,2.6,18.3,8.1c4.9,5.4,6.9,12.5,6.1,19.3c6.1-7,6.2-17.7-0.1-24.8C68.9,779.4,58.5,778.4,51,783.9z"
		/>
	<path d="M450.3,786.5c-6.3,7.1-6.2,17.8-0.1,24.8c-0.8-6.8,1.3-13.8,6.1-19.3c4.9-5.4,11.6-8.2,18.3-8.1
		C467.1,778.4,456.6,779.4,450.3,786.5z"/>
	<path d="M498.8,44.1c-1.5-16.8-17.5-15.2-29.6-15.2c-43,0-86,0-129,0c-59.2,0-118.4,0-177.6,0c-38.1,0-76.1,0-114.2,0
		c-2.5,0-5-0.2-7.5,0.2c-8.9,1.1-14,8.6-14.3,17.1c-0.2,6.8,0,13.6,0,20.4c0,35.1,0,70.2,0,105.3c0,53.5,0,106.9,0,160.4
		c0,60.3,0,120.6,0,180.8c0,54.7,0,109.4,0,164.1c0,37.6,0,75.2,0,112.8c0,8.5,0,17,0,25.6c0,11,6.3,19.2,18,19.4
		c33.7,0.6,67.4,0,101.1,0c58.5,0,117,0,175.5,0c46.6,0,93.3,0,139.9,0c7.1,0,14.3,0,21.4,0c0.4,0,0.8-0.1,1.1-0.1
		c13.5-1.7,15.1-12.9,15.1-23.9c0-10.7,0-21.4,0-32.1c0-40.7,0-81.4,0-122.2c0-56.2,0-112.3,0-168.5c0-59.8,0-119.7,0-179.5
		c0-51.8,0-103.7,0-155.5c0-31.6,0-63.1,0-94.7C498.9,53.6,499.2,48.8,498.8,44.1z M482.7,826.5c-26.5,0-53.1,0-79.6,0
		c-56.1,0-112.3,0-168.4,0c-50.6,0-101.2,0-151.8,0c-12.2,0-24.5,0-36.7,0c-5.3,0-10.3-1.2-11-7.8c-0.1-1.4,0-2.9,0-4.2
		c0-24.8,0-49.7,0-74.5c0-46.8,0-93.7,0-140.5c0-57.9,0-115.8,0-173.8c0-57.5,0-115,0-172.6c0-45.8,0-91.6,0-137.4
		c0-22.7-0.7-45.5,0-68.2c0.2-5,1.5-9.4,7.8-10.1c2-0.2,4.2,0,6.2,0c13.9,0,27.8,0,41.7,0c52.2,0,104.3,0,156.5,0
		c55.2,0,110.4,0,165.6,0c17.8,0,35.5,0,53.3,0c7.6,0,23.2-2.9,24.3,7.8c0.5,4.9,0,10.1,0,15.1c0,12.7,0,25.4,0,38
		c0,42.7,0,85.4,0,128.1c0,56.3,0,112.7,0,169c0,58.7,0,117.3,0,176c0,49.5,0,99,0,148.4c0,29.4,0,58.8,0,88.2
		C490.4,814.7,492.3,825.7,482.7,826.5z"/>
	<path d="M457.8,768.4c1.1,0.1,2.2-0.6,2.2-2c0-22.2,0-44.4,0-66.6c0-52.9,0-105.7,0-158.6c0-64.4,0-128.8,0-193.1
		c0-55.3,0-110.6,0-165.8c0-18.4,0-36.7,0-55.1c0-8.4,1.3-17.8,0-26.1c-0.1-0.4,0-0.8,0-1.1c0-0.7-0.3-1.2-0.7-1.6
		c0.1-1.1-0.6-2.4-2-2.4c-12.3-0.5-23.7-12.9-24.2-25c0-0.4-0.1-0.8-0.3-1.1c-0.3-0.6-0.9-1-1.8-1c-37.9,0-75.8,0-113.8,0
		c-60.5,0-121,0-181.4,0c-13.9,0-27.8,0-41.8,0c-0.9,0-1.5,0.4-1.8,1c-0.2,0.3-0.3,0.7-0.3,1.1c-0.5,12.1-11.8,24.5-24.2,25
		c-1.7,0.1-2.4,1.8-1.9,3c-0.1,0.3-0.2,0.6-0.2,1c0,22.2,0,44.4,0,66.6c0,52.9,0,105.7,0,158.6c0,64.4,0,128.8,0,193.1
		c0,55.3,0,110.6,0,165.8c0,18.4,0,36.7,0,55.1c0,8.4-1.3,17.8,0,26.1c0.1,0.4,0,0.8,0,1.1c0,0.9,0.4,1.5,1,1.8
		c0.3,0.2,0.6,0.3,1.1,0.3c12.2,0.5,23.7,12.4,24.2,24.6c0,0.4,0.1,0.8,0.3,1.1c0.3,0.6,0.9,1,1.8,1c37.9,0,75.8,0,113.8,0
		c60.5,0,121,0,181.4,0c13.9,0,27.8,0,41.8,0c0.9,0,1.5-0.4,1.8-1c0.2-0.3,0.3-0.7,0.3-1.1c0.5-12.1,11.9-24.1,24.2-24.6
		C457.4,768.5,457.6,768.4,457.8,768.4z M429,790.9c-37.3,0-74.6,0-111.8,0c-60.5,0-121,0-181.4,0c-13.3,0-26.6,0-39.9,0
		c-1.6-13-13.1-24.8-26.1-26.5c0-21.6,0-43.2,0-64.7c0-52.9,0-105.7,0-158.6c0-64.4,0-128.8,0-193.1c0-55.3,0-110.6,0-165.8
		c0-18.4,0-36.7,0-55.1c0-8.4,1.3-17.8,0-26.1c-0.1-0.4,0-0.7,0-1.1c13.1-1.7,24.5-13.9,26.1-26.9c37.3,0,74.6,0,111.8,0
		c60.5,0,121,0,181.4,0c13.3,0,26.6,0,39.8,0c1.6,13.2,13.4,25.6,26.7,27c0,22.2,0,44.4,0,66.6c0,52.9,0,105.7,0,158.6
		c0,64.4,0,128.8,0,193.1c0,55.3,0,110.6,0,165.8c0,18.4,0,36.7,0,55.1c0,8.1-1.2,17.2-0.1,25.3C442.4,765.8,430.7,777.8,429,790.9z
		"/>
	<path d="M215.3,760.1c-0.1-0.1-0.2-0.2-0.3-0.3c0-0.2-0.3-0.3-0.6-0.3c-0.3,0-0.5,0.1-0.6,0.2c-0.1,0.1-0.2,0.2-0.3,0.2
		c-0.1,0-0.2-0.1-0.3-0.2c-0.1-0.1-0.2-0.2-0.6-0.2c-0.2,0-0.3,0-0.3,0.1c0,0.1-0.1,0.1-0.3,0.1c-0.2,0-0.4,0.1-0.6,0.2
		c-0.2,0.1-0.3,0.2-0.4,0.1c0,0,0,0-0.1,0.1c0,0.1-0.1,0.2-0.2,0.2c-0.1,0-0.2,0.1-0.2,0.3c0,0.2,0,0.3,0.1,0.4c0,0,0.3,0.1,0.8,0.1
		s0.7,0.1,0.8,0.2c0,0.1,0,0.3,0,0.6c-0.1,0.3-0.2,0.5-0.3,0.5c-0.1,0-0.2,0-0.2,0.1c-0.1,0-0.1,0.1,0,0.1c0,0.1,0.1,0.1,0.2,0.1
		c0.1,0,0.2,0.3,0.2,0.7c0,0.5,0,1.7,0,3.7c0,2.2,0,3.5-0.1,4c0,0.5-0.2,0.7-0.4,0.7c-0.1,0-0.2,0.1-0.2,0.3c0,0.2-0.1,0.3-0.2,0.3
		s-0.2,0-0.2-0.1c0-0.1-0.2-0.2-0.6-0.4c-0.3-0.1-0.5-0.2-0.6-0.2c-0.1,0-0.2,0-0.2,0.1c-0.1,0.1-0.2,0.1-0.4,0.1
		c-0.2,0-0.3,0.1-0.4,0.4c-0.1,0.2-0.1,0.4-0.2,0.5c-0.1,0.1-0.1,0.1-0.1,0.2c0,0.2,0.1,0.4,0.4,0.7c0.3,0.3,0.4,0.4,0.6,0.4
		c0,0,0.1,0,0.1,0c0.1-0.1,0.3-0.1,0.8-0.1c0.4,0,0.7-0.1,0.8-0.2c0.1-0.1,0.3-0.2,0.4-0.2c0.2,0,0.3,0,0.3-0.1
		c0-0.1,0.1-0.1,0.3-0.1c0.2,0,0.3-0.1,0.3-0.2c0-0.1,0.1-0.3,0.4-0.6c0.2-0.3,0.3-0.5,0.3-0.7c0-0.1,0.1-0.3,0.3-0.4
		c0.2-0.1,0.3-0.6,0.3-1.5v-0.6c0-0.5,0.1-0.8,0.2-0.8c0.1,0,0.1-0.1,0.1-0.3c0,0,0,0,0-0.1c0,0,0-0.1,0-0.1c0-0.1,0-0.3,0.1-0.6
		c0-0.3,0.1-0.5,0.1-0.7c0-0.2,0-0.3-0.1-0.3c-0.1-0.2-0.1-0.3,0-0.4c0.1-0.1,0.1-0.2,0-0.3c-0.1-0.2-0.1-0.3-0.1-0.3
		c0.1-0.1,0.1-0.5,0.2-1.1c0-0.6,0.1-1,0.1-1c0.1,0,0.1-0.1,0.1-0.3c0-0.2-0.1-0.3-0.1-0.3c-0.1-0.1-0.1-0.2,0-0.4
		c0.1-0.2,0.2-0.3,0.2-0.4c0-0.1-0.1-0.2-0.2-0.3c-0.1-0.1-0.2-0.2-0.2-0.3c0-0.2,0.1-0.3,0.3-0.3c0.2,0,0.4-0.1,0.7-0.3
		c0.3-0.2,0.4-0.4,0.4-0.5C215.5,760.3,215.4,760.2,215.3,760.1z"/>
	<path d="M232.4,761h-0.2c-0.4,0-0.7-0.1-0.9-0.3c-0.2-0.1-0.3-0.2-0.3-0.2c0,0-0.1,0.1-0.1,0.2c0,0.1,0,0.2-0.1,0.2
		c-0.1,0-0.3,0-0.7,0.1c-0.6,0-0.9,0-1,0.1c-0.1,0.1-0.1,0.3-0.1,0.7l0,0.6l0.7,0l0.8,0v2.1c0,1.4,0,2.2,0.1,2.2
		c0.1,0,0.1,0.1-0.1,0.3c-0.1,0.2-0.2,0.3-0.2,0.5v0.2c0,0.3,0,0.5-0.1,0.8c-0.1,0.3-0.2,0.4-0.3,0.5c-0.1,0.1-0.2,0.1-0.2,0.3
		c0,0.1-0.1,0.3-0.3,0.4c-0.2,0.1-0.4,0.2-0.5,0.2c-0.2,0-0.4,0.1-0.5,0.2c-0.1,0.1-0.2,0.2-0.4,0.2c-0.1,0-0.2,0-0.4,0
		c-0.5-0.1-0.7-0.1-0.7-0.2c0-0.1-0.1-0.1-0.3-0.1c-0.2,0-0.4-0.1-0.7-0.2c-0.2-0.1-0.3-0.2-0.4-0.3c-0.1-0.1-0.1-0.2-0.1-0.4v-0.3
		v-0.3c0-0.4,0-0.6-0.1-0.6c-0.1,0-0.1-0.1-0.1-0.3c0-0.2,0.1-0.3,0.2-0.3c0.1-0.1,0.1-0.1,0-0.2c-0.1,0-0.1-0.1-0.1-0.2
		c0-0.1,0-0.2,0-0.3c0-0.1,0.1-0.1,0.1-0.1c0.1,0,0.1-0.3,0.1-0.9c0-0.9-0.1-1.3-0.2-1.4c-0.1-0.1-0.1-0.2,0-0.3
		c0.1-0.1,0.2-0.4,0.2-0.8c0-0.1,0-0.2,0-0.3c0-0.1-0.1-0.2-0.1-0.3c0-0.1,0-0.1,0-0.1c0-0.1,0.4-0.1,1.3-0.1c0.1,0,0.1,0,0.2,0
		c0.1,0,0.1,0,0.2,0h0c0,0,0.1,0,0.1-0.2c0-0.1,0-0.3-0.1-0.6c0-0.2-0.1-0.4-0.3-0.4c-0.2-0.1-0.5-0.1-1-0.1c-0.1,0-0.6,0-1.4,0
		c-1.3,0.1-2,0.2-2.2,0.4c-0.2,0.2-0.2,0.3-0.2,0.5c0,0.4,0.3,0.6,1,0.7c0.5,0,0.7,0.2,0.7,0.4c0,0.1-0.1,0.2-0.2,0.3
		c-0.2,0.1-0.2,0.3-0.1,0.7c0.1,0.3,0.1,0.5,0,0.6c-0.1,0.1-0.2,0.1-0.3,0.1c-0.1,0-0.1,0-0.1,0.1c0,0.2,0.1,0.3,0.4,0.4
		c0.2,0.1,0.3,0.2,0.3,0.4c0,0.1-0.1,0.2-0.2,0.3c-0.1,0.1-0.2,0.4-0.2,0.9v0.4c0,0.8,0.1,1.2,0.2,1.2c0.1,0.1,0.1,0.2,0.1,0.4
		c0,0.2,0,0.3-0.1,0.3c-0.1,0-0.1,0.1-0.2,0.3c-0.1,0.2,0,0.4,0.2,0.5c0.1,0.1,0.3,0.3,0.4,0.6c0.1,0.3,0.2,0.5,0.3,0.5
		s0.1,0.1,0.2,0.3c0.1,0.2,0.2,0.4,0.4,0.4c0.2,0,0.4,0,0.5,0.1c0.1,0.1,0.9,0.2,2.4,0.2c1.2,0,1.8-0.1,1.8-0.2
		c0-0.1,0.1-0.2,0.2-0.2c0.1,0,0.2-0.1,0.3-0.2c0.1-0.1,0.2-0.2,0.3-0.2c0.2,0,0.3-0.1,0.3-0.3c0-0.1,0.1-0.2,0.1-0.3
		c0.1,0,0.2,0,0.5,0h0.1c0.3,0,0.5,0,0.5-0.1c0-0.1-0.1-0.1-0.2-0.2c-0.1-0.1-0.2-0.1-0.2-0.3c0-0.2,0.1-0.4,0.2-0.6
		c0.2-0.2,0.2-0.4,0.1-0.4c-0.1,0-0.2-0.1-0.2-0.2s0-0.2,0.1-0.2c0.1,0,0.1-0.2,0.2-0.4c0-0.2,0.1-0.5,0.1-0.9c0-0.4,0-0.6,0-0.6
		c0-0.1,0-0.5,0.1-1c0-0.6,0-1.1,0.1-1.6c0-0.5,0.1-0.7,0.2-0.8c0.1-0.1,0.1-0.2,0-0.2c-0.1-0.1-0.2-0.1-0.2-0.2
		c0-0.1,0.1-0.3,0.3-0.4c0.2-0.1,0.3-0.2,0.5-0.2c0.1,0,0.1,0,0.2,0c0,0,0.1,0,0.2,0c0.3,0,0.4-0.1,0.4-0.3c0-0.1,0-0.1-0.1-0.2
		c-0.1-0.1-0.1-0.2,0-0.2c0.1,0,0.1-0.1,0.1-0.2C233.5,761.1,233.1,761,232.4,761z"/>
	<path d="M248,767.1c0-0.5-0.1-0.9-0.2-1c-0.1-0.2-0.3-0.3-0.6-0.5c-0.3-0.1-0.4-0.3-0.5-0.4c-0.1-0.1-0.3-0.3-0.8-0.5
		c-0.5-0.3-0.9-0.4-1.2-0.5c-0.2-0.1-0.5-0.2-0.9-0.5c-0.4-0.2-0.5-0.4-0.6-0.5c0-0.1-0.1-0.2-0.2-0.3c-0.1-0.1-0.2-0.2-0.2-0.3
		c0,0,0-0.1,0-0.1c0.1-0.1,0.1-0.2,0.1-0.3c0-0.1,0-0.3-0.1-0.5c0-0.1,0-0.1,0-0.2c0,0,0.1-0.1,0.3-0.1c0.3,0,0.4-0.1,0.4-0.2
		c0-0.1,0.1-0.2,0.4-0.3c0.3-0.2,0.4-0.2,0.4-0.3c0-0.1,0.1-0.1,0.4-0.2c0.1,0,0.1,0,0.2,0c0.4,0,0.7,0.1,1.2,0.4s0.6,0.6,0.6,0.8
		c0,0.2,0.1,0.4,0.3,0.5c0.2,0.1,0.3,0.3,0.3,0.4s0.1,0.3,0.2,0.5c0.1,0.2,0.3,0.3,0.3,0.3c0,0,0,0,0.1,0c0.1-0.1,0.1-0.7,0.2-1.9
		v-0.8c0-0.6-0.1-0.9-0.2-0.9c-0.1,0-0.1,0-0.1,0c-0.3,0.1-0.6,0.2-0.8,0.2c-0.3,0-0.6-0.1-0.9-0.3c-0.3-0.2-0.6-0.3-0.7-0.3
		c0,0-0.1,0-0.2,0c-0.3,0.1-0.5,0.1-0.7,0.1c-0.3,0-0.4,0-0.5,0.1c0,0.1-0.1,0.2-0.3,0.2c-0.2,0-0.4-0.1-0.5-0.2
		c-0.1-0.1-0.3-0.2-0.4-0.2h0c-0.1,0-0.1,0-0.1,0c-0.1,0-0.1,0-0.1,0c0,0,0.1,0,0.1,0c0.1,0.1,0.2,0.1,0.2,0.2
		c0,0.2-0.2,0.3-0.5,0.4c-0.3,0.1-0.4,0.2-0.4,0.4c0.1,0.2,0,0.3-0.2,0.4c-0.3,0.1-0.6,0.4-1,1c-0.1,0.2-0.2,0.4-0.2,0.5
		c0,0,0,0.3,0.1,0.7c0.1,0.6,0.3,1.1,0.4,1.2c0.1,0.2,0.3,0.4,0.7,0.7c0.3,0.3,0.6,0.4,0.7,0.4c0.1,0,0.3,0.1,0.6,0.4
		c0.3,0.3,0.9,0.5,1.6,0.7c0.4,0.1,0.8,0.3,1.1,0.6c0.2,0.2,0.3,0.4,0.4,0.6c0.1,0.3,0.2,0.5,0.2,0.6c0,0.1,0,0.1-0.1,0.2
		c-0.1,0-0.1,0.2-0.1,0.4c0.1,0.2,0,0.4-0.2,0.5c-0.1,0.1-0.2,0.2-0.2,0.4c0,0.2-0.4,0.3-1.3,0.4c-0.1,0-0.3,0-0.5,0
		c-0.9,0-1.6-0.4-2.1-1.1c-0.3-0.4-0.4-0.7-0.4-1c0,0,0-0.1,0-0.2c0-0.1,0-0.2,0-0.2c0,0-0.1-0.1-0.1-0.1c-0.1,0-0.1,0-0.1-0.1
		c0-0.3-0.1-0.4-0.4-0.6c-0.1,0-0.2-0.1-0.3-0.1c-0.3,0-0.4,0.2-0.4,0.5c-0.1,1.2-0.1,1.8-0.2,1.8c-0.1,0.1-0.1,0.3-0.2,0.8
		c0,0.1,0,0.3,0,0.4c0,0.2,0.1,0.4,0.3,0.6c0.1,0.1,0.2,0.2,0.3,0.2c0,0,0.1,0,0.2-0.2c0.1-0.2,0.2-0.3,0.2-0.4
		c0-0.2,0.2-0.3,0.5-0.1c0.8,0.4,1.7,0.6,2.7,0.6c0.5,0,1-0.1,1.5-0.2c0.6-0.1,1-0.3,1.3-0.6c0.3-0.3,0.4-0.5,0.4-0.5
		c0-0.1,0.1-0.2,0.2-0.3c0.2-0.1,0.3-0.4,0.3-0.8c0.1-0.5,0.1-0.7,0.2-0.7c0.1,0,0.1,0,0-0.1C248,768.1,248,767.7,248,767.1z
		 M243.8,765.7C243.8,765.7,243.8,765.6,243.8,765.7c-0.1-0.1-0.1-0.1,0-0.1C243.9,765.5,243.9,765.6,243.8,765.7
		C243.9,765.6,243.9,765.7,243.8,765.7z"/>
	<path d="M242.5,766.4c0-0.1,0-0.2-0.1-0.2c-0.1,0-0.1,0-0.1,0.1l0.1,0.2C242.4,766.6,242.5,766.6,242.5,766.4z"/>
	<path d="M265.6,763.1c0.1,0,0.2-0.2,0.2-0.5c0-0.2,0-0.3-0.1-0.3c-0.1,0-0.1-0.1-0.1-0.3c0-0.2,0.1-0.4,0.2-0.6
		c0.1-0.2,0.1-0.4-0.2-0.6c-0.2-0.2-0.5-0.3-0.8-0.3c-0.4,0-0.8,0.1-1,0.3c-0.3,0.2-0.4,0.3-0.5,0.2c-0.1-0.1-0.4-0.1-0.8,0
		c-0.5,0.1-1.3,0.2-2.5,0.2c-0.8,0-1.3,0-1.4-0.1c-0.1-0.1-0.2,0-0.4,0.2c-0.1,0.1-0.3,0.2-0.4,0.2c-0.2,0-0.4,0-0.7-0.1
		c-0.7-0.2-1.1-0.2-1.2-0.2c-0.1,0-0.2,0-0.2,0c-0.1,0-0.2,0.1-0.4,0.3s-0.2,0.3-0.2,0.5c0,0.1,0,0.1,0.1,0.2c0,0,0.1,0.2,0.1,0.5
		c0,0.1,0,0.2-0.1,0.2c-0.1,0-0.2,0.1-0.3,0.1c-0.3,0-0.5,0.1-0.5,0.3c0,0,0,0.1,0.1,0.2c0.1,0.1,0.1,0.3,0.1,0.6
		c0,0.2-0.1,0.4-0.1,0.5c0,0.5,0.2,0.7,0.5,0.7c0.3,0,0.4-0.1,0.4-0.2c0-0.1,0.1-0.2,0.2-0.2c0.1,0,0.1,0,0.2-0.1c0,0,0-0.1,0-0.2
		c0-0.1-0.1-0.1-0.2-0.2c-0.1-0.1-0.1-0.1-0.1-0.2c0,0,0-0.1,0-0.1s0-0.1,0.1-0.1c0,0,0.1,0,0.2-0.1c0.2-0.1,0.2-0.2,0.2-0.3
		c0,0,0-0.1,0-0.2c0-0.1,0-0.1,0-0.2c0-0.1,0-0.2,0.1-0.2c0.1-0.1,0.1-0.3,0-0.6c-0.1-0.3-0.1-0.4,0-0.4c0.1,0,0.1,0.1,0.1,0.2
		c0,0.1,0.2,0.2,0.5,0.3c0.3,0.1,0.7,0.2,1,0.2c0.4,0,0.6,0.1,0.8,0.3c0.2,0.2,0.3,0.2,0.5,0.2c0.1,0,0.1,0,0.1,0c0.1,0,0.1,0,0,0.1
		c-0.2,0.3-0.4,2.1-0.4,5.4c0,0.7-0.1,1.1-0.3,1.3c-0.2,0.1-0.3,0.3-0.3,0.4c0,0.1-0.2,0.2-0.7,0.2l-0.7,0.1l-0.1,0.5
		c0,0,0,0.1,0,0.1c0,0,0,0.1,0,0.1c0,0.2,0.1,0.4,0.4,0.7c0.3,0.3,0.5,0.4,0.7,0.4c0.1,0,0.1,0,0.1-0.1c0-0.1,0-0.1-0.1-0.1
		c-0.1,0-0.1,0-0.1-0.1c0-0.1,0.1-0.1,0.4-0.1c0.1,0,0.4,0,0.7,0c0.4,0,0.6,0,0.8,0c0.5,0,0.9-0.1,1-0.2c0.1-0.1,0.3-0.1,0.5-0.1
		c0.2,0.1,0.3,0,0.4-0.1c0.1-0.1,0.2-0.1,0.3-0.1c0.1,0,0.3-0.1,0.4-0.2c0.1-0.1,0.2-0.2,0.2-0.3c0-0.1-0.1-0.2-0.2-0.4
		c-0.2-0.3-0.3-0.4-0.4-0.4c-0.1,0-0.2-0.1-0.2-0.2c0-0.1-0.1-0.2-0.3-0.1c0,0-0.1,0-0.1,0c-0.1,0-0.1,0-0.1,0c-0.1,0-0.2,0-0.3-0.1
		c0-0.1-0.1-0.3-0.1-0.5V769c0-0.4,0-0.7,0-0.8c0-0.1,0.1-0.2,0.2-0.2c0.2,0,0.2-0.1,0.2-0.4c0-0.3,0-0.4-0.2-0.5
		c-0.1,0-0.2-0.3-0.2-1c0-0.7,0.1-1.1,0.2-1.3c0.1-0.1,0.1-0.5,0.2-1.1c0-0.6,0.1-1,0.1-1.1c0.1-0.2,0.5-0.2,1.1-0.2
		c0.9,0,1.4,0.1,1.5,0.3c0,0.1,0.1,0.2,0.3,0.4c0.2,0.2,0.3,0.4,0.3,0.7c0,0.3,0.1,0.4,0.1,0.5c0,0.1,0.2,0.1,0.4,0.1
		c0.2,0,0.3,0,0.3-0.1c0-0.1,0.1-0.2,0.3-0.2c0.2-0.1,0.3-0.2,0.3-0.3c0-0.2-0.1-0.4-0.2-0.5C265.5,763.3,265.5,763.2,265.6,763.1z"
		/>
	<path d="M276.3,760c-0.9,0-1.4,0-1.4,0.1c0,0.1-0.2,0.1-0.5,0.1c-0.3,0-0.5,0.1-0.5,0.2c0,0.1,0,0.2-0.1,0.2
		c-0.1,0-0.1,0.1-0.1,0.3c0,0.2,0.1,0.4,0.2,0.4c0.1,0,0.2,0.4,0.2,1.2c0,0.8,0,1.2,0.1,1.2c0.1,0,0.1,0.4,0.1,1.1c0,0.6,0,1-0.1,1
		c-0.1,0-0.2,0.7-0.2,2.1c0,1.2-0.1,1.9-0.2,2.1c-0.1,0.2-0.4,0.4-0.9,0.4c-0.3,0-0.4,0.1-0.5,0.1c-0.1,0.1-0.1,0.2-0.1,0.4
		c0,0.3,0.1,0.5,0.2,0.5c0.2,0,0.3,0.1,0.4,0.2c0.2,0.2,0.3,0.2,0.3,0.1c0.1-0.1,0.7-0.2,1.9-0.2c1,0,1.5,0,1.5,0.2
		c0,0.1,0.1,0.1,0.3,0.1c0.2,0,0.3,0,0.3-0.1c0-0.1,0.1-0.1,0.3-0.2c0.2-0.1,0.3-0.2,0.3-0.3c0-0.4-0.3-0.7-0.9-0.7l-0.6,0l0.1-3.2
		c0-2.1,0.1-3.3,0.2-3.4c0.1-0.1,0.1-0.4,0.1-0.9c0.1-1,0.2-1.5,0.4-1.5c0.1,0,0.2,0,0.2-0.1c0-0.1,0.1-0.2,0.4-0.2
		c0.2,0,0.4-0.1,0.5-0.2c0.1-0.1,0.2-0.2,0.2-0.4c0-0.2-0.1-0.3-0.2-0.4C277.9,760,277.3,760,276.3,760z M274.7,768.4
		c-0.1,0-0.2,0-0.2-0.1c0-0.1,0.1-0.1,0.2-0.1c0.1,0,0.2,0,0.2,0.1C274.9,768.4,274.9,768.4,274.7,768.4z M275.5,764.8
		c-0.1,0-0.2-0.1-0.2-0.3c0-0.2,0.1-0.3,0.2-0.3c0.1,0,0.2,0.1,0.2,0.3C275.7,764.8,275.7,764.8,275.5,764.8z"/>
	<path d="M294.9,760.3h-0.9c-0.5,0-0.8,0-1-0.1c-0.2-0.1-0.3-0.2-0.3-0.5c0-0.1,0-0.2-0.1-0.2c-0.1,0-0.1,0-0.2,0.1
		c-0.1,0.1-0.3,0.2-0.7,0.2c-0.2,0-0.2,0-0.2-0.1c0-0.1-0.2-0.1-0.7-0.1c-0.5,0-0.7,0.1-0.8,0.2c-0.1,0.1-0.2,0.2-0.4,0.2
		c-0.2,0-0.3,0-0.4,0c-0.1,0-0.1,0-0.2,0c-0.1,0-0.1,0-0.2,0c-0.3,0-0.5,0.1-0.7,0.3c-0.3,0.3-0.5,0.4-0.7,0.5s-0.3,0.2-0.5,0.5
		c-0.1,0.2-0.3,0.4-0.5,0.4c-0.4,0.1-0.7,0.4-0.7,0.9c0,0.2-0.1,0.4-0.2,0.6c-0.1,0.2-0.2,0.4-0.2,0.6c0,0.3-0.1,0.4-0.2,0.5
		c-0.1,0.1-0.1,0.2-0.1,0.3c0,0.2-0.1,0.3-0.2,0.4c-0.1,0.1-0.2,0.5-0.2,1.4c0,1,0.1,1.5,0.2,1.5c0.1,0,0.1,0.1,0.1,0.3
		c0,0.1,0,0.2-0.1,0.2c-0.1,0,0,0.1,0.2,0.4c0.2,0.2,0.4,0.3,0.5,0.3c0.1,0,0.1,0.1,0.2,0.3c0,0.2,0.2,0.4,0.6,0.7
		c0.3,0.3,0.6,0.5,0.8,0.6c0.2,0.1,0.2,0.1,0.2,0.2c0,0.1,0.3,0.2,0.9,0.3c0.6,0.1,1.3,0.1,2,0.1c1.1,0,1.7-0.1,1.9-0.3
		c0.2-0.2,0.4-0.3,0.7-0.4c0.4-0.1,0.6-0.2,0.8-0.4c0.2-0.3,0.4-0.5,0.7-0.8c0.3-0.3,0.4-0.5,0.4-0.6c0-0.1-0.1-0.2-0.3-0.3
		c-0.3-0.2-0.6-0.3-0.7-0.3c-0.1,0-0.2,0.1-0.3,0.3c-0.1,0.2-0.2,0.4-0.4,0.4c-0.2,0-0.4,0.1-0.6,0.4c-0.2,0.3-0.4,0.3-0.5,0.2
		c-0.1-0.1-0.2-0.1-0.4,0.1c-0.1,0.1-0.4,0.2-0.7,0.2c-0.1,0-0.3,0-0.8-0.1c-0.6,0-1.1-0.1-1.2-0.2c-0.2-0.1-0.3-0.2-0.3-0.5
		c0-0.2-0.2-0.5-0.6-0.9c-0.3-0.3-0.4-0.5-0.5-0.7c-0.1-0.2-0.2-0.5-0.3-0.9c-0.1-0.7-0.2-1-0.3-1c-0.1,0-0.1-0.1-0.1-0.2
		c0-0.1,0-0.2,0.1-0.3c0.2,0,0.2-0.6,0.3-1.8c0-0.2,0.1-0.3,0.3-0.3c0.2,0,0.3-0.1,0.2-0.3c-0.1-0.2,0.1-0.4,0.4-0.5
		c0.3-0.1,0.5-0.3,0.5-0.4c0-0.1,0.1-0.2,0.3-0.4c0.2-0.1,0.4-0.2,0.6-0.2c0.2,0,0.3-0.1,0.3-0.2c0-0.1,0.2-0.2,0.7-0.3
		c0,0,0.1,0,0.2,0c0.1,0,0.1,0,0.2,0c0.6,0,0.9,0.2,1.2,0.5c0.1,0.2,0.3,0.3,0.6,0.3c0.2,0,0.3,0.1,0.3,0.1c0,0.1,0.1,0.1,0,0.3
		c-0.1,0.2,0,0.3,0.1,0.4c0.1,0.1,0.2,0.4,0.4,0.9c0.1,0.4,0.1,0.6,0.2,0.7c0.1,0.1,0.2,0.2,0.4,0.3c0.3,0.1,0.4,0.2,0.4,0.3
		c0,0.1,0,0.1,0,0.1c0,0,0.1,0,0.1,0c0.1-0.1,0.2-0.5,0.2-1.5c0-1,0.1-1.5,0.2-1.5c0.1-0.1,0.1-0.3,0-0.8L294.9,760.3z"/>
	<path d="M311.2,767.8c-0.1,0-0.2,0.2-0.5,0.5c-0.2,0.3-0.4,0.5-0.4,0.6c0,0.1-0.1,0.2-0.3,0.2c-0.1,0-0.2,0-0.2,0.1
		c0,0-0.1,0.1-0.1,0.1c0,0,0,0.1,0,0.3c0,0.2-0.1,0.3-0.4,0.3c0,0-0.1,0-0.1,0c-0.1,0-0.1,0-0.2,0c-0.2,0-0.4,0.1-0.6,0.3
		c-0.2,0.2-0.4,0.3-0.5,0.3c-0.1,0-0.2,0-0.2-0.2c0-0.1-0.1-0.1-0.3,0c-0.2,0.1-0.5,0.2-1.1,0.2c-0.5,0-0.7,0-0.7-0.1
		c0-0.1-0.1-0.1-0.2-0.1c-0.1,0-0.1-0.1-0.2-0.2c-0.1-0.1-0.1-0.3-0.1-0.4c0-0.1,0-0.1,0-0.3c0-0.1,0-0.3,0-0.6c0-0.3,0-0.5,0-0.8
		c0-0.2,0-0.5,0-0.7c0-0.2,0-0.4,0-0.6v-0.2c0-0.1,0.4-0.1,1.2-0.1c0.7,0,1.1,0.1,1.4,0.2c0.2,0.1,0.3,0.4,0.3,0.7
		c0,0.2,0,0.2,0.1,0.3c0,0,0.1,0,0.2,0c0.1-0.1,0.3-0.1,0.5-0.1c0.1,0,0.2,0,0.2-0.1c0-0.1,0.1-0.2,0.1-0.5c0-0.1,0-0.1,0-0.3
		c0-0.1,0-0.3,0-0.4v-0.2c0-0.3,0-0.5,0.1-0.6c0.1-0.1,0.1-0.3,0-0.4c-0.1-0.1-0.1-0.2,0.1-0.3c0.1-0.1,0.2-0.2,0.2-0.4
		c0-0.3-0.3-0.4-1-0.4c-0.4,0-0.5,0.2-0.5,0.5c0,0.1,0,0.1,0.1,0.3c0,0.2,0,0.4,0,0.5c-0.1,0.1-0.3,0.2-0.8,0.3
		c-0.5,0.1-1,0.1-1.4,0.1h-0.6v-0.6c0-0.4,0.1-0.6,0.2-0.6c0.1,0,0.2-0.1,0.2-0.3c0-0.2-0.1-0.5-0.2-0.8c-0.1-0.2-0.1-0.3-0.1-0.4
		c0-0.1,0.1-0.1,0.2-0.2c0.2-0.1,0.3-0.3,0.2-0.5c0,0,0-0.1,0-0.2c0-0.1,0.1-0.2,0.4-0.3c0.2-0.1,0.7-0.1,1.4-0.2
		c0.7,0,1-0.1,1.1-0.1c0.3,0,0.5,0.1,0.6,0.2c0.1,0.2,0.3,0.3,0.5,0.3c0.2,0.1,0.3,0.2,0.3,0.3c0,0.1,0.1,0.2,0.3,0.3
		c0.2,0.1,0.3,0.2,0.3,0.3c0,0.2,0.1,0.3,0.3,0.5c0.2,0.2,0.4,0.2,0.6,0.2h0c0.2,0,0.4-0.2,0.4-0.6c0-0.2-0.1-0.3-0.2-0.5
		c-0.1-0.1-0.2-0.3-0.2-0.5c0-0.3,0-0.4-0.2-0.5c-0.1,0-0.1-0.1,0-0.4c0.1-0.1,0.1-0.2,0.1-0.2c0,0-0.1-0.1-0.1-0.1
		c-0.1-0.1-0.2-0.2-0.2-0.3s-0.1-0.3-0.3-0.5c-0.2-0.2-0.4-0.2-0.5-0.1c-0.2,0.1-1.7,0.2-4.4,0.3H305c-1.4,0-2.1-0.1-2.2-0.3
		c0-0.1-0.1-0.1-0.2-0.1c-0.1,0-0.2,0-0.2,0l0,0.1c0,0,0,0.1,0,0.1c0,0,0,0.1,0,0.2c0,0.1,0,0.2,0,0.2c0,0.2-0.1,0.3-0.3,0.3
		c-0.2,0.1-0.2,0.2-0.2,0.4c0.1,0.2,0.1,0.4,0.2,0.4c0.1,0.1,0.1,0.1,0.3,0.1c0.1,0,0.2,0,0.3,0c0.1,0,0.2,0,0.3,0
		c0.3,0,0.5,0.1,0.6,0.3c0.1,0.2,0.1,0.7,0.1,1.3c0,0.8-0.1,1.3-0.2,1.3c-0.1,0-0.1,0.1,0,0.4c0.1,0.2,0.1,0.4,0,0.6
		c-0.1,0.2-0.2,0.3-0.3,0.3c-0.1,0-0.1,0.1,0.1,0.2c0.1,0.1,0.1,0.3,0.1,0.6c0,0.5-0.1,1.4-0.2,2.6l-0.1,0.8h-0.5
		c-0.3,0-0.5,0.1-0.6,0.3c0,0.2-0.1,0.3-0.3,0.3c-0.1,0-0.2,0.1-0.2,0.3c0,0.3,0.1,0.4,0.3,0.6c0.2,0.1,0.3,0.2,0.3,0.4
		c0,0.1,0.2,0.1,0.7,0.1c0.4,0,0.7-0.1,0.9-0.3c0.1-0.1,0.5-0.2,1.1-0.2c0.5,0,0.9,0,1.2,0c0.7,0,1.1,0.1,1.1,0.2
		c0,0.1,0.2,0.1,0.4,0c0.2-0.1,0.7-0.1,1.4-0.2c0.8,0,1.2,0,1.4-0.1c0.2,0,0.3-0.1,0.5-0.2c0.2-0.2,0.3-0.3,0.2-0.5
		c0-0.2,0-0.3,0.1-0.4c0.1-0.1,0.2-0.3,0.2-0.7c0-0.3,0-0.5,0-0.6c0-0.1,0.1-0.1,0.2-0.1c0.2,0,0.3-0.1,0.3-0.4
		c0-0.2-0.1-0.4-0.2-0.6C311.5,767.8,311.3,767.8,311.2,767.8z"/>
	<path d="M301.7,769.5c0,0,0.1,0,0.1-0.1c0.1-0.2,0.1-0.3,0-0.3c-0.1,0-0.2,0.1-0.2,0.2C301.6,769.5,301.6,769.5,301.7,769.5z"/>
	<g>
		<g>
			<g>
				<g>
					<g>
						<path d="M384.4,490.5c-14.9-6-29.9-13.4-42-24c-9.1-8-15.7-17.7-23.1-27.3c-11.5-14.9-18.1-32.4-23.9-50.2
							c-0.6-1.9-3.7-1.1-3.1,0.8c6,18.4,12.9,36.2,24.7,51.6c8.2,10.6,15.6,21.3,26.1,29.8c12,9.7,26.2,16.5,40.3,22.3
							C385.5,494.4,386.3,491.3,384.4,490.5L384.4,490.5z"/>
					</g>
				</g>
				<g>
					<g>
						<path d="M341.3,468.2c17.8-5.5,34.3,11.7,42.6,25c0.5-0.8,0.9-1.6,1.4-2.4c-17.9,2.2-40.3-3.4-42.8-24.2c-0.2-2-3.4-2-3.2,0
							c2.7,22.6,26,29.8,45.9,27.3c1.1-0.1,2.1-1.3,1.4-2.4c-9-14.6-26.8-32.4-46.1-26.5C338.5,465.7,339.4,468.8,341.3,468.2z"/>
					</g>
				</g>
				<g>
					<g>
						<path d="M318.7,442c11.3,15.9,37.8,9.4,52.3,3.8c1-0.4,1.7-1.8,0.7-2.7c-15.2-12.1-37.2-17.3-52.8-3.1
							c-1.5,1.4,0.7,3.6,2.2,2.2c14.1-12.9,34.5-7.8,48.3,3.1c0.2-0.9,0.5-1.8,0.7-2.7c-13.1,5.1-38.7,11.7-48.7-2.4
							C320.3,438.7,317.5,440.3,318.7,442z"/>
					</g>
				</g>
				<g>
					<g>
						<path d="M368.6,442c-15.7-1.3-31.3-2.4-47-0.6c-2,0.2-2,3.4,0,3.2c15.7-1.8,31.3-0.7,47,0.6
							C370.6,445.4,370.6,442.2,368.6,442L368.6,442z"/>
					</g>
				</g>
				<g>
					<g>
						<path d="M296.2,404.4c10.7,14.4-4.2,35.8-13.3,46.2c0.9,0.2,1.8,0.5,2.7,0.7c-6.2-16.7-4.6-37.5,12.9-46.3
							c1.8-0.9,0.2-3.7-1.6-2.7c-18.6,9.4-21,31.9-14.3,49.9c0.4,1,1.8,1.7,2.7,0.7c10.1-11.5,25.5-34.4,13.8-50
							C297.7,401.2,294.9,402.8,296.2,404.4z"/>
					</g>
				</g>
				<g>
					<g>
						<path d="M285.5,450c3.9-15,7.8-29.7,14.7-43.6c0.9-1.8-1.8-3.4-2.7-1.6c-7,14.2-11.1,29.1-15,44.4
							C281.9,451.2,284.9,452,285.5,450L285.5,450z"/>
					</g>
				</g>
				<g>
					<g>
						<path d="M306.4,478.3c13.2,13.5,15.2,34.1,7.4,50.7c0.8-0.1,1.7-0.2,2.5-0.3c-14.1-13.1-15.6-34.1-7.4-50.7
							c0.9-1.8-1.8-3.4-2.7-1.6c-8.8,17.9-7.4,40.4,7.9,54.6c0.7,0.6,2,0.6,2.5-0.3c8.4-17.9,6.4-40-7.9-54.6
							C307.2,474.6,304.9,476.8,306.4,478.3z"/>
					</g>
				</g>
				<g>
					<g>
						<path d="M304.1,458.8c0.6,17.1-12.5,31-27.3,37.3c0.8,0.3,1.6,0.6,2.3,0.9c-0.8-5.3-0.5-11.2,0.8-16.4
							c3.1-12.8,12.9-19.5,25.7-20.3c2-0.1,2-3.3,0-3.2c-12.9,0.8-23.6,6.9-27.9,19.5c-2.3,6.6-2.8,14.3-1.7,21.2
							c0.2,1.1,1.5,1.3,2.3,0.9c15.8-6.7,29.5-21.9,28.9-40C307.2,456.7,304,456.7,304.1,458.8z"/>
					</g>
				</g>
				<g>
					<g>
						<path d="M306.3,450.8c0.2,17.1,12.8,31.7,27.1,39.4c0.8,0.4,2.2,0.1,2.3-0.9c2.9-19.3-7.5-36.9-27.4-39.9
							c-2-0.3-2.9,2.7-0.8,3.1c18.2,2.8,27.8,18.7,25.2,36c0.8-0.3,1.6-0.6,2.3-0.9c-13.3-7.1-25.3-20.7-25.5-36.6
							C309.5,448.8,306.3,448.8,306.3,450.8z"/>
					</g>
				</g>
				<g>
					<g>
						<path d="M316.4,526.8c-2.7-5.4-2.8-13.2-3.6-19c-1.3-9.5-2.5-19.1-3.6-28.6c-0.7-6-1.4-11.7-1.3-17.8
							c0.2-9.5,0.2-21.1,4.9-29.6c1-1.8-1.8-3.4-2.7-1.6c-4.4,8-4.8,18.5-5.2,27.4c-0.4,7.4,0.2,14.3,1.1,21.6
							c1.1,9.6,2.3,19.1,3.6,28.7c0.9,6.4,1,14.7,4,20.6C314.6,530.2,317.3,528.6,316.4,526.8L316.4,526.8z"/>
					</g>
				</g>
				<g>
					<g>
						<path d="M279.2,497.9c2.1-5.7,5.1-11.4,8.1-16.7c4.5-7.9,11.7-13.6,18.3-19.7c1.5-1.4-0.8-3.6-2.2-2.2
							c-6.8,6.4-14.1,12.2-18.8,20.4c-3.2,5.6-6.3,11.4-8.5,17.4C275.4,499,278.5,499.8,279.2,497.9L279.2,497.9z"/>
					</g>
				</g>
				<g>
					<g>
						<path d="M333.9,485.1c-2.9-6.3-4.6-11.8-8.9-17.5c-4.2-5.6-8.4-11.1-13.8-15.6c-1.6-1.3-3.8,0.9-2.2,2.2
							c5.3,4.3,9.4,9.8,13.5,15.2c4.1,5.4,5.9,11.1,8.7,17.2C332.1,488.5,334.8,486.9,333.9,485.1L333.9,485.1z"/>
					</g>
				</g>
				<g>
					<g>
						<g>
							<path d="M324.8,399.5c7.8,16.8,26.4,25.8,44.3,24.9c1.3-0.1,1.9-1.3,1.4-2.4c-7.7-17.6-25.2-30.3-44.7-24.9
								c-2,0.6-1.1,3.6,0.8,3.1c18.2-5.1,34,7.2,41.1,23.4c0.5-0.8,0.9-1.6,1.4-2.4c-16.9,0.8-34.2-7.5-41.6-23.4
								C326.7,396.1,324,397.7,324.8,399.5z"/>
						</g>
					</g>
					<g>
						<g>
							<path d="M313.4,385.5c-1.1,1.7-2.1,3.3-3,5.2c-0.5,0.9-0.1,2,0.9,2.3c15,4.2,31-2.2,41.8-12.5c0.7-0.6,0.6-2.1-0.3-2.5
								c-8.2-3.7-17.6-4.7-26.3-2.3c-2,0.5-1.1,3.6,0.8,3.1c7.8-2.1,16.4-1.3,23.8,2c-0.1-0.8-0.2-1.7-0.3-2.5
								c-10,9.5-24.9,15.5-38.7,11.7c0.3,0.8,0.6,1.6,0.9,2.3c0.9-1.8,1.9-3.5,3-5.2C317.3,385.4,314.5,383.8,313.4,385.5
								L313.4,385.5z"/>
						</g>
					</g>
					<g>
						<g>
							<path d="M306.7,393.3c13.3,5.4,24.2,17.9,26,32.3c0.7-0.5,1.3-1,2-1.5c-14.6-3.8-29.9-15-26.1-31.8c0.5-2-2.6-2.8-3.1-0.8
								c-4.3,18.6,11.9,31.4,28.3,35.7c0.9,0.2,2.1-0.5,2-1.5c-2-16-13.6-29.3-28.4-35.3C305.6,389.5,304.8,392.6,306.7,393.3z"/>
						</g>
					</g>
					<g>
						<g>
							<path d="M368.6,421.4c-3.3-3.5-8.5-5.8-12.6-8.2c-7.2-4.2-14.5-8.2-21.9-12.1c-12.6-6.8-23.6-13.6-38.2-15.2
								c-2-0.2-2,3,0,3.2c14.4,1.5,25.5,8.7,37.9,15.4c6.5,3.5,12.9,7.1,19.3,10.7c4.2,2.4,9.9,4.8,13.2,8.4
								C367.7,425.1,370,422.9,368.6,421.4L368.6,421.4z"/>
						</g>
					</g>
					<g>
						<g>
							<path d="M350.8,378.1c-13.2,0.1-26.4,6.4-38.2,11.6c-1.9,0.8-0.3,3.6,1.6,2.7c11.2-4.9,24-11,36.6-11.1
								C352.8,381.3,352.8,378.1,350.8,378.1L350.8,378.1z"/>
						</g>
					</g>
					<g>
						<g>
							<path d="M334.8,423.5c-3.1-3.4-7.3-5.7-10.6-8.9c-3.1-2.9-5.2-6.6-7.7-10c-2.5-3.5-5.2-6.7-6.7-10.8
								c-0.7-1.9-3.8-1.1-3.1,0.8c2.5,6.9,7.9,13.9,12.6,19.5c3.8,4.5,9.2,7.3,13.2,11.6C333.9,427.2,336.2,424.9,334.8,423.5
								L334.8,423.5z"/>
						</g>
					</g>
				</g>
			</g>
			<g>
				<g>
					<g>
						<path d="M213.5,393c-18.2,2.2-32.4,16.3-36.6,33.8c-0.2,0.9,0.5,2.1,1.5,2c18.7-1.3,32.7-16.2,36.6-33.8
							c0.4-2-2.6-2.8-3.1-0.8c-3.6,16.2-16.3,30.2-33.5,31.5c0.5,0.7,1,1.3,1.5,2c3.9-16,17-29.5,33.5-31.5
							C215.6,396,215.6,392.8,213.5,393z"/>
					</g>
				</g>
				<g>
					<g>
						<path d="M224.1,381.6c-10.9,12.7-9.8,30.9-2.4,44.9c0.5,0.9,1.8,1,2.5,0.3c14-12.8,16.5-31.8,2.1-45.2
							c-1.5-1.4-3.7,0.8-2.2,2.2c8.9,8.3,11.8,18.7,6.1,29.8c-2.1,4.1-4.9,7.9-8.3,11c0.8,0.1,1.7,0.2,2.5,0.3
							c-6.6-12.6-8-29.5,1.9-41.1C227.6,382.3,225.4,380.1,224.1,381.6z"/>
					</g>
				</g>
				<g>
					<g>
						<path d="M227,374.8c-9.1,11-25,13.9-38.4,11.4c0.3,0.8,0.6,1.6,0.9,2.3c8.1-13.8,23.4-19.4,37.7-11.2c1.8,1,3.4-1.7,1.6-2.7
							c-15.8-9-33.1-3.1-42.1,12.4c-0.5,0.8-0.1,2.1,0.9,2.3c14.4,2.7,31.6-0.3,41.4-12.2C230.5,375.5,228.3,373.2,227,374.8z"/>
					</g>
				</g>
				<g>
					<g>
						<path d="M180.6,427.1c3.6-1.6,6.7-5.2,9.6-7.8c5-4.6,9.9-9.3,14.8-14.1c10-9.7,19.9-18.4,26.1-31.2c0.9-1.8-1.8-3.4-2.7-1.6
							c-6.1,12.4-15.9,21.1-25.6,30.5c-4.6,4.4-9.1,8.8-13.8,13.1c-3,2.7-6.3,6.5-10,8.2C177.1,425.3,178.8,428,180.6,427.1
							L180.6,427.1z"/>
					</g>
				</g>
				<g>
					<g>
						<path d="M224.6,426.1c1.9-5.8,3.1-12,4-17.9c1.2-8-0.8-16.2-1.9-24.1c-0.3-2-3.3-1.2-3.1,0.8c1.2,8.6,2.9,16.8,1.4,25.4
							c-0.9,5-1.9,10.1-3.5,15C220.9,427.2,223.9,428.1,224.6,426.1L224.6,426.1z"/>
					</g>
				</g>
				<g>
					<g>
						<path d="M191.8,387.9c5-2.4,9.1-5.3,14.6-6.8c6.2-1.6,12.5-3.2,18.9-3.3c2,0,2-3.2,0-3.2c-6.7,0.1-13.3,1.7-19.7,3.4
							c-5.8,1.6-10,4.5-15.3,7.1C188.4,386.1,190,388.8,191.8,387.9L191.8,387.9z"/>
					</g>
				</g>
			</g>
			<g>
				<g>
					<g>
						<path d="M302.6,458.6c1.7-15.1,2.9-30.4,5-45.5c2-14.2-10.3-16.5-21.3-20.2c-1.9-0.7-2.8,2.4-0.8,3.1
							c5.5,1.9,13.4,2.9,17.4,7.6c3.6,4.2,0.7,15.8,0.1,21.3c-1.1,11.3-2.2,22.5-3.5,33.8C299.2,460.6,302.3,460.6,302.6,458.6
							L302.6,458.6z"/>
					</g>
				</g>
				<g>
					<g>
						<path d="M256.9,392.1c-5,1.6-9.8,3.9-14.7,5.8c-3.4,1.3-6.6,2.7-8.1,6.3c-1.8,4.3-0.7,10.3-0.2,14.7
							c0.7,6.1,1.4,12.3,2.2,18.4c3.5,28.1,6.9,56.2,10.5,84.4c3.4,27.2,7,54.4,10.8,81.5c2,13.7,4,27.3,6.2,40.9
							c1.2,7.3,2.4,14.7,3.6,22c0.7,4.1,0.4,10.4,3.3,13.7c0.8,0.9,2.3,0.4,2.7-0.7c4.9-16.2,5.7-33.2,8.1-49.9
							c2.3-15.7,4.5-31.4,6.6-47.2c4.3-33.1,8.2-66.3,12.2-99.4c0.2-2-2.9-2-3.2,0c-3.8,32.3-7.6,64.6-11.8,96.8
							c-2.1,16.3-4.4,32.7-6.8,48.9c-2.5,16.7-3.3,33.7-8.1,49.9c0.9-0.2,1.8-0.5,2.7-0.7c-2.8-3-2.7-13.6-3.4-17.8
							c-1.1-6.4-2.1-12.8-3.1-19.3c-1.9-11.8-3.6-23.6-5.3-35.5c-3.7-25.5-7-51-10.3-76.6c-3.1-24.4-6.1-48.8-9.1-73.3
							c-1.5-12.1-3.1-24.1-4.4-36.2c-0.3-2.4-0.7-4.9-0.6-7.4c0.3-6.9,2.3-9,8.5-11.3c4.3-1.5,8.4-3.7,12.7-5.1
							C259.7,394.6,258.8,391.5,256.9,392.1L256.9,392.1z"/>
					</g>
				</g>
				<g>
					<g>
						<path d="M235.4,408.9c9.4-2,29.8-1.4,33.2,9.7c0.6,1.9,3.7,1.1,3.1-0.8c-4.1-13.2-26-14.3-37.1-11.9
							C232.6,406.2,233.4,409.3,235.4,408.9L235.4,408.9z"/>
					</g>
				</g>
				<g>
					<g>
						<path d="M291.6,405.3c-8,1.1-20.3,3.4-23,12.4c-0.6,2,2.5,2.8,3.1,0.8c2.3-7.6,14.1-9.3,20.8-10.2
							C294.5,408.1,293.6,405,291.6,405.3L291.6,405.3z"/>
					</g>
				</g>
				<g>
					<g>
						<path d="M304.7,405.5c-1.6-0.4-3.2-0.5-4.8-0.6c-2-0.1-2,3.1,0,3.2c1.3,0.1,2.7,0.2,4,0.5C305.8,409,306.7,406,304.7,405.5
							L304.7,405.5z"/>
					</g>
				</g>
				<g>
					<g>
						<path d="M268.7,416.8c0.1,29.5,0.2,59.1,0.4,88.6c0.2,46.8,0.4,93.7,0.6,140.5c0,10.8,0.1,21.7,0.1,32.5c0,2,3.2,2,3.2,0
							c-0.1-29.5-0.2-59.1-0.4-88.6c-0.2-46.8-0.4-93.7-0.6-140.5c0-10.8-0.1-21.7-0.1-32.5C271.8,414.8,268.7,414.8,268.7,416.8
							L268.7,416.8z"/>
					</g>
				</g>
			</g>
			<g>
				<g>
					<path d="M247.9,455c1.1,9.6,2.1,19.3,3.2,28.9c0.2,2,3.4,2,3.2,0c-1.1-9.6-2.1-19.3-3.2-28.9C250.9,453,247.7,453,247.9,455
						L247.9,455z"/>
				</g>
			</g>
			<g>
				<g>
					<path d="M245.7,437.9c0.3,3.1,0.7,6.1,1,9.2c0.2,2,3.4,2,3.2,0c-0.3-3.1-0.7-6.1-1-9.2C248.6,435.9,245.5,435.9,245.7,437.9
						L245.7,437.9z"/>
				</g>
			</g>
			<g>
				<g>
					<g>
						<path d="M271.7,360.7c-3.8-22.3-23.2-27.9-43.4-26.9c-1.4,0.1-2.1,1.7-1.1,2.7c10.9,11.8,24.9,25.5,41.5,27.7
							c0.5,0.1,1.1-0.4,1.4-0.8c4.2-7.1,11.2-13,17.8-17.6c6.3-4.4,15.5-10.6,23.6-8.1c-0.3-0.8-0.6-1.6-0.9-2.3
							c-4.7,8.4-10.8,18.8-19.1,24.2c-3.7,2.4-16.9,6.8-19.8,1.7c-1-1.8-3.8-0.2-2.7,1.6c3.7,6.5,15.3,3.2,20.7,1.1
							c10.6-4.2,18.4-17.6,23.7-27.1c0.5-0.9,0-2-0.9-2.3c-13.1-4.1-28.9,9.4-37.4,17.8c-1.9,1.9-4.2,6.2-6.5,7.6
							c-3.3,1.9-9.7-2-13.1-3.9c-9.8-5.6-18.3-13.6-25.9-21.9c-0.4,0.9-0.7,1.8-1.1,2.7c18.7-0.9,36.8,3.6,40.3,24.6
							C268.9,363.6,272,362.7,271.7,360.7L271.7,360.7z"/>
					</g>
				</g>
				<g>
					<g>
						<path d="M243,334.2c0.7-5.7,4.4-11.2,7.7-15.8c3.5-5.1,6.1-1.7,10.5,0.8c10.2,5.7,20.2,12.1,23.6,24c0.6,2,3.6,1.1,3.1-0.8
							c-4.1-14.4-17.5-22.2-29.9-28.8c-4-2.1-6-1.9-8.9,1.9c-4.2,5.3-8.2,12.1-9,18.8C239.6,336.2,242.7,336.2,243,334.2L243,334.2z
							"/>
					</g>
				</g>
				<g>
					<g>
						<path d="M242.2,350.8c0,13.8,6.8,27.9,21.5,30.6c15.2,2.8,28-8.4,32.9-22c0.7-1.9-2.4-2.8-3.1-0.8
							c-4.5,12.5-16.8,23-30.8,19.4c-12.3-3.2-17.3-15.5-17.3-27.2C245.4,348.8,242.2,348.8,242.2,350.8L242.2,350.8z"/>
					</g>
				</g>
				<g>
					<g>
						<path d="M281.4,378.7c8.7,6.5,19,5.1,29,7.5c6,1.4,11.3,3.2,15.1-3c7.8-12.8-5.3-32.8-14.7-41c-1.5-1.3-3.8,0.9-2.2,2.2
							c8.2,7.2,18.9,23.1,15.2,34.6c-2.8,8.6-12.7,3.7-19.1,2.9c-7.7-1-15.1-1.2-21.6-6C281.4,374.7,279.8,377.5,281.4,378.7
							L281.4,378.7z"/>
					</g>
				</g>
				<g>
					<g>
						<path d="M253.6,374.4c-6,3.8-14.2-0.6-20.5-2c-7.2-1.6-13.2-2.9-18.8-8.1c-2.8-2.6-6.6-5.3-2.1-10.2c1.2-1.3,3.7-2.1,5.2-3.1
							c5.4-3.3,10.4-7,16.7-8.4c2-0.4,1.1-3.5-0.8-3.1c-8,1.8-17.8,7.5-24,12.9c-4.2,3.6-4,7.2-0.4,11c6.1,6.6,12.2,9.6,21,11.6
							c7.6,1.7,17.9,6.8,25.3,2.1C256.9,376.1,255.3,373.3,253.6,374.4L253.6,374.4z"/>
					</g>
				</g>
				<g>
					<g>
						<path d="M232.3,376.5c1.9,15,19.7,17.2,31.3,19.6c4,0.8,9,2.9,13.1,2.9c2.3,0,4.2-1.6,6.1-2.7c6.2-3.6,13.2-5.6,17.5-11.6
							c1.2-1.7-1.6-3.3-2.7-1.6c-3.5,4.9-9.2,6.3-14.2,9.1c-3.3,1.8-5,3.3-8.6,3.1c-2.9-0.1-6.1-1.4-9-2c-10-2-28.7-3.5-30.3-16.8
							C235.2,374.5,232.1,374.5,232.3,376.5L232.3,376.5z"/>
					</g>
				</g>
				<g>
					<g>
						<path d="M221.3,346.1c-2.8-2.3-3.9-7.3-4.6-10.8c-1.4-6.1,1-9.2,3.3-14.6c0.5-1.2,0.7-2.7,1.4-3.9c2.9-5.4,6-5.2,10.9-4.6
							c6,0.7,11,3.2,16.3,5.8c1.8,0.9,3.4-1.9,1.6-2.7c-9.3-4.4-26.6-12.7-31.9,0.7c-2.2,5.6-6,11.1-5.2,17.3c0.6,4.6,2.2,11.9,6,15
							C220.7,349.7,222.9,347.5,221.3,346.1L221.3,346.1z"/>
					</g>
				</g>
				<g>
					<g>
						<path d="M271.1,321.2c3-2.9,6.4-5.3,10.1-7.2c2.7-1.4,9.6-5,12.8-3.8c2.6,1,5,6.3,6.4,8.6c2.7,4.7,4.2,9.4,4.5,14.8
							c0.1,2,3.3,2,3.2,0c-0.5-10.4-5.7-18.4-11.8-26.5c-0.5-0.6-1-0.9-1.8-0.7c-9.6,1.9-18.5,5.7-25.5,12.6
							C267.4,320.4,269.7,322.6,271.1,321.2L271.1,321.2z"/>
					</g>
				</g>
				<g>
					<g>
						<path d="M284.3,310.2c-5.6-6.1-12.7-10.6-21-10.9c-3.9-0.1-8.2-0.5-11.8,1.3c-4.7,2.4-8.6,6.9-11.5,11.1
							c-1.2,1.7,1.6,3.3,2.7,1.6c2.5-3.5,6.4-8.1,10.4-9.9c3.3-1.5,8.6-1.2,12.1-0.8c6.4,0.7,12.5,5.2,16.8,9.9
							C283.5,314,285.7,311.7,284.3,310.2L284.3,310.2z"/>
					</g>
				</g>
				<g>
					<g>
						<path d="M281.1,332.4c-4.7,1.6-7.7,5.4-10.1,9.6c-1.7,3.1-4.5,7.3-4.2,11c0.2,2,3.3,2,3.2,0c-0.2-2.9,2.1-6.2,3.4-8.7
							c2-3.6,4.4-7.4,8.6-8.8C283.9,334.8,283,331.7,281.1,332.4L281.1,332.4z"/>
					</g>
				</g>
				<g>
					<g>
						<path d="M253.5,337.9c1.1-1.4,2-3,3-4.5c1.6-2.5,2.7-1.9,5.1-0.6c3.8,2.1,7.6,4.2,10.4,7.6c1.3,1.6,3.6-0.7,2.2-2.2
							c-2.1-2.5-4.7-4.4-7.5-6.1c-2.2-1.3-4.8-3.2-7.3-3.9c-4.4-1.2-6.6,5.4-8.7,8.1C249.5,338,252.2,339.5,253.5,337.9L253.5,337.9
							z"/>
					</g>
				</g>
				<g>
					<g>
						<path d="M303.7,322.2c5.9-0.8,9.4-4.9,15.7-1.3c4.8,2.7,9.6,8.1,11.4,13.2c2,5.4-0.5,10.5-1.4,15.8c-0.9,5.2-0.6,10.2-5,14
							c-1.5,1.3,0.7,3.6,2.2,2.2c5.2-4.5,5-10.9,6.2-17.2c1.2-6.1,3.3-11.2,0.5-17.1c-2.8-5.9-8.1-11.6-13.9-14.6
							c-6.5-3.3-10.1,1.1-16.5,2C300.8,319.4,301.7,322.4,303.7,322.2L303.7,322.2z"/>
					</g>
				</g>
			</g>
			<g>
				<g>
					<path d="M284.4,280c0.7,9.8,1.2,19.6,2.3,29.3c0.2,2,3.4,2,3.2,0c-1.2-9.7-1.7-19.5-2.3-29.3
						C287.4,277.9,284.2,277.9,284.4,280L284.4,280z"/>
				</g>
			</g>
			<g>
				<g>
					<path d="M253.2,301.3c1.6-6.7,1.6-14,2.4-20.8c0.2-2-2.9-2-3.2,0c-0.8,6.6-0.8,13.5-2.3,20
						C249.7,302.5,252.7,303.3,253.2,301.3L253.2,301.3z"/>
				</g>
			</g>
			<g>
				<g>
					<path d="M271.8,257.1c-9.4,0.1-18.8,0.1-28.2,0.6c-7.4,0.4-17.4,0-23.7,4.7c-4,3-7.3,11.8-3.2,16c2.9,2.9,9.7,2.4,13.5,2.6
						c22.3,1.1,44.8,0.9,67.1,0.2c6.4-0.2,12.9-0.3,19.2-1.1c5.9-0.7,9.1-2.5,8.4-8.9c-1-9.7-9.2-12.1-17.7-13
						C295.5,256.9,283.6,257,271.8,257.1c-2,0-2,3.2,0,3.2c9.7,0,19.4-0.1,29.1,0.5c5.2,0.3,11.6,0.2,16.2,2.9c3,1.7,5.7,6,4.7,9.6
						c-0.9,3.5-3.2,3.3-5.9,3.6c-16.8,2.1-34.4,1.5-51.3,1.5c-9.9,0-19.8-0.1-29.7-0.5c-4.2-0.2-15.3,1.1-16.7-4.1
						c-4.6-17,44.4-13.5,53.5-13.6C273.9,260.3,273.9,257.1,271.8,257.1z"/>
				</g>
			</g>
			<g>
				<g>
					<g>
						<path d="M262.7,201.7c-7.5,16.6-7.8,38.3-4.2,56c0.4,2,3.5,1.2,3.1-0.8c-3.4-16.7-3.2-37.7,3.9-53.5
							C266.3,201.5,263.5,199.9,262.7,201.7L262.7,201.7z"/>
					</g>
				</g>
				<g>
					<g>
						<path d="M274.3,203.3c7.2,15.7,7.5,36.7,4.3,53.5c-0.4,2,2.7,2.8,3.1,0.8c3.4-17.6,3-39.3-4.6-55.9
							C276.2,199.8,273.4,201.4,274.3,203.3L274.3,203.3z"/>
					</g>
				</g>
				<g>
					<g>
						<path d="M264.9,201.2c-2-1.4-2.1-5.2-1.9-7.3c0.4-3.6,2.5-6.9,6.4-7.1c3.8-0.2,6,2.9,6.9,6.2c0.6,2.3,1,6.6-1.4,8.1
							c-1.7,1.1-0.2,3.8,1.6,2.7c3.7-2.2,3.9-7.6,3-11.4c-1.1-4.9-4.7-9-10-8.9c-5.1,0.2-8.5,4.1-9.4,8.9c-0.7,3.8-0.2,9,3.3,11.4
							C265,205.1,266.5,202.3,264.9,201.2L264.9,201.2z"/>
					</g>
				</g>
			</g>
			<g>
				<g>
					<path d="M260,209.5c1.1,2.1,3,4,4.5,5.9c1.2,1.5,3,4.5,4.8,5.3c2,0.9,3.8-1.6,4.9-3c1.9-2.3,4-4.7,5.4-7.4
						c1-1.8-1.8-3.4-2.7-1.6c-1.1,2-2.6,3.8-4,5.6c-0.7,0.9-2.1,2-2.6,3c-0.5,1-0.7-0.2,0.1,0.6c1.1,1.2,0.1-0.5,0.1-0.5
						c-0.9-1.8-3.1-3.5-4.4-5.1c-1.1-1.4-2.5-2.8-3.4-4.4C261.8,206.1,259,207.7,260,209.5L260,209.5z"/>
				</g>
			</g>
			<g>
				<g>
					<path d="M257.7,225.5c1.6,2.3,4,4.2,6,6.2c1.5,1.4,3.7,4.4,5.7,5c2.2,0.7,4.1-1.5,5.6-2.9c2.5-2.3,5.1-4.7,7-7.5
						c1.2-1.7-1.6-3.3-2.7-1.6c-1.4,2.1-3.4,3.9-5.2,5.6c-0.9,0.9-2.1,1.6-2.9,2.6c-0.9,1.1,0,1-1,0.3c-2-1.3-3.8-3.4-5.5-5.1
						c-1.4-1.3-3.2-2.7-4.3-4.3C259.3,222.3,256.6,223.8,257.7,225.5L257.7,225.5z"/>
				</g>
			</g>
			<g>
				<g>
					<path d="M256.9,241.6c1.7,2.2,4.1,4,6.2,5.9c1.7,1.5,4.4,4.8,6.8,5.4c2.2,0.5,4.4-1.9,5.9-3.2c2.6-2.2,5.2-4.6,7.3-7.3
						c1.2-1.6-1.5-3.2-2.7-1.6c-1.5,2-3.5,3.7-5.3,5.3c-1,0.9-2.1,2.1-3.3,2.8c-1.4,0.8-0.3,0.9-1.8,0.2c-2-1.1-3.9-3.3-5.6-4.8
						c-1.5-1.3-3.4-2.7-4.6-4.3C258.4,238.4,255.6,240,256.9,241.6L256.9,241.6z"/>
				</g>
			</g>
			<g>
				<g>
					<path d="M242.5,260.8c9.5,2.1,17.1,9.9,26.5,11.6c10.5,1.9,18.4-8.9,27.8-12c1.9-0.6,1.1-3.7-0.8-3.1
						c-9.8,3.2-19,15.5-29.9,10.8c-7.6-3.2-14.5-8.6-22.7-10.5C241.3,257.3,240.5,260.4,242.5,260.8L242.5,260.8z"/>
				</g>
			</g>
			<g>
				<g>
					<path d="M223.4,264c3.4,0.4,7.3,4,9.8,6.1c3.3,2.8,6.6,6.1,8.4,10.1c0.8,1.9,3.5,0.3,2.7-1.6c-2.1-4.8-6.4-8.8-10.4-12
						c-3-2.4-6.6-5.3-10.5-5.8C221.4,260.6,221.4,263.8,223.4,264L223.4,264z"/>
				</g>
			</g>
			<g>
				<g>
					<path d="M316.6,260.4c-3.9,0.5-7.5,3.5-10.5,5.8c-4,3.3-8.3,7.2-10.4,12.1c-0.8,1.9,1.9,3.5,2.7,1.6c1.7-4.1,5-7.3,8.3-10.2
						c2.5-2.1,6.3-5.8,9.7-6.2C318.6,263.3,318.7,260.1,316.6,260.4L316.6,260.4z"/>
				</g>
			</g>
		</g>
		<g>
			<path d="M393.2,582.7c-3.4-3.4-7-21.3-7-21.3s-2.9,17.2-7,21.3s-16,6.3-16,6.3s12,2.3,16,6.3c4,4,7,21.3,7,21.3s3.4-17.7,7-21.3
				c3.7-3.7,16-6.3,16-6.3S396.6,586.1,393.2,582.7z"/>
		</g>
		<g>
			<path d="M409.5,380c-2-2-4.1-12.4-4.1-12.4s-1.7,10-4.1,12.4c-2.4,2.4-9.3,3.7-9.3,3.7s7,1.4,9.3,3.7c2.3,2.3,4.1,12.4,4.1,12.4
				s1.9-10.3,4.1-12.4c2.1-2.1,9.3-3.7,9.3-3.7S411.5,381.9,409.5,380z"/>
		</g>
		<g>
			<path d="M151.4,570.3c-2-2-4.2-12.7-4.2-12.7s-1.7,10.2-4.2,12.7c-2.5,2.5-9.5,3.8-9.5,3.8s7.1,1.4,9.5,3.8
				c2.4,2.4,4.2,12.7,4.2,12.7s2-10.5,4.2-12.7c2.2-2.2,9.5-3.8,9.5-3.8S153.4,572.4,151.4,570.3z"/>
		</g>
		<g>
			<path d="M178.8,312.5c-2-2-4.2-12.7-4.2-12.7s-1.7,10.2-4.2,12.7c-2.5,2.5-9.5,3.8-9.5,3.8s7.1,1.4,9.5,3.8
				c2.4,2.4,4.2,12.7,4.2,12.7s2-10.5,4.2-12.7c2.2-2.2,9.5-3.8,9.5-3.8S180.9,314.6,178.8,312.5z"/>
		</g>
		<g>
			<path d="M172.9,243.1c-3.9-3.9-8-24.4-8-24.4s-3.3,19.6-8,24.4s-18.2,7.2-18.2,7.2s13.7,2.7,18.2,7.2c4.6,4.6,8,24.4,8,24.4
				s3.8-20.2,8-24.4c4.2-4.2,18.2-7.2,18.2-7.2S176.9,247,172.9,243.1z"/>
		</g>
		<g>
			<path d="M209.9,510.3c-1.2-1.2-2.4-7.3-2.4-7.3s-1,5.9-2.4,7.3c-1.4,1.4-5.5,2.2-5.5,2.2s4.1,0.8,5.5,2.2
				c1.4,1.4,2.4,7.3,2.4,7.3s1.1-6,2.4-7.3c1.3-1.3,5.5-2.2,5.5-2.2S211.1,511.4,209.9,510.3z"/>
		</g>
		<g>
			<path d="M117.1,317c-1.2-1.2-2.4-7.3-2.4-7.3s-1,5.9-2.4,7.3c-1.4,1.4-5.5,2.2-5.5,2.2s4.1,0.8,5.5,2.2c1.4,1.4,2.4,7.3,2.4,7.3
				s1.1-6,2.4-7.3c1.3-1.3,5.5-2.2,5.5-2.2S118.3,318.2,117.1,317z"/>
		</g>
		<g>
			<path d="M345.5,629.5c-1.2-1.2-2.4-7.3-2.4-7.3s-1,5.9-2.4,7.3c-1.4,1.4-5.5,2.2-5.5,2.2s4.1,0.8,5.5,2.2s2.4,7.3,2.4,7.3
				s1.1-6,2.4-7.3c1.3-1.3,5.5-2.2,5.5-2.2S346.6,630.6,345.5,629.5z"/>
		</g>
		<g>
			<path d="M134.4,506.1c-4.2-4.2-8.6-26-8.6-26s-3.5,21-8.6,26c-5,5-19.4,7.7-19.4,7.7s14.6,2.9,19.4,7.7s8.6,26,8.6,26
				s4.1-21.5,8.6-26c4.5-4.5,19.4-7.7,19.4-7.7S138.6,510.3,134.4,506.1z"/>
		</g>
		<g>
			<g>
				<path class="st0" d="M358,231.3c-2.3-0.1-4.5,0-6.7,0.2c24.1,4.4,41.9,26.1,40.7,51.3c-1.2,25.2-20.9,45.1-45.3,47.2
					c2.2,0.4,4.4,0.7,6.6,0.8c27.5,1.3,50.8-19.9,52.1-47.4C406.6,255.9,385.4,232.6,358,231.3z"/>
			</g>
		</g>
	</g>
	<g>
		<path d="M247.7,108.4c0-0.2,0-0.4-0.1-0.5c-0.1-0.4-0.3-0.4-0.5,0c-0.1,0.1,0,0.4,0.2,0.8l0.3,0.6L247.7,108.4z"/>
		<path d="M264.4,100.3c-1.5,0-2.3,0.1-2.3,0.3s-0.6,0.4-1.9,0.5c-1.8,0.1-2.8,0.6-2.8,1.3c0,0.3,0.1,0.6,0.3,1
			c0.2,0.4,0.4,0.6,0.5,0.6c0.2,0,0.4,0.2,0.6,0.5c0.3,0.4,0.2,0.7-0.1,1c-0.3,0.3-0.4,0.5-0.2,0.5c0.1,0,0,0.2-0.2,0.6
			c-0.3,0.4-0.4,0.7-0.4,1.1c0,0.2-0.2,0.5-0.6,1c-0.4,0.5-0.6,0.8-0.6,1c0,0.3-0.3,0.4-0.9,0.4c-0.4,0-0.6,0-0.8-0.1
			c-0.1-0.1-0.2-0.3-0.3-0.8c-0.1-0.6-0.3-1.1-0.6-1.3c-0.4-0.2-0.5-0.6-0.5-1c0-0.4-0.1-0.7-0.4-0.9c-0.2-0.1-0.4-0.5-0.5-1.1
			c-0.1-0.7-0.1-1.1-0.1-1.4s0.1-0.4,0.2-0.5c0.1-0.1,0.3-0.1,0.7-0.1c0.5-0.1,0.8-0.1,0.9-0.2c0.2-0.1,0.2-0.3,0.2-0.5
			c0-0.2,0-0.4,0-0.6l-0.1-0.8l-2.2,0.1c-1.5,0.1-2.3,0.2-2.3,0.4c-0.1,0.2-0.4,0.3-0.8,0.3c-0.4,0-0.6-0.1-0.6-0.2
			c0-0.2-0.2-0.3-0.5-0.5c-0.3-0.1-0.7-0.2-1-0.2c-0.6,0-0.8,0.2-0.8,0.6c0,0.2-0.2,0.3-0.7,0.4c-0.2,0-0.4,0.1-0.4,0.1
			c0.2,0.1,0.3,0.3,0.3,0.6c0,0.3,0.1,0.5,0.4,0.5c0.2,0,0.4,0.1,0.5,0.4c0.1,0.3,0.5,0.4,1,0.5c0.6,0.1,1,0.4,1.2,0.8
			c0.2,0.4,0.4,0.6,0.6,0.6c0.2,0,0.3,0.3,0.3,0.8c0,0.5,0.1,0.8,0.4,0.8c0.3,0,0.4,0.2,0.4,0.5c0,0.4,0.2,0.7,0.5,0.9
			c0.2,0.2,0.3,0.4,0.3,0.6c0,0.2,0.1,0.4,0.3,0.5c0.3,0.1,0.5,0.4,0.7,0.9c0.3,0.5,0.4,0.8,0.5,0.8c0.1,0,0.2,0.2,0.2,0.5
			c0,0.3,0.2,0.5,0.5,0.6c0.3,0.1,0.4,0.3,0.4,0.5c0,0.1,0,0.3-0.1,0.5s-0.1,0.4-0.1,0.5c0,0.2-0.2,0.3-0.5,0.4
			c-0.4,0.1-0.6,0.4-0.7,0.9c-0.1,0.5-0.3,0.8-0.4,0.8c-0.2,0-0.5,0.3-1,0.9c-0.5,0.6-0.7,1-0.8,1.2c0,0.3-0.1,0.4-0.4,0.4
			c-0.3,0-0.4,0.1-0.4,0.3s-0.2,0.4-0.6,0.6c-0.4,0.2-0.6,0.6-0.6,1.1c0,0.3,0,0.4-0.1,0.5c-0.1,0.1-0.2,0.2-0.4,0.2
			c-0.2,0-0.6,0.1-1.1,0.1c-0.9,0.1-1.4,0.2-1.7,0.4c-0.2,0.2-0.3,0.7-0.3,1.4c0,0.6,0.1,0.9,0.3,0.9c0.1,0,0.2-0.1,0.3-0.3
			c0.1-0.2,1.1-0.4,3.2-0.4c1.3,0,2.2,0,2.5,0.1c0.3,0,0.5,0.2,0.5,0.4c0,0.3,0.1,0.3,0.2,0.1c0.2-0.2,0.3-0.3,0.4-0.2
			c0,0,0.1,0,0.1,0c0.2,0,0.4-0.1,0.6-0.3c0.2-0.2,0.4-0.5,0.5-0.7c0.1-0.3,0-0.4,0-0.5c-0.1-0.1-0.4-0.2-0.9-0.2
			c-1.2-0.2-1.7-0.6-1.7-1.1c0-0.2,0.1-0.3,0.3-0.3c0.3,0,0.4-0.2,0.4-0.6c0-0.4,0.1-0.6,0.4-0.6c0.3,0,0.4-0.1,0.4-0.3
			c0-0.2,0.2-0.5,0.6-0.9c0.5-0.4,0.7-0.6,0.6-0.7v-0.2c0-0.5,0.1-1,0.4-1.4c0.2-0.4,0.5-0.6,0.9-0.6c0.1,0,0.2,0,0.2,0
			c0.3,0.1,0.4,0.3,0.4,0.5c0,0.2,0.3,0.6,0.8,1.2c0.5,0.7,0.8,1,0.8,1.1c0,0.2,0.1,0.3,0.3,0.4c0.2,0.1,0.4,0.4,0.5,0.9
			c0.1,0.3,0.2,0.5,0.3,0.6c0.1,0.1,0.4,0.2,0.7,0.3l0.8,0.2l-0.8,0.1c-0.6,0.1-0.8,0.3-0.8,0.5c0,0.7-0.4,1.1-1.3,1.1
			c-0.3,0-0.5,0-0.6,0.1c-0.1,0.1-0.1,0.3-0.1,0.5v0.6h3.4c2.2,0,3.4,0.1,3.5,0.4c0.1,0.3,0.3,0.2,0.6,0c0.3-0.3,0.7-0.3,1.4-0.2
			l1,0.1v-0.9c0-0.4-0.1-0.7-0.2-0.9c-0.1-0.1-0.4-0.3-0.9-0.5c-0.7-0.3-1-0.5-1-0.6c0-0.1-0.3-0.2-0.8-0.5
			c-0.5-0.3-0.8-0.5-0.8-0.6c0-0.3-0.1-0.7-0.4-1.1c-0.2-0.4-0.5-0.6-0.6-0.6c-0.1,0-0.3-0.3-0.5-0.8c-0.2-0.5-0.4-0.8-0.5-0.8
			c-0.2,0-0.4-0.2-0.5-0.5c-0.1-0.3-0.5-0.9-1.3-1.7c-0.8-0.8-1.2-1.2-1.4-1.2c-0.1,0-0.2-0.1-0.2-0.3c0-0.8,0.4-1.6,1.1-2.4
			c0.6-0.6,0.9-1,0.9-1.3c0-0.2,0.3-0.6,0.8-1.1c0.5-0.5,0.9-0.8,1.1-0.8c0.2,0,0.2-0.2,0.2-0.5c0-0.9,0.3-1.3,0.8-1.3
			c0.3,0,0.5-0.1,0.5-0.2c0-0.2,0.1-0.4,0.4-0.6c0.3-0.2,0.6-0.4,0.8-0.4c0.3,0,0.6-0.2,0.8-0.6l0.4-0.5l0.1,0.5
			c0.1,0.4,0.3,0.6,0.5,0.6c0.2,0,0.3-0.2,0.4-0.5c0.1-0.4,0.3-0.5,0.6-0.5c0.2,0,0.4-0.1,0.4-0.2c0.1-0.1,0.1-0.4,0.1-0.8
			c0-0.9-0.1-1.5-0.3-1.6C266.4,100.4,265.7,100.3,264.4,100.3z M251.6,103c0,0,0-0.1,0-0.2c0-0.1,0-0.2,0-0.3c0-0.1,0-0.1,0.1,0
			l0,0.1C251.7,102.9,251.7,103,251.6,103z M252.1,107.3c-0.1,0-0.1,0-0.1-0.1c0-0.1,0-0.1,0.1-0.1c0.1,0,0.1,0,0.1,0.1
			C252.3,107.2,252.2,107.3,252.1,107.3z M252.6,109l0-0.2c0-0.1,0-0.2,0-0.2c0-0.1,0-0.1,0.1,0C252.7,108.6,252.7,108.8,252.6,109z
			 M255.6,114.8c-0.2,0-0.2-0.1-0.2-0.2c0-0.2,0.1-0.3,0.2-0.3s0.2,0.1,0.2,0.3C255.9,114.7,255.8,114.8,255.6,114.8z"/>
		<path d="M277.8,108.5c0.1-0.1,0.2-0.7,0.2-1.8c0.1-2,0.3-3,0.7-3c0.2,0,0.3-0.1,0.3-0.2c0-0.2,0.2-0.3,0.7-0.3
			c0.4,0,0.7-0.1,1-0.3c0.2-0.2,0.4-0.4,0.4-0.7c0-0.3-0.1-0.5-0.4-0.7c-0.3-0.2-1.3-0.2-3.2-0.2c-1.8,0-2.8,0.1-2.8,0.2
			c0,0.1-0.3,0.2-0.9,0.2c-0.6,0-0.9,0.1-0.9,0.4c0,0.3-0.1,0.4-0.2,0.4c-0.2,0-0.2,0.2-0.2,0.5c0,0.5,0.1,0.7,0.3,0.8
			c0.3,0.1,0.4,0.9,0.4,2.3c0,1.5,0.1,2.3,0.2,2.4c0.2,0.1,0.2,0.8,0.2,2.1c0,1.3-0.1,1.9-0.2,2c-0.2,0.1-0.3,1.4-0.4,4
			c-0.1,2.3-0.2,3.6-0.4,4.1c-0.2,0.4-0.7,0.7-1.7,0.9c-0.5,0-0.8,0.1-1,0.2c-0.1,0.1-0.2,0.4-0.2,0.8c0,0.6,0.1,0.9,0.3,0.9
			c0.3,0,0.6,0.1,0.8,0.4c0.3,0.3,0.5,0.3,0.6,0.1c0.1-0.2,1.4-0.3,3.8-0.3c2,0,3,0.1,3,0.3c0,0.2,0.2,0.2,0.5,0.2
			c0.4,0,0.5-0.1,0.5-0.2s0.2-0.3,0.5-0.5c0.3-0.2,0.5-0.4,0.5-0.6c0-0.8-0.6-1.3-1.8-1.4l-1.2-0.1l0.1-6.3
			C277.5,110.8,277.6,108.7,277.8,108.5z M274.3,117.6c-0.3,0-0.4-0.1-0.4-0.2c0-0.2,0.1-0.2,0.4-0.2c0.2,0,0.3,0.1,0.3,0.2
			C274.6,117.5,274.5,117.6,274.3,117.6z M275.8,110.6c-0.3,0-0.4-0.2-0.4-0.5c0-0.4,0.1-0.5,0.4-0.5s0.4,0.2,0.4,0.5
			C276.2,110.5,276.1,110.6,275.8,110.6z"/>
	</g>
</g>
</svg>
