<?xml version="1.0" encoding="utf-8"?>
<!-- Generator: Adobe Illustrator 21.1.0, SVG Export Plug-In . SVG Version: 6.00 Build 0)  -->
<svg version="1.1" xmlns="http://www.w3.org/2000/svg" xmlns:xlink="http://www.w3.org/1999/xlink" x="0px" y="0px"
	 viewBox="0 0 504 864" style="enable-background:new 0 0 504 864;" xml:space="preserve">
<g id="Слой_1">
</g>
<g id="Слой_2">
	<g>
		<path d="M164.6,786.2l0.1,0.4l0-0.1c0,0,0-0.1,0.1-0.1c0,0,0.1-0.1,0.1-0.1c0-0.1,0.1-0.1,0.1-0.2c0.2-0.3,0.2-0.4,0-0.4
			C164.7,785.7,164.6,785.8,164.6,786.2z"/>
		<path d="M165.9,793.4c-0.8-0.1-1.3-0.2-1.5-0.2c-0.1-0.1-0.2-0.2-0.2-0.4c0-0.2,0-0.3-0.1-0.4c-0.1-0.1-0.2-0.1-0.4-0.1
			c-0.3-0.1-0.5-0.2-0.5-0.3c0-0.1-0.1-0.2-0.3-0.2c-0.2,0-0.3-0.1-0.3-0.2c0-0.1-0.1-0.3-0.3-0.5c-0.2-0.2-0.4-0.4-0.5-0.4
			c-0.1,0-0.2,0-0.2-0.1c0-0.1-0.1-0.2-0.3-0.2c-0.2,0-0.3-0.1-0.3-0.2c0-0.2-0.1-0.3-0.2-0.5c-0.2-0.2-0.3-0.2-0.5-0.2
			c-0.2,0-0.2-0.1-0.2-0.2c0-0.1,0-0.2,0-0.3c0-0.1,0-0.2,0-0.3c0-0.1,0.1-0.2,0.3-0.3c0.3-0.1,0.4-0.2,0.4-0.4
			c0-0.2,0.1-0.3,0.2-0.3c0.1,0,0.3-0.1,0.5-0.4c0.2-0.3,0.4-0.5,0.5-0.5c0.2-0.1,0.2-0.1,0.2-0.3c-0.1-0.1,0-0.2,0.3-0.4
			c0.2-0.1,0.4-0.3,0.4-0.5c0-0.2,0.1-0.3,0.3-0.3c0.2,0,0.3-0.1,0.3-0.4c0-0.3,0.1-0.4,0.2-0.4c0.2,0,0.4-0.1,0.5-0.4
			c0.2-0.2,0.5-0.3,0.9-0.4c0.4-0.1,0.6-0.2,0.8-0.3c0.1-0.1,0.2-0.2,0.4-0.2c0.2,0,0.3-0.1,0.3-0.2c0-0.1,0.1-0.3,0.2-0.4
			c0.1,0,0.1-0.1,0.1-0.1c0,0-0.1,0-0.4-0.1c-0.4,0-0.5-0.1-0.5-0.2c0-0.2-0.3-0.3-0.8-0.3c-0.5,0-0.8,0.1-0.9,0.3
			c-0.1,0.1-0.3,0.2-0.6,0.2c-0.3,0-0.4,0-0.5-0.1c-0.1-0.1-0.6-0.2-1.8-0.2l-1.7-0.1l-0.1,0.5c0,0.1-0.1,0.2-0.1,0.3
			c0,0.1,0.1,0.2,0.2,0.3c0.1,0.1,0.4,0.1,0.7,0.1c0.3,0,0.5,0.1,0.6,0.1s0.1,0.1,0.1,0.2v0.1c0,0.3-0.1,0.4-0.2,0.5
			c-0.1,0.1-0.1,0.2-0.1,0.4c0.1,0.1,0,0.3-0.3,0.4c-0.2,0.1-0.4,0.3-0.4,0.5c0,0.3-0.1,0.4-0.3,0.5c-0.2,0.1-0.4,0.3-0.4,0.6
			c-0.1,0.3-0.3,0.5-0.5,0.5c-0.3,0.1-0.5,0.2-0.6,0.4c-0.2,0.2-0.3,0.3-0.4,0.3c-0.1,0-0.1-0.1-0.1-0.4c0-0.2,0-0.5,0.1-0.9
			c0-0.5,0.1-0.8,0.1-0.9s0-0.3,0-0.3c-0.1-0.3,0-0.5,0.2-0.6c0.2-0.1,0.3-0.3,0.2-0.6c0-0.2,0-0.3,0-0.3c0,0,0.1-0.1,0.3-0.1
			c0.2,0,0.4-0.1,0.5-0.3c0.1-0.2,0.1-0.4,0.1-0.8c0-0.2,0-0.3-0.1-0.3c-0.1-0.1-0.7-0.1-1.9-0.1c-1.4-0.1-2.1-0.2-2.1-0.4
			c0-0.1-0.1-0.1-0.2-0.1c-0.1,0-0.2,0-0.2,0.1c0,0.1-0.1,0.2-0.1,0.3c0,0.2,0,0.3,0,0.3c0,0.2-0.1,0.3-0.3,0.4
			c-0.2,0-0.3,0.2-0.2,0.5c0.1,0.3,0.1,0.4,0.2,0.5s0.2,0.1,0.3,0.1c0.2,0,0.3,0,0.4,0c0.1,0,0.2,0,0.4,0c0.3,0,0.5,0.1,0.6,0.4
			c0.1,0.2,0.1,0.8,0.1,1.5c0,0.9-0.1,1.4-0.2,1.5c-0.1,0.1-0.1,0.2,0,0.4c0.1,0.2,0.1,0.5,0,0.7c-0.1,0.2-0.2,0.3-0.3,0.3
			c-0.1,0-0.1,0.1,0,0.2c0.1,0.1,0.1,0.3,0.1,0.7c0,0.6-0.1,1.5-0.2,2.9l-0.1,1h-0.6c-0.4,0-0.6,0.1-0.7,0.3
			c-0.1,0.2-0.2,0.3-0.3,0.3c-0.2,0-0.2,0.1-0.2,0.4c0,0.3,0.1,0.5,0.3,0.6c0.2,0.1,0.3,0.3,0.3,0.4c0,0.1,0.1,0.2,0.3,0.2
			c0.2,0,0.5,0,0.8-0.1s0.5-0.2,0.6-0.2c0.1-0.1,0.7-0.2,1.6-0.2s1.4,0,1.5-0.1c0,0,0-0.3,0-0.6c0-0.3-0.1-0.4-0.1-0.5
			c0-0.1-0.1-0.1-0.3-0.1c-0.2,0-0.4,0-0.4-0.1c0-0.1-0.1-0.1-0.2-0.1c-0.3,0-0.4-0.3-0.4-0.9c0-0.2,0-0.3,0-0.4
			c0-0.4,0.1-0.8,0.1-1.2V790c0-0.1,0-0.2,0-0.3c0-0.1,0-0.2,0-0.3c0-0.4,0-0.6,0.1-0.6h0.1c0.2,0,0.4,0.1,0.8,0.3s0.6,0.4,0.7,0.6
			c0.2,0.2,0.3,0.4,0.4,0.4c0.1,0,0.2,0.1,0.3,0.3c0.1,0.2,0.2,0.4,0.2,0.5c0,0.1,0.1,0.2,0.4,0.5c0.3,0.2,0.4,0.4,0.4,0.6
			c0,0.1,0.1,0.2,0.3,0.2c0.2,0,0.3,0.1,0.3,0.4c0,0.2,0.1,0.4,0.3,0.4c0.3,0,0.3,0.2,0,0.6c-0.2,0.2-0.4,0.2-0.6,0.1
			c-0.2-0.1-0.3-0.1-0.5,0c-0.1,0.1-0.3,0.2-0.5,0.2c-0.2,0-0.3,0-0.3,0.1c0,0.1,0,0.2,0.1,0.2c0.1,0,0.1,0.1,0.1,0.2
			s0.1,0.2,0.2,0.3c0.2,0.1,0.3,0.1,0.5,0.1c0,0,0,0,0.1,0c0,0,0,0,0.1,0c0.2-0.1,0.3,0,0.3,0.1c0,0.1,0.1,0.1,0.2,0
			c0.1-0.1,0.2-0.2,0.5-0.2c0.2,0,0.8,0,1.8,0c1.4,0,2.2,0.1,2.4,0.2c0.2,0.1,0.3,0.2,0.4,0.2c0.2,0,0.2-0.2,0.2-0.5
			c0-0.4-0.1-0.6-0.2-0.7C166.6,793.5,166.3,793.5,165.9,793.4z M161.5,782.9C161.5,782.9,161.5,782.9,161.5,782.9L161.5,782.9
			c0.1,0.2,0.1,0.3,0,0.3c0,0,0,0,0-0.1C161.5,783,161.5,783,161.5,782.9z M161.3,785.4c0.1,0,0.1,0,0.1,0c0.1,0,0.1,0,0,0.1
			c-0.1,0.1-0.2,0.1-0.3,0L161.3,785.4z M160.8,786.1c0.1,0,0.1,0.1,0.1,0.2c0,0.1,0,0.2-0.1,0.2s-0.1-0.1-0.1-0.2
			C160.7,786.2,160.7,786.1,160.8,786.1z"/>
		<path d="M153.9,792.2c0.1-0.2,0.1-0.3-0.1-0.3c-0.1,0-0.2,0.1-0.2,0.2c0,0.1,0,0.2,0.1,0.2C153.8,792.3,153.8,792.3,153.9,792.2z"
			/>
		<path d="M153.7,796.7c-0.1,0-0.1,0.1-0.1,0.2c0,0.1,0,0.2,0.1,0.2c0.1,0,0.1-0.1,0.1-0.2C153.8,796.8,153.8,796.7,153.7,796.7z"/>
		<path d="M152.5,798.8c-0.1,0.1-0.1,0.2,0,0.4c0.1,0.1,0.2,0.1,0.3,0.1c0.3-0.1,0.3-0.3,0.1-0.5
			C152.7,798.6,152.6,798.6,152.5,798.8z"/>
		<path d="M153.7,797.9c-0.1,0-0.1,0.1-0.1,0.2c0,0.1,0,0.2,0.1,0.2c0.1,0,0.1-0.1,0.1-0.2C153.8,797.9,153.8,797.9,153.7,797.9z"/>
		<path d="M179.7,782c-0.1-0.1-0.7-0.1-1.8-0.1c-1,0-1.5,0-1.5,0.1c0,0.1-0.2,0.1-0.5,0.1c-0.3,0-0.5,0.1-0.5,0.2
			c0,0.1,0,0.2-0.1,0.2c-0.1,0-0.1,0.1-0.1,0.3c0,0.3,0.1,0.4,0.2,0.5c0.1,0.1,0.2,0.5,0.2,1.3c0,0.8,0,1.2,0.1,1.3
			c0.1,0,0.1,0.4,0.1,1.1c0,0.7,0,1-0.1,1.1c-0.1,0-0.2,0.8-0.2,2.2c0,1.2-0.1,2-0.2,2.2c-0.1,0.2-0.4,0.4-0.9,0.5
			c-0.3,0-0.5,0.1-0.5,0.1c-0.1,0.1-0.1,0.2-0.1,0.4c0,0.3,0.1,0.5,0.2,0.5c0.2,0,0.3,0.1,0.5,0.2c0.2,0.2,0.3,0.2,0.3,0.1
			c0.1-0.1,0.8-0.2,2.1-0.2c1.1,0,1.6,0.1,1.6,0.2c0,0.1,0.1,0.1,0.3,0.1c0.2,0,0.3,0,0.3-0.1c0-0.1,0.1-0.2,0.3-0.3
			c0.2-0.1,0.3-0.2,0.3-0.3c0-0.5-0.4-0.7-1-0.8L178,793l0.1-3.5c0-2.3,0.1-3.5,0.2-3.6c0.1-0.1,0.1-0.4,0.1-1
			c0.1-1.1,0.2-1.6,0.4-1.6c0.1,0,0.2,0,0.2-0.1c0-0.1,0.1-0.2,0.4-0.2c0.2,0,0.4-0.1,0.5-0.2c0.1-0.1,0.2-0.2,0.2-0.4
			C180,782.3,179.9,782.1,179.7,782z M176.3,790.9c-0.1,0-0.2,0-0.2-0.1c0-0.1,0.1-0.1,0.2-0.1c0.1,0,0.2,0,0.2,0.1
			C176.5,790.9,176.4,790.9,176.3,790.9z M177.1,787.1c-0.1,0-0.2-0.1-0.2-0.3c0-0.2,0.1-0.3,0.2-0.3c0.1,0,0.2,0.1,0.2,0.3
			C177.3,787,177.3,787.1,177.1,787.1z"/>
		<path d="M200,782c-0.1,0-0.2,0-0.3,0.1c-0.2,0.1-0.3,0.1-0.3,0.1c-0.1,0-0.1-0.1-0.2-0.2c-0.1-0.2-0.3-0.3-0.4-0.3
			c-0.1,0-0.2-0.1-0.2-0.3c0-0.2-0.1-0.3-0.3-0.3c-0.2,0-0.3,0.1-0.3,0.3c0,0.2,0.1,0.3,0.2,0.3s0.2,0.1,0.2,0.3
			c0,0.2-0.1,0.3-0.2,0.3c-0.2,0-0.3-0.1-0.3-0.4c-0.1-0.2-0.2-0.4-0.3-0.4c-0.1,0-0.1,0-0.2,0.1c-0.2,0.2-0.2,0.3,0,0.3
			c0.1,0,0.2,0.1,0.2,0.1c0,0.1-0.1,0.2-0.4,0.2c-0.2,0-0.4,0-0.4-0.1s-0.1-0.1-0.4-0.1c-0.4,0-0.8,0.1-1.1,0.2
			c-0.4,0.2-0.6,0.4-0.6,0.7c0,0.3,0.3,0.5,0.8,0.6c0.4,0.1,0.6,0.1,0.6,0.2c0,0.1,0.1,0.1,0.3,0.1c0.3,0,0.5,0.2,0.6,0.6
			c0.1,0.4,0.2,1.2,0.2,2.4c0,1.4,0.1,2.2,0.1,2.4c0.1,0.1,0,0.3,0,0.6l-0.1,0.4l-0.5-0.5c-0.4-0.3-0.5-0.5-0.5-0.6
			c0-0.1-0.1-0.2-0.2-0.3c-0.1-0.1-0.3-0.2-0.4-0.4c-0.2-0.1-0.3-0.2-0.3-0.2c-0.1-0.1-0.3-0.2-0.3-0.2c-0.1,0-0.2-0.1-0.2-0.2
			c0-0.1-0.1-0.2-0.2-0.3c-0.1-0.1-0.3-0.2-0.4-0.2c-0.1,0-0.1-0.1-0.1-0.2c0-0.1-0.1-0.2-0.2-0.2c-0.1,0-0.1,0-0.1-0.1
			c0-0.1-0.1-0.2-0.4-0.5c-0.2-0.3-0.4-0.4-0.4-0.5c0-0.1-0.1-0.2-0.3-0.2c-0.2,0-0.3-0.1-0.5-0.2c-0.2-0.1-0.2-0.3-0.2-0.4
			c0-0.1-0.2-0.3-0.5-0.7s-0.5-0.6-0.5-0.7c0-0.1-0.1-0.2-0.3-0.4c-0.2-0.2-0.3-0.4-0.3-0.4c0-0.3-0.6-0.5-1.8-0.6
			c-0.6,0-0.9-0.1-0.9-0.1c-0.3,0-0.4,0.1-0.4,0.2c0,0.1,0,0.2,0,0.4c0,0.2,0,0.4,0.1,0.6c0.1,0.2,0.1,0.3,0.2,0.3
			c0.1,0,0.2,0.2,0.3,0.6c0.1,0.4,0.2,0.6,0.2,0.6c0.1,0,0.1,0.3,0.1,0.8c0,0.5,0,0.8-0.1,0.8c-0.1,0-0.1,0.1-0.1,0.4
			c0,0.2,0.1,0.6,0.2,1c0.1,0.2,0.1,0.6,0.1,1.1c0,0.7-0.1,1.1-0.2,1.1c-0.1,0-0.1,0.2-0.1,0.7c0,0.5,0,1.1-0.1,1.5
			c0,0.4-0.1,0.6-0.1,0.7c-0.1,0.1-0.2,0.2-0.4,0.2c-0.3,0.1-0.4,0.2-0.4,0.4c0,0.2,0.1,0.4,0.4,0.6c0.2,0.2,0.3,0.3,0.5,0.3
			s0.8,0,1.7,0c1,0,1.6,0,1.8-0.1c0.2-0.1,0.3-0.3,0.3-0.8c0-0.3-0.1-0.4-0.3-0.5c-0.2-0.1-0.3-0.1-0.3-0.2c0-0.1-0.2-0.1-0.6-0.1
			c-0.4,0-0.7-0.1-0.9-0.3c-0.2-0.2-0.2-0.3-0.1-0.4c0.1-0.1,0.2-0.2,0.2-0.6c0-0.3,0-0.5-0.1-0.5c-0.1-0.1-0.1-0.9-0.1-2.6
			c0-1.7,0.1-2.5,0.2-2.5c0.1,0,0.3,0.1,0.4,0.2c0.1,0.1,0.3,0.2,0.5,0.3c0.3,0.1,0.4,0.3,0.5,0.4c0,0.2,0.3,0.5,0.8,1.1
			c0.5,0.5,0.9,0.9,1.3,1.1c0.2,0.1,0.3,0.2,0.3,0.3c0,0.1,0.2,0.2,0.5,0.6c0.7,0.7,1.1,1.1,1.1,1.4c0,0.1,0.1,0.1,0.3,0.1
			c0.2,0,0.3,0,0.3,0.1c0,0.1,0.1,0.3,0.4,0.5c0.2,0.2,0.4,0.4,0.4,0.6c0,0.1,0.1,0.3,0.3,0.5c0.2,0.2,0.3,0.3,0.4,0.3
			c0.1,0,0.3,0.2,0.6,0.5c0.3,0.3,0.5,0.5,0.7,0.6c0.1,0.1,0.2,0.1,0.3,0.1c0.4,0,0.6-0.2,0.6-0.6c0-0.1,0-0.2,0-0.4
			c0-0.9-0.1-1.4-0.2-1.6c-0.1-0.1-0.1-0.5-0.1-1.3v-0.4c0-1,0-1.6-0.1-1.6c-0.1-0.1-0.2-0.4-0.2-1c0-0.5,0-0.8,0.1-0.8
			c0.1-0.1,0.2-0.2,0.2-0.5s0-0.4,0.1-0.4c0.1,0,0.1-0.1,0.1-0.4s0-0.4-0.1-0.4c-0.1,0-0.1-0.1-0.1-0.4c0-0.4,0.1-0.7,0.2-1
			c0.2-0.3,0.4-0.5,0.7-0.5c0.2,0,0.4-0.1,0.4-0.1s0.1-0.2,0.1-0.5v-0.2C200.3,782.3,200.2,782,200,782z"/>
		<path d="M217.1,788.6c-0.3,0-0.5,0-0.6,0c-0.7,0-1.2,0-1.4,0.1c-0.2,0.1-0.4,0.2-0.4,0.3c0,0.1-0.1,0.2-0.1,0.3
			c0,0.3,0.4,0.5,1.2,0.6c0.7,0.1,1.1,0.2,1.1,0.3c0,0-0.1,0.2-0.2,0.6c-0.1,0.3-0.3,0.5-0.5,0.5c-0.2,0-0.4,0.1-0.6,0.4
			c-0.2,0.3-0.3,0.3-0.4,0.2c-0.1-0.1-0.2-0.1-0.4,0.1c-0.2,0.2-0.5,0.2-0.8,0.2c-0.1,0-0.4,0-0.8-0.1c-0.7,0-1.1-0.1-1.3-0.2
			c-0.2-0.1-0.3-0.3-0.3-0.6c0-0.2-0.1-0.4-0.3-0.5c-0.2-0.1-0.3-0.2-0.3-0.4c0-0.2,0-0.2-0.1-0.2c-0.3,0-0.6-0.5-0.8-1.5
			c-0.1-0.7-0.2-1.1-0.3-1.1c-0.1,0-0.1-0.1-0.1-0.2c0-0.2,0-0.2,0.1-0.3c0.2,0,0.3-0.7,0.3-1.9c0-0.2,0.1-0.2,0.3-0.2
			c0.2,0,0.3-0.1,0.3-0.2c0-0.1,0-0.3-0.2-0.4c-0.1-0.1-0.1-0.2,0.1-0.2c0.2,0,0.4-0.1,0.7-0.2c0.2-0.1,0.4-0.3,0.4-0.4
			c0-0.1,0.1-0.3,0.3-0.4c0.2-0.1,0.5-0.2,0.7-0.2c0.2,0,0.3-0.1,0.3-0.2c0-0.1,0.2-0.2,0.7-0.3c0.1,0,0.1,0,0.2,0
			c0.1,0,0.1,0,0.2,0c0.6,0,1,0.2,1.2,0.5c0.1,0.2,0.3,0.3,0.6,0.4c0.3,0.1,0.4,0.2,0.4,0.3c0,0,0,0,0,0.1c0,0,0,0.1,0,0.1
			c0,0.1,0,0.2,0.1,0.3c0.1,0.1,0.2,0.2,0.3,0.5c0.1,0.2,0.1,0.3,0.2,0.4c0.1,0.1,0.3,0.1,0.5,0.2c0.1,0,0.2,0,0.4,0
			c0.1,0,0.2,0,0.2,0c0,0,0.1-0.1,0.1-0.1c0-0.1,0-0.1,0.1-0.2c0.1-0.3,0.1-0.6,0.1-0.9c0-0.3,0-0.5,0.1-0.5c0.1,0,0.1-0.1,0.1-0.3
			c0-0.2,0-0.5-0.1-0.9c-0.1-0.1-0.1-0.2-0.3-0.3c-0.1,0-0.4-0.1-0.9-0.1c-0.7,0-1,0-1.1-0.1c-0.1-0.1-0.9-0.2-2.2-0.2
			c-0.6,0-1,0-1.2,0.1c-0.6,0.1-1,0.2-1.3,0.3c-0.2,0.1-0.8,0.5-1.6,1.3c-0.9,0.8-1.3,1.3-1.3,1.4c0,0.1-0.1,0.2-0.2,0.4
			c-0.1,0.2-0.2,0.4-0.2,0.7c0,0.3-0.1,0.4-0.2,0.5c-0.1,0.1-0.1,0.2-0.1,0.4c0,0.2-0.1,0.4-0.2,0.5c-0.1,0.1-0.2,0.6-0.2,1.5
			c0,1,0.1,1.6,0.2,1.6c0.1,0,0.1,0.1,0.1,0.3c0,0.1,0,0.2-0.1,0.2c-0.1,0,0,0.1,0.2,0.4c0.2,0.2,0.4,0.4,0.5,0.4
			c0.1,0,0.2,0.1,0.2,0.3c0.1,0.2,0.3,0.4,0.6,0.8c0.4,0.3,0.6,0.6,0.8,0.6c0.2,0.1,0.2,0.1,0.2,0.2c0,0.1,0.4,0.2,1.1,0.3
			c0.7,0.1,1.4,0.1,2.2,0.1c1.1,0,1.7-0.1,1.9-0.3c0.1-0.1,0.3-0.2,0.6-0.3c0.4-0.1,0.6-0.2,0.8-0.2c0,0,0.1,0,0.1,0
			c0,0-0.1,0.2-0.2,0.5c-0.1,0.2-0.2,0.4-0.2,0.6c0,0.2,0.2,0.3,0.6,0.3c0.3,0,0.5,0,0.6,0c1-0.1,1.6-0.2,1.6-0.4
			c0-0.1-0.1-0.3-0.4-0.5c-0.2-0.1-0.3-0.3-0.3-0.5c0-0.2-0.1-0.6-0.1-1.2l-0.1-1.4l0.6,0.1c0.3,0.1,0.5,0,0.6-0.2
			c0.1-0.2,0.3-0.3,0.6-0.3c0.3,0,0.4-0.1,0.5-0.1c0,0,0.1-0.2,0.1-0.5v-0.6l-2.5-0.1C217.7,788.6,217.4,788.6,217.1,788.6z"/>
		<path d="M251.7,785.7c-0.2-0.1-0.2-0.2-0.2-0.5c0-0.3,0-0.5-0.1-0.5c-0.1,0-0.1-0.1-0.1-0.4s-0.1-0.4-0.2-0.4
			c-0.1,0-0.2-0.1-0.3-0.3c-0.1-0.2-0.2-0.3-0.3-0.4c-0.1-0.1-0.2-0.2-0.2-0.4c0-0.2-0.1-0.3-0.4-0.3c-0.7,0-1-0.1-1-0.4
			c0-0.1-0.1-0.2-0.2-0.2c-0.1,0-0.2,0-0.2-0.1s-0.1-0.1-0.3-0.1c-0.2,0-0.3-0.1-0.4-0.2c0-0.1-0.5-0.2-1.5-0.2
			c-0.9,0-1.5,0.1-1.6,0.2c-0.1,0.1-0.2,0.2-0.4,0.2c-0.2,0-0.3,0.1-0.4,0.3c-0.1,0.2-0.3,0.4-0.6,0.4c-0.3,0-0.6,0.1-1.1,0.2
			c-0.5,0.1-0.7,0.3-0.8,0.5c0,0.2-0.2,0.4-0.5,0.7s-0.4,0.5-0.4,0.5c0,0.1-0.1,0.1-0.2,0.1c-0.1,0-0.2,0.1-0.3,0.4
			c-0.1,0.2-0.2,0.5-0.3,0.7c-0.2,0.3-0.2,0.8-0.2,1.8c0,1.2,0.1,2.1,0.4,2.9c0.5,1.4,0.9,2.2,1.2,2.3c0.2,0,0.3,0.1,0.3,0.3
			c0,0.2,0.2,0.2,0.4,0.2c0.2,0,0.4,0,0.4,0.1c0,0.1,0.1,0.1,0.3,0.1s0.3,0.1,0.3,0.4c0,0.2,0,0.3,0.1,0.4c0.1,0.1,0.2,0,0.4-0.1
			c0.1-0.1,0.2-0.1,0.3,0c0.2,0.1,0.9,0.2,2.2,0.2c1.1,0,1.7-0.1,1.7-0.2c0-0.1,0.3-0.2,0.7-0.2c0.4,0,0.6-0.1,0.6-0.2
			c0-0.2,0.1-0.3,0.2-0.3c0,0,0.2-0.1,0.4-0.3c0.3-0.2,0.4-0.3,0.5-0.3c0.1,0,0.2-0.1,0.2-0.3c0.1-0.2,0.2-0.3,0.3-0.3
			c0.1,0,0.2-0.1,0.3-0.3c0-0.2,0.2-0.3,0.4-0.3c0.2-0.1,0.3-0.1,0.3-0.2c0-0.1,0.1-0.1,0.2-0.1c0.1,0,0.2-0.2,0.2-0.6
			c0-0.3,0-0.5-0.1-0.5c-0.1,0-0.1-0.1,0-0.2c0.1-0.1,0.2-0.8,0.2-2.1c0-0.3,0-0.7,0-1.1C251.9,786,251.9,785.7,251.7,785.7z
			 M249.5,788.8c-0.1,0-0.2,0.2-0.2,0.4c0,0.3-0.1,0.4-0.2,0.5c-0.1,0.1-0.2,0.4-0.3,0.8c-0.1,0.4-0.1,0.6-0.3,0.6
			c-0.1,0-0.2,0-0.2,0.1c0,0.1-0.1,0.2-0.4,0.2c-0.3,0.1-0.4,0.2-0.4,0.3c0,0.1,0,0.2-0.1,0.2c-0.1,0.1-0.2,0.1-0.4,0.2
			c-0.1,0.1-0.2,0.1-0.3,0.1c0,0.1-0.2,0.1-0.4,0.1c-0.2,0-0.3,0.1-0.5,0.2c-0.1,0.1-0.2,0.1-0.4,0.1c-0.2,0-0.4,0-0.7-0.1
			c-0.5-0.1-1-0.3-1.3-0.6c-0.3-0.3-0.7-0.8-1-1.5c-0.3-0.5-0.4-0.9-0.5-1.1c0-0.2-0.1-0.7-0.1-1.4c0-0.7,0-1.1,0.1-1.4
			c0-0.2,0.1-0.5,0.3-0.8c0.3-0.5,0.6-0.9,1-1.3c0.4-0.4,0.8-0.6,1-0.7c0.3,0,0.5-0.1,0.5-0.3c0-0.1,0.1-0.2,0.2-0.2
			c0.1,0,0.2,0,0.2-0.1c0-0.1,0.1-0.1,0.3-0.1c0.2,0,0.3,0,0.3,0.1c0,0.1,0.3,0.1,0.9,0.1c0.5,0,0.8,0.1,0.8,0.2
			c0,0.1,0.1,0.2,0.3,0.3c0.2,0.1,0.3,0.2,0.3,0.3c0,0.1,0.1,0.2,0.3,0.3c0.3,0.1,0.5,0.4,0.5,0.8c0,0.2,0.1,0.5,0.3,0.8
			c0.2,0.3,0.3,0.7,0.3,1.1c0,0.5,0,0.7,0.1,0.8c0.1,0.1,0.1,0.2,0.1,0.4C249.7,788.6,249.6,788.7,249.5,788.8z"/>
		<path d="M269.5,783.9c0-0.3-0.1-0.5-0.2-0.6c-0.1-0.1-0.1-0.2,0-0.4c0.1-0.1,0.1-0.2,0.1-0.2c0-0.1-0.1-0.2-0.2-0.2
			c-0.1-0.1-0.2-0.2-0.2-0.3c0-0.2-0.1-0.3-0.3-0.5c-0.2-0.2-0.4-0.3-0.5-0.3c-0.1,0-0.2,0-0.2,0.1c0,0.1-0.3,0.1-0.9,0.2
			c-0.5,0.1-1.1,0.1-1.7,0.1c-0.6,0-0.9,0-1,0.1c-0.1,0-0.5,0.1-1.4,0.1c-0.9,0.1-1.8,0.2-2.7,0.3c-0.9,0.1-1.4,0.2-1.4,0.2
			c0,0,0,0.1,0,0.2c0,0.1,0,0.2,0.1,0.3c0.1,0.2,0.1,0.3,0.2,0.4c0.1,0,0.3,0.1,0.6,0.1c0.5,0,0.9,0.1,1,0.3
			c0.1,0.2,0.2,0.7,0.2,1.6c0,0.9-0.1,1.4-0.2,1.5c-0.1,0.1-0.1,0.2,0,0.4c0.1,0.3,0.2,0.5,0,0.7c-0.1,0.2-0.2,0.3-0.3,0.3
			c-0.1,0,0,0.1,0.1,0.2c0.1,0.1,0.1,0.3,0.1,0.6c0,0.1,0,0.4-0.1,0.8c-0.1,1.4-0.2,2.3-0.2,2.6c-0.1,0.4-0.1,0.5-0.3,0.6
			c-0.2,0.1-0.5,0.3-0.8,0.6l-0.5,0.6h5v-0.5c0-0.2,0-0.4-0.1-0.4c0-0.1-0.1-0.1-0.3-0.1c-0.2,0-0.4,0-0.4-0.1s-0.1-0.1-0.2-0.1
			c-0.1,0-0.2-0.1-0.3-0.3c0-0.1,0-0.4,0-1.2c0-1.2,0-2.1,0.1-2.8c0-0.1,0.5-0.1,1.4-0.1c0.8,0,1.3,0.1,1.5,0.2
			c0.3,0.1,0.4,0.4,0.4,0.9c0,0.3,0,0.5,0.1,0.5c0.1,0,0.1-0.1,0.3-0.2c0.1-0.1,0.3-0.2,0.5-0.1c0.2,0.1,0.3,0,0.3-0.2
			c0-0.2,0-0.3,0.1-0.4c0.1-0.1,0.1-0.2,0-0.2c-0.1-0.1-0.2-0.3-0.2-0.6c0-0.4,0.1-0.7,0.2-0.8c0.1-0.1,0.1-0.1,0.1-0.2
			c0-0.1,0-0.1-0.1-0.2c-0.1-0.1-0.1-0.2-0.1-0.2c0-0.1,0-0.1,0.1-0.2c0.2-0.1,0.2-0.2,0.2-0.4c0-0.3-0.4-0.4-1.1-0.4
			c-0.4,0-0.6,0.2-0.6,0.5c0,0.1,0,0.2,0.1,0.3c0.1,0.2,0,0.4,0,0.5c-0.1,0.1-0.4,0.2-1,0.3c-0.6,0.1-1.1,0.2-1.6,0.2h-0.5v-0.6
			c0-0.4,0.1-0.6,0.2-0.7c0.1-0.1,0.2-0.2,0.2-0.4c0-0.3-0.1-0.5-0.2-0.8c-0.1-0.2-0.2-0.4-0.2-0.4c0-0.1,0.1-0.1,0.2-0.3
			c0.2-0.2,0.3-0.4,0.2-0.6c0-0.1,0-0.1,0-0.2c0-0.1,0.1-0.2,0.4-0.3c0.3-0.1,0.8-0.1,1.6-0.1c0.7,0,1.1-0.1,1.1-0.1
			c0.3,0,0.5,0.1,0.7,0.2c0.2,0.2,0.3,0.3,0.5,0.4c0.2,0.1,0.3,0.2,0.3,0.3c0,0.1,0.1,0.3,0.3,0.4c0.2,0.1,0.4,0.3,0.5,0.6
			c0.1,0.4,0.4,0.5,0.8,0.5c0.1,0,0.2,0,0.3-0.1c0.1-0.1,0.2-0.2,0.2-0.6c0-0.3-0.1-0.5-0.2-0.5
			C269.5,784.4,269.5,784.2,269.5,783.9z"/>
		<path d="M299.3,782.2h-1c-0.5,0-0.9,0-1.1-0.1c-0.2-0.1-0.3-0.3-0.3-0.5c0-0.1,0-0.2-0.1-0.2c-0.1,0-0.2,0-0.2,0.1
			c-0.1,0.1-0.3,0.2-0.7,0.2c-0.2,0-0.2,0-0.2-0.1c0-0.1-0.2-0.1-0.7-0.1c-0.5,0-0.8,0.1-0.8,0.2c-0.1,0.1-0.2,0.2-0.4,0.2
			c-0.2,0-0.3,0-0.4,0c-0.1,0-0.1,0-0.2,0c-0.1,0-0.2,0-0.2,0c-0.3,0-0.5,0.1-0.8,0.4c-0.3,0.3-0.5,0.5-0.7,0.5
			c-0.2,0.1-0.4,0.2-0.5,0.5c-0.1,0.3-0.3,0.4-0.6,0.4c-0.5,0.1-0.7,0.4-0.8,1c0,0.2-0.1,0.4-0.2,0.6c-0.1,0.2-0.2,0.5-0.2,0.6
			c0,0.3-0.1,0.4-0.2,0.5c-0.1,0.1-0.1,0.2-0.1,0.4c0,0.2-0.1,0.4-0.2,0.5c-0.1,0.1-0.2,0.6-0.2,1.5c0,1,0.1,1.6,0.2,1.6
			c0.1,0,0.1,0.1,0.1,0.3c0,0.1,0,0.2-0.1,0.2c-0.1,0,0,0.1,0.2,0.4c0.2,0.2,0.4,0.4,0.5,0.4c0.1,0,0.1,0.1,0.2,0.4
			c0.1,0.2,0.3,0.4,0.6,0.8c0.4,0.3,0.6,0.5,0.9,0.6c0.2,0.1,0.2,0.1,0.2,0.2c0,0.1,0.3,0.2,1,0.3c0.6,0.1,1.4,0.1,2.1,0.1
			c1.1,0,1.8-0.1,2-0.3c0.2-0.2,0.5-0.3,0.8-0.4c0.4-0.1,0.7-0.2,0.8-0.5c0.2-0.3,0.4-0.6,0.7-0.9c0.3-0.3,0.5-0.5,0.5-0.6
			c0-0.1-0.1-0.2-0.3-0.3c-0.4-0.2-0.6-0.3-0.8-0.3c-0.1,0-0.2,0.1-0.3,0.3c-0.1,0.3-0.2,0.4-0.4,0.4c-0.2,0-0.4,0.1-0.7,0.4
			c-0.2,0.3-0.4,0.3-0.5,0.2c-0.1-0.1-0.2-0.1-0.4,0.1c-0.1,0.1-0.4,0.2-0.7,0.2c-0.1,0-0.4,0-0.9-0.1c-0.7,0-1.1-0.1-1.3-0.2
			c-0.2-0.1-0.3-0.3-0.3-0.6c0-0.2-0.2-0.5-0.6-0.9c-0.3-0.3-0.5-0.5-0.6-0.7c-0.1-0.2-0.2-0.5-0.3-1c-0.1-0.7-0.2-1.1-0.3-1.1
			c-0.1,0-0.1-0.1-0.1-0.2c0-0.1,0-0.2,0.1-0.3c0.2,0,0.3-0.7,0.3-1.9c0-0.2,0.1-0.3,0.3-0.3c0.2,0,0.3-0.1,0.2-0.3
			c-0.1-0.3,0.1-0.4,0.4-0.6c0.3-0.1,0.5-0.3,0.5-0.4c0-0.1,0.1-0.3,0.3-0.4c0.2-0.1,0.5-0.2,0.7-0.2c0.2,0,0.3-0.1,0.3-0.2
			c0-0.1,0.2-0.2,0.7-0.3c0.1,0,0.1,0,0.2,0c0.1,0,0.1,0,0.2,0c0.6,0,1,0.2,1.2,0.5c0.1,0.2,0.3,0.3,0.6,0.4c0.2,0,0.3,0.1,0.3,0.1
			c0,0.1,0.1,0.1,0,0.3c-0.1,0.2,0,0.3,0.1,0.4c0.1,0.1,0.3,0.4,0.4,1c0.1,0.4,0.1,0.7,0.2,0.8c0.1,0.1,0.2,0.2,0.4,0.3
			c0.3,0.1,0.4,0.2,0.4,0.4c0,0.1,0,0.1,0,0.1c0,0,0.1,0,0.1,0c0.1-0.1,0.2-0.6,0.2-1.6c0-1,0.1-1.6,0.2-1.6c0.1-0.1,0.1-0.3,0-0.8
			L299.3,782.2z"/>
		<path d="M317.6,783h-0.2c-0.4,0-0.8-0.1-1-0.3c-0.2-0.1-0.3-0.2-0.4-0.2c0,0-0.1,0.1-0.1,0.2c0,0.1,0,0.2-0.1,0.2
			c-0.1,0-0.4,0-0.8,0.1c-0.6,0-1,0-1,0.1c-0.1,0.1-0.1,0.3-0.1,0.7l0,0.6l0.8,0.1l0.8,0v2.3c0,1.5,0,2.3,0.1,2.4
			c0.1,0,0.1,0.1-0.1,0.3c-0.1,0.2-0.2,0.4-0.2,0.5v0.2c0,0.3,0,0.6-0.1,0.9c-0.1,0.3-0.2,0.5-0.3,0.5c-0.1,0.1-0.2,0.1-0.2,0.3
			c0,0.1-0.1,0.3-0.3,0.4c-0.2,0.2-0.4,0.2-0.6,0.2c-0.3,0-0.4,0.1-0.5,0.2c-0.1,0.1-0.2,0.2-0.4,0.2c-0.1,0-0.2,0-0.5-0.1
			c-0.5-0.1-0.7-0.1-0.8-0.2c0-0.1-0.2-0.1-0.4-0.1c-0.2,0-0.4-0.1-0.8-0.2c-0.2-0.1-0.3-0.2-0.4-0.3c-0.1-0.1-0.1-0.2-0.1-0.5V791
			v-0.3c0-0.4,0-0.6-0.1-0.6c-0.1,0-0.2-0.1-0.1-0.3c0-0.2,0.1-0.3,0.2-0.3c0.1-0.1,0.1-0.1,0-0.2c-0.1,0-0.1-0.1-0.1-0.2
			c0-0.1,0-0.2,0-0.3c0-0.1,0.1-0.1,0.1-0.1c0.1,0,0.1-0.3,0.1-0.9c0-0.9-0.1-1.4-0.2-1.5c-0.1-0.1-0.1-0.2,0-0.3
			c0.1-0.1,0.2-0.4,0.2-0.8c0-0.1,0-0.2,0-0.3c0-0.1-0.1-0.2-0.1-0.3c0-0.1,0-0.1,0-0.1c0-0.1,0.5-0.1,1.4-0.1c0.1,0,0.1,0,0.2,0
			c0.1,0,0.1,0,0.2,0h0c0,0,0.1-0.1,0.1-0.2c0-0.1,0-0.3-0.1-0.6c0-0.2-0.1-0.4-0.3-0.5c-0.2-0.1-0.5-0.1-1-0.1
			c-0.1,0-0.6,0-1.5,0.1c-1.4,0.1-2.1,0.2-2.3,0.4c-0.2,0.2-0.2,0.4-0.2,0.5c0,0.4,0.3,0.6,1,0.7c0.5,0.1,0.7,0.2,0.7,0.4
			c0,0.1-0.1,0.2-0.2,0.3c-0.2,0.1-0.2,0.4-0.1,0.7c0.1,0.3,0.1,0.6,0,0.6c-0.1,0.1-0.2,0.1-0.3,0.1c-0.1,0-0.1,0-0.1,0.1
			c0,0.2,0.1,0.4,0.4,0.5c0.2,0.1,0.4,0.2,0.4,0.4c0,0.1-0.1,0.2-0.2,0.3c-0.1,0.1-0.2,0.4-0.2,0.9v0.4c0,0.8,0.1,1.3,0.2,1.3
			c0.1,0.1,0.1,0.2,0.1,0.5c0,0.2,0,0.3-0.1,0.3c-0.1,0-0.1,0.1-0.2,0.4c-0.1,0.3,0,0.4,0.2,0.5c0.1,0.1,0.3,0.3,0.4,0.6
			c0.1,0.3,0.2,0.5,0.3,0.5c0.1,0,0.1,0.1,0.2,0.4c0.1,0.3,0.2,0.4,0.4,0.4c0.2,0,0.4,0,0.5,0.1c0.1,0.1,1,0.2,2.5,0.2
			c1.3,0,1.9-0.1,1.9-0.2s0.1-0.2,0.2-0.2c0.1,0,0.2-0.1,0.3-0.2c0.1-0.1,0.2-0.2,0.4-0.2c0.2,0,0.3-0.1,0.3-0.3
			c0-0.1,0.1-0.2,0.1-0.3c0.1,0,0.2,0,0.5,0h0.1c0.3,0,0.5,0,0.5-0.1c0-0.1-0.1-0.1-0.2-0.2c-0.1-0.1-0.2-0.2-0.2-0.3
			c0-0.2,0.1-0.4,0.2-0.6c0.2-0.2,0.2-0.4,0.1-0.4c-0.1,0-0.2-0.1-0.2-0.2c0-0.1,0-0.2,0.1-0.2c0.1,0,0.2-0.2,0.2-0.4
			c0-0.2,0.1-0.6,0.1-0.9c0-0.4,0-0.6,0-0.6c0-0.1,0-0.5,0.1-1.1c0-0.6,0-1.2,0.1-1.7c0-0.5,0.1-0.8,0.2-0.9c0.1-0.1,0.2-0.2,0-0.2
			c-0.1-0.1-0.2-0.1-0.2-0.2c0-0.1,0.1-0.3,0.3-0.4c0.2-0.1,0.4-0.2,0.6-0.2c0.1,0,0.2,0,0.2,0c0,0,0.1,0,0.2,0
			c0.3,0,0.4-0.1,0.4-0.3c0-0.1,0-0.1-0.1-0.2c-0.1-0.1-0.1-0.2,0-0.2c0.1,0,0.1-0.1,0.1-0.2C318.7,783.1,318.3,783,317.6,783z"/>
		<path d="M335.4,782.4c-0.1,0-0.2,0-0.2-0.1s-0.1-0.2-0.4-0.3c-0.3-0.1-0.4-0.3-0.5-0.5l-0.2-0.3c-0.1-0.1-0.2-0.1-0.2,0.1
			c0,0.1-0.3,0.1-0.8,0.1c-0.6,0-0.9,0-0.9-0.1s-0.1-0.1-0.3-0.1c-0.5,0-0.8-0.1-0.8-0.4c0-0.1-0.1-0.2-0.3-0.2s-0.3,0.1-0.2,0.3
			c0,0,0,0,0,0.1c0,0,0,0,0,0.1c0,0.1-0.6,0.2-1.8,0.2h-1.8l-0.5,0.5c-0.3,0.3-0.5,0.5-0.5,0.7c0,0.2,0.2,0.4,0.7,0.4
			c0.2,0,0.3,0,0.3,0.1s0,0.1,0.1,0.1c0.2,0,0.4,0.2,0.6,0.5c0.2,0.3,0.3,0.7,0.3,1.2c0,0.4,0.1,0.6,0.1,0.6c0,0.2-0.1,0.4-0.2,0.5
			c-0.2,0.1-0.2,0.2-0.1,0.3c0.1,0.1,0.2,0.3,0.2,0.7c0,0.3-0.1,0.5-0.2,0.5c-0.2,0-0.2,0,0,0.1c0.1,0.1,0.1,0.3,0,0.6
			c-0.1,0.3-0.1,0.5,0.1,0.6c0.1,0.1,0.1,0.2,0.1,0.3c0,0.2-0.1,0.4-0.2,0.5c-0.1,0.1-0.1,0.6-0.2,1.6l0,1.5l-0.4,0.2
			c-0.2,0.1-0.5,0.2-1.1,0.2c-0.3,0-0.5,0.1-0.5,0.1c-0.1,0.1-0.1,0.2-0.1,0.4c0,0.2,0.2,0.5,0.6,0.8c0.2,0.1,0.3,0.2,0.5,0.2
			c0.2,0,0.3-0.1,0.3-0.2c0.1-0.1,0.8-0.2,2.1-0.2c1.4-0.1,2.1-0.1,2.2-0.3c0.1-0.1,0.2-0.2,0.3-0.2c0.1,0,0.2-0.1,0.2-0.2
			c0-0.1-0.1-0.2-0.4-0.2c-0.3,0-0.4-0.1-0.5-0.3c0-0.2-0.2-0.3-0.5-0.4c-0.4-0.1-0.5-0.2-0.5-0.4c0-0.1,0-0.2,0.1-0.3
			c0.2-0.2,0.2-0.3,0.1-0.4c-0.1,0-0.2-0.6-0.2-1.6c0-0.3,0-0.6,0-1c0-0.3,0-0.4,0.1-0.5c0-0.1,0.1-0.1,0.2-0.1c0.2,0,0.5,0,0.8,0.1
			c0.3,0.1,0.5,0.2,0.6,0.3c0.1,0.1,0.7,0.2,1.7,0.2c0.8,0,1.2,0,1.2-0.1c0.1-0.1,0-0.2-0.2-0.3c-0.2-0.1-0.4-0.2-0.5-0.4
			c-0.1-0.1-0.2-0.2-0.2-0.2c0,0,0.1-0.1,0.3-0.1c0.3-0.1,0.4-0.1,0.4-0.2s0.1-0.2,0.4-0.3c0.3-0.1,0.4-0.2,0.4-0.4
			c0-0.5,0.1-0.7,0.3-0.7c0.1,0,0.2-0.1,0.4-0.2c0.2-0.2,0.2-0.7,0.2-1.5c0-1-0.1-1.5-0.3-1.7C335.6,782.5,335.5,782.4,335.4,782.4z
			 M333.8,786.1c0,0-0.1,0.1-0.4,0.1h-0.1c0,0-0.1,0-0.1,0c-0.1,0-0.1,0,0,0.1c0.1,0.1,0.2,0.1,0.2,0.2c0,0.1-0.1,0.3-0.3,0.5
			c-0.2,0.2-0.5,0.3-0.7,0.3c-0.3,0-0.6,0.1-1.1,0.2c-0.1,0-0.2,0-0.3,0c-0.2,0-0.4-0.1-0.7-0.3c-0.2-0.2-0.3-0.3-0.4-0.3
			c0-0.1,0-0.1,0.1-0.2c0.1-0.1,0.2-0.7,0.2-1.6v-1.2c0-0.3,0.1-0.5,0.2-0.7s0.3-0.4,0.4-0.4h0.1l0.4,0.1c0.3,0,0.5,0.1,0.8,0.1
			c0.2,0.1,0.4,0.1,0.4,0.1c0,0.1,0.1,0.1,0.4,0.2c0.3,0.1,0.4,0.2,0.4,0.3c0,0.1,0.1,0.3,0.2,0.4c0.1,0.1,0.2,0.2,0.1,0.3
			c-0.1,0.1-0.1,0.3,0.1,0.6c0.1,0.2,0.2,0.4,0.2,0.6C333.9,785.3,333.8,785.6,333.8,786.1z"/>
		<path d="M331.6,780.6c0.1,0.1,0.3,0.1,0.4,0c0,0,0,0,0.1,0c0.1-0.1,0.1-0.1,0.1-0.1c0,0-0.1,0-0.3,0
			C331.7,780.5,331.6,780.5,331.6,780.6z"/>
		<path d="M327.1,779.6c0,0.1,0.1,0.2,0.3,0.2c0.2,0,0.3-0.1,0.3-0.2c0-0.1-0.1-0.1-0.3-0.1C327.2,779.5,327.1,779.5,327.1,779.6z"
			/>
		<path d="M351.4,789.5c0-0.6-0.1-0.9-0.2-1.1c-0.1-0.2-0.3-0.4-0.6-0.5c-0.3-0.1-0.5-0.3-0.5-0.4c-0.1-0.1-0.3-0.3-0.9-0.6
			c-0.5-0.3-1-0.5-1.3-0.6c-0.2-0.1-0.5-0.2-0.9-0.5c-0.4-0.3-0.6-0.4-0.6-0.5c0-0.1-0.1-0.2-0.2-0.3c-0.2-0.1-0.2-0.2-0.2-0.3
			c0,0,0-0.1,0-0.1c0.1-0.1,0.1-0.2,0.1-0.3c0-0.1,0-0.3-0.1-0.6c0-0.1,0-0.2,0-0.2c0,0,0.2-0.1,0.3-0.1c0.3,0,0.4-0.1,0.4-0.2
			c0-0.1,0.1-0.2,0.4-0.4c0.3-0.2,0.4-0.3,0.4-0.3c0-0.1,0.1-0.1,0.4-0.2c0.1,0,0.1,0,0.2,0c0.4,0,0.8,0.2,1.2,0.5
			c0.5,0.3,0.7,0.6,0.7,0.9c0,0.2,0.1,0.4,0.3,0.5c0.2,0.1,0.3,0.3,0.3,0.4s0.1,0.3,0.2,0.5s0.3,0.3,0.4,0.3c0,0,0,0,0.1,0
			c0.1-0.1,0.1-0.7,0.2-2v-0.8c0-0.6-0.1-0.9-0.2-0.9c-0.1,0-0.1,0-0.1,0c-0.3,0.1-0.6,0.2-0.8,0.2c-0.3,0-0.6-0.1-1-0.3
			c-0.4-0.2-0.6-0.3-0.7-0.3c0,0-0.1,0-0.2,0.1c-0.3,0.1-0.6,0.1-0.8,0.1c-0.3,0-0.4,0-0.5,0.1c0,0.1-0.1,0.2-0.3,0.2
			c-0.2,0-0.4-0.1-0.5-0.2c-0.1-0.1-0.3-0.2-0.5-0.2h0c-0.1,0-0.1,0-0.1,0c-0.1,0-0.1,0-0.1,0c0,0,0.1,0,0.1,0
			c0.1,0.1,0.2,0.1,0.2,0.2c0,0.2-0.2,0.3-0.5,0.4c-0.3,0.1-0.4,0.2-0.4,0.4c0.1,0.2,0,0.3-0.2,0.4c-0.3,0.1-0.6,0.5-1.1,1.1
			c-0.1,0.2-0.2,0.4-0.2,0.6c0,0,0,0.3,0.1,0.8c0.1,0.7,0.3,1.1,0.4,1.3c0.1,0.2,0.4,0.4,0.7,0.7c0.4,0.3,0.6,0.4,0.8,0.4
			c0.1,0,0.3,0.1,0.6,0.4c0.4,0.3,0.9,0.6,1.7,0.8c0.5,0.1,0.8,0.3,1.1,0.6c0.2,0.2,0.3,0.4,0.5,0.7c0.1,0.3,0.2,0.5,0.2,0.7
			c0,0.1,0,0.1-0.1,0.2c-0.1,0-0.1,0.2-0.1,0.4c0.1,0.2,0,0.4-0.2,0.6c-0.1,0.1-0.2,0.3-0.2,0.4c0,0.2-0.5,0.4-1.4,0.5
			c-0.1,0-0.3,0-0.6,0c-0.9,0-1.7-0.4-2.2-1.2c-0.3-0.4-0.5-0.8-0.5-1c0,0,0-0.1,0-0.2c0-0.1,0-0.2,0-0.2c0,0-0.1-0.1-0.1-0.1
			c-0.1,0-0.1,0-0.1-0.1c0.1-0.3-0.1-0.5-0.4-0.6c-0.1,0-0.2-0.1-0.3-0.1c-0.3,0-0.4,0.2-0.5,0.5c-0.1,1.2-0.1,1.9-0.2,1.9
			c-0.1,0.1-0.1,0.4-0.2,0.8c0,0.1,0,0.3,0,0.4c0,0.2,0.1,0.4,0.3,0.6c0.1,0.1,0.2,0.2,0.3,0.2c0,0,0.1,0,0.2-0.2
			c0.1-0.2,0.2-0.3,0.2-0.4c0-0.3,0.2-0.3,0.5-0.1c0.9,0.5,1.8,0.7,2.9,0.7c0.5,0,1.1-0.1,1.6-0.2c0.6-0.1,1.1-0.3,1.4-0.6
			c0.3-0.3,0.5-0.5,0.5-0.5c0-0.1,0.1-0.2,0.2-0.3c0.2-0.1,0.3-0.4,0.3-0.9c0.1-0.5,0.1-0.7,0.2-0.7c0.1,0,0.1,0,0-0.1
			C351.5,790.6,351.4,790.2,351.4,789.5z M347,788C347,788,347,787.9,347,788c-0.1-0.1-0.1-0.1,0-0.1S347.1,787.9,347,788
			C347.1,787.9,347.1,788,347,788z"/>
		<path d="M345.5,788.7c0-0.1,0-0.2-0.1-0.2c-0.1,0-0.1,0-0.1,0.1l0.1,0.2C345.5,789,345.5,788.9,345.5,788.7z"/>
		<path d="M503.8,18.2c-1.6-17.9-18.7-16.3-31.6-16.3c-45.9,0-91.8,0-137.6,0c-63.2,0-126.3,0-189.5,0c-40.6,0-81.2,0-121.8,0
			c-2.6,0-5.3-0.2-8,0.2c-9.5,1.2-15,9.2-15.2,18.2c-0.2,7.3,0,14.5,0,21.8c0,37.4,0,74.9,0,112.3c0,57,0,114.1,0,171.1
			c0,64.3,0,128.6,0,192.9c0,58.4,0,116.7,0,175.1c0,40.1,0,80.2,0,120.3c0,9.1,0,18.2,0,27.3c0,11.7,6.7,20.5,19.2,20.7
			c35.9,0.6,71.9,0,107.9,0c62.4,0,124.9,0,187.3,0c49.7,0,99.5,0,149.2,0c7.6,0,15.2,0,22.9,0c0.4,0,0.8-0.1,1.2-0.2
			c14.4-1.8,16.1-13.8,16.1-25.5c0-11.4,0-22.8,0-34.3c0-43.4,0-86.9,0-130.3c0-59.9,0-119.8,0-179.8c0-63.9,0-127.7,0-191.6
			c0-55.3,0-110.6,0-165.9c0-33.7,0-67.3,0-101C503.9,28.3,504.2,23.2,503.8,18.2z M486.6,852.8c-28.3,0-56.6,0-84.9,0
			c-59.9,0-119.8,0-179.7,0c-54,0-108,0-162,0c-13.1,0-26.1,0-39.2,0c-5.6,0-11-1.3-11.7-8.3c-0.2-1.5,0-3,0-4.5c0-26.5,0-53,0-79.5
			c0-50,0-100,0-149.9c0-61.8,0-123.6,0-185.4c0-61.4,0-122.7,0-184.1c0-48.9,0-97.7,0-146.6c0-24.2-0.8-48.6,0-72.7
			c0.2-5.3,1.6-10.1,8.3-10.8c2.2-0.2,4.5,0,6.7,0c14.8,0,29.6,0,44.5,0c55.6,0,111.3,0,166.9,0c58.9,0,117.8,0,176.7,0
			c18.9,0,37.9,0,56.8,0c8.1,0,24.7-3.1,25.9,8.4c0.5,5.2,0,10.8,0,16.1c0,13.5,0,27.1,0,40.6c0,45.5,0,91.1,0,136.6
			c0,60.1,0,120.2,0,180.3c0,62.6,0,125.1,0,187.7c0,52.8,0,105.6,0,158.4c0,31.4,0,62.7,0,94.1C494.8,840.3,496.9,852,486.6,852.8z
			"/>
		<path d="M460,790.9c1.2,0.1,2.4-0.7,2.4-2.2c0-23.7,0-47.4,0-71.1c0-56.4,0-112.8,0-169.2c0-68.7,0-137.4,0-206
			c0-59,0-117.9,0-176.9c0-19.6,0-39.2,0-58.8c0-8.9,1.3-19,0-27.9c-0.1-0.4,0-0.8,0-1.2c0-0.8-0.3-1.3-0.8-1.7
			c0.1-1.2-0.6-2.5-2.2-2.6c-13.1-0.5-25.3-13.8-25.8-26.7c0-0.5-0.2-0.8-0.4-1.1c-0.3-0.6-1-1.1-1.9-1.1c-40.5,0-80.9,0-121.4,0
			c-64.5,0-129,0-193.6,0c-14.9,0-29.7,0-44.6,0c-0.9,0-1.6,0.5-1.9,1.1c-0.2,0.3-0.3,0.7-0.4,1.2C69.1,59.5,57,72.8,43.9,73.3
			c-1.8,0.1-2.5,1.9-2,3.2c-0.2,0.3-0.2,0.6-0.2,1c0,23.7,0,47.4,0,71.1c0,56.4,0,112.8,0,169.2c0,68.7,0,137.4,0,206
			c0,59,0,117.9,0,176.9c0,19.6,0,39.2,0,58.8c0,8.9-1.3,19,0,27.9c0.1,0.4,0,0.8,0,1.2c0,0.9,0.5,1.6,1.1,1.9
			c0.3,0.2,0.7,0.3,1.2,0.4c13,0.5,25.3,13.3,25.8,26.2c0,0.5,0.2,0.8,0.4,1.1c0.3,0.6,1,1.1,1.9,1.1c40.5,0,80.9,0,121.4,0
			c64.5,0,129,0,193.6,0c14.9,0,29.7,0,44.6,0c0.9,0,1.6-0.5,1.9-1.1c0.2-0.3,0.3-0.7,0.4-1.2c0.5-12.9,12.7-25.7,25.8-26.2
			C459.6,791,459.8,790.9,460,790.9z M429.3,814.9c-39.8,0-79.6,0-119.3,0c-64.5,0-129,0-193.6,0c-14.2,0-28.3,0-42.5,0
			c-1.7-13.9-13.9-26.5-27.8-28.3c0-23,0-46,0-69.1c0-56.4,0-112.8,0-169.2c0-68.7,0-137.4,0-206c0-59,0-117.9,0-176.9
			c0-19.6,0-39.2,0-58.8c0-8.9,1.3-19,0-27.9c-0.1-0.4,0-0.8,0-1.2c14-1.8,26.1-14.9,27.8-28.7c39.8,0,79.6,0,119.3,0
			c64.5,0,129,0,193.6,0c14.2,0,28.3,0,42.5,0c1.7,14.1,14.3,27.4,28.5,28.8c0,23.7,0,47.3,0,71c0,56.4,0,112.8,0,169.2
			c0,68.7,0,137.4,0,206c0,59,0,117.9,0,176.9c0,19.6,0,39.2,0,58.8c0,8.6-1.2,18.4-0.1,27C443.6,788.1,431.1,800.9,429.3,814.9z"/>
		<polygon points="51.7,807.5 44,812.7 41.2,798.7 38.4,812.7 30.7,807.5 35.9,815.3 21.8,818 35.9,820.8 30.7,828.5 38.4,823.3 
			41.2,837.4 43.9,823.4 51.7,828.5 46.5,820.8 60.5,818 46.5,815.3 		"/>
		<polygon points="468.1,815.3 473.3,807.5 465.5,812.7 462.8,798.7 460,812.7 452.3,807.5 457.5,815.3 443.4,818 457.5,820.8 
			452.3,828.5 460,823.3 462.8,837.4 465.5,823.4 473.3,828.5 468.1,820.8 482.1,818 		"/>
		<polygon points="30.7,56.3 38.4,51.1 41.2,65.1 44,51.1 51.7,56.3 46.5,48.5 60.5,45.8 46.5,43 51.7,35.3 43.9,40.4 41.2,26.4 
			38.4,40.5 30.7,35.3 35.9,43 21.8,45.8 35.9,48.5 		"/>
		<polygon points="473.3,35.3 465.5,40.4 462.8,26.4 460,40.5 452.3,35.3 457.5,43 443.4,45.8 457.5,48.5 452.3,56.3 460,51.1 
			462.8,65.1 465.5,51.1 473.3,56.3 468.1,48.5 482.1,45.8 468.1,43 		"/>
		<path d="M372.6,245.4c0,0,0.5,0,1.2,0C373.1,245.4,372.6,245.4,372.6,245.4z"/>
		<path d="M399.8,216.1c0,4.2-0.4,20-4.4,24.6c-3.5,4.1-17.3,4.6-21.5,4.6c4.2,0,18,0.5,21.5,4.6c4,4.7,4.4,20.4,4.4,24.6
			c0-4.2,0.4-20,4.4-24.6c3.5-4.1,17.3-4.6,21.5-4.6c-4.2,0-18-0.5-21.5-4.6C400.1,236.1,399.8,220.3,399.8,216.1z"/>
		<path d="M425.7,245.4c0.8,0,1.2,0,1.2,0S426.4,245.4,425.7,245.4z"/>
		<path d="M399.8,275.7c0,0,0-0.4,0-1.1C399.8,275.3,399.8,275.7,399.8,275.7z"/>
		<path d="M399.8,215.1c0,0,0,0.4,0,1.1C399.8,215.5,399.8,215.1,399.8,215.1z"/>
		<path d="M105.1,311.2c0,0,0,0.1,0,0.4C105.1,311.3,105.1,311.2,105.1,311.2z"/>
		<path d="M115.5,322.3c0,0-0.2,0-0.4,0C115.4,322.3,115.5,322.3,115.5,322.3z"/>
		<path d="M105.1,333.1c0-1.5,0.1-7.3,1.7-9.1c1.4-1.5,6.8-1.7,8.4-1.7c-1.5,0-7-0.2-8.4-1.7c-1.5-1.7-1.7-7.5-1.7-9.1
			c0,1.5-0.1,7.3-1.7,9.1c-1.4,1.5-6.8,1.7-8.4,1.7c1.5,0,7,0.2,8.4,1.7C104.9,325.7,105.1,331.5,105.1,333.1z"/>
		<path d="M95,322.3c-0.3,0-0.4,0-0.4,0S94.7,322.3,95,322.3z"/>
		<path d="M105.1,333.4c0,0,0-0.1,0-0.4C105.1,333.3,105.1,333.4,105.1,333.4z"/>
		<path d="M377.9,305.7c0,0,0.2,0,0.4,0C378,305.7,377.9,305.7,377.9,305.7z"/>
		<path d="M388.4,294.6c0,0,0,0.1,0,0.4C388.4,294.8,388.4,294.6,388.4,294.6z"/>
		<path d="M388.4,295c0,1.5-0.1,7.3-1.7,9.1c-1.4,1.5-6.8,1.7-8.4,1.7c1.5,0,7,0.2,8.4,1.7c1.5,1.7,1.7,7.5,1.7,9.1
			c0-1.5,0.1-7.3,1.7-9.1c1.4-1.5,6.8-1.7,8.4-1.7c-1.5,0-7-0.2-8.4-1.7C388.5,302.3,388.4,296.5,388.4,295z"/>
		<path d="M398.4,305.7c0.3,0,0.4,0,0.4,0S398.7,305.7,398.4,305.7z"/>
		<path d="M388.4,316.9c0,0,0-0.1,0-0.4C388.4,316.7,388.4,316.9,388.4,316.9z"/>
		<path d="M162.4,165.8c0,0-0.4,0-1,0C162,165.8,162.4,165.8,162.4,165.8z"/>
		<path d="M139.5,190c0,0,0-0.3,0-0.8C139.5,189.7,139.5,190,139.5,190z"/>
		<path d="M139.5,141.6c0,0,0,0.3,0,0.8C139.5,141.9,139.5,141.6,139.5,141.6z"/>
		<path d="M117.7,165.8c-0.7,0-1,0-1,0S117.1,165.8,117.7,165.8z"/>
		<path d="M139.5,189.1c0-3.4,0.3-16,3.7-19.7c3-3.3,14.6-3.7,18.1-3.7c-3.5,0-15.1-0.4-18.1-3.7c-3.4-3.7-3.7-16.3-3.7-19.7
			c0,3.4-0.3,16-3.7,19.7c-3,3.3-14.6,3.7-18.1,3.7c3.5,0,15.1,0.4,18.1,3.7C139.2,173.2,139.5,185.8,139.5,189.1z"/>
		<path d="M361.9,548.1c0,0,0,0.1,0,0.3C361.9,548.2,361.9,548.1,361.9,548.1z"/>
		<path d="M352.9,557.7c0,0,0.1,0,0.4,0C353,557.7,352.9,557.7,352.9,557.7z"/>
		<path d="M370.7,557.7c-1.3,0-6-0.1-7.3-1.5c-1.3-1.5-1.5-6.5-1.5-7.8c0,1.3-0.1,6.4-1.5,7.8c-1.2,1.3-5.9,1.5-7.3,1.5
			c1.3,0,6,0.1,7.3,1.5c1.3,1.5,1.5,6.5,1.5,7.8c0-1.3,0.1-6.4,1.5-7.8C364.6,557.8,369.3,557.7,370.7,557.7z"/>
		<path d="M361.9,567.3c0,0,0-0.1,0-0.3C361.9,567.2,361.9,567.3,361.9,567.3z"/>
		<path d="M371,557.7c0,0-0.1,0-0.4,0C370.9,557.7,371,557.7,371,557.7z"/>
		<path d="M172.5,591.6c0.7,0,1.1,0,1.1,0S173.2,591.6,172.5,591.6z"/>
		<path d="M148.9,565.4c0,0,0,0.3,0,0.9C148.9,565.8,148.9,565.4,148.9,565.4z"/>
		<path d="M148.9,617.8c0,0,0-0.3,0-0.9C148.9,617.5,148.9,617.8,148.9,617.8z"/>
		<path d="M148.9,566.4c0,3.6-0.4,17.3-4,21.3c-3.2,3.6-15.8,4-19.6,4c3.8,0,16.4,0.4,19.6,4c3.6,4,4,17.6,4,21.3
			c0-3.6,0.4-17.3,4-21.3c3.2-3.6,15.8-4,19.6-4c-3.8,0-16.4-0.4-19.6-4C149.3,583.6,149,570,148.9,566.4z"/>
		<path d="M124.2,591.6c0,0,0.4,0,1.1,0C124.6,591.6,124.2,591.6,124.2,591.6z"/>
		<path d="M94.6,363.4c0,0,0.6,0,1.6,0C95.2,363.4,94.6,363.4,94.6,363.4z"/>
		<path d="M130.1,325.7c0,0,0,0.5,0,1.3C130.1,326.2,130.1,325.7,130.1,325.7z"/>
		<path d="M130.1,401.1c0,0,0-0.5,0-1.3C130.1,400.7,130.1,401.1,130.1,401.1z"/>
		<path d="M165.7,363.4c0,0-0.6,0-1.6,0C165.1,363.5,165.7,363.4,165.7,363.4z"/>
		<path d="M130.1,399.8c0-5.2,0.5-24.8,5.7-30.6c4.6-5.1,22.7-5.7,28.2-5.7c-5.5,0-23.5-0.6-28.2-5.7c-5.2-5.8-5.7-25.4-5.7-30.6
			c0,5.2-0.5,24.8-5.7,30.6c-4.6,5.1-22.7,5.7-28.2,5.7c5.5,0,23.5,0.6,28.2,5.7C129.6,375,130.1,394.6,130.1,399.8z"/>
		<path d="M345,677c0,0,0.4,0,1,0C345.4,677,345,677,345,677z"/>
		<path d="M389.3,677c0.7,0,1,0,1,0S389.9,677,389.3,677z"/>
		<path d="M367.7,653.8c0,3.3-0.3,15.8-3.7,19.5c-3,3.3-14.4,3.6-17.9,3.7c3.5,0,15,0.4,17.9,3.7c3.3,3.7,3.6,16.2,3.7,19.5
			c0-3.3,0.3-15.8,3.7-19.5c3-3.3,14.4-3.6,17.9-3.7c-3.5,0-15-0.4-17.9-3.7C368,669.6,367.7,657.2,367.7,653.8z"/>
		<path d="M367.7,653c0,0,0,0.3,0,0.8C367.7,653.3,367.7,653,367.7,653z"/>
		<path d="M367.7,701c0,0,0-0.3,0-0.8C367.7,700.6,367.7,701,367.7,701z"/>
		<path d="M372.6,256.1c0,0-0.2,0-0.5,0C372.4,256.1,372.6,256.1,372.6,256.1z"/>
		<path d="M348.4,256.1c-0.3,0-0.5,0-0.5,0S348.1,256.1,348.4,256.1z"/>
		<path d="M360.2,243c0,0,0,0.2,0,0.4C360.2,243.1,360.2,243,360.2,243z"/>
		<path d="M360.2,269.2c0,0,0-0.2,0-0.4C360.2,269.1,360.2,269.2,360.2,269.2z"/>
		<path d="M360.2,268.8c0-1.8,0.2-8.7,2-10.7c1.6-1.8,8-2,9.9-2c-1.8,0-8.2-0.2-9.9-2c-1.8-2-2-8.9-2-10.7c0,1.8-0.2,8.7-2,10.7
			c-1.6,1.8-8,2-9.9,2c1.8,0,8.2,0.2,9.9,2C360.1,260.1,360.2,267,360.2,268.8z"/>
		<path d="M124.2,688c0,0,0-0.1,0-0.4C124.2,687.8,124.2,688,124.2,688z"/>
		<path d="M134.2,677c0.3,0,0.4,0,0.4,0S134.4,677,134.2,677z"/>
		<path d="M124.2,666.3c0,1.5-0.1,7.3-1.7,8.9c-1.4,1.5-6.7,1.7-8.3,1.7c1.5,0,6.9,0.2,8.3,1.7c1.5,1.7,1.7,7.4,1.7,8.9
			c0-1.5,0.1-7.3,1.7-8.9c1.4-1.5,6.7-1.7,8.3-1.7c-1.5,0-6.9-0.2-8.3-1.7C124.4,673.6,124.2,667.8,124.2,666.3z"/>
		<path d="M113.9,677c0,0,0.2,0,0.4,0C114,677,113.9,677,113.9,677z"/>
		<path d="M124.2,666c0,0,0,0.1,0,0.4C124.2,666.1,124.2,666,124.2,666z"/>
		<path d="M336.2,431c-1.1,0-1.9,0.9-1.9,2l0,0.5c0,1.1,0.9,1.9,1.9,1.9c0,0,0,0,0,0c1.1,0,1.9-0.9,1.9-2l0-0.5
			C338.1,431.9,337.2,431,336.2,431z"/>
		<path d="M335.7,538.1c-1.1,0-2,0.8-2,1.9l0,1c0,1.1,0.8,2,1.9,2c0,0,0.1,0,0.1,0c1,0,1.9-0.8,1.9-1.9l0-1
			C337.6,539.1,336.8,538.2,335.7,538.1z"/>
		<path d="M334.4,455c0,1.1,0.9,1.9,1.9,1.9c0,0,0,0,0,0c1.1,0,1.9-0.9,1.9-2l0-1l-1.3,0l-2.6,0L334.4,455z"/>
		<polygon points="336.3,454 337,454 338.3,454 		"/>
		<path d="M336.2,441.3c-1.1,0-1.9,0.9-1.9,2l0,1c0,1.1,0.9,1.9,1.9,1.9c0,0,0,0,0,0c1.1,0,1.9-0.9,1.9-2l0-1
			C338.2,442.1,337.3,441.3,336.2,441.3z"/>
		<path d="M334.5,475.5l0,1c0,1.1,0.9,1.9,1.9,1.9c0,0,0,0,0,0c1.1,0,1.9-0.9,1.9-2l0-1c0-1.1-0.9-2-2-1.9
			C335.4,473.6,334.5,474.5,334.5,475.5z"/>
		<path d="M336.4,462.8c-1.1,0-1.9,0.9-1.9,2l0,1c0,1.1,0.9,1.9,1.9,1.9c0,0,0,0,0,0c1.1,0,1.9-0.9,1.9-2l0-1
			C338.4,463.7,337.5,462.8,336.4,462.8z"/>
		<path d="M336,527.4c-1.1,0-2,0.8-2,1.9l0,1c0,1.1,0.8,2,1.9,2c0,0,0,0,0.1,0c1,0,1.9-0.8,1.9-1.9l0-1
			C338,528.3,337.1,527.4,336,527.4z"/>
		<path d="M325.9,603.5l-0.3,0.9c-0.3,1,0.3,2.1,1.3,2.4c0.2,0.1,0.4,0.1,0.5,0.1c0.8,0,1.6-0.6,1.9-1.4l0.3-1
			c0.3-1-0.3-2.1-1.4-2.4C327.3,601.9,326.2,602.5,325.9,603.5z"/>
		<path d="M330.1,582.7l-0.1,1c-0.2,1.1,0.6,2.1,1.6,2.2c0.1,0,0.2,0,0.3,0c0.9,0,1.8-0.7,1.9-1.7l0.1-1c0.2-1.1-0.6-2.1-1.6-2.2
			C331.3,580.9,330.3,581.6,330.1,582.7z"/>
		<path d="M326.2,615c0.4-1-0.1-2.1-1.1-2.5c-1-0.4-2.1,0.1-2.5,1.1c-0.1,0.3-0.2,0.6-0.4,0.9c-0.4,1,0.1,2.1,1,2.5
			c0.2,0.1,0.5,0.2,0.7,0.2c0.8,0,1.5-0.5,1.8-1.2C326,615.6,326.1,615.3,326.2,615z"/>
		<path d="M335.2,548.9c-1.1-0.1-2,0.8-2.1,1.8l-0.1,1c-0.1,1.1,0.8,2,1.8,2.1c0,0,0.1,0,0.1,0c1,0,1.9-0.8,1.9-1.8l0.1-1
			C337.1,549.9,336.3,549,335.2,548.9z"/>
		<path d="M334.5,559.6c-1.1-0.1-2,0.7-2.1,1.8l-0.1,1c-0.1,1.1,0.7,2,1.8,2.1c0.1,0,0.1,0,0.2,0c1,0,1.9-0.8,1.9-1.8l0.1-1
			C336.4,560.7,335.6,559.7,334.5,559.6z"/>
		<path d="M333.3,575.2c1,0,1.8-0.7,1.9-1.7l0.1-1c0.1-1.1-0.7-2-1.7-2.1c-1.1-0.1-2,0.7-2.1,1.7l-0.1,1c-0.1,1.1,0.7,2,1.7,2.1
			C333.1,575.2,333.2,575.2,333.3,575.2z"/>
		<path d="M328.3,593.2l-0.2,0.9c-0.2,1.1,0.5,2.1,1.5,2.3c0.1,0,0.3,0,0.4,0c0.9,0,1.7-0.6,1.9-1.6l0.2-1c0.2-1.1-0.5-2.1-1.5-2.3
			C329.6,591.5,328.6,592.1,328.3,593.2z"/>
		<path d="M302.9,635.7c-0.3,0.1-0.6,0.2-0.9,0.3c-1,0.3-1.6,1.4-1.3,2.5c0.3,0.8,1,1.4,1.9,1.4c0.2,0,0.4,0,0.6-0.1
			c0.3-0.1,0.7-0.2,1-0.3c1-0.4,1.5-1.5,1.2-2.5C305.1,635.8,303.9,635.3,302.9,635.7z"/>
		<path d="M336.3,516.6c-1.1,0-2,0.8-2,1.9l0,1c0,1.1,0.8,2,1.9,2c0,0,0,0,0,0c1.1,0,1.9-0.8,1.9-1.9l0-1
			C338.2,517.5,337.3,516.7,336.3,516.6z"/>
		<path d="M317.9,622.8c-0.2,0.3-0.3,0.5-0.5,0.8c-0.6,0.9-0.3,2.1,0.6,2.7c0.3,0.2,0.7,0.3,1.1,0.3c0.6,0,1.3-0.3,1.6-0.9
			c0.2-0.3,0.4-0.6,0.6-0.9c0.6-0.9,0.3-2.1-0.6-2.7C319.7,621.6,318.5,621.9,317.9,622.8z"/>
		<path d="M292.5,637.4l-0.4,0c-1.1,0-2,0.8-2,1.9c0,1.1,0.8,2,1.9,2l0.5,0l0.5,0c1.1,0,1.9-0.9,1.9-2c0-1.1-0.9-1.9-2-1.9
			L292.5,637.4z"/>
		<path d="M311.5,630.6c-0.2,0.2-0.5,0.4-0.7,0.6c-0.8,0.7-0.9,1.9-0.3,2.7c0.4,0.5,0.9,0.7,1.5,0.7c0.4,0,0.9-0.1,1.2-0.4
			c0.3-0.2,0.5-0.4,0.8-0.7c0.8-0.7,0.9-1.9,0.2-2.7C313.5,630,312.3,629.9,311.5,630.6z"/>
		<path d="M336.5,495.1C336.5,495.1,336.5,495.1,336.5,495.1c-1.1,0-2,0.9-2,1.9l0,1c0,1.1,0.9,2,1.9,2c0,0,0,0,0,0
			c1.1,0,1.9-0.9,1.9-1.9l0-1C338.4,496,337.6,495.1,336.5,495.1z"/>
		<path d="M336.5,484.3c-1.1,0-1.9,0.9-1.9,1.9v1c0,1.1,0.9,1.9,1.9,1.9h0c1.1,0,1.9-0.9,1.9-1.9v-1
			C338.4,485.2,337.6,484.3,336.5,484.3z"/>
		<path d="M336.4,505.9c-1.1,0-2,0.9-2,1.9l0,1c0,1.1,0.9,2,1.9,2c0,0,0,0,0,0c1.1,0,1.9-0.9,1.9-1.9l0-1
			C338.3,506.8,337.5,505.9,336.4,505.9z"/>
		<path d="M282.6,636.2l-0.5-0.1c-1.1-0.2-2.1,0.4-2.3,1.5c-0.2,1.1,0.4,2.1,1.5,2.3l0.5,0.1c0.1,0,0.3,0,0.4,0
			c0.9,0,1.7-0.6,1.9-1.5C284.4,637.5,283.7,636.5,282.6,636.2z"/>
		<path d="M175.1,435.4C175.1,435.4,175.2,435.4,175.1,435.4c1.1,0,2-0.9,1.9-2l0-0.5c0-1.1-0.9-1.9-2-1.9c-1.1,0-1.9,0.9-1.9,2
			l0,0.5C173.2,434.5,174.1,435.4,175.1,435.4z"/>
		<path d="M171.7,486.8c0,1.1,0.8,2,1.9,2c0,0,0,0,0.1,0c1,0,1.9-0.8,1.9-1.9l0-1c0-1.1-0.8-2-1.9-2c-1.1-0.1-2,0.8-2,1.9
			L171.7,486.8z"/>
		<path d="M171.4,497.5c0,1.1,0.8,2,1.9,2c0,0,0,0,0,0c1.1,0,1.9-0.8,1.9-1.9l0-1c0-1.1-0.8-2-1.9-2c-1.1,0-2,0.8-2,1.9L171.4,497.5
			z"/>
		<path d="M171.3,508.2c0,1.1,0.9,1.9,1.9,1.9h0c1.1,0,1.9-0.9,1.9-1.9l0-1c0-1.1-0.9-1.9-1.9-2c0,0,0,0,0,0c-1.1,0-1.9,0.9-1.9,1.9
			L171.3,508.2z"/>
		<path d="M173.5,520.9c1.1,0,1.9-0.9,1.9-2l0-1c0-1.1-0.9-1.9-2-1.9c-1.1,0-1.9,0.9-1.9,2l0,1C171.5,520,172.4,520.9,173.5,520.9
			C173.4,520.9,173.5,520.9,173.5,520.9z"/>
		<path d="M175.1,446.1C175.1,446.1,175.1,446.1,175.1,446.1c1.1,0,2-0.9,2-1.9l0-1c0-1.1-0.9-2-1.9-2c0,0,0,0,0,0
			c-1.1,0-1.9,0.9-1.9,1.9l0,1C173.2,445.2,174,446.1,175.1,446.1z"/>
		<path d="M174,531.5c0.1,0,0.1,0,0.2,0c1.1-0.1,1.9-1,1.8-2.1l-0.1-1c-0.1-1.1-1-1.9-2.1-1.8c-1.1,0.1-1.9,1-1.8,2.1l0.1,1
			C172.2,530.8,173,531.5,174,531.5z"/>
		<path d="M172.9,454.8c0,1.1,0.8,2,1.9,2c0,0,0,0,0.1,0c1,0,1.9-0.8,1.9-1.9l0-1c0-1.1-0.8-2-1.9-2c-1.1,0-2,0.8-2,1.9L172.9,454.8
			z"/>
		<path d="M172.6,465.4c0,1.1,0.8,2,1.9,2c0,0,0,0,0.1,0c1,0,1.9-0.8,1.9-1.9l0-1c0-1.1-0.8-2-1.9-2c-1.1,0-2,0.8-2,1.9L172.6,465.4
			z"/>
		<path d="M172.2,476.1c0,1.1,0.8,2,1.9,2c0,0,0.1,0,0.1,0c1,0,1.9-0.8,1.9-1.9l0-1c0-1.1-0.8-2-1.9-2c-1.1,0-2,0.8-2,1.9
			L172.2,476.1z"/>
		<path d="M196.3,576.5c0.2,0.1,0.5,0.1,0.7,0.1c0.8,0,1.5-0.5,1.8-1.3c0.4-1-0.1-2.1-1.1-2.5c-0.3-0.1-0.6-0.2-0.8-0.3
			c-1-0.4-2.1,0-2.6,1c-0.4,1,0,2.1,1,2.6C195.6,576.2,195.9,576.4,196.3,576.5z"/>
		<path d="M207.3,578.7c0,0,0.1,0,0.1,0c1,0,1.9-0.8,1.9-1.8c0.1-1.1-0.8-2-1.8-2c-0.3,0-0.6,0-0.9-0.1c-1.1-0.1-2,0.7-2.1,1.8
			c-0.1,1.1,0.7,2,1.8,2.1C206.6,578.7,206.9,578.7,207.3,578.7z"/>
		<path d="M174.9,537.3c-1.1,0.2-1.8,1.2-1.6,2.2l0.2,1c0.2,1,1,1.6,1.9,1.6c0.1,0,0.2,0,0.3,0c1.1-0.2,1.8-1.2,1.6-2.2l-0.2-0.9
			C176.9,537.9,175.9,537.1,174.9,537.3z"/>
		<path d="M217.3,578.2c0.3,0,0.7-0.1,1-0.1c1.1-0.2,1.8-1.1,1.6-2.2c-0.2-1.1-1.1-1.8-2.2-1.6c-0.3,0-0.6,0.1-0.9,0.1
			c-1.1,0.1-1.8,1.1-1.7,2.2c0.1,1,1,1.7,1.9,1.7C217.1,578.3,217.2,578.3,217.3,578.2z"/>
		<path d="M175.5,550.2c0.1,0.3,0.2,0.6,0.3,1c0.3,0.8,1,1.4,1.9,1.4c0.2,0,0.4,0,0.6-0.1c1-0.3,1.6-1.4,1.3-2.4
			c-0.1-0.3-0.2-0.6-0.3-0.9c-0.3-1-1.4-1.6-2.4-1.3C175.8,548.1,175.2,549.2,175.5,550.2z"/>
		<path d="M182.9,558.8c-0.5-1-1.7-1.3-2.6-0.9c-1,0.5-1.3,1.7-0.9,2.6c0.2,0.3,0.3,0.6,0.5,0.9c0.4,0.7,1,1,1.7,1
			c0.3,0,0.6-0.1,0.9-0.2c0.9-0.5,1.3-1.7,0.8-2.6C183.2,559.3,183.1,559,182.9,558.8z"/>
		<path d="M189.4,570.4c0.7-0.8,0.7-2-0.1-2.8c-0.2-0.2-0.4-0.4-0.6-0.6c-0.8-0.8-2-0.8-2.8,0c-0.8,0.8-0.8,2,0,2.8
			c0.2,0.2,0.5,0.5,0.7,0.7c0.4,0.4,0.9,0.5,1.3,0.5C188.5,571,189,570.8,189.4,570.4z"/>
		<path d="M227.6,576.1c0.2,0,0.3,0,0.5-0.1l0.5-0.1c1-0.3,1.6-1.4,1.4-2.4c-0.3-1-1.4-1.6-2.4-1.4l-0.5,0.1c-1,0.3-1.7,1.4-1.4,2.4
			C225.9,575.5,226.7,576.1,227.6,576.1z"/>
		<path d="M229.5,386.4c7.4-0.8,15.1,0.9,22.4,2.4c20.3,4.4,40.8,7.3,61,0.2c19.6-6.9,28.5-23.4,29.9-43.4
			c0.8-12.1-0.5-24.5-4.9-35.8c-3.2-8.2-8.5-18.2-16.5-22.5c-14.2-7.6-36.4-8-51.9-2.1c2.3-7.7,1.3-16.4,7-22.8
			c8-8.8,3-24.4-0.4-34.6c-2.2-6.7-6.6-23.6-16-22.8c-5.8,0.5-7.9,6-9.4,10.8c-1.9,6-4,11.8-6.3,17.6c-1.6,3.9-3.4,7.9-3,12.2
			c0.3,3.7,2.1,6.5,4,9.6c1,1.7,2.9,4.2,3,6.2c0.3,5.8-4.6,5.8-8.2,5.8c-7.7-0.1-15-2.9-22.4-4.5c-13.6-2.8-29,1-39.1,10.7
			c-12,11.6-15.7,34-7,48.6c9.3,15.6,28.5,19.5,45.2,16.5c21.6-3.9,40.4-16.8,62.4-19.9c11.7-1.6,24.6-0.2,28,13.3
			c2.9,11.6-5.7,23.5-16.7,26.7c-15,4.4-33,1.5-48.2-0.8c-15.2-2.3-30.2-6.4-44.7,1.1c-14.9,7.8-20.5,23.4-21.7,39.3
			c-0.5,6.7,0.7,12.9,3.4,18.3h-5.5c-2.2,0-4,1.7-4,3.8v4.2c0,2.1,1.8,3.8,4,3.8c0,0,5.7,0,10,0c4.3,0,0,67.6,0,67.6
			c0,27.9,17.2,52.1,41.8,63.1c-0.1,0.4-0.1,0.9-0.1,1.3v1.5c0,4.9,3.9,8.9,8.8,9c0.1,11.6,0,21.8-0.9,23.3
			c-2.2,3.6-6.3,4.3-6.3,9.8s3.2,6.3,6.3,9.8c0.7,0.8,1.3,4.8,1.8,10.5h-0.8c-1.7,0-3.1,1.4-3.1,3.1v4.1c0,1.7,1.4,3.1,3.1,3.1h1.5
			c0.7,14.5,1,33.5,1.3,47.2c-3.7,0.9-6.7,4.7-7.7,9.6c-13.8,5.7-23,13.8-29.6,13.8c-10,0-10.4,0-10.4,0c-0.3,0-0.5,0.2-0.5,0.5v9.3
			c0,0.3,0.2,0.5,0.5,0.5h132.1c0.3,0,0.5-0.2,0.5-0.5V706c0-0.3-0.2-0.5-0.5-0.5c0,0-0.9,0-10.4,0c-6.2,0-15.6-8.2-29.6-13.9
			c-1-4.8-3.9-8.5-7.6-9.5c0.4-13.7,0.9-32.7,1.6-47.2h1c1.7,0,3.1-1.4,3.1-3.1v-4.1c0-1.7-1.4-3.1-3.1-3.1h-0.4
			c0.4-5.7,0.9-9.7,1.4-10.5c2.2-3.6,6.3-4.1,6.3-9.8c0-5.7-3.2-6.3-6.3-9.8c-1.3-1.4-1.5-11.7-1.3-23.3h0.2c4.9,0,9-4,9-9v-1.5
			c0-0.5,0-0.9-0.1-1.3c24.6-11,41.8-35.2,41.8-63.1c0,0-4.6-67.6,0-67.6c4.6,0,10,0,10,0c2.2,0,4-1.7,4-3.8v-4.2
			c0-2.1-1.8-3.8-4-3.8h-10.7c-0.7-2-1.5-4-2.5-5.9c-10.4-20.7-34.4-16.7-53.5-12.6c-8.2,1.8-16.2,4.7-24.3,6.7
			c-6.8,1.7-18.4,5-24.6,0.1c-3.6-2.8-4.3-9-2.1-13C221.3,388.1,225.5,386.9,229.5,386.4z M255.2,547.1c-15.9-0.1-28.7-13.1-28.5-29
			c0-1.3,0.1-2.6,0.3-3.9c1.8,14.1,13.7,25,28.3,25.1c14.6,0.1,26.7-10.6,28.7-24.7c0.2,1.3,0.2,2.5,0.2,3.9
			C284,534.4,271.1,547.2,255.2,547.1z M297.6,446.2c-3.2,0.1-6.2-0.1-8.8-1.1c-4.3-1.5-8.2-4.8-12.4-6.8l17.8,23.1l-24.4-18.8
			c1.9,4.5,5.6,8.8,7.2,13.4c1,2.7,1.2,5.7,1.1,8.8c-0.2,6.3-1.2,14.2,4.8,17.5c-7.5-2.7-8.2-9.7-9.9-15.1c-0.9-2.7-2.2-6.5-4.3-8.7
			c-1.8-1.9-6.3-4.1-8.4-11.3l-4.8,48.9l-4.8-48.9c-2.1,7.2-6.7,9.4-8.4,11.3c-2.1,2.2-3.4,6-4.3,8.7c-1.7,5.3-2.4,12.4-9.9,15.1
			c6-3.3,5-11.1,4.8-17.5c-0.1-3.2,0.1-6.2,1.1-8.8c1.6-4.6,5.3-8.8,7.2-13.4l-24.4,18.8l18.7-24.3c-6.8,4.4-11.9,2.9-14.6,3.1
			c-3,0.2-6.6,2.1-9,3.5c-4.9,2.8-10.1,7.5-17.5,4.4c6.7,1.7,11.2-4.8,15.4-9.6c2-2.4,4.3-4.4,6.8-5.8c4.1-2.2,9.4-2.9,13.8-4.8h49
			c0,0.1,0,0.1,0,0.2c7.7,2,10.1,6.8,12,8.6c2.2,2.1,6,3.4,8.7,4.3c5.3,1.7,12.4,2.4,15,9.9C311.8,445,303.9,446,297.6,446.2z
			 M215.2,400.8c2.7,12.4,18.6,10.1,27.8,8.2c19-4,37.9-12.8,57.8-10.6c11.2,1.2,18.3,8.7,22,18.3H183.2
			c-6.6-12.6-4.9-29.5,2.5-41.9c6.4-10.8,17.9-16.4,30.2-16.9c7.5-0.3,14.7,1.6,22.1,2.8c14.7,2.4,30.1,4.4,45,2.9
			c13.4-1.4,26.6-9.6,28.1-24.2c1.8-17-12.3-25.6-27.4-24.5c-20.6,1.5-38.3,11.9-57.6,18c-22,6.9-54.3,2.8-55.5-26.2
			c-0.6-12.6,2.9-24.9,13.1-33c7.1-5.5,16.1-8.2,25.1-8.2c11.8,0,27.5,9.8,38.8,4.1c4.4-2.2,4.8-6.7,3.2-11
			c-2.3-5.9-7.1-9.7-5.9-16.8c0.9-5.6,4.3-11,6.3-16.3c1.5-4,2-10.1,4.6-13.6c3.6-4.7,7-3.7,9.8,0.4c3.9,5.7,6.1,12.8,8.1,19.4
			c1.8,5.9,3.1,11.5,3.1,17.8c0,3.4,0.1,6.9-1.9,9.7c-0.8,1.1-2.1,1.9-2.9,3c-2.8,3.7-3.5,8.2-4.2,12.6c-1.7,11.8-5,19.1-17.7,21
			c-9.3,1.4-18.1-3.3-26.8-5.9c-7.6-2.2-22-6-25.7,4.2c-1.7,4.8-0.6,12.3,3.2,15.9c4.7,4.4,12.6,3,18.3,2.1
			c9.9-1.6,18.9-7.4,27.3-12.6c1.4,0,2.9-0.1,4.3-0.3c6.2-1,12.9-3.3,16.3-8.8c0.2-0.2,0.3-0.5,0.4-0.8c9-4.3,19.4-4.9,29.2-4.4
			c7.9,0.5,18.3,1.4,24.9,6.2c18.2,13.3,20.9,45.3,16.1,65.3c-2.7,11.2-8.9,20.9-19.3,26.2c-11.5,5.8-25.7,7.8-38.4,7.1
			c-15.9-0.9-31.1-7.3-47-7.2C222.3,383,212.5,388.7,215.2,400.8z M241,298.9c-9.1,5.4-18.3,10.1-29.2,10.6
			c-6.8,0.3-11.3-3.3-11.3-10.4c0-5.1,2.3-7.7,7.3-8.2C219.3,289.6,229.8,296.7,241,298.9z"/>
		<path d="M259.7,89L258,200.7c1.1-0.3,2.2-0.4,3.3-0.5L259.7,89z"/>
		<path d="M250.9,204.6l-4-77.4l1.6,79.8C249.3,206.1,250.1,205.3,250.9,204.6z"/>
		<path d="M239.8,224.4c0.6-2.5,1.4-4.9,2.4-7.3l-8-100l5.3,107.7C239.6,224.7,239.7,224.5,239.8,224.4z"/>
		<path d="M238,259.2l-2-13.8c-0.6-1.4-1.1-2.6-1.2-3.5c-0.2-1.5-0.2-3,0-4.5L221.4,142l12.5,116.3C235.3,258.7,236.6,259,238,259.2
			z"/>
		<path d="M229.9,257.3l-21.2-107.9l17.1,106.7C227.2,256.6,228.5,257,229.9,257.3z"/>
		<path d="M220.5,254.7l-24.6-86.2l20.7,85.4C217.9,254.1,219.2,254.4,220.5,254.7z"/>
		<path d="M209.9,253.2l-20.4-59.6l17,59.6C207.6,253.2,208.7,253.2,209.9,253.2z"/>
		<path d="M199.1,254.2l-22.7-47.1l19.8,47.9C197.1,254.7,198.1,254.5,199.1,254.2z"/>
		<path d="M307.4,272.6l22.6-79L303,272.1C304.5,272.3,305.9,272.5,307.4,272.6z"/>
		<path d="M315.5,273.7l27.5-66.6l-31.8,66C312.6,273.3,314.1,273.5,315.5,273.7z"/>
		<path d="M270.8,204.4l1.6-77.3l-3.9,75.2C269.4,202.9,270.2,203.6,270.8,204.4z"/>
		<path d="M285.2,117.1l-7.7,97.1c1.1,1.2,2,2.7,2.8,4.2L285.2,117.1z"/>
		<path d="M286,240.4c0.3,2.7,0.4,5.4,0.5,8.2L298,142L285,233.4C285.5,235.9,285.8,238.3,286,240.4z"/>
		<path d="M291.2,271.4l19.5-121.9l-24,122.1C288.2,271.4,289.7,271.4,291.2,271.4z"/>
		<path d="M298.5,271.7l25-103.2l-29.4,103C295.6,271.5,297,271.6,298.5,271.7z"/>
	</g>
</g>
</svg>
