<?xml version="1.0" encoding="utf-8"?>
<!-- Generator: Adobe Illustrator 21.1.0, SVG Export Plug-In . SVG Version: 6.00 Build 0)  -->
<svg version="1.1" xmlns="http://www.w3.org/2000/svg" xmlns:xlink="http://www.w3.org/1999/xlink" x="0px" y="0px"
	 viewBox="0 0 504 864" style="enable-background:new 0 0 504 864;" xml:space="preserve">
<style type="text/css">
	.st0{fill:#040404;}
</style>
<g id="Слой_1">
</g>
<g id="Слой_2">
	<g>
		<path d="M503.8,18.2c-1.6-17.9-18.7-16.3-31.6-16.3c-45.9,0-91.8,0-137.6,0c-63.2,0-126.3,0-189.5,0c-40.6,0-81.2,0-121.8,0
			c-2.6,0-5.3-0.2-8,0.2c-9.5,1.2-15,9.2-15.2,18.2c-0.2,7.3,0,14.5,0,21.8c0,37.4,0,74.9,0,112.3c0,57,0,114.1,0,171.1
			c0,64.3,0,128.6,0,192.9c0,58.4,0,116.7,0,175.1c0,40.1,0,80.2,0,120.3c0,9.1,0,18.2,0,27.3c0,11.7,6.7,20.5,19.2,20.7
			c35.9,0.6,71.9,0,107.9,0c62.4,0,124.9,0,187.3,0c49.7,0,99.5,0,149.2,0c7.6,0,15.2,0,22.9,0c0.4,0,0.8-0.1,1.2-0.2
			c14.4-1.8,16.1-13.8,16.1-25.5c0-11.4,0-22.8,0-34.3c0-43.4,0-86.9,0-130.3c0-59.9,0-119.8,0-179.8c0-63.9,0-127.7,0-191.6
			c0-55.3,0-110.6,0-165.9c0-33.7,0-67.3,0-101C503.9,28.3,504.2,23.2,503.8,18.2z M486.6,852.8c-28.3,0-56.6,0-84.9,0
			c-59.9,0-119.8,0-179.7,0c-54,0-108,0-162,0c-13.1,0-26.1,0-39.2,0c-5.6,0-11-1.3-11.7-8.3c-0.2-1.5,0-3,0-4.5c0-26.5,0-53,0-79.5
			c0-50,0-100,0-149.9c0-61.8,0-123.6,0-185.4c0-61.4,0-122.7,0-184.1c0-48.9,0-97.7,0-146.6c0-24.2-0.8-48.6,0-72.7
			c0.2-5.3,1.6-10.1,8.3-10.8c2.2-0.2,4.5,0,6.7,0c14.8,0,29.6,0,44.5,0c55.6,0,111.3,0,166.9,0c58.9,0,117.8,0,176.7,0
			c18.9,0,37.9,0,56.8,0c8.1,0,24.7-3.1,25.9,8.4c0.5,5.2,0,10.8,0,16.1c0,13.5,0,27.1,0,40.6c0,45.5,0,91.1,0,136.6
			c0,60.1,0,120.2,0,180.3c0,62.6,0,125.2,0,187.7c0,52.8,0,105.6,0,158.4c0,31.4,0,62.7,0,94.1C494.8,840.3,496.9,852,486.6,852.8z
			"/>
		<path d="M460,790.9c1.2,0.1,2.4-0.7,2.4-2.2c0-23.7,0-47.4,0-71.1c0-56.4,0-112.8,0-169.2c0-68.7,0-137.4,0-206
			c0-59,0-117.9,0-176.9c0-19.6,0-39.2,0-58.8c0-8.9,1.3-19,0-27.9c-0.1-0.4,0-0.8,0-1.2c0-0.8-0.3-1.3-0.8-1.7
			c0.1-1.2-0.6-2.5-2.2-2.6c-13.1-0.5-25.3-13.8-25.8-26.7c0-0.5-0.2-0.8-0.4-1.1c-0.3-0.6-1-1.1-1.9-1.1c-40.5,0-80.9,0-121.4,0
			c-64.5,0-129,0-193.6,0c-14.9,0-29.7,0-44.6,0c-0.9,0-1.6,0.5-1.9,1.1c-0.2,0.3-0.3,0.7-0.4,1.2C69.1,59.5,57,72.8,43.9,73.3
			c-1.8,0.1-2.5,1.9-2,3.2c-0.2,0.3-0.2,0.6-0.2,1c0,23.7,0,47.4,0,71.1c0,56.4,0,112.8,0,169.2c0,68.7,0,137.4,0,206
			c0,59,0,117.9,0,176.9c0,19.6,0,39.2,0,58.8c0,8.9-1.3,19,0,27.9c0.1,0.4,0,0.8,0,1.2c0,0.9,0.5,1.6,1.1,1.9
			c0.3,0.2,0.7,0.3,1.2,0.4c13,0.5,25.3,13.3,25.8,26.2c0,0.5,0.2,0.8,0.4,1.1c0.3,0.6,1,1.1,1.9,1.1c40.5,0,80.9,0,121.4,0
			c64.5,0,129,0,193.6,0c14.9,0,29.7,0,44.6,0c0.9,0,1.6-0.5,1.9-1.1c0.2-0.3,0.3-0.7,0.4-1.2c0.5-12.9,12.7-25.7,25.8-26.2
			C459.6,791,459.8,790.9,460,790.9z M429.3,814.9c-39.8,0-79.6,0-119.3,0c-64.5,0-129,0-193.6,0c-14.2,0-28.3,0-42.5,0
			c-1.7-13.9-13.9-26.5-27.8-28.3c0-23,0-46,0-69.1c0-56.4,0-112.8,0-169.2c0-68.7,0-137.4,0-206c0-59,0-117.9,0-176.9
			c0-19.6,0-39.2,0-58.8c0-8.9,1.3-19,0-27.9c-0.1-0.4,0-0.8,0-1.2c14-1.8,26.1-14.9,27.8-28.7c39.8,0,79.5,0,119.3,0
			c64.5,0,129,0,193.6,0c14.2,0,28.3,0,42.5,0c1.7,14.1,14.3,27.3,28.5,28.8c0,23.7,0,47.3,0,71c0,56.4,0,112.8,0,169.2
			c0,68.7,0,137.4,0,206c0,59,0,117.9,0,176.9c0,19.6,0,39.2,0,58.8c0,8.6-1.2,18.4-0.1,27C443.6,788.1,431.1,800.9,429.3,814.9z"/>
		<path d="M114.9,786.2l0.1,0.4l0-0.1c0,0,0-0.1,0.1-0.1c0,0,0.1-0.1,0.1-0.1c0-0.1,0.1-0.1,0.1-0.2c0.2-0.3,0.2-0.4,0-0.4
			C115,785.7,114.9,785.8,114.9,786.2z"/>
		<path d="M116.1,793.4c-0.8-0.1-1.3-0.2-1.5-0.2c-0.1-0.1-0.2-0.2-0.2-0.4c0-0.2,0-0.3-0.1-0.4c-0.1-0.1-0.2-0.1-0.4-0.1
			c-0.3-0.1-0.5-0.2-0.5-0.3c0-0.1-0.1-0.2-0.3-0.2c-0.2,0-0.3-0.1-0.3-0.2c0-0.1-0.1-0.3-0.3-0.5c-0.2-0.2-0.4-0.4-0.5-0.4
			c-0.1,0-0.2,0-0.2-0.1c0-0.1-0.1-0.2-0.3-0.2c-0.2,0-0.3-0.1-0.3-0.2s-0.1-0.3-0.2-0.5c-0.2-0.2-0.3-0.2-0.5-0.2
			c-0.2,0-0.2-0.1-0.2-0.2c0-0.1,0-0.2,0-0.3c0-0.1,0-0.2,0-0.3c0-0.1,0.1-0.2,0.3-0.3c0.3-0.1,0.4-0.2,0.4-0.4
			c0-0.2,0.1-0.3,0.2-0.3c0.1,0,0.3-0.1,0.5-0.4c0.2-0.3,0.4-0.4,0.5-0.5c0.2-0.1,0.2-0.1,0.2-0.3c-0.1-0.1,0-0.2,0.3-0.4
			c0.2-0.1,0.4-0.3,0.4-0.5c0-0.2,0.1-0.3,0.3-0.3c0.2,0,0.3-0.1,0.3-0.4c0-0.3,0.1-0.4,0.2-0.4c0.2,0,0.4-0.1,0.5-0.4
			c0.2-0.2,0.5-0.3,0.9-0.4c0.4-0.1,0.6-0.2,0.8-0.3c0.1-0.1,0.2-0.2,0.4-0.2c0.2,0,0.3-0.1,0.3-0.2c0-0.1,0.1-0.3,0.2-0.4
			c0.1,0,0.1-0.1,0.1-0.1c0,0-0.1,0-0.4-0.1c-0.4,0-0.5-0.1-0.5-0.2c0-0.2-0.3-0.3-0.8-0.3c-0.5,0-0.8,0.1-0.9,0.3
			c-0.1,0.1-0.3,0.2-0.6,0.2c-0.3,0-0.4,0-0.5-0.1c-0.1-0.1-0.6-0.2-1.8-0.2l-1.7-0.1l-0.1,0.5c0,0.1-0.1,0.2-0.1,0.3
			c0,0.1,0.1,0.2,0.2,0.3c0.1,0.1,0.4,0.1,0.7,0.1c0.3,0,0.5,0.1,0.6,0.1c0.1,0,0.1,0.1,0.1,0.2v0.1c0,0.3-0.1,0.4-0.2,0.5
			c-0.1,0.1-0.1,0.2-0.1,0.4c0.1,0.1,0,0.3-0.3,0.4c-0.2,0.1-0.4,0.3-0.4,0.5c0,0.3-0.1,0.4-0.3,0.5c-0.2,0.1-0.4,0.3-0.4,0.6
			c-0.1,0.3-0.3,0.5-0.5,0.5c-0.3,0.1-0.5,0.2-0.6,0.4c-0.2,0.2-0.3,0.3-0.4,0.3c-0.1,0-0.1-0.1-0.1-0.4c0-0.2,0-0.5,0.1-0.9
			c0-0.5,0.1-0.8,0.1-0.9c0-0.2,0-0.3,0-0.3c-0.1-0.3,0-0.5,0.2-0.6c0.2-0.1,0.3-0.3,0.2-0.6c0-0.2,0-0.3,0-0.3c0,0,0.1-0.1,0.3-0.1
			c0.2,0,0.4-0.1,0.5-0.3c0.1-0.2,0.1-0.4,0.1-0.8c0-0.2,0-0.3-0.1-0.3c-0.1-0.1-0.7-0.1-1.9-0.1c-1.4-0.1-2.1-0.2-2.1-0.4
			c0-0.1-0.1-0.1-0.2-0.1c-0.1,0-0.2,0-0.2,0.1c0,0.1-0.1,0.2-0.1,0.3s0,0.3,0,0.3c0,0.2-0.1,0.3-0.3,0.4c-0.2,0-0.3,0.2-0.2,0.5
			c0.1,0.3,0.1,0.4,0.2,0.5s0.2,0.1,0.3,0.1c0.2,0,0.3,0,0.4,0c0.1,0,0.2,0,0.4,0c0.3,0,0.5,0.1,0.6,0.4c0.1,0.2,0.1,0.8,0.1,1.5
			c0,0.9-0.1,1.4-0.2,1.5c-0.1,0.1-0.1,0.2,0,0.4c0.1,0.2,0.1,0.5,0,0.7c-0.1,0.2-0.2,0.3-0.3,0.3c-0.1,0-0.1,0.1,0,0.2
			c0.1,0.1,0.1,0.3,0.1,0.7c0,0.6-0.1,1.5-0.2,2.9l-0.1,1H105c-0.4,0-0.6,0.1-0.7,0.3c-0.1,0.2-0.2,0.3-0.3,0.3
			c-0.2,0-0.2,0.1-0.2,0.4c0,0.3,0.1,0.5,0.3,0.6c0.2,0.1,0.3,0.3,0.3,0.4c0,0.1,0.1,0.2,0.3,0.2c0.2,0,0.5,0,0.8-0.1
			c0.3-0.1,0.5-0.2,0.6-0.2c0.1-0.1,0.7-0.2,1.6-0.2c0.9,0,1.4,0,1.5-0.1c0,0,0-0.3,0-0.6c0-0.3-0.1-0.4-0.1-0.5
			c0-0.1-0.1-0.1-0.3-0.1c-0.2,0-0.4,0-0.4-0.1c0-0.1-0.1-0.1-0.2-0.1c-0.3,0-0.4-0.3-0.4-0.9c0-0.2,0-0.3,0-0.4
			c0-0.4,0.1-0.8,0.1-1.2V790c0-0.1,0-0.2,0-0.3c0-0.1,0-0.2,0-0.3c0-0.4,0-0.6,0.1-0.6h0.1c0.2,0,0.4,0.1,0.8,0.3
			c0.4,0.2,0.6,0.4,0.7,0.6c0.2,0.2,0.3,0.4,0.4,0.4c0.1,0,0.2,0.1,0.3,0.3c0.1,0.2,0.2,0.4,0.2,0.5c0,0.1,0.1,0.2,0.4,0.5
			c0.3,0.2,0.4,0.4,0.4,0.6c0,0.1,0.1,0.2,0.3,0.2c0.2,0,0.3,0.1,0.3,0.4c0,0.2,0.1,0.4,0.3,0.4c0.3,0,0.3,0.2,0,0.6
			c-0.2,0.2-0.4,0.2-0.6,0.1c-0.2-0.1-0.3-0.1-0.5,0c-0.1,0.1-0.3,0.2-0.5,0.2c-0.2,0-0.3,0-0.3,0.1c0,0.1,0,0.2,0.1,0.2
			c0.1,0,0.1,0.1,0.1,0.2c0,0.1,0.1,0.2,0.2,0.3c0.2,0.1,0.3,0.1,0.5,0.1c0,0,0,0,0.1,0c0,0,0,0,0.1,0c0.2-0.1,0.3,0,0.3,0.1
			c0,0.1,0.1,0.1,0.2,0c0.1-0.1,0.2-0.2,0.5-0.2c0.2,0,0.8,0,1.8,0c1.4,0,2.2,0.1,2.4,0.2c0.2,0.1,0.3,0.2,0.4,0.2
			c0.2,0,0.2-0.2,0.2-0.5c0-0.4-0.1-0.6-0.2-0.7C116.8,793.5,116.6,793.5,116.1,793.4z M111.8,782.9
			C111.8,782.9,111.8,782.9,111.8,782.9L111.8,782.9c0.1,0.2,0.1,0.3,0,0.3c0,0,0,0,0-0.1C111.8,783,111.8,783,111.8,782.9z
			 M111.5,785.4c0.1,0,0.1,0,0.1,0c0.1,0,0.1,0,0,0.1c-0.1,0.1-0.2,0.1-0.3,0L111.5,785.4z M111.1,786.1c0.1,0,0.1,0.1,0.1,0.2
			c0,0.1,0,0.2-0.1,0.2c-0.1,0-0.1-0.1-0.1-0.2C110.9,786.2,111,786.1,111.1,786.1z"/>
		<path d="M104,792.3c0.1,0,0.1,0,0.2-0.1c0.1-0.2,0.1-0.3-0.1-0.3c-0.1,0-0.2,0.1-0.2,0.2C103.8,792.3,103.9,792.3,104,792.3z"/>
		<path d="M104,797.9c-0.1,0-0.1,0.1-0.1,0.2c0,0.1,0,0.2,0.1,0.2c0.1,0,0.1-0.1,0.1-0.2C104.1,797.9,104.1,797.9,104,797.9z"/>
		<path d="M104,796.7c-0.1,0-0.1,0.1-0.1,0.2c0,0.1,0,0.2,0.1,0.2c0.1,0,0.1-0.1,0.1-0.2C104.1,796.8,104.1,796.7,104,796.7z"/>
		<path d="M102.7,798.8c-0.1,0.1-0.1,0.2,0,0.4c0.1,0.1,0.2,0.1,0.3,0.1c0.3-0.1,0.3-0.3,0.1-0.5C103,798.6,102.8,798.6,102.7,798.8
			z"/>
		<path d="M130,782c-0.1-0.1-0.7-0.1-1.8-0.1c-1,0-1.5,0-1.5,0.1c0,0.1-0.2,0.1-0.5,0.1c-0.3,0-0.5,0.1-0.5,0.2c0,0.1,0,0.2-0.1,0.2
			c-0.1,0-0.1,0.1-0.1,0.3c0,0.3,0.1,0.4,0.2,0.5c0.1,0.1,0.2,0.5,0.2,1.3c0,0.8,0,1.2,0.1,1.3c0.1,0,0.1,0.4,0.1,1.1
			c0,0.7,0,1-0.1,1.1c-0.1,0-0.2,0.8-0.2,2.2c0,1.2-0.1,2-0.2,2.2c-0.1,0.2-0.4,0.4-0.9,0.5c-0.3,0-0.5,0.1-0.5,0.1
			c-0.1,0.1-0.1,0.2-0.1,0.4c0,0.3,0.1,0.5,0.2,0.5c0.2,0,0.3,0.1,0.5,0.2c0.2,0.2,0.3,0.2,0.3,0.1c0.1-0.1,0.8-0.2,2.1-0.2
			c1.1,0,1.6,0.1,1.6,0.2c0,0.1,0.1,0.1,0.3,0.1c0.2,0,0.3,0,0.3-0.1s0.1-0.2,0.3-0.3c0.2-0.1,0.3-0.2,0.3-0.3c0-0.4-0.4-0.7-1-0.8
			l-0.6-0.1l0.1-3.5c0-2.3,0.1-3.5,0.2-3.6c0.1-0.1,0.1-0.4,0.1-1c0.1-1.1,0.2-1.6,0.4-1.6c0.1,0,0.2,0,0.2-0.1
			c0-0.1,0.1-0.2,0.4-0.2c0.2,0,0.4-0.1,0.5-0.2c0.1-0.1,0.2-0.2,0.2-0.4C130.3,782.3,130.2,782.1,130,782z M126.5,790.9
			c-0.1,0-0.2,0-0.2-0.1c0-0.1,0.1-0.1,0.2-0.1c0.1,0,0.2,0,0.2,0.1C126.7,790.9,126.7,790.9,126.5,790.9z M127.4,787.1
			c-0.1,0-0.2-0.1-0.2-0.3c0-0.2,0.1-0.3,0.2-0.3c0.1,0,0.2,0.1,0.2,0.3C127.6,787,127.5,787.1,127.4,787.1z"/>
		<path d="M150.3,782c-0.1,0-0.2,0-0.3,0.1c-0.2,0.1-0.3,0.1-0.3,0.1c-0.1,0-0.1-0.1-0.2-0.2c-0.1-0.2-0.3-0.3-0.4-0.3
			c-0.1,0-0.2-0.1-0.2-0.3c0-0.2-0.1-0.3-0.3-0.3c-0.2,0-0.3,0.1-0.3,0.3c0,0.2,0.1,0.3,0.2,0.3s0.2,0.1,0.2,0.3
			c0,0.2-0.1,0.3-0.2,0.3c-0.2,0-0.3-0.1-0.3-0.4c-0.1-0.2-0.2-0.4-0.3-0.4c-0.1,0-0.1,0-0.2,0.1c-0.2,0.2-0.2,0.3,0,0.3
			c0.1,0,0.2,0.1,0.2,0.1c0,0.1-0.1,0.2-0.4,0.2c-0.2,0-0.4,0-0.4-0.1c0-0.1-0.1-0.1-0.4-0.1c-0.4,0-0.8,0.1-1.1,0.2
			c-0.4,0.2-0.6,0.4-0.6,0.7c0,0.3,0.3,0.5,0.8,0.6c0.4,0.1,0.6,0.1,0.6,0.2c0,0.1,0.1,0.1,0.3,0.1c0.3,0,0.5,0.2,0.6,0.6
			c0.1,0.4,0.2,1.2,0.2,2.4c0,1.4,0.1,2.2,0.1,2.4c0.1,0.1,0,0.3,0,0.6l-0.1,0.4l-0.5-0.5c-0.4-0.3-0.5-0.5-0.5-0.6
			c0-0.1-0.1-0.2-0.2-0.3c-0.1-0.1-0.3-0.2-0.4-0.4c-0.2-0.1-0.3-0.2-0.3-0.2c-0.1-0.1-0.3-0.2-0.3-0.2c-0.1,0-0.2-0.1-0.2-0.2
			c0-0.1-0.1-0.2-0.2-0.3c-0.1-0.1-0.3-0.2-0.4-0.2s-0.1-0.1-0.1-0.2c0-0.1-0.1-0.2-0.2-0.2c-0.1,0-0.1,0-0.1-0.1
			c0-0.1-0.1-0.2-0.4-0.5c-0.2-0.3-0.4-0.4-0.4-0.5c0-0.1-0.1-0.2-0.3-0.2c-0.2,0-0.3-0.1-0.5-0.2c-0.2-0.1-0.2-0.3-0.2-0.4
			c0-0.1-0.2-0.3-0.5-0.7c-0.3-0.4-0.5-0.6-0.5-0.7c0-0.1-0.1-0.2-0.3-0.4c-0.2-0.2-0.3-0.4-0.3-0.4c0-0.3-0.6-0.5-1.8-0.6
			c-0.6,0-0.9-0.1-0.9-0.1c-0.3,0-0.4,0.1-0.4,0.2c0,0.1,0,0.2,0,0.4c0,0.2,0,0.4,0.1,0.6c0.1,0.2,0.1,0.3,0.2,0.3
			c0.1,0,0.2,0.2,0.3,0.6c0.1,0.4,0.2,0.6,0.2,0.6c0.1,0,0.1,0.3,0.1,0.8c0,0.5,0,0.8-0.1,0.8c-0.1,0-0.1,0.1-0.1,0.4
			c0,0.2,0.1,0.6,0.2,1c0.1,0.2,0.1,0.6,0.1,1.1c0,0.7-0.1,1.1-0.2,1.1c-0.1,0-0.1,0.2-0.1,0.7c0,0.5,0,1.1-0.1,1.5
			c0,0.4-0.1,0.6-0.1,0.7c-0.1,0.1-0.2,0.2-0.4,0.2c-0.3,0.1-0.4,0.2-0.4,0.4c0,0.2,0.1,0.4,0.4,0.6c0.2,0.2,0.3,0.3,0.5,0.3
			c0.2,0,0.8,0,1.7,0c1,0,1.6,0,1.8-0.1c0.2-0.1,0.3-0.3,0.3-0.8c0-0.3-0.1-0.4-0.3-0.5c-0.2-0.1-0.3-0.1-0.3-0.2
			c0-0.1-0.2-0.1-0.6-0.1c-0.4,0-0.7-0.1-0.9-0.3c-0.2-0.2-0.2-0.3-0.1-0.4c0.1-0.1,0.2-0.2,0.2-0.6c0-0.3,0-0.5-0.1-0.5
			c-0.1-0.1-0.1-0.9-0.1-2.6c0-1.7,0.1-2.5,0.2-2.5c0.1,0,0.3,0.1,0.4,0.2c0.1,0.1,0.3,0.2,0.5,0.3c0.3,0.1,0.4,0.3,0.5,0.4
			c0,0.2,0.3,0.5,0.8,1.1c0.5,0.5,0.9,0.9,1.3,1.1c0.2,0.1,0.3,0.2,0.3,0.3c0,0.1,0.2,0.2,0.5,0.6c0.7,0.7,1.1,1.1,1.1,1.4
			c0,0.1,0.1,0.1,0.3,0.1c0.2,0,0.3,0,0.3,0.1c0,0.1,0.1,0.3,0.4,0.5c0.2,0.2,0.4,0.4,0.4,0.6c0,0.1,0.1,0.3,0.3,0.5
			s0.3,0.3,0.4,0.3c0.1,0,0.3,0.2,0.6,0.5c0.3,0.3,0.5,0.5,0.7,0.6c0.1,0.1,0.2,0.1,0.3,0.1c0.4,0,0.6-0.2,0.6-0.6
			c0-0.1,0-0.2,0-0.4c0-0.9-0.1-1.4-0.2-1.6c-0.1-0.1-0.1-0.5-0.1-1.3v-0.4c0-1,0-1.6-0.1-1.6c-0.1-0.1-0.2-0.4-0.2-1
			c0-0.5,0-0.8,0.1-0.8c0.1-0.1,0.2-0.2,0.2-0.5s0-0.4,0.1-0.4c0.1,0,0.1-0.1,0.1-0.4c0-0.3,0-0.4-0.1-0.4c-0.1,0-0.1-0.1-0.1-0.4
			c0-0.4,0.1-0.7,0.2-1c0.2-0.3,0.4-0.5,0.7-0.5c0.2,0,0.4-0.1,0.4-0.1c0.1,0,0.1-0.2,0.1-0.5v-0.2C150.6,782.3,150.5,782,150.3,782
			z"/>
		<path d="M167.4,788.6c-0.3,0-0.5,0-0.6,0c-0.7,0-1.2,0-1.4,0.1s-0.4,0.2-0.4,0.3c0,0.1-0.1,0.2-0.1,0.3c0,0.3,0.4,0.5,1.2,0.6
			c0.7,0.1,1.1,0.2,1.1,0.3c0,0-0.1,0.2-0.2,0.6c-0.1,0.3-0.3,0.5-0.5,0.5c-0.2,0-0.4,0.1-0.6,0.4c-0.2,0.3-0.3,0.3-0.4,0.2
			c-0.1-0.1-0.2-0.1-0.4,0.1c-0.2,0.2-0.5,0.2-0.8,0.2c-0.1,0-0.4,0-0.8-0.1c-0.7,0-1.1-0.1-1.3-0.2c-0.2-0.1-0.3-0.3-0.3-0.6
			c0-0.2-0.1-0.4-0.3-0.5s-0.3-0.2-0.3-0.4c0-0.2,0-0.2-0.1-0.2c-0.3,0-0.6-0.5-0.8-1.5c-0.1-0.7-0.2-1.1-0.3-1.1
			c-0.1,0-0.1-0.1-0.1-0.2s0-0.2,0.1-0.3c0.2,0,0.3-0.7,0.3-1.9c0-0.2,0.1-0.2,0.3-0.2c0.2,0,0.3-0.1,0.3-0.2c0-0.1,0-0.3-0.2-0.4
			c-0.1-0.1-0.1-0.2,0.1-0.2c0.2,0,0.4-0.1,0.7-0.2c0.2-0.1,0.4-0.3,0.4-0.4c0-0.1,0.1-0.3,0.3-0.4c0.2-0.1,0.5-0.2,0.7-0.2
			c0.2,0,0.3-0.1,0.3-0.2c0-0.1,0.2-0.2,0.7-0.3c0.1,0,0.1,0,0.2,0c0.1,0,0.1,0,0.2,0c0.6,0,1,0.2,1.2,0.5c0.1,0.2,0.3,0.3,0.6,0.4
			c0.3,0.1,0.4,0.2,0.4,0.3c0,0,0,0,0,0.1c0,0,0,0.1,0,0.1c0,0.1,0,0.2,0.1,0.3c0.1,0.1,0.2,0.2,0.3,0.5c0.1,0.2,0.1,0.3,0.2,0.4
			c0.1,0.1,0.3,0.1,0.5,0.2c0.1,0,0.2,0,0.4,0c0.1,0,0.2,0,0.2,0c0,0,0.1-0.1,0.1-0.1c0-0.1,0-0.1,0.1-0.2c0.1-0.3,0.1-0.6,0.1-0.9
			c0-0.3,0-0.5,0.1-0.5c0.1,0,0.1-0.1,0.1-0.3c0-0.2,0-0.5-0.1-0.9c-0.1-0.1-0.1-0.2-0.3-0.3c-0.1,0-0.4-0.1-0.9-0.1
			c-0.7,0-1,0-1.1-0.1c-0.1-0.1-0.9-0.2-2.2-0.2c-0.6,0-1,0-1.2,0.1c-0.6,0.1-1,0.2-1.3,0.3c-0.2,0.1-0.8,0.5-1.6,1.3
			c-0.9,0.8-1.3,1.3-1.3,1.4c0,0.1-0.1,0.2-0.2,0.4c-0.1,0.2-0.2,0.4-0.2,0.7s-0.1,0.4-0.2,0.5c-0.1,0.1-0.1,0.2-0.1,0.4
			c0,0.2-0.1,0.4-0.2,0.5c-0.1,0.1-0.2,0.6-0.2,1.5c0,1,0.1,1.6,0.2,1.6c0.1,0,0.1,0.1,0.1,0.3c0,0.1,0,0.2-0.1,0.2
			c-0.1,0,0,0.1,0.2,0.4c0.2,0.2,0.4,0.4,0.5,0.4c0.1,0,0.2,0.1,0.2,0.3c0.1,0.2,0.3,0.4,0.6,0.8c0.4,0.3,0.6,0.5,0.8,0.6
			c0.2,0.1,0.2,0.1,0.2,0.2c0,0.1,0.4,0.2,1.1,0.3c0.7,0.1,1.4,0.1,2.2,0.1c1.1,0,1.7-0.1,1.9-0.3c0.1-0.1,0.3-0.2,0.6-0.3
			c0.4-0.1,0.6-0.2,0.8-0.2c0,0,0.1,0,0.1,0c0,0-0.1,0.2-0.2,0.5c-0.1,0.2-0.2,0.4-0.2,0.6c0,0.2,0.2,0.3,0.6,0.3c0.3,0,0.5,0,0.6,0
			c1-0.1,1.6-0.2,1.6-0.4c0-0.1-0.1-0.3-0.4-0.5c-0.2-0.1-0.3-0.3-0.3-0.5c0-0.2-0.1-0.6-0.1-1.2l-0.1-1.4l0.6,0.1
			c0.3,0.1,0.5,0,0.6-0.2s0.3-0.3,0.6-0.3c0.3,0,0.4-0.1,0.5-0.1c0,0,0.1-0.2,0.1-0.5v-0.6l-2.5-0.1
			C168,788.6,167.7,788.6,167.4,788.6z"/>
		<path d="M202,785.7c-0.2-0.1-0.2-0.2-0.2-0.5c0-0.3,0-0.5-0.1-0.5c-0.1,0-0.1-0.1-0.1-0.4c0-0.3-0.1-0.4-0.2-0.4
			c-0.1,0-0.2-0.1-0.3-0.3c-0.1-0.2-0.2-0.3-0.3-0.4c-0.1-0.1-0.2-0.2-0.2-0.4c0-0.2-0.1-0.3-0.4-0.3c-0.7,0-1-0.1-1-0.4
			c0-0.1-0.1-0.2-0.2-0.2c-0.1,0-0.2,0-0.2-0.1c0-0.1-0.1-0.1-0.3-0.1c-0.2,0-0.3-0.1-0.4-0.2c0-0.1-0.5-0.2-1.5-0.2
			c-0.9,0-1.5,0.1-1.6,0.2c-0.1,0.1-0.2,0.2-0.4,0.2c-0.2,0-0.3,0.1-0.4,0.3c-0.1,0.2-0.3,0.4-0.6,0.4c-0.3,0-0.6,0.1-1.1,0.2
			c-0.5,0.1-0.7,0.3-0.8,0.5c0,0.2-0.2,0.4-0.5,0.7c-0.3,0.3-0.4,0.5-0.4,0.5c0,0.1-0.1,0.1-0.2,0.1c-0.1,0-0.2,0.1-0.3,0.4
			c-0.1,0.2-0.2,0.4-0.3,0.7c-0.2,0.3-0.2,0.8-0.2,1.8c0,1.2,0.1,2.1,0.4,2.9c0.5,1.4,0.9,2.2,1.2,2.3c0.2,0,0.3,0.1,0.3,0.3
			c0,0.2,0.2,0.2,0.4,0.2c0.2,0,0.4,0,0.4,0.1c0,0.1,0.1,0.1,0.3,0.1s0.3,0.1,0.3,0.4c0,0.2,0,0.3,0.1,0.4c0.1,0.1,0.2,0,0.4-0.1
			c0.1-0.1,0.2-0.1,0.3,0c0.2,0.1,0.9,0.2,2.2,0.2c1.1,0,1.7-0.1,1.7-0.2c0-0.1,0.3-0.2,0.7-0.2c0.4,0,0.6-0.1,0.6-0.2
			c0-0.2,0.1-0.3,0.2-0.3c0,0,0.2-0.1,0.4-0.3c0.3-0.2,0.4-0.3,0.5-0.3c0.1,0,0.2-0.1,0.2-0.3c0.1-0.2,0.2-0.3,0.3-0.3
			c0.1,0,0.2-0.1,0.3-0.3c0-0.2,0.2-0.3,0.4-0.3c0.2-0.1,0.3-0.1,0.3-0.2c0-0.1,0.1-0.1,0.2-0.1c0.1,0,0.2-0.2,0.2-0.6
			c0-0.3,0-0.5-0.1-0.5c-0.1,0-0.1-0.1,0-0.2c0.1-0.1,0.2-0.8,0.2-2.1c0-0.3,0-0.7,0-1.1C202.2,786,202.1,785.7,202,785.7z
			 M199.8,788.8c-0.1,0-0.2,0.2-0.2,0.4c0,0.3-0.1,0.4-0.2,0.5c-0.1,0.1-0.2,0.4-0.3,0.8c-0.1,0.4-0.1,0.6-0.3,0.6
			c-0.1,0-0.2,0-0.2,0.1c0,0.1-0.1,0.2-0.4,0.2c-0.3,0.1-0.4,0.2-0.4,0.3c0,0.1,0,0.2-0.1,0.2c-0.1,0.1-0.2,0.1-0.4,0.2
			c-0.1,0.1-0.2,0.1-0.3,0.1c0,0.1-0.2,0.1-0.4,0.1c-0.2,0-0.3,0.1-0.5,0.2c-0.1,0.1-0.2,0.1-0.4,0.1c-0.2,0-0.4,0-0.7-0.1
			c-0.5-0.1-1-0.3-1.3-0.6c-0.3-0.3-0.7-0.8-1-1.5c-0.3-0.5-0.4-0.9-0.5-1.1c0-0.2-0.1-0.7-0.1-1.4c0-0.7,0-1.1,0.1-1.4
			c0-0.2,0.1-0.5,0.3-0.8c0.3-0.5,0.6-0.9,1-1.3c0.4-0.4,0.8-0.6,1-0.7c0.3,0,0.5-0.1,0.5-0.3c0-0.1,0.1-0.2,0.2-0.2
			c0.1,0,0.2,0,0.2-0.1c0-0.1,0.1-0.1,0.3-0.1c0.2,0,0.3,0,0.3,0.1c0,0.1,0.3,0.1,0.9,0.1c0.5,0,0.8,0.1,0.8,0.2
			c0,0.1,0.1,0.2,0.3,0.3c0.2,0.1,0.3,0.2,0.3,0.3s0.1,0.2,0.3,0.3c0.3,0.1,0.5,0.4,0.5,0.8c0,0.2,0.1,0.5,0.3,0.8
			c0.2,0.3,0.3,0.7,0.3,1.1c0,0.5,0,0.7,0.1,0.8c0.1,0.1,0.1,0.2,0.1,0.4C200,788.6,199.9,788.7,199.8,788.8z"/>
		<path d="M219.7,783.9c0-0.3-0.1-0.5-0.2-0.6c-0.1-0.1-0.1-0.2,0-0.4c0.1-0.1,0.1-0.2,0.1-0.2c0-0.1-0.1-0.2-0.2-0.2
			c-0.1-0.1-0.2-0.2-0.2-0.3c0-0.2-0.1-0.3-0.3-0.5s-0.4-0.3-0.5-0.3c-0.1,0-0.2,0-0.2,0.1c0,0.1-0.3,0.1-0.9,0.2
			c-0.5,0.1-1.1,0.1-1.7,0.1c-0.6,0-0.9,0-1,0.1c-0.1,0-0.5,0.1-1.4,0.1c-0.9,0.1-1.8,0.2-2.7,0.3c-0.9,0.1-1.4,0.2-1.4,0.2
			c0,0,0,0.1,0,0.2c0,0.1,0,0.2,0.1,0.3c0.1,0.2,0.1,0.3,0.2,0.4c0.1,0,0.3,0.1,0.6,0.1c0.5,0,0.9,0.1,1,0.3
			c0.1,0.2,0.2,0.7,0.2,1.6c0,0.9-0.1,1.4-0.2,1.5c-0.1,0.1-0.1,0.2,0,0.4c0.1,0.3,0.2,0.5,0,0.7c-0.1,0.2-0.2,0.3-0.3,0.3
			c-0.1,0,0,0.1,0.1,0.2c0.1,0.1,0.1,0.3,0.1,0.6c0,0.1,0,0.4-0.1,0.8c-0.1,1.4-0.2,2.3-0.2,2.6c-0.1,0.4-0.1,0.5-0.3,0.6
			c-0.2,0.1-0.5,0.3-0.8,0.6l-0.5,0.6h5v-0.5c0-0.2,0-0.4-0.1-0.4c0-0.1-0.1-0.1-0.3-0.1c-0.2,0-0.4,0-0.4-0.1
			c0-0.1-0.1-0.1-0.2-0.1s-0.2-0.1-0.3-0.3c0-0.1,0-0.4,0-1.2c0-1.2,0-2.1,0.1-2.8c0-0.1,0.5-0.1,1.4-0.1c0.8,0,1.3,0.1,1.5,0.2
			c0.3,0.1,0.4,0.4,0.4,0.9c0,0.3,0,0.5,0.1,0.5c0.1,0,0.1-0.1,0.3-0.2c0.1-0.1,0.3-0.2,0.5-0.1c0.2,0.1,0.3,0,0.3-0.2
			c0-0.2,0-0.3,0.1-0.4c0.1-0.1,0.1-0.2,0-0.2c-0.1-0.1-0.2-0.3-0.2-0.6c0-0.4,0.1-0.7,0.2-0.8c0.1-0.1,0.1-0.1,0.1-0.2
			c0-0.1,0-0.1-0.1-0.2c-0.1-0.1-0.1-0.2-0.1-0.2c0-0.1,0-0.1,0.1-0.2c0.2-0.1,0.2-0.2,0.2-0.4c0-0.3-0.4-0.4-1.1-0.4
			c-0.4,0-0.6,0.2-0.6,0.5c0,0.1,0,0.2,0.1,0.3c0.1,0.2,0,0.4,0,0.5c-0.1,0.1-0.4,0.2-1,0.3c-0.6,0.1-1.1,0.2-1.6,0.2h-0.5v-0.6
			c0-0.4,0.1-0.6,0.2-0.7c0.1-0.1,0.2-0.2,0.2-0.4c0-0.3-0.1-0.5-0.2-0.8c-0.1-0.2-0.2-0.4-0.2-0.4c0-0.1,0.1-0.1,0.2-0.3
			c0.2-0.2,0.3-0.4,0.2-0.6c0-0.1,0-0.1,0-0.2c0-0.1,0.1-0.2,0.4-0.3c0.3-0.1,0.8-0.1,1.6-0.1c0.7,0,1.1-0.1,1.1-0.1
			c0.3,0,0.5,0.1,0.7,0.2c0.2,0.2,0.3,0.3,0.5,0.4c0.2,0.1,0.3,0.2,0.3,0.3c0,0.1,0.1,0.3,0.3,0.4c0.2,0.1,0.4,0.3,0.5,0.6
			c0.1,0.4,0.4,0.5,0.8,0.5c0.1,0,0.2,0,0.3-0.1c0.1-0.1,0.2-0.2,0.2-0.6c0-0.3-0.1-0.5-0.2-0.5
			C219.8,784.4,219.7,784.2,219.7,783.9z"/>
		<path d="M241.2,779.6c0-0.1-0.1-0.1-0.3-0.1c-0.2,0-0.3,0-0.3,0.1c0,0.1,0.1,0.2,0.3,0.2C241.2,779.8,241.2,779.7,241.2,779.6z"/>
		<path d="M245.7,780.6C245.7,780.6,245.7,780.5,245.7,780.6c0.1-0.1,0-0.1-0.2-0.1c-0.2,0-0.3,0.1-0.3,0.2
			C245.3,780.7,245.4,780.7,245.7,780.6C245.6,780.6,245.6,780.6,245.7,780.6z"/>
		<path d="M248.9,782.4c-0.1,0-0.2,0-0.2-0.1c0-0.1-0.1-0.2-0.4-0.3c-0.3-0.1-0.4-0.3-0.5-0.5l-0.2-0.3c-0.1-0.1-0.2-0.1-0.2,0.1
			c0,0.1-0.3,0.1-0.8,0.1c-0.6,0-0.9,0-0.9-0.1c0-0.1-0.1-0.1-0.3-0.1c-0.5,0-0.8-0.1-0.8-0.4c0-0.1-0.1-0.2-0.3-0.2
			s-0.3,0.1-0.2,0.3c0,0,0,0,0,0.1c0,0,0,0,0,0.1c0,0.1-0.6,0.2-1.8,0.2h-1.8l-0.5,0.5c-0.3,0.3-0.5,0.5-0.5,0.7
			c0,0.2,0.2,0.4,0.7,0.4c0.2,0,0.3,0,0.3,0.1c0,0.1,0,0.1,0.1,0.1c0.2,0,0.4,0.2,0.6,0.5c0.2,0.3,0.3,0.7,0.3,1.2
			c0,0.4,0.1,0.6,0.1,0.6c0,0.2-0.1,0.4-0.2,0.5c-0.2,0.1-0.2,0.2-0.1,0.3c0.1,0.1,0.2,0.3,0.2,0.7c0,0.3-0.1,0.5-0.2,0.5
			c-0.2,0-0.2,0,0,0.1c0.1,0.1,0.1,0.3,0,0.6c-0.1,0.3-0.1,0.5,0.1,0.6c0.1,0.1,0.1,0.2,0.1,0.3c0,0.2-0.1,0.4-0.2,0.5
			c-0.1,0.1-0.1,0.6-0.2,1.6l0,1.5l-0.4,0.2c-0.2,0.1-0.5,0.2-1.1,0.2c-0.3,0-0.5,0.1-0.5,0.1c-0.1,0.1-0.1,0.2-0.1,0.4
			c0,0.2,0.2,0.5,0.6,0.8c0.2,0.1,0.3,0.2,0.5,0.2c0.2,0,0.3-0.1,0.3-0.2c0.1-0.1,0.8-0.2,2.1-0.2c1.4-0.1,2.1-0.1,2.2-0.3
			c0.1-0.1,0.2-0.2,0.3-0.2c0.1,0,0.2-0.1,0.2-0.2c0-0.1-0.1-0.2-0.4-0.2c-0.3,0-0.4-0.1-0.5-0.3c0-0.2-0.2-0.3-0.5-0.4
			c-0.4-0.1-0.5-0.2-0.5-0.4c0-0.1,0-0.2,0.1-0.3c0.2-0.2,0.2-0.3,0.1-0.4c-0.1,0-0.2-0.6-0.2-1.6c0-0.3,0-0.6,0-1
			c0-0.3,0-0.4,0.1-0.5c0-0.1,0.1-0.1,0.2-0.1c0.2,0,0.5,0,0.8,0.1c0.3,0.1,0.5,0.2,0.6,0.3c0.1,0.1,0.7,0.2,1.7,0.2
			c0.8,0,1.2,0,1.2-0.1c0.1-0.1,0-0.2-0.2-0.3c-0.2-0.1-0.4-0.2-0.5-0.4c-0.1-0.1-0.2-0.2-0.2-0.2c0,0,0.1-0.1,0.3-0.1
			c0.3-0.1,0.4-0.1,0.4-0.2c0-0.1,0.1-0.2,0.4-0.3c0.3-0.1,0.4-0.2,0.4-0.4c0-0.5,0.1-0.7,0.3-0.7c0.1,0,0.2-0.1,0.4-0.2
			c0.2-0.2,0.2-0.7,0.2-1.5c0-1-0.1-1.5-0.3-1.7C249.2,782.5,249,782.4,248.9,782.4z M247.3,786.1c0,0-0.1,0.1-0.4,0.1h-0.1
			c0,0-0.1,0-0.1,0c-0.1,0-0.1,0,0,0.1c0.1,0.1,0.2,0.1,0.2,0.2c0,0.1-0.1,0.3-0.3,0.5c-0.2,0.2-0.5,0.3-0.7,0.3
			c-0.3,0-0.6,0.1-1.1,0.2c-0.1,0-0.2,0-0.3,0c-0.2,0-0.4-0.1-0.7-0.3c-0.2-0.2-0.3-0.3-0.4-0.3c0-0.1,0-0.1,0.1-0.2
			c0.1-0.1,0.2-0.7,0.2-1.6v-1.2c0-0.3,0.1-0.5,0.2-0.7c0.1-0.2,0.3-0.4,0.4-0.4h0.1l0.4,0.1c0.3,0,0.5,0.1,0.8,0.1
			c0.2,0.1,0.4,0.1,0.4,0.1c0,0.1,0.1,0.1,0.4,0.2c0.3,0.1,0.4,0.2,0.4,0.3c0,0.1,0.1,0.3,0.2,0.4c0.1,0.1,0.2,0.2,0.1,0.3
			c-0.1,0.1-0.1,0.3,0.1,0.6c0.1,0.2,0.2,0.4,0.2,0.6C247.4,785.3,247.4,785.6,247.3,786.1z"/>
		<path d="M266.8,790.2c-0.1,0-0.3,0.2-0.5,0.5s-0.4,0.5-0.4,0.7c0,0.1-0.1,0.2-0.4,0.2c-0.1,0-0.2,0-0.3,0.1c0,0-0.1,0.1-0.1,0.1
			c0,0,0,0.1,0,0.3c0,0.2-0.1,0.3-0.4,0.3c0,0-0.1,0-0.1,0c-0.1,0-0.1,0-0.2,0c-0.2,0-0.4,0.1-0.6,0.3c-0.2,0.2-0.4,0.3-0.6,0.3
			c-0.1,0-0.2-0.1-0.2-0.2c0-0.1-0.1-0.1-0.4,0c-0.2,0.1-0.6,0.2-1.2,0.2c-0.5,0-0.7,0-0.7-0.1c0-0.1-0.1-0.1-0.2-0.1
			c-0.1,0-0.1-0.1-0.2-0.2c-0.1-0.2-0.1-0.3-0.1-0.4c0-0.1,0-0.2,0-0.3c0-0.2,0-0.4,0-0.6c0-0.3,0-0.5,0-0.8c0-0.3,0-0.5,0-0.8
			c0-0.3,0-0.5,0-0.6v-0.2c0-0.1,0.4-0.1,1.3-0.1c0.7,0,1.2,0.1,1.4,0.2c0.2,0.1,0.4,0.4,0.4,0.8c0,0.2,0,0.3,0.1,0.3
			c0,0,0.1,0,0.2,0c0.1-0.1,0.3-0.1,0.5-0.1c0.1,0,0.2,0,0.3-0.1c0-0.1,0.1-0.2,0.1-0.5c0-0.1,0-0.2,0-0.3c0-0.2,0-0.3,0-0.4v-0.2
			c0-0.3,0-0.6,0.1-0.7c0.1-0.1,0.1-0.3,0-0.4c-0.1-0.1-0.1-0.3,0.1-0.4c0.1-0.1,0.2-0.2,0.2-0.4c0-0.3-0.3-0.4-1-0.4
			c-0.4,0-0.6,0.2-0.6,0.5c0,0.1,0,0.2,0.1,0.3c0,0.2,0,0.4,0,0.5s-0.3,0.2-0.9,0.3s-1,0.1-1.5,0.1h-0.6v-0.6c0-0.4,0.1-0.6,0.2-0.6
			c0.1,0,0.2-0.1,0.2-0.4c0-0.3-0.1-0.5-0.2-0.9c-0.1-0.2-0.2-0.4-0.1-0.4c0-0.1,0.1-0.1,0.2-0.3c0.2-0.1,0.3-0.3,0.2-0.5
			c0,0,0-0.1,0-0.2c0-0.1,0.1-0.3,0.4-0.3c0.3-0.1,0.7-0.1,1.5-0.2c0.7,0,1.1-0.1,1.1-0.1c0.3,0,0.5,0.1,0.6,0.2
			c0.1,0.2,0.3,0.3,0.5,0.4c0.2,0.1,0.3,0.2,0.3,0.3c0,0.1,0.1,0.2,0.3,0.3c0.2,0.1,0.3,0.2,0.3,0.3c0,0.2,0.1,0.3,0.3,0.5
			c0.2,0.2,0.4,0.2,0.6,0.2h0c0.3,0,0.4-0.2,0.4-0.6c0-0.2-0.1-0.3-0.2-0.5c-0.1-0.1-0.2-0.3-0.2-0.5c0-0.3-0.1-0.5-0.2-0.5
			c-0.1,0-0.1-0.1,0-0.4c0.1-0.1,0.1-0.2,0.1-0.3c0,0-0.1-0.1-0.1-0.1c-0.1-0.1-0.2-0.2-0.2-0.3c0-0.1-0.1-0.3-0.3-0.5
			c-0.2-0.2-0.4-0.3-0.6-0.1c-0.3,0.1-1.8,0.3-4.7,0.4h-0.7c-1.5,0-2.2-0.1-2.3-0.3c0-0.1-0.1-0.1-0.2-0.1c-0.1,0-0.2,0-0.2,0.1
			l0,0.1c0,0.1,0,0.1,0,0.1c0,0,0,0.1,0,0.2c0,0.1,0,0.2,0,0.2c0,0.2-0.1,0.3-0.3,0.3c-0.2,0.1-0.3,0.2-0.2,0.5
			c0.1,0.2,0.1,0.4,0.2,0.5c0.1,0.1,0.2,0.1,0.3,0.1c0.1,0,0.3,0,0.4,0c0.1,0,0.2,0,0.4,0c0.3,0,0.5,0.1,0.6,0.4
			c0.1,0.2,0.1,0.7,0.1,1.4c0,0.9-0.1,1.4-0.2,1.4c-0.1,0-0.1,0.2,0,0.4c0.1,0.2,0.1,0.4,0,0.6c-0.1,0.2-0.2,0.3-0.3,0.3
			c-0.1,0-0.1,0.1,0.1,0.2c0.1,0.1,0.1,0.3,0.1,0.6c0,0.5-0.1,1.5-0.2,2.8l-0.1,0.9h-0.6c-0.4,0-0.6,0.1-0.6,0.3
			c0,0.2-0.1,0.3-0.3,0.3c-0.1,0-0.2,0.1-0.2,0.3c0,0.3,0.1,0.5,0.3,0.6c0.2,0.1,0.3,0.2,0.3,0.4c0,0.1,0.2,0.1,0.7,0.1
			c0.5,0,0.8-0.1,0.9-0.3c0.1-0.1,0.5-0.2,1.2-0.2c0.5,0,0.9,0,1.3,0c0.7,0,1.1,0.1,1.2,0.2c0,0.1,0.2,0.1,0.4,0
			c0.2-0.1,0.7-0.2,1.5-0.2c0.8,0,1.3,0,1.5-0.1c0.2,0,0.3-0.1,0.5-0.3c0.2-0.2,0.3-0.3,0.2-0.5c0-0.2,0-0.3,0.1-0.4
			c0.1-0.1,0.2-0.3,0.2-0.8c0-0.3,0-0.5,0-0.6c0-0.1,0.1-0.1,0.2-0.1c0.2,0,0.3-0.2,0.3-0.5c0-0.2-0.1-0.4-0.2-0.6
			C267,790.3,266.9,790.2,266.8,790.2z"/>
		<path d="M256.7,792c0.1-0.2,0.1-0.3,0-0.3c-0.1,0-0.2,0.1-0.2,0.2c0,0.1,0,0.2,0.1,0.2C256.6,792.1,256.7,792.1,256.7,792z"/>
		<path d="M287.4,782c-0.1,0-0.2,0-0.3,0.1c-0.2,0.1-0.3,0.1-0.3,0.1c-0.1,0-0.1-0.1-0.2-0.2c-0.1-0.2-0.3-0.3-0.4-0.3
			c-0.1,0-0.2-0.1-0.2-0.3c0-0.2-0.1-0.3-0.3-0.3c-0.2,0-0.3,0.1-0.3,0.3c0,0.2,0.1,0.3,0.2,0.3s0.2,0.1,0.2,0.3
			c0,0.2-0.1,0.3-0.2,0.3c-0.2,0-0.3-0.1-0.3-0.4c-0.1-0.2-0.2-0.4-0.3-0.4c-0.1,0-0.1,0-0.2,0.1c-0.2,0.2-0.2,0.3,0,0.3
			c0.1,0,0.2,0.1,0.2,0.1c0,0.1-0.1,0.2-0.4,0.2c-0.2,0-0.4,0-0.4-0.1c0-0.1-0.1-0.1-0.4-0.1c-0.4,0-0.8,0.1-1.1,0.2
			c-0.4,0.2-0.6,0.4-0.6,0.7c0,0.3,0.3,0.5,0.8,0.6c0.4,0.1,0.6,0.1,0.6,0.2c0,0.1,0.1,0.1,0.3,0.1c0.3,0,0.5,0.2,0.6,0.6
			c0.1,0.4,0.2,1.2,0.2,2.4c0,1.4,0.1,2.2,0.1,2.4c0.1,0.1,0,0.3,0,0.6l-0.1,0.4l-0.5-0.5c-0.4-0.3-0.5-0.5-0.5-0.6
			c0-0.1-0.1-0.2-0.2-0.3c-0.1-0.1-0.3-0.2-0.4-0.4c-0.2-0.1-0.3-0.2-0.3-0.2c-0.1-0.1-0.3-0.2-0.3-0.2c-0.1,0-0.2-0.1-0.2-0.2
			c0-0.1-0.1-0.2-0.2-0.3c-0.1-0.1-0.3-0.2-0.4-0.2s-0.1-0.1-0.1-0.2c0-0.1-0.1-0.2-0.2-0.2c-0.1,0-0.1,0-0.1-0.1
			c0-0.1-0.1-0.2-0.4-0.5c-0.2-0.3-0.4-0.4-0.4-0.5c0-0.1-0.1-0.2-0.3-0.2c-0.2,0-0.3-0.1-0.5-0.2c-0.2-0.1-0.2-0.3-0.2-0.4
			c0-0.1-0.2-0.3-0.5-0.7c-0.3-0.4-0.5-0.6-0.5-0.7c0-0.1-0.1-0.2-0.3-0.4s-0.3-0.4-0.3-0.4c0-0.3-0.6-0.5-1.8-0.6
			c-0.6,0-0.9-0.1-0.9-0.1c-0.3,0-0.4,0.1-0.4,0.2c0,0.1,0,0.2,0,0.4c0,0.2,0,0.4,0.1,0.6c0.1,0.2,0.1,0.3,0.2,0.3
			c0.1,0,0.2,0.2,0.3,0.6c0.1,0.4,0.2,0.6,0.2,0.6c0.1,0,0.1,0.3,0.1,0.8c0,0.5,0,0.8-0.1,0.8c-0.1,0-0.1,0.1-0.1,0.4
			c0,0.2,0.1,0.6,0.2,1c0.1,0.2,0.1,0.6,0.1,1.1c0,0.7-0.1,1.1-0.2,1.1c-0.1,0-0.1,0.2-0.1,0.7c0,0.5,0,1.1-0.1,1.5
			c0,0.4-0.1,0.6-0.1,0.7c-0.1,0.1-0.2,0.2-0.4,0.2c-0.3,0.1-0.4,0.2-0.4,0.4c0,0.2,0.1,0.4,0.4,0.6c0.2,0.2,0.3,0.3,0.5,0.3
			c0.2,0,0.8,0,1.7,0c1,0,1.6,0,1.8-0.1c0.2-0.1,0.3-0.3,0.3-0.8c0-0.3-0.1-0.4-0.3-0.5c-0.2-0.1-0.3-0.1-0.3-0.2
			c0-0.1-0.2-0.1-0.6-0.1c-0.4,0-0.7-0.1-0.9-0.3c-0.2-0.2-0.2-0.3-0.1-0.4c0.1-0.1,0.2-0.2,0.2-0.6c0-0.3,0-0.5-0.1-0.5
			c-0.1-0.1-0.1-0.9-0.1-2.6c0-1.7,0.1-2.5,0.2-2.5c0.1,0,0.3,0.1,0.4,0.2c0.1,0.1,0.3,0.2,0.5,0.3c0.3,0.1,0.4,0.3,0.5,0.4
			c0,0.2,0.3,0.5,0.8,1.1c0.5,0.5,0.9,0.9,1.3,1.1c0.2,0.1,0.3,0.2,0.3,0.3c0,0.1,0.2,0.2,0.5,0.6c0.7,0.7,1.1,1.1,1.1,1.4
			c0,0.1,0.1,0.1,0.3,0.1c0.2,0,0.3,0,0.3,0.1c0,0.1,0.1,0.3,0.4,0.5c0.2,0.2,0.4,0.4,0.4,0.6c0,0.1,0.1,0.3,0.3,0.5
			c0.2,0.2,0.3,0.3,0.4,0.3c0.1,0,0.3,0.2,0.6,0.5c0.3,0.3,0.5,0.5,0.7,0.6c0.1,0.1,0.2,0.1,0.3,0.1c0.4,0,0.6-0.2,0.6-0.6
			c0-0.1,0-0.2,0-0.4c0-0.9-0.1-1.4-0.2-1.6c-0.1-0.1-0.1-0.5-0.1-1.3v-0.4c0-1,0-1.6-0.1-1.6c-0.1-0.1-0.2-0.4-0.2-1
			c0-0.5,0-0.8,0.1-0.8c0.1-0.1,0.2-0.2,0.2-0.5s0-0.4,0.1-0.4c0.1,0,0.1-0.1,0.1-0.4c0-0.3,0-0.4-0.1-0.4c-0.1,0-0.1-0.1-0.1-0.4
			c0-0.4,0.1-0.7,0.2-1c0.2-0.3,0.4-0.5,0.7-0.5c0.2,0,0.4-0.1,0.4-0.1c0.1,0,0.1-0.2,0.1-0.5v-0.2C287.7,782.3,287.6,782,287.4,782
			z"/>
		<path d="M307,784.1c0.1,0,0.2-0.2,0.2-0.5c0-0.3-0.1-0.4-0.2-0.4c-0.1,0-0.1-0.1-0.1-0.3c0-0.2,0.1-0.4,0.2-0.7
			c0.1-0.3,0-0.5-0.2-0.7c-0.2-0.2-0.5-0.3-0.9-0.3c-0.4,0-0.8,0.1-1.1,0.4c-0.3,0.2-0.5,0.3-0.6,0.2c-0.1-0.1-0.1-0.1-0.3-0.1
			c-0.1,0-0.2,0-0.6,0.1c-0.4,0.1-1.3,0.2-2.7,0.2c-1,0-1.5,0-1.6-0.1c-0.1-0.1-0.2,0-0.4,0.2c-0.1,0.1-0.3,0.2-0.4,0.2
			c-0.1,0-0.3,0-0.8-0.1c-0.8-0.2-1.2-0.3-1.3-0.3c0,0-0.1,0-0.3,0.1c-0.1,0-0.3,0.1-0.4,0.3c-0.1,0.2-0.2,0.4-0.2,0.5
			c0,0,0,0.1,0.1,0.2c0.1,0.1,0.1,0.2,0.2,0.5c0,0.1,0,0.2-0.1,0.3c-0.1,0-0.2,0.1-0.4,0.1c-0.1,0-0.3,0-0.4,0.1
			c-0.1,0.1-0.2,0.2-0.2,0.2c0,0.1,0,0.1,0.1,0.2c0.1,0.1,0.1,0.3,0.1,0.7c0,0.3-0.1,0.5-0.1,0.5c0,0.5,0.2,0.8,0.6,0.8
			c0.3,0,0.4-0.1,0.4-0.2c0-0.1,0.1-0.2,0.2-0.2c0.3,0,0.3-0.2,0-0.5c-0.1-0.1-0.2-0.2-0.2-0.3c0,0,0.1-0.1,0.3-0.1
			c0.2-0.1,0.3-0.2,0.2-0.4c-0.1-0.2,0-0.4,0-0.6c0.1-0.1,0.1-0.3,0-0.6c-0.1-0.3-0.1-0.4,0-0.4c0.1,0,0.1,0.1,0.1,0.2
			c0,0.1,0.2,0.3,0.6,0.4c0.4,0.1,0.8,0.2,1.1,0.2c0.4,0,0.7,0.1,0.9,0.3c0.2,0.2,0.4,0.2,0.5,0.2c0.1,0,0.2,0,0.2,0
			c0,0,0,0.1-0.1,0.1c-0.3,0.4-0.4,2.4-0.5,6.1c0,0.8-0.1,1.2-0.3,1.4c-0.2,0.2-0.3,0.3-0.3,0.5c0,0.1-0.3,0.2-0.8,0.2l-0.8,0.1
			L297,793c0,0,0,0.1,0,0.1c0,0.1,0,0.1,0,0.1c0,0.2,0.2,0.5,0.5,0.8c0.3,0.3,0.6,0.4,0.7,0.4c0.1,0,0.2,0,0.2-0.1
			c0-0.1-0.1-0.1-0.2-0.1c-0.1,0-0.1,0-0.1-0.1c0-0.1,0.2-0.1,0.5-0.1c0.1,0,0.4,0,0.9,0c0.4,0,0.8,0,1,0c0.5,0,0.9,0,1-0.1
			c0.1-0.1,0.3-0.2,0.6-0.1c0.2,0,0.3,0,0.4-0.1c0.1-0.1,0.2-0.1,0.3-0.1c0.1,0,0.3-0.1,0.5-0.3c0.1-0.1,0.2-0.2,0.2-0.3
			c0-0.1-0.1-0.2-0.2-0.5c-0.2-0.3-0.3-0.5-0.5-0.5c-0.1,0-0.2-0.1-0.2-0.2c0-0.1-0.1-0.2-0.3-0.1c0,0-0.1,0-0.1,0
			c-0.1,0-0.1,0-0.1,0c-0.1,0-0.2,0-0.3-0.1c0-0.1-0.1-0.3-0.1-0.5v-0.5c0-0.5,0-0.8,0-0.9c0-0.1,0.1-0.2,0.2-0.2
			c0.2,0,0.2-0.1,0.2-0.4c0-0.3-0.1-0.5-0.2-0.5c-0.1,0-0.2-0.4-0.2-1.1c0-0.8,0.1-1.3,0.2-1.4c0.1-0.1,0.2-0.6,0.2-1.2
			c0-0.7,0.1-1.1,0.1-1.2c0.1-0.2,0.5-0.2,1.2-0.2c1.1,0,1.7,0.1,1.8,0.4c0,0.1,0.1,0.2,0.4,0.5c0.2,0.2,0.3,0.5,0.4,0.8
			c0,0.3,0.1,0.5,0.1,0.5c0.1,0.1,0.2,0.1,0.4,0.1c0.3,0,0.4,0,0.4-0.1c0-0.1,0.1-0.2,0.3-0.3c0.2-0.1,0.3-0.2,0.3-0.4
			s-0.1-0.4-0.3-0.6C306.9,784.2,306.9,784.1,307,784.1z"/>
		<path d="M327.8,792.9c-0.1,0-0.1-0.1-0.2-0.4c-0.1-0.2-0.1-0.3-0.2-0.3c0,0-0.3,0.1-0.8,0.2c0,0-0.1,0-0.2,0c-0.4,0-0.7-0.6-1-1.7
			c-0.2-0.8-0.4-1.3-0.4-1.4c-0.1-0.1-0.2-0.3-0.2-0.5c-0.1-0.4-0.3-1.3-0.8-2.8c-0.5-1.5-0.7-2.4-0.8-2.7c-0.2-1-0.4-1.5-0.5-1.7
			c-0.1-0.2-0.2-0.3-0.4-0.3c-0.3-0.1-0.4,0-0.5,0.1c-0.1,0.1-0.2,0.2-0.4,0.2c-0.2,0-0.4,0.1-0.4,0.2c0,0.1-0.1,0.1-0.2,0.1
			c-0.1,0-0.2,0.2-0.4,0.6c-0.2,0.4-0.3,0.8-0.5,1.2s-0.2,0.6-0.3,0.7c-0.1,0.1-0.1,0.2-0.1,0.4c0,0.2-0.1,0.6-0.4,1.2
			c-0.3,0.6-0.5,1.1-0.5,1.5c-0.1,0.4-0.2,0.6-0.2,0.7c-0.1,0.1-0.2,0.3-0.4,0.8c-0.2,0.5-0.3,0.7-0.3,0.8c-0.1,0.2-0.2,0.4-0.2,0.5
			c0,0.2,0,0.2-0.1,0.2c-0.1,0-0.2,0.1-0.3,0.4c-0.1,0.2-0.2,0.4-0.2,0.6c0,0.1-0.2,0.3-0.5,0.6c-0.3,0.3-0.5,0.4-0.7,0.4
			c-0.2,0-0.3,0.1-0.5,0.4c-0.2,0.2-0.4,0.4-0.5,0.4c-0.1,0-0.2,0.1-0.4,0.4c-0.1,0.2-0.1,0.3-0.1,0.4c0,0.1,0.1,0.3,0.4,0.5
			l0.5,0.4l2-0.1c1.1,0,1.8-0.1,2.1-0.1c0.3,0,0.5-0.1,0.5-0.2c0,0,0-0.1-0.1-0.2c-0.1-0.2-0.1-0.3,0.1-0.3c0.1,0,0.2-0.1,0.2-0.2
			c0-0.1-0.1-0.2-0.2-0.2c-0.1,0-0.3-0.1-0.4-0.2c-0.1-0.1-0.4-0.2-0.7-0.3c-0.5-0.1-0.7-0.3-0.7-0.5c0-0.1,0-0.2,0.1-0.3
			c0.1-0.2,0.2-0.3,0.2-0.5c0-0.1,0-0.2,0.1-0.2c0.1,0,0.1-0.2,0.1-0.7v-0.7h0.6c0.4,0,0.7-0.1,0.7-0.2c0.1-0.2,0.6-0.2,1.5-0.2h0.4
			c0.7,0,1,0,1.1,0.1c0.1,0.1,0.2,0.4,0.2,0.8c0,0.5,0.1,0.8,0.3,0.9c0.2,0.2,0.3,0.4,0.3,0.6c0,0,0,0,0,0.1c0,0,0,0.1,0,0.1
			c0,0.3-0.1,0.4-0.1,0.5c-0.1,0.1-0.3,0.1-0.6,0.2c-0.5,0.1-0.7,0.2-0.8,0.3c0,0.1-0.1,0.1-0.3,0.1c-0.2,0-0.3,0.1-0.3,0.3
			c0,0.3,0,0.4,0.1,0.5c0.1,0.1,0.3,0.1,0.6,0.1c0.3,0,0.7,0,1.3-0.1c0.6-0.1,1.3-0.1,2-0.1c0.4,0,0.7,0,0.8,0c0.2,0,0.4,0,0.6,0
			c0.3,0,0.5-0.1,0.5-0.3c0.1-0.2,0.1-0.3,0.2-0.3c0.1,0,0.1-0.2,0.1-0.5S327.9,792.9,327.8,792.9z M321.6,788.4c0,0-0.1,0-0.2,0
			c-0.1,0-0.1,0-0.1,0c-0.3,0-0.5,0.1-0.6,0.2c-0.1,0.1-0.3,0.2-0.4,0.2c-0.2,0-0.3-0.1-0.4-0.2c-0.1-0.1-0.2-0.2-0.3-0.2
			c-0.1,0-0.2-0.1-0.2-0.2c0-0.1,0-0.2,0.1-0.2c0.1,0,0.2-0.1,0.3-0.4c0.1-0.3,0.2-0.5,0.2-0.7c0-0.2,0.1-0.3,0.2-0.4
			c0.1,0,0.2-0.3,0.2-0.8c0.1-0.6,0.3-0.9,0.6-0.9c0.2,0,0.3,0.1,0.5,0.2c0.1,0.1,0.2,0.2,0.4,0.5c0.1,0.3,0.2,0.4,0.2,0.5
			c0,0-0.1,0.1-0.3,0.1c-0.2,0-0.3,0.1-0.4,0.2c-0.1,0.1,0,0.2,0.1,0.2c0.1,0,0.2,0.1,0.2,0.2c0.1,0.1,0.2,0.3,0.2,0.4
			c0.1,0.2,0.1,0.2,0.2,0.3c0.1,0.1,0.1,0.3,0.2,0.6l0.1,0.5L321.6,788.4z"/>
		<path d="M345.2,783.3h-0.9c-0.5,0-0.8,0-1-0.1c-0.2-0.1-0.3-0.2-0.3-0.5c0-0.1,0-0.2-0.1-0.3c-0.1,0-0.1,0-0.2,0.1
			c-0.1,0.1-0.4,0.2-0.7,0.2c-0.1,0-0.2,0-0.2-0.1c0-0.1-0.2-0.1-0.7-0.1c-0.4,0-0.7,0.1-0.8,0.2c-0.1,0.1-0.2,0.2-0.4,0.2
			c-0.2,0-0.3,0-0.4,0c-0.1,0-0.1,0-0.2,0c-0.1,0-0.1,0-0.2,0c-0.3,0-0.5,0.1-0.7,0.4c-0.3,0.3-0.5,0.4-0.7,0.5
			c-0.1,0-0.3,0.2-0.5,0.5c-0.2,0.3-0.4,0.4-0.5,0.4c-0.4,0.1-0.7,0.4-0.7,0.9c0,0.2-0.1,0.4-0.2,0.6c-0.1,0.2-0.2,0.4-0.2,0.6
			c0,0.3,0,0.4-0.1,0.5c-0.1,0.1-0.2,0.2-0.2,0.4c0,0.2-0.1,0.3-0.2,0.4c-0.1,0.1-0.2,0.5-0.2,1.4c0,1,0.1,1.5,0.2,1.6
			c0.1,0,0.1,0.1,0.1,0.2s0,0.2-0.1,0.2c-0.1,0,0,0.2,0.2,0.4c0.3,0.2,0.4,0.4,0.5,0.4c0.1,0,0.1,0.1,0.2,0.3
			c0.1,0.2,0.2,0.4,0.6,0.7c0.3,0.3,0.6,0.5,0.8,0.6c0.2,0.1,0.2,0.1,0.2,0.2c0,0.1,0.3,0.2,0.9,0.3c0.6,0.1,1.3,0.1,2,0.1
			c1.1,0,1.7-0.1,1.9-0.3c0.1-0.1,0.4-0.3,0.8-0.3c0.3-0.1,0.6-0.2,0.8-0.5c0.3-0.4,0.5-0.7,0.7-0.8c0.3-0.3,0.4-0.5,0.4-0.6
			c0-0.1-0.1-0.2-0.3-0.3c-0.4-0.2-0.6-0.3-0.8-0.3c-0.1,0-0.2,0.1-0.3,0.3c-0.1,0.2-0.2,0.4-0.4,0.4c-0.2,0-0.4,0.1-0.6,0.4
			c-0.2,0.2-0.4,0.3-0.5,0.2c-0.1-0.1-0.2-0.1-0.4,0.1c-0.1,0.1-0.4,0.2-0.7,0.2c-0.1,0-0.4,0-0.8-0.1c-0.6,0-1.1-0.1-1.2-0.2
			c-0.2-0.1-0.3-0.3-0.3-0.5c0-0.2-0.2-0.5-0.6-0.9c-0.3-0.3-0.5-0.5-0.6-0.7c-0.1-0.2-0.2-0.5-0.3-0.9c-0.1-0.7-0.2-1-0.3-1
			c-0.1,0-0.1-0.1-0.1-0.2c0-0.1,0-0.2,0.1-0.2c0.2,0,0.3-0.7,0.3-1.9c0-0.2,0.1-0.2,0.3-0.2c0.2,0,0.3-0.1,0.2-0.3
			c0-0.1,0-0.2,0-0.3c0.1-0.1,0.2-0.1,0.4-0.2c0.3-0.1,0.5-0.3,0.5-0.4c0-0.1,0.1-0.3,0.3-0.4c0.2-0.1,0.4-0.2,0.7-0.2
			c0.2,0,0.3-0.1,0.3-0.2c0-0.1,0.2-0.2,0.7-0.2c0.1,0,0.2,0,0.4,0c0.5,0,0.9,0.2,1.1,0.5c0.2,0.2,0.4,0.3,0.6,0.4
			c0.3,0.1,0.4,0.2,0.4,0.4c-0.1,0.2,0,0.3,0.1,0.4c0.1,0.1,0.3,0.4,0.4,0.9c0.1,0.4,0.1,0.6,0.2,0.7c0.1,0.1,0.2,0.2,0.4,0.3
			c0.3,0.1,0.4,0.2,0.4,0.4c0,0.1,0.1,0.2,0.2,0.1c0.1-0.1,0.2-0.6,0.2-1.5c0-1,0.1-1.5,0.2-1.5c0.1-0.1,0.1-0.3,0-0.8L345.2,783.3z
			"/>
		<path d="M349.8,799.7c-0.1,0-0.1,0.1-0.1,0.3c0,0.2,0,0.3,0.1,0.3c0.1,0,0.1-0.1,0.1-0.3C349.9,799.8,349.9,799.7,349.8,799.7z"/>
		<path d="M366.4,790.1c-0.1,0-0.2-0.1-0.2-0.3c-0.1-0.2-0.2-0.3-0.4-0.3c-0.2,0-0.4-0.1-0.4-0.4c0-0.1-0.1-0.2-0.2-0.3
			c-0.2-0.1-0.3-0.1-0.3,0.1c0,0.1-0.1,0.2-0.4,0.3c-0.2,0.1-0.3,0.2-0.1,0.3c0.1,0.1,0.2,0.3,0.2,0.6c0,0.3,0,0.4-0.1,0.4
			c-0.1,0-0.3,0.2-0.6,0.5c-0.6,0.6-1.1,0.9-1.5,0.9c-0.2,0-0.4,0.1-0.7,0.2c-0.3,0.1-0.7,0.2-1.2,0.2c-0.6,0-0.9-0.1-0.9-0.4
			c0-0.1,0-0.1,0-0.2c0.1-0.2,0.1-0.3,0-0.4c-0.1,0-0.1-0.2-0.1-0.4c0-0.4,0-0.7,0.1-1c0-0.1,0.1-0.2,0.1-0.4c0-0.1,0-0.4-0.1-0.6
			c0-0.1,0-0.3,0-0.5c0-0.2,0-0.3,0.1-0.4c0.2-0.1,0.2-0.3,0.2-0.8c0-0.2,0-0.3-0.1-0.4c-0.1-0.1-0.1-0.2,0-0.4
			c0.1-0.1,0.1-0.5,0.1-1.2V785l-0.1-1.3h0.9c0.6,0,1-0.1,1.1-0.2c0.1-0.2,0.1-0.4,0.1-0.6c0-0.3-0.1-0.5-0.2-0.6
			c-0.1-0.1-1.1-0.1-2.9-0.1h-0.9c-1.2,0-1.8,0.1-1.8,0.2c-0.1,0.1-0.1,0.3-0.1,0.4c0,0.3,0.1,0.6,0.2,0.7c0.1,0.1,0.4,0.2,0.7,0.2
			c0.5,0,0.8,0.1,0.8,0.4c0,0.1,0,0.1-0.1,0.2c-0.1,0.1-0.1,0.4-0.1,0.7c0,0.3,0,0.6,0.1,0.8c0.1,0.3,0.1,0.4,0,0.5
			c-0.1,0.1-0.1,0.3-0.1,0.7c0,0.2,0,0.3,0,0.4c0,0.8,0.1,1.3,0.1,1.6c0,1.3-0.1,1.9-0.3,1.9c-0.1,0-0.2,0.2-0.2,0.7
			c0,0.2,0,0.3,0.1,0.4l0.1,0.1c0,0.2-0.3,0.2-0.9,0.2c-0.3,0-0.5,0.1-0.6,0.2c-0.1,0.1-0.2,0.4-0.2,0.8v0.2c0,0.5,0.2,0.8,0.6,0.8
			c0.1,0,0.3,0,0.4-0.1c0.3-0.1,0.4-0.2,0.4-0.3c0-0.1,0.3-0.1,1-0.1c0.7,0,1,0,1,0.1c0,0.1,0.7,0.1,2.1,0.1c1.4,0,2.1-0.1,2.1-0.1
			c0-0.1,0.3-0.1,0.8-0.1c0.6,0,0.9,0,0.9,0.1c0,0.1,0.1,0.2,0.4,0.2c0.2,0,0.4-0.1,0.4-0.3c0-0.1,0.1-0.3,0.3-0.4
			c0.2-0.1,0.3-0.2,0.3-0.4c0-0.2,0-0.4,0.1-0.5c0.1-0.1,0.1-0.3,0-0.4c0,0-0.1-0.1-0.1-0.2c0-0.2,0-0.5,0.1-0.8
			c0.1-0.3,0.2-0.4,0.2-0.4c0.1,0,0.1-0.1,0.1-0.3C366.5,790.2,366.4,790.1,366.4,790.1z"/>
		<path d="M367.3,790.7c0,0-0.1,0-0.1,0c-0.1,0-0.1,0-0.1,0.1c-0.2,0-0.3,0.1-0.3,0.3c0,0.1,0.1,0.2,0.3,0.2c0.2,0,0.3-0.1,0.3-0.3
			C367.3,790.7,367.3,790.6,367.3,790.7L367.3,790.7z"/>
		<path d="M374.6,792c0.1-0.2,0.1-0.3-0.1-0.3c-0.1,0-0.2,0.1-0.2,0.2c0,0.1,0,0.2,0.1,0.2C374.4,792.2,374.5,792.1,374.6,792z"/>
		<path d="M385.1,790.2c-0.1,0-0.3,0.2-0.5,0.5c-0.3,0.4-0.4,0.6-0.4,0.7c0,0.1-0.1,0.2-0.4,0.2c-0.2,0-0.3,0.1-0.3,0.1
			c0,0,0,0.1,0,0.3v0.2c0,0.2-0.1,0.3-0.4,0.3c0,0-0.1,0-0.2,0c-0.1,0-0.1,0-0.2,0c-0.2,0-0.4,0.1-0.7,0.4c-0.2,0.2-0.4,0.3-0.6,0.3
			c-0.1,0-0.2-0.1-0.2-0.2c-0.1-0.1-0.2-0.1-0.4,0c-0.2,0.1-0.6,0.2-1.2,0.2c-0.5,0-0.7,0-0.7-0.1c0-0.1-0.1-0.1-0.2-0.1
			c-0.1,0-0.1-0.1-0.2-0.2c-0.1-0.2-0.1-0.3-0.1-0.5c0,0,0-0.6,0.1-1.8c0-1.2,0.1-1.8,0.1-1.8c0-0.1,0.5-0.1,1.4-0.1
			c0.8,0,1.3,0.1,1.5,0.2c0.3,0.1,0.4,0.4,0.4,0.8c0,0.2,0,0.3,0.1,0.3c0,0,0.1,0,0.2,0c0.2-0.1,0.4-0.1,0.6-0.1h0.1
			c0.2,0,0.3-0.2,0.3-0.6c0-0.1,0-0.2,0-0.3c0-0.2,0-0.3,0-0.4v-0.3c0-0.4,0-0.6,0.1-0.6c0.1-0.1,0.1-0.3,0-0.4
			c-0.1-0.1-0.1-0.3,0.1-0.4c0.2-0.1,0.2-0.2,0.2-0.4c0-0.3-0.4-0.4-1.1-0.4c-0.4,0-0.6,0.2-0.6,0.5c0,0.1,0,0.2,0.1,0.3
			c0.1,0.2,0,0.3-0.1,0.5c-0.1,0.1-0.4,0.2-0.9,0.3c-0.6,0.1-1.1,0.2-1.6,0.2h-0.6V787c0-0.4,0.1-0.6,0.2-0.6c0.1,0,0.2-0.1,0.2-0.4
			c0-0.3-0.1-0.6-0.2-0.9c-0.1-0.2-0.2-0.4-0.2-0.4c0-0.1,0.1-0.1,0.2-0.3c0.2-0.2,0.3-0.3,0.2-0.5c0,0,0-0.1,0-0.2
			c0-0.2,0.1-0.3,0.4-0.4c0.3-0.1,0.8-0.1,1.5-0.2c0.6,0,1-0.1,1.1-0.1c0.4,0,0.6,0.1,0.7,0.2c0.2,0.2,0.3,0.3,0.5,0.4
			c0.2,0.1,0.3,0.2,0.3,0.3c0,0.1,0.1,0.2,0.4,0.4c0.2,0.1,0.4,0.3,0.4,0.3c0,0.2,0.1,0.3,0.3,0.5c0.2,0.2,0.4,0.3,0.6,0.3h0.1
			c0.3,0,0.4-0.2,0.4-0.7c0-0.2-0.1-0.4-0.2-0.5c-0.1-0.2-0.2-0.4-0.2-0.6c0-0.3-0.1-0.5-0.2-0.5c-0.1-0.1-0.1-0.2,0-0.4
			c0.1-0.1,0.1-0.2,0.1-0.3c0-0.1-0.1-0.1-0.2-0.2c-0.1-0.1-0.2-0.2-0.2-0.3c0-0.1-0.1-0.3-0.3-0.5c-0.1-0.1-0.2-0.2-0.3-0.2
			s-0.2,0-0.3,0.1c-0.2,0.1-1.9,0.3-5,0.4h-0.7c-1.5,0-2.3-0.1-2.4-0.3c0-0.1-0.1-0.1-0.3-0.1c-0.1,0-0.2,0-0.2,0.1
			c0,0.1-0.1,0.2-0.1,0.3s0,0.3,0,0.3c0,0.2-0.1,0.3-0.3,0.4c-0.2,0-0.3,0.2-0.2,0.5c0.1,0.2,0.1,0.4,0.2,0.5
			c0.1,0.1,0.2,0.1,0.3,0.1s0.3,0,0.4,0c0.1,0,0.1,0,0.2,0c0.1,0,0.1,0,0.2,0c0.4,0,0.6,0.1,0.7,0.4c0.1,0.2,0.1,0.8,0.1,1.5
			c0,0.9-0.1,1.4-0.2,1.5c-0.1,0-0.1,0.2,0,0.4c0.1,0.3,0.1,0.5,0,0.7c-0.1,0.2-0.2,0.3-0.3,0.3c-0.1,0-0.1,0.1,0.1,0.2
			c0.1,0.1,0.1,0.3,0.1,0.6c0,0.3-0.1,1.3-0.2,3l-0.1,1h-0.6c-0.4,0-0.6,0.1-0.7,0.3c-0.1,0.2-0.2,0.3-0.3,0.3
			c-0.2,0-0.2,0.1-0.2,0.4c0,0.3,0.1,0.5,0.3,0.6c0.2,0.1,0.3,0.3,0.3,0.4c0,0.1,0.1,0.2,0.3,0.2c0.2,0,0.5,0,0.8-0.1
			c0.3-0.1,0.5-0.2,0.6-0.2c0.2-0.1,0.6-0.2,1.2-0.2c0.1,0,0.6,0,1.5,0.1c0.8,0,1.2,0.1,1.2,0.2c0.1,0.1,0.2,0.1,0.4,0
			c0.3-0.1,0.8-0.2,1.6-0.2c0.9,0,1.4,0,1.6-0.1c0.2,0,0.3-0.1,0.5-0.2c0.2-0.2,0.3-0.4,0.2-0.6c-0.1-0.2,0-0.4,0.2-0.4
			c0.1-0.1,0.2-0.4,0.2-0.8c0-0.3,0-0.5,0.1-0.6c0-0.1,0.1-0.1,0.2-0.1c0.2,0,0.3-0.2,0.3-0.5c0-0.3-0.1-0.5-0.2-0.7
			C385.4,790.3,385.3,790.2,385.1,790.2z"/>
		<path d="M401.2,789.5c0-0.6-0.1-0.9-0.2-1.1c-0.1-0.2-0.3-0.4-0.6-0.5c-0.3-0.1-0.5-0.3-0.5-0.4c-0.1-0.1-0.3-0.3-0.9-0.6
			c-0.5-0.3-1-0.5-1.3-0.6c-0.2-0.1-0.5-0.2-0.9-0.5s-0.6-0.4-0.6-0.5c0-0.1-0.1-0.2-0.2-0.3c-0.2-0.1-0.2-0.2-0.2-0.3
			c0,0,0-0.1,0-0.1c0.1-0.1,0.1-0.2,0.1-0.3s0-0.3-0.1-0.6c0-0.1,0-0.2,0-0.2c0,0,0.2-0.1,0.3-0.1c0.3,0,0.4-0.1,0.4-0.2
			c0-0.1,0.1-0.2,0.4-0.4c0.3-0.2,0.4-0.3,0.4-0.3c0-0.1,0.1-0.1,0.4-0.2c0.1,0,0.1,0,0.2,0c0.4,0,0.8,0.2,1.2,0.5
			c0.5,0.3,0.7,0.6,0.7,0.9c0,0.2,0.1,0.4,0.3,0.5c0.2,0.1,0.3,0.3,0.3,0.4s0.1,0.3,0.2,0.5s0.3,0.3,0.4,0.3c0,0,0,0,0.1,0
			c0.1-0.1,0.1-0.7,0.2-2v-0.8c0-0.6-0.1-0.9-0.2-0.9c-0.1,0-0.1,0-0.1,0c-0.3,0.1-0.6,0.2-0.8,0.2c-0.3,0-0.6-0.1-1-0.3
			c-0.4-0.2-0.6-0.3-0.7-0.3c0,0-0.1,0-0.2,0.1c-0.3,0.1-0.6,0.1-0.8,0.1c-0.3,0-0.4,0-0.5,0.1c0,0.1-0.1,0.2-0.3,0.2
			c-0.2,0-0.4-0.1-0.5-0.2c-0.1-0.1-0.3-0.2-0.5-0.2h0c-0.1,0-0.1,0-0.1,0c-0.1,0-0.1,0-0.1,0c0,0,0.1,0,0.1,0
			c0.1,0.1,0.2,0.1,0.2,0.2c0,0.2-0.2,0.3-0.5,0.4c-0.3,0.1-0.4,0.2-0.4,0.4c0.1,0.2,0,0.3-0.2,0.4c-0.3,0.1-0.6,0.5-1.1,1.1
			c-0.1,0.2-0.2,0.4-0.2,0.6c0,0,0,0.3,0.1,0.8c0.1,0.7,0.3,1.1,0.4,1.3c0.1,0.2,0.4,0.4,0.7,0.7c0.4,0.3,0.6,0.4,0.8,0.4
			c0.1,0,0.3,0.1,0.6,0.4c0.4,0.3,0.9,0.6,1.7,0.8c0.5,0.1,0.8,0.3,1.1,0.6c0.2,0.2,0.3,0.4,0.5,0.7c0.1,0.3,0.2,0.5,0.2,0.7
			c0,0.1,0,0.1-0.1,0.2c-0.1,0-0.1,0.2-0.1,0.4c0.1,0.2,0,0.4-0.2,0.6c-0.1,0.1-0.2,0.3-0.2,0.4c0,0.2-0.5,0.4-1.4,0.5
			c-0.1,0-0.3,0-0.6,0c-0.9,0-1.7-0.4-2.2-1.2c-0.3-0.4-0.5-0.8-0.5-1c0,0,0-0.1,0-0.2c0-0.1,0-0.2,0-0.2c0,0-0.1-0.1-0.1-0.1
			c-0.1,0-0.1,0-0.1-0.1c0.1-0.3-0.1-0.5-0.4-0.6c-0.1,0-0.2-0.1-0.3-0.1c-0.3,0-0.4,0.2-0.5,0.5c-0.1,1.2-0.1,1.9-0.2,1.9
			c-0.1,0.1-0.1,0.4-0.2,0.8c0,0.1,0,0.3,0,0.4c0,0.2,0.1,0.4,0.3,0.6c0.1,0.1,0.2,0.2,0.3,0.2c0,0,0.1,0,0.2-0.2
			c0.1-0.2,0.2-0.3,0.2-0.4c0-0.3,0.2-0.3,0.5-0.1c0.9,0.5,1.8,0.7,2.9,0.7c0.5,0,1.1-0.1,1.6-0.2c0.6-0.1,1.1-0.3,1.4-0.6
			c0.3-0.3,0.5-0.5,0.5-0.5c0-0.1,0.1-0.2,0.2-0.3c0.2-0.1,0.3-0.4,0.3-0.9c0.1-0.5,0.1-0.7,0.2-0.7c0.1,0,0.1,0,0-0.1
			C401.2,790.6,401.2,790.2,401.2,789.5z M396.8,788C396.7,788,396.7,787.9,396.8,788c-0.1-0.1-0.1-0.1,0-0.1S396.9,787.9,396.8,788
			C396.9,787.9,396.8,788,396.8,788z"/>
		<path d="M395.3,788.7c0-0.1,0-0.2-0.1-0.2c-0.1,0-0.1,0-0.1,0.1l0.1,0.2C395.2,789,395.3,788.9,395.3,788.7z"/>
		<polygon points="51.7,807.5 44,812.7 41.2,798.7 38.4,812.7 30.7,807.5 35.9,815.3 21.8,818 35.9,820.8 30.7,828.5 38.4,823.3 
			41.2,837.4 43.9,823.4 51.7,828.5 46.5,820.8 60.5,818 46.5,815.3 		"/>
		<polygon points="468.1,815.3 473.3,807.5 465.5,812.7 462.8,798.7 460,812.7 452.3,807.5 457.5,815.3 443.4,818 457.5,820.8 
			452.3,828.5 460,823.3 462.8,837.4 465.5,823.4 473.3,828.5 468.1,820.8 482.1,818 		"/>
		<polygon points="30.7,56.3 38.4,51.1 41.2,65.1 44,51.1 51.7,56.3 46.5,48.5 60.5,45.8 46.5,43 51.7,35.3 43.9,40.4 41.2,26.4 
			38.4,40.5 30.7,35.3 35.9,43 21.8,45.8 35.9,48.5 		"/>
		<polygon points="473.3,35.3 465.5,40.4 462.8,26.4 460,40.5 452.3,35.3 457.5,43 443.4,45.8 457.5,48.5 452.3,56.3 460,51.1 
			462.8,65.1 465.5,51.1 473.3,56.3 468.1,48.5 482.1,45.8 468.1,43 		"/>
		<path d="M160.1,628.3c0,0,0.5,0,1.5,0C160.6,628.3,160.1,628.3,160.1,628.3z"/>
		<path d="M192.6,664.5c0,0,0-0.5,0-1.3C192.6,664.1,192.6,664.5,192.6,664.5z"/>
		<path d="M223.6,628.3c0.9,0,1.5,0,1.5,0S224.5,628.3,223.6,628.3z"/>
		<path d="M197.8,622.7c-4.8-5.6-5.2-24.4-5.3-29.5c0,5.1-0.5,23.9-5.2,29.5c-4.2,5-20.7,5.5-25.8,5.5c5,0,21.5,0.6,25.8,5.5
			c4.8,5.6,5.2,24.4,5.2,29.5c0-5.1,0.5-23.9,5.3-29.5c4.2-5,20.7-5.5,25.8-5.5C218.6,628.2,202.1,627.7,197.8,622.7z"/>
		<path d="M192.6,592c0,0,0,0.5,0,1.3C192.6,592.5,192.6,592,192.6,592z"/>
		<path d="M350.9,155.2c0,0,0-0.2,0-0.5C350.9,155,350.9,155.2,350.9,155.2z"/>
		<path d="M350.9,154.7c0-1.9,0.2-9.3,2.2-11.5c1.8-2,8.7-2.1,10.6-2.2c-2,0-8.9-0.2-10.6-2.2c-2-2.2-2.1-9.6-2.2-11.5
			c0,1.9-0.2,9.3-2.2,11.5c-1.8,2-8.7,2.1-10.6,2.2c2,0,8.9,0.2,10.6,2.2C350.8,145.4,350.9,152.8,350.9,154.7z"/>
		<path d="M338.1,141c-0.3,0-0.5,0-0.5,0S337.8,141,338.1,141z"/>
		<path d="M364.3,141c0,0-0.2,0-0.5,0C364.1,141,364.3,141,364.3,141z"/>
		<path d="M350.9,126.9c0,0,0,0.2,0,0.5C350.9,127.1,350.9,126.9,350.9,126.9z"/>
		<path d="M161.6,656.4c0,2.8-0.3,13.4-3.1,16.6c-2.5,2.8-12.5,3.1-15.3,3.1c2.8,0,12.8,0.3,15.3,3.1c2.8,3.1,3.1,13.8,3.1,16.6
			c0-2.8,0.3-13.4,3.1-16.6c2.5-2.8,12.5-3.1,15.3-3.1c-2.8,0-12.8-0.3-15.3-3.1C161.9,669.8,161.6,659.2,161.6,656.4z"/>
		<path d="M180,676.1c0.5,0,0.8,0,0.8,0S180.5,676.1,180,676.1z"/>
		<path d="M161.6,696.4c0,0,0-0.3,0-0.7C161.6,696.2,161.6,696.4,161.6,696.4z"/>
		<path d="M142.4,676.1c0,0,0.3,0,0.8,0C142.7,676.1,142.4,676.1,142.4,676.1z"/>
		<path d="M161.6,655.7c0,0,0,0.3,0,0.7C161.6,656,161.6,655.7,161.6,655.7z"/>
		<path d="M118.4,369.9c-3.6,0-15.3-0.4-18.3-3.7c-3.4-3.8-3.7-16.5-3.7-19.9c0,3.4-0.3,16.1-3.7,19.9c-3,3.3-14.7,3.7-18.3,3.7
			c3.6,0,15.3,0.4,18.3,3.7c3.4,3.8,3.7,16.5,3.7,19.9c0-3.4,0.3-16.1,3.7-19.9C103.1,370.3,114.8,369.9,118.4,369.9z"/>
		<path d="M119.4,369.9c0,0-0.4,0-1,0C119,369.9,119.4,369.9,119.4,369.9z"/>
		<path d="M73.3,369.9c0,0,0.4,0,1,0C73.7,369.9,73.3,369.9,73.3,369.9z"/>
		<path d="M96.4,345.4c0,0,0,0.3,0,0.9C96.4,345.8,96.4,345.4,96.4,345.4z"/>
		<path d="M96.4,394.3c0,0,0-0.3,0-0.9C96.4,394,96.4,394.3,96.4,394.3z"/>
		<path d="M333,698.4c0,0,0-0.1,0-0.3C333,698.3,333,698.4,333,698.4z"/>
		<path d="M323.8,688.7c0,0,0.1,0,0.4,0C324,688.7,323.8,688.7,323.8,688.7z"/>
		<path d="M342.2,688.7c0,0-0.1,0-0.4,0C342,688.7,342.2,688.7,342.2,688.7z"/>
		<path d="M341.8,688.7c-1.3,0-6.1-0.1-7.3-1.5c-1.4-1.5-1.5-6.6-1.5-7.9c0,1.3-0.1,6.4-1.5,7.9c-1.2,1.3-6,1.5-7.3,1.5
			c1.3,0,6.1,0.1,7.3,1.5c1.4,1.5,1.5,6.6,1.5,7.9c0-1.3,0.1-6.4,1.5-7.9C335.7,688.8,340.5,688.7,341.8,688.7z"/>
		<path d="M333,679c0,0,0,0.1,0,0.3C333,679.1,333,679,333,679z"/>
		<path d="M339.3,536.5c0,0,0.4,0,1.1,0C339.8,536.5,339.3,536.5,339.3,536.5z"/>
		<path d="M364.3,510.1c0,0,0,0.3,0,0.9C364.3,510.4,364.3,510.1,364.3,510.1z"/>
		<path d="M364.3,562.9c0,0,0-0.3,0-0.9C364.3,562.6,364.3,562.9,364.3,562.9z"/>
		<path d="M364.3,511c0,3.7-0.4,17.4-4,21.5c-3.3,3.6-15.9,4-19.8,4c3.9,0,16.5,0.4,19.8,4c3.7,4.1,4,17.8,4,21.5
			c0-3.7,0.4-17.4,4-21.5c3.3-3.6,15.9-4,19.8-4c-3.9,0-16.5-0.4-19.8-4C364.6,528.4,364.3,514.7,364.3,511z"/>
		<path d="M388.1,536.5c0.7,0,1.1,0,1.1,0S388.8,536.5,388.1,536.5z"/>
		<path d="M420.3,198.1c1.3,0,2.1,0,2.1,0S421.6,198.1,420.3,198.1z"/>
		<path d="M377.2,150.2c0,0,0,0.6,0,1.7C377.2,150.8,377.2,150.2,377.2,150.2z"/>
		<path d="M377.2,151.8c0,6.7-0.7,31.6-7.3,38.9c-5.9,6.5-28.8,7.2-35.8,7.3c7,0.1,29.9,0.8,35.8,7.3c6.6,7.4,7.3,32.3,7.3,38.9
			c0-6.7,0.7-31.6,7.3-38.9c5.9-6.5,28.8-7.2,35.8-7.3c-7-0.1-29.9-0.8-35.8-7.3C377.8,183.4,377.2,158.5,377.2,151.8z"/>
		<path d="M377.2,246c0,0,0-0.6,0-1.7C377.2,245.4,377.2,246,377.2,246z"/>
		<path d="M332,198.1c0,0,0.8,0,2.1,0C332.8,198.1,332,198.1,332,198.1z"/>
		<path d="M133.1,185.9c0,0-0.2,0-0.5,0C132.9,185.9,133.1,185.9,133.1,185.9z"/>
		<path d="M119.9,172c0,0,0,0.2,0,0.5C119.9,172.2,119.9,172,119.9,172z"/>
		<path d="M119.9,199.9c0,0,0-0.2,0-0.5C119.9,199.7,119.9,199.9,119.9,199.9z"/>
		<path d="M119.9,199.4c0-1.9,0.2-9.2,2.1-11.4c1.7-1.9,8.6-2.1,10.5-2.1c-1.9,0-8.8-0.2-10.5-2.1c-1.9-2.2-2.1-9.5-2.1-11.4
			c0,1.9-0.2,9.2-2.1,11.4c-1.7,1.9-8.6,2.1-10.5,2.1c1.9,0,8.8,0.2,10.5,2.1C119.7,190.2,119.9,197.5,119.9,199.4z"/>
		<path d="M107.3,185.9c-0.3,0-0.5,0-0.5,0S107,185.9,107.3,185.9z"/>
		<path d="M135.5,637.4c0.4,0,0.6,0,0.6,0S135.9,637.4,135.5,637.4z"/>
		<path d="M121.3,622.2c0,2.1-0.2,10.4-2.4,12.8c-2,2.2-9.6,2.4-11.8,2.4c2.2,0,9.9,0.2,11.8,2.4c2.2,2.4,2.4,10.6,2.4,12.8
			c0-2.1,0.2-10.4,2.4-12.8c2-2.2,9.6-2.4,11.8-2.4c-2.2,0-9.9-0.2-11.8-2.4C121.5,632.6,121.3,624.3,121.3,622.2z"/>
		<path d="M121.3,621.7c0,0,0,0.2,0,0.5C121.3,621.9,121.3,621.7,121.3,621.7z"/>
		<path d="M106.5,637.4c0,0,0.2,0,0.6,0C106.7,637.4,106.5,637.4,106.5,637.4z"/>
		<path d="M121.3,653.1c0,0,0-0.2,0-0.5C121.3,652.9,121.3,653.1,121.3,653.1z"/>
		<path d="M394.6,477.8c0,0,0.2,0,0.4,0C394.8,477.7,394.6,477.8,394.6,477.8z"/>
		<path d="M405,488.8c0,0,0-0.1,0-0.4C405,488.7,405,488.8,405,488.8z"/>
		<path d="M405,466.7c0,0,0,0.1,0,0.4C405,466.8,405,466.7,405,466.7z"/>
		<path d="M405,467c0,1.5-0.1,7.3-1.7,9c-1.4,1.5-6.8,1.7-8.3,1.7c1.5,0,7,0.2,8.3,1.7c1.5,1.7,1.7,7.5,1.7,9c0-1.5,0.1-7.3,1.7-9
			c1.4-1.5,6.8-1.7,8.3-1.7c-1.5,0-7-0.2-8.3-1.7C405.2,474.3,405.1,468.5,405,467z"/>
		<path d="M415.1,477.8c0.3,0,0.4,0,0.4,0S415.3,477.7,415.1,477.8z"/>
		<path d="M302,501c0.3,0.2,0.5,0.3,0.8,0.3c0.3,0,0.6-0.1,0.9-0.3c0.6-0.4,0.9-1.2,0.7-1.8l-19.2-59.3l-2.8,2l17.3,53.4
			c-21.1-15.6-68.5-50.7-77.9-57.6l-0.5-0.3l-1.1,3.3l0.2,0.2c9.5,7.1,53.4,39.6,64.4,47.6L302,501z"/>
		<path d="M163.3,396.9c-0.2,0.7,0,1.5,0.6,2l1.3,0.9c16.9,12.5,32.8,24.2,49.2,36.3l0.4,0.3l1.2-3.2l-0.3-0.2
			c-10.9-8-22.1-16.3-33-24.4l-13-9.6h96.9l-0.2-0.5c0-0.1-0.1-0.3-0.2-0.7c-0.2-0.6-0.5-1.4-0.6-1.8l-0.1-0.3H164.8
			C164.1,395.8,163.5,396.2,163.3,396.9z"/>
		<path d="M196.8,500.9c0.3,0.2,0.6,0.3,0.9,0.3c0.3,0,0.6-0.1,0.8-0.3l50-36.9l0.4-0.3l-0.4-0.3c-0.1-0.1-1.5-1.3-1.8-1.6l-0.3-0.3
			l-45.5,33.7l30.6-94.7l-3.5,0.1l-31.9,98.6C195.9,499.7,196.2,500.5,196.8,500.9z"/>
		<path d="M251,335.5c-0.2-0.1-0.3-0.1-0.6-0.2c0,0-0.1,0-0.1,0c-0.1,0-0.1,0-0.2,0c-0.2,0-0.4,0.1-0.5,0.1
			c-0.5,0.2-0.9,0.7-0.9,1.2l-18.4,56.9l-0.1,0.5l0.5,0c0.8,0.1,1.7,0.1,2.6,0l0.3,0l16.7-51.7l29.8,92.3l2.8-2.1l-31-95.7
			C251.9,336.2,251.5,335.7,251,335.5z"/>
		<path d="M273.3,396.4c0.3,0.8,0.6,1.6,0.9,2.5l0.1,0.3h56.4L252,457.4l-0.5,0.3l2.8,2l82.2-60.8c0.6-0.5,0.9-1.3,0.6-2
			c-0.2-0.7-0.8-1.1-1.5-1.1h-62.6L273.3,396.4z"/>
		<path d="M322.9,493.5c4.8-0.1,9.7-0.6,15-1.8c15.1-3.3,32.9-15.2,42.5-28c8-10.5,14.7-27.4,16.7-40.2c4.3-26.8-5.7-60.4-33.1-72.4
			c-11.3-5-30.9-6.2-43.4-4.8c-2.9,0.3-6.2,0.7-9.6,1.2c-8-6.3-16.9-11.3-26.4-14.9c-7.9-2.9-16.3-4.8-24.9-5.6l-0.6-0.1l0.1,0.6
			c0.2,0.8,0.3,1.6,0.4,2.4l0,0.3l0.3,0c3.3,0.3,6.5,0.8,9.5,1.4c30.3,6.2,56,27.2,68.7,56.1l0.2,0.3l0.3-0.1c0.4-0.1,0.8-0.1,1.2,0
			l0.3,0l0.2-0.2c0.1-0.1,0.2-0.2,0.3-0.4c0.1-0.1,0.2-0.2,0.4-0.4l0.3-0.2l-0.1-0.3c-0.4-1-0.9-2-1.4-3c10,2.2,18,7.5,21.6,18.4
			c7,21-7.4,41.5-15.2,48.7c2.1-8,3.3-16.3,3.3-24.7c-0.1-7.9-1.1-15.8-3-23.5l-0.1-0.4l-0.4,0.1c-0.9,0.2-1.7,0.3-2.4,0.6l-0.4,0.1
			l0.1,0.4c1.9,7.5,2.8,15.1,2.9,22.7c-0.2,28.6-12.9,55.6-34.9,74l-0.4,0.3l0.4,0.3c0.6,0.4,1.2,1,1.8,1.5l0.3,0.3l0.3-0.2
			C317.1,499.4,320.1,496.5,322.9,493.5z"/>
		<path d="M250.1,333.6c0.5,0,1-3.3,1.7-4s3-1,3-1.4c0-0.4-2.2-0.9-2.9-1.6c-0.7-0.7-1.1-4-1.6-4c-0.5,0-0.9,3.2-1.7,4
			c-0.8,0.8-3,0.9-3,1.4s2.1,0.8,2.9,1.6C249.4,330.4,249.7,333.6,250.1,333.6z"/>
		<path d="M155.1,399.1c0.5,0.2,1.4-1.8,2.4-2.3c1-0.5,4.2,0.2,4.3-0.2c0.2-0.5-2.8-1.9-3.2-2.9c-0.5-0.9,0-3.1-0.5-3.3
			c-0.4-0.1-1.5,1.9-2.4,2.3c-0.9,0.4-4.2-0.2-4.3,0.2c-0.2,0.5,2.7,1.8,3.2,2.9C155.1,396.8,154.6,398.9,155.1,399.1z"/>
		<path d="M189.3,510.8c0.4,0.3,2.6-2,3.7-2.2c1.2-0.2,2.9,1,3.3,0.6s-1.3-1.9-1.4-3c-0.2-1.1,1.5-3.9,1.1-4.2
			c-0.4-0.3-2.7,2.1-3.7,2.2c-1,0.1-3-0.9-3.3-0.6c-0.3,0.3,1.3,2,1.4,3S188.9,510.5,189.3,510.8z"/>
		<path d="M311.3,504.1c-0.3-0.4-2.2,0.6-3.3,0.4c-1.1-0.2-3.2-2.6-3.6-2.3c-0.4,0.3,1.1,3.2,0.9,4.2c-0.2,1-1.8,2.6-1.5,2.9
			c0.2,0.4,2.3-0.6,3.3-0.4c1,0.2,3.2,2.6,3.6,2.3c0.4-0.3-1.1-3.1-0.9-4.2C310,505.8,311.6,504.5,311.3,504.1z"/>
		<path d="M342.7,396.5c0.9,0.5,1.9,2.5,2.3,2.4c0.4-0.1,0.1-2.4,0.6-3.2c0.5-0.9,3.5-2.3,3.4-2.7c-0.1-0.5-3.3,0.1-4.3-0.4
			c-1-0.6-1.8-2.5-2.3-2.4c-0.5,0.2-0.1,2.3-0.6,3.2c-0.5,1-3.5,2.3-3.4,2.7C338.5,396.6,341.8,396.1,342.7,396.5z"/>
		<path d="M217.7,389.7c2.6,0,4.7-2.1,4.8-4.8l0,0l0,0c-0.1-2.7-2.2-4.8-4.8-4.8c-2.6,0-4.8,2.2-4.8,4.8c0,2.6,2.1,4.7,4.6,4.8
			C217.5,389.7,217.6,389.7,217.7,389.7z M215.9,384.9c0-1.2,0.8-1.7,1.7-1.7c0,0,0,0,0.1,0c0.9,0,1.8,0.5,1.9,1.7
			c-0.1,1.2-1,1.7-1.9,1.7c0,0,0,0-0.1,0C216.7,386.6,215.9,386,215.9,384.9z"/>
		<path d="M280.7,389.7c2.6,0,4.7-2.1,4.8-4.8l0,0l0,0c-0.1-2.7-2.2-4.8-4.8-4.8c-2.6,0-4.8,2.2-4.8,4.8c0,2.6,2.1,4.7,4.6,4.8
			C280.6,389.7,280.7,389.7,280.7,389.7z M279,384.9c0-1.2,0.8-1.7,1.7-1.7c0,0,0,0,0.1,0c0.9,0,1.8,0.5,1.9,1.7
			c-0.1,1.2-1,1.7-1.9,1.7c0,0,0,0-0.1,0C279.8,386.6,279,386,279,384.9z"/>
		<path d="M250.1,483c0.1,0,0.1,0,0.2,0c2.6,0,4.7-2.1,4.8-4.8c-0.1-2.7-2.2-4.8-4.8-4.8c-2.6,0-4.8,2.2-4.8,4.8
			C245.4,480.7,247.5,482.9,250.1,483z M250.1,476.4C250.2,476.4,250.2,476.4,250.1,476.4c0.9,0,1.8,0.5,1.9,1.7
			c-0.1,1.2-1,1.7-1.9,1.7c-0.8,0-1.7-0.6-1.7-1.7C248.5,477,249.3,476.4,250.1,476.4z"/>
		<path d="M200.2,441.1c0,2.6,2.1,4.7,4.6,4.8c0.1,0,0.1,0,0.2,0c2.6,0,4.7-2.1,4.8-4.8c-0.1-2.7-2.2-4.8-4.8-4.8
			C202.4,436.2,200.2,438.4,200.2,441.1z M206.8,441.1c-0.1,1.2-1.1,1.8-1.9,1.7c-0.8,0-1.7-0.6-1.7-1.7s0.8-1.7,1.7-1.7
			c0,0,0,0,0.1,0C205.8,439.3,206.7,439.9,206.8,441.1z"/>
		<path d="M295.9,445.9c2.6,0,4.7-2.1,4.8-4.8c-0.1-2.7-2.2-4.8-4.8-4.8c-2.6,0-4.8,2.2-4.8,4.8c0,2.6,2.1,4.7,4.6,4.8
			C295.8,445.9,295.9,445.9,295.9,445.9z M294.1,441.1c0-1.2,0.8-1.7,1.7-1.7c0,0,0,0,0.1,0c0.9,0,1.8,0.5,1.9,1.7
			c-0.1,1.2-1.1,1.8-1.9,1.7C295,442.8,294.1,442.2,294.1,441.1z"/>
		<polygon points="257,424.9 263.5,414.6 253.2,421.1 250.5,403.9 247.8,421.1 237.4,414.6 244,424.9 226.7,427.6 244,430.3 
			237.4,440.7 247.8,434.1 250.5,451.4 253.2,434.1 263.5,440.7 257,430.3 274.2,427.6 		"/>
		<path d="M165.6,373.7c-2.5,4.1-4.7,8.4-6.7,12.9l-0.2,0.5l0.5,0.1c0.7,0.1,1.3,0.3,2.1,0.8l0.4,0.2l0.2-0.4
			c1.7-4,3.7-7.8,5.8-11.4c15.6-25.9,43.2-43.1,73.7-46.1l0.4,0l-0.1-0.4c-0.1-0.8-0.2-1.6-0.2-2.3l0-0.5l-0.5,0
			c-16.1,1.5-31.5,6.9-44.8,15.4c-11.9-6.6-20.7-17.5-15.9-33.7c4.9-16.3,28.4-23.8,34.2-24.6c14.7-2,30.9,0.4,44,3.7
			c9.8,2.5,11.8,4.9,21.9,6.7c33,6,62.4-2.5,62-11.1c-0.8-19.1-39.5-33.8-46.7-34.7c-12.6-1.6-22.4-3-34.5-1.5
			c-10.5,1.3-25.7,1.7-35.4,1.5c-22.6-0.4-47.4,4.4-61,14.8c-25.7,19.8-36.3,51-20.8,85C149.1,359.4,156.5,367.6,165.6,373.7z"/>
		<path d="M273,522.9c9.3-2.2,18.3-5.7,26.7-10.6l0.4-0.2l-0.3-0.4c-0.5-0.7-0.9-1.3-1.1-2l-0.2-0.4l-0.4,0.2
			c-5,2.9-10.3,5.3-15.7,7.2c-4.5,1.6-9.2,2.8-13.8,3.7c-5.4-2.7-11.1-4.7-17-5.7c-16.5-2.8-30.8-1.5-39.1-0.5
			c-4.1-1.7-8.1-3.7-12-6.1l-0.5-0.3l-0.1,0.5c-0.2,0.9-0.5,1.6-0.8,2.2l-0.2,0.4l0.3,0.2c2.3,1.4,4.7,2.6,7,3.8c0,0,0,0,0,0
			c-15.7,1.2-26.3,3.1-32,0.8c-6.4-2.7-10.9-7.9-10.3-14.4c0.4-4.3,4.7-10.6,7.8-14.4c4.4,5.7,9.5,10.9,15.1,15.5l0.3,0.3l0.3-0.3
			c0.4-0.6,1-1.1,1.8-1.4l0.6-0.3l-0.5-0.4c-4.6-3.8-8.9-8-12.7-12.5c-19.4-23.2-26.7-54.9-19.4-84.8l0.1-0.5h-0.5
			c-0.8,0-1.6-0.1-2.2-0.3l-0.4-0.1l-0.1,0.4c-3.6,14.8-3.7,30.1-0.7,44.7c-6.8,3.6-15.4,8.1-20.1,14.2
			c-4.9,6.3-10.9,15.7-12.6,23.4c-3.3,14.3-4.6,36.6,9.9,52.5c16.3,17.7,38,18.1,59.3,15.6c31.3-3.7,57.8-10.5,74.7,1.3
			c26.5,18.5,19.9,62.8,3.9,92.4c-7,13-13.9,32.4-8.7,43.6c8.1-28.1,19.8-30.9,32.3-53.8c15.2-27.7,20.4-47.1,12.1-72
			C297.6,545.5,286.6,531.3,273,522.9z"/>
		<path d="M252.3,133l-1.6,106c1-0.1,2.1-0.1,3.1-0.2L252.3,133z"/>
		<path d="M245.9,239.4l-3.9-75.5l1.5,75.8C244.4,239.5,245.1,239.4,245.9,239.4z"/>
		<path d="M236.5,240.4c0.6-0.1,1.3-0.2,1.9-0.2l-6.7-84.4l4.1,84.7C236.1,240.4,236.3,240.4,236.5,240.4z"/>
		<path d="M230.5,240.4l-9.1-64.5l6.9,64.5C229,240.4,229.8,240.4,230.5,240.4z"/>
		<path d="M222.5,240.3l-11.5-58.4l9.4,58.4C221.1,240.3,221.8,240.3,222.5,240.3z"/>
		<path d="M212.9,240.2l-12.3-42.9l10.4,43C211.7,240.2,212.3,240.2,212.9,240.2z"/>
		<path d="M203.3,240.5l-7.8-22.9l6.6,23C202.5,240.6,202.9,240.5,203.3,240.5z"/>
		<path d="M191.3,241.9l-6.4-13.3l5.6,13.5C190.8,242,191,241.9,191.3,241.9z"/>
		<path d="M301.8,243.5l7.4-25.9l-8.7,25.4C300.9,243.2,301.4,243.3,301.8,243.5z"/>
		<path d="M319.8,228.6l-9.6,19.9c0.3,0.3,0.7,0.5,1,0.8L319.8,228.6z"/>
		<path d="M262.6,163.8l-3.8,74.7c0.8,0,1.5,0,2.3-0.1L262.6,163.8z"/>
		<path d="M272.9,155.7l-6.6,82.8c0.9,0,1.7,0,2.6,0.1L272.9,155.7z"/>
		<path d="M283.3,175.9l-8.9,62.8c0.7,0,1.4,0.1,2.1,0.1L283.3,175.9z"/>
		<path d="M284.4,239.5l9.2-57.6l-11.3,57.5C283,239.4,283.7,239.5,284.4,239.5z"/>
		<path d="M293.4,240.8l10.6-43.5l-12.3,43.2C292.2,240.6,292.8,240.7,293.4,240.8z"/>
	</g>
</g>
</svg>
