<?xml version="1.0" encoding="utf-8"?>
<!-- Generator: Adobe Illustrator 21.1.0, SVG Export Plug-In . SVG Version: 6.00 Build 0)  -->
<svg version="1.1" xmlns="http://www.w3.org/2000/svg" xmlns:xlink="http://www.w3.org/1999/xlink" x="0px" y="0px"
	 viewBox="0 0 504 864" style="enable-background:new 0 0 504 864;" xml:space="preserve">
<g id="Слой_1">
</g>
<g id="Слой_2">
	<g>
		<path d="M503.8,18.2c-1.6-17.9-18.7-16.3-31.6-16.3c-45.9,0-91.8,0-137.6,0c-63.2,0-126.3,0-189.5,0c-40.6,0-81.2,0-121.8,0
			c-2.6,0-5.3-0.2-8,0.2c-9.5,1.2-15,9.2-15.2,18.2c-0.2,7.3,0,14.5,0,21.8c0,37.4,0,74.9,0,112.3c0,57,0,114.1,0,171.1
			c0,64.3,0,128.6,0,192.9c0,58.4,0,116.7,0,175.1c0,40.1,0,80.2,0,120.3c0,9.1,0,18.2,0,27.3c0,11.7,6.7,20.5,19.2,20.7
			c35.9,0.6,71.9,0,107.9,0c62.4,0,124.9,0,187.3,0c49.7,0,99.5,0,149.2,0c7.6,0,15.2,0,22.9,0c0.4,0,0.8-0.1,1.2-0.2
			c14.4-1.8,16.1-13.8,16.1-25.5c0-11.4,0-22.8,0-34.3c0-43.4,0-86.9,0-130.3c0-59.9,0-119.8,0-179.8c0-63.9,0-127.7,0-191.6
			c0-55.3,0-110.6,0-165.9c0-33.7,0-67.3,0-101C503.9,28.3,504.2,23.2,503.8,18.2z M486.6,852.8c-28.3,0-56.6,0-84.9,0
			c-59.9,0-119.8,0-179.7,0c-54,0-108,0-162,0c-13.1,0-26.1,0-39.2,0c-5.6,0-11-1.3-11.7-8.3c-0.2-1.5,0-3,0-4.5c0-26.5,0-53,0-79.5
			c0-50,0-100,0-149.9c0-61.8,0-123.6,0-185.4c0-61.4,0-122.7,0-184.1c0-48.9,0-97.7,0-146.6c0-24.2-0.8-48.6,0-72.7
			c0.2-5.3,1.6-10.1,8.3-10.8c2.2-0.2,4.5,0,6.7,0c14.8,0,29.6,0,44.5,0c55.6,0,111.3,0,166.9,0c58.9,0,117.8,0,176.7,0
			c18.9,0,37.9,0,56.8,0c8.1,0,24.7-3.1,25.9,8.4c0.5,5.2,0,10.8,0,16.1c0,13.5,0,27.1,0,40.6c0,45.5,0,91.1,0,136.6
			c0,60.1,0,120.2,0,180.3c0,62.6,0,125.1,0,187.7c0,52.8,0,105.6,0,158.4c0,31.4,0,62.7,0,94.1C494.8,840.3,496.9,852,486.6,852.8z
			"/>
		<path d="M460,790.9c1.2,0.1,2.4-0.7,2.4-2.2c0-23.7,0-47.4,0-71.1c0-56.4,0-112.8,0-169.2c0-68.7,0-137.4,0-206
			c0-59,0-117.9,0-176.9c0-19.6,0-39.2,0-58.8c0-8.9,1.3-19,0-27.9c-0.1-0.4,0-0.8,0-1.2c0-0.8-0.3-1.3-0.8-1.7
			c0.1-1.2-0.6-2.5-2.2-2.6c-13.1-0.5-25.3-13.8-25.8-26.7c0-0.5-0.2-0.8-0.4-1.1c-0.3-0.6-1-1.1-1.9-1.1c-40.5,0-80.9,0-121.4,0
			c-64.5,0-129,0-193.6,0c-14.9,0-29.7,0-44.6,0c-0.9,0-1.6,0.5-1.9,1.1c-0.2,0.3-0.3,0.7-0.4,1.2C69.1,59.5,57,72.8,43.9,73.3
			c-1.8,0.1-2.5,1.9-2,3.2c-0.2,0.3-0.2,0.6-0.2,1c0,23.7,0,47.4,0,71.1c0,56.4,0,112.8,0,169.2c0,68.7,0,137.4,0,206
			c0,59,0,117.9,0,176.9c0,19.6,0,39.2,0,58.8c0,8.9-1.3,19,0,27.9c0.1,0.4,0,0.8,0,1.2c0,0.9,0.5,1.6,1.1,1.9
			c0.3,0.2,0.7,0.3,1.2,0.4c13,0.5,25.3,13.3,25.8,26.2c0,0.5,0.2,0.8,0.4,1.1c0.3,0.6,1,1.1,1.9,1.1c40.5,0,80.9,0,121.4,0
			c64.5,0,129,0,193.6,0c14.9,0,29.7,0,44.6,0c0.9,0,1.6-0.5,1.9-1.1c0.2-0.3,0.3-0.7,0.4-1.2c0.5-12.9,12.7-25.7,25.8-26.2
			C459.6,791,459.8,790.9,460,790.9z M429.3,814.9c-39.8,0-79.6,0-119.3,0c-64.5,0-129,0-193.6,0c-14.2,0-28.3,0-42.5,0
			c-1.7-13.9-13.9-26.5-27.8-28.3c0-23,0-46,0-69.1c0-56.4,0-112.8,0-169.2c0-68.7,0-137.4,0-206c0-59,0-117.9,0-176.9
			c0-19.6,0-39.2,0-58.8c0-8.9,1.3-19,0-27.9c-0.1-0.4,0-0.8,0-1.2c14-1.8,26.1-14.9,27.8-28.7c39.8,0,79.5,0,119.3,0
			c64.5,0,129,0,193.6,0c14.2,0,28.3,0,42.5,0c1.7,14.1,14.3,27.3,28.5,28.8c0,23.7,0,47.3,0,71c0,56.4,0,112.8,0,169.2
			c0,68.7,0,137.4,0,206c0,59,0,117.9,0,176.9c0,19.6,0,39.2,0,58.8c0,8.6-1.2,18.4-0.1,27C443.6,788.1,431.1,800.9,429.3,814.9z"/>
		<path d="M150.2,793.4c-0.8-0.1-1.3-0.2-1.5-0.2c-0.1-0.1-0.2-0.2-0.2-0.4c0-0.2,0-0.3-0.1-0.4c-0.1-0.1-0.2-0.1-0.4-0.1
			c-0.3-0.1-0.5-0.2-0.5-0.3s-0.1-0.2-0.3-0.2c-0.2,0-0.3-0.1-0.3-0.2c0-0.1-0.1-0.3-0.3-0.5c-0.2-0.2-0.4-0.4-0.5-0.4
			c-0.1,0-0.2,0-0.2-0.1c0-0.1-0.1-0.2-0.3-0.2c-0.2,0-0.3-0.1-0.3-0.2c0-0.2-0.1-0.3-0.2-0.5c-0.2-0.2-0.3-0.2-0.5-0.2
			c-0.2,0-0.2-0.1-0.2-0.2c0-0.1,0-0.2,0-0.3c0-0.1,0-0.2,0-0.3c0-0.1,0.1-0.2,0.3-0.3c0.3-0.1,0.4-0.2,0.4-0.4
			c0-0.2,0.1-0.3,0.2-0.3c0.1,0,0.3-0.1,0.5-0.4c0.2-0.3,0.4-0.4,0.5-0.5c0.2-0.1,0.2-0.1,0.2-0.3c-0.1-0.1,0-0.2,0.3-0.4
			c0.2-0.1,0.4-0.3,0.4-0.5c0-0.2,0.1-0.3,0.3-0.3c0.2,0,0.3-0.1,0.3-0.4c0-0.3,0.1-0.4,0.2-0.4c0.2,0,0.4-0.1,0.5-0.4
			c0.2-0.2,0.5-0.3,0.9-0.4c0.4-0.1,0.6-0.2,0.8-0.3c0.1-0.1,0.2-0.2,0.4-0.2c0.2,0,0.3-0.1,0.3-0.2c0-0.1,0.1-0.3,0.2-0.4
			c0.1,0,0.1-0.1,0.1-0.1c0,0-0.1,0-0.4-0.1c-0.4,0-0.5-0.1-0.5-0.2c0-0.2-0.3-0.3-0.8-0.3c-0.5,0-0.8,0.1-0.9,0.3
			c-0.1,0.1-0.3,0.2-0.6,0.2c-0.3,0-0.4,0-0.5-0.1c-0.1-0.1-0.6-0.2-1.8-0.2l-1.7-0.1l-0.1,0.5c0,0.1-0.1,0.2-0.1,0.3
			c0,0.1,0.1,0.2,0.2,0.3c0.1,0.1,0.4,0.1,0.7,0.1c0.3,0,0.5,0.1,0.6,0.1c0.1,0,0.1,0.1,0.1,0.2v0.1c0,0.3-0.1,0.4-0.2,0.5
			c-0.1,0.1-0.1,0.2-0.1,0.4c0.1,0.1,0,0.3-0.3,0.4c-0.2,0.1-0.4,0.3-0.4,0.5c0,0.3-0.1,0.4-0.3,0.5c-0.2,0.1-0.4,0.3-0.4,0.6
			c-0.1,0.3-0.3,0.5-0.5,0.5c-0.3,0.1-0.5,0.2-0.6,0.4c-0.2,0.2-0.3,0.3-0.4,0.3c-0.1,0-0.1-0.1-0.1-0.4c0-0.2,0-0.5,0.1-0.9
			c0-0.5,0.1-0.8,0.1-0.9c0-0.2,0-0.3,0-0.3c-0.1-0.3,0-0.5,0.2-0.6c0.2-0.1,0.3-0.3,0.2-0.6c0-0.2,0-0.3,0-0.3c0,0,0.1-0.1,0.3-0.1
			c0.2,0,0.4-0.1,0.5-0.3c0.1-0.2,0.1-0.4,0.1-0.8c0-0.2,0-0.3-0.1-0.3c-0.1-0.1-0.7-0.1-1.9-0.1c-1.4-0.1-2.1-0.2-2.1-0.4
			c0-0.1-0.1-0.1-0.2-0.1c-0.1,0-0.2,0-0.2,0.1c0,0.1-0.1,0.2-0.1,0.3c0,0.2,0,0.3,0,0.3c0,0.2-0.1,0.3-0.3,0.4
			c-0.2,0-0.3,0.2-0.2,0.5c0.1,0.3,0.1,0.4,0.2,0.5c0.1,0.1,0.2,0.1,0.3,0.1c0.2,0,0.3,0,0.4,0c0.1,0,0.2,0,0.4,0
			c0.3,0,0.5,0.1,0.6,0.4c0.1,0.2,0.1,0.8,0.1,1.5c0,0.9-0.1,1.4-0.2,1.5c-0.1,0.1-0.1,0.2,0,0.4c0.1,0.2,0.1,0.5,0,0.7
			c-0.1,0.2-0.2,0.3-0.3,0.3c-0.1,0-0.1,0.1,0,0.2c0.1,0.1,0.1,0.3,0.1,0.7c0,0.6-0.1,1.5-0.2,2.9l-0.1,1h-0.6
			c-0.4,0-0.6,0.1-0.7,0.3c-0.1,0.2-0.2,0.3-0.3,0.3c-0.2,0-0.2,0.1-0.2,0.4c0,0.3,0.1,0.5,0.3,0.6c0.2,0.1,0.3,0.3,0.3,0.4
			c0,0.1,0.1,0.2,0.3,0.2c0.2,0,0.5,0,0.8-0.1c0.3-0.1,0.5-0.2,0.6-0.2c0.1-0.1,0.7-0.2,1.6-0.2c0.9,0,1.4,0,1.5-0.1
			c0,0,0-0.3,0-0.6c0-0.3-0.1-0.4-0.1-0.5c0-0.1-0.1-0.1-0.3-0.1c-0.2,0-0.4,0-0.4-0.1c0-0.1-0.1-0.1-0.2-0.1
			c-0.3,0-0.4-0.3-0.4-0.9c0-0.2,0-0.3,0-0.4c0-0.4,0.1-0.8,0.1-1.2V790c0-0.1,0-0.2,0-0.3c0-0.1,0-0.2,0-0.3c0-0.4,0-0.6,0.1-0.6
			h0.1c0.2,0,0.4,0.1,0.8,0.3s0.6,0.4,0.7,0.6c0.2,0.2,0.3,0.4,0.4,0.4c0.1,0,0.2,0.1,0.3,0.3c0.1,0.2,0.2,0.4,0.2,0.5
			c0,0.1,0.1,0.2,0.4,0.5c0.3,0.2,0.4,0.4,0.4,0.6c0,0.1,0.1,0.2,0.3,0.2c0.2,0,0.3,0.1,0.3,0.4c0,0.2,0.1,0.4,0.3,0.4
			c0.3,0,0.3,0.2,0,0.6c-0.2,0.2-0.4,0.2-0.6,0.1c-0.2-0.1-0.3-0.1-0.5,0c-0.1,0.1-0.3,0.2-0.5,0.2c-0.2,0-0.3,0-0.3,0.1
			c0,0.1,0,0.2,0.1,0.2c0.1,0,0.1,0.1,0.1,0.2c0,0.1,0.1,0.2,0.2,0.3c0.2,0.1,0.3,0.1,0.5,0.1c0,0,0,0,0.1,0c0,0,0,0,0.1,0
			c0.2-0.1,0.3,0,0.3,0.1c0,0.1,0.1,0.1,0.2,0c0.1-0.1,0.2-0.2,0.5-0.2c0.2,0,0.8,0,1.8,0c1.4,0,2.2,0.1,2.4,0.2
			c0.2,0.1,0.3,0.2,0.4,0.2c0.2,0,0.2-0.2,0.2-0.5c0-0.4-0.1-0.6-0.2-0.7C150.9,793.5,150.7,793.5,150.2,793.4z M145.9,782.9
			C145.9,782.9,145.9,782.9,145.9,782.9L145.9,782.9c0.1,0.2,0.1,0.3,0,0.3c0,0,0,0,0-0.1C145.8,783,145.8,783,145.9,782.9z
			 M145.6,785.4c0.1,0,0.1,0,0.1,0c0.1,0,0.1,0,0,0.1c-0.1,0.1-0.2,0.1-0.3,0L145.6,785.4z M145.1,786.1c0.1,0,0.1,0.1,0.1,0.2
			c0,0.1,0,0.2-0.1,0.2s-0.1-0.1-0.1-0.2C145,786.2,145,786.1,145.1,786.1z"/>
		<path d="M138.1,796.7c-0.1,0-0.1,0.1-0.1,0.2c0,0.1,0,0.2,0.1,0.2c0.1,0,0.1-0.1,0.1-0.2C138.2,796.8,138.1,796.7,138.1,796.7z"/>
		<path d="M148.9,786.2l0.1,0.4l0-0.1c0,0,0-0.1,0.1-0.1c0,0,0.1-0.1,0.1-0.1c0-0.1,0.1-0.1,0.1-0.2c0.2-0.3,0.2-0.4,0-0.4
			C149,785.7,148.9,785.8,148.9,786.2z"/>
		<path d="M138.1,797.9c-0.1,0-0.1,0.1-0.1,0.2c0,0.1,0,0.2,0.1,0.2c0.1,0,0.1-0.1,0.1-0.2C138.2,797.9,138.1,797.9,138.1,797.9z"/>
		<path d="M138.1,792.3c0.1,0,0.1,0,0.2-0.1c0.1-0.2,0.1-0.3-0.1-0.3c-0.1,0-0.2,0.1-0.2,0.2C137.9,792.3,138,792.3,138.1,792.3z"/>
		<path d="M136.8,798.8c-0.1,0.1-0.1,0.2,0,0.4c0.1,0.1,0.2,0.1,0.3,0.1c0.3-0.1,0.3-0.3,0.1-0.5C137,798.6,136.9,798.6,136.8,798.8
			z"/>
		<path d="M164.1,782c-0.1-0.1-0.7-0.1-1.8-0.1c-1,0-1.5,0-1.5,0.1c0,0.1-0.2,0.1-0.5,0.1c-0.3,0-0.5,0.1-0.5,0.2
			c0,0.1,0,0.2-0.1,0.2c-0.1,0-0.1,0.1-0.1,0.3c0,0.3,0.1,0.4,0.2,0.5c0.1,0.1,0.2,0.5,0.2,1.3c0,0.8,0,1.2,0.1,1.3
			c0.1,0,0.1,0.4,0.1,1.1c0,0.7,0,1-0.1,1.1c-0.1,0-0.2,0.8-0.2,2.2c0,1.2-0.1,2-0.2,2.2c-0.1,0.2-0.4,0.4-0.9,0.5
			c-0.3,0-0.5,0.1-0.5,0.1c-0.1,0.1-0.1,0.2-0.1,0.4c0,0.3,0.1,0.5,0.2,0.5c0.2,0,0.3,0.1,0.5,0.2c0.2,0.2,0.3,0.2,0.3,0.1
			c0.1-0.1,0.8-0.2,2.1-0.2c1.1,0,1.6,0.1,1.6,0.2c0,0.1,0.1,0.1,0.3,0.1c0.2,0,0.3,0,0.3-0.1s0.1-0.2,0.3-0.3
			c0.2-0.1,0.3-0.2,0.3-0.3c0-0.4-0.4-0.7-1-0.8l-0.6-0.1l0.1-3.5c0-2.3,0.1-3.5,0.2-3.6c0.1-0.1,0.1-0.4,0.1-1
			c0.1-1.1,0.2-1.6,0.4-1.6c0.1,0,0.2,0,0.2-0.1c0-0.1,0.1-0.2,0.4-0.2c0.2,0,0.4-0.1,0.5-0.2c0.1-0.1,0.2-0.2,0.2-0.4
			C164.3,782.3,164.3,782.1,164.1,782z M160.6,790.9c-0.1,0-0.2,0-0.2-0.1c0-0.1,0.1-0.1,0.2-0.1c0.1,0,0.2,0,0.2,0.1
			C160.8,790.9,160.8,790.9,160.6,790.9z M161.5,787.1c-0.1,0-0.2-0.1-0.2-0.3c0-0.2,0.1-0.3,0.2-0.3c0.1,0,0.2,0.1,0.2,0.3
			C161.7,787,161.6,787.1,161.5,787.1z"/>
		<path d="M184.3,782c-0.1,0-0.2,0-0.3,0.1c-0.2,0.1-0.3,0.1-0.3,0.1c-0.1,0-0.1-0.1-0.2-0.2c-0.1-0.2-0.3-0.3-0.4-0.3
			c-0.1,0-0.2-0.1-0.2-0.3c0-0.2-0.1-0.3-0.3-0.3c-0.2,0-0.3,0.1-0.3,0.3c0,0.2,0.1,0.3,0.2,0.3c0.1,0,0.2,0.1,0.2,0.3
			c0,0.2-0.1,0.3-0.2,0.3c-0.2,0-0.3-0.1-0.3-0.4c-0.1-0.2-0.2-0.4-0.3-0.4c-0.1,0-0.1,0-0.2,0.1c-0.2,0.2-0.2,0.3,0,0.3
			c0.1,0,0.2,0.1,0.2,0.1c0,0.1-0.1,0.2-0.4,0.2c-0.2,0-0.4,0-0.4-0.1c0-0.1-0.1-0.1-0.4-0.1c-0.4,0-0.8,0.1-1.1,0.2
			c-0.4,0.2-0.6,0.4-0.6,0.7c0,0.3,0.3,0.5,0.8,0.6c0.4,0.1,0.6,0.1,0.6,0.2c0,0.1,0.1,0.1,0.3,0.1c0.3,0,0.5,0.2,0.6,0.6
			c0.1,0.4,0.2,1.2,0.2,2.4c0,1.4,0.1,2.2,0.1,2.4c0.1,0.1,0,0.3,0,0.6l-0.1,0.4l-0.5-0.5c-0.4-0.3-0.5-0.5-0.5-0.6
			c0-0.1-0.1-0.2-0.2-0.3c-0.1-0.1-0.3-0.2-0.4-0.4c-0.2-0.1-0.3-0.2-0.3-0.2c-0.1-0.1-0.3-0.2-0.3-0.2c-0.1,0-0.2-0.1-0.2-0.2
			c0-0.1-0.1-0.2-0.2-0.3c-0.1-0.1-0.3-0.2-0.4-0.2s-0.1-0.1-0.1-0.2c0-0.1-0.1-0.2-0.2-0.2c-0.1,0-0.1,0-0.1-0.1
			c0-0.1-0.1-0.2-0.4-0.5c-0.2-0.3-0.4-0.4-0.4-0.5c0-0.1-0.1-0.2-0.3-0.2c-0.2,0-0.3-0.1-0.5-0.2c-0.2-0.1-0.2-0.3-0.2-0.4
			c0-0.1-0.2-0.3-0.5-0.7c-0.3-0.4-0.5-0.6-0.5-0.7c0-0.1-0.1-0.2-0.3-0.4c-0.2-0.2-0.3-0.4-0.3-0.4c0-0.3-0.6-0.5-1.8-0.6
			c-0.6,0-0.9-0.1-0.9-0.1c-0.3,0-0.4,0.1-0.4,0.2c0,0.1,0,0.2,0,0.4c0,0.2,0,0.4,0.1,0.6c0.1,0.2,0.1,0.3,0.2,0.3
			c0.1,0,0.2,0.2,0.3,0.6c0.1,0.4,0.2,0.6,0.2,0.6c0.1,0,0.1,0.3,0.1,0.8c0,0.5,0,0.8-0.1,0.8c-0.1,0-0.1,0.1-0.1,0.4
			c0,0.2,0.1,0.6,0.2,1c0.1,0.2,0.1,0.6,0.1,1.1c0,0.7-0.1,1.1-0.2,1.1c-0.1,0-0.1,0.2-0.1,0.7c0,0.5,0,1.1-0.1,1.5
			c0,0.4-0.1,0.6-0.1,0.7c-0.1,0.1-0.2,0.2-0.4,0.2c-0.3,0.1-0.4,0.2-0.4,0.4c0,0.2,0.1,0.4,0.4,0.6c0.2,0.2,0.3,0.3,0.5,0.3
			c0.2,0,0.8,0,1.7,0c1,0,1.6,0,1.8-0.1c0.2-0.1,0.3-0.3,0.3-0.8c0-0.3-0.1-0.4-0.3-0.5c-0.2-0.1-0.3-0.1-0.3-0.2
			c0-0.1-0.2-0.1-0.6-0.1c-0.4,0-0.7-0.1-0.9-0.3c-0.2-0.2-0.2-0.3-0.1-0.4c0.1-0.1,0.2-0.2,0.2-0.6c0-0.3,0-0.5-0.1-0.5
			c-0.1-0.1-0.1-0.9-0.1-2.6c0-1.7,0.1-2.5,0.2-2.5c0.1,0,0.3,0.1,0.4,0.2c0.1,0.1,0.3,0.2,0.5,0.3c0.3,0.1,0.4,0.3,0.5,0.4
			c0,0.2,0.3,0.5,0.8,1.1c0.5,0.5,0.9,0.9,1.3,1.1c0.2,0.1,0.3,0.2,0.3,0.3c0,0.1,0.2,0.2,0.5,0.6c0.7,0.7,1.1,1.1,1.1,1.4
			c0,0.1,0.1,0.1,0.3,0.1c0.2,0,0.3,0,0.3,0.1c0,0.1,0.1,0.3,0.4,0.5c0.2,0.2,0.4,0.4,0.4,0.6c0,0.1,0.1,0.3,0.3,0.5
			s0.3,0.3,0.4,0.3c0.1,0,0.3,0.2,0.6,0.5c0.3,0.3,0.5,0.5,0.7,0.6c0.1,0.1,0.2,0.1,0.3,0.1c0.4,0,0.6-0.2,0.6-0.6
			c0-0.1,0-0.2,0-0.4c0-0.9-0.1-1.4-0.2-1.6c-0.1-0.1-0.1-0.5-0.1-1.3v-0.4c0-1,0-1.6-0.1-1.6c-0.1-0.1-0.2-0.4-0.2-1
			c0-0.5,0-0.8,0.1-0.8c0.1-0.1,0.2-0.2,0.2-0.5c0-0.3,0-0.4,0.1-0.4c0.1,0,0.1-0.1,0.1-0.4c0-0.3,0-0.4-0.1-0.4
			c-0.1,0-0.1-0.1-0.1-0.4c0-0.4,0.1-0.7,0.2-1c0.2-0.3,0.4-0.5,0.7-0.5c0.2,0,0.4-0.1,0.4-0.1c0.1,0,0.1-0.2,0.1-0.5v-0.2
			C184.7,782.3,184.6,782,184.3,782z"/>
		<path d="M201.5,788.6c-0.3,0-0.5,0-0.6,0c-0.7,0-1.2,0-1.4,0.1c-0.2,0.1-0.4,0.2-0.4,0.3c0,0.1-0.1,0.2-0.1,0.3
			c0,0.3,0.4,0.5,1.2,0.6c0.7,0.1,1.1,0.2,1.1,0.3c0,0-0.1,0.2-0.2,0.6c-0.1,0.3-0.3,0.5-0.5,0.5c-0.2,0-0.4,0.1-0.6,0.4
			c-0.2,0.3-0.3,0.3-0.4,0.2c-0.1-0.1-0.2-0.1-0.4,0.1c-0.2,0.2-0.5,0.2-0.8,0.2c-0.1,0-0.4,0-0.8-0.1c-0.7,0-1.1-0.1-1.3-0.2
			c-0.2-0.1-0.3-0.3-0.3-0.6c0-0.2-0.1-0.4-0.3-0.5c-0.2-0.1-0.3-0.2-0.3-0.4c0-0.2,0-0.2-0.1-0.2c-0.3,0-0.6-0.5-0.8-1.5
			c-0.1-0.7-0.2-1.1-0.3-1.1c-0.1,0-0.1-0.1-0.1-0.2s0-0.2,0.1-0.3c0.2,0,0.3-0.7,0.3-1.9c0-0.2,0.1-0.2,0.3-0.2
			c0.2,0,0.3-0.1,0.3-0.2c0-0.1,0-0.3-0.2-0.4c-0.1-0.1-0.1-0.2,0.1-0.2c0.2,0,0.4-0.1,0.7-0.2c0.2-0.1,0.4-0.3,0.4-0.4
			c0-0.1,0.1-0.3,0.3-0.4c0.2-0.1,0.5-0.2,0.7-0.2c0.2,0,0.3-0.1,0.3-0.2c0-0.1,0.2-0.2,0.7-0.3c0.1,0,0.1,0,0.2,0
			c0.1,0,0.1,0,0.2,0c0.6,0,1,0.2,1.2,0.5c0.1,0.2,0.3,0.3,0.6,0.4c0.3,0.1,0.4,0.2,0.4,0.3c0,0,0,0,0,0.1c0,0,0,0.1,0,0.1
			c0,0.1,0,0.2,0.1,0.3c0.1,0.1,0.2,0.2,0.3,0.5c0.1,0.2,0.1,0.3,0.2,0.4c0.1,0.1,0.3,0.1,0.5,0.2c0.1,0,0.2,0,0.4,0
			c0.1,0,0.2,0,0.2,0c0,0,0.1-0.1,0.1-0.1c0-0.1,0-0.1,0.1-0.2c0.1-0.3,0.1-0.6,0.1-0.9c0-0.3,0-0.5,0.1-0.5c0.1,0,0.1-0.1,0.1-0.3
			c0-0.2,0-0.5-0.1-0.9c-0.1-0.1-0.1-0.2-0.3-0.3c-0.1,0-0.4-0.1-0.9-0.1c-0.7,0-1,0-1.1-0.1c-0.1-0.1-0.9-0.2-2.2-0.2
			c-0.6,0-1,0-1.2,0.1c-0.6,0.1-1,0.2-1.3,0.3c-0.2,0.1-0.8,0.5-1.6,1.3c-0.9,0.8-1.3,1.3-1.3,1.4c0,0.1-0.1,0.2-0.2,0.4
			c-0.1,0.2-0.2,0.4-0.2,0.7s-0.1,0.4-0.2,0.5c-0.1,0.1-0.1,0.2-0.1,0.4c0,0.2-0.1,0.4-0.2,0.5c-0.1,0.1-0.2,0.6-0.2,1.5
			c0,1,0.1,1.6,0.2,1.6c0.1,0,0.1,0.1,0.1,0.3c0,0.1,0,0.2-0.1,0.2c-0.1,0,0,0.1,0.2,0.4c0.2,0.2,0.4,0.4,0.5,0.4
			c0.1,0,0.2,0.1,0.2,0.3c0.1,0.2,0.3,0.4,0.6,0.8c0.4,0.3,0.6,0.5,0.8,0.6c0.2,0.1,0.2,0.1,0.2,0.2c0,0.1,0.4,0.2,1.1,0.3
			c0.7,0.1,1.4,0.1,2.2,0.1c1.1,0,1.7-0.1,1.9-0.3c0.1-0.1,0.3-0.2,0.6-0.3c0.4-0.1,0.6-0.2,0.8-0.2c0,0,0.1,0,0.1,0
			c0,0-0.1,0.2-0.2,0.5c-0.1,0.2-0.2,0.4-0.2,0.6c0,0.2,0.2,0.3,0.6,0.3c0.3,0,0.5,0,0.6,0c1-0.1,1.6-0.2,1.6-0.4
			c0-0.1-0.1-0.3-0.4-0.5c-0.2-0.1-0.3-0.3-0.3-0.5c0-0.2-0.1-0.6-0.1-1.2l-0.1-1.4l0.6,0.1c0.3,0.1,0.5,0,0.6-0.2
			c0.1-0.2,0.3-0.3,0.6-0.3c0.3,0,0.4-0.1,0.5-0.1c0,0,0.1-0.2,0.1-0.5v-0.6l-2.5-0.1C202,788.6,201.8,788.6,201.5,788.6z"/>
		<path d="M236,785.7c-0.2-0.1-0.2-0.2-0.2-0.5c0-0.3,0-0.5-0.1-0.5c-0.1,0-0.1-0.1-0.1-0.4c0-0.3-0.1-0.4-0.2-0.4
			c-0.1,0-0.2-0.1-0.3-0.3c-0.1-0.2-0.2-0.3-0.3-0.4c-0.1-0.1-0.2-0.2-0.2-0.4c0-0.2-0.1-0.3-0.4-0.3c-0.7,0-1-0.1-1-0.4
			c0-0.1-0.1-0.2-0.2-0.2c-0.1,0-0.2,0-0.2-0.1c0-0.1-0.1-0.1-0.3-0.1c-0.2,0-0.3-0.1-0.4-0.2c0-0.1-0.5-0.2-1.5-0.2
			c-0.9,0-1.5,0.1-1.6,0.2c-0.1,0.1-0.2,0.2-0.4,0.2c-0.2,0-0.3,0.1-0.4,0.3c-0.1,0.2-0.3,0.4-0.6,0.4c-0.3,0-0.6,0.1-1.1,0.2
			c-0.5,0.1-0.7,0.3-0.8,0.5c0,0.2-0.2,0.4-0.5,0.7c-0.3,0.3-0.4,0.5-0.4,0.5c0,0.1-0.1,0.1-0.2,0.1c-0.1,0-0.2,0.1-0.3,0.4
			c-0.1,0.2-0.2,0.4-0.3,0.7c-0.2,0.3-0.2,0.8-0.2,1.8c0,1.2,0.1,2.1,0.4,2.9c0.5,1.4,0.9,2.2,1.2,2.3c0.2,0,0.3,0.1,0.3,0.3
			c0,0.2,0.2,0.2,0.4,0.2c0.2,0,0.4,0,0.4,0.1c0,0.1,0.1,0.1,0.3,0.1s0.3,0.1,0.3,0.4c0,0.2,0,0.3,0.1,0.4c0.1,0.1,0.2,0,0.4-0.1
			c0.1-0.1,0.2-0.1,0.3,0c0.2,0.1,0.9,0.2,2.2,0.2c1.1,0,1.7-0.1,1.7-0.2c0-0.1,0.3-0.2,0.7-0.2c0.4,0,0.6-0.1,0.6-0.2
			c0-0.2,0.1-0.3,0.2-0.3c0,0,0.2-0.1,0.4-0.3c0.3-0.2,0.4-0.3,0.5-0.3c0.1,0,0.2-0.1,0.2-0.3c0.1-0.2,0.2-0.3,0.3-0.3
			c0.1,0,0.2-0.1,0.3-0.3c0-0.2,0.2-0.3,0.4-0.3c0.2-0.1,0.3-0.1,0.3-0.2c0-0.1,0.1-0.1,0.2-0.1c0.1,0,0.2-0.2,0.2-0.6
			c0-0.3,0-0.5-0.1-0.5c-0.1,0-0.1-0.1,0-0.2c0.1-0.1,0.2-0.8,0.2-2.1c0-0.3,0-0.7,0-1.1C236.3,786,236.2,785.7,236,785.7z
			 M233.8,788.8c-0.1,0-0.2,0.2-0.2,0.4c0,0.3-0.1,0.4-0.2,0.5c-0.1,0.1-0.2,0.4-0.3,0.8c-0.1,0.4-0.1,0.6-0.3,0.6
			c-0.1,0-0.2,0-0.2,0.1c0,0.1-0.1,0.2-0.4,0.2c-0.3,0.1-0.4,0.2-0.4,0.3c0,0.1,0,0.2-0.1,0.2c-0.1,0.1-0.2,0.1-0.4,0.2
			c-0.1,0.1-0.2,0.1-0.3,0.1c0,0.1-0.2,0.1-0.4,0.1c-0.2,0-0.3,0.1-0.5,0.2c-0.1,0.1-0.2,0.1-0.4,0.1c-0.2,0-0.4,0-0.7-0.1
			c-0.5-0.1-1-0.3-1.3-0.6c-0.3-0.3-0.7-0.8-1-1.5c-0.3-0.5-0.4-0.9-0.5-1.1c0-0.2-0.1-0.7-0.1-1.4c0-0.7,0-1.1,0.1-1.4
			c0-0.2,0.1-0.5,0.3-0.8c0.3-0.5,0.6-0.9,1-1.3c0.4-0.4,0.8-0.6,1-0.7c0.3,0,0.5-0.1,0.5-0.3c0-0.1,0.1-0.2,0.2-0.2
			c0.1,0,0.2,0,0.2-0.1c0-0.1,0.1-0.1,0.3-0.1c0.2,0,0.3,0,0.3,0.1c0,0.1,0.3,0.1,0.9,0.1c0.5,0,0.8,0.1,0.8,0.2
			c0,0.1,0.1,0.2,0.3,0.3c0.2,0.1,0.3,0.2,0.3,0.3s0.1,0.2,0.3,0.3c0.3,0.1,0.5,0.4,0.5,0.8c0,0.2,0.1,0.5,0.3,0.8
			c0.2,0.3,0.3,0.7,0.3,1.1c0,0.5,0,0.7,0.1,0.8c0.1,0.1,0.1,0.2,0.1,0.4C234,788.6,234,788.7,233.8,788.8z"/>
		<path d="M253.8,783.9c0-0.3-0.1-0.5-0.2-0.6c-0.1-0.1-0.1-0.2,0-0.4c0.1-0.1,0.1-0.2,0.1-0.2c0-0.1-0.1-0.2-0.2-0.2
			c-0.1-0.1-0.2-0.2-0.2-0.3c0-0.2-0.1-0.3-0.3-0.5c-0.2-0.2-0.4-0.3-0.5-0.3c-0.1,0-0.2,0-0.2,0.1c0,0.1-0.3,0.1-0.9,0.2
			c-0.5,0.1-1.1,0.1-1.7,0.1c-0.6,0-0.9,0-1,0.1c-0.1,0-0.5,0.1-1.4,0.1c-0.9,0.1-1.8,0.2-2.7,0.3c-0.9,0.1-1.4,0.2-1.4,0.2
			c0,0,0,0.1,0,0.2c0,0.1,0,0.2,0.1,0.3c0.1,0.2,0.1,0.3,0.2,0.4c0.1,0,0.3,0.1,0.6,0.1c0.5,0,0.9,0.1,1,0.3
			c0.1,0.2,0.2,0.7,0.2,1.6c0,0.9-0.1,1.4-0.2,1.5c-0.1,0.1-0.1,0.2,0,0.4c0.1,0.3,0.2,0.5,0,0.7c-0.1,0.2-0.2,0.3-0.3,0.3
			c-0.1,0,0,0.1,0.1,0.2c0.1,0.1,0.1,0.3,0.1,0.6c0,0.1,0,0.4-0.1,0.8c-0.1,1.4-0.2,2.3-0.2,2.6c-0.1,0.4-0.1,0.5-0.3,0.6
			c-0.2,0.1-0.5,0.3-0.8,0.6l-0.5,0.6h5v-0.5c0-0.2,0-0.4-0.1-0.4c0-0.1-0.1-0.1-0.3-0.1c-0.2,0-0.4,0-0.4-0.1
			c0-0.1-0.1-0.1-0.2-0.1s-0.2-0.1-0.3-0.3c0-0.1,0-0.4,0-1.2c0-1.2,0-2.1,0.1-2.8c0-0.1,0.5-0.1,1.4-0.1c0.8,0,1.3,0.1,1.5,0.2
			c0.3,0.1,0.4,0.4,0.4,0.9c0,0.3,0,0.5,0.1,0.5c0.1,0,0.1-0.1,0.3-0.2c0.1-0.1,0.3-0.2,0.5-0.1c0.2,0.1,0.3,0,0.3-0.2
			c0-0.2,0-0.3,0.1-0.4c0.1-0.1,0.1-0.2,0-0.2c-0.1-0.1-0.2-0.3-0.2-0.6c0-0.4,0.1-0.7,0.2-0.8c0.1-0.1,0.1-0.1,0.1-0.2
			c0-0.1,0-0.1-0.1-0.2c-0.1-0.1-0.1-0.2-0.1-0.2c0-0.1,0-0.1,0.1-0.2c0.2-0.1,0.2-0.2,0.2-0.4c0-0.3-0.4-0.4-1.1-0.4
			c-0.4,0-0.6,0.2-0.6,0.5c0,0.1,0,0.2,0.1,0.3c0.1,0.2,0,0.4,0,0.5c-0.1,0.1-0.4,0.2-1,0.3c-0.6,0.1-1.1,0.2-1.6,0.2H247v-0.6
			c0-0.4,0.1-0.6,0.2-0.7c0.1-0.1,0.2-0.2,0.2-0.4c0-0.3-0.1-0.5-0.2-0.8c-0.1-0.2-0.2-0.4-0.2-0.4c0-0.1,0.1-0.1,0.2-0.3
			c0.2-0.2,0.3-0.4,0.2-0.6c0-0.1,0-0.1,0-0.2c0-0.1,0.1-0.2,0.4-0.3c0.3-0.1,0.8-0.1,1.6-0.1c0.7,0,1.1-0.1,1.1-0.1
			c0.3,0,0.5,0.1,0.7,0.2c0.2,0.2,0.3,0.3,0.5,0.4c0.2,0.1,0.3,0.2,0.3,0.3c0,0.1,0.1,0.3,0.3,0.4c0.2,0.1,0.4,0.3,0.5,0.6
			c0.1,0.4,0.4,0.5,0.8,0.5c0.1,0,0.2,0,0.3-0.1c0.1-0.1,0.2-0.2,0.2-0.6c0-0.3-0.1-0.5-0.2-0.5
			C253.9,784.4,253.8,784.2,253.8,783.9z"/>
		<path d="M289.5,782.4c-0.1,0-0.3,0-0.5,0c-0.2,0-0.4,0-0.4,0c-0.4,0-0.6,0-0.7,0.1c-0.1,0-0.3,0.1-0.4,0.3
			c-0.2,0.2-0.3,0.3-0.3,0.4c0,0.1,0,0.1,0.2,0.2c0.3,0.2,0.5,0.2,0.7,0.2c0.3,0,0.4,0.1,0.5,0.3c0.1,0.2,0,0.3-0.1,0.4
			c-0.1,0-0.2,0.2-0.2,0.6c0,0.4-0.1,0.6-0.2,0.6c-0.2,0.1-0.2,0.2-0.2,0.4v0.4c0,0.6-0.1,0.9-0.3,0.9c-0.1,0-0.2,0.1-0.3,0.3
			c0,0.2-0.1,0.7-0.3,1.5c-0.1,0.4-0.2,0.6-0.4,0.6c-0.1,0-0.2,0.1-0.2,0.2c0,0.1,0,0.2-0.2,0.2c-0.3,0-0.4-0.1-0.5-0.2
			c-0.1-0.2-0.2-0.5-0.3-0.9c-0.1-0.4-0.2-1-0.2-1.7c-0.1-0.5-0.2-0.8-0.3-0.9c-0.1-0.1-0.1-0.4-0.1-0.7c0-0.3,0-0.5-0.1-0.5
			c-0.1,0-0.1-0.1-0.1-0.4c0-0.2-0.1-0.4-0.2-0.5c-0.1-0.1-0.2-0.1-0.2-0.2c0-0.1,0.2-0.2,0.6-0.2c0.4,0,0.7-0.1,0.9-0.3
			c0.1-0.1,0.2-0.2,0.2-0.3c0-0.1,0-0.2-0.1-0.4c-0.1-0.2-0.3-0.4-0.6-0.5c-0.3-0.1-0.8-0.1-1.6-0.1c-0.6,0-1-0.1-1-0.3
			c-0.1-0.2-0.1-0.3-0.2-0.3c-0.1,0-0.2,0.1-0.5,0.3c-0.3,0.2-0.4,0.3-0.5,0.3c-0.3,0-0.5,0.2-0.6,0.6v0.1l0,0.1
			c0,0.3,0.3,0.6,0.9,0.7c0.1,0,0.3,0.1,0.4,0.1c0.1,0.1,0.1,0.2,0.1,0.2c0,0.1-0.1,0.1-0.2,0.1c-0.1,0-0.1,0.2-0.1,0.6
			c0,0.4-0.1,0.6-0.2,0.6c-0.1,0-0.1,0.2-0.1,0.5c0,0.7-0.2,1.1-0.5,1.2c-0.1,0-0.2,0.1-0.3,0.3c-0.1,0.2-0.1,0.7-0.3,1.5
			c-0.1,0.4-0.2,0.6-0.4,0.6c-0.2,0-0.2,0.1-0.2,0.2c0,0.1,0,0.2-0.2,0.2c-0.3,0-0.5-0.1-0.6-0.2c-0.1-0.2-0.2-0.5-0.2-0.9
			c0-0.6-0.1-0.9-0.2-1c-0.1-0.1-0.1-0.3-0.1-0.6c0-0.4-0.1-0.7-0.2-0.9c-0.1-0.3-0.2-0.5-0.1-0.8c0-0.3,0-0.5-0.1-0.5
			c-0.1,0-0.2-0.1-0.2-0.4c0-0.2-0.1-0.4-0.2-0.5c-0.1-0.1-0.2-0.1-0.2-0.2c0-0.1,0.2-0.2,0.6-0.2c0.4,0,0.7-0.1,0.9-0.3
			c0.1-0.1,0.2-0.2,0.2-0.3c0-0.1-0.1-0.2-0.2-0.4c-0.1-0.2-0.2-0.3-0.4-0.4c-0.2-0.1-0.5-0.1-0.9-0.1c-0.1,0-0.2,0-0.4,0
			c-0.2,0-0.4,0-0.5,0h-0.4c-0.3,0-0.4,0-0.5-0.1c-0.1,0-0.1-0.1-0.2-0.3c-0.1-0.2-0.1-0.4-0.3-0.4c-0.1,0-0.2,0.1-0.5,0.3
			c-0.2,0.2-0.4,0.3-0.5,0.3c-0.1,0-0.3,0.1-0.4,0.2c-0.1,0.1-0.2,0.3-0.2,0.4c0,0.4,0.3,0.7,0.9,0.8c0.5,0.1,0.9,0.6,1,1.6
			c0.1,0.4,0.2,0.6,0.3,0.8c0.1,0.1,0.2,0.4,0.2,0.7c0,0.3,0.1,0.5,0.2,0.6c0.4,0.4,0.5,1.1,0.5,1.9c0,0.4,0,0.6,0.1,0.7
			c0.1,0.1,0.1,0.2,0.1,0.4c0,0.2,0,0.3,0.1,0.4c0.1,0.1,0.2,0.3,0.2,0.8c0,0.4,0.1,0.6,0.2,0.6c0.1,0,0.2,0.2,0.2,0.5
			c0,0.3,0.1,0.5,0.2,0.5c0.1,0,0.2,0.1,0.3,0.4c0.1,0.3,0.3,0.5,0.6,0.5c0.1,0,0.3-0.1,0.4-0.2c0.1-0.1,0.2-0.3,0.2-0.4
			c0-0.3,0-0.4,0.1-0.4c0.1,0,0.2-0.1,0.2-0.4c0-0.3,0-0.5,0.1-0.5c0.1,0,0.2-0.2,0.2-0.5c0-0.3,0.1-0.6,0.3-0.9
			c0.2-0.3,0.4-0.5,0.6-0.6c0.2-0.1,0.3-0.3,0.3-0.6c0-0.4,0.1-0.6,0.2-0.6c0.1,0,0.2-0.2,0.2-0.5c0-0.3,0.1-0.6,0.2-0.8
			c0.1-0.2,0.2-0.4,0.1-0.5c-0.1-0.2,0.1-0.3,0.4-0.4c0.3-0.1,0.4-0.2,0.5-0.3c0.1,0,0.1,0.1,0.1,0.4c0,0.4,0.1,0.6,0.2,0.8
			c0.4,0.5,0.6,1.1,0.6,1.9c0,0.4,0,0.6,0.1,0.6c0.1,0,0.1,0.1,0.1,0.4c-0.1,0.2,0,0.4,0.1,0.5c0.1,0.1,0.2,0.3,0.2,0.8
			c0,0.4,0.1,0.6,0.2,0.6c0.2,0,0.2,0.2,0.2,0.5c0,0.3,0.1,0.5,0.2,0.5c0.1,0,0.2,0.1,0.3,0.4c0.1,0.3,0.3,0.5,0.6,0.5
			c0.1,0,0.3-0.1,0.4-0.2c0.1-0.1,0.2-0.3,0.2-0.4c0-0.3,0.1-0.4,0.2-0.4c0.1,0,0.1-0.1,0.1-0.4c0-0.3,0-0.5,0.1-0.5
			c0.1,0,0.2-0.2,0.2-0.5c0-0.3,0.1-0.6,0.3-1c0.2-0.4,0.4-0.6,0.5-0.6c0.1,0,0.2-0.2,0.2-0.6c0-0.5,0.1-0.7,0.2-0.7
			c0.1,0,0.2-0.2,0.2-0.5s0.1-0.6,0.2-0.8c0.1-0.2,0.2-0.4,0.2-0.6c0-0.1,0.1-0.2,0.4-0.3c0.3-0.1,0.4-0.2,0.4-0.3
			c0-0.1,0-0.1,0-0.2c0-0.1,0-0.1,0-0.2c0-0.6,0.1-0.9,0.3-0.9c0.1,0,0.1-0.1,0.2-0.4c0-0.3,0.1-0.4,0.2-0.4c0.1,0,0.2-0.1,0.2-0.2
			c0-0.1,0.1-0.2,0.4-0.2c0.3,0,0.5-0.1,0.6-0.2c0.1-0.1,0.2-0.3,0.2-0.6l0-0.4L289.5,782.4z"/>
		<path d="M311.7,792.9c-0.1,0-0.1-0.1-0.2-0.4c-0.1-0.2-0.1-0.3-0.2-0.3c0,0-0.3,0.1-0.8,0.2c0,0-0.1,0-0.2,0c-0.4,0-0.7-0.6-1-1.7
			c-0.2-0.8-0.4-1.3-0.4-1.4c-0.1-0.1-0.2-0.3-0.2-0.5c-0.1-0.4-0.3-1.3-0.8-2.8c-0.5-1.5-0.7-2.4-0.8-2.7c-0.2-1-0.4-1.5-0.5-1.7
			c-0.1-0.2-0.2-0.3-0.4-0.3c-0.3-0.1-0.4,0-0.5,0.1c-0.1,0.1-0.2,0.2-0.4,0.2c-0.2,0-0.4,0.1-0.4,0.2c0,0.1-0.1,0.1-0.2,0.1
			c-0.1,0-0.2,0.2-0.4,0.6c-0.2,0.4-0.3,0.8-0.5,1.2c-0.1,0.4-0.2,0.6-0.3,0.7c-0.1,0.1-0.1,0.2-0.1,0.4c0,0.2-0.1,0.6-0.4,1.2
			c-0.3,0.6-0.5,1.1-0.5,1.5c-0.1,0.4-0.2,0.6-0.2,0.7c-0.1,0.1-0.2,0.3-0.4,0.8c-0.2,0.5-0.3,0.7-0.3,0.8c-0.1,0.2-0.2,0.4-0.2,0.5
			c0,0.2,0,0.2-0.1,0.2c-0.1,0-0.2,0.1-0.3,0.4c-0.1,0.2-0.2,0.4-0.2,0.6c0,0.1-0.2,0.3-0.5,0.6c-0.3,0.3-0.5,0.4-0.7,0.4
			c-0.2,0-0.3,0.1-0.5,0.4c-0.2,0.2-0.4,0.4-0.5,0.4c-0.1,0-0.2,0.1-0.4,0.4c-0.1,0.2-0.1,0.3-0.1,0.4c0,0.1,0.1,0.3,0.4,0.5
			l0.5,0.4l2-0.1c1.1,0,1.8-0.1,2.1-0.1c0.3,0,0.5-0.1,0.5-0.2c0,0,0-0.1-0.1-0.2c-0.1-0.2-0.1-0.3,0.1-0.3c0.1,0,0.2-0.1,0.2-0.2
			c0-0.1-0.1-0.2-0.2-0.2c-0.1,0-0.3-0.1-0.4-0.2c-0.1-0.1-0.4-0.2-0.7-0.3c-0.5-0.1-0.7-0.3-0.7-0.5c0-0.1,0-0.2,0.1-0.3
			c0.1-0.2,0.2-0.3,0.2-0.5c0-0.1,0-0.2,0.1-0.2c0.1,0,0.1-0.2,0.1-0.7v-0.7h0.6c0.4,0,0.7-0.1,0.7-0.2c0.1-0.2,0.6-0.2,1.5-0.2h0.4
			c0.7,0,1,0,1.1,0.1c0.1,0.1,0.2,0.4,0.2,0.8c0,0.5,0.1,0.8,0.3,0.9c0.2,0.2,0.3,0.4,0.3,0.6c0,0,0,0,0,0.1c0,0,0,0.1,0,0.1
			c0,0.3-0.1,0.4-0.1,0.5c-0.1,0.1-0.3,0.1-0.6,0.2c-0.5,0.1-0.7,0.2-0.8,0.3c0,0.1-0.1,0.1-0.3,0.1c-0.2,0-0.3,0.1-0.3,0.3
			c0,0.3,0,0.4,0.1,0.5c0.1,0.1,0.3,0.1,0.6,0.1c0.3,0,0.7,0,1.3-0.1c0.6-0.1,1.3-0.1,2-0.1c0.4,0,0.7,0,0.8,0c0.2,0,0.4,0,0.6,0
			c0.3,0,0.5-0.1,0.5-0.3c0.1-0.2,0.1-0.3,0.2-0.3c0.1,0,0.1-0.2,0.1-0.5S311.8,792.9,311.7,792.9z M305.5,788.4c0,0-0.1,0-0.2,0
			c-0.1,0-0.1,0-0.1,0c-0.3,0-0.5,0.1-0.6,0.2c-0.1,0.1-0.3,0.2-0.4,0.2c-0.2,0-0.3-0.1-0.4-0.2c-0.1-0.1-0.2-0.2-0.3-0.2
			c-0.1,0-0.2-0.1-0.2-0.2c0-0.1,0-0.2,0.1-0.2c0.1,0,0.2-0.1,0.3-0.4c0.1-0.3,0.2-0.5,0.2-0.7c0-0.2,0.1-0.3,0.2-0.4
			c0.1,0,0.2-0.3,0.2-0.8c0.1-0.6,0.3-0.9,0.6-0.9c0.2,0,0.3,0.1,0.5,0.2c0.1,0.1,0.2,0.2,0.4,0.5c0.1,0.3,0.2,0.4,0.2,0.5
			c0,0-0.1,0.1-0.3,0.1c-0.2,0-0.3,0.1-0.4,0.2c-0.1,0.1,0,0.2,0.1,0.2c0.1,0,0.2,0.1,0.2,0.2c0.1,0.1,0.2,0.3,0.2,0.4
			c0.1,0.2,0.1,0.2,0.2,0.3c0.1,0.1,0.1,0.3,0.2,0.6l0.1,0.5L305.5,788.4z"/>
		<path d="M331.9,782c-0.1,0-0.2,0-0.3,0.1c-0.2,0.1-0.3,0.1-0.3,0.1c-0.1,0-0.1-0.1-0.2-0.2c-0.1-0.2-0.3-0.3-0.4-0.3
			c-0.1,0-0.2-0.1-0.2-0.3c0-0.2-0.1-0.3-0.3-0.3c-0.2,0-0.3,0.1-0.3,0.3c0,0.2,0.1,0.3,0.2,0.3s0.2,0.1,0.2,0.3
			c0,0.2-0.1,0.3-0.2,0.3c-0.2,0-0.3-0.1-0.3-0.4c-0.1-0.2-0.2-0.4-0.3-0.4c-0.1,0-0.1,0-0.2,0.1c-0.2,0.2-0.2,0.3,0,0.3
			c0.1,0,0.2,0.1,0.2,0.1c0,0.1-0.1,0.2-0.4,0.2c-0.2,0-0.4,0-0.4-0.1c0-0.1-0.1-0.1-0.4-0.1c-0.4,0-0.8,0.1-1.1,0.2
			c-0.4,0.2-0.6,0.4-0.6,0.7c0,0.3,0.3,0.5,0.8,0.6c0.4,0.1,0.6,0.1,0.6,0.2c0,0.1,0.1,0.1,0.3,0.1c0.3,0,0.5,0.2,0.6,0.6
			c0.1,0.4,0.2,1.2,0.2,2.4c0,1.4,0.1,2.2,0.1,2.4c0.1,0.1,0,0.3,0,0.6l-0.1,0.4l-0.5-0.5c-0.4-0.3-0.5-0.5-0.5-0.6
			c0-0.1-0.1-0.2-0.2-0.3c-0.1-0.1-0.3-0.2-0.4-0.4c-0.2-0.1-0.3-0.2-0.3-0.2c-0.1-0.1-0.3-0.2-0.3-0.2c-0.1,0-0.2-0.1-0.2-0.2
			c0-0.1-0.1-0.2-0.2-0.3c-0.1-0.1-0.3-0.2-0.4-0.2s-0.1-0.1-0.1-0.2c0-0.1-0.1-0.2-0.2-0.2c-0.1,0-0.1,0-0.1-0.1
			c0-0.1-0.1-0.2-0.4-0.5c-0.2-0.3-0.4-0.4-0.4-0.5c0-0.1-0.1-0.2-0.3-0.2c-0.2,0-0.3-0.1-0.5-0.2c-0.2-0.1-0.2-0.3-0.2-0.4
			c0-0.1-0.2-0.3-0.5-0.7c-0.3-0.4-0.5-0.6-0.5-0.7c0-0.1-0.1-0.2-0.3-0.4c-0.2-0.2-0.3-0.4-0.3-0.4c0-0.3-0.6-0.5-1.8-0.6
			c-0.6,0-0.9-0.1-0.9-0.1c-0.3,0-0.4,0.1-0.4,0.2c0,0.1,0,0.2,0,0.4c0,0.2,0,0.4,0.1,0.6c0.1,0.2,0.1,0.3,0.2,0.3
			c0.1,0,0.2,0.2,0.3,0.6c0.1,0.4,0.2,0.6,0.2,0.6c0.1,0,0.1,0.3,0.1,0.8c0,0.5,0,0.8-0.1,0.8c-0.1,0-0.1,0.1-0.1,0.4
			c0,0.2,0.1,0.6,0.2,1c0.1,0.2,0.1,0.6,0.1,1.1c0,0.7-0.1,1.1-0.2,1.1c-0.1,0-0.1,0.2-0.1,0.7c0,0.5,0,1.1-0.1,1.5
			c0,0.4-0.1,0.6-0.1,0.7c-0.1,0.1-0.2,0.2-0.4,0.2c-0.3,0.1-0.4,0.2-0.4,0.4c0,0.2,0.1,0.4,0.4,0.6c0.2,0.2,0.3,0.3,0.5,0.3
			c0.2,0,0.8,0,1.7,0c1,0,1.6,0,1.8-0.1c0.2-0.1,0.3-0.3,0.3-0.8c0-0.3-0.1-0.4-0.3-0.5c-0.2-0.1-0.3-0.1-0.3-0.2
			c0-0.1-0.2-0.1-0.6-0.1c-0.4,0-0.7-0.1-0.9-0.3c-0.2-0.2-0.2-0.3-0.1-0.4c0.1-0.1,0.2-0.2,0.2-0.6c0-0.3,0-0.5-0.1-0.5
			c-0.1-0.1-0.1-0.9-0.1-2.6c0-1.7,0.1-2.5,0.2-2.5c0.1,0,0.3,0.1,0.4,0.2c0.1,0.1,0.3,0.2,0.5,0.3c0.3,0.1,0.4,0.3,0.5,0.4
			c0,0.2,0.3,0.5,0.8,1.1c0.5,0.5,0.9,0.9,1.3,1.1c0.2,0.1,0.3,0.2,0.3,0.3c0,0.1,0.2,0.2,0.5,0.6c0.7,0.7,1.1,1.1,1.1,1.4
			c0,0.1,0.1,0.1,0.3,0.1c0.2,0,0.3,0,0.3,0.1c0,0.1,0.1,0.3,0.4,0.5c0.2,0.2,0.4,0.4,0.4,0.6c0,0.1,0.1,0.3,0.3,0.5
			s0.3,0.3,0.4,0.3c0.1,0,0.3,0.2,0.6,0.5c0.3,0.3,0.5,0.5,0.7,0.6c0.1,0.1,0.2,0.1,0.3,0.1c0.4,0,0.6-0.2,0.6-0.6
			c0-0.1,0-0.2,0-0.4c0-0.9-0.1-1.4-0.2-1.6c-0.1-0.1-0.1-0.5-0.1-1.3v-0.4c0-1,0-1.6-0.1-1.6c-0.1-0.1-0.2-0.4-0.2-1
			c0-0.5,0-0.8,0.1-0.8c0.1-0.1,0.2-0.2,0.2-0.5c0-0.3,0-0.4,0.1-0.4c0.1,0,0.1-0.1,0.1-0.4c0-0.3,0-0.4-0.1-0.4
			c-0.1,0-0.1-0.1-0.1-0.4c0-0.4,0.1-0.7,0.2-1c0.2-0.3,0.4-0.5,0.7-0.5c0.2,0,0.4-0.1,0.4-0.1c0.1,0,0.1-0.2,0.1-0.5v-0.2
			C332.2,782.3,332.1,782,331.9,782z"/>
		<path d="M351.4,785.5c0-0.2-0.1-0.3-0.2-0.5c-0.2-0.2-0.3-0.3-0.4-0.3c-0.1,0-0.2-0.1-0.2-0.2c0-0.1-0.1-0.3-0.3-0.6
			c-0.2-0.2-0.3-0.3-0.4-0.3c-0.1,0-0.2-0.1-0.2-0.2c0-0.1-0.1-0.2-0.3-0.3c-0.2-0.1-0.3-0.1-0.3-0.2c0-0.1-0.1-0.1-0.4-0.1
			c-0.2,0-0.3-0.1-0.6-0.2c-0.2-0.1-0.4-0.2-0.5-0.2c-0.2,0-0.3,0-0.3-0.1c0-0.1-0.1-0.1-0.4-0.1c-0.2,0-0.3,0-0.4-0.1
			c-0.1-0.1-0.2-0.1-0.2-0.1c-0.1,0-0.2,0-0.4,0.1c-0.3,0.1-0.6,0.2-1,0.2c-0.2,0-0.4,0-0.4-0.1c-0.1,0-0.1-0.1-0.1-0.2
			c0-0.2-0.1-0.3-0.2-0.3c-0.1,0-0.2,0-0.3,0.2c-0.1,0.1-0.1,0.1-0.2,0c-0.2-0.3-0.3-0.2-0.4,0.1c-0.1,0.2-0.2,0.3-0.4,0.2
			c-0.2-0.1-0.5-0.2-1-0.2c-0.4,0-0.7-0.1-0.8-0.2c0-0.1-0.1-0.1-0.3,0.1c-0.2,0.1-0.3,0.1-0.3,0c-0.1-0.1-0.2-0.2-0.5-0.2
			c-0.2,0-0.4,0-0.4,0.1c0,0.1-0.1,0.1-0.3,0.1c-0.1,0-0.2,0-0.2,0.1c0,0.1-0.1,0.3-0.1,0.5c0,0.3,0,0.5,0.1,0.6
			c0,0.1,0.2,0.2,0.3,0.3c0.2,0.1,0.3,0.1,0.4,0.1c0,0,0.1,0,0.1,0c0.1,0,0.1,0,0.1,0c0.1,0,0.2,0,0.3,0.1c0.2,0.1,0.4,0.4,0.4,0.8
			c0,0.4,0,0.6-0.1,0.6c-0.1,0-0.1,0.3-0.1,0.9c0,0.6,0,0.8,0.1,0.8c0.1,0,0.1,0.1,0.1,0.4c0,0.2,0,0.4-0.1,0.5
			c-0.1,0.1-0.1,1-0.2,2.8l-0.1,2.7l-0.5,0c-0.4,0-0.6,0.2-0.8,0.4c-0.2,0.2-0.3,0.4-0.3,0.5c0,0.1,0.1,0.2,0.4,0.4
			c0.3,0.2,0.5,0.2,0.7,0.2c0.1,0,0.2,0,0.2-0.1c0-0.1,0.3-0.1,0.8-0.1c0.5,0,0.8,0,0.8,0.1c0,0.1,0.9,0.2,2.6,0.2
			c1.1,0,1.7,0,1.8-0.1c0.1-0.1,0.4-0.2,0.7-0.2c0.4-0.1,0.8-0.2,1.3-0.5c0.5-0.2,0.8-0.4,1-0.4c0.2,0,0.3-0.1,0.4-0.4
			c0.1-0.3,0.3-0.6,0.7-1.1c0.4-0.4,0.6-0.7,0.6-0.8c0-0.1,0-0.2,0.1-0.2c0.1,0,0.1-0.1,0.1-0.3c0-0.2,0.1-0.4,0.2-0.5
			c0.1-0.1,0.1-0.8,0.1-2c0-1.4-0.1-2.1-0.2-2.2C351.4,785.8,351.4,785.7,351.4,785.5z M349.3,789.7c-0.1,0.1-0.2,0.2-0.2,0.5
			c0,0.3-0.1,0.4-0.2,0.6c-0.3,0.3-0.5,0.6-0.6,1c-0.1,0.2-0.1,0.2-0.2,0.2s-0.3,0.2-0.7,0.5c-0.4,0.3-0.7,0.5-0.9,0.5
			c-0.2,0-0.3,0.1-0.4,0.2c-0.1,0.1-0.1,0.1-0.2,0c-0.1-0.1-0.1-0.2-0.3-0.2c-0.1,0-0.2,0.1-0.3,0.2c0,0.1-0.3,0.1-0.9,0.1
			c-0.6,0-1.1,0-1.6,0c-0.2,0-0.2-0.1-0.2-0.4c0-0.2-0.1-0.4-0.2-0.4s-0.2,0-0.2-0.1c0-0.1,0.1-0.1,0.2-0.2c0.1-0.1,0.2-0.2,0.2-0.3
			c0-0.1,0.1-0.2,0.2-0.2c0.1,0,0.1-0.1,0.2-0.4c0.1-0.2,0.1-0.5,0.1-0.8c0-0.1,0-0.3-0.1-0.5c0,0,0,0,0-0.1s0-0.1,0-0.1
			c0-0.2,0.1-0.4,0.2-0.6l0.2-0.4c0,0-0.1-0.1-0.2-0.1c-0.1,0-0.2-0.3-0.2-0.8c0-0.5,0-1,0-1.5c0-1.4,0.1-2.2,0.1-2.4
			c0-0.3,0.1-0.5,0.4-0.8c0.2-0.2,0.4-0.3,0.6-0.3c0.1,0,0.2,0,0.3,0c0.1,0,0.3,0,0.7,0.1c0.4,0,0.7,0.1,1,0.1
			c0.3,0.1,0.4,0.1,0.5,0.2c0.1,0.1,0.2,0.2,0.4,0.2c0.2,0,0.4,0.1,0.4,0.3c0.1,0.2,0.2,0.3,0.3,0.3c0.2,0,0.2,0,0.2,0.1
			c0,0.1,0.1,0.2,0.3,0.2c0.2,0.1,0.3,0.2,0.3,0.3c0,0.1,0.1,0.3,0.2,0.4c0.1,0.1,0.2,0.4,0.3,0.9c0,0.4,0.1,0.7,0.2,0.8
			c0.1,0.1,0.1,0.5,0.1,1.3S349.3,789.7,349.3,789.7z"/>
		<path d="M361.2,788.7c0-0.1,0-0.2-0.1-0.2c-0.1,0-0.1,0-0.1,0.1l0.1,0.2C361.1,789,361.2,788.9,361.2,788.7z"/>
		<path d="M367.1,789.5c0-0.6-0.1-0.9-0.2-1.1c-0.1-0.2-0.3-0.4-0.6-0.5c-0.3-0.1-0.5-0.3-0.5-0.4c-0.1-0.1-0.3-0.3-0.9-0.6
			s-1-0.5-1.3-0.6c-0.2-0.1-0.5-0.2-0.9-0.5c-0.4-0.3-0.6-0.4-0.6-0.5c0-0.1-0.1-0.2-0.2-0.3c-0.2-0.1-0.2-0.2-0.2-0.3
			c0,0,0-0.1,0-0.1c0.1-0.1,0.1-0.2,0.1-0.3s0-0.3-0.1-0.6c0-0.1,0-0.2,0-0.2c0,0,0.2-0.1,0.3-0.1c0.3,0,0.4-0.1,0.4-0.2
			c0-0.1,0.1-0.2,0.4-0.4c0.3-0.2,0.4-0.3,0.4-0.3c0-0.1,0.1-0.1,0.4-0.2c0.1,0,0.1,0,0.2,0c0.4,0,0.8,0.2,1.2,0.5
			c0.5,0.3,0.7,0.6,0.7,0.9c0,0.2,0.1,0.4,0.3,0.5c0.2,0.1,0.3,0.3,0.3,0.4c0,0.1,0.1,0.3,0.2,0.5c0.2,0.2,0.3,0.3,0.4,0.3
			c0,0,0,0,0.1,0c0.1-0.1,0.1-0.7,0.2-2v-0.8c0-0.6-0.1-0.9-0.2-0.9c-0.1,0-0.1,0-0.1,0c-0.3,0.1-0.6,0.2-0.8,0.2
			c-0.3,0-0.6-0.1-1-0.3c-0.4-0.2-0.6-0.3-0.7-0.3c0,0-0.1,0-0.2,0.1c-0.3,0.1-0.6,0.1-0.8,0.1c-0.3,0-0.4,0-0.5,0.1
			c0,0.1-0.1,0.2-0.3,0.2c-0.2,0-0.4-0.1-0.5-0.2c-0.1-0.1-0.3-0.2-0.5-0.2h0c-0.1,0-0.1,0-0.1,0c-0.1,0-0.1,0-0.1,0
			c0,0,0.1,0,0.1,0c0.1,0.1,0.2,0.1,0.2,0.2c0,0.2-0.2,0.3-0.5,0.4c-0.3,0.1-0.4,0.2-0.4,0.4c0.1,0.2,0,0.3-0.2,0.4
			c-0.3,0.1-0.6,0.5-1.1,1.1c-0.1,0.2-0.2,0.4-0.2,0.6c0,0,0,0.3,0.1,0.8c0.1,0.7,0.3,1.1,0.4,1.3c0.1,0.2,0.4,0.4,0.7,0.7
			c0.4,0.3,0.6,0.4,0.8,0.4c0.1,0,0.3,0.1,0.6,0.4c0.4,0.3,0.9,0.6,1.7,0.8c0.5,0.1,0.8,0.3,1.1,0.6c0.2,0.2,0.3,0.4,0.5,0.7
			c0.1,0.3,0.2,0.5,0.2,0.7c0,0.1,0,0.1-0.1,0.2c-0.1,0-0.1,0.2-0.1,0.4c0.1,0.2,0,0.4-0.2,0.6c-0.1,0.1-0.2,0.3-0.2,0.4
			c0,0.2-0.5,0.4-1.4,0.5c-0.1,0-0.3,0-0.6,0c-0.9,0-1.7-0.4-2.2-1.2c-0.3-0.4-0.5-0.8-0.5-1c0,0,0-0.1,0-0.2c0-0.1,0-0.2,0-0.2
			c0,0-0.1-0.1-0.1-0.1c-0.1,0-0.1,0-0.1-0.1c0.1-0.3-0.1-0.5-0.4-0.6c-0.1,0-0.2-0.1-0.3-0.1c-0.3,0-0.4,0.2-0.5,0.5
			c-0.1,1.2-0.1,1.9-0.2,1.9c-0.1,0.1-0.1,0.4-0.2,0.8c0,0.1,0,0.3,0,0.4c0,0.2,0.1,0.4,0.3,0.6c0.1,0.1,0.2,0.2,0.3,0.2
			c0,0,0.1,0,0.2-0.2c0.1-0.2,0.2-0.3,0.2-0.4c0-0.3,0.2-0.3,0.5-0.1c0.9,0.5,1.8,0.7,2.9,0.7c0.5,0,1.1-0.1,1.6-0.2
			c0.6-0.1,1.1-0.3,1.4-0.6c0.3-0.3,0.5-0.5,0.5-0.5c0-0.1,0.1-0.2,0.2-0.3c0.2-0.1,0.3-0.4,0.3-0.9c0.1-0.5,0.1-0.7,0.2-0.7
			c0.1,0,0.1,0,0-0.1C367.1,790.6,367.1,790.2,367.1,789.5z M362.7,788C362.6,788,362.6,787.9,362.7,788c-0.1-0.1-0.1-0.1,0-0.1
			S362.8,787.9,362.7,788C362.8,787.9,362.7,788,362.7,788z"/>
		<polygon points="51.7,807.5 44,812.7 41.2,798.7 38.4,812.7 30.7,807.5 35.9,815.3 21.8,818 35.9,820.8 30.7,828.5 38.4,823.3 
			41.2,837.4 43.9,823.4 51.7,828.5 46.5,820.8 60.5,818 46.5,815.3 		"/>
		<polygon points="468.1,815.3 473.3,807.5 465.5,812.7 462.8,798.7 460,812.7 452.3,807.5 457.5,815.3 443.4,818 457.5,820.8 
			452.3,828.5 460,823.3 462.8,837.4 465.5,823.4 473.3,828.5 468.1,820.8 482.1,818 		"/>
		<polygon points="30.7,56.3 38.4,51.1 41.2,65.1 44,51.1 51.7,56.3 46.5,48.5 60.5,45.8 46.5,43 51.7,35.3 43.9,40.4 41.2,26.4 
			38.4,40.5 30.7,35.3 35.9,43 21.8,45.8 35.9,48.5 		"/>
		<polygon points="473.3,35.3 465.5,40.4 462.8,26.4 460,40.5 452.3,35.3 457.5,43 443.4,45.8 457.5,48.5 452.3,56.3 460,51.1 
			462.8,65.1 465.5,51.1 473.3,56.3 468.1,48.5 482.1,45.8 468.1,43 		"/>
		<path d="M148.8,136.3c0,0,0,0.4,0,1.2C148.8,136.7,148.8,136.3,148.8,136.3z"/>
		<path d="M120.2,169.7c-0.9,0-1.4,0-1.4,0S119.3,169.7,120.2,169.7z"/>
		<path d="M148.8,203.1c0,0,0-0.4,0-1.2C148.7,202.6,148.8,203.1,148.8,203.1z"/>
		<path d="M143.9,174.8c4.4,5.1,4.8,22.5,4.8,27.1c0-4.6,0.4-22,4.8-27.1c3.9-4.6,19.1-5,23.7-5.1c-4.6,0-19.8-0.5-23.7-5.1
			c-4.4-5.1-4.8-22.5-4.8-27.1c0,4.6-0.4,22-4.8,27.1c-3.9,4.6-19.1,5-23.7,5.1C124.8,169.7,140,170.2,143.9,174.8z"/>
		<path d="M178.7,169.7c0,0-0.5,0-1.4,0C178.2,169.7,178.7,169.7,178.7,169.7z"/>
		<path d="M337.5,572.6c0,0,0-0.1,0-0.4C337.5,572.5,337.5,572.6,337.5,572.6z"/>
		<path d="M347.9,561.7c0,0-0.2,0-0.4,0C347.7,561.7,347.9,561.7,347.9,561.7z"/>
		<path d="M327.2,561.7c0,0,0.2,0,0.4,0C327.4,561.7,327.2,561.7,327.2,561.7z"/>
		<path d="M347.4,561.7c-1.5,0-6.9-0.2-8.2-1.7c-1.5-1.7-1.7-7.4-1.7-8.9c0,1.5-0.1,7.2-1.7,8.9c-1.4,1.5-6.7,1.7-8.2,1.7
			c1.5,0,6.9,0.2,8.2,1.7c1.5,1.7,1.7,7.4,1.7,8.9c0-1.5,0.1-7.2,1.7-8.9C340.6,561.8,345.9,561.7,347.4,561.7z"/>
		<path d="M337.5,550.7c0,0,0,0.1,0,0.4C337.5,550.9,337.5,550.7,337.5,550.7z"/>
		<path d="M125,240c0,0,0,0.1,0,0.3C125,240.1,125,240,125,240z"/>
		<path d="M125,255.9c0-1.1,0.1-5.3,1.2-6.6c1-1.1,5-1.2,6.1-1.2c-1.1,0-5.1-0.1-6.1-1.2c-1.1-1.2-1.2-5.5-1.2-6.6
			c0,1.1-0.1,5.3-1.2,6.6c-1,1.1-5,1.2-6.1,1.2c1.1,0,5.1,0.1,6.1,1.2C124.8,250.6,124.9,254.8,125,255.9z"/>
		<path d="M117.3,248.1c0,0,0.1,0,0.3,0C117.4,248.1,117.3,248.1,117.3,248.1z"/>
		<path d="M125,256.2c0,0,0-0.1,0-0.3C125,256.1,125,256.2,125,256.2z"/>
		<path d="M132.6,248.1c0,0-0.1,0-0.3,0C132.5,248.1,132.6,248.1,132.6,248.1z"/>
		<path d="M160.7,661.2c-1.1,0-5.1-0.1-6.1-1.2c-1.1-1.2-1.2-5.5-1.2-6.6c0,1.1-0.1,5.3-1.2,6.6c-1,1.1-5,1.2-6.1,1.2
			c1.1,0,5.1,0.1,6.1,1.2c1.1,1.2,1.2,5.5,1.2,6.6c0-1.1,0.1-5.3,1.2-6.6C155.6,661.3,159.6,661.2,160.7,661.2z"/>
		<path d="M153.4,653.1c0,0,0,0.1,0,0.3C153.4,653.2,153.4,653.1,153.4,653.1z"/>
		<path d="M161,661.2c0,0-0.1,0-0.3,0C160.9,661.2,161,661.2,161,661.2z"/>
		<path d="M145.7,661.2c0,0,0.1,0,0.3,0C145.9,661.2,145.7,661.2,145.7,661.2z"/>
		<path d="M153.4,669.3c0,0,0-0.1,0-0.3C153.4,669.2,153.4,669.3,153.4,669.3z"/>
		<path d="M152.9,505.8c-1.7,0-7.7-0.2-9.2-1.9c-1.7-1.9-1.9-8.3-1.9-10c0,1.7-0.2,8.1-1.9,10c-1.5,1.7-7.5,1.9-9.2,1.9
			c1.7,0,7.7,0.2,9.2,1.9c1.7,1.9,1.9,8.3,1.9,10c0-1.7,0.2-8.1,1.9-10C145.2,506,151.2,505.8,152.9,505.8z"/>
		<path d="M153.4,505.8c0,0-0.2,0-0.5,0C153.2,505.8,153.4,505.8,153.4,505.8z"/>
		<path d="M130.3,505.8c0,0,0.2,0,0.5,0C130.4,505.8,130.3,505.8,130.3,505.8z"/>
		<path d="M141.8,493.5c0,0,0,0.2,0,0.4C141.8,493.7,141.8,493.5,141.8,493.5z"/>
		<path d="M141.8,518c0,0,0-0.2,0-0.4C141.8,517.9,141.8,518,141.8,518z"/>
		<path d="M359.8,231c0-1.7,0.2-8.1,1.9-10c1.5-1.7,7.5-1.9,9.2-1.9c-1.7,0-7.7-0.2-9.2-1.9c-1.7-1.9-1.9-8.3-1.9-10
			c0,1.7-0.2,8.1-1.9,10c-1.5,1.7-7.5,1.9-9.2,1.9c1.7,0,7.7,0.2,9.2,1.9C359.6,222.9,359.7,229.3,359.8,231z"/>
		<path d="M371.3,219.1c0,0-0.2,0-0.5,0C371.1,219.1,371.3,219.1,371.3,219.1z"/>
		<path d="M348.7,219.1c-0.3,0-0.5,0-0.5,0S348.4,219.1,348.7,219.1z"/>
		<path d="M359.8,231.4c0,0,0-0.2,0-0.4C359.8,231.2,359.8,231.4,359.8,231.4z"/>
		<path d="M359.8,206.9c0,0,0,0.2,0,0.4C359.8,207,359.8,206.9,359.8,206.9z"/>
		<path d="M367.9,514.3c0,3.3-0.3,15.7-3.6,19.4c-2.9,3.3-14.3,3.6-17.8,3.6c3.5,0,14.9,0.4,17.8,3.6c3.3,3.7,3.6,16.1,3.6,19.4
			c0-3.3,0.3-15.7,3.6-19.4c2.9-3.3,14.3-3.6,17.8-3.6c-3.5,0-14.9-0.4-17.8-3.6C368.3,530,368,517.6,367.9,514.3z"/>
		<path d="M389.4,537.3c0.6,0,1,0,1,0S390.1,537.3,389.4,537.3z"/>
		<path d="M367.9,513.5c0,0,0,0.3,0,0.8C367.9,513.8,367.9,513.5,367.9,513.5z"/>
		<path d="M345.4,537.3c0,0,0.4,0,1,0C345.8,537.3,345.4,537.3,345.4,537.3z"/>
		<path d="M367.9,561.2c0,0,0-0.3,0-0.8C367.9,560.9,367.9,561.2,367.9,561.2z"/>
		<path d="M160,624c0,0-0.6,0-1.6,0C159.4,624,160,624,160,624z"/>
		<path d="M125,586.9c0,0,0,0.5,0,1.3C125,587.3,125,586.9,125,586.9z"/>
		<path d="M89.9,624c0,0,0.6,0,1.6,0C90.5,624,89.9,624,89.9,624z"/>
		<path d="M158.4,624c-5.4,0-23.2-0.6-27.8-5.7c-5.2-5.7-5.6-25-5.7-30.2c0,5.2-0.5,24.5-5.7,30.2c-4.6,5.1-22.3,5.6-27.8,5.7
			c5.4,0,23.2,0.6,27.8,5.7c5.2,5.7,5.6,25,5.7,30.2c0-5.2,0.5-24.5,5.7-30.2C135.2,624.6,153,624.1,158.4,624z"/>
		<path d="M125,661.2c0,0,0-0.5,0-1.3C124.9,660.7,125,661.2,125,661.2z"/>
		<path d="M90.6,219.1c-0.3,0-0.6,0-0.6,0S90.3,219.1,90.6,219.1z"/>
		<path d="M103.7,233.6c0,0,0-0.2,0-0.5C103.7,233.4,103.7,233.6,103.7,233.6z"/>
		<path d="M103.7,204.7c0,0,0,0.2,0,0.5C103.7,204.9,103.7,204.7,103.7,204.7z"/>
		<path d="M117.3,219.1c0,0-0.2,0-0.6,0C117.1,219.1,117.3,219.1,117.3,219.1z"/>
		<path d="M103.7,233.1c0-2,0.2-9.5,2.2-11.8c1.8-2,8.9-2.2,10.9-2.2c-2,0-9.1-0.2-10.9-2.2c-2-2.2-2.2-9.8-2.2-11.8
			c0,2-0.2,9.5-2.2,11.8c-1.8,2-8.9,2.2-10.9,2.2c2,0,9.1,0.2,10.9,2.2C103.5,223.6,103.7,231.1,103.7,233.1z"/>
		<path d="M249.3,249.6c1.3,1.3,1.8,6.5,2.5,6.6c0.8,0,1.6-5.3,2.8-6.5c1.2-1.2,4.8-1.6,4.8-2.4c0-0.7-3.6-1.4-4.7-2.5
			c-1.1-1.1-1.8-6.5-2.5-6.6c-0.8,0-1.4,5.1-2.8,6.5c-1.4,1.3-4.8,1.5-4.8,2.4C244.6,247.9,248,248.3,249.3,249.6z"/>
		<path d="M251.8,278.8c0.8,0,1.6-5.3,2.8-6.5c1.2-1.2,4.8-1.6,4.8-2.4c0-0.7-3.6-1.4-4.7-2.5c-1.1-1.1-1.8-6.5-2.5-6.6
			c-0.8,0-1.4,5.1-2.8,6.5c-1.4,1.3-4.8,1.5-4.8,2.4c0,0.9,3.5,1.2,4.7,2.5C250.5,273.5,251,278.8,251.8,278.8z"/>
		<path d="M249.3,592.2c1.3,1.3,1.8,6.5,2.5,6.6c0.8,0,1.6-5.3,2.8-6.5c1.2-1.2,4.8-1.6,4.8-2.4c0-0.7-3.6-1.4-4.7-2.5
			c-1.1-1.1-1.8-6.5-2.5-6.6c-0.8,0-1.4,5.1-2.8,6.5c-1.4,1.3-4.8,1.5-4.8,2.4C244.6,590.5,248,590.9,249.3,592.2z"/>
		<path d="M249.3,614.8c1.3,1.3,1.8,6.5,2.5,6.6c0.8,0,1.6-5.3,2.8-6.5c1.2-1.2,4.8-1.6,4.8-2.4c0-0.7-3.6-1.4-4.7-2.5
			c-1.1-1.1-1.8-6.5-2.5-6.6c-0.8,0-1.4,5.1-2.8,6.5c-1.4,1.3-4.8,1.5-4.8,2.4C244.6,613.1,248,613.5,249.3,614.8z"/>
		<polygon points="245.9,170.9 250.4,167.9 252,176 253.6,168 258.1,170.9 255.1,166.5 263.2,164.9 255.1,163.3 258.1,158.8 
			253.6,161.8 252,153.7 250.4,161.8 245.9,158.8 248.9,163.3 240.8,164.9 248.9,166.5 		"/>
		<path d="M322.8,439.8c-3.8-4.6-11.6-8.9-17-10.5c-11.4-3.5-23.7-2.3-35.4-0.2c-1.5,0.2-2.2,0.3-3.4,0.6c-0.1-4.8-0.1-9.7-0.2-14.5
			c2.4,1,7-0.6,8.9-1c11.2-2.1,25.4-7.6,33.8-15.4c21.3-19.9,8.2-56.5-21.3-61.3c-7.6-1.3-14.7-0.3-21.2,1.3
			c-0.2-44.2-0.6-88.4-0.6-132.6c3.5-0.1,7.3-0.7,7.8-3.9c0.9-5.2-1-6.9-4.8-9.3c-0.2-0.1-0.4-0.3-0.6-0.4c0,0,0,0,0,0
			c-0.2-4.1-0.6-12-4.6-14.8c7.4-8.7,4.8-22.3-4.7-27.1c10.6-3.2,18.4-13.1,18.3-24.8c0-2.4-0.4-4.8-1-7.1
			c-3,10.9-13,18.8-24.8,18.9c-11.8,0-21.8-7.9-24.9-18.7c-0.6,2.2-1,4.6-1,7.1c0,11.6,7.7,21.4,18.3,24.7
			c-9.4,4.8-12.1,18.4-4.7,27.1c-4,2.8-4.4,10.7-4.6,14.7c-1.9,1-4.2,2.3-5,4.1c-0.7,1.6-1,7.4,0.5,8.7c1.1,0.9,3.6,0.6,4.9,0.7
			c0.8,0,1.5,0.1,2.3,0.1c-0.1,0.2-0.3,0.4-0.3,0.7c-0.1,47.6-0.5,95.1-0.6,142.7c-11.6,5.5-25.7,13.5-33.5,7.4
			c-7.1-5.4,7.9-26.1,11.2-32.6c10.5-20.6,9.1-33,8.8-42.3c-0.2-7.9,5.2-9.3,4.4-16.3c-0.8-7.4-2.9-12.8-12.7-28.8
			c-1.8-3-13.6-22.3-19.7-16.7c-3.3,3-7.5,24.4-8.5,27.2c-2.8,7.6-3.4,22.4,0.4,27.5c3.8,5.1,8.6,5.9,9.7,12.1
			c1.5,8.5,0.4,14.2-5.5,24.8c-3.3,6-26.9,34.3-20.7,53.6c3.9,12,16.6,18.8,24.9,20c8,1.2,17,0.6,38.8-6.5c0.4,3.1,1.2,6.7,3.3,8.9
			c-0.2,0.2-0.3,0.4-0.3,0.7c0,0.4,0,0.7,0,1.1c-2.1,0.2-8.4,0.6-10.2,0.9c-7,0.9-13.9,2.4-20.7,4.2c-15.8,4.2-32.4,13.5-35.3,34.7
			c-1.2,9.2,0,21,5.4,28c2.6,3.3,7.5,6.6,11,8.6c13.8,7.9,25.5,5.6,40.3,4.4c2.3-0.2,4.5-0.5,6.7-0.8c-0.3,1.3-0.4,2.7-0.5,3.8
			c0,0.6,0.2,0.9,0.6,1c0.1,0.1,0.3,0.1,0.5,0.1c0.7,0,1.3,0,2,0c0,8.7,0,17.4,0,26.1c-19,7.2-38.7,19.9-35.8,42.1
			c1.9,14.4,11.4,25.4,36.1,30.5c0.1,27.5,0.3,55,0.3,82.5c-0.3,0-0.6,0-0.9,0c-0.6,0-1.2,0.5-1.2,1.2c0,6.2,0,12.4,0,18.6
			c-1.3,0-2.7,0-4,0c-0.6,0-1.2,0.5-1.2,1.2c0,4.4,0,8.8,0,13.2c0,0.6,0.5,1.2,1.2,1.2c0.7,0,1.3,0,2,0c0.3,4.7,1,13.4,6.3,15.1
			c1.3,0.4,2.8,0.5,4.3,0.5c-3.2,5.6,0.1,13.4,7.3,13.4c7.3,0,10.6-7.9,7.3-13.5c1.4,0,2.8-0.1,4-0.4c5.6-1.4,6.4-10.3,6.7-15.1
			c0.7,0,1.3,0,2,0c0.6,0,1.2-0.5,1.2-1.2c0-4.4,0-8.8,0-13.2c0-0.3-0.1-0.6-0.3-0.7c0,0,0-0.1-0.1-0.1c0,0,0,0-0.1-0.1
			c-0.2-0.2-0.4-0.3-0.7-0.3c-1.3,0-2.7,0-4,0c0-6.2,0-12.4,0-18.6c0-0.3-0.1-0.6-0.3-0.7c0,0,0-0.1-0.1-0.1c0,0,0,0-0.1-0.1
			c-0.2-0.2-0.4-0.3-0.7-0.3c-0.2,0-0.5,0-0.7,0c0-26.8,0.1-53.6,0.3-80.4c10.7,0.3,20.6,1.2,24.2,6.1c4.9,6.7,4.2,22.1,1.6,24.9
			c10.2-6.1,9.8-26.8,6.9-32.8c-6.7-13.6-18.8-14.9-32.6-15.6c0.1-27.8,0.3-55.6,0.3-83.4c0.6,0,1.2,0,1.8,0c0.6,0,1.2-0.5,1.2-1.2
			c-0.2-2.9-0.8-6.6-2.4-9.3c0-0.1,0-0.1,0-0.2c0-1,0-1.9,0-2.9c2.8-0.8,5.7-1.7,8.6-2.4c20.4-5.3,33.3,4.5,29.5,14.7
			c-3,8-23,14.6-38.4,19.1c0,1,0.1,2,0.1,3c0.8,7.5,0.2,15.1-0.1,22.7c5.5-1.3,11.3-2.6,17.4-4.5c21.2-6.4,40.4-10.5,44.5-38.7
			C330.5,462.7,330.5,449.1,322.8,439.8z M260.6,431c-1.7,0.4-3.3,0.7-5,1.1c-1.2-9.8-3.6-26-3.6-26s-2.7,18.3-3.8,27.7
			c-2.9,0.7-5.9,1.4-8.8,2c0.2-15.5,0.4-31.1,0.5-46.6c0.3,0.1,0.6,0.2,1,0.3c3.4,0.8,7.7,0.1,11.1,0.1c3.4,0,7.4,0.6,10.7,0
			c0.6-0.1,1.1-0.3,1.5-0.5c0,13.7,0.2,27.4,0.4,41.1C263.3,430.5,262,430.7,260.6,431z M283.1,365.9c8.9,6.2,4.9,13.6-3.4,17.7
			c-2.6,1.3-5.4,2.3-8.2,3.1c-1.6,0.5-3.6,0.4-5,1.2c-0.1-0.1-0.1-0.2-0.2-0.3c2.6-2.9,3.2-8.2,3.5-11.7c0-0.5-0.2-0.9-0.6-1
			c-0.2-0.1-0.3-0.1-0.5-0.1c-0.4,0-0.9,0-1.3,0c0-2.6,0-5.2,0-7.8C273.6,364.8,279.9,363.6,283.1,365.9z M264.8,369.8h-5.4
			c1.7-0.7,3.5-1.4,5.4-2C264.8,368.5,264.8,369.2,264.8,369.8z M248.9,151.5c1.1,0.1,2.1,0.2,3.2,0.2c1,0,2.1-0.1,3.1-0.2
			c11,2.3,14.7,16.8,6.9,25.2c0,0,0,0-0.1,0.1c-3-0.6-7.1,0.1-9.9,0.1c-2.9,0-7-0.7-10-0.1c-0.1-0.1-0.1-0.3-0.2-0.4
			C234.2,168,238,153.8,248.9,151.5z M243.1,179.2c2.8-0.4,6,0,8.9,0c2.9,0,6-0.4,8.9,0c4.6,0.6,5.3,7.6,5.6,11.9
			c-4.5-2.4-9.3-4.3-14.5-4.5c-5.1,0.2-10,2.1-14.5,4.5C237.8,186.8,238.5,179.9,243.1,179.2z M237.7,203.8c-1.3,0-2.7-0.1-4-0.2
			c-0.8,0-1.6-0.4-1.5-0.1c-0.5-1.2-0.1-5.2,0.2-6.2c0-0.1,0-0.1,0.1-0.2c0,0,0.1-0.1,0.1-0.1c0.5-0.5,1.3-0.9,1.8-1.3
			c5.2-3.4,11.3-6.5,17.6-6.7c6.2,0.3,12.1,3.2,17.2,6.5c2,1.3,2.2,1.3,2.6,3.4c0.4,2,0.7,3.4-0.9,4.2c-2.4,1.2-6.8,0.6-9.4,0.7
			c-4.1,0.1-8.3,0.2-12.4,0.2C245.3,203.9,241.5,203.9,237.7,203.8z M264.2,226.5c-5.7-7.3-18.7-7.6-24.4-0.3c0-4.9,0-9.9,0-14.8
			h24.3C264.2,216.4,264.2,221.4,264.2,226.5z M239.8,231.5c2.9-11.4,21.6-10.8,24.4,0.2c0,0,0,0,0,0c0.1,35.9,0.4,71.8,0.5,107.6
			c-7,2.1-13.4,4.9-18.9,6.5c-2,0.6-4.3,1.5-6.6,2.6C239.3,309.4,239.6,270.4,239.8,231.5z M236.9,378.1c0.9-0.3,1.9-0.6,2.9-1
			c9.2,0,18.3,0,27.5,0c-0.4,4.3-1.4,9.9-6.3,10.2c-3,0.2-6,0-9,0c-3,0-6,0.2-9,0C238.5,387.1,237.3,382.2,236.9,378.1z
			 M237.4,408.7c0,0.8,0,1.7,0,2.5c0-0.2,0-0.3,0-0.4C237.3,410.1,237.4,409.4,237.4,408.7z M227.4,437.8c-5.8,1-11.1,3-17.1,2.6
			c-1.9-0.1-3.8-0.5-5.4-1.7c-1.6-1.2-2.6-3.4-2.2-5.5c0.4-1.8,1.4-5.1,2.8-6.2c4.4-3.4,9.9-4.3,15.2-5.3c2.6-0.5,5.2-0.8,7.8-1.2
			c1.4-0.2,6.5-0.8,8.7-1c-0.1,5.6-0.1,11.2-0.2,16.8C233.8,436.9,230.6,437.2,227.4,437.8z M234.3,529.9c1-0.9,2.1-1.7,3.3-2.5
			c0,7.8,0.1,15.7,0.1,23.5C229.4,545.8,225.3,538,234.3,529.9z M265.6,658c0,5.6,0,11.2,0,16.7c-9.1,0-18.1,0-27.2,0
			c0-5.6,0-11.2,0-16.7C247.5,658,256.5,658,265.6,658z M240.4,635.1c5.5,6.4,17.9,6.7,23.4,0.2c0,5.1,0,10.3,0,15.4h-23.3
			C240.4,645.5,240.4,640.3,240.4,635.1z M252,717.6c-5.8,0-8.3-6.9-4.6-11c0.1-0.1,0.1-0.1,0.1-0.2c1.6-0.1,3.1-0.2,4.4-0.2
			c1.4,0,2.8,0.1,4.4,0.2c0,0,0,0.1,0.1,0.1C260.3,710.5,258,717.6,252,717.6z M261.7,703.9c-3.1,0.4-6.5,0-9.7,0
			c-3.1,0-6.3,0.3-9.4,0c-5.4-0.6-6-8.4-6.2-12.9c10.4,0,20.8,0,31.3,0C267.4,695.3,266.8,703.1,261.7,703.9z M270.8,677.8
			c0,1.8,0,3.6,0,5.4h-37.5c0-1.8,0-3.6,0-5.4C245.8,677.8,258.3,677.8,270.8,677.8z M263.8,630.5c-2.7,9.9-20.6,9.4-23.4-0.1
			c-0.1-18.9-0.2-37.8-0.3-56.7c0.8,0.1,1.6,0.3,2.4,0.4c5.9,1,13.8,1,21.5,1.1C263.9,593.6,263.8,612.1,263.8,630.5z M258.1,557.5
			c-5.9-0.4-12.6-2.3-18.1-5.2c-0.1-24.2-0.2-48.4-0.2-72.6h24.6c0,26.1-0.1,52.1-0.3,78.2C262.1,557.7,260.1,557.6,258.1,557.5z
			 M267.2,472.2c-10.2,0-20.3,0-30.5,0c0.1-1,0.3-2.1,0.5-3.1c7.8-1.4,15.3-3.7,22.9-6c0.2,0,0.4,0,0.5,0
			C265.5,463.3,266.8,468,267.2,472.2z M264.9,461.7C264.9,461.7,264.9,461.7,264.9,461.7C264.9,461.7,264.9,461.7,264.9,461.7
			C264.9,461.7,264.9,461.7,264.9,461.7z"/>
		<path d="M332.4,353.2l83.8-23.9l-84.9,21.5C331.8,351.6,332.1,352.4,332.4,353.2z"/>
		<path d="M327.8,344.7c0.4,0.5,0.8,1.1,1.1,1.6l57.6-18.7L327.8,344.7z"/>
		<path d="M324.1,340.5l67.1-23.9l-69,22.2C322.9,339.3,323.5,339.9,324.1,340.5z"/>
		<path d="M371,312.2l-55.9,21.7c0.7,0.4,1.5,0.8,2.2,1.3L371,312.2z"/>
		<path d="M309.1,331.1l54.2-26.6l-57.1,25.6C307.2,330.4,308.2,330.8,309.1,331.1z"/>
		<path d="M298.7,328.1l48.5-29.1l-52,28.4C296.4,327.7,297.6,327.9,298.7,328.1z"/>
		<path d="M287.6,326.5l40.5-27.2l-44.9,26.9C284.6,326.3,286.1,326.4,287.6,326.5z"/>
		<path d="M277.2,325.9l38.7-33.3l-43.3,33.2C274.1,325.7,275.6,325.7,277.2,325.9z"/>
		<path d="M321.2,397.3c-0.5,0.6-1,1.2-1.5,1.7l35.2,0.6L321.2,397.3z"/>
		<path d="M312.4,405.3c-0.6,0.5-1.2,0.9-1.9,1.4l37.3,4.9L313,405C312.8,405.1,312.6,405.2,312.4,405.3z"/>
		<path d="M391.4,345.8l-57.5,12.3c0.1,0.6,0.3,1.2,0.4,1.8L391.4,345.8z"/>
		<path d="M334.8,367.3l66.2-14.4l-66.2,12.3C334.9,365.9,334.9,366.6,334.8,367.3z"/>
		<path d="M385.7,366.9l-51.5,6.3c-0.1,0.6-0.2,1.2-0.4,1.8L385.7,366.9z"/>
		<path d="M331.1,382.8l51.8-5.4l-50.9,3.5C331.7,381.5,331.4,382.2,331.1,382.8z"/>
		<path d="M327.3,389.5c-0.4,0.6-0.8,1.2-1.3,1.8l45.6-1.1L327.3,389.5z"/>
	</g>
</g>
</svg>
