<?xml version="1.0" encoding="utf-8"?>
<!-- Generator: Adobe Illustrator 21.1.0, SVG Export Plug-In . SVG Version: 6.00 Build 0)  -->
<svg version="1.1" xmlns="http://www.w3.org/2000/svg" xmlns:xlink="http://www.w3.org/1999/xlink" x="0px" y="0px"
	 viewBox="0 0 504 864" style="enable-background:new 0 0 504 864;" xml:space="preserve">
<g id="Слой_1">
</g>
<g id="Слой_2">
	<g>
		<path d="M503.8,18.2c-1.6-17.9-18.7-16.3-31.6-16.3c-45.9,0-91.8,0-137.6,0c-63.2,0-126.3,0-189.5,0c-40.6,0-81.2,0-121.8,0
			c-2.6,0-5.3-0.2-8,0.2c-9.5,1.2-15,9.2-15.2,18.2c-0.2,7.3,0,14.5,0,21.8c0,37.4,0,74.9,0,112.3c0,57,0,114.1,0,171.1
			c0,64.3,0,128.6,0,192.9c0,58.4,0,116.7,0,175.1c0,40.1,0,80.2,0,120.3c0,9.1,0,18.2,0,27.3c0,11.7,6.7,20.5,19.2,20.7
			c35.9,0.6,71.9,0,107.9,0c62.4,0,124.9,0,187.3,0c49.7,0,99.5,0,149.2,0c7.6,0,15.2,0,22.9,0c0.4,0,0.8-0.1,1.2-0.2
			c14.4-1.8,16.1-13.8,16.1-25.5c0-11.4,0-22.8,0-34.3c0-43.4,0-86.9,0-130.3c0-59.9,0-119.8,0-179.8c0-63.9,0-127.7,0-191.6
			c0-55.3,0-110.6,0-165.9c0-33.7,0-67.3,0-101C503.9,28.3,504.2,23.2,503.8,18.2z M486.6,852.8c-28.3,0-56.6,0-84.9,0
			c-59.9,0-119.8,0-179.7,0c-54,0-108,0-162,0c-13.1,0-26.1,0-39.2,0c-5.6,0-11-1.3-11.7-8.3c-0.2-1.5,0-3,0-4.5c0-26.5,0-53,0-79.5
			c0-50,0-100,0-149.9c0-61.8,0-123.6,0-185.4c0-61.4,0-122.7,0-184.1c0-48.9,0-97.7,0-146.6c0-24.2-0.8-48.6,0-72.7
			c0.2-5.3,1.6-10.1,8.3-10.8c2.2-0.2,4.5,0,6.7,0c14.8,0,29.6,0,44.5,0c55.6,0,111.3,0,166.9,0c58.9,0,117.8,0,176.7,0
			c18.9,0,37.9,0,56.8,0c8.1,0,24.7-3.1,25.9,8.4c0.5,5.2,0,10.8,0,16.1c0,13.5,0,27.1,0,40.6c0,45.5,0,91.1,0,136.6
			c0,60.1,0,120.2,0,180.3c0,62.6,0,125.1,0,187.7c0,52.8,0,105.6,0,158.4c0,31.4,0,62.7,0,94.1C494.8,840.3,496.9,852,486.6,852.8z
			"/>
		<path d="M460,790.9c1.2,0.1,2.4-0.7,2.4-2.2c0-23.7,0-47.4,0-71.1c0-56.4,0-112.8,0-169.2c0-68.7,0-137.4,0-206
			c0-59,0-117.9,0-176.9c0-19.6,0-39.2,0-58.8c0-8.9,1.3-19,0-27.9c-0.1-0.4,0-0.8,0-1.2c0-0.8-0.3-1.3-0.8-1.7
			c0.1-1.2-0.6-2.5-2.2-2.6c-13.1-0.5-25.3-13.8-25.8-26.7c0-0.5-0.2-0.8-0.4-1.1c-0.3-0.6-1-1.1-1.9-1.1c-40.5,0-80.9,0-121.4,0
			c-64.5,0-129,0-193.6,0c-14.9,0-29.7,0-44.6,0c-0.9,0-1.6,0.5-1.9,1.1c-0.2,0.3-0.3,0.7-0.4,1.2C69.1,59.5,57,72.8,43.9,73.3
			c-1.8,0.1-2.5,1.9-2,3.2c-0.2,0.3-0.2,0.6-0.2,1c0,23.7,0,47.4,0,71.1c0,56.4,0,112.8,0,169.2c0,68.7,0,137.4,0,206
			c0,59,0,117.9,0,176.9c0,19.6,0,39.2,0,58.8c0,8.9-1.3,19,0,27.9c0.1,0.4,0,0.8,0,1.2c0,0.9,0.5,1.6,1.1,1.9
			c0.3,0.2,0.7,0.3,1.1,0.4c13,0.5,25.3,13.3,25.8,26.2c0,0.5,0.2,0.8,0.4,1.1c0.3,0.6,1,1.1,1.9,1.1c40.5,0,80.9,0,121.4,0
			c64.5,0,129,0,193.6,0c14.9,0,29.7,0,44.6,0c0.9,0,1.6-0.5,1.9-1.1c0.2-0.3,0.3-0.7,0.4-1.2c0.5-12.9,12.7-25.7,25.8-26.2
			C459.6,791,459.8,790.9,460,790.9z M429.3,814.9c-39.8,0-79.6,0-119.3,0c-64.5,0-129,0-193.6,0c-14.2,0-28.3,0-42.5,0
			c-1.7-13.9-13.9-26.5-27.8-28.3c0-23,0-46,0-69.1c0-56.4,0-112.8,0-169.2c0-68.7,0-137.4,0-206c0-59,0-117.9,0-176.9
			c0-19.6,0-39.2,0-58.8c0-8.9,1.3-19,0-27.9c-0.1-0.4,0-0.8,0-1.2c14-1.8,26.1-14.9,27.8-28.7c39.8,0,79.5,0,119.3,0
			c64.5,0,129,0,193.6,0c14.2,0,28.3,0,42.5,0c1.7,14.1,14.3,27.4,28.5,28.8c0,23.7,0,47.3,0,71c0,56.4,0,112.8,0,169.2
			c0,68.7,0,137.4,0,206c0,59,0,117.9,0,176.9c0,19.6,0,39.2,0,58.8c0,8.6-1.2,18.4-0.1,27C443.6,788.1,431.1,800.9,429.3,814.9z"/>
		<path d="M130.8,796.7c-0.1,0-0.1,0.1-0.1,0.2c0,0.1,0,0.2,0.1,0.2c0.1,0,0.1-0.1,0.1-0.2C130.9,796.8,130.9,796.7,130.8,796.7z"/>
		<path d="M130.8,797.9c-0.1,0-0.1,0.1-0.1,0.2c0,0.1,0,0.2,0.1,0.2c0.1,0,0.1-0.1,0.1-0.2C130.9,797.9,130.9,797.9,130.8,797.9z"/>
		<path d="M130.8,792.3c0.1,0,0.1,0,0.2-0.1c0.1-0.2,0.1-0.3-0.1-0.3c-0.1,0-0.2,0.1-0.2,0.2C130.7,792.3,130.7,792.3,130.8,792.3z"
			/>
		<path d="M129.6,798.8c-0.1,0.1-0.1,0.2,0,0.4c0.1,0.1,0.2,0.1,0.3,0.1c0.3-0.1,0.3-0.3,0.1-0.5
			C129.8,798.6,129.7,798.6,129.6,798.8z"/>
		<path d="M143,793.4c-0.8-0.1-1.3-0.2-1.5-0.2c-0.1-0.1-0.2-0.2-0.2-0.4c0-0.2,0-0.3-0.1-0.4c-0.1-0.1-0.2-0.1-0.4-0.1
			c-0.3-0.1-0.5-0.2-0.5-0.3c0-0.1-0.1-0.2-0.3-0.2c-0.2,0-0.3-0.1-0.3-0.2c0-0.1-0.1-0.3-0.3-0.5c-0.2-0.2-0.4-0.4-0.5-0.4
			c-0.1,0-0.2,0-0.2-0.1c0-0.1-0.1-0.2-0.3-0.2c-0.2,0-0.3-0.1-0.3-0.2c0-0.2-0.1-0.3-0.2-0.5c-0.2-0.2-0.3-0.2-0.5-0.2
			c-0.2,0-0.2-0.1-0.2-0.2c0-0.1,0-0.2,0-0.3c0-0.1,0-0.2,0-0.3c0-0.1,0.1-0.2,0.3-0.3c0.3-0.1,0.4-0.2,0.4-0.4
			c0-0.2,0.1-0.3,0.2-0.3c0.1,0,0.3-0.1,0.5-0.4c0.2-0.3,0.4-0.5,0.5-0.5c0.2-0.1,0.2-0.1,0.2-0.3c-0.1-0.1,0-0.2,0.3-0.4
			c0.2-0.1,0.4-0.3,0.4-0.5c0-0.2,0.1-0.3,0.3-0.3c0.2,0,0.3-0.1,0.3-0.4c0-0.3,0.1-0.4,0.2-0.4c0.2,0,0.4-0.1,0.5-0.4
			c0.2-0.2,0.5-0.3,0.9-0.4c0.4-0.1,0.6-0.2,0.8-0.3c0.1-0.1,0.2-0.2,0.4-0.2c0.2,0,0.3-0.1,0.3-0.2c0-0.1,0.1-0.3,0.2-0.4
			c0.1,0,0.1-0.1,0.1-0.1c0,0-0.1,0-0.4-0.1c-0.4,0-0.5-0.1-0.5-0.2c0-0.2-0.3-0.3-0.8-0.3c-0.5,0-0.8,0.1-0.9,0.3
			c-0.1,0.1-0.3,0.2-0.6,0.2c-0.3,0-0.4,0-0.5-0.1c-0.1-0.1-0.6-0.2-1.8-0.2l-1.7-0.1l-0.1,0.5c0,0.1-0.1,0.2-0.1,0.3
			c0,0.1,0.1,0.2,0.2,0.3c0.1,0.1,0.4,0.1,0.7,0.1c0.3,0,0.5,0.1,0.6,0.1s0.1,0.1,0.1,0.2v0.1c0,0.3-0.1,0.4-0.2,0.5
			c-0.1,0.1-0.1,0.2-0.1,0.4c0.1,0.1,0,0.3-0.3,0.4c-0.2,0.1-0.4,0.3-0.4,0.5c0,0.3-0.1,0.4-0.3,0.5c-0.2,0.1-0.4,0.3-0.4,0.6
			c-0.1,0.3-0.3,0.5-0.5,0.5c-0.3,0.1-0.5,0.2-0.6,0.4c-0.2,0.2-0.3,0.3-0.4,0.3c-0.1,0-0.1-0.1-0.1-0.4c0-0.2,0-0.5,0.1-0.9
			c0-0.5,0.1-0.8,0.1-0.9c0-0.2,0-0.3,0-0.3c-0.1-0.3,0-0.5,0.2-0.6c0.2-0.1,0.3-0.3,0.2-0.6c0-0.2,0-0.3,0-0.3c0,0,0.1-0.1,0.3-0.1
			c0.2,0,0.4-0.1,0.5-0.3c0.1-0.2,0.1-0.4,0.1-0.8c0-0.2,0-0.3-0.1-0.3c-0.1-0.1-0.7-0.1-1.9-0.1c-1.4-0.1-2.1-0.2-2.1-0.4
			c0-0.1-0.1-0.1-0.2-0.1c-0.1,0-0.2,0-0.2,0.1c0,0.1-0.1,0.2-0.1,0.3c0,0.2,0,0.3,0,0.3c0,0.2-0.1,0.3-0.3,0.4
			c-0.2,0-0.3,0.2-0.2,0.5c0.1,0.3,0.1,0.4,0.2,0.5s0.2,0.1,0.3,0.1c0.2,0,0.3,0,0.4,0c0.1,0,0.2,0,0.4,0c0.3,0,0.5,0.1,0.6,0.4
			c0.1,0.2,0.1,0.8,0.1,1.5c0,0.9-0.1,1.4-0.2,1.5c-0.1,0.1-0.1,0.2,0,0.4c0.1,0.2,0.1,0.5,0,0.7c-0.1,0.2-0.2,0.3-0.3,0.3
			c-0.1,0-0.1,0.1,0,0.2c0.1,0.1,0.1,0.3,0.1,0.7c0,0.6-0.1,1.5-0.2,2.9l-0.1,1h-0.6c-0.4,0-0.6,0.1-0.7,0.3
			c-0.1,0.2-0.2,0.3-0.3,0.3c-0.2,0-0.2,0.1-0.2,0.4c0,0.3,0.1,0.5,0.3,0.6c0.2,0.1,0.3,0.3,0.3,0.4c0,0.1,0.1,0.2,0.3,0.2
			c0.2,0,0.5,0,0.8-0.1c0.3-0.1,0.5-0.2,0.6-0.2c0.1-0.1,0.7-0.2,1.6-0.2s1.4,0,1.5-0.1c0,0,0-0.3,0-0.6c0-0.3-0.1-0.4-0.1-0.5
			c0-0.1-0.1-0.1-0.3-0.1c-0.2,0-0.4,0-0.4-0.1c0-0.1-0.1-0.1-0.2-0.1c-0.3,0-0.4-0.3-0.4-0.9c0-0.2,0-0.3,0-0.4
			c0-0.4,0.1-0.8,0.1-1.2V790c0-0.1,0-0.2,0-0.3c0-0.1,0-0.2,0-0.3c0-0.4,0-0.6,0.1-0.6h0.1c0.2,0,0.4,0.1,0.8,0.3
			c0.4,0.2,0.6,0.4,0.7,0.6c0.2,0.2,0.3,0.4,0.4,0.4c0.1,0,0.2,0.1,0.3,0.3c0.1,0.2,0.2,0.4,0.2,0.5c0,0.1,0.1,0.2,0.4,0.5
			c0.3,0.2,0.4,0.4,0.4,0.6c0,0.1,0.1,0.2,0.3,0.2c0.2,0,0.3,0.1,0.3,0.4c0,0.2,0.1,0.4,0.3,0.4c0.3,0,0.3,0.2,0,0.6
			c-0.2,0.2-0.4,0.2-0.6,0.1c-0.2-0.1-0.3-0.1-0.5,0c-0.1,0.1-0.3,0.2-0.5,0.2c-0.2,0-0.3,0-0.3,0.1c0,0.1,0,0.2,0.1,0.2
			c0.1,0,0.1,0.1,0.1,0.2c0,0.1,0.1,0.2,0.2,0.3c0.2,0.1,0.3,0.1,0.5,0.1c0,0,0,0,0.1,0c0,0,0,0,0.1,0c0.2-0.1,0.3,0,0.3,0.1
			c0,0.1,0.1,0.1,0.2,0c0.1-0.1,0.2-0.2,0.5-0.2c0.2,0,0.8,0,1.8,0c1.4,0,2.2,0.1,2.4,0.2c0.2,0.1,0.3,0.2,0.4,0.2
			c0.2,0,0.2-0.2,0.2-0.5c0-0.4-0.1-0.6-0.2-0.7C143.7,793.5,143.4,793.5,143,793.4z M138.6,782.9
			C138.6,782.9,138.6,782.9,138.6,782.9L138.6,782.9c0.1,0.2,0.1,0.3,0,0.3c0,0,0,0,0-0.1C138.6,783,138.6,783,138.6,782.9z
			 M138.4,785.4c0.1,0,0.1,0,0.1,0c0.1,0,0.1,0,0,0.1c-0.1,0.1-0.2,0.1-0.3,0L138.4,785.4z M137.9,786.1c0.1,0,0.1,0.1,0.1,0.2
			c0,0.1,0,0.2-0.1,0.2c-0.1,0-0.1-0.1-0.1-0.2C137.8,786.2,137.8,786.1,137.9,786.1z"/>
		<path d="M141.7,786.2l0.1,0.4l0-0.1c0,0,0-0.1,0.1-0.1c0,0,0.1-0.1,0.1-0.1c0-0.1,0.1-0.1,0.1-0.2c0.2-0.3,0.2-0.4,0-0.4
			C141.8,785.7,141.7,785.8,141.7,786.2z"/>
		<path d="M156.8,782c-0.1-0.1-0.7-0.1-1.8-0.1c-1,0-1.5,0-1.5,0.1c0,0.1-0.2,0.1-0.5,0.1c-0.3,0-0.5,0.1-0.5,0.2
			c0,0.1,0,0.2-0.1,0.2c-0.1,0-0.1,0.1-0.1,0.3c0,0.3,0.1,0.4,0.2,0.5c0.1,0.1,0.2,0.5,0.2,1.3c0,0.8,0,1.2,0.1,1.3
			c0.1,0,0.1,0.4,0.1,1.1c0,0.7,0,1-0.1,1.1c-0.1,0-0.2,0.8-0.2,2.2c0,1.2-0.1,2-0.2,2.2c-0.1,0.2-0.4,0.4-0.9,0.5
			c-0.3,0-0.5,0.1-0.5,0.1c-0.1,0.1-0.1,0.2-0.1,0.4c0,0.3,0.1,0.5,0.2,0.5c0.2,0,0.3,0.1,0.5,0.2c0.2,0.2,0.3,0.2,0.3,0.1
			c0.1-0.1,0.8-0.2,2.1-0.2c1.1,0,1.6,0.1,1.6,0.2c0,0.1,0.1,0.1,0.3,0.1c0.2,0,0.3,0,0.3-0.1c0-0.1,0.1-0.2,0.3-0.3
			c0.2-0.1,0.3-0.2,0.3-0.3c0-0.5-0.4-0.7-1-0.8l-0.6-0.1l0.1-3.5c0-2.3,0.1-3.5,0.2-3.6c0.1-0.1,0.1-0.4,0.1-1
			c0.1-1.1,0.2-1.6,0.4-1.6c0.1,0,0.2,0,0.2-0.1c0-0.1,0.1-0.2,0.4-0.2c0.2,0,0.4-0.1,0.5-0.2c0.1-0.1,0.2-0.2,0.2-0.4
			C157.1,782.3,157,782.1,156.8,782z M153.4,790.9c-0.1,0-0.2,0-0.2-0.1s0.1-0.1,0.2-0.1c0.1,0,0.2,0,0.2,0.1
			S153.5,790.9,153.4,790.9z M154.2,787.1c-0.1,0-0.2-0.1-0.2-0.3c0-0.2,0.1-0.3,0.2-0.3c0.1,0,0.2,0.1,0.2,0.3
			C154.4,787,154.4,787.1,154.2,787.1z"/>
		<path d="M177.1,782c-0.1,0-0.2,0-0.3,0.1c-0.2,0.1-0.3,0.1-0.3,0.1c-0.1,0-0.1-0.1-0.2-0.2c-0.1-0.2-0.3-0.3-0.4-0.3
			c-0.1,0-0.2-0.1-0.2-0.3c0-0.2-0.1-0.3-0.3-0.3c-0.2,0-0.3,0.1-0.3,0.3c0,0.2,0.1,0.3,0.2,0.3s0.2,0.1,0.2,0.3
			c0,0.2-0.1,0.3-0.2,0.3c-0.2,0-0.3-0.1-0.3-0.4c-0.1-0.2-0.2-0.4-0.3-0.4c-0.1,0-0.1,0-0.2,0.1c-0.2,0.2-0.2,0.3,0,0.3
			c0.1,0,0.2,0.1,0.2,0.1c0,0.1-0.1,0.2-0.4,0.2c-0.2,0-0.4,0-0.4-0.1s-0.1-0.1-0.4-0.1c-0.4,0-0.8,0.1-1.1,0.2
			c-0.4,0.2-0.6,0.4-0.6,0.7c0,0.3,0.3,0.5,0.8,0.6c0.4,0.1,0.6,0.1,0.6,0.2c0,0.1,0.1,0.1,0.3,0.1c0.3,0,0.5,0.2,0.6,0.6
			c0.1,0.4,0.2,1.2,0.2,2.4c0,1.4,0.1,2.2,0.1,2.4c0.1,0.1,0,0.3,0,0.6l-0.1,0.4l-0.5-0.5c-0.4-0.3-0.5-0.5-0.5-0.6
			c0-0.1-0.1-0.2-0.2-0.3c-0.1-0.1-0.3-0.2-0.4-0.4c-0.2-0.1-0.3-0.2-0.3-0.2c-0.1-0.1-0.3-0.2-0.3-0.2c-0.1,0-0.2-0.1-0.2-0.2
			c0-0.1-0.1-0.2-0.2-0.3c-0.1-0.1-0.3-0.2-0.4-0.2c-0.1,0-0.1-0.1-0.1-0.2c0-0.1-0.1-0.2-0.2-0.2c-0.1,0-0.1,0-0.1-0.1
			c0-0.1-0.1-0.2-0.4-0.5c-0.2-0.3-0.4-0.4-0.4-0.5c0-0.1-0.1-0.2-0.3-0.2c-0.2,0-0.3-0.1-0.5-0.2c-0.2-0.1-0.2-0.3-0.2-0.4
			c0-0.1-0.2-0.3-0.5-0.7s-0.5-0.6-0.5-0.7c0-0.1-0.1-0.2-0.3-0.4c-0.2-0.2-0.3-0.4-0.3-0.4c0-0.3-0.6-0.5-1.8-0.6
			c-0.6,0-0.9-0.1-0.9-0.1c-0.3,0-0.4,0.1-0.4,0.2c0,0.1,0,0.2,0,0.4c0,0.2,0,0.4,0.1,0.6c0.1,0.2,0.1,0.3,0.2,0.3
			c0.1,0,0.2,0.2,0.3,0.6c0.1,0.4,0.2,0.6,0.2,0.6c0.1,0,0.1,0.3,0.1,0.8c0,0.5,0,0.8-0.1,0.8c-0.1,0-0.1,0.1-0.1,0.4s0.1,0.6,0.2,1
			c0.1,0.2,0.1,0.6,0.1,1.1c0,0.7-0.1,1.1-0.2,1.1c-0.1,0-0.1,0.2-0.1,0.7c0,0.5,0,1.1-0.1,1.5c0,0.4-0.1,0.6-0.1,0.7
			c-0.1,0.1-0.2,0.2-0.4,0.2c-0.3,0.1-0.4,0.2-0.4,0.4c0,0.2,0.1,0.4,0.4,0.6c0.2,0.2,0.3,0.3,0.5,0.3s0.8,0,1.7,0
			c1,0,1.6,0,1.8-0.1c0.2-0.1,0.3-0.3,0.3-0.8c0-0.3-0.1-0.4-0.3-0.5c-0.2-0.1-0.3-0.1-0.3-0.2c0-0.1-0.2-0.1-0.6-0.1
			c-0.4,0-0.7-0.1-0.9-0.3c-0.2-0.2-0.2-0.3-0.1-0.4c0.1-0.1,0.2-0.2,0.2-0.6c0-0.3,0-0.5-0.1-0.5c-0.1-0.1-0.1-0.9-0.1-2.6
			c0-1.7,0.1-2.5,0.2-2.5c0.1,0,0.3,0.1,0.4,0.2c0.1,0.1,0.3,0.2,0.5,0.3c0.3,0.1,0.4,0.3,0.5,0.4c0,0.2,0.3,0.5,0.8,1.1
			c0.5,0.5,0.9,0.9,1.3,1.1c0.2,0.1,0.3,0.2,0.3,0.3c0,0.1,0.2,0.2,0.5,0.6c0.7,0.7,1.1,1.1,1.1,1.4c0,0.1,0.1,0.1,0.3,0.1
			c0.2,0,0.3,0,0.3,0.1c0,0.1,0.1,0.3,0.4,0.5c0.2,0.2,0.4,0.4,0.4,0.6c0,0.1,0.1,0.3,0.3,0.5c0.2,0.2,0.3,0.3,0.4,0.3
			c0.1,0,0.3,0.2,0.6,0.5c0.3,0.3,0.5,0.5,0.7,0.6c0.1,0.1,0.2,0.1,0.3,0.1c0.4,0,0.6-0.2,0.6-0.6c0-0.1,0-0.2,0-0.4
			c0-0.9-0.1-1.4-0.2-1.6c-0.1-0.1-0.1-0.5-0.1-1.3v-0.4c0-1,0-1.6-0.1-1.6c-0.1-0.1-0.2-0.4-0.2-1c0-0.5,0-0.8,0.1-0.8
			c0.1-0.1,0.2-0.2,0.2-0.5s0-0.4,0.1-0.4c0.1,0,0.1-0.1,0.1-0.4s0-0.4-0.1-0.4c-0.1,0-0.1-0.1-0.1-0.4c0-0.4,0.1-0.7,0.2-1
			c0.2-0.3,0.4-0.5,0.7-0.5c0.2,0,0.4-0.1,0.4-0.1s0.1-0.2,0.1-0.5v-0.2C177.4,782.3,177.3,782,177.1,782z"/>
		<path d="M194.2,788.6c-0.3,0-0.5,0-0.6,0c-0.7,0-1.2,0-1.4,0.1c-0.2,0.1-0.4,0.2-0.4,0.3c0,0.1-0.1,0.2-0.1,0.3
			c0,0.3,0.4,0.5,1.2,0.6c0.7,0.1,1.1,0.2,1.1,0.3c0,0-0.1,0.2-0.2,0.6c-0.1,0.3-0.3,0.5-0.5,0.5c-0.2,0-0.4,0.1-0.6,0.4
			c-0.2,0.3-0.3,0.3-0.4,0.2c-0.1-0.1-0.2-0.1-0.4,0.1c-0.2,0.2-0.5,0.2-0.8,0.2c-0.1,0-0.4,0-0.8-0.1c-0.7,0-1.1-0.1-1.3-0.2
			c-0.2-0.1-0.3-0.3-0.3-0.6c0-0.2-0.1-0.4-0.3-0.5c-0.2-0.1-0.3-0.2-0.3-0.4c0-0.2,0-0.2-0.1-0.2c-0.3,0-0.6-0.5-0.8-1.5
			c-0.1-0.7-0.2-1.1-0.3-1.1c-0.1,0-0.1-0.1-0.1-0.2c0-0.2,0-0.2,0.1-0.3c0.2,0,0.3-0.7,0.3-1.9c0-0.2,0.1-0.2,0.3-0.2
			c0.2,0,0.3-0.1,0.3-0.2c0-0.1,0-0.3-0.2-0.4c-0.1-0.1-0.1-0.2,0.1-0.2c0.2,0,0.4-0.1,0.7-0.2c0.2-0.1,0.4-0.3,0.4-0.4
			c0-0.1,0.1-0.3,0.3-0.4c0.2-0.1,0.5-0.2,0.7-0.2c0.2,0,0.3-0.1,0.3-0.2c0-0.1,0.2-0.2,0.7-0.3c0.1,0,0.1,0,0.2,0
			c0.1,0,0.1,0,0.2,0c0.6,0,1,0.2,1.2,0.5c0.1,0.2,0.3,0.3,0.6,0.4c0.3,0.1,0.4,0.2,0.4,0.3c0,0,0,0,0,0.1c0,0,0,0.1,0,0.1
			c0,0.1,0,0.2,0.1,0.3c0.1,0.1,0.2,0.2,0.3,0.5c0.1,0.2,0.1,0.3,0.2,0.4c0.1,0.1,0.3,0.1,0.5,0.2c0.1,0,0.2,0,0.4,0
			c0.1,0,0.2,0,0.2,0c0,0,0.1-0.1,0.1-0.1c0-0.1,0-0.1,0.1-0.2c0.1-0.3,0.1-0.6,0.1-0.9c0-0.3,0-0.5,0.1-0.5c0.1,0,0.1-0.1,0.1-0.3
			c0-0.2,0-0.5-0.1-0.9c-0.1-0.1-0.1-0.2-0.3-0.3c-0.1,0-0.4-0.1-0.9-0.1c-0.7,0-1,0-1.1-0.1c-0.1-0.1-0.9-0.2-2.2-0.2
			c-0.6,0-1,0-1.2,0.1c-0.6,0.1-1,0.2-1.3,0.3c-0.2,0.1-0.8,0.5-1.6,1.3c-0.9,0.8-1.3,1.3-1.3,1.4c0,0.1-0.1,0.2-0.2,0.4
			c-0.1,0.2-0.2,0.4-0.2,0.7s-0.1,0.4-0.2,0.5c-0.1,0.1-0.1,0.2-0.1,0.4c0,0.2-0.1,0.4-0.2,0.5c-0.1,0.1-0.2,0.6-0.2,1.5
			c0,1,0.1,1.6,0.2,1.6c0.1,0,0.1,0.1,0.1,0.3c0,0.1,0,0.2-0.1,0.2c-0.1,0,0,0.1,0.2,0.4c0.2,0.2,0.4,0.4,0.5,0.4
			c0.1,0,0.2,0.1,0.2,0.3c0.1,0.2,0.3,0.4,0.6,0.8c0.4,0.3,0.6,0.6,0.8,0.6c0.2,0.1,0.2,0.1,0.2,0.2c0,0.1,0.4,0.2,1.1,0.3
			c0.7,0.1,1.4,0.1,2.2,0.1c1.1,0,1.7-0.1,1.9-0.3c0.1-0.1,0.3-0.2,0.6-0.3c0.4-0.1,0.6-0.2,0.8-0.2c0,0,0.1,0,0.1,0
			c0,0-0.1,0.2-0.2,0.5c-0.1,0.2-0.2,0.4-0.2,0.6c0,0.2,0.2,0.3,0.6,0.3c0.3,0,0.5,0,0.6,0c1-0.1,1.6-0.2,1.6-0.4
			c0-0.1-0.1-0.3-0.4-0.5c-0.2-0.1-0.3-0.3-0.3-0.5c0-0.2-0.1-0.6-0.1-1.2l-0.1-1.4l0.6,0.1c0.3,0.1,0.5,0,0.6-0.2
			c0.1-0.2,0.3-0.3,0.6-0.3c0.3,0,0.4-0.1,0.5-0.1c0,0,0.1-0.2,0.1-0.5v-0.6l-2.5-0.1C194.8,788.6,194.5,788.6,194.2,788.6z"/>
		<path d="M228.8,785.7c-0.2-0.1-0.2-0.2-0.2-0.5c0-0.3,0-0.5-0.1-0.5c-0.1,0-0.1-0.1-0.1-0.4c0-0.3-0.1-0.4-0.2-0.4
			c-0.1,0-0.2-0.1-0.3-0.3c-0.1-0.2-0.2-0.3-0.3-0.4c-0.1-0.1-0.2-0.2-0.2-0.4c0-0.2-0.1-0.3-0.4-0.3c-0.7,0-1-0.1-1-0.4
			c0-0.1-0.1-0.2-0.2-0.2c-0.1,0-0.2,0-0.2-0.1s-0.1-0.1-0.3-0.1c-0.2,0-0.3-0.1-0.4-0.2c0-0.1-0.5-0.2-1.5-0.2
			c-0.9,0-1.5,0.1-1.6,0.2c-0.1,0.1-0.2,0.2-0.4,0.2c-0.2,0-0.3,0.1-0.4,0.3c-0.1,0.2-0.3,0.4-0.6,0.4c-0.3,0-0.6,0.1-1.1,0.2
			c-0.5,0.1-0.7,0.3-0.8,0.5c0,0.2-0.2,0.4-0.5,0.7s-0.4,0.5-0.4,0.5c0,0.1-0.1,0.1-0.2,0.1c-0.1,0-0.2,0.1-0.3,0.4
			c-0.1,0.2-0.2,0.5-0.3,0.7c-0.2,0.3-0.2,0.8-0.2,1.8c0,1.2,0.1,2.1,0.4,2.9c0.5,1.4,0.9,2.2,1.2,2.3c0.2,0,0.3,0.1,0.3,0.3
			c0,0.2,0.2,0.2,0.4,0.2c0.2,0,0.4,0,0.4,0.1c0,0.1,0.1,0.1,0.3,0.1s0.3,0.1,0.3,0.4c0,0.2,0,0.3,0.1,0.4c0.1,0.1,0.2,0,0.4-0.1
			c0.1-0.1,0.2-0.1,0.3,0c0.2,0.1,0.9,0.2,2.2,0.2c1.1,0,1.7-0.1,1.7-0.2c0-0.1,0.3-0.2,0.7-0.2c0.4,0,0.6-0.1,0.6-0.2
			c0-0.2,0.1-0.3,0.2-0.3c0,0,0.2-0.1,0.4-0.3c0.3-0.2,0.4-0.3,0.5-0.3c0.1,0,0.2-0.1,0.2-0.3c0.1-0.2,0.2-0.3,0.3-0.3
			c0.1,0,0.2-0.1,0.3-0.3c0-0.2,0.2-0.3,0.4-0.3c0.2-0.1,0.3-0.1,0.3-0.2c0-0.1,0.1-0.1,0.2-0.1c0.1,0,0.2-0.2,0.2-0.6
			c0-0.3,0-0.5-0.1-0.5c-0.1,0-0.1-0.1,0-0.2c0.1-0.1,0.2-0.8,0.2-2.1c0-0.3,0-0.7,0-1.1C229,786,229,785.7,228.8,785.7z
			 M226.6,788.8c-0.1,0-0.2,0.2-0.2,0.4c0,0.3-0.1,0.4-0.2,0.5c-0.1,0.1-0.2,0.4-0.3,0.8c-0.1,0.4-0.1,0.6-0.3,0.6
			c-0.1,0-0.2,0-0.2,0.1c0,0.1-0.1,0.2-0.4,0.2c-0.3,0.1-0.4,0.2-0.4,0.3c0,0.1,0,0.2-0.1,0.2c-0.1,0.1-0.2,0.1-0.4,0.2
			c-0.1,0.1-0.2,0.1-0.3,0.1c0,0.1-0.2,0.1-0.4,0.1c-0.2,0-0.3,0.1-0.5,0.2c-0.1,0.1-0.2,0.1-0.4,0.1c-0.2,0-0.4,0-0.7-0.1
			c-0.5-0.1-1-0.3-1.3-0.6c-0.3-0.3-0.7-0.8-1-1.5c-0.3-0.5-0.4-0.9-0.5-1.1c0-0.2-0.1-0.7-0.1-1.4c0-0.7,0-1.1,0.1-1.4
			c0-0.2,0.1-0.5,0.3-0.8c0.3-0.5,0.6-0.9,1-1.3c0.4-0.4,0.8-0.6,1-0.7c0.3,0,0.5-0.1,0.5-0.3c0-0.1,0.1-0.2,0.2-0.2
			c0.1,0,0.2,0,0.2-0.1c0-0.1,0.1-0.1,0.3-0.1c0.2,0,0.3,0,0.3,0.1c0,0.1,0.3,0.1,0.9,0.1c0.5,0,0.8,0.1,0.8,0.2
			c0,0.1,0.1,0.2,0.3,0.3c0.2,0.1,0.3,0.2,0.3,0.3c0,0.1,0.1,0.2,0.3,0.3c0.3,0.1,0.5,0.4,0.5,0.8c0,0.2,0.1,0.5,0.3,0.8
			c0.2,0.3,0.3,0.7,0.3,1.1c0,0.5,0,0.7,0.1,0.8c0.1,0.1,0.1,0.2,0.1,0.4C226.8,788.6,226.7,788.7,226.6,788.8z"/>
		<path d="M246.6,783.9c0-0.3-0.1-0.5-0.2-0.6c-0.1-0.1-0.1-0.2,0-0.4c0.1-0.1,0.1-0.2,0.1-0.2c0-0.1-0.1-0.2-0.2-0.2
			s-0.2-0.2-0.2-0.3c0-0.2-0.1-0.3-0.3-0.5c-0.2-0.2-0.4-0.3-0.5-0.3c-0.1,0-0.2,0-0.2,0.1c0,0.1-0.3,0.1-0.9,0.2
			c-0.5,0.1-1.1,0.1-1.7,0.1c-0.6,0-0.9,0-1,0.1c-0.1,0-0.5,0.1-1.4,0.1c-0.9,0.1-1.8,0.2-2.7,0.3c-0.9,0.1-1.4,0.2-1.4,0.2
			c0,0,0,0.1,0,0.2c0,0.1,0,0.2,0.1,0.3c0.1,0.2,0.1,0.3,0.2,0.4c0.1,0,0.3,0.1,0.6,0.1c0.5,0,0.9,0.1,1,0.3
			c0.1,0.2,0.2,0.7,0.2,1.6c0,0.9-0.1,1.4-0.2,1.5c-0.1,0.1-0.1,0.2,0,0.4c0.1,0.3,0.2,0.5,0,0.7c-0.1,0.2-0.2,0.3-0.3,0.3
			c-0.1,0,0,0.1,0.1,0.2c0.1,0.1,0.1,0.3,0.1,0.6c0,0.1,0,0.4-0.1,0.8c-0.1,1.4-0.2,2.3-0.2,2.6c-0.1,0.4-0.1,0.5-0.3,0.6
			c-0.2,0.1-0.5,0.3-0.8,0.6l-0.5,0.6h5v-0.5c0-0.2,0-0.4-0.1-0.4c0-0.1-0.1-0.1-0.3-0.1c-0.2,0-0.4,0-0.4-0.1
			c0-0.1-0.1-0.1-0.2-0.1c-0.1,0-0.2-0.1-0.3-0.3c0-0.1,0-0.4,0-1.2c0-1.2,0-2.1,0.1-2.8c0-0.1,0.5-0.1,1.4-0.1
			c0.8,0,1.3,0.1,1.5,0.2c0.3,0.1,0.4,0.4,0.4,0.9c0,0.3,0,0.5,0.1,0.5c0.1,0,0.1-0.1,0.3-0.2c0.1-0.1,0.3-0.2,0.5-0.1
			c0.2,0.1,0.3,0,0.3-0.2c0-0.2,0-0.3,0.1-0.4c0.1-0.1,0.1-0.2,0-0.2c-0.1-0.1-0.2-0.3-0.2-0.6c0-0.4,0.1-0.7,0.2-0.8
			c0.1-0.1,0.1-0.1,0.1-0.2c0-0.1,0-0.1-0.1-0.2c-0.1-0.1-0.1-0.2-0.1-0.2c0-0.1,0-0.1,0.1-0.2c0.2-0.1,0.2-0.2,0.2-0.4
			c0-0.3-0.4-0.4-1.1-0.4c-0.4,0-0.6,0.2-0.6,0.5c0,0.1,0,0.2,0.1,0.3c0.1,0.2,0,0.4,0,0.5c-0.1,0.1-0.4,0.2-1,0.3
			c-0.6,0.1-1.1,0.2-1.6,0.2h-0.5v-0.6c0-0.4,0.1-0.6,0.2-0.7c0.1-0.1,0.2-0.2,0.2-0.4c0-0.3-0.1-0.5-0.2-0.8
			c-0.1-0.2-0.2-0.4-0.2-0.4c0-0.1,0.1-0.1,0.2-0.3c0.2-0.2,0.3-0.4,0.2-0.6c0-0.1,0-0.1,0-0.2c0-0.1,0.1-0.2,0.4-0.3
			c0.3-0.1,0.8-0.1,1.6-0.1c0.7,0,1.1-0.1,1.1-0.1c0.3,0,0.5,0.1,0.7,0.2c0.2,0.2,0.3,0.3,0.5,0.4c0.2,0.1,0.3,0.2,0.3,0.3
			c0,0.1,0.1,0.3,0.3,0.4c0.2,0.1,0.4,0.3,0.5,0.6c0.1,0.4,0.4,0.5,0.8,0.5c0.1,0,0.2,0,0.3-0.1c0.1-0.1,0.2-0.2,0.2-0.6
			c0-0.3-0.1-0.5-0.2-0.5C246.6,784.4,246.6,784.2,246.6,783.9z"/>
		<path d="M269.2,789.7c0-0.1,0-0.2-0.1-0.2c-0.1,0-0.1,0-0.1,0.1l0.1,0.2C269.1,789.9,269.2,789.9,269.2,789.7z"/>
		<path d="M275,790.5c0-0.6-0.1-0.9-0.2-1.1c-0.1-0.2-0.3-0.4-0.6-0.5c-0.3-0.1-0.5-0.3-0.5-0.4c-0.1-0.1-0.3-0.3-0.9-0.6
			c-0.5-0.3-1-0.5-1.3-0.6c-0.2-0.1-0.5-0.2-0.9-0.5c-0.4-0.3-0.6-0.4-0.6-0.5c0-0.1-0.1-0.2-0.2-0.3c-0.2-0.1-0.2-0.2-0.2-0.3
			c0,0,0-0.1,0-0.1c0.1-0.1,0.1-0.2,0.1-0.3s0-0.3-0.1-0.6c0-0.1,0-0.2,0-0.2c0,0,0.2-0.1,0.3-0.1c0.3,0,0.4-0.1,0.4-0.2
			c0-0.1,0.1-0.2,0.4-0.4c0.3-0.2,0.4-0.3,0.4-0.3c0-0.1,0.1-0.1,0.4-0.2c0.1,0,0.1,0,0.2,0c0.4,0,0.8,0.2,1.2,0.5
			c0.5,0.3,0.7,0.6,0.7,0.9c0,0.2,0.1,0.4,0.3,0.5c0.2,0.1,0.3,0.3,0.3,0.4c0,0.1,0.1,0.3,0.2,0.5s0.3,0.3,0.4,0.3c0,0,0,0,0.1,0
			c0.1-0.1,0.1-0.7,0.2-2v-0.8c0-0.6-0.1-0.9-0.2-0.9c-0.1,0-0.1,0-0.1,0c-0.3,0.1-0.6,0.2-0.8,0.2c-0.3,0-0.6-0.1-1-0.3
			c-0.4-0.2-0.6-0.3-0.7-0.3c0,0-0.1,0-0.2,0.1c-0.3,0.1-0.6,0.1-0.8,0.1c-0.3,0-0.4,0-0.5,0.1c0,0.1-0.1,0.2-0.3,0.2
			c-0.2,0-0.4-0.1-0.5-0.2c-0.1-0.1-0.3-0.2-0.5-0.2h0c-0.1,0-0.1,0-0.1,0c-0.1,0-0.1,0-0.1,0c0,0,0.1,0,0.1,0
			c0.1,0.1,0.2,0.1,0.2,0.2c0,0.2-0.2,0.3-0.5,0.4c-0.3,0.1-0.4,0.2-0.4,0.4c0.1,0.2,0,0.3-0.2,0.4c-0.3,0.1-0.6,0.5-1.1,1.1
			c-0.1,0.2-0.2,0.4-0.2,0.6c0,0,0,0.3,0.1,0.8c0.1,0.7,0.3,1.1,0.4,1.3c0.1,0.2,0.4,0.4,0.7,0.7c0.4,0.3,0.6,0.4,0.8,0.4
			c0.1,0,0.3,0.1,0.6,0.4c0.4,0.3,0.9,0.6,1.7,0.8c0.5,0.1,0.8,0.3,1.1,0.6c0.2,0.2,0.3,0.4,0.5,0.7c0.1,0.3,0.2,0.5,0.2,0.7
			c0,0.1,0,0.1-0.1,0.2c-0.1,0-0.1,0.2-0.1,0.4c0.1,0.2,0,0.4-0.2,0.6c-0.1,0.1-0.2,0.3-0.2,0.4c0,0.2-0.5,0.4-1.4,0.5
			c-0.1,0-0.3,0-0.6,0c-0.9,0-1.7-0.4-2.2-1.2c-0.3-0.4-0.5-0.8-0.5-1c0,0,0-0.1,0-0.2c0-0.1,0-0.2,0-0.2c0,0-0.1-0.1-0.1-0.1
			c-0.1,0-0.1,0-0.1-0.1c0.1-0.3-0.1-0.5-0.4-0.6c-0.1,0-0.2-0.1-0.3-0.1c-0.3,0-0.4,0.2-0.5,0.5c-0.1,1.2-0.1,1.9-0.2,1.9
			c-0.1,0.1-0.1,0.4-0.2,0.8c0,0.1,0,0.3,0,0.4c0,0.2,0.1,0.4,0.3,0.6c0.1,0.1,0.2,0.2,0.3,0.2c0,0,0.1,0,0.2-0.2
			c0.1-0.2,0.2-0.3,0.2-0.4c0-0.3,0.2-0.3,0.5-0.1c0.9,0.5,1.8,0.7,2.9,0.7c0.5,0,1.1-0.1,1.6-0.2c0.6-0.1,1.1-0.3,1.4-0.6
			c0.3-0.3,0.5-0.5,0.5-0.5c0-0.1,0.1-0.2,0.2-0.3c0.2-0.1,0.3-0.4,0.3-0.9c0.1-0.5,0.1-0.7,0.2-0.7c0.1,0,0.1,0,0-0.1
			S275.1,791.2,275,790.5z M270.7,788.9C270.6,788.9,270.6,788.9,270.7,788.9c-0.1-0.1-0.1-0.1,0-0.1S270.7,788.8,270.7,788.9
			C270.7,788.9,270.7,788.9,270.7,788.9z"/>
		<path d="M297.8,782.4c-0.1,0-0.3,0-0.5,0c-0.2,0-0.4,0-0.4,0c-0.4,0-0.6,0-0.7,0.1c-0.1,0-0.3,0.1-0.4,0.3
			c-0.2,0.2-0.3,0.3-0.3,0.4c0,0.1,0,0.1,0.2,0.2c0.3,0.2,0.5,0.2,0.7,0.2c0.3,0,0.4,0.1,0.5,0.3c0.1,0.2,0,0.3-0.1,0.4
			c-0.1,0-0.2,0.2-0.2,0.6c0,0.4-0.1,0.6-0.2,0.6c-0.2,0.1-0.2,0.2-0.2,0.4v0.4c0,0.6-0.1,0.9-0.3,0.9c-0.1,0-0.2,0.1-0.3,0.3
			c0,0.2-0.1,0.7-0.3,1.5c-0.1,0.4-0.2,0.6-0.4,0.6c-0.1,0-0.2,0.1-0.2,0.2c0,0.1,0,0.2-0.2,0.2c-0.3,0-0.4-0.1-0.5-0.2
			c-0.1-0.2-0.2-0.5-0.3-0.9c-0.1-0.4-0.2-1-0.2-1.7c-0.1-0.5-0.2-0.8-0.3-0.9c-0.1-0.1-0.1-0.4-0.1-0.7c0-0.3,0-0.5-0.1-0.5
			c-0.1,0-0.1-0.1-0.1-0.4c0-0.2-0.1-0.4-0.2-0.5c-0.1-0.1-0.2-0.1-0.2-0.2c0-0.1,0.2-0.2,0.6-0.2c0.4,0,0.7-0.1,0.9-0.3
			c0.1-0.1,0.2-0.2,0.2-0.3c0-0.1,0-0.2-0.1-0.4c-0.1-0.2-0.3-0.4-0.6-0.5c-0.3-0.1-0.8-0.1-1.6-0.1c-0.6,0-1-0.1-1-0.3
			c-0.1-0.2-0.1-0.3-0.2-0.3c-0.1,0-0.2,0.1-0.5,0.3c-0.3,0.2-0.4,0.3-0.5,0.3c-0.3,0-0.5,0.2-0.6,0.6v0.1l0,0.1
			c0,0.3,0.3,0.6,0.9,0.7c0.1,0,0.3,0.1,0.4,0.1c0.1,0.1,0.1,0.2,0.1,0.2s-0.1,0.1-0.2,0.1c-0.1,0-0.1,0.2-0.1,0.6
			c0,0.4-0.1,0.6-0.2,0.6c-0.1,0-0.1,0.2-0.1,0.5c0,0.7-0.2,1.1-0.5,1.2c-0.1,0-0.2,0.1-0.3,0.3c-0.1,0.2-0.1,0.7-0.3,1.5
			c-0.1,0.4-0.2,0.6-0.4,0.6c-0.2,0-0.2,0.1-0.2,0.2c0,0.1,0,0.2-0.2,0.2c-0.3,0-0.5-0.1-0.6-0.2c-0.1-0.2-0.2-0.5-0.2-0.9
			c0-0.6-0.1-0.9-0.2-1c-0.1-0.1-0.1-0.3-0.1-0.6c0-0.4-0.1-0.7-0.2-0.9c-0.1-0.3-0.2-0.5-0.1-0.8c0-0.3,0-0.5-0.1-0.5
			c-0.1,0-0.2-0.1-0.2-0.4c0-0.2-0.1-0.4-0.2-0.5c-0.1-0.1-0.2-0.1-0.2-0.2c0-0.1,0.2-0.2,0.6-0.2c0.4,0,0.7-0.1,0.9-0.3
			c0.1-0.1,0.2-0.2,0.2-0.3c0-0.1-0.1-0.2-0.2-0.4c-0.1-0.2-0.2-0.3-0.4-0.4c-0.2-0.1-0.5-0.1-0.9-0.1c-0.1,0-0.2,0-0.4,0
			c-0.2,0-0.4,0-0.5,0h-0.4c-0.3,0-0.4,0-0.5-0.1c-0.1,0-0.1-0.1-0.2-0.3c-0.1-0.2-0.1-0.4-0.3-0.4c-0.1,0-0.2,0.1-0.5,0.3
			c-0.2,0.2-0.4,0.3-0.5,0.3c-0.1,0-0.3,0.1-0.4,0.2c-0.1,0.1-0.2,0.3-0.2,0.4c0,0.4,0.3,0.7,0.9,0.8c0.5,0.1,0.9,0.6,1,1.6
			c0.1,0.4,0.2,0.6,0.3,0.8c0.1,0.1,0.2,0.4,0.2,0.7c0,0.3,0.1,0.5,0.2,0.6c0.4,0.4,0.5,1.1,0.5,1.9c0,0.4,0,0.6,0.1,0.7
			c0.1,0.1,0.1,0.2,0.1,0.4c0,0.2,0,0.3,0.1,0.4c0.1,0.1,0.2,0.3,0.2,0.8c0,0.4,0.1,0.6,0.2,0.6c0.1,0,0.2,0.2,0.2,0.5
			c0,0.3,0.1,0.5,0.2,0.5c0.1,0,0.2,0.1,0.3,0.4c0.1,0.3,0.3,0.5,0.6,0.5c0.1,0,0.3-0.1,0.4-0.2c0.1-0.1,0.2-0.3,0.2-0.4
			c0-0.3,0-0.4,0.1-0.4c0.1,0,0.2-0.1,0.2-0.4c0-0.3,0-0.5,0.1-0.5c0.1,0,0.2-0.2,0.2-0.5c0-0.3,0.1-0.6,0.3-0.9
			c0.2-0.3,0.4-0.5,0.6-0.6c0.2-0.1,0.3-0.3,0.3-0.6c0-0.4,0.1-0.6,0.2-0.6c0.1,0,0.2-0.2,0.2-0.5c0-0.3,0.1-0.6,0.2-0.8
			c0.1-0.2,0.2-0.4,0.1-0.5c-0.1-0.2,0.1-0.3,0.4-0.4c0.3-0.1,0.4-0.2,0.5-0.3c0.1,0,0.1,0.1,0.1,0.4c0,0.4,0.1,0.6,0.2,0.8
			c0.4,0.5,0.6,1.1,0.6,1.9c0,0.4,0,0.6,0.1,0.6c0.1,0,0.1,0.1,0.1,0.4c-0.1,0.2,0,0.4,0.1,0.5c0.1,0.1,0.2,0.3,0.2,0.8
			c0,0.4,0.1,0.6,0.2,0.6c0.2,0,0.2,0.2,0.2,0.5c0,0.3,0.1,0.5,0.2,0.5c0.1,0,0.2,0.1,0.3,0.4c0.1,0.3,0.3,0.5,0.6,0.5
			c0.1,0,0.3-0.1,0.4-0.2c0.1-0.1,0.2-0.3,0.2-0.4c0-0.3,0.1-0.4,0.2-0.4c0.1,0,0.1-0.1,0.1-0.4c0-0.3,0-0.5,0.1-0.5
			c0.1,0,0.2-0.2,0.2-0.5c0-0.3,0.1-0.6,0.3-1c0.2-0.4,0.4-0.6,0.5-0.6c0.1,0,0.2-0.2,0.2-0.6c0-0.5,0.1-0.7,0.2-0.7
			c0.1,0,0.2-0.2,0.2-0.5c0-0.3,0.1-0.6,0.2-0.8c0.1-0.2,0.2-0.4,0.2-0.6c0-0.1,0.1-0.2,0.4-0.3c0.3-0.1,0.4-0.2,0.4-0.3
			c0-0.1,0-0.1,0-0.2c0-0.1,0-0.1,0-0.2c0-0.6,0.1-0.9,0.3-0.9c0.1,0,0.1-0.1,0.2-0.4c0-0.3,0.1-0.4,0.2-0.4c0.1,0,0.2-0.1,0.2-0.2
			c0-0.1,0.1-0.2,0.4-0.2c0.3,0,0.5-0.1,0.6-0.2c0.1-0.1,0.2-0.3,0.2-0.6l0-0.4L297.8,782.4z"/>
		<path d="M318.8,785.7c-0.2-0.1-0.2-0.2-0.2-0.5c0-0.3,0-0.5-0.1-0.5c-0.1,0-0.1-0.1-0.1-0.4c0-0.3-0.1-0.4-0.2-0.4
			c-0.1,0-0.2-0.1-0.3-0.3c-0.1-0.2-0.2-0.3-0.3-0.4c-0.1-0.1-0.2-0.2-0.2-0.4c0-0.2-0.1-0.3-0.4-0.3c-0.7,0-1-0.1-1-0.4
			c0-0.1-0.1-0.2-0.2-0.2c-0.1,0-0.2,0-0.2-0.1s-0.1-0.1-0.3-0.1c-0.2,0-0.3-0.1-0.4-0.2c0-0.1-0.5-0.2-1.5-0.2
			c-0.9,0-1.5,0.1-1.6,0.2c-0.1,0.1-0.2,0.2-0.4,0.2c-0.2,0-0.3,0.1-0.4,0.3c-0.1,0.2-0.3,0.4-0.6,0.4c-0.3,0-0.6,0.1-1.1,0.2
			c-0.5,0.1-0.7,0.3-0.8,0.5c0,0.2-0.2,0.4-0.5,0.7c-0.3,0.3-0.4,0.5-0.4,0.5c0,0.1-0.1,0.1-0.2,0.1c-0.1,0-0.2,0.1-0.3,0.4
			c-0.1,0.2-0.2,0.5-0.3,0.7c-0.2,0.3-0.2,0.8-0.2,1.8c0,1.2,0.1,2.1,0.4,2.9c0.5,1.4,0.9,2.2,1.2,2.3c0.2,0,0.3,0.1,0.3,0.3
			c0,0.2,0.2,0.2,0.4,0.2c0.2,0,0.4,0,0.4,0.1c0,0.1,0.1,0.1,0.3,0.1c0.2,0,0.3,0.1,0.3,0.4c0,0.2,0,0.3,0.1,0.4
			c0.1,0.1,0.2,0,0.4-0.1c0.1-0.1,0.2-0.1,0.3,0c0.2,0.1,0.9,0.2,2.2,0.2c1.1,0,1.7-0.1,1.7-0.2c0-0.1,0.3-0.2,0.7-0.2
			c0.4,0,0.6-0.1,0.6-0.2c0-0.2,0.1-0.3,0.2-0.3c0,0,0.2-0.1,0.4-0.3c0.3-0.2,0.4-0.3,0.5-0.3c0.1,0,0.2-0.1,0.2-0.3
			c0.1-0.2,0.2-0.3,0.3-0.3c0.1,0,0.2-0.1,0.3-0.3c0-0.2,0.2-0.3,0.4-0.3c0.2-0.1,0.3-0.1,0.3-0.2c0-0.1,0.1-0.1,0.2-0.1
			c0.1,0,0.2-0.2,0.2-0.6c0-0.3,0-0.5-0.1-0.5c-0.1,0-0.1-0.1,0-0.2c0.1-0.1,0.2-0.8,0.2-2.1c0-0.3,0-0.7,0-1.1
			C319,786,319,785.7,318.8,785.7z M316.6,788.8c-0.1,0-0.2,0.2-0.2,0.4c0,0.3-0.1,0.4-0.2,0.5c-0.1,0.1-0.2,0.4-0.3,0.8
			c-0.1,0.4-0.1,0.6-0.3,0.6c-0.1,0-0.2,0-0.2,0.1c0,0.1-0.1,0.2-0.4,0.2c-0.3,0.1-0.4,0.2-0.4,0.3c0,0.1,0,0.2-0.1,0.2
			c-0.1,0.1-0.2,0.1-0.4,0.2c-0.1,0.1-0.2,0.1-0.3,0.1c0,0.1-0.2,0.1-0.4,0.1c-0.2,0-0.3,0.1-0.5,0.2c-0.1,0.1-0.2,0.1-0.4,0.1
			c-0.2,0-0.4,0-0.7-0.1c-0.5-0.1-1-0.3-1.3-0.6c-0.3-0.3-0.7-0.8-1-1.5c-0.3-0.5-0.4-0.9-0.5-1.1c0-0.2-0.1-0.7-0.1-1.4
			c0-0.7,0-1.1,0.1-1.4c0-0.2,0.1-0.5,0.3-0.8c0.3-0.5,0.6-0.9,1-1.3c0.4-0.4,0.8-0.6,1-0.7c0.3,0,0.5-0.1,0.5-0.3
			c0-0.1,0.1-0.2,0.2-0.2c0.1,0,0.2,0,0.2-0.1c0-0.1,0.1-0.1,0.3-0.1c0.2,0,0.3,0,0.3,0.1c0,0.1,0.3,0.1,0.9,0.1
			c0.5,0,0.8,0.1,0.8,0.2c0,0.1,0.1,0.2,0.3,0.3c0.2,0.1,0.3,0.2,0.3,0.3c0,0.1,0.1,0.2,0.3,0.3c0.3,0.1,0.5,0.4,0.5,0.8
			c0,0.2,0.1,0.5,0.3,0.8c0.2,0.3,0.3,0.7,0.3,1.1c0,0.5,0,0.7,0.1,0.8c0.1,0.1,0.1,0.2,0.1,0.4
			C316.8,788.6,316.7,788.7,316.6,788.8z"/>
		<path d="M332.4,780.4C332.5,780.3,332.5,780.3,332.4,780.4c0.1-0.1,0-0.1-0.2-0.1c-0.2,0-0.3,0.1-0.3,0.2
			C332,780.5,332.1,780.5,332.4,780.4C332.3,780.4,332.4,780.4,332.4,780.4z"/>
		<path d="M339.3,792.7c-0.1,0-0.2-0.1-0.3-0.4c-0.1-0.2-0.3-0.4-0.5-0.4c-0.2,0-0.4-0.1-0.6-0.2c-0.2-0.1-0.4-0.2-0.4-0.4
			c-0.1-0.1-0.1-0.2-0.3-0.2c-0.1,0-0.3-0.1-0.6-0.4c-0.2-0.3-0.4-0.6-0.6-0.9c-0.1-0.3-0.4-0.6-0.8-1.1c-0.4-0.5-0.7-0.7-0.8-0.7
			c-0.1,0-0.2-0.1-0.4-0.3c-0.1-0.1-0.2-0.2-0.1-0.3c0,0,0.1-0.1,0.3-0.2c0.8-0.3,1.2-0.6,1.2-0.9c0-0.5,0.1-0.7,0.3-0.7
			c0.1,0,0.2-0.1,0.4-0.2c0.2-0.2,0.2-0.7,0.2-1.5c0-1-0.1-1.5-0.3-1.7c-0.1-0.1-0.2-0.2-0.4-0.2c-0.1,0-0.2,0-0.2-0.1
			c0-0.1-0.1-0.2-0.4-0.3c-0.3-0.1-0.4-0.3-0.5-0.5l-0.2-0.3c-0.1-0.1-0.2-0.1-0.2,0.1c0,0.1-0.3,0.1-0.8,0.1c-0.6,0-0.9,0-0.9-0.1
			c0-0.1-0.1-0.1-0.4-0.1s-0.5-0.1-0.6-0.3c-0.2-0.2-0.3-0.3-0.4-0.3c-0.1,0-0.2,0.1-0.1,0.3c0,0,0,0,0,0.1v0.1
			c0,0.1-0.6,0.2-1.8,0.2h-1.9l-0.5,0.5c-0.3,0.3-0.5,0.6-0.5,0.7c0,0.1,0.2,0.2,0.5,0.3c0.3,0.1,0.5,0.1,0.5,0.2
			c0,0.1,0,0.1,0.1,0.1c0.2,0,0.4,0.2,0.6,0.5c0.2,0.3,0.3,0.7,0.3,1.2c0,0.4,0.1,0.6,0.1,0.6c0,0.2-0.1,0.4-0.2,0.5
			c-0.2,0.1-0.2,0.2-0.1,0.3c0.1,0.1,0.2,0.3,0.2,0.7c0,0.3-0.1,0.5-0.2,0.5c-0.1,0-0.2,0,0,0.1c0.1,0.1,0.2,0.2,0.2,0.4
			c0,0.2-0.1,0.4-0.2,0.5c-0.1,0.1-0.1,0.3,0.1,0.4c0.1,0.1,0.2,0.3,0.2,0.4c0,0.1-0.1,0.3-0.2,0.4c-0.2,0.2-0.3,0.7-0.3,1.6
			c0,0.7,0,1.1-0.1,1.2c0,0.1-0.1,0.2-0.3,0.3c-0.2,0.1-0.3,0.1-0.3,0.2c0,0.1-0.3,0.1-0.8,0.1c-0.4,0-0.6,0.1-0.7,0.1
			c-0.1,0.1-0.1,0.2-0.1,0.5c0,0.2,0.2,0.5,0.6,0.8c0.2,0.1,0.3,0.2,0.5,0.2c0.2,0,0.3-0.1,0.3-0.2c0.1-0.1,0.8-0.2,2.1-0.2
			c1.3,0,2.1-0.1,2.2-0.3c0.1-0.1,0.2-0.2,0.3-0.2c0.1,0,0.2-0.1,0.2-0.2c0-0.1-0.1-0.2-0.4-0.2c-0.3,0-0.4-0.1-0.5-0.3
			c0-0.2-0.2-0.3-0.5-0.4c-0.4-0.1-0.5-0.2-0.5-0.4c0-0.1,0-0.2,0.1-0.3c0.2-0.2,0.2-0.3,0.1-0.4c-0.1,0-0.2-0.6-0.2-1.6
			c0-0.3,0-0.6,0-1c0-0.3,0-0.4,0.1-0.5c0-0.1,0.1-0.1,0.2-0.1c0.5,0,1,0.2,1.5,0.5c0.5,0.4,0.8,0.7,0.8,1c0,0.2,0.1,0.3,0.2,0.3
			s0.2,0.1,0.2,0.4c0,0.5,0.3,0.8,0.8,1c0.2,0.1,0.4,0.3,0.5,0.7c0.1,0.4,0.3,0.8,0.7,1.2l0.6,0.7l0.9-0.1c0.1,0,0.3,0,0.6-0.1
			c0.3,0,0.6,0,0.8-0.1c0.2,0,0.4-0.1,0.7-0.1c0.3-0.1,0.4-0.1,0.6-0.2c0.1-0.1,0.2-0.2,0.2-0.3
			C339.4,792.8,339.4,792.7,339.3,792.7z M333.7,785.9c-0.1,0-0.2,0-0.2,0.1c-0.1,0-0.1,0,0,0.1c0.2,0,0.2,0.1,0.2,0.2
			c0,0.1-0.1,0.3-0.4,0.4c-0.2,0.2-0.5,0.3-0.7,0.3c-0.3,0-0.6,0.1-1.1,0.2c-0.1,0-0.2,0-0.3,0c-0.2,0-0.4-0.1-0.7-0.3
			c-0.2-0.2-0.3-0.3-0.4-0.3c0-0.1,0-0.1,0.1-0.2c0.1-0.1,0.2-0.7,0.2-1.6v-1.2c0-0.3,0.1-0.5,0.2-0.7c0.1-0.2,0.3-0.4,0.4-0.4h0.1
			l0.4,0.1c0.3,0,0.5,0.1,0.8,0.1c0.2,0.1,0.4,0.1,0.4,0.1c0,0.1,0.1,0.1,0.4,0.2c0.3,0.1,0.4,0.2,0.4,0.3c0,0.1,0.1,0.3,0.2,0.4
			c0.1,0.1,0.2,0.2,0.1,0.3c-0.1,0.1-0.1,0.3,0.1,0.6c0.1,0.2,0.2,0.5,0.2,0.8v0.1c0,0.2-0.1,0.4-0.1,0.4S333.9,785.9,333.7,785.9z"
			/>
		<path d="M328,779.4c0-0.1-0.1-0.1-0.3-0.1c-0.2,0-0.3,0-0.3,0.1c0,0.1,0.1,0.2,0.3,0.2C327.9,779.5,328,779.5,328,779.4z"/>
		<path d="M358.6,785.5c0-0.2-0.1-0.3-0.2-0.5c-0.2-0.2-0.3-0.3-0.4-0.3c-0.1,0-0.2-0.1-0.2-0.2c0-0.1-0.1-0.3-0.3-0.6
			c-0.2-0.2-0.3-0.3-0.4-0.3c-0.1,0-0.2-0.1-0.2-0.2c0-0.1-0.1-0.2-0.3-0.3c-0.2-0.1-0.3-0.1-0.3-0.2c0-0.1-0.1-0.1-0.4-0.1
			c-0.2,0-0.3-0.1-0.6-0.2c-0.2-0.1-0.4-0.2-0.5-0.2c-0.2,0-0.3,0-0.3-0.1s-0.1-0.1-0.4-0.1c-0.2,0-0.3,0-0.4-0.1
			c-0.1-0.1-0.2-0.1-0.2-0.1c-0.1,0-0.2,0-0.4,0.1c-0.3,0.1-0.6,0.2-1,0.2c-0.2,0-0.4,0-0.4-0.1c-0.1,0-0.1-0.1-0.1-0.2
			c0-0.2-0.1-0.3-0.2-0.3c-0.1,0-0.2,0-0.3,0.2c-0.1,0.1-0.1,0.1-0.2,0c-0.2-0.3-0.3-0.2-0.4,0.1c-0.1,0.2-0.2,0.3-0.4,0.2
			c-0.2-0.1-0.5-0.2-1-0.2c-0.4,0-0.7-0.1-0.8-0.2c0-0.1-0.1-0.1-0.3,0.1c-0.2,0.1-0.3,0.1-0.3,0c-0.1-0.1-0.2-0.2-0.5-0.2
			c-0.2,0-0.4,0-0.4,0.1s-0.1,0.1-0.3,0.1c-0.1,0-0.2,0-0.2,0.1c0,0.1-0.1,0.3-0.1,0.5c0,0.3,0,0.5,0.1,0.6c0,0.1,0.2,0.2,0.3,0.3
			c0.2,0.1,0.3,0.1,0.4,0.1c0,0,0.1,0,0.1,0c0.1,0,0.1,0,0.1,0c0.1,0,0.2,0,0.3,0.1c0.2,0.1,0.4,0.4,0.4,0.8c0,0.4,0,0.6-0.1,0.6
			c-0.1,0-0.1,0.3-0.1,0.9c0,0.6,0,0.8,0.1,0.8c0.1,0,0.1,0.1,0.1,0.4c0,0.2,0,0.4-0.1,0.5c-0.1,0.1-0.1,1-0.2,2.8l-0.1,2.7l-0.5,0
			c-0.4,0-0.6,0.2-0.8,0.4c-0.2,0.2-0.3,0.4-0.3,0.5c0,0.1,0.1,0.2,0.4,0.4c0.3,0.2,0.5,0.2,0.7,0.2c0.1,0,0.2,0,0.2-0.1
			c0-0.1,0.3-0.1,0.8-0.1c0.5,0,0.8,0,0.8,0.1c0,0.1,0.9,0.2,2.6,0.2c1.1,0,1.7,0,1.8-0.1c0.1-0.1,0.4-0.2,0.7-0.2
			c0.4-0.1,0.8-0.2,1.3-0.5c0.5-0.2,0.8-0.4,1-0.4c0.2,0,0.3-0.1,0.4-0.4c0.1-0.3,0.3-0.6,0.7-1.1c0.4-0.4,0.6-0.7,0.6-0.8
			c0-0.1,0-0.2,0.1-0.2c0.1,0,0.1-0.1,0.1-0.3c0-0.2,0.1-0.4,0.2-0.5c0.1-0.1,0.1-0.8,0.1-2c0-1.4-0.1-2.1-0.2-2.2
			C358.7,785.8,358.6,785.7,358.6,785.5z M356.5,789.7c-0.1,0.1-0.2,0.2-0.2,0.5c0,0.3-0.1,0.5-0.2,0.6c-0.3,0.3-0.5,0.6-0.6,1
			c-0.1,0.2-0.1,0.2-0.2,0.2c-0.1,0-0.3,0.2-0.7,0.5c-0.4,0.3-0.7,0.5-0.9,0.5c-0.2,0-0.3,0.1-0.4,0.2c-0.1,0.1-0.1,0.1-0.2,0
			c-0.1-0.1-0.1-0.2-0.3-0.2c-0.1,0-0.2,0.1-0.3,0.2c0,0.1-0.3,0.1-0.9,0.1c-0.6,0-1.1,0-1.6,0c-0.2,0-0.2-0.1-0.2-0.4
			s-0.1-0.4-0.2-0.4s-0.2,0-0.2-0.1c0-0.1,0.1-0.1,0.2-0.2c0.1-0.1,0.2-0.2,0.2-0.3c0-0.1,0.1-0.2,0.2-0.2c0.1,0,0.1-0.1,0.2-0.4
			c0.1-0.2,0.1-0.5,0.1-0.8c0-0.1,0-0.3-0.1-0.5c0,0,0,0,0-0.1c0,0,0-0.1,0-0.1c0-0.2,0.1-0.4,0.2-0.6l0.2-0.4c0,0-0.1-0.1-0.2-0.1
			c-0.1,0-0.2-0.3-0.2-0.8c0-0.5,0-1,0-1.5c0-1.4,0.1-2.2,0.1-2.4c0-0.3,0.1-0.5,0.4-0.8c0.2-0.2,0.4-0.3,0.6-0.3c0.1,0,0.2,0,0.3,0
			c0.1,0,0.3,0,0.7,0.1c0.4,0,0.7,0.1,1,0.1c0.3,0.1,0.4,0.1,0.5,0.2c0.1,0.1,0.2,0.2,0.4,0.2c0.2,0,0.4,0.1,0.4,0.3
			c0.1,0.2,0.2,0.3,0.3,0.3c0.2,0,0.2,0,0.2,0.1s0.1,0.2,0.3,0.2c0.2,0.1,0.3,0.2,0.3,0.3c0,0.1,0.1,0.3,0.2,0.4
			c0.1,0.1,0.2,0.4,0.3,0.9c0,0.4,0.1,0.7,0.2,0.8c0.1,0.1,0.1,0.5,0.1,1.3S356.6,789.7,356.5,789.7z"/>
		<path d="M374.3,789.5c0-0.6-0.1-0.9-0.2-1.1c-0.1-0.2-0.3-0.4-0.6-0.5c-0.3-0.1-0.5-0.3-0.5-0.4c-0.1-0.1-0.3-0.3-0.9-0.6
			c-0.5-0.3-1-0.5-1.3-0.6c-0.2-0.1-0.5-0.2-0.9-0.5c-0.4-0.3-0.6-0.4-0.6-0.5c0-0.1-0.1-0.2-0.2-0.3c-0.2-0.1-0.2-0.2-0.2-0.3
			c0,0,0-0.1,0-0.1c0.1-0.1,0.1-0.2,0.1-0.3c0-0.1,0-0.3-0.1-0.6c0-0.1,0-0.2,0-0.2c0,0,0.2-0.1,0.3-0.1c0.3,0,0.4-0.1,0.4-0.2
			c0-0.1,0.1-0.2,0.4-0.4c0.3-0.2,0.4-0.3,0.4-0.3c0-0.1,0.1-0.1,0.4-0.2c0.1,0,0.1,0,0.2,0c0.4,0,0.8,0.2,1.2,0.5
			c0.5,0.3,0.7,0.6,0.7,0.9c0,0.2,0.1,0.4,0.3,0.5c0.2,0.1,0.3,0.3,0.3,0.4s0.1,0.3,0.2,0.5c0.2,0.2,0.3,0.3,0.4,0.3c0,0,0,0,0.1,0
			c0.1-0.1,0.1-0.7,0.2-2v-0.8c0-0.6-0.1-0.9-0.2-0.9c-0.1,0-0.1,0-0.1,0c-0.3,0.1-0.6,0.2-0.8,0.2c-0.3,0-0.6-0.1-1-0.3
			c-0.4-0.2-0.6-0.3-0.7-0.3c0,0-0.1,0-0.2,0.1c-0.3,0.1-0.6,0.1-0.8,0.1c-0.3,0-0.4,0-0.5,0.1c0,0.1-0.1,0.2-0.3,0.2
			c-0.2,0-0.4-0.1-0.5-0.2c-0.1-0.1-0.3-0.2-0.5-0.2h0c-0.1,0-0.1,0-0.1,0c-0.1,0-0.1,0-0.1,0c0,0,0.1,0,0.1,0
			c0.1,0.1,0.2,0.1,0.2,0.2c0,0.2-0.2,0.3-0.5,0.4c-0.3,0.1-0.4,0.2-0.4,0.4c0.1,0.2,0,0.3-0.2,0.4c-0.3,0.1-0.6,0.5-1.1,1.1
			c-0.1,0.2-0.2,0.4-0.2,0.6c0,0,0,0.3,0.1,0.8c0.1,0.7,0.3,1.1,0.4,1.3c0.1,0.2,0.4,0.4,0.7,0.7c0.4,0.3,0.6,0.4,0.8,0.4
			c0.1,0,0.3,0.1,0.6,0.4c0.4,0.3,0.9,0.6,1.7,0.8c0.5,0.1,0.8,0.3,1.1,0.6c0.2,0.2,0.3,0.4,0.5,0.7c0.1,0.3,0.2,0.5,0.2,0.7
			c0,0.1,0,0.1-0.1,0.2c-0.1,0-0.1,0.2-0.1,0.4c0.1,0.2,0,0.4-0.2,0.6c-0.1,0.1-0.2,0.3-0.2,0.4c0,0.2-0.5,0.4-1.4,0.5
			c-0.1,0-0.3,0-0.6,0c-0.9,0-1.7-0.4-2.2-1.2c-0.3-0.4-0.5-0.8-0.5-1c0,0,0-0.1,0-0.2c0-0.1,0-0.2,0-0.2c0,0-0.1-0.1-0.1-0.1
			c-0.1,0-0.1,0-0.1-0.1c0.1-0.3-0.1-0.5-0.4-0.6c-0.1,0-0.2-0.1-0.3-0.1c-0.3,0-0.4,0.2-0.5,0.5c-0.1,1.2-0.1,1.9-0.2,1.9
			c-0.1,0.1-0.1,0.4-0.2,0.8c0,0.1,0,0.3,0,0.4c0,0.2,0.1,0.4,0.3,0.6c0.1,0.1,0.2,0.2,0.3,0.2c0,0,0.1,0,0.2-0.2
			c0.1-0.2,0.2-0.3,0.2-0.4c0-0.3,0.2-0.3,0.5-0.1c0.9,0.5,1.8,0.7,2.9,0.7c0.5,0,1.1-0.1,1.6-0.2c0.6-0.1,1.1-0.3,1.4-0.6
			c0.3-0.3,0.5-0.5,0.5-0.5c0-0.1,0.1-0.2,0.2-0.3c0.2-0.1,0.3-0.4,0.3-0.9c0.1-0.5,0.1-0.7,0.2-0.7c0.1,0,0.1,0,0-0.1
			S374.4,790.2,374.3,789.5z M369.9,788C369.9,788,369.9,787.9,369.9,788c-0.1-0.1-0.1-0.1,0-0.1S370,787.9,369.9,788
			C370,787.9,370,788,369.9,788z"/>
		<path d="M368.4,788.7c0-0.1,0-0.2-0.1-0.2c-0.1,0-0.1,0-0.1,0.1l0.1,0.2C368.4,789,368.4,788.9,368.4,788.7z"/>
		<polygon points="51.7,807.5 44,812.7 41.2,798.7 38.4,812.7 30.7,807.5 35.9,815.3 21.8,818 35.9,820.8 30.7,828.5 38.4,823.3 
			41.2,837.4 43.9,823.4 51.7,828.5 46.5,820.8 60.5,818 46.5,815.3 		"/>
		<polygon points="468.1,815.3 473.3,807.5 465.5,812.7 462.8,798.7 460,812.7 452.3,807.5 457.5,815.3 443.4,818 457.5,820.8 
			452.3,828.5 460,823.3 462.8,837.4 465.5,823.4 473.3,828.5 468.1,820.8 482.1,818 		"/>
		<polygon points="30.7,56.3 38.4,51.1 41.2,65.1 44,51.1 51.7,56.3 46.5,48.5 60.5,45.8 46.5,43 51.7,35.3 43.9,40.4 41.2,26.4 
			38.4,40.5 30.7,35.3 35.9,43 21.8,45.8 35.9,48.5 		"/>
		<polygon points="473.3,35.3 465.5,40.4 462.8,26.4 460,40.5 452.3,35.3 457.5,43 443.4,45.8 457.5,48.5 452.3,56.3 460,51.1 
			462.8,65.1 465.5,51.1 473.3,56.3 468.1,48.5 482.1,45.8 468.1,43 		"/>
		<ellipse cx="165.5" cy="313.4" rx="2.5" ry="2.5"/>
		<path d="M268,627.3c12.9-16.1,18.3-28.4,15.5-45.7c-2.1-12.8-7.6-21.7-15.5-28c0-3.6,0-7.2,0-10.9c5.5,0.9,11.4,1.3,17.9,0.7
			c13.3-1.2,29.7-8.9,39.1-18.2c7.8-7.7,15.1-20.5,18.1-30.5c6.2-21,0.7-48.9-21.6-61.3c-9.2-5.1-25.9-8-36.7-8.2
			c-3.2,0-12.2-0.1-16.7,0c0-13.9,0-27.8,0-41.7c0.1,0,0.3,0,0.4,0c0.4,0,0.7-0.1,0.9-0.3c0,0,0,0,0,0c0,0,0.1-0.1,0.1-0.1
			c0.2-0.2,0.3-0.5,0.3-0.8c0-0.8,0-1.7,0-2.5c5.3,2.2,7,3.8,13.4,5.7c23.3,6.9,45,3.5,45.4-2.5c0.9-13.3-25.7-26.7-30.8-27.9
			c-8.9-2.1-15.9-4-24.7-3.9c-3.4,0-7.6-0.2-11.7-0.5c-0.3-1.3-0.4-2.7,0.5-3.8c0.8-1,2.4-1.4,3.3-2.4c1.4-1.5,1.7-3.6,1.1-5.5
			c-0.6-2.1-2.1-3.5-3.8-4.3c-0.1-4.2,1.6-5.7,5.9-6.9c2.7-0.8,5.5-0.9,8.3-1c5.6-0.2,11.2-0.2,16.8-0.2c10.2,0.1,20.4,0.6,30.6,1
			c4.1,0.2,8.6,0.8,12.6,0.1c3.3-0.6,3.5-1.8,4.9-4.4c0.7-1.3-0.4-0.3,0.7-1.2c0.4-0.3,1.5-0.4,2-0.7c1.4-0.6,2.6-1.4,3.5-2.6
			c2.9-3.3,3.2-8.1,3.3-12.3c0-0.7-0.6-1.4-1.3-1.3c-14.1,1-28.1,1.7-42.2,2.3c-10,0.4-20.1,0.7-30.1,0.6c-3.8,0-7.7-0.1-11.5-0.5
			c-3.4-0.3-5.7-0.2-5.7-3.5c4.7-0.4,7-3.8,7.2-8.3c0.2-4.9-1-8.8-5.8-10.8c-0.3-0.1-0.6-0.1-0.8,0c0,0-0.1,0-0.1,0
			c1-1.7,1.6-3.3,1.8-5.5c0.1-2.8-0.7-5.3-2.8-7c1.4-4,2.4-8,3.1-12.2c0.1-0.2,0.1-0.3,0.1-0.5c0.4-2.7,0.7-5.5,0.9-8.3
			c0.1-0.2,0.1-0.5,0-0.7c0.3-5.2,0.2-10.3-0.1-15.4c-0.5-8.6-1.3-18.2-4.4-26.5c2-1.9,2.3-5,1.6-7.7c-1-3.6-4.1-6.1-7.9-6.1
			c-3.7,0-6.9,2-7.9,5.7c-0.7,2.7-0.3,6,1.7,8.1c-3.2,8.2-3.9,17.8-4.4,26.5c-0.7,12.4-0.2,25.4,4.1,37.2c-2.3,2-3.3,4.4-3,7.5
			c0.2,2.1,0.9,3.6,1.8,5.2c-2.5-0.3-5.1,1.7-6.2,4c-1.3,2.7-0.8,7,0,9.8c1,3.3,3.4,4.7,6.7,4.8c-0.1,3.7-1.8,3.6-5.7,3.9
			c-3.8,0.4-7.7,0.4-11.5,0.5c-10,0.1-20.1-0.2-30.1-0.6c-14.1-0.6-28.2-1.3-42.2-2.3c-0.7,0-1.3,0.6-1.3,1.3c0.1,4,0.4,8.6,3,11.9
			c1.6,2,5.7,3,6.5,4.2c0.7,1.1,0.2,2.3,1.3,3.5c0.9,0.9,1.9,1.3,3.1,1.5c4.1,0.8,8.7,0.2,12.8,0c9.8-0.4,19.6-0.9,29.4-1
			c5.4-0.1,10.8-0.1,16.3,0.1c2.8,0.1,5.9,0,8.7,0.6c4.8,1,6.6,2.7,6.8,7.1c-1.2,0.6-2.2,1.6-2.8,2.6c-1.2,1.9-1.5,4.4-0.4,6.4
			c0.6,1,1.4,1.7,2.3,2.3c1.4,1,2.3,1.1,2.4,3.2c-15.4-1.6-32-0.2-41.9,5.5c-20,11.5-30.2,32.2-21.8,57c4.6,13.5,15.1,22.4,29,28.2
			c6.8,2.8,19.3,7.2,28.5,7.9c0,14.5,0,28.9,0,43.4c-13.6-10.4-29.7-18.3-47.6-13.2c-14,4-25.2,15.1-30.5,26
			c-4.5,9.2-4.2,24,1.2,32.3c9.3,14.3,20.1,18.4,35.4,22.6c13.3,3.6,29.5,6.3,41.5,11.3c0,24.8,0,49.6,0,74.4
			c-9.3,10.1-20.1,24.1-14.7,35.4c1.1-10.7,7.3-19,14.7-26.1c0,5.3,0,10.5,0,15.8c0,5.1,0.7,8.5,2.1,13.5
			c3.8,13.5,7.7,27.1,11.5,40.6c0,0,0,0.1,0,0.1c0,0.1,0.1,0.2,0.1,0.2c0,0.1,0.1,0.1,0.1,0.2c0,0.1,0.1,0.1,0.1,0.1
			c0.5,0.4,1.2,0.4,1.7,0c0.1,0,0.1-0.1,0.1-0.1c0-0.1,0.1-0.1,0.1-0.2c0-0.1,0.1-0.1,0.1-0.2c0,0,0-0.1,0-0.1
			c3.4-12,6.8-24.1,10.2-36.1c1.4-4.9,3.4-9.6,3.4-14.7C268,657.6,268,642.4,268,627.3z M268,570.3c0-2.5,0-5,0-7.5
			C268.1,565.2,268.1,567.7,268,570.3z M265.4,600.9c-1.5,8.1-5.7,16.5-11,24.3c0-5.7,0-11.4,0-17.1c0-23.1,0-46.2,0-69.2
			c3.4,1.4,7,2.5,11,3.4C265.4,561.8,265.4,581.3,265.4,600.9z M246.5,373.4c-2.1,0-4.1,0-6.2,0c-1.1-0.1-1.9-0.3-2.7-0.7
			C240.6,372.7,243.6,373,246.5,373.4z M239.1,376.4c7.1,0,14.2,0,21.3,0c2.4,0.7,4.6,1.5,6.8,2.2c0,0.7,0,1.5,0,2.2
			c-9.3-0.1-18.7-0.1-28,0C239.1,379.4,239.1,377.9,239.1,376.4z M254.4,424.5c0-13.7,0-27.3,0-41c3.7,0,7.3,0,11,0
			c0,42.1,0,84.1,0,126.2c0,1.1,0,2.2,0,3.3c-3.2-1.7-6.4-3.9-9.4-6.7c-0.5-0.5-1-0.9-1.5-1.4C254.4,478,254.4,451.3,254.4,424.5z
			 M314.6,474c4.4,19.1-12.8,35.1-19.3,38.5c-8.9,4.7-18.2,5.5-27.3,1.7c0-20,0-39.9,0-59.9C287.1,454.5,310.6,456.6,314.6,474z
			 M304.1,324.2c0.7-1.4,2.3-1.8,3.8-1.9c1.9-0.1,3.5,0.6,4.3,2.2C309.5,324.4,306.8,324.3,304.1,324.2z M348.5,307.9
			c-0.3,5.8-2,10.7-8.3,11.8c-4.3-4.7-15.1-3.3-16.6-10.3C331.9,309,340.2,308.5,348.5,307.9z M300.5,310.4
			c6.8-0.2,13.6-0.5,20.4-0.9c0.7,3.4,3,5.5,6.2,7.1c3.4,1.7,9.6,2.2,11.6,5.7c-0.8,2.9-6,3.3-11,3.1c-4.4-6-9.9-9.9-17.5-10.4
			c-4.8-0.3-9.3,0.9-14,1.6c-5.8,0.8-15.5-0.1-19.3-5.8C284.9,310.9,292.7,310.6,300.5,310.4z M252.5,197.7c2.8-0.2,5.1,1.3,5.9,4
			c0.6,1.8,0.5,4.5-1.2,5.6c0,0-0.1,0.1-0.1,0.1c-0.5,0.2-0.8,0.7-0.5,1.4c0.7,1.8,1.3,3.7,1.8,5.6c-3.6-0.3-6.7-1.7-9.2-4.3
			c0.1-0.4,0.3-0.8,0.4-1.2c0.1-0.3,0.2-0.5,0.1-0.8c-0.1-0.3-0.2-0.5-0.5-0.6C245.5,204.3,247.8,198,252.5,197.7z M248.3,212.8
			c3,2.7,6.8,4,10.8,4.2c0.4,2,0.8,4.1,1.1,6.2c-4.8-0.3-9.3-1.7-12.8-5.2c-0.1-0.1-0.2-0.2-0.3-0.2
			C247.4,216.1,247.8,214.5,248.3,212.8z M246.5,220.8c3.9,3.4,8.8,4.8,13.9,5.1c0.2,2.1,0.4,4.1,0.5,6.2c-5.5-0.3-10.9-1.5-15.2-5
			C245.9,225,246.2,222.9,246.5,220.8z M245.1,235.3c0.1-1.7,0.2-3.4,0.4-5.2c4.6,3.1,10.1,4.3,15.7,4.5c0,0.2,0,0.4,0,0.6
			c0.1,1.8,0.2,3.7,0.2,5.5c-5.7-0.3-11.4-1.5-16-5.2c-0.1-0.1-0.2-0.1-0.3-0.2C245.1,235.4,245.1,235.3,245.1,235.3z M244.8,244.4
			c0-2,0-3.9,0.1-5.9c4.9,3.3,10.6,4.6,16.5,4.9c0,2.1,0,4.1-0.1,6.2C255.5,249.3,249.6,248,244.8,244.4
			C244.8,244.4,244.8,244.4,244.8,244.4z M244.9,247.5c4.9,3.1,10.5,4.3,16.3,4.6c-0.2,2.1-0.4,4.1-0.7,6.2
			c-5.5-0.3-10.9-1.6-15.3-5.1C245,251.3,244.9,249.4,244.9,247.5z M246.4,262c-0.3-1.8-0.6-3.5-0.8-5.3c4.3,2.8,9.3,4,14.5,4.3
			c-0.4,2.1-0.8,4.1-1.4,6.2C254,266.8,249.7,265.4,246.4,262z M257.9,269.7c-0.2,0.7-0.5,1.4-0.7,2.2c0,0,0,0.1,0,0.1
			c-2.4,1.4-5.7,1-8,0.2c0-0.1,0-0.2-0.1-0.4c-0.7-1.9-1.3-3.8-1.7-5.7C250.5,268.3,254.1,269.3,257.9,269.7z M248.1,274.6
			c3.2,1.2,6.9,1.5,10-0.1c4,2.9,1.2,8.2-0.9,11.4c-2.8,0.5-5.5,0.2-8.3-0.2C246.4,282,244.6,277.9,248.1,274.6z M157.8,307.9
			c8.3,0.6,16.6,1.1,24.9,1.5c-1.5,7.1-12.2,5.6-16.6,10.3C159.7,318.6,158.1,313.8,157.8,307.9z M178.4,325.4
			c-4.9,0.2-10.1-0.2-11-3.1c2-3.4,8.2-4,11.6-5.7c3.2-1.6,5.5-3.7,6.2-7.1c6.8,0.3,13.6,0.6,20.4,0.9c7.8,0.3,15.7,0.5,23.5,0.4
			c-3.5,5.1-12.1,6.5-17.5,6c-5.3-0.5-10.4-2.1-15.8-1.8C188.3,315.4,182.8,319.4,178.4,325.4z M194,324.5c0.8-1.6,2.4-2.3,4.3-2.2
			c1.5,0.1,3.1,0.5,3.8,1.9C199.4,324.3,196.7,324.4,194,324.5z M234.8,324.4c-8-1-16.4-0.6-24.5-0.5c-1.8,0-3.7,0.1-5.5,0.1
			c0-0.1,0-0.1,0-0.2c-0.8-3-3.6-4.2-6.5-4.3c-3.4-0.1-6.3,1.5-7.2,4.9c-1.5,0.1-3.1,0.1-4.6,0.2c-1.1,0-2.8,0.2-4.7,0.4
			c3.6-4.3,8.1-7.2,14-7.6c6-0.4,11.7,1.7,17.6,2c6.6,0.3,15.5-2.5,18.7-8.9c1.5,0,3-0.1,4.5-0.2c2.8-0.1,5.9-0.2,8.6-1
			c3.5-1.1,3.4-3.6,3.3-7.1c0-1-0.9-1.4-1.7-1.2c-0.2-0.1-0.3-0.1-0.5-0.1c-4.7,0.1-5-3.8-5.2-7.5c-0.1-2.7,1-5.7,3.8-5.8
			c2.1-0.1,4.5,0.9,6.6,1c3.1,0.2,6.2-0.1,9.2-1.2c0,0,0.1,0,0.1-0.1c0,0,0.1,0,0.1,0.1c3.4,1.4,3.9,4.3,3.9,7.7
			c0,3.3-1.2,6.2-5,6.4c-0.1,0-0.2,0-0.3,0.1c-0.7-0.2-1.8,0.1-1.9,1.2c-0.9,7.9,5.9,7.4,11.9,7.7c1.5,0.1,3,0.1,4.5,0.2
			c3.2,6.4,12.1,9.1,18.7,8.9c5.6-0.2,11-2.2,16.7-2c6.3,0.2,11.1,3,14.9,7.6c-1.9-0.2-3.6-0.3-4.7-0.4c-1.5-0.1-3-0.1-4.6-0.2
			c-0.9-3.4-3.8-5-7.2-4.9c-2.9,0.1-5.7,1.3-6.5,4.3c0,0.1,0,0.1,0,0.2c-2.1-0.1-4.2-0.1-6.3-0.2c-7.8-0.1-15.9-0.5-23.7,0.5
			c-2.9,0.4-7.8,1.4-10.1,3.6c-1.6,1.6-1.7,3.8-1.5,5.9c-1.3-0.1-2.6,0.2-3.9,0.7c-1.5,0.7-2.7,1.6-4.5,1.2
			c-0.9-0.2-1.7-0.9-2.5-1.3c-1.1-0.5-2.1-1-3.3-1c-0.1,0-0.1,0-0.2,0C244.9,327.7,241.3,325.3,234.8,324.4z M253.5,345
			c-1.5,0.6-2.2-1.4-2.3-2.5c-0.2-1.4,0.1-2.8,0.7-4c0.7,0.1,1.4,0,2.1-0.2C254.8,340,255.5,344.2,253.5,345z M246.4,346.3
			c-1.4-2.6-5.8-3.2-4.7-6.9c0.4-1.3,1.4-2.4,2.7-2.8c0.1,0,0.3-0.1,0.4-0.1c0.5-0.1,1.1-0.2,1.6-0.1c1.1,0.2,2,0.8,2.9,1.3
			c-1.5,3.7-1,10.6,4.3,9.9c4.4-0.6,4.3-7.1,2.8-10.4c0.3-0.1,0.6-0.3,0.9-0.4c2.6-1.2,6.1,0.2,6.6,3.2c0.4,2.8-2.3,3.3-3.8,4.9
			c-1.5,1.5-1.7,3.5-1.4,5.5c-4.1-0.3-8-0.8-11.1-1.2c-0.2,0-0.3,0-0.5-0.1C247,348.2,246.9,347.2,246.4,346.3z M210.1,386.8
			c4.1-9.2,17.3-12.9,23.8-13.8c0.7,0.9,1.6,1.6,2.7,2.1c0,0,0,0,0,0c0,2.4,0,4.7,0,7.1c0,0.7,0.6,1.3,1.3,1.3c0.1,0,0.3,0,0.4,0
			c0,12.1,0,24.2,0,36.3C224.7,415.1,203.2,402.3,210.1,386.8z M240.9,447.7c0,0,0.1,0,0.1,0c0-0.3-0.1-0.5-0.1-0.8
			c0-5.6,0-11.3,0-16.9c0-1,0-2,0-3c0.3-2,0.4-4,0.1-6.2c0,0-0.1,0-0.1,0c0-12.4,0-24.8,0-37.2c3.7,0,7.3,0,11,0
			c0,38,0,75.9,0,113.9c0,1.7,0,3.4,0,5c-3.4-3.1-7.1-6.4-11-9.5C240.9,477.9,240.9,462.8,240.9,447.7z M189.5,528.9
			c-4.7-5.5-3-12.1,2.1-16.5c11.4-9.9,22.3-2.6,31.3,4.8c3.6,2.9,8.6,7.9,15.4,12.7c0,5.1,0,10.1,0,15.2
			C222,541.1,196.7,537.3,189.5,528.9z M240.9,616.6c0-28.3,0-56.6,0-84.9c3.3,2.2,6.9,4.2,11,6.1c0,30.4,0,60.8,0,91.2
			c-1.2,1.6-2.4,3.2-3.7,4.7c-1.6,1.9-4.2,4.6-7.3,7.9C240.9,633.2,240.9,624.9,240.9,616.6z M251.8,713.8c-2.5-8.9-5-17.7-7.5-26.6
			c-1.6-5.6-3.4-10-3.4-15c0-7,0-14,0-20.9c3.6-3.1,7.3-6.1,11-8.9c0,12.9,0,25.8,0,38.6C251.8,692,251.8,702.9,251.8,713.8z
			 M263.4,682.3c-3,10.5-6,21-8.9,31.6c0-24.5,0-49,0-73.5c4.2-3.3,8-6.5,11-9.9c0,12.9,0,25.7,0,38.6
			C265.4,674.8,265,676.7,263.4,682.3z"/>
		<ellipse cx="340.7" cy="313.4" rx="2.5" ry="2.5"/>
		<path d="M253.1,332.7c1.3,0,1.1-10.1,3-12.1c2-2,9.2-1.5,9.2-2.7c0-1.2-7.4-0.8-9.2-2.7c-1.8-1.8-1.8-12.1-3-12.1
			c-1.3,0-0.8,9.9-3,12.1c-2.2,2.2-9.2,1.3-9.2,2.7s7.1,0.5,9.2,2.7C252.2,322.7,251.8,332.7,253.1,332.7z"/>
		<path d="M131.7,619c0,0,0.4,0,1.2,0C132.1,619,131.7,619,131.7,619z"/>
		<path d="M158.4,589.2c0,0,0,0.4,0,1C158.4,589.6,158.4,589.2,158.4,589.2z"/>
		<path d="M158.4,648.8c0,0,0-0.4,0-1C158.4,648.4,158.4,648.8,158.4,648.8z"/>
		<path d="M162.7,614.5c-3.9-4.6-4.3-20.1-4.3-24.2c0,4.2-0.4,19.6-4.3,24.2c-3.5,4.1-17,4.5-21.2,4.5c4.1,0,17.7,0.5,21.2,4.5
			c3.9,4.6,4.3,20.1,4.3,24.2c0-4.2,0.4-19.6,4.3-24.2c3.5-4.1,17-4.5,21.2-4.5C179.7,619,166.2,618.5,162.7,614.5z"/>
		<path d="M185.1,619c0,0-0.4,0-1.2,0C184.6,619,185.1,619,185.1,619z"/>
		<path d="M356.9,371.8c0,0,0-0.1,0-0.4C356.9,371.7,356.9,371.8,356.9,371.8z"/>
		<path d="M346.6,360.9c0,0,0.2,0,0.4,0C346.8,360.9,346.6,360.9,346.6,360.9z"/>
		<path d="M356.9,350c0,0,0,0.1,0,0.4C356.9,350.1,356.9,350,356.9,350z"/>
		<path d="M366.8,360.9c-1.5,0-6.9-0.2-8.2-1.7c-1.5-1.7-1.7-7.4-1.7-8.9c0,1.5-0.1,7.2-1.7,8.9c-1.4,1.5-6.7,1.7-8.2,1.7
			c1.5,0,6.9,0.2,8.2,1.7c1.5,1.7,1.7,7.4,1.7,8.9c0-1.5,0.1-7.2,1.7-8.9C360,361.1,365.3,360.9,366.8,360.9z"/>
		<path d="M367.3,360.9c0,0-0.2,0-0.4,0C367.1,360.9,367.3,360.9,367.3,360.9z"/>
		<path d="M147.2,667.4c0,0,0,0.1,0,0.4C147.2,667.6,147.2,667.4,147.2,667.4z"/>
		<path d="M136.9,678.4c0,0,0.2,0,0.4,0C137,678.4,136.9,678.4,136.9,678.4z"/>
		<path d="M147.2,667.8c0,1.5-0.1,7.2-1.7,8.9c-1.4,1.5-6.7,1.7-8.2,1.7c1.5,0,6.9,0.2,8.2,1.7c1.5,1.7,1.7,7.4,1.7,8.9
			c0-1.5,0.1-7.2,1.7-8.9c1.4-1.5,6.7-1.7,8.2-1.7c-1.5,0-6.9-0.2-8.2-1.7C147.3,675,147.2,669.3,147.2,667.8z"/>
		<path d="M147.2,689.3c0,0,0-0.1,0-0.4C147.2,689.2,147.2,689.3,147.2,689.3z"/>
		<path d="M157.1,678.4c0.3,0,0.4,0,0.4,0S157.3,678.4,157.1,678.4z"/>
		<path d="M334.4,142.4c-0.6,0-1,0-1,0S333.7,142.4,334.4,142.4z"/>
		<path d="M378.2,142.4c0,0-0.4,0-1,0C377.9,142.4,378.2,142.4,378.2,142.4z"/>
		<path d="M355.8,165.4c0-3.3,0.3-15.7,3.6-19.3c2.9-3.3,14.3-3.6,17.8-3.6c-3.5,0-14.9-0.4-17.8-3.6c-3.3-3.7-3.6-16-3.6-19.3
			c0,3.3-0.3,15.7-3.6,19.3c-2.9,3.2-14.3,3.6-17.8,3.6c3.5,0,14.9,0.4,17.8,3.6C355.5,149.7,355.8,162,355.8,165.4z"/>
		<path d="M355.8,118.6c0,0,0,0.3,0,0.8C355.8,118.9,355.8,118.6,355.8,118.6z"/>
		<path d="M355.8,166.2c0,0,0-0.3,0-0.8C355.8,165.9,355.8,166.2,355.8,166.2z"/>
		<path d="M376,603.4c0,0,0,0.1,0,0.3C376,603.5,376,603.4,376,603.4z"/>
		<path d="M376,622.4c0,0,0-0.1,0-0.3C376,622.2,376,622.4,376,622.4z"/>
		<path d="M367.1,612.9c0,0,0.1,0,0.4,0C367.2,612.9,367.1,612.9,367.1,612.9z"/>
		<path d="M376,603.7c0,1.3-0.1,6.3-1.4,7.7c-1.2,1.3-5.8,1.4-7.1,1.4c1.3,0,5.9,0.1,7.1,1.4c1.3,1.5,1.4,6.4,1.4,7.7
			c0-1.3,0.1-6.3,1.4-7.7c1.2-1.3,5.8-1.4,7.1-1.4c-1.3,0-5.9-0.1-7.1-1.4C376.1,610,376,605,376,603.7z"/>
		<path d="M384.6,612.9c0.2,0,0.4,0,0.4,0S384.8,612.9,384.6,612.9z"/>
		<path d="M104.3,251.7c0,0,0,0.3,0,0.9C104.3,252,104.3,251.7,104.3,251.7z"/>
		<path d="M80,277.4c0,0,0.4,0,1.1,0C80.4,277.4,80,277.4,80,277.4z"/>
		<path d="M128.6,277.4c0,0-0.4,0-1.1,0C128.2,277.4,128.6,277.4,128.6,277.4z"/>
		<path d="M104.3,303.2c0,0,0-0.3,0-0.9C104.3,302.9,104.3,303.2,104.3,303.2z"/>
		<path d="M127.5,277.4c-3.8,0-16.1-0.4-19.3-3.9c-3.6-4-3.9-17.3-3.9-20.9c0,3.6-0.4,17-3.9,20.9c-3.2,3.5-15.5,3.9-19.3,3.9
			c3.8,0,16.1,0.4,19.3,3.9c3.6,4,3.9,17.3,3.9,20.9c0-3.6,0.4-17,3.9-20.9C111.4,277.8,123.7,277.5,127.5,277.4z"/>
		<path d="M346.6,398c0,0,0.6,0,1.6,0C347.2,398,346.6,398,346.6,398z"/>
		<path d="M415,398c1,0,1.6,0,1.6,0S416,398,415,398z"/>
		<path d="M381.6,435.1c0,0,0-0.5,0-1.3C381.6,434.6,381.6,435.1,381.6,435.1z"/>
		<path d="M381.6,362.2c0,5.2-0.5,24.4-5.6,30.1c-4.6,5.1-22.3,5.6-27.7,5.6c5.4,0,23.2,0.6,27.7,5.6c5.1,5.7,5.6,25,5.6,30.1
			c0-5.2,0.5-24.4,5.6-30.1c4.6-5.1,22.3-5.6,27.7-5.6c-5.4,0-23.2-0.6-27.7-5.6C382.1,386.6,381.6,367.4,381.6,362.2z"/>
		<path d="M381.6,360.9c0,0,0,0.5,0,1.3C381.6,361.4,381.6,360.9,381.6,360.9z"/>
		<path d="M317.1,573.4c0,0,0.4,0,1,0C317.4,573.4,317.1,573.4,317.1,573.4z"/>
		<path d="M339.3,549.8c0,0,0,0.3,0,0.8C339.3,550.1,339.3,549.8,339.3,549.8z"/>
		<path d="M339.3,550.6c0,3.3-0.3,15.5-3.6,19.2c-2.9,3.2-14.2,3.6-17.6,3.6c3.5,0,14.7,0.4,17.6,3.6c3.3,3.6,3.6,15.9,3.6,19.2
			c0-3.3,0.3-15.5,3.6-19.2c2.9-3.2,14.2-3.6,17.6-3.6c-3.5,0-14.7-0.4-17.6-3.6C339.6,566.2,339.3,553.9,339.3,550.6z"/>
		<path d="M339.3,597c0,0,0-0.3,0-0.8C339.3,596.7,339.3,597,339.3,597z"/>
		<path d="M360.6,573.4c0.6,0,1,0,1,0S361.2,573.4,360.6,573.4z"/>
		<path d="M119.5,616.7c0,0,0,0.2,0,0.4C119.5,616.8,119.5,616.7,119.5,616.7z"/>
		<path d="M107.4,629.6c0,0,0.2,0,0.5,0C107.5,629.6,107.4,629.6,107.4,629.6z"/>
		<path d="M119.5,642.5c0,0,0-0.2,0-0.4C119.5,642.3,119.5,642.5,119.5,642.5z"/>
		<path d="M131.2,629.6c-1.8,0-8.1-0.2-9.7-2c-1.8-2-2-8.7-2-10.5c0,1.8-0.2,8.5-2,10.5c-1.6,1.8-7.9,2-9.7,2c1.8,0,8.1,0.2,9.7,2
			c1.8,2,2,8.7,2,10.5c0-1.8,0.2-8.5,2-10.5C123.1,629.7,129.4,629.6,131.2,629.6z"/>
		<path d="M131.7,629.6c0,0-0.2,0-0.5,0C131.5,629.6,131.7,629.6,131.7,629.6z"/>
		<path d="M140.5,323.9c0,0-0.2,0-0.4,0C140.3,323.9,140.5,323.9,140.5,323.9z"/>
		<path d="M120.1,323.9c0,0,0.2,0,0.4,0C120.2,323.9,120.1,323.9,120.1,323.9z"/>
		<path d="M130.3,313.1c0,0,0,0.1,0,0.4C130.3,313.2,130.3,313.1,130.3,313.1z"/>
		<path d="M130.3,334.7c0,0,0-0.1,0-0.4C130.3,334.6,130.3,334.7,130.3,334.7z"/>
		<path d="M120.5,323.9c1.5,0,6.8,0.1,8.1,1.6c1.5,1.7,1.6,7.3,1.6,8.8c0-1.5,0.1-7.1,1.6-8.8c1.4-1.5,6.6-1.6,8.1-1.6
			c-1.5,0-6.8-0.1-8.1-1.6c-1.5-1.7-1.6-7.3-1.6-8.8c0,1.5-0.1,7.1-1.6,8.8C127.3,323.8,122,323.9,120.5,323.9z"/>
		<path d="M253.3,126.7l-1.2,62.4c0.8-0.2,1.6-0.3,2.4-0.4L253.3,126.7z"/>
		<path d="M241.9,217.1l-3.6-55.1l1.5,59.1C240.4,219.7,241.1,218.3,241.9,217.1z"/>
		<path d="M235.3,271.7C235.3,271.7,235.3,271.7,235.3,271.7c0-0.2,0.1-0.4,0.1-0.5l-12.1-118.5l8.3,133.5
			C232.3,281.3,233.7,276.3,235.3,271.7z"/>
		<polygon points="230.4,298.2 208.2,175.7 225,298.2 		"/>
		<polygon points="222.3,298.2 193.2,182.5 216.9,298.2 		"/>
		<polygon points="213.9,298.2 178.1,200.1 208.5,298.2 		"/>
		<polygon points="203.1,297.8 170.5,223.3 197.7,297.9 		"/>
		<polygon points="193.8,298.6 155.1,235.8 188.4,298.8 		"/>
		<polygon points="308.9,297.9 336.1,223.3 303.5,297.8 		"/>
		<polygon points="351.5,235.8 312.8,298.6 318.2,298.8 		"/>
		<path d="M268.3,162l-3.6,54.1c0.9,0.9,1.5,1.9,2.1,2.9L268.3,162z"/>
		<path d="M275.2,283.9l8.2-131.2l-12.2,119.6c0.4,1.3,0.8,2.6,1.2,3.9C273.4,278.7,274.4,281.3,275.2,283.9z"/>
		<polygon points="281.6,298.2 298.4,175.7 276.2,298.2 		"/>
		<polygon points="289.8,298.2 313.4,182.5 284.4,298.2 		"/>
		<polygon points="298.1,298.2 328.5,200.1 292.7,298.2 		"/>
	</g>
</g>
</svg>
