<?xml version="1.0" encoding="utf-8"?>
<!-- Generator: Adobe Illustrator 21.1.0, SVG Export Plug-In . SVG Version: 6.00 Build 0)  -->
<svg version="1.1" xmlns="http://www.w3.org/2000/svg" xmlns:xlink="http://www.w3.org/1999/xlink" x="0px" y="0px"
	 viewBox="0 0 504 864" style="enable-background:new 0 0 504 864;" xml:space="preserve">
<style type="text/css">
	.st0{fill:#040404;}
</style>
<g id="Слой_1">
</g>
<g id="Слой_2">
	<g>
		<path d="M503.8,18.2c-1.6-17.9-18.7-16.3-31.6-16.3c-45.9,0-91.8,0-137.6,0c-63.2,0-126.3,0-189.5,0c-40.6,0-81.2,0-121.8,0
			c-2.6,0-5.3-0.2-8,0.2c-9.5,1.2-15,9.2-15.2,18.2c-0.2,7.3,0,14.5,0,21.8c0,37.4,0,74.9,0,112.3c0,57,0,114.1,0,171.1
			c0,64.3,0,128.6,0,192.9c0,58.4,0,116.7,0,175.1c0,40.1,0,80.2,0,120.3c0,9.1,0,18.2,0,27.3c0,11.7,6.7,20.5,19.2,20.7
			c35.9,0.6,71.9,0,107.9,0c62.4,0,124.9,0,187.3,0c49.7,0,99.5,0,149.2,0c7.6,0,15.2,0,22.9,0c0.4,0,0.8-0.1,1.2-0.2
			c14.4-1.8,16.1-13.8,16.1-25.5c0-11.4,0-22.8,0-34.3c0-43.4,0-86.9,0-130.3c0-59.9,0-119.8,0-179.8c0-63.9,0-127.7,0-191.6
			c0-55.3,0-110.6,0-165.9c0-33.7,0-67.3,0-101C503.9,28.3,504.2,23.2,503.8,18.2z M486.6,852.8c-28.3,0-56.6,0-84.9,0
			c-59.9,0-119.8,0-179.7,0c-54,0-108,0-162,0c-13.1,0-26.1,0-39.2,0c-5.6,0-11-1.3-11.7-8.3c-0.2-1.5,0-3,0-4.5c0-26.5,0-53,0-79.5
			c0-50,0-100,0-149.9c0-61.8,0-123.6,0-185.4c0-61.4,0-122.7,0-184.1c0-48.9,0-97.7,0-146.6c0-24.2-0.8-48.6,0-72.7
			c0.2-5.3,1.6-10.1,8.3-10.8c2.2-0.2,4.5,0,6.7,0c14.8,0,29.6,0,44.5,0c55.6,0,111.3,0,166.9,0c58.9,0,117.8,0,176.7,0
			c18.9,0,37.9,0,56.8,0c8.1,0,24.7-3.1,25.9,8.4c0.5,5.2,0,10.8,0,16.1c0,13.5,0,27.1,0,40.6c0,45.5,0,91.1,0,136.6
			c0,60.1,0,120.2,0,180.3c0,62.6,0,125.2,0,187.7c0,52.8,0,105.6,0,158.4c0,31.4,0,62.7,0,94.1C494.8,840.3,496.9,852,486.6,852.8z
			"/>
		<path d="M460,790.9c1.2,0.1,2.4-0.7,2.4-2.2c0-23.7,0-47.4,0-71.1c0-56.4,0-112.8,0-169.2c0-68.7,0-137.4,0-206
			c0-59,0-117.9,0-176.9c0-19.6,0-39.2,0-58.8c0-8.9,1.3-19,0-27.9c-0.1-0.4,0-0.8,0-1.2c0-0.8-0.3-1.3-0.8-1.7
			c0.1-1.2-0.6-2.5-2.2-2.6c-13.1-0.5-25.3-13.8-25.8-26.7c0-0.5-0.2-0.8-0.4-1.1c-0.3-0.6-1-1.1-1.9-1.1c-40.5,0-80.9,0-121.4,0
			c-64.5,0-129,0-193.6,0c-14.9,0-29.7,0-44.6,0c-0.9,0-1.6,0.5-1.9,1.1c-0.2,0.3-0.3,0.7-0.4,1.2C69.1,59.5,57,72.8,43.9,73.3
			c-1.8,0.1-2.5,1.9-2,3.2c-0.2,0.3-0.2,0.6-0.2,1c0,23.7,0,47.4,0,71.1c0,56.4,0,112.8,0,169.2c0,68.7,0,137.4,0,206
			c0,59,0,117.9,0,176.9c0,19.6,0,39.2,0,58.8c0,8.9-1.3,19,0,27.9c0.1,0.4,0,0.8,0,1.2c0,0.9,0.5,1.6,1.1,1.9
			c0.3,0.2,0.7,0.3,1.2,0.4c13,0.5,25.3,13.3,25.8,26.2c0,0.5,0.2,0.8,0.4,1.1c0.3,0.6,1,1.1,1.9,1.1c40.5,0,80.9,0,121.4,0
			c64.5,0,129,0,193.6,0c14.9,0,29.7,0,44.6,0c0.9,0,1.6-0.5,1.9-1.1c0.2-0.3,0.3-0.7,0.4-1.2c0.5-12.9,12.7-25.7,25.8-26.2
			C459.6,791,459.8,790.9,460,790.9z M429.3,814.9c-39.8,0-79.6,0-119.3,0c-64.5,0-129,0-193.6,0c-14.2,0-28.3,0-42.5,0
			c-1.7-13.9-13.9-26.5-27.8-28.3c0-23,0-46,0-69.1c0-56.4,0-112.8,0-169.2c0-68.7,0-137.4,0-206c0-59,0-117.9,0-176.9
			c0-19.6,0-39.2,0-58.8c0-8.9,1.3-19,0-27.9c-0.1-0.4,0-0.8,0-1.2c14-1.8,26.1-14.9,27.8-28.7c39.8,0,79.5,0,119.3,0
			c64.5,0,129,0,193.6,0c14.2,0,28.3,0,42.5,0c1.7,14.1,14.3,27.3,28.5,28.8c0,23.7,0,47.3,0,71c0,56.4,0,112.8,0,169.2
			c0,68.7,0,137.4,0,206c0,59,0,117.9,0,176.9c0,19.6,0,39.2,0,58.8c0,8.6-1.2,18.4-0.1,27C443.6,788.1,431.1,800.9,429.3,814.9z"/>
		<path d="M84.4,796.7c-0.1,0-0.1,0.1-0.1,0.2c0,0.1,0,0.2,0.1,0.2c0.1,0,0.1-0.1,0.1-0.2C84.6,796.8,84.5,796.7,84.4,796.7z"/>
		<path d="M84.4,792.3c0.1,0,0.1,0,0.2-0.1c0.1-0.2,0.1-0.3-0.1-0.3c-0.1,0-0.2,0.1-0.2,0.2C84.3,792.3,84.3,792.3,84.4,792.3z"/>
		<path d="M84.4,797.9c-0.1,0-0.1,0.1-0.1,0.2c0,0.1,0,0.2,0.1,0.2c0.1,0,0.1-0.1,0.1-0.2C84.6,797.9,84.5,797.9,84.4,797.9z"/>
		<path d="M96.6,793.4c-0.8-0.1-1.3-0.2-1.5-0.2c-0.1-0.1-0.2-0.2-0.2-0.4c0-0.2,0-0.3-0.1-0.4c-0.1-0.1-0.2-0.1-0.4-0.1
			c-0.3-0.1-0.5-0.2-0.5-0.3c0-0.1-0.1-0.2-0.3-0.2c-0.2,0-0.3-0.1-0.3-0.2c0-0.1-0.1-0.3-0.3-0.5c-0.2-0.2-0.4-0.4-0.5-0.4
			c-0.1,0-0.2,0-0.2-0.1c0-0.1-0.1-0.2-0.3-0.2c-0.2,0-0.3-0.1-0.3-0.2s-0.1-0.3-0.2-0.5c-0.2-0.2-0.3-0.2-0.5-0.2
			c-0.2,0-0.2-0.1-0.2-0.2c0-0.1,0-0.2,0-0.3c0-0.1,0-0.2,0-0.3c0-0.1,0.1-0.2,0.3-0.3c0.3-0.1,0.4-0.2,0.4-0.4
			c0-0.2,0.1-0.3,0.2-0.3c0.1,0,0.3-0.1,0.5-0.4c0.2-0.3,0.4-0.4,0.5-0.5c0.2-0.1,0.2-0.1,0.2-0.3c-0.1-0.1,0-0.2,0.3-0.4
			c0.2-0.1,0.4-0.3,0.4-0.5c0-0.2,0.1-0.3,0.3-0.3c0.2,0,0.3-0.1,0.3-0.4c0-0.3,0.1-0.4,0.2-0.4c0.2,0,0.4-0.1,0.5-0.4
			c0.2-0.2,0.5-0.3,0.9-0.4c0.4-0.1,0.6-0.2,0.8-0.3c0.1-0.1,0.2-0.2,0.4-0.2c0.2,0,0.3-0.1,0.3-0.2c0-0.1,0.1-0.3,0.2-0.4
			c0.1,0,0.1-0.1,0.1-0.1c0,0-0.1,0-0.4-0.1c-0.4,0-0.5-0.1-0.5-0.2c0-0.2-0.3-0.3-0.8-0.3c-0.5,0-0.8,0.1-0.9,0.3
			c-0.1,0.1-0.3,0.2-0.6,0.2c-0.3,0-0.4,0-0.5-0.1c-0.1-0.1-0.6-0.2-1.8-0.2l-1.7-0.1l-0.1,0.5c0,0.1-0.1,0.2-0.1,0.3
			c0,0.1,0.1,0.2,0.2,0.3c0.1,0.1,0.4,0.1,0.7,0.1c0.3,0,0.5,0.1,0.6,0.1c0.1,0,0.1,0.1,0.1,0.2v0.1c0,0.3-0.1,0.4-0.2,0.5
			c-0.1,0.1-0.1,0.2-0.1,0.4c0.1,0.1,0,0.3-0.3,0.4c-0.2,0.1-0.4,0.3-0.4,0.5c0,0.3-0.1,0.4-0.3,0.5c-0.2,0.1-0.4,0.3-0.4,0.6
			c-0.1,0.3-0.3,0.5-0.5,0.5c-0.3,0.1-0.5,0.2-0.6,0.4c-0.2,0.2-0.3,0.3-0.4,0.3c-0.1,0-0.1-0.1-0.1-0.4c0-0.2,0-0.5,0.1-0.9
			c0-0.5,0.1-0.8,0.1-0.9c0-0.2,0-0.3,0-0.3c-0.1-0.3,0-0.5,0.2-0.6c0.2-0.1,0.3-0.3,0.2-0.6c0-0.2,0-0.3,0-0.3c0,0,0.1-0.1,0.3-0.1
			c0.2,0,0.4-0.1,0.5-0.3c0.1-0.2,0.1-0.4,0.1-0.8c0-0.2,0-0.3-0.1-0.3c-0.1-0.1-0.7-0.1-1.9-0.1c-1.4-0.1-2.1-0.2-2.1-0.4
			c0-0.1-0.1-0.1-0.2-0.1c-0.1,0-0.2,0-0.2,0.1c0,0.1-0.1,0.2-0.1,0.3c0,0.2,0,0.3,0,0.3c0,0.2-0.1,0.3-0.3,0.4
			c-0.2,0-0.3,0.2-0.2,0.5c0.1,0.3,0.1,0.4,0.2,0.5s0.2,0.1,0.3,0.1c0.2,0,0.3,0,0.4,0c0.1,0,0.2,0,0.4,0c0.3,0,0.5,0.1,0.6,0.4
			c0.1,0.2,0.1,0.8,0.1,1.5c0,0.9-0.1,1.4-0.2,1.5c-0.1,0.1-0.1,0.2,0,0.4c0.1,0.2,0.1,0.5,0,0.7c-0.1,0.2-0.2,0.3-0.3,0.3
			c-0.1,0-0.1,0.1,0,0.2c0.1,0.1,0.1,0.3,0.1,0.7c0,0.6-0.1,1.5-0.2,2.9l-0.1,1h-0.6c-0.4,0-0.6,0.1-0.7,0.3
			c-0.1,0.2-0.2,0.3-0.3,0.3c-0.2,0-0.2,0.1-0.2,0.4c0,0.3,0.1,0.5,0.3,0.6c0.2,0.1,0.3,0.3,0.3,0.4c0,0.1,0.1,0.2,0.3,0.2
			c0.2,0,0.5,0,0.8-0.1c0.3-0.1,0.5-0.2,0.6-0.2c0.1-0.1,0.7-0.2,1.6-0.2c0.9,0,1.4,0,1.5-0.1c0,0,0-0.3,0-0.6
			c0-0.3-0.1-0.4-0.1-0.5c0-0.1-0.1-0.1-0.3-0.1c-0.2,0-0.4,0-0.4-0.1c0-0.1-0.1-0.1-0.2-0.1c-0.3,0-0.4-0.3-0.4-0.9
			c0-0.2,0-0.3,0-0.4c0-0.4,0.1-0.8,0.1-1.2V790c0-0.1,0-0.2,0-0.3c0-0.1,0-0.2,0-0.3c0-0.4,0-0.6,0.1-0.6h0.1
			c0.2,0,0.4,0.1,0.8,0.3c0.4,0.2,0.6,0.4,0.7,0.6c0.2,0.2,0.3,0.4,0.4,0.4c0.1,0,0.2,0.1,0.3,0.3c0.1,0.2,0.2,0.4,0.2,0.5
			c0,0.1,0.1,0.2,0.4,0.5c0.3,0.2,0.4,0.4,0.4,0.6c0,0.1,0.1,0.2,0.3,0.2c0.2,0,0.3,0.1,0.3,0.4c0,0.2,0.1,0.4,0.3,0.4
			c0.3,0,0.3,0.2,0,0.6c-0.2,0.2-0.4,0.2-0.6,0.1c-0.2-0.1-0.3-0.1-0.5,0c-0.1,0.1-0.3,0.2-0.5,0.2c-0.2,0-0.3,0-0.3,0.1
			c0,0.1,0,0.2,0.1,0.2c0.1,0,0.1,0.1,0.1,0.2c0,0.1,0.1,0.2,0.2,0.3c0.2,0.1,0.3,0.1,0.5,0.1c0,0,0,0,0.1,0c0,0,0,0,0.1,0
			c0.2-0.1,0.3,0,0.3,0.1c0,0.1,0.1,0.1,0.2,0c0.1-0.1,0.2-0.2,0.5-0.2c0.2,0,0.8,0,1.8,0c1.4,0,2.2,0.1,2.4,0.2
			c0.2,0.1,0.3,0.2,0.4,0.2c0.2,0,0.2-0.2,0.2-0.5c0-0.4-0.1-0.6-0.2-0.7C97.3,793.5,97,793.5,96.6,793.4z M92.2,782.9
			C92.2,782.9,92.3,782.9,92.2,782.9L92.2,782.9c0.1,0.2,0.1,0.3,0,0.3c0,0,0,0,0-0.1C92.2,783,92.2,783,92.2,782.9z M92,785.4
			c0.1,0,0.1,0,0.1,0c0.1,0,0.1,0,0,0.1c-0.1,0.1-0.2,0.1-0.3,0L92,785.4z M91.5,786.1c0.1,0,0.1,0.1,0.1,0.2c0,0.1,0,0.2-0.1,0.2
			s-0.1-0.1-0.1-0.2C91.4,786.2,91.4,786.1,91.5,786.1z"/>
		<path d="M83.2,798.8c-0.1,0.1-0.1,0.2,0,0.4c0.1,0.1,0.2,0.1,0.3,0.1c0.3-0.1,0.3-0.3,0.1-0.5C83.4,798.6,83.3,798.6,83.2,798.8z"
			/>
		<path d="M95.3,786.2l0.1,0.4l0-0.1c0,0,0-0.1,0.1-0.1c0,0,0.1-0.1,0.1-0.1c0-0.1,0.1-0.1,0.1-0.2c0.2-0.3,0.2-0.4,0-0.4
			C95.4,785.7,95.3,785.8,95.3,786.2z"/>
		<path d="M117.6,782c-0.1,0-0.2,0-0.3,0.1c-0.2,0.1-0.3,0.1-0.3,0.1c-0.1,0-0.1-0.1-0.2-0.2c-0.1-0.2-0.3-0.3-0.4-0.3
			c-0.1,0-0.2-0.1-0.2-0.3c0-0.2-0.1-0.3-0.3-0.3c-0.2,0-0.3,0.1-0.3,0.3c0,0.2,0.1,0.3,0.2,0.3c0.1,0,0.2,0.1,0.2,0.3
			c0,0.2-0.1,0.3-0.2,0.3c-0.2,0-0.3-0.1-0.3-0.4c-0.1-0.2-0.2-0.4-0.3-0.4c-0.1,0-0.1,0-0.2,0.1c-0.2,0.2-0.2,0.3,0,0.3
			c0.1,0,0.2,0.1,0.2,0.1c0,0.1-0.1,0.2-0.4,0.2c-0.2,0-0.4,0-0.4-0.1c0-0.1-0.1-0.1-0.4-0.1c-0.4,0-0.8,0.1-1.1,0.2
			c-0.4,0.2-0.6,0.4-0.6,0.7c0,0.3,0.3,0.5,0.8,0.6c0.4,0.1,0.6,0.1,0.6,0.2c0,0.1,0.1,0.1,0.3,0.1c0.3,0,0.5,0.2,0.6,0.6
			c0.1,0.4,0.2,1.2,0.2,2.4c0,1.4,0.1,2.2,0.1,2.4c0.1,0.1,0,0.3,0,0.6l-0.1,0.4l-0.5-0.5c-0.4-0.3-0.5-0.5-0.5-0.6
			c0-0.1-0.1-0.2-0.2-0.3c-0.1-0.1-0.3-0.2-0.4-0.4c-0.2-0.1-0.3-0.2-0.3-0.2c-0.1-0.1-0.3-0.2-0.3-0.2c-0.1,0-0.2-0.1-0.2-0.2
			c0-0.1-0.1-0.2-0.2-0.3c-0.1-0.1-0.3-0.2-0.4-0.2c-0.1,0-0.1-0.1-0.1-0.2c0-0.1-0.1-0.2-0.2-0.2c-0.1,0-0.1,0-0.1-0.1
			c0-0.1-0.1-0.2-0.4-0.5c-0.2-0.3-0.4-0.4-0.4-0.5c0-0.1-0.1-0.2-0.3-0.2c-0.2,0-0.3-0.1-0.5-0.2c-0.2-0.1-0.2-0.3-0.2-0.4
			c0-0.1-0.2-0.3-0.5-0.7c-0.3-0.4-0.5-0.6-0.5-0.7c0-0.1-0.1-0.2-0.3-0.4s-0.3-0.4-0.3-0.4c0-0.3-0.6-0.5-1.8-0.6
			c-0.6,0-0.9-0.1-0.9-0.1c-0.3,0-0.4,0.1-0.4,0.2c0,0.1,0,0.2,0,0.4c0,0.2,0,0.4,0.1,0.6c0.1,0.2,0.1,0.3,0.2,0.3
			c0.1,0,0.2,0.2,0.3,0.6c0.1,0.4,0.2,0.6,0.2,0.6c0.1,0,0.1,0.3,0.1,0.8c0,0.5,0,0.8-0.1,0.8c-0.1,0-0.1,0.1-0.1,0.4
			c0,0.2,0.1,0.6,0.2,1c0.1,0.2,0.1,0.6,0.1,1.1c0,0.7-0.1,1.1-0.2,1.1c-0.1,0-0.1,0.2-0.1,0.7c0,0.5,0,1.1-0.1,1.5
			c0,0.4-0.1,0.6-0.1,0.7c-0.1,0.1-0.2,0.2-0.4,0.2c-0.3,0.1-0.4,0.2-0.4,0.4c0,0.2,0.1,0.4,0.4,0.6c0.2,0.2,0.3,0.3,0.5,0.3
			c0.2,0,0.8,0,1.7,0c1,0,1.6,0,1.8-0.1c0.2-0.1,0.3-0.3,0.3-0.8c0-0.3-0.1-0.4-0.3-0.5c-0.2-0.1-0.3-0.1-0.3-0.2
			c0-0.1-0.2-0.1-0.6-0.1c-0.4,0-0.7-0.1-0.9-0.3c-0.2-0.2-0.2-0.3-0.1-0.4c0.1-0.1,0.2-0.2,0.2-0.6c0-0.3,0-0.5-0.1-0.5
			c-0.1-0.1-0.1-0.9-0.1-2.6c0-1.7,0.1-2.5,0.2-2.5c0.1,0,0.3,0.1,0.4,0.2c0.1,0.1,0.3,0.2,0.5,0.3c0.3,0.1,0.4,0.3,0.5,0.4
			c0,0.2,0.3,0.5,0.8,1.1c0.5,0.5,0.9,0.9,1.3,1.1c0.2,0.1,0.3,0.2,0.3,0.3c0,0.1,0.2,0.2,0.5,0.6c0.7,0.7,1.1,1.1,1.1,1.4
			c0,0.1,0.1,0.1,0.3,0.1c0.2,0,0.3,0,0.3,0.1c0,0.1,0.1,0.3,0.4,0.5c0.2,0.2,0.4,0.4,0.4,0.6c0,0.1,0.1,0.3,0.3,0.5
			c0.2,0.2,0.3,0.3,0.4,0.3c0.1,0,0.3,0.2,0.6,0.5c0.3,0.3,0.5,0.5,0.7,0.6c0.1,0.1,0.2,0.1,0.3,0.1c0.4,0,0.6-0.2,0.6-0.6
			c0-0.1,0-0.2,0-0.4c0-0.9-0.1-1.4-0.2-1.6c-0.1-0.1-0.1-0.5-0.1-1.3v-0.4c0-1,0-1.6-0.1-1.6c-0.1-0.1-0.2-0.4-0.2-1
			c0-0.5,0-0.8,0.1-0.8c0.1-0.1,0.2-0.2,0.2-0.5s0-0.4,0.1-0.4c0.1,0,0.1-0.1,0.1-0.4c0-0.3,0-0.4-0.1-0.4c-0.1,0-0.1-0.1-0.1-0.4
			c0-0.4,0.1-0.7,0.2-1c0.2-0.3,0.4-0.5,0.7-0.5c0.2,0,0.4-0.1,0.4-0.1c0.1,0,0.1-0.2,0.1-0.5v-0.2C117.9,782.3,117.8,782,117.6,782
			z"/>
		<path d="M130.8,782c-0.1-0.1-0.7-0.1-1.8-0.1c-1,0-1.5,0-1.5,0.1c0,0.1-0.2,0.1-0.5,0.1c-0.3,0-0.5,0.1-0.5,0.2
			c0,0.1,0,0.2-0.1,0.2c-0.1,0-0.1,0.1-0.1,0.3c0,0.3,0.1,0.4,0.2,0.5c0.1,0.1,0.2,0.5,0.2,1.3c0,0.8,0,1.2,0.1,1.3
			c0.1,0,0.1,0.4,0.1,1.1c0,0.7,0,1-0.1,1.1c-0.1,0-0.2,0.8-0.2,2.2c0,1.2-0.1,2-0.2,2.2c-0.1,0.2-0.4,0.4-0.9,0.5
			c-0.3,0-0.5,0.1-0.5,0.1c-0.1,0.1-0.1,0.2-0.1,0.4c0,0.3,0.1,0.5,0.2,0.5c0.2,0,0.3,0.1,0.5,0.2c0.2,0.2,0.3,0.2,0.3,0.1
			c0.1-0.1,0.8-0.2,2.1-0.2c1.1,0,1.6,0.1,1.6,0.2c0,0.1,0.1,0.1,0.3,0.1c0.2,0,0.3,0,0.3-0.1s0.1-0.2,0.3-0.3
			c0.2-0.1,0.3-0.2,0.3-0.3c0-0.4-0.4-0.7-1-0.8L129,793l0.1-3.5c0-2.3,0.1-3.5,0.2-3.6c0.1-0.1,0.1-0.4,0.1-1
			c0.1-1.1,0.2-1.6,0.4-1.6c0.1,0,0.2,0,0.2-0.1c0-0.1,0.1-0.2,0.4-0.2c0.2,0,0.4-0.1,0.5-0.2c0.1-0.1,0.2-0.2,0.2-0.4
			C131,782.3,131,782.1,130.8,782z M127.3,790.9c-0.1,0-0.2,0-0.2-0.1c0-0.1,0.1-0.1,0.2-0.1c0.1,0,0.2,0,0.2,0.1
			C127.5,790.9,127.5,790.9,127.3,790.9z M128.2,787.1c-0.1,0-0.2-0.1-0.2-0.3c0-0.2,0.1-0.3,0.2-0.3c0.1,0,0.2,0.1,0.2,0.3
			C128.4,787,128.3,787.1,128.2,787.1z"/>
		<path d="M147.3,790.1c-0.3,0-0.5,0-0.6,0c-0.7,0-1.1,0-1.3,0.1c-0.2,0.1-0.4,0.2-0.4,0.3c0,0.1-0.1,0.2-0.1,0.3
			c0,0.2,0.1,0.3,0.3,0.4c0.2,0.1,0.5,0.2,0.9,0.2c0.7,0.1,1,0.2,1,0.3c0,0-0.1,0.2-0.2,0.5c-0.1,0.3-0.3,0.5-0.5,0.5
			c-0.2,0-0.4,0.1-0.6,0.4c-0.1,0.2-0.2,0.3-0.3,0.3c0,0-0.1,0-0.1-0.1c0-0.1-0.1-0.1-0.1-0.1c-0.1,0-0.2,0-0.3,0.1
			c-0.1,0.1-0.4,0.2-0.8,0.2c-0.3,0-0.5,0-0.7,0c-0.6,0-1.1-0.1-1.2-0.2c-0.2-0.1-0.3-0.3-0.3-0.6c0-0.2-0.1-0.4-0.3-0.5
			c-0.2-0.1-0.3-0.2-0.3-0.4c0-0.1,0-0.2-0.1-0.2c-0.3,0-0.5-0.5-0.7-1.4c-0.1-0.7-0.2-1-0.3-1c-0.1,0-0.1-0.1-0.1-0.2
			c0-0.1,0-0.2,0.1-0.3c0.2,0,0.3-0.7,0.3-1.9c0-0.2,0.1-0.2,0.3-0.2c0.2,0,0.3-0.1,0.3-0.2c0-0.1,0-0.2-0.2-0.4
			c-0.1-0.1-0.1-0.2,0-0.2c0.2,0,0.4-0.1,0.6-0.2c0.2-0.1,0.4-0.3,0.4-0.4c0-0.1,0.1-0.3,0.3-0.4c0.2-0.1,0.4-0.2,0.7-0.2
			c0.2,0,0.3-0.1,0.3-0.2c0-0.1,0.2-0.2,0.7-0.2c0.1,0,0.2,0,0.4,0c0.5,0,0.9,0.2,1.1,0.5c0.1,0.2,0.4,0.3,0.6,0.4
			c0.2,0.1,0.4,0.2,0.4,0.3v0.2c0,0.1,0,0.2,0.1,0.3c0.1,0.1,0.2,0.2,0.3,0.5c0.1,0.2,0.1,0.3,0.2,0.4c0.1,0.1,0.2,0.1,0.5,0.1
			c0.2,0,0.3,0.1,0.4,0.1c0.1,0,0.2-0.1,0.3-0.4c0.1-0.2,0.1-0.5,0.1-0.9c0-0.3,0-0.5,0.1-0.5c0.1,0,0.1-0.1,0.1-0.2
			c0-0.3-0.1-0.6-0.2-0.9c-0.1-0.1-0.1-0.2-0.2-0.3c-0.1,0-0.4,0-0.8,0c-0.6,0-1,0-1.1-0.1c-0.1-0.1-0.8-0.2-2.1-0.2
			c-0.6,0-0.9,0-1.1,0.1c-0.7,0.1-1.1,0.2-1.2,0.3c-0.2,0.1-0.7,0.5-1.6,1.3c-0.8,0.8-1.2,1.2-1.2,1.3c0,0.1-0.1,0.2-0.2,0.4
			c-0.1,0.2-0.2,0.4-0.2,0.6c0,0.3,0,0.4-0.1,0.5c-0.1,0.1-0.2,0.2-0.2,0.3c0,0.2-0.1,0.3-0.2,0.4c-0.1,0.1-0.2,0.6-0.2,1.4
			c0,1,0.1,1.5,0.2,1.6c0.1,0,0.1,0.1,0.1,0.2c0,0.1,0,0.2-0.1,0.2c-0.1,0,0,0.2,0.2,0.4c0.3,0.2,0.4,0.4,0.5,0.4
			c0.1,0,0.1,0.1,0.2,0.3c0.1,0.2,0.2,0.4,0.6,0.7c0.3,0.3,0.6,0.5,0.8,0.6c0.2,0.1,0.2,0.1,0.2,0.2c0,0.1,0.3,0.2,1,0.3
			c0.6,0.1,1.3,0.1,2.1,0.1c1,0,1.6-0.1,1.8-0.3c0.1-0.1,0.3-0.2,0.6-0.3c0.4-0.1,0.6-0.2,0.7-0.2c0,0,0.1,0,0.1,0
			c0,0-0.1,0.2-0.2,0.5c-0.1,0.3-0.2,0.5-0.2,0.5c0,0.2,0.2,0.3,0.6,0.3c0.2,0,0.4,0,0.6,0c1-0.1,1.5-0.2,1.5-0.4
			c0-0.1-0.1-0.3-0.4-0.5c-0.2-0.1-0.3-0.3-0.3-0.4c0-0.2-0.1-0.6-0.1-1.2l-0.1-1.3l0.5,0.1c0.3,0,0.5,0,0.6-0.2
			c0.1-0.2,0.3-0.3,0.6-0.3c0.3,0,0.4-0.1,0.4-0.1c0-0.1,0.1-0.2,0.1-0.5v-0.6l-2.4-0.1C147.9,790.1,147.6,790.1,147.3,790.1z"/>
		<path d="M170.8,782.6c-0.2-0.1-0.5-0.1-0.8-0.1c-0.1,0-0.2,0-0.5,0.1c-0.3,0.1-0.5,0.1-0.7,0.1h-0.1h-0.2c-0.2,0-0.5,0-1,0.1
			c-0.4,0-0.7,0.1-0.8,0.1c-0.1,0-0.2,0.1-0.2,0.2c0,0.2,0,0.3-0.1,0.3c-0.1,0-0.1,0-0.1,0.1c0,0.1,0,0.2,0,0.3
			c0,0.1,0.1,0.2,0.2,0.2c0.1,0.1,0.2,0.5,0.2,1.3c0,0.8,0.1,1.2,0.2,1.2c0.1,0,0.1,0.3,0.1,0.8v0.8h-1.3c-0.8,0-1.7,0-2.7-0.1
			l-1.4-0.1v-0.7c0-0.5,0-0.7,0.1-0.7c0.1,0,0.1-0.3,0.2-0.9c0-1.1,0.1-1.6,0.4-1.6c0.1,0,0.2,0,0.2-0.1c0-0.1,0.1-0.2,0.4-0.2
			c0.2,0,0.4-0.1,0.5-0.2c0.1-0.1,0.2-0.2,0.2-0.4c0-0.2-0.1-0.3-0.2-0.4c-0.2-0.1-0.5-0.2-1-0.2c-0.3,0-0.4,0-0.5,0.1
			c0,0-0.5,0.1-1.3,0.1c-0.9,0.1-1.7,0.2-2.4,0.5c-0.1,0-0.2,0.1-0.2,0.2c0,0.1,0.2,0.2,0.6,0.4l0.6,0.3l0,0.8v0.9v0.3
			c0,0.2,0,0.4,0.1,0.4c0.1,0.1,0.2,0.5,0.2,1.1c0,0.6-0.1,1.1-0.2,1.4c-0.1,0.3-0.2,0.5-0.2,0.8c0,0,0,0,0,0.1c0,0,0,0.1,0,0.1
			c0,0.2,0.1,0.4,0.1,0.6c0,0.5,0,1.1-0.1,1.8c-0.1,0.6-0.2,1-0.2,1.2c-0.1,0.2-0.4,0.3-0.8,0.3c-0.3,0-0.5,0.1-0.6,0.1
			c-0.1,0.1-0.1,0.2-0.1,0.4v0.5l0.7-0.1c0.3-0.1,1-0.1,2.2-0.1h0.7h0.7c1,0,1.6,0,1.6-0.1c0-0.1-0.1-0.3-0.2-0.5
			c-0.2-0.2-0.3-0.3-0.4-0.3h-0.1c-0.2,0.1-0.4,0.1-0.6-0.1c-0.1-0.1-0.2-0.1-0.3-0.2c0-0.1-0.1-0.2-0.1-0.4c0-0.3,0-0.5,0-0.8
			c0-0.9,0.1-1.6,0.1-2.1v-0.8h4.9l0.1,0.4c0,0.2,0.1,0.5,0.1,0.7c0,0.5,0,1.1-0.1,1.7c-0.1,0.6-0.2,1-0.3,1
			c-0.1,0.1-0.4,0.2-0.8,0.3c-0.3,0-0.5,0.1-0.5,0.1c-0.1,0.1-0.1,0.2-0.1,0.4c0,0.3,0.1,0.5,0.3,0.5c0.3,0.1,1.3,0.1,3.1,0.1
			c1.3,0,2,0,2.1-0.1c0.2-0.1,0.3-0.2,0.3-0.4c0-0.2-0.1-0.3-0.2-0.5c-0.1-0.2-0.3-0.2-0.4-0.2c0,0-0.1,0-0.1,0
			c-0.1,0.1-0.3,0.1-0.5,0l-0.4-0.1l0.1-3.5c0-2.3,0.1-3.5,0.2-3.6c0.1,0,0.1-0.3,0.1-0.9c0.1-1.1,0.2-1.6,0.4-1.6
			c0.1,0,0.2,0,0.2-0.1c0-0.1,0.1-0.2,0.4-0.2c0.2,0,0.4-0.1,0.5-0.2c0.2-0.1,0.2-0.3,0.2-0.4C171.2,782.8,171.1,782.7,170.8,782.6z
			 M160,791.5c-0.2-0.1-0.3-0.1-0.3-0.2c0-0.1,0-0.1,0.1-0.1c0.2,0,0.3,0.1,0.4,0.2c0,0,0,0,0,0.1
			C160.2,791.6,160.1,791.6,160,791.5z M160.7,791.5c-0.1,0-0.1-0.1-0.1-0.2c0-0.1,0-0.2,0.1-0.2c0.1,0,0.2,0.1,0.2,0.2
			C160.8,791.4,160.8,791.5,160.7,791.5z M160.7,787.8c-0.1,0-0.2-0.1-0.2-0.3c0-0.3,0.1-0.4,0.2-0.4c0.2,0,0.2,0.1,0.2,0.3
			C160.9,787.7,160.8,787.8,160.7,787.8z M167.8,791.5c-0.1,0.1-0.2,0.1-0.4,0c-0.2-0.1-0.3-0.1-0.3-0.2c0-0.1,0.1-0.1,0.2-0.1
			c0.3,0,0.5,0.1,0.5,0.2C167.9,791.5,167.8,791.5,167.8,791.5z M168.2,791.5c-0.1,0-0.2-0.1-0.2-0.2c0-0.1,0.1-0.2,0.2-0.2
			c0.1,0,0.1,0.1,0.1,0.2C168.3,791.4,168.3,791.5,168.2,791.5z M168.2,787.8c-0.1,0-0.2-0.1-0.2-0.3c0-0.3,0.1-0.4,0.2-0.4
			c0.1,0,0.2,0.1,0.2,0.3C168.4,787.7,168.3,787.8,168.2,787.8z"/>
		<path d="M189.9,785.3c0.1,0,0.2-0.2,0.2-0.5c0-0.2,0-0.4-0.1-0.4c-0.1,0-0.1-0.1-0.1-0.3c0-0.2,0.1-0.4,0.2-0.6
			c0.1-0.3,0.1-0.5-0.2-0.6c-0.2-0.2-0.5-0.3-0.9-0.3c-0.5,0-0.8,0.1-1.1,0.4c-0.3,0.2-0.4,0.3-0.5,0.2c-0.1-0.1-0.4-0.1-0.8,0
			c-0.5,0.1-1.4,0.2-2.6,0.2c-0.9,0-1.4,0-1.5-0.1c-0.1-0.1-0.2,0-0.4,0.2c-0.1,0.1-0.3,0.2-0.4,0.2c-0.2,0-0.4,0-0.7-0.1
			c-0.7-0.2-1.1-0.2-1.3-0.2c-0.1,0-0.2,0-0.2,0c-0.1,0-0.3,0.1-0.4,0.3c-0.1,0.2-0.2,0.4-0.2,0.5c0,0.1,0,0.1,0.1,0.2
			c0,0,0.1,0.2,0.1,0.5c0,0.1,0,0.2-0.1,0.3c-0.1,0-0.2,0.1-0.3,0.1c-0.3,0-0.5,0.1-0.5,0.3c0,0,0,0.1,0.1,0.2
			c0.1,0.1,0.1,0.3,0.1,0.6c0,0.3-0.1,0.4-0.1,0.5c0,0.5,0.2,0.8,0.6,0.8c0.3,0,0.4-0.1,0.4-0.2c0-0.1,0.1-0.2,0.2-0.2
			c0.1,0,0.1,0,0.2-0.1c0,0,0-0.1,0-0.2c0-0.1-0.1-0.2-0.2-0.2c-0.1-0.1-0.1-0.1-0.1-0.2c0,0,0-0.1,0-0.1c0,0,0-0.1,0.1-0.1
			c0,0,0.1,0,0.2-0.1c0.2-0.1,0.2-0.2,0.2-0.3c0,0,0-0.1,0-0.2c0-0.1,0-0.1,0-0.2c0-0.1,0-0.2,0.1-0.2c0.1-0.1,0.1-0.3,0-0.6
			c-0.1-0.3-0.1-0.4,0-0.4c0.1,0,0.1,0.1,0.1,0.2c0,0.1,0.2,0.2,0.5,0.4c0.4,0.1,0.7,0.2,1.1,0.2c0.4,0,0.7,0.1,0.8,0.3
			c0.2,0.2,0.3,0.2,0.5,0.2c0.1,0,0.1,0,0.1,0c0.1,0,0.1,0,0,0.1c-0.3,0.3-0.4,2.2-0.5,5.8c0,0.8-0.1,1.2-0.3,1.4
			c-0.2,0.1-0.3,0.3-0.3,0.4c0,0.1-0.3,0.2-0.8,0.2l-0.7,0.1l-0.1,0.5c0,0,0,0.1,0,0.1c0,0,0,0.1,0,0.1c0,0.2,0.1,0.4,0.4,0.7
			c0.3,0.3,0.5,0.4,0.7,0.4c0.1,0,0.1,0,0.1-0.1c0-0.1,0-0.1-0.1-0.1c-0.1,0-0.1,0-0.1-0.1c0-0.1,0.2-0.1,0.5-0.1c0.1,0,0.4,0,0.8,0
			c0.4,0,0.7,0,0.9,0c0.6,0,0.9-0.1,1.1-0.2c0.1-0.1,0.3-0.2,0.6-0.1c0.2,0.1,0.3,0,0.4-0.1c0.1-0.1,0.2-0.1,0.3-0.1
			c0.1,0,0.3-0.1,0.5-0.2c0.1-0.1,0.2-0.2,0.2-0.3c0-0.1-0.1-0.2-0.2-0.5c-0.2-0.3-0.3-0.4-0.5-0.4c-0.1,0-0.2-0.1-0.2-0.2
			c0-0.1-0.1-0.2-0.3-0.1c0,0-0.1,0-0.1,0c-0.1,0-0.1,0-0.1,0c-0.1,0-0.2,0-0.3-0.1c0-0.1-0.1-0.3-0.1-0.5v-0.4c0-0.5,0-0.8,0-0.9
			c0-0.1,0.1-0.2,0.2-0.2c0.2,0,0.2-0.1,0.2-0.4c0-0.3-0.1-0.5-0.2-0.5c-0.1,0-0.2-0.4-0.2-1.1c0-0.8,0.1-1.2,0.2-1.4
			c0.1-0.1,0.2-0.5,0.2-1.2c0-0.7,0.1-1,0.1-1.1c0.1-0.2,0.5-0.2,1.2-0.2c1,0,1.5,0.1,1.6,0.4c0,0.1,0.1,0.2,0.4,0.5
			c0.2,0.2,0.3,0.4,0.3,0.8c0,0.3,0.1,0.5,0.1,0.5c0,0.1,0.2,0.1,0.4,0.1c0.2,0,0.4,0,0.4-0.1c0-0.1,0.1-0.2,0.3-0.2
			c0.2-0.1,0.3-0.2,0.3-0.4c0-0.2-0.1-0.4-0.2-0.5C189.8,785.4,189.8,785.3,189.9,785.3z"/>
		<path d="M221.5,785.7c-0.2-0.1-0.2-0.2-0.2-0.5c0-0.3,0-0.5-0.1-0.5c-0.1,0-0.1-0.1-0.1-0.4c0-0.3-0.1-0.4-0.2-0.4
			c-0.1,0-0.2-0.1-0.3-0.3c-0.1-0.2-0.2-0.3-0.3-0.4c-0.1-0.1-0.2-0.2-0.2-0.4c0-0.2-0.1-0.3-0.4-0.3c-0.7,0-1-0.1-1-0.4
			c0-0.1-0.1-0.2-0.2-0.2c-0.1,0-0.2,0-0.2-0.1c0-0.1-0.1-0.1-0.3-0.1c-0.2,0-0.3-0.1-0.4-0.2c0-0.1-0.5-0.2-1.5-0.2
			c-0.9,0-1.5,0.1-1.6,0.2c-0.1,0.1-0.2,0.2-0.4,0.2c-0.2,0-0.3,0.1-0.4,0.3c-0.1,0.2-0.3,0.4-0.6,0.4c-0.3,0-0.6,0.1-1.1,0.2
			c-0.5,0.1-0.7,0.3-0.8,0.5c0,0.2-0.2,0.4-0.5,0.7c-0.3,0.3-0.4,0.5-0.4,0.5c0,0.1-0.1,0.1-0.2,0.1c-0.1,0-0.2,0.1-0.3,0.4
			c-0.1,0.2-0.2,0.4-0.3,0.7c-0.2,0.3-0.2,0.8-0.2,1.8c0,1.2,0.1,2.1,0.4,2.9c0.5,1.4,0.9,2.2,1.2,2.3c0.2,0,0.3,0.1,0.3,0.3
			c0,0.2,0.2,0.2,0.4,0.2c0.2,0,0.4,0,0.4,0.1c0,0.1,0.1,0.1,0.3,0.1c0.2,0,0.3,0.1,0.3,0.4c0,0.2,0,0.3,0.1,0.4
			c0.1,0.1,0.2,0,0.4-0.1c0.1-0.1,0.2-0.1,0.3,0c0.2,0.1,0.9,0.2,2.2,0.2c1.1,0,1.7-0.1,1.7-0.2c0-0.1,0.3-0.2,0.7-0.2
			c0.4,0,0.6-0.1,0.6-0.2c0-0.2,0.1-0.3,0.2-0.3c0,0,0.2-0.1,0.4-0.3c0.3-0.2,0.4-0.3,0.5-0.3c0.1,0,0.2-0.1,0.2-0.3
			c0.1-0.2,0.2-0.3,0.3-0.3c0.1,0,0.2-0.1,0.3-0.3c0-0.2,0.2-0.3,0.4-0.3c0.2-0.1,0.3-0.1,0.3-0.2c0-0.1,0.1-0.1,0.2-0.1
			c0.1,0,0.2-0.2,0.2-0.6c0-0.3,0-0.5-0.1-0.5c-0.1,0-0.1-0.1,0-0.2c0.1-0.1,0.2-0.8,0.2-2.1c0-0.3,0-0.7,0-1.1
			C221.7,786,221.7,785.7,221.5,785.7z M219.3,788.8c-0.1,0-0.2,0.2-0.2,0.4c0,0.3-0.1,0.4-0.2,0.5c-0.1,0.1-0.2,0.4-0.3,0.8
			c-0.1,0.4-0.1,0.6-0.3,0.6c-0.1,0-0.2,0-0.2,0.1c0,0.1-0.1,0.2-0.4,0.2c-0.3,0.1-0.4,0.2-0.4,0.3c0,0.1,0,0.2-0.1,0.2
			c-0.1,0.1-0.2,0.1-0.4,0.2c-0.1,0.1-0.2,0.1-0.3,0.1c0,0.1-0.2,0.1-0.4,0.1c-0.2,0-0.3,0.1-0.5,0.2c-0.1,0.1-0.2,0.1-0.4,0.1
			c-0.2,0-0.4,0-0.7-0.1c-0.5-0.1-1-0.3-1.3-0.6c-0.3-0.3-0.7-0.8-1-1.5c-0.3-0.5-0.4-0.9-0.5-1.1c0-0.2-0.1-0.7-0.1-1.4
			c0-0.7,0-1.1,0.1-1.4c0-0.2,0.1-0.5,0.3-0.8c0.3-0.5,0.6-0.9,1-1.3c0.4-0.4,0.8-0.6,1-0.7c0.3,0,0.5-0.1,0.5-0.3
			c0-0.1,0.1-0.2,0.2-0.2c0.1,0,0.2,0,0.2-0.1c0-0.1,0.1-0.1,0.3-0.1c0.2,0,0.3,0,0.3,0.1c0,0.1,0.3,0.1,0.9,0.1
			c0.5,0,0.8,0.1,0.8,0.2c0,0.1,0.1,0.2,0.3,0.3c0.2,0.1,0.3,0.2,0.3,0.3s0.1,0.2,0.3,0.3c0.3,0.1,0.5,0.4,0.5,0.8
			c0,0.2,0.1,0.5,0.3,0.8c0.2,0.3,0.3,0.7,0.3,1.1c0,0.5,0,0.7,0.1,0.8c0.1,0.1,0.1,0.2,0.1,0.4
			C219.5,788.6,219.4,788.7,219.3,788.8z"/>
		<path d="M239.3,783.9c0-0.3-0.1-0.5-0.2-0.6c-0.1-0.1-0.1-0.2,0-0.4c0.1-0.1,0.1-0.2,0.1-0.2c0-0.1-0.1-0.2-0.2-0.2
			c-0.1-0.1-0.2-0.2-0.2-0.3c0-0.2-0.1-0.3-0.3-0.5s-0.4-0.3-0.5-0.3c-0.1,0-0.2,0-0.2,0.1c0,0.1-0.3,0.1-0.9,0.2
			c-0.5,0.1-1.1,0.1-1.7,0.1c-0.6,0-0.9,0-1,0.1c-0.1,0-0.5,0.1-1.4,0.1c-0.9,0.1-1.8,0.2-2.7,0.3c-0.9,0.1-1.4,0.2-1.4,0.2
			c0,0,0,0.1,0,0.2c0,0.1,0,0.2,0.1,0.3c0.1,0.2,0.1,0.3,0.2,0.4c0.1,0,0.3,0.1,0.6,0.1c0.5,0,0.9,0.1,1,0.3
			c0.1,0.2,0.2,0.7,0.2,1.6c0,0.9-0.1,1.4-0.2,1.5c-0.1,0.1-0.1,0.2,0,0.4c0.1,0.3,0.2,0.5,0,0.7c-0.1,0.2-0.2,0.3-0.3,0.3
			c-0.1,0,0,0.1,0.1,0.2c0.1,0.1,0.1,0.3,0.1,0.6c0,0.1,0,0.4-0.1,0.8c-0.1,1.4-0.2,2.3-0.2,2.6c-0.1,0.4-0.1,0.5-0.3,0.6
			c-0.2,0.1-0.5,0.3-0.8,0.6l-0.5,0.6h5v-0.5c0-0.2,0-0.4-0.1-0.4c0-0.1-0.1-0.1-0.3-0.1c-0.2,0-0.4,0-0.4-0.1
			c0-0.1-0.1-0.1-0.2-0.1c-0.1,0-0.2-0.1-0.3-0.3c0-0.1,0-0.4,0-1.2c0-1.2,0-2.1,0.1-2.8c0-0.1,0.5-0.1,1.4-0.1
			c0.8,0,1.3,0.1,1.5,0.2c0.3,0.1,0.4,0.4,0.4,0.9c0,0.3,0,0.5,0.1,0.5c0.1,0,0.1-0.1,0.3-0.2c0.1-0.1,0.3-0.2,0.5-0.1
			c0.2,0.1,0.3,0,0.3-0.2c0-0.2,0-0.3,0.1-0.4c0.1-0.1,0.1-0.2,0-0.2c-0.1-0.1-0.2-0.3-0.2-0.6c0-0.4,0.1-0.7,0.2-0.8
			c0.1-0.1,0.1-0.1,0.1-0.2c0-0.1,0-0.1-0.1-0.2c-0.1-0.1-0.1-0.2-0.1-0.2c0-0.1,0-0.1,0.1-0.2c0.2-0.1,0.2-0.2,0.2-0.4
			c0-0.3-0.4-0.4-1.1-0.4c-0.4,0-0.6,0.2-0.6,0.5c0,0.1,0,0.2,0.1,0.3c0.1,0.2,0,0.4,0,0.5c-0.1,0.1-0.4,0.2-1,0.3
			c-0.6,0.1-1.1,0.2-1.6,0.2h-0.5v-0.6c0-0.4,0.1-0.6,0.2-0.7c0.1-0.1,0.2-0.2,0.2-0.4c0-0.3-0.1-0.5-0.2-0.8
			c-0.1-0.2-0.2-0.4-0.2-0.4c0-0.1,0.1-0.1,0.2-0.3c0.2-0.2,0.3-0.4,0.2-0.6c0-0.1,0-0.1,0-0.2c0-0.1,0.1-0.2,0.4-0.3
			c0.3-0.1,0.8-0.1,1.6-0.1c0.7,0,1.1-0.1,1.1-0.1c0.3,0,0.5,0.1,0.7,0.2c0.2,0.2,0.3,0.3,0.5,0.4c0.2,0.1,0.3,0.2,0.3,0.3
			c0,0.1,0.1,0.3,0.3,0.4c0.2,0.1,0.4,0.3,0.5,0.6c0.1,0.4,0.4,0.5,0.8,0.5c0.1,0,0.2,0,0.3-0.1c0.1-0.1,0.2-0.2,0.2-0.6
			c0-0.3-0.1-0.5-0.2-0.5C239.4,784.4,239.3,784.2,239.3,783.9z"/>
		<path d="M265.2,780.6C265.3,780.6,265.3,780.5,265.2,780.6c0.1-0.1,0-0.1-0.2-0.1c-0.2,0-0.3,0.1-0.3,0.2
			C264.8,780.7,265,780.7,265.2,780.6C265.2,780.6,265.2,780.6,265.2,780.6z"/>
		<path d="M260.8,779.6c0-0.1-0.1-0.1-0.3-0.1s-0.3,0-0.3,0.1c0,0.1,0.1,0.2,0.3,0.2S260.8,779.7,260.8,779.6z"/>
		<path d="M268.5,782.4c-0.1,0-0.2,0-0.2-0.1c0-0.1-0.1-0.2-0.4-0.3c-0.3-0.1-0.4-0.3-0.5-0.5l-0.2-0.3c-0.1-0.1-0.2-0.1-0.2,0.1
			c0,0.1-0.3,0.1-0.8,0.1c-0.6,0-0.9,0-0.9-0.1c0-0.1-0.1-0.1-0.3-0.1c-0.5,0-0.8-0.1-0.8-0.4c0-0.1-0.1-0.2-0.3-0.2
			s-0.3,0.1-0.2,0.3c0,0,0,0,0,0.1c0,0,0,0,0,0.1c0,0.1-0.6,0.2-1.8,0.2h-1.8l-0.5,0.5c-0.3,0.3-0.5,0.5-0.5,0.7
			c0,0.2,0.2,0.4,0.7,0.4c0.2,0,0.3,0,0.3,0.1c0,0.1,0,0.1,0.1,0.1c0.2,0,0.4,0.2,0.6,0.5c0.2,0.3,0.3,0.7,0.3,1.2
			c0,0.4,0.1,0.6,0.1,0.6c0,0.2-0.1,0.4-0.2,0.5c-0.2,0.1-0.2,0.2-0.1,0.3c0.1,0.1,0.2,0.3,0.2,0.7c0,0.3-0.1,0.5-0.2,0.5
			c-0.2,0-0.2,0,0,0.1c0.1,0.1,0.1,0.3,0,0.6c-0.1,0.3-0.1,0.5,0.1,0.6c0.1,0.1,0.1,0.2,0.1,0.3c0,0.2-0.1,0.4-0.2,0.5
			c-0.1,0.1-0.1,0.6-0.2,1.6l0,1.5l-0.4,0.2c-0.2,0.1-0.5,0.2-1.1,0.2c-0.3,0-0.5,0.1-0.5,0.1c-0.1,0.1-0.1,0.2-0.1,0.4
			c0,0.2,0.2,0.5,0.6,0.8c0.2,0.1,0.3,0.2,0.5,0.2c0.2,0,0.3-0.1,0.3-0.2c0.1-0.1,0.8-0.2,2.1-0.2c1.4-0.1,2.1-0.1,2.2-0.3
			c0.1-0.1,0.2-0.2,0.3-0.2c0.1,0,0.2-0.1,0.2-0.2c0-0.1-0.1-0.2-0.4-0.2c-0.3,0-0.4-0.1-0.5-0.3c0-0.2-0.2-0.3-0.5-0.4
			c-0.4-0.1-0.5-0.2-0.5-0.4c0-0.1,0-0.2,0.1-0.3c0.2-0.2,0.2-0.3,0.1-0.4c-0.1,0-0.2-0.6-0.2-1.6c0-0.3,0-0.6,0-1
			c0-0.3,0-0.4,0.1-0.5c0-0.1,0.1-0.1,0.2-0.1c0.2,0,0.5,0,0.8,0.1c0.3,0.1,0.5,0.2,0.6,0.3c0.1,0.1,0.7,0.2,1.7,0.2
			c0.8,0,1.2,0,1.2-0.1c0.1-0.1,0-0.2-0.2-0.3c-0.2-0.1-0.4-0.2-0.5-0.4c-0.1-0.1-0.2-0.2-0.2-0.2c0,0,0.1-0.1,0.3-0.1
			c0.3-0.1,0.4-0.1,0.4-0.2c0-0.1,0.1-0.2,0.4-0.3c0.3-0.1,0.4-0.2,0.4-0.4c0-0.5,0.1-0.7,0.3-0.7c0.1,0,0.2-0.1,0.4-0.2
			c0.2-0.2,0.2-0.7,0.2-1.5c0-1-0.1-1.5-0.3-1.7C268.7,782.5,268.6,782.4,268.5,782.4z M266.9,786.1c0,0-0.1,0.1-0.4,0.1h-0.1
			c0,0-0.1,0-0.1,0c-0.1,0-0.1,0,0,0.1c0.1,0.1,0.2,0.1,0.2,0.2c0,0.1-0.1,0.3-0.3,0.5c-0.2,0.2-0.5,0.3-0.7,0.3
			c-0.3,0-0.6,0.1-1.1,0.2c-0.1,0-0.2,0-0.3,0c-0.2,0-0.4-0.1-0.7-0.3c-0.2-0.2-0.3-0.3-0.4-0.3c0-0.1,0-0.1,0.1-0.2
			c0.1-0.1,0.2-0.7,0.2-1.6v-1.2c0-0.3,0.1-0.5,0.2-0.7c0.1-0.2,0.3-0.4,0.4-0.4h0.1l0.4,0.1c0.3,0,0.5,0.1,0.8,0.1
			c0.2,0.1,0.4,0.1,0.4,0.1c0,0.1,0.1,0.1,0.4,0.2c0.3,0.1,0.4,0.2,0.4,0.3c0,0.1,0.1,0.3,0.2,0.4c0.1,0.1,0.2,0.2,0.1,0.3
			c-0.1,0.1-0.1,0.3,0.1,0.6c0.1,0.2,0.2,0.4,0.2,0.6C267,785.3,266.9,785.6,266.9,786.1z"/>
		<path d="M286.3,790.2c-0.1,0-0.3,0.2-0.5,0.5s-0.4,0.5-0.4,0.7c0,0.1-0.1,0.2-0.4,0.2c-0.1,0-0.2,0-0.3,0.1c0,0-0.1,0.1-0.1,0.1
			c0,0,0,0.1,0,0.3c0,0.2-0.1,0.3-0.4,0.3c0,0-0.1,0-0.1,0c-0.1,0-0.1,0-0.2,0c-0.2,0-0.4,0.1-0.6,0.3c-0.2,0.2-0.4,0.3-0.6,0.3
			c-0.1,0-0.2-0.1-0.2-0.2c0-0.1-0.1-0.1-0.4,0c-0.2,0.1-0.6,0.2-1.2,0.2c-0.5,0-0.7,0-0.7-0.1c0-0.1-0.1-0.1-0.2-0.1
			c-0.1,0-0.1-0.1-0.2-0.2c-0.1-0.2-0.1-0.3-0.1-0.4c0-0.1,0-0.2,0-0.3c0-0.2,0-0.4,0-0.6c0-0.3,0-0.5,0-0.8c0-0.3,0-0.5,0-0.8
			s0-0.5,0-0.6v-0.2c0-0.1,0.4-0.1,1.3-0.1c0.7,0,1.2,0.1,1.4,0.2c0.2,0.1,0.4,0.4,0.4,0.8c0,0.2,0,0.3,0.1,0.3c0,0,0.1,0,0.2,0
			c0.1-0.1,0.3-0.1,0.5-0.1c0.1,0,0.2,0,0.3-0.1c0-0.1,0.1-0.2,0.1-0.5c0-0.1,0-0.2,0-0.3c0-0.2,0-0.3,0-0.4v-0.2
			c0-0.3,0-0.6,0.1-0.7c0.1-0.1,0.1-0.3,0-0.4c-0.1-0.1-0.1-0.3,0.1-0.4c0.1-0.1,0.2-0.2,0.2-0.4c0-0.3-0.3-0.4-1-0.4
			c-0.4,0-0.6,0.2-0.6,0.5c0,0.1,0,0.2,0.1,0.3c0,0.2,0,0.4,0,0.5s-0.3,0.2-0.9,0.3c-0.5,0.1-1,0.1-1.5,0.1h-0.6v-0.6
			c0-0.4,0.1-0.6,0.2-0.6c0.1,0,0.2-0.1,0.2-0.4c0-0.3-0.1-0.5-0.2-0.9c-0.1-0.2-0.2-0.4-0.1-0.4c0-0.1,0.1-0.1,0.2-0.3
			c0.2-0.1,0.3-0.3,0.2-0.5c0,0,0-0.1,0-0.2c0-0.1,0.1-0.3,0.4-0.3c0.3-0.1,0.7-0.1,1.5-0.2c0.7,0,1.1-0.1,1.1-0.1
			c0.3,0,0.5,0.1,0.6,0.2c0.1,0.2,0.3,0.3,0.5,0.4c0.2,0.1,0.3,0.2,0.3,0.3c0,0.1,0.1,0.2,0.3,0.3c0.2,0.1,0.3,0.2,0.3,0.3
			c0,0.2,0.1,0.3,0.3,0.5c0.2,0.2,0.4,0.2,0.6,0.2h0c0.3,0,0.4-0.2,0.4-0.6c0-0.2-0.1-0.3-0.2-0.5c-0.1-0.1-0.2-0.3-0.2-0.5
			c0-0.3-0.1-0.5-0.2-0.5c-0.1,0-0.1-0.1,0-0.4c0.1-0.1,0.1-0.2,0.1-0.3c0,0-0.1-0.1-0.1-0.1c-0.1-0.1-0.2-0.2-0.2-0.3
			c0-0.1-0.1-0.3-0.3-0.5c-0.2-0.2-0.4-0.3-0.6-0.1c-0.3,0.1-1.8,0.3-4.7,0.4h-0.7c-1.5,0-2.2-0.1-2.3-0.3c0-0.1-0.1-0.1-0.2-0.1
			c-0.1,0-0.2,0-0.2,0.1l0,0.1c0,0.1,0,0.1,0,0.1c0,0,0,0.1,0,0.2c0,0.1,0,0.2,0,0.2c0,0.2-0.1,0.3-0.3,0.3
			c-0.2,0.1-0.3,0.2-0.2,0.5c0.1,0.2,0.1,0.4,0.2,0.5c0.1,0.1,0.2,0.1,0.3,0.1c0.1,0,0.3,0,0.4,0c0.1,0,0.2,0,0.4,0
			c0.3,0,0.5,0.1,0.6,0.4c0.1,0.2,0.1,0.7,0.1,1.4c0,0.9-0.1,1.4-0.2,1.4c-0.1,0-0.1,0.2,0,0.4c0.1,0.2,0.1,0.4,0,0.6
			c-0.1,0.2-0.2,0.3-0.3,0.3c-0.1,0-0.1,0.1,0.1,0.2c0.1,0.1,0.1,0.3,0.1,0.6c0,0.5-0.1,1.5-0.2,2.8l-0.1,0.9h-0.6
			c-0.4,0-0.6,0.1-0.6,0.3c0,0.2-0.1,0.3-0.3,0.3c-0.1,0-0.2,0.1-0.2,0.3c0,0.3,0.1,0.5,0.3,0.6c0.2,0.1,0.3,0.2,0.3,0.4
			c0,0.1,0.2,0.1,0.7,0.1c0.5,0,0.8-0.1,0.9-0.3c0.1-0.1,0.5-0.2,1.2-0.2c0.5,0,0.9,0,1.3,0c0.7,0,1.1,0.1,1.2,0.2
			c0,0.1,0.2,0.1,0.4,0c0.2-0.1,0.7-0.2,1.5-0.2c0.8,0,1.3,0,1.5-0.1c0.2,0,0.3-0.1,0.5-0.3c0.2-0.2,0.3-0.3,0.2-0.5
			c0-0.2,0-0.3,0.1-0.4c0.1-0.1,0.2-0.3,0.2-0.8c0-0.3,0-0.5,0-0.6s0.1-0.1,0.2-0.1c0.2,0,0.3-0.2,0.3-0.5c0-0.2-0.1-0.4-0.2-0.6
			C286.6,790.3,286.5,790.2,286.3,790.2z"/>
		<path d="M276,791.9c0,0.1,0,0.2,0.1,0.2c0,0,0.1,0,0.1-0.1c0.1-0.2,0.1-0.3,0-0.3C276.1,791.7,276,791.8,276,791.9z"/>
		<path d="M306.9,782c-0.1,0-0.2,0-0.3,0.1c-0.2,0.1-0.3,0.1-0.3,0.1c-0.1,0-0.1-0.1-0.2-0.2c-0.1-0.2-0.3-0.3-0.4-0.3
			c-0.1,0-0.2-0.1-0.2-0.3c0-0.2-0.1-0.3-0.3-0.3c-0.2,0-0.3,0.1-0.3,0.3c0,0.2,0.1,0.3,0.2,0.3c0.1,0,0.2,0.1,0.2,0.3
			c0,0.2-0.1,0.3-0.2,0.3c-0.2,0-0.3-0.1-0.3-0.4c-0.1-0.2-0.2-0.4-0.3-0.4c-0.1,0-0.1,0-0.2,0.1c-0.2,0.2-0.2,0.3,0,0.3
			c0.1,0,0.2,0.1,0.2,0.1c0,0.1-0.1,0.2-0.4,0.2c-0.2,0-0.4,0-0.4-0.1c0-0.1-0.1-0.1-0.4-0.1c-0.4,0-0.8,0.1-1.1,0.2
			c-0.4,0.2-0.6,0.4-0.6,0.7c0,0.3,0.3,0.5,0.8,0.6c0.4,0.1,0.6,0.1,0.6,0.2c0,0.1,0.1,0.1,0.3,0.1c0.3,0,0.5,0.2,0.6,0.6
			c0.1,0.4,0.2,1.2,0.2,2.4c0,1.4,0.1,2.2,0.1,2.4c0.1,0.1,0,0.3,0,0.6l-0.1,0.4l-0.5-0.5c-0.4-0.3-0.5-0.5-0.5-0.6
			c0-0.1-0.1-0.2-0.2-0.3c-0.1-0.1-0.3-0.2-0.4-0.4c-0.2-0.1-0.3-0.2-0.3-0.2c-0.1-0.1-0.3-0.2-0.3-0.2c-0.1,0-0.2-0.1-0.2-0.2
			c0-0.1-0.1-0.2-0.2-0.3c-0.1-0.1-0.3-0.2-0.4-0.2c-0.1,0-0.1-0.1-0.1-0.2c0-0.1-0.1-0.2-0.2-0.2c-0.1,0-0.1,0-0.1-0.1
			c0-0.1-0.1-0.2-0.4-0.5c-0.2-0.3-0.4-0.4-0.4-0.5c0-0.1-0.1-0.2-0.3-0.2c-0.2,0-0.3-0.1-0.5-0.2c-0.2-0.1-0.2-0.3-0.2-0.4
			c0-0.1-0.2-0.3-0.5-0.7c-0.3-0.4-0.5-0.6-0.5-0.7c0-0.1-0.1-0.2-0.3-0.4c-0.2-0.2-0.3-0.4-0.3-0.4c0-0.3-0.6-0.5-1.8-0.6
			c-0.6,0-0.9-0.1-0.9-0.1c-0.3,0-0.4,0.1-0.4,0.2c0,0.1,0,0.2,0,0.4c0,0.2,0,0.4,0.1,0.6c0.1,0.2,0.1,0.3,0.2,0.3
			c0.1,0,0.2,0.2,0.3,0.6c0.1,0.4,0.2,0.6,0.2,0.6c0.1,0,0.1,0.3,0.1,0.8c0,0.5,0,0.8-0.1,0.8c-0.1,0-0.1,0.1-0.1,0.4
			c0,0.2,0.1,0.6,0.2,1c0.1,0.2,0.1,0.6,0.1,1.1c0,0.7-0.1,1.1-0.2,1.1c-0.1,0-0.1,0.2-0.1,0.7c0,0.5,0,1.1-0.1,1.5
			c0,0.4-0.1,0.6-0.1,0.7c-0.1,0.1-0.2,0.2-0.4,0.2c-0.3,0.1-0.4,0.2-0.4,0.4c0,0.2,0.1,0.4,0.4,0.6c0.2,0.2,0.3,0.3,0.5,0.3
			c0.2,0,0.8,0,1.7,0c1,0,1.6,0,1.8-0.1c0.2-0.1,0.3-0.3,0.3-0.8c0-0.3-0.1-0.4-0.3-0.5c-0.2-0.1-0.3-0.1-0.3-0.2
			c0-0.1-0.2-0.1-0.6-0.1c-0.4,0-0.7-0.1-0.9-0.3c-0.2-0.2-0.2-0.3-0.1-0.4c0.1-0.1,0.2-0.2,0.2-0.6c0-0.3,0-0.5-0.1-0.5
			c-0.1-0.1-0.1-0.9-0.1-2.6c0-1.7,0.1-2.5,0.2-2.5c0.1,0,0.3,0.1,0.4,0.2c0.1,0.1,0.3,0.2,0.5,0.3c0.3,0.1,0.4,0.3,0.5,0.4
			c0,0.2,0.3,0.5,0.8,1.1c0.5,0.5,0.9,0.9,1.3,1.1c0.2,0.1,0.3,0.2,0.3,0.3c0,0.1,0.2,0.2,0.5,0.6c0.7,0.7,1.1,1.1,1.1,1.4
			c0,0.1,0.1,0.1,0.3,0.1c0.2,0,0.3,0,0.3,0.1c0,0.1,0.1,0.3,0.4,0.5c0.2,0.2,0.4,0.4,0.4,0.6c0,0.1,0.1,0.3,0.3,0.5
			c0.2,0.2,0.3,0.3,0.4,0.3c0.1,0,0.3,0.2,0.6,0.5c0.3,0.3,0.5,0.5,0.7,0.6c0.1,0.1,0.2,0.1,0.3,0.1c0.4,0,0.6-0.2,0.6-0.6
			c0-0.1,0-0.2,0-0.4c0-0.9-0.1-1.4-0.2-1.6c-0.1-0.1-0.1-0.5-0.1-1.3v-0.4c0-1,0-1.6-0.1-1.6c-0.1-0.1-0.2-0.4-0.2-1
			c0-0.5,0-0.8,0.1-0.8c0.1-0.1,0.2-0.2,0.2-0.5s0-0.4,0.1-0.4c0.1,0,0.1-0.1,0.1-0.4c0-0.3,0-0.4-0.1-0.4c-0.1,0-0.1-0.1-0.1-0.4
			c0-0.4,0.1-0.7,0.2-1c0.2-0.3,0.4-0.5,0.7-0.5c0.2,0,0.4-0.1,0.4-0.1c0.1,0,0.1-0.2,0.1-0.5v-0.2C307.2,782.3,307.1,782,306.9,782
			z"/>
		<path d="M326.6,784.1c0.1,0,0.2-0.2,0.2-0.5c0-0.3-0.1-0.4-0.2-0.4c-0.1,0-0.1-0.1-0.1-0.3c0-0.2,0.1-0.4,0.2-0.7
			c0.1-0.3,0-0.5-0.2-0.7c-0.2-0.2-0.5-0.3-0.9-0.3c-0.4,0-0.8,0.1-1.1,0.4c-0.3,0.2-0.5,0.3-0.6,0.2c-0.1-0.1-0.1-0.1-0.3-0.1
			c-0.1,0-0.2,0-0.6,0.1c-0.4,0.1-1.3,0.2-2.7,0.2c-1,0-1.5,0-1.6-0.1c-0.1-0.1-0.2,0-0.4,0.2c-0.1,0.1-0.3,0.2-0.4,0.2
			c-0.1,0-0.3,0-0.8-0.1c-0.8-0.2-1.2-0.3-1.3-0.3c0,0-0.1,0-0.3,0.1c-0.1,0-0.3,0.1-0.4,0.3c-0.1,0.2-0.2,0.4-0.2,0.5
			c0,0,0,0.1,0.1,0.2c0.1,0.1,0.1,0.2,0.2,0.5c0,0.1,0,0.2-0.1,0.3c-0.1,0-0.2,0.1-0.4,0.1c-0.1,0-0.3,0-0.4,0.1
			c-0.1,0.1-0.2,0.2-0.2,0.2c0,0.1,0,0.1,0.1,0.2c0.1,0.1,0.1,0.3,0.1,0.7c0,0.3-0.1,0.5-0.1,0.5c0,0.5,0.2,0.8,0.6,0.8
			c0.3,0,0.4-0.1,0.4-0.2c0-0.1,0.1-0.2,0.2-0.2c0.3,0,0.3-0.2,0-0.5c-0.1-0.1-0.2-0.2-0.2-0.3c0,0,0.1-0.1,0.3-0.1
			c0.2-0.1,0.3-0.2,0.2-0.4c-0.1-0.2,0-0.4,0-0.6c0.1-0.1,0.1-0.3,0-0.6c-0.1-0.3-0.1-0.4,0-0.4c0.1,0,0.1,0.1,0.1,0.2
			c0,0.1,0.2,0.3,0.6,0.4c0.4,0.1,0.8,0.2,1.1,0.2c0.4,0,0.7,0.1,0.9,0.3c0.2,0.2,0.4,0.2,0.5,0.2c0.1,0,0.2,0,0.2,0
			c0,0,0,0.1-0.1,0.1c-0.3,0.4-0.4,2.4-0.5,6.1c0,0.8-0.1,1.2-0.3,1.4c-0.2,0.2-0.3,0.3-0.3,0.5c0,0.1-0.3,0.2-0.8,0.2l-0.8,0.1
			l-0.1,0.6c0,0,0,0.1,0,0.1c0,0.1,0,0.1,0,0.1c0,0.2,0.2,0.5,0.5,0.8c0.3,0.3,0.6,0.4,0.7,0.4c0.1,0,0.2,0,0.2-0.1
			c0-0.1-0.1-0.1-0.2-0.1c-0.1,0-0.1,0-0.1-0.1c0-0.1,0.2-0.1,0.5-0.1c0.1,0,0.4,0,0.9,0c0.4,0,0.8,0,1,0c0.5,0,0.9,0,1-0.1
			c0.1-0.1,0.3-0.2,0.6-0.1c0.2,0,0.3,0,0.4-0.1c0.1-0.1,0.2-0.1,0.3-0.1c0.1,0,0.3-0.1,0.5-0.3c0.1-0.1,0.2-0.2,0.2-0.3
			c0-0.1-0.1-0.2-0.2-0.5c-0.2-0.3-0.3-0.5-0.5-0.5c-0.1,0-0.2-0.1-0.2-0.2c0-0.1-0.1-0.2-0.3-0.1c0,0-0.1,0-0.1,0
			c-0.1,0-0.1,0-0.1,0c-0.1,0-0.2,0-0.3-0.1c0-0.1-0.1-0.3-0.1-0.5v-0.5c0-0.5,0-0.8,0-0.9c0-0.1,0.1-0.2,0.2-0.2
			c0.2,0,0.2-0.1,0.2-0.4c0-0.3-0.1-0.5-0.2-0.5c-0.1,0-0.2-0.4-0.2-1.1c0-0.8,0.1-1.3,0.2-1.4c0.1-0.1,0.2-0.6,0.2-1.2
			c0-0.7,0.1-1.1,0.1-1.2c0.1-0.2,0.5-0.2,1.2-0.2c1.1,0,1.7,0.1,1.8,0.4c0,0.1,0.1,0.2,0.4,0.5c0.2,0.2,0.3,0.5,0.4,0.8
			c0,0.3,0.1,0.5,0.1,0.5c0.1,0.1,0.2,0.1,0.4,0.1c0.3,0,0.4,0,0.4-0.1c0-0.1,0.1-0.2,0.3-0.3c0.2-0.1,0.3-0.2,0.3-0.4
			s-0.1-0.4-0.3-0.6C326.5,784.2,326.4,784.1,326.6,784.1z"/>
		<path d="M347.3,792.9c-0.1,0-0.1-0.1-0.2-0.4c-0.1-0.2-0.1-0.3-0.2-0.3c0,0-0.3,0.1-0.8,0.2c0,0-0.1,0-0.2,0c-0.4,0-0.7-0.6-1-1.7
			c-0.2-0.8-0.4-1.3-0.4-1.4c-0.1-0.1-0.2-0.3-0.2-0.5c-0.1-0.4-0.3-1.3-0.8-2.8c-0.5-1.5-0.7-2.4-0.8-2.7c-0.2-1-0.4-1.5-0.5-1.7
			c-0.1-0.2-0.2-0.3-0.4-0.3c-0.3-0.1-0.4,0-0.5,0.1c-0.1,0.1-0.2,0.2-0.4,0.2c-0.2,0-0.4,0.1-0.4,0.2c0,0.1-0.1,0.1-0.2,0.1
			c-0.1,0-0.2,0.2-0.4,0.6c-0.2,0.4-0.3,0.8-0.5,1.2s-0.2,0.6-0.3,0.7c-0.1,0.1-0.1,0.2-0.1,0.4c0,0.2-0.1,0.6-0.4,1.2
			c-0.3,0.6-0.5,1.1-0.5,1.5c-0.1,0.4-0.2,0.6-0.2,0.7c-0.1,0.1-0.2,0.3-0.4,0.8c-0.2,0.5-0.3,0.7-0.3,0.8c-0.1,0.2-0.2,0.4-0.2,0.5
			c0,0.2,0,0.2-0.1,0.2c-0.1,0-0.2,0.1-0.3,0.4c-0.1,0.2-0.2,0.4-0.2,0.6c0,0.1-0.2,0.3-0.5,0.6c-0.3,0.3-0.5,0.4-0.7,0.4
			c-0.2,0-0.3,0.1-0.5,0.4c-0.2,0.2-0.4,0.4-0.5,0.4c-0.1,0-0.2,0.1-0.4,0.4c-0.1,0.2-0.1,0.3-0.1,0.4c0,0.1,0.1,0.3,0.4,0.5
			l0.5,0.4l2-0.1c1.1,0,1.8-0.1,2.1-0.1c0.3,0,0.5-0.1,0.5-0.2c0,0,0-0.1-0.1-0.2c-0.1-0.2-0.1-0.3,0.1-0.3c0.1,0,0.2-0.1,0.2-0.2
			c0-0.1-0.1-0.2-0.2-0.2c-0.1,0-0.3-0.1-0.4-0.2c-0.1-0.1-0.4-0.2-0.7-0.3c-0.5-0.1-0.7-0.3-0.7-0.5c0-0.1,0-0.2,0.1-0.3
			c0.1-0.2,0.2-0.3,0.2-0.5c0-0.1,0-0.2,0.1-0.2c0.1,0,0.1-0.2,0.1-0.7v-0.7h0.6c0.4,0,0.7-0.1,0.7-0.2c0.1-0.2,0.6-0.2,1.5-0.2h0.4
			c0.7,0,1,0,1.1,0.1c0.1,0.1,0.2,0.4,0.2,0.8c0,0.5,0.1,0.8,0.3,0.9c0.2,0.2,0.3,0.4,0.3,0.6c0,0,0,0,0,0.1c0,0,0,0.1,0,0.1
			c0,0.3-0.1,0.4-0.1,0.5c-0.1,0.1-0.3,0.1-0.6,0.2c-0.5,0.1-0.7,0.2-0.8,0.3c0,0.1-0.1,0.1-0.3,0.1c-0.2,0-0.3,0.1-0.3,0.3
			c0,0.3,0,0.4,0.1,0.5c0.1,0.1,0.3,0.1,0.6,0.1c0.3,0,0.7,0,1.3-0.1c0.6-0.1,1.3-0.1,2-0.1c0.4,0,0.7,0,0.8,0c0.2,0,0.4,0,0.6,0
			c0.3,0,0.5-0.1,0.5-0.3c0.1-0.2,0.1-0.3,0.2-0.3c0.1,0,0.1-0.2,0.1-0.5S347.5,792.9,347.3,792.9z M341.2,788.4c0,0-0.1,0-0.2,0
			c-0.1,0-0.1,0-0.1,0c-0.3,0-0.5,0.1-0.6,0.2c-0.1,0.1-0.3,0.2-0.4,0.2s-0.3-0.1-0.4-0.2c-0.1-0.1-0.2-0.2-0.3-0.2
			c-0.1,0-0.2-0.1-0.2-0.2c0-0.1,0-0.2,0.1-0.2c0.1,0,0.2-0.1,0.3-0.4c0.1-0.3,0.2-0.5,0.2-0.7c0-0.2,0.1-0.3,0.2-0.4
			c0.1,0,0.2-0.3,0.2-0.8c0.1-0.6,0.3-0.9,0.6-0.9c0.2,0,0.3,0.1,0.5,0.2c0.1,0.1,0.2,0.2,0.4,0.5c0.1,0.3,0.2,0.4,0.2,0.5
			c0,0-0.1,0.1-0.3,0.1c-0.2,0-0.3,0.1-0.4,0.2c-0.1,0.1,0,0.2,0.1,0.2c0.1,0,0.2,0.1,0.2,0.2c0.1,0.1,0.2,0.3,0.2,0.4
			c0.1,0.2,0.1,0.2,0.2,0.3c0.1,0.1,0.1,0.3,0.2,0.6l0.1,0.5L341.2,788.4z"/>
		<path d="M364.8,783.3h-0.9c-0.5,0-0.8,0-1-0.1c-0.2-0.1-0.3-0.2-0.3-0.5c0-0.1,0-0.2-0.1-0.3c-0.1,0-0.1,0-0.2,0.1
			c-0.1,0.1-0.4,0.2-0.7,0.2c-0.1,0-0.2,0-0.2-0.1c0-0.1-0.2-0.1-0.7-0.1c-0.4,0-0.7,0.1-0.8,0.2c-0.1,0.1-0.2,0.2-0.4,0.2
			c-0.2,0-0.3,0-0.4,0c-0.1,0-0.1,0-0.2,0c-0.1,0-0.1,0-0.2,0c-0.3,0-0.5,0.1-0.7,0.4c-0.3,0.3-0.5,0.4-0.7,0.5
			c-0.1,0-0.3,0.2-0.5,0.5c-0.2,0.3-0.4,0.4-0.5,0.4c-0.4,0.1-0.7,0.4-0.7,0.9c0,0.2-0.1,0.4-0.2,0.6c-0.1,0.2-0.2,0.4-0.2,0.6
			c0,0.3,0,0.4-0.1,0.5c-0.1,0.1-0.2,0.2-0.2,0.4c0,0.2-0.1,0.3-0.2,0.4c-0.1,0.1-0.2,0.5-0.2,1.4c0,1,0.1,1.5,0.2,1.6
			c0.1,0,0.1,0.1,0.1,0.2s0,0.2-0.1,0.2c-0.1,0,0,0.2,0.2,0.4c0.3,0.2,0.4,0.4,0.5,0.4c0.1,0,0.1,0.1,0.2,0.3
			c0.1,0.2,0.2,0.4,0.6,0.7c0.3,0.3,0.6,0.5,0.8,0.6c0.2,0.1,0.2,0.1,0.2,0.2c0,0.1,0.3,0.2,0.9,0.3c0.6,0.1,1.3,0.1,2,0.1
			c1.1,0,1.7-0.1,1.9-0.3c0.1-0.1,0.4-0.3,0.8-0.3c0.3-0.1,0.6-0.2,0.8-0.5c0.3-0.4,0.5-0.7,0.7-0.8c0.3-0.3,0.4-0.5,0.4-0.6
			c0-0.1-0.1-0.2-0.3-0.3c-0.4-0.2-0.6-0.3-0.8-0.3c-0.1,0-0.2,0.1-0.3,0.3c-0.1,0.2-0.2,0.4-0.4,0.4c-0.2,0-0.4,0.1-0.6,0.4
			c-0.2,0.2-0.4,0.3-0.5,0.2c-0.1-0.1-0.2-0.1-0.4,0.1c-0.1,0.1-0.4,0.2-0.7,0.2c-0.1,0-0.4,0-0.8-0.1c-0.6,0-1.1-0.1-1.2-0.2
			c-0.2-0.1-0.3-0.3-0.3-0.5c0-0.2-0.2-0.5-0.6-0.9c-0.3-0.3-0.5-0.5-0.6-0.7c-0.1-0.2-0.2-0.5-0.3-0.9c-0.1-0.7-0.2-1-0.3-1
			c-0.1,0-0.1-0.1-0.1-0.2c0-0.1,0-0.2,0.1-0.2c0.2,0,0.3-0.7,0.3-1.9c0-0.2,0.1-0.2,0.3-0.2c0.2,0,0.3-0.1,0.2-0.3
			c0-0.1,0-0.2,0-0.3c0.1-0.1,0.2-0.1,0.4-0.2c0.3-0.1,0.5-0.3,0.5-0.4c0-0.1,0.1-0.3,0.3-0.4c0.2-0.1,0.4-0.2,0.7-0.2
			c0.2,0,0.3-0.1,0.3-0.2c0-0.1,0.2-0.2,0.7-0.2c0.1,0,0.2,0,0.4,0c0.5,0,0.9,0.2,1.1,0.5c0.2,0.2,0.4,0.3,0.6,0.4
			c0.3,0.1,0.4,0.2,0.4,0.4c-0.1,0.2,0,0.3,0.1,0.4c0.1,0.1,0.3,0.4,0.4,0.9c0.1,0.4,0.1,0.6,0.2,0.7c0.1,0.1,0.2,0.2,0.4,0.3
			c0.3,0.1,0.4,0.2,0.4,0.4c0,0.1,0.1,0.2,0.2,0.1c0.1-0.1,0.2-0.6,0.2-1.5c0-1,0.1-1.5,0.2-1.5c0.1-0.1,0.1-0.3,0-0.8L364.8,783.3z
			"/>
		<path d="M385.9,790.1c-0.1,0-0.2-0.1-0.2-0.3c-0.1-0.2-0.2-0.3-0.4-0.3c-0.2,0-0.4-0.1-0.4-0.4c0-0.1-0.1-0.2-0.2-0.3
			c-0.2-0.1-0.3-0.1-0.3,0.1c0,0.1-0.1,0.2-0.4,0.3c-0.2,0.1-0.3,0.2-0.1,0.3c0.1,0.1,0.2,0.3,0.2,0.6c0,0.3,0,0.4-0.1,0.4
			c-0.1,0-0.3,0.2-0.6,0.5c-0.6,0.6-1.1,0.9-1.5,0.9c-0.2,0-0.4,0.1-0.7,0.2c-0.3,0.1-0.7,0.2-1.2,0.2c-0.6,0-0.9-0.1-0.9-0.4
			c0-0.1,0-0.1,0-0.2c0.1-0.2,0.1-0.3,0-0.4c-0.1,0-0.1-0.2-0.1-0.4c0-0.4,0-0.7,0.1-1c0-0.1,0.1-0.2,0.1-0.4c0-0.1,0-0.4-0.1-0.6
			c0-0.1,0-0.3,0-0.5c0-0.2,0-0.3,0.1-0.4c0.2-0.1,0.2-0.3,0.2-0.8c0-0.2,0-0.3-0.1-0.4c-0.1-0.1-0.1-0.2,0-0.4
			c0.1-0.1,0.1-0.5,0.1-1.2V785l-0.1-1.3h0.9c0.6,0,1-0.1,1.1-0.2c0.1-0.2,0.1-0.4,0.1-0.6c0-0.3-0.1-0.5-0.2-0.6
			c-0.1-0.1-1.1-0.1-2.9-0.1h-0.9c-1.2,0-1.8,0.1-1.8,0.2c-0.1,0.1-0.1,0.3-0.1,0.4c0,0.3,0.1,0.6,0.2,0.7c0.1,0.1,0.4,0.2,0.7,0.2
			c0.5,0,0.8,0.1,0.8,0.4c0,0.1,0,0.1-0.1,0.2c-0.1,0.1-0.1,0.4-0.1,0.7c0,0.3,0,0.6,0.1,0.8c0.1,0.3,0.1,0.4,0,0.5
			c-0.1,0.1-0.1,0.3-0.1,0.7c0,0.2,0,0.3,0,0.4c0,0.8,0.1,1.3,0.1,1.6c0,1.3-0.1,1.9-0.3,1.9c-0.1,0-0.2,0.2-0.2,0.7
			c0,0.2,0,0.3,0.1,0.4l0.1,0.1c0,0.2-0.3,0.2-0.9,0.2c-0.3,0-0.5,0.1-0.6,0.2c-0.1,0.1-0.2,0.4-0.2,0.8v0.2c0,0.5,0.2,0.8,0.6,0.8
			c0.1,0,0.3,0,0.4-0.1c0.3-0.1,0.4-0.2,0.4-0.3c0-0.1,0.3-0.1,1-0.1c0.7,0,1,0,1,0.1c0,0.1,0.7,0.1,2.1,0.1c1.4,0,2.1-0.1,2.1-0.1
			c0-0.1,0.3-0.1,0.8-0.1c0.6,0,0.9,0,0.9,0.1c0,0.1,0.1,0.2,0.4,0.2c0.2,0,0.4-0.1,0.4-0.3c0-0.1,0.1-0.3,0.3-0.4
			c0.2-0.1,0.3-0.2,0.3-0.4c0-0.2,0-0.4,0.1-0.5c0.1-0.1,0.1-0.3,0-0.4c0,0-0.1-0.1-0.1-0.2c0-0.2,0-0.5,0.1-0.8
			c0.1-0.3,0.2-0.4,0.2-0.4c0.1,0,0.1-0.1,0.1-0.3C386,790.2,386,790.1,385.9,790.1z"/>
		<path d="M386.8,790.7c0,0-0.1,0-0.1,0c-0.1,0-0.1,0-0.1,0.1c-0.2,0-0.3,0.1-0.3,0.3c0,0.1,0.1,0.2,0.3,0.2c0.2,0,0.3-0.1,0.3-0.3
			C386.9,790.7,386.9,790.6,386.8,790.7L386.8,790.7z"/>
		<path d="M369.3,799.7c-0.1,0-0.1,0.1-0.1,0.3c0,0.2,0,0.3,0.1,0.3c0.1,0,0.1-0.1,0.1-0.3C369.5,799.8,369.4,799.7,369.3,799.7z"/>
		<path d="M404.6,790.2c-0.1,0-0.3,0.2-0.5,0.5c-0.3,0.4-0.4,0.6-0.4,0.7c0,0.1-0.1,0.2-0.4,0.2c-0.2,0-0.3,0.1-0.3,0.1
			c0,0,0,0.1,0,0.3v0.2c0,0.2-0.1,0.3-0.4,0.3c0,0-0.1,0-0.2,0c-0.1,0-0.1,0-0.2,0c-0.2,0-0.4,0.1-0.7,0.4c-0.2,0.2-0.4,0.3-0.6,0.3
			c-0.1,0-0.2-0.1-0.2-0.2c-0.1-0.1-0.2-0.1-0.4,0c-0.2,0.1-0.6,0.2-1.2,0.2c-0.5,0-0.7,0-0.7-0.1c0-0.1-0.1-0.1-0.2-0.1
			c-0.1,0-0.1-0.1-0.2-0.2c-0.1-0.2-0.1-0.3-0.1-0.5c0,0,0-0.6,0.1-1.8c0-1.2,0.1-1.8,0.1-1.8c0-0.1,0.5-0.1,1.4-0.1
			c0.8,0,1.3,0.1,1.5,0.2c0.3,0.1,0.4,0.4,0.4,0.8c0,0.2,0,0.3,0.1,0.3c0,0,0.1,0,0.2,0c0.2-0.1,0.4-0.1,0.6-0.1h0.1
			c0.2,0,0.3-0.2,0.3-0.6c0-0.1,0-0.2,0-0.3c0-0.2,0-0.3,0-0.4v-0.3c0-0.4,0-0.6,0.1-0.6c0.1-0.1,0.1-0.3,0-0.4
			c-0.1-0.1-0.1-0.3,0.1-0.4c0.2-0.1,0.2-0.2,0.2-0.4c0-0.3-0.4-0.4-1.1-0.4c-0.4,0-0.6,0.2-0.6,0.5c0,0.1,0,0.2,0.1,0.3
			c0.1,0.2,0,0.3-0.1,0.5c-0.1,0.1-0.4,0.2-0.9,0.3c-0.6,0.1-1.1,0.2-1.6,0.2h-0.6V787c0-0.4,0.1-0.6,0.2-0.6c0.1,0,0.2-0.1,0.2-0.4
			c0-0.3-0.1-0.6-0.2-0.9c-0.1-0.2-0.2-0.4-0.2-0.4c0-0.1,0.1-0.1,0.2-0.3c0.2-0.2,0.3-0.3,0.2-0.5c0,0,0-0.1,0-0.2
			c0-0.2,0.1-0.3,0.4-0.4c0.3-0.1,0.8-0.1,1.5-0.2c0.6,0,1-0.1,1.1-0.1c0.4,0,0.6,0.1,0.7,0.2c0.2,0.2,0.3,0.3,0.5,0.4
			c0.2,0.1,0.3,0.2,0.3,0.3c0,0.1,0.1,0.2,0.4,0.4c0.2,0.1,0.4,0.3,0.4,0.3c0,0.2,0.1,0.3,0.3,0.5c0.2,0.2,0.4,0.3,0.6,0.3h0.1
			c0.3,0,0.4-0.2,0.4-0.7c0-0.2-0.1-0.4-0.2-0.5c-0.1-0.2-0.2-0.4-0.2-0.6c0-0.3-0.1-0.5-0.2-0.5c-0.1-0.1-0.1-0.2,0-0.4
			c0.1-0.1,0.1-0.2,0.1-0.3c0-0.1-0.1-0.1-0.2-0.2c-0.1-0.1-0.2-0.2-0.2-0.3c0-0.1-0.1-0.3-0.3-0.5c-0.1-0.1-0.2-0.2-0.3-0.2
			s-0.2,0-0.3,0.1c-0.2,0.1-1.9,0.3-5,0.4h-0.7c-1.5,0-2.3-0.1-2.4-0.3c0-0.1-0.1-0.1-0.3-0.1c-0.1,0-0.2,0-0.2,0.1
			c0,0.1-0.1,0.2-0.1,0.3s0,0.3,0,0.3c0,0.2-0.1,0.3-0.3,0.4c-0.2,0-0.3,0.2-0.2,0.5c0.1,0.2,0.1,0.4,0.2,0.5
			c0.1,0.1,0.2,0.1,0.3,0.1s0.3,0,0.4,0c0.1,0,0.1,0,0.2,0c0.1,0,0.1,0,0.2,0c0.4,0,0.6,0.1,0.7,0.4c0.1,0.2,0.1,0.8,0.1,1.5
			c0,0.9-0.1,1.4-0.2,1.5c-0.1,0-0.1,0.2,0,0.4c0.1,0.3,0.1,0.5,0,0.7c-0.1,0.2-0.2,0.3-0.3,0.3c-0.1,0-0.1,0.1,0.1,0.2
			c0.1,0.1,0.1,0.3,0.1,0.6c0,0.3-0.1,1.3-0.2,3l-0.1,1H395c-0.4,0-0.6,0.1-0.7,0.3c-0.1,0.2-0.2,0.3-0.3,0.3
			c-0.2,0-0.2,0.1-0.2,0.4c0,0.3,0.1,0.5,0.3,0.6c0.2,0.1,0.3,0.3,0.3,0.4c0,0.1,0.1,0.2,0.3,0.2c0.2,0,0.5,0,0.8-0.1
			c0.3-0.1,0.5-0.2,0.6-0.2c0.2-0.1,0.6-0.2,1.2-0.2c0.1,0,0.6,0,1.5,0.1c0.8,0,1.2,0.1,1.2,0.2c0.1,0.1,0.2,0.1,0.4,0
			c0.3-0.1,0.8-0.2,1.6-0.2c0.9,0,1.4,0,1.6-0.1c0.2,0,0.3-0.1,0.5-0.2c0.2-0.2,0.3-0.4,0.2-0.6c-0.1-0.2,0-0.4,0.2-0.4
			c0.1-0.1,0.2-0.4,0.2-0.8c0-0.3,0-0.5,0.1-0.6c0-0.1,0.1-0.1,0.2-0.1c0.2,0,0.3-0.2,0.3-0.5c0-0.3-0.1-0.5-0.2-0.7
			C404.9,790.3,404.8,790.2,404.6,790.2z"/>
		<path d="M394.1,792c0.1-0.2,0.1-0.3-0.1-0.3c-0.1,0-0.2,0.1-0.2,0.2c0,0.1,0,0.2,0.1,0.2C394,792.2,394,792.1,394.1,792z"/>
		<path d="M420.7,789.5c0-0.6-0.1-0.9-0.2-1.1c-0.1-0.2-0.3-0.4-0.6-0.5c-0.3-0.1-0.5-0.3-0.5-0.4c-0.1-0.1-0.3-0.3-0.9-0.6
			c-0.5-0.3-1-0.5-1.3-0.6c-0.2-0.1-0.5-0.2-0.9-0.5c-0.4-0.3-0.6-0.4-0.6-0.5c0-0.1-0.1-0.2-0.2-0.3c-0.2-0.1-0.2-0.2-0.2-0.3
			c0,0,0-0.1,0-0.1c0.1-0.1,0.1-0.2,0.1-0.3s0-0.3-0.1-0.6c0-0.1,0-0.2,0-0.2c0,0,0.2-0.1,0.3-0.1c0.3,0,0.4-0.1,0.4-0.2
			c0-0.1,0.1-0.2,0.4-0.4c0.3-0.2,0.4-0.3,0.4-0.3c0-0.1,0.1-0.1,0.4-0.2c0.1,0,0.1,0,0.2,0c0.4,0,0.8,0.2,1.2,0.5
			c0.5,0.3,0.7,0.6,0.7,0.9c0,0.2,0.1,0.4,0.3,0.5c0.2,0.1,0.3,0.3,0.3,0.4s0.1,0.3,0.2,0.5c0.2,0.2,0.3,0.3,0.4,0.3c0,0,0,0,0.1,0
			c0.1-0.1,0.1-0.7,0.2-2v-0.8c0-0.6-0.1-0.9-0.2-0.9c-0.1,0-0.1,0-0.1,0c-0.3,0.1-0.6,0.2-0.8,0.2c-0.3,0-0.6-0.1-1-0.3
			c-0.4-0.2-0.6-0.3-0.7-0.3c0,0-0.1,0-0.2,0.1c-0.3,0.1-0.6,0.1-0.8,0.1c-0.3,0-0.4,0-0.5,0.1c0,0.1-0.1,0.2-0.3,0.2
			c-0.2,0-0.4-0.1-0.5-0.2c-0.1-0.1-0.3-0.2-0.5-0.2h0c-0.1,0-0.1,0-0.1,0c-0.1,0-0.1,0-0.1,0c0,0,0.1,0,0.1,0
			c0.1,0.1,0.2,0.1,0.2,0.2c0,0.2-0.2,0.3-0.5,0.4c-0.3,0.1-0.4,0.2-0.4,0.4c0.1,0.2,0,0.3-0.2,0.4c-0.3,0.1-0.6,0.5-1.1,1.1
			c-0.1,0.2-0.2,0.4-0.2,0.6c0,0,0,0.3,0.1,0.8c0.1,0.7,0.3,1.1,0.4,1.3c0.1,0.2,0.4,0.4,0.7,0.7c0.4,0.3,0.6,0.4,0.8,0.4
			c0.1,0,0.3,0.1,0.6,0.4c0.4,0.3,0.9,0.6,1.7,0.8c0.5,0.1,0.8,0.3,1.1,0.6c0.2,0.2,0.3,0.4,0.5,0.7c0.1,0.3,0.2,0.5,0.2,0.7
			c0,0.1,0,0.1-0.1,0.2c-0.1,0-0.1,0.2-0.1,0.4c0.1,0.2,0,0.4-0.2,0.6c-0.1,0.1-0.2,0.3-0.2,0.4c0,0.2-0.5,0.4-1.4,0.5
			c-0.1,0-0.3,0-0.6,0c-0.9,0-1.7-0.4-2.2-1.2c-0.3-0.4-0.5-0.8-0.5-1c0,0,0-0.1,0-0.2c0-0.1,0-0.2,0-0.2c0,0-0.1-0.1-0.1-0.1
			c-0.1,0-0.1,0-0.1-0.1c0.1-0.3-0.1-0.5-0.4-0.6c-0.1,0-0.2-0.1-0.3-0.1c-0.3,0-0.4,0.2-0.5,0.5c-0.1,1.2-0.1,1.9-0.2,1.9
			c-0.1,0.1-0.1,0.4-0.2,0.8c0,0.1,0,0.3,0,0.4c0,0.2,0.1,0.4,0.3,0.6c0.1,0.1,0.2,0.2,0.3,0.2c0,0,0.1,0,0.2-0.2
			c0.1-0.2,0.2-0.3,0.2-0.4c0-0.3,0.2-0.3,0.5-0.1c0.9,0.5,1.8,0.7,2.9,0.7c0.5,0,1.1-0.1,1.6-0.2c0.6-0.1,1.1-0.3,1.4-0.6
			c0.3-0.3,0.5-0.5,0.5-0.5c0-0.1,0.1-0.2,0.2-0.3c0.2-0.1,0.3-0.4,0.3-0.9c0.1-0.5,0.1-0.7,0.2-0.7c0.1,0,0.1,0,0-0.1
			C420.8,790.6,420.7,790.2,420.7,789.5z M416.3,788C416.3,788,416.2,787.9,416.3,788c-0.1-0.1-0.1-0.1,0-0.1S416.4,787.9,416.3,788
			C416.4,787.9,416.4,788,416.3,788z"/>
		<path d="M414.8,788.7c0-0.1,0-0.2-0.1-0.2c-0.1,0-0.1,0-0.1,0.1l0.1,0.2C414.8,789,414.8,788.9,414.8,788.7z"/>
		<polygon points="51.7,807.5 44,812.7 41.2,798.7 38.4,812.7 30.7,807.5 35.9,815.3 21.8,818 35.9,820.8 30.7,828.5 38.4,823.3 
			41.2,837.4 43.9,823.4 51.7,828.5 46.5,820.8 60.5,818 46.5,815.3 		"/>
		<polygon points="468.1,815.3 473.3,807.5 465.5,812.7 462.8,798.7 460,812.7 452.3,807.5 457.5,815.3 443.4,818 457.5,820.8 
			452.3,828.5 460,823.3 462.8,837.4 465.5,823.4 473.3,828.5 468.1,820.8 482.1,818 		"/>
		<polygon points="30.7,56.3 38.4,51.1 41.2,65.1 44,51.1 51.7,56.3 46.5,48.5 60.5,45.8 46.5,43 51.7,35.3 43.9,40.4 41.2,26.4 
			38.4,40.5 30.7,35.3 35.9,43 21.8,45.8 35.9,48.5 		"/>
		<polygon points="473.3,35.3 465.5,40.4 462.8,26.4 460,40.5 452.3,35.3 457.5,43 443.4,45.8 457.5,48.5 452.3,56.3 460,51.1 
			462.8,65.1 465.5,51.1 473.3,56.3 468.1,48.5 482.1,45.8 468.1,43 		"/>
		<path d="M376.9,504.8c0,0,0.4,0,1,0C377.2,504.8,376.9,504.8,376.9,504.8z"/>
		<path d="M399.5,480.8c0,0,0,0.3,0,0.8C399.5,481.1,399.5,480.8,399.5,480.8z"/>
		<path d="M399.5,528.9c0,0,0-0.3,0-0.8C399.5,528.5,399.5,528.9,399.5,528.9z"/>
		<path d="M399.5,481.6c0,3.4-0.3,15.8-3.7,19.5c-3,3.3-14.5,3.6-18,3.7c3.5,0,15,0.4,18,3.7c3.3,3.7,3.6,16.2,3.7,19.5
			c0-3.4,0.3-15.8,3.7-19.5c3-3.3,14.5-3.6,18-3.7c-3.5,0-15-0.4-18-3.7C399.9,497.4,399.5,484.9,399.5,481.6z"/>
		<path d="M421.2,504.8c0.7,0,1,0,1,0S421.8,504.8,421.2,504.8z"/>
		<path d="M394.3,194.1c0,0,0,0.3,0,0.8C394.3,194.4,394.3,194.1,394.3,194.1z"/>
		<path d="M373.2,216.4c0,0,0.3,0,0.9,0C373.6,216.4,373.2,216.4,373.2,216.4z"/>
		<path d="M394.3,238.7c0,0,0-0.3,0-0.8C394.3,238.4,394.3,238.7,394.3,238.7z"/>
		<path d="M394.3,237.9c0-3.1,0.3-14.7,3.4-18.1c2.8-3.1,13.7-3.4,16.8-3.4c-3.1,0-14-0.3-16.8-3.4c-3.1-3.4-3.4-15-3.4-18.1
			c0,3.1-0.3,14.7-3.4,18.1c-2.8,3.1-13.7,3.4-16.8,3.4c3.1,0,14,0.3,16.8,3.4C394,223.2,394.2,234.8,394.3,237.9z"/>
		<path d="M415.3,216.4c0,0-0.3,0-0.9,0C415,216.4,415.3,216.4,415.3,216.4z"/>
		<path d="M372.3,282.2c0.3,0,0.4,0,0.4,0S372.6,282.1,372.3,282.2z"/>
		<path d="M351.3,282.2c0,0,0.2,0,0.4,0C351.5,282.1,351.3,282.2,351.3,282.2z"/>
		<path d="M362,271.2c0,1.5-0.1,7.5-1.7,9.2c-1.4,1.6-7,1.7-8.5,1.7c1.6,0,7.1,0.2,8.5,1.7c1.6,1.8,1.7,7.7,1.7,9.2
			c0-1.5,0.1-7.5,1.7-9.2c1.4-1.6,7-1.7,8.5-1.7c-1.6,0-7.1-0.2-8.5-1.7C362.2,278.7,362,272.7,362,271.2z"/>
		<path d="M362,293.5c0,0,0-0.1,0-0.4C362,293.4,362,293.5,362,293.5z"/>
		<path d="M362,270.8c0,0,0,0.1,0,0.4C362,270.9,362,270.8,362,270.8z"/>
		<path d="M139.2,356.2c0,0-0.5,0-1.4,0C138.6,356.2,139.2,356.2,139.2,356.2z"/>
		<path d="M107.3,390c0,0,0-0.4,0-1.2C107.3,389.5,107.3,390,107.3,390z"/>
		<path d="M107.3,322.4c0,0,0,0.4,0,1.2C107.3,322.8,107.3,322.4,107.3,322.4z"/>
		<path d="M107.3,388.8c0-4.7,0.5-22.3,5.1-27.5c4.2-4.6,20.3-5.1,25.3-5.1c-4.9,0-21.1-0.5-25.3-5.1c-4.7-5.2-5.1-22.8-5.1-27.5
			c0,4.7-0.5,22.3-5.2,27.5c-4.2,4.6-20.3,5.1-25.3,5.1c4.9,0,21.1,0.5,25.3,5.1C106.8,366.5,107.3,384.1,107.3,388.8z"/>
		<path d="M75.4,356.2c0,0,0.5,0,1.4,0C76,356.1,75.4,356.2,75.4,356.2z"/>
		<path d="M147,427.4c0,0-0.3,0-0.7,0C146.7,427.4,147,427.4,147,427.4z"/>
		<path d="M133,424.7c-2.5-2.7-2.7-12-2.7-14.5c0,2.4-0.2,11.7-2.7,14.5c-2.2,2.5-10.9,2.7-13.4,2.7c2.5,0,11.1,0.2,13.4,2.7
			c2.5,2.7,2.7,12,2.7,14.5c0-2.4,0.2-11.7,2.7-14.5c2.2-2.5,10.9-2.7,13.4-2.7C143.9,427.4,135.2,427.1,133,424.7z"/>
		<path d="M130.3,409.6c0,0,0,0.2,0,0.6C130.3,409.9,130.3,409.6,130.3,409.6z"/>
		<path d="M113.5,427.4c0,0,0.3,0,0.7,0C113.8,427.4,113.5,427.4,113.5,427.4z"/>
		<path d="M130.3,445.1c0,0,0-0.2,0-0.6C130.3,444.9,130.3,445.1,130.3,445.1z"/>
		<path d="M365,206.2c0,0,0-0.6,0-1.5C365,205.7,365,206.2,365,206.2z"/>
		<path d="M405.9,162.8c0,0-0.7,0-1.9,0C405.2,162.8,405.9,162.8,405.9,162.8z"/>
		<path d="M365,204.7c0-6,0.6-28.6,6.6-35.3c5.3-5.9,26.1-6.6,32.4-6.6c-6.4-0.1-27.1-0.7-32.4-6.6c-6-6.7-6.6-29.2-6.6-35.3
			c0,6-0.6,28.6-6.6,35.3c-5.3,5.9-26.1,6.6-32.4,6.6c6.4,0.1,27.1,0.7,32.4,6.6C364.4,176.1,364.9,198.7,365,204.7z"/>
		<path d="M325.9,162.8c-1.2,0-1.9,0-1.9,0S324.8,162.8,325.9,162.8z"/>
		<path d="M365,119.4c0,0,0,0.6,0,1.5C365,120,365,119.4,365,119.4z"/>
		<path d="M140.3,691.3c0,0-0.4,0-1.2,0C139.9,691.3,140.3,691.3,140.3,691.3z"/>
		<path d="M86.8,691.3c0,0,0.4,0,1.2,0C87.2,691.3,86.8,691.3,86.8,691.3z"/>
		<path d="M113.5,662.9c0,0,0,0.4,0,1C113.5,663.3,113.5,662.9,113.5,662.9z"/>
		<path d="M113.5,719.7c0,0,0-0.4,0-1C113.5,719.4,113.5,719.7,113.5,719.7z"/>
		<path d="M139.1,691.3c-4.2,0-17.7-0.5-21.2-4.3c-3.9-4.4-4.3-19.1-4.3-23.1c0,4-0.4,18.7-4.3,23.1c-3.5,3.9-17.1,4.3-21.2,4.3
			c4.2,0,17.7,0.5,21.2,4.3c3.9,4.4,4.3,19.1,4.3,23.1c0-4,0.4-18.7,4.3-23.1C121.4,691.8,134.9,691.4,139.1,691.3z"/>
		<path d="M242.9,245.9c6.5,11.1,18.3,24.7,16.3,38.5c-1.9,12.6-6.6,25.4-12.8,36.4c-6.3,11.4-14.8,20.4-24.3,29.2
			c-8.2,7.7-15.1,16.5-19.4,27c-3.8,9.3-5.6,19.3-8.4,29c-3.4,11.5-9,22.2-10.8,34.1c-5,9.2-8.3,19.5-12.4,29.2
			c-2.4,5.8-5.6,13.9-4.2,20.3c0.9,4.1,3.3,4.7,6,1.8c4.9-5.2,7.9-12.1,12.1-18c1.9,14.7,5.2,29.2,10.7,27.6
			c5.8-1.7,6.6-16.2,7-20.8c0.4-5.8,0.2-11.6,0.1-17.4c-0.2-5.9,1-11.7,2.3-17.5c0.1,0.5,0.3,0.9,0.4,1.4c2.9,9.9,6.3,20.2,8.4,30.3
			c0.9,4.3,1.6,11.5,4.9,14.7c3.3,3.2,5.9-0.8,7.3-3.9c3.3-7,1.8-14.9,1.3-22.3c-0.6-9.1-1.8-17.9-3.5-26.8
			c-1.4-7.8-3.2-16.9-1.7-25c1.5,10.4,4,20.9,5.9,31.2c1.5,8.4,3.7,19.2,9.3,26.1c3.6,4.5,6.2,0.4,7.2-3.7
			c1.8-7.7,1.6-16.2,1.6-24.3c3-5,5.6-9.8,10.1-13.7c4.4-3.8,8.7-7.8,13-11.8c8-7.6,16-15,24.2-22.4c15.5-14.1,27.6-32.4,30.2-53.5
			c1.4-11.5,1.3-23.2,2.7-34.8c1-8,2.5-16.5,0.9-24.5c-2.4-12.2-6.9-24.3-10.9-36.1c-4.2-12.3-8.2-24.8-13.2-36.8
			c-0.3-0.7-1-1.4-1.8-1c-11.1,4.4-22.1,9.3-32.6,15.1c-9.5,5.3-19.8,11.6-25.8,21C242.6,244.9,242.6,245.5,242.9,245.9z
			 M175.4,482.7c-0.5,0.8-4.1,7.1-5,6.9c-2-0.5-0.1-8,0.1-8.8c1.3-6,3.7-11.4,6.1-17c2.2-5.3,4.1-10.7,6.4-15.9
			c0.1,4.3,0.6,12.6,1.6,21.3C181.1,473.4,178.4,478.1,175.4,482.7z M203.1,440.5c-1.2,5.8-2.8,11.9-3.2,17.8
			c-0.4,5.9,0.4,11.9,0.2,17.8c-0.2,5.6-0.7,11-2.5,16.3c-0.3,0.9-1.3,5.3-2.7,5.5c-0.9,0.1-3.7-9.3-4-10.4
			c-2.2-7.2-2.8-14.8-3.7-22.3c-1.2-9.7-2.1-19.7,0.1-29.3c2-8.6,5.1-16.8,8.1-25.2c0.1,3.8,0.5,7.6,1,11.3
			c0.9,6.5,4.2,12.3,6.8,18.3C203.1,440.4,203.1,440.4,203.1,440.5z M246.9,400.8c2.1-6.8,6.9-12.1,12.1-17.1
			c2.6-0.6,5.2-0.6,7.7-0.3c-4.1,6.1-9.5,10.8-14,16.6c-2.7,3.5-5.2,7.4-7.1,11.4C245.5,407.8,245.8,404.2,246.9,400.8z
			 M248.8,241.6c4.5-5,10.2-8.8,15.8-12.3c11.4-7,23.7-12.7,36.2-17.6c8.8,21.3,16.4,43.9,22.3,66.2c1.5,5.8,2,10.7,1.5,16.8
			c-0.8,11.3-2.3,22.4-2.9,33.8c-0.7,12.2-1.8,24.6-7.8,35.5c-5.6,10.2-12.1,19.7-20.8,27.5c-9.1,8.1-17.9,16.3-26.8,24.8
			c-4.2,4-8.6,7.8-12.9,11.7c-3,2.7-5.2,5.9-7.2,9.3c0.1-5.8,0.1-11.6-0.2-17.3c0-0.7-0.1-1.4-0.1-2.1c0.2-0.2,0.4-0.4,0.5-0.7
			c5-13.4,16.4-21.4,23.7-33.2c5.8,0.8,11.5,2,17.3-0.7c1.7-0.8,0.2-3.4-1.5-2.6c-5.1,2.4-10.5,1.5-15.9,0.6
			c-0.4-0.2-0.8-0.3-1.2-0.2c-2.1-0.3-4.1-0.5-6.2-0.5c2.4-2.2,4.8-4.4,6.9-6.7c7.7-8.3,16.1-16.6,22.7-25.8
			c3.6-5,9.9-12.7,9.3-19.3c-0.2-1.9-3.1-1.9-3,0c0.5,5.6-5.4,13-8.5,17.3c-5,7-11.3,13.1-17,19.5c-10.9,12.3-28.2,23.1-30.1,40.7
			c-1.1,9.8,0.5,19.9,0.4,29.8c0,2.1,0,4.2,0,6.4c-0.1,0.4-0.1,0.7,0,1c0,7.2,0,14.6-1.2,21.6c-0.2,1.4-0.4,4.4-2.8,3.5
			c-0.9-0.4-1.9-3.7-2.3-4.7c-2.3-4.9-3.9-9.9-5.1-15.3c-1.9-9.1-3-18.4-5.1-27.5c-1-4.4-2.2-9.3-2.3-14.1c0-0.2,0-0.5,0-0.7
			c0-1.8,0.1-3.5,0.5-5.2c1.2-5.4,4.9-9.9,6.7-15.2c3.9-11.6,5.6-23.5,11.4-34.5c0.9-1.7-1.7-3.2-2.6-1.5
			c-5.3,10.1-7.8,21.2-10.7,32.2c-1.5,5.5-4.6,9.9-6.6,15.1c-1.1,2.9-1.5,6-1.4,9.1c-5.7,12.5-1.5,27.3,0.8,40.2
			c1.5,8.6,1.9,17.2,2.5,25.8c0.3,3.8,0.6,7.4-0.3,11.2c-0.5,1.8-1.9,6.8-3.8,6.1c-1-0.4-1.5-3.1-1.8-4.1
			c-4.8-14.4-6.8-29.8-12.2-44c-2.7-7.1-6.9-13.3-7.8-21c-0.7-5.9-1-12-0.7-17.9c0-0.1,0-0.2-0.1-0.4c0.7-2.1,1.3-4.2,1.8-6.4
			c3.1-12.5,7.2-24.2,15.4-34.3c8.7-10.6,19.8-18.7,27.8-30c7.6-10.8,12.9-23,16.3-35.7c1.5-5.5,3.3-11.3,2.6-17.1
			c-0.7-5.7-3.3-11-6.1-16c-2.2-3.9-4.6-7.7-6.9-11.5c-0.7-1.1-2.3-3.1-2.5-4.2C246.1,244.1,247,243.5,248.8,241.6z"/>
		<path d="M337.2,448.9c0,9.1,3.8,12,8.6,12c4.7,0,8.6-2.9,8.6-12c0-9.1-8.6-71.3-8.6-71.3S337.2,439.8,337.2,448.9z"/>
		<path d="M99.4,217c19.1,0.9,38.2,1.8,57.3,2.7c-7.3,8.6-14.5,17.2-21.8,25.9c-1,1.2,0.3,3.4,1.8,2.4c9.2-6.6,18.5-13.2,27.7-19.7
			c1.4,19.2,2.7,38.5,4.1,57.7c0.1,1.9,2.9,2,3,0c1.3-19,2.6-38,3.9-57.1c8.2,7.2,16.4,14.4,24.6,21.6c1.2,1.1,3.4-0.3,2.4-1.8
			c-6.4-9.7-12.8-19.4-19.2-29.1c20-2.7,39.9-5.4,59.9-8.1c1.8-0.2,1.2-2.9-0.4-3c-19.3-0.9-38.5-1.8-57.8-2.7
			c5.8-9.6,11.6-19.3,17.5-28.9c0.9-1.5-1.1-3-2.4-1.8c-7.9,7.3-15.8,14.5-23.7,21.8c-1.7-19.1-3.4-38.2-5.1-57.2
			c-0.2-1.9-2.9-2-3,0c-0.9,19.1-1.8,38.2-2.7,57.3c-8.6-7.3-17.2-14.5-25.9-21.8c-1.2-1-3.4,0.3-2.4,1.8
			c6.4,9.7,12.8,19.4,19.2,29.1c-19.2,2.7-38.4,5.4-57.6,8.1C97.2,214.3,97.8,216.9,99.4,217z M168.5,199.9
			c0.6-12.6,1.2-25.3,1.8-37.9c1.1,12.6,2.2,25.3,3.4,37.9c0.1,1.3,1.6,2,2.6,1.1c6.1-5.6,12.2-11.1,18.2-16.7
			c-4.4,7.4-8.9,14.7-13.3,22.1c-0.6,1,0.2,2.2,1.3,2.3c14.6,0.7,29.1,1.3,43.7,2c-15.3,2.1-30.5,4.1-45.8,6.2c-0.7,0.1-1,0.5-1.1,1
			c-0.2,0.4-0.1,0.8,0.1,1.3c4.8,7.3,9.6,14.5,14.3,21.8c-6.2-5.4-12.3-10.8-18.5-16.2c-1-0.9-2.5-0.3-2.6,1.1
			c-0.9,12.9-1.8,25.7-2.6,38.6c-0.9-13-1.9-25.9-2.8-38.9c-0.1-1-1.3-2-2.3-1.3c-6.7,4.8-13.5,9.6-20.2,14.4
			c5.4-6.4,10.7-12.7,16.1-19.1c0.8-1,0.3-2.5-1.1-2.6c-14.7-0.7-29.5-1.4-44.2-2c14.6-2.1,29.3-4.1,43.9-6.2c1-0.1,1.4-1.5,0.9-2.2
			c-4.9-7.5-9.8-15-14.8-22.4c6.7,5.7,13.5,11.4,20.2,17.1C166.9,201.8,168.4,201.3,168.5,199.9z"/>
		<path d="M304.1,679.4c0.3,0.2,0.5,0.3,0.8,0.3c0.3,0,0.7-0.1,1-0.3c0.6-0.4,0.9-1.2,0.7-1.8l-19.4-59.9l-2.9,2l17.4,53.9
			c-21.3-15.8-69.2-51.2-78.7-58.2l-0.5-0.3l-1.1,3.3l0.2,0.2c9.6,7.1,54,39.9,65,48.1L304.1,679.4z"/>
		<path d="M268.3,576c0-0.1-0.1-0.4-0.2-0.7c-0.2-0.6-0.5-1.4-0.7-1.8l-0.1-0.3H165.6c-0.7,0-1.3,0.4-1.5,1.1c-0.2,0.7,0,1.6,0.7,2
			l1.3,1c17,12.6,33.1,24.5,49.7,36.7l0.4,0.3l1.2-3.2l-0.3-0.2c-11-8-22.3-16.5-33.3-24.6l-13.1-9.7h97.9L268.3,576z"/>
		<path d="M250.5,641.7l-0.4-0.3c-0.1-0.1-1.6-1.3-1.9-1.6l-0.3-0.3l-46,34l30.9-95.7l-3.5,0.1l-32.2,99.5c-0.2,0.7,0.1,1.4,0.7,1.8
			c0.3,0.2,0.6,0.3,1,0.3c0.3,0,0.6-0.1,0.8-0.3l50.5-37.3L250.5,641.7z"/>
		<path d="M231.5,571.4l0.5,0c0.8,0.1,1.7,0.1,2.7,0l0.3,0l16.9-52.2l30.1,93.2l2.8-2.1l-31.3-96.7c0-0.6-0.4-1-0.9-1.3
			c-0.2-0.1-0.3-0.1-0.6-0.2c0,0-0.1,0-0.1,0c-0.1,0-0.1,0-0.2,0c-0.2,0-0.4,0.1-0.5,0.1c-0.5,0.2-0.9,0.7-0.9,1.2l-18.6,57.4
			L231.5,571.4z"/>
		<path d="M339.7,574.3c-0.2-0.7-0.8-1.1-1.5-1.1h-63.2l0.2,0.6c0.3,0.8,0.6,1.7,0.9,2.5l0.1,0.3h57l-79.5,58.8l-0.5,0.3l2.8,2.1
			l83.1-61.4C339.7,575.8,339.9,575,339.7,574.3z"/>
		<path d="M162.7,565.1c1.7-4,3.7-7.9,5.9-11.5c15.8-26.2,43.6-43.6,74.4-46.6l0.4,0l-0.1-0.4c-0.1-0.8-0.2-1.6-0.2-2.3l0-0.5
			l-0.5,0c-27,2.6-52.1,15.9-68.8,36.4c-5.8,7.1-10.6,15.1-14.3,23.8l-0.2,0.5l0.5,0.1c0.7,0.1,1.3,0.3,2.1,0.8l0.4,0.2L162.7,565.1
			z"/>
		<path d="M187.7,680.8l0.3,0.3l0.3-0.4c0.5-0.6,1-1.1,1.8-1.5l0.6-0.3l-0.5-0.4c-4.7-3.8-9-8.1-12.9-12.7
			c-19.6-23.4-27-55.4-19.6-85.6l0.1-0.5h-0.5c-0.8,0-1.6-0.1-2.3-0.3l-0.4-0.1l-0.1,0.4c-6.3,26.1-2.1,53.9,11.6,76.3
			C171.8,665.4,179.1,673.7,187.7,680.8z"/>
		<path d="M302.1,690.5l-0.3-0.4c-0.5-0.7-0.9-1.3-1.1-2l-0.2-0.5l-0.4,0.2c-5.1,2.9-10.4,5.4-15.8,7.3c-26.9,9.5-57.9,6.3-82.8-8.7
			l-0.5-0.3l-0.1,0.5c-0.2,0.9-0.5,1.6-0.9,2.2l-0.2,0.4l0.3,0.2c16,9.6,34,14.5,52.1,14.5c6.4,0,12.8-0.6,19.1-1.9
			c10.6-2.1,20.8-5.9,30.3-11.4L302.1,690.5z"/>
		<path d="M349.2,579.5l-0.4,0.1c-0.9,0.2-1.7,0.3-2.4,0.6l-0.4,0.1l0.1,0.4c1.9,7.5,2.9,15.3,2.9,22.9
			c-0.2,28.9-13.1,56.1-35.2,74.7l-0.4,0.3l0.4,0.3c0.6,0.5,1.2,1,1.8,1.5l0.3,0.3l0.3-0.3c22.8-19.3,36-47.3,36.2-76.9
			c-0.1-7.9-1.1-15.9-3-23.7L349.2,579.5z"/>
		<path d="M286.7,509.3c-8-3-16.5-4.9-25.2-5.7l-0.6-0.1l0.1,0.6c0.2,0.8,0.3,1.6,0.4,2.4l0,0.4l0.4,0c3.3,0.3,6.5,0.8,9.6,1.4
			c30.6,6.3,56.5,27.4,69.4,56.6l0.2,0.3l0.3-0.1c0.4-0.1,0.8-0.1,1.2,0l0.3,0l0.2-0.2c0.1-0.1,0.2-0.2,0.3-0.4
			c0.1-0.1,0.2-0.2,0.4-0.4l0.3-0.2l-0.1-0.3C332.9,538.6,312.1,518.7,286.7,509.3z"/>
		<path d="M251.7,510.4c0.5,0,1-3.3,1.7-4c0.8-0.7,3-1,3-1.5c0-0.4-2.3-0.9-2.9-1.6c-0.7-0.7-1.1-4.1-1.6-4.1c-0.5,0-0.9,3.2-1.7,4
			c-0.8,0.8-3,0.9-3,1.5s2.1,0.8,2.9,1.6C251,507.1,251.3,510.4,251.7,510.4z"/>
		<path d="M155.7,576.4c0.5,0.2,1.4-1.8,2.4-2.3c1-0.5,4.2,0.2,4.4-0.2c0.2-0.5-2.8-2-3.3-2.9c-0.5-0.9,0-3.2-0.5-3.3
			c-0.4-0.1-1.5,1.9-2.4,2.3c-0.9,0.4-4.2-0.2-4.4,0.2c-0.2,0.5,2.8,1.8,3.3,2.9C155.8,574.2,155.2,576.3,155.7,576.4z"/>
		<path d="M197,680.5c-0.4-0.3-2.7,2.1-3.8,2.2c-1,0.1-3-0.9-3.3-0.6c-0.3,0.4,1.3,2,1.4,3c0.1,1-1.5,3.9-1.1,4.2
			c0.4,0.3,2.6-2.1,3.8-2.2c1.2-0.2,3,1,3.3,0.6c0.3-0.4-1.3-1.9-1.4-3C195.7,683.6,197.4,680.8,197,680.5z"/>
		<path d="M313.6,682.5c-0.3-0.4-2.2,0.6-3.3,0.4c-1.1-0.2-3.3-2.7-3.7-2.4c-0.4,0.3,1.1,3.2,0.9,4.3c-0.2,1-1.8,2.6-1.6,2.9
			c0.3,0.4,2.3-0.6,3.3-0.4c1,0.2,3.3,2.7,3.7,2.4c0.4-0.3-1.2-3.1-0.9-4.3C312.2,684.3,313.9,682.9,313.6,682.5z"/>
		<path d="M340.9,573.5c0.1,0.5,3.4-0.1,4.4,0.4c0.9,0.5,1.9,2.5,2.3,2.4c0.4-0.1,0.1-2.4,0.6-3.3c0.5-0.9,3.5-2.3,3.4-2.8
			c-0.1-0.5-3.3,0.1-4.4-0.4c-1-0.6-1.8-2.6-2.3-2.4c-0.5,0.2-0.1,2.3-0.6,3.3C343.7,571.7,340.7,573,340.9,573.5z"/>
		<path d="M218.9,557.2c-2.6,0-4.9,2.2-4.9,4.9c0,2.6,2.1,4.8,4.7,4.9c0.1,0,0.1,0,0.2,0c2.6,0,4.7-2.1,4.9-4.9l0,0l0,0
			C223.7,559.3,221.6,557.2,218.9,557.2z M218.9,563.9C218.9,563.9,218.8,563.9,218.9,563.9c-0.9,0-1.8-0.6-1.8-1.7
			c0-1.2,0.9-1.7,1.7-1.7c0,0,0,0,0.1,0c0.9,0,1.8,0.5,1.9,1.7C220.7,563.3,219.7,563.9,218.9,563.9z"/>
		<path d="M282.7,567c2.6,0,4.7-2.1,4.9-4.9l0,0l0,0c-0.1-2.8-2.2-4.9-4.9-4.9c-2.6,0-4.9,2.2-4.9,4.9c0,2.6,2.1,4.8,4.7,4.9
			C282.5,567,282.6,567,282.7,567z M280.8,562.1c0-1.2,0.9-1.7,1.7-1.7c0,0,0,0,0.1,0c0.9,0,1.8,0.5,1.9,1.7c-0.1,1.2-1,1.8-1.9,1.8
			c0,0,0,0-0.1,0C281.7,563.8,280.8,563.3,280.8,562.1z"/>
		<path d="M247,656.3c0,2.6,2.1,4.8,4.7,4.9c0.1,0,0.1,0,0.2,0c2.6,0,4.7-2.1,4.9-4.9c-0.2-2.8-2.2-4.9-4.9-4.9
			C249.2,651.4,247,653.7,247,656.3z M253.7,656.3c-0.1,1.2-1,1.7-1.9,1.7c-0.8,0-1.7-0.6-1.7-1.7c0-1.2,0.9-1.7,1.7-1.7
			c0,0,0,0,0.1,0C252.7,654.6,253.6,655.1,253.7,656.3z"/>
		<path d="M201.3,618.9c0,2.6,2.1,4.8,4.7,4.9c0.1,0,0.1,0,0.2,0c2.6,0,4.7-2.1,4.9-4.9c-0.1-2.8-2.2-4.9-4.9-4.9
			C203.5,614,201.3,616.2,201.3,618.9z M208,618.9c-0.1,1.2-1.1,1.8-1.9,1.7c-0.8,0-1.7-0.6-1.7-1.7s0.9-1.7,1.7-1.7c0,0,0,0,0.1,0
			C207,617.1,207.9,617.7,208,618.9z"/>
		<path d="M298,623.7c2.6,0,4.7-2.1,4.9-4.9c-0.1-2.8-2.2-4.9-4.9-4.9c-2.6,0-4.9,2.2-4.9,4.9c0,2.6,2.1,4.8,4.7,4.9
			C297.9,623.7,297.9,623.7,298,623.7z M296.2,618.9c0-1.2,0.9-1.7,1.7-1.7c0,0,0,0,0.1,0c0.9,0,1.8,0.5,1.9,1.7
			c-0.1,1.2-1.1,1.8-1.9,1.7C297,620.6,296.2,620,296.2,618.9z"/>
		<polygon points="245.5,608 238.9,618.5 249.4,611.9 252.1,629.3 254.8,611.9 265.2,618.5 258.6,608 276.1,605.3 258.6,602.6 
			265.2,592.1 254.8,598.7 252.1,581.3 249.4,598.7 238.9,592.1 245.5,602.6 228.1,605.3 		"/>
	</g>
</g>
</svg>
