<?xml version="1.0" encoding="utf-8"?>
<!-- Generator: Adobe Illustrator 21.1.0, SVG Export Plug-In . SVG Version: 6.00 Build 0)  -->
<svg version="1.1" xmlns="http://www.w3.org/2000/svg" xmlns:xlink="http://www.w3.org/1999/xlink" x="0px" y="0px"
	 viewBox="0 0 504 864" style="enable-background:new 0 0 504 864;" xml:space="preserve">
<g id="Слой_1">
</g>
<g id="Слой_2">
	<g>
		<path d="M503.8,18.2c-1.6-17.9-18.7-16.3-31.6-16.3c-45.9,0-91.8,0-137.6,0c-63.2,0-126.3,0-189.5,0c-40.6,0-81.2,0-121.8,0
			c-2.6,0-5.3-0.2-8,0.2c-9.5,1.2-15,9.2-15.2,18.2c-0.2,7.3,0,14.5,0,21.8c0,37.4,0,74.9,0,112.3c0,57,0,114.1,0,171.1
			c0,64.3,0,128.6,0,192.9c0,58.4,0,116.7,0,175.1c0,40.1,0,80.2,0,120.3c0,9.1,0,18.2,0,27.3c0,11.7,6.7,20.5,19.2,20.7
			c35.9,0.6,71.9,0,107.9,0c62.4,0,124.9,0,187.3,0c49.7,0,99.5,0,149.2,0c7.6,0,15.2,0,22.9,0c0.4,0,0.8-0.1,1.2-0.2
			c14.4-1.8,16.1-13.8,16.1-25.5c0-11.4,0-22.8,0-34.3c0-43.4,0-86.9,0-130.3c0-59.9,0-119.8,0-179.8c0-63.9,0-127.7,0-191.6
			c0-55.3,0-110.6,0-165.9c0-33.7,0-67.3,0-101C503.9,28.3,504.2,23.2,503.8,18.2z M486.6,852.8c-28.3,0-56.6,0-84.9,0
			c-59.9,0-119.8,0-179.7,0c-54,0-108,0-162,0c-13.1,0-26.1,0-39.2,0c-5.6,0-11-1.3-11.7-8.3c-0.2-1.5,0-3,0-4.5c0-26.5,0-53,0-79.5
			c0-50,0-100,0-149.9c0-61.8,0-123.6,0-185.4c0-61.4,0-122.7,0-184.1c0-48.9,0-97.7,0-146.6c0-24.2-0.8-48.6,0-72.7
			c0.2-5.3,1.6-10.1,8.3-10.8c2.2-0.2,4.5,0,6.7,0c14.8,0,29.6,0,44.5,0c55.6,0,111.3,0,166.9,0c58.9,0,117.8,0,176.7,0
			c18.9,0,37.9,0,56.8,0c8.1,0,24.7-3.1,25.9,8.4c0.5,5.2,0,10.8,0,16.1c0,13.5,0,27.1,0,40.6c0,45.5,0,91.1,0,136.6
			c0,60.1,0,120.2,0,180.3c0,62.6,0,125.1,0,187.7c0,52.8,0,105.6,0,158.4c0,31.4,0,62.7,0,94.1C494.8,840.3,496.9,852,486.6,852.8z
			"/>
		<path d="M460,790.9c1.2,0.1,2.4-0.7,2.4-2.2c0-23.7,0-47.4,0-71.1c0-56.4,0-112.8,0-169.2c0-68.7,0-137.4,0-206
			c0-59,0-117.9,0-176.9c0-19.6,0-39.2,0-58.8c0-8.9,1.3-19,0-27.9c-0.1-0.4,0-0.8,0-1.2c0-0.8-0.3-1.3-0.8-1.7
			c0.1-1.2-0.6-2.5-2.2-2.6c-13.1-0.5-25.3-13.8-25.8-26.7c0-0.5-0.2-0.8-0.4-1.1c-0.3-0.6-1-1.1-1.9-1.1c-40.5,0-80.9,0-121.4,0
			c-64.5,0-129,0-193.6,0c-14.9,0-29.7,0-44.6,0c-0.9,0-1.6,0.5-1.9,1.1c-0.2,0.3-0.3,0.7-0.4,1.2C69.1,59.5,57,72.8,43.9,73.3
			c-1.8,0.1-2.5,1.9-2,3.2c-0.2,0.3-0.2,0.6-0.2,1c0,23.7,0,47.4,0,71.1c0,56.4,0,112.8,0,169.2c0,68.7,0,137.4,0,206
			c0,59,0,117.9,0,176.9c0,19.6,0,39.2,0,58.8c0,8.9-1.3,19,0,27.9c0.1,0.4,0,0.8,0,1.2c0,0.9,0.5,1.6,1.1,1.9
			c0.3,0.2,0.7,0.3,1.2,0.4c13,0.5,25.3,13.3,25.8,26.2c0,0.5,0.2,0.8,0.4,1.1c0.3,0.6,1,1.1,1.9,1.1c40.5,0,80.9,0,121.4,0
			c64.5,0,129,0,193.6,0c14.9,0,29.7,0,44.6,0c0.9,0,1.6-0.5,1.9-1.1c0.2-0.3,0.3-0.7,0.4-1.2c0.5-12.9,12.7-25.7,25.8-26.2
			C459.6,791,459.8,790.9,460,790.9z M429.3,814.9c-39.8,0-79.6,0-119.3,0c-64.5,0-129,0-193.6,0c-14.2,0-28.3,0-42.5,0
			c-1.7-13.9-13.9-26.5-27.8-28.3c0-23,0-46,0-69.1c0-56.4,0-112.8,0-169.2c0-68.7,0-137.4,0-206c0-59,0-117.9,0-176.9
			c0-19.6,0-39.2,0-58.8c0-8.9,1.3-19,0-27.9c-0.1-0.4,0-0.8,0-1.2c14-1.8,26.1-14.9,27.8-28.7c39.8,0,79.5,0,119.3,0
			c64.5,0,129,0,193.6,0c14.2,0,28.3,0,42.5,0c1.7,14.1,14.3,27.4,28.5,28.8c0,23.7,0,47.3,0,71c0,56.4,0,112.8,0,169.2
			c0,68.7,0,137.4,0,206c0,59,0,117.9,0,176.9c0,19.6,0,39.2,0,58.8c0,8.6-1.2,18.4-0.1,27C443.6,788.1,431.1,800.9,429.3,814.9z"/>
		<path d="M111.3,796.7c-0.1,0-0.1,0.1-0.1,0.2c0,0.1,0,0.2,0.1,0.2c0.1,0,0.1-0.1,0.1-0.2C111.4,796.8,111.3,796.7,111.3,796.7z"/>
		<path d="M122.2,786.2l0.1,0.4l0-0.1c0,0,0-0.1,0.1-0.1c0,0,0.1-0.1,0.1-0.1c0-0.1,0.1-0.1,0.1-0.2c0.2-0.3,0.2-0.4,0-0.4
			C122.2,785.7,122.2,785.8,122.2,786.2z"/>
		<path d="M111.3,797.9c-0.1,0-0.1,0.1-0.1,0.2c0,0.1,0,0.2,0.1,0.2c0.1,0,0.1-0.1,0.1-0.2C111.4,797.9,111.3,797.9,111.3,797.9z"/>
		<path d="M111.4,792.2c0.1-0.2,0.1-0.3-0.1-0.3c-0.1,0-0.2,0.1-0.2,0.2c0,0.1,0,0.2,0.1,0.2C111.3,792.3,111.4,792.3,111.4,792.2z"
			/>
		<path d="M123.4,793.4c-0.8-0.1-1.3-0.2-1.5-0.2c-0.1-0.1-0.2-0.2-0.2-0.4c0-0.2,0-0.3-0.1-0.4c-0.1-0.1-0.2-0.1-0.4-0.1
			c-0.3-0.1-0.5-0.2-0.5-0.3c0-0.1-0.1-0.2-0.3-0.2c-0.2,0-0.3-0.1-0.3-0.2c0-0.1-0.1-0.3-0.3-0.5c-0.2-0.2-0.4-0.4-0.5-0.4
			c-0.1,0-0.2,0-0.2-0.1c0-0.1-0.1-0.2-0.3-0.2c-0.2,0-0.3-0.1-0.3-0.2c0-0.2-0.1-0.3-0.2-0.5c-0.2-0.2-0.3-0.2-0.5-0.2
			c-0.2,0-0.2-0.1-0.2-0.2c0-0.1,0-0.2,0-0.3c0-0.1,0-0.2,0-0.3c0-0.1,0.1-0.2,0.3-0.3c0.3-0.1,0.4-0.2,0.4-0.4
			c0-0.2,0.1-0.3,0.2-0.3c0.1,0,0.3-0.1,0.5-0.4c0.2-0.3,0.4-0.5,0.5-0.5c0.2-0.1,0.2-0.1,0.2-0.3c-0.1-0.1,0-0.2,0.3-0.4
			c0.2-0.1,0.4-0.3,0.4-0.5c0-0.2,0.1-0.3,0.3-0.3c0.2,0,0.3-0.1,0.3-0.4c0-0.3,0.1-0.4,0.2-0.4c0.2,0,0.4-0.1,0.5-0.4
			c0.2-0.2,0.5-0.3,0.9-0.4c0.4-0.1,0.6-0.2,0.8-0.3c0.1-0.1,0.2-0.2,0.4-0.2c0.2,0,0.3-0.1,0.3-0.2c0-0.1,0.1-0.3,0.2-0.4
			c0.1,0,0.1-0.1,0.1-0.1c0,0-0.1,0-0.4-0.1c-0.4,0-0.5-0.1-0.5-0.2c0-0.2-0.3-0.3-0.8-0.3c-0.5,0-0.8,0.1-0.9,0.3
			c-0.1,0.1-0.3,0.2-0.6,0.2c-0.3,0-0.4,0-0.5-0.1c-0.1-0.1-0.6-0.2-1.8-0.2l-1.7-0.1l-0.1,0.5c0,0.1-0.1,0.2-0.1,0.3
			c0,0.1,0.1,0.2,0.2,0.3c0.1,0.1,0.4,0.1,0.7,0.1c0.3,0,0.5,0.1,0.6,0.1s0.1,0.1,0.1,0.2v0.1c0,0.3-0.1,0.4-0.2,0.5
			c-0.1,0.1-0.1,0.2-0.1,0.4c0.1,0.1,0,0.3-0.3,0.4c-0.2,0.1-0.4,0.3-0.4,0.5c0,0.3-0.1,0.4-0.3,0.5c-0.2,0.1-0.4,0.3-0.4,0.6
			c-0.1,0.3-0.3,0.5-0.5,0.5c-0.3,0.1-0.5,0.2-0.6,0.4c-0.2,0.2-0.3,0.3-0.4,0.3c-0.1,0-0.1-0.1-0.1-0.4c0-0.2,0-0.5,0.1-0.9
			c0-0.5,0.1-0.8,0.1-0.9c0-0.2,0-0.3,0-0.3c-0.1-0.3,0-0.5,0.2-0.6c0.2-0.1,0.3-0.3,0.2-0.6c0-0.2,0-0.3,0-0.3c0,0,0.1-0.1,0.3-0.1
			c0.2,0,0.4-0.1,0.5-0.3c0.1-0.2,0.1-0.4,0.1-0.8c0-0.2,0-0.3-0.1-0.3c-0.1-0.1-0.7-0.1-1.9-0.1c-1.4-0.1-2.1-0.2-2.1-0.4
			c0-0.1-0.1-0.1-0.2-0.1c-0.1,0-0.2,0-0.2,0.1c0,0.1-0.1,0.2-0.1,0.3c0,0.2,0,0.3,0,0.3c0,0.2-0.1,0.3-0.3,0.4
			c-0.2,0-0.3,0.2-0.2,0.5c0.1,0.3,0.1,0.4,0.2,0.5s0.2,0.1,0.3,0.1c0.2,0,0.3,0,0.4,0c0.1,0,0.2,0,0.4,0c0.3,0,0.5,0.1,0.6,0.4
			c0.1,0.2,0.1,0.8,0.1,1.5c0,0.9-0.1,1.4-0.2,1.5c-0.1,0.1-0.1,0.2,0,0.4c0.1,0.2,0.1,0.5,0,0.7c-0.1,0.2-0.2,0.3-0.3,0.3
			c-0.1,0-0.1,0.1,0,0.2c0.1,0.1,0.1,0.3,0.1,0.7c0,0.6-0.1,1.5-0.2,2.9l-0.1,1h-0.6c-0.4,0-0.6,0.1-0.7,0.3
			c-0.1,0.2-0.2,0.3-0.3,0.3c-0.2,0-0.2,0.1-0.2,0.4c0,0.3,0.1,0.5,0.3,0.6c0.2,0.1,0.3,0.3,0.3,0.4c0,0.1,0.1,0.2,0.3,0.2
			c0.2,0,0.5,0,0.8-0.1s0.5-0.2,0.6-0.2c0.1-0.1,0.7-0.2,1.6-0.2c0.9,0,1.4,0,1.5-0.1c0,0,0-0.3,0-0.6c0-0.3-0.1-0.4-0.1-0.5
			c0-0.1-0.1-0.1-0.3-0.1c-0.2,0-0.4,0-0.4-0.1c0-0.1-0.1-0.1-0.2-0.1c-0.3,0-0.4-0.3-0.4-0.9c0-0.2,0-0.3,0-0.4
			c0-0.4,0.1-0.8,0.1-1.2V790c0-0.1,0-0.2,0-0.3c0-0.1,0-0.2,0-0.3c0-0.4,0-0.6,0.1-0.6h0.1c0.2,0,0.4,0.1,0.8,0.3
			c0.4,0.2,0.6,0.4,0.7,0.6c0.2,0.2,0.3,0.4,0.4,0.4c0.1,0,0.2,0.1,0.3,0.3c0.1,0.2,0.2,0.4,0.2,0.5c0,0.1,0.1,0.2,0.4,0.5
			c0.3,0.2,0.4,0.4,0.4,0.6c0,0.1,0.1,0.2,0.3,0.2c0.2,0,0.3,0.1,0.3,0.4c0,0.2,0.1,0.4,0.3,0.4c0.3,0,0.3,0.2,0,0.6
			c-0.2,0.2-0.4,0.2-0.6,0.1c-0.2-0.1-0.3-0.1-0.5,0c-0.1,0.1-0.3,0.2-0.5,0.2c-0.2,0-0.3,0-0.3,0.1c0,0.1,0,0.2,0.1,0.2
			c0.1,0,0.1,0.1,0.1,0.2c0,0.1,0.1,0.2,0.2,0.3c0.2,0.1,0.3,0.1,0.5,0.1c0,0,0,0,0.1,0c0,0,0,0,0.1,0c0.2-0.1,0.3,0,0.3,0.1
			c0,0.1,0.1,0.1,0.2,0c0.1-0.1,0.2-0.2,0.5-0.2c0.2,0,0.8,0,1.8,0c1.4,0,2.2,0.1,2.4,0.2c0.2,0.1,0.3,0.2,0.4,0.2
			c0.2,0,0.2-0.2,0.2-0.5c0-0.4-0.1-0.6-0.2-0.7C124.1,793.5,123.9,793.5,123.4,793.4z M119.1,782.9
			C119.1,782.9,119.1,782.9,119.1,782.9L119.1,782.9c0.1,0.2,0.1,0.3,0,0.3c0,0,0,0,0-0.1C119.1,783,119.1,783,119.1,782.9z
			 M118.8,785.4c0.1,0,0.1,0,0.1,0c0.1,0,0.1,0,0,0.1c-0.1,0.1-0.2,0.1-0.3,0L118.8,785.4z M118.3,786.1c0.1,0,0.1,0.1,0.1,0.2
			c0,0.1,0,0.2-0.1,0.2c-0.1,0-0.1-0.1-0.1-0.2C118.2,786.2,118.2,786.1,118.3,786.1z"/>
		<path d="M110,798.8c-0.1,0.1-0.1,0.2,0,0.4c0.1,0.1,0.2,0.1,0.3,0.1c0.3-0.1,0.3-0.3,0.1-0.5C110.2,798.6,110.1,798.6,110,798.8z"
			/>
		<path d="M144.4,782c-0.1,0-0.2,0-0.3,0.1c-0.2,0.1-0.3,0.1-0.3,0.1c-0.1,0-0.1-0.1-0.2-0.2c-0.1-0.2-0.3-0.3-0.4-0.3
			c-0.1,0-0.2-0.1-0.2-0.3c0-0.2-0.1-0.3-0.3-0.3c-0.2,0-0.3,0.1-0.3,0.3c0,0.2,0.1,0.3,0.2,0.3s0.2,0.1,0.2,0.3
			c0,0.2-0.1,0.3-0.2,0.3c-0.2,0-0.3-0.1-0.3-0.4c-0.1-0.2-0.2-0.4-0.3-0.4c-0.1,0-0.1,0-0.2,0.1c-0.2,0.2-0.2,0.3,0,0.3
			c0.1,0,0.2,0.1,0.2,0.1c0,0.1-0.1,0.2-0.4,0.2c-0.2,0-0.4,0-0.4-0.1s-0.1-0.1-0.4-0.1c-0.4,0-0.8,0.1-1.1,0.2
			c-0.4,0.2-0.6,0.4-0.6,0.7c0,0.3,0.3,0.5,0.8,0.6c0.4,0.1,0.6,0.1,0.6,0.2c0,0.1,0.1,0.1,0.3,0.1c0.3,0,0.5,0.2,0.6,0.6
			c0.1,0.4,0.2,1.2,0.2,2.4c0,1.4,0.1,2.2,0.1,2.4c0.1,0.1,0,0.3,0,0.6l-0.1,0.4l-0.5-0.5c-0.4-0.3-0.5-0.5-0.5-0.6
			c0-0.1-0.1-0.2-0.2-0.3c-0.1-0.1-0.3-0.2-0.4-0.4c-0.2-0.1-0.3-0.2-0.3-0.2c-0.1-0.1-0.3-0.2-0.3-0.2c-0.1,0-0.2-0.1-0.2-0.2
			c0-0.1-0.1-0.2-0.2-0.3c-0.1-0.1-0.3-0.2-0.4-0.2s-0.1-0.1-0.1-0.2c0-0.1-0.1-0.2-0.2-0.2c-0.1,0-0.1,0-0.1-0.1
			c0-0.1-0.1-0.2-0.4-0.5c-0.2-0.3-0.4-0.4-0.4-0.5c0-0.1-0.1-0.2-0.3-0.2c-0.2,0-0.3-0.1-0.5-0.2c-0.2-0.1-0.2-0.3-0.2-0.4
			c0-0.1-0.2-0.3-0.5-0.7s-0.5-0.6-0.5-0.7c0-0.1-0.1-0.2-0.3-0.4c-0.2-0.2-0.3-0.4-0.3-0.4c0-0.3-0.6-0.5-1.8-0.6
			c-0.6,0-0.9-0.1-0.9-0.1c-0.3,0-0.4,0.1-0.4,0.2c0,0.1,0,0.2,0,0.4c0,0.2,0,0.4,0.1,0.6c0.1,0.2,0.1,0.3,0.2,0.3
			c0.1,0,0.2,0.2,0.3,0.6c0.1,0.4,0.2,0.6,0.2,0.6c0.1,0,0.1,0.3,0.1,0.8c0,0.5,0,0.8-0.1,0.8c-0.1,0-0.1,0.1-0.1,0.4s0.1,0.6,0.2,1
			c0.1,0.2,0.1,0.6,0.1,1.1c0,0.7-0.1,1.1-0.2,1.1c-0.1,0-0.1,0.2-0.1,0.7c0,0.5,0,1.1-0.1,1.5c0,0.4-0.1,0.6-0.1,0.7
			c-0.1,0.1-0.2,0.2-0.4,0.2c-0.3,0.1-0.4,0.2-0.4,0.4c0,0.2,0.1,0.4,0.4,0.6c0.2,0.2,0.3,0.3,0.5,0.3s0.8,0,1.7,0
			c1,0,1.6,0,1.8-0.1c0.2-0.1,0.3-0.3,0.3-0.8c0-0.3-0.1-0.4-0.3-0.5c-0.2-0.1-0.3-0.1-0.3-0.2c0-0.1-0.2-0.1-0.6-0.1
			c-0.4,0-0.7-0.1-0.9-0.3c-0.2-0.2-0.2-0.3-0.1-0.4c0.1-0.1,0.2-0.2,0.2-0.6c0-0.3,0-0.5-0.1-0.5c-0.1-0.1-0.1-0.9-0.1-2.6
			c0-1.7,0.1-2.5,0.2-2.5c0.1,0,0.3,0.1,0.4,0.2c0.1,0.1,0.3,0.2,0.5,0.3c0.3,0.1,0.4,0.3,0.5,0.4c0,0.2,0.3,0.5,0.8,1.1
			c0.5,0.5,0.9,0.9,1.3,1.1c0.2,0.1,0.3,0.2,0.3,0.3c0,0.1,0.2,0.2,0.5,0.6c0.7,0.7,1.1,1.1,1.1,1.4c0,0.1,0.1,0.1,0.3,0.1
			c0.2,0,0.3,0,0.3,0.1c0,0.1,0.1,0.3,0.4,0.5c0.2,0.2,0.4,0.4,0.4,0.6c0,0.1,0.1,0.3,0.3,0.5c0.2,0.2,0.3,0.3,0.4,0.3
			c0.1,0,0.3,0.2,0.6,0.5c0.3,0.3,0.5,0.5,0.7,0.6c0.1,0.1,0.2,0.1,0.3,0.1c0.4,0,0.6-0.2,0.6-0.6c0-0.1,0-0.2,0-0.4
			c0-0.9-0.1-1.4-0.2-1.6c-0.1-0.1-0.1-0.5-0.1-1.3v-0.4c0-1,0-1.6-0.1-1.6c-0.1-0.1-0.2-0.4-0.2-1c0-0.5,0-0.8,0.1-0.8
			c0.1-0.1,0.2-0.2,0.2-0.5s0-0.4,0.1-0.4c0.1,0,0.1-0.1,0.1-0.4s0-0.4-0.1-0.4c-0.1,0-0.1-0.1-0.1-0.4c0-0.4,0.1-0.7,0.2-1
			c0.2-0.3,0.4-0.5,0.7-0.5c0.2,0,0.4-0.1,0.4-0.1s0.1-0.2,0.1-0.5v-0.2C144.8,782.3,144.6,782,144.4,782z"/>
		<path d="M157.6,782c-0.1-0.1-0.7-0.1-1.8-0.1c-1,0-1.5,0-1.5,0.1c0,0.1-0.2,0.1-0.5,0.1c-0.3,0-0.5,0.1-0.5,0.2
			c0,0.1,0,0.2-0.1,0.2c-0.1,0-0.1,0.1-0.1,0.3c0,0.3,0.1,0.4,0.2,0.5c0.1,0.1,0.2,0.5,0.2,1.3c0,0.8,0,1.2,0.1,1.3
			c0.1,0,0.1,0.4,0.1,1.1c0,0.7,0,1-0.1,1.1c-0.1,0-0.2,0.8-0.2,2.2c0,1.2-0.1,2-0.2,2.2c-0.1,0.2-0.4,0.4-0.9,0.5
			c-0.3,0-0.5,0.1-0.5,0.1c-0.1,0.1-0.1,0.2-0.1,0.4c0,0.3,0.1,0.5,0.2,0.5c0.2,0,0.3,0.1,0.5,0.2c0.2,0.2,0.3,0.2,0.3,0.1
			c0.1-0.1,0.8-0.2,2.1-0.2c1.1,0,1.6,0.1,1.6,0.2c0,0.1,0.1,0.1,0.3,0.1c0.2,0,0.3,0,0.3-0.1c0-0.1,0.1-0.2,0.3-0.3
			c0.2-0.1,0.3-0.2,0.3-0.3c0-0.5-0.4-0.7-1-0.8l-0.6-0.1l0.1-3.5c0-2.3,0.1-3.5,0.2-3.6c0.1-0.1,0.1-0.4,0.1-1
			c0.1-1.1,0.2-1.6,0.4-1.6c0.1,0,0.2,0,0.2-0.1c0-0.1,0.1-0.2,0.4-0.2c0.2,0,0.4-0.1,0.5-0.2c0.1-0.1,0.2-0.2,0.2-0.4
			C157.9,782.3,157.8,782.1,157.6,782z M154.2,790.9c-0.1,0-0.2,0-0.2-0.1c0-0.1,0.1-0.1,0.2-0.1c0.1,0,0.2,0,0.2,0.1
			C154.4,790.9,154.3,790.9,154.2,790.9z M155,787.1c-0.1,0-0.2-0.1-0.2-0.3c0-0.2,0.1-0.3,0.2-0.3c0.1,0,0.2,0.1,0.2,0.3
			C155.2,787,155.1,787.1,155,787.1z"/>
		<path d="M174.2,790.1c-0.3,0-0.5,0-0.6,0c-0.7,0-1.1,0-1.3,0.1c-0.2,0.1-0.4,0.2-0.4,0.3c0,0.1-0.1,0.2-0.1,0.3
			c0,0.2,0.1,0.3,0.3,0.4c0.2,0.1,0.5,0.2,0.9,0.2c0.7,0.1,1,0.2,1,0.3c0,0-0.1,0.2-0.2,0.5c-0.1,0.3-0.3,0.5-0.5,0.5
			c-0.2,0-0.4,0.1-0.6,0.4c-0.1,0.2-0.2,0.3-0.3,0.3c0,0-0.1,0-0.1-0.1c0-0.1-0.1-0.1-0.1-0.1c-0.1,0-0.2,0-0.3,0.1
			c-0.1,0.1-0.4,0.2-0.8,0.2c-0.3,0-0.5,0-0.7,0c-0.6,0-1.1-0.1-1.2-0.2c-0.2-0.1-0.3-0.3-0.3-0.6c0-0.2-0.1-0.4-0.3-0.5
			c-0.2-0.1-0.3-0.2-0.3-0.4c0-0.1,0-0.2-0.1-0.2c-0.3,0-0.5-0.5-0.7-1.4c-0.1-0.7-0.2-1-0.3-1c-0.1,0-0.1-0.1-0.1-0.2
			c0-0.1,0-0.2,0.1-0.3c0.2,0,0.3-0.7,0.3-1.9c0-0.2,0.1-0.2,0.3-0.2c0.2,0,0.3-0.1,0.3-0.2c0-0.1,0-0.2-0.2-0.4
			c-0.1-0.1-0.1-0.2,0-0.2c0.2,0,0.4-0.1,0.6-0.2c0.2-0.1,0.4-0.3,0.4-0.4c0-0.1,0.1-0.3,0.3-0.4c0.2-0.1,0.4-0.2,0.7-0.2
			c0.2,0,0.3-0.1,0.3-0.2c0-0.1,0.2-0.2,0.7-0.2c0.1,0,0.2,0,0.4,0c0.5,0,0.9,0.2,1.1,0.5c0.1,0.2,0.4,0.3,0.6,0.4
			c0.2,0.1,0.4,0.2,0.4,0.3v0.2c0,0.1,0,0.2,0.1,0.3c0.1,0.1,0.2,0.2,0.3,0.5c0.1,0.2,0.1,0.3,0.2,0.4c0.1,0.1,0.2,0.1,0.5,0.1
			c0.2,0,0.3,0.1,0.4,0.1c0.1,0,0.2-0.1,0.3-0.4c0.1-0.2,0.1-0.5,0.1-0.9c0-0.3,0-0.5,0.1-0.5c0.1,0,0.1-0.1,0.1-0.2
			c0-0.3-0.1-0.6-0.2-0.9c-0.1-0.1-0.1-0.2-0.2-0.3c-0.1,0-0.4,0-0.8,0c-0.6,0-1,0-1.1-0.1c-0.1-0.1-0.8-0.2-2.1-0.2
			c-0.6,0-0.9,0-1.1,0.1c-0.7,0.1-1.1,0.2-1.2,0.3c-0.2,0.1-0.7,0.5-1.6,1.3c-0.8,0.8-1.2,1.2-1.2,1.3c0,0.1-0.1,0.2-0.2,0.4
			c-0.1,0.2-0.2,0.4-0.2,0.6c0,0.3,0,0.4-0.1,0.5c-0.1,0.1-0.2,0.2-0.2,0.3c0,0.2-0.1,0.3-0.2,0.4c-0.1,0.1-0.2,0.6-0.2,1.4
			c0,1,0.1,1.5,0.2,1.6c0.1,0,0.1,0.1,0.1,0.2c0,0.1,0,0.2-0.1,0.2c-0.1,0,0,0.2,0.2,0.4c0.3,0.2,0.4,0.4,0.5,0.4
			c0.1,0,0.1,0.1,0.2,0.3c0.1,0.2,0.2,0.4,0.6,0.7c0.3,0.3,0.6,0.5,0.8,0.6c0.2,0.1,0.2,0.1,0.2,0.2c0,0.1,0.3,0.2,1,0.3
			c0.6,0.1,1.3,0.1,2.1,0.1c1,0,1.6-0.1,1.8-0.3c0.1-0.1,0.3-0.2,0.6-0.3c0.4-0.1,0.6-0.2,0.7-0.2c0,0,0.1,0,0.1,0
			c0,0-0.1,0.2-0.2,0.5c-0.1,0.3-0.2,0.5-0.2,0.5c0,0.2,0.2,0.3,0.6,0.3c0.2,0,0.4,0,0.6,0c1-0.1,1.5-0.2,1.5-0.4
			c0-0.1-0.1-0.3-0.4-0.5c-0.2-0.1-0.3-0.3-0.3-0.4c0-0.2-0.1-0.6-0.1-1.2l-0.1-1.3l0.5,0.1c0.3,0,0.5,0,0.6-0.2
			c0.1-0.2,0.3-0.3,0.6-0.3c0.3,0,0.4-0.1,0.4-0.1c0-0.1,0.1-0.2,0.1-0.5v-0.6l-2.4-0.1C174.7,790.1,174.5,790.1,174.2,790.1z"/>
		<path d="M197.7,782.6c-0.2-0.1-0.5-0.1-0.8-0.1c-0.1,0-0.2,0-0.5,0.1c-0.3,0.1-0.5,0.1-0.7,0.1h-0.1h-0.2c-0.2,0-0.5,0-1,0.1
			c-0.4,0-0.7,0.1-0.8,0.1c-0.1,0-0.2,0.1-0.2,0.2c0,0.2,0,0.3-0.1,0.3c-0.1,0-0.1,0-0.1,0.1c0,0.1,0,0.2,0,0.3
			c0,0.1,0.1,0.2,0.2,0.2c0.1,0.1,0.2,0.5,0.2,1.3c0,0.8,0.1,1.2,0.2,1.2c0.1,0,0.1,0.3,0.1,0.8v0.8h-1.3c-0.8,0-1.7,0-2.7-0.1
			l-1.4-0.1v-0.7c0-0.5,0-0.7,0.1-0.7c0.1,0,0.1-0.3,0.2-0.9c0-1.1,0.1-1.6,0.4-1.6c0.1,0,0.2,0,0.2-0.1c0-0.1,0.1-0.2,0.4-0.2
			c0.2,0,0.4-0.1,0.5-0.2c0.1-0.1,0.2-0.2,0.2-0.4c0-0.2-0.1-0.3-0.2-0.4c-0.2-0.1-0.5-0.2-1-0.2c-0.3,0-0.4,0-0.5,0.1
			c0,0-0.5,0.1-1.3,0.1c-0.9,0.1-1.7,0.2-2.4,0.5c-0.1,0-0.2,0.1-0.2,0.2c0,0.1,0.2,0.2,0.6,0.4l0.6,0.3l0,0.8v0.9v0.3
			c0,0.2,0,0.4,0.1,0.4c0.1,0.1,0.2,0.5,0.2,1.1c0,0.6-0.1,1.1-0.2,1.4c-0.1,0.3-0.2,0.6-0.2,0.8c0,0,0,0,0,0.1c0,0,0,0.1,0,0.1
			c0,0.2,0.1,0.4,0.1,0.6c0,0.5,0,1.1-0.1,1.8c-0.1,0.6-0.2,1-0.2,1.2c-0.1,0.2-0.4,0.3-0.8,0.3c-0.3,0-0.5,0.1-0.6,0.1
			c-0.1,0.1-0.1,0.2-0.1,0.4v0.5l0.7-0.1c0.3-0.1,1-0.1,2.2-0.1h0.7h0.7c1,0,1.6,0,1.6-0.1c0-0.1-0.1-0.3-0.2-0.5
			c-0.2-0.2-0.3-0.3-0.4-0.3h-0.1c-0.2,0.1-0.4,0.1-0.6-0.1c-0.1-0.1-0.2-0.1-0.3-0.2c0-0.1-0.1-0.2-0.1-0.4c0-0.3,0-0.5,0-0.8
			c0-0.9,0.1-1.6,0.1-2.1v-0.8h4.9l0.1,0.4c0,0.2,0.1,0.5,0.1,0.7c0,0.5,0,1.1-0.1,1.7c-0.1,0.6-0.2,1-0.3,1
			c-0.1,0.1-0.4,0.2-0.8,0.3c-0.3,0-0.5,0.1-0.5,0.1c-0.1,0.1-0.1,0.2-0.1,0.4c0,0.3,0.1,0.5,0.3,0.5c0.3,0.1,1.3,0.1,3.1,0.1
			c1.3,0,2,0,2.1-0.1c0.2-0.1,0.3-0.2,0.3-0.4c0-0.2-0.1-0.3-0.2-0.5c-0.1-0.2-0.3-0.2-0.4-0.2c0,0-0.1,0-0.1,0
			c-0.1,0.1-0.3,0.1-0.5,0l-0.4-0.1l0.1-3.5c0-2.3,0.1-3.5,0.2-3.6c0.1,0,0.1-0.3,0.1-0.9c0.1-1.1,0.2-1.6,0.4-1.6
			c0.1,0,0.2,0,0.2-0.1c0-0.1,0.1-0.2,0.4-0.2c0.2,0,0.4-0.1,0.5-0.2c0.2-0.1,0.2-0.3,0.2-0.4C198,782.8,197.9,782.7,197.7,782.6z
			 M186.8,791.5c-0.2-0.1-0.3-0.1-0.3-0.2c0-0.1,0-0.1,0.1-0.1c0.2,0,0.3,0.1,0.4,0.2c0,0,0,0,0,0.1
			C187.1,791.6,187,791.6,186.8,791.5z M187.5,791.5c-0.1,0-0.1-0.1-0.1-0.2c0-0.1,0-0.2,0.1-0.2c0.1,0,0.2,0.1,0.2,0.2
			C187.7,791.4,187.6,791.5,187.5,791.5z M187.5,787.8c-0.1,0-0.2-0.1-0.2-0.3c0-0.3,0.1-0.4,0.2-0.4c0.2,0,0.2,0.1,0.2,0.3
			C187.7,787.7,187.6,787.8,187.5,787.8z M194.6,791.5c-0.1,0.1-0.2,0.1-0.4,0c-0.2-0.1-0.3-0.1-0.3-0.2c0-0.1,0.1-0.1,0.2-0.1
			c0.3,0,0.5,0.1,0.5,0.2C194.7,791.5,194.7,791.5,194.6,791.5z M195,791.5c-0.1,0-0.2-0.1-0.2-0.2c0-0.1,0.1-0.2,0.2-0.2
			c0.1,0,0.1,0.1,0.1,0.2C195.2,791.4,195.1,791.5,195,791.5z M195,787.8c-0.1,0-0.2-0.1-0.2-0.3c0-0.3,0.1-0.4,0.2-0.4
			c0.1,0,0.2,0.1,0.2,0.3C195.2,787.7,195.1,787.8,195,787.8z"/>
		<path d="M216.7,785.3c0.1,0,0.2-0.2,0.2-0.5c0-0.2,0-0.4-0.1-0.4c-0.1,0-0.1-0.1-0.1-0.3c0-0.2,0.1-0.4,0.2-0.6
			c0.1-0.3,0.1-0.5-0.2-0.6c-0.2-0.2-0.5-0.3-0.9-0.3c-0.5,0-0.8,0.1-1.1,0.4c-0.3,0.2-0.4,0.3-0.5,0.2c-0.1-0.1-0.4-0.1-0.8,0
			c-0.5,0.1-1.4,0.2-2.6,0.2c-0.9,0-1.4,0-1.5-0.1c-0.1-0.1-0.2,0-0.4,0.2c-0.1,0.1-0.3,0.2-0.4,0.2c-0.2,0-0.4,0-0.7-0.1
			c-0.7-0.2-1.1-0.2-1.3-0.2c-0.1,0-0.2,0-0.2,0c-0.1,0-0.3,0.1-0.4,0.3s-0.2,0.4-0.2,0.5c0,0.1,0,0.1,0.1,0.2s0.1,0.2,0.1,0.5
			c0,0.1,0,0.2-0.1,0.3c-0.1,0-0.2,0.1-0.3,0.1c-0.3,0-0.5,0.1-0.5,0.3c0,0,0,0.1,0.1,0.2c0.1,0.1,0.1,0.3,0.1,0.6
			c0,0.3-0.1,0.4-0.1,0.5c0,0.5,0.2,0.8,0.6,0.8c0.3,0,0.4-0.1,0.4-0.2c0-0.1,0.1-0.2,0.2-0.2c0.1,0,0.1,0,0.2-0.1c0,0,0-0.1,0-0.2
			c0-0.1-0.1-0.2-0.2-0.2c-0.1-0.1-0.1-0.1-0.1-0.2c0,0,0-0.1,0-0.1c0,0,0-0.1,0.1-0.1c0,0,0.1,0,0.2-0.1c0.2-0.1,0.2-0.2,0.2-0.3
			c0,0,0-0.1,0-0.2c0-0.1,0-0.1,0-0.2c0-0.1,0-0.2,0.1-0.2c0.1-0.1,0.1-0.3,0-0.6c-0.1-0.3-0.1-0.4,0-0.4c0.1,0,0.1,0.1,0.1,0.2
			c0,0.1,0.2,0.2,0.5,0.4c0.4,0.1,0.7,0.2,1.1,0.2c0.4,0,0.7,0.1,0.8,0.3c0.2,0.2,0.3,0.2,0.5,0.2c0.1,0,0.1,0,0.1,0
			c0.1,0,0.1,0,0,0.1c-0.3,0.3-0.4,2.2-0.5,5.8c0,0.8-0.1,1.2-0.3,1.4c-0.2,0.1-0.3,0.3-0.3,0.4c0,0.1-0.3,0.2-0.8,0.2l-0.7,0.1
			l-0.1,0.5c0,0,0,0.1,0,0.1c0,0,0,0.1,0,0.1c0,0.2,0.1,0.4,0.4,0.7c0.3,0.3,0.5,0.4,0.7,0.4c0.1,0,0.1,0,0.1-0.1s0-0.1-0.1-0.1
			c-0.1,0-0.1,0-0.1-0.1c0-0.1,0.2-0.1,0.5-0.1c0.1,0,0.4,0,0.8,0c0.4,0,0.7,0,0.9,0c0.6,0,0.9-0.1,1.1-0.2c0.1-0.1,0.3-0.2,0.6-0.1
			c0.2,0.1,0.3,0,0.4-0.1c0.1-0.1,0.2-0.1,0.3-0.1c0.1,0,0.3-0.1,0.5-0.2c0.1-0.1,0.2-0.2,0.2-0.3c0-0.1-0.1-0.2-0.2-0.5
			c-0.2-0.3-0.3-0.4-0.5-0.4c-0.1,0-0.2-0.1-0.2-0.2c0-0.1-0.1-0.2-0.3-0.1c0,0-0.1,0-0.1,0c-0.1,0-0.1,0-0.1,0
			c-0.1,0-0.2,0-0.3-0.1c0-0.1-0.1-0.3-0.1-0.5v-0.4c0-0.5,0-0.8,0-0.9c0-0.1,0.1-0.2,0.2-0.2c0.2,0,0.2-0.1,0.2-0.4
			c0-0.3-0.1-0.5-0.2-0.5s-0.2-0.4-0.2-1.1c0-0.8,0.1-1.2,0.2-1.4c0.1-0.1,0.2-0.5,0.2-1.2c0-0.7,0.1-1,0.1-1.1
			c0.1-0.2,0.5-0.2,1.2-0.2c1,0,1.5,0.1,1.6,0.4c0,0.1,0.1,0.2,0.4,0.5c0.2,0.2,0.3,0.4,0.3,0.8c0,0.3,0.1,0.5,0.1,0.5
			c0,0.1,0.2,0.1,0.4,0.1c0.2,0,0.4,0,0.4-0.1c0-0.1,0.1-0.2,0.3-0.2c0.2-0.1,0.3-0.2,0.3-0.4c0-0.2-0.1-0.4-0.2-0.5
			C216.6,785.4,216.6,785.3,216.7,785.3z"/>
		<path d="M248.3,785.7c-0.2-0.1-0.2-0.2-0.2-0.5c0-0.3,0-0.5-0.1-0.5c-0.1,0-0.1-0.1-0.1-0.4s-0.1-0.4-0.2-0.4
			c-0.1,0-0.2-0.1-0.3-0.3c-0.1-0.2-0.2-0.3-0.3-0.4c-0.1-0.1-0.2-0.2-0.2-0.4c0-0.2-0.1-0.3-0.4-0.3c-0.7,0-1-0.1-1-0.4
			c0-0.1-0.1-0.2-0.2-0.2c-0.1,0-0.2,0-0.2-0.1s-0.1-0.1-0.3-0.1c-0.2,0-0.3-0.1-0.4-0.2c0-0.1-0.5-0.2-1.5-0.2
			c-0.9,0-1.5,0.1-1.6,0.2c-0.1,0.1-0.2,0.2-0.4,0.2c-0.2,0-0.3,0.1-0.4,0.3c-0.1,0.2-0.3,0.4-0.6,0.4c-0.3,0-0.6,0.1-1.1,0.2
			c-0.5,0.1-0.7,0.3-0.8,0.5c0,0.2-0.2,0.4-0.5,0.7s-0.4,0.5-0.4,0.5c0,0.1-0.1,0.1-0.2,0.1c-0.1,0-0.2,0.1-0.3,0.4
			c-0.1,0.2-0.2,0.5-0.3,0.7c-0.2,0.3-0.2,0.8-0.2,1.8c0,1.2,0.1,2.1,0.4,2.9c0.5,1.4,0.9,2.2,1.2,2.3c0.2,0,0.3,0.1,0.3,0.3
			c0,0.2,0.2,0.2,0.4,0.2c0.2,0,0.4,0,0.4,0.1c0,0.1,0.1,0.1,0.3,0.1c0.2,0,0.3,0.1,0.3,0.4c0,0.2,0,0.3,0.1,0.4
			c0.1,0.1,0.2,0,0.4-0.1c0.1-0.1,0.2-0.1,0.3,0c0.2,0.1,0.9,0.2,2.2,0.2c1.1,0,1.7-0.1,1.7-0.2c0-0.1,0.3-0.2,0.7-0.2
			c0.4,0,0.6-0.1,0.6-0.2c0-0.2,0.1-0.3,0.2-0.3c0,0,0.2-0.1,0.4-0.3c0.3-0.2,0.4-0.3,0.5-0.3c0.1,0,0.2-0.1,0.2-0.3
			c0.1-0.2,0.2-0.3,0.3-0.3c0.1,0,0.2-0.1,0.3-0.3c0-0.2,0.2-0.3,0.4-0.3c0.2-0.1,0.3-0.1,0.3-0.2c0-0.1,0.1-0.1,0.2-0.1
			c0.1,0,0.2-0.2,0.2-0.6c0-0.3,0-0.5-0.1-0.5c-0.1,0-0.1-0.1,0-0.2c0.1-0.1,0.2-0.8,0.2-2.1c0-0.3,0-0.7,0-1.1
			C248.6,786,248.5,785.7,248.3,785.7z M246.1,788.8c-0.1,0-0.2,0.2-0.2,0.4c0,0.3-0.1,0.4-0.2,0.5c-0.1,0.1-0.2,0.4-0.3,0.8
			c-0.1,0.4-0.1,0.6-0.3,0.6c-0.1,0-0.2,0-0.2,0.1c0,0.1-0.1,0.2-0.4,0.2c-0.3,0.1-0.4,0.2-0.4,0.3c0,0.1,0,0.2-0.1,0.2
			c-0.1,0.1-0.2,0.1-0.4,0.2c-0.1,0.1-0.2,0.1-0.3,0.1c0,0.1-0.2,0.1-0.4,0.1c-0.2,0-0.3,0.1-0.5,0.2c-0.1,0.1-0.2,0.1-0.4,0.1
			c-0.2,0-0.4,0-0.7-0.1c-0.5-0.1-1-0.3-1.3-0.6c-0.3-0.3-0.7-0.8-1-1.5c-0.3-0.5-0.4-0.9-0.5-1.1c0-0.2-0.1-0.7-0.1-1.4
			c0-0.7,0-1.1,0.1-1.4c0-0.2,0.1-0.5,0.3-0.8c0.3-0.5,0.6-0.9,1-1.3c0.4-0.4,0.8-0.6,1-0.7c0.3,0,0.5-0.1,0.5-0.3
			c0-0.1,0.1-0.2,0.2-0.2c0.1,0,0.2,0,0.2-0.1c0-0.1,0.1-0.1,0.3-0.1c0.2,0,0.3,0,0.3,0.1c0,0.1,0.3,0.1,0.9,0.1
			c0.5,0,0.8,0.1,0.8,0.2c0,0.1,0.1,0.2,0.3,0.3c0.2,0.1,0.3,0.2,0.3,0.3c0,0.1,0.1,0.2,0.3,0.3c0.3,0.1,0.5,0.4,0.5,0.8
			c0,0.2,0.1,0.5,0.3,0.8c0.2,0.3,0.3,0.7,0.3,1.1c0,0.5,0,0.7,0.1,0.8c0.1,0.1,0.1,0.2,0.1,0.4
			C246.3,788.6,246.3,788.7,246.1,788.8z"/>
		<path d="M266.1,783.9c0-0.3-0.1-0.5-0.2-0.6c-0.1-0.1-0.1-0.2,0-0.4c0.1-0.1,0.1-0.2,0.1-0.2c0-0.1-0.1-0.2-0.2-0.2
			c-0.1-0.1-0.2-0.2-0.2-0.3c0-0.2-0.1-0.3-0.3-0.5c-0.2-0.2-0.4-0.3-0.5-0.3c-0.1,0-0.2,0-0.2,0.1c0,0.1-0.3,0.1-0.9,0.2
			c-0.5,0.1-1.1,0.1-1.7,0.1c-0.6,0-0.9,0-1,0.1c-0.1,0-0.5,0.1-1.4,0.1c-0.9,0.1-1.8,0.2-2.7,0.3c-0.9,0.1-1.4,0.2-1.4,0.2
			c0,0,0,0.1,0,0.2s0,0.2,0.1,0.3c0.1,0.2,0.1,0.3,0.2,0.4c0.1,0,0.3,0.1,0.6,0.1c0.5,0,0.9,0.1,1,0.3c0.1,0.2,0.2,0.7,0.2,1.6
			c0,0.9-0.1,1.4-0.2,1.5c-0.1,0.1-0.1,0.2,0,0.4c0.1,0.3,0.2,0.5,0,0.7c-0.1,0.2-0.2,0.3-0.3,0.3c-0.1,0,0,0.1,0.1,0.2
			c0.1,0.1,0.1,0.3,0.1,0.6c0,0.1,0,0.4-0.1,0.8c-0.1,1.4-0.2,2.3-0.2,2.6c-0.1,0.4-0.1,0.5-0.3,0.6c-0.2,0.1-0.5,0.3-0.8,0.6
			l-0.5,0.6h5v-0.5c0-0.2,0-0.4-0.1-0.4c0-0.1-0.1-0.1-0.3-0.1c-0.2,0-0.4,0-0.4-0.1s-0.1-0.1-0.2-0.1c-0.1,0-0.2-0.1-0.3-0.3
			c0-0.1,0-0.4,0-1.2c0-1.2,0-2.1,0.1-2.8c0-0.1,0.5-0.1,1.4-0.1c0.8,0,1.3,0.1,1.5,0.2c0.3,0.1,0.4,0.4,0.4,0.9
			c0,0.3,0,0.5,0.1,0.5c0.1,0,0.1-0.1,0.3-0.2c0.1-0.1,0.3-0.2,0.5-0.1c0.2,0.1,0.3,0,0.3-0.2c0-0.2,0-0.3,0.1-0.4
			c0.1-0.1,0.1-0.2,0-0.2c-0.1-0.1-0.2-0.3-0.2-0.6c0-0.4,0.1-0.7,0.2-0.8c0.1-0.1,0.1-0.1,0.1-0.2c0-0.1,0-0.1-0.1-0.2
			c-0.1-0.1-0.1-0.2-0.1-0.2c0-0.1,0-0.1,0.1-0.2c0.2-0.1,0.2-0.2,0.2-0.4c0-0.3-0.4-0.4-1.1-0.4c-0.4,0-0.6,0.2-0.6,0.5
			c0,0.1,0,0.2,0.1,0.3c0.1,0.2,0,0.4,0,0.5c-0.1,0.1-0.4,0.2-1,0.3c-0.6,0.1-1.1,0.2-1.6,0.2h-0.5v-0.6c0-0.4,0.1-0.6,0.2-0.7
			c0.1-0.1,0.2-0.2,0.2-0.4c0-0.3-0.1-0.5-0.2-0.8c-0.1-0.2-0.2-0.4-0.2-0.4c0-0.1,0.1-0.1,0.2-0.3c0.2-0.2,0.3-0.4,0.2-0.6
			c0-0.1,0-0.1,0-0.2c0-0.1,0.1-0.2,0.4-0.3c0.3-0.1,0.8-0.1,1.6-0.1c0.7,0,1.1-0.1,1.1-0.1c0.3,0,0.5,0.1,0.7,0.2
			c0.2,0.2,0.3,0.3,0.5,0.4c0.2,0.1,0.3,0.2,0.3,0.3c0,0.1,0.1,0.3,0.3,0.4c0.2,0.1,0.4,0.3,0.5,0.6c0.1,0.4,0.4,0.5,0.8,0.5
			c0.1,0,0.2,0,0.3-0.1c0.1-0.1,0.2-0.2,0.2-0.6c0-0.3-0.1-0.5-0.2-0.5C266.2,784.4,266.1,784.2,266.1,783.9z"/>
		<path d="M294.6,790.5c0-0.6-0.1-0.9-0.2-1.1c-0.1-0.2-0.3-0.4-0.6-0.5c-0.3-0.1-0.5-0.3-0.5-0.4c-0.1-0.1-0.3-0.3-0.9-0.6
			c-0.5-0.3-1-0.5-1.3-0.6c-0.2-0.1-0.5-0.2-0.9-0.5c-0.4-0.3-0.6-0.4-0.6-0.5c0-0.1-0.1-0.2-0.2-0.3c-0.2-0.1-0.2-0.2-0.2-0.3
			c0,0,0-0.1,0-0.1c0.1-0.1,0.1-0.2,0.1-0.3s0-0.3-0.1-0.6c0-0.1,0-0.2,0-0.2c0,0,0.2-0.1,0.3-0.1c0.3,0,0.4-0.1,0.4-0.2
			c0-0.1,0.1-0.2,0.4-0.4c0.3-0.2,0.4-0.3,0.4-0.3c0-0.1,0.1-0.1,0.4-0.2c0.1,0,0.1,0,0.2,0c0.4,0,0.8,0.2,1.2,0.5
			c0.5,0.3,0.7,0.6,0.7,0.9c0,0.2,0.1,0.4,0.3,0.5c0.2,0.1,0.3,0.3,0.3,0.4c0,0.1,0.1,0.3,0.2,0.5s0.3,0.3,0.4,0.3c0,0,0,0,0.1,0
			c0.1-0.1,0.1-0.7,0.2-2v-0.8c0-0.6-0.1-0.9-0.2-0.9c-0.1,0-0.1,0-0.1,0c-0.3,0.1-0.6,0.2-0.8,0.2c-0.3,0-0.6-0.1-1-0.3
			c-0.4-0.2-0.6-0.3-0.7-0.3c0,0-0.1,0-0.2,0.1c-0.3,0.1-0.6,0.1-0.8,0.1c-0.3,0-0.4,0-0.5,0.1c0,0.1-0.1,0.2-0.3,0.2
			c-0.2,0-0.4-0.1-0.5-0.2c-0.1-0.1-0.3-0.2-0.5-0.2h0c-0.1,0-0.1,0-0.1,0c-0.1,0-0.1,0-0.1,0c0,0,0.1,0,0.1,0
			c0.1,0.1,0.2,0.1,0.2,0.2c0,0.2-0.2,0.3-0.5,0.4c-0.3,0.1-0.4,0.2-0.4,0.4c0.1,0.2,0,0.3-0.2,0.4c-0.3,0.1-0.6,0.5-1.1,1.1
			c-0.1,0.2-0.2,0.4-0.2,0.6c0,0,0,0.3,0.1,0.8c0.1,0.7,0.3,1.1,0.4,1.3c0.1,0.2,0.4,0.4,0.7,0.7c0.4,0.3,0.6,0.4,0.8,0.4
			c0.1,0,0.3,0.1,0.6,0.4c0.4,0.3,0.9,0.6,1.7,0.8c0.5,0.1,0.8,0.3,1.1,0.6c0.2,0.2,0.3,0.4,0.5,0.7c0.1,0.3,0.2,0.5,0.2,0.7
			c0,0.1,0,0.1-0.1,0.2c-0.1,0-0.1,0.2-0.1,0.4c0.1,0.2,0,0.4-0.2,0.6c-0.1,0.1-0.2,0.3-0.2,0.4c0,0.2-0.5,0.4-1.4,0.5
			c-0.1,0-0.3,0-0.6,0c-0.9,0-1.7-0.4-2.2-1.2c-0.3-0.4-0.5-0.8-0.5-1c0,0,0-0.1,0-0.2c0-0.1,0-0.2,0-0.2c0,0-0.1-0.1-0.1-0.1
			c-0.1,0-0.1,0-0.1-0.1c0.1-0.3-0.1-0.5-0.4-0.6c-0.1,0-0.2-0.1-0.3-0.1c-0.3,0-0.4,0.2-0.5,0.5c-0.1,1.2-0.1,1.9-0.2,1.9
			c-0.1,0.1-0.1,0.4-0.2,0.8c0,0.1,0,0.3,0,0.4c0,0.2,0.1,0.4,0.3,0.6c0.1,0.1,0.2,0.2,0.3,0.2c0,0,0.1,0,0.2-0.2
			c0.1-0.2,0.2-0.3,0.2-0.4c0-0.3,0.2-0.3,0.5-0.1c0.9,0.5,1.8,0.7,2.9,0.7c0.5,0,1.1-0.1,1.6-0.2c0.6-0.1,1.1-0.3,1.4-0.6
			c0.3-0.3,0.5-0.5,0.5-0.5c0-0.1,0.1-0.2,0.2-0.3c0.2-0.1,0.3-0.4,0.3-0.9c0.1-0.5,0.1-0.7,0.2-0.7c0.1,0,0.1,0,0-0.1
			S294.6,791.2,294.6,790.5z M290.2,788.9C290.1,788.9,290.1,788.9,290.2,788.9c-0.1-0.1-0.1-0.1,0-0.1S290.3,788.8,290.2,788.9
			C290.3,788.9,290.3,788.9,290.2,788.9z"/>
		<path d="M288.7,789.7c0-0.1,0-0.2-0.1-0.2c-0.1,0-0.1,0-0.1,0.1l0.1,0.2C288.7,789.9,288.7,789.9,288.7,789.7z"/>
		<path d="M317.4,782.4c-0.1,0-0.3,0-0.5,0c-0.2,0-0.4,0-0.4,0c-0.4,0-0.6,0-0.7,0.1c-0.1,0-0.3,0.1-0.4,0.3
			c-0.2,0.2-0.3,0.3-0.3,0.4c0,0.1,0,0.1,0.2,0.2c0.3,0.2,0.5,0.2,0.7,0.2c0.3,0,0.4,0.1,0.5,0.3c0.1,0.2,0,0.3-0.1,0.4
			c-0.1,0-0.2,0.2-0.2,0.6c0,0.4-0.1,0.6-0.2,0.6c-0.2,0.1-0.2,0.2-0.2,0.4v0.4c0,0.6-0.1,0.9-0.3,0.9c-0.1,0-0.2,0.1-0.3,0.3
			s-0.1,0.7-0.3,1.5c-0.1,0.4-0.2,0.6-0.4,0.6c-0.1,0-0.2,0.1-0.2,0.2c0,0.1,0,0.2-0.2,0.2c-0.3,0-0.4-0.1-0.5-0.2
			c-0.1-0.2-0.2-0.5-0.3-0.9c-0.1-0.4-0.2-1-0.2-1.7c-0.1-0.5-0.2-0.8-0.3-0.9c-0.1-0.1-0.1-0.4-0.1-0.7c0-0.3,0-0.5-0.1-0.5
			c-0.1,0-0.1-0.1-0.1-0.4c0-0.2-0.1-0.4-0.2-0.5c-0.1-0.1-0.2-0.1-0.2-0.2c0-0.1,0.2-0.2,0.6-0.2c0.4,0,0.7-0.1,0.9-0.3
			c0.1-0.1,0.2-0.2,0.2-0.3c0-0.1,0-0.2-0.1-0.4c-0.1-0.2-0.3-0.4-0.6-0.5c-0.3-0.1-0.8-0.1-1.6-0.1c-0.6,0-1-0.1-1-0.3
			c-0.1-0.2-0.1-0.3-0.2-0.3c-0.1,0-0.2,0.1-0.5,0.3c-0.3,0.2-0.4,0.3-0.5,0.3c-0.3,0-0.5,0.2-0.6,0.6v0.1l0,0.1
			c0,0.3,0.3,0.6,0.9,0.7c0.1,0,0.3,0.1,0.4,0.1c0.1,0.1,0.1,0.2,0.1,0.2s-0.1,0.1-0.2,0.1c-0.1,0-0.1,0.2-0.1,0.6
			c0,0.4-0.1,0.6-0.2,0.6c-0.1,0-0.1,0.2-0.1,0.5c0,0.7-0.2,1.1-0.5,1.2c-0.1,0-0.2,0.1-0.3,0.3c-0.1,0.2-0.1,0.7-0.3,1.5
			c-0.1,0.4-0.2,0.6-0.4,0.6c-0.2,0-0.2,0.1-0.2,0.2c0,0.1,0,0.2-0.2,0.2c-0.3,0-0.5-0.1-0.6-0.2c-0.1-0.2-0.2-0.5-0.2-0.9
			c0-0.6-0.1-0.9-0.2-1c-0.1-0.1-0.1-0.3-0.1-0.6c0-0.4-0.1-0.7-0.2-0.9c-0.1-0.3-0.2-0.5-0.1-0.8c0-0.3,0-0.5-0.1-0.5
			c-0.1,0-0.2-0.1-0.2-0.4c0-0.2-0.1-0.4-0.2-0.5c-0.1-0.1-0.2-0.1-0.2-0.2c0-0.1,0.2-0.2,0.6-0.2c0.4,0,0.7-0.1,0.9-0.3
			c0.1-0.1,0.2-0.2,0.2-0.3c0-0.1-0.1-0.2-0.2-0.4c-0.1-0.2-0.2-0.3-0.4-0.4c-0.2-0.1-0.5-0.1-0.9-0.1c-0.1,0-0.2,0-0.4,0
			c-0.2,0-0.4,0-0.5,0h-0.4c-0.3,0-0.4,0-0.5-0.1c-0.1,0-0.1-0.1-0.2-0.3c-0.1-0.2-0.1-0.4-0.3-0.4c-0.1,0-0.2,0.1-0.5,0.3
			c-0.2,0.2-0.4,0.3-0.5,0.3c-0.1,0-0.3,0.1-0.4,0.2c-0.1,0.1-0.2,0.3-0.2,0.4c0,0.4,0.3,0.7,0.9,0.8c0.5,0.1,0.9,0.6,1,1.6
			c0.1,0.4,0.2,0.6,0.3,0.8c0.1,0.1,0.2,0.4,0.2,0.7c0,0.3,0.1,0.5,0.2,0.6c0.4,0.4,0.5,1.1,0.5,1.9c0,0.4,0,0.6,0.1,0.7
			c0.1,0.1,0.1,0.2,0.1,0.4c0,0.2,0,0.3,0.1,0.4c0.1,0.1,0.2,0.3,0.2,0.8c0,0.4,0.1,0.6,0.2,0.6c0.1,0,0.2,0.2,0.2,0.5
			c0,0.3,0.1,0.5,0.2,0.5c0.1,0,0.2,0.1,0.3,0.4c0.1,0.3,0.3,0.5,0.6,0.5c0.1,0,0.3-0.1,0.4-0.2c0.1-0.1,0.2-0.3,0.2-0.4
			c0-0.3,0-0.4,0.1-0.4c0.1,0,0.2-0.1,0.2-0.4c0-0.3,0-0.5,0.1-0.5c0.1,0,0.2-0.2,0.2-0.5c0-0.3,0.1-0.6,0.3-0.9
			c0.2-0.3,0.4-0.5,0.6-0.6c0.2-0.1,0.3-0.3,0.3-0.6c0-0.4,0.1-0.6,0.2-0.6c0.1,0,0.2-0.2,0.2-0.5c0-0.3,0.1-0.6,0.2-0.8
			c0.1-0.2,0.2-0.4,0.1-0.5c-0.1-0.2,0.1-0.3,0.4-0.4c0.3-0.1,0.4-0.2,0.5-0.3c0.1,0,0.1,0.1,0.1,0.4c0,0.4,0.1,0.6,0.2,0.8
			c0.4,0.5,0.6,1.1,0.6,1.9c0,0.4,0,0.6,0.1,0.6c0.1,0,0.1,0.1,0.1,0.4c-0.1,0.2,0,0.4,0.1,0.5c0.1,0.1,0.2,0.3,0.2,0.8
			c0,0.4,0.1,0.6,0.2,0.6c0.2,0,0.2,0.2,0.2,0.5c0,0.3,0.1,0.5,0.2,0.5c0.1,0,0.2,0.1,0.3,0.4c0.1,0.3,0.3,0.5,0.6,0.5
			c0.1,0,0.3-0.1,0.4-0.2c0.1-0.1,0.2-0.3,0.2-0.4c0-0.3,0.1-0.4,0.2-0.4c0.1,0,0.1-0.1,0.1-0.4c0-0.3,0-0.5,0.1-0.5
			c0.1,0,0.2-0.2,0.2-0.5c0-0.3,0.1-0.6,0.3-1c0.2-0.4,0.4-0.6,0.5-0.6c0.1,0,0.2-0.2,0.2-0.6c0-0.5,0.1-0.7,0.2-0.7
			c0.1,0,0.2-0.2,0.2-0.5c0-0.3,0.1-0.6,0.2-0.8c0.1-0.2,0.2-0.4,0.2-0.6c0-0.1,0.1-0.2,0.4-0.3c0.3-0.1,0.4-0.2,0.4-0.3
			c0-0.1,0-0.1,0-0.2c0-0.1,0-0.1,0-0.2c0-0.6,0.1-0.9,0.3-0.9c0.1,0,0.1-0.1,0.2-0.4c0-0.3,0.1-0.4,0.2-0.4c0.1,0,0.2-0.1,0.2-0.2
			c0-0.1,0.1-0.2,0.4-0.2c0.3,0,0.5-0.1,0.6-0.2c0.1-0.1,0.2-0.3,0.2-0.6l0-0.4L317.4,782.4z"/>
		<path d="M338.4,785.7c-0.2-0.1-0.2-0.2-0.2-0.5c0-0.3,0-0.5-0.1-0.5c-0.1,0-0.1-0.1-0.1-0.4s-0.1-0.4-0.2-0.4
			c-0.1,0-0.2-0.1-0.3-0.3c-0.1-0.2-0.2-0.3-0.3-0.4c-0.1-0.1-0.2-0.2-0.2-0.4c0-0.2-0.1-0.3-0.4-0.3c-0.7,0-1-0.1-1-0.4
			c0-0.1-0.1-0.2-0.2-0.2c-0.1,0-0.2,0-0.2-0.1s-0.1-0.1-0.3-0.1c-0.2,0-0.3-0.1-0.4-0.2c0-0.1-0.5-0.2-1.5-0.2
			c-0.9,0-1.5,0.1-1.6,0.2c-0.1,0.1-0.2,0.2-0.4,0.2c-0.2,0-0.3,0.1-0.4,0.3c-0.1,0.2-0.3,0.4-0.6,0.4c-0.3,0-0.6,0.1-1.1,0.2
			c-0.5,0.1-0.7,0.3-0.8,0.5c0,0.2-0.2,0.4-0.5,0.7c-0.3,0.3-0.4,0.5-0.4,0.5c0,0.1-0.1,0.1-0.2,0.1c-0.1,0-0.2,0.1-0.3,0.4
			c-0.1,0.2-0.2,0.5-0.3,0.7c-0.2,0.3-0.2,0.8-0.2,1.8c0,1.2,0.1,2.1,0.4,2.9c0.5,1.4,0.9,2.2,1.2,2.3c0.2,0,0.3,0.1,0.3,0.3
			c0,0.2,0.2,0.2,0.4,0.2c0.2,0,0.4,0,0.4,0.1c0,0.1,0.1,0.1,0.3,0.1c0.2,0,0.3,0.1,0.3,0.4c0,0.2,0,0.3,0.1,0.4
			c0.1,0.1,0.2,0,0.4-0.1c0.1-0.1,0.2-0.1,0.3,0c0.2,0.1,0.9,0.2,2.2,0.2c1.1,0,1.7-0.1,1.7-0.2c0-0.1,0.3-0.2,0.7-0.2
			c0.4,0,0.6-0.1,0.6-0.2c0-0.2,0.1-0.3,0.2-0.3c0,0,0.2-0.1,0.4-0.3c0.3-0.2,0.4-0.3,0.5-0.3c0.1,0,0.2-0.1,0.2-0.3
			c0.1-0.2,0.2-0.3,0.3-0.3c0.1,0,0.2-0.1,0.3-0.3c0-0.2,0.2-0.3,0.4-0.3c0.2-0.1,0.3-0.1,0.3-0.2c0-0.1,0.1-0.1,0.2-0.1
			c0.1,0,0.2-0.2,0.2-0.6c0-0.3,0-0.5-0.1-0.5c-0.1,0-0.1-0.1,0-0.2c0.1-0.1,0.2-0.8,0.2-2.1c0-0.3,0-0.7,0-1.1
			C338.6,786,338.5,785.7,338.4,785.7z M336.2,788.8c-0.1,0-0.2,0.2-0.2,0.4c0,0.3-0.1,0.4-0.2,0.5c-0.1,0.1-0.2,0.4-0.3,0.8
			c-0.1,0.4-0.1,0.6-0.3,0.6c-0.1,0-0.2,0-0.2,0.1c0,0.1-0.1,0.2-0.4,0.2c-0.3,0.1-0.4,0.2-0.4,0.3c0,0.1,0,0.2-0.1,0.2
			c-0.1,0.1-0.2,0.1-0.4,0.2c-0.1,0.1-0.2,0.1-0.3,0.1c0,0.1-0.2,0.1-0.4,0.1c-0.2,0-0.3,0.1-0.5,0.2c-0.1,0.1-0.2,0.1-0.4,0.1
			c-0.2,0-0.4,0-0.7-0.1c-0.5-0.1-1-0.3-1.3-0.6c-0.3-0.3-0.7-0.8-1-1.5c-0.3-0.5-0.4-0.9-0.5-1.1c0-0.2-0.1-0.7-0.1-1.4
			c0-0.7,0-1.1,0.1-1.4c0-0.2,0.1-0.5,0.3-0.8c0.3-0.5,0.6-0.9,1-1.3c0.4-0.4,0.8-0.6,1-0.7c0.3,0,0.5-0.1,0.5-0.3
			c0-0.1,0.1-0.2,0.2-0.2c0.1,0,0.2,0,0.2-0.1c0-0.1,0.1-0.1,0.3-0.1c0.2,0,0.3,0,0.3,0.1c0,0.1,0.3,0.1,0.9,0.1
			c0.5,0,0.8,0.1,0.8,0.2c0,0.1,0.1,0.2,0.3,0.3c0.2,0.1,0.3,0.2,0.3,0.3c0,0.1,0.1,0.2,0.3,0.3c0.3,0.1,0.5,0.4,0.5,0.8
			c0,0.2,0.1,0.5,0.3,0.8c0.2,0.3,0.3,0.7,0.3,1.1c0,0.5,0,0.7,0.1,0.8c0.1,0.1,0.1,0.2,0.1,0.4
			C336.4,788.6,336.3,788.7,336.2,788.8z"/>
		<path d="M351.9,780.4C352,780.3,352,780.3,351.9,780.4c0.1-0.1,0-0.1-0.2-0.1c-0.2,0-0.3,0.1-0.3,0.2
			C351.6,780.5,351.7,780.5,351.9,780.4C351.9,780.4,351.9,780.4,351.9,780.4z"/>
		<path d="M347.5,779.4c0-0.1-0.1-0.1-0.3-0.1s-0.3,0-0.3,0.1c0,0.1,0.1,0.2,0.3,0.2S347.5,779.5,347.5,779.4z"/>
		<path d="M358.9,792.7c-0.1,0-0.2-0.1-0.3-0.4c-0.1-0.2-0.3-0.4-0.5-0.4c-0.2,0-0.4-0.1-0.6-0.2c-0.2-0.1-0.4-0.2-0.4-0.4
			c-0.1-0.1-0.1-0.2-0.3-0.2c-0.1,0-0.3-0.1-0.6-0.4c-0.2-0.3-0.4-0.6-0.6-0.9c-0.1-0.3-0.4-0.6-0.8-1.1c-0.4-0.5-0.7-0.7-0.8-0.7
			c-0.1,0-0.2-0.1-0.4-0.3c-0.1-0.1-0.2-0.2-0.1-0.3c0,0,0.1-0.1,0.3-0.2c0.8-0.3,1.2-0.6,1.2-0.9c0-0.5,0.1-0.7,0.3-0.7
			c0.1,0,0.2-0.1,0.4-0.2c0.2-0.2,0.2-0.7,0.2-1.5c0-1-0.1-1.5-0.3-1.7c-0.1-0.1-0.2-0.2-0.4-0.2c-0.1,0-0.2,0-0.2-0.1
			c0-0.1-0.1-0.2-0.4-0.3c-0.3-0.1-0.4-0.3-0.5-0.5l-0.2-0.3c-0.1-0.1-0.2-0.1-0.2,0.1c0,0.1-0.3,0.1-0.8,0.1c-0.6,0-0.9,0-0.9-0.1
			c0-0.1-0.1-0.1-0.4-0.1s-0.5-0.1-0.6-0.3c-0.2-0.2-0.3-0.3-0.4-0.3c-0.1,0-0.2,0.1-0.1,0.3c0,0,0,0,0,0.1v0.1
			c0,0.1-0.6,0.2-1.8,0.2h-1.9l-0.5,0.5c-0.3,0.3-0.5,0.6-0.5,0.7c0,0.1,0.2,0.2,0.5,0.3c0.3,0.1,0.5,0.1,0.5,0.2
			c0,0.1,0,0.1,0.1,0.1c0.2,0,0.4,0.2,0.6,0.5c0.2,0.3,0.3,0.7,0.3,1.2c0,0.4,0.1,0.6,0.1,0.6c0,0.2-0.1,0.4-0.2,0.5
			c-0.2,0.1-0.2,0.2-0.1,0.3c0.1,0.1,0.2,0.3,0.2,0.7c0,0.3-0.1,0.5-0.2,0.5c-0.1,0-0.2,0,0,0.1c0.1,0.1,0.2,0.2,0.2,0.4
			c0,0.2-0.1,0.4-0.2,0.5c-0.1,0.1-0.1,0.3,0.1,0.4c0.1,0.1,0.2,0.3,0.2,0.4c0,0.1-0.1,0.3-0.2,0.4c-0.2,0.2-0.3,0.7-0.3,1.6
			c0,0.7,0,1.1-0.1,1.2c0,0.1-0.1,0.2-0.3,0.3c-0.2,0.1-0.3,0.1-0.3,0.2c0,0.1-0.3,0.1-0.8,0.1c-0.4,0-0.6,0.1-0.7,0.1
			c-0.1,0.1-0.1,0.2-0.1,0.5c0,0.2,0.2,0.5,0.6,0.8c0.2,0.1,0.3,0.2,0.5,0.2c0.2,0,0.3-0.1,0.3-0.2c0.1-0.1,0.8-0.2,2.1-0.2
			c1.3,0,2.1-0.1,2.2-0.3c0.1-0.1,0.2-0.2,0.3-0.2c0.1,0,0.2-0.1,0.2-0.2c0-0.1-0.1-0.2-0.4-0.2c-0.3,0-0.4-0.1-0.5-0.3
			c0-0.2-0.2-0.3-0.5-0.4c-0.4-0.1-0.5-0.2-0.5-0.4c0-0.1,0-0.2,0.1-0.3c0.2-0.2,0.2-0.3,0.1-0.4c-0.1,0-0.2-0.6-0.2-1.6
			c0-0.3,0-0.6,0-1c0-0.3,0-0.4,0.1-0.5c0-0.1,0.1-0.1,0.2-0.1c0.5,0,1,0.2,1.5,0.5c0.5,0.4,0.8,0.7,0.8,1c0,0.2,0.1,0.3,0.2,0.3
			s0.2,0.1,0.2,0.4c0,0.5,0.3,0.8,0.8,1c0.2,0.1,0.4,0.3,0.5,0.7c0.1,0.4,0.3,0.8,0.7,1.2l0.6,0.7l0.9-0.1c0.1,0,0.3,0,0.6-0.1
			c0.3,0,0.6,0,0.8-0.1c0.2,0,0.4-0.1,0.7-0.1c0.3-0.1,0.4-0.1,0.6-0.2c0.1-0.1,0.2-0.2,0.2-0.3C359,792.8,358.9,792.7,358.9,792.7z
			 M353.2,785.9c-0.1,0-0.2,0-0.2,0.1c-0.1,0-0.1,0,0,0.1c0.2,0,0.2,0.1,0.2,0.2c0,0.1-0.1,0.3-0.4,0.4c-0.2,0.2-0.5,0.3-0.7,0.3
			c-0.3,0-0.6,0.1-1.1,0.2c-0.1,0-0.2,0-0.3,0c-0.2,0-0.4-0.1-0.7-0.3c-0.2-0.2-0.3-0.3-0.4-0.3c0-0.1,0-0.1,0.1-0.2
			c0.1-0.1,0.2-0.7,0.2-1.6v-1.2c0-0.3,0.1-0.5,0.2-0.7c0.1-0.2,0.3-0.4,0.4-0.4h0.1l0.4,0.1c0.3,0,0.5,0.1,0.8,0.1
			c0.2,0.1,0.4,0.1,0.4,0.1c0,0.1,0.1,0.1,0.4,0.2c0.3,0.1,0.4,0.2,0.4,0.3c0,0.1,0.1,0.3,0.2,0.4c0.1,0.1,0.2,0.2,0.1,0.3
			c-0.1,0.1-0.1,0.3,0.1,0.6c0.1,0.2,0.2,0.5,0.2,0.8v0.1c0,0.2-0.1,0.4-0.1,0.4S353.4,785.9,353.2,785.9z"/>
		<path d="M378.2,785.5c0-0.2-0.1-0.3-0.2-0.5c-0.2-0.2-0.3-0.3-0.4-0.3c-0.1,0-0.2-0.1-0.2-0.2c0-0.1-0.1-0.3-0.3-0.6
			c-0.2-0.2-0.3-0.3-0.4-0.3c-0.1,0-0.2-0.1-0.2-0.2c0-0.1-0.1-0.2-0.3-0.3c-0.2-0.1-0.3-0.1-0.3-0.2c0-0.1-0.1-0.1-0.4-0.1
			c-0.2,0-0.3-0.1-0.6-0.2c-0.2-0.1-0.4-0.2-0.5-0.2c-0.2,0-0.3,0-0.3-0.1s-0.1-0.1-0.4-0.1c-0.2,0-0.3,0-0.4-0.1
			c-0.1-0.1-0.2-0.1-0.2-0.1c-0.1,0-0.2,0-0.4,0.1c-0.3,0.1-0.6,0.2-1,0.2c-0.2,0-0.4,0-0.4-0.1c-0.1,0-0.1-0.1-0.1-0.2
			c0-0.2-0.1-0.3-0.2-0.3c-0.1,0-0.2,0-0.3,0.2c-0.1,0.1-0.1,0.1-0.2,0c-0.2-0.3-0.3-0.2-0.4,0.1c-0.1,0.2-0.2,0.3-0.4,0.2
			c-0.2-0.1-0.5-0.2-1-0.2c-0.4,0-0.7-0.1-0.8-0.2c0-0.1-0.1-0.1-0.3,0.1c-0.2,0.1-0.3,0.1-0.3,0c-0.1-0.1-0.2-0.2-0.5-0.2
			c-0.2,0-0.4,0-0.4,0.1s-0.1,0.1-0.3,0.1c-0.1,0-0.2,0-0.2,0.1c0,0.1-0.1,0.3-0.1,0.5c0,0.3,0,0.5,0.1,0.6c0,0.1,0.2,0.2,0.3,0.3
			c0.2,0.1,0.3,0.1,0.4,0.1c0,0,0.1,0,0.1,0c0.1,0,0.1,0,0.1,0c0.1,0,0.2,0,0.3,0.1c0.2,0.1,0.4,0.4,0.4,0.8c0,0.4,0,0.6-0.1,0.6
			c-0.1,0-0.1,0.3-0.1,0.9c0,0.6,0,0.8,0.1,0.8c0.1,0,0.1,0.1,0.1,0.4c0,0.2,0,0.4-0.1,0.5c-0.1,0.1-0.1,1-0.2,2.8l-0.1,2.7l-0.5,0
			c-0.4,0-0.6,0.2-0.8,0.4c-0.2,0.2-0.3,0.4-0.3,0.5c0,0.1,0.1,0.2,0.4,0.4c0.3,0.2,0.5,0.2,0.7,0.2c0.1,0,0.2,0,0.2-0.1
			c0-0.1,0.3-0.1,0.8-0.1c0.5,0,0.8,0,0.8,0.1c0,0.1,0.9,0.2,2.6,0.2c1.1,0,1.7,0,1.8-0.1c0.1-0.1,0.4-0.2,0.7-0.2
			c0.4-0.1,0.8-0.2,1.3-0.5c0.5-0.2,0.8-0.4,1-0.4c0.2,0,0.3-0.1,0.4-0.4c0.1-0.3,0.3-0.6,0.7-1.1c0.4-0.4,0.6-0.7,0.6-0.8
			c0-0.1,0-0.2,0.1-0.2c0.1,0,0.1-0.1,0.1-0.3c0-0.2,0.1-0.4,0.2-0.5c0.1-0.1,0.1-0.8,0.1-2c0-1.4-0.1-2.1-0.2-2.2
			C378.2,785.8,378.2,785.7,378.2,785.5z M376.1,789.7c-0.1,0.1-0.2,0.2-0.2,0.5c0,0.3-0.1,0.5-0.2,0.6c-0.3,0.3-0.5,0.6-0.6,1
			c-0.1,0.2-0.1,0.2-0.2,0.2c-0.1,0-0.3,0.2-0.7,0.5c-0.4,0.3-0.7,0.5-0.9,0.5c-0.2,0-0.3,0.1-0.4,0.2c-0.1,0.1-0.1,0.1-0.2,0
			c-0.1-0.1-0.1-0.2-0.3-0.2s-0.2,0.1-0.3,0.2c0,0.1-0.3,0.1-0.9,0.1c-0.6,0-1.1,0-1.6,0c-0.2,0-0.2-0.1-0.2-0.4s-0.1-0.4-0.2-0.4
			s-0.2,0-0.2-0.1c0-0.1,0.1-0.1,0.2-0.2c0.1-0.1,0.2-0.2,0.2-0.3c0-0.1,0.1-0.2,0.2-0.2c0.1,0,0.1-0.1,0.2-0.4
			c0.1-0.2,0.1-0.5,0.1-0.8c0-0.1,0-0.3-0.1-0.5c0,0,0,0,0-0.1c0,0,0-0.1,0-0.1c0-0.2,0.1-0.4,0.2-0.6l0.2-0.4c0,0-0.1-0.1-0.2-0.1
			c-0.1,0-0.2-0.3-0.2-0.8c0-0.5,0-1,0-1.5c0-1.4,0.1-2.2,0.1-2.4s0.1-0.5,0.4-0.8c0.2-0.2,0.4-0.3,0.6-0.3c0.1,0,0.2,0,0.3,0
			c0.1,0,0.3,0,0.7,0.1c0.4,0,0.7,0.1,1,0.1c0.3,0.1,0.4,0.1,0.5,0.2c0.1,0.1,0.2,0.2,0.4,0.2c0.2,0,0.4,0.1,0.4,0.3
			c0.1,0.2,0.2,0.3,0.3,0.3c0.2,0,0.2,0,0.2,0.1s0.1,0.2,0.3,0.2c0.2,0.1,0.3,0.2,0.3,0.3c0,0.1,0.1,0.3,0.2,0.4
			c0.1,0.1,0.2,0.4,0.3,0.9c0,0.4,0.1,0.7,0.2,0.8c0.1,0.1,0.1,0.5,0.1,1.3S376.1,789.7,376.1,789.7z"/>
		<path d="M388,788.7c0-0.1,0-0.2-0.1-0.2c-0.1,0-0.1,0-0.1,0.1l0.1,0.2C387.9,789,388,788.9,388,788.7z"/>
		<path d="M393.9,789.5c0-0.6-0.1-0.9-0.2-1.1c-0.1-0.2-0.3-0.4-0.6-0.5c-0.3-0.1-0.5-0.3-0.5-0.4c-0.1-0.1-0.3-0.3-0.9-0.6
			c-0.5-0.3-1-0.5-1.3-0.6c-0.2-0.1-0.5-0.2-0.9-0.5c-0.4-0.3-0.6-0.4-0.6-0.5c0-0.1-0.1-0.2-0.2-0.3c-0.2-0.1-0.2-0.2-0.2-0.3
			c0,0,0-0.1,0-0.1c0.1-0.1,0.1-0.2,0.1-0.3c0-0.1,0-0.3-0.1-0.6c0-0.1,0-0.2,0-0.2c0,0,0.2-0.1,0.3-0.1c0.3,0,0.4-0.1,0.4-0.2
			c0-0.1,0.1-0.2,0.4-0.4c0.3-0.2,0.4-0.3,0.4-0.3c0-0.1,0.1-0.1,0.4-0.2c0.1,0,0.1,0,0.2,0c0.4,0,0.8,0.2,1.2,0.5
			c0.5,0.3,0.7,0.6,0.7,0.9c0,0.2,0.1,0.4,0.3,0.5c0.2,0.1,0.3,0.3,0.3,0.4s0.1,0.3,0.2,0.5s0.3,0.3,0.4,0.3c0,0,0,0,0.1,0
			c0.1-0.1,0.1-0.7,0.2-2v-0.8c0-0.6-0.1-0.9-0.2-0.9c-0.1,0-0.1,0-0.1,0c-0.3,0.1-0.6,0.2-0.8,0.2c-0.3,0-0.6-0.1-1-0.3
			c-0.4-0.2-0.6-0.3-0.7-0.3c0,0-0.1,0-0.2,0.1c-0.3,0.1-0.6,0.1-0.8,0.1c-0.3,0-0.4,0-0.5,0.1c0,0.1-0.1,0.2-0.3,0.2
			c-0.2,0-0.4-0.1-0.5-0.2c-0.1-0.1-0.3-0.2-0.5-0.2h0c-0.1,0-0.1,0-0.1,0c-0.1,0-0.1,0-0.1,0c0,0,0.1,0,0.1,0
			c0.1,0.1,0.2,0.1,0.2,0.2c0,0.2-0.2,0.3-0.5,0.4c-0.3,0.1-0.4,0.2-0.4,0.4c0.1,0.2,0,0.3-0.2,0.4c-0.3,0.1-0.6,0.5-1.1,1.1
			c-0.1,0.2-0.2,0.4-0.2,0.6c0,0,0,0.3,0.1,0.8c0.1,0.7,0.3,1.1,0.4,1.3c0.1,0.2,0.4,0.4,0.7,0.7c0.4,0.3,0.6,0.4,0.8,0.4
			c0.1,0,0.3,0.1,0.6,0.4c0.4,0.3,0.9,0.6,1.7,0.8c0.5,0.1,0.8,0.3,1.1,0.6c0.2,0.2,0.3,0.4,0.5,0.7c0.1,0.3,0.2,0.5,0.2,0.7
			c0,0.1,0,0.1-0.1,0.2c-0.1,0-0.1,0.2-0.1,0.4c0.1,0.2,0,0.4-0.2,0.6c-0.1,0.1-0.2,0.3-0.2,0.4c0,0.2-0.5,0.4-1.4,0.5
			c-0.1,0-0.3,0-0.6,0c-0.9,0-1.7-0.4-2.2-1.2c-0.3-0.4-0.5-0.8-0.5-1c0,0,0-0.1,0-0.2c0-0.1,0-0.2,0-0.2c0,0-0.1-0.1-0.1-0.1
			c-0.1,0-0.1,0-0.1-0.1c0.1-0.3-0.1-0.5-0.4-0.6c-0.1,0-0.2-0.1-0.3-0.1c-0.3,0-0.4,0.2-0.5,0.5c-0.1,1.2-0.1,1.9-0.2,1.9
			c-0.1,0.1-0.1,0.4-0.2,0.8c0,0.1,0,0.3,0,0.4c0,0.2,0.1,0.4,0.3,0.6c0.1,0.1,0.2,0.2,0.3,0.2c0,0,0.1,0,0.2-0.2
			c0.1-0.2,0.2-0.3,0.2-0.4c0-0.3,0.2-0.3,0.5-0.1c0.9,0.5,1.8,0.7,2.9,0.7c0.5,0,1.1-0.1,1.6-0.2c0.6-0.1,1.1-0.3,1.4-0.6
			c0.3-0.3,0.5-0.5,0.5-0.5c0-0.1,0.1-0.2,0.2-0.3c0.2-0.1,0.3-0.4,0.3-0.9c0.1-0.5,0.1-0.7,0.2-0.7c0.1,0,0.1,0,0-0.1
			S393.9,790.2,393.9,789.5z M389.5,788C389.4,788,389.4,787.9,389.5,788c-0.1-0.1-0.1-0.1,0-0.1S389.6,787.9,389.5,788
			C389.6,787.9,389.5,788,389.5,788z"/>
		<polygon points="51.7,807.5 44,812.7 41.2,798.7 38.4,812.7 30.7,807.5 35.9,815.3 21.8,818 35.9,820.8 30.7,828.5 38.4,823.3 
			41.2,837.4 43.9,823.4 51.7,828.5 46.5,820.8 60.5,818 46.5,815.3 		"/>
		<polygon points="468.1,815.3 473.3,807.5 465.5,812.7 462.8,798.7 460,812.7 452.3,807.5 457.5,815.3 443.4,818 457.5,820.8 
			452.3,828.5 460,823.3 462.8,837.4 465.5,823.4 473.3,828.5 468.1,820.8 482.1,818 		"/>
		<polygon points="30.7,56.3 38.4,51.1 41.2,65.1 44,51.1 51.7,56.3 46.5,48.5 60.5,45.8 46.5,43 51.7,35.3 43.9,40.4 41.2,26.4 
			38.4,40.5 30.7,35.3 35.9,43 21.8,45.8 35.9,48.5 		"/>
		<polygon points="473.3,35.3 465.5,40.4 462.8,26.4 460,40.5 452.3,35.3 457.5,43 443.4,45.8 457.5,48.5 452.3,56.3 460,51.1 
			462.8,65.1 465.5,51.1 473.3,56.3 468.1,48.5 482.1,45.8 468.1,43 		"/>
		<path d="M165.7,604.5c4.3,1.3,7.3-0.8,9.8-4.1c2.5-3.3,3.1-7.3,0-10.3c1.8-1.9,3.3-0.3,5.6,1.2c2.9,1.9,5.7,4.1,8.5,6.2
			c7,5.5,13.9,11.2,20.6,17c9.2,7.9,18.2,15.9,27.2,24c0.8,0.7,1.8,0.5,2.3-0.3c4-5.4,6-10.9,1.9-16.2c4.6-7.3-10.2-14.2-15.3-17.9
			c-6.4-4.6-12.7-9.3-18.9-14.1c-4.6-3.6-19.2-12.6-14-19.5c1.7,0.3,3.4,0,5-1c1.5-1,2.4-2.6,2.4-4.5c0-1.2-0.6-2.1-0.8-3.2
			c-0.3-1.5,0.5-2.6,1.7-3.4c0.6,0.5,1.1,0.9,1.7,1.4c0.6,0.5,1.6,0.7,2.1,0c1.2-1.5,2.3-2.9,3.5-4.4c7,4.6,14.2-2.8,11.8-9.2
			c1.3-1.6,2.5-3.2,3.8-4.8c0.1-0.1,0.1-0.2,0.1-0.2c0.5-0.5,0.6-1.3-0.1-1.9c-0.1,0-0.1-0.1-0.2-0.1c23.3-29.5,46.6-59,69.8-88.5
			c28.9-36.6,57.8-73.3,86.7-109.9c2.7-3.5,4.1-6.3,5.8-10.5c4.8-11.5,9.5-23,14.3-34.5c0.3-0.7-0.2-1.4-0.9-1.7
			c-0.5-0.3-1-0.3-1.5,0.2c-8.7,6.3-17.5,12.7-26.2,19c-3.8,2.7-7.9,5.1-10.9,8.7c-10.3,12.4-20,25.3-29.9,37.9
			c-34.2,43.4-68.5,86.8-102.7,130.2c-8.6,10.8-17.1,21.7-25.7,32.5c-0.6-0.4-1.5-0.6-2,0.1c-1.3,1.6-2.6,3.3-3.9,4.9c0,0,0,0,0,0
			c-3.2-0.7-6.1,1-8.2,4.5c-2.1,3.6-1.1,6.6,1.8,9.2c-1.1,1.4-2.2,2.7-3.2,4.1c-0.4,0.6-0.7,1.6,0,2.1c0.5,0.4,1,0.8,1.5,1.2
			c-1.5,3.5-4.5,1.3-7.5,2.9c-1.8,1-2.8,2.9-2.9,4.9c-0.1,1,0.1,2.1,0.5,3.1c-6.3,6-16.8-5-21.9-9.1c-6-4.8-11.9-9.8-17.7-14.8
			c-4.8-4.1-14.9-16.8-20.9-10.7c-6.2-2.8-11,0.5-15.3,5.6c-0.6,0.8-0.5,1.8,0.3,2.3c10,6.8,19.9,13.8,29.7,20.9
			c7.3,5.3,14.5,10.6,21.5,16.2c2.6,2.1,5.2,4.2,7.6,6.5c2.4,2.2,4.1,3.1,2.5,5.7c-2.7-1.8-5.3-1.9-8,0.3c-2.2,1.8-4.9,4.6-5,7.7
			c-0.1,2.3,0.7,3.9,2.1,5c-3.8,1.8-6.7,4.6-6,9.3c-9.2,5.8-16.5,14.2-22.7,23c-4.6,6.4-9.4,13.6-11.8,21.3
			c-2.5,0.5-4.6,2.5-5.6,4.8c-1.4,3.2-0.2,6.6,2.5,8.7c2.7,2.1,6.3,2.2,9.1,0.2c2-1.4,3.6-3.9,3.4-6.4c6.8-4.2,12.7-10.5,17.9-16.5
			c2.8-3.1,5.4-6.4,7.8-9.8c0.2-0.2,0.4-0.5,0.5-0.8c1.4-2,2.7-4,3.9-6.1c0.1-0.1,0.2-0.3,0.3-0.5c1.8-3.2,3.3-6.6,4.6-10.1
			c2.5,0,4.6-1.6,6-3.7c0.9-1.4,1.4-2.7,1.6-4.1C165.3,604.3,165.5,604.4,165.7,604.5z M238.3,635.2c-5.2-4.7-10.5-9.5-15.8-14.1
			c4.8-3.2,11,2.7,16.4,2.2C242.5,627.3,240.9,631.3,238.3,635.2z M239.2,620.2c-3.6,1-8.3-2.2-11.9-2.7c-2.7-0.4-5.1,0-7.2,1.6
			c-4.9-4.3-9.9-8.6-14.9-12.8c-4.7-3.9-9.3-7.8-14.2-11.6c9.8-2.9,16.9,9.5,23.2,14.5c5.9,4.6,12.2,5.2,19.2,3.4
			C236.9,615.2,239.8,618.1,239.2,620.2z M221.6,604.3c-0.9,0.3-1.9,0-2.7-0.6c-0.9-0.6-2.2-1.8-2.2-3.1
			C218.3,601.9,220,603.1,221.6,604.3z M188.4,561.4c0.6-1.5,3-5.2,4-3.3c0.8,1.4-1.6,3.6-3,4.3
			C189.2,562.1,188.9,561.7,188.4,561.4z M190.8,546.1c0.7-0.9,1.4-1.7,2.1-2.6c4.4,3.6,8.9,7.1,13.4,10.6c-0.7,0.9-1.4,1.7-2.1,2.6
			C199.8,553.1,195.3,549.6,190.8,546.1z M221.4,540.6c-0.7,0.9-1.4,1.7-2.1,2.6c-6.3-5-12.6-10-18.9-14.9c0.7-0.9,1.4-1.7,2.1-2.6
			C208.8,530.7,215.1,535.6,221.4,540.6z M385.7,325.1c-1.2,2.9-3.2,8.6-4.2,10.2c0.4-0.6-1.2,1.4-1.4,1.8
			c-10.3,12.9-20.4,25.9-30.7,38.9c-33.9,43-67.8,85.9-101.7,128.9c-8.6,10.8-17.1,21.7-25.7,32.5c-2.4-1.9-4.7-3.7-7.1-5.6
			c20.7-26.3,41.5-52.5,62.2-78.8c33.4-42.4,66.9-84.8,100.3-127.1c5.6-7.1,11.1-14.1,16.7-21.2
			C391.3,311.4,388.5,318.3,385.7,325.1z M274.6,436.8c29-36.7,57.9-73.4,86.9-110.1c3.3-4.1,4.6-5.2,9-8.4
			c7.1-5.2,14.3-10.3,21.4-15.5c-18.8,23.9-37.7,47.8-56.5,71.6c-33.4,42.4-66.9,84.8-100.3,127.1c-7.5,9.4-14.9,18.9-22.4,28.3
			c-2.4-1.9-4.7-3.7-7.1-5.6C228.5,495.1,251.6,465.9,274.6,436.8z M199.1,531.4c3.3,2.6,6.5,5.1,9.8,7.7c2,1.6,4.4,3.1,6.2,4.9
			c0.4,0.4,1,0.6,1.3,1.1c0,0,1.5,5.7,1.5,5.8c-0.5,2.2-2.7,2-4.4,2c-5.1,0.1-9.3-5.1-13.3-8.2c-1.9-1.5-4-2.9-5.8-4.6
			c-0.4-0.4-1-0.6-1.3-1.1C189.9,535.5,192.6,527.2,199.1,531.4z M181.9,555.6c1.2-3,5.1-0.9,7.4-2.3c1-0.6,1.8-1.7,2.3-2.8
			c2.6,2,5.2,4.1,7.7,6.1c-0.8,0.7-1.5,1.4-1.9,2.3c-0.8,1.7-0.3,3.1,0.2,4.8c1.4,4.5-4.7,5.1-6.5,1.6c-0.1-0.1-0.1-0.2-0.2-0.3
			c3-1.7,6.4-6.2,3.5-9.1c-3.4-3.4-7.5,0.8-8.7,4.4c-1.3-0.3-2.7-0.7-3.5-1.5c-0.1-0.2-0.2-0.3-0.4-0.5
			C181.4,557.7,181.3,556.9,181.9,555.6z M145.1,544.2c-2.1,0.5-4.5-1.7-4.6-3.9C142,541.6,143.5,542.9,145.1,544.2z M118.1,527.9
			c0.8,5.4,7.7,10.1,5.8,15.4c-5.8-4.1-11.6-8.1-17.4-12.1C109.8,527.7,113.3,525.3,118.1,527.9z M142.3,556.6
			c-5.2-3.9-10.5-7.7-15.9-11.5c1.2-2.6,0.9-5.2-0.3-7.9c-1.3-2.9-5.6-7.1-5.2-10.4c1.9-1.1,5.4,1.1,8.7,3.8
			c-0.2,7.2,1.9,13.2,7.6,17.8c6.5,5.1,20.2,9.1,19.6,19.3C152.1,563.9,147.2,560.3,142.3,556.6z M163.4,584.6
			c0.2,0.1,0.4,0.2,0.6,0.3c0.5,0.7,1.4,1,2.2,0.2c4.5-5.3,1.9-7.6-2.6-11.7c-1.3-1.2-2.7-2.3-4-3.5c1-6.4-3.4-13-8.4-16.6
			c-3.3-2.4-7.2-3.8-10.6-6.2c-5.1-3.6-7.5-8.2-7.9-13.8c1.4,1.3,2.6,2.4,3.2,3c0.7,0.6,1.4,1.2,2.1,1.8c-1,2.6-0.2,5.3,2,7.1
			c2.1,1.7,5.2,2.9,7.6,1.1c0,0,0,0,0,0c1.8,1.5,3.6,3,5.5,4.5c6.9,5.6,19.5,19.2,27.9,11.1c0.8,0.6,1.7,0.9,2.8,1.1
			c2.6,0.6,3.6,1.4,4.8,3.8c0.5,1,1.2,1.8,2.1,2.4c-3,4-1.9,7.2,1.8,11.6c4.2,5.1,10.2,9.1,15.4,13.1c2.1,1.6,4.2,3.2,6.4,4.8
			c-1.1,2.9,0.4,5.4,2.8,7.2c2.3,1.7,5,1.8,7.3,0.2c0.4,0.3,0.8,0.6,1.2,0.8c0.9,0.6,2.8,1.8,4.8,3.2c-5.7,0.9-10.7-0.3-15.4-4.4
			c-3.3-2.9-5.7-6.7-9.1-9.4c-4.7-3.7-11.7-6.1-17.4-3.8c-1.3-1-2.6-2-4-2.9c-4.6-3.1-8.4-6.1-12.1-0.2c-0.6,0.9,0,1.7,0.7,2
			c0.1,0.1,0.1,0.1,0.2,0.2c2.6,2.3,1.6,4.9-0.3,7.3c-1.8,2.1-3.3,3.4-6.1,2.6c-2.2-3.6-5.7-6.2-9.4-8.1c-0.5-0.3-1.2-0.4-1.6-0.8
			c-1-0.9-0.5,0.7-0.7-1.7C154.6,587.5,159.7,581.7,163.4,584.6z M154.9,610.8c-0.2,0.4-0.3,0.9-0.5,1.3c-2.5-1.6-5.3-2.7-8.2-3.1
			c1.1-0.8,2.3-1.6,3.5-2.4c0.1-0.1,0.1-0.1,0.2-0.2c2.1,0.7,4.2,2.1,5.1,4.2C154.9,610.7,154.9,610.7,154.9,610.8z M142.5,612
			c4-0.4,7.5,0.8,10.7,3c-0.6,1.5-1.4,3-2.1,4.5c-3.5-2.4-7.4-4.2-11.5-4.7C140.6,613.7,141.5,612.9,142.5,612z M147.1,626.1
			c-4-2.8-8.3-4.9-13.1-5.5c0.9-1.1,1.8-2.1,2.8-3.1c4.8,0,9,1.9,12.9,4.5C148.9,623.4,148,624.8,147.1,626.1z M142.6,632.4
			c-4.1-2.9-8.5-5-13.5-5.5c0.9-1.2,1.8-2.4,2.7-3.5c5.1,0.1,9.6,2.3,13.7,5.1C144.5,629.8,143.6,631.1,142.6,632.4z M126.5,649.4
			c-2.8-1.9-5.9-3-9.3-2.9c0.5-1.2,1-2.3,1.6-3.5c4.2-0.5,7.9,0.8,11.3,3.1C129,647.2,127.8,648.3,126.5,649.4z M117.9,659.6
			c-1.8,1.4-4.1,1.5-5.9,0.1c-1.8-1.4-2.4-3.4-1.4-5.5c0.7-1.4,2.2-2.7,3.9-2.8c0.5,0,0.8-0.2,1.1-0.5c0.2-0.2,0.3-0.4,0.4-0.6
			c0.1-0.3,0.2-0.5,0.3-0.8c2.9-0.4,5.5,0.4,7.9,1.8c-1.2,0.9-2.5,1.8-3.8,2.5c-0.1,0-0.1,0.1-0.1,0.1c0,0-0.1,0.1-0.1,0.1
			c-0.1,0.1-0.2,0.2-0.2,0.2c-0.2,0.3-0.3,0.7-0.2,1.2C120,657.1,119,658.6,117.9,659.6z M132.3,644c-3.5-2.5-7.5-4.1-11.8-4
			c0.8-1.4,1.6-2.7,2.5-4.1c4.7,0.1,8.8,2,12.6,4.6C134.5,641.7,133.4,642.8,132.3,644z M137.6,638.3c-3.8-2.7-8.1-4.8-12.7-5.3
			c0.6-0.9,1.3-1.9,1.9-2.8c0.1-0.2,0.2-0.3,0.3-0.5c0,0,0,0,0,0c5.1,0,9.5,2.1,13.6,4.9C139.7,635.9,138.6,637.1,137.6,638.3z
			 M161.5,606.1c-0.9,1.6-2.2,2.9-4,3c-1.3-2.7-3.9-4.5-6.7-5.5c-0.5-4,3.1-5.6,6.4-6.7c2,1.2,3.9,2.5,5.4,4.2
			C162.4,602.9,162.4,604.5,161.5,606.1z"/>
		<ellipse transform="matrix(0.6195 -0.785 0.785 0.6195 -373.8588 292.1865)" cx="114.5" cy="531.7" rx="2.2" ry="2.2"/>
		<ellipse transform="matrix(0.6195 -0.785 0.785 0.6195 -402.8929 424.0627)" cx="236" cy="627.6" rx="2.2" ry="2.2"/>
		<path d="M174.1,576.7c0.3,2.7-5.4,9.3-4.5,10c0.9,0.7,6.5-6.4,8.7-6.7c2.3-0.3,7.2,4,7.9,3.2c0.6-0.8-4.6-4.5-4.9-6.9
			c-0.3-2.4,5.4-9.3,4.5-10c-0.9-0.7-6.1,6.4-8.7,6.7c-2.6,0.3-7.1-4.2-7.9-3.2C168.4,570.8,173.8,574,174.1,576.7z"/>
		<path d="M318.1,307.9c0,0,0.2,0,0.5,0C318.3,307.9,318.1,307.9,318.1,307.9z"/>
		<path d="M344.5,307.9c-2,0-9-0.2-10.8-2.2c-2-2.2-2.2-9.7-2.2-11.7c0,2-0.2,9.4-2.2,11.7c-1.8,2-8.8,2.2-10.8,2.2
			c2,0,9,0.2,10.8,2.2c2,2.2,2.2,9.7,2.2,11.7c0-2,0.2-9.4,2.2-11.7C335.6,308.1,342.6,308,344.5,307.9z"/>
		<path d="M331.6,322.3c0,0,0-0.2,0-0.5C331.6,322.1,331.6,322.3,331.6,322.3z"/>
		<path d="M331.6,293.6c0,0,0,0.2,0,0.5C331.6,293.8,331.6,293.6,331.6,293.6z"/>
		<path d="M345.1,307.9c0,0-0.2,0-0.5,0C344.9,308,345.1,307.9,345.1,307.9z"/>
		<path d="M362.4,217.9c0,0,0-0.3,0-0.8C362.4,217.6,362.4,217.9,362.4,217.9z"/>
		<path d="M383.4,195.6c0,0-0.3,0-0.9,0C383.1,195.6,383.4,195.6,383.4,195.6z"/>
		<path d="M342.2,195.6c3.1,0,14,0.3,16.8,3.4c3.1,3.4,3.4,15,3.4,18.1c0-3.1,0.3-14.7,3.4-18.1c2.8-3.1,13.7-3.4,16.8-3.4
			c-3.1,0-14-0.3-16.8-3.4c-3.1-3.4-3.4-15-3.4-18.1c0,3.1-0.3,14.7-3.4,18.1C356.2,195.3,345.3,195.5,342.2,195.6z"/>
		<path d="M341.4,195.6c0,0,0.3,0,0.9,0C341.7,195.6,341.4,195.6,341.4,195.6z"/>
		<path d="M362.4,173.3c0,0,0,0.3,0,0.8C362.4,173.6,362.4,173.3,362.4,173.3z"/>
		<path d="M96.4,274.6c0,0,0-0.1,0-0.4C96.4,274.4,96.4,274.6,96.4,274.6z"/>
		<path d="M107.1,263.2c0,0-0.2,0-0.4,0C107,263.2,107.1,263.2,107.1,263.2z"/>
		<path d="M96.4,251.8c0,0,0,0.1,0,0.4C96.4,252,96.4,251.8,96.4,251.8z"/>
		<path d="M106.7,263.2c-1.6,0-7.1-0.2-8.5-1.7c-1.6-1.8-1.7-7.7-1.7-9.2c0,1.5-0.1,7.5-1.7,9.2c-1.4,1.6-7,1.7-8.5,1.7
			c1.6,0,7.1,0.2,8.5,1.7c1.6,1.8,1.7,7.7,1.7,9.2c0-1.5,0.1-7.5,1.7-9.2C99.6,263.4,105.1,263.2,106.7,263.2z"/>
		<path d="M85.7,263.2c0,0,0.2,0,0.4,0C85.9,263.2,85.7,263.2,85.7,263.2z"/>
		<path d="M108.4,305.2c-0.8,0-1.3,0-1.3,0S107.6,305.2,108.4,305.2z"/>
		<path d="M136,334.8c0-4.3,0.4-20.2,4.7-24.9c3.8-4.2,18.4-4.6,22.9-4.7c-4.5,0-19.2-0.5-22.9-4.7c-4.3-4.7-4.6-20.7-4.7-24.9
			c0,4.3-0.4,20.2-4.7,24.9c-3.8,4.2-18.4,4.6-22.9,4.7c4.5,0,19.2,0.5,22.9,4.7C135.6,314.6,136,330.5,136,334.8z"/>
		<path d="M136,274.5c0,0,0,0.4,0,1.1C136,274.9,136,274.5,136,274.5z"/>
		<path d="M136,335.9c0,0,0-0.4,0-1.1C136,335.5,136,335.9,136,335.9z"/>
		<path d="M165,305.2c0,0-0.5,0-1.3,0C164.5,305.2,165,305.2,165,305.2z"/>
		<path d="M188.6,665.3c2.2-2.5,10.9-2.7,13.4-2.7c-2.5,0-11.1-0.2-13.4-2.7c-2.5-2.7-2.7-12-2.7-14.5c0,2.4-0.2,11.7-2.7,14.5
			c-2.2,2.5-10.9,2.7-13.4,2.7c2.5,0,11.1,0.2,13.4,2.7c2.5,2.7,2.7,12,2.7,14.5C186,677.3,186.2,668.1,188.6,665.3z"/>
		<path d="M185.9,644.9c0,0,0,0.2,0,0.6C185.9,645.1,185.9,644.9,185.9,644.9z"/>
		<path d="M202.7,662.6c0,0-0.3,0-0.7,0C202.4,662.6,202.7,662.6,202.7,662.6z"/>
		<path d="M169.2,662.6c0,0,0.3,0,0.7,0C169.5,662.6,169.2,662.6,169.2,662.6z"/>
		<path d="M185.9,680.4c0,0,0-0.2,0-0.6C185.9,680.1,185.9,680.4,185.9,680.4z"/>
		<path d="M314.8,192.3c0,0,0-0.6,0-1.5C314.8,191.8,314.8,192.3,314.8,192.3z"/>
		<path d="M314.8,190.8c0-6,0.6-28.6,6.6-35.3c5.3-5.9,26.1-6.6,32.4-6.6c-6.4-0.1-27.1-0.7-32.4-6.6c-6-6.7-6.6-29.2-6.6-35.3
			c0,6-0.6,28.6-6.6,35.3c-5.3,5.9-26.1,6.6-32.4,6.6c6.4,0.1,27.1,0.7,32.4,6.6C314.2,162.2,314.7,184.8,314.8,190.8z"/>
		<path d="M275.7,148.9c-1.2,0-1.9,0-1.9,0S274.6,149,275.7,148.9z"/>
		<path d="M314.8,105.6c0,0,0,0.6,0,1.5C314.8,106.1,314.8,105.6,314.8,105.6z"/>
		<path d="M355.7,148.9c0,0-0.7,0-1.9,0C355,149,355.7,148.9,355.7,148.9z"/>
		<path d="M250.6,696.1c0.8,0,1.2,0,1.2,0S251.4,696.1,250.6,696.1z"/>
		<path d="M225.1,667.7c0,0,0,0.4,0,1C225.1,668.1,225.1,667.7,225.1,667.7z"/>
		<path d="M198.3,696.1c0,0,0.4,0,1.2,0C198.7,696.1,198.3,696.1,198.3,696.1z"/>
		<path d="M225.1,668.7c0,4-0.4,18.7-4.3,23.1c-3.5,3.9-17.1,4.3-21.2,4.3c4.2,0,17.7,0.5,21.2,4.3c3.9,4.4,4.3,19.1,4.3,23.1
			c0-4,0.4-18.7,4.3-23.1c3.5-3.9,17.1-4.3,21.2-4.3c-4.2,0-17.7-0.5-21.2-4.3C225.5,687.4,225.1,672.7,225.1,668.7z"/>
		<path d="M225.1,724.5c0,0,0-0.4,0-1C225.1,724.2,225.1,724.5,225.1,724.5z"/>
		<path d="M142.5,466c-2.4,5.8-5.6,13.9-4.2,20.3c0.9,4.1,3.3,4.7,6,1.8c4.9-5.2,7.9-12.1,12.1-18c1.9,14.7,5.2,29.2,10.7,27.6
			c5.8-1.7,6.6-16.2,7-20.8c0.4-5.8,0.2-11.6,0.1-17.4c-0.2-5.9,1-11.7,2.3-17.5c0.2,0.5,0.3,0.9,0.4,1.4c2.9,9.9,6.3,20.2,8.4,30.3
			c0.9,4.3,1.6,11.5,4.9,14.7c3.3,3.2,5.9-0.8,7.3-3.9c3.3-7,1.8-14.9,1.3-22.3c-0.6-9.1-1.8-17.9-3.5-26.8
			c-1.4-7.8-3.2-16.9-1.7-25c1.5,10.4,4,20.9,5.9,31.2c1.5,8.4,3.7,19.2,9.3,26.1c3.6,4.5,6.2,0.4,7.2-3.7
			c1.8-7.7,1.6-16.2,1.6-24.3c3-5,5.6-9.8,10.1-13.7c4.4-3.8,8.7-7.8,13-11.8c8-7.6,16-15,24.2-22.4c15.5-14.1,27.6-32.4,30.2-53.5
			c1.4-11.5,1.3-23.2,2.7-34.8c1-8,2.5-16.5,0.9-24.5c-2.4-12.2-6.9-24.3-10.9-36.1c-4.2-12.3-8.2-24.8-13.2-36.8
			c-0.3-0.7-1-1.4-1.8-1c-11.1,4.4-22.1,9.3-32.6,15.1c-9.5,5.3-19.8,11.6-25.8,21c-0.3,0.4-0.3,1.1,0,1.5
			c6.5,11.1,18.3,24.7,16.3,38.5c-1.9,12.6-6.6,25.4-12.8,36.4c-6.3,11.4-14.8,20.4-24.3,29.2c-8.2,7.7-15.1,16.5-19.4,27
			c-3.8,9.3-5.6,19.3-8.4,29c-3.4,11.5-9,22.2-10.8,34.1C149.9,446,146.6,456.3,142.5,466z M146.8,479.4c-0.5,0.8-4.1,7.1-5,6.9
			c-2-0.5-0.1-8,0.1-8.8c1.3-6,3.7-11.4,6.1-17c2.2-5.3,4.1-10.7,6.4-15.9c0.1,4.3,0.6,12.6,1.6,21.3
			C152.5,470.1,149.8,474.8,146.8,479.4z M218.3,397.5c2.1-6.8,6.9-12.1,12.1-17c2.6-0.6,5.2-0.6,7.8-0.3c-4.1,6.1-9.5,10.8-14,16.6
			c-2.7,3.5-5.2,7.4-7.1,11.4C216.9,404.5,217.2,400.9,218.3,397.5z M186.9,357.9c8.7-10.6,19.8-18.7,27.8-30
			c7.6-10.8,12.9-23,16.3-35.7c1.5-5.5,3.3-11.3,2.6-17.1c-0.7-5.7-3.3-11-6.1-16c-2.2-3.9-4.6-7.7-6.9-11.5
			c-0.7-1.1-2.3-3.1-2.5-4.2c-0.6-2.6,0.3-3.2,2.1-5.1c4.5-5,10.2-8.8,15.8-12.3c11.4-7,23.7-12.7,36.2-17.6
			c8.8,21.3,16.4,43.9,22.3,66.2c1.5,5.8,2,10.7,1.5,16.8c-0.8,11.3-2.3,22.4-2.9,33.8c-0.7,12.2-1.8,24.6-7.8,35.5
			c-5.6,10.2-12.1,19.7-20.8,27.5c-9.1,8.1-17.9,16.3-26.8,24.8c-4.2,4-8.6,7.8-12.9,11.7c-3,2.7-5.2,5.9-7.2,9.3
			c0.1-5.8,0.1-11.6-0.2-17.3c0-0.7-0.1-1.4-0.1-2.1c0.2-0.2,0.4-0.4,0.5-0.7c5-13.4,16.4-21.4,23.7-33.2c5.8,0.8,11.5,2,17.3-0.7
			c1.7-0.8,0.2-3.4-1.5-2.6c-5.1,2.4-10.5,1.5-15.9,0.6c-0.4-0.2-0.8-0.3-1.2-0.2c-2.1-0.3-4.1-0.5-6.2-0.5c2.4-2.2,4.8-4.4,6.9-6.7
			c7.7-8.3,16.1-16.6,22.7-25.8c3.6-5,9.9-12.7,9.3-19.3c-0.2-1.9-3.1-1.9-3,0c0.5,5.6-5.4,13-8.5,17.3c-5,7-11.3,13.1-17,19.5
			c-10.9,12.3-28.2,23.1-30.1,40.7c-1.1,9.8,0.5,19.9,0.4,29.8c0,2.1,0,4.2,0,6.4c-0.1,0.4-0.1,0.7,0,1c0,7.2,0,14.6-1.2,21.6
			c-0.2,1.4-0.4,4.4-2.8,3.5c-0.9-0.4-1.9-3.7-2.3-4.7c-2.3-4.9-3.9-9.9-5.1-15.3c-1.9-9.1-3-18.4-5.1-27.5c-1-4.4-2.2-9.3-2.3-14.1
			c0-0.2,0-0.5,0-0.7c0-1.8,0.1-3.5,0.5-5.2c1.2-5.4,4.9-9.9,6.7-15.2c3.9-11.6,5.6-23.5,11.4-34.5c0.9-1.7-1.7-3.2-2.6-1.5
			c-5.3,10.1-7.8,21.2-10.7,32.2c-1.5,5.5-4.6,9.9-6.6,15.1c-1.1,2.9-1.5,6-1.4,9.1c-5.7,12.5-1.5,27.3,0.8,40.2
			c1.5,8.6,1.9,17.2,2.5,25.8c0.3,3.8,0.6,7.4-0.3,11.2c-0.5,1.8-1.9,6.8-3.8,6.1c-1-0.4-1.5-3.1-1.8-4.1
			c-4.8-14.4-6.8-29.8-12.2-44c-2.7-7.1-6.9-13.3-7.8-21c-0.7-5.9-1-12-0.7-17.9c0-0.1,0-0.2-0.1-0.4c0.7-2.1,1.3-4.2,1.8-6.4
			C174.6,379.7,178.6,368.1,186.9,357.9z M166.7,407.5c0.1,3.8,0.5,7.6,1,11.3c0.9,6.5,4.2,12.3,6.8,18.3c0,0.1-0.1,0.1-0.1,0.1
			c-1.2,5.8-2.8,11.9-3.2,17.8c-0.4,5.9,0.4,11.9,0.2,17.8c-0.2,5.6-0.7,11-2.5,16.3c-0.3,0.9-1.3,5.3-2.7,5.5
			c-0.9,0.1-3.7-9.3-4-10.4c-2.2-7.2-2.8-14.8-3.7-22.3c-1.2-9.7-2.1-19.7,0.1-29.3C160.6,424.1,163.8,415.8,166.7,407.5z"/>
		<path d="M387,455.3c4.7,0,8.6-2.9,8.6-12S387,372,387,372s-8.6,62.2-8.6,71.3S382.3,455.3,387,455.3z"/>
		<path d="M408.4,554.2c-19.3-0.9-38.5-1.8-57.8-2.7c5.8-9.6,11.6-19.3,17.5-28.9c0.9-1.5-1.1-3-2.4-1.8
			c-7.9,7.3-15.8,14.5-23.7,21.8c-1.7-19.1-3.4-38.2-5.1-57.2c-0.2-1.9-2.9-2-3,0c-0.9,19.1-1.8,38.2-2.7,57.3
			c-8.6-7.3-17.2-14.5-25.9-21.8c-1.2-1-3.4,0.3-2.4,1.8c6.4,9.7,12.8,19.4,19.2,29.1c-19.2,2.7-38.4,5.4-57.6,8.1
			c-1.8,0.2-1.2,2.9,0.4,3c19.1,0.9,38.2,1.8,57.3,2.7c-7.3,8.6-14.5,17.2-21.8,25.9c-1,1.2,0.3,3.4,1.8,2.4
			c9.2-6.6,18.5-13.2,27.7-19.7c1.4,19.2,2.7,38.5,4.1,57.7c0.1,1.9,2.9,2,3,0c1.3-19,2.6-38,3.9-57.1c8.2,7.2,16.4,14.4,24.6,21.6
			c1.2,1.1,3.4-0.3,2.4-1.8c-6.4-9.7-12.8-19.4-19.2-29.1c20-2.7,39.9-5.4,59.9-8.1C410.6,557,410.1,554.3,408.4,554.2z
			 M335.7,610.1c-0.9-13-1.9-25.9-2.8-38.9c-0.1-1-1.3-2-2.3-1.3c-6.7,4.8-13.5,9.6-20.2,14.4c5.4-6.4,10.7-12.7,16.1-19.1
			c0.8-1,0.3-2.5-1.1-2.6c-14.7-0.7-29.5-1.4-44.2-2c14.6-2.1,29.3-4.1,43.9-6.2c1-0.1,1.4-1.5,0.9-2.2c-4.9-7.5-9.8-15-14.8-22.4
			c6.7,5.7,13.5,11.4,20.2,17.1c1,0.8,2.5,0.3,2.6-1.1c0.6-12.6,1.2-25.3,1.8-37.9c1.1,12.6,2.2,25.3,3.4,37.9
			c0.1,1.3,1.6,2,2.6,1.1c6.1-5.6,12.2-11.1,18.2-16.7c-4.4,7.4-8.9,14.7-13.3,22.1c-0.6,1,0.2,2.2,1.3,2.3
			c14.6,0.7,29.1,1.3,43.7,2c-15.3,2.1-30.5,4.1-45.8,6.2c-0.7,0.1-1,0.5-1.1,1c-0.2,0.4-0.1,0.8,0.1,1.3
			c4.8,7.3,9.6,14.5,14.3,21.8c-6.2-5.4-12.3-10.8-18.5-16.2c-1-0.9-2.5-0.3-2.6,1.1C337.4,584.4,336.5,597.2,335.7,610.1z"/>
	</g>
</g>
</svg>
