<?xml version="1.0" encoding="utf-8"?>
<!-- Generator: Adobe Illustrator 21.1.0, SVG Export Plug-In . SVG Version: 6.00 Build 0)  -->
<svg version="1.1" xmlns="http://www.w3.org/2000/svg" xmlns:xlink="http://www.w3.org/1999/xlink" x="0px" y="0px"
	 viewBox="0 0 504 864" style="enable-background:new 0 0 504 864;" xml:space="preserve">
<g id="Слой_1">
</g>
<g id="Слой_2">
	<g>
		<path d="M503.8,18.2c-1.6-17.9-18.7-16.3-31.6-16.3c-45.9,0-91.8,0-137.6,0c-63.2,0-126.3,0-189.5,0c-40.6,0-81.2,0-121.8,0
			c-2.6,0-5.3-0.2-8,0.2c-9.5,1.2-15,9.2-15.2,18.2c-0.2,7.3,0,14.5,0,21.8c0,37.4,0,74.9,0,112.3c0,57,0,114.1,0,171.1
			c0,64.3,0,128.6,0,192.9c0,58.4,0,116.7,0,175.1c0,40.1,0,80.2,0,120.3c0,9.1,0,18.2,0,27.3c0,11.7,6.7,20.5,19.2,20.7
			c35.9,0.6,71.9,0,107.9,0c62.4,0,124.9,0,187.3,0c49.7,0,99.5,0,149.2,0c7.6,0,15.2,0,22.9,0c0.4,0,0.8-0.1,1.2-0.2
			c14.4-1.8,16.1-13.8,16.1-25.5c0-11.4,0-22.8,0-34.3c0-43.4,0-86.9,0-130.3c0-59.9,0-119.8,0-179.8c0-63.9,0-127.7,0-191.6
			c0-55.3,0-110.6,0-165.9c0-33.7,0-67.3,0-101C503.9,28.3,504.2,23.2,503.8,18.2z M486.6,852.8c-28.3,0-56.6,0-84.9,0
			c-59.9,0-119.8,0-179.7,0c-54,0-108,0-162,0c-13.1,0-26.1,0-39.2,0c-5.6,0-11-1.3-11.7-8.3c-0.2-1.5,0-3,0-4.5c0-26.5,0-53,0-79.5
			c0-50,0-100,0-149.9c0-61.8,0-123.6,0-185.4c0-61.4,0-122.7,0-184.1c0-48.9,0-97.7,0-146.6c0-24.2-0.8-48.6,0-72.7
			c0.2-5.3,1.6-10.1,8.3-10.8c2.2-0.2,4.5,0,6.7,0c14.8,0,29.6,0,44.5,0c55.6,0,111.3,0,166.9,0c58.9,0,117.8,0,176.7,0
			c18.9,0,37.9,0,56.8,0c8.1,0,24.7-3.1,25.9,8.4c0.5,5.2,0,10.8,0,16.1c0,13.5,0,27.1,0,40.6c0,45.5,0,91.1,0,136.6
			c0,60.1,0,120.2,0,180.3c0,62.6,0,125.2,0,187.7c0,52.8,0,105.6,0,158.4c0,31.4,0,62.7,0,94.1C494.8,840.3,496.9,852,486.6,852.8z
			"/>
		<path d="M460,790.9c1.2,0.1,2.4-0.7,2.4-2.2c0-23.7,0-47.4,0-71.1c0-56.4,0-112.8,0-169.2c0-68.7,0-137.4,0-206
			c0-59,0-117.9,0-176.9c0-19.6,0-39.2,0-58.8c0-8.9,1.3-19,0-27.9c-0.1-0.4,0-0.8,0-1.2c0-0.8-0.3-1.3-0.8-1.7
			c0.1-1.2-0.6-2.5-2.2-2.6c-13.1-0.5-25.3-13.8-25.8-26.7c0-0.5-0.2-0.8-0.4-1.1c-0.3-0.6-1-1.1-1.9-1.1c-40.5,0-80.9,0-121.4,0
			c-64.5,0-129,0-193.6,0c-14.9,0-29.7,0-44.6,0c-0.9,0-1.6,0.5-1.9,1.1c-0.2,0.3-0.3,0.7-0.4,1.2C69.1,59.5,57,72.8,43.9,73.3
			c-1.8,0.1-2.5,1.9-2,3.2c-0.2,0.3-0.2,0.6-0.2,1c0,23.7,0,47.4,0,71.1c0,56.4,0,112.8,0,169.2c0,68.7,0,137.4,0,206
			c0,59,0,117.9,0,176.9c0,19.6,0,39.2,0,58.8c0,8.9-1.3,19,0,27.9c0.1,0.4,0,0.8,0,1.2c0,0.9,0.5,1.6,1.1,1.9
			c0.3,0.2,0.7,0.3,1.2,0.4c13,0.5,25.3,13.3,25.8,26.2c0,0.5,0.2,0.8,0.4,1.1c0.3,0.6,1,1.1,1.9,1.1c40.5,0,80.9,0,121.4,0
			c64.5,0,129,0,193.6,0c14.9,0,29.7,0,44.6,0c0.9,0,1.6-0.5,1.9-1.1c0.2-0.3,0.3-0.7,0.4-1.2c0.5-12.9,12.7-25.7,25.8-26.2
			C459.6,791,459.8,790.9,460,790.9z M429.3,814.9c-39.8,0-79.6,0-119.3,0c-64.5,0-129,0-193.6,0c-14.2,0-28.3,0-42.5,0
			c-1.7-13.9-13.9-26.5-27.8-28.3c0-23,0-46,0-69.1c0-56.4,0-112.8,0-169.2c0-68.7,0-137.4,0-206c0-59,0-117.9,0-176.9
			c0-19.6,0-39.2,0-58.8c0-8.9,1.3-19,0-27.9c-0.1-0.4,0-0.8,0-1.2c14-1.8,26.1-14.9,27.8-28.7c39.8,0,79.5,0,119.3,0
			c64.5,0,129,0,193.6,0c14.2,0,28.3,0,42.5,0c1.7,14.1,14.3,27.3,28.5,28.8c0,23.7,0,47.3,0,71c0,56.4,0,112.8,0,169.2
			c0,68.7,0,137.4,0,206c0,59,0,117.9,0,176.9c0,19.6,0,39.2,0,58.8c0,8.6-1.2,18.4-0.1,27C443.6,788.1,431.1,800.9,429.3,814.9z"/>
		<path d="M118.5,797.9c-0.1,0-0.1,0.1-0.1,0.2c0,0.1,0,0.2,0.1,0.2c0.1,0,0.1-0.1,0.1-0.2C118.6,797.9,118.6,797.9,118.5,797.9z"/>
		<path d="M117.3,798.8c-0.1,0.1-0.1,0.2,0,0.4c0.1,0.1,0.2,0.1,0.3,0.1c0.3-0.1,0.3-0.3,0.1-0.5
			C117.5,798.6,117.4,798.6,117.3,798.8z"/>
		<path d="M118.5,792.3c0.1,0,0.1,0,0.2-0.1c0.1-0.2,0.1-0.3-0.1-0.3c-0.1,0-0.2,0.1-0.2,0.2C118.4,792.3,118.4,792.3,118.5,792.3z"
			/>
		<path d="M130.7,793.4c-0.8-0.1-1.3-0.2-1.5-0.2c-0.1-0.1-0.2-0.2-0.2-0.4c0-0.2,0-0.3-0.1-0.4c-0.1-0.1-0.2-0.1-0.4-0.1
			c-0.3-0.1-0.5-0.2-0.5-0.3c0-0.1-0.1-0.2-0.3-0.2c-0.2,0-0.3-0.1-0.3-0.2c0-0.1-0.1-0.3-0.3-0.5c-0.2-0.2-0.4-0.4-0.5-0.4
			c-0.1,0-0.2,0-0.2-0.1c0-0.1-0.1-0.2-0.3-0.2c-0.2,0-0.3-0.1-0.3-0.2s-0.1-0.3-0.2-0.5c-0.2-0.2-0.3-0.2-0.5-0.2
			c-0.2,0-0.2-0.1-0.2-0.2c0-0.1,0-0.2,0-0.3c0-0.1,0-0.2,0-0.3c0-0.1,0.1-0.2,0.3-0.3c0.3-0.1,0.4-0.2,0.4-0.4
			c0-0.2,0.1-0.3,0.2-0.3c0.1,0,0.3-0.1,0.5-0.4c0.2-0.3,0.4-0.4,0.5-0.5c0.2-0.1,0.2-0.1,0.2-0.3c-0.1-0.1,0-0.2,0.3-0.4
			c0.2-0.1,0.4-0.3,0.4-0.5c0-0.2,0.1-0.3,0.3-0.3c0.2,0,0.3-0.1,0.3-0.4c0-0.3,0.1-0.4,0.2-0.4c0.2,0,0.4-0.1,0.5-0.4
			c0.2-0.2,0.5-0.3,0.9-0.4c0.4-0.1,0.6-0.2,0.8-0.3c0.1-0.1,0.2-0.2,0.4-0.2c0.2,0,0.3-0.1,0.3-0.2c0-0.1,0.1-0.3,0.2-0.4
			c0.1,0,0.1-0.1,0.1-0.1c0,0-0.1,0-0.4-0.1c-0.4,0-0.5-0.1-0.5-0.2c0-0.2-0.3-0.3-0.8-0.3c-0.5,0-0.8,0.1-0.9,0.3
			c-0.1,0.1-0.3,0.2-0.6,0.2c-0.3,0-0.4,0-0.5-0.1c-0.1-0.1-0.6-0.2-1.8-0.2l-1.7-0.1l-0.1,0.5c0,0.1-0.1,0.2-0.1,0.3
			c0,0.1,0.1,0.2,0.2,0.3c0.1,0.1,0.4,0.1,0.7,0.1c0.3,0,0.5,0.1,0.6,0.1c0.1,0,0.1,0.1,0.1,0.2v0.1c0,0.3-0.1,0.4-0.2,0.5
			c-0.1,0.1-0.1,0.2-0.1,0.4c0.1,0.1,0,0.3-0.3,0.4c-0.2,0.1-0.4,0.3-0.4,0.5c0,0.3-0.1,0.4-0.3,0.5c-0.2,0.1-0.4,0.3-0.4,0.6
			c-0.1,0.3-0.3,0.5-0.5,0.5c-0.3,0.1-0.5,0.2-0.6,0.4c-0.2,0.2-0.3,0.3-0.4,0.3c-0.1,0-0.1-0.1-0.1-0.4c0-0.2,0-0.5,0.1-0.9
			c0-0.5,0.1-0.8,0.1-0.9c0-0.2,0-0.3,0-0.3c-0.1-0.3,0-0.5,0.2-0.6c0.2-0.1,0.3-0.3,0.2-0.6c0-0.2,0-0.3,0-0.3c0,0,0.1-0.1,0.3-0.1
			c0.2,0,0.4-0.1,0.5-0.3c0.1-0.2,0.1-0.4,0.1-0.8c0-0.2,0-0.3-0.1-0.3c-0.1-0.1-0.7-0.1-1.9-0.1c-1.4-0.1-2.1-0.2-2.1-0.4
			c0-0.1-0.1-0.1-0.2-0.1c-0.1,0-0.2,0-0.2,0.1c0,0.1-0.1,0.2-0.1,0.3s0,0.3,0,0.3c0,0.2-0.1,0.3-0.3,0.4c-0.2,0-0.3,0.2-0.2,0.5
			c0.1,0.3,0.1,0.4,0.2,0.5c0.1,0.1,0.2,0.1,0.3,0.1c0.2,0,0.3,0,0.4,0c0.1,0,0.2,0,0.4,0c0.3,0,0.5,0.1,0.6,0.4
			c0.1,0.2,0.1,0.8,0.1,1.5c0,0.9-0.1,1.4-0.2,1.5c-0.1,0.1-0.1,0.2,0,0.4c0.1,0.2,0.1,0.5,0,0.7c-0.1,0.2-0.2,0.3-0.3,0.3
			c-0.1,0-0.1,0.1,0,0.2c0.1,0.1,0.1,0.3,0.1,0.7c0,0.6-0.1,1.5-0.2,2.9l-0.1,1h-0.6c-0.4,0-0.6,0.1-0.7,0.3
			c-0.1,0.2-0.2,0.3-0.3,0.3c-0.2,0-0.2,0.1-0.2,0.4c0,0.3,0.1,0.5,0.3,0.6c0.2,0.1,0.3,0.3,0.3,0.4c0,0.1,0.1,0.2,0.3,0.2
			c0.2,0,0.5,0,0.8-0.1c0.3-0.1,0.5-0.2,0.6-0.2c0.1-0.1,0.7-0.2,1.6-0.2c0.9,0,1.4,0,1.5-0.1c0,0,0-0.3,0-0.6
			c0-0.3-0.1-0.4-0.1-0.5c0-0.1-0.1-0.1-0.3-0.1c-0.2,0-0.4,0-0.4-0.1c0-0.1-0.1-0.1-0.2-0.1c-0.3,0-0.4-0.3-0.4-0.9
			c0-0.2,0-0.3,0-0.4c0-0.4,0.1-0.8,0.1-1.2V790c0-0.1,0-0.2,0-0.3c0-0.1,0-0.2,0-0.3c0-0.4,0-0.6,0.1-0.6h0.1
			c0.2,0,0.4,0.1,0.8,0.3c0.4,0.2,0.6,0.4,0.7,0.6c0.2,0.2,0.3,0.4,0.4,0.4c0.1,0,0.2,0.1,0.3,0.3c0.1,0.2,0.2,0.4,0.2,0.5
			c0,0.1,0.1,0.2,0.4,0.5c0.3,0.2,0.4,0.4,0.4,0.6c0,0.1,0.1,0.2,0.3,0.2c0.2,0,0.3,0.1,0.3,0.4c0,0.2,0.1,0.4,0.3,0.4
			c0.3,0,0.3,0.2,0,0.6c-0.2,0.2-0.4,0.2-0.6,0.1c-0.2-0.1-0.3-0.1-0.5,0c-0.1,0.1-0.3,0.2-0.5,0.2c-0.2,0-0.3,0-0.3,0.1
			c0,0.1,0,0.2,0.1,0.2c0.1,0,0.1,0.1,0.1,0.2c0,0.1,0.1,0.2,0.2,0.3c0.2,0.1,0.3,0.1,0.5,0.1c0,0,0,0,0.1,0c0,0,0,0,0.1,0
			c0.2-0.1,0.3,0,0.3,0.1c0,0.1,0.1,0.1,0.2,0c0.1-0.1,0.2-0.2,0.5-0.2c0.2,0,0.8,0,1.8,0c1.4,0,2.2,0.1,2.4,0.2
			c0.2,0.1,0.3,0.2,0.4,0.2c0.2,0,0.2-0.2,0.2-0.5c0-0.4-0.1-0.6-0.2-0.7C131.4,793.5,131.1,793.5,130.7,793.4z M126.3,782.9
			C126.3,782.9,126.3,782.9,126.3,782.9L126.3,782.9c0.1,0.2,0.1,0.3,0,0.3c0,0,0,0,0-0.1C126.3,783,126.3,783,126.3,782.9z
			 M126.1,785.4c0.1,0,0.1,0,0.1,0c0.1,0,0.1,0,0,0.1c-0.1,0.1-0.2,0.1-0.3,0L126.1,785.4z M125.6,786.1c0.1,0,0.1,0.1,0.1,0.2
			c0,0.1,0,0.2-0.1,0.2c-0.1,0-0.1-0.1-0.1-0.2C125.5,786.2,125.5,786.1,125.6,786.1z"/>
		<path d="M129.4,786.2l0.1,0.4l0-0.1c0,0,0-0.1,0.1-0.1c0,0,0.1-0.1,0.1-0.1c0-0.1,0.1-0.1,0.1-0.2c0.2-0.3,0.2-0.4,0-0.4
			C129.5,785.7,129.4,785.8,129.4,786.2z"/>
		<path d="M118.5,796.7c-0.1,0-0.1,0.1-0.1,0.2c0,0.1,0,0.2,0.1,0.2c0.1,0,0.1-0.1,0.1-0.2C118.6,796.8,118.6,796.7,118.5,796.7z"/>
		<path d="M151.7,782c-0.1,0-0.2,0-0.3,0.1c-0.2,0.1-0.3,0.1-0.3,0.1c-0.1,0-0.1-0.1-0.2-0.2c-0.1-0.2-0.3-0.3-0.4-0.3
			c-0.1,0-0.2-0.1-0.2-0.3c0-0.2-0.1-0.3-0.3-0.3c-0.2,0-0.3,0.1-0.3,0.3c0,0.2,0.1,0.3,0.2,0.3s0.2,0.1,0.2,0.3
			c0,0.2-0.1,0.3-0.2,0.3c-0.2,0-0.3-0.1-0.3-0.4c-0.1-0.2-0.2-0.4-0.3-0.4c-0.1,0-0.1,0-0.2,0.1c-0.2,0.2-0.2,0.3,0,0.3
			c0.1,0,0.2,0.1,0.2,0.1c0,0.1-0.1,0.2-0.4,0.2c-0.2,0-0.4,0-0.4-0.1c0-0.1-0.1-0.1-0.4-0.1c-0.4,0-0.8,0.1-1.1,0.2
			c-0.4,0.2-0.6,0.4-0.6,0.7c0,0.3,0.3,0.5,0.8,0.6c0.4,0.1,0.6,0.1,0.6,0.2c0,0.1,0.1,0.1,0.3,0.1c0.3,0,0.5,0.2,0.6,0.6
			c0.1,0.4,0.2,1.2,0.2,2.4c0,1.4,0.1,2.2,0.1,2.4c0.1,0.1,0,0.3,0,0.6l-0.1,0.4l-0.5-0.5c-0.4-0.3-0.5-0.5-0.5-0.6
			c0-0.1-0.1-0.2-0.2-0.3c-0.1-0.1-0.3-0.2-0.4-0.4c-0.2-0.1-0.3-0.2-0.3-0.2c-0.1-0.1-0.3-0.2-0.3-0.2c-0.1,0-0.2-0.1-0.2-0.2
			c0-0.1-0.1-0.2-0.2-0.3c-0.1-0.1-0.3-0.2-0.4-0.2s-0.1-0.1-0.1-0.2c0-0.1-0.1-0.2-0.2-0.2c-0.1,0-0.1,0-0.1-0.1
			c0-0.1-0.1-0.2-0.4-0.5c-0.2-0.3-0.4-0.4-0.4-0.5c0-0.1-0.1-0.2-0.3-0.2c-0.2,0-0.3-0.1-0.5-0.2c-0.2-0.1-0.2-0.3-0.2-0.4
			c0-0.1-0.2-0.3-0.5-0.7c-0.3-0.4-0.5-0.6-0.5-0.7c0-0.1-0.1-0.2-0.3-0.4c-0.2-0.2-0.3-0.4-0.3-0.4c0-0.3-0.6-0.5-1.8-0.6
			c-0.6,0-0.9-0.1-0.9-0.1c-0.3,0-0.4,0.1-0.4,0.2c0,0.1,0,0.2,0,0.4c0,0.2,0,0.4,0.1,0.6c0.1,0.2,0.1,0.3,0.2,0.3
			c0.1,0,0.2,0.2,0.3,0.6c0.1,0.4,0.2,0.6,0.2,0.6c0.1,0,0.1,0.3,0.1,0.8c0,0.5,0,0.8-0.1,0.8c-0.1,0-0.1,0.1-0.1,0.4
			c0,0.2,0.1,0.6,0.2,1c0.1,0.2,0.1,0.6,0.1,1.1c0,0.7-0.1,1.1-0.2,1.1c-0.1,0-0.1,0.2-0.1,0.7c0,0.5,0,1.1-0.1,1.5
			c0,0.4-0.1,0.6-0.1,0.7c-0.1,0.1-0.2,0.2-0.4,0.2c-0.3,0.1-0.4,0.2-0.4,0.4c0,0.2,0.1,0.4,0.4,0.6c0.2,0.2,0.3,0.3,0.5,0.3
			c0.2,0,0.8,0,1.7,0c1,0,1.6,0,1.8-0.1c0.2-0.1,0.3-0.3,0.3-0.8c0-0.3-0.1-0.4-0.3-0.5c-0.2-0.1-0.3-0.1-0.3-0.2
			c0-0.1-0.2-0.1-0.6-0.1c-0.4,0-0.7-0.1-0.9-0.3c-0.2-0.2-0.2-0.3-0.1-0.4c0.1-0.1,0.2-0.2,0.2-0.6c0-0.3,0-0.5-0.1-0.5
			c-0.1-0.1-0.1-0.9-0.1-2.6c0-1.7,0.1-2.5,0.2-2.5c0.1,0,0.3,0.1,0.4,0.2c0.1,0.1,0.3,0.2,0.5,0.3c0.3,0.1,0.4,0.3,0.5,0.4
			c0,0.2,0.3,0.5,0.8,1.1c0.5,0.5,0.9,0.9,1.3,1.1c0.2,0.1,0.3,0.2,0.3,0.3c0,0.1,0.2,0.2,0.5,0.6c0.7,0.7,1.1,1.1,1.1,1.4
			c0,0.1,0.1,0.1,0.3,0.1c0.2,0,0.3,0,0.3,0.1c0,0.1,0.1,0.3,0.4,0.5c0.2,0.2,0.4,0.4,0.4,0.6c0,0.1,0.1,0.3,0.3,0.5
			s0.3,0.3,0.4,0.3c0.1,0,0.3,0.2,0.6,0.5c0.3,0.3,0.5,0.5,0.7,0.6c0.1,0.1,0.2,0.1,0.3,0.1c0.4,0,0.6-0.2,0.6-0.6
			c0-0.1,0-0.2,0-0.4c0-0.9-0.1-1.4-0.2-1.6c-0.1-0.1-0.1-0.5-0.1-1.3v-0.4c0-1,0-1.6-0.1-1.6c-0.1-0.1-0.2-0.4-0.2-1
			c0-0.5,0-0.8,0.1-0.8c0.1-0.1,0.2-0.2,0.2-0.5s0-0.4,0.1-0.4c0.1,0,0.1-0.1,0.1-0.4c0-0.3,0-0.4-0.1-0.4c-0.1,0-0.1-0.1-0.1-0.4
			c0-0.4,0.1-0.7,0.2-1c0.2-0.3,0.4-0.5,0.7-0.5c0.2,0,0.4-0.1,0.4-0.1c0.1,0,0.1-0.2,0.1-0.5v-0.2C152,782.3,151.9,782,151.7,782z"
			/>
		<path d="M164.9,782c-0.1-0.1-0.7-0.1-1.8-0.1c-1,0-1.5,0-1.5,0.1c0,0.1-0.2,0.1-0.5,0.1c-0.3,0-0.5,0.1-0.5,0.2
			c0,0.1,0,0.2-0.1,0.2c-0.1,0-0.1,0.1-0.1,0.3c0,0.3,0.1,0.4,0.2,0.5c0.1,0.1,0.2,0.5,0.2,1.3c0,0.8,0,1.2,0.1,1.3
			c0.1,0,0.1,0.4,0.1,1.1c0,0.7,0,1-0.1,1.1c-0.1,0-0.2,0.8-0.2,2.2c0,1.2-0.1,2-0.2,2.2c-0.1,0.2-0.4,0.4-0.9,0.5
			c-0.3,0-0.5,0.1-0.5,0.1c-0.1,0.1-0.1,0.2-0.1,0.4c0,0.3,0.1,0.5,0.2,0.5c0.2,0,0.3,0.1,0.5,0.2c0.2,0.2,0.3,0.2,0.3,0.1
			c0.1-0.1,0.8-0.2,2.1-0.2c1.1,0,1.6,0.1,1.6,0.2c0,0.1,0.1,0.1,0.3,0.1c0.2,0,0.3,0,0.3-0.1s0.1-0.2,0.3-0.3
			c0.2-0.1,0.3-0.2,0.3-0.3c0-0.4-0.4-0.7-1-0.8l-0.6-0.1l0.1-3.5c0-2.3,0.1-3.5,0.2-3.6c0.1-0.1,0.1-0.4,0.1-1
			c0.1-1.1,0.2-1.6,0.4-1.6c0.1,0,0.2,0,0.2-0.1c0-0.1,0.1-0.2,0.4-0.2c0.2,0,0.4-0.1,0.5-0.2c0.1-0.1,0.2-0.2,0.2-0.4
			C165.1,782.3,165,782.1,164.9,782z M161.4,790.9c-0.1,0-0.2,0-0.2-0.1c0-0.1,0.1-0.1,0.2-0.1c0.1,0,0.2,0,0.2,0.1
			C161.6,790.9,161.5,790.9,161.4,790.9z M162.3,787.1c-0.1,0-0.2-0.1-0.2-0.3c0-0.2,0.1-0.3,0.2-0.3c0.1,0,0.2,0.1,0.2,0.3
			C162.5,787,162.4,787.1,162.3,787.1z"/>
		<path d="M181.4,790.1c-0.3,0-0.5,0-0.6,0c-0.7,0-1.1,0-1.3,0.1c-0.2,0.1-0.4,0.2-0.4,0.3c0,0.1-0.1,0.2-0.1,0.3
			c0,0.2,0.1,0.3,0.3,0.4c0.2,0.1,0.5,0.2,0.9,0.2c0.7,0.1,1,0.2,1,0.3c0,0-0.1,0.2-0.2,0.5c-0.1,0.3-0.3,0.5-0.5,0.5
			c-0.2,0-0.4,0.1-0.6,0.4c-0.1,0.2-0.2,0.3-0.3,0.3c0,0-0.1,0-0.1-0.1c0-0.1-0.1-0.1-0.1-0.1c-0.1,0-0.2,0-0.3,0.1
			c-0.1,0.1-0.4,0.2-0.8,0.2c-0.3,0-0.5,0-0.7,0c-0.6,0-1.1-0.1-1.2-0.2c-0.2-0.1-0.3-0.3-0.3-0.6c0-0.2-0.1-0.4-0.3-0.5
			c-0.2-0.1-0.3-0.2-0.3-0.4c0-0.1,0-0.2-0.1-0.2c-0.3,0-0.5-0.5-0.7-1.4c-0.1-0.7-0.2-1-0.3-1c-0.1,0-0.1-0.1-0.1-0.2
			c0-0.1,0-0.2,0.1-0.3c0.2,0,0.3-0.7,0.3-1.9c0-0.2,0.1-0.2,0.3-0.2c0.2,0,0.3-0.1,0.3-0.2c0-0.1,0-0.2-0.2-0.4
			c-0.1-0.1-0.1-0.2,0-0.2c0.2,0,0.4-0.1,0.6-0.2c0.2-0.1,0.4-0.3,0.4-0.4c0-0.1,0.1-0.3,0.3-0.4c0.2-0.1,0.4-0.2,0.7-0.2
			c0.2,0,0.3-0.1,0.3-0.2c0-0.1,0.2-0.2,0.7-0.2c0.1,0,0.2,0,0.4,0c0.5,0,0.9,0.2,1.1,0.5c0.1,0.2,0.4,0.3,0.6,0.4
			c0.2,0.1,0.4,0.2,0.4,0.3v0.2c0,0.1,0,0.2,0.1,0.3c0.1,0.1,0.2,0.2,0.3,0.5c0.1,0.2,0.1,0.3,0.2,0.4c0.1,0.1,0.2,0.1,0.5,0.1
			c0.2,0,0.3,0.1,0.4,0.1c0.1,0,0.2-0.1,0.3-0.4c0.1-0.2,0.1-0.5,0.1-0.9c0-0.3,0-0.5,0.1-0.5c0.1,0,0.1-0.1,0.1-0.2
			c0-0.3-0.1-0.6-0.2-0.9c-0.1-0.1-0.1-0.2-0.2-0.3c-0.1,0-0.4,0-0.8,0c-0.6,0-1,0-1.1-0.1c-0.1-0.1-0.8-0.2-2.1-0.2
			c-0.6,0-0.9,0-1.1,0.1c-0.7,0.1-1.1,0.2-1.2,0.3c-0.2,0.1-0.7,0.5-1.6,1.3c-0.8,0.8-1.2,1.2-1.2,1.3c0,0.1-0.1,0.2-0.2,0.4
			c-0.1,0.2-0.2,0.4-0.2,0.6c0,0.3,0,0.4-0.1,0.5c-0.1,0.1-0.2,0.2-0.2,0.3c0,0.2-0.1,0.3-0.2,0.4c-0.1,0.1-0.2,0.6-0.2,1.4
			c0,1,0.1,1.5,0.2,1.6c0.1,0,0.1,0.1,0.1,0.2c0,0.1,0,0.2-0.1,0.2c-0.1,0,0,0.2,0.2,0.4c0.3,0.2,0.4,0.4,0.5,0.4
			c0.1,0,0.1,0.1,0.2,0.3c0.1,0.2,0.2,0.4,0.6,0.7c0.3,0.3,0.6,0.5,0.8,0.6c0.2,0.1,0.2,0.1,0.2,0.2c0,0.1,0.3,0.2,1,0.3
			c0.6,0.1,1.3,0.1,2.1,0.1c1,0,1.6-0.1,1.8-0.3c0.1-0.1,0.3-0.2,0.6-0.3c0.4-0.1,0.6-0.2,0.7-0.2c0,0,0.1,0,0.1,0
			c0,0-0.1,0.2-0.2,0.5c-0.1,0.3-0.2,0.5-0.2,0.5c0,0.2,0.2,0.3,0.6,0.3c0.2,0,0.4,0,0.6,0c1-0.1,1.5-0.2,1.5-0.4
			c0-0.1-0.1-0.3-0.4-0.5c-0.2-0.1-0.3-0.3-0.3-0.4c0-0.2-0.1-0.6-0.1-1.2l-0.1-1.3l0.5,0.1c0.3,0,0.5,0,0.6-0.2
			c0.1-0.2,0.3-0.3,0.6-0.3c0.3,0,0.4-0.1,0.4-0.1c0-0.1,0.1-0.2,0.1-0.5v-0.6l-2.4-0.1C182,790.1,181.7,790.1,181.4,790.1z"/>
		<path d="M204.9,782.6c-0.2-0.1-0.5-0.1-0.8-0.1c-0.1,0-0.2,0-0.5,0.1c-0.3,0.1-0.5,0.1-0.7,0.1h-0.1h-0.2c-0.2,0-0.5,0-1,0.1
			c-0.4,0-0.7,0.1-0.8,0.1c-0.1,0-0.2,0.1-0.2,0.2c0,0.2,0,0.3-0.1,0.3c-0.1,0-0.1,0-0.1,0.1c0,0.1,0,0.2,0,0.3
			c0,0.1,0.1,0.2,0.2,0.2c0.1,0.1,0.2,0.5,0.2,1.3c0,0.8,0.1,1.2,0.2,1.2c0.1,0,0.1,0.3,0.1,0.8v0.8h-1.3c-0.8,0-1.7,0-2.7-0.1
			l-1.4-0.1v-0.7c0-0.5,0-0.7,0.1-0.7c0.1,0,0.1-0.3,0.2-0.9c0-1.1,0.1-1.6,0.4-1.6c0.1,0,0.2,0,0.2-0.1c0-0.1,0.1-0.2,0.4-0.2
			c0.2,0,0.4-0.1,0.5-0.2s0.2-0.2,0.2-0.4c0-0.2-0.1-0.3-0.2-0.4c-0.2-0.1-0.5-0.2-1-0.2c-0.3,0-0.4,0-0.5,0.1c0,0-0.5,0.1-1.3,0.1
			c-0.9,0.1-1.7,0.2-2.4,0.5c-0.1,0-0.2,0.1-0.2,0.2c0,0.1,0.2,0.2,0.6,0.4l0.6,0.3l0,0.8v0.9v0.3c0,0.2,0,0.4,0.1,0.4
			c0.1,0.1,0.2,0.5,0.2,1.1c0,0.6-0.1,1.1-0.2,1.4c-0.1,0.3-0.2,0.5-0.2,0.8c0,0,0,0,0,0.1c0,0,0,0.1,0,0.1c0,0.2,0.1,0.4,0.1,0.6
			c0,0.5,0,1.1-0.1,1.8c-0.1,0.6-0.2,1-0.2,1.2c-0.1,0.2-0.4,0.3-0.8,0.3c-0.3,0-0.5,0.1-0.6,0.1c-0.1,0.1-0.1,0.2-0.1,0.4v0.5
			l0.7-0.1c0.3-0.1,1-0.1,2.2-0.1h0.7h0.7c1,0,1.6,0,1.6-0.1c0-0.1-0.1-0.3-0.2-0.5c-0.2-0.2-0.3-0.3-0.4-0.3h-0.1
			c-0.2,0.1-0.4,0.1-0.6-0.1c-0.1-0.1-0.2-0.1-0.3-0.2c0-0.1-0.1-0.2-0.1-0.4c0-0.3,0-0.5,0-0.8c0-0.9,0.1-1.6,0.1-2.1v-0.8h4.9
			l0.1,0.4c0,0.2,0.1,0.5,0.1,0.7c0,0.5,0,1.1-0.1,1.7c-0.1,0.6-0.2,1-0.3,1c-0.1,0.1-0.4,0.2-0.8,0.3c-0.3,0-0.5,0.1-0.5,0.1
			c-0.1,0.1-0.1,0.2-0.1,0.4c0,0.3,0.1,0.5,0.3,0.5c0.3,0.1,1.3,0.1,3.1,0.1c1.3,0,2,0,2.1-0.1c0.2-0.1,0.3-0.2,0.3-0.4
			c0-0.2-0.1-0.3-0.2-0.5c-0.1-0.2-0.3-0.2-0.4-0.2c0,0-0.1,0-0.1,0c-0.1,0.1-0.3,0.1-0.5,0l-0.4-0.1l0.1-3.5c0-2.3,0.1-3.5,0.2-3.6
			c0.1,0,0.1-0.3,0.1-0.9c0.1-1.1,0.2-1.6,0.4-1.6c0.1,0,0.2,0,0.2-0.1c0-0.1,0.1-0.2,0.4-0.2c0.2,0,0.4-0.1,0.5-0.2
			c0.2-0.1,0.2-0.3,0.2-0.4C205.2,782.8,205.1,782.7,204.9,782.6z M194.1,791.5c-0.2-0.1-0.3-0.1-0.3-0.2c0-0.1,0-0.1,0.1-0.1
			c0.2,0,0.3,0.1,0.4,0.2c0,0,0,0,0,0.1C194.3,791.6,194.2,791.6,194.1,791.5z M194.8,791.5c-0.1,0-0.1-0.1-0.1-0.2
			c0-0.1,0-0.2,0.1-0.2c0.1,0,0.2,0.1,0.2,0.2C194.9,791.4,194.9,791.5,194.8,791.5z M194.8,787.8c-0.1,0-0.2-0.1-0.2-0.3
			c0-0.3,0.1-0.4,0.2-0.4c0.2,0,0.2,0.1,0.2,0.3C195,787.7,194.9,787.8,194.8,787.8z M201.9,791.5c-0.1,0.1-0.2,0.1-0.4,0
			c-0.2-0.1-0.3-0.1-0.3-0.2c0-0.1,0.1-0.1,0.2-0.1c0.3,0,0.5,0.1,0.5,0.2C201.9,791.5,201.9,791.5,201.9,791.5z M202.3,791.5
			c-0.1,0-0.2-0.1-0.2-0.2c0-0.1,0.1-0.2,0.2-0.2c0.1,0,0.1,0.1,0.1,0.2C202.4,791.4,202.4,791.5,202.3,791.5z M202.3,787.8
			c-0.1,0-0.2-0.1-0.2-0.3c0-0.3,0.1-0.4,0.2-0.4c0.1,0,0.2,0.1,0.2,0.3C202.5,787.7,202.4,787.8,202.3,787.8z"/>
		<path d="M224,785.3c0.1,0,0.2-0.2,0.2-0.5c0-0.2,0-0.4-0.1-0.4c-0.1,0-0.1-0.1-0.1-0.3c0-0.2,0.1-0.4,0.2-0.6
			c0.1-0.3,0.1-0.5-0.2-0.6c-0.2-0.2-0.5-0.3-0.9-0.3c-0.5,0-0.8,0.1-1.1,0.4c-0.3,0.2-0.4,0.3-0.5,0.2c-0.1-0.1-0.4-0.1-0.8,0
			c-0.5,0.1-1.4,0.2-2.6,0.2c-0.9,0-1.4,0-1.5-0.1c-0.1-0.1-0.2,0-0.4,0.2c-0.1,0.1-0.3,0.2-0.4,0.2c-0.2,0-0.4,0-0.7-0.1
			c-0.7-0.2-1.1-0.2-1.3-0.2c-0.1,0-0.2,0-0.2,0c-0.1,0-0.3,0.1-0.4,0.3c-0.1,0.2-0.2,0.4-0.2,0.5c0,0.1,0,0.1,0.1,0.2
			c0,0,0.1,0.2,0.1,0.5c0,0.1,0,0.2-0.1,0.3c-0.1,0-0.2,0.1-0.3,0.1c-0.3,0-0.5,0.1-0.5,0.3c0,0,0,0.1,0.1,0.2
			c0.1,0.1,0.1,0.3,0.1,0.6c0,0.3-0.1,0.4-0.1,0.5c0,0.5,0.2,0.8,0.6,0.8c0.3,0,0.4-0.1,0.4-0.2c0-0.1,0.1-0.2,0.2-0.2
			c0.1,0,0.1,0,0.2-0.1c0,0,0-0.1,0-0.2c0-0.1-0.1-0.2-0.2-0.2c-0.1-0.1-0.1-0.1-0.1-0.2c0,0,0-0.1,0-0.1c0,0,0-0.1,0.1-0.1
			c0,0,0.1,0,0.2-0.1c0.2-0.1,0.2-0.2,0.2-0.3c0,0,0-0.1,0-0.2c0-0.1,0-0.1,0-0.2c0-0.1,0-0.2,0.1-0.2c0.1-0.1,0.1-0.3,0-0.6
			c-0.1-0.3-0.1-0.4,0-0.4c0.1,0,0.1,0.1,0.1,0.2c0,0.1,0.2,0.2,0.5,0.4c0.4,0.1,0.7,0.2,1.1,0.2c0.4,0,0.7,0.1,0.8,0.3
			c0.2,0.2,0.3,0.2,0.5,0.2c0.1,0,0.1,0,0.1,0c0.1,0,0.1,0,0,0.1c-0.3,0.3-0.4,2.2-0.5,5.8c0,0.8-0.1,1.2-0.3,1.4
			c-0.2,0.1-0.3,0.3-0.3,0.4c0,0.1-0.3,0.2-0.8,0.2l-0.7,0.1l-0.1,0.5c0,0,0,0.1,0,0.1c0,0,0,0.1,0,0.1c0,0.2,0.1,0.4,0.4,0.7
			c0.3,0.3,0.5,0.4,0.7,0.4c0.1,0,0.1,0,0.1-0.1c0-0.1,0-0.1-0.1-0.1c-0.1,0-0.1,0-0.1-0.1c0-0.1,0.2-0.1,0.5-0.1c0.1,0,0.4,0,0.8,0
			c0.4,0,0.7,0,0.9,0c0.6,0,0.9-0.1,1.1-0.2c0.1-0.1,0.3-0.2,0.6-0.1c0.2,0.1,0.3,0,0.4-0.1c0.1-0.1,0.2-0.1,0.3-0.1
			c0.1,0,0.3-0.1,0.5-0.2c0.1-0.1,0.2-0.2,0.2-0.3c0-0.1-0.1-0.2-0.2-0.5c-0.2-0.3-0.3-0.4-0.5-0.4c-0.1,0-0.2-0.1-0.2-0.2
			c0-0.1-0.1-0.2-0.3-0.1c0,0-0.1,0-0.1,0c-0.1,0-0.1,0-0.1,0c-0.1,0-0.2,0-0.3-0.1c0-0.1-0.1-0.3-0.1-0.5v-0.4c0-0.5,0-0.8,0-0.9
			c0-0.1,0.1-0.2,0.2-0.2c0.2,0,0.2-0.1,0.2-0.4c0-0.3-0.1-0.5-0.2-0.5c-0.1,0-0.2-0.4-0.2-1.1c0-0.8,0.1-1.2,0.2-1.4
			c0.1-0.1,0.2-0.5,0.2-1.2c0-0.7,0.1-1,0.1-1.1c0.1-0.2,0.5-0.2,1.2-0.2c1,0,1.5,0.1,1.6,0.4c0,0.1,0.1,0.2,0.4,0.5
			c0.2,0.2,0.3,0.4,0.3,0.8c0,0.3,0.1,0.5,0.1,0.5c0,0.1,0.2,0.1,0.4,0.1c0.2,0,0.4,0,0.4-0.1c0-0.1,0.1-0.2,0.3-0.2
			c0.2-0.1,0.3-0.2,0.3-0.4c0-0.2-0.1-0.4-0.2-0.5C223.9,785.4,223.9,785.3,224,785.3z"/>
		<path d="M255.6,785.7c-0.2-0.1-0.2-0.2-0.2-0.5c0-0.3,0-0.5-0.1-0.5c-0.1,0-0.1-0.1-0.1-0.4c0-0.3-0.1-0.4-0.2-0.4
			c-0.1,0-0.2-0.1-0.3-0.3c-0.1-0.2-0.2-0.3-0.3-0.4c-0.1-0.1-0.2-0.2-0.2-0.4c0-0.2-0.1-0.3-0.4-0.3c-0.7,0-1-0.1-1-0.4
			c0-0.1-0.1-0.2-0.2-0.2c-0.1,0-0.2,0-0.2-0.1c0-0.1-0.1-0.1-0.3-0.1c-0.2,0-0.3-0.1-0.4-0.2c0-0.1-0.5-0.2-1.5-0.2
			c-0.9,0-1.5,0.1-1.6,0.2c-0.1,0.1-0.2,0.2-0.4,0.2c-0.2,0-0.3,0.1-0.4,0.3c-0.1,0.2-0.3,0.4-0.6,0.4c-0.3,0-0.6,0.1-1.1,0.2
			c-0.5,0.1-0.7,0.3-0.8,0.5c0,0.2-0.2,0.4-0.5,0.7c-0.3,0.3-0.4,0.5-0.4,0.5c0,0.1-0.1,0.1-0.2,0.1c-0.1,0-0.2,0.1-0.3,0.4
			c-0.1,0.2-0.2,0.4-0.3,0.7c-0.2,0.3-0.2,0.8-0.2,1.8c0,1.2,0.1,2.1,0.4,2.9c0.5,1.4,0.9,2.2,1.2,2.3c0.2,0,0.3,0.1,0.3,0.3
			c0,0.2,0.2,0.2,0.4,0.2c0.2,0,0.4,0,0.4,0.1c0,0.1,0.1,0.1,0.3,0.1s0.3,0.1,0.3,0.4c0,0.2,0,0.3,0.1,0.4c0.1,0.1,0.2,0,0.4-0.1
			c0.1-0.1,0.2-0.1,0.3,0c0.2,0.1,0.9,0.2,2.2,0.2c1.1,0,1.7-0.1,1.7-0.2c0-0.1,0.3-0.2,0.7-0.2c0.4,0,0.6-0.1,0.6-0.2
			c0-0.2,0.1-0.3,0.2-0.3c0,0,0.2-0.1,0.4-0.3c0.3-0.2,0.4-0.3,0.5-0.3c0.1,0,0.2-0.1,0.2-0.3c0.1-0.2,0.2-0.3,0.3-0.3
			c0.1,0,0.2-0.1,0.3-0.3c0-0.2,0.2-0.3,0.4-0.3c0.2-0.1,0.3-0.1,0.3-0.2c0-0.1,0.1-0.1,0.2-0.1c0.1,0,0.2-0.2,0.2-0.6
			c0-0.3,0-0.5-0.1-0.5c-0.1,0-0.1-0.1,0-0.2c0.1-0.1,0.2-0.8,0.2-2.1c0-0.3,0-0.7,0-1.1C255.8,786,255.7,785.7,255.6,785.7z
			 M253.4,788.8c-0.1,0-0.2,0.2-0.2,0.4c0,0.3-0.1,0.4-0.2,0.5c-0.1,0.1-0.2,0.4-0.3,0.8c-0.1,0.4-0.1,0.6-0.3,0.6
			c-0.1,0-0.2,0-0.2,0.1c0,0.1-0.1,0.2-0.4,0.2c-0.3,0.1-0.4,0.2-0.4,0.3c0,0.1,0,0.2-0.1,0.2c-0.1,0.1-0.2,0.1-0.4,0.2
			c-0.1,0.1-0.2,0.1-0.3,0.1c0,0.1-0.2,0.1-0.4,0.1c-0.2,0-0.3,0.1-0.5,0.2c-0.1,0.1-0.2,0.1-0.4,0.1c-0.2,0-0.4,0-0.7-0.1
			c-0.5-0.1-1-0.3-1.3-0.6c-0.3-0.3-0.7-0.8-1-1.5c-0.3-0.5-0.4-0.9-0.5-1.1c0-0.2-0.1-0.7-0.1-1.4c0-0.7,0-1.1,0.1-1.4
			c0-0.2,0.1-0.5,0.3-0.8c0.3-0.5,0.6-0.9,1-1.3c0.4-0.4,0.8-0.6,1-0.7c0.3,0,0.5-0.1,0.5-0.3c0-0.1,0.1-0.2,0.2-0.2
			c0.1,0,0.2,0,0.2-0.1c0-0.1,0.1-0.1,0.3-0.1c0.2,0,0.3,0,0.3,0.1c0,0.1,0.3,0.1,0.9,0.1c0.5,0,0.8,0.1,0.8,0.2
			c0,0.1,0.1,0.2,0.3,0.3c0.2,0.1,0.3,0.2,0.3,0.3s0.1,0.2,0.3,0.3c0.3,0.1,0.5,0.4,0.5,0.8c0,0.2,0.1,0.5,0.3,0.8
			c0.2,0.3,0.3,0.7,0.3,1.1c0,0.5,0,0.7,0.1,0.8c0.1,0.1,0.1,0.2,0.1,0.4C253.6,788.6,253.5,788.7,253.4,788.8z"/>
		<path d="M273.4,783.9c0-0.3-0.1-0.5-0.2-0.6c-0.1-0.1-0.1-0.2,0-0.4c0.1-0.1,0.1-0.2,0.1-0.2c0-0.1-0.1-0.2-0.2-0.2
			c-0.1-0.1-0.2-0.2-0.2-0.3c0-0.2-0.1-0.3-0.3-0.5s-0.4-0.3-0.5-0.3c-0.1,0-0.2,0-0.2,0.1c0,0.1-0.3,0.1-0.9,0.2
			c-0.5,0.1-1.1,0.1-1.7,0.1c-0.6,0-0.9,0-1,0.1c-0.1,0-0.5,0.1-1.4,0.1c-0.9,0.1-1.8,0.2-2.7,0.3c-0.9,0.1-1.4,0.2-1.4,0.2
			c0,0,0,0.1,0,0.2c0,0.1,0,0.2,0.1,0.3c0.1,0.2,0.1,0.3,0.2,0.4c0.1,0,0.3,0.1,0.6,0.1c0.5,0,0.9,0.1,1,0.3
			c0.1,0.2,0.2,0.7,0.2,1.6c0,0.9-0.1,1.4-0.2,1.5c-0.1,0.1-0.1,0.2,0,0.4c0.1,0.3,0.2,0.5,0,0.7c-0.1,0.2-0.2,0.3-0.3,0.3
			c-0.1,0,0,0.1,0.1,0.2c0.1,0.1,0.1,0.3,0.1,0.6c0,0.1,0,0.4-0.1,0.8c-0.1,1.4-0.2,2.3-0.2,2.6c-0.1,0.4-0.1,0.5-0.3,0.6
			c-0.2,0.1-0.5,0.3-0.8,0.6l-0.5,0.6h5v-0.5c0-0.2,0-0.4-0.1-0.4c0-0.1-0.1-0.1-0.3-0.1c-0.2,0-0.4,0-0.4-0.1
			c0-0.1-0.1-0.1-0.2-0.1c-0.1,0-0.2-0.1-0.3-0.3c0-0.1,0-0.4,0-1.2c0-1.2,0-2.1,0.1-2.8c0-0.1,0.5-0.1,1.4-0.1
			c0.8,0,1.3,0.1,1.5,0.2c0.3,0.1,0.4,0.4,0.4,0.9c0,0.3,0,0.5,0.1,0.5c0.1,0,0.1-0.1,0.3-0.2c0.1-0.1,0.3-0.2,0.5-0.1
			c0.2,0.1,0.3,0,0.3-0.2c0-0.2,0-0.3,0.1-0.4c0.1-0.1,0.1-0.2,0-0.2c-0.1-0.1-0.2-0.3-0.2-0.6c0-0.4,0.1-0.7,0.2-0.8
			c0.1-0.1,0.1-0.1,0.1-0.2c0-0.1,0-0.1-0.1-0.2c-0.1-0.1-0.1-0.2-0.1-0.2c0-0.1,0-0.1,0.1-0.2c0.2-0.1,0.2-0.2,0.2-0.4
			c0-0.3-0.4-0.4-1.1-0.4c-0.4,0-0.6,0.2-0.6,0.5c0,0.1,0,0.2,0.1,0.3c0.1,0.2,0,0.4,0,0.5c-0.1,0.1-0.4,0.2-1,0.3
			c-0.6,0.1-1.1,0.2-1.6,0.2h-0.5v-0.6c0-0.4,0.1-0.6,0.2-0.7c0.1-0.1,0.2-0.2,0.2-0.4c0-0.3-0.1-0.5-0.2-0.8
			c-0.1-0.2-0.2-0.4-0.2-0.4c0-0.1,0.1-0.1,0.2-0.3c0.2-0.2,0.3-0.4,0.2-0.6c0-0.1,0-0.1,0-0.2c0-0.1,0.1-0.2,0.4-0.3
			c0.3-0.1,0.8-0.1,1.6-0.1c0.7,0,1.1-0.1,1.1-0.1c0.3,0,0.5,0.1,0.7,0.2c0.2,0.2,0.3,0.3,0.5,0.4c0.2,0.1,0.3,0.2,0.3,0.3
			c0,0.1,0.1,0.3,0.3,0.4c0.2,0.1,0.4,0.3,0.5,0.6c0.1,0.4,0.4,0.5,0.8,0.5c0.1,0,0.2,0,0.3-0.1c0.1-0.1,0.2-0.2,0.2-0.6
			c0-0.3-0.1-0.5-0.2-0.5C273.4,784.4,273.4,784.2,273.4,783.9z"/>
		<path d="M309,782.4c-0.1,0-0.3,0-0.5,0c-0.2,0-0.4,0-0.4,0c-0.4,0-0.6,0-0.7,0.1c-0.1,0-0.3,0.1-0.4,0.3c-0.2,0.2-0.3,0.3-0.3,0.4
			c0,0.1,0,0.1,0.2,0.2c0.3,0.2,0.5,0.2,0.7,0.2c0.3,0,0.4,0.1,0.5,0.3c0.1,0.2,0,0.3-0.1,0.4c-0.1,0-0.2,0.2-0.2,0.6
			c0,0.4-0.1,0.6-0.2,0.6c-0.2,0.1-0.2,0.2-0.2,0.4v0.4c0,0.6-0.1,0.9-0.3,0.9c-0.1,0-0.2,0.1-0.3,0.3c0,0.2-0.1,0.7-0.3,1.5
			c-0.1,0.4-0.2,0.6-0.4,0.6c-0.1,0-0.2,0.1-0.2,0.2c0,0.1,0,0.2-0.2,0.2c-0.3,0-0.4-0.1-0.5-0.2c-0.1-0.2-0.2-0.5-0.3-0.9
			c-0.1-0.4-0.2-1-0.2-1.7c-0.1-0.5-0.2-0.8-0.3-0.9c-0.1-0.1-0.1-0.4-0.1-0.7c0-0.3,0-0.5-0.1-0.5c-0.1,0-0.1-0.1-0.1-0.4
			c0-0.2-0.1-0.4-0.2-0.5c-0.1-0.1-0.2-0.1-0.2-0.2c0-0.1,0.2-0.2,0.6-0.2c0.4,0,0.7-0.1,0.9-0.3c0.1-0.1,0.2-0.2,0.2-0.3
			c0-0.1,0-0.2-0.1-0.4c-0.1-0.2-0.3-0.4-0.6-0.5c-0.3-0.1-0.8-0.1-1.6-0.1c-0.6,0-1-0.1-1-0.3c-0.1-0.2-0.1-0.3-0.2-0.3
			c-0.1,0-0.2,0.1-0.5,0.3c-0.3,0.2-0.4,0.3-0.5,0.3c-0.3,0-0.5,0.2-0.6,0.6v0.1l0,0.1c0,0.3,0.3,0.6,0.9,0.7c0.1,0,0.3,0.1,0.4,0.1
			c0.1,0.1,0.1,0.2,0.1,0.2s-0.1,0.1-0.2,0.1c-0.1,0-0.1,0.2-0.1,0.6c0,0.4-0.1,0.6-0.2,0.6c-0.1,0-0.1,0.2-0.1,0.5
			c0,0.7-0.2,1.1-0.5,1.2c-0.1,0-0.2,0.1-0.3,0.3c-0.1,0.2-0.1,0.7-0.3,1.5c-0.1,0.4-0.2,0.6-0.4,0.6c-0.2,0-0.2,0.1-0.2,0.2
			c0,0.1,0,0.2-0.2,0.2c-0.3,0-0.5-0.1-0.6-0.2c-0.1-0.2-0.2-0.5-0.2-0.9c0-0.6-0.1-0.9-0.2-1c-0.1-0.1-0.1-0.3-0.1-0.6
			c0-0.4-0.1-0.7-0.2-0.9c-0.1-0.3-0.2-0.5-0.1-0.8c0-0.3,0-0.5-0.1-0.5c-0.1,0-0.2-0.1-0.2-0.4c0-0.2-0.1-0.4-0.2-0.5
			c-0.1-0.1-0.2-0.1-0.2-0.2c0-0.1,0.2-0.2,0.6-0.2c0.4,0,0.7-0.1,0.9-0.3c0.1-0.1,0.2-0.2,0.2-0.3c0-0.1-0.1-0.2-0.2-0.4
			c-0.1-0.2-0.2-0.3-0.4-0.4c-0.2-0.1-0.5-0.1-0.9-0.1c-0.1,0-0.2,0-0.4,0c-0.2,0-0.4,0-0.5,0h-0.4c-0.3,0-0.4,0-0.5-0.1
			c-0.1,0-0.1-0.1-0.2-0.3c-0.1-0.2-0.1-0.4-0.3-0.4c-0.1,0-0.2,0.1-0.5,0.3c-0.2,0.2-0.4,0.3-0.5,0.3c-0.1,0-0.3,0.1-0.4,0.2
			c-0.1,0.1-0.2,0.3-0.2,0.4c0,0.4,0.3,0.7,0.9,0.8c0.5,0.1,0.9,0.6,1,1.6c0.1,0.4,0.2,0.6,0.3,0.8c0.1,0.1,0.2,0.4,0.2,0.7
			c0,0.3,0.1,0.5,0.2,0.6c0.4,0.4,0.5,1.1,0.5,1.9c0,0.4,0,0.6,0.1,0.7c0.1,0.1,0.1,0.2,0.1,0.4c0,0.2,0,0.3,0.1,0.4
			c0.1,0.1,0.2,0.3,0.2,0.8c0,0.4,0.1,0.6,0.2,0.6c0.1,0,0.2,0.2,0.2,0.5c0,0.3,0.1,0.5,0.2,0.5c0.1,0,0.2,0.1,0.3,0.4
			c0.1,0.3,0.3,0.5,0.6,0.5c0.1,0,0.3-0.1,0.4-0.2c0.1-0.1,0.2-0.3,0.2-0.4c0-0.3,0-0.4,0.1-0.4c0.1,0,0.2-0.1,0.2-0.4
			c0-0.3,0-0.5,0.1-0.5c0.1,0,0.2-0.2,0.2-0.5c0-0.3,0.1-0.6,0.3-0.9c0.2-0.3,0.4-0.5,0.6-0.6c0.2-0.1,0.3-0.3,0.3-0.6
			c0-0.4,0.1-0.6,0.2-0.6c0.1,0,0.2-0.2,0.2-0.5c0-0.3,0.1-0.6,0.2-0.8c0.1-0.2,0.2-0.4,0.1-0.5c-0.1-0.2,0.1-0.3,0.4-0.4
			c0.3-0.1,0.4-0.2,0.5-0.3c0.1,0,0.1,0.1,0.1,0.4c0,0.4,0.1,0.6,0.2,0.8c0.4,0.5,0.6,1.1,0.6,1.9c0,0.4,0,0.6,0.1,0.6
			c0.1,0,0.1,0.1,0.1,0.4c-0.1,0.2,0,0.4,0.1,0.5c0.1,0.1,0.2,0.3,0.2,0.8c0,0.4,0.1,0.6,0.2,0.6c0.2,0,0.2,0.2,0.2,0.5
			c0,0.3,0.1,0.5,0.2,0.5c0.1,0,0.2,0.1,0.3,0.4c0.1,0.3,0.3,0.5,0.6,0.5c0.1,0,0.3-0.1,0.4-0.2c0.1-0.1,0.2-0.3,0.2-0.4
			c0-0.3,0.1-0.4,0.2-0.4c0.1,0,0.1-0.1,0.1-0.4c0-0.3,0-0.5,0.1-0.5c0.1,0,0.2-0.2,0.2-0.5c0-0.3,0.1-0.6,0.3-1
			c0.2-0.4,0.4-0.6,0.5-0.6c0.1,0,0.2-0.2,0.2-0.6c0-0.5,0.1-0.7,0.2-0.7c0.1,0,0.2-0.2,0.2-0.5c0-0.3,0.1-0.6,0.2-0.8
			c0.1-0.2,0.2-0.4,0.2-0.6c0-0.1,0.1-0.2,0.4-0.3s0.4-0.2,0.4-0.3c0-0.1,0-0.1,0-0.2c0-0.1,0-0.1,0-0.2c0-0.6,0.1-0.9,0.3-0.9
			c0.1,0,0.1-0.1,0.2-0.4c0-0.3,0.1-0.4,0.2-0.4c0.1,0,0.2-0.1,0.2-0.2c0-0.1,0.1-0.2,0.4-0.2c0.3,0,0.5-0.1,0.6-0.2
			c0.1-0.1,0.2-0.3,0.2-0.6l0-0.4L309,782.4z"/>
		<path d="M331.2,792.9c-0.1,0-0.1-0.1-0.2-0.4c-0.1-0.2-0.1-0.3-0.2-0.3c0,0-0.3,0.1-0.8,0.2c0,0-0.1,0-0.2,0c-0.4,0-0.7-0.6-1-1.7
			c-0.2-0.8-0.4-1.3-0.4-1.4c-0.1-0.1-0.2-0.3-0.2-0.5c-0.1-0.4-0.3-1.3-0.8-2.8c-0.5-1.5-0.7-2.4-0.8-2.7c-0.2-1-0.4-1.5-0.5-1.7
			c-0.1-0.2-0.2-0.3-0.4-0.3c-0.3-0.1-0.4,0-0.5,0.1c-0.1,0.1-0.2,0.2-0.4,0.2c-0.2,0-0.4,0.1-0.4,0.2c0,0.1-0.1,0.1-0.2,0.1
			c-0.1,0-0.2,0.2-0.4,0.6c-0.2,0.4-0.3,0.8-0.5,1.2c-0.1,0.4-0.2,0.6-0.3,0.7c-0.1,0.1-0.1,0.2-0.1,0.4c0,0.2-0.1,0.6-0.4,1.2
			c-0.3,0.6-0.5,1.1-0.5,1.5c-0.1,0.4-0.2,0.6-0.2,0.7c-0.1,0.1-0.2,0.3-0.4,0.8c-0.2,0.5-0.3,0.7-0.3,0.8c-0.1,0.2-0.2,0.4-0.2,0.5
			c0,0.2,0,0.2-0.1,0.2c-0.1,0-0.2,0.1-0.3,0.4c-0.1,0.2-0.2,0.4-0.2,0.6c0,0.1-0.2,0.3-0.5,0.6c-0.3,0.3-0.5,0.4-0.7,0.4
			c-0.2,0-0.3,0.1-0.5,0.4c-0.2,0.2-0.4,0.4-0.5,0.4c-0.1,0-0.2,0.1-0.4,0.4c-0.1,0.2-0.1,0.3-0.1,0.4c0,0.1,0.1,0.3,0.4,0.5
			l0.5,0.4l2-0.1c1.1,0,1.8-0.1,2.1-0.1c0.3,0,0.5-0.1,0.5-0.2c0,0,0-0.1-0.1-0.2c-0.1-0.2-0.1-0.3,0.1-0.3c0.1,0,0.2-0.1,0.2-0.2
			c0-0.1-0.1-0.2-0.2-0.2c-0.1,0-0.3-0.1-0.4-0.2c-0.1-0.1-0.4-0.2-0.7-0.3c-0.5-0.1-0.7-0.3-0.7-0.5c0-0.1,0-0.2,0.1-0.3
			c0.1-0.2,0.2-0.3,0.2-0.5c0-0.1,0-0.2,0.1-0.2c0.1,0,0.1-0.2,0.1-0.7v-0.7h0.6c0.4,0,0.7-0.1,0.7-0.2c0.1-0.2,0.6-0.2,1.5-0.2h0.4
			c0.7,0,1,0,1.1,0.1c0.1,0.1,0.2,0.4,0.2,0.8c0,0.5,0.1,0.8,0.3,0.9c0.2,0.2,0.3,0.4,0.3,0.6c0,0,0,0,0,0.1c0,0,0,0.1,0,0.1
			c0,0.3-0.1,0.4-0.1,0.5c-0.1,0.1-0.3,0.1-0.6,0.2c-0.5,0.1-0.7,0.2-0.8,0.3c0,0.1-0.1,0.1-0.3,0.1c-0.2,0-0.3,0.1-0.3,0.3
			c0,0.3,0,0.4,0.1,0.5c0.1,0.1,0.3,0.1,0.6,0.1c0.3,0,0.7,0,1.3-0.1c0.6-0.1,1.3-0.1,2-0.1c0.4,0,0.7,0,0.8,0c0.2,0,0.4,0,0.6,0
			c0.3,0,0.5-0.1,0.5-0.3c0.1-0.2,0.1-0.3,0.2-0.3c0.1,0,0.1-0.2,0.1-0.5S331.4,792.9,331.2,792.9z M325.1,788.4c0,0-0.1,0-0.2,0
			c-0.1,0-0.1,0-0.1,0c-0.3,0-0.5,0.1-0.6,0.2c-0.1,0.1-0.3,0.2-0.4,0.2s-0.3-0.1-0.4-0.2c-0.1-0.1-0.2-0.2-0.3-0.2
			c-0.1,0-0.2-0.1-0.2-0.2c0-0.1,0-0.2,0.1-0.2c0.1,0,0.2-0.1,0.3-0.4c0.1-0.3,0.2-0.5,0.2-0.7c0-0.2,0.1-0.3,0.2-0.4
			c0.1,0,0.2-0.3,0.2-0.8c0.1-0.6,0.3-0.9,0.6-0.9c0.2,0,0.3,0.1,0.5,0.2c0.1,0.1,0.2,0.2,0.4,0.5c0.1,0.3,0.2,0.4,0.2,0.5
			c0,0-0.1,0.1-0.3,0.1c-0.2,0-0.3,0.1-0.4,0.2c-0.1,0.1,0,0.2,0.1,0.2c0.1,0,0.2,0.1,0.2,0.2c0.1,0.1,0.2,0.3,0.2,0.4
			c0.1,0.2,0.1,0.2,0.2,0.3c0.1,0.1,0.1,0.3,0.2,0.6l0.1,0.5L325.1,788.4z"/>
		<path d="M351.4,782c-0.1,0-0.2,0-0.3,0.1c-0.2,0.1-0.3,0.1-0.3,0.1c-0.1,0-0.1-0.1-0.2-0.2c-0.1-0.2-0.3-0.3-0.4-0.3
			c-0.1,0-0.2-0.1-0.2-0.3c0-0.2-0.1-0.3-0.3-0.3c-0.2,0-0.3,0.1-0.3,0.3c0,0.2,0.1,0.3,0.2,0.3s0.2,0.1,0.2,0.3
			c0,0.2-0.1,0.3-0.2,0.3c-0.2,0-0.3-0.1-0.3-0.4c-0.1-0.2-0.2-0.4-0.3-0.4c-0.1,0-0.1,0-0.2,0.1c-0.2,0.2-0.2,0.3,0,0.3
			c0.1,0,0.2,0.1,0.2,0.1c0,0.1-0.1,0.2-0.4,0.2c-0.2,0-0.4,0-0.4-0.1c0-0.1-0.1-0.1-0.4-0.1c-0.4,0-0.8,0.1-1.1,0.2
			c-0.4,0.2-0.6,0.4-0.6,0.7c0,0.3,0.3,0.5,0.8,0.6c0.4,0.1,0.6,0.1,0.6,0.2c0,0.1,0.1,0.1,0.3,0.1c0.3,0,0.5,0.2,0.6,0.6
			c0.1,0.4,0.2,1.2,0.2,2.4c0,1.4,0.1,2.2,0.1,2.4c0.1,0.1,0,0.3,0,0.6l-0.1,0.4l-0.5-0.5c-0.4-0.3-0.5-0.5-0.5-0.6
			c0-0.1-0.1-0.2-0.2-0.3c-0.1-0.1-0.3-0.2-0.4-0.4c-0.2-0.1-0.3-0.2-0.3-0.2c-0.1-0.1-0.3-0.2-0.3-0.2c-0.1,0-0.2-0.1-0.2-0.2
			c0-0.1-0.1-0.2-0.2-0.3c-0.1-0.1-0.3-0.2-0.4-0.2s-0.1-0.1-0.1-0.2c0-0.1-0.1-0.2-0.2-0.2c-0.1,0-0.1,0-0.1-0.1
			c0-0.1-0.1-0.2-0.4-0.5c-0.2-0.3-0.4-0.4-0.4-0.5c0-0.1-0.1-0.2-0.3-0.2c-0.2,0-0.3-0.1-0.5-0.2c-0.2-0.1-0.2-0.3-0.2-0.4
			c0-0.1-0.2-0.3-0.5-0.7c-0.3-0.4-0.5-0.6-0.5-0.7c0-0.1-0.1-0.2-0.3-0.4s-0.3-0.4-0.3-0.4c0-0.3-0.6-0.5-1.8-0.6
			c-0.6,0-0.9-0.1-0.9-0.1c-0.3,0-0.4,0.1-0.4,0.2c0,0.1,0,0.2,0,0.4c0,0.2,0,0.4,0.1,0.6c0.1,0.2,0.1,0.3,0.2,0.3
			c0.1,0,0.2,0.2,0.3,0.6c0.1,0.4,0.2,0.6,0.2,0.6c0.1,0,0.1,0.3,0.1,0.8c0,0.5,0,0.8-0.1,0.8c-0.1,0-0.1,0.1-0.1,0.4
			c0,0.2,0.1,0.6,0.2,1c0.1,0.2,0.1,0.6,0.1,1.1c0,0.7-0.1,1.1-0.2,1.1c-0.1,0-0.1,0.2-0.1,0.7c0,0.5,0,1.1-0.1,1.5
			c0,0.4-0.1,0.6-0.1,0.7c-0.1,0.1-0.2,0.2-0.4,0.2c-0.3,0.1-0.4,0.2-0.4,0.4c0,0.2,0.1,0.4,0.4,0.6c0.2,0.2,0.3,0.3,0.5,0.3
			c0.2,0,0.8,0,1.7,0c1,0,1.6,0,1.8-0.1c0.2-0.1,0.3-0.3,0.3-0.8c0-0.3-0.1-0.4-0.3-0.5c-0.2-0.1-0.3-0.1-0.3-0.2
			c0-0.1-0.2-0.1-0.6-0.1c-0.4,0-0.7-0.1-0.9-0.3c-0.2-0.2-0.2-0.3-0.1-0.4c0.1-0.1,0.2-0.2,0.2-0.6c0-0.3,0-0.5-0.1-0.5
			c-0.1-0.1-0.1-0.9-0.1-2.6c0-1.7,0.1-2.5,0.2-2.5c0.1,0,0.3,0.1,0.4,0.2c0.1,0.1,0.3,0.2,0.5,0.3c0.3,0.1,0.4,0.3,0.5,0.4
			c0,0.2,0.3,0.5,0.8,1.1c0.5,0.5,0.9,0.9,1.3,1.1c0.2,0.1,0.3,0.2,0.3,0.3c0,0.1,0.2,0.2,0.5,0.6c0.7,0.7,1.1,1.1,1.1,1.4
			c0,0.1,0.1,0.1,0.3,0.1c0.2,0,0.3,0,0.3,0.1c0,0.1,0.1,0.3,0.4,0.5c0.2,0.2,0.4,0.4,0.4,0.6c0,0.1,0.1,0.3,0.3,0.5
			s0.3,0.3,0.4,0.3c0.1,0,0.3,0.2,0.6,0.5c0.3,0.3,0.5,0.5,0.7,0.6c0.1,0.1,0.2,0.1,0.3,0.1c0.4,0,0.6-0.2,0.6-0.6
			c0-0.1,0-0.2,0-0.4c0-0.9-0.1-1.4-0.2-1.6c-0.1-0.1-0.1-0.5-0.1-1.3v-0.4c0-1,0-1.6-0.1-1.6c-0.1-0.1-0.2-0.4-0.2-1
			c0-0.5,0-0.8,0.1-0.8c0.1-0.1,0.2-0.2,0.2-0.5s0-0.4,0.1-0.4c0.1,0,0.1-0.1,0.1-0.4c0-0.3,0-0.4-0.1-0.4c-0.1,0-0.1-0.1-0.1-0.4
			c0-0.4,0.1-0.7,0.2-1c0.2-0.3,0.4-0.5,0.7-0.5c0.2,0,0.4-0.1,0.4-0.1c0.1,0,0.1-0.2,0.1-0.5v-0.2C351.7,782.3,351.6,782,351.4,782
			z"/>
		<path d="M370.9,785.5c0-0.2-0.1-0.3-0.2-0.5c-0.2-0.2-0.3-0.3-0.4-0.3c-0.1,0-0.2-0.1-0.2-0.2c0-0.1-0.1-0.3-0.3-0.6
			c-0.2-0.2-0.3-0.3-0.4-0.3c-0.1,0-0.2-0.1-0.2-0.2c0-0.1-0.1-0.2-0.3-0.3c-0.2-0.1-0.3-0.1-0.3-0.2c0-0.1-0.1-0.1-0.4-0.1
			c-0.2,0-0.3-0.1-0.6-0.2c-0.2-0.1-0.4-0.2-0.5-0.2c-0.2,0-0.3,0-0.3-0.1c0-0.1-0.1-0.1-0.4-0.1c-0.2,0-0.3,0-0.4-0.1
			c-0.1-0.1-0.2-0.1-0.2-0.1c-0.1,0-0.2,0-0.4,0.1c-0.3,0.1-0.6,0.2-1,0.2c-0.2,0-0.4,0-0.4-0.1c-0.1,0-0.1-0.1-0.1-0.2
			c0-0.2-0.1-0.3-0.2-0.3c-0.1,0-0.2,0-0.3,0.2c-0.1,0.1-0.1,0.1-0.2,0c-0.2-0.3-0.3-0.2-0.4,0.1c-0.1,0.2-0.2,0.3-0.4,0.2
			c-0.2-0.1-0.5-0.2-1-0.2c-0.4,0-0.7-0.1-0.8-0.2c0-0.1-0.1-0.1-0.3,0.1s-0.3,0.1-0.3,0c-0.1-0.1-0.2-0.2-0.5-0.2
			c-0.2,0-0.4,0-0.4,0.1c0,0.1-0.1,0.1-0.3,0.1c-0.1,0-0.2,0-0.2,0.1c0,0.1-0.1,0.3-0.1,0.5c0,0.3,0,0.5,0.1,0.6
			c0,0.1,0.2,0.2,0.3,0.3c0.2,0.1,0.3,0.1,0.4,0.1c0,0,0.1,0,0.1,0c0.1,0,0.1,0,0.1,0c0.1,0,0.2,0,0.3,0.1c0.2,0.1,0.4,0.4,0.4,0.8
			c0,0.4,0,0.6-0.1,0.6c-0.1,0-0.1,0.3-0.1,0.9c0,0.6,0,0.8,0.1,0.8c0.1,0,0.1,0.1,0.1,0.4c0,0.2,0,0.4-0.1,0.5
			c-0.1,0.1-0.1,1-0.2,2.8l-0.1,2.7l-0.5,0c-0.4,0-0.6,0.2-0.8,0.4c-0.2,0.2-0.3,0.4-0.3,0.5c0,0.1,0.1,0.2,0.4,0.4
			c0.3,0.2,0.5,0.2,0.7,0.2c0.1,0,0.2,0,0.2-0.1c0-0.1,0.3-0.1,0.8-0.1c0.5,0,0.8,0,0.8,0.1c0,0.1,0.9,0.2,2.6,0.2
			c1.1,0,1.7,0,1.8-0.1c0.1-0.1,0.4-0.2,0.7-0.2c0.4-0.1,0.8-0.2,1.3-0.5c0.5-0.2,0.8-0.4,1-0.4c0.2,0,0.3-0.1,0.4-0.4
			c0.1-0.3,0.3-0.6,0.7-1.1c0.4-0.4,0.6-0.7,0.6-0.8c0-0.1,0-0.2,0.1-0.2c0.1,0,0.1-0.1,0.1-0.3c0-0.2,0.1-0.4,0.2-0.5
			c0.1-0.1,0.1-0.8,0.1-2c0-1.4-0.1-2.1-0.2-2.2C371,785.8,370.9,785.7,370.9,785.5z M368.8,789.7c-0.1,0.1-0.2,0.2-0.2,0.5
			s-0.1,0.4-0.2,0.6c-0.3,0.3-0.5,0.6-0.6,1c-0.1,0.2-0.1,0.2-0.2,0.2c-0.1,0-0.3,0.2-0.7,0.5c-0.4,0.3-0.7,0.5-0.9,0.5
			c-0.2,0-0.3,0.1-0.4,0.2c-0.1,0.1-0.1,0.1-0.2,0c-0.1-0.1-0.1-0.2-0.3-0.2s-0.2,0.1-0.3,0.2c0,0.1-0.3,0.1-0.9,0.1
			c-0.6,0-1.1,0-1.6,0c-0.2,0-0.2-0.1-0.2-0.4c0-0.2-0.1-0.4-0.2-0.4c-0.1,0-0.2,0-0.2-0.1c0-0.1,0.1-0.1,0.2-0.2
			c0.1-0.1,0.2-0.2,0.2-0.3c0-0.1,0.1-0.2,0.2-0.2c0.1,0,0.1-0.1,0.2-0.4c0.1-0.2,0.1-0.5,0.1-0.8c0-0.1,0-0.3-0.1-0.5
			c0,0,0,0,0-0.1c0,0,0-0.1,0-0.1c0-0.2,0.1-0.4,0.2-0.6l0.2-0.4c0,0-0.1-0.1-0.2-0.1c-0.1,0-0.2-0.3-0.2-0.8c0-0.5,0-1,0-1.5
			c0-1.4,0.1-2.2,0.1-2.4c0-0.3,0.1-0.5,0.4-0.8c0.2-0.2,0.4-0.3,0.6-0.3c0.1,0,0.2,0,0.3,0c0.1,0,0.3,0,0.7,0.1
			c0.4,0,0.7,0.1,1,0.1c0.3,0.1,0.4,0.1,0.5,0.2c0.1,0.1,0.2,0.2,0.4,0.2c0.2,0,0.4,0.1,0.4,0.3c0.1,0.2,0.2,0.3,0.3,0.3
			c0.2,0,0.2,0,0.2,0.1s0.1,0.2,0.3,0.2c0.2,0.1,0.3,0.2,0.3,0.3c0,0.1,0.1,0.3,0.2,0.4c0.1,0.1,0.2,0.4,0.3,0.9
			c0,0.4,0.1,0.7,0.2,0.8c0.1,0.1,0.1,0.5,0.1,1.3S368.9,789.7,368.8,789.7z"/>
		<path d="M380.7,788.7c0-0.1,0-0.2-0.1-0.2c-0.1,0-0.1,0-0.1,0.1l0.1,0.2C380.7,789,380.7,788.9,380.7,788.7z"/>
		<path d="M386.6,789.5c0-0.6-0.1-0.9-0.2-1.1c-0.1-0.2-0.3-0.4-0.6-0.5c-0.3-0.1-0.5-0.3-0.5-0.4c-0.1-0.1-0.3-0.3-0.9-0.6
			c-0.5-0.3-1-0.5-1.3-0.6c-0.2-0.1-0.5-0.2-0.9-0.5c-0.4-0.3-0.6-0.4-0.6-0.5c0-0.1-0.1-0.2-0.2-0.3c-0.2-0.1-0.2-0.2-0.2-0.3
			c0,0,0-0.1,0-0.1c0.1-0.1,0.1-0.2,0.1-0.3s0-0.3-0.1-0.6c0-0.1,0-0.2,0-0.2c0,0,0.2-0.1,0.3-0.1c0.3,0,0.4-0.1,0.4-0.2
			c0-0.1,0.1-0.2,0.4-0.4c0.3-0.2,0.4-0.3,0.4-0.3c0-0.1,0.1-0.1,0.4-0.2c0.1,0,0.1,0,0.2,0c0.4,0,0.8,0.2,1.2,0.5
			c0.5,0.3,0.7,0.6,0.7,0.9c0,0.2,0.1,0.4,0.3,0.5c0.2,0.1,0.3,0.3,0.3,0.4s0.1,0.3,0.2,0.5c0.2,0.2,0.3,0.3,0.4,0.3c0,0,0,0,0.1,0
			c0.1-0.1,0.1-0.7,0.2-2v-0.8c0-0.6-0.1-0.9-0.2-0.9c-0.1,0-0.1,0-0.1,0c-0.3,0.1-0.6,0.2-0.8,0.2c-0.3,0-0.6-0.1-1-0.3
			c-0.4-0.2-0.6-0.3-0.7-0.3c0,0-0.1,0-0.2,0.1c-0.3,0.1-0.6,0.1-0.8,0.1c-0.3,0-0.4,0-0.5,0.1c0,0.1-0.1,0.2-0.3,0.2
			c-0.2,0-0.4-0.1-0.5-0.2c-0.1-0.1-0.3-0.2-0.5-0.2h0c-0.1,0-0.1,0-0.1,0c-0.1,0-0.1,0-0.1,0c0,0,0.1,0,0.1,0
			c0.1,0.1,0.2,0.1,0.2,0.2c0,0.2-0.2,0.3-0.5,0.4c-0.3,0.1-0.4,0.2-0.4,0.4c0.1,0.2,0,0.3-0.2,0.4c-0.3,0.1-0.6,0.5-1.1,1.1
			c-0.1,0.2-0.2,0.4-0.2,0.6c0,0,0,0.3,0.1,0.8c0.1,0.7,0.3,1.1,0.4,1.3c0.1,0.2,0.4,0.4,0.7,0.7c0.4,0.3,0.6,0.4,0.8,0.4
			c0.1,0,0.3,0.1,0.6,0.4c0.4,0.3,0.9,0.6,1.7,0.8c0.5,0.1,0.8,0.3,1.1,0.6c0.2,0.2,0.3,0.4,0.5,0.7c0.1,0.3,0.2,0.5,0.2,0.7
			c0,0.1,0,0.1-0.1,0.2c-0.1,0-0.1,0.2-0.1,0.4c0.1,0.2,0,0.4-0.2,0.6c-0.1,0.1-0.2,0.3-0.2,0.4c0,0.2-0.5,0.4-1.4,0.5
			c-0.1,0-0.3,0-0.6,0c-0.9,0-1.7-0.4-2.2-1.2c-0.3-0.4-0.5-0.8-0.5-1c0,0,0-0.1,0-0.2c0-0.1,0-0.2,0-0.2c0,0-0.1-0.1-0.1-0.1
			c-0.1,0-0.1,0-0.1-0.1c0.1-0.3-0.1-0.5-0.4-0.6c-0.1,0-0.2-0.1-0.3-0.1c-0.3,0-0.4,0.2-0.5,0.5c-0.1,1.2-0.1,1.9-0.2,1.9
			c-0.1,0.1-0.1,0.4-0.2,0.8c0,0.1,0,0.3,0,0.4c0,0.2,0.1,0.4,0.3,0.6c0.1,0.1,0.2,0.2,0.3,0.2c0,0,0.1,0,0.2-0.2
			c0.1-0.2,0.2-0.3,0.2-0.4c0-0.3,0.2-0.3,0.5-0.1c0.9,0.5,1.8,0.7,2.9,0.7c0.5,0,1.1-0.1,1.6-0.2c0.6-0.1,1.1-0.3,1.4-0.6
			c0.3-0.3,0.5-0.5,0.5-0.5c0-0.1,0.1-0.2,0.2-0.3c0.2-0.1,0.3-0.4,0.3-0.9c0.1-0.5,0.1-0.7,0.2-0.7c0.1,0,0.1,0,0-0.1
			C386.7,790.6,386.7,790.2,386.6,789.5z M382.2,788C382.2,788,382.2,787.9,382.2,788c-0.1-0.1-0.1-0.1,0-0.1S382.3,787.9,382.2,788
			C382.3,787.9,382.3,788,382.2,788z"/>
		<polygon points="51.7,807.5 44,812.7 41.2,798.7 38.4,812.7 30.7,807.5 35.9,815.3 21.8,818 35.9,820.8 30.7,828.5 38.4,823.3 
			41.2,837.4 43.9,823.4 51.7,828.5 46.5,820.8 60.5,818 46.5,815.3 		"/>
		<polygon points="468.1,815.3 473.3,807.5 465.5,812.7 462.8,798.7 460,812.7 452.3,807.5 457.5,815.3 443.4,818 457.5,820.8 
			452.3,828.5 460,823.3 462.8,837.4 465.5,823.4 473.3,828.5 468.1,820.8 482.1,818 		"/>
		<polygon points="30.7,56.3 38.4,51.1 41.2,65.1 44,51.1 51.7,56.3 46.5,48.5 60.5,45.8 46.5,43 51.7,35.3 43.9,40.4 41.2,26.4 
			38.4,40.5 30.7,35.3 35.9,43 21.8,45.8 35.9,48.5 		"/>
		<polygon points="473.3,35.3 465.5,40.4 462.8,26.4 460,40.5 452.3,35.3 457.5,43 443.4,45.8 457.5,48.5 452.3,56.3 460,51.1 
			462.8,65.1 465.5,51.1 473.3,56.3 468.1,48.5 482.1,45.8 468.1,43 		"/>
		<path d="M227.3,478c0,0,0.2,0,0.5,0C227.6,478,227.3,478,227.3,478z"/>
		<path d="M240.8,492.3c0,0,0-0.2,0-0.5C240.8,492.1,240.8,492.3,240.8,492.3z"/>
		<path d="M240.8,463.7c0,0,0,0.2,0,0.5C240.8,463.8,240.8,463.7,240.8,463.7z"/>
		<path d="M253.8,478c-2,0-9-0.2-10.8-2.2c-2-2.2-2.2-9.7-2.2-11.7c0,2-0.2,9.4-2.2,11.7c-1.8,2-8.8,2.2-10.8,2.2
			c2,0,9,0.2,10.8,2.2c2,2.2,2.2,9.7,2.2,11.7c0-2,0.2-9.4,2.2-11.7C244.8,478.2,251.8,478,253.8,478z"/>
		<path d="M254.3,478c0,0-0.2,0-0.5,0C254.1,478,254.3,478,254.3,478z"/>
		<path d="M109.1,581.8c0,0,0,0.3,0,0.8C109.1,582,109.1,581.8,109.1,581.8z"/>
		<path d="M88.1,604c0,0,0.3,0,0.9,0C88.4,604,88.1,604,88.1,604z"/>
		<path d="M112.5,600.6c-3.1-3.4-3.4-15-3.4-18.1c0,3.1-0.3,14.7-3.4,18.1C103,603.7,92.1,604,89,604c3.1,0,14,0.3,16.8,3.4
			c3.1,3.4,3.4,15,3.4,18.1c0-3.1,0.3-14.7,3.4-18.1c2.8-3.1,13.7-3.4,16.8-3.4C126.2,604,115.3,603.7,112.5,600.6z"/>
		<path d="M109.1,626.3c0,0,0-0.3,0-0.8C109.1,626,109.1,626.3,109.1,626.3z"/>
		<path d="M130.1,604c0,0-0.3,0-0.9,0C129.8,604,130.1,604,130.1,604z"/>
		<path d="M140.9,303.8c0,0-0.2,0-0.4,0C140.7,303.8,140.9,303.8,140.9,303.8z"/>
		<path d="M130.1,292.4c0,0,0,0.1,0,0.4C130.1,292.6,130.1,292.4,130.1,292.4z"/>
		<path d="M131.9,302.1c-1.6-1.8-1.7-7.7-1.7-9.2c0,1.5-0.1,7.5-1.7,9.2c-1.4,1.6-7,1.7-8.5,1.7c1.6,0,7.1,0.2,8.5,1.7
			c1.6,1.8,1.7,7.7,1.7,9.2c0-1.5,0.1-7.5,1.7-9.2c1.4-1.6,7-1.7,8.5-1.7C138.8,303.8,133.3,303.6,131.9,302.1z"/>
		<path d="M119.4,303.8c0,0,0.2,0,0.4,0C119.6,303.8,119.4,303.8,119.4,303.8z"/>
		<path d="M130.1,315.1c0,0,0-0.1,0-0.4C130.1,315,130.1,315.1,130.1,315.1z"/>
		<path d="M138.1,258.1c0,0-0.5,0-1.3,0C137.6,258.1,138.1,258.1,138.1,258.1z"/>
		<path d="M109.1,287.7c0-4.3,0.4-20.2,4.7-24.9c3.8-4.2,18.4-4.6,22.9-4.7c-4.5,0-19.2-0.5-22.9-4.7c-4.3-4.7-4.6-20.7-4.7-24.9
			c0,4.3-0.4,20.2-4.7,24.9c-3.8,4.2-18.4,4.6-22.9,4.7c4.5,0,19.2,0.5,22.9,4.7C108.7,267.5,109.1,283.4,109.1,287.7z"/>
		<path d="M80.2,258.1c0,0,0.5,0,1.3,0C80.7,258.1,80.2,258.1,80.2,258.1z"/>
		<path d="M109.1,288.8c0,0,0-0.4,0-1.1C109.1,288.4,109.1,288.8,109.1,288.8z"/>
		<path d="M109.1,227.4c0,0,0,0.4,0,1.1C109.1,227.8,109.1,227.4,109.1,227.4z"/>
		<path d="M351.7,341.1c0,0,0,0.2,0,0.6C351.7,341.3,351.7,341.1,351.7,341.1z"/>
		<path d="M368.5,358.8c0,0-0.3,0-0.7,0C368.2,358.8,368.5,358.8,368.5,358.8z"/>
		<path d="M335,358.8c0,0,0.3,0,0.7,0C335.3,358.8,335,358.8,335,358.8z"/>
		<path d="M367.8,358.8c-2.5,0-11.1-0.2-13.4-2.7c-2.5-2.7-2.7-12-2.7-14.5c0,2.4-0.2,11.7-2.7,14.5c-2.2,2.5-10.9,2.7-13.4,2.7
			c2.5,0,11.1,0.2,13.4,2.7c2.5,2.7,2.7,12,2.7,14.5c0-2.4,0.2-11.7,2.7-14.5C356.7,359.1,365.3,358.9,367.8,358.8z"/>
		<path d="M351.7,376.6c0,0,0-0.2,0-0.6C351.7,376.4,351.7,376.6,351.7,376.6z"/>
		<path d="M350.4,404.6c0,0,0.7,0,1.9,0C351,404.6,350.4,404.6,350.4,404.6z"/>
		<path d="M391.3,448c0,0,0-0.6,0-1.5C391.3,447.4,391.3,448,391.3,448z"/>
		<path d="M391.3,361.2c0,0,0,0.6,0,1.5C391.3,361.7,391.3,361.2,391.3,361.2z"/>
		<path d="M430.3,404.6c1.2,0,1.9,0,1.9,0S431.5,404.6,430.3,404.6z"/>
		<path d="M391.3,362.7c0,6-0.6,28.6-6.6,35.3c-5.3,5.9-26.1,6.6-32.4,6.6c6.4,0.1,27.1,0.7,32.4,6.6c6,6.7,6.6,29.2,6.6,35.3
			c0-6,0.6-28.6,6.6-35.3c5.3-5.9,26.1-6.6,32.4-6.6c-6.4-0.1-27.1-0.7-32.4-6.6C391.9,391.3,391.3,368.8,391.3,362.7z"/>
		<path d="M364.9,123.6c0,0,0,0.4,0,1C364.9,124,364.9,123.6,364.9,123.6z"/>
		<path d="M391.7,152c0,0-0.4,0-1.2,0C391.3,152,391.7,152,391.7,152z"/>
		<path d="M339.4,152c-0.8,0-1.2,0-1.2,0S338.6,152,339.4,152z"/>
		<path d="M364.9,179.4c0-4,0.4-18.7,4.3-23.1c3.5-3.9,17.1-4.3,21.2-4.3c-4.2,0-17.7-0.5-21.2-4.3c-3.9-4.4-4.3-19.1-4.3-23.1
			c0,4-0.4,18.7-4.3,23.1c-3.5,3.9-17.1,4.3-21.2,4.3c4.2,0,17.7,0.5,21.2,4.3C364.6,160.7,364.9,175.5,364.9,179.4z"/>
		<path d="M364.9,180.4c0,0,0-0.4,0-1C364.9,180,364.9,180.4,364.9,180.4z"/>
		<path d="M345.4,711.7c7.7-9.2,15-18.7,21.4-28.9c5.8-9.2,11.9-19.6,12.7-30.7c0-0.5-0.3-1.1-0.7-1.3c-11-6.6-27.9-13-32.7-26
			c-4.3-11.9-6.3-25.4-6.1-38.1c0.1-13,3.3-25,7.4-37.3c3.6-10.7,5.4-21.7,4.2-33c-1.1-10.1-4.3-19.7-6.5-29.5
			c-2.5-11.7-2.7-23.8-6.8-35.1c0-10.5-2-21.1-3.1-31.6c-0.6-6.3-1.7-14.9-6-19.9c-2.7-3.2-5.1-2.5-6.1,1.3
			c-1.9,6.9-1.2,14.4-2.1,21.6c-8.7-12-18.5-23.2-22.6-19.1c-4.2,4.3,1.9,17.4,3.8,21.6c2.4,5.3,5.3,10.3,8.2,15.3
			c2.9,5.1,4.7,10.7,6.3,16.4c-0.3-0.3-0.7-0.6-1-0.9c-7.3-7.4-15.2-14.7-21.8-22.6c-2.8-3.3-6.9-9.3-11.4-10.6
			c-4.4-1.2-4.7,3.5-4.6,6.9c0.4,7.7,5.5,14,9.5,20.2c4.9,7.7,10.1,14.8,15.9,21.9c5,6.2,10.8,13.3,13.4,21.2
			c-6.3-8.4-13.5-16.4-20.1-24.6c-5.3-6.7-12.4-15.1-20.6-18.5c-5.3-2.2-5.6,2.6-4.5,6.7c2.1,7.7,6.3,15,10.2,22.1
			c-0.2,5.8-0.2,11.3-2.3,16.8c-2.1,5.5-4,11-5.8,16.6c-3.4,10.5-6.9,20.8-10.6,31.2c-6.9,19.8-8.8,41.6-1,61.4
			c4.2,10.8,9.9,21,14.2,31.8c3,7.5,5.7,15.7,10.9,22c8,9.6,17.7,18,26.8,26.5c9.5,8.8,19,17.9,29.2,26
			C343.8,712.1,344.8,712.4,345.4,711.7z M324.9,410.5c0.1-0.9,0.2-8.2,1-8.5c2-0.5,3.9,7,4.1,7.8c1.7,5.9,2.2,11.8,2.8,17.9
			c0.6,5.7,1.5,11.3,2,17c-2.2-3.7-6.5-10.8-11.5-18C324.4,421.4,324.5,416,324.9,410.5z M320.8,460.8c-1.7-5.7-3.2-11.8-5.7-17.2
			c-2.5-5.4-6-10.2-8.7-15.5c-2.5-5-4.6-10-5.6-15.5c-0.2-0.9-1.4-5.3-0.2-6.2c0.7-0.5,7.7,6.4,8.5,7.3c5.3,5.3,9.5,11.7,13.9,17.8
			c5.6,8,11.2,16.3,13.9,25.8c2.4,8.5,3.5,17.2,4.9,26c-1.9-3.3-4-6.5-6.2-9.5c-3.9-5.3-9.6-8.8-14.7-12.8
			C320.8,460.9,320.8,460.9,320.8,460.8z M293,661c-4.1-4.3-6.8-8.5-9.4-14c-4.7-10.3-8.7-20.8-13.5-31.1
			c-5.3-11.1-10.1-22.5-10.1-34.9c0.1-11.6,1.3-23.1,5.2-34.1c4.1-11.5,8-22.9,11.7-34.5c1.8-5.5,3.8-10.9,5.8-16.4
			c1.4-3.8,1.7-7.7,1.9-11.6c2.7,5.1,5.5,10.2,8.5,15.1c0.4,0.6,0.7,1.2,1.1,1.8c-0.1,0.3-0.2,0.5-0.1,0.9c2,14.1-4.2,26.7-5,40.5
			c-5.5,2-11.1,3.7-14.9,8.9c-1.1,1.5,1.4,3.1,2.5,1.5c3.3-4.6,8.5-6.3,13.7-8.1c0.4,0,0.9-0.1,1.2-0.4c2-0.7,3.9-1.5,5.7-2.5
			c-1,3.1-2.1,6.1-2.9,9.2c-2.8,11-6.2,22.3-7.7,33.5c-0.8,6.1-2.6,15.9,1,21.5c1,1.6,3.7,0.2,2.6-1.4c-3.1-4.7-1.4-14-0.8-19.3
			c1.1-8.5,3.7-16.9,5.7-25.3c3.7-16,13.8-33.7,7.1-50.1c-3.7-9.1-10-17.2-14.6-25.9c-1-1.8-2-3.7-3-5.6c-0.1-0.4-0.2-0.7-0.5-0.9
			c-3.5-6.3-7-12.8-9.3-19.6c-0.5-1.4-1.7-4.1,0.8-4.4c1-0.1,3.4,2.4,4.3,3c4.4,3.2,8.2,6.8,11.7,11c6.1,7.1,11.4,14.7,17.6,21.8
			c3,3.4,6.4,7.2,8.8,11.3c0.1,0.2,0.2,0.4,0.4,0.6c0.8,1.5,1.6,3.1,2,4.8c1.6,5.3,0.4,11.1,1.4,16.5c2.1,12,6.3,23.4,6.5,35.8
			c0,1.9,3,2,3,0.1c-0.2-11.4-3.3-22.4-5.9-33.4c-1.3-5.5-0.7-10.9-1.4-16.5c-0.4-3.1-1.6-6-3.1-8.7c-1-13.7-11.7-24.7-19.9-34.9
			c-5.4-6.8-9.9-14.2-14.6-21.5c-2.1-3.2-4.1-6.2-5.1-10c-0.5-1.8-1.6-6.9,0.4-7.1c1.1-0.1,2.8,2,3.6,2.7
			c11.1,10.3,20.2,23,31.7,32.9c5.7,4.9,12.4,8.4,16.8,14.7c3.4,4.9,6.6,10.1,9.2,15.4c0.1,0.1,0.1,0.2,0.2,0.3
			c0.4,2.2,0.9,4.3,1.5,6.5c3.2,12.5,5.3,24.7,2.8,37.5c-2.6,13.5-8.5,25.9-10.1,39.6c-1.5,13.1-0.3,26.4,2.7,39.2
			c1.3,5.5,2.5,11.5,5.9,16.2c3.3,4.7,8.2,8.1,13,11.2c3.8,2.4,7.7,4.6,11.6,6.9c1.1,0.7,3.5,1.6,4.2,2.5c1.7,2,1.2,2.9,0.6,5.4
			c-1.6,6.5-4.8,12.6-8.1,18.3c-6.7,11.6-14.8,22.5-23.4,32.7C326.2,694,308.8,677.8,293,661z M298.8,537.4c-2,1.8-4.3,3-6.7,4
			c0.7-7.3,3.2-14.1,4.4-21.2c0.7-4.3,1-8.9,0.8-13.4c1.7,3.1,3.2,6.4,3.9,9.9C302.7,523.7,301,530.6,298.8,537.4z"/>
		<path d="M246.9,413c4.7,0,8.6-2.9,8.6-12s-8.6-71.3-8.6-71.3s-8.6,62.2-8.6,71.3S242.1,413,246.9,413z"/>
		<path d="M229.6,278.2c19.1,0.9,38.2,1.8,57.3,2.7c-7.3,8.6-14.5,17.2-21.8,25.9c-1,1.2,0.3,3.4,1.8,2.4
			c9.2-6.6,18.5-13.2,27.7-19.7c1.4,19.2,2.7,38.5,4.1,57.7c0.1,1.9,2.9,2,3,0c1.3-19,2.6-38,3.9-57.1c8.2,7.2,16.4,14.4,24.6,21.6
			c1.2,1.1,3.4-0.3,2.4-1.8c-6.4-9.7-12.8-19.4-19.2-29.1c20-2.7,39.9-5.4,59.9-8.1c1.8-0.2,1.2-2.9-0.4-3
			c-19.3-0.9-38.5-1.8-57.8-2.7c5.8-9.6,11.6-19.3,17.5-28.9c0.9-1.5-1.1-3-2.4-1.8c-7.9,7.3-15.8,14.5-23.7,21.8
			c-1.7-19.1-3.4-38.2-5.1-57.2c-0.2-1.9-2.9-2-3,0c-0.9,19.1-1.8,38.2-2.7,57.3c-8.6-7.3-17.2-14.5-25.9-21.8
			c-1.2-1-3.4,0.3-2.4,1.8c6.4,9.7,12.8,19.4,19.2,29.1c-19.2,2.7-38.4,5.4-57.6,8.1C227.5,275.5,228,278.2,229.6,278.2z
			 M298.7,261.1c0.6-12.6,1.2-25.3,1.8-37.9c1.1,12.6,2.2,25.3,3.4,37.9c0.1,1.3,1.6,2,2.6,1.1c6.1-5.6,12.2-11.1,18.2-16.7
			c-4.4,7.4-8.9,14.7-13.3,22.1c-0.6,1,0.2,2.2,1.3,2.3c14.6,0.7,29.1,1.3,43.7,2c-15.3,2.1-30.5,4.1-45.8,6.2c-0.7,0.1-1,0.5-1.1,1
			c-0.2,0.4-0.1,0.8,0.1,1.3c4.8,7.3,9.6,14.5,14.3,21.8c-6.2-5.4-12.3-10.8-18.5-16.2c-1-0.9-2.5-0.3-2.6,1.1
			c-0.9,12.9-1.8,25.7-2.6,38.6c-0.9-13-1.9-25.9-2.8-38.9c-0.1-1-1.3-2-2.3-1.3c-6.7,4.8-13.5,9.6-20.2,14.4
			c5.4-6.4,10.7-12.7,16.1-19.1c0.8-1,0.3-2.5-1.1-2.6c-14.7-0.7-29.5-1.4-44.2-2c14.6-2.1,29.3-4.1,43.9-6.2c1-0.1,1.4-1.5,0.9-2.2
			c-4.9-7.5-9.8-15-14.8-22.4c6.7,5.7,13.5,11.4,20.2,17.1C297.2,263.1,298.7,262.5,298.7,261.1z"/>
		<path d="M208.1,197.5c-0.8-0.6-1.6-1.1-2.5-1.7c-0.2-4-0.6-11.2-4.3-14.1c6.9-8.5,4.5-21.5-4.5-26.3c10.1-3.2,17.3-12.7,17.3-23.8
			c0-2.4-0.3-4.7-1-6.8c-2.9,10.5-12.5,18.2-24,18.2c-11.4,0-21.1-7.6-24.1-18.1c-0.6,2.2-0.9,4.5-0.9,6.8
			c0,11.1,7.3,20.5,17.3,23.7c-9,4.8-11.5,17.7-4.6,26.3c-3.7,2.9-4.1,10.1-4.3,14.1c-0.9,0.5-1.7,1.1-2.5,1.7
			c-2.9,2.1-3.2,4.7-2.7,8.5c0.4,3.1,1.6,3.1,4.4,3.4c1,0.1,2.1,0.1,3.1,0.2c0,0.1-0.1,0.2-0.1,0.4c-0.1,54-0.7,108-0.6,162.1
			c-0.3,0-0.7,0-1,0c-0.7,0-1.5,0.7-1.4,1.4c0.3,3.5,0.8,8.5,3.4,11.4c-0.1,0.2-0.2,0.4-0.2,0.7c-0.1,24.3-0.7,48.5-0.7,72.8
			c-1.7,2.6-2.2,6.4-2.5,9.3c-0.1,0.7,0.3,1.1,0.8,1.3c0.2,0.1,0.4,0.1,0.6,0.1c0.5,0,1.1,0,1.6,0c0,58.2,0.6,116.3,0.6,174.5
			c-0.2,0-0.4,0-0.5,0c-0.8,0-1.4,0.7-1.4,1.4c0,5.9,0,11.8,0,17.7c-1.2,0-2.4,0-3.6,0c-0.8,0-1.4,0.6-1.4,1.4c0,4.2,0,8.5,0,12.7
			c0,0.8,0.6,1.4,1.4,1.4c0.5,0,1.1,0,1.6,0c0.3,4.7,1.1,12.7,6.1,14.5c1.2,0.4,2.5,0.5,3.9,0.6c-2.8,5.6,0.6,12.9,7.6,12.9
			c7,0,10.4-7.4,7.6-12.9c1.4,0,2.7-0.2,3.9-0.6c5.1-1.8,5.8-9.8,6.1-14.5c0.5,0,1.1,0,1.6,0c0.8,0,1.4-0.6,1.4-1.4
			c0-4.2,0-8.5,0-12.7c0-0.4-0.1-0.7-0.3-0.9c0,0,0-0.1-0.1-0.1c0,0-0.1,0-0.1-0.1c-0.2-0.2-0.5-0.4-0.9-0.4c-1.2,0-2.4,0-3.6,0
			c0-5.9,0-11.8,0-17.7c0-0.4-0.1-0.7-0.3-0.9c0,0,0-0.1-0.1-0.1c0,0-0.1,0-0.1-0.1c-0.2-0.2-0.5-0.4-0.9-0.4c-0.1,0-0.3,0-0.4,0
			c0-58.2,0.6-116.3,0.6-174.5c0.5,0,1,0,1.4,0c0.7,0,1.5-0.7,1.4-1.4c-0.2-2.8-0.8-6.4-2.4-9c0,0,0-0.1,0-0.1
			c0-24.3-0.6-48.6-0.7-72.9c0-0.4-0.1-0.6-0.3-0.8c2.5-2.9,3-7.9,3.3-11.3c0.1-0.7-0.3-1.1-0.8-1.3c-0.2-0.1-0.4-0.1-0.6-0.1
			c-0.3,0-0.7,0-1,0c0-54.2-0.6-108.5-0.6-162.7c0.1,0,0.2,0,0.3,0c2.2-0.2,5.2,0,6.7-1.9C212.7,204.1,210.8,199.5,208.1,197.5z
			 M187.2,156.5c0.6,0,1.3,0.1,1.9,0.1c0.6,0,1.2-0.1,1.7-0.1c11.4,1.4,15.3,15.7,7.7,24c-2.9-0.6-6.8,0.1-9.5,0.1
			c-2.8,0-6.6-0.7-9.6-0.1c0-0.1-0.1-0.1-0.2-0.2C172,172,176,157.9,187.2,156.5z M180.6,183.5c2.5-0.6,5.9,0,8.5,0
			c2.6,0,5.6-0.4,8.2,0c4.4,0.7,5.2,6.4,5.5,10.6c-4.3-2.2-9-3.8-13.6-4c-4.6,0.2-9.4,1.8-13.6,4C175.7,190,176.5,184.4,180.6,183.5
			z M189.1,703.2c-5.4,0-7.6-6.4-4.2-10.1c0,0,0-0.1,0.1-0.1c1.5-0.1,2.9-0.2,4.1-0.2c1.2,0,2.6,0.1,4.1,0.2
			C196.6,696.7,194.5,703.2,189.1,703.2z M198.2,689.9c-2.8,0.6-6.3,0-9.2,0c-2.8,0-6.1,0.5-8.9,0c-5-0.9-5.6-7.3-5.9-11.9
			c9.9,0,19.7,0,29.6,0C203.6,682.4,203,688.9,198.2,689.9z M206.9,665.3c0,1.6,0,3.3,0,4.9h-35.7c0-1.6,0-3.3,0-4.9
			C183.1,665.3,195,665.3,206.9,665.3z M178.1,619.1c-0.2-48.5-0.5-97-0.5-145.5h23.2c0,48.5-0.4,97.1-0.6,145.6c0,0,0,0,0,0
			C197.6,628.5,180.7,628.1,178.1,619.1z M200.2,624.8c0,4.7,0,9.4,0,14.1h-22c0-4.8,0-9.6,0-14.4
			C183.6,630.1,194.7,630.3,200.2,624.8z M201.9,646.2c0,5.2,0,10.4,0,15.6c-8.6,0-17.1,0-25.7,0c0-5.2,0-10.4,0-15.6
			C184.8,646.2,193.3,646.2,201.9,646.2z M203.4,466.1c-9.6,0-19.2,0-28.8,0c0.5-4.3,1.9-7.7,6.6-8.2c2.5-0.3,5.3,0,7.8,0
			c2.6,0,5.3-0.3,7.8,0C201.6,458.4,202.9,461.8,203.4,466.1z M177,455.6c0-23,0.5-46.1,0.6-69.1c0.3,0.1,0.6,0.2,0.9,0.3
			c3.2,0.7,7.2,0.1,10.5,0.1c3.3,0,7.2,0.6,10.5-0.1c0.4-0.1,0.8-0.2,1.1-0.3c0,23.1,0.6,46.1,0.6,69.2c-0.5-0.3-1.1-0.5-1.7-0.6
			c-3.3-0.6-7.1-0.1-10.5-0.1c-3.3,0-7.2-0.6-10.5,0.1C178,455.2,177.5,455.4,177,455.6z M203.5,374.7c-0.5,4.5-1.6,8.7-6.6,9.3
			c-2.5,0.3-5.3,0-7.8,0c-2.5,0-5.3,0.3-7.8,0c-5-0.6-6.1-4.7-6.6-9.3C184.2,374.7,193.9,374.7,203.5,374.7z M200.6,234
			C200.6,234,200.6,234,200.6,234c0.2,44.5,0.5,89,0.6,133.4H177c0-44.5,0.4-89.1,0.6-133.6C180.2,223,197.9,223.6,200.6,234z
			 M177.5,227.8c0-4.5,0-9,0-13.5h23c0,4.6,0,9.2,0,13.8C194.9,221.7,183.2,221.4,177.5,227.8z M206.9,206c-1.9,1.1-6.7,0.5-8.9,0.6
			c-3.9,0.1-7.8,0.2-11.7,0.2c-2.7,0-15.1,1.1-16.3-0.7c-0.2-0.2,0.2-4.9,0.5-5.5c-0.1,0.2,0.7-0.5,1.9-1.3c5-3.3,10.7-6.1,16.7-6.4
			c5.9,0.3,11.3,2.9,16.2,6.1C207.6,200.5,210,204.2,206.9,206z"/>
		<path d="M186.4,251.2c1.2,1.3,1.7,6.3,2.5,6.3c0.8,0,1.5-5.1,2.7-6.2c1.2-1.1,4.6-1.6,4.7-2.3c0-0.7-3.5-1.4-4.6-2.5
			c-1.1-1.1-1.7-6.3-2.5-6.3c-0.8,0-1.4,5-2.7,6.2c-1.3,1.3-4.6,1.4-4.7,2.3C181.8,249.6,185.2,250,186.4,251.2z"/>
		<path d="M186.4,273.1c1.2,1.3,1.7,6.3,2.5,6.3c0.8,0,1.5-5.1,2.7-6.2c1.2-1.1,4.6-1.6,4.7-2.3c0-0.7-3.5-1.4-4.6-2.5
			c-1.1-1.1-1.7-6.3-2.5-6.3c-0.8,0-1.4,5-2.7,6.2c-1.3,1.3-4.6,1.4-4.7,2.3C181.8,271.4,185.2,271.8,186.4,273.1z"/>
		<path d="M191.7,577.7c-1.1-1.1-1.7-6.3-2.5-6.3c-0.8,0-1.4,5-2.7,6.2c-1.3,1.3-4.6,1.4-4.7,2.3c0,0.8,3.3,1.2,4.6,2.5
			c1.2,1.3,1.7,6.3,2.5,6.3c0.8,0,1.5-5.1,2.7-6.2c1.2-1.1,4.6-1.6,4.7-2.3C196.3,579.5,192.7,578.8,191.7,577.7z"/>
		<path d="M191.7,599.5c-1.1-1.1-1.7-6.3-2.5-6.3c-0.8,0-1.4,5-2.7,6.2c-1.3,1.3-4.6,1.4-4.7,2.3c0,0.8,3.3,1.2,4.6,2.5
			c1.2,1.3,1.7,6.3,2.5,6.3c0.8,0,1.5-5.1,2.7-6.2c1.2-1.1,4.6-1.6,4.7-2.3C196.3,601.3,192.7,600.6,191.7,599.5z"/>
		<path d="M189.1,439.5c2.3,0,4.1-1.3,4.1-5.3c0-4-4.1-31.7-4.1-31.7s-4.1,27.7-4.1,31.7C184.9,438.2,186.8,439.5,189.1,439.5z"/>
		<polygon points="183.2,175.2 187.5,172.3 189.1,180.1 190.6,172.3 194.9,175.2 192,170.9 199.9,169.3 192,167.8 194.9,163.5 
			190.6,166.4 189.1,158.5 187.5,166.4 183.2,163.5 186.1,167.8 178.3,169.3 186.1,170.9 		"/>
	</g>
</g>
</svg>
