<?xml version="1.0" encoding="utf-8"?>
<!-- Generator: Adobe Illustrator 21.1.0, SVG Export Plug-In . SVG Version: 6.00 Build 0)  -->
<svg version="1.1" xmlns="http://www.w3.org/2000/svg" xmlns:xlink="http://www.w3.org/1999/xlink" x="0px" y="0px"
	 viewBox="0 0 504 864" style="enable-background:new 0 0 504 864;" xml:space="preserve">
<g id="Слой_1">
</g>
<g id="Слой_2">
	<g>
		<path d="M503.8,18.2c-1.6-17.9-18.7-16.3-31.6-16.3c-45.9,0-91.8,0-137.6,0c-63.2,0-126.3,0-189.5,0c-40.6,0-81.2,0-121.8,0
			c-2.6,0-5.3-0.2-8,0.2c-9.5,1.2-15,9.2-15.2,18.2c-0.2,7.3,0,14.5,0,21.8c0,37.4,0,74.9,0,112.3c0,57,0,114.1,0,171.1
			c0,64.3,0,128.6,0,192.9c0,58.4,0,116.7,0,175.1c0,40.1,0,80.2,0,120.3c0,9.1,0,18.2,0,27.3c0,11.7,6.7,20.5,19.2,20.7
			c35.9,0.6,71.9,0,107.9,0c62.4,0,124.9,0,187.3,0c49.7,0,99.5,0,149.2,0c7.6,0,15.2,0,22.9,0c0.4,0,0.8-0.1,1.2-0.2
			c14.4-1.8,16.1-13.8,16.1-25.5c0-11.4,0-22.8,0-34.3c0-43.4,0-86.9,0-130.3c0-59.9,0-119.8,0-179.8c0-63.9,0-127.7,0-191.6
			c0-55.3,0-110.6,0-165.9c0-33.7,0-67.3,0-101C503.9,28.3,504.2,23.2,503.8,18.2z M486.6,852.8c-28.3,0-56.6,0-84.9,0
			c-59.9,0-119.8,0-179.7,0c-54,0-108,0-162,0c-13.1,0-26.1,0-39.2,0c-5.6,0-11-1.3-11.7-8.3c-0.2-1.5,0-3,0-4.5c0-26.5,0-53,0-79.5
			c0-50,0-100,0-149.9c0-61.8,0-123.6,0-185.4c0-61.4,0-122.7,0-184.1c0-48.9,0-97.7,0-146.6c0-24.2-0.8-48.6,0-72.7
			c0.2-5.3,1.6-10.1,8.3-10.8c2.2-0.2,4.5,0,6.7,0c14.8,0,29.6,0,44.5,0c55.6,0,111.3,0,166.9,0c58.9,0,117.8,0,176.7,0
			c18.9,0,37.9,0,56.8,0c8.1,0,24.7-3.1,25.9,8.4c0.5,5.2,0,10.8,0,16.1c0,13.5,0,27.1,0,40.6c0,45.5,0,91.1,0,136.6
			c0,60.1,0,120.2,0,180.3c0,62.6,0,125.1,0,187.7c0,52.8,0,105.6,0,158.4c0,31.4,0,62.7,0,94.1C494.8,840.3,496.9,852,486.6,852.8z
			"/>
		<path d="M460,790.9c1.2,0.1,2.4-0.7,2.4-2.2c0-23.7,0-47.4,0-71.1c0-56.4,0-112.8,0-169.2c0-68.7,0-137.4,0-206
			c0-59,0-117.9,0-176.9c0-19.6,0-39.2,0-58.8c0-8.9,1.3-19,0-27.9c-0.1-0.4,0-0.8,0-1.2c0-0.8-0.3-1.3-0.8-1.7
			c0.1-1.2-0.6-2.5-2.2-2.6c-13.1-0.5-25.3-13.8-25.8-26.7c0-0.5-0.2-0.8-0.4-1.1c-0.3-0.6-1-1.1-1.9-1.1c-40.5,0-80.9,0-121.4,0
			c-64.5,0-129,0-193.6,0c-14.9,0-29.7,0-44.6,0c-0.9,0-1.6,0.5-1.9,1.1c-0.2,0.3-0.3,0.7-0.4,1.2C69.1,59.5,57,72.8,43.9,73.3
			c-1.8,0.1-2.5,1.9-2,3.2c-0.2,0.3-0.2,0.6-0.2,1c0,23.7,0,47.4,0,71.1c0,56.4,0,112.8,0,169.2c0,68.7,0,137.4,0,206
			c0,59,0,117.9,0,176.9c0,19.6,0,39.2,0,58.8c0,8.9-1.3,19,0,27.9c0.1,0.4,0,0.8,0,1.2c0,0.9,0.5,1.6,1.1,1.9
			c0.3,0.2,0.7,0.3,1.2,0.4c13,0.5,25.3,13.3,25.8,26.2c0,0.5,0.2,0.8,0.4,1.1c0.3,0.6,1,1.1,1.9,1.1c40.5,0,80.9,0,121.4,0
			c64.5,0,129,0,193.6,0c14.9,0,29.7,0,44.6,0c0.9,0,1.6-0.5,1.9-1.1c0.2-0.3,0.3-0.7,0.4-1.2c0.5-12.9,12.7-25.7,25.8-26.2
			C459.6,791,459.8,790.9,460,790.9z M429.3,814.9c-39.8,0-79.6,0-119.3,0c-64.5,0-129,0-193.6,0c-14.2,0-28.3,0-42.5,0
			c-1.7-13.9-13.9-26.5-27.8-28.3c0-23,0-46,0-69.1c0-56.4,0-112.8,0-169.2c0-68.7,0-137.4,0-206c0-59,0-117.9,0-176.9
			c0-19.6,0-39.2,0-58.8c0-8.9,1.3-19,0-27.9c-0.1-0.4,0-0.8,0-1.2c14-1.8,26.1-14.9,27.8-28.7c39.8,0,79.5,0,119.3,0
			c64.5,0,129,0,193.6,0c14.2,0,28.3,0,42.5,0c1.7,14.1,14.3,27.4,28.5,28.8c0,23.7,0,47.3,0,71c0,56.4,0,112.8,0,169.2
			c0,68.7,0,137.4,0,206c0,59,0,117.9,0,176.9c0,19.6,0,39.2,0,58.8c0,8.6-1.2,18.4-0.1,27C443.6,788.1,431.1,800.9,429.3,814.9z"/>
		<path d="M134.2,797.9c-0.1,0-0.1,0.1-0.1,0.2c0,0.1,0,0.2,0.1,0.2c0.1,0,0.1-0.1,0.1-0.2C134.3,797.9,134.2,797.9,134.2,797.9z"/>
		<path d="M132.9,798.8c-0.1,0.1-0.1,0.2,0,0.4c0.1,0.1,0.2,0.1,0.3,0.1c0.3-0.1,0.3-0.3,0.1-0.5C133.1,798.6,133,798.6,132.9,798.8
			z"/>
		<path d="M134.2,796.7c-0.1,0-0.1,0.1-0.1,0.2c0,0.1,0,0.2,0.1,0.2c0.1,0,0.1-0.1,0.1-0.2C134.3,796.8,134.2,796.7,134.2,796.7z"/>
		<path d="M145.1,786.2l0.1,0.4l0-0.1c0,0,0-0.1,0.1-0.1c0,0,0.1-0.1,0.1-0.1c0-0.1,0.1-0.1,0.1-0.2c0.2-0.3,0.2-0.4,0-0.4
			C145.2,785.7,145.1,785.8,145.1,786.2z"/>
		<path d="M146.3,793.4c-0.8-0.1-1.3-0.2-1.5-0.2c-0.1-0.1-0.2-0.2-0.2-0.4c0-0.2,0-0.3-0.1-0.4c-0.1-0.1-0.2-0.1-0.4-0.1
			c-0.3-0.1-0.5-0.2-0.5-0.3s-0.1-0.2-0.3-0.2c-0.2,0-0.3-0.1-0.3-0.2c0-0.1-0.1-0.3-0.3-0.5c-0.2-0.2-0.4-0.4-0.5-0.4
			c-0.1,0-0.2,0-0.2-0.1c0-0.1-0.1-0.2-0.3-0.2c-0.2,0-0.3-0.1-0.3-0.2c0-0.2-0.1-0.3-0.2-0.5c-0.2-0.2-0.3-0.2-0.5-0.2
			c-0.2,0-0.2-0.1-0.2-0.2c0-0.1,0-0.2,0-0.3c0-0.1,0-0.2,0-0.3c0-0.1,0.1-0.2,0.3-0.3c0.3-0.1,0.4-0.2,0.4-0.4
			c0-0.2,0.1-0.3,0.2-0.3c0.1,0,0.3-0.1,0.5-0.4c0.2-0.3,0.4-0.5,0.5-0.5c0.2-0.1,0.2-0.1,0.2-0.3c-0.1-0.1,0-0.2,0.3-0.4
			c0.2-0.1,0.4-0.3,0.4-0.5c0-0.2,0.1-0.3,0.3-0.3c0.2,0,0.3-0.1,0.3-0.4c0-0.3,0.1-0.4,0.2-0.4c0.2,0,0.4-0.1,0.5-0.4
			c0.2-0.2,0.5-0.3,0.9-0.4c0.4-0.1,0.6-0.2,0.8-0.3c0.1-0.1,0.2-0.2,0.4-0.2c0.2,0,0.3-0.1,0.3-0.2c0-0.1,0.1-0.3,0.2-0.4
			c0.1,0,0.1-0.1,0.1-0.1c0,0-0.1,0-0.4-0.1c-0.4,0-0.5-0.1-0.5-0.2c0-0.2-0.3-0.3-0.8-0.3c-0.5,0-0.8,0.1-0.9,0.3
			c-0.1,0.1-0.3,0.2-0.6,0.2c-0.3,0-0.4,0-0.5-0.1c-0.1-0.1-0.6-0.2-1.8-0.2l-1.7-0.1l-0.1,0.5c0,0.1-0.1,0.2-0.1,0.3
			c0,0.1,0.1,0.2,0.2,0.3c0.1,0.1,0.4,0.1,0.7,0.1c0.3,0,0.5,0.1,0.6,0.1c0.1,0,0.1,0.1,0.1,0.2v0.1c0,0.3-0.1,0.4-0.2,0.5
			c-0.1,0.1-0.1,0.2-0.1,0.4c0.1,0.1,0,0.3-0.3,0.4c-0.2,0.1-0.4,0.3-0.4,0.5c0,0.3-0.1,0.4-0.3,0.5c-0.2,0.1-0.4,0.3-0.4,0.6
			c-0.1,0.3-0.3,0.5-0.5,0.5c-0.3,0.1-0.5,0.2-0.6,0.4c-0.2,0.2-0.3,0.3-0.4,0.3c-0.1,0-0.1-0.1-0.1-0.4c0-0.2,0-0.5,0.1-0.9
			c0-0.5,0.1-0.8,0.1-0.9c0-0.2,0-0.3,0-0.3c-0.1-0.3,0-0.5,0.2-0.6c0.2-0.1,0.3-0.3,0.2-0.6c0-0.2,0-0.3,0-0.3c0,0,0.1-0.1,0.3-0.1
			c0.2,0,0.4-0.1,0.5-0.3c0.1-0.2,0.1-0.4,0.1-0.8c0-0.2,0-0.3-0.1-0.3c-0.1-0.1-0.7-0.1-1.9-0.1c-1.4-0.1-2.1-0.2-2.1-0.4
			c0-0.1-0.1-0.1-0.2-0.1c-0.1,0-0.2,0-0.2,0.1c0,0.1-0.1,0.2-0.1,0.3c0,0.2,0,0.3,0,0.3c0,0.2-0.1,0.3-0.3,0.4
			c-0.2,0-0.3,0.2-0.2,0.5c0.1,0.3,0.1,0.4,0.2,0.5c0.1,0.1,0.2,0.1,0.3,0.1c0.2,0,0.3,0,0.4,0c0.1,0,0.2,0,0.4,0
			c0.3,0,0.5,0.1,0.6,0.4c0.1,0.2,0.1,0.8,0.1,1.5c0,0.9-0.1,1.4-0.2,1.5c-0.1,0.1-0.1,0.2,0,0.4c0.1,0.2,0.1,0.5,0,0.7
			c-0.1,0.2-0.2,0.3-0.3,0.3c-0.1,0-0.1,0.1,0,0.2c0.1,0.1,0.1,0.3,0.1,0.7c0,0.6-0.1,1.5-0.2,2.9l-0.1,1h-0.6
			c-0.4,0-0.6,0.1-0.7,0.3c-0.1,0.2-0.2,0.3-0.3,0.3c-0.2,0-0.2,0.1-0.2,0.4c0,0.3,0.1,0.5,0.3,0.6c0.2,0.1,0.3,0.3,0.3,0.4
			c0,0.1,0.1,0.2,0.3,0.2c0.2,0,0.5,0,0.8-0.1c0.3-0.1,0.5-0.2,0.6-0.2c0.1-0.1,0.7-0.2,1.6-0.2s1.4,0,1.5-0.1s0-0.3,0-0.6
			c0-0.3-0.1-0.4-0.1-0.5c0-0.1-0.1-0.1-0.3-0.1c-0.2,0-0.4,0-0.4-0.1c0-0.1-0.1-0.1-0.2-0.1c-0.3,0-0.4-0.3-0.4-0.9
			c0-0.2,0-0.3,0-0.4c0-0.4,0.1-0.8,0.1-1.2V790c0-0.1,0-0.2,0-0.3c0-0.1,0-0.2,0-0.3c0-0.4,0-0.6,0.1-0.6h0.1
			c0.2,0,0.4,0.1,0.8,0.3c0.4,0.2,0.6,0.4,0.7,0.6c0.2,0.2,0.3,0.4,0.4,0.4c0.1,0,0.2,0.1,0.3,0.3c0.1,0.2,0.2,0.4,0.2,0.5
			c0,0.1,0.1,0.2,0.4,0.5c0.3,0.2,0.4,0.4,0.4,0.6c0,0.1,0.1,0.2,0.3,0.2c0.2,0,0.3,0.1,0.3,0.4c0,0.2,0.1,0.4,0.3,0.4
			c0.3,0,0.3,0.2,0,0.6c-0.2,0.2-0.4,0.2-0.6,0.1c-0.2-0.1-0.3-0.1-0.5,0c-0.1,0.1-0.3,0.2-0.5,0.2c-0.2,0-0.3,0-0.3,0.1
			c0,0.1,0,0.2,0.1,0.2c0.1,0,0.1,0.1,0.1,0.2s0.1,0.2,0.2,0.3c0.2,0.1,0.3,0.1,0.5,0.1c0,0,0,0,0.1,0c0,0,0,0,0.1,0
			c0.2-0.1,0.3,0,0.3,0.1c0,0.1,0.1,0.1,0.2,0c0.1-0.1,0.2-0.2,0.5-0.2c0.2,0,0.8,0,1.8,0c1.4,0,2.2,0.1,2.4,0.2
			c0.2,0.1,0.3,0.2,0.4,0.2c0.2,0,0.2-0.2,0.2-0.5c0-0.4-0.1-0.6-0.2-0.7C147,793.5,146.8,793.5,146.3,793.4z M142,782.9
			C142,782.9,142,782.9,142,782.9L142,782.9c0.1,0.2,0.1,0.3,0,0.3c0,0,0,0,0-0.1C142,783,142,783,142,782.9z M141.7,785.4
			c0.1,0,0.1,0,0.1,0c0.1,0,0.1,0,0,0.1c-0.1,0.1-0.2,0.1-0.3,0L141.7,785.4z M141.2,786.1c0.1,0,0.1,0.1,0.1,0.2
			c0,0.1,0,0.2-0.1,0.2c-0.1,0-0.1-0.1-0.1-0.2C141.1,786.2,141.2,786.1,141.2,786.1z"/>
		<path d="M134.3,792.2c0.1-0.2,0.1-0.3-0.1-0.3c-0.1,0-0.2,0.1-0.2,0.2c0,0.1,0,0.2,0.1,0.2C134.2,792.3,134.3,792.3,134.3,792.2z"
			/>
		<path d="M167.3,782c-0.1,0-0.2,0-0.3,0.1c-0.2,0.1-0.3,0.1-0.3,0.1c-0.1,0-0.1-0.1-0.2-0.2c-0.1-0.2-0.3-0.3-0.4-0.3
			c-0.1,0-0.2-0.1-0.2-0.3c0-0.2-0.1-0.3-0.3-0.3c-0.2,0-0.3,0.1-0.3,0.3c0,0.2,0.1,0.3,0.2,0.3c0.1,0,0.2,0.1,0.2,0.3
			c0,0.2-0.1,0.3-0.2,0.3c-0.2,0-0.3-0.1-0.3-0.4c-0.1-0.2-0.2-0.4-0.3-0.4c-0.1,0-0.1,0-0.2,0.1c-0.2,0.2-0.2,0.3,0,0.3
			c0.1,0,0.2,0.1,0.2,0.1c0,0.1-0.1,0.2-0.4,0.2c-0.2,0-0.4,0-0.4-0.1s-0.1-0.1-0.4-0.1c-0.4,0-0.8,0.1-1.1,0.2
			c-0.4,0.2-0.6,0.4-0.6,0.7c0,0.3,0.3,0.5,0.8,0.6c0.4,0.1,0.6,0.1,0.6,0.2c0,0.1,0.1,0.1,0.3,0.1c0.3,0,0.5,0.2,0.6,0.6
			c0.1,0.4,0.2,1.2,0.2,2.4c0,1.4,0.1,2.2,0.1,2.4c0.1,0.1,0,0.3,0,0.6l-0.1,0.4l-0.5-0.5c-0.4-0.3-0.5-0.5-0.5-0.6
			c0-0.1-0.1-0.2-0.2-0.3c-0.1-0.1-0.3-0.2-0.4-0.4c-0.2-0.1-0.3-0.2-0.3-0.2c-0.1-0.1-0.3-0.2-0.3-0.2c-0.1,0-0.2-0.1-0.2-0.2
			c0-0.1-0.1-0.2-0.2-0.3c-0.1-0.1-0.3-0.2-0.4-0.2s-0.1-0.1-0.1-0.2c0-0.1-0.1-0.2-0.2-0.2c-0.1,0-0.1,0-0.1-0.1
			c0-0.1-0.1-0.2-0.4-0.5c-0.2-0.3-0.4-0.4-0.4-0.5c0-0.1-0.1-0.2-0.3-0.2c-0.2,0-0.3-0.1-0.5-0.2c-0.2-0.1-0.2-0.3-0.2-0.4
			c0-0.1-0.2-0.3-0.5-0.7c-0.3-0.4-0.5-0.6-0.5-0.7c0-0.1-0.1-0.2-0.3-0.4c-0.2-0.2-0.3-0.4-0.3-0.4c0-0.3-0.6-0.5-1.8-0.6
			c-0.6,0-0.9-0.1-0.9-0.1c-0.3,0-0.4,0.1-0.4,0.2c0,0.1,0,0.2,0,0.4c0,0.2,0,0.4,0.1,0.6c0.1,0.2,0.1,0.3,0.2,0.3
			c0.1,0,0.2,0.2,0.3,0.6c0.1,0.4,0.2,0.6,0.2,0.6c0.1,0,0.1,0.3,0.1,0.8c0,0.5,0,0.8-0.1,0.8c-0.1,0-0.1,0.1-0.1,0.4
			c0,0.2,0.1,0.6,0.2,1c0.1,0.2,0.1,0.6,0.1,1.1c0,0.7-0.1,1.1-0.2,1.1c-0.1,0-0.1,0.2-0.1,0.7c0,0.5,0,1.1-0.1,1.5
			c0,0.4-0.1,0.6-0.1,0.7c-0.1,0.1-0.2,0.2-0.4,0.2c-0.3,0.1-0.4,0.2-0.4,0.4c0,0.2,0.1,0.4,0.4,0.6c0.2,0.2,0.3,0.3,0.5,0.3
			c0.2,0,0.8,0,1.7,0c1,0,1.6,0,1.8-0.1c0.2-0.1,0.3-0.3,0.3-0.8c0-0.3-0.1-0.4-0.3-0.5c-0.2-0.1-0.3-0.1-0.3-0.2
			c0-0.1-0.2-0.1-0.6-0.1c-0.4,0-0.7-0.1-0.9-0.3c-0.2-0.2-0.2-0.3-0.1-0.4c0.1-0.1,0.2-0.2,0.2-0.6c0-0.3,0-0.5-0.1-0.5
			c-0.1-0.1-0.1-0.9-0.1-2.6c0-1.7,0.1-2.5,0.2-2.5c0.1,0,0.3,0.1,0.4,0.2c0.1,0.1,0.3,0.2,0.5,0.3c0.3,0.1,0.4,0.3,0.5,0.4
			c0,0.2,0.3,0.5,0.8,1.1c0.5,0.5,0.9,0.9,1.3,1.1c0.2,0.1,0.3,0.2,0.3,0.3c0,0.1,0.2,0.2,0.5,0.6c0.7,0.7,1.1,1.1,1.1,1.4
			c0,0.1,0.1,0.1,0.3,0.1c0.2,0,0.3,0,0.3,0.1c0,0.1,0.1,0.3,0.4,0.5c0.2,0.2,0.4,0.4,0.4,0.6c0,0.1,0.1,0.3,0.3,0.5
			c0.2,0.2,0.3,0.3,0.4,0.3c0.1,0,0.3,0.2,0.6,0.5c0.3,0.3,0.5,0.5,0.7,0.6c0.1,0.1,0.2,0.1,0.3,0.1c0.4,0,0.6-0.2,0.6-0.6
			c0-0.1,0-0.2,0-0.4c0-0.9-0.1-1.4-0.2-1.6c-0.1-0.1-0.1-0.5-0.1-1.3v-0.4c0-1,0-1.6-0.1-1.6c-0.1-0.1-0.2-0.4-0.2-1
			c0-0.5,0-0.8,0.1-0.8c0.1-0.1,0.2-0.2,0.2-0.5c0-0.3,0-0.4,0.1-0.4c0.1,0,0.1-0.1,0.1-0.4c0-0.3,0-0.4-0.1-0.4
			c-0.1,0-0.1-0.1-0.1-0.4c0-0.4,0.1-0.7,0.2-1c0.2-0.3,0.4-0.5,0.7-0.5c0.2,0,0.4-0.1,0.4-0.1s0.1-0.2,0.1-0.5v-0.2
			C167.7,782.3,167.6,782,167.3,782z"/>
		<path d="M180.5,782c-0.1-0.1-0.7-0.1-1.8-0.1c-1,0-1.5,0-1.5,0.1c0,0.1-0.2,0.1-0.5,0.1c-0.3,0-0.5,0.1-0.5,0.2
			c0,0.1,0,0.2-0.1,0.2c-0.1,0-0.1,0.1-0.1,0.3c0,0.3,0.1,0.4,0.2,0.5c0.1,0.1,0.2,0.5,0.2,1.3c0,0.8,0,1.2,0.1,1.3
			c0.1,0,0.1,0.4,0.1,1.1c0,0.7,0,1-0.1,1.1c-0.1,0-0.2,0.8-0.2,2.2c0,1.2-0.1,2-0.2,2.2c-0.1,0.2-0.4,0.4-0.9,0.5
			c-0.3,0-0.5,0.1-0.5,0.1c-0.1,0.1-0.1,0.2-0.1,0.4c0,0.3,0.1,0.5,0.2,0.5c0.2,0,0.3,0.1,0.5,0.2c0.2,0.2,0.3,0.2,0.3,0.1
			c0.1-0.1,0.8-0.2,2.1-0.2c1.1,0,1.6,0.1,1.6,0.2c0,0.1,0.1,0.1,0.3,0.1c0.2,0,0.3,0,0.3-0.1c0-0.1,0.1-0.2,0.3-0.3
			c0.2-0.1,0.3-0.2,0.3-0.3c0-0.5-0.4-0.7-1-0.8l-0.6-0.1l0.1-3.5c0-2.3,0.1-3.5,0.2-3.6c0.1-0.1,0.1-0.4,0.1-1
			c0.1-1.1,0.2-1.6,0.4-1.6c0.1,0,0.2,0,0.2-0.1c0-0.1,0.1-0.2,0.4-0.2c0.2,0,0.4-0.1,0.5-0.2c0.1-0.1,0.2-0.2,0.2-0.4
			C180.8,782.3,180.7,782.1,180.5,782z M177.1,790.9c-0.1,0-0.2,0-0.2-0.1s0.1-0.1,0.2-0.1c0.1,0,0.2,0,0.2,0.1
			S177.2,790.9,177.1,790.9z M177.9,787.1c-0.1,0-0.2-0.1-0.2-0.3c0-0.2,0.1-0.3,0.2-0.3c0.1,0,0.2,0.1,0.2,0.3
			C178.1,787,178.1,787.1,177.9,787.1z"/>
		<path d="M197.1,790.1c-0.3,0-0.5,0-0.6,0c-0.7,0-1.1,0-1.3,0.1c-0.2,0.1-0.4,0.2-0.4,0.3c0,0.1-0.1,0.2-0.1,0.3
			c0,0.2,0.1,0.3,0.3,0.4c0.2,0.1,0.5,0.2,0.9,0.2c0.7,0.1,1,0.2,1,0.3c0,0-0.1,0.2-0.2,0.5c-0.1,0.3-0.3,0.5-0.5,0.5
			c-0.2,0-0.4,0.1-0.6,0.4c-0.1,0.2-0.2,0.3-0.3,0.3c0,0-0.1,0-0.1-0.1c0-0.1-0.1-0.1-0.1-0.1c-0.1,0-0.2,0-0.3,0.1
			c-0.1,0.1-0.4,0.2-0.8,0.2c-0.3,0-0.5,0-0.7,0c-0.6,0-1.1-0.1-1.2-0.2c-0.2-0.1-0.3-0.3-0.3-0.6c0-0.2-0.1-0.4-0.3-0.5
			c-0.2-0.1-0.3-0.2-0.3-0.4s0-0.2-0.1-0.2c-0.3,0-0.5-0.5-0.7-1.4c-0.1-0.7-0.2-1-0.3-1c-0.1,0-0.1-0.1-0.1-0.2s0-0.2,0.1-0.3
			c0.2,0,0.3-0.7,0.3-1.9c0-0.2,0.1-0.2,0.3-0.2c0.2,0,0.3-0.1,0.3-0.2c0-0.1,0-0.2-0.2-0.4c-0.1-0.1-0.1-0.2,0-0.2
			c0.2,0,0.4-0.1,0.6-0.2c0.2-0.1,0.4-0.3,0.4-0.4c0-0.1,0.1-0.3,0.3-0.4c0.2-0.1,0.4-0.2,0.7-0.2c0.2,0,0.3-0.1,0.3-0.2
			c0-0.1,0.2-0.2,0.7-0.2c0.1,0,0.2,0,0.4,0c0.5,0,0.9,0.2,1.1,0.5c0.1,0.2,0.4,0.3,0.6,0.4c0.2,0.1,0.4,0.2,0.4,0.3v0.2
			c0,0.1,0,0.2,0.1,0.3c0.1,0.1,0.2,0.2,0.3,0.5c0.1,0.2,0.1,0.3,0.2,0.4c0.1,0.1,0.2,0.1,0.5,0.1c0.2,0,0.3,0.1,0.4,0.1
			c0.1,0,0.2-0.1,0.3-0.4c0.1-0.2,0.1-0.5,0.1-0.9c0-0.3,0-0.5,0.1-0.5c0.1,0,0.1-0.1,0.1-0.2c0-0.3-0.1-0.6-0.2-0.9
			c-0.1-0.1-0.1-0.2-0.2-0.3c-0.1,0-0.4,0-0.8,0c-0.6,0-1,0-1.1-0.1c-0.1-0.1-0.8-0.2-2.1-0.2c-0.6,0-0.9,0-1.1,0.1
			c-0.7,0.1-1.1,0.2-1.2,0.3c-0.2,0.1-0.7,0.5-1.6,1.3c-0.8,0.8-1.2,1.2-1.2,1.3c0,0.1-0.1,0.2-0.2,0.4c-0.1,0.2-0.2,0.4-0.2,0.6
			c0,0.3,0,0.4-0.1,0.5c-0.1,0.1-0.2,0.2-0.2,0.3c0,0.2-0.1,0.3-0.2,0.4c-0.1,0.1-0.2,0.6-0.2,1.4c0,1,0.1,1.5,0.2,1.6
			c0.1,0,0.1,0.1,0.1,0.2c0,0.1,0,0.2-0.1,0.2c-0.1,0,0,0.2,0.2,0.4c0.3,0.2,0.4,0.4,0.5,0.4c0.1,0,0.1,0.1,0.2,0.3
			c0.1,0.2,0.2,0.4,0.6,0.7c0.3,0.3,0.6,0.5,0.8,0.6c0.2,0.1,0.2,0.1,0.2,0.2c0,0.1,0.3,0.2,1,0.3c0.6,0.1,1.3,0.1,2.1,0.1
			c1,0,1.6-0.1,1.8-0.3c0.1-0.1,0.3-0.2,0.6-0.3c0.4-0.1,0.6-0.2,0.7-0.2c0,0,0.1,0,0.1,0c0,0-0.1,0.2-0.2,0.5
			c-0.1,0.3-0.2,0.5-0.2,0.5c0,0.2,0.2,0.3,0.6,0.3c0.2,0,0.4,0,0.6,0c1-0.1,1.5-0.2,1.5-0.4c0-0.1-0.1-0.3-0.4-0.5
			c-0.2-0.1-0.3-0.3-0.3-0.4c0-0.2-0.1-0.6-0.1-1.2l-0.1-1.3l0.5,0.1c0.3,0,0.5,0,0.6-0.2c0.1-0.2,0.3-0.3,0.6-0.3
			c0.3,0,0.4-0.1,0.4-0.1c0-0.1,0.1-0.2,0.1-0.5v-0.6l-2.4-0.1C197.6,790.1,197.4,790.1,197.1,790.1z"/>
		<path d="M220.6,782.6c-0.2-0.1-0.5-0.1-0.8-0.1c-0.1,0-0.2,0-0.5,0.1c-0.3,0.1-0.5,0.1-0.7,0.1h-0.1h-0.2c-0.2,0-0.5,0-1,0.1
			c-0.4,0-0.7,0.1-0.8,0.1c-0.1,0-0.2,0.1-0.2,0.2c0,0.2,0,0.3-0.1,0.3c-0.1,0-0.1,0-0.1,0.1c0,0.1,0,0.2,0,0.3
			c0,0.1,0.1,0.2,0.2,0.2c0.1,0.1,0.2,0.5,0.2,1.3c0,0.8,0.1,1.2,0.2,1.2c0.1,0,0.1,0.3,0.1,0.8v0.8h-1.3c-0.8,0-1.7,0-2.7-0.1
			l-1.4-0.1v-0.7c0-0.5,0-0.7,0.1-0.7c0.1,0,0.1-0.3,0.2-0.9c0-1.1,0.1-1.6,0.4-1.6c0.1,0,0.2,0,0.2-0.1c0-0.1,0.1-0.2,0.4-0.2
			c0.2,0,0.4-0.1,0.5-0.2c0.1-0.1,0.2-0.2,0.2-0.4c0-0.2-0.1-0.3-0.2-0.4c-0.2-0.1-0.5-0.2-1-0.2c-0.3,0-0.4,0-0.5,0.1
			c0,0-0.5,0.1-1.3,0.1c-0.9,0.1-1.7,0.2-2.4,0.5c-0.1,0-0.2,0.1-0.2,0.2c0,0.1,0.2,0.2,0.6,0.4l0.6,0.3l0,0.8v0.9v0.3
			c0,0.2,0,0.4,0.1,0.4c0.1,0.1,0.2,0.5,0.2,1.1c0,0.6-0.1,1.1-0.2,1.4c-0.1,0.3-0.2,0.6-0.2,0.8c0,0,0,0,0,0.1c0,0,0,0.1,0,0.1
			c0,0.2,0.1,0.4,0.1,0.6c0,0.5,0,1.1-0.1,1.8c-0.1,0.6-0.2,1-0.2,1.2c-0.1,0.2-0.4,0.3-0.8,0.3c-0.3,0-0.5,0.1-0.6,0.1
			c-0.1,0.1-0.1,0.2-0.1,0.4v0.5l0.7-0.1c0.3-0.1,1-0.1,2.2-0.1h0.7h0.7c1,0,1.6,0,1.6-0.1c0-0.1-0.1-0.3-0.2-0.5
			c-0.2-0.2-0.3-0.3-0.4-0.3h-0.1c-0.2,0.1-0.4,0.1-0.6-0.1c-0.1-0.1-0.2-0.1-0.3-0.2c0-0.1-0.1-0.2-0.1-0.4c0-0.3,0-0.5,0-0.8
			c0-0.9,0.1-1.6,0.1-2.1v-0.8h4.9l0.1,0.4c0,0.2,0.1,0.5,0.1,0.7c0,0.5,0,1.1-0.1,1.7c-0.1,0.6-0.2,1-0.3,1
			c-0.1,0.1-0.4,0.2-0.8,0.3c-0.3,0-0.5,0.1-0.5,0.1c-0.1,0.1-0.1,0.2-0.1,0.4c0,0.3,0.1,0.5,0.3,0.5c0.3,0.1,1.3,0.1,3.1,0.1
			c1.3,0,2,0,2.1-0.1c0.2-0.1,0.3-0.2,0.3-0.4c0-0.2-0.1-0.3-0.2-0.5c-0.1-0.2-0.3-0.2-0.4-0.2c0,0-0.1,0-0.1,0
			c-0.1,0.1-0.3,0.1-0.5,0l-0.4-0.1l0.1-3.5c0-2.3,0.1-3.5,0.2-3.6c0.1,0,0.1-0.3,0.1-0.9c0.1-1.1,0.2-1.6,0.4-1.6
			c0.1,0,0.2,0,0.2-0.1c0-0.1,0.1-0.2,0.4-0.2c0.2,0,0.4-0.1,0.5-0.2c0.2-0.1,0.2-0.3,0.2-0.4C220.9,782.8,220.8,782.7,220.6,782.6z
			 M209.7,791.5c-0.2-0.1-0.3-0.1-0.3-0.2c0-0.1,0-0.1,0.1-0.1c0.2,0,0.3,0.1,0.4,0.2c0,0,0,0,0,0.1
			C210,791.6,209.9,791.6,209.7,791.5z M210.4,791.5c-0.1,0-0.1-0.1-0.1-0.2c0-0.1,0-0.2,0.1-0.2c0.1,0,0.2,0.1,0.2,0.2
			C210.6,791.4,210.5,791.5,210.4,791.5z M210.4,787.8c-0.1,0-0.2-0.1-0.2-0.3c0-0.3,0.1-0.4,0.2-0.4c0.2,0,0.2,0.1,0.2,0.3
			C210.6,787.7,210.5,787.8,210.4,787.8z M217.5,791.5c-0.1,0.1-0.2,0.1-0.4,0c-0.2-0.1-0.3-0.1-0.3-0.2c0-0.1,0.1-0.1,0.2-0.1
			c0.3,0,0.5,0.1,0.5,0.2C217.6,791.5,217.6,791.5,217.5,791.5z M217.9,791.5c-0.1,0-0.2-0.1-0.2-0.2c0-0.1,0.1-0.2,0.2-0.2
			c0.1,0,0.1,0.1,0.1,0.2C218.1,791.4,218,791.5,217.9,791.5z M217.9,787.8c-0.1,0-0.2-0.1-0.2-0.3c0-0.3,0.1-0.4,0.2-0.4
			c0.1,0,0.2,0.1,0.2,0.3C218.1,787.7,218,787.8,217.9,787.8z"/>
		<path d="M239.6,785.3c0.1,0,0.2-0.2,0.2-0.5c0-0.2,0-0.4-0.1-0.4c-0.1,0-0.1-0.1-0.1-0.3c0-0.2,0.1-0.4,0.2-0.6
			c0.1-0.3,0.1-0.5-0.2-0.6c-0.2-0.2-0.5-0.3-0.9-0.3c-0.5,0-0.8,0.1-1.1,0.4c-0.3,0.2-0.4,0.3-0.5,0.2c-0.1-0.1-0.4-0.1-0.8,0
			c-0.5,0.1-1.4,0.2-2.6,0.2c-0.9,0-1.4,0-1.5-0.1c-0.1-0.1-0.2,0-0.4,0.2c-0.1,0.1-0.3,0.2-0.4,0.2c-0.2,0-0.4,0-0.7-0.1
			c-0.7-0.2-1.1-0.2-1.3-0.2c-0.1,0-0.2,0-0.2,0c-0.1,0-0.3,0.1-0.4,0.3c-0.1,0.2-0.2,0.4-0.2,0.5c0,0.1,0,0.1,0.1,0.2
			c0,0,0.1,0.2,0.1,0.5c0,0.1,0,0.2-0.1,0.3c-0.1,0-0.2,0.1-0.3,0.1c-0.3,0-0.5,0.1-0.5,0.3c0,0,0,0.1,0.1,0.2
			c0.1,0.1,0.1,0.3,0.1,0.6c0,0.3-0.1,0.4-0.1,0.5c0,0.5,0.2,0.8,0.6,0.8c0.3,0,0.4-0.1,0.4-0.2c0-0.1,0.1-0.2,0.2-0.2
			c0.1,0,0.1,0,0.2-0.1c0,0,0-0.1,0-0.2c0-0.1-0.1-0.2-0.2-0.2c-0.1-0.1-0.1-0.1-0.1-0.2c0,0,0-0.1,0-0.1c0,0,0-0.1,0.1-0.1
			c0,0,0.1,0,0.2-0.1c0.2-0.1,0.2-0.2,0.2-0.3c0,0,0-0.1,0-0.2c0-0.1,0-0.1,0-0.2c0-0.1,0-0.2,0.1-0.2c0.1-0.1,0.1-0.3,0-0.6
			c-0.1-0.3-0.1-0.4,0-0.4c0.1,0,0.1,0.1,0.1,0.2c0,0.1,0.2,0.2,0.5,0.4c0.4,0.1,0.7,0.2,1.1,0.2c0.4,0,0.7,0.1,0.8,0.3
			c0.2,0.2,0.3,0.2,0.5,0.2c0.1,0,0.1,0,0.1,0c0.1,0,0.1,0,0,0.1c-0.3,0.3-0.4,2.2-0.5,5.8c0,0.8-0.1,1.2-0.3,1.4
			c-0.2,0.1-0.3,0.3-0.3,0.4c0,0.1-0.3,0.2-0.8,0.2l-0.7,0.1l-0.1,0.5c0,0,0,0.1,0,0.1c0,0,0,0.1,0,0.1c0,0.2,0.1,0.4,0.4,0.7
			c0.3,0.3,0.5,0.4,0.7,0.4c0.1,0,0.1,0,0.1-0.1s0-0.1-0.1-0.1c-0.1,0-0.1,0-0.1-0.1c0-0.1,0.2-0.1,0.5-0.1c0.1,0,0.4,0,0.8,0
			c0.4,0,0.7,0,0.9,0c0.6,0,0.9-0.1,1.1-0.2c0.1-0.1,0.3-0.2,0.6-0.1c0.2,0.1,0.3,0,0.4-0.1c0.1-0.1,0.2-0.1,0.3-0.1
			c0.1,0,0.3-0.1,0.5-0.2c0.1-0.1,0.2-0.2,0.2-0.3c0-0.1-0.1-0.2-0.2-0.5c-0.2-0.3-0.3-0.4-0.5-0.4c-0.1,0-0.2-0.1-0.2-0.2
			c0-0.1-0.1-0.2-0.3-0.1c0,0-0.1,0-0.1,0c-0.1,0-0.1,0-0.1,0c-0.1,0-0.2,0-0.3-0.1c0-0.1-0.1-0.3-0.1-0.5v-0.4c0-0.5,0-0.8,0-0.9
			c0-0.1,0.1-0.2,0.2-0.2c0.2,0,0.2-0.1,0.2-0.4c0-0.3-0.1-0.5-0.2-0.5c-0.1,0-0.2-0.4-0.2-1.1c0-0.8,0.1-1.2,0.2-1.4
			c0.1-0.1,0.2-0.5,0.2-1.2c0-0.7,0.1-1,0.1-1.1c0.1-0.2,0.5-0.2,1.2-0.2c1,0,1.5,0.1,1.6,0.4c0,0.1,0.1,0.2,0.4,0.5
			c0.2,0.2,0.3,0.4,0.3,0.8c0,0.3,0.1,0.5,0.1,0.5c0,0.1,0.2,0.1,0.4,0.1c0.2,0,0.4,0,0.4-0.1c0-0.1,0.1-0.2,0.3-0.2
			c0.2-0.1,0.3-0.2,0.3-0.4c0-0.2-0.1-0.4-0.2-0.5C239.5,785.4,239.5,785.3,239.6,785.3z"/>
		<path d="M271.2,785.7c-0.2-0.1-0.2-0.2-0.2-0.5c0-0.3,0-0.5-0.1-0.5c-0.1,0-0.1-0.1-0.1-0.4s-0.1-0.4-0.2-0.4
			c-0.1,0-0.2-0.1-0.3-0.3s-0.2-0.3-0.3-0.4c-0.1-0.1-0.2-0.2-0.2-0.4c0-0.2-0.1-0.3-0.4-0.3c-0.7,0-1-0.1-1-0.4
			c0-0.1-0.1-0.2-0.2-0.2c-0.1,0-0.2,0-0.2-0.1c0-0.1-0.1-0.1-0.3-0.1c-0.2,0-0.3-0.1-0.4-0.2c0-0.1-0.5-0.2-1.5-0.2
			c-0.9,0-1.5,0.1-1.6,0.2c-0.1,0.1-0.2,0.2-0.4,0.2c-0.2,0-0.3,0.1-0.4,0.3c-0.1,0.2-0.3,0.4-0.6,0.4c-0.3,0-0.6,0.1-1.1,0.2
			c-0.5,0.1-0.7,0.3-0.8,0.5c0,0.2-0.2,0.4-0.5,0.7c-0.3,0.3-0.4,0.5-0.4,0.5c0,0.1-0.1,0.1-0.2,0.1c-0.1,0-0.2,0.1-0.3,0.4
			c-0.1,0.2-0.2,0.5-0.3,0.7c-0.2,0.3-0.2,0.8-0.2,1.8c0,1.2,0.1,2.1,0.4,2.9c0.5,1.4,0.9,2.2,1.2,2.3c0.2,0,0.3,0.1,0.3,0.3
			c0,0.2,0.2,0.2,0.4,0.2c0.2,0,0.4,0,0.4,0.1c0,0.1,0.1,0.1,0.3,0.1c0.2,0,0.3,0.1,0.3,0.4c0,0.2,0,0.3,0.1,0.4
			c0.1,0.1,0.2,0,0.4-0.1c0.1-0.1,0.2-0.1,0.3,0c0.2,0.1,0.9,0.2,2.2,0.2c1.1,0,1.7-0.1,1.7-0.2c0-0.1,0.3-0.2,0.7-0.2
			c0.4,0,0.6-0.1,0.6-0.2c0-0.2,0.1-0.3,0.2-0.3c0,0,0.2-0.1,0.4-0.3c0.3-0.2,0.4-0.3,0.5-0.3c0.1,0,0.2-0.1,0.2-0.3
			c0.1-0.2,0.2-0.3,0.3-0.3c0.1,0,0.2-0.1,0.3-0.3c0-0.2,0.2-0.3,0.4-0.3c0.2-0.1,0.3-0.1,0.3-0.2c0-0.1,0.1-0.1,0.2-0.1
			c0.1,0,0.2-0.2,0.2-0.6c0-0.3,0-0.5-0.1-0.5c-0.1,0-0.1-0.1,0-0.2c0.1-0.1,0.2-0.8,0.2-2.1c0-0.3,0-0.7,0-1.1
			C271.5,786,271.4,785.7,271.2,785.7z M269.1,788.8c-0.1,0-0.2,0.2-0.2,0.4c0,0.3-0.1,0.4-0.2,0.5c-0.1,0.1-0.2,0.4-0.3,0.8
			c-0.1,0.4-0.1,0.6-0.3,0.6c-0.1,0-0.2,0-0.2,0.1c0,0.1-0.1,0.2-0.4,0.2c-0.3,0.1-0.4,0.2-0.4,0.3c0,0.1,0,0.2-0.1,0.2
			c-0.1,0.1-0.2,0.1-0.4,0.2c-0.1,0.1-0.2,0.1-0.3,0.1c0,0.1-0.2,0.1-0.4,0.1c-0.2,0-0.3,0.1-0.5,0.2c-0.1,0.1-0.2,0.1-0.4,0.1
			c-0.2,0-0.4,0-0.7-0.1c-0.5-0.1-1-0.3-1.3-0.6c-0.3-0.3-0.7-0.8-1-1.5c-0.3-0.5-0.4-0.9-0.5-1.1c0-0.2-0.1-0.7-0.1-1.4
			c0-0.7,0-1.1,0.1-1.4c0-0.2,0.1-0.5,0.3-0.8c0.3-0.5,0.6-0.9,1-1.3c0.4-0.4,0.8-0.6,1-0.7c0.3,0,0.5-0.1,0.5-0.3
			c0-0.1,0.1-0.2,0.2-0.2c0.1,0,0.2,0,0.2-0.1c0-0.1,0.1-0.1,0.3-0.1c0.2,0,0.3,0,0.3,0.1c0,0.1,0.3,0.1,0.9,0.1
			c0.5,0,0.8,0.1,0.8,0.2c0,0.1,0.1,0.2,0.3,0.3c0.2,0.1,0.3,0.2,0.3,0.3c0,0.1,0.1,0.2,0.3,0.3c0.3,0.1,0.5,0.4,0.5,0.8
			c0,0.2,0.1,0.5,0.3,0.8c0.2,0.3,0.3,0.7,0.3,1.1c0,0.5,0,0.7,0.1,0.8c0.1,0.1,0.1,0.2,0.1,0.4
			C269.2,788.6,269.2,788.7,269.1,788.8z"/>
		<path d="M289,783.9c0-0.3-0.1-0.5-0.2-0.6c-0.1-0.1-0.1-0.2,0-0.4c0.1-0.1,0.1-0.2,0.1-0.2c0-0.1-0.1-0.2-0.2-0.2
			s-0.2-0.2-0.2-0.3c0-0.2-0.1-0.3-0.3-0.5c-0.2-0.2-0.4-0.3-0.5-0.3c-0.1,0-0.2,0-0.2,0.1c0,0.1-0.3,0.1-0.9,0.2
			c-0.5,0.1-1.1,0.1-1.7,0.1c-0.6,0-0.9,0-1,0.1c-0.1,0-0.5,0.1-1.4,0.1c-0.9,0.1-1.8,0.2-2.7,0.3c-0.9,0.1-1.4,0.2-1.4,0.2
			c0,0,0,0.1,0,0.2c0,0.1,0,0.2,0.1,0.3c0.1,0.2,0.1,0.3,0.2,0.4c0.1,0,0.3,0.1,0.6,0.1c0.5,0,0.9,0.1,1,0.3
			c0.1,0.2,0.2,0.7,0.2,1.6c0,0.9-0.1,1.4-0.2,1.5c-0.1,0.1-0.1,0.2,0,0.4c0.1,0.3,0.2,0.5,0,0.7c-0.1,0.2-0.2,0.3-0.3,0.3
			c-0.1,0,0,0.1,0.1,0.2c0.1,0.1,0.1,0.3,0.1,0.6c0,0.1,0,0.4-0.1,0.8c-0.1,1.4-0.2,2.3-0.2,2.6c-0.1,0.4-0.1,0.5-0.3,0.6
			c-0.2,0.1-0.5,0.3-0.8,0.6l-0.5,0.6h5v-0.5c0-0.2,0-0.4-0.1-0.4c0-0.1-0.1-0.1-0.3-0.1c-0.2,0-0.4,0-0.4-0.1s-0.1-0.1-0.2-0.1
			c-0.1,0-0.2-0.1-0.3-0.3c0-0.1,0-0.4,0-1.2c0-1.2,0-2.1,0.1-2.8c0-0.1,0.5-0.1,1.4-0.1c0.8,0,1.3,0.1,1.5,0.2
			c0.3,0.1,0.4,0.4,0.4,0.9c0,0.3,0,0.5,0.1,0.5c0.1,0,0.1-0.1,0.3-0.2c0.1-0.1,0.3-0.2,0.5-0.1c0.2,0.1,0.3,0,0.3-0.2
			c0-0.2,0-0.3,0.1-0.4c0.1-0.1,0.1-0.2,0-0.2c-0.1-0.1-0.2-0.3-0.2-0.6c0-0.4,0.1-0.7,0.2-0.8c0.1-0.1,0.1-0.1,0.1-0.2
			c0-0.1,0-0.1-0.1-0.2c-0.1-0.1-0.1-0.2-0.1-0.2c0-0.1,0-0.1,0.1-0.2c0.2-0.1,0.2-0.2,0.2-0.4c0-0.3-0.4-0.4-1.1-0.4
			c-0.4,0-0.6,0.2-0.6,0.5c0,0.1,0,0.2,0.1,0.3c0.1,0.2,0,0.4,0,0.5c-0.1,0.1-0.4,0.2-1,0.3c-0.6,0.1-1.1,0.2-1.6,0.2h-0.5v-0.6
			c0-0.4,0.1-0.6,0.2-0.7c0.1-0.1,0.2-0.2,0.2-0.4c0-0.3-0.1-0.5-0.2-0.8c-0.1-0.2-0.2-0.4-0.2-0.4c0-0.1,0.1-0.1,0.2-0.3
			c0.2-0.2,0.3-0.4,0.2-0.6c0-0.1,0-0.1,0-0.2c0-0.1,0.1-0.2,0.4-0.3c0.3-0.1,0.8-0.1,1.6-0.1c0.7,0,1.1-0.1,1.1-0.1
			c0.3,0,0.5,0.1,0.7,0.2c0.2,0.2,0.3,0.3,0.5,0.4c0.2,0.1,0.3,0.2,0.3,0.3c0,0.1,0.1,0.3,0.3,0.4c0.2,0.1,0.4,0.3,0.5,0.6
			c0.1,0.4,0.4,0.5,0.8,0.5c0.1,0,0.2,0,0.3-0.1c0.1-0.1,0.2-0.2,0.2-0.6c0-0.3-0.1-0.5-0.2-0.5C289.1,784.4,289,784.2,289,783.9z"
			/>
		<path d="M318.8,782.2h-1c-0.5,0-0.9,0-1.1-0.1c-0.2-0.1-0.3-0.3-0.3-0.5c0-0.1,0-0.2-0.1-0.2c-0.1,0-0.2,0-0.2,0.1
			c-0.1,0.1-0.3,0.2-0.7,0.2c-0.2,0-0.2,0-0.2-0.1c0-0.1-0.2-0.1-0.7-0.1c-0.5,0-0.8,0.1-0.8,0.2c-0.1,0.1-0.2,0.2-0.4,0.2
			c-0.2,0-0.3,0-0.4,0c-0.1,0-0.1,0-0.2,0c-0.1,0-0.2,0-0.2,0c-0.3,0-0.5,0.1-0.8,0.4c-0.3,0.3-0.5,0.5-0.7,0.5
			c-0.2,0.1-0.4,0.2-0.5,0.5c-0.1,0.3-0.3,0.4-0.6,0.4c-0.5,0.1-0.7,0.4-0.8,1c0,0.2-0.1,0.4-0.2,0.6c-0.1,0.2-0.2,0.5-0.2,0.6
			c0,0.3-0.1,0.4-0.2,0.5c-0.1,0.1-0.1,0.2-0.1,0.4c0,0.2-0.1,0.4-0.2,0.5c-0.1,0.1-0.2,0.6-0.2,1.5c0,1,0.1,1.6,0.2,1.6
			c0.1,0,0.1,0.1,0.1,0.3c0,0.1,0,0.2-0.1,0.2c-0.1,0,0,0.1,0.2,0.4c0.2,0.2,0.4,0.4,0.5,0.4c0.1,0,0.1,0.1,0.2,0.4
			c0.1,0.2,0.3,0.4,0.6,0.8c0.4,0.3,0.6,0.5,0.9,0.6c0.2,0.1,0.2,0.1,0.2,0.2c0,0.1,0.3,0.2,1,0.3c0.6,0.1,1.4,0.1,2.1,0.1
			c1.1,0,1.8-0.1,2-0.3c0.2-0.2,0.5-0.3,0.8-0.4c0.4-0.1,0.7-0.2,0.8-0.5c0.2-0.3,0.4-0.6,0.7-0.9c0.3-0.3,0.5-0.5,0.5-0.6
			c0-0.1-0.1-0.2-0.3-0.3c-0.4-0.2-0.6-0.3-0.8-0.3c-0.1,0-0.2,0.1-0.3,0.3c-0.1,0.3-0.2,0.4-0.4,0.4c-0.2,0-0.4,0.1-0.7,0.4
			c-0.2,0.3-0.4,0.3-0.5,0.2c-0.1-0.1-0.2-0.1-0.4,0.1c-0.1,0.1-0.4,0.2-0.7,0.2c-0.1,0-0.4,0-0.9-0.1c-0.7,0-1.1-0.1-1.3-0.2
			c-0.2-0.1-0.3-0.3-0.3-0.6c0-0.2-0.2-0.5-0.6-0.9c-0.3-0.3-0.5-0.5-0.6-0.7c-0.1-0.2-0.2-0.5-0.3-1c-0.1-0.7-0.2-1.1-0.3-1.1
			c-0.1,0-0.1-0.1-0.1-0.2c0-0.1,0-0.2,0.1-0.3c0.2,0,0.3-0.7,0.3-1.9c0-0.2,0.1-0.3,0.3-0.3c0.2,0,0.3-0.1,0.2-0.3
			c-0.1-0.3,0.1-0.4,0.4-0.6c0.3-0.1,0.5-0.3,0.5-0.4c0-0.1,0.1-0.3,0.3-0.4c0.2-0.1,0.5-0.2,0.7-0.2c0.2,0,0.3-0.1,0.3-0.2
			c0-0.1,0.2-0.2,0.7-0.3c0.1,0,0.1,0,0.2,0c0.1,0,0.1,0,0.2,0c0.6,0,1,0.2,1.2,0.5c0.1,0.2,0.3,0.3,0.6,0.4c0.2,0,0.3,0.1,0.3,0.1
			c0,0.1,0.1,0.1,0,0.3c-0.1,0.2,0,0.3,0.1,0.4c0.1,0.1,0.3,0.4,0.4,1c0.1,0.4,0.1,0.7,0.2,0.8c0.1,0.1,0.2,0.2,0.4,0.3
			c0.3,0.1,0.4,0.2,0.4,0.4c0,0.1,0,0.1,0,0.1c0,0,0.1,0,0.1,0c0.1-0.1,0.2-0.6,0.2-1.6c0-1,0.1-1.6,0.2-1.6c0.1-0.1,0.1-0.3,0-0.8
			L318.8,782.2z"/>
		<path d="M337.1,783H337c-0.4,0-0.8-0.1-1-0.3c-0.2-0.1-0.3-0.2-0.4-0.2c0,0-0.1,0.1-0.1,0.2c0,0.1,0,0.2-0.1,0.2
			c-0.1,0-0.4,0-0.8,0.1c-0.6,0-1,0-1,0.1c-0.1,0.1-0.1,0.3-0.1,0.7l0,0.6l0.8,0.1l0.8,0v2.3c0,1.5,0,2.3,0.1,2.4
			c0.1,0,0.1,0.1-0.1,0.3c-0.1,0.2-0.2,0.4-0.2,0.5v0.2c0,0.3,0,0.6-0.1,0.9c-0.1,0.3-0.2,0.5-0.3,0.5c-0.1,0.1-0.2,0.1-0.2,0.3
			c0,0.1-0.1,0.3-0.3,0.4c-0.2,0.2-0.4,0.2-0.6,0.2c-0.3,0-0.4,0.1-0.5,0.2c-0.1,0.1-0.2,0.2-0.4,0.2c-0.1,0-0.2,0-0.5-0.1
			c-0.5-0.1-0.7-0.1-0.8-0.2c0-0.1-0.2-0.1-0.4-0.1c-0.2,0-0.4-0.1-0.8-0.2c-0.2-0.1-0.3-0.2-0.4-0.3s-0.1-0.2-0.1-0.5V791v-0.3
			c0-0.4,0-0.6-0.1-0.6c-0.1,0-0.2-0.1-0.1-0.3c0-0.2,0.1-0.3,0.2-0.3c0.1-0.1,0.1-0.1,0-0.2c-0.1,0-0.1-0.1-0.1-0.2
			c0-0.1,0-0.2,0-0.3c0-0.1,0.1-0.1,0.1-0.1c0.1,0,0.1-0.3,0.1-0.9c0-0.9-0.1-1.4-0.2-1.5c-0.1-0.1-0.1-0.2,0-0.3
			c0.1-0.1,0.2-0.4,0.2-0.8c0-0.1,0-0.2,0-0.3c0-0.1-0.1-0.2-0.1-0.3c0-0.1,0-0.1,0-0.1c0-0.1,0.5-0.1,1.4-0.1c0.1,0,0.1,0,0.2,0
			c0.1,0,0.1,0,0.2,0h0c0,0,0.1-0.1,0.1-0.2c0-0.1,0-0.3-0.1-0.6c0-0.2-0.1-0.4-0.3-0.5c-0.2-0.1-0.5-0.1-1-0.1
			c-0.1,0-0.6,0-1.5,0.1c-1.4,0.1-2.1,0.2-2.3,0.4c-0.2,0.2-0.2,0.4-0.2,0.5c0,0.4,0.3,0.6,1,0.7c0.5,0.1,0.7,0.2,0.7,0.4
			c0,0.1-0.1,0.2-0.2,0.3c-0.2,0.1-0.2,0.4-0.1,0.7c0.1,0.3,0.1,0.6,0,0.6c-0.1,0.1-0.2,0.1-0.3,0.1c-0.1,0-0.1,0-0.1,0.1
			c0,0.2,0.1,0.4,0.4,0.5c0.2,0.1,0.4,0.2,0.4,0.4c0,0.1-0.1,0.2-0.2,0.3c-0.1,0.1-0.2,0.4-0.2,0.9v0.4c0,0.8,0.1,1.3,0.2,1.3
			c0.1,0.1,0.1,0.2,0.1,0.5c0,0.2,0,0.3-0.1,0.3c-0.1,0-0.1,0.1-0.2,0.4c-0.1,0.3,0,0.4,0.2,0.5c0.1,0.1,0.3,0.3,0.4,0.6
			c0.1,0.3,0.2,0.5,0.3,0.5s0.1,0.1,0.2,0.4c0.1,0.3,0.2,0.4,0.4,0.4c0.2,0,0.4,0,0.5,0.1c0.1,0.1,1,0.2,2.5,0.2
			c1.3,0,1.9-0.1,1.9-0.2s0.1-0.2,0.2-0.2c0.1,0,0.2-0.1,0.3-0.2c0.1-0.1,0.2-0.2,0.4-0.2c0.2,0,0.3-0.1,0.3-0.3
			c0-0.1,0.1-0.2,0.1-0.3c0.1,0,0.2,0,0.5,0h0.1c0.3,0,0.5,0,0.5-0.1c0-0.1-0.1-0.1-0.2-0.2c-0.1-0.1-0.2-0.2-0.2-0.3
			c0-0.2,0.1-0.4,0.2-0.6c0.2-0.2,0.2-0.4,0.1-0.4c-0.1,0-0.2-0.1-0.2-0.2c0-0.1,0-0.2,0.1-0.2c0.1,0,0.2-0.2,0.2-0.4
			c0-0.2,0.1-0.6,0.1-0.9c0-0.4,0-0.6,0-0.6c0-0.1,0-0.5,0.1-1.1c0-0.6,0-1.2,0.1-1.7c0-0.5,0.1-0.8,0.2-0.9c0.1-0.1,0.2-0.2,0-0.2
			c-0.1-0.1-0.2-0.1-0.2-0.2c0-0.1,0.1-0.3,0.3-0.4c0.2-0.1,0.4-0.2,0.6-0.2c0.1,0,0.2,0,0.2,0c0,0,0.1,0,0.2,0
			c0.3,0,0.4-0.1,0.4-0.3c0-0.1,0-0.1-0.1-0.2c-0.1-0.1-0.1-0.2,0-0.2c0.1,0,0.1-0.1,0.1-0.2C338.2,783.1,337.9,783,337.1,783z"/>
		<path d="M347.2,779.6c0-0.1-0.1-0.1-0.3-0.1c-0.2,0-0.3,0-0.3,0.1c0,0.1,0.1,0.2,0.3,0.2C347.1,779.8,347.2,779.7,347.2,779.6z"/>
		<path d="M351.6,780.6C351.7,780.6,351.7,780.5,351.6,780.6c0.1-0.1,0-0.1-0.2-0.1c-0.2,0-0.3,0.1-0.3,0.2
			C351.2,780.7,351.4,780.7,351.6,780.6C351.6,780.6,351.6,780.6,351.6,780.6z"/>
		<path d="M354.9,782.4c-0.1,0-0.2,0-0.2-0.1s-0.1-0.2-0.4-0.3c-0.3-0.1-0.4-0.3-0.5-0.5l-0.2-0.3c-0.1-0.1-0.2-0.1-0.2,0.1
			c0,0.1-0.3,0.1-0.8,0.1c-0.6,0-0.9,0-0.9-0.1c0-0.1-0.1-0.1-0.3-0.1c-0.5,0-0.8-0.1-0.8-0.4c0-0.1-0.1-0.2-0.3-0.2
			s-0.3,0.1-0.2,0.3c0,0,0,0,0,0.1c0,0,0,0,0,0.1c0,0.1-0.6,0.2-1.8,0.2h-1.8l-0.5,0.5c-0.3,0.3-0.5,0.5-0.5,0.7
			c0,0.2,0.2,0.4,0.7,0.4c0.2,0,0.3,0,0.3,0.1s0,0.1,0.1,0.1c0.2,0,0.4,0.2,0.6,0.5c0.2,0.3,0.3,0.7,0.3,1.2c0,0.4,0.1,0.6,0.1,0.6
			c0,0.2-0.1,0.4-0.2,0.5c-0.2,0.1-0.2,0.2-0.1,0.3c0.1,0.1,0.2,0.3,0.2,0.7c0,0.3-0.1,0.5-0.2,0.5c-0.2,0-0.2,0,0,0.1
			c0.1,0.1,0.1,0.3,0,0.6c-0.1,0.3-0.1,0.5,0.1,0.6c0.1,0.1,0.1,0.2,0.1,0.3c0,0.2-0.1,0.4-0.2,0.5c-0.1,0.1-0.1,0.6-0.2,1.6l0,1.5
			l-0.4,0.2c-0.2,0.1-0.5,0.2-1.1,0.2c-0.3,0-0.5,0.1-0.5,0.1c-0.1,0.1-0.1,0.2-0.1,0.4c0,0.2,0.2,0.5,0.6,0.8
			c0.2,0.1,0.3,0.2,0.5,0.2c0.2,0,0.3-0.1,0.3-0.2c0.1-0.1,0.8-0.2,2.1-0.2c1.4-0.1,2.1-0.1,2.2-0.3c0.1-0.1,0.2-0.2,0.3-0.2
			c0.1,0,0.2-0.1,0.2-0.2c0-0.1-0.1-0.2-0.4-0.2c-0.3,0-0.4-0.1-0.5-0.3c0-0.2-0.2-0.3-0.5-0.4c-0.4-0.1-0.5-0.2-0.5-0.4
			c0-0.1,0-0.2,0.1-0.3c0.2-0.2,0.2-0.3,0.1-0.4c-0.1,0-0.2-0.6-0.2-1.6c0-0.3,0-0.6,0-1c0-0.3,0-0.4,0.1-0.5c0-0.1,0.1-0.1,0.2-0.1
			c0.2,0,0.5,0,0.8,0.1c0.3,0.1,0.5,0.2,0.6,0.3c0.1,0.1,0.7,0.2,1.7,0.2c0.8,0,1.2,0,1.2-0.1c0.1-0.1,0-0.2-0.2-0.3
			c-0.2-0.1-0.4-0.2-0.5-0.4c-0.1-0.1-0.2-0.2-0.2-0.2c0,0,0.1-0.1,0.3-0.1c0.3-0.1,0.4-0.1,0.4-0.2s0.1-0.2,0.4-0.3
			c0.3-0.1,0.4-0.2,0.4-0.4c0-0.5,0.1-0.7,0.3-0.7c0.1,0,0.2-0.1,0.4-0.2c0.2-0.2,0.2-0.7,0.2-1.5c0-1-0.1-1.5-0.3-1.7
			C355.1,782.5,355,782.4,354.9,782.4z M353.3,786.1c0,0-0.1,0.1-0.4,0.1h-0.1c0,0-0.1,0-0.1,0c-0.1,0-0.1,0,0,0.1
			c0.1,0.1,0.2,0.1,0.2,0.2c0,0.1-0.1,0.3-0.3,0.5c-0.2,0.2-0.5,0.3-0.7,0.3c-0.3,0-0.6,0.1-1.1,0.2c-0.1,0-0.2,0-0.3,0
			c-0.2,0-0.4-0.1-0.7-0.3c-0.2-0.2-0.3-0.3-0.4-0.3c0-0.1,0-0.1,0.1-0.2c0.1-0.1,0.2-0.7,0.2-1.6v-1.2c0-0.3,0.1-0.5,0.2-0.7
			c0.1-0.2,0.3-0.4,0.4-0.4h0.1l0.4,0.1c0.3,0,0.5,0.1,0.8,0.1c0.2,0.1,0.4,0.1,0.4,0.1c0,0.1,0.1,0.1,0.4,0.2
			c0.3,0.1,0.4,0.2,0.4,0.3c0,0.1,0.1,0.3,0.2,0.4c0.1,0.1,0.2,0.2,0.1,0.3c-0.1,0.1-0.1,0.3,0.1,0.6c0.1,0.2,0.2,0.4,0.2,0.6
			C353.4,785.3,353.4,785.6,353.3,786.1z"/>
		<path d="M365.1,788.7c0-0.1,0-0.2-0.1-0.2c-0.1,0-0.1,0-0.1,0.1l0.1,0.2C365,789,365.1,788.9,365.1,788.7z"/>
		<path d="M371,789.5c0-0.6-0.1-0.9-0.2-1.1c-0.1-0.2-0.3-0.4-0.6-0.5c-0.3-0.1-0.5-0.3-0.5-0.4c-0.1-0.1-0.3-0.3-0.9-0.6
			c-0.5-0.3-1-0.5-1.3-0.6c-0.2-0.1-0.5-0.2-0.9-0.5c-0.4-0.3-0.6-0.4-0.6-0.5c0-0.1-0.1-0.2-0.2-0.3c-0.2-0.1-0.2-0.2-0.2-0.3
			c0,0,0-0.1,0-0.1c0.1-0.1,0.1-0.2,0.1-0.3c0-0.1,0-0.3-0.1-0.6c0-0.1,0-0.2,0-0.2c0,0,0.2-0.1,0.3-0.1c0.3,0,0.4-0.1,0.4-0.2
			c0-0.1,0.1-0.2,0.4-0.4c0.3-0.2,0.4-0.3,0.4-0.3c0-0.1,0.1-0.1,0.4-0.2c0.1,0,0.1,0,0.2,0c0.4,0,0.8,0.2,1.2,0.5
			c0.5,0.3,0.7,0.6,0.7,0.9c0,0.2,0.1,0.4,0.3,0.5c0.2,0.1,0.3,0.3,0.3,0.4c0,0.1,0.1,0.3,0.2,0.5s0.3,0.3,0.4,0.3c0,0,0,0,0.1,0
			c0.1-0.1,0.1-0.7,0.2-2v-0.8c0-0.6-0.1-0.9-0.2-0.9c-0.1,0-0.1,0-0.1,0c-0.3,0.1-0.6,0.2-0.8,0.2c-0.3,0-0.6-0.1-1-0.3
			c-0.4-0.2-0.6-0.3-0.7-0.3c0,0-0.1,0-0.2,0.1c-0.3,0.1-0.6,0.1-0.8,0.1c-0.3,0-0.4,0-0.5,0.1c0,0.1-0.1,0.2-0.3,0.2
			c-0.2,0-0.4-0.1-0.5-0.2c-0.1-0.1-0.3-0.2-0.5-0.2h0c-0.1,0-0.1,0-0.1,0c-0.1,0-0.1,0-0.1,0c0,0,0.1,0,0.1,0
			c0.1,0.1,0.2,0.1,0.2,0.2c0,0.2-0.2,0.3-0.5,0.4c-0.3,0.1-0.4,0.2-0.4,0.4c0.1,0.2,0,0.3-0.2,0.4c-0.3,0.1-0.6,0.5-1.1,1.1
			c-0.1,0.2-0.2,0.4-0.2,0.6c0,0,0,0.3,0.1,0.8c0.1,0.7,0.3,1.1,0.4,1.3c0.1,0.2,0.4,0.4,0.7,0.7c0.4,0.3,0.6,0.4,0.8,0.4
			c0.1,0,0.3,0.1,0.6,0.4c0.4,0.3,0.9,0.6,1.7,0.8c0.5,0.1,0.8,0.3,1.1,0.6c0.2,0.2,0.3,0.4,0.5,0.7c0.1,0.3,0.2,0.5,0.2,0.7
			c0,0.1,0,0.1-0.1,0.2c-0.1,0-0.1,0.2-0.1,0.4c0.1,0.2,0,0.4-0.2,0.6c-0.1,0.1-0.2,0.3-0.2,0.4c0,0.2-0.5,0.4-1.4,0.5
			c-0.1,0-0.3,0-0.6,0c-0.9,0-1.7-0.4-2.2-1.2c-0.3-0.4-0.5-0.8-0.5-1c0,0,0-0.1,0-0.2c0-0.1,0-0.2,0-0.2c0,0-0.1-0.1-0.1-0.1
			c-0.1,0-0.1,0-0.1-0.1c0.1-0.3-0.1-0.5-0.4-0.6c-0.1,0-0.2-0.1-0.3-0.1c-0.3,0-0.4,0.2-0.5,0.5c-0.1,1.2-0.1,1.9-0.2,1.9
			c-0.1,0.1-0.1,0.4-0.2,0.8c0,0.1,0,0.3,0,0.4c0,0.2,0.1,0.4,0.3,0.6c0.1,0.1,0.2,0.2,0.3,0.2c0,0,0.1,0,0.2-0.2
			c0.1-0.2,0.2-0.3,0.2-0.4c0-0.3,0.2-0.3,0.5-0.1c0.9,0.5,1.8,0.7,2.9,0.7c0.5,0,1.1-0.1,1.6-0.2c0.6-0.1,1.1-0.3,1.4-0.6
			c0.3-0.3,0.5-0.5,0.5-0.5c0-0.1,0.1-0.2,0.2-0.3c0.2-0.1,0.3-0.4,0.3-0.9c0.1-0.5,0.1-0.7,0.2-0.7c0.1,0,0.1,0,0-0.1
			S371,790.2,371,789.5z M366.6,788C366.5,788,366.5,787.9,366.6,788c-0.1-0.1-0.1-0.1,0-0.1S366.7,787.9,366.6,788
			C366.7,787.9,366.6,788,366.6,788z"/>
		<polygon points="51.7,807.5 44,812.7 41.2,798.7 38.4,812.7 30.7,807.5 35.9,815.3 21.8,818 35.9,820.8 30.7,828.5 38.4,823.3 
			41.2,837.4 43.9,823.4 51.7,828.5 46.5,820.8 60.5,818 46.5,815.3 		"/>
		<polygon points="468.1,815.3 473.3,807.5 465.5,812.7 462.8,798.7 460,812.7 452.3,807.5 457.5,815.3 443.4,818 457.5,820.8 
			452.3,828.5 460,823.3 462.8,837.4 465.5,823.4 473.3,828.5 468.1,820.8 482.1,818 		"/>
		<polygon points="30.7,56.3 38.4,51.1 41.2,65.1 44,51.1 51.7,56.3 46.5,48.5 60.5,45.8 46.5,43 51.7,35.3 43.9,40.4 41.2,26.4 
			38.4,40.5 30.7,35.3 35.9,43 21.8,45.8 35.9,48.5 		"/>
		<polygon points="473.3,35.3 465.5,40.4 462.8,26.4 460,40.5 452.3,35.3 457.5,43 443.4,45.8 457.5,48.5 452.3,56.3 460,51.1 
			462.8,65.1 465.5,51.1 473.3,56.3 468.1,48.5 482.1,45.8 468.1,43 		"/>
		<path d="M416.4,262.5c0.3,0,0.5,0,0.5,0S416.8,262.5,416.4,262.5z"/>
		<path d="M403.5,248.2c0,0,0,0.2,0,0.5C403.5,248.4,403.5,248.2,403.5,248.2z"/>
		<path d="M390,262.5c0,0,0.2,0,0.5,0C390.2,262.5,390,262.5,390,262.5z"/>
		<path d="M403.5,276.8c0,0,0-0.2,0-0.5C403.5,276.6,403.5,276.8,403.5,276.8z"/>
		<path d="M403.5,248.7c0,2-0.2,9.4-2.2,11.7c-1.8,2-8.8,2.2-10.8,2.2c2,0,9,0.2,10.8,2.2c2,2.2,2.2,9.7,2.2,11.7
			c0-2,0.2-9.4,2.2-11.7c1.8-2,8.8-2.2,10.8-2.2c-2,0-9-0.2-10.8-2.2C403.7,258.1,403.5,250.6,403.5,248.7z"/>
		<path d="M356.7,165.6c-0.5,0-0.9,0-0.9,0S356.2,165.6,356.7,165.6z"/>
		<path d="M376.9,143.3c0,0,0,0.3,0,0.8C376.9,143.6,376.9,143.3,376.9,143.3z"/>
		<path d="M397.9,165.6c0,0-0.3,0-0.9,0C397.5,165.6,397.9,165.6,397.9,165.6z"/>
		<path d="M376.9,187.9c0,0,0-0.3,0-0.8C376.8,187.6,376.9,187.9,376.9,187.9z"/>
		<path d="M376.9,187.1c0-3.1,0.3-14.7,3.4-18.1c2.8-3.1,13.7-3.4,16.8-3.4c-3.1,0-14-0.3-16.8-3.4c-3.1-3.4-3.4-15-3.4-18.1
			c0,3.1-0.3,14.7-3.4,18.1c-2.8,3.1-13.7,3.4-16.8,3.4c3.1,0,14,0.3,16.8,3.4C376.5,172.4,376.8,184,376.9,187.1z"/>
		<path d="M112.9,187.1c-0.3,0-0.4,0-0.4,0S112.6,187.1,112.9,187.1z"/>
		<path d="M123.2,198.1c0-1.5,0.1-7.5,1.7-9.2c1.4-1.6,7-1.7,8.5-1.7c-1.6,0-7.1-0.2-8.5-1.7c-1.6-1.8-1.7-7.7-1.7-9.2
			c0,1.5-0.1,7.5-1.7,9.2c-1.4,1.6-7,1.7-8.5,1.7c1.6,0,7.1,0.2,8.5,1.7C123,190.6,123.2,196.5,123.2,198.1z"/>
		<path d="M123.2,175.8c0,0,0,0.1,0,0.4C123.2,175.9,123.2,175.8,123.2,175.8z"/>
		<path d="M123.2,198.5c0,0,0-0.1,0-0.4C123.2,198.3,123.2,198.5,123.2,198.5z"/>
		<path d="M133.9,187.1c0,0-0.2,0-0.4,0C133.7,187.1,133.9,187.1,133.9,187.1z"/>
		<path d="M147.3,226.3c0,0,0,0.4,0,1.1C147.3,226.7,147.3,226.3,147.3,226.3z"/>
		<path d="M119.7,257c4.5,0,19.2,0.5,22.9,4.7c4.3,4.7,4.6,20.7,4.7,24.9c0-4.3,0.4-20.2,4.7-24.9c3.8-4.2,18.4-4.6,22.9-4.7
			c-4.5,0-19.2-0.5-22.9-4.7c-4.3-4.7-4.6-20.7-4.7-24.9c0,4.3-0.4,20.2-4.7,24.9C138.9,256.5,124.2,257,119.7,257z"/>
		<path d="M176.2,257c0,0-0.5,0-1.3,0C175.8,257,176.2,257,176.2,257z"/>
		<path d="M118.4,257c0,0,0.5,0,1.3,0C118.9,257,118.4,257,118.4,257z"/>
		<path d="M147.3,287.7c0,0,0-0.4,0-1.1C147.3,287.3,147.3,287.7,147.3,287.7z"/>
		<path d="M227.5,687.8c0,0,0-0.2,0-0.6C227.5,687.5,227.5,687.8,227.5,687.8z"/>
		<path d="M243.6,670c-2.5,0-11.1-0.2-13.4-2.7c-2.5-2.7-2.7-12-2.7-14.5c0,2.4-0.2,11.7-2.7,14.5c-2.2,2.5-10.9,2.7-13.4,2.7
			c2.5,0,11.1,0.2,13.4,2.7c2.5,2.7,2.7,12,2.7,14.5c0-2.4,0.2-11.7,2.7-14.5C232.4,670.3,241.1,670,243.6,670z"/>
		<path d="M244.3,670c0,0-0.3,0-0.7,0C244,670,244.3,670,244.3,670z"/>
		<path d="M227.5,652.3c0,0,0,0.2,0,0.6C227.5,652.5,227.5,652.3,227.5,652.3z"/>
		<path d="M210.8,670c0,0,0.3,0,0.7,0C211.1,670,210.8,670,210.8,670z"/>
		<path d="M313.9,83.8c0,0,0,0.6,0,1.5C313.9,84.3,313.9,83.8,313.9,83.8z"/>
		<path d="M313.9,169c0-6,0.6-28.6,6.6-35.3c5.3-5.9,26.1-6.6,32.4-6.6c-6.4-0.1-27.1-0.7-32.4-6.6c-6-6.7-6.6-29.2-6.6-35.3
			c0,6-0.6,28.6-6.6,35.3c-5.3,5.9-26.1,6.6-32.4,6.6c6.4,0.1,27.1,0.7,32.4,6.6C313.3,140.4,313.9,163,313.9,169z"/>
		<path d="M354.8,127.1c0,0-0.7,0-1.9,0C354.1,127.2,354.8,127.1,354.8,127.1z"/>
		<path d="M274.8,127.1c-1.2,0-1.9,0-1.9,0S273.7,127.2,274.8,127.1z"/>
		<path d="M313.9,170.5c0,0,0-0.6,0-1.5C313.9,170,313.9,170.5,313.9,170.5z"/>
		<path d="M266.6,731.9c0,0,0-0.4,0-1C266.6,731.6,266.6,731.9,266.6,731.9z"/>
		<path d="M266.6,676.1c0,4-0.4,18.7-4.3,23.1c-3.5,3.9-17.1,4.3-21.2,4.3c4.2,0,17.7,0.5,21.2,4.3c3.9,4.4,4.3,19.1,4.3,23.1
			c0-4,0.4-18.7,4.3-23.1c3.5-3.9,17.1-4.3,21.2-4.3c-4.2,0-17.7-0.5-21.2-4.3C267,694.8,266.7,680.1,266.6,676.1z"/>
		<path d="M292.2,703.5c0.8,0,1.2,0,1.2,0S293,703.5,292.2,703.5z"/>
		<path d="M266.6,675.1c0,0,0,0.4,0,1C266.6,675.5,266.6,675.1,266.6,675.1z"/>
		<path d="M239.9,703.5c0,0,0.4,0,1.2,0C240.3,703.5,239.9,703.5,239.9,703.5z"/>
		<path d="M407.3,586.6c-7.1-1.2-14.5,0.3-21.7,0.1c11.1-9.8,21.2-20.8,16.7-24.4c-4.7-3.8-17.1,3.6-21.1,6c-5,2.9-9.7,6.4-14.4,9.7
			c-4.8,3.4-10.2,5.7-15.6,8c0.3-0.4,0.5-0.8,0.8-1.1c6.6-8,13.1-16.6,20.3-24c3-3.1,8.6-7.8,9.3-12.4c0.7-4.5-4-4.4-7.4-3.8
			c-7.6,1.2-13.3,6.9-19.1,11.5c-7.2,5.6-13.7,11.6-20.2,18c-5.6,5.6-12.2,12.1-19.7,15.5c7.8-7.1,15-15.1,22.5-22.4
			c6.1-6,13.7-13.9,16.3-22.4c1.7-5.5-3.2-5.3-7.1-3.8c-7.4,2.9-14.3,7.8-20.9,12.4c-5.8,0.3-11.3,0.9-17-0.6
			c-5.7-1.5-11.3-2.8-17.1-4.1c-10.8-2.3-21.4-4.8-32.1-7.3c-20.4-4.9-42.3-4.5-61.2,5.2c-10.3,5.3-19.9,12-30.2,17.4
			c-7.2,3.7-15,7.2-20.8,13.1c-8.7,8.9-16.1,19.4-23.6,29.4c-7.8,10.4-15.8,20.8-22.9,31.7c-0.4,0.6-0.6,1.6,0.2,2.1
			c9.9,6.7,20.1,13,30.9,18.4c9.7,4.8,20.8,9.9,31.8,9.5c0.5,0,1-0.4,1.2-0.8c5.5-11.6,10.1-29.1,22.6-35.1
			c11.4-5.5,24.7-8.8,37.3-10c13-1.2,25.2,0.7,37.8,3.6c11,2.5,22.2,3.1,33.2,0.8c9.9-2.1,19.1-6.3,28.7-9.4
			c11.4-3.7,23.4-5.1,34.2-10.3c10.4-1.1,20.8-4.2,31.1-6.3c6.2-1.3,14.6-3.2,19.1-8C412.1,589.6,411.2,587.3,407.3,586.6z
			 M319.5,615.9c-0.1,0.1-0.2,0.2-0.3,0.2c-2.1,0.7-4.2,1.3-6.3,2.1c-12.1,4.5-24,7.7-37.1,6.6c-13.7-1.2-26.6-5.8-40.5-6
			c-13.2-0.2-26.3,2.4-38.7,6.7c-5.4,1.9-11.2,3.7-15.5,7.5c-4.3,3.8-7.2,9-9.8,14c-2,4-3.8,8.1-5.6,12.2c-0.5,1.2-1.3,3.6-2,4.5
			c-1.8,1.9-2.8,1.5-5.4,1.2c-6.6-0.9-13-3.5-19.1-6.2c-12.2-5.5-23.8-12.5-34.9-20c12.7-19.3,27-38.3,42.1-55.7
			c3.9-4.5,7.8-7.7,13-10.7c9.8-5.7,19.8-10.7,29.5-16.6c10.5-6.3,21.3-12.3,33.7-13.6c11.6-1.1,23.1-1.1,34.4,1.7
			c11.8,2.9,23.6,5.6,35.5,8.1c5.7,1.2,11.3,2.7,16.9,4.1c3.9,1,7.8,0.9,11.7,0.7c-4.8,3.2-9.6,6.5-14.2,10
			c-0.6,0.4-1.1,0.8-1.7,1.3c-0.3-0.1-0.5-0.1-0.9-0.1c-13.9,3.4-27-1.5-40.8-0.8c-2.6-5.3-4.8-10.7-10.4-13.9
			c-1.6-1-2.9,1.7-1.3,2.7c4.9,2.9,7.1,7.8,9.5,12.8c0,0.4,0.2,0.9,0.5,1.1c0.9,1.9,1.9,3.7,3.1,5.4c-3.2-0.7-6.3-1.5-9.4-1.9
			c-11.2-1.7-22.8-3.9-34.1-4.2c-6.2-0.2-16.1-1-21.2,3.2c-1.5,1.2,0.2,3.7,1.7,2.5c4.4-3.6,13.7-2.8,19.1-2.7
			c8.6,0.2,17.2,2,25.7,3.1c16.3,2.1,34.9,10.3,50.6,1.9c8.7-4.6,16.1-11.7,24.3-17.1c1.7-1.2,3.5-2.4,5.2-3.6
			c0.4-0.1,0.7-0.3,0.8-0.6c6-4.1,12.1-8.3,18.5-11.2c1.3-0.6,3.9-2.1,4.5,0.3c0.2,1-2,3.6-2.6,4.6c-2.8,4.7-6,8.8-9.7,12.8
			c-6.5,6.8-13.5,12.9-19.9,19.7c-3.1,3.3-6.5,7.1-10.3,9.9c-0.2,0.1-0.4,0.2-0.6,0.4c-1.4,1-3,1.9-4.6,2.5
			c-5.1,2.1-11,1.5-16.3,3.1c-11.7,3.3-22.6,8.6-34.9,10.1c-1.9,0.2-1.7,3.2,0.2,3c11.3-1.3,21.9-5.6,32.6-9.3
			c5.4-1.9,10.8-1.8,16.2-3.1c3.1-0.7,5.8-2.2,8.4-4c13.5-2.4,23.4-14.2,32.7-23.3c6.2-6.1,13.1-11.3,19.9-16.7
			c3-2.4,5.8-4.7,9.4-6.1c1.8-0.6,6.7-2.2,7.1-0.3c0.2,1.1-1.7,3-2.4,3.8c-9.1,12.1-20.8,22.4-29.5,34.9
			c-4.3,6.2-7.1,13.2-12.9,18.2C329.4,609,324.5,612.8,319.5,615.9z M300.3,571.8c-2.9,2-6,3.8-9.5,4.9c-6.8,2.1-13.9,1.1-20.9-0.4
			c-2-1.8-3.4-4-4.6-6.2c7.3-0.1,14.3,1.7,21.6,2.3C291.2,572.6,295.8,572.4,300.3,571.8z M353.5,606.1c-8.2,3.2-16.8,5.2-25.3,7.5
			c3.1-2.3,6-4.7,8.8-7.2c4.9-4.4,7.8-10.4,11.2-15.9c0.1,0,0.1,0,0.2,0c5.5-2.3,11.4-4.3,16.5-7.4c5.1-3,9.6-7,14.6-10.2
			c4.7-3,9.5-5.6,14.8-7.2c0.9-0.3,5.1-2,6.1-0.9c0.6,0.6-5.6,8.3-6.3,9.2c-4.7,5.8-10.7,10.7-16.3,15.6
			C370.3,596,362.7,602.5,353.5,606.1z M400,594.5c-5.7,2.3-11.5,3.4-17.5,4.6c-5.6,1.1-11.1,2.6-16.7,3.7c3.5-2.5,10-7.6,16.7-13.3
			c5.4,0.5,10.9,0.1,16.3-0.1c0.9,0,8.2-0.6,8.5,0.2C408,591.5,400.7,594.2,400,594.5z"/>
		<path d="M368.3,481.5c0,9.1,3.8,12,8.6,12c4.7,0,8.6-2.9,8.6-12s-8.6-71.3-8.6-71.3S368.3,472.5,368.3,481.5z"/>
		<path d="M116.1,470.6c-1,1.2,0.3,3.4,1.8,2.4c9.2-6.6,18.5-13.2,27.7-19.7c1.4,19.2,2.7,38.5,4.1,57.7c0.1,1.9,2.9,2,3,0
			c1.3-19,2.6-38,3.9-57.1c8.2,7.2,16.4,14.4,24.6,21.6c1.2,1.1,3.4-0.3,2.4-1.8c-6.4-9.7-12.8-19.4-19.2-29.1
			c20-2.7,39.9-5.4,59.9-8.1c1.8-0.2,1.2-2.9-0.4-3c-19.3-0.9-38.5-1.8-57.8-2.7c5.8-9.6,11.6-19.3,17.5-28.9c0.9-1.5-1.1-3-2.4-1.8
			c-7.9,7.3-15.8,14.5-23.7,21.8c-1.7-19.1-3.4-38.2-5.1-57.2c-0.2-1.9-2.9-2-3,0c-0.9,19.1-1.8,38.2-2.7,57.3
			c-8.6-7.3-17.2-14.5-25.9-21.8c-1.2-1-3.4,0.3-2.4,1.8c6.4,9.7,12.8,19.4,19.2,29.1c-19.2,2.7-38.4,5.4-57.6,8.1
			c-1.8,0.2-1.2,2.9,0.4,3c19.1,0.9,38.2,1.8,57.3,2.7C130.7,453.4,123.4,462,116.1,470.6z M96.9,439.8c14.6-2.1,29.3-4.1,43.9-6.2
			c1-0.1,1.4-1.5,0.9-2.2c-4.9-7.5-9.8-15-14.8-22.4c6.7,5.7,13.5,11.4,20.2,17.1c1,0.8,2.5,0.3,2.6-1.1c0.6-12.6,1.2-25.3,1.8-37.9
			c1.1,12.6,2.2,25.3,3.4,37.9c0.1,1.3,1.6,2,2.6,1.1c6.1-5.6,12.2-11.1,18.2-16.7c-4.4,7.4-8.9,14.7-13.3,22.1
			c-0.6,1,0.2,2.2,1.3,2.3c14.6,0.7,29.1,1.3,43.7,2c-15.3,2.1-30.5,4.1-45.8,6.2c-0.7,0.1-1,0.5-1.1,1c-0.2,0.4-0.1,0.8,0.1,1.3
			c4.8,7.3,9.6,14.5,14.3,21.8c-6.2-5.4-12.3-10.8-18.5-16.2c-1-0.9-2.5-0.3-2.6,1.1c-0.9,12.9-1.8,25.7-2.6,38.6
			c-0.9-13-1.9-25.9-2.8-38.9c-0.1-1-1.3-2-2.3-1.3c-6.7,4.8-13.5,9.6-20.2,14.4c5.4-6.4,10.7-12.7,16.1-19.1c0.8-1,0.3-2.5-1.1-2.6
			C126.4,441.2,111.6,440.5,96.9,439.8z"/>
		<path d="M349.3,258.7c-0.9,0-1.7,0.8-1.7,1.7l0,0.4c0,0.9,0.8,1.7,1.7,1.7c0,0,0,0,0,0c0.9,0,1.7-0.8,1.7-1.7l0-0.4
			C351,259.5,350.2,258.7,349.3,258.7z"/>
		<path d="M350.5,352.6c0-0.9-0.7-1.7-1.6-1.7c-0.9,0-1.7,0.7-1.7,1.6l0,0.8c0,0.9,0.7,1.7,1.6,1.7c0,0,0,0,0.1,0
			c0.9,0,1.6-0.7,1.7-1.6L350.5,352.6z"/>
		<path d="M347.8,279.4c0,0.9,0.8,1.7,1.7,1.7c0,0,0,0,0,0c0.9,0,1.7-0.8,1.7-1.7l0-0.8l-1.1,0l-2.2,0L347.8,279.4z"/>
		<polygon points="349.4,278.5 350,278.5 351.1,278.5 		"/>
		<path d="M349.3,267.6c-0.9,0-1.7,0.8-1.7,1.7l0,0.8c0,0.9,0.8,1.7,1.7,1.7c0,0,0,0,0,0c0.9,0,1.7-0.8,1.7-1.7l0-0.8
			C351,268.3,350.3,267.6,349.3,267.6z"/>
		<path d="M347.9,297l0,0.8c0,0.9,0.8,1.7,1.7,1.7c0,0,0,0,0,0c0.9,0,1.7-0.8,1.7-1.7l0-0.8c0-0.9-0.7-1.7-1.7-1.7
			C348.6,295.3,347.9,296.1,347.9,297z"/>
		<path d="M349.5,286.1c-0.9,0-1.7,0.8-1.7,1.7l0,0.8c0,0.9,0.8,1.7,1.7,1.7c0,0,0,0,0,0c0.9,0,1.7-0.8,1.7-1.7l0-0.8
			C351.2,286.8,350.4,286.1,349.5,286.1z"/>
		<path d="M350.8,343.3c0-0.9-0.7-1.7-1.6-1.7c-0.9,0-1.7,0.7-1.7,1.6l0,0.8c0,0.9,0.7,1.7,1.6,1.7c0,0,0,0,0,0
			c0.9,0,1.6-0.7,1.7-1.6L350.8,343.3z"/>
		<path d="M341.9,410c0.7,0,1.4-0.5,1.6-1.2l0.2-0.8c0.2-0.9-0.3-1.8-1.2-2.1c-0.9-0.2-1.8,0.3-2.1,1.2l-0.2,0.8
			c-0.3,0.9,0.3,1.8,1.2,2.1C341.6,410,341.7,410,341.9,410z"/>
		<path d="M347.3,390.5l0.1-0.8c0.1-0.9-0.5-1.8-1.4-1.9c-0.9-0.1-1.8,0.5-1.9,1.4L344,390c-0.1,0.9,0.5,1.8,1.4,1.9
			c0.1,0,0.2,0,0.2,0C346.4,391.9,347.2,391.3,347.3,390.5z"/>
		<path d="M339.8,414.7c-0.9-0.3-1.8,0.1-2.2,0.9c-0.1,0.3-0.2,0.5-0.3,0.8c-0.4,0.9,0,1.8,0.9,2.2c0.2,0.1,0.4,0.1,0.6,0.1
			c0.7,0,1.3-0.4,1.5-1c0.1-0.3,0.2-0.5,0.3-0.8C341.1,416,340.7,415.1,339.8,414.7z"/>
		<path d="M350,362.7l0-0.8c0.1-0.9-0.7-1.7-1.6-1.8c-0.9-0.1-1.7,0.7-1.8,1.6l0,0.8c-0.1,0.9,0.6,1.7,1.6,1.8c0,0,0.1,0,0.1,0
			C349.2,364.3,349.9,363.6,350,362.7z"/>
		<path d="M349.3,372l0.1-0.8c0.1-0.9-0.6-1.7-1.5-1.8c-0.9-0.1-1.7,0.6-1.8,1.5l-0.1,0.8c-0.1,0.9,0.6,1.7,1.5,1.8c0,0,0.1,0,0.1,0
			C348.5,373.5,349.3,372.8,349.3,372z"/>
		<path d="M348.5,381.2l0.1-0.8c0.1-0.9-0.6-1.7-1.5-1.8c-0.9-0.1-1.7,0.6-1.8,1.5l-0.1,0.8c-0.1,0.9,0.6,1.7,1.5,1.8
			c0.1,0,0.1,0,0.2,0C347.6,382.7,348.4,382.1,348.5,381.2z"/>
		<path d="M345.7,399.7l0.2-0.8c0.2-0.9-0.4-1.8-1.3-2c-0.9-0.2-1.8,0.4-2,1.3l-0.2,0.8c-0.2,0.9,0.4,1.8,1.3,2c0.1,0,0.2,0,0.3,0
			C344.8,401,345.5,400.5,345.7,399.7z"/>
		<path d="M320.7,434.7c-0.2,0.1-0.5,0.2-0.7,0.3c-0.9,0.3-1.4,1.2-1.1,2.1c0.2,0.7,0.9,1.2,1.6,1.2c0.2,0,0.3,0,0.5-0.1
			c0.3-0.1,0.6-0.2,0.8-0.3c0.9-0.3,1.3-1.3,1-2.1C322.5,434.8,321.6,434.4,320.7,434.7z"/>
		<path d="M351,334.1c0-0.9-0.7-1.7-1.6-1.7c-0.9,0-1.7,0.7-1.7,1.6l0,0.8c0,0.9,0.7,1.7,1.6,1.7c0,0,0,0,0,0c0.9,0,1.7-0.7,1.7-1.6
			L351,334.1z"/>
		<path d="M333.6,423.6c-0.1,0.2-0.3,0.5-0.4,0.7c-0.5,0.8-0.3,1.8,0.5,2.3c0.3,0.2,0.6,0.3,0.9,0.3c0.5,0,1.1-0.3,1.4-0.8
			c0.2-0.2,0.3-0.5,0.5-0.7c0.5-0.8,0.3-1.8-0.5-2.3C335.1,422.6,334.1,422.9,333.6,423.6z"/>
		<path d="M311.8,436.1l-0.4,0c-0.9,0-1.7,0.7-1.7,1.7c0,0.9,0.7,1.7,1.7,1.7l0.4,0l0.5,0c0.9,0,1.7-0.8,1.7-1.7
			c0-0.9-0.8-1.7-1.7-1.7L311.8,436.1z"/>
		<path d="M328,430.3c-0.2,0.2-0.4,0.3-0.6,0.5c-0.7,0.6-0.8,1.6-0.2,2.4c0.3,0.4,0.8,0.6,1.3,0.6c0.4,0,0.8-0.1,1.1-0.4
			c0.2-0.2,0.5-0.4,0.7-0.6c0.7-0.6,0.8-1.7,0.2-2.4C329.8,429.8,328.7,429.7,328,430.3z"/>
		<path d="M351.2,315.5c0-0.9-0.7-1.7-1.7-1.7c0,0,0,0,0,0c-0.9,0-1.7,0.7-1.7,1.7l0,0.8c0,0.9,0.7,1.7,1.7,1.7c0,0,0,0,0,0
			c0.9,0,1.7-0.7,1.7-1.7L351.2,315.5z"/>
		<path d="M351.2,306.3c0-0.9-0.7-1.7-1.7-1.7c-0.9,0-1.7,0.7-1.7,1.7v0.8c0,0.9,0.7,1.7,1.7,1.7h0c0.9,0,1.7-0.7,1.7-1.7V306.3z"/>
		<path d="M351.1,324.8c0-0.9-0.7-1.7-1.7-1.7c-0.9,0-1.7,0.7-1.7,1.7l0,0.8c0,0.9,0.7,1.7,1.7,1.7c0,0,0,0,0,0
			c0.9,0,1.7-0.7,1.7-1.7L351.1,324.8z"/>
		<path d="M303.3,435.2l-0.4-0.1c-0.9-0.2-1.8,0.4-2,1.3c-0.2,0.9,0.4,1.8,1.3,2l0.4,0.1c0.1,0,0.2,0,0.3,0c0.8,0,1.5-0.5,1.6-1.3
			C304.8,436.3,304.2,435.4,303.3,435.2z"/>
		<path d="M210.8,262.5C210.8,262.5,210.8,262.5,210.8,262.5c0.9,0,1.7-0.8,1.7-1.7l0-0.4c0-0.9-0.8-1.6-1.7-1.7
			c-0.9,0-1.7,0.8-1.7,1.7l0,0.4C209.2,261.8,209.9,262.5,210.8,262.5z"/>
		<path d="M207.9,306.7c0,0.9,0.7,1.7,1.6,1.7c0,0,0,0,0.1,0c0.9,0,1.6-0.7,1.7-1.6l0-0.8c0-0.9-0.7-1.7-1.6-1.7
			c-0.9,0-1.7,0.7-1.7,1.6L207.9,306.7z"/>
		<path d="M207.6,315.9c0,0.9,0.7,1.7,1.6,1.7c0,0,0,0,0,0c0.9,0,1.7-0.7,1.7-1.6l0-0.8c0-0.9-0.7-1.7-1.6-1.7
			c-0.9,0-1.7,0.7-1.7,1.6L207.6,315.9z"/>
		<path d="M207.5,325.1c0,0.9,0.7,1.7,1.7,1.7h0c0.9,0,1.7-0.7,1.7-1.7l0-0.8c0-0.9-0.7-1.7-1.7-1.7c0,0,0,0,0,0
			c-0.9,0-1.7,0.7-1.7,1.7L207.5,325.1z"/>
		<path d="M209.3,336C209.4,336,209.4,336,209.3,336c1,0,1.7-0.8,1.7-1.7l0-0.8c0-0.9-0.8-1.7-1.7-1.6c-0.9,0-1.7,0.8-1.6,1.7l0,0.8
			C207.7,335.3,208.4,336,209.3,336z"/>
		<path d="M210.8,271.7C210.8,271.7,210.8,271.7,210.8,271.7c0.9,0,1.7-0.7,1.7-1.7l0-0.8c0-0.9-0.7-1.7-1.7-1.7c0,0,0,0,0,0
			c-0.9,0-1.7,0.7-1.7,1.7l0,0.8C209.1,270.9,209.9,271.7,210.8,271.7z"/>
		<path d="M209.9,345.2c0,0,0.1,0,0.1,0c0.9-0.1,1.6-0.9,1.5-1.8l-0.1-0.8c-0.1-0.9-0.9-1.6-1.8-1.5c-0.9,0.1-1.6,0.9-1.5,1.8
			l0.1,0.8C208.3,344.5,209,345.2,209.9,345.2z"/>
		<path d="M208.9,279.2c0,0.9,0.7,1.7,1.6,1.7c0,0,0,0,0.1,0c0.9,0,1.6-0.7,1.7-1.6l0-0.8c0-0.9-0.7-1.7-1.6-1.7
			c-0.9,0-1.7,0.7-1.7,1.6L208.9,279.2z"/>
		<path d="M208.6,288.3c0,0.9,0.7,1.7,1.6,1.7c0,0,0,0,0.1,0c0.9,0,1.6-0.7,1.7-1.6l0-0.8c0-0.9-0.7-1.7-1.6-1.7
			c-0.9,0-1.7,0.7-1.7,1.6L208.6,288.3z"/>
		<path d="M208.3,297.5c0,0.9,0.7,1.7,1.6,1.7c0,0,0,0,0.1,0c0.9,0,1.6-0.7,1.7-1.6l0-0.8c0-0.9-0.7-1.7-1.6-1.7
			c-0.9,0-1.7,0.7-1.7,1.6L208.3,297.5z"/>
		<path d="M229,383.8c0.2,0.1,0.4,0.1,0.6,0.1c0.7,0,1.3-0.4,1.6-1.1c0.3-0.9-0.1-1.8-1-2.2c-0.2-0.1-0.5-0.2-0.7-0.3
			c-0.9-0.4-1.8,0-2.2,0.9c-0.4,0.9,0,1.8,0.9,2.2C228.4,383.6,228.7,383.7,229,383.8z"/>
		<path d="M238.5,385.7C238.5,385.7,238.5,385.7,238.5,385.7c1,0,1.7-0.7,1.8-1.6c0-0.9-0.7-1.7-1.6-1.8c-0.3,0-0.5,0-0.8-0.1
			c-0.9-0.1-1.7,0.6-1.8,1.5c-0.1,0.9,0.6,1.7,1.5,1.8C237.9,385.7,238.2,385.7,238.5,385.7z"/>
		<path d="M211,354.3c0.1,0,0.2,0,0.3,0c0.9-0.2,1.5-1,1.4-1.9l-0.1-0.8c-0.1-0.9-1-1.5-1.9-1.4c-0.9,0.1-1.5,1-1.4,1.9l0.1,0.8
			C209.5,353.7,210.2,354.3,211,354.3z"/>
		<path d="M247.1,385.3c0.3,0,0.6-0.1,0.9-0.1c0.9-0.1,1.5-1,1.4-1.9c-0.1-0.9-1-1.5-1.9-1.4c-0.3,0-0.5,0.1-0.8,0.1
			c-0.9,0.1-1.6,1-1.4,1.9c0.1,0.8,0.8,1.5,1.7,1.5C247,385.3,247,385.3,247.1,385.3z"/>
		<path d="M211.4,362c0.2,0.7,0.9,1.2,1.6,1.2c0.2,0,0.3,0,0.5-0.1c0.9-0.3,1.4-1.2,1.1-2.1c-0.1-0.3-0.2-0.5-0.2-0.8
			c-0.3-0.9-1.2-1.4-2.1-1.2c-0.9,0.3-1.4,1.2-1.2,2.1C211.2,361.5,211.3,361.8,211.4,362z"/>
		<path d="M215,370.9c0.3,0.6,0.9,0.9,1.5,0.9c0.3,0,0.5-0.1,0.8-0.2c0.8-0.4,1.1-1.5,0.7-2.3c-0.1-0.2-0.2-0.5-0.4-0.7
			c-0.4-0.8-1.4-1.2-2.3-0.7c-0.8,0.4-1.2,1.4-0.7,2.3C214.7,370.3,214.8,370.6,215,370.9z"/>
		<path d="M220.1,375.6c-0.7,0.6-0.7,1.7,0,2.4c0.2,0.2,0.4,0.4,0.6,0.6c0.3,0.3,0.7,0.5,1.2,0.5c0.4,0,0.9-0.2,1.2-0.5
			c0.6-0.7,0.6-1.7-0.1-2.4c-0.2-0.2-0.4-0.4-0.6-0.5C221.8,375,220.8,375,220.1,375.6z"/>
		<path d="M255.9,383.5c0.1,0,0.3,0,0.4-0.1l0.4-0.1c0.9-0.2,1.4-1.2,1.2-2.1c-0.2-0.9-1.2-1.4-2.1-1.2l-0.4,0.1
			c-0.9,0.2-1.4,1.2-1.2,2.1C254.5,383,255.2,383.5,255.9,383.5z"/>
		<path d="M209.6,256.7c0,0,4.9,0,8.6,0c3.7,0,0,58.2,0,58.2c0,24,14.8,44.8,35.9,54.2c-0.1,0.4-0.1,0.8-0.1,1.1v1.3
			c0,4.2,3.4,7.6,7.5,7.7c0.1,10,0,18.8-0.8,20c-1.9,3.1-5.4,3.7-5.4,8.4s2.8,5.4,5.4,8.4c0.6,0.7,1.1,4.1,1.5,9.1h-0.7
			c-1.5,0-2.7,1.2-2.7,2.7v3.5c0,1.5,1.2,2.7,2.7,2.7h1.3c0.6,12.4,0.9,28.8,1.1,40.6c-3.2,0.8-5.7,4-6.6,8.2
			c-11.9,4.9-19.8,11.9-25.4,11.9c-8.6,0-8.9,0-8.9,0c-0.2,0-0.4,0.2-0.4,0.4v8c0,0.2,0.2,0.4,0.4,0.4h113.5c0.2,0,0.4-0.2,0.4-0.4
			v-8c0-0.2-0.2-0.4-0.4-0.4c0,0-0.8,0-8.9,0c-5.3,0-13.4-7.1-25.4-12c-0.9-4.1-3.4-7.3-6.5-8.2c0.3-11.8,0.8-28.2,1.4-40.6h0.9
			c1.5,0,2.7-1.2,2.7-2.7v-3.5c0-1.5-1.2-2.7-2.7-2.7h-0.4c0.4-4.9,0.8-8.3,1.2-9.1c1.9-3.1,5.4-3.6,5.4-8.4s-2.8-5.4-5.4-8.4
			c-1.1-1.2-1.3-10-1.1-20h0.2c4.2,0,7.7-3.5,7.7-7.7v-1.3c0-0.4,0-0.8-0.1-1.1c21.2-9.5,35.9-30.3,35.9-54.2c0,0-4-58.2,0-58.2
			s8.6,0,8.6,0c1.9,0,3.4-1.5,3.4-3.3v-3.7c0-1.8-1.5-3.3-3.4-3.3H209.6c-1.9,0-3.4,1.5-3.4,3.3v3.7
			C206.2,255.2,207.7,256.7,209.6,256.7z M279.6,358.5c-13.7-0.1-24.6-11.3-24.5-24.9c0-1.1,0.1-2.2,0.3-3.3
			c1.5,12.1,11.8,21.5,24.3,21.6c12.5,0.1,22.9-9.1,24.7-21.2c0.1,1.1,0.2,2.2,0.2,3.3C304.5,347.6,293.3,358.6,279.6,358.5z
			 M240.6,265.3c1.8-2.1,3.7-3.8,5.8-5c3.6-1.9,8.1-2.5,11.9-4.1h42.2c0,0,0,0.1,0,0.1c6.7,1.8,8.7,5.8,10.3,7.4
			c1.9,1.8,5.2,3,7.5,3.7c4.6,1.5,10.7,2.1,12.9,8.5c-2.8-5.2-9.6-4.3-15-4.2c-2.7,0.1-5.3-0.1-7.6-0.9c-3.7-1.3-7-4.1-10.6-5.8
			l15.3,19.9l-21-16.2c1.6,3.9,4.8,7.5,6.2,11.5c0.8,2.3,1,4.9,0.9,7.6c-0.2,5.4-1,12.2,4.2,15c-6.4-2.3-7-8.4-8.5-12.9
			c-0.7-2.3-1.9-5.6-3.7-7.5c-1.5-1.6-5.4-3.6-7.2-9.7l-4.1,42.1l-4.1-42.1c-1.8,6.2-5.7,8.1-7.2,9.7c-1.8,1.9-3,5.2-3.7,7.5
			c-1.5,4.6-2.1,10.7-8.5,12.9c5.2-2.8,4.3-9.6,4.2-15c-0.1-2.7,0.1-5.3,0.9-7.6c1.4-4,4.6-7.6,6.2-11.5l-21,16.2l16.1-20.9
			c-5.8,3.8-10.2,2.5-12.5,2.7c-2.6,0.2-5.7,1.8-7.8,3c-4.2,2.4-8.7,6.5-15,3.8C233.1,275,237.1,269.4,240.6,265.3z"/>
	</g>
</g>
</svg>
