<?xml version="1.0" encoding="utf-8"?>
<!-- Generator: Adobe Illustrator 21.1.0, SVG Export Plug-In . SVG Version: 6.00 Build 0)  -->
<svg version="1.1" xmlns="http://www.w3.org/2000/svg" xmlns:xlink="http://www.w3.org/1999/xlink" x="0px" y="0px"
	 viewBox="0 0 504 864" style="enable-background:new 0 0 504 864;" xml:space="preserve">
<g id="Слой_1">
</g>
<g id="Слой_2">
	<g>
		<path d="M503.8,18.2c-1.6-17.9-18.7-16.3-31.6-16.3c-45.9,0-91.8,0-137.6,0c-63.2,0-126.3,0-189.5,0c-40.6,0-81.2,0-121.8,0
			c-2.6,0-5.3-0.2-8,0.2c-9.5,1.2-15,9.2-15.2,18.2c-0.2,7.3,0,14.5,0,21.8c0,37.4,0,74.9,0,112.3c0,57,0,114.1,0,171.1
			c0,64.3,0,128.6,0,192.9c0,58.4,0,116.7,0,175.1c0,40.1,0,80.2,0,120.3c0,9.1,0,18.2,0,27.3c0,11.7,6.7,20.5,19.2,20.7
			c35.9,0.6,71.9,0,107.9,0c62.4,0,124.9,0,187.3,0c49.7,0,99.5,0,149.2,0c7.6,0,15.2,0,22.9,0c0.4,0,0.8-0.1,1.2-0.2
			c14.4-1.8,16.1-13.8,16.1-25.5c0-11.4,0-22.8,0-34.3c0-43.4,0-86.9,0-130.3c0-59.9,0-119.8,0-179.8c0-63.9,0-127.7,0-191.6
			c0-55.3,0-110.6,0-165.9c0-33.7,0-67.3,0-101C503.9,28.3,504.2,23.2,503.8,18.2z M486.6,852.8c-28.3,0-56.6,0-84.9,0
			c-59.9,0-119.8,0-179.7,0c-54,0-108,0-162,0c-13.1,0-26.1,0-39.2,0c-5.6,0-11-1.3-11.7-8.3c-0.2-1.5,0-3,0-4.5c0-26.5,0-53,0-79.5
			c0-50,0-100,0-149.9c0-61.8,0-123.6,0-185.4c0-61.4,0-122.7,0-184.1c0-48.9,0-97.7,0-146.6c0-24.2-0.8-48.6,0-72.8
			c0.2-5.3,1.6-10.1,8.3-10.8c2.2-0.2,4.5,0,6.7,0c14.8,0,29.6,0,44.5,0c55.6,0,111.3,0,166.9,0c58.9,0,117.8,0,176.7,0
			c18.9,0,37.9,0,56.8,0c8.1,0,24.7-3.1,25.9,8.4c0.5,5.2,0,10.8,0,16.1c0,13.5,0,27.1,0,40.6c0,45.5,0,91.1,0,136.6
			c0,60.1,0,120.2,0,180.3c0,62.6,0,125.1,0,187.7c0,52.8,0,105.6,0,158.4c0,31.4,0,62.7,0,94.1C494.8,840.3,496.9,852,486.6,852.8z
			"/>
		<path d="M460,790.9c1.2,0.1,2.4-0.7,2.4-2.2c0-23.7,0-47.4,0-71.1c0-56.4,0-112.8,0-169.2c0-68.7,0-137.4,0-206
			c0-59,0-117.9,0-176.9c0-19.6,0-39.2,0-58.8c0-8.9,1.3-19,0-27.9c-0.1-0.4,0-0.8,0-1.2c0-0.8-0.3-1.3-0.8-1.7
			c0.1-1.2-0.6-2.5-2.2-2.6c-13.1-0.5-25.3-13.8-25.8-26.7c0-0.5-0.2-0.8-0.4-1.1c-0.3-0.6-1-1.1-1.9-1.1c-40.5,0-80.9,0-121.4,0
			c-64.5,0-129,0-193.6,0c-14.9,0-29.7,0-44.6,0c-0.9,0-1.6,0.5-1.9,1.1c-0.2,0.3-0.3,0.7-0.4,1.2C69.1,59.5,57,72.8,43.9,73.3
			c-1.8,0.1-2.5,1.9-2,3.2c-0.1,0.3-0.2,0.6-0.2,1c0,23.7,0,47.4,0,71.1c0,56.4,0,112.8,0,169.2c0,68.7,0,137.4,0,206
			c0,59,0,117.9,0,176.9c0,19.6,0,39.2,0,58.8c0,8.9-1.3,19,0,27.9c0.1,0.4,0,0.8,0,1.2c0,0.9,0.5,1.6,1.1,1.9
			c0.3,0.2,0.7,0.3,1.2,0.4c13,0.5,25.3,13.3,25.8,26.2c0,0.5,0.2,0.8,0.4,1.1c0.3,0.6,1,1.1,1.9,1.1c40.5,0,80.9,0,121.4,0
			c64.5,0,129,0,193.6,0c14.9,0,29.7,0,44.6,0c0.9,0,1.6-0.5,1.9-1.1c0.2-0.3,0.3-0.7,0.4-1.2c0.5-12.9,12.7-25.7,25.8-26.2
			C459.6,791,459.8,790.9,460,790.9z M429.3,814.9c-39.8,0-79.6,0-119.3,0c-64.5,0-129,0-193.6,0c-14.2,0-28.3,0-42.5,0
			c-1.7-13.9-13.9-26.5-27.8-28.3c0-23,0-46,0-69.1c0-56.4,0-112.8,0-169.2c0-68.7,0-137.4,0-206c0-59,0-117.9,0-176.9
			c0-19.6,0-39.2,0-58.8c0-8.9,1.3-19,0-27.9c-0.1-0.4,0-0.8,0-1.2c14-1.8,26.1-14.9,27.8-28.7c39.8,0,79.6,0,119.3,0
			c64.5,0,129,0,193.6,0c14.2,0,28.3,0,42.5,0c1.7,14.1,14.3,27.4,28.5,28.8c0,23.7,0,47.3,0,71c0,56.4,0,112.8,0,169.2
			c0,68.7,0,137.4,0,206c0,59,0,117.9,0,176.9c0,19.6,0,39.2,0,58.8c0,8.6-1.2,18.4-0.1,27C443.6,788.1,431.1,800.9,429.3,814.9z"/>
		<path d="M232.9,102.7c0.3,0,0.6,0.1,0.9,0.4c0.3,0.3,0.5,0.4,0.6,0.2c0.1-0.2,1.5-0.4,4-0.4c2.1,0,3.2,0.1,3.2,0.3
			c0,0.2,0.2,0.3,0.5,0.3c0.4,0,0.6-0.1,0.6-0.2s0.2-0.3,0.6-0.5c0.4-0.2,0.6-0.4,0.6-0.6c0-0.9-0.7-1.4-1.9-1.5l-1.3-0.1l0.1-6.7
			c0.1-4.5,0.2-6.8,0.3-7c0.1-0.1,0.2-0.8,0.3-1.9c0.1-2.1,0.4-3.2,0.7-3.2c0.2,0,0.4-0.1,0.4-0.3c0-0.2,0.2-0.3,0.7-0.3
			c0.4,0,0.8-0.1,1-0.3c0.3-0.2,0.4-0.5,0.4-0.7c0-0.3-0.2-0.6-0.5-0.8c-0.3-0.2-1.4-0.3-3.4-0.3c-2,0-2.9,0.1-2.9,0.3
			c0,0.1-0.3,0.2-0.9,0.2c-0.6,0-0.9,0.1-0.9,0.4s-0.1,0.4-0.3,0.4c-0.2,0-0.3,0.2-0.3,0.6c0,0.5,0.1,0.8,0.4,0.9
			c0.3,0.1,0.4,0.9,0.4,2.5c0,1.6,0.1,2.4,0.3,2.5c0.2,0.1,0.3,0.8,0.3,2.2c0,1.3-0.1,2-0.3,2.1c-0.2,0.1-0.4,1.5-0.4,4.3
			c-0.1,2.4-0.2,3.9-0.4,4.3c-0.2,0.5-0.8,0.8-1.8,0.9c-0.6,0-0.9,0.1-1,0.2c-0.1,0.1-0.2,0.4-0.2,0.8
			C232.5,102.4,232.6,102.7,232.9,102.7z M239,88c0.3,0,0.4,0.2,0.4,0.6c0,0.4-0.1,0.5-0.4,0.5c-0.3,0-0.4-0.2-0.4-0.5
			C238.6,88.2,238.7,88,239,88z M237.3,96c0.2,0,0.4,0.1,0.4,0.3c0,0.2-0.1,0.3-0.4,0.3c-0.3,0-0.4-0.1-0.4-0.3
			C236.9,96.1,237.1,96,237.3,96z"/>
		<path d="M247.9,103.7c0.1,0,0.3-0.1,0.4-0.4c0.1-0.2,1.2-0.4,3.4-0.4c1.4,0,2.3,0,2.7,0.1c0.4,0.1,0.6,0.2,0.6,0.4
			c0,0.3,0.1,0.4,0.3,0.1c0.2-0.2,0.4-0.3,0.5-0.2c0,0,0.1,0.1,0.2,0.1c0.2,0,0.4-0.1,0.7-0.4c0.3-0.2,0.4-0.5,0.5-0.8
			c0.1-0.3,0.1-0.5-0.1-0.6c-0.1-0.1-0.4-0.2-0.9-0.2c-1.2-0.2-1.8-0.6-1.8-1.2c0-0.2,0.1-0.3,0.4-0.3c0.3,0,0.4-0.2,0.4-0.7
			c0-0.5,0.1-0.7,0.4-0.7c0.3,0,0.4-0.1,0.4-0.4c0-0.2,0.2-0.5,0.7-1c0.5-0.4,0.7-0.7,0.6-0.8v-0.3c0-0.5,0.1-1,0.4-1.5
			c0.3-0.5,0.6-0.7,0.9-0.7c0.1,0,0.2,0,0.2,0.1c0.3,0.1,0.5,0.3,0.5,0.6c0,0.2,0.3,0.6,0.8,1.3c0.5,0.7,0.8,1.1,0.8,1.2
			c0,0.2,0.1,0.3,0.4,0.4c0.2,0.1,0.4,0.4,0.5,0.9c0.1,0.3,0.2,0.5,0.3,0.7c0.2,0.1,0.4,0.2,0.8,0.3l0.9,0.3l-0.9,0.1
			c-0.6,0.1-0.9,0.3-0.9,0.6c0,0.8-0.5,1.2-1.4,1.2c-0.3,0-0.5,0-0.6,0.1c-0.1,0.1-0.2,0.3-0.2,0.6v0.7h3.6c2.4,0,3.6,0.1,3.7,0.4
			c0.1,0.3,0.3,0.3,0.6-0.1c0.3-0.3,0.8-0.4,1.5-0.3l1.1,0.2v-0.9c0-0.5-0.1-0.8-0.2-0.9c-0.1-0.2-0.4-0.3-0.9-0.5
			c-0.7-0.3-1.1-0.5-1.1-0.6c0-0.1-0.3-0.3-0.8-0.6c-0.5-0.3-0.8-0.5-0.8-0.7c0-0.4-0.1-0.7-0.4-1.2c-0.3-0.4-0.5-0.6-0.7-0.6
			c-0.1,0-0.3-0.3-0.5-0.8c-0.2-0.6-0.4-0.8-0.6-0.8c-0.2,0-0.4-0.2-0.5-0.5c-0.1-0.4-0.6-0.9-1.4-1.8c-0.8-0.8-1.3-1.3-1.5-1.3
			c-0.1,0-0.2-0.1-0.2-0.4c0-0.8,0.4-1.7,1.2-2.6c0.6-0.6,0.9-1.1,0.9-1.4c0-0.2,0.3-0.6,0.8-1.1c0.5-0.5,0.9-0.8,1.1-0.8
			c0.2,0,0.3-0.2,0.3-0.5c0-0.9,0.3-1.4,0.8-1.4c0.4,0,0.5-0.1,0.5-0.3c0-0.2,0.2-0.4,0.5-0.7c0.3-0.2,0.6-0.4,0.9-0.4
			c0.4,0,0.6-0.2,0.9-0.6L269,81l0.2,0.6c0.1,0.4,0.3,0.6,0.6,0.6c0.2,0,0.4-0.2,0.5-0.5c0.1-0.4,0.4-0.6,0.7-0.6
			c0.2,0,0.4-0.1,0.5-0.2c0.1-0.1,0.1-0.4,0.1-0.9c0-1-0.1-1.6-0.4-1.7c-0.2-0.2-1.1-0.2-2.4-0.2c-1.6,0-2.4,0.1-2.4,0.4
			s-0.7,0.4-2,0.6c-2,0.1-2.9,0.6-2.9,1.4c0,0.3,0.1,0.7,0.3,1.1c0.2,0.4,0.4,0.6,0.6,0.6c0.2,0,0.4,0.2,0.7,0.6
			c0.3,0.4,0.2,0.8-0.1,1.1c-0.4,0.4-0.4,0.5-0.3,0.5c0.1,0,0.1,0.2-0.3,0.7c-0.3,0.4-0.4,0.8-0.4,1.2c0,0.2-0.2,0.6-0.7,1.1
			c-0.5,0.5-0.7,0.9-0.7,1c0,0.3-0.3,0.4-0.9,0.4c-0.4,0-0.7,0-0.8-0.1c-0.1-0.1-0.2-0.4-0.3-0.8c-0.1-0.7-0.4-1.1-0.7-1.4
			c-0.4-0.2-0.6-0.6-0.6-1.1c0-0.5-0.1-0.8-0.4-1c-0.2-0.1-0.4-0.5-0.6-1.2c-0.1-0.7-0.2-1.2-0.2-1.5s0.1-0.5,0.2-0.5
			c0.1-0.1,0.4-0.1,0.7-0.2c0.5-0.1,0.8-0.1,1-0.2c0.2-0.1,0.3-0.3,0.3-0.6c0-0.2,0-0.5-0.1-0.6l-0.2-0.9l-2.4,0.2
			c-1.6,0.1-2.4,0.2-2.5,0.4c-0.1,0.2-0.4,0.3-0.8,0.3c-0.4,0-0.6-0.1-0.6-0.3c0-0.2-0.2-0.3-0.5-0.5c-0.4-0.2-0.7-0.2-1.1-0.2
			c-0.6,0-0.9,0.2-0.9,0.6c0,0.2-0.2,0.4-0.7,0.4c-0.2,0-0.4,0.1-0.4,0.2c0.2,0.1,0.4,0.3,0.4,0.6c0,0.4,0.1,0.5,0.4,0.5
			c0.2,0,0.4,0.1,0.6,0.4c0.1,0.3,0.5,0.5,1.1,0.6c0.7,0.1,1.1,0.4,1.3,0.8c0.2,0.4,0.4,0.6,0.7,0.6c0.2,0,0.3,0.3,0.3,0.8
			s0.1,0.8,0.4,0.8c0.3,0,0.4,0.2,0.4,0.5c0,0.4,0.2,0.7,0.6,0.9c0.2,0.2,0.4,0.4,0.3,0.6c0,0.2,0.1,0.4,0.3,0.5
			c0.3,0.1,0.6,0.4,0.7,0.9c0.3,0.6,0.5,0.8,0.6,0.8c0.1,0,0.2,0.2,0.2,0.5c0,0.3,0.2,0.5,0.6,0.7c0.3,0.1,0.4,0.3,0.4,0.6
			c0,0.1,0,0.3-0.1,0.5c-0.1,0.2-0.1,0.4-0.1,0.6c0,0.2-0.2,0.4-0.5,0.5c-0.4,0.1-0.6,0.4-0.7,1c-0.1,0.6-0.3,0.8-0.4,0.8
			c-0.2,0-0.6,0.3-1.1,0.9c-0.5,0.6-0.8,1.1-0.8,1.3c0,0.3-0.1,0.5-0.4,0.5c-0.3,0-0.4,0.1-0.4,0.4s-0.2,0.5-0.7,0.7
			c-0.5,0.2-0.7,0.6-0.7,1.2c0,0.3,0,0.5-0.1,0.6c-0.1,0.1-0.2,0.2-0.4,0.2c-0.2,0-0.6,0.1-1.2,0.1c-0.9,0.1-1.5,0.2-1.8,0.4
			c-0.2,0.2-0.4,0.7-0.4,1.5C247.5,103.4,247.6,103.7,247.9,103.7z M259.3,93c0.2,0,0.3,0.1,0.3,0.3c0,0.2-0.1,0.3-0.3,0.3
			c-0.2,0-0.3-0.1-0.3-0.3C259.1,93.1,259.2,93,259.3,93z M255,81c0,0-0.1-0.1-0.1-0.3c0-0.1,0-0.2,0-0.3c0-0.1,0-0.1,0.1-0.1
			l0.1,0.2C255.2,80.8,255.1,81,255,81z M255.6,85.6c-0.1,0-0.1-0.1-0.1-0.2c0-0.1,0-0.1,0.1-0.1c0.1,0,0.2,0,0.2,0.1
			C255.8,85.5,255.7,85.6,255.6,85.6z M256.1,87.4l-0.1-0.3c0-0.1,0-0.2,0-0.3c0-0.1,0-0.1,0.1-0.1C256.3,87,256.2,87.2,256.1,87.4z
			"/>
		<path d="M250.8,86.7c0-0.2,0-0.4-0.1-0.6c-0.1-0.4-0.3-0.4-0.6-0.1c-0.1,0.1,0,0.4,0.3,0.8l0.4,0.7L250.8,86.7z"/>
		<path d="M151.5,781.6c-0.1,0-0.2,0-0.3,0.1c-0.2,0.1-0.3,0.1-0.3,0.1c-0.1,0-0.1-0.1-0.2-0.2c-0.1-0.2-0.3-0.3-0.4-0.3
			c-0.1,0-0.2-0.1-0.2-0.3c0-0.2-0.1-0.3-0.3-0.3c-0.2,0-0.3,0.1-0.3,0.3c0,0.2,0.1,0.3,0.2,0.3s0.2,0.1,0.2,0.3
			c0,0.2-0.1,0.3-0.2,0.3c-0.2,0-0.3-0.1-0.3-0.4c-0.1-0.2-0.2-0.4-0.3-0.4c-0.1,0-0.1,0-0.2,0.1c-0.2,0.2-0.2,0.3,0,0.3
			c0.1,0,0.2,0.1,0.2,0.1c0,0.1-0.1,0.2-0.4,0.2c-0.2,0-0.4,0-0.4-0.1c0-0.1-0.1-0.1-0.4-0.1c-0.4,0-0.8,0.1-1.1,0.2
			c-0.4,0.2-0.6,0.4-0.6,0.7c0,0.3,0.3,0.5,0.8,0.6c0.4,0.1,0.6,0.1,0.6,0.2c0,0.1,0.1,0.1,0.3,0.1c0.3,0,0.5,0.2,0.6,0.6
			c0.1,0.4,0.2,1.2,0.2,2.4c0,1.4,0.1,2.2,0.1,2.4c0.1,0.1,0,0.3,0,0.6l-0.1,0.4l-0.5-0.5c-0.4-0.3-0.5-0.5-0.5-0.6
			c0-0.1-0.1-0.2-0.2-0.3c-0.1-0.1-0.3-0.2-0.4-0.4c-0.2-0.1-0.3-0.2-0.3-0.2c-0.1-0.1-0.3-0.2-0.3-0.2c-0.1,0-0.2-0.1-0.2-0.2
			c0-0.1-0.1-0.2-0.2-0.3c-0.1-0.1-0.3-0.2-0.4-0.2c-0.1,0-0.1-0.1-0.1-0.2c0-0.1-0.1-0.2-0.2-0.2c-0.1,0-0.1,0-0.1-0.1
			c0-0.1-0.1-0.2-0.4-0.5c-0.2-0.3-0.4-0.4-0.4-0.5c0-0.1-0.1-0.2-0.3-0.2c-0.2,0-0.3-0.1-0.5-0.2c-0.2-0.1-0.2-0.3-0.2-0.4
			c0-0.1-0.2-0.3-0.5-0.7c-0.3-0.4-0.5-0.6-0.5-0.7c0-0.1-0.1-0.2-0.3-0.4c-0.2-0.2-0.3-0.4-0.3-0.4c0-0.3-0.6-0.5-1.8-0.6
			c-0.6,0-0.9-0.1-0.9-0.1c-0.3,0-0.4,0.1-0.4,0.2c0,0.1,0,0.2,0,0.4c0,0.2,0,0.4,0.1,0.6c0.1,0.2,0.1,0.3,0.2,0.3
			c0.1,0,0.2,0.2,0.3,0.6c0.1,0.4,0.2,0.6,0.2,0.6c0.1,0,0.1,0.3,0.1,0.8c0,0.5,0,0.8-0.1,0.8c-0.1,0-0.1,0.1-0.1,0.4
			c0,0.2,0.1,0.6,0.2,1c0.1,0.2,0.1,0.6,0.1,1.1c0,0.7-0.1,1.1-0.2,1.1c-0.1,0-0.1,0.2-0.1,0.7c0,0.5,0,1.1-0.1,1.5
			c0,0.4-0.1,0.6-0.1,0.7c-0.1,0.1-0.2,0.2-0.4,0.2c-0.3,0.1-0.4,0.2-0.4,0.4c0,0.2,0.1,0.4,0.4,0.6c0.2,0.2,0.3,0.3,0.5,0.3
			c0.2,0,0.8,0,1.7,0c1,0,1.6,0,1.8-0.1c0.2-0.1,0.3-0.3,0.3-0.8c0-0.3-0.1-0.4-0.3-0.5c-0.2-0.1-0.3-0.1-0.3-0.2
			c0-0.1-0.2-0.1-0.6-0.1c-0.4,0-0.7-0.1-0.9-0.3c-0.2-0.2-0.2-0.3-0.1-0.4c0.1-0.1,0.2-0.2,0.2-0.6c0-0.3,0-0.5-0.1-0.5
			c-0.1-0.1-0.1-0.9-0.1-2.6c0-1.7,0.1-2.5,0.2-2.5c0.1,0,0.3,0.1,0.4,0.2c0.1,0.1,0.3,0.2,0.5,0.3c0.3,0.1,0.4,0.3,0.5,0.4
			c0,0.2,0.3,0.5,0.8,1.1c0.5,0.5,0.9,0.9,1.3,1.1c0.2,0.1,0.3,0.2,0.3,0.3c0,0.1,0.2,0.2,0.5,0.6c0.7,0.7,1.1,1.1,1.1,1.4
			c0,0.1,0.1,0.1,0.3,0.1c0.2,0,0.3,0,0.3,0.1c0,0.1,0.1,0.3,0.4,0.5c0.2,0.2,0.4,0.4,0.4,0.6c0,0.1,0.1,0.3,0.3,0.5
			c0.2,0.2,0.3,0.3,0.4,0.3c0.1,0,0.3,0.2,0.6,0.5c0.3,0.3,0.5,0.5,0.7,0.6c0.1,0.1,0.2,0.1,0.3,0.1c0.4,0,0.6-0.2,0.6-0.6
			c0-0.1,0-0.2,0-0.4c0-0.9-0.1-1.4-0.2-1.6c-0.1-0.1-0.1-0.5-0.1-1.3v-0.4c0-1,0-1.6-0.1-1.6c-0.1-0.1-0.2-0.4-0.2-1
			c0-0.5,0-0.8,0.1-0.8c0.1-0.1,0.2-0.2,0.2-0.5s0-0.4,0.1-0.4c0.1,0,0.1-0.1,0.1-0.4s0-0.4-0.1-0.4c-0.1,0-0.1-0.1-0.1-0.4
			c0-0.4,0.1-0.7,0.2-1c0.2-0.3,0.4-0.5,0.7-0.5c0.2,0,0.4-0.1,0.4-0.1c0.1,0,0.1-0.2,0.1-0.5v-0.2
			C151.8,781.8,151.7,781.6,151.5,781.6z"/>
		<path d="M162.9,781.9c-1,0-1.5,0-1.5,0.1c0,0.1-0.2,0.1-0.5,0.1c-0.3,0-0.5,0.1-0.5,0.2c0,0.1,0,0.2-0.1,0.2
			c-0.1,0-0.1,0.1-0.1,0.3c0,0.3,0.1,0.4,0.2,0.5c0.1,0.1,0.2,0.5,0.2,1.3c0,0.8,0,1.2,0.1,1.3c0.1,0,0.1,0.4,0.1,1.1
			c0,0.7,0,1-0.1,1.1c-0.1,0-0.2,0.8-0.2,2.2c0,1.2-0.1,2-0.2,2.2c-0.1,0.2-0.4,0.4-0.9,0.5c-0.3,0-0.5,0.1-0.5,0.1
			c-0.1,0.1-0.1,0.2-0.1,0.4c0,0.3,0.1,0.5,0.2,0.5c0.2,0,0.3,0.1,0.5,0.2c0.2,0.2,0.3,0.2,0.3,0.1c0.1-0.1,0.8-0.2,2.1-0.2
			c1.1,0,1.6,0.1,1.6,0.2c0,0.1,0.1,0.1,0.3,0.1c0.2,0,0.3,0,0.3-0.1c0-0.1,0.1-0.2,0.3-0.3c0.2-0.1,0.3-0.2,0.3-0.3
			c0-0.5-0.4-0.7-1-0.8l-0.6-0.1l0.1-3.5c0-2.3,0.1-3.5,0.2-3.6c0.1-0.1,0.1-0.4,0.1-1c0.1-1.1,0.2-1.6,0.4-1.6c0.1,0,0.2,0,0.2-0.1
			c0-0.1,0.1-0.2,0.4-0.2c0.2,0,0.4-0.1,0.5-0.2c0.1-0.1,0.2-0.2,0.2-0.4c0-0.2-0.1-0.3-0.2-0.4C164.5,782,163.9,781.9,162.9,781.9z
			 M161.2,790.9c-0.1,0-0.2,0-0.2-0.1c0-0.1,0.1-0.1,0.2-0.1c0.1,0,0.2,0,0.2,0.1C161.4,790.9,161.3,790.9,161.2,790.9z M162,787.1
			c-0.1,0-0.2-0.1-0.2-0.3c0-0.2,0.1-0.3,0.2-0.3c0.1,0,0.2,0.1,0.2,0.3C162.3,787,162.2,787.1,162,787.1z"/>
		<path d="M184.9,782c-0.1,0-0.2,0-0.3,0.1c-0.2,0.1-0.3,0.1-0.3,0.1c-0.1,0-0.1-0.1-0.2-0.2c-0.1-0.2-0.3-0.3-0.4-0.3
			c-0.1,0-0.2-0.1-0.2-0.3c0-0.2-0.1-0.3-0.3-0.3c-0.2,0-0.3,0.1-0.3,0.3c0,0.2,0.1,0.3,0.2,0.3s0.2,0.1,0.2,0.3
			c0,0.2-0.1,0.3-0.2,0.3c-0.2,0-0.3-0.1-0.3-0.4c-0.1-0.2-0.2-0.4-0.3-0.4c-0.1,0-0.1,0-0.2,0.1c-0.2,0.2-0.2,0.3,0,0.3
			c0.1,0,0.2,0.1,0.2,0.1c0,0.1-0.1,0.2-0.4,0.2c-0.2,0-0.4,0-0.4-0.1c0-0.1-0.1-0.1-0.4-0.1c-0.4,0-0.8,0.1-1.1,0.2
			c-0.4,0.2-0.6,0.4-0.6,0.7c0,0.3,0.3,0.5,0.8,0.6c0.4,0.1,0.6,0.1,0.6,0.2c0,0.1,0.1,0.1,0.3,0.1c0.3,0,0.5,0.2,0.6,0.6
			c0.1,0.4,0.2,1.2,0.2,2.4c0,1.4,0.1,2.2,0.1,2.4c0.1,0.1,0,0.3,0,0.6l-0.1,0.4l-0.5-0.5c-0.4-0.3-0.5-0.5-0.5-0.6
			c0-0.1-0.1-0.2-0.2-0.3c-0.1-0.1-0.3-0.2-0.4-0.4c-0.2-0.1-0.3-0.2-0.3-0.2c-0.1-0.1-0.3-0.2-0.3-0.2c-0.1,0-0.2-0.1-0.2-0.2
			c0-0.1-0.1-0.2-0.2-0.3c-0.1-0.1-0.3-0.2-0.4-0.2c-0.1,0-0.1-0.1-0.1-0.2c0-0.1-0.1-0.2-0.2-0.2c-0.1,0-0.1,0-0.1-0.1
			c0-0.1-0.1-0.2-0.4-0.5c-0.2-0.3-0.4-0.4-0.4-0.5c0-0.1-0.1-0.2-0.3-0.2c-0.2,0-0.3-0.1-0.5-0.2c-0.2-0.1-0.2-0.3-0.2-0.4
			c0-0.1-0.2-0.3-0.5-0.7c-0.3-0.4-0.5-0.6-0.5-0.7c0-0.1-0.1-0.2-0.3-0.4c-0.2-0.2-0.3-0.4-0.3-0.4c0-0.3-0.6-0.5-1.8-0.6
			c-0.6,0-0.9-0.1-0.9-0.1c-0.3,0-0.4,0.1-0.4,0.2c0,0.1,0,0.2,0,0.4c0,0.2,0,0.4,0.1,0.6c0.1,0.2,0.1,0.3,0.2,0.3
			c0.1,0,0.2,0.2,0.3,0.6c0.1,0.4,0.2,0.6,0.2,0.6c0.1,0,0.1,0.3,0.1,0.8c0,0.5,0,0.8-0.1,0.8c-0.1,0-0.1,0.1-0.1,0.4
			c0,0.2,0.1,0.6,0.2,1c0.1,0.2,0.1,0.6,0.1,1.1c0,0.7-0.1,1.1-0.2,1.1c-0.1,0-0.1,0.2-0.1,0.7c0,0.5,0,1.1-0.1,1.5
			c0,0.4-0.1,0.6-0.1,0.7c-0.1,0.1-0.2,0.2-0.4,0.2c-0.3,0.1-0.4,0.2-0.4,0.4c0,0.2,0.1,0.4,0.4,0.6c0.2,0.2,0.3,0.3,0.5,0.3
			c0.2,0,0.8,0,1.7,0c1,0,1.6,0,1.8-0.1c0.2-0.1,0.3-0.3,0.3-0.8c0-0.3-0.1-0.4-0.3-0.5c-0.2-0.1-0.3-0.1-0.3-0.2
			c0-0.1-0.2-0.1-0.6-0.1c-0.4,0-0.7-0.1-0.9-0.3c-0.2-0.2-0.2-0.3-0.1-0.4c0.1-0.1,0.2-0.2,0.2-0.6c0-0.3,0-0.5-0.1-0.5
			c-0.1-0.1-0.1-0.9-0.1-2.6c0-1.7,0.1-2.5,0.2-2.5c0.1,0,0.3,0.1,0.4,0.2c0.1,0.1,0.3,0.2,0.5,0.3c0.3,0.1,0.4,0.3,0.5,0.4
			c0,0.2,0.3,0.5,0.8,1.1c0.5,0.5,0.9,0.9,1.3,1.1c0.2,0.1,0.3,0.2,0.3,0.3c0,0.1,0.2,0.2,0.5,0.6c0.7,0.7,1.1,1.1,1.1,1.4
			c0,0.1,0.1,0.1,0.3,0.1c0.2,0,0.3,0,0.3,0.1c0,0.1,0.1,0.3,0.4,0.5c0.2,0.2,0.4,0.4,0.4,0.6c0,0.1,0.1,0.3,0.3,0.5
			c0.2,0.2,0.3,0.3,0.4,0.3c0.1,0,0.3,0.2,0.6,0.5c0.3,0.3,0.5,0.5,0.7,0.6c0.1,0.1,0.2,0.1,0.3,0.1c0.4,0,0.6-0.2,0.6-0.6
			c0-0.1,0-0.2,0-0.4c0-0.9-0.1-1.4-0.2-1.6c-0.1-0.1-0.1-0.5-0.1-1.3v-0.4c0-1,0-1.6-0.1-1.6c-0.1-0.1-0.2-0.4-0.2-1
			c0-0.5,0-0.8,0.1-0.8c0.1-0.1,0.2-0.2,0.2-0.5s0-0.4,0.1-0.4c0.1,0,0.1-0.1,0.1-0.4c0-0.3,0-0.4-0.1-0.4c-0.1,0-0.1-0.1-0.1-0.4
			c0-0.4,0.1-0.7,0.2-1c0.2-0.3,0.4-0.5,0.7-0.5c0.2,0,0.4-0.1,0.4-0.1c0.1,0,0.1-0.2,0.1-0.5v-0.2C185.2,782.3,185.1,782,184.9,782
			z"/>
		<path d="M202.5,790.2c-0.1,0-0.3,0.2-0.5,0.5c-0.3,0.3-0.4,0.6-0.4,0.7c0,0.1-0.1,0.2-0.4,0.2c-0.1,0-0.2,0-0.3,0.1
			c0,0-0.1,0.1-0.1,0.1c0,0,0,0.1,0,0.3c0,0.2-0.1,0.3-0.4,0.3c0,0-0.1,0-0.1,0c-0.1,0-0.1,0-0.2,0c-0.2,0-0.4,0.1-0.6,0.3
			c-0.2,0.2-0.4,0.3-0.6,0.3c-0.1,0-0.2-0.1-0.2-0.2c0-0.1-0.1-0.1-0.4,0c-0.2,0.1-0.6,0.2-1.2,0.2c-0.5,0-0.7,0-0.7-0.1
			c0-0.1-0.1-0.1-0.2-0.1c-0.1,0-0.1-0.1-0.2-0.2s-0.1-0.3-0.1-0.4c0-0.1,0-0.2,0-0.3c0-0.2,0-0.4,0-0.6c0-0.3,0-0.5,0-0.8
			c0-0.3,0-0.5,0-0.8s0-0.5,0-0.6v-0.2c0-0.1,0.4-0.1,1.3-0.1c0.7,0,1.2,0.1,1.4,0.2c0.2,0.1,0.4,0.4,0.4,0.8c0,0.2,0,0.3,0.1,0.3
			c0,0,0.1,0,0.2,0c0.1-0.1,0.3-0.1,0.5-0.1c0.1,0,0.2,0,0.3-0.1c0-0.1,0.1-0.2,0.1-0.5c0-0.1,0-0.2,0-0.3c0-0.2,0-0.3,0-0.4v-0.2
			c0-0.3,0-0.6,0.1-0.7c0.1-0.1,0.1-0.3,0-0.4c-0.1-0.1-0.1-0.3,0.1-0.4c0.1-0.1,0.2-0.2,0.2-0.4c0-0.3-0.3-0.4-1-0.4
			c-0.4,0-0.6,0.2-0.6,0.5c0,0.1,0,0.2,0.1,0.3c0,0.2,0,0.4,0,0.5c-0.1,0.1-0.3,0.2-0.9,0.3c-0.5,0.1-1,0.1-1.5,0.1h-0.6v-0.6
			c0-0.4,0.1-0.6,0.2-0.6c0.1,0,0.2-0.1,0.2-0.4c0-0.3-0.1-0.5-0.2-0.9c-0.1-0.2-0.2-0.4-0.1-0.4c0-0.1,0.1-0.1,0.2-0.3
			c0.2-0.1,0.3-0.3,0.2-0.5c0,0,0-0.1,0-0.2c0-0.1,0.1-0.3,0.4-0.3c0.3-0.1,0.7-0.1,1.5-0.2c0.7,0,1.1-0.1,1.1-0.1
			c0.3,0,0.5,0.1,0.6,0.2c0.1,0.2,0.3,0.3,0.5,0.4c0.2,0.1,0.3,0.2,0.3,0.3c0,0.1,0.1,0.2,0.3,0.3c0.2,0.1,0.3,0.2,0.3,0.3
			c0,0.2,0.1,0.3,0.3,0.5c0.2,0.2,0.4,0.2,0.6,0.2h0c0.3,0,0.4-0.2,0.4-0.6c0-0.2-0.1-0.3-0.2-0.5c-0.1-0.1-0.2-0.3-0.2-0.5
			c0-0.3-0.1-0.5-0.2-0.5c-0.1,0-0.1-0.1,0-0.4c0.1-0.1,0.1-0.2,0.1-0.3c0,0-0.1-0.1-0.1-0.1c-0.1-0.1-0.2-0.2-0.2-0.3
			s-0.1-0.3-0.3-0.5c-0.2-0.2-0.4-0.3-0.6-0.1c-0.3,0.1-1.8,0.3-4.7,0.4h-0.7c-1.5,0-2.2-0.1-2.3-0.3c0-0.1-0.1-0.1-0.2-0.1
			c-0.1,0-0.2,0-0.2,0.1l0,0.1c0,0.1,0,0.1,0,0.1c0,0,0,0.1,0,0.2c0,0.1,0,0.2,0,0.2c0,0.2-0.1,0.3-0.3,0.3
			c-0.2,0.1-0.3,0.2-0.2,0.5c0.1,0.2,0.1,0.4,0.2,0.5c0.1,0.1,0.2,0.1,0.3,0.1c0.1,0,0.3,0,0.4,0c0.1,0,0.2,0,0.4,0
			c0.3,0,0.5,0.1,0.6,0.4c0.1,0.2,0.1,0.7,0.1,1.4c0,0.9-0.1,1.4-0.2,1.4c-0.1,0-0.1,0.2,0,0.4c0.1,0.2,0.1,0.4,0,0.6
			c-0.1,0.2-0.2,0.3-0.3,0.3c-0.1,0-0.1,0.1,0.1,0.2c0.1,0.1,0.1,0.3,0.1,0.6c0,0.5-0.1,1.5-0.2,2.8l-0.1,0.9h-0.6
			c-0.4,0-0.6,0.1-0.6,0.3c0,0.2-0.1,0.3-0.3,0.3c-0.1,0-0.2,0.1-0.2,0.3c0,0.3,0.1,0.5,0.3,0.6c0.2,0.1,0.3,0.2,0.3,0.4
			c0,0.1,0.2,0.1,0.7,0.1c0.5,0,0.8-0.1,0.9-0.3c0.1-0.1,0.5-0.2,1.2-0.2c0.5,0,0.9,0,1.3,0c0.7,0,1.1,0.1,1.2,0.2
			c0,0.1,0.2,0.1,0.4,0c0.2-0.1,0.7-0.2,1.5-0.2c0.8,0,1.3,0,1.5-0.1c0.2,0,0.3-0.1,0.5-0.3c0.2-0.2,0.3-0.3,0.2-0.5
			c0-0.2,0-0.3,0.1-0.4c0.1-0.1,0.2-0.3,0.2-0.8c0-0.3,0-0.5,0-0.6c0-0.1,0.1-0.1,0.2-0.1c0.2,0,0.3-0.2,0.3-0.5
			c0-0.2-0.1-0.4-0.2-0.6C202.7,790.3,202.6,790.2,202.5,790.2z"/>
		<path d="M192.4,792c0.1-0.2,0.1-0.3,0-0.3c-0.1,0-0.2,0.1-0.2,0.2c0,0.1,0,0.2,0.1,0.2C192.3,792.1,192.4,792.1,192.4,792z"/>
		<path d="M234.4,785.7c-0.2-0.1-0.2-0.2-0.2-0.5c0-0.3,0-0.5-0.1-0.5c-0.1,0-0.1-0.1-0.1-0.4s-0.1-0.4-0.2-0.4
			c-0.1,0-0.2-0.1-0.3-0.3c-0.1-0.2-0.2-0.3-0.3-0.4c-0.1-0.1-0.2-0.2-0.2-0.4c0-0.2-0.1-0.3-0.4-0.3c-0.7,0-1-0.1-1-0.4
			c0-0.1-0.1-0.2-0.2-0.2c-0.1,0-0.2,0-0.2-0.1c0-0.1-0.1-0.1-0.3-0.1c-0.2,0-0.3-0.1-0.4-0.2c0-0.1-0.5-0.2-1.5-0.2
			c-0.9,0-1.5,0.1-1.6,0.2c-0.1,0.1-0.2,0.2-0.4,0.2c-0.2,0-0.3,0.1-0.4,0.3c-0.1,0.2-0.3,0.4-0.6,0.4c-0.3,0-0.6,0.1-1.1,0.2
			c-0.5,0.1-0.7,0.3-0.8,0.5c0,0.2-0.2,0.4-0.5,0.7c-0.3,0.3-0.4,0.5-0.4,0.5c0,0.1-0.1,0.1-0.2,0.1c-0.1,0-0.2,0.1-0.3,0.4
			c-0.1,0.2-0.2,0.5-0.3,0.7c-0.2,0.3-0.2,0.8-0.2,1.8c0,1.2,0.1,2.1,0.4,2.9c0.5,1.4,0.9,2.2,1.2,2.3c0.2,0,0.3,0.1,0.3,0.3
			c0,0.2,0.2,0.2,0.4,0.2c0.2,0,0.4,0,0.4,0.1s0.1,0.1,0.3,0.1s0.3,0.1,0.3,0.4c0,0.2,0,0.3,0.1,0.4c0.1,0.1,0.2,0,0.4-0.1
			c0.1-0.1,0.2-0.1,0.3,0c0.2,0.1,0.9,0.2,2.2,0.2c1.1,0,1.7-0.1,1.7-0.2c0-0.1,0.3-0.2,0.7-0.2c0.4,0,0.6-0.1,0.6-0.2
			c0-0.2,0.1-0.3,0.2-0.3c0,0,0.2-0.1,0.4-0.3c0.3-0.2,0.4-0.3,0.5-0.3c0.1,0,0.2-0.1,0.2-0.3c0.1-0.2,0.2-0.3,0.3-0.3
			c0.1,0,0.2-0.1,0.3-0.3c0-0.2,0.2-0.3,0.4-0.3c0.2-0.1,0.3-0.1,0.3-0.2c0-0.1,0.1-0.1,0.2-0.1c0.1,0,0.2-0.2,0.2-0.6
			c0-0.3,0-0.5-0.1-0.5c-0.1,0-0.1-0.1,0-0.2c0.1-0.1,0.2-0.8,0.2-2.1c0-0.3,0-0.7,0-1.1C234.6,786,234.5,785.7,234.4,785.7z
			 M232.2,788.8c-0.1,0-0.2,0.2-0.2,0.4c0,0.3-0.1,0.4-0.2,0.5c-0.1,0.1-0.2,0.4-0.3,0.8c-0.1,0.4-0.1,0.6-0.3,0.6
			c-0.1,0-0.2,0-0.2,0.1c0,0.1-0.1,0.2-0.4,0.2c-0.3,0.1-0.4,0.2-0.4,0.3c0,0.1,0,0.2-0.1,0.2c-0.1,0.1-0.2,0.1-0.4,0.2
			c-0.1,0.1-0.2,0.1-0.3,0.1c0,0.1-0.2,0.1-0.4,0.1c-0.2,0-0.3,0.1-0.5,0.2c-0.1,0.1-0.2,0.1-0.4,0.1c-0.2,0-0.4,0-0.7-0.1
			c-0.5-0.1-1-0.3-1.3-0.6c-0.3-0.3-0.7-0.8-1-1.5c-0.3-0.5-0.4-0.9-0.5-1.1c0-0.2-0.1-0.7-0.1-1.4c0-0.7,0-1.1,0.1-1.4
			c0-0.2,0.1-0.5,0.3-0.8c0.3-0.5,0.6-0.9,1-1.3c0.4-0.4,0.8-0.6,1-0.7c0.3,0,0.5-0.1,0.5-0.3c0-0.1,0.1-0.2,0.2-0.2
			c0.1,0,0.2,0,0.2-0.1c0-0.1,0.1-0.1,0.3-0.1c0.2,0,0.3,0,0.3,0.1c0,0.1,0.3,0.1,0.9,0.1c0.5,0,0.8,0.1,0.8,0.2
			c0,0.1,0.1,0.2,0.3,0.3c0.2,0.1,0.3,0.2,0.3,0.3c0,0.1,0.1,0.2,0.3,0.3c0.3,0.1,0.5,0.4,0.5,0.8c0,0.2,0.1,0.5,0.3,0.8
			c0.2,0.3,0.3,0.7,0.3,1.1c0,0.5,0,0.7,0.1,0.8c0.1,0.1,0.1,0.2,0.1,0.4C232.4,788.6,232.3,788.7,232.2,788.8z"/>
		<path d="M252.2,783.9c0-0.3-0.1-0.5-0.2-0.6c-0.1-0.1-0.1-0.2,0-0.4c0.1-0.1,0.1-0.2,0.1-0.2c0-0.1-0.1-0.2-0.2-0.2
			c-0.1-0.1-0.2-0.2-0.2-0.3c0-0.2-0.1-0.3-0.3-0.5c-0.2-0.2-0.4-0.3-0.5-0.3c-0.1,0-0.2,0-0.2,0.1c0,0.1-0.3,0.1-0.9,0.2
			c-0.5,0.1-1.1,0.1-1.7,0.1c-0.6,0-0.9,0-1,0.1c-0.1,0-0.5,0.1-1.4,0.1c-0.9,0.1-1.8,0.2-2.7,0.3c-0.9,0.1-1.4,0.2-1.4,0.2
			c0,0,0,0.1,0,0.2c0,0.1,0,0.2,0.1,0.3c0.1,0.2,0.1,0.3,0.2,0.4c0.1,0,0.3,0.1,0.6,0.1c0.5,0,0.9,0.1,1,0.3
			c0.1,0.2,0.2,0.7,0.2,1.6c0,0.9-0.1,1.4-0.2,1.5c-0.1,0.1-0.1,0.2,0,0.4c0.1,0.3,0.2,0.5,0,0.7c-0.1,0.2-0.2,0.3-0.3,0.3
			c-0.1,0,0,0.1,0.1,0.2c0.1,0.1,0.1,0.3,0.1,0.6c0,0.1,0,0.4-0.1,0.8c-0.1,1.4-0.2,2.3-0.2,2.6s-0.1,0.5-0.3,0.6
			c-0.2,0.1-0.5,0.3-0.8,0.6l-0.5,0.6h5v-0.5c0-0.2,0-0.4-0.1-0.4c0-0.1-0.1-0.1-0.3-0.1c-0.2,0-0.4,0-0.4-0.1
			c0-0.1-0.1-0.1-0.2-0.1s-0.2-0.1-0.3-0.3c0-0.1,0-0.4,0-1.2c0-1.2,0-2.1,0.1-2.8c0-0.1,0.5-0.1,1.4-0.1c0.8,0,1.3,0.1,1.5,0.2
			c0.3,0.1,0.4,0.4,0.4,0.9c0,0.3,0,0.5,0.1,0.5c0.1,0,0.1-0.1,0.3-0.2c0.1-0.1,0.3-0.2,0.5-0.1c0.2,0.1,0.3,0,0.3-0.2
			c0-0.2,0-0.3,0.1-0.4c0.1-0.1,0.1-0.2,0-0.2c-0.1-0.1-0.2-0.3-0.2-0.6c0-0.4,0.1-0.7,0.2-0.8c0.1-0.1,0.1-0.1,0.1-0.2
			c0-0.1,0-0.1-0.1-0.2c-0.1-0.1-0.1-0.2-0.1-0.2c0-0.1,0-0.1,0.1-0.2c0.2-0.1,0.2-0.2,0.2-0.4c0-0.3-0.4-0.4-1.1-0.4
			c-0.4,0-0.6,0.2-0.6,0.5c0,0.1,0,0.2,0.1,0.3c0.1,0.2,0,0.4,0,0.5c-0.1,0.1-0.4,0.2-1,0.3c-0.6,0.1-1.1,0.2-1.6,0.2h-0.5v-0.6
			c0-0.4,0.1-0.6,0.2-0.7c0.1-0.1,0.2-0.2,0.2-0.4c0-0.3-0.1-0.5-0.2-0.8c-0.1-0.2-0.2-0.4-0.2-0.4c0-0.1,0.1-0.1,0.2-0.3
			c0.2-0.2,0.3-0.4,0.2-0.6c0-0.1,0-0.1,0-0.2c0-0.1,0.1-0.2,0.4-0.3c0.3-0.1,0.8-0.1,1.6-0.1c0.7,0,1.1-0.1,1.1-0.1
			c0.3,0,0.5,0.1,0.7,0.2c0.2,0.2,0.3,0.3,0.5,0.4c0.2,0.1,0.3,0.2,0.3,0.3c0,0.1,0.1,0.3,0.3,0.4c0.2,0.1,0.4,0.3,0.5,0.6
			c0.1,0.4,0.4,0.5,0.8,0.5c0.1,0,0.2,0,0.3-0.1c0.1-0.1,0.2-0.2,0.2-0.6c0-0.3-0.1-0.5-0.2-0.5
			C252.2,784.4,252.2,784.2,252.2,783.9z"/>
		<path d="M287.8,782.4c-0.1,0-0.3,0-0.5,0c-0.2,0-0.4,0-0.4,0c-0.4,0-0.6,0-0.7,0.1c-0.1,0-0.3,0.1-0.4,0.3
			c-0.2,0.2-0.3,0.3-0.3,0.4c0,0.1,0,0.1,0.2,0.2c0.3,0.2,0.5,0.2,0.7,0.2c0.3,0,0.4,0.1,0.5,0.3c0.1,0.2,0,0.3-0.1,0.4
			c-0.1,0-0.2,0.2-0.2,0.6s-0.1,0.6-0.2,0.6c-0.2,0.1-0.2,0.2-0.2,0.4v0.4c0,0.6-0.1,0.9-0.3,0.9c-0.1,0-0.2,0.1-0.3,0.3
			c0,0.2-0.1,0.7-0.3,1.5c-0.1,0.4-0.2,0.6-0.4,0.6c-0.1,0-0.2,0.1-0.2,0.2c0,0.1,0,0.2-0.2,0.2c-0.3,0-0.4-0.1-0.5-0.2
			c-0.1-0.2-0.2-0.5-0.3-0.9c-0.1-0.4-0.2-1-0.2-1.7c-0.1-0.5-0.2-0.8-0.3-0.9c-0.1-0.1-0.1-0.4-0.1-0.7c0-0.3,0-0.5-0.1-0.5
			c-0.1,0-0.1-0.1-0.1-0.4c0-0.2-0.1-0.4-0.2-0.5c-0.1-0.1-0.2-0.1-0.2-0.2c0-0.1,0.2-0.2,0.6-0.2c0.4,0,0.7-0.1,0.9-0.3
			c0.1-0.1,0.2-0.2,0.2-0.3s0-0.2-0.1-0.4c-0.1-0.2-0.3-0.4-0.6-0.5c-0.3-0.1-0.8-0.1-1.6-0.1c-0.6,0-1-0.1-1-0.3
			c-0.1-0.2-0.1-0.3-0.2-0.3c-0.1,0-0.2,0.1-0.5,0.3c-0.3,0.2-0.4,0.3-0.5,0.3c-0.3,0-0.5,0.2-0.6,0.6v0.1l0,0.1
			c0,0.3,0.3,0.6,0.9,0.7c0.1,0,0.3,0.1,0.4,0.1c0.1,0.1,0.1,0.2,0.1,0.2s-0.1,0.1-0.2,0.1c-0.1,0-0.1,0.2-0.1,0.6s-0.1,0.6-0.2,0.6
			c-0.1,0-0.1,0.2-0.1,0.5c0,0.7-0.2,1.1-0.5,1.2c-0.1,0-0.2,0.1-0.3,0.3c-0.1,0.2-0.1,0.7-0.3,1.5c-0.1,0.4-0.2,0.6-0.4,0.6
			c-0.2,0-0.2,0.1-0.2,0.2c0,0.1,0,0.2-0.2,0.2c-0.3,0-0.5-0.1-0.6-0.2c-0.1-0.2-0.2-0.5-0.2-0.9c0-0.6-0.1-0.9-0.2-1
			c-0.1-0.1-0.1-0.3-0.1-0.6c0-0.4-0.1-0.7-0.2-0.9c-0.1-0.3-0.2-0.5-0.1-0.8c0-0.3,0-0.5-0.1-0.5c-0.1,0-0.2-0.1-0.2-0.4
			c0-0.2-0.1-0.4-0.2-0.5c-0.1-0.1-0.2-0.1-0.2-0.2c0-0.1,0.2-0.2,0.6-0.2c0.4,0,0.7-0.1,0.9-0.3c0.1-0.1,0.2-0.2,0.2-0.3
			c0-0.1-0.1-0.2-0.2-0.4c-0.1-0.2-0.2-0.3-0.4-0.4c-0.2-0.1-0.5-0.1-0.9-0.1c-0.1,0-0.2,0-0.4,0c-0.2,0-0.4,0-0.5,0h-0.4
			c-0.3,0-0.4,0-0.5-0.1c-0.1,0-0.1-0.1-0.2-0.3c-0.1-0.2-0.1-0.4-0.3-0.4c-0.1,0-0.2,0.1-0.5,0.3c-0.2,0.2-0.4,0.3-0.5,0.3
			c-0.1,0-0.3,0.1-0.4,0.2c-0.1,0.1-0.2,0.3-0.2,0.4c0,0.4,0.3,0.7,0.9,0.8c0.5,0.1,0.9,0.6,1,1.6c0.1,0.4,0.2,0.6,0.3,0.8
			c0.1,0.1,0.2,0.4,0.2,0.7s0.1,0.5,0.2,0.6c0.4,0.4,0.5,1.1,0.5,1.9c0,0.4,0,0.6,0.1,0.7c0.1,0.1,0.1,0.2,0.1,0.4
			c0,0.2,0,0.3,0.1,0.4c0.1,0.1,0.2,0.3,0.2,0.8c0,0.4,0.1,0.6,0.2,0.6c0.1,0,0.2,0.2,0.2,0.5c0,0.3,0.1,0.5,0.2,0.5
			c0.1,0,0.2,0.1,0.3,0.4c0.1,0.3,0.3,0.5,0.6,0.5c0.1,0,0.3-0.1,0.4-0.2s0.2-0.3,0.2-0.4c0-0.3,0-0.4,0.1-0.4
			c0.1,0,0.2-0.1,0.2-0.4c0-0.3,0-0.5,0.1-0.5c0.1,0,0.2-0.2,0.2-0.5c0-0.3,0.1-0.6,0.3-0.9c0.2-0.3,0.4-0.5,0.6-0.6
			c0.2-0.1,0.3-0.3,0.3-0.6c0-0.4,0.1-0.6,0.2-0.6c0.1,0,0.2-0.2,0.2-0.5c0-0.3,0.1-0.6,0.2-0.8c0.1-0.2,0.2-0.4,0.1-0.5
			c-0.1-0.2,0.1-0.3,0.4-0.4c0.3-0.1,0.4-0.2,0.5-0.3c0.1,0,0.1,0.1,0.1,0.4c0,0.4,0.1,0.6,0.2,0.8c0.4,0.4,0.6,1.1,0.6,1.9
			c0,0.4,0,0.6,0.1,0.6c0.1,0,0.1,0.1,0.1,0.4c-0.1,0.2,0,0.4,0.1,0.5c0.1,0.1,0.2,0.3,0.2,0.8c0,0.4,0.1,0.6,0.2,0.6
			c0.2,0,0.2,0.2,0.2,0.5c0,0.3,0.1,0.5,0.2,0.5c0.1,0,0.2,0.1,0.3,0.4c0.1,0.3,0.3,0.5,0.6,0.5c0.1,0,0.3-0.1,0.4-0.2
			c0.1-0.1,0.2-0.3,0.2-0.4c0-0.3,0.1-0.4,0.2-0.4c0.1,0,0.1-0.1,0.1-0.4c0-0.3,0-0.5,0.1-0.5c0.1,0,0.2-0.2,0.2-0.5
			c0-0.3,0.1-0.6,0.3-1c0.2-0.4,0.4-0.6,0.5-0.6c0.1,0,0.2-0.2,0.2-0.6c0-0.4,0.1-0.7,0.2-0.7c0.1,0,0.2-0.2,0.2-0.5
			c0-0.3,0.1-0.6,0.2-0.8c0.1-0.2,0.2-0.4,0.2-0.6c0-0.1,0.1-0.2,0.4-0.3c0.3-0.1,0.4-0.2,0.4-0.3c0-0.1,0-0.1,0-0.2
			c0-0.1,0-0.1,0-0.2c0-0.6,0.1-0.9,0.3-0.9c0.1,0,0.1-0.1,0.2-0.4c0-0.3,0.1-0.4,0.2-0.4c0.1,0,0.2-0.1,0.2-0.2
			c0-0.1,0.1-0.2,0.4-0.2c0.3,0,0.5-0.1,0.6-0.2c0.1-0.1,0.2-0.3,0.2-0.6l0-0.4L287.8,782.4z"/>
		<path d="M310,792.9c-0.1,0-0.1-0.1-0.2-0.4c-0.1-0.2-0.1-0.3-0.2-0.3c0,0-0.3,0.1-0.8,0.2c0,0-0.1,0-0.2,0c-0.4,0-0.7-0.6-1-1.7
			c-0.2-0.8-0.4-1.3-0.4-1.4c-0.1-0.1-0.2-0.3-0.2-0.5c-0.1-0.4-0.3-1.3-0.8-2.8c-0.5-1.5-0.7-2.4-0.8-2.7c-0.2-1-0.4-1.5-0.5-1.7
			c-0.1-0.2-0.2-0.3-0.4-0.3c-0.3-0.1-0.4,0-0.5,0.1c-0.1,0.1-0.2,0.2-0.4,0.2c-0.2,0-0.4,0.1-0.4,0.2c0,0.1-0.1,0.1-0.2,0.1
			c-0.1,0-0.2,0.2-0.4,0.6c-0.2,0.4-0.3,0.8-0.5,1.2c-0.1,0.4-0.2,0.6-0.3,0.7c-0.1,0.1-0.1,0.2-0.1,0.4c0,0.2-0.1,0.6-0.4,1.2
			c-0.3,0.6-0.5,1.1-0.5,1.5c-0.1,0.4-0.2,0.6-0.2,0.7c-0.1,0.1-0.2,0.3-0.4,0.8c-0.2,0.5-0.3,0.7-0.3,0.8c-0.1,0.2-0.2,0.4-0.2,0.5
			c0,0.2,0,0.2-0.1,0.2c-0.1,0-0.2,0.1-0.3,0.4c-0.1,0.2-0.2,0.4-0.2,0.6c0,0.1-0.2,0.3-0.5,0.6c-0.3,0.3-0.5,0.4-0.7,0.4
			c-0.2,0-0.3,0.1-0.5,0.4c-0.2,0.2-0.4,0.4-0.5,0.4c-0.1,0-0.2,0.1-0.4,0.4c-0.1,0.2-0.1,0.3-0.1,0.4c0,0.1,0.1,0.3,0.4,0.5
			l0.5,0.4l2-0.1c1.1,0,1.8-0.1,2.1-0.1c0.3,0,0.5-0.1,0.5-0.2c0,0,0-0.1-0.1-0.2c-0.1-0.2-0.1-0.3,0.1-0.3c0.1,0,0.2-0.1,0.2-0.2
			c0-0.1-0.1-0.2-0.2-0.2c-0.1,0-0.3-0.1-0.4-0.2c-0.1-0.1-0.4-0.2-0.7-0.3c-0.5-0.1-0.7-0.3-0.7-0.5c0-0.1,0-0.2,0.1-0.3
			c0.1-0.2,0.2-0.3,0.2-0.5c0-0.1,0-0.2,0.1-0.2c0.1,0,0.1-0.2,0.1-0.7v-0.7h0.6c0.4,0,0.7-0.1,0.7-0.2c0.1-0.2,0.6-0.2,1.5-0.2h0.4
			c0.7,0,1,0,1.1,0.1c0.1,0.1,0.2,0.4,0.2,0.8c0,0.5,0.1,0.8,0.3,0.9c0.2,0.2,0.3,0.4,0.3,0.6c0,0,0,0,0,0.1c0,0,0,0.1,0,0.1
			c0,0.3-0.1,0.4-0.1,0.5c-0.1,0.1-0.3,0.1-0.6,0.2c-0.5,0.1-0.7,0.2-0.8,0.3c0,0.1-0.1,0.1-0.3,0.1c-0.2,0-0.3,0.1-0.3,0.3
			c0,0.3,0,0.4,0.1,0.5c0.1,0.1,0.3,0.1,0.6,0.1c0.3,0,0.7,0,1.3-0.1c0.6-0.1,1.3-0.1,2-0.1c0.4,0,0.7,0,0.8,0c0.2,0,0.4,0,0.6,0
			c0.3,0,0.5-0.1,0.5-0.3c0.1-0.2,0.1-0.3,0.2-0.3c0.1,0,0.1-0.2,0.1-0.5C310.2,793.1,310.1,792.9,310,792.9z M303.9,788.4
			c0,0-0.1,0-0.2,0c-0.1,0-0.1,0-0.1,0c-0.3,0-0.5,0.1-0.6,0.2c-0.1,0.1-0.3,0.2-0.4,0.2c-0.2,0-0.3-0.1-0.4-0.2
			c-0.1-0.1-0.2-0.2-0.3-0.2c-0.1,0-0.2-0.1-0.2-0.2c0-0.1,0-0.2,0.1-0.2c0.1,0,0.2-0.1,0.3-0.4c0.1-0.3,0.2-0.5,0.2-0.7
			c0-0.2,0.1-0.3,0.2-0.4c0.1,0,0.2-0.3,0.2-0.8c0.1-0.6,0.3-0.9,0.6-0.9c0.2,0,0.3,0.1,0.5,0.2c0.1,0.1,0.2,0.2,0.4,0.5
			c0.1,0.3,0.2,0.4,0.2,0.5c0,0-0.1,0.1-0.3,0.1c-0.2,0-0.3,0.1-0.4,0.2c-0.1,0.1,0,0.2,0.1,0.2c0.1,0,0.2,0.1,0.2,0.2
			c0.1,0.1,0.2,0.3,0.2,0.4c0.1,0.2,0.1,0.2,0.2,0.3c0.1,0.1,0.1,0.3,0.2,0.6l0.1,0.5L303.9,788.4z"/>
		<path d="M330.2,782c-0.1,0-0.2,0-0.3,0.1c-0.2,0.1-0.3,0.1-0.3,0.1c-0.1,0-0.1-0.1-0.2-0.2c-0.1-0.2-0.3-0.3-0.4-0.3
			c-0.1,0-0.2-0.1-0.2-0.3c0-0.2-0.1-0.3-0.3-0.3c-0.2,0-0.3,0.1-0.3,0.3c0,0.2,0.1,0.3,0.2,0.3s0.2,0.1,0.2,0.3
			c0,0.2-0.1,0.3-0.2,0.3c-0.2,0-0.3-0.1-0.3-0.4c-0.1-0.2-0.2-0.4-0.3-0.4c-0.1,0-0.1,0-0.2,0.1c-0.2,0.2-0.2,0.3,0,0.3
			c0.1,0,0.2,0.1,0.2,0.1c0,0.1-0.1,0.2-0.4,0.2c-0.2,0-0.4,0-0.4-0.1c0-0.1-0.1-0.1-0.4-0.1c-0.4,0-0.8,0.1-1.1,0.2
			c-0.4,0.2-0.6,0.4-0.6,0.7c0,0.3,0.3,0.5,0.8,0.6c0.4,0.1,0.6,0.1,0.6,0.2c0,0.1,0.1,0.1,0.3,0.1c0.3,0,0.5,0.2,0.6,0.6
			c0.1,0.4,0.2,1.2,0.2,2.4c0,1.4,0.1,2.2,0.1,2.4c0.1,0.1,0,0.3,0,0.6l-0.1,0.4l-0.5-0.5c-0.4-0.3-0.5-0.5-0.5-0.6
			c0-0.1-0.1-0.2-0.2-0.3c-0.1-0.1-0.3-0.2-0.4-0.4c-0.2-0.1-0.3-0.2-0.3-0.2c-0.1-0.1-0.3-0.2-0.3-0.2c-0.1,0-0.2-0.1-0.2-0.2
			c0-0.1-0.1-0.2-0.2-0.3c-0.1-0.1-0.3-0.2-0.4-0.2c-0.1,0-0.1-0.1-0.1-0.2c0-0.1-0.1-0.2-0.2-0.2c-0.1,0-0.1,0-0.1-0.1
			c0-0.1-0.1-0.2-0.4-0.5c-0.2-0.3-0.4-0.4-0.4-0.5c0-0.1-0.1-0.2-0.3-0.2c-0.2,0-0.3-0.1-0.5-0.2c-0.2-0.1-0.2-0.3-0.2-0.4
			c0-0.1-0.2-0.3-0.5-0.7c-0.3-0.4-0.5-0.6-0.5-0.7c0-0.1-0.1-0.2-0.3-0.4c-0.2-0.2-0.3-0.4-0.3-0.4c0-0.3-0.6-0.5-1.8-0.6
			c-0.6,0-0.9-0.1-0.9-0.1c-0.3,0-0.4,0.1-0.4,0.2c0,0.1,0,0.2,0,0.4c0,0.2,0,0.4,0.1,0.6c0.1,0.2,0.1,0.3,0.2,0.3
			c0.1,0,0.2,0.2,0.3,0.6c0.1,0.4,0.2,0.6,0.2,0.6c0.1,0,0.1,0.3,0.1,0.8c0,0.5,0,0.8-0.1,0.8c-0.1,0-0.1,0.1-0.1,0.4
			c0,0.2,0.1,0.6,0.2,1c0.1,0.2,0.1,0.6,0.1,1.1c0,0.7-0.1,1.1-0.2,1.1c-0.1,0-0.1,0.2-0.1,0.7c0,0.5,0,1.1-0.1,1.5
			c0,0.4-0.1,0.6-0.1,0.7c-0.1,0.1-0.2,0.2-0.4,0.2c-0.3,0.1-0.4,0.2-0.4,0.4c0,0.2,0.1,0.4,0.4,0.6c0.2,0.2,0.3,0.3,0.5,0.3
			c0.2,0,0.8,0,1.7,0c1,0,1.6,0,1.8-0.1c0.2-0.1,0.3-0.3,0.3-0.8c0-0.3-0.1-0.4-0.3-0.5c-0.2-0.1-0.3-0.1-0.3-0.2
			c0-0.1-0.2-0.1-0.6-0.1c-0.4,0-0.7-0.1-0.9-0.3c-0.2-0.2-0.2-0.3-0.1-0.4c0.1-0.1,0.2-0.2,0.2-0.6c0-0.3,0-0.5-0.1-0.5
			c-0.1-0.1-0.1-0.9-0.1-2.6c0-1.7,0.1-2.5,0.2-2.5c0.1,0,0.3,0.1,0.4,0.2c0.1,0.1,0.3,0.2,0.5,0.3c0.3,0.1,0.4,0.3,0.5,0.4
			c0,0.2,0.3,0.5,0.8,1.1c0.5,0.5,0.9,0.9,1.3,1.1c0.2,0.1,0.3,0.2,0.3,0.3c0,0.1,0.2,0.2,0.5,0.6c0.7,0.7,1.1,1.1,1.1,1.4
			c0,0.1,0.1,0.1,0.3,0.1c0.2,0,0.3,0,0.3,0.1c0,0.1,0.1,0.3,0.4,0.5c0.2,0.2,0.4,0.4,0.4,0.6c0,0.1,0.1,0.3,0.3,0.5
			c0.2,0.2,0.3,0.3,0.4,0.3c0.1,0,0.3,0.2,0.6,0.5c0.3,0.3,0.5,0.5,0.7,0.6c0.1,0.1,0.2,0.1,0.3,0.1c0.4,0,0.6-0.2,0.6-0.6
			c0-0.1,0-0.2,0-0.4c0-0.9-0.1-1.4-0.2-1.6c-0.1-0.1-0.1-0.5-0.1-1.3v-0.4c0-1,0-1.6-0.1-1.6c-0.1-0.1-0.2-0.4-0.2-1
			c0-0.5,0-0.8,0.1-0.8c0.1-0.1,0.2-0.2,0.2-0.5s0-0.4,0.1-0.4c0.1,0,0.1-0.1,0.1-0.4c0-0.3,0-0.4-0.1-0.4c-0.1,0-0.1-0.1-0.1-0.4
			c0-0.4,0.1-0.7,0.2-1c0.2-0.3,0.4-0.5,0.7-0.5c0.2,0,0.4-0.1,0.4-0.1c0.1,0,0.1-0.2,0.1-0.5v-0.2C330.5,782.3,330.4,782,330.2,782
			z"/>
		<path d="M349.7,785.5c0-0.2-0.1-0.3-0.2-0.5c-0.2-0.2-0.3-0.3-0.4-0.3c-0.1,0-0.2-0.1-0.2-0.2c0-0.1-0.1-0.3-0.3-0.6
			c-0.2-0.2-0.3-0.3-0.4-0.3c-0.1,0-0.2-0.1-0.2-0.2c0-0.1-0.1-0.2-0.3-0.3c-0.2-0.1-0.3-0.1-0.3-0.2c0-0.1-0.1-0.1-0.4-0.1
			c-0.2,0-0.3-0.1-0.6-0.2s-0.4-0.2-0.5-0.2c-0.2,0-0.3,0-0.3-0.1c0-0.1-0.1-0.1-0.4-0.1c-0.2,0-0.3,0-0.4-0.1
			c-0.1-0.1-0.2-0.1-0.2-0.1c-0.1,0-0.2,0-0.4,0.1c-0.3,0.1-0.6,0.2-1,0.2c-0.2,0-0.4,0-0.4-0.1c-0.1,0-0.1-0.1-0.1-0.2
			c0-0.2-0.1-0.3-0.2-0.3c-0.1,0-0.2,0-0.3,0.2c-0.1,0.1-0.1,0.1-0.2,0c-0.2-0.3-0.3-0.2-0.4,0.1c-0.1,0.2-0.2,0.3-0.4,0.2
			c-0.2-0.1-0.5-0.2-1-0.2c-0.4,0-0.7-0.1-0.8-0.2c0-0.1-0.1-0.1-0.3,0.1s-0.3,0.1-0.3,0c-0.1-0.1-0.2-0.2-0.5-0.2
			c-0.2,0-0.4,0-0.4,0.1c0,0.1-0.1,0.1-0.3,0.1c-0.1,0-0.2,0-0.2,0.1c0,0.1-0.1,0.3-0.1,0.5s0,0.5,0.1,0.6c0,0.1,0.2,0.2,0.3,0.3
			c0.2,0.1,0.3,0.1,0.4,0.1c0,0,0.1,0,0.1,0c0.1,0,0.1,0,0.1,0c0.1,0,0.2,0,0.3,0.1c0.2,0.1,0.4,0.4,0.4,0.8c0,0.4,0,0.6-0.1,0.6
			c-0.1,0-0.1,0.3-0.1,0.9c0,0.6,0,0.8,0.1,0.8c0.1,0,0.1,0.1,0.1,0.4c0,0.2,0,0.4-0.1,0.5c-0.1,0.1-0.1,1-0.2,2.8L339,793l-0.5,0
			c-0.4,0-0.6,0.2-0.8,0.4c-0.2,0.2-0.3,0.4-0.3,0.5c0,0.1,0.1,0.2,0.4,0.4c0.3,0.2,0.5,0.2,0.7,0.2c0.1,0,0.2,0,0.2-0.1
			c0-0.1,0.3-0.1,0.8-0.1c0.5,0,0.8,0,0.8,0.1c0,0.1,0.9,0.2,2.6,0.2c1.1,0,1.7,0,1.8-0.1c0.1-0.1,0.4-0.2,0.7-0.2
			c0.4-0.1,0.8-0.2,1.3-0.5c0.5-0.2,0.8-0.4,1-0.4c0.2,0,0.3-0.1,0.4-0.4c0.1-0.3,0.3-0.6,0.7-1.1c0.4-0.4,0.6-0.7,0.6-0.8
			s0-0.2,0.1-0.2c0.1,0,0.1-0.1,0.1-0.3c0-0.2,0.1-0.4,0.2-0.5c0.1-0.1,0.1-0.8,0.1-2c0-1.4-0.1-2.1-0.2-2.2
			C349.8,785.8,349.7,785.7,349.7,785.5z M347.6,789.7c-0.1,0.1-0.2,0.2-0.2,0.5c0,0.3-0.1,0.5-0.2,0.6c-0.3,0.3-0.5,0.6-0.6,1
			c-0.1,0.2-0.1,0.2-0.2,0.2c-0.1,0-0.3,0.2-0.7,0.5c-0.4,0.3-0.7,0.5-0.9,0.5c-0.2,0-0.3,0.1-0.4,0.2c-0.1,0.1-0.1,0.1-0.2,0
			c-0.1-0.1-0.1-0.2-0.3-0.2c-0.1,0-0.2,0.1-0.3,0.2c0,0.1-0.3,0.1-0.9,0.1c-0.6,0-1.1,0-1.6,0c-0.2,0-0.2-0.1-0.2-0.4
			c0-0.2-0.1-0.4-0.2-0.4s-0.2,0-0.2-0.1c0-0.1,0.1-0.1,0.2-0.2c0.1-0.1,0.2-0.2,0.2-0.3c0-0.1,0.1-0.2,0.2-0.2
			c0.1,0,0.1-0.1,0.2-0.4c0.1-0.2,0.1-0.5,0.1-0.8c0-0.1,0-0.3-0.1-0.5c0,0,0,0,0-0.1c0,0,0-0.1,0-0.1c0-0.2,0.1-0.4,0.2-0.6
			l0.2-0.4c0,0-0.1-0.1-0.2-0.1c-0.1,0-0.2-0.3-0.2-0.8c0-0.5,0-1,0-1.5c0-1.4,0.1-2.2,0.1-2.4c0-0.3,0.1-0.5,0.4-0.8
			c0.2-0.2,0.4-0.3,0.6-0.3c0.1,0,0.2,0,0.3,0c0.1,0,0.3,0,0.7,0.1c0.4,0,0.7,0.1,1,0.1c0.3,0.1,0.4,0.1,0.5,0.2
			c0.1,0.1,0.2,0.2,0.4,0.2c0.2,0,0.4,0.1,0.4,0.3c0.1,0.2,0.2,0.3,0.3,0.3c0.2,0,0.2,0,0.2,0.1s0.1,0.2,0.3,0.2
			c0.2,0.1,0.3,0.2,0.3,0.3c0,0.1,0.1,0.3,0.2,0.4c0.1,0.1,0.2,0.4,0.3,0.9c0,0.4,0.1,0.7,0.2,0.8c0.1,0.1,0.1,0.5,0.1,1.3
			S347.7,789.7,347.6,789.7z"/>
		<path d="M359.5,788.7c0-0.1,0-0.2-0.1-0.2c-0.1,0-0.1,0-0.1,0.1l0.1,0.2C359.5,789,359.5,788.9,359.5,788.7z"/>
		<path d="M365.4,789.5c0-0.6-0.1-0.9-0.2-1.1c-0.1-0.2-0.3-0.4-0.6-0.5c-0.3-0.1-0.5-0.3-0.5-0.4c-0.1-0.1-0.3-0.3-0.9-0.6
			c-0.5-0.3-1-0.5-1.3-0.6c-0.2-0.1-0.5-0.2-0.9-0.5c-0.4-0.3-0.6-0.4-0.6-0.5c0-0.1-0.1-0.2-0.2-0.3c-0.2-0.1-0.2-0.2-0.2-0.3
			c0,0,0-0.1,0-0.1c0.1-0.1,0.1-0.2,0.1-0.3c0-0.1,0-0.3-0.1-0.6c0-0.1,0-0.2,0-0.2c0,0,0.2-0.1,0.3-0.1c0.3,0,0.4-0.1,0.4-0.2
			c0-0.1,0.1-0.2,0.4-0.4c0.3-0.2,0.4-0.3,0.4-0.3c0-0.1,0.1-0.1,0.4-0.2c0.1,0,0.1,0,0.2,0c0.4,0,0.8,0.2,1.2,0.5
			c0.5,0.3,0.7,0.6,0.7,0.9c0,0.2,0.1,0.4,0.3,0.5c0.2,0.1,0.3,0.3,0.3,0.4s0.1,0.3,0.2,0.5c0.2,0.2,0.3,0.3,0.4,0.3c0,0,0,0,0.1,0
			c0.1-0.1,0.1-0.7,0.2-2v-0.8c0-0.6-0.1-0.9-0.2-0.9c-0.1,0-0.1,0-0.1,0c-0.3,0.1-0.6,0.2-0.8,0.2c-0.3,0-0.6-0.1-1-0.3
			c-0.4-0.2-0.6-0.3-0.7-0.3c0,0-0.1,0-0.2,0.1c-0.3,0.1-0.6,0.1-0.8,0.1c-0.3,0-0.4,0-0.5,0.1c0,0.1-0.1,0.2-0.3,0.2
			c-0.2,0-0.4-0.1-0.5-0.2c-0.1-0.1-0.3-0.2-0.5-0.2h0c-0.1,0-0.1,0-0.1,0c-0.1,0-0.1,0-0.1,0c0,0,0.1,0,0.1,0
			c0.1,0.1,0.2,0.1,0.2,0.2c0,0.2-0.2,0.3-0.5,0.4c-0.3,0.1-0.4,0.2-0.4,0.4c0.1,0.2,0,0.3-0.2,0.4c-0.3,0.1-0.6,0.5-1.1,1.1
			c-0.1,0.2-0.2,0.4-0.2,0.6c0,0,0,0.3,0.1,0.8c0.1,0.7,0.3,1.1,0.4,1.3c0.1,0.2,0.4,0.4,0.7,0.7c0.4,0.3,0.6,0.4,0.8,0.4
			c0.1,0,0.3,0.1,0.6,0.4c0.4,0.3,0.9,0.6,1.7,0.8c0.5,0.1,0.8,0.3,1.1,0.6c0.2,0.2,0.3,0.4,0.5,0.7c0.1,0.3,0.2,0.5,0.2,0.7
			c0,0.1,0,0.1-0.1,0.2c-0.1,0-0.1,0.2-0.1,0.4c0.1,0.2,0,0.4-0.2,0.6c-0.1,0.1-0.2,0.3-0.2,0.4c0,0.2-0.5,0.4-1.4,0.5
			c-0.1,0-0.3,0-0.6,0c-0.9,0-1.7-0.4-2.2-1.2c-0.3-0.4-0.5-0.8-0.5-1c0,0,0-0.1,0-0.2c0-0.1,0-0.2,0-0.2c0,0-0.1-0.1-0.1-0.1
			c-0.1,0-0.1,0-0.1-0.1c0.1-0.3-0.1-0.5-0.4-0.6c-0.1,0-0.2-0.1-0.3-0.1c-0.3,0-0.4,0.2-0.5,0.5c-0.1,1.2-0.1,1.9-0.2,1.9
			c-0.1,0.1-0.1,0.4-0.2,0.8c0,0.1,0,0.3,0,0.4c0,0.2,0.1,0.4,0.3,0.6c0.1,0.1,0.2,0.2,0.3,0.2c0,0,0.1,0,0.2-0.2
			c0.1-0.2,0.2-0.3,0.2-0.4c0-0.3,0.2-0.3,0.5-0.1c0.9,0.5,1.8,0.7,2.9,0.7c0.5,0,1.1-0.1,1.6-0.2c0.6-0.1,1.1-0.3,1.4-0.6
			c0.3-0.3,0.5-0.5,0.5-0.5c0-0.1,0.1-0.2,0.2-0.3c0.2-0.1,0.3-0.4,0.3-0.9c0.1-0.5,0.1-0.7,0.2-0.7c0.1,0,0.1,0,0-0.1
			C365.5,790.6,365.4,790.2,365.4,789.5z M361,788C361,788,360.9,787.9,361,788c-0.1-0.1-0.1-0.1,0-0.1S361.1,787.9,361,788
			C361.1,787.9,361.1,788,361,788z"/>
		<polygon points="51.7,808.8 44,814 41.2,799.9 38.4,814 30.7,808.8 35.9,816.5 21.8,819.3 35.9,822 30.7,829.8 38.4,824.6 
			41.2,838.6 43.9,824.6 51.7,829.8 46.5,822 60.5,819.3 46.5,816.5 		"/>
		<polygon points="468.1,816.5 473.3,808.8 465.5,814 462.8,799.9 460,814 452.3,808.8 457.5,816.5 443.4,819.3 457.5,822 
			452.3,829.8 460,824.6 462.8,838.6 465.5,824.6 473.3,829.8 468.1,822 482.1,819.3 		"/>
		<polygon points="30.7,57.5 38.4,52.3 41.2,66.4 44,52.3 51.7,57.5 46.5,49.8 60.5,47 46.5,44.3 51.7,36.5 43.9,41.7 41.2,27.7 
			38.4,41.7 30.7,36.5 35.9,44.3 21.8,47 35.9,49.8 		"/>
		<polygon points="473.3,36.5 465.5,41.7 462.8,27.7 460,41.7 452.3,36.5 457.5,44.3 443.4,47 457.5,49.8 452.3,57.5 460,52.3 
			462.8,66.4 465.5,52.3 473.3,57.5 468.1,49.8 482.1,47 468.1,44.3 		"/>
		<polygon points="207,278.6 246.5,281.3 219.6,311 249.3,284.1 252,329.4 254.7,284.1 284.4,311 257.1,281.3 296.9,278.6 
			257.5,275.9 284.4,246.2 254.7,273.1 252,227.9 249.3,273.1 219.6,246.2 246.5,275.9 		"/>
		<path d="M201,174.1c0.9,0.4,1.8,0.8,2.7,1.2c0.5,0.2,1.1,0.5,1.6,0.7c0.1,0.1,0.2,0.1,0.2,0.1c0,0,0,0,0,0.1
			c1,1.7,1.2,4.2,1.8,6.1c0.1,0.4,0.7,0.4,0.8,0c0.6-1.9,0.9-4.4,1.8-6.1c0,0,0,0,0-0.1c0,0,0.1,0,0.1-0.1c0.5-0.3,1.2-0.5,1.7-0.8
			c0.9-0.4,1.8-0.8,2.7-1.2c0.4-0.2,0.2-0.6-0.1-0.7c-0.9-0.4-1.8-0.8-2.7-1.1c-1.1-0.5-1.7-0.5-2-1.5c-0.6-1.9-1.1-3.9-1.6-5.9
			c0,0,0,0,0-0.1c0,0,0,0,0-0.1c-0.1-0.1-0.2-0.2-0.3-0.2c-0.1,0-0.3,0-0.3,0.2c0,0,0,0.1,0,0.1c0,0,0,0,0,0c0,0,0,0,0,0
			c0,0,0,0,0,0c-0.5,1.9-0.9,3.9-1.5,5.9c-0.5,1.5-3.3,2.1-4.7,2.7C200.8,173.5,200.6,174,201,174.1z M206.4,171.6
			c0.6-1,0.7-2.7,1-3.7c0.1-0.5,0.3-0.9,0.4-1.4c0.1,0.5,0.3,0.9,0.4,1.4c0.3,1.1,0.4,2.7,1,3.7c0.6,1.1,2.7,1.7,4.2,2.2
			c-0.7,0.3-1.5,0.7-2.2,1c-0.6,0.3-1.5,0.5-1.9,1c-0.6,0.8-0.7,2.4-1,3.4c-0.2,0.6-0.3,1.1-0.5,1.7c-0.2-0.6-0.3-1.1-0.5-1.7
			c-0.3-0.9-0.4-2.6-1-3.4c-0.4-0.6-1.2-0.7-1.9-1c-0.7-0.3-1.5-0.7-2.2-1C203.8,173.3,205.8,172.7,206.4,171.6z"/>
		<path d="M201,218.8c0.9,0.4,1.8,0.8,2.7,1.2c0.5,0.2,1.1,0.5,1.6,0.7c0.1,0.1,0.2,0.1,0.2,0.1c0,0,0,0,0,0.1
			c1,1.7,1.2,4.2,1.8,6.1c0.1,0.4,0.7,0.4,0.8,0c0.6-1.9,0.9-4.4,1.8-6.1c0,0,0,0,0-0.1c0,0,0.1,0,0.1-0.1c0.5-0.3,1.2-0.5,1.7-0.8
			c0.9-0.4,1.8-0.8,2.7-1.2c0.4-0.2,0.2-0.6-0.1-0.7c-0.9-0.4-1.8-0.8-2.7-1.1c-1.1-0.5-1.7-0.5-2-1.5c-0.6-1.9-1.1-3.9-1.6-5.9
			c0,0,0,0,0-0.1c0,0,0,0,0-0.1c-0.1-0.1-0.2-0.2-0.3-0.2c-0.1,0-0.3,0-0.3,0.2c0,0,0,0.1,0,0.1c0,0,0,0,0,0c0,0,0,0,0,0
			c0,0,0,0,0,0c-0.5,1.9-0.9,3.9-1.5,5.9c-0.5,1.5-3.3,2.1-4.7,2.7C200.8,218.2,200.6,218.7,201,218.8z M206.4,216.3
			c0.6-1,0.7-2.7,1-3.7c0.1-0.5,0.3-0.9,0.4-1.4c0.1,0.5,0.3,0.9,0.4,1.4c0.3,1.1,0.4,2.7,1,3.7c0.6,1.1,2.7,1.7,4.2,2.2
			c-0.7,0.3-1.5,0.7-2.2,1c-0.6,0.3-1.5,0.5-1.9,1c-0.6,0.8-0.7,2.4-1,3.4c-0.2,0.6-0.3,1.1-0.5,1.7c-0.2-0.6-0.3-1.1-0.5-1.7
			c-0.3-0.9-0.4-2.6-1-3.4c-0.4-0.6-1.2-0.7-1.9-1c-0.7-0.3-1.5-0.7-2.2-1C203.8,218,205.8,217.4,206.4,216.3z"/>
		<path d="M289.3,174.1c0.9,0.4,1.8,0.8,2.7,1.2c0.5,0.2,1.2,0.4,1.7,0.8c0.1,0,0.1,0.1,0.1,0.1c0,0,0,0,0,0.1
			c0.9,1.8,1.2,4.2,1.8,6.1c0.1,0.4,0.7,0.4,0.8,0c0.6-1.9,0.9-4.4,1.8-6.1c0,0,0-0.1,0-0.1c0,0,0.1,0,0.2-0.1
			c0.5-0.3,1.1-0.5,1.6-0.7c0.9-0.4,1.8-0.8,2.7-1.2c0.4-0.2,0.2-0.6-0.1-0.7c-1.5-0.6-4.3-1.2-4.7-2.7c-0.6-1.9-1-3.9-1.5-5.9
			c0,0,0,0,0,0c0,0,0,0,0,0c0,0,0,0,0,0c0,0,0-0.1,0-0.1c-0.1-0.1-0.2-0.2-0.3-0.2c-0.1,0-0.3,0.1-0.3,0.2c0,0,0,0,0,0.1
			c0,0,0,0,0,0.1c-0.5,2-1,4-1.6,5.9c-0.3,1-1,1-2,1.5c-0.9,0.4-1.8,0.8-2.7,1.1C289.1,173.4,289,173.9,289.3,174.1z M294.8,171.6
			c0.6-1,0.7-2.6,1-3.7c0.1-0.5,0.3-0.9,0.4-1.4c0.1,0.5,0.3,0.9,0.4,1.4c0.3,1.1,0.4,2.8,1,3.7c0.7,1.1,2.7,1.7,4.2,2.2
			c-0.7,0.3-1.5,0.7-2.2,1c-0.6,0.3-1.5,0.5-1.9,1c-0.6,0.8-0.7,2.4-1,3.4c-0.2,0.6-0.3,1.1-0.5,1.7c-0.2-0.6-0.3-1.1-0.5-1.7
			c-0.3-0.9-0.4-2.6-1-3.4c-0.4-0.6-1.2-0.7-1.9-1c-0.7-0.3-1.5-0.7-2.2-1C292.1,173.3,294.2,172.6,294.8,171.6z"/>
		<path d="M289.3,218.8c0.9,0.4,1.8,0.8,2.7,1.2c0.5,0.2,1.2,0.4,1.7,0.8c0.1,0,0.1,0.1,0.1,0.1c0,0,0,0,0,0.1
			c0.9,1.8,1.2,4.2,1.8,6.1c0.1,0.4,0.7,0.4,0.8,0c0.6-1.9,0.9-4.4,1.8-6.1c0,0,0-0.1,0-0.1c0,0,0.1,0,0.2-0.1
			c0.5-0.3,1.1-0.5,1.6-0.7c0.9-0.4,1.8-0.8,2.7-1.2c0.4-0.2,0.2-0.6-0.1-0.7c-1.5-0.6-4.3-1.2-4.7-2.7c-0.6-1.9-1-3.9-1.5-5.9
			c0,0,0,0,0,0c0,0,0,0,0,0c0,0,0,0,0,0c0,0,0-0.1,0-0.1c-0.1-0.1-0.2-0.2-0.3-0.2c-0.1,0-0.3,0.1-0.3,0.2c0,0,0,0,0,0.1
			c0,0,0,0,0,0.1c-0.5,2-1,4-1.6,5.9c-0.3,1-1,1-2,1.5c-0.9,0.4-1.8,0.8-2.7,1.1C289.1,218.2,289,218.6,289.3,218.8z M294.8,216.3
			c0.6-1,0.7-2.6,1-3.7c0.1-0.5,0.3-0.9,0.4-1.4c0.1,0.5,0.3,0.9,0.4,1.4c0.3,1.1,0.4,2.8,1,3.7c0.7,1.1,2.7,1.7,4.2,2.2
			c-0.7,0.3-1.5,0.7-2.2,1c-0.6,0.3-1.5,0.5-1.9,1c-0.6,0.8-0.7,2.4-1,3.4c-0.2,0.6-0.3,1.1-0.5,1.7c-0.2-0.6-0.3-1.1-0.5-1.7
			c-0.3-0.9-0.4-2.6-1-3.4c-0.4-0.6-1.2-0.7-1.9-1c-0.7-0.3-1.5-0.7-2.2-1C292.1,218,294.2,217.4,294.8,216.3z"/>
		<path d="M258.7,496.9c-0.9-0.4-1.8-0.8-2.7-1.1c-1.1-0.5-1.7-0.5-2-1.5c-0.6-1.9-1.1-3.9-1.6-5.9c0,0,0,0,0-0.1c0,0,0,0,0-0.1
			c-0.1-0.1-0.2-0.2-0.3-0.2c-0.1,0-0.3,0-0.3,0.2c0,0,0,0.1,0,0.1c0,0,0,0,0,0c0,0,0,0,0,0c0,0,0,0,0,0c-0.5,1.9-0.9,3.9-1.5,5.9
			c-0.5,1.5-3.3,2.1-4.7,2.7c-0.3,0.1-0.5,0.6-0.1,0.7c0.9,0.4,1.8,0.8,2.7,1.2c0.5,0.2,1.1,0.5,1.6,0.7c0.1,0.1,0.2,0.1,0.2,0.1
			c0,0,0,0,0,0.1c1,1.7,1.2,4.2,1.8,6.1c0.1,0.4,0.7,0.4,0.8,0c0.6-1.9,0.9-4.4,1.8-6.1c0,0,0,0,0-0.1c0,0,0.1,0,0.1-0.1
			c0.5-0.3,1.2-0.5,1.7-0.8c0.9-0.4,1.8-0.8,2.7-1.2C259.2,497.4,259,497,258.7,496.9z M255.3,498.3c-0.6,0.3-1.5,0.5-1.9,1
			c-0.6,0.8-0.7,2.4-1,3.4c-0.2,0.6-0.3,1.1-0.5,1.7c-0.2-0.6-0.3-1.1-0.5-1.7c-0.3-0.9-0.4-2.6-1-3.4c-0.4-0.6-1.2-0.7-1.9-1
			c-0.7-0.3-1.5-0.7-2.2-1c1.5-0.5,3.5-1.1,4.2-2.2c0.6-1,0.7-2.7,1-3.7c0.1-0.5,0.3-0.9,0.4-1.4c0.1,0.5,0.3,0.9,0.4,1.4
			c0.3,1.1,0.4,2.7,1,3.7c0.6,1.1,2.7,1.7,4.2,2.2C256.8,497.6,256.1,498,255.3,498.3z"/>
		<path d="M258.7,541.6c-0.9-0.4-1.8-0.8-2.7-1.1c-1.1-0.5-1.7-0.5-2-1.5c-0.6-1.9-1.1-3.9-1.6-5.9c0,0,0,0,0-0.1c0,0,0,0,0-0.1
			c-0.1-0.1-0.2-0.2-0.3-0.2c-0.1,0-0.3,0-0.3,0.2c0,0,0,0.1,0,0.1c0,0,0,0,0,0c0,0,0,0,0,0c0,0,0,0,0,0c-0.5,1.9-0.9,3.9-1.5,5.9
			c-0.5,1.5-3.3,2.1-4.7,2.7c-0.3,0.1-0.5,0.6-0.1,0.7c0.9,0.4,1.8,0.8,2.7,1.2c0.5,0.2,1.1,0.5,1.6,0.7c0.1,0.1,0.2,0.1,0.2,0.1
			c0,0,0,0,0,0.1c1,1.7,1.2,4.2,1.8,6.1c0.1,0.4,0.7,0.4,0.8,0c0.6-1.9,0.9-4.4,1.8-6.1c0,0,0,0,0-0.1c0,0,0.1,0,0.1-0.1
			c0.5-0.3,1.2-0.5,1.7-0.8c0.9-0.4,1.8-0.8,2.7-1.2C259.2,542.2,259,541.7,258.7,541.6z M255.3,543c-0.6,0.3-1.5,0.5-1.9,1
			c-0.6,0.8-0.7,2.4-1,3.4c-0.2,0.6-0.3,1.1-0.5,1.7c-0.2-0.6-0.3-1.1-0.5-1.7c-0.3-0.9-0.4-2.6-1-3.4c-0.4-0.6-1.2-0.7-1.9-1
			c-0.7-0.3-1.5-0.7-2.2-1c1.5-0.5,3.5-1.1,4.2-2.2c0.6-1,0.7-2.7,1-3.7c0.1-0.5,0.3-0.9,0.4-1.4c0.1,0.5,0.3,0.9,0.4,1.4
			c0.3,1.1,0.4,2.7,1,3.7c0.6,1.1,2.7,1.7,4.2,2.2C256.8,542.4,256.1,542.7,255.3,543z"/>
		<path d="M258.7,363c-0.9-0.4-1.8-0.8-2.7-1.1c-1.1-0.5-1.7-0.5-2-1.5c-0.6-1.9-1.1-3.9-1.6-5.9c0,0,0,0,0-0.1c0,0,0,0,0-0.1
			c-0.1-0.1-0.2-0.2-0.3-0.2c-0.1,0-0.3,0-0.3,0.2c0,0,0,0.1,0,0.1c0,0,0,0,0,0c0,0,0,0,0,0c0,0,0,0,0,0c-0.5,1.9-0.9,3.9-1.5,5.9
			c-0.5,1.5-3.3,2.1-4.7,2.7c-0.3,0.1-0.5,0.6-0.1,0.7c0.9,0.4,1.8,0.8,2.7,1.2c0.5,0.2,1.1,0.5,1.6,0.7c0.1,0.1,0.2,0.1,0.2,0.1
			c0,0,0,0,0,0.1c1,1.7,1.2,4.2,1.8,6.1c0.1,0.4,0.7,0.4,0.8,0c0.6-1.9,0.9-4.4,1.8-6.1c0,0,0,0,0-0.1c0,0,0.1,0,0.1-0.1
			c0.5-0.3,1.2-0.5,1.7-0.8c0.9-0.4,1.8-0.8,2.7-1.2C259.2,363.6,259,363.1,258.7,363z M255.3,364.4c-0.6,0.3-1.5,0.5-1.9,1
			c-0.6,0.8-0.7,2.4-1,3.4c-0.2,0.6-0.3,1.1-0.5,1.7c-0.2-0.6-0.3-1.1-0.5-1.7c-0.3-0.9-0.4-2.6-1-3.4c-0.4-0.6-1.2-0.7-1.9-1
			c-0.7-0.3-1.5-0.7-2.2-1c1.5-0.5,3.5-1.1,4.2-2.2c0.6-1,0.7-2.7,1-3.7c0.1-0.5,0.3-0.9,0.4-1.4c0.1,0.5,0.3,0.9,0.4,1.4
			c0.3,1.1,0.4,2.7,1,3.7c0.6,1.1,2.7,1.7,4.2,2.2C256.8,363.8,256.1,364.1,255.3,364.4z"/>
		<path d="M258.7,407.7c-0.9-0.4-1.8-0.8-2.7-1.1c-1.1-0.5-1.7-0.5-2-1.5c-0.6-1.9-1.1-3.9-1.6-5.9c0,0,0,0,0-0.1c0,0,0,0,0-0.1
			c-0.1-0.1-0.2-0.2-0.3-0.2c-0.1,0-0.3,0-0.3,0.2c0,0,0,0.1,0,0.1c0,0,0,0,0,0c0,0,0,0,0,0c0,0,0,0,0,0c-0.5,1.9-0.9,3.9-1.5,5.9
			c-0.5,1.5-3.3,2.1-4.7,2.7c-0.3,0.1-0.5,0.6-0.1,0.7c0.9,0.4,1.8,0.8,2.7,1.2c0.5,0.2,1.1,0.5,1.6,0.7c0.1,0.1,0.2,0.1,0.2,0.1
			c0,0,0,0,0,0.1c1,1.7,1.2,4.2,1.8,6.1c0.1,0.4,0.7,0.4,0.8,0c0.6-1.9,0.9-4.4,1.8-6.1c0,0,0,0,0-0.1c0,0,0.1,0,0.1-0.1
			c0.5-0.3,1.2-0.5,1.7-0.8c0.9-0.4,1.8-0.8,2.7-1.2C259.2,408.3,259,407.8,258.7,407.7z M255.3,409.1c-0.6,0.3-1.5,0.5-1.9,1
			c-0.6,0.8-0.7,2.4-1,3.4c-0.2,0.6-0.3,1.1-0.5,1.7c-0.2-0.6-0.3-1.1-0.5-1.7c-0.3-0.9-0.4-2.6-1-3.4c-0.4-0.6-1.2-0.7-1.9-1
			c-0.7-0.3-1.5-0.7-2.2-1c1.5-0.5,3.5-1.1,4.2-2.2c0.6-1,0.7-2.7,1-3.7c0.1-0.5,0.3-0.9,0.4-1.4c0.1,0.5,0.3,0.9,0.4,1.4
			c0.3,1.1,0.4,2.7,1,3.7c0.6,1.1,2.7,1.7,4.2,2.2C256.8,408.5,256.1,408.8,255.3,409.1z"/>
		<path d="M258.7,452.1c-0.9-0.4-1.8-0.8-2.7-1.1c-1.1-0.5-1.7-0.5-2-1.5c-0.6-1.9-1.1-3.9-1.6-5.9c0,0,0,0,0-0.1c0,0,0,0,0-0.1
			c-0.1-0.1-0.2-0.2-0.3-0.2c-0.1,0-0.3,0-0.3,0.2c0,0,0,0.1,0,0.1c0,0,0,0,0,0c0,0,0,0,0,0c0,0,0,0,0,0c-0.5,1.9-0.9,3.9-1.5,5.9
			c-0.5,1.5-3.3,2.1-4.7,2.7c-0.3,0.1-0.5,0.6-0.1,0.7c0.9,0.4,1.8,0.8,2.7,1.2c0.5,0.2,1.1,0.5,1.6,0.7c0.1,0.1,0.2,0.1,0.2,0.1
			c0,0,0,0,0,0.1c1,1.7,1.2,4.2,1.8,6.1c0.1,0.4,0.7,0.4,0.8,0c0.6-1.9,0.9-4.4,1.8-6.1c0,0,0,0,0-0.1c0,0,0.1,0,0.1-0.1
			c0.5-0.3,1.2-0.5,1.7-0.8c0.9-0.4,1.8-0.8,2.7-1.2C259.2,452.7,259,452.3,258.7,452.1z M255.3,453.6c-0.6,0.3-1.5,0.5-1.9,1
			c-0.6,0.8-0.7,2.4-1,3.4c-0.2,0.6-0.3,1.1-0.5,1.7c-0.2-0.6-0.3-1.1-0.5-1.7c-0.3-0.9-0.4-2.6-1-3.4c-0.4-0.6-1.2-0.7-1.9-1
			c-0.7-0.3-1.5-0.7-2.2-1c1.5-0.5,3.5-1.1,4.2-2.2c0.6-1,0.7-2.7,1-3.7c0.1-0.5,0.3-0.9,0.4-1.4c0.1,0.5,0.3,0.9,0.4,1.4
			c0.3,1.1,0.4,2.7,1,3.7c0.6,1.1,2.7,1.7,4.2,2.2C256.8,452.9,256.1,453.2,255.3,453.6z"/>
		<path d="M223.7,457.5c0.3-0.1,0.5-0.3,0.8-0.4c0.2-0.1,0.3-0.5,0.2-0.7c-0.9-1.7-1.9-3.4-2.8-5.1c-0.1-0.1-0.2-0.2-0.3-0.2
			c0,0,0,0,0,0c0,0,0,0,0,0c-0.1,0-0.2,0-0.4,0c-0.5,0.3-1,0.6-1.5,0.9c-1.3-2.4-2.7-4.8-4-7.2c-0.1-0.1-0.2-0.2-0.3-0.2
			c0,0,0,0,0,0c0,0,0,0,0,0c-0.1,0-0.2,0-0.3,0c-0.1,0-0.2,0.1-0.3,0.1c-12.9-23.3-25.6-46.7-38.5-70c0.2-0.1,0.5-0.3,0.7-0.4
			c0.2-0.1,0.4-0.5,0.2-0.7c-0.7-1.1-1.7-2.4-2.9-3.1c0,0,0,0,0-0.1c-5.4-9.7-11-19.2-16.4-28.9c-0.1-0.1-0.2-0.2-0.3-0.2
			c0.4-1.7-0.5-3.8-1.2-5.2c-0.1-0.2-0.3-0.3-0.5-0.3c-0.1,0-0.2,0-0.2,0.1c-0.2,0.1-0.3,0.2-0.5,0.3c-12-21.7-24.3-43.2-36.4-64.9
			c1.4-0.8,2.7-1.8,2.2-3.2c-0.8-2.2-1.9-2.5-3.9-2.6c-0.1,0-0.2,0-0.3,0c0,0,0,0,0,0c-1-1.5-2.8-4.5-5-4.7c1-5-2.9-9.6-7.6-9.5
			c3.4-3.5,4.3-9,1.8-13.5c-0.5-0.9-1.2-1.8-1.9-2.5c1.1,4.8-1,10-5.5,12.6s-10.1,1.6-13.6-1.9c0.2,1,0.6,2,1.1,2.9
			c2.5,4.5,7.6,6.6,12.3,5.6c-2.6,3.9-0.7,9.7,4,11.5c-1,1.9,0.6,5.1,1.4,6.7c-0.5,0.8-1.1,1.8-1.1,2.7c0.1,0.8,1.2,3.1,2,3.3
			c0.6,0.1,1.5-0.5,2-0.8c0.3-0.1,0.6-0.3,0.9-0.5c0,0.1,0,0.2,0.1,0.3c12,21.6,23.7,43.3,35.7,64.9c-0.2,0.1-0.3,0.2-0.5,0.3
			c-0.2,0.1-0.4,0.5-0.2,0.7c0.8,1.3,2.2,3.3,3.9,3.8c0,0.1,0,0.2,0,0.3c5.3,9.7,10.5,19.5,15.9,29.2c-0.1,1.4,0.5,3.1,1,4.2
			c0.1,0.2,0.3,0.3,0.5,0.3c0.1,0,0.1,0,0.2-0.1c0.3-0.1,0.5-0.3,0.8-0.4c12.9,23.3,26.1,46.4,39,69.7c-0.1,0.1-0.2,0.1-0.3,0.2
			c-0.2,0.1-0.3,0.5-0.2,0.7c1.3,2.4,2.7,4.8,4,7.2c-0.5,0.3-1,0.6-1.5,0.9c-0.2,0.1-0.3,0.5-0.2,0.7c0.9,1.7,1.9,3.4,2.8,5.1
			c0.1,0.2,0.5,0.3,0.7,0.2c0.3-0.1,0.5-0.3,0.8-0.4c1.1,1.7,3.3,5,5.7,4.5c0.6-0.1,1.2-0.4,1.8-0.7c0,2.9,2.9,5.1,5.7,3.6
			c2.8-1.6,2.4-5.3-0.1-6.8c0.5-0.3,1-0.6,1.5-1C226.2,463,224.6,459.4,223.7,457.5z M102.7,265.1c-4.7-1.6-6.3-7.9-2.6-11.1
			c0.4-0.2,0.9-0.4,1.3-0.6c0.4-0.2,0.8-0.5,1.1-0.7c4.8-1.5,9.3,3.3,8,8.2c0,0,0,0,0,0c-1.3,0.4-2.7,1.6-3.8,2.2
			c-1.1,0.6-2.8,1.2-3.9,2.1C102.8,265.2,102.8,265.2,102.7,265.1z M103.8,265.9c1-0.8,2.3-1.3,3.4-1.9c1.1-0.6,2.2-1.4,3.4-1.9
			c1.9-0.7,3.7,1.8,4.7,3.4c-2.2,0-4.5,0.4-6.5,1.4c-1.9,1.2-3.4,2.9-4.6,4.8C103.4,270,102.2,267.2,103.8,265.9z M107,276.5
			c-0.5,0.3-1.1,0.5-1.6,0.8c-0.3,0.2-0.7,0.2-0.6,0.3c-0.4-0.4-1.1-2-1.2-2.4c0,0,0-0.1,0-0.1c0,0,0,0,0-0.1
			c0.1-0.3,0.3-0.6,0.4-0.9c1.3-2.4,3-4.9,5.3-6.4c2.4-1.2,5.3-1.4,8-1.2c1,0.1,1.1,0,1.7,0.8c0.6,0.7,1,1.2,0.5,1.8
			c-0.7,0.9-2.5,1.7-3.5,2.3c-1.6,0.9-3.1,1.8-4.7,2.7C110,275,108.5,275.8,107,276.5z M109.4,279l9.4-5.2c1.1,1.9,2.2,3.9,3.2,5.8
			c-3.8-1.6-8.8,1.1-9.5,5.1C111.6,282.8,110.5,280.9,109.4,279z M143.1,340.3c-9.9-17.8-19.6-35.7-29.4-53.5c-1.3-5,6-8.8,9.5-5.1
			c0,0,0,0,0,0c9.9,17.7,19.9,35.4,29.8,53.1L143.1,340.3z M143.7,343.6c3.9-2.2,7.8-4.4,11.8-6.5c0.8,1.8,1.6,4.1-0.2,5.3
			c-1.1,0.7-2.3,1.3-3.5,1.9c-1.1,0.6-2.3,1.4-3.5,1.9C146.4,347.1,144.8,345.2,143.7,343.6z M162.8,375.6
			c-5.2-9.3-10.1-18.7-15.2-28c0.1,0,0.3,0,0.4-0.1c1.5-0.4,3-1.6,4.3-2.3c1.3-0.7,3-1.4,4.1-2.3c0.2-0.2,0.3-0.3,0.5-0.5
			c5.2,9.3,10.6,18.5,15.8,27.8c-0.3,0-0.7,0-1,0.1c-1.4,0.5-2.8,1.6-4.1,2.3c-1.3,0.7-2.9,1.4-4.1,2.3
			C163.2,375.1,162.9,375.3,162.8,375.6z M164.1,380.2c-0.7-1.7-1.2-3.7,0.5-4.8c1.1-0.7,2.3-1.3,3.5-1.9c1.1-0.6,2.2-1.3,3.3-1.9
			c1.9-1,3.4,0.6,4.5,2.1C171.9,375.9,168,378.1,164.1,380.2z M166.8,382.5l9.5-5.3c10.7,19.4,21.3,38.9,32,58.3
			c1.1,4.4-5.9,8-9.1,5C188.5,421.1,177.6,401.8,166.8,382.5z M203.7,448.3c-1.1-2-2.2-4-3.4-6c3.5,1.3,8.3-1.3,9.1-4.9
			c1.1,2,2.2,4,3.3,5.9L203.7,448.3z M204.5,451.5c3.5-1.9,7-3.9,10.5-5.8c1.2,2.2,2.4,4.3,3.6,6.5c-3.5,1.9-7,3.9-10.5,5.8
			C206.9,455.8,205.7,453.7,204.5,451.5z M207.9,462.3c-0.4-0.7-0.8-1.4-1.2-2.1c4.8-2.7,9.6-5.4,14.5-8c0.4,0.7,0.8,1.4,1.2,2.1
			L207.9,462.3z M222.5,471.6c-2.3,1.2-4.7-0.9-4.1-3.3c0,0,0-0.1,0-0.1c0.6-0.4,1.1-0.8,1.7-1c0.5-0.3,1.1-0.6,1.7-0.9c0,0,0,0,0,0
			C224.1,467.1,224.8,470.3,222.5,471.6z M223.3,464.2c-1.1,0.8-2.5,1.4-3.7,2.1c-1.2,0.7-2.4,1.5-3.6,2c-2.2,0.9-4.1-2-5.2-3.6
			c4-2.2,8-4.5,12.1-6.7C223.6,459.7,225.1,462.8,223.3,464.2z"/>
		<path d="M123.4,290.6c0.2-0.7,1.5-1.7,1.4-1.9c-0.1-0.3-1.7,0.2-2.4,0c-0.7-0.2-2.1-2.1-2.4-2c-0.3,0.2,0.5,2.3,0.3,3.1
			c-0.2,0.8-1.5,1.6-1.4,1.9c0.2,0.3,1.6-0.3,2.4,0c0.8,0.2,2.1,2.1,2.4,2C124,293.6,123.1,291.4,123.4,290.6z"/>
		<path d="M129.6,297.4c-0.1-0.3-1.7,0.2-2.4,0c-0.7-0.2-2.1-2.1-2.4-2c-0.3,0.2,0.5,2.3,0.3,3.1c-0.2,0.8-1.5,1.6-1.4,1.9
			s1.6-0.3,2.4,0c0.8,0.2,2.1,2.1,2.4,2c0.3-0.2-0.5-2.4-0.3-3.1C128.4,298.6,129.7,297.7,129.6,297.4z"/>
		<path d="M196.7,422.7c0.2-0.7,1.5-1.7,1.4-1.9c-0.1-0.3-1.7,0.2-2.4,0c-0.7-0.2-2.1-2.1-2.4-2c-0.3,0.2,0.5,2.3,0.3,3.1
			c-0.2,0.8-1.5,1.6-1.4,1.9c0.2,0.3,1.6-0.3,2.4,0c0.8,0.2,2.1,2.1,2.4,2C197.3,425.6,196.5,423.4,196.7,422.7z"/>
		<path d="M201.5,431.4c0.2-0.7,1.5-1.7,1.4-1.9c-0.1-0.3-1.7,0.2-2.4,0c-0.7-0.2-2.1-2.1-2.4-2c-0.3,0.2,0.5,2.3,0.3,3.1
			c-0.2,0.8-1.5,1.6-1.4,1.9c0.2,0.3,1.6-0.3,2.4,0c0.8,0.2,2.1,2.1,2.4,2C202.1,434.3,201.3,432.1,201.5,431.4z"/>
		<path d="M164.5,363.2c-0.9-1.6-8.7-11.7-8.7-11.7s4.5,12,5.4,13.6c0.9,1.6,1.9,1.7,2.8,1.2C164.9,365.8,165.4,364.8,164.5,363.2z"
			/>
		<polygon points="107.8,259.5 105.7,258.5 108.5,256.1 105,257.2 105.2,254.9 104.2,257 101.8,254.2 102.9,257.7 100.6,257.5 
			102.7,258.5 99.9,260.9 103.4,259.8 103.2,262.1 104.2,260 106.6,262.8 105.5,259.3 		"/>
		<path d="M98.1,157.2c-2.6,3.9-0.7,9.7,4,11.5c-1,1.9,0.6,5.1,1.4,6.7c-0.5,0.8-1.1,1.8-1.1,2.7c0.1,0.8,1.2,3.1,2,3.3
			c0.6,0.1,1.5-0.5,2-0.8c0.3-0.1,0.6-0.3,0.9-0.5c0,0.1,0,0.2,0.1,0.3c12,21.6,23.7,43.3,35.7,64.9c-0.2,0.1-0.3,0.2-0.5,0.3
			c-0.2,0.1-0.4,0.5-0.2,0.7c0.8,1.3,2.2,3.3,3.9,3.8c0,0.1,0,0.2,0,0.3c5.3,9.7,10.5,19.5,15.9,29.2c-0.1,1.4,0.5,3.1,1,4.2
			c0.1,0.2,0.3,0.3,0.5,0.3c0.1,0,0.1,0,0.2-0.1c0.3-0.1,0.5-0.3,0.8-0.4c12.9,23.3,26.1,46.4,39,69.7c-0.1,0.1-0.2,0.1-0.3,0.2
			c-0.2,0.1-0.3,0.5-0.2,0.7c1.3,2.4,2.7,4.8,4,7.2c-0.5,0.3-1,0.6-1.5,0.9c-0.2,0.1-0.3,0.5-0.2,0.7c0.9,1.7,1.9,3.4,2.8,5.1
			c0.1,0.2,0.5,0.3,0.7,0.2c0.3-0.1,0.5-0.3,0.8-0.4c1.1,1.7,3.3,5,5.7,4.5c0.6-0.1,1.2-0.4,1.8-0.7c0,2.9,2.9,5.1,5.7,3.6
			c2.8-1.6,2.4-5.3-0.1-6.8c0.5-0.3,1-0.6,1.5-1c1.9-1.7,0.2-5.3-0.7-7.3c0.3-0.1,0.5-0.3,0.8-0.4c0.2-0.1,0.3-0.5,0.2-0.7
			c-0.9-1.7-1.9-3.4-2.8-5.1c-0.1-0.1-0.2-0.2-0.3-0.2c0,0,0,0,0,0c0,0,0,0,0,0c-0.1,0-0.2,0-0.4,0c-0.5,0.3-1,0.6-1.5,0.9
			c-1.3-2.4-2.7-4.8-4-7.2c-0.1-0.1-0.2-0.2-0.3-0.2c0,0,0,0,0,0c0,0,0,0,0,0c-0.1,0-0.2,0-0.4,0c-0.1,0-0.2,0.1-0.3,0.1
			c-12.9-23.3-25.6-46.7-38.5-70c0.2-0.1,0.5-0.3,0.7-0.4c0.2-0.1,0.4-0.5,0.2-0.7c-0.7-1.1-1.7-2.4-2.9-3.1c0,0,0,0,0-0.1
			c-5.4-9.7-11-19.2-16.4-28.9c-0.1-0.1-0.2-0.2-0.3-0.2c0.4-1.7-0.5-3.8-1.2-5.2c-0.1-0.2-0.3-0.3-0.5-0.3c-0.1,0-0.2,0-0.2,0.1
			c-0.2,0.1-0.3,0.2-0.5,0.3c-12-21.7-24.3-43.2-36.4-64.9c1.4-0.8,2.7-1.8,2.2-3.2c-0.8-2.2-1.9-2.5-3.9-2.6c-0.1,0-0.2,0-0.3,0
			c0,0,0,0,0,0c-1-1.5-2.8-4.5-5-4.7c1-5-2.9-9.6-7.6-9.5c3.4-3.5,4.3-9,1.8-13.5c-0.5-0.9-1.2-1.8-1.9-2.5c1.1,4.8-1,10-5.5,12.6
			c-4.6,2.5-10.1,1.6-13.6-1.9c0.2,1,0.6,2,1.1,2.9C88.3,156.1,93.3,158.2,98.1,157.2z M222.3,374.2c-2.3,1.2-4.7-0.9-4.1-3.3
			c0,0,0-0.1,0-0.1c0.6-0.4,1.1-0.8,1.7-1c0.5-0.3,1.1-0.6,1.7-0.9c0,0,0,0,0,0C224,369.7,224.6,372.9,222.3,374.2z M223.1,366.8
			c-1.1,0.8-2.5,1.4-3.7,2.1c-1.2,0.7-2.4,1.5-3.6,2c-2.2,0.9-4.1-2-5.2-3.6c4-2.2,8-4.5,12.1-6.7
			C223.5,362.3,224.9,365.4,223.1,366.8z M221,354.8c0.4,0.7,0.8,1.4,1.2,2.1l-14.5,8c-0.4-0.7-0.8-1.4-1.2-2.1
			C211.4,360.2,216.2,357.5,221,354.8z M214.8,348.3c1.2,2.2,2.4,4.3,3.6,6.5c-3.5,1.9-7,3.9-10.5,5.8c-1.2-2.2-2.4-4.3-3.6-6.5
			C207.8,352.2,211.3,350.2,214.8,348.3z M212.5,345.9l-9,5c-1.1-2-2.2-4-3.4-6c3.5,1.3,8.3-1.3,9.1-4.9
			C210.4,341.9,211.4,343.9,212.5,345.9z M176.2,279.8c10.7,19.4,21.3,38.9,32,58.3c1.1,4.4-5.9,8-9.1,5
			c-10.8-19.3-21.7-38.6-32.5-58L176.2,279.8z M175.7,276.3c-3.9,2.2-7.8,4.3-11.7,6.5c-0.7-1.7-1.2-3.7,0.5-4.8
			c1.1-0.7,2.3-1.3,3.5-1.9c1.1-0.6,2.2-1.3,3.3-1.9C173.1,273.2,174.6,274.8,175.7,276.3z M156.7,244.9
			c5.2,9.3,10.6,18.5,15.8,27.8c-0.3,0-0.7,0-1,0.1c-1.4,0.5-2.8,1.6-4.1,2.3c-1.3,0.7-2.9,1.4-4.1,2.3c-0.3,0.2-0.5,0.5-0.7,0.8
			c-5.2-9.3-10.1-18.7-15.2-28c0.1,0,0.3,0,0.4-0.1c1.5-0.4,3-1.6,4.3-2.3c1.3-0.7,3-1.4,4.1-2.3
			C156.5,245.3,156.6,245.1,156.7,244.9z M155.3,239.6c0.8,1.8,1.6,4.1-0.2,5.3c-1.1,0.7-2.3,1.3-3.5,1.9c-1.1,0.6-2.3,1.4-3.5,1.9
			c-1.9,0.9-3.5-1-4.6-2.6C147.5,244,151.4,241.8,155.3,239.6z M123.1,184.2c9.9,17.7,19.9,35.4,29.8,53.1l-9.9,5.5
			c-9.9-17.8-19.6-35.7-29.4-53.5C112.3,184.3,119.6,180.6,123.1,184.2C123,184.2,123,184.2,123.1,184.2z M118.7,176.4
			c1.1,1.9,2.2,3.9,3.2,5.8c-3.8-1.6-8.8,1.1-9.5,5.1c-1.1-1.9-2.1-3.8-3.2-5.7L118.7,176.4z M117.2,169.2c1,0.1,1.1,0,1.7,0.8
			c0.6,0.7,1,1.2,0.5,1.8c-0.7,0.9-2.5,1.7-3.5,2.3c-1.6,0.9-3.1,1.8-4.7,2.7c-1.5,0.8-2.9,1.6-4.4,2.4c-0.5,0.3-1.1,0.5-1.6,0.8
			c-0.3,0.2-0.7,0.2-0.6,0.3c-0.4-0.4-1.1-2-1.2-2.4c0,0,0-0.1,0-0.1c0,0,0,0,0-0.1c0.1-0.3,0.3-0.6,0.4-0.9c1.3-2.4,3-4.9,5.3-6.4
			C111.6,169.1,114.5,169,117.2,169.2z M115.2,168.1c-2.2,0-4.5,0.4-6.5,1.4c-1.9,1.2-3.4,2.9-4.6,4.8c-0.8-1.7-2-4.5-0.4-5.8
			c1-0.8,2.3-1.3,3.4-1.9c1.1-0.6,2.2-1.4,3.4-1.9C112.4,164,114.2,166.5,115.2,168.1z M100,156.6c0.4-0.2,0.9-0.4,1.3-0.6
			c0.4-0.2,0.8-0.5,1.1-0.7c4.8-1.5,9.3,3.3,8,8.2c0,0,0,0,0,0c-1.3,0.4-2.7,1.6-3.8,2.2c-1.1,0.6-2.8,1.2-3.9,2.1
			c0,0-0.1-0.1-0.2-0.1C97.8,166.1,96.3,159.8,100,156.6z"/>
		<path d="M120.1,192.4c-0.2,0.8-1.5,1.6-1.4,1.9c0.2,0.3,1.6-0.3,2.4,0c0.8,0.2,2.1,2.1,2.4,2c0.3-0.2-0.5-2.4-0.3-3.1
			c0.2-0.7,1.5-1.7,1.4-1.9c-0.1-0.3-1.7,0.2-2.4,0c-0.7-0.2-2.1-2.1-2.4-2C119.5,189.5,120.4,191.6,120.1,192.4z"/>
		<path d="M125,201.1c-0.2,0.8-1.5,1.6-1.4,1.9c0.2,0.3,1.6-0.3,2.4,0c0.8,0.2,2.1,2.1,2.4,2c0.3-0.2-0.5-2.4-0.3-3.1
			c0.2-0.7,1.5-1.7,1.4-1.9c-0.1-0.3-1.7,0.2-2.4,0c-0.7-0.2-2.1-2.1-2.4-2C124.3,198.2,125.2,200.3,125,201.1z"/>
		<path d="M192.1,326.4c0.2,0.3,1.6-0.3,2.4,0c0.8,0.2,2.1,2.1,2.4,2c0.3-0.2-0.5-2.4-0.3-3.1c0.2-0.7,1.5-1.7,1.4-1.9
			c-0.1-0.3-1.7,0.2-2.4,0c-0.7-0.2-2.1-2.1-2.4-2c-0.3,0.2,0.5,2.3,0.3,3.1S191.9,326.1,192.1,326.4z"/>
		<path d="M198.3,333.2c-0.2,0.8-1.5,1.6-1.4,1.9c0.2,0.3,1.6-0.3,2.4,0c0.8,0.2,2.1,2.1,2.4,2c0.3-0.2-0.5-2.4-0.3-3.1
			c0.2-0.7,1.5-1.7,1.4-1.9c-0.1-0.3-1.7,0.2-2.4,0c-0.7-0.2-2.1-2.1-2.4-2C197.7,330.3,198.5,332.4,198.3,333.2z"/>
		<path d="M163.9,268.8c0.9-0.5,1.3-1.4,0.5-3c-0.9-1.6-8.7-11.7-8.7-11.7s4.5,12,5.4,13.6S163,269.3,163.9,268.8z"/>
		<polygon points="103.2,162.3 103,164.7 104.1,162.6 106.4,165.4 105.3,161.9 107.7,162.1 105.6,161 108.4,158.7 104.9,159.8 
			105.1,157.4 104,159.6 101.7,156.8 102.8,160.2 100.4,160 102.5,161.1 99.7,163.5 		"/>
		<path d="M142.6,440.4c-0.2,0.1-0.4,0.5-0.2,0.7c0.8,1.3,2.2,3.3,3.9,3.8c0,0.1,0,0.2,0,0.3c5.3,9.7,10.5,19.5,15.9,29.2
			c-0.1,1.4,0.5,3.1,1,4.2c0.1,0.2,0.3,0.3,0.5,0.3c0.1,0,0.1,0,0.2-0.1c0.3-0.1,0.5-0.3,0.8-0.4c12.9,23.3,26.1,46.4,39,69.7
			c-0.1,0.1-0.2,0.1-0.3,0.2c-0.2,0.1-0.3,0.5-0.2,0.7c1.3,2.4,2.7,4.8,4,7.2c-0.5,0.3-1,0.6-1.5,0.9c-0.2,0.1-0.3,0.5-0.2,0.7
			c0.9,1.7,1.9,3.4,2.8,5.1c0.1,0.2,0.5,0.3,0.7,0.2c0.3-0.1,0.5-0.3,0.8-0.4c1.1,1.7,3.3,5,5.7,4.5c0.6-0.1,1.2-0.4,1.8-0.7
			c0,2.9,2.9,5.1,5.7,3.6c2.8-1.6,2.4-5.3-0.1-6.8c0.5-0.3,1-0.6,1.5-1c1.9-1.7,0.2-5.3-0.7-7.3c0.3-0.1,0.5-0.3,0.8-0.4
			c0.2-0.1,0.3-0.5,0.2-0.7c-0.9-1.7-1.9-3.4-2.8-5.1c-0.1-0.1-0.2-0.2-0.3-0.2c0,0,0,0,0,0c0,0,0,0,0,0c-0.1,0-0.2,0-0.4,0
			c-0.5,0.3-1,0.6-1.5,0.9c-1.3-2.4-2.7-4.8-4-7.2c-0.1-0.1-0.2-0.2-0.3-0.2c0,0,0,0,0,0c0,0,0,0,0,0c-0.1,0-0.2,0-0.4,0
			c-0.1,0-0.2,0.1-0.3,0.1c-12.9-23.3-25.6-46.7-38.5-70c0.2-0.1,0.5-0.3,0.7-0.4c0.2-0.1,0.4-0.5,0.2-0.7c-0.7-1.1-1.7-2.4-2.9-3.1
			c0,0,0,0,0-0.1c-5.4-9.7-11-19.2-16.4-28.9c-0.1-0.1-0.2-0.2-0.3-0.2c0.4-1.7-0.5-3.8-1.2-5.2c-0.1-0.2-0.3-0.3-0.5-0.3
			c-0.1,0-0.2,0-0.2,0.1c-0.2,0.1-0.3,0.2-0.5,0.3c-12-21.7-24.3-43.2-36.4-64.9c1.4-0.8,2.7-1.8,2.2-3.2c-0.8-2.2-1.9-2.5-3.9-2.6
			c-0.1,0-0.2,0-0.3,0c0,0,0,0,0,0c-1-1.5-2.8-4.5-5-4.7c1-4.9-2.9-9.6-7.6-9.5c3.4-3.5,4.3-9,1.8-13.5c-0.5-0.9-1.2-1.8-1.9-2.5
			c1.1,4.8-1,10-5.5,12.6c-4.6,2.5-10.1,1.6-13.6-1.9c0.2,1,0.6,2,1.1,2.9c2.5,4.5,7.6,6.6,12.3,5.6c-2.6,3.9-0.7,9.7,4,11.5
			c-1,1.9,0.6,5.1,1.4,6.7c-0.5,0.8-1.1,1.8-1.1,2.7c0.1,0.8,1.2,3.1,2,3.3c0.6,0.1,1.5-0.5,2-0.8c0.3-0.1,0.6-0.3,0.9-0.5
			c0,0.1,0,0.2,0.1,0.3c12,21.6,23.7,43.3,35.7,64.9C142.9,440.2,142.8,440.3,142.6,440.4z M222.3,569c-2.3,1.2-4.7-0.9-4.1-3.3
			c0,0,0-0.1,0-0.1c0.6-0.4,1.1-0.8,1.7-1c0.5-0.3,1.1-0.6,1.7-0.9c0,0,0,0,0,0C224,564.5,224.6,567.7,222.3,569z M223.1,561.6
			c-1.1,0.8-2.5,1.4-3.7,2.1c-1.2,0.7-2.4,1.5-3.6,2c-2.2,0.9-4.1-2-5.2-3.6c4-2.2,8-4.5,12.1-6.7
			C223.5,557.1,224.9,560.2,223.1,561.6z M221,549.6c0.4,0.7,0.8,1.4,1.2,2.1l-14.5,8c-0.4-0.7-0.8-1.4-1.2-2.1
			C211.4,555,216.2,552.3,221,549.6z M214.8,543.1c1.2,2.2,2.4,4.3,3.6,6.5c-3.5,1.9-7,3.9-10.5,5.8c-1.2-2.2-2.4-4.3-3.6-6.5
			C207.8,547,211.3,545.1,214.8,543.1z M212.5,540.7l-9,5c-1.1-2-2.2-4-3.4-6c3.5,1.3,8.3-1.3,9.1-4.9
			C210.4,536.7,211.4,538.7,212.5,540.7z M176.2,474.6c10.7,19.4,21.3,38.9,32,58.3c1.1,4.4-5.9,8-9.1,5
			c-10.8-19.3-21.7-38.6-32.5-58L176.2,474.6z M175.7,471.1c-3.9,2.2-7.8,4.3-11.7,6.5c-0.7-1.7-1.2-3.7,0.5-4.8
			c1.1-0.7,2.3-1.3,3.5-1.9c1.1-0.6,2.2-1.3,3.3-1.9C173.1,468.1,174.6,469.6,175.7,471.1z M156.7,439.7
			c5.2,9.3,10.6,18.5,15.8,27.8c-0.3,0-0.7,0-1,0.1c-1.4,0.5-2.8,1.6-4.1,2.3c-1.3,0.7-2.9,1.4-4.1,2.3c-0.3,0.2-0.5,0.5-0.7,0.8
			c-5.2-9.3-10.1-18.7-15.2-28c0.1,0,0.3,0,0.4-0.1c1.5-0.4,3-1.6,4.3-2.3c1.3-0.7,3-1.4,4.1-2.3
			C156.5,440.1,156.6,439.9,156.7,439.7z M155.3,434.5c0.8,1.8,1.6,4.1-0.2,5.3c-1.1,0.7-2.3,1.3-3.5,1.9c-1.1,0.6-2.3,1.4-3.5,1.9
			c-1.9,0.9-3.5-1-4.6-2.6C147.5,438.8,151.4,436.6,155.3,434.5z M102.6,362.6c-4.7-1.6-6.3-7.9-2.6-11.1c0.4-0.2,0.9-0.4,1.3-0.6
			c0.4-0.2,0.8-0.5,1.1-0.7c4.8-1.5,9.3,3.3,8,8.2c0,0,0,0,0,0c-1.3,0.4-2.7,1.6-3.8,2.2c-1.1,0.6-2.8,1.2-3.9,2.1
			C102.7,362.6,102.6,362.6,102.6,362.6z M103.7,363.3c1-0.8,2.3-1.3,3.4-1.9c1.1-0.6,2.2-1.4,3.4-1.9c1.9-0.7,3.7,1.8,4.7,3.4
			c-2.2,0-4.5,0.4-6.5,1.4c-1.9,1.2-3.4,2.9-4.6,4.8C103.3,367.4,102,364.6,103.7,363.3z M106.8,374c-0.5,0.3-1.1,0.5-1.6,0.8
			c-0.3,0.2-0.7,0.2-0.6,0.3c-0.4-0.4-1.1-2-1.2-2.4c0,0,0-0.1,0-0.1c0,0,0,0,0-0.1c0.1-0.3,0.3-0.6,0.4-0.9c1.3-2.4,3-4.9,5.3-6.4
			c2.4-1.2,5.3-1.4,8-1.2c1,0.1,1.1,0,1.7,0.8c0.6,0.7,1,1.2,0.5,1.8c-0.7,0.9-2.5,1.7-3.5,2.3c-1.6,0.9-3.1,1.8-4.7,2.7
			C109.8,372.4,108.3,373.2,106.8,374z M109.3,376.4l9.4-5.2c1.1,1.9,2.2,3.9,3.2,5.8c-3.8-1.6-8.8,1.1-9.5,5.1
			C111.4,380.2,110.3,378.3,109.3,376.4z M143,437.7c-9.9-17.8-19.6-35.7-29.4-53.5c-1.3-5,6-8.8,9.5-5.1c0,0,0,0,0,0
			c9.9,17.7,19.9,35.4,29.8,53.1L143,437.7z"/>
		<path d="M123.2,388.1c0.2-0.7,1.5-1.7,1.4-1.9c-0.1-0.3-1.7,0.2-2.4,0c-0.7-0.2-2.1-2.1-2.4-2c-0.3,0.2,0.5,2.3,0.3,3.1
			c-0.2,0.8-1.5,1.6-1.4,1.9c0.2,0.3,1.6-0.3,2.4,0c0.8,0.2,2.1,2.1,2.4,2C123.8,391,123,388.8,123.2,388.1z"/>
		<path d="M129.4,394.8c-0.1-0.3-1.7,0.2-2.4,0c-0.7-0.2-2.1-2.1-2.4-2c-0.3,0.2,0.5,2.3,0.3,3.1s-1.5,1.6-1.4,1.9s1.6-0.3,2.4,0
			c0.8,0.2,2.1,2.1,2.4,2c0.3-0.2-0.5-2.4-0.3-3.1C128.3,396.1,129.5,395.1,129.4,394.8z"/>
		<path d="M192.1,521.3c0.2,0.3,1.6-0.3,2.4,0c0.8,0.2,2.1,2.1,2.4,2c0.3-0.2-0.5-2.4-0.3-3.1c0.2-0.7,1.5-1.7,1.4-1.9
			c-0.1-0.3-1.7,0.2-2.4,0c-0.7-0.2-2.1-2.1-2.4-2c-0.3,0.2,0.5,2.3,0.3,3.1S191.9,520.9,192.1,521.3z"/>
		<path d="M198.3,528c-0.2,0.8-1.5,1.6-1.4,1.9s1.6-0.3,2.4,0c0.8,0.2,2.1,2.1,2.4,2c0.3-0.2-0.5-2.4-0.3-3.1
			c0.2-0.7,1.5-1.7,1.4-1.9c-0.1-0.3-1.7,0.2-2.4,0c-0.7-0.2-2.1-2.1-2.4-2C197.7,525.1,198.5,527.2,198.3,528z"/>
		<path d="M163.9,463.7c0.9-0.5,1.3-1.4,0.5-3c-0.9-1.6-8.7-11.7-8.7-11.7s4.5,12,5.4,13.6C161.9,464.1,163,464.2,163.9,463.7z"/>
		<polygon points="107.7,356.9 105.6,355.9 108.4,353.5 104.9,354.6 105.1,352.3 104,354.4 101.7,351.6 102.8,355.1 100.4,354.9 
			102.5,355.9 99.7,358.3 103.2,357.2 103,359.5 104.1,357.4 106.4,360.2 105.3,356.8 		"/>
		<path d="M405.7,150.5c-4.6-2.5-6.7-7.7-5.5-12.6c-0.7,0.7-1.4,1.6-1.9,2.5c-2.5,4.5-1.7,10,1.8,13.5c-4.7-0.2-8.6,4.5-7.6,9.5
			c-2.2,0.2-4,3.2-5,4.7c0,0,0,0,0,0c-0.1,0-0.2,0-0.3,0c-2,0.1-3.1,0.4-3.9,2.6c-0.5,1.4,0.8,2.4,2.2,3.2
			c-12,21.7-24.3,43.2-36.4,64.9c-0.2-0.1-0.3-0.2-0.5-0.3c-0.1,0-0.2-0.1-0.2-0.1c-0.2,0-0.4,0-0.5,0.3c-0.7,1.4-1.6,3.6-1.2,5.2
			c-0.1,0-0.2,0.1-0.3,0.2c-5.4,9.7-11,19.2-16.4,28.9c0,0,0,0,0,0.1c-1.2,0.7-2.2,2-2.9,3.1c-0.2,0.2,0,0.6,0.2,0.7
			c0.2,0.1,0.5,0.3,0.7,0.4c-12.9,23.3-25.6,46.7-38.5,70c-0.1,0-0.2-0.1-0.3-0.1c-0.1-0.1-0.2-0.1-0.4,0c0,0,0,0,0,0c0,0,0,0,0,0
			c-0.1,0-0.2,0.1-0.3,0.2c-1.3,2.4-2.7,4.8-4,7.2c-0.5-0.3-1-0.6-1.5-0.9c-0.1-0.1-0.2-0.1-0.4,0c0,0,0,0,0,0c0,0,0,0,0,0
			c-0.1,0-0.2,0.1-0.3,0.2c-0.9,1.7-1.9,3.4-2.8,5.1c-0.1,0.2,0,0.6,0.2,0.7c0.3,0.1,0.5,0.3,0.8,0.4c-0.9,1.9-2.5,5.5-0.7,7.3
			c0.4,0.4,0.9,0.7,1.5,1c-2.5,1.5-2.9,5.2-0.1,6.8c2.8,1.5,5.7-0.7,5.7-3.6c0.6,0.3,1.2,0.6,1.8,0.7c2.4,0.5,4.5-2.7,5.7-4.5
			c0.3,0.1,0.5,0.3,0.8,0.4c0.2,0.1,0.6,0,0.7-0.2c0.9-1.7,1.9-3.4,2.8-5.1c0.1-0.2,0-0.6-0.2-0.7c-0.5-0.3-1-0.6-1.5-0.9
			c1.3-2.4,2.7-4.8,4-7.2c0.1-0.2,0-0.6-0.2-0.7c-0.1-0.1-0.2-0.1-0.3-0.2c12.9-23.3,26.1-46.4,39-69.7c0.3,0.1,0.5,0.3,0.8,0.4
			c0.1,0,0.2,0.1,0.2,0.1c0.2,0,0.4,0,0.5-0.3c0.5-1.2,1.2-2.8,1-4.2c5.4-9.7,10.5-19.5,15.9-29.2c0.1-0.1,0.1-0.2,0-0.3
			c1.7-0.5,3.1-2.5,3.9-3.8c0.2-0.2,0-0.6-0.2-0.7c-0.2-0.1-0.3-0.2-0.5-0.3c12-21.6,23.7-43.3,35.7-64.9c0.1-0.1,0.1-0.2,0.1-0.3
			c0.3,0.2,0.6,0.3,0.9,0.5c0.5,0.2,1.4,0.9,2,0.8c0.9-0.2,2-2.5,2-3.3c0.1-0.9-0.5-1.8-1.1-2.7c0.8-1.6,2.3-4.7,1.4-6.7
			c4.7-1.8,6.6-7.6,4-11.5c4.8,1,9.8-1.1,12.3-5.6c0.5-0.9,0.9-1.9,1.1-2.9C415.8,152.2,410.3,153.1,405.7,150.5z M281.6,374.2
			c-2.3-1.3-1.7-4.5,0.7-5.2c0,0,0,0,0,0c0.6,0.3,1.2,0.6,1.7,0.9c0.5,0.3,1.1,0.7,1.7,1c0,0,0,0.1,0,0.1
			C286.3,373.3,283.9,375.4,281.6,374.2z M288.2,370.9c-1.2-0.5-2.4-1.4-3.6-2c-1.2-0.7-2.6-1.2-3.7-2.1c-1.8-1.4-0.4-4.5,0.5-6.3
			c4,2.2,8,4.5,12.1,6.7C292.3,368.9,290.4,371.8,288.2,370.9z M297.4,362.8c-0.4,0.7-0.8,1.4-1.2,2.1l-14.5-8
			c0.4-0.7,0.8-1.4,1.2-2.1C287.7,357.5,292.6,360.2,297.4,362.8z M296,360.6c-3.5-1.9-7-3.9-10.5-5.8c1.2-2.2,2.4-4.3,3.6-6.5
			c3.5,1.9,7,3.9,10.5,5.8C298.4,356.3,297.2,358.4,296,360.6z M300.4,350.9l-9-5c1.1-2,2.2-4,3.3-5.9c0.7,3.6,5.6,6.2,9.1,4.9
			C302.6,346.9,301.5,348.9,300.4,350.9z M304.8,343c-3.1,3.1-10.1-0.6-9.1-5c10.7-19.4,21.3-38.9,32-58.3l9.5,5.3
			C326.5,304.4,315.6,323.7,304.8,343z M340,282.8c-3.9-2.2-7.8-4.3-11.7-6.5c1.1-1.5,2.6-3.1,4.5-2.1c1.1,0.6,2.2,1.2,3.3,1.9
			c1.1,0.6,2.4,1.2,3.5,1.9C341.3,279.1,340.7,281.1,340,282.8z M341.3,278.2c-0.2-0.3-0.4-0.5-0.7-0.8c-1.2-0.9-2.8-1.5-4.1-2.3
			c-1.3-0.7-2.7-1.8-4.1-2.3c-0.4-0.1-0.7-0.2-1-0.1c5.2-9.3,10.6-18.5,15.8-27.8c0.1,0.2,0.3,0.4,0.5,0.5c1.2,1,2.8,1.6,4.1,2.3
			c1.3,0.7,2.8,1.9,4.3,2.3c0.1,0,0.3,0.1,0.4,0.1C351.4,259.5,346.5,268.9,341.3,278.2z M355.8,248.8c-1.2-0.6-2.3-1.3-3.5-1.9
			c-1.1-0.6-2.4-1.2-3.5-1.9c-1.8-1.2-1-3.5-0.2-5.3c3.9,2.2,7.8,4.4,11.8,6.5C359.3,247.7,357.7,249.7,355.8,248.8z M390.4,189.4
			c-9.8,17.8-19.5,35.7-29.4,53.5l-9.9-5.5c9.9-17.7,19.9-35.4,29.8-53.1c0,0,0,0,0,0C384.4,180.6,391.7,184.3,390.4,189.4z
			 M391.5,187.3c-0.6-4-5.7-6.7-9.5-5.1c1.1-1.9,2.2-3.9,3.2-5.8l9.4,5.2C393.6,183.5,392.6,185.4,391.5,187.3z M400.5,177.6
			C400.5,177.7,400.5,177.7,400.5,177.6c0,0.1,0,0.1,0,0.1c-0.1,0.4-0.8,2.1-1.2,2.4c0.1-0.1-0.3-0.1-0.6-0.3
			c-0.5-0.3-1.1-0.5-1.6-0.8c-1.5-0.8-3-1.6-4.4-2.4c-1.6-0.9-3.2-1.8-4.7-2.7c-1-0.6-2.8-1.3-3.5-2.3c-0.4-0.6,0-1.1,0.5-1.8
			c0.6-0.7,0.7-0.7,1.7-0.8c2.7-0.2,5.6,0,8,1.2c2.4,1.5,4.1,3.9,5.3,6.4C400.2,177,400.5,177.3,400.5,177.6z M399.9,174.3
			c-1.2-1.9-2.7-3.6-4.6-4.8c-2-1-4.3-1.3-6.5-1.4c1-1.6,2.8-4.2,4.7-3.4c1.2,0.5,2.3,1.3,3.4,1.9c1.1,0.6,2.4,1.1,3.4,1.9
			C401.9,169.8,400.7,172.6,399.9,174.3z M401.4,167.7c-0.1,0-0.1,0.1-0.2,0.1c-1-0.9-2.8-1.5-3.9-2.1c-1.1-0.6-2.5-1.8-3.8-2.2
			c0,0,0,0,0,0c-1.2-4.9,3.3-9.7,8-8.2c0.4,0.3,0.7,0.5,1.1,0.7c0.4,0.2,0.8,0.4,1.3,0.6C407.7,159.8,406.1,166.1,401.4,167.7z"/>
		<path d="M384.1,189.3c-0.3-0.2-1.7,1.8-2.4,2c-0.7,0.2-2.2-0.3-2.4,0c-0.1,0.3,1.1,1.2,1.4,1.9c0.2,0.7-0.6,2.9-0.3,3.1
			c0.3,0.2,1.6-1.7,2.4-2c0.8-0.2,2.2,0.4,2.4,0c0.2-0.3-1.1-1.1-1.4-1.9C383.6,191.6,384.4,189.5,384.1,189.3z"/>
		<path d="M379.3,198c-0.3-0.2-1.7,1.8-2.4,2c-0.7,0.2-2.2-0.3-2.4,0c-0.1,0.3,1.1,1.2,1.4,1.9c0.2,0.7-0.6,2.9-0.3,3.1
			c0.3,0.2,1.6-1.7,2.4-2c0.8-0.2,2.2,0.4,2.4,0c0.2-0.3-1.1-1.1-1.4-1.9C378.8,200.3,379.6,198.2,379.3,198z"/>
		<path d="M310.8,321.4c-0.3-0.2-1.7,1.8-2.4,2c-0.7,0.2-2.2-0.3-2.4,0c-0.1,0.3,1.1,1.2,1.4,1.9c0.2,0.7-0.6,2.9-0.3,3.1
			c0.3,0.2,1.6-1.7,2.4-2c0.8-0.2,2.2,0.4,2.4,0s-1.1-1.1-1.4-1.9C310.3,323.7,311.1,321.6,310.8,321.4z"/>
		<path d="M306,330.1c-0.3-0.2-1.7,1.8-2.4,2c-0.7,0.2-2.2-0.3-2.4,0c-0.1,0.3,1.1,1.2,1.4,1.9c0.2,0.7-0.6,2.9-0.3,3.1
			s1.6-1.7,2.4-2c0.8-0.2,2.2,0.4,2.4,0c0.2-0.3-1.1-1.1-1.4-1.9C305.4,332.4,306.3,330.3,306,330.1z"/>
		<path d="M340.1,268.8c0.9,0.5,1.9,0.4,2.8-1.2c0.9-1.6,5.4-13.6,5.4-13.6s-7.8,10.1-8.7,11.7C338.7,267.4,339.2,268.3,340.1,268.8
			z"/>
		<polygon points="403.5,160 401.2,160.2 402.3,156.8 400,159.6 398.9,157.4 399.1,159.8 395.6,158.7 398.4,161 396.3,162.1 
			398.6,161.9 397.5,165.4 399.9,162.6 400.9,164.7 400.7,162.3 404.2,163.5 401.4,161.1 		"/>
		<path d="M405.7,248c-4.6-2.5-6.7-7.7-5.5-12.6c-0.7,0.7-1.4,1.6-1.9,2.5c-2.5,4.5-1.7,10,1.8,13.5c-4.7-0.2-8.6,4.5-7.6,9.5
			c-2.2,0.2-4,3.2-5,4.7c0,0,0,0,0,0c-0.1,0-0.2,0-0.3,0c-2,0.1-3.1,0.4-3.9,2.6c-0.5,1.4,0.8,2.4,2.2,3.2
			c-12,21.7-24.3,43.2-36.4,64.9c-0.2-0.1-0.3-0.2-0.5-0.3c-0.1,0-0.2-0.1-0.2-0.1c-0.2,0-0.4,0-0.5,0.3c-0.7,1.4-1.6,3.6-1.2,5.2
			c-0.1,0-0.2,0.1-0.3,0.2c-5.4,9.7-11,19.2-16.4,28.9c0,0,0,0,0,0.1c-1.2,0.7-2.2,2-2.9,3.1c-0.2,0.2,0,0.6,0.2,0.7
			c0.2,0.1,0.5,0.3,0.7,0.4c-12.9,23.3-25.6,46.7-38.5,70c-0.1,0-0.2-0.1-0.3-0.1c-0.1-0.1-0.2-0.1-0.4,0c0,0,0,0,0,0c0,0,0,0,0,0
			c-0.1,0-0.2,0.1-0.3,0.2c-1.3,2.4-2.7,4.8-4,7.2c-0.5-0.3-1-0.6-1.5-0.9c-0.1-0.1-0.2-0.1-0.4,0c0,0,0,0,0,0c0,0,0,0,0,0
			c-0.1,0-0.2,0.1-0.3,0.2c-0.9,1.7-1.9,3.4-2.8,5.1c-0.1,0.2,0,0.6,0.2,0.7c0.3,0.1,0.5,0.3,0.8,0.4c-0.9,1.9-2.5,5.5-0.7,7.3
			c0.4,0.4,0.9,0.7,1.5,1c-2.5,1.5-2.9,5.2-0.1,6.8c2.8,1.5,5.7-0.7,5.7-3.6c0.6,0.3,1.2,0.6,1.8,0.7c2.4,0.5,4.5-2.7,5.7-4.5
			c0.3,0.1,0.5,0.3,0.8,0.4c0.2,0.1,0.6,0,0.7-0.2c0.9-1.7,1.9-3.4,2.8-5.1c0.1-0.2,0-0.6-0.2-0.7c-0.5-0.3-1-0.6-1.5-0.9
			c1.3-2.4,2.7-4.8,4-7.2c0.1-0.2,0-0.6-0.2-0.7c-0.1-0.1-0.2-0.1-0.3-0.2c12.9-23.3,26.1-46.4,39-69.7c0.3,0.1,0.5,0.3,0.8,0.4
			c0.1,0,0.2,0.1,0.2,0.1c0.2,0,0.4,0,0.5-0.3c0.5-1.2,1.2-2.8,1-4.2c5.4-9.7,10.5-19.5,15.9-29.2c0.1-0.1,0.1-0.2,0-0.3
			c1.7-0.5,3.1-2.5,3.9-3.8c0.2-0.2,0-0.6-0.2-0.7c-0.2-0.1-0.3-0.2-0.5-0.3c12-21.6,23.7-43.3,35.7-64.9c0.1-0.1,0.1-0.2,0.1-0.3
			c0.3,0.2,0.6,0.3,0.9,0.5c0.5,0.2,1.4,0.9,2,0.8c0.9-0.2,2-2.5,2-3.3c0.1-0.9-0.5-1.8-1.1-2.7c0.8-1.6,2.3-4.7,1.4-6.7
			c4.7-1.8,6.6-7.6,4-11.5c4.8,1,9.8-1.1,12.3-5.6c0.5-0.9,0.9-1.9,1.1-2.9C415.8,249.6,410.3,250.5,405.7,248z M281.6,471.6
			c-2.3-1.3-1.7-4.5,0.7-5.2c0,0,0,0,0,0c0.6,0.3,1.2,0.6,1.7,0.9c0.5,0.3,1.1,0.7,1.7,1c0,0,0,0.1,0,0.1
			C286.3,470.7,283.9,472.8,281.6,471.6z M288.2,468.3c-1.2-0.5-2.4-1.4-3.6-2c-1.2-0.7-2.6-1.2-3.7-2.1c-1.8-1.4-0.4-4.5,0.5-6.3
			c4,2.2,8,4.5,12.1,6.7C292.3,466.3,290.4,469.2,288.2,468.3z M297.4,460.2c-0.4,0.7-0.8,1.4-1.2,2.1l-14.5-8
			c0.4-0.7,0.8-1.4,1.2-2.1C287.7,454.9,292.6,457.6,297.4,460.2z M296,458c-3.5-1.9-7-3.9-10.5-5.8c1.2-2.2,2.4-4.3,3.6-6.5
			c3.5,1.9,7,3.9,10.5,5.8C298.4,453.7,297.2,455.8,296,458z M300.4,448.3l-9-5c1.1-2,2.2-4,3.3-5.9c0.7,3.6,5.6,6.2,9.1,4.9
			C302.6,444.3,301.5,446.3,300.4,448.3z M304.8,440.4c-3.1,3.1-10.1-0.6-9.1-5c10.7-19.4,21.3-38.9,32-58.3l9.5,5.3
			C326.5,401.8,315.6,421.1,304.8,440.4z M340,380.2c-3.9-2.2-7.8-4.3-11.7-6.5c1.1-1.5,2.6-3.1,4.5-2.1c1.1,0.6,2.2,1.2,3.3,1.9
			c1.1,0.6,2.4,1.2,3.5,1.9C341.3,376.5,340.7,378.6,340,380.2z M341.3,375.6c-0.2-0.3-0.4-0.5-0.7-0.8c-1.2-0.9-2.8-1.5-4.1-2.3
			c-1.3-0.7-2.7-1.8-4.1-2.3c-0.4-0.1-0.7-0.2-1-0.1c5.2-9.3,10.6-18.5,15.8-27.8c0.1,0.2,0.3,0.4,0.5,0.5c1.2,1,2.8,1.6,4.1,2.3
			c1.3,0.7,2.8,1.9,4.3,2.3c0.1,0,0.3,0.1,0.4,0.1C351.4,356.9,346.5,366.3,341.3,375.6z M355.8,346.2c-1.2-0.6-2.3-1.3-3.5-1.9
			c-1.1-0.6-2.4-1.2-3.5-1.9c-1.8-1.2-1-3.5-0.2-5.3c3.9,2.2,7.8,4.4,11.8,6.5C359.3,345.2,357.7,347.1,355.8,346.2z M390.4,286.8
			c-9.8,17.8-19.5,35.7-29.4,53.5l-9.9-5.5c9.9-17.7,19.9-35.4,29.8-53.1c0,0,0,0,0,0C384.4,278,391.7,281.8,390.4,286.8z
			 M391.5,284.7c-0.6-4-5.7-6.7-9.5-5.1c1.1-1.9,2.2-3.9,3.2-5.8l9.4,5.2C393.6,280.9,392.6,282.8,391.5,284.7z M400.5,275
			C400.5,275.1,400.5,275.1,400.5,275c0,0.1,0,0.1,0,0.1c-0.1,0.4-0.8,2.1-1.2,2.4c0.1-0.1-0.3-0.1-0.6-0.3
			c-0.5-0.3-1.1-0.5-1.6-0.8c-1.5-0.8-3-1.6-4.4-2.4c-1.6-0.9-3.2-1.8-4.7-2.7c-1-0.6-2.8-1.3-3.5-2.3c-0.4-0.6,0-1.1,0.5-1.8
			c0.6-0.7,0.7-0.7,1.7-0.8c2.7-0.2,5.6,0,8,1.2c2.4,1.5,4.1,3.9,5.3,6.4C400.2,274.4,400.5,274.7,400.5,275z M399.9,271.7
			c-1.2-1.9-2.7-3.6-4.6-4.8c-2-1-4.3-1.3-6.5-1.4c1-1.6,2.8-4.2,4.7-3.4c1.2,0.5,2.3,1.3,3.4,1.9c1.1,0.6,2.4,1.1,3.4,1.9
			C401.9,267.2,400.7,270,399.9,271.7z M401.4,265.1c-0.1,0-0.1,0.1-0.2,0.1c-1-0.9-2.8-1.5-3.9-2.1c-1.1-0.6-2.5-1.8-3.8-2.2
			c0,0,0,0,0,0c-1.2-4.9,3.3-9.7,8-8.2c0.4,0.3,0.7,0.5,1.1,0.7c0.4,0.2,0.8,0.4,1.3,0.6C407.7,257.2,406.1,263.5,401.4,265.1z"/>
		<path d="M384.1,286.8c-0.3-0.2-1.7,1.8-2.4,2c-0.7,0.2-2.2-0.3-2.4,0c-0.1,0.3,1.1,1.2,1.4,1.9c0.2,0.7-0.6,2.9-0.3,3.1
			s1.6-1.7,2.4-2c0.8-0.2,2.2,0.4,2.4,0c0.2-0.3-1.1-1.1-1.4-1.9C383.6,289,384.4,286.9,384.1,286.8z"/>
		<path d="M379.3,295.5c-0.3-0.2-1.7,1.8-2.4,2c-0.7,0.2-2.2-0.3-2.4,0c-0.1,0.3,1.1,1.2,1.4,1.9c0.2,0.7-0.6,2.9-0.3,3.1
			c0.3,0.2,1.6-1.7,2.4-2c0.8-0.2,2.2,0.4,2.4,0s-1.1-1.1-1.4-1.9C378.8,297.7,379.6,295.6,379.3,295.5z"/>
		<path d="M310.8,418.8c-0.3-0.2-1.7,1.8-2.4,2c-0.7,0.2-2.2-0.3-2.4,0c-0.1,0.3,1.1,1.2,1.4,1.9c0.2,0.7-0.6,2.9-0.3,3.1
			c0.3,0.2,1.6-1.7,2.4-2c0.8-0.2,2.2,0.4,2.4,0c0.2-0.3-1.1-1.1-1.4-1.9C310.3,421.1,311.1,419,310.8,418.8z"/>
		<path d="M306,427.5c-0.3-0.2-1.7,1.8-2.4,2c-0.7,0.2-2.2-0.3-2.4,0c-0.1,0.3,1.1,1.2,1.4,1.9c0.2,0.7-0.6,2.9-0.3,3.1
			s1.6-1.7,2.4-2c0.8-0.2,2.2,0.4,2.4,0c0.2-0.3-1.1-1.1-1.4-1.9C305.4,429.8,306.3,427.7,306,427.5z"/>
		<path d="M340.1,366.3c0.9,0.5,1.9,0.4,2.8-1.2c0.9-1.6,5.4-13.6,5.4-13.6s-7.8,10.1-8.7,11.7C338.7,364.8,339.2,365.8,340.1,366.3
			z"/>
		<polygon points="403.5,257.5 401.2,257.7 402.3,254.2 400,257 398.9,254.9 399.1,257.2 395.6,256.1 398.4,258.5 396.3,259.5 
			398.6,259.3 397.5,262.8 399.9,260 400.9,262.1 400.7,259.8 404.2,260.9 401.4,258.5 		"/>
		<path d="M405.7,345.4c-4.6-2.5-6.7-7.7-5.5-12.6c-0.7,0.7-1.4,1.6-1.9,2.5c-2.5,4.5-1.7,10,1.8,13.5c-4.7-0.2-8.6,4.5-7.6,9.5
			c-2.2,0.2-4,3.2-5,4.7c0,0,0,0,0,0c-0.1,0-0.2,0-0.3,0c-2,0.1-3.1,0.4-3.9,2.6c-0.5,1.4,0.8,2.4,2.2,3.2
			c-12,21.7-24.3,43.2-36.4,64.9c-0.2-0.1-0.3-0.2-0.5-0.3c-0.1,0-0.2-0.1-0.2-0.1c-0.2,0-0.4,0-0.5,0.3c-0.7,1.4-1.6,3.6-1.2,5.2
			c-0.1,0-0.2,0.1-0.3,0.2c-5.4,9.7-11,19.2-16.4,28.9c0,0,0,0,0,0.1c-1.2,0.7-2.2,2-2.9,3.1c-0.2,0.2,0,0.6,0.2,0.7
			c0.2,0.1,0.5,0.3,0.7,0.4c-12.9,23.3-25.6,46.7-38.5,70c-0.1,0-0.2-0.1-0.3-0.1c-0.1-0.1-0.2-0.1-0.4,0c0,0,0,0,0,0c0,0,0,0,0,0
			c-0.1,0-0.2,0.1-0.3,0.2c-1.3,2.4-2.7,4.8-4,7.2c-0.5-0.3-1-0.6-1.5-0.9c-0.1-0.1-0.2-0.1-0.4,0c0,0,0,0,0,0c0,0,0,0,0,0
			c-0.1,0-0.2,0.1-0.3,0.2c-0.9,1.7-1.9,3.4-2.8,5.1c-0.1,0.2,0,0.6,0.2,0.7c0.3,0.1,0.5,0.3,0.8,0.4c-0.9,1.9-2.5,5.5-0.7,7.3
			c0.4,0.4,0.9,0.7,1.5,1c-2.5,1.5-2.9,5.2-0.1,6.8c2.8,1.5,5.7-0.7,5.7-3.6c0.6,0.3,1.2,0.6,1.8,0.7c2.4,0.5,4.5-2.7,5.7-4.5
			c0.3,0.1,0.5,0.3,0.8,0.4c0.2,0.1,0.6,0,0.7-0.2c0.9-1.7,1.9-3.4,2.8-5.1c0.1-0.2,0-0.6-0.2-0.7c-0.5-0.3-1-0.6-1.5-0.9
			c1.3-2.4,2.7-4.8,4-7.2c0.1-0.2,0-0.6-0.2-0.7c-0.1-0.1-0.2-0.1-0.3-0.2c12.9-23.3,26.1-46.4,39-69.7c0.3,0.1,0.5,0.3,0.8,0.4
			c0.1,0,0.2,0.1,0.2,0.1c0.2,0,0.4,0,0.5-0.3c0.5-1.2,1.2-2.8,1-4.2c5.4-9.7,10.5-19.5,15.9-29.2c0.1-0.1,0.1-0.2,0-0.3
			c1.7-0.5,3.1-2.5,3.9-3.8c0.2-0.2,0-0.6-0.2-0.7c-0.2-0.1-0.3-0.2-0.5-0.3c12-21.6,23.7-43.3,35.7-64.9c0.1-0.1,0.1-0.2,0.1-0.3
			c0.3,0.2,0.6,0.3,0.9,0.5c0.5,0.2,1.4,0.9,2,0.8c0.9-0.2,2-2.5,2-3.3c0.1-0.9-0.5-1.8-1.1-2.7c0.8-1.6,2.3-4.7,1.4-6.7
			c4.7-1.8,6.6-7.6,4-11.5c4.8,1,9.8-1.1,12.3-5.6c0.5-0.9,0.9-1.9,1.1-2.9C415.8,347,410.3,347.9,405.7,345.4z M281.6,569
			c-2.3-1.3-1.7-4.5,0.7-5.2c0,0,0,0,0,0c0.6,0.3,1.2,0.6,1.7,0.9c0.5,0.3,1.1,0.7,1.7,1c0,0,0,0.1,0,0.1
			C286.3,568.1,283.9,570.2,281.6,569z M288.2,565.7c-1.2-0.5-2.4-1.4-3.6-2c-1.2-0.7-2.6-1.2-3.7-2.1c-1.8-1.4-0.4-4.5,0.5-6.3
			c4,2.2,8,4.5,12.1,6.7C292.3,563.7,290.4,566.6,288.2,565.7z M297.4,557.7c-0.4,0.7-0.8,1.4-1.2,2.1l-14.5-8
			c0.4-0.7,0.8-1.4,1.2-2.1C287.7,552.3,292.6,555,297.4,557.7z M296,555.4c-3.5-1.9-7-3.9-10.5-5.8c1.2-2.2,2.4-4.3,3.6-6.5
			c3.5,1.9,7,3.9,10.5,5.8C298.4,551.1,297.2,553.2,296,555.4z M300.4,545.7l-9-5c1.1-2,2.2-4,3.3-5.9c0.7,3.6,5.6,6.2,9.1,4.9
			C302.6,541.7,301.5,543.7,300.4,545.7z M304.8,537.9c-3.1,3.1-10.1-0.6-9.1-5c10.7-19.4,21.3-38.9,32-58.3l9.5,5.3
			C326.5,499.3,315.6,518.5,304.8,537.9z M340,477.7c-3.9-2.2-7.8-4.3-11.7-6.5c1.1-1.5,2.6-3.1,4.5-2.1c1.1,0.6,2.2,1.2,3.3,1.9
			c1.1,0.6,2.4,1.2,3.5,1.9C341.3,473.9,340.7,476,340,477.7z M341.3,473c-0.2-0.3-0.4-0.5-0.7-0.8c-1.2-0.9-2.8-1.5-4.1-2.3
			c-1.3-0.7-2.7-1.8-4.1-2.3c-0.4-0.1-0.7-0.2-1-0.1c5.2-9.3,10.6-18.5,15.8-27.8c0.1,0.2,0.3,0.4,0.5,0.5c1.2,1,2.8,1.6,4.1,2.3
			c1.3,0.7,2.8,1.9,4.3,2.3c0.1,0,0.3,0.1,0.4,0.1C351.4,454.3,346.5,463.7,341.3,473z M355.8,443.6c-1.2-0.6-2.3-1.3-3.5-1.9
			c-1.1-0.6-2.4-1.2-3.5-1.9c-1.8-1.2-1-3.5-0.2-5.3c3.9,2.2,7.8,4.4,11.8,6.5C359.3,442.6,357.7,444.5,355.8,443.6z M390.4,384.2
			c-9.8,17.8-19.5,35.7-29.4,53.5l-9.9-5.5c9.9-17.7,19.9-35.4,29.8-53.1c0,0,0,0,0,0C384.4,375.4,391.7,379.2,390.4,384.2z
			 M391.5,382.2c-0.6-4-5.7-6.7-9.5-5.1c1.1-1.9,2.2-3.9,3.2-5.8l9.4,5.2C393.6,378.3,392.6,380.2,391.5,382.2z M400.5,372.5
			C400.5,372.5,400.5,372.5,400.5,372.5c0,0.1,0,0.1,0,0.1c-0.1,0.4-0.8,2.1-1.2,2.4c0.1-0.1-0.3-0.1-0.6-0.3
			c-0.5-0.3-1.1-0.5-1.6-0.8c-1.5-0.8-3-1.6-4.4-2.4c-1.6-0.9-3.2-1.8-4.7-2.7c-1-0.6-2.8-1.3-3.5-2.3c-0.4-0.6,0-1.1,0.5-1.8
			c0.6-0.7,0.7-0.7,1.7-0.8c2.7-0.2,5.6,0,8,1.2c2.4,1.5,4.1,3.9,5.3,6.4C400.2,371.8,400.5,372.2,400.5,372.5z M399.9,369.1
			c-1.2-1.9-2.7-3.6-4.6-4.8c-2-1-4.3-1.3-6.5-1.4c1-1.6,2.8-4.2,4.7-3.4c1.2,0.5,2.3,1.3,3.4,1.9c1.1,0.6,2.4,1.1,3.4,1.9
			C401.9,364.6,400.7,367.4,399.9,369.1z M401.4,362.6c-0.1,0-0.1,0.1-0.2,0.1c-1-0.9-2.8-1.5-3.9-2.1c-1.1-0.6-2.5-1.8-3.8-2.2
			c0,0,0,0,0,0c-1.2-4.9,3.3-9.7,8-8.2c0.4,0.3,0.7,0.5,1.1,0.7c0.4,0.2,0.8,0.4,1.3,0.6C407.7,354.6,406.1,360.9,401.4,362.6z"/>
		<path d="M384.1,384.2c-0.3-0.2-1.7,1.8-2.4,2c-0.7,0.2-2.2-0.3-2.4,0c-0.1,0.3,1.1,1.2,1.4,1.9c0.2,0.7-0.6,2.9-0.3,3.1
			s1.6-1.7,2.4-2c0.8-0.2,2.2,0.4,2.4,0c0.2-0.3-1.1-1.1-1.4-1.9C383.6,386.5,384.4,384.3,384.1,384.2z"/>
		<path d="M379.3,392.9c-0.3-0.2-1.7,1.8-2.4,2c-0.7,0.2-2.2-0.3-2.4,0c-0.1,0.3,1.1,1.2,1.4,1.9c0.2,0.7-0.6,2.9-0.3,3.1
			c0.3,0.2,1.6-1.7,2.4-2c0.8-0.2,2.2,0.4,2.4,0s-1.1-1.1-1.4-1.9C378.8,395.2,379.6,393,379.3,392.9z"/>
		<path d="M310.8,516.2c-0.3-0.2-1.7,1.8-2.4,2s-2.2-0.3-2.4,0c-0.1,0.3,1.1,1.2,1.4,1.9c0.2,0.7-0.6,2.9-0.3,3.1
			c0.3,0.2,1.6-1.7,2.4-2c0.8-0.2,2.2,0.4,2.4,0s-1.1-1.1-1.4-1.9C310.3,518.5,311.1,516.4,310.8,516.2z"/>
		<path d="M306,524.9c-0.3-0.2-1.7,1.8-2.4,2c-0.7,0.2-2.2-0.3-2.4,0c-0.1,0.3,1.1,1.2,1.4,1.9c0.2,0.7-0.6,2.9-0.3,3.1
			s1.6-1.7,2.4-2c0.8-0.2,2.2,0.4,2.4,0s-1.1-1.1-1.4-1.9S306.3,525.1,306,524.9z"/>
		<path d="M340.1,463.7c0.9,0.5,1.9,0.4,2.8-1.2c0.9-1.6,5.4-13.6,5.4-13.6s-7.8,10.1-8.7,11.7C338.7,462.2,339.2,463.2,340.1,463.7
			z"/>
		<polygon points="403.5,354.9 401.2,355.1 402.3,351.6 400,354.4 398.9,352.3 399.1,354.6 395.6,353.5 398.4,355.9 396.3,356.9 
			398.6,356.8 397.5,360.2 399.9,357.4 400.9,359.5 400.7,357.2 404.2,358.3 401.4,355.9 		"/>
		<path d="M370.5,608.2c-2.1-4.2-8.1-5.4-11.9-2.1c-1.2-1.8-4.7-2-6.5-2.1c0,0,0,0,0,0c-0.1-0.1-0.1-0.2-0.2-0.3
			c-1-1.7-1.8-2.5-4.1-2.2c-1.4,0.2-1.7,1.9-1.7,3.4c-24.8-0.1-49.6-0.6-74.4-0.7c0-0.2,0-0.4,0-0.6c0-0.1,0-0.2-0.1-0.2
			c-0.1-0.2-0.2-0.3-0.4-0.3c-1.5,0.1-3.9,0.3-5.2,1.5c-0.1-0.1-0.2-0.2-0.4-0.2c-11.1-0.1-22.2-0.4-33.2-0.5c0,0,0,0-0.1,0
			c-1.2-0.8-2.8-1-4.1-1.1c-0.3,0-0.5,0.2-0.5,0.5c0,0.3,0,0.5,0,0.8c-26.6-0.1-53.2,0-79.9-0.1c0-0.1,0-0.2,0-0.3
			c0-0.1-0.1-0.2-0.1-0.3c0,0,0,0,0,0c0,0,0,0,0,0c-0.1-0.1-0.2-0.1-0.3-0.1c-2.7,0-5.5,0-8.2,0c0-0.6,0-1.2,0-1.8
			c0-0.1-0.1-0.2-0.1-0.3c0,0,0,0,0,0c0,0,0,0,0,0c-0.1-0.1-0.2-0.1-0.3-0.1c-1.9,0-3.9,0-5.8,0c-0.3,0-0.5,0.2-0.5,0.5
			c0,0.3,0,0.6,0,0.9c-2.1,0.1-6.1,0.4-6.7,2.9c-0.1,0.5-0.2,1.1-0.2,1.8c-2.5-1.5-5.9,0-6,3.2c0,3.2,3.4,4.7,5.9,3.3
			c0,0.7,0,1.3,0.2,1.9c0.7,2.3,4.6,2.7,6.6,2.8c0,0.3,0,0.6,0,0.9c0,0.3,0.2,0.5,0.5,0.5c1.9,0,3.9,0,5.8,0c0.3,0,0.5-0.2,0.5-0.5
			c0-0.6,0-1.2,0-1.8c2.7,0,5.5,0,8.2,0c0.3,0,0.5-0.2,0.5-0.5c0-0.1,0-0.3,0-0.4c26.6,0.2,53.2,0.6,79.9,0.7c0,0.3,0,0.6,0,0.9
			c0,0.1,0,0.2,0.1,0.2c0.1,0.2,0.2,0.3,0.5,0.3c1.3-0.1,3-0.3,4.2-1.1c11.1,0.1,22.2-0.1,33.2-0.1c0.1,0,0.2-0.1,0.3-0.1
			c1.3,1.2,3.7,1.5,5.2,1.6c0.3,0,0.5-0.2,0.5-0.5c0-0.2,0-0.4,0-0.6c24.7,0.1,49.4,0,74.1,0.1c0.1,0,0.2,0,0.3-0.1c0,0.3,0,0.7,0,1
			c0,0.6-0.1,1.7,0.3,2.2c0.6,0.7,3.1,0.5,3.9,0.2c0.8-0.3,1.4-1.3,1.8-2.2c1.8-0.1,5.3-0.2,6.5-2c3.8,3.3,9.8,2.1,12-2
			c1.4,4.7,5.7,8.1,10.8,8.1c1.1,0,2.1-0.1,3.1-0.4c-4.8-1.4-8.2-5.8-8.2-11c0-5.2,3.6-9.6,8.4-10.9c-1-0.3-2-0.4-3.1-0.5
			C376.3,600.1,371.9,603.5,370.5,608.2z M125.4,612.2C125.3,612.2,125.3,612.2,125.4,612.2c-1.9,1.7-4.9,0.6-4.9-2
			c0-2.6,3.1-3.6,4.9-1.9c0,0,0,0,0,0c0,0.7,0.1,1.3,0.1,1.9C125.5,610.8,125.4,611.5,125.4,612.2z M132.2,617.2
			c-2-0.1-5.4-0.4-5.7-2.8c-0.1-1.3,0-2.8,0-4.1c0-1.4-0.2-2.9,0-4.3c0.3-2.3,3.8-2.5,5.7-2.6C132.2,608,132.2,612.6,132.2,617.2z
			 M138,618.6c-0.8,0-1.6,0-2.4,0l0.1-16.6c0.8,0,1.6,0,2.4,0C138,607.6,138,613.1,138,618.6z M146.7,616.4c-2.5,0-4.9,0-7.4,0
			c0-4,0-8,0.1-12c2.5,0,4.9,0,7.4,0C146.7,608.4,146.7,612.4,146.7,616.4z M149.9,615.5l0.1-10.3c2.3,0,4.5,0,6.8,0
			c-2.8,2.4-2.8,7.9,0.1,10.3C154.5,615.5,152.2,615.5,149.9,615.5z M225.3,616.2c-22.1-0.1-44.3-0.4-66.4-0.6
			c-4.2-1.3-4.3-9.2,0-10.3c22.2,0.1,44.3,0,66.5,0.1L225.3,616.2z M232.6,614.8c-0.1,2-2.2,2.6-4,2.7c0-4.5,0-9,0.1-13.4
			c1.9,0.2,3.9,0.8,4,2.9c0,1.3,0,2.6,0,3.8C232.6,612.1,232.7,613.5,232.6,614.8z M265,611c0,1.5-0.3,3.4,0,4.9
			c0,0.2,0.1,0.3,0.1,0.4c-10.6,0-21.3,0.2-31.9,0.1c0.2-0.3,0.3-0.6,0.3-1c0.2-1.5,0-3.2,0-4.7c0-1.5,0.3-3.3,0-4.7
			c-0.1-0.4-0.2-0.7-0.4-1c10.7,0.1,21.3,0.4,32,0.5c-0.1,0.2-0.2,0.4-0.2,0.7C264.8,607.7,265,609.5,265,611z M270.5,617.7
			c-1.9-0.2-4.4-0.6-4.5-2.8c-0.1-1.3,0-2.6,0-4c0-1.3-0.1-2.7,0-4c0.1-2.1,2.6-2.6,4.5-2.7C270.6,608.8,270.6,613.3,270.5,617.7z
			 M334.8,616.7c-20.3,0-40.7,0.1-61-0.1l0.1-11.3c20.3,0.1,40.6,0.4,60.9,0.6c0,0,0,0,0,0C339.6,607.3,339.8,615.5,334.8,616.7z
			 M343.6,616.8c-2.2,0-4.4,0-6.5,0c3.2-2.5,3.1-8.2-0.1-10.8c2.2,0,4.4,0,6.7,0L343.6,616.8z M350.5,619.2
			c-0.2,0.3-0.3,0.6-0.6,0.8c0,0,0,0,0,0c0,0,0,0-0.1,0c-0.4,0.1-2.2,0.3-2.7,0.1c0.1,0,0-0.3-0.1-0.7c0-0.6-0.1-1.2-0.1-1.8
			c0-1.7-0.1-3.4,0-5c0-1.8,0-3.6,0.1-5.5c0-1.1-0.2-3.1,0.3-4.1c0.3-0.7,1-0.6,1.8-0.4c0.9,0.2,0.9,0.3,1.5,1.2
			c1.4,2.3,2.7,4.9,2.8,7.6C353.4,614.2,352,616.9,350.5,619.2z M357.8,611.5c0,1.3,0.2,2.7,0,3.9c-0.3,2-3.4,2.3-5.3,2.4
			c1.1-2,1.9-4.1,2-6.4c-0.1-2.3-0.9-4.4-1.9-6.4c1.9,0.1,5,0.4,5.3,2.5C358,608.8,357.8,610.2,357.8,611.5z M370,612.9
			c-1,4.8-7.3,6.5-11,3.1c-0.1,0-0.1-0.1-0.2-0.1c0.3-1.3,0-3.1,0-4.4c0-1.3,0.3-3,0.1-4.4c0,0,0,0,0,0c3.7-3.5,10.1-1.8,11.1,3.1
			c-0.1,0.4-0.1,0.9-0.1,1.3C369.9,612,370,612.4,370,612.9z"/>
		<path d="M328.9,610.1c-0.5-0.5-0.8-2.1-1.1-2.1c-0.3,0-0.5,1.6-1,2.1c-0.5,0.5-2.9,0.9-2.9,1.2c0,0.3,2.3,0.6,2.9,1.1
			c0.6,0.6,0.7,2.1,1.1,2.1c0.4,0,0.5-1.5,1-2.1c0.6-0.6,2.9-0.9,2.9-1.2C331.8,610.9,329.4,610.6,328.9,610.1z"/>
		<path d="M318.9,610.1c-0.5-0.5-0.8-2.1-1.1-2.1c-0.3,0-0.5,1.6-1,2.1c-0.5,0.5-2.9,0.9-2.9,1.2c0,0.3,2.3,0.6,2.9,1.1
			c0.6,0.6,0.7,2.1,1.1,2.1c0.4,0,0.5-1.5,1-2.1c0.6-0.6,2.9-0.9,2.9-1.2C321.8,610.8,319.4,610.5,318.9,610.1z"/>
		<path d="M175.7,611.7c0.6,0.6,0.7,2.1,1.1,2.1c0.4,0,0.5-1.5,1-2.1c0.6-0.6,2.9-0.9,2.9-1.2s-2.4-0.7-2.9-1.1s-0.8-2.1-1.1-2.1
			c-0.3,0-0.5,1.6-1,2.1c-0.5,0.5-2.9,0.9-2.9,1.2C172.8,610.9,175.1,611.2,175.7,611.7z"/>
		<path d="M165.8,611.7c0.6,0.6,0.7,2.1,1.1,2.1c0.4,0,0.5-1.5,1-2.1c0.6-0.6,2.9-0.9,2.9-1.2c0-0.3-2.4-0.7-2.9-1.1
			c-0.5-0.5-0.8-2.1-1.1-2.1c-0.3,0-0.5,1.6-1,2.1s-2.9,0.9-2.9,1.2C162.9,610.9,165.2,611.1,165.8,611.7z"/>
		<path d="M240.9,610.9c0,1,0.6,1.9,2.4,1.9c1.8,0,14.5-1.8,14.5-1.8s-12.6-1.9-14.5-1.9C241.5,609,240.9,609.8,240.9,610.9z"/>
		<polygon points="366.8,608.8 364.9,610.2 364.2,606.6 363.5,610.1 361.5,608.8 362.8,610.8 359.2,611.5 362.8,612.2 361.5,614.2 
			363.4,612.8 364.1,616.4 364.8,612.9 366.8,614.2 365.5,612.2 369.1,611.5 365.5,610.8 		"/>
		<path d="M378.6,655.2c0-0.6,0-1.2-0.2-1.8c-0.6-2.5-4.6-2.8-6.7-2.9c0-0.3,0-0.6,0-0.9c0-0.3-0.2-0.5-0.5-0.5c-1.9,0-3.9,0-5.8,0
			c-0.1,0-0.2,0.1-0.3,0.1c0,0,0,0,0,0c0,0,0,0,0,0c-0.1,0.1-0.1,0.2-0.1,0.3c0,0.6,0,1.2,0,1.8c-2.7,0-5.5,0-8.2,0
			c-0.1,0-0.2,0.1-0.3,0.1c0,0,0,0,0,0c0,0,0,0,0,0c-0.1,0.1-0.1,0.2-0.1,0.3c0,0.1,0,0.2,0,0.3c-26.6,0.1-53.2,0-79.9,0.1
			c0-0.3,0-0.5,0-0.8c0-0.3-0.2-0.5-0.5-0.5c-1.3,0.1-2.9,0.3-4.1,1.1c0,0,0,0-0.1,0c-11.1,0.1-22.2,0.4-33.2,0.5
			c-0.2,0-0.3,0.1-0.4,0.2c-1.3-1.2-3.6-1.4-5.2-1.5c-0.2,0-0.4,0.1-0.4,0.3c0,0.1-0.1,0.1-0.1,0.2c0,0.2,0,0.4,0,0.6
			c-24.8,0.1-49.6,0.6-74.4,0.7c0-1.6-0.3-3.2-1.7-3.4c-2.3-0.4-3.1,0.4-4.1,2.2c-0.1,0.1-0.1,0.2-0.2,0.3c0,0,0,0,0,0
			c-1.8,0.1-5.3,0.3-6.5,2.1c-3.9-3.2-9.9-2.1-11.9,2.1c-1.4-4.7-5.8-8.1-11-8c-1.1,0-2.1,0.2-3.1,0.5c4.8,1.3,8.3,5.7,8.4,10.9
			c0,5.2-3.4,9.6-8.2,11c1,0.3,2,0.4,3.1,0.4c5.1,0,9.4-3.5,10.8-8.1c2.1,4.2,8.1,5.3,12,2c1.2,1.8,4.7,1.9,6.5,2
			c0.5,0.9,1,1.9,1.8,2.2c0.7,0.3,3.3,0.4,3.9-0.2c0.4-0.5,0.3-1.6,0.3-2.2c0-0.3,0-0.7,0-1c0.1,0.1,0.2,0.1,0.3,0.1
			c24.7-0.1,49.4,0.1,74.1-0.1c0,0.2,0,0.4,0,0.6c0,0.3,0.2,0.5,0.5,0.5c1.5-0.1,3.9-0.4,5.2-1.6c0.1,0.1,0.2,0.1,0.3,0.1
			c11.1,0,22.2,0.2,33.2,0.1c1.2,0.8,2.9,1,4.2,1.1c0.2,0,0.4-0.1,0.5-0.3c0-0.1,0.1-0.1,0.1-0.2c0-0.3,0-0.6,0-0.9
			c26.6-0.1,53.2-0.5,79.9-0.7c0,0.1,0,0.3,0,0.4c0,0.3,0.2,0.5,0.5,0.5c2.7,0,5.5,0,8.2,0c0,0.6,0,1.2,0,1.8c0,0.3,0.2,0.5,0.5,0.5
			c1.9,0,3.9,0,5.8,0c0.3,0,0.5-0.2,0.5-0.5c0-0.3,0-0.6,0-0.9c2.1-0.1,5.9-0.5,6.6-2.8c0.2-0.6,0.2-1.2,0.2-1.9
			c2.5,1.4,5.9-0.1,5.9-3.3C384.5,655.2,381.1,653.8,378.6,655.2z M145.1,664.1c-0.1,0-0.1,0.1-0.2,0.1c-3.7,3.4-10,1.7-11-3.1
			c0.1-0.5,0.1-0.9,0.1-1.4c0-0.5,0-0.9-0.1-1.3c1-4.9,7.4-6.5,11.1-3.1c0,0,0,0,0,0c-0.3,1.3,0.1,3.1,0.1,4.4
			C145.1,661,144.8,662.8,145.1,664.1z M146.1,663.6c-0.2-1.2,0-2.7,0-3.9c0-1.3-0.2-2.7,0-3.9c0.3-2,3.4-2.4,5.3-2.5
			c-1.1,2-1.9,4.1-1.9,6.4c0.1,2.3,0.9,4.4,2,6.4C149.5,665.9,146.5,665.6,146.1,663.6z M157,665.9c0,0.6,0,1.2-0.1,1.8
			c0,0.3-0.2,0.7-0.1,0.7c-0.5,0.2-2.3,0-2.7-0.1c0,0,0,0-0.1,0c0,0,0,0,0,0c-0.2-0.2-0.4-0.5-0.6-0.8c-1.5-2.3-2.9-5-3-7.8
			c0.1-2.7,1.4-5.3,2.8-7.6c0.6-0.9,0.6-1,1.5-1.2c0.9-0.2,1.5-0.3,1.8,0.4c0.5,1,0.3,3,0.3,4.1c0.1,1.8,0.1,3.6,0.1,5.5
			C157,662.6,157,664.3,157,665.9z M160.3,665l-0.1-10.7c2.2,0,4.4,0,6.7,0c-3.2,2.5-3.3,8.3-0.1,10.8
			C164.7,665,162.5,665,160.3,665z M169.2,665c-5-1.3-4.8-9.5,0-10.8c0,0,0,0,0,0c20.3-0.2,40.6-0.5,60.9-0.6l0.1,11.3
			C209.9,665,189.5,664.9,169.2,665z M237.9,663.2c-0.1,2.2-2.6,2.6-4.5,2.8c0-4.5,0-9-0.1-13.5c1.9,0.2,4.4,0.6,4.5,2.7
			c0.1,1.3,0,2.6,0,4C237.9,660.5,238,661.8,237.9,663.2z M238.8,664.5c0.1-0.1,0.1-0.3,0.1-0.4c0.4-1.5,0-3.4,0-4.9
			c0-1.5,0.2-3.3,0-4.7c0-0.2-0.1-0.5-0.2-0.7c10.7-0.1,21.3-0.4,32-0.5c-0.2,0.3-0.3,0.6-0.4,1c-0.3,1.5,0,3.2,0,4.7
			c0,1.5-0.2,3.2,0,4.7c0.1,0.4,0.2,0.7,0.3,1C260,664.7,249.4,664.5,238.8,664.5z M271.3,663c-0.1-1.3,0-2.6,0-4
			c0-1.3-0.1-2.6,0-3.8c0.1-2.1,2.1-2.7,4-2.9c0,4.5,0,9,0.1,13.4C273.5,665.5,271.5,665,271.3,663z M345.1,663.8
			c-22.1,0.2-44.3,0.5-66.4,0.6l-0.1-10.9c22.2-0.1,44.3,0,66.5-0.1C349.4,654.6,349.3,662.5,345.1,663.8z M347.2,663.7
			c2.8-2.5,2.9-7.9,0.1-10.3c2.3,0,4.5,0,6.8,0l0.1,10.3C351.8,663.7,349.5,663.7,347.2,663.7z M357.3,664.6c0-4,0-8-0.1-12
			c2.5,0,4.9,0,7.4,0c0,4,0,8,0.1,12C362.2,664.5,359.7,664.6,357.3,664.6z M366,666.8c0-5.5-0.1-11-0.1-16.6c0.8,0,1.6,0,2.4,0
			l0.1,16.6C367.6,666.8,366.8,666.8,366,666.8z M377.5,662.6c-0.2,2.4-3.7,2.6-5.7,2.8c0-4.6,0-9.2-0.1-13.8
			c1.9,0.1,5.4,0.3,5.7,2.6c0.2,1.4,0,2.9,0,4.3C377.5,659.8,377.6,661.3,377.5,662.6z M378.7,660.5
			C378.6,660.4,378.6,660.4,378.7,660.5c-0.1-0.7-0.2-1.4-0.2-2c0-0.6,0-1.3,0.1-1.9c0,0,0,0,0,0c1.8-1.7,4.9-0.7,4.9,1.9
			C383.5,661,380.5,662.1,378.7,660.5z"/>
		<path d="M177.2,658.4c-0.5-0.5-0.7-2.1-1-2.1c-0.3,0-0.6,1.6-1.1,2.1c-0.5,0.5-2.9,0.8-2.9,1.1c0,0.3,2.3,0.6,2.9,1.2
			c0.6,0.6,0.7,2.1,1,2.1c0.4,0,0.5-1.5,1.1-2.1c0.6-0.6,2.9-0.8,2.9-1.1C180.1,659.2,177.7,658.9,177.2,658.4z"/>
		<path d="M187.2,658.3c-0.5-0.5-0.7-2.1-1-2.1c-0.3,0-0.6,1.6-1.1,2.1c-0.5,0.5-2.9,0.8-2.9,1.1c0,0.3,2.3,0.6,2.9,1.2
			c0.6,0.6,0.7,2.1,1,2.1c0.4,0,0.5-1.5,1.1-2.1c0.6-0.6,2.9-0.8,2.9-1.1C190,659.2,187.7,658.8,187.2,658.3z"/>
		<path d="M328.3,657.6c-0.5-0.5-0.7-2.1-1-2.1c-0.3,0-0.6,1.6-1.1,2.1c-0.5,0.5-2.9,0.8-2.9,1.1c0,0.3,2.3,0.6,2.9,1.2
			c0.6,0.6,0.7,2.1,1,2.1c0.4,0,0.5-1.5,1.1-2.1c0.6-0.6,2.9-0.8,2.9-1.1C331.1,658.4,328.8,658.1,328.3,657.6z"/>
		<path d="M338.2,657.5c-0.5-0.5-0.7-2.1-1-2.1c-0.3,0-0.6,1.6-1.1,2.1c-0.5,0.5-2.9,0.8-2.9,1.1c0,0.3,2.3,0.6,2.9,1.2
			c0.6,0.6,0.7,2.1,1,2.1c0.4,0,0.5-1.5,1.1-2.1c0.6-0.6,2.9-0.8,2.9-1.1C341.1,658.4,338.7,658,338.2,657.5z"/>
		<path d="M260.6,657.2c-1.8,0-14.5,1.9-14.5,1.9s12.6,1.8,14.5,1.8c1.8,0,2.4-0.9,2.4-1.9C263,658,262.4,657.2,260.6,657.2z"/>
		<polygon points="141.2,659 142.5,657 140.5,658.4 139.8,654.8 139.1,658.4 137.1,657.1 138.4,659 134.9,659.7 138.5,660.4 
			137.1,662.4 139.1,661.1 139.8,664.6 140.5,661.1 142.5,662.4 141.2,660.4 144.7,659.7 		"/>
		<path d="M384.5,697.1c-1-0.3-2-0.4-3.1-0.5c-5.2,0-9.5,3.3-11,8c-2.1-4.2-8.1-5.4-11.9-2.1c-1.2-1.8-4.7-2-6.5-2.1c0,0,0,0,0,0
			c-0.1-0.1-0.1-0.2-0.2-0.3c-1-1.7-1.8-2.5-4.1-2.2c-1.4,0.2-1.7,1.9-1.7,3.4c-24.8-0.1-49.6-0.6-74.4-0.7c0-0.2,0-0.4,0-0.6
			c0-0.1,0-0.2-0.1-0.2c-0.1-0.2-0.2-0.3-0.4-0.3c-1.5,0.1-3.9,0.3-5.2,1.5c-0.1-0.1-0.2-0.2-0.4-0.2c-11.1-0.1-22.2-0.4-33.2-0.5
			c0,0,0,0-0.1,0c-1.2-0.8-2.8-1-4.1-1.1c-0.3,0-0.5,0.2-0.5,0.5c0,0.3,0,0.5,0,0.8c-26.6-0.1-53.2,0-79.9-0.1c0-0.1,0-0.2,0-0.3
			c0-0.1-0.1-0.2-0.1-0.3c0,0,0,0,0,0c0,0,0,0,0,0c-0.1-0.1-0.2-0.1-0.3-0.1c-2.7,0-5.5,0-8.2,0c0-0.6,0-1.2,0-1.8
			c0-0.1-0.1-0.2-0.1-0.3c0,0,0,0,0,0c0,0,0,0,0,0c-0.1-0.1-0.2-0.1-0.3-0.1c-1.9,0-3.9,0-5.8,0c-0.3,0-0.5,0.2-0.5,0.5
			c0,0.3,0,0.6,0,0.9c-2.1,0.1-6.1,0.4-6.7,2.9c-0.1,0.5-0.2,1.1-0.2,1.8c-2.5-1.5-5.9,0-6,3.2c0,3.2,3.4,4.7,5.9,3.3
			c0,0.7,0,1.3,0.2,1.9c0.7,2.3,4.6,2.7,6.6,2.8c0,0.3,0,0.6,0,0.9c0,0.3,0.2,0.5,0.5,0.5c1.9,0,3.9,0,5.8,0c0.3,0,0.5-0.2,0.5-0.5
			c0-0.6,0-1.2,0-1.8c2.7,0,5.5,0,8.2,0c0.3,0,0.5-0.2,0.5-0.5c0-0.1,0-0.3,0-0.4c26.6,0.2,53.2,0.6,79.9,0.7c0,0.3,0,0.6,0,0.9
			c0,0.1,0,0.2,0.1,0.2c0.1,0.2,0.2,0.3,0.5,0.3c1.3-0.1,3-0.3,4.2-1.1c11.1,0.1,22.2-0.1,33.2-0.1c0.1,0,0.2-0.1,0.3-0.1
			c1.3,1.2,3.7,1.5,5.2,1.6c0.3,0,0.5-0.2,0.5-0.5c0-0.2,0-0.4,0-0.6c24.7,0.1,49.4,0,74.1,0.1c0.1,0,0.2,0,0.3-0.1c0,0.3,0,0.7,0,1
			c0,0.6-0.1,1.7,0.3,2.2c0.6,0.7,3.1,0.5,3.9,0.2c0.8-0.3,1.4-1.3,1.8-2.2c1.8-0.1,5.3-0.2,6.5-2c3.8,3.3,9.8,2.1,12-2
			c1.4,4.7,5.7,8.1,10.8,8.1c1.1,0,2.1-0.1,3.1-0.4c-4.8-1.4-8.2-5.8-8.2-11C376.2,702.8,379.8,698.4,384.5,697.1z M125.4,708.6
			C125.3,708.6,125.3,708.7,125.4,708.6c-1.9,1.7-4.9,0.6-4.9-2c0-2.6,3.1-3.6,4.9-1.9c0,0,0,0,0,0c0,0.7,0.1,1.3,0.1,1.9
			C125.5,707.3,125.4,707.9,125.4,708.6z M132.2,713.6c-2-0.1-5.4-0.4-5.7-2.8c-0.1-1.3,0-2.8,0-4.1c0-1.4-0.2-2.9,0-4.3
			c0.3-2.3,3.8-2.5,5.7-2.6C132.2,704.4,132.2,709,132.2,713.6z M138,715c-0.8,0-1.6,0-2.4,0l0.1-16.6c0.8,0,1.6,0,2.4,0
			C138,704,138,709.5,138,715z M146.7,712.8c-2.5,0-4.9,0-7.4,0c0-4,0-8,0.1-12c2.5,0,4.9,0,7.4,0
			C146.7,704.8,146.7,708.8,146.7,712.8z M149.9,711.9l0.1-10.3c2.3,0,4.5,0,6.8,0c-2.8,2.4-2.8,7.9,0.1,10.3
			C154.5,711.9,152.2,711.9,149.9,711.9z M225.3,712.6c-22.1-0.1-44.3-0.4-66.4-0.6c-4.2-1.3-4.3-9.2,0-10.3
			c22.2,0.1,44.3,0,66.5,0.1L225.3,712.6z M232.6,711.2c-0.1,2-2.2,2.6-4,2.7c0-4.5,0-9,0.1-13.4c1.9,0.2,3.9,0.8,4,2.9
			c0,1.3,0,2.6,0,3.8C232.6,708.5,232.7,709.9,232.6,711.2z M265,707.4c0,1.5-0.3,3.4,0,4.9c0,0.1,0.1,0.3,0.1,0.4
			c-10.6,0-21.3,0.2-31.9,0.1c0.2-0.3,0.3-0.6,0.3-1c0.2-1.5,0-3.2,0-4.7c0-1.5,0.3-3.3,0-4.7c-0.1-0.4-0.2-0.7-0.4-1
			c10.7,0.1,21.3,0.4,32,0.5c-0.1,0.2-0.2,0.4-0.2,0.7C264.8,704.1,265,705.9,265,707.4z M270.5,714.2c-1.9-0.2-4.4-0.6-4.5-2.8
			c-0.1-1.3,0-2.6,0-4c0-1.3-0.1-2.7,0-4c0.1-2.1,2.6-2.6,4.5-2.7C270.6,705.2,270.6,709.7,270.5,714.2z M334.8,713.2
			c-20.3,0-40.7,0.1-61-0.1l0.1-11.3c20.3,0.1,40.6,0.4,60.9,0.6c0,0,0,0,0,0C339.6,703.7,339.8,711.9,334.8,713.2z M343.6,713.2
			c-2.2,0-4.4,0-6.5,0c3.2-2.5,3.1-8.2-0.1-10.8c2.2,0,4.4,0,6.7,0L343.6,713.2z M350.5,715.6c-0.2,0.3-0.3,0.6-0.6,0.8c0,0,0,0,0,0
			c0,0,0,0-0.1,0c-0.4,0.1-2.2,0.3-2.7,0.1c0.1,0,0-0.3-0.1-0.7c0-0.6-0.1-1.2-0.1-1.8c0-1.7-0.1-3.4,0-5c0-1.8,0-3.6,0.1-5.5
			c0-1.1-0.2-3.1,0.3-4.1c0.3-0.7,1-0.6,1.8-0.4c0.9,0.2,0.9,0.3,1.5,1.2c1.4,2.3,2.7,4.9,2.8,7.6
			C353.4,710.7,352,713.3,350.5,715.6z M357.8,707.9c0,1.3,0.2,2.7,0,3.9c-0.3,2-3.4,2.3-5.3,2.4c1.1-2,1.9-4.1,2-6.4
			c-0.1-2.3-0.9-4.4-1.9-6.4c1.9,0.1,5,0.4,5.3,2.5C358,705.2,357.8,706.6,357.8,707.9z M370,709.3c-1,4.8-7.3,6.5-11,3.1
			c-0.1,0-0.1-0.1-0.2-0.1c0.3-1.3,0-3.1,0-4.4c0-1.3,0.3-3,0.1-4.4c0,0,0,0,0,0c3.7-3.5,10.1-1.8,11.1,3.1
			c-0.1,0.4-0.1,0.9-0.1,1.3C369.9,708.4,370,708.9,370,709.3z"/>
		<path d="M328.9,706.5c-0.5-0.5-0.8-2.1-1.1-2.1c-0.3,0-0.5,1.6-1,2.1c-0.5,0.5-2.9,0.9-2.9,1.2c0,0.3,2.3,0.6,2.9,1.1
			c0.6,0.6,0.7,2.1,1.1,2.1c0.4,0,0.5-1.5,1-2.1c0.6-0.6,2.9-0.9,2.9-1.2C331.8,707.3,329.4,707,328.9,706.5z"/>
		<path d="M318.9,706.5c-0.5-0.5-0.8-2.1-1.1-2.1c-0.3,0-0.5,1.6-1,2.1c-0.5,0.5-2.9,0.9-2.9,1.2c0,0.3,2.3,0.6,2.9,1.1
			c0.6,0.6,0.7,2.1,1.1,2.1c0.4,0,0.5-1.5,1-2.1c0.6-0.6,2.9-0.9,2.9-1.2C321.8,707.3,319.4,707,318.9,706.5z"/>
		<path d="M175.7,708.1c0.6,0.6,0.7,2.1,1.1,2.1c0.4,0,0.5-1.5,1-2.1c0.6-0.6,2.9-0.9,2.9-1.2c0-0.3-2.4-0.7-2.9-1.1
			s-0.8-2.1-1.1-2.1c-0.3,0-0.5,1.6-1,2.1c-0.5,0.5-2.9,0.9-2.9,1.2C172.8,707.4,175.1,707.6,175.7,708.1z"/>
		<path d="M165.8,708.1c0.6,0.6,0.7,2.1,1.1,2.1c0.4,0,0.5-1.5,1-2.1c0.6-0.6,2.9-0.9,2.9-1.2c0-0.3-2.4-0.7-2.9-1.1
			c-0.5-0.5-0.8-2.1-1.1-2.1c-0.3,0-0.5,1.6-1,2.1c-0.5,0.5-2.9,0.9-2.9,1.2S165.2,707.5,165.8,708.1z"/>
		<path d="M240.9,707.3c0,1,0.6,1.9,2.4,1.9c1.8,0,14.5-1.8,14.5-1.8s-12.6-1.9-14.5-1.9C241.5,705.4,240.9,706.2,240.9,707.3z"/>
		<polygon points="366.8,705.3 364.9,706.6 364.2,703 363.5,706.6 361.5,705.2 362.8,707.2 359.2,707.9 362.8,708.6 361.5,710.6 
			363.4,709.3 364.1,712.9 364.8,709.3 366.8,710.6 365.5,708.6 369.1,708 365.5,707.2 		"/>
	</g>
</g>
</svg>
