<?xml version="1.0" encoding="utf-8"?>
<!-- Generator: Adobe Illustrator 21.1.0, SVG Export Plug-In . SVG Version: 6.00 Build 0)  -->
<svg version="1.1" xmlns="http://www.w3.org/2000/svg" xmlns:xlink="http://www.w3.org/1999/xlink" x="0px" y="0px"
	 viewBox="0 0 504 864" style="enable-background:new 0 0 504 864;" xml:space="preserve">
<style type="text/css">
	.st0{fill:#040404;}
</style>
<g id="Слой_1">
</g>
<g id="Слой_2">
	<g>
		<path d="M503.8,18.2c-1.6-17.9-18.7-16.3-31.6-16.3c-45.9,0-91.8,0-137.6,0c-63.2,0-126.3,0-189.5,0c-40.6,0-81.2,0-121.8,0
			c-2.6,0-5.3-0.2-8,0.2c-9.5,1.2-15,9.2-15.2,18.2c-0.2,7.3,0,14.5,0,21.8c0,37.4,0,74.9,0,112.3c0,57,0,114.1,0,171.1
			c0,64.3,0,128.6,0,192.9c0,58.4,0,116.7,0,175.1c0,40.1,0,80.2,0,120.3c0,9.1,0,18.2,0,27.3c0,11.7,6.7,20.5,19.2,20.7
			c35.9,0.6,71.9,0,107.9,0c62.4,0,124.9,0,187.3,0c49.7,0,99.5,0,149.2,0c7.6,0,15.2,0,22.9,0c0.4,0,0.8-0.1,1.2-0.2
			c14.4-1.8,16.1-13.8,16.1-25.5c0-11.4,0-22.8,0-34.3c0-43.4,0-86.9,0-130.3c0-59.9,0-119.8,0-179.8c0-63.9,0-127.7,0-191.6
			c0-55.3,0-110.6,0-165.9c0-33.7,0-67.3,0-101C503.9,28.3,504.2,23.2,503.8,18.2z M486.6,852.8c-28.3,0-56.6,0-84.9,0
			c-59.9,0-119.8,0-179.7,0c-54,0-108,0-162,0c-13.1,0-26.1,0-39.2,0c-5.6,0-11-1.3-11.7-8.3c-0.2-1.5,0-3,0-4.5c0-26.5,0-53,0-79.5
			c0-50,0-100,0-149.9c0-61.8,0-123.6,0-185.4c0-61.4,0-122.7,0-184.1c0-48.9,0-97.7,0-146.6c0-24.2-0.8-48.6,0-72.7
			c0.2-5.3,1.6-10.1,8.3-10.8c2.2-0.2,4.5,0,6.7,0c14.8,0,29.6,0,44.5,0c55.6,0,111.3,0,166.9,0c58.9,0,117.8,0,176.7,0
			c18.9,0,37.9,0,56.8,0c8.1,0,24.7-3.1,25.9,8.4c0.5,5.2,0,10.8,0,16.1c0,13.5,0,27.1,0,40.6c0,45.5,0,91.1,0,136.6
			c0,60.1,0,120.2,0,180.3c0,62.6,0,125.1,0,187.7c0,52.8,0,105.6,0,158.4c0,31.4,0,62.7,0,94.1C494.8,840.3,496.9,852,486.6,852.8z
			"/>
		<path d="M460,790.9c1.2,0.1,2.4-0.7,2.4-2.2c0-23.7,0-47.4,0-71.1c0-56.4,0-112.8,0-169.2c0-68.7,0-137.4,0-206
			c0-59,0-117.9,0-176.9c0-19.6,0-39.2,0-58.8c0-8.9,1.3-19,0-27.9c-0.1-0.4,0-0.8,0-1.2c0-0.8-0.3-1.3-0.8-1.7
			c0.1-1.2-0.6-2.5-2.2-2.6c-13.1-0.5-25.3-13.8-25.8-26.7c0-0.5-0.2-0.8-0.4-1.1c-0.3-0.6-1-1.1-1.9-1.1c-40.5,0-80.9,0-121.4,0
			c-64.5,0-129,0-193.6,0c-14.9,0-29.7,0-44.6,0c-0.9,0-1.6,0.5-1.9,1.1c-0.2,0.3-0.3,0.7-0.4,1.2C69.1,59.5,57,72.8,43.9,73.3
			c-1.8,0.1-2.5,1.9-2,3.2c-0.2,0.3-0.2,0.6-0.2,1c0,23.7,0,47.4,0,71.1c0,56.4,0,112.8,0,169.2c0,68.7,0,137.4,0,206
			c0,59,0,117.9,0,176.9c0,19.6,0,39.2,0,58.8c0,8.9-1.3,19,0,27.9c0.1,0.4,0,0.8,0,1.2c0,0.9,0.5,1.6,1.1,1.9
			c0.3,0.2,0.7,0.3,1.2,0.4c13,0.5,25.3,13.3,25.8,26.2c0,0.5,0.2,0.8,0.4,1.1c0.3,0.6,1,1.1,1.9,1.1c40.5,0,80.9,0,121.4,0
			c64.5,0,129,0,193.6,0c14.9,0,29.7,0,44.6,0c0.9,0,1.6-0.5,1.9-1.1c0.2-0.3,0.3-0.7,0.4-1.2c0.5-12.9,12.7-25.7,25.8-26.2
			C459.6,791,459.8,790.9,460,790.9z M429.3,814.9c-39.8,0-79.6,0-119.3,0c-64.5,0-129,0-193.6,0c-14.2,0-28.3,0-42.5,0
			c-1.7-13.9-13.9-26.5-27.8-28.3c0-23,0-46,0-69.1c0-56.4,0-112.8,0-169.2c0-68.7,0-137.4,0-206c0-59,0-117.9,0-176.9
			c0-19.6,0-39.2,0-58.8c0-8.9,1.3-19,0-27.9c-0.1-0.4,0-0.8,0-1.2c14-1.8,26.1-14.9,27.8-28.7c39.8,0,79.6,0,119.3,0
			c64.5,0,129,0,193.6,0c14.2,0,28.3,0,42.5,0c1.7,14.1,14.3,27.3,28.5,28.8c0,23.7,0,47.3,0,71c0,56.4,0,112.8,0,169.2
			c0,68.7,0,137.4,0,206c0,59,0,117.9,0,176.9c0,19.6,0,39.2,0,58.8c0,8.6-1.2,18.4-0.1,27C443.6,788.1,431.1,800.9,429.3,814.9z"/>
		<path d="M104.6,780.6c0-0.1-0.1-0.1-0.3-0.1c-0.2,0-0.3,0-0.3,0.1c0,0.1,0.1,0.2,0.3,0.2C104.5,780.7,104.6,780.7,104.6,780.6z"/>
		<path d="M112.3,783.4c-0.1,0-0.2,0-0.2-0.1c0-0.1-0.1-0.2-0.4-0.3c-0.3-0.1-0.4-0.3-0.5-0.5l-0.2-0.3c-0.1-0.1-0.2-0.1-0.2,0.1
			c0,0.1-0.3,0.1-0.8,0.1c-0.6,0-0.9,0-0.9-0.1c0-0.1-0.1-0.1-0.3-0.1c-0.5,0-0.8-0.1-0.8-0.4c0-0.1-0.1-0.2-0.3-0.2
			s-0.3,0.1-0.2,0.3c0,0,0,0,0,0.1s0,0,0,0.1c0,0.1-0.6,0.2-1.8,0.2H104l-0.5,0.5c-0.3,0.3-0.5,0.5-0.5,0.7c0,0.2,0.2,0.4,0.7,0.4
			c0.2,0,0.3,0,0.3,0.1s0,0.1,0.1,0.1c0.2,0,0.4,0.2,0.6,0.5c0.2,0.3,0.3,0.7,0.3,1.2c0,0.4,0.1,0.6,0.1,0.6c0,0.2-0.1,0.4-0.2,0.5
			c-0.2,0.1-0.2,0.2-0.1,0.3c0.1,0.1,0.2,0.3,0.2,0.7c0,0.3-0.1,0.5-0.2,0.5c-0.2,0-0.2,0,0,0.1c0.1,0.1,0.1,0.3,0,0.6
			c-0.1,0.3-0.1,0.5,0.1,0.6c0.1,0.1,0.1,0.2,0.1,0.3c0,0.2-0.1,0.4-0.2,0.5c-0.1,0.1-0.1,0.6-0.2,1.6l0,1.5l-0.4,0.2
			c-0.2,0.1-0.5,0.2-1.1,0.2c-0.3,0-0.5,0.1-0.5,0.1s-0.1,0.2-0.1,0.4c0,0.2,0.2,0.5,0.6,0.8c0.2,0.1,0.3,0.2,0.5,0.2
			c0.2,0,0.3-0.1,0.3-0.2c0.1-0.1,0.8-0.2,2.1-0.2c1.4-0.1,2.1-0.1,2.2-0.3c0.1-0.1,0.2-0.2,0.3-0.2c0.1,0,0.2-0.1,0.2-0.2
			c0-0.1-0.1-0.2-0.4-0.2c-0.3,0-0.4-0.1-0.5-0.3c0-0.2-0.2-0.3-0.5-0.4c-0.4-0.1-0.5-0.2-0.5-0.4c0-0.1,0-0.2,0.1-0.3
			c0.2-0.2,0.2-0.3,0.1-0.4c-0.1,0-0.2-0.6-0.2-1.6c0-0.3,0-0.6,0-1c0-0.3,0-0.4,0.1-0.5c0-0.1,0.1-0.1,0.2-0.1c0.2,0,0.5,0,0.8,0.1
			c0.3,0.1,0.5,0.2,0.6,0.3c0.1,0.1,0.7,0.2,1.7,0.2c0.8,0,1.2,0,1.2-0.1c0.1-0.1,0-0.2-0.2-0.3c-0.2-0.1-0.4-0.2-0.5-0.4
			c-0.1-0.1-0.2-0.2-0.2-0.2c0,0,0.1-0.1,0.3-0.1c0.3-0.1,0.4-0.1,0.4-0.2s0.1-0.2,0.4-0.3c0.3-0.1,0.4-0.2,0.4-0.4
			c0-0.5,0.1-0.7,0.3-0.7c0.1,0,0.2-0.1,0.4-0.2c0.2-0.2,0.2-0.7,0.2-1.5c0-1-0.1-1.5-0.3-1.7C112.5,783.5,112.4,783.4,112.3,783.4z
			 M110.7,787.1c0,0-0.1,0.1-0.4,0.1h-0.1c0,0-0.1,0-0.1,0c-0.1,0-0.1,0,0,0.1c0.1,0.1,0.2,0.1,0.2,0.2c0,0.1-0.1,0.3-0.3,0.5
			c-0.2,0.2-0.5,0.3-0.7,0.3s-0.6,0.1-1.1,0.2c-0.1,0-0.2,0-0.3,0c-0.2,0-0.4-0.1-0.7-0.3c-0.2-0.2-0.3-0.3-0.4-0.3
			c0-0.1,0-0.1,0.1-0.2c0.1-0.1,0.2-0.7,0.2-1.6v-1.2c0-0.3,0.1-0.5,0.2-0.7c0.1-0.2,0.3-0.4,0.4-0.4h0.1l0.4,0.1
			c0.3,0,0.5,0.1,0.8,0.1c0.2,0.1,0.4,0.1,0.4,0.1c0,0.1,0.1,0.1,0.4,0.2c0.3,0.1,0.4,0.2,0.4,0.3c0,0.1,0.1,0.3,0.2,0.4
			c0.1,0.1,0.2,0.2,0.1,0.3c-0.1,0.1-0.1,0.3,0.1,0.6c0.1,0.2,0.2,0.4,0.2,0.6C110.8,786.2,110.7,786.5,110.7,787.1z"/>
		<path d="M109,781.6C109.1,781.5,109.1,781.5,109,781.6c0.1-0.1,0-0.1-0.2-0.1c-0.2,0-0.3,0.1-0.3,0.2
			C108.6,781.7,108.8,781.7,109,781.6C109,781.6,109,781.6,109,781.6z"/>
		<path d="M133.3,792.9c-0.1,0-0.1-0.1-0.2-0.4c-0.1-0.2-0.1-0.3-0.2-0.3c0,0-0.3,0.1-0.8,0.2c0,0-0.1,0-0.2,0c-0.4,0-0.7-0.6-1-1.7
			c-0.2-0.8-0.4-1.3-0.4-1.4c-0.1-0.1-0.2-0.3-0.2-0.5c-0.1-0.4-0.3-1.3-0.8-2.8s-0.7-2.4-0.8-2.7c-0.2-1-0.4-1.5-0.5-1.7
			c-0.1-0.2-0.2-0.3-0.4-0.3c-0.3-0.1-0.4,0-0.5,0.1c-0.1,0.1-0.2,0.2-0.4,0.2c-0.2,0-0.4,0.1-0.4,0.2c0,0.1-0.1,0.1-0.2,0.1
			c-0.1,0-0.2,0.2-0.4,0.6c-0.2,0.4-0.3,0.8-0.5,1.2c-0.1,0.4-0.2,0.6-0.3,0.7c-0.1,0.1-0.1,0.2-0.1,0.4c0,0.2-0.1,0.6-0.4,1.2
			c-0.3,0.6-0.5,1.1-0.5,1.5c-0.1,0.4-0.2,0.6-0.2,0.7c-0.1,0.1-0.2,0.3-0.4,0.8c-0.2,0.5-0.3,0.7-0.3,0.8c-0.1,0.2-0.2,0.4-0.2,0.5
			c0,0.2,0,0.2-0.1,0.2s-0.2,0.1-0.3,0.4c-0.1,0.2-0.2,0.4-0.2,0.6c0,0.1-0.2,0.3-0.5,0.6c-0.3,0.3-0.5,0.4-0.7,0.4
			c-0.2,0-0.3,0.1-0.5,0.4c-0.2,0.2-0.4,0.4-0.5,0.4c-0.1,0-0.2,0.1-0.4,0.4c-0.1,0.2-0.1,0.3-0.1,0.4c0,0.1,0.1,0.3,0.4,0.5
			l0.5,0.4l2-0.1c1.1,0,1.8-0.1,2.1-0.1c0.3,0,0.5-0.1,0.5-0.2c0,0,0-0.1-0.1-0.2c-0.1-0.2-0.1-0.3,0.1-0.3c0.1,0,0.2-0.1,0.2-0.2
			c0-0.1-0.1-0.2-0.2-0.2s-0.3-0.1-0.4-0.2c-0.1-0.1-0.4-0.2-0.7-0.3c-0.5-0.1-0.7-0.3-0.7-0.5c0-0.1,0-0.2,0.1-0.3
			c0.1-0.2,0.2-0.3,0.2-0.5c0-0.1,0-0.2,0.1-0.2c0.1,0,0.1-0.2,0.1-0.7v-0.7h0.6c0.4,0,0.7-0.1,0.7-0.2c0.1-0.2,0.6-0.2,1.5-0.2h0.4
			c0.7,0,1,0,1.1,0.1c0.1,0.1,0.2,0.4,0.2,0.8c0,0.5,0.1,0.8,0.3,0.9c0.2,0.2,0.3,0.4,0.3,0.6c0,0,0,0,0,0.1c0,0,0,0.1,0,0.1
			c0,0.3-0.1,0.4-0.1,0.5c-0.1,0.1-0.3,0.1-0.6,0.2c-0.5,0.1-0.7,0.2-0.8,0.3c0,0.1-0.1,0.1-0.3,0.1c-0.2,0-0.3,0.1-0.3,0.3
			c0,0.3,0,0.4,0.1,0.5c0.1,0.1,0.3,0.1,0.6,0.1c0.3,0,0.7,0,1.3-0.1c0.6-0.1,1.3-0.1,2-0.1c0.4,0,0.7,0,0.8,0c0.2,0,0.4,0,0.6,0
			c0.3,0,0.5-0.1,0.5-0.3c0.1-0.2,0.1-0.3,0.2-0.3c0.1,0,0.1-0.2,0.1-0.5C133.5,793.1,133.4,792.9,133.3,792.9z M127.1,788.4
			c0,0-0.1,0-0.2,0c-0.1,0-0.1,0-0.1,0c-0.3,0-0.5,0.1-0.6,0.2c-0.1,0.1-0.3,0.2-0.4,0.2c-0.2,0-0.3-0.1-0.4-0.2
			c-0.1-0.1-0.2-0.2-0.3-0.2s-0.2-0.1-0.2-0.2c0-0.1,0-0.2,0.1-0.2c0.1,0,0.2-0.1,0.3-0.4c0.1-0.3,0.2-0.5,0.2-0.7
			c0-0.2,0.1-0.3,0.2-0.4c0.1,0,0.2-0.3,0.2-0.8c0.1-0.6,0.3-0.9,0.6-0.9c0.2,0,0.3,0.1,0.5,0.2c0.1,0.1,0.2,0.2,0.4,0.5
			c0.1,0.3,0.2,0.4,0.2,0.5c0,0-0.1,0.1-0.3,0.1c-0.2,0-0.3,0.1-0.4,0.2c-0.1,0.1,0,0.2,0.1,0.2c0.1,0,0.2,0.1,0.2,0.2
			c0.1,0.1,0.2,0.3,0.2,0.4c0.1,0.2,0.1,0.2,0.2,0.3c0.1,0.1,0.1,0.3,0.2,0.6l0.1,0.5L127.1,788.4z"/>
		<path d="M149.8,790.1c-0.3,0-0.5,0-0.6,0c-0.7,0-1.1,0-1.3,0.1c-0.2,0.1-0.4,0.2-0.4,0.3c0,0.1-0.1,0.2-0.1,0.3
			c0,0.2,0.1,0.3,0.3,0.4c0.2,0.1,0.5,0.2,0.9,0.2c0.7,0.1,1,0.2,1,0.3c0,0-0.1,0.2-0.2,0.5c-0.1,0.3-0.3,0.5-0.5,0.5
			c-0.2,0-0.4,0.1-0.6,0.4c-0.1,0.2-0.2,0.3-0.3,0.3c0,0-0.1,0-0.1-0.1c0-0.1-0.1-0.1-0.1-0.1c-0.1,0-0.2,0-0.3,0.1
			c-0.1,0.1-0.4,0.2-0.8,0.2c-0.3,0-0.5,0-0.7,0c-0.6,0-1.1-0.1-1.2-0.2c-0.2-0.1-0.3-0.3-0.3-0.6c0-0.2-0.1-0.4-0.3-0.5
			c-0.2-0.1-0.3-0.2-0.3-0.4s0-0.2-0.1-0.2c-0.3,0-0.5-0.5-0.7-1.4c-0.1-0.7-0.2-1-0.3-1c-0.1,0-0.1-0.1-0.1-0.2s0-0.2,0.1-0.3
			c0.2,0,0.3-0.7,0.3-1.9c0-0.2,0.1-0.2,0.3-0.2c0.2,0,0.3-0.1,0.3-0.2c0-0.1,0-0.2-0.2-0.4c-0.1-0.1-0.1-0.2,0-0.2
			c0.2,0,0.4-0.1,0.6-0.2c0.2-0.1,0.4-0.3,0.4-0.4c0-0.1,0.1-0.3,0.3-0.4c0.2-0.1,0.4-0.2,0.7-0.2c0.2,0,0.3-0.1,0.3-0.2
			c0-0.1,0.2-0.2,0.7-0.2c0.1,0,0.2,0,0.4,0c0.5,0,0.9,0.2,1.1,0.5c0.1,0.2,0.4,0.3,0.6,0.4c0.2,0.1,0.4,0.2,0.4,0.3v0.2
			c0,0.1,0,0.2,0.1,0.3c0.1,0.1,0.2,0.2,0.3,0.5c0.1,0.2,0.1,0.3,0.2,0.4c0.1,0.1,0.2,0.1,0.5,0.1c0.2,0,0.3,0.1,0.4,0.1
			c0.1,0,0.2-0.1,0.3-0.4c0.1-0.2,0.1-0.5,0.1-0.9c0-0.3,0-0.5,0.1-0.5c0.1,0,0.1-0.1,0.1-0.2c0-0.3-0.1-0.6-0.2-0.9
			c-0.1-0.1-0.1-0.2-0.2-0.3c-0.1,0-0.4,0-0.8,0c-0.6,0-1,0-1.1-0.1c-0.1-0.1-0.8-0.2-2.1-0.2c-0.6,0-0.9,0-1.1,0.1
			c-0.7,0.1-1.1,0.2-1.2,0.3c-0.2,0.1-0.7,0.5-1.6,1.3c-0.8,0.8-1.2,1.2-1.2,1.3c0,0.1-0.1,0.2-0.2,0.4c-0.1,0.2-0.2,0.4-0.2,0.6
			c0,0.3,0,0.4-0.1,0.5c-0.1,0.1-0.2,0.2-0.2,0.3c0,0.2-0.1,0.3-0.2,0.4c-0.1,0.1-0.2,0.6-0.2,1.4c0,1,0.1,1.5,0.2,1.6
			c0.1,0,0.1,0.1,0.1,0.2c0,0.1,0,0.2-0.1,0.2c-0.1,0,0,0.2,0.2,0.4c0.3,0.2,0.4,0.4,0.5,0.4c0.1,0,0.1,0.1,0.2,0.3
			c0.1,0.2,0.2,0.4,0.6,0.7c0.3,0.3,0.6,0.5,0.8,0.6c0.2,0.1,0.2,0.1,0.2,0.2c0,0.1,0.3,0.2,1,0.3s1.3,0.1,2.1,0.1
			c1,0,1.6-0.1,1.8-0.3c0.1-0.1,0.3-0.2,0.6-0.3c0.4-0.1,0.6-0.2,0.7-0.2c0,0,0.1,0,0.1,0c0,0-0.1,0.2-0.2,0.5
			c-0.1,0.3-0.2,0.5-0.2,0.5c0,0.2,0.2,0.3,0.6,0.3c0.2,0,0.4,0,0.6,0c1-0.1,1.5-0.2,1.5-0.4c0-0.1-0.1-0.3-0.4-0.5
			c-0.2-0.1-0.3-0.3-0.3-0.4c0-0.2-0.1-0.6-0.1-1.2l-0.1-1.3l0.5,0.1c0.3,0,0.5,0,0.6-0.2c0.1-0.2,0.3-0.3,0.6-0.3
			c0.3,0,0.4-0.1,0.4-0.1c0-0.1,0.1-0.2,0.1-0.5v-0.6l-2.4-0.1C150.3,790.1,150.1,790.1,149.8,790.1z"/>
		<path d="M160.1,792c0.1-0.2,0.1-0.3,0-0.3c-0.1,0-0.2,0.1-0.2,0.2c0,0.1,0,0.2,0.1,0.2C160,792.1,160.1,792.1,160.1,792z"/>
		<path d="M170.2,790.2c-0.1,0-0.3,0.2-0.5,0.5c-0.3,0.3-0.4,0.5-0.4,0.7c0,0.1-0.1,0.2-0.4,0.2c-0.1,0-0.2,0-0.3,0.1
			c0,0-0.1,0.1-0.1,0.1c0,0,0,0.1,0,0.3c0,0.2-0.1,0.3-0.4,0.3c0,0-0.1,0-0.1,0c-0.1,0-0.1,0-0.2,0c-0.2,0-0.4,0.1-0.6,0.3
			c-0.2,0.2-0.4,0.3-0.6,0.3c-0.1,0-0.2-0.1-0.2-0.2c0-0.1-0.1-0.1-0.4,0c-0.2,0.1-0.6,0.2-1.2,0.2c-0.5,0-0.7,0-0.7-0.1
			s-0.1-0.1-0.2-0.1c-0.1,0-0.1-0.1-0.2-0.2c-0.1-0.2-0.1-0.3-0.1-0.4c0-0.1,0-0.2,0-0.3c0-0.2,0-0.4,0-0.6c0-0.3,0-0.5,0-0.8
			c0-0.3,0-0.5,0-0.8c0-0.3,0-0.5,0-0.6v-0.2c0-0.1,0.4-0.1,1.3-0.1c0.7,0,1.2,0.1,1.4,0.2c0.2,0.1,0.4,0.4,0.4,0.8
			c0,0.2,0,0.3,0.1,0.3c0,0,0.1,0,0.2,0c0.1-0.1,0.3-0.1,0.5-0.1c0.1,0,0.2,0,0.3-0.1c0-0.1,0.1-0.2,0.1-0.5c0-0.1,0-0.2,0-0.3
			c0-0.2,0-0.3,0-0.4v-0.2c0-0.3,0-0.6,0.1-0.7c0.1-0.1,0.1-0.3,0-0.4c-0.1-0.1-0.1-0.3,0.1-0.4c0.1-0.1,0.2-0.2,0.2-0.4
			c0-0.3-0.3-0.4-1-0.4c-0.4,0-0.6,0.2-0.6,0.5c0,0.1,0,0.2,0.1,0.3c0,0.2,0,0.4,0,0.5s-0.3,0.2-0.9,0.3c-0.5,0.1-1,0.1-1.5,0.1
			h-0.6v-0.6c0-0.4,0.1-0.6,0.2-0.6c0.1,0,0.2-0.1,0.2-0.4c0-0.3-0.1-0.5-0.2-0.9c-0.1-0.2-0.2-0.4-0.1-0.4c0-0.1,0.1-0.1,0.2-0.3
			c0.2-0.1,0.3-0.3,0.2-0.5c0,0,0-0.1,0-0.2c0-0.1,0.1-0.3,0.4-0.3c0.3-0.1,0.7-0.1,1.5-0.2c0.7,0,1.1-0.1,1.1-0.1
			c0.3,0,0.5,0.1,0.6,0.2c0.1,0.2,0.3,0.3,0.5,0.4c0.2,0.1,0.3,0.2,0.3,0.3c0,0.1,0.1,0.2,0.3,0.3c0.2,0.1,0.3,0.2,0.3,0.3
			c0,0.2,0.1,0.3,0.3,0.5c0.2,0.2,0.4,0.2,0.6,0.2h0c0.3,0,0.4-0.2,0.4-0.6c0-0.2-0.1-0.3-0.2-0.5c-0.1-0.1-0.2-0.3-0.2-0.5
			c0-0.3-0.1-0.5-0.2-0.5c-0.1,0-0.1-0.1,0-0.4c0.1-0.1,0.1-0.2,0.1-0.3c0,0-0.1-0.1-0.1-0.1c-0.1-0.1-0.2-0.2-0.2-0.3
			c0-0.1-0.1-0.3-0.3-0.5c-0.2-0.2-0.4-0.3-0.6-0.1c-0.3,0.1-1.8,0.3-4.7,0.4h-0.7c-1.5,0-2.2-0.1-2.3-0.3c0-0.1-0.1-0.1-0.2-0.1
			s-0.2,0-0.2,0.1l0,0.1c0,0.1,0,0.1,0,0.1c0,0,0,0.1,0,0.2c0,0.1,0,0.2,0,0.2c0,0.2-0.1,0.3-0.3,0.3c-0.2,0.1-0.3,0.2-0.2,0.5
			c0.1,0.2,0.1,0.4,0.2,0.5s0.2,0.1,0.3,0.1c0.1,0,0.3,0,0.4,0c0.1,0,0.2,0,0.4,0c0.3,0,0.5,0.1,0.6,0.4c0.1,0.2,0.1,0.7,0.1,1.4
			c0,0.9-0.1,1.4-0.2,1.4c-0.1,0-0.1,0.2,0,0.4c0.1,0.2,0.1,0.4,0,0.6c-0.1,0.2-0.2,0.3-0.3,0.3c-0.1,0-0.1,0.1,0.1,0.2
			c0.1,0.1,0.1,0.3,0.1,0.6c0,0.5-0.1,1.5-0.2,2.8l-0.1,0.9H161c-0.4,0-0.6,0.1-0.6,0.3c0,0.2-0.1,0.3-0.3,0.3
			c-0.1,0-0.2,0.1-0.2,0.3c0,0.3,0.1,0.5,0.3,0.6c0.2,0.1,0.3,0.2,0.3,0.4c0,0.1,0.2,0.1,0.7,0.1c0.5,0,0.8-0.1,0.9-0.3
			c0.1-0.1,0.5-0.2,1.2-0.2c0.5,0,0.9,0,1.3,0c0.7,0,1.1,0.1,1.2,0.2c0,0.1,0.2,0.1,0.4,0c0.2-0.1,0.7-0.2,1.5-0.2
			c0.8,0,1.3,0,1.5-0.1c0.2,0,0.3-0.1,0.5-0.3c0.2-0.2,0.3-0.3,0.2-0.5c0-0.2,0-0.3,0.1-0.4c0.1-0.1,0.2-0.3,0.2-0.8
			c0-0.3,0-0.5,0-0.6c0-0.1,0.1-0.1,0.2-0.1c0.2,0,0.3-0.2,0.3-0.5c0-0.2-0.1-0.4-0.2-0.6C170.4,790.3,170.3,790.2,170.2,790.2z"/>
		<path d="M202.1,785.7c-0.2-0.1-0.2-0.2-0.2-0.5c0-0.3,0-0.5-0.1-0.5c-0.1,0-0.1-0.1-0.1-0.4s-0.1-0.4-0.2-0.4
			c-0.1,0-0.2-0.1-0.3-0.3c-0.1-0.2-0.2-0.3-0.3-0.4c-0.1-0.1-0.2-0.2-0.2-0.4c0-0.2-0.1-0.3-0.4-0.3c-0.7,0-1-0.1-1-0.4
			c0-0.1-0.1-0.2-0.2-0.2c-0.1,0-0.2,0-0.2-0.1c0-0.1-0.1-0.1-0.3-0.1c-0.2,0-0.3-0.1-0.4-0.2c0-0.1-0.5-0.2-1.5-0.2
			c-0.9,0-1.5,0.1-1.6,0.2c-0.1,0.1-0.2,0.2-0.4,0.2c-0.2,0-0.3,0.1-0.4,0.3c-0.1,0.2-0.3,0.4-0.6,0.4c-0.3,0-0.6,0.1-1.1,0.2
			c-0.5,0.1-0.7,0.3-0.8,0.5c0,0.2-0.2,0.4-0.5,0.7c-0.3,0.3-0.4,0.5-0.4,0.5c0,0.1-0.1,0.1-0.2,0.1c-0.1,0-0.2,0.1-0.3,0.4
			c-0.1,0.2-0.2,0.4-0.3,0.7c-0.2,0.3-0.2,0.8-0.2,1.8c0,1.2,0.1,2.1,0.4,2.9c0.5,1.4,0.9,2.2,1.2,2.3c0.2,0,0.3,0.1,0.3,0.3
			c0,0.2,0.2,0.2,0.4,0.2c0.2,0,0.4,0,0.4,0.1c0,0.1,0.1,0.1,0.3,0.1s0.3,0.1,0.3,0.4c0,0.2,0,0.3,0.1,0.4c0.1,0.1,0.2,0,0.4-0.1
			c0.1-0.1,0.2-0.1,0.3,0c0.2,0.1,0.9,0.2,2.2,0.2c1.1,0,1.7-0.1,1.7-0.2c0-0.1,0.3-0.2,0.7-0.2c0.4,0,0.6-0.1,0.6-0.2
			c0-0.2,0.1-0.3,0.2-0.3c0,0,0.2-0.1,0.4-0.3c0.3-0.2,0.4-0.3,0.5-0.3c0.1,0,0.2-0.1,0.2-0.3c0.1-0.2,0.2-0.3,0.3-0.3
			c0.1,0,0.2-0.1,0.3-0.3c0-0.2,0.2-0.3,0.4-0.3c0.2-0.1,0.3-0.1,0.3-0.2c0-0.1,0.1-0.1,0.2-0.1c0.1,0,0.2-0.2,0.2-0.6
			c0-0.3,0-0.5-0.1-0.5c-0.1,0-0.1-0.1,0-0.2c0.1-0.1,0.2-0.8,0.2-2.1c0-0.3,0-0.7,0-1.1C202.3,786,202.2,785.7,202.1,785.7z
			 M199.9,788.8c-0.1,0-0.2,0.2-0.2,0.4c0,0.3-0.1,0.4-0.2,0.5c-0.1,0.1-0.2,0.4-0.3,0.8c-0.1,0.4-0.1,0.6-0.3,0.6
			c-0.1,0-0.2,0-0.2,0.1c0,0.1-0.1,0.2-0.4,0.2c-0.3,0.1-0.4,0.2-0.4,0.3c0,0.1,0,0.2-0.1,0.2c-0.1,0.1-0.2,0.1-0.4,0.2
			c-0.1,0.1-0.2,0.1-0.3,0.1c0,0.1-0.2,0.1-0.4,0.1c-0.2,0-0.3,0.1-0.5,0.2c-0.1,0.1-0.2,0.1-0.4,0.1c-0.2,0-0.4,0-0.7-0.1
			c-0.5-0.1-1-0.3-1.3-0.6c-0.3-0.3-0.7-0.8-1-1.5c-0.3-0.5-0.4-0.9-0.5-1.1c0-0.2-0.1-0.7-0.1-1.4c0-0.7,0-1.1,0.1-1.4
			c0-0.2,0.1-0.5,0.3-0.8c0.3-0.5,0.6-0.9,1-1.3c0.4-0.4,0.8-0.6,1-0.7c0.3,0,0.5-0.1,0.5-0.3c0-0.1,0.1-0.2,0.2-0.2
			c0.1,0,0.2,0,0.2-0.1c0-0.1,0.1-0.1,0.3-0.1c0.2,0,0.3,0,0.3,0.1c0,0.1,0.3,0.1,0.9,0.1c0.5,0,0.8,0.1,0.8,0.2
			c0,0.1,0.1,0.2,0.3,0.3c0.2,0.1,0.3,0.2,0.3,0.3s0.1,0.2,0.3,0.3c0.3,0.1,0.5,0.4,0.5,0.8c0,0.2,0.1,0.5,0.3,0.8
			c0.2,0.3,0.3,0.7,0.3,1.1c0,0.5,0,0.7,0.1,0.8c0.1,0.1,0.1,0.2,0.1,0.4C200.1,788.6,200,788.7,199.9,788.8z"/>
		<path d="M219.9,783.9c0-0.3-0.1-0.5-0.2-0.6c-0.1-0.1-0.1-0.2,0-0.4c0.1-0.1,0.1-0.2,0.1-0.2c0-0.1-0.1-0.2-0.2-0.2
			c-0.1-0.1-0.2-0.2-0.2-0.3c0-0.2-0.1-0.3-0.3-0.5c-0.2-0.2-0.4-0.3-0.5-0.3c-0.1,0-0.2,0-0.2,0.1c0,0.1-0.3,0.1-0.9,0.2
			c-0.5,0.1-1.1,0.1-1.7,0.1c-0.6,0-0.9,0-1,0.1c-0.1,0-0.5,0.1-1.4,0.1c-0.9,0.1-1.8,0.2-2.7,0.3c-0.9,0.1-1.4,0.2-1.4,0.2
			c0,0,0,0.1,0,0.2c0,0.1,0,0.2,0.1,0.3c0.1,0.2,0.1,0.3,0.2,0.4c0.1,0,0.3,0.1,0.6,0.1c0.5,0,0.9,0.1,1,0.3
			c0.1,0.2,0.2,0.7,0.2,1.6c0,0.9-0.1,1.4-0.2,1.5c-0.1,0.1-0.1,0.2,0,0.4c0.1,0.3,0.2,0.5,0,0.7c-0.1,0.2-0.2,0.3-0.3,0.3
			c-0.1,0,0,0.1,0.1,0.2c0.1,0.1,0.1,0.3,0.1,0.6c0,0.1,0,0.4-0.1,0.8c-0.1,1.4-0.2,2.3-0.2,2.6c-0.1,0.4-0.1,0.5-0.3,0.6
			c-0.2,0.1-0.5,0.3-0.8,0.6l-0.5,0.6h5v-0.5c0-0.2,0-0.4-0.1-0.4c0-0.1-0.1-0.1-0.3-0.1c-0.2,0-0.4,0-0.4-0.1
			c0-0.1-0.1-0.1-0.2-0.1s-0.2-0.1-0.3-0.3c0-0.1,0-0.4,0-1.2c0-1.2,0-2.1,0.1-2.8c0-0.1,0.5-0.1,1.4-0.1c0.8,0,1.3,0.1,1.5,0.2
			c0.3,0.1,0.4,0.4,0.4,0.9c0,0.3,0,0.5,0.1,0.5c0.1,0,0.1-0.1,0.3-0.2c0.1-0.1,0.3-0.2,0.5-0.1c0.2,0.1,0.3,0,0.3-0.2
			c0-0.2,0-0.3,0.1-0.4c0.1-0.1,0.1-0.2,0-0.2s-0.2-0.3-0.2-0.6c0-0.4,0.1-0.7,0.2-0.8c0.1-0.1,0.1-0.1,0.1-0.2c0-0.1,0-0.1-0.1-0.2
			c-0.1-0.1-0.1-0.2-0.1-0.2c0-0.1,0-0.1,0.1-0.2c0.2-0.1,0.2-0.2,0.2-0.4c0-0.3-0.4-0.4-1.1-0.4c-0.4,0-0.6,0.2-0.6,0.5
			c0,0.1,0,0.2,0.1,0.3c0.1,0.2,0,0.4,0,0.5c-0.1,0.1-0.4,0.2-1,0.3c-0.6,0.1-1.1,0.2-1.6,0.2H213v-0.6c0-0.4,0.1-0.6,0.2-0.7
			c0.1-0.1,0.2-0.2,0.2-0.4c0-0.3-0.1-0.5-0.2-0.8c-0.1-0.2-0.2-0.4-0.2-0.4c0-0.1,0.1-0.1,0.2-0.3c0.2-0.2,0.3-0.4,0.2-0.6
			c0-0.1,0-0.1,0-0.2c0-0.1,0.1-0.2,0.4-0.3c0.3-0.1,0.8-0.1,1.6-0.1c0.7,0,1.1-0.1,1.1-0.1c0.3,0,0.5,0.1,0.7,0.2
			c0.2,0.2,0.3,0.3,0.5,0.4c0.2,0.1,0.3,0.2,0.3,0.3c0,0.1,0.1,0.3,0.3,0.4c0.2,0.1,0.4,0.3,0.5,0.6c0.1,0.4,0.4,0.5,0.8,0.5
			c0.1,0,0.2,0,0.3-0.1c0.1-0.1,0.2-0.2,0.2-0.6c0-0.3-0.1-0.5-0.2-0.5C219.9,784.4,219.9,784.2,219.9,783.9z"/>
		<path d="M245.8,780.6C245.8,780.6,245.9,780.5,245.8,780.6c0.1-0.1,0-0.1-0.2-0.1c-0.2,0-0.3,0.1-0.3,0.2
			C245.4,780.7,245.5,780.7,245.8,780.6C245.7,780.6,245.7,780.6,245.8,780.6z"/>
		<path d="M241.3,779.6c0-0.1-0.1-0.1-0.3-0.1c-0.2,0-0.3,0-0.3,0.1c0,0.1,0.1,0.2,0.3,0.2C241.3,779.8,241.3,779.7,241.3,779.6z"/>
		<path d="M249,782.4c-0.1,0-0.2,0-0.2-0.1c0-0.1-0.1-0.2-0.4-0.3c-0.3-0.1-0.4-0.3-0.5-0.5l-0.2-0.3c-0.1-0.1-0.2-0.1-0.2,0.1
			c0,0.1-0.3,0.1-0.8,0.1c-0.6,0-0.9,0-0.9-0.1c0-0.1-0.1-0.1-0.3-0.1c-0.5,0-0.8-0.1-0.8-0.4c0-0.1-0.1-0.2-0.3-0.2
			s-0.3,0.1-0.2,0.3c0,0,0,0,0,0.1c0,0,0,0,0,0.1c0,0.1-0.6,0.2-1.8,0.2h-1.8l-0.5,0.5c-0.3,0.3-0.5,0.5-0.5,0.7
			c0,0.2,0.2,0.4,0.7,0.4c0.2,0,0.3,0,0.3,0.1c0,0.1,0,0.1,0.1,0.1c0.2,0,0.4,0.2,0.6,0.5c0.2,0.3,0.3,0.7,0.3,1.2
			c0,0.4,0.1,0.6,0.1,0.6c0,0.2-0.1,0.4-0.2,0.5c-0.2,0.1-0.2,0.2-0.1,0.3c0.1,0.1,0.2,0.3,0.2,0.7c0,0.3-0.1,0.5-0.2,0.5
			c-0.2,0-0.2,0,0,0.1c0.1,0.1,0.1,0.3,0,0.6c-0.1,0.3-0.1,0.5,0.1,0.6c0.1,0.1,0.1,0.2,0.1,0.3c0,0.2-0.1,0.4-0.2,0.5
			c-0.1,0.1-0.1,0.6-0.2,1.6l0,1.5l-0.4,0.2c-0.2,0.1-0.5,0.2-1.1,0.2c-0.3,0-0.5,0.1-0.5,0.1s-0.1,0.2-0.1,0.4
			c0,0.2,0.2,0.5,0.6,0.8c0.2,0.1,0.3,0.2,0.5,0.2c0.2,0,0.3-0.1,0.3-0.2c0.1-0.1,0.8-0.2,2.1-0.2c1.4-0.1,2.1-0.1,2.2-0.3
			c0.1-0.1,0.2-0.2,0.3-0.2c0.1,0,0.2-0.1,0.2-0.2c0-0.1-0.1-0.2-0.4-0.2c-0.3,0-0.4-0.1-0.5-0.3c0-0.2-0.2-0.3-0.5-0.4
			c-0.4-0.1-0.5-0.2-0.5-0.4c0-0.1,0-0.2,0.1-0.3c0.2-0.2,0.2-0.3,0.1-0.4c-0.1,0-0.2-0.6-0.2-1.6c0-0.3,0-0.6,0-1
			c0-0.3,0-0.4,0.1-0.5c0-0.1,0.1-0.1,0.2-0.1c0.2,0,0.5,0,0.8,0.1c0.3,0.1,0.5,0.2,0.6,0.3c0.1,0.1,0.7,0.2,1.7,0.2
			c0.8,0,1.2,0,1.2-0.1c0.1-0.1,0-0.2-0.2-0.3c-0.2-0.1-0.4-0.2-0.5-0.4c-0.1-0.1-0.2-0.2-0.2-0.2s0.1-0.1,0.3-0.1
			c0.3-0.1,0.4-0.1,0.4-0.2s0.1-0.2,0.4-0.3c0.3-0.1,0.4-0.2,0.4-0.4c0-0.5,0.1-0.7,0.3-0.7c0.1,0,0.2-0.1,0.4-0.2
			c0.2-0.2,0.2-0.7,0.2-1.5c0-1-0.1-1.5-0.3-1.7C249.3,782.5,249.2,782.4,249,782.4z M247.4,786.1c0,0-0.1,0.1-0.4,0.1h-0.1
			c0,0-0.1,0-0.1,0c-0.1,0-0.1,0,0,0.1c0.1,0.1,0.2,0.1,0.2,0.2c0,0.1-0.1,0.3-0.3,0.5c-0.2,0.2-0.5,0.3-0.7,0.3s-0.6,0.1-1.1,0.2
			c-0.1,0-0.2,0-0.3,0c-0.2,0-0.4-0.1-0.7-0.3c-0.2-0.2-0.3-0.3-0.4-0.3c0-0.1,0-0.1,0.1-0.2c0.1-0.1,0.2-0.7,0.2-1.6v-1.2
			c0-0.3,0.1-0.5,0.2-0.7c0.1-0.2,0.3-0.4,0.4-0.4h0.1l0.4,0.1c0.3,0,0.5,0.1,0.8,0.1c0.2,0.1,0.4,0.1,0.4,0.1
			c0,0.1,0.1,0.1,0.4,0.2c0.3,0.1,0.4,0.2,0.4,0.3c0,0.1,0.1,0.3,0.2,0.4c0.1,0.1,0.2,0.2,0.1,0.3c-0.1,0.1-0.1,0.3,0.1,0.6
			c0.1,0.2,0.2,0.4,0.2,0.6C247.5,785.3,247.5,785.6,247.4,786.1z"/>
		<path d="M266.9,790.2c-0.1,0-0.3,0.2-0.5,0.5c-0.3,0.3-0.4,0.5-0.4,0.7c0,0.1-0.1,0.2-0.4,0.2c-0.1,0-0.2,0-0.3,0.1
			c0,0-0.1,0.1-0.1,0.1c0,0,0,0.1,0,0.3c0,0.2-0.1,0.3-0.4,0.3c0,0-0.1,0-0.1,0c-0.1,0-0.1,0-0.2,0c-0.2,0-0.4,0.1-0.6,0.3
			c-0.2,0.2-0.4,0.3-0.6,0.3c-0.1,0-0.2-0.1-0.2-0.2c0-0.1-0.1-0.1-0.4,0c-0.2,0.1-0.6,0.2-1.2,0.2c-0.5,0-0.7,0-0.7-0.1
			s-0.1-0.1-0.2-0.1c-0.1,0-0.1-0.1-0.2-0.2c-0.1-0.2-0.1-0.3-0.1-0.4c0-0.1,0-0.2,0-0.3c0-0.2,0-0.4,0-0.6c0-0.3,0-0.5,0-0.8
			c0-0.3,0-0.5,0-0.8c0-0.3,0-0.5,0-0.6v-0.2c0-0.1,0.4-0.1,1.3-0.1c0.7,0,1.2,0.1,1.4,0.2c0.2,0.1,0.4,0.4,0.4,0.8
			c0,0.2,0,0.3,0.1,0.3c0,0,0.1,0,0.2,0c0.1-0.1,0.3-0.1,0.5-0.1c0.1,0,0.2,0,0.3-0.1c0-0.1,0.1-0.2,0.1-0.5c0-0.1,0-0.2,0-0.3
			c0-0.2,0-0.3,0-0.4v-0.2c0-0.3,0-0.6,0.1-0.7c0.1-0.1,0.1-0.3,0-0.4c-0.1-0.1-0.1-0.3,0.1-0.4c0.1-0.1,0.2-0.2,0.2-0.4
			c0-0.3-0.3-0.4-1-0.4c-0.4,0-0.6,0.2-0.6,0.5c0,0.1,0,0.2,0.1,0.3c0,0.2,0,0.4,0,0.5c-0.1,0.1-0.3,0.2-0.9,0.3
			c-0.5,0.1-1,0.1-1.5,0.1h-0.6v-0.6c0-0.4,0.1-0.6,0.2-0.6c0.1,0,0.2-0.1,0.2-0.4c0-0.3-0.1-0.5-0.2-0.9c-0.1-0.2-0.2-0.4-0.1-0.4
			c0-0.1,0.1-0.1,0.2-0.3c0.2-0.1,0.3-0.3,0.2-0.5c0,0,0-0.1,0-0.2c0-0.1,0.1-0.3,0.4-0.3c0.3-0.1,0.7-0.1,1.5-0.2
			c0.7,0,1.1-0.1,1.1-0.1c0.3,0,0.5,0.1,0.6,0.2c0.1,0.2,0.3,0.3,0.5,0.4c0.2,0.1,0.3,0.2,0.3,0.3c0,0.1,0.1,0.2,0.3,0.3
			c0.2,0.1,0.3,0.2,0.3,0.3c0,0.2,0.1,0.3,0.3,0.5c0.2,0.2,0.4,0.2,0.6,0.2h0c0.3,0,0.4-0.2,0.4-0.6c0-0.2-0.1-0.3-0.2-0.5
			c-0.1-0.1-0.2-0.3-0.2-0.5c0-0.3-0.1-0.5-0.2-0.5c-0.1,0-0.1-0.1,0-0.4c0.1-0.1,0.1-0.2,0.1-0.3c0,0-0.1-0.1-0.1-0.1
			c-0.1-0.1-0.2-0.2-0.2-0.3c0-0.1-0.1-0.3-0.3-0.5c-0.2-0.2-0.4-0.3-0.6-0.1c-0.3,0.1-1.8,0.3-4.7,0.4h-0.7c-1.5,0-2.2-0.1-2.3-0.3
			c0-0.1-0.1-0.1-0.2-0.1c-0.1,0-0.2,0-0.2,0.1l0,0.1c0,0.1,0,0.1,0,0.1c0,0,0,0.1,0,0.2c0,0.1,0,0.2,0,0.2c0,0.2-0.1,0.3-0.3,0.3
			c-0.2,0.1-0.3,0.2-0.2,0.5c0.1,0.2,0.1,0.4,0.2,0.5s0.2,0.1,0.3,0.1c0.1,0,0.3,0,0.4,0c0.1,0,0.2,0,0.4,0c0.3,0,0.5,0.1,0.6,0.4
			c0.1,0.2,0.1,0.7,0.1,1.4c0,0.9-0.1,1.4-0.2,1.4c-0.1,0-0.1,0.2,0,0.4c0.1,0.2,0.1,0.4,0,0.6c-0.1,0.2-0.2,0.3-0.3,0.3
			c-0.1,0-0.1,0.1,0.1,0.2c0.1,0.1,0.1,0.3,0.1,0.6c0,0.5-0.1,1.5-0.2,2.8l-0.1,0.9h-0.6c-0.4,0-0.6,0.1-0.6,0.3
			c0,0.2-0.1,0.3-0.3,0.3c-0.1,0-0.2,0.1-0.2,0.3c0,0.3,0.1,0.5,0.3,0.6c0.2,0.1,0.3,0.2,0.3,0.4c0,0.1,0.2,0.1,0.7,0.1
			c0.5,0,0.8-0.1,0.9-0.3c0.1-0.1,0.5-0.2,1.2-0.2c0.5,0,0.9,0,1.3,0c0.7,0,1.1,0.1,1.2,0.2c0,0.1,0.2,0.1,0.4,0
			c0.2-0.1,0.7-0.2,1.5-0.2c0.8,0,1.3,0,1.5-0.1c0.2,0,0.3-0.1,0.5-0.3c0.2-0.2,0.3-0.3,0.2-0.5c0-0.2,0-0.3,0.1-0.4
			c0.1-0.1,0.2-0.3,0.2-0.8c0-0.3,0-0.5,0-0.6c0-0.1,0.1-0.1,0.2-0.1c0.2,0,0.3-0.2,0.3-0.5c0-0.2-0.1-0.4-0.2-0.6
			C267.1,790.3,267,790.2,266.9,790.2z"/>
		<path d="M256.8,792c0.1-0.2,0.1-0.3,0-0.3c-0.1,0-0.2,0.1-0.2,0.2c0,0.1,0,0.2,0.1,0.2C256.7,792.1,256.8,792.1,256.8,792z"/>
		<path d="M287.5,782c-0.1,0-0.2,0-0.3,0.1c-0.2,0.1-0.3,0.1-0.3,0.1c-0.1,0-0.1-0.1-0.2-0.2c-0.1-0.2-0.3-0.3-0.4-0.3
			c-0.1,0-0.2-0.1-0.2-0.3c0-0.2-0.1-0.3-0.3-0.3c-0.2,0-0.3,0.1-0.3,0.3c0,0.2,0.1,0.3,0.2,0.3s0.2,0.1,0.2,0.3
			c0,0.2-0.1,0.3-0.2,0.3c-0.2,0-0.3-0.1-0.3-0.4c-0.1-0.2-0.2-0.4-0.3-0.4c-0.1,0-0.1,0-0.2,0.1c-0.2,0.2-0.2,0.3,0,0.3
			c0.1,0,0.2,0.1,0.2,0.1c0,0.1-0.1,0.2-0.4,0.2c-0.2,0-0.4,0-0.4-0.1c0-0.1-0.1-0.1-0.4-0.1c-0.4,0-0.8,0.1-1.1,0.2
			c-0.4,0.2-0.6,0.4-0.6,0.7c0,0.3,0.3,0.5,0.8,0.6c0.4,0.1,0.6,0.1,0.6,0.2c0,0.1,0.1,0.1,0.3,0.1c0.3,0,0.5,0.2,0.6,0.6
			c0.1,0.4,0.2,1.2,0.2,2.4c0,1.4,0.1,2.2,0.1,2.4c0.1,0.1,0,0.3,0,0.6l-0.1,0.4l-0.5-0.5c-0.4-0.3-0.5-0.5-0.5-0.6
			c0-0.1-0.1-0.2-0.2-0.3c-0.1-0.1-0.3-0.2-0.4-0.4c-0.2-0.1-0.3-0.2-0.3-0.2c-0.1-0.1-0.3-0.2-0.3-0.2c-0.1,0-0.2-0.1-0.2-0.2
			c0-0.1-0.1-0.2-0.2-0.3c-0.1-0.1-0.3-0.2-0.4-0.2c-0.1,0-0.1-0.1-0.1-0.2c0-0.1-0.1-0.2-0.2-0.2c-0.1,0-0.1,0-0.1-0.1
			c0-0.1-0.1-0.2-0.4-0.5c-0.2-0.3-0.4-0.4-0.4-0.5c0-0.1-0.1-0.2-0.3-0.2c-0.2,0-0.3-0.1-0.5-0.2c-0.2-0.1-0.2-0.3-0.2-0.4
			c0-0.1-0.2-0.3-0.5-0.7c-0.3-0.4-0.5-0.6-0.5-0.7c0-0.1-0.1-0.2-0.3-0.4c-0.2-0.2-0.3-0.4-0.3-0.4c0-0.3-0.6-0.5-1.8-0.6
			c-0.6,0-0.9-0.1-0.9-0.1c-0.3,0-0.4,0.1-0.4,0.2c0,0.1,0,0.2,0,0.4c0,0.2,0,0.4,0.1,0.6c0.1,0.2,0.1,0.3,0.2,0.3
			c0.1,0,0.2,0.2,0.3,0.6c0.1,0.4,0.2,0.6,0.2,0.6c0.1,0,0.1,0.3,0.1,0.8c0,0.5,0,0.8-0.1,0.8c-0.1,0-0.1,0.1-0.1,0.4
			c0,0.2,0.1,0.6,0.2,1c0.1,0.2,0.1,0.6,0.1,1.1c0,0.7-0.1,1.1-0.2,1.1c-0.1,0-0.1,0.2-0.1,0.7c0,0.5,0,1.1-0.1,1.5
			c0,0.4-0.1,0.6-0.1,0.7c-0.1,0.1-0.2,0.2-0.4,0.2c-0.3,0.1-0.4,0.2-0.4,0.4c0,0.2,0.1,0.4,0.4,0.6c0.2,0.2,0.3,0.3,0.5,0.3
			c0.2,0,0.8,0,1.7,0c1,0,1.6,0,1.8-0.1c0.2-0.1,0.3-0.3,0.3-0.8c0-0.3-0.1-0.4-0.3-0.5c-0.2-0.1-0.3-0.1-0.3-0.2
			c0-0.1-0.2-0.1-0.6-0.1c-0.4,0-0.7-0.1-0.9-0.3c-0.2-0.2-0.2-0.3-0.1-0.4c0.1-0.1,0.2-0.2,0.2-0.6c0-0.3,0-0.5-0.1-0.5
			c-0.1-0.1-0.1-0.9-0.1-2.6c0-1.7,0.1-2.5,0.2-2.5c0.1,0,0.3,0.1,0.4,0.2c0.1,0.1,0.3,0.2,0.5,0.3c0.3,0.1,0.4,0.3,0.5,0.4
			s0.3,0.5,0.8,1.1c0.5,0.5,0.9,0.9,1.3,1.1c0.2,0.1,0.3,0.2,0.3,0.3c0,0.1,0.2,0.2,0.5,0.6c0.7,0.7,1.1,1.1,1.1,1.4
			c0,0.1,0.1,0.1,0.3,0.1c0.2,0,0.3,0,0.3,0.1c0,0.1,0.1,0.3,0.4,0.5c0.2,0.2,0.4,0.4,0.4,0.6c0,0.1,0.1,0.3,0.3,0.5
			c0.2,0.2,0.3,0.3,0.4,0.3c0.1,0,0.3,0.2,0.6,0.5c0.3,0.3,0.5,0.5,0.7,0.6c0.1,0.1,0.2,0.1,0.3,0.1c0.4,0,0.6-0.2,0.6-0.6
			c0-0.1,0-0.2,0-0.4c0-0.9-0.1-1.4-0.2-1.6c-0.1-0.1-0.1-0.5-0.1-1.3v-0.4c0-1,0-1.6-0.1-1.6c-0.1-0.1-0.2-0.4-0.2-1
			c0-0.5,0-0.8,0.1-0.8c0.1-0.1,0.2-0.2,0.2-0.5c0-0.3,0-0.4,0.1-0.4c0.1,0,0.1-0.1,0.1-0.4c0-0.3,0-0.4-0.1-0.4
			c-0.1,0-0.1-0.1-0.1-0.4c0-0.4,0.1-0.7,0.2-1c0.2-0.3,0.4-0.5,0.7-0.5c0.2,0,0.4-0.1,0.4-0.1c0.1,0,0.1-0.2,0.1-0.5v-0.2
			C287.8,782.3,287.7,782,287.5,782z"/>
		<path d="M307.1,784.1c0.1,0,0.2-0.2,0.2-0.5c0-0.3-0.1-0.4-0.2-0.4c-0.1,0-0.1-0.1-0.1-0.3c0-0.2,0.1-0.4,0.2-0.7
			c0.1-0.3,0-0.5-0.2-0.7c-0.2-0.2-0.5-0.3-0.9-0.3c-0.4,0-0.8,0.1-1.1,0.4c-0.3,0.2-0.5,0.3-0.6,0.2c-0.1-0.1-0.1-0.1-0.3-0.1
			c-0.1,0-0.2,0-0.6,0.1c-0.4,0.1-1.3,0.2-2.7,0.2c-1,0-1.5,0-1.6-0.1c-0.1-0.1-0.2,0-0.4,0.2c-0.1,0.1-0.3,0.2-0.4,0.2
			c-0.1,0-0.3,0-0.8-0.1c-0.8-0.2-1.2-0.3-1.3-0.3c0,0-0.1,0-0.3,0.1c-0.1,0-0.3,0.1-0.4,0.3c-0.1,0.2-0.2,0.4-0.2,0.5
			c0,0,0,0.1,0.1,0.2c0.1,0.1,0.1,0.2,0.2,0.5c0,0.1,0,0.2-0.1,0.3c-0.1,0-0.2,0.1-0.4,0.1c-0.1,0-0.3,0-0.4,0.1
			c-0.1,0.1-0.2,0.2-0.2,0.2c0,0.1,0,0.1,0.1,0.2c0.1,0.1,0.1,0.3,0.1,0.7c0,0.3-0.1,0.5-0.1,0.5c0,0.5,0.2,0.8,0.6,0.8
			c0.3,0,0.4-0.1,0.4-0.2c0-0.1,0.1-0.2,0.2-0.2c0.3,0,0.3-0.2,0-0.5c-0.1-0.1-0.2-0.2-0.2-0.3c0,0,0.1-0.1,0.3-0.1
			c0.2-0.1,0.3-0.2,0.2-0.4c-0.1-0.2,0-0.4,0-0.6c0.1-0.1,0.1-0.3,0-0.6c-0.1-0.3-0.1-0.4,0-0.4c0.1,0,0.1,0.1,0.1,0.2
			s0.2,0.3,0.6,0.4c0.4,0.1,0.8,0.2,1.1,0.2c0.4,0,0.7,0.1,0.9,0.3c0.2,0.2,0.4,0.2,0.5,0.2c0.1,0,0.2,0,0.2,0c0,0,0,0.1-0.1,0.1
			c-0.3,0.4-0.4,2.4-0.5,6.1c0,0.8-0.1,1.2-0.3,1.4c-0.2,0.2-0.3,0.3-0.3,0.5c0,0.1-0.3,0.2-0.8,0.2l-0.8,0.1l-0.1,0.6
			c0,0,0,0.1,0,0.1c0,0.1,0,0.1,0,0.1c0,0.2,0.2,0.5,0.5,0.8c0.3,0.3,0.6,0.4,0.7,0.4c0.1,0,0.2,0,0.2-0.1c0-0.1-0.1-0.1-0.2-0.1
			c-0.1,0-0.1,0-0.1-0.1c0-0.1,0.2-0.1,0.5-0.1c0.1,0,0.4,0,0.9,0c0.4,0,0.8,0,1,0c0.5,0,0.9,0,1-0.1c0.1-0.1,0.3-0.2,0.6-0.1
			c0.2,0,0.3,0,0.4-0.1c0.1-0.1,0.2-0.1,0.3-0.1c0.1,0,0.3-0.1,0.5-0.3c0.1-0.1,0.2-0.2,0.2-0.3c0-0.1-0.1-0.2-0.2-0.5
			c-0.2-0.3-0.3-0.5-0.5-0.5c-0.1,0-0.2-0.1-0.2-0.2c0-0.1-0.1-0.2-0.3-0.1c0,0-0.1,0-0.1,0c-0.1,0-0.1,0-0.1,0
			c-0.1,0-0.2,0-0.3-0.1c0-0.1-0.1-0.3-0.1-0.5v-0.5c0-0.5,0-0.8,0-0.9c0-0.1,0.1-0.2,0.2-0.2c0.2,0,0.2-0.1,0.2-0.4
			c0-0.3-0.1-0.5-0.2-0.5c-0.1,0-0.2-0.4-0.2-1.1c0-0.8,0.1-1.3,0.2-1.4c0.1-0.1,0.2-0.6,0.2-1.2c0-0.7,0.1-1.1,0.1-1.2
			c0.1-0.2,0.5-0.2,1.2-0.2c1.1,0,1.7,0.1,1.8,0.4c0,0.1,0.1,0.2,0.4,0.5c0.2,0.2,0.3,0.5,0.4,0.8c0,0.3,0.1,0.5,0.1,0.5
			c0.1,0.1,0.2,0.1,0.4,0.1c0.3,0,0.4,0,0.4-0.1c0-0.1,0.1-0.2,0.3-0.3c0.2-0.1,0.3-0.2,0.3-0.4s-0.1-0.4-0.3-0.6
			C307,784.2,307,784.1,307.1,784.1z"/>
		<path d="M327.9,792.9c-0.1,0-0.1-0.1-0.2-0.4c-0.1-0.2-0.1-0.3-0.2-0.3c0,0-0.3,0.1-0.8,0.2c0,0-0.1,0-0.2,0c-0.4,0-0.7-0.6-1-1.7
			c-0.2-0.8-0.4-1.3-0.4-1.4c-0.1-0.1-0.2-0.3-0.2-0.5c-0.1-0.4-0.3-1.3-0.8-2.8c-0.5-1.5-0.7-2.4-0.8-2.7c-0.2-1-0.4-1.5-0.5-1.7
			c-0.1-0.2-0.2-0.3-0.4-0.3c-0.3-0.1-0.4,0-0.5,0.1c-0.1,0.1-0.2,0.2-0.4,0.2c-0.2,0-0.4,0.1-0.4,0.2c0,0.1-0.1,0.1-0.2,0.1
			c-0.1,0-0.2,0.2-0.4,0.6c-0.2,0.4-0.3,0.8-0.5,1.2c-0.1,0.4-0.2,0.6-0.3,0.7c-0.1,0.1-0.1,0.2-0.1,0.4c0,0.2-0.1,0.6-0.4,1.2
			c-0.3,0.6-0.5,1.1-0.5,1.5c-0.1,0.4-0.2,0.6-0.2,0.7c-0.1,0.1-0.2,0.3-0.4,0.8c-0.2,0.5-0.3,0.7-0.3,0.8c-0.1,0.2-0.2,0.4-0.2,0.5
			c0,0.2,0,0.2-0.1,0.2c-0.1,0-0.2,0.1-0.3,0.4c-0.1,0.2-0.2,0.4-0.2,0.6c0,0.1-0.2,0.3-0.5,0.6c-0.3,0.3-0.5,0.4-0.7,0.4
			c-0.2,0-0.3,0.1-0.5,0.4c-0.2,0.2-0.4,0.4-0.5,0.4c-0.1,0-0.2,0.1-0.4,0.4c-0.1,0.2-0.1,0.3-0.1,0.4c0,0.1,0.1,0.3,0.4,0.5
			l0.5,0.4l2-0.1c1.1,0,1.8-0.1,2.1-0.1c0.3,0,0.5-0.1,0.5-0.2c0,0,0-0.1-0.1-0.2c-0.1-0.2-0.1-0.3,0.1-0.3c0.1,0,0.2-0.1,0.2-0.2
			c0-0.1-0.1-0.2-0.2-0.2c-0.1,0-0.3-0.1-0.4-0.2c-0.1-0.1-0.4-0.2-0.7-0.3c-0.5-0.1-0.7-0.3-0.7-0.5c0-0.1,0-0.2,0.1-0.3
			c0.1-0.2,0.2-0.3,0.2-0.5c0-0.1,0-0.2,0.1-0.2c0.1,0,0.1-0.2,0.1-0.7v-0.7h0.6c0.4,0,0.7-0.1,0.7-0.2c0.1-0.2,0.6-0.2,1.5-0.2h0.4
			c0.7,0,1,0,1.1,0.1c0.1,0.1,0.2,0.4,0.2,0.8c0,0.5,0.1,0.8,0.3,0.9c0.2,0.2,0.3,0.4,0.3,0.6c0,0,0,0,0,0.1c0,0,0,0.1,0,0.1
			c0,0.3-0.1,0.4-0.1,0.5c-0.1,0.1-0.3,0.1-0.6,0.2c-0.5,0.1-0.7,0.2-0.8,0.3c0,0.1-0.1,0.1-0.3,0.1c-0.2,0-0.3,0.1-0.3,0.3
			c0,0.3,0,0.4,0.1,0.5c0.1,0.1,0.3,0.1,0.6,0.1c0.3,0,0.7,0,1.3-0.1c0.6-0.1,1.3-0.1,2-0.1c0.4,0,0.7,0,0.8,0c0.2,0,0.4,0,0.6,0
			c0.3,0,0.5-0.1,0.5-0.3c0.1-0.2,0.1-0.3,0.2-0.3c0.1,0,0.1-0.2,0.1-0.5C328.1,793.1,328,792.9,327.9,792.9z M321.7,788.4
			c0,0-0.1,0-0.2,0c-0.1,0-0.1,0-0.1,0c-0.3,0-0.5,0.1-0.6,0.2c-0.1,0.1-0.3,0.2-0.4,0.2c-0.2,0-0.3-0.1-0.4-0.2
			c-0.1-0.1-0.2-0.2-0.3-0.2c-0.1,0-0.2-0.1-0.2-0.2c0-0.1,0-0.2,0.1-0.2c0.1,0,0.2-0.1,0.3-0.4c0.1-0.3,0.2-0.5,0.2-0.7
			c0-0.2,0.1-0.3,0.2-0.4c0.1,0,0.2-0.3,0.2-0.8c0.1-0.6,0.3-0.9,0.6-0.9c0.2,0,0.3,0.1,0.5,0.2c0.1,0.1,0.2,0.2,0.4,0.5
			c0.1,0.3,0.2,0.4,0.2,0.5c0,0-0.1,0.1-0.3,0.1c-0.2,0-0.3,0.1-0.4,0.2c-0.1,0.1,0,0.2,0.1,0.2c0.1,0,0.2,0.1,0.2,0.2
			c0.1,0.1,0.2,0.3,0.2,0.4c0.1,0.2,0.1,0.2,0.2,0.3c0.1,0.1,0.1,0.3,0.2,0.6l0.1,0.5L321.7,788.4z"/>
		<path d="M345.3,783.3h-0.9c-0.5,0-0.8,0-1-0.1c-0.2-0.1-0.3-0.2-0.3-0.5c0-0.1,0-0.2-0.1-0.3c-0.1,0-0.1,0-0.2,0.1
			c-0.1,0.1-0.4,0.2-0.7,0.2c-0.1,0-0.2,0-0.2-0.1c0-0.1-0.2-0.1-0.7-0.1c-0.4,0-0.7,0.1-0.8,0.2c-0.1,0.1-0.2,0.2-0.4,0.2
			c-0.2,0-0.3,0-0.4,0c-0.1,0-0.1,0-0.2,0c-0.1,0-0.1,0-0.2,0c-0.3,0-0.5,0.1-0.7,0.4c-0.3,0.3-0.5,0.4-0.7,0.5
			c-0.1,0-0.3,0.2-0.5,0.5c-0.2,0.3-0.4,0.4-0.5,0.4c-0.4,0.1-0.7,0.4-0.7,0.9c0,0.2-0.1,0.4-0.2,0.6c-0.1,0.2-0.2,0.4-0.2,0.6
			c0,0.3,0,0.4-0.1,0.5c-0.1,0.1-0.2,0.2-0.2,0.4c0,0.2-0.1,0.3-0.2,0.4c-0.1,0.1-0.2,0.5-0.2,1.4c0,1,0.1,1.5,0.2,1.6
			c0.1,0,0.1,0.1,0.1,0.2c0,0.1,0,0.2-0.1,0.2c-0.1,0,0,0.2,0.2,0.4c0.3,0.2,0.4,0.4,0.5,0.4c0.1,0,0.1,0.1,0.2,0.3
			c0.1,0.2,0.2,0.4,0.6,0.7c0.3,0.3,0.6,0.5,0.8,0.6c0.2,0.1,0.2,0.1,0.2,0.2c0,0.1,0.3,0.2,0.9,0.3c0.6,0.1,1.3,0.1,2,0.1
			c1.1,0,1.7-0.1,1.9-0.3c0.1-0.1,0.4-0.3,0.8-0.3c0.3-0.1,0.6-0.2,0.8-0.5c0.3-0.4,0.5-0.7,0.7-0.8c0.3-0.3,0.4-0.5,0.4-0.6
			c0-0.1-0.1-0.2-0.3-0.3c-0.4-0.2-0.6-0.3-0.8-0.3c-0.1,0-0.2,0.1-0.3,0.3c-0.1,0.2-0.2,0.4-0.4,0.4c-0.2,0-0.4,0.1-0.6,0.4
			c-0.2,0.2-0.4,0.3-0.5,0.2c-0.1-0.1-0.2-0.1-0.4,0.1c-0.1,0.1-0.4,0.2-0.7,0.2c-0.1,0-0.4,0-0.8-0.1c-0.6,0-1.1-0.1-1.2-0.2
			c-0.2-0.1-0.3-0.3-0.3-0.5c0-0.2-0.2-0.5-0.6-0.9c-0.3-0.3-0.5-0.5-0.6-0.7c-0.1-0.2-0.2-0.5-0.3-0.9c-0.1-0.7-0.2-1-0.3-1
			c-0.1,0-0.1-0.1-0.1-0.2c0-0.1,0-0.2,0.1-0.2c0.2,0,0.3-0.7,0.3-1.9c0-0.2,0.1-0.2,0.3-0.2c0.2,0,0.3-0.1,0.2-0.3
			c0-0.1,0-0.2,0-0.3c0.1-0.1,0.2-0.1,0.4-0.2c0.3-0.1,0.5-0.3,0.5-0.4c0-0.1,0.1-0.3,0.3-0.4c0.2-0.1,0.4-0.2,0.7-0.2
			c0.2,0,0.3-0.1,0.3-0.2c0-0.1,0.2-0.2,0.7-0.2c0.1,0,0.2,0,0.4,0c0.5,0,0.9,0.2,1.1,0.5c0.2,0.2,0.4,0.3,0.6,0.4
			c0.3,0.1,0.4,0.2,0.4,0.4c-0.1,0.2,0,0.3,0.1,0.4c0.1,0.1,0.3,0.4,0.4,0.9c0.1,0.4,0.1,0.6,0.2,0.7c0.1,0.1,0.2,0.2,0.4,0.3
			c0.3,0.1,0.4,0.2,0.4,0.4c0,0.1,0.1,0.2,0.2,0.1c0.1-0.1,0.2-0.6,0.2-1.5c0-1,0.1-1.5,0.2-1.5c0.1-0.1,0.1-0.3,0-0.8L345.3,783.3z
			"/>
		<path d="M349.9,799.7c-0.1,0-0.1,0.1-0.1,0.3c0,0.2,0,0.3,0.1,0.3c0.1,0,0.1-0.1,0.1-0.3C350,799.8,350,799.7,349.9,799.7z"/>
		<path d="M367.4,790.7c0,0-0.1,0-0.1,0c-0.1,0-0.1,0-0.1,0.1c-0.2,0-0.3,0.1-0.3,0.3c0,0.1,0.1,0.2,0.3,0.2c0.2,0,0.3-0.1,0.3-0.3
			C367.4,790.7,367.4,790.6,367.4,790.7L367.4,790.7z"/>
		<path d="M366.5,790.1c-0.1,0-0.2-0.1-0.2-0.3c-0.1-0.2-0.2-0.3-0.4-0.3c-0.2,0-0.4-0.1-0.4-0.4c0-0.1-0.1-0.2-0.2-0.3
			c-0.2-0.1-0.3-0.1-0.3,0.1c0,0.1-0.1,0.2-0.4,0.3c-0.2,0.1-0.3,0.2-0.1,0.3c0.1,0.1,0.2,0.3,0.2,0.6c0,0.3,0,0.4-0.1,0.4
			c-0.1,0-0.3,0.2-0.6,0.5c-0.6,0.6-1.1,0.9-1.5,0.9c-0.2,0-0.4,0.1-0.7,0.2c-0.3,0.1-0.7,0.2-1.2,0.2c-0.6,0-0.9-0.1-0.9-0.4
			c0-0.1,0-0.1,0-0.2c0.1-0.2,0.1-0.3,0-0.4c-0.1,0-0.1-0.2-0.1-0.4c0-0.4,0-0.7,0.1-1c0-0.1,0.1-0.2,0.1-0.4c0-0.1,0-0.4-0.1-0.6
			c0-0.1,0-0.3,0-0.5c0-0.2,0-0.3,0.1-0.4c0.2-0.1,0.2-0.3,0.2-0.8c0-0.2,0-0.3-0.1-0.4c-0.1-0.1-0.1-0.2,0-0.4
			c0.1-0.1,0.1-0.5,0.1-1.2V785l-0.1-1.3h0.9c0.6,0,1-0.1,1.1-0.2c0.1-0.2,0.1-0.4,0.1-0.6c0-0.3-0.1-0.5-0.2-0.6
			c-0.1-0.1-1.1-0.1-2.9-0.1h-0.9c-1.2,0-1.8,0.1-1.8,0.2c-0.1,0.1-0.1,0.3-0.1,0.4c0,0.3,0.1,0.6,0.2,0.7c0.1,0.1,0.4,0.2,0.7,0.2
			c0.5,0,0.8,0.1,0.8,0.4c0,0.1,0,0.1-0.1,0.2c-0.1,0.1-0.1,0.4-0.1,0.7c0,0.3,0,0.6,0.1,0.8c0.1,0.3,0.1,0.4,0,0.5
			c-0.1,0.1-0.1,0.3-0.1,0.7c0,0.2,0,0.3,0,0.4c0,0.8,0.1,1.3,0.1,1.6c0,1.3-0.1,1.9-0.3,1.9c-0.1,0-0.2,0.2-0.2,0.7
			c0,0.2,0,0.3,0.1,0.4l0.1,0.1c0,0.2-0.3,0.2-0.9,0.2c-0.3,0-0.5,0.1-0.6,0.2c-0.1,0.1-0.2,0.4-0.2,0.8v0.2c0,0.5,0.2,0.8,0.6,0.8
			c0.1,0,0.3,0,0.4-0.1c0.3-0.1,0.4-0.2,0.4-0.3s0.3-0.1,1-0.1c0.7,0,1,0,1,0.1c0,0.1,0.7,0.1,2.1,0.1c1.4,0,2.1-0.1,2.1-0.1
			c0-0.1,0.3-0.1,0.8-0.1c0.6,0,0.9,0,0.9,0.1c0,0.1,0.1,0.2,0.4,0.2c0.2,0,0.4-0.1,0.4-0.3c0-0.1,0.1-0.3,0.3-0.4
			c0.2-0.1,0.3-0.2,0.3-0.4c0-0.2,0-0.4,0.1-0.5c0.1-0.1,0.1-0.3,0-0.4c0,0-0.1-0.1-0.1-0.2c0-0.2,0-0.5,0.1-0.8
			c0.1-0.3,0.2-0.4,0.2-0.4c0.1,0,0.1-0.1,0.1-0.3C366.6,790.2,366.5,790.1,366.5,790.1z"/>
		<path d="M374.5,792.2c0.1,0,0.1-0.1,0.2-0.1c0.1-0.2,0.1-0.3-0.1-0.3c-0.1,0-0.2,0.1-0.2,0.2C374.3,792.1,374.4,792.2,374.5,792.2
			z"/>
		<path d="M385.2,790.2c-0.1,0-0.3,0.2-0.5,0.5c-0.3,0.4-0.4,0.6-0.4,0.7c0,0.1-0.1,0.2-0.4,0.2c-0.2,0-0.3,0.1-0.3,0.1
			c0,0,0,0.1,0,0.3v0.2c0,0.2-0.1,0.3-0.4,0.3c0,0-0.1,0-0.2,0c-0.1,0-0.1,0-0.2,0c-0.2,0-0.4,0.1-0.7,0.4c-0.2,0.2-0.4,0.3-0.6,0.3
			c-0.1,0-0.2-0.1-0.2-0.2c-0.1-0.1-0.2-0.1-0.4,0c-0.2,0.1-0.6,0.2-1.2,0.2c-0.5,0-0.7,0-0.7-0.1c0-0.1-0.1-0.1-0.2-0.1
			c-0.1,0-0.1-0.1-0.2-0.2c-0.1-0.2-0.1-0.3-0.1-0.5c0,0,0-0.6,0.1-1.8c0-1.2,0.1-1.8,0.1-1.8c0-0.1,0.5-0.1,1.4-0.1
			c0.8,0,1.3,0.1,1.5,0.2c0.3,0.1,0.4,0.4,0.4,0.8c0,0.2,0,0.3,0.1,0.3c0,0,0.1,0,0.2,0c0.2-0.1,0.4-0.1,0.6-0.1h0.1
			c0.2,0,0.3-0.2,0.3-0.6c0-0.1,0-0.2,0-0.3c0-0.2,0-0.3,0-0.4v-0.3c0-0.4,0-0.6,0.1-0.6c0.1-0.1,0.1-0.3,0-0.4
			c-0.1-0.1-0.1-0.3,0.1-0.4c0.2-0.1,0.2-0.2,0.2-0.4c0-0.3-0.4-0.4-1.1-0.4c-0.4,0-0.6,0.2-0.6,0.5c0,0.1,0,0.2,0.1,0.3
			c0.1,0.2,0,0.3-0.1,0.5c-0.1,0.1-0.4,0.2-0.9,0.3c-0.6,0.1-1.1,0.2-1.6,0.2h-0.6V787c0-0.4,0.1-0.6,0.2-0.6c0.1,0,0.2-0.1,0.2-0.4
			c0-0.3-0.1-0.6-0.2-0.9c-0.1-0.2-0.2-0.4-0.2-0.4c0-0.1,0.1-0.1,0.2-0.3c0.2-0.2,0.3-0.3,0.2-0.5c0,0,0-0.1,0-0.2
			c0-0.2,0.1-0.3,0.4-0.4c0.3-0.1,0.8-0.1,1.5-0.2c0.6,0,1-0.1,1.1-0.1c0.4,0,0.6,0.1,0.7,0.2c0.2,0.2,0.3,0.3,0.5,0.4
			c0.2,0.1,0.3,0.2,0.3,0.3c0,0.1,0.1,0.2,0.4,0.4c0.2,0.1,0.4,0.3,0.4,0.3c0,0.2,0.1,0.3,0.3,0.5c0.2,0.2,0.4,0.3,0.6,0.3h0.1
			c0.3,0,0.4-0.2,0.4-0.7c0-0.2-0.1-0.4-0.2-0.5c-0.1-0.2-0.2-0.4-0.2-0.6c0-0.3-0.1-0.5-0.2-0.5c-0.1-0.1-0.1-0.2,0-0.4
			c0.1-0.1,0.1-0.2,0.1-0.3c0-0.1-0.1-0.1-0.2-0.2c-0.1-0.1-0.2-0.2-0.2-0.3c0-0.1-0.1-0.3-0.3-0.5c-0.1-0.1-0.2-0.2-0.3-0.2
			c-0.1,0-0.2,0-0.3,0.1c-0.2,0.1-1.9,0.3-5,0.4h-0.7c-1.5,0-2.3-0.1-2.4-0.3c0-0.1-0.1-0.1-0.3-0.1c-0.1,0-0.2,0-0.2,0.1
			c0,0.1-0.1,0.2-0.1,0.3c0,0.2,0,0.3,0,0.3c0,0.2-0.1,0.3-0.3,0.4c-0.2,0-0.3,0.2-0.2,0.5c0.1,0.2,0.1,0.4,0.2,0.5
			c0.1,0.1,0.2,0.1,0.3,0.1s0.3,0,0.4,0c0.1,0,0.1,0,0.2,0c0.1,0,0.1,0,0.2,0c0.4,0,0.6,0.1,0.7,0.4c0.1,0.2,0.1,0.8,0.1,1.5
			c0,0.9-0.1,1.4-0.2,1.5c-0.1,0-0.1,0.2,0,0.4c0.1,0.3,0.1,0.5,0,0.7c-0.1,0.2-0.2,0.3-0.3,0.3c-0.1,0-0.1,0.1,0.1,0.2
			c0.1,0.1,0.1,0.3,0.1,0.6c0,0.3-0.1,1.3-0.2,3l-0.1,1h-0.6c-0.4,0-0.6,0.1-0.7,0.3c-0.1,0.2-0.2,0.3-0.3,0.3
			c-0.2,0-0.2,0.1-0.2,0.4c0,0.3,0.1,0.5,0.3,0.6c0.2,0.1,0.3,0.3,0.3,0.4c0,0.1,0.1,0.2,0.3,0.2c0.2,0,0.5,0,0.8-0.1
			c0.3-0.1,0.5-0.2,0.6-0.2c0.2-0.1,0.6-0.2,1.2-0.2c0.1,0,0.6,0,1.5,0.1c0.8,0,1.2,0.1,1.2,0.2c0.1,0.1,0.2,0.1,0.4,0
			c0.3-0.1,0.8-0.2,1.6-0.2c0.9,0,1.4,0,1.6-0.1c0.2,0,0.3-0.1,0.5-0.2c0.2-0.2,0.3-0.4,0.2-0.6c-0.1-0.2,0-0.4,0.2-0.4
			c0.1-0.1,0.2-0.4,0.2-0.8c0-0.3,0-0.5,0.1-0.6c0-0.1,0.1-0.1,0.2-0.1c0.2,0,0.3-0.2,0.3-0.5c0-0.3-0.1-0.5-0.2-0.7
			C385.5,790.3,385.4,790.2,385.2,790.2z"/>
		<path d="M401.3,789.5c0-0.6-0.1-0.9-0.2-1.1c-0.1-0.2-0.3-0.4-0.6-0.5c-0.3-0.1-0.5-0.3-0.5-0.4c-0.1-0.1-0.3-0.3-0.9-0.6
			c-0.5-0.3-1-0.5-1.3-0.6c-0.2-0.1-0.5-0.2-0.9-0.5c-0.4-0.3-0.6-0.4-0.6-0.5c0-0.1-0.1-0.2-0.2-0.3c-0.2-0.1-0.2-0.2-0.2-0.3
			c0,0,0-0.1,0-0.1c0.1-0.1,0.1-0.2,0.1-0.3c0-0.1,0-0.3-0.1-0.6c0-0.1,0-0.2,0-0.2c0,0,0.2-0.1,0.3-0.1c0.3,0,0.4-0.1,0.4-0.2
			c0-0.1,0.1-0.2,0.4-0.4c0.3-0.2,0.4-0.3,0.4-0.3c0-0.1,0.1-0.1,0.4-0.2c0.1,0,0.1,0,0.2,0c0.4,0,0.8,0.2,1.2,0.5
			c0.5,0.3,0.7,0.6,0.7,0.9c0,0.2,0.1,0.4,0.3,0.5c0.2,0.1,0.3,0.3,0.3,0.4c0,0.1,0.1,0.3,0.2,0.5s0.3,0.3,0.4,0.3c0,0,0,0,0.1,0
			c0.1-0.1,0.1-0.7,0.2-2v-0.8c0-0.6-0.1-0.9-0.2-0.9c-0.1,0-0.1,0-0.1,0c-0.3,0.1-0.6,0.2-0.8,0.2c-0.3,0-0.6-0.1-1-0.3
			c-0.4-0.2-0.6-0.3-0.7-0.3c0,0-0.1,0-0.2,0.1c-0.3,0.1-0.6,0.1-0.8,0.1c-0.3,0-0.4,0-0.5,0.1c0,0.1-0.1,0.2-0.3,0.2
			c-0.2,0-0.4-0.1-0.5-0.2c-0.1-0.1-0.3-0.2-0.5-0.2h0c-0.1,0-0.1,0-0.1,0c-0.1,0-0.1,0-0.1,0c0,0,0.1,0,0.1,0
			c0.1,0.1,0.2,0.1,0.2,0.2c0,0.2-0.2,0.3-0.5,0.4c-0.3,0.1-0.4,0.2-0.4,0.4c0.1,0.2,0,0.3-0.2,0.4c-0.3,0.1-0.6,0.5-1.1,1.1
			c-0.1,0.2-0.2,0.4-0.2,0.6c0,0,0,0.3,0.1,0.8c0.1,0.7,0.3,1.1,0.4,1.3c0.1,0.2,0.4,0.4,0.7,0.7c0.4,0.3,0.6,0.4,0.8,0.4
			c0.1,0,0.3,0.1,0.6,0.4c0.4,0.3,0.9,0.6,1.7,0.8c0.5,0.1,0.8,0.3,1.1,0.6c0.2,0.2,0.3,0.4,0.5,0.7s0.2,0.5,0.2,0.7
			c0,0.1,0,0.1-0.1,0.2c-0.1,0-0.1,0.2-0.1,0.4c0.1,0.2,0,0.4-0.2,0.6c-0.1,0.1-0.2,0.3-0.2,0.4c0,0.2-0.5,0.4-1.4,0.5
			c-0.1,0-0.3,0-0.6,0c-0.9,0-1.7-0.4-2.2-1.2c-0.3-0.4-0.5-0.8-0.5-1c0,0,0-0.1,0-0.2c0-0.1,0-0.2,0-0.2c0,0-0.1-0.1-0.1-0.1
			c-0.1,0-0.1,0-0.1-0.1c0.1-0.3-0.1-0.5-0.4-0.6c-0.1,0-0.2-0.1-0.3-0.1c-0.3,0-0.4,0.2-0.5,0.5c-0.1,1.2-0.1,1.9-0.2,1.9
			c-0.1,0.1-0.1,0.4-0.2,0.8c0,0.1,0,0.3,0,0.4c0,0.2,0.1,0.4,0.3,0.6c0.1,0.1,0.2,0.2,0.3,0.2c0,0,0.1,0,0.2-0.2
			c0.1-0.2,0.2-0.3,0.2-0.4c0-0.3,0.2-0.3,0.5-0.1c0.9,0.5,1.8,0.7,2.9,0.7c0.5,0,1.1-0.1,1.6-0.2c0.6-0.1,1.1-0.3,1.4-0.6
			c0.3-0.3,0.5-0.5,0.5-0.5c0-0.1,0.1-0.2,0.2-0.3c0.2-0.1,0.3-0.4,0.3-0.9c0.1-0.5,0.1-0.7,0.2-0.7c0.1,0,0.1,0,0-0.1
			C401.3,790.6,401.3,790.2,401.3,789.5z M396.9,788C396.8,788,396.8,787.9,396.9,788c-0.1-0.1-0.1-0.1,0-0.1S397,787.9,396.9,788
			C397,787.9,396.9,788,396.9,788z"/>
		<path d="M395.4,788.7c0-0.1,0-0.2-0.1-0.2c-0.1,0-0.1,0-0.1,0.1l0.1,0.2C395.3,789,395.4,788.9,395.4,788.7z"/>
		<polygon points="51.7,807.5 44,812.7 41.2,798.7 38.4,812.7 30.7,807.5 35.9,815.3 21.8,818 35.9,820.8 30.7,828.5 38.4,823.3 
			41.2,837.4 43.9,823.4 51.7,828.5 46.5,820.8 60.5,818 46.5,815.3 		"/>
		<polygon points="468.1,815.3 473.3,807.5 465.5,812.7 462.8,798.7 460,812.7 452.3,807.5 457.5,815.3 443.4,818 457.5,820.8 
			452.3,828.5 460,823.3 462.8,837.4 465.5,823.4 473.3,828.5 468.1,820.8 482.1,818 		"/>
		<polygon points="30.7,56.3 38.4,51.1 41.2,65.1 44,51.1 51.7,56.3 46.5,48.5 60.5,45.8 46.5,43 51.7,35.3 43.9,40.4 41.2,26.4 
			38.4,40.5 30.7,35.3 35.9,43 21.8,45.8 35.9,48.5 		"/>
		<polygon points="473.3,35.3 465.5,40.4 462.8,26.4 460,40.5 452.3,35.3 457.5,43 443.4,45.8 457.5,48.5 452.3,56.3 460,51.1 
			462.8,65.1 465.5,51.1 473.3,56.3 468.1,48.5 482.1,45.8 468.1,43 		"/>
		<path d="M384.2,469c0-3-14.9-1.2-19.4-5.6c-4.5-4.5-3.7-25.4-6.4-25.4s-2.3,21.3-6.4,25.4s-19.4,3.2-19.4,5.6
			c0,2.5,15.5,1.8,19.4,5.6c3.8,3.8,3.7,25.4,6.4,25.4s1.8-20.8,6.4-25.4C369.4,469.9,384.2,471.9,384.2,469z"/>
		<path d="M135.8,676.6c-5.3-5.3-4.4-30.3-7.6-30.3c-3.3,0-2.7,25.4-7.6,30.3c-4.9,4.9-23.1,3.8-23.1,6.7c0,2.9,18.5,2.1,23.1,6.7
			c4.6,4.6,4.4,30.3,7.6,30.3c3.3,0,2.1-24.8,7.6-30.3c5.5-5.5,23.1-3.2,23.1-6.7C158.9,679.7,141.1,681.9,135.8,676.6z"/>
		<path d="M158.2,165.5c1.9,1.9,1.8,12.5,3.2,12.5c1.3,0,0.9-10.2,3.2-12.5c2.3-2.3,9.5-1.3,9.5-2.8c0-1.5-7.3-0.6-9.5-2.8
			c-2.2-2.2-1.8-12.5-3.2-12.5c-1.3,0-1.1,10.5-3.2,12.5c-2,2-9.5,1.6-9.5,2.8C148.7,163.9,156.3,163.6,158.2,165.5z"/>
		<path d="M397.9,534.4c-2.5-2.5-2.1-14.4-3.6-14.4c-1.6,0-1.3,12.1-3.6,14.4c-2.3,2.3-11,1.8-11,3.2c0,1.4,8.8,1,11,3.2
			c2.2,2.2,2.1,14.4,3.6,14.4c1.6,0,1-11.8,3.6-14.4c2.6-2.6,11-1.5,11-3.2C408.9,535.9,400.4,537,397.9,534.4z"/>
		<path d="M89,443.6c-1.3-1.3-1-7.2-1.8-7.2s-0.6,6-1.8,7.2c-1.2,1.2-5.5,0.9-5.5,1.6c0,0.7,4.4,0.5,5.5,1.6c1.1,1.1,1,7.2,1.8,7.2
			s0.5-5.9,1.8-7.2c1.3-1.3,5.5-0.8,5.5-1.6C94.5,444.4,90.3,444.9,89,443.6z"/>
		<path d="M178.4,641.7c-1.6-1.6-1.3-9.2-2.3-9.2s-0.8,7.7-2.3,9.2c-1.5,1.5-7,1.1-7,2c0,0.9,5.6,0.6,7,2c1.4,1.4,1.3,9.2,2.3,9.2
			s0.6-7.5,2.3-9.2c1.7-1.7,7-1,7-2C185.4,642.7,180,643.3,178.4,641.7z"/>
		<path d="M394.2,327.2c-1.2,0-1,9.2-2.8,10.9c-1.8,1.8-8.3,1.4-8.3,2.4c0,1.1,6.7,0.8,8.3,2.4c1.7,1.7,1.6,10.9,2.8,10.9
			c1.2,0,0.8-8.9,2.8-10.9c2-2,8.3-1.1,8.3-2.4c0-1.3-6.4-0.5-8.3-2.4S395.4,327.2,394.2,327.2z"/>
		<path d="M117,415.3c2.6,2.6,2.5,17,4.3,17c1.8,0,1.2-13.9,4.3-17c3.1-3.1,13-1.8,13-3.8s-10-0.8-13-3.8c-3-3-2.5-17-4.3-17
			c-1.8,0-1.5,14.2-4.3,17c-2.8,2.8-13,2.1-13,3.8C104,413.2,114.4,412.7,117,415.3z"/>
		<path d="M342,635.9c-3.6-11-7.2-22.2-10.2-33.4c-6-22.3-9.8-50.1-16.6-72.3c-6-19.8-14.3-33.3-25.8-50.3
			c-6-8.9-9.7-13.9-14.4-23.4c-2.1-4.2-4.7-10.2-9-12.9c-8.8-5.6-8,14-8.1,18.4c-0.2,15.3,7.5,26.1,12,40.5
			c1.9,6.1,5.8,14.2,3.5,20.6c-2.4,6.7-15.5,0.9-20-1.3c-21.3-10.3-29.9-18.9-39.3-37.3c-5.3-10.5-12.1-28.5-17.3-39
			c-1.9-3.9-5-11.3-8.3-16.1c-2.2-3.2-5.8-7.6-8.8-6c-3.2,1.7-2.4,14.1-1.3,20.1c1,3,1.9,6,2.9,9c2.5,7.9,4.9,15.8,7.5,23.6
			c3.6,11.1,7.4,22.4,14.2,32.1c7,9.9,15.7,19.6,25.1,27.2c2,1.6-0.8,4.4-2.8,2.8c-10.1-8.2-19.6-18.8-26.8-29.6
			c-6.7-10-10.4-21.6-14.1-33c-3.1-9.4-7.3-23.8-7.3-23.8c-1.7-2.6-5.9-6.2-6.7-3.7c-1.8,5.3-1.2,15.4-0.3,18.5
			c5.1,14.3,6.4,18.5,12.2,32.5c3.5,8.6,6.5,18.7,12.9,25.6c6.2,6.6,13.4,12.1,19.5,18.9c1.7,1.9-1.1,4.7-2.8,2.8
			c-6.5-7.3-14.8-13.1-21-20.6c-5.4-6.6-8.1-15.4-11.4-23.1c-5.2-12.2-9.5-24.7-13.8-37.3c-4.8,1.6-4,11.7-3.7,15.3
			c0.1,1.5,0.3,2.9,0.4,4.3c2.8,11.9,7.5,23.2,11.2,34.8c2.6,8.2,5.9,14.4,12.3,20.1c5.7,5.1,12.1,9.4,18.1,14c2,1.5,0,4.9-2,3.4
			c-11.6-8.8-24.7-16.4-30.2-30.5c-3.1-7.9-5.2-16.1-8.3-24.1c-1.2-3.1-1.9-5.3-2.8-8.5c-5.4-2.4-5.4,7.6-5.1,12.6
			c0.3,4.4,1.1,11.9,2,16.2c1.5,7,4.7,16.1,7.4,22.7c4.3,10.4,14,16.3,22.5,23.4c9.7,8.1,19.1,14.3,28.7,22.5
			c11.2,9.8,24.8,17.2,37.4,25.1c9.5,6,17.4,12.1,22.3,22.5c4.6,9.8,11.3,48.6,13.8,57.3c0.8,2.6,26.3-1.5,35-5.1
			c21.3-8.7,31.4-20,30.5-23C353.3,661.9,344.2,642.6,342,635.9z"/>
		<path d="M340.1,209.6c-0.7,0-1.4,0-2.1-0.1c4.9,1.7,10.1,2.7,15.5,2.7c25.6,0,46.4-20.8,46.4-46.4s-20.8-46.4-46.4-46.4
			c-5.5,0-10.7,1-15.5,2.7c0.7,0,1.4-0.1,2.1-0.1c24.2,0,43.7,19.6,43.7,43.7S364.2,209.6,340.1,209.6z"/>
		<path d="M309.7,395c0.3,0,0.7-0.1,1-0.3c0.7-0.5,1-1.3,0.7-2l-20.6-63.6l-3,2.1l18.5,57.2c-22.7-16.8-73.5-54.4-83.5-61.8
			l-0.5-0.4l-1.2,3.5l0.3,0.2c10.2,7.6,57.3,42.4,69.1,51.1l18.4,13.6C309.1,394.9,309.4,395,309.7,395z"/>
		<path d="M160.1,283.1c-0.3,0.8,0,1.7,0.7,2.2l1.4,1c18.1,13.4,35.2,26,52.8,38.9l0.5,0.3l1.3-3.4l-0.3-0.2
			c-11.6-8.5-23.7-17.5-35.4-26.1l-13.9-10.3h103.9l-0.2-0.6c0-0.1-0.1-0.4-0.3-0.7c-0.2-0.6-0.6-1.5-0.7-1.9l-0.1-0.3H161.7
			C161,282,160.3,282.4,160.1,283.1z"/>
		<path d="M196,394.7c0.3,0.2,0.7,0.3,1,0.3c0.3,0,0.6-0.1,0.9-0.3l53.6-39.6l0.5-0.3l-0.4-0.4c-0.1-0.1-1.6-1.4-2-1.7l-0.3-0.3
			l-48.8,36.1l32.9-101.6l-3.8,0.1l-34.2,105.7C195,393.4,195.3,394.2,196,394.7z"/>
		<path d="M254.2,217.3c-0.2-0.1-0.4-0.1-0.6-0.2c0,0-0.1,0-0.2,0c-0.1,0-0.1,0-0.2,0c-0.2,0-0.4,0.1-0.6,0.2c-0.6,0.3-1,0.8-1,1.3
			l-19.7,61l-0.1,0.5l0.6,0c0.8,0.1,1.8,0.1,2.8,0l0.3,0l17.9-55.4l32,99l3-2.3l-33.2-102.7C255.1,218,254.7,217.5,254.2,217.3z"/>
		<path d="M278.1,282.6c0.3,0.9,0.6,1.8,0.9,2.7l0.1,0.3h60.5L255.2,348l-0.5,0.4l3,2.2l88.2-65.2c0.7-0.5,1-1.4,0.7-2.2
			c-0.2-0.7-0.9-1.1-1.6-1.1h-67.1L278.1,282.6z"/>
		<path d="M155.4,272.2l-0.2,0.5l0.6,0.1c0.7,0.1,1.4,0.3,2.3,0.8l0.4,0.2l0.2-0.5c1.8-4.3,3.9-8.4,6.2-12.3
			c16.7-27.8,46.3-46.3,79-49.4l0.5,0l-0.1-0.5c-0.1-0.8-0.2-1.7-0.2-2.5l0-0.5l-0.5,0c-28.7,2.7-55.3,16.8-73.1,38.7
			C164.4,254.5,159.3,263,155.4,272.2z"/>
		<path d="M185.2,396.2l0.4,0.3l0.3-0.4c0.5-0.6,1.1-1.2,1.9-1.5l0.6-0.3l-0.5-0.4c-5-4.1-9.6-8.6-13.6-13.5
			c-20.8-24.9-28.6-58.9-20.8-91l0.1-0.5h-0.6c-0.9,0-1.7-0.1-2.4-0.4l-0.5-0.1l-0.1,0.5c-6.7,27.7-2.2,57.3,12.4,81.1
			C168.4,379.9,176.1,388.7,185.2,396.2z"/>
		<path d="M253.8,421c6.8,0,13.6-0.7,20.3-2c11.3-2.2,22.1-6.3,32.2-12.2l0.4-0.2l-0.3-0.4c-0.5-0.7-0.9-1.4-1.2-2.2l-0.2-0.5
			l-0.4,0.3c-5.4,3.1-11.1,5.7-16.8,7.8c-28.6,10.1-61.5,6.7-87.9-9.2l-0.5-0.3l-0.2,0.6c-0.2,0.9-0.5,1.7-0.9,2.3l-0.2,0.4l0.4,0.2
			C215.5,415.7,234.6,421,253.8,421z"/>
		<path d="M321.1,396l0.3,0.3l0.3-0.3c24.2-20.5,38.2-50.3,38.4-81.7c-0.1-8.4-1.2-16.9-3.2-25.2l-0.1-0.4l-0.4,0.1
			c-0.9,0.2-1.8,0.3-2.6,0.6l-0.5,0.1l0.1,0.5c2,8,3.1,16.2,3.1,24.4c-0.2,30.7-13.9,59.6-37.4,79.3l-0.4,0.4l0.5,0.3
			C319.8,394.8,320.5,395.4,321.1,396z"/>
		<path d="M263.5,211.3l0,0.4l0.4,0c3.5,0.3,6.9,0.9,10.2,1.5c32.5,6.7,60.1,29.1,73.7,60.2l0.2,0.3l0.4-0.1c0.4-0.1,0.8-0.1,1.3,0
			l0.3,0l0.2-0.2c0.1-0.1,0.2-0.3,0.3-0.4c0.1-0.1,0.3-0.3,0.5-0.4l0.3-0.2l-0.2-0.4c-11.7-26.8-33.8-47.9-60.8-57.9
			c-8.5-3.1-17.5-5.2-26.7-6l-0.6-0.1l0.1,0.6C263.3,209.5,263.4,210.4,263.5,211.3z"/>
		<path d="M251.6,210.9c0.8,0.9,1.2,4.3,1.7,4.3c0.5,0,1.1-3.5,1.9-4.3c0.8-0.8,3.2-1.1,3.2-1.6c0-0.5-2.4-0.9-3.1-1.7
			c-0.7-0.7-1.2-4.3-1.7-4.3c-0.5,0-1,3.4-1.9,4.3s-3.2,1-3.2,1.6C248.4,209.8,250.7,210.1,251.6,210.9z"/>
		<path d="M150.8,281.9c0.5,1.1,0,3.3,0.5,3.5s1.5-1.9,2.6-2.4c1.1-0.5,4.5,0.2,4.6-0.3c0.2-0.5-3-2.1-3.5-3.1c-0.5-1,0-3.4-0.5-3.5
			c-0.4-0.2-1.6,2-2.6,2.4c-0.9,0.5-4.5-0.2-4.6,0.3S150.2,280.8,150.8,281.9z"/>
		<path d="M187.9,405.3c0.4,0.3,2.8-2.2,4-2.4c1.2-0.2,3.1,1.1,3.5,0.6s-1.4-2-1.5-3.2c-0.2-1.2,1.6-4.2,1.2-4.5
			c-0.4-0.3-2.9,2.2-4,2.4c-1.1,0.2-3.2-1-3.5-0.6c-0.3,0.4,1.4,2.2,1.5,3.2C189.3,401.9,187.5,405,187.9,405.3z"/>
		<path d="M318.9,398.1c-0.3-0.5-2.3,0.7-3.5,0.5c-1.2-0.2-3.5-2.8-3.9-2.5c-0.4,0.3,1.2,3.4,1,4.5c-0.2,1.1-1.9,2.7-1.7,3.1
			c0.3,0.4,2.5-0.7,3.5-0.5c1,0.2,3.5,2.8,3.9,2.5c0.4-0.3-1.2-3.3-1-4.5C317.4,400,319.2,398.5,318.9,398.1z"/>
		<path d="M352.5,282.7c1,0.5,2,2.7,2.5,2.5c0.5-0.1,0.1-2.6,0.6-3.5c0.5-0.9,3.8-2.4,3.6-2.9c-0.2-0.5-3.5,0.1-4.6-0.4
			c-1.1-0.6-1.9-2.7-2.5-2.5c-0.5,0.2-0.1,2.4-0.6,3.5c-0.6,1.1-3.8,2.4-3.6,2.9C348.1,282.8,351.6,282.2,352.5,282.7z"/>
		<path d="M218.4,275.4c2.8,0,5-2.2,5.2-5.2l0,0l0,0c-0.2-2.9-2.4-5.2-5.2-5.2c-2.8,0-5.2,2.4-5.2,5.2c0,2.7,2.2,5.1,5,5.2
			C218.3,275.4,218.3,275.4,218.4,275.4z M216.5,270.2c0-1.2,0.9-1.8,1.8-1.8c0,0,0,0,0.1,0c0.9,0,1.9,0.6,2,1.8
			c-0.1,1.3-1.1,1.9-2,1.9c0,0,0,0-0.1,0C217.4,272,216.5,271.5,216.5,270.2z"/>
		<path d="M286.1,275.4c2.8,0,5-2.2,5.2-5.2l0,0l0,0c-0.2-2.9-2.4-5.2-5.2-5.2c-2.8,0-5.2,2.4-5.2,5.2c0,2.7,2.2,5.1,5,5.2
			C285.9,275.4,286,275.4,286.1,275.4z M284.1,270.2c0-1.2,0.9-1.8,1.8-1.8c0,0,0,0,0.1,0c0.9,0,1.9,0.6,2,1.8
			c-0.1,1.3-1.1,1.9-2,1.9c0,0,0,0-0.1,0C285,272,284.1,271.5,284.1,270.2z"/>
		<path d="M248.2,370.3c0,2.7,2.2,5.1,5,5.2c0.1,0,0.1,0,0.2,0c2.8,0,5-2.2,5.2-5.2c-0.2-2.9-2.4-5.2-5.2-5.2
			C250.6,365.1,248.2,367.4,248.2,370.3z M253.2,368.4C253.3,368.4,253.3,368.4,253.2,368.4c1,0,2,0.6,2,1.8c-0.1,1.3-1.1,1.8-2,1.8
			c-0.9,0-1.8-0.6-1.8-1.8C251.4,369,252.3,368.4,253.2,368.4z"/>
		<path d="M199.7,330.5c0,2.7,2.2,5.1,5,5.2c0.1,0,0.1,0,0.2,0c2.8,0,5-2.2,5.2-5.2c-0.2-2.9-2.4-5.2-5.2-5.2
			C202,325.3,199.7,327.7,199.7,330.5z M206.8,330.5c-0.1,1.3-1.1,1.9-2,1.8c-0.9,0-1.8-0.6-1.8-1.8s0.9-1.8,1.8-1.8c0,0,0,0,0.1,0
			C205.7,328.6,206.7,329.2,206.8,330.5z"/>
		<path d="M297.2,330.5c0,2.7,2.2,5.1,5,5.2c0.1,0,0.1,0,0.2,0c2.8,0,5-2.2,5.2-5.2c-0.2-2.9-2.4-5.2-5.2-5.2
			C299.5,325.3,297.2,327.7,297.2,330.5z M304.3,330.5c-0.1,1.3-1.1,1.9-2,1.8c-0.9,0-1.8-0.6-1.8-1.8s0.9-1.8,1.8-1.8
			c0,0,0,0,0.1,0C303.2,328.6,304.2,329.2,304.3,330.5z"/>
		<polygon points="250.7,323 253.6,341.5 256.5,323 267.6,330 260.6,319 279.1,316.1 260.6,313.2 267.6,302.1 256.5,309.1 
			253.6,290.6 250.7,309.1 239.6,302.1 246.6,313.2 228.1,316.1 246.6,319 239.6,330 		"/>
	</g>
</g>
</svg>
