<?xml version="1.0" encoding="utf-8"?>
<!-- Generator: Adobe Illustrator 21.1.0, SVG Export Plug-In . SVG Version: 6.00 Build 0)  -->
<svg version="1.1" xmlns="http://www.w3.org/2000/svg" xmlns:xlink="http://www.w3.org/1999/xlink" x="0px" y="0px"
	 viewBox="0 0 504 864" style="enable-background:new 0 0 504 864;" xml:space="preserve">
<g id="Слой_1">
</g>
<g id="Слой_2">
	<g>
		<path d="M503.8,18.2c-1.6-17.9-18.7-16.3-31.6-16.3c-45.9,0-91.8,0-137.6,0c-63.2,0-126.3,0-189.5,0c-40.6,0-81.2,0-121.8,0
			c-2.6,0-5.3-0.2-8,0.2c-9.5,1.2-15,9.2-15.2,18.2c-0.2,7.3,0,14.5,0,21.8c0,37.4,0,74.9,0,112.3c0,57,0,114.1,0,171.1
			c0,64.3,0,128.6,0,192.9c0,58.4,0,116.7,0,175.1c0,40.1,0,80.2,0,120.3c0,9.1,0,18.2,0,27.3c0,11.7,6.7,20.5,19.2,20.7
			c35.9,0.6,71.9,0,107.9,0c62.4,0,124.9,0,187.3,0c49.7,0,99.5,0,149.2,0c7.6,0,15.2,0,22.9,0c0.4,0,0.8-0.1,1.2-0.2
			c14.4-1.8,16.1-13.8,16.1-25.5c0-11.4,0-22.8,0-34.3c0-43.4,0-86.9,0-130.3c0-59.9,0-119.8,0-179.8c0-63.9,0-127.7,0-191.6
			c0-55.3,0-110.6,0-165.9c0-33.7,0-67.3,0-101C503.9,28.3,504.2,23.2,503.8,18.2z M486.6,852.8c-28.3,0-56.6,0-84.9,0
			c-59.9,0-119.8,0-179.7,0c-54,0-108,0-162,0c-13.1,0-26.1,0-39.2,0c-5.6,0-11-1.3-11.7-8.3c-0.2-1.5,0-3,0-4.5c0-26.5,0-53,0-79.5
			c0-50,0-100,0-149.9c0-61.8,0-123.6,0-185.4c0-61.4,0-122.7,0-184.1c0-48.9,0-97.7,0-146.6c0-24.2-0.8-48.6,0-72.7
			c0.2-5.3,1.6-10.1,8.3-10.8c2.2-0.2,4.5,0,6.7,0c14.8,0,29.6,0,44.5,0c55.6,0,111.3,0,166.9,0c58.9,0,117.8,0,176.7,0
			c18.9,0,37.9,0,56.8,0c8.1,0,24.7-3.1,25.9,8.4c0.5,5.2,0,10.8,0,16.1c0,13.5,0,27.1,0,40.6c0,45.5,0,91.1,0,136.6
			c0,60.1,0,120.2,0,180.3c0,62.6,0,125.1,0,187.7c0,52.8,0,105.6,0,158.4c0,31.4,0,62.7,0,94.1C494.8,840.3,496.9,852,486.6,852.8z
			"/>
		<path d="M460,790.9c1.2,0.1,2.4-0.7,2.4-2.2c0-23.7,0-47.4,0-71.1c0-56.4,0-112.8,0-169.2c0-68.7,0-137.4,0-206
			c0-59,0-117.9,0-176.9c0-19.6,0-39.2,0-58.8c0-8.9,1.3-19,0-27.9c-0.1-0.4,0-0.8,0-1.2c0-0.8-0.3-1.3-0.8-1.7
			c0.1-1.2-0.6-2.5-2.2-2.6c-13.1-0.5-25.3-13.8-25.8-26.7c0-0.5-0.2-0.8-0.4-1.1c-0.3-0.6-1-1.1-1.9-1.1c-40.5,0-80.9,0-121.4,0
			c-64.5,0-129,0-193.6,0c-14.9,0-29.7,0-44.6,0c-0.9,0-1.6,0.5-1.9,1.1c-0.2,0.3-0.3,0.7-0.4,1.2C69.1,59.5,57,72.8,43.9,73.3
			c-1.8,0.1-2.5,1.9-2,3.2c-0.2,0.3-0.2,0.6-0.2,1c0,23.7,0,47.4,0,71.1c0,56.4,0,112.8,0,169.2c0,68.7,0,137.4,0,206
			c0,59,0,117.9,0,176.9c0,19.6,0,39.2,0,58.8c0,8.9-1.3,19,0,27.9c0.1,0.4,0,0.8,0,1.2c0,0.9,0.5,1.6,1.1,1.9
			c0.3,0.2,0.7,0.3,1.1,0.4c13,0.5,25.3,13.3,25.8,26.2c0,0.5,0.2,0.8,0.4,1.1c0.3,0.6,1,1.1,1.9,1.1c40.5,0,80.9,0,121.4,0
			c64.5,0,129,0,193.6,0c14.9,0,29.7,0,44.6,0c0.9,0,1.6-0.5,1.9-1.1c0.2-0.3,0.3-0.7,0.4-1.2c0.5-12.9,12.7-25.7,25.8-26.2
			C459.6,791,459.8,790.9,460,790.9z M429.3,814.9c-39.8,0-79.6,0-119.3,0c-64.5,0-129,0-193.6,0c-14.2,0-28.3,0-42.5,0
			c-1.7-13.9-13.9-26.5-27.8-28.3c0-23,0-46,0-69.1c0-56.4,0-112.8,0-169.2c0-68.7,0-137.4,0-206c0-59,0-117.9,0-176.9
			c0-19.6,0-39.2,0-58.8c0-8.9,1.3-19,0-27.9c-0.1-0.4,0-0.8,0-1.2c14-1.8,26.1-14.9,27.8-28.7c39.8,0,79.5,0,119.3,0
			c64.5,0,129,0,193.6,0c14.2,0,28.3,0,42.5,0c1.7,14.1,14.3,27.4,28.5,28.8c0,23.7,0,47.3,0,71c0,56.4,0,112.8,0,169.2
			c0,68.7,0,137.4,0,206c0,59,0,117.9,0,176.9c0,19.6,0,39.2,0,58.8c0,8.6-1.2,18.4-0.1,27C443.6,788.1,431.1,800.9,429.3,814.9z"/>
		<path d="M132.5,792c-0.3,0-0.5,0-0.6,0.1c0,0-0.1,0.1-0.1,0.1c0,0.2,0.2,0.2,0.6,0.2c0.3,0,0.5-0.1,0.5-0.2
			C133,792.1,132.9,792,132.5,792z"/>
		<path d="M131.5,793.6c-0.1-0.3-0.3-0.5-0.5-0.5h-0.1c-0.3,0-0.5,0.1-0.9,0.2c-0.3,0.1-0.5,0.2-0.5,0.3c0,0.1-0.1,0.2-0.4,0.2
			c-0.2,0-0.3,0-0.3,0c0,0,0-0.1,0.1-0.2c0.1-0.1,0.3-0.2,0.4-0.2c0.1,0,0.2-0.1,0.3-0.4c0.1-0.2,0.2-0.4,0.3-0.4
			c0.1,0,0.2-0.1,0.3-0.3c0.1-0.2,0.2-0.3,0.3-0.3c0.2,0,0.4-0.1,0.6-0.4c0.2-0.3,0.3-0.5,0.3-0.7c0-0.3,0-0.4-0.1-0.4
			c-0.1,0-0.1-0.1-0.1-0.2c0-0.1,0-0.2,0.1-0.3c0.1,0,0.2-0.7,0.2-2.1c0-0.3,0-0.7,0-1.2c0-0.6-0.1-0.9-0.2-0.9
			c-0.2-0.1-0.3-0.2-0.3-0.6c0-0.3,0-0.5-0.1-0.5c-0.1,0-0.1-0.1-0.1-0.4c0-0.3-0.1-0.4-0.2-0.4c-0.2,0-0.3-0.1-0.4-0.4
			c-0.1-0.2-0.2-0.3-0.4-0.4c-0.1-0.1-0.2-0.2-0.2-0.4c0-0.2-0.2-0.3-0.5-0.3c-0.6,0-0.9-0.1-0.9-0.4c0-0.1-0.1-0.2-0.2-0.2
			c-0.1,0-0.2,0-0.2-0.1c0-0.1-0.1-0.2-0.4-0.2c-0.2,0-0.3-0.1-0.4-0.2c0-0.1-0.6-0.2-1.5-0.2c-1,0-1.6,0.1-1.7,0.2
			c-0.1,0.1-0.3,0.2-0.4,0.2c-0.2,0-0.3,0-0.3,0.1c0,0.1-0.1,0.3-0.3,0.4c-0.2,0.1-0.4,0.2-0.6,0.2c-0.3,0-0.7,0.1-1.1,0.2
			c-0.5,0.1-0.7,0.3-0.8,0.5c-0.1,0.3-0.3,0.5-0.5,0.8c-0.3,0.3-0.4,0.5-0.4,0.6c0,0.1-0.1,0.1-0.2,0.1c-0.1,0-0.2,0.1-0.3,0.4
			c-0.1,0.3-0.2,0.6-0.3,0.8c-0.2,0.3-0.2,0.9-0.2,1.9c0,1.3,0.1,2.3,0.4,3c0.2,0.6,0.4,1.2,0.7,1.6c0.3,0.5,0.5,0.7,0.6,0.7
			c0.1,0.1,0.2,0.2,0.3,0.4c0.1,0.2,0.2,0.3,0.4,0.3c0.3,0,0.4,0,0.4,0.1c0,0.1,0.1,0.1,0.3,0.1c0.2,0,0.3,0.1,0.3,0.4
			c0,0.3,0.1,0.4,0.3,0.4c0.2,0,0.3-0.1,0.3-0.2c0.1-0.1,0.1-0.1,0.3,0c0.2,0.1,1,0.2,2.4,0.2c1.2,0,1.9-0.1,1.9-0.2
			c0.1-0.1,0.2-0.1,0.4-0.1c0.6,0,1,0.1,1.3,0.4c0.2,0.2,0.7,0.3,1.5,0.3c0.8,0,1.2,0,1.2-0.1c0-0.1,0.1-0.1,0.4-0.2
			c0.3-0.1,0.4-0.3,0.4-0.5c0-0.1,0-0.2-0.1-0.2C131.7,794,131.6,793.9,131.5,793.6z M128.4,790c-0.1,0.1-0.2,0.2-0.2,0.4
			c0,0.2,0,0.3-0.1,0.3c-0.1,0-0.2-0.1-0.2-0.4c0-0.2,0-0.3-0.1-0.3c0,0-0.2,0-0.4,0c-0.4,0.1-0.7,0.1-0.8,0.2
			c-0.1,0.1-0.1,0.2-0.1,0.5c0,0,0,0.1,0,0.3c0,0.2,0,0.3,0,0.4v0.5c0,0.5-0.1,0.7-0.2,0.7c-0.1,0-0.2,0.1-0.4,0.2
			c-0.2,0.1-0.3,0.2-0.4,0.2c-0.2,0-0.4,0.1-0.5,0.2c-0.1,0.1-0.2,0.1-0.3,0.1c-0.2,0-0.5,0-0.8-0.1c-0.4-0.1-0.7-0.2-0.9-0.3
			c-0.2-0.1-0.4-0.3-0.7-0.6c-0.4-0.5-0.8-1-1.1-1.8c-0.3-0.7-0.4-1.4-0.4-2.3c0-0.6,0-1,0.1-1.2c0-0.2,0.2-0.5,0.3-0.9
			c0.3-0.5,0.6-1,1.1-1.5c0.5-0.5,0.8-0.7,1.1-0.8c0.3-0.1,0.5-0.2,0.5-0.3s0.1-0.2,0.2-0.2c0.1,0,0.2-0.1,0.2-0.2
			c0-0.1,0.1-0.1,0.4-0.1c0,0,0.2,0,0.6,0.1c0.4,0,0.7,0.1,1,0.2c0.3,0.1,0.4,0.1,0.4,0.2c0,0.1,0.1,0.2,0.3,0.3
			c0.2,0.1,0.3,0.2,0.3,0.3c0,0.1,0.1,0.2,0.3,0.3c0.2,0.1,0.4,0.2,0.4,0.3c0.1,0.1,0.1,0.3,0.1,0.6c0,0.3,0.1,0.6,0.3,0.9
			c0.1,0.1,0.2,0.3,0.2,0.6c0.1,0.3,0.1,0.6,0.2,1c0,0.4,0.1,0.6,0.1,0.7c0.1,0.3,0,0.4-0.1,0.5c-0.2,0.1-0.2,0.3-0.2,0.5
			C128.6,789.8,128.5,789.9,128.4,790z"/>
		<path d="M151.1,783h-0.2c-0.4,0-0.8-0.1-1-0.3c-0.2-0.1-0.3-0.2-0.4-0.2c0,0-0.1,0.1-0.1,0.2c0,0.1,0,0.2-0.1,0.2
			c-0.1,0-0.4,0-0.8,0.1c-0.6,0-1,0-1,0.1c-0.1,0.1-0.1,0.3-0.1,0.7l0,0.6l0.8,0.1l0.8,0v2.3c0,1.5,0,2.3,0.1,2.4
			c0.1,0,0.1,0.1-0.1,0.3c-0.1,0.2-0.2,0.4-0.2,0.5v0.2c0,0.3,0,0.6-0.1,0.9c-0.1,0.3-0.2,0.5-0.3,0.5c-0.1,0.1-0.2,0.1-0.2,0.3
			c0,0.1-0.1,0.3-0.3,0.4c-0.2,0.2-0.4,0.2-0.6,0.2c-0.3,0-0.4,0.1-0.5,0.2c-0.1,0.1-0.2,0.2-0.4,0.2c-0.1,0-0.2,0-0.5-0.1
			c-0.5-0.1-0.7-0.1-0.8-0.2c0-0.1-0.2-0.1-0.4-0.1c-0.2,0-0.4-0.1-0.8-0.2c-0.2-0.1-0.3-0.2-0.4-0.3s-0.1-0.2-0.1-0.5V791v-0.3
			c0-0.4,0-0.6-0.1-0.6c-0.1,0-0.2-0.1-0.1-0.3c0-0.2,0.1-0.3,0.2-0.3c0.1-0.1,0.1-0.1,0-0.2c-0.1,0-0.1-0.1-0.1-0.2
			c0-0.1,0-0.2,0-0.3c0-0.1,0.1-0.1,0.1-0.1c0.1,0,0.1-0.3,0.1-0.9c0-0.9-0.1-1.4-0.2-1.5c-0.1-0.1-0.1-0.2,0-0.3
			c0.1-0.1,0.2-0.4,0.2-0.8c0-0.1,0-0.2,0-0.3c0-0.1-0.1-0.2-0.1-0.3c0-0.1,0-0.1,0-0.1c0-0.1,0.5-0.1,1.4-0.1c0.1,0,0.1,0,0.2,0
			c0.1,0,0.1,0,0.2,0h0c0,0,0.1-0.1,0.1-0.2c0-0.1,0-0.3-0.1-0.6c0-0.2-0.1-0.4-0.3-0.5c-0.2-0.1-0.5-0.1-1-0.1
			c-0.1,0-0.6,0-1.5,0.1c-1.4,0.1-2.1,0.2-2.3,0.4c-0.2,0.2-0.2,0.4-0.2,0.5c0,0.4,0.3,0.6,1,0.7c0.5,0.1,0.7,0.2,0.7,0.4
			c0,0.1-0.1,0.2-0.2,0.3c-0.2,0.1-0.2,0.4-0.1,0.7c0.1,0.3,0.1,0.6,0,0.6c-0.1,0.1-0.2,0.1-0.3,0.1c-0.1,0-0.1,0-0.1,0.1
			c0,0.2,0.1,0.4,0.4,0.5c0.2,0.1,0.4,0.2,0.4,0.4c0,0.1-0.1,0.2-0.2,0.3c-0.1,0.1-0.2,0.4-0.2,0.9v0.4c0,0.8,0.1,1.3,0.2,1.3
			c0.1,0.1,0.1,0.2,0.1,0.5c0,0.2,0,0.3-0.1,0.3c-0.1,0-0.1,0.1-0.2,0.4c-0.1,0.3,0,0.4,0.2,0.5c0.1,0.1,0.3,0.3,0.4,0.6
			c0.1,0.3,0.2,0.5,0.3,0.5s0.1,0.1,0.2,0.4c0.1,0.3,0.2,0.4,0.4,0.4c0.2,0,0.4,0,0.5,0.1c0.1,0.1,1,0.2,2.5,0.2
			c1.3,0,1.9-0.1,1.9-0.2s0.1-0.2,0.2-0.2c0.1,0,0.2-0.1,0.3-0.2c0.1-0.1,0.2-0.2,0.4-0.2c0.2,0,0.3-0.1,0.3-0.3
			c0-0.1,0.1-0.2,0.1-0.3c0.1,0,0.2,0,0.5,0h0.1c0.3,0,0.5,0,0.5-0.1c0-0.1-0.1-0.1-0.2-0.2c-0.1-0.1-0.2-0.2-0.2-0.3
			c0-0.2,0.1-0.4,0.2-0.6c0.2-0.2,0.2-0.4,0.1-0.4c-0.1,0-0.2-0.1-0.2-0.2c0-0.1,0-0.2,0.1-0.2c0.1,0,0.2-0.2,0.2-0.4
			c0-0.2,0.1-0.6,0.1-0.9c0-0.4,0-0.6,0-0.6c0-0.1,0-0.5,0.1-1.1c0-0.6,0-1.2,0.1-1.7c0-0.5,0.1-0.8,0.2-0.9c0.1-0.1,0.2-0.2,0-0.2
			c-0.1-0.1-0.2-0.1-0.2-0.2c0-0.1,0.1-0.3,0.3-0.4c0.2-0.1,0.4-0.2,0.6-0.2c0.1,0,0.2,0,0.2,0c0,0,0.1,0,0.2,0
			c0.3,0,0.4-0.1,0.4-0.3c0-0.1,0-0.1-0.1-0.2c-0.1-0.1-0.1-0.2,0-0.2c0.1,0,0.1-0.1,0.1-0.2C152.2,783.1,151.8,783,151.1,783z"/>
		<path d="M170,790.2c-0.1,0-0.3,0.2-0.5,0.5c-0.3,0.4-0.4,0.6-0.4,0.7c0,0.1-0.1,0.2-0.4,0.2c-0.2,0-0.3,0.1-0.3,0.1
			c0,0,0,0.1,0,0.3v0.2c0,0.2-0.1,0.3-0.4,0.3c0,0-0.1,0-0.2,0c-0.1,0-0.1,0-0.2,0c-0.2,0-0.4,0.1-0.7,0.4c-0.2,0.2-0.4,0.3-0.6,0.3
			c-0.1,0-0.2-0.1-0.2-0.2c-0.1-0.1-0.2-0.1-0.4,0c-0.2,0.1-0.6,0.2-1.2,0.2c-0.5,0-0.7,0-0.7-0.1c0-0.1-0.1-0.1-0.2-0.1
			c-0.1,0-0.1-0.1-0.2-0.2c-0.1-0.2-0.1-0.3-0.1-0.5c0,0,0-0.6,0.1-1.8c0-1.2,0.1-1.8,0.1-1.8c0-0.1,0.5-0.1,1.4-0.1
			c0.8,0,1.3,0.1,1.5,0.2c0.3,0.1,0.4,0.4,0.4,0.8c0,0.2,0,0.3,0.1,0.3c0,0,0.1,0,0.2,0c0.2-0.1,0.4-0.1,0.6-0.1h0.1
			c0.2,0,0.3-0.2,0.3-0.6c0-0.1,0-0.2,0-0.3c0-0.2,0-0.3,0-0.4v-0.3c0-0.4,0-0.6,0.1-0.6c0.1-0.1,0.1-0.3,0-0.4
			c-0.1-0.1-0.1-0.3,0.1-0.4c0.2-0.1,0.2-0.2,0.2-0.4c0-0.3-0.4-0.4-1.1-0.4c-0.4,0-0.6,0.2-0.6,0.5c0,0.1,0,0.2,0.1,0.3
			c0.1,0.2,0,0.3-0.1,0.5c-0.1,0.1-0.4,0.2-0.9,0.3c-0.6,0.1-1.1,0.2-1.6,0.2h-0.6V787c0-0.4,0.1-0.6,0.2-0.6c0.1,0,0.2-0.1,0.2-0.4
			c0-0.3-0.1-0.6-0.2-0.9c-0.1-0.2-0.2-0.4-0.2-0.4c0-0.1,0.1-0.1,0.2-0.3c0.2-0.2,0.3-0.3,0.2-0.5c0,0,0-0.1,0-0.2
			c0-0.2,0.1-0.3,0.4-0.4c0.3-0.1,0.8-0.1,1.5-0.2c0.6,0,1-0.1,1.1-0.1c0.4,0,0.6,0.1,0.7,0.2c0.2,0.2,0.3,0.3,0.5,0.4
			c0.2,0.1,0.3,0.2,0.3,0.3c0,0.1,0.1,0.2,0.4,0.4c0.2,0.1,0.4,0.3,0.4,0.3c0,0.2,0.1,0.3,0.3,0.5c0.2,0.2,0.4,0.3,0.6,0.3h0.1
			c0.3,0,0.4-0.2,0.4-0.7c0-0.2-0.1-0.4-0.2-0.5c-0.1-0.2-0.2-0.4-0.2-0.6c0-0.3-0.1-0.5-0.2-0.5c-0.1-0.1-0.1-0.2,0-0.4
			c0.1-0.1,0.1-0.2,0.1-0.3c0-0.1-0.1-0.1-0.2-0.2s-0.2-0.2-0.2-0.3c0-0.1-0.1-0.3-0.3-0.5c-0.1-0.1-0.2-0.2-0.3-0.2
			c-0.1,0-0.2,0-0.3,0.1c-0.2,0.1-1.9,0.3-5,0.4H163c-1.5,0-2.3-0.1-2.4-0.3c0-0.1-0.1-0.1-0.3-0.1c-0.1,0-0.2,0-0.2,0.1
			c0,0.1-0.1,0.2-0.1,0.3c0,0.2,0,0.3,0,0.3c0,0.2-0.1,0.3-0.3,0.4c-0.2,0-0.3,0.2-0.2,0.5c0.1,0.2,0.1,0.4,0.2,0.5
			c0.1,0.1,0.2,0.1,0.3,0.1s0.3,0,0.4,0c0.1,0,0.1,0,0.2,0c0.1,0,0.1,0,0.2,0c0.4,0,0.6,0.1,0.7,0.4c0.1,0.2,0.1,0.8,0.1,1.5
			c0,0.9-0.1,1.4-0.2,1.5c-0.1,0-0.1,0.2,0,0.4c0.1,0.3,0.1,0.5,0,0.7c-0.1,0.2-0.2,0.3-0.3,0.3c-0.1,0-0.1,0.1,0.1,0.2
			c0.1,0.1,0.1,0.3,0.1,0.6c0,0.3-0.1,1.3-0.2,3l-0.1,1h-0.6c-0.4,0-0.6,0.1-0.7,0.3c-0.1,0.2-0.2,0.3-0.3,0.3
			c-0.2,0-0.2,0.1-0.2,0.4c0,0.3,0.1,0.5,0.3,0.6c0.2,0.1,0.3,0.3,0.3,0.4c0,0.1,0.1,0.2,0.3,0.2s0.5,0,0.8-0.1s0.5-0.2,0.6-0.2
			c0.2-0.1,0.6-0.2,1.2-0.2c0.1,0,0.6,0,1.5,0.1c0.8,0,1.2,0.1,1.2,0.2c0.1,0.1,0.2,0.1,0.4,0c0.3-0.1,0.8-0.2,1.6-0.2
			c0.9,0,1.4,0,1.6-0.1c0.2,0,0.3-0.1,0.5-0.2c0.2-0.2,0.3-0.4,0.2-0.6c-0.1-0.2,0-0.4,0.2-0.4c0.1-0.1,0.2-0.4,0.2-0.8
			c0-0.3,0-0.5,0.1-0.6c0-0.1,0.1-0.1,0.2-0.1c0.2,0,0.3-0.2,0.3-0.5c0-0.3-0.1-0.5-0.2-0.7C170.3,790.3,170.1,790.2,170,790.2z"/>
		<path d="M159.5,792c0.1-0.2,0.1-0.3-0.1-0.3c-0.1,0-0.2,0.1-0.2,0.2c0,0.1,0,0.2,0.1,0.2C159.3,792.2,159.4,792.1,159.5,792z"/>
		<path d="M177.8,792c0.1-0.2,0.1-0.3,0-0.3c-0.1,0-0.2,0.1-0.2,0.2c0,0.1,0,0.2,0.1,0.2C177.7,792.1,177.7,792.1,177.8,792z"/>
		<path d="M187.8,790.2c-0.1,0-0.3,0.2-0.5,0.5c-0.3,0.3-0.4,0.6-0.4,0.7c0,0.1-0.1,0.2-0.4,0.2c-0.1,0-0.2,0-0.3,0.1
			c0,0-0.1,0.1-0.1,0.1c0,0,0,0.1,0,0.3c0,0.2-0.1,0.3-0.4,0.3c0,0-0.1,0-0.1,0c-0.1,0-0.1,0-0.2,0c-0.2,0-0.4,0.1-0.6,0.3
			c-0.2,0.2-0.4,0.3-0.6,0.3c-0.1,0-0.2-0.1-0.2-0.2c0-0.1-0.1-0.1-0.4,0c-0.2,0.1-0.6,0.2-1.2,0.2c-0.5,0-0.7,0-0.7-0.1
			c0-0.1-0.1-0.1-0.2-0.1c-0.1,0-0.1-0.1-0.2-0.2c-0.1-0.2-0.1-0.3-0.1-0.4c0-0.1,0-0.2,0-0.3c0-0.2,0-0.4,0-0.6c0-0.3,0-0.5,0-0.8
			c0-0.3,0-0.5,0-0.8c0-0.3,0-0.5,0-0.6v-0.2c0-0.1,0.4-0.1,1.3-0.1c0.7,0,1.2,0.1,1.4,0.2c0.2,0.1,0.4,0.4,0.4,0.8
			c0,0.2,0,0.3,0.1,0.3c0,0,0.1,0,0.2,0c0.1-0.1,0.3-0.1,0.5-0.1c0.1,0,0.2,0,0.3-0.1c0-0.1,0.1-0.2,0.1-0.5c0-0.1,0-0.2,0-0.3
			c0-0.2,0-0.3,0-0.4v-0.2c0-0.3,0-0.6,0.1-0.7c0.1-0.1,0.1-0.3,0-0.4c-0.1-0.1-0.1-0.3,0.1-0.4c0.1-0.1,0.2-0.2,0.2-0.4
			c0-0.3-0.3-0.4-1-0.4c-0.4,0-0.6,0.2-0.6,0.5c0,0.1,0,0.2,0.1,0.3c0,0.2,0,0.4,0,0.5c-0.1,0.1-0.3,0.2-0.9,0.3
			c-0.5,0.1-1,0.1-1.5,0.1h-0.6v-0.6c0-0.4,0.1-0.6,0.2-0.6c0.1,0,0.2-0.1,0.2-0.4c0-0.3-0.1-0.5-0.2-0.9c-0.1-0.2-0.2-0.4-0.1-0.4
			c0-0.1,0.1-0.1,0.2-0.3c0.2-0.1,0.3-0.3,0.2-0.5c0,0,0-0.1,0-0.2c0-0.1,0.1-0.3,0.4-0.3c0.3-0.1,0.7-0.1,1.5-0.2
			c0.7,0,1.1-0.1,1.1-0.1c0.3,0,0.5,0.1,0.6,0.2c0.1,0.2,0.3,0.3,0.5,0.4c0.2,0.1,0.3,0.2,0.3,0.3c0,0.1,0.1,0.2,0.3,0.3
			c0.2,0.1,0.3,0.2,0.3,0.3c0,0.2,0.1,0.3,0.3,0.5s0.4,0.2,0.6,0.2h0c0.3,0,0.4-0.2,0.4-0.6c0-0.2-0.1-0.3-0.2-0.5
			c-0.1-0.1-0.2-0.3-0.2-0.5c0-0.3-0.1-0.5-0.2-0.5c-0.1,0-0.1-0.1,0-0.4c0.1-0.1,0.1-0.2,0.1-0.3c0,0-0.1-0.1-0.1-0.1
			c-0.1-0.1-0.2-0.2-0.2-0.3c0-0.1-0.1-0.3-0.3-0.5c-0.2-0.2-0.4-0.3-0.6-0.1c-0.3,0.1-1.8,0.3-4.7,0.4h-0.7c-1.5,0-2.2-0.1-2.3-0.3
			c0-0.1-0.1-0.1-0.2-0.1c-0.1,0-0.2,0-0.2,0.1l0,0.1c0,0.1,0,0.1,0,0.1c0,0,0,0.1,0,0.2c0,0.1,0,0.2,0,0.2c0,0.2-0.1,0.3-0.3,0.3
			c-0.2,0.1-0.3,0.2-0.2,0.5c0.1,0.2,0.1,0.4,0.2,0.5c0.1,0.1,0.2,0.1,0.3,0.1c0.1,0,0.3,0,0.4,0c0.1,0,0.2,0,0.4,0
			c0.3,0,0.5,0.1,0.6,0.4c0.1,0.2,0.1,0.7,0.1,1.4c0,0.9-0.1,1.4-0.2,1.4c-0.1,0-0.1,0.2,0,0.4c0.1,0.2,0.1,0.4,0,0.6
			c-0.1,0.2-0.2,0.3-0.3,0.3c-0.1,0-0.1,0.1,0.1,0.2c0.1,0.1,0.1,0.3,0.1,0.6c0,0.5-0.1,1.5-0.2,2.8l-0.1,0.9h-0.6
			c-0.4,0-0.6,0.1-0.6,0.3c0,0.2-0.1,0.3-0.3,0.3c-0.1,0-0.2,0.1-0.2,0.3c0,0.3,0.1,0.5,0.3,0.6c0.2,0.1,0.3,0.2,0.3,0.4
			c0,0.1,0.2,0.1,0.7,0.1c0.5,0,0.8-0.1,0.9-0.3c0.1-0.1,0.5-0.2,1.2-0.2c0.5,0,0.9,0,1.3,0c0.7,0,1.1,0.1,1.2,0.2
			c0,0.1,0.2,0.1,0.4,0c0.2-0.1,0.7-0.2,1.5-0.2c0.8,0,1.3,0,1.5-0.1c0.2,0,0.3-0.1,0.5-0.3c0.2-0.2,0.3-0.3,0.2-0.5
			c0-0.2,0-0.3,0.1-0.4c0.1-0.1,0.2-0.3,0.2-0.8c0-0.3,0-0.5,0-0.6c0-0.1,0.1-0.1,0.2-0.1c0.2,0,0.3-0.2,0.3-0.5
			c0-0.2-0.1-0.4-0.2-0.6C188.1,790.3,188,790.2,187.8,790.2z"/>
		<path d="M208.4,782c-0.1,0-0.2,0-0.3,0.1c-0.2,0.1-0.3,0.1-0.3,0.1c-0.1,0-0.1-0.1-0.2-0.2c-0.1-0.2-0.3-0.3-0.4-0.3
			c-0.1,0-0.2-0.1-0.2-0.3c0-0.2-0.1-0.3-0.3-0.3c-0.2,0-0.3,0.1-0.3,0.3c0,0.2,0.1,0.3,0.2,0.3c0.1,0,0.2,0.1,0.2,0.3
			c0,0.2-0.1,0.3-0.2,0.3c-0.2,0-0.3-0.1-0.3-0.4c-0.1-0.2-0.2-0.4-0.3-0.4c-0.1,0-0.1,0-0.2,0.1c-0.2,0.2-0.2,0.3,0,0.3
			c0.1,0,0.2,0.1,0.2,0.1c0,0.1-0.1,0.2-0.4,0.2c-0.2,0-0.4,0-0.4-0.1s-0.1-0.1-0.4-0.1c-0.4,0-0.8,0.1-1.1,0.2
			c-0.4,0.2-0.6,0.4-0.6,0.7c0,0.3,0.3,0.5,0.8,0.6c0.4,0.1,0.6,0.1,0.6,0.2c0,0.1,0.1,0.1,0.3,0.1c0.3,0,0.5,0.2,0.6,0.6
			c0.1,0.4,0.2,1.2,0.2,2.4c0,1.4,0.1,2.2,0.1,2.4c0.1,0.1,0,0.3,0,0.6l-0.1,0.4l-0.5-0.5c-0.4-0.3-0.5-0.5-0.5-0.6
			c0-0.1-0.1-0.2-0.2-0.3c-0.1-0.1-0.3-0.2-0.4-0.4c-0.2-0.1-0.3-0.2-0.3-0.2c-0.1-0.1-0.3-0.2-0.3-0.2c-0.1,0-0.2-0.1-0.2-0.2
			c0-0.1-0.1-0.2-0.2-0.3c-0.1-0.1-0.3-0.2-0.4-0.2s-0.1-0.1-0.1-0.2c0-0.1-0.1-0.2-0.2-0.2c-0.1,0-0.1,0-0.1-0.1
			c0-0.1-0.1-0.2-0.4-0.5c-0.2-0.3-0.4-0.4-0.4-0.5c0-0.1-0.1-0.2-0.3-0.2c-0.2,0-0.3-0.1-0.5-0.2c-0.2-0.1-0.2-0.3-0.2-0.4
			c0-0.1-0.2-0.3-0.5-0.7c-0.3-0.4-0.5-0.6-0.5-0.7c0-0.1-0.1-0.2-0.3-0.4c-0.2-0.2-0.3-0.4-0.3-0.4c0-0.3-0.6-0.5-1.8-0.6
			c-0.6,0-0.9-0.1-0.9-0.1c-0.3,0-0.4,0.1-0.4,0.2c0,0.1,0,0.2,0,0.4c0,0.2,0,0.4,0.1,0.6c0.1,0.2,0.1,0.3,0.2,0.3
			c0.1,0,0.2,0.2,0.3,0.6c0.1,0.4,0.2,0.6,0.2,0.6c0.1,0,0.1,0.3,0.1,0.8c0,0.5,0,0.8-0.1,0.8c-0.1,0-0.1,0.1-0.1,0.4
			c0,0.2,0.1,0.6,0.2,1c0.1,0.2,0.1,0.6,0.1,1.1c0,0.7-0.1,1.1-0.2,1.1c-0.1,0-0.1,0.2-0.1,0.7c0,0.5,0,1.1-0.1,1.5
			c0,0.4-0.1,0.6-0.1,0.7c-0.1,0.1-0.2,0.2-0.4,0.2c-0.3,0.1-0.4,0.2-0.4,0.4c0,0.2,0.1,0.4,0.4,0.6c0.2,0.2,0.3,0.3,0.5,0.3
			s0.8,0,1.7,0c1,0,1.6,0,1.8-0.1c0.2-0.1,0.3-0.3,0.3-0.8c0-0.3-0.1-0.4-0.3-0.5c-0.2-0.1-0.3-0.1-0.3-0.2c0-0.1-0.2-0.1-0.6-0.1
			c-0.4,0-0.7-0.1-0.9-0.3c-0.2-0.2-0.2-0.3-0.1-0.4c0.1-0.1,0.2-0.2,0.2-0.6c0-0.3,0-0.5-0.1-0.5c-0.1-0.1-0.1-0.9-0.1-2.6
			c0-1.7,0.1-2.5,0.2-2.5c0.1,0,0.3,0.1,0.4,0.2c0.1,0.1,0.3,0.2,0.5,0.3c0.3,0.1,0.4,0.3,0.5,0.4c0,0.2,0.3,0.5,0.8,1.1
			c0.5,0.5,0.9,0.9,1.3,1.1c0.2,0.1,0.3,0.2,0.3,0.3c0,0.1,0.2,0.2,0.5,0.6c0.7,0.7,1.1,1.1,1.1,1.4c0,0.1,0.1,0.1,0.3,0.1
			c0.2,0,0.3,0,0.3,0.1c0,0.1,0.1,0.3,0.4,0.5c0.2,0.2,0.4,0.4,0.4,0.6c0,0.1,0.1,0.3,0.3,0.5c0.2,0.2,0.3,0.3,0.4,0.3
			c0.1,0,0.3,0.2,0.6,0.5c0.3,0.3,0.5,0.5,0.7,0.6c0.1,0.1,0.2,0.1,0.3,0.1c0.4,0,0.6-0.2,0.6-0.6c0-0.1,0-0.2,0-0.4
			c0-0.9-0.1-1.4-0.2-1.6c-0.1-0.1-0.1-0.5-0.1-1.3v-0.4c0-1,0-1.6-0.1-1.6c-0.1-0.1-0.2-0.4-0.2-1c0-0.5,0-0.8,0.1-0.8
			c0.1-0.1,0.2-0.2,0.2-0.5c0-0.3,0-0.4,0.1-0.4c0.1,0,0.1-0.1,0.1-0.4s0-0.4-0.1-0.4c-0.1,0-0.1-0.1-0.1-0.4c0-0.4,0.1-0.7,0.2-1
			c0.2-0.3,0.4-0.5,0.7-0.5c0.2,0,0.4-0.1,0.4-0.1s0.1-0.2,0.1-0.5v-0.2C208.7,782.3,208.6,782,208.4,782z"/>
		<path d="M240.1,785.7c-0.2-0.1-0.2-0.2-0.2-0.5c0-0.3,0-0.5-0.1-0.5c-0.1,0-0.1-0.1-0.1-0.4s-0.1-0.4-0.2-0.4
			c-0.1,0-0.2-0.1-0.3-0.3c-0.1-0.2-0.2-0.3-0.3-0.4c-0.1-0.1-0.2-0.2-0.2-0.4c0-0.2-0.1-0.3-0.4-0.3c-0.7,0-1-0.1-1-0.4
			c0-0.1-0.1-0.2-0.2-0.2c-0.1,0-0.2,0-0.2-0.1s-0.1-0.1-0.3-0.1c-0.2,0-0.3-0.1-0.4-0.2c0-0.1-0.5-0.2-1.5-0.2
			c-0.9,0-1.5,0.1-1.6,0.2c-0.1,0.1-0.2,0.2-0.4,0.2c-0.2,0-0.3,0.1-0.4,0.3c-0.1,0.2-0.3,0.4-0.6,0.4c-0.3,0-0.6,0.1-1.1,0.2
			c-0.5,0.1-0.7,0.3-0.8,0.5c0,0.2-0.2,0.4-0.5,0.7s-0.4,0.5-0.4,0.5c0,0.1-0.1,0.1-0.2,0.1c-0.1,0-0.2,0.1-0.3,0.4
			c-0.1,0.2-0.2,0.5-0.3,0.7c-0.2,0.3-0.2,0.8-0.2,1.8c0,1.2,0.1,2.1,0.4,2.9c0.5,1.4,0.9,2.2,1.2,2.3c0.2,0,0.3,0.1,0.3,0.3
			c0,0.2,0.2,0.2,0.4,0.2c0.2,0,0.4,0,0.4,0.1c0,0.1,0.1,0.1,0.3,0.1c0.2,0,0.3,0.1,0.3,0.4c0,0.2,0,0.3,0.1,0.4
			c0.1,0.1,0.2,0,0.4-0.1c0.1-0.1,0.2-0.1,0.3,0c0.2,0.1,0.9,0.2,2.2,0.2c1.1,0,1.7-0.1,1.7-0.2c0-0.1,0.3-0.2,0.7-0.2
			c0.4,0,0.6-0.1,0.6-0.2c0-0.2,0.1-0.3,0.2-0.3c0,0,0.2-0.1,0.4-0.3c0.3-0.2,0.4-0.3,0.5-0.3c0.1,0,0.2-0.1,0.2-0.3
			c0.1-0.2,0.2-0.3,0.3-0.3c0.1,0,0.2-0.1,0.3-0.3c0-0.2,0.2-0.3,0.4-0.3c0.2-0.1,0.3-0.1,0.3-0.2c0-0.1,0.1-0.1,0.2-0.1
			c0.1,0,0.2-0.2,0.2-0.6c0-0.3,0-0.5-0.1-0.5c-0.1,0-0.1-0.1,0-0.2c0.1-0.1,0.2-0.8,0.2-2.1c0-0.3,0-0.7,0-1.1
			C240.3,786,240.2,785.7,240.1,785.7z M237.9,788.8c-0.1,0-0.2,0.2-0.2,0.4c0,0.3-0.1,0.4-0.2,0.5c-0.1,0.1-0.2,0.4-0.3,0.8
			c-0.1,0.4-0.1,0.6-0.3,0.6c-0.1,0-0.2,0-0.2,0.1c0,0.1-0.1,0.2-0.4,0.2c-0.3,0.1-0.4,0.2-0.4,0.3c0,0.1,0,0.2-0.1,0.2
			c-0.1,0.1-0.2,0.1-0.4,0.2c-0.1,0.1-0.2,0.1-0.3,0.1c0,0.1-0.2,0.1-0.4,0.1c-0.2,0-0.3,0.1-0.5,0.2c-0.1,0.1-0.2,0.1-0.4,0.1
			c-0.2,0-0.4,0-0.7-0.1c-0.5-0.1-1-0.3-1.3-0.6c-0.3-0.3-0.7-0.8-1-1.5c-0.3-0.5-0.4-0.9-0.5-1.1c0-0.2-0.1-0.7-0.1-1.4
			c0-0.7,0-1.1,0.1-1.4c0-0.2,0.1-0.5,0.3-0.8c0.3-0.5,0.6-0.9,1-1.3c0.4-0.4,0.8-0.6,1-0.7c0.3,0,0.5-0.1,0.5-0.3
			c0-0.1,0.1-0.2,0.2-0.2c0.1,0,0.2,0,0.2-0.1c0-0.1,0.1-0.1,0.3-0.1c0.2,0,0.3,0,0.3,0.1c0,0.1,0.3,0.1,0.9,0.1
			c0.5,0,0.8,0.1,0.8,0.2c0,0.1,0.1,0.2,0.3,0.3c0.2,0.1,0.3,0.2,0.3,0.3c0,0.1,0.1,0.2,0.3,0.3c0.3,0.1,0.5,0.4,0.5,0.8
			c0,0.2,0.1,0.5,0.3,0.8c0.2,0.3,0.3,0.7,0.3,1.1c0,0.5,0,0.7,0.1,0.8c0.1,0.1,0.1,0.2,0.1,0.4C238.1,788.6,238,788.7,237.9,788.8z
			"/>
		<path d="M257.9,783.9c0-0.3-0.1-0.5-0.2-0.6c-0.1-0.1-0.1-0.2,0-0.4c0.1-0.1,0.1-0.2,0.1-0.2c0-0.1-0.1-0.2-0.2-0.2
			c-0.1-0.1-0.2-0.2-0.2-0.3c0-0.2-0.1-0.3-0.3-0.5c-0.2-0.2-0.4-0.3-0.5-0.3c-0.1,0-0.2,0-0.2,0.1c0,0.1-0.3,0.1-0.9,0.2
			c-0.5,0.1-1.1,0.1-1.7,0.1c-0.6,0-0.9,0-1,0.1c-0.1,0-0.5,0.1-1.4,0.1c-0.9,0.1-1.8,0.2-2.7,0.3c-0.9,0.1-1.4,0.2-1.4,0.2
			c0,0,0,0.1,0,0.2c0,0.1,0,0.2,0.1,0.3c0.1,0.2,0.1,0.3,0.2,0.4s0.3,0.1,0.6,0.1c0.5,0,0.9,0.1,1,0.3c0.1,0.2,0.2,0.7,0.2,1.6
			c0,0.9-0.1,1.4-0.2,1.5c-0.1,0.1-0.1,0.2,0,0.4c0.1,0.3,0.2,0.5,0,0.7c-0.1,0.2-0.2,0.3-0.3,0.3c-0.1,0,0,0.1,0.1,0.2
			c0.1,0.1,0.1,0.3,0.1,0.6c0,0.1,0,0.4-0.1,0.8c-0.1,1.4-0.2,2.3-0.2,2.6c-0.1,0.4-0.1,0.5-0.3,0.6c-0.2,0.1-0.5,0.3-0.8,0.6
			l-0.5,0.6h5v-0.5c0-0.2,0-0.4-0.1-0.4c0-0.1-0.1-0.1-0.3-0.1c-0.2,0-0.4,0-0.4-0.1s-0.1-0.1-0.2-0.1s-0.2-0.1-0.3-0.3
			c0-0.1,0-0.4,0-1.2c0-1.2,0-2.1,0.1-2.8c0-0.1,0.5-0.1,1.4-0.1c0.8,0,1.3,0.1,1.5,0.2c0.3,0.1,0.4,0.4,0.4,0.9
			c0,0.3,0,0.5,0.1,0.5c0.1,0,0.1-0.1,0.3-0.2c0.1-0.1,0.3-0.2,0.5-0.1c0.2,0.1,0.3,0,0.3-0.2c0-0.2,0-0.3,0.1-0.4
			c0.1-0.1,0.1-0.2,0-0.2c-0.1-0.1-0.2-0.3-0.2-0.6c0-0.4,0.1-0.7,0.2-0.8c0.1-0.1,0.1-0.1,0.1-0.2c0-0.1,0-0.1-0.1-0.2
			c-0.1-0.1-0.1-0.2-0.1-0.2c0-0.1,0-0.1,0.1-0.2c0.2-0.1,0.2-0.2,0.2-0.4c0-0.3-0.4-0.4-1.1-0.4c-0.4,0-0.6,0.2-0.6,0.5
			c0,0.1,0,0.2,0.1,0.3c0.1,0.2,0,0.4,0,0.5c-0.1,0.1-0.4,0.2-1,0.3c-0.6,0.1-1.1,0.2-1.6,0.2H251v-0.6c0-0.4,0.1-0.6,0.2-0.7
			c0.1-0.1,0.2-0.2,0.2-0.4c0-0.3-0.1-0.5-0.2-0.8c-0.1-0.2-0.2-0.4-0.2-0.4c0-0.1,0.1-0.1,0.2-0.3c0.2-0.2,0.3-0.4,0.2-0.6
			c0-0.1,0-0.1,0-0.2c0-0.1,0.1-0.2,0.4-0.3c0.3-0.1,0.8-0.1,1.6-0.1c0.7,0,1.1-0.1,1.1-0.1c0.3,0,0.5,0.1,0.7,0.2
			c0.2,0.2,0.3,0.3,0.5,0.4c0.2,0.1,0.3,0.2,0.3,0.3c0,0.1,0.1,0.3,0.3,0.4c0.2,0.1,0.4,0.3,0.5,0.6c0.1,0.4,0.4,0.5,0.8,0.5
			c0.1,0,0.2,0,0.3-0.1c0.1-0.1,0.2-0.2,0.2-0.6c0-0.3-0.1-0.5-0.2-0.5C257.9,784.4,257.9,784.2,257.9,783.9z"/>
		<path d="M280.4,789.7c0-0.1,0-0.2-0.1-0.2c-0.1,0-0.1,0-0.1,0.1l0.1,0.2C280.4,789.9,280.4,789.9,280.4,789.7z"/>
		<path d="M286.3,790.5c0-0.6-0.1-0.9-0.2-1.1c-0.1-0.2-0.3-0.4-0.6-0.5c-0.3-0.1-0.5-0.3-0.5-0.4c-0.1-0.1-0.3-0.3-0.9-0.6
			c-0.5-0.3-1-0.5-1.3-0.6c-0.2-0.1-0.5-0.2-0.9-0.5c-0.4-0.3-0.6-0.4-0.6-0.5c0-0.1-0.1-0.2-0.2-0.3c-0.2-0.1-0.2-0.2-0.2-0.3
			c0,0,0-0.1,0-0.1c0.1-0.1,0.1-0.2,0.1-0.3s0-0.3-0.1-0.6c0-0.1,0-0.2,0-0.2c0,0,0.2-0.1,0.3-0.1c0.3,0,0.4-0.1,0.4-0.2
			c0-0.1,0.1-0.2,0.4-0.4c0.3-0.2,0.4-0.3,0.4-0.3c0-0.1,0.1-0.1,0.4-0.2c0.1,0,0.1,0,0.2,0c0.4,0,0.8,0.2,1.2,0.5
			c0.5,0.3,0.7,0.6,0.7,0.9c0,0.2,0.1,0.4,0.3,0.5c0.2,0.1,0.3,0.3,0.3,0.4c0,0.1,0.1,0.3,0.2,0.5s0.3,0.3,0.4,0.3c0,0,0,0,0.1,0
			c0.1-0.1,0.1-0.7,0.2-2v-0.8c0-0.6-0.1-0.9-0.2-0.9c-0.1,0-0.1,0-0.1,0c-0.3,0.1-0.6,0.2-0.8,0.2c-0.3,0-0.6-0.1-1-0.3
			c-0.4-0.2-0.6-0.3-0.7-0.3c0,0-0.1,0-0.2,0.1c-0.3,0.1-0.6,0.1-0.8,0.1c-0.3,0-0.4,0-0.5,0.1c0,0.1-0.1,0.2-0.3,0.2
			c-0.2,0-0.4-0.1-0.5-0.2c-0.1-0.1-0.3-0.2-0.5-0.2h0c-0.1,0-0.1,0-0.1,0c-0.1,0-0.1,0-0.1,0c0,0,0.1,0,0.1,0
			c0.1,0.1,0.2,0.1,0.2,0.2c0,0.2-0.2,0.3-0.5,0.4c-0.3,0.1-0.4,0.2-0.4,0.4c0.1,0.2,0,0.3-0.2,0.4c-0.3,0.1-0.6,0.5-1.1,1.1
			c-0.1,0.2-0.2,0.4-0.2,0.6c0,0,0,0.3,0.1,0.8c0.1,0.7,0.3,1.1,0.4,1.3c0.1,0.2,0.4,0.4,0.7,0.7c0.4,0.3,0.6,0.4,0.8,0.4
			c0.1,0,0.3,0.1,0.6,0.4c0.4,0.3,0.9,0.6,1.7,0.8c0.5,0.1,0.8,0.3,1.1,0.6c0.2,0.2,0.3,0.4,0.5,0.7c0.1,0.3,0.2,0.5,0.2,0.7
			c0,0.1,0,0.1-0.1,0.2c-0.1,0-0.1,0.2-0.1,0.4c0.1,0.2,0,0.4-0.2,0.6c-0.1,0.1-0.2,0.3-0.2,0.4c0,0.2-0.5,0.4-1.4,0.5
			c-0.1,0-0.3,0-0.6,0c-0.9,0-1.7-0.4-2.2-1.2c-0.3-0.4-0.5-0.8-0.5-1c0,0,0-0.1,0-0.2c0-0.1,0-0.2,0-0.2c0,0-0.1-0.1-0.1-0.1
			c-0.1,0-0.1,0-0.1-0.1c0.1-0.3-0.1-0.5-0.4-0.6c-0.1,0-0.2-0.1-0.3-0.1c-0.3,0-0.4,0.2-0.5,0.5c-0.1,1.2-0.1,1.9-0.2,1.9
			c-0.1,0.1-0.1,0.4-0.2,0.8c0,0.1,0,0.3,0,0.4c0,0.2,0.1,0.4,0.3,0.6c0.1,0.1,0.2,0.2,0.3,0.2c0,0,0.1,0,0.2-0.2
			c0.1-0.2,0.2-0.3,0.2-0.4c0-0.3,0.2-0.3,0.5-0.1c0.9,0.5,1.8,0.7,2.9,0.7c0.5,0,1.1-0.1,1.6-0.2c0.6-0.1,1.1-0.3,1.4-0.6
			c0.3-0.3,0.5-0.5,0.5-0.5c0-0.1,0.1-0.2,0.2-0.3c0.2-0.1,0.3-0.4,0.3-0.9c0.1-0.5,0.1-0.7,0.2-0.7c0.1,0,0.1,0,0-0.1
			C286.4,791.5,286.3,791.2,286.3,790.5z M281.9,788.9C281.9,788.9,281.8,788.9,281.9,788.9c-0.1-0.1-0.1-0.1,0-0.1
			S282,788.8,281.9,788.9C282,788.9,282,788.9,281.9,788.9z"/>
		<path d="M309.1,782.4c-0.1,0-0.3,0-0.5,0c-0.2,0-0.4,0-0.4,0c-0.4,0-0.6,0-0.7,0.1c-0.1,0-0.3,0.1-0.4,0.3
			c-0.2,0.2-0.3,0.3-0.3,0.4c0,0.1,0,0.1,0.2,0.2c0.3,0.2,0.5,0.2,0.7,0.2c0.3,0,0.4,0.1,0.5,0.3c0.1,0.2,0,0.3-0.1,0.4
			c-0.1,0-0.2,0.2-0.2,0.6c0,0.4-0.1,0.6-0.2,0.6c-0.2,0.1-0.2,0.2-0.2,0.4v0.4c0,0.6-0.1,0.9-0.3,0.9c-0.1,0-0.2,0.1-0.3,0.3
			s-0.1,0.7-0.3,1.5c-0.1,0.4-0.2,0.6-0.4,0.6c-0.1,0-0.2,0.1-0.2,0.2c0,0.1,0,0.2-0.2,0.2c-0.3,0-0.4-0.1-0.5-0.2
			c-0.1-0.2-0.2-0.5-0.3-0.9c-0.1-0.4-0.2-1-0.2-1.7c-0.1-0.5-0.2-0.8-0.3-0.9c-0.1-0.1-0.1-0.4-0.1-0.7c0-0.3,0-0.5-0.1-0.5
			c-0.1,0-0.1-0.1-0.1-0.4c0-0.2-0.1-0.4-0.2-0.5c-0.1-0.1-0.2-0.1-0.2-0.2c0-0.1,0.2-0.2,0.6-0.2c0.4,0,0.7-0.1,0.9-0.3
			c0.1-0.1,0.2-0.2,0.2-0.3c0-0.1,0-0.2-0.1-0.4c-0.1-0.2-0.3-0.4-0.6-0.5c-0.3-0.1-0.8-0.1-1.6-0.1c-0.6,0-1-0.1-1-0.3
			c-0.1-0.2-0.1-0.3-0.2-0.3c-0.1,0-0.2,0.1-0.5,0.3c-0.3,0.2-0.4,0.3-0.5,0.3c-0.3,0-0.5,0.2-0.6,0.6v0.1l0,0.1
			c0,0.3,0.3,0.6,0.9,0.7c0.1,0,0.3,0.1,0.4,0.1c0.1,0.1,0.1,0.2,0.1,0.2s-0.1,0.1-0.2,0.1c-0.1,0-0.1,0.2-0.1,0.6
			c0,0.4-0.1,0.6-0.2,0.6c-0.1,0-0.1,0.2-0.1,0.5c0,0.7-0.2,1.1-0.5,1.2c-0.1,0-0.2,0.1-0.3,0.3c-0.1,0.2-0.1,0.7-0.3,1.5
			c-0.1,0.4-0.2,0.6-0.4,0.6c-0.2,0-0.2,0.1-0.2,0.2c0,0.1,0,0.2-0.2,0.2c-0.3,0-0.5-0.1-0.6-0.2c-0.1-0.2-0.2-0.5-0.2-0.9
			c0-0.6-0.1-0.9-0.2-1c-0.1-0.1-0.1-0.3-0.1-0.6c0-0.4-0.1-0.7-0.2-0.9c-0.1-0.3-0.2-0.5-0.1-0.8c0-0.3,0-0.5-0.1-0.5
			c-0.1,0-0.2-0.1-0.2-0.4c0-0.2-0.1-0.4-0.2-0.5c-0.1-0.1-0.2-0.1-0.2-0.2c0-0.1,0.2-0.2,0.6-0.2c0.4,0,0.7-0.1,0.9-0.3
			c0.1-0.1,0.2-0.2,0.2-0.3c0-0.1-0.1-0.2-0.2-0.4c-0.1-0.2-0.2-0.3-0.4-0.4c-0.2-0.1-0.5-0.1-0.9-0.1c-0.1,0-0.2,0-0.4,0
			c-0.2,0-0.4,0-0.5,0h-0.4c-0.3,0-0.4,0-0.5-0.1c-0.1,0-0.1-0.1-0.2-0.3c-0.1-0.2-0.1-0.4-0.3-0.4c-0.1,0-0.2,0.1-0.5,0.3
			c-0.2,0.2-0.4,0.3-0.5,0.3c-0.1,0-0.3,0.1-0.4,0.2c-0.1,0.1-0.2,0.3-0.2,0.4c0,0.4,0.3,0.7,0.9,0.8c0.5,0.1,0.9,0.6,1,1.6
			c0.1,0.4,0.2,0.6,0.3,0.8c0.1,0.1,0.2,0.4,0.2,0.7c0,0.3,0.1,0.5,0.2,0.6c0.4,0.4,0.5,1.1,0.5,1.9c0,0.4,0,0.6,0.1,0.7
			c0.1,0.1,0.1,0.2,0.1,0.4c0,0.2,0,0.3,0.1,0.4c0.1,0.1,0.2,0.3,0.2,0.8c0,0.4,0.1,0.6,0.2,0.6c0.1,0,0.2,0.2,0.2,0.5
			c0,0.3,0.1,0.5,0.2,0.5c0.1,0,0.2,0.1,0.3,0.4c0.1,0.3,0.3,0.5,0.6,0.5c0.1,0,0.3-0.1,0.4-0.2c0.1-0.1,0.2-0.3,0.2-0.4
			c0-0.3,0-0.4,0.1-0.4c0.1,0,0.2-0.1,0.2-0.4c0-0.3,0-0.5,0.1-0.5c0.1,0,0.2-0.2,0.2-0.5c0-0.3,0.1-0.6,0.3-0.9
			c0.2-0.3,0.4-0.5,0.6-0.6c0.2-0.1,0.3-0.3,0.3-0.6c0-0.4,0.1-0.6,0.2-0.6c0.1,0,0.2-0.2,0.2-0.5c0-0.3,0.1-0.6,0.2-0.8
			c0.1-0.2,0.2-0.4,0.1-0.5c-0.1-0.2,0.1-0.3,0.4-0.4c0.3-0.1,0.4-0.2,0.5-0.3c0.1,0,0.1,0.1,0.1,0.4c0,0.4,0.1,0.6,0.2,0.8
			c0.4,0.5,0.6,1.1,0.6,1.9c0,0.4,0,0.6,0.1,0.6c0.1,0,0.1,0.1,0.1,0.4c-0.1,0.2,0,0.4,0.1,0.5c0.1,0.1,0.2,0.3,0.2,0.8
			c0,0.4,0.1,0.6,0.2,0.6c0.2,0,0.2,0.2,0.2,0.5c0,0.3,0.1,0.5,0.2,0.5c0.1,0,0.2,0.1,0.3,0.4c0.1,0.3,0.3,0.5,0.6,0.5
			c0.1,0,0.3-0.1,0.4-0.2c0.1-0.1,0.2-0.3,0.2-0.4c0-0.3,0.1-0.4,0.2-0.4c0.1,0,0.1-0.1,0.1-0.4c0-0.3,0-0.5,0.1-0.5
			c0.1,0,0.2-0.2,0.2-0.5c0-0.3,0.1-0.6,0.3-1c0.2-0.4,0.4-0.6,0.5-0.6c0.1,0,0.2-0.2,0.2-0.6c0-0.5,0.1-0.7,0.2-0.7
			c0.1,0,0.2-0.2,0.2-0.5s0.1-0.6,0.2-0.8c0.1-0.2,0.2-0.4,0.2-0.6c0-0.1,0.1-0.2,0.4-0.3c0.3-0.1,0.4-0.2,0.4-0.3
			c0-0.1,0-0.1,0-0.2c0-0.1,0-0.1,0-0.2c0-0.6,0.1-0.9,0.3-0.9c0.1,0,0.1-0.1,0.2-0.4c0-0.3,0.1-0.4,0.2-0.4c0.1,0,0.2-0.1,0.2-0.2
			c0-0.1,0.1-0.2,0.4-0.2c0.3,0,0.5-0.1,0.6-0.2c0.1-0.1,0.2-0.3,0.2-0.6l0-0.4L309.1,782.4z"/>
		<path d="M330.1,785.7c-0.2-0.1-0.2-0.2-0.2-0.5c0-0.3,0-0.5-0.1-0.5c-0.1,0-0.1-0.1-0.1-0.4s-0.1-0.4-0.2-0.4
			c-0.1,0-0.2-0.1-0.3-0.3c-0.1-0.2-0.2-0.3-0.3-0.4c-0.1-0.1-0.2-0.2-0.2-0.4c0-0.2-0.1-0.3-0.4-0.3c-0.7,0-1-0.1-1-0.4
			c0-0.1-0.1-0.2-0.2-0.2c-0.1,0-0.2,0-0.2-0.1s-0.1-0.1-0.3-0.1c-0.2,0-0.3-0.1-0.4-0.2c0-0.1-0.5-0.2-1.5-0.2
			c-0.9,0-1.5,0.1-1.6,0.2c-0.1,0.1-0.2,0.2-0.4,0.2c-0.2,0-0.3,0.1-0.4,0.3c-0.1,0.2-0.3,0.4-0.6,0.4c-0.3,0-0.6,0.1-1.1,0.2
			c-0.5,0.1-0.7,0.3-0.8,0.5c0,0.2-0.2,0.4-0.5,0.7c-0.3,0.3-0.4,0.5-0.4,0.5c0,0.1-0.1,0.1-0.2,0.1c-0.1,0-0.2,0.1-0.3,0.4
			c-0.1,0.2-0.2,0.5-0.3,0.7c-0.2,0.3-0.2,0.8-0.2,1.8c0,1.2,0.1,2.1,0.4,2.9c0.5,1.4,0.9,2.2,1.2,2.3c0.2,0,0.3,0.1,0.3,0.3
			c0,0.2,0.2,0.2,0.4,0.2c0.2,0,0.4,0,0.4,0.1c0,0.1,0.1,0.1,0.3,0.1c0.2,0,0.3,0.1,0.3,0.4c0,0.2,0,0.3,0.1,0.4
			c0.1,0.1,0.2,0,0.4-0.1c0.1-0.1,0.2-0.1,0.3,0c0.2,0.1,0.9,0.2,2.2,0.2c1.1,0,1.7-0.1,1.7-0.2c0-0.1,0.3-0.2,0.7-0.2
			c0.4,0,0.6-0.1,0.6-0.2c0-0.2,0.1-0.3,0.2-0.3c0,0,0.2-0.1,0.4-0.3c0.3-0.2,0.4-0.3,0.5-0.3c0.1,0,0.2-0.1,0.2-0.3
			c0.1-0.2,0.2-0.3,0.3-0.3c0.1,0,0.2-0.1,0.3-0.3c0-0.2,0.2-0.3,0.4-0.3c0.2-0.1,0.3-0.1,0.3-0.2c0-0.1,0.1-0.1,0.2-0.1
			c0.1,0,0.2-0.2,0.2-0.6c0-0.3,0-0.5-0.1-0.5c-0.1,0-0.1-0.1,0-0.2c0.1-0.1,0.2-0.8,0.2-2.1c0-0.3,0-0.7,0-1.1
			C330.3,786,330.2,785.7,330.1,785.7z M327.9,788.8c-0.1,0-0.2,0.2-0.2,0.4c0,0.3-0.1,0.4-0.2,0.5c-0.1,0.1-0.2,0.4-0.3,0.8
			c-0.1,0.4-0.1,0.6-0.3,0.6c-0.1,0-0.2,0-0.2,0.1c0,0.1-0.1,0.2-0.4,0.2c-0.3,0.1-0.4,0.2-0.4,0.3c0,0.1,0,0.2-0.1,0.2
			c-0.1,0.1-0.2,0.1-0.4,0.2c-0.1,0.1-0.2,0.1-0.3,0.1c0,0.1-0.2,0.1-0.4,0.1c-0.2,0-0.3,0.1-0.5,0.2c-0.1,0.1-0.2,0.1-0.4,0.1
			c-0.2,0-0.4,0-0.7-0.1c-0.5-0.1-1-0.3-1.3-0.6c-0.3-0.3-0.7-0.8-1-1.5c-0.3-0.5-0.4-0.9-0.5-1.1c0-0.2-0.1-0.7-0.1-1.4
			c0-0.7,0-1.1,0.1-1.4c0-0.2,0.1-0.5,0.3-0.8c0.3-0.5,0.6-0.9,1-1.3c0.4-0.4,0.8-0.6,1-0.7c0.3,0,0.5-0.1,0.5-0.3
			c0-0.1,0.1-0.2,0.2-0.2c0.1,0,0.2,0,0.2-0.1c0-0.1,0.1-0.1,0.3-0.1c0.2,0,0.3,0,0.3,0.1c0,0.1,0.3,0.1,0.9,0.1
			c0.5,0,0.8,0.1,0.8,0.2c0,0.1,0.1,0.2,0.3,0.3c0.2,0.1,0.3,0.2,0.3,0.3c0,0.1,0.1,0.2,0.3,0.3c0.3,0.1,0.5,0.4,0.5,0.8
			c0,0.2,0.1,0.5,0.3,0.8c0.2,0.3,0.3,0.7,0.3,1.1c0,0.5,0,0.7,0.1,0.8c0.1,0.1,0.1,0.2,0.1,0.4C328.1,788.6,328,788.7,327.9,788.8z
			"/>
		<path d="M350.6,792.7c-0.1,0-0.2-0.1-0.3-0.4c-0.1-0.2-0.3-0.4-0.5-0.4c-0.2,0-0.4-0.1-0.6-0.2c-0.2-0.1-0.4-0.2-0.4-0.4
			c-0.1-0.1-0.1-0.2-0.3-0.2c-0.1,0-0.3-0.1-0.6-0.4c-0.2-0.3-0.4-0.6-0.6-0.9c-0.1-0.3-0.4-0.6-0.8-1.1c-0.4-0.5-0.7-0.7-0.8-0.7
			c-0.1,0-0.2-0.1-0.4-0.3c-0.1-0.1-0.2-0.2-0.1-0.3c0,0,0.1-0.1,0.3-0.2c0.8-0.3,1.2-0.6,1.2-0.9c0-0.5,0.1-0.7,0.3-0.7
			c0.1,0,0.2-0.1,0.4-0.2c0.2-0.2,0.2-0.7,0.2-1.5c0-1-0.1-1.5-0.3-1.7c-0.1-0.1-0.2-0.2-0.4-0.2c-0.1,0-0.2,0-0.2-0.1
			c0-0.1-0.1-0.2-0.4-0.3c-0.3-0.1-0.4-0.3-0.5-0.5l-0.2-0.3c-0.1-0.1-0.2-0.1-0.2,0.1c0,0.1-0.3,0.1-0.8,0.1c-0.6,0-0.9,0-0.9-0.1
			c0-0.1-0.1-0.1-0.4-0.1s-0.5-0.1-0.6-0.3c-0.2-0.2-0.3-0.3-0.4-0.3c-0.1,0-0.2,0.1-0.1,0.3c0,0,0,0,0,0.1v0.1
			c0,0.1-0.6,0.2-1.8,0.2h-1.9l-0.5,0.5c-0.3,0.3-0.5,0.6-0.5,0.7c0,0.1,0.2,0.2,0.5,0.3c0.3,0.1,0.5,0.1,0.5,0.2
			c0,0.1,0,0.1,0.1,0.1c0.2,0,0.4,0.2,0.6,0.5c0.2,0.3,0.3,0.7,0.3,1.2c0,0.4,0.1,0.6,0.1,0.6c0,0.2-0.1,0.4-0.2,0.5
			c-0.2,0.1-0.2,0.2-0.1,0.3c0.1,0.1,0.2,0.3,0.2,0.7c0,0.3-0.1,0.5-0.2,0.5c-0.1,0-0.2,0,0,0.1c0.1,0.1,0.2,0.2,0.2,0.4
			c0,0.2-0.1,0.4-0.2,0.5c-0.1,0.1-0.1,0.3,0.1,0.4c0.1,0.1,0.2,0.3,0.2,0.4c0,0.1-0.1,0.3-0.2,0.4c-0.2,0.2-0.3,0.7-0.3,1.6
			c0,0.7,0,1.1-0.1,1.2c0,0.1-0.1,0.2-0.3,0.3c-0.2,0.1-0.3,0.1-0.3,0.2c0,0.1-0.3,0.1-0.8,0.1c-0.4,0-0.6,0.1-0.7,0.1
			c-0.1,0.1-0.1,0.2-0.1,0.5c0,0.2,0.2,0.5,0.6,0.8c0.2,0.1,0.3,0.2,0.5,0.2c0.2,0,0.3-0.1,0.3-0.2c0.1-0.1,0.8-0.2,2.1-0.2
			c1.3,0,2.1-0.1,2.2-0.3c0.1-0.1,0.2-0.2,0.3-0.2c0.1,0,0.2-0.1,0.2-0.2c0-0.1-0.1-0.2-0.4-0.2c-0.3,0-0.4-0.1-0.5-0.3
			c0-0.2-0.2-0.3-0.5-0.4c-0.4-0.1-0.5-0.2-0.5-0.4c0-0.1,0-0.2,0.1-0.3c0.2-0.2,0.2-0.3,0.1-0.4c-0.1,0-0.2-0.6-0.2-1.6
			c0-0.3,0-0.6,0-1c0-0.3,0-0.4,0.1-0.5c0-0.1,0.1-0.1,0.2-0.1c0.5,0,1,0.2,1.5,0.5c0.5,0.4,0.8,0.7,0.8,1c0,0.2,0.1,0.3,0.2,0.3
			s0.2,0.1,0.2,0.4c0,0.5,0.3,0.8,0.8,1c0.2,0.1,0.4,0.3,0.5,0.7c0.1,0.4,0.3,0.8,0.7,1.2l0.6,0.7l0.9-0.1c0.1,0,0.3,0,0.6-0.1
			c0.3,0,0.6,0,0.8-0.1c0.2,0,0.4-0.1,0.7-0.1c0.3-0.1,0.4-0.1,0.6-0.2c0.1-0.1,0.2-0.2,0.2-0.3
			C350.7,792.8,350.7,792.7,350.6,792.7z M344.9,785.9c-0.1,0-0.2,0-0.2,0.1c-0.1,0-0.1,0,0,0.1c0.2,0,0.2,0.1,0.2,0.2
			c0,0.1-0.1,0.3-0.4,0.4c-0.2,0.2-0.5,0.3-0.7,0.3c-0.3,0-0.6,0.1-1.1,0.2c-0.1,0-0.2,0-0.3,0c-0.2,0-0.4-0.1-0.7-0.3
			c-0.2-0.2-0.3-0.3-0.4-0.3c0-0.1,0-0.1,0.1-0.2c0.1-0.1,0.2-0.7,0.2-1.6v-1.2c0-0.3,0.1-0.5,0.2-0.7c0.1-0.2,0.3-0.4,0.4-0.4h0.1
			l0.4,0.1c0.3,0,0.5,0.1,0.8,0.1c0.2,0.1,0.4,0.1,0.4,0.1c0,0.1,0.1,0.1,0.4,0.2c0.3,0.1,0.4,0.2,0.4,0.3c0,0.1,0.1,0.3,0.2,0.4
			c0.1,0.1,0.2,0.2,0.1,0.3c-0.1,0.1-0.1,0.3,0.1,0.6c0.1,0.2,0.2,0.5,0.2,0.8v0.1c0,0.2-0.1,0.4-0.1,0.4S345.1,785.9,344.9,785.9z"
			/>
		<path d="M338.7,779.4c0,0.1,0.1,0.2,0.3,0.2c0.2,0,0.3-0.1,0.3-0.2c0-0.1-0.1-0.1-0.3-0.1C338.8,779.2,338.7,779.3,338.7,779.4z"
			/>
		<path d="M343.2,780.4c0.1,0.1,0.3,0.1,0.4,0c0,0,0,0,0.1,0c0.1-0.1,0.1-0.1,0.1-0.1c0,0-0.1,0-0.3,0
			C343.3,780.2,343.2,780.3,343.2,780.4z"/>
		<path d="M369.9,785.5c0-0.2-0.1-0.3-0.2-0.5c-0.2-0.2-0.3-0.3-0.4-0.3c-0.1,0-0.2-0.1-0.2-0.2c0-0.1-0.1-0.3-0.3-0.6
			c-0.2-0.2-0.3-0.3-0.4-0.3c-0.1,0-0.2-0.1-0.2-0.2c0-0.1-0.1-0.2-0.3-0.3c-0.2-0.1-0.3-0.1-0.3-0.2c0-0.1-0.1-0.1-0.4-0.1
			c-0.2,0-0.3-0.1-0.6-0.2c-0.2-0.1-0.4-0.2-0.5-0.2c-0.2,0-0.3,0-0.3-0.1s-0.1-0.1-0.4-0.1c-0.2,0-0.3,0-0.4-0.1
			c-0.1-0.1-0.2-0.1-0.2-0.1c-0.1,0-0.2,0-0.4,0.1c-0.3,0.1-0.6,0.2-1,0.2c-0.2,0-0.4,0-0.4-0.1c-0.1,0-0.1-0.1-0.1-0.2
			c0-0.2-0.1-0.3-0.2-0.3c-0.1,0-0.2,0-0.3,0.2c-0.1,0.1-0.1,0.1-0.2,0c-0.2-0.3-0.3-0.2-0.4,0.1c-0.1,0.2-0.2,0.3-0.4,0.2
			c-0.2-0.1-0.5-0.2-1-0.2c-0.4,0-0.7-0.1-0.8-0.2c0-0.1-0.1-0.1-0.3,0.1c-0.2,0.1-0.3,0.1-0.3,0c-0.1-0.1-0.2-0.2-0.5-0.2
			c-0.2,0-0.4,0-0.4,0.1s-0.1,0.1-0.3,0.1c-0.1,0-0.2,0-0.2,0.1c0,0.1-0.1,0.3-0.1,0.5c0,0.3,0,0.5,0.1,0.6c0,0.1,0.2,0.2,0.3,0.3
			c0.2,0.1,0.3,0.1,0.4,0.1c0,0,0.1,0,0.1,0c0.1,0,0.1,0,0.1,0c0.1,0,0.2,0,0.3,0.1c0.2,0.1,0.4,0.4,0.4,0.8c0,0.4,0,0.6-0.1,0.6
			c-0.1,0-0.1,0.3-0.1,0.9c0,0.6,0,0.8,0.1,0.8c0.1,0,0.1,0.1,0.1,0.4c0,0.2,0,0.4-0.1,0.5c-0.1,0.1-0.1,1-0.2,2.8l-0.1,2.7l-0.5,0
			c-0.4,0-0.6,0.2-0.8,0.4c-0.2,0.2-0.3,0.4-0.3,0.5c0,0.1,0.1,0.2,0.4,0.4c0.3,0.2,0.5,0.2,0.7,0.2c0.1,0,0.2,0,0.2-0.1
			c0-0.1,0.3-0.1,0.8-0.1c0.5,0,0.8,0,0.8,0.1c0,0.1,0.9,0.2,2.6,0.2c1.1,0,1.7,0,1.8-0.1c0.1-0.1,0.4-0.2,0.7-0.2
			c0.4-0.1,0.8-0.2,1.3-0.5c0.5-0.2,0.8-0.4,1-0.4c0.2,0,0.3-0.1,0.4-0.4c0.1-0.3,0.3-0.6,0.7-1.1c0.4-0.4,0.6-0.7,0.6-0.8
			c0-0.1,0-0.2,0.1-0.2c0.1,0,0.1-0.1,0.1-0.3c0-0.2,0.1-0.4,0.2-0.5c0.1-0.1,0.1-0.8,0.1-2c0-1.4-0.1-2.1-0.2-2.2
			C369.9,785.8,369.9,785.7,369.9,785.5z M367.8,789.7c-0.1,0.1-0.2,0.2-0.2,0.5c0,0.3-0.1,0.5-0.2,0.6c-0.3,0.3-0.5,0.6-0.6,1
			c-0.1,0.2-0.1,0.2-0.2,0.2c-0.1,0-0.3,0.2-0.7,0.5c-0.4,0.3-0.7,0.5-0.9,0.5c-0.2,0-0.3,0.1-0.4,0.2c-0.1,0.1-0.1,0.1-0.2,0
			c-0.1-0.1-0.1-0.2-0.3-0.2c-0.1,0-0.2,0.1-0.3,0.2c0,0.1-0.3,0.1-0.9,0.1c-0.6,0-1.1,0-1.6,0c-0.2,0-0.2-0.1-0.2-0.4
			c0-0.2-0.1-0.4-0.2-0.4s-0.2,0-0.2-0.1c0-0.1,0.1-0.1,0.2-0.2c0.1-0.1,0.2-0.2,0.2-0.3c0-0.1,0.1-0.2,0.2-0.2
			c0.1,0,0.1-0.1,0.2-0.4c0.1-0.2,0.1-0.5,0.1-0.8c0-0.1,0-0.3-0.1-0.5c0,0,0,0,0-0.1c0,0,0-0.1,0-0.1c0-0.2,0.1-0.4,0.2-0.6
			l0.2-0.4c0,0-0.1-0.1-0.2-0.1c-0.1,0-0.2-0.3-0.2-0.8c0-0.5,0-1,0-1.5c0-1.4,0.1-2.2,0.1-2.4c0-0.3,0.1-0.5,0.4-0.8
			c0.2-0.2,0.4-0.3,0.6-0.3c0.1,0,0.2,0,0.3,0c0.1,0,0.3,0,0.7,0.1c0.4,0,0.7,0.1,1,0.1c0.3,0.1,0.4,0.1,0.5,0.2
			c0.1,0.1,0.2,0.2,0.4,0.2c0.2,0,0.4,0.1,0.4,0.3c0.1,0.2,0.2,0.3,0.3,0.3c0.2,0,0.2,0,0.2,0.1s0.1,0.2,0.3,0.2
			c0.2,0.1,0.3,0.2,0.3,0.3c0,0.1,0.1,0.3,0.2,0.4c0.1,0.1,0.2,0.4,0.3,0.9c0,0.4,0.1,0.7,0.2,0.8c0.1,0.1,0.1,0.5,0.1,1.3
			S367.9,789.7,367.8,789.7z"/>
		<path d="M379.7,788.7c0-0.1,0-0.2-0.1-0.2c-0.1,0-0.1,0-0.1,0.1l0.1,0.2C379.7,789,379.7,788.9,379.7,788.7z"/>
		<path d="M385.6,789.5c0-0.6-0.1-0.9-0.2-1.1c-0.1-0.2-0.3-0.4-0.6-0.5c-0.3-0.1-0.5-0.3-0.5-0.4c-0.1-0.1-0.3-0.3-0.9-0.6
			c-0.5-0.3-1-0.5-1.3-0.6c-0.2-0.1-0.5-0.2-0.9-0.5c-0.4-0.3-0.6-0.4-0.6-0.5c0-0.1-0.1-0.2-0.2-0.3c-0.2-0.1-0.2-0.2-0.2-0.3
			c0,0,0-0.1,0-0.1c0.1-0.1,0.1-0.2,0.1-0.3c0-0.1,0-0.3-0.1-0.6c0-0.1,0-0.2,0-0.2c0,0,0.2-0.1,0.3-0.1c0.3,0,0.4-0.1,0.4-0.2
			c0-0.1,0.1-0.2,0.4-0.4c0.3-0.2,0.4-0.3,0.4-0.3c0-0.1,0.1-0.1,0.4-0.2c0.1,0,0.1,0,0.2,0c0.4,0,0.8,0.2,1.2,0.5
			c0.5,0.3,0.7,0.6,0.7,0.9c0,0.2,0.1,0.4,0.3,0.5c0.2,0.1,0.3,0.3,0.3,0.4s0.1,0.3,0.2,0.5c0.2,0.2,0.3,0.3,0.4,0.3c0,0,0,0,0.1,0
			c0.1-0.1,0.1-0.7,0.2-2v-0.8c0-0.6-0.1-0.9-0.2-0.9c-0.1,0-0.1,0-0.1,0c-0.3,0.1-0.6,0.2-0.8,0.2c-0.3,0-0.6-0.1-1-0.3
			c-0.4-0.2-0.6-0.3-0.7-0.3c0,0-0.1,0-0.2,0.1c-0.3,0.1-0.6,0.1-0.8,0.1c-0.3,0-0.4,0-0.5,0.1c0,0.1-0.1,0.2-0.3,0.2
			c-0.2,0-0.4-0.1-0.5-0.2c-0.1-0.1-0.3-0.2-0.5-0.2h0c-0.1,0-0.1,0-0.1,0c-0.1,0-0.1,0-0.1,0c0,0,0.1,0,0.1,0
			c0.1,0.1,0.2,0.1,0.2,0.2c0,0.2-0.2,0.3-0.5,0.4c-0.3,0.1-0.4,0.2-0.4,0.4c0.1,0.2,0,0.3-0.2,0.4c-0.3,0.1-0.6,0.5-1.1,1.1
			c-0.1,0.2-0.2,0.4-0.2,0.6c0,0,0,0.3,0.1,0.8c0.1,0.7,0.3,1.1,0.4,1.3c0.1,0.2,0.4,0.4,0.7,0.7c0.4,0.3,0.6,0.4,0.8,0.4
			c0.1,0,0.3,0.1,0.6,0.4c0.4,0.3,0.9,0.6,1.7,0.8c0.5,0.1,0.8,0.3,1.1,0.6c0.2,0.2,0.3,0.4,0.5,0.7c0.1,0.3,0.2,0.5,0.2,0.7
			c0,0.1,0,0.1-0.1,0.2c-0.1,0-0.1,0.2-0.1,0.4c0.1,0.2,0,0.4-0.2,0.6c-0.1,0.1-0.2,0.3-0.2,0.4c0,0.2-0.5,0.4-1.4,0.5
			c-0.1,0-0.3,0-0.6,0c-0.9,0-1.7-0.4-2.2-1.2c-0.3-0.4-0.5-0.8-0.5-1c0,0,0-0.1,0-0.2c0-0.1,0-0.2,0-0.2c0,0-0.1-0.1-0.1-0.1
			c-0.1,0-0.1,0-0.1-0.1c0.1-0.3-0.1-0.5-0.4-0.6c-0.1,0-0.2-0.1-0.3-0.1c-0.3,0-0.4,0.2-0.5,0.5c-0.1,1.2-0.1,1.9-0.2,1.9
			c-0.1,0.1-0.1,0.4-0.2,0.8c0,0.1,0,0.3,0,0.4c0,0.2,0.1,0.4,0.3,0.6c0.1,0.1,0.2,0.2,0.3,0.2c0,0,0.1,0,0.2-0.2
			c0.1-0.2,0.2-0.3,0.2-0.4c0-0.3,0.2-0.3,0.5-0.1c0.9,0.5,1.8,0.7,2.9,0.7c0.5,0,1.1-0.1,1.6-0.2c0.6-0.1,1.1-0.3,1.4-0.6
			c0.3-0.3,0.5-0.5,0.5-0.5c0-0.1,0.1-0.2,0.2-0.3c0.2-0.1,0.3-0.4,0.3-0.9c0.1-0.5,0.1-0.7,0.2-0.7c0.1,0,0.1,0,0-0.1
			C385.7,790.6,385.6,790.2,385.6,789.5z M381.2,788C381.2,788,381.1,787.9,381.2,788c-0.1-0.1-0.1-0.1,0-0.1S381.3,787.9,381.2,788
			C381.3,787.9,381.3,788,381.2,788z"/>
		<polygon points="51.7,807.5 44,812.7 41.2,798.7 38.4,812.7 30.7,807.5 35.9,815.3 21.8,818 35.9,820.8 30.7,828.5 38.4,823.3 
			41.2,837.4 43.9,823.4 51.7,828.5 46.5,820.8 60.5,818 46.5,815.3 		"/>
		<polygon points="468.1,815.3 473.3,807.5 465.5,812.7 462.8,798.7 460,812.7 452.3,807.5 457.5,815.3 443.4,818 457.5,820.8 
			452.3,828.5 460,823.3 462.8,837.4 465.5,823.4 473.3,828.5 468.1,820.8 482.1,818 		"/>
		<polygon points="30.7,56.3 38.4,51.1 41.2,65.1 44,51.1 51.7,56.3 46.5,48.5 60.5,45.8 46.5,43 51.7,35.3 43.9,40.4 41.2,26.4 
			38.4,40.5 30.7,35.3 35.9,43 21.8,45.8 35.9,48.5 		"/>
		<polygon points="473.3,35.3 465.5,40.4 462.8,26.4 460,40.5 452.3,35.3 457.5,43 443.4,45.8 457.5,48.5 452.3,56.3 460,51.1 
			462.8,65.1 465.5,51.1 473.3,56.3 468.1,48.5 482.1,45.8 468.1,43 		"/>
		<path d="M297,718.5c0.5-4.3-0.3-8.7,0.2-13c0.6-4.5,2.3-8.8,3-13.2c0.9-5.8,0-11.9-2.4-17.3c-1.7-3.8-7.2-8.4-7.2-12.6
			c0.1-6.2,5.3-12.1,9.5-16.1c0.1-0.1,0.1-0.1,0.2-0.2c1.5-1.1,2.9-2.4,4.2-3.7c1.1-1.1,3-4,4.6-7.1l-1.9-0.5
			c-0.5,1-1.1,2.1-1.9,3.4c-1.9,3.2-6,6.9-10,9.1c-0.5-0.6-1-1.1-1.6-1.6c-0.8-0.7-1.8-1.3-2.8-1.3c-0.7,0-1.3,0.2-1.9,0.4
			c-2.1,0.7-4.2,1.4-6.2,2.1c1.9,0.9,3.9,1.8,6.1,2c2,0.2,4.1-0.3,6.1-1.3c-3.6,1.8-6.6,4.4-9.3,7.4c-0.8-0.9-3.8,0-4.8,0
			c-1.6,0-3.3-0.1-4.9-0.3c-1.3-0.2-2.5-0.6-3.8-0.8c-1.3-0.3-2.6-0.3-3.9-0.9c-2.2-1-5-1.9-6.8-3.6c-1.7-1.6-4.3-2.8-5.6-4.6
			c-1.1-1.6-2.7-2.9-4.1-4.2c-1.3-1.2-2.5-2.3-4-3.2c-4.4-2.8-8.4-1.3-13.2-1.5c-5.8-0.3-11.6-0.1-17.2,1.3c3.3,1.9,5,5.6,7.9,8
			c0.5,1.7,6,3.1,7.5,3.8c3,1.3,6.7,1.7,9.9,2.4c0.9,0.2,1.8,0.4,2.7,0.4c0.9,0,1.7-0.3,2.5-0.6c1.5-0.5,2.9-1.3,4.4-1.6
			c1.2-0.2,2.2-0.2,3.4-0.6c0.3-0.1,0.5-0.2,0.8-0.1c0.2,0,0.4,0.2,0.6,0.3c1.9,1.4,4.2,3.1,6.4,4c2.4,1.1,4.8,2,7.4,2.7
			c0.5,0.1,0.9,0.3,1.4,0.4c-0.6,0.1-1.2,0.2-1.9,0.3c-1.4,0-2.8-0.1-4.1-0.1c-3.2-0.1-6.4,0.4-9.6,1c-4.1,0.8-7.4,2.3-10.1,5.3
			c-2.3,2.4-6.7,6.2-8.9,8.7c1.7-0.3,6.2-0.6,7.9-0.2c2.3,0.5,4.4,0.5,6.7,0c4.1-0.9,7.6-2.6,10.7-5.2c3.9-3.2,4.6-6.1,7.6-7.9
			c1.6-1,3.8-1.4,5.7-1.4c1.7,0,3.4,0.1,5,0c1.1-0.1,2.2-0.3,3.4-0.6c0.1,0,0.2,0,0.3-0.1c-3.8,4.4-6.9,9.6-9.9,14.3
			c-0.1,0-0.2,0-0.3,0.1c-3.5,1.7-7.3,2.9-11.1,3.6c-3.1,0.6-6.3,0.1-9.3,0.9c-4.1,1.1-8.1,2.6-12.2,3.7c-3.2,0.9-6.8,0.6-10.1,0.4
			c-3-0.2-6.3-0.5-9-2.1c-0.5-0.8-1.1-1.6-1.8-2.4c-7.2-8.7-13.7-19.8-25.4-22.8c-3.1-0.8-6.3-0.9-9.4-1.1c-6.5-0.4-13-1-19.3-2.6
			c3.1,2.8,5.9,5.9,8.3,9.3c1.6,2.3,3,4.7,4.8,6.9c3.6,4.3,10.8,9.9,16.6,10.7c2.6,0.3,5.3-0.2,8,0.1c3.4,0.4,6.8,0.9,10.2,1.6
			c4,0.8,4.3,1.3,6,1.8c0.1,0.1,0.2,0.2,0.3,0.3c3.5,2.4,7.9,3,12.4,3c-2.3,0.5-4.6,1-6.9,1.4c-3.4,0.7-6.9,1.3-10.3,1.6
			c-1.9-1.8-9.4-2-11.3-2.2c-4.1-0.4-8.2-0.5-12.1-1.7c-5.9-1.8-11.6-5.5-16.1-9.7c-2.6-2.5-5.3-4.9-8.4-6.6
			c-0.2-0.1-0.4-0.2-0.6-0.3c-3.4-1.8-7.1-3-10.8-3.7c-0.4-0.1-0.8-0.1-1.2-0.2c0.3-3.5-1.8-7.3-3.6-10.1c-1-1.5-2.1-3-3.4-4.4
			c-0.4-0.4-3-2.1-3.1-2.4c0.9,3.8,0,8.2,2.4,11.5c1,1.4,2,2.8,3.3,3.8c0.7,0.6,1.6,1,2.4,1.4c-0.8-0.1-1.7-0.1-2.5-0.1
			c-0.1,0-0.2-0.1-0.3-0.1c-6.6-0.8-14.3-3-18.4-8.6c-0.4-2.3-3.1-3.3-3.5-5.9c-0.1-0.5-0.1-0.9-0.1-1.4c0-0.3,0-0.6,0.1-0.9
			c0.8-2.3-0.6-5.6-1.3-8c-0.9-2.9-2.1-5.6-4-8c-3-3.9-5.9-7.2-9.9-10c-6.4-4.4-14.3-4.7-21.4-7.1c3.7,4.4,5.6,10,7.7,15.3
			c1.8,4.5,4.1,9.1,7.7,12.4c3.8,3.4,7.8,6.6,12.4,8.7c1.9,0.9,4.1,0.7,5.8,1.6c1.5,0.8,2.6,2.4,4,3.4c0,0,0,0,0,0
			c1.4,2.1,3.3,3.7,5.3,5.2c1,0.7,1.8,1.6,2.8,2.2c1.2,0.6,2.4,1.1,3.6,1.5c1.4,0.4,2.6,1,4.1,1.1c1.9,0.2,3.8,0.1,5.7,0.2
			c2.8,0.2,5.5,0.7,8.1,1.5c3.9,1.1,7.6,2.9,10.9,5.4c-5.2-0.7-10.6-1.7-15.7-0.8c-4.6,0.8-12.8,5.1-17.2,3.8
			c-3.5-1-4.9-3.7-9.7-5.9c-3.8-1.8-7.8-2.6-12.2-2.4c-2.4,0.1-4.6,0.7-6.7,1.8c-1.6,0.8-6.2,1.7-8,1.9c2.9,1.9,8.4,4.5,11.3,6.3
			c3.6,2.3,7.3,2.9,11.6,2.6c3.4-0.3,6.8-0.6,10-1.5c1.3-0.4,2.7-0.8,4.1-1.2c6.5-0.4,12.7-2.7,19.1-3.6c3.2-0.5,6.4-0.3,9.6,0.1
			c-3.9,0.8-7.7,2.4-10.4,5.4c0,0,0,0,0,0c-1.6,0.9-1.5,1.2-4.7,2.8c-2.9,1.4-4.9,1.6-8.1,1.7c-4.6,0.2-9.6,0.5-13.4,3.1
			c-2.4,1.7-4.2,4.3-5.7,6.7c-1.1,1.8-2.8,4.2-2.9,6.3c0,0.7,0.2,5.4-0.4,5.7c6-2.4,12.6-3.4,18.6-6c5.9-2.6,10.9-6.9,14.5-12.1
			c1.1-1.6,2.1-3.3,3-5.1c0.4-0.9,0.8-1.8,1.1-2.7c3.8-3.8,9.8-4.8,15-4.8c1.9,1.8,3.8,3.6,5.9,5.2c5.5,4.1,19.3,7.9,19.6,7.8
			c1.5-0.5,5.4,0.9,7,1.2c0.2,0,0.4,0.1,0.7,0.1c-2.4,0.1-4.9,0.2-7.3,0.7c-1.4-0.1-2.9-0.2-4.3-0.2c-4-0.2-8.1,0.4-12.1,1.1
			c-5.2,0.9-9.3,2.7-12.9,6.4c-2.9,3-8.6,7.7-11.4,10.7c2.2-0.3,7.8-0.6,9.9-0.1c2.8,0.7,5.5,0.7,8.4,0.2c5.2-1,9.7-3.1,13.6-6.3
			c4.8-3.8,5.8-7.2,9.2-9.4c3.6-0.7,7.3-0.7,11-0.8c3.5-0.1,6.9-0.5,10.3-1c-5.9,3.2-11.3,9.8-10.7,16.3c4.3-1.8,6.8-3.7,9.6-7.3
			c2-2.7,2.8-6.8,4.6-9.6c3.9-0.7,7.7-1.4,11.5-2.4c4.1-1.1,8-2.8,12.1-4.3c1-0.3,4.6-1,6.7-1.7c0.9-0.1,1.9-0.2,2.8-0.3
			c5.2-0.7,10.2-1.5,15-3.4c-1.2,1.7-2.5,3.4-3.9,5c-4,2.1-7.8,1-14.1,3.2c-8.3,2.9-14,8.7-19.3,15.4c-3.1,3.9-6.3,7.8-9.6,11.7
			c-2.8,3.3-5.6,7.8-9,10.6c6.5-5.2,16-3.1,24.1-5.2c4.8-1.3,9-4,13.2-6.7c3.1-2.1,6.4-4.2,8.5-7.3c2-2.9,3-6.3,4-9.7
			c0.8-2.9,1.2-6.6,2.7-9.2c1.3-2.3,3.6-4.2,5.2-6.4c3.5-4.9,6.3-10.2,10-15c2.5-3.2,5.5-5.9,8.7-8.3c-3.9,2.9-4.1,8.2-4.1,12.6
			c0,2,0.4,4.4-0.2,6.3c-1,2.8-3.2,5.5-4.2,8.5c-0.6,2-1.3,4-1.9,6c-0.5,1.4-0.9,2.9-1.1,4.4c-0.2,2.3,0.4,4.7,1.5,6.7
			c0.5,0.9,1.1,1.8,1.9,2.5c2.5,2.1,3.8,4.9,5.5,7.6c1.3,2.1,1.9,4.6,3.3,6.8C294.6,714.8,296.5,716.2,297,718.5z"/>
		<path d="M314.2,182.8c2.6,1.2,5.3,1.8,8.1,2c2.3,0.1,5.6,0.7,7.5-0.5c0.3-0.2,0.6-0.2,0.8-0.3c0.4-0.1,0.8-0.2,1.3-0.2
			c2.4-0.2,3.9,2,6.1,1.9c6,2.6,9.5,9.1,11.6,14.9c0,0.1,0.1,0.2,0.1,0.2c0.2,0.8,0.4,1.5,0.6,2.3c-0.5-0.7-1.1-1.4-1.8-1.9
			c-1.2-1-2.7-1.6-4.2-2.2c-3.5-1.5-7.3,0.2-11,0.2c0.3,0,2.4,2.1,2.8,2.3c1.5,0.9,3.1,1.6,4.7,2.1c2.9,1.1,6.9,2.2,10,1.1
			c0.1,0.3,0.3,0.7,0.4,1c1.4,3.3,3.3,6.4,5.6,9.1c0.1,0.2,0.3,0.3,0.4,0.5c2.3,2.5,5,4.4,7.8,6.3c4.8,3.2,9.3,7.6,12.2,12.7
			c1.9,3.3,2.9,7,4.1,10.6c0.6,1.7,2.4,8.5,4.4,9.8c0.4,3.2,0.5,6.5,0.7,9.8c0.1,2.2,0.1,4.4,0.1,6.6c-1-4-2.5-7.9-5.3-10.6
			c-0.1-0.1-0.2-0.2-0.3-0.2c-0.8-1.5-1.3-1.6-2.9-5.1c-1.3-2.9-2.5-5.9-3.6-9c-0.8-2.4-0.9-5-1.7-7.3c-1.9-5.1-8.5-10.5-13.2-12.9
			c-2.3-1.2-4.8-2-7.2-3c-3.6-1.5-7-3.3-10.2-5.6c2.8,5.4,4.7,11.2,6.4,17.1c0.8,2.8,1.6,5.7,3,8.4c5.2,10,16.7,13.7,26.1,18.4
			c0.9,0.4,1.7,0.8,2.6,1.1c2,2.1,3,5,3.8,7.7c0.9,2.9,1.9,6.2,1.8,9.3c-0.2,4-0.7,7.9-0.9,11.9c-0.1,1.4,0.2,2.9,0.5,4.3l2.5,2.3
			c-0.1-1.3-0.2-2.5-0.3-3.8c-0.1-0.8-0.2-1.7-0.3-2.6c0.2-2.1,0-5.6,0.2-6.5c0.5-4,1.2-7.9,1.4-11.9c0.1-3.6,0-7.3-0.2-11
			c2.2-2.2,5.8-3.8,7.8-6.2c2.7-3.3,3.9-6,4.7-10.3c-6.1,0.8-10.9,7.1-12.7,13.1c-0.2-3.2-0.6-6.4-1.2-9.6
			c-0.7-3.4-1.5-6.7-1.6-10.2c1.3-3.6,4.2-5.2,6.7-10.4c2-4.3,3-8.8,2.9-13.7c-0.1-2.8-0.7-5.2-1.9-7.6c-0.9-1.8-1.8-7-2-9.1
			c-2.2,3.2-5.2,9.4-7.4,12.6c-2.6,4-3.4,8.2-3.1,13.1c0.2,3.8,0.6,7.6,1.6,11.3c0.3,1.2,0.7,2.5,1.1,3.8c0.1,2.3,0.5,4.5,0.9,6.8
			c-0.1-0.3-0.2-0.5-0.3-0.6c-0.5-1.3-2.7-4.6-2.5-6.1c0-0.3-6.3-12.1-11.2-16.3c-1.9-1.6-4-2.9-6-4.3c-1.1-4.7-1.4-10.4,1.2-14.6
			c0.7-0.5,1.5-0.9,2.2-1.5c1.4-1.1,2.8-2.4,4-3.8c4-4.4,6.8-9.8,8-15.7c1.2-6,0.6-12.1,1.6-18.1c-0.1,0.6-4.5,1.4-5.1,1.6
			c-1.9,0.6-3.7,2.6-5.1,4c-1.9,1.9-3.9,4-4.9,6.6c-1.6,4-0.8,8.6-0.1,12.9c0.5,3,0.8,4.8,0.1,7.7c-0.7,3.3-1.1,3.3-1.5,4.9
			c0,0,0,0,0,0c-2.2,3.1-2.9,6.8-2.7,10.6c-1-2.8-1.8-5.7-2.1-8.7c-0.5-6,0.3-12.2-0.7-18.1c0-1.3,0.2-2.7,0.3-3.9
			c0.2-3.1-0.2-6.2-0.7-9.4c-0.6-4-2-7.2-4.8-10c-2.3-2.3-5.8-6.8-8.1-9c0.2,1.7,0.4,6-0.1,7.7c-0.6,2.2-0.6,4.2-0.2,6.5
			c0.7,4,2.3,7.5,4.7,10.6c3,3.9,5.7,4.7,7.4,7.6c2.1,3.7-0.1,12.1,0.1,16.5c0.2,4.9,2.3,9.6,4,14.2c-3-2.4-5.3-5.4-7.2-8.8
			c-1.2-2.3-2.3-4.6-3-7.1c-0.5-1.7-0.8-3.5-1.4-5.1c-0.4-1.3-1.2-2.3-1.9-3.5c-0.6-1.1-1.3-2.1-2.1-3c-0.7-0.8-1.7-1.4-2.6-2.1
			c-1.8-1.5-3.7-3-5.9-3.8c0,0,0,0,0,0c-1.2-1-2.9-1.7-3.9-2.9c-1.2-1.4-1.5-3.5-2.7-5c-3-3.8-6.6-6.8-10.5-9.5
			c-3.8-2.6-8.4-3.7-12.9-4.4c-5.3-0.9-10.8-1.4-15.5-3.9c3.7,6,5.6,13.1,10.9,18C306.4,179,310,180.9,314.2,182.8z"/>
		<path d="M384.5,517.4c-3.6-3.6-3.5-23.8-6-23.8c-2.6,0-1.7,19.5-6,23.8c-4.3,4.3-18.2,2.5-18.2,5.3c0,2.8,14,1.1,18.2,5.3
			c4.2,4.2,3.5,23.8,6,23.8c2.6,0,2.1-19.9,6-23.8c3.9-3.9,18.2-3,18.2-5.3S388.1,521,384.5,517.4z"/>
		<path d="M124.3,434.7c5.7,5.7,4.7,32.1,8.1,32.1c3.5,0,2.9-26.9,8.1-32.1c5.2-5.2,24.5-4,24.5-7.1c0-3.1-19.6-2.2-24.5-7.1
			c-4.9-4.9-4.7-32.1-8.1-32.1c-3.5,0-2.3,26.3-8.1,32.1c-5.9,5.9-24.5,3.4-24.5,7.1C99.8,431.4,118.6,429.1,124.3,434.7z"/>
		<path d="M234.8,168.4c2.7,2.7,2.2,15.3,3.9,15.3s1.4-12.8,3.9-15.3c2.5-2.5,11.7-1.9,11.7-3.4s-9.4-1.1-11.7-3.4
			c-2.3-2.3-2.2-15.3-3.9-15.3s-1.1,12.5-3.9,15.3c-2.8,2.8-11.7,1.6-11.7,3.4S232.1,165.7,234.8,168.4z"/>
		<path d="M180.4,405.7c1.6,0,1.4-12.8,3.9-15.3c2.5-2.5,11.7-1.9,11.7-3.4c0-1.5-9.4-1.1-11.7-3.4c-2.3-2.3-2.2-15.3-3.9-15.3
			c-1.6,0-1.1,12.5-3.9,15.3c-2.8,2.8-11.7,1.6-11.7,3.4c0,1.8,9,0.7,11.7,3.4C179.2,393.1,178.7,405.7,180.4,405.7z"/>
		<path d="M409.8,459.8c-1.8-1.8-1.7-11.6-2.9-11.6s-0.8,9.5-2.9,11.6s-8.9,1.2-8.9,2.6c0,1.4,6.8,0.5,8.9,2.6
			c2,2,1.7,11.6,2.9,11.6s1-9.7,2.9-11.6c1.9-1.9,8.9-1.4,8.9-2.6S411.6,461.5,409.8,459.8z"/>
		<path d="M336.6,263.9c-1.2,0-0.8,8.9-2.7,10.9c-2,2-8.3,1.1-8.3,2.4c0,1.3,6.4,0.5,8.3,2.4c1.9,1.9,1.6,10.9,2.7,10.9
			s1-9.1,2.7-10.9c1.8-1.8,8.3-1.4,8.3-2.4c0-1.1-6.7-0.8-8.3-2.4C337.7,273.1,337.8,263.9,336.6,263.9z"/>
		<path d="M362.4,664.3c0.1,0.1,0.2,0.1,0.4,0.2c0,0,0,0,0,0c0.1,0,0.3,0.1,0.4,0.1c0.6,0.1,1.1-0.1,1.4-0.6
			c0.2-0.3,0.3-0.7,0.2-1.2c-1.3-12.1-2.5-24.2-3.8-36.3c-0.5-5.1-0.5-10.3-2.3-15.1c-6.6-16.9-13.4-33.6-20.2-50.4
			c-10.3-25.6-20.5-51.3-30.8-76.9c14.2-25.1,26.6-51.3,44.8-73.8c8.9-4.4,23-7.5,32.7-5c0.7,0.2,1.4-0.1,1.8-0.7
			c2.6-4.4,2-9.4-0.4-13.2c4.7-1,9.6-1.8,14.3-0.6c0.7,0.2,1.4-0.1,1.8-0.7c4.9-8.6-3.5-19-12.5-19.8c5.3-11.1-8.6-22-19.8-20.8
			c-0.7-13.2-12.4-19-24.6-16.9c-0.8-4.2-3.4-8.1-6.5-10.9c-6.7-6-13.7-6.3-20.8-1.9c-3.5-9.1-12.9-12.8-21.3-7.4
			c-5.1-7.1-14.7-9.5-21.7-3.4c-0.6,0.5-0.5,1.3-0.2,1.9c2.3,4.8,3.1,10.3,3.9,15.5c-3.6-0.1-7.4,1.3-10.5,4.1
			c-0.6,0.5-0.5,1.3-0.2,1.9c4.3,9.8,6.4,21.4,6.5,32c-2.3,5.6-5.5,11.1-8.4,16.5c-4.6-11.6-9.3-23.2-13.9-34.8c0,0,0,0,0,0
			c0.1,0,0.2-0.1,0.3-0.2c0.6-0.3,1-0.9,0.7-1.7c-0.9-2.2-1.7-4.3-2.6-6.5c0-0.1-0.1-0.2-0.1-0.3c4.7-6-0.6-16.1-9.6-13.5
			c-0.7-1.9-1.5-3.7-2.2-5.6c-0.3-0.7-1-1.4-1.9-1.1c-0.9,0.4-1.8,0.7-2.7,1.1c-0.9-1.1-1.7-2.5-1.1-3.9c0.5-1.1,1.4-1.9,1.9-3
			c0.8-2,0.6-4.1-0.8-5.8c-1.3-1.7-3.2-2.6-5.2-2.8c-3.6-9.3,15.9-14.6,22-17c7.7-3,15.4-5.8,23.1-8.6c6.7-2.4,25.5-5.2,22.8-14.5
			c6.2-4.4,5.7-10.9,3.2-17.9c-0.4-1-1.3-1.4-2.2-0.9c-12.3,5.9-24.6,11.6-37,17.2c-9.3,4.2-18.7,8.3-28.3,12
			c-3.3,1.3-6.6,2.5-10,3.5c-3.1,0.9-5.4,2.3-6.8-0.6c4.3-2.2,5-6.6,3.3-10.9c-1.7-4.4-4.1-7.5-9.2-7.5c-0.3,0-0.5,0.1-0.7,0.2
			c0.2-1.8,0.2-3.5-0.5-5.5c-0.9-2.6-2.6-4.6-5.1-5.4c-0.2-4.2-0.8-8.3-1.7-12.3c0-0.2-0.1-0.4-0.1-0.5c-0.6-2.6-1.4-5.3-2.2-7.9
			c0-0.3-0.1-0.7-0.3-0.9c-1.5-4.5-3.3-8.9-5.3-13.2c-3.7-8-8-16.6-14-23.3c1.1-2.6,0.1-5.7-1.6-7.9c-2.5-3.2-6.5-4.1-10.1-2.4
			c-3.4,1.5-5.3,4.8-4.7,8.5c0.4,2.7,2,5.3,4.5,6.5c0.2,8.9,3.1,18.2,5.9,26.6c3.9,11.5,9.1,22.7,17.1,31.9c-1.2,2.6-1.4,5.1,0,7.8
			c0.9,1.9,2.1,3.1,3.5,4.2c-2.1,0.8-3.5,2.7-4,5.2c-0.6,3.1,1.4,6.8,3.1,9.3c2.1,3.1,5,3.9,8.4,2.7c1.1,3.3-0.7,3.7-4,5.3
			c-3.5,1.8-7.1,3.3-10.7,4.8c-9.3,3.8-18.7,7.2-28.1,10.5c-12.8,4.5-25.7,8.9-38.7,13.1c-1,0.3-1.3,1.3-0.9,2.2
			c3,6.8,7.1,11.8,14.6,10.7c4.2,8.6,19.7-2.1,26-4.9c7.9-3.5,15.8-7,23.8-10.3c6.7-2.7,21.8-11.1,26.3-2.5c-0.8,1-1.3,2.1-1.5,3.3
			c-0.4,2,0,4.2,1.3,5.7c1.1,1.2,2.4,1.5,3.9,2c2.3,0.7,3.4,1.8,3.6,3.9c-0.6,0.2-1.1,0.5-1.7,0.7c-0.7,0.3-1.4,1-1.1,1.9
			c0.8,2,1.6,3.9,2.4,5.9c-8.3,4.1-5.3,15.4,2.4,16.4c0.9,2.1,1.7,4.3,2.6,6.4c0.3,0.7,1,1.4,1.9,1.1c0.1,0,0.2-0.1,0.4-0.1
			C231.5,374,238.3,391,245,408c-12.1,15-24.9,29.5-39.1,42.6c-9.4,8.7-19.4,16.8-28.5,25.7c-5.1,5-9.1,10.6-12.5,16.8
			c-2.4,4.4-5.9,9.1-5.8,14.3c0,0.3,0.1,0.6,0.2,0.8c-2.5,4.3-4,8.9-3.5,14.4c0,0.1,0,0.1,0.1,0.2c-2.2,2.4-4.1,5.1-5.2,8.1
			c-2.3,6-0.7,13.2,1,19.2c-10.2,11.8-18.3,25.7-19.2,40.9c0,0.8,0.8,1.7,1.6,1.6c10.6-1.4,17.6-11.5,24.2-18.8c1-1.1,2-2.1,3.1-3.2
			c2.7,6.4,6.4,12.4,9.8,18.5c1.3,2.3,2.7,8,6.2,6.9c3.5-1.1,4.9-7.7,5.6-10.6c2.2-10,0.6-20.4-2-30.1c4.4-2.9,9-5.6,13.6-8.3
			c12.6-7.3,25.9-13.4,38.3-20.9c7.5-4.6,14.8-9.6,22.1-14.5c-7.8,13.7-20.1,24.4-29.3,37.2c-7.7,10.8-16.7,24.7-14.6,38.6
			c0.1,0.9,1.2,1.3,1.9,1.1c6.8-1.7,11.6-9.5,16.3-14.1c6.5-6.5,14.8-10.8,21.7-16.9c13.8-12.2,25.9-26.8,36.8-41.6
			c0.1-0.2,0.3-0.4,0.4-0.6c13.9,34.7,27.7,69.4,41.6,104c1.8,4.5,3.5,7.2,6.5,11.2c8.6,11.2,17.2,22.3,25.8,33.5
			C362.1,664.1,362.2,664.2,362.4,664.3z M280.4,316.6c-0.2-0.9-2.1-5-1.8-5.8c0.9-2.9,6.3-2.7,8.5-2.1c3.7,1,6.3,3.3,8.1,6.5
			c0.6,1,1.7,0.9,2.5,0.3c7.6-5.9,16-1.7,18.2,7c0.2,0.9,1.5,1.5,2.3,0.9c7.8-5.7,16.2-4.4,21.8,3.7c1.4,2,2.6,4.5,2.7,7
			c0.1,1,1,1.8,2,1.5c11.2-2.6,22.8,2.3,22.5,15.3c0,1,1,1.7,2,1.5c8.3-2,25.2,7.4,17,17.9c-0.7,0.9-0.4,2.9,1.1,2.7
			c3.3-0.4,6.1,0.6,8.7,2.6c1.9,1.5,7.7,8,4.6,10.7c-1.4,1.2-4.6,0.3-6.7,0.5c-3.2,0.2-6.4,0.8-9.6,1.5c-2.2-2-5-3.4-8.1-3.5
			c5.5-11-6.3-22-17.8-20c0.1-6.3-2.3-12.3-8.4-15.3c-4.3-2.1-9.8-1.6-14.4-0.3c-0.6-4.6-3.4-8.9-7-11.7c-6.6-5-12.8-3.6-18.8,0.6
			c-2.9-9.5-12.3-11.6-20.3-6c-1.9-2.9-4.6-4.8-7.5-5.6c0.1-0.3,0.2-0.5,0.1-0.9C281.6,322.7,281.1,319.6,280.4,316.6z M271.6,332.1
			c0.6-2.7,6.6-3.1,8.7-2.7c3.5,0.7,5.8,3,7.4,6c0.5,1,1.7,0.9,2.5,0.3c7.1-6,15.5-3.8,17.2,5.7c0.2,1.3,1.8,1.4,2.6,0.7
			c7-5.7,15.4-6.2,20.6,2.3c1.2,2.1,2.1,4.6,2,7.1c0,1,1,1.8,2,1.5c11.1-3.5,21.9,0.6,20.6,14c-0.1,1,1.1,1.8,2,1.5
			c10.4-3.3,22.6,7.3,14.8,17.5c-0.9,1.2,0.6,2.6,1.8,2.3c3.5-0.7,7,0.7,9.3,3.4c1.5,1.6,4.7,8.5,2,10.3c-0.5,0.3-3.6-0.4-4.2-0.4
			c-2.4-0.1-4.8,0.1-7.2,0.4c-7.2,0.8-14.8,2.1-21.5,5.2c-9.3-13.1-22.8-23.8-36.9-31.2c-11.8-6.2-23.9-11.5-37.2-12.7
			c-0.2-7.4-1.5-14.9-3.4-22C274,339.1,271.2,333.9,271.6,332.1z M288.6,445.1c-0.8,1.7-1.7,4.2-2.2,5.8c-0.9,2.7-2,4.2-4,5.9
			c-9.1-22.7-18.2-45.5-27.3-68.2c-5-12.5-10-25.1-15-37.6c3.2-1.3,6.4-2.6,9.7-3.8C262.8,380,275.5,412.3,288.6,445.1z
			 M236.7,320.7c0.5,1.2,1,2.5,1.5,3.7c-6,2.4-12,4.8-18,7.2c-0.5-1.2-1-2.5-1.5-3.7C224.7,325.5,230.7,323.1,236.7,320.7z
			 M263.8,277.8c0.6-2.6,4.5-3.9,6.8-2.4C268.3,276.2,266.1,277,263.8,277.8z M298.1,247.3c1.7,5.2,2.1,10.1-3.3,13.4
			c-5.7-2.4-14.4,2.1-18.5-3.1C283.6,254.2,290.9,250.8,298.1,247.3z M254,267.6c6.5-2.9,13-5.8,19.5-8.8c1.8,2.6,4.4,3.7,7.6,4.1
			c3.7,0.5,10.3-1.5,13.3,0.9c0.1,2.6-4.2,4.8-8.7,6.5c-7.4-4.5-14.6-5.6-22.7-2c-7.8,3.5-19.9,13.8-28.8,7.5
			C240.9,273.3,247.5,270.4,254,267.6z M171.4,192.4c0-0.4-0.1-0.6-0.3-0.9c0-0.1-0.1-0.1-0.1-0.2c0,0-0.1-0.1-0.1-0.1
			c-0.2-0.1-0.4-0.3-0.6-0.3c-4.3-1.3-4.4-7.6-0.7-9.6c2.4-1.3,5-0.9,6.7,1.2c1.3,1.5,2.1,3.8,0.9,5.6c-0.4,0.6-0.3,1.2,0.1,1.7
			c0,0.1,0.1,0.1,0.1,0.2c1.2,1.3,2.3,2.6,3.4,4.1c-3.2,0.8-6.4,0.8-9.4-0.6C171.4,193.1,171.4,192.7,171.4,192.4z M172.3,201.4
			c-0.3-1.5-0.5-3.1-0.6-4.6c3.6,1.2,7.4,1.1,11.1-0.1c1.1,1.6,2,3.2,3,4.9c-4.3,1.4-8.7,1.8-13-0.1
			C172.5,201.4,172.4,201.4,172.3,201.4z M173,204.8c4.7,1.5,9.5,1.1,14.2-0.5c0.9,1.7,1.7,3.4,2.5,5c-5,1.7-10.1,2.4-15.3,1
			C173.9,208.5,173.4,206.6,173,204.8z M176.9,218.1c-0.1-0.2-0.2-0.4-0.2-0.7c-0.4-1.2-0.8-2.5-1.2-3.8c5.2,1,10.5,0.1,15.6-1.6
			c0.8,1.7,1.6,3.4,2.3,5.1C188,218.9,182.5,219.8,176.9,218.1C177,218.2,176.9,218.2,176.9,218.1z M178.1,221.5
			c5.5,1.1,11.1,0.2,16.5-1.6c0.7,1.7,1.4,3.5,2,5.3c-5.4,1.8-11,2.7-16.6,1.2C179.3,224.8,178.7,223.2,178.1,221.5z M181.4,229.9
			c5.4,0.9,10.9,0,16.1-1.8c0.6,1.8,1.1,3.6,1.5,5.5c-5.1,1.7-10.3,2.4-15.5,0.8C182.8,233,182,231.4,181.4,229.9z M187.9,242.1
			c-0.9-1.3-1.7-2.7-2.5-4.1c4.8,0.8,9.6,0.1,14.3-1.4c0.4,1.9,0.7,3.8,0.9,5.7C196.4,243.6,192.1,244,187.9,242.1
			C187.9,242.1,187.9,242.1,187.9,242.1z M190.6,246.1c3.4,0.6,6.8,0.3,10.3-0.6c0,0.6,0.1,1.2,0.1,1.8c0,0.1,0,0.1,0,0.2
			c-1.7,2-4.3,2.9-7,3c-0.1-0.1-0.1-0.2-0.2-0.4C192.7,248.8,191.6,247.4,190.6,246.1z M194,253.4c3.3-0.1,6.8-1.2,9-3.8
			c2,0.6,2.9,2.4,3.5,4.4c0.6,2.2,0.1,3.9-0.4,6c-2.2,1.4-4.7,2.2-7.3,2.9C195.4,260.7,192.2,257.7,194,253.4z M135.1,324.5
			c-6.1,1.3-9.2-2.6-11.6-7.4c7.6-2.5,15.3-5,22.9-7.6C147.1,316.2,137.6,318.9,135.1,324.5z M137.6,326.5c0.5-3.7,6.3-6.6,8.6-9.3
			c2.3-2.6,3.6-5.4,3.1-8.7c6.8-2.3,13.5-4.7,20.2-7.2c6.7-2.4,13.4-4.9,20-7.6c-2.3,11.6-19.7,11.5-28.3,15.3
			c-7.2,3.2-11,8.9-12.9,16.3C143.9,327.2,139.3,328.4,137.6,326.5z M162.8,318.5c0.2-1.5,1.4-2.4,2.9-3c1.2-0.4,2.8-0.8,3.9,0
			C167.3,316.5,165,317.5,162.8,318.5z M202,303.1c-7.7,1.3-15.4,5.2-22.6,8.2c-2.3,1-4.6,2-7,3c-2-2.6-5.2-2.7-8.1-1.5
			c-3.1,1.3-4.8,3.8-4.5,7c-0.4,0.2-0.9,0.4-1.3,0.6c-1.2,0.5-3.6,1.8-6.4,3.2c1.5-4.5,4-8.3,8.3-10.8c5.3-3.1,11.5-3.3,17.3-5.1
			c6.8-2.1,14.3-7.9,15.1-15.4c1.6-0.7,3.1-1.3,4.7-2.1c6.3-3,10.5-4.5,7.2-11.9c-0.4-0.9-1.4-1-2-0.5c-0.2,0-0.3,0-0.5,0.1
			c-4.4,1.8-6.2-1.8-7.6-5.4c-0.4-0.9-0.6-1.4-0.6-2.4c0-0.6,0.6-3.1,1-3.5c0.3-0.2,1.2-0.1,1.6-0.2c0.6-0.2,1.3-0.4,1.9-0.6
			c0.2,0,0.3-0.1,0.4-0.1c4.2-1.2,8.1-2.1,11.7-5.3c3.5,0.1,4.9,2.2,6.1,5.2c1.3,3.2,1.2,6.1-2.2,7.7c-0.1,0-0.1,0.1-0.2,0.1
			c-0.8,0.1-1.6,0.8-1.3,1.9c2.1,7.5,7.5,5.2,13.4,3.3c1.6-0.5,3.2-1.1,4.8-1.7c5,4.4,13.6,4,19.5,1.6c4.1-1.6,7.5-4.4,11.4-6.4
			c7-3.7,13.4-3.9,20-0.7c-2.3,0.7-4.4,1.3-5.4,1.7c-0.9,0.3-1.8,0.6-2.6,0.9c-2-2.5-5-3.2-8-2c-2.8,1.1-5.4,3.3-5,6.6
			c0,0.1,0,0.1,0,0.1c-2.6,0.9-5.1,1.9-7.6,2.9c-6.8,2.6-14.4,5.1-20.6,8.9c-5.8,3.6-8.4,6.8-6.3,12.4c-1.2,0.4-2.2,1.1-3.1,2
			c-2.1,2.2-3.6,2.7-6.6,2.5c-1.2-0.1-2.2-0.1-3.3,0.4C211,303.6,207.9,302.2,202,303.1z M224.5,315.7c-2,1.9-3.4-3.1-3.5-5
			c0.6-0.2,1.1-0.5,1.6-0.9C223.9,311,225.9,314.4,224.5,315.7z M212.1,314.8c0-1.1,0.4-2.2,1.1-3c0.3-0.1,0.6-0.3,0.8-0.6
			c0.1,0,0.1-0.1,0.2-0.1c1.2-0.6,2.5-0.3,3.8-0.1c0.1,4.2,3.1,10.1,7.8,7.5c4-2.2,1.7-8-1-10.7c0.1-0.1,0.3-0.3,0.4-0.4
			c1.6-1.7,3.9-2.1,5.8-0.8c2.5,1.6,1.5,3.6,0.2,5.6c-1.7,2.5-1.2,5.1,0.3,7.4c-3.5,1.4-7,2.8-10.6,4.2c-0.2-1.3-0.6-2.7-1.5-3.7
			C217.4,317.7,212.2,318.6,212.1,314.8z M218.7,336.1c0.5-0.4,1.3-0.5,1.9-0.8c2.7-1.4,5.7-2.3,8.4-3.4c4-1.6,8.7-4.4,12.9-5.2
			c10.5-1.8,8,8.3,2.5,11.1c-2.3,1.2-4.8,1.9-7.2,2.9c-4.7,1.9-9.4,3.8-14.1,5.7C215.1,348.9,214,339.4,218.7,336.1z M223.3,350.1
			c8.4-3.3,16.9-6.7,25.3-10.1l1.5,3.7c-8.5,3.3-16.9,6.7-25.3,10.1C224.3,352.6,223.8,351.4,223.3,350.1z M227.5,356
			c3.2-1.3,6.4-2.6,9.6-3.9c13.9,34.8,27.9,69.6,41.8,104.5l0.9,2.2c-2.7,2.5-5,5.5-8.3,7.3c-7.7-19.3-15.4-38.6-23.2-57.9
			c0-0.4-0.2-0.7-0.4-1c-1.1-2.8-2.3-5.6-3.4-8.4C238.9,384.4,233.2,370.2,227.5,356z M157.2,526.3c4.2-5.3,9.3-10.1,14.1-14.9
			c6.2-6.3,13.1-11.7,20-17.2c3.4,0.2,7.4,2.8,10,4.8c2.5,1.8,5.6,4.1,7.4,6.8c-3.8,2.4-7.7,4.7-11.4,7.2
			c-10.1,6.8-20.4,13.6-29.7,21.6c-4.5,3.9-9.1,8.2-13.4,12.9C152.3,539.9,152,532.8,157.2,526.3z M180.4,581.2
			c-0.3,2.7-1,7.7-3,10.5c-0.8-5.6-5-16.6-8.7-20.8c-1.4-1.6-3.1-1.2-4.2-0.7c-0.3-0.6-0.5-1.2-0.8-1.8c0,0,0,0,0,0
			c4.5-4.1,9.3-7.8,14.3-11.2C180.2,564.9,181.4,573.1,180.4,581.2z M242.7,559.9c-1.5,1.1-3,2.1-4.5,3.2c-1.2-1.6-4.6-5.3-8.7-2.5
			c-3.7,2.5-10.3,7.5-13.9,11.8c3.4-10.2,10.9-20.1,16.8-27.5c9.7-12.1,21.5-22.8,27.9-37.1c0.6-1.3-0.7-3.1-2.1-2.1
			c-8.5,5.5-16.8,11.3-25.3,16.7c-11.6,7.2-24.1,12.9-36,19.7c-6.2,3.6-12.5,7.2-18.5,11.1c-0.2,0.1-0.3,0.2-0.5,0.3
			c-4.5,2.9-8.8,6.1-12.9,9.5c-5.1,4.3-9.4,9.2-13.8,14.2c-2.9,3.2-6.4,7.1-10.4,9.7c3.1-4.9,6.2-14.1,6.9-17.1
			c0.6-2.7-1.5-4.4-2.9-5.2c7.8-12.5,19.3-23.4,30.1-31.9c9.8-7.7,20.4-14.8,30.9-21.5c5.8-3.7,11.8-7,17.2-11.4
			c1.6-1.3-0.7-3.5-2.2-2.2c-3,2.4-6.1,4.6-9.4,6.6c-2.1-3.1-5.6-5.7-8.5-7.8c-2.3-1.7-5.3-3.6-8.3-4.6c3.1-2.5,6.1-5,9.1-7.6
			c1.5-1.3-0.7-3.6-2.2-2.2c-3.6,3.2-7.3,6.2-10.9,9.3c-0.4,0.1-0.7,0.4-0.9,0.7c-8.9,7.3-17.7,14.5-25.7,22.9
			c-1.5,1.6-3.2,3.2-4.9,4.9c0.5-9.1,7.4-15.7,13.2-22.5c6.3-7.3,13-14.1,20.1-20.6c1.5-1.4-0.7-3.6-2.2-2.2
			c-8.5,7.8-16.1,16.1-23.6,24.8c-1.1,1.2-2.2,2.5-3.2,3.8c1.7-4.6,5.1-9.7,7.3-13.1c4.5-7.1,10.6-12.6,16.8-18.1
			c7.9-7.1,15.8-14.1,23.5-21.3c12.8-12,24.5-25.3,35.5-38.9c7.7,19.2,15.3,38.5,23,57.6c0,0,0,0,0,0c0.2,0.7,0.9,1.1,1.7,0.8
			c5.5-2.3,8.6-6.9,13.2-10.5c4.3-3.3,4.4-7.3,6.7-11.9c0.2-0.4,0.4-0.6,0.5-1c0.1-0.4,0.6-0.8,0.6-1.1
			c-7.5-18.7-14.9-37.1-22.4-55.9c-0.6-1.5-1.2-3.1-1.8-4.6c0,0,0.1-0.1,0.1-0.1c3.1-5.9,5.7-12.2,9.1-17.8c0.1-0.2,0.2-0.4,0.3-0.5
			c1.1-0.1,2.6,0.3,3.6,0.4c3.6,0.5,7.2,1.3,10.7,2.5c11.9,3.8,23.9,9.7,34.1,16.9c5.2,3.7,10.1,7.9,14.6,12.5
			c2.4,2.4,8,6.8,8.9,10.2c0.4,1.3-0.3,1-1.9,3.1c-1.2,1.6-2.4,3.2-3.6,4.8c-3.9,5.4-7.6,10.9-11.2,16.5
			c-7.5,12.1-13.4,25-20.2,37.5c-12.3,22.3-26.1,43.5-42.7,62.8C261.5,542.7,252.9,552.6,242.7,559.9z M342.1,633.2
			c-3.5-4.5-6.7-7.7-8.5-12.3l-20.6-51.5c-7.6-19.1-15.2-38.1-22.9-57.2c2.4-3.4,4.8-6.9,7-10.4c16.4,41,32.8,82,49.2,123
			c3.8,9.6,7.7,19.2,11.5,28.8C352.6,646.8,347.3,640,342.1,633.2z M322.3,556.8c-7.8-19.4-15.5-38.8-23.3-58.1
			c2.3-3.7,4.5-7.5,6.7-11.2c16.2,40.4,32.3,80.8,48.5,121.3c2.1,5.4,2.5,7.1,3.1,13c1.1,10.3,2.2,20.6,3.2,30.9
			C347.9,620.6,335.1,588.7,322.3,556.8z"/>
		<ellipse transform="matrix(0.9284 -0.3715 0.3715 0.9284 -109.0957 72.0203)" cx="132.4" cy="319.2" rx="2.5" ry="2.5"/>
		<ellipse transform="matrix(0.9284 -0.3715 0.3715 0.9284 -73.7028 127.1329)" cx="293.2" cy="254.9" rx="2.5" ry="2.5"/>
		<path d="M219.8,304.7c1.2-0.5-2.7-9.7-1.6-12.2c1.1-2.5,7.9-4.8,7.5-5.8c-0.4-1.1-7.1,1.9-9.4,0.9c-2.3-1-6-10.4-7.2-10
			s2.8,9.4,1.6,12.2c-1.2,2.8-8,4.5-7.5,5.8c0.5,1.3,6.7-2.1,9.4-0.9C215.3,295.9,218.7,305.2,219.8,304.7z"/>
	</g>
</g>
</svg>
