<?xml version="1.0" encoding="utf-8"?>
<!-- Generator: Adobe Illustrator 21.1.0, SVG Export Plug-In . SVG Version: 6.00 Build 0)  -->
<svg version="1.1" xmlns="http://www.w3.org/2000/svg" xmlns:xlink="http://www.w3.org/1999/xlink" x="0px" y="0px"
	 viewBox="0 0 504 864" style="enable-background:new 0 0 504 864;" xml:space="preserve">
<g id="Слой_1">
</g>
<g id="Слой_2">
	<g>
		<path d="M154.4,793.6c-0.1-0.3-0.3-0.5-0.5-0.5h-0.1c-0.3,0-0.5,0.1-0.9,0.2c-0.3,0.1-0.5,0.2-0.5,0.3c0,0.1-0.1,0.2-0.4,0.2
			c-0.2,0-0.3,0-0.3,0c0,0,0-0.1,0.1-0.2c0.1-0.1,0.3-0.2,0.4-0.2c0.1,0,0.2-0.1,0.3-0.4c0.1-0.2,0.2-0.4,0.3-0.4
			c0.1,0,0.2-0.1,0.3-0.3c0.1-0.2,0.2-0.3,0.3-0.3c0.2,0,0.4-0.1,0.6-0.4c0.2-0.3,0.3-0.5,0.3-0.7c0-0.3,0-0.4-0.1-0.4
			c-0.1,0-0.1-0.1-0.1-0.2c0-0.1,0-0.2,0.1-0.3c0.1,0,0.2-0.7,0.2-2.1c0-0.3,0-0.7,0-1.2c0-0.6-0.1-0.9-0.2-0.9
			c-0.2-0.1-0.3-0.2-0.3-0.6c0-0.3,0-0.5-0.1-0.5c-0.1,0-0.1-0.1-0.1-0.4c0-0.3-0.1-0.4-0.2-0.4c-0.2,0-0.3-0.1-0.4-0.4
			c-0.1-0.2-0.2-0.3-0.4-0.4c-0.1-0.1-0.2-0.2-0.2-0.4c0-0.2-0.2-0.3-0.5-0.3c-0.6,0-0.9-0.1-0.9-0.4c0-0.1-0.1-0.2-0.2-0.2
			c-0.1,0-0.2,0-0.2-0.1c0-0.1-0.1-0.2-0.4-0.2c-0.2,0-0.3-0.1-0.4-0.2c0-0.1-0.6-0.2-1.5-0.2c-1,0-1.6,0.1-1.7,0.2
			c-0.1,0.1-0.3,0.2-0.4,0.2c-0.2,0-0.3,0-0.3,0.1c0,0.1-0.1,0.3-0.3,0.4c-0.2,0.1-0.4,0.2-0.6,0.2c-0.3,0-0.7,0.1-1.1,0.2
			c-0.5,0.1-0.7,0.3-0.8,0.5c-0.1,0.3-0.3,0.5-0.5,0.8c-0.3,0.3-0.4,0.5-0.4,0.6c0,0.1-0.1,0.1-0.2,0.1c-0.1,0-0.2,0.1-0.3,0.4
			c-0.1,0.3-0.2,0.6-0.3,0.8c-0.2,0.3-0.2,0.9-0.2,1.9c0,1.3,0.1,2.3,0.4,3c0.2,0.6,0.4,1.2,0.7,1.6s0.5,0.7,0.6,0.7
			c0.1,0.1,0.2,0.2,0.3,0.4c0.1,0.2,0.2,0.3,0.4,0.3c0.3,0,0.4,0,0.4,0.1c0,0.1,0.1,0.1,0.3,0.1c0.2,0,0.3,0.1,0.3,0.4
			c0,0.3,0.1,0.4,0.3,0.4c0.2,0,0.3-0.1,0.3-0.2c0.1-0.1,0.1-0.1,0.3,0c0.2,0.1,1,0.2,2.4,0.2c1.2,0,1.9-0.1,1.9-0.2
			c0.1-0.1,0.2-0.1,0.4-0.1c0.6,0,1,0.1,1.3,0.4c0.2,0.2,0.7,0.3,1.5,0.3c0.8,0,1.2,0,1.2-0.1c0-0.1,0.1-0.1,0.4-0.2
			c0.3-0.1,0.4-0.3,0.4-0.5c0-0.1,0-0.2-0.1-0.2C154.6,794,154.5,793.9,154.4,793.6z M151.3,790c-0.1,0.1-0.2,0.2-0.2,0.4
			c0,0.2,0,0.3-0.1,0.3c-0.1,0-0.2-0.1-0.2-0.4c0-0.2,0-0.3-0.1-0.3c0,0-0.2,0-0.4,0c-0.4,0.1-0.7,0.1-0.8,0.2
			c-0.1,0.1-0.1,0.2-0.1,0.5c0,0,0,0.1,0,0.3c0,0.2,0,0.3,0,0.4v0.5c0,0.5-0.1,0.7-0.2,0.7c-0.1,0-0.2,0.1-0.4,0.2
			c-0.2,0.1-0.3,0.2-0.4,0.2c-0.2,0-0.4,0.1-0.5,0.2c-0.1,0.1-0.2,0.1-0.3,0.1c-0.2,0-0.5,0-0.8-0.1c-0.4-0.1-0.7-0.2-0.9-0.3
			c-0.2-0.1-0.4-0.3-0.7-0.6c-0.4-0.5-0.8-1-1.1-1.8c-0.3-0.7-0.4-1.4-0.4-2.3c0-0.6,0-1,0.1-1.2c0-0.2,0.2-0.5,0.3-0.9
			c0.3-0.5,0.6-1,1.1-1.5c0.5-0.5,0.8-0.7,1.1-0.8c0.3-0.1,0.5-0.2,0.5-0.3s0.1-0.2,0.2-0.2c0.1,0,0.2-0.1,0.2-0.2
			c0-0.1,0.1-0.1,0.4-0.1c0,0,0.2,0,0.6,0.1c0.4,0,0.7,0.1,1,0.2c0.3,0.1,0.4,0.1,0.4,0.2c0,0.1,0.1,0.2,0.3,0.3
			c0.2,0.1,0.3,0.2,0.3,0.3c0,0.1,0.1,0.2,0.3,0.3c0.2,0.1,0.4,0.2,0.4,0.3c0.1,0.1,0.1,0.3,0.1,0.6c0,0.3,0.1,0.6,0.3,0.9
			c0.1,0.1,0.2,0.3,0.2,0.6c0.1,0.3,0.1,0.6,0.2,1c0,0.4,0.1,0.6,0.1,0.7c0.1,0.3,0,0.4-0.1,0.5c-0.2,0.1-0.2,0.3-0.2,0.5
			C151.5,789.8,151.4,789.9,151.3,790z"/>
		<path d="M155.4,792c-0.3,0-0.5,0-0.6,0.1c0,0-0.1,0.1-0.1,0.1c0,0.2,0.2,0.2,0.6,0.2c0.3,0,0.5-0.1,0.5-0.2
			C155.9,792.1,155.8,792,155.4,792z"/>
		<path d="M174,783h-0.2c-0.4,0-0.8-0.1-1-0.3c-0.2-0.1-0.3-0.2-0.4-0.2c0,0-0.1,0.1-0.1,0.2c0,0.1,0,0.2-0.1,0.2
			c-0.1,0-0.4,0-0.8,0.1c-0.6,0-1,0-1,0.1c-0.1,0.1-0.1,0.3-0.1,0.7l0,0.6l0.8,0.1l0.8,0v2.3c0,1.5,0,2.3,0.1,2.4
			c0.1,0,0.1,0.1-0.1,0.3c-0.1,0.2-0.2,0.4-0.2,0.5v0.2c0,0.3,0,0.6-0.1,0.9c-0.1,0.3-0.2,0.5-0.3,0.5c-0.1,0.1-0.2,0.1-0.2,0.3
			c0,0.1-0.1,0.3-0.3,0.4c-0.2,0.2-0.4,0.2-0.6,0.2c-0.3,0-0.4,0.1-0.5,0.2c-0.1,0.1-0.2,0.2-0.4,0.2c-0.1,0-0.2,0-0.5-0.1
			c-0.5-0.1-0.7-0.1-0.8-0.2c0-0.1-0.2-0.1-0.4-0.1c-0.2,0-0.4-0.1-0.8-0.2c-0.2-0.1-0.3-0.2-0.4-0.3c-0.1-0.1-0.1-0.2-0.1-0.5V791
			v-0.3c0-0.4,0-0.6-0.1-0.6c-0.1,0-0.2-0.1-0.1-0.3c0-0.2,0.1-0.3,0.2-0.3c0.1-0.1,0.1-0.1,0-0.2c-0.1,0-0.1-0.1-0.1-0.2
			c0-0.1,0-0.2,0-0.3c0-0.1,0.1-0.1,0.1-0.1c0.1,0,0.1-0.3,0.1-0.9c0-0.9-0.1-1.4-0.2-1.5c-0.1-0.1-0.1-0.2,0-0.3
			c0.1-0.1,0.2-0.4,0.2-0.8c0-0.1,0-0.2,0-0.3c0-0.1-0.1-0.2-0.1-0.3c0-0.1,0-0.1,0-0.1c0-0.1,0.5-0.1,1.4-0.1c0.1,0,0.1,0,0.2,0
			c0.1,0,0.1,0,0.2,0h0c0,0,0.1-0.1,0.1-0.2c0-0.1,0-0.3-0.1-0.6c0-0.2-0.1-0.4-0.3-0.5c-0.2-0.1-0.5-0.1-1-0.1
			c-0.1,0-0.6,0-1.5,0.1c-1.4,0.1-2.1,0.2-2.3,0.4c-0.2,0.2-0.2,0.4-0.2,0.5c0,0.4,0.3,0.6,1,0.7c0.5,0.1,0.7,0.2,0.7,0.4
			c0,0.1-0.1,0.2-0.2,0.3c-0.2,0.1-0.2,0.4-0.1,0.7c0.1,0.3,0.1,0.6,0,0.6c-0.1,0.1-0.2,0.1-0.3,0.1c-0.1,0-0.1,0-0.1,0.1
			c0,0.2,0.1,0.4,0.4,0.5c0.2,0.1,0.4,0.2,0.4,0.4c0,0.1-0.1,0.2-0.2,0.3c-0.1,0.1-0.2,0.4-0.2,0.9v0.4c0,0.8,0.1,1.3,0.2,1.3
			c0.1,0.1,0.1,0.2,0.1,0.5c0,0.2,0,0.3-0.1,0.3c-0.1,0-0.1,0.1-0.2,0.4c-0.1,0.3,0,0.4,0.2,0.5c0.1,0.1,0.3,0.3,0.4,0.6
			c0.1,0.3,0.2,0.5,0.3,0.5s0.1,0.1,0.2,0.4c0.1,0.3,0.2,0.4,0.4,0.4c0.2,0,0.4,0,0.5,0.1c0.1,0.1,1,0.2,2.5,0.2
			c1.3,0,1.9-0.1,1.9-0.2s0.1-0.2,0.2-0.2c0.1,0,0.2-0.1,0.3-0.2c0.1-0.1,0.2-0.2,0.4-0.2c0.2,0,0.3-0.1,0.3-0.3
			c0-0.1,0.1-0.2,0.1-0.3c0.1,0,0.2,0,0.5,0h0.1c0.3,0,0.5,0,0.5-0.1c0-0.1-0.1-0.1-0.2-0.2c-0.1-0.1-0.2-0.2-0.2-0.3
			c0-0.2,0.1-0.4,0.2-0.6c0.2-0.2,0.2-0.4,0.1-0.4c-0.1,0-0.2-0.1-0.2-0.2c0-0.1,0-0.2,0.1-0.2c0.1,0,0.2-0.2,0.2-0.4
			c0-0.2,0.1-0.6,0.1-0.9c0-0.4,0-0.6,0-0.6c0-0.1,0-0.5,0.1-1.1c0-0.6,0-1.2,0.1-1.7c0-0.5,0.1-0.8,0.2-0.9c0.1-0.1,0.2-0.2,0-0.2
			c-0.1-0.1-0.2-0.1-0.2-0.2c0-0.1,0.1-0.3,0.3-0.4c0.2-0.1,0.4-0.2,0.6-0.2c0.1,0,0.2,0,0.2,0c0,0,0.1,0,0.2,0
			c0.3,0,0.4-0.1,0.4-0.3c0-0.1,0-0.1-0.1-0.2c-0.1-0.1-0.1-0.2,0-0.2c0.1,0,0.1-0.1,0.1-0.2C175.1,783.1,174.7,783,174,783z"/>
		<path d="M182.4,792c0.1-0.2,0.1-0.3-0.1-0.3c-0.1,0-0.2,0.1-0.2,0.2c0,0.1,0,0.2,0.1,0.2C182.2,792.2,182.3,792.1,182.4,792z"/>
		<path d="M192.9,790.2c-0.1,0-0.3,0.2-0.5,0.5c-0.3,0.4-0.4,0.6-0.4,0.7c0,0.1-0.1,0.2-0.4,0.2c-0.2,0-0.3,0.1-0.3,0.1
			c0,0,0,0.1,0,0.3v0.2c0,0.2-0.1,0.3-0.4,0.3c0,0-0.1,0-0.2,0c-0.1,0-0.1,0-0.2,0c-0.2,0-0.4,0.1-0.7,0.4c-0.2,0.2-0.4,0.3-0.6,0.3
			c-0.1,0-0.2-0.1-0.2-0.2c-0.1-0.1-0.2-0.1-0.4,0c-0.2,0.1-0.6,0.2-1.2,0.2c-0.5,0-0.7,0-0.7-0.1c0-0.1-0.1-0.1-0.2-0.1
			c-0.1,0-0.1-0.1-0.2-0.2c-0.1-0.2-0.1-0.3-0.1-0.5c0,0,0-0.6,0.1-1.8c0-1.2,0.1-1.8,0.1-1.8c0-0.1,0.5-0.1,1.4-0.1
			c0.8,0,1.3,0.1,1.5,0.2c0.3,0.1,0.4,0.4,0.4,0.8c0,0.2,0,0.3,0.1,0.3c0,0,0.1,0,0.2,0c0.2-0.1,0.4-0.1,0.6-0.1h0.1
			c0.2,0,0.3-0.2,0.3-0.6c0-0.1,0-0.2,0-0.3c0-0.2,0-0.3,0-0.4v-0.3c0-0.4,0-0.6,0.1-0.6c0.1-0.1,0.1-0.3,0-0.4
			c-0.1-0.1-0.1-0.3,0.1-0.4c0.2-0.1,0.2-0.2,0.2-0.4c0-0.3-0.4-0.4-1.1-0.4c-0.4,0-0.6,0.2-0.6,0.5c0,0.1,0,0.2,0.1,0.3
			c0.1,0.2,0,0.3-0.1,0.5c-0.1,0.1-0.4,0.2-0.9,0.3c-0.6,0.1-1.1,0.2-1.6,0.2h-0.6V787c0-0.4,0.1-0.6,0.2-0.6c0.1,0,0.2-0.1,0.2-0.4
			c0-0.3-0.1-0.6-0.2-0.9c-0.1-0.2-0.2-0.4-0.2-0.4c0-0.1,0.1-0.1,0.2-0.3c0.2-0.2,0.3-0.3,0.2-0.5c0,0,0-0.1,0-0.2
			c0-0.2,0.1-0.3,0.4-0.4c0.3-0.1,0.8-0.1,1.5-0.2c0.6,0,1-0.1,1.1-0.1c0.4,0,0.6,0.1,0.7,0.2c0.2,0.2,0.3,0.3,0.5,0.4
			c0.2,0.1,0.3,0.2,0.3,0.3c0,0.1,0.1,0.2,0.4,0.4c0.2,0.1,0.4,0.3,0.4,0.3c0,0.2,0.1,0.3,0.3,0.5c0.2,0.2,0.4,0.3,0.6,0.3h0.1
			c0.3,0,0.4-0.2,0.4-0.7c0-0.2-0.1-0.4-0.2-0.5c-0.1-0.2-0.2-0.4-0.2-0.6c0-0.3-0.1-0.5-0.2-0.5c-0.1-0.1-0.1-0.2,0-0.4
			c0.1-0.1,0.1-0.2,0.1-0.3c0-0.1-0.1-0.1-0.2-0.2s-0.2-0.2-0.2-0.3c0-0.1-0.1-0.3-0.3-0.5c-0.1-0.1-0.2-0.2-0.3-0.2
			c-0.1,0-0.2,0-0.3,0.1c-0.2,0.1-1.9,0.3-5,0.4h-0.7c-1.5,0-2.3-0.1-2.4-0.3c0-0.1-0.1-0.1-0.3-0.1c-0.1,0-0.2,0-0.2,0.1
			c0,0.1-0.1,0.2-0.1,0.3c0,0.2,0,0.3,0,0.3c0,0.2-0.1,0.3-0.3,0.4c-0.2,0-0.3,0.2-0.2,0.5c0.1,0.2,0.1,0.4,0.2,0.5
			c0.1,0.1,0.2,0.1,0.3,0.1s0.3,0,0.4,0c0.1,0,0.1,0,0.2,0c0.1,0,0.1,0,0.2,0c0.4,0,0.6,0.1,0.7,0.4c0.1,0.2,0.1,0.8,0.1,1.5
			c0,0.9-0.1,1.4-0.2,1.5c-0.1,0-0.1,0.2,0,0.4c0.1,0.3,0.1,0.5,0,0.7c-0.1,0.2-0.2,0.3-0.3,0.3c-0.1,0-0.1,0.1,0.1,0.2
			c0.1,0.1,0.1,0.3,0.1,0.6c0,0.3-0.1,1.3-0.2,3l-0.1,1h-0.6c-0.4,0-0.6,0.1-0.7,0.3c-0.1,0.2-0.2,0.3-0.3,0.3
			c-0.2,0-0.2,0.1-0.2,0.4c0,0.3,0.1,0.5,0.3,0.6c0.2,0.1,0.3,0.3,0.3,0.4c0,0.1,0.1,0.2,0.3,0.2s0.5,0,0.8-0.1
			c0.3-0.1,0.5-0.2,0.6-0.2c0.2-0.1,0.6-0.2,1.2-0.2c0.1,0,0.6,0,1.5,0.1c0.8,0,1.2,0.1,1.2,0.2c0.1,0.1,0.2,0.1,0.4,0
			c0.3-0.1,0.8-0.2,1.6-0.2c0.9,0,1.4,0,1.6-0.1c0.2,0,0.3-0.1,0.5-0.2c0.2-0.2,0.3-0.4,0.2-0.6c-0.1-0.2,0-0.4,0.2-0.4
			c0.1-0.1,0.2-0.4,0.2-0.8c0-0.3,0-0.5,0.1-0.6c0-0.1,0.1-0.1,0.2-0.1c0.2,0,0.3-0.2,0.3-0.5c0-0.3-0.1-0.5-0.2-0.7
			C193.2,790.3,193,790.2,192.9,790.2z"/>
		<path d="M200.7,792c0.1-0.2,0.1-0.3,0-0.3c-0.1,0-0.2,0.1-0.2,0.2c0,0.1,0,0.2,0.1,0.2C200.6,792.1,200.6,792.1,200.7,792z"/>
		<path d="M210.7,790.2c-0.1,0-0.3,0.2-0.5,0.5c-0.3,0.3-0.4,0.6-0.4,0.7c0,0.1-0.1,0.2-0.4,0.2c-0.1,0-0.2,0-0.3,0.1
			c0,0-0.1,0.1-0.1,0.1c0,0,0,0.1,0,0.3c0,0.2-0.1,0.3-0.4,0.3c0,0-0.1,0-0.1,0c-0.1,0-0.1,0-0.2,0c-0.2,0-0.4,0.1-0.6,0.3
			c-0.2,0.2-0.4,0.3-0.6,0.3c-0.1,0-0.2-0.1-0.2-0.2c0-0.1-0.1-0.1-0.4,0c-0.2,0.1-0.6,0.2-1.2,0.2c-0.5,0-0.7,0-0.7-0.1
			c0-0.1-0.1-0.1-0.2-0.1c-0.1,0-0.1-0.1-0.2-0.2c-0.1-0.2-0.1-0.3-0.1-0.4c0-0.1,0-0.2,0-0.3c0-0.2,0-0.4,0-0.6c0-0.3,0-0.5,0-0.8
			c0-0.3,0-0.5,0-0.8s0-0.5,0-0.6v-0.2c0-0.1,0.4-0.1,1.3-0.1c0.7,0,1.2,0.1,1.4,0.2c0.2,0.1,0.4,0.4,0.4,0.8c0,0.2,0,0.3,0.1,0.3
			c0,0,0.1,0,0.2,0c0.1-0.1,0.3-0.1,0.5-0.1c0.1,0,0.2,0,0.3-0.1c0-0.1,0.1-0.2,0.1-0.5c0-0.1,0-0.2,0-0.3c0-0.2,0-0.3,0-0.4v-0.2
			c0-0.3,0-0.6,0.1-0.7c0.1-0.1,0.1-0.3,0-0.4c-0.1-0.1-0.1-0.3,0.1-0.4c0.1-0.1,0.2-0.2,0.2-0.4c0-0.3-0.3-0.4-1-0.4
			c-0.4,0-0.6,0.2-0.6,0.5c0,0.1,0,0.2,0.1,0.3c0,0.2,0,0.4,0,0.5c-0.1,0.1-0.3,0.2-0.9,0.3c-0.5,0.1-1,0.1-1.5,0.1h-0.6v-0.6
			c0-0.4,0.1-0.6,0.2-0.6c0.1,0,0.2-0.1,0.2-0.4c0-0.3-0.1-0.5-0.2-0.9c-0.1-0.2-0.2-0.4-0.1-0.4c0-0.1,0.1-0.1,0.2-0.3
			c0.2-0.1,0.3-0.3,0.2-0.5c0,0,0-0.1,0-0.2c0-0.1,0.1-0.3,0.4-0.3c0.3-0.1,0.7-0.1,1.5-0.2c0.7,0,1.1-0.1,1.1-0.1
			c0.3,0,0.5,0.1,0.6,0.2c0.1,0.2,0.3,0.3,0.5,0.4c0.2,0.1,0.3,0.2,0.3,0.3c0,0.1,0.1,0.2,0.3,0.3c0.2,0.1,0.3,0.2,0.3,0.3
			c0,0.2,0.1,0.3,0.3,0.5c0.2,0.2,0.4,0.2,0.6,0.2h0c0.3,0,0.4-0.2,0.4-0.6c0-0.2-0.1-0.3-0.2-0.5c-0.1-0.1-0.2-0.3-0.2-0.5
			c0-0.3-0.1-0.5-0.2-0.5c-0.1,0-0.1-0.1,0-0.4c0.1-0.1,0.1-0.2,0.1-0.3c0,0-0.1-0.1-0.1-0.1c-0.1-0.1-0.2-0.2-0.2-0.3
			c0-0.1-0.1-0.3-0.3-0.5c-0.2-0.2-0.4-0.3-0.6-0.1c-0.3,0.1-1.8,0.3-4.7,0.4h-0.7c-1.5,0-2.2-0.1-2.3-0.3c0-0.1-0.1-0.1-0.2-0.1
			c-0.1,0-0.2,0-0.2,0.1l0,0.1c0,0.1,0,0.1,0,0.1c0,0,0,0.1,0,0.2c0,0.1,0,0.2,0,0.2c0,0.2-0.1,0.3-0.3,0.3
			c-0.2,0.1-0.3,0.2-0.2,0.5c0.1,0.2,0.1,0.4,0.2,0.5c0.1,0.1,0.2,0.1,0.3,0.1c0.1,0,0.3,0,0.4,0c0.1,0,0.2,0,0.4,0
			c0.3,0,0.5,0.1,0.6,0.4c0.1,0.2,0.1,0.7,0.1,1.4c0,0.9-0.1,1.4-0.2,1.4c-0.1,0-0.1,0.2,0,0.4c0.1,0.2,0.1,0.4,0,0.6
			c-0.1,0.2-0.2,0.3-0.3,0.3c-0.1,0-0.1,0.1,0.1,0.2c0.1,0.1,0.1,0.3,0.1,0.6c0,0.5-0.1,1.5-0.2,2.8l-0.1,0.9h-0.6
			c-0.4,0-0.6,0.1-0.6,0.3c0,0.2-0.1,0.3-0.3,0.3c-0.1,0-0.2,0.1-0.2,0.3c0,0.3,0.1,0.5,0.3,0.6c0.2,0.1,0.3,0.2,0.3,0.4
			c0,0.1,0.2,0.1,0.7,0.1c0.5,0,0.8-0.1,0.9-0.3c0.1-0.1,0.5-0.2,1.2-0.2c0.5,0,0.9,0,1.3,0c0.7,0,1.1,0.1,1.2,0.2
			c0,0.1,0.2,0.1,0.4,0c0.2-0.1,0.7-0.2,1.5-0.2c0.8,0,1.3,0,1.5-0.1c0.2,0,0.3-0.1,0.5-0.3c0.2-0.2,0.3-0.3,0.2-0.5
			c0-0.2,0-0.3,0.1-0.4c0.1-0.1,0.2-0.3,0.2-0.8c0-0.3,0-0.5,0-0.6c0-0.1,0.1-0.1,0.2-0.1c0.2,0,0.3-0.2,0.3-0.5
			c0-0.2-0.1-0.4-0.2-0.6C211,790.3,210.9,790.2,210.7,790.2z"/>
		<path d="M231.3,782c-0.1,0-0.2,0-0.3,0.1c-0.2,0.1-0.3,0.1-0.3,0.1c-0.1,0-0.1-0.1-0.2-0.2c-0.1-0.2-0.3-0.3-0.4-0.3
			c-0.1,0-0.2-0.1-0.2-0.3c0-0.2-0.1-0.3-0.3-0.3c-0.2,0-0.3,0.1-0.3,0.3c0,0.2,0.1,0.3,0.2,0.3s0.2,0.1,0.2,0.3
			c0,0.2-0.1,0.3-0.2,0.3c-0.2,0-0.3-0.1-0.3-0.4c-0.1-0.2-0.2-0.4-0.3-0.4c-0.1,0-0.1,0-0.2,0.1c-0.2,0.2-0.2,0.3,0,0.3
			c0.1,0,0.2,0.1,0.2,0.1c0,0.1-0.1,0.2-0.4,0.2c-0.2,0-0.4,0-0.4-0.1s-0.1-0.1-0.4-0.1c-0.4,0-0.8,0.1-1.1,0.2
			c-0.4,0.2-0.6,0.4-0.6,0.7c0,0.3,0.3,0.5,0.8,0.6c0.4,0.1,0.6,0.1,0.6,0.2c0,0.1,0.1,0.1,0.3,0.1c0.3,0,0.5,0.2,0.6,0.6
			c0.1,0.4,0.2,1.2,0.2,2.4c0,1.4,0.1,2.2,0.1,2.4c0.1,0.1,0,0.3,0,0.6l-0.1,0.4l-0.5-0.5c-0.4-0.3-0.5-0.5-0.5-0.6
			c0-0.1-0.1-0.2-0.2-0.3c-0.1-0.1-0.3-0.2-0.4-0.4c-0.2-0.1-0.3-0.2-0.3-0.2c-0.1-0.1-0.3-0.2-0.3-0.2c-0.1,0-0.2-0.1-0.2-0.2
			c0-0.1-0.1-0.2-0.2-0.3c-0.1-0.1-0.3-0.2-0.4-0.2s-0.1-0.1-0.1-0.2c0-0.1-0.1-0.2-0.2-0.2c-0.1,0-0.1,0-0.1-0.1
			c0-0.1-0.1-0.2-0.4-0.5c-0.2-0.3-0.4-0.4-0.4-0.5c0-0.1-0.1-0.2-0.3-0.2c-0.2,0-0.3-0.1-0.5-0.2c-0.2-0.1-0.2-0.3-0.2-0.4
			c0-0.1-0.2-0.3-0.5-0.7c-0.3-0.4-0.5-0.6-0.5-0.7c0-0.1-0.1-0.2-0.3-0.4c-0.2-0.2-0.3-0.4-0.3-0.4c0-0.3-0.6-0.5-1.8-0.6
			c-0.6,0-0.9-0.1-0.9-0.1c-0.3,0-0.4,0.1-0.4,0.2c0,0.1,0,0.2,0,0.4c0,0.2,0,0.4,0.1,0.6c0.1,0.2,0.1,0.3,0.2,0.3
			c0.1,0,0.2,0.2,0.3,0.6c0.1,0.4,0.2,0.6,0.2,0.6c0.1,0,0.1,0.3,0.1,0.8c0,0.5,0,0.8-0.1,0.8c-0.1,0-0.1,0.1-0.1,0.4
			c0,0.2,0.1,0.6,0.2,1c0.1,0.2,0.1,0.6,0.1,1.1c0,0.7-0.1,1.1-0.2,1.1c-0.1,0-0.1,0.2-0.1,0.7c0,0.5,0,1.1-0.1,1.5
			c0,0.4-0.1,0.6-0.1,0.7c-0.1,0.1-0.2,0.2-0.4,0.2c-0.3,0.1-0.4,0.2-0.4,0.4c0,0.2,0.1,0.4,0.4,0.6c0.2,0.2,0.3,0.3,0.5,0.3
			s0.8,0,1.7,0c1,0,1.6,0,1.8-0.1c0.2-0.1,0.3-0.3,0.3-0.8c0-0.3-0.1-0.4-0.3-0.5c-0.2-0.1-0.3-0.1-0.3-0.2c0-0.1-0.2-0.1-0.6-0.1
			c-0.4,0-0.7-0.1-0.9-0.3c-0.2-0.2-0.2-0.3-0.1-0.4c0.1-0.1,0.2-0.2,0.2-0.6c0-0.3,0-0.5-0.1-0.5c-0.1-0.1-0.1-0.9-0.1-2.6
			c0-1.7,0.1-2.5,0.2-2.5c0.1,0,0.3,0.1,0.4,0.2c0.1,0.1,0.3,0.2,0.5,0.3c0.3,0.1,0.4,0.3,0.5,0.4c0,0.2,0.3,0.5,0.8,1.1
			c0.5,0.5,0.9,0.9,1.3,1.1c0.2,0.1,0.3,0.2,0.3,0.3c0,0.1,0.2,0.2,0.5,0.6c0.7,0.7,1.1,1.1,1.1,1.4c0,0.1,0.1,0.1,0.3,0.1
			c0.2,0,0.3,0,0.3,0.1c0,0.1,0.1,0.3,0.4,0.5c0.2,0.2,0.4,0.4,0.4,0.6c0,0.1,0.1,0.3,0.3,0.5c0.2,0.2,0.3,0.3,0.4,0.3
			c0.1,0,0.3,0.2,0.6,0.5c0.3,0.3,0.5,0.5,0.7,0.6c0.1,0.1,0.2,0.1,0.3,0.1c0.4,0,0.6-0.2,0.6-0.6c0-0.1,0-0.2,0-0.4
			c0-0.9-0.1-1.4-0.2-1.6c-0.1-0.1-0.1-0.5-0.1-1.3v-0.4c0-1,0-1.6-0.1-1.6c-0.1-0.1-0.2-0.4-0.2-1c0-0.5,0-0.8,0.1-0.8
			c0.1-0.1,0.2-0.2,0.2-0.5s0-0.4,0.1-0.4c0.1,0,0.1-0.1,0.1-0.4s0-0.4-0.1-0.4c-0.1,0-0.1-0.1-0.1-0.4c0-0.4,0.1-0.7,0.2-1
			c0.2-0.3,0.4-0.5,0.7-0.5c0.2,0,0.4-0.1,0.4-0.1s0.1-0.2,0.1-0.5v-0.2C231.7,782.3,231.5,782,231.3,782z"/>
		<path d="M263,785.7c-0.2-0.1-0.2-0.2-0.2-0.5c0-0.3,0-0.5-0.1-0.5c-0.1,0-0.1-0.1-0.1-0.4s-0.1-0.4-0.2-0.4
			c-0.1,0-0.2-0.1-0.3-0.3s-0.2-0.3-0.3-0.4c-0.1-0.1-0.2-0.2-0.2-0.4c0-0.2-0.1-0.3-0.4-0.3c-0.7,0-1-0.1-1-0.4
			c0-0.1-0.1-0.2-0.2-0.2c-0.1,0-0.2,0-0.2-0.1s-0.1-0.1-0.3-0.1c-0.2,0-0.3-0.1-0.4-0.2c0-0.1-0.5-0.2-1.5-0.2
			c-0.9,0-1.5,0.1-1.6,0.2c-0.1,0.1-0.2,0.2-0.4,0.2c-0.2,0-0.3,0.1-0.4,0.3c-0.1,0.2-0.3,0.4-0.6,0.4c-0.3,0-0.6,0.1-1.1,0.2
			c-0.5,0.1-0.7,0.3-0.8,0.5c0,0.2-0.2,0.4-0.5,0.7s-0.4,0.5-0.4,0.5c0,0.1-0.1,0.1-0.2,0.1c-0.1,0-0.2,0.1-0.3,0.4
			c-0.1,0.2-0.2,0.5-0.3,0.7c-0.2,0.3-0.2,0.8-0.2,1.8c0,1.2,0.1,2.1,0.4,2.9c0.5,1.4,0.9,2.2,1.2,2.3c0.2,0,0.3,0.1,0.3,0.3
			c0,0.2,0.2,0.2,0.4,0.2c0.2,0,0.4,0,0.4,0.1c0,0.1,0.1,0.1,0.3,0.1s0.3,0.1,0.3,0.4c0,0.2,0,0.3,0.1,0.4c0.1,0.1,0.2,0,0.4-0.1
			c0.1-0.1,0.2-0.1,0.3,0c0.2,0.1,0.9,0.2,2.2,0.2c1.1,0,1.7-0.1,1.7-0.2c0-0.1,0.3-0.2,0.7-0.2c0.4,0,0.6-0.1,0.6-0.2
			c0-0.2,0.1-0.3,0.2-0.3c0,0,0.2-0.1,0.4-0.3c0.3-0.2,0.4-0.3,0.5-0.3c0.1,0,0.2-0.1,0.2-0.3c0.1-0.2,0.2-0.3,0.3-0.3
			c0.1,0,0.2-0.1,0.3-0.3c0-0.2,0.2-0.3,0.4-0.3c0.2-0.1,0.3-0.1,0.3-0.2c0-0.1,0.1-0.1,0.2-0.1c0.1,0,0.2-0.2,0.2-0.6
			c0-0.3,0-0.5-0.1-0.5c-0.1,0-0.1-0.1,0-0.2c0.1-0.1,0.2-0.8,0.2-2.1c0-0.3,0-0.7,0-1.1C263.2,786,263.1,785.7,263,785.7z
			 M260.8,788.8c-0.1,0-0.2,0.2-0.2,0.4c0,0.3-0.1,0.4-0.2,0.5c-0.1,0.1-0.2,0.4-0.3,0.8c-0.1,0.4-0.1,0.6-0.3,0.6
			c-0.1,0-0.2,0-0.2,0.1c0,0.1-0.1,0.2-0.4,0.2c-0.3,0.1-0.4,0.2-0.4,0.3c0,0.1,0,0.2-0.1,0.2c-0.1,0.1-0.2,0.1-0.4,0.2
			c-0.1,0.1-0.2,0.1-0.3,0.1c0,0.1-0.2,0.1-0.4,0.1c-0.2,0-0.3,0.1-0.5,0.2c-0.1,0.1-0.2,0.1-0.4,0.1c-0.2,0-0.4,0-0.7-0.1
			c-0.5-0.1-1-0.3-1.3-0.6c-0.3-0.3-0.7-0.8-1-1.5c-0.3-0.5-0.4-0.9-0.5-1.1c0-0.2-0.1-0.7-0.1-1.4c0-0.7,0-1.1,0.1-1.4
			c0-0.2,0.1-0.5,0.3-0.8c0.3-0.5,0.6-0.9,1-1.3c0.4-0.4,0.8-0.6,1-0.7c0.3,0,0.5-0.1,0.5-0.3c0-0.1,0.1-0.2,0.2-0.2
			c0.1,0,0.2,0,0.2-0.1c0-0.1,0.1-0.1,0.3-0.1c0.2,0,0.3,0,0.3,0.1c0,0.1,0.3,0.1,0.9,0.1c0.5,0,0.8,0.1,0.8,0.2
			c0,0.1,0.1,0.2,0.3,0.3c0.2,0.1,0.3,0.2,0.3,0.3c0,0.1,0.1,0.2,0.3,0.3c0.3,0.1,0.5,0.4,0.5,0.8c0,0.2,0.1,0.5,0.3,0.8
			c0.2,0.3,0.3,0.7,0.3,1.1c0,0.5,0,0.7,0.1,0.8c0.1,0.1,0.1,0.2,0.1,0.4C261,788.6,260.9,788.7,260.8,788.8z"/>
		<path d="M280.8,783.9c0-0.3-0.1-0.5-0.2-0.6c-0.1-0.1-0.1-0.2,0-0.4c0.1-0.1,0.1-0.2,0.1-0.2c0-0.1-0.1-0.2-0.2-0.2
			s-0.2-0.2-0.2-0.3c0-0.2-0.1-0.3-0.3-0.5c-0.2-0.2-0.4-0.3-0.5-0.3c-0.1,0-0.2,0-0.2,0.1c0,0.1-0.3,0.1-0.9,0.2
			c-0.5,0.1-1.1,0.1-1.7,0.1c-0.6,0-0.9,0-1,0.1c-0.1,0-0.5,0.1-1.4,0.1c-0.9,0.1-1.8,0.2-2.7,0.3c-0.9,0.1-1.4,0.2-1.4,0.2
			c0,0,0,0.1,0,0.2c0,0.1,0,0.2,0.1,0.3c0.1,0.2,0.1,0.3,0.2,0.4s0.3,0.1,0.6,0.1c0.5,0,0.9,0.1,1,0.3c0.1,0.2,0.2,0.7,0.2,1.6
			c0,0.9-0.1,1.4-0.2,1.5c-0.1,0.1-0.1,0.2,0,0.4c0.1,0.3,0.2,0.5,0,0.7c-0.1,0.2-0.2,0.3-0.3,0.3c-0.1,0,0,0.1,0.1,0.2
			c0.1,0.1,0.1,0.3,0.1,0.6c0,0.1,0,0.4-0.1,0.8c-0.1,1.4-0.2,2.3-0.2,2.6c-0.1,0.4-0.1,0.5-0.3,0.6c-0.2,0.1-0.5,0.3-0.8,0.6
			l-0.5,0.6h5v-0.5c0-0.2,0-0.4-0.1-0.4c0-0.1-0.1-0.1-0.3-0.1c-0.2,0-0.4,0-0.4-0.1s-0.1-0.1-0.2-0.1c-0.1,0-0.2-0.1-0.3-0.3
			c0-0.1,0-0.4,0-1.2c0-1.2,0-2.1,0.1-2.8c0-0.1,0.5-0.1,1.4-0.1c0.8,0,1.3,0.1,1.5,0.2c0.3,0.1,0.4,0.4,0.4,0.9
			c0,0.3,0,0.5,0.1,0.5c0.1,0,0.1-0.1,0.3-0.2c0.1-0.1,0.3-0.2,0.5-0.1c0.2,0.1,0.3,0,0.3-0.2c0-0.2,0-0.3,0.1-0.4
			c0.1-0.1,0.1-0.2,0-0.2c-0.1-0.1-0.2-0.3-0.2-0.6c0-0.4,0.1-0.7,0.2-0.8c0.1-0.1,0.1-0.1,0.1-0.2c0-0.1,0-0.1-0.1-0.2
			c-0.1-0.1-0.1-0.2-0.1-0.2c0-0.1,0-0.1,0.1-0.2c0.2-0.1,0.2-0.2,0.2-0.4c0-0.3-0.4-0.4-1.1-0.4c-0.4,0-0.6,0.2-0.6,0.5
			c0,0.1,0,0.2,0.1,0.3c0.1,0.2,0,0.4,0,0.5c-0.1,0.1-0.4,0.2-1,0.3c-0.6,0.1-1.1,0.2-1.6,0.2h-0.5v-0.6c0-0.4,0.1-0.6,0.2-0.7
			c0.1-0.1,0.2-0.2,0.2-0.4c0-0.3-0.1-0.5-0.2-0.8c-0.1-0.2-0.2-0.4-0.2-0.4c0-0.1,0.1-0.1,0.2-0.3c0.2-0.2,0.3-0.4,0.2-0.6
			c0-0.1,0-0.1,0-0.2c0-0.1,0.1-0.2,0.4-0.3c0.3-0.1,0.8-0.1,1.6-0.1c0.7,0,1.1-0.1,1.1-0.1c0.3,0,0.5,0.1,0.7,0.2
			c0.2,0.2,0.3,0.3,0.5,0.4c0.2,0.1,0.3,0.2,0.3,0.3c0,0.1,0.1,0.3,0.3,0.4c0.2,0.1,0.4,0.3,0.5,0.6c0.1,0.4,0.4,0.5,0.8,0.5
			c0.1,0,0.2,0,0.3-0.1c0.1-0.1,0.2-0.2,0.2-0.6c0-0.3-0.1-0.5-0.2-0.5C280.8,784.4,280.8,784.2,280.8,783.9z"/>
		<path d="M310.6,782.2h-1c-0.5,0-0.9,0-1.1-0.1c-0.2-0.1-0.3-0.3-0.3-0.5c0-0.1,0-0.2-0.1-0.2c-0.1,0-0.2,0-0.2,0.1
			c-0.1,0.1-0.3,0.2-0.7,0.2c-0.2,0-0.2,0-0.2-0.1c0-0.1-0.2-0.1-0.7-0.1c-0.5,0-0.8,0.1-0.8,0.2c-0.1,0.1-0.2,0.2-0.4,0.2
			c-0.2,0-0.3,0-0.4,0c-0.1,0-0.1,0-0.2,0c-0.1,0-0.2,0-0.2,0c-0.3,0-0.5,0.1-0.8,0.4c-0.3,0.3-0.5,0.5-0.7,0.5
			c-0.2,0.1-0.4,0.2-0.5,0.5c-0.1,0.3-0.3,0.4-0.6,0.4c-0.5,0.1-0.7,0.4-0.8,1c0,0.2-0.1,0.4-0.2,0.6c-0.1,0.2-0.2,0.5-0.2,0.6
			c0,0.3-0.1,0.4-0.2,0.5c-0.1,0.1-0.1,0.2-0.1,0.4c0,0.2-0.1,0.4-0.2,0.5c-0.1,0.1-0.2,0.6-0.2,1.5c0,1,0.1,1.6,0.2,1.6
			c0.1,0,0.1,0.1,0.1,0.3c0,0.1,0,0.2-0.1,0.2c-0.1,0,0,0.1,0.2,0.4c0.2,0.2,0.4,0.4,0.5,0.4c0.1,0,0.1,0.1,0.2,0.4
			c0.1,0.2,0.3,0.4,0.6,0.8c0.4,0.3,0.6,0.5,0.9,0.6c0.2,0.1,0.2,0.1,0.2,0.2c0,0.1,0.3,0.2,1,0.3c0.6,0.1,1.4,0.1,2.1,0.1
			c1.1,0,1.8-0.1,2-0.3c0.2-0.2,0.5-0.3,0.8-0.4c0.4-0.1,0.7-0.2,0.8-0.5c0.2-0.3,0.4-0.6,0.7-0.9c0.3-0.3,0.5-0.5,0.5-0.6
			c0-0.1-0.1-0.2-0.3-0.3c-0.4-0.2-0.6-0.3-0.8-0.3c-0.1,0-0.2,0.1-0.3,0.3c-0.1,0.3-0.2,0.4-0.4,0.4c-0.2,0-0.4,0.1-0.7,0.4
			c-0.2,0.3-0.4,0.3-0.5,0.2c-0.1-0.1-0.2-0.1-0.4,0.1c-0.1,0.1-0.4,0.2-0.7,0.2c-0.1,0-0.4,0-0.9-0.1c-0.7,0-1.1-0.1-1.3-0.2
			c-0.2-0.1-0.3-0.3-0.3-0.6c0-0.2-0.2-0.5-0.6-0.9c-0.3-0.3-0.5-0.5-0.6-0.7c-0.1-0.2-0.2-0.5-0.3-1c-0.1-0.7-0.2-1.1-0.3-1.1
			c-0.1,0-0.1-0.1-0.1-0.2c0-0.1,0-0.2,0.1-0.3c0.2,0,0.3-0.7,0.3-1.9c0-0.2,0.1-0.3,0.3-0.3c0.2,0,0.3-0.1,0.2-0.3
			c-0.1-0.3,0.1-0.4,0.4-0.6c0.3-0.1,0.5-0.3,0.5-0.4c0-0.1,0.1-0.3,0.3-0.4c0.2-0.1,0.5-0.2,0.7-0.2c0.2,0,0.3-0.1,0.3-0.2
			c0-0.1,0.2-0.2,0.7-0.3c0.1,0,0.1,0,0.2,0c0.1,0,0.1,0,0.2,0c0.6,0,1,0.2,1.2,0.5c0.1,0.2,0.3,0.3,0.6,0.4c0.2,0,0.3,0.1,0.3,0.1
			c0,0.1,0.1,0.1,0,0.3c-0.1,0.2,0,0.3,0.1,0.4c0.1,0.1,0.3,0.4,0.4,1c0.1,0.4,0.1,0.7,0.2,0.8c0.1,0.1,0.2,0.2,0.4,0.3
			c0.3,0.1,0.4,0.2,0.4,0.4c0,0.1,0,0.1,0,0.1c0,0,0.1,0,0.1,0c0.1-0.1,0.2-0.6,0.2-1.6c0-1,0.1-1.6,0.2-1.6s0.1-0.3,0-0.8
			L310.6,782.2z"/>
		<path d="M328.9,783h-0.2c-0.4,0-0.8-0.1-1-0.3c-0.2-0.1-0.3-0.2-0.4-0.2c0,0-0.1,0.1-0.1,0.2c0,0.1,0,0.2-0.1,0.2
			c-0.1,0-0.4,0-0.8,0.1c-0.6,0-1,0-1,0.1c-0.1,0.1-0.1,0.3-0.1,0.7l0,0.6l0.8,0.1l0.8,0v2.3c0,1.5,0,2.3,0.1,2.4
			c0.1,0,0.1,0.1-0.1,0.3c-0.1,0.2-0.2,0.4-0.2,0.5v0.2c0,0.3,0,0.6-0.1,0.9c-0.1,0.3-0.2,0.5-0.3,0.5c-0.1,0.1-0.2,0.1-0.2,0.3
			c0,0.1-0.1,0.3-0.3,0.4c-0.2,0.2-0.4,0.2-0.6,0.2c-0.3,0-0.4,0.1-0.5,0.2c-0.1,0.1-0.2,0.2-0.4,0.2c-0.1,0-0.2,0-0.5-0.1
			c-0.5-0.1-0.7-0.1-0.8-0.2c0-0.1-0.2-0.1-0.4-0.1c-0.2,0-0.4-0.1-0.8-0.2c-0.2-0.1-0.3-0.2-0.4-0.3c-0.1-0.1-0.1-0.2-0.1-0.5V791
			v-0.3c0-0.4,0-0.6-0.1-0.6c-0.1,0-0.2-0.1-0.1-0.3c0-0.2,0.1-0.3,0.2-0.3c0.1-0.1,0.1-0.1,0-0.2c-0.1,0-0.1-0.1-0.1-0.2
			c0-0.1,0-0.2,0-0.3c0-0.1,0.1-0.1,0.1-0.1c0.1,0,0.1-0.3,0.1-0.9c0-0.9-0.1-1.4-0.2-1.5c-0.1-0.1-0.1-0.2,0-0.3
			c0.1-0.1,0.2-0.4,0.2-0.8c0-0.1,0-0.2,0-0.3c0-0.1-0.1-0.2-0.1-0.3c0-0.1,0-0.1,0-0.1c0-0.1,0.5-0.1,1.4-0.1c0.1,0,0.1,0,0.2,0
			c0.1,0,0.1,0,0.2,0h0c0,0,0.1-0.1,0.1-0.2c0-0.1,0-0.3-0.1-0.6c0-0.2-0.1-0.4-0.3-0.5c-0.2-0.1-0.5-0.1-1-0.1
			c-0.1,0-0.6,0-1.5,0.1c-1.4,0.1-2.1,0.2-2.3,0.4c-0.2,0.2-0.2,0.4-0.2,0.5c0,0.4,0.3,0.6,1,0.7c0.5,0.1,0.7,0.2,0.7,0.4
			c0,0.1-0.1,0.2-0.2,0.3c-0.2,0.1-0.2,0.4-0.1,0.7c0.1,0.3,0.1,0.6,0,0.6c-0.1,0.1-0.2,0.1-0.3,0.1c-0.1,0-0.1,0-0.1,0.1
			c0,0.2,0.1,0.4,0.4,0.5c0.2,0.1,0.4,0.2,0.4,0.4c0,0.1-0.1,0.2-0.2,0.3c-0.1,0.1-0.2,0.4-0.2,0.9v0.4c0,0.8,0.1,1.3,0.2,1.3
			c0.1,0.1,0.1,0.2,0.1,0.5c0,0.2,0,0.3-0.1,0.3c-0.1,0-0.1,0.1-0.2,0.4c-0.1,0.3,0,0.4,0.2,0.5c0.1,0.1,0.3,0.3,0.4,0.6
			c0.1,0.3,0.2,0.5,0.3,0.5c0.1,0,0.1,0.1,0.2,0.4c0.1,0.3,0.2,0.4,0.4,0.4c0.2,0,0.4,0,0.5,0.1c0.1,0.1,1,0.2,2.5,0.2
			c1.3,0,1.9-0.1,1.9-0.2s0.1-0.2,0.2-0.2c0.1,0,0.2-0.1,0.3-0.2c0.1-0.1,0.2-0.2,0.4-0.2c0.2,0,0.3-0.1,0.3-0.3
			c0-0.1,0.1-0.2,0.1-0.3c0.1,0,0.2,0,0.5,0h0.1c0.3,0,0.5,0,0.5-0.1c0-0.1-0.1-0.1-0.2-0.2c-0.1-0.1-0.2-0.2-0.2-0.3
			c0-0.2,0.1-0.4,0.2-0.6c0.2-0.2,0.2-0.4,0.1-0.4c-0.1,0-0.2-0.1-0.2-0.2c0-0.1,0-0.2,0.1-0.2c0.1,0,0.2-0.2,0.2-0.4
			c0-0.2,0.1-0.6,0.1-0.9c0-0.4,0-0.6,0-0.6c0-0.1,0-0.5,0.1-1.1c0-0.6,0-1.2,0.1-1.7c0-0.5,0.1-0.8,0.2-0.9c0.1-0.1,0.2-0.2,0-0.2
			c-0.1-0.1-0.2-0.1-0.2-0.2c0-0.1,0.1-0.3,0.3-0.4c0.2-0.1,0.4-0.2,0.6-0.2c0.1,0,0.2,0,0.2,0c0,0,0.1,0,0.2,0
			c0.3,0,0.4-0.1,0.4-0.3c0-0.1,0-0.1-0.1-0.2c-0.1-0.1-0.1-0.2,0-0.2c0.1,0,0.1-0.1,0.1-0.2C330,783.1,329.6,783,328.9,783z"/>
		<path d="M346.6,782.4c-0.1,0-0.2,0-0.2-0.1s-0.1-0.2-0.4-0.3c-0.3-0.1-0.4-0.3-0.5-0.5l-0.2-0.3c-0.1-0.1-0.2-0.1-0.2,0.1
			c0,0.1-0.3,0.1-0.8,0.1c-0.6,0-0.9,0-0.9-0.1s-0.1-0.1-0.3-0.1c-0.5,0-0.8-0.1-0.8-0.4c0-0.1-0.1-0.2-0.3-0.2s-0.3,0.1-0.2,0.3
			c0,0,0,0,0,0.1c0,0,0,0,0,0.1c0,0.1-0.6,0.2-1.8,0.2h-1.8l-0.5,0.5c-0.3,0.3-0.5,0.5-0.5,0.7c0,0.2,0.2,0.4,0.7,0.4
			c0.2,0,0.3,0,0.3,0.1s0,0.1,0.1,0.1c0.2,0,0.4,0.2,0.6,0.5c0.2,0.3,0.3,0.7,0.3,1.2c0,0.4,0.1,0.6,0.1,0.6c0,0.2-0.1,0.4-0.2,0.5
			c-0.2,0.1-0.2,0.2-0.1,0.3c0.1,0.1,0.2,0.3,0.2,0.7c0,0.3-0.1,0.5-0.2,0.5c-0.2,0-0.2,0,0,0.1c0.1,0.1,0.1,0.3,0,0.6
			c-0.1,0.3-0.1,0.5,0.1,0.6c0.1,0.1,0.1,0.2,0.1,0.3c0,0.2-0.1,0.4-0.2,0.5c-0.1,0.1-0.1,0.6-0.2,1.6l0,1.5l-0.4,0.2
			c-0.2,0.1-0.5,0.2-1.1,0.2c-0.3,0-0.5,0.1-0.5,0.1c-0.1,0.1-0.1,0.2-0.1,0.4c0,0.2,0.2,0.5,0.6,0.8c0.2,0.1,0.3,0.2,0.5,0.2
			c0.2,0,0.3-0.1,0.3-0.2c0.1-0.1,0.8-0.2,2.1-0.2c1.4-0.1,2.1-0.1,2.2-0.3c0.1-0.1,0.2-0.2,0.3-0.2c0.1,0,0.2-0.1,0.2-0.2
			c0-0.1-0.1-0.2-0.4-0.2c-0.3,0-0.4-0.1-0.5-0.3c0-0.2-0.2-0.3-0.5-0.4c-0.4-0.1-0.5-0.2-0.5-0.4c0-0.1,0-0.2,0.1-0.3
			c0.2-0.2,0.2-0.3,0.1-0.4c-0.1,0-0.2-0.6-0.2-1.6c0-0.3,0-0.6,0-1c0-0.3,0-0.4,0.1-0.5c0-0.1,0.1-0.1,0.2-0.1c0.2,0,0.5,0,0.8,0.1
			c0.3,0.1,0.5,0.2,0.6,0.3c0.1,0.1,0.7,0.2,1.7,0.2c0.8,0,1.2,0,1.2-0.1c0.1-0.1,0-0.2-0.2-0.3c-0.2-0.1-0.4-0.2-0.5-0.4
			c-0.1-0.1-0.2-0.2-0.2-0.2c0,0,0.1-0.1,0.3-0.1c0.3-0.1,0.4-0.1,0.4-0.2s0.1-0.2,0.4-0.3c0.3-0.1,0.4-0.2,0.4-0.4
			c0-0.5,0.1-0.7,0.3-0.7c0.1,0,0.2-0.1,0.4-0.2c0.2-0.2,0.2-0.7,0.2-1.5c0-1-0.1-1.5-0.3-1.7C346.9,782.5,346.7,782.4,346.6,782.4z
			 M345,786.1c0,0-0.1,0.1-0.4,0.1h-0.1c0,0-0.1,0-0.1,0c-0.1,0-0.1,0,0,0.1c0.1,0.1,0.2,0.1,0.2,0.2c0,0.1-0.1,0.3-0.3,0.5
			c-0.2,0.2-0.5,0.3-0.7,0.3c-0.3,0-0.6,0.1-1.1,0.2c-0.1,0-0.2,0-0.3,0c-0.2,0-0.4-0.1-0.7-0.3c-0.2-0.2-0.3-0.3-0.4-0.3
			c0-0.1,0-0.1,0.1-0.2c0.1-0.1,0.2-0.7,0.2-1.6v-1.2c0-0.3,0.1-0.5,0.2-0.7s0.3-0.4,0.4-0.4h0.1l0.4,0.1c0.3,0,0.5,0.1,0.8,0.1
			c0.2,0.1,0.4,0.1,0.4,0.1c0,0.1,0.1,0.1,0.4,0.2c0.3,0.1,0.4,0.2,0.4,0.3c0,0.1,0.1,0.3,0.2,0.4c0.1,0.1,0.2,0.2,0.1,0.3
			c-0.1,0.1-0.1,0.3,0.1,0.6c0.1,0.2,0.2,0.4,0.2,0.6C345.1,785.3,345.1,785.6,345,786.1z"/>
		<path d="M338.9,779.6c0-0.1-0.1-0.1-0.3-0.1c-0.2,0-0.3,0-0.3,0.1c0,0.1,0.1,0.2,0.3,0.2C338.9,779.8,338.9,779.7,338.9,779.6z"/>
		<path d="M343.3,780.6C343.4,780.6,343.4,780.5,343.3,780.6c0.1-0.1,0-0.1-0.2-0.1c-0.2,0-0.3,0.1-0.3,0.2
			C343,780.7,343.1,780.7,343.3,780.6C343.3,780.6,343.3,780.6,343.3,780.6z"/>
		<path d="M356.8,788.7c0-0.1,0-0.2-0.1-0.2c-0.1,0-0.1,0-0.1,0.1l0.1,0.2C356.8,789,356.8,788.9,356.8,788.7z"/>
		<path d="M362.7,789.5c0-0.6-0.1-0.9-0.2-1.1c-0.1-0.2-0.3-0.4-0.6-0.5c-0.3-0.1-0.5-0.3-0.5-0.4c-0.1-0.1-0.3-0.3-0.9-0.6
			c-0.5-0.3-1-0.5-1.3-0.6c-0.2-0.1-0.5-0.2-0.9-0.5c-0.4-0.3-0.6-0.4-0.6-0.5c0-0.1-0.1-0.2-0.2-0.3c-0.2-0.1-0.2-0.2-0.2-0.3
			c0,0,0-0.1,0-0.1c0.1-0.1,0.1-0.2,0.1-0.3c0-0.1,0-0.3-0.1-0.6c0-0.1,0-0.2,0-0.2c0,0,0.2-0.1,0.3-0.1c0.3,0,0.4-0.1,0.4-0.2
			c0-0.1,0.1-0.2,0.4-0.4c0.3-0.2,0.4-0.3,0.4-0.3c0-0.1,0.1-0.1,0.4-0.2c0.1,0,0.1,0,0.2,0c0.4,0,0.8,0.2,1.2,0.5
			c0.5,0.3,0.7,0.6,0.7,0.9c0,0.2,0.1,0.4,0.3,0.5c0.2,0.1,0.3,0.3,0.3,0.4s0.1,0.3,0.2,0.5s0.3,0.3,0.4,0.3c0,0,0,0,0.1,0
			c0.1-0.1,0.1-0.7,0.2-2v-0.8c0-0.6-0.1-0.9-0.2-0.9c-0.1,0-0.1,0-0.1,0c-0.3,0.1-0.6,0.2-0.8,0.2c-0.3,0-0.6-0.1-1-0.3
			c-0.4-0.2-0.6-0.3-0.7-0.3c0,0-0.1,0-0.2,0.1c-0.3,0.1-0.6,0.1-0.8,0.1c-0.3,0-0.4,0-0.5,0.1c0,0.1-0.1,0.2-0.3,0.2
			c-0.2,0-0.4-0.1-0.5-0.2c-0.1-0.1-0.3-0.2-0.5-0.2h0c-0.1,0-0.1,0-0.1,0c-0.1,0-0.1,0-0.1,0c0,0,0.1,0,0.1,0
			c0.1,0.1,0.2,0.1,0.2,0.2c0,0.2-0.2,0.3-0.5,0.4c-0.3,0.1-0.4,0.2-0.4,0.4c0.1,0.2,0,0.3-0.2,0.4c-0.3,0.1-0.6,0.5-1.1,1.1
			c-0.1,0.2-0.2,0.4-0.2,0.6c0,0,0,0.3,0.1,0.8c0.1,0.7,0.3,1.1,0.4,1.3c0.1,0.2,0.4,0.4,0.7,0.7c0.4,0.3,0.6,0.4,0.8,0.4
			c0.1,0,0.3,0.1,0.6,0.4c0.4,0.3,0.9,0.6,1.7,0.8c0.5,0.1,0.8,0.3,1.1,0.6c0.2,0.2,0.3,0.4,0.5,0.7c0.1,0.3,0.2,0.5,0.2,0.7
			c0,0.1,0,0.1-0.1,0.2c-0.1,0-0.1,0.2-0.1,0.4c0.1,0.2,0,0.4-0.2,0.6c-0.1,0.1-0.2,0.3-0.2,0.4c0,0.2-0.5,0.4-1.4,0.5
			c-0.1,0-0.3,0-0.6,0c-0.9,0-1.7-0.4-2.2-1.2c-0.3-0.4-0.5-0.8-0.5-1c0,0,0-0.1,0-0.2c0-0.1,0-0.2,0-0.2c0,0-0.1-0.1-0.1-0.1
			c-0.1,0-0.1,0-0.1-0.1c0.1-0.3-0.1-0.5-0.4-0.6c-0.1,0-0.2-0.1-0.3-0.1c-0.3,0-0.4,0.2-0.5,0.5c-0.1,1.2-0.1,1.9-0.2,1.9
			c-0.1,0.1-0.1,0.4-0.2,0.8c0,0.1,0,0.3,0,0.4c0,0.2,0.1,0.4,0.3,0.6c0.1,0.1,0.2,0.2,0.3,0.2c0,0,0.1,0,0.2-0.2
			c0.1-0.2,0.2-0.3,0.2-0.4c0-0.3,0.2-0.3,0.5-0.1c0.9,0.5,1.8,0.7,2.9,0.7c0.5,0,1.1-0.1,1.6-0.2c0.6-0.1,1.1-0.3,1.4-0.6
			c0.3-0.3,0.5-0.5,0.5-0.5c0-0.1,0.1-0.2,0.2-0.3c0.2-0.1,0.3-0.4,0.3-0.9c0.1-0.5,0.1-0.7,0.2-0.7c0.1,0,0.1,0,0-0.1
			C362.8,790.6,362.7,790.2,362.7,789.5z M358.3,788C358.2,788,358.2,787.9,358.3,788c-0.1-0.1-0.1-0.1,0-0.1S358.4,787.9,358.3,788
			C358.4,787.9,358.4,788,358.3,788z"/>
		<path d="M503.8,18.2c-1.6-17.9-18.7-16.3-31.6-16.3c-45.9,0-91.8,0-137.6,0c-63.2,0-126.3,0-189.5,0c-40.6,0-81.2,0-121.8,0
			c-2.6,0-5.3-0.2-8,0.2c-9.5,1.2-15,9.2-15.2,18.2c-0.2,7.3,0,14.5,0,21.8c0,37.4,0,74.9,0,112.3c0,57,0,114.1,0,171.1
			c0,64.3,0,128.6,0,192.9c0,58.4,0,116.7,0,175.1c0,40.1,0,80.2,0,120.3c0,9.1,0,18.2,0,27.3c0,11.7,6.7,20.5,19.2,20.7
			c35.9,0.6,71.9,0,107.9,0c62.4,0,124.9,0,187.3,0c49.7,0,99.5,0,149.2,0c7.6,0,15.2,0,22.9,0c0.4,0,0.8-0.1,1.2-0.2
			c14.4-1.8,16.1-13.8,16.1-25.5c0-11.4,0-22.8,0-34.3c0-43.4,0-86.9,0-130.3c0-59.9,0-119.8,0-179.8c0-63.9,0-127.7,0-191.6
			c0-55.3,0-110.6,0-165.9c0-33.7,0-67.3,0-101C503.9,28.3,504.2,23.2,503.8,18.2z M486.6,852.8c-28.3,0-56.6,0-84.9,0
			c-59.9,0-119.8,0-179.7,0c-54,0-108,0-162,0c-13.1,0-26.1,0-39.2,0c-5.6,0-11-1.3-11.7-8.3c-0.2-1.5,0-3,0-4.5c0-26.5,0-53,0-79.5
			c0-50,0-100,0-149.9c0-61.8,0-123.6,0-185.4c0-61.4,0-122.7,0-184.1c0-48.9,0-97.7,0-146.6c0-24.2-0.8-48.6,0-72.7
			c0.2-5.3,1.6-10.1,8.3-10.8c2.2-0.2,4.5,0,6.7,0c14.8,0,29.6,0,44.5,0c55.6,0,111.3,0,166.9,0c58.9,0,117.8,0,176.7,0
			c18.9,0,37.9,0,56.8,0c8.1,0,24.7-3.1,25.9,8.4c0.5,5.2,0,10.8,0,16.1c0,13.5,0,27.1,0,40.6c0,45.5,0,91.1,0,136.6
			c0,60.1,0,120.2,0,180.3c0,62.6,0,125.1,0,187.7c0,52.8,0,105.6,0,158.4c0,31.4,0,62.7,0,94.1C494.8,840.3,496.9,852,486.6,852.8z
			"/>
		<path d="M460,790.9c1.2,0.1,2.4-0.7,2.4-2.2c0-23.7,0-47.4,0-71.1c0-56.4,0-112.8,0-169.2c0-68.7,0-137.4,0-206
			c0-59,0-117.9,0-176.9c0-19.6,0-39.2,0-58.8c0-8.9,1.3-19,0-27.9c-0.1-0.4,0-0.8,0-1.2c0-0.8-0.3-1.3-0.8-1.7
			c0.1-1.2-0.6-2.5-2.2-2.6c-13.1-0.5-25.3-13.8-25.8-26.7c0-0.5-0.2-0.8-0.4-1.1c-0.3-0.6-1-1.1-1.9-1.1c-40.5,0-80.9,0-121.4,0
			c-64.5,0-129,0-193.6,0c-14.9,0-29.7,0-44.6,0c-0.9,0-1.6,0.5-1.9,1.1c-0.2,0.3-0.3,0.7-0.4,1.2C69.1,59.5,57,72.8,43.9,73.3
			c-1.8,0.1-2.5,1.9-2,3.2c-0.2,0.3-0.2,0.6-0.2,1c0,23.7,0,47.4,0,71.1c0,56.4,0,112.8,0,169.2c0,68.7,0,137.4,0,206
			c0,59,0,117.9,0,176.9c0,19.6,0,39.2,0,58.8c0,8.9-1.3,19,0,27.9c0.1,0.4,0,0.8,0,1.2c0,0.9,0.5,1.6,1.1,1.9
			c0.3,0.2,0.7,0.3,1.2,0.4c13,0.5,25.3,13.3,25.8,26.2c0,0.5,0.2,0.8,0.4,1.1c0.3,0.6,1,1.1,1.9,1.1c40.5,0,80.9,0,121.4,0
			c64.5,0,129,0,193.6,0c14.9,0,29.7,0,44.6,0c0.9,0,1.6-0.5,1.9-1.1c0.2-0.3,0.3-0.7,0.4-1.2c0.5-12.9,12.7-25.7,25.8-26.2
			C459.6,791,459.8,790.9,460,790.9z M429.3,814.9c-39.8,0-79.6,0-119.3,0c-64.5,0-129,0-193.6,0c-14.2,0-28.3,0-42.5,0
			c-1.7-13.9-13.9-26.5-27.8-28.3c0-23,0-46,0-69.1c0-56.4,0-112.8,0-169.2c0-68.7,0-137.4,0-206c0-59,0-117.9,0-176.9
			c0-19.6,0-39.2,0-58.8c0-8.9,1.3-19,0-27.9c-0.1-0.4,0-0.8,0-1.2c14-1.8,26.1-14.9,27.8-28.7c39.8,0,79.5,0,119.3,0
			c64.5,0,129,0,193.6,0c14.2,0,28.3,0,42.5,0c1.7,14.1,14.3,27.4,28.5,28.8c0,23.7,0,47.3,0,71c0,56.4,0,112.8,0,169.2
			c0,68.7,0,137.4,0,206c0,59,0,117.9,0,176.9c0,19.6,0,39.2,0,58.8c0,8.6-1.2,18.4-0.1,27C443.6,788.1,431.1,800.9,429.3,814.9z"/>
		<polygon points="51.7,807.5 44,812.7 41.2,798.7 38.4,812.7 30.7,807.5 35.9,815.3 21.8,818 35.9,820.8 30.7,828.5 38.4,823.3 
			41.2,837.4 43.9,823.4 51.7,828.5 46.5,820.8 60.5,818 46.5,815.3 		"/>
		<polygon points="468.1,815.3 473.3,807.5 465.5,812.7 462.8,798.7 460,812.7 452.3,807.5 457.5,815.3 443.4,818 457.5,820.8 
			452.3,828.5 460,823.3 462.8,837.4 465.5,823.4 473.3,828.5 468.1,820.8 482.1,818 		"/>
		<polygon points="30.7,56.3 38.4,51.1 41.2,65.1 44,51.1 51.7,56.3 46.5,48.5 60.5,45.8 46.5,43 51.7,35.3 43.9,40.4 41.2,26.4 
			38.4,40.5 30.7,35.3 35.9,43 21.8,45.8 35.9,48.5 		"/>
		<polygon points="473.3,35.3 465.5,40.4 462.8,26.4 460,40.5 452.3,35.3 457.5,43 443.4,45.8 457.5,48.5 452.3,56.3 460,51.1 
			462.8,65.1 465.5,51.1 473.3,56.3 468.1,48.5 482.1,45.8 468.1,43 		"/>
		<path d="M395.9,383c-2.3-2.3-2.2-15.3-3.9-15.3s-1.1,12.5-3.9,15.3c-2.8,2.8-11.7,1.6-11.7,3.4c0,1.8,9,0.7,11.7,3.4
			c2.7,2.7,2.2,15.3,3.9,15.3s1.4-12.8,3.9-15.3c2.5-2.5,11.7-1.9,11.7-3.4C407.5,384.9,398.2,385.3,395.9,383z"/>
		<path d="M363.3,613.9C363.3,613.9,363.3,613.9,363.3,613.9C363.3,613.9,363.3,613.9,363.3,613.9L363.3,613.9z"/>
		<path d="M402.4,677.9c-4.8-2.4-8.8-6.2-12.6-9.9c2.9-2.1,5-5.5,5.7-9.7c0.1-0.7-0.4-1.3-1-1.7c-9.4-5.1-18.2-12.9-24.8-21.3
			c-2.4-8.7-4-17.9-3.7-26.9c0.1-2.6,0.1-5.1,0.2-7.7c0.2-5.9,0.1-19.8,0.4-25.7c0.8-19.3,1.5-31.1,4.6-50.1
			c2.1-12.6,5-25.1,6.7-37.8c1-7.1,0.7-13.9-0.4-21c-0.8-4.9-1-10.8-4.2-14.9c-0.2-0.2-0.4-0.4-0.7-0.5c-0.6-4.9-2.3-9.5-6-13.5
			c-0.1-0.1-0.1-0.1-0.2-0.2c0.2-3.3,0.1-6.5-0.8-9.5c-1.9-6.1-7.5-10.9-12.6-14.6c0.8-15.6-1.3-31.5-9.9-44.1
			c-0.4-0.6-1.6-0.9-2.2-0.3c-7.5,7.6-6.8,19.9-7.6,29.7c-0.1,1.5-0.3,2.9-0.5,4.4c-6.1-3.4-12.7-5.8-19.1-8.6c-2.4-1-7-4.7-9.1-1.7
			c-2.1,3,0.8,9.1,2.1,11.8c4.4,9.2,12,16.5,20.1,22.5c-1.7,5-3.7,10-5.7,14.9c-5.5,13.5-12.2,26.5-17.4,40
			c-3.2,8.2-5.7,16.7-8.5,25c-2.2-15.6,0.9-31.6,0.3-47.3c-0.5-13.2-2-29.7-12.1-39.4c-0.6-0.6-1.7-0.3-2.2,0.3
			c-4.3,5.5-3.4,14.6-4.2,21.1c-1.2,9.2-5,17.6-6.7,26.6c-3.4,18.1-4,37.1-3.5,55.5c1,41.5,14.3,81.6,13.5,123.1
			c-4.4,8.9-13.6,20-22.7,24c-0.6,0.3-1.1,1-1,1.7c0.7,5.1,4.1,8.6,8.4,10.2c-3.1,3.6-6.5,7.4-10.9,9.3c-0.6,0.3-1.1,1-1,1.7
			c1.4,9.8,14.4,12.8,22,8c2.6,12,20.2,12.1,28.4,4.3c8.6,10,21.5,7.4,29.8-1.8c3.2,2.8,7.6,4.3,11.8,4.6c9,0.6,14.7-3.4,17.6-11.3
			c8.3,5.1,18,2.2,21.4-7.2c8.4,2.5,17.4-1.5,19.2-10.6C403.5,678.8,403,678.2,402.4,677.9z M363.2,435.3
			c-0.1,6.7-1.2,13.7-1.9,20.4c-1,8.7-3.2,17.3-5.2,25.9c-2.8,2-7.6,2.3-10.8,2.4c-3.1,0.1-7,0.2-10-0.8c1.6-4.2,3.2-8.4,4.6-12.7
			c3.8-11.6,7.8-23.3,10.2-35.3c1.2-5.8,2.2-12.1,2.7-18.4C358.8,421.6,363.3,427,363.2,435.3z M311.3,406.3
			c-1.4-2.4-4-6.7-4.1-10.1c4.1,4,14.1,10,19.6,11.1c2.1,0.4,3.2-0.9,3.7-2c0.6,0.3,1.2,0.6,1.7,0.9c0,0,0,0,0.1,0
			c-1,6-2.6,11.9-4.4,17.6C321.4,418.9,315.4,413.3,311.3,406.3z M275,574.6c-4-25.1-6.1-50.4-4.8-75.8c0.6-12.4,1.3-25.6,4.9-37.6
			c0.5-1.8,1.1-3.5,1.6-5.3c2,0.5,6.9,1.3,8.5-3.4c1.4-4.2,3.5-12.1,3.7-17.7c3.6,10.1,3.7,22.4,3.6,31.9c-0.3,15.5-3,31.2,0.7,46.5
			c0.3,1.4,2.4,2,3,0.4c3.4-9.5,6.3-19.2,9.8-28.7c4.7-12.8,11.2-25,16.3-37.6c2.7-6.6,5.4-13.3,7.8-20.1c0.1-0.2,0.2-0.5,0.2-0.7
			c1.7-5,3.2-10.1,4.3-15.3c1.4-6.5,1.7-13,2.2-19.7c0.3-4.3,0.7-9.5,2.3-13.9c0.5,5.8,3.7,14.9,5.1,17.7c1.2,2.5,3.9,2.6,5.5,2.3
			c1.5,14.7-0.9,30.4-4.2,43.6c-3,12.1-7,24.2-11.2,35.9c-2.3,6.5-5,12.7-6.6,19.5c-0.5,2,2.7,2.3,3.1,0.4c0.9-3.7,2-7.4,3.3-11
			c3.6,1.1,7.9,1.1,11.6,1c2.8-0.1,6.4-0.4,9.4-1.5c-0.9,3.8-1.8,7.7-2.5,11.6c-0.4,2,2.7,2.4,3.1,0.4c0.9-4.7,1.9-9.3,2.9-14
			c0.3-0.4,0.4-0.8,0.3-1.2c2.5-11.2,5.1-22.3,6.2-33.9c0.2-2.2,0.6-4.5,0.9-6.8c5.2,7.5,3.8,16.9,3.4,25.9
			c-0.4,9.6-1.6,19.1-3.2,28.6c-0.3,2,2.8,2.4,3.1,0.4c1.9-11.3,2.8-22.6,3.5-34.1c0.1-1.7,0.2-3.3,0.2-4.9
			c1.5,4.7,1.9,10.8,2.3,14.8c0.8,8.4-0.7,16.4-2.2,24.6c-1.9,10.4-3.9,20.8-5.5,31.2c-2.9,18.3-3.9,36.7-4.2,55.2
			c-0.1,5,0,10,0,15.1c0,3.3,0,6.6,0,9.9c0,4.2,0,8,0.6,12.2c0.8,5.6,1.6,9.3,2.6,14.3c0,0.2,0,0.4,0.1,0.6c-0.8,0.7-2.2,1.4-3,1.9
			c-3.2,1.9-6.5,3.4-10,4.6c-11.7,4.3-24.8,7-37.3,7.6c-6.4,0.3-12.8-0.1-19.1-0.9c-3.3-0.4-10.5-0.5-13.3-2.6c-1-0.8-0.4-1-0.4-3.6
			c0-2,0-4-0.1-6c-0.2-6.6-0.6-13.3-1.3-19.9C280.6,602.5,277.3,588.7,275,574.6z M259.7,673.3c0.2-0.6,3.1-1.9,3.6-2.3
			c1.9-1.4,3.7-3.1,5.5-4.7c5.2-5,10.4-10.8,13.8-17.3c15.4,4.7,32.6,4.8,48.3,2c13.1-2.4,25.9-5.6,37.2-12.8
			c4.7,5.7,10.3,10.8,16.2,15.3c1.7,1.3,7.1,3.7,7.9,5.3c1.2,2.5-3.3,6.5-5.2,7.5c-3.2,1.6-6.4,1.2-9.5-0.3c-1-0.5-1.9,0.3-2.1,1.3
			c-1.9,9.1-9.9,12.5-17,6.1c-1-0.9-2.3,0-2.5,1.1c-2.1,8.8-8.4,14.4-17.7,10.8c-2.3-0.9-4.5-2.4-5.9-4.3c-0.6-0.8-1.9-0.8-2.5,0
			c-6.6,9.6-17.7,13-24.9,1.6c-0.5-0.9-2-0.8-2.5,0c-6.2,9-22.3,8.2-22.4-4.7c0-1.5-2-1.7-2.8-0.7c-2.3,2.7-6,3.7-9.4,3.1
			C265.4,679.8,258.6,676.4,259.7,673.3z M394.1,686.8c-3.5,1.5-7,1.2-10.4-0.2c-1-0.4-1.9,0.3-2.1,1.3c-2.3,9.3-11.5,11.2-18.7,5.7
			c-0.7-0.6-2.1-0.3-2.4,0.7c-2.7,9.3-10.1,13.4-19.5,10.4c-2.3-0.7-4.8-2-6.5-3.9c-0.7-0.8-1.8-0.8-2.5,0
			c-7.3,9-19.4,12.2-27.2,1.7c-0.6-0.8-1.9-0.8-2.5,0c-5.3,6.7-24.5,9.6-24.4-3.7c0-1.1-1.4-2.5-2.5-1.4c-2.3,2.4-5.2,3.3-8.5,3.3
			c-2.5,0-11-1.6-10.2-5.7c0.4-1.8,3.4-3.1,5-4.5c2.4-2.2,4.6-4.6,6.7-7.1c2.9,0.3,6-0.4,8.5-2.2c2.3,12.1,18.5,13.5,26.4,4.9
			c3.8,5,9.4,8.3,16,6.9c4.7-1,8.7-4.8,11.6-8.6c3.3,3.3,8.2,5,12.7,4.9c8.3-0.1,12.3-5,14.5-12c8.1,5.7,16.8,1.6,19.7-7.7
			c3.3,1.1,6.5,1,9.3-0.2c0.1,0.3,0.2,0.5,0.4,0.8c2.3,2.2,4.5,4.4,7,6.3c0.7,0.6,4.7,2.7,5,3.4
			C400.7,682.8,396.3,685.9,394.1,686.8z"/>
		<path d="M413.7,310.8c-2.5-0.6-5-0.3-7.5-0.8c-3.1-0.7-6.1-1-9-2.6c-0.9-0.5-2-0.8-3-1c-2.3-0.3-4.7-0.1-6.8,0.9
			c-1.4,0.6-2.6,1.6-3.8,2.5c-1.7,1.3-3.3,2.6-5,3.8c-2.5,2-4.3,5-6.6,6.8c-1.6,1.2-4,1.6-5.9,2.3c-4.1,1.5-9.1,3.5-10.5,8.1
			c1.2-3.8,2.7-7.6,4.9-11c3.3-5,7.3-9.5,10.8-14.4c1.5-2.2,2.6-5,4.3-7c1.9-2.3,5.3-3.9,7.8-5.6c2.9-2,5.8-4.1,7.9-7
			c2.2-3.1,3.1-6.8,4-10.5c1.2-4.8,2.4-9.7,2-14.7c-0.7-8.3-5.9-16.6-3.1-24.5c-1.5,4.1-4.7,8.2-7,12c-2.6,4.3-5.2,8.6-7.8,12.9
			c-4.5,7.3-8.1,14.5-8.1,23.4c0,6.7,2.4,9.8,1.7,14.3c-1,1.9-2.2,3.7-3.4,5.4c0.2-5.2-0.7-10.1-1.8-15.3c-0.2-0.9-0.4-1.8-0.6-2.7
			c0-2.2-0.6-5.9-0.6-6.9c0-4.3,0.4-8.5,0-12.8c-0.3-3.9-0.9-7.8-1.6-11.6c2-2.6,5.7-4.7,7.5-7.5c2.5-3.8,3.4-6.8,3.7-11.5
			c-6.3,1.6-10.8,8.9-11.8,15.5c-0.6-3.4-1.4-6.8-2.5-10c-1.1-3.5-2.4-7-3-10.6c1-3.9,3.8-6.1,5.8-11.9c1.6-4.8,2.1-9.7,1.4-14.9
			c-0.4-2.9-1.4-5.4-3-7.9c-1.2-1.8-2.8-7.2-3.3-9.4c-1.9,3.7-4.4,10.6-6.3,14.4c-2.3,4.6-2.7,9.1-1.7,14.3c0.7,4.1,1.5,8.1,3,11.8
			c0.5,1.3,1.1,2.6,1.6,3.9c0.4,2.4,1.1,4.7,1.8,7.1c-0.2-0.3-0.3-0.5-0.4-0.7c-0.7-1.4-3.4-4.6-3.4-6.2c0-0.3-8.2-12.1-13.9-15.9
			c-2.2-1.5-4.6-2.6-6.9-3.8c-1.7-4.9-2.8-10.9-0.5-15.7c0.7-0.6,1.4-1.2,2.2-1.9c1.4-1.4,2.6-2.9,3.8-4.5
			c3.7-5.2,6.1-11.3,6.6-17.7c0.5-6.5-0.8-13-0.5-19.5c0,0.7-4.6,2-5.2,2.3c-1.9,0.8-3.6,3.2-5,4.9c-1.8,2.3-3.7,4.7-4.4,7.6
			c-1.2,4.5,0.2,9.3,1.5,13.7c1,3.1,1.4,5,1.1,8.2c-0.3,3.6-0.7,3.6-1,5.4c0,0,0,0,0,0c-2,3.5-2.2,7.6-1.6,11.6
			c-1.5-2.9-2.6-5.8-3.3-9c-1.3-6.4-1.2-13-3-19.2c-0.1-1.4-0.1-2.9-0.2-4.2c-0.2-3.3-1-6.6-1.9-9.9c-1.1-4.2-3-7.5-6.3-10.1
			c-2.7-2.1-7-6.5-9.8-8.5c0.4,1.8,1.1,6.4,0.9,8.2c-0.3,2.4-0.1,4.6,0.6,6.9c1.3,4.2,3.4,7.7,6.3,10.7c3.7,3.8,6.7,4.3,8.8,7.2
			c2.7,3.7,1.4,12.9,2.2,17.5c0.8,5.2,3.6,9.9,6,14.6c-3.5-2.2-6.3-5.1-8.7-8.4c-1.6-2.3-3-4.7-4.1-7.2c-0.8-1.7-1.3-3.6-2.1-5.3
			c-0.6-1.3-1.6-2.3-2.4-3.4c-0.8-1.1-1.7-2.1-2.6-2.9c-0.9-0.8-2-1.3-3-1.9c-2.1-1.4-4.3-2.7-6.7-3.3c0,0,0,0,0,0
			c-1.4-0.9-3.3-1.5-4.5-2.6c-1.4-1.3-2-3.5-3.5-5c-3.6-3.7-7.9-6.4-12.4-8.8c-4.4-2.3-9.4-2.9-14.3-3.1c-5.7-0.3-11.6-0.2-17-2.2
			c4.6,5.9,7.6,13.3,13.9,17.8c4,2.9,8.1,4.5,12.8,6c2.9,0.9,5.8,1.3,8.9,1.1c2.5-0.1,6.1,0,7.9-1.4c0.3-0.2,0.6-0.3,0.9-0.4
			c0.4-0.2,0.9-0.3,1.3-0.4c2.5-0.5,4.4,1.7,6.7,1.3c6.7,2,11.3,8.5,14.2,14.5c0,0.1,0.1,0.2,0.2,0.2c0.3,0.8,0.6,1.6,1,2.3
			c-0.6-0.7-1.3-1.3-2.1-1.8c-1.4-0.9-3.1-1.4-4.7-1.8c-3.9-1.1-7.7,1.1-11.6,1.6c0.3,0,2.8,1.9,3.3,2.1c1.7,0.7,3.5,1.3,5.2,1.7
			c3.2,0.8,7.6,1.5,10.7,0c0.2,0.4,0.4,0.7,0.6,1c1.9,3.3,4.3,6.4,7.1,9c0.2,0.1,0.3,0.3,0.5,0.4c2.7,2.4,5.9,4.1,9.1,5.7
			c5.5,2.8,10.8,7,14.5,12c2.4,3.3,4,7.1,5.7,10.8c0.8,1.7,3.6,8.8,5.9,9.9c0.8,3.4,1.4,6.9,1.9,10.3c0.4,2.3,0.7,4.6,0.9,7
			c-1.5-4.1-3.6-8.1-7-10.6c-0.1-0.1-0.3-0.2-0.4-0.2c-1.1-1.5-1.6-1.6-3.7-5.1c-1.8-3-3.4-6-4.9-9.1c-1.2-2.4-1.6-5.2-2.7-7.5
			c-2.6-5.2-10.3-10.1-15.6-12.1c-2.6-1-5.4-1.5-8.1-2.2c-4-1.1-7.9-2.7-11.6-4.7c3.6,5.4,6.3,11.4,8.9,17.4
			c1.2,2.9,2.4,5.9,4.2,8.5c6.7,10,19.4,12.5,30,16.3c1,0.4,1.9,0.6,2.9,0.9c2.4,2,3.8,5,5,7.7c1.3,3,2.8,6.4,3,9.6
			c0.3,4.2,0.2,8.5,0.5,12.7c0.2,3.1,1.8,5.9,2.3,9.1c0.6,3.9,0.8,7.8,0.3,11.7c0,0.1,0,0.2,0,0.3c-3.4,4.4-7.2,9.1-10.2,14.1
			c0-0.1,0-0.2,0-0.3c-0.1-1.1-0.3-2.3-0.6-3.4c-0.4-1.6-1.1-3.2-1.6-4.8c-0.6-1.8-1-4-0.6-5.9c0.7-3.4,3.1-5,4.9-9.7
			c1.4-3.8,1.8-7.7,1.3-11.8c-0.3-2.3-1-4.3-2.2-6.3c-0.9-1.5-2.1-5.8-2.4-7.5c-1.6,2.9-3.6,8.4-5.2,11.3c-1.9,3.6-2.2,7.2-1.6,11.3
			c0.5,3.2,1.1,6.4,2.2,9.4c0.5,1.2,1,2.5,1.5,3.8c0.1,0.6,0.2,1.2,0.3,1.9c-0.3-0.4-0.6-0.8-0.8-1.2c-1.5-2.2-3.2-4.1-5-6.1
			c-1.6-1.7-4-3.3-5.9-4.7c-0.2-0.1-0.4-0.3-0.5-0.5c-0.1-0.2-0.2-0.5-0.2-0.8c0-1.3-0.4-2.2-0.6-3.4c-0.3-1.5,0.1-3.2,0-4.7
			c0-0.9-0.1-1.7-0.3-2.5c-0.3-0.9-0.8-1.7-1.3-2.5c-1.8-2.8-3.3-6.1-5.6-8.6c-1.1-1.2-4.3-5.8-6-5.8c-3.2-2-7.3-2.3-10.2-4.8
			c0.5,5.8,2.4,11.3,4.5,16.6c1.8,4.4,1.8,8.7,5.9,11.9c1.3,1.1,2.9,1.9,4.4,2.7c1.8,0.9,3.5,1.9,5.4,2.5c2.2,0.6,4.2,2.7,6.2,3.8
			c2.2,1.2,4,3.5,5.7,5.2c1,1,1.4,2.2,2.1,3.4c0.7,1.1,1.4,2.1,2,3.3c0.7,1.5,1.4,3,1.9,4.5c0.3,0.9,0.4,4.1,1.6,4.5
			c-1.9,3.5-3.3,7.2-3.8,11.2c0.3-2.2,0.1-4.4-0.8-6.2c-0.9-1.9-2.5-3.5-3.9-5c0,2.2,0.1,4.4,0.1,6.6c0,0.7,0,1.4,0.3,2
			c0.4,1,1.3,1.7,2.2,2.2c0.6,0.4,1.3,0.7,2,1c-0.7,4.6-2.9,9.7-5.2,12.5c-1,1.2-1.8,2.1-2.5,2.9l1.1,1.6c2.3-2.5,4.4-5.3,5.1-6.7
			c0.9-1.7,1.5-3.4,2.1-5.2c0.1-0.1,0.1-0.2,0.1-0.2c2.3-5.3,6.2-12.2,12-14.3c3.9-1.5,10,2.2,14.2,2.6c5.9,0.5,11.9-0.7,17.1-3.5
			c4-2.2,7.4-5.2,11.5-7.2c3.9-1.9,8.3-2.6,12.2-4.6C417.8,312.7,415.9,311.4,413.7,310.8z"/>
		<path d="M224.3,713c1.2,0.5,2.4,0.9,3.6,1.3l-1.5-3c-1.3-0.6-2.6-1.3-4-1.6c-3.9-0.9-7.8-1.4-11.7-2.3c-3-0.7-5.9-2.5-8.5-4.1
			c-2.4-1.5-5-3.2-6.4-5.7c-0.1-0.9-0.2-1.8-0.4-2.8c-2.1-10.3-2.6-22.4-10.9-30c-2.2-2-4.8-3.5-7.3-5.1
			c-5.2-3.2-10.3-6.6-14.8-10.6c1.3,3.7,2.2,7.5,2.7,11.3c0.3,2.6,0.4,5.2,0.9,7.8c1.1,5.1,4.5,13,9,16.1c2,1.4,4.5,2.2,6.5,3.6
			c2.7,1.8,5.2,3.8,7.7,5.8c2.9,2.4,3,2.9,4.2,4.1c0,0.1,0.1,0.2,0.1,0.4c1.8,3.5,5.2,5.9,8.8,8c-2.1-0.6-4.2-1.2-6.3-1.8
			c-3.1-1-6.2-2-9.2-3.2c-0.8-2.3-6.9-5.8-8.4-6.8c-3.2-2.1-6.5-4-9.2-6.8c-4.1-4.1-7.2-9.6-9-15.1c-1.1-3.2-2.2-6.3-4-9.2
			c-0.1-0.2-0.2-0.3-0.3-0.5c-2-3-4.5-5.6-7.3-7.8c-0.3-0.2-0.6-0.4-0.9-0.7c1.8-2.7,1.8-6.8,1.5-9.9c-0.1-1.7-0.4-3.4-0.8-5.1
			c-0.1-0.5-1.6-3.1-1.5-3.3c-1,3.5-3.6,6.7-3.1,10.5c0.2,1.6,0.4,3.2,1,4.6c0.3,0.8,0.8,1.5,1.4,2.2c-0.7-0.4-1.3-0.8-2-1.2
			c-0.1-0.1-0.1-0.1-0.2-0.2c-5.1-3.5-10.4-8.7-11.4-15.2c0.6-2-1.1-4.1-0.3-6.4c0.1-0.4,0.4-0.8,0.6-1.1c0.1-0.3,0.3-0.5,0.5-0.7
			c1.6-1.5,2-4.8,2.4-7.1c0.6-2.8,0.7-5.5,0.2-8.3c-0.7-4.5-1.7-8.5-3.8-12.6c-3.3-6.4-9.7-10.2-14.5-15.3c1.1,5.3,0.2,10.7-0.4,16
			c-0.5,4.5-0.7,9.3,0.9,13.6c1.6,4.5,3.5,8.8,6.4,12.7c1.2,1.5,3.1,2.4,4.1,3.9c0.9,1.3,1.1,3.1,1.8,4.6c0,0,0,0,0,0
			c0.2,2.4,1.1,4.5,2.1,6.7c0.5,1,0.8,2.1,1.4,3.1c0.7,1,1.5,2,2.3,2.8c0.9,0.9,1.7,2,2.8,2.7c1.5,1,3.1,1.7,4.6,2.7
			c2.2,1.4,4.2,3,6.1,4.8c2.8,2.7,5,5.7,6.6,9.2c-4-2.9-8-6.1-12.6-7.6c-4.2-1.3-12.8-1.4-15.9-4.5c-2.4-2.4-2.4-5.2-5.4-9.1
			c-2.4-3.1-5.3-5.6-9-7.3c-2.1-1-4.1-1.5-6.3-1.5c-1.7,0-5.8-1.3-7.4-2c1.5,2.8,4.9,7.4,6.5,10.2c1.9,3.4,4.7,5.6,8.4,7.3
			c2.9,1.3,5.8,2.5,8.9,3.1c1.2,0.3,2.6,0.5,3.9,0.8c5.5,2.5,11.6,3.4,17.3,5.4c2.9,1,5.4,2.6,7.9,4.3c-3.6-1.1-7.4-1.4-10.9-0.1
			c0,0,0,0,0,0c-1.7,0-1.8,0.4-5.1,0.2c-3-0.2-4.7-0.9-7.4-2.2c-3.9-1.9-8.1-3.8-12.4-3.3c-2.7,0.3-5.3,1.7-7.6,3
			c-1.7,1-4.1,2.2-5.2,3.9c-0.3,0.5-2.2,4.5-2.9,4.5c6,0.7,11.9,2.8,17.9,3.2c6,0.4,12-0.9,17.3-3.6c1.6-0.8,3.2-1.8,4.7-2.9
			c0.8-0.6,1.4-1.1,2.1-1.7c4.8-1.5,10.2,0.4,14.4,2.6c0.8,2.3,1.5,4.7,2.6,6.9c2.7,5.8,12.4,15,12.7,15.1c1.5,0.2,4.1,3.2,5.2,4
			c0.1,0.1,0.3,0.2,0.5,0.4c-2-1-4.1-2-6.3-2.6c-1.2-0.7-2.3-1.4-3.4-2.1c-3.2-1.9-6.8-3.2-10.5-4.5c-4.7-1.6-8.9-1.9-13.4-0.4
			c-3.7,1.2-10.5,2.5-14.1,3.8c2,0.7,6.7,3,8.2,4.3c2,1.8,4.2,3,6.9,3.8c4.7,1.4,9.3,1.7,14,0.8c5.6-1,8-3.4,11.8-3.7
			c3.3,1,6.3,2.7,9.4,4.2c2.9,1.4,5.9,2.6,8.9,3.7c-6.3,0.1-13.6,3.1-16,8.8c4.4,0.4,7.3-0.1,11.1-1.8c2.9-1.3,5.3-4.3,8-5.9
			c3.5,1.1,7,2.2,10.5,3.1c3.9,0.9,7.9,1.2,11.8,1.8c0.9,0.1,4.2,1.2,6.3,1.6C222.7,712.3,223.5,712.7,224.3,713z"/>
		<path d="M128.2,170.9c4.2,4.2,3.5,23.8,6,23.8c2.6,0,2.1-19.9,6-23.8c3.9-3.9,18.2-3,18.2-5.3c0-2.3-14.6-1.7-18.2-5.3
			c-3.6-3.6-3.5-23.8-6-23.8c-2.6,0-1.7,19.5-6,23.8c-4.3,4.3-18.2,2.5-18.2,5.3C110.1,168.4,124,166.7,128.2,170.9z"/>
		<path d="M189,558.7c-5.3-4.5-5.1-29.5-8.8-29.5s-2.5,24.2-8.8,29.5c-6.4,5.4-26.7,3.1-26.7,6.5c0,3.4,20.5,1.3,26.7,6.5
			c6.2,5.2,5.1,29.5,8.8,29.5s3.1-24.7,8.8-29.5c5.7-4.8,26.7-3.7,26.7-6.5S194.3,563.2,189,558.7z"/>
		<path d="M111.4,434.1c1.8,0,1.5-11.8,4.2-14.1c2.7-2.3,12.7-1.8,12.7-3.1s-10.2-1-12.7-3.1c-2.5-2.1-2.4-14.1-4.2-14.1
			c-1.8,0-1.2,11.5-4.2,14.1s-12.7,1.5-12.7,3.1s9.8,0.6,12.7,3.1C110.1,422.5,109.6,434.1,111.4,434.1z"/>
		<path d="M206.7,607.8c0,1.4,6.8,0.5,8.9,2.6c2,2,1.7,11.6,2.9,11.6c1.2,0,1-9.7,2.9-11.6c1.9-1.9,8.9-1.4,8.9-2.6
			s-7.1-0.8-8.9-2.6s-1.7-11.6-2.9-11.6c-1.2,0-0.8,9.5-2.9,11.6S206.7,606.4,206.7,607.8z"/>
		<path d="M293.5,342.6c1.2,0,1-9.1,2.7-10.9c1.8-1.8,8.3-1.4,8.3-2.4c0-1.1-6.7-0.8-8.3-2.4c-1.6-1.6-1.6-10.9-2.7-10.9
			s-0.8,8.9-2.7,10.9c-2,2-8.3,1.1-8.3,2.4c0,1.3,6.4,0.5,8.3,2.4C292.6,333.6,292.3,342.6,293.5,342.6z"/>
		<path d="M257.5,248.3c-0.9,0-1.6,0.8-1.6,1.7l0,0.4c0,0.9,0.7,1.6,1.6,1.6c0,0,0,0,0,0c0.9,0,1.6-0.8,1.6-1.7l0-0.4
			C259.2,249,258.4,248.3,257.5,248.3z"/>
		<path d="M258.7,340.7c0-0.9-0.7-1.7-1.6-1.7c-0.9,0-1.7,0.7-1.7,1.6l0,0.8c0,0.9,0.7,1.7,1.6,1.7c0,0,0,0,0.1,0
			c0.9,0,1.6-0.7,1.6-1.6L258.7,340.7z"/>
		<path d="M256,268.6c0,0.9,0.7,1.6,1.6,1.6c0,0,0,0,0,0c0.9,0,1.6-0.8,1.6-1.7l0-0.8l-1.1,0l-2.2,0L256,268.6z"/>
		<polygon points="257.7,267.8 258.2,267.8 259.3,267.8 		"/>
		<path d="M257.6,257c-0.9,0-1.6,0.8-1.6,1.7l0,0.8c0,0.9,0.7,1.6,1.6,1.6c0,0,0,0,0,0c0.9,0,1.6-0.8,1.6-1.7l0-0.8
			C259.2,257.7,258.5,257,257.6,257z"/>
		<path d="M256.1,286l0,0.8c0,0.9,0.7,1.6,1.6,1.6c0,0,0,0,0,0c0.9,0,1.6-0.7,1.6-1.7l0-0.8c0-0.9-0.7-1.7-1.7-1.6
			C256.9,284.3,256.1,285.1,256.1,286z"/>
		<path d="M257.7,275.2c-0.9,0-1.6,0.7-1.6,1.7l0,0.8c0,0.9,0.7,1.6,1.6,1.6c0,0,0,0,0,0c0.9,0,1.6-0.7,1.6-1.7l0-0.8
			C259.4,276,258.6,275.2,257.7,275.2z"/>
		<path d="M259,331.6c0-0.9-0.7-1.7-1.6-1.7c-0.9,0-1.7,0.7-1.7,1.6l0,0.8c0,0.9,0.7,1.7,1.6,1.7c0,0,0,0,0,0c0.9,0,1.6-0.7,1.6-1.6
			L259,331.6z"/>
		<path d="M251.8,396.1l0.2-0.8c0.2-0.9-0.3-1.8-1.2-2c-0.9-0.2-1.8,0.3-2,1.2l-0.2,0.8c-0.2,0.9,0.3,1.8,1.1,2
			c0.2,0,0.3,0.1,0.5,0.1C250.9,397.3,251.6,396.8,251.8,396.1z"/>
		<path d="M255.5,378.1l0.1-0.8c0.1-0.9-0.5-1.7-1.4-1.9c-0.9-0.1-1.7,0.5-1.9,1.4l-0.1,0.8c-0.1,0.9,0.5,1.7,1.4,1.9
			c0.1,0,0.2,0,0.2,0C254.7,379.5,255.4,378.9,255.5,378.1z"/>
		<path d="M248.2,401.9c-0.8-0.3-1.8,0.1-2.1,0.9c-0.1,0.3-0.2,0.5-0.3,0.7c-0.4,0.8,0,1.8,0.9,2.2c0.2,0.1,0.4,0.1,0.6,0.1
			c0.6,0,1.3-0.4,1.5-1c0.1-0.3,0.2-0.5,0.3-0.8C249.4,403.2,249,402.3,248.2,401.9z"/>
		<path d="M258.2,350.7l0-0.8c0.1-0.9-0.6-1.7-1.6-1.7c-0.9-0.1-1.7,0.6-1.7,1.6l0,0.8c-0.1,0.9,0.6,1.7,1.5,1.7c0,0,0.1,0,0.1,0
			C257.4,352.3,258.2,351.6,258.2,350.7z"/>
		<path d="M257.6,359.8l0.1-0.8c0.1-0.9-0.6-1.7-1.5-1.8c-0.9-0.1-1.7,0.6-1.8,1.5l-0.1,0.8c-0.1,0.9,0.6,1.7,1.5,1.8
			c0,0,0.1,0,0.1,0C256.8,361.3,257.5,360.7,257.6,359.8z"/>
		<path d="M256.7,369l0.1-0.8c0.1-0.9-0.6-1.7-1.5-1.8c-0.9-0.1-1.7,0.6-1.8,1.5l-0.1,0.8c-0.1,0.9,0.6,1.7,1.5,1.8
			c0.1,0,0.1,0,0.2,0C255.9,370.4,256.6,369.8,256.7,369z"/>
		<path d="M252.8,384.4c-0.9-0.2-1.8,0.4-1.9,1.3l-0.2,0.8c-0.2,0.9,0.4,1.8,1.3,1.9c0.1,0,0.2,0,0.3,0c0.8,0,1.5-0.5,1.6-1.3
			l0.2-0.8C254.3,385.4,253.7,384.5,252.8,384.4z"/>
		<path d="M229.4,421.6c-0.2,0.1-0.5,0.2-0.7,0.2c-0.9,0.3-1.3,1.2-1.1,2.1c0.2,0.7,0.9,1.1,1.6,1.1c0.2,0,0.3,0,0.5-0.1
			c0.3-0.1,0.6-0.2,0.8-0.3c0.9-0.3,1.3-1.3,1-2.1C231.2,421.7,230.2,421.3,229.4,421.6z"/>
		<path d="M259.2,322.5c0-0.9-0.7-1.7-1.6-1.7c-0.9,0-1.7,0.7-1.7,1.6l0,0.8c0,0.9,0.7,1.7,1.6,1.7c0,0,0,0,0,0
			c0.9,0,1.6-0.7,1.6-1.6L259.2,322.5z"/>
		<path d="M242.1,410.7c-0.1,0.2-0.3,0.4-0.4,0.7c-0.5,0.8-0.3,1.8,0.5,2.3c0.3,0.2,0.6,0.3,0.9,0.3c0.5,0,1.1-0.3,1.4-0.7
			c0.2-0.2,0.3-0.5,0.5-0.7c0.5-0.8,0.3-1.8-0.5-2.3C243.6,409.7,242.6,410,242.1,410.7z"/>
		<path d="M220.6,423l-0.4,0c-0.9,0-1.7,0.7-1.7,1.6c0,0.9,0.7,1.7,1.6,1.7l0.4,0l0.5,0c0.9,0,1.6-0.8,1.6-1.7
			c0-0.9-0.8-1.6-1.7-1.6L220.6,423z"/>
		<path d="M236.6,417.3c-0.2,0.2-0.4,0.3-0.6,0.5c-0.7,0.6-0.8,1.6-0.2,2.3c0.3,0.4,0.8,0.6,1.3,0.6c0.4,0,0.7-0.1,1-0.4
			c0.2-0.2,0.4-0.4,0.7-0.6c0.7-0.6,0.7-1.6,0.1-2.3C238.3,416.8,237.3,416.7,236.6,417.3z"/>
		<path d="M259.4,304.2c0-0.9-0.7-1.7-1.6-1.7c0,0,0,0,0,0c-0.9,0-1.6,0.7-1.6,1.6l0,0.8c0,0.9,0.7,1.7,1.6,1.7c0,0,0,0,0,0
			c0.9,0,1.6-0.7,1.6-1.6L259.4,304.2z"/>
		<path d="M259.4,295.1c0-0.9-0.7-1.6-1.6-1.6s-1.6,0.7-1.6,1.6v0.8c0,0.9,0.7,1.6,1.6,1.7h0c0.9,0,1.6-0.7,1.6-1.6V295.1z"/>
		<path d="M259.4,313.4c0-0.9-0.7-1.7-1.6-1.7c-0.9,0-1.7,0.7-1.7,1.6l0,0.8c0,0.9,0.7,1.7,1.6,1.7c0,0,0,0,0,0
			c0.9,0,1.6-0.7,1.6-1.6L259.4,313.4z"/>
		<path d="M212.2,422.1l-0.4-0.1c-0.9-0.2-1.8,0.4-2,1.3s0.4,1.8,1.3,2l0.4,0.1c0.1,0,0.2,0,0.3,0c0.8,0,1.4-0.5,1.6-1.3
			C213.6,423.2,213.1,422.3,212.2,422.1z"/>
		<path d="M121.1,252C121.1,252,121.1,252,121.1,252c0.9,0,1.7-0.8,1.7-1.7l0-0.4c0-0.9-0.8-1.6-1.7-1.6c-0.9,0-1.6,0.8-1.6,1.7
			l0,0.4C119.5,251.3,120.2,252,121.1,252z"/>
		<path d="M118.3,295.5c0,0.9,0.7,1.7,1.6,1.7c0,0,0,0,0.1,0c0.9,0,1.6-0.7,1.6-1.6l0-0.8c0-0.9-0.7-1.7-1.6-1.7
			c-0.9,0-1.7,0.7-1.7,1.6L118.3,295.5z"/>
		<path d="M118,304.6c0,0.9,0.7,1.7,1.6,1.7c0,0,0,0,0,0c0.9,0,1.6-0.7,1.6-1.6l0-0.8c0-0.9-0.7-1.7-1.6-1.7c-0.9,0-1.7,0.7-1.7,1.6
			L118,304.6z"/>
		<path d="M117.9,313.7c0,0.9,0.7,1.6,1.6,1.6c0,0,0,0,0,0c0.9,0,1.6-0.7,1.6-1.6l0-0.8c0-0.9-0.7-1.7-1.6-1.7c0,0,0,0,0,0
			c-0.9,0-1.6,0.7-1.6,1.6L117.9,313.7z"/>
		<path d="M119.7,324.4c0.9,0,1.6-0.8,1.6-1.7l0-0.8c0-0.9-0.8-1.6-1.7-1.6c-0.9,0-1.6,0.8-1.6,1.7l0,0.8
			C118.1,323.7,118.8,324.4,119.7,324.4C119.7,324.4,119.7,324.4,119.7,324.4z"/>
		<path d="M121.1,261.1C121.1,261.1,121.1,261.1,121.1,261.1c0.9,0,1.7-0.7,1.7-1.6l0-0.8c0-0.9-0.7-1.7-1.6-1.7c0,0,0,0,0,0
			c-0.9,0-1.6,0.7-1.6,1.6l0,0.8C119.5,260.3,120.2,261,121.1,261.1z"/>
		<path d="M120.2,333.4c0,0,0.1,0,0.1,0c0.9-0.1,1.6-0.9,1.5-1.8l-0.1-0.8c-0.1-0.9-0.9-1.6-1.8-1.5c-0.9,0.1-1.6,0.9-1.5,1.8
			l0.1,0.8C118.6,332.8,119.3,333.4,120.2,333.4z"/>
		<path d="M119.3,268.4c0,0.9,0.7,1.7,1.6,1.7c0,0,0,0,0,0c0.9,0,1.6-0.7,1.6-1.6l0-0.8c0-0.9-0.7-1.7-1.6-1.7
			c-0.9,0-1.7,0.7-1.7,1.6L119.3,268.4z"/>
		<path d="M119,277.4c0,0.9,0.7,1.7,1.6,1.7c0,0,0,0,0.1,0c0.9,0,1.6-0.7,1.6-1.6l0-0.8c0-0.9-0.7-1.7-1.6-1.7
			c-0.9,0-1.7,0.7-1.7,1.6L119,277.4z"/>
		<path d="M118.6,286.5c0,0.9,0.7,1.7,1.6,1.7c0,0,0,0,0.1,0c0.9,0,1.6-0.7,1.6-1.6l0-0.8c0-0.9-0.7-1.7-1.6-1.7
			c-0.9,0-1.7,0.7-1.7,1.6L118.6,286.5z"/>
		<path d="M139,371.5c0.2,0.1,0.4,0.1,0.6,0.1c0.7,0,1.3-0.4,1.5-1.1c0.3-0.9-0.1-1.8-0.9-2.1c-0.2-0.1-0.5-0.2-0.7-0.3
			c-0.8-0.4-1.8,0-2.2,0.9c-0.4,0.8,0,1.8,0.9,2.2C138.5,371.3,138.8,371.4,139,371.5z"/>
		<path d="M148.4,373.4C148.4,373.4,148.4,373.4,148.4,373.4c1,0,1.7-0.7,1.7-1.6c0-0.9-0.7-1.7-1.6-1.7c-0.3,0-0.5,0-0.8-0.1
			c-0.9-0.1-1.7,0.6-1.8,1.5c-0.1,0.9,0.6,1.7,1.5,1.8C147.8,373.3,148.1,373.4,148.4,373.4z"/>
		<path d="M120.9,338.3c-0.9,0.1-1.5,1-1.4,1.9l0.1,0.8c0.1,0.8,0.8,1.4,1.6,1.4c0.1,0,0.2,0,0.3,0c0.9-0.1,1.5-1,1.4-1.9l-0.1-0.8
			C122.7,338.8,121.8,338.2,120.9,338.3z"/>
		<path d="M156.9,373c0.3,0,0.6-0.1,0.8-0.1c0.9-0.1,1.5-1,1.4-1.9c-0.1-0.9-1-1.5-1.9-1.4c-0.3,0-0.5,0.1-0.8,0.1
			c-0.9,0.1-1.5,0.9-1.4,1.9c0.1,0.8,0.8,1.4,1.6,1.4C156.7,373,156.8,373,156.9,373z"/>
		<path d="M124.6,348.3c-0.2-0.9-1.2-1.4-2-1.1c-0.9,0.2-1.4,1.2-1.1,2c0.1,0.3,0.2,0.5,0.2,0.8c0.2,0.7,0.9,1.2,1.6,1.2
			c0.2,0,0.3,0,0.5-0.1c0.9-0.3,1.4-1.2,1.1-2.1C124.8,348.9,124.7,348.6,124.6,348.3z"/>
		<path d="M125.2,358.7c0.3,0.6,0.9,0.9,1.5,0.9c0.3,0,0.5-0.1,0.8-0.2c0.8-0.4,1.1-1.4,0.7-2.2c-0.1-0.2-0.2-0.5-0.4-0.7
			c-0.4-0.8-1.4-1.1-2.2-0.7c-0.8,0.4-1.1,1.4-0.7,2.2C124.9,358.2,125.1,358.5,125.2,358.7z"/>
		<path d="M132,366.8c0.4,0,0.9-0.2,1.2-0.5c0.6-0.7,0.6-1.7-0.1-2.3c-0.2-0.2-0.4-0.4-0.5-0.5c-0.6-0.6-1.7-0.7-2.3,0
			c-0.6,0.6-0.7,1.7,0,2.3c0.2,0.2,0.4,0.4,0.6,0.6C131.2,366.7,131.6,366.8,132,366.8z"/>
		<path d="M165.5,371.2c0.1,0,0.3,0,0.4-0.1l0.4-0.1c0.9-0.2,1.4-1.2,1.1-2c-0.2-0.9-1.2-1.4-2-1.1l-0.4,0.1c-0.9,0.2-1.4,1.1-1.2,2
			C164.2,370.7,164.8,371.2,165.5,371.2z"/>
		<path d="M245,480.7c0,0-0.8,0-8.8,0c-5.2,0-13.2-7-25.1-11.8c-0.8-4.1-3.3-7.2-6.4-8c0.3-11.6,0.8-27.7,1.4-40h0.9
			c1.5,0,2.6-1.2,2.6-2.6v-3.4c0-1.5-1.2-2.6-2.6-2.6h-0.4c0.4-4.9,0.7-8.2,1.2-8.9c1.8-3,5.4-3.5,5.4-8.3c0-4.8-2.7-5.3-5.4-8.3
			c-1.1-1.2-1.3-9.9-1.1-19.7h0.2c4.2,0,7.6-3.4,7.6-7.6v-1.3c0-0.4,0-0.8-0.1-1.1c20.8-9.3,35.4-29.8,35.4-53.4
			c0,0-3.9-57.3,0-57.3c3.9,0,8.5,0,8.5,0c1.8,0,3.4-1.5,3.4-3.3v-3.6c0-1.8-1.5-3.3-3.4-3.3H119.9c-1.8,0-3.4,1.5-3.4,3.3v3.6
			c0,1.8,1.5,3.3,3.4,3.3c0,0,4.9,0,8.5,0c3.6,0,0,57.3,0,57.3c0,23.6,14.6,44.1,35.4,53.4c-0.1,0.4-0.1,0.7-0.1,1.1v1.3
			c0,4.1,3.3,7.5,7.4,7.6c0.1,9.8,0,18.5-0.8,19.7c-1.8,3-5.4,3.7-5.4,8.3c0,4.6,2.7,5.3,5.4,8.3c0.6,0.7,1.1,4,1.5,8.9h-0.7
			c-1.5,0-2.6,1.2-2.6,2.6v3.4c0,1.5,1.2,2.6,2.6,2.6h1.2c0.6,12.3,0.9,28.4,1.1,40c-3.1,0.8-5.6,4-6.5,8.1
			c-11.7,4.8-19.5,11.7-25,11.7c-8.5,0-8.8,0-8.8,0c-0.2,0-0.4,0.2-0.4,0.4v7.9c0,0.2,0.2,0.4,0.4,0.4H245c0.2,0,0.4-0.2,0.4-0.4
			v-7.9C245.5,480.9,245.3,480.7,245,480.7z M156.4,274.1l15.8-20.6c-5.7,3.7-10.1,2.5-12.3,2.6c-2.5,0.2-5.6,1.8-7.7,3
			c-4.1,2.3-8.6,6.4-14.8,3.7c5.7,1.4,9.5-4.1,13-8.1c1.7-2,3.6-3.8,5.7-4.9c3.5-1.9,8-2.4,11.7-4h41.5c0,0,0,0.1,0,0.1
			c6.6,1.7,8.5,5.8,10.2,7.3c1.8,1.8,5.1,2.9,7.3,3.6c4.5,1.5,10.5,2,12.7,8.4c-2.8-5.1-9.4-4.3-14.8-4.1c-2.7,0.1-5.2-0.1-7.5-0.9
			c-3.6-1.3-6.9-4-10.5-5.7l15.1,19.6l-20.7-15.9c1.6,3.9,4.7,7.4,6.1,11.3c0.8,2.3,1,4.8,0.9,7.5c-0.2,5.3-1,12,4.1,14.8
			c-6.3-2.3-6.9-8.2-8.4-12.7c-0.7-2.3-1.9-5.5-3.6-7.3c-1.5-1.6-5.3-3.5-7.1-9.6l-4.1,41.4l-4.1-41.4c-1.8,6.1-5.6,8-7.1,9.6
			c-1.8,1.8-2.9,5.1-3.6,7.3c-1.5,4.5-2,10.5-8.4,12.7c5.1-2.8,4.3-9.4,4.1-14.8c-0.1-2.7,0.1-5.2,0.9-7.5c1.4-3.9,4.5-7.5,6.1-11.3
			L156.4,274.1z M164.8,322c0-1.1,0.1-2.2,0.3-3.3c1.5,11.9,11.6,21.1,24,21.2c12.3,0.1,22.6-9,24.3-20.9c0.1,1.1,0.2,2.2,0.2,3.3
			c-0.1,13.4-11.1,24.3-24.5,24.2C175.5,346.5,164.6,335.5,164.8,322z"/>
	</g>
</g>
</svg>
