<?xml version="1.0" encoding="utf-8"?>
<!-- Generator: Adobe Illustrator 21.1.0, SVG Export Plug-In . SVG Version: 6.00 Build 0)  -->
<svg version="1.1" xmlns="http://www.w3.org/2000/svg" xmlns:xlink="http://www.w3.org/1999/xlink" x="0px" y="0px"
	 viewBox="0 0 504 864" style="enable-background:new 0 0 504 864;" xml:space="preserve">
<style type="text/css">
	.st0{fill:#040404;}
</style>
<g id="Слой_1">
</g>
<g id="Слой_2">
	<g>
		<path d="M503.8,18.2c-1.6-17.9-18.7-16.3-31.6-16.3c-45.9,0-91.8,0-137.6,0c-63.2,0-126.3,0-189.5,0c-40.6,0-81.2,0-121.8,0
			c-2.6,0-5.3-0.2-8,0.2c-9.5,1.2-15,9.2-15.2,18.2c-0.2,7.3,0,14.5,0,21.8c0,37.4,0,74.9,0,112.3c0,57,0,114.1,0,171.1
			c0,64.3,0,128.6,0,192.9c0,58.4,0,116.7,0,175.1c0,40.1,0,80.2,0,120.3c0,9.1,0,18.2,0,27.3c0,11.7,6.7,20.5,19.2,20.7
			c35.9,0.6,71.9,0,107.9,0c62.4,0,124.9,0,187.3,0c49.7,0,99.5,0,149.2,0c7.6,0,15.2,0,22.9,0c0.4,0,0.8-0.1,1.2-0.2
			c14.4-1.8,16.1-13.8,16.1-25.5c0-11.4,0-22.8,0-34.3c0-43.4,0-86.9,0-130.3c0-59.9,0-119.8,0-179.8c0-63.9,0-127.7,0-191.6
			c0-55.3,0-110.6,0-165.9c0-33.7,0-67.3,0-101C503.9,28.3,504.2,23.2,503.8,18.2z M486.6,852.8c-28.3,0-56.6,0-84.9,0
			c-59.9,0-119.8,0-179.7,0c-54,0-108,0-162,0c-13.1,0-26.1,0-39.2,0c-5.6,0-11-1.3-11.7-8.3c-0.1-1.5,0-3,0-4.5c0-26.5,0-53,0-79.5
			c0-50,0-100,0-149.9c0-61.8,0-123.6,0-185.4c0-61.4,0-122.7,0-184.1c0-48.9,0-97.7,0-146.6c0-24.2-0.8-48.6,0-72.7
			c0.2-5.3,1.6-10.1,8.3-10.8c2.2-0.2,4.5,0,6.7,0c14.8,0,29.6,0,44.5,0c55.6,0,111.3,0,166.9,0c58.9,0,117.8,0,176.7,0
			c18.9,0,37.9,0,56.8,0c8.1,0,24.7-3.1,25.9,8.4c0.5,5.2,0,10.8,0,16.1c0,13.5,0,27.1,0,40.6c0,45.5,0,91.1,0,136.6
			c0,60.1,0,120.2,0,180.3c0,62.6,0,125.1,0,187.7c0,52.8,0,105.6,0,158.4c0,31.4,0,62.7,0,94.1C494.8,840.3,496.9,852,486.6,852.8z
			"/>
		<path d="M460,790.9c1.2,0.1,2.4-0.7,2.4-2.2c0-23.7,0-47.4,0-71.1c0-56.4,0-112.8,0-169.2c0-68.7,0-137.4,0-206
			c0-59,0-117.9,0-176.9c0-19.6,0-39.2,0-58.8c0-8.9,1.3-19,0-27.9c-0.1-0.4,0-0.8,0-1.2c0-0.8-0.3-1.3-0.8-1.7
			c0.1-1.2-0.6-2.5-2.2-2.6c-13.1-0.5-25.3-13.8-25.8-26.7c0-0.5-0.2-0.8-0.4-1.1c-0.3-0.6-1-1.1-1.9-1.1c-40.5,0-80.9,0-121.4,0
			c-64.5,0-129,0-193.6,0c-14.9,0-29.7,0-44.6,0c-0.9,0-1.6,0.5-1.9,1.1c-0.2,0.3-0.3,0.7-0.4,1.2C69.1,59.5,57,72.8,43.9,73.3
			c-1.8,0.1-2.5,1.9-2,3.2c-0.2,0.3-0.2,0.6-0.2,1c0,23.7,0,47.4,0,71.1c0,56.4,0,112.8,0,169.2c0,68.7,0,137.4,0,206
			c0,59,0,117.9,0,176.9c0,19.6,0,39.2,0,58.8c0,8.9-1.3,19,0,27.9c0.1,0.4,0,0.8,0,1.2c0,0.9,0.5,1.6,1.1,1.9
			c0.3,0.2,0.7,0.3,1.2,0.4c13,0.5,25.3,13.3,25.8,26.2c0,0.5,0.2,0.8,0.4,1.1c0.3,0.6,1,1.1,1.9,1.1c40.5,0,80.9,0,121.4,0
			c64.5,0,129,0,193.6,0c14.9,0,29.7,0,44.6,0c0.9,0,1.6-0.5,1.9-1.1c0.2-0.3,0.3-0.7,0.4-1.2c0.5-12.9,12.7-25.7,25.8-26.2
			C459.6,791,459.8,790.9,460,790.9z M429.3,814.9c-39.8,0-79.6,0-119.3,0c-64.5,0-129,0-193.6,0c-14.2,0-28.3,0-42.5,0
			c-1.7-13.9-13.9-26.5-27.8-28.3c0-23,0-46,0-69.1c0-56.4,0-112.8,0-169.2c0-68.7,0-137.4,0-206c0-59,0-117.9,0-176.9
			c0-19.6,0-39.2,0-58.8c0-8.9,1.3-19,0-27.9c-0.1-0.4,0-0.8,0-1.2c14-1.8,26.1-14.9,27.8-28.7c39.8,0,79.6,0,119.3,0
			c64.5,0,129,0,193.6,0c14.2,0,28.3,0,42.5,0c1.7,14.1,14.3,27.3,28.5,28.8c0,23.7,0,47.3,0,71c0,56.4,0,112.8,0,169.2
			c0,68.7,0,137.4,0,206c0,59,0,117.9,0,176.9c0,19.6,0,39.2,0,58.8c0,8.6-1.2,18.4-0.1,27C443.6,788.1,431.1,800.9,429.3,814.9z"/>
		<path d="M104.7,793.6c-0.1-0.3-0.3-0.5-0.5-0.5h-0.1c-0.3,0-0.5,0.1-0.9,0.2c-0.3,0.1-0.5,0.2-0.5,0.3c0,0.1-0.1,0.2-0.4,0.2
			c-0.2,0-0.3,0-0.3,0c0,0,0-0.1,0.1-0.2c0.1-0.1,0.3-0.2,0.4-0.2c0.1,0,0.2-0.1,0.3-0.4c0.1-0.2,0.2-0.4,0.3-0.4
			c0.1,0,0.2-0.1,0.3-0.3c0.1-0.2,0.2-0.3,0.3-0.3c0.2,0,0.4-0.1,0.6-0.4c0.2-0.3,0.3-0.5,0.3-0.7c0-0.3,0-0.4-0.1-0.4
			c-0.1,0-0.1-0.1-0.1-0.2s0-0.2,0.1-0.3c0.1,0,0.2-0.7,0.2-2.1c0-0.3,0-0.7,0-1.2c0-0.6-0.1-0.9-0.2-0.9c-0.2-0.1-0.3-0.2-0.3-0.6
			c0-0.3,0-0.5-0.1-0.5c-0.1,0-0.1-0.1-0.1-0.4c0-0.3-0.1-0.4-0.2-0.4c-0.2,0-0.3-0.1-0.4-0.4c-0.1-0.2-0.2-0.3-0.4-0.4
			c-0.1-0.1-0.2-0.2-0.2-0.4c0-0.2-0.2-0.3-0.5-0.3c-0.6,0-0.9-0.1-0.9-0.4c0-0.1-0.1-0.2-0.2-0.2c-0.1,0-0.2,0-0.2-0.1
			c0-0.1-0.1-0.2-0.4-0.2c-0.2,0-0.3-0.1-0.4-0.2c0-0.1-0.6-0.2-1.5-0.2c-1,0-1.6,0.1-1.7,0.2c-0.1,0.1-0.3,0.2-0.4,0.2
			c-0.2,0-0.3,0-0.3,0.1c0,0.1-0.1,0.3-0.3,0.4c-0.2,0.1-0.4,0.2-0.6,0.2c-0.3,0-0.7,0.1-1.1,0.2c-0.5,0.1-0.7,0.3-0.8,0.5
			c-0.1,0.3-0.3,0.5-0.5,0.8c-0.3,0.3-0.4,0.5-0.4,0.6c0,0.1-0.1,0.1-0.2,0.1c-0.1,0-0.2,0.1-0.3,0.4c-0.1,0.3-0.2,0.6-0.3,0.8
			c-0.2,0.3-0.2,0.9-0.2,1.9c0,1.3,0.1,2.3,0.4,3c0.2,0.6,0.4,1.2,0.7,1.6c0.3,0.5,0.5,0.7,0.6,0.7c0.1,0.1,0.2,0.2,0.3,0.4
			c0.1,0.2,0.2,0.3,0.4,0.3c0.3,0,0.4,0,0.4,0.1s0.1,0.1,0.3,0.1c0.2,0,0.3,0.1,0.3,0.4c0,0.3,0.1,0.4,0.3,0.4
			c0.2,0,0.3-0.1,0.3-0.2c0.1-0.1,0.1-0.1,0.3,0c0.2,0.1,1,0.2,2.4,0.2c1.2,0,1.9-0.1,1.9-0.2c0.1-0.1,0.2-0.1,0.4-0.1
			c0.6,0,1,0.1,1.3,0.4c0.2,0.2,0.7,0.3,1.5,0.3c0.8,0,1.2,0,1.2-0.1c0-0.1,0.1-0.1,0.4-0.2c0.3-0.1,0.4-0.3,0.4-0.5
			c0-0.1,0-0.2-0.1-0.2C104.9,794,104.8,793.9,104.7,793.6z M101.6,790c-0.1,0.1-0.2,0.2-0.2,0.4c0,0.2,0,0.3-0.1,0.3
			c-0.1,0-0.2-0.1-0.2-0.4c0-0.2,0-0.3-0.1-0.3c0,0-0.2,0-0.4,0c-0.4,0.1-0.7,0.1-0.8,0.2c-0.1,0.1-0.1,0.2-0.1,0.5c0,0,0,0.1,0,0.3
			c0,0.2,0,0.3,0,0.4v0.5c0,0.5-0.1,0.7-0.2,0.7c-0.1,0-0.2,0.1-0.4,0.2c-0.2,0.1-0.3,0.2-0.4,0.2c-0.2,0-0.4,0.1-0.5,0.2
			c-0.1,0.1-0.2,0.1-0.3,0.1c-0.2,0-0.5,0-0.8-0.1c-0.4-0.1-0.7-0.2-0.9-0.3c-0.2-0.1-0.4-0.3-0.7-0.6c-0.4-0.5-0.8-1-1.1-1.8
			c-0.3-0.7-0.4-1.4-0.4-2.3c0-0.6,0-1,0.1-1.2c0-0.2,0.2-0.5,0.3-0.9c0.3-0.5,0.6-1,1.1-1.5c0.5-0.5,0.8-0.7,1.1-0.8
			c0.3-0.1,0.5-0.2,0.5-0.3s0.1-0.2,0.2-0.2c0.1,0,0.2-0.1,0.2-0.2c0-0.1,0.1-0.1,0.4-0.1c0,0,0.2,0,0.6,0.1c0.4,0,0.7,0.1,1,0.2
			c0.3,0.1,0.4,0.1,0.4,0.2s0.1,0.2,0.3,0.3c0.2,0.1,0.3,0.2,0.3,0.3c0,0.1,0.1,0.2,0.3,0.3c0.2,0.1,0.4,0.2,0.4,0.3
			c0.1,0.1,0.1,0.3,0.1,0.6c0,0.3,0.1,0.6,0.3,0.9c0.1,0.1,0.2,0.3,0.2,0.6c0.1,0.3,0.1,0.6,0.2,1c0,0.4,0.1,0.6,0.1,0.7
			c0.1,0.3,0,0.4-0.1,0.5c-0.2,0.1-0.2,0.3-0.2,0.5C101.8,789.8,101.7,789.9,101.6,790z"/>
		<path d="M105.7,792c-0.3,0-0.5,0-0.6,0.1c0,0-0.1,0.1-0.1,0.1c0,0.2,0.2,0.2,0.6,0.2c0.3,0,0.5-0.1,0.5-0.2
			C106.2,792.1,106,792,105.7,792z"/>
		<path d="M124.3,783h-0.2c-0.4,0-0.8-0.1-1-0.3c-0.2-0.1-0.3-0.2-0.4-0.2c0,0-0.1,0.1-0.1,0.2c0,0.1,0,0.2-0.1,0.2
			c-0.1,0-0.4,0-0.8,0.1c-0.6,0-1,0-1,0.1c-0.1,0.1-0.1,0.3-0.1,0.7l0,0.6l0.8,0.1l0.8,0v2.3c0,1.5,0,2.3,0.1,2.4
			c0.1,0,0.1,0.1-0.1,0.3c-0.1,0.2-0.2,0.4-0.2,0.5v0.2c0,0.3,0,0.6-0.1,0.9c-0.1,0.3-0.2,0.5-0.3,0.5c-0.1,0.1-0.2,0.1-0.2,0.3
			c0,0.1-0.1,0.3-0.3,0.4c-0.2,0.2-0.4,0.2-0.6,0.2c-0.3,0-0.4,0.1-0.5,0.2c-0.1,0.1-0.2,0.2-0.4,0.2c-0.1,0-0.2,0-0.5-0.1
			c-0.5-0.1-0.7-0.1-0.8-0.2c0-0.1-0.2-0.1-0.4-0.1c-0.2,0-0.4-0.1-0.8-0.2c-0.2-0.1-0.3-0.2-0.4-0.3s-0.1-0.2-0.1-0.5V791v-0.3
			c0-0.4,0-0.6-0.1-0.6c-0.1,0-0.2-0.1-0.1-0.3c0-0.2,0.1-0.3,0.2-0.3c0.1-0.1,0.1-0.1,0-0.2c-0.1,0-0.1-0.1-0.1-0.2
			c0-0.1,0-0.2,0-0.3c0-0.1,0.1-0.1,0.1-0.1c0.1,0,0.1-0.3,0.1-0.9c0-0.9-0.1-1.4-0.2-1.5c-0.1-0.1-0.1-0.2,0-0.3
			c0.1-0.1,0.2-0.4,0.2-0.8c0-0.1,0-0.2,0-0.3c0-0.1-0.1-0.2-0.1-0.3c0-0.1,0-0.1,0-0.1c0-0.1,0.5-0.1,1.4-0.1c0.1,0,0.1,0,0.2,0
			c0.1,0,0.1,0,0.2,0h0c0,0,0.1-0.1,0.1-0.2c0-0.1,0-0.3-0.1-0.6c0-0.2-0.1-0.4-0.3-0.5c-0.2-0.1-0.5-0.1-1-0.1
			c-0.1,0-0.6,0-1.5,0.1c-1.4,0.1-2.1,0.2-2.3,0.4c-0.2,0.2-0.2,0.4-0.2,0.5c0,0.4,0.3,0.6,1,0.7c0.5,0.1,0.7,0.2,0.7,0.4
			c0,0.1-0.1,0.2-0.2,0.3c-0.2,0.1-0.2,0.4-0.1,0.7c0.1,0.3,0.1,0.6,0,0.6c-0.1,0.1-0.2,0.1-0.3,0.1c-0.1,0-0.1,0-0.1,0.1
			c0,0.2,0.1,0.4,0.4,0.5c0.2,0.1,0.4,0.2,0.4,0.4c0,0.1-0.1,0.2-0.2,0.3c-0.1,0.1-0.2,0.4-0.2,0.9v0.4c0,0.8,0.1,1.3,0.2,1.3
			c0.1,0.1,0.1,0.2,0.1,0.5s0,0.3-0.1,0.3c-0.1,0-0.1,0.1-0.2,0.4c-0.1,0.3,0,0.4,0.2,0.5c0.1,0.1,0.3,0.3,0.4,0.6
			c0.1,0.3,0.2,0.5,0.3,0.5s0.1,0.1,0.2,0.4c0.1,0.3,0.2,0.4,0.4,0.4c0.2,0,0.4,0,0.5,0.1c0.1,0.1,1,0.2,2.5,0.2
			c1.3,0,1.9-0.1,1.9-0.2c0-0.1,0.1-0.2,0.2-0.2c0.1,0,0.2-0.1,0.3-0.2c0.1-0.1,0.2-0.2,0.4-0.2c0.2,0,0.3-0.1,0.3-0.3
			c0-0.1,0.1-0.2,0.1-0.3s0.2,0,0.5,0h0.1c0.3,0,0.5,0,0.5-0.1c0-0.1-0.1-0.1-0.2-0.2c-0.1-0.1-0.2-0.2-0.2-0.3
			c0-0.2,0.1-0.4,0.2-0.6c0.2-0.2,0.2-0.4,0.1-0.4c-0.1,0-0.2-0.1-0.2-0.2c0-0.1,0-0.2,0.1-0.2c0.1,0,0.2-0.2,0.2-0.4
			c0-0.2,0.1-0.6,0.1-0.9c0-0.4,0-0.6,0-0.6c0-0.1,0-0.5,0.1-1.1c0-0.6,0-1.2,0.1-1.7c0-0.5,0.1-0.8,0.2-0.9c0.1-0.1,0.2-0.2,0-0.2
			c-0.1-0.1-0.2-0.1-0.2-0.2c0-0.1,0.1-0.3,0.3-0.4c0.2-0.1,0.4-0.2,0.6-0.2c0.1,0,0.2,0,0.2,0c0,0,0.1,0,0.2,0
			c0.3,0,0.4-0.1,0.4-0.3c0-0.1,0-0.1-0.1-0.2c-0.1-0.1-0.1-0.2,0-0.2c0.1,0,0.1-0.1,0.1-0.2C125.4,783.1,125,783,124.3,783z"/>
		<path d="M143.1,790.2c-0.1,0-0.3,0.2-0.5,0.5c-0.3,0.4-0.4,0.6-0.4,0.7c0,0.1-0.1,0.2-0.4,0.2c-0.2,0-0.3,0.1-0.3,0.1
			c0,0,0,0.1,0,0.3v0.2c0,0.2-0.1,0.3-0.4,0.3c0,0-0.1,0-0.2,0c-0.1,0-0.1,0-0.2,0c-0.2,0-0.4,0.1-0.7,0.4c-0.2,0.2-0.4,0.3-0.6,0.3
			c-0.1,0-0.2-0.1-0.2-0.2c-0.1-0.1-0.2-0.1-0.4,0c-0.2,0.1-0.6,0.2-1.2,0.2c-0.5,0-0.7,0-0.7-0.1c0-0.1-0.1-0.1-0.2-0.1
			c-0.1,0-0.1-0.1-0.2-0.2c-0.1-0.2-0.1-0.3-0.1-0.5c0,0,0-0.6,0.1-1.8c0-1.2,0.1-1.8,0.1-1.8c0-0.1,0.5-0.1,1.4-0.1
			c0.8,0,1.3,0.1,1.5,0.2c0.3,0.1,0.4,0.4,0.4,0.8c0,0.2,0,0.3,0.1,0.3c0,0,0.1,0,0.2,0c0.2-0.1,0.4-0.1,0.6-0.1h0.1
			c0.2,0,0.3-0.2,0.3-0.6c0-0.1,0-0.2,0-0.3c0-0.2,0-0.3,0-0.4v-0.3c0-0.4,0-0.6,0.1-0.6c0.1-0.1,0.1-0.3,0-0.4
			c-0.1-0.1-0.1-0.3,0.1-0.4c0.2-0.1,0.2-0.2,0.2-0.4c0-0.3-0.4-0.4-1.1-0.4c-0.4,0-0.6,0.2-0.6,0.5c0,0.1,0,0.2,0.1,0.3
			c0.1,0.2,0,0.3-0.1,0.5c-0.1,0.1-0.4,0.2-0.9,0.3c-0.6,0.1-1.1,0.2-1.6,0.2h-0.6V787c0-0.4,0.1-0.6,0.2-0.6c0.1,0,0.2-0.1,0.2-0.4
			c0-0.3-0.1-0.6-0.2-0.9c-0.1-0.2-0.2-0.4-0.2-0.4c0-0.1,0.1-0.1,0.2-0.3c0.2-0.2,0.3-0.3,0.2-0.5c0,0,0-0.1,0-0.2
			c0-0.2,0.1-0.3,0.4-0.4c0.3-0.1,0.8-0.1,1.5-0.2c0.6,0,1-0.1,1.1-0.1c0.4,0,0.6,0.1,0.7,0.2c0.2,0.2,0.3,0.3,0.5,0.4
			c0.2,0.1,0.3,0.2,0.3,0.3c0,0.1,0.1,0.2,0.4,0.4c0.2,0.1,0.4,0.3,0.4,0.3c0,0.2,0.1,0.3,0.3,0.5c0.2,0.2,0.4,0.3,0.6,0.3h0.1
			c0.3,0,0.4-0.2,0.4-0.7c0-0.2-0.1-0.4-0.2-0.5c-0.1-0.2-0.2-0.4-0.2-0.6c0-0.3-0.1-0.5-0.2-0.5c-0.1-0.1-0.1-0.2,0-0.4
			c0.1-0.1,0.1-0.2,0.1-0.3c0-0.1-0.1-0.1-0.2-0.2c-0.1-0.1-0.2-0.2-0.2-0.3c0-0.1-0.1-0.3-0.3-0.5c-0.1-0.1-0.2-0.2-0.3-0.2
			c-0.1,0-0.2,0-0.3,0.1c-0.2,0.1-1.9,0.3-5,0.4h-0.7c-1.5,0-2.3-0.1-2.4-0.3c0-0.1-0.1-0.1-0.3-0.1c-0.1,0-0.2,0-0.2,0.1
			c0,0.1-0.1,0.2-0.1,0.3c0,0.2,0,0.3,0,0.3c0,0.2-0.1,0.3-0.3,0.4c-0.2,0-0.3,0.2-0.2,0.5c0.1,0.2,0.1,0.4,0.2,0.5
			c0.1,0.1,0.2,0.1,0.3,0.1c0.1,0,0.3,0,0.4,0c0.1,0,0.1,0,0.2,0c0.1,0,0.1,0,0.2,0c0.4,0,0.6,0.1,0.7,0.4c0.1,0.2,0.1,0.8,0.1,1.5
			c0,0.9-0.1,1.4-0.2,1.5c-0.1,0-0.1,0.2,0,0.4c0.1,0.3,0.1,0.5,0,0.7c-0.1,0.2-0.2,0.3-0.3,0.3c-0.1,0-0.1,0.1,0.1,0.2
			c0.1,0.1,0.1,0.3,0.1,0.6c0,0.3-0.1,1.3-0.2,3l-0.1,1h-0.6c-0.4,0-0.6,0.1-0.7,0.3c-0.1,0.2-0.2,0.3-0.3,0.3
			c-0.2,0-0.2,0.1-0.2,0.4c0,0.3,0.1,0.5,0.3,0.6c0.2,0.1,0.3,0.3,0.3,0.4c0,0.1,0.1,0.2,0.3,0.2c0.2,0,0.5,0,0.8-0.1
			c0.3-0.1,0.5-0.2,0.6-0.2c0.2-0.1,0.6-0.2,1.2-0.2c0.1,0,0.6,0,1.5,0.1c0.8,0,1.2,0.1,1.2,0.2c0.1,0.1,0.2,0.1,0.4,0
			c0.3-0.1,0.8-0.2,1.6-0.2c0.9,0,1.4,0,1.6-0.1c0.2,0,0.3-0.1,0.5-0.2c0.2-0.2,0.3-0.4,0.2-0.6c-0.1-0.2,0-0.4,0.2-0.4
			c0.1-0.1,0.2-0.4,0.2-0.8c0-0.3,0-0.5,0.1-0.6c0-0.1,0.1-0.1,0.2-0.1c0.2,0,0.3-0.2,0.3-0.5c0-0.3-0.1-0.5-0.2-0.7
			C143.4,790.3,143.3,790.2,143.1,790.2z"/>
		<path d="M132.4,792.2c0.1,0,0.1-0.1,0.2-0.1c0.1-0.2,0.1-0.3-0.1-0.3c-0.1,0-0.2,0.1-0.2,0.2C132.3,792.1,132.3,792.2,132.4,792.2
			z"/>
		<path d="M161,790.2c-0.1,0-0.3,0.2-0.5,0.5c-0.3,0.3-0.4,0.5-0.4,0.7c0,0.1-0.1,0.2-0.4,0.2c-0.1,0-0.2,0-0.3,0.1
			c0,0-0.1,0.1-0.1,0.1c0,0,0,0.1,0,0.3c0,0.2-0.1,0.3-0.4,0.3c0,0-0.1,0-0.1,0c-0.1,0-0.1,0-0.2,0c-0.2,0-0.4,0.1-0.6,0.3
			c-0.2,0.2-0.4,0.3-0.6,0.3c-0.1,0-0.2-0.1-0.2-0.2c0-0.1-0.1-0.1-0.4,0c-0.2,0.1-0.6,0.2-1.2,0.2c-0.5,0-0.7,0-0.7-0.1
			s-0.1-0.1-0.2-0.1c-0.1,0-0.1-0.1-0.2-0.2c-0.1-0.2-0.1-0.3-0.1-0.4c0-0.1,0-0.2,0-0.3c0-0.2,0-0.4,0-0.6c0-0.3,0-0.5,0-0.8
			c0-0.3,0-0.5,0-0.8c0-0.3,0-0.5,0-0.6v-0.2c0-0.1,0.4-0.1,1.3-0.1c0.7,0,1.2,0.1,1.4,0.2c0.2,0.1,0.4,0.4,0.4,0.8
			c0,0.2,0,0.3,0.1,0.3c0,0,0.1,0,0.2,0c0.1-0.1,0.3-0.1,0.5-0.1c0.1,0,0.2,0,0.3-0.1c0-0.1,0.1-0.2,0.1-0.5c0-0.1,0-0.2,0-0.3
			c0-0.2,0-0.3,0-0.4v-0.2c0-0.3,0-0.6,0.1-0.7c0.1-0.1,0.1-0.3,0-0.4c-0.1-0.1-0.1-0.3,0.1-0.4c0.1-0.1,0.2-0.2,0.2-0.4
			c0-0.3-0.3-0.4-1-0.4c-0.4,0-0.6,0.2-0.6,0.5c0,0.1,0,0.2,0.1,0.3c0,0.2,0,0.4,0,0.5s-0.3,0.2-0.9,0.3c-0.5,0.1-1,0.1-1.5,0.1
			h-0.6v-0.6c0-0.4,0.1-0.6,0.2-0.6c0.1,0,0.2-0.1,0.2-0.4c0-0.3-0.1-0.5-0.2-0.9c-0.1-0.2-0.2-0.4-0.1-0.4c0-0.1,0.1-0.1,0.2-0.3
			c0.2-0.1,0.3-0.3,0.2-0.5c0,0,0-0.1,0-0.2c0-0.1,0.1-0.3,0.4-0.3c0.3-0.1,0.7-0.1,1.5-0.2c0.7,0,1.1-0.1,1.1-0.1
			c0.3,0,0.5,0.1,0.6,0.2c0.1,0.2,0.3,0.3,0.5,0.4c0.2,0.1,0.3,0.2,0.3,0.3c0,0.1,0.1,0.2,0.3,0.3c0.2,0.1,0.3,0.2,0.3,0.3
			c0,0.2,0.1,0.3,0.3,0.5c0.2,0.2,0.4,0.2,0.6,0.2h0c0.3,0,0.4-0.2,0.4-0.6c0-0.2-0.1-0.3-0.2-0.5c-0.1-0.1-0.2-0.3-0.2-0.5
			c0-0.3-0.1-0.5-0.2-0.5c-0.1,0-0.1-0.1,0-0.4c0.1-0.1,0.1-0.2,0.1-0.3c0,0-0.1-0.1-0.1-0.1c-0.1-0.1-0.2-0.2-0.2-0.3
			c0-0.1-0.1-0.3-0.3-0.5c-0.2-0.2-0.4-0.3-0.6-0.1c-0.3,0.1-1.8,0.3-4.7,0.4h-0.7c-1.5,0-2.2-0.1-2.3-0.3c0-0.1-0.1-0.1-0.2-0.1
			c-0.1,0-0.2,0-0.2,0.1l0,0.1c0,0.1,0,0.1,0,0.1c0,0,0,0.1,0,0.2c0,0.1,0,0.2,0,0.2c0,0.2-0.1,0.3-0.3,0.3
			c-0.2,0.1-0.3,0.2-0.2,0.5c0.1,0.2,0.1,0.4,0.2,0.5c0.1,0.1,0.2,0.1,0.3,0.1c0.1,0,0.3,0,0.4,0c0.1,0,0.2,0,0.4,0
			c0.3,0,0.5,0.1,0.6,0.4c0.1,0.2,0.1,0.7,0.1,1.4c0,0.9-0.1,1.4-0.2,1.4c-0.1,0-0.1,0.2,0,0.4c0.1,0.2,0.1,0.4,0,0.6
			c-0.1,0.2-0.2,0.3-0.3,0.3c-0.1,0-0.1,0.1,0.1,0.2c0.1,0.1,0.1,0.3,0.1,0.6c0,0.5-0.1,1.5-0.2,2.8l-0.1,0.9h-0.6
			c-0.4,0-0.6,0.1-0.6,0.3c0,0.2-0.1,0.3-0.3,0.3c-0.1,0-0.2,0.1-0.2,0.3c0,0.3,0.1,0.5,0.3,0.6c0.2,0.1,0.3,0.2,0.3,0.4
			c0,0.1,0.2,0.1,0.7,0.1c0.5,0,0.8-0.1,0.9-0.3c0.1-0.1,0.5-0.2,1.2-0.2c0.5,0,0.9,0,1.3,0c0.7,0,1.1,0.1,1.2,0.2
			c0,0.1,0.2,0.1,0.4,0c0.2-0.1,0.7-0.2,1.5-0.2c0.8,0,1.3,0,1.5-0.1c0.2,0,0.3-0.1,0.5-0.3c0.2-0.2,0.3-0.3,0.2-0.5
			c0-0.2,0-0.3,0.1-0.4c0.1-0.1,0.2-0.3,0.2-0.8c0-0.3,0-0.5,0-0.6c0-0.1,0.1-0.1,0.2-0.1c0.2,0,0.3-0.2,0.3-0.5
			c0-0.2-0.1-0.4-0.2-0.6C161.3,790.3,161.1,790.2,161,790.2z"/>
		<path d="M150.7,791.9c0,0.1,0,0.2,0.1,0.2c0,0,0.1,0,0.1-0.1c0.1-0.2,0.1-0.3,0-0.3C150.8,791.7,150.7,791.8,150.7,791.9z"/>
		<path d="M181.6,782c-0.1,0-0.2,0-0.3,0.1c-0.2,0.1-0.3,0.1-0.3,0.1c-0.1,0-0.1-0.1-0.2-0.2c-0.1-0.2-0.3-0.3-0.4-0.3
			c-0.1,0-0.2-0.1-0.2-0.3c0-0.2-0.1-0.3-0.3-0.3c-0.2,0-0.3,0.1-0.3,0.3c0,0.2,0.1,0.3,0.2,0.3c0.1,0,0.2,0.1,0.2,0.3
			c0,0.2-0.1,0.3-0.2,0.3c-0.2,0-0.3-0.1-0.3-0.4c-0.1-0.2-0.2-0.4-0.3-0.4c-0.1,0-0.1,0-0.2,0.1c-0.2,0.2-0.2,0.3,0,0.3
			c0.1,0,0.2,0.1,0.2,0.1c0,0.1-0.1,0.2-0.4,0.2c-0.2,0-0.4,0-0.4-0.1c0-0.1-0.1-0.1-0.4-0.1c-0.4,0-0.8,0.1-1.1,0.2
			c-0.4,0.2-0.6,0.4-0.6,0.7c0,0.3,0.3,0.5,0.8,0.6c0.4,0.1,0.6,0.1,0.6,0.2c0,0.1,0.1,0.1,0.3,0.1c0.3,0,0.5,0.2,0.6,0.6
			c0.1,0.4,0.2,1.2,0.2,2.4c0,1.4,0.1,2.2,0.1,2.4c0.1,0.1,0,0.3,0,0.6l-0.1,0.4l-0.5-0.5c-0.4-0.3-0.5-0.5-0.5-0.6
			c0-0.1-0.1-0.2-0.2-0.3c-0.1-0.1-0.3-0.2-0.4-0.4c-0.2-0.1-0.3-0.2-0.3-0.2c-0.1-0.1-0.3-0.2-0.3-0.2c-0.1,0-0.2-0.1-0.2-0.2
			c0-0.1-0.1-0.2-0.2-0.3c-0.1-0.1-0.3-0.2-0.4-0.2s-0.1-0.1-0.1-0.2c0-0.1-0.1-0.2-0.2-0.2c-0.1,0-0.1,0-0.1-0.1
			c0-0.1-0.1-0.2-0.4-0.5c-0.2-0.3-0.4-0.4-0.4-0.5c0-0.1-0.1-0.2-0.3-0.2c-0.2,0-0.3-0.1-0.5-0.2c-0.2-0.1-0.2-0.3-0.2-0.4
			c0-0.1-0.2-0.3-0.5-0.7c-0.3-0.4-0.5-0.6-0.5-0.7c0-0.1-0.1-0.2-0.3-0.4c-0.2-0.2-0.3-0.4-0.3-0.4c0-0.3-0.6-0.5-1.8-0.6
			c-0.6,0-0.9-0.1-0.9-0.1c-0.3,0-0.4,0.1-0.4,0.2c0,0.1,0,0.2,0,0.4c0,0.2,0,0.4,0.1,0.6c0.1,0.2,0.1,0.3,0.2,0.3
			c0.1,0,0.2,0.2,0.3,0.6c0.1,0.4,0.2,0.6,0.2,0.6c0.1,0,0.1,0.3,0.1,0.8c0,0.5,0,0.8-0.1,0.8c-0.1,0-0.1,0.1-0.1,0.4
			c0,0.2,0.1,0.6,0.2,1c0.1,0.2,0.1,0.6,0.1,1.1c0,0.7-0.1,1.1-0.2,1.1c-0.1,0-0.1,0.2-0.1,0.7c0,0.5,0,1.1-0.1,1.5
			c0,0.4-0.1,0.6-0.1,0.7c-0.1,0.1-0.2,0.2-0.4,0.2c-0.3,0.1-0.4,0.2-0.4,0.4c0,0.2,0.1,0.4,0.4,0.6c0.2,0.2,0.3,0.3,0.5,0.3
			c0.2,0,0.8,0,1.7,0c1,0,1.6,0,1.8-0.1c0.2-0.1,0.3-0.3,0.3-0.8c0-0.3-0.1-0.4-0.3-0.5c-0.2-0.1-0.3-0.1-0.3-0.2
			c0-0.1-0.2-0.1-0.6-0.1c-0.4,0-0.7-0.1-0.9-0.3c-0.2-0.2-0.2-0.3-0.1-0.4c0.1-0.1,0.2-0.2,0.2-0.6c0-0.3,0-0.5-0.1-0.5
			c-0.1-0.1-0.1-0.9-0.1-2.6c0-1.7,0.1-2.5,0.2-2.5c0.1,0,0.3,0.1,0.4,0.2c0.1,0.1,0.3,0.2,0.5,0.3c0.3,0.1,0.4,0.3,0.5,0.4
			s0.3,0.5,0.8,1.1c0.5,0.5,0.9,0.9,1.3,1.1c0.2,0.1,0.3,0.2,0.3,0.3c0,0.1,0.2,0.2,0.5,0.6c0.7,0.7,1.1,1.1,1.1,1.4
			c0,0.1,0.1,0.1,0.3,0.1c0.2,0,0.3,0,0.3,0.1c0,0.1,0.1,0.3,0.4,0.5c0.2,0.2,0.4,0.4,0.4,0.6c0,0.1,0.1,0.3,0.3,0.5
			c0.2,0.2,0.3,0.3,0.4,0.3c0.1,0,0.3,0.2,0.6,0.5c0.3,0.3,0.5,0.5,0.7,0.6c0.1,0.1,0.2,0.1,0.3,0.1c0.4,0,0.6-0.2,0.6-0.6
			c0-0.1,0-0.2,0-0.4c0-0.9-0.1-1.4-0.2-1.6c-0.1-0.1-0.1-0.5-0.1-1.3v-0.4c0-1,0-1.6-0.1-1.6c-0.1-0.1-0.2-0.4-0.2-1
			c0-0.5,0-0.8,0.1-0.8c0.1-0.1,0.2-0.2,0.2-0.5c0-0.3,0-0.4,0.1-0.4c0.1,0,0.1-0.1,0.1-0.4c0-0.3,0-0.4-0.1-0.4
			c-0.1,0-0.1-0.1-0.1-0.4c0-0.4,0.1-0.7,0.2-1c0.2-0.3,0.4-0.5,0.7-0.5c0.2,0,0.4-0.1,0.4-0.1c0.1,0,0.1-0.2,0.1-0.5v-0.2
			C181.9,782.3,181.8,782,181.6,782z"/>
		<path d="M213.2,785.7c-0.2-0.1-0.2-0.2-0.2-0.5c0-0.3,0-0.5-0.1-0.5c-0.1,0-0.1-0.1-0.1-0.4s-0.1-0.4-0.2-0.4
			c-0.1,0-0.2-0.1-0.3-0.3c-0.1-0.2-0.2-0.3-0.3-0.4c-0.1-0.1-0.2-0.2-0.2-0.4c0-0.2-0.1-0.3-0.4-0.3c-0.7,0-1-0.1-1-0.4
			c0-0.1-0.1-0.2-0.2-0.2c-0.1,0-0.2,0-0.2-0.1c0-0.1-0.1-0.1-0.3-0.1c-0.2,0-0.3-0.1-0.4-0.2c0-0.1-0.5-0.2-1.5-0.2
			c-0.9,0-1.5,0.1-1.6,0.2c-0.1,0.1-0.2,0.2-0.4,0.2c-0.2,0-0.3,0.1-0.4,0.3c-0.1,0.2-0.3,0.4-0.6,0.4c-0.3,0-0.6,0.1-1.1,0.2
			c-0.5,0.1-0.7,0.3-0.8,0.5c0,0.2-0.2,0.4-0.5,0.7c-0.3,0.3-0.4,0.5-0.4,0.5c0,0.1-0.1,0.1-0.2,0.1c-0.1,0-0.2,0.1-0.3,0.4
			c-0.1,0.2-0.2,0.4-0.3,0.7c-0.2,0.3-0.2,0.8-0.2,1.8c0,1.2,0.1,2.1,0.4,2.9c0.5,1.4,0.9,2.2,1.2,2.3c0.2,0,0.3,0.1,0.3,0.3
			c0,0.2,0.2,0.2,0.4,0.2c0.2,0,0.4,0,0.4,0.1c0,0.1,0.1,0.1,0.3,0.1s0.3,0.1,0.3,0.4c0,0.2,0,0.3,0.1,0.4c0.1,0.1,0.2,0,0.4-0.1
			c0.1-0.1,0.2-0.1,0.3,0c0.2,0.1,0.9,0.2,2.2,0.2c1.1,0,1.7-0.1,1.7-0.2c0-0.1,0.3-0.2,0.7-0.2c0.4,0,0.6-0.1,0.6-0.2
			c0-0.2,0.1-0.3,0.2-0.3c0,0,0.2-0.1,0.4-0.3c0.3-0.2,0.4-0.3,0.5-0.3c0.1,0,0.2-0.1,0.2-0.3c0.1-0.2,0.2-0.3,0.3-0.3
			c0.1,0,0.2-0.1,0.3-0.3c0-0.2,0.2-0.3,0.4-0.3c0.2-0.1,0.3-0.1,0.3-0.2c0-0.1,0.1-0.1,0.2-0.1c0.1,0,0.2-0.2,0.2-0.6
			c0-0.3,0-0.5-0.1-0.5c-0.1,0-0.1-0.1,0-0.2c0.1-0.1,0.2-0.8,0.2-2.1c0-0.3,0-0.7,0-1.1C213.5,786,213.4,785.7,213.2,785.7z
			 M211,788.8c-0.1,0-0.2,0.2-0.2,0.4c0,0.3-0.1,0.4-0.2,0.5c-0.1,0.1-0.2,0.4-0.3,0.8c-0.1,0.4-0.1,0.6-0.3,0.6
			c-0.1,0-0.2,0-0.2,0.1c0,0.1-0.1,0.2-0.4,0.2c-0.3,0.1-0.4,0.2-0.4,0.3c0,0.1,0,0.2-0.1,0.2c-0.1,0.1-0.2,0.1-0.4,0.2
			c-0.1,0.1-0.2,0.1-0.3,0.1c0,0.1-0.2,0.1-0.4,0.1c-0.2,0-0.3,0.1-0.5,0.2c-0.1,0.1-0.2,0.1-0.4,0.1c-0.2,0-0.4,0-0.7-0.1
			c-0.5-0.1-1-0.3-1.3-0.6c-0.3-0.3-0.7-0.8-1-1.5c-0.3-0.5-0.4-0.9-0.5-1.1c0-0.2-0.1-0.7-0.1-1.4c0-0.7,0-1.1,0.1-1.4
			c0-0.2,0.1-0.5,0.3-0.8c0.3-0.5,0.6-0.9,1-1.3c0.4-0.4,0.8-0.6,1-0.7c0.3,0,0.5-0.1,0.5-0.3c0-0.1,0.1-0.2,0.2-0.2
			c0.1,0,0.2,0,0.2-0.1c0-0.1,0.1-0.1,0.3-0.1c0.2,0,0.3,0,0.3,0.1c0,0.1,0.3,0.1,0.9,0.1c0.5,0,0.8,0.1,0.8,0.2
			c0,0.1,0.1,0.2,0.3,0.3c0.2,0.1,0.3,0.2,0.3,0.3s0.1,0.2,0.3,0.3c0.3,0.1,0.5,0.4,0.5,0.8c0,0.2,0.1,0.5,0.3,0.8
			c0.2,0.3,0.3,0.7,0.3,1.1c0,0.5,0,0.7,0.1,0.8c0.1,0.1,0.1,0.2,0.1,0.4C211.2,788.6,211.2,788.7,211,788.8z"/>
		<path d="M231,783.9c0-0.3-0.1-0.5-0.2-0.6c-0.1-0.1-0.1-0.2,0-0.4c0.1-0.1,0.1-0.2,0.1-0.2c0-0.1-0.1-0.2-0.2-0.2
			c-0.1-0.1-0.2-0.2-0.2-0.3c0-0.2-0.1-0.3-0.3-0.5c-0.2-0.2-0.4-0.3-0.5-0.3c-0.1,0-0.2,0-0.2,0.1c0,0.1-0.3,0.1-0.9,0.2
			c-0.5,0.1-1.1,0.1-1.7,0.1c-0.6,0-0.9,0-1,0.1c-0.1,0-0.5,0.1-1.4,0.1c-0.9,0.1-1.8,0.2-2.7,0.3c-0.9,0.1-1.4,0.2-1.4,0.2
			c0,0,0,0.1,0,0.2c0,0.1,0,0.2,0.1,0.3c0.1,0.2,0.1,0.3,0.2,0.4c0.1,0,0.3,0.1,0.6,0.1c0.5,0,0.9,0.1,1,0.3
			c0.1,0.2,0.2,0.7,0.2,1.6c0,0.9-0.1,1.4-0.2,1.5c-0.1,0.1-0.1,0.2,0,0.4c0.1,0.3,0.2,0.5,0,0.7c-0.1,0.2-0.2,0.3-0.3,0.3
			c-0.1,0,0,0.1,0.1,0.2c0.1,0.1,0.1,0.3,0.1,0.6c0,0.1,0,0.4-0.1,0.8c-0.1,1.4-0.2,2.3-0.2,2.6c-0.1,0.4-0.1,0.5-0.3,0.6
			c-0.2,0.1-0.5,0.3-0.8,0.6l-0.5,0.6h5v-0.5c0-0.2,0-0.4-0.1-0.4c0-0.1-0.1-0.1-0.3-0.1c-0.2,0-0.4,0-0.4-0.1
			c0-0.1-0.1-0.1-0.2-0.1s-0.2-0.1-0.3-0.3c0-0.1,0-0.4,0-1.2c0-1.2,0-2.1,0.1-2.8c0-0.1,0.5-0.1,1.4-0.1c0.8,0,1.3,0.1,1.5,0.2
			c0.3,0.1,0.4,0.4,0.4,0.9c0,0.3,0,0.5,0.1,0.5c0.1,0,0.1-0.1,0.3-0.2c0.1-0.1,0.3-0.2,0.5-0.1c0.2,0.1,0.3,0,0.3-0.2
			c0-0.2,0-0.3,0.1-0.4c0.1-0.1,0.1-0.2,0-0.2c-0.1-0.1-0.2-0.3-0.2-0.6c0-0.4,0.1-0.7,0.2-0.8c0.1-0.1,0.1-0.1,0.1-0.2
			c0-0.1,0-0.1-0.1-0.2c-0.1-0.1-0.1-0.2-0.1-0.2c0-0.1,0-0.1,0.1-0.2c0.2-0.1,0.2-0.2,0.2-0.4c0-0.3-0.4-0.4-1.1-0.4
			c-0.4,0-0.6,0.2-0.6,0.5c0,0.1,0,0.2,0.1,0.3c0.1,0.2,0,0.4,0,0.5c-0.1,0.1-0.4,0.2-1,0.3c-0.6,0.1-1.1,0.2-1.6,0.2h-0.5v-0.6
			c0-0.4,0.1-0.6,0.2-0.7c0.1-0.1,0.2-0.2,0.2-0.4c0-0.3-0.1-0.5-0.2-0.8c-0.1-0.2-0.2-0.4-0.2-0.4c0-0.1,0.1-0.1,0.2-0.3
			c0.2-0.2,0.3-0.4,0.2-0.6c0-0.1,0-0.1,0-0.2c0-0.1,0.1-0.2,0.4-0.3c0.3-0.1,0.8-0.1,1.6-0.1c0.7,0,1.1-0.1,1.1-0.1
			c0.3,0,0.5,0.1,0.7,0.2c0.2,0.2,0.3,0.3,0.5,0.4c0.2,0.1,0.3,0.2,0.3,0.3c0,0.1,0.1,0.3,0.3,0.4c0.2,0.1,0.4,0.3,0.5,0.6
			c0.1,0.4,0.4,0.5,0.8,0.5c0.1,0,0.2,0,0.3-0.1c0.1-0.1,0.2-0.2,0.2-0.6c0-0.3-0.1-0.5-0.2-0.5C231.1,784.4,231,784.2,231,783.9z"
			/>
		<path d="M260.2,782.4c-0.1,0-0.2,0-0.2-0.1c0-0.1-0.1-0.2-0.4-0.3c-0.3-0.1-0.4-0.3-0.5-0.5l-0.2-0.3c-0.1-0.1-0.2-0.1-0.2,0.1
			c0,0.1-0.3,0.1-0.8,0.1c-0.6,0-0.9,0-0.9-0.1c0-0.1-0.1-0.1-0.3-0.1c-0.5,0-0.8-0.1-0.8-0.4c0-0.1-0.1-0.2-0.3-0.2
			s-0.3,0.1-0.2,0.3c0,0,0,0,0,0.1c0,0,0,0,0,0.1c0,0.1-0.6,0.2-1.8,0.2h-1.8l-0.5,0.5c-0.3,0.3-0.5,0.5-0.5,0.7
			c0,0.2,0.2,0.4,0.7,0.4c0.2,0,0.3,0,0.3,0.1c0,0.1,0,0.1,0.1,0.1c0.2,0,0.4,0.2,0.6,0.5c0.2,0.3,0.3,0.7,0.3,1.2
			c0,0.4,0.1,0.6,0.1,0.6c0,0.2-0.1,0.4-0.2,0.5c-0.2,0.1-0.2,0.2-0.1,0.3c0.1,0.1,0.2,0.3,0.2,0.7c0,0.3-0.1,0.5-0.2,0.5
			c-0.2,0-0.2,0,0,0.1c0.1,0.1,0.1,0.3,0,0.6c-0.1,0.3-0.1,0.5,0.1,0.6c0.1,0.1,0.1,0.2,0.1,0.3c0,0.2-0.1,0.4-0.2,0.5
			c-0.1,0.1-0.1,0.6-0.2,1.6l0,1.5l-0.4,0.2c-0.2,0.1-0.5,0.2-1.1,0.2c-0.3,0-0.5,0.1-0.5,0.1c-0.1,0.1-0.1,0.2-0.1,0.4
			c0,0.2,0.2,0.5,0.6,0.8c0.2,0.1,0.3,0.2,0.5,0.2c0.2,0,0.3-0.1,0.3-0.2c0.1-0.1,0.8-0.2,2.1-0.2c1.4-0.1,2.1-0.1,2.2-0.3
			c0.1-0.1,0.2-0.2,0.3-0.2c0.1,0,0.2-0.1,0.2-0.2c0-0.1-0.1-0.2-0.4-0.2c-0.3,0-0.4-0.1-0.5-0.3c0-0.2-0.2-0.3-0.5-0.4
			c-0.4-0.1-0.5-0.2-0.5-0.4c0-0.1,0-0.2,0.1-0.3c0.2-0.2,0.2-0.3,0.1-0.4c-0.1,0-0.2-0.6-0.2-1.6c0-0.3,0-0.6,0-1
			c0-0.3,0-0.4,0.1-0.5c0-0.1,0.1-0.1,0.2-0.1c0.2,0,0.5,0,0.8,0.1c0.3,0.1,0.5,0.2,0.6,0.3c0.1,0.1,0.7,0.2,1.7,0.2
			c0.8,0,1.2,0,1.2-0.1c0.1-0.1,0-0.2-0.2-0.3c-0.2-0.1-0.4-0.2-0.5-0.4c-0.1-0.1-0.2-0.2-0.2-0.2c0,0,0.1-0.1,0.3-0.1
			c0.3-0.1,0.4-0.1,0.4-0.2s0.1-0.2,0.4-0.3c0.3-0.1,0.4-0.2,0.4-0.4c0-0.5,0.1-0.7,0.3-0.7c0.1,0,0.2-0.1,0.4-0.2
			c0.2-0.2,0.2-0.7,0.2-1.5c0-1-0.1-1.5-0.3-1.7C260.4,782.5,260.3,782.4,260.2,782.4z M258.6,786.1c0,0-0.1,0.1-0.4,0.1h-0.1
			c0,0-0.1,0-0.1,0c-0.1,0-0.1,0,0,0.1c0.1,0.1,0.2,0.1,0.2,0.2c0,0.1-0.1,0.3-0.3,0.5c-0.2,0.2-0.5,0.3-0.7,0.3
			c-0.3,0-0.6,0.1-1.1,0.2c-0.1,0-0.2,0-0.3,0c-0.2,0-0.4-0.1-0.7-0.3c-0.2-0.2-0.3-0.3-0.4-0.3c0-0.1,0-0.1,0.1-0.2
			c0.1-0.1,0.2-0.7,0.2-1.6v-1.2c0-0.3,0.1-0.5,0.2-0.7c0.1-0.2,0.3-0.4,0.4-0.4h0.1l0.4,0.1c0.3,0,0.5,0.1,0.8,0.1
			c0.2,0.1,0.4,0.1,0.4,0.1c0,0.1,0.1,0.1,0.4,0.2c0.3,0.1,0.4,0.2,0.4,0.3c0,0.1,0.1,0.3,0.2,0.4c0.1,0.1,0.2,0.2,0.1,0.3
			c-0.1,0.1-0.1,0.3,0.1,0.6c0.1,0.2,0.2,0.4,0.2,0.6C258.7,785.3,258.7,785.6,258.6,786.1z"/>
		<path d="M256.9,780.6C257,780.6,257,780.5,256.9,780.6c0.1-0.1,0-0.1-0.2-0.1c-0.2,0-0.3,0.1-0.3,0.2
			C256.5,780.7,256.7,780.7,256.9,780.6C256.9,780.6,256.9,780.6,256.9,780.6z"/>
		<path d="M252.5,779.6c0-0.1-0.1-0.1-0.3-0.1s-0.3,0-0.3,0.1c0,0.1,0.1,0.2,0.3,0.2S252.5,779.7,252.5,779.6z"/>
		<path d="M278,790.2c-0.1,0-0.3,0.2-0.5,0.5c-0.3,0.3-0.4,0.5-0.4,0.7c0,0.1-0.1,0.2-0.4,0.2c-0.1,0-0.2,0-0.3,0.1
			c0,0-0.1,0.1-0.1,0.1c0,0,0,0.1,0,0.3c0,0.2-0.1,0.3-0.4,0.3c0,0-0.1,0-0.1,0c-0.1,0-0.1,0-0.2,0c-0.2,0-0.4,0.1-0.6,0.3
			c-0.2,0.2-0.4,0.3-0.6,0.3c-0.1,0-0.2-0.1-0.2-0.2c0-0.1-0.1-0.1-0.4,0c-0.2,0.1-0.6,0.2-1.2,0.2c-0.5,0-0.7,0-0.7-0.1
			s-0.1-0.1-0.2-0.1c-0.1,0-0.1-0.1-0.2-0.2c-0.1-0.2-0.1-0.3-0.1-0.4c0-0.1,0-0.2,0-0.3c0-0.2,0-0.4,0-0.6c0-0.3,0-0.5,0-0.8
			c0-0.3,0-0.5,0-0.8c0-0.3,0-0.5,0-0.6v-0.2c0-0.1,0.4-0.1,1.3-0.1c0.7,0,1.2,0.1,1.4,0.2c0.2,0.1,0.4,0.4,0.4,0.8
			c0,0.2,0,0.3,0.1,0.3c0,0,0.1,0,0.2,0c0.1-0.1,0.3-0.1,0.5-0.1c0.1,0,0.2,0,0.3-0.1c0-0.1,0.1-0.2,0.1-0.5c0-0.1,0-0.2,0-0.3
			c0-0.2,0-0.3,0-0.4v-0.2c0-0.3,0-0.6,0.1-0.7c0.1-0.1,0.1-0.3,0-0.4c-0.1-0.1-0.1-0.3,0.1-0.4c0.1-0.1,0.2-0.2,0.2-0.4
			c0-0.3-0.3-0.4-1-0.4c-0.4,0-0.6,0.2-0.6,0.5c0,0.1,0,0.2,0.1,0.3c0,0.2,0,0.4,0,0.5s-0.3,0.2-0.9,0.3c-0.5,0.1-1,0.1-1.5,0.1
			h-0.6v-0.6c0-0.4,0.1-0.6,0.2-0.6c0.1,0,0.2-0.1,0.2-0.4c0-0.3-0.1-0.5-0.2-0.9c-0.1-0.2-0.2-0.4-0.1-0.4c0-0.1,0.1-0.1,0.2-0.3
			c0.2-0.1,0.3-0.3,0.2-0.5c0,0,0-0.1,0-0.2c0-0.1,0.1-0.3,0.4-0.3c0.3-0.1,0.7-0.1,1.5-0.2c0.7,0,1.1-0.1,1.1-0.1
			c0.3,0,0.5,0.1,0.6,0.2c0.1,0.2,0.3,0.3,0.5,0.4c0.2,0.1,0.3,0.2,0.3,0.3c0,0.1,0.1,0.2,0.3,0.3c0.2,0.1,0.3,0.2,0.3,0.3
			c0,0.2,0.1,0.3,0.3,0.5c0.2,0.2,0.4,0.2,0.6,0.2h0c0.3,0,0.4-0.2,0.4-0.6c0-0.2-0.1-0.3-0.2-0.5c-0.1-0.1-0.2-0.3-0.2-0.5
			c0-0.3-0.1-0.5-0.2-0.5c-0.1,0-0.1-0.1,0-0.4c0.1-0.1,0.1-0.2,0.1-0.3c0,0-0.1-0.1-0.1-0.1c-0.1-0.1-0.2-0.2-0.2-0.3
			c0-0.1-0.1-0.3-0.3-0.5c-0.2-0.2-0.4-0.3-0.6-0.1c-0.3,0.1-1.8,0.3-4.7,0.4h-0.7c-1.5,0-2.2-0.1-2.3-0.3c0-0.1-0.1-0.1-0.2-0.1
			c-0.1,0-0.2,0-0.2,0.1l0,0.1c0,0.1,0,0.1,0,0.1c0,0,0,0.1,0,0.2c0,0.1,0,0.2,0,0.2c0,0.2-0.1,0.3-0.3,0.3
			c-0.2,0.1-0.3,0.2-0.2,0.5c0.1,0.2,0.1,0.4,0.2,0.5s0.2,0.1,0.3,0.1c0.1,0,0.3,0,0.4,0c0.1,0,0.2,0,0.4,0c0.3,0,0.5,0.1,0.6,0.4
			c0.1,0.2,0.1,0.7,0.1,1.4c0,0.9-0.1,1.4-0.2,1.4c-0.1,0-0.1,0.2,0,0.4c0.1,0.2,0.1,0.4,0,0.6c-0.1,0.2-0.2,0.3-0.3,0.3
			c-0.1,0-0.1,0.1,0.1,0.2c0.1,0.1,0.1,0.3,0.1,0.6c0,0.5-0.1,1.5-0.2,2.8l-0.1,0.9h-0.6c-0.4,0-0.6,0.1-0.6,0.3
			c0,0.2-0.1,0.3-0.3,0.3c-0.1,0-0.2,0.1-0.2,0.3c0,0.3,0.1,0.5,0.3,0.6c0.2,0.1,0.3,0.2,0.3,0.4c0,0.1,0.2,0.1,0.7,0.1
			c0.5,0,0.8-0.1,0.9-0.3c0.1-0.1,0.5-0.2,1.2-0.2c0.5,0,0.9,0,1.3,0c0.7,0,1.1,0.1,1.2,0.2c0,0.1,0.2,0.1,0.4,0
			c0.2-0.1,0.7-0.2,1.5-0.2c0.8,0,1.3,0,1.5-0.1c0.2,0,0.3-0.1,0.5-0.3c0.2-0.2,0.3-0.3,0.2-0.5c0-0.2,0-0.3,0.1-0.4
			c0.1-0.1,0.2-0.3,0.2-0.8c0-0.3,0-0.5,0-0.6c0-0.1,0.1-0.1,0.2-0.1c0.2,0,0.3-0.2,0.3-0.5c0-0.2-0.1-0.4-0.2-0.6
			C278.3,790.3,278.2,790.2,278,790.2z"/>
		<path d="M268,792c0.1-0.2,0.1-0.3,0-0.3c-0.1,0-0.2,0.1-0.2,0.2c0,0.1,0,0.2,0.1,0.2C267.9,792.1,267.9,792.1,268,792z"/>
		<path d="M298.6,782c-0.1,0-0.2,0-0.3,0.1c-0.2,0.1-0.3,0.1-0.3,0.1c-0.1,0-0.1-0.1-0.2-0.2c-0.1-0.2-0.3-0.3-0.4-0.3
			c-0.1,0-0.2-0.1-0.2-0.3c0-0.2-0.1-0.3-0.3-0.3c-0.2,0-0.3,0.1-0.3,0.3c0,0.2,0.1,0.3,0.2,0.3s0.2,0.1,0.2,0.3
			c0,0.2-0.1,0.3-0.2,0.3c-0.2,0-0.3-0.1-0.3-0.4c-0.1-0.2-0.2-0.4-0.3-0.4c-0.1,0-0.1,0-0.2,0.1c-0.2,0.2-0.2,0.3,0,0.3
			c0.1,0,0.2,0.1,0.2,0.1c0,0.1-0.1,0.2-0.4,0.2c-0.2,0-0.4,0-0.4-0.1c0-0.1-0.1-0.1-0.4-0.1c-0.4,0-0.8,0.1-1.1,0.2
			c-0.4,0.2-0.6,0.4-0.6,0.7c0,0.3,0.3,0.5,0.8,0.6c0.4,0.1,0.6,0.1,0.6,0.2c0,0.1,0.1,0.1,0.3,0.1c0.3,0,0.5,0.2,0.6,0.6
			c0.1,0.4,0.2,1.2,0.2,2.4c0,1.4,0.1,2.2,0.1,2.4c0.1,0.1,0,0.3,0,0.6l-0.1,0.4l-0.5-0.5c-0.4-0.3-0.5-0.5-0.5-0.6
			c0-0.1-0.1-0.2-0.2-0.3c-0.1-0.1-0.3-0.2-0.4-0.4c-0.2-0.1-0.3-0.2-0.3-0.2c-0.1-0.1-0.3-0.2-0.3-0.2c-0.1,0-0.2-0.1-0.2-0.2
			c0-0.1-0.1-0.2-0.2-0.3c-0.1-0.1-0.3-0.2-0.4-0.2s-0.1-0.1-0.1-0.2c0-0.1-0.1-0.2-0.2-0.2c-0.1,0-0.1,0-0.1-0.1
			c0-0.1-0.1-0.2-0.4-0.5c-0.2-0.3-0.4-0.4-0.4-0.5c0-0.1-0.1-0.2-0.3-0.2c-0.2,0-0.3-0.1-0.5-0.2c-0.2-0.1-0.2-0.3-0.2-0.4
			c0-0.1-0.2-0.3-0.5-0.7c-0.3-0.4-0.5-0.6-0.5-0.7c0-0.1-0.1-0.2-0.3-0.4c-0.2-0.2-0.3-0.4-0.3-0.4c0-0.3-0.6-0.5-1.8-0.6
			c-0.6,0-0.9-0.1-0.9-0.1c-0.3,0-0.4,0.1-0.4,0.2c0,0.1,0,0.2,0,0.4c0,0.2,0,0.4,0.1,0.6c0.1,0.2,0.1,0.3,0.2,0.3
			c0.1,0,0.2,0.2,0.3,0.6c0.1,0.4,0.2,0.6,0.2,0.6c0.1,0,0.1,0.3,0.1,0.8c0,0.5,0,0.8-0.1,0.8c-0.1,0-0.1,0.1-0.1,0.4
			c0,0.2,0.1,0.6,0.2,1c0.1,0.2,0.1,0.6,0.1,1.1c0,0.7-0.1,1.1-0.2,1.1c-0.1,0-0.1,0.2-0.1,0.7c0,0.5,0,1.1-0.1,1.5
			c0,0.4-0.1,0.6-0.1,0.7c-0.1,0.1-0.2,0.2-0.4,0.2c-0.3,0.1-0.4,0.2-0.4,0.4c0,0.2,0.1,0.4,0.4,0.6c0.2,0.2,0.3,0.3,0.5,0.3
			c0.2,0,0.8,0,1.7,0c1,0,1.6,0,1.8-0.1c0.2-0.1,0.3-0.3,0.3-0.8c0-0.3-0.1-0.4-0.3-0.5c-0.2-0.1-0.3-0.1-0.3-0.2
			c0-0.1-0.2-0.1-0.6-0.1c-0.4,0-0.7-0.1-0.9-0.3c-0.2-0.2-0.2-0.3-0.1-0.4c0.1-0.1,0.2-0.2,0.2-0.6c0-0.3,0-0.5-0.1-0.5
			c-0.1-0.1-0.1-0.9-0.1-2.6c0-1.7,0.1-2.5,0.2-2.5c0.1,0,0.3,0.1,0.4,0.2c0.1,0.1,0.3,0.2,0.5,0.3c0.3,0.1,0.4,0.3,0.5,0.4
			c0,0.2,0.3,0.5,0.8,1.1c0.5,0.5,0.9,0.9,1.3,1.1c0.2,0.1,0.3,0.2,0.3,0.3c0,0.1,0.2,0.2,0.5,0.6c0.7,0.7,1.1,1.1,1.1,1.4
			c0,0.1,0.1,0.1,0.3,0.1c0.2,0,0.3,0,0.3,0.1c0,0.1,0.1,0.3,0.4,0.5c0.2,0.2,0.4,0.4,0.4,0.6c0,0.1,0.1,0.3,0.3,0.5
			c0.2,0.2,0.3,0.3,0.4,0.3c0.1,0,0.3,0.2,0.6,0.5c0.3,0.3,0.5,0.5,0.7,0.6c0.1,0.1,0.2,0.1,0.3,0.1c0.4,0,0.6-0.2,0.6-0.6
			c0-0.1,0-0.2,0-0.4c0-0.9-0.1-1.4-0.2-1.6c-0.1-0.1-0.1-0.5-0.1-1.3v-0.4c0-1,0-1.6-0.1-1.6c-0.1-0.1-0.2-0.4-0.2-1
			c0-0.5,0-0.8,0.1-0.8c0.1-0.1,0.2-0.2,0.2-0.5c0-0.3,0-0.4,0.1-0.4c0.1,0,0.1-0.1,0.1-0.4c0-0.3,0-0.4-0.1-0.4
			c-0.1,0-0.1-0.1-0.1-0.4c0-0.4,0.1-0.7,0.2-1c0.2-0.3,0.4-0.5,0.7-0.5c0.2,0,0.4-0.1,0.4-0.1c0.1,0,0.1-0.2,0.1-0.5v-0.2
			C299,782.3,298.9,782,298.6,782z"/>
		<path d="M318.3,784.1c0.1,0,0.2-0.2,0.2-0.5c0-0.3-0.1-0.4-0.2-0.4c-0.1,0-0.1-0.1-0.1-0.3c0-0.2,0.1-0.4,0.2-0.7
			c0.1-0.3,0-0.5-0.2-0.7c-0.2-0.2-0.5-0.3-0.9-0.3c-0.4,0-0.8,0.1-1.1,0.4c-0.3,0.2-0.5,0.3-0.6,0.2c-0.1-0.1-0.1-0.1-0.3-0.1
			c-0.1,0-0.2,0-0.6,0.1c-0.4,0.1-1.3,0.2-2.7,0.2c-1,0-1.5,0-1.6-0.1c-0.1-0.1-0.2,0-0.4,0.2c-0.1,0.1-0.3,0.2-0.4,0.2
			c-0.1,0-0.3,0-0.8-0.1c-0.8-0.2-1.2-0.3-1.3-0.3c0,0-0.1,0-0.3,0.1c-0.1,0-0.3,0.1-0.4,0.3c-0.1,0.2-0.2,0.4-0.2,0.5
			c0,0,0,0.1,0.1,0.2c0.1,0.1,0.1,0.2,0.2,0.5c0,0.1,0,0.2-0.1,0.3c-0.1,0-0.2,0.1-0.4,0.1c-0.1,0-0.3,0-0.4,0.1
			c-0.1,0.1-0.2,0.2-0.2,0.2c0,0.1,0,0.1,0.1,0.2c0.1,0.1,0.1,0.3,0.1,0.7c0,0.3-0.1,0.5-0.1,0.5c0,0.5,0.2,0.8,0.6,0.8
			c0.3,0,0.4-0.1,0.4-0.2c0-0.1,0.1-0.2,0.2-0.2c0.3,0,0.3-0.2,0-0.5c-0.1-0.1-0.2-0.2-0.2-0.3c0,0,0.1-0.1,0.3-0.1
			c0.2-0.1,0.3-0.2,0.2-0.4c-0.1-0.2,0-0.4,0-0.6c0.1-0.1,0.1-0.3,0-0.6c-0.1-0.3-0.1-0.4,0-0.4c0.1,0,0.1,0.1,0.1,0.2
			s0.2,0.3,0.6,0.4c0.4,0.1,0.8,0.2,1.1,0.2c0.4,0,0.7,0.1,0.9,0.3c0.2,0.2,0.4,0.2,0.5,0.2c0.1,0,0.2,0,0.2,0c0,0,0,0.1-0.1,0.1
			c-0.3,0.4-0.4,2.4-0.5,6.1c0,0.8-0.1,1.2-0.3,1.4c-0.2,0.2-0.3,0.3-0.3,0.5c0,0.1-0.3,0.2-0.8,0.2l-0.8,0.1l-0.1,0.6
			c0,0,0,0.1,0,0.1c0,0.1,0,0.1,0,0.1c0,0.2,0.2,0.5,0.5,0.8c0.3,0.3,0.6,0.4,0.7,0.4c0.1,0,0.2,0,0.2-0.1c0-0.1-0.1-0.1-0.2-0.1
			c-0.1,0-0.1,0-0.1-0.1c0-0.1,0.2-0.1,0.5-0.1c0.1,0,0.4,0,0.9,0c0.4,0,0.8,0,1,0c0.5,0,0.9,0,1-0.1c0.1-0.1,0.3-0.2,0.6-0.1
			c0.2,0,0.3,0,0.4-0.1c0.1-0.1,0.2-0.1,0.3-0.1c0.1,0,0.3-0.1,0.5-0.3c0.1-0.1,0.2-0.2,0.2-0.3c0-0.1-0.1-0.2-0.2-0.5
			c-0.2-0.3-0.3-0.5-0.5-0.5c-0.1,0-0.2-0.1-0.2-0.2c0-0.1-0.1-0.2-0.3-0.1c0,0-0.1,0-0.1,0c-0.1,0-0.1,0-0.1,0
			c-0.1,0-0.2,0-0.3-0.1c0-0.1-0.1-0.3-0.1-0.5v-0.5c0-0.5,0-0.8,0-0.9c0-0.1,0.1-0.2,0.2-0.2c0.2,0,0.2-0.1,0.2-0.4
			c0-0.3-0.1-0.5-0.2-0.5c-0.1,0-0.2-0.4-0.2-1.1c0-0.8,0.1-1.3,0.2-1.4c0.1-0.1,0.2-0.6,0.2-1.2c0-0.7,0.1-1.1,0.1-1.2
			c0.1-0.2,0.5-0.2,1.2-0.2c1.1,0,1.7,0.1,1.8,0.4c0,0.1,0.1,0.2,0.4,0.5c0.2,0.2,0.3,0.5,0.4,0.8c0,0.3,0.1,0.5,0.1,0.5
			c0.1,0.1,0.2,0.1,0.4,0.1c0.3,0,0.4,0,0.4-0.1c0-0.1,0.1-0.2,0.3-0.3c0.2-0.1,0.3-0.2,0.3-0.4s-0.1-0.4-0.3-0.6
			C318.2,784.2,318.2,784.1,318.3,784.1z"/>
		<path d="M339.1,792.9c-0.1,0-0.1-0.1-0.2-0.4c-0.1-0.2-0.1-0.3-0.2-0.3c0,0-0.3,0.1-0.8,0.2c0,0-0.1,0-0.2,0c-0.4,0-0.7-0.6-1-1.7
			c-0.2-0.8-0.4-1.3-0.4-1.4c-0.1-0.1-0.2-0.3-0.2-0.5c-0.1-0.4-0.3-1.3-0.8-2.8c-0.5-1.5-0.7-2.4-0.8-2.7c-0.2-1-0.4-1.5-0.5-1.7
			c-0.1-0.2-0.2-0.3-0.4-0.3c-0.3-0.1-0.4,0-0.5,0.1c-0.1,0.1-0.2,0.2-0.4,0.2c-0.2,0-0.4,0.1-0.4,0.2c0,0.1-0.1,0.1-0.2,0.1
			c-0.1,0-0.2,0.2-0.4,0.6c-0.2,0.4-0.3,0.8-0.5,1.2c-0.1,0.4-0.2,0.6-0.3,0.7c-0.1,0.1-0.1,0.2-0.1,0.4c0,0.2-0.1,0.6-0.4,1.2
			c-0.3,0.6-0.5,1.1-0.5,1.5c-0.1,0.4-0.2,0.6-0.2,0.7c-0.1,0.1-0.2,0.3-0.4,0.8c-0.2,0.5-0.3,0.7-0.3,0.8c-0.1,0.2-0.2,0.4-0.2,0.5
			c0,0.2,0,0.2-0.1,0.2c-0.1,0-0.2,0.1-0.3,0.4c-0.1,0.2-0.2,0.4-0.2,0.6c0,0.1-0.2,0.3-0.5,0.6c-0.3,0.3-0.5,0.4-0.7,0.4
			c-0.2,0-0.3,0.1-0.5,0.4c-0.2,0.2-0.4,0.4-0.5,0.4c-0.1,0-0.2,0.1-0.4,0.4c-0.1,0.2-0.1,0.3-0.1,0.4c0,0.1,0.1,0.3,0.4,0.5
			l0.5,0.4l2-0.1c1.1,0,1.8-0.1,2.1-0.1c0.3,0,0.5-0.1,0.5-0.2c0,0,0-0.1-0.1-0.2c-0.1-0.2-0.1-0.3,0.1-0.3c0.1,0,0.2-0.1,0.2-0.2
			c0-0.1-0.1-0.2-0.2-0.2c-0.1,0-0.3-0.1-0.4-0.2c-0.1-0.1-0.4-0.2-0.7-0.3c-0.5-0.1-0.7-0.3-0.7-0.5c0-0.1,0-0.2,0.1-0.3
			c0.1-0.2,0.2-0.3,0.2-0.5c0-0.1,0-0.2,0.1-0.2c0.1,0,0.1-0.2,0.1-0.7v-0.7h0.6c0.4,0,0.7-0.1,0.7-0.2c0.1-0.2,0.6-0.2,1.5-0.2h0.4
			c0.7,0,1,0,1.1,0.1c0.1,0.1,0.2,0.4,0.2,0.8c0,0.5,0.1,0.8,0.3,0.9c0.2,0.2,0.3,0.4,0.3,0.6c0,0,0,0,0,0.1c0,0,0,0.1,0,0.1
			c0,0.3-0.1,0.4-0.1,0.5c-0.1,0.1-0.3,0.1-0.6,0.2c-0.5,0.1-0.7,0.2-0.8,0.3c0,0.1-0.1,0.1-0.3,0.1c-0.2,0-0.3,0.1-0.3,0.3
			c0,0.3,0,0.4,0.1,0.5c0.1,0.1,0.3,0.1,0.6,0.1c0.3,0,0.7,0,1.3-0.1c0.6-0.1,1.3-0.1,2-0.1c0.4,0,0.7,0,0.8,0c0.2,0,0.4,0,0.6,0
			c0.3,0,0.5-0.1,0.5-0.3c0.1-0.2,0.1-0.3,0.2-0.3c0.1,0,0.1-0.2,0.1-0.5C339.2,793.1,339.2,792.9,339.1,792.9z M332.9,788.4
			c0,0-0.1,0-0.2,0c-0.1,0-0.1,0-0.1,0c-0.3,0-0.5,0.1-0.6,0.2c-0.1,0.1-0.3,0.2-0.4,0.2c-0.2,0-0.3-0.1-0.4-0.2
			c-0.1-0.1-0.2-0.2-0.3-0.2c-0.1,0-0.2-0.1-0.2-0.2c0-0.1,0-0.2,0.1-0.2s0.2-0.1,0.3-0.4c0.1-0.3,0.2-0.5,0.2-0.7
			c0-0.2,0.1-0.3,0.2-0.4c0.1,0,0.2-0.3,0.2-0.8c0.1-0.6,0.3-0.9,0.6-0.9c0.2,0,0.3,0.1,0.5,0.2c0.1,0.1,0.2,0.2,0.4,0.5
			c0.1,0.3,0.2,0.4,0.2,0.5c0,0-0.1,0.1-0.3,0.1c-0.2,0-0.3,0.1-0.4,0.2c-0.1,0.1,0,0.2,0.1,0.2c0.1,0,0.2,0.1,0.2,0.2
			c0.1,0.1,0.2,0.3,0.2,0.4c0.1,0.2,0.1,0.2,0.2,0.3c0.1,0.1,0.1,0.3,0.2,0.6l0.1,0.5L332.9,788.4z"/>
		<path d="M356.5,783.3h-0.9c-0.5,0-0.8,0-1-0.1c-0.2-0.1-0.3-0.2-0.3-0.5c0-0.1,0-0.2-0.1-0.3c-0.1,0-0.1,0-0.2,0.1
			c-0.1,0.1-0.4,0.2-0.7,0.2c-0.1,0-0.2,0-0.2-0.1c0-0.1-0.2-0.1-0.7-0.1c-0.4,0-0.7,0.1-0.8,0.2c-0.1,0.1-0.2,0.2-0.4,0.2
			c-0.2,0-0.3,0-0.4,0c-0.1,0-0.1,0-0.2,0c-0.1,0-0.1,0-0.2,0c-0.3,0-0.5,0.1-0.7,0.4c-0.3,0.3-0.5,0.4-0.7,0.5
			c-0.1,0-0.3,0.2-0.5,0.5c-0.2,0.3-0.4,0.4-0.5,0.4c-0.4,0.1-0.7,0.4-0.7,0.9c0,0.2-0.1,0.4-0.2,0.6c-0.1,0.2-0.2,0.4-0.2,0.6
			c0,0.3,0,0.4-0.1,0.5c-0.1,0.1-0.2,0.2-0.2,0.4c0,0.2-0.1,0.3-0.2,0.4c-0.1,0.1-0.2,0.5-0.2,1.4c0,1,0.1,1.5,0.2,1.6
			c0.1,0,0.1,0.1,0.1,0.2c0,0.1,0,0.2-0.1,0.2c-0.1,0,0,0.2,0.2,0.4c0.3,0.2,0.4,0.4,0.5,0.4c0.1,0,0.1,0.1,0.2,0.3
			c0.1,0.2,0.2,0.4,0.6,0.7c0.3,0.3,0.6,0.5,0.8,0.6c0.2,0.1,0.2,0.1,0.2,0.2c0,0.1,0.3,0.2,0.9,0.3c0.6,0.1,1.3,0.1,2,0.1
			c1.1,0,1.7-0.1,1.9-0.3c0.1-0.1,0.4-0.3,0.8-0.3c0.3-0.1,0.6-0.2,0.8-0.5c0.3-0.4,0.5-0.7,0.7-0.8c0.3-0.3,0.4-0.5,0.4-0.6
			c0-0.1-0.1-0.2-0.3-0.3c-0.4-0.2-0.6-0.3-0.8-0.3c-0.1,0-0.2,0.1-0.3,0.3c-0.1,0.2-0.2,0.4-0.4,0.4c-0.2,0-0.4,0.1-0.6,0.4
			c-0.2,0.2-0.4,0.3-0.5,0.2c-0.1-0.1-0.2-0.1-0.4,0.1c-0.1,0.1-0.4,0.2-0.7,0.2c-0.1,0-0.4,0-0.8-0.1c-0.6,0-1.1-0.1-1.2-0.2
			c-0.2-0.1-0.3-0.3-0.3-0.5c0-0.2-0.2-0.5-0.6-0.9c-0.3-0.3-0.5-0.5-0.6-0.7c-0.1-0.2-0.2-0.5-0.3-0.9c-0.1-0.7-0.2-1-0.3-1
			c-0.1,0-0.1-0.1-0.1-0.2c0-0.1,0-0.2,0.1-0.2c0.2,0,0.3-0.7,0.3-1.9c0-0.2,0.1-0.2,0.3-0.2c0.2,0,0.3-0.1,0.2-0.3
			c0-0.1,0-0.2,0-0.3c0.1-0.1,0.2-0.1,0.4-0.2c0.3-0.1,0.5-0.3,0.5-0.4c0-0.1,0.1-0.3,0.3-0.4c0.2-0.1,0.4-0.2,0.7-0.2
			c0.2,0,0.3-0.1,0.3-0.2c0-0.1,0.2-0.2,0.7-0.2c0.1,0,0.2,0,0.4,0c0.5,0,0.9,0.2,1.1,0.5c0.2,0.2,0.4,0.3,0.6,0.4
			c0.3,0.1,0.4,0.2,0.4,0.4c-0.1,0.2,0,0.3,0.1,0.4c0.1,0.1,0.3,0.4,0.4,0.9c0.1,0.4,0.1,0.6,0.2,0.7c0.1,0.1,0.2,0.2,0.4,0.3
			c0.3,0.1,0.4,0.2,0.4,0.4c0,0.1,0.1,0.2,0.2,0.1c0.1-0.1,0.2-0.6,0.2-1.5c0-1,0.1-1.5,0.2-1.5c0.1-0.1,0.1-0.3,0-0.8L356.5,783.3z
			"/>
		<path d="M377.6,790.1c-0.1,0-0.2-0.1-0.2-0.3c-0.1-0.2-0.2-0.3-0.4-0.3c-0.2,0-0.4-0.1-0.4-0.4c0-0.1-0.1-0.2-0.2-0.3
			c-0.2-0.1-0.3-0.1-0.3,0.1c0,0.1-0.1,0.2-0.4,0.3c-0.2,0.1-0.3,0.2-0.1,0.3c0.1,0.1,0.2,0.3,0.2,0.6c0,0.3,0,0.4-0.1,0.4
			c-0.1,0-0.3,0.2-0.6,0.5c-0.6,0.6-1.1,0.9-1.5,0.9c-0.2,0-0.4,0.1-0.7,0.2c-0.3,0.1-0.7,0.2-1.2,0.2c-0.6,0-0.9-0.1-0.9-0.4
			c0-0.1,0-0.1,0-0.2c0.1-0.2,0.1-0.3,0-0.4c-0.1,0-0.1-0.2-0.1-0.4c0-0.4,0-0.7,0.1-1c0-0.1,0.1-0.2,0.1-0.4c0-0.1,0-0.4-0.1-0.6
			c0-0.1,0-0.3,0-0.5c0-0.2,0-0.3,0.1-0.4c0.2-0.1,0.2-0.3,0.2-0.8c0-0.2,0-0.3-0.1-0.4c-0.1-0.1-0.1-0.2,0-0.4
			c0.1-0.1,0.1-0.5,0.1-1.2V785l-0.1-1.3h0.9c0.6,0,1-0.1,1.1-0.2c0.1-0.2,0.1-0.4,0.1-0.6c0-0.3-0.1-0.5-0.2-0.6
			c-0.1-0.1-1.1-0.1-2.9-0.1H369c-1.2,0-1.8,0.1-1.8,0.2c-0.1,0.1-0.1,0.3-0.1,0.4c0,0.3,0.1,0.6,0.2,0.7c0.1,0.1,0.4,0.2,0.7,0.2
			c0.5,0,0.8,0.1,0.8,0.4c0,0.1,0,0.1-0.1,0.2c-0.1,0.1-0.1,0.4-0.1,0.7c0,0.3,0,0.6,0.1,0.8c0.1,0.3,0.1,0.4,0,0.5
			c-0.1,0.1-0.1,0.3-0.1,0.7c0,0.2,0,0.3,0,0.4c0,0.8,0.1,1.3,0.1,1.6c0,1.3-0.1,1.9-0.3,1.9c-0.1,0-0.2,0.2-0.2,0.7
			c0,0.2,0,0.3,0.1,0.4l0.1,0.1c0,0.2-0.3,0.2-0.9,0.2c-0.3,0-0.5,0.1-0.6,0.2c-0.1,0.1-0.2,0.4-0.2,0.8v0.2c0,0.5,0.2,0.8,0.6,0.8
			c0.1,0,0.3,0,0.4-0.1c0.3-0.1,0.4-0.2,0.4-0.3s0.3-0.1,1-0.1c0.7,0,1,0,1,0.1c0,0.1,0.7,0.1,2.1,0.1c1.4,0,2.1-0.1,2.1-0.1
			c0-0.1,0.3-0.1,0.8-0.1c0.6,0,0.9,0,0.9,0.1c0,0.1,0.1,0.2,0.4,0.2c0.2,0,0.4-0.1,0.4-0.3c0-0.1,0.1-0.3,0.3-0.4
			c0.2-0.1,0.3-0.2,0.3-0.4c0-0.2,0-0.4,0.1-0.5c0.1-0.1,0.1-0.3,0-0.4c0,0-0.1-0.1-0.1-0.2c0-0.2,0-0.5,0.1-0.8
			c0.1-0.3,0.2-0.4,0.2-0.4c0.1,0,0.1-0.1,0.1-0.3C377.8,790.2,377.7,790.1,377.6,790.1z"/>
		<path d="M378.5,790.7c0,0-0.1,0-0.1,0c-0.1,0-0.1,0-0.1,0.1c-0.2,0-0.3,0.1-0.3,0.3c0,0.1,0.1,0.2,0.3,0.2c0.2,0,0.3-0.1,0.3-0.3
			C378.6,790.7,378.6,790.6,378.5,790.7L378.5,790.7z"/>
		<path d="M361,799.7c-0.1,0-0.1,0.1-0.1,0.3c0,0.2,0,0.3,0.1,0.3c0.1,0,0.1-0.1,0.1-0.3C361.2,799.8,361.1,799.7,361,799.7z"/>
		<path d="M396.4,790.2c-0.1,0-0.3,0.2-0.5,0.5c-0.3,0.4-0.4,0.6-0.4,0.7c0,0.1-0.1,0.2-0.4,0.2c-0.2,0-0.3,0.1-0.3,0.1
			c0,0,0,0.1,0,0.3v0.2c0,0.2-0.1,0.3-0.4,0.3c0,0-0.1,0-0.2,0c-0.1,0-0.1,0-0.2,0c-0.2,0-0.4,0.1-0.7,0.4c-0.2,0.2-0.4,0.3-0.6,0.3
			c-0.1,0-0.2-0.1-0.2-0.2c-0.1-0.1-0.2-0.1-0.4,0c-0.2,0.1-0.6,0.2-1.2,0.2c-0.5,0-0.7,0-0.7-0.1c0-0.1-0.1-0.1-0.2-0.1
			c-0.1,0-0.1-0.1-0.2-0.2c-0.1-0.2-0.1-0.3-0.1-0.5c0,0,0-0.6,0.1-1.8c0-1.2,0.1-1.8,0.1-1.8c0-0.1,0.5-0.1,1.4-0.1
			c0.8,0,1.3,0.1,1.5,0.2c0.3,0.1,0.4,0.4,0.4,0.8c0,0.2,0,0.3,0.1,0.3c0,0,0.1,0,0.2,0c0.2-0.1,0.4-0.1,0.6-0.1h0.1
			c0.2,0,0.3-0.2,0.3-0.6c0-0.1,0-0.2,0-0.3c0-0.2,0-0.3,0-0.4v-0.3c0-0.4,0-0.6,0.1-0.6c0.1-0.1,0.1-0.3,0-0.4
			c-0.1-0.1-0.1-0.3,0.1-0.4c0.2-0.1,0.2-0.2,0.2-0.4c0-0.3-0.4-0.4-1.1-0.4c-0.4,0-0.6,0.2-0.6,0.5c0,0.1,0,0.2,0.1,0.3
			c0.1,0.2,0,0.3-0.1,0.5c-0.1,0.1-0.4,0.2-0.9,0.3c-0.6,0.1-1.1,0.2-1.6,0.2h-0.6V787c0-0.4,0.1-0.6,0.2-0.6c0.1,0,0.2-0.1,0.2-0.4
			c0-0.3-0.1-0.6-0.2-0.9c-0.1-0.2-0.2-0.4-0.2-0.4c0-0.1,0.1-0.1,0.2-0.3c0.2-0.2,0.3-0.3,0.2-0.5c0,0,0-0.1,0-0.2
			c0-0.2,0.1-0.3,0.4-0.4c0.3-0.1,0.8-0.1,1.5-0.2c0.6,0,1-0.1,1.1-0.1c0.4,0,0.6,0.1,0.7,0.2c0.2,0.2,0.3,0.3,0.5,0.4
			c0.2,0.1,0.3,0.2,0.3,0.3c0,0.1,0.1,0.2,0.4,0.4c0.2,0.1,0.4,0.3,0.4,0.3c0,0.2,0.1,0.3,0.3,0.5c0.2,0.2,0.4,0.3,0.6,0.3h0.1
			c0.3,0,0.4-0.2,0.4-0.7c0-0.2-0.1-0.4-0.2-0.5c-0.1-0.2-0.2-0.4-0.2-0.6c0-0.3-0.1-0.5-0.2-0.5c-0.1-0.1-0.1-0.2,0-0.4
			c0.1-0.1,0.1-0.2,0.1-0.3c0-0.1-0.1-0.1-0.2-0.2c-0.1-0.1-0.2-0.2-0.2-0.3c0-0.1-0.1-0.3-0.3-0.5c-0.1-0.1-0.2-0.2-0.3-0.2
			s-0.2,0-0.3,0.1c-0.2,0.1-1.9,0.3-5,0.4h-0.7c-1.5,0-2.3-0.1-2.4-0.3c0-0.1-0.1-0.1-0.3-0.1c-0.1,0-0.2,0-0.2,0.1
			c0,0.1-0.1,0.2-0.1,0.3s0,0.3,0,0.3c0,0.2-0.1,0.3-0.3,0.4c-0.2,0-0.3,0.2-0.2,0.5c0.1,0.2,0.1,0.4,0.2,0.5
			c0.1,0.1,0.2,0.1,0.3,0.1s0.3,0,0.4,0c0.1,0,0.1,0,0.2,0c0.1,0,0.1,0,0.2,0c0.4,0,0.6,0.1,0.7,0.4c0.1,0.2,0.1,0.8,0.1,1.5
			c0,0.9-0.1,1.4-0.2,1.5c-0.1,0-0.1,0.2,0,0.4c0.1,0.3,0.1,0.5,0,0.7c-0.1,0.2-0.2,0.3-0.3,0.3c-0.1,0-0.1,0.1,0.1,0.2
			c0.1,0.1,0.1,0.3,0.1,0.6c0,0.3-0.1,1.3-0.2,3l-0.1,1h-0.6c-0.4,0-0.6,0.1-0.7,0.3c-0.1,0.2-0.2,0.3-0.3,0.3
			c-0.2,0-0.2,0.1-0.2,0.4c0,0.3,0.1,0.5,0.3,0.6c0.2,0.1,0.3,0.3,0.3,0.4c0,0.1,0.1,0.2,0.3,0.2c0.2,0,0.5,0,0.8-0.1
			c0.3-0.1,0.5-0.2,0.6-0.2c0.2-0.1,0.6-0.2,1.2-0.2c0.1,0,0.6,0,1.5,0.1c0.8,0,1.2,0.1,1.2,0.2c0.1,0.1,0.2,0.1,0.4,0
			c0.3-0.1,0.8-0.2,1.6-0.2c0.9,0,1.4,0,1.6-0.1c0.2,0,0.3-0.1,0.5-0.2c0.2-0.2,0.3-0.4,0.2-0.6c-0.1-0.2,0-0.4,0.2-0.4
			c0.1-0.1,0.2-0.4,0.2-0.8c0-0.3,0-0.5,0.1-0.6c0-0.1,0.1-0.1,0.2-0.1c0.2,0,0.3-0.2,0.3-0.5c0-0.3-0.1-0.5-0.2-0.7
			C396.7,790.3,396.5,790.2,396.4,790.2z"/>
		<path d="M385.8,792c0.1-0.2,0.1-0.3-0.1-0.3c-0.1,0-0.2,0.1-0.2,0.2c0,0.1,0,0.2,0.1,0.2C385.7,792.2,385.8,792.1,385.8,792z"/>
		<path d="M406.6,788.7c0-0.1,0-0.2-0.1-0.2c-0.1,0-0.1,0-0.1,0.1l0.1,0.2C406.5,789,406.6,788.9,406.6,788.7z"/>
		<path d="M412.4,789.5c0-0.6-0.1-0.9-0.2-1.1c-0.1-0.2-0.3-0.4-0.6-0.5c-0.3-0.1-0.5-0.3-0.5-0.4c-0.1-0.1-0.3-0.3-0.9-0.6
			s-1-0.5-1.3-0.6c-0.2-0.1-0.5-0.2-0.9-0.5c-0.4-0.3-0.6-0.4-0.6-0.5c0-0.1-0.1-0.2-0.2-0.3c-0.2-0.1-0.2-0.2-0.2-0.3
			c0,0,0-0.1,0-0.1c0.1-0.1,0.1-0.2,0.1-0.3c0-0.1,0-0.3-0.1-0.6c0-0.1,0-0.2,0-0.2c0,0,0.2-0.1,0.3-0.1c0.3,0,0.4-0.1,0.4-0.2
			c0-0.1,0.1-0.2,0.4-0.4c0.3-0.2,0.4-0.3,0.4-0.3c0-0.1,0.1-0.1,0.4-0.2c0.1,0,0.1,0,0.2,0c0.4,0,0.8,0.2,1.2,0.5
			c0.5,0.3,0.7,0.6,0.7,0.9c0,0.2,0.1,0.4,0.3,0.5c0.2,0.1,0.3,0.3,0.3,0.4c0,0.1,0.1,0.3,0.2,0.5s0.3,0.3,0.4,0.3c0,0,0,0,0.1,0
			c0.1-0.1,0.1-0.7,0.2-2v-0.8c0-0.6-0.1-0.9-0.2-0.9c-0.1,0-0.1,0-0.1,0c-0.3,0.1-0.6,0.2-0.8,0.2c-0.3,0-0.6-0.1-1-0.3
			c-0.4-0.2-0.6-0.3-0.7-0.3c0,0-0.1,0-0.2,0.1c-0.3,0.1-0.6,0.1-0.8,0.1c-0.3,0-0.4,0-0.5,0.1c0,0.1-0.1,0.2-0.3,0.2
			c-0.2,0-0.4-0.1-0.5-0.2c-0.1-0.1-0.3-0.2-0.5-0.2h0c-0.1,0-0.1,0-0.1,0c-0.1,0-0.1,0-0.1,0c0,0,0.1,0,0.1,0
			c0.1,0.1,0.2,0.1,0.2,0.2c0,0.2-0.2,0.3-0.5,0.4c-0.3,0.1-0.4,0.2-0.4,0.4c0.1,0.2,0,0.3-0.2,0.4c-0.3,0.1-0.6,0.5-1.1,1.1
			c-0.1,0.2-0.2,0.4-0.2,0.6c0,0,0,0.3,0.1,0.8c0.1,0.7,0.3,1.1,0.4,1.3c0.1,0.2,0.4,0.4,0.7,0.7c0.4,0.3,0.6,0.4,0.8,0.4
			c0.1,0,0.3,0.1,0.6,0.4c0.4,0.3,0.9,0.6,1.7,0.8c0.5,0.1,0.8,0.3,1.1,0.6c0.2,0.2,0.3,0.4,0.5,0.7c0.1,0.3,0.2,0.5,0.2,0.7
			c0,0.1,0,0.1-0.1,0.2c-0.1,0-0.1,0.2-0.1,0.4c0.1,0.2,0,0.4-0.2,0.6c-0.1,0.1-0.2,0.3-0.2,0.4c0,0.2-0.5,0.4-1.4,0.5
			c-0.1,0-0.3,0-0.6,0c-0.9,0-1.7-0.4-2.2-1.2c-0.3-0.4-0.5-0.8-0.5-1c0,0,0-0.1,0-0.2c0-0.1,0-0.2,0-0.2c0,0-0.1-0.1-0.1-0.1
			c-0.1,0-0.1,0-0.1-0.1c0.1-0.3-0.1-0.5-0.4-0.6c-0.1,0-0.2-0.1-0.3-0.1c-0.3,0-0.4,0.2-0.5,0.5c-0.1,1.2-0.1,1.9-0.2,1.9
			c-0.1,0.1-0.1,0.4-0.2,0.8c0,0.1,0,0.3,0,0.4c0,0.2,0.1,0.4,0.3,0.6c0.1,0.1,0.2,0.2,0.3,0.2c0,0,0.1,0,0.2-0.2
			c0.1-0.2,0.2-0.3,0.2-0.4c0-0.3,0.2-0.3,0.5-0.1c0.9,0.5,1.8,0.7,2.9,0.7c0.5,0,1.1-0.1,1.6-0.2c0.6-0.1,1.1-0.3,1.4-0.6
			c0.3-0.3,0.5-0.5,0.5-0.5c0-0.1,0.1-0.2,0.2-0.3c0.2-0.1,0.3-0.4,0.3-0.9c0.1-0.5,0.1-0.7,0.2-0.7c0.1,0,0.1,0,0-0.1
			C412.5,790.6,412.5,790.2,412.4,789.5z M408,788C408,788,408,787.9,408,788c-0.1-0.1-0.1-0.1,0-0.1S408.1,787.9,408,788
			C408.1,787.9,408.1,788,408,788z"/>
		<polygon points="51.7,807.5 44,812.7 41.2,798.7 38.4,812.7 30.7,807.5 35.9,815.3 21.8,818 35.9,820.8 30.7,828.5 38.4,823.3 
			41.2,837.4 43.9,823.4 51.7,828.5 46.5,820.8 60.5,818 46.5,815.3 		"/>
		<polygon points="468.1,815.3 473.3,807.5 465.5,812.7 462.8,798.7 460,812.7 452.3,807.5 457.5,815.3 443.4,818 457.5,820.8 
			452.3,828.5 460,823.3 462.8,837.4 465.5,823.4 473.3,828.5 468.1,820.8 482.1,818 		"/>
		<polygon points="30.7,56.3 38.4,51.1 41.2,65.1 44,51.1 51.7,56.3 46.5,48.5 60.5,45.8 46.5,43 51.7,35.3 43.9,40.4 41.2,26.4 
			38.4,40.5 30.7,35.3 35.9,43 21.8,45.8 35.9,48.5 		"/>
		<polygon points="473.3,35.3 465.5,40.4 462.8,26.4 460,40.5 452.3,35.3 457.5,43 443.4,45.8 457.5,48.5 452.3,56.3 460,51.1 
			462.8,65.1 465.5,51.1 473.3,56.3 468.1,48.5 482.1,45.8 468.1,43 		"/>
		<path d="M305.1,353.2c0.3,0,0.7-0.1,1-0.3c0.6-0.4,0.9-1.2,0.7-1.8l-19.4-60l-2.9,2l17.5,54c-21.4-15.8-69.4-51.3-78.8-58.3
			l-0.5-0.3l-1.1,3.3l0.2,0.2c9.6,7.1,54.1,40,65.2,48.2l17.3,12.8C304.5,353.1,304.8,353.2,305.1,353.2z"/>
		<path d="M163.8,247.6c-0.2,0.7,0,1.6,0.7,2l1.3,1c17.1,12.6,33.2,24.5,49.8,36.8l0.4,0.3l1.2-3.2l-0.3-0.2
			c-11-8.1-22.4-16.5-33.4-24.7l-13.1-9.7h98.1l-0.2-0.6c0-0.1-0.1-0.4-0.3-0.7c-0.2-0.6-0.5-1.4-0.7-1.8l-0.1-0.3h-102
			C164.6,246.5,164.1,246.9,163.8,247.6z"/>
		<path d="M250.5,315.2l-0.4-0.3c-0.1-0.1-1.6-1.4-1.9-1.6l-0.3-0.3l-46.1,34.1l31-95.9l-3.5,0.1L197,351.1
			c-0.2,0.7,0.1,1.4,0.7,1.8c0.3,0.2,0.6,0.3,1,0.3c0.3,0,0.6-0.1,0.9-0.3l50.6-37.4L250.5,315.2z"/>
		<path d="M252.6,185.4c-0.2-0.1-0.3-0.1-0.6-0.2c0,0-0.1,0-0.1,0c-0.1,0-0.1,0-0.2,0c-0.2,0-0.4,0.1-0.6,0.1
			c-0.5,0.2-0.9,0.7-0.9,1.2l-18.6,57.6l-0.1,0.5l0.5,0c0.8,0.1,1.7,0.1,2.7,0l0.3,0l16.9-52.3l30.2,93.4l2.8-2.1l-31.4-96.9
			C253.5,186.2,253.2,185.7,252.6,185.4z"/>
		<path d="M275.2,247.1c0.3,0.8,0.6,1.7,0.9,2.5l0.1,0.3h57.1l-79.7,58.9l-0.5,0.3l2.8,2.1l83.3-61.6c0.6-0.5,0.9-1.3,0.7-2
			c-0.2-0.7-0.8-1.1-1.5-1.1H275L275.2,247.1z"/>
		<path d="M159.2,237.8l0.6,0.1c0.7,0.1,1.3,0.3,2.1,0.8l0.4,0.2l0.2-0.4c1.7-4,3.7-7.9,5.9-11.6c15.8-26.2,43.7-43.7,74.6-46.7
			l0.4,0l-0.1-0.4c-0.1-0.8-0.2-1.6-0.2-2.3l0-0.5l-0.5,0c-27.1,2.6-52.2,15.9-69,36.5c-5.8,7.2-10.6,15.2-14.3,23.8L159.2,237.8z"
			/>
		<path d="M187.5,354.4l0.3,0.3l0.3-0.4c0.5-0.6,1.1-1.1,1.8-1.5l0.6-0.3l-0.5-0.4c-4.7-3.8-9-8.1-12.9-12.7
			c-19.7-23.5-27-55.6-19.7-85.9l0.1-0.5H157c-0.8,0-1.6-0.1-2.3-0.3l-0.4-0.1l-0.1,0.4c-6.3,26.2-2.1,54.1,11.7,76.5
			C171.6,338.9,178.9,347.3,187.5,354.4z"/>
		<path d="M200.8,360.4c-0.2,0.9-0.5,1.6-0.9,2.2l-0.2,0.4l0.3,0.2c7.9,4.7,16.2,8.2,24.8,10.7c0.3-1.1,0.6-2.2,0.9-3.3
			c-8.5-2.4-16.7-5.8-24.4-10.4l-0.5-0.3L200.8,360.4z"/>
		<path d="M252.3,377.7c6.4,0,12.8-0.6,19.2-1.9c10.7-2.1,20.9-6,30.4-11.5l0.4-0.2l-0.3-0.4c-0.5-0.7-0.9-1.4-1.1-2l-0.2-0.5
			l-0.4,0.2c-5.1,2.9-10.4,5.4-15.9,7.3c-11.3,4-23.3,5.7-35.2,5.3c0,1.2,0,2.4,0.1,3.5C250.3,377.7,251.3,377.7,252.3,377.7z"/>
		<path d="M315.8,354.1l0.3,0.3l0.3-0.3c22.8-19.3,36-47.4,36.3-77.1c-0.1-8-1.1-16-3-23.8l-0.1-0.4l-0.4,0.1
			c-0.9,0.2-1.7,0.3-2.4,0.6l-0.4,0.1l0.1,0.4c1.9,7.6,2.9,15.3,2.9,23c-0.2,29-13.1,56.2-35.3,74.9l-0.4,0.3l0.4,0.3
			C314.6,353,315.2,353.6,315.8,354.1z"/>
		<path d="M261.4,179.8l0,0.4l0.4,0c3.3,0.3,6.5,0.8,9.6,1.4c30.7,6.3,56.7,27.5,69.5,56.8l0.2,0.3l0.3-0.1c0.4-0.1,0.8-0.1,1.2,0
			l0.3,0l0.2-0.2c0.1-0.1,0.2-0.2,0.3-0.4c0.1-0.1,0.2-0.2,0.4-0.4l0.3-0.2l-0.1-0.3c-11-25.3-31.9-45.3-57.4-54.7
			c-8-3-16.5-4.9-25.2-5.7l-0.6-0.1l0.1,0.6C261.3,178.1,261.4,179,261.4,179.8z"/>
		<path d="M250.2,179.5c0.8,0.8,1.1,4.1,1.6,4.1c0.5,0,1-3.3,1.8-4c0.8-0.7,3-1,3-1.5c0-0.4-2.3-0.9-2.9-1.6
			c-0.7-0.7-1.1-4.1-1.6-4.1c-0.5,0-0.9,3.2-1.8,4c-0.9,0.8-3,0.9-3,1.5C247.2,178.4,249.4,178.6,250.2,179.5z"/>
		<path d="M155.5,249.8c0.5,0.2,1.4-1.8,2.4-2.3c1-0.5,4.2,0.2,4.4-0.2c0.2-0.5-2.8-2-3.3-2.9c-0.5-0.9,0-3.2-0.5-3.3
			c-0.4-0.1-1.5,1.9-2.4,2.3c-0.9,0.4-4.2-0.2-4.4,0.2s2.8,1.8,3.3,2.9C155.5,247.5,155,249.6,155.5,249.8z"/>
		<path d="M190.1,363c0.4,0.3,2.6-2.1,3.8-2.2c1.2-0.2,3,1,3.3,0.6c0.3-0.4-1.3-1.9-1.4-3c-0.2-1.1,1.5-3.9,1.1-4.2
			c-0.4-0.3-2.7,2.1-3.8,2.2c-1,0.1-3-0.9-3.3-0.6c-0.3,0.4,1.3,2,1.4,3C191.4,359.7,189.7,362.7,190.1,363z"/>
		<path d="M313.7,356.1c-0.3-0.4-2.2,0.6-3.3,0.4c-1.1-0.2-3.3-2.7-3.7-2.4c-0.4,0.3,1.1,3.3,0.9,4.3c-0.2,1-1.8,2.6-1.6,3
			c0.3,0.4,2.3-0.6,3.3-0.4c1,0.2,3.3,2.7,3.7,2.4c0.4-0.3-1.2-3.1-0.9-4.3C312.3,357.9,314,356.5,313.7,356.1z"/>
		<path d="M345.1,240.8c-0.5,0.2-0.1,2.3-0.6,3.3c-0.5,1-3.5,2.3-3.4,2.8c0.1,0.5,3.4-0.1,4.4,0.4c0.9,0.5,1.9,2.5,2.3,2.4
			c0.4-0.1,0.1-2.4,0.6-3.3c0.5-0.9,3.5-2.3,3.4-2.8c-0.1-0.5-3.3,0.1-4.4-0.4C346.4,242.6,345.6,240.6,345.1,240.8z"/>
		<path d="M218.9,240.3c2.6,0,4.7-2.1,4.9-4.9l0,0l0,0c-0.1-2.8-2.3-4.9-4.9-4.9c-2.6,0-4.9,2.2-4.9,4.9c0,2.6,2.1,4.8,4.7,4.9
			C218.7,240.3,218.8,240.3,218.9,240.3z M217,235.4c0-1.2,0.9-1.7,1.7-1.7c0,0,0,0,0.1,0c0.9,0,1.8,0.5,1.9,1.7
			c-0.1,1.2-1,1.8-1.9,1.8c0,0,0,0-0.1,0C217.9,237.1,217,236.6,217,235.4z"/>
		<path d="M282.7,240.3c2.6,0,4.7-2.1,4.9-4.9l0,0l0,0c-0.1-2.8-2.3-4.9-4.9-4.9c-2.6,0-4.9,2.2-4.9,4.9c0,2.6,2.1,4.8,4.7,4.9
			C282.6,240.3,282.7,240.3,282.7,240.3z M280.9,235.4c0-1.2,0.9-1.7,1.7-1.7c0,0,0,0,0.1,0c0.9,0,1.8,0.5,1.9,1.7
			c-0.1,1.2-1,1.8-1.9,1.8c0,0,0,0-0.1,0C281.8,237.1,280.9,236.6,280.9,235.4z"/>
		<path d="M251.7,334.7c0.1,0,0.1,0,0.2,0c2.6,0,4.7-2.1,4.9-4.9c-0.2-2.8-2.3-4.9-4.9-4.9c-2.7,0-4.9,2.2-4.9,4.9
			C247,332.4,249.1,334.6,251.7,334.7z M251.7,328.1C251.8,328.1,251.8,328.1,251.7,328.1c0.9,0,1.9,0.5,1.9,1.7
			c-0.1,1.2-1.1,1.7-1.9,1.7c-0.8,0-1.7-0.6-1.7-1.7C250,328.7,250.9,328.1,251.7,328.1z"/>
		<path d="M201.2,292.3c0,2.6,2.1,4.8,4.7,4.9c0.1,0,0.1,0,0.2,0c2.6,0,4.7-2.1,4.9-4.9c-0.1-2.8-2.3-4.9-4.9-4.9
			C203.4,287.4,201.2,289.7,201.2,292.3z M207.9,292.3c-0.1,1.2-1.1,1.8-1.9,1.7c-0.8,0-1.7-0.6-1.7-1.7c0-1.2,0.9-1.7,1.7-1.7
			c0,0,0,0,0.1,0C206.9,290.6,207.8,291.1,207.9,292.3z"/>
		<path d="M293.2,292.3c0,2.6,2.1,4.8,4.7,4.9c0.1,0,0.1,0,0.2,0c2.6,0,4.7-2.1,4.9-4.9c-0.1-2.8-2.3-4.9-4.9-4.9
			C295.4,287.4,293.2,289.7,293.2,292.3z M299.9,292.3c-0.1,1.2-1.1,1.8-1.9,1.7c-0.8,0-1.7-0.6-1.7-1.7c0-1.2,0.9-1.7,1.7-1.7
			c0,0,0,0,0.1,0C298.9,290.6,299.8,291.1,299.9,292.3z"/>
		<polygon points="249.4,285.3 252.1,302.7 254.8,285.3 265.3,291.9 258.7,281.4 276.1,278.7 258.7,276 265.3,265.5 254.8,272.1 
			252.1,254.7 249.4,272.1 238.9,265.5 245.5,276 228,278.7 245.5,281.4 238.9,291.9 		"/>
		<path d="M379.4,352c-1.6,0-1.1,12.5-3.9,15.3c-2.8,2.8-11.7,1.6-11.7,3.4c0,1.8,9,0.7,11.7,3.4c2.7,2.7,2.2,15.3,3.9,15.3
			c1.6,0,1.4-12.8,3.9-15.3s11.7-1.9,11.7-3.4c0-1.5-9.4-1.1-11.7-3.4C380.9,365,381,352,379.4,352z"/>
		<path d="M216.9,601.4L216.9,601.4C216.9,601.4,216.9,601.4,216.9,601.4C216.9,601.4,216.9,601.4,216.9,601.4z"/>
		<path d="M326.1,679.4c-4.4-1.9-7.8-5.6-10.9-9.3c4.2-1.5,7.7-5.1,8.4-10.2c0.1-0.7-0.3-1.4-1-1.7c-9.2-4-18.4-15.1-22.7-24
			c-0.8-41.5,12.5-81.6,13.5-123.1c0.5-18.4-0.1-37.3-3.5-55.5c-1.7-9-5.6-17.5-6.7-26.6c-0.8-6.5,0.1-15.6-4.2-21.1
			c-0.5-0.6-1.6-0.9-2.2-0.3c-10.1,9.7-11.6,26.2-12.1,39.4c-0.6,15.7,2.6,31.7,0.3,47.3c-2.8-8.4-5.4-16.8-8.5-25
			c-5.2-13.6-11.9-26.6-17.4-40c-2-4.9-3.9-9.9-5.7-14.9c8.1-6.1,15.7-13.3,20.1-22.5c1.3-2.7,4.2-8.8,2.1-11.8
			c-2.1-3-6.7,0.6-9.1,1.7c-6.3,2.7-13,5.2-19.1,8.6c-0.2-1.5-0.4-2.9-0.5-4.4c-0.8-9.9-0.1-22.1-7.6-29.7c-0.6-0.6-1.8-0.4-2.2,0.3
			c-8.6,12.6-10.7,28.5-9.9,44.1c-5,3.7-10.7,8.5-12.6,14.6c-0.9,3.1-1,6.3-0.8,9.5c-0.1,0-0.1,0.1-0.2,0.2c-3.7,4-5.4,8.6-6,13.5
			c-0.2,0.1-0.5,0.2-0.7,0.5c-3.3,4.1-3.4,9.9-4.2,14.9c-1.2,7-1.4,13.9-0.4,21c1.7,12.7,4.6,25.2,6.7,37.8
			c3.2,19.1,3.9,30.9,4.6,50.1c0.2,5.9,0.2,19.8,0.4,25.7c0.1,2.6,0.1,5.1,0.2,7.7c0.2,9-1.3,18.1-3.7,26.9
			c-6.6,8.4-15.4,16.2-24.8,21.3c-0.6,0.3-1.1,0.9-1,1.7c0.7,4.1,2.8,7.5,5.7,9.7c-3.8,3.7-7.8,7.5-12.6,9.9c-0.6,0.3-1.1,0.9-1,1.7
			c1.9,9.1,10.8,13.1,19.2,10.6c3.4,9.4,13,12.3,21.4,7.2c2.9,7.8,8.6,11.9,17.6,11.3c4.2-0.3,8.6-1.7,11.8-4.6
			c8.4,9.2,21.2,11.8,29.8,1.8c8.2,7.8,25.8,7.7,28.4-4.3c7.7,4.9,20.6,1.9,22-8C327.2,680.4,326.8,679.7,326.1,679.4z M248,393.7
			c0.6-0.3,1.1-0.6,1.7-0.9c0.5,1,1.7,2.4,3.7,2c5.5-1.1,15.5-7.1,19.6-11.1c-0.1,3.5-2.7,7.8-4.1,10.1c-4.2,7-10.2,12.7-16.6,17.6
			C250.5,405.6,248.9,399.7,248,393.7C247.9,393.7,248,393.7,248,393.7z M227.5,404.3c0.5,6.3,1.5,12.6,2.7,18.4
			c2.5,12,6.4,23.6,10.2,35.3c1.4,4.3,3,8.4,4.6,12.7c-3.1,1-6.9,0.9-10,0.8c-3.3-0.1-8-0.4-10.8-2.4c-2.1-8.6-4.2-17.1-5.2-25.9
			c-0.8-6.7-1.9-13.7-1.9-20.4C216.9,414.5,221.4,409.1,227.5,404.3z M213.8,622.5c1-5,1.9-8.7,2.6-14.3c0.6-4.2,0.6-8,0.6-12.2
			c0-3.3,0-6.6,0-9.9c0-5,0.1-10,0-15.1c-0.3-18.5-1.3-36.9-4.2-55.2c-1.6-10.4-3.6-20.8-5.5-31.2c-1.5-8.2-3-16.2-2.2-24.6
			c0.4-4,0.7-10.2,2.3-14.8c0,1.6,0.1,3.3,0.2,4.9c0.7,11.5,1.5,22.7,3.5,34.1c0.3,2,3.5,1.6,3.1-0.4c-1.6-9.5-2.8-19-3.2-28.6
			c-0.4-9-1.8-18.4,3.4-25.9c0.3,2.3,0.6,4.6,0.9,6.8c1.2,11.5,3.7,22.7,6.2,33.9c-0.1,0.4,0,0.8,0.3,1.2c1,4.6,2,9.3,2.9,14
			c0.4,2,3.5,1.6,3.1-0.4c-0.7-3.9-1.6-7.7-2.5-11.6c3,1.1,6.6,1.4,9.4,1.5c3.6,0.1,8,0.2,11.6-1c1.3,3.6,2.5,7.3,3.3,11
			c0.4,2,3.6,1.6,3.1-0.4c-1.5-6.8-4.2-13-6.6-19.5c-4.2-11.7-8.2-23.8-11.2-35.9c-3.3-13.3-5.8-29-4.2-43.6
			c1.6,0.2,4.4,0.1,5.5-2.3c1.3-2.8,4.5-11.9,5.1-17.7c1.6,4.4,1.9,9.6,2.3,13.9c0.5,6.6,0.9,13.1,2.2,19.7
			c1.1,5.2,2.6,10.3,4.3,15.3c0,0.3,0.1,0.5,0.2,0.7c2.3,6.8,5.1,13.4,7.8,20.1c5.2,12.6,11.6,24.8,16.3,37.6
			c3.5,9.5,6.4,19.2,9.8,28.7c0.6,1.6,2.7,1,3-0.4c3.7-15.3,1-31,0.7-46.5c-0.2-9.5,0-21.8,3.6-31.9c0.2,5.7,2.3,13.6,3.7,17.7
			c1.6,4.7,6.5,3.9,8.5,3.4c0.5,1.8,1.1,3.5,1.6,5.3c3.6,12,4.3,25.1,4.9,37.6c1.2,25.4-0.9,50.7-4.8,75.8c-2.2,14-5.6,27.8-7,42
			c-0.7,6.6-1.1,13.3-1.3,19.9c-0.1,2-0.1,4-0.1,6c0,2.6,0.7,2.9-0.4,3.6c-2.8,2.1-10,2.1-13.3,2.6c-6.3,0.8-12.8,1.2-19.1,0.9
			c-12.5-0.6-25.6-3.3-37.3-7.6c-3.4-1.3-6.8-2.8-10-4.6c-0.9-0.5-2.2-1.1-3-1.9C213.7,622.9,213.7,622.7,213.8,622.5z M188.2,646.4
			c0.8-1.7,6.2-4,7.9-5.3c5.9-4.5,11.5-9.6,16.2-15.3c11.2,7.2,24.1,10.4,37.2,12.8c15.6,2.8,32.9,2.7,48.3-2
			c3.4,6.5,8.6,12.2,13.8,17.3c1.7,1.7,3.5,3.3,5.5,4.7c0.5,0.3,3.4,1.7,3.6,2.3c1.1,3.1-5.7,6.5-7.8,6.9c-3.5,0.6-7.1-0.3-9.4-3.1
			c-0.8-0.9-2.8-0.8-2.8,0.7c-0.1,12.9-16.2,13.7-22.4,4.7c-0.5-0.8-2-0.9-2.5,0c-7.2,11.4-18.3,8-24.9-1.6c-0.6-0.8-1.9-0.8-2.5,0
			c-1.5,2-3.7,3.5-5.9,4.3c-9.3,3.6-15.6-2-17.7-10.8c-0.2-1-1.5-1.9-2.5-1.1c-7.1,6.4-15.1,3.1-17-6.1c-0.2-0.9-1.2-1.7-2.1-1.3
			c-3.1,1.5-6.3,1.8-9.5,0.3C191.4,652.9,187,648.9,188.2,646.4z M313.3,688.1c-3.3,0-6.1-0.9-8.5-3.3c-1.1-1.1-2.5,0.3-2.5,1.4
			c0,13.3-19.1,10.4-24.4,3.7c-0.6-0.8-1.9-0.9-2.5,0c-7.8,10.5-19.9,7.3-27.2-1.7c-0.7-0.8-1.8-0.8-2.5,0c-1.6,1.9-4.1,3.2-6.5,3.9
			c-9.4,3-16.8-1.1-19.5-10.4c-0.3-1-1.7-1.2-2.4-0.7c-7.2,5.5-16.4,3.7-18.7-5.7c-0.2-1-1.1-1.7-2.1-1.3c-3.4,1.4-6.9,1.6-10.4,0.2
			c-2.2-0.9-6.5-4-5.5-6.9c0.3-0.8,4.3-2.8,5-3.4c2.5-1.9,4.7-4.1,7-6.3c0.2-0.2,0.4-0.5,0.4-0.8c2.8,1.2,6,1.3,9.3,0.2
			c2.9,9.3,11.6,13.4,19.7,7.7c2.2,7,6.2,11.9,14.5,12c4.5,0,9.4-1.7,12.7-4.9c2.9,3.8,6.9,7.7,11.6,8.6c6.6,1.4,12.2-1.9,16-6.9
			c7.9,8.6,24,7.2,26.4-4.9c2.6,1.8,5.6,2.4,8.5,2.2c2.1,2.5,4.3,4.9,6.7,7.1c1.6,1.4,4.6,2.7,5,4.5
			C324.3,686.5,315.8,688.1,313.3,688.1z"/>
		<path d="M407,560.2c-7.3,4.5-13.7,9.4-17.6,17.3c-2.9,6-2.3,9.9-4.8,13.6c-1.7,1.2-3.6,2.3-5.4,3.3c2.5-4.6,3.9-9.4,5.2-14.5
			c0.2-0.9,0.4-1.8,0.7-2.7c1-2,2.1-5.6,2.5-6.5c1.9-3.8,4.1-7.5,5.7-11.5c1.4-3.6,2.6-7.4,3.8-11.1c3-1.5,7.2-1.7,10.1-3.4
			c3.9-2.3,6.1-4.6,8.4-8.7c-6.4-1.3-13.6,3.2-17.5,8.7c0.9-3.3,1.7-6.7,2.2-10.1c0.5-3.7,1-7.3,2.1-10.8c2.6-3.1,6.1-3.7,10.5-8
			c3.6-3.6,6.2-7.7,7.9-12.8c0.9-2.8,1.2-5.5,0.8-8.4c-0.3-2.2,0.7-7.7,1.3-9.9c-3.4,2.4-8.6,7.6-12,10.1c-4.1,3.1-6.4,7-7.9,12
			c-1.2,4-2.2,7.9-2.5,11.9c-0.1,1.4-0.2,2.8-0.3,4.3c-0.7,2.3-1.2,4.7-1.5,7.1c0-0.3,0-0.6-0.1-0.8c-0.1-1.5-1.1-5.6-0.3-7.1
			c0.1-0.3-2-14.5-5.4-20.4c-1.3-2.3-2.9-4.4-4.5-6.5c0.6-5.1,2.3-11,6.5-14.3c0.9-0.2,1.8-0.4,2.8-0.8c1.9-0.6,3.7-1.4,5.4-2.3
			c5.6-3,10.4-7.4,13.8-13c3.3-5.6,5-12,8.2-17.7c-0.3,0.6-5-0.2-5.7-0.2c-2.1-0.1-4.7,1.3-6.6,2.2c-2.6,1.2-5.4,2.6-7.3,4.8
			c-3.1,3.5-4,8.4-4.7,12.9c-0.5,3.2-1,5.1-2.7,7.8c-1.9,3-2.3,2.9-3.3,4.4c0,0,0,0,0,0c-3.3,2.3-5.4,5.8-6.6,9.7
			c0-3.2,0.2-6.4,1.1-9.5c1.7-6.3,4.7-12.1,5.9-18.5c0.5-1.3,1.2-2.6,1.7-3.9c1.3-3.1,2-6.4,2.7-9.7c0.8-4.3,0.6-8-1.2-11.8
			c-1.5-3.1-3.4-8.9-4.9-12c-0.4,1.8-1.8,6.2-2.8,7.7c-1.4,2-2.2,4-2.6,6.5c-0.7,4.3-0.4,8.4,0.9,12.4c1.6,5,4.1,6.8,4.7,10.3
			c0.8,4.5-4.4,12.2-5.8,16.6c-1.5,5-1.2,10.5-1.1,15.7c-2.1-3.5-3.4-7.4-4-11.4c-0.4-2.7-0.6-5.5-0.5-8.3c0.1-1.9,0.4-3.8,0.5-5.7
			c0-1.4-0.4-2.8-0.6-4.2c-0.2-1.3-0.6-2.6-1.1-3.8c-0.4-1.1-1.2-2-1.9-3.1c-1.3-2.2-2.6-4.3-4.6-5.9c0,0,0,0,0,0
			c-0.9-1.5-2.3-2.8-2.9-4.4c-0.7-1.8-0.3-4-0.9-6c-1.6-4.9-4.2-9.2-7.2-13.4c-2.9-4-7.2-6.8-11.4-9.1c-5-2.8-10.3-5.3-14.3-9.5
			c1.5,7.4,0.9,15.3,4.5,22.1c2.3,4.4,5.2,7.6,8.7,11.1c2.2,2.1,4.7,3.7,7.5,4.9c2.3,1,5.4,2.7,7.7,2.2c0.3-0.1,0.6,0,1,0
			c0.5,0.1,0.9,0.1,1.3,0.2c2.5,0.7,3.2,3.5,5.4,4.2c5.1,4.8,6.3,12.6,6.3,19.3c0,0.1,0,0.2,0,0.3c-0.1,0.8-0.1,1.7-0.2,2.5
			c-0.2-0.9-0.6-1.8-1.1-2.6c-0.9-1.4-2.2-2.6-3.4-3.7c-3-2.7-7.4-2.4-11.1-3.8c0.3,0.1,1.7,2.9,2,3.4c1.2,1.4,2.5,2.7,3.9,3.9
			c2.5,2.1,6.1,4.7,9.6,4.8c0,0.4,0,0.8,0,1.2c0.2,3.8,1,7.6,2.3,11.2c0.1,0.2,0.2,0.4,0.2,0.6c1.4,3.3,3.5,6.3,5.6,9.2
			c3.7,5,6.6,11.1,7.7,17.2c0.7,4,0.4,8.1,0.3,12.2c0,1.9-0.7,9.4,0.8,11.5c-0.8,3.4-1.8,6.8-2.9,10.1c-0.7,2.2-1.4,4.5-2.3,6.7
			c0.5-4.4,0.4-8.9-1.5-12.6c-0.1-0.1-0.2-0.2-0.3-0.3c-0.3-1.8-0.7-2.1-1.1-6.2c-0.3-3.4-0.4-6.9-0.4-10.3c0-2.7,0.9-5.3,0.9-7.9
			c0-5.8-4.8-13.6-8.6-17.8c-1.9-2-4.1-3.7-6.2-5.6c-3.1-2.8-5.9-5.9-8.3-9.3c0.8,6.5,0.6,13,0.2,19.5c-0.2,3.2-0.4,6.4,0,9.5
			c1.6,12,11.9,19.8,19.6,28c0.7,0.8,1.5,1.4,2.2,2.1c1.3,2.8,1.2,6.1,1,9.2c-0.2,3.3-0.3,6.9-1.6,10c-1.6,3.9-3.6,7.7-5.2,11.6
			c-1.2,2.9-1,6.1-2,9.2c-1.2,3.7-2.8,7.3-4.9,10.6c-0.1,0.1-0.1,0.2-0.1,0.2c-5,2.4-10.5,4.9-15.4,8.2c0-0.1,0.1-0.2,0.1-0.2
			c0.4-1.1,0.7-2.2,1-3.3c0.4-1.6,0.4-3.4,0.6-5c0.2-1.9,0.9-4,2.1-5.5c2.1-2.7,5-3.1,8.7-6.6c2.9-2.8,5.1-6.1,6.4-10
			c0.8-2.2,1-4.3,0.8-6.6c-0.2-1.7,0.7-6.1,1.1-7.8c-2.7,1.9-7,5.9-9.7,7.8c-3.3,2.4-5.2,5.4-6.4,9.4c-1,3.1-1.9,6.2-2.2,9.4
			c-0.1,1.3-0.2,2.7-0.4,4c-0.2,0.6-0.4,1.2-0.5,1.8c-0.1-0.5-0.2-1-0.2-1.4c-0.4-2.6-1-5.1-1.8-7.7c-0.7-2.3-2.1-4.7-3.2-6.8
			c-0.1-0.2-0.2-0.4-0.2-0.6c0-0.3,0.1-0.5,0.2-0.8c0.5-1.2,0.7-2.2,1-3.3c0.4-1.5,1.5-2.8,2.1-4.2c0.4-0.8,0.7-1.6,0.9-2.4
			c0.2-0.9,0.1-1.8,0-2.8c-0.3-3.3-0.3-7-1.2-10.1c-0.5-1.5-1.3-7.1-2.8-7.9c-2-3.2-5.5-5.4-7-8.8c-2.1,5.4-2.9,11.2-3.3,16.9
			c-0.4,4.8-2.3,8.6,0,13.3c0.7,1.5,1.7,3,2.7,4.3c1.2,1.6,2.3,3.3,3.7,4.6c1.7,1.6,2.6,4.3,3.9,6.1c1.5,2,2,4.9,2.8,7.2
			c0.4,1.3,0.3,2.6,0.4,3.9c0.1,1.3,0.3,2.6,0.3,3.9c0,1.6-0.1,3.3-0.3,4.9c-0.1,0.9-1.4,3.9-0.6,4.8c-3.3,2.3-6.2,5-8.4,8.4
			c1.2-1.9,2.1-3.9,2.1-5.9c0-2.1-0.6-4.2-1.3-6.3c-0.9,2-1.9,4-2.8,5.9c-0.3,0.6-0.6,1.2-0.6,1.9c-0.1,1.1,0.4,2.1,1,3
			c0.4,0.6,0.9,1.2,1.4,1.8c-2.7,3.8-6.9,7.4-10.3,8.9c-1.4,0.6-2.6,1.1-3.6,1.5l0.2,1.9c3.2-1.2,6.3-2.8,7.6-3.7
			c1.5-1.1,2.9-2.4,4.2-3.7c0.1,0,0.2-0.1,0.2-0.2c4.4-3.7,11-8.1,17.1-7.5c4.2,0.4,8,6.4,11.6,8.6c5.1,3,11,4.6,16.9,4.4
			c4.5-0.2,9-1.3,13.5-1.4c4.3,0,8.6,1.3,12.9,1.3c-2.3-0.7-3.4-2.8-5.2-4.2c-1.9-1.6-4.4-2.5-6.3-4.1c-2.5-2-5.1-3.6-6.9-6.3
			c-0.6-0.9-1.4-1.6-2.3-2.2c-1.9-1.3-4.2-2.2-6.5-2.3c-1.5,0-3,0.3-4.5,0.5c-2.1,0.4-4.1,0.8-6.2,1.2c-3.2,0.6-6,2.5-9,3.2
			c-2,0.4-4.3-0.3-6.3-0.5c-4.4-0.5-9.7-0.9-13,2.6c2.8-2.9,5.8-5.6,9.3-7.7c5.2-3.1,10.8-5.3,16-8.1c2.4-1.3,4.6-3.4,7-4.4
			c2.7-1.2,6.5-1.1,9.4-1.6c3.5-0.5,7.1-1.1,10.1-2.8c3.3-1.8,5.8-4.7,8.2-7.6c3.2-3.8,6.5-7.7,8.3-12.3c3.1-7.8,2.1-17.5,8.1-23.3
			c-3.1,3-7.9,5.3-11.6,7.7C415.6,554.8,411.3,557.5,407,560.2z"/>
		<path d="M99.2,222.5c1.6,0.9,3.3,1.6,5,2.2c0.9,0.3,1.7,0.5,2.6,0.7c4,3.1,5.6,8.5,6.2,13.3c-1.4,2-2.9,3.9-4.1,6.1
			c-3.1,5.6-5.1,18.8-4.9,19.1c0.7,1.3-0.2,5.1-0.3,6.6c0,0.2,0,0.4,0,0.7c-0.4-2.2-0.8-4.5-1.5-6.7c-0.1-1.3-0.2-2.7-0.3-4
			c-0.3-3.7-1.3-7.4-2.4-11.1c-1.4-4.7-3.6-8.3-7.4-11.2c-3.2-2.3-8.1-7.1-11.3-9.3c0.5,2,1.5,7.2,1.2,9.2c-0.3,2.7,0,5.2,0.8,7.8
			c1.5,4.7,4,8.6,7.4,11.9c4.1,4,7.4,4.6,9.8,7.4c1,3.3,1.5,6.7,2,10.1c0.5,3.2,1.3,6.3,2.1,9.4c-3.7-5.1-10.4-9.3-16.4-8
			c2.2,3.8,4.3,5.9,7.9,8c2.7,1.6,6.6,1.8,9.4,3.1c1.1,3.5,2.2,7,3.6,10.4c1.5,3.7,3.6,7.1,5.4,10.7c0.4,0.8,1.4,4.2,2.4,6
			c0.2,0.9,0.4,1.7,0.6,2.5c0.3,1.3,0.7,2.5,1,3.7l1.6-3c-0.2-1.4-0.5-2.9-1-4.2c-1.5-3.7-3.4-7.2-4.9-10.8
			c-1.2-2.8-1.3-6.3-1.5-9.3c-0.2-2.8-0.2-5.9,0.9-8.6c0.7-0.6,1.4-1.2,2-1.9c7.2-7.7,16.8-15,18.2-26.2c0.4-2.9,0.1-5.9-0.1-8.9
			c-0.4-6.1-0.6-12.2,0.1-18.2c-2.2,3.2-4.8,6.1-7.7,8.7c-1.9,1.7-4,3.3-5.8,5.3c-3.6,3.9-7.9,11.2-7.9,16.6c0,2.4,0.8,4.9,0.9,7.4
			c0,3.2-0.1,6.4-0.3,9.7c-0.3,3.8-0.7,4.1-1,5.8c-0.1,0.1-0.2,0.2-0.2,0.3c-1.8,3.5-1.8,7.7-1.4,11.8c-0.8-2-1.5-4.1-2.1-6.2
			c-1-3.1-2-6.2-2.7-9.4c1.4-2,0.8-9,0.7-10.8c-0.1-3.8-0.5-7.6,0.2-11.4c1-5.7,3.7-11.4,7.1-16.1c2-2.7,3.9-5.5,5.2-8.6
			c0.1-0.2,0.2-0.4,0.2-0.6c1.3-3.3,2-6.9,2.1-10.5c0-0.4,0-0.7,0-1.1c3.2-0.1,6.6-2.5,9-4.5c1.3-1.1,2.6-2.3,3.7-3.6
			c0.3-0.4,1.6-3.1,1.9-3.2c-3.5,1.3-7.6,1-10.4,3.6c-1.2,1.1-2.3,2.2-3.2,3.5c-0.5,0.7-0.8,1.6-1,2.4c0-0.8-0.1-1.6-0.2-2.3
			c0-0.1,0-0.2,0-0.3c0-6.2,1.1-13.6,5.8-18c2-0.7,2.7-3.3,5-3.9c0.4-0.1,0.8-0.2,1.3-0.2c0.3,0,0.6-0.1,0.9,0
			c2.2,0.5,5.1-1.2,7.2-2.1c2.6-1.1,4.9-2.6,6.9-4.6c3.3-3.2,6-6.3,8.1-10.4c3.3-6.4,2.7-13.8,4.1-20.7c-3.7,3.9-8.6,6.3-13.3,9
			c-4,2.2-7.9,4.8-10.6,8.6c-2.7,3.9-5.2,8-6.6,12.5c-0.6,1.8-0.2,3.9-0.8,5.6c-0.6,1.5-1.9,2.7-2.7,4.1c0,0,0,0,0,0
			c-1.8,1.5-3.1,3.5-4.2,5.5c-0.6,1-1.3,1.8-1.7,2.9c-0.5,1.1-0.8,2.3-1,3.6c-0.2,1.3-0.6,2.5-0.6,3.9c0,1.8,0.4,3.5,0.5,5.3
			c0.1,2.6,0,5.2-0.4,7.7c-0.6,3.8-1.8,7.4-3.7,10.7c0.1-4.9,0.4-10-1.1-14.7c-1.3-4.2-6.2-11.3-5.5-15.5c0.5-3.3,2.8-5,4.3-9.7
			c1.2-3.7,1.5-7.5,0.8-11.6c-0.4-2.3-1.2-4.2-2.4-6c-1-1.4-2.3-5.5-2.7-7.2c-1.4,2.9-3.2,8.3-4.6,11.2c-1.7,3.6-1.9,7.1-1.1,11.1
			c0.6,3.1,1.3,6.2,2.6,9c0.5,1.2,1.1,2.4,1.6,3.6c1.2,6,4,11.4,5.6,17.3c0.8,2.9,1.1,5.9,1,8.9c-1.2-3.6-3.1-6.8-6.2-9c0,0,0,0,0,0
			c-1-1.3-1.3-1.2-3.1-4.1c-1.6-2.5-2-4.3-2.5-7.3c-0.7-4.3-1.6-8.8-4.5-12.1c-1.8-2.1-4.4-3.3-6.9-4.5c-1.8-0.8-4.2-2.1-6.2-2
			c-0.6,0-5,0.8-5.3,0.3c3,5.3,4.6,11.3,7.7,16.5C89.4,215.6,94,219.7,99.2,222.5z"/>
		<path d="M379.5,182.9c4.2,4.2,3.5,23.8,6,23.8s2.1-19.9,6-23.8c3.9-3.9,18.2-3,18.2-5.3c0-2.3-14.6-1.7-18.2-5.3
			c-3.6-3.6-3.5-23.8-6-23.8s-1.7,19.5-6,23.8c-4.3,4.3-18.2,2.5-18.2,5.3C361.3,180.5,375.3,178.8,379.5,182.9z"/>
		<path d="M121.9,556.9c5.7-4.8,26.7-3.7,26.7-6.5c0-2.9-21.4-2.1-26.7-6.5c-5.3-4.5-5.1-29.5-8.8-29.5s-2.5,24.2-8.8,29.5
			c-6.4,5.4-26.7,3.1-26.7,6.5c0,3.4,20.5,1.3,26.7,6.5c6.2,5.2,5.1,29.5,8.8,29.5S116.2,561.7,121.9,556.9z"/>
		<path d="M157,628.4c1.8,0,1.5-11.8,4.2-14.1c2.7-2.3,12.7-1.8,12.7-3.1c0-1.4-10.2-1-12.7-3.1S158.8,594,157,594
			s-1.2,11.5-4.2,14.1c-3,2.6-12.7,1.5-12.7,3.1c0,1.6,9.8,0.6,12.7,3.1C155.7,616.8,155.2,628.4,157,628.4z"/>
		<path d="M120.5,403.6c-1.2,0-0.8,9.5-2.9,11.6c-2.1,2.1-8.9,1.2-8.9,2.6c0,1.4,6.8,0.5,8.9,2.6c2,2,1.7,11.6,2.9,11.6
			s1-9.7,2.9-11.6c1.9-1.9,8.9-1.4,8.9-2.6c0-1.1-7.1-0.8-8.9-2.6C121.7,413.4,121.8,403.6,120.5,403.6z"/>
		<path d="M335.4,145.8c1.9,1.9,1.6,10.9,2.7,10.9c1.2,0,1-9.1,2.7-10.9c1.8-1.8,8.3-1.4,8.3-2.4c0-1.1-6.7-0.8-8.3-2.4
			c-1.6-1.6-1.6-10.9-2.7-10.9c-1.2,0-0.8,8.9-2.7,10.9c-2,2-8.3,1.1-8.3,2.4C327.1,144.6,333.5,143.9,335.4,145.8z"/>
	</g>
</g>
</svg>
