<?xml version="1.0" encoding="utf-8"?>
<!-- Generator: Adobe Illustrator 21.1.0, SVG Export Plug-In . SVG Version: 6.00 Build 0)  -->
<svg version="1.1" xmlns="http://www.w3.org/2000/svg" xmlns:xlink="http://www.w3.org/1999/xlink" x="0px" y="0px"
	 viewBox="0 0 504 864" style="enable-background:new 0 0 504 864;" xml:space="preserve">
<g id="Слой_1">
</g>
<g id="Слой_2">
	<g>
		<path d="M503.8,18.2c-1.6-17.9-18.7-16.3-31.6-16.3c-45.9,0-91.8,0-137.6,0c-63.2,0-126.3,0-189.5,0c-40.6,0-81.2,0-121.8,0
			c-2.6,0-5.3-0.2-8,0.2c-9.5,1.2-15,9.2-15.2,18.2c-0.2,7.3,0,14.5,0,21.8c0,37.4,0,74.9,0,112.3c0,57,0,114.1,0,171.1
			c0,64.3,0,128.6,0,192.9c0,58.4,0,116.7,0,175.1c0,40.1,0,80.2,0,120.3c0,9.1,0,18.2,0,27.3c0,11.7,6.7,20.5,19.2,20.7
			c35.9,0.6,71.9,0,107.9,0c62.4,0,124.9,0,187.3,0c49.7,0,99.5,0,149.2,0c7.6,0,15.2,0,22.9,0c0.4,0,0.8-0.1,1.2-0.2
			c14.4-1.8,16.1-13.8,16.1-25.5c0-11.4,0-22.8,0-34.3c0-43.4,0-86.9,0-130.3c0-59.9,0-119.8,0-179.8c0-63.9,0-127.7,0-191.6
			c0-55.3,0-110.6,0-165.9c0-33.7,0-67.3,0-101C503.9,28.3,504.2,23.2,503.8,18.2z M486.6,852.8c-28.3,0-56.6,0-84.9,0
			c-59.9,0-119.8,0-179.7,0c-54,0-108,0-162,0c-13.1,0-26.1,0-39.2,0c-5.6,0-11-1.3-11.7-8.3c-0.2-1.5,0-3,0-4.5c0-26.5,0-53,0-79.5
			c0-50,0-100,0-149.9c0-61.8,0-123.6,0-185.4c0-61.4,0-122.7,0-184.1c0-48.9,0-97.7,0-146.6c0-24.2-0.8-48.6,0-72.7
			c0.2-5.3,1.6-10.1,8.3-10.8c2.2-0.2,4.5,0,6.7,0c14.8,0,29.6,0,44.5,0c55.6,0,111.3,0,166.9,0c58.9,0,117.8,0,176.7,0
			c18.9,0,37.9,0,56.8,0c8.1,0,24.7-3.1,25.9,8.4c0.5,5.2,0,10.8,0,16.1c0,13.5,0,27.1,0,40.6c0,45.5,0,91.1,0,136.6
			c0,60.1,0,120.2,0,180.3c0,62.6,0,125.1,0,187.7c0,52.8,0,105.6,0,158.4c0,31.4,0,62.7,0,94.1C494.8,840.3,496.9,852,486.6,852.8z
			"/>
		<path d="M460,790.9c1.2,0.1,2.4-0.7,2.4-2.2c0-23.7,0-47.4,0-71.1c0-56.4,0-112.8,0-169.2c0-68.7,0-137.4,0-206
			c0-59,0-117.9,0-176.9c0-19.6,0-39.2,0-58.8c0-8.9,1.3-19,0-27.9c-0.1-0.4,0-0.8,0-1.2c0-0.8-0.3-1.3-0.8-1.7
			c0.1-1.2-0.6-2.5-2.2-2.6c-13.1-0.5-25.3-13.8-25.8-26.7c0-0.5-0.2-0.8-0.4-1.1c-0.3-0.6-1-1.1-1.9-1.1c-40.5,0-80.9,0-121.4,0
			c-64.5,0-129,0-193.6,0c-14.9,0-29.7,0-44.6,0c-0.9,0-1.6,0.5-1.9,1.1c-0.2,0.3-0.3,0.7-0.4,1.2C69.1,59.5,57,72.8,43.9,73.3
			c-1.8,0.1-2.5,1.9-2,3.2c-0.1,0.3-0.2,0.6-0.2,1c0,23.7,0,47.4,0,71.1c0,56.4,0,112.8,0,169.2c0,68.7,0,137.4,0,206
			c0,59,0,117.9,0,176.9c0,19.6,0,39.2,0,58.8c0,8.9-1.3,19,0,27.9c0.1,0.4,0,0.8,0,1.2c0,0.9,0.5,1.6,1.1,1.9
			c0.3,0.2,0.7,0.3,1.2,0.4c13,0.5,25.3,13.3,25.8,26.2c0,0.5,0.2,0.8,0.4,1.1c0.3,0.6,1,1.1,1.9,1.1c40.5,0,80.9,0,121.4,0
			c64.5,0,129,0,193.6,0c14.9,0,29.7,0,44.6,0c0.9,0,1.6-0.5,1.9-1.1c0.2-0.3,0.3-0.7,0.4-1.2c0.5-12.9,12.7-25.7,25.8-26.2
			C459.6,791,459.8,790.9,460,790.9z M429.3,814.9c-39.8,0-79.6,0-119.3,0c-64.5,0-129,0-193.6,0c-14.2,0-28.3,0-42.5,0
			c-1.7-13.9-13.9-26.5-27.8-28.3c0-23,0-46,0-69.1c0-56.4,0-112.8,0-169.2c0-68.7,0-137.4,0-206c0-59,0-117.9,0-176.9
			c0-19.6,0-39.2,0-58.8c0-8.9,1.3-19,0-27.9c-0.1-0.4,0-0.8,0-1.2c14-1.8,26.1-14.9,27.8-28.7c39.8,0,79.6,0,119.3,0
			c64.5,0,129,0,193.6,0c14.2,0,28.3,0,42.5,0c1.7,14.1,14.3,27.3,28.5,28.8c0,23.7,0,47.3,0,71c0,56.4,0,112.8,0,169.2
			c0,68.7,0,137.4,0,206c0,59,0,117.9,0,176.9c0,19.6,0,39.2,0,58.8c0,8.6-1.2,18.4-0.1,27C443.6,788.1,431.1,800.9,429.3,814.9z"/>
		<path d="M138.8,793.6c-0.1-0.3-0.3-0.5-0.5-0.5h-0.1c-0.3,0-0.5,0.1-0.9,0.2c-0.3,0.1-0.5,0.2-0.5,0.3c0,0.1-0.1,0.2-0.4,0.2
			c-0.2,0-0.3,0-0.3,0c0,0,0-0.1,0.1-0.2c0.1-0.1,0.3-0.2,0.4-0.2c0.1,0,0.2-0.1,0.3-0.4c0.1-0.2,0.2-0.4,0.3-0.4
			c0.1,0,0.2-0.1,0.3-0.3c0.1-0.2,0.2-0.3,0.3-0.3c0.2,0,0.4-0.1,0.6-0.4c0.2-0.3,0.3-0.5,0.3-0.7c0-0.3,0-0.4-0.1-0.4
			c-0.1,0-0.1-0.1-0.1-0.2s0-0.2,0.1-0.3c0.1,0,0.2-0.7,0.2-2.1c0-0.3,0-0.7,0-1.2c0-0.6-0.1-0.9-0.2-0.9c-0.2-0.1-0.3-0.2-0.3-0.6
			c0-0.3,0-0.5-0.1-0.5c-0.1,0-0.1-0.1-0.1-0.4c0-0.3-0.1-0.4-0.2-0.4c-0.2,0-0.3-0.1-0.4-0.4c-0.1-0.2-0.2-0.3-0.4-0.4
			c-0.1-0.1-0.2-0.2-0.2-0.4c0-0.2-0.2-0.3-0.5-0.3c-0.6,0-0.9-0.1-0.9-0.4c0-0.1-0.1-0.2-0.2-0.2c-0.1,0-0.2,0-0.2-0.1
			c0-0.1-0.1-0.2-0.4-0.2c-0.2,0-0.3-0.1-0.4-0.2c0-0.1-0.6-0.2-1.5-0.2c-1,0-1.6,0.1-1.7,0.2c-0.1,0.1-0.3,0.2-0.4,0.2
			c-0.2,0-0.3,0-0.3,0.1c0,0.1-0.1,0.3-0.3,0.4c-0.2,0.1-0.4,0.2-0.6,0.2c-0.3,0-0.7,0.1-1.1,0.2c-0.5,0.1-0.7,0.3-0.8,0.5
			c-0.1,0.3-0.3,0.5-0.5,0.8c-0.3,0.3-0.4,0.5-0.4,0.6c0,0.1-0.1,0.1-0.2,0.1c-0.1,0-0.2,0.1-0.3,0.4c-0.1,0.3-0.2,0.6-0.3,0.8
			c-0.2,0.3-0.2,0.9-0.2,1.9c0,1.3,0.1,2.3,0.4,3c0.2,0.6,0.4,1.2,0.7,1.6c0.3,0.5,0.5,0.7,0.6,0.7c0.1,0.1,0.2,0.2,0.3,0.4
			c0.1,0.2,0.2,0.3,0.4,0.3c0.3,0,0.4,0,0.4,0.1s0.1,0.1,0.3,0.1c0.2,0,0.3,0.1,0.3,0.4c0,0.3,0.1,0.4,0.3,0.4
			c0.2,0,0.3-0.1,0.3-0.2c0.1-0.1,0.1-0.1,0.3,0c0.2,0.1,1,0.2,2.4,0.2c1.2,0,1.9-0.1,1.9-0.2c0.1-0.1,0.2-0.1,0.4-0.1
			c0.6,0,1,0.1,1.3,0.4c0.2,0.2,0.7,0.3,1.5,0.3c0.8,0,1.2,0,1.2-0.1c0-0.1,0.1-0.1,0.4-0.2c0.3-0.1,0.4-0.3,0.4-0.5
			c0-0.1,0-0.2-0.1-0.2C139,794,138.9,793.9,138.8,793.6z M135.7,790c-0.1,0.1-0.2,0.2-0.2,0.4c0,0.2,0,0.3-0.1,0.3
			c-0.1,0-0.2-0.1-0.2-0.4c0-0.2,0-0.3-0.1-0.3c0,0-0.2,0-0.4,0c-0.4,0.1-0.7,0.1-0.8,0.2c-0.1,0.1-0.1,0.2-0.1,0.5c0,0,0,0.1,0,0.3
			c0,0.2,0,0.3,0,0.4v0.5c0,0.5-0.1,0.7-0.2,0.7c-0.1,0-0.2,0.1-0.4,0.2c-0.2,0.1-0.3,0.2-0.4,0.2c-0.2,0-0.4,0.1-0.5,0.2
			c-0.1,0.1-0.2,0.1-0.3,0.1c-0.2,0-0.5,0-0.8-0.1c-0.4-0.1-0.7-0.2-0.9-0.3c-0.2-0.1-0.4-0.3-0.7-0.6c-0.4-0.5-0.8-1-1.1-1.8
			c-0.3-0.7-0.4-1.4-0.4-2.3c0-0.6,0-1,0.1-1.2c0-0.2,0.2-0.5,0.3-0.9c0.3-0.5,0.6-1,1.1-1.5c0.5-0.5,0.8-0.7,1.1-0.8
			c0.3-0.1,0.5-0.2,0.5-0.3s0.1-0.2,0.2-0.2c0.1,0,0.2-0.1,0.2-0.2c0-0.1,0.1-0.1,0.4-0.1c0,0,0.2,0,0.6,0.1c0.4,0,0.7,0.1,1,0.2
			c0.3,0.1,0.4,0.1,0.4,0.2s0.1,0.2,0.3,0.3c0.2,0.1,0.3,0.2,0.3,0.3c0,0.1,0.1,0.2,0.3,0.3c0.2,0.1,0.4,0.2,0.4,0.3
			c0.1,0.1,0.1,0.3,0.1,0.6c0,0.3,0.1,0.6,0.3,0.9c0.1,0.1,0.2,0.3,0.2,0.6c0.1,0.3,0.1,0.6,0.2,1c0,0.4,0.1,0.6,0.1,0.7
			c0.1,0.3,0,0.4-0.1,0.5c-0.2,0.1-0.2,0.3-0.2,0.5C135.9,789.8,135.8,789.9,135.7,790z"/>
		<path d="M139.8,792c-0.3,0-0.5,0-0.6,0.1c0,0-0.1,0.1-0.1,0.1c0,0.2,0.2,0.2,0.6,0.2c0.3,0,0.5-0.1,0.5-0.2
			C140.3,792.1,140.1,792,139.8,792z"/>
		<path d="M158.4,783h-0.2c-0.4,0-0.8-0.1-1-0.3c-0.2-0.1-0.3-0.2-0.4-0.2c0,0-0.1,0.1-0.1,0.2c0,0.1,0,0.2-0.1,0.2
			c-0.1,0-0.4,0-0.8,0.1c-0.6,0-1,0-1,0.1c-0.1,0.1-0.1,0.3-0.1,0.7l0,0.6l0.8,0.1l0.8,0v2.3c0,1.5,0,2.3,0.1,2.4
			c0.1,0,0.1,0.1-0.1,0.3c-0.1,0.2-0.2,0.4-0.2,0.5v0.2c0,0.3,0,0.6-0.1,0.9c-0.1,0.3-0.2,0.5-0.3,0.5c-0.1,0.1-0.2,0.1-0.2,0.3
			c0,0.1-0.1,0.3-0.3,0.4c-0.2,0.2-0.4,0.2-0.6,0.2c-0.3,0-0.4,0.1-0.5,0.2c-0.1,0.1-0.2,0.2-0.4,0.2c-0.1,0-0.2,0-0.5-0.1
			c-0.5-0.1-0.7-0.1-0.8-0.2c0-0.1-0.2-0.1-0.4-0.1c-0.2,0-0.4-0.1-0.8-0.2c-0.2-0.1-0.3-0.2-0.4-0.3c-0.1-0.1-0.1-0.2-0.1-0.5V791
			v-0.3c0-0.4,0-0.6-0.1-0.6c-0.1,0-0.2-0.1-0.1-0.3c0-0.2,0.1-0.3,0.2-0.3c0.1-0.1,0.1-0.1,0-0.2c-0.1,0-0.1-0.1-0.1-0.2
			c0-0.1,0-0.2,0-0.3c0-0.1,0.1-0.1,0.1-0.1c0.1,0,0.1-0.3,0.1-0.9c0-0.9-0.1-1.4-0.2-1.5c-0.1-0.1-0.1-0.2,0-0.3
			c0.1-0.1,0.2-0.4,0.2-0.8c0-0.1,0-0.2,0-0.3c0-0.1-0.1-0.2-0.1-0.3c0-0.1,0-0.1,0-0.1c0-0.1,0.5-0.1,1.4-0.1c0.1,0,0.1,0,0.2,0
			c0.1,0,0.1,0,0.2,0h0c0,0,0.1-0.1,0.1-0.2c0-0.1,0-0.3-0.1-0.6c0-0.2-0.1-0.4-0.3-0.5c-0.2-0.1-0.5-0.1-1-0.1
			c-0.1,0-0.6,0-1.5,0.1c-1.4,0.1-2.1,0.2-2.3,0.4c-0.2,0.2-0.2,0.4-0.2,0.5c0,0.4,0.3,0.6,1,0.7c0.5,0.1,0.7,0.2,0.7,0.4
			c0,0.1-0.1,0.2-0.2,0.3c-0.2,0.1-0.2,0.4-0.1,0.7c0.1,0.3,0.1,0.6,0,0.6c-0.1,0.1-0.2,0.1-0.3,0.1c-0.1,0-0.1,0-0.1,0.1
			c0,0.2,0.1,0.4,0.4,0.5c0.2,0.1,0.4,0.2,0.4,0.4c0,0.1-0.1,0.2-0.2,0.3c-0.1,0.1-0.2,0.4-0.2,0.9v0.4c0,0.8,0.1,1.3,0.2,1.3
			c0.1,0.1,0.1,0.2,0.1,0.5s0,0.3-0.1,0.3c-0.1,0-0.1,0.1-0.2,0.4c-0.1,0.3,0,0.4,0.2,0.5c0.1,0.1,0.3,0.3,0.4,0.6
			c0.1,0.3,0.2,0.5,0.3,0.5s0.1,0.1,0.2,0.4c0.1,0.3,0.2,0.4,0.4,0.4c0.2,0,0.4,0,0.5,0.1c0.1,0.1,1,0.2,2.5,0.2
			c1.3,0,1.9-0.1,1.9-0.2c0-0.1,0.1-0.2,0.2-0.2c0.1,0,0.2-0.1,0.3-0.2c0.1-0.1,0.2-0.2,0.4-0.2c0.2,0,0.3-0.1,0.3-0.3
			c0-0.1,0.1-0.2,0.1-0.3c0.1,0,0.2,0,0.5,0h0.1c0.3,0,0.5,0,0.5-0.1c0-0.1-0.1-0.1-0.2-0.2c-0.1-0.1-0.2-0.2-0.2-0.3
			c0-0.2,0.1-0.4,0.2-0.6c0.2-0.2,0.2-0.4,0.1-0.4c-0.1,0-0.2-0.1-0.2-0.2c0-0.1,0-0.2,0.1-0.2c0.1,0,0.2-0.2,0.2-0.4
			c0-0.2,0.1-0.6,0.1-0.9c0-0.4,0-0.6,0-0.6c0-0.1,0-0.5,0.1-1.1c0-0.6,0-1.2,0.1-1.7c0-0.5,0.1-0.8,0.2-0.9c0.1-0.1,0.2-0.2,0-0.2
			c-0.1-0.1-0.2-0.1-0.2-0.2c0-0.1,0.1-0.3,0.3-0.4c0.2-0.1,0.4-0.2,0.6-0.2c0.1,0,0.2,0,0.2,0c0,0,0.1,0,0.2,0
			c0.3,0,0.4-0.1,0.4-0.3c0-0.1,0-0.1-0.1-0.2c-0.1-0.1-0.1-0.2,0-0.2c0.1,0,0.1-0.1,0.1-0.2C159.5,783.1,159.1,783,158.4,783z"/>
		<path d="M166.7,792c0.1-0.2,0.1-0.3-0.1-0.3c-0.1,0-0.2,0.1-0.2,0.2c0,0.1,0,0.2,0.1,0.2C166.6,792.2,166.6,792.1,166.7,792z"/>
		<path d="M177.2,790.2c-0.1,0-0.3,0.2-0.5,0.5c-0.3,0.4-0.4,0.6-0.4,0.7c0,0.1-0.1,0.2-0.4,0.2c-0.2,0-0.3,0.1-0.3,0.1
			c0,0,0,0.1,0,0.3v0.2c0,0.2-0.1,0.3-0.4,0.3c0,0-0.1,0-0.2,0c-0.1,0-0.1,0-0.2,0c-0.2,0-0.4,0.1-0.7,0.4c-0.2,0.2-0.4,0.3-0.6,0.3
			c-0.1,0-0.2-0.1-0.2-0.2c-0.1-0.1-0.2-0.1-0.4,0c-0.2,0.1-0.6,0.2-1.2,0.2c-0.5,0-0.7,0-0.7-0.1c0-0.1-0.1-0.1-0.2-0.1
			c-0.1,0-0.1-0.1-0.2-0.2c-0.1-0.2-0.1-0.3-0.1-0.5c0,0,0-0.6,0.1-1.8c0-1.2,0.1-1.8,0.1-1.8c0-0.1,0.5-0.1,1.4-0.1
			c0.8,0,1.3,0.1,1.5,0.2c0.3,0.1,0.4,0.4,0.4,0.8c0,0.2,0,0.3,0.1,0.3c0,0,0.1,0,0.2,0c0.2-0.1,0.4-0.1,0.6-0.1h0.1
			c0.2,0,0.3-0.2,0.3-0.6c0-0.1,0-0.2,0-0.3c0-0.2,0-0.3,0-0.4v-0.3c0-0.4,0-0.6,0.1-0.6c0.1-0.1,0.1-0.3,0-0.4
			c-0.1-0.1-0.1-0.3,0.1-0.4c0.2-0.1,0.2-0.2,0.2-0.4c0-0.3-0.4-0.4-1.1-0.4c-0.4,0-0.6,0.2-0.6,0.5c0,0.1,0,0.2,0.1,0.3
			c0.1,0.2,0,0.3-0.1,0.5c-0.1,0.1-0.4,0.2-0.9,0.3c-0.6,0.1-1.1,0.2-1.6,0.2h-0.6V787c0-0.4,0.1-0.6,0.2-0.6c0.1,0,0.2-0.1,0.2-0.4
			c0-0.3-0.1-0.6-0.2-0.9c-0.1-0.2-0.2-0.4-0.2-0.4c0-0.1,0.1-0.1,0.2-0.3c0.2-0.2,0.3-0.3,0.2-0.5c0,0,0-0.1,0-0.2
			c0-0.2,0.1-0.3,0.4-0.4c0.3-0.1,0.8-0.1,1.5-0.2c0.6,0,1-0.1,1.1-0.1c0.4,0,0.6,0.1,0.7,0.2c0.2,0.2,0.3,0.3,0.5,0.4
			c0.2,0.1,0.3,0.2,0.3,0.3c0,0.1,0.1,0.2,0.4,0.4c0.2,0.1,0.4,0.3,0.4,0.3c0,0.2,0.1,0.3,0.3,0.5c0.2,0.2,0.4,0.3,0.6,0.3h0.1
			c0.3,0,0.4-0.2,0.4-0.7c0-0.2-0.1-0.4-0.2-0.5c-0.1-0.2-0.2-0.4-0.2-0.6c0-0.3-0.1-0.5-0.2-0.5c-0.1-0.1-0.1-0.2,0-0.4
			c0.1-0.1,0.1-0.2,0.1-0.3c0-0.1-0.1-0.1-0.2-0.2s-0.2-0.2-0.2-0.3c0-0.1-0.1-0.3-0.3-0.5c-0.1-0.1-0.2-0.2-0.3-0.2s-0.2,0-0.3,0.1
			c-0.2,0.1-1.9,0.3-5,0.4h-0.7c-1.5,0-2.3-0.1-2.4-0.3c0-0.1-0.1-0.1-0.3-0.1c-0.1,0-0.2,0-0.2,0.1c0,0.1-0.1,0.2-0.1,0.3
			c0,0.2,0,0.3,0,0.3c0,0.2-0.1,0.3-0.3,0.4c-0.2,0-0.3,0.2-0.2,0.5c0.1,0.2,0.1,0.4,0.2,0.5c0.1,0.1,0.2,0.1,0.3,0.1s0.3,0,0.4,0
			c0.1,0,0.1,0,0.2,0c0.1,0,0.1,0,0.2,0c0.4,0,0.6,0.1,0.7,0.4c0.1,0.2,0.1,0.8,0.1,1.5c0,0.9-0.1,1.4-0.2,1.5c-0.1,0-0.1,0.2,0,0.4
			c0.1,0.3,0.1,0.5,0,0.7c-0.1,0.2-0.2,0.3-0.3,0.3c-0.1,0-0.1,0.1,0.1,0.2c0.1,0.1,0.1,0.3,0.1,0.6c0,0.3-0.1,1.3-0.2,3l-0.1,1
			h-0.6c-0.4,0-0.6,0.1-0.7,0.3c-0.1,0.2-0.2,0.3-0.3,0.3c-0.2,0-0.2,0.1-0.2,0.4c0,0.3,0.1,0.5,0.3,0.6c0.2,0.1,0.3,0.3,0.3,0.4
			c0,0.1,0.1,0.2,0.3,0.2s0.5,0,0.8-0.1c0.3-0.1,0.5-0.2,0.6-0.2c0.2-0.1,0.6-0.2,1.2-0.2c0.1,0,0.6,0,1.5,0.1
			c0.8,0,1.2,0.1,1.2,0.2c0.1,0.1,0.2,0.1,0.4,0c0.3-0.1,0.8-0.2,1.6-0.2c0.9,0,1.4,0,1.6-0.1c0.2,0,0.3-0.1,0.5-0.2
			c0.2-0.2,0.3-0.4,0.2-0.6c-0.1-0.2,0-0.4,0.2-0.4c0.1-0.1,0.2-0.4,0.2-0.8c0-0.3,0-0.5,0.1-0.6c0-0.1,0.1-0.1,0.2-0.1
			c0.2,0,0.3-0.2,0.3-0.5c0-0.3-0.1-0.5-0.2-0.7C177.5,790.3,177.4,790.2,177.2,790.2z"/>
		<path d="M195.1,790.2c-0.1,0-0.3,0.2-0.5,0.5c-0.3,0.3-0.4,0.5-0.4,0.7c0,0.1-0.1,0.2-0.4,0.2c-0.1,0-0.2,0-0.3,0.1
			c0,0-0.1,0.1-0.1,0.1c0,0,0,0.1,0,0.3c0,0.2-0.1,0.3-0.4,0.3c0,0-0.1,0-0.1,0c-0.1,0-0.1,0-0.2,0c-0.2,0-0.4,0.1-0.6,0.3
			c-0.2,0.2-0.4,0.3-0.6,0.3c-0.1,0-0.2-0.1-0.2-0.2c0-0.1-0.1-0.1-0.4,0c-0.2,0.1-0.6,0.2-1.2,0.2c-0.5,0-0.7,0-0.7-0.1
			s-0.1-0.1-0.2-0.1c-0.1,0-0.1-0.1-0.2-0.2c-0.1-0.2-0.1-0.3-0.1-0.4c0-0.1,0-0.2,0-0.3c0-0.2,0-0.4,0-0.6c0-0.3,0-0.5,0-0.8
			c0-0.3,0-0.5,0-0.8c0-0.3,0-0.5,0-0.6v-0.2c0-0.1,0.4-0.1,1.3-0.1c0.7,0,1.2,0.1,1.4,0.2c0.2,0.1,0.4,0.4,0.4,0.8
			c0,0.2,0,0.3,0.1,0.3c0,0,0.1,0,0.2,0c0.1-0.1,0.3-0.1,0.5-0.1c0.1,0,0.2,0,0.3-0.1c0-0.1,0.1-0.2,0.1-0.5c0-0.1,0-0.2,0-0.3
			c0-0.2,0-0.3,0-0.4v-0.2c0-0.3,0-0.6,0.1-0.7c0.1-0.1,0.1-0.3,0-0.4c-0.1-0.1-0.1-0.3,0.1-0.4c0.1-0.1,0.2-0.2,0.2-0.4
			c0-0.3-0.3-0.4-1-0.4c-0.4,0-0.6,0.2-0.6,0.5c0,0.1,0,0.2,0.1,0.3c0,0.2,0,0.4,0,0.5c-0.1,0.1-0.3,0.2-0.9,0.3
			c-0.5,0.1-1,0.1-1.5,0.1h-0.6v-0.6c0-0.4,0.1-0.6,0.2-0.6c0.1,0,0.2-0.1,0.2-0.4c0-0.3-0.1-0.5-0.2-0.9c-0.1-0.2-0.2-0.4-0.1-0.4
			c0-0.1,0.1-0.1,0.2-0.3c0.2-0.1,0.3-0.3,0.2-0.5c0,0,0-0.1,0-0.2c0-0.1,0.1-0.3,0.4-0.3c0.3-0.1,0.7-0.1,1.5-0.2
			c0.7,0,1.1-0.1,1.1-0.1c0.3,0,0.5,0.1,0.6,0.2c0.1,0.2,0.3,0.3,0.5,0.4c0.2,0.1,0.3,0.2,0.3,0.3c0,0.1,0.1,0.2,0.3,0.3
			c0.2,0.1,0.3,0.2,0.3,0.3c0,0.2,0.1,0.3,0.3,0.5c0.2,0.2,0.4,0.2,0.6,0.2h0c0.3,0,0.4-0.2,0.4-0.6c0-0.2-0.1-0.3-0.2-0.5
			c-0.1-0.1-0.2-0.3-0.2-0.5c0-0.3-0.1-0.5-0.2-0.5c-0.1,0-0.1-0.1,0-0.4c0.1-0.1,0.1-0.2,0.1-0.3c0,0-0.1-0.1-0.1-0.1
			c-0.1-0.1-0.2-0.2-0.2-0.3c0-0.1-0.1-0.3-0.3-0.5c-0.2-0.2-0.4-0.3-0.6-0.1c-0.3,0.1-1.8,0.3-4.7,0.4h-0.7c-1.5,0-2.2-0.1-2.3-0.3
			c0-0.1-0.1-0.1-0.2-0.1s-0.2,0-0.2,0.1l0,0.1c0,0.1,0,0.1,0,0.1c0,0,0,0.1,0,0.2c0,0.1,0,0.2,0,0.2c0,0.2-0.1,0.3-0.3,0.3
			c-0.2,0.1-0.3,0.2-0.2,0.5c0.1,0.2,0.1,0.4,0.2,0.5s0.2,0.1,0.3,0.1c0.1,0,0.3,0,0.4,0c0.1,0,0.2,0,0.4,0c0.3,0,0.5,0.1,0.6,0.4
			c0.1,0.2,0.1,0.7,0.1,1.4c0,0.9-0.1,1.4-0.2,1.4c-0.1,0-0.1,0.2,0,0.4c0.1,0.2,0.1,0.4,0,0.6c-0.1,0.2-0.2,0.3-0.3,0.3
			c-0.1,0-0.1,0.1,0.1,0.2c0.1,0.1,0.1,0.3,0.1,0.6c0,0.5-0.1,1.5-0.2,2.8l-0.1,0.9h-0.6c-0.4,0-0.6,0.1-0.6,0.3
			c0,0.2-0.1,0.3-0.3,0.3c-0.1,0-0.2,0.1-0.2,0.3c0,0.3,0.1,0.5,0.3,0.6c0.2,0.1,0.3,0.2,0.3,0.4c0,0.1,0.2,0.1,0.7,0.1
			c0.5,0,0.8-0.1,0.9-0.3c0.1-0.1,0.5-0.2,1.2-0.2c0.5,0,0.9,0,1.3,0c0.7,0,1.1,0.1,1.2,0.2c0,0.1,0.2,0.1,0.4,0
			c0.2-0.1,0.7-0.2,1.5-0.2c0.8,0,1.3,0,1.5-0.1c0.2,0,0.3-0.1,0.5-0.3c0.2-0.2,0.3-0.3,0.2-0.5c0-0.2,0-0.3,0.1-0.4
			c0.1-0.1,0.2-0.3,0.2-0.8c0-0.3,0-0.5,0-0.6c0-0.1,0.1-0.1,0.2-0.1c0.2,0,0.3-0.2,0.3-0.5c0-0.2-0.1-0.4-0.2-0.6
			C195.3,790.3,195.2,790.2,195.1,790.2z"/>
		<path d="M184.8,791.9c0,0.1,0,0.2,0.1,0.2c0,0,0.1,0,0.1-0.1c0.1-0.2,0.1-0.3,0-0.3C184.8,791.7,184.8,791.8,184.8,791.9z"/>
		<path d="M215.7,782c-0.1,0-0.2,0-0.3,0.1c-0.2,0.1-0.3,0.1-0.3,0.1c-0.1,0-0.1-0.1-0.2-0.2c-0.1-0.2-0.3-0.3-0.4-0.3
			c-0.1,0-0.2-0.1-0.2-0.3c0-0.2-0.1-0.3-0.3-0.3c-0.2,0-0.3,0.1-0.3,0.3c0,0.2,0.1,0.3,0.2,0.3s0.2,0.1,0.2,0.3
			c0,0.2-0.1,0.3-0.2,0.3c-0.2,0-0.3-0.1-0.3-0.4c-0.1-0.2-0.2-0.4-0.3-0.4c-0.1,0-0.1,0-0.2,0.1c-0.2,0.2-0.2,0.3,0,0.3
			c0.1,0,0.2,0.1,0.2,0.1c0,0.1-0.1,0.2-0.4,0.2c-0.2,0-0.4,0-0.4-0.1c0-0.1-0.1-0.1-0.4-0.1c-0.4,0-0.8,0.1-1.1,0.2
			c-0.4,0.2-0.6,0.4-0.6,0.7c0,0.3,0.3,0.5,0.8,0.6c0.4,0.1,0.6,0.1,0.6,0.2c0,0.1,0.1,0.1,0.3,0.1c0.3,0,0.5,0.2,0.6,0.6
			c0.1,0.4,0.2,1.2,0.2,2.4c0,1.4,0.1,2.2,0.1,2.4c0.1,0.1,0,0.3,0,0.6l-0.1,0.4l-0.5-0.5c-0.4-0.3-0.5-0.5-0.5-0.6
			c0-0.1-0.1-0.2-0.2-0.3c-0.1-0.1-0.3-0.2-0.4-0.4c-0.2-0.1-0.3-0.2-0.3-0.2c-0.1-0.1-0.3-0.2-0.3-0.2c-0.1,0-0.2-0.1-0.2-0.2
			c0-0.1-0.1-0.2-0.2-0.3c-0.1-0.1-0.3-0.2-0.4-0.2c-0.1,0-0.1-0.1-0.1-0.2c0-0.1-0.1-0.2-0.2-0.2c-0.1,0-0.1,0-0.1-0.1
			c0-0.1-0.1-0.2-0.4-0.5c-0.2-0.3-0.4-0.4-0.4-0.5c0-0.1-0.1-0.2-0.3-0.2c-0.2,0-0.3-0.1-0.5-0.2c-0.2-0.1-0.2-0.3-0.2-0.4
			c0-0.1-0.2-0.3-0.5-0.7c-0.3-0.4-0.5-0.6-0.5-0.7c0-0.1-0.1-0.2-0.3-0.4c-0.2-0.2-0.3-0.4-0.3-0.4c0-0.3-0.6-0.5-1.8-0.6
			c-0.6,0-0.9-0.1-0.9-0.1c-0.3,0-0.4,0.1-0.4,0.2c0,0.1,0,0.2,0,0.4c0,0.2,0,0.4,0.1,0.6c0.1,0.2,0.1,0.3,0.2,0.3
			c0.1,0,0.2,0.2,0.3,0.6c0.1,0.4,0.2,0.6,0.2,0.6c0.1,0,0.1,0.3,0.1,0.8c0,0.5,0,0.8-0.1,0.8c-0.1,0-0.1,0.1-0.1,0.4
			c0,0.2,0.1,0.6,0.2,1c0.1,0.2,0.1,0.6,0.1,1.1c0,0.7-0.1,1.1-0.2,1.1c-0.1,0-0.1,0.2-0.1,0.7c0,0.5,0,1.1-0.1,1.5
			c0,0.4-0.1,0.6-0.1,0.7c-0.1,0.1-0.2,0.2-0.4,0.2c-0.3,0.1-0.4,0.2-0.4,0.4c0,0.2,0.1,0.4,0.4,0.6c0.2,0.2,0.3,0.3,0.5,0.3
			c0.2,0,0.8,0,1.7,0c1,0,1.6,0,1.8-0.1c0.2-0.1,0.3-0.3,0.3-0.8c0-0.3-0.1-0.4-0.3-0.5c-0.2-0.1-0.3-0.1-0.3-0.2
			c0-0.1-0.2-0.1-0.6-0.1c-0.4,0-0.7-0.1-0.9-0.3c-0.2-0.2-0.2-0.3-0.1-0.4c0.1-0.1,0.2-0.2,0.2-0.6c0-0.3,0-0.5-0.1-0.5
			c-0.1-0.1-0.1-0.9-0.1-2.6c0-1.7,0.1-2.5,0.2-2.5c0.1,0,0.3,0.1,0.4,0.2c0.1,0.1,0.3,0.2,0.5,0.3c0.3,0.1,0.4,0.3,0.5,0.4
			c0,0.2,0.3,0.5,0.8,1.1c0.5,0.5,0.9,0.9,1.3,1.1c0.2,0.1,0.3,0.2,0.3,0.3c0,0.1,0.2,0.2,0.5,0.6c0.7,0.7,1.1,1.1,1.1,1.4
			c0,0.1,0.1,0.1,0.3,0.1c0.2,0,0.3,0,0.3,0.1c0,0.1,0.1,0.3,0.4,0.5c0.2,0.2,0.4,0.4,0.4,0.6c0,0.1,0.1,0.3,0.3,0.5
			c0.2,0.2,0.3,0.3,0.4,0.3c0.1,0,0.3,0.2,0.6,0.5c0.3,0.3,0.5,0.5,0.7,0.6c0.1,0.1,0.2,0.1,0.3,0.1c0.4,0,0.6-0.2,0.6-0.6
			c0-0.1,0-0.2,0-0.4c0-0.9-0.1-1.4-0.2-1.6c-0.1-0.1-0.1-0.5-0.1-1.3v-0.4c0-1,0-1.6-0.1-1.6c-0.1-0.1-0.2-0.4-0.2-1
			c0-0.5,0-0.8,0.1-0.8c0.1-0.1,0.2-0.2,0.2-0.5c0-0.3,0-0.4,0.1-0.4c0.1,0,0.1-0.1,0.1-0.4c0-0.3,0-0.4-0.1-0.4
			c-0.1,0-0.1-0.1-0.1-0.4c0-0.4,0.1-0.7,0.2-1c0.2-0.3,0.4-0.5,0.7-0.5c0.2,0,0.4-0.1,0.4-0.1c0.1,0,0.1-0.2,0.1-0.5v-0.2
			C216,782.3,215.9,782,215.7,782z"/>
		<path d="M247.3,785.7c-0.2-0.1-0.2-0.2-0.2-0.5c0-0.3,0-0.5-0.1-0.5c-0.1,0-0.1-0.1-0.1-0.4s-0.1-0.4-0.2-0.4
			c-0.1,0-0.2-0.1-0.3-0.3c-0.1-0.2-0.2-0.3-0.3-0.4c-0.1-0.1-0.2-0.2-0.2-0.4c0-0.2-0.1-0.3-0.4-0.3c-0.7,0-1-0.1-1-0.4
			c0-0.1-0.1-0.2-0.2-0.2c-0.1,0-0.2,0-0.2-0.1c0-0.1-0.1-0.1-0.3-0.1c-0.2,0-0.3-0.1-0.4-0.2c0-0.1-0.5-0.2-1.5-0.2
			c-0.9,0-1.5,0.1-1.6,0.2c-0.1,0.1-0.2,0.2-0.4,0.2c-0.2,0-0.3,0.1-0.4,0.3c-0.1,0.2-0.3,0.4-0.6,0.4c-0.3,0-0.6,0.1-1.1,0.2
			c-0.5,0.1-0.7,0.3-0.8,0.5c0,0.2-0.2,0.4-0.5,0.7c-0.3,0.3-0.4,0.5-0.4,0.5c0,0.1-0.1,0.1-0.2,0.1c-0.1,0-0.2,0.1-0.3,0.4
			c-0.1,0.2-0.2,0.4-0.3,0.7c-0.2,0.3-0.2,0.8-0.2,1.8c0,1.2,0.1,2.1,0.4,2.9c0.5,1.4,0.9,2.2,1.2,2.3c0.2,0,0.3,0.1,0.3,0.3
			c0,0.2,0.2,0.2,0.4,0.2c0.2,0,0.4,0,0.4,0.1c0,0.1,0.1,0.1,0.3,0.1s0.3,0.1,0.3,0.4c0,0.2,0,0.3,0.1,0.4c0.1,0.1,0.2,0,0.4-0.1
			c0.1-0.1,0.2-0.1,0.3,0c0.2,0.1,0.9,0.2,2.2,0.2c1.1,0,1.7-0.1,1.7-0.2c0-0.1,0.3-0.2,0.7-0.2c0.4,0,0.6-0.1,0.6-0.2
			c0-0.2,0.1-0.3,0.2-0.3c0,0,0.2-0.1,0.4-0.3c0.3-0.2,0.4-0.3,0.5-0.3c0.1,0,0.2-0.1,0.2-0.3c0.1-0.2,0.2-0.3,0.3-0.3
			c0.1,0,0.2-0.1,0.3-0.3c0-0.2,0.2-0.3,0.4-0.3c0.2-0.1,0.3-0.1,0.3-0.2c0-0.1,0.1-0.1,0.2-0.1c0.1,0,0.2-0.2,0.2-0.6
			c0-0.3,0-0.5-0.1-0.5c-0.1,0-0.1-0.1,0-0.2c0.1-0.1,0.2-0.8,0.2-2.1c0-0.3,0-0.7,0-1.1C247.6,786,247.5,785.7,247.3,785.7z
			 M245.1,788.8c-0.1,0-0.2,0.2-0.2,0.4c0,0.3-0.1,0.4-0.2,0.5c-0.1,0.1-0.2,0.4-0.3,0.8c-0.1,0.4-0.1,0.6-0.3,0.6
			c-0.1,0-0.2,0-0.2,0.1c0,0.1-0.1,0.2-0.4,0.2c-0.3,0.1-0.4,0.2-0.4,0.3c0,0.1,0,0.2-0.1,0.2c-0.1,0.1-0.2,0.1-0.4,0.2
			c-0.1,0.1-0.2,0.1-0.3,0.1c0,0.1-0.2,0.1-0.4,0.1c-0.2,0-0.3,0.1-0.5,0.2c-0.1,0.1-0.2,0.1-0.4,0.1c-0.2,0-0.4,0-0.7-0.1
			c-0.5-0.1-1-0.3-1.3-0.6c-0.3-0.3-0.7-0.8-1-1.5c-0.3-0.5-0.4-0.9-0.5-1.1c0-0.2-0.1-0.7-0.1-1.4c0-0.7,0-1.1,0.1-1.4
			c0-0.2,0.1-0.5,0.3-0.8c0.3-0.5,0.6-0.9,1-1.3c0.4-0.4,0.8-0.6,1-0.7c0.3,0,0.5-0.1,0.5-0.3c0-0.1,0.1-0.2,0.2-0.2
			c0.1,0,0.2,0,0.2-0.1c0-0.1,0.1-0.1,0.3-0.1c0.2,0,0.3,0,0.3,0.1c0,0.1,0.3,0.1,0.9,0.1c0.5,0,0.8,0.1,0.8,0.2
			c0,0.1,0.1,0.2,0.3,0.3c0.2,0.1,0.3,0.2,0.3,0.3s0.1,0.2,0.3,0.3c0.3,0.1,0.5,0.4,0.5,0.8c0,0.2,0.1,0.5,0.3,0.8
			c0.2,0.3,0.3,0.7,0.3,1.1c0,0.5,0,0.7,0.1,0.8c0.1,0.1,0.1,0.2,0.1,0.4C245.3,788.6,245.2,788.7,245.1,788.8z"/>
		<path d="M265.1,783.9c0-0.3-0.1-0.5-0.2-0.6c-0.1-0.1-0.1-0.2,0-0.4c0.1-0.1,0.1-0.2,0.1-0.2c0-0.1-0.1-0.2-0.2-0.2
			c-0.1-0.1-0.2-0.2-0.2-0.3c0-0.2-0.1-0.3-0.3-0.5c-0.2-0.2-0.4-0.3-0.5-0.3c-0.1,0-0.2,0-0.2,0.1c0,0.1-0.3,0.1-0.9,0.2
			c-0.5,0.1-1.1,0.1-1.7,0.1c-0.6,0-0.9,0-1,0.1c-0.1,0-0.5,0.1-1.4,0.1c-0.9,0.1-1.8,0.2-2.7,0.3c-0.9,0.1-1.4,0.2-1.4,0.2
			c0,0,0,0.1,0,0.2c0,0.1,0,0.2,0.1,0.3c0.1,0.2,0.1,0.3,0.2,0.4c0.1,0,0.3,0.1,0.6,0.1c0.5,0,0.9,0.1,1,0.3
			c0.1,0.2,0.2,0.7,0.2,1.6c0,0.9-0.1,1.4-0.2,1.5c-0.1,0.1-0.1,0.2,0,0.4c0.1,0.3,0.2,0.5,0,0.7c-0.1,0.2-0.2,0.3-0.3,0.3
			c-0.1,0,0,0.1,0.1,0.2c0.1,0.1,0.1,0.3,0.1,0.6c0,0.1,0,0.4-0.1,0.8c-0.1,1.4-0.2,2.3-0.2,2.6c-0.1,0.4-0.1,0.5-0.3,0.6
			c-0.2,0.1-0.5,0.3-0.8,0.6l-0.5,0.6h5v-0.5c0-0.2,0-0.4-0.1-0.4c0-0.1-0.1-0.1-0.3-0.1c-0.2,0-0.4,0-0.4-0.1
			c0-0.1-0.1-0.1-0.2-0.1c-0.1,0-0.2-0.1-0.3-0.3c0-0.1,0-0.4,0-1.2c0-1.2,0-2.1,0.1-2.8c0-0.1,0.5-0.1,1.4-0.1
			c0.8,0,1.3,0.1,1.5,0.2c0.3,0.1,0.4,0.4,0.4,0.9c0,0.3,0,0.5,0.1,0.5c0.1,0,0.1-0.1,0.3-0.2c0.1-0.1,0.3-0.2,0.5-0.1
			c0.2,0.1,0.3,0,0.3-0.2c0-0.2,0-0.3,0.1-0.4c0.1-0.1,0.1-0.2,0-0.2s-0.2-0.3-0.2-0.6c0-0.4,0.1-0.7,0.2-0.8
			c0.1-0.1,0.1-0.1,0.1-0.2c0-0.1,0-0.1-0.1-0.2c-0.1-0.1-0.1-0.2-0.1-0.2c0-0.1,0-0.1,0.1-0.2c0.2-0.1,0.2-0.2,0.2-0.4
			c0-0.3-0.4-0.4-1.1-0.4c-0.4,0-0.6,0.2-0.6,0.5c0,0.1,0,0.2,0.1,0.3c0.1,0.2,0,0.4,0,0.5c-0.1,0.1-0.4,0.2-1,0.3
			c-0.6,0.1-1.1,0.2-1.6,0.2h-0.5v-0.6c0-0.4,0.1-0.6,0.2-0.7c0.1-0.1,0.2-0.2,0.2-0.4c0-0.3-0.1-0.5-0.2-0.8
			c-0.1-0.2-0.2-0.4-0.2-0.4c0-0.1,0.1-0.1,0.2-0.3c0.2-0.2,0.3-0.4,0.2-0.6c0-0.1,0-0.1,0-0.2c0-0.1,0.1-0.2,0.4-0.3
			c0.3-0.1,0.8-0.1,1.6-0.1c0.7,0,1.1-0.1,1.1-0.1c0.3,0,0.5,0.1,0.7,0.2c0.2,0.2,0.3,0.3,0.5,0.4c0.2,0.1,0.3,0.2,0.3,0.3
			c0,0.1,0.1,0.3,0.3,0.4c0.2,0.1,0.4,0.3,0.5,0.6c0.1,0.4,0.4,0.5,0.8,0.5c0.1,0,0.2,0,0.3-0.1c0.1-0.1,0.2-0.2,0.2-0.6
			c0-0.3-0.1-0.5-0.2-0.5C265.2,784.4,265.1,784.2,265.1,783.9z"/>
		<path d="M300.7,782.4c-0.1,0-0.3,0-0.5,0c-0.2,0-0.4,0-0.4,0c-0.4,0-0.6,0-0.7,0.1c-0.1,0-0.3,0.1-0.4,0.3
			c-0.2,0.2-0.3,0.3-0.3,0.4c0,0.1,0,0.1,0.2,0.2c0.3,0.2,0.5,0.2,0.7,0.2c0.3,0,0.4,0.1,0.5,0.3c0.1,0.2,0,0.3-0.1,0.4
			c-0.1,0-0.2,0.2-0.2,0.6c0,0.4-0.1,0.6-0.2,0.6c-0.2,0.1-0.2,0.2-0.2,0.4v0.4c0,0.6-0.1,0.9-0.3,0.9c-0.1,0-0.2,0.1-0.3,0.3
			c0,0.2-0.1,0.7-0.3,1.5c-0.1,0.4-0.2,0.6-0.4,0.6c-0.1,0-0.2,0.1-0.2,0.2c0,0.1,0,0.2-0.2,0.2c-0.3,0-0.4-0.1-0.5-0.2
			c-0.1-0.2-0.2-0.5-0.3-0.9c-0.1-0.4-0.2-1-0.2-1.7c-0.1-0.5-0.2-0.8-0.3-0.9c-0.1-0.1-0.1-0.4-0.1-0.7c0-0.3,0-0.5-0.1-0.5
			c-0.1,0-0.1-0.1-0.1-0.4c0-0.2-0.1-0.4-0.2-0.5c-0.1-0.1-0.2-0.1-0.2-0.2c0-0.1,0.2-0.2,0.6-0.2c0.4,0,0.7-0.1,0.9-0.3
			c0.1-0.1,0.2-0.2,0.2-0.3c0-0.1,0-0.2-0.1-0.4c-0.1-0.2-0.3-0.4-0.6-0.5c-0.3-0.1-0.8-0.1-1.6-0.1c-0.6,0-1-0.1-1-0.3
			c-0.1-0.2-0.1-0.3-0.2-0.3c-0.1,0-0.2,0.1-0.5,0.3c-0.3,0.2-0.4,0.3-0.5,0.3c-0.3,0-0.5,0.2-0.6,0.6v0.1l0,0.1
			c0,0.3,0.3,0.6,0.9,0.7c0.1,0,0.3,0.1,0.4,0.1c0.1,0.1,0.1,0.2,0.1,0.2c0,0.1-0.1,0.1-0.2,0.1c-0.1,0-0.1,0.2-0.1,0.6
			c0,0.4-0.1,0.6-0.2,0.6c-0.1,0-0.1,0.2-0.1,0.5c0,0.7-0.2,1.1-0.5,1.2c-0.1,0-0.2,0.1-0.3,0.3c-0.1,0.2-0.1,0.7-0.3,1.5
			c-0.1,0.4-0.2,0.6-0.4,0.6c-0.2,0-0.2,0.1-0.2,0.2c0,0.1,0,0.2-0.2,0.2c-0.3,0-0.5-0.1-0.6-0.2c-0.1-0.2-0.2-0.5-0.2-0.9
			c0-0.6-0.1-0.9-0.2-1c-0.1-0.1-0.1-0.3-0.1-0.6c0-0.4-0.1-0.7-0.2-0.9c-0.1-0.3-0.2-0.5-0.1-0.8c0-0.3,0-0.5-0.1-0.5
			c-0.1,0-0.2-0.1-0.2-0.4c0-0.2-0.1-0.4-0.2-0.5c-0.1-0.1-0.2-0.1-0.2-0.2c0-0.1,0.2-0.2,0.6-0.2c0.4,0,0.7-0.1,0.9-0.3
			c0.1-0.1,0.2-0.2,0.2-0.3c0-0.1-0.1-0.2-0.2-0.4c-0.1-0.2-0.2-0.3-0.4-0.4c-0.2-0.1-0.5-0.1-0.9-0.1c-0.1,0-0.2,0-0.4,0
			c-0.2,0-0.4,0-0.5,0h-0.4c-0.3,0-0.4,0-0.5-0.1c-0.1,0-0.1-0.1-0.2-0.3c-0.1-0.2-0.1-0.4-0.3-0.4c-0.1,0-0.2,0.1-0.5,0.3
			c-0.2,0.2-0.4,0.3-0.5,0.3c-0.1,0-0.3,0.1-0.4,0.2c-0.1,0.1-0.2,0.3-0.2,0.4c0,0.4,0.3,0.7,0.9,0.8c0.5,0.1,0.9,0.6,1,1.6
			c0.1,0.4,0.2,0.6,0.3,0.8c0.1,0.1,0.2,0.4,0.2,0.7c0,0.3,0.1,0.5,0.2,0.6c0.4,0.4,0.5,1.1,0.5,1.9c0,0.4,0,0.6,0.1,0.7
			c0.1,0.1,0.1,0.2,0.1,0.4c0,0.2,0,0.3,0.1,0.4c0.1,0.1,0.2,0.3,0.2,0.8c0,0.4,0.1,0.6,0.2,0.6c0.1,0,0.2,0.2,0.2,0.5
			c0,0.3,0.1,0.5,0.2,0.5c0.1,0,0.2,0.1,0.3,0.4c0.1,0.3,0.3,0.5,0.6,0.5c0.1,0,0.3-0.1,0.4-0.2c0.1-0.1,0.2-0.3,0.2-0.4
			c0-0.3,0-0.4,0.1-0.4c0.1,0,0.2-0.1,0.2-0.4c0-0.3,0-0.5,0.1-0.5c0.1,0,0.2-0.2,0.2-0.5c0-0.3,0.1-0.6,0.3-0.9
			c0.2-0.3,0.4-0.5,0.6-0.6c0.2-0.1,0.3-0.3,0.3-0.6c0-0.4,0.1-0.6,0.2-0.6c0.1,0,0.2-0.2,0.2-0.5c0-0.3,0.1-0.6,0.2-0.8
			c0.1-0.2,0.2-0.4,0.1-0.5c-0.1-0.2,0.1-0.3,0.4-0.4c0.3-0.1,0.4-0.2,0.5-0.3c0.1,0,0.1,0.1,0.1,0.4c0,0.4,0.1,0.6,0.2,0.8
			c0.4,0.5,0.6,1.1,0.6,1.9c0,0.4,0,0.6,0.1,0.6c0.1,0,0.1,0.1,0.1,0.4c-0.1,0.2,0,0.4,0.1,0.5c0.1,0.1,0.2,0.3,0.2,0.8
			c0,0.4,0.1,0.6,0.2,0.6c0.2,0,0.2,0.2,0.2,0.5c0,0.3,0.1,0.5,0.2,0.5c0.1,0,0.2,0.1,0.3,0.4c0.1,0.3,0.3,0.5,0.6,0.5
			c0.1,0,0.3-0.1,0.4-0.2c0.1-0.1,0.2-0.3,0.2-0.4c0-0.3,0.1-0.4,0.2-0.4c0.1,0,0.1-0.1,0.1-0.4c0-0.3,0-0.5,0.1-0.5
			c0.1,0,0.2-0.2,0.2-0.5c0-0.3,0.1-0.6,0.3-1c0.2-0.4,0.4-0.6,0.5-0.6c0.1,0,0.2-0.2,0.2-0.6c0-0.5,0.1-0.7,0.2-0.7
			c0.1,0,0.2-0.2,0.2-0.5s0.1-0.6,0.2-0.8c0.1-0.2,0.2-0.4,0.2-0.6c0-0.1,0.1-0.2,0.4-0.3c0.3-0.1,0.4-0.2,0.4-0.3
			c0-0.1,0-0.1,0-0.2c0-0.1,0-0.1,0-0.2c0-0.6,0.1-0.9,0.3-0.9c0.1,0,0.1-0.1,0.2-0.4c0-0.3,0.1-0.4,0.2-0.4c0.1,0,0.2-0.1,0.2-0.2
			c0-0.1,0.1-0.2,0.4-0.2c0.3,0,0.5-0.1,0.6-0.2c0.1-0.1,0.2-0.3,0.2-0.6l0-0.4L300.7,782.4z"/>
		<path d="M323,792.9c-0.1,0-0.1-0.1-0.2-0.4c-0.1-0.2-0.1-0.3-0.2-0.3c0,0-0.3,0.1-0.8,0.2c0,0-0.1,0-0.2,0c-0.4,0-0.7-0.6-1-1.7
			c-0.2-0.8-0.4-1.3-0.4-1.4c-0.1-0.1-0.2-0.3-0.2-0.5c-0.1-0.4-0.3-1.3-0.8-2.8c-0.5-1.5-0.7-2.4-0.8-2.7c-0.2-1-0.4-1.5-0.5-1.7
			c-0.1-0.2-0.2-0.3-0.4-0.3c-0.3-0.1-0.4,0-0.5,0.1c-0.1,0.1-0.2,0.2-0.4,0.2c-0.2,0-0.4,0.1-0.4,0.2c0,0.1-0.1,0.1-0.2,0.1
			c-0.1,0-0.2,0.2-0.4,0.6c-0.2,0.4-0.3,0.8-0.5,1.2c-0.1,0.4-0.2,0.6-0.3,0.7c-0.1,0.1-0.1,0.2-0.1,0.4c0,0.2-0.1,0.6-0.4,1.2
			c-0.3,0.6-0.5,1.1-0.5,1.5c-0.1,0.4-0.2,0.6-0.2,0.7c-0.1,0.1-0.2,0.3-0.4,0.8c-0.2,0.5-0.3,0.7-0.3,0.8c-0.1,0.2-0.2,0.4-0.2,0.5
			c0,0.2,0,0.2-0.1,0.2c-0.1,0-0.2,0.1-0.3,0.4c-0.1,0.2-0.2,0.4-0.2,0.6c0,0.1-0.2,0.3-0.5,0.6c-0.3,0.3-0.5,0.4-0.7,0.4
			c-0.2,0-0.3,0.1-0.5,0.4c-0.2,0.2-0.4,0.4-0.5,0.4c-0.1,0-0.2,0.1-0.4,0.4c-0.1,0.2-0.1,0.3-0.1,0.4c0,0.1,0.1,0.3,0.4,0.5
			l0.5,0.4l2-0.1c1.1,0,1.8-0.1,2.1-0.1c0.3,0,0.5-0.1,0.5-0.2c0,0,0-0.1-0.1-0.2c-0.1-0.2-0.1-0.3,0.1-0.3c0.1,0,0.2-0.1,0.2-0.2
			c0-0.1-0.1-0.2-0.2-0.2c-0.1,0-0.3-0.1-0.4-0.2c-0.1-0.1-0.4-0.2-0.7-0.3c-0.5-0.1-0.7-0.3-0.7-0.5c0-0.1,0-0.2,0.1-0.3
			c0.1-0.2,0.2-0.3,0.2-0.5c0-0.1,0-0.2,0.1-0.2c0.1,0,0.1-0.2,0.1-0.7v-0.7h0.6c0.4,0,0.7-0.1,0.7-0.2c0.1-0.2,0.6-0.2,1.5-0.2h0.4
			c0.7,0,1,0,1.1,0.1c0.1,0.1,0.2,0.4,0.2,0.8c0,0.5,0.1,0.8,0.3,0.9c0.2,0.2,0.3,0.4,0.3,0.6c0,0,0,0,0,0.1c0,0,0,0.1,0,0.1
			c0,0.3-0.1,0.4-0.1,0.5c-0.1,0.1-0.3,0.1-0.6,0.2c-0.5,0.1-0.7,0.2-0.8,0.3c0,0.1-0.1,0.1-0.3,0.1c-0.2,0-0.3,0.1-0.3,0.3
			c0,0.3,0,0.4,0.1,0.5c0.1,0.1,0.3,0.1,0.6,0.1c0.3,0,0.7,0,1.3-0.1c0.6-0.1,1.3-0.1,2-0.1c0.4,0,0.7,0,0.8,0c0.2,0,0.4,0,0.6,0
			c0.3,0,0.5-0.1,0.5-0.3c0.1-0.2,0.1-0.3,0.2-0.3c0.1,0,0.1-0.2,0.1-0.5C323.1,793.1,323.1,792.9,323,792.9z M316.8,788.4
			c0,0-0.1,0-0.2,0c-0.1,0-0.1,0-0.1,0c-0.3,0-0.5,0.1-0.6,0.2c-0.1,0.1-0.3,0.2-0.4,0.2c-0.2,0-0.3-0.1-0.4-0.2
			c-0.1-0.1-0.2-0.2-0.3-0.2c-0.1,0-0.2-0.1-0.2-0.2c0-0.1,0-0.2,0.1-0.2c0.1,0,0.2-0.1,0.3-0.4c0.1-0.3,0.2-0.5,0.2-0.7
			c0-0.2,0.1-0.3,0.2-0.4c0.1,0,0.2-0.3,0.2-0.8c0.1-0.6,0.3-0.9,0.6-0.9c0.2,0,0.3,0.1,0.5,0.2c0.1,0.1,0.2,0.2,0.4,0.5
			c0.1,0.3,0.2,0.4,0.2,0.5c0,0-0.1,0.1-0.3,0.1c-0.2,0-0.3,0.1-0.4,0.2c-0.1,0.1,0,0.2,0.1,0.2c0.1,0,0.2,0.1,0.2,0.2
			c0.1,0.1,0.2,0.3,0.2,0.4c0.1,0.2,0.1,0.2,0.2,0.3c0.1,0.1,0.1,0.3,0.2,0.6l0.1,0.5L316.8,788.4z"/>
		<path d="M343.1,782c-0.1,0-0.2,0-0.3,0.1c-0.2,0.1-0.3,0.1-0.3,0.1c-0.1,0-0.1-0.1-0.2-0.2c-0.1-0.2-0.3-0.3-0.4-0.3
			c-0.1,0-0.2-0.1-0.2-0.3c0-0.2-0.1-0.3-0.3-0.3c-0.2,0-0.3,0.1-0.3,0.3c0,0.2,0.1,0.3,0.2,0.3s0.2,0.1,0.2,0.3
			c0,0.2-0.1,0.3-0.2,0.3c-0.2,0-0.3-0.1-0.3-0.4c-0.1-0.2-0.2-0.4-0.3-0.4c-0.1,0-0.1,0-0.2,0.1c-0.2,0.2-0.2,0.3,0,0.3
			c0.1,0,0.2,0.1,0.2,0.1c0,0.1-0.1,0.2-0.4,0.2c-0.2,0-0.4,0-0.4-0.1c0-0.1-0.1-0.1-0.4-0.1c-0.4,0-0.8,0.1-1.1,0.2
			c-0.4,0.2-0.6,0.4-0.6,0.7c0,0.3,0.3,0.5,0.8,0.6c0.4,0.1,0.6,0.1,0.6,0.2c0,0.1,0.1,0.1,0.3,0.1c0.3,0,0.5,0.2,0.6,0.6
			c0.1,0.4,0.2,1.2,0.2,2.4c0,1.4,0.1,2.2,0.1,2.4c0.1,0.1,0,0.3,0,0.6l-0.1,0.4l-0.5-0.5c-0.4-0.3-0.5-0.5-0.5-0.6
			c0-0.1-0.1-0.2-0.2-0.3c-0.1-0.1-0.3-0.2-0.4-0.4c-0.2-0.1-0.3-0.2-0.3-0.2c-0.1-0.1-0.3-0.2-0.3-0.2c-0.1,0-0.2-0.1-0.2-0.2
			c0-0.1-0.1-0.2-0.2-0.3c-0.1-0.1-0.3-0.2-0.4-0.2s-0.1-0.1-0.1-0.2c0-0.1-0.1-0.2-0.2-0.2c-0.1,0-0.1,0-0.1-0.1
			c0-0.1-0.1-0.2-0.4-0.5c-0.2-0.3-0.4-0.4-0.4-0.5c0-0.1-0.1-0.2-0.3-0.2c-0.2,0-0.3-0.1-0.5-0.2c-0.2-0.1-0.2-0.3-0.2-0.4
			c0-0.1-0.2-0.3-0.5-0.7c-0.3-0.4-0.5-0.6-0.5-0.7c0-0.1-0.1-0.2-0.3-0.4c-0.2-0.2-0.3-0.4-0.3-0.4c0-0.3-0.6-0.5-1.8-0.6
			c-0.6,0-0.9-0.1-0.9-0.1c-0.3,0-0.4,0.1-0.4,0.2c0,0.1,0,0.2,0,0.4c0,0.2,0,0.4,0.1,0.6c0.1,0.2,0.1,0.3,0.2,0.3
			c0.1,0,0.2,0.2,0.3,0.6c0.1,0.4,0.2,0.6,0.2,0.6c0.1,0,0.1,0.3,0.1,0.8c0,0.5,0,0.8-0.1,0.8c-0.1,0-0.1,0.1-0.1,0.4
			c0,0.2,0.1,0.6,0.2,1c0.1,0.2,0.1,0.6,0.1,1.1c0,0.7-0.1,1.1-0.2,1.1c-0.1,0-0.1,0.2-0.1,0.7c0,0.5,0,1.1-0.1,1.5
			c0,0.4-0.1,0.6-0.1,0.7c-0.1,0.1-0.2,0.2-0.4,0.2c-0.3,0.1-0.4,0.2-0.4,0.4c0,0.2,0.1,0.4,0.4,0.6c0.2,0.2,0.3,0.3,0.5,0.3
			c0.2,0,0.8,0,1.7,0c1,0,1.6,0,1.8-0.1c0.2-0.1,0.3-0.3,0.3-0.8c0-0.3-0.1-0.4-0.3-0.5c-0.2-0.1-0.3-0.1-0.3-0.2
			c0-0.1-0.2-0.1-0.6-0.1c-0.4,0-0.7-0.1-0.9-0.3c-0.2-0.2-0.2-0.3-0.1-0.4c0.1-0.1,0.2-0.2,0.2-0.6c0-0.3,0-0.5-0.1-0.5
			c-0.1-0.1-0.1-0.9-0.1-2.6c0-1.7,0.1-2.5,0.2-2.5c0.1,0,0.3,0.1,0.4,0.2c0.1,0.1,0.3,0.2,0.5,0.3c0.3,0.1,0.4,0.3,0.5,0.4
			c0,0.2,0.3,0.5,0.8,1.1c0.5,0.5,0.9,0.9,1.3,1.1c0.2,0.1,0.3,0.2,0.3,0.3c0,0.1,0.2,0.2,0.5,0.6c0.7,0.7,1.1,1.1,1.1,1.4
			c0,0.1,0.1,0.1,0.3,0.1c0.2,0,0.3,0,0.3,0.1c0,0.1,0.1,0.3,0.4,0.5c0.2,0.2,0.4,0.4,0.4,0.6c0,0.1,0.1,0.3,0.3,0.5
			c0.2,0.2,0.3,0.3,0.4,0.3c0.1,0,0.3,0.2,0.6,0.5c0.3,0.3,0.5,0.5,0.7,0.6c0.1,0.1,0.2,0.1,0.3,0.1c0.4,0,0.6-0.2,0.6-0.6
			c0-0.1,0-0.2,0-0.4c0-0.9-0.1-1.4-0.2-1.6c-0.1-0.1-0.1-0.5-0.1-1.3v-0.4c0-1,0-1.6-0.1-1.6c-0.1-0.1-0.2-0.4-0.2-1
			c0-0.5,0-0.8,0.1-0.8c0.1-0.1,0.2-0.2,0.2-0.5c0-0.3,0-0.4,0.1-0.4c0.1,0,0.1-0.1,0.1-0.4c0-0.3,0-0.4-0.1-0.4
			c-0.1,0-0.1-0.1-0.1-0.4c0-0.4,0.1-0.7,0.2-1c0.2-0.3,0.4-0.5,0.7-0.5c0.2,0,0.4-0.1,0.4-0.1c0.1,0,0.1-0.2,0.1-0.5v-0.2
			C343.5,782.3,343.3,782,343.1,782z"/>
		<path d="M362.7,785.5c0-0.2-0.1-0.3-0.2-0.5c-0.2-0.2-0.3-0.3-0.4-0.3c-0.1,0-0.2-0.1-0.2-0.2c0-0.1-0.1-0.3-0.3-0.6
			c-0.2-0.2-0.3-0.3-0.4-0.3c-0.1,0-0.2-0.1-0.2-0.2c0-0.1-0.1-0.2-0.3-0.3c-0.2-0.1-0.3-0.1-0.3-0.2c0-0.1-0.1-0.1-0.4-0.1
			c-0.2,0-0.3-0.1-0.6-0.2c-0.2-0.1-0.4-0.2-0.5-0.2c-0.2,0-0.3,0-0.3-0.1c0-0.1-0.1-0.1-0.4-0.1c-0.2,0-0.3,0-0.4-0.1
			c-0.1-0.1-0.2-0.1-0.2-0.1c-0.1,0-0.2,0-0.4,0.1c-0.3,0.1-0.6,0.2-1,0.2c-0.2,0-0.4,0-0.4-0.1c-0.1,0-0.1-0.1-0.1-0.2
			c0-0.2-0.1-0.3-0.2-0.3c-0.1,0-0.2,0-0.3,0.2c-0.1,0.1-0.1,0.1-0.2,0c-0.2-0.3-0.3-0.2-0.4,0.1c-0.1,0.2-0.2,0.3-0.4,0.2
			c-0.2-0.1-0.5-0.2-1-0.2c-0.4,0-0.7-0.1-0.8-0.2c0-0.1-0.1-0.1-0.3,0.1c-0.2,0.1-0.3,0.1-0.3,0c-0.1-0.1-0.2-0.2-0.5-0.2
			c-0.2,0-0.4,0-0.4,0.1c0,0.1-0.1,0.1-0.3,0.1c-0.1,0-0.2,0-0.2,0.1c0,0.1-0.1,0.3-0.1,0.5c0,0.3,0,0.5,0.1,0.6
			c0,0.1,0.2,0.2,0.3,0.3c0.2,0.1,0.3,0.1,0.4,0.1c0,0,0.1,0,0.1,0s0.1,0,0.1,0c0.1,0,0.2,0,0.3,0.1c0.2,0.1,0.4,0.4,0.4,0.8
			c0,0.4,0,0.6-0.1,0.6c-0.1,0-0.1,0.3-0.1,0.9c0,0.6,0,0.8,0.1,0.8c0.1,0,0.1,0.1,0.1,0.4c0,0.2,0,0.4-0.1,0.5
			c-0.1,0.1-0.1,1-0.2,2.8l-0.1,2.7l-0.5,0c-0.4,0-0.6,0.2-0.8,0.4c-0.2,0.2-0.3,0.4-0.3,0.5c0,0.1,0.1,0.2,0.4,0.4
			c0.3,0.2,0.5,0.2,0.7,0.2c0.1,0,0.2,0,0.2-0.1c0-0.1,0.3-0.1,0.8-0.1c0.5,0,0.8,0,0.8,0.1c0,0.1,0.9,0.2,2.6,0.2
			c1.1,0,1.7,0,1.8-0.1c0.1-0.1,0.4-0.2,0.7-0.2c0.4-0.1,0.8-0.2,1.3-0.5c0.5-0.2,0.8-0.4,1-0.4c0.2,0,0.3-0.1,0.4-0.4
			c0.1-0.3,0.3-0.6,0.7-1.1c0.4-0.4,0.6-0.7,0.6-0.8c0-0.1,0-0.2,0.1-0.2c0.1,0,0.1-0.1,0.1-0.3c0-0.2,0.1-0.4,0.2-0.5
			c0.1-0.1,0.1-0.8,0.1-2c0-1.4-0.1-2.1-0.2-2.2C362.7,785.8,362.7,785.7,362.7,785.5z M360.5,789.7c-0.1,0.1-0.2,0.2-0.2,0.5
			c0,0.3-0.1,0.4-0.2,0.6c-0.3,0.3-0.5,0.6-0.6,1c-0.1,0.2-0.1,0.2-0.2,0.2c-0.1,0-0.3,0.2-0.7,0.5c-0.4,0.3-0.7,0.5-0.9,0.5
			c-0.2,0-0.3,0.1-0.4,0.2c-0.1,0.1-0.1,0.1-0.2,0c-0.1-0.1-0.1-0.2-0.3-0.2s-0.2,0.1-0.3,0.2c0,0.1-0.3,0.1-0.9,0.1
			c-0.6,0-1.1,0-1.6,0c-0.2,0-0.2-0.1-0.2-0.4c0-0.2-0.1-0.4-0.2-0.4s-0.2,0-0.2-0.1c0-0.1,0.1-0.1,0.2-0.2c0.1-0.1,0.2-0.2,0.2-0.3
			c0-0.1,0.1-0.2,0.2-0.2c0.1,0,0.1-0.1,0.2-0.4c0.1-0.2,0.1-0.5,0.1-0.8c0-0.1,0-0.3-0.1-0.5c0,0,0,0,0-0.1s0-0.1,0-0.1
			c0-0.2,0.1-0.4,0.2-0.6l0.2-0.4c0,0-0.1-0.1-0.2-0.1c-0.1,0-0.2-0.3-0.2-0.8c0-0.5,0-1,0-1.5c0-1.4,0.1-2.2,0.1-2.4
			c0-0.3,0.1-0.5,0.4-0.8c0.2-0.2,0.4-0.3,0.6-0.3c0.1,0,0.2,0,0.3,0c0.1,0,0.3,0,0.7,0.1c0.4,0,0.7,0.1,1,0.1
			c0.3,0.1,0.4,0.1,0.5,0.2c0.1,0.1,0.2,0.2,0.4,0.2c0.2,0,0.4,0.1,0.4,0.3c0.1,0.2,0.2,0.3,0.3,0.3c0.2,0,0.2,0,0.2,0.1
			c0,0.1,0.1,0.2,0.3,0.2c0.2,0.1,0.3,0.2,0.3,0.3c0,0.1,0.1,0.3,0.2,0.4c0.1,0.1,0.2,0.4,0.3,0.9c0,0.4,0.1,0.7,0.2,0.8
			c0.1,0.1,0.1,0.5,0.1,1.3S360.6,789.7,360.5,789.7z"/>
		<path d="M372.5,788.7c0-0.1,0-0.2-0.1-0.2c-0.1,0-0.1,0-0.1,0.1l0.1,0.2C372.4,789,372.5,788.9,372.5,788.7z"/>
		<path d="M378.3,789.5c0-0.6-0.1-0.9-0.2-1.1c-0.1-0.2-0.3-0.4-0.6-0.5c-0.3-0.1-0.5-0.3-0.5-0.4c-0.1-0.1-0.3-0.3-0.9-0.6
			c-0.5-0.3-1-0.5-1.3-0.6c-0.2-0.1-0.5-0.2-0.9-0.5c-0.4-0.3-0.6-0.4-0.6-0.5c0-0.1-0.1-0.2-0.2-0.3c-0.2-0.1-0.2-0.2-0.2-0.3
			c0,0,0-0.1,0-0.1c0.1-0.1,0.1-0.2,0.1-0.3c0-0.1,0-0.3-0.1-0.6c0-0.1,0-0.2,0-0.2c0,0,0.2-0.1,0.3-0.1c0.3,0,0.4-0.1,0.4-0.2
			c0-0.1,0.1-0.2,0.4-0.4c0.3-0.2,0.4-0.3,0.4-0.3c0-0.1,0.1-0.1,0.4-0.2c0.1,0,0.1,0,0.2,0c0.4,0,0.8,0.2,1.2,0.5
			c0.5,0.3,0.7,0.6,0.7,0.9c0,0.2,0.1,0.4,0.3,0.5c0.2,0.1,0.3,0.3,0.3,0.4c0,0.1,0.1,0.3,0.2,0.5s0.3,0.3,0.4,0.3c0,0,0,0,0.1,0
			c0.1-0.1,0.1-0.7,0.2-2v-0.8c0-0.6-0.1-0.9-0.2-0.9c-0.1,0-0.1,0-0.1,0c-0.3,0.1-0.6,0.2-0.8,0.2c-0.3,0-0.6-0.1-1-0.3
			c-0.4-0.2-0.6-0.3-0.7-0.3c0,0-0.1,0-0.2,0.1c-0.3,0.1-0.6,0.1-0.8,0.1c-0.3,0-0.4,0-0.5,0.1c0,0.1-0.1,0.2-0.3,0.2
			c-0.2,0-0.4-0.1-0.5-0.2c-0.1-0.1-0.3-0.2-0.5-0.2h0c-0.1,0-0.1,0-0.1,0c-0.1,0-0.1,0-0.1,0c0,0,0.1,0,0.1,0
			c0.1,0.1,0.2,0.1,0.2,0.2c0,0.2-0.2,0.3-0.5,0.4c-0.3,0.1-0.4,0.2-0.4,0.4c0.1,0.2,0,0.3-0.2,0.4c-0.3,0.1-0.6,0.5-1.1,1.1
			c-0.1,0.2-0.2,0.4-0.2,0.6c0,0,0,0.3,0.1,0.8c0.1,0.7,0.3,1.1,0.4,1.3c0.1,0.2,0.4,0.4,0.7,0.7c0.4,0.3,0.6,0.4,0.8,0.4
			c0.1,0,0.3,0.1,0.6,0.4c0.4,0.3,0.9,0.6,1.7,0.8c0.5,0.1,0.8,0.3,1.1,0.6c0.2,0.2,0.3,0.4,0.5,0.7s0.2,0.5,0.2,0.7
			c0,0.1,0,0.1-0.1,0.2c-0.1,0-0.1,0.2-0.1,0.4c0.1,0.2,0,0.4-0.2,0.6c-0.1,0.1-0.2,0.3-0.2,0.4c0,0.2-0.5,0.4-1.4,0.5
			c-0.1,0-0.3,0-0.6,0c-0.9,0-1.7-0.4-2.2-1.2c-0.3-0.4-0.5-0.8-0.5-1c0,0,0-0.1,0-0.2c0-0.1,0-0.2,0-0.2s-0.1-0.1-0.1-0.1
			c-0.1,0-0.1,0-0.1-0.1c0.1-0.3-0.1-0.5-0.4-0.6c-0.1,0-0.2-0.1-0.3-0.1c-0.3,0-0.4,0.2-0.5,0.5c-0.1,1.2-0.1,1.9-0.2,1.9
			c-0.1,0.1-0.1,0.4-0.2,0.8c0,0.1,0,0.3,0,0.4c0,0.2,0.1,0.4,0.3,0.6c0.1,0.1,0.2,0.2,0.3,0.2c0,0,0.1,0,0.2-0.2
			c0.1-0.2,0.2-0.3,0.2-0.4c0-0.3,0.2-0.3,0.5-0.1c0.9,0.5,1.8,0.7,2.9,0.7c0.5,0,1.1-0.1,1.6-0.2c0.6-0.1,1.1-0.3,1.4-0.6
			c0.3-0.3,0.5-0.5,0.5-0.5c0-0.1,0.1-0.2,0.2-0.3c0.2-0.1,0.3-0.4,0.3-0.9c0.1-0.5,0.1-0.7,0.2-0.7s0.1,0,0-0.1
			C378.4,790.6,378.4,790.2,378.3,789.5z M374,788C373.9,788,373.9,787.9,374,788c-0.1-0.1-0.1-0.1,0-0.1S374,787.9,374,788
			C374,787.9,374,788,374,788z"/>
		<polygon points="51.7,807.5 44,812.7 41.2,798.7 38.4,812.7 30.7,807.5 35.9,815.3 21.8,818 35.9,820.8 30.7,828.5 38.4,823.3 
			41.2,837.4 43.9,823.4 51.7,828.5 46.5,820.8 60.5,818 46.5,815.3 		"/>
		<polygon points="468.1,815.3 473.3,807.5 465.5,812.7 462.8,798.7 460,812.7 452.3,807.5 457.5,815.3 443.4,818 457.5,820.8 
			452.3,828.5 460,823.3 462.8,837.4 465.5,823.4 473.3,828.5 468.1,820.8 482.1,818 		"/>
		<polygon points="30.7,56.3 38.4,51.1 41.2,65.1 44,51.1 51.7,56.3 46.5,48.5 60.5,45.8 46.5,43 51.7,35.3 43.9,40.4 41.2,26.4 
			38.4,40.5 30.7,35.3 35.9,43 21.8,45.8 35.9,48.5 		"/>
		<polygon points="473.3,35.3 465.5,40.4 462.8,26.4 460,40.5 452.3,35.3 457.5,43 443.4,45.8 457.5,48.5 452.3,56.3 460,51.1 
			462.8,65.1 465.5,51.1 473.3,56.3 468.1,48.5 482.1,45.8 468.1,43 		"/>
		<path d="M106.7,310.3c4.7,3.5,10.5,5.6,16.4,6c4.2,0.3,10.8-2.5,14.4-0.5c5.4,3,8.2,10.4,9.8,15.9c0,0.1,0.1,0.2,0.1,0.3
			c0.3,1.8,0.8,3.6,1.4,5.4c0.5,1.5,2.2,4.5,4.1,7.4l1.3-1.4c-0.6-0.9-1.3-2-2.1-3.3c-1.9-3.2-3.3-8.5-3.4-13.1
			c0.7-0.2,1.5-0.4,2.2-0.6c1-0.4,2-1,2.5-1.9c0.3-0.6,0.4-1.3,0.5-1.9c0.4-2.2,0.7-4.3,1.1-6.5c-1.7,1.3-3.4,2.6-4.6,4.4
			c-1.1,1.7-1.6,3.8-1.7,6c0.1-4-0.8-7.9-2.2-11.7c1.2-0.2,1.8-3.4,2.2-4.2c0.7-1.5,1.6-2.9,2.5-4.2c0.8-1.1,1.7-2,2.5-3
			c0.8-1,1.5-2.2,2.6-3c2-1.5,4-3.5,6.4-4.4c2.2-0.8,4.4-2.5,6.7-2.8c1.9-0.3,3.8-1,5.7-1.7c1.6-0.6,3.2-1.2,4.7-2
			c4.5-2.6,5.1-6.8,7.5-11c2.9-5,5.5-10.2,6.9-15.8c-3.2,2-7.3,1.8-10.8,3.3c-1.7-0.3-5.6,3.8-6.8,4.9c-2.6,2.1-4.6,5.1-6.8,7.7
			c-0.6,0.7-1.2,1.4-1.6,2.3c-0.4,0.8-0.5,1.6-0.7,2.5c-0.3,1.5-0.2,3.2-0.6,4.7c-0.4,1.2-0.8,2.1-1.1,3.3c0,0.3-0.1,0.5-0.3,0.8
			c-0.1,0.2-0.4,0.3-0.6,0.4c-2.1,1.1-4.7,2.3-6.5,3.7c-2.1,1.6-4,3.3-5.8,5.3c-0.3,0.3-0.7,0.7-1,1c0.2-0.6,0.4-1.2,0.6-1.8
			c0.6-1.2,1.4-2.4,2-3.5c1.6-2.8,2.6-5.9,3.6-9c1.3-4,1.4-7.6,0.1-11.4c-1.1-3.1-2.3-8.8-3.5-11.9c-0.6,1.7-2.4,5.8-3.5,7.1
			c-1.5,1.8-2.5,3.6-3.1,5.9c-1.1,4-1.2,8-0.4,11.9c1,5,3.2,6.9,3.4,10.3c0.1,1.9-0.5,4.1-1.4,5.7c-0.8,1.5-1.7,2.9-2.3,4.5
			c-0.4,1-0.8,2.1-1.1,3.2c0,0.1,0,0.2-0.1,0.2c-2.1-5.4-5.3-10.6-8-15.5c0-0.1,0-0.2,0-0.3c0.1-3.9,0.9-7.8,2-11.5
			c0.9-3.1,2.9-5.6,3.6-8.7c0.9-4.1,1.4-8.4,2.4-12.5c0.7-3.2,2.7-6.3,4.4-9.1c1.6-2.6,3.4-5.3,6.1-6.9c1-0.1,1.9-0.2,3-0.4
			c11-2.3,23.9-2.9,32.1-11.8c2.1-2.4,3.8-5.1,5.4-7.8c3.4-5.6,7-11.1,11.3-15.9c-3.9,1.4-8,2.4-12.1,2.9c-2.8,0.3-5.6,0.5-8.3,1.1
			c-5.5,1.2-13.8,4.9-17.2,9.7c-1.5,2.1-2.3,4.8-3.8,7c-1.9,2.9-4,5.6-6.2,8.3c-2.6,3.2-3.1,3.2-4.4,4.5c-0.1,0-0.3,0.1-0.4,0.1
			c-3.7,2-6.3,5.6-8.5,9.5c0.6-2.3,1.3-4.5,1.9-6.8c1-3.3,2.1-6.7,3.4-9.9c2.5-0.8,6.2-7.4,7.2-9c2.2-3.4,4.3-7,7.2-9.9
			c4.4-4.4,10.2-7.7,16.1-9.7c3.4-1.2,6.8-2.4,9.8-4.4c0.2-0.1,0.4-0.2,0.6-0.4c3.2-2.1,6-4.9,8.3-7.9c0.2-0.3,0.5-0.6,0.7-1
			c2.9,1.9,7.3,1.9,10.6,1.6c1.8-0.2,3.7-0.4,5.4-0.9c0.5-0.1,3.3-1.7,3.6-1.6c-3.8-1-7.2-3.8-11.3-3.2c-1.7,0.2-3.4,0.5-4.9,1.1
			c-0.9,0.4-1.6,0.9-2.4,1.5c0.5-0.7,0.9-1.4,1.3-2.2c0.1-0.1,0.1-0.1,0.2-0.2c3.8-5.5,9.3-11.2,16.2-12.2c2.2,0.7,4.4-1.2,6.8-0.3
			c0.4,0.2,0.8,0.4,1.2,0.6c0.3,0.2,0.6,0.3,0.8,0.5c1.6,1.8,5.2,2.1,7.6,2.6c3,0.6,5.9,0.7,8.9,0.2c4.8-0.8,9.1-1.8,13.5-4.1
			c6.9-3.6,10.8-10.4,16.3-15.6c-5.6,1.2-11.4,0.2-17.1-0.3c-4.8-0.5-9.9-0.7-14.6,1c-4.8,1.7-9.4,3.8-13.5,6.9
			c-1.6,1.2-2.5,3.3-4.1,4.4c-1.4,1-3.3,1.2-4.9,1.9c0,0,0,0,0,0c-2.5,0.2-4.8,1.2-7.1,2.3c-1.1,0.5-2.3,0.8-3.3,1.5
			c-1.1,0.7-2.1,1.6-3,2.5c-1,1-2.1,1.9-2.9,3.1c-1.1,1.6-1.8,3.3-2.9,4.9c-1.5,2.3-3.2,4.5-5.1,6.5c-2.8,3-6.1,5.4-9.8,7.1
			c3.1-4.3,6.5-8.6,8.1-13.5c1.4-4.5,1.5-13.7,4.7-17c2.5-2.6,5.6-2.6,9.7-5.8c3.3-2.5,5.9-5.7,7.8-9.7c1-2.2,1.6-4.4,1.6-6.8
			c0-1.8,1.4-6.2,2.1-8c-3,1.7-7.9,5.3-10.9,7c-3.7,2.1-6,5.1-7.7,9.1c-1.4,3.1-2.6,6.3-3.3,9.5c-0.3,1.3-0.5,2.8-0.8,4.1
			c-2.7,5.9-3.5,12.5-5.7,18.6c-1.1,3.1-2.7,5.8-4.6,8.4c1.2-3.8,1.5-7.9,0.1-11.7c0,0,0,0,0,0c0-1.8-0.4-1.9-0.2-5.5
			c0.2-3.2,0.9-5,2.3-8c2-4.2,4-8.7,3.5-13.3c-0.3-2.9-1.8-5.7-3.3-8.1c-1.1-1.8-2.4-4.4-4.2-5.5c-0.6-0.4-4.9-2.4-4.8-3
			c-0.7,6.5-2.9,12.7-3.3,19.2c-0.4,6.4,1,12.9,3.9,18.5c0.9,1.7,1.9,3.4,3.1,5c0.6,0.8,1.2,1.5,1.9,2.2c1.6,5.1-0.3,10.9-2.8,15.5
			c-2.5,0.9-5,1.7-7.4,2.8c-6.2,2.9-16,13.4-16.1,13.7c-0.2,1.6-3.4,4.4-4.3,5.6c-0.1,0.1-0.3,0.3-0.5,0.6c1.1-2.2,2.1-4.4,2.8-6.7
			c0.7-1.3,1.5-2.5,2.2-3.7c2-3.5,3.4-7.3,4.7-11.2c1.7-5,2-9.5,0.4-14.4c-1.3-4-2.7-11.2-4.1-15.1c-0.8,2.1-3.1,7.2-4.6,8.8
			c-1.9,2.2-3.2,4.5-4.1,7.4c-1.5,5.1-1.7,10-0.8,15c1.1,6,3.7,8.5,4,12.6c-1.1,3.5-2.8,6.8-4.5,10.1c-1.5,3.1-2.8,6.3-3.9,9.6
			c-0.1-6.7-3.4-14.5-9.5-17.1c-0.4,4.7,0.1,7.8,2,11.9c1.4,3.1,4.7,5.6,6.3,8.5c-1.2,3.7-2.4,7.5-3.2,11.3c-1,4.2-1.3,8.4-1.8,12.7
			c-0.1,1-1.3,4.5-1.6,6.8c-0.3,0.9-0.7,1.8-1,2.6c-1.9,5-3.4,9.7-4,14.9c-1-1.9-1.9-3.8-2.6-5.8c0-4.6,2.8-7.3,3.8-13.9
			c1.3-8.7-1.2-16.4-4.6-24.3c-2-4.6-4-9.3-5.9-13.9c-1.7-4-4.3-8.6-5.1-12.9c1.6,8.2-4.7,15.6-6.6,23.7c-1.1,4.8-0.7,9.9-0.2,14.8
			c0.4,3.7,0.7,7.6,2.4,11c1.6,3.1,4.2,5.6,6.8,8.1c2.2,2,5.3,4.1,6.9,6.7c1.4,2.2,2,5.2,3.2,7.6c2.7,5.4,6.1,10.4,8.6,15.8
			c1.7,3.7,2.6,7.6,3.3,11.6c-0.7-4.8-5.3-7.4-9.2-9.5c-1.8-1-4.1-1.7-5.5-3.2c-2.1-2.2-3.3-5.4-5.6-7.7c-1.5-1.5-2.9-3-4.4-4.5
			c-1.1-1.1-2.1-2.2-3.4-3c-1.9-1.3-4.3-1.9-6.6-1.8c-1.1,0-2.1,0.1-3.1,0.5c-3.1,1.2-6.1,1.1-9.3,1.3c-2.5,0.2-5-0.5-7.5-0.3
			c-2.3,0.2-4.4,1.2-6.7,0.5c3.6,2.5,7.8,3.8,11.4,6.3C100.1,304.1,103.1,307.6,106.7,310.3z"/>
		<path d="M336.7,639.9c-2.2-0.2-4.3,0.1-6.4,0.8c-3.8,1.4-7,3.5-9.7,6.4c-3.4,3.6-3.7,6.4-6.3,8.5c-3.4,2.7-12,1.9-16.2,2.8
			c-4.8,1-9.1,3.8-13.3,6.3c1.9-3.3,4.5-6.1,7.5-8.5c2-1.6,4.2-3,6.5-4.1c1.6-0.8,3.3-1.4,4.8-2.2c1.2-0.6,2.1-1.6,3.1-2.4
			c1-0.8,1.8-1.6,2.6-2.6c0.7-0.9,1.1-1.9,1.7-2.9c1.2-2,2.3-4.1,2.7-6.4c0,0,0,0,0,0c0.8-1.4,1.2-3.1,2.2-4.3
			c1.1-1.4,3.2-2,4.5-3.4c3.3-3.5,5.6-7.6,7.7-12c2-4.2,2.3-8.9,2.3-13.5c0-5.4-0.4-10.9,1.3-16c-5.3,4.6-12,7.7-16,13.7
			c-2.5,3.9-3.9,7.7-5,12.2c-0.7,2.7-0.9,5.5-0.6,8.3c0.2,2.3,0.2,5.6,1.7,7.3c0.2,0.2,0.3,0.5,0.4,0.8c0.2,0.4,0.3,0.8,0.4,1.2
			c0.6,2.3-1.4,4.2-0.9,6.3c-1.6,6.3-7.4,10.9-12.8,13.9c-0.1,0-0.2,0.1-0.2,0.2c-0.7,0.3-1.4,0.6-2.1,1c0.6-0.6,1.2-1.3,1.6-2.1
			c0.8-1.4,1.1-2.9,1.5-4.5c0.9-3.7-1.4-7.1-2-10.8c0,0.3-1.6,2.7-1.8,3.2c-0.6,1.6-1,3.3-1.4,5c-0.6,3-1,7.1,0.5,10
			c-0.3,0.2-0.6,0.4-1,0.6c-3,1.9-5.8,4.3-8.1,7c-0.1,0.2-0.3,0.3-0.4,0.5c-2.1,2.6-3.6,5.7-4.9,8.7c-2.4,5.3-6,10.4-10.5,14.1
			c-3,2.4-6.5,4-9.8,5.8c-1.6,0.8-8,3.7-9,5.9c-3.1,0.9-6.3,1.6-9.5,2.2c-2.1,0.4-4.3,0.9-6.5,1.2c3.8-1.6,7.4-3.7,9.6-7
			c0.1-0.1,0.1-0.2,0.2-0.4c1.3-1.1,1.4-1.6,4.5-3.7c2.7-1.8,5.4-3.5,8.3-5c2.2-1.2,4.8-1.7,6.9-2.9c4.7-2.7,9-10.1,10.6-15.1
			c0.8-2.5,1.2-5.1,1.7-7.6c0.8-3.8,2.1-7.5,3.8-11c-4.9,3.6-10.3,6.4-15.8,9.1c-2.7,1.3-5.4,2.6-7.8,4.3
			c-9,6.7-10.8,18.7-13.9,28.7c-0.3,1-0.5,1.8-0.7,2.7c-1.7,2.3-4.5,3.8-7,5c-2.8,1.3-5.8,2.9-8.9,3.3c-3.9,0.5-7.9,0.6-11.8,1.1
			c-1.4,0.2-2.8,0.7-4.2,1.2l-1.8,2.8c1.2-0.3,2.5-0.6,3.7-0.9c0.8-0.2,1.7-0.4,2.5-0.7c2.1-0.1,5.5-0.9,6.4-0.9
			c4-0.2,8-0.1,11.9-0.6c3.6-0.5,7.2-1.2,10.8-2c2.6,1.8,4.7,5.1,7.4,6.6c3.7,2.1,6.5,2.9,10.9,2.9c-1.8-5.8-8.8-9.6-15-10.3
			c3.1-0.8,6.2-1.6,9.3-2.8c3.2-1.2,6.4-2.5,9.8-3.2c3.7,0.7,5.8,3.3,11.3,4.9c4.5,1.3,9.1,1.6,14,0.6c2.7-0.5,5-1.5,7.2-3.1
			c1.6-1.2,6.6-2.9,8.6-3.5c-3.5-1.6-10.1-3.6-13.7-5.2c-4.4-1.9-8.6-2.1-13.4-1c-3.8,0.9-7.4,1.8-10.9,3.4
			c-1.2,0.5-2.4,1.1-3.6,1.7c-2.2,0.5-4.4,1.2-6.5,2c0.3-0.2,0.5-0.3,0.6-0.4c1.2-0.8,4.1-3.4,5.6-3.5c0.3,0,10.9-8.2,14.2-13.7
			c1.3-2.1,2.2-4.4,3.3-6.6c4.5-1.8,10-3.1,14.6-1.2c0.6,0.7,1.2,1.3,1.9,1.9c1.4,1.2,2.8,2.3,4.4,3.3c5,3.2,10.8,5.1,16.8,5.3
			c6.1,0.2,12.1-1.3,18.2-1.4c-0.6,0-2.1-4.2-2.4-4.7c-0.9-1.8-3.2-3.2-4.8-4.4c-2.2-1.6-4.6-3.2-7.3-3.8c-4.3-0.9-8.6,0.6-12.7,2
			c-2.9,1-4.6,1.5-7.6,1.4c-3.3-0.2-3.4-0.5-5.1-0.7c0,0,0,0,0,0c-3.4-1.7-7.2-1.7-10.9-1c2.6-1.5,5.3-2.7,8.3-3.5
			c5.9-1.5,12-1.7,17.8-3.6c1.3-0.2,2.7-0.3,3.9-0.4c3.1-0.3,6.1-1.2,9.1-2.2c3.9-1.3,6.8-3.1,9.1-6.4c1.9-2.6,5.7-6.8,7.5-9.5
			C342.6,639.2,338.3,640.1,336.7,639.9z"/>
		<path d="M109.7,472c2.6,0,2.1-19.9,6-23.8c3.9-3.9,18.2-3,18.2-5.3c0-2.3-14.6-1.7-18.2-5.3c-3.6-3.6-3.5-23.8-6-23.8
			c-2.6,0-1.7,19.5-6,23.8c-4.3,4.3-18.2,2.5-18.2,5.3s14,1.1,18.2,5.3C107.9,452.3,107.2,472,109.7,472z"/>
		<path d="M269.4,251.3c-5.2,5.2-21.9,3-21.9,6.3c0,3.3,16.8,1.3,21.9,6.3c5,5,4.2,28.7,7.2,28.7c3.1,0,2.6-24,7.2-28.7
			c4.7-4.7,21.9-3.6,21.9-6.3c0-2.8-17.5-2-21.9-6.3c-4.3-4.3-4.2-28.7-7.2-28.7S274.6,246.1,269.4,251.3z"/>
		<path d="M153.5,680.1c0-1.5-9.4-1.1-11.7-3.4c-2.3-2.3-2.2-15.3-3.9-15.3c-1.6,0-1.1,12.5-3.9,15.3c-2.8,2.8-11.7,1.6-11.7,3.4
			c0,1.8,9,0.7,11.7,3.4c2.7,2.7,2.2,15.3,3.9,15.3c1.6,0,1.4-12.8,3.9-15.3C144.4,681,153.5,681.6,153.5,680.1z"/>
		<path d="M289.9,541.3c-1.6,0-1.1,12.5-3.9,15.3c-2.8,2.8-11.7,1.6-11.7,3.4s9,0.7,11.7,3.4c2.7,2.7,2.2,15.3,3.9,15.3
			c1.6,0,1.4-12.8,3.9-15.3c2.5-2.5,11.7-1.9,11.7-3.4c0-1.5-9.4-1.1-11.7-3.4C291.5,554.2,291.5,541.3,289.9,541.3z"/>
		<path d="M132.9,375.8c-1.2,0-0.8,9.5-2.9,11.6c-2.1,2.1-8.9,1.2-8.9,2.6s6.8,0.5,8.9,2.6c2,2,1.7,11.6,2.9,11.6
			c1.2,0,1-9.7,2.9-11.6c1.9-1.9,8.9-1.4,8.9-2.6c0-1.1-7.1-0.8-8.9-2.6C134,385.6,134.1,375.8,132.9,375.8z"/>
		<path d="M222.8,301.9c-0.9,0-0.6,6.6-2,8c-1.5,1.5-6.1,0.8-6.1,1.8c0,0.9,4.7,0.4,6.1,1.8c1.4,1.4,1.2,8,2,8c0.9,0,0.7-6.7,2-8
			c1.3-1.3,6.1-1,6.1-1.8c0-0.8-4.9-0.6-6.1-1.8C223.6,308.7,223.7,301.9,222.8,301.9z"/>
		<path d="M155.8,511.4L155.8,511.4C155.7,511.4,155.7,511.4,155.8,511.4C155.8,511.4,155.8,511.4,155.8,511.4z"/>
		<path d="M203,635.6c0.5-0.5,0.5-1.3,0.1-1.9c-2.6-3.9-3.3-8.8-3.9-13.4c4.3,1,9,0,12.3-3.8c0.5-0.5,0.5-1.3,0.1-1.9
			c-5.3-8.2-6.9-22.2-5.7-31.8c21.6-34.3,54-60,77.1-93.3c10.2-14.8,20-30.5,26.9-47.2c3.5-8.3,4.8-17.3,8.8-25.4
			c2.8-5.7,8.5-12.7,7.9-19.5c-0.1-0.7-0.8-1.6-1.6-1.4c-13.5,2.5-23.5,15.2-31,25.7c-8.9,12.5-14.9,27.3-25.1,38.8
			c2.2-8.3,4.6-16.6,6.4-25c3-13.9,4.5-28.1,7.3-42c1-5.1,2.1-10.2,3.3-15.2c9.8-0.6,20-2.4,28.5-7.6c2.5-1.5,8.1-5,8-8.5
			c-0.1-3.6-5.8-3.1-8.3-3.5c-6.7-1.2-13.4-2.7-20.2-3.2c0.6-1.3,1.3-2.6,2-3.9c4.7-8.5,11.8-18.1,9.7-28.4c-0.2-0.8-1.3-1.2-1.9-1
			c-13.8,5.7-24.1,17.5-31.7,30.7c-6.1,0.3-13.3,1.2-18.1,5.2c-2.4,2-4.2,4.6-5.8,7.4c-0.1,0-0.1,0-0.2,0c-5.2,1.3-9,4.1-12.2,7.8
			c-0.2-0.1-0.5-0.1-0.8,0c-4.8,1.6-8.1,6.3-11.4,9.9c-4.7,5.1-8.6,10.6-11.6,16.9c-5.4,11.3-9.8,23.1-14.8,34.5
			c-7.6,17.3-13.4,27.3-23.1,43.5c-3,5-10.5,16.3-13.5,21.2c-1.3,2.1-2.6,4.3-3.9,6.4c-4.6,7.4-10.8,14.1-17.5,19.9
			c-9.9,3.3-21.3,4.9-31.7,4.1c-0.7-0.1-1.4,0.2-1.7,0.8c-1.7,3.8-1.7,7.7-0.5,11c-5.1,1-10.4,1.9-15.6,1.3
			c-0.6-0.1-1.4,0.2-1.7,0.8c-3.4,8.4,1.8,16.5,10,19c-2.3,9.5,4,17,13.6,17.3c-1.9,8,0.6,14.3,8.3,18.6c3.6,2,8,3.2,12.1,2.6
			c1.9,12,11,21,23.4,17.5c2.5,10.8,16.9,20.1,25.5,11.7C184.4,638.3,196.6,642.8,203,635.6z M292.6,358.3c0.6,0,1.3,0.1,1.9,0.1
			c-0.1,1.1,0.1,2.9,2,3.6c5.1,2.1,16.5,2.5,22,1.5c-2,2.7-6.4,4.9-8.8,6.1c-7.2,3.5-15.1,4.9-23,5.5
			C288.2,369.4,290.1,363.7,292.6,358.3C292.5,358.3,292.5,358.3,292.6,358.3z M270.1,356.1c-3,5.5-5.5,11.1-7.7,16.5
			c-4.4,11.1-7.4,22.8-10.6,34.3c-1.1,4.2-2,8.5-3,12.8c-3-0.9-6.1-3-8.6-4.7c-2.6-1.8-6.4-4.6-7.6-7.7c2.9-8.1,5.8-16.3,9.6-24
			c3-5.9,5.8-12.2,9.3-17.7C256,358.7,262.6,356.7,270.1,356.1z M141.9,526.9c3.5-3.5,6.2-6.1,9.8-10.3c2.7-3.1,4.8-6.2,7-9.7
			c1.8-2.7,3.5-5.4,5.3-8.1c2.7-4.1,5.4-8.2,8.1-12.3c9.7-15.2,18.7-30.9,26.2-47.4c4.3-9.4,8.2-19,12.2-28.5
			c3.2-7.5,6.3-14.9,11.5-21.3c2.5-3.1,6-7.9,9.8-10.9c-0.9,1.3-1.7,2.7-2.5,4.1c-5.6,9.7-10.9,19.4-15.4,29.7
			c-0.8,1.8,2,3.2,2.8,1.4c3.8-8.6,7.9-17,12.7-25.1c4.5-7.6,8.4-16,16.7-19.4c-1,2.1-2,4.1-3,6.1c-5.2,10.1-9.1,20.6-13.1,31.1
			c-0.3,0.3-0.4,0.6-0.4,1c-1.7,4.4-3.3,8.7-5.1,13c-0.8,1.8,2,3.2,2.8,1.4c1.5-3.5,2.8-7.2,4.1-10.8c1.9,2.5,4.6,4.7,6.9,6.3
			c2.9,2,6.4,4.4,10,5.4c-0.9,3.6-1.9,7.3-3.2,10.8c-0.7,1.8,2.1,3.2,2.8,1.4c2.4-6.3,3.5-12.9,5.1-19.5
			c2.8-11.9,6.1-23.9,10.1-35.4c4.4-12.6,10.8-26.7,20-37.9c1.2,1.1,3.5,2.5,5.8,1.1c2.6-1.6,10.1-7.4,13.7-11.8
			c-1.1,4.5-3.6,8.9-5.6,12.6c-3.2,5.7-6.4,11.2-8.7,17.3c-1.9,4.9-3.4,9.9-4.7,14.9c-0.1,0.2-0.1,0.3-0.1,0.5
			c-1.7,6.8-3.1,13.8-4.4,20.7c-2.6,13.1-3.8,26.5-6.8,39.5c-2.3,9.6-5.1,19.1-7.4,28.7c-0.4,1.6,1.6,2.3,2.7,1.3
			c11.2-10.5,17.4-24.8,25.5-37.6c5-7.9,11.7-17.8,20.1-24.2c-2.8,4.8-5.4,12.3-6.5,16.5c-1.3,4.7,3.2,6.7,5.1,7.3
			c-0.5,1.7-1,3.4-1.5,5.2c-3.5,11.7-10,22.8-16.1,33.3c-12.6,21.4-27.9,40.9-44.6,59.3c-9.4,10.3-19.5,19.8-28.3,30.6
			c-4.1,5-8,10.2-11.7,15.5c-1.1,1.6-2.2,3.2-3.3,4.8c-1.4,2.1-1,2.7-2.3,2.7c-3.4,0.2-9.3-3.6-12.2-5c-5.6-2.7-11.1-5.9-16.1-9.5
			c-9.9-7.1-19.1-16.4-26.4-26.2c-2.1-2.9-4.1-5.9-5.7-9.1c-0.4-0.9-1.2-2.1-1.5-3.2C141.6,527.2,141.7,527,141.9,526.9z
			 M108.1,532.7c1.5-0.9,7.2,0,9.3-0.1c7.2-0.5,14.5-1.7,21.4-3.8c5.3,11.9,14.1,21.4,23.5,30.4c11.2,10.7,25.4,19.9,40.5,24.3
			c-0.7,7.1,0.5,14.6,2,21.5c0.5,2.3,1.1,4.6,1.9,6.8c0.2,0.5,1.9,3.2,1.7,3.8c-0.7,3.1-8.1,2.3-10.1,1.4c-3.2-1.4-5.6-4.1-6-7.6
			c-0.1-1.2-1.9-2.1-2.7-0.9c-7,10.5-20.6,2.5-20.8-8.2c0-0.9-1.1-1.8-2-1.4c-12,5.4-19.3-3.3-19.5-14.6c0-1-1.1-1.7-2-1.4
			c-2.2,0.8-4.9,0.8-7.2,0.3c-9.5-2.1-11.7-10-8.6-18.3c0.4-1-0.2-2.4-1.5-2.2c-9.3,1.4-14-5.6-10.7-14.1c0.3-0.9,0-2-1.1-2.2
			c-3.3-0.4-6.2-1.9-7.9-4.9C107.3,539.7,105.8,534.1,108.1,532.7z M180,626.5c-7.1,10.9-21.2-1.7-22-10.1c-0.1-1-1.1-1.7-2-1.4
			c-12,4.4-20.2-4.7-21.3-15.9c-0.1-1-1-1.6-2-1.4c-2.4,0.7-5.1,0.4-7.4-0.3c-9.3-2.6-13.1-9.9-10.3-18.9c0.3-1-0.7-1.9-1.6-1.8
			c-8.8,0.7-15.3-5.8-12.2-14.7c0.3-0.9,0-2-1.1-2.2c-3.5-0.7-6.5-2.4-8.6-5.4c-1.3-1.9-3.2-6.8-0.8-8.6c0.6-0.5,5,0,5.9-0.1
			c3.1-0.3,6.1-0.8,9.1-1.4c0.3-0.1,0.6-0.2,0.8-0.4c1.7,2.5,4.2,4.3,7.5,5.2c-2.6,9.2,2.3,17.2,12,16.9c-2,6.9-1.3,13.1,5.4,17.6
			c3.7,2.5,8.6,3.7,13,2.8c0.3,4.7,1.5,9.9,4.8,13.2c4.7,4.7,11,5,16.8,2.9c1.8,11.3,15.8,18.8,24.2,10.2c1.2,2.8,3.3,5,5.8,6.3
			c0.4,3.1,0.9,6.3,1.7,9.4c0.5,2,2.4,4.7,1.7,6.3c-1.5,3.8-9.3,0.5-11.4-0.8c-2.7-1.7-4.5-4-5.2-7.2
			C182.5,625.2,180.6,625.6,180,626.5z"/>
		<path d="M411.2,670.5C411.2,670.5,411.2,670.4,411.2,670.5c-0.1-0.1-0.2-0.1-0.2-0.2c-0.3-0.2-0.6-0.3-1-0.3
			c-1.2,0.1-2.5,0.3-3.7,0.4c-0.6-6.1-1.2-12.2-1.9-18.3c0-0.4-0.2-0.7-0.5-0.9c0,0-0.1-0.1-0.1-0.1c0,0-0.1,0-0.1-0.1
			c-0.3-0.2-0.6-0.3-1-0.3c-0.1,0-0.3,0-0.4,0c-6.1-60.2-11.7-120.5-17.8-180.6c0.5-0.1,1-0.1,1.5-0.2c0.7-0.1,1.5-0.8,1.3-1.6
			c-0.6-2.9-1.5-6.6-3.4-9.1c0,0,0-0.1,0-0.1c-2.6-25.1-5.8-50.2-8.4-75.4c0-0.4-0.2-0.6-0.4-0.8c2.2-3.3,2.3-8.5,2.2-12
			c0-0.7-0.4-1.1-0.9-1.2c-0.2-0.1-0.4-0.1-0.7-0.1c-0.3,0-0.7,0.1-1,0.1c-5.8-56.1-12.1-112.2-17.9-168.4c0.1,0,0.2,0,0.3-0.1
			c2.3-0.4,5.4-0.5,6.7-2.7c2.1-3.5-0.3-8.1-3.4-9.9c-0.9-0.5-1.8-1-2.7-1.5c-0.7-4.1-1.9-11.6-6-14.1c6.2-9.6,2.3-22.7-7.5-26.7
			c10.1-4.4,16.6-15,15.4-26.5c-0.3-2.4-0.9-4.8-1.7-7c-1.9,11.2-11.1,20.2-22.9,21.4c-11.8,1.2-22.6-5.7-26.8-16.2
			c-0.4,2.3-0.5,4.7-0.2,7.2c1.2,11.5,9.7,20.4,20.4,22.7c-8.8,5.9-10,19.6-1.9,27.7c-3.5,3.4-3.2,10.9-3,15c-0.8,0.6-1.6,1.3-2.4,2
			c-2.8,2.5-2.8,5.2-1.9,9.1c0.7,3.2,1.9,3.1,4.9,3c1.1,0,2.2-0.1,3.3-0.1c0,0.1-0.1,0.2,0,0.4c5.6,55.9,10.7,111.9,16.5,167.8
			c-0.3,0-0.7,0.1-1,0.1c-0.7,0.1-1.5,0.8-1.3,1.6c0.6,3.5,1.8,8.7,4.7,11.4c-0.1,0.2-0.2,0.5-0.2,0.8c2.5,25.1,4.4,50.3,7,75.4
			c-1.5,2.9-1.6,6.8-1.6,9.9c0,0.7,0.4,1.1,1,1.2c0.2,0.1,0.4,0.1,0.7,0.1c0.6-0.1,1.1-0.1,1.7-0.2c6.1,60.2,12.9,120.3,19.1,180.5
			c-0.2,0-0.4,0-0.6,0.1c-0.8,0.1-1.4,0.8-1.3,1.6c0.6,6.1,1.2,12.2,1.9,18.3c-1.2,0.1-2.5,0.3-3.7,0.4c-0.8,0.1-1.4,0.8-1.3,1.6
			c0.4,4.4,0.9,8.8,1.3,13.2c0.1,0.8,0.8,1.4,1.6,1.3c0.6-0.1,1.1-0.1,1.7-0.2c0.8,4.8,2.4,13.1,7.9,14.4c1.2,0.3,2.6,0.3,4.1,0.2
			c-2.3,6.1,1.9,13.3,9.2,12.6c7.3-0.7,10-8.8,6.5-14.2c1.4-0.2,2.8-0.5,4-1c5.1-2.4,5-10.8,4.8-15.7c0.6-0.1,1.1-0.1,1.7-0.2
			c0.8-0.1,1.4-0.8,1.3-1.6c-0.4-4.4-0.9-8.8-1.3-13.2C411.6,671,411.5,670.7,411.2,670.5z M403.4,670.1c-8.9,0.9-17.7,1.8-26.6,2.7
			c-0.6-5.4-1.1-10.8-1.6-16.1c8.9-0.9,17.7-1.8,26.6-2.7C402.3,659.3,402.8,664.7,403.4,670.1z M399.1,646.5l-22.8,2.3
			c-0.5-5-1-9.9-1.6-14.9c6.3,5.2,17.8,4.3,22.9-2.1C398.1,636.8,398.6,641.7,399.1,646.5z M334.7,148.7c0.7,0,1.3,0,2-0.1
			c0.6-0.1,1.2-0.2,1.8-0.3c11.9,0.2,17.4,14.6,10.5,24c-3.1-0.3-7,0.9-9.8,1.1c-2.9,0.3-6.9,0-9.9,0.9c-0.1-0.1-0.1-0.1-0.2-0.2
			C320.6,166.3,323.2,151.3,334.7,148.7z M330.7,177.2c2.6-0.8,6.1-0.6,8.8-0.9c2.7-0.3,5.7-1,8.4-0.9c4.6,0.3,6,6.1,6.8,10.4
			c-4.7-1.9-9.7-2.9-14.5-2.7c-4.8,0.7-9.5,2.8-13.7,5.6C326.3,184.5,326.6,178.6,330.7,177.2z M322.1,201.8
			c-0.2-0.2-0.3-5.1-0.1-5.7c-0.1,0.2,0.6-0.6,1.9-1.6c4.8-3.9,10.4-7.4,16.7-8.4c6.1-0.3,12,1.8,17.4,4.6c2.6,1.3,5.4,4.9,2.4,7.1
			c-1.9,1.4-6.9,1.3-9.2,1.6c-4,0.6-8.1,1-12.1,1.4C336.2,201,323.5,203.5,322.1,201.8z M330.8,209.4l23.8-2.4
			c0.5,4.8,1,9.5,1.5,14.3c-6.5-6-18.7-5.1-23.9,2.1C331.8,218.8,331.3,214.1,330.8,209.4z M332.8,229.6c1.7-11.4,20-12.7,23.9-2.2
			c0,0,0,0,0,0c4.8,46,10,92,14.7,138l-25,2.6C341.7,321.9,337.4,275.8,332.8,229.6z M344.8,375.8c9.9-1,19.9-2,29.8-3
			c0,4.8-0.7,9.2-5.8,10.3c-2.6,0.6-5.5,0.6-8.1,0.8c-2.6,0.3-5.4,0.9-8.1,0.8C347.4,384.7,345.7,380.5,344.8,375.8z M349.1,387.7
			c0.3,0.1,0.7,0.1,1,0.2c3.4,0.4,7.4-0.7,10.8-1.1c3.4-0.3,7.5-0.1,10.8-1.2c0.4-0.1,0.8-0.3,1.1-0.5c2.5,23.9,5.5,47.7,8,71.6
			c-0.6-0.2-1.2-0.4-1.9-0.4c-3.4-0.3-7.4,0.7-10.8,1.1c-3.4,0.4-7.5,0.2-10.8,1.2c-0.6,0.2-1.1,0.4-1.6,0.7
			C353.4,435.5,351.5,411.6,349.1,387.7z M354.5,470.4c0.1-4.5,1.1-8.2,5.9-9.2c2.6-0.6,5.4-0.6,8.1-0.8c2.6-0.3,5.4-0.8,8.1-0.8
			c4.9,0,6.7,3.4,7.7,7.8C374.3,468.3,364.4,469.3,354.5,470.4z M358.2,477.8l24-2.5c5.1,50.3,9.8,100.5,14.8,150.8c0,0,0,0,0,0
			c-1.7,9.9-19.2,11.2-22.9,2.2C368.9,578.2,363.4,528,358.2,477.8z M394.4,714.3c-5.6,0.6-8.5-5.8-5.4-10.1c0,0,0-0.1,0.1-0.1
			c1.5-0.3,3-0.5,4.3-0.7c1.3-0.1,2.7-0.2,4.3-0.2C401.6,706.8,400.1,713.7,394.4,714.3z M402.5,699.6c-2.8,0.9-6.6,0.7-9.5,1
			c-2.9,0.3-6.3,1.1-9.2,0.9c-5.3-0.4-6.6-7-7.4-11.7c10.2-1,20.4-2.1,30.6-3.1C407.3,691.2,407.4,698,402.5,699.6z M372.5,682.1
			c-0.2-1.7-0.3-3.4-0.5-5.1c12.3-1.3,24.6-2.5,36.9-3.8c0.2,1.7,0.3,3.4,0.5,5.1L372.5,682.1z"/>
		<path d="M347.1,253.1c0.8-0.1,1.1-5.4,2.2-6.7c1.1-1.3,4.6-2.1,4.6-2.8c-0.1-0.7-3.8-1-5-2.1c-1.2-1-2.4-6.4-3.2-6.3
			c-0.8,0.1-0.9,5.3-2.2,6.7s-4.6,2-4.6,2.8c0.1,0.9,3.6,0.9,5,2.1C345.3,248,346.3,253.1,347.1,253.1z"/>
		<path d="M349.4,275.7c0.8-0.1,1.1-5.4,2.2-6.7c1.1-1.3,4.6-2.1,4.6-2.8c-0.1-0.7-3.8-1-5-2.1c-1.2-1-2.4-6.4-3.2-6.3
			c-0.8,0.1-0.9,5.3-2.2,6.7c-1.2,1.4-4.6,2-4.6,2.8c0.1,0.9,3.6,0.9,5,2.1C347.6,270.6,348.6,275.7,349.4,275.7z"/>
		<path d="M382.1,595.7c0.8-0.1,1.1-5.4,2.2-6.7c1.1-1.3,4.6-2.1,4.6-2.8c-0.1-0.7-3.8-1-5-2.1c-1.2-1-2.4-6.4-3.2-6.3
			c-0.8,0.1-0.9,5.3-2.2,6.7c-1.2,1.4-4.6,2-4.6,2.8c0.1,0.9,3.6,0.9,5,2.1C380.3,590.6,381.3,595.8,382.1,595.7z"/>
		<path d="M383,600.4c-0.8,0.1-0.9,5.3-2.2,6.7c-1.2,1.4-4.6,2-4.6,2.8c0.1,0.9,3.6,0.9,5,2.1c1.4,1.2,2.4,6.4,3.2,6.3
			c0.8-0.1,1.1-5.4,2.2-6.7c1.1-1.3,4.6-2.1,4.6-2.8c-0.1-0.7-3.8-1-5-2.1C385,605.7,383.8,600.3,383,600.4z"/>
		<path d="M366.5,441.3c2.3-0.2,4.1-1.8,3.7-6c-0.4-4.2-7.6-32.4-7.6-32.4s-1.3,29.1-0.9,33.3C362.2,440.4,364.2,441.6,366.5,441.3z
			"/>
		<polygon points="332.5,168.4 336.7,164.9 339.1,172.9 339.9,164.6 344.6,167.2 341.2,163 349.1,160.6 340.9,159.8 343.4,155 
			339.2,158.5 336.8,150.5 336.1,158.8 331.3,156.3 334.7,160.4 326.8,162.9 335.1,163.6 		"/>
	</g>
</g>
</svg>
