<?xml version="1.0" encoding="utf-8"?>
<!-- Generator: Adobe Illustrator 21.1.0, SVG Export Plug-In . SVG Version: 6.00 Build 0)  -->
<svg version="1.1" xmlns="http://www.w3.org/2000/svg" xmlns:xlink="http://www.w3.org/1999/xlink" x="0px" y="0px"
	 viewBox="0 0 504 864" style="enable-background:new 0 0 504 864;" xml:space="preserve">
<g id="Слой_1">
</g>
<g id="Слой_2">
	<g>
		<path d="M503.8,18.2c-1.6-17.9-18.7-16.3-31.6-16.3c-45.9,0-91.8,0-137.6,0c-63.2,0-126.3,0-189.5,0c-40.6,0-81.2,0-121.8,0
			c-2.6,0-5.3-0.2-8,0.2c-9.5,1.2-15,9.2-15.2,18.2c-0.2,7.3,0,14.5,0,21.8c0,37.4,0,74.9,0,112.3c0,57,0,114.1,0,171.1
			c0,64.3,0,128.6,0,192.9c0,58.4,0,116.7,0,175.1c0,40.1,0,80.2,0,120.3c0,9.1,0,18.2,0,27.3c0,11.7,6.7,20.5,19.2,20.7
			c35.9,0.6,71.9,0,107.9,0c62.4,0,124.9,0,187.3,0c49.7,0,99.5,0,149.2,0c7.6,0,15.2,0,22.9,0c0.4,0,0.8-0.1,1.2-0.2
			c14.4-1.8,16.1-13.8,16.1-25.5c0-11.4,0-22.8,0-34.3c0-43.4,0-86.9,0-130.3c0-59.9,0-119.8,0-179.8c0-63.9,0-127.7,0-191.6
			c0-55.3,0-110.6,0-165.9c0-33.7,0-67.3,0-101C503.9,28.3,504.2,23.2,503.8,18.2z M486.6,852.8c-28.3,0-56.6,0-84.9,0
			c-59.9,0-119.8,0-179.7,0c-54,0-108,0-162,0c-13.1,0-26.1,0-39.2,0c-5.6,0-11-1.3-11.7-8.3c-0.2-1.5,0-3,0-4.5c0-26.5,0-53,0-79.5
			c0-50,0-100,0-149.9c0-61.8,0-123.6,0-185.4c0-61.4,0-122.7,0-184.1c0-48.9,0-97.7,0-146.6c0-24.2-0.8-48.6,0-72.7
			c0.2-5.3,1.6-10.1,8.3-10.8c2.2-0.2,4.5,0,6.7,0c14.8,0,29.6,0,44.5,0c55.6,0,111.3,0,166.9,0c58.9,0,117.8,0,176.7,0
			c18.9,0,37.9,0,56.8,0c8.1,0,24.7-3.1,25.9,8.4c0.5,5.2,0,10.8,0,16.1c0,13.5,0,27.1,0,40.6c0,45.5,0,91.1,0,136.6
			c0,60.1,0,120.2,0,180.3c0,62.6,0,125.1,0,187.7c0,52.8,0,105.6,0,158.4c0,31.4,0,62.7,0,94.1C494.8,840.3,496.9,852,486.6,852.8z
			"/>
		<g>
			<path d="M459.6,789.7c1.2,0.1,2.4-0.7,2.4-2.2c0-23.7,0-47.4,0-71.1c0-56.4,0-112.8,0-169.2c0-68.7,0-137.4,0-206
				c0-59,0-117.9,0-176.9c0-19.6,0-39.2,0-58.8c0-8.9,1.3-19,0-27.9c-0.1-0.4,0-0.8,0-1.2c0-0.8-0.3-1.3-0.8-1.7
				c0.1-1.2-0.6-2.5-2.2-2.6c-13.1-0.5-25.3-13.8-25.8-26.7c0-0.5-0.2-0.8-0.4-1.1c-0.3-0.6-1-1.1-1.9-1.1c-40.5,0-80.9,0-121.4,0
				c-64.5,0-129,0-193.6,0c-14.9,0-29.7,0-44.6,0c-0.9,0-1.6,0.5-1.9,1.1c-0.2,0.3-0.3,0.7-0.4,1.2c-0.5,12.9-12.6,26.2-25.8,26.7
				c-1.8,0.1-2.5,1.9-2,3.2c-0.2,0.3-0.2,0.6-0.2,1c0,23.7,0,47.4,0,71.1c0,56.4,0,112.8,0,169.2c0,68.7,0,137.4,0,206
				c0,59,0,117.9,0,176.9c0,19.6,0,39.2,0,58.8c0,8.9-1.3,19,0,27.9c0.1,0.4,0,0.8,0,1.2c0,0.9,0.5,1.6,1.1,1.9
				c0.3,0.2,0.7,0.3,1.2,0.4c13,0.5,25.3,13.3,25.8,26.2c0,0.5,0.2,0.8,0.4,1.1c0.3,0.6,1,1.1,1.9,1.1c40.5,0,80.9,0,121.4,0
				c64.5,0,129,0,193.6,0c14.9,0,29.7,0,44.6,0c0.9,0,1.6-0.5,1.9-1.1c0.2-0.3,0.3-0.7,0.4-1.2c0.5-12.9,12.7-25.7,25.8-26.2
				C459.3,789.8,459.5,789.8,459.6,789.7z M429,813.8c-39.8,0-79.6,0-119.3,0c-64.5,0-129,0-193.6,0c-14.2,0-28.3,0-42.5,0
				c-1.7-13.9-13.9-26.5-27.8-28.3c0-23,0-46,0-69.1c0-56.4,0-112.8,0-169.2c0-68.7,0-137.4,0-206c0-59,0-117.9,0-176.9
				c0-19.6,0-39.2,0-58.8c0-8.9,1.3-19,0-27.9c-0.1-0.4,0-0.8,0-1.2c14-1.8,26.1-14.9,27.8-28.7c39.8,0,79.5,0,119.3,0
				c64.5,0,129,0,193.6,0c14.2,0,28.3,0,42.5,0c1.7,14.1,14.3,27.4,28.5,28.8c0,23.7,0,47.3,0,71c0,56.4,0,112.8,0,169.2
				c0,68.7,0,137.4,0,206c0,59,0,117.9,0,176.9c0,19.6,0,39.2,0,58.8c0,8.6-1.2,18.4-0.1,27C443.3,786.9,430.7,799.7,429,813.8z"/>
			<path d="M225.5,79.2c0.2,0,0.3,0.1,0.3,0.4c0,0.2,0.3,0.4,1,0.5c0.6,0.1,1.1,0.4,1.5,0.9c0.4,0.5,0.7,1.1,0.7,1.6
				c0,0.5,0.1,1,0.3,1.6c0.2,0.6,0.4,0.9,0.5,0.9c0.1,0,0.2,0.3,0.2,0.8c0,0.6,0.2,1.1,0.5,1.4c0.3,0.3,0.5,0.9,0.8,1.8
				c0.2,0.9,0.3,1.7,0.3,2.5c0,0.9,0.1,1.4,0.4,1.4c0.1,0.1,0.2,0.3,0.2,0.7s0.1,0.6,0.2,0.6c0.2,0.1,0.3,0.6,0.3,1.6
				c0,0.9,0.1,1.4,0.4,1.4c0.2,0,0.4,0.3,0.6,1c0.2,0.7,0.4,1,0.5,1c0.2,0,0.4,0.3,0.4,0.8c0.1,0.7,0.5,1,1.3,1c0.1,0,0.4,0,0.6-0.1
				c0.5-0.1,0.7-0.4,0.7-1.1c0-0.6,0.1-0.9,0.3-0.9c0.2,0,0.3-0.3,0.3-0.9c0-0.6,0.1-0.9,0.3-0.9c0.2-0.1,0.3-0.6,0.3-1.5
				c0-0.9,0.2-1.6,0.6-1.9c0.5-0.5,0.8-0.7,1.1-0.8c0.3-0.1,0.4-0.5,0.4-1.3c0-0.8,0.1-1.2,0.4-1.4c0.2-0.1,0.4-0.6,0.6-1.5
				c0.2-0.9,0.3-1.4,0.4-1.5c0.3-0.2,0.4-0.5,0.4-0.9c0-0.4,0.2-0.6,0.7-0.7c0.4,0,0.6-0.3,0.6-0.7c0-0.2-0.1-0.6-0.1-1
				c0-1,0.2-1.5,0.6-1.5c0.4,0,0.5-0.3,0.5-0.8c0-0.5,0.2-0.9,0.6-1.4c0.4-0.4,0.9-0.7,1.6-0.8c0.8-0.2,1.2-0.6,1.2-1.4
				c0-0.1,0-0.4-0.1-0.7l-0.1-0.6h-3.7c-2.5,0-3.7,0.1-3.7,0.3c0,0.2-0.1,0.3-0.3,0.3c-0.3,0-0.6,0.2-0.9,0.6
				c-0.4,0.5-0.4,0.7-0.2,0.7c0.3,0,0.5,0.1,0.5,0.4c0.1,0.3,0.5,0.4,1.1,0.4c0.6,0,1,0.2,1.1,0.7c0.1,0.5,0.1,0.7-0.1,0.8
				c-0.2,0.1-0.3,0.5-0.3,1.3c0,0.7-0.1,1.2-0.4,1.3c-0.2,0.1-0.3,0.3-0.3,0.7c0,0.1,0.1,0.2,0.1,0.4c0,0.5-0.1,0.9-0.3,1.4
				c-0.2,0.5-0.4,0.8-0.7,0.8c-0.4,0.1-0.5,0.4-0.5,0.9c0,0.5-0.1,0.9-0.3,1.1c-0.2,0.2-0.4,0.8-0.4,1.7c-0.1,1-0.3,1.5-0.6,1.5
				c-0.4,0-0.5,0.2-0.4,0.5c0,0.2,0,0.4,0,0.4c-0.1,0.1-0.2,0.1-0.4,0.1c-0.4,0-0.7-0.1-0.9-0.2c-0.5-0.3-0.7-1.2-0.8-2.9
				c0-0.7-0.1-1.2-0.4-1.4c-0.2-0.2-0.3-0.7-0.3-1.6c0-1.3-0.3-2.2-0.9-2.6c-0.2-0.1-0.2-0.3,0.1-0.4c0.1,0,0.2-0.2,0.3-0.4
				c0.1-0.2,0.1-0.5,0.1-0.7c0-0.2-0.1-0.3-0.2-0.3c-0.1,0-0.3-0.3-0.4-0.8c-0.1-0.6-0.4-0.9-0.7-0.9c-0.3-0.1-0.4-0.2-0.4-0.3
				c0-0.4,0.5-0.5,1.4-0.5c1.3,0,1.9-0.2,1.9-0.7c0-0.2,0.1-0.4,0.3-0.4c0.2,0,0.1-0.3-0.3-0.8c-0.4-0.5-0.9-0.8-1.6-0.8
				c-0.7,0-1.1-0.1-1.2-0.3c-0.1-0.1-0.3-0.1-0.7,0.1c-0.4,0.2-0.6,0.2-0.7-0.1c-0.2-0.2-0.3-0.3-0.4-0.1c-0.1,0.2-0.5,0.3-1.1,0.3
				c-0.4,0-0.6,0-0.8-0.1c-0.1-0.1-0.2-0.3-0.3-0.7c-0.1-0.5-0.3-0.8-0.7-0.8c-0.2,0-0.5,0.2-0.8,0.5c-0.4,0.4-0.7,0.5-1.2,0.5
				c-0.4,0-0.6,0.1-0.6,0.4c0,0.3-0.1,0.4-0.3,0.4s-0.3,0.2-0.3,0.6C225.3,78.9,225.4,79.2,225.5,79.2z"/>
			<path d="M251.3,101.5c0.3,0,0.6,0.1,0.9,0.4c0.3,0.3,0.5,0.4,0.6,0.2c0.1-0.2,1.5-0.4,4-0.4c2.1,0,3.2,0.1,3.2,0.3
				c0,0.2,0.2,0.3,0.5,0.3c0.4,0,0.6-0.1,0.6-0.2s0.2-0.3,0.6-0.5c0.4-0.2,0.6-0.4,0.6-0.6c0-0.9-0.7-1.4-1.9-1.5l-1.3-0.1l0.1-6.7
				c0.1-4.5,0.2-6.8,0.3-7c0.1-0.1,0.2-0.8,0.3-1.9c0.1-2.1,0.4-3.2,0.7-3.2c0.2,0,0.4-0.1,0.4-0.3c0-0.2,0.2-0.3,0.7-0.3
				c0.4,0,0.8-0.1,1-0.3c0.3-0.2,0.4-0.5,0.4-0.7c0-0.3-0.2-0.6-0.5-0.8c-0.3-0.2-1.4-0.3-3.4-0.3c-2,0-2.9,0.1-2.9,0.3
				c0,0.1-0.3,0.2-0.9,0.2s-0.9,0.1-0.9,0.4s-0.1,0.4-0.3,0.4s-0.3,0.2-0.3,0.6c0,0.5,0.1,0.8,0.4,0.9c0.3,0.1,0.4,0.9,0.4,2.5
				c0,1.6,0.1,2.4,0.3,2.5c0.2,0.1,0.3,0.8,0.3,2.2c0,1.3-0.1,2-0.3,2.1c-0.2,0.1-0.4,1.5-0.4,4.3c-0.1,2.4-0.2,3.9-0.4,4.3
				c-0.2,0.5-0.8,0.8-1.8,0.9c-0.6,0-0.9,0.1-1,0.2c-0.1,0.1-0.2,0.4-0.2,0.8C251,101.2,251.1,101.5,251.3,101.5z M257.4,86.9
				c0.3,0,0.4,0.2,0.4,0.6c0,0.4-0.1,0.5-0.4,0.5c-0.3,0-0.4-0.2-0.4-0.5C257,87.1,257.2,86.9,257.4,86.9z M255.8,94.9
				c0.2,0,0.4,0.1,0.4,0.3c0,0.2-0.1,0.3-0.4,0.3c-0.3,0-0.4-0.1-0.4-0.3C255.4,95,255.5,94.9,255.8,94.9z"/>
			<path d="M266.3,101.5c0.3,0,0.6,0.1,0.9,0.4c0.3,0.3,0.5,0.4,0.6,0.2c0.1-0.2,1.5-0.4,4-0.4c2.1,0,3.2,0.1,3.2,0.3
				c0,0.2,0.2,0.3,0.5,0.3c0.4,0,0.6-0.1,0.6-0.2s0.2-0.3,0.6-0.5c0.4-0.2,0.6-0.4,0.6-0.6c0-0.9-0.7-1.4-1.9-1.5l-1.3-0.1l0.1-6.7
				c0.1-4.5,0.2-6.8,0.3-7c0.1-0.1,0.2-0.8,0.3-1.9c0.1-2.1,0.4-3.2,0.7-3.2c0.2,0,0.4-0.1,0.4-0.3c0-0.2,0.2-0.3,0.7-0.3
				c0.4,0,0.8-0.1,1-0.3c0.3-0.2,0.4-0.5,0.4-0.7c0-0.3-0.2-0.6-0.5-0.8c-0.3-0.2-1.4-0.3-3.4-0.3c-2,0-2.9,0.1-2.9,0.3
				c0,0.1-0.3,0.2-0.9,0.2s-0.9,0.1-0.9,0.4s-0.1,0.4-0.3,0.4s-0.3,0.2-0.3,0.6c0,0.5,0.1,0.8,0.4,0.9c0.3,0.1,0.4,0.9,0.4,2.5
				c0,1.6,0.1,2.4,0.3,2.5c0.2,0.1,0.3,0.8,0.3,2.2c0,1.3-0.1,2-0.3,2.1c-0.2,0.1-0.4,1.5-0.4,4.3c-0.1,2.4-0.2,3.9-0.4,4.3
				c-0.2,0.5-0.8,0.8-1.8,0.9c-0.6,0-0.9,0.1-1,0.2c-0.1,0.1-0.2,0.4-0.2,0.8C266,101.2,266.1,101.5,266.3,101.5z M272.5,86.9
				c0.3,0,0.4,0.2,0.4,0.6c0,0.4-0.1,0.5-0.4,0.5c-0.3,0-0.4-0.2-0.4-0.5C272,87.1,272.2,86.9,272.5,86.9z M270.8,94.9
				c0.2,0,0.4,0.1,0.4,0.3c0,0.2-0.1,0.3-0.4,0.3c-0.3,0-0.4-0.1-0.4-0.3C270.4,95,270.5,94.9,270.8,94.9z"/>
			<path d="M146.8,788.6c0-0.1,0-0.2-0.1-0.2c-0.1,0-0.1,0-0.1,0.1l0.1,0.2C146.8,788.8,146.8,788.8,146.8,788.6z"/>
			<path d="M152.7,789.3c0-0.6-0.1-0.9-0.2-1.1c-0.1-0.2-0.3-0.4-0.6-0.5c-0.3-0.1-0.5-0.3-0.5-0.4c-0.1-0.1-0.3-0.3-0.9-0.6
				c-0.5-0.3-1-0.5-1.3-0.6c-0.2-0.1-0.5-0.2-0.9-0.5c-0.4-0.3-0.6-0.4-0.6-0.5c0-0.1-0.1-0.2-0.2-0.3c-0.2-0.1-0.2-0.2-0.2-0.3
				c0,0,0-0.1,0-0.1c0.1-0.1,0.1-0.2,0.1-0.3s0-0.3-0.1-0.6c0-0.1,0-0.2,0-0.2c0,0,0.2-0.1,0.3-0.1c0.3,0,0.4-0.1,0.4-0.2
				c0-0.1,0.1-0.2,0.4-0.4c0.3-0.2,0.4-0.3,0.4-0.3c0-0.1,0.1-0.1,0.4-0.2c0.1,0,0.1,0,0.2,0c0.4,0,0.8,0.2,1.2,0.5
				c0.5,0.3,0.7,0.6,0.7,0.9c0,0.2,0.1,0.4,0.3,0.5c0.2,0.1,0.3,0.3,0.3,0.4c0,0.1,0.1,0.3,0.2,0.5s0.3,0.3,0.4,0.3c0,0,0,0,0.1,0
				c0.1-0.1,0.1-0.7,0.2-2v-0.8c0-0.6-0.1-0.9-0.2-0.9c-0.1,0-0.1,0-0.1,0c-0.3,0.1-0.6,0.2-0.8,0.2c-0.3,0-0.6-0.1-1-0.3
				c-0.4-0.2-0.6-0.3-0.7-0.3c0,0-0.1,0-0.2,0.1c-0.3,0.1-0.6,0.1-0.8,0.1c-0.3,0-0.4,0-0.5,0.1c0,0.1-0.1,0.2-0.3,0.2
				c-0.2,0-0.4-0.1-0.5-0.2c-0.1-0.1-0.3-0.2-0.5-0.2h0c-0.1,0-0.1,0-0.1,0c-0.1,0-0.1,0-0.1,0c0,0,0.1,0,0.1,0
				c0.1,0.1,0.2,0.1,0.2,0.2c0,0.2-0.2,0.3-0.5,0.4c-0.3,0.1-0.4,0.2-0.4,0.4c0.1,0.2,0,0.3-0.2,0.4c-0.3,0.1-0.6,0.5-1.1,1.1
				c-0.1,0.2-0.2,0.4-0.2,0.6c0,0,0,0.3,0.1,0.8c0.1,0.7,0.3,1.1,0.4,1.3c0.1,0.2,0.4,0.4,0.7,0.7c0.4,0.3,0.6,0.4,0.8,0.4
				c0.1,0,0.3,0.1,0.6,0.4c0.4,0.3,0.9,0.6,1.7,0.8c0.5,0.1,0.8,0.3,1.1,0.6c0.2,0.2,0.3,0.4,0.5,0.7c0.1,0.3,0.2,0.5,0.2,0.7
				c0,0.1,0,0.1-0.1,0.2c-0.1,0-0.1,0.2-0.1,0.4c0.1,0.2,0,0.4-0.2,0.6c-0.1,0.1-0.2,0.3-0.2,0.4c0,0.2-0.5,0.4-1.4,0.5
				c-0.1,0-0.3,0-0.6,0c-0.9,0-1.7-0.4-2.2-1.2c-0.3-0.4-0.5-0.8-0.5-1c0,0,0-0.1,0-0.2c0-0.1,0-0.2,0-0.2c0,0-0.1-0.1-0.1-0.1
				c-0.1,0-0.1,0-0.1-0.1c0.1-0.3-0.1-0.5-0.4-0.6c-0.1,0-0.2-0.1-0.3-0.1c-0.3,0-0.4,0.2-0.5,0.5c-0.1,1.2-0.1,1.9-0.2,1.9
				c-0.1,0.1-0.1,0.4-0.2,0.8c0,0.1,0,0.3,0,0.4c0,0.2,0.1,0.4,0.3,0.6c0.1,0.1,0.2,0.2,0.3,0.2c0,0,0.1,0,0.2-0.2
				c0.1-0.2,0.2-0.3,0.2-0.4c0-0.3,0.2-0.3,0.5-0.1c0.9,0.5,1.8,0.7,2.9,0.7c0.5,0,1.1-0.1,1.6-0.2c0.6-0.1,1.1-0.3,1.4-0.6
				c0.3-0.3,0.5-0.5,0.5-0.5c0-0.1,0.1-0.2,0.2-0.3c0.2-0.1,0.3-0.4,0.3-0.9c0.1-0.5,0.1-0.7,0.2-0.7s0.1,0,0-0.1
				C152.8,790.4,152.7,790,152.7,789.3z M148.3,787.8C148.3,787.8,148.2,787.8,148.3,787.8c-0.1-0.1-0.1-0.1,0-0.1
				S148.4,787.7,148.3,787.8C148.4,787.8,148.4,787.8,148.3,787.8z"/>
			<path d="M159.8,790.8c0,0.1,0,0.2,0.1,0.2c0.1,0,0.1-0.1,0.2-0.1c0.1-0.2,0.1-0.3-0.1-0.3C159.9,790.6,159.8,790.7,159.8,790.8z"
				/>
			<path d="M170.6,789.1c-0.1,0-0.3,0.2-0.5,0.5c-0.3,0.4-0.4,0.6-0.4,0.7c0,0.1-0.1,0.2-0.4,0.2c-0.2,0-0.3,0.1-0.3,0.1
				c0,0,0,0.1,0,0.3v0.2c0,0.2-0.1,0.3-0.4,0.3c0,0-0.1,0-0.2,0c-0.1,0-0.1,0-0.2,0c-0.2,0-0.4,0.1-0.7,0.4
				c-0.2,0.2-0.4,0.3-0.6,0.3c-0.1,0-0.2-0.1-0.2-0.2c-0.1-0.1-0.2-0.1-0.4,0c-0.2,0.1-0.6,0.2-1.2,0.2c-0.5,0-0.7,0-0.7-0.1
				c0-0.1-0.1-0.1-0.2-0.1c-0.1,0-0.1-0.1-0.2-0.2s-0.1-0.3-0.1-0.5c0,0,0-0.6,0.1-1.8c0-1.2,0.1-1.8,0.1-1.8c0-0.1,0.5-0.1,1.4-0.1
				c0.8,0,1.3,0.1,1.5,0.2c0.3,0.1,0.4,0.4,0.4,0.8c0,0.2,0,0.3,0.1,0.3c0,0,0.1,0,0.2,0c0.2-0.1,0.4-0.1,0.6-0.1h0.1
				c0.2,0,0.3-0.2,0.3-0.6c0-0.1,0-0.2,0-0.3c0-0.2,0-0.3,0-0.4V787c0-0.4,0-0.6,0.1-0.6c0.1-0.1,0.1-0.3,0-0.4
				c-0.1-0.1-0.1-0.3,0.1-0.4c0.2-0.1,0.2-0.2,0.2-0.4c0-0.3-0.4-0.4-1.1-0.4c-0.4,0-0.6,0.2-0.6,0.5c0,0.1,0,0.2,0.1,0.3
				c0.1,0.2,0,0.3-0.1,0.5c-0.1,0.1-0.4,0.2-0.9,0.3c-0.6,0.1-1.1,0.2-1.6,0.2h-0.6v-0.6c0-0.4,0.1-0.6,0.2-0.6
				c0.1,0,0.2-0.1,0.2-0.4c0-0.3-0.1-0.6-0.2-0.9c-0.1-0.2-0.2-0.4-0.2-0.4c0-0.1,0.1-0.1,0.2-0.3c0.2-0.2,0.3-0.3,0.2-0.5
				c0,0,0-0.1,0-0.2c0-0.2,0.1-0.3,0.4-0.4c0.3-0.1,0.8-0.1,1.5-0.2c0.6,0,1-0.1,1.1-0.1c0.4,0,0.6,0.1,0.7,0.2
				c0.2,0.2,0.3,0.3,0.5,0.4c0.2,0.1,0.3,0.2,0.3,0.3c0,0.1,0.1,0.2,0.4,0.4c0.2,0.1,0.4,0.3,0.4,0.3c0,0.2,0.1,0.3,0.3,0.5
				c0.2,0.2,0.4,0.3,0.6,0.3h0.1c0.3,0,0.4-0.2,0.4-0.7c0-0.2-0.1-0.4-0.2-0.5c-0.1-0.2-0.2-0.4-0.2-0.6c0-0.3-0.1-0.5-0.2-0.5
				c-0.1-0.1-0.1-0.2,0-0.4c0.1-0.1,0.1-0.2,0.1-0.3c0-0.1-0.1-0.1-0.2-0.2c-0.1-0.1-0.2-0.2-0.2-0.3c0-0.1-0.1-0.3-0.3-0.5
				c-0.1-0.1-0.2-0.2-0.3-0.2c-0.1,0-0.2,0-0.3,0.1c-0.2,0.1-1.9,0.3-5,0.4h-0.7c-1.5,0-2.3-0.1-2.4-0.3c0-0.1-0.1-0.1-0.3-0.1
				c-0.1,0-0.2,0-0.2,0.1c0,0.1-0.1,0.2-0.1,0.3c0,0.2,0,0.3,0,0.3c0,0.2-0.1,0.3-0.3,0.4c-0.2,0-0.3,0.2-0.2,0.5
				c0.1,0.2,0.1,0.4,0.2,0.5c0.1,0.1,0.2,0.1,0.3,0.1s0.3,0,0.4,0c0.1,0,0.1,0,0.2,0c0.1,0,0.1,0,0.2,0c0.4,0,0.6,0.1,0.7,0.4
				c0.1,0.2,0.1,0.8,0.1,1.5c0,0.9-0.1,1.4-0.2,1.5c-0.1,0-0.1,0.2,0,0.4c0.1,0.3,0.1,0.5,0,0.7c-0.1,0.2-0.2,0.3-0.3,0.3
				c-0.1,0-0.1,0.1,0.1,0.2c0.1,0.1,0.1,0.3,0.1,0.6c0,0.3-0.1,1.3-0.2,3l-0.1,1H161c-0.4,0-0.6,0.1-0.7,0.3
				c-0.1,0.2-0.2,0.3-0.3,0.3c-0.2,0-0.2,0.1-0.2,0.4c0,0.3,0.1,0.5,0.3,0.6c0.2,0.1,0.3,0.3,0.3,0.4c0,0.1,0.1,0.2,0.3,0.2
				s0.5,0,0.8-0.1s0.5-0.2,0.6-0.2c0.2-0.1,0.6-0.2,1.2-0.2c0.1,0,0.6,0,1.5,0.1c0.8,0,1.2,0.1,1.2,0.2c0.1,0.1,0.2,0.1,0.4,0
				c0.3-0.1,0.8-0.2,1.6-0.2c0.9,0,1.4,0,1.6-0.1s0.3-0.1,0.5-0.2c0.2-0.2,0.3-0.4,0.2-0.6c-0.1-0.2,0-0.4,0.2-0.4
				c0.1-0.1,0.2-0.4,0.2-0.8c0-0.3,0-0.5,0.1-0.6c0-0.1,0.1-0.1,0.2-0.1c0.2,0,0.3-0.2,0.3-0.5c0-0.3-0.1-0.5-0.2-0.7
				C170.9,789.2,170.8,789.1,170.6,789.1z"/>
			<path d="M190.3,779.9h-2c-1.3,0-2,0-2,0.1c0,0.1-0.1,0.2-0.2,0.2c-0.1,0-0.3,0.1-0.5,0.4c-0.2,0.2-0.2,0.4-0.1,0.4
				c0.1,0,0.2,0.1,0.3,0.2c0.1,0.1,0.2,0.2,0.6,0.2c0.2,0,0.3,0,0.4,0.1c0.1,0.1,0.1,0.2,0.2,0.3c0.1,0.2,0,0.4-0.1,0.4
				c-0.1,0-0.2,0.3-0.2,0.6c0,0.4-0.1,0.6-0.2,0.7c-0.2,0.1-0.2,0.2-0.2,0.4c0,0,0,0.1,0,0.2c0,0.3-0.1,0.5-0.2,0.8
				c-0.1,0.3-0.2,0.4-0.4,0.5c-0.2,0.1-0.3,0.2-0.3,0.5c0,0.3,0,0.5-0.1,0.6c-0.1,0.1-0.2,0.4-0.2,0.9c-0.1,0.5-0.2,0.8-0.3,0.8
				c-0.1,0-0.2,0.1-0.2,0.2v0.2c0,0.1-0.1,0.2-0.2,0.2c-0.2,0-0.4,0-0.5-0.1c-0.2-0.2-0.4-0.7-0.4-1.5c0-0.3-0.1-0.5-0.2-0.8
				c-0.1-0.2-0.2-0.5-0.2-0.9c0-0.8-0.2-1.2-0.5-1.4c-0.1-0.1-0.1-0.1,0-0.2c0.1-0.1,0.2-0.2,0.2-0.5c0-0.2,0-0.3-0.1-0.3
				c-0.1,0-0.1-0.1-0.2-0.4c-0.1-0.3-0.2-0.4-0.4-0.5c-0.2-0.1-0.2-0.1-0.2-0.2c0-0.2,0.2-0.3,0.7-0.3c0.7,0,1.1-0.1,1.1-0.4
				c0-0.1,0.1-0.2,0.2-0.2c0.1,0,0.1-0.1-0.2-0.4c-0.2-0.3-0.5-0.4-0.8-0.4c-0.4,0-0.6-0.1-0.6-0.2c-0.1-0.1-0.2-0.1-0.4,0.1
				c-0.2,0.1-0.3,0.1-0.4,0c-0.1-0.1-0.2-0.2-0.2,0c-0.1,0.1-0.3,0.2-0.6,0.2c-0.2,0-0.3,0-0.4-0.1c-0.1-0.1-0.1-0.2-0.2-0.4
				c-0.1-0.3-0.2-0.4-0.4-0.4c-0.1,0-0.3,0.1-0.5,0.3c-0.2,0.2-0.4,0.3-0.6,0.3c-0.2,0-0.3,0.1-0.3,0.2c0,0.1,0,0.2-0.1,0.2
				c-0.1,0-0.1,0.1-0.1,0.4c0,0.2,0,0.4,0.1,0.4c0.1,0,0.1,0.1,0.1,0.2c0,0.1,0.2,0.2,0.5,0.3c0.3,0.1,0.6,0.2,0.8,0.5
				c0.2,0.3,0.4,0.6,0.4,0.9c0,0.3,0.1,0.5,0.2,0.9c0.1,0.3,0.2,0.5,0.3,0.5c0.1,0,0.1,0.2,0.1,0.5c0,0.3,0.1,0.5,0.3,0.7
				c0.2,0.2,0.3,0.5,0.4,1c0.1,0.5,0.2,0.9,0.2,1.4c0,0.5,0.1,0.7,0.2,0.8c0.1,0,0.2,0.1,0.1,0.3c0,0.2,0,0.3,0.1,0.4
				c0.1,0.1,0.2,0.4,0.2,0.9c0,0.5,0.1,0.8,0.2,0.8c0.1,0,0.2,0.2,0.3,0.6c0.1,0.4,0.2,0.6,0.3,0.6c0.1,0,0.2,0.1,0.3,0.4
				c0.1,0.4,0.3,0.6,0.7,0.6c0.1,0,0.2,0,0.3-0.1c0.2,0,0.3-0.1,0.3-0.1c0-0.1,0.1-0.2,0.1-0.4c0-0.3,0.1-0.5,0.2-0.5
				c0.1,0,0.1-0.2,0.1-0.5c0-0.3,0.1-0.5,0.2-0.5c0.1-0.1,0.2-0.3,0.2-0.8c0-0.5,0.1-0.8,0.4-1.1c0.1-0.1,0.2-0.2,0.4-0.3
				c0.2-0.1,0.3-0.2,0.3-0.3c0.1-0.1,0.1-0.3,0.1-0.6c0-0.4,0.1-0.6,0.2-0.8c0.1-0.1,0.2-0.3,0.3-0.8c0.1-0.5,0.2-0.7,0.3-0.8
				c0.1-0.1,0.2-0.3,0.2-0.5c0-0.2,0.1-0.4,0.4-0.4c0.1,0,0.1,0,0.2,0c0.1,0,0.1,0,0.1-0.1c0,0,0-0.1,0.1-0.1c0,0,0-0.1,0-0.1
				c0-0.1,0-0.3,0-0.5c0-0.6,0.1-0.8,0.3-0.8c0.2,0,0.3-0.1,0.3-0.4c0-0.3,0.1-0.5,0.4-0.7c0.2-0.2,0.5-0.4,0.8-0.4
				c0.4-0.1,0.7-0.3,0.7-0.8c0-0.1,0-0.2-0.1-0.4L190.3,779.9z"/>
			<path d="M207.7,789.1c-0.1,0-0.3,0.2-0.5,0.5c-0.3,0.3-0.4,0.6-0.4,0.7c0,0.1-0.1,0.2-0.4,0.2c-0.1,0-0.2,0-0.3,0.1
				c0,0-0.1,0.1-0.1,0.1c0,0,0,0.1,0,0.3c0,0.2-0.1,0.3-0.4,0.3c0,0-0.1,0-0.1,0c-0.1,0-0.1,0-0.2,0c-0.2,0-0.4,0.1-0.6,0.3
				c-0.2,0.2-0.4,0.3-0.6,0.3c-0.1,0-0.2-0.1-0.2-0.2c0-0.1-0.1-0.1-0.4,0c-0.2,0.1-0.6,0.2-1.2,0.2c-0.5,0-0.7,0-0.7-0.1
				c0-0.1-0.1-0.1-0.2-0.1c-0.1,0-0.1-0.1-0.2-0.2c-0.1-0.2-0.1-0.3-0.1-0.4c0-0.1,0-0.2,0-0.3c0-0.2,0-0.4,0-0.6c0-0.3,0-0.5,0-0.8
				c0-0.3,0-0.5,0-0.8c0-0.3,0-0.5,0-0.6v-0.2c0-0.1,0.4-0.1,1.3-0.1c0.7,0,1.2,0.1,1.4,0.2c0.2,0.1,0.4,0.4,0.4,0.8
				c0,0.2,0,0.3,0.1,0.3c0,0,0.1,0,0.2,0c0.1-0.1,0.3-0.1,0.5-0.1c0.1,0,0.2,0,0.3-0.1c0-0.1,0.1-0.2,0.1-0.5c0-0.1,0-0.2,0-0.3
				c0-0.2,0-0.3,0-0.4v-0.2c0-0.3,0-0.6,0.1-0.7c0.1-0.1,0.1-0.3,0-0.4c-0.1-0.1-0.1-0.3,0.1-0.4c0.1-0.1,0.2-0.2,0.2-0.4
				c0-0.3-0.3-0.4-1-0.4c-0.4,0-0.6,0.2-0.6,0.5c0,0.1,0,0.2,0.1,0.3c0,0.2,0,0.4,0,0.5c-0.1,0.1-0.3,0.2-0.9,0.3
				c-0.5,0.1-1,0.1-1.5,0.1h-0.6V786c0-0.4,0.1-0.6,0.2-0.6c0.1,0,0.2-0.1,0.2-0.4c0-0.3-0.1-0.5-0.2-0.9c-0.1-0.2-0.2-0.4-0.1-0.4
				c0-0.1,0.1-0.1,0.2-0.3c0.2-0.1,0.3-0.3,0.2-0.5c0,0,0-0.1,0-0.2c0-0.1,0.1-0.3,0.4-0.3c0.3-0.1,0.7-0.1,1.5-0.2
				c0.7,0,1.1-0.1,1.1-0.1c0.3,0,0.5,0.1,0.6,0.2c0.1,0.2,0.3,0.3,0.5,0.4c0.2,0.1,0.3,0.2,0.3,0.3c0,0.1,0.1,0.2,0.3,0.3
				c0.2,0.1,0.3,0.2,0.3,0.3c0,0.2,0.1,0.3,0.3,0.5c0.2,0.2,0.4,0.2,0.6,0.2h0c0.3,0,0.4-0.2,0.4-0.6c0-0.2-0.1-0.3-0.2-0.5
				c-0.1-0.1-0.2-0.3-0.2-0.5c0-0.3-0.1-0.5-0.2-0.5c-0.1,0-0.1-0.1,0-0.4c0.1-0.1,0.1-0.2,0.1-0.3c0,0-0.1-0.1-0.1-0.1
				c-0.1-0.1-0.2-0.2-0.2-0.3c0-0.1-0.1-0.3-0.3-0.5c-0.2-0.2-0.4-0.3-0.6-0.1c-0.3,0.1-1.8,0.3-4.7,0.4h-0.7
				c-1.5,0-2.2-0.1-2.3-0.3c0-0.1-0.1-0.1-0.2-0.1c-0.1,0-0.2,0-0.2,0.1l0,0.1c0,0.1,0,0.1,0,0.1c0,0,0,0.1,0,0.2c0,0.1,0,0.2,0,0.2
				c0,0.2-0.1,0.3-0.3,0.3c-0.2,0.1-0.3,0.2-0.2,0.5c0.1,0.2,0.1,0.4,0.2,0.5s0.2,0.1,0.3,0.1c0.1,0,0.3,0,0.4,0c0.1,0,0.2,0,0.4,0
				c0.3,0,0.5,0.1,0.6,0.4c0.1,0.2,0.1,0.7,0.1,1.4c0,0.9-0.1,1.4-0.2,1.4c-0.1,0-0.1,0.2,0,0.4c0.1,0.2,0.1,0.4,0,0.6
				c-0.1,0.2-0.2,0.3-0.3,0.3c-0.1,0-0.1,0.1,0.1,0.2c0.1,0.1,0.1,0.3,0.1,0.6c0,0.5-0.1,1.5-0.2,2.8l-0.1,0.9h-0.6
				c-0.4,0-0.6,0.1-0.6,0.3c0,0.2-0.1,0.3-0.3,0.3c-0.1,0-0.2,0.1-0.2,0.3c0,0.3,0.1,0.5,0.3,0.6c0.2,0.1,0.3,0.2,0.3,0.4
				c0,0.1,0.2,0.1,0.7,0.1c0.5,0,0.8-0.1,0.9-0.3c0.1-0.1,0.5-0.2,1.2-0.2c0.5,0,0.9,0,1.3,0c0.7,0,1.1,0.1,1.2,0.2
				c0,0.1,0.2,0.1,0.4,0c0.2-0.1,0.7-0.2,1.5-0.2c0.8,0,1.3,0,1.5-0.1c0.2,0,0.3-0.1,0.5-0.3c0.2-0.2,0.3-0.3,0.2-0.5
				c0-0.2,0-0.3,0.1-0.4c0.1-0.1,0.2-0.3,0.2-0.8c0-0.3,0-0.5,0-0.6c0-0.1,0.1-0.1,0.2-0.1c0.2,0,0.3-0.2,0.3-0.5
				c0-0.2-0.1-0.4-0.2-0.6C208,789.2,207.8,789.1,207.7,789.1z"/>
			<path d="M197.4,790.7c0,0.1,0,0.2,0.1,0.2c0,0,0.1,0,0.1-0.1c0.1-0.2,0.1-0.3,0-0.3C197.5,790.5,197.4,790.6,197.4,790.7z"/>
			<path d="M228.3,780.9c-0.1,0-0.2,0-0.3,0.1c-0.2,0.1-0.3,0.1-0.3,0.1c-0.1,0-0.1-0.1-0.2-0.2c-0.1-0.2-0.3-0.3-0.4-0.3
				c-0.1,0-0.2-0.1-0.2-0.3c0-0.2-0.1-0.3-0.3-0.3c-0.2,0-0.3,0.1-0.3,0.3c0,0.2,0.1,0.3,0.2,0.3s0.2,0.1,0.2,0.3
				c0,0.2-0.1,0.3-0.2,0.3c-0.2,0-0.3-0.1-0.3-0.4c-0.1-0.2-0.2-0.4-0.3-0.4c-0.1,0-0.1,0-0.2,0.1c-0.2,0.2-0.2,0.3,0,0.3
				c0.1,0,0.2,0.1,0.2,0.1c0,0.1-0.1,0.2-0.4,0.2c-0.2,0-0.4,0-0.4-0.1s-0.1-0.1-0.4-0.1c-0.4,0-0.8,0.1-1.1,0.2
				c-0.4,0.2-0.6,0.4-0.6,0.7c0,0.3,0.3,0.5,0.8,0.6c0.4,0.1,0.6,0.1,0.6,0.2c0,0.1,0.1,0.1,0.3,0.1c0.3,0,0.5,0.2,0.6,0.6
				c0.1,0.4,0.2,1.2,0.2,2.4c0,1.4,0.1,2.2,0.1,2.4c0.1,0.1,0,0.3,0,0.6l-0.1,0.4l-0.5-0.5c-0.4-0.3-0.5-0.5-0.5-0.6
				c0-0.1-0.1-0.2-0.2-0.3c-0.1-0.1-0.3-0.2-0.4-0.4c-0.2-0.1-0.3-0.2-0.3-0.2c-0.1-0.1-0.3-0.2-0.3-0.2c-0.1,0-0.2-0.1-0.2-0.2
				c0-0.1-0.1-0.2-0.2-0.3c-0.1-0.1-0.3-0.2-0.4-0.2s-0.1-0.1-0.1-0.2c0-0.1-0.1-0.2-0.2-0.2c-0.1,0-0.1,0-0.1-0.1
				c0-0.1-0.1-0.2-0.4-0.5c-0.2-0.3-0.4-0.4-0.4-0.5c0-0.1-0.1-0.2-0.3-0.2c-0.2,0-0.3-0.1-0.5-0.2c-0.2-0.1-0.2-0.3-0.2-0.4
				c0-0.1-0.2-0.3-0.5-0.7c-0.3-0.4-0.5-0.6-0.5-0.7c0-0.1-0.1-0.2-0.3-0.4c-0.2-0.2-0.3-0.4-0.3-0.4c0-0.3-0.6-0.5-1.8-0.6
				c-0.6,0-0.9-0.1-0.9-0.1c-0.3,0-0.4,0.1-0.4,0.2c0,0.1,0,0.2,0,0.4c0,0.2,0,0.4,0.1,0.6c0.1,0.2,0.1,0.3,0.2,0.3
				c0.1,0,0.2,0.2,0.3,0.6c0.1,0.4,0.2,0.6,0.2,0.6c0.1,0,0.1,0.3,0.1,0.8c0,0.5,0,0.8-0.1,0.8c-0.1,0-0.1,0.1-0.1,0.4
				c0,0.2,0.1,0.6,0.2,1c0.1,0.2,0.1,0.6,0.1,1.1c0,0.7-0.1,1.1-0.2,1.1c-0.1,0-0.1,0.2-0.1,0.7c0,0.5,0,1.1-0.1,1.5
				c0,0.4-0.1,0.6-0.1,0.7c-0.1,0.1-0.2,0.2-0.4,0.2c-0.3,0.1-0.4,0.2-0.4,0.4c0,0.2,0.1,0.4,0.4,0.6c0.2,0.2,0.3,0.3,0.5,0.3
				s0.8,0,1.7,0c1,0,1.6,0,1.8-0.1c0.2-0.1,0.3-0.3,0.3-0.8c0-0.3-0.1-0.4-0.3-0.5c-0.2-0.1-0.3-0.1-0.3-0.2c0-0.1-0.2-0.1-0.6-0.1
				c-0.4,0-0.7-0.1-0.9-0.3c-0.2-0.2-0.2-0.3-0.1-0.4c0.1-0.1,0.2-0.2,0.2-0.6c0-0.3,0-0.5-0.1-0.5c-0.1-0.1-0.1-0.9-0.1-2.6
				c0-1.7,0.1-2.5,0.2-2.5c0.1,0,0.3,0.1,0.4,0.2c0.1,0.1,0.3,0.2,0.5,0.3c0.3,0.1,0.4,0.3,0.5,0.4c0,0.2,0.3,0.5,0.8,1.1
				c0.5,0.5,0.9,0.9,1.3,1.1c0.2,0.1,0.3,0.2,0.3,0.3c0,0.1,0.2,0.2,0.5,0.6c0.7,0.7,1.1,1.1,1.1,1.4c0,0.1,0.1,0.1,0.3,0.1
				c0.2,0,0.3,0,0.3,0.1c0,0.1,0.1,0.3,0.4,0.5c0.2,0.2,0.4,0.4,0.4,0.6c0,0.1,0.1,0.3,0.3,0.5c0.2,0.2,0.3,0.3,0.4,0.3
				c0.1,0,0.3,0.2,0.6,0.5c0.3,0.3,0.5,0.5,0.7,0.6c0.1,0.1,0.2,0.1,0.3,0.1c0.4,0,0.6-0.2,0.6-0.6c0-0.1,0-0.2,0-0.4
				c0-0.9-0.1-1.4-0.2-1.6c-0.1-0.1-0.1-0.5-0.1-1.3v-0.4c0-1,0-1.6-0.1-1.6c-0.1-0.1-0.2-0.4-0.2-1c0-0.5,0-0.8,0.1-0.8
				c0.1-0.1,0.2-0.2,0.2-0.5c0-0.3,0-0.4,0.1-0.4c0.1,0,0.1-0.1,0.1-0.4c0-0.3,0-0.4-0.1-0.4c-0.1,0-0.1-0.1-0.1-0.4
				c0-0.4,0.1-0.7,0.2-1c0.2-0.3,0.4-0.5,0.7-0.5c0.2,0,0.4-0.1,0.4-0.1s0.1-0.2,0.1-0.5v-0.2C228.6,781.1,228.5,780.9,228.3,780.9z
				"/>
			<path d="M259.9,784.5c-0.2-0.1-0.2-0.2-0.2-0.5c0-0.3,0-0.5-0.1-0.5c-0.1,0-0.1-0.1-0.1-0.4s-0.1-0.4-0.2-0.4
				c-0.1,0-0.2-0.1-0.3-0.3s-0.2-0.3-0.3-0.4c-0.1-0.1-0.2-0.2-0.2-0.4c0-0.2-0.1-0.3-0.4-0.3c-0.7,0-1-0.1-1-0.4
				c0-0.1-0.1-0.2-0.2-0.2c-0.1,0-0.2,0-0.2-0.1c0-0.1-0.1-0.1-0.3-0.1c-0.2,0-0.3-0.1-0.4-0.2c0-0.1-0.5-0.2-1.5-0.2
				c-0.9,0-1.5,0.1-1.6,0.2c-0.1,0.1-0.2,0.2-0.4,0.2c-0.2,0-0.3,0.1-0.4,0.3c-0.1,0.2-0.3,0.4-0.6,0.4c-0.3,0-0.6,0.1-1.1,0.2
				c-0.5,0.1-0.7,0.3-0.8,0.5c0,0.2-0.2,0.4-0.5,0.7c-0.3,0.3-0.4,0.5-0.4,0.5c0,0.1-0.1,0.1-0.2,0.1c-0.1,0-0.2,0.1-0.3,0.4
				c-0.1,0.2-0.2,0.5-0.3,0.7c-0.2,0.3-0.2,0.8-0.2,1.8c0,1.2,0.1,2.1,0.4,2.9c0.5,1.4,0.9,2.2,1.2,2.3c0.2,0,0.3,0.1,0.3,0.3
				c0,0.2,0.2,0.2,0.4,0.2c0.2,0,0.4,0,0.4,0.1c0,0.1,0.1,0.1,0.3,0.1c0.2,0,0.3,0.1,0.3,0.4c0,0.2,0,0.3,0.1,0.4
				c0.1,0.1,0.2,0,0.4-0.1c0.1-0.1,0.2-0.1,0.3,0c0.2,0.1,0.9,0.2,2.2,0.2c1.1,0,1.7-0.1,1.7-0.2c0-0.1,0.3-0.2,0.7-0.2
				c0.4,0,0.6-0.1,0.6-0.2c0-0.2,0.1-0.3,0.2-0.3c0,0,0.2-0.1,0.4-0.3c0.3-0.2,0.4-0.3,0.5-0.3c0.1,0,0.2-0.1,0.2-0.3
				c0.1-0.2,0.2-0.3,0.3-0.3c0.1,0,0.2-0.1,0.3-0.3c0-0.2,0.2-0.3,0.4-0.3c0.2-0.1,0.3-0.1,0.3-0.2c0-0.1,0.1-0.1,0.2-0.1
				c0.1,0,0.2-0.2,0.2-0.6c0-0.3,0-0.5-0.1-0.5c-0.1,0-0.1-0.1,0-0.2c0.1-0.1,0.2-0.8,0.2-2.1c0-0.3,0-0.7,0-1.1
				C260.2,784.9,260.1,784.6,259.9,784.5z M257.7,787.7c-0.1,0-0.2,0.2-0.2,0.4c0,0.3-0.1,0.4-0.2,0.5c-0.1,0.1-0.2,0.4-0.3,0.8
				c-0.1,0.4-0.1,0.6-0.3,0.6c-0.1,0-0.2,0-0.2,0.1c0,0.1-0.1,0.2-0.4,0.2c-0.3,0.1-0.4,0.2-0.4,0.3c0,0.1,0,0.2-0.1,0.2
				c-0.1,0.1-0.2,0.1-0.4,0.2c-0.1,0.1-0.2,0.1-0.3,0.1c0,0.1-0.2,0.1-0.4,0.1c-0.2,0-0.3,0.1-0.5,0.2c-0.1,0.1-0.2,0.1-0.4,0.1
				c-0.2,0-0.4,0-0.7-0.1c-0.5-0.1-1-0.3-1.3-0.6c-0.3-0.3-0.7-0.8-1-1.5c-0.3-0.5-0.4-0.9-0.5-1.1c0-0.2-0.1-0.7-0.1-1.4
				c0-0.7,0-1.1,0.1-1.4c0-0.2,0.1-0.5,0.3-0.8c0.3-0.5,0.6-0.9,1-1.3c0.4-0.4,0.8-0.6,1-0.7c0.3,0,0.5-0.1,0.5-0.3
				c0-0.1,0.1-0.2,0.2-0.2c0.1,0,0.2,0,0.2-0.1c0-0.1,0.1-0.1,0.3-0.1c0.2,0,0.3,0,0.3,0.1c0,0.1,0.3,0.1,0.9,0.1
				c0.5,0,0.8,0.1,0.8,0.2c0,0.1,0.1,0.2,0.3,0.3c0.2,0.1,0.3,0.2,0.3,0.3c0,0.1,0.1,0.2,0.3,0.3c0.3,0.1,0.5,0.4,0.5,0.8
				c0,0.2,0.1,0.5,0.3,0.8c0.2,0.3,0.3,0.7,0.3,1.1c0,0.5,0,0.7,0.1,0.8c0.1,0.1,0.1,0.2,0.1,0.4
				C257.9,787.4,257.9,787.6,257.7,787.7z"/>
			<path d="M277.7,782.7c0-0.3-0.1-0.5-0.2-0.6c-0.1-0.1-0.1-0.2,0-0.4c0.1-0.1,0.1-0.2,0.1-0.2c0-0.1-0.1-0.2-0.2-0.2
				s-0.2-0.2-0.2-0.3c0-0.2-0.1-0.3-0.3-0.5c-0.2-0.2-0.4-0.3-0.5-0.3c-0.1,0-0.2,0-0.2,0.1c0,0.1-0.3,0.1-0.9,0.2
				c-0.5,0.1-1.1,0.1-1.7,0.1c-0.6,0-0.9,0-1,0.1c-0.1,0-0.5,0.1-1.4,0.1c-0.9,0.1-1.8,0.2-2.7,0.3c-0.9,0.1-1.4,0.2-1.4,0.2
				c0,0,0,0.1,0,0.2c0,0.1,0,0.2,0.1,0.3c0.1,0.2,0.1,0.3,0.2,0.4c0.1,0,0.3,0.1,0.6,0.1c0.5,0,0.9,0.1,1,0.3
				c0.1,0.2,0.2,0.7,0.2,1.6c0,0.9-0.1,1.4-0.2,1.5c-0.1,0.1-0.1,0.2,0,0.4c0.1,0.3,0.2,0.5,0,0.7c-0.1,0.2-0.2,0.3-0.3,0.3
				c-0.1,0,0,0.1,0.1,0.2c0.1,0.1,0.1,0.3,0.1,0.6c0,0.1,0,0.4-0.1,0.8c-0.1,1.4-0.2,2.3-0.2,2.6c-0.1,0.4-0.1,0.5-0.3,0.6
				c-0.2,0.1-0.5,0.3-0.8,0.6l-0.5,0.6h5v-0.5c0-0.2,0-0.4-0.1-0.4c0-0.1-0.1-0.1-0.3-0.1c-0.2,0-0.4,0-0.4-0.1s-0.1-0.1-0.2-0.1
				c-0.1,0-0.2-0.1-0.3-0.3c0-0.1,0-0.4,0-1.2c0-1.2,0-2.1,0.1-2.8c0-0.1,0.5-0.1,1.4-0.1c0.8,0,1.3,0.1,1.5,0.2
				c0.3,0.1,0.4,0.4,0.4,0.9c0,0.3,0,0.5,0.1,0.5c0.1,0,0.1-0.1,0.3-0.2c0.1-0.1,0.3-0.2,0.5-0.1c0.2,0.1,0.3,0,0.3-0.2
				c0-0.2,0-0.3,0.1-0.4c0.1-0.1,0.1-0.2,0-0.2c-0.1-0.1-0.2-0.3-0.2-0.6c0-0.4,0.1-0.7,0.2-0.8c0.1-0.1,0.1-0.1,0.1-0.2
				c0-0.1,0-0.1-0.1-0.2c-0.1-0.1-0.1-0.2-0.1-0.2c0-0.1,0-0.1,0.1-0.2c0.2-0.1,0.2-0.2,0.2-0.4c0-0.3-0.4-0.4-1.1-0.4
				c-0.4,0-0.6,0.2-0.6,0.5c0,0.1,0,0.2,0.1,0.3c0.1,0.2,0,0.4,0,0.5c-0.1,0.1-0.4,0.2-1,0.3c-0.6,0.1-1.1,0.2-1.6,0.2h-0.5V786
				c0-0.4,0.1-0.6,0.2-0.7c0.1-0.1,0.2-0.2,0.2-0.4c0-0.3-0.1-0.5-0.2-0.8c-0.1-0.2-0.2-0.4-0.2-0.4c0-0.1,0.1-0.1,0.2-0.3
				c0.2-0.2,0.3-0.4,0.2-0.6c0-0.1,0-0.1,0-0.2c0-0.1,0.1-0.2,0.4-0.3c0.3-0.1,0.8-0.1,1.6-0.1c0.7,0,1.1-0.1,1.1-0.1
				c0.3,0,0.5,0.1,0.7,0.2c0.2,0.2,0.3,0.3,0.5,0.4c0.2,0.1,0.3,0.2,0.3,0.3c0,0.1,0.1,0.3,0.3,0.4c0.2,0.1,0.4,0.3,0.5,0.6
				c0.1,0.4,0.4,0.5,0.8,0.5c0.1,0,0.2,0,0.3-0.1c0.1-0.1,0.2-0.2,0.2-0.6c0-0.3-0.1-0.5-0.2-0.5
				C277.8,783.2,277.7,783.1,277.7,782.7z"/>
			<path d="M307.5,781.1h-1c-0.5,0-0.9,0-1.1-0.1c-0.2-0.1-0.3-0.3-0.3-0.5c0-0.1,0-0.2-0.1-0.2c-0.1,0-0.2,0-0.2,0.1
				c-0.1,0.1-0.3,0.2-0.7,0.2c-0.2,0-0.2,0-0.2-0.1c0-0.1-0.2-0.1-0.7-0.1c-0.5,0-0.8,0.1-0.8,0.2c-0.1,0.1-0.2,0.2-0.4,0.2
				c-0.2,0-0.3,0-0.4,0c-0.1,0-0.1,0-0.2,0c-0.1,0-0.2,0-0.2,0c-0.3,0-0.5,0.1-0.8,0.4c-0.3,0.3-0.5,0.5-0.7,0.5
				c-0.2,0.1-0.4,0.2-0.5,0.5c-0.1,0.3-0.3,0.4-0.6,0.4c-0.5,0.1-0.7,0.4-0.8,1c0,0.2-0.1,0.4-0.2,0.6c-0.1,0.2-0.2,0.5-0.2,0.6
				c0,0.3-0.1,0.4-0.2,0.5c-0.1,0.1-0.1,0.2-0.1,0.4c0,0.2-0.1,0.4-0.2,0.5c-0.1,0.1-0.2,0.6-0.2,1.5c0,1,0.1,1.6,0.2,1.6
				c0.1,0,0.1,0.1,0.1,0.3c0,0.1,0,0.2-0.1,0.2c-0.1,0,0,0.1,0.2,0.4c0.2,0.2,0.4,0.4,0.5,0.4c0.1,0,0.1,0.1,0.2,0.4
				c0.1,0.2,0.3,0.4,0.6,0.8c0.4,0.3,0.6,0.5,0.9,0.6c0.2,0.1,0.2,0.1,0.2,0.2c0,0.1,0.3,0.2,1,0.3c0.6,0.1,1.4,0.1,2.1,0.1
				c1.1,0,1.8-0.1,2-0.3c0.2-0.2,0.5-0.3,0.8-0.4c0.4-0.1,0.7-0.2,0.8-0.5c0.2-0.3,0.4-0.6,0.7-0.9c0.3-0.3,0.5-0.5,0.5-0.6
				c0-0.1-0.1-0.2-0.3-0.3c-0.4-0.2-0.6-0.3-0.8-0.3c-0.1,0-0.2,0.1-0.3,0.3c-0.1,0.3-0.2,0.4-0.4,0.4c-0.2,0-0.4,0.1-0.7,0.4
				c-0.2,0.3-0.4,0.3-0.5,0.2c-0.1-0.1-0.2-0.1-0.4,0.1c-0.1,0.1-0.4,0.2-0.7,0.2c-0.1,0-0.4,0-0.9-0.1c-0.7,0-1.1-0.1-1.3-0.2
				c-0.2-0.1-0.3-0.3-0.3-0.6c0-0.2-0.2-0.5-0.6-0.9c-0.3-0.3-0.5-0.5-0.6-0.7c-0.1-0.2-0.2-0.5-0.3-1c-0.1-0.7-0.2-1.1-0.3-1.1
				c-0.1,0-0.1-0.1-0.1-0.2c0-0.1,0-0.2,0.1-0.3c0.2,0,0.3-0.7,0.3-1.9c0-0.2,0.1-0.3,0.3-0.3c0.2,0,0.3-0.1,0.2-0.3
				c-0.1-0.3,0.1-0.4,0.4-0.6c0.3-0.1,0.5-0.3,0.5-0.4c0-0.1,0.1-0.3,0.3-0.4c0.2-0.1,0.5-0.2,0.7-0.2c0.2,0,0.3-0.1,0.3-0.2
				c0-0.1,0.2-0.2,0.7-0.3c0.1,0,0.1,0,0.2,0c0.1,0,0.1,0,0.2,0c0.6,0,1,0.2,1.2,0.5c0.1,0.2,0.3,0.3,0.6,0.4c0.2,0,0.3,0.1,0.3,0.1
				c0,0.1,0.1,0.1,0,0.3c-0.1,0.2,0,0.3,0.1,0.4c0.1,0.1,0.3,0.4,0.4,1c0.1,0.4,0.1,0.7,0.2,0.8c0.1,0.1,0.2,0.2,0.4,0.3
				c0.3,0.1,0.4,0.2,0.4,0.4c0,0.1,0,0.1,0,0.1c0,0,0.1,0,0.1,0c0.1-0.1,0.2-0.6,0.2-1.6c0-1,0.1-1.6,0.2-1.6c0.1-0.1,0.1-0.3,0-0.8
				L307.5,781.1z"/>
			<path d="M325.8,781.8h-0.2c-0.4,0-0.8-0.1-1-0.3c-0.2-0.1-0.3-0.2-0.4-0.2c0,0-0.1,0.1-0.1,0.2c0,0.1,0,0.2-0.1,0.2
				c-0.1,0-0.4,0-0.8,0.1c-0.6,0-1,0-1,0.1c-0.1,0.1-0.1,0.3-0.1,0.7l0,0.6l0.8,0.1l0.8,0v2.3c0,1.5,0,2.3,0.1,2.4
				c0.1,0,0.1,0.1-0.1,0.3c-0.1,0.2-0.2,0.4-0.2,0.5v0.2c0,0.3,0,0.6-0.1,0.9c-0.1,0.3-0.2,0.5-0.3,0.5c-0.1,0.1-0.2,0.1-0.2,0.3
				c0,0.1-0.1,0.3-0.3,0.4c-0.2,0.2-0.4,0.2-0.6,0.2c-0.3,0-0.4,0.1-0.5,0.2c-0.1,0.1-0.2,0.2-0.4,0.2c-0.1,0-0.2,0-0.5-0.1
				c-0.5-0.1-0.7-0.1-0.8-0.2c0-0.1-0.2-0.1-0.4-0.1c-0.2,0-0.4-0.1-0.8-0.2c-0.2-0.1-0.3-0.2-0.4-0.3c-0.1-0.1-0.1-0.2-0.1-0.5
				v-0.4v-0.3c0-0.4,0-0.6-0.1-0.6c-0.1,0-0.2-0.1-0.1-0.3c0-0.2,0.1-0.3,0.2-0.3c0.1-0.1,0.1-0.1,0-0.2c-0.1,0-0.1-0.1-0.1-0.2
				c0-0.1,0-0.2,0-0.3c0-0.1,0.1-0.1,0.1-0.1c0.1,0,0.1-0.3,0.1-0.9c0-0.9-0.1-1.4-0.2-1.5c-0.1-0.1-0.1-0.2,0-0.3
				c0.1-0.1,0.2-0.4,0.2-0.8c0-0.1,0-0.2,0-0.3c0-0.1-0.1-0.2-0.1-0.3c0-0.1,0-0.1,0-0.1c0-0.1,0.5-0.1,1.4-0.1c0.1,0,0.1,0,0.2,0
				c0.1,0,0.1,0,0.2,0h0c0,0,0.1-0.1,0.1-0.2c0-0.1,0-0.3-0.1-0.6c0-0.2-0.1-0.4-0.3-0.5c-0.2-0.1-0.5-0.1-1-0.1
				c-0.1,0-0.6,0-1.5,0.1c-1.4,0.1-2.1,0.2-2.3,0.4c-0.2,0.2-0.2,0.4-0.2,0.5c0,0.4,0.3,0.6,1,0.7c0.5,0.1,0.7,0.2,0.7,0.4
				c0,0.1-0.1,0.2-0.2,0.3c-0.2,0.1-0.2,0.4-0.1,0.7c0.1,0.3,0.1,0.6,0,0.6c-0.1,0.1-0.2,0.1-0.3,0.1c-0.1,0-0.1,0-0.1,0.1
				c0,0.2,0.1,0.4,0.4,0.5c0.2,0.1,0.4,0.2,0.4,0.4c0,0.1-0.1,0.2-0.2,0.3c-0.1,0.1-0.2,0.4-0.2,0.9v0.4c0,0.8,0.1,1.3,0.2,1.3
				c0.1,0.1,0.1,0.2,0.1,0.5c0,0.2,0,0.3-0.1,0.3c-0.1,0-0.1,0.1-0.2,0.4c-0.1,0.3,0,0.4,0.2,0.5c0.1,0.1,0.3,0.3,0.4,0.6
				c0.1,0.3,0.2,0.5,0.3,0.5s0.1,0.1,0.2,0.4c0.1,0.3,0.2,0.4,0.4,0.4c0.2,0,0.4,0,0.5,0.1c0.1,0.1,1,0.2,2.5,0.2
				c1.3,0,1.9-0.1,1.9-0.2s0.1-0.2,0.2-0.2c0.1,0,0.2-0.1,0.3-0.2c0.1-0.1,0.2-0.2,0.4-0.2c0.2,0,0.3-0.1,0.3-0.3
				c0-0.1,0.1-0.2,0.1-0.3c0.1,0,0.2,0,0.5,0h0.1c0.3,0,0.5,0,0.5-0.1c0-0.1-0.1-0.1-0.2-0.2c-0.1-0.1-0.2-0.2-0.2-0.3
				c0-0.2,0.1-0.4,0.2-0.6c0.2-0.2,0.2-0.4,0.1-0.4c-0.1,0-0.2-0.1-0.2-0.2c0-0.1,0-0.2,0.1-0.2c0.1,0,0.2-0.2,0.2-0.4
				c0-0.2,0.1-0.6,0.1-0.9c0-0.4,0-0.6,0-0.6c0-0.1,0-0.5,0.1-1.1c0-0.6,0-1.2,0.1-1.7c0-0.5,0.1-0.8,0.2-0.9c0.1-0.1,0.2-0.2,0-0.2
				c-0.1-0.1-0.2-0.1-0.2-0.2c0-0.1,0.1-0.3,0.3-0.4c0.2-0.1,0.4-0.2,0.6-0.2c0.1,0,0.2,0,0.2,0c0,0,0.1,0,0.2,0
				c0.3,0,0.4-0.1,0.4-0.3c0-0.1,0-0.1-0.1-0.2c-0.1-0.1-0.1-0.2,0-0.2c0.1,0,0.1-0.1,0.1-0.2C326.9,782,326.6,781.8,325.8,781.8z"
				/>
			<path d="M343.6,781.3c-0.1,0-0.2,0-0.2-0.1s-0.1-0.2-0.4-0.3c-0.3-0.1-0.4-0.3-0.5-0.5l-0.2-0.3c-0.1-0.1-0.2-0.1-0.2,0.1
				c0,0.1-0.3,0.1-0.8,0.1c-0.6,0-0.9,0-0.9-0.1c0-0.1-0.1-0.1-0.3-0.1c-0.5,0-0.8-0.1-0.8-0.4c0-0.1-0.1-0.2-0.3-0.2
				s-0.3,0.1-0.2,0.3c0,0,0,0,0,0.1c0,0,0,0,0,0.1c0,0.1-0.6,0.2-1.8,0.2h-1.8l-0.5,0.5c-0.3,0.3-0.5,0.5-0.5,0.7
				c0,0.2,0.2,0.4,0.7,0.4c0.2,0,0.3,0,0.3,0.1s0,0.1,0.1,0.1c0.2,0,0.4,0.2,0.6,0.5c0.2,0.3,0.3,0.7,0.3,1.2c0,0.4,0.1,0.6,0.1,0.6
				c0,0.2-0.1,0.4-0.2,0.5c-0.2,0.1-0.2,0.2-0.1,0.3c0.1,0.1,0.2,0.3,0.2,0.7c0,0.3-0.1,0.5-0.2,0.5c-0.2,0-0.2,0,0,0.1
				c0.1,0.1,0.1,0.3,0,0.6c-0.1,0.3-0.1,0.5,0.1,0.6c0.1,0.1,0.1,0.2,0.1,0.3c0,0.2-0.1,0.4-0.2,0.5c-0.1,0.1-0.1,0.6-0.2,1.6l0,1.5
				l-0.4,0.2c-0.2,0.1-0.5,0.2-1.1,0.2c-0.3,0-0.5,0.1-0.5,0.1c-0.1,0.1-0.1,0.2-0.1,0.4c0,0.2,0.2,0.5,0.6,0.8
				c0.2,0.1,0.3,0.2,0.5,0.2c0.2,0,0.3-0.1,0.3-0.2c0.1-0.1,0.8-0.2,2.1-0.2c1.4-0.1,2.1-0.1,2.2-0.3c0.1-0.1,0.2-0.2,0.3-0.2
				c0.1,0,0.2-0.1,0.2-0.2c0-0.1-0.1-0.2-0.4-0.2c-0.3,0-0.4-0.1-0.5-0.3c0-0.2-0.2-0.3-0.5-0.4c-0.4-0.1-0.5-0.2-0.5-0.4
				c0-0.1,0-0.2,0.1-0.3c0.2-0.2,0.2-0.3,0.1-0.4c-0.1,0-0.2-0.6-0.2-1.6c0-0.3,0-0.6,0-1c0-0.3,0-0.4,0.1-0.5
				c0-0.1,0.1-0.1,0.2-0.1c0.2,0,0.5,0,0.8,0.1c0.3,0.1,0.5,0.2,0.6,0.3c0.1,0.1,0.7,0.2,1.7,0.2c0.8,0,1.2,0,1.2-0.1
				c0.1-0.1,0-0.2-0.2-0.3c-0.2-0.1-0.4-0.2-0.5-0.4c-0.1-0.1-0.2-0.2-0.2-0.2c0,0,0.1-0.1,0.3-0.1c0.3-0.1,0.4-0.1,0.4-0.2
				s0.1-0.2,0.4-0.3c0.3-0.1,0.4-0.2,0.4-0.4c0-0.5,0.1-0.7,0.3-0.7c0.1,0,0.2-0.1,0.4-0.2c0.2-0.2,0.2-0.7,0.2-1.5
				c0-1-0.1-1.5-0.3-1.7C343.8,781.4,343.7,781.3,343.6,781.3z M342,785c0,0-0.1,0.1-0.4,0.1h-0.1c0,0-0.1,0-0.1,0
				c-0.1,0-0.1,0,0,0.1c0.1,0.1,0.2,0.1,0.2,0.2c0,0.1-0.1,0.3-0.3,0.5c-0.2,0.2-0.5,0.3-0.7,0.3c-0.3,0-0.6,0.1-1.1,0.2
				c-0.1,0-0.2,0-0.3,0c-0.2,0-0.4-0.1-0.7-0.3c-0.2-0.2-0.3-0.3-0.4-0.3c0-0.1,0-0.1,0.1-0.2c0.1-0.1,0.2-0.7,0.2-1.6v-1.2
				c0-0.3,0.1-0.5,0.2-0.7c0.1-0.2,0.3-0.4,0.4-0.4h0.1l0.4,0.1c0.3,0,0.5,0.1,0.8,0.1c0.2,0.1,0.4,0.1,0.4,0.1
				c0,0.1,0.1,0.1,0.4,0.2c0.3,0.1,0.4,0.2,0.4,0.3c0,0.1,0.1,0.3,0.2,0.4c0.1,0.1,0.2,0.2,0.1,0.3c-0.1,0.1-0.1,0.3,0.1,0.6
				c0.1,0.2,0.2,0.4,0.2,0.6C342.1,784.1,342.1,784.4,342,785z"/>
			<path d="M335.6,778.6c0.2,0,0.3-0.1,0.3-0.2c0-0.1-0.1-0.1-0.3-0.1s-0.3,0-0.3,0.1C335.4,778.6,335.5,778.6,335.6,778.6z"/>
			<path d="M339.8,779.5c0.1,0.1,0.3,0.1,0.4,0c0,0,0,0,0.1,0c0.1-0.1,0.1-0.1,0.1-0.1c0,0-0.1,0-0.3,0
				C339.9,779.3,339.9,779.4,339.8,779.5z"/>
			<path d="M359.7,788.4c0-0.6-0.1-0.9-0.2-1.1c-0.1-0.2-0.3-0.4-0.6-0.5c-0.3-0.1-0.5-0.3-0.5-0.4c-0.1-0.1-0.3-0.3-0.9-0.6
				c-0.5-0.3-1-0.5-1.3-0.6c-0.2-0.1-0.5-0.2-0.9-0.5c-0.4-0.3-0.6-0.4-0.6-0.5c0-0.1-0.1-0.2-0.2-0.3c-0.2-0.1-0.2-0.2-0.2-0.3
				c0,0,0-0.1,0-0.1c0.1-0.1,0.1-0.2,0.1-0.3c0-0.1,0-0.3-0.1-0.6c0-0.1,0-0.2,0-0.2c0,0,0.2-0.1,0.3-0.1c0.3,0,0.4-0.1,0.4-0.2
				c0-0.1,0.1-0.2,0.4-0.4c0.3-0.2,0.4-0.3,0.4-0.3c0-0.1,0.1-0.1,0.4-0.2c0.1,0,0.1,0,0.2,0c0.4,0,0.8,0.2,1.2,0.5
				c0.5,0.3,0.7,0.6,0.7,0.9c0,0.2,0.1,0.4,0.3,0.5c0.2,0.1,0.3,0.3,0.3,0.4c0,0.1,0.1,0.3,0.2,0.5s0.3,0.3,0.4,0.3c0,0,0,0,0.1,0
				c0.1-0.1,0.1-0.7,0.2-2v-0.8c0-0.6-0.1-0.9-0.2-0.9c-0.1,0-0.1,0-0.1,0c-0.3,0.1-0.6,0.2-0.8,0.2c-0.3,0-0.6-0.1-1-0.3
				c-0.4-0.2-0.6-0.3-0.7-0.3c0,0-0.1,0-0.2,0.1c-0.3,0.1-0.6,0.1-0.8,0.1c-0.3,0-0.4,0-0.5,0.1c0,0.1-0.1,0.2-0.3,0.2
				c-0.2,0-0.4-0.1-0.5-0.2c-0.1-0.1-0.3-0.2-0.5-0.2h0c-0.1,0-0.1,0-0.1,0c-0.1,0-0.1,0-0.1,0c0,0,0.1,0,0.1,0
				c0.1,0.1,0.2,0.1,0.2,0.2c0,0.2-0.2,0.3-0.5,0.4c-0.3,0.1-0.4,0.2-0.4,0.4c0.1,0.2,0,0.3-0.2,0.4c-0.3,0.1-0.6,0.5-1.1,1.1
				c-0.1,0.2-0.2,0.4-0.2,0.6c0,0,0,0.3,0.1,0.8c0.1,0.7,0.3,1.1,0.4,1.3c0.1,0.2,0.4,0.4,0.7,0.7c0.4,0.3,0.6,0.4,0.8,0.4
				c0.1,0,0.3,0.1,0.6,0.4c0.4,0.3,0.9,0.6,1.7,0.8c0.5,0.1,0.8,0.3,1.1,0.6c0.2,0.2,0.3,0.4,0.5,0.7c0.1,0.3,0.2,0.5,0.2,0.7
				c0,0.1,0,0.1-0.1,0.2c-0.1,0-0.1,0.2-0.1,0.4c0.1,0.2,0,0.4-0.2,0.6c-0.1,0.1-0.2,0.3-0.2,0.4c0,0.2-0.5,0.4-1.4,0.5
				c-0.1,0-0.3,0-0.6,0c-0.9,0-1.7-0.4-2.2-1.2c-0.3-0.4-0.5-0.8-0.5-1c0,0,0-0.1,0-0.2c0-0.1,0-0.2,0-0.2c0,0-0.1-0.1-0.1-0.1
				c-0.1,0-0.1,0-0.1-0.1c0.1-0.3-0.1-0.5-0.4-0.6c-0.1,0-0.2-0.1-0.3-0.1c-0.3,0-0.4,0.2-0.5,0.5c-0.1,1.2-0.1,1.9-0.2,1.9
				c-0.1,0.1-0.1,0.4-0.2,0.8c0,0.1,0,0.3,0,0.4c0,0.2,0.1,0.4,0.3,0.6c0.1,0.1,0.2,0.2,0.3,0.2c0,0,0.1,0,0.2-0.2
				c0.1-0.2,0.2-0.3,0.2-0.4c0-0.3,0.2-0.3,0.5-0.1c0.9,0.5,1.8,0.7,2.9,0.7c0.5,0,1.1-0.1,1.6-0.2c0.6-0.1,1.1-0.3,1.4-0.6
				c0.3-0.3,0.5-0.5,0.5-0.5c0-0.1,0.1-0.2,0.2-0.3c0.2-0.1,0.3-0.4,0.3-0.9c0.1-0.5,0.1-0.7,0.2-0.7c0.1,0,0.1,0,0-0.1
				S359.7,789,359.7,788.4z M355.3,786.8C355.2,786.8,355.2,786.8,355.3,786.8c-0.1-0.1-0.1-0.1,0-0.1S355.4,786.7,355.3,786.8
				C355.4,786.8,355.3,786.8,355.3,786.8z"/>
			<path d="M353.8,787.6c0-0.1,0-0.2-0.1-0.2c-0.1,0-0.1,0-0.1,0.1l0.1,0.2C353.7,787.8,353.8,787.8,353.8,787.6z"/>
			<polygon points="51.7,807.6 44,812.8 41.2,798.8 38.5,812.8 30.7,807.6 35.9,815.4 21.9,818.1 35.9,820.9 30.7,828.6 38.5,823.4 
				41.2,837.5 44,823.5 51.7,828.6 46.5,820.9 60.6,818.1 46.5,815.4 			"/>
			<polygon points="468.1,815.4 473.3,807.6 465.5,812.8 462.8,798.8 460,812.8 452.3,807.6 457.5,815.4 443.4,818.1 457.5,820.9 
				452.3,828.6 460,823.4 462.8,837.5 465.5,823.5 473.3,828.6 468.1,820.9 482.1,818.1 			"/>
			<polygon points="30.7,56.4 38.5,51.2 41.2,65.2 44,51.2 51.7,56.4 46.5,48.6 60.6,45.9 46.5,43.1 51.7,35.4 44,40.5 41.2,26.5 
				38.5,40.6 30.7,35.4 35.9,43.1 21.9,45.9 35.9,48.6 			"/>
			<polygon points="473.3,35.4 465.5,40.5 462.8,26.5 460,40.6 452.3,35.4 457.5,43.1 443.4,45.9 457.5,48.6 452.3,56.4 460,51.2 
				462.8,65.2 465.5,51.2 473.3,56.4 468.1,48.6 482.1,45.9 468.1,43.1 			"/>
			<path d="M130.9,261.3c2.3,0,4.2-1.3,4.2-5.2c0-3.9-4.2-30.8-4.2-30.8s-4.2,26.9-4.2,30.8C126.7,260,128.6,261.3,130.9,261.3z"/>
			<path d="M372.4,261.3c2.3,0,4.2-1.3,4.2-5.2c0-3.9-4.2-30.8-4.2-30.8s-4.2,26.9-4.2,30.8C368.2,260,370.1,261.3,372.4,261.3z"/>
			<path d="M245,189.5c0.9,0.4,1.8,0.8,2.7,1.2c0.5,0.2,1.1,0.5,1.6,0.7c0.1,0.1,0.2,0.1,0.2,0.1c0,0,0,0,0,0.1
				c1,1.7,1.2,4.2,1.8,6.1c0.1,0.4,0.7,0.4,0.8,0c0.6-1.9,0.9-4.4,1.8-6.1c0,0,0,0,0-0.1c0,0,0.1,0,0.1-0.1c0.5-0.3,1.2-0.5,1.7-0.8
				c0.9-0.4,1.8-0.8,2.7-1.2c0.4-0.2,0.2-0.6-0.1-0.7c-0.9-0.4-1.8-0.8-2.7-1.1c-1.1-0.5-1.7-0.5-2-1.5c-0.6-1.9-1.1-3.9-1.6-5.9
				c0,0,0,0,0-0.1c0,0,0,0,0-0.1c-0.1-0.1-0.2-0.2-0.3-0.2c-0.1,0-0.3,0-0.3,0.2c0,0,0,0.1,0,0.1c0,0,0,0,0,0c0,0,0,0,0,0
				c0,0,0,0,0,0c-0.5,1.9-1,3.9-1.5,5.9c-0.5,1.5-3.3,2.1-4.7,2.7C244.9,188.9,244.7,189.3,245,189.5z M250.5,187
				c0.6-1,0.7-2.7,1-3.7c0.1-0.5,0.3-0.9,0.4-1.4c0.1,0.5,0.3,0.9,0.4,1.4c0.3,1.1,0.4,2.7,1,3.7c0.6,1.1,2.7,1.7,4.2,2.2
				c-0.7,0.3-1.5,0.7-2.2,1c-0.6,0.3-1.5,0.5-1.9,1c-0.6,0.8-0.7,2.4-1,3.4c-0.2,0.6-0.3,1.1-0.5,1.7c-0.2-0.6-0.3-1.1-0.5-1.7
				c-0.3-0.9-0.4-2.6-1-3.4c-0.4-0.6-1.2-0.7-1.9-1c-0.7-0.3-1.5-0.7-2.2-1C247.8,188.7,249.8,188.1,250.5,187z"/>
			<path d="M185,303.8c0.9,0.4,1.8,0.8,2.7,1.2c0.5,0.2,1.1,0.5,1.6,0.7c0.1,0.1,0.2,0.1,0.2,0.1c0,0,0,0,0,0.1
				c1,1.7,1.2,4.2,1.8,6.1c0.1,0.4,0.7,0.4,0.8,0c0.6-1.9,0.9-4.4,1.8-6.1c0,0,0,0,0-0.1c0,0,0.1,0,0.1-0.1c0.5-0.3,1.2-0.5,1.7-0.8
				c0.9-0.4,1.8-0.8,2.7-1.2c0.4-0.2,0.2-0.6-0.1-0.7c-0.9-0.4-1.8-0.8-2.7-1.1c-1.1-0.5-1.7-0.5-2-1.5c-0.6-1.9-1.1-3.9-1.6-5.9
				c0,0,0,0,0-0.1c0,0,0,0,0-0.1c-0.1-0.1-0.2-0.2-0.3-0.2c-0.1,0-0.3,0-0.3,0.2c0,0,0,0.1,0,0.1c0,0,0,0,0,0c0,0,0,0,0,0
				c0,0,0,0,0,0c-0.5,1.9-0.9,3.9-1.5,5.9c-0.5,1.5-3.3,2.1-4.7,2.7C184.8,303.2,184.6,303.6,185,303.8z M190.5,301.3
				c0.6-1,0.7-2.7,1-3.7c0.1-0.5,0.3-0.9,0.4-1.4c0.1,0.5,0.3,0.9,0.4,1.4c0.3,1.1,0.4,2.7,1,3.7c0.6,1.1,2.7,1.7,4.2,2.2
				c-0.7,0.3-1.5,0.7-2.2,1c-0.6,0.3-1.5,0.5-1.9,1c-0.6,0.8-0.7,2.4-1,3.4c-0.2,0.6-0.3,1.1-0.5,1.7c-0.2-0.6-0.3-1.1-0.5-1.7
				c-0.3-0.9-0.4-2.6-1-3.4c-0.4-0.6-1.2-0.7-1.9-1c-0.7-0.3-1.5-0.7-2.2-1C187.8,303,189.8,302.4,190.5,301.3z"/>
			<path d="M185,452.9c0.9,0.4,1.8,0.8,2.7,1.2c0.5,0.2,1.1,0.5,1.6,0.7c0.1,0.1,0.2,0.1,0.2,0.1c0,0,0,0,0,0.1
				c1,1.7,1.2,4.2,1.8,6.1c0.1,0.4,0.7,0.4,0.8,0c0.6-1.9,0.9-4.4,1.8-6.1c0,0,0,0,0-0.1c0,0,0.1,0,0.1-0.1c0.5-0.3,1.2-0.5,1.7-0.8
				c0.9-0.4,1.8-0.8,2.7-1.2c0.4-0.2,0.2-0.6-0.1-0.7c-0.9-0.4-1.8-0.8-2.7-1.1c-1.1-0.5-1.7-0.5-2-1.5c-0.6-1.9-1.1-3.9-1.6-5.9
				c0,0,0,0,0-0.1c0,0,0,0,0-0.1c-0.1-0.1-0.2-0.2-0.3-0.2c-0.1,0-0.3,0-0.3,0.2c0,0,0,0.1,0,0.1c0,0,0,0,0,0c0,0,0,0,0,0
				c0,0,0,0,0,0c-0.5,1.9-0.9,3.9-1.5,5.9c-0.5,1.5-3.3,2.1-4.7,2.7C184.8,452.3,184.6,452.7,185,452.9z M190.5,450.4
				c0.6-1,0.7-2.7,1-3.7c0.1-0.5,0.3-0.9,0.4-1.4c0.1,0.5,0.3,0.9,0.4,1.4c0.3,1.1,0.4,2.7,1,3.7c0.6,1.1,2.7,1.7,4.2,2.2
				c-0.7,0.3-1.5,0.7-2.2,1c-0.6,0.3-1.5,0.5-1.9,1c-0.6,0.8-0.7,2.4-1,3.4c-0.2,0.6-0.3,1.1-0.5,1.7c-0.2-0.6-0.3-1.1-0.5-1.7
				c-0.3-0.9-0.4-2.6-1-3.4c-0.4-0.6-1.2-0.7-1.9-1c-0.7-0.3-1.5-0.7-2.2-1C187.8,452.1,189.8,451.5,190.5,450.4z"/>
			<path d="M198.6,601.2c-0.9-0.4-1.8-0.8-2.7-1.1c-1.1-0.5-1.7-0.5-2-1.5c-0.6-1.9-1.1-3.9-1.6-5.9c0,0,0,0,0-0.1c0,0,0,0,0-0.1
				c-0.1-0.1-0.2-0.2-0.3-0.2c-0.1,0-0.3,0-0.3,0.2c0,0,0,0.1,0,0.1c0,0,0,0,0,0c0,0,0,0,0,0c0,0,0,0,0,0c-0.5,1.9-0.9,3.9-1.5,5.9
				c-0.5,1.5-3.3,2.1-4.7,2.7c-0.3,0.1-0.5,0.6-0.1,0.7c0.9,0.4,1.8,0.8,2.7,1.2c0.5,0.2,1.1,0.5,1.6,0.7c0.1,0.1,0.2,0.1,0.2,0.1
				c0,0,0,0,0,0.1c1,1.7,1.2,4.2,1.8,6.1c0.1,0.4,0.7,0.4,0.8,0c0.6-1.9,0.9-4.4,1.8-6.1c0,0,0,0,0-0.1c0,0,0.1,0,0.1-0.1
				c0.5-0.3,1.2-0.5,1.7-0.8c0.9-0.4,1.8-0.8,2.7-1.2C199,601.8,198.9,601.3,198.6,601.2z M195.2,602.6c-0.6,0.3-1.5,0.5-1.9,1
				c-0.6,0.8-0.7,2.4-1,3.4c-0.2,0.6-0.3,1.1-0.5,1.7c-0.2-0.6-0.3-1.1-0.5-1.7c-0.3-0.9-0.4-2.6-1-3.4c-0.4-0.6-1.2-0.7-1.9-1
				c-0.7-0.3-1.5-0.7-2.2-1c1.5-0.5,3.5-1.1,4.2-2.2c0.6-1,0.7-2.7,1-3.7c0.1-0.5,0.3-0.9,0.4-1.4c0.1,0.5,0.3,0.9,0.4,1.4
				c0.3,1.1,0.4,2.7,1,3.7c0.6,1.1,2.7,1.7,4.2,2.2C196.7,602,195.9,602.3,195.2,602.6z"/>
			<path d="M302.7,303.8c0.9,0.4,1.8,0.8,2.7,1.2c0.5,0.2,1.1,0.5,1.6,0.7c0.1,0.1,0.2,0.1,0.2,0.1c0,0,0,0,0,0.1
				c1,1.7,1.2,4.2,1.8,6.1c0.1,0.4,0.7,0.4,0.8,0c0.6-1.9,0.9-4.4,1.8-6.1c0,0,0,0,0-0.1c0,0,0.1,0,0.1-0.1c0.5-0.3,1.2-0.5,1.7-0.8
				c0.9-0.4,1.8-0.8,2.7-1.2c0.4-0.2,0.2-0.6-0.1-0.7c-0.9-0.4-1.8-0.8-2.7-1.1c-1.1-0.5-1.7-0.5-2-1.5c-0.6-1.9-1.1-3.9-1.6-5.9
				c0,0,0,0,0-0.1c0,0,0,0,0-0.1c-0.1-0.1-0.2-0.2-0.3-0.2c-0.1,0-0.3,0-0.3,0.2c0,0,0,0.1,0,0.1c0,0,0,0,0,0c0,0,0,0,0,0
				c0,0,0,0,0,0c-0.5,1.9-0.9,3.9-1.5,5.9c-0.5,1.5-3.3,2.1-4.7,2.7C302.5,303.2,302.3,303.6,302.7,303.8z M308.2,301.3
				c0.6-1,0.7-2.7,1-3.7c0.1-0.5,0.3-0.9,0.4-1.4c0.1,0.5,0.3,0.9,0.4,1.4c0.3,1.1,0.4,2.7,1,3.7c0.6,1.1,2.7,1.7,4.2,2.2
				c-0.7,0.3-1.5,0.7-2.2,1c-0.6,0.3-1.5,0.5-1.9,1c-0.6,0.8-0.7,2.4-1,3.4c-0.2,0.6-0.3,1.1-0.5,1.7c-0.2-0.6-0.3-1.1-0.5-1.7
				c-0.3-0.9-0.4-2.6-1-3.4c-0.4-0.6-1.2-0.7-1.9-1c-0.7-0.3-1.5-0.7-2.2-1C305.5,303,307.5,302.4,308.2,301.3z"/>
			<path d="M302.7,452.9c0.9,0.4,1.8,0.8,2.7,1.2c0.5,0.2,1.1,0.5,1.6,0.7c0.1,0.1,0.2,0.1,0.2,0.1c0,0,0,0,0,0.1
				c1,1.7,1.2,4.2,1.8,6.1c0.1,0.4,0.7,0.4,0.8,0c0.6-1.9,0.9-4.4,1.8-6.1c0,0,0,0,0-0.1c0,0,0.1,0,0.1-0.1c0.5-0.3,1.2-0.5,1.7-0.8
				c0.9-0.4,1.8-0.8,2.7-1.2c0.4-0.2,0.2-0.6-0.1-0.7c-0.9-0.4-1.8-0.8-2.7-1.1c-1.1-0.5-1.7-0.5-2-1.5c-0.6-1.9-1.1-3.9-1.6-5.9
				c0,0,0,0,0-0.1c0,0,0,0,0-0.1c-0.1-0.1-0.2-0.2-0.3-0.2c-0.1,0-0.3,0-0.3,0.2c0,0,0,0.1,0,0.1c0,0,0,0,0,0c0,0,0,0,0,0
				c0,0,0,0,0,0c-0.5,1.9-0.9,3.9-1.5,5.9c-0.5,1.5-3.3,2.1-4.7,2.7C302.5,452.3,302.3,452.7,302.7,452.9z M308.2,450.4
				c0.6-1,0.7-2.7,1-3.7c0.1-0.5,0.3-0.9,0.4-1.4c0.1,0.5,0.3,0.9,0.4,1.4c0.3,1.1,0.4,2.7,1,3.7c0.6,1.1,2.7,1.7,4.2,2.2
				c-0.7,0.3-1.5,0.7-2.2,1c-0.6,0.3-1.5,0.5-1.9,1c-0.6,0.8-0.7,2.4-1,3.4c-0.2,0.6-0.3,1.1-0.5,1.7c-0.2-0.6-0.3-1.1-0.5-1.7
				c-0.3-0.9-0.4-2.6-1-3.4c-0.4-0.6-1.2-0.7-1.9-1c-0.7-0.3-1.5-0.7-2.2-1C305.5,452.1,307.5,451.5,308.2,450.4z"/>
			<path d="M316.3,601.2c-0.9-0.4-1.8-0.8-2.7-1.1c-1.1-0.5-1.7-0.5-2-1.5c-0.6-1.9-1.1-3.9-1.6-5.9c0,0,0,0,0-0.1c0,0,0,0,0-0.1
				c-0.1-0.1-0.2-0.2-0.3-0.2c-0.1,0-0.3,0-0.3,0.2c0,0,0,0.1,0,0.1c0,0,0,0,0,0c0,0,0,0,0,0c0,0,0,0,0,0c-0.5,1.9-0.9,3.9-1.5,5.9
				c-0.5,1.5-3.3,2.1-4.7,2.7c-0.3,0.1-0.5,0.6-0.1,0.7c0.9,0.4,1.8,0.8,2.7,1.2c0.5,0.2,1.1,0.5,1.6,0.7c0.1,0.1,0.2,0.1,0.2,0.1
				c0,0,0,0,0,0.1c1,1.7,1.2,4.2,1.8,6.1c0.1,0.4,0.7,0.4,0.8,0c0.6-1.9,0.9-4.4,1.8-6.1c0,0,0,0,0-0.1c0,0,0.1,0,0.1-0.1
				c0.5-0.3,1.2-0.5,1.7-0.8c0.9-0.4,1.8-0.8,2.7-1.2C316.7,601.8,316.6,601.3,316.3,601.2z M312.9,602.6c-0.6,0.3-1.5,0.5-1.9,1
				c-0.6,0.8-0.7,2.4-1,3.4c-0.2,0.6-0.3,1.1-0.5,1.7c-0.2-0.6-0.3-1.1-0.5-1.7c-0.3-0.9-0.4-2.6-1-3.4c-0.4-0.6-1.2-0.7-1.9-1
				c-0.7-0.3-1.5-0.7-2.2-1c1.5-0.5,3.5-1.1,4.2-2.2c0.6-1,0.7-2.7,1-3.7c0.1-0.5,0.3-0.9,0.4-1.4c0.1,0.5,0.3,0.9,0.4,1.4
				c0.3,1.1,0.4,2.7,1,3.7c0.6,1.1,2.7,1.7,4.2,2.2C314.4,602,313.6,602.3,312.9,602.6z"/>
			<path d="M166.5,298c-0.6,0-1,0.5-1,1l0,0.3c0,0.6,0.5,1,1,1c0,0,0,0,0,0c0.6,0,1-0.5,1-1l0-0.3C167.5,298.5,167,298,166.5,298z"
				/>
			<path d="M148.1,388.3c-0.6,0-1,0.5-1,1.1c0,0.5,0.5,1,1,1c0,0,0,0,0.1,0c0.2,0,0.4,0,0.6,0c0.6,0,1-0.5,0.9-1.1
				c0-0.6-0.5-1-1.1-0.9C148.5,388.3,148.3,388.3,148.1,388.3z"/>
			<path d="M160.2,378.4c-0.1,0.2-0.1,0.3-0.2,0.5c-0.2,0.5,0,1.1,0.5,1.3c0.1,0.1,0.3,0.1,0.4,0.1c0.4,0,0.8-0.2,0.9-0.6
				c0.1-0.2,0.1-0.3,0.2-0.5c0.2-0.5,0-1.1-0.5-1.3C161,377.6,160.4,377.9,160.2,378.4z"/>
			<path d="M153.6,386.8c-0.1,0.1-0.3,0.2-0.4,0.2c-0.5,0.3-0.7,0.9-0.4,1.4c0.2,0.4,0.5,0.6,0.9,0.6c0.2,0,0.3,0,0.5-0.1
				c0.2-0.1,0.3-0.2,0.5-0.3c0.5-0.3,0.7-0.9,0.4-1.4C154.8,386.7,154.1,386.5,153.6,386.8z"/>
			<path d="M157.6,383.2c-0.1,0.1-0.2,0.3-0.3,0.4c-0.4,0.4-0.3,1.1,0.2,1.4c0.2,0.1,0.4,0.2,0.6,0.2c0.3,0,0.6-0.1,0.8-0.4
				c0.1-0.1,0.2-0.3,0.3-0.4c0.3-0.5,0.2-1.1-0.2-1.4C158.5,382.7,157.9,382.8,157.6,383.2z"/>
			<path d="M165.6,316.6c0,0.6,0.5,1,1,1c0,0,0,0,0,0c0.6,0,1-0.5,1-1l0-0.5c0-0.6-0.5-1-1-1c0,0,0,0,0,0c-0.6,0-1,0.5-1,1
				L165.6,316.6z"/>
			<path d="M166.6,303.6C166.6,303.6,166.6,303.6,166.6,303.6c-0.6,0-1,0.5-1,1l0,0.5c0,0.6,0.5,1,1,1c0,0,0,0,0,0c0.6,0,1-0.5,1-1
				l0-0.5C167.6,304.1,167.2,303.6,166.6,303.6z"/>
			<path d="M166.6,311.8C166.6,311.8,166.6,311.8,166.6,311.8c0.6,0,1-0.5,1-1l0-0.5c0-0.6-0.5-1-1-1c0,0,0,0,0,0c-0.6,0-1,0.5-1,1
				l0,0.5C165.6,311.4,166,311.8,166.6,311.8z"/>
			<path d="M167.6,321.8c0-0.6-0.5-1-1-1h0c-0.6,0-1,0.5-1,1v0.5c0,0.6,0.5,1,1,1h0c0.6,0,1-0.5,1-1V321.8z"/>
			<path d="M165.5,333.8c0,0.6,0.4,1,1,1c0,0,0,0,0,0c0.6,0,1-0.4,1-1l0-0.5c0-0.6-0.4-1-1-1c-0.6,0-1,0.4-1,1L165.5,333.8z"/>
			<path d="M167.5,339.1c0-0.6-0.4-1-1-1c-0.6,0-1,0.4-1,1l0,0.5c0,0.6,0.4,1,1,1c0,0,0,0,0,0c0.6,0,1-0.4,1-1L167.5,339.1z"/>
			<path d="M166.6,326.5C166.6,326.5,166.6,326.5,166.6,326.5c-0.6,0-1,0.5-1,1l0,0.5c0,0.6,0.5,1,1,1c0,0,0,0,0,0c0.6,0,1-0.5,1-1
				l0-0.5C167.6,327,167.2,326.5,166.6,326.5z"/>
			<path d="M167.3,344.9c0-0.6-0.4-1-1-1.1c-0.6,0-1,0.4-1.1,1l0,0.5c0,0.6,0.4,1,1,1.1c0,0,0,0,0,0c0.5,0,1-0.4,1-1L167.3,344.9z"
				/>
			<path d="M166.6,356.9l0-0.5c0-0.6-0.4-1.1-0.9-1.1c-0.6,0-1.1,0.4-1.1,0.9l0,0.5c0,0.6,0.4,1.1,0.9,1.1c0,0,0.1,0,0.1,0
				C166.1,357.9,166.5,357.5,166.6,356.9z"/>
			<path d="M166,362.7l0.1-0.5c0.1-0.6-0.3-1.1-0.9-1.1c-0.6-0.1-1.1,0.3-1.1,0.9l-0.1,0.5c-0.1,0.6,0.3,1.1,0.9,1.1
				c0,0,0.1,0,0.1,0C165.5,363.6,165.9,363.2,166,362.7z"/>
			<path d="M165.1,368.4l0.1-0.5c0.1-0.6-0.3-1.1-0.8-1.2c-0.6-0.1-1.1,0.3-1.2,0.8l-0.1,0.5c-0.1,0.6,0.3,1.1,0.8,1.2
				c0.1,0,0.1,0,0.2,0C164.6,369.3,165,368.9,165.1,368.4z"/>
			<path d="M167,351.2l0-0.5c0-0.6-0.4-1-1-1.1c-0.6,0-1,0.4-1.1,1l0,0.5c0,0.6,0.4,1,1,1.1c0,0,0,0,0.1,0
				C166.5,352.1,167,351.7,167,351.2z"/>
			<path d="M162.6,374.8c0.1,0,0.2,0,0.3,0c0.4,0,0.9-0.3,1-0.8c0-0.2,0.1-0.3,0.1-0.5c0.1-0.5-0.2-1.1-0.7-1.2
				c-0.5-0.1-1.1,0.2-1.2,0.7l-0.1,0.5C161.7,374.1,162,374.7,162.6,374.8z"/>
			<path d="M143.1,387.8l-0.2-0.1c-0.6-0.1-1.1,0.2-1.2,0.8c-0.1,0.6,0.2,1.1,0.8,1.2l0.3,0.1c0.1,0,0.1,0,0.2,0
				c0.5,0,0.9-0.3,1-0.8C144,388.5,143.7,387.9,143.1,387.8z"/>
			<path d="M96,300.3C96,300.3,96,300.3,96,300.3c0.6,0,1-0.5,1-1l0-0.3c0-0.6-0.5-1-1-1c-0.6,0-1,0.5-1,1l0,0.3
				C95,299.9,95.5,300.3,96,300.3z"/>
			<path d="M95.4,323C95.4,323,95.4,323,95.4,323c0.6,0,1-0.4,1.1-1l0-0.5c0-0.6-0.4-1-1-1c-0.6,0-1,0.4-1.1,1l0,0.5
				C94.4,322.5,94.8,323,95.4,323z"/>
			<path d="M95.2,328.7C95.2,328.7,95.2,328.7,95.2,328.7c0.6,0,1-0.4,1-1l0-0.5c0-0.6-0.4-1-1-1c-0.6,0-1,0.4-1,1l0,0.5
				C94.2,328.2,94.6,328.7,95.2,328.7z"/>
			<path d="M95.2,334.4C95.2,334.4,95.2,334.4,95.2,334.4c0.6,0,1-0.5,1-1l0-0.5c0-0.6-0.5-1-1-1c0,0,0,0,0,0c-0.6,0-1,0.5-1,1
				l0,0.5C94.2,333.9,94.6,334.4,95.2,334.4z"/>
			<path d="M95.6,317.3C95.6,317.3,95.6,317.3,95.6,317.3c0.6,0,1-0.4,1.1-1l0-0.5l0,0c0-0.6-0.4-1-1-1c-0.6,0-1,0.4-1.1,1l0,0.5
				C94.6,316.8,95,317.3,95.6,317.3z"/>
			<path d="M94.8,310.6c0,0.6,0.4,1,1,1.1c0,0,0,0,0,0c0.5,0,1-0.4,1-1l0-0.5l0,0c0-0.6-0.4-1-1-1c-0.6,0-1,0.4-1.1,1L94.8,310.6z"
				/>
			<path d="M95,304.9c0,0.6,0.4,1,1,1c0,0,0,0,0,0c0.6,0,1-0.4,1-1l0-0.5c0-0.6-0.4-1-1-1c-0.6,0-1,0.4-1,1L95,304.9z"/>
			<path d="M103,360.7c0.3,0,0.6-0.2,0.8-0.4c0.3-0.5,0.2-1.1-0.2-1.4c-0.1-0.1-0.3-0.2-0.4-0.3c-0.4-0.3-1.1-0.3-1.4,0.2
				c-0.3,0.4-0.3,1.1,0.2,1.4c0.1,0.1,0.3,0.2,0.5,0.3C102.5,360.6,102.8,360.7,103,360.7z"/>
			<path d="M107.5,362.7c0.2,0,0.4,0.1,0.5,0.1c0.1,0,0.1,0,0.2,0c0.5,0,0.9-0.4,1-0.8c0.1-0.6-0.3-1.1-0.8-1.2
				c-0.2,0-0.3-0.1-0.5-0.1c-0.6-0.1-1.1,0.2-1.2,0.8C106.5,362,106.9,362.5,107.5,362.7z"/>
			<path d="M113.4,362.9c0.2,0,0.4,0,0.5-0.1c0.6-0.1,1-0.6,0.9-1.1c-0.1-0.6-0.6-1-1.1-0.9c-0.2,0-0.3,0-0.5,0.1
				c-0.6,0.1-1,0.6-0.9,1.1C112.3,362.5,112.8,362.9,113.4,362.9C113.3,362.9,113.4,362.9,113.4,362.9z"/>
			<path d="M98.3,356c0.2,0.3,0.5,0.5,0.9,0.5c0.2,0,0.4,0,0.5-0.1c0.5-0.3,0.6-0.9,0.4-1.4c-0.1-0.1-0.2-0.3-0.2-0.4
				c-0.3-0.5-0.9-0.7-1.4-0.4c-0.5,0.3-0.7,0.9-0.4,1.4C98.1,355.7,98.2,355.8,98.3,356z"/>
			<path d="M95.9,345.7c0,0,0.1,0,0.1,0c0.6-0.1,0.9-0.6,0.9-1.2l-0.1-0.5c-0.1-0.6-0.6-1-1.1-0.9c-0.6,0.1-1,0.6-0.9,1.1l0.1,0.5
				C95,345.3,95.4,345.7,95.9,345.7z"/>
			<path d="M95.4,340c0.6,0,1-0.5,1-1.1l0-0.5c0-0.6-0.5-1-1.1-1c-0.6,0-1,0.5-1,1.1l0,0.5C94.4,339.6,94.8,340,95.4,340
				C95.4,340,95.4,340,95.4,340z"/>
			<path d="M96.1,350.5c0.1,0.4,0.5,0.7,1,0.7c0.1,0,0.2,0,0.3,0c0.5-0.2,0.9-0.7,0.7-1.3c0-0.2-0.1-0.3-0.1-0.5
				c-0.1-0.5-0.7-0.9-1.3-0.7c-0.5,0.1-0.9,0.7-0.7,1.3C96,350.2,96,350.3,96.1,350.5z"/>
			<path d="M118.9,361.8c0.1,0,0.2,0,0.3,0l0.3-0.1c0.5-0.2,0.9-0.7,0.7-1.3c-0.2-0.5-0.7-0.9-1.3-0.7l-0.2,0.1
				c-0.5,0.1-0.9,0.7-0.7,1.3C118.1,361.5,118.5,361.8,118.9,361.8z"/>
			<path d="M96.5,297.1c0,0,2.4,0,4.3,0c1.8,0,0,29.6,0,29.6c0,12.1,7.1,22.6,17.4,27.5c-0.1,0.3-0.1,0.6-0.1,0.9v0.3
				c0,2,1.5,3.7,3.4,4v10.2h-0.3c-1.4,0-2.5,1.3-2.5,3v1c0,1,0.4,1.9,1.1,2.5c-0.7,0.5-1.1,1.4-1.1,2.5v1c0,1.6,1.1,3,2.5,3h0.3v0.8
				c-0.6,0.3-0.9,0.8-0.9,1.5v1.2c0,0.7,0.4,1.2,0.9,1.5v25.8c-7,2.4-11.6,6.7-14.7,6.7c-4.4,0-4.5,0-4.5,0c-0.1,0-0.2,0.1-0.2,0.2
				v4.1c0,0.1,0.1,0.2,0.2,0.2H160c0.1,0,0.2-0.1,0.2-0.2v-4.1c0-0.1-0.1-0.2-0.2-0.2c0,0-0.4,0-4.5,0c-3,0-7.6-4.3-14.7-6.7v-25.7
				c0.6-0.3,0.9-0.8,0.9-1.5v-1.2c0-0.7-0.4-1.2-0.9-1.5v-0.8h0.3c1.4,0,2.5-1.3,2.5-3v-1c0-1-0.4-1.9-1.1-2.5
				c0.7-0.5,1.1-1.4,1.1-2.5v-1c0-1.6-1.1-3-2.5-3h-0.3v-10.2c1.9-0.3,3.4-2,3.4-4v-0.3c0-0.3,0-0.6-0.1-0.9
				c10.3-4.9,17.4-15.4,17.4-27.5c0,0-2-29.6,0-29.6c2,0,4.3,0,4.3,0c0.9,0,1.7-0.8,1.7-1.7v-1.9c0-0.9-0.8-1.7-1.7-1.7H96.5
				c-0.9,0-1.7,0.8-1.7,1.7v1.9C94.8,296.4,95.5,297.1,96.5,297.1z M130.9,348.3c-7.9,0-14.4-6.4-14.4-14.4c0-1.3,0.2-2.5,0.5-3.7
				c1.6,6.2,7.2,10.7,13.9,10.7c6.7,0,12.3-4.5,13.9-10.7c0.3,1.2,0.5,2.4,0.5,3.7C145.3,341.8,138.8,348.3,130.9,348.3z
				 M111.2,301.5c0.9-1.1,1.9-1.9,3-2.5c1.8-1,4.1-1.3,6-2.1h21.5c0,0,0,0,0,0.1c3.4,0.9,4.4,3,5.3,3.8c1,0.9,2.6,1.5,3.8,1.9
				c2.3,0.8,5.4,1.1,6.6,4.3c-1.4-2.6-4.9-2.2-7.6-2.1c-1.4,0-2.7-0.1-3.9-0.5c-1.9-0.7-3.6-2.1-5.4-3l7.8,10.1l-10.7-8.2
				c0.8,2,2.4,3.8,3.2,5.9c0.4,1.2,0.5,2.5,0.5,3.9c-0.1,2.8-0.5,6.2,2.1,7.6c-3.3-1.2-3.6-4.3-4.3-6.6c-0.4-1.2-1-2.8-1.9-3.8
				c-0.8-0.8-2.8-1.8-3.7-4.9l-2.1,21.4l-2.1-21.4c-0.9,3.1-2.9,4.1-3.7,4.9c-0.9,1-1.5,2.6-1.9,3.8c-0.8,2.3-1.1,5.4-4.3,6.6
				c2.6-1.4,2.2-4.9,2.1-7.6c0-1.4,0.1-2.7,0.5-3.9c0.7-2,2.3-3.9,3.2-5.9l-10.7,8.2l8.2-10.6c-3,1.9-5.2,1.3-6.4,1.4
				c-1.3,0.1-2.9,0.9-4,1.5c-2.1,1.2-4.4,3.3-7.6,1.9C107.4,306.4,109.4,303.6,111.2,301.5z"/>
			<path d="M166.5,471.8c-0.6,0-1,0.5-1,1l0,0.3c0,0.6,0.5,1,1,1c0,0,0,0,0,0c0.6,0,1-0.5,1-1l0-0.3
				C167.5,472.3,167,471.8,166.5,471.8z"/>
			<path d="M148.1,562.1c-0.6,0-1,0.5-1,1.1c0,0.5,0.5,1,1,1c0,0,0,0,0.1,0c0.2,0,0.4,0,0.6,0c0.6,0,1-0.5,0.9-1.1
				c0-0.6-0.5-1-1.1-0.9C148.5,562.1,148.3,562.1,148.1,562.1z"/>
			<path d="M160.2,552.2c-0.1,0.2-0.1,0.3-0.2,0.5c-0.2,0.5,0,1.1,0.5,1.3c0.1,0.1,0.3,0.1,0.4,0.1c0.4,0,0.8-0.2,0.9-0.6
				c0.1-0.2,0.1-0.3,0.2-0.5c0.2-0.5,0-1.1-0.5-1.3C161,551.4,160.4,551.7,160.2,552.2z"/>
			<path d="M153.6,560.6c-0.1,0.1-0.3,0.2-0.4,0.2c-0.5,0.3-0.7,0.9-0.4,1.4c0.2,0.4,0.5,0.6,0.9,0.6c0.2,0,0.3,0,0.5-0.1
				c0.2-0.1,0.3-0.2,0.5-0.3c0.5-0.3,0.7-0.9,0.4-1.4C154.8,560.4,154.1,560.3,153.6,560.6z"/>
			<path d="M157.6,557c-0.1,0.1-0.2,0.3-0.3,0.4c-0.4,0.4-0.3,1.1,0.2,1.4c0.2,0.1,0.4,0.2,0.6,0.2c0.3,0,0.6-0.1,0.8-0.4
				c0.1-0.1,0.2-0.3,0.3-0.4c0.3-0.5,0.2-1.1-0.2-1.4C158.5,556.5,157.9,556.6,157.6,557z"/>
			<path d="M166.6,488.8C166.6,488.8,166.6,488.8,166.6,488.8c-0.6,0-1,0.5-1,1l0,0.5c0,0.6,0.5,1,1,1c0,0,0,0,0,0c0.6,0,1-0.5,1-1
				l0-0.5C167.6,489.3,167.2,488.8,166.6,488.8z"/>
			<path d="M167.6,478.4c0-0.6-0.5-1-1-1c0,0,0,0,0,0c-0.6,0-1,0.5-1,1l0,0.5c0,0.6,0.5,1,1,1c0,0,0,0,0,0c0.6,0,1-0.5,1-1
				L167.6,478.4z"/>
			<path d="M167.6,484.1c0-0.6-0.5-1-1-1c0,0,0,0,0,0c-0.6,0-1,0.5-1,1l0,0.5c0,0.6,0.5,1,1,1c0,0,0,0,0,0c0.6,0,1-0.5,1-1
				L167.6,484.1z"/>
			<path d="M167.6,495.6c0-0.6-0.5-1-1-1h0c-0.6,0-1,0.5-1,1v0.5c0,0.6,0.5,1,1,1h0c0.6,0,1-0.5,1-1V495.6z"/>
			<path d="M167.6,507.1c0-0.6-0.4-1-1-1c-0.6,0-1,0.4-1,1l0,0.5c0,0.6,0.4,1,1,1c0,0,0,0,0,0c0.6,0,1-0.4,1-1L167.6,507.1z"/>
			<path d="M167.5,512.9c0-0.6-0.4-1-1-1c-0.6,0-1,0.4-1,1l0,0.5c0,0.6,0.4,1,1,1c0,0,0,0,0,0c0.6,0,1-0.4,1-1L167.5,512.9z"/>
			<path d="M167.6,501.4c0-0.6-0.5-1-1-1c0,0,0,0,0,0c-0.6,0-1,0.5-1,1l0,0.5c0,0.6,0.5,1,1,1c0,0,0,0,0,0c0.6,0,1-0.5,1-1
				L167.6,501.4z"/>
			<path d="M167.3,518.7c0-0.6-0.4-1-1-1.1c-0.6,0-1,0.4-1.1,1l0,0.5c0,0.6,0.4,1,1,1.1c0,0,0,0,0,0c0.5,0,1-0.4,1-1L167.3,518.7z"
				/>
			<path d="M166.6,530.7l0-0.5c0-0.6-0.4-1.1-0.9-1.1c-0.6,0-1.1,0.4-1.1,0.9l0,0.5c0,0.6,0.4,1.1,0.9,1.1c0,0,0.1,0,0.1,0
				C166.1,531.6,166.5,531.2,166.6,530.7z"/>
			<path d="M166,536.5l0.1-0.5c0.1-0.6-0.3-1.1-0.9-1.1c-0.6-0.1-1.1,0.3-1.1,0.9l-0.1,0.5c-0.1,0.6,0.3,1.1,0.9,1.1
				c0,0,0.1,0,0.1,0C165.5,537.4,165.9,537,166,536.5z"/>
			<path d="M165.1,542.2l0.1-0.5c0.1-0.6-0.3-1.1-0.8-1.2c-0.6-0.1-1.1,0.3-1.2,0.8l-0.1,0.5c-0.1,0.6,0.3,1.1,0.8,1.2
				c0.1,0,0.1,0,0.2,0C164.6,543.1,165,542.7,165.1,542.2z"/>
			<path d="M167,524.9l0-0.5c0-0.6-0.4-1-1-1.1c-0.6,0-1,0.4-1.1,1l0,0.5c0,0.6,0.4,1,1,1.1c0,0,0,0,0.1,0
				C166.5,525.9,167,525.5,167,524.9z"/>
			<path d="M162.6,548.6c0.1,0,0.2,0,0.3,0c0.4,0,0.9-0.3,1-0.8c0-0.2,0.1-0.3,0.1-0.5c0.1-0.5-0.2-1.1-0.7-1.2
				c-0.5-0.1-1.1,0.2-1.2,0.7l-0.1,0.5C161.7,547.9,162,548.5,162.6,548.6z"/>
			<path d="M143.1,561.6l-0.2-0.1c-0.6-0.1-1.1,0.2-1.2,0.8c-0.1,0.6,0.2,1.1,0.8,1.2l0.3,0.1c0.1,0,0.1,0,0.2,0
				c0.5,0,0.9-0.3,1-0.8C144,562.3,143.7,561.7,143.1,561.6z"/>
			<path d="M96,474.1C96,474.1,96,474.1,96,474.1c0.6,0,1-0.5,1-1l0-0.3c0-0.6-0.5-1-1-1c-0.6,0-1,0.5-1,1l0,0.3
				C95,473.7,95.5,474.1,96,474.1z"/>
			<path d="M96.4,495.3c0-0.6-0.4-1-1-1c-0.6,0-1,0.4-1.1,1l0,0.5c0,0.6,0.4,1,1,1.1c0,0,0,0,0,0c0.5,0,1-0.4,1-1L96.4,495.3z"/>
			<path d="M95.3,499.9c-0.6,0-1,0.4-1,1l0,0.5c0,0.6,0.4,1,1,1c0,0,0,0,0,0c0.6,0,1-0.4,1-1l0-0.5
				C96.3,500.4,95.8,499.9,95.3,499.9z"/>
			<path d="M95.2,508.2C95.2,508.2,95.2,508.2,95.2,508.2c0.6,0,1-0.5,1-1l0-0.5c0-0.6-0.5-1-1-1c0,0,0,0,0,0c-0.6,0-1,0.5-1,1
				l0,0.5C94.2,507.7,94.6,508.2,95.2,508.2z"/>
			<path d="M94.6,490.1c0,0.6,0.4,1,1,1.1c0,0,0,0,0,0c0.5,0,1-0.4,1-1l0-0.5l0,0c0-0.6-0.4-1-1-1c-0.6,0-1,0.4-1.1,1L94.6,490.1z"
				/>
			<path d="M94.8,484.4c0,0.6,0.4,1,1,1.1c0,0,0,0,0,0c0.5,0,1-0.4,1-1l0-0.5l0,0c0-0.6-0.4-1-1-1c-0.6,0-1,0.4-1.1,1L94.8,484.4z"
				/>
			<path d="M95,478.7c0,0.6,0.4,1,1,1c0,0,0,0,0,0c0.6,0,1-0.4,1-1l0-0.5c0-0.6-0.4-1-1-1c-0.6,0-1,0.4-1,1L95,478.7z"/>
			<path d="M103,534.5c0.3,0,0.6-0.2,0.8-0.4c0.3-0.5,0.2-1.1-0.2-1.4c-0.1-0.1-0.3-0.2-0.4-0.3c-0.4-0.3-1.1-0.3-1.4,0.2
				c-0.3,0.4-0.3,1.1,0.2,1.4c0.1,0.1,0.3,0.2,0.5,0.3C102.5,534.4,102.8,534.5,103,534.5z"/>
			<path d="M107.5,536.4c0.2,0,0.4,0.1,0.5,0.1c0.1,0,0.1,0,0.2,0c0.5,0,0.9-0.4,1-0.8c0.1-0.6-0.3-1.1-0.8-1.2
				c-0.2,0-0.3-0.1-0.5-0.1c-0.6-0.1-1.1,0.2-1.2,0.8C106.5,535.8,106.9,536.3,107.5,536.4z"/>
			<path d="M113.4,536.7c0.2,0,0.4,0,0.5-0.1c0.6-0.1,1-0.6,0.9-1.1c-0.1-0.6-0.6-1-1.1-0.9c-0.2,0-0.3,0-0.5,0.1
				c-0.6,0.1-1,0.6-0.9,1.1C112.3,536.3,112.8,536.7,113.4,536.7C113.3,536.7,113.4,536.7,113.4,536.7z"/>
			<path d="M99.8,528.3c-0.3-0.5-0.9-0.7-1.4-0.4c-0.5,0.3-0.7,0.9-0.4,1.4c0.1,0.2,0.2,0.3,0.3,0.5c0.2,0.3,0.5,0.5,0.9,0.5
				c0.2,0,0.4,0,0.5-0.1c0.5-0.3,0.6-0.9,0.4-1.4C100,528.6,99.9,528.5,99.8,528.3z"/>
			<path d="M96,519.5c0.6-0.1,0.9-0.6,0.9-1.2l-0.1-0.5c-0.1-0.6-0.6-1-1.1-0.9c-0.6,0.1-1,0.6-0.9,1.1l0.1,0.5
				c0.1,0.5,0.5,0.9,1,0.9C95.9,519.5,96,519.5,96,519.5z"/>
			<path d="M95.4,513.8c0.6,0,1-0.5,1-1.1l0-0.5c0-0.6-0.5-1-1.1-1c-0.6,0-1,0.5-1,1.1l0,0.5C94.4,513.4,94.8,513.8,95.4,513.8
				C95.4,513.8,95.4,513.8,95.4,513.8z"/>
			<path d="M98,523.7c0-0.2-0.1-0.3-0.1-0.5c-0.1-0.5-0.7-0.9-1.3-0.7c-0.5,0.1-0.9,0.7-0.7,1.3c0,0.2,0.1,0.3,0.1,0.5
				c0.1,0.4,0.5,0.7,1,0.7c0.1,0,0.2,0,0.3,0C97.9,524.9,98.2,524.3,98,523.7z"/>
			<path d="M118.9,535.6c0.1,0,0.2,0,0.3,0l0.3-0.1c0.5-0.2,0.9-0.7,0.7-1.3c-0.2-0.5-0.7-0.9-1.3-0.7l-0.2,0.1
				c-0.5,0.1-0.9,0.7-0.7,1.3C118.1,535.3,118.5,535.6,118.9,535.6z"/>
			<path d="M160.2,598.1V594c0-0.1-0.1-0.2-0.2-0.2c0,0-0.4,0-4.5,0c-3,0-7.6-4.3-14.7-6.7v-25.7c0.6-0.3,0.9-0.8,0.9-1.5v-1.2
				c0-0.7-0.4-1.2-0.9-1.5v-0.8h0.3c1.4,0,2.5-1.3,2.5-3v-1c0-1-0.4-1.9-1.1-2.5c0.7-0.5,1.1-1.4,1.1-2.5v-1c0-1.6-1.1-3-2.5-3h-0.3
				v-10.2c1.9-0.3,3.4-2,3.4-4v-0.3c0-0.3,0-0.6-0.1-0.9c10.3-4.9,17.4-15.4,17.4-27.5c0,0-2-29.6,0-29.6c2,0,4.3,0,4.3,0
				c0.9,0,1.7-0.8,1.7-1.7v-1.9c0-0.9-0.8-1.7-1.7-1.7H96.5c-0.9,0-1.7,0.8-1.7,1.7v1.9c0,0.9,0.8,1.7,1.7,1.7c0,0,2.4,0,4.3,0
				c1.8,0,0,29.6,0,29.6c0,12.1,7.1,22.6,17.4,27.5c-0.1,0.3-0.1,0.6-0.1,0.9v0.3c0,2,1.5,3.7,3.4,4v10.2h-0.3c-1.4,0-2.5,1.3-2.5,3
				v1c0,1,0.4,1.9,1.1,2.5c-0.7,0.5-1.1,1.4-1.1,2.5v1c0,1.6,1.1,3,2.5,3h0.3v0.8c-0.6,0.3-0.9,0.8-0.9,1.5v1.2
				c0,0.7,0.4,1.2,0.9,1.5v25.8c-7,2.4-11.6,6.7-14.7,6.7c-4.4,0-4.5,0-4.5,0c-0.1,0-0.2,0.1-0.2,0.2v4.1c0,0.1,0.1,0.2,0.2,0.2H160
				C160.1,598.3,160.2,598.2,160.2,598.1z M116,476c-1.3,0.1-2.9,0.9-4,1.5c-2.1,1.2-4.4,3.3-7.6,1.9c2.9,0.7,4.9-2.1,6.7-4.2
				c0.9-1.1,1.9-1.9,3-2.5c1.8-1,4.1-1.3,6-2.1h21.5c0,0,0,0,0,0.1c3.4,0.9,4.4,3,5.3,3.8c1,0.9,2.6,1.5,3.8,1.9
				c2.3,0.8,5.4,1.1,6.6,4.3c-1.4-2.6-4.9-2.2-7.6-2.1c-1.4,0-2.7-0.1-3.9-0.5c-1.9-0.7-3.6-2.1-5.4-3l7.8,10.1l-10.7-8.2
				c0.8,2,2.4,3.8,3.2,5.9c0.4,1.2,0.5,2.5,0.5,3.9c-0.1,2.8-0.5,6.2,2.1,7.6c-3.3-1.2-3.6-4.3-4.3-6.6c-0.4-1.2-1-2.8-1.9-3.8
				c-0.8-0.8-2.8-1.8-3.7-4.9l-2.1,21.4l-2.1-21.4c-0.9,3.1-2.9,4.1-3.7,4.9c-0.9,1-1.5,2.6-1.9,3.8c-0.8,2.3-1.1,5.4-4.3,6.6
				c2.6-1.4,2.2-4.9,2.1-7.6c0-1.4,0.1-2.7,0.5-3.9c0.7-2,2.3-3.9,3.2-5.9l-10.7,8.2l8.2-10.6C119.4,476.6,117.2,476,116,476z
				 M116.5,507.7c0-1.3,0.2-2.5,0.5-3.7c1.6,6.2,7.2,10.7,13.9,10.7c6.7,0,12.3-4.5,13.9-10.7c0.3,1.2,0.5,2.4,0.5,3.7
				c0,7.9-6.4,14.4-14.4,14.4C123,522.1,116.5,515.6,116.5,507.7z"/>
			<path d="M287.2,406.3C287.2,406.3,287.2,406.3,287.2,406.3c0.6,0,1-0.5,1-1l0-0.3c0-0.6-0.5-1-1-1c-0.6,0-1,0.5-1,1l0,0.3
				C286.2,405.9,286.7,406.3,287.2,406.3z"/>
			<path d="M268.9,494.3c-0.6,0-1,0.5-1,1.1c0,0.5,0.5,1,1,1c0,0,0,0,0,0c0.2,0,0.4,0,0.6,0c0.6,0,1-0.5,0.9-1.1
				c0-0.6-0.5-1-1.1-0.9C269.2,494.3,269.1,494.3,268.9,494.3z"/>
			<path d="M281.7,486.3c0.4,0,0.8-0.2,0.9-0.6c0.1-0.2,0.1-0.3,0.2-0.5c0.2-0.5,0-1.1-0.5-1.3c-0.5-0.2-1.1,0-1.3,0.5
				c-0.1,0.2-0.1,0.3-0.2,0.5c-0.2,0.5,0,1.1,0.5,1.3C281.4,486.3,281.6,486.3,281.7,486.3z"/>
			<path d="M274.4,492.8c-0.1,0.1-0.3,0.2-0.4,0.2c-0.5,0.3-0.7,0.9-0.4,1.4c0.2,0.4,0.5,0.6,0.9,0.6c0.2,0,0.3,0,0.5-0.1
				c0.2-0.1,0.3-0.2,0.5-0.3c0.5-0.3,0.7-0.9,0.4-1.4C275.5,492.6,274.9,492.5,274.4,492.8z"/>
			<path d="M278.3,489.2c-0.1,0.1-0.2,0.3-0.3,0.4c-0.4,0.4-0.3,1.1,0.2,1.4c0.2,0.1,0.4,0.2,0.6,0.2c0.3,0,0.6-0.1,0.8-0.4
				c0.1-0.1,0.2-0.3,0.3-0.4c0.3-0.5,0.2-1.1-0.2-1.4C279.3,488.7,278.6,488.8,278.3,489.2z"/>
			<path d="M287.4,423.6C287.4,423.6,287.4,423.6,287.4,423.6c0.6,0,1-0.5,1-1l0-0.5c0-0.6-0.5-1-1-1c0,0,0,0,0,0c-0.6,0-1,0.5-1,1
				l0,0.5C286.3,423.1,286.8,423.6,287.4,423.6z"/>
			<path d="M288.4,410.6c0-0.6-0.5-1-1-1c0,0,0,0,0,0c-0.6,0-1,0.5-1,1l0,0.5c0,0.6,0.5,1,1,1c0,0,0,0,0,0c0.6,0,1-0.5,1-1
				L288.4,410.6z"/>
			<path d="M288.4,416.3c0-0.6-0.5-1-1-1c0,0,0,0,0,0c-0.6,0-1,0.5-1,1l0,0.5c0,0.6,0.5,1,1,1c0,0,0,0,0,0c0.6,0,1-0.5,1-1
				L288.4,416.3z"/>
			<path d="M287.4,426.8C287.4,426.8,287.4,426.8,287.4,426.8c-0.6,0-1,0.5-1,1v0.5c0,0.6,0.5,1,1,1h0c0.6,0,1-0.5,1-1v-0.5
				C288.4,427.2,287.9,426.8,287.4,426.8z"/>
			<path d="M287.3,440.8C287.3,440.8,287.3,440.8,287.3,440.8c0.6,0,1-0.4,1-1l0-0.5c0-0.6-0.4-1-1-1c-0.6,0-1,0.4-1,1l0,0.5
				C286.3,440.4,286.7,440.8,287.3,440.8z"/>
			<path d="M288.2,445.1c0-0.6-0.4-1-1-1c-0.6,0-1,0.4-1,1l0,0.5c0,0.6,0.4,1,1,1c0,0,0,0,0,0c0.6,0,1-0.4,1-1L288.2,445.1z"/>
			<path d="M287.4,432.5C287.4,432.5,287.4,432.5,287.4,432.5c-0.6,0-1,0.5-1,1l0,0.5c0,0.6,0.5,1,1,1c0,0,0,0,0,0c0.6,0,1-0.5,1-1
				l0-0.5C288.4,433,287.9,432.5,287.4,432.5z"/>
			<path d="M288.1,450.9c0-0.6-0.4-1-1-1.1c-0.6,0-1,0.4-1.1,1l0,0.5c0,0.6,0.4,1,1,1.1c0,0,0,0,0,0c0.5,0,1-0.4,1-1L288.1,450.9z"
				/>
			<path d="M287.3,462.9l0-0.5c0-0.6-0.4-1.1-0.9-1.1c-0.6,0-1.1,0.4-1.1,0.9l0,0.5c0,0.6,0.4,1.1,0.9,1.1c0,0,0.1,0,0.1,0
				C286.8,463.8,287.3,463.4,287.3,462.9z"/>
			<path d="M286.7,468.7l0.1-0.5c0.1-0.6-0.3-1.1-0.9-1.1c-0.6-0.1-1.1,0.3-1.1,0.9l-0.1,0.5c-0.1,0.6,0.3,1.1,0.9,1.1
				c0,0,0.1,0,0.1,0C286.2,469.6,286.7,469.2,286.7,468.7z"/>
			<path d="M285.9,474.4l0.1-0.5c0.1-0.6-0.3-1.1-0.8-1.2c-0.6-0.1-1.1,0.3-1.2,0.8l-0.1,0.5c-0.1,0.6,0.3,1.1,0.8,1.2
				c0.1,0,0.1,0,0.2,0C285.3,475.3,285.8,474.9,285.9,474.4z"/>
			<path d="M287.8,457.1l0-0.5c0-0.6-0.4-1-1-1.1c-0.6,0-1,0.4-1.1,1l0,0.5c0,0.6,0.4,1,1,1.1c0,0,0,0,0.1,0
				C287.3,458.1,287.7,457.7,287.8,457.1z"/>
			<path d="M283.3,480.8c0.1,0,0.2,0,0.3,0c0.4,0,0.9-0.3,1-0.8c0-0.2,0.1-0.3,0.1-0.5c0.1-0.5-0.2-1.1-0.7-1.2
				c-0.5-0.1-1.1,0.2-1.2,0.7l-0.1,0.5C282.5,480.1,282.8,480.7,283.3,480.8z"/>
			<path d="M263.9,493.8l-0.2-0.1c-0.6-0.1-1.1,0.2-1.2,0.8c-0.1,0.6,0.2,1.1,0.8,1.2l0.3,0.1c0.1,0,0.1,0,0.2,0
				c0.5,0,0.9-0.3,1-0.8C264.8,494.5,264.4,493.9,263.9,493.8z"/>
			<path d="M216.8,406.3C216.8,406.3,216.8,406.3,216.8,406.3c0.6,0,1-0.5,1-1l0-0.3c0-0.6-0.5-1-1-1c-0.6,0-1,0.5-1,1l0,0.3
				C215.8,405.9,216.2,406.3,216.8,406.3z"/>
			<path d="M216.2,426.5c-0.6,0-1,0.4-1.1,1l0,0.5c0,0.6,0.4,1,1,1.1c0,0,0,0,0,0c0.5,0,1-0.4,1-1l0-0.5
				C217.2,426.9,216.8,426.5,216.2,426.5z"/>
			<path d="M215,433.6c0,0.6,0.4,1,1,1c0,0,0,0,0,0c0.6,0,1-0.4,1-1l0-0.5c0-0.6-0.4-1-1-1c-0.6,0-1,0.4-1,1L215,433.6z"/>
			<path d="M215.9,440.4C215.9,440.4,215.9,440.4,215.9,440.4c0.6,0,1-0.5,1-1l0-0.5c0-0.6-0.5-1-1-1c0,0,0,0,0,0c-0.6,0-1,0.5-1,1
				l0,0.5C214.9,439.9,215.4,440.4,215.9,440.4z"/>
			<path d="M215.4,422.3c0,0.6,0.4,1,1,1.1c0,0,0,0,0,0c0.5,0,1-0.4,1-1l0-0.5l0,0c0-0.6-0.4-1-1-1c-0.6,0-1,0.4-1.1,1L215.4,422.3z
				"/>
			<path d="M215.6,416.6c0,0.6,0.4,1,1,1.1c0,0,0,0,0,0c0.5,0,1-0.4,1-1l0-0.5l0,0c0-0.6-0.4-1-1-1c-0.6,0-1,0.4-1.1,1L215.6,416.6z
				"/>
			<path d="M215.7,410.9c0,0.6,0.4,1,1,1c0,0,0,0,0,0c0.6,0,1-0.4,1-1l0-0.5c0-0.6-0.4-1-1-1c-0.6,0-1,0.4-1,1L215.7,410.9z"/>
			<path d="M223.7,466.7c0.3,0,0.6-0.2,0.8-0.4c0.3-0.5,0.2-1.1-0.2-1.4c-0.1-0.1-0.3-0.2-0.4-0.3c-0.4-0.3-1.1-0.3-1.4,0.2
				c-0.3,0.4-0.3,1.1,0.2,1.4c0.1,0.1,0.3,0.2,0.4,0.3C223.3,466.6,223.5,466.7,223.7,466.7z"/>
			<path d="M228.2,468.6c0.2,0,0.4,0.1,0.5,0.1c0.1,0,0.1,0,0.2,0c0.5,0,0.9-0.4,1-0.8c0.1-0.6-0.3-1.1-0.8-1.2
				c-0.2,0-0.3-0.1-0.5-0.1c-0.6-0.1-1.1,0.2-1.2,0.8C227.3,468,227.7,468.5,228.2,468.6z"/>
			<path d="M234.2,468.9c0.2,0,0.4,0,0.5-0.1c0.6-0.1,1-0.6,0.9-1.1c-0.1-0.6-0.6-1-1.1-0.9c-0.2,0-0.3,0-0.5,0.1
				c-0.6,0.1-1,0.6-0.9,1.1C233.1,468.5,233.5,468.9,234.2,468.9C234.1,468.9,234.1,468.9,234.2,468.9z"/>
			<path d="M219.1,462c0.2,0.3,0.5,0.5,0.9,0.5c0.2,0,0.4,0,0.5-0.1c0.5-0.3,0.6-0.9,0.4-1.4c-0.1-0.1-0.2-0.3-0.2-0.4
				c-0.3-0.5-0.9-0.7-1.4-0.4c-0.5,0.3-0.7,0.9-0.4,1.4C218.9,461.7,219,461.8,219.1,462z"/>
			<path d="M216.7,451.7c0,0,0.1,0,0.1,0c0.6-0.1,0.9-0.6,0.9-1.2l-0.1-0.5c-0.1-0.6-0.6-1-1.1-0.9c-0.6,0.1-1,0.6-0.9,1.1l0.1,0.5
				C215.7,451.3,216.1,451.7,216.7,451.7z"/>
			<path d="M216.2,446c0.6,0,1-0.5,1-1.1l0-0.5c0-0.6-0.5-1-1.1-1c-0.6,0-1,0.5-1,1.1l0,0.5C215.1,445.6,215.6,446,216.2,446
				C216.1,446,216.2,446,216.2,446z"/>
			<path d="M216.8,456.5c0.1,0.4,0.5,0.7,1,0.7c0.1,0,0.2,0,0.3,0c0.5-0.2,0.9-0.7,0.7-1.3c0-0.2-0.1-0.3-0.1-0.5
				c-0.1-0.5-0.7-0.9-1.3-0.7c-0.5,0.1-0.9,0.7-0.7,1.3C216.7,456.2,216.8,456.3,216.8,456.5z"/>
			<path d="M239.7,467.8c0.1,0,0.2,0,0.3,0l0.3-0.1c0.5-0.2,0.9-0.7,0.7-1.3c-0.2-0.5-0.7-0.9-1.3-0.7l-0.2,0.1
				c-0.5,0.1-0.9,0.7-0.7,1.3C238.8,467.5,239.2,467.8,239.7,467.8z"/>
			<path d="M223,530.5h57.8c0.1,0,0.2-0.1,0.2-0.2v-4.1c0-0.1-0.1-0.2-0.2-0.2c0,0-0.4,0-4.5,0c-3,0-7.6-4.3-14.7-6.7v-25.7
				c0.6-0.3,0.9-0.8,0.9-1.5v-1.2c0-0.7-0.4-1.2-0.9-1.5v-0.8h0.3c1.4,0,2.5-1.3,2.5-3v-1c0-1-0.4-1.9-1.1-2.5
				c0.7-0.5,1.1-1.4,1.1-2.5v-1c0-1.6-1.1-3-2.5-3h-0.3v-10.2c1.9-0.3,3.4-2,3.4-4v-0.3c0-0.3,0-0.6-0.1-0.9
				c10.3-4.9,17.4-15.4,17.4-27.5c0,0-2-29.6,0-29.6c2,0,4.3,0,4.3,0c0.9,0,1.7-0.8,1.7-1.7v-1.9c0-0.9-0.8-1.7-1.7-1.7h-69.3
				c-0.9,0-1.7,0.8-1.7,1.7v1.9c0,0.9,0.8,1.7,1.7,1.7c0,0,2.4,0,4.3,0s0,29.6,0,29.6c0,12.1,7.1,22.6,17.4,27.5
				c-0.1,0.3-0.1,0.6-0.1,0.9v0.3c0,2,1.5,3.7,3.4,4v10.2h-0.3c-1.4,0-2.5,1.3-2.5,3v1c0,1,0.4,1.9,1.1,2.5
				c-0.7,0.5-1.1,1.4-1.1,2.5v1c0,1.6,1.1,3,2.5,3h0.3v0.8c-0.6,0.3-0.9,0.8-0.9,1.5v1.2c0,0.7,0.4,1.2,0.9,1.5v25.8
				c-7,2.4-11.6,6.7-14.7,6.7c-4.4,0-4.5,0-4.5,0c-0.1,0-0.2,0.1-0.2,0.2v4.1C222.8,530.4,222.9,530.5,223,530.5z M236.8,408.2
				c-1.3,0.1-2.9,0.9-4,1.5c-2.1,1.2-4.4,3.3-7.6,1.9c2.9,0.7,4.9-2.1,6.7-4.2c0.9-1.1,1.9-1.9,3-2.5c1.8-1,4.1-1.3,6-2.1h21.5
				c0,0,0,0,0,0.1c3.4,0.9,4.4,3,5.3,3.8c1,0.9,2.6,1.5,3.8,1.9c2.3,0.8,5.4,1.1,6.6,4.3c-1.4-2.6-4.9-2.2-7.6-2.1
				c-1.4,0-2.7-0.1-3.9-0.5c-1.9-0.7-3.6-2.1-5.4-3l7.8,10.1l-10.7-8.2c0.8,2,2.4,3.8,3.2,5.9c0.4,1.2,0.5,2.5,0.5,3.9
				c-0.1,2.8-0.5,6.2,2.1,7.6c-3.3-1.2-3.6-4.3-4.3-6.6c-0.4-1.2-1-2.8-1.9-3.8c-0.8-0.8-2.8-1.8-3.7-4.9l-2.1,21.4l-2.1-21.4
				c-0.9,3.1-2.9,4.1-3.7,4.9c-0.9,1-1.5,2.6-1.9,3.8c-0.8,2.3-1.1,5.4-4.3,6.6c2.6-1.4,2.2-4.9,2.1-7.6c0-1.4,0.1-2.7,0.5-3.9
				c0.7-2,2.3-3.9,3.2-5.9l-10.7,8.2l8.2-10.6C240.2,408.8,238,408.2,236.8,408.2z M237.3,439.9c0-1.3,0.2-2.5,0.5-3.7
				c1.6,6.2,7.2,10.7,13.9,10.7c6.7,0,12.3-4.5,13.9-10.7c0.3,1.2,0.5,2.4,0.5,3.7c0,7.9-6.4,14.4-14.4,14.4
				C243.7,454.3,237.3,447.8,237.3,439.9z"/>
			<path d="M287.2,577.8c-0.6,0-1,0.5-1,1l0,0.3c0,0.6,0.5,1,1,1c0,0,0,0,0,0c0.6,0,1-0.5,1-1l0-0.3
				C288.3,578.2,287.8,577.8,287.2,577.8z"/>
			<path d="M268.9,668.1c-0.6,0-1,0.5-1,1.1c0,0.5,0.5,1,1,1c0,0,0,0,0,0c0.2,0,0.4,0,0.6,0c0.6,0,1-0.5,0.9-1.1
				c0-0.6-0.5-1-1.1-0.9C269.2,668.1,269.1,668.1,268.9,668.1z"/>
			<path d="M282.3,657.7c-0.5-0.2-1.1,0-1.3,0.5c-0.1,0.2-0.1,0.3-0.2,0.5c-0.2,0.5,0,1.1,0.5,1.3c0.1,0.1,0.3,0.1,0.4,0.1
				c0.4,0,0.8-0.2,0.9-0.6c0.1-0.2,0.1-0.3,0.2-0.5C283.1,658.5,282.8,657.9,282.3,657.7z"/>
			<path d="M274.4,666.6c-0.1,0.1-0.3,0.2-0.4,0.2c-0.5,0.3-0.7,0.9-0.4,1.4c0.2,0.4,0.5,0.6,0.9,0.6c0.2,0,0.3,0,0.5-0.1
				c0.2-0.1,0.3-0.2,0.5-0.3c0.5-0.3,0.7-0.9,0.4-1.4C275.5,666.4,274.9,666.3,274.4,666.6z"/>
			<path d="M278.3,663c-0.1,0.1-0.2,0.3-0.3,0.4c-0.4,0.4-0.3,1.1,0.2,1.4c0.2,0.1,0.4,0.2,0.6,0.2c0.3,0,0.6-0.1,0.8-0.4
				c0.1-0.1,0.2-0.3,0.3-0.4c0.3-0.5,0.2-1.1-0.2-1.4C279.3,662.5,278.6,662.5,278.3,663z"/>
			<path d="M287.4,594.8C287.4,594.8,287.4,594.8,287.4,594.8c-0.6,0-1,0.5-1,1l0,0.5c0,0.6,0.5,1,1,1c0,0,0,0,0,0c0.6,0,1-0.5,1-1
				l0-0.5C288.4,595.3,287.9,594.8,287.4,594.8z"/>
			<path d="M288.4,584.4c0-0.6-0.5-1-1-1c0,0,0,0,0,0c-0.6,0-1,0.5-1,1l0,0.5c0,0.6,0.5,1,1,1c0,0,0,0,0,0c0.6,0,1-0.5,1-1
				L288.4,584.4z"/>
			<path d="M288.4,590.1c0-0.6-0.5-1-1-1c0,0,0,0,0,0c-0.6,0-1,0.5-1,1l0,0.5c0,0.6,0.5,1,1,1c0,0,0,0,0,0c0.6,0,1-0.5,1-1
				L288.4,590.1z"/>
			<path d="M287.4,600.6C287.4,600.6,287.4,600.6,287.4,600.6c-0.6,0-1,0.5-1,1v0.5c0,0.6,0.5,1,1,1h0c0.6,0,1-0.5,1-1v-0.5
				C288.4,601,287.9,600.6,287.4,600.6z"/>
			<path d="M287.3,612.1c-0.6,0-1,0.4-1,1l0,0.5c0,0.6,0.4,1,1,1c0,0,0,0,0,0c0.6,0,1-0.4,1-1l0-0.5
				C288.3,612.5,287.9,612.1,287.3,612.1z"/>
			<path d="M287.2,617.8c-0.6,0-1,0.4-1,1l0,0.5c0,0.6,0.4,1,1,1c0,0,0,0,0,0c0.6,0,1-0.4,1-1l0-0.5
				C288.2,618.3,287.8,617.8,287.2,617.8z"/>
			<path d="M287.4,606.3C287.4,606.3,287.4,606.3,287.4,606.3c-0.6,0-1,0.5-1,1l0,0.5c0,0.6,0.5,1,1,1c0,0,0,0,0,0c0.6,0,1-0.5,1-1
				l0-0.5C288.4,606.8,287.9,606.3,287.4,606.3z"/>
			<path d="M287.1,623.6c-0.6,0-1,0.4-1.1,1l0,0.5c0,0.6,0.4,1,1,1.1c0,0,0,0,0,0c0.5,0,1-0.4,1-1l0-0.5
				C288.1,624.1,287.6,623.6,287.1,623.6z"/>
			<path d="M286.5,635.1c-0.6,0-1.1,0.4-1.1,0.9l0,0.5c0,0.6,0.4,1.1,0.9,1.1c0,0,0.1,0,0.1,0c0.5,0,1-0.4,1-0.9l0-0.5
				C287.4,635.6,287,635.1,286.5,635.1z"/>
			<path d="M285.9,640.8c-0.6-0.1-1.1,0.3-1.1,0.9l-0.1,0.5c-0.1,0.6,0.3,1.1,0.9,1.1c0,0,0.1,0,0.1,0c0.5,0,0.9-0.4,1-0.9l0.1-0.5
				C286.9,641.4,286.5,640.9,285.9,640.8z"/>
			<path d="M285.1,646.5c-0.6-0.1-1.1,0.3-1.2,0.8l-0.1,0.5c-0.1,0.6,0.3,1.1,0.8,1.2c0.1,0,0.1,0,0.2,0c0.5,0,0.9-0.3,1-0.8
				l0.1-0.5C286.1,647.1,285.7,646.6,285.1,646.5z"/>
			<path d="M286.8,629.3c-0.6,0-1,0.4-1.1,1l0,0.5c0,0.6,0.4,1,1,1.1c0,0,0,0,0.1,0c0.5,0,1-0.4,1-1l0-0.5
				C287.8,629.9,287.4,629.4,286.8,629.3z"/>
			<path d="M284,652.2c-0.5-0.1-1.1,0.2-1.2,0.7l-0.1,0.5c-0.2,0.5,0.2,1.1,0.7,1.3c0.1,0,0.2,0,0.3,0c0.4,0,0.9-0.3,1-0.8
				c0-0.2,0.1-0.3,0.1-0.5C284.9,652.9,284.5,652.3,284,652.2z"/>
			<path d="M263.9,667.6l-0.2-0.1c-0.6-0.1-1.1,0.2-1.2,0.8c-0.1,0.6,0.2,1.1,0.8,1.2l0.3,0.1c0.1,0,0.1,0,0.2,0
				c0.5,0,0.9-0.3,1-0.8C264.8,668.3,264.4,667.7,263.9,667.6z"/>
			<path d="M216.8,580.1C216.8,580.1,216.8,580.1,216.8,580.1c0.6,0,1-0.5,1-1l0-0.3c0-0.6-0.5-1-1-1c-0.6,0-1,0.5-1,1l0,0.3
				C215.8,579.6,216.2,580.1,216.8,580.1z"/>
			<path d="M217.2,601.3c0-0.6-0.4-1-1-1c-0.6,0-1,0.4-1.1,1l0,0.5c0,0.6,0.4,1,1,1.1c0,0,0,0,0,0c0.5,0,1-0.4,1-1L217.2,601.3z"/>
			<path d="M216,605.9c-0.6,0-1,0.4-1,1l0,0.5c0,0.6,0.4,1,1,1c0,0,0,0,0,0c0.6,0,1-0.4,1-1l0-0.5C217,606.4,216.6,605.9,216,605.9z
				"/>
			<path d="M215.9,614.2C215.9,614.2,215.9,614.2,215.9,614.2c0.6,0,1-0.5,1-1l0-0.5c0-0.6-0.5-1-1-1c0,0,0,0,0,0c-0.6,0-1,0.5-1,1
				l0,0.5C214.9,613.7,215.4,614.2,215.9,614.2z"/>
			<path d="M215.4,596.1c0,0.6,0.4,1,1,1.1c0,0,0,0,0,0c0.5,0,1-0.4,1-1l0-0.5l0,0c0-0.6-0.4-1-1-1c-0.6,0-1,0.4-1.1,1L215.4,596.1z
				"/>
			<path d="M215.6,590.3c0,0.6,0.4,1,1,1.1c0,0,0,0,0,0c0.5,0,1-0.4,1-1l0-0.5l0,0c0-0.6-0.4-1-1-1c-0.6,0-1,0.4-1.1,1L215.6,590.3z
				"/>
			<path d="M215.7,584.7c0,0.6,0.4,1,1,1c0,0,0,0,0,0c0.6,0,1-0.4,1-1l0-0.5c0-0.6-0.4-1-1-1c-0.6,0-1,0.4-1,1L215.7,584.7z"/>
			<path d="M223.1,640.3c0.2,0.1,0.4,0.2,0.6,0.2c0.3,0,0.6-0.2,0.8-0.4c0.3-0.5,0.2-1.1-0.2-1.4c-0.1-0.1-0.3-0.2-0.4-0.3
				c-0.4-0.3-1.1-0.3-1.4,0.2c-0.3,0.4-0.3,1.1,0.2,1.4C222.8,640.1,223,640.2,223.1,640.3z"/>
			<path d="M228.2,642.4c0.2,0,0.4,0.1,0.5,0.1c0.1,0,0.1,0,0.2,0c0.5,0,0.9-0.4,1-0.8c0.1-0.6-0.3-1.1-0.8-1.2
				c-0.2,0-0.3-0.1-0.5-0.1c-0.6-0.1-1.1,0.2-1.2,0.8C227.3,641.8,227.7,642.3,228.2,642.4z"/>
			<path d="M234.2,642.7c0.2,0,0.4,0,0.5-0.1c0.6-0.1,1-0.6,0.9-1.1c-0.1-0.6-0.6-1-1.1-0.9c-0.2,0-0.3,0-0.5,0.1
				c-0.6,0.1-1,0.6-0.9,1.1C233.1,642.3,233.5,642.7,234.2,642.7C234.1,642.7,234.1,642.7,234.2,642.7z"/>
			<path d="M219.1,635.8c0.2,0.3,0.5,0.5,0.9,0.5c0.2,0,0.4,0,0.5-0.1c0.5-0.3,0.6-0.9,0.4-1.4c-0.1-0.1-0.2-0.3-0.2-0.4
				c-0.3-0.5-0.9-0.7-1.4-0.4c-0.5,0.3-0.7,0.9-0.4,1.4C218.9,635.5,219,635.6,219.1,635.8z"/>
			<path d="M215.6,624.1l0.1,0.5c0.1,0.5,0.5,0.9,1,0.9c0,0,0.1,0,0.1,0c0.6-0.1,0.9-0.6,0.9-1.2l-0.1-0.5c-0.1-0.6-0.6-1-1.1-0.9
				C215.9,623,215.5,623.5,215.6,624.1z"/>
			<path d="M216.1,619.8C216.1,619.8,216.2,619.8,216.1,619.8c0.6,0,1.1-0.5,1-1.1l0-0.5c0-0.6-0.5-1-1.1-1c-0.6,0-1,0.5-1,1.1
				l0,0.5C215.1,619.4,215.6,619.8,216.1,619.8z"/>
			<path d="M218.6,629.3c-0.1-0.5-0.7-0.9-1.3-0.7c-0.5,0.1-0.9,0.7-0.7,1.3c0,0.2,0.1,0.3,0.1,0.5c0.1,0.4,0.5,0.7,1,0.7
				c0.1,0,0.2,0,0.3,0c0.5-0.2,0.9-0.7,0.7-1.3C218.7,629.6,218.7,629.4,218.6,629.3z"/>
			<path d="M239.7,641.6c0.1,0,0.2,0,0.3,0l0.3-0.1c0.5-0.2,0.9-0.7,0.7-1.3c-0.2-0.5-0.7-0.9-1.3-0.7l-0.2,0.1
				c-0.5,0.1-0.9,0.7-0.7,1.3C238.8,641.3,239.2,641.6,239.7,641.6z"/>
			<path d="M280.8,699.8c0,0-0.4,0-4.5,0c-3,0-7.6-4.3-14.7-6.7v-25.7c0.6-0.3,0.9-0.8,0.9-1.5v-1.2c0-0.7-0.4-1.2-0.9-1.5v-0.8h0.3
				c1.4,0,2.5-1.3,2.5-3v-1c0-1-0.4-1.9-1.1-2.5c0.7-0.5,1.1-1.4,1.1-2.5v-1c0-1.6-1.1-3-2.5-3h-0.3v-10.2c1.9-0.3,3.4-2,3.4-4v-0.3
				c0-0.3,0-0.6-0.1-0.9c10.3-4.9,17.4-15.4,17.4-27.5c0,0-2-29.6,0-29.6c2,0,4.3,0,4.3,0c0.9,0,1.7-0.8,1.7-1.7v-1.9
				c0-0.9-0.8-1.7-1.7-1.7h-69.3c-0.9,0-1.7,0.8-1.7,1.7v1.9c0,0.9,0.8,1.7,1.7,1.7c0,0,2.4,0,4.3,0s0,29.6,0,29.6
				c0,12.1,7.1,22.6,17.4,27.5c-0.1,0.3-0.1,0.6-0.1,0.9v0.3c0,2,1.5,3.7,3.4,4v10.2h-0.3c-1.4,0-2.5,1.3-2.5,3v1
				c0,1,0.4,1.9,1.1,2.5c-0.7,0.5-1.1,1.4-1.1,2.5v1c0,1.6,1.1,3,2.5,3h0.3v0.8c-0.6,0.3-0.9,0.8-0.9,1.5v1.2c0,0.7,0.4,1.2,0.9,1.5
				v25.8c-7,2.4-11.6,6.7-14.7,6.7c-4.4,0-4.5,0-4.5,0c-0.1,0-0.2,0.1-0.2,0.2v4.1c0,0.1,0.1,0.2,0.2,0.2h57.8
				c0.1,0,0.2-0.1,0.2-0.2V700C281,699.9,280.9,699.8,280.8,699.8z M236.8,582c-1.3,0.1-2.9,0.9-4,1.5c-2.1,1.2-4.4,3.3-7.6,1.9
				c2.9,0.7,4.9-2.1,6.7-4.2c0.9-1.1,1.9-1.9,3-2.5c1.8-1,4.1-1.3,6-2.1h21.5c0,0,0,0,0,0.1c3.4,0.9,4.4,3,5.3,3.8
				c1,0.9,2.6,1.5,3.8,1.9c2.3,0.8,5.4,1.1,6.6,4.3c-1.4-2.6-4.9-2.2-7.6-2.1c-1.4,0-2.7-0.1-3.9-0.5c-1.9-0.7-3.6-2.1-5.4-3
				l7.8,10.1l-10.7-8.2c0.8,2,2.4,3.8,3.2,5.9c0.4,1.2,0.5,2.5,0.5,3.9c-0.1,2.8-0.5,6.2,2.1,7.6c-3.3-1.2-3.6-4.3-4.3-6.6
				c-0.4-1.2-1-2.8-1.9-3.8c-0.8-0.8-2.8-1.8-3.7-4.9l-2.1,21.4l-2.1-21.4c-0.9,3.1-2.9,4.1-3.7,4.9c-0.9,1-1.5,2.6-1.9,3.8
				c-0.8,2.3-1.1,5.4-4.3,6.6c2.6-1.4,2.2-4.9,2.1-7.6c0-1.4,0.1-2.7,0.5-3.9c0.7-2,2.3-3.9,3.2-5.9l-10.7,8.2l8.2-10.6
				C240.2,582.6,238,582,236.8,582z M237.3,613.7c0-1.3,0.2-2.5,0.5-3.7c1.6,6.2,7.2,10.7,13.9,10.7c6.7,0,12.3-4.5,13.9-10.7
				c0.3,1.2,0.5,2.4,0.5,3.7c0,7.9-6.4,14.4-14.4,14.4C243.7,628.1,237.3,621.6,237.3,613.7z"/>
			<path d="M287.2,229.5c-0.6,0-1,0.5-1,1l0,0.3c0,0.6,0.5,1,1,1c0,0,0,0,0,0c0.6,0,1-0.5,1-1l0-0.3
				C288.3,229.9,287.8,229.5,287.2,229.5z"/>
			<path d="M268.9,319.8c-0.6,0-1,0.5-1,1.1c0,0.5,0.5,1,1,1c0,0,0,0,0,0c0.2,0,0.4,0,0.6,0c0.6,0,1-0.5,0.9-1.1
				c0-0.6-0.5-1-1.1-0.9C269.2,319.7,269.1,319.7,268.9,319.8z"/>
			<path d="M281,309.9c-0.1,0.2-0.1,0.3-0.2,0.5c-0.2,0.5,0,1.1,0.5,1.3c0.1,0.1,0.3,0.1,0.4,0.1c0.4,0,0.8-0.2,0.9-0.6
				c0.1-0.2,0.1-0.3,0.2-0.5c0.2-0.5,0-1.1-0.5-1.3C281.8,309.1,281.2,309.4,281,309.9z"/>
			<path d="M274.4,318.2c-0.1,0.1-0.3,0.2-0.4,0.2c-0.5,0.3-0.7,0.9-0.4,1.4c0.2,0.4,0.5,0.6,0.9,0.6c0.2,0,0.3,0,0.5-0.1
				c0.2-0.1,0.3-0.2,0.5-0.3c0.5-0.3,0.7-0.9,0.4-1.4C275.5,318.1,274.9,317.9,274.4,318.2z"/>
			<path d="M278.3,314.7c-0.1,0.1-0.2,0.3-0.3,0.4c-0.4,0.4-0.3,1.1,0.2,1.4c0.2,0.1,0.4,0.2,0.6,0.2c0.3,0,0.6-0.1,0.8-0.4
				c0.1-0.1,0.2-0.3,0.3-0.4c0.3-0.5,0.2-1.1-0.2-1.4C279.3,314.1,278.6,314.2,278.3,314.7z"/>
			<path d="M287.4,249C287.4,249,287.4,249,287.4,249c0.6,0,1-0.5,1-1l0-0.5c0-0.6-0.5-1-1-1c0,0,0,0,0,0c-0.6,0-1,0.5-1,1l0,0.5
				C286.3,248.6,286.8,249,287.4,249z"/>
			<path d="M287.4,235.1C287.4,235.1,287.4,235.1,287.4,235.1c-0.6,0-1,0.5-1,1l0,0.5c0,0.6,0.5,1,1,1c0,0,0,0,0,0c0.6,0,1-0.5,1-1
				l0-0.5C288.4,235.5,287.9,235.1,287.4,235.1z"/>
			<path d="M288.4,241.7c0-0.6-0.5-1-1-1c0,0,0,0,0,0c-0.6,0-1,0.5-1,1l0,0.5c0,0.6,0.5,1,1,1c0,0,0,0,0,0c0.6,0,1-0.5,1-1
				L288.4,241.7z"/>
			<path d="M287.4,252.2C287.4,252.2,287.4,252.2,287.4,252.2c-0.6,0-1,0.5-1,1v0.5c0,0.6,0.5,1,1,1h0c0.6,0,1-0.5,1-1v-0.5
				C288.4,252.7,287.9,252.2,287.4,252.2z"/>
			<path d="M288.3,264.8c0-0.6-0.4-1-1-1c-0.6,0-1,0.4-1,1l0,0.5c0,0.6,0.4,1,1,1c0,0,0,0,0,0c0.6,0,1-0.4,1-1L288.3,264.8z"/>
			<path d="M286.2,271c0,0.6,0.4,1,1,1c0,0,0,0,0,0c0.6,0,1-0.4,1-1l0-0.5c0-0.6-0.4-1-1-1c-0.6,0-1,0.4-1,1L286.2,271z"/>
			<path d="M287.4,258C287.4,258,287.4,258,287.4,258c-0.6,0-1,0.5-1,1l0,0.5c0,0.6,0.5,1,1,1c0,0,0,0,0,0c0.6,0,1-0.5,1-1l0-0.5
				C288.4,258.5,287.9,258,287.4,258z"/>
			<path d="M286,276.8c0,0.6,0.4,1,1,1.1c0,0,0,0,0,0c0.5,0,1-0.4,1-1l0-0.5c0-0.6-0.4-1-1-1.1c-0.6,0-1,0.4-1.1,1L286,276.8z"/>
			<path d="M285.4,287.7l0,0.5c0,0.6,0.4,1.1,0.9,1.1c0,0,0.1,0,0.1,0c0.5,0,1-0.4,1-0.9l0-0.5c0-0.6-0.4-1.1-0.9-1.1
				C285.9,286.7,285.4,287.1,285.4,287.7z"/>
			<path d="M284.8,293.4l-0.1,0.5c-0.1,0.6,0.3,1.1,0.9,1.1c0,0,0.1,0,0.1,0c0.5,0,0.9-0.4,1-0.9l0.1-0.5c0.1-0.6-0.3-1.1-0.9-1.1
				C285.4,292.4,284.8,292.8,284.8,293.4z"/>
			<path d="M283.9,299l-0.1,0.5c-0.1,0.6,0.3,1.1,0.8,1.2c0.1,0,0.1,0,0.2,0c0.5,0,0.9-0.3,1-0.8l0.1-0.5c0.1-0.6-0.3-1.1-0.8-1.2
				C284.6,298.1,284,298.5,283.9,299z"/>
			<path d="M285.7,282.5c0,0.6,0.4,1,1,1.1c0,0,0,0,0.1,0c0.5,0,1-0.4,1-1l0-0.5c0-0.6-0.4-1-1-1.1c-0.6,0-1,0.4-1.1,1L285.7,282.5z
				"/>
			<path d="M282.7,304.6l-0.1,0.5c-0.2,0.5,0.2,1.1,0.7,1.3c0.1,0,0.2,0,0.3,0c0.4,0,0.9-0.3,1-0.8c0-0.2,0.1-0.3,0.1-0.5
				c0.1-0.5-0.2-1.1-0.7-1.2C283.4,303.7,282.9,304,282.7,304.6z"/>
			<path d="M263.9,319.3l-0.2-0.1c-0.6-0.1-1.1,0.2-1.2,0.8c-0.1,0.6,0.2,1.1,0.8,1.2l0.3,0.1c0.1,0,0.1,0,0.2,0
				c0.5,0,0.9-0.3,1-0.8C264.8,319.9,264.4,319.4,263.9,319.3z"/>
			<path d="M216.8,231.8C216.8,231.8,216.8,231.8,216.8,231.8c0.6,0,1-0.5,1-1l0-0.3c0-0.6-0.5-1-1-1c-0.6,0-1,0.5-1,1l0,0.3
				C215.8,231.3,216.2,231.8,216.8,231.8z"/>
			<path d="M216.1,254.5C216.1,254.5,216.1,254.5,216.1,254.5c0.6,0,1-0.4,1.1-1l0-0.5c0-0.6-0.4-1-1-1c-0.6,0-1,0.4-1.1,1l0,0.5
				C215.1,254,215.6,254.5,216.1,254.5z"/>
			<path d="M216,260.1C216,260.1,216,260.1,216,260.1c0.6,0,1-0.4,1-1l0-0.5c0-0.6-0.4-1-1-1c-0.6,0-1,0.4-1,1l0,0.5
				C215,259.7,215.4,260.1,216,260.1z"/>
			<path d="M215.9,265.8C215.9,265.8,215.9,265.8,215.9,265.8c0.6,0,1-0.5,1-1l0-0.5c0-0.6-0.5-1-1-1c0,0,0,0,0,0c-0.6,0-1,0.5-1,1
				l0,0.5C214.9,265.4,215.4,265.8,215.9,265.8z"/>
			<path d="M216.3,248.8C216.3,248.8,216.4,248.8,216.3,248.8c0.6,0,1-0.4,1.1-1l0-0.5l0,0c0-0.6-0.4-1-1-1c-0.6,0-1,0.4-1.1,1
				l0,0.5C215.3,248.3,215.8,248.8,216.3,248.8z"/>
			<path d="M215.6,242c0,0.6,0.4,1,1,1.1c0,0,0,0,0,0c0.5,0,1-0.4,1-1l0-0.5l0,0c0-0.6-0.4-1-1-1c-0.6,0-1,0.4-1.1,1L215.6,242z"/>
			<path d="M215.7,236.4c0,0.6,0.4,1,1,1c0,0,0,0,0,0c0.6,0,1-0.4,1-1l0-0.5c0-0.6-0.4-1-1-1c-0.6,0-1,0.4-1,1L215.7,236.4z"/>
			<path d="M223.7,292.1c0.3,0,0.6-0.2,0.8-0.4c0.3-0.5,0.2-1.1-0.2-1.4c-0.1-0.1-0.3-0.2-0.4-0.3c-0.4-0.3-1.1-0.3-1.4,0.2
				c-0.3,0.4-0.3,1.1,0.2,1.4c0.1,0.1,0.3,0.2,0.4,0.3C223.3,292.1,223.5,292.1,223.7,292.1z"/>
			<path d="M228.2,294.1c0.2,0,0.4,0.1,0.5,0.1c0.1,0,0.1,0,0.2,0c0.5,0,0.9-0.4,1-0.8c0.1-0.6-0.3-1.1-0.8-1.2
				c-0.2,0-0.3-0.1-0.5-0.1c-0.6-0.1-1.1,0.2-1.2,0.8C227.3,293.5,227.7,294,228.2,294.1z"/>
			<path d="M234.2,294.4c0.2,0,0.4,0,0.5-0.1c0.6-0.1,1-0.6,0.9-1.1c-0.1-0.6-0.6-1-1.1-0.9c-0.2,0-0.3,0-0.5,0.1
				c-0.6,0.1-1,0.6-0.9,1.1C233.1,294,233.5,294.4,234.2,294.4C234.1,294.4,234.1,294.4,234.2,294.4z"/>
			<path d="M219.1,287.4c0.2,0.3,0.5,0.5,0.9,0.5c0.2,0,0.4,0,0.5-0.1c0.5-0.3,0.6-0.9,0.4-1.4c-0.1-0.1-0.2-0.3-0.2-0.4
				c-0.3-0.5-0.9-0.7-1.4-0.4c-0.5,0.3-0.7,0.9-0.4,1.4C218.9,287.1,219,287.3,219.1,287.4z"/>
			<path d="M216.5,274.6c-0.6,0.1-1,0.6-0.9,1.1l0.1,0.5c0.1,0.5,0.5,0.9,1,0.9c0,0,0.1,0,0.1,0c0.6-0.1,0.9-0.6,0.9-1.2l-0.1-0.5
				C217.5,274.9,217,274.5,216.5,274.6z"/>
			<path d="M216,268.9c-0.6,0-1,0.5-1,1.1l0,0.5c0,0.5,0.5,1,1,1c0,0,0,0,0.1,0c0.6,0,1-0.5,1-1.1l0-0.5
				C217.1,269.4,216.6,268.9,216,268.9z"/>
			<path d="M218.6,280.9c-0.1-0.5-0.7-0.9-1.3-0.7c-0.5,0.1-0.9,0.7-0.7,1.3c0,0.2,0.1,0.3,0.1,0.5c0.1,0.4,0.5,0.7,1,0.7
				c0.1,0,0.2,0,0.3,0c0.5-0.2,0.9-0.7,0.7-1.3C218.7,281.3,218.7,281.1,218.6,280.9z"/>
			<path d="M239.7,293.3c0.1,0,0.2,0,0.3,0l0.3-0.1c0.5-0.2,0.9-0.7,0.7-1.3c-0.2-0.5-0.7-0.9-1.3-0.7l-0.2,0.1
				c-0.5,0.1-0.9,0.7-0.7,1.3C238.8,293,239.2,293.3,239.7,293.3z"/>
			<path d="M217.2,228.6c0,0,2.4,0,4.3,0s0,29.6,0,29.6c0,12.1,7.1,22.6,17.4,27.5c-0.1,0.3-0.1,0.6-0.1,0.9v0.3c0,2,1.5,3.7,3.4,4
				v10.2h-0.3c-1.4,0-2.5,1.3-2.5,3v1c0,1,0.4,1.9,1.1,2.5c-0.7,0.5-1.1,1.4-1.1,2.5v1c0,1.6,1.1,3,2.5,3h0.3v0.8
				c-0.6,0.3-0.9,0.8-0.9,1.5v1.2c0,0.7,0.4,1.2,0.9,1.5v25.8c-7,2.4-11.6,6.7-14.7,6.7c-4.4,0-4.5,0-4.5,0c-0.1,0-0.2,0.1-0.2,0.2
				v4.1c0,0.1,0.1,0.2,0.2,0.2h57.8c0.1,0,0.2-0.1,0.2-0.2v-4.1c0-0.1-0.1-0.2-0.2-0.2c0,0-0.4,0-4.5,0c-3,0-7.6-4.3-14.7-6.7V319
				c0.6-0.3,0.9-0.8,0.9-1.5v-1.2c0-0.7-0.4-1.2-0.9-1.5V314h0.3c1.4,0,2.5-1.3,2.5-3v-1c0-1-0.4-1.9-1.1-2.5
				c0.7-0.5,1.1-1.4,1.1-2.5v-1c0-1.6-1.1-3-2.5-3h-0.3v-10.2c1.9-0.3,3.4-2,3.4-4v-0.3c0-0.3,0-0.6-0.1-0.9
				c10.3-4.9,17.4-15.4,17.4-27.5c0,0-2-29.6,0-29.6c2,0,4.3,0,4.3,0c0.9,0,1.7-0.8,1.7-1.7v-1.9c0-0.9-0.8-1.7-1.7-1.7h-69.3
				c-0.9,0-1.7,0.8-1.7,1.7v1.9C215.5,227.8,216.3,228.6,217.2,228.6z M251.7,279.7c-7.9,0-14.4-6.4-14.4-14.4
				c0-1.3,0.2-2.5,0.5-3.7c1.6,6.2,7.2,10.7,13.9,10.7c6.7,0,12.3-4.5,13.9-10.7c0.3,1.2,0.5,2.4,0.5,3.7
				C266,273.3,259.6,279.7,251.7,279.7z M231.9,233c0.9-1.1,1.9-1.9,3-2.5c1.8-1,4.1-1.3,6-2.1h21.5c0,0,0,0,0,0.1
				c3.4,0.9,4.4,3,5.3,3.8c1,0.9,2.6,1.5,3.8,1.9c2.3,0.8,5.4,1.1,6.6,4.3c-1.4-2.6-4.9-2.2-7.6-2.1c-1.4,0-2.7-0.1-3.9-0.5
				c-1.9-0.7-3.6-2.1-5.4-3l7.8,10.1l-10.7-8.2c0.8,2,2.4,3.8,3.2,5.9c0.4,1.2,0.5,2.5,0.5,3.9c-0.1,2.8-0.5,6.2,2.1,7.6
				c-3.3-1.2-3.6-4.3-4.3-6.6c-0.4-1.2-1-2.8-1.9-3.8c-0.8-0.8-2.8-1.8-3.7-4.9l-2.1,21.4l-2.1-21.4c-0.9,3.1-2.9,4.1-3.7,4.9
				c-0.9,1-1.5,2.6-1.9,3.8c-0.8,2.3-1.1,5.4-4.3,6.6c2.6-1.4,2.2-4.9,2.1-7.6c0-1.4,0.1-2.7,0.5-3.9c0.7-2,2.3-3.9,3.2-5.9L235,243
				l8.2-10.6c-3,1.9-5.2,1.3-6.4,1.4c-1.3,0.1-2.9,0.9-4,1.5c-2.1,1.2-4.4,3.3-7.6,1.9C228.1,237.9,230.1,235.1,231.9,233z"/>
			<path d="M408,298c-0.6,0-1,0.5-1,1l0,0.3c0,0.6,0.5,1,1,1c0,0,0,0,0,0c0.6,0,1-0.5,1-1l0-0.3C409,298.5,408.5,298,408,298z"/>
			<path d="M389.6,388.3c-0.6,0-1,0.5-1,1.1c0,0.5,0.5,1,1,1c0,0,0,0,0,0c0.2,0,0.4,0,0.6,0c0.6,0,1-0.5,0.9-1.1
				c0-0.6-0.5-1-1.1-0.9C390,388.3,389.8,388.3,389.6,388.3z"/>
			<path d="M401.7,378.4c-0.1,0.2-0.1,0.3-0.2,0.5c-0.2,0.5,0,1.1,0.5,1.3c0.1,0.1,0.3,0.1,0.4,0.1c0.4,0,0.8-0.2,0.9-0.6
				c0.1-0.2,0.1-0.3,0.2-0.5c0.2-0.5,0-1.1-0.5-1.3C402.5,377.6,401.9,377.9,401.7,378.4z"/>
			<path d="M395.2,386.8c-0.1,0.1-0.3,0.2-0.4,0.2c-0.5,0.3-0.7,0.9-0.4,1.4c0.2,0.4,0.5,0.6,0.9,0.6c0.2,0,0.3,0,0.5-0.1
				c0.2-0.1,0.3-0.2,0.5-0.3c0.5-0.3,0.7-0.9,0.4-1.4C396.3,386.7,395.6,386.5,395.2,386.8z"/>
			<path d="M399.1,383.2c-0.1,0.1-0.2,0.3-0.3,0.4c-0.4,0.4-0.3,1.1,0.2,1.4c0.2,0.1,0.4,0.2,0.6,0.2c0.3,0,0.6-0.1,0.8-0.4
				c0.1-0.1,0.2-0.3,0.3-0.4c0.3-0.5,0.2-1.1-0.2-1.4C400,382.7,399.4,382.8,399.1,383.2z"/>
			<path d="M408.1,317.6C408.1,317.6,408.1,317.6,408.1,317.6c0.6,0,1-0.5,1-1l0-0.5c0-0.6-0.5-1-1-1c0,0,0,0,0,0c-0.6,0-1,0.5-1,1
				l0,0.5C407.1,317.1,407.6,317.6,408.1,317.6z"/>
			<path d="M408.1,303.6C408.1,303.6,408.1,303.6,408.1,303.6c-0.6,0-1,0.5-1,1l0,0.5c0,0.6,0.5,1,1,1c0,0,0,0,0,0c0.6,0,1-0.5,1-1
				l0-0.5C409.1,304.1,408.7,303.6,408.1,303.6z"/>
			<path d="M409.1,310.3c0-0.6-0.5-1-1-1c0,0,0,0,0,0c-0.6,0-1,0.5-1,1l0,0.5c0,0.6,0.5,1,1,1c0,0,0,0,0,0c0.6,0,1-0.5,1-1
				L409.1,310.3z"/>
			<path d="M408.1,320.8L408.1,320.8c-0.6,0-1,0.5-1,1v0.5c0,0.6,0.5,1,1,1h0c0.6,0,1-0.5,1-1v-0.5
				C409.2,321.2,408.7,320.8,408.1,320.8z"/>
			<path d="M408.1,334.9C408.1,334.9,408.1,334.9,408.1,334.9c0.6,0,1-0.4,1-1l0-0.5c0-0.6-0.4-1-1-1c-0.6,0-1,0.4-1,1l0,0.5
				C407,334.4,407.5,334.8,408.1,334.9z"/>
			<path d="M409,339.1c0-0.6-0.4-1-1-1c-0.6,0-1,0.4-1,1l0,0.5c0,0.6,0.4,1,1,1c0,0,0,0,0,0c0.6,0,1-0.4,1-1L409,339.1z"/>
			<path d="M408.1,326.5C408.1,326.5,408.1,326.5,408.1,326.5c-0.6,0-1,0.5-1,1l0,0.5c0,0.6,0.5,1,1,1c0,0,0,0,0,0c0.6,0,1-0.5,1-1
				l0-0.5C409.1,327,408.7,326.5,408.1,326.5z"/>
			<path d="M408.8,344.9c0-0.6-0.4-1-1-1.1c-0.6,0-1,0.4-1.1,1l0,0.5c0,0.6,0.4,1,1,1.1c0,0,0,0,0,0c0.5,0,1-0.4,1-1L408.8,344.9z"
				/>
			<path d="M408.1,356.9l0-0.5c0-0.6-0.4-1.1-0.9-1.1c-0.6,0-1.1,0.4-1.1,0.9l0,0.5c0,0.6,0.4,1.1,0.9,1.1c0,0,0.1,0,0.1,0
				C407.6,357.9,408.1,357.5,408.1,356.9z"/>
			<path d="M407.5,362.7l0.1-0.5c0.1-0.6-0.3-1.1-0.9-1.1c-0.6-0.1-1.1,0.3-1.1,0.9l-0.1,0.5c-0.1,0.6,0.3,1.1,0.9,1.1
				c0,0,0.1,0,0.1,0C407,363.6,407.4,363.2,407.5,362.7z"/>
			<path d="M406.6,368.4l0.1-0.5c0.1-0.6-0.3-1.1-0.8-1.2c-0.6-0.1-1.1,0.3-1.2,0.8l-0.1,0.5c-0.1,0.6,0.3,1.1,0.8,1.2
				c0.1,0,0.1,0,0.2,0C406.1,369.3,406.5,368.9,406.6,368.4z"/>
			<path d="M408.5,351.2l0-0.5c0-0.6-0.4-1-1-1.1c-0.6,0-1,0.4-1.1,1l0,0.5c0,0.6,0.4,1,1,1.1c0,0,0,0,0.1,0
				C408,352.1,408.5,351.7,408.5,351.2z"/>
			<path d="M404.1,374.8c0.1,0,0.2,0,0.3,0c0.4,0,0.9-0.3,1-0.8c0-0.2,0.1-0.3,0.1-0.5c0.1-0.5-0.2-1.1-0.7-1.2
				c-0.5-0.1-1.1,0.2-1.2,0.7l-0.1,0.5C403.2,374.1,403.5,374.7,404.1,374.8z"/>
			<path d="M384.6,387.8l-0.2-0.1c-0.6-0.1-1.1,0.2-1.2,0.8c-0.1,0.6,0.2,1.1,0.8,1.2l0.3,0.1c0.1,0,0.1,0,0.2,0
				c0.5,0,0.9-0.3,1-0.8C385.5,388.5,385.2,387.9,384.6,387.8z"/>
			<path d="M337.5,300.3C337.5,300.3,337.5,300.3,337.5,300.3c0.6,0,1-0.5,1-1l0-0.3c0-0.6-0.5-1-1-1c-0.6,0-1,0.5-1,1l0,0.3
				C336.5,299.9,337,300.3,337.5,300.3z"/>
			<path d="M336.9,323C336.9,323,336.9,323,336.9,323c0.6,0,1-0.4,1.1-1l0-0.5c0-0.6-0.4-1-1-1c-0.6,0-1,0.4-1.1,1l0,0.5
				C335.9,322.5,336.3,323,336.9,323z"/>
			<path d="M336.7,328.7C336.7,328.7,336.7,328.7,336.7,328.7c0.6,0,1-0.4,1-1l0-0.5c0-0.6-0.4-1-1-1c-0.6,0-1,0.4-1,1l0,0.5
				C335.7,328.2,336.2,328.7,336.7,328.7z"/>
			<path d="M336.7,334.4C336.7,334.4,336.7,334.4,336.7,334.4c0.6,0,1-0.5,1-1l0-0.5c0-0.6-0.5-1-1-1c0,0,0,0,0,0c-0.6,0-1,0.5-1,1
				l0,0.5C335.7,333.9,336.1,334.4,336.7,334.4z"/>
			<path d="M337.1,317.3C337.1,317.3,337.1,317.3,337.1,317.3c0.6,0,1-0.4,1.1-1l0-0.5l0,0c0-0.6-0.4-1-1-1c-0.6,0-1,0.4-1.1,1
				l0,0.5C336.1,316.8,336.5,317.3,337.1,317.3z"/>
			<path d="M336.3,310.6c0,0.6,0.4,1,1,1.1c0,0,0,0,0,0c0.5,0,1-0.4,1-1l0-0.5l0,0c0-0.6-0.4-1-1-1c-0.6,0-1,0.4-1.1,1L336.3,310.6z
				"/>
			<path d="M336.5,304.9c0,0.6,0.4,1,1,1c0,0,0,0,0,0c0.6,0,1-0.4,1-1l0-0.5c0-0.6-0.4-1-1-1c-0.6,0-1,0.4-1,1L336.5,304.9z"/>
			<path d="M344.5,360.7c0.3,0,0.6-0.2,0.8-0.4c0.3-0.5,0.2-1.1-0.2-1.4c-0.1-0.1-0.3-0.2-0.4-0.3c-0.4-0.3-1.1-0.3-1.4,0.2
				c-0.3,0.4-0.3,1.1,0.2,1.4c0.1,0.1,0.3,0.2,0.4,0.3C344.1,360.6,344.3,360.7,344.5,360.7z"/>
			<path d="M349,362.7c0.2,0,0.4,0.1,0.5,0.1c0.1,0,0.1,0,0.2,0c0.5,0,0.9-0.4,1-0.8c0.1-0.6-0.3-1.1-0.8-1.2
				c-0.2,0-0.3-0.1-0.5-0.1c-0.6-0.1-1.1,0.2-1.2,0.8C348.1,362,348.4,362.5,349,362.7z"/>
			<path d="M354.9,362.9c0.2,0,0.4,0,0.5-0.1c0.6-0.1,1-0.6,0.9-1.1c-0.1-0.6-0.6-1-1.1-0.9c-0.2,0-0.3,0-0.5,0.1
				c-0.6,0.1-1,0.6-0.9,1.1C353.9,362.5,354.3,362.9,354.9,362.9C354.9,362.9,354.9,362.9,354.9,362.9z"/>
			<path d="M339.8,356c0.2,0.3,0.5,0.5,0.9,0.5c0.2,0,0.4,0,0.5-0.1c0.5-0.3,0.6-0.9,0.4-1.4c-0.1-0.1-0.2-0.3-0.2-0.4
				c-0.3-0.5-0.9-0.7-1.4-0.4c-0.5,0.3-0.7,0.9-0.4,1.4C339.7,355.7,339.7,355.8,339.8,356z"/>
			<path d="M337.4,345.7c0,0,0.1,0,0.1,0c0.6-0.1,0.9-0.6,0.9-1.2l-0.1-0.5c-0.1-0.6-0.6-1-1.1-0.9c-0.6,0.1-1,0.6-0.9,1.1l0.1,0.5
				C336.5,345.3,336.9,345.7,337.4,345.7z"/>
			<path d="M336.9,340c0.6,0,1-0.5,1-1.1l0-0.5c0-0.6-0.5-1-1.1-1c-0.6,0-1,0.5-1,1.1l0,0.5C335.9,339.6,336.3,340,336.9,340
				C336.9,340,336.9,340,336.9,340z"/>
			<path d="M337.6,350.5c0.1,0.4,0.5,0.7,1,0.7c0.1,0,0.2,0,0.3,0c0.5-0.2,0.9-0.7,0.7-1.3c0-0.2-0.1-0.3-0.1-0.5
				c-0.1-0.5-0.7-0.9-1.3-0.7c-0.5,0.1-0.9,0.7-0.7,1.3C337.5,350.2,337.5,350.3,337.6,350.5z"/>
			<path d="M360.4,361.8c0.1,0,0.2,0,0.3,0l0.3-0.1c0.5-0.2,0.9-0.7,0.7-1.3c-0.2-0.5-0.7-0.9-1.3-0.7l-0.2,0.1
				c-0.5,0.1-0.9,0.7-0.7,1.3C359.6,361.5,360,361.8,360.4,361.8z"/>
			<path d="M338,297.1c0,0,2.4,0,4.3,0c1.8,0,0,29.6,0,29.6c0,12.1,7.1,22.6,17.4,27.5c-0.1,0.3-0.1,0.6-0.1,0.9v0.3
				c0,2,1.5,3.7,3.4,4v10.2h-0.3c-1.4,0-2.5,1.3-2.5,3v1c0,1,0.4,1.9,1.1,2.5c-0.7,0.5-1.1,1.4-1.1,2.5v1c0,1.6,1.1,3,2.5,3h0.3v0.8
				c-0.6,0.3-0.9,0.8-0.9,1.5v1.2c0,0.7,0.4,1.2,0.9,1.5v25.8c-7,2.4-11.6,6.7-14.7,6.7c-4.4,0-4.5,0-4.5,0c-0.1,0-0.2,0.1-0.2,0.2
				v4.1c0,0.1,0.1,0.2,0.2,0.2h57.8c0.1,0,0.2-0.1,0.2-0.2v-4.1c0-0.1-0.1-0.2-0.2-0.2c0,0-0.4,0-4.5,0c-3,0-7.6-4.3-14.7-6.7v-25.7
				c0.6-0.3,0.9-0.8,0.9-1.5v-1.2c0-0.7-0.4-1.2-0.9-1.5v-0.8h0.3c1.4,0,2.5-1.3,2.5-3v-1c0-1-0.4-1.9-1.1-2.5
				c0.7-0.5,1.1-1.4,1.1-2.5v-1c0-1.6-1.1-3-2.5-3h-0.3v-10.2c1.9-0.3,3.4-2,3.4-4v-0.3c0-0.3,0-0.6-0.1-0.9
				c10.3-4.9,17.4-15.4,17.4-27.5c0,0-2-29.6,0-29.6c2,0,4.3,0,4.3,0c0.9,0,1.7-0.8,1.7-1.7v-1.9c0-0.9-0.8-1.7-1.7-1.7H338
				c-0.9,0-1.7,0.8-1.7,1.7v1.9C336.3,296.4,337.1,297.1,338,297.1z M372.4,348.3c-7.9,0-14.4-6.4-14.4-14.4c0-1.3,0.2-2.5,0.5-3.7
				c1.6,6.2,7.2,10.7,13.9,10.7c6.7,0,12.3-4.5,13.9-10.7c0.3,1.2,0.5,2.4,0.5,3.7C386.8,341.8,380.4,348.3,372.4,348.3z
				 M352.7,301.5c0.9-1.1,1.9-1.9,3-2.5c1.8-1,4.1-1.3,6-2.1h21.5c0,0,0,0,0,0.1c3.4,0.9,4.4,3,5.3,3.8c1,0.9,2.6,1.5,3.8,1.9
				c2.3,0.8,5.4,1.1,6.6,4.3c-1.4-2.6-4.9-2.2-7.6-2.1c-1.4,0-2.7-0.1-3.9-0.5c-1.9-0.7-3.6-2.1-5.4-3l7.8,10.1l-10.7-8.2
				c0.8,2,2.4,3.8,3.2,5.9c0.4,1.2,0.5,2.5,0.5,3.9c-0.1,2.8-0.5,6.2,2.1,7.6c-3.3-1.2-3.6-4.3-4.3-6.6c-0.4-1.2-1-2.8-1.9-3.8
				c-0.8-0.8-2.8-1.8-3.7-4.9l-2.1,21.4l-2.1-21.4c-0.9,3.1-2.9,4.1-3.7,4.9c-0.9,1-1.5,2.6-1.9,3.8c-0.8,2.3-1.1,5.4-4.3,6.6
				c2.6-1.4,2.2-4.9,2.1-7.6c0-1.4,0.1-2.7,0.5-3.9c0.7-2,2.3-3.9,3.2-5.9l-10.7,8.2l8.2-10.6c-3,1.9-5.2,1.3-6.4,1.4
				c-1.3,0.1-2.9,0.9-4,1.5c-2.1,1.2-4.4,3.3-7.6,1.9C348.9,306.4,350.9,303.6,352.7,301.5z"/>
			<path d="M408,471.8c-0.6,0-1,0.5-1,1l0,0.3c0,0.6,0.5,1,1,1c0,0,0,0,0,0c0.6,0,1-0.5,1-1l0-0.3C409,472.3,408.5,471.8,408,471.8z
				"/>
			<path d="M389.6,562.1c-0.6,0-1,0.5-1,1.1c0,0.5,0.5,1,1,1c0,0,0,0,0,0c0.2,0,0.4,0,0.6,0c0.6,0,1-0.5,0.9-1.1
				c0-0.6-0.5-1-1.1-0.9C390,562.1,389.8,562.1,389.6,562.1z"/>
			<path d="M403.1,551.7c-0.5-0.2-1.1,0-1.3,0.5c-0.1,0.2-0.1,0.3-0.2,0.5c-0.2,0.5,0,1.1,0.5,1.3c0.1,0.1,0.3,0.1,0.4,0.1
				c0.4,0,0.8-0.2,0.9-0.6c0.1-0.2,0.1-0.3,0.2-0.5C403.8,552.5,403.6,551.9,403.1,551.7z"/>
			<path d="M395.2,560.6c-0.1,0.1-0.3,0.2-0.4,0.2c-0.5,0.3-0.7,0.9-0.4,1.4c0.2,0.4,0.5,0.6,0.9,0.6c0.2,0,0.3,0,0.5-0.1
				c0.2-0.1,0.3-0.2,0.5-0.3c0.5-0.3,0.7-0.9,0.4-1.4C396.3,560.4,395.6,560.3,395.2,560.6z"/>
			<path d="M399.1,557c-0.1,0.1-0.2,0.3-0.3,0.4c-0.4,0.4-0.3,1.1,0.2,1.4c0.2,0.1,0.4,0.2,0.6,0.2c0.3,0,0.6-0.1,0.8-0.4
				c0.1-0.1,0.2-0.3,0.3-0.4c0.3-0.5,0.2-1.1-0.2-1.4C400,556.5,399.4,556.6,399.1,557z"/>
			<path d="M408.1,488.8C408.1,488.8,408.1,488.8,408.1,488.8c-0.6,0-1,0.5-1,1l0,0.5c0,0.6,0.5,1,1,1c0,0,0,0,0,0c0.6,0,1-0.5,1-1
				l0-0.5C409.1,489.3,408.7,488.8,408.1,488.8z"/>
			<path d="M409.1,478.4c0-0.6-0.5-1-1-1c0,0,0,0,0,0c-0.6,0-1,0.5-1,1l0,0.5c0,0.6,0.5,1,1,1c0,0,0,0,0,0c0.6,0,1-0.5,1-1
				L409.1,478.4z"/>
			<path d="M409.1,484.1c0-0.6-0.5-1-1-1c0,0,0,0,0,0c-0.6,0-1,0.5-1,1l0,0.5c0,0.6,0.5,1,1,1c0,0,0,0,0,0c0.6,0,1-0.5,1-1
				L409.1,484.1z"/>
			<path d="M408.1,494.6L408.1,494.6c-0.6,0-1,0.5-1,1v0.5c0,0.6,0.5,1,1,1h0c0.6,0,1-0.5,1-1v-0.5
				C409.2,495,408.7,494.6,408.1,494.6z"/>
			<path d="M408.1,506.1c-0.6,0-1,0.4-1,1l0,0.5c0,0.6,0.4,1,1,1c0,0,0,0,0,0c0.6,0,1-0.4,1-1l0-0.5
				C409.1,506.6,408.6,506.1,408.1,506.1z"/>
			<path d="M408,511.8c-0.6,0-1,0.4-1,1l0,0.5c0,0.6,0.4,1,1,1c0,0,0,0,0,0c0.6,0,1-0.4,1-1l0-0.5C409,512.3,408.6,511.9,408,511.8z
				"/>
			<path d="M408.1,500.3C408.1,500.3,408.1,500.3,408.1,500.3c-0.6,0-1,0.5-1,1l0,0.5c0,0.6,0.5,1,1,1c0,0,0,0,0,0c0.6,0,1-0.5,1-1
				l0-0.5C409.1,500.8,408.7,500.3,408.1,500.3z"/>
			<path d="M407.8,517.6c-0.6,0-1,0.4-1.1,1l0,0.5c0,0.6,0.4,1,1,1.1c0,0,0,0,0,0c0.5,0,1-0.4,1-1l0-0.5
				C408.8,518.1,408.4,517.6,407.8,517.6z"/>
			<path d="M407.2,529.1c-0.6,0-1.1,0.4-1.1,0.9l0,0.5c0,0.6,0.4,1.1,0.9,1.1c0,0,0.1,0,0.1,0c0.5,0,1-0.4,1-0.9l0-0.5
				C408.2,529.6,407.8,529.1,407.2,529.1z"/>
			<path d="M406.7,534.8c-0.6-0.1-1.1,0.3-1.1,0.9l-0.1,0.5c-0.1,0.6,0.3,1.1,0.9,1.1c0,0,0.1,0,0.1,0c0.5,0,0.9-0.4,1-0.9l0.1-0.5
				C407.6,535.4,407.2,534.9,406.7,534.8z"/>
			<path d="M405.9,540.5c-0.6-0.1-1.1,0.3-1.2,0.8l-0.1,0.5c-0.1,0.6,0.3,1.1,0.8,1.2c0.1,0,0.1,0,0.2,0c0.5,0,0.9-0.3,1-0.8
				l0.1-0.5C406.8,541.1,406.4,540.6,405.9,540.5z"/>
			<path d="M407.6,523.3c-0.6,0-1,0.4-1.1,1l0,0.5c0,0.6,0.4,1,1,1.1c0,0,0,0,0.1,0c0.5,0,1-0.4,1-1l0-0.5
				C408.6,523.9,408.1,523.4,407.6,523.3z"/>
			<path d="M404.7,546.2c-0.5-0.1-1.1,0.2-1.2,0.7l-0.1,0.5c-0.2,0.5,0.2,1.1,0.7,1.3c0.1,0,0.2,0,0.3,0c0.4,0,0.9-0.3,1-0.8
				c0-0.2,0.1-0.3,0.1-0.5C405.6,546.9,405.3,546.3,404.7,546.2z"/>
			<path d="M384.6,561.6l-0.2-0.1c-0.6-0.1-1.1,0.2-1.2,0.8c-0.1,0.6,0.2,1.1,0.8,1.2l0.3,0.1c0.1,0,0.1,0,0.2,0
				c0.5,0,0.9-0.3,1-0.8C385.5,562.3,385.2,561.7,384.6,561.6z"/>
			<path d="M337.5,474.1C337.5,474.1,337.5,474.1,337.5,474.1c0.6,0,1-0.5,1-1l0-0.3c0-0.6-0.5-1-1-1c-0.6,0-1,0.5-1,1l0,0.3
				C336.5,473.7,337,474.1,337.5,474.1z"/>
			<path d="M336.9,496.8C336.9,496.8,336.9,496.8,336.9,496.8c0.6,0,1-0.4,1.1-1l0-0.5c0-0.6-0.4-1-1-1c-0.6,0-1,0.4-1.1,1l0,0.5
				C335.9,496.3,336.3,496.8,336.9,496.8z"/>
			<path d="M335.7,501.4c0,0.6,0.4,1,1,1c0,0,0,0,0,0c0.6,0,1-0.4,1-1l0-0.5c0-0.6-0.4-1-1-1c-0.6,0-1,0.4-1,1L335.7,501.4z"/>
			<path d="M336.7,508.2C336.7,508.2,336.7,508.2,336.7,508.2c0.6,0,1-0.5,1-1l0-0.5c0-0.6-0.5-1-1-1c0,0,0,0,0,0c-0.6,0-1,0.5-1,1
				l0,0.5C335.7,507.7,336.1,508.2,336.7,508.2z"/>
			<path d="M336.1,490.1c0,0.6,0.4,1,1,1.1c0,0,0,0,0,0c0.5,0,1-0.4,1-1l0-0.5l0,0c0-0.6-0.4-1-1-1c-0.6,0-1,0.4-1.1,1L336.1,490.1z
				"/>
			<path d="M336.3,484.4c0,0.6,0.4,1,1,1.1c0,0,0,0,0,0c0.5,0,1-0.4,1-1l0-0.5l0,0c0-0.6-0.4-1-1-1c-0.6,0-1,0.4-1.1,1L336.3,484.4z
				"/>
			<path d="M336.5,478.7c0,0.6,0.4,1,1,1c0,0,0,0,0,0c0.6,0,1-0.4,1-1l0-0.5c0-0.6-0.4-1-1-1c-0.6,0-1,0.4-1,1L336.5,478.7z"/>
			<path d="M343.9,534.3c0.2,0.1,0.4,0.2,0.6,0.2c0.3,0,0.6-0.2,0.8-0.4c0.3-0.5,0.2-1.1-0.2-1.4c-0.1-0.1-0.3-0.2-0.4-0.3
				c-0.4-0.3-1.1-0.3-1.4,0.2c-0.3,0.4-0.3,1.1,0.2,1.4C343.6,534.1,343.7,534.2,343.9,534.3z"/>
			<path d="M349,536.4c0.2,0,0.4,0.1,0.5,0.1c0.1,0,0.1,0,0.2,0c0.5,0,0.9-0.4,1-0.8c0.1-0.6-0.3-1.1-0.8-1.2
				c-0.2,0-0.3-0.1-0.5-0.1c-0.6-0.1-1.1,0.2-1.2,0.8C348.1,535.8,348.4,536.3,349,536.4z"/>
			<path d="M354.9,536.7c0.2,0,0.4,0,0.5-0.1c0.6-0.1,1-0.6,0.9-1.1c-0.1-0.6-0.6-1-1.1-0.9c-0.2,0-0.3,0-0.5,0.1
				c-0.6,0.1-1,0.6-0.9,1.1C353.9,536.3,354.3,536.7,354.9,536.7C354.9,536.7,354.9,536.7,354.9,536.7z"/>
			<path d="M341.2,530.1c0.5-0.3,0.6-0.9,0.4-1.4c-0.1-0.1-0.2-0.3-0.2-0.4c-0.3-0.5-0.9-0.7-1.4-0.4c-0.5,0.3-0.7,0.9-0.4,1.4
				c0.1,0.2,0.2,0.3,0.3,0.5c0.2,0.3,0.5,0.5,0.9,0.5C340.9,530.3,341.1,530.2,341.2,530.1z"/>
			<path d="M337.4,519.5c0,0,0.1,0,0.1,0c0.6-0.1,0.9-0.6,0.9-1.2l-0.1-0.5c-0.1-0.6-0.6-1-1.1-0.9c-0.6,0.1-1,0.6-0.9,1.1l0.1,0.5
				C336.5,519.1,336.9,519.5,337.4,519.5z"/>
			<path d="M336.8,511.3c-0.6,0-1,0.5-1,1.1l0,0.5c0,0.5,0.5,1,1,1c0,0,0,0,0.1,0c0.6,0,1-0.5,1-1.1l0-0.5
				C337.8,511.7,337.4,511.3,336.8,511.3z"/>
			<path d="M339.4,523.3c-0.1-0.5-0.7-0.9-1.3-0.7c-0.5,0.1-0.9,0.7-0.7,1.3c0,0.2,0.1,0.3,0.1,0.5c0.1,0.4,0.5,0.7,1,0.7
				c0.1,0,0.2,0,0.3,0c0.5-0.2,0.9-0.7,0.7-1.3C339.5,523.6,339.4,523.4,339.4,523.3z"/>
			<path d="M360.4,535.6c0.1,0,0.2,0,0.3,0l0.3-0.1c0.5-0.2,0.9-0.7,0.7-1.3c-0.2-0.5-0.7-0.9-1.3-0.7l-0.2,0.1
				c-0.5,0.1-0.9,0.7-0.7,1.3C359.6,535.3,360,535.6,360.4,535.6z"/>
			<path d="M401.5,593.8c0,0-0.4,0-4.5,0c-3,0-7.6-4.3-14.7-6.7v-25.7c0.6-0.3,0.9-0.8,0.9-1.5v-1.2c0-0.7-0.4-1.2-0.9-1.5v-0.8h0.3
				c1.4,0,2.5-1.3,2.5-3v-1c0-1-0.4-1.9-1.1-2.5c0.7-0.5,1.1-1.4,1.1-2.5v-1c0-1.6-1.1-3-2.5-3h-0.3v-10.2c1.9-0.3,3.4-2,3.4-4v-0.3
				c0-0.3,0-0.6-0.1-0.9c10.3-4.9,17.4-15.4,17.4-27.5c0,0-2-29.6,0-29.6c2,0,4.3,0,4.3,0c0.9,0,1.7-0.8,1.7-1.7v-1.9
				c0-0.9-0.8-1.7-1.7-1.7H338c-0.9,0-1.7,0.8-1.7,1.7v1.9c0,0.9,0.8,1.7,1.7,1.7c0,0,2.4,0,4.3,0c1.8,0,0,29.6,0,29.6
				c0,12.1,7.1,22.6,17.4,27.5c-0.1,0.3-0.1,0.6-0.1,0.9v0.3c0,2,1.5,3.7,3.4,4v10.2h-0.3c-1.4,0-2.5,1.3-2.5,3v1
				c0,1,0.4,1.9,1.1,2.5c-0.7,0.5-1.1,1.4-1.1,2.5v1c0,1.6,1.1,3,2.5,3h0.3v0.8c-0.6,0.3-0.9,0.8-0.9,1.5v1.2c0,0.7,0.4,1.2,0.9,1.5
				v25.8c-7,2.4-11.6,6.7-14.7,6.7c-4.4,0-4.5,0-4.5,0c-0.1,0-0.2,0.1-0.2,0.2v4.1c0,0.1,0.1,0.2,0.2,0.2h57.8
				c0.1,0,0.2-0.1,0.2-0.2V594C401.8,593.9,401.7,593.8,401.5,593.8z M357.5,476c-1.3,0.1-2.9,0.9-4,1.5c-2.1,1.2-4.4,3.3-7.6,1.9
				c2.9,0.7,4.9-2.1,6.7-4.2c0.9-1.1,1.9-1.9,3-2.5c1.8-1,4.1-1.3,6-2.1h21.5c0,0,0,0,0,0.1c3.4,0.9,4.4,3,5.3,3.8
				c1,0.9,2.6,1.5,3.8,1.9c2.3,0.8,5.4,1.1,6.6,4.3c-1.4-2.6-4.9-2.2-7.6-2.1c-1.4,0-2.7-0.1-3.9-0.5c-1.9-0.7-3.6-2.1-5.4-3
				l7.8,10.1l-10.7-8.2c0.8,2,2.4,3.8,3.2,5.9c0.4,1.2,0.5,2.5,0.5,3.9c-0.1,2.8-0.5,6.2,2.1,7.6c-3.3-1.2-3.6-4.3-4.3-6.6
				c-0.4-1.2-1-2.8-1.9-3.8c-0.8-0.8-2.8-1.8-3.7-4.9l-2.1,21.4l-2.1-21.4c-0.9,3.1-2.9,4.1-3.7,4.9c-0.9,1-1.5,2.6-1.9,3.8
				c-0.8,2.3-1.1,5.4-4.3,6.6c2.6-1.4,2.2-4.9,2.1-7.6c0-1.4,0.1-2.7,0.5-3.9c0.7-2,2.3-3.9,3.2-5.9l-10.7,8.2l8.2-10.6
				C361,476.6,358.7,476,357.5,476z M358,507.7c0-1.3,0.2-2.5,0.5-3.7c1.6,6.2,7.2,10.7,13.9,10.7c6.7,0,12.3-4.5,13.9-10.7
				c0.3,1.2,0.5,2.4,0.5,3.7c0,7.9-6.4,14.4-14.4,14.4C364.5,522.1,358,515.6,358,507.7z"/>
		</g>
	</g>
</g>
</svg>
