<?xml version="1.0" encoding="utf-8"?>
<!-- Generator: Adobe Illustrator 21.1.0, SVG Export Plug-In . SVG Version: 6.00 Build 0)  -->
<svg version="1.1" xmlns="http://www.w3.org/2000/svg" xmlns:xlink="http://www.w3.org/1999/xlink" x="0px" y="0px"
	 viewBox="0 0 504 864" style="enable-background:new 0 0 504 864;" xml:space="preserve">
<g id="Слой_1">
</g>
<g id="Слой_2">
	<g>
		<path d="M503.8,18.2c-1.6-17.9-18.7-16.3-31.6-16.3c-45.9,0-91.8,0-137.6,0c-63.2,0-126.3,0-189.5,0c-40.6,0-81.2,0-121.8,0
			c-2.6,0-5.3-0.2-8,0.2c-9.5,1.2-15,9.2-15.2,18.2c-0.2,7.3,0,14.5,0,21.8c0,37.4,0,74.9,0,112.3c0,57,0,114.1,0,171.1
			c0,64.3,0,128.6,0,192.9c0,58.4,0,116.7,0,175.1c0,40.1,0,80.2,0,120.3c0,9.1,0,18.2,0,27.3c0,11.7,6.7,20.5,19.2,20.7
			c35.9,0.6,71.9,0,107.9,0c62.4,0,124.9,0,187.3,0c49.7,0,99.5,0,149.2,0c7.6,0,15.2,0,22.9,0c0.4,0,0.8-0.1,1.2-0.2
			c14.4-1.8,16.1-13.8,16.1-25.5c0-11.4,0-22.8,0-34.3c0-43.4,0-86.9,0-130.3c0-59.9,0-119.8,0-179.8c0-63.9,0-127.7,0-191.6
			c0-55.3,0-110.6,0-165.9c0-33.7,0-67.3,0-101C503.9,28.3,504.2,23.2,503.8,18.2z M486.6,852.8c-28.3,0-56.6,0-84.9,0
			c-59.9,0-119.8,0-179.7,0c-54,0-108,0-162,0c-13.1,0-26.1,0-39.2,0c-5.6,0-11-1.3-11.7-8.3c-0.2-1.5,0-3,0-4.5c0-26.5,0-53,0-79.5
			c0-50,0-100,0-149.9c0-61.8,0-123.6,0-185.4c0-61.4,0-122.7,0-184.1c0-48.9,0-97.7,0-146.6c0-24.2-0.8-48.6,0-72.7
			c0.2-5.3,1.6-10.1,8.3-10.8c2.2-0.2,4.5,0,6.7,0c14.8,0,29.6,0,44.5,0c55.6,0,111.3,0,166.9,0c58.9,0,117.8,0,176.7,0
			c18.9,0,37.9,0,56.8,0c8.1,0,24.7-3.1,25.9,8.4c0.5,5.2,0,10.8,0,16.1c0,13.5,0,27.1,0,40.6c0,45.5,0,91.1,0,136.6
			c0,60.1,0,120.2,0,180.3c0,62.6,0,125.2,0,187.7c0,52.8,0,105.6,0,158.4c0,31.4,0,62.7,0,94.1C494.8,840.3,496.9,852,486.6,852.8z
			"/>
		<g>
			<path d="M459.6,789.7c1.2,0.1,2.4-0.7,2.4-2.2c0-23.7,0-47.4,0-71.1c0-56.4,0-112.8,0-169.2c0-68.7,0-137.4,0-206
				c0-59,0-117.9,0-176.9c0-19.6,0-39.2,0-58.8c0-8.9,1.3-19,0-27.9c-0.1-0.4,0-0.8,0-1.2c0-0.8-0.3-1.3-0.8-1.7
				c0.1-1.2-0.6-2.5-2.2-2.6c-13.1-0.5-25.3-13.8-25.8-26.7c0-0.5-0.2-0.8-0.4-1.1c-0.3-0.6-1-1.1-1.9-1.1c-40.5,0-80.9,0-121.4,0
				c-64.5,0-129,0-193.6,0c-14.9,0-29.7,0-44.6,0c-0.9,0-1.6,0.5-1.9,1.1c-0.2,0.3-0.3,0.7-0.4,1.2c-0.5,12.9-12.6,26.2-25.8,26.7
				c-1.8,0.1-2.5,1.9-2,3.2c-0.1,0.3-0.2,0.6-0.2,1c0,23.7,0,47.4,0,71.1c0,56.4,0,112.8,0,169.2c0,68.7,0,137.4,0,206
				c0,59,0,117.9,0,176.9c0,19.6,0,39.2,0,58.8c0,8.9-1.3,19,0,27.9c0.1,0.4,0,0.8,0,1.2c0,0.9,0.5,1.6,1.1,1.9
				c0.3,0.2,0.7,0.3,1.2,0.4c13,0.5,25.3,13.3,25.8,26.2c0,0.5,0.2,0.8,0.4,1.1c0.3,0.6,1,1.1,1.9,1.1c40.5,0,80.9,0,121.4,0
				c64.5,0,129,0,193.6,0c14.9,0,29.7,0,44.6,0c0.9,0,1.6-0.5,1.9-1.1c0.2-0.3,0.3-0.7,0.4-1.2c0.5-12.9,12.7-25.7,25.8-26.2
				C459.3,789.8,459.5,789.8,459.6,789.7z M429,813.8c-39.8,0-79.6,0-119.3,0c-64.5,0-129,0-193.6,0c-14.2,0-28.3,0-42.5,0
				c-1.7-13.9-13.9-26.5-27.8-28.3c0-23,0-46,0-69.1c0-56.4,0-112.8,0-169.2c0-68.7,0-137.4,0-206c0-59,0-117.9,0-176.9
				c0-19.6,0-39.2,0-58.8c0-8.9,1.3-19,0-27.9c-0.1-0.4,0-0.8,0-1.2c14-1.8,26.1-14.9,27.8-28.7c39.8,0,79.6,0,119.3,0
				c64.5,0,129,0,193.6,0c14.2,0,28.3,0,42.5,0c1.7,14.1,14.3,27.4,28.5,28.8c0,23.7,0,47.3,0,71c0,56.4,0,112.8,0,169.2
				c0,68.7,0,137.4,0,206c0,59,0,117.9,0,176.9c0,19.6,0,39.2,0,58.8c0,8.6-1.2,18.4-0.1,27C443.3,786.9,430.7,799.7,429,813.8z"/>
			<path d="M229,82.6c0,0.5,0.1,1,0.3,1.6c0.2,0.6,0.4,0.9,0.5,0.9c0.1,0,0.2,0.3,0.2,0.8c0,0.6,0.2,1.1,0.5,1.4
				c0.3,0.3,0.5,0.9,0.8,1.8c0.2,0.9,0.3,1.7,0.3,2.5c0,0.9,0.1,1.4,0.4,1.4c0.1,0.1,0.2,0.3,0.2,0.7c0,0.4,0.1,0.6,0.2,0.6
				c0.2,0.1,0.3,0.6,0.3,1.6c0,0.9,0.1,1.4,0.4,1.4c0.2,0,0.4,0.3,0.6,1c0.2,0.7,0.4,1,0.5,1c0.2,0,0.3,0.3,0.4,0.8
				c0.1,0.7,0.5,1,1.3,1c0.1,0,0.4,0,0.6-0.1c0.5-0.1,0.7-0.4,0.7-1.1c0-0.6,0.1-0.9,0.3-0.9c0.2,0,0.3-0.3,0.3-0.9
				c0-0.6,0.1-0.9,0.3-0.9c0.2-0.1,0.3-0.6,0.3-1.5c0-0.9,0.2-1.6,0.6-1.9c0.5-0.5,0.8-0.7,1.1-0.8c0.3-0.1,0.4-0.5,0.4-1.3
				c0-0.8,0.1-1.2,0.4-1.4c0.2-0.1,0.4-0.6,0.6-1.5c0.2-0.9,0.3-1.4,0.4-1.5c0.3-0.2,0.4-0.5,0.4-0.9c0-0.4,0.2-0.6,0.7-0.7
				c0.4,0,0.6-0.3,0.6-0.7c0-0.2-0.1-0.6-0.1-1c0-1,0.2-1.5,0.6-1.5c0.4,0,0.5-0.3,0.5-0.8c0-0.5,0.2-0.9,0.6-1.4
				c0.4-0.4,0.9-0.7,1.6-0.8c0.8-0.2,1.2-0.6,1.2-1.4c0-0.1,0-0.4-0.1-0.7l-0.1-0.6h-3.7c-2.5,0-3.7,0.1-3.7,0.3
				c0,0.2-0.1,0.3-0.3,0.3c-0.3,0-0.6,0.2-0.9,0.6c-0.4,0.5-0.4,0.7-0.2,0.7c0.3,0,0.5,0.1,0.5,0.4c0.1,0.3,0.5,0.4,1.1,0.4
				c0.6,0,1,0.2,1.1,0.7c0.1,0.5,0.1,0.7-0.1,0.8c-0.2,0.1-0.3,0.5-0.3,1.3c0,0.7-0.1,1.2-0.4,1.3c-0.2,0.1-0.3,0.3-0.3,0.7
				c0,0.1,0.1,0.2,0.1,0.4c0,0.5-0.1,0.9-0.3,1.4c-0.2,0.5-0.4,0.8-0.7,0.8c-0.4,0.1-0.5,0.4-0.5,0.9c0,0.5-0.1,0.9-0.3,1.1
				c-0.2,0.2-0.4,0.8-0.4,1.7c-0.1,1-0.3,1.5-0.6,1.5c-0.4,0-0.5,0.2-0.4,0.5c0,0.2,0,0.4,0,0.4s-0.2,0.1-0.4,0.1
				c-0.4,0-0.7-0.1-0.9-0.2c-0.5-0.3-0.7-1.2-0.8-2.9c0-0.7-0.1-1.2-0.4-1.4c-0.2-0.2-0.3-0.7-0.3-1.6c0-1.3-0.3-2.2-0.9-2.6
				c-0.2-0.1-0.2-0.3,0.1-0.4c0.1,0,0.2-0.2,0.3-0.4c0.1-0.2,0.1-0.5,0.1-0.7c0-0.2-0.1-0.3-0.2-0.3c-0.1,0-0.3-0.3-0.4-0.8
				c-0.1-0.6-0.4-0.9-0.7-0.9c-0.3-0.1-0.4-0.2-0.4-0.3c0-0.4,0.5-0.5,1.4-0.5c1.3,0,1.9-0.2,1.9-0.7c0-0.2,0.1-0.4,0.3-0.4
				c0.2,0,0.1-0.3-0.3-0.8c-0.4-0.5-0.9-0.8-1.6-0.8c-0.7,0-1.1-0.1-1.2-0.3c-0.1-0.1-0.3-0.1-0.7,0.1c-0.4,0.2-0.6,0.2-0.7-0.1
				c-0.2-0.2-0.3-0.3-0.4-0.1c-0.1,0.2-0.5,0.3-1.1,0.3c-0.4,0-0.6,0-0.8-0.1c-0.1-0.1-0.2-0.3-0.3-0.7c-0.1-0.5-0.3-0.8-0.7-0.8
				c-0.2,0-0.5,0.2-0.8,0.5c-0.4,0.4-0.7,0.5-1.2,0.5c-0.4,0-0.6,0.1-0.6,0.4c0,0.3-0.1,0.4-0.3,0.4c-0.2,0-0.3,0.2-0.3,0.6
				c0,0.5,0.1,0.7,0.3,0.7c0.2,0,0.3,0.1,0.3,0.4c0,0.2,0.3,0.4,1,0.5c0.6,0.1,1.1,0.4,1.5,0.9S229,82,229,82.6z"/>
			<path d="M251.3,101.5c0.3,0,0.6,0.1,0.9,0.4c0.3,0.3,0.5,0.4,0.6,0.2c0.1-0.2,1.5-0.4,4-0.4c2.1,0,3.2,0.1,3.2,0.3
				c0,0.2,0.2,0.3,0.5,0.3c0.4,0,0.6-0.1,0.6-0.2s0.2-0.3,0.6-0.5c0.4-0.2,0.6-0.4,0.6-0.6c0-0.9-0.7-1.4-1.9-1.5l-1.3-0.1l0.1-6.7
				c0.1-4.5,0.2-6.8,0.3-7c0.1-0.1,0.2-0.8,0.3-1.9c0.1-2.1,0.4-3.2,0.7-3.2c0.2,0,0.4-0.1,0.4-0.3c0-0.2,0.2-0.3,0.7-0.3
				c0.4,0,0.8-0.1,1-0.3c0.3-0.2,0.4-0.5,0.4-0.7c0-0.3-0.2-0.6-0.5-0.8c-0.3-0.2-1.4-0.3-3.4-0.3c-2,0-2.9,0.1-2.9,0.3
				c0,0.1-0.3,0.2-0.9,0.2s-0.9,0.1-0.9,0.4s-0.1,0.4-0.3,0.4c-0.2,0-0.3,0.2-0.3,0.6c0,0.5,0.1,0.8,0.4,0.9
				c0.3,0.1,0.4,0.9,0.4,2.5c0,1.6,0.1,2.4,0.3,2.5c0.2,0.1,0.3,0.8,0.3,2.2c0,1.3-0.1,2-0.3,2.1c-0.2,0.1-0.4,1.5-0.4,4.3
				c-0.1,2.4-0.2,3.9-0.4,4.3c-0.2,0.5-0.8,0.8-1.8,0.9c-0.6,0-0.9,0.1-1,0.2c-0.1,0.1-0.2,0.4-0.2,0.8
				C251,101.2,251.1,101.5,251.3,101.5z M257.4,86.9c0.3,0,0.4,0.2,0.4,0.6c0,0.4-0.1,0.5-0.4,0.5c-0.3,0-0.4-0.2-0.4-0.5
				C257,87.1,257.2,86.9,257.4,86.9z M255.8,94.9c0.2,0,0.4,0.1,0.4,0.3c0,0.2-0.1,0.3-0.4,0.3c-0.3,0-0.4-0.1-0.4-0.3
				C255.4,95,255.5,94.9,255.8,94.9z"/>
			<path d="M277.6,78.2c-0.3-0.2-1.4-0.3-3.4-0.3c-2,0-2.9,0.1-2.9,0.3c0,0.1-0.3,0.2-0.9,0.2c-0.6,0-0.9,0.1-0.9,0.4
				s-0.1,0.4-0.3,0.4c-0.2,0-0.3,0.2-0.3,0.6c0,0.5,0.1,0.8,0.4,0.9c0.3,0.1,0.4,0.9,0.4,2.5c0,1.6,0.1,2.4,0.3,2.5
				c0.2,0.1,0.3,0.8,0.3,2.2c0,1.3-0.1,2-0.3,2.1c-0.2,0.1-0.4,1.5-0.4,4.3c-0.1,2.4-0.2,3.9-0.4,4.3c-0.2,0.5-0.8,0.8-1.8,0.9
				c-0.6,0-0.9,0.1-1,0.2c-0.1,0.1-0.2,0.4-0.2,0.8c0,0.6,0.1,0.9,0.4,0.9c0.3,0,0.6,0.1,0.9,0.4c0.3,0.3,0.5,0.4,0.6,0.2
				c0.1-0.2,1.5-0.4,4-0.4c2.1,0,3.2,0.1,3.2,0.3c0,0.2,0.2,0.3,0.5,0.3c0.4,0,0.6-0.1,0.6-0.2s0.2-0.3,0.6-0.5
				c0.4-0.2,0.6-0.4,0.6-0.6c0-0.9-0.7-1.4-1.9-1.5l-1.3-0.1l0.1-6.7c0.1-4.5,0.2-6.8,0.3-7c0.1-0.1,0.2-0.8,0.3-1.9
				c0.1-2.1,0.4-3.2,0.7-3.2c0.2,0,0.4-0.1,0.4-0.3c0-0.2,0.2-0.3,0.7-0.3c0.4,0,0.8-0.1,1-0.3c0.3-0.2,0.4-0.5,0.4-0.7
				C278,78.6,277.9,78.4,277.6,78.2z M270.8,95.4c-0.3,0-0.4-0.1-0.4-0.3c0-0.2,0.1-0.3,0.4-0.3c0.2,0,0.4,0.1,0.4,0.3
				C271.2,95.3,271.1,95.4,270.8,95.4z M272.5,88c-0.3,0-0.4-0.2-0.4-0.5c0-0.4,0.1-0.6,0.4-0.6c0.3,0,0.4,0.2,0.4,0.6
				C272.9,87.8,272.7,88,272.5,88z"/>
			<path d="M131.2,788.6c0-0.1,0-0.2-0.1-0.2c-0.1,0-0.1,0-0.1,0.1l0.1,0.2C131.1,788.8,131.2,788.8,131.2,788.6z"/>
			<path d="M137,789.3c0-0.6-0.1-0.9-0.2-1.1c-0.1-0.2-0.3-0.4-0.6-0.5c-0.3-0.1-0.5-0.3-0.5-0.4c-0.1-0.1-0.3-0.3-0.9-0.6
				c-0.5-0.3-1-0.5-1.3-0.6c-0.2-0.1-0.5-0.2-0.9-0.5c-0.4-0.3-0.6-0.4-0.6-0.5c0-0.1-0.1-0.2-0.2-0.3c-0.2-0.1-0.2-0.2-0.2-0.3
				c0,0,0-0.1,0-0.1c0.1-0.1,0.1-0.2,0.1-0.3c0-0.1,0-0.3-0.1-0.6c0-0.1,0-0.2,0-0.2c0,0,0.2-0.1,0.3-0.1c0.3,0,0.4-0.1,0.4-0.2
				c0-0.1,0.1-0.2,0.4-0.4c0.3-0.2,0.4-0.3,0.4-0.3c0-0.1,0.1-0.1,0.4-0.2c0.1,0,0.1,0,0.2,0c0.4,0,0.8,0.2,1.2,0.5
				c0.5,0.3,0.7,0.6,0.7,0.9c0,0.2,0.1,0.4,0.3,0.5c0.2,0.1,0.3,0.3,0.3,0.4s0.1,0.3,0.2,0.5c0.2,0.2,0.3,0.3,0.4,0.3c0,0,0,0,0.1,0
				c0.1-0.1,0.1-0.7,0.2-2v-0.8c0-0.6-0.1-0.9-0.2-0.9c-0.1,0-0.1,0-0.1,0c-0.3,0.1-0.6,0.2-0.8,0.2c-0.3,0-0.6-0.1-1-0.3
				c-0.4-0.2-0.6-0.3-0.7-0.3c0,0-0.1,0-0.2,0.1c-0.3,0.1-0.6,0.1-0.8,0.1c-0.3,0-0.4,0-0.5,0.1c0,0.1-0.1,0.2-0.3,0.2
				c-0.2,0-0.4-0.1-0.5-0.2c-0.1-0.1-0.3-0.2-0.5-0.2h0c-0.1,0-0.1,0-0.1,0c-0.1,0-0.1,0-0.1,0c0,0,0.1,0,0.1,0
				c0.1,0.1,0.2,0.1,0.2,0.2c0,0.2-0.2,0.3-0.5,0.4c-0.3,0.1-0.4,0.2-0.4,0.4c0.1,0.2,0,0.3-0.2,0.4c-0.3,0.1-0.6,0.5-1.1,1.1
				c-0.1,0.2-0.2,0.4-0.2,0.6c0,0,0,0.3,0.1,0.8c0.1,0.7,0.3,1.1,0.4,1.3c0.1,0.2,0.4,0.4,0.7,0.7c0.4,0.3,0.6,0.4,0.8,0.4
				c0.1,0,0.3,0.1,0.6,0.4c0.4,0.3,0.9,0.6,1.7,0.8c0.5,0.1,0.8,0.3,1.1,0.6c0.2,0.2,0.3,0.4,0.5,0.7c0.1,0.3,0.2,0.5,0.2,0.7
				c0,0.1,0,0.1-0.1,0.2c-0.1,0-0.1,0.2-0.1,0.4c0.1,0.2,0,0.4-0.2,0.6c-0.1,0.1-0.2,0.3-0.2,0.4c0,0.2-0.5,0.4-1.4,0.5
				c-0.1,0-0.3,0-0.6,0c-0.9,0-1.7-0.4-2.2-1.2c-0.3-0.4-0.5-0.8-0.5-1c0,0,0-0.1,0-0.2c0-0.1,0-0.2,0-0.2c0,0-0.1-0.1-0.1-0.1
				c-0.1,0-0.1,0-0.1-0.1c0.1-0.3-0.1-0.5-0.4-0.6c-0.1,0-0.2-0.1-0.3-0.1c-0.3,0-0.4,0.2-0.5,0.5c-0.1,1.2-0.1,1.9-0.2,1.9
				c-0.1,0.1-0.1,0.4-0.2,0.8c0,0.1,0,0.3,0,0.4c0,0.2,0.1,0.4,0.3,0.6c0.1,0.1,0.2,0.2,0.3,0.2c0,0,0.1,0,0.2-0.2
				c0.1-0.2,0.2-0.3,0.2-0.4c0-0.3,0.2-0.3,0.5-0.1c0.9,0.4,1.8,0.7,2.9,0.7c0.5,0,1.1-0.1,1.6-0.2c0.6-0.1,1.1-0.3,1.4-0.6
				c0.3-0.3,0.5-0.5,0.5-0.5c0-0.1,0.1-0.2,0.2-0.3c0.2-0.1,0.3-0.4,0.3-0.9c0.1-0.5,0.1-0.7,0.2-0.7s0.1,0,0-0.1
				C137.1,790.4,137.1,790,137,789.3z M132.7,787.8C132.6,787.8,132.6,787.8,132.7,787.8c-0.1-0.1-0.1-0.1,0-0.1
				C132.7,787.7,132.7,787.7,132.7,787.8C132.7,787.8,132.7,787.8,132.7,787.8z"/>
			<path d="M155,789.1c-0.1,0-0.3,0.2-0.5,0.5c-0.3,0.4-0.4,0.6-0.4,0.7c0,0.1-0.1,0.2-0.4,0.2c-0.2,0-0.3,0.1-0.3,0.1
				c0,0,0,0.1,0,0.3v0.2c0,0.2-0.1,0.3-0.4,0.3c0,0-0.1,0-0.2,0c-0.1,0-0.1,0-0.2,0c-0.2,0-0.4,0.1-0.7,0.4
				c-0.2,0.2-0.4,0.3-0.6,0.3c-0.1,0-0.2-0.1-0.2-0.2s-0.2-0.1-0.4,0c-0.2,0.1-0.6,0.2-1.2,0.2c-0.5,0-0.7,0-0.7-0.1
				c0-0.1-0.1-0.1-0.2-0.1c-0.1,0-0.1-0.1-0.2-0.2c-0.1-0.2-0.1-0.3-0.1-0.5c0,0,0-0.6,0.1-1.8c0-1.2,0.1-1.8,0.1-1.8
				c0-0.1,0.5-0.1,1.4-0.1c0.8,0,1.3,0.1,1.5,0.2c0.3,0.1,0.4,0.4,0.4,0.8c0,0.2,0,0.3,0.1,0.3c0,0,0.1,0,0.2,0
				c0.2-0.1,0.4-0.1,0.6-0.1h0.1c0.2,0,0.3-0.2,0.3-0.6c0-0.1,0-0.2,0-0.3c0-0.2,0-0.3,0-0.4V787c0-0.4,0-0.6,0.1-0.6
				c0.1-0.1,0.1-0.3,0-0.4c-0.1-0.1-0.1-0.3,0.1-0.4c0.2-0.1,0.2-0.2,0.2-0.4c0-0.3-0.4-0.4-1.1-0.4c-0.4,0-0.6,0.2-0.6,0.5
				c0,0.1,0,0.2,0.1,0.3c0.1,0.2,0,0.3-0.1,0.5c-0.1,0.1-0.4,0.2-0.9,0.3c-0.6,0.1-1.1,0.2-1.6,0.2h-0.6v-0.6c0-0.4,0.1-0.6,0.2-0.6
				c0.1,0,0.2-0.1,0.2-0.4c0-0.3-0.1-0.6-0.2-0.9c-0.1-0.2-0.2-0.4-0.2-0.4c0-0.1,0.1-0.1,0.2-0.3c0.2-0.2,0.3-0.3,0.2-0.5
				c0,0,0-0.1,0-0.2c0-0.2,0.1-0.3,0.4-0.4c0.3-0.1,0.8-0.1,1.5-0.2c0.6,0,1-0.1,1.1-0.1c0.4,0,0.6,0.1,0.7,0.2
				c0.2,0.2,0.3,0.3,0.5,0.4c0.2,0.1,0.3,0.2,0.3,0.3c0,0.1,0.1,0.2,0.4,0.4c0.2,0.1,0.4,0.3,0.4,0.3c0,0.2,0.1,0.3,0.3,0.5
				c0.2,0.2,0.4,0.3,0.6,0.3h0.1c0.3,0,0.4-0.2,0.4-0.7c0-0.2-0.1-0.4-0.2-0.5c-0.1-0.2-0.2-0.4-0.2-0.6c0-0.3-0.1-0.5-0.2-0.5
				c-0.1-0.1-0.1-0.2,0-0.4c0.1-0.1,0.1-0.2,0.1-0.3c0-0.1-0.1-0.1-0.2-0.2s-0.2-0.2-0.2-0.3c0-0.1-0.1-0.3-0.3-0.5
				c-0.1-0.1-0.2-0.2-0.3-0.2c-0.1,0-0.2,0-0.3,0.1c-0.2,0.1-1.9,0.3-5,0.4H148c-1.5,0-2.3-0.1-2.4-0.3c0-0.1-0.1-0.1-0.3-0.1
				c-0.1,0-0.2,0-0.2,0.1c0,0.1-0.1,0.2-0.1,0.3c0,0.2,0,0.3,0,0.3c0,0.2-0.1,0.3-0.3,0.4c-0.2,0-0.3,0.2-0.2,0.5
				c0.1,0.2,0.1,0.4,0.2,0.5c0.1,0.1,0.2,0.1,0.3,0.1s0.3,0,0.4,0c0.1,0,0.1,0,0.2,0c0.1,0,0.1,0,0.2,0c0.4,0,0.6,0.1,0.7,0.4
				c0.1,0.2,0.1,0.8,0.1,1.5c0,0.9-0.1,1.4-0.2,1.5c-0.1,0-0.1,0.2,0,0.4c0.1,0.3,0.1,0.5,0,0.7c-0.1,0.2-0.2,0.3-0.3,0.3
				c-0.1,0-0.1,0.1,0.1,0.2c0.1,0.1,0.1,0.3,0.1,0.6c0,0.3-0.1,1.3-0.2,3l-0.1,1h-0.6c-0.4,0-0.6,0.1-0.7,0.3
				c-0.1,0.2-0.2,0.3-0.3,0.3c-0.2,0-0.2,0.1-0.2,0.4c0,0.3,0.1,0.5,0.3,0.6c0.2,0.1,0.3,0.3,0.3,0.4c0,0.1,0.1,0.2,0.3,0.2
				s0.5,0,0.8-0.1c0.3-0.1,0.5-0.2,0.6-0.2c0.2-0.1,0.6-0.2,1.2-0.2c0.1,0,0.6,0,1.5,0.1c0.8,0,1.2,0.1,1.2,0.2
				c0.1,0.1,0.2,0.1,0.4,0c0.3-0.1,0.8-0.2,1.6-0.2c0.9,0,1.4,0,1.6-0.1c0.2,0,0.3-0.1,0.5-0.2c0.2-0.2,0.3-0.4,0.2-0.6
				c-0.1-0.2,0-0.4,0.2-0.4c0.1-0.1,0.2-0.4,0.2-0.8c0-0.3,0-0.5,0.1-0.6c0-0.1,0.1-0.1,0.2-0.1c0.2,0,0.3-0.2,0.3-0.5
				c0-0.3-0.1-0.5-0.2-0.7C155.3,789.2,155.1,789.1,155,789.1z"/>
			<path d="M144.5,790.9c0.1-0.2,0.1-0.3-0.1-0.3c-0.1,0-0.2,0.1-0.2,0.2c0,0.1,0,0.2,0.1,0.2C144.3,791,144.4,791,144.5,790.9z"/>
			<path d="M174.7,779.9h-2c-1.3,0-2,0-2,0.1c0,0.1-0.1,0.2-0.2,0.2c-0.1,0-0.3,0.1-0.5,0.4c-0.2,0.2-0.2,0.4-0.1,0.4
				c0.1,0,0.2,0.1,0.3,0.2c0.1,0.1,0.2,0.2,0.6,0.2c0.2,0,0.3,0,0.4,0.1c0.1,0.1,0.1,0.2,0.2,0.3c0.1,0.2,0,0.4-0.1,0.4
				c-0.1,0-0.2,0.3-0.2,0.6c0,0.4-0.1,0.6-0.2,0.7c-0.2,0.1-0.2,0.2-0.2,0.4c0,0,0,0.1,0,0.2c0,0.3-0.1,0.5-0.2,0.8
				c-0.1,0.3-0.2,0.4-0.4,0.5c-0.2,0.1-0.3,0.2-0.3,0.5c0,0.3,0,0.5-0.1,0.6s-0.2,0.4-0.2,0.9c-0.1,0.5-0.2,0.8-0.3,0.8
				c-0.1,0-0.2,0.1-0.2,0.2v0.2c0,0.1-0.1,0.2-0.2,0.2c-0.2,0-0.4,0-0.5-0.1c-0.2-0.2-0.4-0.7-0.4-1.5c0-0.3-0.1-0.5-0.2-0.8
				c-0.1-0.2-0.2-0.5-0.2-0.9c0-0.8-0.2-1.2-0.5-1.4c-0.1-0.1-0.1-0.1,0-0.2c0.1-0.1,0.2-0.2,0.2-0.5c0-0.2,0-0.3-0.1-0.3
				c-0.1,0-0.1-0.1-0.2-0.4c-0.1-0.3-0.2-0.4-0.4-0.5c-0.2-0.1-0.2-0.1-0.2-0.2c0-0.2,0.2-0.3,0.7-0.3c0.7,0,1.1-0.1,1.1-0.4
				c0-0.1,0.1-0.2,0.2-0.2s0.1-0.1-0.2-0.4c-0.2-0.3-0.5-0.4-0.8-0.4c-0.4,0-0.6-0.1-0.6-0.2c-0.1-0.1-0.2-0.1-0.4,0.1
				c-0.2,0.1-0.3,0.1-0.4,0c-0.1-0.1-0.2-0.2-0.2,0c-0.1,0.1-0.3,0.2-0.6,0.2c-0.2,0-0.3,0-0.4-0.1c-0.1-0.1-0.1-0.2-0.2-0.4
				c-0.1-0.3-0.2-0.4-0.4-0.4c-0.1,0-0.3,0.1-0.5,0.3c-0.2,0.2-0.4,0.3-0.6,0.3c-0.2,0-0.3,0.1-0.3,0.2c0,0.1,0,0.2-0.1,0.2
				c-0.1,0-0.1,0.1-0.1,0.4c0,0.2,0,0.4,0.1,0.4c0.1,0,0.1,0.1,0.1,0.2c0,0.1,0.2,0.2,0.5,0.3c0.3,0.1,0.6,0.2,0.8,0.5
				c0.2,0.3,0.4,0.6,0.4,0.9c0,0.3,0.1,0.5,0.2,0.9c0.1,0.3,0.2,0.5,0.3,0.5c0.1,0,0.1,0.2,0.1,0.5c0,0.3,0.1,0.5,0.3,0.7
				c0.2,0.2,0.3,0.5,0.4,1c0.1,0.5,0.2,0.9,0.2,1.4c0,0.5,0.1,0.7,0.2,0.8c0.1,0,0.2,0.1,0.1,0.3c0,0.2,0,0.3,0.1,0.4
				c0.1,0.1,0.2,0.4,0.2,0.9c0,0.5,0.1,0.8,0.2,0.8c0.1,0,0.2,0.2,0.3,0.6c0.1,0.4,0.2,0.6,0.3,0.6c0.1,0,0.2,0.1,0.3,0.4
				c0.1,0.4,0.3,0.6,0.7,0.6c0.1,0,0.2,0,0.3-0.1c0.2,0,0.3-0.1,0.3-0.1c0-0.1,0.1-0.2,0.1-0.4c0-0.3,0.1-0.5,0.2-0.5
				c0.1,0,0.1-0.2,0.1-0.5c0-0.3,0.1-0.5,0.2-0.5c0.1-0.1,0.2-0.3,0.2-0.8c0-0.5,0.1-0.8,0.4-1.1c0.1-0.1,0.2-0.2,0.4-0.3
				c0.2-0.1,0.3-0.2,0.3-0.3c0.1-0.1,0.1-0.3,0.1-0.6c0-0.4,0.1-0.6,0.2-0.8c0.1-0.1,0.2-0.3,0.3-0.8c0.1-0.5,0.2-0.7,0.3-0.8
				c0.1-0.1,0.2-0.3,0.2-0.5c0-0.2,0.1-0.4,0.4-0.4c0.1,0,0.1,0,0.2,0c0.1,0,0.1,0,0.1-0.1c0,0,0-0.1,0.1-0.1c0,0,0-0.1,0-0.1
				c0-0.1,0-0.3,0-0.5c0-0.6,0.1-0.8,0.3-0.8c0.2,0,0.3-0.1,0.3-0.4c0-0.3,0.1-0.5,0.4-0.7c0.2-0.2,0.5-0.4,0.8-0.4
				c0.4-0.1,0.7-0.3,0.7-0.8c0-0.1,0-0.2-0.1-0.4L174.7,779.9z"/>
			<path d="M192,789.1c-0.1,0-0.3,0.2-0.5,0.5c-0.3,0.3-0.4,0.6-0.4,0.7c0,0.1-0.1,0.2-0.4,0.2c-0.1,0-0.2,0-0.3,0.1
				c0,0-0.1,0.1-0.1,0.1c0,0,0,0.1,0,0.3c0,0.2-0.1,0.3-0.4,0.3c0,0-0.1,0-0.1,0c-0.1,0-0.1,0-0.2,0c-0.2,0-0.4,0.1-0.6,0.3
				c-0.2,0.2-0.4,0.3-0.6,0.3c-0.1,0-0.2-0.1-0.2-0.2c0-0.1-0.1-0.1-0.4,0c-0.2,0.1-0.6,0.2-1.2,0.2c-0.5,0-0.7,0-0.7-0.1
				c0-0.1-0.1-0.1-0.2-0.1c-0.1,0-0.1-0.1-0.2-0.2c-0.1-0.2-0.1-0.3-0.1-0.4c0-0.1,0-0.2,0-0.3c0-0.2,0-0.4,0-0.6c0-0.3,0-0.5,0-0.8
				c0-0.3,0-0.5,0-0.8c0-0.3,0-0.5,0-0.6v-0.2c0-0.1,0.4-0.1,1.3-0.1c0.7,0,1.2,0.1,1.4,0.2c0.2,0.1,0.4,0.4,0.4,0.8
				c0,0.2,0,0.3,0.1,0.3c0,0,0.1,0,0.2,0c0.1-0.1,0.3-0.1,0.5-0.1c0.1,0,0.2,0,0.3-0.1c0-0.1,0.1-0.2,0.1-0.5c0-0.1,0-0.2,0-0.3
				c0-0.2,0-0.3,0-0.4v-0.2c0-0.3,0-0.6,0.1-0.7c0.1-0.1,0.1-0.3,0-0.4c-0.1-0.1-0.1-0.3,0.1-0.4c0.1-0.1,0.2-0.2,0.2-0.4
				c0-0.3-0.3-0.4-1-0.4c-0.4,0-0.6,0.2-0.6,0.5c0,0.1,0,0.2,0.1,0.3c0,0.2,0,0.4,0,0.5c-0.1,0.1-0.3,0.2-0.9,0.3
				c-0.5,0.1-1,0.1-1.5,0.1h-0.6V786c0-0.4,0.1-0.6,0.2-0.6c0.1,0,0.2-0.1,0.2-0.4c0-0.3-0.1-0.5-0.2-0.9c-0.1-0.2-0.2-0.4-0.1-0.4
				c0-0.1,0.1-0.1,0.2-0.3c0.2-0.1,0.3-0.3,0.2-0.5c0,0,0-0.1,0-0.2c0-0.1,0.1-0.3,0.4-0.3c0.3-0.1,0.7-0.1,1.5-0.2
				c0.7,0,1.1-0.1,1.1-0.1c0.3,0,0.5,0.1,0.6,0.2c0.1,0.2,0.3,0.3,0.5,0.4c0.2,0.1,0.3,0.2,0.3,0.3c0,0.1,0.1,0.2,0.3,0.3
				c0.2,0.1,0.3,0.2,0.3,0.3c0,0.2,0.1,0.3,0.3,0.5c0.2,0.2,0.4,0.2,0.6,0.2h0c0.3,0,0.4-0.2,0.4-0.6c0-0.2-0.1-0.3-0.2-0.5
				c-0.1-0.1-0.2-0.3-0.2-0.5c0-0.3-0.1-0.5-0.2-0.5c-0.1,0-0.1-0.1,0-0.4c0.1-0.1,0.1-0.2,0.1-0.3c0,0-0.1-0.1-0.1-0.1
				c-0.1-0.1-0.2-0.2-0.2-0.3c0-0.1-0.1-0.3-0.3-0.5c-0.2-0.2-0.4-0.3-0.6-0.1c-0.3,0.1-1.8,0.3-4.7,0.4h-0.7
				c-1.5,0-2.2-0.1-2.3-0.3c0-0.1-0.1-0.1-0.2-0.1c-0.1,0-0.2,0-0.2,0.1l0,0.1c0,0.1,0,0.1,0,0.1c0,0,0,0.1,0,0.2c0,0.1,0,0.2,0,0.2
				c0,0.2-0.1,0.3-0.3,0.3c-0.2,0.1-0.3,0.2-0.2,0.5c0.1,0.2,0.1,0.4,0.2,0.5c0.1,0.1,0.2,0.1,0.3,0.1c0.1,0,0.3,0,0.4,0
				c0.1,0,0.2,0,0.4,0c0.3,0,0.5,0.1,0.6,0.4c0.1,0.2,0.1,0.7,0.1,1.4c0,0.9-0.1,1.4-0.2,1.4c-0.1,0-0.1,0.2,0,0.4
				c0.1,0.2,0.1,0.4,0,0.6c-0.1,0.2-0.2,0.3-0.3,0.3c-0.1,0-0.1,0.1,0.1,0.2c0.1,0.1,0.1,0.3,0.1,0.6c0,0.5-0.1,1.5-0.2,2.8
				l-0.1,0.9h-0.6c-0.4,0-0.6,0.1-0.6,0.3c0,0.2-0.1,0.3-0.3,0.3c-0.1,0-0.2,0.1-0.2,0.3c0,0.3,0.1,0.5,0.3,0.6
				c0.2,0.1,0.3,0.2,0.3,0.4c0,0.1,0.2,0.1,0.7,0.1c0.5,0,0.8-0.1,0.9-0.3c0.1-0.1,0.5-0.2,1.2-0.2c0.5,0,0.9,0,1.3,0
				c0.7,0,1.1,0.1,1.2,0.2c0,0.1,0.2,0.1,0.4,0c0.2-0.1,0.7-0.2,1.5-0.2c0.8,0,1.3,0,1.5-0.1c0.2,0,0.3-0.1,0.5-0.3
				c0.2-0.2,0.3-0.3,0.2-0.5c0-0.2,0-0.3,0.1-0.4c0.1-0.1,0.2-0.3,0.2-0.8c0-0.3,0-0.5,0-0.6c0-0.1,0.1-0.1,0.2-0.1
				c0.2,0,0.3-0.2,0.3-0.5c0-0.2-0.1-0.4-0.2-0.6C192.3,789.2,192.2,789.1,192,789.1z"/>
			<path d="M181.9,791c0,0,0.1,0,0.1-0.1c0.1-0.2,0.1-0.3,0-0.3c-0.1,0-0.2,0.1-0.2,0.2C181.7,790.9,181.8,791,181.9,791z"/>
			<path d="M212.6,780.9c-0.1,0-0.2,0-0.3,0.1c-0.2,0.1-0.3,0.1-0.3,0.1c-0.1,0-0.1-0.1-0.2-0.2c-0.1-0.2-0.3-0.3-0.4-0.3
				c-0.1,0-0.2-0.1-0.2-0.3c0-0.2-0.1-0.3-0.3-0.3c-0.2,0-0.3,0.1-0.3,0.3c0,0.2,0.1,0.3,0.2,0.3s0.2,0.1,0.2,0.3
				c0,0.2-0.1,0.3-0.2,0.3c-0.2,0-0.3-0.1-0.3-0.4c-0.1-0.2-0.2-0.4-0.3-0.4c-0.1,0-0.1,0-0.2,0.1c-0.2,0.2-0.2,0.3,0,0.3
				c0.1,0,0.2,0.1,0.2,0.1c0,0.1-0.1,0.2-0.4,0.2c-0.2,0-0.4,0-0.4-0.1c0-0.1-0.1-0.1-0.4-0.1c-0.4,0-0.8,0.1-1.1,0.2
				c-0.4,0.2-0.6,0.4-0.6,0.7c0,0.3,0.3,0.5,0.8,0.6c0.4,0.1,0.6,0.1,0.6,0.2c0,0.1,0.1,0.1,0.3,0.1c0.3,0,0.5,0.2,0.6,0.6
				c0.1,0.4,0.2,1.2,0.2,2.4c0,1.4,0.1,2.2,0.1,2.4c0.1,0.1,0,0.3,0,0.6l-0.1,0.4l-0.5-0.5c-0.4-0.3-0.5-0.5-0.5-0.6
				c0-0.1-0.1-0.2-0.2-0.3c-0.1-0.1-0.3-0.2-0.4-0.4c-0.2-0.1-0.3-0.2-0.3-0.2c-0.1-0.1-0.3-0.2-0.3-0.2c-0.1,0-0.2-0.1-0.2-0.2
				c0-0.1-0.1-0.2-0.2-0.3c-0.1-0.1-0.3-0.2-0.4-0.2s-0.1-0.1-0.1-0.2c0-0.1-0.1-0.2-0.2-0.2c-0.1,0-0.1,0-0.1-0.1
				c0-0.1-0.1-0.2-0.4-0.5c-0.2-0.3-0.4-0.4-0.4-0.5c0-0.1-0.1-0.2-0.3-0.2c-0.2,0-0.3-0.1-0.5-0.2c-0.2-0.1-0.2-0.3-0.2-0.4
				c0-0.1-0.2-0.3-0.5-0.7c-0.3-0.4-0.5-0.6-0.5-0.7c0-0.1-0.1-0.2-0.3-0.4c-0.2-0.2-0.3-0.4-0.3-0.4c0-0.3-0.6-0.5-1.8-0.6
				c-0.6,0-0.9-0.1-0.9-0.1c-0.3,0-0.4,0.1-0.4,0.2c0,0.1,0,0.2,0,0.4c0,0.2,0,0.4,0.1,0.6c0.1,0.2,0.1,0.3,0.2,0.3
				c0.1,0,0.2,0.2,0.3,0.6c0.1,0.4,0.2,0.6,0.2,0.6c0.1,0,0.1,0.3,0.1,0.8c0,0.5,0,0.8-0.1,0.8c-0.1,0-0.1,0.1-0.1,0.4
				c0,0.2,0.1,0.6,0.2,1c0.1,0.2,0.1,0.6,0.1,1.1c0,0.7-0.1,1.1-0.2,1.1c-0.1,0-0.1,0.2-0.1,0.7c0,0.5,0,1.1-0.1,1.5
				c0,0.4-0.1,0.6-0.1,0.7c-0.1,0.1-0.2,0.2-0.4,0.2c-0.3,0.1-0.4,0.2-0.4,0.4c0,0.2,0.1,0.4,0.4,0.6c0.2,0.2,0.3,0.3,0.5,0.3
				c0.2,0,0.8,0,1.7,0c1,0,1.6,0,1.8-0.1c0.2-0.1,0.3-0.3,0.3-0.8c0-0.3-0.1-0.4-0.3-0.5c-0.2-0.1-0.3-0.1-0.3-0.2
				c0-0.1-0.2-0.1-0.6-0.1c-0.4,0-0.7-0.1-0.9-0.3c-0.2-0.2-0.2-0.3-0.1-0.4c0.1-0.1,0.2-0.2,0.2-0.6c0-0.3,0-0.5-0.1-0.5
				c-0.1-0.1-0.1-0.9-0.1-2.6c0-1.7,0.1-2.5,0.2-2.5c0.1,0,0.3,0.1,0.4,0.2c0.1,0.1,0.3,0.2,0.5,0.3c0.3,0.1,0.4,0.3,0.5,0.4
				c0,0.2,0.3,0.5,0.8,1.1c0.5,0.5,0.9,0.9,1.3,1.1c0.2,0.1,0.3,0.2,0.3,0.3c0,0.1,0.2,0.2,0.5,0.6c0.7,0.7,1.1,1.1,1.1,1.4
				c0,0.1,0.1,0.1,0.3,0.1c0.2,0,0.3,0,0.3,0.1c0,0.1,0.1,0.3,0.4,0.5c0.2,0.2,0.4,0.4,0.4,0.6c0,0.1,0.1,0.3,0.3,0.5
				c0.2,0.2,0.3,0.3,0.4,0.3c0.1,0,0.3,0.2,0.6,0.5c0.3,0.3,0.5,0.5,0.7,0.6c0.1,0.1,0.2,0.1,0.3,0.1c0.4,0,0.6-0.2,0.6-0.6
				c0-0.1,0-0.2,0-0.4c0-0.9-0.1-1.4-0.2-1.6c-0.1-0.1-0.1-0.5-0.1-1.3v-0.4c0-1,0-1.6-0.1-1.6c-0.1-0.1-0.2-0.4-0.2-1
				c0-0.5,0-0.8,0.1-0.8c0.1-0.1,0.2-0.2,0.2-0.5s0-0.4,0.1-0.4c0.1,0,0.1-0.1,0.1-0.4c0-0.3,0-0.4-0.1-0.4c-0.1,0-0.1-0.1-0.1-0.4
				c0-0.4,0.1-0.7,0.2-1c0.2-0.3,0.4-0.5,0.7-0.5c0.2,0,0.4-0.1,0.4-0.1c0.1,0,0.1-0.2,0.1-0.5v-0.2
				C213,781.1,212.9,780.9,212.6,780.9z"/>
			<path d="M244.3,784.5c-0.2-0.1-0.2-0.2-0.2-0.5c0-0.3,0-0.5-0.1-0.5c-0.1,0-0.1-0.1-0.1-0.4s-0.1-0.4-0.2-0.4
				c-0.1,0-0.2-0.1-0.3-0.3c-0.1-0.2-0.2-0.3-0.3-0.4c-0.1-0.1-0.2-0.2-0.2-0.4c0-0.2-0.1-0.3-0.4-0.3c-0.7,0-1-0.1-1-0.4
				c0-0.1-0.1-0.2-0.2-0.2c-0.1,0-0.2,0-0.2-0.1c0-0.1-0.1-0.1-0.3-0.1c-0.2,0-0.3-0.1-0.4-0.2c0-0.1-0.5-0.2-1.5-0.2
				c-0.9,0-1.5,0.1-1.6,0.2c-0.1,0.1-0.2,0.2-0.4,0.2c-0.2,0-0.3,0.1-0.4,0.3c-0.1,0.2-0.3,0.4-0.6,0.4c-0.3,0-0.6,0.1-1.1,0.2
				c-0.5,0.1-0.7,0.3-0.8,0.5c0,0.2-0.2,0.4-0.5,0.7c-0.3,0.3-0.4,0.5-0.4,0.5c0,0.1-0.1,0.1-0.2,0.1c-0.1,0-0.2,0.1-0.3,0.4
				c-0.1,0.2-0.2,0.5-0.3,0.7c-0.2,0.3-0.2,0.8-0.2,1.8c0,1.2,0.1,2.1,0.4,2.9c0.5,1.4,0.9,2.2,1.2,2.3c0.2,0,0.3,0.1,0.3,0.3
				c0,0.2,0.2,0.2,0.4,0.2c0.2,0,0.4,0,0.4,0.1s0.1,0.1,0.3,0.1s0.3,0.1,0.3,0.4c0,0.2,0,0.3,0.1,0.4c0.1,0.1,0.2,0,0.4-0.1
				c0.1-0.1,0.2-0.1,0.3,0c0.2,0.1,0.9,0.2,2.2,0.2c1.1,0,1.7-0.1,1.7-0.2c0-0.1,0.3-0.2,0.7-0.2c0.4,0,0.6-0.1,0.6-0.2
				c0-0.2,0.1-0.3,0.2-0.3c0,0,0.2-0.1,0.4-0.3c0.3-0.2,0.4-0.3,0.5-0.3c0.1,0,0.2-0.1,0.2-0.3c0.1-0.2,0.2-0.3,0.3-0.3
				c0.1,0,0.2-0.1,0.3-0.3c0-0.2,0.2-0.3,0.4-0.3c0.2-0.1,0.3-0.1,0.3-0.2c0-0.1,0.1-0.1,0.2-0.1c0.1,0,0.2-0.2,0.2-0.6
				c0-0.3,0-0.5-0.1-0.5c-0.1,0-0.1-0.1,0-0.2c0.1-0.1,0.2-0.8,0.2-2.1c0-0.3,0-0.7,0-1.1C244.5,784.9,244.4,784.6,244.3,784.5z
				 M242.1,787.7c-0.1,0-0.2,0.2-0.2,0.4c0,0.3-0.1,0.4-0.2,0.5c-0.1,0.1-0.2,0.4-0.3,0.8c-0.1,0.4-0.1,0.6-0.3,0.6
				c-0.1,0-0.2,0-0.2,0.1c0,0.1-0.1,0.2-0.4,0.2c-0.3,0.1-0.4,0.2-0.4,0.3c0,0.1,0,0.2-0.1,0.2c-0.1,0.1-0.2,0.1-0.4,0.2
				c-0.1,0.1-0.2,0.1-0.3,0.1c0,0.1-0.2,0.1-0.4,0.1c-0.2,0-0.3,0.1-0.5,0.2c-0.1,0.1-0.2,0.1-0.4,0.1c-0.2,0-0.4,0-0.7-0.1
				c-0.5-0.1-1-0.3-1.3-0.6c-0.3-0.3-0.7-0.8-1-1.5c-0.3-0.5-0.4-0.9-0.5-1.1c0-0.2-0.1-0.7-0.1-1.4c0-0.7,0-1.1,0.1-1.4
				c0-0.2,0.1-0.5,0.3-0.8c0.3-0.5,0.6-0.9,1-1.3c0.4-0.4,0.8-0.6,1-0.7c0.3,0,0.5-0.1,0.5-0.3c0-0.1,0.1-0.2,0.2-0.2
				c0.1,0,0.2,0,0.2-0.1c0-0.1,0.1-0.1,0.3-0.1c0.2,0,0.3,0,0.3,0.1c0,0.1,0.3,0.1,0.9,0.1c0.5,0,0.8,0.1,0.8,0.2
				c0,0.1,0.1,0.2,0.3,0.3c0.2,0.1,0.3,0.2,0.3,0.3c0,0.1,0.1,0.2,0.3,0.3c0.3,0.1,0.5,0.4,0.5,0.8c0,0.2,0.1,0.5,0.3,0.8
				c0.2,0.3,0.3,0.7,0.3,1.1c0,0.5,0,0.7,0.1,0.8c0.1,0.1,0.1,0.2,0.1,0.4C242.3,787.4,242.2,787.6,242.1,787.7z"/>
			<path d="M262.1,782.7c0-0.3-0.1-0.5-0.2-0.6c-0.1-0.1-0.1-0.2,0-0.4c0.1-0.1,0.1-0.2,0.1-0.2c0-0.1-0.1-0.2-0.2-0.2
				c-0.1-0.1-0.2-0.2-0.2-0.3c0-0.2-0.1-0.3-0.3-0.5c-0.2-0.2-0.4-0.3-0.5-0.3c-0.1,0-0.2,0-0.2,0.1c0,0.1-0.3,0.1-0.9,0.2
				c-0.5,0.1-1.1,0.1-1.7,0.1c-0.6,0-0.9,0-1,0.1c-0.1,0-0.5,0.1-1.4,0.1c-0.9,0.1-1.8,0.2-2.7,0.3c-0.9,0.1-1.4,0.2-1.4,0.2
				c0,0,0,0.1,0,0.2c0,0.1,0,0.2,0.1,0.3c0.1,0.2,0.1,0.3,0.2,0.4c0.1,0,0.3,0.1,0.6,0.1c0.5,0,0.9,0.1,1,0.3
				c0.1,0.2,0.2,0.7,0.2,1.6c0,0.9-0.1,1.4-0.2,1.5c-0.1,0.1-0.1,0.2,0,0.4c0.1,0.3,0.2,0.5,0,0.7c-0.1,0.2-0.2,0.3-0.3,0.3
				c-0.1,0,0,0.1,0.1,0.2c0.1,0.1,0.1,0.3,0.1,0.6c0,0.1,0,0.4-0.1,0.8c-0.1,1.4-0.2,2.3-0.2,2.6c-0.1,0.4-0.1,0.5-0.3,0.6
				c-0.2,0.1-0.5,0.3-0.8,0.6l-0.5,0.6h5v-0.5c0-0.2,0-0.4-0.1-0.4c0-0.1-0.1-0.1-0.3-0.1c-0.2,0-0.4,0-0.4-0.1
				c0-0.1-0.1-0.1-0.2-0.1s-0.2-0.1-0.3-0.3c0-0.1,0-0.4,0-1.2c0-1.2,0-2.1,0.1-2.8c0-0.1,0.5-0.1,1.4-0.1c0.8,0,1.3,0.1,1.5,0.2
				c0.3,0.1,0.4,0.4,0.4,0.9c0,0.3,0,0.5,0.1,0.5c0.1,0,0.1-0.1,0.3-0.2c0.1-0.1,0.3-0.2,0.5-0.1c0.2,0.1,0.3,0,0.3-0.2
				c0-0.2,0-0.3,0.1-0.4c0.1-0.1,0.1-0.2,0-0.2c-0.1-0.1-0.2-0.3-0.2-0.6c0-0.4,0.1-0.7,0.2-0.8c0.1-0.1,0.1-0.1,0.1-0.2
				c0-0.1,0-0.1-0.1-0.2c-0.1-0.1-0.1-0.2-0.1-0.2c0-0.1,0-0.1,0.1-0.2c0.2-0.1,0.2-0.2,0.2-0.4c0-0.3-0.4-0.4-1.1-0.4
				c-0.4,0-0.6,0.2-0.6,0.5c0,0.1,0,0.2,0.1,0.3c0.1,0.2,0,0.4,0,0.5c-0.1,0.1-0.4,0.2-1,0.3c-0.6,0.1-1.1,0.2-1.6,0.2h-0.5V786
				c0-0.4,0.1-0.6,0.2-0.7c0.1-0.1,0.2-0.2,0.2-0.4c0-0.3-0.1-0.5-0.2-0.8c-0.1-0.2-0.2-0.4-0.2-0.4s0.1-0.1,0.2-0.3
				c0.2-0.2,0.3-0.4,0.2-0.6c0-0.1,0-0.1,0-0.2c0-0.1,0.1-0.2,0.4-0.3c0.3-0.1,0.8-0.1,1.6-0.1c0.7,0,1.1-0.1,1.1-0.1
				c0.3,0,0.5,0.1,0.7,0.2c0.2,0.2,0.3,0.3,0.5,0.4c0.2,0.1,0.3,0.2,0.3,0.3c0,0.1,0.1,0.3,0.3,0.4c0.2,0.1,0.4,0.3,0.5,0.6
				c0.1,0.4,0.4,0.5,0.8,0.5c0.1,0,0.2,0,0.3-0.1c0.1-0.1,0.2-0.2,0.2-0.6c0-0.3-0.1-0.5-0.2-0.5
				C262.1,783.2,262.1,783.1,262.1,782.7z"/>
			<path d="M297.7,781.2c-0.1,0-0.3,0-0.5,0c-0.2,0-0.4,0-0.4,0c-0.4,0-0.6,0-0.7,0.1c-0.1,0-0.3,0.1-0.4,0.3
				c-0.2,0.2-0.3,0.3-0.3,0.4c0,0.1,0,0.1,0.2,0.2c0.3,0.2,0.5,0.2,0.7,0.2c0.3,0,0.4,0.1,0.5,0.3c0.1,0.2,0,0.3-0.1,0.4
				c-0.1,0-0.2,0.2-0.2,0.6s-0.1,0.6-0.2,0.6c-0.2,0.1-0.2,0.2-0.2,0.4v0.4c0,0.6-0.1,0.9-0.3,0.9c-0.1,0-0.2,0.1-0.3,0.3
				c0,0.2-0.1,0.7-0.3,1.5c-0.1,0.4-0.2,0.6-0.4,0.6c-0.1,0-0.2,0.1-0.2,0.2c0,0.1,0,0.2-0.2,0.2c-0.3,0-0.4-0.1-0.5-0.2
				c-0.1-0.2-0.2-0.5-0.3-0.9c-0.1-0.4-0.2-1-0.2-1.7c-0.1-0.5-0.2-0.8-0.3-0.9c-0.1-0.1-0.1-0.4-0.1-0.7c0-0.3,0-0.5-0.1-0.5
				c-0.1,0-0.1-0.1-0.1-0.4c0-0.2-0.1-0.4-0.2-0.5c-0.1-0.1-0.2-0.1-0.2-0.2c0-0.1,0.2-0.2,0.6-0.2c0.4,0,0.7-0.1,0.9-0.3
				c0.1-0.1,0.2-0.2,0.2-0.3c0-0.1,0-0.2-0.1-0.4c-0.1-0.2-0.3-0.4-0.6-0.5c-0.3-0.1-0.8-0.1-1.6-0.1c-0.6,0-1-0.1-1-0.3
				c-0.1-0.2-0.1-0.3-0.2-0.3c-0.1,0-0.2,0.1-0.5,0.3c-0.3,0.2-0.4,0.3-0.5,0.3c-0.3,0-0.5,0.2-0.6,0.6v0.1l0,0.1
				c0,0.3,0.3,0.6,0.9,0.7c0.1,0,0.3,0.1,0.4,0.1c0.1,0.1,0.1,0.2,0.1,0.2s-0.1,0.1-0.2,0.1c-0.1,0-0.1,0.2-0.1,0.6
				s-0.1,0.6-0.2,0.6c-0.1,0-0.1,0.2-0.1,0.5c0,0.7-0.2,1.1-0.5,1.2c-0.1,0-0.2,0.1-0.3,0.3c-0.1,0.2-0.1,0.7-0.3,1.5
				c-0.1,0.4-0.2,0.6-0.4,0.6c-0.2,0-0.2,0.1-0.2,0.2c0,0.1,0,0.2-0.2,0.2c-0.3,0-0.5-0.1-0.6-0.2c-0.1-0.2-0.2-0.5-0.2-0.9
				c0-0.6-0.1-0.9-0.2-1c-0.1-0.1-0.1-0.3-0.1-0.6c0-0.4-0.1-0.7-0.2-0.9c-0.1-0.3-0.2-0.5-0.1-0.8c0-0.3,0-0.5-0.1-0.5
				c-0.1,0-0.2-0.1-0.2-0.4c0-0.2-0.1-0.4-0.2-0.5c-0.1-0.1-0.2-0.1-0.2-0.2c0-0.1,0.2-0.2,0.6-0.2c0.4,0,0.7-0.1,0.9-0.3
				c0.1-0.1,0.2-0.2,0.2-0.3c0-0.1-0.1-0.2-0.2-0.4c-0.1-0.2-0.2-0.3-0.4-0.4c-0.2-0.1-0.5-0.1-0.9-0.1c-0.1,0-0.2,0-0.4,0
				c-0.2,0-0.4,0-0.5,0h-0.4c-0.3,0-0.4,0-0.5-0.1c-0.1,0-0.1-0.1-0.2-0.3c-0.1-0.2-0.1-0.4-0.3-0.4c-0.1,0-0.2,0.1-0.5,0.3
				c-0.2,0.2-0.4,0.3-0.5,0.3c-0.1,0-0.3,0.1-0.4,0.2c-0.1,0.1-0.2,0.3-0.2,0.4c0,0.4,0.3,0.7,0.9,0.8c0.5,0.1,0.9,0.6,1,1.6
				c0.1,0.4,0.2,0.6,0.3,0.8c0.1,0.1,0.2,0.4,0.2,0.7s0.1,0.5,0.2,0.6c0.4,0.4,0.5,1.1,0.5,1.9c0,0.4,0,0.6,0.1,0.7
				c0.1,0.1,0.1,0.2,0.1,0.4c0,0.2,0,0.3,0.1,0.4c0.1,0.1,0.2,0.3,0.2,0.8c0,0.4,0.1,0.6,0.2,0.6c0.1,0,0.2,0.2,0.2,0.5
				c0,0.3,0.1,0.5,0.2,0.5c0.1,0,0.2,0.1,0.3,0.4c0.1,0.3,0.3,0.5,0.6,0.5c0.1,0,0.3-0.1,0.4-0.2c0.1-0.1,0.2-0.3,0.2-0.4
				c0-0.3,0-0.4,0.1-0.4c0.1,0,0.2-0.1,0.2-0.4c0-0.3,0-0.5,0.1-0.5c0.1,0,0.2-0.2,0.2-0.5c0-0.3,0.1-0.6,0.3-0.9
				c0.2-0.3,0.4-0.5,0.6-0.6c0.2-0.1,0.3-0.3,0.3-0.6c0-0.4,0.1-0.6,0.2-0.6c0.1,0,0.2-0.2,0.2-0.5c0-0.3,0.1-0.6,0.2-0.8
				c0.1-0.2,0.2-0.4,0.1-0.5c-0.1-0.2,0.1-0.3,0.4-0.4c0.3-0.1,0.4-0.2,0.5-0.3c0.1,0,0.1,0.1,0.1,0.4c0,0.4,0.1,0.6,0.2,0.8
				c0.4,0.4,0.6,1.1,0.6,1.9c0,0.4,0,0.6,0.1,0.6c0.1,0,0.1,0.1,0.1,0.4c-0.1,0.2,0,0.4,0.1,0.5c0.1,0.1,0.2,0.3,0.2,0.8
				c0,0.4,0.1,0.6,0.2,0.6c0.2,0,0.2,0.2,0.2,0.5c0,0.3,0.1,0.5,0.2,0.5c0.1,0,0.2,0.1,0.3,0.4c0.1,0.3,0.3,0.5,0.6,0.5
				c0.1,0,0.3-0.1,0.4-0.2c0.1-0.1,0.2-0.3,0.2-0.4c0-0.3,0.1-0.4,0.2-0.4c0.1,0,0.1-0.1,0.1-0.4c0-0.3,0-0.5,0.1-0.5
				c0.1,0,0.2-0.2,0.2-0.5c0-0.3,0.1-0.6,0.3-1c0.2-0.4,0.4-0.6,0.5-0.6c0.1,0,0.2-0.2,0.2-0.6c0-0.4,0.1-0.7,0.2-0.7
				c0.1,0,0.2-0.2,0.2-0.5c0-0.3,0.1-0.6,0.2-0.8c0.1-0.2,0.2-0.4,0.2-0.6c0-0.1,0.1-0.2,0.4-0.3c0.3-0.1,0.4-0.2,0.4-0.3
				c0-0.1,0-0.1,0-0.2c0-0.1,0-0.1,0-0.2c0-0.6,0.1-0.9,0.3-0.9c0.1,0,0.1-0.1,0.2-0.4c0-0.3,0.1-0.4,0.2-0.4c0.1,0,0.2-0.1,0.2-0.2
				c0-0.1,0.1-0.2,0.4-0.2c0.3,0,0.5-0.1,0.6-0.2c0.1-0.1,0.2-0.3,0.2-0.6l0-0.4L297.7,781.2z"/>
			<path d="M319.9,791.8c-0.1,0-0.1-0.1-0.2-0.4c-0.1-0.2-0.1-0.3-0.2-0.3c0,0-0.3,0.1-0.8,0.2c0,0-0.1,0-0.2,0
				c-0.4,0-0.7-0.6-1-1.7c-0.2-0.8-0.4-1.3-0.4-1.4c-0.1-0.1-0.2-0.3-0.2-0.5c-0.1-0.4-0.3-1.3-0.8-2.8c-0.5-1.5-0.7-2.4-0.8-2.7
				c-0.2-1-0.4-1.5-0.5-1.7c-0.1-0.2-0.2-0.3-0.4-0.3c-0.3-0.1-0.4,0-0.5,0.1c-0.1,0.1-0.2,0.2-0.4,0.2c-0.2,0-0.4,0.1-0.4,0.2
				c0,0.1-0.1,0.1-0.2,0.1c-0.1,0-0.2,0.2-0.4,0.6c-0.2,0.4-0.3,0.8-0.5,1.2c-0.1,0.4-0.2,0.6-0.3,0.7c-0.1,0.1-0.1,0.2-0.1,0.4
				c0,0.2-0.1,0.6-0.4,1.2c-0.3,0.6-0.5,1.1-0.5,1.5c-0.1,0.4-0.2,0.6-0.2,0.7c-0.1,0.1-0.2,0.3-0.4,0.8c-0.2,0.5-0.3,0.7-0.3,0.8
				c-0.1,0.2-0.2,0.4-0.2,0.5c0,0.2,0,0.2-0.1,0.2c-0.1,0-0.2,0.1-0.3,0.4c-0.1,0.2-0.2,0.4-0.2,0.6c0,0.1-0.2,0.3-0.5,0.6
				c-0.3,0.3-0.5,0.4-0.7,0.4c-0.2,0-0.3,0.1-0.5,0.4c-0.2,0.2-0.4,0.4-0.5,0.4c-0.1,0-0.2,0.1-0.4,0.4c-0.1,0.2-0.1,0.3-0.1,0.4
				c0,0.1,0.1,0.3,0.4,0.5l0.5,0.4l2-0.1c1.1,0,1.8-0.1,2.1-0.1s0.5-0.1,0.5-0.2c0,0,0-0.1-0.1-0.2c-0.1-0.2-0.1-0.3,0.1-0.3
				c0.1,0,0.2-0.1,0.2-0.2c0-0.1-0.1-0.2-0.2-0.2c-0.1,0-0.3-0.1-0.4-0.2c-0.1-0.1-0.4-0.2-0.7-0.3c-0.5-0.1-0.7-0.3-0.7-0.5
				c0-0.1,0-0.2,0.1-0.3c0.1-0.2,0.2-0.3,0.2-0.5c0-0.1,0-0.2,0.1-0.2c0.1,0,0.1-0.2,0.1-0.7v-0.7h0.6c0.4,0,0.7-0.1,0.7-0.2
				c0.1-0.2,0.6-0.2,1.5-0.2h0.4c0.7,0,1,0,1.1,0.1c0.1,0.1,0.2,0.4,0.2,0.8c0,0.5,0.1,0.8,0.3,0.9c0.2,0.2,0.3,0.4,0.3,0.6
				c0,0,0,0,0,0.1c0,0,0,0.1,0,0.1c0,0.3-0.1,0.4-0.1,0.5c-0.1,0.1-0.3,0.1-0.6,0.2c-0.5,0.1-0.7,0.2-0.8,0.3c0,0.1-0.1,0.1-0.3,0.1
				c-0.2,0-0.3,0.1-0.3,0.3c0,0.3,0,0.4,0.1,0.5c0.1,0.1,0.3,0.1,0.6,0.1c0.3,0,0.7,0,1.3-0.1c0.6-0.1,1.3-0.1,2-0.1
				c0.4,0,0.7,0,0.8,0c0.2,0,0.4,0,0.6,0c0.3,0,0.5-0.1,0.5-0.3c0.1-0.2,0.1-0.3,0.2-0.3c0.1,0,0.1-0.2,0.1-0.5
				C320.1,791.9,320,791.8,319.9,791.8z M313.8,787.3c0,0-0.1,0-0.2,0c-0.1,0-0.1,0-0.1,0c-0.3,0-0.5,0.1-0.6,0.2
				c-0.1,0.1-0.3,0.2-0.4,0.2c-0.2,0-0.3-0.1-0.4-0.2c-0.1-0.1-0.2-0.2-0.3-0.2c-0.1,0-0.2-0.1-0.2-0.2c0-0.1,0-0.2,0.1-0.2
				c0.1,0,0.2-0.1,0.3-0.4c0.1-0.3,0.2-0.5,0.2-0.7c0-0.2,0.1-0.3,0.2-0.4c0.1,0,0.2-0.3,0.2-0.8c0.1-0.6,0.3-0.9,0.6-0.9
				c0.2,0,0.3,0.1,0.5,0.2c0.1,0.1,0.2,0.2,0.4,0.5c0.1,0.3,0.2,0.4,0.2,0.5c0,0-0.1,0.1-0.3,0.1c-0.2,0-0.3,0.1-0.4,0.2
				c-0.1,0.1,0,0.2,0.1,0.2c0.1,0,0.2,0.1,0.2,0.2c0.1,0.1,0.2,0.3,0.2,0.4c0.1,0.2,0.1,0.2,0.2,0.3c0.1,0.1,0.1,0.3,0.2,0.6
				l0.1,0.5L313.8,787.3z"/>
			<path d="M340.1,780.9c-0.1,0-0.2,0-0.3,0.1c-0.2,0.1-0.3,0.1-0.3,0.1c-0.1,0-0.1-0.1-0.2-0.2c-0.1-0.2-0.3-0.3-0.4-0.3
				c-0.1,0-0.2-0.1-0.2-0.3c0-0.2-0.1-0.3-0.3-0.3c-0.2,0-0.3,0.1-0.3,0.3c0,0.2,0.1,0.3,0.2,0.3s0.2,0.1,0.2,0.3
				c0,0.2-0.1,0.3-0.2,0.3c-0.2,0-0.3-0.1-0.3-0.4c-0.1-0.2-0.2-0.4-0.3-0.4c-0.1,0-0.1,0-0.2,0.1c-0.2,0.2-0.2,0.3,0,0.3
				c0.1,0,0.2,0.1,0.2,0.1c0,0.1-0.1,0.2-0.4,0.2c-0.2,0-0.4,0-0.4-0.1c0-0.1-0.1-0.1-0.4-0.1c-0.4,0-0.8,0.1-1.1,0.2
				c-0.4,0.2-0.6,0.4-0.6,0.7c0,0.3,0.3,0.5,0.8,0.6c0.4,0.1,0.6,0.1,0.6,0.2c0,0.1,0.1,0.1,0.3,0.1c0.3,0,0.5,0.2,0.6,0.6
				c0.1,0.4,0.2,1.2,0.2,2.4c0,1.4,0.1,2.2,0.1,2.4c0.1,0.1,0,0.3,0,0.6l-0.1,0.4l-0.5-0.5c-0.4-0.3-0.5-0.5-0.5-0.6
				c0-0.1-0.1-0.2-0.2-0.3c-0.1-0.1-0.3-0.2-0.4-0.4c-0.2-0.1-0.3-0.2-0.3-0.2c-0.1-0.1-0.3-0.2-0.3-0.2c-0.1,0-0.2-0.1-0.2-0.2
				c0-0.1-0.1-0.2-0.2-0.3c-0.1-0.1-0.3-0.2-0.4-0.2s-0.1-0.1-0.1-0.2c0-0.1-0.1-0.2-0.2-0.2c-0.1,0-0.1,0-0.1-0.1
				c0-0.1-0.1-0.2-0.4-0.5c-0.2-0.3-0.4-0.4-0.4-0.5c0-0.1-0.1-0.2-0.3-0.2c-0.2,0-0.3-0.1-0.5-0.2c-0.2-0.1-0.2-0.3-0.2-0.4
				c0-0.1-0.2-0.3-0.5-0.7c-0.3-0.4-0.5-0.6-0.5-0.7c0-0.1-0.1-0.2-0.3-0.4c-0.2-0.2-0.3-0.4-0.3-0.4c0-0.3-0.6-0.5-1.8-0.6
				c-0.6,0-0.9-0.1-0.9-0.1c-0.3,0-0.4,0.1-0.4,0.2c0,0.1,0,0.2,0,0.4c0,0.2,0,0.4,0.1,0.6c0.1,0.2,0.1,0.3,0.2,0.3
				c0.1,0,0.2,0.2,0.3,0.6c0.1,0.4,0.2,0.6,0.2,0.6c0.1,0,0.1,0.3,0.1,0.8c0,0.5,0,0.8-0.1,0.8c-0.1,0-0.1,0.1-0.1,0.4
				c0,0.2,0.1,0.6,0.2,1c0.1,0.2,0.1,0.6,0.1,1.1c0,0.7-0.1,1.1-0.2,1.1c-0.1,0-0.1,0.2-0.1,0.7c0,0.5,0,1.1-0.1,1.5
				c0,0.4-0.1,0.6-0.1,0.7c-0.1,0.1-0.2,0.2-0.4,0.2c-0.3,0.1-0.4,0.2-0.4,0.4c0,0.2,0.1,0.4,0.4,0.6c0.2,0.2,0.3,0.3,0.5,0.3
				c0.2,0,0.8,0,1.7,0c1,0,1.6,0,1.8-0.1c0.2-0.1,0.3-0.3,0.3-0.8c0-0.3-0.1-0.4-0.3-0.5c-0.2-0.1-0.3-0.1-0.3-0.2
				c0-0.1-0.2-0.1-0.6-0.1c-0.4,0-0.7-0.1-0.9-0.3c-0.2-0.2-0.2-0.3-0.1-0.4c0.1-0.1,0.2-0.2,0.2-0.6c0-0.3,0-0.5-0.1-0.5
				c-0.1-0.1-0.1-0.9-0.1-2.6c0-1.7,0.1-2.5,0.2-2.5c0.1,0,0.3,0.1,0.4,0.2c0.1,0.1,0.3,0.2,0.5,0.3c0.3,0.1,0.4,0.3,0.5,0.4
				c0,0.2,0.3,0.5,0.8,1.1c0.5,0.5,0.9,0.9,1.3,1.1c0.2,0.1,0.3,0.2,0.3,0.3c0,0.1,0.2,0.2,0.5,0.6c0.7,0.7,1.1,1.1,1.1,1.4
				c0,0.1,0.1,0.1,0.3,0.1c0.2,0,0.3,0,0.3,0.1c0,0.1,0.1,0.3,0.4,0.5c0.2,0.2,0.4,0.4,0.4,0.6c0,0.1,0.1,0.3,0.3,0.5
				c0.2,0.2,0.3,0.3,0.4,0.3c0.1,0,0.3,0.2,0.6,0.5c0.3,0.3,0.5,0.5,0.7,0.6c0.1,0.1,0.2,0.1,0.3,0.1c0.4,0,0.6-0.2,0.6-0.6
				c0-0.1,0-0.2,0-0.4c0-0.9-0.1-1.4-0.2-1.6c-0.1-0.1-0.1-0.5-0.1-1.3v-0.4c0-1,0-1.6-0.1-1.6c-0.1-0.1-0.2-0.4-0.2-1
				c0-0.5,0-0.8,0.1-0.8c0.1-0.1,0.2-0.2,0.2-0.5s0-0.4,0.1-0.4c0.1,0,0.1-0.1,0.1-0.4c0-0.3,0-0.4-0.1-0.4c-0.1,0-0.1-0.1-0.1-0.4
				c0-0.4,0.1-0.7,0.2-1c0.2-0.3,0.4-0.5,0.7-0.5c0.2,0,0.4-0.1,0.4-0.1c0.1,0,0.1-0.2,0.1-0.5v-0.2
				C340.4,781.1,340.3,780.9,340.1,780.9z"/>
			<path d="M359.6,784.4c0-0.2-0.1-0.3-0.2-0.5c-0.2-0.2-0.3-0.3-0.4-0.3c-0.1,0-0.2-0.1-0.2-0.2c0-0.1-0.1-0.3-0.3-0.6
				c-0.2-0.2-0.3-0.3-0.4-0.3c-0.1,0-0.2-0.1-0.2-0.2c0-0.1-0.1-0.2-0.3-0.3c-0.2-0.1-0.3-0.1-0.3-0.2c0-0.1-0.1-0.1-0.4-0.1
				c-0.2,0-0.3-0.1-0.6-0.2c-0.2-0.1-0.4-0.2-0.5-0.2c-0.2,0-0.3,0-0.3-0.1c0-0.1-0.1-0.1-0.4-0.1c-0.2,0-0.3,0-0.4-0.1
				c-0.1-0.1-0.2-0.1-0.2-0.1c-0.1,0-0.2,0-0.4,0.1c-0.3,0.1-0.6,0.2-1,0.2c-0.2,0-0.4,0-0.4-0.1c-0.1,0-0.1-0.1-0.1-0.2
				c0-0.2-0.1-0.3-0.2-0.3c-0.1,0-0.2,0-0.3,0.2c-0.1,0.1-0.1,0.1-0.2,0c-0.2-0.3-0.3-0.2-0.4,0.1c-0.1,0.2-0.2,0.3-0.4,0.2
				c-0.2-0.1-0.5-0.2-1-0.2c-0.4,0-0.7-0.1-0.8-0.2c0-0.1-0.1-0.1-0.3,0.1c-0.2,0.1-0.3,0.1-0.3,0c-0.1-0.1-0.2-0.2-0.5-0.2
				c-0.2,0-0.4,0-0.4,0.1c0,0.1-0.1,0.1-0.3,0.1c-0.1,0-0.2,0-0.2,0.1c0,0.1-0.1,0.3-0.1,0.5c0,0.3,0,0.5,0.1,0.6
				c0,0.1,0.2,0.2,0.3,0.3c0.2,0.1,0.3,0.1,0.4,0.1c0,0,0.1,0,0.1,0c0.1,0,0.1,0,0.1,0c0.1,0,0.2,0,0.3,0.1c0.2,0.1,0.4,0.4,0.4,0.8
				c0,0.4,0,0.6-0.1,0.6c-0.1,0-0.1,0.3-0.1,0.9c0,0.6,0,0.8,0.1,0.8c0.1,0,0.1,0.1,0.1,0.4c0,0.2,0,0.4-0.1,0.5
				c-0.1,0.1-0.1,1-0.2,2.8l-0.1,2.7l-0.5,0c-0.4,0-0.6,0.2-0.8,0.4c-0.2,0.2-0.3,0.4-0.3,0.5c0,0.1,0.1,0.2,0.4,0.4
				c0.3,0.2,0.5,0.2,0.7,0.2c0.1,0,0.2,0,0.2-0.1c0-0.1,0.3-0.1,0.8-0.1c0.5,0,0.8,0,0.8,0.1c0,0.1,0.9,0.2,2.6,0.2
				c1.1,0,1.7,0,1.8-0.1c0.1-0.1,0.4-0.2,0.7-0.2c0.4-0.1,0.8-0.2,1.3-0.5c0.5-0.2,0.8-0.4,1-0.4c0.2,0,0.3-0.1,0.4-0.4
				c0.1-0.3,0.3-0.6,0.7-1.1c0.4-0.4,0.6-0.7,0.6-0.8s0-0.2,0.1-0.2c0.1,0,0.1-0.1,0.1-0.3c0-0.2,0.1-0.4,0.2-0.5
				c0.1-0.1,0.1-0.8,0.1-2c0-1.4-0.1-2.1-0.2-2.2C359.7,784.7,359.6,784.5,359.6,784.4z M357.5,788.6c-0.1,0.1-0.2,0.2-0.2,0.5
				c0,0.3-0.1,0.5-0.2,0.6c-0.3,0.3-0.5,0.6-0.6,1c-0.1,0.2-0.1,0.2-0.2,0.2c-0.1,0-0.3,0.2-0.7,0.5c-0.4,0.3-0.7,0.5-0.9,0.5
				c-0.2,0-0.3,0.1-0.4,0.2c-0.1,0.1-0.1,0.1-0.2,0c-0.1-0.1-0.1-0.2-0.3-0.2c-0.1,0-0.2,0.1-0.3,0.2c0,0.1-0.3,0.1-0.9,0.1
				c-0.6,0-1.1,0-1.6,0c-0.2,0-0.2-0.1-0.2-0.4c0-0.2-0.1-0.4-0.2-0.4s-0.2,0-0.2-0.1c0-0.1,0.1-0.1,0.2-0.2
				c0.1-0.1,0.2-0.2,0.2-0.3c0-0.1,0.1-0.2,0.2-0.2c0.1,0,0.1-0.1,0.2-0.4c0.1-0.2,0.1-0.5,0.1-0.8c0-0.1,0-0.3-0.1-0.5
				c0,0,0,0,0-0.1c0,0,0-0.1,0-0.1c0-0.2,0.1-0.4,0.2-0.6l0.2-0.4c0,0-0.1-0.1-0.2-0.1c-0.1,0-0.2-0.3-0.2-0.8c0-0.5,0-1,0-1.5
				c0-1.4,0.1-2.2,0.1-2.4c0-0.3,0.1-0.5,0.4-0.8c0.2-0.2,0.4-0.3,0.6-0.3c0.1,0,0.2,0,0.3,0c0.1,0,0.3,0,0.7,0.1
				c0.4,0,0.7,0.1,1,0.1c0.3,0.1,0.4,0.1,0.5,0.2c0.1,0.1,0.2,0.2,0.4,0.2c0.2,0,0.4,0.1,0.4,0.3c0.1,0.2,0.2,0.3,0.3,0.3
				c0.2,0,0.2,0,0.2,0.1s0.1,0.2,0.3,0.2c0.2,0.1,0.3,0.2,0.3,0.3c0,0.1,0.1,0.3,0.2,0.4c0.1,0.1,0.2,0.4,0.3,0.9
				c0,0.4,0.1,0.7,0.2,0.8c0.1,0.1,0.1,0.5,0.1,1.3S357.6,788.5,357.5,788.6z"/>
			<path d="M369.4,787.6c0-0.1,0-0.2-0.1-0.2c-0.1,0-0.1,0-0.1,0.1l0.1,0.2C369.4,787.8,369.4,787.8,369.4,787.6z"/>
			<path d="M375.3,788.4c0-0.6-0.1-0.9-0.2-1.1c-0.1-0.2-0.3-0.4-0.6-0.5c-0.3-0.1-0.5-0.3-0.5-0.4c-0.1-0.1-0.3-0.3-0.9-0.6
				c-0.5-0.3-1-0.5-1.3-0.6c-0.2-0.1-0.5-0.2-0.9-0.5c-0.4-0.3-0.6-0.4-0.6-0.5c0-0.1-0.1-0.2-0.2-0.3c-0.2-0.1-0.2-0.2-0.2-0.3
				c0,0,0-0.1,0-0.1c0.1-0.1,0.1-0.2,0.1-0.3c0-0.1,0-0.3-0.1-0.6c0-0.1,0-0.2,0-0.2c0,0,0.2-0.1,0.3-0.1c0.3,0,0.4-0.1,0.4-0.2
				c0-0.1,0.1-0.2,0.4-0.4c0.3-0.2,0.4-0.3,0.4-0.3c0-0.1,0.1-0.1,0.4-0.2c0.1,0,0.1,0,0.2,0c0.4,0,0.8,0.2,1.2,0.5s0.7,0.6,0.7,0.9
				c0,0.2,0.1,0.4,0.3,0.5c0.2,0.1,0.3,0.3,0.3,0.4s0.1,0.3,0.2,0.5s0.3,0.3,0.4,0.3c0,0,0,0,0.1,0c0.1-0.1,0.1-0.7,0.2-2v-0.8
				c0-0.6-0.1-0.9-0.2-0.9c-0.1,0-0.1,0-0.1,0c-0.3,0.1-0.6,0.2-0.8,0.2c-0.3,0-0.6-0.1-1-0.3c-0.4-0.2-0.6-0.3-0.7-0.3
				c0,0-0.1,0-0.2,0.1c-0.3,0.1-0.6,0.1-0.8,0.1c-0.3,0-0.4,0-0.5,0.1c0,0.1-0.1,0.2-0.3,0.2c-0.2,0-0.4-0.1-0.5-0.2
				c-0.1-0.1-0.3-0.2-0.5-0.2h0c-0.1,0-0.1,0-0.1,0c-0.1,0-0.1,0-0.1,0c0,0,0.1,0,0.1,0c0.1,0.1,0.2,0.1,0.2,0.2
				c0,0.2-0.2,0.3-0.5,0.4c-0.3,0.1-0.4,0.2-0.4,0.4c0.1,0.2,0,0.3-0.2,0.4c-0.3,0.1-0.6,0.5-1.1,1.1c-0.1,0.2-0.2,0.4-0.2,0.6
				c0,0,0,0.3,0.1,0.8c0.1,0.7,0.3,1.1,0.4,1.3c0.1,0.2,0.4,0.4,0.7,0.7c0.4,0.3,0.6,0.4,0.8,0.4c0.1,0,0.3,0.1,0.6,0.4
				c0.4,0.3,0.9,0.6,1.7,0.8c0.5,0.1,0.8,0.3,1.1,0.6c0.2,0.2,0.3,0.4,0.5,0.7c0.1,0.3,0.2,0.5,0.2,0.7c0,0.1,0,0.1-0.1,0.2
				c-0.1,0-0.1,0.2-0.1,0.4c0.1,0.2,0,0.4-0.2,0.6c-0.1,0.1-0.2,0.3-0.2,0.4c0,0.2-0.5,0.4-1.4,0.5c-0.1,0-0.3,0-0.6,0
				c-0.9,0-1.7-0.4-2.2-1.2c-0.3-0.4-0.5-0.8-0.5-1c0,0,0-0.1,0-0.2c0-0.1,0-0.2,0-0.2c0,0-0.1-0.1-0.1-0.1c-0.1,0-0.1,0-0.1-0.1
				c0.1-0.3-0.1-0.5-0.4-0.6c-0.1,0-0.2-0.1-0.3-0.1c-0.3,0-0.4,0.2-0.5,0.5c-0.1,1.2-0.1,1.9-0.2,1.9c-0.1,0.1-0.1,0.4-0.2,0.8
				c0,0.1,0,0.3,0,0.4c0,0.2,0.1,0.4,0.3,0.6c0.1,0.1,0.2,0.2,0.3,0.2c0,0,0.1,0,0.2-0.2c0.1-0.2,0.2-0.3,0.2-0.4
				c0-0.3,0.2-0.3,0.5-0.1c0.9,0.5,1.8,0.7,2.9,0.7c0.5,0,1.1-0.1,1.6-0.2c0.6-0.1,1.1-0.3,1.4-0.6c0.3-0.3,0.5-0.5,0.5-0.5
				c0-0.1,0.1-0.2,0.2-0.3c0.2-0.1,0.3-0.4,0.3-0.9c0.1-0.5,0.1-0.7,0.2-0.7c0.1,0,0.1,0,0-0.1C375.4,789.4,375.3,789,375.3,788.4z
				 M370.9,786.8C370.9,786.8,370.8,786.8,370.9,786.8c-0.1-0.1-0.1-0.1,0-0.1S371,786.7,370.9,786.8
				C371,786.8,371,786.8,370.9,786.8z"/>
			<polygon points="51.7,807.6 44,812.8 41.2,798.8 38.5,812.8 30.7,807.6 35.9,815.4 21.9,818.1 35.9,820.9 30.7,828.6 38.5,823.4 
				41.2,837.5 44,823.5 51.7,828.6 46.5,820.9 60.6,818.1 46.5,815.4 			"/>
			<polygon points="468.1,815.4 473.3,807.6 465.5,812.8 462.8,798.8 460,812.8 452.3,807.6 457.5,815.4 443.4,818.1 457.5,820.9 
				452.3,828.6 460,823.4 462.8,837.5 465.5,823.5 473.3,828.6 468.1,820.9 482.1,818.1 			"/>
			<polygon points="30.7,56.4 38.5,51.2 41.2,65.2 44,51.2 51.7,56.4 46.5,48.6 60.6,45.9 46.5,43.1 51.7,35.4 44,40.5 41.2,26.5 
				38.5,40.6 30.7,35.4 35.9,43.1 21.9,45.9 35.9,48.6 			"/>
			<polygon points="473.3,35.4 465.5,40.5 462.8,26.5 460,40.6 452.3,35.4 457.5,43.1 443.4,45.9 457.5,48.6 452.3,56.4 460,51.2 
				462.8,65.2 465.5,51.2 473.3,56.4 468.1,48.6 482.1,45.9 468.1,43.1 			"/>
			<polygon points="258.1,185.9 264.5,175.7 254.3,182.1 251.7,165.1 249,182.1 238.8,175.7 245.2,185.9 228.3,188.5 245.2,191.2 
				238.8,201.4 249,194.9 251.7,211.9 254.3,194.9 264.5,201.4 258.1,191.2 275.1,188.5 			"/>
			<path d="M139.7,257.8c0.9,0.4,1.8,0.8,2.7,1.2c0.5,0.2,1.1,0.5,1.6,0.7c0.1,0.1,0.2,0.1,0.2,0.1c0,0,0,0,0,0.1
				c1,1.7,1.2,4.2,1.8,6.1c0.1,0.4,0.7,0.4,0.8,0c0.6-1.9,0.9-4.4,1.8-6.1c0,0,0,0,0-0.1c0,0,0.1,0,0.1-0.1c0.5-0.3,1.2-0.5,1.7-0.8
				c0.9-0.4,1.8-0.8,2.7-1.2c0.4-0.2,0.2-0.6-0.1-0.7c-0.9-0.4-1.8-0.8-2.7-1.1c-1.1-0.5-1.7-0.5-2-1.5c-0.6-1.9-1.1-3.9-1.6-5.9
				c0,0,0,0,0-0.1c0,0,0,0,0-0.1c-0.1-0.1-0.2-0.2-0.3-0.2c-0.1,0-0.3,0-0.3,0.2c0,0,0,0.1,0,0.1c0,0,0,0,0,0c0,0,0,0,0,0
				c0,0,0,0,0,0c-0.5,1.9-0.9,3.9-1.5,5.9c-0.5,1.5-3.3,2.1-4.7,2.7C139.5,257.2,139.3,257.6,139.7,257.8z M145.1,255.3
				c0.6-1,0.7-2.7,1-3.7c0.1-0.5,0.3-0.9,0.4-1.4c0.1,0.5,0.3,0.9,0.4,1.4c0.3,1.1,0.4,2.7,1,3.7c0.6,1.1,2.7,1.7,4.2,2.2
				c-0.7,0.3-1.5,0.7-2.2,1c-0.6,0.3-1.5,0.5-1.9,1c-0.6,0.8-0.7,2.4-1,3.4c-0.2,0.6-0.3,1.1-0.5,1.7c-0.2-0.6-0.3-1.1-0.5-1.7
				c-0.3-0.9-0.4-2.6-1-3.4c-0.4-0.6-1.2-0.7-1.9-1c-0.7-0.3-1.5-0.7-2.2-1C142.5,257,144.5,256.4,145.1,255.3z"/>
			<path d="M139.7,302.5c0.9,0.4,1.8,0.8,2.7,1.2c0.5,0.2,1.1,0.5,1.6,0.7c0.1,0.1,0.2,0.1,0.2,0.1c0,0,0,0,0,0.1
				c1,1.7,1.2,4.2,1.8,6.1c0.1,0.4,0.7,0.4,0.8,0c0.6-1.9,0.9-4.4,1.8-6.1c0,0,0,0,0-0.1c0,0,0.1,0,0.1-0.1c0.5-0.3,1.2-0.5,1.7-0.8
				c0.9-0.4,1.8-0.8,2.7-1.2c0.4-0.2,0.2-0.6-0.1-0.7c-0.9-0.4-1.8-0.8-2.7-1.1c-1.1-0.5-1.7-0.5-2-1.5c-0.6-1.9-1.1-3.9-1.6-5.9
				c0,0,0,0,0-0.1c0,0,0,0,0-0.1c-0.1-0.1-0.2-0.2-0.3-0.2c-0.1,0-0.3,0-0.3,0.2c0,0,0,0.1,0,0.1c0,0,0,0,0,0c0,0,0,0,0,0
				c0,0,0,0,0,0c-0.5,1.9-0.9,3.9-1.5,5.9c-0.5,1.5-3.3,2.1-4.7,2.7C139.5,301.9,139.3,302.3,139.7,302.5z M145.1,300
				c0.6-1,0.7-2.7,1-3.7c0.1-0.5,0.3-0.9,0.4-1.4c0.1,0.5,0.3,0.9,0.4,1.4c0.3,1.1,0.4,2.7,1,3.7c0.6,1.1,2.7,1.7,4.2,2.2
				c-0.7,0.3-1.5,0.7-2.2,1c-0.6,0.3-1.5,0.5-1.9,1c-0.6,0.8-0.7,2.4-1,3.4c-0.2,0.6-0.3,1.1-0.5,1.7c-0.2-0.6-0.3-1.1-0.5-1.7
				c-0.3-0.9-0.4-2.6-1-3.4c-0.4-0.6-1.2-0.7-1.9-1c-0.7-0.3-1.5-0.7-2.2-1C142.5,301.7,144.5,301.1,145.1,300z"/>
			<path d="M350,257.8c0.9,0.4,1.8,0.8,2.7,1.2c0.5,0.2,1.1,0.5,1.6,0.7c0.1,0.1,0.2,0.1,0.2,0.1c0,0,0,0,0,0.1
				c1,1.7,1.2,4.2,1.8,6.1c0.1,0.4,0.7,0.4,0.8,0c0.6-1.9,0.9-4.4,1.8-6.1c0,0,0,0,0-0.1c0,0,0.1,0,0.1-0.1c0.5-0.3,1.2-0.5,1.7-0.8
				c0.9-0.4,1.8-0.8,2.7-1.2c0.4-0.2,0.2-0.6-0.1-0.7c-0.9-0.4-1.8-0.8-2.7-1.1c-1.1-0.5-1.7-0.5-2-1.5c-0.6-1.9-1.1-3.9-1.6-5.9
				c0,0,0,0,0-0.1c0,0,0,0,0-0.1c-0.1-0.1-0.2-0.2-0.3-0.2c-0.1,0-0.3,0-0.3,0.2c0,0,0,0.1,0,0.1c0,0,0,0,0,0c0,0,0,0,0,0
				c0,0,0,0,0,0c-0.5,1.9-0.9,3.9-1.5,5.9c-0.5,1.5-3.3,2.1-4.7,2.7C349.8,257.2,349.6,257.6,350,257.8z M355.4,255.3
				c0.6-1,0.7-2.7,1-3.7c0.1-0.5,0.3-0.9,0.4-1.4c0.1,0.5,0.3,0.9,0.4,1.4c0.3,1.1,0.4,2.7,1,3.7c0.6,1.1,2.7,1.7,4.2,2.2
				c-0.7,0.3-1.5,0.7-2.2,1c-0.6,0.3-1.5,0.5-1.9,1c-0.6,0.8-0.7,2.4-1,3.4c-0.2,0.6-0.3,1.1-0.5,1.7c-0.2-0.6-0.3-1.1-0.5-1.7
				c-0.3-0.9-0.4-2.6-1-3.4c-0.4-0.6-1.2-0.7-1.9-1c-0.7-0.3-1.5-0.7-2.2-1C352.7,257,354.7,256.4,355.4,255.3z"/>
			<path d="M350,302.5c0.9,0.4,1.8,0.8,2.7,1.2c0.5,0.2,1.1,0.5,1.6,0.7c0.1,0.1,0.2,0.1,0.2,0.1c0,0,0,0,0,0.1
				c1,1.7,1.2,4.2,1.8,6.1c0.1,0.4,0.7,0.4,0.8,0c0.6-1.9,0.9-4.4,1.8-6.1c0,0,0,0,0-0.1c0,0,0.1,0,0.1-0.1c0.5-0.3,1.2-0.5,1.7-0.8
				c0.9-0.4,1.8-0.8,2.7-1.2c0.4-0.2,0.2-0.6-0.1-0.7c-0.9-0.4-1.8-0.8-2.7-1.1c-1.1-0.5-1.7-0.5-2-1.5c-0.6-1.9-1.1-3.9-1.6-5.9
				c0,0,0,0,0-0.1c0,0,0,0,0-0.1c-0.1-0.1-0.2-0.2-0.3-0.2c-0.1,0-0.3,0-0.3,0.2c0,0,0,0.1,0,0.1c0,0,0,0,0,0c0,0,0,0,0,0
				c0,0,0,0,0,0c-0.5,1.9-0.9,3.9-1.5,5.9c-0.5,1.5-3.3,2.1-4.7,2.7C349.8,301.9,349.6,302.3,350,302.5z M355.4,300
				c0.6-1,0.7-2.7,1-3.7c0.1-0.5,0.3-0.9,0.4-1.4c0.1,0.5,0.3,0.9,0.4,1.4c0.3,1.1,0.4,2.7,1,3.7c0.6,1.1,2.7,1.7,4.2,2.2
				c-0.7,0.3-1.5,0.7-2.2,1c-0.6,0.3-1.5,0.5-1.9,1c-0.6,0.8-0.7,2.4-1,3.4c-0.2,0.6-0.3,1.1-0.5,1.7c-0.2-0.6-0.3-1.1-0.5-1.7
				c-0.3-0.9-0.4-2.6-1-3.4c-0.4-0.6-1.2-0.7-1.9-1c-0.7-0.3-1.5-0.7-2.2-1C352.7,301.7,354.7,301.1,355.4,300z"/>
			<path d="M216,559.3c-0.9-0.4-1.8-0.8-2.7-1.1c-1.1-0.5-1.7-0.5-2-1.5c-0.6-1.9-1.1-3.9-1.6-5.9c0,0,0,0,0-0.1c0,0,0,0,0-0.1
				c-0.1-0.1-0.2-0.2-0.3-0.2c-0.1,0-0.3,0-0.3,0.2c0,0,0,0.1,0,0.1c0,0,0,0,0,0c0,0,0,0,0,0c0,0,0,0,0,0c-0.5,1.9-1,3.9-1.5,5.9
				c-0.5,1.5-3.3,2.1-4.7,2.7c-0.3,0.1-0.5,0.6-0.1,0.7c0.9,0.4,1.8,0.8,2.7,1.2c0.5,0.2,1.1,0.5,1.6,0.7c0.1,0.1,0.2,0.1,0.2,0.1
				c0,0,0,0,0,0.1c1,1.7,1.2,4.2,1.8,6.1c0.1,0.4,0.7,0.4,0.8,0c0.6-1.9,0.9-4.4,1.8-6.1c0,0,0,0,0-0.1c0,0,0.1,0,0.1-0.1
				c0.5-0.3,1.2-0.5,1.7-0.8c0.9-0.4,1.8-0.8,2.7-1.2C216.5,559.9,216.3,559.4,216,559.3z M212.6,560.7c-0.6,0.3-1.5,0.5-1.9,1
				c-0.6,0.8-0.7,2.4-1,3.4c-0.2,0.6-0.3,1.1-0.5,1.7c-0.2-0.6-0.3-1.1-0.5-1.7c-0.3-0.9-0.4-2.6-1-3.4c-0.4-0.6-1.2-0.7-1.9-1
				c-0.7-0.3-1.5-0.7-2.2-1c1.5-0.5,3.5-1.1,4.2-2.2c0.6-1,0.7-2.7,1-3.7c0.1-0.5,0.2-0.9,0.4-1.4c0.1,0.5,0.3,0.9,0.4,1.4
				c0.3,1.1,0.4,2.7,1,3.7c0.6,1.1,2.7,1.7,4.2,2.2C214.1,560,213.4,560.4,212.6,560.7z"/>
			<path d="M300.8,559.3c-0.9-0.4-1.8-0.8-2.7-1.1c-1.1-0.5-1.7-0.5-2-1.5c-0.6-1.9-1.1-3.9-1.6-5.9c0,0,0,0,0-0.1c0,0,0,0,0-0.1
				c-0.1-0.1-0.2-0.2-0.3-0.2c-0.1,0-0.3,0-0.3,0.2c0,0,0,0.1,0,0.1c0,0,0,0,0,0c0,0,0,0,0,0c0,0,0,0,0,0c-0.5,1.9-1,3.9-1.5,5.9
				c-0.5,1.5-3.3,2.1-4.7,2.7c-0.3,0.1-0.5,0.6-0.1,0.7c0.9,0.4,1.8,0.8,2.7,1.2c0.5,0.2,1.1,0.5,1.6,0.7c0.1,0.1,0.2,0.1,0.2,0.1
				c0,0,0,0,0,0.1c1,1.7,1.2,4.2,1.8,6.1c0.1,0.4,0.7,0.4,0.8,0c0.6-1.9,0.9-4.4,1.8-6.1c0,0,0,0,0-0.1c0,0,0.1,0,0.1-0.1
				c0.5-0.3,1.2-0.5,1.7-0.8c0.9-0.4,1.8-0.8,2.7-1.2C301.2,559.9,301.1,559.4,300.8,559.3z M297.4,560.7c-0.6,0.3-1.5,0.5-1.9,1
				c-0.6,0.8-0.7,2.4-1,3.4c-0.2,0.6-0.3,1.1-0.5,1.7c-0.2-0.6-0.3-1.1-0.5-1.7c-0.3-0.9-0.4-2.6-1-3.4c-0.4-0.6-1.2-0.7-1.9-1
				c-0.7-0.3-1.5-0.7-2.2-1c1.5-0.5,3.5-1.1,4.2-2.2c0.6-1,0.7-2.7,1-3.7c0.1-0.5,0.2-0.9,0.4-1.4c0.1,0.5,0.3,0.9,0.4,1.4
				c0.3,1.1,0.4,2.7,1,3.7c0.6,1.1,2.7,1.7,4.2,2.2C298.9,560,298.1,560.4,297.4,560.7z"/>
			<path d="M247.6,303.7c0.5,0.2,1.1,0.5,1.6,0.7c0.1,0.1,0.2,0.1,0.2,0.1c0,0,0,0,0,0.1c1,1.7,1.2,4.2,1.8,6.1
				c0.1,0.4,0.7,0.4,0.8,0c0.6-1.9,0.9-4.4,1.8-6.1c0,0,0,0,0-0.1c0,0,0.1,0,0.1-0.1c0.5-0.3,1.2-0.5,1.7-0.8
				c0.9-0.4,1.8-0.8,2.7-1.2c0.4-0.2,0.2-0.6-0.1-0.7c-0.9-0.4-1.8-0.8-2.7-1.1c-1.1-0.5-1.7-0.5-2-1.5c-0.6-1.9-1.1-3.9-1.6-5.9
				c0,0,0,0,0-0.1c0,0,0,0,0-0.1c-0.1-0.1-0.2-0.2-0.3-0.2c-0.1,0-0.3,0-0.3,0.2c0,0,0,0.1,0,0.1c0,0,0,0,0,0c0,0,0,0,0,0
				c0,0,0,0,0,0c-0.5,1.9-1,3.9-1.5,5.9c-0.5,1.5-3.3,2.1-4.7,2.7c-0.3,0.1-0.5,0.6-0.1,0.7C245.7,302.9,246.6,303.3,247.6,303.7z
				 M250.3,300c0.6-1,0.7-2.7,1-3.7c0.1-0.5,0.2-0.9,0.4-1.4c0.1,0.5,0.3,0.9,0.4,1.4c0.3,1.1,0.4,2.7,1,3.7
				c0.6,1.1,2.7,1.7,4.2,2.2c-0.7,0.3-1.5,0.7-2.2,1c-0.6,0.3-1.5,0.5-1.9,1c-0.6,0.8-0.7,2.4-1,3.4c-0.2,0.6-0.3,1.1-0.5,1.7
				c-0.2-0.6-0.3-1.1-0.5-1.7c-0.3-0.9-0.4-2.6-1-3.4c-0.4-0.6-1.2-0.7-1.9-1c-0.7-0.3-1.5-0.7-2.2-1
				C247.6,301.7,249.6,301.1,250.3,300z"/>
			<path d="M110.6,223.8c0-1.1-0.1-2.1-0.4-3.1c-1.4,4.8-5.8,8.2-11,8.2c-5.2,0-9.6-3.6-10.9-8.4c-0.3,1-0.4,2-0.5,3.1
				c0,5.2,3.3,9.5,8,11c-4.2,2.1-5.4,8.1-2.1,11.9c-1.8,1.2-2,4.7-2.1,6.5c0,0,0,0,0,0c-0.1,0.1-0.2,0.1-0.3,0.2
				c-1.7,1-2.5,1.8-2.2,4.1c0.2,1.4,1.9,1.7,3.4,1.7c-0.1,24.8-0.6,49.6-0.7,74.4c-0.2,0-0.4,0-0.6,0c-0.1,0-0.2,0-0.2,0.1
				c-0.2,0.1-0.3,0.2-0.3,0.4c0.1,1.5,0.3,3.9,1.5,5.2c-0.1,0.1-0.2,0.2-0.2,0.4c-0.1,11.1-0.4,22.2-0.5,33.2c0,0,0,0,0,0.1
				c-0.8,1.2-1,2.8-1.1,4.1c0,0.3,0.2,0.5,0.5,0.5c0.3,0,0.5,0,0.8,0c-0.1,26.6,0,53.2-0.1,79.9c-0.1,0-0.2,0-0.3,0
				c-0.1,0-0.2,0.1-0.3,0.1c0,0,0,0,0,0c0,0,0,0,0,0c-0.1,0.1-0.1,0.2-0.1,0.3c0,2.7,0,5.5,0,8.2c-0.6,0-1.2,0-1.8,0
				c-0.1,0-0.2,0.1-0.3,0.1c0,0,0,0,0,0c0,0,0,0,0,0c-0.1,0.1-0.1,0.2-0.1,0.3c0,1.9,0,3.9,0,5.8c0,0.3,0.2,0.5,0.5,0.5
				c0.3,0,0.6,0,0.9,0c0.1,2.1,0.4,6.1,2.9,6.7c0.5,0.1,1.1,0.2,1.8,0.2c-1.5,2.5,0,5.9,3.2,6c3.2,0,4.7-3.4,3.3-5.9
				c0.7,0,1.3,0,1.9-0.2c2.3-0.7,2.7-4.6,2.8-6.6c0.3,0,0.6,0,0.9,0c0.3,0,0.5-0.2,0.5-0.5c0-1.9,0-3.9,0-5.8c0-0.3-0.2-0.5-0.5-0.5
				c-0.6,0-1.2,0-1.8,0c0-2.7,0-5.5,0-8.2c0-0.3-0.2-0.5-0.5-0.5c-0.1,0-0.3,0-0.4,0c0.2-26.6,0.6-53.2,0.7-79.9c0.3,0,0.6,0,0.9,0
				c0.1,0,0.2,0,0.2-0.1c0.2-0.1,0.3-0.2,0.3-0.5c-0.1-1.3-0.3-3-1.1-4.2c0.1-11.1-0.1-22.2-0.1-33.2c0-0.1-0.1-0.2-0.1-0.3
				c1.2-1.3,1.5-3.7,1.6-5.2c0-0.3-0.2-0.5-0.5-0.5c-0.2,0-0.4,0-0.6,0c0.1-24.7,0-49.4,0.1-74.1c0-0.1,0-0.2-0.1-0.3
				c0.3,0,0.7,0,1,0c0.6,0,1.7,0.1,2.2-0.3c0.7-0.6,0.5-3.1,0.2-3.9c-0.3-0.8-1.3-1.4-2.2-1.8c-0.1-1.8-0.2-5.3-2-6.5
				c3.3-3.8,2.1-9.8-2-12C107.2,233.2,110.6,228.9,110.6,223.8z M97.9,484.6c-2.6,0-3.6-3.1-1.9-4.9c0,0,0,0,0,0
				c0.7,0,1.3-0.1,1.9-0.1c0.6,0,1.3,0.1,2,0.1c0,0,0,0.1,0.1,0.1C101.5,481.6,100.5,484.6,97.9,484.6z M102.1,478.5
				c-1.3,0.1-2.8,0-4.1,0c-1.4,0-2.9,0.2-4.3,0c-2.3-0.3-2.5-3.8-2.6-5.7c4.6,0,9.2,0,13.8,0.1C104.7,474.8,104.4,478.3,102.1,478.5
				z M106.3,467.1c0,0.8,0,1.6,0,2.4l-16.6-0.1c0-0.8,0-1.6,0-2.4C95.2,467,100.7,467,106.3,467.1z M103.2,448.2c0,2.3,0,4.6,0,6.9
				l-10.3-0.1c0-2.3,0-4.5,0-6.8C95.3,451.1,100.8,451,103.2,448.2z M92.9,446.1c0.1-22.2,0-44.3,0.1-66.5l10.9,0.1
				c-0.1,22.1-0.4,44.3-0.6,66.4C101.9,450.3,94.1,450.5,92.9,446.1z M104,458.3c0,2.5,0,4.9,0,7.4c-4,0-8,0-12-0.1
				c0-2.5,0-4.9,0-7.4C96,458.3,100,458.3,104,458.3z M105.2,376.4c-4.5,0-9,0-13.4-0.1c0.2-1.9,0.8-3.9,2.9-4c1.3,0,2.6,0,3.8,0
				c1.3,0,2.6-0.1,4,0C104.5,372.5,105,374.6,105.2,376.4z M92.8,371.7c0.1-10.7,0.4-21.3,0.5-32c0.2,0.1,0.4,0.2,0.7,0.2
				c1.5,0.3,3.2,0,4.7,0c1.5,0,3.4,0.3,4.9,0c0.1,0,0.3-0.1,0.4-0.1c0,10.6,0.2,21.3,0.1,31.9c-0.3-0.2-0.6-0.3-1-0.3
				c-1.5-0.2-3.2,0-4.7,0c-1.5,0-3.3-0.3-4.7,0C93.4,371.4,93.1,371.5,92.8,371.7z M105.4,334.5c-0.2,1.9-0.6,4.4-2.8,4.5
				c-1.3,0.1-2.6,0-4,0c-1.3,0-2.7,0.1-4,0c-2.2-0.1-2.6-2.6-2.7-4.5C96.4,334.4,100.9,334.5,105.4,334.5z M104.4,270.3
				c0,20.3,0.1,40.7-0.1,61L93,331.2c0.1-20.3,0.4-40.6,0.6-60.9c0,0,0,0,0,0C94.9,265.4,103.2,265.2,104.4,270.3z M93.6,268
				c0-2.2,0-4.4,0-6.7l10.7,0.1c0,2.2,0,4.4,0,6.5C101.9,264.7,96.2,264.8,93.6,268z M106.9,254.5c0.3,0.2,0.6,0.3,0.8,0.6
				c0,0,0,0,0,0c0,0,0,0,0,0.1c0.1,0.4,0.3,2.2,0.1,2.7c0-0.1-0.3,0-0.7,0.1c-0.6,0-1.2,0.1-1.8,0.1c-1.7,0-3.4,0.1-5,0
				c-1.8,0-3.6,0-5.5-0.1c-1.1,0-3.1,0.2-4.1-0.3c-0.7-0.3-0.6-1-0.4-1.8c0.2-0.9,0.3-0.9,1.2-1.5c2.3-1.4,4.9-2.7,7.6-2.8
				C101.9,251.6,104.6,253,106.9,254.5z M105.5,252.5c-2-1.1-4.1-1.9-6.4-2c-2.3,0.1-4.4,0.9-6.4,1.9c0.1-1.9,0.4-5,2.5-5.3
				c1.3-0.2,2.6,0,3.9,0c1.3,0,2.7-0.2,3.9,0C105.1,247.5,105.4,250.6,105.5,252.5z M103.7,246c0,0.1-0.1,0.1-0.1,0.2
				c-1.3-0.3-3.1,0-4.4,0c-1.3,0-3-0.3-4.4-0.1c0,0,0,0,0,0c-3.5-3.7-1.8-10.1,3.1-11.1c0.4,0.1,0.9,0.1,1.3,0.1c0.5,0,1,0,1.4-0.1
				C105.4,236,107,242.3,103.7,246z"/>
			<path d="M97.8,278.3c0.5,0.5,0.9,2.9,1.2,2.9c0.3,0,0.6-2.3,1.1-2.9c0.6-0.6,2.1-0.7,2.1-1.1s-1.5-0.5-2.1-1
				c-0.6-0.6-0.9-2.9-1.2-2.9c-0.3,0-0.7,2.4-1.1,2.9s-2.1,0.8-2.1,1.1C95.7,277.5,97.3,277.8,97.8,278.3z"/>
			<path d="M97.8,288.2c0.5,0.5,0.9,2.9,1.2,2.9c0.3,0,0.6-2.3,1.1-2.9c0.6-0.6,2.1-0.7,2.1-1.1c0-0.4-1.5-0.5-2.1-1
				c-0.6-0.6-0.9-2.9-1.2-2.9c-0.3,0-0.7,2.4-1.1,2.9s-2.1,0.8-2.1,1.1C95.6,287.5,97.2,287.7,97.8,288.2z"/>
			<path d="M97,429.3c0.5,0.5,0.9,2.9,1.2,2.9c0.3,0,0.6-2.3,1.1-2.9c0.6-0.6,2.1-0.7,2.1-1.1c0-0.4-1.5-0.5-2.1-1
				c-0.6-0.6-0.9-2.9-1.2-2.9c-0.3,0-0.7,2.4-1.1,2.9c-0.5,0.5-2.1,0.8-2.1,1.1C94.9,428.6,96.5,428.8,97,429.3z"/>
			<path d="M98.2,442.1c0.3,0,0.6-2.3,1.1-2.9c0.6-0.6,2.1-0.7,2.1-1.1s-1.5-0.5-2.1-1c-0.6-0.6-0.9-2.9-1.2-2.9
				c-0.3,0-0.7,2.4-1.1,2.9s-2.1,0.8-2.1,1.1c0,0.3,1.6,0.5,2.1,1C97.5,439.8,97.8,442.1,98.2,442.1z"/>
			<path d="M98.5,364.1c1,0,1.9-0.6,1.9-2.4c0-1.8-1.8-14.5-1.8-14.5s-1.9,12.6-1.9,14.5C96.7,363.5,97.5,364.1,98.5,364.1z"/>
			<polygon points="99.9,239.5 99.2,235.9 98.5,239.5 96.5,238.2 97.8,240.2 94.2,240.8 97.8,241.6 96.5,243.5 98.5,242.2 
				99.1,245.8 99.9,242.2 101.8,243.6 100.5,241.6 104.1,240.9 100.5,240.2 101.9,238.2 			"/>
			<path d="M150.7,652c4.2-2.1,5.3-8.1,2-12c1.8-1.2,1.9-4.7,2-6.5c0.9-0.5,1.9-1,2.2-1.8c0.3-0.7,0.4-3.3-0.2-3.9
				c-0.5-0.4-1.6-0.3-2.2-0.3c-0.3,0-0.7,0-1,0c0.1-0.1,0.1-0.2,0.1-0.3c-0.1-24.7,0.1-49.4-0.1-74.1c0.2,0,0.4,0,0.6,0
				c0.3,0,0.5-0.2,0.5-0.5c-0.1-1.5-0.4-3.9-1.6-5.2c0.1-0.1,0.1-0.2,0.1-0.3c0-11.1,0.2-22.2,0.1-33.2c0.8-1.2,1-2.9,1.1-4.2
				c0-0.2-0.1-0.4-0.3-0.5c-0.1,0-0.1-0.1-0.2-0.1c-0.3,0-0.6,0-0.9,0c-0.1-26.6-0.5-53.2-0.7-79.9c0.1,0,0.3,0,0.4,0
				c0.3,0,0.5-0.2,0.5-0.5c0-2.7,0-5.5,0-8.2c0.6,0,1.2,0,1.8,0c0.3,0,0.5-0.2,0.5-0.5c0-1.9,0-3.9,0-5.8c0-0.3-0.2-0.5-0.5-0.5
				c-0.3,0-0.6,0-0.9,0c-0.1-2.1-0.5-5.9-2.8-6.6c-0.6-0.2-1.2-0.2-1.9-0.2c1.4-2.5-0.1-5.9-3.3-5.9c-3.2,0-4.7,3.5-3.2,6
				c-0.6,0-1.2,0-1.8,0.2c-2.5,0.6-2.8,4.6-2.9,6.7c-0.3,0-0.6,0-0.9,0c-0.3,0-0.5,0.2-0.5,0.5c0,1.9,0,3.9,0,5.8
				c0,0.1,0.1,0.2,0.1,0.3c0,0,0,0,0,0c0,0,0,0,0,0c0.1,0.1,0.2,0.1,0.3,0.1c0.6,0,1.2,0,1.8,0c0,2.7,0,5.5,0,8.2
				c0,0.1,0.1,0.2,0.1,0.3c0,0,0,0,0,0c0,0,0,0,0,0c0.1,0.1,0.2,0.1,0.3,0.1c0.1,0,0.2,0,0.3,0c0.1,26.6,0,53.2,0.1,79.9
				c-0.3,0-0.5,0-0.8,0c-0.3,0-0.5,0.2-0.5,0.5c0.1,1.3,0.3,2.9,1.1,4.1c0,0,0,0,0,0.1c0.1,11.1,0.4,22.2,0.5,33.2
				c0,0.2,0.1,0.3,0.2,0.4c-1.2,1.3-1.4,3.6-1.5,5.2c0,0.2,0.1,0.4,0.3,0.4c0.1,0,0.1,0.1,0.2,0.1c0.2,0,0.4,0,0.6,0
				c0.1,24.8,0.6,49.6,0.7,74.4c-1.6,0-3.2,0.3-3.4,1.7c-0.4,2.3,0.4,3.1,2.2,4.1c0.1,0.1,0.2,0.1,0.3,0.2c0,0,0,0,0,0
				c0.1,1.8,0.3,5.3,2.1,6.5c-3.2,3.9-2.1,9.9,2.1,11.9c-4.7,1.4-8.1,5.8-8,11c0,1.1,0.2,2.1,0.5,3.1c1.3-4.8,5.7-8.3,10.9-8.4
				c5.2,0,9.6,3.4,11,8.2c0.3-1,0.4-2,0.4-3.1C158.8,657.7,155.4,653.4,150.7,652z M146.1,402c2.6,0,3.7,3,2,4.8c0,0,0,0.1-0.1,0.1
				c-0.7,0.1-1.4,0.1-2,0.1c-0.6,0-1.3,0-1.9-0.1c0,0,0,0,0,0C142.5,405.1,143.5,402,146.1,402z M141.9,408.1c1.4-0.2,2.9,0,4.3,0
				c1.4,0,2.8-0.2,4.1,0c2.4,0.2,2.6,3.7,2.8,5.7c-4.6,0-9.2,0-13.8,0.1C139.4,411.9,139.6,408.4,141.9,408.1z M137.9,419.6
				c0-0.8,0-1.6,0-2.4l16.6-0.1c0,0.8,0,1.6,0,2.4C149,419.5,143.4,419.6,137.9,419.6z M151.4,440.4c0.2,22.1,0.5,44.3,0.6,66.4
				l-10.9,0.1c-0.1-22.2,0-44.3-0.1-66.5C142.3,436.1,150.2,436.2,151.4,440.4z M141.1,438.3c0-2.3,0-4.5,0-6.8l10.3-0.1
				c0,2.3,0,4.6,0.1,6.9C149,435.5,143.5,435.5,141.1,438.3z M140.2,428.3c0-2.5,0-4.9,0-7.4c4,0,8,0,12-0.1c0,2.5,0,4.9,0,7.4
				C148.2,428.3,144.2,428.3,140.2,428.3z M140,510.2c4.5,0,9,0,13.4-0.1c-0.2,1.8-0.7,3.9-2.7,4c-1.3,0.1-2.6,0-4,0
				c-1.3,0-2.6,0.1-3.8,0C140.7,514.2,140.2,512.1,140,510.2z M152.2,546.8c-0.1-0.1-0.3-0.1-0.4-0.1c-1.5-0.4-3.4,0-4.9,0
				c-1.5,0-3.3-0.2-4.7,0c-0.2,0-0.5,0.1-0.7,0.2c-0.1-10.7-0.4-21.3-0.5-32c0.3,0.2,0.6,0.3,1,0.4c1.5,0.3,3.2,0,4.7,0
				c1.5,0,3.2,0.2,4.7,0c0.4-0.1,0.7-0.2,1-0.3C152.4,525.5,152.2,536.1,152.2,546.8z M140.2,552.2c0.2-1.9,0.6-4.4,2.7-4.5
				c1.3-0.1,2.6,0,4,0c1.3,0,2.6-0.1,4,0c2.2,0.1,2.6,2.6,2.8,4.5C149.1,552.1,144.6,552.1,140.2,552.2z M152.6,618.7
				c0,2.2,0,4.4,0,6.5l-10.7,0.1c0-2.2,0-4.4,0-6.7C144.4,621.8,150.1,621.9,152.6,618.7z M141.8,616.3
				C141.8,616.3,141.8,616.3,141.8,616.3c-0.2-20.3-0.5-40.6-0.6-60.9l11.3-0.1c0.1,20.3,0,40.7,0.1,61
				C151.4,621.4,143.1,621.1,141.8,616.3z M139.7,632.3c-0.9-0.6-1-0.6-1.2-1.5c-0.2-0.9-0.3-1.5,0.4-1.8c1-0.5,3-0.3,4.1-0.3
				c1.8-0.1,3.6-0.1,5.5-0.1c1.7,0,3.4,0,5,0c0.6,0,1.2,0,1.8,0.1c0.3,0,0.7,0.2,0.7,0.1c0.2,0.5,0,2.3-0.1,2.7c0,0,0,0,0,0.1
				c0,0,0,0,0,0c-0.2,0.2-0.5,0.4-0.8,0.6c-2.3,1.5-5,2.9-7.7,3C144.6,635,142,633.7,139.7,632.3z M140.9,634.2
				c2,1.1,4.1,1.9,6.4,1.9c2.3-0.1,4.4-0.9,6.4-2c-0.1,1.9-0.4,5-2.4,5.3c-1.2,0.2-2.7,0-3.9,0c-1.3,0-2.7,0.2-3.9,0
				C141.4,639.2,141.1,636.1,140.9,634.2z M147.4,651.5c-0.5,0-0.9,0-1.3,0.1c-4.9-1-6.5-7.4-3.1-11.1c0,0,0,0,0,0
				c1.3,0.3,3.1-0.1,4.4-0.1c1.3,0,3.1,0.3,4.4,0c0,0.1,0.1,0.1,0.1,0.2c3.4,3.7,1.7,10-3.1,11C148.3,651.5,147.9,651.5,147.4,651.5
				z"/>
			<path d="M148.4,610.5c0.6-0.6,2.1-0.7,2.1-1s-1.5-0.5-2.1-1.1c-0.6-0.6-0.8-2.9-1.1-2.9c-0.3,0-0.7,2.3-1.2,2.9
				c-0.5,0.5-2.1,0.7-2.1,1c0,0.3,1.6,0.6,2.1,1.1c0.5,0.5,0.8,2.9,1.1,2.9C147.5,613.4,147.8,611.1,148.4,610.5z"/>
			<path d="M145.9,600.5c0.5,0.5,0.8,2.9,1.1,2.9c0.3,0,0.6-2.3,1.2-2.9c0.6-0.6,2.1-0.7,2.1-1s-1.5-0.5-2.1-1.1
				c-0.6-0.6-0.8-2.9-1.1-2.9c-0.3,0-0.7,2.3-1.2,2.9c-0.5,0.5-2.1,0.7-2.1,1C143.9,599.7,145.5,600,145.9,600.5z"/>
			<path d="M147.6,457.3c-0.6-0.6-0.8-2.9-1.1-2.9c-0.3,0-0.7,2.3-1.2,2.9c-0.5,0.5-2.1,0.7-2.1,1c0,0.3,1.6,0.6,2.1,1.1
				c0.5,0.5,0.8,2.9,1.1,2.9c0.3,0,0.6-2.3,1.2-2.9c0.6-0.6,2.1-0.7,2.1-1C149.7,458,148.2,457.9,147.6,457.3z"/>
			<path d="M145.1,449.5c0.5,0.5,0.8,2.9,1.1,2.9c0.3,0,0.6-2.3,1.2-2.9c0.6-0.6,2.1-0.7,2.1-1s-1.5-0.5-2.1-1.1
				c-0.6-0.6-0.8-2.9-1.1-2.9c-0.3,0-0.7,2.3-1.2,2.9c-0.5,0.5-2.1,0.7-2.1,1C143.1,448.7,144.7,449,145.1,449.5z"/>
			<path d="M146.7,522.5c-1,0-1.9,0.6-1.9,2.4c0,1.8,1.9,14.5,1.9,14.5s1.8-12.6,1.8-14.5C148.6,523,147.8,522.5,146.7,522.5z"/>
			<polygon points="152.3,645.7 148.7,645 150,643 148.1,644.4 147.4,640.8 146.7,644.4 144.7,643.1 146,645 142.5,645.7 146,646.4 
				144.7,648.4 146.7,647.1 147.4,650.6 148.1,647.1 150.1,648.4 148.7,646.4 			"/>
			<path d="M254.9,652c4.2-2.1,5.3-8.1,2-12c1.8-1.2,1.9-4.7,2-6.5c0.9-0.5,1.9-1,2.2-1.8c0.3-0.7,0.4-3.3-0.2-3.9
				c-0.5-0.4-1.6-0.3-2.2-0.3c-0.3,0-0.7,0-1,0c0.1-0.1,0.1-0.2,0.1-0.3c-0.1-24.7,0.1-49.4-0.1-74.1c0.2,0,0.4,0,0.6,0
				c0.3,0,0.5-0.2,0.5-0.5c-0.1-1.5-0.4-3.9-1.6-5.2c0.1-0.1,0.1-0.2,0.1-0.3c0-11.1,0.2-22.2,0.1-33.2c0.8-1.2,1-2.9,1.1-4.2
				c0-0.2-0.1-0.4-0.3-0.5c-0.1,0-0.1-0.1-0.2-0.1c-0.3,0-0.6,0-0.9,0c-0.1-26.6-0.5-53.2-0.7-79.9c0.1,0,0.3,0,0.4,0
				c0.3,0,0.5-0.2,0.5-0.5c0-2.7,0-5.5,0-8.2c0.6,0,1.2,0,1.8,0c0.3,0,0.5-0.2,0.5-0.5c0-1.9,0-3.9,0-5.8c0-0.3-0.2-0.5-0.5-0.5
				c-0.3,0-0.6,0-0.9,0c-0.1-2.1-0.5-5.9-2.8-6.6c-0.6-0.2-1.2-0.2-1.9-0.2c1.4-2.5-0.1-5.9-3.3-5.9c-3.2,0-4.7,3.5-3.2,6
				c-0.6,0-1.2,0-1.8,0.2c-2.5,0.6-2.8,4.6-2.9,6.7c-0.3,0-0.6,0-0.9,0c-0.3,0-0.5,0.2-0.5,0.5c0,1.9,0,3.9,0,5.8
				c0,0.1,0.1,0.2,0.1,0.3c0,0,0,0,0,0c0,0,0,0,0,0c0.1,0.1,0.2,0.1,0.3,0.1c0.6,0,1.2,0,1.8,0c0,2.7,0,5.5,0,8.2
				c0,0.1,0.1,0.2,0.1,0.3c0,0,0,0,0,0c0,0,0,0,0,0c0.1,0.1,0.2,0.1,0.3,0.1c0.1,0,0.2,0,0.3,0c0.1,26.6,0,53.2,0.1,79.9
				c-0.3,0-0.5,0-0.8,0c-0.3,0-0.5,0.2-0.5,0.5c0.1,1.3,0.3,2.9,1.1,4.1c0,0,0,0,0,0.1c0.1,11.1,0.4,22.2,0.5,33.2
				c0,0.2,0.1,0.3,0.2,0.4c-1.2,1.3-1.4,3.6-1.5,5.2c0,0.2,0.1,0.4,0.3,0.4c0.1,0,0.1,0.1,0.2,0.1c0.2,0,0.4,0,0.6,0
				c0.1,24.8,0.6,49.6,0.7,74.4c-1.6,0-3.2,0.3-3.4,1.7c-0.4,2.3,0.4,3.1,2.2,4.1c0.1,0.1,0.2,0.1,0.3,0.2c0,0,0,0,0,0
				c0.1,1.8,0.3,5.3,2.1,6.5c-3.2,3.9-2.1,9.9,2.1,11.9c-4.7,1.4-8.1,5.8-8,11c0,1.1,0.2,2.1,0.5,3.1c1.3-4.8,5.7-8.3,10.9-8.4
				c5.2,0,9.6,3.4,11,8.2c0.3-1,0.4-2,0.4-3.1C263,657.7,259.6,653.4,254.9,652z M250.3,402c2.6,0,3.7,3,2,4.8c0,0,0,0.1-0.1,0.1
				c-0.7,0.1-1.4,0.1-2,0.1c-0.6,0-1.3,0-1.9-0.1c0,0,0,0,0,0C246.7,405.1,247.7,402,250.3,402z M246.1,408.1c1.4-0.2,2.9,0,4.3,0
				c1.4,0,2.8-0.2,4.1,0c2.4,0.2,2.6,3.7,2.8,5.7c-4.6,0-9.2,0-13.8,0.1C243.6,411.9,243.8,408.4,246.1,408.1z M242.1,419.6
				c0-0.8,0-1.6,0-2.4l16.6-0.1c0,0.8,0,1.6,0,2.4C253.1,419.5,247.6,419.6,242.1,419.6z M255.6,440.4c0.2,22.1,0.5,44.3,0.6,66.4
				l-10.9,0.1c-0.1-22.2,0-44.3-0.1-66.5C246.5,436.1,254.3,436.2,255.6,440.4z M245.3,438.3c0-2.3,0-4.5,0-6.8l10.3-0.1
				c0,2.3,0,4.6,0.1,6.9C253.2,435.5,247.7,435.5,245.3,438.3z M244.4,428.3c0-2.5,0-4.9,0-7.4c4,0,8,0,12-0.1c0,2.5,0,4.9,0,7.4
				C252.4,428.3,248.4,428.3,244.4,428.3z M244.1,510.2c4.5,0,9,0,13.4-0.1c-0.2,1.8-0.7,3.9-2.7,4c-1.3,0.1-2.6,0-4,0
				c-1.3,0-2.6,0.1-3.8,0C244.9,514.2,244.4,512.1,244.1,510.2z M256.4,546.8c-0.1-0.1-0.3-0.1-0.4-0.1c-1.5-0.4-3.4,0-4.9,0
				c-1.5,0-3.3-0.2-4.7,0c-0.2,0-0.5,0.1-0.7,0.2c-0.1-10.7-0.4-21.3-0.5-32c0.3,0.2,0.6,0.3,1,0.4c1.5,0.3,3.2,0,4.7,0
				c1.5,0,3.2,0.2,4.7,0c0.4-0.1,0.7-0.2,1-0.3C256.6,525.5,256.4,536.1,256.4,546.8z M244.4,552.2c0.2-1.9,0.6-4.4,2.7-4.5
				c1.3-0.1,2.6,0,4,0c1.3,0,2.6-0.1,4,0c2.2,0.1,2.6,2.6,2.8,4.5C253.3,552.1,248.8,552.1,244.4,552.2z M256.8,618.7
				c0,2.2,0,4.4,0,6.5l-10.7,0.1c0-2.2,0-4.4,0-6.7C248.6,621.8,254.3,621.9,256.8,618.7z M246,616.3C246,616.3,246,616.3,246,616.3
				c-0.2-20.3-0.5-40.6-0.6-60.9l11.3-0.1c0.1,20.3,0,40.7,0.1,61C255.6,621.4,247.3,621.1,246,616.3z M243.9,632.3
				c-0.9-0.6-1-0.6-1.2-1.5c-0.2-0.9-0.3-1.5,0.4-1.8c1-0.5,3-0.3,4.1-0.3c1.8-0.1,3.6-0.1,5.5-0.1c1.7,0,3.4,0,5,0
				c0.6,0,1.2,0,1.8,0.1c0.3,0,0.7,0.2,0.7,0.1c0.2,0.5,0,2.3-0.1,2.7c0,0,0,0,0,0.1c0,0,0,0,0,0c-0.2,0.2-0.5,0.4-0.8,0.6
				c-2.3,1.5-5,2.9-7.8,3C248.8,635,246.2,633.7,243.9,632.3z M245.1,634.2c2,1.1,4.1,1.9,6.4,1.9c2.3-0.1,4.4-0.9,6.4-2
				c-0.1,1.9-0.4,5-2.4,5.3c-1.2,0.2-2.7,0-3.9,0c-1.3,0-2.7,0.2-3.9,0C245.6,639.2,245.3,636.1,245.1,634.2z M251.6,651.5
				c-0.5,0-0.9,0-1.3,0.1c-4.9-1-6.5-7.4-3.1-11.1c0,0,0,0,0,0c1.3,0.3,3.1-0.1,4.4-0.1c1.3,0,3.1,0.3,4.4,0c0,0.1,0.1,0.1,0.1,0.2
				c3.4,3.7,1.7,10-3.1,11C252.5,651.5,252,651.5,251.6,651.5z"/>
			<path d="M252.5,610.5c0.6-0.6,2.1-0.7,2.1-1s-1.5-0.5-2.1-1.1c-0.6-0.6-0.8-2.9-1.1-2.9c-0.3,0-0.7,2.3-1.2,2.9
				c-0.5,0.5-2.1,0.7-2.1,1c0,0.3,1.6,0.6,2.1,1.1c0.5,0.5,0.8,2.9,1.1,2.9C251.7,613.4,251.9,611.1,252.5,610.5z"/>
			<path d="M250.1,600.5c0.5,0.5,0.8,2.9,1.1,2.9c0.3,0,0.6-2.3,1.2-2.9c0.6-0.6,2.1-0.7,2.1-1s-1.5-0.5-2.1-1.1
				c-0.6-0.6-0.8-2.9-1.1-2.9c-0.3,0-0.7,2.3-1.2,2.9c-0.5,0.5-2.1,0.7-2.1,1C248,599.7,249.7,600,250.1,600.5z"/>
			<path d="M251.8,457.3c-0.6-0.6-0.8-2.9-1.1-2.9c-0.3,0-0.7,2.3-1.2,2.9c-0.5,0.5-2.1,0.7-2.1,1c0,0.3,1.6,0.6,2.1,1.1
				c0.5,0.5,0.8,2.9,1.1,2.9c0.3,0,0.6-2.3,1.2-2.9c0.6-0.6,2.1-0.7,2.1-1C253.9,458,252.3,457.9,251.8,457.3z"/>
			<path d="M249.3,449.5c0.5,0.5,0.8,2.9,1.1,2.9c0.3,0,0.6-2.3,1.2-2.9c0.6-0.6,2.1-0.7,2.1-1s-1.5-0.5-2.1-1.1
				c-0.6-0.6-0.8-2.9-1.1-2.9c-0.3,0-0.7,2.3-1.2,2.9s-2.1,0.7-2.1,1C247.3,448.7,248.9,449,249.3,449.5z"/>
			<path d="M250.9,522.5c-1,0-1.9,0.6-1.9,2.4c0,1.8,1.9,14.5,1.9,14.5s1.8-12.6,1.8-14.5C252.8,523,252,522.5,250.9,522.5z"/>
			<polygon points="256.5,645.7 252.9,645 254.2,643 252.3,644.4 251.5,640.8 250.9,644.4 248.9,643.1 250.2,645 246.6,645.7 
				250.2,646.4 248.9,648.4 250.9,647.1 251.6,650.6 252.3,647.1 254.3,648.4 252.9,646.4 			"/>
			<path d="M202.3,472.9c0.3,0,0.6,0,0.9,0c0.3,0,0.5-0.2,0.5-0.5c0-1.9,0-3.9,0-5.8c0-0.3-0.2-0.5-0.5-0.5c-0.6,0-1.2,0-1.8,0
				c0-2.7,0-5.5,0-8.2c0-0.3-0.2-0.5-0.5-0.5c-0.1,0-0.3,0-0.4,0c0.2-26.6,0.6-53.2,0.7-79.9c0.3,0,0.6,0,0.9,0c0.1,0,0.2,0,0.2-0.1
				c0.2-0.1,0.3-0.2,0.3-0.5c-0.1-1.3-0.3-3-1.1-4.2c0.1-11.1-0.1-22.2-0.1-33.2c0-0.1-0.1-0.2-0.1-0.3c1.2-1.3,1.5-3.7,1.6-5.2
				c0-0.3-0.2-0.5-0.5-0.5c-0.2,0-0.4,0-0.6,0c0.1-24.7,0-49.4,0.1-74.1c0-0.1,0-0.2-0.1-0.3c0.3,0,0.7,0,1,0c0.6,0,1.7,0.1,2.2-0.3
				c0.7-0.6,0.5-3.1,0.2-3.9c-0.3-0.8-1.3-1.4-2.2-1.8c-0.1-1.8-0.2-5.3-2-6.5c3.3-3.8,2.1-9.8-2-12c4.7-1.4,8.1-5.7,8.1-10.8
				c0-1.1-0.1-2.1-0.4-3.1c-1.4,4.8-5.8,8.2-11,8.2c-5.2,0-9.6-3.6-10.9-8.4c-0.3,1-0.5,2-0.5,3.1c0,5.2,3.3,9.5,8,11
				c-4.2,2.1-5.4,8.1-2.1,11.9c-1.8,1.2-2,4.7-2.1,6.5c0,0,0,0,0,0c-0.1,0.1-0.2,0.1-0.3,0.2c-1.7,1-2.5,1.8-2.2,4.1
				c0.2,1.4,1.9,1.7,3.4,1.7c-0.1,24.8-0.5,49.6-0.7,74.4c-0.2,0-0.4,0-0.6,0c-0.1,0-0.2,0-0.2,0.1c-0.2,0.1-0.3,0.2-0.3,0.4
				c0.1,1.5,0.3,3.9,1.5,5.2c-0.1,0.1-0.2,0.2-0.2,0.4c-0.1,11.1-0.4,22.2-0.5,33.2c0,0,0,0,0,0.1c-0.8,1.2-1,2.8-1.1,4.1
				c0,0.3,0.2,0.5,0.5,0.5c0.3,0,0.5,0,0.8,0c-0.1,26.6,0,53.2-0.1,79.9c-0.1,0-0.2,0-0.3,0c-0.1,0-0.2,0.1-0.3,0.1c0,0,0,0,0,0
				c0,0,0,0,0,0c-0.1,0.1-0.1,0.2-0.1,0.3c0,2.7,0,5.5,0,8.2c-0.6,0-1.2,0-1.8,0c-0.1,0-0.2,0.1-0.3,0.1c0,0,0,0,0,0c0,0,0,0,0,0
				c-0.1,0.1-0.1,0.2-0.1,0.3c0,1.9,0,3.9,0,5.8c0,0.3,0.2,0.5,0.5,0.5c0.3,0,0.6,0,0.9,0c0.1,2.1,0.4,6.1,2.9,6.7
				c0.5,0.1,1.1,0.2,1.8,0.2c-1.5,2.5,0,5.9,3.2,6c3.2,0,4.7-3.4,3.3-5.9c0.7,0,1.3,0,1.9-0.2C201.8,478.8,202.2,474.9,202.3,472.9z
				 M194.2,235c0.4,0.1,0.9,0.1,1.3,0.1c0.5,0,1,0,1.4-0.1c4.8,1,6.5,7.3,3.1,11c0,0.1-0.1,0.1-0.1,0.2c-1.3-0.3-3.1,0-4.4,0
				c-1.3,0-3-0.3-4.4-0.1c0,0,0,0,0,0C187.7,242.3,189.4,236,194.2,235z M191.6,247.2c1.3-0.2,2.7,0,3.9,0c1.3,0,2.7-0.2,3.9,0
				c2,0.3,2.3,3.4,2.4,5.3c-2-1.1-4.1-1.9-6.4-2c-2.3,0.1-4.4,0.9-6.4,1.9C189.3,250.5,189.6,247.4,191.6,247.2z M187.2,257.6
				c-0.7-0.3-0.6-1-0.4-1.8c0.2-0.9,0.3-0.9,1.2-1.5c2.3-1.4,4.9-2.7,7.6-2.8c2.8,0.1,5.5,1.5,7.8,3c0.3,0.2,0.6,0.3,0.8,0.6
				c0,0,0,0,0,0c0,0,0,0,0,0.1c0.1,0.4,0.3,2.2,0.1,2.7c0-0.1-0.3,0-0.7,0.1c-0.6,0-1.2,0.1-1.8,0.1c-1.7,0-3.4,0.1-5,0
				c-1.8,0-3.6,0-5.5-0.1C190.2,257.9,188.2,258.2,187.2,257.6z M190.1,268c0-2.2,0-4.4,0-6.7l10.7,0.1c0,2.2,0,4.4,0,6.5
				C198.4,264.7,192.6,264.8,190.1,268z M200.8,331.3l-11.3-0.1c0.1-20.3,0.4-40.6,0.6-60.9c0,0,0,0,0,0c1.3-4.9,9.5-5.1,10.8,0
				C200.8,290.6,200.9,310.9,200.8,331.3z M188.4,334.4c4.5,0,9,0,13.5,0.1c-0.2,1.9-0.6,4.4-2.8,4.5c-1.3,0.1-2.6,0-4,0
				c-1.3,0-2.7,0.1-4,0C189,338.8,188.5,336.3,188.4,334.4z M200.5,371.7c-0.3-0.2-0.6-0.3-1-0.3c-1.5-0.2-3.2,0-4.7,0
				c-1.5,0-3.3-0.3-4.7,0c-0.4,0.1-0.7,0.2-1,0.4c0.1-10.7,0.4-21.3,0.5-32c0.2,0.1,0.4,0.2,0.7,0.2c1.5,0.3,3.2,0,4.7,0
				c1.5,0,3.4,0.3,4.9,0c0.1,0,0.3-0.1,0.4-0.1C200.4,350.5,200.6,361.1,200.5,371.7z M188.2,376.3c0.2-1.9,0.8-3.9,2.9-4
				c1.3,0,2.6,0,3.8,0c1.3,0,2.6-0.1,4,0c2,0.1,2.6,2.2,2.7,4C197.1,376.4,192.6,376.4,188.2,376.3z M199.6,448.2
				c0,2.3,0,4.6-0.1,6.9l-10.3-0.1c0-2.3,0-4.5,0-6.8C191.7,451.1,197.2,451,199.6,448.2z M189.3,446.1c0.1-22.2,0-44.3,0.1-66.5
				l10.9,0.1c-0.1,22.1-0.4,44.3-0.6,66.4C198.4,450.3,190.5,450.5,189.3,446.1z M200.5,458.3c0,2.5,0,4.9,0,7.4c-4,0-8,0-12-0.1
				c0-2.5,0-4.9,0-7.4C192.5,458.3,196.5,458.3,200.5,458.3z M186.1,469.4c0-0.8,0-1.6,0-2.4c5.5,0,11,0.1,16.6,0.1
				c0,0.8,0,1.6,0,2.4L186.1,469.4z M194.3,484.6c-2.6,0-3.6-3.1-1.9-4.9c0,0,0,0,0,0c0.7,0,1.3-0.1,1.9-0.1c0.6,0,1.3,0.1,2,0.1
				c0,0,0,0.1,0.1,0.1C198,481.6,196.9,484.6,194.3,484.6z M194.3,478.5c-1.4,0-2.9,0.2-4.3,0c-2.3-0.3-2.5-3.8-2.6-5.7
				c4.6,0,9.2,0,13.8,0.1c-0.1,2-0.4,5.4-2.8,5.7C197.1,478.7,195.7,478.5,194.3,478.5z"/>
			<path d="M196.6,276.1c-0.6-0.6-0.9-2.9-1.2-2.9c-0.3,0-0.7,2.4-1.1,2.9c-0.5,0.5-2.1,0.8-2.1,1.1c0,0.3,1.6,0.5,2.1,1
				c0.5,0.5,0.9,2.9,1.2,2.9c0.3,0,0.6-2.3,1.1-2.9c0.6-0.6,2.1-0.7,2.1-1.1S197.2,276.7,196.6,276.1z"/>
			<path d="M196.5,286c-0.6-0.6-0.9-2.9-1.2-2.9c-0.3,0-0.7,2.4-1.1,2.9c-0.5,0.5-2.1,0.8-2.1,1.1c0,0.3,1.6,0.5,2.1,1
				c0.5,0.5,0.9,2.9,1.2,2.9c0.3,0,0.6-2.3,1.1-2.9c0.6-0.6,2.1-0.7,2.1-1.1C198.6,286.7,197.1,286.6,196.5,286z"/>
			<path d="M193.4,429.3c0.5,0.5,0.9,2.9,1.2,2.9c0.3,0,0.6-2.3,1.1-2.9c0.6-0.6,2.1-0.7,2.1-1.1c0-0.4-1.5-0.5-2.1-1
				c-0.6-0.6-0.9-2.9-1.2-2.9c-0.3,0-0.7,2.4-1.1,2.9c-0.5,0.5-2.1,0.8-2.1,1.1C191.3,428.6,192.9,428.8,193.4,429.3z"/>
			<path d="M194.6,442.1c0.3,0,0.6-2.3,1.1-2.9c0.6-0.6,2.1-0.7,2.1-1.1c0-0.4-1.5-0.5-2.1-1c-0.6-0.6-0.9-2.9-1.2-2.9
				c-0.3,0-0.7,2.4-1.1,2.9c-0.5,0.5-2.1,0.8-2.1,1.1c0,0.3,1.6,0.5,2.1,1C193.9,439.8,194.3,442.1,194.6,442.1z"/>
			<path d="M193.1,361.7c0,1.8,0.8,2.4,1.9,2.4c1,0,1.9-0.6,1.9-2.4s-1.8-14.5-1.8-14.5S193.1,359.8,193.1,361.7z"/>
			<polygon points="192.9,243.5 194.9,242.2 195.6,245.8 196.3,242.2 198.3,243.6 196.9,241.6 200.5,240.9 196.9,240.2 198.3,238.2 
				196.3,239.5 195.6,235.9 194.9,239.5 192.9,238.2 194.2,240.2 190.7,240.8 194.2,241.6 			"/>
			<path d="M309.5,479.7c0.7,0,1.3,0,1.9-0.2c2.3-0.7,2.7-4.6,2.8-6.6c0.3,0,0.6,0,0.9,0c0.3,0,0.5-0.2,0.5-0.5c0-1.9,0-3.9,0-5.8
				c0-0.3-0.2-0.5-0.5-0.5c-0.6,0-1.2,0-1.8,0c0-2.7,0-5.5,0-8.2c0-0.3-0.2-0.5-0.5-0.5c-0.1,0-0.3,0-0.4,0
				c0.2-26.6,0.6-53.2,0.7-79.9c0.3,0,0.6,0,0.9,0c0.1,0,0.2,0,0.2-0.1c0.2-0.1,0.3-0.2,0.3-0.5c-0.1-1.3-0.3-3-1.1-4.2
				c0.1-11.1-0.1-22.2-0.1-33.2c0-0.1-0.1-0.2-0.1-0.3c1.2-1.3,1.5-3.7,1.6-5.2c0-0.3-0.2-0.5-0.5-0.5c-0.2,0-0.4,0-0.6,0
				c0.1-24.7,0-49.4,0.1-74.1c0-0.1,0-0.2-0.1-0.3c0.3,0,0.7,0,1,0c0.6,0,1.7,0.1,2.2-0.3c0.7-0.6,0.5-3.1,0.2-3.9
				c-0.3-0.8-1.3-1.4-2.2-1.8c-0.1-1.8-0.2-5.3-2-6.5c3.3-3.8,2.1-9.8-2-12c4.7-1.4,8.1-5.7,8.1-10.8c0-1.1-0.1-2.1-0.4-3.1
				c-1.4,4.8-5.8,8.2-11,8.2c-5.2,0-9.6-3.6-10.9-8.4c-0.3,1-0.4,2-0.5,3.1c0,5.2,3.3,9.5,8,11c-4.2,2.1-5.4,8.1-2.1,11.9
				c-1.8,1.2-2,4.7-2.1,6.5c0,0,0,0,0,0c-0.1,0.1-0.2,0.1-0.3,0.2c-1.7,1-2.5,1.8-2.2,4.1c0.2,1.4,1.9,1.7,3.4,1.7
				c-0.1,24.8-0.6,49.6-0.7,74.4c-0.2,0-0.4,0-0.6,0c-0.1,0-0.2,0-0.2,0.1c-0.2,0.1-0.3,0.2-0.3,0.4c0.1,1.5,0.3,3.9,1.5,5.2
				c-0.1,0.1-0.2,0.2-0.2,0.4c-0.1,11.1-0.4,22.2-0.5,33.2c0,0,0,0,0,0.1c-0.8,1.2-1,2.8-1.1,4.1c0,0.3,0.2,0.5,0.5,0.5
				c0.3,0,0.5,0,0.8,0c-0.1,26.6,0,53.2-0.1,79.9c-0.1,0-0.2,0-0.3,0c-0.1,0-0.2,0.1-0.3,0.1c0,0,0,0,0,0c0,0,0,0,0,0
				c-0.1,0.1-0.1,0.2-0.1,0.3c0,2.7,0,5.5,0,8.2c-0.6,0-1.2,0-1.8,0c-0.1,0-0.2,0.1-0.3,0.1c0,0,0,0,0,0c0,0,0,0,0,0
				c-0.1,0.1-0.1,0.2-0.1,0.3c0,1.9,0,3.9,0,5.8c0,0.3,0.2,0.5,0.5,0.5c0.3,0,0.6,0,0.9,0c0.1,2.1,0.4,6.1,2.9,6.7
				c0.5,0.1,1.1,0.2,1.8,0.2c-1.5,2.5,0,5.9,3.2,6C309.5,485.6,310.9,482.2,309.5,479.7z M306.2,235c0.4,0.1,0.9,0.1,1.3,0.1
				c0.5,0,1,0,1.4-0.1c4.8,1,6.5,7.3,3.1,11c0,0.1-0.1,0.1-0.1,0.2c-1.3-0.3-3.1,0-4.4,0c-1.3,0-3-0.3-4.4-0.1c0,0,0,0,0,0
				C299.7,242.3,301.3,236,306.2,235z M303.6,247.2c1.3-0.2,2.6,0,3.9,0c1.3,0,2.7-0.2,3.9,0c2,0.3,2.3,3.4,2.4,5.3
				c-2-1.1-4.1-1.9-6.4-2c-2.3,0.1-4.4,0.9-6.4,1.9C301.2,250.5,301.6,247.4,303.6,247.2z M299.1,257.6c-0.7-0.3-0.6-1-0.4-1.8
				c0.2-0.9,0.3-0.9,1.2-1.5c2.3-1.4,4.9-2.7,7.6-2.8c2.8,0.1,5.5,1.5,7.7,3c0.3,0.2,0.6,0.3,0.8,0.6c0,0,0,0,0,0c0,0,0,0,0,0.1
				c0.1,0.4,0.3,2.2,0.1,2.7c0-0.1-0.3,0-0.7,0.1c-0.6,0-1.2,0.1-1.8,0.1c-1.7,0-3.4,0.1-5,0c-1.8,0-3.6,0-5.5-0.1
				C302.2,257.9,300.2,258.2,299.1,257.6z M302,268c0-2.2,0-4.4,0-6.7l10.7,0.1c0,2.2,0,4.4,0,6.5C310.3,264.7,304.6,264.8,302,268z
				 M312.7,331.3l-11.3-0.1c0.1-20.3,0.4-40.6,0.6-60.9c0,0,0,0,0,0c1.3-4.9,9.5-5.1,10.8,0C312.8,290.6,312.8,310.9,312.7,331.3z
				 M300.3,334.4c4.5,0,9,0,13.5,0.1c-0.2,1.9-0.6,4.4-2.8,4.5c-1.3,0.1-2.6,0-4,0c-1.3,0-2.7,0.1-4,0
				C300.9,338.8,300.5,336.3,300.3,334.4z M312.5,371.7c-0.3-0.2-0.6-0.3-1-0.3c-1.5-0.2-3.2,0-4.7,0c-1.5,0-3.3-0.3-4.7,0
				c-0.4,0.1-0.7,0.2-1,0.4c0.1-10.7,0.4-21.3,0.5-32c0.2,0.1,0.4,0.2,0.7,0.2c1.5,0.3,3.2,0,4.7,0c1.5,0,3.4,0.3,4.9,0
				c0.1,0,0.3-0.1,0.4-0.1C312.3,350.5,312.5,361.1,312.5,371.7z M300.1,376.3c0.2-1.9,0.8-3.9,2.9-4c1.3,0,2.6,0,3.8,0
				c1.3,0,2.6-0.1,4,0c2,0.1,2.6,2.2,2.7,4C309.1,376.4,304.6,376.4,300.1,376.3z M311.6,448.2c0,2.3,0,4.6,0,6.9l-10.3-0.1
				c0-2.3,0-4.5,0-6.8C303.7,451.1,309.1,451,311.6,448.2z M301.3,446.1c0.1-22.2,0-44.3,0.1-66.5l10.9,0.1
				c-0.1,22.1-0.4,44.3-0.6,66.4C310.3,450.3,302.5,450.5,301.3,446.1z M312.4,458.3c0,2.5,0,4.9,0,7.4c-4,0-8,0-12-0.1
				c0-2.5,0-4.9,0-7.4C304.4,458.3,308.4,458.3,312.4,458.3z M298.1,469.4c0-0.8,0-1.6,0-2.4c5.5,0,11,0.1,16.6,0.1
				c0,0.8,0,1.6,0,2.4L298.1,469.4z M302,478.5c-2.3-0.3-2.5-3.8-2.6-5.7c4.6,0,9.2,0,13.8,0.1c-0.1,2-0.4,5.4-2.8,5.7
				c-1.3,0.1-2.8,0-4.1,0C304.9,478.5,303.4,478.7,302,478.5z M306.3,484.6c-2.6,0-3.6-3.1-1.9-4.9c0,0,0,0,0,0
				c0.7,0,1.3-0.1,1.9-0.1c0.6,0,1.3,0.1,2,0.1c0,0,0,0.1,0.1,0.1C309.9,481.6,308.8,484.6,306.3,484.6z"/>
			<path d="M308.5,276.1c-0.6-0.6-0.9-2.9-1.2-2.9c-0.3,0-0.7,2.4-1.1,2.9c-0.5,0.5-2.1,0.8-2.1,1.1c0,0.3,1.6,0.5,2.1,1
				c0.5,0.5,0.9,2.9,1.2,2.9c0.3,0,0.6-2.3,1.1-2.9c0.6-0.6,2.1-0.7,2.1-1.1C310.6,276.8,309.1,276.7,308.5,276.1z"/>
			<path d="M308.5,286c-0.6-0.6-0.9-2.9-1.2-2.9c-0.3,0-0.7,2.4-1.1,2.9s-2.1,0.8-2.1,1.1c0,0.3,1.6,0.5,2.1,1
				c0.5,0.5,0.9,2.9,1.2,2.9c0.3,0,0.6-2.3,1.1-2.9c0.6-0.6,2.1-0.7,2.1-1.1C310.6,286.7,309.1,286.6,308.5,286z"/>
			<path d="M305.4,429.3c0.5,0.5,0.9,2.9,1.2,2.9c0.3,0,0.6-2.3,1.1-2.9c0.6-0.6,2.1-0.7,2.1-1.1c0-0.4-1.5-0.5-2.1-1
				c-0.6-0.6-0.9-2.9-1.2-2.9c-0.3,0-0.7,2.4-1.1,2.9c-0.5,0.5-2.1,0.8-2.1,1.1C303.3,428.6,304.9,428.8,305.4,429.3z"/>
			<path d="M306.6,442.1c0.3,0,0.6-2.3,1.1-2.9c0.6-0.6,2.1-0.7,2.1-1.1c0-0.4-1.5-0.5-2.1-1c-0.6-0.6-0.9-2.9-1.2-2.9
				c-0.3,0-0.7,2.4-1.1,2.9s-2.1,0.8-2.1,1.1c0,0.3,1.6,0.5,2.1,1C305.9,439.8,306.2,442.1,306.6,442.1z"/>
			<path d="M305,361.7c0,1.8,0.8,2.4,1.9,2.4c1,0,1.9-0.6,1.9-2.4c0-1.8-1.8-14.5-1.8-14.5S305.1,359.8,305,361.7z"/>
			<polygon points="304.9,243.5 306.8,242.2 307.5,245.8 308.2,242.2 310.2,243.6 308.9,241.6 312.5,240.9 308.9,240.2 310.2,238.2 
				308.3,239.5 307.6,235.9 306.9,239.5 304.9,238.2 306.2,240.2 302.6,240.8 306.2,241.6 			"/>
			<path d="M367.2,662.8c0-5.1-3.5-9.4-8.1-10.8c4.2-2.1,5.3-8.1,2-12c1.8-1.2,1.9-4.7,2-6.5c0.9-0.5,1.9-1,2.2-1.8
				c0.3-0.7,0.4-3.3-0.2-3.9c-0.5-0.4-1.6-0.3-2.2-0.3c-0.3,0-0.7,0-1,0c0.1-0.1,0.1-0.2,0.1-0.3c-0.1-24.7,0.1-49.4-0.1-74.1
				c0.2,0,0.4,0,0.6,0c0.3,0,0.5-0.2,0.5-0.5c-0.1-1.5-0.4-3.9-1.6-5.2c0.1-0.1,0.1-0.2,0.1-0.3c0-11.1,0.2-22.2,0.1-33.2
				c0.8-1.2,1-2.9,1.1-4.2c0-0.2-0.1-0.4-0.3-0.5c-0.1,0-0.1-0.1-0.2-0.1c-0.3,0-0.6,0-0.9,0c-0.1-26.6-0.5-53.2-0.7-79.9
				c0.1,0,0.3,0,0.4,0c0.3,0,0.5-0.2,0.5-0.5c0-2.7,0-5.5,0-8.2c0.6,0,1.2,0,1.8,0c0.3,0,0.5-0.2,0.5-0.5c0-1.9,0-3.9,0-5.8
				c0-0.3-0.2-0.5-0.5-0.5c-0.3,0-0.6,0-0.9,0c-0.1-2.1-0.5-5.9-2.8-6.6c-0.6-0.2-1.2-0.2-1.9-0.2c1.4-2.5-0.1-5.9-3.3-5.9
				c-3.2,0-4.7,3.5-3.2,6c-0.6,0-1.2,0-1.8,0.2c-2.5,0.6-2.8,4.6-2.9,6.7c-0.3,0-0.6,0-0.9,0c-0.3,0-0.5,0.2-0.5,0.5
				c0,1.9,0,3.9,0,5.8c0,0.1,0.1,0.2,0.1,0.3c0,0,0,0,0,0c0,0,0,0,0,0c0.1,0.1,0.2,0.1,0.3,0.1c0.6,0,1.2,0,1.8,0c0,2.7,0,5.5,0,8.2
				c0,0.1,0.1,0.2,0.1,0.3c0,0,0,0,0,0c0,0,0,0,0,0c0.1,0.1,0.2,0.1,0.3,0.1c0.1,0,0.2,0,0.3,0c0.1,26.6,0,53.2,0.1,79.9
				c-0.3,0-0.5,0-0.8,0c-0.3,0-0.5,0.2-0.5,0.5c0.1,1.3,0.3,2.9,1.1,4.1c0,0,0,0,0,0.1c0.1,11.1,0.4,22.2,0.5,33.2
				c0,0.2,0.1,0.3,0.2,0.4c-1.2,1.3-1.4,3.6-1.5,5.2c0,0.2,0.1,0.4,0.3,0.4c0.1,0,0.1,0.1,0.2,0.1c0.2,0,0.4,0,0.6,0
				c0.1,24.8,0.6,49.6,0.7,74.4c-1.6,0-3.2,0.3-3.4,1.7c-0.4,2.3,0.4,3.1,2.2,4.1c0.1,0.1,0.2,0.1,0.3,0.2c0,0,0,0,0,0
				c0.1,1.8,0.3,5.3,2.1,6.5c-3.2,3.9-2.1,9.9,2.1,11.9c-4.7,1.4-8.1,5.8-8,11c0,1.1,0.2,2.1,0.5,3.1c1.3-4.8,5.7-8.3,10.9-8.4
				c5.2,0,9.6,3.4,11,8.2C367.1,664.9,367.3,663.9,367.2,662.8z M354.5,402c2.6,0,3.7,3,2,4.8c0,0,0,0.1-0.1,0.1
				c-0.7,0.1-1.4,0.1-2,0.1c-0.6,0-1.3,0-1.9-0.1c0,0,0,0,0,0C350.9,405.1,351.9,402,354.5,402z M350.3,408.1c1.4-0.2,2.9,0,4.3,0
				c1.4,0,2.8-0.2,4.1,0c2.4,0.2,2.6,3.7,2.8,5.7c-4.6,0-9.2,0-13.8,0.1C347.8,411.9,348,408.4,350.3,408.1z M346.3,419.6
				c0-0.8,0-1.6,0-2.4l16.6-0.1c0,0.8,0,1.6,0,2.4C357.3,419.5,351.8,419.6,346.3,419.6z M359.8,440.4c0.2,22.1,0.5,44.3,0.6,66.4
				l-10.9,0.1c-0.1-22.2,0-44.3-0.1-66.5C350.7,436.1,358.5,436.2,359.8,440.4z M349.5,438.3c0-2.3,0-4.5,0-6.8l10.3-0.1
				c0,2.3,0,4.6,0.1,6.9C357.3,435.5,351.9,435.5,349.5,438.3z M348.6,428.3c0-2.5,0-4.9,0-7.4c4,0,8,0,12-0.1c0,2.5,0,4.9,0,7.4
				C356.6,428.3,352.6,428.3,348.6,428.3z M348.3,510.2c4.5,0,9,0,13.4-0.1c-0.2,1.8-0.7,3.9-2.7,4c-1.3,0.1-2.6,0-4,0
				c-1.3,0-2.6,0.1-3.8,0C349.1,514.2,348.5,512.1,348.3,510.2z M360.6,546.8c-0.1-0.1-0.3-0.1-0.4-0.1c-1.5-0.4-3.4,0-4.9,0
				c-1.5,0-3.3-0.2-4.7,0c-0.2,0-0.5,0.1-0.7,0.2c-0.1-10.7-0.4-21.3-0.5-32c0.3,0.2,0.6,0.3,1,0.4c1.5,0.3,3.2,0,4.7,0
				c1.5,0,3.2,0.2,4.7,0c0.4-0.1,0.7-0.2,1-0.3C360.8,525.5,360.6,536.1,360.6,546.8z M348.5,552.2c0.2-1.9,0.6-4.4,2.7-4.5
				c1.3-0.1,2.6,0,4,0c1.3,0,2.6-0.1,4,0c2.2,0.1,2.6,2.6,2.8,4.5C357.5,552.1,353,552.1,348.5,552.2z M361,618.7c0,2.2,0,4.4,0,6.5
				l-10.7,0.1c0-2.2,0-4.4,0-6.7C352.8,621.8,358.5,621.9,361,618.7z M350.2,616.3C350.2,616.3,350.2,616.3,350.2,616.3
				c-0.2-20.3-0.5-40.6-0.6-60.9l11.3-0.1c0.1,20.3,0,40.7,0.1,61C359.8,621.4,351.5,621.1,350.2,616.3z M348.1,632.3
				c-0.9-0.6-1-0.6-1.2-1.5c-0.2-0.9-0.3-1.5,0.4-1.8c1-0.5,3-0.3,4.1-0.3c1.8-0.1,3.6-0.1,5.5-0.1c1.7,0,3.4,0,5,0
				c0.6,0,1.2,0,1.8,0.1c0.3,0,0.7,0.2,0.7,0.1c0.2,0.5,0,2.3-0.1,2.7c0,0,0,0,0,0.1c0,0,0,0,0,0c-0.2,0.2-0.5,0.4-0.8,0.6
				c-2.3,1.5-5,2.9-7.8,3C353,635,350.4,633.7,348.1,632.3z M349.3,634.2c2,1.1,4.1,1.9,6.4,1.9c2.3-0.1,4.4-0.9,6.4-2
				c-0.1,1.9-0.4,5-2.4,5.3c-1.2,0.2-2.7,0-3.9,0c-1.3,0-2.7,0.2-3.9,0C349.8,639.2,349.5,636.1,349.3,634.2z M355.8,651.5
				c-0.5,0-0.9,0-1.3,0.1c-4.9-1-6.5-7.4-3.1-11.1c0,0,0,0,0,0c1.3,0.3,3.1-0.1,4.4-0.1c1.3,0,3.1,0.3,4.4,0c0,0.1,0.1,0.1,0.1,0.2
				c3.4,3.7,1.7,10-3.1,11C356.7,651.5,356.2,651.5,355.8,651.5z"/>
			<path d="M356.7,610.5c0.6-0.6,2.1-0.7,2.1-1c0-0.4-1.5-0.5-2.1-1.1c-0.6-0.6-0.8-2.9-1.1-2.9c-0.3,0-0.7,2.3-1.2,2.9
				c-0.5,0.5-2.1,0.7-2.1,1c0,0.3,1.6,0.6,2.1,1.1c0.5,0.5,0.8,2.9,1.1,2.9C355.9,613.4,356.1,611.1,356.7,610.5z"/>
			<path d="M354.3,600.5c0.5,0.5,0.8,2.9,1.1,2.9c0.3,0,0.6-2.3,1.2-2.9c0.6-0.6,2.1-0.7,2.1-1c0-0.4-1.5-0.5-2.1-1.1
				c-0.6-0.6-0.8-2.9-1.1-2.9c-0.3,0-0.7,2.3-1.2,2.9c-0.5,0.5-2.1,0.7-2.1,1C352.2,599.7,353.8,600,354.3,600.5z"/>
			<path d="M356,457.3c-0.6-0.6-0.8-2.9-1.1-2.9c-0.3,0-0.7,2.3-1.2,2.9c-0.5,0.5-2.1,0.7-2.1,1c0,0.3,1.6,0.6,2.1,1.1
				c0.5,0.5,0.8,2.9,1.1,2.9c0.3,0,0.6-2.3,1.2-2.9c0.6-0.6,2.1-0.7,2.1-1C358.1,458,356.5,457.9,356,457.3z"/>
			<path d="M353.5,449.5c0.5,0.5,0.8,2.9,1.1,2.9c0.3,0,0.6-2.3,1.2-2.9c0.6-0.6,2.1-0.7,2.1-1c0-0.4-1.5-0.5-2.1-1.1
				c-0.6-0.6-0.8-2.9-1.1-2.9c-0.3,0-0.7,2.3-1.2,2.9c-0.5,0.5-2.1,0.7-2.1,1C351.4,448.7,353,449,353.5,449.5z"/>
			<path d="M355.1,522.5c-1,0-1.9,0.6-1.9,2.4c0,1.8,1.9,14.5,1.9,14.5s1.8-12.6,1.8-14.5C357,523,356.2,522.5,355.1,522.5z"/>
			<polygon points="360.7,645.7 357.1,645 358.4,643 356.5,644.4 355.7,640.8 355.1,644.4 353.1,643.1 354.4,645 350.8,645.7 
				354.4,646.4 353.1,648.4 355.1,647.1 355.8,650.6 356.5,647.1 358.5,648.4 357.1,646.4 			"/>
			<path d="M415.5,223.8c0-1.1-0.1-2.1-0.4-3.1c-1.4,4.8-5.8,8.2-11,8.2c-5.2,0-9.6-3.6-10.9-8.4c-0.3,1-0.5,2-0.5,3.1
				c0,5.2,3.3,9.5,8,11c-4.2,2.1-5.4,8.1-2.1,11.9c-1.8,1.2-2,4.7-2.1,6.5c0,0,0,0,0,0c-0.1,0.1-0.2,0.1-0.3,0.2
				c-1.7,1-2.5,1.8-2.2,4.1c0.2,1.4,1.9,1.7,3.4,1.7c-0.1,24.8-0.5,49.6-0.7,74.4c-0.2,0-0.4,0-0.6,0c-0.1,0-0.2,0-0.2,0.1
				c-0.2,0.1-0.3,0.2-0.3,0.4c0.1,1.5,0.3,3.9,1.5,5.2c-0.1,0.1-0.2,0.2-0.2,0.4c-0.1,11.1-0.4,22.2-0.5,33.2c0,0,0,0,0,0.1
				c-0.8,1.2-1,2.8-1.1,4.1c0,0.3,0.2,0.5,0.5,0.5c0.3,0,0.5,0,0.8,0c-0.1,26.6,0,53.2-0.1,79.9c-0.1,0-0.2,0-0.3,0
				c-0.1,0-0.2,0.1-0.3,0.1c0,0,0,0,0,0c0,0,0,0,0,0c-0.1,0.1-0.1,0.2-0.1,0.3c0,2.7,0,5.5,0,8.2c-0.6,0-1.2,0-1.8,0
				c-0.1,0-0.2,0.1-0.3,0.1c0,0,0,0,0,0c0,0,0,0,0,0c-0.1,0.1-0.1,0.2-0.1,0.3c0,1.9,0,3.9,0,5.8c0,0.3,0.2,0.5,0.5,0.5
				c0.3,0,0.6,0,0.9,0c0.1,2.1,0.4,6.1,2.9,6.7c0.5,0.1,1.1,0.2,1.8,0.2c-1.5,2.5,0,5.9,3.2,6c3.2,0,4.7-3.4,3.3-5.9
				c0.7,0,1.3,0,1.9-0.2c2.3-0.7,2.7-4.6,2.8-6.6c0.3,0,0.6,0,0.9,0c0.3,0,0.5-0.2,0.5-0.5c0-1.9,0-3.9,0-5.8c0-0.3-0.2-0.5-0.5-0.5
				c-0.6,0-1.2,0-1.8,0c0-2.7,0-5.5,0-8.2c0-0.3-0.2-0.5-0.5-0.5c-0.1,0-0.3,0-0.4,0c0.2-26.6,0.6-53.2,0.7-79.9c0.3,0,0.6,0,0.9,0
				c0.1,0,0.2,0,0.2-0.1c0.2-0.1,0.3-0.2,0.3-0.5c-0.1-1.3-0.3-3-1.1-4.2c0.1-11.1-0.1-22.2-0.1-33.2c0-0.1-0.1-0.2-0.1-0.3
				c1.2-1.3,1.5-3.7,1.6-5.2c0-0.3-0.2-0.5-0.5-0.5c-0.2,0-0.4,0-0.6,0c0.1-24.7,0-49.4,0.1-74.1c0-0.1,0-0.2-0.1-0.3
				c0.3,0,0.7,0,1,0c0.6,0,1.7,0.1,2.2-0.3c0.7-0.6,0.5-3.1,0.2-3.9c-0.3-0.8-1.3-1.4-2.2-1.8c-0.1-1.8-0.2-5.3-2-6.5
				c3.3-3.8,2.1-9.8-2-12C412,233.2,415.4,228.9,415.5,223.8z M402.7,484.6c-2.6,0-3.6-3.1-1.9-4.9c0,0,0,0,0,0
				c0.7,0,1.3-0.1,1.9-0.1c0.6,0,1.3,0.1,2,0.1c0,0,0,0.1,0.1,0.1C406.4,481.6,405.3,484.6,402.7,484.6z M406.9,478.5
				c-1.3,0.1-2.8,0-4.1,0c-1.4,0-2.9,0.2-4.3,0c-2.3-0.3-2.5-3.8-2.6-5.7c4.6,0,9.2,0,13.8,0.1C409.5,474.8,409.2,478.3,406.9,478.5
				z M411.1,467.1c0,0.8,0,1.6,0,2.4l-16.6-0.1c0-0.8,0-1.6,0-2.4C400,467,405.6,467,411.1,467.1z M408,448.2c0,2.3,0,4.6-0.1,6.9
				l-10.3-0.1c0-2.3,0-4.5,0-6.8C400.1,451.1,405.6,451,408,448.2z M397.7,446.1c0.1-22.2,0-44.3,0.1-66.5l10.9,0.1
				c-0.1,22.1-0.4,44.3-0.6,66.4C406.8,450.3,398.9,450.5,397.7,446.1z M408.8,458.3c0,2.5,0,4.9,0,7.4c-4,0-8,0-12-0.1
				c0-2.5,0-4.9,0-7.4C400.8,458.3,404.8,458.3,408.8,458.3z M410,376.4c-4.5,0-9,0-13.4-0.1c0.2-1.9,0.8-3.9,2.9-4
				c1.3,0,2.6,0,3.8,0c1.3,0,2.6-0.1,4,0C409.3,372.5,409.8,374.6,410,376.4z M397.6,371.7c0.1-10.7,0.4-21.3,0.5-32
				c0.2,0.1,0.4,0.2,0.7,0.2c1.5,0.3,3.2,0,4.7,0c1.5,0,3.4,0.3,4.9,0c0.1,0,0.3-0.1,0.4-0.1c0,10.6,0.2,21.3,0.1,31.9
				c-0.3-0.2-0.6-0.3-1-0.3c-1.5-0.2-3.2,0-4.7,0c-1.5,0-3.3-0.3-4.7,0C398.2,371.4,397.9,371.5,397.6,371.7z M410.2,334.5
				c-0.2,1.9-0.6,4.4-2.8,4.5c-1.3,0.1-2.6,0-4,0c-1.3,0-2.7,0.1-4,0c-2.1-0.1-2.6-2.6-2.7-4.5C401.2,334.4,405.7,334.5,410.2,334.5
				z M409.2,270.3c0,20.3,0,40.7-0.1,61l-11.3-0.1c0.1-20.3,0.4-40.6,0.6-60.9c0,0,0,0,0,0C399.7,265.4,408,265.2,409.2,270.3z
				 M398.5,268c0-2.2,0-4.4,0-6.7l10.7,0.1c0,2.2,0,4.4,0,6.5C406.7,264.7,401,264.8,398.5,268z M411.7,254.5
				c0.3,0.2,0.6,0.3,0.8,0.6c0,0,0,0,0,0c0,0,0,0,0,0.1c0.1,0.4,0.3,2.2,0.1,2.7c0-0.1-0.3,0-0.7,0.1c-0.6,0-1.2,0.1-1.8,0.1
				c-1.7,0-3.4,0.1-5,0c-1.8,0-3.6,0-5.5-0.1c-1.1,0-3.1,0.2-4.1-0.3c-0.7-0.3-0.6-1-0.4-1.8c0.2-0.9,0.3-0.9,1.2-1.5
				c2.3-1.4,4.9-2.7,7.6-2.8C406.7,251.6,409.4,253,411.7,254.5z M410.3,252.5c-2-1.1-4.1-1.9-6.4-2c-2.3,0.1-4.4,0.9-6.4,1.9
				c0.1-1.9,0.4-5,2.5-5.3c1.3-0.2,2.7,0,3.9,0c1.3,0,2.7-0.2,3.9,0C409.9,247.5,410.2,250.6,410.3,252.5z M408.5,246
				c0,0.1-0.1,0.1-0.1,0.2c-1.3-0.3-3.1,0-4.4,0c-1.3,0-3-0.3-4.4-0.1c0,0,0,0,0,0c-3.5-3.7-1.8-10.1,3.1-11.1
				c0.4,0.1,0.9,0.1,1.3,0.1c0.5,0,1,0,1.4-0.1C410.2,236,411.8,242.3,408.5,246z"/>
			<path d="M402.6,278.3c0.5,0.5,0.9,2.9,1.2,2.9c0.3,0,0.6-2.3,1.1-2.9c0.6-0.6,2.1-0.7,2.1-1.1c0-0.4-1.5-0.5-2.1-1
				c-0.6-0.6-0.9-2.9-1.2-2.9c-0.3,0-0.7,2.4-1.1,2.9c-0.5,0.5-2.1,0.8-2.1,1.1C400.5,277.5,402.1,277.8,402.6,278.3z"/>
			<path d="M402.6,288.2c0.5,0.5,0.9,2.9,1.2,2.9c0.3,0,0.6-2.3,1.1-2.9c0.6-0.6,2.1-0.7,2.1-1.1c0-0.4-1.5-0.5-2.1-1
				c-0.6-0.6-0.9-2.9-1.2-2.9c-0.3,0-0.7,2.4-1.1,2.9c-0.5,0.5-2.1,0.8-2.1,1.1C400.5,287.5,402,287.7,402.6,288.2z"/>
			<path d="M401.8,429.3c0.5,0.5,0.9,2.9,1.2,2.9c0.3,0,0.6-2.3,1.1-2.9c0.6-0.6,2.1-0.7,2.1-1.1c0-0.4-1.5-0.5-2.1-1
				c-0.6-0.6-0.9-2.9-1.2-2.9c-0.3,0-0.7,2.4-1.1,2.9c-0.5,0.5-2.1,0.8-2.1,1.1C399.7,428.6,401.3,428.8,401.8,429.3z"/>
			<path d="M403,442.1c0.3,0,0.6-2.3,1.1-2.9c0.6-0.6,2.1-0.7,2.1-1.1c0-0.4-1.5-0.5-2.1-1c-0.6-0.6-0.9-2.9-1.2-2.9
				c-0.3,0-0.7,2.4-1.1,2.9c-0.5,0.5-2.1,0.8-2.1,1.1c0,0.3,1.6,0.5,2.1,1C402.3,439.8,402.7,442.1,403,442.1z"/>
			<path d="M403.3,364.1c1,0,1.9-0.6,1.9-2.4c0-1.8-1.8-14.5-1.8-14.5s-1.9,12.6-1.9,14.5C401.5,363.5,402.3,364.1,403.3,364.1z"/>
			<polygon points="404.7,239.5 404,235.9 403.3,239.5 401.3,238.2 402.6,240.2 399.1,240.8 402.6,241.6 401.3,243.5 403.3,242.2 
				404,245.8 404.7,242.2 406.6,243.6 405.3,241.6 408.9,240.9 405.3,240.2 406.7,238.2 			"/>
		</g>
	</g>
</g>
</svg>
