<?xml version="1.0" encoding="utf-8"?>
<!-- Generator: Adobe Illustrator 21.1.0, SVG Export Plug-In . SVG Version: 6.00 Build 0)  -->
<svg version="1.1" xmlns="http://www.w3.org/2000/svg" xmlns:xlink="http://www.w3.org/1999/xlink" x="0px" y="0px"
	 viewBox="0 0 504 864" style="enable-background:new 0 0 504 864;" xml:space="preserve">
<style type="text/css">
	.st0{fill:#040404;}
</style>
<g id="Слой_1">
</g>
<g id="Слой_2">
	<g>
		<path d="M503.8,18.2c-1.6-17.9-18.7-16.3-31.6-16.3c-45.9,0-91.8,0-137.6,0c-63.2,0-126.3,0-189.5,0c-40.6,0-81.2,0-121.8,0
			c-2.6,0-5.3-0.2-8,0.2c-9.5,1.2-15,9.2-15.2,18.2c-0.2,7.3,0,14.5,0,21.8c0,37.4,0,74.9,0,112.3c0,57,0,114.1,0,171.1
			c0,64.3,0,128.6,0,192.9c0,58.4,0,116.7,0,175.1c0,40.1,0,80.2,0,120.3c0,9.1,0,18.2,0,27.3c0,11.7,6.7,20.5,19.2,20.7
			c35.9,0.6,71.9,0,107.9,0c62.4,0,124.9,0,187.3,0c49.7,0,99.5,0,149.2,0c7.6,0,15.2,0,22.9,0c0.4,0,0.8-0.1,1.2-0.2
			c14.4-1.8,16.1-13.8,16.1-25.5c0-11.4,0-22.8,0-34.3c0-43.4,0-86.9,0-130.3c0-59.9,0-119.8,0-179.8c0-63.9,0-127.7,0-191.6
			c0-55.3,0-110.6,0-165.9c0-33.7,0-67.3,0-101C503.9,28.3,504.2,23.2,503.8,18.2z M486.6,852.8c-28.3,0-56.6,0-84.9,0
			c-59.9,0-119.8,0-179.7,0c-54,0-108,0-162,0c-13.1,0-26.1,0-39.2,0c-5.6,0-11-1.3-11.7-8.3c-0.2-1.5,0-3,0-4.5c0-26.5,0-53,0-79.5
			c0-50,0-100,0-149.9c0-61.8,0-123.6,0-185.4c0-61.4,0-122.7,0-184.1c0-48.9,0-97.7,0-146.6c0-24.2-0.8-48.6,0-72.7
			c0.2-5.3,1.6-10.1,8.3-10.8c2.2-0.2,4.5,0,6.7,0c14.8,0,29.6,0,44.5,0c55.6,0,111.3,0,166.9,0c58.9,0,117.8,0,176.7,0
			c18.9,0,37.9,0,56.8,0c8.1,0,24.7-3.1,25.9,8.4c0.5,5.2,0,10.8,0,16.1c0,13.5,0,27.1,0,40.6c0,45.5,0,91.1,0,136.6
			c0,60.1,0,120.2,0,180.3c0,62.6,0,125.2,0,187.7c0,52.8,0,105.6,0,158.4c0,31.4,0,62.7,0,94.1C494.8,840.3,496.9,852,486.6,852.8z
			"/>
		<path d="M460,795.6c1.2,0.1,2.4-0.7,2.4-2.2c0-23.7,0-47.4,0-71.1c0-56.4,0-112.8,0-169.2c0-68.7,0-137.4,0-206
			c0-59,0-117.9,0-176.9c0-19.6,0-39.2,0-58.8c0-8.9,1.3-19,0-27.9c-0.1-0.4,0-0.8,0-1.2c0-0.8-0.3-1.3-0.8-1.7
			c0.1-1.2-0.6-2.5-2.2-2.6c-13.1-0.5-25.3-13.8-25.8-26.7c0-0.5-0.2-0.8-0.4-1.1c-0.3-0.6-1-1.1-1.9-1.1c-40.5,0-80.9,0-121.4,0
			c-64.5,0-129,0-193.6,0c-14.9,0-29.7,0-44.6,0c-0.9,0-1.6,0.5-1.9,1.1c-0.2,0.3-0.3,0.7-0.4,1.2C69.1,64.3,57,77.6,43.9,78.1
			c-1.8,0.1-2.5,1.9-2,3.2c-0.2,0.3-0.2,0.6-0.2,1c0,23.7,0,47.4,0,71.1c0,56.4,0,112.8,0,169.2c0,68.7,0,137.4,0,206
			c0,59,0,117.9,0,176.9c0,19.6,0,39.2,0,58.8c0,8.9-1.3,19,0,27.9c0.1,0.4,0,0.8,0,1.2c0,0.9,0.5,1.6,1.1,1.9
			c0.3,0.2,0.7,0.3,1.2,0.4c13,0.5,25.3,13.3,25.8,26.2c0,0.5,0.2,0.8,0.4,1.1c0.3,0.6,1,1.1,1.9,1.1c40.5,0,80.9,0,121.4,0
			c64.5,0,129,0,193.6,0c14.9,0,29.7,0,44.6,0c0.9,0,1.6-0.5,1.9-1.1c0.2-0.3,0.3-0.7,0.4-1.2c0.5-12.9,12.7-25.7,25.8-26.2
			C459.6,795.7,459.8,795.7,460,795.6z M429.3,819.7c-39.8,0-79.6,0-119.3,0c-64.5,0-129,0-193.6,0c-14.2,0-28.3,0-42.5,0
			c-1.7-13.9-13.9-26.5-27.8-28.3c0-23,0-46,0-69.1c0-56.4,0-112.8,0-169.2c0-68.7,0-137.4,0-206c0-59,0-117.9,0-176.9
			c0-19.6,0-39.2,0-58.8c0-8.9,1.3-19,0-27.9c-0.1-0.4,0-0.8,0-1.2c14-1.8,26.1-14.9,27.8-28.7c39.8,0,79.5,0,119.3,0
			c64.5,0,129,0,193.6,0c14.2,0,28.3,0,42.5,0c1.7,14.1,14.3,27.4,28.5,28.8c0,23.7,0,47.3,0,71c0,56.4,0,112.8,0,169.2
			c0,68.7,0,137.4,0,206c0,59,0,117.9,0,176.9c0,19.6,0,39.2,0,58.8c0,8.6-1.2,18.4-0.1,27C443.6,792.8,431.1,805.6,429.3,819.7z"/>
		<path d="M225.9,85.1c0.2,0,0.3,0.1,0.3,0.4c0,0.2,0.3,0.4,1,0.5c0.6,0.1,1.1,0.4,1.5,0.9c0.4,0.5,0.7,1.1,0.7,1.6
			c0,0.5,0.1,1,0.3,1.6c0.2,0.6,0.4,0.9,0.5,0.9c0.1,0,0.2,0.3,0.2,0.8c0,0.6,0.2,1.1,0.5,1.4c0.3,0.3,0.5,0.9,0.8,1.8
			c0.2,0.9,0.3,1.7,0.3,2.5c0,0.9,0.1,1.4,0.4,1.4c0.1,0.1,0.2,0.3,0.2,0.7c0,0.4,0.1,0.6,0.2,0.6c0.2,0.1,0.3,0.6,0.3,1.6
			c0,0.9,0.1,1.4,0.4,1.4c0.2,0,0.4,0.3,0.6,1c0.2,0.7,0.4,1,0.5,1c0.2,0,0.4,0.3,0.4,0.8c0.1,0.7,0.5,1,1.3,1c0.1,0,0.4,0,0.6-0.1
			c0.5-0.1,0.7-0.4,0.7-1.1c0-0.6,0.1-0.9,0.3-0.9c0.2,0,0.3-0.3,0.3-0.9c0-0.6,0.1-0.9,0.3-0.9c0.2-0.1,0.3-0.6,0.3-1.5
			c0-0.9,0.2-1.6,0.6-1.9c0.5-0.5,0.8-0.7,1.1-0.8c0.3-0.1,0.4-0.5,0.4-1.3c0-0.8,0.1-1.2,0.4-1.4c0.2-0.1,0.4-0.6,0.6-1.5
			c0.2-0.9,0.3-1.4,0.4-1.5c0.3-0.2,0.4-0.5,0.4-0.9c0-0.4,0.2-0.6,0.7-0.7c0.4,0,0.6-0.3,0.6-0.7c0-0.2-0.1-0.6-0.1-1
			c0-1,0.2-1.5,0.6-1.5c0.4,0,0.5-0.3,0.5-0.8c0-0.5,0.2-0.9,0.6-1.4c0.4-0.4,0.9-0.7,1.6-0.8c0.8-0.2,1.2-0.6,1.2-1.4
			c0-0.1,0-0.4-0.1-0.7l-0.1-0.6h-3.7c-2.5,0-3.7,0.1-3.7,0.3c0,0.2-0.1,0.3-0.3,0.3c-0.3,0-0.6,0.2-0.9,0.6
			c-0.4,0.5-0.4,0.7-0.2,0.7c0.3,0,0.5,0.1,0.5,0.4c0.1,0.3,0.5,0.4,1.1,0.4c0.6,0,1,0.2,1.1,0.7c0.1,0.5,0.1,0.7-0.1,0.8
			c-0.2,0.1-0.3,0.5-0.3,1.3c0,0.7-0.1,1.2-0.4,1.3c-0.2,0.1-0.3,0.3-0.3,0.7c0,0.1,0.1,0.2,0.1,0.4c0,0.5-0.1,0.9-0.3,1.4
			c-0.2,0.5-0.4,0.8-0.7,0.8c-0.4,0.1-0.5,0.4-0.5,0.9c0,0.5-0.1,0.9-0.3,1.1c-0.2,0.2-0.4,0.8-0.4,1.7c-0.1,1-0.3,1.5-0.6,1.5
			c-0.4,0-0.5,0.2-0.4,0.5c0,0.2,0,0.4,0,0.4c-0.1,0.1-0.2,0.1-0.4,0.1c-0.4,0-0.7-0.1-0.9-0.2c-0.5-0.3-0.7-1.2-0.8-2.9
			c0-0.7-0.1-1.2-0.4-1.4c-0.2-0.2-0.3-0.7-0.3-1.6c0-1.3-0.3-2.2-0.9-2.6c-0.2-0.1-0.2-0.3,0.1-0.4c0.1,0,0.2-0.2,0.3-0.4
			c0.1-0.2,0.1-0.5,0.1-0.7c0-0.2-0.1-0.3-0.2-0.3c-0.1,0-0.3-0.3-0.4-0.8c-0.1-0.6-0.4-0.9-0.7-0.9c-0.3-0.1-0.4-0.2-0.4-0.3
			c0-0.4,0.5-0.5,1.4-0.5c1.3,0,1.9-0.2,1.9-0.7c0-0.2,0.1-0.4,0.3-0.4c0.2,0,0.1-0.3-0.3-0.8c-0.4-0.5-0.9-0.8-1.6-0.8
			c-0.7,0-1.1-0.1-1.2-0.3c-0.1-0.1-0.3-0.1-0.7,0.1c-0.4,0.2-0.6,0.2-0.7-0.1c-0.2-0.2-0.3-0.3-0.4-0.1c-0.1,0.2-0.5,0.3-1.1,0.3
			c-0.4,0-0.6,0-0.8-0.1c-0.1-0.1-0.2-0.3-0.3-0.7c-0.1-0.5-0.3-0.8-0.7-0.8c-0.2,0-0.5,0.2-0.8,0.5c-0.4,0.4-0.7,0.5-1.2,0.5
			c-0.4,0-0.6,0.1-0.6,0.4c0,0.3-0.1,0.4-0.3,0.4s-0.3,0.2-0.3,0.6C225.6,84.8,225.7,85.1,225.9,85.1z"/>
		<path d="M251.7,107.4c0.3,0,0.6,0.1,0.9,0.4c0.3,0.3,0.5,0.4,0.6,0.2c0.1-0.2,1.5-0.4,4-0.4c2.1,0,3.2,0.1,3.2,0.3
			c0,0.2,0.2,0.3,0.5,0.3c0.4,0,0.6-0.1,0.6-0.2s0.2-0.3,0.6-0.5c0.4-0.2,0.6-0.4,0.6-0.6c0-0.9-0.7-1.4-1.9-1.5l-1.3-0.1l0.1-6.7
			c0.1-4.5,0.2-6.8,0.3-7c0.1-0.1,0.2-0.8,0.3-1.9c0.1-2.1,0.4-3.2,0.7-3.2c0.2,0,0.4-0.1,0.4-0.3c0-0.2,0.2-0.3,0.7-0.3
			c0.4,0,0.8-0.1,1-0.3c0.3-0.2,0.4-0.5,0.4-0.7c0-0.3-0.2-0.6-0.5-0.8c-0.3-0.2-1.4-0.3-3.4-0.3c-2,0-2.9,0.1-2.9,0.3
			c0,0.1-0.3,0.2-0.9,0.2c-0.6,0-0.9,0.1-0.9,0.4c0,0.3-0.1,0.4-0.3,0.4s-0.3,0.2-0.3,0.6c0,0.5,0.1,0.8,0.4,0.9
			c0.3,0.1,0.4,0.9,0.4,2.5c0,1.6,0.1,2.4,0.3,2.5c0.2,0.1,0.3,0.8,0.3,2.2c0,1.3-0.1,2-0.3,2.1c-0.2,0.1-0.4,1.5-0.4,4.3
			c-0.1,2.4-0.2,3.9-0.4,4.3c-0.2,0.5-0.8,0.8-1.8,0.9c-0.6,0-0.9,0.1-1,0.2c-0.1,0.1-0.2,0.4-0.2,0.8
			C251.3,107.1,251.4,107.4,251.7,107.4z M257.8,92.8c0.3,0,0.4,0.2,0.4,0.6c0,0.4-0.1,0.5-0.4,0.5c-0.3,0-0.4-0.2-0.4-0.5
			C257.3,93,257.5,92.8,257.8,92.8z M256.1,100.8c0.2,0,0.4,0.1,0.4,0.3c0,0.2-0.1,0.3-0.4,0.3c-0.3,0-0.4-0.1-0.4-0.3
			C255.7,100.9,255.9,100.8,256.1,100.8z"/>
		<path d="M266.7,107.4c0.3,0,0.6,0.1,0.9,0.4c0.3,0.3,0.5,0.4,0.6,0.2c0.1-0.2,1.5-0.4,4-0.4c2.1,0,3.2,0.1,3.2,0.3
			c0,0.2,0.2,0.3,0.5,0.3c0.4,0,0.6-0.1,0.6-0.2s0.2-0.3,0.6-0.5c0.4-0.2,0.6-0.4,0.6-0.6c0-0.9-0.7-1.4-1.9-1.5l-1.3-0.1l0.1-6.7
			c0.1-4.5,0.2-6.8,0.3-7c0.1-0.1,0.2-0.8,0.3-1.9c0.1-2.1,0.4-3.2,0.7-3.2c0.2,0,0.4-0.1,0.4-0.3c0-0.2,0.2-0.3,0.7-0.3
			c0.4,0,0.8-0.1,1-0.3c0.3-0.2,0.4-0.5,0.4-0.7c0-0.3-0.2-0.6-0.5-0.8c-0.3-0.2-1.4-0.3-3.4-0.3c-2,0-2.9,0.1-2.9,0.3
			c0,0.1-0.3,0.2-0.9,0.2c-0.6,0-0.9,0.1-0.9,0.4c0,0.3-0.1,0.4-0.3,0.4s-0.3,0.2-0.3,0.6c0,0.5,0.1,0.8,0.4,0.9
			c0.3,0.1,0.4,0.9,0.4,2.5c0,1.6,0.1,2.4,0.3,2.5c0.2,0.1,0.3,0.8,0.3,2.2c0,1.3-0.1,2-0.3,2.1c-0.2,0.1-0.4,1.5-0.4,4.3
			c-0.1,2.4-0.2,3.9-0.4,4.3c-0.2,0.5-0.8,0.8-1.8,0.9c-0.6,0-0.9,0.1-1,0.2c-0.1,0.1-0.2,0.4-0.2,0.8
			C266.3,107.1,266.4,107.4,266.7,107.4z M272.8,92.8c0.3,0,0.4,0.2,0.4,0.6c0,0.4-0.1,0.5-0.4,0.5c-0.3,0-0.4-0.2-0.4-0.5
			C272.3,93,272.5,92.8,272.8,92.8z M271.1,100.8c0.2,0,0.4,0.1,0.4,0.3c0,0.2-0.1,0.3-0.4,0.3c-0.3,0-0.4-0.1-0.4-0.3
			C270.7,100.9,270.9,100.8,271.1,100.8z"/>
		<path d="M103.3,795.2c0-0.6-0.1-0.9-0.2-1.1c-0.1-0.2-0.3-0.4-0.6-0.5c-0.3-0.1-0.5-0.3-0.5-0.4c-0.1-0.1-0.3-0.3-0.9-0.6
			c-0.5-0.3-1-0.5-1.3-0.6c-0.2-0.1-0.5-0.2-0.9-0.5c-0.4-0.3-0.6-0.4-0.6-0.5c0-0.1-0.1-0.2-0.2-0.3c-0.2-0.1-0.2-0.2-0.2-0.3
			c0,0,0-0.1,0-0.1c0.1-0.1,0.1-0.2,0.1-0.3c0-0.1,0-0.3-0.1-0.6c0-0.1,0-0.2,0-0.2c0,0,0.2-0.1,0.3-0.1c0.3,0,0.4-0.1,0.4-0.2
			c0-0.1,0.1-0.2,0.4-0.4c0.3-0.2,0.4-0.3,0.4-0.3c0-0.1,0.1-0.1,0.4-0.2c0.1,0,0.1,0,0.2,0c0.4,0,0.8,0.2,1.2,0.5
			c0.5,0.3,0.7,0.6,0.7,0.9c0,0.2,0.1,0.4,0.3,0.5c0.2,0.1,0.3,0.3,0.3,0.4s0.1,0.3,0.2,0.5c0.2,0.2,0.3,0.3,0.4,0.3c0,0,0,0,0.1,0
			c0.1-0.1,0.1-0.7,0.2-2v-0.8c0-0.6-0.1-0.9-0.2-0.9c-0.1,0-0.1,0-0.1,0c-0.3,0.1-0.6,0.2-0.8,0.2c-0.3,0-0.6-0.1-1-0.3
			c-0.4-0.2-0.6-0.3-0.7-0.3c0,0-0.1,0-0.2,0.1c-0.3,0.1-0.6,0.1-0.8,0.1c-0.3,0-0.4,0-0.5,0.1c0,0.1-0.1,0.2-0.3,0.2
			c-0.2,0-0.4-0.1-0.5-0.2c-0.1-0.1-0.3-0.2-0.5-0.2h0c-0.1,0-0.1,0-0.1,0c-0.1,0-0.1,0-0.1,0c0,0,0.1,0,0.1,0
			c0.1,0.1,0.2,0.1,0.2,0.2c0,0.2-0.2,0.3-0.5,0.4c-0.3,0.1-0.4,0.2-0.4,0.4c0.1,0.2,0,0.3-0.2,0.4c-0.3,0.1-0.6,0.5-1.1,1.1
			c-0.1,0.2-0.2,0.4-0.2,0.6c0,0,0,0.3,0.1,0.8c0.1,0.7,0.3,1.1,0.4,1.3c0.1,0.2,0.4,0.4,0.7,0.7c0.4,0.3,0.6,0.4,0.8,0.4
			c0.1,0,0.3,0.1,0.6,0.4c0.4,0.3,0.9,0.6,1.7,0.8c0.5,0.1,0.8,0.3,1.1,0.6c0.2,0.2,0.3,0.4,0.5,0.7c0.1,0.3,0.2,0.5,0.2,0.7
			c0,0.1,0,0.1-0.1,0.2c-0.1,0-0.1,0.2-0.1,0.4c0.1,0.2,0,0.4-0.2,0.6c-0.1,0.1-0.2,0.3-0.2,0.4c0,0.2-0.5,0.4-1.4,0.5
			c-0.1,0-0.3,0-0.6,0c-0.9,0-1.7-0.4-2.2-1.2c-0.3-0.4-0.5-0.8-0.5-1c0,0,0-0.1,0-0.2c0-0.1,0-0.2,0-0.2c0,0-0.1-0.1-0.1-0.1
			c-0.1,0-0.1,0-0.1-0.1c0.1-0.3-0.1-0.5-0.4-0.6c-0.1,0-0.2-0.1-0.3-0.1c-0.3,0-0.4,0.2-0.5,0.5c-0.1,1.2-0.1,1.9-0.2,1.9
			c-0.1,0.1-0.1,0.4-0.2,0.8c0,0.1,0,0.3,0,0.4c0,0.2,0.1,0.4,0.3,0.6c0.1,0.1,0.2,0.2,0.3,0.2c0,0,0.1,0,0.2-0.2
			c0.1-0.2,0.2-0.3,0.2-0.4c0-0.3,0.2-0.3,0.5-0.1c0.9,0.4,1.8,0.7,2.9,0.7c0.5,0,1.1-0.1,1.6-0.2c0.6-0.1,1.1-0.3,1.4-0.6
			c0.3-0.3,0.5-0.5,0.5-0.5c0-0.1,0.1-0.2,0.2-0.3c0.2-0.1,0.3-0.4,0.3-0.9c0.1-0.5,0.1-0.7,0.2-0.7c0.1,0,0.1,0,0-0.1
			C103.4,796.3,103.3,795.9,103.3,795.2z M98.9,793.7C98.8,793.7,98.8,793.7,98.9,793.7c-0.1-0.1-0.1-0.1,0-0.1
			C99,793.6,99,793.6,98.9,793.7C99,793.7,99,793.7,98.9,793.7z"/>
		<path d="M97.4,794.5c0-0.1,0-0.2-0.1-0.2c-0.1,0-0.1,0-0.1,0.1l0.1,0.2C97.4,794.7,97.4,794.7,97.4,794.5z"/>
		<path d="M121.2,795c-0.1,0-0.3,0.2-0.5,0.5s-0.4,0.6-0.4,0.7c0,0.1-0.1,0.2-0.4,0.2c-0.2,0-0.3,0.1-0.3,0.1c0,0,0,0.1,0,0.3v0.2
			c0,0.2-0.1,0.3-0.4,0.3c0,0-0.1,0-0.2,0c-0.1,0-0.1,0-0.2,0c-0.2,0-0.4,0.1-0.7,0.4c-0.2,0.2-0.4,0.3-0.6,0.3
			c-0.1,0-0.2-0.1-0.2-0.2s-0.2-0.1-0.4,0c-0.2,0.1-0.6,0.2-1.2,0.2c-0.5,0-0.7,0-0.7-0.1s-0.1-0.1-0.2-0.1c-0.1,0-0.1-0.1-0.2-0.2
			c-0.1-0.2-0.1-0.3-0.1-0.5c0,0,0-0.6,0.1-1.8c0-1.2,0.1-1.8,0.1-1.8c0-0.1,0.5-0.1,1.4-0.1c0.8,0,1.3,0.1,1.5,0.2
			c0.3,0.1,0.4,0.4,0.4,0.8c0,0.2,0,0.3,0.1,0.3c0,0,0.1,0,0.2,0c0.2-0.1,0.4-0.1,0.6-0.1h0.1c0.2,0,0.3-0.2,0.3-0.6
			c0-0.1,0-0.2,0-0.3c0-0.2,0-0.3,0-0.4v-0.3c0-0.4,0-0.6,0.1-0.6c0.1-0.1,0.1-0.3,0-0.4c-0.1-0.1-0.1-0.3,0.1-0.4
			c0.2-0.1,0.2-0.2,0.2-0.4c0-0.3-0.4-0.4-1.1-0.4c-0.4,0-0.6,0.2-0.6,0.5c0,0.1,0,0.2,0.1,0.3c0.1,0.2,0,0.3-0.1,0.5
			c-0.1,0.1-0.4,0.2-0.9,0.3c-0.6,0.1-1.1,0.2-1.6,0.2h-0.6v-0.6c0-0.4,0.1-0.6,0.2-0.6c0.1,0,0.2-0.1,0.2-0.4
			c0-0.3-0.1-0.6-0.2-0.9c-0.1-0.2-0.2-0.4-0.2-0.4c0-0.1,0.1-0.1,0.2-0.3c0.2-0.2,0.3-0.3,0.2-0.5c0,0,0-0.1,0-0.2
			c0-0.2,0.1-0.3,0.4-0.4c0.3-0.1,0.8-0.1,1.5-0.2c0.6,0,1-0.1,1.1-0.1c0.4,0,0.6,0.1,0.7,0.2c0.2,0.2,0.3,0.3,0.5,0.4
			c0.2,0.1,0.3,0.2,0.3,0.3c0,0.1,0.1,0.2,0.4,0.4c0.2,0.1,0.4,0.3,0.4,0.3c0,0.2,0.1,0.3,0.3,0.5c0.2,0.2,0.4,0.3,0.6,0.3h0.1
			c0.3,0,0.4-0.2,0.4-0.7c0-0.2-0.1-0.4-0.2-0.5c-0.1-0.2-0.2-0.4-0.2-0.6c0-0.3-0.1-0.5-0.2-0.5c-0.1-0.1-0.1-0.2,0-0.4
			c0.1-0.1,0.1-0.2,0.1-0.3c0-0.1-0.1-0.1-0.2-0.2s-0.2-0.2-0.2-0.3c0-0.1-0.1-0.3-0.3-0.5c-0.1-0.1-0.2-0.2-0.3-0.2
			c-0.1,0-0.2,0-0.3,0.1c-0.2,0.1-1.9,0.3-5,0.4h-0.7c-1.5,0-2.3-0.1-2.4-0.3c0-0.1-0.1-0.1-0.3-0.1c-0.1,0-0.2,0-0.2,0.1
			c0,0.1-0.1,0.2-0.1,0.3c0,0.2,0,0.3,0,0.3c0,0.2-0.1,0.3-0.3,0.4c-0.2,0-0.3,0.2-0.2,0.5c0.1,0.2,0.1,0.4,0.2,0.5
			c0.1,0.1,0.2,0.1,0.3,0.1s0.3,0,0.4,0c0.1,0,0.1,0,0.2,0c0.1,0,0.1,0,0.2,0c0.4,0,0.6,0.1,0.7,0.4c0.1,0.2,0.1,0.8,0.1,1.5
			c0,0.9-0.1,1.4-0.2,1.5c-0.1,0-0.1,0.2,0,0.4c0.1,0.3,0.1,0.5,0,0.7c-0.1,0.2-0.2,0.3-0.3,0.3c-0.1,0-0.1,0.1,0.1,0.2
			c0.1,0.1,0.1,0.3,0.1,0.6c0,0.3-0.1,1.3-0.2,3l-0.1,1h-0.6c-0.4,0-0.6,0.1-0.7,0.3c-0.1,0.2-0.2,0.3-0.3,0.3
			c-0.2,0-0.2,0.1-0.2,0.4c0,0.3,0.1,0.5,0.3,0.6c0.2,0.1,0.3,0.3,0.3,0.4c0,0.1,0.1,0.2,0.3,0.2c0.2,0,0.5,0,0.8-0.1
			c0.3-0.1,0.5-0.2,0.6-0.2c0.2-0.1,0.6-0.2,1.2-0.2c0.1,0,0.6,0,1.5,0.1c0.8,0,1.2,0.1,1.2,0.2c0.1,0.1,0.2,0.1,0.4,0
			c0.3-0.1,0.8-0.2,1.6-0.2c0.9,0,1.4,0,1.6-0.1c0.2,0,0.3-0.1,0.5-0.2c0.2-0.2,0.3-0.4,0.2-0.6c-0.1-0.2,0-0.4,0.2-0.4
			c0.1-0.1,0.2-0.4,0.2-0.8c0-0.3,0-0.5,0.1-0.6c0-0.1,0.1-0.1,0.2-0.1c0.2,0,0.3-0.2,0.3-0.5c0-0.3-0.1-0.5-0.2-0.7
			C121.5,795.1,121.4,795,121.2,795z"/>
		<path d="M110.5,796.9c0.1,0,0.1-0.1,0.2-0.1c0.1-0.2,0.1-0.3-0.1-0.3c-0.1,0-0.2,0.1-0.2,0.2C110.4,796.9,110.4,796.9,110.5,796.9
			z"/>
		<path d="M140.9,785.8h-2c-1.3,0-2,0-2,0.1c0,0.1-0.1,0.2-0.2,0.2c-0.1,0-0.3,0.1-0.5,0.4c-0.2,0.2-0.2,0.4-0.1,0.4
			c0.1,0,0.2,0.1,0.3,0.2c0.1,0.1,0.2,0.2,0.6,0.2c0.2,0,0.3,0,0.4,0.1c0.1,0.1,0.1,0.2,0.2,0.3c0.1,0.2,0,0.4-0.1,0.4
			c-0.1,0-0.2,0.3-0.2,0.6c0,0.4-0.1,0.6-0.2,0.7c-0.2,0.1-0.2,0.2-0.2,0.4c0,0,0,0.1,0,0.2c0,0.3-0.1,0.5-0.2,0.8
			c-0.1,0.3-0.2,0.4-0.4,0.5c-0.2,0.1-0.3,0.2-0.3,0.5c0,0.3,0,0.5-0.1,0.6s-0.2,0.4-0.2,0.9c-0.1,0.5-0.2,0.8-0.3,0.8
			c-0.1,0-0.2,0.1-0.2,0.2v0.2c0,0.1-0.1,0.2-0.2,0.2c-0.2,0-0.4,0-0.5-0.1c-0.2-0.2-0.4-0.7-0.4-1.5c0-0.3-0.1-0.5-0.2-0.8
			c-0.1-0.2-0.2-0.5-0.2-0.9c0-0.8-0.2-1.2-0.5-1.4c-0.1-0.1-0.1-0.1,0-0.2c0.1-0.1,0.2-0.2,0.2-0.5c0-0.2,0-0.3-0.1-0.3
			c-0.1,0-0.1-0.1-0.2-0.4c-0.1-0.3-0.2-0.4-0.4-0.5c-0.2-0.1-0.2-0.1-0.2-0.2c0-0.2,0.2-0.3,0.7-0.3c0.7,0,1.1-0.1,1.1-0.4
			c0-0.1,0.1-0.2,0.2-0.2s0.1-0.1-0.2-0.4c-0.2-0.3-0.5-0.4-0.8-0.4c-0.4,0-0.6-0.1-0.6-0.2c-0.1-0.1-0.2-0.1-0.4,0.1
			c-0.2,0.1-0.3,0.1-0.4,0c-0.1-0.1-0.2-0.2-0.2,0c-0.1,0.1-0.3,0.2-0.6,0.2c-0.2,0-0.3,0-0.4-0.1c-0.1-0.1-0.1-0.2-0.2-0.4
			c-0.1-0.3-0.2-0.4-0.4-0.4c-0.1,0-0.3,0.1-0.5,0.3c-0.2,0.2-0.4,0.3-0.6,0.3c-0.2,0-0.3,0.1-0.3,0.2c0,0.1,0,0.2-0.1,0.2
			c-0.1,0-0.1,0.1-0.1,0.4c0,0.2,0,0.4,0.1,0.4c0.1,0,0.1,0.1,0.1,0.2c0,0.1,0.2,0.2,0.5,0.3c0.3,0.1,0.6,0.2,0.8,0.5
			c0.2,0.3,0.4,0.6,0.4,0.9c0,0.3,0.1,0.5,0.2,0.9c0.1,0.3,0.2,0.5,0.3,0.5c0.1,0,0.1,0.2,0.1,0.5c0,0.3,0.1,0.5,0.3,0.7
			c0.2,0.2,0.3,0.5,0.4,1c0.1,0.5,0.2,0.9,0.2,1.4c0,0.5,0.1,0.7,0.2,0.8c0.1,0,0.2,0.1,0.1,0.3c0,0.2,0,0.3,0.1,0.4
			c0.1,0.1,0.2,0.4,0.2,0.9c0,0.5,0.1,0.8,0.2,0.8c0.1,0,0.2,0.2,0.3,0.6c0.1,0.4,0.2,0.6,0.3,0.6c0.1,0,0.2,0.1,0.3,0.4
			c0.1,0.4,0.3,0.6,0.7,0.6c0.1,0,0.2,0,0.3-0.1c0.2,0,0.3-0.1,0.3-0.1c0-0.1,0.1-0.2,0.1-0.4c0-0.3,0.1-0.5,0.2-0.5
			c0.1,0,0.1-0.2,0.1-0.5c0-0.3,0.1-0.5,0.2-0.5c0.1-0.1,0.2-0.3,0.2-0.8c0-0.5,0.1-0.8,0.4-1.1c0.1-0.1,0.2-0.2,0.4-0.3
			c0.2-0.1,0.3-0.2,0.3-0.3c0.1-0.1,0.1-0.3,0.1-0.6c0-0.4,0.1-0.6,0.2-0.8c0.1-0.1,0.2-0.3,0.3-0.8c0.1-0.5,0.2-0.7,0.3-0.8
			c0.1-0.1,0.2-0.3,0.2-0.5c0-0.2,0.1-0.4,0.4-0.4c0.1,0,0.1,0,0.2,0c0.1,0,0.1,0,0.1-0.1c0,0,0-0.1,0.1-0.1c0,0,0-0.1,0-0.1
			c0-0.1,0-0.3,0-0.5c0-0.6,0.1-0.8,0.3-0.8c0.2,0,0.3-0.1,0.3-0.4c0-0.3,0.1-0.5,0.4-0.7c0.2-0.2,0.5-0.4,0.8-0.4
			c0.4-0.1,0.7-0.3,0.7-0.8c0-0.1,0-0.2-0.1-0.4L140.9,785.8z"/>
		<path d="M148,796.7c0,0.1,0,0.2,0.1,0.2c0,0,0.1,0,0.1-0.1c0.1-0.2,0.1-0.3,0-0.3C148,796.5,148,796.5,148,796.7z"/>
		<path d="M158.3,795c-0.1,0-0.3,0.2-0.5,0.5c-0.3,0.3-0.4,0.6-0.4,0.7c0,0.1-0.1,0.2-0.4,0.2c-0.1,0-0.2,0-0.3,0.1
			c0,0-0.1,0.1-0.1,0.1c0,0,0,0.1,0,0.3c0,0.2-0.1,0.3-0.4,0.3c0,0-0.1,0-0.1,0c-0.1,0-0.1,0-0.2,0c-0.2,0-0.4,0.1-0.6,0.3
			c-0.2,0.2-0.4,0.3-0.6,0.3c-0.1,0-0.2-0.1-0.2-0.2c0-0.1-0.1-0.1-0.4,0c-0.2,0.1-0.6,0.2-1.2,0.2c-0.5,0-0.7,0-0.7-0.1
			c0-0.1-0.1-0.1-0.2-0.1c-0.1,0-0.1-0.1-0.2-0.2c-0.1-0.2-0.1-0.3-0.1-0.4c0-0.1,0-0.2,0-0.3c0-0.2,0-0.4,0-0.6c0-0.3,0-0.5,0-0.8
			c0-0.3,0-0.5,0-0.8c0-0.3,0-0.5,0-0.6v-0.2c0-0.1,0.4-0.1,1.3-0.1c0.7,0,1.2,0.1,1.4,0.2c0.2,0.1,0.4,0.4,0.4,0.8
			c0,0.2,0,0.3,0.1,0.3c0,0,0.1,0,0.2,0c0.1-0.1,0.3-0.1,0.5-0.1c0.1,0,0.2,0,0.3-0.1c0-0.1,0.1-0.2,0.1-0.5c0-0.1,0-0.2,0-0.3
			c0-0.2,0-0.3,0-0.4V793c0-0.3,0-0.6,0.1-0.7c0.1-0.1,0.1-0.3,0-0.4c-0.1-0.1-0.1-0.3,0.1-0.4c0.1-0.1,0.2-0.2,0.2-0.4
			c0-0.3-0.3-0.4-1-0.4c-0.4,0-0.6,0.2-0.6,0.5c0,0.1,0,0.2,0.1,0.3c0,0.2,0,0.4,0,0.5c-0.1,0.1-0.3,0.2-0.9,0.3
			c-0.5,0.1-1,0.1-1.5,0.1h-0.6v-0.6c0-0.4,0.1-0.6,0.2-0.6c0.1,0,0.2-0.1,0.2-0.4c0-0.3-0.1-0.5-0.2-0.9c-0.1-0.2-0.2-0.4-0.1-0.4
			c0-0.1,0.1-0.1,0.2-0.3c0.2-0.1,0.3-0.3,0.2-0.5c0,0,0-0.1,0-0.2c0-0.1,0.1-0.3,0.4-0.3c0.3-0.1,0.7-0.1,1.5-0.2
			c0.7,0,1.1-0.1,1.1-0.1c0.3,0,0.5,0.1,0.6,0.2c0.1,0.2,0.3,0.3,0.5,0.4c0.2,0.1,0.3,0.2,0.3,0.3c0,0.1,0.1,0.2,0.3,0.3
			c0.2,0.1,0.3,0.2,0.3,0.3c0,0.2,0.1,0.3,0.3,0.5c0.2,0.2,0.4,0.2,0.6,0.2h0c0.3,0,0.4-0.2,0.4-0.6c0-0.2-0.1-0.3-0.2-0.5
			c-0.1-0.1-0.2-0.3-0.2-0.5c0-0.3-0.1-0.5-0.2-0.5c-0.1,0-0.1-0.1,0-0.4c0.1-0.1,0.1-0.2,0.1-0.3c0,0-0.1-0.1-0.1-0.1
			c-0.1-0.1-0.2-0.2-0.2-0.3c0-0.1-0.1-0.3-0.3-0.5c-0.2-0.2-0.4-0.3-0.6-0.1c-0.3,0.1-1.8,0.3-4.7,0.4h-0.7c-1.5,0-2.2-0.1-2.3-0.3
			c0-0.1-0.1-0.1-0.2-0.1c-0.1,0-0.2,0-0.2,0.1l0,0.1c0,0.1,0,0.1,0,0.1c0,0,0,0.1,0,0.2c0,0.1,0,0.2,0,0.2c0,0.2-0.1,0.3-0.3,0.3
			c-0.2,0.1-0.3,0.2-0.2,0.5c0.1,0.2,0.1,0.4,0.2,0.5c0.1,0.1,0.2,0.1,0.3,0.1c0.1,0,0.3,0,0.4,0c0.1,0,0.2,0,0.4,0
			c0.3,0,0.5,0.1,0.6,0.4c0.1,0.2,0.1,0.7,0.1,1.4c0,0.9-0.1,1.4-0.2,1.4c-0.1,0-0.1,0.2,0,0.4c0.1,0.2,0.1,0.4,0,0.6
			c-0.1,0.2-0.2,0.3-0.3,0.3c-0.1,0-0.1,0.1,0.1,0.2c0.1,0.1,0.1,0.3,0.1,0.6c0,0.5-0.1,1.5-0.2,2.8l-0.1,0.9h-0.6
			c-0.4,0-0.6,0.1-0.6,0.3c0,0.2-0.1,0.3-0.3,0.3c-0.1,0-0.2,0.1-0.2,0.3c0,0.3,0.1,0.5,0.3,0.6c0.2,0.1,0.3,0.2,0.3,0.4
			c0,0.1,0.2,0.1,0.7,0.1c0.5,0,0.8-0.1,0.9-0.3c0.1-0.1,0.5-0.2,1.2-0.2c0.5,0,0.9,0,1.3,0c0.7,0,1.1,0.1,1.2,0.2
			c0,0.1,0.2,0.1,0.4,0c0.2-0.1,0.7-0.2,1.5-0.2c0.8,0,1.3,0,1.5-0.1c0.2,0,0.3-0.1,0.5-0.3c0.2-0.2,0.3-0.3,0.2-0.5
			c0-0.2,0-0.3,0.1-0.4c0.1-0.1,0.2-0.3,0.2-0.8c0-0.3,0-0.5,0-0.6c0-0.1,0.1-0.1,0.2-0.1c0.2,0,0.3-0.2,0.3-0.5
			c0-0.2-0.1-0.4-0.2-0.6C158.6,795.1,158.4,795,158.3,795z"/>
		<path d="M178.9,786.8c-0.1,0-0.2,0-0.3,0.1c-0.2,0.1-0.3,0.1-0.3,0.1c-0.1,0-0.1-0.1-0.2-0.2c-0.1-0.2-0.3-0.3-0.4-0.3
			c-0.1,0-0.2-0.1-0.2-0.3c0-0.2-0.1-0.3-0.3-0.3c-0.2,0-0.3,0.1-0.3,0.3c0,0.2,0.1,0.3,0.2,0.3s0.2,0.1,0.2,0.3
			c0,0.2-0.1,0.3-0.2,0.3c-0.2,0-0.3-0.1-0.3-0.4c-0.1-0.2-0.2-0.4-0.3-0.4c-0.1,0-0.1,0-0.2,0.1c-0.2,0.2-0.2,0.3,0,0.3
			c0.1,0,0.2,0.1,0.2,0.1c0,0.1-0.1,0.2-0.4,0.2c-0.2,0-0.4,0-0.4-0.1c0-0.1-0.1-0.1-0.4-0.1c-0.4,0-0.8,0.1-1.1,0.2
			c-0.4,0.2-0.6,0.4-0.6,0.7c0,0.3,0.3,0.5,0.8,0.6c0.4,0.1,0.6,0.1,0.6,0.2c0,0.1,0.1,0.1,0.3,0.1c0.3,0,0.5,0.2,0.6,0.6
			c0.1,0.4,0.2,1.2,0.2,2.4c0,1.4,0.1,2.2,0.1,2.4c0.1,0.1,0,0.3,0,0.6l-0.1,0.4l-0.5-0.5c-0.4-0.3-0.5-0.5-0.5-0.6
			c0-0.1-0.1-0.2-0.2-0.3c-0.1-0.1-0.3-0.2-0.4-0.4c-0.2-0.1-0.3-0.2-0.3-0.2c-0.1-0.1-0.3-0.2-0.3-0.2c-0.1,0-0.2-0.1-0.2-0.2
			c0-0.1-0.1-0.2-0.2-0.3c-0.1-0.1-0.3-0.2-0.4-0.2s-0.1-0.1-0.1-0.2c0-0.1-0.1-0.2-0.2-0.2c-0.1,0-0.1,0-0.1-0.1
			c0-0.1-0.1-0.2-0.4-0.5c-0.2-0.3-0.4-0.4-0.4-0.5c0-0.1-0.1-0.2-0.3-0.2c-0.2,0-0.3-0.1-0.5-0.2c-0.2-0.1-0.2-0.3-0.2-0.4
			c0-0.1-0.2-0.3-0.5-0.7c-0.3-0.4-0.5-0.6-0.5-0.7c0-0.1-0.1-0.2-0.3-0.4c-0.2-0.2-0.3-0.4-0.3-0.4c0-0.3-0.6-0.5-1.8-0.6
			c-0.6,0-0.9-0.1-0.9-0.1c-0.3,0-0.4,0.1-0.4,0.2c0,0.1,0,0.2,0,0.4c0,0.2,0,0.4,0.1,0.6c0.1,0.2,0.1,0.3,0.2,0.3
			c0.1,0,0.2,0.2,0.3,0.6c0.1,0.4,0.2,0.6,0.2,0.6c0.1,0,0.1,0.3,0.1,0.8c0,0.5,0,0.8-0.1,0.8c-0.1,0-0.1,0.1-0.1,0.4
			c0,0.2,0.1,0.6,0.2,1c0.1,0.2,0.1,0.6,0.1,1.1c0,0.7-0.1,1.1-0.2,1.1c-0.1,0-0.1,0.2-0.1,0.7c0,0.5,0,1.1-0.1,1.5
			c0,0.4-0.1,0.6-0.1,0.7c-0.1,0.1-0.2,0.2-0.4,0.2c-0.3,0.1-0.4,0.2-0.4,0.4c0,0.2,0.1,0.4,0.4,0.6c0.2,0.2,0.3,0.3,0.5,0.3
			c0.2,0,0.8,0,1.7,0c1,0,1.6,0,1.8-0.1c0.2-0.1,0.3-0.3,0.3-0.8c0-0.3-0.1-0.4-0.3-0.5c-0.2-0.1-0.3-0.1-0.3-0.2
			c0-0.1-0.2-0.1-0.6-0.1c-0.4,0-0.7-0.1-0.9-0.3c-0.2-0.2-0.2-0.3-0.1-0.4c0.1-0.1,0.2-0.2,0.2-0.6c0-0.3,0-0.5-0.1-0.5
			c-0.1-0.1-0.1-0.9-0.1-2.6c0-1.7,0.1-2.5,0.2-2.5c0.1,0,0.3,0.1,0.4,0.2c0.1,0.1,0.3,0.2,0.5,0.3c0.3,0.1,0.4,0.3,0.5,0.4
			c0,0.2,0.3,0.5,0.8,1.1c0.5,0.5,0.9,0.9,1.3,1.1c0.2,0.1,0.3,0.2,0.3,0.3c0,0.1,0.2,0.2,0.5,0.6c0.7,0.7,1.1,1.1,1.1,1.4
			c0,0.1,0.1,0.1,0.3,0.1c0.2,0,0.3,0,0.3,0.1c0,0.1,0.1,0.3,0.4,0.5c0.2,0.2,0.4,0.4,0.4,0.6c0,0.1,0.1,0.3,0.3,0.5
			c0.2,0.2,0.3,0.3,0.4,0.3c0.1,0,0.3,0.2,0.6,0.5c0.3,0.3,0.5,0.5,0.7,0.6c0.1,0.1,0.2,0.1,0.3,0.1c0.4,0,0.6-0.2,0.6-0.6
			c0-0.1,0-0.2,0-0.4c0-0.9-0.1-1.4-0.2-1.6c-0.1-0.1-0.1-0.5-0.1-1.3v-0.4c0-1,0-1.6-0.1-1.6c-0.1-0.1-0.2-0.4-0.2-1
			c0-0.5,0-0.8,0.1-0.8c0.1-0.1,0.2-0.2,0.2-0.5s0-0.4,0.1-0.4c0.1,0,0.1-0.1,0.1-0.4c0-0.3,0-0.4-0.1-0.4c-0.1,0-0.1-0.1-0.1-0.4
			c0-0.4,0.1-0.7,0.2-1c0.2-0.3,0.4-0.5,0.7-0.5c0.2,0,0.4-0.1,0.4-0.1c0.1,0,0.1-0.2,0.1-0.5v-0.2
			C179.2,787,179.1,786.8,178.9,786.8z"/>
		<path d="M210.5,790.5c-0.2-0.1-0.2-0.2-0.2-0.5c0-0.3,0-0.5-0.1-0.5c-0.1,0-0.1-0.1-0.1-0.4s-0.1-0.4-0.2-0.4
			c-0.1,0-0.2-0.1-0.3-0.3c-0.1-0.2-0.2-0.3-0.3-0.4c-0.1-0.1-0.2-0.2-0.2-0.4c0-0.2-0.1-0.3-0.4-0.3c-0.7,0-1-0.1-1-0.4
			c0-0.1-0.1-0.2-0.2-0.2c-0.1,0-0.2,0-0.2-0.1c0-0.1-0.1-0.1-0.3-0.1c-0.2,0-0.3-0.1-0.4-0.2c0-0.1-0.5-0.2-1.5-0.2
			c-0.9,0-1.5,0.1-1.6,0.2c-0.1,0.1-0.2,0.2-0.4,0.2c-0.2,0-0.3,0.1-0.4,0.3c-0.1,0.2-0.3,0.4-0.6,0.4c-0.3,0-0.6,0.1-1.1,0.2
			c-0.5,0.1-0.7,0.3-0.8,0.5c0,0.2-0.2,0.4-0.5,0.7c-0.3,0.3-0.4,0.5-0.4,0.5c0,0.1-0.1,0.1-0.2,0.1c-0.1,0-0.2,0.1-0.3,0.4
			c-0.1,0.2-0.2,0.5-0.3,0.7c-0.2,0.3-0.2,0.8-0.2,1.8c0,1.2,0.1,2.1,0.4,2.9c0.5,1.4,0.9,2.2,1.2,2.3c0.2,0,0.3,0.1,0.3,0.3
			c0,0.2,0.2,0.2,0.4,0.2c0.2,0,0.4,0,0.4,0.1s0.1,0.1,0.3,0.1c0.2,0,0.3,0.1,0.3,0.4c0,0.2,0,0.3,0.1,0.4c0.1,0.1,0.2,0,0.4-0.1
			c0.1-0.1,0.2-0.1,0.3,0c0.2,0.1,0.9,0.2,2.2,0.2c1.1,0,1.7-0.1,1.7-0.2c0-0.1,0.3-0.2,0.7-0.2c0.4,0,0.6-0.1,0.6-0.2
			c0-0.2,0.1-0.3,0.2-0.3c0,0,0.2-0.1,0.4-0.3c0.3-0.2,0.4-0.3,0.5-0.3c0.1,0,0.2-0.1,0.2-0.3c0.1-0.2,0.2-0.3,0.3-0.3
			c0.1,0,0.2-0.1,0.3-0.3c0-0.2,0.2-0.3,0.4-0.3c0.2-0.1,0.3-0.1,0.3-0.2c0-0.1,0.1-0.1,0.2-0.1c0.1,0,0.2-0.2,0.2-0.6
			c0-0.3,0-0.5-0.1-0.5c-0.1,0-0.1-0.1,0-0.2c0.1-0.1,0.2-0.8,0.2-2.1c0-0.3,0-0.7,0-1.1C210.8,790.8,210.7,790.5,210.5,790.5z
			 M208.3,793.6c-0.1,0-0.2,0.2-0.2,0.4c0,0.3-0.1,0.4-0.2,0.5c-0.1,0.1-0.2,0.4-0.3,0.8c-0.1,0.4-0.1,0.6-0.3,0.6
			c-0.1,0-0.2,0-0.2,0.1c0,0.1-0.1,0.2-0.4,0.2c-0.3,0.1-0.4,0.2-0.4,0.3c0,0.1,0,0.2-0.1,0.2c-0.1,0.1-0.2,0.1-0.4,0.2
			c-0.1,0.1-0.2,0.1-0.3,0.1c0,0.1-0.2,0.1-0.4,0.1c-0.2,0-0.3,0.1-0.5,0.2c-0.1,0.1-0.2,0.1-0.4,0.1c-0.2,0-0.4,0-0.7-0.1
			c-0.5-0.1-1-0.3-1.3-0.6c-0.3-0.3-0.7-0.8-1-1.5c-0.3-0.5-0.4-0.9-0.5-1.1c0-0.2-0.1-0.7-0.1-1.4c0-0.7,0-1.1,0.1-1.4
			c0-0.2,0.1-0.5,0.3-0.8c0.3-0.5,0.6-0.9,1-1.3c0.4-0.4,0.8-0.6,1-0.7c0.3,0,0.5-0.1,0.5-0.3c0-0.1,0.1-0.2,0.2-0.2
			c0.1,0,0.2,0,0.2-0.1c0-0.1,0.1-0.1,0.3-0.1c0.2,0,0.3,0,0.3,0.1c0,0.1,0.3,0.1,0.9,0.1c0.5,0,0.8,0.1,0.8,0.2
			c0,0.1,0.1,0.2,0.3,0.3c0.2,0.1,0.3,0.2,0.3,0.3c0,0.1,0.1,0.2,0.3,0.3c0.3,0.1,0.5,0.4,0.5,0.8c0,0.2,0.1,0.5,0.3,0.8
			c0.2,0.3,0.3,0.7,0.3,1.1c0,0.5,0,0.7,0.1,0.8c0.1,0.1,0.1,0.2,0.1,0.4C208.5,793.3,208.4,793.5,208.3,793.6z"/>
		<path d="M228.3,788.6c0-0.3-0.1-0.5-0.2-0.6c-0.1-0.1-0.1-0.2,0-0.4c0.1-0.1,0.1-0.2,0.1-0.2c0-0.1-0.1-0.2-0.2-0.2
			c-0.1-0.1-0.2-0.2-0.2-0.3c0-0.2-0.1-0.3-0.3-0.5c-0.2-0.2-0.4-0.3-0.5-0.3c-0.1,0-0.2,0-0.2,0.1c0,0.1-0.3,0.1-0.9,0.2
			c-0.5,0.1-1.1,0.1-1.7,0.1c-0.6,0-0.9,0-1,0.1c-0.1,0-0.5,0.1-1.4,0.1c-0.9,0.1-1.8,0.2-2.7,0.3c-0.9,0.1-1.4,0.2-1.4,0.2
			c0,0,0,0.1,0,0.2c0,0.1,0,0.2,0.1,0.3c0.1,0.2,0.1,0.3,0.2,0.4c0.1,0,0.3,0.1,0.6,0.1c0.5,0,0.9,0.1,1,0.3
			c0.1,0.2,0.2,0.7,0.2,1.6c0,0.9-0.1,1.4-0.2,1.5c-0.1,0.1-0.1,0.2,0,0.4c0.1,0.3,0.2,0.5,0,0.7c-0.1,0.2-0.2,0.3-0.3,0.3
			c-0.1,0,0,0.1,0.1,0.2c0.1,0.1,0.1,0.3,0.1,0.6c0,0.1,0,0.4-0.1,0.8c-0.1,1.4-0.2,2.3-0.2,2.6s-0.1,0.5-0.3,0.6
			c-0.2,0.1-0.5,0.3-0.8,0.6l-0.5,0.6h5v-0.5c0-0.2,0-0.4-0.1-0.4c0-0.1-0.1-0.1-0.3-0.1c-0.2,0-0.4,0-0.4-0.1
			c0-0.1-0.1-0.1-0.2-0.1s-0.2-0.1-0.3-0.3c0-0.1,0-0.4,0-1.2c0-1.2,0-2.1,0.1-2.8c0-0.1,0.5-0.1,1.4-0.1c0.8,0,1.3,0.1,1.5,0.2
			c0.3,0.1,0.4,0.4,0.4,0.9c0,0.3,0,0.5,0.1,0.5c0.1,0,0.1-0.1,0.3-0.2c0.1-0.1,0.3-0.2,0.5-0.1c0.2,0.1,0.3,0,0.3-0.2
			c0-0.2,0-0.3,0.1-0.4c0.1-0.1,0.1-0.2,0-0.2c-0.1-0.1-0.2-0.3-0.2-0.6c0-0.4,0.1-0.7,0.2-0.8c0.1-0.1,0.1-0.1,0.1-0.2
			c0-0.1,0-0.1-0.1-0.2c-0.1-0.1-0.1-0.2-0.1-0.2c0-0.1,0-0.1,0.1-0.2c0.2-0.1,0.2-0.2,0.2-0.4c0-0.3-0.4-0.4-1.1-0.4
			c-0.4,0-0.6,0.2-0.6,0.5c0,0.1,0,0.2,0.1,0.3c0.1,0.2,0,0.4,0,0.5c-0.1,0.1-0.4,0.2-1,0.3c-0.6,0.1-1.1,0.2-1.6,0.2h-0.5v-0.6
			c0-0.4,0.1-0.6,0.2-0.7c0.1-0.1,0.2-0.2,0.2-0.4c0-0.3-0.1-0.5-0.2-0.8c-0.1-0.2-0.2-0.4-0.2-0.4s0.1-0.1,0.2-0.3
			c0.2-0.2,0.3-0.4,0.2-0.6c0-0.1,0-0.1,0-0.2c0-0.1,0.1-0.2,0.4-0.3c0.3-0.1,0.8-0.1,1.6-0.1c0.7,0,1.1-0.1,1.1-0.1
			c0.3,0,0.5,0.1,0.7,0.2c0.2,0.2,0.3,0.3,0.5,0.4c0.2,0.1,0.3,0.2,0.3,0.3c0,0.1,0.1,0.3,0.3,0.4c0.2,0.1,0.4,0.3,0.5,0.6
			c0.1,0.4,0.4,0.5,0.8,0.5c0.1,0,0.2,0,0.3-0.1c0.1-0.1,0.2-0.2,0.2-0.6c0-0.3-0.1-0.5-0.2-0.5C228.4,789.2,228.3,789,228.3,788.6z
			"/>
		<path d="M249.8,784.4c0-0.1-0.1-0.1-0.3-0.1c-0.2,0-0.3,0-0.3,0.1c0,0.1,0.1,0.2,0.3,0.2C249.7,784.5,249.8,784.5,249.8,784.4z"/>
		<path d="M257.5,787.2c-0.1,0-0.2,0-0.2-0.1c0-0.1-0.1-0.2-0.4-0.3c-0.3-0.1-0.4-0.3-0.5-0.5l-0.2-0.3c-0.1-0.1-0.2-0.1-0.2,0.1
			c0,0.1-0.3,0.1-0.8,0.1c-0.6,0-0.9,0-0.9-0.1c0-0.1-0.1-0.1-0.3-0.1c-0.5,0-0.8-0.1-0.8-0.4c0-0.1-0.1-0.2-0.3-0.2
			s-0.3,0.1-0.2,0.3c0,0,0,0,0,0.1s0,0,0,0.1c0,0.1-0.6,0.2-1.8,0.2h-1.8l-0.5,0.5c-0.3,0.3-0.5,0.5-0.5,0.7c0,0.2,0.2,0.4,0.7,0.4
			c0.2,0,0.3,0,0.3,0.1c0,0.1,0,0.1,0.1,0.1c0.2,0,0.4,0.2,0.6,0.5c0.2,0.3,0.3,0.7,0.3,1.2c0,0.4,0.1,0.6,0.1,0.6
			c0,0.2-0.1,0.4-0.2,0.5c-0.2,0.1-0.2,0.2-0.1,0.3c0.1,0.1,0.2,0.3,0.2,0.7c0,0.3-0.1,0.5-0.2,0.5c-0.2,0-0.2,0,0,0.1
			c0.1,0.1,0.1,0.3,0,0.6c-0.1,0.3-0.1,0.5,0.1,0.6c0.1,0.1,0.1,0.2,0.1,0.3c0,0.2-0.1,0.4-0.2,0.5c-0.1,0.1-0.1,0.6-0.2,1.6l0,1.5
			l-0.4,0.2c-0.2,0.1-0.5,0.2-1.1,0.2c-0.3,0-0.5,0.1-0.5,0.1s-0.1,0.2-0.1,0.4c0,0.2,0.2,0.5,0.6,0.8c0.2,0.1,0.3,0.2,0.5,0.2
			c0.2,0,0.3-0.1,0.3-0.2c0.1-0.1,0.8-0.2,2.1-0.2c1.4-0.1,2.1-0.1,2.2-0.3c0.1-0.1,0.2-0.2,0.3-0.2c0.1,0,0.2-0.1,0.2-0.2
			c0-0.1-0.1-0.2-0.4-0.2c-0.3,0-0.4-0.1-0.5-0.3c0-0.2-0.2-0.3-0.5-0.4c-0.4-0.1-0.5-0.2-0.5-0.4c0-0.1,0-0.2,0.1-0.3
			c0.2-0.2,0.2-0.3,0.1-0.4c-0.1,0-0.2-0.6-0.2-1.6c0-0.3,0-0.6,0-1c0-0.3,0-0.4,0.1-0.5c0-0.1,0.1-0.1,0.2-0.1c0.2,0,0.5,0,0.8,0.1
			c0.3,0.1,0.5,0.2,0.6,0.3c0.1,0.1,0.7,0.2,1.7,0.2c0.8,0,1.2,0,1.2-0.1c0.1-0.1,0-0.2-0.2-0.3c-0.2-0.1-0.4-0.2-0.5-0.4
			c-0.1-0.1-0.2-0.2-0.2-0.2c0,0,0.1-0.1,0.3-0.1c0.3-0.1,0.4-0.1,0.4-0.2s0.1-0.2,0.4-0.3c0.3-0.1,0.4-0.2,0.4-0.4
			c0-0.5,0.1-0.7,0.3-0.7c0.1,0,0.2-0.1,0.4-0.2c0.2-0.2,0.2-0.7,0.2-1.5c0-1-0.1-1.5-0.3-1.7C257.7,787.3,257.6,787.2,257.5,787.2z
			 M255.9,790.9c0,0-0.1,0.1-0.4,0.1h-0.1c0,0-0.1,0-0.1,0c-0.1,0-0.1,0,0,0.1c0.1,0.1,0.2,0.1,0.2,0.2c0,0.1-0.1,0.3-0.3,0.5
			c-0.2,0.2-0.5,0.3-0.7,0.3c-0.3,0-0.6,0.1-1.1,0.2c-0.1,0-0.2,0-0.3,0c-0.2,0-0.4-0.1-0.7-0.3c-0.2-0.2-0.3-0.3-0.4-0.3
			c0-0.1,0-0.1,0.1-0.2c0.1-0.1,0.2-0.7,0.2-1.6v-1.2c0-0.3,0.1-0.5,0.2-0.7c0.1-0.2,0.3-0.4,0.4-0.4h0.1l0.4,0.1
			c0.3,0,0.5,0.1,0.8,0.1c0.2,0.1,0.4,0.1,0.4,0.1c0,0.1,0.1,0.1,0.4,0.2c0.3,0.1,0.4,0.2,0.4,0.3c0,0.1,0.1,0.3,0.2,0.4
			c0.1,0.1,0.2,0.2,0.1,0.3c-0.1,0.1-0.1,0.3,0.1,0.6c0.1,0.2,0.2,0.4,0.2,0.6C256,790,256,790.3,255.9,790.9z"/>
		<path d="M254.2,785.4C254.3,785.3,254.3,785.3,254.2,785.4c0.1-0.1,0-0.1-0.2-0.1c-0.2,0-0.3,0.1-0.3,0.2
			C253.8,785.5,254,785.5,254.2,785.4C254.2,785.4,254.2,785.4,254.2,785.4z"/>
		<path d="M275.3,795c-0.1,0-0.3,0.2-0.5,0.5c-0.3,0.3-0.4,0.6-0.4,0.7c0,0.1-0.1,0.2-0.4,0.2c-0.1,0-0.2,0-0.3,0.1
			c0,0-0.1,0.1-0.1,0.1c0,0,0,0.1,0,0.3c0,0.2-0.1,0.3-0.4,0.3c0,0-0.1,0-0.1,0c-0.1,0-0.1,0-0.2,0c-0.2,0-0.4,0.1-0.6,0.3
			c-0.2,0.2-0.4,0.3-0.6,0.3c-0.1,0-0.2-0.1-0.2-0.2c0-0.1-0.1-0.1-0.4,0c-0.2,0.1-0.6,0.2-1.2,0.2c-0.5,0-0.7,0-0.7-0.1
			c0-0.1-0.1-0.1-0.2-0.1c-0.1,0-0.1-0.1-0.2-0.2c-0.1-0.2-0.1-0.3-0.1-0.4c0-0.1,0-0.2,0-0.3c0-0.2,0-0.4,0-0.6c0-0.3,0-0.5,0-0.8
			c0-0.3,0-0.5,0-0.8c0-0.3,0-0.5,0-0.6v-0.2c0-0.1,0.4-0.1,1.3-0.1c0.7,0,1.2,0.1,1.4,0.2c0.2,0.1,0.4,0.4,0.4,0.8
			c0,0.2,0,0.3,0.1,0.3c0,0,0.1,0,0.2,0c0.1-0.1,0.3-0.1,0.5-0.1c0.1,0,0.2,0,0.3-0.1c0-0.1,0.1-0.2,0.1-0.5c0-0.1,0-0.2,0-0.3
			s0-0.3,0-0.4V793c0-0.3,0-0.6,0.1-0.7c0.1-0.1,0.1-0.3,0-0.4c-0.1-0.1-0.1-0.3,0.1-0.4c0.1-0.1,0.2-0.2,0.2-0.4
			c0-0.3-0.3-0.4-1-0.4c-0.4,0-0.6,0.2-0.6,0.5c0,0.1,0,0.2,0.1,0.3c0,0.2,0,0.4,0,0.5c-0.1,0.1-0.3,0.2-0.9,0.3
			c-0.5,0.1-1,0.1-1.5,0.1h-0.6v-0.6c0-0.4,0.1-0.6,0.2-0.6c0.1,0,0.2-0.1,0.2-0.4c0-0.3-0.1-0.5-0.2-0.9c-0.1-0.2-0.2-0.4-0.1-0.4
			c0-0.1,0.1-0.1,0.2-0.3c0.2-0.1,0.3-0.3,0.2-0.5c0,0,0-0.1,0-0.2c0-0.1,0.1-0.3,0.4-0.3c0.3-0.1,0.7-0.1,1.5-0.2
			c0.7,0,1.1-0.1,1.1-0.1c0.3,0,0.5,0.1,0.6,0.2c0.1,0.2,0.3,0.3,0.5,0.4c0.2,0.1,0.3,0.2,0.3,0.3c0,0.1,0.1,0.2,0.3,0.3
			c0.2,0.1,0.3,0.2,0.3,0.3c0,0.2,0.1,0.3,0.3,0.5c0.2,0.2,0.4,0.2,0.6,0.2h0c0.3,0,0.4-0.2,0.4-0.6c0-0.2-0.1-0.3-0.2-0.5
			c-0.1-0.1-0.2-0.3-0.2-0.5c0-0.3-0.1-0.5-0.2-0.5c-0.1,0-0.1-0.1,0-0.4c0.1-0.1,0.1-0.2,0.1-0.3c0,0-0.1-0.1-0.1-0.1
			c-0.1-0.1-0.2-0.2-0.2-0.3c0-0.1-0.1-0.3-0.3-0.5c-0.2-0.2-0.4-0.3-0.6-0.1c-0.3,0.1-1.8,0.3-4.7,0.4h-0.7c-1.5,0-2.2-0.1-2.3-0.3
			c0-0.1-0.1-0.1-0.2-0.1c-0.1,0-0.2,0-0.2,0.1l0,0.1c0,0.1,0,0.1,0,0.1c0,0,0,0.1,0,0.2c0,0.1,0,0.2,0,0.2c0,0.2-0.1,0.3-0.3,0.3
			c-0.2,0.1-0.3,0.2-0.2,0.5c0.1,0.2,0.1,0.4,0.2,0.5c0.1,0.1,0.2,0.1,0.3,0.1c0.1,0,0.3,0,0.4,0c0.1,0,0.2,0,0.4,0
			c0.3,0,0.5,0.1,0.6,0.4c0.1,0.2,0.1,0.7,0.1,1.4c0,0.9-0.1,1.4-0.2,1.4c-0.1,0-0.1,0.2,0,0.4c0.1,0.2,0.1,0.4,0,0.6
			c-0.1,0.2-0.2,0.3-0.3,0.3c-0.1,0-0.1,0.1,0.1,0.2c0.1,0.1,0.1,0.3,0.1,0.6c0,0.5-0.1,1.5-0.2,2.8l-0.1,0.9h-0.6
			c-0.4,0-0.6,0.1-0.6,0.3c0,0.2-0.1,0.3-0.3,0.3c-0.1,0-0.2,0.1-0.2,0.3c0,0.3,0.1,0.5,0.3,0.6c0.2,0.1,0.3,0.2,0.3,0.4
			c0,0.1,0.2,0.1,0.7,0.1c0.5,0,0.8-0.1,0.9-0.3c0.1-0.1,0.5-0.2,1.2-0.2c0.5,0,0.9,0,1.3,0c0.7,0,1.1,0.1,1.2,0.2
			c0,0.1,0.2,0.1,0.4,0c0.2-0.1,0.7-0.2,1.5-0.2c0.8,0,1.3,0,1.5-0.1c0.2,0,0.3-0.1,0.5-0.3c0.2-0.2,0.3-0.3,0.2-0.5
			c0-0.2,0-0.3,0.1-0.4c0.1-0.1,0.2-0.3,0.2-0.8c0-0.3,0-0.5,0-0.6c0-0.1,0.1-0.1,0.2-0.1c0.2,0,0.3-0.2,0.3-0.5
			c0-0.2-0.1-0.4-0.2-0.6C275.6,795.1,275.5,795,275.3,795z"/>
		<path d="M265.3,796.8c0.1-0.2,0.1-0.3,0-0.3c-0.1,0-0.2,0.1-0.2,0.2c0,0.1,0,0.2,0.1,0.2C265.2,796.9,265.2,796.8,265.3,796.8z"/>
		<path d="M295.9,786.8c-0.1,0-0.2,0-0.3,0.1c-0.2,0.1-0.3,0.1-0.3,0.1c-0.1,0-0.1-0.1-0.2-0.2c-0.1-0.2-0.3-0.3-0.4-0.3
			c-0.1,0-0.2-0.1-0.2-0.3c0-0.2-0.1-0.3-0.3-0.3c-0.2,0-0.3,0.1-0.3,0.3c0,0.2,0.1,0.3,0.2,0.3s0.2,0.1,0.2,0.3
			c0,0.2-0.1,0.3-0.2,0.3c-0.2,0-0.3-0.1-0.3-0.4c-0.1-0.2-0.2-0.4-0.3-0.4c-0.1,0-0.1,0-0.2,0.1c-0.2,0.2-0.2,0.3,0,0.3
			c0.1,0,0.2,0.1,0.2,0.1c0,0.1-0.1,0.2-0.4,0.2c-0.2,0-0.4,0-0.4-0.1c0-0.1-0.1-0.1-0.4-0.1c-0.4,0-0.8,0.1-1.1,0.2
			c-0.4,0.2-0.6,0.4-0.6,0.7c0,0.3,0.3,0.5,0.8,0.6c0.4,0.1,0.6,0.1,0.6,0.2c0,0.1,0.1,0.1,0.3,0.1c0.3,0,0.5,0.2,0.6,0.6
			c0.1,0.4,0.2,1.2,0.2,2.4c0,1.4,0.1,2.2,0.1,2.4c0.1,0.1,0,0.3,0,0.6l-0.1,0.4l-0.5-0.5c-0.4-0.3-0.5-0.5-0.5-0.6
			c0-0.1-0.1-0.2-0.2-0.3c-0.1-0.1-0.3-0.2-0.4-0.4c-0.2-0.1-0.3-0.2-0.3-0.2c-0.1-0.1-0.3-0.2-0.3-0.2c-0.1,0-0.2-0.1-0.2-0.2
			c0-0.1-0.1-0.2-0.2-0.3c-0.1-0.1-0.3-0.2-0.4-0.2c-0.1,0-0.1-0.1-0.1-0.2c0-0.1-0.1-0.2-0.2-0.2c-0.1,0-0.1,0-0.1-0.1
			c0-0.1-0.1-0.2-0.4-0.5c-0.2-0.3-0.4-0.4-0.4-0.5c0-0.1-0.1-0.2-0.3-0.2c-0.2,0-0.3-0.1-0.5-0.2c-0.2-0.1-0.2-0.3-0.2-0.4
			c0-0.1-0.2-0.3-0.5-0.7c-0.3-0.4-0.5-0.6-0.5-0.7c0-0.1-0.1-0.2-0.3-0.4c-0.2-0.2-0.3-0.4-0.3-0.4c0-0.3-0.6-0.5-1.8-0.6
			c-0.6,0-0.9-0.1-0.9-0.1c-0.3,0-0.4,0.1-0.4,0.2c0,0.1,0,0.2,0,0.4c0,0.2,0,0.4,0.1,0.6c0.1,0.2,0.1,0.3,0.2,0.3
			c0.1,0,0.2,0.2,0.3,0.6c0.1,0.4,0.2,0.6,0.2,0.6c0.1,0,0.1,0.3,0.1,0.8c0,0.5,0,0.8-0.1,0.8c-0.1,0-0.1,0.1-0.1,0.4
			c0,0.2,0.1,0.6,0.2,1c0.1,0.2,0.1,0.6,0.1,1.1c0,0.7-0.1,1.1-0.2,1.1c-0.1,0-0.1,0.2-0.1,0.7c0,0.5,0,1.1-0.1,1.5
			c0,0.4-0.1,0.6-0.1,0.7c-0.1,0.1-0.2,0.2-0.4,0.2c-0.3,0.1-0.4,0.2-0.4,0.4c0,0.2,0.1,0.4,0.4,0.6c0.2,0.2,0.3,0.3,0.5,0.3
			c0.2,0,0.8,0,1.7,0c1,0,1.6,0,1.8-0.1c0.2-0.1,0.3-0.3,0.3-0.8c0-0.3-0.1-0.4-0.3-0.5c-0.2-0.1-0.3-0.1-0.3-0.2
			c0-0.1-0.2-0.1-0.6-0.1c-0.4,0-0.7-0.1-0.9-0.3c-0.2-0.2-0.2-0.3-0.1-0.4c0.1-0.1,0.2-0.2,0.2-0.6c0-0.3,0-0.5-0.1-0.5
			c-0.1-0.1-0.1-0.9-0.1-2.6c0-1.7,0.1-2.5,0.2-2.5c0.1,0,0.3,0.1,0.4,0.2c0.1,0.1,0.3,0.2,0.5,0.3c0.3,0.1,0.4,0.3,0.5,0.4
			c0,0.2,0.3,0.5,0.8,1.1c0.5,0.5,0.9,0.9,1.3,1.1c0.2,0.1,0.3,0.2,0.3,0.3c0,0.1,0.2,0.2,0.5,0.6c0.7,0.7,1.1,1.1,1.1,1.4
			c0,0.1,0.1,0.1,0.3,0.1c0.2,0,0.3,0,0.3,0.1c0,0.1,0.1,0.3,0.4,0.5c0.2,0.2,0.4,0.4,0.4,0.6c0,0.1,0.1,0.3,0.3,0.5
			c0.2,0.2,0.3,0.3,0.4,0.3c0.1,0,0.3,0.2,0.6,0.5c0.3,0.3,0.5,0.5,0.7,0.6c0.1,0.1,0.2,0.1,0.3,0.1c0.4,0,0.6-0.2,0.6-0.6
			c0-0.1,0-0.2,0-0.4c0-0.9-0.1-1.4-0.2-1.6c-0.1-0.1-0.1-0.5-0.1-1.3v-0.4c0-1,0-1.6-0.1-1.6c-0.1-0.1-0.2-0.4-0.2-1
			c0-0.5,0-0.8,0.1-0.8c0.1-0.1,0.2-0.2,0.2-0.5s0-0.4,0.1-0.4c0.1,0,0.1-0.1,0.1-0.4c0-0.3,0-0.4-0.1-0.4c-0.1,0-0.1-0.1-0.1-0.4
			c0-0.4,0.1-0.7,0.2-1c0.2-0.3,0.4-0.5,0.7-0.5c0.2,0,0.4-0.1,0.4-0.1c0.1,0,0.1-0.2,0.1-0.5v-0.2
			C296.3,787,296.1,786.8,295.9,786.8z"/>
		<path d="M315.6,788.8c0.1,0,0.2-0.2,0.2-0.5c0-0.3-0.1-0.4-0.2-0.4c-0.1,0-0.1-0.1-0.1-0.3c0-0.2,0.1-0.4,0.2-0.7
			c0.1-0.3,0-0.5-0.2-0.7c-0.2-0.2-0.5-0.3-0.9-0.3c-0.4,0-0.8,0.1-1.1,0.4c-0.3,0.2-0.5,0.3-0.6,0.2c-0.1-0.1-0.1-0.1-0.3-0.1
			c-0.1,0-0.2,0-0.6,0.1c-0.4,0.1-1.3,0.2-2.7,0.2c-1,0-1.5,0-1.6-0.1c-0.1-0.1-0.2,0-0.4,0.2c-0.1,0.1-0.3,0.2-0.4,0.2
			c-0.1,0-0.3,0-0.8-0.1c-0.8-0.2-1.2-0.3-1.3-0.3c0,0-0.1,0-0.3,0.1c-0.1,0-0.3,0.1-0.4,0.3c-0.1,0.2-0.2,0.4-0.2,0.5
			c0,0,0,0.1,0.1,0.2c0.1,0.1,0.1,0.2,0.2,0.5c0,0.1,0,0.2-0.1,0.3c-0.1,0-0.2,0.1-0.4,0.1c-0.1,0-0.3,0-0.4,0.1
			c-0.1,0.1-0.2,0.2-0.2,0.2c0,0.1,0,0.1,0.1,0.2c0.1,0.1,0.1,0.3,0.1,0.7c0,0.3-0.1,0.5-0.1,0.5c0,0.5,0.2,0.8,0.6,0.8
			c0.3,0,0.4-0.1,0.4-0.2c0-0.1,0.1-0.2,0.2-0.2c0.3,0,0.3-0.2,0-0.5c-0.1-0.1-0.2-0.2-0.2-0.3c0,0,0.1-0.1,0.3-0.1
			c0.2-0.1,0.3-0.2,0.2-0.4c-0.1-0.2,0-0.4,0-0.6c0.1-0.1,0.1-0.3,0-0.6c-0.1-0.3-0.1-0.4,0-0.4c0.1,0,0.1,0.1,0.1,0.2
			c0,0.1,0.2,0.3,0.6,0.4c0.4,0.1,0.8,0.2,1.1,0.2c0.4,0,0.7,0.1,0.9,0.3c0.2,0.2,0.4,0.2,0.5,0.2c0.1,0,0.2,0,0.2,0
			c0,0,0,0.1-0.1,0.1c-0.3,0.4-0.4,2.4-0.5,6.1c0,0.8-0.1,1.2-0.3,1.4c-0.2,0.2-0.3,0.3-0.3,0.5c0,0.1-0.3,0.2-0.8,0.2l-0.8,0.1
			l-0.1,0.6c0,0,0,0.1,0,0.1c0,0.1,0,0.1,0,0.1c0,0.2,0.2,0.5,0.5,0.8c0.3,0.3,0.6,0.4,0.7,0.4c0.1,0,0.2,0,0.2-0.1
			c0-0.1-0.1-0.1-0.2-0.1c-0.1,0-0.1,0-0.1-0.1c0-0.1,0.2-0.1,0.5-0.1c0.1,0,0.4,0,0.9,0c0.4,0,0.8,0,1,0c0.5,0,0.9,0,1-0.1
			c0.1-0.1,0.3-0.2,0.6-0.1c0.2,0,0.3,0,0.4-0.1c0.1-0.1,0.2-0.1,0.3-0.1c0.1,0,0.3-0.1,0.5-0.3c0.1-0.1,0.2-0.2,0.2-0.3
			c0-0.1-0.1-0.2-0.2-0.5c-0.2-0.3-0.3-0.5-0.5-0.5c-0.1,0-0.2-0.1-0.2-0.2c0-0.1-0.1-0.2-0.3-0.1c0,0-0.1,0-0.1,0
			c-0.1,0-0.1,0-0.1,0c-0.1,0-0.2,0-0.3-0.1c0-0.1-0.1-0.3-0.1-0.5v-0.5c0-0.5,0-0.8,0-0.9c0-0.1,0.1-0.2,0.2-0.2
			c0.2,0,0.2-0.1,0.2-0.4c0-0.3-0.1-0.5-0.2-0.5c-0.1,0-0.2-0.4-0.2-1.1c0-0.8,0.1-1.3,0.2-1.4c0.1-0.1,0.2-0.6,0.2-1.2
			c0-0.7,0.1-1.1,0.1-1.2c0.1-0.2,0.5-0.2,1.2-0.2c1.1,0,1.7,0.1,1.8,0.4c0,0.1,0.1,0.2,0.4,0.5c0.2,0.2,0.3,0.5,0.4,0.8
			c0,0.3,0.1,0.5,0.1,0.5c0.1,0.1,0.2,0.1,0.4,0.1c0.3,0,0.4,0,0.4-0.1c0-0.1,0.1-0.2,0.3-0.3c0.2-0.1,0.3-0.2,0.3-0.4
			s-0.1-0.4-0.3-0.6C315.5,789,315.5,788.9,315.6,788.8z"/>
		<path d="M336.4,797.7c-0.1,0-0.1-0.1-0.2-0.4c-0.1-0.2-0.1-0.3-0.2-0.3c0,0-0.3,0.1-0.8,0.2c0,0-0.1,0-0.2,0c-0.4,0-0.7-0.6-1-1.7
			c-0.2-0.8-0.4-1.3-0.4-1.4c-0.1-0.1-0.2-0.3-0.2-0.5c-0.1-0.4-0.3-1.3-0.8-2.8c-0.5-1.5-0.7-2.4-0.8-2.7c-0.2-1-0.4-1.5-0.5-1.7
			c-0.1-0.2-0.2-0.3-0.4-0.3c-0.3-0.1-0.4,0-0.5,0.1c-0.1,0.1-0.2,0.2-0.4,0.2c-0.2,0-0.4,0.1-0.4,0.2c0,0.1-0.1,0.1-0.2,0.1
			c-0.1,0-0.2,0.2-0.4,0.6c-0.2,0.4-0.3,0.8-0.5,1.2c-0.1,0.4-0.2,0.6-0.3,0.7c-0.1,0.1-0.1,0.2-0.1,0.4c0,0.2-0.1,0.6-0.4,1.2
			c-0.3,0.6-0.5,1.1-0.5,1.5c-0.1,0.4-0.2,0.6-0.2,0.7c-0.1,0.1-0.2,0.3-0.4,0.8c-0.2,0.5-0.3,0.7-0.3,0.8c-0.1,0.2-0.2,0.4-0.2,0.5
			c0,0.2,0,0.2-0.1,0.2c-0.1,0-0.2,0.1-0.3,0.4c-0.1,0.2-0.2,0.4-0.2,0.6c0,0.1-0.2,0.3-0.5,0.6c-0.3,0.3-0.5,0.4-0.7,0.4
			c-0.2,0-0.3,0.1-0.5,0.4c-0.2,0.2-0.4,0.4-0.5,0.4c-0.1,0-0.2,0.1-0.4,0.4c-0.1,0.2-0.1,0.3-0.1,0.4c0,0.1,0.1,0.3,0.4,0.5
			l0.5,0.4l2-0.1c1.1,0,1.8-0.1,2.1-0.1s0.5-0.1,0.5-0.2c0,0,0-0.1-0.1-0.2c-0.1-0.2-0.1-0.3,0.1-0.3c0.1,0,0.2-0.1,0.2-0.2
			c0-0.1-0.1-0.2-0.2-0.2c-0.1,0-0.3-0.1-0.4-0.2c-0.1-0.1-0.4-0.2-0.7-0.3c-0.5-0.1-0.7-0.3-0.7-0.5c0-0.1,0-0.2,0.1-0.3
			c0.1-0.2,0.2-0.3,0.2-0.5c0-0.1,0-0.2,0.1-0.2c0.1,0,0.1-0.2,0.1-0.7v-0.7h0.6c0.4,0,0.7-0.1,0.7-0.2c0.1-0.2,0.6-0.2,1.5-0.2h0.4
			c0.7,0,1,0,1.1,0.1c0.1,0.1,0.2,0.4,0.2,0.8c0,0.5,0.1,0.8,0.3,0.9c0.2,0.2,0.3,0.4,0.3,0.6c0,0,0,0,0,0.1c0,0,0,0.1,0,0.1
			c0,0.3-0.1,0.4-0.1,0.5c-0.1,0.1-0.3,0.1-0.6,0.2c-0.5,0.1-0.7,0.2-0.8,0.3c0,0.1-0.1,0.1-0.3,0.1c-0.2,0-0.3,0.1-0.3,0.3
			c0,0.3,0,0.4,0.1,0.5c0.1,0.1,0.3,0.1,0.6,0.1c0.3,0,0.7,0,1.3-0.1c0.6-0.1,1.3-0.1,2-0.1c0.4,0,0.7,0,0.8,0c0.2,0,0.4,0,0.6,0
			c0.3,0,0.5-0.1,0.5-0.3c0.1-0.2,0.1-0.3,0.2-0.3c0.1,0,0.1-0.2,0.1-0.5C336.5,797.8,336.5,797.7,336.4,797.7z M330.2,793.2
			c0,0-0.1,0-0.2,0c-0.1,0-0.1,0-0.1,0c-0.3,0-0.5,0.1-0.6,0.2c-0.1,0.1-0.3,0.2-0.4,0.2s-0.3-0.1-0.4-0.2c-0.1-0.1-0.2-0.2-0.3-0.2
			s-0.2-0.1-0.2-0.2c0-0.1,0-0.2,0.1-0.2c0.1,0,0.2-0.1,0.3-0.4c0.1-0.3,0.2-0.5,0.2-0.7c0-0.2,0.1-0.3,0.2-0.4
			c0.1,0,0.2-0.3,0.2-0.8c0.1-0.6,0.3-0.9,0.6-0.9c0.2,0,0.3,0.1,0.5,0.2c0.1,0.1,0.2,0.2,0.4,0.5c0.1,0.3,0.2,0.4,0.2,0.5
			c0,0-0.1,0.1-0.3,0.1c-0.2,0-0.3,0.1-0.4,0.2c-0.1,0.1,0,0.2,0.1,0.2c0.1,0,0.2,0.1,0.2,0.2c0.1,0.1,0.2,0.3,0.2,0.4
			c0.1,0.2,0.1,0.2,0.2,0.3c0.1,0.1,0.1,0.3,0.2,0.6l0.1,0.5L330.2,793.2z"/>
		<path d="M353.8,788.1h-0.9c-0.5,0-0.8,0-1-0.1c-0.2-0.1-0.3-0.2-0.3-0.5c0-0.1,0-0.2-0.1-0.3c-0.1,0-0.1,0-0.2,0.1
			c-0.1,0.1-0.4,0.2-0.7,0.2c-0.1,0-0.2,0-0.2-0.1c0-0.1-0.2-0.1-0.7-0.1c-0.4,0-0.7,0.1-0.8,0.2c-0.1,0.1-0.2,0.2-0.4,0.2
			c-0.2,0-0.3,0-0.4,0c-0.1,0-0.1,0-0.2,0c-0.1,0-0.1,0-0.2,0c-0.3,0-0.5,0.1-0.7,0.4c-0.3,0.3-0.5,0.4-0.7,0.5
			c-0.1,0-0.3,0.2-0.5,0.5c-0.2,0.3-0.4,0.4-0.5,0.4c-0.4,0.1-0.7,0.4-0.7,0.9c0,0.2-0.1,0.4-0.2,0.6c-0.1,0.2-0.2,0.4-0.2,0.6
			c0,0.3,0,0.4-0.1,0.5c-0.1,0.1-0.2,0.2-0.2,0.4c0,0.2-0.1,0.3-0.2,0.4c-0.1,0.1-0.2,0.5-0.2,1.4c0,1,0.1,1.5,0.2,1.6
			c0.1,0,0.1,0.1,0.1,0.2c0,0.1,0,0.2-0.1,0.2c-0.1,0,0,0.2,0.2,0.4c0.3,0.2,0.4,0.4,0.5,0.4c0.1,0,0.1,0.1,0.2,0.3
			c0.1,0.2,0.2,0.4,0.6,0.7c0.3,0.3,0.6,0.5,0.8,0.6c0.2,0.1,0.2,0.1,0.2,0.2c0,0.1,0.3,0.2,0.9,0.3c0.6,0.1,1.3,0.1,2,0.1
			c1.1,0,1.7-0.1,1.9-0.3c0.1-0.1,0.4-0.3,0.8-0.3c0.3-0.1,0.6-0.2,0.8-0.5c0.3-0.4,0.5-0.7,0.7-0.8c0.3-0.3,0.4-0.5,0.4-0.6
			c0-0.1-0.1-0.2-0.3-0.3c-0.4-0.2-0.6-0.3-0.8-0.3c-0.1,0-0.2,0.1-0.3,0.3c-0.1,0.2-0.2,0.4-0.4,0.4c-0.2,0-0.4,0.1-0.6,0.4
			c-0.2,0.2-0.4,0.3-0.5,0.2c-0.1-0.1-0.2-0.1-0.4,0.1c-0.1,0.1-0.4,0.2-0.7,0.2c-0.1,0-0.4,0-0.8-0.1c-0.6,0-1.1-0.1-1.2-0.2
			c-0.2-0.1-0.3-0.3-0.3-0.5c0-0.2-0.2-0.5-0.6-0.9c-0.3-0.3-0.5-0.5-0.6-0.7c-0.1-0.2-0.2-0.5-0.3-0.9c-0.1-0.7-0.2-1-0.3-1
			c-0.1,0-0.1-0.1-0.1-0.2c0-0.1,0-0.2,0.1-0.2c0.2,0,0.3-0.7,0.3-1.9c0-0.2,0.1-0.2,0.3-0.2c0.2,0,0.3-0.1,0.2-0.3
			c0-0.1,0-0.2,0-0.3c0.1-0.1,0.2-0.1,0.4-0.2c0.3-0.1,0.5-0.3,0.5-0.4c0-0.1,0.1-0.3,0.3-0.4c0.2-0.1,0.4-0.2,0.7-0.2
			c0.2,0,0.3-0.1,0.3-0.2c0-0.1,0.2-0.2,0.7-0.2c0.1,0,0.2,0,0.4,0c0.5,0,0.9,0.2,1.1,0.5c0.2,0.2,0.4,0.3,0.6,0.4
			c0.3,0.1,0.4,0.2,0.4,0.4s0,0.3,0.1,0.4c0.1,0.1,0.3,0.4,0.4,0.9c0.1,0.4,0.1,0.6,0.2,0.7c0.1,0.1,0.2,0.2,0.4,0.3
			c0.3,0.1,0.4,0.2,0.4,0.4c0,0.1,0.1,0.2,0.2,0.1c0.1-0.1,0.2-0.6,0.2-1.5c0-1,0.1-1.5,0.2-1.5c0.1-0.1,0.1-0.3,0-0.8L353.8,788.1z
			"/>
		<path d="M374.9,794.8c-0.1,0-0.2-0.1-0.2-0.3c-0.1-0.2-0.2-0.3-0.4-0.3c-0.2,0-0.4-0.1-0.4-0.4c0-0.1-0.1-0.2-0.2-0.3
			c-0.2-0.1-0.3-0.1-0.3,0.1c0,0.1-0.1,0.2-0.4,0.3c-0.2,0.1-0.3,0.2-0.1,0.3c0.1,0.1,0.2,0.3,0.2,0.6c0,0.3,0,0.4-0.1,0.4
			c-0.1,0-0.3,0.2-0.6,0.5c-0.6,0.6-1.1,0.9-1.5,0.9c-0.2,0-0.4,0.1-0.7,0.2c-0.3,0.1-0.7,0.2-1.2,0.2c-0.6,0-0.9-0.1-0.9-0.4
			c0-0.1,0-0.1,0-0.2c0.1-0.2,0.1-0.3,0-0.4c-0.1,0-0.1-0.2-0.1-0.4c0-0.4,0-0.7,0.1-1c0-0.1,0.1-0.2,0.1-0.4c0-0.1,0-0.4-0.1-0.6
			c0-0.1,0-0.3,0-0.5c0-0.2,0-0.3,0.1-0.4c0.2-0.1,0.2-0.3,0.2-0.8c0-0.2,0-0.3-0.1-0.4c-0.1-0.1-0.1-0.2,0-0.4
			c0.1-0.1,0.1-0.5,0.1-1.2v-0.4l-0.1-1.3h0.9c0.6,0,1-0.1,1.1-0.2c0.1-0.2,0.1-0.4,0.1-0.6c0-0.3-0.1-0.5-0.2-0.6
			c-0.1-0.1-1.1-0.1-2.9-0.1h-0.9c-1.2,0-1.8,0.1-1.8,0.2c-0.1,0.1-0.1,0.3-0.1,0.4c0,0.3,0.1,0.6,0.2,0.7c0.1,0.1,0.4,0.2,0.7,0.2
			c0.5,0,0.8,0.1,0.8,0.4c0,0.1,0,0.1-0.1,0.2c-0.1,0.1-0.1,0.4-0.1,0.7c0,0.3,0,0.6,0.1,0.8c0.1,0.3,0.1,0.4,0,0.5
			c-0.1,0.1-0.1,0.3-0.1,0.7c0,0.2,0,0.3,0,0.4c0,0.8,0.1,1.3,0.1,1.6c0,1.3-0.1,1.9-0.3,1.9c-0.1,0-0.2,0.2-0.2,0.7
			c0,0.2,0,0.3,0.1,0.4l0.1,0.1c0,0.2-0.3,0.2-0.9,0.2c-0.3,0-0.5,0.1-0.6,0.2c-0.1,0.1-0.2,0.4-0.2,0.8v0.2c0,0.5,0.2,0.8,0.6,0.8
			c0.1,0,0.3,0,0.4-0.1c0.3-0.1,0.4-0.2,0.4-0.3c0-0.1,0.3-0.1,1-0.1c0.7,0,1,0,1,0.1c0,0.1,0.7,0.1,2.1,0.1c1.4,0,2.1-0.1,2.1-0.1
			c0-0.1,0.3-0.1,0.8-0.1c0.6,0,0.9,0,0.9,0.1c0,0.1,0.1,0.2,0.4,0.2c0.2,0,0.4-0.1,0.4-0.3c0-0.1,0.1-0.3,0.3-0.4
			c0.2-0.1,0.3-0.2,0.3-0.4c0-0.2,0-0.4,0.1-0.5c0.1-0.1,0.1-0.3,0-0.4c0,0-0.1-0.1-0.1-0.2c0-0.2,0-0.5,0.1-0.8
			c0.1-0.3,0.2-0.4,0.2-0.4c0.1,0,0.1-0.1,0.1-0.3C375,794.9,375,794.8,374.9,794.8z"/>
		<path d="M375.8,795.4c0,0-0.1,0-0.1,0c-0.1,0-0.1,0-0.1,0.1c-0.2,0-0.3,0.1-0.3,0.3c0,0.1,0.1,0.2,0.3,0.2c0.2,0,0.3-0.1,0.3-0.3
			C375.9,795.5,375.9,795.4,375.8,795.4L375.8,795.4z"/>
		<path d="M358.3,804.5c-0.1,0-0.1,0.1-0.1,0.3c0,0.2,0,0.3,0.1,0.3c0.1,0,0.1-0.1,0.1-0.3C358.5,804.6,358.4,804.5,358.3,804.5z"/>
		<path d="M382.9,796.9c0.1,0,0.1-0.1,0.2-0.1c0.1-0.2,0.1-0.3-0.1-0.3c-0.1,0-0.2,0.1-0.2,0.2C382.8,796.9,382.8,796.9,382.9,796.9
			z"/>
		<path d="M393.6,795c-0.1,0-0.3,0.2-0.5,0.5c-0.3,0.4-0.4,0.6-0.4,0.7c0,0.1-0.1,0.2-0.4,0.2c-0.2,0-0.3,0.1-0.3,0.1
			c0,0,0,0.1,0,0.3v0.2c0,0.2-0.1,0.3-0.4,0.3c0,0-0.1,0-0.2,0c-0.1,0-0.1,0-0.2,0c-0.2,0-0.4,0.1-0.7,0.4c-0.2,0.2-0.4,0.3-0.6,0.3
			c-0.1,0-0.2-0.1-0.2-0.2s-0.2-0.1-0.4,0c-0.2,0.1-0.6,0.2-1.2,0.2c-0.5,0-0.7,0-0.7-0.1s-0.1-0.1-0.2-0.1c-0.1,0-0.1-0.1-0.2-0.2
			c-0.1-0.2-0.1-0.3-0.1-0.5c0,0,0-0.6,0.1-1.8c0-1.2,0.1-1.8,0.1-1.8c0-0.1,0.5-0.1,1.4-0.1c0.8,0,1.3,0.1,1.5,0.2
			c0.3,0.1,0.4,0.4,0.4,0.8c0,0.2,0,0.3,0.1,0.3c0,0,0.1,0,0.2,0c0.2-0.1,0.4-0.1,0.6-0.1h0.1c0.2,0,0.3-0.2,0.3-0.6
			c0-0.1,0-0.2,0-0.3c0-0.2,0-0.3,0-0.4v-0.3c0-0.4,0-0.6,0.1-0.6c0.1-0.1,0.1-0.3,0-0.4c-0.1-0.1-0.1-0.3,0.1-0.4
			c0.2-0.1,0.2-0.2,0.2-0.4c0-0.3-0.4-0.4-1.1-0.4c-0.4,0-0.6,0.2-0.6,0.5c0,0.1,0,0.2,0.1,0.3c0.1,0.2,0,0.3-0.1,0.5
			c-0.1,0.1-0.4,0.2-0.9,0.3c-0.6,0.1-1.1,0.2-1.6,0.2h-0.6v-0.6c0-0.4,0.1-0.6,0.2-0.6c0.1,0,0.2-0.1,0.2-0.4
			c0-0.3-0.1-0.6-0.2-0.9c-0.1-0.2-0.2-0.4-0.2-0.4c0-0.1,0.1-0.1,0.2-0.3c0.2-0.2,0.3-0.3,0.2-0.5c0,0,0-0.1,0-0.2
			c0-0.2,0.1-0.3,0.4-0.4c0.3-0.1,0.8-0.1,1.5-0.2c0.6,0,1-0.1,1.1-0.1c0.4,0,0.6,0.1,0.7,0.2c0.2,0.2,0.3,0.3,0.5,0.4
			c0.2,0.1,0.3,0.2,0.3,0.3c0,0.1,0.1,0.2,0.4,0.4c0.2,0.1,0.4,0.3,0.4,0.3c0,0.2,0.1,0.3,0.3,0.5c0.2,0.2,0.4,0.3,0.6,0.3h0.1
			c0.3,0,0.4-0.2,0.4-0.7c0-0.2-0.1-0.4-0.2-0.5c-0.1-0.2-0.2-0.4-0.2-0.6c0-0.3-0.1-0.5-0.2-0.5c-0.1-0.1-0.1-0.2,0-0.4
			c0.1-0.1,0.1-0.2,0.1-0.3c0-0.1-0.1-0.1-0.2-0.2c-0.1-0.1-0.2-0.2-0.2-0.3c0-0.1-0.1-0.3-0.3-0.5c-0.1-0.1-0.2-0.2-0.3-0.2
			c-0.1,0-0.2,0-0.3,0.1c-0.2,0.1-1.9,0.3-5,0.4h-0.7c-1.5,0-2.3-0.1-2.4-0.3c0-0.1-0.1-0.1-0.3-0.1c-0.1,0-0.2,0-0.2,0.1
			c0,0.1-0.1,0.2-0.1,0.3c0,0.2,0,0.3,0,0.3c0,0.2-0.1,0.3-0.3,0.4c-0.2,0-0.3,0.2-0.2,0.5c0.1,0.2,0.1,0.4,0.2,0.5
			c0.1,0.1,0.2,0.1,0.3,0.1s0.3,0,0.4,0c0.1,0,0.1,0,0.2,0c0.1,0,0.1,0,0.2,0c0.4,0,0.6,0.1,0.7,0.4c0.1,0.2,0.1,0.8,0.1,1.5
			c0,0.9-0.1,1.4-0.2,1.5c-0.1,0-0.1,0.2,0,0.4c0.1,0.3,0.1,0.5,0,0.7c-0.1,0.2-0.2,0.3-0.3,0.3c-0.1,0-0.1,0.1,0.1,0.2
			c0.1,0.1,0.1,0.3,0.1,0.6c0,0.3-0.1,1.3-0.2,3l-0.1,1H384c-0.4,0-0.6,0.1-0.7,0.3c-0.1,0.2-0.2,0.3-0.3,0.3
			c-0.2,0-0.2,0.1-0.2,0.4c0,0.3,0.1,0.5,0.3,0.6c0.2,0.1,0.3,0.3,0.3,0.4c0,0.1,0.1,0.2,0.3,0.2c0.2,0,0.5,0,0.8-0.1
			c0.3-0.1,0.5-0.2,0.6-0.2c0.2-0.1,0.6-0.2,1.2-0.2c0.1,0,0.6,0,1.5,0.1c0.8,0,1.2,0.1,1.2,0.2c0.1,0.1,0.2,0.1,0.4,0
			c0.3-0.1,0.8-0.2,1.6-0.2c0.9,0,1.4,0,1.6-0.1c0.2,0,0.3-0.1,0.5-0.2c0.2-0.2,0.3-0.4,0.2-0.6c-0.1-0.2,0-0.4,0.2-0.4
			c0.1-0.1,0.2-0.4,0.2-0.8c0-0.3,0-0.5,0.1-0.6c0-0.1,0.1-0.1,0.2-0.1c0.2,0,0.3-0.2,0.3-0.5c0-0.3-0.1-0.5-0.2-0.7
			C394,795.1,393.8,795,393.6,795z"/>
		<path d="M409.7,794.3c0-0.6-0.1-0.9-0.2-1.1c-0.1-0.2-0.3-0.4-0.6-0.5c-0.3-0.1-0.5-0.3-0.5-0.4c-0.1-0.1-0.3-0.3-0.9-0.6
			c-0.5-0.3-1-0.5-1.3-0.6c-0.2-0.1-0.5-0.2-0.9-0.5c-0.4-0.3-0.6-0.4-0.6-0.5c0-0.1-0.1-0.2-0.2-0.3c-0.2-0.1-0.2-0.2-0.2-0.3
			c0,0,0-0.1,0-0.1c0.1-0.1,0.1-0.2,0.1-0.3c0-0.1,0-0.3-0.1-0.6c0-0.1,0-0.2,0-0.2c0,0,0.2-0.1,0.3-0.1c0.3,0,0.4-0.1,0.4-0.2
			c0-0.1,0.1-0.2,0.4-0.4c0.3-0.2,0.4-0.3,0.4-0.3c0-0.1,0.1-0.1,0.4-0.2c0.1,0,0.1,0,0.2,0c0.4,0,0.8,0.2,1.2,0.5
			c0.5,0.3,0.7,0.6,0.7,0.9c0,0.2,0.1,0.4,0.3,0.5c0.2,0.1,0.3,0.3,0.3,0.4s0.1,0.3,0.2,0.5s0.3,0.3,0.4,0.3c0,0,0,0,0.1,0
			c0.1-0.1,0.1-0.7,0.2-2v-0.8c0-0.6-0.1-0.9-0.2-0.9c-0.1,0-0.1,0-0.1,0c-0.3,0.1-0.6,0.2-0.8,0.2c-0.3,0-0.6-0.1-1-0.3
			c-0.4-0.2-0.6-0.3-0.7-0.3c0,0-0.1,0-0.2,0.1c-0.3,0.1-0.6,0.1-0.8,0.1c-0.3,0-0.4,0-0.5,0.1c0,0.1-0.1,0.2-0.3,0.2
			c-0.2,0-0.4-0.1-0.5-0.2c-0.1-0.1-0.3-0.2-0.5-0.2h0c-0.1,0-0.1,0-0.1,0c-0.1,0-0.1,0-0.1,0c0,0,0.1,0,0.1,0
			c0.1,0.1,0.2,0.1,0.2,0.2c0,0.2-0.2,0.3-0.5,0.4c-0.3,0.1-0.4,0.2-0.4,0.4c0.1,0.2,0,0.3-0.2,0.4c-0.3,0.1-0.6,0.5-1.1,1.1
			c-0.1,0.2-0.2,0.4-0.2,0.6c0,0,0,0.3,0.1,0.8c0.1,0.7,0.3,1.1,0.4,1.3c0.1,0.2,0.4,0.4,0.7,0.7c0.4,0.3,0.6,0.4,0.8,0.4
			c0.1,0,0.3,0.1,0.6,0.4c0.4,0.3,0.9,0.6,1.7,0.8c0.5,0.1,0.8,0.3,1.1,0.6c0.2,0.2,0.3,0.4,0.5,0.7c0.1,0.3,0.2,0.5,0.2,0.7
			c0,0.1,0,0.1-0.1,0.2c-0.1,0-0.1,0.2-0.1,0.4c0.1,0.2,0,0.4-0.2,0.6c-0.1,0.1-0.2,0.3-0.2,0.4c0,0.2-0.5,0.4-1.4,0.5
			c-0.1,0-0.3,0-0.6,0c-0.9,0-1.7-0.4-2.2-1.2c-0.3-0.4-0.5-0.8-0.5-1c0,0,0-0.1,0-0.2c0-0.1,0-0.2,0-0.2c0,0-0.1-0.1-0.1-0.1
			c-0.1,0-0.1,0-0.1-0.1c0.1-0.3-0.1-0.5-0.4-0.6c-0.1,0-0.2-0.1-0.3-0.1c-0.3,0-0.4,0.2-0.5,0.5c-0.1,1.2-0.1,1.9-0.2,1.9
			c-0.1,0.1-0.1,0.4-0.2,0.8c0,0.1,0,0.3,0,0.4c0,0.2,0.1,0.4,0.3,0.6c0.1,0.1,0.2,0.2,0.3,0.2c0,0,0.1,0,0.2-0.2
			c0.1-0.2,0.2-0.3,0.2-0.4c0-0.3,0.2-0.3,0.5-0.1c0.9,0.5,1.8,0.7,2.9,0.7c0.5,0,1.1-0.1,1.6-0.2c0.6-0.1,1.1-0.3,1.4-0.6
			c0.3-0.3,0.5-0.5,0.5-0.5c0-0.1,0.1-0.2,0.2-0.3c0.2-0.1,0.3-0.4,0.3-0.9c0.1-0.5,0.1-0.7,0.2-0.7c0.1,0,0.1,0,0-0.1
			C409.8,795.3,409.7,795,409.7,794.3z M405.3,792.7C405.3,792.7,405.2,792.7,405.3,792.7c-0.1-0.1-0.1-0.1,0-0.1
			S405.4,792.6,405.3,792.7C405.4,792.7,405.4,792.7,405.3,792.7z"/>
		<path d="M403.8,793.5c0-0.1,0-0.2-0.1-0.2c-0.1,0-0.1,0-0.1,0.1l0.1,0.2C403.8,793.7,403.8,793.7,403.8,793.5z"/>
		<polygon points="52,813.5 44.3,818.7 41.5,804.7 38.8,818.7 31,813.5 36.2,821.3 22.2,824 36.2,826.8 31,834.5 38.8,829.3 
			41.5,843.4 44.3,829.4 52,834.5 46.8,826.8 60.9,824 46.8,821.3 		"/>
		<polygon points="468.4,821.3 473.6,813.5 465.9,818.7 463.1,804.7 460.3,818.7 452.6,813.5 457.8,821.3 443.7,824 457.8,826.8 
			452.6,834.5 460.3,829.3 463.1,843.4 465.8,829.4 473.6,834.5 468.4,826.8 482.4,824 		"/>
		<polygon points="31,62.3 38.8,57.1 41.5,71.1 44.3,57.1 52,62.3 46.8,54.5 60.9,51.8 46.8,49 52,41.3 44.3,46.4 41.5,32.4 
			38.8,46.5 31,41.3 36.2,49 22.2,51.8 36.2,54.5 		"/>
		<polygon points="473.6,41.3 465.8,46.4 463.1,32.4 460.3,46.5 452.6,41.3 457.8,49 443.7,51.8 457.8,54.5 452.6,62.3 460.3,57.1 
			463.1,71.1 465.9,57.1 473.6,62.3 468.4,54.5 482.4,51.8 468.4,49 		"/>
		<path d="M245.1,567.2c0.9,0.4,1.8,0.8,2.7,1.2c0.5,0.2,1.1,0.5,1.6,0.7c0.1,0.1,0.2,0.1,0.2,0.1c0,0,0,0,0,0.1
			c1,1.7,1.2,4.2,1.8,6.1c0.1,0.4,0.7,0.4,0.8,0c0.6-1.9,0.9-4.4,1.8-6.1c0,0,0,0,0-0.1c0,0,0.1,0,0.1-0.1c0.5-0.3,1.2-0.5,1.7-0.8
			c0.9-0.4,1.8-0.8,2.7-1.2c0.4-0.2,0.2-0.6-0.1-0.7c-0.9-0.4-1.8-0.8-2.7-1.1c-1.1-0.5-1.7-0.5-2-1.5c-0.6-1.9-1.1-3.9-1.6-5.9
			c0,0,0,0,0-0.1c0,0,0,0,0-0.1c-0.1-0.1-0.2-0.2-0.3-0.2c-0.1,0-0.3,0-0.3,0.2c0,0,0,0.1,0,0.1c0,0,0,0,0,0c0,0,0,0,0,0
			c0,0,0,0,0,0c-0.5,1.9-1,3.9-1.5,5.9c-0.5,1.5-3.3,2.1-4.7,2.7C245,566.5,244.8,567,245.1,567.2z M250.6,564.6
			c0.6-1,0.7-2.7,1-3.7c0.1-0.5,0.2-0.9,0.4-1.4c0.1,0.5,0.3,0.9,0.4,1.4c0.3,1.1,0.4,2.7,1,3.7c0.6,1.1,2.7,1.7,4.2,2.2
			c-0.7,0.3-1.5,0.7-2.2,1c-0.6,0.3-1.5,0.5-1.9,1c-0.6,0.8-0.7,2.4-1,3.4c-0.2,0.6-0.3,1.1-0.5,1.7c-0.2-0.6-0.3-1.1-0.5-1.7
			c-0.3-0.9-0.4-2.6-1-3.4c-0.4-0.6-1.2-0.7-1.9-1c-0.7-0.3-1.5-0.7-2.2-1C247.9,566.3,249.9,565.7,250.6,564.6z"/>
		<path d="M245.1,384c0.9,0.4,1.8,0.8,2.7,1.2c0.5,0.2,1.1,0.5,1.6,0.7c0.1,0.1,0.2,0.1,0.2,0.1c0,0,0,0,0,0.1
			c1,1.7,1.2,4.2,1.8,6.1c0.1,0.4,0.7,0.4,0.8,0c0.6-1.9,0.9-4.4,1.8-6.1c0,0,0,0,0-0.1c0,0,0.1,0,0.1-0.1c0.5-0.3,1.2-0.5,1.7-0.8
			c0.9-0.4,1.8-0.8,2.7-1.2c0.4-0.2,0.2-0.6-0.1-0.7c-0.9-0.4-1.8-0.8-2.7-1.1c-1.1-0.5-1.7-0.5-2-1.5c-0.6-1.9-1.1-3.9-1.6-5.9
			c0,0,0,0,0-0.1c0,0,0,0,0-0.1c-0.1-0.1-0.2-0.2-0.3-0.2c-0.1,0-0.3,0-0.3,0.2c0,0,0,0.1,0,0.1c0,0,0,0,0,0c0,0,0,0,0,0
			c0,0,0,0,0,0c-0.5,1.9-1,3.9-1.5,5.9c-0.5,1.5-3.3,2.1-4.7,2.7C245,383.4,244.8,383.8,245.1,384z M250.6,381.5
			c0.6-1,0.7-2.7,1-3.7c0.1-0.5,0.2-0.9,0.4-1.4c0.1,0.5,0.3,0.9,0.4,1.4c0.3,1.1,0.4,2.7,1,3.7c0.6,1.1,2.7,1.7,4.2,2.2
			c-0.7,0.3-1.5,0.7-2.2,1c-0.6,0.3-1.5,0.5-1.9,1c-0.6,0.8-0.7,2.4-1,3.4c-0.2,0.6-0.3,1.1-0.5,1.7c-0.2-0.6-0.3-1.1-0.5-1.7
			c-0.3-0.9-0.4-2.6-1-3.4c-0.4-0.6-1.2-0.7-1.9-1c-0.7-0.3-1.5-0.7-2.2-1C247.9,383.2,249.9,382.6,250.6,381.5z"/>
		<path d="M245.1,200.8c0.9,0.4,1.8,0.8,2.7,1.2c0.5,0.2,1.1,0.5,1.6,0.7c0.1,0.1,0.2,0.1,0.2,0.1c0,0,0,0,0,0.1
			c1,1.7,1.2,4.2,1.8,6.1c0.1,0.4,0.7,0.4,0.8,0c0.6-1.9,0.9-4.4,1.8-6.1c0,0,0,0,0-0.1c0,0,0.1,0,0.1-0.1c0.5-0.3,1.2-0.5,1.7-0.8
			c0.9-0.4,1.8-0.8,2.7-1.2c0.4-0.2,0.2-0.6-0.1-0.7c-0.9-0.4-1.8-0.8-2.7-1.1c-1.1-0.5-1.7-0.5-2-1.5c-0.6-1.9-1.1-3.9-1.6-5.9
			c0,0,0,0,0-0.1c0,0,0,0,0-0.1c-0.1-0.1-0.2-0.2-0.3-0.2c-0.1,0-0.3,0-0.3,0.2c0,0,0,0.1,0,0.1c0,0,0,0,0,0c0,0,0,0,0,0
			c0,0,0,0,0,0c-0.5,1.9-1,3.9-1.5,5.9c-0.5,1.5-3.3,2.1-4.7,2.7C245,200.2,244.8,200.6,245.1,200.8z M250.6,198.3
			c0.6-1,0.7-2.7,1-3.7c0.1-0.5,0.2-0.9,0.4-1.4c0.1,0.5,0.3,0.9,0.4,1.4c0.3,1.1,0.4,2.7,1,3.7c0.6,1.1,2.7,1.7,4.2,2.2
			c-0.7,0.3-1.5,0.7-2.2,1c-0.6,0.3-1.5,0.5-1.9,1c-0.6,0.8-0.7,2.4-1,3.4c-0.2,0.6-0.3,1.1-0.5,1.7c-0.2-0.6-0.3-1.1-0.5-1.7
			c-0.3-0.9-0.4-2.6-1-3.4c-0.4-0.6-1.2-0.7-1.9-1c-0.7-0.3-1.5-0.7-2.2-1C247.9,200,249.9,199.4,250.6,198.3z"/>
		<path d="M236.1,475.1l-0.6,1.8l0.1,0.1c5.2,3.9,29.2,21.6,35.1,26l9.3,6.9c0.1,0.1,0.3,0.2,0.5,0.2c0.2,0,0.4-0.1,0.5-0.2
			c0.3-0.2,0.5-0.6,0.4-1L271,476.5l-1.5,1.1l9.4,29.1c-11.5-8.5-37.4-27.7-42.5-31.4L236.1,475.1z"/>
		<path d="M205.5,454.7c9.2,6.8,17.9,13.2,26.8,19.8l0.2,0.2l0.7-1.7l-0.1-0.1c-5.9-4.3-12.1-8.9-18-13.3l-7.1-5.2h52.9l-0.1-0.3
			c0,0-0.1-0.2-0.1-0.4c-0.1-0.3-0.3-0.8-0.4-1l-0.1-0.2h-55c-0.4,0-0.7,0.2-0.8,0.6c-0.1,0.4,0,0.8,0.4,1.1L205.5,454.7z"/>
		<path d="M222.7,509.9c0.2,0.1,0.3,0.2,0.5,0.2c0.2,0,0.3-0.1,0.5-0.2l27.3-20.2l0.2-0.2l-0.2-0.2c0,0-0.8-0.7-1-0.9l-0.2-0.1
			l-24.9,18.4l16.7-51.7l-1.9,0l-17.4,53.8C222.2,509.2,222.4,509.6,222.7,509.9z"/>
		<path d="M240.9,451.6l0.3,0c0.4,0,0.9,0.1,1.4,0l0.1,0l9.1-28.2l16.3,50.4l1.5-1.2l-16.9-52.2c0-0.3-0.2-0.6-0.5-0.7
			c-0.1,0-0.2-0.1-0.3-0.1c0,0,0,0-0.1,0c0,0-0.1,0-0.1,0c-0.1,0-0.2,0-0.3,0.1c-0.3,0.1-0.5,0.4-0.5,0.6l-10,31L240.9,451.6z"/>
		<path d="M299.4,453.1c-0.1-0.4-0.4-0.6-0.8-0.6h-34.2l0.1,0.3c0.2,0.4,0.3,0.9,0.5,1.4l0.1,0.2h30.8l-43,31.8l-0.2,0.2l1.5,1.1
			l44.9-33.2C299.4,453.9,299.5,453.5,299.4,453.1z"/>
		<path d="M203.7,448.1c0.9-2.2,2-4.3,3.2-6.2c8.5-14.1,23.6-23.5,40.2-25.2l0.2,0l0-0.2c-0.1-0.4-0.1-0.9-0.1-1.3l0-0.3l-0.3,0
			c-14.6,1.4-28.1,8.6-37.2,19.7c-3.1,3.9-5.7,8.2-7.7,12.8l-0.1,0.3l0.3,0c0.4,0,0.7,0.2,1.2,0.4l0.2,0.1L203.7,448.1z"/>
		<path d="M217.2,510.7l0.2,0.2l0.1-0.2c0.2-0.3,0.6-0.6,1-0.8l0.3-0.2l-0.3-0.2c-2.5-2.1-4.9-4.4-6.9-6.8
			C201,490,197,472.7,201,456.3l0.1-0.3h-0.3c-0.4,0-0.8-0.1-1.2-0.2l-0.2-0.1l-0.1,0.2c-3.4,14.1-1.1,29.1,6.3,41.3
			C208.7,502.3,212.6,506.8,217.2,510.7z"/>
		<path d="M252.2,523.3c3.5,0,6.9-0.3,10.3-1c5.7-1.1,11.3-3.2,16.4-6.2l0.2-0.1l-0.1-0.2c-0.3-0.4-0.5-0.7-0.6-1.1l-0.1-0.2
			l-0.2,0.1c-2.8,1.6-5.6,2.9-8.6,4c-14.6,5.1-31.3,3.4-44.7-4.7l-0.3-0.2l-0.1,0.3c-0.1,0.5-0.3,0.9-0.5,1.2l-0.1,0.2l0.2,0.1
			C232.6,520.6,242.4,523.3,252.2,523.3z"/>
		<path d="M304.6,456.1l-0.1-0.2l-0.2,0c-0.5,0.1-0.9,0.2-1.3,0.3l-0.2,0l0.1,0.2c1,4.1,1.6,8.2,1.6,12.4
			c-0.1,15.6-7.1,30.3-19,40.4l-0.2,0.2l0.2,0.2c0.3,0.2,0.7,0.5,1,0.8l0.1,0.1l0.2-0.1c12.3-10.4,19.4-25.6,19.6-41.6
			C306.2,464.7,305.6,460.4,304.6,456.1z"/>
		<path d="M270.7,418c-4.3-1.6-8.9-2.6-13.6-3.1l-0.3,0l0.1,0.3c0.1,0.4,0.2,0.9,0.2,1.3l0,0.2l0.2,0c1.8,0.2,3.5,0.4,5.2,0.8
			c16.5,3.4,30.6,14.8,37.5,30.6l0.1,0.2l0.2,0c0.2-0.1,0.4-0.1,0.7,0l0.2,0l0.1-0.1c0.1-0.1,0.1-0.1,0.2-0.2
			c0.1-0.1,0.1-0.1,0.2-0.2l0.2-0.1l-0.1-0.2C295.7,433.8,284.4,423.1,270.7,418z"/>
		<path d="M252,412.6c-0.3,0-0.5,1.7-0.9,2.2c-0.5,0.4-1.6,0.5-1.6,0.8c0,0.3,1.2,0.4,1.6,0.9c0.4,0.4,0.6,2.2,0.9,2.2
			c0.3,0,0.5-1.8,0.9-2.2c0.4-0.4,1.6-0.6,1.6-0.8c0-0.2-1.2-0.5-1.6-0.9C252.5,414.4,252.2,412.6,252,412.6z"/>
		<path d="M200,454.3c0.3,0.1,0.8-1,1.3-1.2s2.3,0.1,2.4-0.1c0.1-0.3-1.5-1.1-1.8-1.6c-0.2-0.5,0-1.7-0.3-1.8
			c-0.2-0.1-0.8,1-1.3,1.2c-0.5,0.2-2.3-0.1-2.4,0.1c-0.1,0.3,1.5,1,1.8,1.6C200,453.1,199.7,454.2,200,454.3z"/>
		<path d="M218.4,511.4c-0.1,0.2,0.7,1.1,0.8,1.6c0.1,0.5-0.8,2.1-0.6,2.3c0.2,0.2,1.4-1.1,2-1.2c0.6-0.1,1.6,0.5,1.8,0.3
			c0.2-0.2-0.7-1-0.8-1.6c-0.1-0.6,0.8-2.1,0.6-2.3c-0.2-0.2-1.5,1.1-2,1.2C219.7,511.8,218.6,511.2,218.4,511.4z"/>
		<path d="M285.3,511.6c-0.2-0.2-1.2,0.3-1.8,0.2c-0.6-0.1-1.8-1.4-2-1.3c-0.2,0.2,0.6,1.8,0.5,2.3c-0.1,0.6-1,1.4-0.8,1.6
			c0.1,0.2,1.3-0.3,1.8-0.2c0.5,0.1,1.8,1.4,2,1.3c0.2-0.2-0.6-1.7-0.5-2.3C284.5,512.6,285.4,511.8,285.3,511.6z"/>
		<path d="M300,452.7c0.1,0.3,1.9,0,2.4,0.2c0.5,0.3,1,1.4,1.3,1.3c0.2-0.1,0.1-1.3,0.3-1.8c0.2-0.5,1.9-1.2,1.8-1.5
			c-0.1-0.3-1.8,0.1-2.4-0.2c-0.6-0.3-1-1.4-1.3-1.3c-0.3,0.1,0,1.2-0.3,1.8C301.6,451.7,299.9,452.4,300,452.7z"/>
		<path d="M234.1,443.9c-1.4,0-2.6,1.2-2.6,2.6c0,1.4,1.1,2.6,2.5,2.6c0,0,0.1,0,0.1,0c1.4,0,2.6-1.1,2.6-2.6l0,0l0,0
			C236.7,445,235.5,443.9,234.1,443.9z M234.1,447.5C234.1,447.5,234.1,447.5,234.1,447.5c-0.5,0-0.9-0.3-0.9-0.9
			c0-0.6,0.5-0.9,0.9-0.9c0,0,0,0,0,0c0.5,0,1,0.3,1,0.9C235.1,447.2,234.6,447.5,234.1,447.5z"/>
		<path d="M268.6,449.2c1.4,0,2.6-1.1,2.6-2.6v0v0c-0.1-1.5-1.2-2.6-2.6-2.6c-1.4,0-2.6,1.2-2.6,2.6c0,1.4,1.1,2.6,2.5,2.6
			C268.5,449.2,268.5,449.2,268.6,449.2z M267.6,446.5c0-0.6,0.5-0.9,0.9-0.9c0,0,0,0,0,0c0.5,0,1,0.3,1,0.9c0,0.7-0.5,0.9-1,0.9
			c0,0,0,0,0,0C268,447.5,267.6,447.2,267.6,446.5z"/>
		<path d="M249.3,497.4c0,1.4,1.1,2.6,2.5,2.6c0,0,0.1,0,0.1,0c1.4,0,2.6-1.1,2.6-2.6c-0.1-1.5-1.2-2.6-2.6-2.6
			C250.5,494.8,249.3,496,249.3,497.4z M252.9,497.4c0,0.7-0.6,0.9-1,0.9c-0.5,0-0.9-0.3-0.9-0.9c0-0.6,0.5-0.9,0.9-0.9c0,0,0,0,0,0
			C252.3,496.5,252.9,496.8,252.9,497.4z"/>
		<path d="M227.2,479.8c1.4,0,2.6-1.1,2.6-2.6c-0.1-1.5-1.2-2.6-2.6-2.6c-1.4,0-2.6,1.2-2.6,2.6c0,1.4,1.1,2.6,2.5,2.6
			C227.2,479.8,227.2,479.8,227.2,479.8z M226.2,477.2c0-0.6,0.5-0.9,0.9-0.9c0,0,0,0,0,0c0.5,0,1,0.3,1,0.9c0,0.7-0.6,1-1,0.9
			C226.7,478.1,226.2,477.8,226.2,477.2z"/>
		<path d="M276.8,479.8c1.4,0,2.6-1.1,2.6-2.6c-0.1-1.5-1.2-2.6-2.6-2.6c-1.4,0-2.6,1.2-2.6,2.6c0,1.4,1.1,2.6,2.5,2.6
			C276.8,479.8,276.8,479.8,276.8,479.8z M275.9,477.2c0-0.6,0.5-0.9,0.9-0.9c0,0,0,0,0,0c0.5,0,1,0.3,1,0.9c0,0.7-0.6,1-1,0.9
			C276.3,478.1,275.9,477.8,275.9,477.2z"/>
		<polygon points="248.5,471.3 244.9,477 250.6,473.4 252,482.8 253.5,473.4 259.1,477 255.6,471.3 265,469.9 255.6,468.4 
			259.1,462.8 253.5,466.3 252,456.9 250.6,466.3 244.9,462.8 248.5,468.4 239.1,469.9 		"/>
		<path d="M281.5,684.5L271,652.2l-1.5,1.1l9.4,29.1c-11.5-8.5-37.4-27.7-42.5-31.4l-0.2-0.2l-0.6,1.8l0.1,0.1
			c5.2,3.9,29.2,21.6,35.1,26l9.3,6.9c0.1,0.1,0.3,0.2,0.5,0.2c0.2,0,0.4-0.1,0.5-0.2C281.4,685.3,281.6,684.9,281.5,684.5z"/>
		<path d="M205.5,630.3c9.2,6.8,17.9,13.2,26.8,19.8l0.2,0.2l0.7-1.7l-0.1-0.1c-5.9-4.3-12.1-8.9-18-13.3L208,630h52.9l-0.1-0.3
			c0,0-0.1-0.2-0.1-0.4c-0.1-0.3-0.3-0.8-0.4-1l-0.1-0.2h-55c-0.4,0-0.7,0.2-0.8,0.6c-0.1,0.4,0,0.8,0.4,1.1L205.5,630.3z"/>
		<path d="M250,664.1l-0.2-0.1l-24.9,18.4l16.7-51.7l-1.9,0l-17.4,53.8c-0.1,0.4,0,0.8,0.4,1c0.2,0.1,0.3,0.2,0.5,0.2
			c0.2,0,0.3-0.1,0.5-0.2l27.3-20.2l0.2-0.2L251,665C250.9,665,250.1,664.3,250,664.1z"/>
		<path d="M240.9,627.2l0.3,0c0.4,0,0.9,0.1,1.4,0l0.1,0l9.1-28.2l16.3,50.4l1.5-1.2l-16.9-52.2c0-0.3-0.2-0.6-0.5-0.7
			c-0.1,0-0.2-0.1-0.3-0.1c0,0,0,0-0.1,0c0,0-0.1,0-0.1,0c-0.1,0-0.2,0-0.3,0.1c-0.3,0.1-0.5,0.4-0.5,0.6l-10,31L240.9,627.2z"/>
		<path d="M299.4,628.7c-0.1-0.4-0.4-0.6-0.8-0.6h-34.2l0.1,0.3c0.2,0.4,0.3,0.9,0.5,1.4l0.1,0.2h30.8l-43,31.8l-0.2,0.2l1.5,1.1
			l44.9-33.2C299.4,629.6,299.5,629.1,299.4,628.7z"/>
		<path d="M203.7,623.8c0.9-2.2,2-4.3,3.2-6.2c8.5-14.1,23.6-23.5,40.2-25.2l0.2,0l0-0.2c-0.1-0.4-0.1-0.9-0.1-1.3l0-0.3l-0.3,0
			c-14.6,1.4-28.1,8.6-37.2,19.7c-3.1,3.9-5.7,8.2-7.7,12.8l-0.1,0.3l0.3,0c0.4,0,0.7,0.2,1.2,0.4l0.2,0.1L203.7,623.8z"/>
		<path d="M218.5,685.5l0.3-0.2l-0.3-0.2c-2.5-2.1-4.9-4.4-6.9-6.8C201,665.6,197,648.3,201,632l0.1-0.3h-0.3
			c-0.4,0-0.8-0.1-1.2-0.2l-0.2-0.1l-0.1,0.2c-3.4,14.1-1.1,29.1,6.3,41.3c3.1,5,7,9.6,11.7,13.4l0.2,0.2l0.1-0.2
			C217.8,685.9,218.1,685.7,218.5,685.5z"/>
		<path d="M278.3,690.3l-0.1-0.2l-0.2,0.1c-2.8,1.6-5.6,2.9-8.6,4c-14.6,5.1-31.3,3.4-44.7-4.7l-0.3-0.2l-0.1,0.3
			c-0.1,0.5-0.3,0.9-0.5,1.2l-0.1,0.2l0.2,0.1c8.6,5.2,18.4,7.8,28.2,7.8c3.5,0,6.9-0.3,10.3-1c5.7-1.1,11.3-3.2,16.4-6.2l0.2-0.1
			l-0.1-0.2C278.7,691,278.5,690.6,278.3,690.3z"/>
		<path d="M286.4,686.2l0.1,0.1l0.2-0.1c12.3-10.4,19.4-25.6,19.6-41.6c0-4.3-0.6-8.6-1.6-12.8l-0.1-0.2l-0.2,0
			c-0.5,0.1-0.9,0.2-1.3,0.3l-0.2,0l0.1,0.2c1,4.1,1.6,8.2,1.6,12.4c-0.1,15.6-7.1,30.3-19,40.4l-0.2,0.2l0.2,0.2
			C285.7,685.6,286.1,685.9,286.4,686.2z"/>
		<path d="M270.7,593.6c-4.3-1.6-8.9-2.6-13.6-3.1l-0.3,0l0.1,0.3c0.1,0.4,0.2,0.9,0.2,1.3l0,0.2l0.2,0c1.8,0.2,3.5,0.4,5.2,0.8
			c16.5,3.4,30.6,14.8,37.5,30.6l0.1,0.2l0.2,0c0.2-0.1,0.4-0.1,0.7,0l0.2,0l0.1-0.1c0.1-0.1,0.1-0.1,0.2-0.2
			c0.1-0.1,0.1-0.1,0.2-0.2l0.2-0.1l-0.1-0.2C295.7,609.5,284.4,598.7,270.7,593.6z"/>
		<path d="M252,588.2c-0.3,0-0.5,1.7-0.9,2.2c-0.5,0.4-1.6,0.5-1.6,0.8c0,0.3,1.2,0.4,1.6,0.9c0.4,0.4,0.6,2.2,0.9,2.2
			s0.5-1.8,0.9-2.2c0.4-0.4,1.6-0.6,1.6-0.8c0-0.2-1.2-0.5-1.6-0.9C252.5,590,252.2,588.2,252,588.2z"/>
		<path d="M200,629.9c0.3,0.1,0.8-1,1.3-1.2c0.6-0.3,2.3,0.1,2.4-0.1c0.1-0.3-1.5-1.1-1.8-1.6c-0.2-0.5,0-1.7-0.3-1.8
			c-0.2-0.1-0.8,1-1.3,1.2c-0.5,0.2-2.3-0.1-2.4,0.1c-0.1,0.3,1.5,1,1.8,1.6C200,628.7,199.7,629.8,200,629.9z"/>
		<path d="M218.6,690.9c0.2,0.2,1.4-1.1,2-1.2c0.6-0.1,1.6,0.5,1.8,0.3c0.2-0.2-0.7-1-0.8-1.6c-0.1-0.6,0.8-2.1,0.6-2.3
			c-0.2-0.2-1.5,1.1-2,1.2c-0.6,0.1-1.6-0.5-1.8-0.3c-0.1,0.2,0.7,1.1,0.8,1.6C219.3,689.2,218.4,690.8,218.6,690.9z"/>
		<path d="M284.9,691.1c0.2-0.2-0.6-1.7-0.5-2.3c0.1-0.6,1-1.4,0.8-1.6c-0.2-0.2-1.2,0.3-1.8,0.2c-0.6-0.1-1.8-1.4-2-1.3
			c-0.2,0.2,0.6,1.8,0.5,2.3c-0.1,0.6-1,1.4-0.8,1.6c0.1,0.2,1.3-0.3,1.8-0.2C283.4,689.9,284.7,691.3,284.9,691.1z"/>
		<path d="M300,628.3c0.1,0.3,1.9,0,2.4,0.2c0.5,0.3,1,1.4,1.3,1.3c0.2-0.1,0.1-1.3,0.3-1.8c0.2-0.5,1.9-1.2,1.8-1.5
			c-0.1-0.3-1.8,0.1-2.4-0.2c-0.6-0.3-1-1.4-1.3-1.3s0,1.2-0.3,1.8C301.6,627.4,299.9,628.1,300,628.3z"/>
		<path d="M234.1,619.5c-1.4,0-2.6,1.2-2.6,2.6c0,1.4,1.1,2.6,2.5,2.6c0,0,0.1,0,0.1,0c1.4,0,2.6-1.1,2.6-2.6l0,0l0,0
			C236.7,620.7,235.5,619.5,234.1,619.5z M234.1,623.1C234.1,623.1,234.1,623.1,234.1,623.1c-0.5,0-0.9-0.3-0.9-0.9
			c0-0.6,0.5-0.9,0.9-0.9c0,0,0,0,0,0c0.5,0,1,0.3,1,0.9C235.1,622.8,234.6,623.1,234.1,623.1z"/>
		<path d="M268.6,619.5c-1.4,0-2.6,1.2-2.6,2.6c0,1.4,1.1,2.6,2.5,2.6c0,0,0.1,0,0.1,0c1.4,0,2.6-1.1,2.6-2.6v0v0
			C271.1,620.7,270,619.5,268.6,619.5z M268.5,623.1C268.5,623.1,268.5,623.1,268.5,623.1c-0.5,0-0.9-0.3-0.9-0.9
			c0-0.6,0.5-0.9,0.9-0.9c0,0,0,0,0,0c0.5,0,1,0.3,1,0.9C269.5,622.8,269,623.1,268.5,623.1z"/>
		<path d="M249.3,673.1c0,1.4,1.1,2.6,2.5,2.6c0,0,0.1,0,0.1,0c1.4,0,2.6-1.1,2.6-2.6c-0.1-1.5-1.2-2.6-2.6-2.6
			C250.5,670.4,249.3,671.6,249.3,673.1z M251.9,672.1C251.9,672.1,251.9,672.1,251.9,672.1c0.5,0,1,0.3,1,0.9c0,0.7-0.6,0.9-1,0.9
			c-0.5,0-0.9-0.3-0.9-0.9C250.9,672.4,251.4,672.1,251.9,672.1z"/>
		<path d="M224.6,652.8c0,1.4,1.1,2.6,2.5,2.6c0,0,0.1,0,0.1,0c1.4,0,2.6-1.1,2.6-2.6c-0.1-1.5-1.2-2.6-2.6-2.6
			C225.8,650.2,224.6,651.4,224.6,652.8z M228.2,652.8c0,0.7-0.6,1-1,0.9c-0.5,0-0.9-0.3-0.9-0.9c0-0.6,0.5-0.9,0.9-0.9c0,0,0,0,0,0
			C227.7,651.9,228.2,652.2,228.2,652.8z"/>
		<path d="M274.2,652.8c0,1.4,1.1,2.6,2.5,2.6c0,0,0.1,0,0.1,0c1.4,0,2.6-1.1,2.6-2.6c-0.1-1.5-1.2-2.6-2.6-2.6
			C275.4,650.2,274.2,651.4,274.2,652.8z M277.8,652.8c0,0.7-0.6,1-1,0.9c-0.5,0-0.9-0.3-0.9-0.9c0-0.6,0.5-0.9,0.9-0.9c0,0,0,0,0,0
			C277.3,651.9,277.8,652.2,277.8,652.8z"/>
		<polygon points="250.6,649.1 252,658.5 253.5,649.1 259.1,652.6 255.6,647 265,645.5 255.6,644 259.1,638.4 253.5,642 252,632.5 
			250.6,642 244.9,638.4 248.5,644 239.1,645.5 248.5,647 244.9,652.6 		"/>
		<path d="M236.1,294.9l-0.6,1.8l0.1,0.1c5.2,3.9,29.2,21.6,35.1,26l9.3,6.9c0.1,0.1,0.3,0.2,0.5,0.2c0.2,0,0.4-0.1,0.5-0.2
			c0.3-0.2,0.5-0.6,0.4-1L271,296.3l-1.5,1.1l9.4,29.1c-11.5-8.5-37.4-27.7-42.5-31.4L236.1,294.9z"/>
		<path d="M204.5,272.8c-0.1,0.4,0,0.8,0.4,1.1l0.7,0.5c9.2,6.8,17.9,13.2,26.8,19.8l0.2,0.2l0.7-1.7l-0.1-0.1
			c-5.9-4.3-12.1-8.9-18-13.3l-7.1-5.2h52.9l-0.1-0.3c0,0-0.1-0.2-0.1-0.4c-0.1-0.3-0.3-0.8-0.4-1l-0.1-0.2h-55
			C204.9,272.3,204.6,272.5,204.5,272.8z"/>
		<path d="M222.7,329.6c0.2,0.1,0.3,0.2,0.5,0.2c0.2,0,0.3-0.1,0.5-0.2l27.3-20.2l0.2-0.2l-0.2-0.2c0,0-0.8-0.7-1-0.9l-0.2-0.1
			l-24.9,18.4l16.7-51.7l-1.9,0l-17.4,53.8C222.2,329,222.4,329.4,222.7,329.6z"/>
		<path d="M240.9,271.3l0.3,0c0.4,0,0.9,0.1,1.4,0l0.1,0l9.1-28.2l16.3,50.4l1.5-1.2L252.8,240c0-0.3-0.2-0.6-0.5-0.7
			c-0.1,0-0.2-0.1-0.3-0.1c0,0,0,0-0.1,0c0,0-0.1,0-0.1,0c-0.1,0-0.2,0-0.3,0.1c-0.3,0.1-0.5,0.4-0.5,0.6l-10,31L240.9,271.3z"/>
		<path d="M264.5,272.6c0.2,0.4,0.3,0.9,0.5,1.4l0.1,0.2h30.8l-43,31.8l-0.2,0.2l1.5,1.1l44.9-33.2c0.3-0.3,0.5-0.7,0.4-1.1
			c-0.1-0.4-0.4-0.6-0.8-0.6h-34.2L264.5,272.6z"/>
		<path d="M203.4,268l0.2,0.1l0.1-0.2c0.9-2.2,2-4.3,3.2-6.2c8.5-14.1,23.6-23.5,40.2-25.2l0.2,0l0-0.2c-0.1-0.4-0.1-0.9-0.1-1.3
			l0-0.3l-0.3,0c-14.6,1.4-28.1,8.6-37.2,19.7c-3.1,3.9-5.7,8.2-7.7,12.8l-0.1,0.3l0.3,0C202.6,267.6,203,267.8,203.4,268z"/>
		<path d="M217.2,330.4l0.2,0.2l0.1-0.2c0.2-0.3,0.6-0.6,1-0.8l0.3-0.2l-0.3-0.2c-2.5-2.1-4.9-4.4-6.9-6.8
			c-10.6-12.7-14.6-30-10.6-46.3l0.1-0.3h-0.3c-0.4,0-0.8-0.1-1.2-0.2l-0.2-0.1l-0.1,0.2c-3.4,14.1-1.1,29.1,6.3,41.3
			C208.7,322.1,212.6,326.6,217.2,330.4z"/>
		<path d="M252.2,343c3.5,0,6.9-0.3,10.3-1c5.7-1.1,11.3-3.2,16.4-6.2l0.2-0.1l-0.1-0.2c-0.3-0.4-0.5-0.7-0.6-1.1l-0.1-0.2l-0.2,0.1
			c-2.8,1.6-5.6,2.9-8.6,4c-14.6,5.1-31.3,3.4-44.7-4.7l-0.3-0.2l-0.1,0.3c-0.1,0.5-0.3,0.9-0.5,1.2l-0.1,0.2l0.2,0.1
			C232.6,340.3,242.4,343,252.2,343z"/>
		<path d="M304.6,275.9l-0.1-0.2l-0.2,0c-0.5,0.1-0.9,0.2-1.3,0.3l-0.2,0l0.1,0.2c1,4.1,1.6,8.2,1.6,12.4
			c-0.1,15.6-7.1,30.3-19,40.4l-0.2,0.2l0.2,0.2c0.3,0.2,0.7,0.5,1,0.8l0.1,0.1l0.2-0.1c12.3-10.4,19.4-25.6,19.6-41.6
			C306.2,284.4,305.6,280.1,304.6,275.9z"/>
		<path d="M257.1,234.7l-0.3,0l0.1,0.3c0.1,0.4,0.2,0.9,0.2,1.3l0,0.2l0.2,0c1.8,0.2,3.5,0.4,5.2,0.8c16.5,3.4,30.6,14.8,37.5,30.6
			l0.1,0.2l0.2,0c0.2-0.1,0.4-0.1,0.7,0l0.2,0l0.1-0.1c0.1-0.1,0.1-0.1,0.2-0.2c0.1-0.1,0.1-0.1,0.2-0.2l0.2-0.1l-0.1-0.2
			c-5.9-13.7-17.2-24.4-30.9-29.5C266.4,236.2,261.8,235.1,257.1,234.7z"/>
		<path d="M251.9,238.3c0.3,0,0.5-1.8,0.9-2.2c0.4-0.4,1.6-0.6,1.6-0.8c0-0.2-1.2-0.5-1.6-0.9c-0.4-0.4-0.6-2.2-0.9-2.2
			c-0.3,0-0.5,1.7-0.9,2.2c-0.5,0.4-1.6,0.5-1.6,0.8c0,0.3,1.2,0.4,1.6,0.9C251.4,236.6,251.6,238.3,251.9,238.3z"/>
		<path d="M199.7,272.2c0.3,0.6,0,1.7,0.3,1.8c0.3,0.1,0.8-1,1.3-1.2c0.6-0.3,2.3,0.1,2.4-0.1c0.1-0.3-1.5-1.1-1.8-1.6
			c-0.2-0.5,0-1.7-0.3-1.8c-0.2-0.1-0.8,1-1.3,1.2c-0.5,0.2-2.3-0.1-2.4,0.1C197.9,270.9,199.4,271.7,199.7,272.2z"/>
		<path d="M218.4,331.1c-0.1,0.2,0.7,1.1,0.8,1.6c0.1,0.5-0.8,2.1-0.6,2.3c0.2,0.2,1.4-1.1,2-1.2c0.6-0.1,1.6,0.5,1.8,0.3
			c0.2-0.2-0.7-1-0.8-1.6c-0.1-0.6,0.8-2.1,0.6-2.3c-0.2-0.2-1.5,1.1-2,1.2S218.6,330.9,218.4,331.1z"/>
		<path d="M285.3,331.3c-0.2-0.2-1.2,0.3-1.8,0.2c-0.6-0.1-1.8-1.4-2-1.3c-0.2,0.2,0.6,1.8,0.5,2.3c-0.1,0.6-1,1.4-0.8,1.6
			c0.1,0.2,1.3-0.3,1.8-0.2c0.5,0.1,1.8,1.4,2,1.3c0.2-0.2-0.6-1.7-0.5-2.3S285.4,331.6,285.3,331.3z"/>
		<path d="M300,272.4c0.1,0.3,1.9,0,2.4,0.2c0.5,0.3,1,1.4,1.3,1.3c0.2-0.1,0.1-1.3,0.3-1.8c0.2-0.5,1.9-1.2,1.8-1.5
			c-0.1-0.3-1.8,0.1-2.4-0.2c-0.6-0.3-1-1.4-1.3-1.3s0,1.2-0.3,1.8C301.6,271.5,299.9,272.2,300,272.4z"/>
		<path d="M234.1,268.9c1.4,0,2.6-1.1,2.6-2.6l0,0l0,0c-0.1-1.5-1.2-2.6-2.6-2.6c-1.4,0-2.6,1.2-2.6,2.6c0,1.4,1.1,2.6,2.5,2.6
			C234.1,268.9,234.1,268.9,234.1,268.9z M233.1,266.3c0-0.6,0.5-0.9,0.9-0.9c0,0,0,0,0,0c0.5,0,1,0.3,1,0.9c0,0.7-0.5,0.9-1,0.9
			c0,0,0,0,0,0C233.6,267.2,233.1,266.9,233.1,266.3z"/>
		<path d="M268.6,268.9c1.4,0,2.6-1.1,2.6-2.6v0v0c-0.1-1.5-1.2-2.6-2.6-2.6c-1.4,0-2.6,1.2-2.6,2.6c0,1.4,1.1,2.6,2.5,2.6
			C268.5,268.9,268.5,268.9,268.6,268.9z M267.6,266.3c0-0.6,0.5-0.9,0.9-0.9c0,0,0,0,0,0c0.5,0,1,0.3,1,0.9c0,0.7-0.5,0.9-1,0.9
			c0,0,0,0,0,0C268,267.2,267.6,266.9,267.6,266.3z"/>
		<path d="M249.3,317.2c0,1.4,1.1,2.6,2.5,2.6c0,0,0.1,0,0.1,0c1.4,0,2.6-1.1,2.6-2.6c-0.1-1.5-1.2-2.6-2.6-2.6
			C250.5,314.6,249.3,315.8,249.3,317.2z M252.9,317.2c0,0.7-0.6,0.9-1,0.9c-0.5,0-0.9-0.3-0.9-0.9c0-0.6,0.5-0.9,0.9-0.9
			c0,0,0,0,0,0C252.3,316.2,252.9,316.5,252.9,317.2z"/>
		<path d="M227.2,299.6c1.4,0,2.6-1.1,2.6-2.6c-0.1-1.5-1.2-2.6-2.6-2.6c-1.4,0-2.6,1.2-2.6,2.6c0,1.4,1.1,2.6,2.5,2.6
			C227.2,299.6,227.2,299.6,227.2,299.6z M226.2,296.9c0-0.6,0.5-0.9,0.9-0.9c0,0,0,0,0,0c0.5,0,1,0.3,1,0.9c0,0.7-0.6,1-1,0.9
			C226.7,297.9,226.2,297.6,226.2,296.9z"/>
		<path d="M276.8,299.6c1.4,0,2.6-1.1,2.6-2.6c-0.1-1.5-1.2-2.6-2.6-2.6c-1.4,0-2.6,1.2-2.6,2.6c0,1.4,1.1,2.6,2.5,2.6
			C276.8,299.6,276.8,299.6,276.8,299.6z M275.9,296.9c0-0.6,0.5-0.9,0.9-0.9c0,0,0,0,0,0c0.5,0,1,0.3,1,0.9c0,0.7-0.6,1-1,0.9
			C276.3,297.9,275.9,297.6,275.9,296.9z"/>
		<polygon points="248.5,291.1 244.9,296.7 250.6,293.2 252,302.6 253.5,293.2 259.1,296.7 255.6,291.1 265,289.6 255.6,288.1 
			259.1,282.5 253.5,286.1 252,276.7 250.6,286.1 244.9,282.5 248.5,288.1 239.1,289.6 		"/>
		<path d="M355.4,298.4c0.9,0.4,1.8,0.8,2.7,1.2c0.5,0.2,1.1,0.5,1.6,0.7c0.1,0.1,0.2,0.1,0.2,0.1c0,0,0,0,0,0.1
			c1,1.7,1.2,4.2,1.8,6.1c0.1,0.4,0.7,0.4,0.8,0c0.6-1.9,0.9-4.4,1.8-6.1c0,0,0,0,0-0.1c0,0,0.1,0,0.1-0.1c0.5-0.3,1.2-0.5,1.7-0.8
			c0.9-0.4,1.8-0.8,2.7-1.2c0.4-0.2,0.2-0.6-0.1-0.7c-0.9-0.4-1.8-0.8-2.7-1.1c-1.1-0.5-1.7-0.5-2-1.5c-0.6-1.9-1.1-3.9-1.6-5.9
			c0,0,0,0,0-0.1c0,0,0,0,0-0.1c-0.1-0.1-0.2-0.2-0.3-0.2c-0.1,0-0.3,0-0.3,0.2c0,0,0,0.1,0,0.1c0,0,0,0,0,0c0,0,0,0,0,0
			c0,0,0,0,0,0c-0.5,1.9-1,3.9-1.5,5.9c-0.5,1.5-3.3,2.1-4.7,2.7C355.2,297.7,355,298.2,355.4,298.4z M360.9,295.8
			c0.6-1,0.7-2.7,1-3.7c0.1-0.5,0.2-0.9,0.4-1.4c0.1,0.5,0.3,0.9,0.4,1.4c0.3,1.1,0.4,2.7,1,3.7c0.6,1.1,2.7,1.7,4.2,2.2
			c-0.7,0.3-1.5,0.7-2.2,1c-0.6,0.3-1.5,0.5-1.9,1c-0.6,0.8-0.7,2.4-1,3.4c-0.2,0.6-0.3,1.1-0.5,1.7c-0.2-0.6-0.3-1.1-0.5-1.7
			c-0.3-0.9-0.4-2.6-1-3.4c-0.4-0.6-1.2-0.7-1.9-1c-0.7-0.3-1.5-0.7-2.2-1C358.2,297.5,360.2,296.9,360.9,295.8z"/>
		<path d="M369,469.6c-0.9-0.4-1.8-0.8-2.7-1.1c-1.1-0.5-1.7-0.5-2-1.5c-0.6-1.9-1.1-3.9-1.6-5.9c0,0,0,0,0-0.1c0,0,0,0,0-0.1
			c-0.1-0.1-0.2-0.2-0.3-0.2c-0.1,0-0.3,0-0.3,0.2c0,0,0,0.1,0,0.1c0,0,0,0,0,0c0,0,0,0,0,0c0,0,0,0,0,0c-0.5,1.9-1,3.9-1.5,5.9
			c-0.5,1.5-3.3,2.1-4.7,2.7c-0.3,0.1-0.5,0.6-0.1,0.7c0.9,0.4,1.8,0.8,2.7,1.2c0.5,0.2,1.1,0.5,1.6,0.7c0.1,0.1,0.2,0.1,0.2,0.1
			c0,0,0,0,0,0.1c1,1.7,1.2,4.2,1.8,6.1c0.1,0.4,0.7,0.4,0.8,0c0.6-1.9,0.9-4.4,1.8-6.1c0,0,0,0,0-0.1c0,0,0.1,0,0.1-0.1
			c0.5-0.3,1.2-0.5,1.7-0.8c0.9-0.4,1.8-0.8,2.7-1.2C369.4,470.2,369.3,469.7,369,469.6z M365.6,471.1c-0.6,0.3-1.5,0.5-1.9,1
			c-0.6,0.8-0.7,2.4-1,3.4c-0.2,0.6-0.3,1.1-0.5,1.7c-0.2-0.6-0.3-1.1-0.5-1.7c-0.3-0.9-0.4-2.6-1-3.4c-0.4-0.6-1.2-0.7-1.9-1
			c-0.7-0.3-1.5-0.7-2.2-1c1.5-0.5,3.5-1.1,4.2-2.2c0.6-1,0.7-2.7,1-3.7c0.1-0.5,0.2-0.9,0.4-1.4c0.1,0.5,0.3,0.9,0.4,1.4
			c0.3,1.1,0.4,2.7,1,3.7c0.6,1.1,2.7,1.7,4.2,2.2C367.1,470.4,366.3,470.7,365.6,471.1z"/>
		<path d="M346.4,381.4l-0.6,1.8l0.1,0.1c5.2,3.9,29.2,21.6,35.1,26l9.3,6.9c0.1,0.1,0.3,0.2,0.5,0.2c0.2,0,0.4-0.1,0.5-0.2
			c0.3-0.2,0.5-0.6,0.4-1l-10.5-32.4l-1.5,1.1l9.4,29.1c-11.5-8.5-37.4-27.7-42.5-31.4L346.4,381.4z"/>
		<path d="M314.7,359.3c-0.1,0.4,0,0.8,0.4,1.1l0.7,0.5c9.2,6.8,17.9,13.2,26.8,19.8l0.2,0.2l0.7-1.7l-0.1-0.1
			c-5.9-4.3-12.1-8.9-18-13.3l-7.1-5.2h52.9l-0.1-0.3c0,0-0.1-0.2-0.1-0.4c-0.1-0.3-0.3-0.8-0.4-1l-0.1-0.2h-55
			C315.2,358.8,314.8,359,314.7,359.3z"/>
		<path d="M333,416.1c0.2,0.1,0.3,0.2,0.5,0.2c0.2,0,0.3-0.1,0.5-0.2l27.3-20.2l0.2-0.2l-0.2-0.2c0,0-0.8-0.7-1-0.9l-0.2-0.1
			L335.2,413l16.7-51.7l-1.9,0l-17.4,53.8C332.5,415.5,332.7,415.9,333,416.1z"/>
		<path d="M351.2,357.8l0.3,0c0.4,0,0.9,0.1,1.4,0l0.1,0l9.1-28.2l16.3,50.4l1.5-1.2l-16.9-52.2c0-0.3-0.2-0.6-0.5-0.7
			c-0.1,0-0.2-0.1-0.3-0.1c0,0,0,0-0.1,0c0,0-0.1,0-0.1,0c-0.1,0-0.2,0-0.3,0.1c-0.3,0.1-0.5,0.4-0.5,0.6l-10,31L351.2,357.8z"/>
		<path d="M409.6,359.3c-0.1-0.4-0.4-0.6-0.8-0.6h-34.2l0.1,0.3c0.2,0.4,0.3,0.9,0.5,1.4l0.1,0.2h30.8l-43,31.8l-0.2,0.2l1.5,1.1
			l44.9-33.2C409.6,360.2,409.8,359.7,409.6,359.3z"/>
		<path d="M313.7,354.5l0.2,0.1l0.1-0.2c0.9-2.2,2-4.3,3.2-6.2c8.5-14.1,23.6-23.5,40.2-25.2l0.2,0l0-0.2c-0.1-0.4-0.1-0.9-0.1-1.3
			l0-0.3l-0.3,0c-14.6,1.4-28.1,8.6-37.2,19.7c-3.1,3.9-5.7,8.2-7.7,12.8l-0.1,0.3l0.3,0C312.9,354.1,313.3,354.3,313.7,354.5z"/>
		<path d="M327.5,416.9l0.2,0.2l0.1-0.2c0.2-0.3,0.6-0.6,1-0.8l0.3-0.2l-0.3-0.2c-2.5-2.1-4.9-4.4-6.9-6.8
			c-10.6-12.7-14.6-30-10.6-46.3l0.1-0.3h-0.3c-0.4,0-0.8-0.1-1.2-0.2l-0.2-0.1l-0.1,0.2c-3.4,14.1-1.1,29.1,6.3,41.3
			C318.9,408.6,322.9,413.1,327.5,416.9z"/>
		<path d="M389.1,422.3l0.2-0.1l-0.1-0.2c-0.3-0.4-0.5-0.7-0.6-1.1l-0.1-0.2l-0.2,0.1c-2.8,1.6-5.6,2.9-8.6,4
			c-14.6,5.1-31.3,3.4-44.7-4.7l-0.3-0.2l-0.1,0.3c-0.1,0.5-0.3,0.9-0.5,1.2l-0.1,0.2l0.2,0.1c8.6,5.2,18.4,7.8,28.2,7.8
			c3.5,0,6.9-0.3,10.3-1C378.5,427.4,384,425.3,389.1,422.3z"/>
		<path d="M414.8,362.2l-0.2,0c-0.5,0.1-0.9,0.2-1.3,0.3l-0.2,0l0.1,0.2c1,4.1,1.6,8.2,1.6,12.4c-0.1,15.6-7.1,30.3-19,40.4
			l-0.2,0.2l0.2,0.2c0.3,0.2,0.7,0.5,1,0.8l0.1,0.1l0.2-0.1c12.3-10.4,19.4-25.6,19.6-41.6c0-4.3-0.6-8.6-1.6-12.8L414.8,362.2z"/>
		<path d="M367.1,321.2l0.1,0.3c0.1,0.4,0.2,0.9,0.2,1.3l0,0.2l0.2,0c1.8,0.2,3.5,0.4,5.2,0.8c16.5,3.4,30.6,14.8,37.5,30.6l0.1,0.2
			l0.2,0c0.2-0.1,0.4-0.1,0.7,0l0.2,0l0.1-0.1c0.1-0.1,0.1-0.1,0.2-0.2c0.1-0.1,0.1-0.1,0.2-0.2l0.2-0.1l-0.1-0.2
			c-5.9-13.7-17.2-24.4-30.9-29.5c-4.3-1.6-8.9-2.6-13.6-3.1L367.1,321.2z"/>
		<path d="M362.1,324.8c0.3,0,0.5-1.8,0.9-2.2c0.4-0.4,1.6-0.6,1.6-0.8c0-0.2-1.2-0.5-1.6-0.9c-0.4-0.4-0.6-2.2-0.9-2.2
			c-0.3,0-0.5,1.7-0.9,2.2c-0.5,0.4-1.6,0.5-1.6,0.8c0,0.3,1.2,0.4,1.6,0.9C361.7,323.1,361.9,324.8,362.1,324.8z"/>
		<path d="M310,358.7c0.3,0.6,0,1.7,0.3,1.8c0.3,0.1,0.8-1,1.3-1.2c0.6-0.3,2.3,0.1,2.4-0.1c0.1-0.3-1.5-1.1-1.8-1.6
			c-0.2-0.5,0-1.7-0.3-1.8c-0.2-0.1-0.8,1-1.3,1.2s-2.3-0.1-2.4,0.1C308.1,357.4,309.7,358.2,310,358.7z"/>
		<path d="M328.7,417.6c-0.1,0.2,0.7,1.1,0.8,1.6c0.1,0.5-0.8,2.1-0.6,2.3c0.2,0.2,1.4-1.1,2-1.2c0.6-0.1,1.6,0.5,1.8,0.3
			c0.2-0.2-0.7-1-0.8-1.6c-0.1-0.6,0.8-2.1,0.6-2.3c-0.2-0.2-1.5,1.1-2,1.2C329.9,418,328.9,417.4,328.7,417.6z"/>
		<path d="M395.5,417.8c-0.2-0.2-1.2,0.3-1.8,0.2c-0.6-0.1-1.8-1.4-2-1.3c-0.2,0.2,0.6,1.8,0.5,2.3c-0.1,0.6-1,1.4-0.8,1.6
			c0.1,0.2,1.3-0.3,1.8-0.2c0.5,0.1,1.8,1.4,2,1.3c0.2-0.2-0.6-1.7-0.5-2.3C394.8,418.8,395.7,418.1,395.5,417.8z"/>
		<path d="M410.3,358.9c0.1,0.3,1.9,0,2.4,0.2c0.5,0.3,1,1.4,1.3,1.3c0.2-0.1,0.1-1.3,0.3-1.8c0.2-0.5,1.9-1.2,1.8-1.5
			s-1.8,0.1-2.4-0.2c-0.6-0.3-1-1.4-1.3-1.3c-0.3,0.1,0,1.2-0.3,1.8C411.8,358,410.2,358.7,410.3,358.9z"/>
		<path d="M344.4,355.4c1.4,0,2.6-1.1,2.6-2.6l0,0l0,0c-0.1-1.5-1.2-2.6-2.6-2.6c-1.4,0-2.6,1.2-2.6,2.6c0,1.4,1.1,2.6,2.5,2.6
			C344.3,355.4,344.4,355.4,344.4,355.4z M343.4,352.8c0-0.6,0.5-0.9,0.9-0.9c0,0,0,0,0,0c0.5,0,1,0.3,1,0.9c0,0.7-0.5,0.9-1,0.9
			c0,0,0,0,0,0C343.9,353.7,343.4,353.4,343.4,352.8z"/>
		<path d="M378.8,355.4c1.4,0,2.6-1.1,2.6-2.6l0,0l0,0c-0.1-1.5-1.2-2.6-2.6-2.6c-1.4,0-2.6,1.2-2.6,2.6c0,1.4,1.1,2.6,2.5,2.6
			C378.8,355.4,378.8,355.4,378.8,355.4z M377.8,352.8c0-0.6,0.5-0.9,0.9-0.9c0,0,0,0,0,0c0.5,0,1,0.3,1,0.9c0,0.7-0.5,0.9-1,0.9
			c0,0,0,0,0,0C378.3,353.7,377.8,353.4,377.8,352.8z"/>
		<path d="M359.5,403.7c0,1.4,1.1,2.6,2.5,2.6c0,0,0.1,0,0.1,0c1.4,0,2.6-1.1,2.6-2.6c-0.1-1.5-1.2-2.6-2.6-2.6
			C360.8,401.1,359.5,402.3,359.5,403.7z M362.1,402.7C362.1,402.7,362.1,402.7,362.1,402.7c0.5,0,1,0.3,1,0.9c0,0.7-0.6,0.9-1,0.9
			c-0.5,0-0.9-0.3-0.9-0.9C361.2,403.1,361.7,402.8,362.1,402.7z"/>
		<path d="M337.5,386.1c1.4,0,2.6-1.1,2.6-2.6c-0.1-1.5-1.2-2.6-2.6-2.6c-1.4,0-2.6,1.2-2.6,2.6c0,1.4,1.1,2.6,2.5,2.6
			C337.4,386.1,337.5,386.1,337.5,386.1z M336.5,383.4c0-0.6,0.5-0.9,0.9-0.9c0,0,0,0,0,0c0.5,0,1,0.3,1,0.9c0,0.7-0.6,1-1,0.9
			C337,384.4,336.5,384.1,336.5,383.4z"/>
		<path d="M387.1,386.1c1.4,0,2.6-1.1,2.6-2.6c-0.1-1.5-1.2-2.6-2.6-2.6c-1.4,0-2.6,1.2-2.6,2.6c0,1.4,1.1,2.6,2.5,2.6
			C387,386.1,387.1,386.1,387.1,386.1z M386.1,383.4c0-0.6,0.5-0.9,0.9-0.9c0,0,0,0,0,0c0.5,0,1,0.3,1,0.9c0,0.7-0.6,1-1,0.9
			C386.6,384.4,386.1,384.1,386.1,383.4z"/>
		<polygon points="365.8,374.6 369.4,369 363.8,372.6 362.3,363.2 360.8,372.6 355.2,369 358.7,374.6 349.3,376.1 358.7,377.6 
			355.2,383.2 360.8,379.7 362.3,389.1 363.8,379.7 369.4,383.2 365.8,377.6 375.3,376.1 		"/>
		<path d="M390.4,591.8c0.1,0.1,0.3,0.2,0.5,0.2c0.2,0,0.4-0.1,0.5-0.2c0.3-0.2,0.5-0.6,0.4-1l-10.5-32.4l-1.5,1.1l9.4,29.1
			c-11.5-8.5-37.4-27.7-42.5-31.4l-0.2-0.2l-0.6,1.8l0.1,0.1c5.2,3.9,29.2,21.6,35.1,26L390.4,591.8z"/>
		<path d="M315.8,536.6c9.2,6.8,17.9,13.2,26.8,19.8l0.2,0.2l0.7-1.7l-0.1-0.1c-5.9-4.3-12.1-8.9-18-13.3l-7.1-5.2h52.9l-0.1-0.3
			c0,0-0.1-0.2-0.1-0.4c-0.1-0.3-0.3-0.8-0.4-1l-0.1-0.2h-55c-0.4,0-0.7,0.2-0.8,0.6c-0.1,0.4,0,0.8,0.4,1.1L315.8,536.6z"/>
		<path d="M333,591.8c0.2,0.1,0.3,0.2,0.5,0.2c0.2,0,0.3-0.1,0.5-0.2l27.3-20.2l0.2-0.2l-0.2-0.2c0,0-0.8-0.7-1-0.9l-0.2-0.1
			l-24.9,18.4l16.7-51.7l-1.9,0l-17.4,53.8C332.5,591.1,332.7,591.5,333,591.8z"/>
		<path d="M351.2,533.4l0.3,0c0.4,0,0.9,0.1,1.4,0l0.1,0l9.1-28.2l16.3,50.4l1.5-1.2l-16.9-52.2c0-0.3-0.2-0.6-0.5-0.7
			c-0.1,0-0.2-0.1-0.3-0.1c0,0,0,0-0.1,0c0,0-0.1,0-0.1,0c-0.1,0-0.2,0-0.3,0.1c-0.3,0.1-0.5,0.4-0.5,0.6l-10,31L351.2,533.4z"/>
		<path d="M409.6,535c-0.1-0.4-0.4-0.6-0.8-0.6h-34.2l0.1,0.3c0.2,0.4,0.3,0.9,0.5,1.4l0.1,0.2h30.8l-43,31.8l-0.2,0.2l1.5,1.1
			l44.9-33.2C409.6,535.8,409.8,535.4,409.6,535z"/>
		<path d="M314,530c0.9-2.2,2-4.3,3.2-6.2c8.5-14.1,23.6-23.5,40.2-25.2l0.2,0l0-0.2c-0.1-0.4-0.1-0.9-0.1-1.3l0-0.3l-0.3,0
			c-14.6,1.4-28.1,8.6-37.2,19.7c-3.1,3.9-5.7,8.2-7.7,12.8l-0.1,0.3l0.3,0c0.4,0,0.7,0.2,1.2,0.4l0.2,0.1L314,530z"/>
		<path d="M327.5,592.5l0.2,0.2l0.1-0.2c0.2-0.3,0.6-0.6,1-0.8l0.3-0.2l-0.3-0.2c-2.5-2.1-4.9-4.4-6.9-6.8
			c-10.6-12.7-14.6-30-10.6-46.3l0.1-0.3h-0.3c-0.4,0-0.8-0.1-1.2-0.2l-0.2-0.1l-0.1,0.2c-3.4,14.1-1.1,29.1,6.3,41.3
			C318.9,584.2,322.9,588.7,327.5,592.5z"/>
		<path d="M389.1,597.9l0.2-0.1l-0.1-0.2c-0.3-0.4-0.5-0.7-0.6-1.1l-0.1-0.2l-0.2,0.1c-2.8,1.6-5.6,2.9-8.6,4
			c-14.6,5.1-31.3,3.4-44.7-4.7l-0.3-0.2l-0.1,0.3c-0.1,0.5-0.3,0.9-0.5,1.2l-0.1,0.2l0.2,0.1c8.6,5.2,18.4,7.8,28.2,7.8
			c3.5,0,6.9-0.3,10.3-1C378.5,603,384,600.9,389.1,597.9z"/>
		<path d="M414.8,537.8l-0.2,0c-0.5,0.1-0.9,0.2-1.3,0.3l-0.2,0l0.1,0.2c1,4.1,1.6,8.2,1.6,12.4c-0.1,15.6-7.1,30.3-19,40.4
			l-0.2,0.2l0.2,0.2c0.3,0.2,0.7,0.5,1,0.8l0.1,0.1l0.2-0.1c12.3-10.4,19.4-25.6,19.6-41.6c0-4.3-0.6-8.6-1.6-12.8L414.8,537.8z"/>
		<path d="M381,499.9c-4.3-1.6-8.9-2.6-13.6-3.1l-0.3,0l0.1,0.3c0.1,0.4,0.2,0.9,0.2,1.3l0,0.2l0.2,0c1.8,0.2,3.5,0.4,5.2,0.8
			c16.5,3.4,30.6,14.8,37.5,30.6l0.1,0.2l0.2,0c0.2-0.1,0.4-0.1,0.7,0l0.2,0l0.1-0.1c0.1-0.1,0.1-0.1,0.2-0.2
			c0.1-0.1,0.1-0.1,0.2-0.2l0.2-0.1l-0.1-0.2C406,515.7,394.7,505,381,499.9z"/>
		<path d="M362.1,500.5c0.3,0,0.5-1.8,0.9-2.2c0.4-0.4,1.6-0.6,1.6-0.8c0-0.2-1.2-0.5-1.6-0.9c-0.4-0.4-0.6-2.2-0.9-2.2
			c-0.3,0-0.5,1.7-0.9,2.2c-0.5,0.4-1.6,0.5-1.6,0.8c0,0.3,1.2,0.4,1.6,0.9C361.7,498.7,361.9,500.4,362.1,500.5z"/>
		<path d="M310.2,536.2c0.3,0.1,0.8-1,1.3-1.2c0.6-0.3,2.3,0.1,2.4-0.1c0.1-0.3-1.5-1.1-1.8-1.6c-0.2-0.5,0-1.7-0.3-1.8
			c-0.2-0.1-0.8,1-1.3,1.2c-0.5,0.2-2.3-0.1-2.4,0.1c-0.1,0.3,1.5,1,1.8,1.6C310.3,534.9,310,536.1,310.2,536.2z"/>
		<path d="M328.9,597.2c0.2,0.2,1.4-1.1,2-1.2c0.6-0.1,1.6,0.5,1.8,0.3c0.2-0.2-0.7-1-0.8-1.6c-0.1-0.6,0.8-2.1,0.6-2.3
			c-0.2-0.2-1.5,1.1-2,1.2c-0.6,0.1-1.6-0.5-1.8-0.3c-0.1,0.2,0.7,1.1,0.8,1.6C329.6,595.4,328.7,597,328.9,597.2z"/>
		<path d="M395.5,593.5c-0.2-0.2-1.2,0.3-1.8,0.2c-0.6-0.1-1.8-1.4-2-1.3c-0.2,0.2,0.6,1.8,0.5,2.3c-0.1,0.6-1,1.4-0.8,1.6
			c0.1,0.2,1.3-0.3,1.8-0.2c0.5,0.1,1.8,1.4,2,1.3c0.2-0.2-0.6-1.7-0.5-2.3C394.8,594.4,395.7,593.7,395.5,593.5z"/>
		<path d="M410.3,534.6c0.1,0.3,1.9,0,2.4,0.2c0.5,0.3,1,1.4,1.3,1.3c0.2-0.1,0.1-1.3,0.3-1.8c0.2-0.5,1.9-1.2,1.8-1.5
			c-0.1-0.3-1.8,0.1-2.4-0.2c-0.6-0.3-1-1.4-1.3-1.3c-0.3,0.1,0,1.2-0.3,1.8C411.8,533.6,410.2,534.3,410.3,534.6z"/>
		<path d="M344.4,525.8c-1.4,0-2.6,1.2-2.6,2.6c0,1.4,1.1,2.6,2.5,2.6c0,0,0.1,0,0.1,0c1.4,0,2.6-1.1,2.6-2.6l0,0l0,0
			C346.9,526.9,345.8,525.8,344.4,525.8z M344.4,529.4C344.3,529.4,344.3,529.4,344.4,529.4c-0.5,0-0.9-0.3-0.9-0.9
			c0-0.6,0.5-0.9,0.9-0.9c0,0,0,0,0,0c0.5,0,1,0.3,1,0.9C345.3,529.1,344.8,529.4,344.4,529.4z"/>
		<path d="M378.8,531c1.4,0,2.6-1.1,2.6-2.6l0,0l0,0c-0.1-1.5-1.2-2.6-2.6-2.6c-1.4,0-2.6,1.2-2.6,2.6c0,1.4,1.1,2.6,2.5,2.6
			C378.8,531,378.8,531,378.8,531z M377.8,528.4c0-0.6,0.5-0.9,0.9-0.9c0,0,0,0,0,0c0.5,0,1,0.3,1,0.9c0,0.7-0.5,0.9-1,0.9
			c0,0,0,0,0,0C378.3,529.3,377.8,529,377.8,528.4z"/>
		<path d="M362.1,581.9c0,0,0.1,0,0.1,0c1.4,0,2.6-1.1,2.6-2.6c-0.1-1.5-1.2-2.6-2.6-2.6c-1.4,0-2.6,1.2-2.6,2.6
			C359.5,580.7,360.7,581.9,362.1,581.9z M362.1,578.4C362.1,578.4,362.1,578.4,362.1,578.4c0.5,0,1,0.3,1,0.9c0,0.7-0.6,0.9-1,0.9
			c-0.5,0-0.9-0.3-0.9-0.9C361.2,578.7,361.7,578.4,362.1,578.4z"/>
		<path d="M334.8,559.1c0,1.4,1.1,2.6,2.5,2.6c0,0,0.1,0,0.1,0c1.4,0,2.6-1.1,2.6-2.6c-0.1-1.5-1.2-2.6-2.6-2.6
			C336.1,556.4,334.8,557.7,334.8,559.1z M338.5,559.1c0,0.7-0.6,1-1,0.9c-0.5,0-0.9-0.3-0.9-0.9c0-0.6,0.5-0.9,0.9-0.9c0,0,0,0,0,0
			C337.9,558.1,338.4,558.4,338.5,559.1z"/>
		<path d="M387.1,561.7c1.4,0,2.6-1.1,2.6-2.6c-0.1-1.5-1.2-2.6-2.6-2.6c-1.4,0-2.6,1.2-2.6,2.6c0,1.4,1.1,2.6,2.5,2.6
			C387,561.7,387.1,561.7,387.1,561.7z M386.1,559.1c0-0.6,0.5-0.9,0.9-0.9c0,0,0,0,0,0c0.5,0,1,0.3,1,0.9c0,0.7-0.6,1-1,0.9
			C386.6,560,386.1,559.7,386.1,559.1z"/>
		<polygon points="365.8,550.3 369.4,544.6 363.8,548.2 362.3,538.8 360.8,548.2 355.2,544.6 358.7,550.3 349.3,551.7 358.7,553.2 
			355.2,558.9 360.8,555.3 362.3,564.7 363.8,555.3 369.4,558.9 365.8,553.2 375.3,551.7 		"/>
		<path d="M134.9,298.4c0.9,0.4,1.8,0.8,2.7,1.2c0.5,0.2,1.1,0.5,1.6,0.7c0.1,0.1,0.2,0.1,0.2,0.1c0,0,0,0,0,0.1
			c1,1.7,1.2,4.2,1.8,6.1c0.1,0.4,0.7,0.4,0.8,0c0.6-1.9,0.9-4.4,1.8-6.1c0,0,0,0,0-0.1c0,0,0.1,0,0.1-0.1c0.5-0.3,1.2-0.5,1.7-0.8
			c0.9-0.4,1.8-0.8,2.7-1.2c0.4-0.2,0.2-0.6-0.1-0.7c-0.9-0.4-1.8-0.8-2.7-1.1c-1.1-0.5-1.7-0.5-2-1.5c-0.6-1.9-1.1-3.9-1.6-5.9
			c0,0,0,0,0-0.1c0,0,0,0,0-0.1c-0.1-0.1-0.2-0.2-0.3-0.2c-0.1,0-0.3,0-0.3,0.2c0,0,0,0.1,0,0.1c0,0,0,0,0,0c0,0,0,0,0,0
			c0,0,0,0,0,0c-0.5,1.9-0.9,3.9-1.5,5.9c-0.5,1.5-3.3,2.1-4.7,2.7C134.7,297.7,134.5,298.2,134.9,298.4z M140.3,295.8
			c0.6-1,0.7-2.7,1-3.7c0.1-0.5,0.3-0.9,0.4-1.4c0.1,0.5,0.3,0.9,0.4,1.4c0.3,1.1,0.4,2.7,1,3.7c0.6,1.1,2.7,1.7,4.2,2.2
			c-0.7,0.3-1.5,0.7-2.2,1c-0.6,0.3-1.5,0.5-1.9,1c-0.6,0.8-0.7,2.4-1,3.4c-0.2,0.6-0.3,1.1-0.5,1.7c-0.2-0.6-0.3-1.1-0.5-1.7
			c-0.3-0.9-0.4-2.6-1-3.4c-0.4-0.6-1.2-0.7-1.9-1c-0.7-0.3-1.5-0.7-2.2-1C137.7,297.5,139.7,296.9,140.3,295.8z"/>
		<path d="M148.4,469.6c-0.9-0.4-1.8-0.8-2.7-1.1c-1.1-0.5-1.7-0.5-2-1.5c-0.6-1.9-1.1-3.9-1.6-5.9c0,0,0,0,0-0.1c0,0,0,0,0-0.1
			c-0.1-0.1-0.2-0.2-0.3-0.2c-0.1,0-0.3,0-0.3,0.2c0,0,0,0.1,0,0.1c0,0,0,0,0,0c0,0,0,0,0,0c0,0,0,0,0,0c-0.5,1.9-0.9,3.9-1.5,5.9
			c-0.5,1.5-3.3,2.1-4.7,2.7c-0.3,0.1-0.5,0.6-0.1,0.7c0.9,0.4,1.8,0.8,2.7,1.2c0.5,0.2,1.1,0.5,1.6,0.7c0.1,0.1,0.2,0.1,0.2,0.1
			c0,0,0,0,0,0.1c1,1.7,1.2,4.2,1.8,6.1c0.1,0.4,0.7,0.4,0.8,0c0.6-1.9,0.9-4.4,1.8-6.1c0,0,0,0,0-0.1c0,0,0.1,0,0.1-0.1
			c0.5-0.3,1.2-0.5,1.7-0.8c0.9-0.4,1.8-0.8,2.7-1.2C148.9,470.2,148.7,469.7,148.4,469.6z M145.1,471.1c-0.6,0.3-1.5,0.5-1.9,1
			c-0.6,0.8-0.7,2.4-1,3.4c-0.2,0.6-0.3,1.1-0.5,1.7c-0.2-0.6-0.3-1.1-0.5-1.7c-0.3-0.9-0.4-2.6-1-3.4c-0.4-0.6-1.2-0.7-1.9-1
			c-0.7-0.3-1.5-0.7-2.2-1c1.5-0.5,3.5-1.1,4.2-2.2c0.6-1,0.7-2.7,1-3.7c0.1-0.5,0.3-0.9,0.4-1.4c0.1,0.5,0.3,0.9,0.4,1.4
			c0.3,1.1,0.4,2.7,1,3.7c0.6,1.1,2.7,1.7,4.2,2.2C146.5,470.4,145.8,470.7,145.1,471.1z"/>
		<path d="M125.9,381.4l-0.6,1.8l0.1,0.1c5.2,3.9,29.2,21.6,35.1,26l9.3,6.9c0.1,0.1,0.3,0.2,0.5,0.2c0.2,0,0.4-0.1,0.5-0.2
			c0.3-0.2,0.5-0.6,0.4-1l-10.5-32.4l-1.5,1.1l9.4,29.1c-11.5-8.5-37.4-27.7-42.5-31.4L125.9,381.4z"/>
		<path d="M94.2,359.3c-0.1,0.4,0,0.8,0.4,1.1l0.7,0.5c9.2,6.8,17.9,13.2,26.8,19.8l0.2,0.2l0.7-1.7l-0.1-0.1
			c-5.9-4.3-12.1-8.9-18-13.3l-7.1-5.2h52.9l-0.1-0.3c0,0-0.1-0.2-0.1-0.4c-0.1-0.3-0.3-0.8-0.4-1l-0.1-0.2H95
			C94.6,358.8,94.3,359,94.2,359.3z"/>
		<path d="M112.5,416.1c0.2,0.1,0.3,0.2,0.5,0.2c0.2,0,0.3-0.1,0.5-0.2l27.3-20.2l0.2-0.2l-0.2-0.2c0,0-0.8-0.7-1-0.9l-0.2-0.1
			L114.7,413l16.7-51.7l-1.9,0l-17.4,53.8C112,415.5,112.1,415.9,112.5,416.1z"/>
		<path d="M130.7,357.8l0.3,0c0.4,0,0.9,0.1,1.4,0l0.1,0l9.1-28.2l16.3,50.4l1.5-1.2l-16.9-52.2c0-0.3-0.2-0.6-0.5-0.7
			c-0.1,0-0.2-0.1-0.3-0.1c0,0,0,0-0.1,0c0,0-0.1,0-0.1,0c-0.1,0-0.2,0-0.3,0.1c-0.3,0.1-0.5,0.4-0.5,0.6l-10,31L130.7,357.8z"/>
		<path d="M189.1,359.3c-0.1-0.4-0.4-0.6-0.8-0.6h-34.2l0.1,0.3c0.2,0.4,0.3,0.9,0.5,1.4l0.1,0.2h30.8l-43,31.8l-0.2,0.2l1.5,1.1
			l44.9-33.2C189.1,360.2,189.2,359.7,189.1,359.3z"/>
		<path d="M93.2,354.5l0.2,0.1l0.1-0.2c0.9-2.2,2-4.3,3.2-6.2c8.5-14.1,23.6-23.5,40.2-25.2l0.2,0l0-0.2c-0.1-0.4-0.1-0.9-0.1-1.3
			l0-0.3l-0.3,0c-14.6,1.4-28.1,8.6-37.2,19.7c-3.1,3.9-5.7,8.2-7.7,12.8l-0.1,0.3l0.3,0C92.4,354.1,92.7,354.3,93.2,354.5z"/>
		<path d="M107,416.9l0.2,0.2l0.1-0.2c0.2-0.3,0.6-0.6,1-0.8l0.3-0.2l-0.3-0.2c-2.5-2.1-4.9-4.4-6.9-6.8
			c-10.6-12.7-14.6-30-10.6-46.3l0.1-0.3h-0.3c-0.4,0-0.8-0.1-1.2-0.2l-0.2-0.1l-0.1,0.2c-3.4,14.1-1.1,29.1,6.3,41.3
			C98.4,408.6,102.3,413.1,107,416.9z"/>
		<path d="M168.6,422.3l0.2-0.1l-0.1-0.2c-0.3-0.4-0.5-0.7-0.6-1.1l-0.1-0.2l-0.2,0.1c-2.8,1.6-5.6,2.9-8.6,4
			c-14.6,5.1-31.3,3.4-44.7-4.7l-0.3-0.2l-0.1,0.3c-0.1,0.5-0.3,0.9-0.5,1.2l-0.1,0.2l0.2,0.1c8.6,5.2,18.4,7.8,28.2,7.8
			c3.5,0,6.9-0.3,10.3-1C158,427.4,163.5,425.3,168.6,422.3z"/>
		<path d="M194.3,362.2l-0.2,0c-0.5,0.1-0.9,0.2-1.3,0.3l-0.2,0l0.1,0.2c1,4.1,1.6,8.2,1.6,12.4c-0.1,15.6-7.1,30.3-19,40.4
			l-0.2,0.2l0.2,0.2c0.3,0.2,0.7,0.5,1,0.8l0.1,0.1l0.2-0.1c12.3-10.4,19.4-25.6,19.6-41.6c0-4.3-0.6-8.6-1.6-12.8L194.3,362.2z"/>
		<path d="M146.5,321.2l0.1,0.3c0.1,0.4,0.2,0.9,0.2,1.3l0,0.2l0.2,0c1.8,0.2,3.5,0.4,5.2,0.8c16.5,3.4,30.6,14.8,37.5,30.6l0.1,0.2
			l0.2,0c0.2-0.1,0.4-0.1,0.7,0l0.2,0l0.1-0.1c0.1-0.1,0.1-0.1,0.2-0.2c0.1-0.1,0.1-0.1,0.2-0.2l0.2-0.1l-0.1-0.2
			c-5.9-13.7-17.2-24.4-30.9-29.5c-4.3-1.6-8.9-2.6-13.6-3.1L146.5,321.2z"/>
		<path d="M141.6,324.8c0.3,0,0.5-1.8,0.9-2.2c0.4-0.4,1.6-0.6,1.6-0.8c0-0.2-1.2-0.5-1.6-0.9c-0.4-0.4-0.6-2.2-0.9-2.2
			c-0.3,0-0.5,1.7-0.9,2.2c-0.5,0.4-1.6,0.5-1.6,0.8c0,0.3,1.2,0.4,1.6,0.9C141.2,323.1,141.3,324.8,141.6,324.8z"/>
		<path d="M89.4,358.7c0.3,0.6,0,1.7,0.3,1.8c0.3,0.1,0.8-1,1.3-1.2c0.6-0.3,2.3,0.1,2.4-0.1c0.1-0.3-1.5-1.1-1.8-1.6
			c-0.2-0.5,0-1.7-0.3-1.8c-0.2-0.1-0.8,1-1.3,1.2c-0.5,0.2-2.3-0.1-2.4,0.1C87.6,357.4,89.2,358.2,89.4,358.7z"/>
		<path d="M108.2,417.6c-0.1,0.2,0.7,1.1,0.8,1.6c0.1,0.5-0.8,2.1-0.6,2.3c0.2,0.2,1.4-1.1,2-1.2c0.6-0.1,1.6,0.5,1.8,0.3
			s-0.7-1-0.8-1.6c-0.1-0.6,0.8-2.1,0.6-2.3c-0.2-0.2-1.5,1.1-2,1.2C109.4,418,108.3,417.4,108.2,417.6z"/>
		<path d="M175,417.8c-0.2-0.2-1.2,0.3-1.8,0.2c-0.6-0.1-1.8-1.4-2-1.3c-0.2,0.2,0.6,1.8,0.5,2.3c-0.1,0.6-1,1.4-0.8,1.6
			c0.1,0.2,1.3-0.3,1.8-0.2c0.5,0.1,1.8,1.4,2,1.3c0.2-0.2-0.6-1.7-0.5-2.3C174.3,418.8,175.2,418.1,175,417.8z"/>
		<path d="M189.8,358.9c0.1,0.3,1.9,0,2.4,0.2c0.5,0.3,1,1.4,1.3,1.3c0.2-0.1,0.1-1.3,0.3-1.8c0.2-0.5,1.9-1.2,1.8-1.5
			c-0.1-0.3-1.8,0.1-2.4-0.2c-0.6-0.3-1-1.4-1.3-1.3c-0.3,0.1,0,1.2-0.3,1.8C191.3,358,189.7,358.7,189.8,358.9z"/>
		<path d="M123.9,355.4c1.4,0,2.6-1.1,2.6-2.6l0,0l0,0c-0.1-1.5-1.2-2.6-2.6-2.6c-1.4,0-2.6,1.2-2.6,2.6c0,1.4,1.1,2.6,2.5,2.6
			C123.8,355.4,123.8,355.4,123.9,355.4z M122.9,352.8c0-0.6,0.5-0.9,0.9-0.9c0,0,0,0,0,0c0.5,0,1,0.3,1,0.9c0,0.7-0.5,0.9-1,0.9
			c0,0,0,0,0,0C123.3,353.7,122.9,353.4,122.9,352.8z"/>
		<path d="M158.3,355.4c1.4,0,2.6-1.1,2.6-2.6l0,0l0,0c-0.1-1.5-1.2-2.6-2.6-2.6c-1.4,0-2.6,1.2-2.6,2.6c0,1.4,1.1,2.6,2.5,2.6
			C158.2,355.4,158.3,355.4,158.3,355.4z M157.3,352.8c0-0.6,0.5-0.9,0.9-0.9c0,0,0,0,0,0c0.5,0,1,0.3,1,0.9c0,0.7-0.5,0.9-1,0.9
			c0,0,0,0,0,0C157.8,353.7,157.3,353.4,157.3,352.8z"/>
		<path d="M139,403.7c0,1.4,1.1,2.6,2.5,2.6c0,0,0.1,0,0.1,0c1.4,0,2.6-1.1,2.6-2.6c-0.1-1.5-1.2-2.6-2.6-2.6
			C140.2,401.1,139,402.3,139,403.7z M141.6,402.7C141.6,402.7,141.6,402.7,141.6,402.7c0.5,0,1,0.3,1,0.9c0,0.7-0.6,0.9-1,0.9
			c-0.5,0-0.9-0.3-0.9-0.9C140.7,403.1,141.1,402.8,141.6,402.7z"/>
		<path d="M117,386.1c1.4,0,2.6-1.1,2.6-2.6c-0.1-1.5-1.2-2.6-2.6-2.6c-1.4,0-2.6,1.2-2.6,2.6c0,1.4,1.1,2.6,2.5,2.6
			C116.9,386.1,116.9,386.1,117,386.1z M116,383.4c0-0.6,0.5-0.9,0.9-0.9c0,0,0,0,0,0c0.5,0,1,0.3,1,0.9c0,0.7-0.6,1-1,0.9
			C116.4,384.4,116,384.1,116,383.4z"/>
		<path d="M166.6,386.1c1.4,0,2.6-1.1,2.6-2.6c-0.1-1.5-1.2-2.6-2.6-2.6c-1.4,0-2.6,1.2-2.6,2.6c0,1.4,1.1,2.6,2.5,2.6
			C166.5,386.1,166.5,386.1,166.6,386.1z M165.6,383.4c0-0.6,0.5-0.9,0.9-0.9c0,0,0,0,0,0c0.5,0,1,0.3,1,0.9c0,0.7-0.6,1-1,0.9
			C166.1,384.4,165.6,384.1,165.6,383.4z"/>
		<polygon points="145.3,374.6 148.9,369 143.2,372.6 141.8,363.2 140.3,372.6 134.7,369 138.2,374.6 128.8,376.1 138.2,377.6 
			134.7,383.2 140.3,379.7 141.8,389.1 143.2,379.7 148.9,383.2 145.3,377.6 154.7,376.1 		"/>
		<path d="M169.9,591.8c0.1,0.1,0.3,0.2,0.5,0.2c0.2,0,0.4-0.1,0.5-0.2c0.3-0.2,0.5-0.6,0.4-1l-10.5-32.4l-1.5,1.1l9.4,29.1
			c-11.5-8.5-37.4-27.7-42.5-31.4l-0.2-0.2l-0.6,1.8l0.1,0.1c5.2,3.9,29.2,21.6,35.1,26L169.9,591.8z"/>
		<path d="M95.2,536.6c9.2,6.8,17.9,13.2,26.8,19.8l0.2,0.2l0.7-1.7l-0.1-0.1c-5.9-4.3-12.1-8.9-18-13.3l-7.1-5.2h52.9l-0.1-0.3
			c0,0-0.1-0.2-0.1-0.4c-0.1-0.3-0.3-0.8-0.4-1l-0.1-0.2H95c-0.4,0-0.7,0.2-0.8,0.6c-0.1,0.4,0,0.8,0.4,1.1L95.2,536.6z"/>
		<path d="M112.5,591.8c0.2,0.1,0.3,0.2,0.5,0.2c0.2,0,0.3-0.1,0.5-0.2l27.3-20.2l0.2-0.2l-0.2-0.2c0,0-0.8-0.7-1-0.9l-0.2-0.1
			l-24.9,18.4l16.7-51.7l-1.9,0l-17.4,53.8C112,591.1,112.1,591.5,112.5,591.8z"/>
		<path d="M130.7,533.4l0.3,0c0.4,0,0.9,0.1,1.4,0l0.1,0l9.1-28.2l16.3,50.4l1.5-1.2l-16.9-52.2c0-0.3-0.2-0.6-0.5-0.7
			c-0.1,0-0.2-0.1-0.3-0.1c0,0,0,0-0.1,0c0,0-0.1,0-0.1,0c-0.1,0-0.2,0-0.3,0.1c-0.3,0.1-0.5,0.4-0.5,0.6l-10,31L130.7,533.4z"/>
		<path d="M189.1,535c-0.1-0.4-0.4-0.6-0.8-0.6h-34.2l0.1,0.3c0.2,0.4,0.3,0.9,0.5,1.4l0.1,0.2h30.8l-43,31.8l-0.2,0.2l1.5,1.1
			l44.9-33.2C189.1,535.8,189.2,535.4,189.1,535z"/>
		<path d="M93.5,530c0.9-2.2,2-4.3,3.2-6.2c8.5-14.1,23.6-23.5,40.2-25.2l0.2,0l0-0.2c-0.1-0.4-0.1-0.9-0.1-1.3l0-0.3l-0.3,0
			c-14.6,1.4-28.1,8.6-37.2,19.7c-3.1,3.9-5.7,8.2-7.7,12.8l-0.1,0.3l0.3,0c0.4,0,0.7,0.2,1.2,0.4l0.2,0.1L93.5,530z"/>
		<path d="M108.6,591.6l-0.3-0.2c-2.5-2.1-4.9-4.4-6.9-6.8c-10.6-12.7-14.6-30-10.6-46.3l0.1-0.3h-0.3c-0.4,0-0.8-0.1-1.2-0.2
			l-0.2-0.1l-0.1,0.2c-3.4,14.1-1.1,29.1,6.3,41.3c3.1,5.1,7,9.6,11.7,13.4l0.2,0.2l0.1-0.2c0.2-0.3,0.6-0.6,1-0.8L108.6,591.6z"/>
		<path d="M168.6,597.9l0.2-0.1l-0.1-0.2c-0.3-0.4-0.5-0.7-0.6-1.1l-0.1-0.2l-0.2,0.1c-2.8,1.6-5.6,2.9-8.6,4
			c-14.6,5.1-31.3,3.4-44.7-4.7l-0.3-0.2l-0.1,0.3c-0.1,0.5-0.3,0.9-0.5,1.2l-0.1,0.2l0.2,0.1c8.6,5.2,18.4,7.8,28.2,7.8
			c3.5,0,6.9-0.3,10.3-1C158,603,163.5,600.9,168.6,597.9z"/>
		<path d="M194.3,537.8l-0.2,0c-0.5,0.1-0.9,0.2-1.3,0.3l-0.2,0l0.1,0.2c1,4.1,1.6,8.2,1.6,12.4c-0.1,15.6-7.1,30.3-19,40.4
			l-0.2,0.2l0.2,0.2c0.3,0.2,0.7,0.5,1,0.8l0.1,0.1l0.2-0.1c12.3-10.4,19.4-25.6,19.6-41.6c0-4.3-0.6-8.6-1.6-12.8L194.3,537.8z"/>
		<path d="M160.5,499.9c-4.3-1.6-8.9-2.6-13.6-3.1l-0.3,0l0.1,0.3c0.1,0.4,0.2,0.9,0.2,1.3l0,0.2l0.2,0c1.8,0.2,3.5,0.4,5.2,0.8
			c16.5,3.4,30.6,14.8,37.5,30.6l0.1,0.2l0.2,0c0.2-0.1,0.4-0.1,0.7,0l0.2,0l0.1-0.1c0.1-0.1,0.1-0.1,0.2-0.2
			c0.1-0.1,0.1-0.1,0.2-0.2l0.2-0.1l-0.1-0.2C185.4,515.7,174.2,505,160.5,499.9z"/>
		<path d="M141.6,500.5c0.3,0,0.5-1.8,0.9-2.2c0.4-0.4,1.6-0.6,1.6-0.8c0-0.2-1.2-0.5-1.6-0.9c-0.4-0.4-0.6-2.2-0.9-2.2
			c-0.3,0-0.5,1.7-0.9,2.2c-0.5,0.4-1.6,0.5-1.6,0.8c0,0.3,1.2,0.4,1.6,0.9C141.2,498.7,141.3,500.4,141.6,500.5z"/>
		<path d="M89.7,536.2c0.3,0.1,0.8-1,1.3-1.2c0.6-0.3,2.3,0.1,2.4-0.1c0.1-0.3-1.5-1.1-1.8-1.6c-0.2-0.5,0-1.7-0.3-1.8
			c-0.2-0.1-0.8,1-1.3,1.2c-0.5,0.2-2.3-0.1-2.4,0.1c-0.1,0.3,1.5,1,1.8,1.6S89.4,536.1,89.7,536.2z"/>
		<path d="M112.2,596.3c0.2-0.2-0.7-1-0.8-1.6c-0.1-0.6,0.8-2.1,0.6-2.3c-0.2-0.2-1.5,1.1-2,1.2c-0.6,0.1-1.6-0.5-1.8-0.3
			c-0.1,0.2,0.7,1.1,0.8,1.6c0.1,0.5-0.8,2.1-0.6,2.3c0.2,0.2,1.4-1.1,2-1.2C111,595.9,112,596.5,112.2,596.3z"/>
		<path d="M175,593.5c-0.2-0.2-1.2,0.3-1.8,0.2c-0.6-0.1-1.8-1.4-2-1.3c-0.2,0.2,0.6,1.8,0.5,2.3c-0.1,0.6-1,1.4-0.8,1.6
			c0.1,0.2,1.3-0.3,1.8-0.2c0.5,0.1,1.8,1.4,2,1.3c0.2-0.2-0.6-1.7-0.5-2.3C174.3,594.4,175.2,593.7,175,593.5z"/>
		<path d="M189.8,534.6c0.1,0.3,1.9,0,2.4,0.2c0.5,0.3,1,1.4,1.3,1.3c0.2-0.1,0.1-1.3,0.3-1.8c0.2-0.5,1.9-1.2,1.8-1.5
			c-0.1-0.3-1.8,0.1-2.4-0.2c-0.6-0.3-1-1.4-1.3-1.3c-0.3,0.1,0,1.2-0.3,1.8C191.3,533.6,189.7,534.3,189.8,534.6z"/>
		<path d="M123.9,525.8c-1.4,0-2.6,1.2-2.6,2.6c0,1.4,1.1,2.6,2.5,2.6c0,0,0.1,0,0.1,0c1.4,0,2.6-1.1,2.6-2.6l0,0l0,0
			C126.4,526.9,125.3,525.8,123.9,525.8z M123.8,529.4C123.8,529.4,123.8,529.4,123.8,529.4c-0.5,0-0.9-0.3-0.9-0.9
			c0-0.6,0.5-0.9,0.9-0.9c0,0,0,0,0,0c0.5,0,1,0.3,1,0.9C124.8,529.1,124.3,529.4,123.8,529.4z"/>
		<path d="M158.3,531c1.4,0,2.6-1.1,2.6-2.6l0,0l0,0c-0.1-1.5-1.2-2.6-2.6-2.6c-1.4,0-2.6,1.2-2.6,2.6c0,1.4,1.1,2.6,2.5,2.6
			C158.2,531,158.3,531,158.3,531z M157.3,528.4c0-0.6,0.5-0.9,0.9-0.9c0,0,0,0,0,0c0.5,0,1,0.3,1,0.9c0,0.7-0.5,0.9-1,0.9
			c0,0,0,0,0,0C157.8,529.3,157.3,529,157.3,528.4z"/>
		<path d="M141.5,581.9c0,0,0.1,0,0.1,0c1.4,0,2.6-1.1,2.6-2.6c-0.1-1.5-1.2-2.6-2.6-2.6c-1.4,0-2.6,1.2-2.6,2.6
			C139,580.7,140.2,581.9,141.5,581.9z M141.6,578.4C141.6,578.4,141.6,578.4,141.6,578.4c0.5,0,1,0.3,1,0.9c0,0.7-0.6,0.9-1,0.9
			c-0.5,0-0.9-0.3-0.9-0.9C140.7,578.7,141.1,578.4,141.6,578.4z"/>
		<path d="M114.3,559.1c0,1.4,1.1,2.6,2.5,2.6c0,0,0.1,0,0.1,0c1.4,0,2.6-1.1,2.6-2.6c-0.1-1.5-1.2-2.6-2.6-2.6
			C115.5,556.4,114.3,557.7,114.3,559.1z M117.9,559.1c0,0.7-0.6,1-1,0.9c-0.5,0-0.9-0.3-0.9-0.9c0-0.6,0.5-0.9,0.9-0.9c0,0,0,0,0,0
			C117.4,558.1,117.9,558.4,117.9,559.1z"/>
		<path d="M166.6,561.7c1.4,0,2.6-1.1,2.6-2.6c-0.1-1.5-1.2-2.6-2.6-2.6c-1.4,0-2.6,1.2-2.6,2.6c0,1.4,1.1,2.6,2.5,2.6
			C166.5,561.7,166.5,561.7,166.6,561.7z M165.6,559.1c0-0.6,0.5-0.9,0.9-0.9c0,0,0,0,0,0c0.5,0,1,0.3,1,0.9c0,0.7-0.6,1-1,0.9
			C166.1,560,165.6,559.7,165.6,559.1z"/>
		<polygon points="145.3,550.3 148.9,544.6 143.2,548.2 141.8,538.8 140.3,548.2 134.7,544.6 138.2,550.3 128.8,551.7 138.2,553.2 
			134.7,558.9 140.3,555.3 141.8,564.7 143.2,555.3 148.9,558.9 145.3,553.2 154.7,551.7 		"/>
	</g>
</g>
</svg>
