<?xml version="1.0" encoding="utf-8"?>
<!-- Generator: Adobe Illustrator 21.1.0, SVG Export Plug-In . SVG Version: 6.00 Build 0)  -->
<svg version="1.1" xmlns="http://www.w3.org/2000/svg" xmlns:xlink="http://www.w3.org/1999/xlink" x="0px" y="0px"
	 viewBox="0 0 504 864" style="enable-background:new 0 0 504 864;" xml:space="preserve">
<g id="Слой_1">
</g>
<g id="Слой_2">
	<g>
		<path d="M503.8,18.2c-1.6-17.9-18.7-16.3-31.6-16.3c-45.9,0-91.8,0-137.6,0c-63.2,0-126.3,0-189.5,0c-40.6,0-81.2,0-121.8,0
			c-2.6,0-5.3-0.2-8,0.2c-9.5,1.2-15,9.2-15.2,18.2c-0.2,7.3,0,14.5,0,21.8c0,37.4,0,74.9,0,112.3c0,57,0,114.1,0,171.1
			c0,64.3,0,128.6,0,192.9c0,58.4,0,116.7,0,175.1c0,40.1,0,80.2,0,120.3c0,9.1,0,18.2,0,27.3c0,11.7,6.7,20.5,19.2,20.7
			c35.9,0.6,71.9,0,107.9,0c62.4,0,124.9,0,187.3,0c49.7,0,99.5,0,149.2,0c7.6,0,15.2,0,22.9,0c0.4,0,0.8-0.1,1.2-0.2
			c14.4-1.8,16.1-13.8,16.1-25.5c0-11.4,0-22.8,0-34.3c0-43.4,0-86.9,0-130.3c0-59.9,0-119.8,0-179.8c0-63.9,0-127.7,0-191.6
			c0-55.3,0-110.6,0-165.9c0-33.7,0-67.3,0-101C503.9,28.3,504.2,23.2,503.8,18.2z M486.6,852.8c-28.3,0-56.6,0-84.9,0
			c-59.9,0-119.8,0-179.7,0c-54,0-108,0-162,0c-13.1,0-26.1,0-39.2,0c-5.6,0-11-1.3-11.7-8.3c-0.2-1.5,0-3,0-4.5c0-26.5,0-53,0-79.5
			c0-50,0-100,0-149.9c0-61.8,0-123.6,0-185.4c0-61.4,0-122.7,0-184.1c0-48.9,0-97.7,0-146.6c0-24.2-0.8-48.6,0-72.7
			c0.2-5.3,1.6-10.1,8.3-10.8c2.2-0.2,4.5,0,6.7,0c14.8,0,29.6,0,44.5,0c55.6,0,111.3,0,166.9,0c58.9,0,117.8,0,176.7,0
			c18.9,0,37.9,0,56.8,0c8.1,0,24.7-3.1,25.9,8.4c0.5,5.2,0,10.8,0,16.1c0,13.5,0,27.1,0,40.6c0,45.5,0,91.1,0,136.6
			c0,60.1,0,120.2,0,180.3c0,62.6,0,125.1,0,187.7c0,52.8,0,105.6,0,158.4c0,31.4,0,62.7,0,94.1C494.8,840.3,496.9,852,486.6,852.8z
			"/>
		<path d="M460,790.9c1.2,0.1,2.4-0.7,2.4-2.2c0-23.7,0-47.4,0-71.1c0-56.4,0-112.8,0-169.2c0-68.7,0-137.4,0-206
			c0-59,0-117.9,0-176.9c0-19.6,0-39.2,0-58.8c0-8.9,1.3-19,0-27.9c-0.1-0.4,0-0.8,0-1.2c0-0.8-0.3-1.3-0.8-1.7
			c0.1-1.2-0.6-2.5-2.2-2.6c-13.1-0.5-25.3-13.8-25.8-26.7c0-0.5-0.2-0.8-0.4-1.1c-0.3-0.6-1-1.1-1.9-1.1c-40.5,0-80.9,0-121.4,0
			c-64.5,0-129,0-193.6,0c-14.9,0-29.7,0-44.6,0c-0.9,0-1.6,0.5-1.9,1.1c-0.2,0.3-0.3,0.7-0.4,1.2C69.1,59.5,57,72.8,43.9,73.3
			c-1.8,0.1-2.5,1.9-2,3.2c-0.2,0.3-0.2,0.6-0.2,1c0,23.7,0,47.4,0,71.1c0,56.4,0,112.8,0,169.2c0,68.7,0,137.4,0,206
			c0,59,0,117.9,0,176.9c0,19.6,0,39.2,0,58.8c0,8.9-1.3,19,0,27.9c0.1,0.4,0,0.8,0,1.2c0,0.9,0.5,1.6,1.1,1.9
			c0.3,0.2,0.7,0.3,1.2,0.4c13,0.5,25.3,13.3,25.8,26.2c0,0.5,0.2,0.8,0.4,1.1c0.3,0.6,1,1.1,1.9,1.1c40.5,0,80.9,0,121.4,0
			c64.5,0,129,0,193.6,0c14.9,0,29.7,0,44.6,0c0.9,0,1.6-0.5,1.9-1.1c0.2-0.3,0.3-0.7,0.4-1.2c0.5-12.9,12.7-25.7,25.8-26.2
			C459.6,791,459.8,790.9,460,790.9z M429.3,814.9c-39.8,0-79.6,0-119.3,0c-64.5,0-129,0-193.6,0c-14.2,0-28.3,0-42.5,0
			c-1.7-13.9-13.9-26.5-27.8-28.3c0-23,0-46,0-69.1c0-56.4,0-112.8,0-169.2c0-68.7,0-137.4,0-206c0-59,0-117.9,0-176.9
			c0-19.6,0-39.2,0-58.8c0-8.9,1.3-19,0-27.9c-0.1-0.4,0-0.8,0-1.2c14-1.8,26.1-14.9,27.8-28.7c39.8,0,79.5,0,119.3,0
			c64.5,0,129,0,193.6,0c14.2,0,28.3,0,42.5,0c1.7,14.1,14.3,27.4,28.5,28.8c0,23.7,0,47.3,0,71c0,56.4,0,112.8,0,169.2
			c0,68.7,0,137.4,0,206c0,59,0,117.9,0,176.9c0,19.6,0,39.2,0,58.8c0,8.6-1.2,18.4-0.1,27C443.6,788.1,431.1,800.9,429.3,814.9z"/>
		<path d="M233.4,80.3c0.2,0,0.3,0.1,0.3,0.4c0,0.2,0.3,0.4,1,0.5c0.6,0.1,1.1,0.4,1.5,0.9c0.4,0.5,0.7,1.1,0.7,1.6
			c0,0.5,0.1,1,0.3,1.6c0.2,0.6,0.4,0.9,0.5,0.9c0.1,0,0.2,0.3,0.2,0.8c0,0.6,0.2,1.1,0.5,1.4c0.3,0.3,0.5,0.9,0.8,1.8
			c0.2,0.9,0.3,1.7,0.3,2.5c0,0.9,0.1,1.4,0.4,1.4c0.1,0.1,0.2,0.3,0.2,0.7s0.1,0.6,0.2,0.6c0.2,0.1,0.3,0.6,0.3,1.6
			c0,0.9,0.1,1.4,0.4,1.4c0.2,0,0.4,0.3,0.6,1c0.2,0.7,0.4,1,0.5,1c0.2,0,0.4,0.3,0.4,0.8c0.1,0.7,0.5,1,1.3,1c0.1,0,0.4,0,0.6-0.1
			c0.5-0.1,0.7-0.4,0.7-1.1c0-0.6,0.1-0.9,0.3-0.9c0.2,0,0.3-0.3,0.3-0.9c0-0.6,0.1-0.9,0.3-0.9c0.2-0.1,0.3-0.6,0.3-1.5
			c0-0.9,0.2-1.6,0.6-1.9c0.5-0.5,0.8-0.7,1.1-0.8c0.3-0.1,0.4-0.5,0.4-1.3c0-0.8,0.1-1.2,0.4-1.4c0.2-0.1,0.4-0.6,0.6-1.5
			c0.2-0.9,0.3-1.4,0.4-1.5c0.3-0.2,0.4-0.5,0.4-0.9c0-0.4,0.2-0.6,0.7-0.7c0.4,0,0.6-0.3,0.6-0.7c0-0.2-0.1-0.6-0.1-1
			c0-1,0.2-1.5,0.6-1.5c0.4,0,0.5-0.3,0.5-0.8c0-0.5,0.2-0.9,0.6-1.4c0.4-0.4,0.9-0.7,1.6-0.8c0.8-0.2,1.2-0.6,1.2-1.4
			c0-0.1,0-0.4-0.1-0.7l-0.1-0.6h-3.7c-2.5,0-3.7,0.1-3.7,0.3c0,0.2-0.1,0.3-0.3,0.3c-0.3,0-0.6,0.2-0.9,0.6
			c-0.4,0.5-0.4,0.7-0.2,0.7c0.3,0,0.5,0.1,0.5,0.4c0.1,0.3,0.5,0.4,1.1,0.4c0.6,0,1,0.2,1.1,0.7c0.1,0.5,0.1,0.7-0.1,0.8
			c-0.2,0.1-0.3,0.5-0.3,1.3c0,0.7-0.1,1.2-0.4,1.3c-0.2,0.1-0.3,0.3-0.3,0.7c0,0.1,0.1,0.2,0.1,0.4c0,0.5-0.1,0.9-0.3,1.4
			c-0.2,0.5-0.4,0.8-0.7,0.8c-0.4,0.1-0.5,0.4-0.5,0.9c0,0.5-0.1,0.9-0.3,1.1c-0.2,0.2-0.4,0.8-0.4,1.7c-0.1,1-0.3,1.5-0.6,1.5
			c-0.4,0-0.5,0.2-0.4,0.5c0,0.2,0,0.4,0,0.4c-0.1,0.1-0.2,0.1-0.4,0.1c-0.4,0-0.7-0.1-0.9-0.2c-0.5-0.3-0.7-1.2-0.8-2.9
			c0-0.7-0.1-1.2-0.4-1.4c-0.2-0.2-0.3-0.7-0.3-1.6c0-1.3-0.3-2.2-0.9-2.6c-0.2-0.1-0.2-0.3,0.1-0.4c0.1,0,0.2-0.2,0.3-0.4
			c0.1-0.2,0.1-0.5,0.1-0.7c0-0.2-0.1-0.3-0.2-0.3c-0.1,0-0.3-0.3-0.4-0.8c-0.1-0.6-0.4-0.9-0.7-0.9c-0.3-0.1-0.4-0.2-0.4-0.3
			c0-0.4,0.5-0.5,1.4-0.5c1.3,0,1.9-0.2,1.9-0.7c0-0.2,0.1-0.4,0.3-0.4c0.2,0,0.1-0.3-0.3-0.8c-0.4-0.5-0.9-0.8-1.6-0.8
			c-0.7,0-1.1-0.1-1.2-0.3c-0.1-0.1-0.3-0.1-0.7,0.1c-0.4,0.2-0.6,0.2-0.7-0.1c-0.2-0.2-0.3-0.3-0.4-0.1c-0.1,0.2-0.5,0.3-1.1,0.3
			c-0.4,0-0.6,0-0.8-0.1c-0.1-0.1-0.2-0.3-0.3-0.7c-0.1-0.5-0.3-0.8-0.7-0.8c-0.2,0-0.5,0.2-0.8,0.5c-0.4,0.4-0.7,0.5-1.2,0.5
			c-0.4,0-0.6,0.1-0.6,0.4c0,0.3-0.1,0.4-0.3,0.4s-0.3,0.2-0.3,0.6C233.1,80.1,233.2,80.3,233.4,80.3z"/>
		<path d="M259.2,102.7c0.3,0,0.6,0.1,0.9,0.4c0.3,0.3,0.5,0.4,0.6,0.2c0.1-0.2,1.5-0.4,4-0.4c2.1,0,3.2,0.1,3.2,0.3
			c0,0.2,0.2,0.3,0.5,0.3c0.4,0,0.6-0.1,0.6-0.2s0.2-0.3,0.6-0.5c0.4-0.2,0.6-0.4,0.6-0.6c0-0.9-0.7-1.4-1.9-1.5l-1.3-0.1l0.1-6.7
			c0.1-4.5,0.2-6.8,0.3-7c0.1-0.1,0.2-0.8,0.3-1.9c0.1-2.1,0.4-3.2,0.7-3.2c0.2,0,0.4-0.1,0.4-0.3c0-0.2,0.2-0.3,0.7-0.3
			c0.4,0,0.8-0.1,1-0.3c0.3-0.2,0.4-0.5,0.4-0.7c0-0.3-0.2-0.6-0.5-0.8c-0.3-0.2-1.4-0.3-3.4-0.3c-2,0-2.9,0.1-2.9,0.3
			c0,0.1-0.3,0.2-0.9,0.2c-0.6,0-0.9,0.1-0.9,0.4s-0.1,0.4-0.3,0.4c-0.2,0-0.3,0.2-0.3,0.6c0,0.5,0.1,0.8,0.4,0.9
			c0.3,0.1,0.4,0.9,0.4,2.5c0,1.6,0.1,2.4,0.3,2.5c0.2,0.1,0.3,0.8,0.3,2.2c0,1.3-0.1,2-0.3,2.1c-0.2,0.1-0.4,1.5-0.4,4.3
			c-0.1,2.4-0.2,3.9-0.4,4.3c-0.2,0.5-0.8,0.8-1.8,0.9c-0.6,0-0.9,0.1-1,0.2c-0.1,0.1-0.2,0.4-0.2,0.8
			C258.8,102.4,258.9,102.7,259.2,102.7z M265.3,88c0.3,0,0.4,0.2,0.4,0.6c0,0.4-0.1,0.5-0.4,0.5c-0.3,0-0.4-0.2-0.4-0.5
			C264.8,88.2,265,88,265.3,88z M263.6,96c0.2,0,0.4,0.1,0.4,0.3c0,0.2-0.1,0.3-0.4,0.3c-0.3,0-0.4-0.1-0.4-0.3
			C263.2,96.1,263.4,96,263.6,96z"/>
		<path d="M151.5,789.5c0-0.6-0.1-0.9-0.2-1.1c-0.1-0.2-0.3-0.4-0.6-0.5c-0.3-0.1-0.5-0.3-0.5-0.4c-0.1-0.1-0.3-0.3-0.9-0.6
			c-0.5-0.3-1-0.5-1.3-0.6c-0.2-0.1-0.5-0.2-0.9-0.5c-0.4-0.3-0.6-0.4-0.6-0.5c0-0.1-0.1-0.2-0.2-0.3c-0.2-0.1-0.2-0.2-0.2-0.3
			c0,0,0-0.1,0-0.1c0.1-0.1,0.1-0.2,0.1-0.3c0-0.1,0-0.3-0.1-0.6c0-0.1,0-0.2,0-0.2c0,0,0.2-0.1,0.3-0.1c0.3,0,0.4-0.1,0.4-0.2
			c0-0.1,0.1-0.2,0.4-0.4c0.3-0.2,0.4-0.3,0.4-0.3c0-0.1,0.1-0.1,0.4-0.2c0.1,0,0.1,0,0.2,0c0.4,0,0.8,0.2,1.2,0.5
			c0.5,0.3,0.7,0.6,0.7,0.9c0,0.2,0.1,0.4,0.3,0.5c0.2,0.1,0.3,0.3,0.3,0.4c0,0.1,0.1,0.3,0.2,0.5s0.3,0.3,0.4,0.3c0,0,0,0,0.1,0
			c0.1-0.1,0.1-0.7,0.2-2v-0.8c0-0.6-0.1-0.9-0.2-0.9c-0.1,0-0.1,0-0.1,0c-0.3,0.1-0.6,0.2-0.8,0.2c-0.3,0-0.6-0.1-1-0.3
			c-0.4-0.2-0.6-0.3-0.7-0.3c0,0-0.1,0-0.2,0.1c-0.3,0.1-0.6,0.1-0.8,0.1c-0.3,0-0.4,0-0.5,0.1c0,0.1-0.1,0.2-0.3,0.2
			c-0.2,0-0.4-0.1-0.5-0.2c-0.1-0.1-0.3-0.2-0.5-0.2h0c-0.1,0-0.1,0-0.1,0c-0.1,0-0.1,0-0.1,0c0,0,0.1,0,0.1,0
			c0.1,0.1,0.2,0.1,0.2,0.2c0,0.2-0.2,0.3-0.5,0.4c-0.3,0.1-0.4,0.2-0.4,0.4c0.1,0.2,0,0.3-0.2,0.4c-0.3,0.1-0.6,0.5-1.1,1.1
			c-0.1,0.2-0.2,0.4-0.2,0.6c0,0,0,0.3,0.1,0.8c0.1,0.7,0.3,1.1,0.4,1.3c0.1,0.2,0.4,0.4,0.7,0.7c0.4,0.3,0.6,0.4,0.8,0.4
			c0.1,0,0.3,0.1,0.6,0.4c0.4,0.3,0.9,0.6,1.7,0.8c0.5,0.1,0.8,0.3,1.1,0.6c0.2,0.2,0.3,0.4,0.5,0.7c0.1,0.3,0.2,0.5,0.2,0.7
			c0,0.1,0,0.1-0.1,0.2c-0.1,0-0.1,0.2-0.1,0.4c0.1,0.2,0,0.4-0.2,0.6c-0.1,0.1-0.2,0.3-0.2,0.4c0,0.2-0.5,0.4-1.4,0.5
			c-0.1,0-0.3,0-0.6,0c-0.9,0-1.7-0.4-2.2-1.2c-0.3-0.4-0.5-0.8-0.5-1c0,0,0-0.1,0-0.2c0-0.1,0-0.2,0-0.2c0,0-0.1-0.1-0.1-0.1
			c-0.1,0-0.1,0-0.1-0.1c0.1-0.3-0.1-0.5-0.4-0.6c-0.1,0-0.2-0.1-0.3-0.1c-0.3,0-0.4,0.2-0.5,0.5c-0.1,1.2-0.1,1.9-0.2,1.9
			c-0.1,0.1-0.1,0.4-0.2,0.8c0,0.1,0,0.3,0,0.4c0,0.2,0.1,0.4,0.3,0.6c0.1,0.1,0.2,0.2,0.3,0.2c0,0,0.1,0,0.2-0.2
			c0.1-0.2,0.2-0.3,0.2-0.4c0-0.3,0.2-0.3,0.5-0.1c0.9,0.5,1.8,0.7,2.9,0.7c0.5,0,1.1-0.1,1.6-0.2c0.6-0.1,1.1-0.3,1.4-0.6
			c0.3-0.3,0.5-0.5,0.5-0.5c0-0.1,0.1-0.2,0.2-0.3c0.2-0.1,0.3-0.4,0.3-0.9c0.1-0.5,0.1-0.7,0.2-0.7s0.1,0,0-0.1
			C151.6,790.6,151.5,790.2,151.5,789.5z M147.1,788C147.1,788,147,787.9,147.1,788c-0.1-0.1-0.1-0.1,0-0.1
			C147.2,787.8,147.2,787.9,147.1,788C147.2,787.9,147.2,788,147.1,788z"/>
		<path d="M145.6,788.7c0-0.1,0-0.2-0.1-0.2c-0.1,0-0.1,0-0.1,0.1l0.1,0.2C145.6,789,145.6,788.9,145.6,788.7z"/>
		<path d="M164.5,782c-0.1-0.1-0.7-0.1-1.8-0.1c-1,0-1.5,0-1.5,0.1c0,0.1-0.2,0.1-0.5,0.1c-0.3,0-0.5,0.1-0.5,0.2
			c0,0.1,0,0.2-0.1,0.2c-0.1,0-0.1,0.1-0.1,0.3c0,0.3,0.1,0.4,0.2,0.5c0.1,0.1,0.2,0.5,0.2,1.3c0,0.8,0,1.2,0.1,1.3
			c0.1,0,0.1,0.4,0.1,1.1c0,0.7,0,1-0.1,1.1c-0.1,0-0.2,0.8-0.2,2.2c0,1.2-0.1,2-0.2,2.2c-0.1,0.2-0.4,0.4-0.9,0.5
			c-0.3,0-0.5,0.1-0.5,0.1c-0.1,0.1-0.1,0.2-0.1,0.4c0,0.3,0.1,0.5,0.2,0.5c0.2,0,0.3,0.1,0.5,0.2c0.2,0.2,0.3,0.2,0.3,0.1
			c0.1-0.1,0.8-0.2,2.1-0.2c1.1,0,1.6,0.1,1.6,0.2c0,0.1,0.1,0.1,0.3,0.1c0.2,0,0.3,0,0.3-0.1c0-0.1,0.1-0.2,0.3-0.3
			c0.2-0.1,0.3-0.2,0.3-0.3c0-0.5-0.4-0.7-1-0.8l-0.6-0.1l0.1-3.5c0-2.3,0.1-3.5,0.2-3.6c0.1-0.1,0.1-0.4,0.1-1
			c0.1-1.1,0.2-1.6,0.4-1.6c0.1,0,0.2,0,0.2-0.1c0-0.1,0.1-0.2,0.4-0.2c0.2,0,0.4-0.1,0.5-0.2c0.1-0.1,0.2-0.2,0.2-0.4
			C164.7,782.3,164.7,782.1,164.5,782z M161,790.9c-0.1,0-0.2,0-0.2-0.1s0.1-0.1,0.2-0.1c0.1,0,0.2,0,0.2,0.1S161.2,790.9,161,790.9
			z M161.9,787.1c-0.1,0-0.2-0.1-0.2-0.3c0-0.2,0.1-0.3,0.2-0.3c0.1,0,0.2,0.1,0.2,0.3C162.1,787,162,787.1,161.9,787.1z"/>
		<path d="M173.4,785.9c0-0.1,0-0.2-0.1-0.3c-0.1-0.2-0.2-0.2-0.3,0c0,0.1,0,0.2,0.1,0.4l0.2,0.4L173.4,785.9z"/>
		<path d="M182.5,781.4c-0.8,0-1.2,0.1-1.2,0.2c0,0.1-0.3,0.2-1,0.3c-1,0.1-1.5,0.3-1.5,0.7c0,0.2,0.1,0.4,0.2,0.6
			c0.1,0.2,0.2,0.3,0.3,0.3c0.1,0,0.2,0.1,0.4,0.3c0.1,0.2,0.1,0.4-0.1,0.6c-0.2,0.2-0.2,0.3-0.1,0.3c0.1,0,0,0.1-0.1,0.4
			c-0.1,0.2-0.2,0.4-0.2,0.6c0,0.1-0.1,0.3-0.4,0.6c-0.2,0.3-0.4,0.4-0.4,0.5c0,0.1-0.2,0.2-0.5,0.2c-0.2,0-0.4,0-0.4-0.1
			c-0.1,0-0.1-0.2-0.1-0.4c-0.1-0.3-0.2-0.6-0.4-0.7c-0.2-0.1-0.3-0.3-0.3-0.5c0-0.2-0.1-0.4-0.2-0.5c-0.1-0.1-0.2-0.3-0.3-0.6
			c-0.1-0.4-0.1-0.6-0.1-0.8c0-0.1,0-0.2,0.1-0.3c0.1,0,0.2-0.1,0.4-0.1c0.3,0,0.4-0.1,0.5-0.1c0.1,0,0.1-0.1,0.1-0.3
			c0-0.1,0-0.2,0-0.3l-0.1-0.5l-1.2,0.1c-0.8,0.1-1.2,0.1-1.3,0.2c-0.1,0.1-0.2,0.2-0.4,0.2c-0.2,0-0.3,0-0.3-0.1s-0.1-0.2-0.3-0.3
			c-0.2-0.1-0.4-0.1-0.5-0.1c-0.3,0-0.5,0.1-0.5,0.3c0,0.1-0.1,0.2-0.4,0.2c-0.1,0-0.2,0-0.2,0.1c0.1,0,0.2,0.1,0.2,0.3
			c0,0.2,0.1,0.3,0.2,0.3c0.1,0,0.2,0.1,0.3,0.2c0.1,0.1,0.3,0.2,0.5,0.3c0.3,0.1,0.6,0.2,0.7,0.4c0.1,0.2,0.2,0.3,0.4,0.3
			c0.1,0,0.2,0.1,0.2,0.4c0,0.3,0.1,0.4,0.2,0.4s0.2,0.1,0.2,0.3c0,0.2,0.1,0.4,0.3,0.5c0.1,0.1,0.2,0.2,0.2,0.3
			c0,0.1,0,0.2,0.1,0.3c0.2,0.1,0.3,0.2,0.4,0.5c0.1,0.3,0.2,0.4,0.3,0.4c0.1,0,0.1,0.1,0.1,0.3c0,0.2,0.1,0.3,0.3,0.4
			c0.1,0.1,0.2,0.2,0.2,0.3c0,0.1,0,0.1,0,0.3c0,0.1,0,0.2,0,0.3c0,0.1-0.1,0.2-0.3,0.2c-0.2,0.1-0.3,0.2-0.4,0.5
			c-0.1,0.3-0.1,0.4-0.2,0.4c-0.1,0-0.3,0.2-0.6,0.5c-0.3,0.3-0.4,0.6-0.4,0.7c0,0.2-0.1,0.2-0.2,0.2s-0.2,0.1-0.2,0.2
			c0,0.1-0.1,0.2-0.4,0.4c-0.2,0.1-0.4,0.3-0.4,0.6c0,0.1,0,0.2-0.1,0.3c0,0.1-0.1,0.1-0.2,0.1c-0.1,0-0.3,0-0.6,0.1
			c-0.5,0-0.8,0.1-0.9,0.2c-0.1,0.1-0.2,0.4-0.2,0.8c0,0.3,0.1,0.5,0.2,0.5c0.1,0,0.1-0.1,0.2-0.2c0-0.1,0.6-0.2,1.8-0.2
			c0.7,0,1.2,0,1.4,0c0.2,0,0.3,0.1,0.3,0.2c0,0.2,0,0.2,0.1,0.1c0.1-0.1,0.2-0.2,0.2-0.1c0,0,0,0,0.1,0c0.1,0,0.2-0.1,0.3-0.2
			c0.1-0.1,0.2-0.3,0.3-0.4c0-0.1,0-0.2,0-0.3c-0.1,0-0.2-0.1-0.5-0.1c-0.6-0.1-0.9-0.3-0.9-0.6c0-0.1,0.1-0.2,0.2-0.2
			c0.1,0,0.2-0.1,0.2-0.4c0-0.2,0.1-0.4,0.2-0.4s0.2-0.1,0.2-0.2c0-0.1,0.1-0.3,0.4-0.5c0.3-0.2,0.4-0.4,0.3-0.4v-0.1
			c0-0.3,0.1-0.5,0.2-0.8c0.1-0.2,0.3-0.4,0.5-0.4c0.1,0,0.1,0,0.1,0c0.2,0.1,0.2,0.2,0.2,0.3c0,0.1,0.1,0.3,0.4,0.7
			c0.3,0.4,0.4,0.6,0.4,0.6c0,0.1,0.1,0.2,0.2,0.2c0.1,0.1,0.2,0.2,0.3,0.5c0,0.2,0.1,0.3,0.2,0.4c0.1,0.1,0.2,0.1,0.4,0.2l0.5,0.1
			l-0.5,0.1c-0.3,0.1-0.5,0.2-0.5,0.3c0,0.4-0.2,0.6-0.7,0.6c-0.2,0-0.3,0-0.3,0.1c-0.1,0-0.1,0.1-0.1,0.3v0.4h1.8
			c1.2,0,1.9,0.1,1.9,0.2c0.1,0.1,0.2,0.1,0.3,0c0.1-0.1,0.4-0.2,0.8-0.1l0.5,0.1v-0.5c0-0.2,0-0.4-0.1-0.5
			c-0.1-0.1-0.2-0.2-0.5-0.3c-0.4-0.2-0.6-0.3-0.6-0.3c0,0-0.1-0.1-0.4-0.3c-0.3-0.2-0.4-0.3-0.4-0.4c0-0.2-0.1-0.4-0.2-0.6
			c-0.1-0.2-0.2-0.3-0.3-0.3c-0.1,0-0.2-0.1-0.3-0.4c-0.1-0.3-0.2-0.4-0.3-0.4c-0.1,0-0.2-0.1-0.3-0.3s-0.3-0.5-0.7-0.9
			c-0.4-0.4-0.7-0.6-0.8-0.6c-0.1,0-0.1-0.1-0.1-0.2c0-0.4,0.2-0.9,0.6-1.3c0.3-0.3,0.5-0.6,0.5-0.7c0-0.1,0.1-0.3,0.4-0.6
			c0.3-0.3,0.5-0.4,0.6-0.4c0.1,0,0.1-0.1,0.1-0.3c0-0.5,0.1-0.7,0.4-0.7c0.2,0,0.3,0,0.3-0.1c0-0.1,0.1-0.2,0.2-0.4
			c0.2-0.1,0.3-0.2,0.5-0.2c0.2,0,0.3-0.1,0.5-0.3l0.2-0.3l0.1,0.3c0.1,0.2,0.2,0.3,0.3,0.3c0.1,0,0.2-0.1,0.2-0.3
			c0.1-0.2,0.2-0.3,0.4-0.3c0.1,0,0.2,0,0.2-0.1c0-0.1,0.1-0.2,0.1-0.4c0-0.5-0.1-0.8-0.2-0.9C183.7,781.5,183.2,781.4,182.5,781.4z
			 M175.5,782.9c0,0,0,0,0-0.1c0-0.1,0-0.1,0-0.2c0-0.1,0-0.1,0.1,0l0,0.1C175.6,782.8,175.6,782.9,175.5,782.9z M175.8,785.3
			C175.8,785.3,175.8,785.2,175.8,785.3c-0.1-0.1,0-0.1,0-0.1C175.9,785.1,175.9,785.1,175.8,785.3
			C175.9,785.2,175.9,785.3,175.8,785.3z M176.1,786.2l0-0.1c0-0.1,0-0.1,0-0.1c0-0.1,0-0.1,0.1,0
			C176.2,786,176.2,786.1,176.1,786.2z M177.7,789.4c-0.1,0-0.1,0-0.1-0.1c0-0.1,0-0.2,0.1-0.2c0.1,0,0.1,0.1,0.1,0.2
			C177.9,789.3,177.8,789.4,177.7,789.4z"/>
		<path d="M215.3,785.7c-0.2-0.1-0.2-0.2-0.2-0.5c0-0.3,0-0.5-0.1-0.5c-0.1,0-0.1-0.1-0.1-0.4c0-0.3-0.1-0.4-0.2-0.4
			c-0.1,0-0.2-0.1-0.3-0.3c-0.1-0.2-0.2-0.3-0.3-0.4c-0.1-0.1-0.2-0.2-0.2-0.4c0-0.2-0.1-0.3-0.4-0.3c-0.7,0-1-0.1-1-0.4
			c0-0.1-0.1-0.2-0.2-0.2c-0.1,0-0.2,0-0.2-0.1s-0.1-0.1-0.3-0.1c-0.2,0-0.3-0.1-0.4-0.2c0-0.1-0.5-0.2-1.5-0.2
			c-0.9,0-1.5,0.1-1.6,0.2c-0.1,0.1-0.2,0.2-0.4,0.2c-0.2,0-0.3,0.1-0.4,0.3c-0.1,0.2-0.3,0.4-0.6,0.4c-0.3,0-0.6,0.1-1.1,0.2
			c-0.5,0.1-0.7,0.3-0.8,0.5c0,0.2-0.2,0.4-0.5,0.7c-0.3,0.3-0.4,0.5-0.4,0.5c0,0.1-0.1,0.1-0.2,0.1c-0.1,0-0.2,0.1-0.3,0.4
			c-0.1,0.2-0.2,0.5-0.3,0.7c-0.2,0.3-0.2,0.8-0.2,1.8c0,1.2,0.1,2.1,0.4,2.9c0.5,1.4,0.9,2.2,1.2,2.3c0.2,0,0.3,0.1,0.3,0.3
			c0,0.2,0.2,0.2,0.4,0.2c0.2,0,0.4,0,0.4,0.1c0,0.1,0.1,0.1,0.3,0.1c0.2,0,0.3,0.1,0.3,0.4c0,0.2,0,0.3,0.1,0.4
			c0.1,0.1,0.2,0,0.4-0.1c0.1-0.1,0.2-0.1,0.3,0c0.2,0.1,0.9,0.2,2.2,0.2c1.1,0,1.7-0.1,1.7-0.2c0-0.1,0.3-0.2,0.7-0.2
			c0.4,0,0.6-0.1,0.6-0.2c0-0.2,0.1-0.3,0.2-0.3c0,0,0.2-0.1,0.4-0.3c0.3-0.2,0.4-0.3,0.5-0.3c0.1,0,0.2-0.1,0.2-0.3
			c0.1-0.2,0.2-0.3,0.3-0.3c0.1,0,0.2-0.1,0.3-0.3c0-0.2,0.2-0.3,0.4-0.3c0.2-0.1,0.3-0.1,0.3-0.2c0-0.1,0.1-0.1,0.2-0.1
			c0.1,0,0.2-0.2,0.2-0.6c0-0.3,0-0.5-0.1-0.5c-0.1,0-0.1-0.1,0-0.2c0.1-0.1,0.2-0.8,0.2-2.1c0-0.3,0-0.7,0-1.1
			C215.5,786,215.4,785.7,215.3,785.7z M213.1,788.8c-0.1,0-0.2,0.2-0.2,0.4c0,0.3-0.1,0.4-0.2,0.5c-0.1,0.1-0.2,0.4-0.3,0.8
			c-0.1,0.4-0.1,0.6-0.3,0.6c-0.1,0-0.2,0-0.2,0.1c0,0.1-0.1,0.2-0.4,0.2c-0.3,0.1-0.4,0.2-0.4,0.3c0,0.1,0,0.2-0.1,0.2
			c-0.1,0.1-0.2,0.1-0.4,0.2c-0.1,0.1-0.2,0.1-0.3,0.1c0,0.1-0.2,0.1-0.4,0.1c-0.2,0-0.3,0.1-0.5,0.2c-0.1,0.1-0.2,0.1-0.4,0.1
			c-0.2,0-0.4,0-0.7-0.1c-0.5-0.1-1-0.3-1.3-0.6c-0.3-0.3-0.7-0.8-1-1.5c-0.3-0.5-0.4-0.9-0.5-1.1c0-0.2-0.1-0.7-0.1-1.4
			c0-0.7,0-1.1,0.1-1.4c0-0.2,0.1-0.5,0.3-0.8c0.3-0.5,0.6-0.9,1-1.3c0.4-0.4,0.8-0.6,1-0.7c0.3,0,0.5-0.1,0.5-0.3
			c0-0.1,0.1-0.2,0.2-0.2c0.1,0,0.2,0,0.2-0.1c0-0.1,0.1-0.1,0.3-0.1c0.2,0,0.3,0,0.3,0.1c0,0.1,0.3,0.1,0.9,0.1
			c0.5,0,0.8,0.1,0.8,0.2c0,0.1,0.1,0.2,0.3,0.3c0.2,0.1,0.3,0.2,0.3,0.3c0,0.1,0.1,0.2,0.3,0.3c0.3,0.1,0.5,0.4,0.5,0.8
			c0,0.2,0.1,0.5,0.3,0.8c0.2,0.3,0.3,0.7,0.3,1.1c0,0.5,0,0.7,0.1,0.8c0.1,0.1,0.1,0.2,0.1,0.4
			C213.3,788.6,213.2,788.7,213.1,788.8z"/>
		<path d="M233.1,783.9c0-0.3-0.1-0.5-0.2-0.6c-0.1-0.1-0.1-0.2,0-0.4c0.1-0.1,0.1-0.2,0.1-0.2c0-0.1-0.1-0.2-0.2-0.2
			s-0.2-0.2-0.2-0.3c0-0.2-0.1-0.3-0.3-0.5c-0.2-0.2-0.4-0.3-0.5-0.3c-0.1,0-0.2,0-0.2,0.1c0,0.1-0.3,0.1-0.9,0.2
			c-0.5,0.1-1.1,0.1-1.7,0.1c-0.6,0-0.9,0-1,0.1c-0.1,0-0.5,0.1-1.4,0.1c-0.9,0.1-1.8,0.2-2.7,0.3c-0.9,0.1-1.4,0.2-1.4,0.2
			c0,0,0,0.1,0,0.2c0,0.1,0,0.2,0.1,0.3c0.1,0.2,0.1,0.3,0.2,0.4c0.1,0,0.3,0.1,0.6,0.1c0.5,0,0.9,0.1,1,0.3
			c0.1,0.2,0.2,0.7,0.2,1.6c0,0.9-0.1,1.4-0.2,1.5c-0.1,0.1-0.1,0.2,0,0.4c0.1,0.3,0.2,0.5,0,0.7c-0.1,0.2-0.2,0.3-0.3,0.3
			c-0.1,0,0,0.1,0.1,0.2c0.1,0.1,0.1,0.3,0.1,0.6c0,0.1,0,0.4-0.1,0.8c-0.1,1.4-0.2,2.3-0.2,2.6c-0.1,0.4-0.1,0.5-0.3,0.6
			c-0.2,0.1-0.5,0.3-0.8,0.6l-0.5,0.6h5v-0.5c0-0.2,0-0.4-0.1-0.4c0-0.1-0.1-0.1-0.3-0.1c-0.2,0-0.4,0-0.4-0.1s-0.1-0.1-0.2-0.1
			s-0.2-0.1-0.3-0.3c0-0.1,0-0.4,0-1.2c0-1.2,0-2.1,0.1-2.8c0-0.1,0.5-0.1,1.4-0.1c0.8,0,1.3,0.1,1.5,0.2c0.3,0.1,0.4,0.4,0.4,0.9
			c0,0.3,0,0.5,0.1,0.5c0.1,0,0.1-0.1,0.3-0.2c0.1-0.1,0.3-0.2,0.5-0.1c0.2,0.1,0.3,0,0.3-0.2c0-0.2,0-0.3,0.1-0.4
			c0.1-0.1,0.1-0.2,0-0.2c-0.1-0.1-0.2-0.3-0.2-0.6c0-0.4,0.1-0.7,0.2-0.8c0.1-0.1,0.1-0.1,0.1-0.2c0-0.1,0-0.1-0.1-0.2
			c-0.1-0.1-0.1-0.2-0.1-0.2c0-0.1,0-0.1,0.1-0.2c0.2-0.1,0.2-0.2,0.2-0.4c0-0.3-0.4-0.4-1.1-0.4c-0.4,0-0.6,0.2-0.6,0.5
			c0,0.1,0,0.2,0.1,0.3c0.1,0.2,0,0.4,0,0.5c-0.1,0.1-0.4,0.2-1,0.3c-0.6,0.1-1.1,0.2-1.6,0.2h-0.5v-0.6c0-0.4,0.1-0.6,0.2-0.7
			c0.1-0.1,0.2-0.2,0.2-0.4c0-0.3-0.1-0.5-0.2-0.8c-0.1-0.2-0.2-0.4-0.2-0.4c0-0.1,0.1-0.1,0.2-0.3c0.2-0.2,0.3-0.4,0.2-0.6
			c0-0.1,0-0.1,0-0.2c0-0.1,0.1-0.2,0.4-0.3c0.3-0.1,0.8-0.1,1.6-0.1c0.7,0,1.1-0.1,1.1-0.1c0.3,0,0.5,0.1,0.7,0.2
			c0.2,0.2,0.3,0.3,0.5,0.4c0.2,0.1,0.3,0.2,0.3,0.3c0,0.1,0.1,0.3,0.3,0.4c0.2,0.1,0.4,0.3,0.5,0.6c0.1,0.4,0.4,0.5,0.8,0.5
			c0.1,0,0.2,0,0.3-0.1c0.1-0.1,0.2-0.2,0.2-0.6c0-0.3-0.1-0.5-0.2-0.5C233.1,784.4,233.1,784.2,233.1,783.9z"/>
		<path d="M255.6,789.7c0-0.1,0-0.2-0.1-0.2c-0.1,0-0.1,0-0.1,0.1l0.1,0.2C255.6,789.9,255.6,789.9,255.6,789.7z"/>
		<path d="M261.5,790.5c0-0.6-0.1-0.9-0.2-1.1c-0.1-0.2-0.3-0.4-0.6-0.5c-0.3-0.1-0.5-0.3-0.5-0.4c-0.1-0.1-0.3-0.3-0.9-0.6
			c-0.5-0.3-1-0.5-1.3-0.6c-0.2-0.1-0.5-0.2-0.9-0.5c-0.4-0.3-0.6-0.4-0.6-0.5c0-0.1-0.1-0.2-0.2-0.3c-0.2-0.1-0.2-0.2-0.2-0.3
			c0,0,0-0.1,0-0.1c0.1-0.1,0.1-0.2,0.1-0.3c0-0.1,0-0.3-0.1-0.6c0-0.1,0-0.2,0-0.2c0,0,0.2-0.1,0.3-0.1c0.3,0,0.4-0.1,0.4-0.2
			c0-0.1,0.1-0.2,0.4-0.4c0.3-0.2,0.4-0.3,0.4-0.3c0-0.1,0.1-0.1,0.4-0.2c0.1,0,0.1,0,0.2,0c0.4,0,0.8,0.2,1.2,0.5
			c0.5,0.3,0.7,0.6,0.7,0.9c0,0.2,0.1,0.4,0.3,0.5c0.2,0.1,0.3,0.3,0.3,0.4c0,0.1,0.1,0.3,0.2,0.5s0.3,0.3,0.4,0.3c0,0,0,0,0.1,0
			c0.1-0.1,0.1-0.7,0.2-2v-0.8c0-0.6-0.1-0.9-0.2-0.9c-0.1,0-0.1,0-0.1,0c-0.3,0.1-0.6,0.2-0.8,0.2c-0.3,0-0.6-0.1-1-0.3
			c-0.4-0.2-0.6-0.3-0.7-0.3c0,0-0.1,0-0.2,0.1c-0.3,0.1-0.6,0.1-0.8,0.1c-0.3,0-0.4,0-0.5,0.1c0,0.1-0.1,0.2-0.3,0.2
			c-0.2,0-0.4-0.1-0.5-0.2c-0.1-0.1-0.3-0.2-0.5-0.2h0c-0.1,0-0.1,0-0.1,0c-0.1,0-0.1,0-0.1,0c0,0,0.1,0,0.1,0
			c0.1,0.1,0.2,0.1,0.2,0.2c0,0.2-0.2,0.3-0.5,0.4c-0.3,0.1-0.4,0.2-0.4,0.4c0.1,0.2,0,0.3-0.2,0.4c-0.3,0.1-0.6,0.5-1.1,1.1
			c-0.1,0.2-0.2,0.4-0.2,0.6c0,0,0,0.3,0.1,0.8c0.1,0.7,0.3,1.1,0.4,1.3c0.1,0.2,0.4,0.4,0.7,0.7c0.4,0.3,0.6,0.4,0.8,0.4
			c0.1,0,0.3,0.1,0.6,0.4c0.4,0.3,0.9,0.6,1.7,0.8c0.5,0.1,0.8,0.3,1.1,0.6c0.2,0.2,0.3,0.4,0.5,0.7c0.1,0.3,0.2,0.5,0.2,0.7
			c0,0.1,0,0.1-0.1,0.2c-0.1,0-0.1,0.2-0.1,0.4c0.1,0.2,0,0.4-0.2,0.6c-0.1,0.1-0.2,0.3-0.2,0.4c0,0.2-0.5,0.4-1.4,0.5
			c-0.1,0-0.3,0-0.6,0c-0.9,0-1.7-0.4-2.2-1.2c-0.3-0.4-0.5-0.8-0.5-1c0,0,0-0.1,0-0.2c0-0.1,0-0.2,0-0.2c0,0-0.1-0.1-0.1-0.1
			c-0.1,0-0.1,0-0.1-0.1c0.1-0.3-0.1-0.5-0.4-0.6c-0.1,0-0.2-0.1-0.3-0.1c-0.3,0-0.4,0.2-0.5,0.5c-0.1,1.2-0.1,1.9-0.2,1.9
			c-0.1,0.1-0.1,0.4-0.2,0.8c0,0.1,0,0.3,0,0.4c0,0.2,0.1,0.4,0.3,0.6c0.1,0.1,0.2,0.2,0.3,0.2c0,0,0.1,0,0.2-0.2
			c0.1-0.2,0.2-0.3,0.2-0.4c0-0.3,0.2-0.3,0.5-0.1c0.9,0.5,1.8,0.7,2.9,0.7c0.5,0,1.1-0.1,1.6-0.2c0.6-0.1,1.1-0.3,1.4-0.6
			c0.3-0.3,0.5-0.5,0.5-0.5c0-0.1,0.1-0.2,0.2-0.3c0.2-0.1,0.3-0.4,0.3-0.9c0.1-0.5,0.1-0.7,0.2-0.7c0.1,0,0.1,0,0-0.1
			S261.6,791.2,261.5,790.5z M257.1,788.9C257.1,788.9,257.1,788.9,257.1,788.9c-0.1-0.1-0.1-0.1,0-0.1S257.2,788.8,257.1,788.9
			C257.2,788.9,257.2,788.9,257.1,788.9z"/>
		<path d="M284.3,782.4c-0.1,0-0.3,0-0.5,0c-0.2,0-0.4,0-0.4,0c-0.4,0-0.6,0-0.7,0.1c-0.1,0-0.3,0.1-0.4,0.3
			c-0.2,0.2-0.3,0.3-0.3,0.4c0,0.1,0,0.1,0.2,0.2c0.3,0.2,0.5,0.2,0.7,0.2c0.3,0,0.4,0.1,0.5,0.3c0.1,0.2,0,0.3-0.1,0.4
			c-0.1,0-0.2,0.2-0.2,0.6c0,0.4-0.1,0.6-0.2,0.6c-0.2,0.1-0.2,0.2-0.2,0.4v0.4c0,0.6-0.1,0.9-0.3,0.9c-0.1,0-0.2,0.1-0.3,0.3
			c0,0.2-0.1,0.7-0.3,1.5c-0.1,0.4-0.2,0.6-0.4,0.6c-0.1,0-0.2,0.1-0.2,0.2c0,0.1,0,0.2-0.2,0.2c-0.3,0-0.4-0.1-0.5-0.2
			c-0.1-0.2-0.2-0.5-0.3-0.9c-0.1-0.4-0.2-1-0.2-1.7c-0.1-0.5-0.2-0.8-0.3-0.9c-0.1-0.1-0.1-0.4-0.1-0.7c0-0.3,0-0.5-0.1-0.5
			c-0.1,0-0.1-0.1-0.1-0.4c0-0.2-0.1-0.4-0.2-0.5c-0.1-0.1-0.2-0.1-0.2-0.2c0-0.1,0.2-0.2,0.6-0.2c0.4,0,0.7-0.1,0.9-0.3
			c0.1-0.1,0.2-0.2,0.2-0.3c0-0.1,0-0.2-0.1-0.4c-0.1-0.2-0.3-0.4-0.6-0.5c-0.3-0.1-0.8-0.1-1.6-0.1c-0.6,0-1-0.1-1-0.3
			c-0.1-0.2-0.1-0.3-0.2-0.3c-0.1,0-0.2,0.1-0.5,0.3c-0.3,0.2-0.4,0.3-0.5,0.3c-0.3,0-0.5,0.2-0.6,0.6v0.1l0,0.1
			c0,0.3,0.3,0.6,0.9,0.7c0.1,0,0.3,0.1,0.4,0.1c0.1,0.1,0.1,0.2,0.1,0.2c0,0.1-0.1,0.1-0.2,0.1c-0.1,0-0.1,0.2-0.1,0.6
			c0,0.4-0.1,0.6-0.2,0.6c-0.1,0-0.1,0.2-0.1,0.5c0,0.7-0.2,1.1-0.5,1.2c-0.1,0-0.2,0.1-0.3,0.3c-0.1,0.2-0.1,0.7-0.3,1.5
			c-0.1,0.4-0.2,0.6-0.4,0.6c-0.2,0-0.2,0.1-0.2,0.2c0,0.1,0,0.2-0.2,0.2c-0.3,0-0.5-0.1-0.6-0.2c-0.1-0.2-0.2-0.5-0.2-0.9
			c0-0.6-0.1-0.9-0.2-1c-0.1-0.1-0.1-0.3-0.1-0.6c0-0.4-0.1-0.7-0.2-0.9c-0.1-0.3-0.2-0.5-0.1-0.8c0-0.3,0-0.5-0.1-0.5
			c-0.1,0-0.2-0.1-0.2-0.4c0-0.2-0.1-0.4-0.2-0.5c-0.1-0.1-0.2-0.1-0.2-0.2c0-0.1,0.2-0.2,0.6-0.2c0.4,0,0.7-0.1,0.9-0.3
			c0.1-0.1,0.2-0.2,0.2-0.3c0-0.1-0.1-0.2-0.2-0.4c-0.1-0.2-0.2-0.3-0.4-0.4c-0.2-0.1-0.5-0.1-0.9-0.1c-0.1,0-0.2,0-0.4,0
			c-0.2,0-0.4,0-0.5,0h-0.4c-0.3,0-0.4,0-0.5-0.1c-0.1,0-0.1-0.1-0.2-0.3c-0.1-0.2-0.1-0.4-0.3-0.4c-0.1,0-0.2,0.1-0.5,0.3
			c-0.2,0.2-0.4,0.3-0.5,0.3c-0.1,0-0.3,0.1-0.4,0.2c-0.1,0.1-0.2,0.3-0.2,0.4c0,0.4,0.3,0.7,0.9,0.8c0.5,0.1,0.9,0.6,1,1.6
			c0.1,0.4,0.2,0.6,0.3,0.8c0.1,0.1,0.2,0.4,0.2,0.7c0,0.3,0.1,0.5,0.2,0.6c0.4,0.4,0.5,1.1,0.5,1.9c0,0.4,0,0.6,0.1,0.7
			c0.1,0.1,0.1,0.2,0.1,0.4c0,0.2,0,0.3,0.1,0.4c0.1,0.1,0.2,0.3,0.2,0.8s0.1,0.6,0.2,0.6c0.1,0,0.2,0.2,0.2,0.5
			c0,0.3,0.1,0.5,0.2,0.5c0.1,0,0.2,0.1,0.3,0.4c0.1,0.3,0.3,0.5,0.6,0.5c0.1,0,0.3-0.1,0.4-0.2c0.1-0.1,0.2-0.3,0.2-0.4
			c0-0.3,0-0.4,0.1-0.4c0.1,0,0.2-0.1,0.2-0.4c0-0.3,0-0.5,0.1-0.5c0.1,0,0.2-0.2,0.2-0.5c0-0.3,0.1-0.6,0.3-0.9
			c0.2-0.3,0.4-0.5,0.6-0.6c0.2-0.1,0.3-0.3,0.3-0.6c0-0.4,0.1-0.6,0.2-0.6c0.1,0,0.2-0.2,0.2-0.5c0-0.3,0.1-0.6,0.2-0.8
			c0.1-0.2,0.2-0.4,0.1-0.5c-0.1-0.2,0.1-0.3,0.4-0.4c0.3-0.1,0.4-0.2,0.5-0.3c0.1,0,0.1,0.1,0.1,0.4c0,0.4,0.1,0.6,0.2,0.8
			c0.4,0.5,0.6,1.1,0.6,1.9c0,0.4,0,0.6,0.1,0.6c0.1,0,0.1,0.1,0.1,0.4c-0.1,0.2,0,0.4,0.1,0.5c0.1,0.1,0.2,0.3,0.2,0.8
			s0.1,0.6,0.2,0.6c0.2,0,0.2,0.2,0.2,0.5c0,0.3,0.1,0.5,0.2,0.5c0.1,0,0.2,0.1,0.3,0.4c0.1,0.3,0.3,0.5,0.6,0.5
			c0.1,0,0.3-0.1,0.4-0.2c0.1-0.1,0.2-0.3,0.2-0.4c0-0.3,0.1-0.4,0.2-0.4c0.1,0,0.1-0.1,0.1-0.4c0-0.3,0-0.5,0.1-0.5
			c0.1,0,0.2-0.2,0.2-0.5c0-0.3,0.1-0.6,0.3-1c0.2-0.4,0.4-0.6,0.5-0.6c0.1,0,0.2-0.2,0.2-0.6c0-0.5,0.1-0.7,0.2-0.7
			c0.1,0,0.2-0.2,0.2-0.5c0-0.3,0.1-0.6,0.2-0.8c0.1-0.2,0.2-0.4,0.2-0.6c0-0.1,0.1-0.2,0.4-0.3c0.3-0.1,0.4-0.2,0.4-0.3
			c0-0.1,0-0.1,0-0.2c0-0.1,0-0.1,0-0.2c0-0.6,0.1-0.9,0.3-0.9c0.1,0,0.1-0.1,0.2-0.4c0-0.3,0.1-0.4,0.2-0.4c0.1,0,0.2-0.1,0.2-0.2
			c0-0.1,0.1-0.2,0.4-0.2c0.3,0,0.5-0.1,0.6-0.2c0.1-0.1,0.2-0.3,0.2-0.6l0-0.4L284.3,782.4z"/>
		<path d="M305.3,785.7c-0.2-0.1-0.2-0.2-0.2-0.5c0-0.3,0-0.5-0.1-0.5c-0.1,0-0.1-0.1-0.1-0.4c0-0.3-0.1-0.4-0.2-0.4
			c-0.1,0-0.2-0.1-0.3-0.3c-0.1-0.2-0.2-0.3-0.3-0.4c-0.1-0.1-0.2-0.2-0.2-0.4c0-0.2-0.1-0.3-0.4-0.3c-0.7,0-1-0.1-1-0.4
			c0-0.1-0.1-0.2-0.2-0.2c-0.1,0-0.2,0-0.2-0.1s-0.1-0.1-0.3-0.1c-0.2,0-0.3-0.1-0.4-0.2c0-0.1-0.5-0.2-1.5-0.2
			c-0.9,0-1.5,0.1-1.6,0.2c-0.1,0.1-0.2,0.2-0.4,0.2c-0.2,0-0.3,0.1-0.4,0.3c-0.1,0.2-0.3,0.4-0.6,0.4c-0.3,0-0.6,0.1-1.1,0.2
			c-0.5,0.1-0.7,0.3-0.8,0.5c0,0.2-0.2,0.4-0.5,0.7c-0.3,0.3-0.4,0.5-0.4,0.5c0,0.1-0.1,0.1-0.2,0.1c-0.1,0-0.2,0.1-0.3,0.4
			c-0.1,0.2-0.2,0.5-0.3,0.7c-0.2,0.3-0.2,0.8-0.2,1.8c0,1.2,0.1,2.1,0.4,2.9c0.5,1.4,0.9,2.2,1.2,2.3c0.2,0,0.3,0.1,0.3,0.3
			c0,0.2,0.2,0.2,0.4,0.2c0.2,0,0.4,0,0.4,0.1c0,0.1,0.1,0.1,0.3,0.1c0.2,0,0.3,0.1,0.3,0.4c0,0.2,0,0.3,0.1,0.4
			c0.1,0.1,0.2,0,0.4-0.1c0.1-0.1,0.2-0.1,0.3,0c0.2,0.1,0.9,0.2,2.2,0.2c1.1,0,1.7-0.1,1.7-0.2c0-0.1,0.3-0.2,0.7-0.2
			c0.4,0,0.6-0.1,0.6-0.2c0-0.2,0.1-0.3,0.2-0.3c0,0,0.2-0.1,0.4-0.3c0.3-0.2,0.4-0.3,0.5-0.3c0.1,0,0.2-0.1,0.2-0.3
			c0.1-0.2,0.2-0.3,0.3-0.3c0.1,0,0.2-0.1,0.3-0.3c0-0.2,0.2-0.3,0.4-0.3c0.2-0.1,0.3-0.1,0.3-0.2c0-0.1,0.1-0.1,0.2-0.1
			c0.1,0,0.2-0.2,0.2-0.6c0-0.3,0-0.5-0.1-0.5c-0.1,0-0.1-0.1,0-0.2c0.1-0.1,0.2-0.8,0.2-2.1c0-0.3,0-0.7,0-1.1
			C305.5,786,305.5,785.7,305.3,785.7z M303.1,788.8c-0.1,0-0.2,0.2-0.2,0.4c0,0.3-0.1,0.4-0.2,0.5c-0.1,0.1-0.2,0.4-0.3,0.8
			c-0.1,0.4-0.1,0.6-0.3,0.6c-0.1,0-0.2,0-0.2,0.1c0,0.1-0.1,0.2-0.4,0.2c-0.3,0.1-0.4,0.2-0.4,0.3c0,0.1,0,0.2-0.1,0.2
			c-0.1,0.1-0.2,0.1-0.4,0.2c-0.1,0.1-0.2,0.1-0.3,0.1c0,0.1-0.2,0.1-0.4,0.1c-0.2,0-0.3,0.1-0.5,0.2c-0.1,0.1-0.2,0.1-0.4,0.1
			c-0.2,0-0.4,0-0.7-0.1c-0.5-0.1-1-0.3-1.3-0.6c-0.3-0.3-0.7-0.8-1-1.5c-0.3-0.5-0.4-0.9-0.5-1.1c0-0.2-0.1-0.7-0.1-1.4
			c0-0.7,0-1.1,0.1-1.4c0-0.2,0.1-0.5,0.3-0.8c0.3-0.5,0.6-0.9,1-1.3c0.4-0.4,0.8-0.6,1-0.7c0.3,0,0.5-0.1,0.5-0.3
			c0-0.1,0.1-0.2,0.2-0.2c0.1,0,0.2,0,0.2-0.1c0-0.1,0.1-0.1,0.3-0.1c0.2,0,0.3,0,0.3,0.1c0,0.1,0.3,0.1,0.9,0.1
			c0.5,0,0.8,0.1,0.8,0.2c0,0.1,0.1,0.2,0.3,0.3c0.2,0.1,0.3,0.2,0.3,0.3c0,0.1,0.1,0.2,0.3,0.3c0.3,0.1,0.5,0.4,0.5,0.8
			c0,0.2,0.1,0.5,0.3,0.8c0.2,0.3,0.3,0.7,0.3,1.1c0,0.5,0,0.7,0.1,0.8c0.1,0.1,0.1,0.2,0.1,0.4
			C303.3,788.6,303.2,788.7,303.1,788.8z"/>
		<path d="M314.5,779.4c0-0.1-0.1-0.1-0.3-0.1s-0.3,0-0.3,0.1c0,0.1,0.1,0.2,0.3,0.2S314.5,779.5,314.5,779.4z"/>
		<path d="M325.8,792.7c-0.1,0-0.2-0.1-0.3-0.4c-0.1-0.2-0.3-0.4-0.5-0.4c-0.2,0-0.4-0.1-0.6-0.2c-0.2-0.1-0.4-0.2-0.4-0.4
			c-0.1-0.1-0.1-0.2-0.3-0.2c-0.1,0-0.3-0.1-0.6-0.4c-0.2-0.3-0.4-0.6-0.6-0.9c-0.1-0.3-0.4-0.6-0.8-1.1c-0.4-0.5-0.7-0.7-0.8-0.7
			c-0.1,0-0.2-0.1-0.4-0.3c-0.1-0.1-0.2-0.2-0.1-0.3c0,0,0.1-0.1,0.3-0.2c0.8-0.3,1.2-0.6,1.2-0.9c0-0.5,0.1-0.7,0.3-0.7
			c0.1,0,0.2-0.1,0.4-0.2c0.2-0.2,0.2-0.7,0.2-1.5c0-1-0.1-1.5-0.3-1.7c-0.1-0.1-0.2-0.2-0.4-0.2c-0.1,0-0.2,0-0.2-0.1
			c0-0.1-0.1-0.2-0.4-0.3c-0.3-0.1-0.4-0.3-0.5-0.5L321,781c-0.1-0.1-0.2-0.1-0.2,0.1c0,0.1-0.3,0.1-0.8,0.1c-0.6,0-0.9,0-0.9-0.1
			c0-0.1-0.1-0.1-0.4-0.1s-0.5-0.1-0.6-0.3c-0.2-0.2-0.3-0.3-0.4-0.3c-0.1,0-0.2,0.1-0.1,0.3c0,0,0,0,0,0.1v0.1
			c0,0.1-0.6,0.2-1.8,0.2h-1.9l-0.5,0.5c-0.3,0.3-0.5,0.6-0.5,0.7c0,0.1,0.2,0.2,0.5,0.3c0.3,0.1,0.5,0.1,0.5,0.2
			c0,0.1,0,0.1,0.1,0.1c0.2,0,0.4,0.2,0.6,0.5c0.2,0.3,0.3,0.7,0.3,1.2c0,0.4,0.1,0.6,0.1,0.6c0,0.2-0.1,0.4-0.2,0.5
			c-0.2,0.1-0.2,0.2-0.1,0.3c0.1,0.1,0.2,0.3,0.2,0.7c0,0.3-0.1,0.5-0.2,0.5c-0.1,0-0.2,0,0,0.1c0.1,0.1,0.2,0.2,0.2,0.4
			c0,0.2-0.1,0.4-0.2,0.5c-0.1,0.1-0.1,0.3,0.1,0.4c0.1,0.1,0.2,0.3,0.2,0.4c0,0.1-0.1,0.3-0.2,0.4c-0.2,0.2-0.3,0.7-0.3,1.6
			c0,0.7,0,1.1-0.1,1.2c0,0.1-0.1,0.2-0.3,0.3c-0.2,0.1-0.3,0.1-0.3,0.2c0,0.1-0.3,0.1-0.8,0.1c-0.4,0-0.6,0.1-0.7,0.1
			c-0.1,0.1-0.1,0.2-0.1,0.5c0,0.2,0.2,0.5,0.6,0.8c0.2,0.1,0.3,0.2,0.5,0.2c0.2,0,0.3-0.1,0.3-0.2c0.1-0.1,0.8-0.2,2.1-0.2
			c1.3,0,2.1-0.1,2.2-0.3c0.1-0.1,0.2-0.2,0.3-0.2c0.1,0,0.2-0.1,0.2-0.2c0-0.1-0.1-0.2-0.4-0.2c-0.3,0-0.4-0.1-0.5-0.3
			c0-0.2-0.2-0.3-0.5-0.4c-0.4-0.1-0.5-0.2-0.5-0.4c0-0.1,0-0.2,0.1-0.3c0.2-0.2,0.2-0.3,0.1-0.4c-0.1,0-0.2-0.6-0.2-1.6
			c0-0.3,0-0.6,0-1c0-0.3,0-0.4,0.1-0.5c0-0.1,0.1-0.1,0.2-0.1c0.5,0,1,0.2,1.5,0.5c0.5,0.4,0.8,0.7,0.8,1c0,0.2,0.1,0.3,0.2,0.3
			s0.2,0.1,0.2,0.4c0,0.5,0.3,0.8,0.8,1c0.2,0.1,0.4,0.3,0.5,0.7c0.1,0.4,0.3,0.8,0.7,1.2l0.6,0.7l0.9-0.1c0.1,0,0.3,0,0.6-0.1
			c0.3,0,0.6,0,0.8-0.1c0.2,0,0.4-0.1,0.7-0.1c0.3-0.1,0.4-0.1,0.6-0.2c0.1-0.1,0.2-0.2,0.2-0.3
			C325.9,792.8,325.9,792.7,325.8,792.7z M320.1,785.9c-0.1,0-0.2,0-0.2,0.1c-0.1,0-0.1,0,0,0.1c0.2,0,0.2,0.1,0.2,0.2
			c0,0.1-0.1,0.3-0.4,0.4c-0.2,0.2-0.5,0.3-0.7,0.3c-0.3,0-0.6,0.1-1.1,0.2c-0.1,0-0.2,0-0.3,0c-0.2,0-0.4-0.1-0.7-0.3
			c-0.2-0.2-0.3-0.3-0.4-0.3c0-0.1,0-0.1,0.1-0.2c0.1-0.1,0.2-0.7,0.2-1.6v-1.2c0-0.3,0.1-0.5,0.2-0.7c0.1-0.2,0.3-0.4,0.4-0.4h0.1
			l0.4,0.1c0.3,0,0.5,0.1,0.8,0.1c0.2,0.1,0.4,0.1,0.4,0.1c0,0.1,0.1,0.1,0.4,0.2c0.3,0.1,0.4,0.2,0.4,0.3c0,0.1,0.1,0.3,0.2,0.4
			c0.1,0.1,0.2,0.2,0.1,0.3c-0.1,0.1-0.1,0.3,0.1,0.6c0.1,0.2,0.2,0.5,0.2,0.8v0.1c0,0.2-0.1,0.4-0.1,0.4S320.4,785.9,320.1,785.9z"
			/>
		<path d="M318.9,780.4C318.9,780.3,319,780.3,318.9,780.4c0.1-0.1,0-0.1-0.2-0.1c-0.2,0-0.3,0.1-0.3,0.2
			C318.5,780.5,318.6,780.5,318.9,780.4C318.8,780.4,318.8,780.4,318.9,780.4z"/>
		<path d="M345.1,785.5c0-0.2-0.1-0.3-0.2-0.5c-0.2-0.2-0.3-0.3-0.4-0.3c-0.1,0-0.2-0.1-0.2-0.2c0-0.1-0.1-0.3-0.3-0.6
			c-0.2-0.2-0.3-0.3-0.4-0.3c-0.1,0-0.2-0.1-0.2-0.2c0-0.1-0.1-0.2-0.3-0.3c-0.2-0.1-0.3-0.1-0.3-0.2c0-0.1-0.1-0.1-0.4-0.1
			c-0.2,0-0.3-0.1-0.6-0.2c-0.2-0.1-0.4-0.2-0.5-0.2c-0.2,0-0.3,0-0.3-0.1s-0.1-0.1-0.4-0.1c-0.2,0-0.3,0-0.4-0.1s-0.2-0.1-0.2-0.1
			c-0.1,0-0.2,0-0.4,0.1c-0.3,0.1-0.6,0.2-1,0.2c-0.2,0-0.4,0-0.4-0.1c-0.1,0-0.1-0.1-0.1-0.2c0-0.2-0.1-0.3-0.2-0.3
			c-0.1,0-0.2,0-0.3,0.2c-0.1,0.1-0.1,0.1-0.2,0c-0.2-0.3-0.3-0.2-0.4,0.1c-0.1,0.2-0.2,0.3-0.4,0.2c-0.2-0.1-0.5-0.2-1-0.2
			c-0.4,0-0.7-0.1-0.8-0.2c0-0.1-0.1-0.1-0.3,0.1s-0.3,0.1-0.3,0c-0.1-0.1-0.2-0.2-0.5-0.2c-0.2,0-0.4,0-0.4,0.1
			c0,0.1-0.1,0.1-0.3,0.1c-0.1,0-0.2,0-0.2,0.1c0,0.1-0.1,0.3-0.1,0.5c0,0.3,0,0.5,0.1,0.6c0,0.1,0.2,0.2,0.3,0.3
			c0.2,0.1,0.3,0.1,0.4,0.1c0,0,0.1,0,0.1,0c0.1,0,0.1,0,0.1,0c0.1,0,0.2,0,0.3,0.1c0.2,0.1,0.4,0.4,0.4,0.8c0,0.4,0,0.6-0.1,0.6
			c-0.1,0-0.1,0.3-0.1,0.9c0,0.6,0,0.8,0.1,0.8c0.1,0,0.1,0.1,0.1,0.4c0,0.2,0,0.4-0.1,0.5c-0.1,0.1-0.1,1-0.2,2.8l-0.1,2.7l-0.5,0
			c-0.4,0-0.6,0.2-0.8,0.4c-0.2,0.2-0.3,0.4-0.3,0.5c0,0.1,0.1,0.2,0.4,0.4c0.3,0.2,0.5,0.2,0.7,0.2c0.1,0,0.2,0,0.2-0.1
			c0-0.1,0.3-0.1,0.8-0.1c0.5,0,0.8,0,0.8,0.1c0,0.1,0.9,0.2,2.6,0.2c1.1,0,1.7,0,1.8-0.1c0.1-0.1,0.4-0.2,0.7-0.2
			c0.4-0.1,0.8-0.2,1.3-0.5c0.5-0.2,0.8-0.4,1-0.4c0.2,0,0.3-0.1,0.4-0.4c0.1-0.3,0.3-0.6,0.7-1.1c0.4-0.4,0.6-0.7,0.6-0.8
			c0-0.1,0-0.2,0.1-0.2c0.1,0,0.1-0.1,0.1-0.3c0-0.2,0.1-0.4,0.2-0.5c0.1-0.1,0.1-0.8,0.1-2c0-1.4-0.1-2.1-0.2-2.2
			C345.2,785.8,345.1,785.7,345.1,785.5z M343,789.7c-0.1,0.1-0.2,0.2-0.2,0.5c0,0.3-0.1,0.5-0.2,0.6c-0.3,0.3-0.5,0.6-0.6,1
			c-0.1,0.2-0.1,0.2-0.2,0.2c-0.1,0-0.3,0.2-0.7,0.5c-0.4,0.3-0.7,0.5-0.9,0.5c-0.2,0-0.3,0.1-0.4,0.2c-0.1,0.1-0.1,0.1-0.2,0
			c-0.1-0.1-0.1-0.2-0.3-0.2c-0.1,0-0.2,0.1-0.3,0.2c0,0.1-0.3,0.1-0.9,0.1c-0.6,0-1.1,0-1.6,0c-0.2,0-0.2-0.1-0.2-0.4
			c0-0.2-0.1-0.4-0.2-0.4s-0.2,0-0.2-0.1c0-0.1,0.1-0.1,0.2-0.2c0.1-0.1,0.2-0.2,0.2-0.3c0-0.1,0.1-0.2,0.2-0.2
			c0.1,0,0.1-0.1,0.2-0.4c0.1-0.2,0.1-0.5,0.1-0.8c0-0.1,0-0.3-0.1-0.5c0,0,0,0,0-0.1c0,0,0-0.1,0-0.1c0-0.2,0.1-0.4,0.2-0.6
			l0.2-0.4c0,0-0.1-0.1-0.2-0.1c-0.1,0-0.2-0.3-0.2-0.8c0-0.5,0-1,0-1.5c0-1.4,0.1-2.2,0.1-2.4c0-0.3,0.1-0.5,0.4-0.8
			c0.2-0.2,0.4-0.3,0.6-0.3c0.1,0,0.2,0,0.3,0c0.1,0,0.3,0,0.7,0.1c0.4,0,0.7,0.1,1,0.1c0.3,0.1,0.4,0.1,0.5,0.2
			c0.1,0.1,0.2,0.2,0.4,0.2c0.2,0,0.4,0.1,0.4,0.3c0.1,0.2,0.2,0.3,0.3,0.3c0.2,0,0.2,0,0.2,0.1c0,0.1,0.1,0.2,0.3,0.2
			c0.2,0.1,0.3,0.2,0.3,0.3c0,0.1,0.1,0.3,0.2,0.4c0.1,0.1,0.2,0.4,0.3,0.9c0,0.4,0.1,0.7,0.2,0.8c0.1,0.1,0.1,0.5,0.1,1.3
			S343.1,789.7,343,789.7z"/>
		<path d="M354.9,788.7c0-0.1,0-0.2-0.1-0.2c-0.1,0-0.1,0-0.1,0.1l0.1,0.2C354.9,789,354.9,788.9,354.9,788.7z"/>
		<path d="M360.8,789.5c0-0.6-0.1-0.9-0.2-1.1c-0.1-0.2-0.3-0.4-0.6-0.5c-0.3-0.1-0.5-0.3-0.5-0.4c-0.1-0.1-0.3-0.3-0.9-0.6
			c-0.5-0.3-1-0.5-1.3-0.6c-0.2-0.1-0.5-0.2-0.9-0.5c-0.4-0.3-0.6-0.4-0.6-0.5c0-0.1-0.1-0.2-0.2-0.3c-0.2-0.1-0.2-0.2-0.2-0.3
			c0,0,0-0.1,0-0.1c0.1-0.1,0.1-0.2,0.1-0.3c0-0.1,0-0.3-0.1-0.6c0-0.1,0-0.2,0-0.2c0,0,0.2-0.1,0.3-0.1c0.3,0,0.4-0.1,0.4-0.2
			c0-0.1,0.1-0.2,0.4-0.4c0.3-0.2,0.4-0.3,0.4-0.3c0-0.1,0.1-0.1,0.4-0.2c0.1,0,0.1,0,0.2,0c0.4,0,0.8,0.2,1.2,0.5
			c0.5,0.3,0.7,0.6,0.7,0.9c0,0.2,0.1,0.4,0.3,0.5c0.2,0.1,0.3,0.3,0.3,0.4c0,0.1,0.1,0.3,0.2,0.5s0.3,0.3,0.4,0.3c0,0,0,0,0.1,0
			c0.1-0.1,0.1-0.7,0.2-2v-0.8c0-0.6-0.1-0.9-0.2-0.9c-0.1,0-0.1,0-0.1,0c-0.3,0.1-0.6,0.2-0.8,0.2c-0.3,0-0.6-0.1-1-0.3
			c-0.4-0.2-0.6-0.3-0.7-0.3c0,0-0.1,0-0.2,0.1c-0.3,0.1-0.6,0.1-0.8,0.1c-0.3,0-0.4,0-0.5,0.1c0,0.1-0.1,0.2-0.3,0.2
			c-0.2,0-0.4-0.1-0.5-0.2c-0.1-0.1-0.3-0.2-0.5-0.2h0c-0.1,0-0.1,0-0.1,0c-0.1,0-0.1,0-0.1,0c0,0,0.1,0,0.1,0
			c0.1,0.1,0.2,0.1,0.2,0.2c0,0.2-0.2,0.3-0.5,0.4c-0.3,0.1-0.4,0.2-0.4,0.4c0.1,0.2,0,0.3-0.2,0.4c-0.3,0.1-0.6,0.5-1.1,1.1
			c-0.1,0.2-0.2,0.4-0.2,0.6c0,0,0,0.3,0.1,0.8c0.1,0.7,0.3,1.1,0.4,1.3c0.1,0.2,0.4,0.4,0.7,0.7c0.4,0.3,0.6,0.4,0.8,0.4
			c0.1,0,0.3,0.1,0.6,0.4c0.4,0.3,0.9,0.6,1.7,0.8c0.5,0.1,0.8,0.3,1.1,0.6c0.2,0.2,0.3,0.4,0.5,0.7c0.1,0.3,0.2,0.5,0.2,0.7
			c0,0.1,0,0.1-0.1,0.2c-0.1,0-0.1,0.2-0.1,0.4c0.1,0.2,0,0.4-0.2,0.6c-0.1,0.1-0.2,0.3-0.2,0.4c0,0.2-0.5,0.4-1.4,0.5
			c-0.1,0-0.3,0-0.6,0c-0.9,0-1.7-0.4-2.2-1.2c-0.3-0.4-0.5-0.8-0.5-1c0,0,0-0.1,0-0.2c0-0.1,0-0.2,0-0.2c0,0-0.1-0.1-0.1-0.1
			c-0.1,0-0.1,0-0.1-0.1c0.1-0.3-0.1-0.5-0.4-0.6c-0.1,0-0.2-0.1-0.3-0.1c-0.3,0-0.4,0.2-0.5,0.5c-0.1,1.2-0.1,1.9-0.2,1.9
			c-0.1,0.1-0.1,0.4-0.2,0.8c0,0.1,0,0.3,0,0.4c0,0.2,0.1,0.4,0.3,0.6c0.1,0.1,0.2,0.2,0.3,0.2c0,0,0.1,0,0.2-0.2
			c0.1-0.2,0.2-0.3,0.2-0.4c0-0.3,0.2-0.3,0.5-0.1c0.9,0.5,1.8,0.7,2.9,0.7c0.5,0,1.1-0.1,1.6-0.2c0.6-0.1,1.1-0.3,1.4-0.6
			c0.3-0.3,0.5-0.5,0.5-0.5c0-0.1,0.1-0.2,0.2-0.3c0.2-0.1,0.3-0.4,0.3-0.9c0.1-0.5,0.1-0.7,0.2-0.7s0.1,0,0-0.1
			C360.9,790.6,360.8,790.2,360.8,789.5z M356.4,788C356.4,788,356.3,787.9,356.4,788c-0.1-0.1-0.1-0.1,0-0.1S356.5,787.9,356.4,788
			C356.5,787.9,356.5,788,356.4,788z"/>
		<polygon points="51.7,808.8 44,814 41.2,799.9 38.4,814 30.7,808.8 35.9,816.5 21.8,819.3 35.9,822 30.7,829.8 38.4,824.6 
			41.2,838.6 43.9,824.6 51.7,829.8 46.5,822 60.5,819.3 46.5,816.5 		"/>
		<polygon points="468.1,816.5 473.3,808.8 465.5,814 462.8,799.9 460,814 452.3,808.8 457.5,816.5 443.4,819.3 457.5,822 
			452.3,829.8 460,824.6 462.8,838.6 465.5,824.6 473.3,829.8 468.1,822 482.1,819.3 		"/>
		<polygon points="30.7,57.5 38.4,52.3 41.2,66.4 44,52.3 51.7,57.5 46.5,49.8 60.5,47 46.5,44.3 51.7,36.5 43.9,41.7 41.2,27.7 
			38.4,41.7 30.7,36.5 35.9,44.3 21.8,47 35.9,49.8 		"/>
		<polygon points="473.3,36.5 465.5,41.7 462.8,27.7 460,41.7 452.3,36.5 457.5,44.3 443.4,47 457.5,49.8 452.3,57.5 460,52.3 
			462.8,66.4 465.5,52.3 473.3,57.5 468.1,49.8 482.1,47 468.1,44.3 		"/>
		<ellipse transform="matrix(3.021388e-03 -1 1 3.021388e-03 26.6491 402.1869)" cx="215" cy="187.7" rx="1.1" ry="1.1"/>
		<path d="M214.6,191.7c0.3,0.5,0.1,1,0.6,1.5c0.4,0.4,0.8,0.5,1.4,0.7c1.8,0.4,3.7,0.1,5.5,0c4.2-0.2,8.5-0.3,12.7-0.4
			c2.3,0,4.7,0,7,0c1.2,0,2.5,0,3.7,0.3c2.1,0.4,2.8,1.2,2.9,3.1c-0.5,0.3-0.9,0.7-1.2,1.1c-0.5,0.8-0.7,1.9-0.2,2.8
			c0.2,0.4,0.6,0.7,1,1c0.6,0.4,1,0.5,1.1,1.5c0,0.3-0.1,0.6-0.2,0.9c-0.3,0-0.6,0-1,0c-0.3,0-0.6,0.3-0.6,0.6c0,0.9,0,1.9,0,2.8
			c0,0,0,0,0,0c-2.3,0.1-3.5,1.3-3.5,3.7c0,1.7,0.6,2.8,1.8,3.3c0,0,0,0,0,0c0,1,0,2,0,3.1c0,0.3,0.3,0.6,0.6,0.6c0.1,0,0.1,0,0.2,0
			c-0.1,18.3-0.1,36.7-0.2,55c-0.1,22.9-0.1,45.7-0.2,68.6c0,2.2,0.3,3.7,0.9,5.9c1.6,5.9,3.3,11.7,4.9,17.6c0,0,0,0,0,0
			c0,0,0,0.1,0,0.1c0,0,0,0.1,0.1,0.1c0,0,0,0,0.1,0.1c0.2,0.2,0.5,0.2,0.7,0c0,0,0,0,0.1-0.1c0,0,0,0,0.1-0.1c0,0,0-0.1,0-0.1
			c0,0,0,0,0,0c1.5-5.2,3-10.4,4.5-15.6c0.6-2.1,1.5-4.2,1.5-6.4c0-8,0-15.9,0.1-23.9c0.1-26.9,0.2-53.8,0.3-80.7
			c0-6.8,0-13.6,0.1-20.5c0.1,0,0.1,0,0.2,0c0.2,0,0.3-0.1,0.4-0.1c0,0,0,0,0,0c0,0,0,0,0-0.1c0.1-0.1,0.1-0.2,0.1-0.4
			c0-1,0-2,0-3.1c0,0,0-0.1,0-0.1c2.9-1.6,2.4-6.6-1.7-6.9c0-0.9,0-1.9,0-2.8c0-0.3-0.3-0.6-0.6-0.6c-0.4,0-0.8,0-1.3,0
			c-0.2-0.6-0.3-1.4,0.2-1.9c0.4-0.4,1-0.6,1.4-1c0.6-0.7,0.8-1.5,0.5-2.4c-0.3-0.9-0.9-1.5-1.6-1.9c-0.1-1.8,0.7-2.4,2.6-3
			c1.2-0.3,2.4-0.4,3.6-0.4c2.4-0.1,4.8-0.1,7.2,0c4.4,0.1,8.8,0.3,13.2,0.5c1.8,0.1,3.7,0.3,5.5,0c1.4-0.2,1.5-0.8,2.1-1.9
			c0.3-0.6-0.2-0.1,0.3-0.5c0.2-0.1,0.6-0.2,0.9-0.3c0.6-0.3,1.1-0.6,1.5-1.1c1.3-1.4,1.4-3.5,1.5-5.3c0-0.3-0.3-0.6-0.6-0.6
			c-6.1,0.4-12.2,0.7-18.3,0.9c-4.3,0.2-8.7,0.3-13,0.2c-1.7,0-3.3-0.1-5-0.2c-1.5-0.1-2.5-0.1-2.5-1.5c2-0.2,3-1.6,3.1-3.6
			c0.1-2.1-0.4-3.8-2.5-4.7c-0.1-0.1-0.3-0.1-0.4,0c0,0,0,0,0,0c0.4-0.7,0.7-1.4,0.8-2.4c0.1-1.2-0.3-2.3-1.2-3
			c0.6-1.7,1.1-3.5,1.4-5.3c0-0.1,0-0.2,0-0.2c0.2-1.2,0.3-2.4,0.4-3.6c0-0.1,0-0.2,0-0.3c0.1-2.2,0.1-4.5,0-6.7
			c-0.2-3.7-0.5-7.9-1.9-11.4c0.8-0.8,1-2.2,0.7-3.3c-0.4-1.6-1.8-2.6-3.4-2.7c-1.6,0-3,0.9-3.4,2.4c-0.3,1.1-0.1,2.6,0.7,3.5
			c-1.4,3.6-1.7,7.7-1.9,11.5c-0.3,5.4-0.1,11,1.7,16.1c-1,0.8-1.4,1.9-1.3,3.2c0.1,0.9,0.4,1.6,0.8,2.2c-1.1-0.1-2.2,0.7-2.7,1.7
			c-0.6,1.2-0.3,3,0,4.2c0.4,1.4,1.5,2,2.9,2.1c-0.1,1.6-0.8,1.5-2.5,1.7c-1.6,0.2-3.3,0.2-5,0.2c-4.3,0-8.7-0.1-13-0.3
			c-6.1-0.3-12.2-0.6-18.3-1c-0.3,0-0.6,0.3-0.6,0.6c0,1.7,0.2,3.7,1.3,5.2C212.5,190.8,214.3,191.2,214.6,191.7z M227.3,192.5
			c0.3-0.7,1-1,1.9-0.9c0.7,0,1.3,0.2,1.6,0.8C229.7,192.5,228.5,192.5,227.3,192.5z M252.1,267.4c-0.1,26.5-0.2,52.9-0.2,79.4
			c0,4.7,0,9.5,0,14.2c-1.1-3.8-2.1-7.7-3.2-11.5c-0.7-2.4-1.5-4.3-1.5-6.5c0-8,0-16,0.1-24.1c0.1-26.9,0.2-53.8,0.3-80.6
			c0-6.7,0-13.4,0.1-20.1c1.6,0,3.2,0,4.7,0C252.2,234.5,252.1,251,252.1,267.4z M257.9,272.7c-0.1,23-0.1,45.9-0.2,68.9
			c0,2.5-0.2,3.3-0.9,5.7c-1.3,4.5-2.6,9.1-3.9,13.6c0-15.2,0.1-30.5,0.1-45.7c0.1-26.5,0.2-52.9,0.2-79.4c0-5.9,0-11.8,0.1-17.7
			c1.6,0,3.2,0,4.7,0C258,236.3,258,254.5,257.9,272.7z M258.8,217c-4,0-8.1-0.1-12.1,0c0-0.6,0-1.3,0-1.9c4,0,8.1,0,12.1,0
			C258.9,215.7,258.9,216.4,258.8,217z M258.3,208.7c1.9,0.2,2.8,1.7,2.3,3.5c-0.3,1.2-1.4,1.5-2.6,1.6c-1.1,0.1-2.2,0-3.3,0
			c-2.5,0-5,0-7.5,0c-2-0.1-2.5-1.5-2.3-3.1c0.2-1.4,1.3-1.8,2.6-2c1.1-0.2,2.4,0,3.5,0C253.4,208.7,255.9,208.4,258.3,208.7z
			 M257.2,205.3c0,0.6,0,1.3,0,1.9c-2.9,0-5.8,0-8.7,0c0-0.6,0-1.3,0-1.9C251.4,205.3,254.3,205.3,257.2,205.3z M257.5,199.4
			c0.2,1.2-1,1.4-1.7,2.1c-0.7,0.7-0.8,1.8-0.5,2.7c-1.7,0-3.5,0-5.2,0c0.2-0.7,0.2-1.5-0.1-2.1c-0.6-1.1-2.5-1.4-2-3
			c0.2-0.6,0.6-1,1.2-1.2c0.1,0,0.1,0,0.2-0.1c0.2-0.1,0.5-0.1,0.7,0c0.5,0.1,0.8,0.4,1.3,0.6c-0.7,1.6-0.4,4.6,1.8,4.3
			c1.9-0.3,1.9-3,1.2-4.5c0.1-0.1,0.2-0.1,0.4-0.2C255.8,197.5,257.3,198.1,257.5,199.4z M252,200.4c-0.1-0.6,0-1.2,0.3-1.7
			c0.3,0,0.6,0,0.9-0.1c0.4,0.8,0.7,2.6-0.2,2.9C252.4,201.8,252.1,200.9,252,200.4z M274.9,192.6c0.3-0.6,1-0.8,1.6-0.8
			c0.8,0,1.5,0.2,1.9,0.9C277.3,192.6,276.1,192.6,274.9,192.6z M294.1,185.6c-0.2,2.5-0.9,4.6-3.6,5.1c-1.9-2-6.5-1.4-7.2-4.5
			C286.9,186,290.5,185.8,294.1,185.6z M273.4,186.6c2.9-0.1,5.9-0.2,8.8-0.3c0.3,1.5,1.3,2.4,2.7,3.1c1.5,0.7,4.2,1,5,2.5
			c-0.4,1.3-2.6,1.4-4.7,1.3c-1.9-2.6-4.2-4.3-7.5-4.5c-2.1-0.1-4,0.4-6.1,0.7c-2.5,0.3-6.7-0.1-8.3-2.5
			C266.6,186.8,270,186.7,273.4,186.6z M252.8,137.8c1.2-0.1,2.2,0.6,2.6,1.7c0.2,0.8,0.2,1.9-0.5,2.4c0,0,0,0,0,0
			c-0.2,0.1-0.3,0.3-0.2,0.6c0.3,0.8,0.6,1.6,0.8,2.4c-1.5-0.2-2.9-0.7-4-1.9c0.1-0.2,0.1-0.3,0.2-0.5c0.1-0.1,0.1-0.2,0-0.4
			c0-0.1-0.1-0.2-0.2-0.3C249.7,140.7,250.8,137.9,252.8,137.8z M250.9,144.3c1.3,1.2,2.9,1.7,4.7,1.8c0.2,0.9,0.3,1.8,0.4,2.7
			c-2.1-0.1-4-0.7-5.5-2.3c0,0-0.1-0.1-0.1-0.1C250.5,145.8,250.7,145.1,250.9,144.3z M250.1,147.8c1.7,1.5,3.8,2.1,6,2.2
			c0.1,0.9,0.2,1.8,0.2,2.7c-2.4-0.1-4.7-0.6-6.6-2.2C249.9,149.6,250,148.7,250.1,147.8z M249.5,154c0-0.7,0.1-1.5,0.2-2.2
			c2,1.4,4.3,1.9,6.8,2c0,0.1,0,0.2,0,0.3c0,0.8,0.1,1.6,0.1,2.4c-2.5-0.1-4.9-0.7-6.9-2.3C249.6,154.2,249.6,154.1,249.5,154
			C249.5,154.1,249.5,154.1,249.5,154z M249.4,155.4c2.1,1.4,4.6,2,7.1,2.2c0,0.9,0,1.8-0.1,2.7c-2.5-0.1-5.1-0.7-7.1-2.3
			c0,0,0,0,0,0C249.4,157.1,249.4,156.3,249.4,155.4z M249.4,159.3c2.1,1.4,4.5,1.9,7,2c-0.1,0.9-0.2,1.8-0.3,2.7
			c-2.4-0.1-4.7-0.7-6.6-2.2C249.5,161,249.4,160.2,249.4,159.3z M250,165.6c-0.1-0.8-0.3-1.5-0.4-2.3c1.9,1.2,4,1.7,6.3,1.9
			c-0.2,0.9-0.4,1.8-0.6,2.7C253.3,167.7,251.5,167.1,250,165.6z M255,168.9c-0.1,0.3-0.2,0.6-0.3,0.9c0,0,0,0,0,0.1
			c-1,0.6-2.5,0.4-3.5,0.1c0,0,0-0.1,0-0.2c-0.3-0.8-0.5-1.6-0.7-2.5C251.8,168.3,253.4,168.8,255,168.9z M250.8,171
			c1.4,0.5,3,0.6,4.3,0c1.7,1.3,0.5,3.5-0.4,4.9c-1.2,0.2-2.4,0.1-3.6-0.1C250,174.3,249.2,172.5,250.8,171z M243.8,186.6
			c0.6,0,1.3,0,1.9-0.1c1.2-0.1,2.6-0.1,3.7-0.4c1.5-0.5,1.5-1.5,1.4-3.1c0-0.4-0.4-0.6-0.7-0.5c-0.1,0-0.1,0-0.2,0
			c-2,0-2.2-1.7-2.2-3.3c0-1.2,0.5-2.5,1.7-2.5c0.9,0,2,0.4,2.9,0.4c1.4,0.1,2.7,0,4-0.5c0,0,0,0,0,0c0,0,0,0,0,0
			c1.5,0.6,1.7,1.9,1.7,3.3c0,1.4-0.5,2.7-2.2,2.8c0,0-0.1,0-0.1,0c-0.3-0.1-0.8,0.1-0.8,0.5c-0.4,3.4,2.5,3.2,5.1,3.4
			c0.6,0,1.3,0.1,1.9,0.1c1.4,2.8,5.2,4,8.1,3.9c2.4-0.1,4.8-0.9,7.2-0.8c2.7,0.1,4.8,1.3,6.4,3.3c-0.8-0.1-1.6-0.2-2-0.2
			c-0.7,0-1.3-0.1-2-0.1c-0.4-1.5-1.6-2.2-3.1-2.1c-1.2,0-2.5,0.6-2.8,1.8c0,0,0,0,0,0.1c-0.9,0-1.8-0.1-2.7-0.1
			c-3.4-0.1-6.9-0.2-10.2,0.2c-1.2,0.2-3.4,0.6-4.4,1.5c-0.7,0.7-0.7,1.6-0.7,2.5c-0.6,0-1.1,0.1-1.7,0.3c-0.6,0.3-1.2,0.7-1.9,0.5
			c-0.4-0.1-0.7-0.4-1.1-0.5c-0.5-0.2-0.9-0.4-1.4-0.4c0,0,0,0-0.1,0c-0.2-2.5-1.8-3.6-4.6-4c-3.5-0.5-7.1-0.3-10.6-0.2
			c-0.8,0-1.6,0-2.4,0.1c0,0,0,0,0-0.1c-0.3-1.3-1.6-1.8-2.8-1.9c-1.5,0-2.7,0.6-3.1,2.1c-0.7,0-1.3,0-2,0.1c-0.5,0-1.2,0.1-2,0.2
			c1.6-1.9,3.5-3.1,6.1-3.3c2.6-0.2,5,0.8,7.6,0.9C238.6,190.6,242.5,189.4,243.8,186.6z M223.6,186.1c2.9,0.2,5.9,0.3,8.8,0.4
			c3.4,0.1,6.8,0.2,10.1,0.2c-1.5,2.2-5.2,2.8-7.6,2.6c-2.3-0.2-4.5-0.9-6.8-0.8c-3.3,0.2-5.7,1.9-7.6,4.5c-2.1,0.1-4.4-0.1-4.7-1.3
			c0.9-1.5,3.6-1.7,5-2.4C222.2,188.4,223.2,187.5,223.6,186.1z M222.4,186c-0.7,3.1-5.3,2.4-7.2,4.4c-2.7-0.5-3.5-2.6-3.6-5.1
			C215.3,185.6,218.8,185.8,222.4,186z"/>
		<ellipse transform="matrix(3.021388e-03 -1 1 3.021388e-03 101.9037 478.1385)" cx="290.7" cy="188" rx="1.1" ry="1.1"/>
		<path d="M251.6,190.9c0.9,0.9,0.7,5.2,1.3,5.2c0.6,0,0.5-4.4,1.3-5.2c0.9-0.8,4-0.6,4-1.1c0-0.5-3.2-0.4-4-1.2
			c-0.8-0.8-0.7-5.2-1.3-5.2c-0.6,0-0.4,4.3-1.3,5.2c-1,0.9-4,0.5-4,1.1C247.6,190.4,250.6,190,251.6,190.9z"/>
		<ellipse transform="matrix(0.8387 -0.5446 0.5446 0.8387 -105.0885 115.012)" cx="141.6" cy="234.9" rx="1.1" ry="1.1"/>
		<path d="M76.8,279.8c0.6,0.2,1.2,0.2,1.9,0.1c0.2,0,0.7-0.3,0.9-0.2c0.6,0.1,0,0,0.5,0.3c1.1,0.6,1.5,1,2.8,0.4
			c1.6-0.7,3.1-2,4.6-3c3.6-2.6,7.2-5.1,10.8-7.6c2-1.3,4-2.7,6.1-3.9c1-0.6,2.1-1.2,3.3-1.6c1.8-0.6,2.8-0.4,3.8,1.1
			c-0.4,0.7-0.6,1.5-0.4,2.5c0.2,0.8,0.9,1.5,1.7,1.7c0.6,0.2,1.2-0.1,1.7,0.1c0.7,0.2,1,0.9,1.2,1.5c-0.4,0.2-0.7,0.5-1.1,0.7
			c-0.3,0.2-0.3,0.5-0.2,0.8c0.5,0.8,1,1.6,1.5,2.3c-3.2,2.4-1,6.9,2.3,6.7c0,0,0,0.1,0,0.1c0.6,0.9,1.1,1.7,1.7,2.6
			c0.1,0.1,0.2,0.2,0.3,0.2c0,0,0,0,0.1,0c0,0,0,0,0,0c0.1,0,0.3,0,0.4-0.1c0.1,0,0.1-0.1,0.2-0.1c3.7,5.7,7.4,11.4,11.1,17.2
			c14.6,22.6,29.3,45.1,43.9,67.7c4.3,6.7,8.7,13.4,13,20c1.2,1.8,3,3.1,4.7,4.5c4.1,3.6,8.1,7.1,12.2,10.7c0,0,0,0,0,0
			c0,0,0.1,0,0.1,0.1c0,0,0.1,0,0.1,0c0,0,0.1,0,0.1,0c0.3,0,0.5-0.1,0.6-0.4c0,0,0-0.1,0-0.1c0,0,0-0.1,0-0.1c0,0,0-0.1,0-0.1
			c0,0,0,0,0,0c-1.8-5.8-3.6-11.6-5.4-17.4c-0.7-2.2-1.2-3.5-2.4-5.4c-12.4-19.2-24.9-38.3-37.3-57.5c-10-15.4-20-30.8-30-46.2
			c0.1,0,0.1-0.1,0.2-0.1c0.3-0.2,0.3-0.5,0.2-0.8c-0.6-0.9-1.1-1.7-1.7-2.6c0,0,0,0,0,0c0.7-1.1,0.6-2.3-0.3-3.8
			c-1.3-2-2.9-2.3-4.9-1.2c0,0,0,0,0,0c-0.5-0.8-1-1.6-1.5-2.3c-0.2-0.3-0.5-0.3-0.8-0.2c-0.3,0.2-0.5,0.4-0.8,0.5
			c-0.2-0.2-0.5-0.4-0.6-0.6c-0.5-0.9-0.2-1.1,0.1-1.8c0.2-0.5,0.3-0.9,0.3-1.4c-0.1-1-0.8-1.8-1.6-2.2c-0.5-0.2-1.1-0.3-1.7-0.3
			c-1-1.6-0.7-2.7,0.8-4.2c0.9-0.9,2-1.6,3-2.3c1.9-1.3,3.9-2.6,5.9-3.8c3.6-2.2,7.2-4.4,10.9-6.5c1.5-0.9,3.4-1.8,4.6-3
			c0.4-0.4,0.7-0.7,0.8-1.3c0.1-0.7-0.4-1-0.3-1.6c0-0.6,1.3-1.9,1.4-3c0.2-1.8-0.8-3.5-1.7-5c-0.2-0.2-0.5-0.3-0.8-0.2
			c-4.9,3.7-9.8,7.3-14.8,10.8c-3.5,2.5-7.1,5-10.8,7.3c-1.4,0.9-2.8,1.8-4.3,2.5c-1.5,0.8-2.1,1.2-3-0.1c1.2-0.8,1.7-1.9,1.3-3.3
			c-0.4-1.2-1.2-2.9-2.3-3.6c-0.9-0.6-2.3-0.7-3.2,0c0-0.8-0.1-1.5-0.6-2.3c-0.6-1.2-1.5-1.8-2.8-2c-1.2-5.3-4.1-10.1-7.3-14.4
			c-2.2-3-4.8-6.3-7.8-8.6c0.2-1.2-0.4-2.5-1.3-3.3c-1.2-1.1-2.9-1.1-4.2-0.2c-1.4,0.9-1.9,2.5-1.4,4.1c0.4,1.1,1.2,2.2,2.4,2.4
			c0.8,3.7,2.8,7.4,4.6,10.6c1.1,1.9,2.3,3.8,3.6,5.6c0,0.1,0.1,0.2,0.2,0.3c0.7,1,1.5,1.9,2.3,2.8c0,0.1,0.1,0.1,0.2,0.2
			c1.2,1.3,2.5,2.6,4,3.7c-0.4,1.1-0.1,2.2,0.6,3.2c0.6,0.8,1.2,1.2,1.9,1.6c0,0,0,0,0,0c-0.1,0-0.2,0.1-0.3,0.2
			c-1.3,1.8-0.8,3.5,0.5,5.3c1.2,1.6,2.8,2.3,4.6,1.3c0.8,1.2-0.1,1.7-1.3,2.6c-1.3,1-2.7,2-4.1,2.9c-3.6,2.4-7.3,4.6-11.1,6.9
			c-5.2,3.1-10.5,6.2-15.9,9.1c-0.3,0.1-0.3,0.5-0.2,0.8C73.7,277.6,75,279.2,76.8,279.8z M91,273.4c-0.1-0.8,0.3-1.4,1.1-1.8
			c0.6-0.3,1.2-0.6,1.8-0.2C92.9,272.1,92,272.8,91,273.4z M193,391.7c-1.9-1.7-2.5-2.3-3.8-4.3c-12.5-19.3-25-38.5-37.5-57.8
			c-9.9-15.2-19.8-30.5-29.7-45.7c1.3-0.9,2.6-1.7,4-2.6c3.2,5,6.4,9.9,9.6,14.9c14.4,22.2,28.8,44.4,43.2,66.6
			c8.3,12.8,16.6,25.6,24.9,38.3C200.1,397.9,196.5,394.8,193,391.7z M141.8,294.9c14.6,22.5,29.3,45.1,43.9,67.6
			c4.4,6.7,8.7,13.5,13.1,20.2c1.2,1.8,1.5,3.8,2.3,6.3c1.2,3.8,2.4,7.6,3.5,11.4c-2.6-4-5.2-7.9-7.7-11.9
			c-14.4-22.2-28.8-44.4-43.2-66.6c-8.9-13.8-17.9-27.5-26.8-41.3c1.3-0.9,2.7-1.7,4-2.6C134.5,283.7,138.1,289.3,141.8,294.9z
			 M130.8,276.7c-3.4,2.2-6.8,4.4-10.2,6.6c-0.4-0.5-0.7-1.1-1.1-1.6c3.4-2.2,6.8-4.4,10.2-6.6C130.1,275.6,130.5,276.2,130.8,276.7
			z M125.6,270.1c1.2-0.6,2.3-0.8,3.2,0.3c1,1.2,1.4,2.7-0.2,3.9c-2.1,1.4-4.2,2.7-6.2,4.1c-0.9,0.6-1.8,1.3-2.8,1.8
			c-1,0.5-2.1,0.9-3.1,0.1c-1.4-1.3-1.4-3,0.1-4.2c1.8-1.5,4.1-2.7,6.1-3.9C123.6,271.4,124.6,270.6,125.6,270.1z M123,267.8
			c0.4,0.5,0.7,1.1,1.1,1.6c-2.4,1.6-4.9,3.1-7.3,4.7c-0.4-0.5-0.7-1.1-1.1-1.6C118.2,271,120.6,269.4,123,267.8z M118.3,261.9
			c0.1,0,0.1,0,0.2,0c0.6-0.1,1.2,0,1.6,0.4c1.3,1.1-0.2,2.3-0.1,3.6c0.1,0.7,0.5,1.4,1.1,1.8c-1.5,1-2.9,1.9-4.4,2.9
			c-0.3-0.9-0.9-1.8-1.9-2c-0.9-0.2-2,0.3-2.5-0.9c-0.5-1.2,0.4-2.5,1.6-2.7c0.1,0,0.3,0,0.4-0.1c0.2,1.6,1.7,3.9,3.4,3.1
			c2.1-1,0.6-3.6-0.8-4.6c0.2-0.4,0.4-0.8,0.7-1.2C117.9,262.1,118.1,262,118.3,261.9z M115.4,264.7c0.3-0.1,0.6-0.2,0.8-0.4
			c0.5,0.3,0.9,0.8,1.2,1.3c0.2,0.4,0.4,1.3-0.3,1.4C116.2,267.2,115.5,265.6,115.4,264.7z M130.9,247.4c-0.1-0.7,0.4-1.2,0.9-1.6
			c0.7-0.5,1.4-0.6,2.1-0.2C132.9,246.2,131.9,246.8,130.9,247.4z M143.1,231.1c1.3,2.2,1.8,4.4-0.2,6.2c-2.7-0.7-6.2,2.4-8.4,0.2
			C137.4,235.4,140.3,233.2,143.1,231.1z M126.3,243.3c2.4-1.7,4.8-3.4,7.2-5.1c1.1,1.1,2.4,1.3,3.9,1.1c1.6-0.2,4-1.5,5.5-0.7
			c0.4,1.2-1.4,2.6-3.2,3.7c-3-1.1-5.9-1.3-8.8,0.3c-2,1.1-3.5,2.9-5.3,4.4c-1.8,1.5-5.3,3-7.7,1.9
			C120.8,247.1,123.6,245.2,126.3,243.3z M84,218.4c-0.1-0.3-0.3-0.4-0.5-0.4c0,0,0,0-0.1,0c-0.9,0-1.5-1-1.8-1.8
			c-0.3-1.2,0.2-2.3,1.2-2.8c1.8-1,4.1,0.8,3.5,2.8c-0.1,0.1-0.1,0.2,0,0.3c0,0.1,0.1,0.2,0.2,0.3c0.1,0.1,0.3,0.2,0.4,0.3
			c-0.3,1.6-1.1,2.8-2.3,3.7C84.4,220,84.1,219.2,84,218.4z M85,222c1.4-1,2.5-2.4,2.9-4.1c0.6,0.5,1.1,1,1.6,1.5c0,0,0,0.1-0.1,0.1
			c-0.4,2.1-1.7,3.7-3.4,4.9C85.7,223.6,85.3,222.8,85,222z M86.6,225.5c1.8-1.3,3.2-3,3.9-5.1c0.6,0.7,1.2,1.4,1.8,2.1
			c-0.8,2.3-2.4,4-4.4,5.4C87.4,227.1,87,226.3,86.6,225.5z M88.5,229.1c0-0.1-0.1-0.2-0.1-0.2c2-1.4,3.7-3.1,4.6-5.3
			c0.5,0.6,0.9,1.2,1.3,1.8c0,0,0,0,0,0.1c0,0-0.1,0.1-0.1,0.1c-0.8,2.4-2.6,4.2-4.6,5.6C89.3,230.5,88.9,229.8,88.5,229.1z
			 M90.4,232.1c2.1-1.5,3.8-3.3,4.8-5.7c0.5,0.7,1,1.4,1.4,2.1c0,0,0,0,0,0c-0.9,2.4-2.7,4.3-4.7,5.7
			C91.3,233.6,90.8,232.8,90.4,232.1z M92.5,235.2c2-1.5,3.8-3.2,4.8-5.5c0.4,0.7,0.8,1.4,1.2,2.1c-0.7,2.3-2.4,4.1-4.3,5.5
			C93.6,236.6,93.1,235.9,92.5,235.2z M97,240c-0.7-0.6-1.3-1.2-2-1.9c1.8-1.3,3.3-2.9,4.3-5c0.3,0.7,0.7,1.4,0.9,2.1
			C99.8,237.3,98.6,238.8,97,240z M98.6,241.4c-0.3-0.2-0.5-0.4-0.8-0.6c1.3-1,2.4-2.3,3-3.8c0.3,0.8,0.5,1.6,0.7,2.5
			c0,0.1,0,0.1,0.1,0.1C101,240.5,99.8,241.4,98.6,241.4C98.6,241.4,98.6,241.4,98.6,241.4z M98.9,242.5c1.5-0.1,2.8-1.1,3.6-2.3
			c2.1,0.4,2.4,2.3,2.3,4.2c-0.9,0.8-1.8,1.5-3,2C100.4,245.8,98.1,244.5,98.9,242.5z M103.2,258.4c2.1-1.5,4.7-2.9,2.5-5.6
			c-0.3-0.3-0.8-0.2-1,0c0,0-0.1,0-0.1,0c-1.4,0.8-2.5,0.1-3.3-1.1c-0.8-1.2-1.3-2.4-0.4-3.7c0,0,0,0,0,0c0,0,0,0,0.1,0
			c1.3-0.3,2.5-0.9,3.6-1.7c0.7-0.5,1.4-1.5,2.2-1.9c1-0.6,2.2,0.2,2.8,1.2c0.8,1.4,1.6,2.9-0.1,3.9c-0.1,0-0.1,0.1-0.2,0.2
			c-0.3,0.1-0.5,0.5-0.3,0.8c0.8,1.3,1.4,2.2,2.9,1.8c1.2-0.3,2.3-1.1,3.4-1.7c0.6-0.3,1.1-0.7,1.7-1c2.6,1.6,6.5,0.5,8.9-1.2
			c2.1-1.5,3.7-3.6,5.9-4.9c2.2-1.3,4.5-1.3,6.9-0.6c-0.7,0.4-1.4,0.7-1.8,1c-0.6,0.3-1.1,0.7-1.7,1c-1.1-1-2.5-0.9-3.7-0.1
			c-1,0.7-1.7,1.8-1.3,3.1c0,0,0,0,0,0.1c-0.7,0.4-1.4,0.8-2,1.2c-3,1.8-6.1,3.7-8.8,5.9c-2.2,1.8-2.9,3.6-1.7,5.8c0,0,0,0-0.1,0
			c-0.5,0.3-0.7,0.7-1,1.1c-0.2,0.3-0.3,0.8-0.6,1.1c-0.6,0.6-1.2,0.5-1.9,0.6c-0.6,0.1-1.1,0.3-1.6,0.7c-0.4-0.8-1-1.6-1.9-1.8
			c-1.3-0.3-3.4,0.5-4.5,1.1c-3,1.5-5.9,3.5-8.7,5.4c-0.8,0.5-1.5,1-2.2,1.5c0,0,0,0,0,0c-1-0.9-2.3-0.7-3.4,0
			c-1.2,0.8-1.9,2-1.4,3.5c-0.5,0.4-1.1,0.8-1.6,1.1c-0.4,0.3-1,0.7-1.6,1.3c0.3-2.6,1.4-4.7,3.6-6.3c2-1.4,4.4-2,6.5-3.2
			c2.5-1.5,5-4.6,4.7-7.6C102.2,259.1,102.7,258.7,103.2,258.4z M84.3,270.1c2.5-1.5,5.1-3,7.6-4.5c2.9-1.7,5.8-3.5,8.6-5.4
			c0,2.9-3.3,5.6-5.6,6.6c-1.9,0.9-3.8,1.5-5.5,2.7c-2.7,2-3.7,4.7-3.9,7.9c-1.7,1.2-3.7,2.3-4.7,1.5c-0.1-1.7,2.1-3.4,2.9-4.8
			C84.5,272.8,84.9,271.5,84.3,270.1z M83.4,270.7c1.1,2.9-3.1,4.9-3.6,7.6c-2.6,1.1-4.3-0.3-5.8-2.3
			C77.1,274.2,80.3,272.5,83.4,270.7z"/>
		<ellipse transform="matrix(0.8386 -0.5447 0.5447 0.8386 -137.815 87.1099)" cx="78.1" cy="276.1" rx="1.1" ry="1.1"/>
		<path d="M110.4,258.9c1.2,0.2,3.5,4,3.9,3.7s-2-3.8-1.7-5.1c0.3-1.3,3-2.6,2.7-3.1c-0.3-0.5-2.7,1.5-4,1.2c-1.3-0.3-3.5-4-3.9-3.7
			c-0.5,0.3,2,4,1.7,5.1c-0.2,1.1-3,2.7-2.7,3.1C106.8,260.5,109.3,258.6,110.4,258.9z"/>
		<ellipse transform="matrix(0.5446 -0.8387 0.8387 0.5446 -32.0094 410.8757)" cx="362.3" cy="234.9" rx="1.1" ry="1.1"/>
		<path d="M431.1,275.3c-5.3-3-10.6-6-15.9-9.1c-3.7-2.2-7.4-4.5-11.1-6.9c-1.4-0.9-2.8-1.8-4.1-2.9c-1.2-0.9-2-1.4-1.3-2.6
			c1.8,0.9,3.4,0.3,4.6-1.3c1.2-1.7,1.7-3.4,0.5-5.3c-0.1-0.1-0.2-0.2-0.3-0.2c0,0,0,0,0,0c0.7-0.4,1.4-0.8,1.9-1.6
			c0.7-1,1-2.1,0.6-3.2c1.4-1.1,2.8-2.3,4-3.7c0.1,0,0.1-0.1,0.2-0.2c0.8-0.9,1.6-1.8,2.3-2.8c0.1-0.1,0.1-0.2,0.2-0.3
			c1.3-1.8,2.5-3.7,3.6-5.6c1.9-3.3,3.8-6.9,4.6-10.6c1.2-0.2,2-1.3,2.4-2.4c0.5-1.6,0-3.2-1.4-4.1c-1.3-0.9-3-0.9-4.2,0.2
			c-0.9,0.8-1.5,2.1-1.3,3.3c-3.1,2.2-5.6,5.6-7.8,8.6c-3.2,4.3-6,9.2-7.3,14.4c-1.3,0.2-2.2,0.8-2.8,2c-0.4,0.8-0.5,1.5-0.6,2.3
			c-0.9-0.7-2.3-0.6-3.2,0c-1.1,0.7-1.9,2.3-2.3,3.6c-0.4,1.4,0.1,2.5,1.3,3.3c-0.9,1.3-1.5,0.9-3,0.1c-1.5-0.8-2.9-1.6-4.3-2.5
			c-3.7-2.3-7.2-4.8-10.8-7.3c-5-3.5-9.9-7.1-14.8-10.8c-0.2-0.2-0.6-0.1-0.8,0.2c-0.9,1.5-1.9,3.2-1.7,5c0.1,1.1,1.4,2.4,1.4,3
			c0,0.6-0.5,0.9-0.3,1.6c0.1,0.5,0.4,0.9,0.8,1.3c1.3,1.3,3.1,2.1,4.6,3c3.6,2.1,7.3,4.3,10.9,6.5c2,1.2,4,2.5,5.9,3.8
			c1,0.7,2.1,1.4,3,2.3c1.5,1.5,1.8,2.5,0.8,4.2c-0.6,0-1.1,0.1-1.7,0.3c-0.9,0.4-1.6,1.2-1.6,2.2c0,0.5,0.1,0.9,0.3,1.4
			c0.3,0.7,0.6,1,0.1,1.8c-0.1,0.2-0.4,0.5-0.6,0.6c-0.3-0.2-0.5-0.4-0.8-0.5c-0.3-0.2-0.6-0.1-0.8,0.2c-0.5,0.8-1,1.6-1.5,2.3
			c0,0,0,0,0,0c-2-1.1-3.7-0.8-4.9,1.2c-0.9,1.4-1,2.7-0.3,3.8c0,0,0,0,0,0c-0.6,0.9-1.1,1.7-1.7,2.6c-0.2,0.3-0.1,0.6,0.2,0.8
			c0.1,0,0.1,0.1,0.2,0.1c-10,15.4-20,30.8-30,46.2c-12.4,19.2-24.9,38.3-37.3,57.5c-1.2,1.9-1.7,3.2-2.4,5.4
			c-1.8,5.8-3.6,11.6-5.4,17.4c0,0,0,0,0,0c0,0,0,0.1,0,0.1c0,0,0,0.1,0,0.1c0,0,0,0.1,0,0.1c0.1,0.2,0.3,0.4,0.6,0.4
			c0,0,0.1,0,0.1,0c0,0,0.1,0,0.1,0c0,0,0.1,0,0.1-0.1c0,0,0,0,0,0c4.1-3.6,8.1-7.1,12.2-10.7c1.6-1.4,3.5-2.7,4.7-4.5
			c4.3-6.7,8.7-13.4,13-20c14.6-22.6,29.3-45.1,43.9-67.7c3.7-5.7,7.4-11.4,11.1-17.2c0.1,0,0.1,0.1,0.2,0.1
			c0.1,0.1,0.3,0.1,0.4,0.1c0,0,0,0,0,0c0,0,0,0,0.1,0c0.1,0,0.2-0.1,0.3-0.2c0.6-0.9,1.1-1.7,1.7-2.6c0,0,0-0.1,0-0.1
			c3.3,0.2,5.6-4.2,2.3-6.7c0.5-0.8,1-1.6,1.5-2.3c0.2-0.3,0.1-0.6-0.2-0.8c-0.4-0.2-0.7-0.5-1.1-0.7c0.2-0.6,0.5-1.3,1.2-1.5
			c0.5-0.2,1.2,0.1,1.7-0.1c0.9-0.2,1.5-0.9,1.7-1.7c0.3-0.9,0.1-1.8-0.4-2.5c0.9-1.5,1.9-1.7,3.8-1.1c1.2,0.4,2.2,1,3.3,1.6
			c2.1,1.2,4.1,2.5,6.1,3.9c3.7,2.4,7.3,5,10.8,7.6c1.4,1,2.9,2.3,4.6,3c1.3,0.6,1.7,0.2,2.8-0.4c0.5-0.3-0.1-0.2,0.5-0.3
			c0.2,0,0.6,0.2,0.9,0.2c0.6,0.1,1.3,0.1,1.9-0.1c1.8-0.5,3.1-2.2,4.1-3.7C431.4,275.9,431.4,275.5,431.1,275.3z M417.4,216.8
			c0.1-0.1,0.2-0.2,0.2-0.3c0-0.1,0-0.2,0-0.3c-0.6-2,1.7-3.7,3.5-2.8c1.1,0.6,1.5,1.7,1.2,2.8c-0.2,0.8-0.9,1.7-1.8,1.8
			c0,0,0,0-0.1,0c-0.2,0-0.5,0.1-0.5,0.4c-0.2,0.8-0.4,1.7-0.7,2.5c-1.2-1-2.1-2.2-2.3-3.7C417.1,217,417.3,216.9,417.4,216.8z
			 M416,217.9c0.4,1.7,1.5,3,2.9,4.1c-0.3,0.8-0.7,1.7-1.1,2.5c-1.7-1.2-3-2.8-3.4-4.9c0-0.1,0-0.1-0.1-0.1
			C414.9,218.9,415.5,218.4,416,217.9z M413.5,220.4c0.6,2.1,2,3.8,3.9,5.1c-0.4,0.8-0.8,1.6-1.3,2.4c-1.9-1.4-3.6-3.1-4.4-5.4
			C412.3,221.8,412.9,221.1,413.5,220.4z M409.6,225.3c0.4-0.6,0.9-1.2,1.3-1.8c0.9,2.2,2.6,3.9,4.6,5.3c0,0.1-0.1,0.2-0.1,0.2
			c-0.4,0.7-0.8,1.4-1.2,2c-2-1.5-3.8-3.2-4.6-5.6C409.6,225.4,409.6,225.4,409.6,225.3C409.6,225.3,409.6,225.3,409.6,225.3z
			 M408.8,226.4c1,2.4,2.8,4.2,4.8,5.7c-0.5,0.7-1,1.5-1.5,2.2c-2.1-1.5-3.9-3.3-4.7-5.7c0,0,0,0,0,0
			C407.8,227.8,408.3,227.1,408.8,226.4z M406.6,229.7c1,2.3,2.8,4,4.8,5.5c-0.5,0.7-1.1,1.4-1.7,2.1c-1.9-1.4-3.6-3.1-4.3-5.5
			C405.8,231.1,406.2,230.4,406.6,229.7z M404.7,233.2c0.9,2,2.5,3.6,4.3,5c-0.6,0.7-1.3,1.3-2,1.9c-1.6-1.2-2.8-2.7-3.2-4.7
			C404.1,234.6,404.4,233.9,404.7,233.2z M402.4,239.5c0.2-0.8,0.4-1.7,0.7-2.5c0.6,1.5,1.7,2.7,3,3.8c-0.3,0.2-0.5,0.4-0.8,0.6
			c0,0,0,0,0,0c-1.2-0.1-2.3-1-2.9-1.8C402.4,239.6,402.4,239.6,402.4,239.5z M401.4,240.3c0.9,1.2,2.1,2.1,3.6,2.3
			c0.8,2-1.5,3.3-3,3.9c-1.1-0.5-2-1.2-3-2C399.1,242.6,399.4,240.7,401.4,240.3z M360.8,231.1c2.9,2.2,5.8,4.3,8.7,6.4
			c-2.2,2.2-5.8-0.8-8.4-0.2C359,235.4,359.6,233.3,360.8,231.1z M364.2,242.3c-1.8-1.1-3.6-2.4-3.2-3.7c1.5-0.8,3.9,0.5,5.5,0.7
			c1.5,0.2,2.9-0.1,3.9-1.1c2.4,1.7,4.8,3.4,7.2,5.1c2.8,1.9,5.6,3.9,8.4,5.7c-2.5,1-5.9-0.5-7.7-1.9c-1.8-1.4-3.3-3.2-5.3-4.4
			C370.1,241,367.2,241.1,364.2,242.3z M370.1,245.6c0.7-0.4,1.4-0.3,2.1,0.2c0.5,0.4,1,0.9,0.9,1.6
			C372.1,246.8,371.1,246.2,370.1,245.6z M302.9,389c0.7-2.4,1.1-4.4,2.3-6.3c4.4-6.7,8.7-13.5,13.1-20.2
			c14.6-22.5,29.3-45.1,43.9-67.6c3.6-5.6,7.3-11.2,10.9-16.9c1.3,0.9,2.7,1.7,4,2.6c-8.9,13.8-17.9,27.5-26.8,41.3
			c-14.4,22.2-28.8,44.4-43.2,66.6c-2.6,4-5.2,7.9-7.7,11.9C300.5,396.6,301.7,392.8,302.9,389z M352.3,329.6
			c-12.5,19.3-25,38.5-37.5,57.8c-1.3,2.1-1.9,2.7-3.8,4.3c-3.6,3.1-7.1,6.2-10.7,9.3c8.3-12.8,16.6-25.6,24.9-38.3
			c14.4-22.2,28.8-44.4,43.2-66.6c3.2-5,6.4-9.9,9.6-14.9c1.3,0.9,2.6,1.7,4,2.6C372.1,299.1,362.2,314.3,352.3,329.6z M383.3,283.3
			c-3.4-2.2-6.8-4.4-10.2-6.6c0.4-0.5,0.7-1.1,1.1-1.6c3.4,2.2,6.8,4.4,10.2,6.6C384,282.2,383.6,282.8,383.3,283.3z M387.4,280.2
			c-1,0.9-2,0.5-3.1-0.1c-1-0.5-1.9-1.2-2.8-1.8c-2.1-1.4-4.2-2.7-6.2-4.1c-1.6-1.2-1.3-2.6-0.2-3.9c0.9-1.1,2.1-0.8,3.2-0.3
			c1,0.5,2,1.3,2.9,1.9c2,1.3,4.2,2.4,6.1,3.9C388.8,277.2,388.8,278.9,387.4,280.2z M387.2,274.2c-2.4-1.6-4.8-3.2-7.3-4.7
			c0.4-0.5,0.7-1.1,1.1-1.6c2.4,1.6,4.8,3.2,7.3,4.7C387.9,273.1,387.5,273.6,387.2,274.2z M391.7,267.7c-0.5,1.1-1.6,0.7-2.5,0.9
			c-1,0.2-1.6,1.1-1.9,2c-1.5-0.9-2.9-1.9-4.4-2.9c0.5-0.5,1-1.1,1.1-1.8c0.1-1.3-1.3-2.5-0.1-3.6c0.5-0.4,1.1-0.5,1.6-0.4
			c0.1,0,0.1,0,0.2,0c0.2,0.1,0.4,0.2,0.6,0.4c0.3,0.3,0.5,0.8,0.7,1.2c-1.4,1-2.9,3.6-0.8,4.6c1.7,0.8,3.2-1.5,3.4-3.1
			c0.1,0,0.3,0,0.4,0.1C391.3,265.2,392.2,266.5,391.7,267.7z M387.7,264.3c0.3,0.2,0.5,0.3,0.8,0.4c-0.1,0.8-0.8,2.5-1.8,2.3
			c-0.7-0.1-0.5-1-0.3-1.4C386.8,265.1,387.2,264.6,387.7,264.3z M410,271.4c0.6-0.4,1.3-0.1,1.8,0.2c0.7,0.4,1.1,1,1.1,1.8
			C412,272.8,411,272.1,410,271.4z M415.5,275.3c-0.5-0.4-1.1-0.8-1.6-1.1c0.5-1.4-0.2-2.7-1.4-3.5c-1.1-0.7-2.4-0.9-3.4,0
			c0,0,0,0,0,0c-0.7-0.5-1.5-1-2.2-1.5c-2.8-1.9-5.6-3.9-8.7-5.4c-1.1-0.5-3.2-1.3-4.5-1.1c-1,0.2-1.5,1-1.9,1.8
			c-0.4-0.3-1-0.6-1.6-0.7c-0.7-0.1-1.3,0-1.9-0.6c-0.3-0.3-0.4-0.7-0.6-1.1c-0.3-0.5-0.5-0.9-1-1.1c0,0,0,0-0.1,0
			c1.2-2.3,0.5-4-1.7-5.8c-2.7-2.3-5.8-4.1-8.8-5.9c-0.7-0.4-1.4-0.8-2-1.2c0,0,0,0,0-0.1c0.4-1.3-0.3-2.4-1.3-3.1
			c-1.2-0.8-2.6-0.9-3.7,0.1c-0.6-0.3-1.1-0.7-1.7-1c-0.4-0.2-1.1-0.6-1.8-1c2.3-0.7,4.6-0.7,6.9,0.6c2.3,1.3,3.8,3.4,5.9,4.9
			c2.4,1.7,6.2,2.8,8.9,1.2c0.5,0.3,1.1,0.7,1.7,1c1,0.6,2.2,1.3,3.4,1.7c1.5,0.4,2.1-0.5,2.9-1.8c0.2-0.4,0-0.7-0.3-0.8
			c0-0.1-0.1-0.1-0.2-0.2c-1.7-1.1-0.9-2.6-0.1-3.9c0.6-1,1.7-1.8,2.8-1.2c0.8,0.4,1.4,1.4,2.2,1.9c1.1,0.8,2.3,1.4,3.6,1.7
			c0,0,0,0,0.1,0c0,0,0,0,0,0c0.9,1.3,0.4,2.5-0.4,3.7c-0.8,1.2-1.9,2-3.3,1.1c0,0-0.1,0-0.1,0c-0.2-0.3-0.7-0.4-1,0
			c-2.2,2.7,0.4,4.1,2.5,5.6c0.5,0.4,1,0.7,1.6,1.1c-0.3,3.1,2.2,6.1,4.7,7.6c2.1,1.2,4.5,1.8,6.5,3.2c2.2,1.6,3.3,3.7,3.6,6.3
			C416.5,276,415.9,275.6,415.5,275.3z M418.4,277.4c-0.2-3.2-1.2-5.9-3.9-7.9c-1.7-1.2-3.6-1.9-5.5-2.7c-2.3-1.1-5.6-3.7-5.6-6.6
			c2.8,1.9,5.7,3.6,8.6,5.4c2.5,1.5,5.1,3,7.6,4.5c-0.5,1.4-0.2,2.7,0.6,4c0.8,1.4,3,3.1,2.9,4.8
			C422.1,279.8,420.1,278.7,418.4,277.4z M424.2,278.3c-0.5-2.7-4.7-4.7-3.6-7.6c3.1,1.8,6.2,3.6,9.4,5.3
			C428.5,278,426.7,279.4,424.2,278.3z"/>
		<ellipse transform="matrix(0.5446 -0.8387 0.8387 0.5446 -37.6736 482.9171)" cx="425.8" cy="276.1" rx="1.1" ry="1.1"/>
		<path d="M394.8,256.9c-0.2-1.1,2.2-4.8,1.7-5.1c-0.5-0.3-2.6,3.4-3.9,3.7c-1.3,0.3-3.6-1.7-4-1.2c-0.3,0.5,2.4,1.9,2.7,3.1
			c0.3,1.3-2.2,4.8-1.7,5.1c0.5,0.3,2.8-3.4,3.9-3.7c1.2-0.2,3.7,1.6,4,1.2C397.7,259.6,395,258,394.8,256.9z"/>
		<ellipse transform="matrix(1 -3.021388e-03 3.021388e-03 1 -2.0416 0.6528)" cx="215" cy="676" rx="1.1" ry="1.1"/>
		<path d="M294.7,679.4c0.3,0,0.6-0.3,0.6-0.6c0-1.8-0.2-3.9-1.5-5.3c-0.4-0.5-0.9-0.8-1.5-1.1c-0.2-0.1-0.7-0.2-0.9-0.3
			c-0.5-0.4,0,0-0.3-0.5c-0.6-1.1-0.7-1.7-2.1-1.9c-1.8-0.3-3.7,0-5.5,0c-4.4,0.2-8.8,0.4-13.2,0.5c-2.4,0-4.8,0.1-7.2,0
			c-1.2,0-2.4-0.1-3.6-0.4c-1.9-0.5-2.6-1.2-2.6-3c0.7-0.3,1.4-1,1.6-1.9c0.3-0.8,0.1-1.7-0.5-2.4c-0.4-0.4-1.1-0.6-1.4-1
			c-0.4-0.5-0.4-1.3-0.2-1.9c0.4,0,0.8,0,1.3,0c0.3,0,0.6-0.3,0.6-0.6c0-0.9,0-1.9,0-2.8c4.1-0.3,4.6-5.3,1.7-6.9c0,0,0-0.1,0-0.1
			c0-1,0-2,0-3.1c0-0.2-0.1-0.3-0.1-0.4c0,0,0,0,0-0.1c0,0,0,0,0,0c-0.1-0.1-0.2-0.1-0.4-0.1c-0.1,0-0.1,0-0.2,0
			c0-6.8,0-13.6-0.1-20.5c-0.1-26.9-0.2-53.8-0.3-80.7c0-8,0-15.9-0.1-23.9c0-2.2-0.9-4.3-1.5-6.4c-1.5-5.2-3-10.4-4.5-15.6
			c0,0,0,0,0,0c0,0,0-0.1,0-0.1c0,0,0,0-0.1-0.1c0,0,0,0-0.1-0.1c-0.2-0.2-0.5-0.2-0.7,0c0,0,0,0-0.1,0.1c0,0,0,0-0.1,0.1
			c0,0,0,0.1,0,0.1c0,0,0,0,0,0c-1.6,5.9-3.3,11.7-4.9,17.6c-0.6,2.2-0.9,3.6-0.9,5.9c0.1,22.9,0.1,45.7,0.2,68.6
			c0.1,18.3,0.1,36.7,0.2,55c-0.1,0-0.1,0-0.2,0c-0.3,0-0.6,0.3-0.6,0.6c0,1,0,2,0,3.1c0,0,0,0,0,0c-1.2,0.5-1.8,1.6-1.8,3.3
			c0,2.3,1.2,3.5,3.5,3.7c0,0,0,0,0,0c0,0.9,0,1.9,0,2.8c0,0.3,0.3,0.6,0.6,0.6c0.3,0,0.6,0,1,0c0.1,0.3,0.2,0.6,0.2,0.9
			c0,1-0.4,1.1-1.1,1.5c-0.4,0.3-0.8,0.6-1,1c-0.5,0.9-0.3,1.9,0.2,2.8c0.3,0.5,0.7,0.9,1.2,1.1c-0.1,1.9-0.9,2.6-2.9,3.1
			c-1.2,0.3-2.5,0.2-3.7,0.3c-2.3,0.1-4.7,0.1-7,0c-4.2-0.1-8.5-0.2-12.7-0.4c-1.8-0.1-3.8-0.3-5.5,0c-0.5,0.1-1,0.3-1.4,0.7
			c-0.5,0.5-0.2,1-0.6,1.5c-0.3,0.5-2.1,0.9-2.8,1.8c-1.1,1.4-1.3,3.4-1.3,5.2c0,0.3,0.3,0.6,0.6,0.6c6.1-0.4,12.2-0.8,18.3-1
			c4.3-0.2,8.7-0.3,13-0.3c1.7,0,3.3,0,5,0.2c1.7,0.2,2.4,0.1,2.5,1.7c-1.4,0-2.5,0.6-2.9,2.1c-0.4,1.2-0.6,3.1,0,4.2
			c0.5,1,1.6,1.8,2.7,1.7c-0.4,0.7-0.7,1.3-0.8,2.2c-0.1,1.3,0.3,2.4,1.3,3.2c-1.8,5.1-2,10.7-1.7,16.1c0.2,3.7,0.6,7.9,1.9,11.5
			c-0.8,0.9-1,2.4-0.7,3.5c0.4,1.6,1.9,2.4,3.4,2.4c1.6,0,3-1.1,3.4-2.7c0.3-1.1,0.1-2.5-0.7-3.3c1.3-3.6,1.7-7.7,1.9-11.4
			c0.1-2.2,0.2-4.4,0-6.7c0-0.1,0-0.2,0-0.3c-0.1-1.2-0.2-2.4-0.4-3.6c0-0.1,0-0.2,0-0.2c-0.3-1.8-0.7-3.6-1.4-5.3
			c0.9-0.7,1.3-1.8,1.2-3c-0.1-1-0.3-1.7-0.8-2.4c0,0,0,0,0,0c0.1,0,0.2,0,0.4,0c2.1-0.9,2.6-2.5,2.5-4.7c-0.1-2-1.1-3.4-3.1-3.6
			c0-1.5,1-1.4,2.5-1.5c1.6-0.2,3.3-0.2,5-0.2c4.3-0.1,8.7,0.1,13,0.2C282.5,678.6,288.6,679,294.7,679.4z M290.5,673.1
			c2.7,0.5,3.5,2.6,3.6,5.1c-3.6-0.2-7.2-0.4-10.8-0.6C284,674.5,288.6,675.1,290.5,673.1z M278.4,671.1c-0.3,0.7-1,1-1.9,0.9
			c-0.7,0-1.3-0.2-1.6-0.8C276.1,671.2,277.3,671.1,278.4,671.1z M256.8,516.5c0.7,2.4,0.9,3.3,0.9,5.7c0.1,23,0.1,45.9,0.2,68.9
			c0.1,18.2,0.1,36.4,0.2,54.5c-1.6,0-3.2,0-4.7,0c0-5.9,0-11.8-0.1-17.7c-0.1-26.5-0.2-52.9-0.2-79.4c0-15.2-0.1-30.5-0.1-45.7
			C254.2,507.4,255.5,511.9,256.8,516.5z M248.6,514.3c1.1-3.8,2.1-7.7,3.2-11.5c0,4.7,0,9.5,0,14.2c0.1,26.5,0.2,52.9,0.2,79.4
			c0.1,16.4,0.1,32.8,0.2,49.2c-1.6,0-3.2,0-4.7,0c0-6.7,0-13.4-0.1-20.1c-0.1-26.9-0.2-53.8-0.3-80.6c0-8,0-16-0.1-24.1
			C247.1,518.6,247.9,516.8,248.6,514.3z M258.8,646.7c0,0.6,0,1.3,0,1.9c-4,0-8.1,0-12.1,0c0-0.6,0-1.3,0-1.9
			C250.8,646.8,254.8,646.8,258.8,646.7z M247.5,655.1c-1.3-0.2-2.4-0.6-2.6-2c-0.2-1.6,0.3-3,2.3-3.1c2.5,0,5,0,7.5,0
			c1.1,0,2.2-0.1,3.3,0c1.2,0.1,2.3,0.4,2.6,1.6c0.5,1.8-0.4,3.3-2.3,3.5c-2.3,0.3-4.9,0-7.2,0C249.9,655.1,248.7,655.3,247.5,655.1
			z M248.5,658.5c0-0.6,0-1.3,0-1.9c2.9,0,5.8,0,8.7,0c0,0.6,0,1.3,0,1.9C254.3,658.4,251.4,658.5,248.5,658.5z M247.9,664.7
			c-0.5-1.6,1.4-1.8,2-3c0.3-0.7,0.3-1.4,0.1-2.1c1.7,0,3.5,0,5.2,0c-0.2,0.9-0.2,2,0.5,2.7c0.7,0.7,1.8,0.9,1.7,2.1
			c-0.2,1.3-1.7,1.9-2.9,1.4c-0.1-0.1-0.3-0.1-0.4-0.2c0.7-1.4,0.7-4.2-1.2-4.5c-2.3-0.3-2.5,2.7-1.8,4.3c-0.4,0.2-0.8,0.5-1.3,0.6
			c-0.2,0-0.5,0-0.7,0c-0.1,0-0.1,0-0.2-0.1C248.6,665.7,248.1,665.3,247.9,664.7z M253.2,665.2c-0.3-0.1-0.6-0.1-0.9-0.1
			c-0.3-0.5-0.4-1.2-0.3-1.7c0.1-0.5,0.3-1.3,1-1.1C253.9,662.6,253.6,664.4,253.2,665.2z M230.8,671.3c-0.3,0.6-1,0.8-1.6,0.8
			c-0.8,0-1.5-0.2-1.9-0.9C228.5,671.3,229.7,671.3,230.8,671.3z M211.7,678.4c0.1-2.5,0.8-4.6,3.6-5.1c1.9,2,6.5,1.4,7.2,4.4
			C218.8,678,215.3,678.2,211.7,678.4z M232.4,677.3c-2.9,0.1-5.9,0.2-8.8,0.4c-0.3-1.5-1.3-2.4-2.7-3.1c-1.5-0.7-4.2-1-5-2.4
			c0.4-1.3,2.6-1.4,4.7-1.3c1.9,2.6,4.3,4.3,7.6,4.5c2.3,0.1,4.5-0.6,6.8-0.8c2.3-0.2,6.1,0.4,7.6,2.6
			C239.2,677.1,235.8,677.2,232.4,677.3z M255.3,724.3c-0.4,1.2-1.3,1.8-2.6,1.7c-2-0.1-3-2.9-1.4-4.2c0.1-0.1,0.2-0.2,0.2-0.3
			c0-0.1,0-0.2,0-0.4c-0.1-0.2-0.1-0.3-0.2-0.5c1.1-1.2,2.5-1.7,4-1.9c-0.2,0.8-0.5,1.7-0.8,2.4c-0.1,0.3,0,0.5,0.2,0.6c0,0,0,0,0,0
			C255.5,722.3,255.6,723.5,255.3,724.3z M255.6,717.6c-1.7,0.1-3.4,0.7-4.7,1.8c-0.2-0.7-0.4-1.4-0.5-2.1c0,0,0.1-0.1,0.1-0.1
			c1.5-1.5,3.4-2.1,5.5-2.3C255.9,715.8,255.8,716.7,255.6,717.6z M256.2,713.8c-2.2,0.1-4.3,0.7-6,2.2c-0.1-0.9-0.3-1.8-0.3-2.7
			c1.9-1.5,4.2-2,6.6-2.2C256.3,712,256.3,712.9,256.2,713.8z M256.5,709.7c0,0.1,0,0.2,0,0.3c-2.4,0.1-4.8,0.6-6.8,2
			c-0.1-0.8-0.1-1.5-0.2-2.2c0,0,0,0,0-0.1c0,0,0.1,0,0.1-0.1c2-1.6,4.4-2.1,6.9-2.3C256.5,708.1,256.5,708.9,256.5,709.7z
			 M256.6,706.2c-2.5,0.1-5,0.7-7.1,2.2c0-0.8-0.1-1.7-0.1-2.5c0,0,0,0,0,0c2-1.6,4.6-2.1,7.1-2.3
			C256.6,704.4,256.6,705.3,256.6,706.2z M256.4,702.4c-2.5,0.1-4.9,0.7-7,2c0-0.8,0.1-1.6,0.1-2.5c1.9-1.6,4.2-2.1,6.6-2.2
			C256.3,700.6,256.4,701.5,256.4,702.4z M256,698.6c-2.2,0.1-4.4,0.7-6.3,1.9c0.1-0.8,0.2-1.5,0.4-2.3c1.4-1.5,3.3-2.1,5.3-2.2
			C255.6,696.8,255.8,697.7,256,698.6z M250.4,696.4c0.2-0.8,0.5-1.7,0.7-2.5c0-0.1,0-0.1,0-0.2c1-0.4,2.4-0.5,3.5,0.1
			c0,0,0,0,0,0.1c0.1,0.3,0.2,0.6,0.3,0.9C253.4,695,251.8,695.5,250.4,696.4z M255.1,692.8c-1.3-0.7-2.9-0.6-4.3,0
			c-1.5-1.5-0.7-3.2,0.3-4.8c1.2-0.2,2.4-0.3,3.6-0.1C255.6,689.2,256.8,691.5,255.1,692.8z M260,677.2c-2.6,0.1-5.5-0.1-5.1,3.4
			c0.1,0.4,0.5,0.6,0.8,0.5c0,0,0.1,0,0.1,0c1.6,0.1,2.1,1.3,2.2,2.8c0,1.4-0.2,2.7-1.7,3.3c0,0,0,0,0,0c0,0,0,0,0,0
			c-1.3-0.5-2.6-0.6-4-0.5c-0.9,0.1-2,0.5-2.9,0.4c-1.2-0.1-1.7-1.4-1.7-2.5c0.1-1.6,0.2-3.3,2.2-3.3c0.1,0,0.2,0,0.2,0
			c0.3,0.1,0.7-0.1,0.7-0.5c0.1-1.5,0.1-2.6-1.4-3.1c-1.2-0.4-2.5-0.4-3.7-0.4c-0.6,0-1.3-0.1-1.9-0.1c-1.4-2.7-5.2-3.9-8.1-3.8
			c-2.6,0.1-5,1-7.6,0.9c-2.6-0.2-4.5-1.4-6.1-3.3c0.8,0.1,1.6,0.1,2,0.2c0.7,0,1.3,0,2,0.1c0.4,1.5,1.6,2.2,3.1,2.1
			c1.2,0,2.5-0.6,2.8-1.9c0,0,0,0,0-0.1c0.8,0,1.6,0,2.4,0.1c3.5,0.1,7.1,0.2,10.6-0.2c2.8-0.4,4.3-1.4,4.6-4c0,0,0,0,0.1,0
			c0.5,0,1-0.2,1.4-0.4c0.3-0.2,0.7-0.5,1.1-0.5c0.8-0.2,1.3,0.2,1.9,0.5c0.5,0.2,1.1,0.3,1.7,0.3c-0.1,0.9,0,1.9,0.7,2.5
			c1,0.9,3.1,1.4,4.4,1.5c3.4,0.4,6.9,0.2,10.2,0.2c0.9,0,1.8-0.1,2.7-0.1c0,0,0,0,0,0.1c0.4,1.3,1.6,1.8,2.8,1.8
			c1.5,0,2.7-0.7,3.1-2.1c0.7,0,1.3-0.1,2-0.1c0.5,0,1.2-0.1,2-0.2c-1.7,2-3.7,3.2-6.4,3.3c-2.4,0.1-4.8-0.8-7.2-0.8
			c-2.9-0.1-6.7,1.1-8.1,3.9C261.3,677.1,260.7,677.1,260,677.2z M263.2,677c1.6-2.5,5.8-2.9,8.3-2.5c2,0.3,4,0.8,6.1,0.7
			c3.3-0.2,5.7-1.9,7.5-4.5c2.1-0.1,4.4,0.1,4.7,1.3c-0.9,1.5-3.6,1.7-5,2.5c-1.4,0.7-2.4,1.6-2.7,3.1c-2.9-0.1-5.9-0.3-8.8-0.3
			C270,677.1,266.6,677,263.2,677z"/>
		<ellipse transform="matrix(1 -3.021388e-03 3.021388e-03 1 -2.0406 0.8815)" cx="290.7" cy="675.8" rx="1.1" ry="1.1"/>
		<path d="M254.2,672.8c-0.9-0.8-0.8-5.2-1.3-5.2s-0.4,4.3-1.3,5.2c-0.9,0.9-4,0.6-4,1.2c0,0.6,3,0.2,4,1.1c1,0.9,0.8,5.2,1.3,5.2
			c0.6,0,0.5-4.4,1.3-5.2c0.8-0.8,4-0.7,4-1.2C258.2,673.5,255,673.7,254.2,672.8z"/>
		<ellipse transform="matrix(0.5446 -0.8387 0.8387 0.5446 -462.9363 405.1651)" cx="141.6" cy="628.9" rx="1.1" ry="1.1"/>
		<path d="M206.9,459.8c0,0,0-0.1,0-0.1c0,0,0-0.1,0-0.1c0,0,0-0.1,0-0.1c-0.1-0.2-0.3-0.4-0.6-0.4c0,0-0.1,0-0.1,0c0,0-0.1,0-0.1,0
			c0,0-0.1,0-0.1,0.1c0,0,0,0,0,0c-4.1,3.6-8.1,7.1-12.2,10.7c-1.6,1.4-3.5,2.7-4.7,4.5c-4.3,6.7-8.7,13.4-13,20
			c-14.6,22.6-29.3,45.1-43.9,67.7c-3.7,5.7-7.4,11.4-11.1,17.2c-0.1,0-0.1-0.1-0.2-0.1c-0.1-0.1-0.3-0.1-0.4-0.1c0,0,0,0,0,0
			c0,0,0,0-0.1,0c-0.1,0-0.2,0.1-0.3,0.2c-0.6,0.9-1.1,1.7-1.7,2.6c0,0,0,0.1,0,0.1c-3.3-0.2-5.6,4.2-2.3,6.7
			c-0.5,0.8-1,1.6-1.5,2.3c-0.2,0.3-0.1,0.6,0.2,0.8c0.4,0.2,0.7,0.5,1.1,0.7c-0.2,0.6-0.5,1.3-1.2,1.5c-0.5,0.2-1.2-0.1-1.7,0.1
			c-0.9,0.2-1.5,0.9-1.7,1.7c-0.3,0.9-0.1,1.8,0.4,2.5c-0.9,1.5-1.9,1.7-3.8,1.1c-1.2-0.4-2.2-1-3.3-1.6c-2.1-1.2-4.1-2.5-6.1-3.9
			c-3.7-2.4-7.3-5-10.8-7.6c-1.4-1-2.9-2.3-4.6-3c-1.3-0.6-1.7-0.2-2.8,0.4c-0.5,0.3,0.1,0.2-0.5,0.3c-0.2,0-0.6-0.2-0.9-0.2
			c-0.6-0.1-1.3-0.1-1.9,0.1c-1.8,0.5-3.1,2.2-4.1,3.7c-0.2,0.2-0.1,0.6,0.2,0.8c5.3,3,10.6,6,15.9,9.1c3.7,2.2,7.4,4.5,11.1,6.9
			c1.4,0.9,2.8,1.8,4.1,2.9c1.2,0.9,2,1.4,1.3,2.6c-1.8-0.9-3.4-0.3-4.6,1.3c-1.2,1.7-1.7,3.4-0.5,5.3c0.1,0.1,0.2,0.2,0.3,0.2
			c0,0,0,0,0,0c-0.7,0.4-1.4,0.8-1.9,1.6c-0.7,1-1,2.1-0.6,3.2c-1.4,1.1-2.8,2.3-4,3.7c-0.1,0-0.1,0.1-0.2,0.2
			c-0.8,0.9-1.6,1.8-2.3,2.8c-0.1,0.1-0.1,0.2-0.2,0.3c-1.3,1.8-2.5,3.7-3.6,5.6c-1.9,3.3-3.8,6.9-4.6,10.6c-1.2,0.2-2,1.3-2.4,2.4
			c-0.5,1.6,0,3.2,1.4,4.1c1.3,0.9,3,0.9,4.2-0.2c0.9-0.8,1.5-2.1,1.3-3.3c3.1-2.2,5.6-5.6,7.8-8.6c3.2-4.3,6-9.2,7.3-14.4
			c1.3-0.2,2.2-0.8,2.8-2c0.4-0.8,0.5-1.5,0.6-2.3c0.9,0.7,2.3,0.6,3.2,0c1.1-0.7,1.9-2.3,2.3-3.6c0.4-1.4-0.1-2.5-1.3-3.3
			c0.9-1.3,1.5-0.9,3-0.1c1.5,0.8,2.9,1.6,4.3,2.5c3.7,2.3,7.2,4.8,10.8,7.3c5,3.5,9.9,7.1,14.8,10.8c0.2,0.2,0.6,0.1,0.8-0.2
			c0.9-1.5,1.9-3.2,1.7-5c-0.1-1.1-1.4-2.4-1.4-3c0-0.6,0.5-0.9,0.3-1.6c-0.1-0.5-0.4-0.9-0.8-1.3c-1.3-1.3-3.1-2.1-4.6-3
			c-3.6-2.1-7.3-4.3-10.9-6.5c-2-1.2-4-2.5-5.9-3.8c-1-0.7-2.1-1.4-3-2.3c-1.5-1.5-1.8-2.5-0.8-4.2c0.6,0,1.1-0.1,1.7-0.3
			c0.9-0.4,1.6-1.2,1.6-2.2c0-0.5-0.1-0.9-0.3-1.4c-0.3-0.7-0.6-1-0.1-1.8c0.1-0.2,0.4-0.5,0.6-0.6c0.3,0.2,0.5,0.4,0.8,0.5
			c0.3,0.2,0.6,0.1,0.8-0.2c0.5-0.8,1-1.6,1.5-2.3c0,0,0,0,0,0c2,1.1,3.7,0.8,4.9-1.2c0.9-1.4,1-2.7,0.3-3.8c0,0,0,0,0,0
			c0.6-0.9,1.1-1.7,1.7-2.6c0.2-0.3,0.1-0.6-0.2-0.8c-0.1,0-0.1-0.1-0.2-0.1c10-15.4,20-30.8,30-46.2c12.4-19.2,24.9-38.3,37.3-57.5
			c1.2-1.9,1.7-3.2,2.4-5.4C203.3,471.5,205.1,465.6,206.9,459.8C206.9,459.8,206.9,459.8,206.9,459.8z M151.6,534.2
			c12.5-19.3,25-38.5,37.5-57.8c1.3-2.1,1.9-2.7,3.8-4.3c3.6-3.1,7.1-6.2,10.7-9.3c-8.3,12.8-16.6,25.6-24.9,38.3
			c-14.4,22.2-28.8,44.4-43.2,66.6c-3.2,5-6.4,9.9-9.6,14.9c-1.3-0.9-2.6-1.7-4-2.6C131.8,564.7,141.7,549.5,151.6,534.2z
			 M93.9,592.3c-0.6,0.4-1.3,0.1-1.8-0.2c-0.7-0.4-1.1-1-1.1-1.8C92,591,92.9,591.7,93.9,592.3z M83.4,593.1
			c-3.1-1.8-6.2-3.6-9.4-5.3c1.5-2,3.2-3.4,5.8-2.3C80.3,588.2,84.5,590.2,83.4,593.1z M91.9,598.2c-2.5-1.5-5.1-3-7.6-4.5
			c0.5-1.4,0.2-2.7-0.6-4c-0.8-1.4-3-3.1-2.9-4.8c1-0.9,3,0.2,4.7,1.5c0.2,3.2,1.2,5.9,3.9,7.9c1.7,1.2,3.6,1.9,5.5,2.7
			c2.3,1.1,5.6,3.7,5.6,6.6C97.7,601.7,94.8,599.9,91.9,598.2z M86.5,647c-0.1,0.1-0.2,0.2-0.2,0.3c0,0.1,0,0.2,0,0.3
			c0.6,2-1.7,3.7-3.5,2.8c-1.1-0.6-1.5-1.7-1.2-2.8c0.2-0.8,0.9-1.7,1.8-1.8c0,0,0,0,0.1,0c0.2,0,0.5-0.1,0.5-0.4
			c0.2-0.8,0.4-1.7,0.7-2.5c1.2,1,2.1,2.2,2.3,3.7C86.8,646.8,86.7,646.9,86.5,647z M87.9,645.9c-0.4-1.7-1.5-3-2.9-4.1
			c0.3-0.8,0.7-1.7,1.1-2.5c1.7,1.2,3,2.8,3.4,4.9c0,0.1,0,0.1,0.1,0.1C89,644.9,88.5,645.4,87.9,645.9z M90.5,643.4
			c-0.6-2.1-2-3.8-3.9-5.1c0.4-0.8,0.8-1.6,1.3-2.4c1.9,1.4,3.6,3.1,4.4,5.4C91.7,642,91.1,642.7,90.5,643.4z M94.4,638.5
			c-0.4,0.6-0.9,1.2-1.3,1.8c-0.9-2.2-2.6-3.9-4.6-5.3c0-0.1,0.1-0.2,0.1-0.2c0.4-0.7,0.8-1.4,1.2-2c2,1.5,3.8,3.2,4.6,5.6
			C94.4,638.3,94.4,638.4,94.4,638.5C94.4,638.4,94.4,638.5,94.4,638.5z M95.2,637.4c-1-2.4-2.8-4.2-4.8-5.7c0.5-0.7,1-1.5,1.5-2.2
			c2.1,1.5,3.9,3.3,4.7,5.7c0,0,0,0,0,0C96.2,636,95.7,636.7,95.2,637.4z M97.3,634.1c-1-2.3-2.8-4-4.8-5.5c0.5-0.7,1.1-1.4,1.7-2.1
			c1.9,1.4,3.6,3.1,4.3,5.5C98.2,632.7,97.8,633.4,97.3,634.1z M99.2,630.6c-0.9-2-2.5-3.6-4.3-5c0.6-0.7,1.3-1.3,2-1.9
			c1.6,1.2,2.8,2.7,3.2,4.7C99.9,629.2,99.6,629.9,99.2,630.6z M101.5,624.3c-0.2,0.8-0.4,1.7-0.7,2.5c-0.6-1.5-1.7-2.7-3-3.8
			c0.3-0.2,0.5-0.4,0.8-0.6c0,0,0,0,0,0c1.2,0.1,2.3,1,2.9,1.8C101.6,624.2,101.6,624.2,101.5,624.3z M102.5,623.5
			c-0.9-1.2-2.1-2.1-3.6-2.3c-0.8-2,1.5-3.3,3-3.9c1.1,0.5,2,1.2,3,2C104.9,621.2,104.6,623.1,102.5,623.5z M143.1,632.7
			c-2.9-2.2-5.8-4.3-8.7-6.4c2.2-2.2,5.8,0.8,8.4,0.2C144.9,628.3,144.4,630.5,143.1,632.7z M139.8,621.5c1.8,1.1,3.6,2.4,3.2,3.7
			c-1.5,0.8-3.9-0.5-5.5-0.7c-1.5-0.2-2.9,0.1-3.9,1.1c-2.4-1.7-4.8-3.4-7.2-5.1c-2.8-1.9-5.6-3.9-8.4-5.7c2.5-1,5.9,0.5,7.7,1.9
			c1.8,1.4,3.3,3.2,5.3,4.4C133.8,622.8,136.8,622.6,139.8,621.5z M133.9,618.2c-0.7,0.4-1.4,0.3-2.1-0.2c-0.5-0.4-1-0.9-0.9-1.6
			C131.9,617,132.9,617.6,133.9,618.2z M119.1,608.6c2.7,2.3,5.8,4.1,8.8,5.9c0.7,0.4,1.4,0.8,2,1.2c0,0,0,0,0,0.1
			c-0.4,1.3,0.3,2.4,1.3,3.1c1.2,0.8,2.6,0.9,3.7-0.1c0.6,0.3,1.1,0.7,1.7,1c0.4,0.2,1.1,0.6,1.8,1c-2.3,0.7-4.6,0.7-6.9-0.6
			c-2.3-1.3-3.8-3.4-5.9-4.9c-2.4-1.7-6.2-2.8-8.9-1.2c-0.5-0.3-1.1-0.7-1.7-1c-1-0.6-2.2-1.3-3.4-1.7c-1.5-0.4-2.1,0.5-2.9,1.8
			c-0.2,0.4,0,0.7,0.3,0.8c0,0.1,0.1,0.1,0.2,0.2c1.7,1.1,0.9,2.6,0.1,3.9c-0.6,1-1.7,1.8-2.8,1.2c-0.8-0.4-1.4-1.4-2.2-1.9
			c-1.1-0.8-2.3-1.4-3.6-1.7c0,0,0,0-0.1,0c0,0,0,0,0,0c-0.9-1.3-0.4-2.5,0.4-3.7c0.8-1.2,1.9-2,3.3-1.1c0,0,0.1,0,0.1,0
			c0.2,0.3,0.7,0.4,1,0c2.2-2.7-0.4-4.1-2.5-5.6c-0.5-0.4-1-0.7-1.6-1.1c0.3-3.1-2.2-6.1-4.7-7.6c-2.1-1.2-4.5-1.8-6.5-3.2
			c-2.2-1.6-3.3-3.7-3.6-6.3c0.7,0.5,1.2,1,1.6,1.3c0.5,0.4,1.1,0.8,1.6,1.1c-0.5,1.4,0.2,2.7,1.4,3.5c1.1,0.7,2.4,0.9,3.4,0
			c0,0,0,0,0,0c0.7,0.5,1.5,1,2.2,1.5c2.8,1.9,5.6,3.9,8.7,5.4c1.1,0.5,3.2,1.3,4.5,1.1c1-0.2,1.5-1,1.9-1.8c0.5,0.3,1,0.6,1.6,0.7
			c0.7,0.1,1.3,0,1.9,0.6c0.3,0.3,0.4,0.7,0.6,1.1c0.3,0.5,0.5,0.9,1,1.1c0,0,0,0,0.1,0C116.2,605,116.9,606.7,119.1,608.6z
			 M115.4,599.1c0.1-0.8,0.8-2.5,1.8-2.3c0.7,0.1,0.5,1,0.3,1.4c-0.3,0.5-0.7,1-1.2,1.3C116,599.3,115.7,599.1,115.4,599.1z
			 M120,597.9c-0.1,1.3,1.3,2.5,0.1,3.6c-0.5,0.4-1.1,0.5-1.6,0.4c-0.1,0-0.1,0-0.2,0c-0.2-0.1-0.4-0.2-0.6-0.4
			c-0.3-0.3-0.5-0.8-0.7-1.2c1.4-1,2.9-3.6,0.8-4.6c-1.7-0.8-3.2,1.5-3.4,3.1c-0.1,0-0.3,0-0.4-0.1c-1.2-0.2-2.2-1.5-1.6-2.7
			c0.5-1.1,1.6-0.7,2.5-0.9c1-0.2,1.6-1.1,1.9-2c1.5,0.9,2.9,1.9,4.4,2.9C120.5,596.5,120.1,597.2,120,597.9z M123,596
			c-2.4-1.6-4.8-3.2-7.3-4.7c0.4-0.5,0.7-1.1,1.1-1.6c2.4,1.6,4.8,3.2,7.3,4.7C123.7,594.9,123.4,595.4,123,596z M128.9,593.4
			c-0.9,1.1-2.1,0.8-3.2,0.3c-1-0.5-2-1.3-2.9-1.9c-2-1.3-4.2-2.4-6.1-3.9c-1.5-1.2-1.5-2.9-0.1-4.2c1-0.9,2-0.5,3.1,0.1
			c1,0.5,1.9,1.2,2.8,1.8c2.1,1.4,4.2,2.7,6.2,4.1C130.2,590.7,129.9,592.2,128.9,593.4z M129.8,588.7c-3.4-2.2-6.8-4.4-10.2-6.6
			c0.4-0.5,0.7-1.1,1.1-1.6c3.4,2.2,6.8,4.4,10.2,6.6C130.5,587.6,130.1,588.2,129.8,588.7z M201.1,474.8c-0.7,2.4-1.1,4.4-2.3,6.3
			c-4.4,6.7-8.7,13.5-13.1,20.2c-14.6,22.5-29.3,45.1-43.9,67.6c-3.6,5.6-7.3,11.2-10.9,16.9c-1.3-0.9-2.7-1.7-4-2.6
			c8.9-13.8,17.9-27.5,26.8-41.3c14.4-22.2,28.8-44.4,43.2-66.6c2.6-4,5.2-7.9,7.7-11.9C203.4,467.2,202.3,471,201.1,474.8z"/>
		<ellipse transform="matrix(0.5447 -0.8386 0.8386 0.5447 -457.2362 333.0485)" cx="78.1" cy="587.6" rx="1.1" ry="1.1"/>
		<path d="M112.7,606.4c-0.3-1.3,2.2-4.8,1.7-5.1s-2.8,3.4-3.9,3.7c-1.2,0.2-3.7-1.6-4-1.2c-0.3,0.4,2.5,2,2.7,3.1
			c0.2,1.1-2.2,4.8-1.7,5.1s2.6-3.4,3.9-3.7c1.3-0.3,3.6,1.7,4,1.2C115.7,609,112.9,607.6,112.7,606.4z"/>
		<ellipse transform="matrix(0.8387 -0.5446 0.5446 0.8387 -284.0269 298.7567)" cx="362.3" cy="628.9" rx="1.1" ry="1.1"/>
		<path d="M427.2,584c-0.6-0.2-1.2-0.2-1.9-0.1c-0.2,0-0.7,0.3-0.9,0.2c-0.6-0.1,0,0-0.5-0.3c-1.1-0.6-1.5-1-2.8-0.4
			c-1.6,0.7-3.1,2-4.6,3c-3.6,2.6-7.2,5.1-10.8,7.6c-2,1.3-4,2.7-6.1,3.9c-1,0.6-2.1,1.2-3.3,1.6c-1.8,0.6-2.8,0.4-3.8-1.1
			c0.4-0.7,0.6-1.5,0.4-2.5c-0.2-0.8-0.9-1.5-1.7-1.7c-0.6-0.2-1.2,0.1-1.7-0.1c-0.7-0.2-1-0.9-1.2-1.5c0.4-0.2,0.7-0.5,1.1-0.7
			c0.3-0.2,0.3-0.5,0.2-0.8c-0.5-0.8-1-1.6-1.5-2.3c3.2-2.4,1-6.9-2.3-6.7c0,0,0-0.1,0-0.1c-0.6-0.9-1.1-1.7-1.7-2.6
			c-0.1-0.1-0.2-0.2-0.3-0.2c0,0,0,0-0.1,0c0,0,0,0,0,0c-0.1,0-0.3,0-0.4,0.1c-0.1,0-0.1,0.1-0.2,0.1c-3.7-5.7-7.4-11.4-11.1-17.2
			c-14.6-22.6-29.3-45.1-43.9-67.7c-4.3-6.7-8.7-13.4-13-20c-1.2-1.8-3-3.1-4.7-4.5c-4.1-3.6-8.1-7.1-12.2-10.7c0,0,0,0,0,0
			c0,0-0.1,0-0.1-0.1c0,0-0.1,0-0.1,0c0,0-0.1,0-0.1,0c-0.3,0-0.5,0.1-0.6,0.4c0,0,0,0.1,0,0.1c0,0,0,0.1,0,0.1c0,0,0,0.1,0,0.1
			c0,0,0,0,0,0c1.8,5.8,3.6,11.6,5.4,17.4c0.7,2.2,1.2,3.5,2.4,5.4c12.4,19.2,24.9,38.3,37.3,57.5c10,15.4,20,30.8,30,46.2
			c-0.1,0-0.1,0.1-0.2,0.1c-0.3,0.2-0.3,0.5-0.2,0.8c0.6,0.9,1.1,1.7,1.7,2.6c0,0,0,0,0,0c-0.7,1.1-0.6,2.3,0.3,3.8
			c1.3,2,2.9,2.3,4.9,1.2c0,0,0,0,0,0c0.5,0.8,1,1.6,1.5,2.3c0.2,0.3,0.5,0.3,0.8,0.2c0.3-0.2,0.5-0.4,0.8-0.5
			c0.2,0.2,0.5,0.4,0.6,0.6c0.5,0.9,0.2,1.1-0.1,1.8c-0.2,0.5-0.3,0.9-0.3,1.4c0.1,1,0.8,1.8,1.6,2.2c0.5,0.2,1.1,0.3,1.7,0.3
			c1,1.6,0.7,2.7-0.8,4.2c-0.9,0.9-2,1.6-3,2.3c-1.9,1.3-3.9,2.6-5.9,3.8c-3.6,2.2-7.2,4.4-10.9,6.5c-1.5,0.9-3.4,1.8-4.6,3
			c-0.4,0.4-0.7,0.7-0.8,1.3c-0.1,0.7,0.4,1,0.3,1.6c0,0.6-1.3,1.9-1.4,3c-0.2,1.8,0.8,3.5,1.7,5c0.2,0.2,0.5,0.3,0.8,0.2
			c4.9-3.7,9.8-7.3,14.8-10.8c3.5-2.5,7.1-5,10.8-7.3c1.4-0.9,2.8-1.8,4.3-2.5c1.5-0.8,2.1-1.2,3,0.1c-1.2,0.8-1.7,1.9-1.3,3.3
			c0.4,1.2,1.2,2.9,2.3,3.6c0.9,0.6,2.3,0.7,3.2,0c0,0.8,0.1,1.5,0.6,2.3c0.6,1.2,1.5,1.8,2.8,2c1.2,5.3,4.1,10.1,7.3,14.4
			c2.2,3,4.8,6.3,7.8,8.6c-0.2,1.2,0.4,2.5,1.3,3.3c1.2,1.1,2.9,1.1,4.2,0.2c1.4-0.9,1.9-2.5,1.4-4.1c-0.4-1.1-1.2-2.2-2.4-2.4
			c-0.8-3.7-2.8-7.4-4.6-10.6c-1.1-1.9-2.3-3.8-3.6-5.6c0-0.1-0.1-0.2-0.2-0.3c-0.7-1-1.5-1.9-2.3-2.8c0-0.1-0.1-0.1-0.2-0.2
			c-1.2-1.3-2.5-2.6-4-3.7c0.4-1.1,0.1-2.2-0.6-3.2c-0.6-0.8-1.2-1.2-1.9-1.6c0,0,0,0,0,0c0.1,0,0.2-0.1,0.3-0.2
			c1.3-1.8,0.8-3.5-0.5-5.3c-1.2-1.6-2.8-2.3-4.6-1.3c-0.8-1.2,0.1-1.7,1.3-2.6c1.3-1,2.7-2,4.1-2.9c3.6-2.4,7.3-4.6,11.1-6.9
			c5.2-3.1,10.5-6.2,15.9-9.1c0.3-0.1,0.3-0.5,0.2-0.8C430.2,586.2,429,584.5,427.2,584z M412.9,590.3c0.1,0.8-0.3,1.4-1.1,1.8
			c-0.6,0.3-1.2,0.6-1.8,0.2C411,591.7,412,591,412.9,590.3z M311,472.1c1.9,1.7,2.5,2.3,3.8,4.3c12.5,19.3,25,38.5,37.5,57.8
			c9.9,15.2,19.8,30.5,29.7,45.7c-1.3,0.9-2.6,1.7-4,2.6c-3.2-5-6.4-9.9-9.6-14.9c-14.4-22.2-28.8-44.4-43.2-66.6
			c-8.3-12.8-16.6-25.6-24.9-38.3C303.9,465.9,307.4,469,311,472.1z M362.2,568.9c-14.6-22.5-29.3-45.1-43.9-67.6
			c-4.4-6.7-8.7-13.5-13.1-20.2c-1.2-1.8-1.5-3.8-2.3-6.3c-1.2-3.8-2.4-7.6-3.5-11.4c2.6,4,5.2,7.9,7.7,11.9
			c14.4,22.2,28.8,44.4,43.2,66.6c8.9,13.8,17.9,27.5,26.8,41.3c-1.3,0.9-2.7,1.7-4,2.6C369.5,580.1,365.8,574.5,362.2,568.9z
			 M373.1,587.1c3.4-2.2,6.8-4.4,10.2-6.6c0.4,0.5,0.7,1.1,1.1,1.6c-3.4,2.2-6.8,4.4-10.2,6.6C373.8,588.2,373.5,587.6,373.1,587.1z
			 M378.3,593.7c-1.2,0.6-2.3,0.8-3.2-0.3c-1-1.2-1.4-2.7,0.2-3.9c2.1-1.4,4.2-2.7,6.2-4.1c0.9-0.6,1.8-1.3,2.8-1.8
			c1-0.5,2.1-0.9,3.1-0.1c1.4,1.3,1.4,3-0.1,4.2c-1.8,1.5-4.1,2.7-6.1,3.9C380.3,592.4,379.4,593.2,378.3,593.7z M380.9,596
			c-0.4-0.5-0.7-1.1-1.1-1.6c2.4-1.6,4.9-3.1,7.3-4.7c0.4,0.5,0.7,1.1,1.1,1.6C385.8,592.8,383.4,594.4,380.9,596z M385.6,601.9
			c-0.1,0-0.1,0-0.2,0c-0.6,0.1-1.2,0-1.6-0.4c-1.3-1.1,0.2-2.3,0.1-3.6c-0.1-0.7-0.5-1.4-1.1-1.8c1.5-1,2.9-1.9,4.4-2.9
			c0.3,0.9,0.9,1.8,1.9,2c0.9,0.2,2-0.3,2.5,0.9c0.5,1.2-0.4,2.5-1.6,2.7c-0.1,0-0.3,0-0.4,0.1c-0.2-1.6-1.7-3.9-3.4-3.1
			c-2.1,1-0.6,3.6,0.8,4.6c-0.2,0.4-0.4,0.8-0.7,1.2C386.1,601.7,385.9,601.8,385.6,601.9z M388.5,599.1c-0.3,0.1-0.6,0.2-0.8,0.4
			c-0.5-0.3-0.9-0.8-1.2-1.3c-0.2-0.4-0.4-1.3,0.3-1.4C387.7,596.5,388.4,598.2,388.5,599.1z M373.1,616.4c0.1,0.7-0.4,1.2-0.9,1.6
			c-0.7,0.5-1.4,0.6-2.1,0.2C371.1,617.6,372.1,617,373.1,616.4z M360.8,632.7c-1.3-2.2-1.8-4.4,0.2-6.2c2.7,0.7,6.2-2.4,8.4-0.2
			C366.6,628.4,363.7,630.5,360.8,632.7z M377.6,620.5c-2.4,1.7-4.8,3.4-7.2,5.1c-1.1-1.1-2.4-1.3-3.9-1.1c-1.6,0.2-4,1.5-5.5,0.7
			c-0.4-1.2,1.4-2.6,3.2-3.7c3,1.1,5.9,1.3,8.8-0.3c2-1.1,3.5-2.9,5.3-4.4c1.8-1.5,5.3-3,7.7-1.9
			C383.2,616.6,380.4,618.6,377.6,620.5z M420,645.4c0.1,0.3,0.3,0.4,0.5,0.4c0,0,0,0,0.1,0c0.9,0,1.5,1,1.8,1.8
			c0.3,1.2-0.2,2.3-1.2,2.8c-1.8,1-4.1-0.8-3.5-2.8c0.1-0.1,0.1-0.2,0-0.3c0-0.1-0.1-0.2-0.2-0.3c-0.1-0.1-0.3-0.2-0.4-0.3
			c0.3-1.6,1.1-2.8,2.3-3.7C419.6,643.7,419.8,644.6,420,645.4z M418.9,641.8c-1.4,1-2.5,2.4-2.9,4.1c-0.6-0.5-1.1-1-1.6-1.5
			c0,0,0-0.1,0.1-0.1c0.4-2.1,1.7-3.7,3.4-4.9C418.3,640.1,418.6,641,418.9,641.8z M417.4,638.3c-1.8,1.3-3.2,3-3.9,5.1
			c-0.6-0.7-1.2-1.4-1.8-2.1c0.8-2.3,2.4-4,4.4-5.4C416.5,636.7,416.9,637.5,417.4,638.3z M415.4,634.7c0,0.1,0.1,0.2,0.1,0.2
			c-2,1.4-3.7,3.1-4.6,5.3c-0.5-0.6-0.9-1.2-1.3-1.8c0,0,0,0,0-0.1c0,0,0.1-0.1,0.1-0.1c0.8-2.4,2.6-4.2,4.6-5.6
			C414.6,633.3,415,634,415.4,634.7z M413.6,631.7c-2.1,1.5-3.8,3.3-4.8,5.7c-0.5-0.7-1-1.4-1.4-2.1c0,0,0,0,0,0
			c0.9-2.4,2.7-4.3,4.7-5.7C412.6,630.2,413.1,630.9,413.6,631.7z M411.4,628.6c-2,1.5-3.8,3.2-4.8,5.5c-0.4-0.7-0.8-1.4-1.2-2.1
			c0.7-2.3,2.4-4.1,4.3-5.5C410.3,627.2,410.9,627.9,411.4,628.6z M407,623.7c0.7,0.6,1.3,1.2,2,1.9c-1.8,1.3-3.3,2.9-4.3,5
			c-0.3-0.7-0.7-1.4-0.9-2.1C404.2,626.5,405.4,624.9,407,623.7z M405.3,622.4c0.3,0.2,0.5,0.4,0.8,0.6c-1.3,1-2.4,2.3-3,3.8
			c-0.3-0.8-0.5-1.6-0.7-2.5c0-0.1,0-0.1-0.1-0.1C403,623.3,404.1,622.4,405.3,622.4C405.3,622.3,405.3,622.4,405.3,622.4z
			 M405.1,621.2c-1.5,0.1-2.8,1.1-3.6,2.3c-2.1-0.4-2.4-2.3-2.3-4.2c0.9-0.8,1.8-1.5,3-2C403.6,618,405.8,619.2,405.1,621.2z
			 M400.8,605.4c-2.1,1.5-4.7,2.9-2.5,5.6c0.3,0.3,0.8,0.2,1,0c0,0,0.1,0,0.1,0c1.4-0.8,2.5-0.1,3.3,1.1c0.8,1.2,1.3,2.4,0.4,3.7
			c0,0,0,0,0,0c0,0,0,0-0.1,0c-1.3,0.3-2.5,0.9-3.6,1.7c-0.7,0.5-1.4,1.5-2.2,1.9c-1,0.6-2.2-0.2-2.8-1.2c-0.8-1.4-1.6-2.9,0.1-3.9
			c0.1,0,0.1-0.1,0.2-0.2c0.3-0.1,0.5-0.5,0.3-0.8c-0.8-1.3-1.4-2.2-2.9-1.8c-1.2,0.3-2.3,1.1-3.4,1.7c-0.6,0.3-1.1,0.7-1.7,1
			c-2.6-1.6-6.5-0.5-8.9,1.2c-2.1,1.5-3.7,3.6-5.9,4.9c-2.2,1.3-4.5,1.3-6.9,0.6c0.7-0.4,1.4-0.7,1.8-1c0.6-0.3,1.1-0.7,1.7-1
			c1.1,1,2.5,0.9,3.7,0.1c1-0.7,1.7-1.8,1.3-3.1c0,0,0,0,0-0.1c0.7-0.4,1.4-0.8,2-1.2c3-1.8,6.1-3.7,8.8-5.9
			c2.2-1.8,2.9-3.6,1.7-5.8c0,0,0,0,0.1,0c0.5-0.3,0.7-0.7,1-1.1c0.2-0.3,0.3-0.8,0.6-1.1c0.6-0.6,1.2-0.5,1.9-0.6
			c0.6-0.1,1.1-0.3,1.6-0.7c0.4,0.8,1,1.6,1.9,1.8c1.3,0.3,3.4-0.5,4.5-1.1c3-1.5,5.9-3.5,8.7-5.4c0.8-0.5,1.5-1,2.2-1.5
			c0,0,0,0,0,0c1,0.9,2.3,0.7,3.4,0c1.2-0.8,1.9-2,1.4-3.5c0.5-0.4,1.1-0.8,1.6-1.1c0.4-0.3,1-0.7,1.6-1.3c-0.3,2.6-1.4,4.7-3.6,6.3
			c-2,1.4-4.4,2-6.5,3.2c-2.5,1.5-5,4.6-4.7,7.6C401.8,604.7,401.3,605,400.8,605.4z M419.6,593.7c-2.5,1.5-5.1,3-7.6,4.5
			c-2.9,1.7-5.8,3.5-8.6,5.4c0-2.9,3.3-5.6,5.6-6.6c1.9-0.9,3.8-1.5,5.5-2.7c2.7-2,3.7-4.7,3.9-7.9c1.7-1.2,3.7-2.3,4.7-1.5
			c0.1,1.7-2.1,3.4-2.9,4.8C419.4,591,419.1,592.3,419.6,593.7z M420.6,593.1c-1.1-2.9,3.1-4.9,3.6-7.6c2.6-1.1,4.3,0.3,5.8,2.3
			C426.8,589.5,423.7,591.3,420.6,593.1z"/>
		<ellipse transform="matrix(0.8387 -0.5446 0.5446 0.8387 -251.3271 326.6894)" cx="425.8" cy="587.6" rx="1.1" ry="1.1"/>
		<path d="M393.5,604.9c-1.2-0.2-3.5-4-3.9-3.7c-0.5,0.3,2,3.8,1.7,5.1c-0.3,1.3-3,2.6-2.7,3.1c0.3,0.5,2.7-1.5,4-1.2
			c1.3,0.3,3.5,4,3.9,3.7c0.5-0.3-2-4-1.7-5.1c0.2-1.1,3-2.7,2.7-3.1C397.2,603.3,394.7,605.2,393.5,604.9z"/>
		<polygon points="221.2,462.6 249.4,437.1 252,480.1 254.5,437.1 282.7,462.6 256.8,434.4 294.6,431.9 257.2,429.3 282.7,401.1 
			254.5,426.7 252,383.7 249.4,426.7 221.2,401.1 246.7,429.3 209.3,431.9 246.7,434.4 		"/>
		<path d="M116.9,374.4c-0.9-0.4-1.8-0.8-2.7-1.1c-1.1-0.5-1.7-0.5-2-1.5c-0.6-1.9-1.1-3.9-1.6-5.9c0,0,0,0,0-0.1c0,0,0,0,0-0.1
			c-0.1-0.1-0.2-0.2-0.3-0.2c-0.1,0-0.3,0-0.3,0.2c0,0,0,0.1,0,0.1c0,0,0,0,0,0c0,0,0,0,0,0c0,0,0,0,0,0c-0.5,1.9-1,3.9-1.5,5.9
			c-0.5,1.5-3.3,2.1-4.7,2.7c-0.3,0.1-0.5,0.6-0.1,0.7c0.9,0.4,1.8,0.8,2.7,1.2c0.5,0.2,1.1,0.5,1.6,0.7c0.1,0.1,0.2,0.1,0.2,0.1
			c0,0,0,0,0,0.1c1,1.7,1.2,4.2,1.8,6.1c0.1,0.4,0.7,0.4,0.8,0c0.6-1.9,0.9-4.4,1.8-6.1c0,0,0,0,0-0.1c0,0,0.1,0,0.1-0.1
			c0.5-0.3,1.2-0.5,1.7-0.8c0.9-0.4,1.8-0.8,2.7-1.2C117.3,375,117.2,374.5,116.9,374.4z M113.5,375.8c-0.6,0.3-1.5,0.5-1.9,1
			c-0.6,0.8-0.7,2.4-1,3.4c-0.2,0.6-0.3,1.1-0.5,1.7c-0.2-0.6-0.3-1.1-0.5-1.7c-0.3-0.9-0.4-2.6-1-3.4c-0.4-0.6-1.2-0.7-1.9-1
			c-0.7-0.3-1.5-0.7-2.2-1c1.5-0.5,3.5-1.1,4.2-2.2c0.6-1,0.7-2.7,1-3.7c0.1-0.5,0.3-0.9,0.4-1.4c0.1,0.5,0.3,0.9,0.4,1.4
			c0.3,1.1,0.4,2.7,1,3.7c0.6,1.1,2.7,1.7,4.2,2.2C115,375.1,114.2,375.5,113.5,375.8z"/>
		<path d="M116.9,419.1c-0.9-0.4-1.8-0.8-2.7-1.1c-1.1-0.5-1.7-0.5-2-1.5c-0.6-1.9-1.1-3.9-1.6-5.9c0,0,0,0,0-0.1c0,0,0,0,0-0.1
			c-0.1-0.1-0.2-0.2-0.3-0.2c-0.1,0-0.3,0-0.3,0.2c0,0,0,0.1,0,0.1c0,0,0,0,0,0c0,0,0,0,0,0c0,0,0,0,0,0c-0.5,1.9-1,3.9-1.5,5.9
			c-0.5,1.5-3.3,2.1-4.7,2.7c-0.3,0.1-0.5,0.6-0.1,0.7c0.9,0.4,1.8,0.8,2.7,1.2c0.5,0.2,1.1,0.5,1.6,0.7c0.1,0.1,0.2,0.1,0.2,0.1
			c0,0,0,0,0,0.1c1,1.7,1.2,4.2,1.8,6.1c0.1,0.4,0.7,0.4,0.8,0c0.6-1.9,0.9-4.4,1.8-6.1c0,0,0,0,0-0.1c0,0,0.1,0,0.1-0.1
			c0.5-0.3,1.2-0.5,1.7-0.8c0.9-0.4,1.8-0.8,2.7-1.2C117.3,419.7,117.2,419.2,116.9,419.1z M113.5,420.5c-0.6,0.3-1.5,0.5-1.9,1
			c-0.6,0.8-0.7,2.4-1,3.4c-0.2,0.6-0.3,1.1-0.5,1.7c-0.2-0.6-0.3-1.1-0.5-1.7c-0.3-0.9-0.4-2.6-1-3.4c-0.4-0.6-1.2-0.7-1.9-1
			c-0.7-0.3-1.5-0.7-2.2-1c1.5-0.5,3.5-1.1,4.2-2.2c0.6-1,0.7-2.7,1-3.7c0.1-0.5,0.3-0.9,0.4-1.4c0.1,0.5,0.3,0.9,0.4,1.4
			c0.3,1.1,0.4,2.7,1,3.7c0.6,1.1,2.7,1.7,4.2,2.2C115,419.9,114.2,420.2,113.5,420.5z"/>
		<path d="M116.9,463.8c-0.9-0.4-1.8-0.8-2.7-1.1c-1.1-0.5-1.7-0.5-2-1.5c-0.6-1.9-1.1-3.9-1.6-5.9c0,0,0,0,0-0.1c0,0,0,0,0-0.1
			c-0.1-0.1-0.2-0.2-0.3-0.2c-0.1,0-0.3,0-0.3,0.2c0,0,0,0.1,0,0.1c0,0,0,0,0,0c0,0,0,0,0,0c0,0,0,0,0,0c-0.5,1.9-1,3.9-1.5,5.9
			c-0.5,1.5-3.3,2.1-4.7,2.7c-0.3,0.1-0.5,0.6-0.1,0.7c0.9,0.4,1.8,0.8,2.7,1.2c0.5,0.2,1.1,0.5,1.6,0.7c0.1,0.1,0.2,0.1,0.2,0.1
			c0,0,0,0,0,0.1c1,1.7,1.2,4.2,1.8,6.1c0.1,0.4,0.7,0.4,0.8,0c0.6-1.9,0.9-4.4,1.8-6.1c0,0,0,0,0-0.1c0,0,0.1,0,0.1-0.1
			c0.5-0.3,1.2-0.5,1.7-0.8c0.9-0.4,1.8-0.8,2.7-1.2C117.3,464.4,117.2,463.9,116.9,463.8z M113.5,465.2c-0.6,0.3-1.5,0.5-1.9,1
			c-0.6,0.8-0.7,2.4-1,3.4c-0.2,0.6-0.3,1.1-0.5,1.7c-0.2-0.6-0.3-1.1-0.5-1.7c-0.3-0.9-0.4-2.6-1-3.4c-0.4-0.6-1.2-0.7-1.9-1
			c-0.7-0.3-1.5-0.7-2.2-1c1.5-0.5,3.5-1.1,4.2-2.2c0.6-1,0.7-2.7,1-3.7c0.1-0.5,0.3-0.9,0.4-1.4c0.1,0.5,0.3,0.9,0.4,1.4
			c0.3,1.1,0.4,2.7,1,3.7c0.6,1.1,2.7,1.7,4.2,2.2C115,464.6,114.2,464.9,113.5,465.2z"/>
		<path d="M389.7,376.4c0.5,0.2,1.1,0.5,1.6,0.7c0.1,0.1,0.2,0.1,0.2,0.1c0,0,0,0,0,0.1c1,1.7,1.2,4.2,1.8,6.1
			c0.1,0.4,0.7,0.4,0.8,0c0.6-1.9,0.9-4.4,1.8-6.1c0,0,0,0,0-0.1c0,0,0.1,0,0.1-0.1c0.5-0.3,1.2-0.5,1.7-0.8
			c0.9-0.4,1.8-0.8,2.7-1.2c0.4-0.2,0.2-0.6-0.1-0.7c-0.9-0.4-1.8-0.8-2.7-1.1c-1.1-0.5-1.7-0.5-2-1.5c-0.6-1.9-1.1-3.9-1.6-5.9
			c0,0,0,0,0-0.1c0,0,0,0,0-0.1c-0.1-0.1-0.2-0.2-0.3-0.2c-0.1,0-0.3,0-0.3,0.2c0,0,0,0.1,0,0.1c0,0,0,0,0,0c0,0,0,0,0,0
			c0,0,0,0,0,0c-0.5,1.9-1,3.9-1.5,5.9c-0.5,1.5-3.3,2.1-4.7,2.7c-0.3,0.1-0.5,0.6-0.1,0.7C387.9,375.6,388.8,376,389.7,376.4z
			 M392.4,372.7c0.6-1,0.7-2.7,1-3.7c0.1-0.5,0.3-0.9,0.4-1.4c0.1,0.5,0.3,0.9,0.4,1.4c0.3,1.1,0.4,2.7,1,3.7
			c0.6,1.1,2.7,1.7,4.2,2.2c-0.7,0.3-1.5,0.7-2.2,1c-0.6,0.3-1.5,0.5-1.9,1c-0.6,0.8-0.7,2.4-1,3.4c-0.2,0.6-0.3,1.1-0.5,1.7
			c-0.2-0.6-0.3-1.1-0.5-1.7c-0.3-0.9-0.4-2.6-1-3.4c-0.4-0.6-1.2-0.7-1.9-1c-0.7-0.3-1.5-0.7-2.2-1
			C389.8,374.4,391.8,373.7,392.4,372.7z"/>
		<path d="M387,419.9c0.9,0.4,1.8,0.8,2.7,1.2c0.5,0.2,1.1,0.5,1.6,0.7c0.1,0.1,0.2,0.1,0.2,0.1c0,0,0,0,0,0.1
			c1,1.7,1.2,4.2,1.8,6.1c0.1,0.4,0.7,0.4,0.8,0c0.6-1.9,0.9-4.4,1.8-6.1c0,0,0,0,0-0.1c0,0,0.1,0,0.1-0.1c0.5-0.3,1.2-0.5,1.7-0.8
			c0.9-0.4,1.8-0.8,2.7-1.2c0.4-0.2,0.2-0.6-0.1-0.7c-0.9-0.4-1.8-0.8-2.7-1.1c-1.1-0.5-1.7-0.5-2-1.5c-0.6-1.9-1.1-3.9-1.6-5.9
			c0,0,0,0,0-0.1c0,0,0,0,0-0.1c-0.1-0.1-0.2-0.2-0.3-0.2c-0.1,0-0.3,0-0.3,0.2c0,0,0,0.1,0,0.1c0,0,0,0,0,0c0,0,0,0,0,0
			c0,0,0,0,0,0c-0.5,1.9-1,3.9-1.5,5.9c-0.5,1.5-3.3,2.1-4.7,2.7C386.8,419.3,386.6,419.7,387,419.9z M392.4,417.4
			c0.6-1,0.7-2.7,1-3.7c0.1-0.5,0.3-0.9,0.4-1.4c0.1,0.5,0.3,0.9,0.4,1.4c0.3,1.1,0.4,2.7,1,3.7c0.6,1.1,2.7,1.7,4.2,2.2
			c-0.7,0.3-1.5,0.7-2.2,1c-0.6,0.3-1.5,0.5-1.9,1c-0.6,0.8-0.7,2.4-1,3.4c-0.2,0.6-0.3,1.1-0.5,1.7c-0.2-0.6-0.3-1.1-0.5-1.7
			c-0.3-0.9-0.4-2.6-1-3.4c-0.4-0.6-1.2-0.7-1.9-1c-0.7-0.3-1.5-0.7-2.2-1C389.8,419.1,391.8,418.5,392.4,417.4z"/>
		<path d="M387,464.6c0.9,0.4,1.8,0.8,2.7,1.2c0.5,0.2,1.1,0.5,1.6,0.7c0.1,0.1,0.2,0.1,0.2,0.1c0,0,0,0,0,0.1
			c1,1.7,1.2,4.2,1.8,6.1c0.1,0.4,0.7,0.4,0.8,0c0.6-1.9,0.9-4.4,1.8-6.1c0,0,0,0,0-0.1c0,0,0.1,0,0.1-0.1c0.5-0.3,1.2-0.5,1.7-0.8
			c0.9-0.4,1.8-0.8,2.7-1.2c0.4-0.2,0.2-0.6-0.1-0.7c-0.9-0.4-1.8-0.8-2.7-1.1c-1.1-0.5-1.7-0.5-2-1.5c-0.6-1.9-1.1-3.9-1.6-5.9
			c0,0,0,0,0-0.1c0,0,0,0,0-0.1c-0.1-0.1-0.2-0.2-0.3-0.2c-0.1,0-0.3,0-0.3,0.2c0,0,0,0.1,0,0.1c0,0,0,0,0,0c0,0,0,0,0,0
			c0,0,0,0,0,0c-0.5,1.9-1,3.9-1.5,5.9c-0.5,1.5-3.3,2.1-4.7,2.7C386.8,464,386.6,464.5,387,464.6z M392.4,462.1
			c0.6-1,0.7-2.7,1-3.7c0.1-0.5,0.3-0.9,0.4-1.4c0.1,0.5,0.3,0.9,0.4,1.4c0.3,1.1,0.4,2.7,1,3.7c0.6,1.1,2.7,1.7,4.2,2.2
			c-0.7,0.3-1.5,0.7-2.2,1c-0.6,0.3-1.5,0.5-1.9,1c-0.6,0.8-0.7,2.4-1,3.4c-0.2,0.6-0.3,1.1-0.5,1.7c-0.2-0.6-0.3-1.1-0.5-1.7
			c-0.3-0.9-0.4-2.6-1-3.4c-0.4-0.6-1.2-0.7-1.9-1c-0.7-0.3-1.5-0.7-2.2-1C389.8,463.8,391.8,463.2,392.4,462.1z"/>
	</g>
</g>
</svg>
