<?xml version="1.0" encoding="utf-8"?>
<!-- Generator: Adobe Illustrator 21.1.0, SVG Export Plug-In . SVG Version: 6.00 Build 0)  -->
<svg version="1.1" xmlns="http://www.w3.org/2000/svg" xmlns:xlink="http://www.w3.org/1999/xlink" x="0px" y="0px"
	 viewBox="0 0 504 864" style="enable-background:new 0 0 504 864;" xml:space="preserve">
<g id="Слой_1">
</g>
<g id="Слой_2">
	<g>
		<path d="M503.8,18.2c-1.6-17.9-18.7-16.3-31.6-16.3c-45.9,0-91.8,0-137.6,0c-63.2,0-126.3,0-189.5,0c-40.6,0-81.2,0-121.8,0
			c-2.6,0-5.3-0.2-8,0.2c-9.5,1.2-15,9.2-15.2,18.2c-0.2,7.3,0,14.5,0,21.8c0,37.4,0,74.9,0,112.3c0,57,0,114.1,0,171.1
			c0,64.3,0,128.6,0,192.9c0,58.4,0,116.7,0,175.1c0,40.1,0,80.2,0,120.3c0,9.1,0,18.2,0,27.3c0,11.7,6.7,20.5,19.2,20.7
			c35.9,0.6,71.9,0,107.9,0c62.4,0,124.9,0,187.3,0c49.7,0,99.5,0,149.2,0c7.6,0,15.2,0,22.9,0c0.4,0,0.8-0.1,1.2-0.2
			c14.4-1.8,16.1-13.8,16.1-25.5c0-11.4,0-22.8,0-34.3c0-43.4,0-86.9,0-130.3c0-59.9,0-119.8,0-179.8c0-63.9,0-127.7,0-191.6
			c0-55.3,0-110.6,0-165.9c0-33.7,0-67.3,0-101C503.9,28.3,504.2,23.2,503.8,18.2z M486.6,852.8c-28.3,0-56.6,0-84.9,0
			c-59.9,0-119.8,0-179.7,0c-54,0-108,0-162,0c-13.1,0-26.1,0-39.2,0c-5.6,0-11-1.3-11.7-8.3c-0.2-1.5,0-3,0-4.5c0-26.5,0-53,0-79.5
			c0-50,0-100,0-149.9c0-61.8,0-123.6,0-185.4c0-61.4,0-122.7,0-184.1c0-48.9,0-97.7,0-146.6c0-24.2-0.8-48.6,0-72.7
			c0.2-5.3,1.6-10.1,8.3-10.8c2.2-0.2,4.5,0,6.7,0c14.8,0,29.6,0,44.5,0c55.6,0,111.3,0,166.9,0c58.9,0,117.8,0,176.7,0
			c18.9,0,37.9,0,56.8,0c8.1,0,24.7-3.1,25.9,8.4c0.5,5.2,0,10.8,0,16.1c0,13.5,0,27.1,0,40.6c0,45.5,0,91.1,0,136.6
			c0,60.1,0,120.2,0,180.3c0,62.6,0,125.1,0,187.7c0,52.8,0,105.6,0,158.4c0,31.4,0,62.7,0,94.1C494.8,840.3,496.9,852,486.6,852.8z
			"/>
		<path d="M460,790.9c1.2,0.1,2.4-0.7,2.4-2.2c0-23.7,0-47.4,0-71.1c0-56.4,0-112.8,0-169.2c0-68.7,0-137.4,0-206
			c0-59,0-117.9,0-176.9c0-19.6,0-39.2,0-58.8c0-8.9,1.3-19,0-27.9c-0.1-0.4,0-0.8,0-1.2c0-0.8-0.3-1.3-0.8-1.7
			c0.1-1.2-0.6-2.5-2.2-2.6c-13.1-0.5-25.3-13.8-25.8-26.7c0-0.5-0.2-0.8-0.4-1.1c-0.3-0.6-1-1.1-1.9-1.1c-40.5,0-80.9,0-121.4,0
			c-64.5,0-129,0-193.6,0c-14.9,0-29.7,0-44.6,0c-0.9,0-1.6,0.5-1.9,1.1c-0.2,0.3-0.3,0.7-0.4,1.2C69.1,59.5,57,72.8,43.9,73.3
			c-1.8,0.1-2.5,1.9-2,3.2c-0.2,0.3-0.2,0.6-0.2,1c0,23.7,0,47.4,0,71.1c0,56.4,0,112.8,0,169.2c0,68.7,0,137.4,0,206
			c0,59,0,117.9,0,176.9c0,19.6,0,39.2,0,58.8c0,8.9-1.3,19,0,27.9c0.1,0.4,0,0.8,0,1.2c0,0.9,0.5,1.6,1.1,1.9
			c0.3,0.2,0.7,0.3,1.2,0.4c13,0.5,25.3,13.3,25.8,26.2c0,0.5,0.2,0.8,0.4,1.1c0.3,0.6,1,1.1,1.9,1.1c40.5,0,80.9,0,121.4,0
			c64.5,0,129,0,193.6,0c14.9,0,29.7,0,44.6,0c0.9,0,1.6-0.5,1.9-1.1c0.2-0.3,0.3-0.7,0.4-1.2c0.5-12.9,12.7-25.7,25.8-26.2
			C459.6,791,459.8,790.9,460,790.9z M429.3,814.9c-39.8,0-79.6,0-119.3,0c-64.5,0-129,0-193.6,0c-14.2,0-28.3,0-42.5,0
			c-1.7-13.9-13.9-26.5-27.8-28.3c0-23,0-46,0-69.1c0-56.4,0-112.8,0-169.2c0-68.7,0-137.4,0-206c0-59,0-117.9,0-176.9
			c0-19.6,0-39.2,0-58.8c0-8.9,1.3-19,0-27.9c-0.1-0.4,0-0.8,0-1.2c14-1.8,26.1-14.9,27.8-28.7c39.8,0,79.6,0,119.3,0
			c64.5,0,129,0,193.6,0c14.2,0,28.3,0,42.5,0c1.7,14.1,14.3,27.4,28.5,28.8c0,23.7,0,47.3,0,71c0,56.4,0,112.8,0,169.2
			c0,68.7,0,137.4,0,206c0,59,0,117.9,0,176.9c0,19.6,0,39.2,0,58.8c0,8.6-1.2,18.4-0.1,27C443.6,788.1,431.1,800.9,429.3,814.9z"/>
		<path d="M233.4,80.3c0.2,0,0.3,0.1,0.3,0.4c0,0.2,0.3,0.4,1,0.5c0.6,0.1,1.1,0.4,1.5,0.9c0.4,0.5,0.7,1.1,0.7,1.6
			c0,0.5,0.1,1,0.3,1.6c0.2,0.6,0.4,0.9,0.5,0.9c0.1,0,0.2,0.3,0.2,0.8c0,0.6,0.2,1.1,0.5,1.4c0.3,0.3,0.5,0.9,0.8,1.8
			c0.2,0.9,0.3,1.7,0.3,2.5c0,0.9,0.1,1.4,0.4,1.4c0.1,0.1,0.2,0.3,0.2,0.7c0,0.4,0.1,0.6,0.2,0.6c0.2,0.1,0.3,0.6,0.3,1.6
			c0,0.9,0.1,1.4,0.4,1.4c0.2,0,0.4,0.3,0.6,1s0.4,1,0.5,1c0.2,0,0.4,0.3,0.4,0.8c0.1,0.7,0.5,1,1.3,1c0.1,0,0.4,0,0.6-0.1
			c0.5-0.1,0.7-0.4,0.7-1.1c0-0.6,0.1-0.9,0.3-0.9c0.2,0,0.3-0.3,0.3-0.9c0-0.6,0.1-0.9,0.3-0.9c0.2-0.1,0.3-0.6,0.3-1.5
			c0-0.9,0.2-1.6,0.6-1.9c0.5-0.5,0.8-0.7,1.1-0.8c0.3-0.1,0.4-0.5,0.4-1.3c0-0.8,0.1-1.2,0.4-1.4c0.2-0.1,0.4-0.6,0.6-1.5
			c0.2-0.9,0.3-1.4,0.4-1.5c0.3-0.2,0.4-0.5,0.4-0.9c0-0.4,0.2-0.6,0.7-0.7c0.4,0,0.6-0.3,0.6-0.7c0-0.2-0.1-0.6-0.1-1
			c0-1,0.2-1.5,0.6-1.5c0.4,0,0.5-0.3,0.5-0.8c0-0.5,0.2-0.9,0.6-1.4c0.4-0.4,0.9-0.7,1.6-0.8c0.8-0.2,1.2-0.6,1.2-1.4
			c0-0.1,0-0.4-0.1-0.7l-0.1-0.6h-3.7c-2.5,0-3.7,0.1-3.7,0.3c0,0.2-0.1,0.3-0.3,0.3c-0.3,0-0.6,0.2-0.9,0.6
			c-0.4,0.5-0.4,0.7-0.2,0.7c0.3,0,0.5,0.1,0.5,0.4c0.1,0.3,0.5,0.4,1.1,0.4c0.6,0,1,0.2,1.1,0.7c0.1,0.5,0.1,0.7-0.1,0.8
			c-0.2,0.1-0.3,0.5-0.3,1.3c0,0.7-0.1,1.2-0.4,1.3c-0.2,0.1-0.3,0.3-0.3,0.7c0,0.1,0.1,0.2,0.1,0.4c0,0.5-0.1,0.9-0.3,1.4
			c-0.2,0.5-0.4,0.8-0.7,0.8c-0.4,0.1-0.5,0.4-0.5,0.9c0,0.5-0.1,0.9-0.3,1.1c-0.2,0.2-0.4,0.8-0.4,1.7c-0.1,1-0.3,1.5-0.6,1.5
			c-0.4,0-0.5,0.2-0.4,0.5c0,0.2,0,0.4,0,0.4c-0.1,0.1-0.2,0.1-0.4,0.1c-0.4,0-0.7-0.1-0.9-0.2c-0.5-0.3-0.7-1.2-0.8-2.9
			c0-0.7-0.1-1.2-0.4-1.4c-0.2-0.2-0.3-0.7-0.3-1.6c0-1.3-0.3-2.2-0.9-2.6c-0.2-0.1-0.2-0.3,0.1-0.4c0.1,0,0.2-0.2,0.3-0.4
			c0.1-0.2,0.1-0.5,0.1-0.7c0-0.2-0.1-0.3-0.2-0.3c-0.1,0-0.3-0.3-0.4-0.8c-0.1-0.6-0.4-0.9-0.7-0.9c-0.3-0.1-0.4-0.2-0.4-0.3
			c0-0.4,0.5-0.5,1.4-0.5c1.3,0,1.9-0.2,1.9-0.7c0-0.2,0.1-0.4,0.3-0.4c0.2,0,0.1-0.3-0.3-0.8c-0.4-0.5-0.9-0.8-1.6-0.8
			c-0.7,0-1.1-0.1-1.2-0.3c-0.1-0.1-0.3-0.1-0.7,0.1c-0.4,0.2-0.6,0.2-0.7-0.1c-0.2-0.2-0.3-0.3-0.4-0.1c-0.1,0.2-0.5,0.3-1.1,0.3
			c-0.4,0-0.6,0-0.8-0.1c-0.1-0.1-0.2-0.3-0.3-0.7c-0.1-0.5-0.3-0.8-0.7-0.8c-0.2,0-0.5,0.2-0.8,0.5c-0.4,0.4-0.7,0.5-1.2,0.5
			c-0.4,0-0.6,0.1-0.6,0.4c0,0.3-0.1,0.4-0.3,0.4s-0.3,0.2-0.3,0.6C233.1,80.1,233.2,80.3,233.4,80.3z"/>
		<path d="M259.2,102.7c0.3,0,0.6,0.1,0.9,0.4c0.3,0.3,0.5,0.4,0.6,0.2c0.1-0.2,1.5-0.4,4-0.4c2.1,0,3.2,0.1,3.2,0.3
			c0,0.2,0.2,0.3,0.5,0.3c0.4,0,0.6-0.1,0.6-0.2c0-0.1,0.2-0.3,0.6-0.5c0.4-0.2,0.6-0.4,0.6-0.6c0-0.9-0.7-1.4-1.9-1.5l-1.3-0.1
			l0.1-6.7c0.1-4.5,0.2-6.8,0.3-7c0.1-0.1,0.2-0.8,0.3-1.9c0.1-2.1,0.4-3.2,0.7-3.2c0.2,0,0.4-0.1,0.4-0.3c0-0.2,0.2-0.3,0.7-0.3
			c0.4,0,0.8-0.1,1-0.3c0.3-0.2,0.4-0.5,0.4-0.7c0-0.3-0.2-0.6-0.5-0.8c-0.3-0.2-1.4-0.3-3.4-0.3c-2,0-2.9,0.1-2.9,0.3
			c0,0.1-0.3,0.2-0.9,0.2s-0.9,0.1-0.9,0.4s-0.1,0.4-0.3,0.4s-0.3,0.2-0.3,0.6c0,0.5,0.1,0.8,0.4,0.9c0.3,0.1,0.4,0.9,0.4,2.5
			c0,1.6,0.1,2.4,0.3,2.5c0.2,0.1,0.3,0.8,0.3,2.2c0,1.3-0.1,2-0.3,2.1c-0.2,0.1-0.4,1.5-0.4,4.3c-0.1,2.4-0.2,3.9-0.4,4.3
			c-0.2,0.5-0.8,0.8-1.8,0.9c-0.6,0-0.9,0.1-1,0.2c-0.1,0.1-0.2,0.4-0.2,0.8C258.8,102.4,258.9,102.7,259.2,102.7z M265.3,88
			c0.3,0,0.4,0.2,0.4,0.6c0,0.4-0.1,0.5-0.4,0.5c-0.3,0-0.4-0.2-0.4-0.5C264.8,88.2,265,88,265.3,88z M263.6,96
			c0.2,0,0.4,0.1,0.4,0.3c0,0.2-0.1,0.3-0.4,0.3c-0.3,0-0.4-0.1-0.4-0.3C263.2,96.1,263.4,96,263.6,96z"/>
		<path d="M174.4,789.5c0-0.6-0.1-0.9-0.2-1.1c-0.1-0.2-0.3-0.4-0.6-0.5c-0.3-0.1-0.5-0.3-0.5-0.4c-0.1-0.1-0.3-0.3-0.9-0.6
			c-0.5-0.3-1-0.5-1.3-0.6c-0.2-0.1-0.5-0.2-0.9-0.5c-0.4-0.3-0.6-0.4-0.6-0.5c0-0.1-0.1-0.2-0.2-0.3c-0.2-0.1-0.2-0.2-0.2-0.3
			c0,0,0-0.1,0-0.1c0.1-0.1,0.1-0.2,0.1-0.3c0-0.1,0-0.3-0.1-0.6c0-0.1,0-0.2,0-0.2c0,0,0.2-0.1,0.3-0.1c0.3,0,0.4-0.1,0.4-0.2
			c0-0.1,0.1-0.2,0.4-0.4c0.3-0.2,0.4-0.3,0.4-0.3c0-0.1,0.1-0.1,0.4-0.2c0.1,0,0.1,0,0.2,0c0.4,0,0.8,0.2,1.2,0.5
			c0.5,0.3,0.7,0.6,0.7,0.9c0,0.2,0.1,0.4,0.3,0.5c0.2,0.1,0.3,0.3,0.3,0.4c0,0.1,0.1,0.3,0.2,0.5s0.3,0.3,0.4,0.3c0,0,0,0,0.1,0
			c0.1-0.1,0.1-0.7,0.2-2v-0.8c0-0.6-0.1-0.9-0.2-0.9c-0.1,0-0.1,0-0.1,0c-0.3,0.1-0.6,0.2-0.8,0.2c-0.3,0-0.6-0.1-1-0.3
			c-0.4-0.2-0.6-0.3-0.7-0.3c0,0-0.1,0-0.2,0.1c-0.3,0.1-0.6,0.1-0.8,0.1c-0.3,0-0.4,0-0.5,0.1c0,0.1-0.1,0.2-0.3,0.2
			c-0.2,0-0.4-0.1-0.5-0.2c-0.1-0.1-0.3-0.2-0.5-0.2h0c-0.1,0-0.1,0-0.1,0c-0.1,0-0.1,0-0.1,0c0,0,0.1,0,0.1,0
			c0.1,0.1,0.2,0.1,0.2,0.2c0,0.2-0.2,0.3-0.5,0.4c-0.3,0.1-0.4,0.2-0.4,0.4c0.1,0.2,0,0.3-0.2,0.4c-0.3,0.1-0.6,0.5-1.1,1.1
			c-0.1,0.2-0.2,0.4-0.2,0.6c0,0,0,0.3,0.1,0.8c0.1,0.7,0.3,1.1,0.4,1.3c0.1,0.2,0.4,0.4,0.7,0.7c0.4,0.3,0.6,0.4,0.8,0.4
			c0.1,0,0.3,0.1,0.6,0.4c0.4,0.3,0.9,0.6,1.7,0.8c0.5,0.1,0.8,0.3,1.1,0.6c0.2,0.2,0.3,0.4,0.5,0.7c0.1,0.3,0.2,0.5,0.2,0.7
			c0,0.1,0,0.1-0.1,0.2c-0.1,0-0.1,0.2-0.1,0.4c0.1,0.2,0,0.4-0.2,0.6c-0.1,0.1-0.2,0.3-0.2,0.4c0,0.2-0.5,0.4-1.4,0.5
			c-0.1,0-0.3,0-0.6,0c-0.9,0-1.7-0.4-2.2-1.2c-0.3-0.4-0.5-0.8-0.5-1c0,0,0-0.1,0-0.2c0-0.1,0-0.2,0-0.2c0,0-0.1-0.1-0.1-0.1
			c-0.1,0-0.1,0-0.1-0.1c0.1-0.3-0.1-0.5-0.4-0.6c-0.1,0-0.2-0.1-0.3-0.1c-0.3,0-0.4,0.2-0.5,0.5c-0.1,1.2-0.1,1.9-0.2,1.9
			c-0.1,0.1-0.1,0.4-0.2,0.8c0,0.1,0,0.3,0,0.4c0,0.2,0.1,0.4,0.3,0.6c0.1,0.1,0.2,0.2,0.3,0.2c0,0,0.1,0,0.2-0.2
			c0.1-0.2,0.2-0.3,0.2-0.4c0-0.3,0.2-0.3,0.5-0.1c0.9,0.5,1.8,0.7,2.9,0.7c0.5,0,1.1-0.1,1.6-0.2c0.6-0.1,1.1-0.3,1.4-0.6
			c0.3-0.3,0.5-0.5,0.5-0.5c0-0.1,0.1-0.2,0.2-0.3c0.2-0.1,0.3-0.4,0.3-0.9c0.1-0.5,0.1-0.7,0.2-0.7s0.1,0,0-0.1
			S174.4,790.2,174.4,789.5z M170,788C170,788,169.9,787.9,170,788c-0.1-0.1-0.1-0.1,0-0.1C170.1,787.8,170.1,787.9,170,788
			C170.1,787.9,170.1,788,170,788z"/>
		<path d="M168.5,788.7c0-0.1,0-0.2-0.1-0.2c-0.1,0-0.1,0-0.1,0.1l0.1,0.2C168.5,789,168.5,788.9,168.5,788.7z"/>
		<path d="M187.4,782c-0.1-0.1-0.7-0.1-1.8-0.1c-1,0-1.5,0-1.5,0.1c0,0.1-0.2,0.1-0.5,0.1c-0.3,0-0.5,0.1-0.5,0.2
			c0,0.1,0,0.2-0.1,0.2c-0.1,0-0.1,0.1-0.1,0.3c0,0.3,0.1,0.4,0.2,0.5c0.1,0.1,0.2,0.5,0.2,1.3c0,0.8,0,1.2,0.1,1.3
			c0.1,0,0.1,0.4,0.1,1.1c0,0.7,0,1-0.1,1.1c-0.1,0-0.2,0.8-0.2,2.2c0,1.2-0.1,2-0.2,2.2c-0.1,0.2-0.4,0.4-0.9,0.5
			c-0.3,0-0.5,0.1-0.5,0.1c-0.1,0.1-0.1,0.2-0.1,0.4c0,0.3,0.1,0.5,0.2,0.5c0.2,0,0.3,0.1,0.5,0.2c0.2,0.2,0.3,0.2,0.3,0.1
			c0.1-0.1,0.8-0.2,2.1-0.2c1.1,0,1.6,0.1,1.6,0.2c0,0.1,0.1,0.1,0.3,0.1c0.2,0,0.3,0,0.3-0.1c0-0.1,0.1-0.2,0.3-0.3
			c0.2-0.1,0.3-0.2,0.3-0.3c0-0.5-0.4-0.7-1-0.8l-0.6-0.1l0.1-3.5c0-2.3,0.1-3.5,0.2-3.6c0.1-0.1,0.1-0.4,0.1-1
			c0.1-1.1,0.2-1.6,0.4-1.6c0.1,0,0.2,0,0.2-0.1c0-0.1,0.1-0.2,0.4-0.2c0.2,0,0.4-0.1,0.5-0.2c0.1-0.1,0.2-0.2,0.2-0.4
			C187.6,782.3,187.6,782.1,187.4,782z M183.9,790.9c-0.1,0-0.2,0-0.2-0.1s0.1-0.1,0.2-0.1c0.1,0,0.2,0,0.2,0.1
			S184.1,790.9,183.9,790.9z M184.8,787.1c-0.1,0-0.2-0.1-0.2-0.3c0-0.2,0.1-0.3,0.2-0.3c0.1,0,0.2,0.1,0.2,0.3
			C185,787,184.9,787.1,184.8,787.1z"/>
		<path d="M205.4,781.4c-0.8,0-1.2,0.1-1.2,0.2c0,0.1-0.3,0.2-1,0.3c-1,0.1-1.5,0.3-1.5,0.7c0,0.2,0.1,0.4,0.2,0.6
			c0.1,0.2,0.2,0.3,0.3,0.3c0.1,0,0.2,0.1,0.4,0.3c0.1,0.2,0.1,0.4-0.1,0.6c-0.2,0.2-0.2,0.3-0.1,0.3c0.1,0,0,0.1-0.1,0.4
			c-0.1,0.2-0.2,0.4-0.2,0.6c0,0.1-0.1,0.3-0.4,0.6c-0.2,0.3-0.4,0.4-0.4,0.5c0,0.1-0.2,0.2-0.5,0.2c-0.2,0-0.4,0-0.4-0.1
			c-0.1,0-0.1-0.2-0.1-0.4c-0.1-0.3-0.2-0.6-0.4-0.7c-0.2-0.1-0.3-0.3-0.3-0.5c0-0.2-0.1-0.4-0.2-0.5c-0.1-0.1-0.2-0.3-0.3-0.6
			c-0.1-0.4-0.1-0.6-0.1-0.8c0-0.1,0-0.2,0.1-0.3c0.1,0,0.2-0.1,0.4-0.1c0.3,0,0.4-0.1,0.5-0.1c0.1,0,0.1-0.1,0.1-0.3
			c0-0.1,0-0.2,0-0.3l-0.1-0.5l-1.2,0.1c-0.8,0.1-1.2,0.1-1.3,0.2c-0.1,0.1-0.2,0.2-0.4,0.2c-0.2,0-0.3,0-0.3-0.1s-0.1-0.2-0.3-0.3
			c-0.2-0.1-0.4-0.1-0.5-0.1c-0.3,0-0.5,0.1-0.5,0.3c0,0.1-0.1,0.2-0.4,0.2c-0.1,0-0.2,0-0.2,0.1c0.1,0,0.2,0.1,0.2,0.3
			c0,0.2,0.1,0.3,0.2,0.3c0.1,0,0.2,0.1,0.3,0.2c0.1,0.1,0.3,0.2,0.5,0.3c0.3,0.1,0.6,0.2,0.7,0.4c0.1,0.2,0.2,0.3,0.4,0.3
			c0.1,0,0.2,0.1,0.2,0.4c0,0.3,0.1,0.4,0.2,0.4c0.1,0,0.2,0.1,0.2,0.3c0,0.2,0.1,0.4,0.3,0.5c0.1,0.1,0.2,0.2,0.2,0.3
			c0,0.1,0,0.2,0.1,0.3c0.2,0.1,0.3,0.2,0.4,0.5c0.1,0.3,0.2,0.4,0.3,0.4c0.1,0,0.1,0.1,0.1,0.3c0,0.2,0.1,0.3,0.3,0.4
			c0.1,0.1,0.2,0.2,0.2,0.3c0,0.1,0,0.1,0,0.3c0,0.1,0,0.2,0,0.3c0,0.1-0.1,0.2-0.3,0.2c-0.2,0.1-0.3,0.2-0.4,0.5
			c-0.1,0.3-0.1,0.4-0.2,0.4c-0.1,0-0.3,0.2-0.6,0.5c-0.3,0.3-0.4,0.6-0.4,0.7c0,0.2-0.1,0.2-0.2,0.2c-0.1,0-0.2,0.1-0.2,0.2
			c0,0.1-0.1,0.2-0.4,0.4c-0.2,0.1-0.4,0.3-0.4,0.6c0,0.1,0,0.2-0.1,0.3c0,0.1-0.1,0.1-0.2,0.1c-0.1,0-0.3,0-0.6,0.1
			c-0.5,0-0.8,0.1-0.9,0.2c-0.1,0.1-0.2,0.4-0.2,0.8c0,0.3,0.1,0.5,0.2,0.5c0.1,0,0.1-0.1,0.2-0.2c0-0.1,0.6-0.2,1.8-0.2
			c0.7,0,1.2,0,1.4,0c0.2,0,0.3,0.1,0.3,0.2c0,0.2,0,0.2,0.1,0.1c0.1-0.1,0.2-0.2,0.2-0.1c0,0,0,0,0.1,0c0.1,0,0.2-0.1,0.3-0.2
			c0.1-0.1,0.2-0.3,0.3-0.4c0-0.1,0-0.2,0-0.3c-0.1,0-0.2-0.1-0.5-0.1c-0.6-0.1-0.9-0.3-0.9-0.6c0-0.1,0.1-0.2,0.2-0.2
			c0.1,0,0.2-0.1,0.2-0.4c0-0.2,0.1-0.4,0.2-0.4s0.2-0.1,0.2-0.2c0-0.1,0.1-0.3,0.4-0.5c0.3-0.2,0.4-0.4,0.3-0.4v-0.1
			c0-0.3,0.1-0.5,0.2-0.8c0.1-0.2,0.3-0.4,0.5-0.4c0.1,0,0.1,0,0.1,0c0.2,0.1,0.2,0.2,0.2,0.3c0,0.1,0.1,0.3,0.4,0.7
			c0.3,0.4,0.4,0.6,0.4,0.6c0,0.1,0.1,0.2,0.2,0.2c0.1,0.1,0.2,0.2,0.3,0.5c0,0.2,0.1,0.3,0.2,0.4c0.1,0.1,0.2,0.1,0.4,0.2l0.5,0.1
			l-0.5,0.1c-0.3,0.1-0.5,0.2-0.5,0.3c0,0.4-0.2,0.6-0.7,0.6c-0.2,0-0.3,0-0.3,0.1c-0.1,0-0.1,0.1-0.1,0.3v0.4h1.8
			c1.2,0,1.9,0.1,1.9,0.2c0.1,0.1,0.2,0.1,0.3,0c0.1-0.1,0.4-0.2,0.8-0.1l0.5,0.1v-0.5c0-0.2,0-0.4-0.1-0.5
			c-0.1-0.1-0.2-0.2-0.5-0.3c-0.4-0.2-0.6-0.3-0.6-0.3c0,0-0.1-0.1-0.4-0.3c-0.3-0.2-0.4-0.3-0.4-0.4c0-0.2-0.1-0.4-0.2-0.6
			c-0.1-0.2-0.2-0.3-0.3-0.3c-0.1,0-0.2-0.1-0.3-0.4c-0.1-0.3-0.2-0.4-0.3-0.4c-0.1,0-0.2-0.1-0.3-0.3c-0.1-0.2-0.3-0.5-0.7-0.9
			c-0.4-0.4-0.7-0.6-0.8-0.6c-0.1,0-0.1-0.1-0.1-0.2c0-0.4,0.2-0.9,0.6-1.3c0.3-0.3,0.5-0.6,0.5-0.7c0-0.1,0.1-0.3,0.4-0.6
			c0.3-0.3,0.5-0.4,0.6-0.4c0.1,0,0.1-0.1,0.1-0.3c0-0.5,0.1-0.7,0.4-0.7c0.2,0,0.3,0,0.3-0.1c0-0.1,0.1-0.2,0.2-0.4
			c0.2-0.1,0.3-0.2,0.5-0.2c0.2,0,0.3-0.1,0.5-0.3l0.2-0.3l0.1,0.3c0.1,0.2,0.2,0.3,0.3,0.3c0.1,0,0.2-0.1,0.2-0.3
			c0.1-0.2,0.2-0.3,0.4-0.3c0.1,0,0.2,0,0.2-0.1c0-0.1,0.1-0.2,0.1-0.4c0-0.5-0.1-0.8-0.2-0.9C206.6,781.5,206.1,781.4,205.4,781.4z
			 M198.4,782.9c0,0,0,0,0-0.1c0-0.1,0-0.1,0-0.2c0-0.1,0-0.1,0.1,0l0,0.1C198.5,782.8,198.5,782.9,198.4,782.9z M198.7,785.3
			C198.7,785.3,198.7,785.2,198.7,785.3c-0.1-0.1,0-0.1,0-0.1C198.8,785.1,198.8,785.1,198.7,785.3
			C198.8,785.2,198.8,785.3,198.7,785.3z M199,786.2l0-0.1c0-0.1,0-0.1,0-0.1c0-0.1,0-0.1,0.1,0C199.1,786,199.1,786.1,199,786.2z
			 M200.7,789.4c-0.1,0-0.1,0-0.1-0.1c0-0.1,0-0.2,0.1-0.2s0.1,0.1,0.1,0.2C200.8,789.3,200.7,789.4,200.7,789.4z"/>
		<path d="M196.3,785.9c0-0.1,0-0.2-0.1-0.3c-0.1-0.2-0.2-0.2-0.3,0c0,0.1,0,0.2,0.1,0.4l0.2,0.4L196.3,785.9z"/>
		<path d="M238.2,785.7c-0.2-0.1-0.2-0.2-0.2-0.5c0-0.3,0-0.5-0.1-0.5c-0.1,0-0.1-0.1-0.1-0.4s-0.1-0.4-0.2-0.4
			c-0.1,0-0.2-0.1-0.3-0.3c-0.1-0.2-0.2-0.3-0.3-0.4c-0.1-0.1-0.2-0.2-0.2-0.4c0-0.2-0.1-0.3-0.4-0.3c-0.7,0-1-0.1-1-0.4
			c0-0.1-0.1-0.2-0.2-0.2c-0.1,0-0.2,0-0.2-0.1s-0.1-0.1-0.3-0.1c-0.2,0-0.3-0.1-0.4-0.2c0-0.1-0.5-0.2-1.5-0.2
			c-0.9,0-1.5,0.1-1.6,0.2c-0.1,0.1-0.2,0.2-0.4,0.2c-0.2,0-0.3,0.1-0.4,0.3c-0.1,0.2-0.3,0.4-0.6,0.4c-0.3,0-0.6,0.1-1.1,0.2
			c-0.5,0.1-0.7,0.3-0.8,0.5c0,0.2-0.2,0.4-0.5,0.7c-0.3,0.3-0.4,0.5-0.4,0.5c0,0.1-0.1,0.1-0.2,0.1c-0.1,0-0.2,0.1-0.3,0.4
			c-0.1,0.2-0.2,0.5-0.3,0.7c-0.2,0.3-0.2,0.8-0.2,1.8c0,1.2,0.1,2.1,0.4,2.9c0.5,1.4,0.9,2.2,1.2,2.3c0.2,0,0.3,0.1,0.3,0.3
			c0,0.2,0.2,0.2,0.4,0.2c0.2,0,0.4,0,0.4,0.1c0,0.1,0.1,0.1,0.3,0.1s0.3,0.1,0.3,0.4c0,0.2,0,0.3,0.1,0.4c0.1,0.1,0.2,0,0.4-0.1
			c0.1-0.1,0.2-0.1,0.3,0c0.2,0.1,0.9,0.2,2.2,0.2c1.1,0,1.7-0.1,1.7-0.2c0-0.1,0.3-0.2,0.7-0.2c0.4,0,0.6-0.1,0.6-0.2
			c0-0.2,0.1-0.3,0.2-0.3c0,0,0.2-0.1,0.4-0.3c0.3-0.2,0.4-0.3,0.5-0.3c0.1,0,0.2-0.1,0.2-0.3c0.1-0.2,0.2-0.3,0.3-0.3
			c0.1,0,0.2-0.1,0.3-0.3c0-0.2,0.2-0.3,0.4-0.3c0.2-0.1,0.3-0.1,0.3-0.2c0-0.1,0.1-0.1,0.2-0.1c0.1,0,0.2-0.2,0.2-0.6
			c0-0.3,0-0.5-0.1-0.5c-0.1,0-0.1-0.1,0-0.2c0.1-0.1,0.2-0.8,0.2-2.1c0-0.3,0-0.7,0-1.1C238.4,786,238.3,785.7,238.2,785.7z
			 M236,788.8c-0.1,0-0.2,0.2-0.2,0.4c0,0.3-0.1,0.4-0.2,0.5c-0.1,0.1-0.2,0.4-0.3,0.8c-0.1,0.4-0.1,0.6-0.3,0.6
			c-0.1,0-0.2,0-0.2,0.1c0,0.1-0.1,0.2-0.4,0.2c-0.3,0.1-0.4,0.2-0.4,0.3c0,0.1,0,0.2-0.1,0.2c-0.1,0.1-0.2,0.1-0.4,0.2
			c-0.1,0.1-0.2,0.1-0.3,0.1c0,0.1-0.2,0.1-0.4,0.1c-0.2,0-0.3,0.1-0.5,0.2c-0.1,0.1-0.2,0.1-0.4,0.1c-0.2,0-0.4,0-0.7-0.1
			c-0.5-0.1-1-0.3-1.3-0.6c-0.3-0.3-0.7-0.8-1-1.5c-0.3-0.5-0.4-0.9-0.5-1.1c0-0.2-0.1-0.7-0.1-1.4c0-0.7,0-1.1,0.1-1.4
			c0-0.2,0.1-0.5,0.3-0.8c0.3-0.5,0.6-0.9,1-1.3c0.4-0.4,0.8-0.6,1-0.7c0.3,0,0.5-0.1,0.5-0.3c0-0.1,0.1-0.2,0.2-0.2
			c0.1,0,0.2,0,0.2-0.1c0-0.1,0.1-0.1,0.3-0.1c0.2,0,0.3,0,0.3,0.1c0,0.1,0.3,0.1,0.9,0.1c0.5,0,0.8,0.1,0.8,0.2
			c0,0.1,0.1,0.2,0.3,0.3c0.2,0.1,0.3,0.2,0.3,0.3c0,0.1,0.1,0.2,0.3,0.3c0.3,0.1,0.5,0.4,0.5,0.8c0,0.2,0.1,0.5,0.3,0.8
			c0.2,0.3,0.3,0.7,0.3,1.1c0,0.5,0,0.7,0.1,0.8c0.1,0.1,0.1,0.2,0.1,0.4C236.2,788.6,236.1,788.7,236,788.8z"/>
		<path d="M256,783.9c0-0.3-0.1-0.5-0.2-0.6c-0.1-0.1-0.1-0.2,0-0.4c0.1-0.1,0.1-0.2,0.1-0.2c0-0.1-0.1-0.2-0.2-0.2
			s-0.2-0.2-0.2-0.3c0-0.2-0.1-0.3-0.3-0.5c-0.2-0.2-0.4-0.3-0.5-0.3c-0.1,0-0.2,0-0.2,0.1c0,0.1-0.3,0.1-0.9,0.2
			c-0.5,0.1-1.1,0.1-1.7,0.1c-0.6,0-0.9,0-1,0.1c-0.1,0-0.5,0.1-1.4,0.1c-0.9,0.1-1.8,0.2-2.7,0.3c-0.9,0.1-1.4,0.2-1.4,0.2
			c0,0,0,0.1,0,0.2c0,0.1,0,0.2,0.1,0.3c0.1,0.2,0.1,0.3,0.2,0.4s0.3,0.1,0.6,0.1c0.5,0,0.9,0.1,1,0.3c0.1,0.2,0.2,0.7,0.2,1.6
			c0,0.9-0.1,1.4-0.2,1.5c-0.1,0.1-0.1,0.2,0,0.4c0.1,0.3,0.2,0.5,0,0.7c-0.1,0.2-0.2,0.3-0.3,0.3c-0.1,0,0,0.1,0.1,0.2
			c0.1,0.1,0.1,0.3,0.1,0.6c0,0.1,0,0.4-0.1,0.8c-0.1,1.4-0.2,2.3-0.2,2.6c-0.1,0.4-0.1,0.5-0.3,0.6c-0.2,0.1-0.5,0.3-0.8,0.6
			l-0.5,0.6h5v-0.5c0-0.2,0-0.4-0.1-0.4c0-0.1-0.1-0.1-0.3-0.1c-0.2,0-0.4,0-0.4-0.1s-0.1-0.1-0.2-0.1s-0.2-0.1-0.3-0.3
			c0-0.1,0-0.4,0-1.2c0-1.2,0-2.1,0.1-2.8c0-0.1,0.5-0.1,1.4-0.1c0.8,0,1.3,0.1,1.5,0.2c0.3,0.1,0.4,0.4,0.4,0.9
			c0,0.3,0,0.5,0.1,0.5c0.1,0,0.1-0.1,0.3-0.2c0.1-0.1,0.3-0.2,0.5-0.1c0.2,0.1,0.3,0,0.3-0.2c0-0.2,0-0.3,0.1-0.4
			c0.1-0.1,0.1-0.2,0-0.2c-0.1-0.1-0.2-0.3-0.2-0.6c0-0.4,0.1-0.7,0.2-0.8c0.1-0.1,0.1-0.1,0.1-0.2c0-0.1,0-0.1-0.1-0.2
			c-0.1-0.1-0.1-0.2-0.1-0.2c0-0.1,0-0.1,0.1-0.2c0.2-0.1,0.2-0.2,0.2-0.4c0-0.3-0.4-0.4-1.1-0.4c-0.4,0-0.6,0.2-0.6,0.5
			c0,0.1,0,0.2,0.1,0.3c0.1,0.2,0,0.4,0,0.5c-0.1,0.1-0.4,0.2-1,0.3c-0.6,0.1-1.1,0.2-1.6,0.2h-0.5v-0.6c0-0.4,0.1-0.6,0.2-0.7
			c0.1-0.1,0.2-0.2,0.2-0.4c0-0.3-0.1-0.5-0.2-0.8c-0.1-0.2-0.2-0.4-0.2-0.4c0-0.1,0.1-0.1,0.2-0.3c0.2-0.2,0.3-0.4,0.2-0.6
			c0-0.1,0-0.1,0-0.2c0-0.1,0.1-0.2,0.4-0.3c0.3-0.1,0.8-0.1,1.6-0.1c0.7,0,1.1-0.1,1.1-0.1c0.3,0,0.5,0.1,0.7,0.2
			c0.2,0.2,0.3,0.3,0.5,0.4c0.2,0.1,0.3,0.2,0.3,0.3c0,0.1,0.1,0.3,0.3,0.4c0.2,0.1,0.4,0.3,0.5,0.6c0.1,0.4,0.4,0.5,0.8,0.5
			c0.1,0,0.2,0,0.3-0.1c0.1-0.1,0.2-0.2,0.2-0.6c0-0.3-0.1-0.5-0.2-0.5C256,784.4,256,784.2,256,783.9z"/>
		<path d="M285.8,782.2h-1c-0.5,0-0.9,0-1.1-0.1c-0.2-0.1-0.3-0.3-0.3-0.5c0-0.1,0-0.2-0.1-0.2c-0.1,0-0.2,0-0.2,0.1
			c-0.1,0.1-0.3,0.2-0.7,0.2c-0.2,0-0.2,0-0.2-0.1c0-0.1-0.2-0.1-0.7-0.1c-0.5,0-0.8,0.1-0.8,0.2c-0.1,0.1-0.2,0.2-0.4,0.2
			c-0.2,0-0.3,0-0.4,0c-0.1,0-0.1,0-0.2,0c-0.1,0-0.2,0-0.2,0c-0.3,0-0.5,0.1-0.8,0.4c-0.3,0.3-0.5,0.5-0.7,0.5
			c-0.2,0.1-0.4,0.2-0.5,0.5c-0.1,0.3-0.3,0.4-0.6,0.4c-0.5,0.1-0.7,0.4-0.8,1c0,0.2-0.1,0.4-0.2,0.6c-0.1,0.2-0.2,0.5-0.2,0.6
			c0,0.3-0.1,0.4-0.2,0.5c-0.1,0.1-0.1,0.2-0.1,0.4c0,0.2-0.1,0.4-0.2,0.5c-0.1,0.1-0.2,0.6-0.2,1.5c0,1,0.1,1.6,0.2,1.6
			c0.1,0,0.1,0.1,0.1,0.3c0,0.1,0,0.2-0.1,0.2c-0.1,0,0,0.1,0.2,0.4c0.2,0.2,0.4,0.4,0.5,0.4c0.1,0,0.1,0.1,0.2,0.4
			c0.1,0.2,0.3,0.4,0.6,0.8c0.4,0.3,0.6,0.5,0.9,0.6c0.2,0.1,0.2,0.1,0.2,0.2c0,0.1,0.3,0.2,1,0.3c0.6,0.1,1.4,0.1,2.1,0.1
			c1.1,0,1.8-0.1,2-0.3c0.2-0.2,0.5-0.3,0.8-0.4c0.4-0.1,0.7-0.2,0.8-0.5c0.2-0.3,0.4-0.6,0.7-0.9c0.3-0.3,0.5-0.5,0.5-0.6
			c0-0.1-0.1-0.2-0.3-0.3c-0.4-0.2-0.6-0.3-0.8-0.3c-0.1,0-0.2,0.1-0.3,0.3c-0.1,0.3-0.2,0.4-0.4,0.4c-0.2,0-0.4,0.1-0.7,0.4
			c-0.2,0.3-0.4,0.3-0.5,0.2c-0.1-0.1-0.2-0.1-0.4,0.1c-0.1,0.1-0.4,0.2-0.7,0.2c-0.1,0-0.4,0-0.9-0.1c-0.7,0-1.1-0.1-1.3-0.2
			c-0.2-0.1-0.3-0.3-0.3-0.6c0-0.2-0.2-0.5-0.6-0.9c-0.3-0.3-0.5-0.5-0.6-0.7c-0.1-0.2-0.2-0.5-0.3-1c-0.1-0.7-0.2-1.1-0.3-1.1
			c-0.1,0-0.1-0.1-0.1-0.2c0-0.1,0-0.2,0.1-0.3c0.2,0,0.3-0.7,0.3-1.9c0-0.2,0.1-0.3,0.3-0.3c0.2,0,0.3-0.1,0.2-0.3
			c-0.1-0.3,0.1-0.4,0.4-0.6c0.3-0.1,0.5-0.3,0.5-0.4c0-0.1,0.1-0.3,0.3-0.4c0.2-0.1,0.5-0.2,0.7-0.2c0.2,0,0.3-0.1,0.3-0.2
			c0-0.1,0.2-0.2,0.7-0.3c0.1,0,0.1,0,0.2,0c0.1,0,0.1,0,0.2,0c0.6,0,1,0.2,1.2,0.5c0.1,0.2,0.3,0.3,0.6,0.4c0.2,0,0.3,0.1,0.3,0.1
			c0,0.1,0.1,0.1,0,0.3c-0.1,0.2,0,0.3,0.1,0.4c0.1,0.1,0.3,0.4,0.4,1c0.1,0.4,0.1,0.7,0.2,0.8c0.1,0.1,0.2,0.2,0.4,0.3
			c0.3,0.1,0.4,0.2,0.4,0.4c0,0.1,0,0.1,0,0.1c0,0,0.1,0,0.1,0c0.1-0.1,0.2-0.6,0.2-1.6c0-1,0.1-1.6,0.2-1.6c0.1-0.1,0.1-0.3,0-0.8
			L285.8,782.2z"/>
		<path d="M304.1,783h-0.2c-0.4,0-0.8-0.1-1-0.3c-0.2-0.1-0.3-0.2-0.4-0.2c0,0-0.1,0.1-0.1,0.2c0,0.1,0,0.2-0.1,0.2
			c-0.1,0-0.4,0-0.8,0.1c-0.6,0-1,0-1,0.1c-0.1,0.1-0.1,0.3-0.1,0.7l0,0.6l0.8,0.1l0.8,0v2.3c0,1.5,0,2.3,0.1,2.4
			c0.1,0,0.1,0.1-0.1,0.3c-0.1,0.2-0.2,0.4-0.2,0.5v0.2c0,0.3,0,0.6-0.1,0.9c-0.1,0.3-0.2,0.5-0.3,0.5c-0.1,0.1-0.2,0.1-0.2,0.3
			c0,0.1-0.1,0.3-0.3,0.4c-0.2,0.2-0.4,0.2-0.6,0.2c-0.3,0-0.4,0.1-0.5,0.2c-0.1,0.1-0.2,0.2-0.4,0.2c-0.1,0-0.2,0-0.5-0.1
			c-0.5-0.1-0.7-0.1-0.8-0.2c0-0.1-0.2-0.1-0.4-0.1c-0.2,0-0.4-0.1-0.8-0.2c-0.2-0.1-0.3-0.2-0.4-0.3s-0.1-0.2-0.1-0.5V791v-0.3
			c0-0.4,0-0.6-0.1-0.6c-0.1,0-0.2-0.1-0.1-0.3c0-0.2,0.1-0.3,0.2-0.3c0.1-0.1,0.1-0.1,0-0.2c-0.1,0-0.1-0.1-0.1-0.2
			c0-0.1,0-0.2,0-0.3c0-0.1,0.1-0.1,0.1-0.1c0.1,0,0.1-0.3,0.1-0.9c0-0.9-0.1-1.4-0.2-1.5c-0.1-0.1-0.1-0.2,0-0.3
			c0.1-0.1,0.2-0.4,0.2-0.8c0-0.1,0-0.2,0-0.3c0-0.1-0.1-0.2-0.1-0.3c0-0.1,0-0.1,0-0.1c0-0.1,0.5-0.1,1.4-0.1c0.1,0,0.1,0,0.2,0
			c0.1,0,0.1,0,0.2,0h0c0,0,0.1-0.1,0.1-0.2c0-0.1,0-0.3-0.1-0.6c0-0.2-0.1-0.4-0.3-0.5c-0.2-0.1-0.5-0.1-1-0.1
			c-0.1,0-0.6,0-1.5,0.1c-1.4,0.1-2.1,0.2-2.3,0.4c-0.2,0.2-0.2,0.4-0.2,0.5c0,0.4,0.3,0.6,1,0.7c0.5,0.1,0.7,0.2,0.7,0.4
			c0,0.1-0.1,0.2-0.2,0.3c-0.2,0.1-0.2,0.4-0.1,0.7c0.1,0.3,0.1,0.6,0,0.6c-0.1,0.1-0.2,0.1-0.3,0.1c-0.1,0-0.1,0-0.1,0.1
			c0,0.2,0.1,0.4,0.4,0.5c0.2,0.1,0.4,0.2,0.4,0.4c0,0.1-0.1,0.2-0.2,0.3c-0.1,0.1-0.2,0.4-0.2,0.9v0.4c0,0.8,0.1,1.3,0.2,1.3
			c0.1,0.1,0.1,0.2,0.1,0.5c0,0.2,0,0.3-0.1,0.3c-0.1,0-0.1,0.1-0.2,0.4c-0.1,0.3,0,0.4,0.2,0.5c0.1,0.1,0.3,0.3,0.4,0.6
			c0.1,0.3,0.2,0.5,0.3,0.5s0.1,0.1,0.2,0.4c0.1,0.3,0.2,0.4,0.4,0.4c0.2,0,0.4,0,0.5,0.1c0.1,0.1,1,0.2,2.5,0.2
			c1.3,0,1.9-0.1,1.9-0.2s0.1-0.2,0.2-0.2c0.1,0,0.2-0.1,0.3-0.2c0.1-0.1,0.2-0.2,0.4-0.2c0.2,0,0.3-0.1,0.3-0.3
			c0-0.1,0.1-0.2,0.1-0.3c0.1,0,0.2,0,0.5,0h0.1c0.3,0,0.5,0,0.5-0.1c0-0.1-0.1-0.1-0.2-0.2c-0.1-0.1-0.2-0.2-0.2-0.3
			c0-0.2,0.1-0.4,0.2-0.6c0.2-0.2,0.2-0.4,0.1-0.4c-0.1,0-0.2-0.1-0.2-0.2c0-0.1,0-0.2,0.1-0.2c0.1,0,0.2-0.2,0.2-0.4
			c0-0.2,0.1-0.6,0.1-0.9c0-0.4,0-0.6,0-0.6c0-0.1,0-0.5,0.1-1.1c0-0.6,0-1.2,0.1-1.7c0-0.5,0.1-0.8,0.2-0.9c0.1-0.1,0.2-0.2,0-0.2
			c-0.1-0.1-0.2-0.1-0.2-0.2c0-0.1,0.1-0.3,0.3-0.4c0.2-0.1,0.4-0.2,0.6-0.2c0.1,0,0.2,0,0.2,0c0,0,0.1,0,0.2,0
			c0.3,0,0.4-0.1,0.4-0.3c0-0.1,0-0.1-0.1-0.2c-0.1-0.1-0.1-0.2,0-0.2c0.1,0,0.1-0.1,0.1-0.2C305.2,783.1,304.8,783,304.1,783z"/>
		<path d="M318.6,780.6C318.6,780.6,318.7,780.5,318.6,780.6c0.1-0.1,0-0.1-0.2-0.1c-0.2,0-0.3,0.1-0.3,0.2
			C318.2,780.7,318.3,780.7,318.6,780.6C318.5,780.6,318.5,780.6,318.6,780.6z"/>
		<path d="M321.8,782.4c-0.1,0-0.2,0-0.2-0.1s-0.1-0.2-0.4-0.3c-0.3-0.1-0.4-0.3-0.5-0.5l-0.2-0.3c-0.1-0.1-0.2-0.1-0.2,0.1
			c0,0.1-0.3,0.1-0.8,0.1c-0.6,0-0.9,0-0.9-0.1s-0.1-0.1-0.3-0.1c-0.5,0-0.8-0.1-0.8-0.4c0-0.1-0.1-0.2-0.3-0.2s-0.3,0.1-0.2,0.3
			c0,0,0,0,0,0.1c0,0,0,0,0,0.1c0,0.1-0.6,0.2-1.8,0.2h-1.8l-0.5,0.5c-0.3,0.3-0.5,0.5-0.5,0.7c0,0.2,0.2,0.4,0.7,0.4
			c0.2,0,0.3,0,0.3,0.1s0,0.1,0.1,0.1c0.2,0,0.4,0.2,0.6,0.5c0.2,0.3,0.3,0.7,0.3,1.2c0,0.4,0.1,0.6,0.1,0.6c0,0.2-0.1,0.4-0.2,0.5
			c-0.2,0.1-0.2,0.2-0.1,0.3c0.1,0.1,0.2,0.3,0.2,0.7c0,0.3-0.1,0.5-0.2,0.5c-0.2,0-0.2,0,0,0.1c0.1,0.1,0.1,0.3,0,0.6
			c-0.1,0.3-0.1,0.5,0.1,0.6c0.1,0.1,0.1,0.2,0.1,0.3c0,0.2-0.1,0.4-0.2,0.5c-0.1,0.1-0.1,0.6-0.2,1.6l0,1.5l-0.4,0.2
			c-0.2,0.1-0.5,0.2-1.1,0.2c-0.3,0-0.5,0.1-0.5,0.1s-0.1,0.2-0.1,0.4c0,0.2,0.2,0.5,0.6,0.8c0.2,0.1,0.3,0.2,0.5,0.2
			c0.2,0,0.3-0.1,0.3-0.2c0.1-0.1,0.8-0.2,2.1-0.2c1.4-0.1,2.1-0.1,2.2-0.3c0.1-0.1,0.2-0.2,0.3-0.2c0.1,0,0.2-0.1,0.2-0.2
			c0-0.1-0.1-0.2-0.4-0.2c-0.3,0-0.4-0.1-0.5-0.3c0-0.2-0.2-0.3-0.5-0.4c-0.4-0.1-0.5-0.2-0.5-0.4c0-0.1,0-0.2,0.1-0.3
			c0.2-0.2,0.2-0.3,0.1-0.4c-0.1,0-0.2-0.6-0.2-1.6c0-0.3,0-0.6,0-1c0-0.3,0-0.4,0.1-0.5c0-0.1,0.1-0.1,0.2-0.1c0.2,0,0.5,0,0.8,0.1
			c0.3,0.1,0.5,0.2,0.6,0.3c0.1,0.1,0.7,0.2,1.7,0.2c0.8,0,1.2,0,1.2-0.1c0.1-0.1,0-0.2-0.2-0.3c-0.2-0.1-0.4-0.2-0.5-0.4
			c-0.1-0.1-0.2-0.2-0.2-0.2c0,0,0.1-0.1,0.3-0.1c0.3-0.1,0.4-0.1,0.4-0.2s0.1-0.2,0.4-0.3c0.3-0.1,0.4-0.2,0.4-0.4
			c0-0.5,0.1-0.7,0.3-0.7c0.1,0,0.2-0.1,0.4-0.2c0.2-0.2,0.2-0.7,0.2-1.5c0-1-0.1-1.5-0.3-1.7C322.1,782.5,322,782.4,321.8,782.4z
			 M320.2,786.1c0,0-0.1,0.1-0.4,0.1h-0.1c0,0-0.1,0-0.1,0c-0.1,0-0.1,0,0,0.1c0.1,0.1,0.2,0.1,0.2,0.2c0,0.1-0.1,0.3-0.3,0.5
			c-0.2,0.2-0.5,0.3-0.7,0.3c-0.3,0-0.6,0.1-1.1,0.2c-0.1,0-0.2,0-0.3,0c-0.2,0-0.4-0.1-0.7-0.3c-0.2-0.2-0.3-0.3-0.4-0.3
			c0-0.1,0-0.1,0.1-0.2c0.1-0.1,0.2-0.7,0.2-1.6v-1.2c0-0.3,0.1-0.5,0.2-0.7c0.1-0.2,0.3-0.4,0.4-0.4h0.1l0.4,0.1
			c0.3,0,0.5,0.1,0.8,0.1c0.2,0.1,0.4,0.1,0.4,0.1c0,0.1,0.1,0.1,0.4,0.2c0.3,0.1,0.4,0.2,0.4,0.3c0,0.1,0.1,0.3,0.2,0.4
			c0.1,0.1,0.2,0.2,0.1,0.3c-0.1,0.1-0.1,0.3,0.1,0.6c0.1,0.2,0.2,0.4,0.2,0.6C320.4,785.3,320.3,785.6,320.2,786.1z"/>
		<path d="M313.9,779.8c0.2,0,0.3-0.1,0.3-0.2c0-0.1-0.1-0.1-0.3-0.1c-0.2,0-0.3,0-0.3,0.1C313.6,779.7,313.7,779.8,313.9,779.8z"/>
		<path d="M332,788.7c0-0.1,0-0.2-0.1-0.2c-0.1,0-0.1,0-0.1,0.1l0.1,0.2C332,789,332,788.9,332,788.7z"/>
		<path d="M337.9,789.5c0-0.6-0.1-0.9-0.2-1.1c-0.1-0.2-0.3-0.4-0.6-0.5c-0.3-0.1-0.5-0.3-0.5-0.4c-0.1-0.1-0.3-0.3-0.9-0.6
			c-0.5-0.3-1-0.5-1.3-0.6c-0.2-0.1-0.5-0.2-0.9-0.5c-0.4-0.3-0.6-0.4-0.6-0.5c0-0.1-0.1-0.2-0.2-0.3c-0.2-0.1-0.2-0.2-0.2-0.3
			c0,0,0-0.1,0-0.1c0.1-0.1,0.1-0.2,0.1-0.3c0-0.1,0-0.3-0.1-0.6c0-0.1,0-0.2,0-0.2c0,0,0.2-0.1,0.3-0.1c0.3,0,0.4-0.1,0.4-0.2
			c0-0.1,0.1-0.2,0.4-0.4c0.3-0.2,0.4-0.3,0.4-0.3c0-0.1,0.1-0.1,0.4-0.2c0.1,0,0.1,0,0.2,0c0.4,0,0.8,0.2,1.2,0.5
			c0.5,0.3,0.7,0.6,0.7,0.9c0,0.2,0.1,0.4,0.3,0.5c0.2,0.1,0.3,0.3,0.3,0.4c0,0.1,0.1,0.3,0.2,0.5s0.3,0.3,0.4,0.3c0,0,0,0,0.1,0
			c0.1-0.1,0.1-0.7,0.2-2v-0.8c0-0.6-0.1-0.9-0.2-0.9c-0.1,0-0.1,0-0.1,0c-0.3,0.1-0.6,0.2-0.8,0.2c-0.3,0-0.6-0.1-1-0.3
			c-0.4-0.2-0.6-0.3-0.7-0.3c0,0-0.1,0-0.2,0.1c-0.3,0.1-0.6,0.1-0.8,0.1c-0.3,0-0.4,0-0.5,0.1c0,0.1-0.1,0.2-0.3,0.2
			c-0.2,0-0.4-0.1-0.5-0.2c-0.1-0.1-0.3-0.2-0.5-0.2h0c-0.1,0-0.1,0-0.1,0c-0.1,0-0.1,0-0.1,0c0,0,0.1,0,0.1,0
			c0.1,0.1,0.2,0.1,0.2,0.2c0,0.2-0.2,0.3-0.5,0.4c-0.3,0.1-0.4,0.2-0.4,0.4c0.1,0.2,0,0.3-0.2,0.4c-0.3,0.1-0.6,0.5-1.1,1.1
			c-0.1,0.2-0.2,0.4-0.2,0.6c0,0,0,0.3,0.1,0.8c0.1,0.7,0.3,1.1,0.4,1.3c0.1,0.2,0.4,0.4,0.7,0.7c0.4,0.3,0.6,0.4,0.8,0.4
			c0.1,0,0.3,0.1,0.6,0.4c0.4,0.3,0.9,0.6,1.7,0.8c0.5,0.1,0.8,0.3,1.1,0.6c0.2,0.2,0.3,0.4,0.5,0.7c0.1,0.3,0.2,0.5,0.2,0.7
			c0,0.1,0,0.1-0.1,0.2c-0.1,0-0.1,0.2-0.1,0.4c0.1,0.2,0,0.4-0.2,0.6c-0.1,0.1-0.2,0.3-0.2,0.4c0,0.2-0.5,0.4-1.4,0.5
			c-0.1,0-0.3,0-0.6,0c-0.9,0-1.7-0.4-2.2-1.2c-0.3-0.4-0.5-0.8-0.5-1c0,0,0-0.1,0-0.2c0-0.1,0-0.2,0-0.2c0,0-0.1-0.1-0.1-0.1
			c-0.1,0-0.1,0-0.1-0.1c0.1-0.3-0.1-0.5-0.4-0.6c-0.1,0-0.2-0.1-0.3-0.1c-0.3,0-0.4,0.2-0.5,0.5c-0.1,1.2-0.1,1.9-0.2,1.9
			c-0.1,0.1-0.1,0.4-0.2,0.8c0,0.1,0,0.3,0,0.4c0,0.2,0.1,0.4,0.3,0.6c0.1,0.1,0.2,0.2,0.3,0.2c0,0,0.1,0,0.2-0.2
			c0.1-0.2,0.2-0.3,0.2-0.4c0-0.3,0.2-0.3,0.5-0.1c0.9,0.5,1.8,0.7,2.9,0.7c0.5,0,1.1-0.1,1.6-0.2c0.6-0.1,1.1-0.3,1.4-0.6
			c0.3-0.3,0.5-0.5,0.5-0.5c0-0.1,0.1-0.2,0.2-0.3c0.2-0.1,0.3-0.4,0.3-0.9c0.1-0.5,0.1-0.7,0.2-0.7c0.1,0,0.1,0,0-0.1
			C338,790.6,337.9,790.2,337.9,789.5z M333.5,788C333.5,788,333.4,787.9,333.5,788c-0.1-0.1-0.1-0.1,0-0.1
			C333.6,787.8,333.6,787.9,333.5,788C333.6,787.9,333.6,788,333.5,788z"/>
		<polygon points="51.7,808.8 44,814 41.2,799.9 38.4,814 30.7,808.8 35.9,816.5 21.8,819.3 35.9,822 30.7,829.8 38.4,824.6 
			41.2,838.6 43.9,824.6 51.7,829.8 46.5,822 60.5,819.3 46.5,816.5 		"/>
		<polygon points="468.1,816.5 473.3,808.8 465.5,814 462.8,799.9 460,814 452.3,808.8 457.5,816.5 443.4,819.3 457.5,822 
			452.3,829.8 460,824.6 462.8,838.6 465.5,824.6 473.3,829.8 468.1,822 482.1,819.3 		"/>
		<polygon points="30.7,57.5 38.4,52.3 41.2,66.4 44,52.3 51.7,57.5 46.5,49.8 60.5,47 46.5,44.3 51.7,36.5 43.9,41.7 41.2,27.7 
			38.4,41.7 30.7,36.5 35.9,44.3 21.8,47 35.9,49.8 		"/>
		<polygon points="473.3,36.5 465.5,41.7 462.8,27.7 460,41.7 452.3,36.5 457.5,44.3 443.4,47 457.5,49.8 452.3,57.5 460,52.3 
			462.8,66.4 465.5,52.3 473.3,57.5 468.1,49.8 482.1,47 468.1,44.3 		"/>
		<polygon points="239.8,269.8 249.3,263.8 251.8,279.6 254.3,263.8 263.8,269.8 257.8,260.3 273.6,257.8 257.8,255.3 263.8,245.8 
			254.3,251.8 251.8,236 249.3,251.8 239.8,245.8 245.8,255.3 230,257.8 245.8,260.3 		"/>
		<polygon points="258.1,603.5 264.1,594 254.6,600 252.1,584.2 249.7,600 240.2,594 246.2,603.5 230.4,606 246.2,608.5 
			240.2,617.9 249.7,611.9 252.1,627.8 254.6,611.9 264.1,617.9 258.1,608.5 273.9,606 		"/>
		<path d="M116.9,386.9c-0.9-0.4-1.8-0.8-2.7-1.1c-1.1-0.5-1.7-0.5-2-1.5c-0.6-1.9-1.1-3.9-1.6-5.9c0,0,0,0,0-0.1c0,0,0,0,0-0.1
			c-0.1-0.1-0.2-0.2-0.3-0.2c-0.1,0-0.3,0-0.3,0.2c0,0,0,0.1,0,0.1c0,0,0,0,0,0c0,0,0,0,0,0c0,0,0,0,0,0c-0.5,1.9-1,3.9-1.5,5.9
			c-0.5,1.5-3.3,2.1-4.7,2.7c-0.3,0.1-0.5,0.6-0.1,0.7c0.9,0.4,1.8,0.8,2.7,1.2c0.5,0.2,1.1,0.5,1.6,0.7c0.1,0.1,0.2,0.1,0.2,0.1
			c0,0,0,0,0,0.1c1,1.7,1.2,4.2,1.8,6.1c0.1,0.4,0.7,0.4,0.8,0c0.6-1.9,0.9-4.4,1.8-6.1c0,0,0,0,0-0.1c0,0,0.1,0,0.1-0.1
			c0.5-0.3,1.2-0.5,1.7-0.8c0.9-0.4,1.8-0.8,2.7-1.2C117.3,387.5,117.2,387,116.9,386.9z M113.5,388.3c-0.6,0.3-1.5,0.5-1.9,1
			c-0.6,0.8-0.7,2.4-1,3.4c-0.2,0.6-0.3,1.1-0.5,1.7c-0.2-0.6-0.3-1.1-0.5-1.7c-0.3-0.9-0.4-2.6-1-3.4c-0.4-0.6-1.2-0.7-1.9-1
			c-0.7-0.3-1.5-0.7-2.2-1c1.5-0.5,3.5-1.1,4.2-2.2c0.6-1,0.7-2.7,1-3.7c0.1-0.5,0.3-0.9,0.4-1.4c0.1,0.5,0.3,0.9,0.4,1.4
			c0.3,1.1,0.4,2.7,1,3.7c0.6,1.1,2.7,1.7,4.2,2.2C115,387.7,114.2,388,113.5,388.3z"/>
		<path d="M116.9,431.6c-0.9-0.4-1.8-0.8-2.7-1.1c-1.1-0.5-1.7-0.5-2-1.5c-0.6-1.9-1.1-3.9-1.6-5.9c0,0,0,0,0-0.1c0,0,0,0,0-0.1
			c-0.1-0.1-0.2-0.2-0.3-0.2c-0.1,0-0.3,0-0.3,0.2c0,0,0,0.1,0,0.1c0,0,0,0,0,0c0,0,0,0,0,0c0,0,0,0,0,0c-0.5,1.9-1,3.9-1.5,5.9
			c-0.5,1.5-3.3,2.1-4.7,2.7c-0.3,0.1-0.5,0.6-0.1,0.7c0.9,0.4,1.8,0.8,2.7,1.2c0.5,0.2,1.1,0.5,1.6,0.7c0.1,0.1,0.2,0.1,0.2,0.1
			c0,0,0,0,0,0.1c1,1.7,1.2,4.2,1.8,6.1c0.1,0.4,0.7,0.4,0.8,0c0.6-1.9,0.9-4.4,1.8-6.1c0,0,0,0,0-0.1c0,0,0.1,0,0.1-0.1
			c0.5-0.3,1.2-0.5,1.7-0.8c0.9-0.4,1.8-0.8,2.7-1.2C117.3,432.2,117.2,431.7,116.9,431.6z M113.5,433.1c-0.6,0.3-1.5,0.5-1.9,1
			c-0.6,0.8-0.7,2.4-1,3.4c-0.2,0.6-0.3,1.1-0.5,1.7c-0.2-0.6-0.3-1.1-0.5-1.7c-0.3-0.9-0.4-2.6-1-3.4c-0.4-0.6-1.2-0.7-1.9-1
			c-0.7-0.3-1.5-0.7-2.2-1c1.5-0.5,3.5-1.1,4.2-2.2c0.6-1,0.7-2.7,1-3.7c0.1-0.5,0.3-0.9,0.4-1.4c0.1,0.5,0.3,0.9,0.4,1.4
			c0.3,1.1,0.4,2.7,1,3.7c0.6,1.1,2.7,1.7,4.2,2.2C115,432.4,114.2,432.7,113.5,433.1z"/>
		<path d="M116.9,476.4c-0.9-0.4-1.8-0.8-2.7-1.1c-1.1-0.5-1.7-0.5-2-1.5c-0.6-1.9-1.1-3.9-1.6-5.9c0,0,0,0,0-0.1c0,0,0,0,0-0.1
			c-0.1-0.1-0.2-0.2-0.3-0.2c-0.1,0-0.3,0-0.3,0.2c0,0,0,0.1,0,0.1c0,0,0,0,0,0c0,0,0,0,0,0c0,0,0,0,0,0c-0.5,1.9-1,3.9-1.5,5.9
			c-0.5,1.5-3.3,2.1-4.7,2.7c-0.3,0.1-0.5,0.6-0.1,0.7c0.9,0.4,1.8,0.8,2.7,1.2c0.5,0.2,1.1,0.5,1.6,0.7c0.1,0.1,0.2,0.1,0.2,0.1
			c0,0,0,0,0,0.1c1,1.7,1.2,4.2,1.8,6.1c0.1,0.4,0.7,0.4,0.8,0c0.6-1.9,0.9-4.4,1.8-6.1c0,0,0,0,0-0.1c0,0,0.1,0,0.1-0.1
			c0.5-0.3,1.2-0.5,1.7-0.8c0.9-0.4,1.8-0.8,2.7-1.2C117.3,476.9,117.2,476.5,116.9,476.4z M113.5,477.8c-0.6,0.3-1.5,0.5-1.9,1
			c-0.6,0.8-0.7,2.4-1,3.4c-0.2,0.6-0.3,1.1-0.5,1.7c-0.2-0.6-0.3-1.1-0.5-1.7c-0.3-0.9-0.4-2.6-1-3.4c-0.4-0.6-1.2-0.7-1.9-1
			c-0.7-0.3-1.5-0.7-2.2-1c1.5-0.5,3.5-1.1,4.2-2.2c0.6-1,0.7-2.7,1-3.7c0.1-0.5,0.3-0.9,0.4-1.4c0.1,0.5,0.3,0.9,0.4,1.4
			c0.3,1.1,0.4,2.7,1,3.7c0.6,1.1,2.7,1.7,4.2,2.2C115,477.1,114.2,477.5,113.5,477.8z"/>
		<path d="M400.5,386.9c-0.9-0.4-1.8-0.8-2.7-1.1c-1.1-0.5-1.7-0.5-2-1.5c-0.6-1.9-1.1-3.9-1.6-5.9c0,0,0,0,0-0.1c0,0,0,0,0-0.1
			c-0.1-0.1-0.2-0.2-0.3-0.2c-0.1,0-0.3,0-0.3,0.2c0,0,0,0.1,0,0.1c0,0,0,0,0,0c0,0,0,0,0,0c0,0,0,0,0,0c-0.5,1.9-1,3.9-1.5,5.9
			c-0.5,1.5-3.3,2.1-4.7,2.7c-0.3,0.1-0.5,0.6-0.1,0.7c0.9,0.4,1.8,0.8,2.7,1.2c0.5,0.2,1.1,0.5,1.6,0.7c0.1,0.1,0.2,0.1,0.2,0.1
			c0,0,0,0,0,0.1c1,1.7,1.2,4.2,1.8,6.1c0.1,0.4,0.7,0.4,0.8,0c0.6-1.9,0.9-4.4,1.8-6.1c0,0,0,0,0-0.1c0,0,0.1,0,0.1-0.1
			c0.5-0.3,1.2-0.5,1.7-0.8c0.9-0.4,1.8-0.8,2.7-1.2C401,387.5,400.8,387,400.5,386.9z M397.2,388.3c-0.6,0.3-1.5,0.5-1.9,1
			c-0.6,0.8-0.7,2.4-1,3.4c-0.2,0.6-0.3,1.1-0.5,1.7c-0.2-0.6-0.3-1.1-0.5-1.7c-0.3-0.9-0.4-2.6-1-3.4c-0.4-0.6-1.2-0.7-1.9-1
			c-0.7-0.3-1.5-0.7-2.2-1c1.5-0.5,3.5-1.1,4.2-2.2c0.6-1,0.7-2.7,1-3.7c0.1-0.5,0.3-0.9,0.4-1.4c0.1,0.5,0.3,0.9,0.4,1.4
			c0.3,1.1,0.4,2.7,1,3.7c0.6,1.1,2.7,1.7,4.2,2.2C398.6,387.7,397.9,388,397.2,388.3z"/>
		<path d="M400.5,431.6c-0.9-0.4-1.8-0.8-2.7-1.1c-1.1-0.5-1.7-0.5-2-1.5c-0.6-1.9-1.1-3.9-1.6-5.9c0,0,0,0,0-0.1c0,0,0,0,0-0.1
			c-0.1-0.1-0.2-0.2-0.3-0.2c-0.1,0-0.3,0-0.3,0.2c0,0,0,0.1,0,0.1c0,0,0,0,0,0c0,0,0,0,0,0c0,0,0,0,0,0c-0.5,1.9-1,3.9-1.5,5.9
			c-0.5,1.5-3.3,2.1-4.7,2.7c-0.3,0.1-0.5,0.6-0.1,0.7c0.9,0.4,1.8,0.8,2.7,1.2c0.5,0.2,1.1,0.5,1.6,0.7c0.1,0.1,0.2,0.1,0.2,0.1
			c0,0,0,0,0,0.1c1,1.7,1.2,4.2,1.8,6.1c0.1,0.4,0.7,0.4,0.8,0c0.6-1.9,0.9-4.4,1.8-6.1c0,0,0,0,0-0.1c0,0,0.1,0,0.1-0.1
			c0.5-0.3,1.2-0.5,1.7-0.8c0.9-0.4,1.8-0.8,2.7-1.2C401,432.2,400.8,431.7,400.5,431.6z M397.2,433.1c-0.6,0.3-1.5,0.5-1.9,1
			c-0.6,0.8-0.7,2.4-1,3.4c-0.2,0.6-0.3,1.1-0.5,1.7c-0.2-0.6-0.3-1.1-0.5-1.7c-0.3-0.9-0.4-2.6-1-3.4c-0.4-0.6-1.2-0.7-1.9-1
			c-0.7-0.3-1.5-0.7-2.2-1c1.5-0.5,3.5-1.1,4.2-2.2c0.6-1,0.7-2.7,1-3.7c0.1-0.5,0.3-0.9,0.4-1.4c0.1,0.5,0.3,0.9,0.4,1.4
			c0.3,1.1,0.4,2.7,1,3.7c0.6,1.1,2.7,1.7,4.2,2.2C398.6,432.4,397.9,432.7,397.2,433.1z"/>
		<path d="M400.5,476.4c-0.9-0.4-1.8-0.8-2.7-1.1c-1.1-0.5-1.7-0.5-2-1.5c-0.6-1.9-1.1-3.9-1.6-5.9c0,0,0,0,0-0.1c0,0,0,0,0-0.1
			c-0.1-0.1-0.2-0.2-0.3-0.2c-0.1,0-0.3,0-0.3,0.2c0,0,0,0.1,0,0.1c0,0,0,0,0,0c0,0,0,0,0,0c0,0,0,0,0,0c-0.5,1.9-1,3.9-1.5,5.9
			c-0.5,1.5-3.3,2.1-4.7,2.7c-0.3,0.1-0.5,0.6-0.1,0.7c0.9,0.4,1.8,0.8,2.7,1.2c0.5,0.2,1.1,0.5,1.6,0.7c0.1,0.1,0.2,0.1,0.2,0.1
			c0,0,0,0,0,0.1c1,1.7,1.2,4.2,1.8,6.1c0.1,0.4,0.7,0.4,0.8,0c0.6-1.9,0.9-4.4,1.8-6.1c0,0,0,0,0-0.1c0,0,0.1,0,0.1-0.1
			c0.5-0.3,1.2-0.5,1.7-0.8c0.9-0.4,1.8-0.8,2.7-1.2C401,476.9,400.8,476.5,400.5,476.4z M397.2,477.8c-0.6,0.3-1.5,0.5-1.9,1
			c-0.6,0.8-0.7,2.4-1,3.4c-0.2,0.6-0.3,1.1-0.5,1.7c-0.2-0.6-0.3-1.1-0.5-1.7c-0.3-0.9-0.4-2.6-1-3.4c-0.4-0.6-1.2-0.7-1.9-1
			c-0.7-0.3-1.5-0.7-2.2-1c1.5-0.5,3.5-1.1,4.2-2.2c0.6-1,0.7-2.7,1-3.7c0.1-0.5,0.3-0.9,0.4-1.4c0.1,0.5,0.3,0.9,0.4,1.4
			c0.3,1.1,0.4,2.7,1,3.7c0.6,1.1,2.7,1.7,4.2,2.2C398.6,477.1,397.9,477.5,397.2,477.8z"/>
		<path d="M196.8,204.8c-0.5,0-0.9,0.4-0.9,0.9l0,0.2c0,0.5,0.4,0.9,0.9,0.9c0,0,0,0,0,0c0.5,0,0.9-0.4,0.9-0.9l0-0.2
			C197.7,205.2,197.3,204.8,196.8,204.8z"/>
		<path d="M195.6,255.2c0,0.5,0.4,0.9,0.9,0.9c0,0,0,0,0,0c0.5,0,0.9-0.4,0.9-0.9l0-0.4c0-0.5-0.4-0.9-0.9-0.9
			c-0.5,0-0.9,0.4-0.9,0.9L195.6,255.2z"/>
		<path d="M196,215.8c0,0.5,0.4,0.9,0.9,0.9c0,0,0,0,0,0c0.5,0,0.9-0.4,0.9-0.9l0-0.4l-0.6,0l-1.2,0L196,215.8z"/>
		<polygon points="196.9,215.3 197.2,215.3 197.8,215.3 		"/>
		<path d="M196.8,209.5c-0.5,0-0.9,0.4-0.9,0.9l0,0.4c0,0.5,0.4,0.9,0.9,0.9c0,0,0,0,0,0c0.5,0,0.9-0.4,0.9-0.9l0-0.4
			C197.7,209.9,197.3,209.5,196.8,209.5z"/>
		<path d="M196.9,224.3c-0.5,0-0.9,0.4-0.9,0.9l0,0.4c0,0.5,0.4,0.9,0.9,0.9c0,0,0,0,0,0c0.5,0,0.9-0.4,0.9-0.9l0-0.5
			C197.8,224.7,197.4,224.3,196.9,224.3z"/>
		<path d="M196.9,219.4c-0.5,0-0.9,0.4-0.9,0.9l0,0.4c0,0.5,0.4,0.9,0.9,0.9c0,0,0,0,0,0c0.5,0,0.9-0.4,0.9-0.9l0-0.4
			C197.8,219.8,197.4,219.4,196.9,219.4z"/>
		<path d="M195.8,250.3c0,0.5,0.4,0.9,0.9,0.9c0,0,0,0,0,0c0.5,0,0.9-0.4,0.9-0.9l0-0.4c0-0.5-0.4-0.9-0.9-0.9
			c-0.5,0-0.9,0.4-0.9,0.9L195.8,250.3z"/>
		<path d="M192.1,283.9l-0.1,0.4c-0.1,0.5,0.1,1,0.6,1.1c0.1,0,0.2,0,0.2,0c0.4,0,0.7-0.3,0.9-0.6l0.1-0.4c0.1-0.5-0.1-1-0.6-1.1
			C192.7,283.1,192.2,283.4,192.1,283.9z"/>
		<path d="M194,274.3l-0.1,0.4c-0.1,0.5,0.3,0.9,0.8,1c0,0,0.1,0,0.1,0c0.4,0,0.8-0.3,0.9-0.8l0.1-0.4c0.1-0.5-0.3-0.9-0.8-1
			C194.5,273.5,194.1,273.8,194,274.3z"/>
		<path d="M190.6,288.5c-0.1,0.1-0.1,0.3-0.2,0.4c-0.2,0.5,0,1,0.5,1.2c0.1,0,0.2,0.1,0.3,0.1c0.3,0,0.7-0.2,0.8-0.5
			c0.1-0.1,0.1-0.3,0.2-0.4c0.2-0.5,0-1-0.5-1.2C191.3,287.8,190.7,288,190.6,288.5z"/>
		<path d="M195.4,260.1c0,0.5,0.3,0.9,0.8,0.9c0,0,0,0,0.1,0c0.5,0,0.9-0.4,0.9-0.8l0-0.4c0-0.5-0.3-0.9-0.8-0.9
			c-0.5,0-0.9,0.3-0.9,0.8L195.4,260.1z"/>
		<path d="M195,265c0,0.5,0.3,0.9,0.8,1c0,0,0,0,0.1,0c0.5,0,0.9-0.4,0.9-0.8l0-0.4c0-0.5-0.3-0.9-0.8-1c-0.5,0-0.9,0.3-1,0.8
			L195,265z"/>
		<path d="M194.6,269.5l0,0.4c-0.1,0.5,0.3,0.9,0.8,1c0,0,0.1,0,0.1,0c0.4,0,0.8-0.3,0.9-0.8l0-0.4c0.1-0.5-0.3-0.9-0.8-1
			C195.1,268.6,194.7,269,194.6,269.5z"/>
		<path d="M193.2,279.2l-0.1,0.4c-0.1,0.5,0.2,1,0.7,1.1c0.1,0,0.1,0,0.2,0c0.4,0,0.8-0.3,0.9-0.7l0.1-0.4c0.1-0.5-0.2-1-0.7-1
			C193.8,278.4,193.3,278.7,193.2,279.2z"/>
		<path d="M181.5,298.6c-0.1,0-0.3,0.1-0.4,0.1c-0.5,0.2-0.7,0.7-0.6,1.1c0.1,0.4,0.5,0.6,0.8,0.6c0.1,0,0.2,0,0.3,0
			c0.2,0,0.3-0.1,0.5-0.2c0.5-0.2,0.7-0.7,0.5-1.1C182.5,298.7,182,298.5,181.5,298.6z"/>
		<path d="M196.8,244.1c-0.5,0-0.9,0.4-0.9,0.9l0,0.4c0,0.5,0.4,0.9,0.9,0.9c0,0,0,0,0,0c0.5,0,0.9-0.4,0.9-0.9l0-0.4
			C197.7,244.5,197.3,244.1,196.8,244.1z"/>
		<path d="M188.4,292.7c-0.1,0.1-0.2,0.2-0.2,0.4c-0.3,0.4-0.2,1,0.3,1.2c0.2,0.1,0.3,0.1,0.5,0.1c0.3,0,0.6-0.1,0.7-0.4
			c0.1-0.1,0.2-0.3,0.3-0.4c0.3-0.4,0.1-1-0.3-1.2C189.2,292.2,188.7,292.3,188.4,292.7z"/>
		<path d="M176.8,299.4l-0.2,0c-0.5,0-0.9,0.4-0.9,0.9c0,0.5,0.4,0.9,0.9,0.9l0.2,0l0.2,0c0.5,0,0.9-0.4,0.9-0.9
			c0-0.5-0.4-0.9-0.9-0.9L176.8,299.4z"/>
		<path d="M185.4,296.3c-0.1,0.1-0.2,0.2-0.3,0.3c-0.4,0.3-0.4,0.9-0.1,1.3c0.2,0.2,0.4,0.3,0.7,0.3c0.2,0,0.4-0.1,0.6-0.2
			c0.1-0.1,0.2-0.2,0.4-0.3c0.4-0.3,0.4-0.9,0.1-1.3C186.4,296,185.8,296,185.4,296.3z"/>
		<path d="M197.8,235.1c0-0.5-0.4-0.9-0.9-0.9c0,0,0,0,0,0c-0.5,0-0.9,0.4-0.9,0.9l0,0.4c0,0.5,0.4,0.9,0.9,0.9c0,0,0,0,0,0
			c0.5,0,0.9-0.4,0.9-0.9L197.8,235.1z"/>
		<path d="M197.8,230.1c0-0.5-0.4-0.9-0.9-0.9c-0.5,0-0.9,0.4-0.9,0.9v0.4c0,0.5,0.4,0.9,0.9,0.9c0,0,0,0,0,0c0.5,0,0.9-0.4,0.9-0.9
			V230.1z"/>
		<path d="M197.8,240c0-0.5-0.4-0.9-0.9-0.9c-0.5,0-0.9,0.4-0.9,0.9l0,0.4c0,0.5,0.4,0.9,0.9,0.9c0,0,0,0,0,0c0.5,0,0.9-0.4,0.9-0.9
			L197.8,240z"/>
		<path d="M172.2,298.9l-0.2,0c-0.5-0.1-1,0.2-1.1,0.7c-0.1,0.5,0.2,1,0.7,1.1l0.2,0c0.1,0,0.1,0,0.2,0c0.4,0,0.8-0.3,0.9-0.7
			C173,299.5,172.7,299,172.2,298.9z"/>
		<path d="M123,206.8C123,206.8,123,206.8,123,206.8c0.5,0,0.9-0.4,0.9-0.9l0-0.2c0-0.5-0.4-0.9-0.9-0.9c-0.5,0-0.9,0.4-0.9,0.9
			l0,0.2C122.1,206.4,122.5,206.8,123,206.8z"/>
		<path d="M121.4,230.4c0,0.5,0.4,0.9,0.9,0.9c0,0,0,0,0,0c0.5,0,0.9-0.4,0.9-0.9l0-0.4c0-0.5-0.4-0.9-0.9-0.9
			c-0.5,0-0.9,0.4-0.9,0.9L121.4,230.4z"/>
		<path d="M121.3,235.3c0,0.5,0.4,0.9,0.9,0.9c0,0,0,0,0,0c0.5,0,0.9-0.4,0.9-0.9l0-0.4c0-0.5-0.4-0.9-0.9-0.9
			c-0.5,0-0.9,0.4-0.9,0.9L121.3,235.3z"/>
		<path d="M121.2,240.2c0,0.5,0.4,0.9,0.9,0.9h0c0.5,0,0.9-0.4,0.9-0.9l0-0.4c0-0.5-0.4-0.9-0.9-0.9h0c-0.5,0-0.9,0.4-0.9,0.9
			L121.2,240.2z"/>
		<path d="M122.2,246C122.2,246,122.2,246,122.2,246c0.5,0,0.9-0.4,0.9-0.9l0-0.4c0-0.5-0.4-0.9-0.9-0.9c-0.5,0-0.9,0.4-0.9,0.9
			l0,0.4C121.3,245.6,121.7,246,122.2,246z"/>
		<path d="M122.9,211.7C122.9,211.7,123,211.7,122.9,211.7c0.5,0,0.9-0.4,0.9-0.9l0-0.4c0-0.5-0.4-0.9-0.9-0.9c0,0,0,0,0,0
			c-0.5,0-0.9,0.4-0.9,0.9l0,0.4C122.1,211.3,122.5,211.7,122.9,211.7z"/>
		<path d="M122.5,250.9C122.5,250.9,122.5,250.9,122.5,250.9c0.6,0,0.9-0.5,0.9-1l0-0.4c0-0.5-0.5-0.9-1-0.8c-0.5,0-0.9,0.5-0.8,1
			l0,0.4C121.6,250.5,122,250.9,122.5,250.9z"/>
		<path d="M122,215.7c0,0.5,0.4,0.9,0.9,0.9c0,0,0,0,0,0c0.5,0,0.9-0.4,0.9-0.9l0-0.4c0-0.5-0.4-0.9-0.9-0.9c-0.5,0-0.9,0.4-0.9,0.9
			L122,215.7z"/>
		<path d="M121.8,220.6c0,0.5,0.4,0.9,0.9,0.9c0,0,0,0,0,0c0.5,0,0.9-0.4,0.9-0.9l0-0.4c0-0.5-0.4-0.9-0.9-0.9
			c-0.5,0-0.9,0.4-0.9,0.9L121.8,220.6z"/>
		<path d="M121.6,225.5c0,0.5,0.4,0.9,0.9,0.9c0,0,0,0,0,0c0.5,0,0.9-0.4,0.9-0.9l0-0.4c0-0.5-0.4-0.9-0.9-0.9
			c-0.5,0-0.9,0.4-0.9,0.9L121.6,225.5z"/>
		<path d="M132.6,271.5c0.1,0,0.2,0.1,0.3,0.1c0.4,0,0.7-0.2,0.8-0.6c0.2-0.5-0.1-1-0.5-1.2c-0.1,0-0.3-0.1-0.4-0.2
			c-0.5-0.2-1,0-1.2,0.5s0,1,0.5,1.2C132.4,271.4,132.5,271.4,132.6,271.5z"/>
		<path d="M137.7,272.5C137.7,272.5,137.7,272.5,137.7,272.5c0.5,0,0.9-0.4,0.9-0.8c0-0.5-0.4-0.9-0.8-0.9c-0.1,0-0.3,0-0.4,0
			c-0.5,0-0.9,0.3-1,0.8c0,0.5,0.3,0.9,0.8,1C137.4,272.5,137.5,272.5,137.7,272.5z"/>
		<path d="M123,255.7c0,0,0.1,0,0.1,0c0.5-0.1,0.8-0.5,0.7-1l-0.1-0.4c-0.1-0.5-0.5-0.8-1-0.7c-0.5,0.1-0.8,0.5-0.7,1l0.1,0.4
			C122.2,255.4,122.6,255.7,123,255.7z"/>
		<path d="M142.3,272.3c0.2,0,0.3,0,0.5-0.1c0.5-0.1,0.8-0.5,0.8-1s-0.5-0.8-1-0.8c-0.1,0-0.3,0-0.4,0.1c-0.5,0.1-0.8,0.5-0.8,1
			c0.1,0.4,0.4,0.8,0.9,0.8C142.2,272.3,142.3,272.3,142.3,272.3z"/>
		<path d="M123.3,259.9c0.1,0.4,0.5,0.6,0.9,0.6c0.1,0,0.2,0,0.3,0c0.5-0.1,0.7-0.6,0.6-1.1c0-0.1-0.1-0.3-0.1-0.4
			c-0.1-0.5-0.6-0.8-1.1-0.6c-0.5,0.1-0.8,0.6-0.6,1.1C123.2,259.6,123.2,259.7,123.3,259.9z"/>
		<path d="M125.2,264.6c0.2,0.3,0.5,0.5,0.8,0.5c0.1,0,0.3,0,0.4-0.1c0.4-0.2,0.6-0.8,0.4-1.2c-0.1-0.1-0.1-0.2-0.2-0.4
			c-0.2-0.4-0.8-0.6-1.2-0.4c-0.4,0.2-0.6,0.8-0.4,1.2C125,264.3,125.1,264.4,125.2,264.6z"/>
		<path d="M129.5,267.4c-0.1-0.1-0.2-0.2-0.3-0.3c-0.3-0.4-0.9-0.4-1.3,0c-0.4,0.3-0.4,0.9,0,1.3c0.1,0.1,0.2,0.2,0.3,0.3
			c0.2,0.2,0.4,0.2,0.6,0.2c0.2,0,0.5-0.1,0.6-0.3C129.8,268.3,129.8,267.8,129.5,267.4z"/>
		<path d="M147,271.3c0.1,0,0.2,0,0.2,0l0.2-0.1c0.5-0.1,0.8-0.6,0.6-1.1c-0.1-0.5-0.6-0.8-1.1-0.6l-0.2,0.1
			c-0.5,0.1-0.8,0.6-0.6,1.1C146.2,271,146.6,271.3,147,271.3z"/>
		<path d="M122.3,203.7c0,0,2.6,0,4.6,0c2,0,0,31,0,31c0,12.8,7.9,23.9,19.2,28.9c0,0.2-0.1,0.4-0.1,0.6v0.7c0,2.2,1.8,4.1,4,4.1
			c0.1,5.3,0,10-0.4,10.7c-1,1.6-2.9,2-2.9,4.5c0,2.5,1.5,2.9,2.9,4.5c0.3,0.4,0.6,2.2,0.8,4.8H150c-0.8,0-1.4,0.6-1.4,1.4v1.9
			c0,0.8,0.6,1.4,1.4,1.4h0.7c0.3,6.6,0.5,15.3,0.6,21.6c-1.7,0.4-3.1,2.1-3.5,4.4c-6.3,2.6-10.6,6.3-13.6,6.3c-4.6,0-4.8,0-4.8,0
			c-0.1,0-0.2,0.1-0.2,0.2v4.3c0,0.1,0.1,0.2,0.2,0.2H190c0.1,0,0.2-0.1,0.2-0.2v-4.3c0-0.1-0.1-0.2-0.2-0.2c0,0-0.4,0-4.8,0
			c-2.8,0-7.1-3.8-13.6-6.4c-0.5-2.2-1.8-3.9-3.5-4.3c0.2-6.3,0.4-15,0.7-21.6h0.5c0.8,0,1.4-0.6,1.4-1.4V295c0-0.8-0.6-1.4-1.4-1.4
			h-0.2c0.2-2.6,0.4-4.4,0.6-4.8c1-1.6,2.9-1.9,2.9-4.5c0-2.6-1.5-2.9-2.9-4.5c-0.6-0.7-0.7-5.3-0.6-10.7h0.1c2.3,0,4.1-1.9,4.1-4.1
			v-0.7c0-0.2,0-0.4-0.1-0.6c11.3-5.1,19.2-16.1,19.2-28.9c0,0-2.1-31,0-31c2.1,0,4.6,0,4.6,0c1,0,1.8-0.8,1.8-1.8V200
			c0-1-0.8-1.8-1.8-1.8h-74.9c-1,0-1.8,0.8-1.8,1.8v1.9C120.5,202.9,121.3,203.7,122.3,203.7z M159.6,258c-7.3-0.1-13.1-6-13.1-13.3
			c0-0.6,0.1-1.2,0.1-1.8c0.8,6.4,6.3,11.4,13,11.5c6.7,0.1,12.2-4.9,13.1-11.3c0.1,0.6,0.1,1.2,0.1,1.8
			C172.9,252.2,166.9,258.1,159.6,258z M138.8,208.3c0.9-1.1,2-2,3.1-2.6c1.9-1,4.3-1.3,6.3-2.2h22.5c0,0,0,0,0,0.1
			c3.5,0.9,4.6,3.1,5.5,4c1,1,2.8,1.6,4,2c2.4,0.8,5.7,1.1,6.9,4.5c-1.5-2.8-5.1-2.3-8-2.2c-1.4,0.1-2.8-0.1-4-0.5
			c-2-0.7-3.8-2.2-5.7-3.1l8.2,10.6l-11.2-8.6c0.9,2.1,2.5,4,3.3,6.1c0.4,1.2,0.6,2.6,0.5,4c-0.1,2.9-0.5,6.5,2.2,8
			c-3.4-1.2-3.7-4.5-4.5-6.9c-0.4-1.2-1-3-2-4c-0.8-0.9-2.9-1.9-3.9-5.2l-2.2,22.4l-2.2-22.4c-1,3.3-3.1,4.3-3.9,5.2
			c-1,1-1.6,2.8-2,4c-0.8,2.4-1.1,5.7-4.5,6.9c2.8-1.5,2.3-5.1,2.2-8c-0.1-1.4,0.1-2.8,0.5-4c0.8-2.1,2.4-4,3.3-6.1l-11.2,8.6
			l8.6-11.1c-3.1,2-5.5,1.3-6.7,1.4c-1.4,0.1-3,1-4.1,1.6c-2.2,1.3-4.7,3.4-8,2C134.9,213.5,136.9,210.5,138.8,208.3z"/>
		<path d="M233.1,369.4c-0.5,0-0.9,0.4-0.9,0.9l0,0.2c0,0.5,0.4,0.9,0.9,0.9c0,0,0,0,0,0c0.5,0,0.9-0.4,0.9-0.9l0-0.2
			C234,369.8,233.6,369.4,233.1,369.4z"/>
		<path d="M233.7,419.5c0-0.5-0.4-0.9-0.9-0.9c-0.5,0-0.9,0.4-0.9,0.9l0,0.4c0,0.5,0.4,0.9,0.9,0.9c0,0,0,0,0,0
			c0.5,0,0.9-0.4,0.9-0.9L233.7,419.5z"/>
		<path d="M232.3,380.4c0,0.5,0.4,0.9,0.9,0.9c0,0,0,0,0,0c0.5,0,0.9-0.4,0.9-0.9l0-0.4l-0.6,0l-1.2,0L232.3,380.4z"/>
		<polygon points="233.2,380 233.5,380 234.1,379.9 		"/>
		<path d="M233.1,374.1c-0.5,0-0.9,0.4-0.9,0.9l0,0.4c0,0.5,0.4,0.9,0.9,0.9c0,0,0,0,0,0c0.5,0,0.9-0.4,0.9-0.9l0-0.4
			C234,374.5,233.6,374.1,233.1,374.1z"/>
		<path d="M232.3,389.8l0,0.4c0,0.5,0.4,0.9,0.9,0.9c0,0,0,0,0,0c0.5,0,0.9-0.4,0.9-0.9l0-0.4c0-0.5-0.4-0.9-0.9-0.9
			C232.7,388.9,232.3,389.3,232.3,389.8z"/>
		<path d="M233.2,384c-0.5,0-0.9,0.4-0.9,0.9l0,0.4c0,0.5,0.4,0.9,0.9,0.9c0,0,0,0,0,0c0.5,0,0.9-0.4,0.9-0.9l0-0.4
			C234.1,384.4,233.7,384,233.2,384z"/>
		<path d="M233.9,414.5c0-0.5-0.4-0.9-0.9-0.9c-0.5,0-0.9,0.4-0.9,0.9l0,0.4c0,0.5,0.4,0.9,0.9,0.9c0,0,0,0,0,0
			c0.5,0,0.9-0.4,0.9-0.9L233.9,414.5z"/>
		<path d="M229.1,450.1c0.4,0,0.7-0.3,0.9-0.6l0.1-0.4c0.1-0.5-0.1-1-0.6-1.1c-0.5-0.1-1,0.1-1.1,0.6l-0.1,0.4
			c-0.1,0.5,0.1,1,0.6,1.1C229,450,229,450.1,229.1,450.1z"/>
		<path d="M232,439.6l0.1-0.4c0.1-0.5-0.3-0.9-0.8-1c-0.5-0.1-0.9,0.3-1,0.8l-0.1,0.4c-0.1,0.5,0.3,0.9,0.8,1c0,0,0.1,0,0.1,0
			C231.6,440.4,231.9,440.1,232,439.6z"/>
		<path d="M228,452.6c-0.5-0.2-1,0-1.2,0.5c-0.1,0.1-0.1,0.3-0.2,0.4c-0.2,0.5,0,1,0.5,1.2c0.1,0,0.2,0.1,0.3,0.1
			c0.3,0,0.7-0.2,0.8-0.5c0.1-0.1,0.1-0.3,0.2-0.4C228.7,453.3,228.5,452.8,228,452.6z"/>
		<path d="M233.5,424.8l0-0.4c0-0.5-0.3-0.9-0.8-0.9c-0.5,0-0.9,0.3-0.9,0.8l0,0.4c0,0.5,0.3,0.9,0.8,0.9c0,0,0,0,0.1,0
			C233,425.7,233.4,425.3,233.5,424.8z"/>
		<path d="M233.1,429.8l0-0.4c0-0.5-0.3-0.9-0.8-1c-0.5,0-0.9,0.3-1,0.8l0,0.4c0,0.5,0.3,0.9,0.8,1c0,0,0,0,0.1,0
			C232.7,430.6,233.1,430.3,233.1,429.8z"/>
		<path d="M232.6,434.7l0-0.4c0.1-0.5-0.3-0.9-0.8-1c-0.5-0.1-0.9,0.3-1,0.8l0,0.4c-0.1,0.5,0.3,0.9,0.8,1c0,0,0.1,0,0.1,0
			C232.2,435.5,232.6,435.2,232.6,434.7z"/>
		<path d="M231.2,444.6l0.1-0.4c0.1-0.5-0.2-1-0.7-1c-0.5-0.1-1,0.2-1,0.7l-0.1,0.4c-0.1,0.5,0.2,1,0.7,1.1c0.1,0,0.1,0,0.2,0
			C230.7,445.3,231.1,445,231.2,444.6z"/>
		<path d="M217.8,463.2c-0.1,0-0.3,0.1-0.4,0.1c-0.5,0.2-0.7,0.7-0.6,1.1c0.1,0.4,0.5,0.6,0.8,0.6c0.1,0,0.2,0,0.3,0
			c0.2,0,0.3-0.1,0.5-0.2c0.5-0.2,0.7-0.7,0.5-1.1C218.8,463.3,218.3,463.1,217.8,463.2z"/>
		<path d="M234,409.6c0-0.5-0.4-0.9-0.9-0.9c-0.5,0-0.9,0.4-0.9,0.9l0,0.4c0,0.5,0.4,0.9,0.9,0.9c0,0,0,0,0,0c0.5,0,0.9-0.4,0.9-0.9
			L234,409.6z"/>
		<path d="M224.7,457.3c-0.1,0.1-0.2,0.2-0.2,0.4c-0.3,0.4-0.2,1,0.3,1.2c0.2,0.1,0.3,0.1,0.5,0.1c0.3,0,0.6-0.1,0.7-0.4
			c0.1-0.1,0.2-0.3,0.3-0.4c0.3-0.4,0.1-1-0.3-1.2C225.5,456.8,225,456.9,224.7,457.3z"/>
		<path d="M213.1,464l-0.2,0c-0.5,0-0.9,0.4-0.9,0.9c0,0.5,0.4,0.9,0.9,0.9l0.2,0l0.2,0c0.5,0,0.9-0.4,0.9-0.9
			c0-0.5-0.4-0.9-0.9-0.9L213.1,464z"/>
		<path d="M221.7,460.9c-0.1,0.1-0.2,0.2-0.3,0.3c-0.4,0.3-0.4,0.9-0.1,1.3c0.2,0.2,0.4,0.3,0.7,0.3c0.2,0,0.4-0.1,0.6-0.2
			c0.1-0.1,0.2-0.2,0.4-0.3c0.4-0.3,0.4-0.9,0.1-1.3C222.7,460.6,222.1,460.6,221.7,460.9z"/>
		<path d="M234.1,399.7c0-0.5-0.4-0.9-0.9-0.9c0,0,0,0,0,0c-0.5,0-0.9,0.4-0.9,0.9l0,0.4c0,0.5,0.4,0.9,0.9,0.9c0,0,0,0,0,0
			c0.5,0,0.9-0.4,0.9-0.9L234.1,399.7z"/>
		<path d="M234.1,394.8c0-0.5-0.4-0.9-0.9-0.9c-0.5,0-0.9,0.4-0.9,0.9v0.4c0,0.5,0.4,0.9,0.9,0.9h0c0.5,0,0.9-0.4,0.9-0.9V394.8z"/>
		<path d="M234.1,404.6c0-0.5-0.4-0.9-0.9-0.9c-0.5,0-0.9,0.4-0.9,0.9l0,0.4c0,0.5,0.4,0.9,0.9,0.9c0,0,0,0,0,0
			c0.5,0,0.9-0.4,0.9-0.9L234.1,404.6z"/>
		<path d="M208.5,463.5l-0.2,0c-0.5-0.1-1,0.2-1.1,0.7c-0.1,0.5,0.2,1,0.7,1.1l0.2,0c0.1,0,0.1,0,0.2,0c0.4,0,0.8-0.3,0.9-0.7
			C209.3,464.1,209,463.6,208.5,463.5z"/>
		<path d="M159.3,371.4C159.3,371.4,159.3,371.4,159.3,371.4c0.5,0,0.9-0.4,0.9-0.9l0-0.2c0-0.5-0.4-0.9-0.9-0.9
			c-0.5,0-0.9,0.4-0.9,0.9l0,0.2C158.4,371,158.8,371.4,159.3,371.4z"/>
		<path d="M157.7,395c0,0.5,0.4,0.9,0.9,0.9c0,0,0,0,0,0c0.5,0,0.9-0.4,0.9-0.9l0-0.4c0-0.5-0.4-0.9-0.9-0.9c-0.5,0-0.9,0.4-0.9,0.9
			L157.7,395z"/>
		<path d="M157.6,399.9c0,0.5,0.4,0.9,0.9,0.9c0,0,0,0,0,0c0.5,0,0.9-0.4,0.9-0.9l0-0.4c0-0.5-0.4-0.9-0.9-0.9
			c-0.5,0-0.9,0.4-0.9,0.9L157.6,399.9z"/>
		<path d="M157.5,404.8c0,0.5,0.4,0.9,0.9,0.9h0c0.5,0,0.9-0.4,0.9-0.9l0-0.4c0-0.5-0.4-0.9-0.9-0.9c0,0,0,0,0,0
			c-0.5,0-0.9,0.4-0.9,0.9L157.5,404.8z"/>
		<path d="M158.5,410.6C158.5,410.6,158.5,410.6,158.5,410.6c0.5,0,0.9-0.4,0.9-0.9l0-0.4c0-0.5-0.4-0.9-0.9-0.9
			c-0.5,0-0.9,0.4-0.9,0.9l0,0.4C157.6,410.2,158,410.6,158.5,410.6z"/>
		<path d="M159.2,376.3C159.3,376.3,159.3,376.3,159.2,376.3c0.5,0,0.9-0.4,0.9-0.9l0-0.4c0-0.5-0.4-0.9-0.9-0.9c0,0,0,0,0,0
			c-0.5,0-0.9,0.4-0.9,0.9l0,0.4C158.4,375.9,158.8,376.3,159.2,376.3z"/>
		<path d="M158.8,415.5C158.8,415.5,158.8,415.5,158.8,415.5c0.6,0,0.9-0.5,0.9-1l0-0.4c0-0.5-0.5-0.9-1-0.8c-0.5,0-0.9,0.5-0.8,1
			l0,0.4C157.9,415.1,158.3,415.5,158.8,415.5z"/>
		<path d="M158.3,380.3c0,0.5,0.4,0.9,0.9,0.9c0,0,0,0,0,0c0.5,0,0.9-0.4,0.9-0.9l0-0.4c0-0.5-0.4-0.9-0.9-0.9
			c-0.5,0-0.9,0.4-0.9,0.9L158.3,380.3z"/>
		<path d="M158.1,385.2c0,0.5,0.4,0.9,0.9,0.9c0,0,0,0,0,0c0.5,0,0.9-0.4,0.9-0.9l0-0.4c0-0.5-0.4-0.9-0.9-0.9
			c-0.5,0-0.9,0.4-0.9,0.9L158.1,385.2z"/>
		<path d="M157.9,390.1c0,0.5,0.4,0.9,0.9,0.9c0,0,0,0,0,0c0.5,0,0.9-0.4,0.9-0.9l0-0.4c0-0.5-0.4-0.9-0.9-0.9
			c-0.5,0-0.9,0.4-0.9,0.9L157.9,390.1z"/>
		<path d="M168.9,436.1c0.1,0,0.2,0.1,0.3,0.1c0.4,0,0.7-0.2,0.8-0.6c0.2-0.5-0.1-1-0.5-1.2c-0.1,0-0.3-0.1-0.4-0.2
			c-0.5-0.2-1,0-1.2,0.5c-0.2,0.5,0,1,0.5,1.2C168.7,436,168.8,436,168.9,436.1z"/>
		<path d="M174,437.1C174,437.1,174,437.1,174,437.1c0.5,0,0.9-0.4,0.9-0.8c0-0.5-0.4-0.9-0.8-0.9c-0.1,0-0.3,0-0.4,0
			c-0.5,0-0.9,0.3-1,0.8c0,0.5,0.3,0.9,0.8,1C173.7,437.1,173.8,437.1,174,437.1z"/>
		<path d="M159.3,420.4c0,0,0.1,0,0.1,0c0.5-0.1,0.8-0.5,0.7-1l-0.1-0.4c-0.1-0.5-0.5-0.8-1-0.7c-0.5,0.1-0.8,0.5-0.7,1l0.1,0.4
			C158.5,420,158.9,420.4,159.3,420.4z"/>
		<path d="M178.6,436.9c0.2,0,0.3,0,0.5-0.1c0.5-0.1,0.8-0.5,0.8-1c-0.1-0.5-0.5-0.8-1-0.8c-0.1,0-0.3,0-0.4,0.1
			c-0.5,0.1-0.8,0.5-0.8,1c0.1,0.4,0.4,0.8,0.9,0.8C178.5,436.9,178.6,436.9,178.6,436.9z"/>
		<path d="M159.6,424.5c0.1,0.4,0.5,0.6,0.9,0.6c0.1,0,0.2,0,0.3,0c0.5-0.1,0.7-0.6,0.6-1.1c0-0.1-0.1-0.3-0.1-0.4
			c-0.1-0.5-0.6-0.8-1.1-0.6c-0.5,0.1-0.8,0.6-0.6,1.1C159.5,424.2,159.5,424.3,159.6,424.5z"/>
		<path d="M161.5,429.2c0.2,0.3,0.5,0.5,0.8,0.5c0.1,0,0.3,0,0.4-0.1c0.4-0.2,0.6-0.8,0.4-1.2c-0.1-0.1-0.1-0.2-0.2-0.4
			c-0.2-0.4-0.8-0.6-1.2-0.4c-0.4,0.2-0.6,0.8-0.4,1.2C161.3,428.9,161.4,429.1,161.5,429.2z"/>
		<path d="M165.8,432c-0.1-0.1-0.2-0.2-0.3-0.3c-0.3-0.4-0.9-0.4-1.3,0c-0.4,0.3-0.4,0.9,0,1.3c0.1,0.1,0.2,0.2,0.3,0.3
			c0.2,0.2,0.4,0.2,0.6,0.2c0.2,0,0.5-0.1,0.6-0.3C166.1,432.9,166.1,432.4,165.8,432z"/>
		<path d="M183.3,435.9c0.1,0,0.2,0,0.2,0l0.2-0.1c0.5-0.1,0.8-0.6,0.6-1.1c-0.1-0.5-0.6-0.8-1.1-0.6l-0.2,0.1
			c-0.5,0.1-0.8,0.6-0.6,1.1C182.5,435.7,182.9,435.9,183.3,435.9z"/>
		<path d="M235.3,366.6v-1.9c0-1-0.8-1.8-1.8-1.8h-74.9c-1,0-1.8,0.8-1.8,1.8v1.9c0,1,0.8,1.8,1.8,1.8c0,0,2.6,0,4.6,0
			c2,0,0,31,0,31c0,12.8,7.9,23.9,19.2,28.9c0,0.2-0.1,0.4-0.1,0.6v0.7c0,2.2,1.8,4.1,4,4.1c0.1,5.3,0,10-0.4,10.7
			c-1,1.6-2.9,2-2.9,4.5s1.5,2.9,2.9,4.5c0.3,0.4,0.6,2.2,0.8,4.8h-0.4c-0.8,0-1.4,0.6-1.4,1.4v1.9c0,0.8,0.6,1.4,1.4,1.4h0.7
			c0.3,6.6,0.5,15.3,0.6,21.6c-1.7,0.4-3.1,2.1-3.5,4.4c-6.3,2.6-10.6,6.3-13.6,6.3c-4.6,0-4.8,0-4.8,0c-0.1,0-0.2,0.1-0.2,0.2v4.3
			c0,0.1,0.1,0.2,0.2,0.2h60.5c0.1,0,0.2-0.1,0.2-0.2v-4.3c0-0.1-0.1-0.2-0.2-0.2c0,0-0.4,0-4.8,0c-2.8,0-7.1-3.8-13.6-6.4
			c-0.5-2.2-1.8-3.9-3.5-4.3c0.2-6.3,0.4-15,0.7-21.6h0.5c0.8,0,1.4-0.6,1.4-1.4v-1.9c0-0.8-0.6-1.4-1.4-1.4h-0.2
			c0.2-2.6,0.4-4.4,0.6-4.8c1-1.6,2.9-1.9,2.9-4.5c0-2.6-1.5-2.9-2.9-4.5c-0.6-0.7-0.7-5.3-0.6-10.7h0.1c2.3,0,4.1-1.9,4.1-4.1v-0.7
			c0-0.2,0-0.4-0.1-0.6c11.3-5.1,19.2-16.1,19.2-28.9c0,0-2.1-31,0-31c2.1,0,4.6,0,4.6,0C234.5,368.3,235.3,367.5,235.3,366.6z
			 M196,422.6c-7.3-0.1-13.1-6-13.1-13.3c0-0.6,0.1-1.2,0.1-1.8c0.8,6.4,6.3,11.4,13,11.5c6.7,0.1,12.2-4.9,13.1-11.3
			c0.1,0.6,0.1,1.2,0.1,1.8C209.2,416.8,203.2,422.7,196,422.6z M215.4,376.4c-1.4,0.1-2.8-0.1-4-0.5c-2-0.7-3.8-2.2-5.7-3.1
			l8.2,10.6l-11.2-8.6c0.9,2.1,2.5,4,3.3,6.1c0.4,1.2,0.6,2.6,0.5,4c-0.1,2.9-0.5,6.5,2.2,8c-3.4-1.2-3.7-4.5-4.5-6.9
			c-0.4-1.2-1-3-2-4c-0.8-0.9-2.9-1.9-3.9-5.2l-2.2,22.4l-2.2-22.4c-1,3.3-3.1,4.3-3.9,5.2c-1,1-1.6,2.8-2,4
			c-0.8,2.4-1.1,5.7-4.5,6.9c2.8-1.5,2.3-5.1,2.2-8c-0.1-1.4,0.1-2.8,0.5-4c0.8-2.1,2.4-4,3.3-6.1l-11.2,8.6l8.6-11.1
			c-3.1,2-5.5,1.3-6.7,1.4c-1.4,0.1-3,1-4.1,1.6c-2.2,1.3-4.7,3.4-8,2c3.1,0.8,5.2-2.2,7-4.4c0.9-1.1,2-2,3.1-2.6
			c1.9-1,4.3-1.3,6.3-2.2H207c0,0,0,0,0,0.1c3.5,0.9,4.6,3.1,5.5,4c1,1,2.8,1.6,4,2c2.4,0.8,5.7,1.1,6.9,4.5
			C221.9,375.8,218.3,376.3,215.4,376.4z"/>
		<path d="M196.8,535c-0.5,0-0.9,0.4-0.9,0.9l0,0.2c0,0.5,0.4,0.9,0.9,0.9c0,0,0,0,0,0c0.5,0,0.9-0.4,0.9-0.9l0-0.2
			C197.7,535.4,197.3,535,196.8,535z"/>
		<path d="M197.4,585c0-0.5-0.4-0.9-0.9-0.9c-0.5,0-0.9,0.4-0.9,0.9l0,0.4c0,0.5,0.4,0.9,0.9,0.9c0,0,0,0,0,0c0.5,0,0.9-0.4,0.9-0.9
			L197.4,585z"/>
		<path d="M196,546c0,0.5,0.4,0.9,0.9,0.9c0,0,0,0,0,0c0.5,0,0.9-0.4,0.9-0.9l0-0.4l-0.6,0l-1.2,0L196,546z"/>
		<polygon points="196.9,545.5 197.2,545.5 197.8,545.5 		"/>
		<path d="M196.8,539.7c-0.5,0-0.9,0.4-0.9,0.9l0,0.4c0,0.5,0.4,0.9,0.9,0.9c0,0,0,0,0,0c0.5,0,0.9-0.4,0.9-0.9l0-0.4
			C197.7,540.1,197.3,539.7,196.8,539.7z"/>
		<path d="M196,555.4l0,0.4c0,0.5,0.4,0.9,0.9,0.9c0,0,0,0,0,0c0.5,0,0.9-0.4,0.9-0.9l0-0.4c0-0.5-0.4-0.9-0.9-0.9
			C196.4,554.5,196,554.9,196,555.4z"/>
		<path d="M196.9,549.5c-0.5,0-0.9,0.4-0.9,0.9l0,0.4c0,0.5,0.4,0.9,0.9,0.9c0,0,0,0,0,0c0.5,0,0.9-0.4,0.9-0.9l0-0.4
			C197.8,549.9,197.4,549.5,196.9,549.5z"/>
		<path d="M197.6,580.1c0-0.5-0.4-0.9-0.9-0.9c-0.5,0-0.9,0.4-0.9,0.9l0,0.4c0,0.5,0.4,0.9,0.9,0.9c0,0,0,0,0,0
			c0.5,0,0.9-0.4,0.9-0.9L197.6,580.1z"/>
		<path d="M193.2,613.4c-0.5-0.1-1,0.1-1.1,0.6l-0.1,0.4c-0.1,0.5,0.1,1,0.6,1.1c0.1,0,0.2,0,0.2,0c0.4,0,0.7-0.3,0.9-0.6l0.1-0.4
			C193.9,614,193.7,613.6,193.2,613.4z"/>
		<path d="M194,604.5l-0.1,0.4c-0.1,0.5,0.3,0.9,0.8,1c0,0,0.1,0,0.1,0c0.4,0,0.8-0.3,0.9-0.8l0.1-0.4c0.1-0.5-0.3-0.9-0.8-1
			C194.5,603.7,194.1,604,194,604.5z"/>
		<path d="M191.7,618.1c-0.5-0.2-1,0-1.2,0.5c-0.1,0.1-0.1,0.3-0.2,0.4c-0.2,0.5,0,1,0.5,1.2c0.1,0,0.2,0.1,0.3,0.1
			c0.3,0,0.7-0.2,0.8-0.5c0.1-0.1,0.1-0.3,0.2-0.4C192.4,618.8,192.2,618.3,191.7,618.1z"/>
		<path d="M197.1,590.4l0-0.4c0-0.5-0.3-0.9-0.8-0.9c-0.5,0-0.9,0.3-0.9,0.8l0,0.4c0,0.5,0.3,0.9,0.8,0.9c0,0,0,0,0.1,0
			C196.7,591.2,197.1,590.9,197.1,590.4z"/>
		<path d="M196.8,595.3l0-0.4c0-0.5-0.3-0.9-0.8-1c-0.5,0-0.9,0.3-1,0.8l0,0.4c0,0.5,0.3,0.9,0.8,1c0,0,0,0,0.1,0
			C196.4,596.2,196.8,595.8,196.8,595.3z"/>
		<path d="M196.3,600.3l0-0.4c0.1-0.5-0.3-0.9-0.8-1c-0.5-0.1-0.9,0.3-1,0.8l0,0.4c-0.1,0.5,0.3,0.9,0.8,1c0,0,0.1,0,0.1,0
			C195.9,601.1,196.3,600.7,196.3,600.3z"/>
		<path d="M194.9,609.7c0.1-0.5-0.2-1-0.7-1c-0.5-0.1-1,0.2-1,0.7l-0.1,0.4c-0.1,0.5,0.2,1,0.7,1.1c0.1,0,0.1,0,0.2,0
			c0.4,0,0.8-0.3,0.9-0.7L194.9,609.7z"/>
		<path d="M181.5,628.8c-0.1,0-0.3,0.1-0.4,0.1c-0.5,0.2-0.7,0.7-0.6,1.1c0.1,0.4,0.5,0.6,0.8,0.6c0.1,0,0.2,0,0.3,0
			c0.2,0,0.3-0.1,0.5-0.2c0.5-0.2,0.7-0.7,0.5-1.1C182.5,628.8,182,628.6,181.5,628.8z"/>
		<path d="M197.7,575.1c0-0.5-0.4-0.9-0.9-0.9c-0.5,0-0.9,0.4-0.9,0.9l0,0.4c0,0.5,0.4,0.9,0.9,0.9c0,0,0,0,0,0
			c0.5,0,0.9-0.4,0.9-0.9L197.7,575.1z"/>
		<path d="M188.4,622.9c-0.1,0.1-0.2,0.2-0.2,0.4c-0.3,0.4-0.2,1,0.3,1.2c0.2,0.1,0.3,0.1,0.5,0.1c0.3,0,0.6-0.1,0.7-0.4
			c0.1-0.1,0.2-0.3,0.3-0.4c0.3-0.4,0.1-1-0.3-1.2C189.2,622.3,188.7,622.5,188.4,622.9z"/>
		<path d="M176.8,629.5l-0.2,0c-0.5,0-0.9,0.4-0.9,0.9c0,0.5,0.4,0.9,0.9,0.9l0.2,0l0.2,0c0.5,0,0.9-0.4,0.9-0.9
			c0-0.5-0.4-0.9-0.9-0.9L176.8,629.5z"/>
		<path d="M185.4,626.4c-0.1,0.1-0.2,0.2-0.3,0.3c-0.4,0.3-0.4,0.9-0.1,1.3c0.2,0.2,0.4,0.3,0.7,0.3c0.2,0,0.4-0.1,0.6-0.2
			c0.1-0.1,0.2-0.2,0.4-0.3c0.4-0.3,0.4-0.9,0.1-1.3C186.4,626.2,185.8,626.1,185.4,626.4z"/>
		<path d="M197.8,565.2c0-0.5-0.4-0.9-0.9-0.9c0,0,0,0,0,0c-0.5,0-0.9,0.4-0.9,0.9l0,0.4c0,0.5,0.4,0.9,0.9,0.9c0,0,0,0,0,0
			c0.5,0,0.9-0.4,0.9-0.9L197.8,565.2z"/>
		<path d="M197.8,560.3c0-0.5-0.4-0.9-0.9-0.9c-0.5,0-0.9,0.4-0.9,0.9v0.4c0,0.5,0.4,0.9,0.9,0.9c0,0,0,0,0,0c0.5,0,0.9-0.4,0.9-0.9
			V560.3z"/>
		<path d="M197.8,570.2c0-0.5-0.4-0.9-0.9-0.9c-0.5,0-0.9,0.4-0.9,0.9l0,0.4c0,0.5,0.4,0.9,0.9,0.9c0,0,0,0,0,0
			c0.5,0,0.9-0.4,0.9-0.9L197.8,570.2z"/>
		<path d="M172.2,629l-0.2,0c-0.5-0.1-1,0.2-1.1,0.7c-0.1,0.5,0.2,1,0.7,1.1l0.2,0c0.1,0,0.1,0,0.2,0c0.4,0,0.8-0.3,0.9-0.7
			C173,629.6,172.7,629.1,172.2,629z"/>
		<path d="M123,537C123,537,123,537,123,537c0.5,0,0.9-0.4,0.9-0.9l0-0.2c0-0.5-0.4-0.9-0.9-0.9c-0.5,0-0.9,0.4-0.9,0.9l0,0.2
			C122.1,536.6,122.5,537,123,537z"/>
		<path d="M121.4,560.5c0,0.5,0.4,0.9,0.9,0.9c0,0,0,0,0,0c0.5,0,0.9-0.4,0.9-0.9l0-0.4c0-0.5-0.4-0.9-0.9-0.9
			c-0.5,0-0.9,0.4-0.9,0.9L121.4,560.5z"/>
		<path d="M121.3,565.4c0,0.5,0.4,0.9,0.9,0.9c0,0,0,0,0,0c0.5,0,0.9-0.4,0.9-0.9l0-0.4c0-0.5-0.4-0.9-0.9-0.9
			c-0.5,0-0.9,0.4-0.9,0.9L121.3,565.4z"/>
		<path d="M121.2,570.4c0,0.5,0.4,0.9,0.9,0.9h0c0.5,0,0.9-0.4,0.9-0.9l0-0.4c0-0.5-0.4-0.9-0.9-0.9h0c-0.5,0-0.9,0.4-0.9,0.9
			L121.2,570.4z"/>
		<path d="M122.2,576.1C122.2,576.1,122.2,576.1,122.2,576.1c0.5,0,0.9-0.4,0.9-0.9l0-0.4c0-0.5-0.4-0.9-0.9-0.9
			c-0.5,0-0.9,0.4-0.9,0.9l0,0.4C121.3,575.8,121.7,576.1,122.2,576.1z"/>
		<path d="M122.9,541.9C122.9,541.9,123,541.9,122.9,541.9c0.5,0,0.9-0.4,0.9-0.9l0-0.4c0-0.5-0.4-0.9-0.9-0.9c0,0,0,0,0,0
			c-0.5,0-0.9,0.4-0.9,0.9l0,0.4C122.1,541.5,122.5,541.9,122.9,541.9z"/>
		<path d="M122.5,581c0.5,0,0.9-0.5,0.8-1l0-0.4c0-0.5-0.5-0.9-1-0.8c-0.5,0-0.9,0.5-0.8,1l0,0.4C121.6,580.7,122,581,122.5,581
			C122.5,581,122.5,581,122.5,581z"/>
		<path d="M122,545.8c0,0.5,0.4,0.9,0.9,0.9c0,0,0,0,0,0c0.5,0,0.9-0.4,0.9-0.9l0-0.4c0-0.5-0.4-0.9-0.9-0.9c-0.5,0-0.9,0.4-0.9,0.9
			L122,545.8z"/>
		<path d="M121.8,550.7c0,0.5,0.4,0.9,0.9,0.9c0,0,0,0,0,0c0.5,0,0.9-0.4,0.9-0.9l0-0.4c0-0.5-0.4-0.9-0.9-0.9
			c-0.5,0-0.9,0.4-0.9,0.9L121.8,550.7z"/>
		<path d="M121.6,555.6c0,0.5,0.4,0.9,0.9,0.9c0,0,0,0,0,0c0.5,0,0.9-0.4,0.9-0.9l0-0.4c0-0.5-0.4-0.9-0.9-0.9
			c-0.5,0-0.9,0.4-0.9,0.9L121.6,555.6z"/>
		<path d="M132.6,601.6c0.1,0,0.2,0.1,0.3,0.1c0.4,0,0.7-0.2,0.8-0.6c0.2-0.5-0.1-1-0.5-1.2c-0.1,0-0.3-0.1-0.4-0.2
			c-0.5-0.2-1,0-1.2,0.5c-0.2,0.5,0,1,0.5,1.2C132.4,601.5,132.5,601.6,132.6,601.6z"/>
		<path d="M137.7,602.7C137.7,602.7,137.7,602.7,137.7,602.7c0.5,0,0.9-0.4,0.9-0.8c0-0.5-0.4-0.9-0.8-0.9c-0.1,0-0.3,0-0.4,0
			c-0.5,0-0.9,0.3-1,0.8c0,0.5,0.3,0.9,0.8,1C137.4,602.6,137.5,602.7,137.7,602.7z"/>
		<path d="M123.9,584.9l-0.1-0.4c-0.1-0.5-0.5-0.8-1-0.7c-0.5,0.1-0.8,0.5-0.7,1l0.1,0.4c0.1,0.4,0.5,0.7,0.9,0.7c0,0,0.1,0,0.1,0
			C123.7,585.8,124,585.3,123.9,584.9z"/>
		<path d="M142.3,602.5c0.2,0,0.3,0,0.5-0.1c0.5-0.1,0.8-0.5,0.8-1c-0.1-0.5-0.5-0.8-1-0.8c-0.1,0-0.3,0-0.4,0.1
			c-0.5,0.1-0.8,0.5-0.8,1c0.1,0.4,0.4,0.8,0.9,0.8C142.2,602.5,142.3,602.5,142.3,602.5z"/>
		<path d="M125,589.5c0-0.1-0.1-0.3-0.1-0.4c-0.1-0.5-0.6-0.8-1.1-0.6c-0.5,0.1-0.8,0.6-0.6,1.1c0,0.1,0.1,0.3,0.1,0.4
			c0.1,0.4,0.5,0.6,0.9,0.6c0.1,0,0.2,0,0.3,0C124.9,590.5,125.1,590,125,589.5z"/>
		<path d="M126.5,593.5c-0.2-0.4-0.8-0.6-1.2-0.4c-0.4,0.2-0.6,0.8-0.4,1.2c0.1,0.1,0.1,0.3,0.2,0.4c0.2,0.3,0.5,0.5,0.8,0.5
			c0.1,0,0.3,0,0.4-0.1c0.4-0.2,0.6-0.8,0.4-1.2C126.7,593.8,126.6,593.6,126.5,593.5z"/>
		<path d="M129.5,597.6c-0.1-0.1-0.2-0.2-0.3-0.3c-0.3-0.4-0.9-0.4-1.3,0c-0.4,0.3-0.4,0.9,0,1.3c0.1,0.1,0.2,0.2,0.3,0.3
			c0.2,0.2,0.4,0.2,0.6,0.2c0.2,0,0.5-0.1,0.6-0.3C129.8,598.5,129.8,597.9,129.5,597.6z"/>
		<path d="M147,601.5c0.1,0,0.2,0,0.2,0l0.2-0.1c0.5-0.1,0.8-0.6,0.6-1.1c-0.1-0.5-0.6-0.8-1.1-0.6l-0.2,0.1
			c-0.5,0.1-0.8,0.6-0.6,1.1C146.2,601.2,146.6,601.5,147,601.5z"/>
		<path d="M190,660.8c0,0-0.4,0-4.8,0c-2.8,0-7.1-3.8-13.6-6.4c-0.5-2.2-1.8-3.9-3.5-4.3c0.2-6.3,0.4-15,0.7-21.6h0.5
			c0.8,0,1.4-0.6,1.4-1.4v-1.9c0-0.8-0.6-1.4-1.4-1.4h-0.2c0.2-2.6,0.4-4.4,0.6-4.8c1-1.6,2.9-1.9,2.9-4.5c0-2.6-1.5-2.9-2.9-4.5
			c-0.6-0.7-0.7-5.3-0.6-10.7h0.1c2.3,0,4.1-1.9,4.1-4.1v-0.7c0-0.2,0-0.4-0.1-0.6c11.3-5.1,19.2-16.1,19.2-28.9c0,0-2.1-31,0-31
			c2.1,0,4.6,0,4.6,0c1,0,1.8-0.8,1.8-1.8v-1.9c0-1-0.8-1.8-1.8-1.8h-74.9c-1,0-1.8,0.8-1.8,1.8v1.9c0,1,0.8,1.8,1.8,1.8
			c0,0,2.6,0,4.6,0c2,0,0,31,0,31c0,12.8,7.9,23.9,19.2,28.9c0,0.2-0.1,0.4-0.1,0.6v0.7c0,2.2,1.8,4.1,4,4.1c0.1,5.3,0,10-0.4,10.7
			c-1,1.6-2.9,2-2.9,4.5c0,2.5,1.5,2.9,2.9,4.5c0.3,0.4,0.6,2.2,0.8,4.8H150c-0.8,0-1.4,0.6-1.4,1.4v1.9c0,0.8,0.6,1.4,1.4,1.4h0.7
			c0.3,6.6,0.5,15.3,0.6,21.6c-1.7,0.4-3.1,2.1-3.5,4.4c-6.3,2.6-10.6,6.3-13.6,6.3c-4.6,0-4.8,0-4.8,0c-0.1,0-0.2,0.1-0.2,0.2v4.3
			c0,0.1,0.1,0.2,0.2,0.2H190c0.1,0,0.2-0.1,0.2-0.2V661C190.2,660.9,190.1,660.8,190,660.8z M142,548.9l8.6-11.1
			c-3.1,2-5.5,1.3-6.7,1.4c-1.4,0.1-3,1-4.1,1.6c-2.2,1.3-4.7,3.4-8,2c3.1,0.8,5.2-2.2,7-4.4c0.9-1.1,2-2,3.1-2.6
			c1.9-1,4.3-1.3,6.3-2.2h22.5c0,0,0,0,0,0.1c3.5,0.9,4.6,3.1,5.5,4c1,1,2.8,1.6,4,2c2.4,0.8,5.7,1.1,6.9,4.5
			c-1.5-2.8-5.1-2.3-8-2.2c-1.4,0.1-2.8-0.1-4-0.5c-2-0.7-3.8-2.2-5.7-3.1l8.2,10.6l-11.2-8.6c0.9,2.1,2.5,4,3.3,6.1
			c0.4,1.2,0.6,2.6,0.5,4c-0.1,2.9-0.5,6.5,2.2,8c-3.4-1.2-3.7-4.5-4.5-6.9c-0.4-1.2-1-3-2-4c-0.8-0.9-2.9-1.9-3.9-5.2l-2.2,22.4
			l-2.2-22.4c-1,3.3-3.1,4.3-3.9,5.2c-1,1-1.6,2.8-2,4c-0.8,2.4-1.1,5.7-4.5,6.9c2.8-1.5,2.3-5.1,2.2-8c-0.1-1.4,0.1-2.8,0.5-4
			c0.8-2.1,2.4-4,3.3-6.1L142,548.9z M146.6,574.9c0-0.6,0.1-1.2,0.1-1.8c0.8,6.4,6.3,11.4,13,11.5c6.7,0.1,12.2-4.9,13.1-11.3
			c0.1,0.6,0.1,1.2,0.1,1.8c-0.1,7.3-6,13.1-13.3,13.1C152.4,588.1,146.5,582.2,146.6,574.9z"/>
		<path d="M381.2,204.8c-0.5,0-0.9,0.4-0.9,0.9l0,0.2c0,0.5,0.4,0.9,0.9,0.9c0,0,0,0,0,0c0.5,0,0.9-0.4,0.9-0.9l0-0.2
			C382.1,205.2,381.7,204.8,381.2,204.8z"/>
		<path d="M380.1,255.2c0,0.5,0.4,0.9,0.9,0.9c0,0,0,0,0,0c0.5,0,0.9-0.4,0.9-0.9l0-0.4c0-0.5-0.4-0.9-0.9-0.9
			c-0.5,0-0.9,0.4-0.9,0.9L380.1,255.2z"/>
		<path d="M380.4,215.8c0,0.5,0.4,0.9,0.9,0.9c0,0,0,0,0,0c0.5,0,0.9-0.4,0.9-0.9l0-0.4l-0.6,0l-1.2,0L380.4,215.8z"/>
		<polygon points="381.3,215.3 381.6,215.3 382.2,215.3 		"/>
		<path d="M381.3,209.5c-0.5,0-0.9,0.4-0.9,0.9l0,0.4c0,0.5,0.4,0.9,0.9,0.9c0,0,0,0,0,0c0.5,0,0.9-0.4,0.9-0.9l0-0.4
			C382.2,209.9,381.8,209.5,381.3,209.5z"/>
		<path d="M381.4,224.3c-0.5,0-0.9,0.4-0.9,0.9l0,0.4c0,0.5,0.4,0.9,0.9,0.9c0,0,0,0,0,0c0.5,0,0.9-0.4,0.9-0.9l0-0.5
			C382.3,224.7,381.9,224.3,381.4,224.3z"/>
		<path d="M381.3,219.4c-0.5,0-0.9,0.4-0.9,0.9l0,0.4c0,0.5,0.4,0.9,0.9,0.9c0,0,0,0,0,0c0.5,0,0.9-0.4,0.9-0.9l0-0.4
			C382.2,219.8,381.8,219.4,381.3,219.4z"/>
		<path d="M380.3,250.3c0,0.5,0.4,0.9,0.9,0.9c0,0,0,0,0,0c0.5,0,0.9-0.4,0.9-0.9l0-0.4c0-0.5-0.4-0.9-0.9-0.9
			c-0.5,0-0.9,0.4-0.9,0.9L380.3,250.3z"/>
		<path d="M376.5,283.9l-0.1,0.4c-0.1,0.5,0.1,1,0.6,1.1c0.1,0,0.2,0,0.2,0c0.4,0,0.7-0.3,0.9-0.6l0.1-0.4c0.1-0.5-0.1-1-0.6-1.1
			C377.2,283.1,376.7,283.4,376.5,283.9z"/>
		<path d="M378.5,274.3l-0.1,0.4c-0.1,0.5,0.3,0.9,0.8,1c0,0,0.1,0,0.1,0c0.4,0,0.8-0.3,0.9-0.8l0.1-0.4c0.1-0.5-0.3-0.9-0.8-1
			C379,273.5,378.5,273.8,378.5,274.3z"/>
		<path d="M375,288.5c-0.1,0.1-0.1,0.3-0.2,0.4c-0.2,0.5,0,1,0.5,1.2c0.1,0,0.2,0.1,0.3,0.1c0.3,0,0.7-0.2,0.8-0.5
			c0.1-0.1,0.1-0.3,0.2-0.4c0.2-0.5,0-1-0.5-1.2C375.7,287.8,375.2,288,375,288.5z"/>
		<path d="M379.8,260.1c0,0.5,0.3,0.9,0.8,0.9c0,0,0,0,0.1,0c0.5,0,0.9-0.4,0.9-0.8l0-0.4c0-0.5-0.3-0.9-0.8-0.9
			c-0.5,0-0.9,0.3-0.9,0.8L379.8,260.1z"/>
		<path d="M379.5,265c0,0.5,0.3,0.9,0.8,1c0,0,0,0,0.1,0c0.5,0,0.9-0.4,0.9-0.8l0-0.4c0-0.5-0.3-0.9-0.8-1c-0.5,0-0.9,0.3-1,0.8
			L379.5,265z"/>
		<path d="M379.1,269.5l0,0.4c-0.1,0.5,0.3,0.9,0.8,1c0,0,0.1,0,0.1,0c0.4,0,0.8-0.3,0.9-0.8l0-0.4c0.1-0.5-0.3-0.9-0.8-1
			C379.6,268.6,379.1,269,379.1,269.5z"/>
		<path d="M377.7,279.2l-0.1,0.4c-0.1,0.5,0.2,1,0.7,1.1c0.1,0,0.1,0,0.2,0c0.4,0,0.8-0.3,0.9-0.7l0.1-0.4c0.1-0.5-0.2-1-0.7-1
			C378.2,278.4,377.7,278.7,377.7,279.2z"/>
		<path d="M366,298.6c-0.1,0-0.3,0.1-0.4,0.1c-0.5,0.2-0.7,0.7-0.6,1.1c0.1,0.4,0.5,0.6,0.8,0.6c0.1,0,0.2,0,0.3,0
			c0.2,0,0.3-0.1,0.5-0.2c0.5-0.2,0.7-0.7,0.5-1.1C367,298.7,366.5,298.5,366,298.6z"/>
		<path d="M381.3,244.1c-0.5,0-0.9,0.4-0.9,0.9l0,0.4c0,0.5,0.4,0.9,0.9,0.9c0,0,0,0,0,0c0.5,0,0.9-0.4,0.9-0.9l0-0.4
			C382.2,244.5,381.8,244.1,381.3,244.1z"/>
		<path d="M372.9,292.7c-0.1,0.1-0.2,0.2-0.2,0.4c-0.3,0.4-0.2,1,0.3,1.2c0.2,0.1,0.3,0.1,0.5,0.1c0.3,0,0.6-0.1,0.7-0.4
			c0.1-0.1,0.2-0.3,0.3-0.4c0.3-0.4,0.1-1-0.3-1.2C373.7,292.2,373.1,292.3,372.9,292.7z"/>
		<path d="M361.2,299.4l-0.2,0c-0.5,0-0.9,0.4-0.9,0.9c0,0.5,0.4,0.9,0.9,0.9l0.2,0l0.2,0c0.5,0,0.9-0.4,0.9-0.9
			c0-0.5-0.4-0.9-0.9-0.9L361.2,299.4z"/>
		<path d="M369.9,296.3c-0.1,0.1-0.2,0.2-0.3,0.3c-0.4,0.3-0.4,0.9-0.1,1.3c0.2,0.2,0.4,0.3,0.7,0.3c0.2,0,0.4-0.1,0.6-0.2
			c0.1-0.1,0.2-0.2,0.4-0.3c0.4-0.3,0.4-0.9,0.1-1.3C370.8,296,370.3,296,369.9,296.3z"/>
		<path d="M382.3,235.1c0-0.5-0.4-0.9-0.9-0.9c0,0,0,0,0,0c-0.5,0-0.9,0.4-0.9,0.9l0,0.4c0,0.5,0.4,0.9,0.9,0.9c0,0,0,0,0,0
			c0.5,0,0.9-0.4,0.9-0.9L382.3,235.1z"/>
		<path d="M382.3,230.1c0-0.5-0.4-0.9-0.9-0.9c-0.5,0-0.9,0.4-0.9,0.9v0.4c0,0.5,0.4,0.9,0.9,0.9h0c0.5,0,0.9-0.4,0.9-0.9V230.1z"/>
		<path d="M382.2,240c0-0.5-0.4-0.9-0.9-0.9c-0.5,0-0.9,0.4-0.9,0.9l0,0.4c0,0.5,0.4,0.9,0.9,0.9c0,0,0,0,0,0c0.5,0,0.9-0.4,0.9-0.9
			L382.2,240z"/>
		<path d="M356.7,298.9l-0.2,0c-0.5-0.1-1,0.2-1.1,0.7c-0.1,0.5,0.2,1,0.7,1.1l0.2,0c0.1,0,0.1,0,0.2,0c0.4,0,0.8-0.3,0.9-0.7
			C357.5,299.5,357.2,299,356.7,298.9z"/>
		<path d="M307.4,206.8C307.4,206.8,307.4,206.8,307.4,206.8c0.5,0,0.9-0.4,0.9-0.9l0-0.2c0-0.5-0.4-0.9-0.9-0.9
			c-0.5,0-0.9,0.4-0.9,0.9l0,0.2C306.5,206.4,306.9,206.8,307.4,206.8z"/>
		<path d="M305.9,230.4c0,0.5,0.4,0.9,0.9,0.9c0,0,0,0,0,0c0.5,0,0.9-0.4,0.9-0.9l0-0.4c0-0.5-0.4-0.9-0.9-0.9
			c-0.5,0-0.9,0.4-0.9,0.9L305.9,230.4z"/>
		<path d="M305.7,235.3c0,0.5,0.4,0.9,0.9,0.9c0,0,0,0,0,0c0.5,0,0.9-0.4,0.9-0.9l0-0.4c0-0.5-0.4-0.9-0.9-0.9
			c-0.5,0-0.9,0.4-0.9,0.9L305.7,235.3z"/>
		<path d="M305.7,240.2c0,0.5,0.4,0.9,0.9,0.9h0c0.5,0,0.9-0.4,0.9-0.9l0-0.4c0-0.5-0.4-0.9-0.9-0.9c0,0,0,0,0,0
			c-0.5,0-0.9,0.4-0.9,0.9L305.7,240.2z"/>
		<path d="M306.7,246c0.5,0,0.9-0.4,0.9-0.9l0-0.4c0-0.5-0.4-0.9-0.9-0.9c-0.5,0-0.9,0.4-0.9,0.9l0,0.4
			C305.8,245.6,306.2,246,306.7,246C306.6,246,306.7,246,306.7,246z"/>
		<path d="M307.4,211.7C307.4,211.7,307.4,211.7,307.4,211.7c0.5,0,0.9-0.4,0.9-0.9l0-0.4c0-0.5-0.4-0.9-0.9-0.9c0,0,0,0,0,0
			c-0.5,0-0.9,0.4-0.9,0.9l0,0.4C306.5,211.3,306.9,211.7,307.4,211.7z"/>
		<path d="M306.9,250.9C306.9,250.9,307,250.9,306.9,250.9c0.6,0,0.9-0.5,0.9-1l0-0.4c0-0.5-0.5-0.9-1-0.8c-0.5,0-0.9,0.5-0.8,1
			l0,0.4C306.1,250.5,306.5,250.9,306.9,250.9z"/>
		<path d="M306.4,215.7c0,0.5,0.4,0.9,0.9,0.9c0,0,0,0,0,0c0.5,0,0.9-0.4,0.9-0.9l0-0.4c0-0.5-0.4-0.9-0.9-0.9
			c-0.5,0-0.9,0.4-0.9,0.9L306.4,215.7z"/>
		<path d="M306.3,220.6c0,0.5,0.4,0.9,0.9,0.9c0,0,0,0,0,0c0.5,0,0.9-0.4,0.9-0.9l0-0.4c0-0.5-0.4-0.9-0.9-0.9
			c-0.5,0-0.9,0.4-0.9,0.9L306.3,220.6z"/>
		<path d="M306.1,225.5c0,0.5,0.4,0.9,0.9,0.9c0,0,0,0,0,0c0.5,0,0.9-0.4,0.9-0.9l0-0.4c0-0.5-0.4-0.9-0.9-0.9
			c-0.5,0-0.9,0.4-0.9,0.9L306.1,225.5z"/>
		<path d="M317.1,271.5c0.1,0,0.2,0.1,0.3,0.1c0.4,0,0.7-0.2,0.8-0.6c0.2-0.5-0.1-1-0.5-1.2c-0.1,0-0.3-0.1-0.4-0.2
			c-0.5-0.2-1,0-1.2,0.5c-0.2,0.5,0,1,0.5,1.2C316.8,271.4,317,271.4,317.1,271.5z"/>
		<path d="M322.2,272.5C322.2,272.5,322.2,272.5,322.2,272.5c0.5,0,0.9-0.4,0.9-0.8c0-0.5-0.4-0.9-0.8-0.9c-0.1,0-0.3,0-0.4,0
			c-0.5,0-0.9,0.3-1,0.8c0,0.5,0.3,0.9,0.8,1C321.8,272.5,322,272.5,322.2,272.5z"/>
		<path d="M307.3,253.5c-0.5,0.1-0.8,0.5-0.7,1l0.1,0.4c0.1,0.4,0.5,0.7,0.9,0.7c0,0,0.1,0,0.1,0c0.5-0.1,0.8-0.5,0.7-1l-0.1-0.4
			C308.2,253.8,307.8,253.5,307.3,253.5z"/>
		<path d="M326.8,272.3c0.2,0,0.3,0,0.5-0.1c0.5-0.1,0.8-0.5,0.8-1c-0.1-0.5-0.5-0.8-1-0.8c-0.1,0-0.3,0-0.4,0.1
			c-0.5,0.1-0.8,0.5-0.8,1c0.1,0.4,0.4,0.8,0.9,0.8C326.7,272.3,326.7,272.3,326.8,272.3z"/>
		<path d="M309.3,259c-0.1-0.5-0.6-0.8-1.1-0.6c-0.5,0.1-0.8,0.6-0.6,1.1c0,0.1,0.1,0.3,0.1,0.4c0.1,0.4,0.5,0.6,0.9,0.6
			c0.1,0,0.2,0,0.3,0c0.5-0.1,0.7-0.6,0.6-1.1C309.4,259.2,309.4,259.1,309.3,259z"/>
		<path d="M309.6,264.6c0.2,0.3,0.5,0.5,0.8,0.5c0.1,0,0.3,0,0.4-0.1c0.4-0.2,0.6-0.8,0.4-1.2c-0.1-0.1-0.1-0.2-0.2-0.4
			c-0.2-0.4-0.8-0.6-1.2-0.4c-0.4,0.2-0.6,0.8-0.4,1.2C309.5,264.3,309.5,264.4,309.6,264.6z"/>
		<path d="M313.3,269c0.2,0,0.5-0.1,0.6-0.3c0.3-0.4,0.3-0.9,0-1.3c-0.1-0.1-0.2-0.2-0.3-0.3c-0.3-0.4-0.9-0.4-1.3,0
			c-0.4,0.3-0.4,0.9,0,1.3c0.1,0.1,0.2,0.2,0.3,0.3C312.9,268.9,313.1,269,313.3,269z"/>
		<path d="M331.5,271.3c0.1,0,0.2,0,0.2,0l0.2-0.1c0.5-0.1,0.8-0.6,0.6-1.1c-0.1-0.5-0.6-0.8-1.1-0.6l-0.2,0.1
			c-0.5,0.1-0.8,0.6-0.6,1.1C330.7,271,331.1,271.3,331.5,271.3z"/>
		<path d="M381.6,198.3h-74.9c-1,0-1.8,0.8-1.8,1.8v1.9c0,1,0.8,1.8,1.8,1.8c0,0,2.6,0,4.6,0c2,0,0,31,0,31
			c0,12.8,7.9,23.9,19.2,28.9c0,0.2-0.1,0.4-0.1,0.6v0.7c0,2.2,1.8,4.1,4,4.1c0.1,5.3,0,10-0.4,10.7c-1,1.6-2.9,2-2.9,4.5
			c0,2.5,1.5,2.9,2.9,4.5c0.3,0.4,0.6,2.2,0.8,4.8h-0.4c-0.8,0-1.4,0.6-1.4,1.4v1.9c0,0.8,0.6,1.4,1.4,1.4h0.7
			c0.3,6.6,0.5,15.3,0.6,21.6c-1.7,0.4-3.1,2.1-3.5,4.4c-6.3,2.6-10.6,6.3-13.6,6.3c-4.6,0-4.8,0-4.8,0c-0.1,0-0.2,0.1-0.2,0.2v4.3
			c0,0.1,0.1,0.2,0.2,0.2h60.5c0.1,0,0.2-0.1,0.2-0.2v-4.3c0-0.1-0.1-0.2-0.2-0.2c0,0-0.4,0-4.8,0c-2.8,0-7.1-3.8-13.6-6.4
			c-0.5-2.2-1.8-3.9-3.5-4.3c0.2-6.3,0.4-15,0.7-21.6h0.5c0.8,0,1.4-0.6,1.4-1.4V295c0-0.8-0.6-1.4-1.4-1.4h-0.2
			c0.2-2.6,0.4-4.4,0.6-4.8c1-1.6,2.9-1.9,2.9-4.5c0-2.6-1.5-2.9-2.9-4.5c-0.6-0.7-0.7-5.3-0.6-10.7h0.1c2.3,0,4.1-1.9,4.1-4.1v-0.7
			c0-0.2,0-0.4-0.1-0.6c11.3-5.1,19.2-16.1,19.2-28.9c0,0-2.1-31,0-31s4.6,0,4.6,0c1,0,1.8-0.8,1.8-1.8V200
			C383.5,199.1,382.6,198.3,381.6,198.3z M344.1,258c-7.3-0.1-13.1-6-13.1-13.3c0-0.6,0.1-1.2,0.1-1.8c0.8,6.4,6.3,11.4,13,11.5
			c6.7,0.1,12.2-4.9,13.1-11.3c0.1,0.6,0.1,1.2,0.1,1.8C357.3,252.2,351.4,258.1,344.1,258z M363.6,211.8c-1.4,0.1-2.8-0.1-4-0.5
			c-2-0.7-3.8-2.2-5.7-3.1l8.2,10.6l-11.2-8.6c0.9,2.1,2.5,4,3.3,6.1c0.4,1.2,0.6,2.6,0.5,4c-0.1,2.9-0.5,6.5,2.2,8
			c-3.4-1.2-3.7-4.5-4.5-6.9c-0.4-1.2-1-3-2-4c-0.8-0.9-2.9-1.9-3.9-5.2l-2.2,22.4l-2.2-22.4c-1,3.3-3.1,4.3-3.9,5.2
			c-1,1-1.6,2.8-2,4c-0.8,2.4-1.1,5.7-4.5,6.9c2.8-1.5,2.3-5.1,2.2-8c-0.1-1.4,0.1-2.8,0.5-4c0.8-2.1,2.4-4,3.3-6.1l-11.2,8.6
			l8.6-11.1c-3.1,2-5.5,1.3-6.7,1.4c-1.4,0.1-3,1-4.1,1.6c-2.2,1.3-4.7,3.4-8,2c3.1,0.8,5.2-2.2,7-4.4c0.9-1.1,2-2,3.1-2.6
			c1.9-1,4.3-1.3,6.3-2.2h22.5c0,0,0,0,0,0.1c3.5,0.9,4.6,3.1,5.5,4c1,1,2.8,1.6,4,2c2.4,0.8,5.7,1.1,6.9,4.5
			C370.1,211.2,366.5,211.7,363.6,211.8z"/>
		<path d="M342.4,369.4c-0.5,0-0.9,0.4-0.9,0.9l0,0.2c0,0.5,0.4,0.9,0.9,0.9c0,0,0,0,0,0c0.5,0,0.9-0.4,0.9-0.9l0-0.2
			C343.3,369.8,342.9,369.4,342.4,369.4z"/>
		<path d="M343.1,419.5c0-0.5-0.4-0.9-0.9-0.9c-0.5,0-0.9,0.4-0.9,0.9l0,0.4c0,0.5,0.4,0.9,0.9,0.9c0,0,0,0,0,0
			c0.5,0,0.9-0.4,0.9-0.9L343.1,419.5z"/>
		<path d="M341.6,380.4c0,0.5,0.4,0.9,0.9,0.9c0,0,0,0,0,0c0.5,0,0.9-0.4,0.9-0.9l0-0.4l-0.6,0l-1.2,0L341.6,380.4z"/>
		<polygon points="342.5,380 342.8,380 343.4,379.9 		"/>
		<path d="M342.5,374.1c-0.5,0-0.9,0.4-0.9,0.9l0,0.4c0,0.5,0.4,0.9,0.9,0.9c0,0,0,0,0,0c0.5,0,0.9-0.4,0.9-0.9l0-0.4
			C343.4,374.5,343,374.1,342.5,374.1z"/>
		<path d="M341.7,389.8l0,0.4c0,0.5,0.4,0.9,0.9,0.9c0,0,0,0,0,0c0.5,0,0.9-0.4,0.9-0.9l0-0.4c0-0.5-0.4-0.9-0.9-0.9
			C342.1,388.9,341.7,389.3,341.7,389.8z"/>
		<path d="M342.6,384c-0.5,0-0.9,0.4-0.9,0.9l0,0.4c0,0.5,0.4,0.9,0.9,0.9c0,0,0,0,0,0c0.5,0,0.9-0.4,0.9-0.9l0-0.4
			C343.4,384.4,343,384,342.6,384z"/>
		<path d="M343.3,414.5c0-0.5-0.4-0.9-0.9-0.9c-0.5,0-0.9,0.4-0.9,0.9l0,0.4c0,0.5,0.4,0.9,0.9,0.9c0,0,0,0,0,0
			c0.5,0,0.9-0.4,0.9-0.9L343.3,414.5z"/>
		<path d="M338.5,450.1c0.4,0,0.7-0.3,0.9-0.6l0.1-0.4c0.1-0.5-0.1-1-0.6-1.1c-0.5-0.1-1,0.1-1.1,0.6l-0.1,0.4
			c-0.1,0.5,0.1,1,0.6,1.1C338.3,450,338.4,450.1,338.5,450.1z"/>
		<path d="M341.4,439.6l0.1-0.4c0.1-0.5-0.3-0.9-0.8-1c-0.5-0.1-0.9,0.3-1,0.8l-0.1,0.4c-0.1,0.5,0.3,0.9,0.8,1c0,0,0.1,0,0.1,0
			C340.9,440.4,341.3,440.1,341.4,439.6z"/>
		<path d="M337.4,452.6c-0.5-0.2-1,0-1.2,0.5c-0.1,0.1-0.1,0.3-0.2,0.4c-0.2,0.5,0,1,0.5,1.2c0.1,0,0.2,0.1,0.3,0.1
			c0.3,0,0.7-0.2,0.8-0.5c0.1-0.1,0.1-0.3,0.2-0.4C338.1,453.3,337.8,452.8,337.4,452.6z"/>
		<path d="M342.8,424.8l0-0.4c0-0.5-0.3-0.9-0.8-0.9c-0.5,0-0.9,0.3-0.9,0.8l0,0.4c0,0.5,0.3,0.9,0.8,0.9c0,0,0,0,0.1,0
			C342.4,425.7,342.8,425.3,342.8,424.8z"/>
		<path d="M342.5,429.8l0-0.4c0-0.5-0.3-0.9-0.8-1c-0.5,0-0.9,0.3-1,0.8l0,0.4c0,0.5,0.3,0.9,0.8,1c0,0,0,0,0.1,0
			C342,430.6,342.4,430.3,342.5,429.8z"/>
		<path d="M342,434.7l0-0.4c0.1-0.5-0.3-0.9-0.8-1c-0.5-0.1-0.9,0.3-1,0.8l0,0.4c-0.1,0.5,0.3,0.9,0.8,1c0,0,0.1,0,0.1,0
			C341.6,435.5,342,435.2,342,434.7z"/>
		<path d="M340.5,444.6l0.1-0.4c0.1-0.5-0.2-1-0.7-1c-0.5-0.1-1,0.2-1,0.7l-0.1,0.4c-0.1,0.5,0.2,1,0.7,1.1c0.1,0,0.1,0,0.2,0
			C340.1,445.3,340.4,445,340.5,444.6z"/>
		<path d="M327.2,463.2c-0.1,0-0.3,0.1-0.4,0.1c-0.5,0.2-0.7,0.7-0.6,1.1c0.1,0.4,0.5,0.6,0.8,0.6c0.1,0,0.2,0,0.3,0
			c0.2,0,0.3-0.1,0.5-0.2c0.5-0.2,0.7-0.7,0.5-1.1C328.2,463.3,327.7,463.1,327.2,463.2z"/>
		<path d="M343.4,409.6c0-0.5-0.4-0.9-0.9-0.9c-0.5,0-0.9,0.4-0.9,0.9l0,0.4c0,0.5,0.4,0.9,0.9,0.9c0,0,0,0,0,0
			c0.5,0,0.9-0.4,0.9-0.9L343.4,409.6z"/>
		<path d="M334.1,457.3c-0.1,0.1-0.2,0.2-0.2,0.4c-0.3,0.4-0.2,1,0.3,1.2c0.2,0.1,0.3,0.1,0.5,0.1c0.3,0,0.6-0.1,0.7-0.4
			c0.1-0.1,0.2-0.3,0.3-0.4c0.3-0.4,0.1-1-0.3-1.2C334.9,456.8,334.4,456.9,334.1,457.3z"/>
		<path d="M322.4,464l-0.2,0c-0.5,0-0.9,0.4-0.9,0.9c0,0.5,0.4,0.9,0.9,0.9l0.2,0l0.2,0c0.5,0,0.9-0.4,0.9-0.9
			c0-0.5-0.4-0.9-0.9-0.9L322.4,464z"/>
		<path d="M331.1,460.9c-0.1,0.1-0.2,0.2-0.3,0.3c-0.4,0.3-0.4,0.9-0.1,1.3c0.2,0.2,0.4,0.3,0.7,0.3c0.2,0,0.4-0.1,0.6-0.2
			c0.1-0.1,0.2-0.2,0.4-0.3c0.4-0.3,0.4-0.9,0.1-1.3C332,460.6,331.5,460.6,331.1,460.9z"/>
		<path d="M343.5,399.7c0-0.5-0.4-0.9-0.9-0.9c0,0,0,0,0,0c-0.5,0-0.9,0.4-0.9,0.9l0,0.4c0,0.5,0.4,0.9,0.9,0.9c0,0,0,0,0,0
			c0.5,0,0.9-0.4,0.9-0.9L343.5,399.7z"/>
		<path d="M343.5,394.8c0-0.5-0.4-0.9-0.9-0.9s-0.9,0.4-0.9,0.9v0.4c0,0.5,0.4,0.9,0.9,0.9h0c0.5,0,0.9-0.4,0.9-0.9V394.8z"/>
		<path d="M343.4,404.6c0-0.5-0.4-0.9-0.9-0.9c-0.5,0-0.9,0.4-0.9,0.9l0,0.4c0,0.5,0.4,0.9,0.9,0.9c0,0,0,0,0,0
			c0.5,0,0.9-0.4,0.9-0.9L343.4,404.6z"/>
		<path d="M317.9,463.5l-0.2,0c-0.5-0.1-1,0.2-1.1,0.7c-0.1,0.5,0.2,1,0.7,1.1l0.2,0c0.1,0,0.1,0,0.2,0c0.4,0,0.8-0.3,0.9-0.7
			C318.7,464.1,318.4,463.6,317.9,463.5z"/>
		<path d="M268.6,371.4C268.6,371.4,268.6,371.4,268.6,371.4c0.5,0,0.9-0.4,0.9-0.9l0-0.2c0-0.5-0.4-0.9-0.9-0.9
			c-0.5,0-0.9,0.4-0.9,0.9l0,0.2C267.7,371,268.1,371.4,268.6,371.4z"/>
		<path d="M267.1,395c0,0.5,0.4,0.9,0.9,0.9c0,0,0,0,0,0c0.5,0,0.9-0.4,0.9-0.9l0-0.4c0-0.5-0.4-0.9-0.9-0.9c-0.5,0-0.9,0.4-0.9,0.9
			L267.1,395z"/>
		<path d="M266.9,399.9c0,0.5,0.4,0.9,0.9,0.9c0,0,0,0,0,0c0.5,0,0.9-0.4,0.9-0.9l0-0.4c0-0.5-0.4-0.9-0.9-0.9
			c-0.5,0-0.9,0.4-0.9,0.9L266.9,399.9z"/>
		<path d="M266.9,404.8c0,0.5,0.4,0.9,0.9,0.9h0c0.5,0,0.9-0.4,0.9-0.9l0-0.4c0-0.5-0.4-0.9-0.9-0.9c0,0,0,0,0,0
			c-0.5,0-0.9,0.4-0.9,0.9L266.9,404.8z"/>
		<path d="M267.8,410.6C267.8,410.6,267.9,410.6,267.8,410.6c0.5,0,0.9-0.4,0.9-0.9l0-0.4c0-0.5-0.4-0.9-0.9-0.9
			c-0.5,0-0.9,0.4-0.9,0.9l0,0.4C267,410.2,267.4,410.6,267.8,410.6z"/>
		<path d="M268.6,376.3C268.6,376.3,268.6,376.3,268.6,376.3c0.5,0,0.9-0.4,0.9-0.9l0-0.4c0-0.5-0.4-0.9-0.9-0.9c0,0,0,0,0,0
			c-0.5,0-0.9,0.4-0.9,0.9l0,0.4C267.7,375.9,268.1,376.3,268.6,376.3z"/>
		<path d="M268.1,415.5C268.1,415.5,268.2,415.5,268.1,415.5c0.6,0,0.9-0.5,0.9-1l0-0.4c0-0.5-0.5-0.9-1-0.8c-0.5,0-0.9,0.5-0.8,1
			l0,0.4C267.3,415.1,267.7,415.5,268.1,415.5z"/>
		<path d="M267.6,380.3c0,0.5,0.4,0.9,0.9,0.9c0,0,0,0,0,0c0.5,0,0.9-0.4,0.9-0.9l0-0.4c0-0.5-0.4-0.9-0.9-0.9
			c-0.5,0-0.9,0.4-0.9,0.9L267.6,380.3z"/>
		<path d="M267.5,385.2c0,0.5,0.4,0.9,0.9,0.9c0,0,0,0,0,0c0.5,0,0.9-0.4,0.9-0.9l0-0.4c0-0.5-0.4-0.9-0.9-0.9
			c-0.5,0-0.9,0.4-0.9,0.9L267.5,385.2z"/>
		<path d="M267.3,390.1c0,0.5,0.4,0.9,0.9,0.9c0,0,0,0,0,0c0.5,0,0.9-0.4,0.9-0.9l0-0.4c0-0.5-0.4-0.9-0.9-0.9
			c-0.5,0-0.9,0.4-0.9,0.9L267.3,390.1z"/>
		<path d="M278.3,436.1c0.1,0,0.2,0.1,0.3,0.1c0.4,0,0.7-0.2,0.8-0.6c0.2-0.5-0.1-1-0.5-1.2c-0.1,0-0.3-0.1-0.4-0.2
			c-0.5-0.2-1,0-1.2,0.5c-0.2,0.5,0,1,0.5,1.2C278,436,278.2,436,278.3,436.1z"/>
		<path d="M283.4,437.1C283.4,437.1,283.4,437.1,283.4,437.1c0.5,0,0.9-0.4,0.9-0.8c0-0.5-0.4-0.9-0.8-0.9c-0.1,0-0.3,0-0.4,0
			c-0.5,0-0.9,0.3-1,0.8c0,0.5,0.3,0.9,0.8,1C283,437.1,283.2,437.1,283.4,437.1z"/>
		<path d="M268.7,420.4c0,0,0.1,0,0.1,0c0.5-0.1,0.8-0.5,0.7-1l-0.1-0.4c-0.1-0.5-0.5-0.8-1-0.7c-0.5,0.1-0.8,0.5-0.7,1l0.1,0.4
			C267.9,420,268.3,420.4,268.7,420.4z"/>
		<path d="M288,436.9c0.2,0,0.3,0,0.5-0.1c0.5-0.1,0.8-0.5,0.8-1c-0.1-0.5-0.5-0.8-1-0.8c-0.1,0-0.3,0-0.4,0.1
			c-0.5,0.1-0.8,0.5-0.8,1c0.1,0.4,0.4,0.8,0.9,0.8C287.9,436.9,287.9,436.9,288,436.9z"/>
		<path d="M268.9,424.5c0.1,0.4,0.5,0.6,0.9,0.6c0.1,0,0.2,0,0.3,0c0.5-0.1,0.7-0.6,0.6-1.1c0-0.1-0.1-0.3-0.1-0.4
			c-0.1-0.5-0.6-0.8-1.1-0.6c-0.5,0.1-0.8,0.6-0.6,1.1C268.9,424.2,268.9,424.3,268.9,424.5z"/>
		<path d="M270.8,429.2c0.2,0.3,0.5,0.5,0.8,0.5c0.1,0,0.3,0,0.4-0.1c0.4-0.2,0.6-0.8,0.4-1.2c-0.1-0.1-0.1-0.2-0.2-0.4
			c-0.2-0.4-0.8-0.6-1.2-0.4c-0.4,0.2-0.6,0.8-0.4,1.2C270.7,428.9,270.8,429.1,270.8,429.2z"/>
		<path d="M275.1,432c-0.1-0.1-0.2-0.2-0.3-0.3c-0.3-0.4-0.9-0.4-1.3,0c-0.4,0.3-0.4,0.9,0,1.3c0.1,0.1,0.2,0.2,0.3,0.3
			c0.2,0.2,0.4,0.2,0.6,0.2c0.2,0,0.5-0.1,0.6-0.3C275.5,432.9,275.5,432.4,275.1,432z"/>
		<path d="M292.7,435.9c0.1,0,0.2,0,0.2,0l0.2-0.1c0.5-0.1,0.8-0.6,0.6-1.1c-0.1-0.5-0.6-0.8-1.1-0.6l-0.2,0.1
			c-0.5,0.1-0.8,0.6-0.6,1.1C291.9,435.7,292.3,435.9,292.7,435.9z"/>
		<path d="M266.2,364.6v1.9c0,1,0.8,1.8,1.8,1.8c0,0,2.6,0,4.6,0c2,0,0,31,0,31c0,12.8,7.9,23.9,19.2,28.9c0,0.2-0.1,0.4-0.1,0.6
			v0.7c0,2.2,1.8,4.1,4,4.1c0.1,5.3,0,10-0.4,10.7c-1,1.6-2.9,2-2.9,4.5s1.5,2.9,2.9,4.5c0.3,0.4,0.6,2.2,0.8,4.8h-0.4
			c-0.8,0-1.4,0.6-1.4,1.4v1.9c0,0.8,0.6,1.4,1.4,1.4h0.7c0.3,6.6,0.5,15.3,0.6,21.6c-1.7,0.4-3.1,2.1-3.5,4.4
			c-6.3,2.6-10.6,6.3-13.6,6.3c-4.6,0-4.8,0-4.8,0c-0.1,0-0.2,0.1-0.2,0.2v4.3c0,0.1,0.1,0.2,0.2,0.2h60.5c0.1,0,0.2-0.1,0.2-0.2
			v-4.3c0-0.1-0.1-0.2-0.2-0.2c0,0-0.4,0-4.8,0c-2.8,0-7.1-3.8-13.6-6.4c-0.5-2.2-1.8-3.9-3.5-4.3c0.2-6.3,0.4-15,0.7-21.6h0.5
			c0.8,0,1.4-0.6,1.4-1.4v-1.9c0-0.8-0.6-1.4-1.4-1.4h-0.2c0.2-2.6,0.4-4.4,0.6-4.8c1-1.6,2.9-1.9,2.9-4.5c0-2.6-1.5-2.9-2.9-4.5
			c-0.6-0.7-0.7-5.3-0.6-10.7h0.1c2.3,0,4.1-1.9,4.1-4.1v-0.7c0-0.2,0-0.4-0.1-0.6c11.3-5.1,19.2-16.1,19.2-28.9c0,0-2.1-31,0-31
			c2.1,0,4.6,0,4.6,0c1,0,1.8-0.8,1.8-1.8v-1.9c0-1-0.8-1.8-1.8-1.8H268C267,362.9,266.2,363.7,266.2,364.6z M305.3,422.6
			c-7.3-0.1-13.1-6-13.1-13.3c0-0.6,0.1-1.2,0.1-1.8c0.8,6.4,6.3,11.4,13,11.5c6.7,0.1,12.2-4.9,13.1-11.3c0.1,0.6,0.1,1.2,0.1,1.8
			C318.5,416.8,312.6,422.7,305.3,422.6z M284.5,372.9c0.9-1.1,2-2,3.1-2.6c1.9-1,4.3-1.3,6.3-2.2h22.5c0,0,0,0,0,0.1
			c3.5,0.9,4.6,3.1,5.5,4c1,1,2.8,1.6,4,2c2.4,0.8,5.7,1.1,6.9,4.5c-1.5-2.8-5.1-2.3-8-2.2c-1.4,0.1-2.8-0.1-4-0.5
			c-2-0.7-3.8-2.2-5.7-3.1l8.2,10.6l-11.2-8.6c0.9,2.1,2.5,4,3.3,6.1c0.4,1.2,0.6,2.6,0.5,4c-0.1,2.9-0.5,6.5,2.2,8
			c-3.4-1.2-3.7-4.5-4.5-6.9c-0.4-1.2-1-3-2-4c-0.8-0.9-2.9-1.9-3.9-5.2l-2.2,22.4l-2.2-22.4c-1,3.3-3.1,4.3-3.9,5.2
			c-1,1-1.6,2.8-2,4c-0.8,2.4-1.1,5.7-4.5,6.9c2.8-1.5,2.3-5.1,2.2-8c-0.1-1.4,0.1-2.8,0.5-4c0.8-2.1,2.4-4,3.3-6.1l-11.2,8.6
			l8.6-11.1c-3.1,2-5.5,1.3-6.7,1.4c-1.4,0.1-3,1-4.1,1.6c-2.2,1.3-4.7,3.4-8,2C280.5,378.1,282.6,375.1,284.5,372.9z"/>
		<path d="M381.2,535c-0.5,0-0.9,0.4-0.9,0.9l0,0.2c0,0.5,0.4,0.9,0.9,0.9c0,0,0,0,0,0c0.5,0,0.9-0.4,0.9-0.9l0-0.2
			C382.1,535.4,381.7,535,381.2,535z"/>
		<path d="M381,584.1c-0.5,0-0.9,0.4-0.9,0.9l0,0.4c0,0.5,0.4,0.9,0.9,0.9c0,0,0,0,0,0c0.5,0,0.9-0.4,0.9-0.9l0-0.4
			C381.9,584.5,381.5,584.1,381,584.1z"/>
		<path d="M380.4,546c0,0.5,0.4,0.9,0.9,0.9c0,0,0,0,0,0c0.5,0,0.9-0.4,0.9-0.9l0-0.4l-0.6,0l-1.2,0L380.4,546z"/>
		<polygon points="381.3,545.5 381.6,545.5 382.2,545.5 		"/>
		<path d="M381.3,539.7c-0.5,0-0.9,0.4-0.9,0.9l0,0.4c0,0.5,0.4,0.9,0.9,0.9c0,0,0,0,0,0c0.5,0,0.9-0.4,0.9-0.9l0-0.4
			C382.2,540.1,381.8,539.7,381.3,539.7z"/>
		<path d="M380.5,555.4l0,0.4c0,0.5,0.4,0.9,0.9,0.9c0,0,0,0,0,0c0.5,0,0.9-0.4,0.9-0.9l0-0.4c0-0.5-0.4-0.9-0.9-0.9
			C380.9,554.5,380.5,554.9,380.5,555.4z"/>
		<path d="M381.3,549.5c-0.5,0-0.9,0.4-0.9,0.9l0,0.4c0,0.5,0.4,0.9,0.9,0.9c0,0,0,0,0,0c0.5,0,0.9-0.4,0.9-0.9l0-0.4
			C382.2,549.9,381.8,549.5,381.3,549.5z"/>
		<path d="M381.2,579.1c-0.5,0-0.9,0.4-0.9,0.9l0,0.4c0,0.5,0.4,0.9,0.9,0.9c0,0,0,0,0,0c0.5,0,0.9-0.4,0.9-0.9l0-0.4
			C382.1,579.6,381.7,579.2,381.2,579.1z"/>
		<path d="M377.6,613.4c-0.5-0.1-1,0.1-1.1,0.6l-0.1,0.4c-0.1,0.5,0.1,1,0.6,1.1c0.1,0,0.2,0,0.2,0c0.4,0,0.7-0.3,0.9-0.6l0.1-0.4
			C378.4,614,378.1,613.6,377.6,613.4z"/>
		<path d="M379.5,603.7c-0.5-0.1-0.9,0.3-1,0.8l-0.1,0.4c-0.1,0.5,0.3,0.9,0.8,1c0,0,0.1,0,0.1,0c0.4,0,0.8-0.3,0.9-0.8l0.1-0.4
			C380.3,604.3,380,603.8,379.5,603.7z"/>
		<path d="M376.2,618.1c-0.5-0.2-1,0-1.2,0.5c-0.1,0.1-0.1,0.3-0.2,0.4c-0.2,0.5,0,1,0.5,1.2c0.1,0,0.2,0.1,0.3,0.1
			c0.3,0,0.7-0.2,0.8-0.5c0.1-0.1,0.1-0.3,0.2-0.4C376.9,618.8,376.6,618.3,376.2,618.1z"/>
		<path d="M380.8,589c-0.5,0-0.9,0.3-0.9,0.8l0,0.4c0,0.5,0.3,0.9,0.8,0.9c0,0,0,0,0.1,0c0.5,0,0.9-0.4,0.9-0.8l0-0.4
			C381.7,589.4,381.3,589,380.8,589z"/>
		<path d="M380.5,593.9c-0.5,0-0.9,0.3-1,0.8l0,0.4c0,0.5,0.3,0.9,0.8,1c0,0,0,0,0.1,0c0.5,0,0.9-0.4,0.9-0.8l0-0.4
			C381.3,594.4,381,594,380.5,593.9z"/>
		<path d="M380.1,598.8c-0.5-0.1-0.9,0.3-1,0.8l0,0.4c-0.1,0.5,0.3,0.9,0.8,1c0,0,0.1,0,0.1,0c0.4,0,0.8-0.3,0.9-0.8l0-0.4
			C380.9,599.3,380.5,598.9,380.1,598.8z"/>
		<path d="M378.7,608.6c-0.5-0.1-1,0.2-1,0.7l-0.1,0.4c-0.1,0.5,0.2,1,0.7,1.1c0.1,0,0.1,0,0.2,0c0.4,0,0.8-0.3,0.9-0.7l0.1-0.4
			C379.5,609.2,379.2,608.7,378.7,608.6z"/>
		<path d="M366,628.8c-0.1,0-0.3,0.1-0.4,0.1c-0.5,0.2-0.7,0.7-0.6,1.1c0.1,0.4,0.5,0.6,0.8,0.6c0.1,0,0.2,0,0.3,0
			c0.2,0,0.3-0.1,0.5-0.2c0.5-0.2,0.7-0.7,0.5-1.1C367,628.8,366.5,628.6,366,628.8z"/>
		<path d="M381.3,574.2c-0.5,0-0.9,0.4-0.9,0.9l0,0.4c0,0.5,0.4,0.9,0.9,0.9c0,0,0,0,0,0c0.5,0,0.9-0.4,0.9-0.9l0-0.4
			C382.2,574.6,381.8,574.2,381.3,574.2z"/>
		<path d="M372.9,622.9c-0.1,0.1-0.2,0.2-0.2,0.4c-0.3,0.4-0.2,1,0.3,1.2c0.2,0.1,0.3,0.1,0.5,0.1c0.3,0,0.6-0.1,0.7-0.4
			c0.1-0.1,0.2-0.3,0.3-0.4c0.3-0.4,0.1-1-0.3-1.2C373.7,622.3,373.1,622.5,372.9,622.9z"/>
		<path d="M361.2,629.5l-0.2,0c-0.5,0-0.9,0.4-0.9,0.9c0,0.5,0.4,0.9,0.9,0.9l0.2,0l0.2,0c0.5,0,0.9-0.4,0.9-0.9
			c0-0.5-0.4-0.9-0.9-0.9L361.2,629.5z"/>
		<path d="M369.9,626.4c-0.1,0.1-0.2,0.2-0.3,0.3c-0.4,0.3-0.4,0.9-0.1,1.3c0.2,0.2,0.4,0.3,0.7,0.3c0.2,0,0.4-0.1,0.6-0.2
			c0.1-0.1,0.2-0.2,0.4-0.3c0.4-0.3,0.4-0.9,0.1-1.3C370.8,626.2,370.3,626.1,369.9,626.4z"/>
		<path d="M381.4,564.3C381.4,564.3,381.4,564.3,381.4,564.3c-0.5,0-0.9,0.4-0.9,0.9l0,0.4c0,0.5,0.4,0.9,0.9,0.9c0,0,0,0,0,0
			c0.5,0,0.9-0.4,0.9-0.9l0-0.4C382.3,564.7,381.9,564.3,381.4,564.3z"/>
		<path d="M381.4,559.4c-0.5,0-0.9,0.4-0.9,0.9v0.4c0,0.5,0.4,0.9,0.9,0.9h0c0.5,0,0.9-0.4,0.9-0.9v-0.4
			C382.3,559.8,381.9,559.4,381.4,559.4z"/>
		<path d="M381.3,569.3c-0.5,0-0.9,0.4-0.9,0.9l0,0.4c0,0.5,0.4,0.9,0.9,0.9c0,0,0,0,0,0c0.5,0,0.9-0.4,0.9-0.9l0-0.4
			C382.2,569.7,381.8,569.3,381.3,569.3z"/>
		<path d="M356.7,629l-0.2,0c-0.5-0.1-1,0.2-1.1,0.7c-0.1,0.5,0.2,1,0.7,1.1l0.2,0c0.1,0,0.1,0,0.2,0c0.4,0,0.8-0.3,0.9-0.7
			C357.5,629.6,357.2,629.1,356.7,629z"/>
		<path d="M307.4,537C307.4,537,307.4,537,307.4,537c0.5,0,0.9-0.4,0.9-0.9l0-0.2c0-0.5-0.4-0.9-0.9-0.9c-0.5,0-0.9,0.4-0.9,0.9
			l0,0.2C306.5,536.6,306.9,537,307.4,537z"/>
		<path d="M305.9,560.5c0,0.5,0.4,0.9,0.9,0.9c0,0,0,0,0,0c0.5,0,0.9-0.4,0.9-0.9l0-0.4c0-0.5-0.4-0.9-0.9-0.9
			c-0.5,0-0.9,0.4-0.9,0.9L305.9,560.5z"/>
		<path d="M305.7,565.4c0,0.5,0.4,0.9,0.9,0.9c0,0,0,0,0,0c0.5,0,0.9-0.4,0.9-0.9l0-0.4c0-0.5-0.4-0.9-0.9-0.9
			c-0.5,0-0.9,0.4-0.9,0.9L305.7,565.4z"/>
		<path d="M305.7,570.4c0,0.5,0.4,0.9,0.9,0.9h0c0.5,0,0.9-0.4,0.9-0.9l0-0.4c0-0.5-0.4-0.9-0.9-0.9c0,0,0,0,0,0
			c-0.5,0-0.9,0.4-0.9,0.9L305.7,570.4z"/>
		<path d="M306.6,576.1C306.6,576.1,306.7,576.1,306.6,576.1c0.5,0,0.9-0.4,0.9-0.9l0-0.4c0-0.5-0.4-0.9-0.9-0.9
			c-0.5,0-0.9,0.4-0.9,0.9l0,0.4C305.8,575.8,306.2,576.1,306.6,576.1z"/>
		<path d="M307.4,541.9C307.4,541.9,307.4,541.9,307.4,541.9c0.5,0,0.9-0.4,0.9-0.9l0-0.4c0-0.5-0.4-0.9-0.9-0.9c0,0,0,0,0,0
			c-0.5,0-0.9,0.4-0.9,0.9l0,0.4C306.5,541.5,306.9,541.9,307.4,541.9z"/>
		<path d="M307,581c0.5,0,0.9-0.5,0.8-1l0-0.4c0-0.5-0.5-0.9-1-0.8c-0.5,0-0.9,0.5-0.8,1l0,0.4C306.1,580.7,306.5,581,307,581
			C306.9,581,307,581,307,581z"/>
		<path d="M306.4,545.8c0,0.5,0.4,0.9,0.9,0.9c0,0,0,0,0,0c0.5,0,0.9-0.4,0.9-0.9l0-0.4c0-0.5-0.4-0.9-0.9-0.9
			c-0.5,0-0.9,0.4-0.9,0.9L306.4,545.8z"/>
		<path d="M306.3,550.7c0,0.5,0.4,0.9,0.9,0.9c0,0,0,0,0,0c0.5,0,0.9-0.4,0.9-0.9l0-0.4c0-0.5-0.4-0.9-0.9-0.9
			c-0.5,0-0.9,0.4-0.9,0.9L306.3,550.7z"/>
		<path d="M306.1,555.6c0,0.5,0.4,0.9,0.9,0.9c0,0,0,0,0,0c0.5,0,0.9-0.4,0.9-0.9l0-0.4c0-0.5-0.4-0.9-0.9-0.9
			c-0.5,0-0.9,0.4-0.9,0.9L306.1,555.6z"/>
		<path d="M317.1,601.6c0.1,0,0.2,0.1,0.3,0.1c0.4,0,0.7-0.2,0.8-0.6c0.2-0.5-0.1-1-0.5-1.2c-0.1,0-0.3-0.1-0.4-0.2
			c-0.5-0.2-1,0-1.2,0.5c-0.2,0.5,0,1,0.5,1.2C316.8,601.5,317,601.6,317.1,601.6z"/>
		<path d="M322.2,602.7C322.2,602.7,322.2,602.7,322.2,602.7c0.5,0,0.9-0.4,0.9-0.8c0-0.5-0.4-0.9-0.8-0.9c-0.1,0-0.3,0-0.4,0
			c-0.5,0-0.9,0.3-1,0.8c0,0.5,0.3,0.9,0.8,1C321.8,602.6,322,602.7,322.2,602.7z"/>
		<path d="M308.4,584.9l-0.1-0.4c-0.1-0.5-0.5-0.8-1-0.7c-0.5,0.1-0.8,0.5-0.7,1l0.1,0.4c0.1,0.4,0.5,0.7,0.9,0.7c0,0,0.1,0,0.1,0
			C308.1,585.8,308.5,585.3,308.4,584.9z"/>
		<path d="M326.8,602.5c0.2,0,0.3,0,0.5-0.1c0.5-0.1,0.8-0.5,0.8-1c-0.1-0.5-0.5-0.8-1-0.8c-0.1,0-0.3,0-0.4,0.1
			c-0.5,0.1-0.8,0.5-0.8,1c0.1,0.4,0.4,0.8,0.9,0.8C326.7,602.5,326.7,602.5,326.8,602.5z"/>
		<path d="M309.4,589.5c0-0.1-0.1-0.3-0.1-0.4c-0.1-0.5-0.6-0.8-1.1-0.6c-0.5,0.1-0.8,0.6-0.6,1.1c0,0.1,0.1,0.3,0.1,0.4
			c0.1,0.4,0.5,0.6,0.9,0.6c0.1,0,0.2,0,0.3,0C309.3,590.5,309.6,590,309.4,589.5z"/>
		<path d="M311,593.5c-0.2-0.4-0.8-0.6-1.2-0.4c-0.4,0.2-0.6,0.8-0.4,1.2c0.1,0.1,0.1,0.3,0.2,0.4c0.2,0.3,0.5,0.5,0.8,0.5
			c0.1,0,0.3,0,0.4-0.1c0.4-0.2,0.6-0.8,0.4-1.2C311.1,593.8,311.1,593.6,311,593.5z"/>
		<path d="M313.9,597.6c-0.1-0.1-0.2-0.2-0.3-0.3c-0.3-0.4-0.9-0.4-1.3,0c-0.4,0.3-0.4,0.9,0,1.3c0.1,0.1,0.2,0.2,0.3,0.3
			c0.2,0.2,0.4,0.2,0.6,0.2c0.2,0,0.5-0.1,0.6-0.3C314.3,598.5,314.3,597.9,313.9,597.6z"/>
		<path d="M331.5,601.5c0.1,0,0.2,0,0.2,0l0.2-0.1c0.5-0.1,0.8-0.6,0.6-1.1c-0.1-0.5-0.6-0.8-1.1-0.6l-0.2,0.1
			c-0.5,0.1-0.8,0.6-0.6,1.1C330.7,601.2,331.1,601.5,331.5,601.5z"/>
		<path d="M381.6,528.4h-74.9c-1,0-1.8,0.8-1.8,1.8v1.9c0,1,0.8,1.8,1.8,1.8c0,0,2.6,0,4.6,0c2,0,0,31,0,31
			c0,12.8,7.9,23.9,19.2,28.9c0,0.2-0.1,0.4-0.1,0.6v0.7c0,2.2,1.8,4.1,4,4.1c0.1,5.3,0,10-0.4,10.7c-1,1.6-2.9,2-2.9,4.5
			c0,2.5,1.5,2.9,2.9,4.5c0.3,0.4,0.6,2.2,0.8,4.8h-0.4c-0.8,0-1.4,0.6-1.4,1.4v1.9c0,0.8,0.6,1.4,1.4,1.4h0.7
			c0.3,6.6,0.5,15.3,0.6,21.6c-1.7,0.4-3.1,2.1-3.5,4.4c-6.3,2.6-10.6,6.3-13.6,6.3c-4.6,0-4.8,0-4.8,0c-0.1,0-0.2,0.1-0.2,0.2v4.3
			c0,0.1,0.1,0.2,0.2,0.2h60.5c0.1,0,0.2-0.1,0.2-0.2V661c0-0.1-0.1-0.2-0.2-0.2c0,0-0.4,0-4.8,0c-2.8,0-7.1-3.8-13.6-6.4
			c-0.5-2.2-1.8-3.9-3.5-4.3c0.2-6.3,0.4-15,0.7-21.6h0.5c0.8,0,1.4-0.6,1.4-1.4v-1.9c0-0.8-0.6-1.4-1.4-1.4h-0.2
			c0.2-2.6,0.4-4.4,0.6-4.8c1-1.6,2.9-1.9,2.9-4.5c0-2.6-1.5-2.9-2.9-4.5c-0.6-0.7-0.7-5.3-0.6-10.7h0.1c2.3,0,4.1-1.9,4.1-4.1v-0.7
			c0-0.2,0-0.4-0.1-0.6c11.3-5.1,19.2-16.1,19.2-28.9c0,0-2.1-31,0-31s4.6,0,4.6,0c1,0,1.8-0.8,1.8-1.8v-1.9
			C383.5,529.2,382.6,528.4,381.6,528.4z M344.1,588.2c-7.3-0.1-13.1-6-13.1-13.3c0-0.6,0.1-1.2,0.1-1.8c0.8,6.4,6.3,11.4,13,11.5
			c6.7,0.1,12.2-4.9,13.1-11.3c0.1,0.6,0.1,1.2,0.1,1.8C357.3,582.4,351.4,588.2,344.1,588.2z M363.6,541.9c-1.4,0.1-2.8-0.1-4-0.5
			c-2-0.7-3.8-2.2-5.7-3.1l8.2,10.6l-11.2-8.6c0.9,2.1,2.5,4,3.3,6.1c0.4,1.2,0.6,2.6,0.5,4c-0.1,2.9-0.5,6.5,2.2,8
			c-3.4-1.2-3.7-4.5-4.5-6.9c-0.4-1.2-1-3-2-4c-0.8-0.9-2.9-1.9-3.9-5.2l-2.2,22.4l-2.2-22.4c-1,3.3-3.1,4.3-3.9,5.2
			c-1,1-1.6,2.8-2,4c-0.8,2.4-1.1,5.7-4.5,6.9c2.8-1.5,2.3-5.1,2.2-8c-0.1-1.4,0.1-2.8,0.5-4c0.8-2.1,2.4-4,3.3-6.1l-11.2,8.6
			l8.6-11.1c-3.1,2-5.5,1.3-6.7,1.4c-1.4,0.1-3,1-4.1,1.6c-2.2,1.3-4.7,3.4-8,2c3.1,0.8,5.2-2.2,7-4.4c0.9-1.1,2-2,3.1-2.6
			c1.9-1,4.3-1.3,6.3-2.2h22.5c0,0,0,0,0,0.1c3.5,0.9,4.6,3.1,5.5,4c1,1,2.8,1.6,4,2c2.4,0.8,5.7,1.1,6.9,4.5
			C370.1,541.4,366.5,541.8,363.6,541.9z"/>
	</g>
</g>
</svg>
