<?xml version="1.0" encoding="utf-8"?>
<!-- Generator: Adobe Illustrator 21.1.0, SVG Export Plug-In . SVG Version: 6.00 Build 0)  -->
<svg version="1.1" id="Слой_1" xmlns="http://www.w3.org/2000/svg" xmlns:xlink="http://www.w3.org/1999/xlink" x="0px" y="0px"
	 viewBox="0 0 504 864" style="enable-background:new 0 0 504 864;" xml:space="preserve">
<style type="text/css">
	.st0{fill:#040404;}
	.st1{fill:#FFFFFF;}
</style>
<g>
	<g>
		<path d="M51.9,53.6c6.7-7.6,6.7-19,0.2-26.4c0.8,7.2-1.3,14.8-6.5,20.6c-5.2,5.8-12.3,8.7-19.5,8.6C34,62.2,45.2,61.1,51.9,53.6z"
			/>
		<path d="M458.4,47.7c-5.2-5.8-7.3-13.3-6.5-20.6c-6.5,7.5-6.6,18.9,0.1,26.4c6.7,7.6,17.9,8.6,25.9,2.8
			C470.7,56.4,463.6,53.5,458.4,47.7z"/>
		<path d="M26.1,807.4c7.2-0.1,14.3,2.8,19.5,8.6c5.2,5.8,7.3,13.3,6.5,20.6c6.5-7.5,6.6-18.9-0.2-26.4
			C45.2,802.6,34,801.6,26.1,807.4z"/>
		<path d="M452,810.2c-6.7,7.6-6.7,19-0.1,26.4c-0.8-7.2,1.3-14.8,6.5-20.6c5.2-5.8,12.3-8.7,19.5-8.6
			C469.9,801.6,458.8,802.6,452,810.2z"/>
		<path d="M503.8,18.2c-1.6-17.9-18.7-16.3-31.6-16.3c-45.9,0-91.8,0-137.6,0c-63.2,0-126.3,0-189.5,0c-40.6,0-81.2,0-121.8,0
			c-2.6,0-5.3-0.2-8,0.2c-9.5,1.2-15,9.2-15.2,18.2c-0.2,7.3,0,14.5,0,21.8c0,37.4,0,74.9,0,112.3c0,57,0,114.1,0,171.1
			c0,64.3,0,128.6,0,192.9c0,58.4,0,116.7,0,175.1c0,40.1,0,80.2,0,120.3c0,9.1,0,18.2,0,27.3c0,11.7,6.7,20.5,19.2,20.7
			c35.9,0.6,71.9,0,107.9,0c62.4,0,124.9,0,187.3,0c49.7,0,99.5,0,149.2,0c7.6,0,15.2,0,22.9,0c0.4,0,0.8-0.1,1.2-0.2
			c14.4-1.8,16.1-13.8,16.1-25.5c0-11.4,0-22.8,0-34.3c0-43.4,0-86.9,0-130.3c0-59.9,0-119.8,0-179.8c0-63.9,0-127.7,0-191.6
			c0-55.3,0-110.6,0-165.9c0-33.7,0-67.3,0-101C503.9,28.3,504.2,23.2,503.8,18.2z M486.6,852.8c-28.3,0-56.6,0-84.9,0
			c-59.9,0-119.8,0-179.7,0c-54,0-108,0-162,0c-13.1,0-26.1,0-39.2,0c-5.6,0-11-1.3-11.7-8.3c-0.2-1.5,0-3,0-4.5c0-26.5,0-53,0-79.5
			c0-50,0-100,0-149.9c0-61.8,0-123.6,0-185.4c0-61.4,0-122.7,0-184.1c0-48.9,0-97.7,0-146.6c0-24.2-0.8-48.6,0-72.7
			c0.2-5.3,1.6-10.1,8.3-10.8c2.2-0.2,4.5,0,6.7,0c14.8,0,29.6,0,44.5,0c55.6,0,111.3,0,166.9,0c58.9,0,117.8,0,176.7,0
			c18.9,0,37.9,0,56.8,0c8.1,0,24.7-3.1,25.9,8.4c0.5,5.2,0,10.8,0,16.1c0,13.5,0,27.1,0,40.6c0,45.5,0,91.1,0,136.6
			c0,60.1,0,120.2,0,180.3c0,62.6,0,125.2,0,187.7c0,52.8,0,105.6,0,158.4c0,31.4,0,62.7,0,94.1C494.8,840.3,496.9,852,486.6,852.8z
			"/>
		<path d="M460,790.9c1.2,0.1,2.4-0.7,2.4-2.2c0-23.7,0-47.4,0-71.1c0-56.4,0-112.8,0-169.2c0-68.7,0-137.4,0-206
			c0-59,0-117.9,0-176.9c0-19.6,0-39.2,0-58.8c0-8.9,1.3-19,0-27.9c-0.1-0.4,0-0.8,0-1.2c0-0.8-0.3-1.3-0.8-1.7
			c0.1-1.2-0.6-2.5-2.2-2.6c-13.1-0.5-25.3-13.8-25.8-26.7c0-0.5-0.2-0.8-0.4-1.1c-0.3-0.6-1-1.1-1.9-1.1c-40.5,0-80.9,0-121.4,0
			c-64.5,0-129,0-193.6,0c-14.9,0-29.7,0-44.6,0c-0.9,0-1.6,0.5-1.9,1.1c-0.2,0.3-0.3,0.7-0.4,1.2C69.1,59.5,57,72.8,43.9,73.3
			c-1.8,0.1-2.5,1.9-2,3.2c-0.2,0.3-0.2,0.6-0.2,1c0,23.7,0,47.4,0,71.1c0,56.4,0,112.8,0,169.2c0,68.7,0,137.4,0,206
			c0,59,0,117.9,0,176.9c0,19.6,0,39.2,0,58.8c0,8.9-1.3,19,0,27.9c0.1,0.4,0,0.8,0,1.2c0,0.9,0.5,1.6,1.1,1.9
			c0.3,0.2,0.7,0.3,1.2,0.4c13,0.5,25.3,13.3,25.8,26.2c0,0.5,0.2,0.8,0.4,1.1c0.3,0.6,1,1.1,1.9,1.1c40.5,0,80.9,0,121.4,0
			c64.5,0,129,0,193.6,0c14.9,0,29.7,0,44.6,0c0.9,0,1.6-0.5,1.9-1.1c0.2-0.3,0.3-0.7,0.4-1.2c0.5-12.9,12.7-25.7,25.8-26.2
			C459.6,791,459.8,790.9,460,790.9z M429.3,814.9c-39.8,0-79.6,0-119.3,0c-64.5,0-129,0-193.6,0c-14.2,0-28.3,0-42.5,0
			c-1.7-13.9-13.9-26.5-27.8-28.3c0-23,0-46,0-69.1c0-56.4,0-112.8,0-169.2c0-68.7,0-137.4,0-206c0-59,0-117.9,0-176.9
			c0-19.6,0-39.2,0-58.8c0-8.9,1.3-19,0-27.9c-0.1-0.4,0-0.8,0-1.2c14-1.8,26.1-14.9,27.8-28.7c39.8,0,79.5,0,119.3,0
			c64.5,0,129,0,193.6,0c14.2,0,28.3,0,42.5,0c1.7,14.1,14.3,27.4,28.5,28.8c0,23.7,0,47.3,0,71c0,56.4,0,112.8,0,169.2
			c0,68.7,0,137.4,0,206c0,59,0,117.9,0,176.9c0,19.6,0,39.2,0,58.8c0,8.6-1.2,18.4-0.1,27C443.6,788.1,431.1,800.9,429.3,814.9z"/>
		<path d="M235.8,86.7c0-0.2,0-0.4-0.1-0.6c-0.1-0.4-0.3-0.4-0.6-0.1c-0.1,0.1,0,0.4,0.3,0.8l0.4,0.7L235.8,86.7z"/>
		<path d="M251.9,103.4c0.1,0.3,0.3,0.3,0.6-0.1c0.3-0.3,0.8-0.4,1.5-0.3l1.1,0.2v-0.9c0-0.5-0.1-0.8-0.2-0.9
			c-0.1-0.2-0.4-0.3-0.9-0.5c-0.7-0.3-1.1-0.5-1.1-0.6c0-0.1-0.3-0.3-0.8-0.6c-0.5-0.3-0.8-0.5-0.8-0.7c0-0.4-0.1-0.7-0.4-1.2
			c-0.3-0.4-0.5-0.6-0.7-0.6c-0.1,0-0.3-0.3-0.5-0.8c-0.2-0.6-0.4-0.8-0.6-0.8c-0.2,0-0.4-0.2-0.5-0.5c-0.1-0.4-0.6-0.9-1.4-1.8
			c-0.8-0.8-1.3-1.3-1.5-1.3c-0.1,0-0.2-0.1-0.2-0.4c0-0.8,0.4-1.7,1.2-2.6c0.6-0.6,0.9-1.1,0.9-1.4c0-0.2,0.3-0.6,0.8-1.1
			c0.5-0.5,0.9-0.8,1.1-0.8c0.2,0,0.3-0.2,0.3-0.5c0-0.9,0.3-1.4,0.8-1.4c0.3,0,0.5-0.1,0.5-0.3c0-0.2,0.2-0.4,0.5-0.7
			c0.3-0.2,0.6-0.4,0.9-0.4c0.4,0,0.6-0.2,0.9-0.6L254,81l0.2,0.6c0.1,0.4,0.3,0.6,0.6,0.6c0.2,0,0.4-0.2,0.5-0.5
			c0.1-0.4,0.4-0.6,0.7-0.6c0.2,0,0.4-0.1,0.5-0.2c0.1-0.1,0.1-0.4,0.1-0.9c0-1-0.1-1.6-0.4-1.7c-0.2-0.2-1.1-0.2-2.4-0.2
			c-1.6,0-2.4,0.1-2.4,0.4s-0.7,0.4-2,0.6c-2,0.1-2.9,0.6-2.9,1.4c0,0.3,0.1,0.7,0.3,1.1c0.2,0.4,0.4,0.6,0.6,0.6
			c0.2,0,0.4,0.2,0.7,0.6c0.3,0.4,0.2,0.8-0.1,1.1c-0.4,0.4-0.4,0.5-0.3,0.5c0.1,0,0.1,0.2-0.3,0.7c-0.3,0.4-0.4,0.8-0.4,1.2
			c0,0.2-0.2,0.6-0.7,1.1c-0.5,0.5-0.7,0.9-0.7,1c0,0.3-0.3,0.4-0.9,0.4c-0.4,0-0.7,0-0.8-0.1s-0.2-0.4-0.3-0.8
			c-0.1-0.7-0.4-1.1-0.7-1.4c-0.4-0.2-0.6-0.6-0.6-1.1c0-0.5-0.1-0.8-0.4-1c-0.2-0.1-0.4-0.5-0.6-1.2c-0.1-0.7-0.2-1.2-0.2-1.5
			s0.1-0.5,0.2-0.5c0.1-0.1,0.4-0.1,0.7-0.2c0.5-0.1,0.8-0.1,1-0.2c0.2-0.1,0.3-0.3,0.3-0.6c0-0.2,0-0.5-0.1-0.6l-0.2-0.9l-2.4,0.2
			c-1.6,0.1-2.4,0.2-2.5,0.4c-0.1,0.2-0.4,0.3-0.8,0.3c-0.4,0-0.6-0.1-0.6-0.3c0-0.2-0.2-0.3-0.5-0.5c-0.4-0.2-0.7-0.2-1.1-0.2
			c-0.6,0-0.9,0.2-0.9,0.6c0,0.2-0.2,0.4-0.7,0.4c-0.2,0-0.4,0.1-0.4,0.2c0.2,0.1,0.4,0.3,0.4,0.6c0,0.4,0.1,0.5,0.4,0.5
			c0.2,0,0.4,0.1,0.6,0.4c0.1,0.3,0.5,0.5,1.1,0.6c0.7,0.1,1.1,0.4,1.3,0.8c0.2,0.4,0.4,0.6,0.7,0.6c0.2,0,0.3,0.3,0.3,0.8
			c0,0.6,0.1,0.8,0.4,0.8s0.4,0.2,0.4,0.5c0,0.4,0.2,0.7,0.6,0.9c0.2,0.2,0.4,0.4,0.3,0.6c0,0.2,0.1,0.4,0.3,0.5
			c0.3,0.1,0.6,0.4,0.7,0.9c0.3,0.6,0.5,0.8,0.6,0.8c0.1,0,0.2,0.2,0.2,0.5c0,0.3,0.2,0.5,0.6,0.7c0.3,0.1,0.4,0.3,0.4,0.6
			c0,0.1,0,0.3-0.1,0.5c-0.1,0.2-0.1,0.4-0.1,0.6c0,0.2-0.2,0.4-0.5,0.5c-0.4,0.1-0.6,0.4-0.7,1c-0.1,0.6-0.3,0.8-0.4,0.8
			c-0.2,0-0.6,0.3-1.1,0.9s-0.8,1.1-0.8,1.3c0,0.3-0.1,0.5-0.4,0.5s-0.4,0.1-0.4,0.4s-0.2,0.5-0.7,0.7c-0.5,0.2-0.7,0.6-0.7,1.2
			c0,0.3,0,0.5-0.1,0.6c-0.1,0.1-0.2,0.2-0.4,0.2s-0.6,0.1-1.2,0.1c-0.9,0.1-1.5,0.2-1.8,0.4c-0.2,0.2-0.4,0.7-0.4,1.5
			c0,0.7,0.1,1,0.4,1c0.1,0,0.3-0.1,0.4-0.4c0.1-0.2,1.2-0.4,3.4-0.4c1.4,0,2.3,0,2.7,0.1c0.4,0.1,0.6,0.2,0.6,0.4
			c0,0.3,0.1,0.4,0.3,0.1c0.2-0.2,0.4-0.3,0.5-0.2c0,0,0.1,0.1,0.2,0.1c0.2,0,0.4-0.1,0.7-0.4c0.3-0.2,0.4-0.5,0.5-0.8
			s0.1-0.5-0.1-0.6c-0.1-0.1-0.4-0.2-0.9-0.2c-1.2-0.2-1.8-0.6-1.8-1.2c0-0.2,0.1-0.3,0.4-0.3c0.3,0,0.4-0.2,0.4-0.7
			c0-0.5,0.1-0.7,0.4-0.7s0.4-0.1,0.4-0.4c0-0.2,0.2-0.5,0.7-1c0.5-0.4,0.7-0.7,0.6-0.8v-0.3c0-0.5,0.1-1,0.4-1.5
			c0.3-0.5,0.6-0.7,0.9-0.7c0.1,0,0.2,0,0.2,0.1c0.3,0.1,0.5,0.3,0.5,0.6c0,0.2,0.3,0.6,0.8,1.3c0.5,0.7,0.8,1.1,0.8,1.2
			c0,0.2,0.1,0.3,0.4,0.4c0.2,0.1,0.4,0.4,0.5,0.9c0.1,0.3,0.2,0.5,0.3,0.7c0.2,0.1,0.4,0.2,0.8,0.3l0.9,0.3l-0.9,0.1
			c-0.6,0.1-0.9,0.3-0.9,0.6c0,0.8-0.5,1.2-1.4,1.2c-0.3,0-0.5,0-0.6,0.1c-0.1,0.1-0.2,0.3-0.2,0.6v0.7h3.6
			C250.6,102.9,251.8,103.1,251.9,103.4z M240,81c0,0-0.1-0.1-0.1-0.3c0-0.1,0-0.2,0-0.3c0-0.1,0-0.1,0.1-0.1l0.1,0.2
			C240.2,80.8,240.1,81,240,81z M240.6,85.6c-0.1,0-0.1-0.1-0.1-0.2c0-0.1,0-0.1,0.1-0.1c0.1,0,0.2,0,0.2,0.1
			C240.8,85.5,240.7,85.6,240.6,85.6z M241.1,87.4l-0.1-0.3c0-0.1,0-0.2,0-0.3c0-0.1,0-0.1,0.1-0.1C241.3,87,241.2,87.2,241.1,87.4z
			 M244.3,93.6c-0.2,0-0.3-0.1-0.3-0.3c0-0.2,0.1-0.3,0.3-0.3s0.3,0.1,0.3,0.3C244.6,93.5,244.5,93.6,244.3,93.6z"/>
		<path d="M270.2,102.8c0.4-0.2,0.6-0.4,0.6-0.6c0-0.9-0.7-1.4-1.9-1.5l-1.3-0.1l0.1-6.7c0.1-4.5,0.2-6.8,0.3-7
			c0.1-0.1,0.2-0.8,0.3-1.9c0.1-2.1,0.4-3.2,0.7-3.2c0.2,0,0.4-0.1,0.4-0.3c0-0.2,0.2-0.3,0.7-0.3c0.4,0,0.8-0.1,1-0.3
			c0.3-0.2,0.4-0.5,0.4-0.7c0-0.3-0.2-0.6-0.5-0.8c-0.3-0.2-1.4-0.3-3.4-0.3c-2,0-2.9,0.1-2.9,0.3c0,0.1-0.3,0.2-0.9,0.2
			c-0.6,0-0.9,0.1-0.9,0.4c0,0.3-0.1,0.4-0.3,0.4c-0.2,0-0.3,0.2-0.3,0.6c0,0.5,0.1,0.8,0.4,0.9c0.3,0.1,0.4,0.9,0.4,2.5
			c0,1.6,0.1,2.4,0.3,2.5c0.2,0.1,0.3,0.8,0.3,2.2c0,1.3-0.1,2-0.3,2.1c-0.2,0.1-0.4,1.5-0.4,4.3c-0.1,2.4-0.2,3.9-0.4,4.3
			c-0.2,0.5-0.8,0.8-1.8,0.9c-0.6,0-0.9,0.1-1,0.2c-0.1,0.1-0.2,0.4-0.2,0.8c0,0.6,0.1,0.9,0.4,0.9c0.3,0,0.6,0.1,0.9,0.4
			c0.3,0.3,0.5,0.4,0.6,0.2c0.1-0.2,1.5-0.4,4-0.4c2.1,0,3.2,0.1,3.2,0.3c0,0.2,0.2,0.3,0.5,0.3c0.4,0,0.6-0.1,0.6-0.2
			C269.6,103.1,269.8,103,270.2,102.8z M264.2,96.6c-0.3,0-0.4-0.1-0.4-0.3c0-0.2,0.1-0.3,0.4-0.3c0.2,0,0.4,0.1,0.4,0.3
			C264.6,96.5,264.5,96.6,264.2,96.6z M265.9,89.2c-0.3,0-0.4-0.2-0.4-0.5c0-0.4,0.1-0.6,0.4-0.6c0.3,0,0.4,0.2,0.4,0.6
			C266.3,89,266.2,89.2,265.9,89.2z"/>
		<path d="M185.1,789.5c0-0.6-0.1-0.9-0.2-1.1c-0.1-0.2-0.3-0.4-0.6-0.5c-0.3-0.1-0.5-0.3-0.5-0.4c-0.1-0.1-0.3-0.3-0.9-0.6
			c-0.5-0.3-1-0.5-1.3-0.6c-0.2-0.1-0.5-0.2-0.9-0.5c-0.4-0.3-0.6-0.4-0.6-0.5c0-0.1-0.1-0.2-0.2-0.3c-0.2-0.1-0.2-0.2-0.2-0.3
			c0,0,0-0.1,0-0.1c0.1-0.1,0.1-0.2,0.1-0.3c0-0.1,0-0.3-0.1-0.6c0-0.1,0-0.2,0-0.2c0,0,0.2-0.1,0.3-0.1c0.3,0,0.4-0.1,0.4-0.2
			c0-0.1,0.1-0.2,0.4-0.4c0.3-0.2,0.4-0.3,0.4-0.3c0-0.1,0.1-0.1,0.4-0.2c0.1,0,0.1,0,0.2,0c0.4,0,0.8,0.2,1.2,0.5s0.7,0.6,0.7,0.9
			c0,0.2,0.1,0.4,0.3,0.5c0.2,0.1,0.3,0.3,0.3,0.4c0,0.1,0.1,0.3,0.2,0.5c0.2,0.2,0.3,0.3,0.4,0.3c0,0,0,0,0.1,0
			c0.1-0.1,0.1-0.7,0.2-2v-0.8c0-0.6-0.1-0.9-0.2-0.9c-0.1,0-0.1,0-0.1,0c-0.3,0.1-0.6,0.2-0.8,0.2c-0.3,0-0.6-0.1-1-0.3
			c-0.4-0.2-0.6-0.3-0.7-0.3c0,0-0.1,0-0.2,0.1c-0.3,0.1-0.6,0.1-0.8,0.1c-0.3,0-0.4,0-0.5,0.1c0,0.1-0.1,0.2-0.3,0.2
			c-0.2,0-0.4-0.1-0.5-0.2c-0.1-0.1-0.3-0.2-0.5-0.2h0c-0.1,0-0.1,0-0.1,0c-0.1,0-0.1,0-0.1,0c0,0,0.1,0,0.1,0
			c0.1,0.1,0.2,0.1,0.2,0.2c0,0.2-0.2,0.3-0.5,0.4c-0.3,0.1-0.4,0.2-0.4,0.4c0.1,0.2,0,0.3-0.2,0.4c-0.3,0.1-0.6,0.5-1.1,1.1
			c-0.1,0.2-0.2,0.4-0.2,0.6c0,0,0,0.3,0.1,0.8c0.1,0.7,0.3,1.1,0.4,1.3c0.1,0.2,0.4,0.4,0.7,0.7c0.4,0.3,0.6,0.4,0.8,0.4
			c0.1,0,0.3,0.1,0.6,0.4c0.4,0.3,0.9,0.6,1.7,0.8c0.5,0.1,0.8,0.3,1.1,0.6c0.2,0.2,0.3,0.4,0.5,0.7c0.1,0.3,0.2,0.5,0.2,0.7
			c0,0.1,0,0.1-0.1,0.2c-0.1,0-0.1,0.2-0.1,0.4c0.1,0.2,0,0.4-0.2,0.6c-0.1,0.1-0.2,0.3-0.2,0.4c0,0.2-0.5,0.4-1.4,0.5
			c-0.1,0-0.3,0-0.6,0c-0.9,0-1.7-0.4-2.2-1.2c-0.3-0.4-0.5-0.8-0.5-1c0,0,0-0.1,0-0.2c0-0.1,0-0.2,0-0.2c0,0-0.1-0.1-0.1-0.1
			c-0.1,0-0.1,0-0.1-0.1c0.1-0.3-0.1-0.5-0.4-0.6c-0.1,0-0.2-0.1-0.3-0.1c-0.3,0-0.4,0.2-0.5,0.5c-0.1,1.2-0.1,1.9-0.2,1.9
			c-0.1,0.1-0.1,0.4-0.2,0.8c0,0.1,0,0.3,0,0.4c0,0.2,0.1,0.4,0.3,0.6c0.1,0.1,0.2,0.2,0.3,0.2c0,0,0.1,0,0.2-0.2
			c0.1-0.2,0.2-0.3,0.2-0.4c0-0.3,0.2-0.3,0.5-0.1c0.9,0.5,1.8,0.7,2.9,0.7c0.5,0,1.1-0.1,1.6-0.2c0.6-0.1,1.1-0.3,1.4-0.6
			c0.3-0.3,0.5-0.5,0.5-0.5c0-0.1,0.1-0.2,0.2-0.3c0.2-0.1,0.3-0.4,0.3-0.9c0.1-0.5,0.1-0.7,0.2-0.7s0.1,0,0-0.1
			C185.2,790.6,185.1,790.2,185.1,789.5z M180.7,788C180.6,788,180.6,787.9,180.7,788c-0.1-0.1-0.1-0.1,0-0.1S180.8,787.9,180.7,788
			C180.8,787.9,180.7,788,180.7,788z"/>
		<path d="M179.2,788.7c0-0.1,0-0.2-0.1-0.2c-0.1,0-0.1,0-0.1,0.1l0.1,0.2C179.1,789,179.2,788.9,179.2,788.7z"/>
		<path d="M203.9,785.3c0.1,0,0.2-0.2,0.2-0.5c0-0.2,0-0.4-0.1-0.4c-0.1,0-0.1-0.1-0.1-0.3c0-0.2,0.1-0.4,0.2-0.6
			c0.1-0.3,0.1-0.5-0.2-0.6c-0.2-0.2-0.5-0.3-0.9-0.3c-0.5,0-0.8,0.1-1.1,0.4c-0.3,0.2-0.4,0.3-0.5,0.2c-0.1-0.1-0.4-0.1-0.8,0
			c-0.5,0.1-1.4,0.2-2.6,0.2c-0.9,0-1.4,0-1.5-0.1c-0.1-0.1-0.2,0-0.4,0.2c-0.1,0.1-0.3,0.2-0.4,0.2c-0.2,0-0.4,0-0.7-0.1
			c-0.7-0.2-1.1-0.2-1.3-0.2c-0.1,0-0.2,0-0.2,0c-0.1,0-0.3,0.1-0.4,0.3c-0.1,0.2-0.2,0.4-0.2,0.5c0,0.1,0,0.1,0.1,0.2
			c0,0,0.1,0.2,0.1,0.5c0,0.1,0,0.2-0.1,0.3c-0.1,0-0.2,0.1-0.3,0.1c-0.3,0-0.5,0.1-0.5,0.3c0,0,0,0.1,0.1,0.2
			c0.1,0.1,0.1,0.3,0.1,0.6c0,0.3-0.1,0.4-0.1,0.5c0,0.5,0.2,0.8,0.6,0.8c0.3,0,0.4-0.1,0.4-0.2c0-0.1,0.1-0.2,0.2-0.2
			c0.1,0,0.1,0,0.2-0.1c0,0,0-0.1,0-0.2c0-0.1-0.1-0.2-0.2-0.2c-0.1-0.1-0.1-0.1-0.1-0.2c0,0,0-0.1,0-0.1c0,0,0-0.1,0.1-0.1
			c0,0,0.1,0,0.2-0.1c0.2-0.1,0.2-0.2,0.2-0.3c0,0,0-0.1,0-0.2c0-0.1,0-0.1,0-0.2c0-0.1,0-0.2,0.1-0.2c0.1-0.1,0.1-0.3,0-0.6
			c-0.1-0.3-0.1-0.4,0-0.4c0.1,0,0.1,0.1,0.1,0.2c0,0.1,0.2,0.2,0.5,0.4c0.4,0.1,0.7,0.2,1.1,0.2c0.4,0,0.7,0.1,0.8,0.3
			c0.2,0.2,0.3,0.2,0.5,0.2c0.1,0,0.1,0,0.1,0c0.1,0,0.1,0,0,0.1c-0.3,0.3-0.4,2.2-0.5,5.8c0,0.8-0.1,1.2-0.3,1.4
			c-0.2,0.1-0.3,0.3-0.3,0.4c0,0.1-0.3,0.2-0.8,0.2l-0.7,0.1l-0.1,0.5c0,0,0,0.1,0,0.1c0,0,0,0.1,0,0.1c0,0.2,0.1,0.4,0.4,0.7
			c0.3,0.3,0.5,0.4,0.7,0.4c0.1,0,0.1,0,0.1-0.1c0-0.1,0-0.1-0.1-0.1c-0.1,0-0.1,0-0.1-0.1c0-0.1,0.2-0.1,0.5-0.1c0.1,0,0.4,0,0.8,0
			c0.4,0,0.7,0,0.9,0c0.6,0,0.9-0.1,1.1-0.2c0.1-0.1,0.3-0.2,0.6-0.1c0.2,0.1,0.3,0,0.4-0.1c0.1-0.1,0.2-0.1,0.3-0.1
			c0.1,0,0.3-0.1,0.5-0.2c0.1-0.1,0.2-0.2,0.2-0.3c0-0.1-0.1-0.2-0.2-0.5c-0.2-0.3-0.3-0.4-0.5-0.4c-0.1,0-0.2-0.1-0.2-0.2
			c0-0.1-0.1-0.2-0.3-0.1c0,0-0.1,0-0.1,0c-0.1,0-0.1,0-0.1,0c-0.1,0-0.2,0-0.3-0.1c0-0.1-0.1-0.3-0.1-0.5v-0.4c0-0.5,0-0.8,0-0.9
			c0-0.1,0.1-0.2,0.2-0.2c0.2,0,0.2-0.1,0.2-0.4c0-0.3-0.1-0.5-0.2-0.5c-0.1,0-0.2-0.4-0.2-1.1c0-0.8,0.1-1.2,0.2-1.4
			c0.1-0.1,0.2-0.5,0.2-1.2c0-0.7,0.1-1,0.1-1.1c0.1-0.2,0.5-0.2,1.2-0.2c1,0,1.5,0.1,1.6,0.4c0,0.1,0.1,0.2,0.4,0.5
			c0.2,0.2,0.3,0.4,0.3,0.8c0,0.3,0.1,0.5,0.1,0.5c0,0.1,0.2,0.1,0.4,0.1c0.2,0,0.4,0,0.4-0.1c0-0.1,0.1-0.2,0.3-0.2
			c0.2-0.1,0.3-0.2,0.3-0.4c0-0.2-0.1-0.4-0.2-0.5C203.8,785.4,203.8,785.3,203.9,785.3z"/>
		<path d="M212.9,779.5c0.2,0,0.3-0.1,0.3-0.2c0-0.1-0.1-0.1-0.3-0.1c-0.2,0-0.3,0-0.3,0.1C212.7,779.5,212.8,779.5,212.9,779.5z"/>
		<path d="M217.6,780.4C217.6,780.4,217.6,780.4,217.6,780.4c0.1-0.1,0.2-0.1,0.1-0.1c0,0-0.1,0-0.3,0c-0.2,0-0.3,0.1-0.3,0.2
			C217.2,780.5,217.4,780.5,217.6,780.4z"/>
		<path d="M224.6,792.7c-0.1,0-0.2-0.1-0.3-0.4c-0.1-0.2-0.3-0.4-0.5-0.4c-0.2,0-0.4-0.1-0.6-0.2c-0.2-0.1-0.4-0.2-0.4-0.4
			c-0.1-0.1-0.1-0.2-0.3-0.2s-0.3-0.1-0.6-0.4c-0.2-0.3-0.4-0.6-0.6-0.9c-0.1-0.3-0.4-0.6-0.8-1.1c-0.4-0.5-0.7-0.7-0.8-0.7
			c-0.1,0-0.2-0.1-0.4-0.3c-0.1-0.1-0.2-0.2-0.1-0.3c0,0,0.1-0.1,0.3-0.2c0.8-0.3,1.2-0.6,1.2-0.9c0-0.5,0.1-0.7,0.3-0.7
			c0.1,0,0.2-0.1,0.4-0.2c0.2-0.2,0.2-0.7,0.2-1.5c0-1-0.1-1.5-0.3-1.7c-0.1-0.1-0.2-0.2-0.4-0.2c-0.1,0-0.2,0-0.2-0.1
			c0-0.1-0.1-0.2-0.4-0.3c-0.3-0.1-0.4-0.3-0.5-0.5l-0.2-0.3c-0.1-0.1-0.2-0.1-0.2,0.1c0,0.1-0.3,0.1-0.8,0.1c-0.6,0-0.9,0-0.9-0.1
			c0-0.1-0.1-0.1-0.4-0.1c-0.3,0-0.5-0.1-0.6-0.3c-0.2-0.2-0.3-0.3-0.4-0.3s-0.2,0.1-0.1,0.3c0,0,0,0,0,0.1v0.1
			c0,0.1-0.6,0.2-1.8,0.2h-1.9l-0.5,0.5c-0.3,0.3-0.5,0.6-0.5,0.7c0,0.1,0.2,0.2,0.5,0.3c0.3,0.1,0.5,0.1,0.5,0.2
			c0,0.1,0,0.1,0.1,0.1c0.2,0,0.4,0.2,0.6,0.5c0.2,0.3,0.3,0.7,0.3,1.2c0,0.4,0.1,0.6,0.1,0.6c0,0.2-0.1,0.4-0.2,0.5
			c-0.2,0.1-0.2,0.2-0.1,0.3c0.1,0.1,0.2,0.3,0.2,0.7c0,0.3-0.1,0.5-0.2,0.5c-0.1,0-0.2,0,0,0.1c0.1,0.1,0.2,0.2,0.2,0.4
			c0,0.2-0.1,0.4-0.2,0.5c-0.1,0.1-0.1,0.3,0.1,0.4c0.1,0.1,0.2,0.3,0.2,0.4c0,0.1-0.1,0.3-0.2,0.4c-0.2,0.2-0.3,0.7-0.3,1.6
			c0,0.7,0,1.1-0.1,1.2c0,0.1-0.1,0.2-0.3,0.3c-0.2,0.1-0.3,0.1-0.3,0.2c0,0.1-0.3,0.1-0.8,0.1c-0.4,0-0.6,0.1-0.7,0.1
			c-0.1,0.1-0.1,0.2-0.1,0.5c0,0.2,0.2,0.5,0.6,0.8c0.2,0.1,0.3,0.2,0.5,0.2c0.2,0,0.3-0.1,0.3-0.2c0.1-0.1,0.8-0.2,2.1-0.2
			c1.3,0,2.1-0.1,2.2-0.3c0.1-0.1,0.2-0.2,0.3-0.2c0.1,0,0.2-0.1,0.2-0.2c0-0.1-0.1-0.2-0.4-0.2c-0.3,0-0.4-0.1-0.5-0.3
			c0-0.2-0.2-0.3-0.5-0.4c-0.4-0.1-0.5-0.2-0.5-0.4c0-0.1,0-0.2,0.1-0.3c0.2-0.2,0.2-0.3,0.1-0.4c-0.1,0-0.2-0.6-0.2-1.6
			c0-0.3,0-0.6,0-1c0-0.3,0-0.4,0.1-0.5c0-0.1,0.1-0.1,0.2-0.1c0.5,0,1,0.2,1.5,0.5c0.5,0.4,0.8,0.7,0.8,1c0,0.2,0.1,0.3,0.2,0.3
			s0.2,0.1,0.2,0.4c0,0.5,0.3,0.8,0.8,1c0.2,0.1,0.4,0.3,0.5,0.7c0.1,0.4,0.3,0.8,0.7,1.2l0.6,0.7l0.9-0.1c0.1,0,0.3,0,0.6-0.1
			c0.3,0,0.6,0,0.8-0.1c0.2,0,0.4-0.1,0.7-0.1c0.3-0.1,0.4-0.1,0.6-0.2c0.1-0.1,0.2-0.2,0.2-0.3
			C224.7,792.8,224.6,792.7,224.6,792.7z M218.9,785.9c-0.1,0-0.2,0-0.2,0.1c-0.1,0-0.1,0,0,0.1c0.2,0,0.2,0.1,0.2,0.2
			c0,0.1-0.1,0.3-0.4,0.4c-0.2,0.2-0.5,0.3-0.7,0.3c-0.3,0-0.6,0.1-1.1,0.2c-0.1,0-0.2,0-0.3,0c-0.2,0-0.4-0.1-0.7-0.3
			c-0.2-0.2-0.3-0.3-0.4-0.3c0-0.1,0-0.1,0.1-0.2c0.1-0.1,0.2-0.7,0.2-1.6v-1.2c0-0.3,0.1-0.5,0.2-0.7c0.1-0.2,0.3-0.4,0.4-0.4h0.1
			l0.4,0.1c0.3,0,0.5,0.1,0.8,0.1c0.2,0.1,0.4,0.1,0.4,0.1c0,0.1,0.1,0.1,0.4,0.2c0.3,0.1,0.4,0.2,0.4,0.3c0,0.1,0.1,0.3,0.2,0.4
			c0.1,0.1,0.2,0.2,0.1,0.3c-0.1,0.1-0.1,0.3,0.1,0.6c0.1,0.2,0.2,0.5,0.2,0.8v0.1c0,0.2-0.1,0.4-0.1,0.4
			C219.2,785.8,219.1,785.9,218.9,785.9z"/>
		<path d="M231.7,792.1c0,0,0.1,0,0.1-0.1c0.1-0.2,0.1-0.3,0-0.3c-0.1,0-0.2,0.1-0.2,0.2C231.6,792,231.6,792.1,231.7,792.1z"/>
		<path d="M241.9,790.2c-0.1,0-0.3,0.2-0.5,0.5c-0.3,0.3-0.4,0.6-0.4,0.7c0,0.1-0.1,0.2-0.4,0.2c-0.1,0-0.2,0-0.3,0.1
			c0,0-0.1,0.1-0.1,0.1c0,0,0,0.1,0,0.3c0,0.2-0.1,0.3-0.4,0.3c0,0-0.1,0-0.1,0c-0.1,0-0.1,0-0.2,0c-0.2,0-0.4,0.1-0.6,0.3
			c-0.2,0.2-0.4,0.3-0.6,0.3c-0.1,0-0.2-0.1-0.2-0.2c0-0.1-0.1-0.1-0.4,0c-0.2,0.1-0.6,0.2-1.2,0.2c-0.5,0-0.7,0-0.7-0.1
			c0-0.1-0.1-0.1-0.2-0.1c-0.1,0-0.1-0.1-0.2-0.2c-0.1-0.2-0.1-0.3-0.1-0.4c0-0.1,0-0.2,0-0.3s0-0.4,0-0.6c0-0.3,0-0.5,0-0.8
			c0-0.3,0-0.5,0-0.8c0-0.3,0-0.5,0-0.6v-0.2c0-0.1,0.4-0.1,1.3-0.1c0.7,0,1.2,0.1,1.4,0.2c0.2,0.1,0.4,0.4,0.4,0.8
			c0,0.2,0,0.3,0.1,0.3c0,0,0.1,0,0.2,0c0.1-0.1,0.3-0.1,0.5-0.1c0.1,0,0.2,0,0.3-0.1c0-0.1,0.1-0.2,0.1-0.5c0-0.1,0-0.2,0-0.3
			c0-0.2,0-0.3,0-0.4v-0.2c0-0.3,0-0.6,0.1-0.7c0.1-0.1,0.1-0.3,0-0.4c-0.1-0.1-0.1-0.3,0.1-0.4c0.1-0.1,0.2-0.2,0.2-0.4
			c0-0.3-0.3-0.4-1-0.4c-0.4,0-0.6,0.2-0.6,0.5c0,0.1,0,0.2,0.1,0.3c0,0.2,0,0.4,0,0.5c-0.1,0.1-0.3,0.2-0.9,0.3
			c-0.5,0.1-1,0.1-1.5,0.1h-0.6v-0.6c0-0.4,0.1-0.6,0.2-0.6c0.1,0,0.2-0.1,0.2-0.4c0-0.3-0.1-0.5-0.2-0.9c-0.1-0.2-0.2-0.4-0.1-0.4
			c0-0.1,0.1-0.1,0.2-0.3c0.2-0.1,0.3-0.3,0.2-0.5c0,0,0-0.1,0-0.2c0-0.1,0.1-0.3,0.4-0.3c0.3-0.1,0.7-0.1,1.5-0.2
			c0.7,0,1.1-0.1,1.1-0.1c0.3,0,0.5,0.1,0.6,0.2c0.1,0.2,0.3,0.3,0.5,0.4c0.2,0.1,0.3,0.2,0.3,0.3c0,0.1,0.1,0.2,0.3,0.3
			c0.2,0.1,0.3,0.2,0.3,0.3c0,0.2,0.1,0.3,0.3,0.5c0.2,0.2,0.4,0.2,0.6,0.2h0c0.3,0,0.4-0.2,0.4-0.6c0-0.2-0.1-0.3-0.2-0.5
			c-0.1-0.1-0.2-0.3-0.2-0.5c0-0.3-0.1-0.5-0.2-0.5c-0.1,0-0.1-0.1,0-0.4c0.1-0.1,0.1-0.2,0.1-0.3c0,0-0.1-0.1-0.1-0.1
			c-0.1-0.1-0.2-0.2-0.2-0.3c0-0.1-0.1-0.3-0.3-0.5c-0.2-0.2-0.4-0.3-0.6-0.1c-0.3,0.1-1.8,0.3-4.7,0.4h-0.7c-1.5,0-2.2-0.1-2.3-0.3
			c0-0.1-0.1-0.1-0.2-0.1c-0.1,0-0.2,0-0.2,0.1l0,0.1c0,0.1,0,0.1,0,0.1c0,0,0,0.1,0,0.2c0,0.1,0,0.2,0,0.2c0,0.2-0.1,0.3-0.3,0.3
			c-0.2,0.1-0.3,0.2-0.2,0.5c0.1,0.2,0.1,0.4,0.2,0.5c0.1,0.1,0.2,0.1,0.3,0.1c0.1,0,0.3,0,0.4,0c0.1,0,0.2,0,0.4,0
			c0.3,0,0.5,0.1,0.6,0.4c0.1,0.2,0.1,0.7,0.1,1.4c0,0.9-0.1,1.4-0.2,1.4c-0.1,0-0.1,0.2,0,0.4c0.1,0.2,0.1,0.4,0,0.6
			c-0.1,0.2-0.2,0.3-0.3,0.3c-0.1,0-0.1,0.1,0.1,0.2c0.1,0.1,0.1,0.3,0.1,0.6c0,0.5-0.1,1.5-0.2,2.8l-0.1,0.9h-0.6
			c-0.4,0-0.6,0.1-0.6,0.3c0,0.2-0.1,0.3-0.3,0.3c-0.1,0-0.2,0.1-0.2,0.3c0,0.3,0.1,0.5,0.3,0.6c0.2,0.1,0.3,0.2,0.3,0.4
			c0,0.1,0.2,0.1,0.7,0.1c0.5,0,0.8-0.1,0.9-0.3c0.1-0.1,0.5-0.2,1.2-0.2c0.5,0,0.9,0,1.3,0c0.7,0,1.1,0.1,1.2,0.2
			c0,0.1,0.2,0.1,0.4,0c0.2-0.1,0.7-0.2,1.5-0.2c0.8,0,1.3,0,1.5-0.1c0.2,0,0.3-0.1,0.5-0.3c0.2-0.2,0.3-0.3,0.2-0.5
			c0-0.2,0-0.3,0.1-0.4c0.1-0.1,0.2-0.3,0.2-0.8c0-0.3,0-0.5,0-0.6c0-0.1,0.1-0.1,0.2-0.1c0.2,0,0.3-0.2,0.3-0.5
			c0-0.2-0.1-0.4-0.2-0.6C242.2,790.3,242,790.2,241.9,790.2z"/>
		<path d="M262.5,782c-0.1,0-0.2,0-0.3,0.1c-0.2,0.1-0.3,0.1-0.3,0.1c-0.1,0-0.1-0.1-0.2-0.2c-0.1-0.2-0.3-0.3-0.4-0.3
			c-0.1,0-0.2-0.1-0.2-0.3c0-0.2-0.1-0.3-0.3-0.3c-0.2,0-0.3,0.1-0.3,0.3c0,0.2,0.1,0.3,0.2,0.3s0.2,0.1,0.2,0.3
			c0,0.2-0.1,0.3-0.2,0.3c-0.2,0-0.3-0.1-0.3-0.4c-0.1-0.2-0.2-0.4-0.3-0.4c-0.1,0-0.1,0-0.2,0.1c-0.2,0.2-0.2,0.3,0,0.3
			c0.1,0,0.2,0.1,0.2,0.1c0,0.1-0.1,0.2-0.4,0.2c-0.2,0-0.4,0-0.4-0.1c0-0.1-0.1-0.1-0.4-0.1c-0.4,0-0.8,0.1-1.1,0.2
			c-0.4,0.2-0.6,0.4-0.6,0.7c0,0.3,0.3,0.5,0.8,0.6c0.4,0.1,0.6,0.1,0.6,0.2c0,0.1,0.1,0.1,0.3,0.1c0.3,0,0.5,0.2,0.6,0.6
			c0.1,0.4,0.2,1.2,0.2,2.4c0,1.4,0.1,2.2,0.1,2.4c0.1,0.1,0,0.3,0,0.6l-0.1,0.4l-0.5-0.5c-0.4-0.3-0.5-0.5-0.5-0.6
			c0-0.1-0.1-0.2-0.2-0.3c-0.1-0.1-0.3-0.2-0.4-0.4c-0.2-0.1-0.3-0.2-0.3-0.2c-0.1-0.1-0.3-0.2-0.3-0.2c-0.1,0-0.2-0.1-0.2-0.2
			c0-0.1-0.1-0.2-0.2-0.3c-0.1-0.1-0.3-0.2-0.4-0.2s-0.1-0.1-0.1-0.2c0-0.1-0.1-0.2-0.2-0.2c-0.1,0-0.1,0-0.1-0.1
			c0-0.1-0.1-0.2-0.4-0.5c-0.2-0.3-0.4-0.4-0.4-0.5c0-0.1-0.1-0.2-0.3-0.2c-0.2,0-0.3-0.1-0.5-0.2c-0.2-0.1-0.2-0.3-0.2-0.4
			c0-0.1-0.2-0.3-0.5-0.7c-0.3-0.4-0.5-0.6-0.5-0.7c0-0.1-0.1-0.2-0.3-0.4c-0.2-0.2-0.3-0.4-0.3-0.4c0-0.3-0.6-0.5-1.8-0.6
			c-0.6,0-0.9-0.1-0.9-0.1c-0.3,0-0.4,0.1-0.4,0.2c0,0.1,0,0.2,0,0.4c0,0.2,0,0.4,0.1,0.6c0.1,0.2,0.1,0.3,0.2,0.3
			c0.1,0,0.2,0.2,0.3,0.6c0.1,0.4,0.2,0.6,0.2,0.6c0.1,0,0.1,0.3,0.1,0.8c0,0.5,0,0.8-0.1,0.8c-0.1,0-0.1,0.1-0.1,0.4
			c0,0.2,0.1,0.6,0.2,1c0.1,0.2,0.1,0.6,0.1,1.1c0,0.7-0.1,1.1-0.2,1.1c-0.1,0-0.1,0.2-0.1,0.7c0,0.5,0,1.1-0.1,1.5
			c0,0.4-0.1,0.6-0.1,0.7c-0.1,0.1-0.2,0.2-0.4,0.2c-0.3,0.1-0.4,0.2-0.4,0.4c0,0.2,0.1,0.4,0.4,0.6c0.2,0.2,0.3,0.3,0.5,0.3
			c0.2,0,0.8,0,1.7,0c1,0,1.6,0,1.8-0.1c0.2-0.1,0.3-0.3,0.3-0.8c0-0.3-0.1-0.4-0.3-0.5c-0.2-0.1-0.3-0.1-0.3-0.2
			c0-0.1-0.2-0.1-0.6-0.1c-0.4,0-0.7-0.1-0.9-0.3c-0.2-0.2-0.2-0.3-0.1-0.4c0.1-0.1,0.2-0.2,0.2-0.6c0-0.3,0-0.5-0.1-0.5
			c-0.1-0.1-0.1-0.9-0.1-2.6c0-1.7,0.1-2.5,0.2-2.5c0.1,0,0.3,0.1,0.4,0.2c0.1,0.1,0.3,0.2,0.5,0.3c0.3,0.1,0.4,0.3,0.5,0.4
			c0,0.2,0.3,0.5,0.8,1.1c0.5,0.5,0.9,0.9,1.3,1.1c0.2,0.1,0.3,0.2,0.3,0.3c0,0.1,0.2,0.2,0.5,0.6c0.7,0.7,1.1,1.1,1.1,1.4
			c0,0.1,0.1,0.1,0.3,0.1c0.2,0,0.3,0,0.3,0.1c0,0.1,0.1,0.3,0.4,0.5c0.2,0.2,0.4,0.4,0.4,0.6c0,0.1,0.1,0.3,0.3,0.5
			c0.2,0.2,0.3,0.3,0.4,0.3c0.1,0,0.3,0.2,0.6,0.5c0.3,0.3,0.5,0.5,0.7,0.6c0.1,0.1,0.2,0.1,0.3,0.1c0.4,0,0.6-0.2,0.6-0.6
			c0-0.1,0-0.2,0-0.4c0-0.9-0.1-1.4-0.2-1.6c-0.1-0.1-0.1-0.5-0.1-1.3v-0.4c0-1,0-1.6-0.1-1.6c-0.1-0.1-0.2-0.4-0.2-1
			c0-0.5,0-0.8,0.1-0.8c0.1-0.1,0.2-0.2,0.2-0.5c0-0.3,0-0.4,0.1-0.4c0.1,0,0.1-0.1,0.1-0.4c0-0.3,0-0.4-0.1-0.4
			c-0.1,0-0.1-0.1-0.1-0.4c0-0.4,0.1-0.7,0.2-1c0.2-0.3,0.4-0.5,0.7-0.5c0.2,0,0.4-0.1,0.4-0.1c0.1,0,0.1-0.2,0.1-0.5v-0.2
			C262.8,782.3,262.7,782,262.5,782z"/>
		<path d="M279.6,788.6c-0.3,0-0.5,0-0.6,0c-0.7,0-1.2,0-1.4,0.1c-0.2,0.1-0.4,0.2-0.4,0.3c0,0.1-0.1,0.2-0.1,0.3
			c0,0.3,0.4,0.5,1.2,0.6c0.7,0.1,1.1,0.2,1.1,0.3c0,0-0.1,0.2-0.2,0.6c-0.1,0.3-0.3,0.5-0.5,0.5c-0.2,0-0.4,0.1-0.6,0.4
			c-0.2,0.3-0.3,0.3-0.4,0.2c-0.1-0.1-0.2-0.1-0.4,0.1c-0.2,0.2-0.5,0.2-0.8,0.2c-0.1,0-0.4,0-0.8-0.1c-0.7,0-1.1-0.1-1.3-0.2
			c-0.2-0.1-0.3-0.3-0.3-0.6c0-0.2-0.1-0.4-0.3-0.5c-0.2-0.1-0.3-0.2-0.3-0.4c0-0.2,0-0.2-0.1-0.2c-0.3,0-0.6-0.5-0.8-1.5
			c-0.1-0.7-0.2-1.1-0.3-1.1c-0.1,0-0.1-0.1-0.1-0.2c0-0.2,0-0.2,0.1-0.3c0.2,0,0.3-0.7,0.3-1.9c0-0.2,0.1-0.2,0.3-0.2
			c0.2,0,0.3-0.1,0.3-0.2c0-0.1,0-0.3-0.2-0.4c-0.1-0.1-0.1-0.2,0.1-0.2c0.2,0,0.4-0.1,0.7-0.2c0.2-0.1,0.4-0.3,0.4-0.4
			c0-0.1,0.1-0.3,0.3-0.4c0.2-0.1,0.5-0.2,0.7-0.2c0.2,0,0.3-0.1,0.3-0.2c0-0.1,0.2-0.2,0.7-0.3c0.1,0,0.1,0,0.2,0
			c0.1,0,0.1,0,0.2,0c0.6,0,1,0.2,1.2,0.5c0.1,0.2,0.3,0.3,0.6,0.4c0.3,0.1,0.4,0.2,0.4,0.3c0,0,0,0,0,0.1c0,0,0,0.1,0,0.1
			c0,0.1,0,0.2,0.1,0.3c0.1,0.1,0.2,0.2,0.3,0.5c0.1,0.2,0.1,0.3,0.2,0.4c0.1,0.1,0.3,0.1,0.5,0.2c0.1,0,0.2,0,0.4,0
			c0.1,0,0.2,0,0.2,0c0,0,0.1-0.1,0.1-0.1c0-0.1,0-0.1,0.1-0.2c0.1-0.3,0.1-0.6,0.1-0.9c0-0.3,0-0.5,0.1-0.5c0.1,0,0.1-0.1,0.1-0.3
			c0-0.2,0-0.5-0.1-0.9c-0.1-0.1-0.1-0.2-0.3-0.3c-0.1,0-0.4-0.1-0.9-0.1c-0.7,0-1,0-1.1-0.1c-0.1-0.1-0.9-0.2-2.2-0.2
			c-0.6,0-1,0-1.2,0.1c-0.6,0.1-1,0.2-1.3,0.3c-0.2,0.1-0.8,0.5-1.6,1.3c-0.9,0.8-1.3,1.3-1.3,1.4c0,0.1-0.1,0.2-0.2,0.4
			c-0.1,0.2-0.2,0.4-0.2,0.7c0,0.3-0.1,0.4-0.2,0.5c-0.1,0.1-0.1,0.2-0.1,0.4c0,0.2-0.1,0.4-0.2,0.5c-0.1,0.1-0.2,0.6-0.2,1.5
			c0,1,0.1,1.6,0.2,1.6c0.1,0,0.1,0.1,0.1,0.3c0,0.1,0,0.2-0.1,0.2c-0.1,0,0,0.1,0.2,0.4c0.2,0.2,0.4,0.4,0.5,0.4
			c0.1,0,0.2,0.1,0.2,0.3c0.1,0.2,0.3,0.4,0.6,0.8c0.4,0.3,0.6,0.6,0.8,0.6c0.2,0.1,0.2,0.1,0.2,0.2c0,0.1,0.4,0.2,1.1,0.3
			c0.7,0.1,1.4,0.1,2.2,0.1c1.1,0,1.7-0.1,1.9-0.3c0.1-0.1,0.3-0.2,0.6-0.3c0.4-0.1,0.6-0.2,0.8-0.2c0,0,0.1,0,0.1,0
			s-0.1,0.2-0.2,0.5c-0.1,0.2-0.2,0.4-0.2,0.6c0,0.2,0.2,0.3,0.6,0.3c0.3,0,0.5,0,0.6,0c1-0.1,1.6-0.2,1.6-0.4
			c0-0.1-0.1-0.3-0.4-0.5c-0.2-0.1-0.3-0.3-0.3-0.5c0-0.2-0.1-0.6-0.1-1.2l-0.1-1.4l0.6,0.1c0.3,0.1,0.5,0,0.6-0.2
			c0.1-0.2,0.3-0.3,0.6-0.3c0.3,0,0.4-0.1,0.5-0.1c0,0,0.1-0.2,0.1-0.5v-0.6l-2.5-0.1C280.2,788.6,280,788.6,279.6,788.6z"/>
		<path d="M301.6,785.3c0.1,0,0.2-0.2,0.2-0.5c0-0.2,0-0.4-0.1-0.4c-0.1,0-0.1-0.1-0.1-0.3c0-0.2,0.1-0.4,0.2-0.6
			c0.1-0.3,0.1-0.5-0.2-0.6c-0.2-0.2-0.5-0.3-0.9-0.3c-0.5,0-0.8,0.1-1.1,0.4c-0.3,0.2-0.4,0.3-0.5,0.2c-0.1-0.1-0.4-0.1-0.8,0
			c-0.5,0.1-1.4,0.2-2.6,0.2c-0.9,0-1.4,0-1.5-0.1c-0.1-0.1-0.2,0-0.4,0.2c-0.1,0.1-0.3,0.2-0.4,0.2c-0.2,0-0.4,0-0.7-0.1
			c-0.7-0.2-1.1-0.2-1.3-0.2c-0.1,0-0.2,0-0.2,0c-0.1,0-0.3,0.1-0.4,0.3c-0.1,0.2-0.2,0.4-0.2,0.5c0,0.1,0,0.1,0.1,0.2
			c0,0,0.1,0.2,0.1,0.5c0,0.1,0,0.2-0.1,0.3c-0.1,0-0.2,0.1-0.3,0.1c-0.3,0-0.5,0.1-0.5,0.3c0,0,0,0.1,0.1,0.2
			c0.1,0.1,0.1,0.3,0.1,0.6c0,0.3-0.1,0.4-0.1,0.5c0,0.5,0.2,0.8,0.6,0.8c0.3,0,0.4-0.1,0.4-0.2c0-0.1,0.1-0.2,0.2-0.2
			c0.1,0,0.1,0,0.2-0.1c0,0,0-0.1,0-0.2c0-0.1-0.1-0.2-0.2-0.2c-0.1-0.1-0.1-0.1-0.1-0.2c0,0,0-0.1,0-0.1c0,0,0-0.1,0.1-0.1
			c0,0,0.1,0,0.2-0.1c0.2-0.1,0.2-0.2,0.2-0.3c0,0,0-0.1,0-0.2c0-0.1,0-0.1,0-0.2c0-0.1,0-0.2,0.1-0.2c0.1-0.1,0.1-0.3,0-0.6
			c-0.1-0.3-0.1-0.4,0-0.4c0.1,0,0.1,0.1,0.1,0.2c0,0.1,0.2,0.2,0.5,0.4c0.4,0.1,0.7,0.2,1.1,0.2c0.4,0,0.7,0.1,0.8,0.3
			c0.2,0.2,0.3,0.2,0.5,0.2c0.1,0,0.1,0,0.1,0c0.1,0,0.1,0,0,0.1c-0.3,0.3-0.4,2.2-0.5,5.8c0,0.8-0.1,1.2-0.3,1.4
			c-0.2,0.1-0.3,0.3-0.3,0.4c0,0.1-0.3,0.2-0.8,0.2l-0.7,0.1l-0.1,0.5c0,0,0,0.1,0,0.1c0,0,0,0.1,0,0.1c0,0.2,0.1,0.4,0.4,0.7
			c0.3,0.3,0.5,0.4,0.7,0.4c0.1,0,0.1,0,0.1-0.1c0-0.1,0-0.1-0.1-0.1c-0.1,0-0.1,0-0.1-0.1c0-0.1,0.2-0.1,0.5-0.1c0.1,0,0.4,0,0.8,0
			c0.4,0,0.7,0,0.9,0c0.6,0,0.9-0.1,1.1-0.2c0.1-0.1,0.3-0.2,0.6-0.1c0.2,0.1,0.3,0,0.4-0.1c0.1-0.1,0.2-0.1,0.3-0.1
			c0.1,0,0.3-0.1,0.5-0.2c0.1-0.1,0.2-0.2,0.2-0.3c0-0.1-0.1-0.2-0.2-0.5c-0.2-0.3-0.3-0.4-0.5-0.4c-0.1,0-0.2-0.1-0.2-0.2
			c0-0.1-0.1-0.2-0.3-0.1c0,0-0.1,0-0.1,0c-0.1,0-0.1,0-0.1,0c-0.1,0-0.2,0-0.3-0.1c0-0.1-0.1-0.3-0.1-0.5v-0.4c0-0.5,0-0.8,0-0.9
			c0-0.1,0.1-0.2,0.2-0.2c0.2,0,0.2-0.1,0.2-0.4c0-0.3-0.1-0.5-0.2-0.5c-0.1,0-0.2-0.4-0.2-1.1c0-0.8,0.1-1.2,0.2-1.4
			c0.1-0.1,0.2-0.5,0.2-1.2c0-0.7,0.1-1,0.1-1.1c0.1-0.2,0.5-0.2,1.2-0.2c1,0,1.5,0.1,1.6,0.4c0,0.1,0.1,0.2,0.4,0.5
			c0.2,0.2,0.3,0.4,0.3,0.8c0,0.3,0.1,0.5,0.1,0.5c0,0.1,0.2,0.1,0.4,0.1c0.2,0,0.4,0,0.4-0.1c0-0.1,0.1-0.2,0.3-0.2
			c0.2-0.1,0.3-0.2,0.3-0.4c0-0.2-0.1-0.4-0.2-0.5C301.5,785.4,301.5,785.3,301.6,785.3z"/>
		<path d="M322.3,782.6c-0.2-0.1-0.5-0.1-0.8-0.1c-0.1,0-0.2,0-0.5,0.1c-0.3,0.1-0.5,0.1-0.7,0.1h-0.1H320c-0.2,0-0.5,0-1,0.1
			c-0.4,0-0.7,0.1-0.8,0.1c-0.1,0-0.2,0.1-0.2,0.2c0,0.2,0,0.3-0.1,0.3c-0.1,0-0.1,0-0.1,0.1c0,0.1,0,0.2,0,0.3
			c0,0.1,0.1,0.2,0.2,0.2c0.1,0.1,0.2,0.5,0.2,1.3c0,0.8,0.1,1.2,0.2,1.2c0.1,0,0.1,0.3,0.1,0.8v0.8h-1.3c-0.8,0-1.7,0-2.7-0.1
			l-1.4-0.1v-0.7c0-0.4,0-0.7,0.1-0.7c0.1,0,0.1-0.3,0.2-0.9c0-1.1,0.1-1.6,0.4-1.6c0.1,0,0.2,0,0.2-0.1c0-0.1,0.1-0.2,0.4-0.2
			c0.2,0,0.4-0.1,0.5-0.2c0.1-0.1,0.2-0.2,0.2-0.4c0-0.2-0.1-0.3-0.2-0.4c-0.2-0.1-0.5-0.2-1-0.2c-0.3,0-0.4,0-0.5,0.1
			c0,0-0.5,0.1-1.3,0.1c-0.9,0.1-1.7,0.2-2.4,0.5c-0.1,0-0.2,0.1-0.2,0.2c0,0.1,0.2,0.2,0.6,0.4l0.6,0.3l0,0.8v0.9v0.3
			c0,0.2,0,0.4,0.1,0.4c0.1,0.1,0.2,0.5,0.2,1.1c0,0.6-0.1,1.1-0.2,1.4c-0.1,0.3-0.2,0.6-0.2,0.8c0,0,0,0,0,0.1c0,0,0,0.1,0,0.1
			c0,0.2,0.1,0.4,0.1,0.6c0,0.5,0,1.1-0.1,1.8c-0.1,0.6-0.2,1-0.2,1.2c-0.1,0.2-0.4,0.3-0.8,0.3c-0.3,0-0.5,0.1-0.6,0.1
			c-0.1,0.1-0.1,0.2-0.1,0.4v0.5l0.7-0.1c0.3-0.1,1-0.1,2.2-0.1h0.7h0.7c1,0,1.6,0,1.6-0.1c0-0.1-0.1-0.3-0.2-0.5
			c-0.2-0.2-0.3-0.3-0.4-0.3h-0.1c-0.2,0.1-0.4,0.1-0.6-0.1c-0.1-0.1-0.2-0.1-0.3-0.2c0-0.1-0.1-0.2-0.1-0.4c0-0.3,0-0.5,0-0.8
			c0-0.9,0.1-1.6,0.1-2.1v-0.8h4.9l0.1,0.4c0,0.2,0.1,0.5,0.1,0.7c0,0.5,0,1.1-0.1,1.7c-0.1,0.6-0.2,1-0.3,1
			c-0.1,0.1-0.4,0.2-0.8,0.3c-0.3,0-0.5,0.1-0.5,0.1c-0.1,0.1-0.1,0.2-0.1,0.4c0,0.3,0.1,0.5,0.3,0.5c0.3,0.1,1.3,0.1,3.1,0.1
			c1.3,0,2,0,2.1-0.1c0.2-0.1,0.3-0.2,0.3-0.4c0-0.2-0.1-0.3-0.2-0.5c-0.1-0.2-0.3-0.2-0.4-0.2c0,0-0.1,0-0.1,0
			c-0.1,0.1-0.3,0.1-0.5,0l-0.4-0.1l0.1-3.5c0-2.3,0.1-3.5,0.2-3.6c0.1,0,0.1-0.3,0.1-0.9c0.1-1.1,0.2-1.6,0.4-1.6
			c0.1,0,0.2,0,0.2-0.1c0-0.1,0.1-0.2,0.4-0.2c0.2,0,0.4-0.1,0.5-0.2c0.2-0.1,0.2-0.3,0.2-0.4C322.6,782.8,322.5,782.7,322.3,782.6z
			 M311.4,791.5c-0.2-0.1-0.3-0.1-0.3-0.2c0-0.1,0-0.1,0.1-0.1c0.2,0,0.3,0.1,0.4,0.2c0,0,0,0,0,0.1
			C311.6,791.6,311.6,791.6,311.4,791.5z M312.1,791.5c-0.1,0-0.1-0.1-0.1-0.2c0-0.1,0-0.2,0.1-0.2c0.1,0,0.2,0.1,0.2,0.2
			C312.3,791.4,312.2,791.5,312.1,791.5z M312.1,787.8c-0.1,0-0.2-0.1-0.2-0.3c0-0.3,0.1-0.4,0.2-0.4c0.2,0,0.2,0.1,0.2,0.3
			C312.3,787.7,312.2,787.8,312.1,787.8z M319.2,791.5c-0.1,0.1-0.2,0.1-0.4,0c-0.2-0.1-0.3-0.1-0.3-0.2c0-0.1,0.1-0.1,0.2-0.1
			c0.3,0,0.5,0.1,0.5,0.2C319.3,791.5,319.3,791.5,319.2,791.5z M319.6,791.5c-0.1,0-0.2-0.1-0.2-0.2c0-0.1,0.1-0.2,0.2-0.2
			c0.1,0,0.1,0.1,0.1,0.2C319.7,791.4,319.7,791.5,319.6,791.5z M319.6,787.8c-0.1,0-0.2-0.1-0.2-0.3c0-0.3,0.1-0.4,0.2-0.4
			c0.1,0,0.2,0.1,0.2,0.3C319.8,787.7,319.7,787.8,319.6,787.8z"/>
	</g>
	<g>
		<g>
			<path d="M153.1,211.2c-4-4-3.8-26.3-6.6-26.3c-2.8,0-1.8,21.5-6.6,26.3c-4.8,4.8-20,2.7-20,5.8s15.4,1.2,20,5.8
				c4.6,4.6,3.8,26.3,6.6,26.3c2.8,0,2.4-22,6.6-26.3c4.3-4.3,20-3.3,20-5.8S157.1,215.2,153.1,211.2z"/>
		</g>
		<g>
			<path d="M135.7,631.6c-4-4-3.8-26.3-6.6-26.3c-2.8,0-1.8,21.5-6.6,26.3c-4.8,4.8-20,2.7-20,5.8c0,3.1,15.4,1.2,20,5.8
				c4.6,4.6,3.8,26.3,6.6,26.3s2.4-22,6.6-26.3c4.3-4.3,20-3.3,20-5.8S139.7,635.6,135.7,631.6z"/>
		</g>
		<g>
			<path d="M351.3,255.2c-4.8-4.8-4.6-31.9-8.1-31.9c-3.4,0-2.2,26.1-8.1,31.9c-5.8,5.8-24.4,3.3-24.4,7.1s18.7,1.4,24.4,7.1
				s4.6,31.9,8.1,31.9c3.4,0,2.9-26.7,8.1-31.9c5.2-5.2,24.4-4,24.4-7.1S356.1,260,351.3,255.2z"/>
		</g>
		<g>
			<path d="M394.7,218.5c-2.3-2.3-2.2-15.2-3.8-15.2s-1.1,12.4-3.8,15.2c-2.8,2.8-11.6,1.6-11.6,3.4c0,1.8,8.9,0.7,11.6,3.4
				c2.7,2.7,2.2,15.2,3.8,15.2s1.4-12.7,3.8-15.2c2.5-2.5,11.6-1.9,11.6-3.4C406.3,220.4,397,220.8,394.7,218.5z"/>
		</g>
		<g>
			<path d="M420.2,284.8c-1.2-1.2-1.1-7.6-1.9-7.6s-0.5,6.2-1.9,7.6c-1.4,1.4-5.8,0.8-5.8,1.7c0,0.9,4.5,0.3,5.8,1.7
				c1.3,1.3,1.1,7.6,1.9,7.6c0.8,0,0.7-6.4,1.9-7.6c1.2-1.2,5.8-0.9,5.8-1.7S421.4,286,420.2,284.8z"/>
		</g>
		<g>
			<path d="M385.5,667.8c-1.2-1.2-1.1-7.6-1.9-7.6s-0.5,6.2-1.9,7.6c-1.4,1.4-5.8,0.8-5.8,1.7c0,0.9,4.5,0.3,5.8,1.7
				s1.1,7.6,1.9,7.6c0.8,0,0.7-6.4,1.9-7.6c1.2-1.2,5.8-0.9,5.8-1.7S386.6,669,385.5,667.8z"/>
		</g>
		<g>
			<path d="M344.3,632.9c-3.1-3.1-3-20.4-5.2-20.4s-1.4,16.7-5.2,20.4c-3.7,3.7-15.6,2.1-15.6,4.5s12,0.9,15.6,4.5
				c3.6,3.6,3,20.4,5.2,20.4c2.2,0,1.8-17.1,5.2-20.4c3.3-3.3,15.6-2.5,15.6-4.5S347.4,636,344.3,632.9z"/>
		</g>
		<g>
			<path d="M101.1,585.4c-1.6-1.6-1.6-10.8-2.7-10.8c-1.2,0-0.8,8.8-2.7,10.8c-2,2-8.2,1.1-8.2,2.4s6.3,0.5,8.2,2.4
				c1.9,1.9,1.6,10.8,2.7,10.8s1-9.1,2.7-10.8c1.8-1.8,8.2-1.3,8.2-2.4C109.4,586.7,102.8,587,101.1,585.4z"/>
		</g>
		<g>
			<path d="M394.6,574.4c-2.2-2.2-2.1-14.8-3.7-14.8s-1,12.1-3.7,14.8c-2.7,2.7-11.3,1.5-11.3,3.3c0,1.7,8.7,0.7,11.3,3.3
				c2.6,2.6,2.1,14.8,3.7,14.8s1.3-12.4,3.7-14.8c2.4-2.4,11.3-1.8,11.3-3.3C405.9,576.2,396.9,576.6,394.6,574.4z"/>
		</g>
		<g>
			<path d="M100.4,281.2c-1.6-1.6-1.6-10.8-2.7-10.8s-0.8,8.8-2.7,10.8s-8.2,1.1-8.2,2.4c0,1.3,6.3,0.5,8.2,2.4
				c1.9,1.9,1.6,10.8,2.7,10.8s1-9.1,2.7-10.8c1.8-1.8,8.2-1.3,8.2-2.4S102,282.9,100.4,281.2z"/>
		</g>
		<g>
			<path class="st1" d="M188,582.5c-0.9-0.9-0.9-6.2-1.6-6.2c-0.7,0-0.4,5.1-1.6,6.2c-1.1,1.1-4.7,0.6-4.7,1.4s3.6,0.3,4.7,1.4
				s0.9,6.2,1.6,6.2s0.6-5.2,1.6-6.2s4.7-0.8,4.7-1.4S188.9,583.5,188,582.5z"/>
		</g>
		<g>
			<g>
				<path class="st0" d="M358.7,482.3c0.1-0.2,0.2-0.3,0.2-0.3c-0.1-0.1-0.2-0.1-0.3-0.2L358.7,482.3z"/>
			</g>
			<g>
				<path class="st0" d="M431.2,359.6c-2.2-9.4-7.5-17.9-15-23.9c-7.7-6.2-17.2-9.8-27-11.1c-14.3-1.9-28.7-0.7-43-0.1
					c-7.2,0.3-14.4,0.4-21.6-0.2c-7.2-0.6-14.4-1.9-21.5-3.4c-14-3-27.7-7.2-41.4-11.1c-12.7-3.6-25.3-6.6-38.6-7.3
					c-8.6-0.4-68.5-4.6-112.4,30.6C93.9,346.6,79,369.5,74,390.4c-5.5,23.3-1.3,44.3,8.2,56.4c5.9,7.5,16,17.1,22.8,23.8
					c11.1,10.9,16.2,22.8,19.7,37.7c3.4,14.5,4.4,29.6,8.7,43.9c3.1,10.6,7.5,20.9,13.7,30.1c6,9,13.7,16.8,22.9,22.5
					c10.5,6.5,35.3,17.3,73.6,15.8c28.5-1.1,50.1-16.7,57.5-23.6c8.3-7.7,14.5-17.6,21.1-26.7c6.3-8.6,12.8-17.1,20.8-24.3
					c7.4-6.6,17-13.5,26.1-17.4c11-4.7,21.9-8.6,30.5-17.3c5-5,8.7-11.1,11.7-17.5c3.6-7.6,6.2-15.8,7.1-24.2
					c1.6-14.5-1.9-28.9-1-43.4c0.6-10.8,6-22.2,9.6-32.4c2-5.7,4.1-11.3,5-17.3C432.8,370.9,432.5,365.1,431.2,359.6z M383.7,374.5
					c6.8,16.4,0,35.1-15.2,43.4c5.6-11.4,6.4-25,1.1-37.6s-15.5-21.6-27.5-25.7C358.8,349.8,376.8,358.1,383.7,374.5z M314.3,378.2
					l1.8,2.6l-1.3,0.9l-1.8-2.6L314.3,378.2z M310.4,372.4l1.8,2.6l-1.3,0.9l-1.8-2.6L310.4,372.4z M306.4,366.7l1.8,2.6l-1.3,0.9
					l-1.8-2.6L306.4,366.7z M302.4,360.9l1.8,2.6l-1.3,0.9l-1.8-2.6L302.4,360.9z M281.1,346.2l3.1,0.2l-0.1,1.6l-3.1-0.2
					L281.1,346.2z M277.4,474.3c-0.5-0.1-1.9,5.1-2,5c-0.1-0.2-0.5-1.5-0.9-2.7l-0.6,1.9l-1.5-0.5l0.9-3l0.8,0.2
					c-0.1-0.4-0.2-0.8-0.2-1c0,0-5.2-0.7-5.4-0.9c0.1-0.2,2.6-2.1,3.6-2.7c0,0-2.9-3.5-3-3.8c0.2,0,3.5,0.8,4.6,1.3
					c0,0,1.8-4.4,2-4.5c0.1,0.2,1.2,4.9,1.2,4.9c0.9-0.5,4.5-1.7,4.7-1.7c0,0.2-2.1,3.4-3,4.4c0,0,3.3,3.8,3.4,4
					C282,475.3,278.8,474.7,277.4,474.3z M280.4,540.1l-1.8,2.5l-1.3-0.9l1.8-2.5L280.4,540.1z M272.9,482.2l-0.9,3l-1.5-0.5l0.9-3
					L272.9,482.2z M266.1,416.4l-0.5-3.1l1.5-0.2l0.5,3.1L266.1,416.4z M268.2,420l0.5,3.1l-1.5,0.2l-0.5-3.1L268.2,420z M265,409.5
					l-0.5-3.1l1.5-0.2l0.5,3.1L265,409.5z M265.1,501.7l1.5,0.5l-0.9,3l-1.5-0.5L265.1,501.7z M266.2,498l0.9-3l1.5,0.5l-0.9,3
					L266.2,498z M267.7,427.1l1.5-0.2l0.5,3.1l-1.5,0.2L267.7,427.1z M272.5,457.8l-0.5-3.1l1.5-0.2l0.5,3.1L272.5,457.8z
					 M274.6,461.5l0.5,3.1l-1.5,0.2l-0.5-3.1L274.6,461.5z M271.4,450.9l-0.5-3.1l1.5-0.2l0.5,3.1L271.4,450.9z M270.3,444l-0.5-3.1
					l1.5-0.2l0.5,3.1L270.3,444z M269.3,437.1l-0.5-3.1l1.5-0.2l0.5,3.1L269.3,437.1z M274.1,345.8l3.1,0.2l-0.1,1.6l-3.1-0.2
					L274.1,345.8z M267.1,345.3l3.1,0.2l-0.1,1.6l-3.1-0.2L267.1,345.3z M260.1,344.9l3.1,0.2l-0.1,1.6l-3.1-0.2L260.1,344.9z
					 M253.2,344.4l3.1,0.2l-0.1,1.6l-3.1-0.2L253.2,344.4z M259.3,392.5c-0.7-1.4-2-5.6-2.1-5.9c0.4,0.1,7,3.2,7,3.2
					c1.2-1.2,5.2-4.6,5.6-4.8c0.1-0.1-2.2,7.1-1.6,7.3c1.9,0.6,6,2.4,6.2,2.6c-0.2,0.1-7.1,1.9-7.1,1.9c0.2,1.8,0.2,7.2,0.1,7.4
					c-0.1-0.1-1.1-1.3-2-2.7l0.1,0.7l-1.5,0.2l-0.5-3.1l0.3-0.1c-0.2-0.3-0.4-0.6-0.5-0.8c0,0-5,4.6-5.2,4.8c0-0.2,0.7-4.1,1-5.9
					l-1.4,1.2l-1-1.2l1.4-1.2c-2-0.5-5-1.6-5.2-1.7C253.2,394.4,259.3,392.5,259.3,392.5z M246.2,344l3.1,0.2l-0.1,1.6l-3.1-0.2
					L246.2,344z M239.2,343.6l3.1,0.2l-0.1,1.6l-3.1-0.2L239.2,343.6z M237.8,413.7l1,1.2l-2.4,2l-1-1.2L237.8,413.7z M232.2,343.1
					l3.1,0.2l-0.1,1.6l-3.1-0.2L232.2,343.1z M232.5,418.3l1,1.2l-2.4,2l-1-1.2L232.5,418.3z M212.4,340.2c0,0-1.7-6.3-1.7-6.6
					c0.2,0,3.5,2.5,4.9,3.8c0.5,0.4,5.2-4.8,5.2-4.7c0.1,0.4-0.9,5.2-1.3,6.7c0,0,4.8,3.3,5.7,4.1l0.1-0.9l3.1,0.2l-0.1,1.6
					l-3.1-0.2l0-0.5c-0.8,0.2-4.2,0.9-5.6,1c0,0,1.3,5.7,1.2,6.1c-0.3-0.1-3.6-3-4.6-4.2c0,0-4.7,4-4.9,4.1c0-0.3,1.4-6.4,1.4-6.4
					c-1.3,0-6.3-0.6-6.4-0.7C206.5,343.4,210.8,340.9,212.4,340.2z M228.2,424l-2.4,2l-1-1.2l2.4-2L228.2,424z M224.3,437.4
					c-0.2,0-4.9-1.5-6-2c0,0-0.4,1.9-0.8,3.7l0.5-0.1l0.6,3.1l-1.5,0.3l-0.1-0.7c0,0.1,0,0.1,0,0.1c-0.2-0.2-2.7-5.7-2.7-5.7
					c-1.4,0.7-5.5,1.9-5.8,1.9c0.1-0.3,3.6-4.9,3.6-4.9c-1.3-0.7-4.5-3.1-4.6-3.3c0.3-0.2,6.9-1.3,6.9-1.3c0.3-1.5,1.4-6.2,1.7-6.5
					c0.1-0.1,2.1,6.5,2.7,6.3c1.8-0.5,5.8-1.4,6-1.3c-0.1,0.2-4.2,5.2-4.2,5.2C221.5,433.1,224.3,437.2,224.3,437.4z M220.6,452.6
					l0.6,3.1l-1.5,0.3l-0.6-3.1L220.6,452.6z M218.4,449.1l-0.6-3.1l1.5-0.3l0.6,3.1L218.4,449.1z M221.8,459.5l0.6,3.1l-1.5,0.3
					l-0.6-3.1L221.8,459.5z M213.9,473.4l-3.1,0.6l-0.3-1.5l3.1-0.6L213.9,473.4z M206.7,473.2l0.3,1.5l-3.1,0.6l-0.3-1.5
					L206.7,473.2z M116.1,422c-1.2,1.2-1.1,7.3-1.8,7.3c-0.8,0-0.6-6-1.8-7.3c-1.3-1.3-5.5-0.8-5.5-1.6c0-0.8,4.2-0.3,5.5-1.6
					c1.3-1.3,1.1-7.3,1.8-7.3c0.8,0,0.7,6.2,1.8,7.3c1.1,1.1,5.5,0.9,5.5,1.6C121.7,421.1,117.3,420.9,116.1,422z M148.8,407.4
					l-3.1-30.5l-8.8,5.9l5.9-8.8l-23.2-3.1l23.2-3.1l-5.9-8.8l8.8,5.9l3.1-30.5l3.1,30.5l8.8-5.9l-5.9,8.8l23.2,3.1l-23.2,3.1
					l5.9,8.8l-8.8-5.9L148.8,407.4z M171,486.2c-0.2-0.1-1.9-2.5-2.4-3.3c0,0-3.9,0.8-4.1,0.8c0.1-0.2,1.3-2.2,1.9-2.9
					c0,0-3-1.8-3.1-1.9c0.2-0.1,2.7-0.3,3.7-0.2c0,0,0.2-3.6,0.3-3.8c0.1,0.1,2.2,3.2,2.2,3.2c0.5-0.6,2.8-2.4,2.9-2.5
					c0,0.1-0.7,3-1,3.9c0,0,0.2,0.1,0.5,0.3l0-0.1l0.6-0.1l0.1,0.6c1,0.5,2.2,1.2,2.2,1.2c-0.1,0.1-2.5,0.5-3.6,0.6
					C170.7,482.2,171,486.3,171,486.2z M168.2,432.1c-1.7,1.7-1.5,10.7-2.7,10.7c-1.1,0-0.8-8.8-2.7-10.7s-8.1-1.1-8.1-2.4
					c0-1.2,6.2-0.4,8.1-2.4c1.9-1.9,1.5-10.7,2.7-10.7c1.1,0,1.1,9.1,2.7,10.7c1.6,1.6,8.1,1.3,8.1,2.4
					C176.3,430.8,169.9,430.4,168.2,432.1z M153.7,529.5c-0.4-12,8.4-22.1,20-23.7c-6.2,5.8-10,14.2-9.7,23.4
					c0.3,9.2,4.6,17.3,11.1,22.8C163.4,551,154.1,541.4,153.7,529.5z M176.5,480.5l-0.3-1.5l3.1-0.6l0.3,1.5L176.5,480.5z
					 M183.3,479.2l-0.3-1.5l3.1-0.6l0.3,1.5L183.3,479.2z M190.2,477.9l-0.3-1.5l3.1-0.6l0.3,1.5L190.2,477.9z M193.3,389
					c-0.7,0-0.5-5.5-1.7-6.6c-1.2-1.2-5-0.7-5-1.5c0-0.8,3.8-0.3,5-1.5c1.2-1.2,1-6.6,1.7-6.6c0.7,0,0.7,5.6,1.7,6.6
					c1,1,5,0.8,5,1.5s-4,0.4-5,1.5C193.9,383.4,194,389,193.3,389z M197.1,476.6l-0.3-1.5l3.1-0.6l0.3,1.5L197.1,476.6z
					 M211.8,546.6c-1.4,1.4-1.3,8.6-2.2,8.6s-0.7-7.1-2.2-8.6c-1.5-1.5-6.6-0.9-6.6-1.9c0-1,5-0.3,6.6-1.9c1.6-1.6,1.3-8.6,2.2-8.6
					s0.9,7.3,2.2,8.6c1.3,1.3,6.6,1.1,6.6,1.9C218.4,545.5,213.2,545.2,211.8,546.6z M220.7,472.1L220.7,472.1
					c-1.3,0.4-2.9,0.9-3,0.9c0,0,0.1-0.2,0.2-0.4l-0.2,0l-0.3-1.5l1.9-0.4c0.5-0.7,1-1.3,1-1.3c-0.9-0.5-3.2-2.2-3.3-2.4
					c0.2-0.1,4.9-1,4.9-1c0.2-1.1,1-4.4,1.2-4.7c0.1-0.1,1.5,4.6,1.9,4.5c1.3-0.4,4.1-1,4.3-1c-0.1,0.1-3,3.7-3,3.7
					c0.8,0.9,2.8,3.8,2.8,3.9c-0.1,0-3.5-1.1-4.3-1.5c0,0-0.9,4.3-1,4.5c-0.1-0.1-1.9-4.1-1.9-4.1
					C221.6,471.8,221.2,471.9,220.7,472.1L220.7,472.1z M236.8,582.1c0.2,1.8,0.2,7.2,0.1,7.4c-0.1-0.1-3.4-4.4-4.1-5.6
					c0,0-5,4.6-5.2,4.8c0-0.3,1.2-6.8,1.2-6.8c-1.7-0.3-6.1-1.8-6.4-2c0.3-0.2,6.4-2.1,6.4-2.1c-0.7-1.4-2-5.6-2.1-5.9
					c0.4,0.1,7,3.2,7,3.2c1.2-1.2,5.2-4.6,5.6-4.8c0.1,0-1.2,3.9-1.6,6l0.9,1.1l-0.5,0.4c2.1,0.7,5.5,2.2,5.7,2.4
					C243.6,580.3,236.8,582.1,236.8,582.1z M241.6,574.8l-1-1.2l2.4-2l1,1.2L241.6,574.8z M241.7,412.4l-1-1.2l2.4-2l1,1.2
					L241.7,412.4z M246.9,570.3l-1-1.2l2.4-2l1,1.2L246.9,570.3z M247.1,407.8l-1-1.2l2.4-2l1,1.2L247.1,407.8z M252.3,565.8l-1-1.2
					l2.4-2l1,1.2L252.3,565.8z M252.4,403.3l-1-1.2l2.4-2l1,1.2L252.4,403.3z M257.6,561.3l-1-1.2l2.4-2l1,1.2L257.6,561.3z
					 M257.2,516c0.1-0.2,1.3-2.2,1.9-2.9c0,0-3-1.8-3.1-1.9c0.2-0.1,2.7-0.3,3.7-0.2c0,0,0.2-3.6,0.3-3.8c0.1,0.1,2.2,3.2,2.2,3.2
					c0.1-0.1,0.2-0.2,0.3-0.3l0.6-1.7l1.1,0.3c0.5-0.4,0.9-0.7,0.9-0.7c0,0.1-0.7,3-1,3.9c0,0,3.4,1.9,3.5,1.9
					c-0.1,0.1-2.5,0.5-3.6,0.6c-0.4,0,0,4.1-0.1,4.1c-0.2-0.1-1.9-2.5-2.4-3.3C261.4,515.3,257.5,516.1,257.2,516z M263,556.9
					l-1-1.2l2.4-2l1,1.2L263,556.9z M268.3,552.4l-1-1.2l2.4-2l1,1.2L268.3,552.4z M269.8,491.8l-1.5-0.5l0.9-3l1.5,0.5L269.8,491.8
					z M281.6,549c-0.1,0-3.1-0.9-3.8-1.3c0,0-0.8,3.8-0.9,4c-0.1-0.1-1.7-3.6-1.7-3.6c-0.9,0.4-3.5,1.2-3.7,1.2
					c0-0.1,0.9-1.3,1.6-2.1l-0.4-0.5l0.8-0.7c-0.9-0.6-2.5-1.7-2.6-1.9c0.2-0.1,4.4-0.8,4.4-0.8c0.2-1,0.9-3.9,1-4.1
					c0-0.1,1.3,4.1,1.7,4c1.1-0.3,3.6-0.9,3.8-0.8c-0.1,0.1-2.7,3.3-2.7,3.3C279.8,546.4,281.6,548.9,281.6,549z M282.6,536.9
					l-1.3-0.9l1.8-2.5l1.3,0.9L282.6,536.9z M286.6,531.2l-1.3-0.9l1.8-2.5l1.3,0.9L286.6,531.2z M290.6,525.5l-1.3-0.9l1.8-2.5
					l1.3,0.9L290.6,525.5z M294.7,519.8l-1.3-0.9l1.8-2.5l1.3,0.9L294.7,519.8z M293.4,348.5c-0.1,0,0,0.7,0.1,1.5l0.9-0.6l1.8,2.6
					l-1.3,0.9l-1.2-1.7c0.2,0.8,0.3,1.5,0.3,1.5c-0.2-0.1-2.3-2.1-2.9-2.8c0,0-3.7,1.5-3.9,1.5c0-0.2,0.8-2.3,1.3-3.1l-0.6,0l0-0.2
					c-0.9-0.3-2.7-1-2.8-1.1c0.2-0.1,2.6-0.8,3.5-0.9c0,0-0.5-3.6-0.5-3.8c0.1,0.1,2.7,2.7,2.7,2.7c0.4-0.6,2.3-2.9,2.4-3
					c0.1,0.1-0.1,3.1-0.2,4c0,0,3.7,1.2,3.8,1.3C296.8,347.4,294.5,348.2,293.4,348.5z M298.5,355.2l1.8,2.6l-1.3,0.9l-1.8-2.6
					L298.5,355.2z M298.7,514.1l-1.3-0.9l1.8-2.5l1.3,0.9L298.7,514.1z M299.5,460.6c0-0.6,3.1-0.2,4-1.2c1-1,0.8-5.3,1.3-5.3
					c0.6,0,0.5,4.5,1.3,5.3c0.8,0.8,4,0.7,4,1.2c0,0.5-3.2,0.3-4,1.2c-0.9,0.9-0.8,5.3-1.3,5.3c-0.6,0-0.4-4.4-1.3-5.3
					C302.6,460.9,299.5,461.2,299.5,460.6z M302.7,508.3l-1.3-0.9l1.8-2.5l1.3,0.9L302.7,508.3z M316.5,500.7
					c-0.1,0-3.5-1.1-4.3-1.5c0,0-0.9,4.3-1,4.5c-0.1-0.1-1.9-4.1-1.9-4.1c-0.2,0.1-0.5,0.2-0.9,0.3l0.1,0.1l-1.8,2.5l-1.3-0.9l0.7-1
					c-0.6,0.2-1.1,0.3-1.1,0.3c0.1-0.2,2.6-3.5,2.6-3.5c-0.9-0.5-3.2-2.2-3.3-2.4c0.2-0.1,4.9-1,4.9-1c0.2-1.1,1-4.4,1.2-4.7
					c0.1-0.1,1.5,4.6,1.9,4.5c0.9-0.3,2.7-0.7,3.7-0.9l-0.1-0.2l3-0.8l0.4,1.5l-3,0.8l-0.2-0.8c-0.9,1-2.6,3.1-2.6,3.1
					C314.5,497.6,316.5,500.5,316.5,500.7z M321.2,388.9c-0.5,0-0.9,5.4-1,5.3c-0.2-0.2-1.9-3.6-2.4-4.7c0,0-5.2,0.2-5.5,0.2
					c0.1-0.2,2.1-2.6,3-3.3c0,0-3.5-2.9-3.6-3.1c0.2,0,3.6,0.2,4.8,0.4c0,0,1-4.6,1.1-4.8c0.1,0.2,2.1,4.6,2.1,4.6
					c0.8-0.6,4.1-2.6,4.3-2.6c0,0.2-1.5,3.8-2.1,4.9c0,0,4,3.1,4.1,3.2C325.9,389,322.6,389.1,321.2,388.9z M323.2,492.5l-0.4-1.5
					l3-0.8l0.4,1.5L323.2,492.5z M329.9,490.7l-0.4-1.5l3-0.8l0.4,1.5L329.9,490.7z M336.7,488.8l-0.4-1.5l3-0.8l0.4,1.5
					L336.7,488.8z M338.1,428.8c-1.7,1.7-1.5,10.7-2.7,10.7c-1.1,0-0.8-8.8-2.7-10.7c-1.9-1.9-8.1-1.1-8.1-2.4s6.2-0.4,8.1-2.4
					c1.9-1.9,1.5-10.7,2.7-10.7c1.1,0,1.1,9.1,2.7,10.7c1.6,1.6,8.1,1.3,8.1,2.4S339.9,427.1,338.1,428.8z M343.4,486.9l-0.4-1.5
					l3-0.8l0.4,1.5L343.4,486.9z M350.1,485l-0.4-1.5l3-0.8l0.4,1.5L350.1,485z M371.2,486.5c-0.2,0-4.9-1.5-6-2c0,0-1.3,6-1.4,6.3
					c-0.2-0.2-2.7-5.7-2.7-5.7c-1.4,0.7-5.5,1.9-5.8,1.9c0.1-0.2,2.1-3,3.1-4.2l-1.5,0.4l-0.4-1.5l1.3-0.4c-1.5-1-3.3-2.4-3.4-2.5
					c0.3-0.2,6.9-1.3,6.9-1.3c0.3-1.5,1.4-6.2,1.7-6.5c0.1-0.1,2.1,6.5,2.7,6.3c1.8-0.5,5.8-1.4,6-1.3c-0.1,0.2-4.2,5.2-4.2,5.2
					C368.3,482.2,371.2,486.3,371.2,486.5z M381.2,449.3c-1.4,1.4-1.2,8.6-2.2,8.6s-0.7-7.1-2.2-8.6c-1.5-1.5-6.5-0.9-6.5-1.9
					s5-0.3,6.5-1.9c1.6-1.6,1.2-8.6,2.2-8.6s0.9,7.3,2.2,8.6c1.3,1.3,6.5,1.1,6.5,1.9C387.7,448.2,382.6,447.9,381.2,449.3z
					 M412,368c-1,1-0.9,5.9-1.5,5.9c-0.6,0-0.5-4.9-1.5-5.9c-1-1-4.5-0.6-4.5-1.3c0-0.7,3.4-0.2,4.5-1.3c1.1-1.1,0.9-5.9,1.5-5.9
					c0.6,0,0.6,5,1.5,5.9c0.9,0.9,4.5,0.7,4.5,1.3S413,367,412,368z"/>
			</g>
		</g>
	</g>
</g>
</svg>
