<?xml version="1.0" encoding="utf-8"?>
<!-- Generator: Adobe Illustrator 21.1.0, SVG Export Plug-In . SVG Version: 6.00 Build 0)  -->
<svg version="1.1" id="Слой_1" xmlns="http://www.w3.org/2000/svg" xmlns:xlink="http://www.w3.org/1999/xlink" x="0px" y="0px"
	 viewBox="0 0 504 864" style="enable-background:new 0 0 504 864;" xml:space="preserve">
<style type="text/css">
	.st0{fill:#040404;}
	.st1{fill:#FFFFFF;}
</style>
<g>
	<g>
		<path d="M51.9,53.6c6.7-7.6,6.7-19,0.2-26.4c0.8,7.2-1.3,14.8-6.5,20.6c-5.2,5.8-12.3,8.7-19.5,8.6C34,62.2,45.2,61.1,51.9,53.6z"
			/>
		<path d="M458.4,47.7c-5.2-5.8-7.3-13.3-6.5-20.6c-6.5,7.5-6.6,18.9,0.2,26.4c6.7,7.6,17.9,8.6,25.9,2.8
			C470.7,56.4,463.6,53.5,458.4,47.7z"/>
		<path d="M26.1,807.4c7.2-0.1,14.3,2.8,19.5,8.6c5.2,5.8,7.3,13.3,6.5,20.6c6.5-7.5,6.6-18.9-0.2-26.4
			C45.2,802.6,34,801.6,26.1,807.4z"/>
		<path d="M452,810.2c-6.7,7.6-6.7,19-0.2,26.4c-0.8-7.2,1.3-14.8,6.5-20.6c5.2-5.8,12.3-8.7,19.5-8.6
			C470,801.6,458.8,802.6,452,810.2z"/>
		<path d="M503.8,18.2c-1.6-17.9-18.7-16.3-31.6-16.3c-45.9,0-91.8,0-137.6,0c-63.2,0-126.3,0-189.5,0c-40.6,0-81.2,0-121.8,0
			c-2.6,0-5.3-0.2-8,0.2c-9.5,1.2-15,9.2-15.2,18.2c-0.2,7.3,0,14.5,0,21.8c0,37.4,0,74.9,0,112.3c0,57,0,114.1,0,171.1
			c0,64.3,0,128.6,0,192.9c0,58.4,0,116.7,0,175.1c0,40.1,0,80.2,0,120.3c0,9.1,0,18.2,0,27.3c0,11.7,6.7,20.5,19.2,20.7
			c35.9,0.6,71.9,0,107.9,0c62.4,0,124.9,0,187.3,0c49.7,0,99.5,0,149.2,0c7.6,0,15.2,0,22.9,0c0.4,0,0.8-0.1,1.2-0.2
			c14.4-1.8,16.1-13.8,16.1-25.5c0-11.4,0-22.8,0-34.3c0-43.4,0-86.9,0-130.3c0-59.9,0-119.8,0-179.8c0-63.9,0-127.7,0-191.6
			c0-55.3,0-110.6,0-165.9c0-33.7,0-67.3,0-101C503.9,28.3,504.2,23.2,503.8,18.2z M486.6,852.8c-28.3,0-56.6,0-84.9,0
			c-59.9,0-119.8,0-179.7,0c-54,0-108,0-162,0c-13.1,0-26.1,0-39.2,0c-5.6,0-11-1.3-11.7-8.3c-0.2-1.5,0-3,0-4.5c0-26.5,0-53,0-79.5
			c0-50,0-100,0-149.9c0-61.8,0-123.6,0-185.4c0-61.4,0-122.7,0-184.1c0-48.9,0-97.7,0-146.6c0-24.2-0.8-48.6,0-72.7
			c0.2-5.3,1.6-10.1,8.3-10.8c2.2-0.2,4.5,0,6.7,0c14.8,0,29.6,0,44.5,0c55.6,0,111.3,0,166.9,0c58.9,0,117.8,0,176.7,0
			c18.9,0,37.9,0,56.8,0c8.1,0,24.7-3.1,25.9,8.4c0.5,5.2,0,10.8,0,16.1c0,13.5,0,27.1,0,40.6c0,45.5,0,91.1,0,136.6
			c0,60.1,0,120.2,0,180.3c0,62.6,0,125.2,0,187.7c0,52.8,0,105.6,0,158.4c0,31.4,0,62.7,0,94.1C494.8,840.3,496.9,852,486.6,852.8z
			"/>
		<path d="M460,790.9c1.2,0.1,2.4-0.7,2.4-2.2c0-23.7,0-47.4,0-71.1c0-56.4,0-112.8,0-169.2c0-68.7,0-137.4,0-206
			c0-59,0-117.9,0-176.9c0-19.6,0-39.2,0-58.8c0-8.9,1.3-19,0-27.9c-0.1-0.4,0-0.8,0-1.2c0-0.8-0.3-1.3-0.8-1.7
			c0.1-1.2-0.6-2.5-2.2-2.6c-13.1-0.5-25.3-13.8-25.8-26.7c0-0.5-0.2-0.8-0.4-1.1c-0.3-0.6-1-1.1-1.9-1.1c-40.5,0-80.9,0-121.4,0
			c-64.5,0-129,0-193.6,0c-14.9,0-29.7,0-44.6,0c-0.9,0-1.6,0.5-1.9,1.1c-0.2,0.3-0.3,0.7-0.4,1.2C69.1,59.5,57,72.8,43.9,73.3
			c-1.8,0.1-2.5,1.9-2,3.2c-0.2,0.3-0.2,0.6-0.2,1c0,23.7,0,47.4,0,71.1c0,56.4,0,112.8,0,169.2c0,68.7,0,137.4,0,206
			c0,59,0,117.9,0,176.9c0,19.6,0,39.2,0,58.8c0,8.9-1.3,19,0,27.9c0.1,0.4,0,0.8,0,1.2c0,0.9,0.5,1.6,1.1,1.9
			c0.3,0.2,0.7,0.3,1.2,0.4c13,0.5,25.3,13.3,25.8,26.2c0,0.5,0.2,0.8,0.4,1.1c0.3,0.6,1,1.1,1.9,1.1c40.5,0,80.9,0,121.4,0
			c64.5,0,129,0,193.6,0c14.9,0,29.7,0,44.6,0c0.9,0,1.6-0.5,1.9-1.1c0.2-0.3,0.3-0.7,0.4-1.2c0.5-12.9,12.7-25.7,25.8-26.2
			C459.6,791,459.8,790.9,460,790.9z M429.3,814.9c-39.8,0-79.6,0-119.3,0c-64.5,0-129,0-193.6,0c-14.2,0-28.3,0-42.5,0
			c-1.7-13.9-13.9-26.5-27.8-28.3c0-23,0-46,0-69.1c0-56.4,0-112.8,0-169.2c0-68.7,0-137.4,0-206c0-59,0-117.9,0-176.9
			c0-19.6,0-39.2,0-58.8c0-8.9,1.3-19,0-27.9c-0.1-0.4,0-0.8,0-1.2c14-1.8,26.1-14.9,27.8-28.7c39.8,0,79.6,0,119.3,0
			c64.5,0,129,0,193.6,0c14.2,0,28.3,0,42.5,0c1.7,14.1,14.3,27.4,28.5,28.8c0,23.7,0,47.3,0,71c0,56.4,0,112.8,0,169.2
			c0,68.7,0,137.4,0,206c0,59,0,117.9,0,176.9c0,19.6,0,39.2,0,58.8c0,8.6-1.2,18.4-0.1,27C443.6,788.1,431.1,800.9,429.3,814.9z"/>
		<path d="M234,100.4c0,0.8-0.5,1.2-1.4,1.2c-0.3,0-0.5,0-0.6,0.1c-0.1,0.1-0.2,0.3-0.2,0.6v0.7h3.6c2.4,0,3.6,0.1,3.7,0.4
			c0.1,0.3,0.3,0.3,0.6-0.1c0.3-0.3,0.8-0.4,1.5-0.3l1.1,0.2v-0.9c0-0.5-0.1-0.8-0.2-0.9c-0.1-0.2-0.4-0.3-0.9-0.5
			c-0.7-0.3-1.1-0.5-1.1-0.6c0-0.1-0.3-0.3-0.8-0.6c-0.5-0.3-0.8-0.5-0.8-0.7c0-0.4-0.1-0.7-0.4-1.2c-0.3-0.4-0.5-0.6-0.7-0.6
			c-0.1,0-0.3-0.3-0.5-0.8c-0.2-0.6-0.4-0.8-0.6-0.8c-0.2,0-0.4-0.2-0.5-0.5c-0.1-0.4-0.6-0.9-1.4-1.8c-0.8-0.8-1.3-1.3-1.5-1.3
			c-0.1,0-0.2-0.1-0.2-0.4c0-0.8,0.4-1.7,1.2-2.6c0.6-0.6,0.9-1.1,0.9-1.4c0-0.2,0.3-0.6,0.8-1.1c0.5-0.5,0.9-0.8,1.1-0.8
			c0.2,0,0.3-0.2,0.3-0.5c0-0.9,0.3-1.4,0.8-1.4c0.4,0,0.5-0.1,0.5-0.3c0-0.2,0.2-0.4,0.5-0.7c0.3-0.2,0.6-0.4,0.9-0.4
			c0.4,0,0.6-0.2,0.9-0.6l0.5-0.6l0.2,0.6c0.1,0.4,0.3,0.6,0.6,0.6c0.2,0,0.4-0.2,0.5-0.5c0.1-0.4,0.4-0.6,0.7-0.6
			c0.2,0,0.4-0.1,0.5-0.2c0.1-0.1,0.1-0.4,0.1-0.9c0-1-0.1-1.6-0.4-1.7c-0.2-0.2-1.1-0.2-2.4-0.2c-1.6,0-2.4,0.1-2.4,0.4
			s-0.7,0.4-2,0.6c-2,0.1-2.9,0.6-2.9,1.4c0,0.3,0.1,0.7,0.3,1.1c0.2,0.4,0.4,0.6,0.6,0.6c0.2,0,0.4,0.2,0.7,0.6
			c0.3,0.4,0.2,0.8-0.1,1.1c-0.4,0.4-0.4,0.5-0.3,0.5c0.1,0,0.1,0.2-0.3,0.7c-0.3,0.4-0.4,0.8-0.4,1.2c0,0.2-0.2,0.6-0.7,1.1
			c-0.5,0.5-0.7,0.9-0.7,1c0,0.3-0.3,0.4-0.9,0.4c-0.4,0-0.7,0-0.8-0.1c-0.1-0.1-0.2-0.4-0.3-0.8c-0.1-0.7-0.4-1.1-0.7-1.4
			c-0.4-0.2-0.6-0.6-0.6-1.1c0-0.5-0.1-0.8-0.4-1c-0.2-0.1-0.4-0.5-0.6-1.2c-0.1-0.7-0.2-1.2-0.2-1.5s0.1-0.5,0.2-0.5
			c0.1-0.1,0.4-0.1,0.7-0.2c0.5-0.1,0.8-0.1,1-0.2c0.2-0.1,0.3-0.3,0.3-0.6c0-0.2,0-0.5-0.1-0.6l-0.2-0.9l-2.4,0.2
			c-1.6,0.1-2.4,0.2-2.5,0.4c-0.1,0.2-0.4,0.3-0.8,0.3c-0.4,0-0.6-0.1-0.6-0.3c0-0.2-0.2-0.3-0.5-0.5c-0.4-0.2-0.7-0.2-1.1-0.2
			c-0.6,0-0.9,0.2-0.9,0.6c0,0.2-0.2,0.4-0.7,0.4c-0.2,0-0.4,0.1-0.4,0.2c0.2,0.1,0.4,0.3,0.4,0.6c0,0.4,0.1,0.5,0.4,0.5
			c0.2,0,0.4,0.1,0.6,0.4c0.1,0.3,0.5,0.5,1.1,0.6c0.7,0.1,1.1,0.4,1.3,0.8c0.2,0.4,0.4,0.6,0.7,0.6c0.2,0,0.3,0.3,0.3,0.8
			s0.1,0.8,0.4,0.8c0.3,0,0.4,0.2,0.4,0.5c0,0.4,0.2,0.7,0.6,0.9c0.2,0.2,0.4,0.4,0.3,0.6c0,0.2,0.1,0.4,0.3,0.5
			c0.3,0.1,0.6,0.4,0.7,0.9c0.3,0.6,0.5,0.8,0.6,0.8c0.1,0,0.2,0.2,0.2,0.5c0,0.3,0.2,0.5,0.6,0.7c0.3,0.1,0.4,0.3,0.4,0.6
			c0,0.1,0,0.3-0.1,0.5c-0.1,0.2-0.1,0.4-0.1,0.6c0,0.2-0.2,0.4-0.5,0.5c-0.4,0.1-0.6,0.4-0.7,1c-0.1,0.6-0.3,0.8-0.4,0.8
			c-0.2,0-0.6,0.3-1.1,0.9c-0.5,0.6-0.8,1.1-0.8,1.3c0,0.3-0.1,0.5-0.4,0.5c-0.3,0-0.4,0.1-0.4,0.4s-0.2,0.5-0.7,0.7
			c-0.5,0.2-0.7,0.6-0.7,1.2c0,0.3,0,0.5-0.1,0.6c-0.1,0.1-0.2,0.2-0.4,0.2c-0.2,0-0.6,0.1-1.2,0.1c-0.9,0.1-1.5,0.2-1.8,0.4
			c-0.2,0.2-0.4,0.7-0.4,1.5c0,0.7,0.1,1,0.4,1c0.1,0,0.3-0.1,0.4-0.4c0.1-0.2,1.2-0.4,3.4-0.4c1.4,0,2.3,0,2.7,0.1
			c0.4,0.1,0.6,0.2,0.6,0.4c0,0.3,0.1,0.4,0.3,0.1c0.2-0.2,0.4-0.3,0.5-0.2c0,0,0.1,0.1,0.2,0.1c0.2,0,0.4-0.1,0.7-0.4
			c0.3-0.2,0.4-0.5,0.5-0.8c0.1-0.3,0.1-0.5-0.1-0.6c-0.1-0.1-0.4-0.2-0.9-0.2c-1.2-0.2-1.8-0.6-1.8-1.2c0-0.2,0.1-0.3,0.4-0.3
			c0.3,0,0.4-0.2,0.4-0.7c0-0.5,0.1-0.7,0.4-0.7c0.3,0,0.4-0.1,0.4-0.4c0-0.2,0.2-0.5,0.7-1c0.5-0.4,0.7-0.7,0.6-0.8v-0.3
			c0-0.5,0.1-1,0.4-1.5c0.3-0.5,0.6-0.7,0.9-0.7c0.1,0,0.2,0,0.2,0.1c0.3,0.1,0.5,0.3,0.5,0.6c0,0.2,0.3,0.6,0.8,1.3
			c0.5,0.7,0.8,1.1,0.8,1.2c0,0.2,0.1,0.3,0.4,0.4c0.2,0.1,0.4,0.4,0.5,0.9c0.1,0.3,0.2,0.5,0.3,0.7c0.2,0.1,0.4,0.2,0.8,0.3
			l0.9,0.3l-0.9,0.1C234.3,99.9,234,100.1,234,100.4z M227.2,81c0,0-0.1-0.1-0.1-0.3c0-0.1,0-0.2,0-0.3c0-0.1,0-0.1,0.1-0.1l0.1,0.2
			C227.3,80.8,227.3,81,227.2,81z M227.8,85.6c-0.1,0-0.1-0.1-0.1-0.2c0-0.1,0-0.1,0.1-0.1c0.1,0,0.2,0,0.2,0.1
			C227.9,85.5,227.9,85.6,227.8,85.6z M228.3,87.4l-0.1-0.3c0-0.1,0-0.2,0-0.3c0-0.1,0-0.1,0.1-0.1C228.4,87,228.4,87.2,228.3,87.4z
			 M231.5,93.6c-0.2,0-0.3-0.1-0.3-0.3c0-0.2,0.1-0.3,0.3-0.3c0.2,0,0.3,0.1,0.3,0.3C231.8,93.5,231.7,93.6,231.5,93.6z"/>
		<path d="M223,86.7c0-0.2,0-0.4-0.1-0.6c-0.1-0.4-0.3-0.4-0.6-0.1c-0.1,0.1,0,0.4,0.3,0.8l0.4,0.7L223,86.7z"/>
		<path d="M255.7,103.2c0,0.2,0.2,0.3,0.5,0.3c0.4,0,0.6-0.1,0.6-0.2c0-0.1,0.2-0.3,0.6-0.5c0.4-0.2,0.6-0.4,0.6-0.6
			c0-0.9-0.7-1.4-1.9-1.5l-1.3-0.1l0.1-6.7c0.1-4.5,0.2-6.8,0.3-7c0.1-0.1,0.2-0.8,0.3-1.9c0.1-2.1,0.4-3.2,0.7-3.2
			c0.2,0,0.4-0.1,0.4-0.3c0-0.2,0.2-0.3,0.7-0.3c0.4,0,0.8-0.1,1-0.3c0.3-0.2,0.4-0.5,0.4-0.7c0-0.3-0.2-0.6-0.5-0.8
			c-0.3-0.2-1.4-0.3-3.4-0.3c-2,0-2.9,0.1-2.9,0.3c0,0.1-0.3,0.2-0.9,0.2c-0.6,0-0.9,0.1-0.9,0.4s-0.1,0.4-0.3,0.4s-0.3,0.2-0.3,0.6
			c0,0.5,0.1,0.8,0.4,0.9c0.3,0.1,0.4,0.9,0.4,2.5c0,1.6,0.1,2.4,0.3,2.5c0.2,0.1,0.3,0.8,0.3,2.2c0,1.3-0.1,2-0.3,2.1
			c-0.2,0.1-0.4,1.5-0.4,4.3c-0.1,2.4-0.2,3.9-0.4,4.3c-0.2,0.5-0.8,0.8-1.8,0.9c-0.6,0-0.9,0.1-1,0.2c-0.1,0.1-0.2,0.4-0.2,0.8
			c0,0.6,0.1,0.9,0.4,0.9c0.3,0,0.6,0.1,0.9,0.4c0.3,0.3,0.5,0.4,0.6,0.2c0.1-0.2,1.5-0.4,4-0.4C254.6,102.9,255.7,103,255.7,103.2z
			 M253,88c0.3,0,0.4,0.2,0.4,0.6c0,0.4-0.1,0.5-0.4,0.5c-0.3,0-0.4-0.2-0.4-0.5C252.6,88.2,252.7,88,253,88z M251.4,96.6
			c-0.3,0-0.4-0.1-0.4-0.3c0-0.2,0.1-0.3,0.4-0.3c0.2,0,0.4,0.1,0.4,0.3C251.8,96.5,251.6,96.6,251.4,96.6z"/>
		<path d="M272,102.5c0.1,0,0.4,0,0.6-0.1c0.5-0.1,0.7-0.4,0.7-1.1c0-0.6,0.1-0.9,0.3-0.9c0.2,0,0.3-0.3,0.3-0.9
			c0-0.6,0.1-0.9,0.3-0.9c0.2-0.1,0.3-0.6,0.3-1.5c0-0.9,0.2-1.6,0.6-1.9c0.5-0.5,0.8-0.7,1.1-0.8c0.3-0.1,0.4-0.5,0.4-1.3
			c0-0.8,0.1-1.2,0.4-1.4c0.2-0.1,0.4-0.6,0.6-1.5c0.2-0.9,0.3-1.4,0.4-1.5c0.3-0.2,0.4-0.5,0.4-0.9c0-0.4,0.2-0.6,0.7-0.7
			c0.4,0,0.6-0.3,0.6-0.7c0-0.2-0.1-0.6-0.1-1c0-1,0.2-1.5,0.6-1.5c0.4,0,0.5-0.3,0.5-0.8c0-0.5,0.2-0.9,0.6-1.4
			c0.4-0.4,0.9-0.7,1.6-0.8c0.8-0.2,1.2-0.6,1.2-1.4c0-0.1,0-0.4-0.1-0.7l-0.1-0.6h-3.7c-2.5,0-3.7,0.1-3.7,0.3
			c0,0.2-0.1,0.3-0.3,0.3c-0.3,0-0.6,0.2-0.9,0.6c-0.4,0.5-0.4,0.7-0.2,0.7c0.3,0,0.5,0.1,0.5,0.4c0.1,0.3,0.5,0.4,1.1,0.4
			c0.6,0,1,0.2,1.1,0.7c0.1,0.5,0.1,0.7-0.1,0.8c-0.2,0.1-0.3,0.5-0.3,1.3c0,0.7-0.1,1.2-0.4,1.3c-0.2,0.1-0.3,0.3-0.3,0.7
			c0,0.1,0.1,0.2,0.1,0.4c0,0.5-0.1,0.9-0.3,1.4c-0.2,0.5-0.4,0.8-0.7,0.8c-0.4,0.1-0.5,0.4-0.5,0.9c0,0.5-0.1,0.9-0.3,1.1
			c-0.2,0.2-0.4,0.8-0.4,1.7c-0.1,1-0.3,1.5-0.6,1.5c-0.4,0-0.5,0.2-0.4,0.5c0,0.2,0,0.4,0,0.4c-0.1,0.1-0.2,0.1-0.4,0.1
			c-0.4,0-0.7-0.1-0.9-0.2c-0.5-0.3-0.7-1.2-0.8-2.9c0-0.7-0.1-1.2-0.4-1.4c-0.2-0.2-0.3-0.7-0.3-1.6c0-1.3-0.3-2.2-0.9-2.6
			c-0.2-0.1-0.2-0.3,0.1-0.4c0.1,0,0.2-0.2,0.3-0.4c0.1-0.2,0.1-0.5,0.1-0.7c0-0.2-0.1-0.3-0.2-0.3c-0.1,0-0.3-0.3-0.4-0.8
			c-0.1-0.6-0.4-0.9-0.7-0.9c-0.3-0.1-0.4-0.2-0.4-0.3c0-0.4,0.5-0.5,1.4-0.5c1.3,0,1.9-0.2,1.9-0.7c0-0.2,0.1-0.4,0.3-0.4
			c0.2,0,0.1-0.3-0.3-0.8c-0.4-0.5-0.9-0.8-1.6-0.8c-0.7,0-1.1-0.1-1.2-0.3c-0.1-0.1-0.3-0.1-0.7,0.1c-0.4,0.2-0.6,0.2-0.7-0.1
			c-0.2-0.2-0.3-0.3-0.4-0.1c-0.1,0.2-0.5,0.3-1.1,0.3c-0.4,0-0.6,0-0.8-0.1c-0.1-0.1-0.2-0.3-0.3-0.7c-0.1-0.5-0.3-0.8-0.7-0.8
			c-0.2,0-0.5,0.2-0.8,0.5c-0.4,0.4-0.7,0.5-1.2,0.5c-0.4,0-0.6,0.1-0.6,0.4c0,0.3-0.1,0.4-0.3,0.4s-0.3,0.2-0.3,0.6
			c0,0.5,0.1,0.7,0.3,0.7s0.3,0.1,0.3,0.4c0,0.2,0.3,0.4,1,0.5c0.6,0.1,1.1,0.4,1.5,0.9c0.4,0.5,0.7,1.1,0.7,1.6
			c0,0.5,0.1,1,0.3,1.6c0.2,0.6,0.4,0.9,0.5,0.9c0.1,0,0.2,0.3,0.2,0.8c0,0.6,0.2,1.1,0.5,1.4c0.3,0.3,0.5,0.9,0.8,1.8
			c0.2,0.9,0.3,1.7,0.3,2.5c0,0.9,0.1,1.4,0.4,1.4c0.1,0.1,0.2,0.3,0.2,0.7c0,0.4,0.1,0.6,0.2,0.6c0.2,0.1,0.3,0.6,0.3,1.6
			c0,0.9,0.1,1.4,0.4,1.4c0.2,0,0.4,0.3,0.6,1c0.2,0.7,0.4,1,0.5,1c0.2,0,0.4,0.3,0.4,0.8C270.9,102.1,271.3,102.5,272,102.5z"/>
		<path d="M169.5,785.3c0.1,0,0.2-0.2,0.2-0.5c0-0.2,0-0.4-0.1-0.4c-0.1,0-0.1-0.1-0.1-0.3c0-0.2,0.1-0.4,0.2-0.6
			c0.1-0.3,0.1-0.5-0.2-0.6c-0.2-0.2-0.5-0.3-0.9-0.3c-0.5,0-0.8,0.1-1.1,0.4c-0.3,0.2-0.4,0.3-0.5,0.2c-0.1-0.1-0.4-0.1-0.8,0
			c-0.5,0.1-1.4,0.2-2.6,0.2c-0.9,0-1.4,0-1.5-0.1c-0.1-0.1-0.2,0-0.4,0.2c-0.1,0.1-0.3,0.2-0.4,0.2c-0.2,0-0.4,0-0.7-0.1
			c-0.7-0.2-1.1-0.2-1.3-0.2c-0.1,0-0.2,0-0.2,0c-0.1,0-0.3,0.1-0.4,0.3c-0.1,0.2-0.2,0.4-0.2,0.5c0,0.1,0,0.1,0.1,0.2
			c0,0,0.1,0.2,0.1,0.5c0,0.1,0,0.2-0.1,0.3c-0.1,0-0.2,0.1-0.3,0.1c-0.3,0-0.5,0.1-0.5,0.3c0,0,0,0.1,0.1,0.2
			c0.1,0.1,0.1,0.3,0.1,0.6c0,0.3-0.1,0.4-0.1,0.5c0,0.5,0.2,0.8,0.6,0.8c0.3,0,0.4-0.1,0.4-0.2s0.1-0.2,0.2-0.2
			c0.1,0,0.1,0,0.2-0.1c0,0,0-0.1,0-0.2c0-0.1-0.1-0.2-0.2-0.2c-0.1-0.1-0.1-0.1-0.1-0.2c0,0,0-0.1,0-0.1c0,0,0-0.1,0.1-0.1
			c0,0,0.1,0,0.2-0.1c0.2-0.1,0.2-0.2,0.2-0.3c0,0,0-0.1,0-0.2c0-0.1,0-0.1,0-0.2c0-0.1,0-0.2,0.1-0.2c0.1-0.1,0.1-0.3,0-0.6
			c-0.1-0.3-0.1-0.4,0-0.4c0.1,0,0.1,0.1,0.1,0.2c0,0.1,0.2,0.2,0.5,0.4c0.4,0.1,0.7,0.2,1.1,0.2c0.4,0,0.7,0.1,0.8,0.3
			c0.2,0.2,0.3,0.2,0.5,0.2c0.1,0,0.1,0,0.1,0c0.1,0,0.1,0,0,0.1c-0.3,0.3-0.4,2.2-0.5,5.8c0,0.8-0.1,1.2-0.3,1.4
			c-0.2,0.1-0.3,0.3-0.3,0.4c0,0.1-0.3,0.2-0.8,0.2l-0.7,0.1l-0.1,0.5c0,0,0,0.1,0,0.1s0,0.1,0,0.1c0,0.2,0.1,0.4,0.4,0.7
			c0.3,0.3,0.5,0.4,0.7,0.4c0.1,0,0.1,0,0.1-0.1c0-0.1,0-0.1-0.1-0.1c-0.1,0-0.1,0-0.1-0.1c0-0.1,0.2-0.1,0.5-0.1c0.1,0,0.4,0,0.8,0
			c0.4,0,0.7,0,0.9,0c0.6,0,0.9-0.1,1.1-0.2c0.1-0.1,0.3-0.2,0.6-0.1c0.2,0.1,0.3,0,0.4-0.1c0.1-0.1,0.2-0.1,0.3-0.1
			c0.1,0,0.3-0.1,0.5-0.2c0.1-0.1,0.2-0.2,0.2-0.3c0-0.1-0.1-0.2-0.2-0.5c-0.2-0.3-0.3-0.4-0.5-0.4c-0.1,0-0.2-0.1-0.2-0.2
			c0-0.1-0.1-0.2-0.3-0.1c0,0-0.1,0-0.1,0c-0.1,0-0.1,0-0.1,0c-0.1,0-0.2,0-0.3-0.1c0-0.1-0.1-0.3-0.1-0.5v-0.4c0-0.5,0-0.8,0-0.9
			c0-0.1,0.1-0.2,0.2-0.2c0.2,0,0.2-0.1,0.2-0.4c0-0.3-0.1-0.5-0.2-0.5c-0.1,0-0.2-0.4-0.2-1.1c0-0.8,0.1-1.2,0.2-1.4
			c0.1-0.1,0.2-0.5,0.2-1.2c0-0.7,0.1-1,0.1-1.1c0.1-0.2,0.5-0.2,1.2-0.2c1,0,1.5,0.1,1.6,0.4c0,0.1,0.1,0.2,0.4,0.5
			c0.2,0.2,0.3,0.4,0.3,0.8c0,0.3,0.1,0.5,0.1,0.5c0,0.1,0.2,0.1,0.4,0.1c0.2,0,0.4,0,0.4-0.1c0-0.1,0.1-0.2,0.3-0.2
			c0.2-0.1,0.3-0.2,0.3-0.4c0-0.2-0.1-0.4-0.2-0.5C169.4,785.4,169.4,785.3,169.5,785.3z"/>
		<path d="M187,790.2c-0.1,0-0.3,0.2-0.5,0.5c-0.3,0.3-0.4,0.6-0.4,0.7c0,0.1-0.1,0.2-0.4,0.2c-0.1,0-0.2,0-0.3,0.1
			c0,0-0.1,0.1-0.1,0.1c0,0,0,0.1,0,0.3c0,0.2-0.1,0.3-0.4,0.3c0,0-0.1,0-0.1,0c-0.1,0-0.1,0-0.2,0c-0.2,0-0.4,0.1-0.6,0.3
			c-0.2,0.2-0.4,0.3-0.6,0.3c-0.1,0-0.2-0.1-0.2-0.2c0-0.1-0.1-0.1-0.4,0c-0.2,0.1-0.6,0.2-1.2,0.2c-0.5,0-0.7,0-0.7-0.1
			c0-0.1-0.1-0.1-0.2-0.1c-0.1,0-0.1-0.1-0.2-0.2c-0.1-0.2-0.1-0.3-0.1-0.4c0-0.1,0-0.2,0-0.3c0-0.2,0-0.4,0-0.6c0-0.3,0-0.5,0-0.8
			c0-0.3,0-0.5,0-0.8c0-0.3,0-0.5,0-0.6v-0.2c0-0.1,0.4-0.1,1.3-0.1c0.7,0,1.2,0.1,1.4,0.2c0.2,0.1,0.4,0.4,0.4,0.8
			c0,0.2,0,0.3,0.1,0.3c0,0,0.1,0,0.2,0c0.1-0.1,0.3-0.1,0.5-0.1c0.1,0,0.2,0,0.3-0.1c0-0.1,0.1-0.2,0.1-0.5c0-0.1,0-0.2,0-0.3
			c0-0.2,0-0.3,0-0.4v-0.2c0-0.3,0-0.6,0.1-0.7c0.1-0.1,0.1-0.3,0-0.4c-0.1-0.1-0.1-0.3,0.1-0.4c0.1-0.1,0.2-0.2,0.2-0.4
			c0-0.3-0.3-0.4-1-0.4c-0.4,0-0.6,0.2-0.6,0.5c0,0.1,0,0.2,0.1,0.3c0,0.2,0,0.4,0,0.5s-0.3,0.2-0.9,0.3c-0.5,0.1-1,0.1-1.5,0.1
			h-0.6v-0.6c0-0.4,0.1-0.6,0.2-0.6c0.1,0,0.2-0.1,0.2-0.4c0-0.3-0.1-0.5-0.2-0.9c-0.1-0.2-0.2-0.4-0.1-0.4c0-0.1,0.1-0.1,0.2-0.3
			c0.2-0.1,0.3-0.3,0.2-0.5c0,0,0-0.1,0-0.2c0-0.1,0.1-0.3,0.4-0.3c0.3-0.1,0.7-0.1,1.5-0.2c0.7,0,1.1-0.1,1.1-0.1
			c0.3,0,0.5,0.1,0.6,0.2c0.1,0.2,0.3,0.3,0.5,0.4c0.2,0.1,0.3,0.2,0.3,0.3c0,0.1,0.1,0.2,0.3,0.3c0.2,0.1,0.3,0.2,0.3,0.3
			c0,0.2,0.1,0.3,0.3,0.5s0.4,0.2,0.6,0.2h0c0.3,0,0.4-0.2,0.4-0.6c0-0.2-0.1-0.3-0.2-0.5c-0.1-0.1-0.2-0.3-0.2-0.5
			c0-0.3-0.1-0.5-0.2-0.5c-0.1,0-0.1-0.1,0-0.4c0.1-0.1,0.1-0.2,0.1-0.3c0,0-0.1-0.1-0.1-0.1c-0.1-0.1-0.2-0.2-0.2-0.3
			c0-0.1-0.1-0.3-0.3-0.5c-0.2-0.2-0.4-0.3-0.6-0.1c-0.3,0.1-1.8,0.3-4.7,0.4h-0.7c-1.5,0-2.2-0.1-2.3-0.3c0-0.1-0.1-0.1-0.2-0.1
			s-0.2,0-0.2,0.1l0,0.1c0,0.1,0,0.1,0,0.1c0,0,0,0.1,0,0.2c0,0.1,0,0.2,0,0.2c0,0.2-0.1,0.3-0.3,0.3c-0.2,0.1-0.3,0.2-0.2,0.5
			c0.1,0.2,0.1,0.4,0.2,0.5c0.1,0.1,0.2,0.1,0.3,0.1c0.1,0,0.3,0,0.4,0c0.1,0,0.2,0,0.4,0c0.3,0,0.5,0.1,0.6,0.4
			c0.1,0.2,0.1,0.7,0.1,1.4c0,0.9-0.1,1.4-0.2,1.4c-0.1,0-0.1,0.2,0,0.4c0.1,0.2,0.1,0.4,0,0.6c-0.1,0.2-0.2,0.3-0.3,0.3
			c-0.1,0-0.1,0.1,0.1,0.2c0.1,0.1,0.1,0.3,0.1,0.6c0,0.5-0.1,1.5-0.2,2.8l-0.1,0.9h-0.6c-0.4,0-0.6,0.1-0.6,0.3
			c0,0.2-0.1,0.3-0.3,0.3c-0.1,0-0.2,0.1-0.2,0.3c0,0.3,0.1,0.5,0.3,0.6c0.2,0.1,0.3,0.2,0.3,0.4c0,0.1,0.2,0.1,0.7,0.1
			c0.5,0,0.8-0.1,0.9-0.3c0.1-0.1,0.5-0.2,1.2-0.2c0.5,0,0.9,0,1.3,0c0.7,0,1.1,0.1,1.2,0.2c0,0.1,0.2,0.1,0.4,0
			c0.2-0.1,0.7-0.2,1.5-0.2c0.8,0,1.3,0,1.5-0.1c0.2,0,0.3-0.1,0.5-0.3c0.2-0.2,0.3-0.3,0.2-0.5c0-0.2,0-0.3,0.1-0.4
			c0.1-0.1,0.2-0.3,0.2-0.8c0-0.3,0-0.5,0-0.6c0-0.1,0.1-0.1,0.2-0.1c0.2,0,0.3-0.2,0.3-0.5c0-0.2-0.1-0.4-0.2-0.6
			C187.3,790.3,187.2,790.2,187,790.2z"/>
		<path d="M176.9,792.1c0,0,0.1,0,0.1-0.1c0.1-0.2,0.1-0.3,0-0.3c-0.1,0-0.2,0.1-0.2,0.2C176.7,792,176.8,792.1,176.9,792.1z"/>
		<path d="M199.6,800.6c-0.1,0-0.2,0.1-0.2,0.2c0,0.1,0.1,0.2,0.2,0.2s0.2-0.1,0.2-0.2C199.8,800.7,199.7,800.6,199.6,800.6z"/>
		<path d="M207.6,782.6c-0.3,0-0.5,0-0.7,0c-0.4,0-0.7,0.1-0.7,0.1c-0.1,0-0.2,0-0.2,0c-0.1,0-0.1-0.1-0.1-0.1c0,0,0-0.1-0.1-0.2
			c0-0.1,0-0.2,0-0.2c0-0.1,0-0.1,0,0c0,0,0,0.1,0,0.2c0,0.2-0.2,0.3-0.4,0.4c-0.2,0.1-0.4,0.2-0.4,0.4c0,0.1-0.1,0.3-0.2,0.4
			c-0.1,0.1-0.2,0.3-0.2,0.4c0,0.2-0.1,0.4-0.2,0.6c-0.1,0.2-0.2,0.4-0.2,0.6c0,0.2,0,0.3-0.1,0.3c-0.1,0-0.2,0.1-0.2,0.4
			c0,0.2-0.1,0.4-0.2,0.5c-0.1,0.1-0.2,0.2-0.3,0.5c-0.1,0.3-0.1,0.4-0.2,0.4c-0.1,0-0.1,0.1-0.1,0.3c0,0.2,0,0.4-0.2,0.5
			c-0.2,0.2-0.3,0.5-0.3,0.9c-0.1,0.4-0.2,0.6-0.4,0.6c-0.2,0-0.3,0.1-0.3,0.2c0,0.1,0,0.2-0.1,0.2c-0.1,0-0.1,0.1-0.1,0.3
			c0,0.2-0.1,0.3-0.3,0.3c-0.2,0-0.3-0.2-0.3-0.5c0-0.3-0.1-0.5-0.2-0.5c-0.1,0-0.2-0.1-0.2-0.3c0-0.2,0-0.3-0.1-0.3
			c-0.1,0-0.2-0.2-0.2-0.6c0-0.4-0.1-0.6-0.2-0.6c-0.1-0.1-0.2-0.2-0.2-0.4c0-0.2,0-0.3-0.1-0.3c-0.1,0-0.2-0.2-0.2-0.5
			s-0.1-0.6-0.3-0.7c-0.2-0.2-0.3-0.5-0.3-0.9c0-0.5,0-0.7-0.1-0.7s-0.2-0.3-0.2-0.8c-0.1-0.6-0.2-0.9-0.4-0.9
			c-0.2,0-0.4-0.1-0.5-0.3c-0.1-0.2-0.3-0.3-0.4-0.3c-0.2,0-0.3-0.1-0.4-0.3l-0.1-0.2l0,0.2c0,0.2-0.1,0.3-0.4,0.3
			c-0.3,0-0.4,0-0.4,0.1c0,0.1-0.1,0.1-0.2,0.1c-0.1,0-0.2,0.1-0.3,0.2c-0.1,0.1-0.2,0.2-0.4,0.1c-0.3-0.1-0.4,0-0.4,0.1
			c0,0.1,0.1,0.3,0.3,0.4c0.2,0.2,0.4,0.3,0.5,0.3c0.3,0.1,0.4,0.7,0.4,1.8c0,0.6,0,1,0,1.4c0,0.3,0,0.7,0,1.1
			c0,0.6,0.1,0.9,0.2,1.1c0.1,0.1,0.1,0.2,0,0.2c-0.2,0-0.2,0.1-0.2,0.2c0,0.1,0,0.2-0.1,0.5c-0.1,0.8-0.2,1.3-0.2,1.5
			c0,0.2,0,0.3,0.1,0.3c0.1,0,0.1,0.1,0.1,0.2c0,0.1,0,0.2-0.1,0.2c-0.1,0-0.1,0.1-0.2,0.3c-0.1,0.2-0.3,0.3-0.6,0.4
			c-0.3,0.1-0.5,0.2-0.5,0.5c0,0.1,0,0.2,0.1,0.4c0,0.2,0.1,0.3,0.2,0.3c0.1,0,0.4,0,0.8,0c0.6,0,0.9,0,0.9-0.1
			c0-0.1,0.3-0.1,0.8-0.1c0.6,0,1-0.1,1-0.4c0-0.1,0-0.2,0-0.2c-0.1-0.2-0.3-0.3-0.6-0.3c-0.4,0-0.6-0.1-0.6-0.2
			c0-0.1-0.1-1.3-0.2-3.7c0-0.7,0-1.5,0-2.4c0-0.8,0.1-1.2,0.2-1.2c0.1,0,0.2,0.1,0.2,0.2c0,0.1,0.1,0.2,0.2,0.2
			c0.1,0,0.1,0.1,0.1,0.4c0,0.3,0,0.4,0.1,0.4c0.1,0,0.1,0.1,0.2,0.4c0.1,0.2,0.2,0.5,0.3,0.9c0.2,0.4,0.3,0.6,0.4,0.6
			c0,0,0.1,0.1,0.1,0.4s0.1,0.5,0.2,0.7c0.1,0.2,0.1,0.4,0.1,0.4c0.1,0,0.1,0.2,0.2,0.5c0.1,0.3,0.2,0.5,0.2,0.5
			c0.1,0,0.1,0.2,0.2,0.5c0,0.2,0.1,0.5,0.3,0.9c0.2,0.4,0.3,0.7,0.3,0.9c0,0.3,0.1,0.4,0.4,0.5h0.1c0.4,0,0.7-0.3,0.8-1
			c0.1-0.3,0.1-0.5,0.2-0.6c0.1-0.1,0.1-0.2,0.1-0.4c0-0.2,0.1-0.3,0.4-0.4c0.2-0.1,0.4-0.3,0.4-0.6c0-0.2,0.1-0.4,0.2-0.6
			c0.1-0.2,0.2-0.4,0.2-0.7c0-0.2,0-0.3,0-0.4c0-0.1,0.1-0.1,0.1,0c0.1,0,0.1,0,0.1,0c0,0,0-0.1,0-0.2c0-0.2,0.1-0.3,0.2-0.4
			c0.1-0.1,0.2-0.3,0.3-0.6c0.1-0.3,0.2-0.5,0.2-0.5c0.1,0,0.1-0.1,0.1-0.4c0-0.2,0.1-0.4,0.2-0.4c0.1-0.1,0.2-0.2,0.2-0.3
			s0.1-0.3,0.2-0.4c0.1-0.1,0.2-0.2,0.3-0.2c0.2,0,0.2,0.1,0.2,0.4c0,0.1,0,0.2,0,0.2c0,0.3-0.1,0.7-0.1,1.4v0.7c0,0.2,0,0.5,0,0.9
			c0,0.5,0,0.8-0.1,0.8c-0.1,0-0.2,0.5-0.2,1.4l0,1.4l-0.8,0.1c-0.5,0-0.7,0.1-0.8,0.3c0,0.1-0.1,0.2-0.1,0.2c0,0.2,0.2,0.3,0.6,0.3
			c0.3,0,0.5,0,0.5,0.1c0,0.1,0.7,0.1,2.2,0.1c0.9,0,1.3,0,1.3-0.1c0-0.1,0.1-0.1,0.2-0.1s0.2-0.1,0.2-0.4c0-0.3-0.1-0.5-0.3-0.6
			c-0.1,0-0.1,0-0.2,0c-0.1,0-0.1,0-0.2,0c-0.1,0-0.1,0-0.2,0c-0.1,0-0.2,0-0.2,0c-0.1,0-0.2-0.1-0.2-0.2c0-0.1-0.1-0.3-0.1-0.6
			c0-0.5,0.1-0.8,0.2-0.9c0.1,0,0.1-0.3,0.1-0.6c0-0.4,0-0.5-0.1-0.5c-0.1,0-0.2-0.1-0.2-0.4c0-0.3,0.1-0.5,0.2-0.6
			c0.1-0.1,0.1-0.1,0-0.2c-0.1-0.1-0.2-0.7-0.2-1.9c0-1.1,0.1-1.7,0.2-1.7c0.1,0,0.1-0.2,0.1-0.5c0-0.3,0.1-0.4,0.2-0.5
			c0.1-0.1,0.3-0.1,0.7-0.1c0.2,0,0.3,0,0.4-0.1c0-0.1,0.1-0.2,0.1-0.5c0-0.3-0.1-0.5-0.2-0.6C208.2,782.6,208,782.6,207.6,782.6z
			 M200.1,789.4c-0.1,0-0.1,0-0.1-0.1c0-0.1,0-0.2,0.1-0.2c0.1,0,0.1,0.1,0.1,0.2C200.2,789.4,200.2,789.4,200.1,789.4z
			 M205.6,786.6c-0.1,0-0.1-0.1-0.1-0.2c0-0.1,0.1-0.1,0.1-0.1c0.1,0,0.2,0.1,0.2,0.2C205.7,786.6,205.7,786.6,205.6,786.6z"/>
		<path d="M217.3,779.8c0.2,0,0.3-0.1,0.3-0.2c0-0.1-0.1-0.1-0.3-0.1c-0.2,0-0.3,0-0.3,0.1C217,779.7,217.1,779.8,217.3,779.8z"/>
		<path d="M221.9,780.6C222,780.6,222,780.5,221.9,780.6c0.1-0.1,0-0.1-0.2-0.1c-0.2,0-0.3,0.1-0.3,0.2
			C221.6,780.7,221.7,780.7,221.9,780.6C221.9,780.6,221.9,780.6,221.9,780.6z"/>
		<path d="M225.2,782.4c-0.1,0-0.2,0-0.2-0.1s-0.1-0.2-0.4-0.3c-0.3-0.1-0.4-0.3-0.5-0.5l-0.2-0.3c-0.1-0.1-0.2-0.1-0.2,0.1
			c0,0.1-0.3,0.1-0.8,0.1c-0.6,0-0.9,0-0.9-0.1s-0.1-0.1-0.3-0.1c-0.5,0-0.8-0.1-0.8-0.4c0-0.1-0.1-0.2-0.3-0.2s-0.3,0.1-0.2,0.3
			c0,0,0,0,0,0.1c0,0,0,0,0,0.1c0,0.1-0.6,0.2-1.8,0.2H217l-0.5,0.5c-0.3,0.3-0.5,0.5-0.5,0.7c0,0.2,0.2,0.4,0.7,0.4
			c0.2,0,0.3,0,0.3,0.1c0,0.1,0,0.1,0.1,0.1c0.2,0,0.4,0.2,0.6,0.5c0.2,0.3,0.3,0.7,0.3,1.2c0,0.4,0.1,0.6,0.1,0.6
			c0,0.2-0.1,0.4-0.2,0.5c-0.2,0.1-0.2,0.2-0.1,0.3c0.1,0.1,0.2,0.3,0.2,0.7c0,0.3-0.1,0.5-0.2,0.5c-0.2,0-0.2,0,0,0.1
			c0.1,0.1,0.1,0.3,0,0.6c-0.1,0.3-0.1,0.5,0.1,0.6c0.1,0.1,0.1,0.2,0.1,0.3c0,0.2-0.1,0.4-0.2,0.5c-0.1,0.1-0.1,0.6-0.2,1.6l0,1.5
			l-0.4,0.2c-0.2,0.1-0.5,0.2-1.1,0.2c-0.3,0-0.5,0.1-0.5,0.1s-0.1,0.2-0.1,0.4c0,0.2,0.2,0.5,0.6,0.8c0.2,0.1,0.3,0.2,0.5,0.2
			c0.2,0,0.3-0.1,0.3-0.2c0.1-0.1,0.8-0.2,2.1-0.2c1.4-0.1,2.1-0.1,2.2-0.3c0.1-0.1,0.2-0.2,0.3-0.2c0.1,0,0.2-0.1,0.2-0.2
			c0-0.1-0.1-0.2-0.4-0.2c-0.3,0-0.4-0.1-0.5-0.3c0-0.2-0.2-0.3-0.5-0.4c-0.4-0.1-0.5-0.2-0.5-0.4c0-0.1,0-0.2,0.1-0.3
			c0.2-0.2,0.2-0.3,0.1-0.4c-0.1,0-0.2-0.6-0.2-1.6c0-0.3,0-0.6,0-1c0-0.3,0-0.4,0.1-0.5c0-0.1,0.1-0.1,0.2-0.1c0.2,0,0.5,0,0.8,0.1
			c0.3,0.1,0.5,0.2,0.6,0.3c0.1,0.1,0.7,0.2,1.7,0.2c0.8,0,1.2,0,1.2-0.1c0.1-0.1,0-0.2-0.2-0.3c-0.2-0.1-0.4-0.2-0.5-0.4
			c-0.1-0.1-0.2-0.2-0.2-0.2c0,0,0.1-0.1,0.3-0.1c0.3-0.1,0.4-0.1,0.4-0.2c0-0.1,0.1-0.2,0.4-0.3c0.3-0.1,0.4-0.2,0.4-0.4
			c0-0.5,0.1-0.7,0.3-0.7c0.1,0,0.2-0.1,0.4-0.2c0.2-0.2,0.2-0.7,0.2-1.5c0-1-0.1-1.5-0.3-1.7C225.5,782.5,225.3,782.4,225.2,782.4z
			 M223.6,786.1c0,0-0.1,0.1-0.4,0.1h-0.1c0,0-0.1,0-0.1,0c-0.1,0-0.1,0,0,0.1c0.1,0.1,0.2,0.1,0.2,0.2c0,0.1-0.1,0.3-0.3,0.5
			c-0.2,0.2-0.5,0.3-0.7,0.3s-0.6,0.1-1.1,0.2c-0.1,0-0.2,0-0.3,0c-0.2,0-0.4-0.1-0.7-0.3c-0.2-0.2-0.3-0.3-0.4-0.3
			c0-0.1,0-0.1,0.1-0.2c0.1-0.1,0.2-0.7,0.2-1.6v-1.2c0-0.3,0.1-0.5,0.2-0.7c0.1-0.2,0.3-0.4,0.4-0.4h0.1l0.4,0.1
			c0.3,0,0.5,0.1,0.8,0.1c0.2,0.1,0.4,0.1,0.4,0.1c0,0.1,0.1,0.1,0.4,0.2c0.3,0.1,0.4,0.2,0.4,0.3c0,0.1,0.1,0.3,0.2,0.4
			c0.1,0.1,0.2,0.2,0.1,0.3c-0.1,0.1-0.1,0.3,0.1,0.6c0.1,0.2,0.2,0.4,0.2,0.6C223.7,785.3,223.7,785.6,223.6,786.1z"/>
		<path d="M232.8,791.9c0,0.1,0,0.2,0.1,0.2c0,0,0.1,0,0.1-0.1c0.1-0.2,0.1-0.3,0-0.3C232.8,791.7,232.8,791.8,232.8,791.9z"/>
		<path d="M243.1,790.2c-0.1,0-0.3,0.2-0.5,0.5c-0.3,0.3-0.4,0.6-0.4,0.7c0,0.1-0.1,0.2-0.4,0.2c-0.1,0-0.2,0-0.3,0.1
			c0,0-0.1,0.1-0.1,0.1c0,0,0,0.1,0,0.3c0,0.2-0.1,0.3-0.4,0.3c0,0-0.1,0-0.1,0c-0.1,0-0.1,0-0.2,0c-0.2,0-0.4,0.1-0.6,0.3
			c-0.2,0.2-0.4,0.3-0.6,0.3c-0.1,0-0.2-0.1-0.2-0.2c0-0.1-0.1-0.1-0.4,0c-0.2,0.1-0.6,0.2-1.2,0.2c-0.5,0-0.7,0-0.7-0.1
			c0-0.1-0.1-0.1-0.2-0.1c-0.1,0-0.1-0.1-0.2-0.2c-0.1-0.2-0.1-0.3-0.1-0.4c0-0.1,0-0.2,0-0.3c0-0.2,0-0.4,0-0.6c0-0.3,0-0.5,0-0.8
			c0-0.3,0-0.5,0-0.8c0-0.3,0-0.5,0-0.6v-0.2c0-0.1,0.4-0.1,1.3-0.1c0.7,0,1.2,0.1,1.4,0.2c0.2,0.1,0.4,0.4,0.4,0.8
			c0,0.2,0,0.3,0.1,0.3c0,0,0.1,0,0.2,0c0.1-0.1,0.3-0.1,0.5-0.1c0.1,0,0.2,0,0.3-0.1c0-0.1,0.1-0.2,0.1-0.5c0-0.1,0-0.2,0-0.3
			c0-0.2,0-0.3,0-0.4v-0.2c0-0.3,0-0.6,0.1-0.7c0.1-0.1,0.1-0.3,0-0.4c-0.1-0.1-0.1-0.3,0.1-0.4c0.1-0.1,0.2-0.2,0.2-0.4
			c0-0.3-0.3-0.4-1-0.4c-0.4,0-0.6,0.2-0.6,0.5c0,0.1,0,0.2,0.1,0.3c0,0.2,0,0.4,0,0.5s-0.3,0.2-0.9,0.3c-0.5,0.1-1,0.1-1.5,0.1
			h-0.6v-0.6c0-0.4,0.1-0.6,0.2-0.6c0.1,0,0.2-0.1,0.2-0.4c0-0.3-0.1-0.5-0.2-0.9c-0.1-0.2-0.2-0.4-0.1-0.4c0-0.1,0.1-0.1,0.2-0.3
			c0.2-0.1,0.3-0.3,0.2-0.5c0,0,0-0.1,0-0.2c0-0.1,0.1-0.3,0.4-0.3c0.3-0.1,0.7-0.1,1.5-0.2c0.7,0,1.1-0.1,1.1-0.1
			c0.3,0,0.5,0.1,0.6,0.2c0.1,0.2,0.3,0.3,0.5,0.4c0.2,0.1,0.3,0.2,0.3,0.3c0,0.1,0.1,0.2,0.3,0.3c0.2,0.1,0.3,0.2,0.3,0.3
			c0,0.2,0.1,0.3,0.3,0.5s0.4,0.2,0.6,0.2h0c0.3,0,0.4-0.2,0.4-0.6c0-0.2-0.1-0.3-0.2-0.5c-0.1-0.1-0.2-0.3-0.2-0.5
			c0-0.3-0.1-0.5-0.2-0.5c-0.1,0-0.1-0.1,0-0.4c0.1-0.1,0.1-0.2,0.1-0.3c0,0-0.1-0.1-0.1-0.1c-0.1-0.1-0.2-0.2-0.2-0.3
			c0-0.1-0.1-0.3-0.3-0.5c-0.2-0.2-0.4-0.3-0.6-0.1c-0.3,0.1-1.8,0.3-4.7,0.4h-0.7c-1.5,0-2.2-0.1-2.3-0.3c0-0.1-0.1-0.1-0.2-0.1
			s-0.2,0-0.2,0.1l0,0.1c0,0.1,0,0.1,0,0.1c0,0,0,0.1,0,0.2c0,0.1,0,0.2,0,0.2c0,0.2-0.1,0.3-0.3,0.3c-0.2,0.1-0.3,0.2-0.2,0.5
			c0.1,0.2,0.1,0.4,0.2,0.5c0.1,0.1,0.2,0.1,0.3,0.1c0.1,0,0.3,0,0.4,0c0.1,0,0.2,0,0.4,0c0.3,0,0.5,0.1,0.6,0.4
			c0.1,0.2,0.1,0.7,0.1,1.4c0,0.9-0.1,1.4-0.2,1.4c-0.1,0-0.1,0.2,0,0.4c0.1,0.2,0.1,0.4,0,0.6c-0.1,0.2-0.2,0.3-0.3,0.3
			c-0.1,0-0.1,0.1,0.1,0.2c0.1,0.1,0.1,0.3,0.1,0.6c0,0.5-0.1,1.5-0.2,2.8l-0.1,0.9h-0.6c-0.4,0-0.6,0.1-0.6,0.3
			c0,0.2-0.1,0.3-0.3,0.3c-0.1,0-0.2,0.1-0.2,0.3c0,0.3,0.1,0.5,0.3,0.6c0.2,0.1,0.3,0.2,0.3,0.4c0,0.1,0.2,0.1,0.7,0.1
			c0.5,0,0.8-0.1,0.9-0.3c0.1-0.1,0.5-0.2,1.2-0.2c0.5,0,0.9,0,1.3,0c0.7,0,1.1,0.1,1.2,0.2c0,0.1,0.2,0.1,0.4,0
			c0.2-0.1,0.7-0.2,1.5-0.2c0.8,0,1.3,0,1.5-0.1c0.2,0,0.3-0.1,0.5-0.3c0.2-0.2,0.3-0.3,0.2-0.5c0-0.2,0-0.3,0.1-0.4
			c0.1-0.1,0.2-0.3,0.2-0.8c0-0.3,0-0.5,0-0.6c0-0.1,0.1-0.1,0.2-0.1c0.2,0,0.3-0.2,0.3-0.5c0-0.2-0.1-0.4-0.2-0.6
			C243.3,790.3,243.2,790.2,243.1,790.2z"/>
		<path d="M264,792.7c-0.1,0-0.2-0.1-0.3-0.4c-0.1-0.2-0.3-0.4-0.5-0.4c-0.2,0-0.4-0.1-0.6-0.2c-0.2-0.1-0.4-0.2-0.4-0.4
			c-0.1-0.1-0.1-0.2-0.3-0.2c-0.1,0-0.3-0.1-0.6-0.4c-0.2-0.3-0.4-0.6-0.6-0.9c-0.1-0.3-0.4-0.6-0.8-1.1c-0.4-0.5-0.7-0.7-0.8-0.7
			c-0.1,0-0.2-0.1-0.4-0.3c-0.1-0.1-0.2-0.2-0.1-0.3c0,0,0.1-0.1,0.3-0.2c0.8-0.3,1.2-0.6,1.2-0.9c0-0.5,0.1-0.7,0.3-0.7
			c0.1,0,0.2-0.1,0.4-0.2c0.2-0.2,0.2-0.7,0.2-1.5c0-1-0.1-1.5-0.3-1.7c-0.1-0.1-0.2-0.2-0.4-0.2c-0.1,0-0.2,0-0.2-0.1
			c0-0.1-0.1-0.2-0.4-0.3c-0.3-0.1-0.4-0.3-0.5-0.5l-0.2-0.3c-0.1-0.1-0.2-0.1-0.2,0.1c0,0.1-0.3,0.1-0.8,0.1c-0.6,0-0.9,0-0.9-0.1
			c0-0.1-0.1-0.1-0.4-0.1s-0.5-0.1-0.6-0.3c-0.2-0.2-0.3-0.3-0.4-0.3s-0.2,0.1-0.1,0.3c0,0,0,0,0,0.1v0.1c0,0.1-0.6,0.2-1.8,0.2H252
			l-0.5,0.5c-0.3,0.3-0.5,0.6-0.5,0.7c0,0.1,0.2,0.2,0.5,0.3c0.3,0.1,0.5,0.1,0.5,0.2c0,0.1,0,0.1,0.1,0.1c0.2,0,0.4,0.2,0.6,0.5
			c0.2,0.3,0.3,0.7,0.3,1.2c0,0.4,0.1,0.6,0.1,0.6c0,0.2-0.1,0.4-0.2,0.5c-0.2,0.1-0.2,0.2-0.1,0.3c0.1,0.1,0.2,0.3,0.2,0.7
			c0,0.3-0.1,0.5-0.2,0.5c-0.1,0-0.2,0,0,0.1c0.1,0.1,0.2,0.2,0.2,0.4s-0.1,0.4-0.2,0.5c-0.1,0.1-0.1,0.3,0.1,0.4
			c0.1,0.1,0.2,0.3,0.2,0.4c0,0.1-0.1,0.3-0.2,0.4c-0.2,0.2-0.3,0.7-0.3,1.6c0,0.7,0,1.1-0.1,1.2c0,0.1-0.1,0.2-0.3,0.3
			c-0.2,0.1-0.3,0.1-0.3,0.2c0,0.1-0.3,0.1-0.8,0.1c-0.4,0-0.6,0.1-0.7,0.1c-0.1,0.1-0.1,0.2-0.1,0.5c0,0.2,0.2,0.5,0.6,0.8
			c0.2,0.1,0.3,0.2,0.5,0.2c0.2,0,0.3-0.1,0.3-0.2c0.1-0.1,0.8-0.2,2.1-0.2c1.3,0,2.1-0.1,2.2-0.3c0.1-0.1,0.2-0.2,0.3-0.2
			c0.1,0,0.2-0.1,0.2-0.2c0-0.1-0.1-0.2-0.4-0.2c-0.3,0-0.4-0.1-0.5-0.3c0-0.2-0.2-0.3-0.5-0.4c-0.4-0.1-0.5-0.2-0.5-0.4
			c0-0.1,0-0.2,0.1-0.3c0.2-0.2,0.2-0.3,0.1-0.4c-0.1,0-0.2-0.6-0.2-1.7c0-0.3,0-0.6,0-1c0-0.3,0-0.4,0.1-0.5c0-0.1,0.1-0.1,0.2-0.1
			c0.5,0,1,0.2,1.5,0.5c0.5,0.4,0.8,0.7,0.8,1c0,0.2,0.1,0.3,0.2,0.3s0.2,0.1,0.2,0.4c0,0.5,0.3,0.8,0.8,1c0.2,0.1,0.4,0.3,0.5,0.7
			c0.1,0.4,0.3,0.8,0.7,1.2l0.6,0.7l0.9-0.1c0.1,0,0.3,0,0.6-0.1c0.3,0,0.6,0,0.8-0.1c0.2,0,0.4-0.1,0.7-0.1
			c0.3-0.1,0.4-0.1,0.6-0.2c0.1-0.1,0.2-0.2,0.2-0.3C264.1,792.8,264.1,792.7,264,792.7z M258.3,785.9c-0.1,0-0.2,0-0.2,0.1
			c-0.1,0-0.1,0,0,0.1c0.2,0,0.2,0.1,0.2,0.2c0,0.1-0.1,0.3-0.4,0.4c-0.2,0.2-0.5,0.3-0.7,0.3c-0.3,0-0.6,0.1-1.1,0.2
			c-0.1,0-0.2,0-0.3,0c-0.2,0-0.4-0.1-0.7-0.3c-0.2-0.2-0.3-0.3-0.4-0.3c0-0.1,0-0.1,0.1-0.2c0.1-0.1,0.2-0.7,0.2-1.6v-1.2
			c0-0.3,0.1-0.5,0.2-0.7s0.3-0.4,0.4-0.4h0.1l0.4,0.1c0.3,0,0.5,0.1,0.8,0.1c0.2,0.1,0.4,0.1,0.4,0.1c0,0.1,0.1,0.1,0.4,0.2
			c0.3,0.1,0.4,0.2,0.4,0.3c0,0.1,0.1,0.3,0.2,0.4c0.1,0.1,0.2,0.2,0.1,0.3c-0.1,0.1-0.1,0.3,0.1,0.6c0.1,0.2,0.2,0.5,0.2,0.8v0.1
			c0,0.2-0.1,0.4-0.1,0.4C258.7,785.8,258.5,785.9,258.3,785.9z"/>
		<path d="M252.1,779.4c0,0.1,0.1,0.2,0.3,0.2s0.3-0.1,0.3-0.2c0-0.1-0.1-0.1-0.3-0.1S252.1,779.3,252.1,779.4z"/>
		<path d="M256.6,780.4c0.1,0.1,0.3,0.1,0.4,0c0,0,0,0,0.1,0c0.1-0.1,0.1-0.1,0.1-0.1c0,0-0.1,0-0.3,0
			C256.7,780.2,256.6,780.3,256.6,780.4z"/>
		<path d="M284.5,792.9c-0.1,0-0.1-0.1-0.2-0.4c-0.1-0.2-0.1-0.3-0.2-0.3c0,0-0.3,0.1-0.8,0.2c0,0-0.1,0-0.2,0c-0.4,0-0.7-0.6-1-1.7
			c-0.2-0.8-0.4-1.3-0.4-1.4c-0.1-0.1-0.2-0.3-0.2-0.5c-0.1-0.4-0.3-1.3-0.8-2.8c-0.5-1.5-0.7-2.4-0.8-2.7c-0.2-1-0.4-1.5-0.5-1.7
			c-0.1-0.2-0.2-0.3-0.4-0.3c-0.3-0.1-0.4,0-0.5,0.1c-0.1,0.1-0.2,0.2-0.4,0.2c-0.2,0-0.4,0.1-0.4,0.2c0,0.1-0.1,0.1-0.2,0.1
			c-0.1,0-0.2,0.2-0.4,0.6c-0.2,0.4-0.3,0.8-0.5,1.2c-0.1,0.4-0.2,0.6-0.3,0.7c-0.1,0.1-0.1,0.2-0.1,0.4c0,0.2-0.1,0.6-0.4,1.2
			c-0.3,0.6-0.5,1.1-0.5,1.5c-0.1,0.4-0.2,0.6-0.2,0.7c-0.1,0.1-0.2,0.3-0.4,0.8c-0.2,0.5-0.3,0.7-0.3,0.8c-0.1,0.2-0.2,0.4-0.2,0.5
			c0,0.2,0,0.2-0.1,0.2c-0.1,0-0.2,0.1-0.3,0.4c-0.1,0.2-0.2,0.4-0.2,0.6c0,0.1-0.2,0.3-0.5,0.6c-0.3,0.3-0.5,0.4-0.7,0.4
			c-0.2,0-0.3,0.1-0.5,0.4c-0.2,0.2-0.4,0.3-0.5,0.3c-0.1,0-0.2,0.1-0.4,0.4c-0.1,0.2-0.1,0.3-0.1,0.4c0,0.1,0.1,0.3,0.4,0.5
			l0.5,0.4l2-0.1c1.1,0,1.8-0.1,2.1-0.1c0.3,0,0.5-0.1,0.5-0.2c0,0,0-0.1-0.1-0.2c-0.1-0.2-0.1-0.3,0.1-0.3c0.1,0,0.2-0.1,0.2-0.2
			c0-0.1-0.1-0.2-0.2-0.2c-0.1,0-0.3-0.1-0.4-0.2c-0.1-0.1-0.4-0.2-0.7-0.3c-0.5-0.1-0.7-0.3-0.7-0.5c0-0.1,0-0.2,0.1-0.3
			c0.1-0.2,0.2-0.3,0.2-0.5c0-0.1,0-0.2,0.1-0.2c0.1,0,0.1-0.2,0.1-0.7v-0.7h0.6c0.4,0,0.7-0.1,0.7-0.2c0.1-0.2,0.6-0.2,1.5-0.2h0.4
			c0.7,0,1,0,1.1,0.1c0.1,0.1,0.2,0.4,0.2,0.8c0,0.5,0.1,0.8,0.3,0.9c0.2,0.2,0.3,0.3,0.3,0.6c0,0,0,0,0,0.1c0,0,0,0.1,0,0.1
			c0,0.3-0.1,0.4-0.1,0.5c-0.1,0.1-0.3,0.1-0.6,0.2c-0.5,0.1-0.7,0.2-0.8,0.3c0,0.1-0.1,0.1-0.3,0.1c-0.2,0-0.3,0.1-0.3,0.3
			c0,0.3,0,0.4,0.1,0.5c0.1,0.1,0.3,0.1,0.6,0.1c0.3,0,0.7,0,1.3-0.1c0.6-0.1,1.3-0.1,2-0.1c0.4,0,0.7,0,0.8,0c0.2,0,0.4,0,0.6,0
			c0.3,0,0.5-0.1,0.5-0.3c0.1-0.2,0.1-0.3,0.2-0.3c0.1,0,0.1-0.2,0.1-0.5C284.7,793.1,284.7,792.9,284.5,792.9z M278.4,788.4
			c0,0-0.1,0-0.2,0c-0.1,0-0.1,0-0.1,0c-0.3,0-0.5,0.1-0.6,0.2c-0.1,0.1-0.3,0.2-0.4,0.2c-0.2,0-0.3-0.1-0.4-0.2
			c-0.1-0.1-0.2-0.2-0.3-0.2c-0.1,0-0.2-0.1-0.2-0.2c0-0.1,0-0.2,0.1-0.2c0.1,0,0.2-0.1,0.3-0.4c0.1-0.3,0.2-0.5,0.2-0.7
			c0-0.2,0.1-0.3,0.2-0.4c0.1,0,0.2-0.3,0.2-0.8c0.1-0.6,0.3-0.9,0.6-0.9c0.2,0,0.3,0.1,0.5,0.2c0.1,0.1,0.2,0.2,0.4,0.5
			c0.1,0.3,0.2,0.4,0.2,0.5c0,0-0.1,0.1-0.3,0.1c-0.2,0-0.3,0.1-0.4,0.2c-0.1,0.1,0,0.2,0.1,0.2c0.1,0,0.2,0.1,0.2,0.2
			c0.1,0.1,0.2,0.3,0.2,0.4c0.1,0.2,0.1,0.2,0.2,0.3c0.1,0.1,0.1,0.3,0.2,0.6l0.1,0.5L278.4,788.4z"/>
		<path d="M304.7,782c-0.1,0-0.2,0-0.3,0.1c-0.2,0.1-0.3,0.1-0.3,0.1c-0.1,0-0.1-0.1-0.2-0.2c-0.1-0.2-0.3-0.3-0.4-0.3
			c-0.1,0-0.2-0.1-0.2-0.3c0-0.2-0.1-0.3-0.3-0.3c-0.2,0-0.3,0.1-0.3,0.3c0,0.2,0.1,0.3,0.2,0.3s0.2,0.1,0.2,0.3
			c0,0.2-0.1,0.3-0.2,0.3c-0.2,0-0.3-0.1-0.3-0.4c-0.1-0.2-0.2-0.4-0.3-0.4c-0.1,0-0.1,0-0.2,0.1c-0.2,0.2-0.2,0.3,0,0.3
			c0.1,0,0.2,0.1,0.2,0.1c0,0.1-0.1,0.2-0.4,0.2c-0.2,0-0.4,0-0.4-0.1c0-0.1-0.1-0.1-0.4-0.1c-0.4,0-0.8,0.1-1.1,0.2
			c-0.4,0.2-0.6,0.4-0.6,0.7c0,0.3,0.3,0.5,0.8,0.6c0.4,0.1,0.6,0.1,0.6,0.2c0,0.1,0.1,0.1,0.3,0.1c0.3,0,0.5,0.2,0.6,0.6
			c0.1,0.4,0.2,1.2,0.2,2.4c0,1.4,0.1,2.2,0.1,2.4c0.1,0.1,0,0.3,0,0.6l-0.1,0.4l-0.5-0.5c-0.4-0.3-0.5-0.5-0.5-0.6
			c0-0.1-0.1-0.2-0.2-0.3c-0.1-0.1-0.3-0.2-0.4-0.4c-0.2-0.1-0.3-0.2-0.3-0.2c-0.1-0.1-0.3-0.2-0.3-0.2c-0.1,0-0.2-0.1-0.2-0.2
			c0-0.1-0.1-0.2-0.2-0.3c-0.1-0.1-0.3-0.2-0.4-0.2s-0.1-0.1-0.1-0.2c0-0.1-0.1-0.2-0.2-0.2c-0.1,0-0.1,0-0.1-0.1
			c0-0.1-0.1-0.2-0.4-0.5c-0.2-0.3-0.4-0.4-0.4-0.5c0-0.1-0.1-0.2-0.3-0.2c-0.2,0-0.3-0.1-0.5-0.2c-0.2-0.1-0.2-0.3-0.2-0.4
			c0-0.1-0.2-0.3-0.5-0.7c-0.3-0.4-0.5-0.6-0.5-0.7c0-0.1-0.1-0.2-0.3-0.4c-0.2-0.2-0.3-0.4-0.3-0.4c0-0.3-0.6-0.5-1.8-0.6
			c-0.6,0-0.9-0.1-0.9-0.1c-0.3,0-0.4,0.1-0.4,0.2c0,0.1,0,0.2,0,0.4c0,0.2,0,0.4,0.1,0.6c0.1,0.2,0.1,0.3,0.2,0.3
			c0.1,0,0.2,0.2,0.3,0.6c0.1,0.4,0.2,0.6,0.2,0.6c0.1,0,0.1,0.3,0.1,0.8c0,0.5,0,0.8-0.1,0.8c-0.1,0-0.1,0.1-0.1,0.4
			c0,0.2,0.1,0.6,0.2,1c0.1,0.2,0.1,0.6,0.1,1.1c0,0.7-0.1,1.1-0.2,1.1c-0.1,0-0.1,0.2-0.1,0.7c0,0.5,0,1.1-0.1,1.5
			c0,0.4-0.1,0.6-0.1,0.7c-0.1,0.1-0.2,0.2-0.4,0.2c-0.3,0.1-0.4,0.2-0.4,0.4c0,0.2,0.1,0.4,0.4,0.6c0.2,0.2,0.3,0.3,0.5,0.3
			c0.2,0,0.8,0,1.7,0c1,0,1.6,0,1.8-0.1c0.2-0.1,0.3-0.3,0.3-0.8c0-0.3-0.1-0.4-0.3-0.5c-0.2-0.1-0.3-0.1-0.3-0.2
			c0-0.1-0.2-0.1-0.6-0.1c-0.4,0-0.7-0.1-0.9-0.3c-0.2-0.2-0.2-0.3-0.1-0.4c0.1-0.1,0.2-0.2,0.2-0.6c0-0.3,0-0.5-0.1-0.5
			c-0.1-0.1-0.1-0.9-0.1-2.6c0-1.7,0.1-2.5,0.2-2.5c0.1,0,0.3,0.1,0.4,0.2c0.1,0.1,0.3,0.2,0.5,0.3c0.3,0.1,0.4,0.3,0.5,0.4
			c0,0.2,0.3,0.5,0.8,1.1c0.5,0.5,0.9,0.9,1.3,1.1c0.2,0.1,0.3,0.2,0.3,0.3c0,0.1,0.2,0.2,0.5,0.6c0.7,0.7,1.1,1.1,1.1,1.4
			c0,0.1,0.1,0.1,0.3,0.1c0.2,0,0.3,0,0.3,0.1c0,0.1,0.1,0.3,0.4,0.5c0.2,0.2,0.4,0.4,0.4,0.6c0,0.1,0.1,0.3,0.3,0.5
			c0.2,0.2,0.3,0.3,0.4,0.3c0.1,0,0.3,0.2,0.6,0.5c0.3,0.3,0.5,0.5,0.7,0.6c0.1,0.1,0.2,0.1,0.3,0.1c0.4,0,0.6-0.2,0.6-0.6
			c0-0.1,0-0.2,0-0.4c0-0.9-0.1-1.4-0.2-1.6c-0.1-0.1-0.1-0.5-0.1-1.3v-0.4c0-1,0-1.6-0.1-1.6c-0.1-0.1-0.2-0.4-0.2-1
			c0-0.5,0-0.8,0.1-0.8c0.1-0.1,0.2-0.2,0.2-0.5c0-0.3,0-0.4,0.1-0.4c0.1,0,0.1-0.1,0.1-0.4s0-0.4-0.1-0.4c-0.1,0-0.1-0.1-0.1-0.4
			c0-0.4,0.1-0.7,0.2-1c0.2-0.3,0.4-0.5,0.7-0.5c0.2,0,0.4-0.1,0.4-0.1c0.1,0,0.1-0.2,0.1-0.5v-0.2C305,782.3,304.9,782,304.7,782z"
			/>
		<path d="M322.8,782.2h-1c-0.5,0-0.9,0-1.1-0.1c-0.2-0.1-0.3-0.3-0.3-0.5c0-0.1,0-0.2-0.1-0.2c-0.1,0-0.2,0-0.2,0.1
			c-0.1,0.1-0.3,0.2-0.7,0.2c-0.2,0-0.2,0-0.2-0.1c0-0.1-0.2-0.1-0.7-0.1c-0.5,0-0.8,0.1-0.8,0.2c-0.1,0.1-0.2,0.2-0.4,0.2
			c-0.2,0-0.3,0-0.4,0c-0.1,0-0.1,0-0.2,0c-0.1,0-0.2,0-0.2,0c-0.3,0-0.5,0.1-0.8,0.4c-0.3,0.3-0.5,0.5-0.7,0.5
			c-0.2,0.1-0.4,0.2-0.5,0.5c-0.1,0.3-0.3,0.4-0.6,0.4c-0.5,0.1-0.7,0.4-0.8,1c0,0.2-0.1,0.4-0.2,0.6s-0.2,0.4-0.2,0.6
			c0,0.3-0.1,0.4-0.2,0.5c-0.1,0.1-0.1,0.2-0.1,0.4c0,0.2-0.1,0.4-0.2,0.5c-0.1,0.1-0.2,0.6-0.2,1.5c0,1,0.1,1.6,0.2,1.6
			c0.1,0,0.1,0.1,0.1,0.3c0,0.1,0,0.2-0.1,0.2c-0.1,0,0,0.1,0.2,0.4c0.2,0.2,0.4,0.4,0.5,0.4c0.1,0,0.1,0.1,0.2,0.4
			c0.1,0.2,0.3,0.4,0.6,0.8c0.4,0.3,0.6,0.5,0.9,0.6c0.2,0.1,0.2,0.1,0.2,0.2c0,0.1,0.3,0.2,1,0.3c0.6,0.1,1.4,0.1,2.1,0.1
			c1.1,0,1.8-0.1,2-0.3s0.5-0.3,0.8-0.4c0.4-0.1,0.7-0.2,0.8-0.5c0.2-0.3,0.4-0.6,0.7-0.9c0.3-0.3,0.5-0.5,0.5-0.6
			c0-0.1-0.1-0.2-0.3-0.3c-0.4-0.2-0.6-0.3-0.8-0.3c-0.1,0-0.2,0.1-0.3,0.3c-0.1,0.3-0.2,0.4-0.4,0.4c-0.2,0-0.4,0.1-0.7,0.4
			c-0.2,0.3-0.4,0.3-0.5,0.2c-0.1-0.1-0.2-0.1-0.4,0.1c-0.1,0.1-0.4,0.2-0.7,0.2c-0.1,0-0.4,0-0.9-0.1c-0.7,0-1.1-0.1-1.3-0.2
			c-0.2-0.1-0.3-0.3-0.3-0.6c0-0.2-0.2-0.5-0.6-0.9c-0.3-0.3-0.5-0.5-0.6-0.7c-0.1-0.2-0.2-0.5-0.3-1c-0.1-0.7-0.2-1.1-0.3-1.1
			c-0.1,0-0.1-0.1-0.1-0.2c0-0.1,0-0.2,0.1-0.3c0.2,0,0.3-0.7,0.3-1.9c0-0.2,0.1-0.3,0.3-0.3c0.2,0,0.3-0.1,0.2-0.3
			c-0.1-0.3,0.1-0.4,0.4-0.6c0.3-0.1,0.5-0.3,0.5-0.4c0-0.1,0.1-0.3,0.3-0.4c0.2-0.1,0.5-0.2,0.7-0.2c0.2,0,0.3-0.1,0.3-0.2
			c0-0.1,0.2-0.2,0.7-0.3c0.1,0,0.1,0,0.2,0c0.1,0,0.1,0,0.2,0c0.6,0,1,0.2,1.2,0.5c0.1,0.2,0.3,0.3,0.6,0.4c0.2,0,0.3,0.1,0.3,0.1
			c0,0.1,0.1,0.1,0,0.3c-0.1,0.2,0,0.3,0.1,0.4c0.1,0.1,0.3,0.4,0.4,1c0.1,0.4,0.1,0.7,0.2,0.8c0.1,0.1,0.2,0.2,0.4,0.3
			c0.3,0.1,0.4,0.2,0.4,0.4c0,0.1,0,0.1,0,0.1c0,0,0.1,0,0.1,0c0.1-0.1,0.2-0.6,0.2-1.6c0-1,0.1-1.6,0.2-1.6c0.1-0.1,0.1-0.3,0-0.8
			L322.8,782.2z"/>
		<path d="M340.2,790.2c-0.1,0-0.3,0.2-0.5,0.5c-0.3,0.3-0.4,0.6-0.4,0.7c0,0.1-0.1,0.2-0.4,0.2c-0.1,0-0.2,0-0.3,0.1
			c0,0-0.1,0.1-0.1,0.1c0,0,0,0.1,0,0.3c0,0.2-0.1,0.3-0.4,0.3c0,0-0.1,0-0.1,0c-0.1,0-0.1,0-0.2,0c-0.2,0-0.4,0.1-0.6,0.3
			c-0.2,0.2-0.4,0.3-0.6,0.3c-0.1,0-0.2-0.1-0.2-0.2c0-0.1-0.1-0.1-0.4,0c-0.2,0.1-0.6,0.2-1.2,0.2c-0.5,0-0.7,0-0.7-0.1
			c0-0.1-0.1-0.1-0.2-0.1c-0.1,0-0.1-0.1-0.2-0.2c-0.1-0.2-0.1-0.3-0.1-0.4c0-0.1,0-0.2,0-0.3c0-0.2,0-0.4,0-0.6c0-0.3,0-0.5,0-0.8
			c0-0.3,0-0.5,0-0.8c0-0.3,0-0.5,0-0.6v-0.2c0-0.1,0.4-0.1,1.3-0.1c0.7,0,1.2,0.1,1.4,0.2c0.2,0.1,0.4,0.4,0.4,0.8
			c0,0.2,0,0.3,0.1,0.3c0,0,0.1,0,0.2,0c0.1-0.1,0.3-0.1,0.5-0.1c0.1,0,0.2,0,0.3-0.1c0-0.1,0.1-0.2,0.1-0.5c0-0.1,0-0.2,0-0.3
			c0-0.2,0-0.3,0-0.4v-0.2c0-0.3,0-0.6,0.1-0.7c0.1-0.1,0.1-0.3,0-0.4c-0.1-0.1-0.1-0.3,0.1-0.4c0.1-0.1,0.2-0.2,0.2-0.4
			c0-0.3-0.3-0.4-1-0.4c-0.4,0-0.6,0.2-0.6,0.5c0,0.1,0,0.2,0.1,0.3c0,0.2,0,0.4,0,0.5s-0.3,0.2-0.9,0.3s-1,0.1-1.5,0.1h-0.6v-0.6
			c0-0.4,0.1-0.6,0.2-0.6c0.1,0,0.2-0.1,0.2-0.4c0-0.3-0.1-0.5-0.2-0.9c-0.1-0.2-0.2-0.4-0.1-0.4c0-0.1,0.1-0.1,0.2-0.3
			c0.2-0.1,0.3-0.3,0.2-0.5c0,0,0-0.1,0-0.2c0-0.1,0.1-0.3,0.4-0.3c0.3-0.1,0.7-0.1,1.5-0.2c0.7,0,1.1-0.1,1.1-0.1
			c0.3,0,0.5,0.1,0.6,0.2c0.1,0.2,0.3,0.3,0.5,0.4c0.2,0.1,0.3,0.2,0.3,0.3c0,0.1,0.1,0.2,0.3,0.3c0.2,0.1,0.3,0.2,0.3,0.3
			c0,0.2,0.1,0.3,0.3,0.5c0.2,0.2,0.4,0.2,0.6,0.2h0c0.3,0,0.4-0.2,0.4-0.6c0-0.2-0.1-0.3-0.2-0.5c-0.1-0.1-0.2-0.3-0.2-0.5
			c0-0.3-0.1-0.5-0.2-0.5c-0.1,0-0.1-0.1,0-0.4c0.1-0.1,0.1-0.2,0.1-0.3c0,0-0.1-0.1-0.1-0.1c-0.1-0.1-0.2-0.2-0.2-0.3
			c0-0.1-0.1-0.3-0.3-0.5c-0.2-0.2-0.4-0.3-0.6-0.1c-0.3,0.1-1.8,0.3-4.7,0.4h-0.7c-1.5,0-2.2-0.1-2.3-0.3c0-0.1-0.1-0.1-0.2-0.1
			c-0.1,0-0.2,0-0.2,0.1l0,0.1c0,0.1,0,0.1,0,0.1c0,0,0,0.1,0,0.2c0,0.1,0,0.2,0,0.2c0,0.2-0.1,0.3-0.3,0.3
			c-0.2,0.1-0.3,0.2-0.2,0.5c0.1,0.2,0.1,0.4,0.2,0.5c0.1,0.1,0.2,0.1,0.3,0.1c0.1,0,0.3,0,0.4,0c0.1,0,0.2,0,0.4,0
			c0.3,0,0.5,0.1,0.6,0.4c0.1,0.2,0.1,0.7,0.1,1.4c0,0.9-0.1,1.4-0.2,1.4c-0.1,0-0.1,0.2,0,0.4c0.1,0.2,0.1,0.4,0,0.6
			c-0.1,0.2-0.2,0.3-0.3,0.3c-0.1,0-0.1,0.1,0.1,0.2c0.1,0.1,0.1,0.3,0.1,0.6c0,0.5-0.1,1.5-0.2,2.8l-0.1,0.9h-0.6
			c-0.4,0-0.6,0.1-0.6,0.3c0,0.2-0.1,0.3-0.3,0.3c-0.1,0-0.2,0.1-0.2,0.3c0,0.3,0.1,0.5,0.3,0.6c0.2,0.1,0.3,0.2,0.3,0.4
			c0,0.1,0.2,0.1,0.7,0.1c0.5,0,0.8-0.1,0.9-0.3c0.1-0.1,0.5-0.2,1.2-0.2c0.5,0,0.9,0,1.3,0c0.7,0,1.1,0.1,1.2,0.2
			c0,0.1,0.2,0.1,0.4,0c0.2-0.1,0.7-0.2,1.5-0.2c0.8,0,1.3,0,1.5-0.1c0.2,0,0.3-0.1,0.5-0.3c0.2-0.2,0.3-0.3,0.2-0.5
			c0-0.2,0-0.3,0.1-0.4c0.1-0.1,0.2-0.3,0.2-0.8c0-0.3,0-0.5,0-0.6c0-0.1,0.1-0.1,0.2-0.1c0.2,0,0.3-0.2,0.3-0.5
			c0-0.2-0.1-0.4-0.2-0.6C340.5,790.3,340.4,790.2,340.2,790.2z"/>
		<path d="M330.1,792.1c0,0,0.1,0,0.1-0.1c0.1-0.2,0.1-0.3,0-0.3c-0.1,0-0.2,0.1-0.2,0.2C329.9,792,330,792.1,330.1,792.1z"/>
	</g>
	<g>
		<g>
			<path d="M129.2,596.7c-4.3-4.3-4.1-28.2-7.1-28.2c-3,0-2,23.1-7.1,28.2c-5.1,5.1-21.5,3-21.5,6.2c0,3.3,16.6,1.3,21.5,6.2
				c5,5,4.1,28.2,7.1,28.2c3,0,2.5-23.6,7.1-28.2c4.6-4.6,21.5-3.5,21.5-6.2C150.7,600.2,133.5,600.9,129.2,596.7z"/>
		</g>
		<g>
			<path d="M356.5,597.6c-3.6-3.6-3.5-24.1-6.1-24.1s-1.7,19.7-6.1,24.1c-4.4,4.4-18.4,2.5-18.4,5.3s14.1,1.1,18.4,5.3
				c4.2,4.2,3.5,24.1,6.1,24.1s2.2-20.2,6.1-24.1c3.9-3.9,18.4-3,18.4-5.3C374.9,600.6,360.2,601.2,356.5,597.6z"/>
		</g>
		<g>
			<path d="M175.5,578.5c-2.2-2.2-2.1-14.3-3.6-14.3s-1,11.7-3.6,14.3c-2.6,2.6-10.9,1.5-10.9,3.2c0,1.7,8.4,0.6,10.9,3.2
				s2.1,14.3,3.6,14.3s1.3-12,3.6-14.3s10.9-1.8,10.9-3.2S177.7,580.7,175.5,578.5z"/>
		</g>
		<g>
			<path d="M156.1,656.5c-1.1-1.1-1-7.2-1.8-7.2s-0.5,5.9-1.8,7.2c-1.3,1.3-5.5,0.7-5.5,1.6s4.2,0.3,5.5,1.6c1.3,1.3,1,7.2,1.8,7.2
				c0.8,0,0.6-6,1.8-7.2c1.2-1.2,5.5-0.9,5.5-1.6S157.2,657.6,156.1,656.5z"/>
		</g>
		<g>
			<path d="M410.5,575.9c-2.2-2.2-2.1-14.3-3.6-14.3c-1.5,0-1,11.7-3.6,14.3c-2.6,2.6-10.9,1.5-10.9,3.2s8.4,0.6,10.9,3.2
				c2.5,2.5,2.1,14.3,3.6,14.3c1.5,0,1.3-12,3.6-14.3c2.3-2.3,10.9-1.8,10.9-3.2S412.7,578.1,410.5,575.9z"/>
		</g>
		<g>
			<path d="M378,640.5c-1.1-1.1-1-7.2-1.8-7.2s-0.5,5.9-1.8,7.2c-1.3,1.3-5.5,0.7-5.5,1.6s4.2,0.3,5.5,1.6c1.3,1.3,1,7.2,1.8,7.2
				c0.8,0,0.6-6,1.8-7.2c1.2-1.2,5.5-0.9,5.5-1.6S379.1,641.6,378,640.5z"/>
		</g>
		<g>
			<g>
				<g>
					<g>
						<g>
							<path class="st0" d="M381,323c-10.6,2.8-21.2,5.6-31.9,8.5c-2.1,0.6-1.2,3.8,0.9,3.3c10.6-2.8,21.2-5.6,31.9-8.5
								C384,325.7,383.1,322.5,381,323L381,323z"/>
						</g>
					</g>
				</g>
				<g>
					<g>
						<g>
							<path class="st0" d="M313.8,295.6c-2.9,2.8-5.8,5.6-8.6,8.5c-1.6,1.5,0.8,3.9,2.4,2.4c2.9-2.8,5.8-5.6,8.6-8.5
								C317.7,296.5,315.3,294.1,313.8,295.6L313.8,295.6z"/>
						</g>
					</g>
					<g>
						<g>
							<path class="st0" d="M345.2,264.8c-7.7,7.6-15.5,15.2-23.2,22.8c-1.6,1.5,0.8,3.9,2.4,2.4c7.7-7.6,15.5-15.2,23.2-22.8
								C349.2,265.7,346.8,263.3,345.2,264.8L345.2,264.8z"/>
						</g>
					</g>
				</g>
				<g>
					<g>
						<g>
							<path class="st0" d="M272.9,273.6c-1,3.8-2.1,7.7-3.1,11.5c-0.6,2.1,2.7,3,3.3,0.9c1-3.8,2.1-7.7,3.1-11.5
								C276.7,272.4,273.5,271.5,272.9,273.6L272.9,273.6z"/>
						</g>
					</g>
					<g>
						<g>
							<path class="st0" d="M284.2,231.7c-2.8,10.3-5.6,20.7-8.4,31c-0.6,2.1,2.7,3,3.3,0.9c2.8-10.3,5.6-20.7,8.4-31
								C288,230.4,284.8,229.6,284.2,231.7L284.2,231.7z"/>
						</g>
					</g>
				</g>
				<g>
					<g>
						<g>
							<path class="st0" d="M226.1,274.4c1.1,3.8,2.2,7.6,3.2,11.5c0.6,2.1,3.9,1.2,3.3-0.9c-1.1-3.8-2.2-7.6-3.2-11.5
								C228.8,271.4,225.5,272.3,226.1,274.4L226.1,274.4z"/>
						</g>
					</g>
					<g>
						<g>
							<path class="st0" d="M214.3,232.6c2.9,10.3,5.8,20.6,8.7,30.9c0.6,2.1,3.9,1.2,3.3-0.9c-2.9-10.3-5.8-20.6-8.7-30.9
								C216.9,229.6,213.7,230.5,214.3,232.6L214.3,232.6z"/>
						</g>
					</g>
				</g>
				<g>
					<g>
						<g>
							<path class="st0" d="M186,297.7c2.9,2.8,5.8,5.6,8.7,8.4c1.6,1.5,4-0.9,2.4-2.4c-2.9-2.8-5.8-5.6-8.7-8.4
								C186.8,293.8,184.4,296.2,186,297.7L186,297.7z"/>
						</g>
					</g>
					<g>
						<g>
							<path class="st0" d="M154.1,267.2c7.8,7.5,15.7,15,23.5,22.5c1.6,1.5,4-0.9,2.4-2.4c-7.8-7.5-15.7-15-23.5-22.5
								C155,263.3,152.6,265.7,154.1,267.2L154.1,267.2z"/>
						</g>
					</g>
				</g>
				<g>
					<g>
						<g>
							<path class="st0" d="M119.9,326.4c10.7,2.7,21.3,5.4,32,8.1c2.1,0.5,3-2.7,0.9-3.3c-10.7-2.7-21.3-5.4-32-8.1
								C118.7,322.6,117.8,325.9,119.9,326.4L119.9,326.4z"/>
						</g>
					</g>
				</g>
				<g>
					<g>
						<g>
							<path class="st0" d="M329.6,313.4c-8.9,5-17.7,10-26.6,15.1c-1.9,1.1-0.2,4,1.7,2.9c8.9-5,17.7-10,26.6-15.1
								C333.2,315.3,331.5,312.3,329.6,313.4L329.6,313.4z"/>
						</g>
					</g>
					<g>
						<g>
							<path class="st0" d="M352.2,300.6c-3.6,2.1-7.3,4.1-10.9,6.2c-1.9,1.1-0.2,4,1.7,2.9c3.6-2.1,7.3-4.1,10.9-6.2
								C355.8,302.4,354.1,299.5,352.2,300.6L352.2,300.6z"/>
						</g>
					</g>
					<g>
						<g>
							<path class="st0" d="M407,269.5c-1.4,0.8-2.7,1.6-4.1,2.3c-1.9,1.1-0.2,4,1.7,2.9c1.4-0.8,2.7-1.6,4.1-2.3
								C410.6,271.3,408.9,268.4,407,269.5L407,269.5z"/>
						</g>
					</g>
					<g>
						<g>
							<path class="st0" d="M390.6,278.8c-8.2,4.7-16.5,9.4-24.7,14c-1.9,1.1-0.2,4,1.7,2.9c8.2-4.7,16.5-9.4,24.7-14
								C394.2,280.6,392.5,277.7,390.6,278.8L390.6,278.8z"/>
						</g>
					</g>
				</g>
				<g>
					<g>
						<g>
							<path class="st0" d="M296.3,281.7c-5.1,8.6-10.2,17.3-15.2,25.9c-1.1,1.9,1.8,3.6,2.9,1.7c5.1-8.6,10.2-17.3,15.2-25.9
								C300.4,281.5,297.4,279.8,296.3,281.7L296.3,281.7z"/>
						</g>
					</g>
					<g>
						<g>
							<path class="st0" d="M309.3,259.6c-2.1,3.6-4.2,7.1-6.3,10.7c-1.1,1.9,1.8,3.6,2.9,1.7c2.1-3.6,4.2-7.1,6.3-10.7
								C313.3,259.4,310.4,257.7,309.3,259.6L309.3,259.6z"/>
						</g>
					</g>
					<g>
						<g>
							<path class="st0" d="M340.7,206.1c-0.8,1.3-1.6,2.7-2.4,4c-1.1,1.9,1.8,3.6,2.9,1.7c0.8-1.3,1.6-2.7,2.4-4
								C344.7,205.9,341.8,204.2,340.7,206.1L340.7,206.1z"/>
						</g>
					</g>
					<g>
						<g>
							<path class="st0" d="M331.3,222.1c-4.7,8-9.5,16.1-14.2,24.1c-1.1,1.9,1.8,3.6,2.9,1.7c4.7-8,9.5-16.1,14.2-24.1
								C335.3,221.9,332.4,220.2,331.3,222.1L331.3,222.1z"/>
						</g>
					</g>
				</g>
				<g>
					<g>
						<g>
							<path class="st0" d="M251.1,270.3c0.1,9.9,0.1,19.9,0.2,29.8c0,2.2,3.4,2.2,3.4,0c-0.1-9.9-0.1-19.9-0.2-29.8
								C254.5,268.2,251.1,268.2,251.1,270.3L251.1,270.3z"/>
						</g>
					</g>
					<g>
						<g>
							<path class="st0" d="M251,244.9c0,4.1,0.1,8.2,0.1,12.3c0,2.2,3.4,2.2,3.4,0c0-4.1-0.1-8.2-0.1-12.3
								C254.4,242.7,251,242.7,251,244.9L251,244.9z"/>
						</g>
					</g>
					<g>
						<g>
							<path class="st0" d="M250.6,183.4c0,1.5,0,3.1,0,4.6c0,2.2,3.4,2.2,3.4,0c0-1.5,0-3.1,0-4.6
								C254,181.2,250.6,181.2,250.6,183.4L250.6,183.4z"/>
						</g>
					</g>
					<g>
						<g>
							<path class="st0" d="M250.7,201.8c0.1,9.3,0.1,18.5,0.2,27.8c0,2.2,3.4,2.2,3.4,0c-0.1-9.3-0.1-18.5-0.2-27.8
								C254.1,199.6,250.7,199.6,250.7,201.8L250.7,201.8z"/>
						</g>
					</g>
				</g>
				<g>
					<g>
						<g>
							<path class="st0" d="M206.2,282.4c5.2,8.6,10.4,17.2,15.6,25.7c1.1,1.9,4.1,0.2,2.9-1.7c-5.2-8.6-10.4-17.2-15.6-25.7
								C208,278.9,205,280.5,206.2,282.4L206.2,282.4z"/>
						</g>
					</g>
					<g>
						<g>
							<path class="st0" d="M192.9,260.5c2.1,3.5,4.3,7.1,6.4,10.6c1.1,1.9,4.1,0.2,2.9-1.7c-2.1-3.5-4.3-7.1-6.4-10.6
								C194.7,256.9,191.8,258.6,192.9,260.5L192.9,260.5z"/>
						</g>
					</g>
					<g>
						<g>
							<path class="st0" d="M160.8,207.4c0.8,1.3,1.6,2.6,2.4,4c1.1,1.9,4.1,0.2,2.9-1.7c-0.8-1.3-1.6-2.6-2.4-4
								C162.6,203.8,159.7,205.5,160.8,207.4L160.8,207.4z"/>
						</g>
					</g>
					<g>
						<g>
							<path class="st0" d="M170.4,223.3c4.8,8,9.7,16,14.5,24c1.1,1.9,4.1,0.2,2.9-1.7c-4.8-8-9.7-16-14.5-24
								C172.2,219.7,169.3,221.4,170.4,223.3L170.4,223.3z"/>
						</g>
					</g>
				</g>
				<g>
					<g>
						<g>
							<path class="st0" d="M173.4,314.7c8.9,4.9,17.8,9.8,26.7,14.8c1.9,1.1,3.6-1.9,1.7-2.9c-8.9-4.9-17.8-9.8-26.7-14.8
								C173.2,310.7,171.5,313.6,173.4,314.7L173.4,314.7z"/>
						</g>
					</g>
					<g>
						<g>
							<path class="st0" d="M150.6,302.1c3.7,2,7.3,4,11,6.1c1.9,1.1,3.6-1.9,1.7-2.9c-3.7-2-7.3-4-11-6.1
								C150.4,298.1,148.7,301,150.6,302.1L150.6,302.1z"/>
						</g>
					</g>
					<g>
						<g>
							<path class="st0" d="M95.4,271.7c1.4,0.8,2.8,1.5,4.1,2.3c1.9,1.1,3.6-1.9,1.7-2.9c-1.4-0.8-2.8-1.5-4.1-2.3
								C95.2,267.7,93.5,270.6,95.4,271.7L95.4,271.7z"/>
						</g>
					</g>
					<g>
						<g>
							<path class="st0" d="M111.9,280.8c8.3,4.6,16.6,9.2,24.9,13.7c1.9,1.1,3.6-1.9,1.7-2.9c-8.3-4.6-16.6-9.2-24.9-13.7
								C111.7,276.8,110,279.7,111.9,280.8L111.9,280.8z"/>
						</g>
					</g>
				</g>
			</g>
			<g>
				<g>
					<g>
						<g>
							<path class="st0" d="M122.1,353.9c11-0.2,22-0.4,33-0.6c2.2,0,2.2-3.4,0-3.4c-11,0.2-22,0.4-33,0.6
								C119.9,350.6,119.9,354,122.1,353.9L122.1,353.9z"/>
						</g>
					</g>
				</g>
				<g>
					<g>
						<g>
							<path class="st0" d="M180.2,397.9c3.5-2.1,7-4.2,10.5-6.3c1.9-1.1,0.2-4.1-1.7-2.9c-3.5,2.1-7,4.2-10.5,6.3
								C176.7,396.1,178.4,399,180.2,397.9L180.2,397.9z"/>
						</g>
					</g>
					<g>
						<g>
							<path class="st0" d="M141.9,421c9.4-5.7,18.9-11.4,28.3-17.1c1.9-1.1,0.2-4.1-1.7-2.9c-9.4,5.7-18.9,11.4-28.3,17.1
								C138.4,419.2,140.1,422.1,141.9,421L141.9,421z"/>
						</g>
					</g>
				</g>
				<g>
					<g>
						<g>
							<path class="st0" d="M169.4,376.2c9.9-2.8,19.7-5.7,29.6-8.5c2.1-0.6,1.2-3.9-0.9-3.3c-9.9,2.8-19.7,5.7-29.6,8.5
								C166.4,373.5,167.3,376.8,169.4,376.2L169.4,376.2z"/>
						</g>
					</g>
					<g>
						<g>
							<path class="st0" d="M144.2,383.5c4.1-1.2,8.1-2.3,12.2-3.5c2.1-0.6,1.2-3.9-0.9-3.3c-4.1,1.2-8.1,2.3-12.2,3.5
								C141.2,380.8,142.1,384.1,144.2,383.5L144.2,383.5z"/>
						</g>
					</g>
					<g>
						<g>
							<path class="st0" d="M83.2,401.1c1.5-0.4,3-0.9,4.6-1.3c2.1-0.6,1.2-3.9-0.9-3.3c-1.5,0.4-3,0.9-4.6,1.3
								C80.3,398.4,81.1,401.7,83.2,401.1L83.2,401.1z"/>
						</g>
					</g>
					<g>
						<g>
							<path class="st0" d="M101.5,395.8c9.2-2.7,18.4-5.3,27.5-8c2.1-0.6,1.2-3.9-0.9-3.3c-9.2,2.7-18.4,5.3-27.5,8
								C98.5,393.2,99.4,396.4,101.5,395.8L101.5,395.8z"/>
						</g>
					</g>
				</g>
			</g>
			<g>
				<g>
					<g>
						<g>
							<path class="st0" d="M379.3,350.5c-11-0.2-22-0.4-33-0.6c-2.2,0-2.2,3.3,0,3.4c11,0.2,22,0.4,33,0.6
								C381.5,354,381.5,350.6,379.3,350.5L379.3,350.5z"/>
						</g>
					</g>
				</g>
				<g>
					<g>
						<g>
							<path class="st0" d="M322.9,394.9c-3.5-2.1-7-4.2-10.5-6.3c-1.9-1.1-3.6,1.8-1.7,2.9c3.5,2.1,7,4.2,10.5,6.3
								C323,399,324.7,396.1,322.9,394.9L322.9,394.9z"/>
						</g>
					</g>
					<g>
						<g>
							<path class="st0" d="M361.2,418.1c-9.4-5.7-18.9-11.4-28.3-17.1c-1.9-1.1-3.6,1.8-1.7,2.9c9.4,5.7,18.9,11.4,28.3,17.1
								C361.3,422.1,363,419.2,361.2,418.1L361.2,418.1z"/>
						</g>
					</g>
				</g>
				<g>
					<g>
						<g>
							<path class="st0" d="M332.9,372.9c-9.9-2.8-19.7-5.7-29.6-8.5c-2.1-0.6-3,2.7-0.9,3.3c9.9,2.8,19.7,5.7,29.6,8.5
								C334.1,376.8,335,373.5,332.9,372.9L332.9,372.9z"/>
						</g>
					</g>
					<g>
						<g>
							<path class="st0" d="M358.1,380.2c-4.1-1.2-8.1-2.3-12.2-3.5c-2.1-0.6-3,2.7-0.9,3.3c4.1,1.2,8.1,2.3,12.2,3.5
								C359.3,384.1,360.2,380.8,358.1,380.2L358.1,380.2z"/>
						</g>
					</g>
					<g>
						<g>
							<path class="st0" d="M419.1,397.8c-1.5-0.4-3-0.9-4.6-1.3c-2.1-0.6-3,2.7-0.9,3.3c1.5,0.4,3,0.9,4.6,1.3
								C420.2,401.7,421.1,398.4,419.1,397.8L419.1,397.8z"/>
						</g>
					</g>
					<g>
						<g>
							<path class="st0" d="M400.8,392.6c-9.2-2.7-18.4-5.3-27.5-8c-2.1-0.6-3,2.7-0.9,3.3c9.2,2.7,18.4,5.3,27.5,8
								C402,396.4,402.9,393.2,400.8,392.6L400.8,392.6z"/>
						</g>
					</g>
				</g>
			</g>
		</g>
		<g>
			<g>
				<g>
					<g>
						<path d="M227.3,389.3c-25.4,8.2-48.7,26-70.2,41.2c-19.1,13.5-38.6,27.2-56,42.8c-11.1,9.9-24.3,25-25.8,40.5
							c-1.4,14.5,14.5,22.4,26,26.3c8.8,3,18,4.6,27.2,5.8c8.9,1.2,18.5,2.7,27.4,1.2c15.8-2.6,25.3-18,34.1-29.9
							c13.5-18.1,24.1-37.8,32.2-58.9c7.9-20.4,14-43.3,7.2-64.9c-0.7-2.1-3.9-1.2-3.3,0.9c6,19,1.5,39-5,57.2
							c-6.1,17.2-14,33.6-23.8,49c-4.8,7.4-9.9,14.5-15.3,21.5c-5.1,6.5-10,13.9-17.2,18.2c-7.5,4.6-16.1,4.1-24.5,3.5
							c-10.5-0.8-21.1-2.4-31.4-5c-14.4-3.7-34.9-12-29-30.4c4.4-13.6,15.1-25.6,25.8-34.7c16.6-14.2,34.4-27.1,52.3-39.8
							c21.5-15.2,44.8-33.2,70.2-41.4C230.2,391.9,229.4,388.6,227.3,389.3L227.3,389.3z"/>
					</g>
				</g>
				<g>
					<g>
						<path d="M252.1,380c-5.8-0.2-11.5,2-16.5,4.7c-3.6,2-8.3,4.7-9.6,8.9c-0.6,2.1,2.6,3,3.3,0.9c1.1-3.5,6.1-5.9,9.1-7.4
							c4.2-2.1,8.9-3.8,13.6-3.6C254.3,383.4,254.3,380.1,252.1,380L252.1,380z"/>
					</g>
				</g>
				<g>
					<g>
						<path d="M177.2,529.1c0.8,15.5,16,22.8,29.5,25.6c13.7,2.8,31.1,3.4,40.6-8.7c7.9-10.1,4.7-26.5,3.6-38.2
							c-1.3-13.1-2.8-26.5-5.8-39.3c-3.5-14.8-7.4-30.7-13.7-44.5c-0.9-2-3.8-0.3-2.9,1.7c6.2,13.4,9.9,28.9,13.3,43.2
							c3.3,13.9,4.9,28.5,6.2,42.6c0.7,7.6,1.4,15.6,0.5,23.2c-1.2,9.7-9.2,16-18.5,17.6c-16.2,2.9-48.1-2.5-49.1-23.3
							C180.5,527,177.1,526.9,177.2,529.1L177.2,529.1z"/>
					</g>
				</g>
				<g>
					<g>
						<path d="M276.4,392.6c22.2,7.2,42.5,22.4,61.5,35.5c19.5,13.6,38.6,27.7,57,42.9c9.1,7.5,17.3,15.9,23.5,25.9
							c4,6.5,9,15.4,6.4,23.2c-2.9,8.5-13.3,13.4-21.1,16.2c-15.6,5.8-35.1,9.1-51.7,7.9c-17.6-1.2-28.5-19.4-37.7-32.4
							c-12-16.9-21.6-35-29.1-54.3c-7.7-19.9-13.8-42.1-7.2-63.1c0.7-2.1-2.6-3-3.3-0.9c-5.9,18.7-2,38.5,4.2,56.6
							c6.5,19.1,15.3,37.4,26.3,54.3c4.9,7.5,10.3,14.6,15.8,21.7c4.9,6.2,9.7,12.9,16.6,17.1c14.8,9,37.1,3.5,52.9,0.2
							c12.7-2.7,30.7-7.6,36.8-20.6c6.6-13.9-7.6-31.6-16.2-41.2c-15.2-17.2-35.8-30.7-54.2-44.1c-14.3-10.5-28.9-20.6-43.9-30
							c-11.3-7-23-14.2-35.7-18.3C275.2,388.6,274.3,391.9,276.4,392.6L276.4,392.6z"/>
					</g>
				</g>
				<g>
					<g>
						<path d="M252.1,383.4c4.8-0.1,9.3,2.1,13.2,4.6c3,1.9,7.6,4.8,8.6,8.4c0.6,2.1,3.9,1.2,3.3-0.9c-1.2-4.3-5.7-7.5-9.2-9.8
							c-4.6-3.1-10.2-5.8-15.9-5.7C250,380,249.9,383.4,252.1,383.4L252.1,383.4z"/>
					</g>
				</g>
				<g>
					<g>
						<path d="M323.5,529c-1.1,20.8-33,26.3-49.2,23.4c-9.3-1.7-17.3-7.9-18.5-17.6c-0.9-7.6-0.2-15.6,0.5-23.2
							c1.2-14.2,2.9-28.7,6.2-42.6c3.3-14.1,6.9-29.3,13-42.5c0.9-2-2-3.7-2.9-1.7c-10.8,23.3-15.4,50.4-18.5,75.8
							c-1,8.3-1.8,16.6-1.9,25c-0.1,5.1-0.3,11.1,1.8,16c6.4,15,24.7,16,38.5,14.1c14.8-2,33.6-9.2,34.5-26.5
							C327,526.8,323.6,526.8,323.5,529L323.5,529z"/>
					</g>
				</g>
			</g>
			<g>
				<g>
					<path d="M193.2,449.2c-4.2-8.4-11.6-14-20-16.2c11.1-4.1,23.8,0.7,29.3,11.6s1.7,23.9-8.3,30.4
						C197.5,466.9,197.4,457.5,193.2,449.2z"/>
				</g>
			</g>
			<g>
				<g>
					<path d="M309.8,449.2c4.2-8.4,11.6-14,20-16.2c-11.1-4.1-23.8,0.7-29.3,11.6c-5.4,10.9-1.7,23.9,8.3,30.4
						C305.5,466.9,305.6,457.5,309.8,449.2z"/>
				</g>
			</g>
			<g>
				<path d="M255.5,406.9c-2.1-2.1-2-14.1-3.6-14.1s-1,11.5-3.6,14.1c-2.6,2.6-10.7,1.5-10.7,3.1s8.3,0.6,10.7,3.1
					c2.5,2.5,2,14.1,3.6,14.1c1.5,0,1.3-11.8,3.6-14.1c2.3-2.3,10.7-1.8,10.7-3.1C266.3,408.6,257.7,409,255.5,406.9z"/>
			</g>
			<g>
				<path d="M244.4,468.3c-2-6.9-10.6-35.3-12.8-42.6c-1.9,3.2-17.5,43.9-17.5,43.9c0,6.7,1.5,13.4,6.5,18.1
					c7,6.5,14.9,5.1,20.2-1.1C244.3,482.5,246.2,474.4,244.4,468.3z"/>
			</g>
			<g>
				<path d="M259.8,468.3c2-6.9,10.6-35.3,12.8-42.6c1.9,3.2,17.5,43.9,17.5,43.9c0,6.7-1.5,13.4-6.5,18.1c-7,6.5-14.9,5.1-20.2-1.1
					C259.8,482.5,257.9,474.4,259.8,468.3z"/>
			</g>
			<g>
				<g>
					<g>
						<path d="M147.4,440.7c6.7,1.6,11.9,8.1,11.8,14.8c-0.1,6.1-4.4,10.6-6.8,15.9c-2.3,4.9-3.7,11.3-0.3,16
							c4.2,5.9,14.1,9.4,20.6,12.2c7.1,3.2,15.3,4.4,23,4.6c2.2,0,2.2-3.3,0-3.4c-9.8-0.2-18.4-2.7-27.1-7
							c-4.2-2.1-11.6-4.5-14.1-8.8c-3-5.2,0.7-11.8,3.3-16.3c3.4-5.9,6.6-11.8,4.2-18.7c-2.2-6-7.4-11.2-13.7-12.6
							C146.2,436.9,145.3,440.2,147.4,440.7L147.4,440.7z"/>
					</g>
				</g>
				<g>
					<g>
						<path d="M80,519.7c1.9-6.4,10.8-12.7,16-16.2c5.3-3.5,11-6.4,16.6-9.4c12.9-6.8,24.3-11.4,39-11.3c2.2,0,2.2-3.4,0-3.4
							c-7.2,0-14.2,0.3-21.1,2.6c-7.8,2.6-15,6.8-22.2,10.6c-6.7,3.6-13.5,7.1-19.4,12c-4.7,3.9-10.4,8.2-12.2,14.2
							C76.1,520.9,79.4,521.8,80,519.7L80,519.7z"/>
					</g>
				</g>
				<g>
					<g>
						<path d="M95.4,485.7c4.6,0.6,9.1,0.3,13.7,1.1c3.7,0.6,7.4,1.5,11,2.4c2.1,0.5,3-2.7,0.9-3.3c-4.1-1-8.2-1.9-12.3-2.6
							c-4.4-0.7-8.9-0.4-13.3-1C93.3,482,93.3,485.4,95.4,485.7L95.4,485.7z"/>
					</g>
				</g>
				<g>
					<g>
						<path d="M112.7,469c12.9-1.6,27,0.9,39.4,4.3c2.1,0.6,3-2.7,0.9-3.3c-12.6-3.4-27.3-6.1-40.3-4.4
							C110.5,465.9,110.5,469.3,112.7,469L112.7,469z"/>
					</g>
				</g>
				<g>
					<g>
						<path d="M106.5,485.5c4.4-3.1,8.6-6.4,13.4-8.8c4.7-2.3,12.9-6.9,18.3-6.3c2.2,0.2,2.1-3.1,0-3.4c-5.3-0.6-11,2.9-15.8,5
							c-6.5,2.8-11.8,6.6-17.6,10.6C103,483.8,104.7,486.7,106.5,485.5L106.5,485.5z"/>
					</g>
				</g>
				<g>
					<g>
						<path d="M131.7,452.8c6.9,4,10,11.7,13.7,18.4c1.1,1.9,4,0.2,2.9-1.7c-4-7.2-7.5-15.3-14.9-19.6
							C131.6,448.8,129.9,451.7,131.7,452.8L131.7,452.8z"/>
					</g>
				</g>
				<g>
					<g>
						<path d="M139,457.5c7.5,0.1,14.9-1.1,22.1-3.3c2.1-0.6,1.2-3.9-0.9-3.3c-6.9,2.2-13.9,3.3-21.2,3.2
							C136.8,454.1,136.8,457.5,139,457.5L139,457.5z"/>
					</g>
				</g>
				<g>
					<g>
						<path d="M104.2,539c4.9-11.5,9.9-21.9,19.2-30.6c8.4-7.9,19.1-18.3,30.9-20.1c2.1-0.3,1.2-3.6-0.9-3.3
							c-11.7,1.7-21.9,11.6-30.4,19.1c-10.5,9.3-16.2,20.3-21.7,33C100.4,539.3,103.3,541,104.2,539L104.2,539z"/>
					</g>
				</g>
				<g>
					<g>
						<path d="M82.4,523.9c7.7-7.1,22.5-9.3,32.5-8.6c2.2,0.2,2.2-3.2,0-3.4c-11.1-0.8-26.4,1.7-34.9,9.6
							C78.4,523,80.8,525.4,82.4,523.9L82.4,523.9z"/>
					</g>
				</g>
				<g>
					<g>
						<path d="M105,513.4c0.3-2.9-0.1-5.7,0.2-8.6c0.3-2.9,1.1-5.7,2-8.5c0.7-2.1-2.6-3-3.3-0.9c-1,2.9-1.7,5.9-2.1,8.9
							c-0.3,3,0,6.1-0.2,9.1C101.4,515.6,104.8,515.5,105,513.4L105,513.4z"/>
					</g>
				</g>
				<g>
					<g>
						<path d="M127.6,503.7c1.3-6.7,1.6-13.4,6.4-18.8c1.4-1.6-0.9-4-2.4-2.4c-5.2,5.9-5.8,12.8-7.3,20.3
							C123.9,504.9,127.2,505.8,127.6,503.7L127.6,503.7z"/>
					</g>
				</g>
				<g>
					<g>
						<path d="M130.3,542.7c6.9-17.6,14.4-37.8,29.8-50.1c1.7-1.4-0.7-3.7-2.4-2.4c-15.8,12.7-23.5,33.4-30.6,51.6
							C126.2,543.8,129.5,544.7,130.3,542.7L130.3,542.7z"/>
					</g>
				</g>
				<g>
					<g>
						<path d="M170.2,538.3c-3.1-12.7-3.4-26.7,2.5-38.6c1-1.9-1.9-3.7-2.9-1.7c-6.4,12.7-6.2,27.5-2.9,41.2
							C167.5,541.3,170.7,540.4,170.2,538.3L170.2,538.3z"/>
					</g>
				</g>
				<g>
					<g>
						<path d="M181.9,522.8c-4.6-5.4-9.3-12.5-10.4-19.6c-0.3-2.1-3.6-1.2-3.3,0.9c1.2,7.7,6.3,15.3,11.3,21
							C180.9,526.8,183.3,524.4,181.9,522.8L181.9,522.8z"/>
					</g>
				</g>
				<g>
					<g>
						<path d="M175.9,515.3c1.5-5.1,4.4-10.1,9.4-12.4c2-0.9,0.3-3.8-1.7-2.9c-5.8,2.7-9.2,8.6-10.9,14.5
							C172,516.5,175.3,517.4,175.9,515.3L175.9,515.3z"/>
					</g>
				</g>
				<g>
					<g>
						<path d="M161.1,540c-4.2-5.2-8.7-11.1-11.2-17.3c-1.8-4.6-2.7-13.3-0.6-17.9c0.9-2-2-3.7-2.9-1.7c-6.3,14.1,4.1,29,12.4,39.4
							C160,544.1,162.4,541.7,161.1,540L161.1,540z"/>
					</g>
				</g>
				<g>
					<g>
						<path d="M139.9,542.4c-0.2-7,3.4-14.6,8.4-19.4c1.6-1.5-0.8-3.9-2.4-2.4c-5.6,5.4-9.6,14-9.4,21.8
							C136.6,544.6,140,544.6,139.9,542.4L139.9,542.4z"/>
					</g>
				</g>
				<g>
					<g>
						<path d="M167.1,519.9c-5.6-6.2-9.6-16.3-10.1-24.6c-0.1-2.2-3.5-2.2-3.4,0c0.6,9.4,4.8,20,11.1,27
							C166.1,523.9,168.5,521.5,167.1,519.9L167.1,519.9z"/>
					</g>
				</g>
				<g>
					<g>
						<path d="M138,522.6c-1.1-4-0.3-8.5,0.1-12.5c0.6-6.2,1.8-11.9,5-17.3c1.1-1.9-1.8-3.6-2.9-1.7c-3.1,5.3-4.5,11-5.2,17
							c-0.6,4.9-1.5,10.5-0.2,15.4C135.3,525.6,138.6,524.7,138,522.6L138,522.6z"/>
					</g>
				</g>
				<g>
					<g>
						<path d="M108.7,528.5c7-5.8,18-9.3,27-9.5c2.2,0,2.2-3.4,0-3.4c-10,0.2-21.6,4-29.4,10.5C104.7,527.5,107.1,529.8,108.7,528.5
							L108.7,528.5z"/>
					</g>
				</g>
				<g>
					<g>
						<path d="M118.8,541.3c-3-5.9,2.5-15.4,5.4-20.3c1.1-1.9-1.8-3.6-2.9-1.7c-3.7,6.3-9.2,16.5-5.4,23.8
							C116.9,545,119.8,543.3,118.8,541.3L118.8,541.3z"/>
					</g>
				</g>
			</g>
			<g>
				<g>
					<g>
						<path d="M354.6,437.4c-6.2,1.4-11.3,6.5-13.6,12.4c-2.6,6.9,0.6,12.9,4.1,18.9c2.4,4.2,5.3,9.2,3.8,14.2
							c-1.6,5.4-8.8,7.9-13.5,10.3c-9.1,4.5-17.8,7.3-28.2,7.5c-2.2,0-2.2,3.4,0,3.4c7.8-0.2,15.9-1.4,23-4.6
							c6.4-2.8,16.4-6.3,20.6-12.2c3.4-4.7,1.9-11.1-0.3-16c-2-4.4-5.6-8.4-6.7-13.3c-1.7-7.7,4.4-15.7,11.8-17.5
							C357.6,440.2,356.7,436.9,354.6,437.4L354.6,437.4z"/>
					</g>
				</g>
				<g>
					<g>
						<path d="M426.2,518.8c-1.7-5.7-6.8-9.7-11.2-13.4c-6.1-5.3-13.3-9-20.4-12.8c-6.8-3.6-13.7-7.5-21-10.1
							c-7.2-2.6-14.6-3-22.3-3c-2.2,0-2.2,3.4,0,3.4c14.9,0,26.1,4.5,39,11.3c5.6,2.9,11.4,5.8,16.6,9.4c5.2,3.5,14,9.8,16,16.2
							C423.6,521.8,426.9,520.9,426.2,518.8L426.2,518.8z"/>
					</g>
				</g>
				<g>
					<g>
						<path d="M407.6,482.3c-4.4,0.6-8.9,0.3-13.3,1c-4.1,0.7-8.2,1.6-12.3,2.6c-2.1,0.5-1.2,3.8,0.9,3.3c3.6-0.9,7.3-1.8,11-2.4
							c4.6-0.8,9.1-0.5,13.7-1.1C409.7,485.4,409.7,482,407.6,482.3L407.6,482.3z"/>
					</g>
				</g>
				<g>
					<g>
						<path d="M390.3,465.7c-13-1.6-27.7,1-40.3,4.4c-2.1,0.6-1.2,3.8,0.9,3.3c12.4-3.4,26.6-5.9,39.4-4.3
							C392.5,469.3,392.5,465.9,390.3,465.7L390.3,465.7z"/>
					</g>
				</g>
				<g>
					<g>
						<path d="M398.2,482.5c-5.8-4-11.1-7.8-17.6-10.6c-4.7-2-10.5-5.6-15.8-5c-2.1,0.2-2.2,3.6,0,3.4c5.4-0.6,13.6,4.1,18.3,6.3
							c4.9,2.4,9,5.7,13.4,8.8C398.3,486.7,400,483.8,398.2,482.5L398.2,482.5z"/>
					</g>
				</g>
				<g>
					<g>
						<path d="M369.5,449.9c-7.4,4.3-10.9,12.4-14.9,19.6c-1.1,1.9,1.9,3.6,2.9,1.7c3.7-6.6,6.9-14.4,13.7-18.4
							C373.1,451.7,371.4,448.8,369.5,449.9L369.5,449.9z"/>
					</g>
				</g>
				<g>
					<g>
						<path d="M364,454.2c-7.2,0.1-14.3-1-21.2-3.2c-2.1-0.7-3,2.6-0.9,3.3c7.2,2.3,14.5,3.4,22.1,3.3
							C366.2,457.5,366.2,454.1,364,454.2L364,454.2z"/>
					</g>
				</g>
				<g>
					<g>
						<path d="M401.7,537.3c-5.5-12.7-11.2-23.7-21.7-33c-8.5-7.6-18.7-17.4-30.4-19.1c-2.1-0.3-3,2.9-0.9,3.3
							c11.7,1.7,22.5,12.2,30.9,20.1c9.2,8.6,14.2,19.1,19.2,30.6C399.7,541,402.6,539.3,401.7,537.3L401.7,537.3z"/>
					</g>
				</g>
				<g>
					<g>
						<path d="M423,521.5c-8.5-7.9-23.7-10.4-34.9-9.6c-2.2,0.2-2.2,3.5,0,3.4c9.9-0.7,24.8,1.5,32.5,8.6
							C422.2,525.4,424.6,523,423,521.5L423,521.5z"/>
					</g>
				</g>
				<g>
					<g>
						<path d="M401.3,513.4c-0.3-3,0.1-6.1-0.2-9.1c-0.3-3-1.1-6-2.1-8.9c-0.7-2.1-4-1.2-3.3,0.9c0.9,2.7,1.7,5.6,2,8.5
							c0.3,2.9-0.1,5.7,0.2,8.6C398.2,515.5,401.5,515.6,401.3,513.4L401.3,513.4z"/>
					</g>
				</g>
				<g>
					<g>
						<path d="M378.7,502.8c-1.4-7.4-2-14.4-7.3-20.3c-1.5-1.6-3.8,0.8-2.4,2.4c4.8,5.4,5.1,12.1,6.4,18.8
							C375.8,505.8,379.1,504.9,378.7,502.8L378.7,502.8z"/>
					</g>
				</g>
				<g>
					<g>
						<path d="M375.9,541.8c-7.2-18.2-14.8-38.9-30.6-51.6c-1.7-1.3-4.1,1-2.4,2.4c15.3,12.3,22.8,32.5,29.8,50.1
							C373.5,544.7,376.7,543.8,375.9,541.8L375.9,541.8z"/>
					</g>
				</g>
				<g>
					<g>
						<path d="M336,539.2c3.3-13.6,3.5-28.4-2.9-41.2c-1-1.9-3.9-0.2-2.9,1.7c5.9,11.8,5.6,25.9,2.5,38.6
							C332.2,540.4,335.5,541.3,336,539.2L336,539.2z"/>
					</g>
				</g>
				<g>
					<g>
						<path d="M323.5,525.1c5-5.8,10-13.4,11.3-21c0.3-2.1-2.9-3-3.3-0.9c-1.1,7.1-5.8,14.2-10.4,19.6
							C319.7,524.4,322.1,526.8,323.5,525.1L323.5,525.1z"/>
					</g>
				</g>
				<g>
					<g>
						<path d="M330.3,514.4c-1.8-5.9-5.1-11.8-10.9-14.5c-2-0.9-3.7,2-1.7,2.9c5,2.3,7.8,7.3,9.4,12.4
							C327.7,517.4,330.9,516.5,330.3,514.4L330.3,514.4z"/>
					</g>
				</g>
				<g>
					<g>
						<path d="M344.3,542.4c8.3-10.4,18.7-25.2,12.4-39.4c-0.9-2-3.8-0.3-2.9,1.7c2.1,4.6,1.2,13.4-0.6,17.9
							c-2.5,6.3-7,12.1-11.2,17.3C340.6,541.7,343,544.1,344.3,542.4L344.3,542.4z"/>
					</g>
				</g>
				<g>
					<g>
						<path d="M366.4,542.4c0.2-7.8-3.8-16.4-9.4-21.8c-1.6-1.5-4,0.9-2.4,2.4c5,4.8,8.6,12.4,8.4,19.4
							C363,544.6,366.4,544.6,366.4,542.4L366.4,542.4z"/>
					</g>
				</g>
				<g>
					<g>
						<path d="M338.3,522.3c6.3-7,10.5-17.7,11.1-27c0.1-2.2-3.3-2.2-3.4,0c-0.5,8.4-4.5,18.4-10.1,24.6
							C334.4,521.5,336.8,523.9,338.3,522.3L338.3,522.3z"/>
					</g>
				</g>
				<g>
					<g>
						<path d="M368.2,523.5c1.4-4.9,0.4-10.5-0.2-15.4c-0.7-6.1-2.1-11.8-5.2-17c-1.1-1.9-4-0.2-2.9,1.7c3.2,5.4,4.4,11.2,5,17.3
							c0.4,4,1.2,8.5,0.1,12.5C364.4,524.7,367.7,525.6,368.2,523.5L368.2,523.5z"/>
					</g>
				</g>
				<g>
					<g>
						<path d="M396.6,526.1c-7.8-6.5-19.4-10.3-29.4-10.5c-2.2,0-2.2,3.3,0,3.4c8.9,0.1,19.9,3.6,27,9.5
							C395.9,529.8,398.3,527.5,396.6,526.1L396.6,526.1z"/>
					</g>
				</g>
				<g>
					<g>
						<path d="M387.1,543.1c3.7-7.3-1.7-17.5-5.4-23.8c-1.1-1.9-4-0.2-2.9,1.7c3,5,8.4,14.4,5.4,20.3
							C383.2,543.3,386.1,545,387.1,543.1L387.1,543.1z"/>
					</g>
				</g>
			</g>
			<g>
				<g>
					<path d="M307.6,509.4c-1.1,0-2-0.8-2.2-1.9l-0.1-0.3c-0.3-1.2,0.5-2.4,1.7-2.7c1.2-0.3,2.4,0.5,2.7,1.7c0,0.1,0.1,0.3,0.1,0.4
						c0.2,1.2-0.6,2.4-1.8,2.6C307.8,509.4,307.7,509.4,307.6,509.4z"/>
				</g>
				<g>
					<path d="M283.8,532.7c-1.2,0-2.2-0.9-2.2-2.1c-0.1-1.2,0.8-2.3,2.1-2.4c0.2,0,0.4,0,0.6-0.1c1.2-0.1,2.4,0.8,2.5,2
						c0.1,1.2-0.8,2.4-2,2.5c-0.3,0-0.5,0-0.8,0.1C283.9,532.7,283.9,532.7,283.8,532.7z M275.4,531.9c-0.2,0-0.4,0-0.6-0.1
						c-0.3-0.1-0.5-0.2-0.8-0.2c-1.2-0.4-1.8-1.7-1.4-2.9c0.4-1.2,1.7-1.8,2.9-1.4c0.2,0.1,0.4,0.1,0.6,0.2c1.2,0.4,1.9,1.6,1.5,2.8
						C277.3,531.2,276.4,531.9,275.4,531.9z M292.7,530.5c-0.9,0-1.7-0.5-2.1-1.3c-0.5-1.1,0-2.5,1.1-3c0.2-0.1,0.4-0.2,0.6-0.3
						c1.1-0.5,2.5-0.1,3,1.1s0.1,2.5-1.1,3c-0.2,0.1-0.5,0.2-0.7,0.3C293.3,530.4,293,530.5,292.7,530.5z M267.3,527.7
						c-0.5,0-1-0.2-1.4-0.5c-0.2-0.2-0.4-0.3-0.6-0.5c-1-0.8-1.1-2.2-0.3-3.2c0.8-1,2.2-1.1,3.2-0.3l0.5,0.4c1,0.8,1.2,2.2,0.4,3.2
						C268.7,527.4,268,527.7,267.3,527.7z M300.3,525.5c-0.6,0-1.2-0.3-1.7-0.7c-0.8-0.9-0.8-2.4,0.2-3.2l0.5-0.5
						c0.9-0.9,2.3-0.8,3.2,0.1c0.9,0.9,0.8,2.3-0.1,3.2l-0.5,0.5C301.4,525.3,300.9,525.5,300.3,525.5z M261,521
						c-0.7,0-1.4-0.3-1.8-0.9l-0.4-0.6c-0.7-1-0.5-2.4,0.6-3.1c1-0.7,2.4-0.5,3.1,0.6l0.4,0.5c0.7,1,0.5,2.4-0.5,3.2
						C262,520.9,261.5,521,261,521z M306,518.3c-0.3,0-0.7-0.1-1-0.2c-1.1-0.6-1.6-1.9-1-3c0.1-0.2,0.2-0.4,0.3-0.6
						c0.5-1.1,1.9-1.6,3-1.1c1.1,0.5,1.6,1.9,1.1,3c-0.1,0.2-0.2,0.5-0.3,0.7C307.6,517.9,306.8,518.3,306,518.3z"/>
				</g>
				<g>
					<path d="M256.4,513.1c-0.8,0-1.7-0.5-2-1.3l-0.2-0.4c-0.5-1.1,0-2.5,1.1-3c1.1-0.5,2.5,0,3,1.1l0.1,0.3c0.5,1.1,0.1,2.5-1.1,3
						C257.1,513,256.7,513.1,256.4,513.1z"/>
				</g>
			</g>
			<g>
				<g>
					<path d="M195.5,509.4c-0.1,0-0.3,0-0.4,0c-1.2-0.2-2-1.4-1.8-2.6c0-0.1,0.1-0.3,0.1-0.4c0.3-1.2,1.5-2,2.7-1.7
						c1.2,0.3,2,1.5,1.7,2.7l-0.1,0.3C197.5,508.7,196.5,509.4,195.5,509.4z"/>
				</g>
				<g>
					<path d="M219.2,532.7c-0.1,0-0.1,0-0.2,0c-0.3,0-0.5,0-0.8-0.1c-1.2-0.1-2.1-1.2-2-2.5c0.1-1.2,1.2-2.1,2.5-2
						c0.2,0,0.4,0,0.6,0.1c1.2,0.1,2.2,1.2,2.1,2.4C221.4,531.8,220.4,532.7,219.2,532.7z M227.6,531.9c-1,0-1.9-0.6-2.2-1.6
						c-0.4-1.2,0.3-2.4,1.5-2.8c0.2-0.1,0.4-0.1,0.6-0.2c1.2-0.4,2.5,0.2,2.9,1.4c0.4,1.2-0.2,2.5-1.4,2.9c-0.2,0.1-0.5,0.2-0.8,0.2
						C228,531.8,227.8,531.9,227.6,531.9z M210.4,530.5c-0.3,0-0.6-0.1-0.9-0.2c-0.2-0.1-0.5-0.2-0.7-0.3c-1.1-0.5-1.6-1.9-1.1-3
						c0.5-1.1,1.9-1.6,3-1.1c0.2,0.1,0.4,0.2,0.6,0.3c1.1,0.5,1.7,1.8,1.1,3C212.1,530,211.2,530.5,210.4,530.5z M235.7,527.7
						c-0.7,0-1.3-0.3-1.8-0.9c-0.8-1-0.6-2.4,0.4-3.2l0.5-0.4c1-0.8,2.4-0.6,3.2,0.3c0.8,1,0.6,2.4-0.3,3.2
						c-0.2,0.2-0.4,0.3-0.6,0.5C236.6,527.5,236.2,527.7,235.7,527.7z M202.7,525.5c-0.5,0-1.1-0.2-1.5-0.6l-0.5-0.5
						c-0.9-0.9-1-2.3-0.1-3.2c0.9-0.9,2.3-1,3.2-0.1l0.5,0.5c0.9,0.8,1,2.3,0.2,3.2C203.9,525.2,203.3,525.5,202.7,525.5z M242,521
						c-0.5,0-0.9-0.1-1.3-0.4c-1-0.7-1.2-2.1-0.5-3.2l0.4-0.5c0.7-1,2.1-1.3,3.1-0.6c1,0.7,1.3,2.1,0.6,3.1l-0.4,0.6
						C243.4,520.7,242.7,521,242,521z M197.1,518.3c-0.8,0-1.6-0.5-2-1.2c-0.1-0.2-0.2-0.5-0.3-0.7c-0.5-1.1,0-2.5,1.1-3
						c1.1-0.5,2.5,0,3,1.1c0.1,0.2,0.2,0.4,0.3,0.6c0.6,1.1,0.1,2.5-1,3C197.7,518.2,197.4,518.3,197.1,518.3z"/>
				</g>
				<g>
					<path d="M246.6,513.1c-0.3,0-0.6-0.1-1-0.2c-1.1-0.5-1.6-1.9-1.1-3l0.2-0.3c0.5-1.1,1.9-1.6,3-1.1c1.1,0.5,1.6,1.9,1.1,3
						l-0.2,0.4C248.3,512.6,247.5,513.1,246.6,513.1z"/>
				</g>
			</g>
			<g>
				<g>
					<path d="M238.6,384.9c0-7,1-13.4,8.9-15.6c4.4-1.2,9.5-0.2,12.9,2.8c3.7,3.3,3.9,8,2.9,12.6c-0.4,2.1,2.8,3,3.3,0.9
						c2.3-10.9-4.1-20.7-16.1-20.2c-11.5,0.5-15.3,9.4-15.3,19.5C235.2,387,238.6,387.1,238.6,384.9L238.6,384.9z"/>
				</g>
			</g>
			<g>
				<g>
					<path d="M247.4,366.1c-1.6-5.2-4.5-9.9-8.8-13.3c-2.7-2.2-5.9-3.3-8.8-5.1c-3.7-2.3-6-5.6-8.1-9.3c-1.1-1.9-4-0.2-2.9,1.7
						c2.7,4.8,5.9,8.7,10.8,11.3c6.9,3.7,12.2,7.8,14.6,15.6C244.7,369.1,248,368.2,247.4,366.1L247.4,366.1z"/>
				</g>
			</g>
			<g>
				<g>
					<path d="M258.4,367c2.4-7.8,7.7-11.9,14.6-15.6c4.9-2.6,8.1-6.5,10.8-11.3c1.1-1.9-1.8-3.6-2.9-1.7c-2.1,3.7-4.5,7.1-8.1,9.3
						c-2.9,1.8-6.1,3-8.8,5.1c-4.3,3.4-7.2,8.1-8.8,13.3C254.5,368.2,257.7,369.1,258.4,367L258.4,367z"/>
				</g>
			</g>
		</g>
		<g>
			<path d="M262.5,658.5c0-9.7-10.5-76.3-10.5-76.3s-10.5,66.6-10.5,76.3c0,9.7,4.7,12.8,10.5,12.8S262.5,668.2,262.5,658.5z"/>
		</g>
	</g>
</g>
</svg>
