<?xml version="1.0" encoding="utf-8"?>
<!-- Generator: Adobe Illustrator 21.1.0, SVG Export Plug-In . SVG Version: 6.00 Build 0)  -->
<svg version="1.1" xmlns="http://www.w3.org/2000/svg" xmlns:xlink="http://www.w3.org/1999/xlink" x="0px" y="0px"
	 viewBox="0 0 504 864" style="enable-background:new 0 0 504 864;" xml:space="preserve">
<g id="Слой_1">
</g>
<g id="Слой_2">
	<g>
		<path d="M503.8,18.2c-1.6-17.9-18.7-16.3-31.6-16.3c-45.9,0-91.8,0-137.6,0c-63.2,0-126.3,0-189.5,0c-40.6,0-81.2,0-121.8,0
			c-2.6,0-5.3-0.2-8,0.2c-9.5,1.2-15,9.2-15.2,18.2c-0.2,7.3,0,14.5,0,21.8c0,37.4,0,74.9,0,112.3c0,57,0,114.1,0,171.1
			c0,64.3,0,128.6,0,192.9c0,58.4,0,116.7,0,175.1c0,40.1,0,80.2,0,120.3c0,9.1,0,18.2,0,27.3c0,11.7,6.7,20.5,19.2,20.7
			c35.9,0.6,71.9,0,107.9,0c62.4,0,124.9,0,187.3,0c49.7,0,99.5,0,149.2,0c7.6,0,15.2,0,22.9,0c0.4,0,0.8-0.1,1.2-0.2
			c14.4-1.8,16.1-13.8,16.1-25.5c0-11.4,0-22.8,0-34.3c0-43.4,0-86.9,0-130.3c0-59.9,0-119.8,0-179.8c0-63.9,0-127.7,0-191.6
			c0-55.3,0-110.6,0-165.9c0-33.7,0-67.3,0-101C503.9,28.3,504.2,23.2,503.8,18.2z M486.6,852.8c-28.3,0-56.6,0-84.9,0
			c-59.9,0-119.8,0-179.7,0c-54,0-108,0-162,0c-13.1,0-26.1,0-39.2,0c-5.6,0-11-1.3-11.7-8.3c-0.2-1.5,0-3,0-4.5c0-26.5,0-53,0-79.5
			c0-50,0-100,0-149.9c0-61.8,0-123.6,0-185.4c0-61.4,0-122.7,0-184.1c0-48.9,0-97.7,0-146.6c0-24.2-0.8-48.6,0-72.8
			c0.2-5.3,1.6-10.1,8.3-10.8c2.2-0.2,4.5,0,6.7,0c14.8,0,29.6,0,44.5,0c55.6,0,111.3,0,166.9,0c58.9,0,117.8,0,176.7,0
			c18.9,0,37.9,0,56.8,0c8.1,0,24.7-3.1,25.9,8.4c0.5,5.2,0,10.8,0,16.1c0,13.5,0,27.1,0,40.6c0,45.5,0,91.1,0,136.6
			c0,60.1,0,120.2,0,180.3c0,62.6,0,125.1,0,187.7c0,52.8,0,105.6,0,158.4c0,31.4,0,62.7,0,94.1C494.8,840.3,496.9,852,486.6,852.8z
			"/>
		<path d="M460,790.9c1.2,0.1,2.4-0.7,2.4-2.2c0-23.7,0-47.4,0-71.1c0-56.4,0-112.8,0-169.2c0-68.7,0-137.4,0-206
			c0-59,0-117.9,0-176.9c0-19.6,0-39.2,0-58.8c0-8.9,1.3-19,0-27.9c-0.1-0.4,0-0.8,0-1.2c0-0.8-0.3-1.3-0.8-1.7
			c0.1-1.2-0.6-2.5-2.2-2.6c-13.1-0.5-25.3-13.8-25.8-26.7c0-0.5-0.2-0.8-0.4-1.1c-0.3-0.6-1-1.1-1.9-1.1c-40.5,0-80.9,0-121.4,0
			c-64.5,0-129,0-193.6,0c-14.9,0-29.7,0-44.6,0c-0.9,0-1.6,0.5-1.9,1.1c-0.2,0.3-0.3,0.7-0.4,1.2C69.1,59.5,57,72.8,43.9,73.3
			c-1.8,0.1-2.5,1.9-2,3.2c-0.2,0.3-0.2,0.6-0.2,1c0,23.7,0,47.4,0,71.1c0,56.4,0,112.8,0,169.2c0,68.7,0,137.4,0,206
			c0,59,0,117.9,0,176.9c0,19.6,0,39.2,0,58.8c0,8.9-1.3,19,0,27.9c0.1,0.4,0,0.8,0,1.2c0,0.9,0.5,1.6,1.1,1.9
			c0.3,0.2,0.7,0.3,1.2,0.4c13,0.5,25.3,13.3,25.8,26.2c0,0.5,0.2,0.8,0.4,1.1c0.3,0.6,1,1.1,1.9,1.1c40.5,0,80.9,0,121.4,0
			c64.5,0,129,0,193.6,0c14.9,0,29.7,0,44.6,0c0.9,0,1.6-0.5,1.9-1.1c0.2-0.3,0.3-0.7,0.4-1.2c0.5-12.9,12.7-25.7,25.8-26.2
			C459.6,791,459.8,790.9,460,790.9z M429.3,814.9c-39.8,0-79.6,0-119.3,0c-64.5,0-129,0-193.6,0c-14.2,0-28.3,0-42.5,0
			c-1.7-13.9-13.9-26.5-27.8-28.3c0-23,0-46,0-69.1c0-56.4,0-112.8,0-169.2c0-68.7,0-137.4,0-206c0-59,0-117.9,0-176.9
			c0-19.6,0-39.2,0-58.8c0-8.9,1.3-19,0-27.9c-0.1-0.4,0-0.8,0-1.2c14-1.8,26.1-14.9,27.8-28.7c39.8,0,79.5,0,119.3,0
			c64.5,0,129,0,193.6,0c14.2,0,28.3,0,42.5,0c1.7,14.1,14.3,27.4,28.5,28.8c0,23.7,0,47.3,0,71c0,56.4,0,112.8,0,169.2
			c0,68.7,0,137.4,0,206c0,59,0,117.9,0,176.9c0,19.6,0,39.2,0,58.8c0,8.6-1.2,18.4-0.1,27C443.6,788.1,431.1,800.9,429.3,814.9z"/>
		<path d="M243.3,86.7c0-0.2,0-0.4-0.1-0.6c-0.1-0.4-0.3-0.4-0.6-0.1c-0.1,0.1,0,0.4,0.3,0.8l0.4,0.7L243.3,86.7z"/>
		<path d="M261.2,78.1c-1.6,0-2.4,0.1-2.4,0.4s-0.7,0.4-2,0.6c-2,0.1-2.9,0.6-2.9,1.4c0,0.3,0.1,0.7,0.3,1.1
			c0.2,0.4,0.4,0.6,0.6,0.6c0.2,0,0.4,0.2,0.7,0.6c0.3,0.4,0.2,0.8-0.1,1.1c-0.4,0.4-0.4,0.5-0.3,0.5c0.1,0,0.1,0.2-0.3,0.7
			c-0.3,0.4-0.4,0.8-0.4,1.2c0,0.2-0.2,0.6-0.7,1.1c-0.5,0.5-0.7,0.9-0.7,1c0,0.3-0.3,0.4-0.9,0.4c-0.4,0-0.7,0-0.8-0.1
			c-0.1-0.1-0.2-0.4-0.3-0.8c-0.1-0.7-0.4-1.1-0.7-1.4c-0.4-0.2-0.6-0.6-0.6-1.1c0-0.5-0.1-0.8-0.4-1c-0.2-0.1-0.4-0.5-0.6-1.2
			c-0.1-0.7-0.2-1.2-0.2-1.5s0.1-0.5,0.2-0.5c0.1-0.1,0.4-0.1,0.7-0.2c0.5-0.1,0.8-0.1,1-0.2c0.2-0.1,0.3-0.3,0.3-0.6
			c0-0.2,0-0.5-0.1-0.6l-0.2-0.9l-2.4,0.2c-1.6,0.1-2.4,0.2-2.5,0.4c-0.1,0.2-0.4,0.3-0.8,0.3c-0.4,0-0.6-0.1-0.6-0.3
			c0-0.2-0.2-0.3-0.5-0.5c-0.4-0.2-0.7-0.2-1.1-0.2c-0.6,0-0.9,0.2-0.9,0.6c0,0.2-0.2,0.4-0.7,0.4c-0.2,0-0.4,0.1-0.4,0.2
			c0.2,0.1,0.4,0.3,0.4,0.6c0,0.4,0.1,0.5,0.4,0.5c0.2,0,0.4,0.1,0.6,0.4c0.1,0.3,0.5,0.5,1.1,0.6c0.7,0.1,1.1,0.4,1.3,0.8
			c0.2,0.4,0.4,0.6,0.7,0.6c0.2,0,0.3,0.3,0.3,0.8s0.1,0.8,0.4,0.8c0.3,0,0.4,0.2,0.4,0.5c0,0.4,0.2,0.7,0.6,0.9
			c0.2,0.2,0.4,0.4,0.3,0.6c0,0.2,0.1,0.4,0.3,0.5c0.3,0.1,0.6,0.4,0.7,0.9c0.3,0.6,0.5,0.8,0.6,0.8c0.1,0,0.2,0.2,0.2,0.5
			c0,0.3,0.2,0.5,0.6,0.7c0.3,0.1,0.4,0.3,0.4,0.6c0,0.1,0,0.3-0.1,0.5c-0.1,0.2-0.1,0.4-0.1,0.6c0,0.2-0.2,0.4-0.5,0.5
			c-0.4,0.1-0.6,0.4-0.7,1c-0.1,0.6-0.3,0.8-0.4,0.8c-0.2,0-0.6,0.3-1.1,0.9c-0.5,0.6-0.8,1.1-0.8,1.3c0,0.3-0.1,0.5-0.4,0.5
			c-0.3,0-0.4,0.1-0.4,0.4s-0.2,0.5-0.7,0.7c-0.5,0.2-0.7,0.6-0.7,1.2c0,0.3,0,0.5-0.1,0.6c-0.1,0.1-0.2,0.2-0.4,0.2
			c-0.2,0-0.6,0.1-1.2,0.1c-0.9,0.1-1.5,0.2-1.8,0.4c-0.2,0.2-0.4,0.7-0.4,1.5c0,0.7,0.1,1,0.4,1c0.1,0,0.3-0.1,0.4-0.4
			c0.1-0.2,1.2-0.4,3.4-0.4c1.4,0,2.3,0,2.7,0.1c0.4,0.1,0.6,0.2,0.6,0.4c0,0.3,0.1,0.4,0.3,0.1c0.2-0.2,0.4-0.3,0.5-0.2
			c0,0,0.1,0.1,0.2,0.1c0.2,0,0.4-0.1,0.7-0.4c0.3-0.2,0.4-0.5,0.5-0.8c0.1-0.3,0.1-0.5-0.1-0.6c-0.1-0.1-0.4-0.2-0.9-0.2
			c-1.2-0.2-1.8-0.6-1.8-1.2c0-0.2,0.1-0.3,0.4-0.3c0.3,0,0.4-0.2,0.4-0.7c0-0.5,0.1-0.7,0.4-0.7c0.3,0,0.4-0.1,0.4-0.4
			c0-0.2,0.2-0.5,0.7-1c0.5-0.4,0.7-0.7,0.6-0.8v-0.3c0-0.5,0.1-1,0.4-1.5c0.3-0.5,0.6-0.7,0.9-0.7c0.1,0,0.2,0,0.2,0.1
			c0.3,0.1,0.5,0.3,0.5,0.6c0,0.2,0.3,0.6,0.8,1.3c0.5,0.7,0.8,1.1,0.8,1.2c0,0.2,0.1,0.3,0.4,0.4c0.2,0.1,0.4,0.4,0.5,0.9
			c0.1,0.3,0.2,0.5,0.3,0.7c0.2,0.1,0.4,0.2,0.8,0.3l0.9,0.3l-0.9,0.1c-0.6,0.1-0.9,0.3-0.9,0.6c0,0.8-0.5,1.2-1.4,1.2
			c-0.3,0-0.5,0-0.6,0.1c-0.1,0.1-0.2,0.3-0.2,0.6v0.7h3.6c2.4,0,3.6,0.1,3.7,0.4c0.1,0.3,0.3,0.3,0.6-0.1c0.3-0.3,0.8-0.4,1.5-0.3
			l1.1,0.2v-0.9c0-0.5-0.1-0.8-0.2-0.9c-0.1-0.2-0.4-0.3-0.9-0.5c-0.7-0.3-1.1-0.5-1.1-0.6c0-0.1-0.3-0.3-0.8-0.6
			c-0.5-0.3-0.8-0.5-0.8-0.7c0-0.4-0.1-0.7-0.4-1.2c-0.3-0.4-0.5-0.6-0.7-0.6c-0.1,0-0.3-0.3-0.5-0.8c-0.2-0.6-0.4-0.8-0.6-0.8
			c-0.2,0-0.4-0.2-0.5-0.5c-0.1-0.4-0.6-0.9-1.4-1.8c-0.8-0.8-1.3-1.3-1.5-1.3c-0.1,0-0.2-0.1-0.2-0.4c0-0.8,0.4-1.7,1.2-2.6
			c0.6-0.6,0.9-1.1,0.9-1.4c0-0.2,0.3-0.6,0.8-1.1c0.5-0.5,0.9-0.8,1.1-0.8c0.2,0,0.3-0.2,0.3-0.5c0-0.9,0.3-1.4,0.8-1.4
			c0.4,0,0.5-0.1,0.5-0.3c0-0.2,0.2-0.4,0.5-0.7c0.3-0.2,0.6-0.4,0.9-0.4c0.4,0,0.6-0.2,0.9-0.6l0.5-0.6l0.2,0.6
			c0.1,0.4,0.3,0.6,0.6,0.6c0.2,0,0.4-0.2,0.5-0.5c0.1-0.4,0.4-0.6,0.7-0.6c0.2,0,0.4-0.1,0.5-0.2c0.1-0.1,0.1-0.4,0.1-0.9
			c0-1-0.1-1.6-0.4-1.7C263.3,78.2,262.5,78.1,261.2,78.1z M247.5,81c0,0-0.1-0.1-0.1-0.3c0-0.1,0-0.2,0-0.3c0-0.1,0-0.1,0.1-0.1
			l0.1,0.2C247.7,80.8,247.6,81,247.5,81z M248.1,85.6c-0.1,0-0.1-0.1-0.1-0.2c0-0.1,0-0.1,0.1-0.1c0.1,0,0.2,0,0.2,0.1
			C248.3,85.5,248.2,85.6,248.1,85.6z M248.6,87.4l-0.1-0.3c0-0.1,0-0.2,0-0.3c0-0.1,0-0.1,0.1-0.1C248.8,87,248.7,87.2,248.6,87.4z
			 M251.8,93.6c-0.2,0-0.3-0.1-0.3-0.3c0-0.2,0.1-0.3,0.3-0.3c0.2,0,0.3,0.1,0.3,0.3C252.1,93.5,252,93.6,251.8,93.6z"/>
		<path d="M157.4,785.3c0.1,0,0.2-0.2,0.2-0.5c0-0.2,0-0.4-0.1-0.4c-0.1,0-0.1-0.1-0.1-0.3c0-0.2,0.1-0.4,0.2-0.6
			c0.1-0.3,0.1-0.5-0.2-0.6c-0.2-0.2-0.5-0.3-0.9-0.3c-0.5,0-0.8,0.1-1.1,0.4c-0.3,0.2-0.4,0.3-0.5,0.2c-0.1-0.1-0.4-0.1-0.8,0
			c-0.5,0.1-1.4,0.2-2.6,0.2c-0.9,0-1.4,0-1.5-0.1c-0.1-0.1-0.2,0-0.4,0.2c-0.1,0.1-0.3,0.2-0.4,0.2c-0.2,0-0.4,0-0.7-0.1
			c-0.7-0.2-1.1-0.2-1.3-0.2c-0.1,0-0.2,0-0.2,0c-0.1,0-0.3,0.1-0.4,0.3c-0.1,0.2-0.2,0.4-0.2,0.5c0,0.1,0,0.1,0.1,0.2
			c0,0,0.1,0.2,0.1,0.5c0,0.1,0,0.2-0.1,0.3c-0.1,0-0.2,0.1-0.3,0.1c-0.3,0-0.5,0.1-0.5,0.3c0,0,0,0.1,0.1,0.2
			c0.1,0.1,0.1,0.3,0.1,0.6c0,0.3-0.1,0.4-0.1,0.5c0,0.5,0.2,0.8,0.6,0.8c0.3,0,0.4-0.1,0.4-0.2c0-0.1,0.1-0.2,0.2-0.2
			c0.1,0,0.1,0,0.2-0.1c0,0,0-0.1,0-0.2c0-0.1-0.1-0.2-0.2-0.2c-0.1-0.1-0.1-0.1-0.1-0.2c0,0,0-0.1,0-0.1s0-0.1,0.1-0.1
			c0,0,0.1,0,0.2-0.1c0.2-0.1,0.2-0.2,0.2-0.3c0,0,0-0.1,0-0.2c0-0.1,0-0.1,0-0.2c0-0.1,0-0.2,0.1-0.2c0.1-0.1,0.1-0.3,0-0.6
			c-0.1-0.3-0.1-0.4,0-0.4c0.1,0,0.1,0.1,0.1,0.2c0,0.1,0.2,0.2,0.5,0.4c0.4,0.1,0.7,0.2,1.1,0.2c0.4,0,0.7,0.1,0.8,0.3
			c0.2,0.2,0.3,0.2,0.5,0.2c0.1,0,0.1,0,0.1,0c0.1,0,0.1,0,0,0.1c-0.3,0.3-0.4,2.2-0.5,5.8c0,0.8-0.1,1.2-0.3,1.4
			c-0.2,0.1-0.3,0.3-0.3,0.4c0,0.1-0.3,0.2-0.8,0.2l-0.7,0.1l-0.1,0.5c0,0,0,0.1,0,0.1c0,0,0,0.1,0,0.1c0,0.2,0.1,0.4,0.4,0.7
			c0.3,0.3,0.5,0.4,0.7,0.4c0.1,0,0.1,0,0.1-0.1c0-0.1,0-0.1-0.1-0.1c-0.1,0-0.1,0-0.1-0.1c0-0.1,0.2-0.1,0.5-0.1c0.1,0,0.4,0,0.8,0
			c0.4,0,0.7,0,0.9,0c0.6,0,0.9-0.1,1.1-0.2c0.1-0.1,0.3-0.2,0.6-0.1c0.2,0.1,0.3,0,0.4-0.1c0.1-0.1,0.2-0.1,0.3-0.1
			c0.1,0,0.3-0.1,0.5-0.2c0.1-0.1,0.2-0.2,0.2-0.3c0-0.1-0.1-0.2-0.2-0.5c-0.2-0.3-0.3-0.4-0.5-0.4c-0.1,0-0.2-0.1-0.2-0.2
			c0-0.1-0.1-0.2-0.3-0.1c0,0-0.1,0-0.1,0c-0.1,0-0.1,0-0.1,0c-0.1,0-0.2,0-0.3-0.1c0-0.1-0.1-0.3-0.1-0.5v-0.4c0-0.5,0-0.8,0-0.9
			c0-0.1,0.1-0.2,0.2-0.2c0.2,0,0.2-0.1,0.2-0.4c0-0.3-0.1-0.5-0.2-0.5c-0.1,0-0.2-0.4-0.2-1.1c0-0.8,0.1-1.2,0.2-1.4
			c0.1-0.1,0.2-0.5,0.2-1.2c0-0.7,0.1-1,0.1-1.1c0.1-0.2,0.5-0.2,1.2-0.2c1,0,1.5,0.1,1.6,0.4c0,0.1,0.1,0.2,0.4,0.5
			c0.2,0.2,0.3,0.4,0.3,0.8c0,0.3,0.1,0.5,0.1,0.5c0,0.1,0.2,0.1,0.4,0.1c0.2,0,0.4,0,0.4-0.1c0-0.1,0.1-0.2,0.3-0.2
			c0.2-0.1,0.3-0.2,0.3-0.4c0-0.2-0.1-0.4-0.2-0.5C157.3,785.4,157.3,785.3,157.4,785.3z"/>
		<path d="M164.9,792c0.1-0.2,0.1-0.3,0-0.3c-0.1,0-0.2,0.1-0.2,0.2c0,0.1,0,0.2,0.1,0.2C164.8,792.1,164.8,792.1,164.9,792z"/>
		<path d="M174.9,790.2c-0.1,0-0.3,0.2-0.5,0.5c-0.3,0.3-0.4,0.6-0.4,0.7c0,0.1-0.1,0.2-0.4,0.2c-0.1,0-0.2,0-0.3,0.1
			c0,0-0.1,0.1-0.1,0.1c0,0,0,0.1,0,0.3c0,0.2-0.1,0.3-0.4,0.3c0,0-0.1,0-0.1,0c-0.1,0-0.1,0-0.2,0c-0.2,0-0.4,0.1-0.6,0.3
			c-0.2,0.2-0.4,0.3-0.6,0.3c-0.1,0-0.2-0.1-0.2-0.2c0-0.1-0.1-0.1-0.4,0c-0.2,0.1-0.6,0.2-1.2,0.2c-0.5,0-0.7,0-0.7-0.1
			c0-0.1-0.1-0.1-0.2-0.1c-0.1,0-0.1-0.1-0.2-0.2c-0.1-0.2-0.1-0.3-0.1-0.4c0-0.1,0-0.2,0-0.3s0-0.4,0-0.6c0-0.3,0-0.5,0-0.8
			c0-0.3,0-0.5,0-0.8c0-0.3,0-0.5,0-0.6v-0.2c0-0.1,0.4-0.1,1.3-0.1c0.7,0,1.2,0.1,1.4,0.2c0.2,0.1,0.4,0.4,0.4,0.8
			c0,0.2,0,0.3,0.1,0.3c0,0,0.1,0,0.2,0c0.1-0.1,0.3-0.1,0.5-0.1c0.1,0,0.2,0,0.3-0.1c0-0.1,0.1-0.2,0.1-0.5c0-0.1,0-0.2,0-0.3
			c0-0.2,0-0.3,0-0.4v-0.2c0-0.3,0-0.6,0.1-0.7c0.1-0.1,0.1-0.3,0-0.4c-0.1-0.1-0.1-0.3,0.1-0.4c0.1-0.1,0.2-0.2,0.2-0.4
			c0-0.3-0.3-0.4-1-0.4c-0.4,0-0.6,0.2-0.6,0.5c0,0.1,0,0.2,0.1,0.3c0,0.2,0,0.4,0,0.5c-0.1,0.1-0.3,0.2-0.9,0.3
			c-0.5,0.1-1,0.1-1.5,0.1h-0.6v-0.6c0-0.4,0.1-0.6,0.2-0.6c0.1,0,0.2-0.1,0.2-0.4c0-0.3-0.1-0.5-0.2-0.9c-0.1-0.2-0.2-0.4-0.1-0.4
			c0-0.1,0.1-0.1,0.2-0.3c0.2-0.1,0.3-0.3,0.2-0.5c0,0,0-0.1,0-0.2c0-0.1,0.1-0.3,0.4-0.3c0.3-0.1,0.7-0.1,1.5-0.2
			c0.7,0,1.1-0.1,1.1-0.1c0.3,0,0.5,0.1,0.6,0.2c0.1,0.2,0.3,0.3,0.5,0.4c0.2,0.1,0.3,0.2,0.3,0.3c0,0.1,0.1,0.2,0.3,0.3
			c0.2,0.1,0.3,0.2,0.3,0.3c0,0.2,0.1,0.3,0.3,0.5c0.2,0.2,0.4,0.2,0.6,0.2h0c0.3,0,0.4-0.2,0.4-0.6c0-0.2-0.1-0.3-0.2-0.5
			c-0.1-0.1-0.2-0.3-0.2-0.5c0-0.3-0.1-0.5-0.2-0.5c-0.1,0-0.1-0.1,0-0.4c0.1-0.1,0.1-0.2,0.1-0.3c0,0-0.1-0.1-0.1-0.1
			c-0.1-0.1-0.2-0.2-0.2-0.3c0-0.1-0.1-0.3-0.3-0.5c-0.2-0.2-0.4-0.3-0.6-0.1c-0.3,0.1-1.8,0.3-4.7,0.4h-0.7c-1.5,0-2.2-0.1-2.3-0.3
			c0-0.1-0.1-0.1-0.2-0.1c-0.1,0-0.2,0-0.2,0.1l0,0.1c0,0.1,0,0.1,0,0.1c0,0,0,0.1,0,0.2c0,0.1,0,0.2,0,0.2c0,0.2-0.1,0.3-0.3,0.3
			c-0.2,0.1-0.3,0.2-0.2,0.5c0.1,0.2,0.1,0.4,0.2,0.5c0.1,0.1,0.2,0.1,0.3,0.1c0.1,0,0.3,0,0.4,0c0.1,0,0.2,0,0.4,0
			c0.3,0,0.5,0.1,0.6,0.4c0.1,0.2,0.1,0.7,0.1,1.4c0,0.9-0.1,1.4-0.2,1.4c-0.1,0-0.1,0.2,0,0.4c0.1,0.2,0.1,0.4,0,0.6
			c-0.1,0.2-0.2,0.3-0.3,0.3c-0.1,0-0.1,0.1,0.1,0.2c0.1,0.1,0.1,0.3,0.1,0.6c0,0.5-0.1,1.5-0.2,2.8l-0.1,0.9h-0.6
			c-0.4,0-0.6,0.1-0.6,0.3c0,0.2-0.1,0.3-0.3,0.3c-0.1,0-0.2,0.1-0.2,0.3c0,0.3,0.1,0.5,0.3,0.6c0.2,0.1,0.3,0.2,0.3,0.4
			c0,0.1,0.2,0.1,0.7,0.1c0.5,0,0.8-0.1,0.9-0.3c0.1-0.1,0.5-0.2,1.2-0.2c0.5,0,0.9,0,1.3,0c0.7,0,1.1,0.1,1.2,0.2
			c0,0.1,0.2,0.1,0.4,0c0.2-0.1,0.7-0.2,1.5-0.2c0.8,0,1.3,0,1.5-0.1c0.2,0,0.3-0.1,0.5-0.3c0.2-0.2,0.3-0.3,0.2-0.5
			c0-0.2,0-0.3,0.1-0.4c0.1-0.1,0.2-0.3,0.2-0.8c0-0.3,0-0.5,0-0.6c0-0.1,0.1-0.1,0.2-0.1c0.2,0,0.3-0.2,0.3-0.5
			c0-0.2-0.1-0.4-0.2-0.6C175.2,790.3,175.1,790.2,174.9,790.2z"/>
		<path d="M195.5,782c-0.1,0-0.2,0-0.3,0.1c-0.2,0.1-0.3,0.1-0.3,0.1c-0.1,0-0.1-0.1-0.2-0.2c-0.1-0.2-0.3-0.3-0.4-0.3
			c-0.1,0-0.2-0.1-0.2-0.3c0-0.2-0.1-0.3-0.3-0.3c-0.2,0-0.3,0.1-0.3,0.3c0,0.2,0.1,0.3,0.2,0.3s0.2,0.1,0.2,0.3
			c0,0.2-0.1,0.3-0.2,0.3c-0.2,0-0.3-0.1-0.3-0.4c-0.1-0.2-0.2-0.4-0.3-0.4c-0.1,0-0.1,0-0.2,0.1c-0.2,0.2-0.2,0.3,0,0.3
			c0.1,0,0.2,0.1,0.2,0.1c0,0.1-0.1,0.2-0.4,0.2c-0.2,0-0.4,0-0.4-0.1c0-0.1-0.1-0.1-0.4-0.1c-0.4,0-0.8,0.1-1.1,0.2
			c-0.4,0.2-0.6,0.4-0.6,0.7c0,0.3,0.3,0.5,0.8,0.6c0.4,0.1,0.6,0.1,0.6,0.2c0,0.1,0.1,0.1,0.3,0.1c0.3,0,0.5,0.2,0.6,0.6
			c0.1,0.4,0.2,1.2,0.2,2.4c0,1.4,0.1,2.2,0.1,2.4c0.1,0.1,0,0.3,0,0.6l-0.1,0.4l-0.5-0.5c-0.4-0.3-0.5-0.5-0.5-0.6
			c0-0.1-0.1-0.2-0.2-0.3c-0.1-0.1-0.3-0.2-0.4-0.4c-0.2-0.1-0.3-0.2-0.3-0.2c-0.1-0.1-0.3-0.2-0.3-0.2c-0.1,0-0.2-0.1-0.2-0.2
			c0-0.1-0.1-0.2-0.2-0.3c-0.1-0.1-0.3-0.2-0.4-0.2c-0.1,0-0.1-0.1-0.1-0.2c0-0.1-0.1-0.2-0.2-0.2c-0.1,0-0.1,0-0.1-0.1
			c0-0.1-0.1-0.2-0.4-0.5c-0.2-0.3-0.4-0.4-0.4-0.5c0-0.1-0.1-0.2-0.3-0.2c-0.2,0-0.3-0.1-0.5-0.2c-0.2-0.1-0.2-0.3-0.2-0.4
			c0-0.1-0.2-0.3-0.5-0.7c-0.3-0.4-0.5-0.6-0.5-0.7c0-0.1-0.1-0.2-0.3-0.4c-0.2-0.2-0.3-0.4-0.3-0.4c0-0.3-0.6-0.5-1.8-0.6
			c-0.6,0-0.9-0.1-0.9-0.1c-0.3,0-0.4,0.1-0.4,0.2c0,0.1,0,0.2,0,0.4c0,0.2,0,0.4,0.1,0.6c0.1,0.2,0.1,0.3,0.2,0.3
			c0.1,0,0.2,0.2,0.3,0.6c0.1,0.4,0.2,0.6,0.2,0.6c0.1,0,0.1,0.3,0.1,0.8c0,0.5,0,0.8-0.1,0.8c-0.1,0-0.1,0.1-0.1,0.4
			c0,0.2,0.1,0.6,0.2,1c0.1,0.2,0.1,0.6,0.1,1.1c0,0.7-0.1,1.1-0.2,1.1c-0.1,0-0.1,0.2-0.1,0.7c0,0.5,0,1.1-0.1,1.5
			c0,0.4-0.1,0.6-0.1,0.7c-0.1,0.1-0.2,0.2-0.4,0.2c-0.3,0.1-0.4,0.2-0.4,0.4c0,0.2,0.1,0.4,0.4,0.6c0.2,0.2,0.3,0.3,0.5,0.3
			c0.2,0,0.8,0,1.7,0c1,0,1.6,0,1.8-0.1c0.2-0.1,0.3-0.3,0.3-0.8c0-0.3-0.1-0.4-0.3-0.5c-0.2-0.1-0.3-0.1-0.3-0.2
			c0-0.1-0.2-0.1-0.6-0.1c-0.4,0-0.7-0.1-0.9-0.3c-0.2-0.2-0.2-0.3-0.1-0.4c0.1-0.1,0.2-0.2,0.2-0.6c0-0.3,0-0.5-0.1-0.5
			c-0.1-0.1-0.1-0.9-0.1-2.6c0-1.7,0.1-2.5,0.2-2.5c0.1,0,0.3,0.1,0.4,0.2c0.1,0.1,0.3,0.2,0.5,0.3c0.3,0.1,0.4,0.3,0.5,0.4
			c0,0.2,0.3,0.5,0.8,1.1c0.5,0.5,0.9,0.9,1.3,1.1c0.2,0.1,0.3,0.2,0.3,0.3c0,0.1,0.2,0.2,0.5,0.6c0.7,0.7,1.1,1.1,1.1,1.4
			c0,0.1,0.1,0.1,0.3,0.1c0.2,0,0.3,0,0.3,0.1c0,0.1,0.1,0.3,0.4,0.5c0.2,0.2,0.4,0.4,0.4,0.6c0,0.1,0.1,0.3,0.3,0.5
			c0.2,0.2,0.3,0.3,0.4,0.3c0.1,0,0.3,0.2,0.6,0.5c0.3,0.3,0.5,0.5,0.7,0.6c0.1,0.1,0.2,0.1,0.3,0.1c0.4,0,0.6-0.2,0.6-0.6
			c0-0.1,0-0.2,0-0.4c0-0.9-0.1-1.4-0.2-1.6c-0.1-0.1-0.1-0.5-0.1-1.3v-0.4c0-1,0-1.6-0.1-1.6c-0.1-0.1-0.2-0.4-0.2-1
			c0-0.5,0-0.8,0.1-0.8c0.1-0.1,0.2-0.2,0.2-0.5c0-0.3,0-0.4,0.1-0.4c0.1,0,0.1-0.1,0.1-0.4c0-0.3,0-0.4-0.1-0.4
			c-0.1,0-0.1-0.1-0.1-0.4c0-0.4,0.1-0.7,0.2-1c0.2-0.3,0.4-0.5,0.7-0.5c0.2,0,0.4-0.1,0.4-0.1c0.1,0,0.1-0.2,0.1-0.5v-0.2
			C195.9,782.3,195.7,782,195.5,782z"/>
		<path d="M227.2,785.7c-0.2-0.1-0.2-0.2-0.2-0.5c0-0.3,0-0.5-0.1-0.5c-0.1,0-0.1-0.1-0.1-0.4s-0.1-0.4-0.2-0.4
			c-0.1,0-0.2-0.1-0.3-0.3c-0.1-0.2-0.2-0.3-0.3-0.4c-0.1-0.1-0.2-0.2-0.2-0.4c0-0.2-0.1-0.3-0.4-0.3c-0.7,0-1-0.1-1-0.4
			c0-0.1-0.1-0.2-0.2-0.2c-0.1,0-0.2,0-0.2-0.1c0-0.1-0.1-0.1-0.3-0.1c-0.2,0-0.3-0.1-0.4-0.2c0-0.1-0.5-0.2-1.5-0.2
			c-0.9,0-1.5,0.1-1.6,0.2c-0.1,0.1-0.2,0.2-0.4,0.2c-0.2,0-0.3,0.1-0.4,0.3c-0.1,0.2-0.3,0.4-0.6,0.4c-0.3,0-0.6,0.1-1.1,0.2
			c-0.5,0.1-0.7,0.3-0.8,0.5c0,0.2-0.2,0.4-0.5,0.7c-0.3,0.3-0.4,0.5-0.4,0.5c0,0.1-0.1,0.1-0.2,0.1c-0.1,0-0.2,0.1-0.3,0.4
			c-0.1,0.2-0.2,0.5-0.3,0.7c-0.2,0.3-0.2,0.8-0.2,1.8c0,1.2,0.1,2.1,0.4,2.9c0.5,1.4,0.9,2.2,1.2,2.3c0.2,0,0.3,0.1,0.3,0.3
			c0,0.2,0.2,0.2,0.4,0.2c0.2,0,0.4,0,0.4,0.1c0,0.1,0.1,0.1,0.3,0.1c0.2,0,0.3,0.1,0.3,0.4c0,0.2,0,0.3,0.1,0.4
			c0.1,0.1,0.2,0,0.4-0.1c0.1-0.1,0.2-0.1,0.3,0c0.2,0.1,0.9,0.2,2.2,0.2c1.1,0,1.7-0.1,1.7-0.2c0-0.1,0.3-0.2,0.7-0.2
			c0.4,0,0.6-0.1,0.6-0.2c0-0.2,0.1-0.3,0.2-0.3c0,0,0.2-0.1,0.4-0.3c0.3-0.2,0.4-0.3,0.5-0.3c0.1,0,0.2-0.1,0.2-0.3
			c0.1-0.2,0.2-0.3,0.3-0.3c0.1,0,0.2-0.1,0.3-0.3c0-0.2,0.2-0.3,0.4-0.3c0.2-0.1,0.3-0.1,0.3-0.2c0-0.1,0.1-0.1,0.2-0.1
			c0.1,0,0.2-0.2,0.2-0.6c0-0.3,0-0.5-0.1-0.5c-0.1,0-0.1-0.1,0-0.2c0.1-0.1,0.2-0.8,0.2-2.1c0-0.3,0-0.7,0-1.1
			C227.4,786,227.3,785.7,227.2,785.7z M225,788.8c-0.1,0-0.2,0.2-0.2,0.4c0,0.3-0.1,0.4-0.2,0.5c-0.1,0.1-0.2,0.4-0.3,0.8
			c-0.1,0.4-0.1,0.6-0.3,0.6c-0.1,0-0.2,0-0.2,0.1c0,0.1-0.1,0.2-0.4,0.2c-0.3,0.1-0.4,0.2-0.4,0.3c0,0.1,0,0.2-0.1,0.2
			c-0.1,0.1-0.2,0.1-0.4,0.2c-0.1,0.1-0.2,0.1-0.3,0.1c0,0.1-0.2,0.1-0.4,0.1c-0.2,0-0.3,0.1-0.5,0.2c-0.1,0.1-0.2,0.1-0.4,0.1
			c-0.2,0-0.4,0-0.7-0.1c-0.5-0.1-1-0.3-1.3-0.6c-0.3-0.3-0.7-0.8-1-1.5c-0.3-0.5-0.4-0.9-0.5-1.1c0-0.2-0.1-0.7-0.1-1.4
			c0-0.7,0-1.1,0.1-1.4c0-0.2,0.1-0.5,0.3-0.8c0.3-0.5,0.6-0.9,1-1.3c0.4-0.4,0.8-0.6,1-0.7c0.3,0,0.5-0.1,0.5-0.3
			c0-0.1,0.1-0.2,0.2-0.2c0.1,0,0.2,0,0.2-0.1c0-0.1,0.1-0.1,0.3-0.1c0.2,0,0.3,0,0.3,0.1c0,0.1,0.3,0.1,0.9,0.1
			c0.5,0,0.8,0.1,0.8,0.2c0,0.1,0.1,0.2,0.3,0.3c0.2,0.1,0.3,0.2,0.3,0.3c0,0.1,0.1,0.2,0.3,0.3c0.3,0.1,0.5,0.4,0.5,0.8
			c0,0.2,0.1,0.5,0.3,0.8c0.2,0.3,0.3,0.7,0.3,1.1c0,0.5,0,0.7,0.1,0.8c0.1,0.1,0.1,0.2,0.1,0.4C225.2,788.6,225.1,788.7,225,788.8z
			"/>
		<path d="M245,783.9c0-0.3-0.1-0.5-0.2-0.6c-0.1-0.1-0.1-0.2,0-0.4c0.1-0.1,0.1-0.2,0.1-0.2c0-0.1-0.1-0.2-0.2-0.2
			c-0.1-0.1-0.2-0.2-0.2-0.3c0-0.2-0.1-0.3-0.3-0.5c-0.2-0.2-0.4-0.3-0.5-0.3c-0.1,0-0.2,0-0.2,0.1c0,0.1-0.3,0.1-0.9,0.2
			c-0.5,0.1-1.1,0.1-1.7,0.1c-0.6,0-0.9,0-1,0.1c-0.1,0-0.5,0.1-1.4,0.1c-0.9,0.1-1.8,0.2-2.7,0.3c-0.9,0.1-1.4,0.2-1.4,0.2
			c0,0,0,0.1,0,0.2c0,0.1,0,0.2,0.1,0.3c0.1,0.2,0.1,0.3,0.2,0.4c0.1,0,0.3,0.1,0.6,0.1c0.5,0,0.9,0.1,1,0.3
			c0.1,0.2,0.2,0.7,0.2,1.6c0,0.9-0.1,1.4-0.2,1.5c-0.1,0.1-0.1,0.2,0,0.4c0.1,0.3,0.2,0.5,0,0.7c-0.1,0.2-0.2,0.3-0.3,0.3
			c-0.1,0,0,0.1,0.1,0.2c0.1,0.1,0.1,0.3,0.1,0.6c0,0.1,0,0.4-0.1,0.8c-0.1,1.4-0.2,2.3-0.2,2.6s-0.1,0.5-0.3,0.6
			c-0.2,0.1-0.5,0.3-0.8,0.6l-0.5,0.6h5v-0.5c0-0.2,0-0.4-0.1-0.4c0-0.1-0.1-0.1-0.3-0.1c-0.2,0-0.4,0-0.4-0.1
			c0-0.1-0.1-0.1-0.2-0.1s-0.2-0.1-0.3-0.3c0-0.1,0-0.4,0-1.2c0-1.2,0-2.1,0.1-2.8c0-0.1,0.5-0.1,1.4-0.1c0.8,0,1.3,0.1,1.5,0.2
			c0.3,0.1,0.4,0.4,0.4,0.9c0,0.3,0,0.5,0.1,0.5c0.1,0,0.1-0.1,0.3-0.2c0.1-0.1,0.3-0.2,0.5-0.1c0.2,0.1,0.3,0,0.3-0.2
			c0-0.2,0-0.3,0.1-0.4c0.1-0.1,0.1-0.2,0-0.2c-0.1-0.1-0.2-0.3-0.2-0.6c0-0.4,0.1-0.7,0.2-0.8c0.1-0.1,0.1-0.1,0.1-0.2
			c0-0.1,0-0.1-0.1-0.2c-0.1-0.1-0.1-0.2-0.1-0.2c0-0.1,0-0.1,0.1-0.2c0.2-0.1,0.2-0.2,0.2-0.4c0-0.3-0.4-0.4-1.1-0.4
			c-0.4,0-0.6,0.2-0.6,0.5c0,0.1,0,0.2,0.1,0.3c0.1,0.2,0,0.4,0,0.5c-0.1,0.1-0.4,0.2-1,0.3c-0.6,0.1-1.1,0.2-1.6,0.2h-0.5v-0.6
			c0-0.4,0.1-0.6,0.2-0.7c0.1-0.1,0.2-0.2,0.2-0.4c0-0.3-0.1-0.5-0.2-0.8c-0.1-0.2-0.2-0.4-0.2-0.4s0.1-0.1,0.2-0.3
			c0.2-0.2,0.3-0.4,0.2-0.6c0-0.1,0-0.1,0-0.2c0-0.1,0.1-0.2,0.4-0.3c0.3-0.1,0.8-0.1,1.6-0.1c0.7,0,1.1-0.1,1.1-0.1
			c0.3,0,0.5,0.1,0.7,0.2c0.2,0.2,0.3,0.3,0.5,0.4c0.2,0.1,0.3,0.2,0.3,0.3c0,0.1,0.1,0.3,0.3,0.4c0.2,0.1,0.4,0.3,0.5,0.6
			c0.1,0.4,0.4,0.5,0.8,0.5c0.1,0,0.2,0,0.3-0.1c0.1-0.1,0.2-0.2,0.2-0.6c0-0.3-0.1-0.5-0.2-0.5C245,784.4,245,784.2,245,783.9z"/>
		<path d="M280.6,782.4c-0.1,0-0.3,0-0.5,0c-0.2,0-0.4,0-0.4,0c-0.4,0-0.6,0-0.7,0.1c-0.1,0-0.3,0.1-0.4,0.3
			c-0.2,0.2-0.3,0.3-0.3,0.4c0,0.1,0,0.1,0.2,0.2c0.3,0.2,0.5,0.2,0.7,0.2c0.3,0,0.4,0.1,0.5,0.3c0.1,0.2,0,0.3-0.1,0.4
			c-0.1,0-0.2,0.2-0.2,0.6s-0.1,0.6-0.2,0.6c-0.2,0.1-0.2,0.2-0.2,0.4v0.4c0,0.6-0.1,0.9-0.3,0.9c-0.1,0-0.2,0.1-0.3,0.3
			c0,0.2-0.1,0.7-0.3,1.5c-0.1,0.4-0.2,0.6-0.4,0.6c-0.1,0-0.2,0.1-0.2,0.2c0,0.1,0,0.2-0.2,0.2c-0.3,0-0.4-0.1-0.5-0.2
			c-0.1-0.2-0.2-0.5-0.3-0.9c-0.1-0.4-0.2-1-0.2-1.7c-0.1-0.5-0.2-0.8-0.3-0.9c-0.1-0.1-0.1-0.4-0.1-0.7c0-0.3,0-0.5-0.1-0.5
			c-0.1,0-0.1-0.1-0.1-0.4c0-0.2-0.1-0.4-0.2-0.5c-0.1-0.1-0.2-0.1-0.2-0.2c0-0.1,0.2-0.2,0.6-0.2c0.4,0,0.7-0.1,0.9-0.3
			c0.1-0.1,0.2-0.2,0.2-0.3s0-0.2-0.1-0.4c-0.1-0.2-0.3-0.4-0.6-0.5c-0.3-0.1-0.8-0.1-1.6-0.1c-0.6,0-1-0.1-1-0.3
			c-0.1-0.2-0.1-0.3-0.2-0.3c-0.1,0-0.2,0.1-0.5,0.3c-0.3,0.2-0.4,0.3-0.5,0.3c-0.3,0-0.5,0.2-0.6,0.6v0.1l0,0.1
			c0,0.3,0.3,0.6,0.9,0.7c0.1,0,0.3,0.1,0.4,0.1c0.1,0.1,0.1,0.2,0.1,0.2s-0.1,0.1-0.2,0.1c-0.1,0-0.1,0.2-0.1,0.6s-0.1,0.6-0.2,0.6
			c-0.1,0-0.1,0.2-0.1,0.5c0,0.7-0.2,1.1-0.5,1.2c-0.1,0-0.2,0.1-0.3,0.3c-0.1,0.2-0.1,0.7-0.3,1.5c-0.1,0.4-0.2,0.6-0.4,0.6
			c-0.2,0-0.2,0.1-0.2,0.2c0,0.1,0,0.2-0.2,0.2c-0.3,0-0.5-0.1-0.6-0.2c-0.1-0.2-0.2-0.5-0.2-0.9c0-0.6-0.1-0.9-0.2-1
			c-0.1-0.1-0.1-0.3-0.1-0.6c0-0.4-0.1-0.7-0.2-0.9c-0.1-0.3-0.2-0.5-0.1-0.8c0-0.3,0-0.5-0.1-0.5c-0.1,0-0.2-0.1-0.2-0.4
			c0-0.2-0.1-0.4-0.2-0.5c-0.1-0.1-0.2-0.1-0.2-0.2c0-0.1,0.2-0.2,0.6-0.2c0.4,0,0.7-0.1,0.9-0.3c0.1-0.1,0.2-0.2,0.2-0.3
			c0-0.1-0.1-0.2-0.2-0.4c-0.1-0.2-0.2-0.3-0.4-0.4c-0.2-0.1-0.5-0.1-0.9-0.1c-0.1,0-0.2,0-0.4,0c-0.2,0-0.4,0-0.5,0h-0.4
			c-0.3,0-0.4,0-0.5-0.1c-0.1,0-0.1-0.1-0.2-0.3c-0.1-0.2-0.1-0.4-0.3-0.4c-0.1,0-0.2,0.1-0.5,0.3c-0.2,0.2-0.4,0.3-0.5,0.3
			c-0.1,0-0.3,0.1-0.4,0.2c-0.1,0.1-0.2,0.3-0.2,0.4c0,0.4,0.3,0.7,0.9,0.8c0.5,0.1,0.9,0.6,1,1.6c0.1,0.4,0.2,0.6,0.3,0.8
			c0.1,0.1,0.2,0.4,0.2,0.7s0.1,0.5,0.2,0.6c0.4,0.4,0.5,1.1,0.5,1.9c0,0.4,0,0.6,0.1,0.7c0.1,0.1,0.1,0.2,0.1,0.4
			c0,0.2,0,0.3,0.1,0.4c0.1,0.1,0.2,0.3,0.2,0.8c0,0.4,0.1,0.6,0.2,0.6c0.1,0,0.2,0.2,0.2,0.5c0,0.3,0.1,0.5,0.2,0.5
			c0.1,0,0.2,0.1,0.3,0.4c0.1,0.3,0.3,0.5,0.6,0.5c0.1,0,0.3-0.1,0.4-0.2s0.2-0.3,0.2-0.4c0-0.3,0-0.4,0.1-0.4
			c0.1,0,0.2-0.1,0.2-0.4c0-0.3,0-0.5,0.1-0.5c0.1,0,0.2-0.2,0.2-0.5c0-0.3,0.1-0.6,0.3-0.9c0.2-0.3,0.4-0.5,0.6-0.6
			c0.2-0.1,0.3-0.3,0.3-0.6c0-0.4,0.1-0.6,0.2-0.6c0.1,0,0.2-0.2,0.2-0.5c0-0.3,0.1-0.6,0.2-0.8c0.1-0.2,0.2-0.4,0.1-0.5
			c-0.1-0.2,0.1-0.3,0.4-0.4c0.3-0.1,0.4-0.2,0.5-0.3c0.1,0,0.1,0.1,0.1,0.4c0,0.4,0.1,0.6,0.2,0.8c0.4,0.4,0.6,1.1,0.6,1.9
			c0,0.4,0,0.6,0.1,0.6c0.1,0,0.1,0.1,0.1,0.4c-0.1,0.2,0,0.4,0.1,0.5c0.1,0.1,0.2,0.3,0.2,0.8c0,0.4,0.1,0.6,0.2,0.6
			c0.2,0,0.2,0.2,0.2,0.5c0,0.3,0.1,0.5,0.2,0.5c0.1,0,0.2,0.1,0.3,0.4c0.1,0.3,0.3,0.5,0.6,0.5c0.1,0,0.3-0.1,0.4-0.2
			c0.1-0.1,0.2-0.3,0.2-0.4c0-0.3,0.1-0.4,0.2-0.4c0.1,0,0.1-0.1,0.1-0.4c0-0.3,0-0.5,0.1-0.5c0.1,0,0.2-0.2,0.2-0.5
			c0-0.3,0.1-0.6,0.3-1c0.2-0.4,0.4-0.6,0.5-0.6c0.1,0,0.2-0.2,0.2-0.6c0-0.4,0.1-0.7,0.2-0.7c0.1,0,0.2-0.2,0.2-0.5
			s0.1-0.6,0.2-0.8c0.1-0.2,0.2-0.4,0.2-0.6c0-0.1,0.1-0.2,0.4-0.3c0.3-0.1,0.4-0.2,0.4-0.3c0-0.1,0-0.1,0-0.2c0-0.1,0-0.1,0-0.2
			c0-0.6,0.1-0.9,0.3-0.9c0.1,0,0.1-0.1,0.2-0.4c0-0.3,0.1-0.4,0.2-0.4c0.1,0,0.2-0.1,0.2-0.2c0-0.1,0.1-0.2,0.4-0.2
			c0.3,0,0.5-0.1,0.6-0.2c0.1-0.1,0.2-0.3,0.2-0.6l0-0.4L280.6,782.4z"/>
		<path d="M302.8,792.9c-0.1,0-0.1-0.1-0.2-0.4c-0.1-0.2-0.1-0.3-0.2-0.3c0,0-0.3,0.1-0.8,0.2c0,0-0.1,0-0.2,0c-0.4,0-0.7-0.6-1-1.7
			c-0.2-0.8-0.4-1.3-0.4-1.4c-0.1-0.1-0.2-0.3-0.2-0.5c-0.1-0.4-0.3-1.3-0.8-2.8c-0.5-1.5-0.7-2.4-0.8-2.7c-0.2-1-0.4-1.5-0.5-1.7
			c-0.1-0.2-0.2-0.3-0.4-0.3c-0.3-0.1-0.4,0-0.5,0.1c-0.1,0.1-0.2,0.2-0.4,0.2c-0.2,0-0.4,0.1-0.4,0.2c0,0.1-0.1,0.1-0.2,0.1
			c-0.1,0-0.2,0.2-0.4,0.6c-0.2,0.4-0.3,0.8-0.5,1.2c-0.1,0.4-0.2,0.6-0.3,0.7c-0.1,0.1-0.1,0.2-0.1,0.4c0,0.2-0.1,0.6-0.4,1.2
			c-0.3,0.6-0.5,1.1-0.5,1.5c-0.1,0.4-0.2,0.6-0.2,0.7c-0.1,0.1-0.2,0.3-0.4,0.8c-0.2,0.5-0.3,0.7-0.3,0.8c-0.1,0.2-0.2,0.4-0.2,0.5
			c0,0.2,0,0.2-0.1,0.2c-0.1,0-0.2,0.1-0.3,0.4c-0.1,0.2-0.2,0.4-0.2,0.6c0,0.1-0.2,0.3-0.5,0.6c-0.3,0.3-0.5,0.4-0.7,0.4
			c-0.2,0-0.3,0.1-0.5,0.4c-0.2,0.2-0.4,0.4-0.5,0.4c-0.1,0-0.2,0.1-0.4,0.4c-0.1,0.2-0.1,0.3-0.1,0.4c0,0.1,0.1,0.3,0.4,0.5
			l0.5,0.4l2-0.1c1.1,0,1.8-0.1,2.1-0.1s0.5-0.1,0.5-0.2c0,0,0-0.1-0.1-0.2c-0.1-0.2-0.1-0.3,0.1-0.3c0.1,0,0.2-0.1,0.2-0.2
			c0-0.1-0.1-0.2-0.2-0.2c-0.1,0-0.3-0.1-0.4-0.2c-0.1-0.1-0.4-0.2-0.7-0.3c-0.5-0.1-0.7-0.3-0.7-0.5c0-0.1,0-0.2,0.1-0.3
			c0.1-0.2,0.2-0.3,0.2-0.5c0-0.1,0-0.2,0.1-0.2c0.1,0,0.1-0.2,0.1-0.7v-0.7h0.6c0.4,0,0.7-0.1,0.7-0.2c0.1-0.2,0.6-0.2,1.5-0.2h0.4
			c0.7,0,1,0,1.1,0.1c0.1,0.1,0.2,0.4,0.2,0.8c0,0.5,0.1,0.8,0.3,0.9c0.2,0.2,0.3,0.4,0.3,0.6c0,0,0,0,0,0.1c0,0,0,0.1,0,0.1
			c0,0.3-0.1,0.4-0.1,0.5c-0.1,0.1-0.3,0.1-0.6,0.2c-0.5,0.1-0.7,0.2-0.8,0.3c0,0.1-0.1,0.1-0.3,0.1c-0.2,0-0.3,0.1-0.3,0.3
			c0,0.3,0,0.4,0.1,0.5c0.1,0.1,0.3,0.1,0.6,0.1c0.3,0,0.7,0,1.3-0.1c0.6-0.1,1.3-0.1,2-0.1c0.4,0,0.7,0,0.8,0c0.2,0,0.4,0,0.6,0
			c0.3,0,0.5-0.1,0.5-0.3c0.1-0.2,0.1-0.3,0.2-0.3c0.1,0,0.1-0.2,0.1-0.5C303,793.1,302.9,792.9,302.8,792.9z M296.7,788.4
			c0,0-0.1,0-0.2,0c-0.1,0-0.1,0-0.1,0c-0.3,0-0.5,0.1-0.6,0.2c-0.1,0.1-0.3,0.2-0.4,0.2c-0.2,0-0.3-0.1-0.4-0.2
			c-0.1-0.1-0.2-0.2-0.3-0.2c-0.1,0-0.2-0.1-0.2-0.2c0-0.1,0-0.2,0.1-0.2c0.1,0,0.2-0.1,0.3-0.4c0.1-0.3,0.2-0.5,0.2-0.7
			c0-0.2,0.1-0.3,0.2-0.4c0.1,0,0.2-0.3,0.2-0.8c0.1-0.6,0.3-0.9,0.6-0.9c0.2,0,0.3,0.1,0.5,0.2c0.1,0.1,0.2,0.2,0.4,0.5
			c0.1,0.3,0.2,0.4,0.2,0.5c0,0-0.1,0.1-0.3,0.1c-0.2,0-0.3,0.1-0.4,0.2c-0.1,0.1,0,0.2,0.1,0.2c0.1,0,0.2,0.1,0.2,0.2
			c0.1,0.1,0.2,0.3,0.2,0.4c0.1,0.2,0.1,0.2,0.2,0.3c0.1,0.1,0.1,0.3,0.2,0.6l0.1,0.5L296.7,788.4z"/>
		<path d="M323,782c-0.1,0-0.2,0-0.3,0.1c-0.2,0.1-0.3,0.1-0.3,0.1c-0.1,0-0.1-0.1-0.2-0.2c-0.1-0.2-0.3-0.3-0.4-0.3
			c-0.1,0-0.2-0.1-0.2-0.3c0-0.2-0.1-0.3-0.3-0.3c-0.2,0-0.3,0.1-0.3,0.3c0,0.2,0.1,0.3,0.2,0.3s0.2,0.1,0.2,0.3
			c0,0.2-0.1,0.3-0.2,0.3c-0.2,0-0.3-0.1-0.3-0.4c-0.1-0.2-0.2-0.4-0.3-0.4c-0.1,0-0.1,0-0.2,0.1c-0.2,0.2-0.2,0.3,0,0.3
			c0.1,0,0.2,0.1,0.2,0.1c0,0.1-0.1,0.2-0.4,0.2c-0.2,0-0.4,0-0.4-0.1c0-0.1-0.1-0.1-0.4-0.1c-0.4,0-0.8,0.1-1.1,0.2
			c-0.4,0.2-0.6,0.4-0.6,0.7c0,0.3,0.3,0.5,0.8,0.6c0.4,0.1,0.6,0.1,0.6,0.2c0,0.1,0.1,0.1,0.3,0.1c0.3,0,0.5,0.2,0.6,0.6
			c0.1,0.4,0.2,1.2,0.2,2.4c0,1.4,0.1,2.2,0.1,2.4c0.1,0.1,0,0.3,0,0.6l-0.1,0.4l-0.5-0.5c-0.4-0.3-0.5-0.5-0.5-0.6
			c0-0.1-0.1-0.2-0.2-0.3c-0.1-0.1-0.3-0.2-0.4-0.4c-0.2-0.1-0.3-0.2-0.3-0.2c-0.1-0.1-0.3-0.2-0.3-0.2c-0.1,0-0.2-0.1-0.2-0.2
			c0-0.1-0.1-0.2-0.2-0.3c-0.1-0.1-0.3-0.2-0.4-0.2s-0.1-0.1-0.1-0.2c0-0.1-0.1-0.2-0.2-0.2c-0.1,0-0.1,0-0.1-0.1
			c0-0.1-0.1-0.2-0.4-0.5c-0.2-0.3-0.4-0.4-0.4-0.5c0-0.1-0.1-0.2-0.3-0.2c-0.2,0-0.3-0.1-0.5-0.2c-0.2-0.1-0.2-0.3-0.2-0.4
			c0-0.1-0.2-0.3-0.5-0.7c-0.3-0.4-0.5-0.6-0.5-0.7c0-0.1-0.1-0.2-0.3-0.4c-0.2-0.2-0.3-0.4-0.3-0.4c0-0.3-0.6-0.5-1.8-0.6
			c-0.6,0-0.9-0.1-0.9-0.1c-0.3,0-0.4,0.1-0.4,0.2c0,0.1,0,0.2,0,0.4c0,0.2,0,0.4,0.1,0.6c0.1,0.2,0.1,0.3,0.2,0.3
			c0.1,0,0.2,0.2,0.3,0.6c0.1,0.4,0.2,0.6,0.2,0.6c0.1,0,0.1,0.3,0.1,0.8c0,0.5,0,0.8-0.1,0.8c-0.1,0-0.1,0.1-0.1,0.4
			c0,0.2,0.1,0.6,0.2,1c0.1,0.2,0.1,0.6,0.1,1.1c0,0.7-0.1,1.1-0.2,1.1c-0.1,0-0.1,0.2-0.1,0.7c0,0.5,0,1.1-0.1,1.5
			c0,0.4-0.1,0.6-0.1,0.7c-0.1,0.1-0.2,0.2-0.4,0.2c-0.3,0.1-0.4,0.2-0.4,0.4c0,0.2,0.1,0.4,0.4,0.6c0.2,0.2,0.3,0.3,0.5,0.3
			c0.2,0,0.8,0,1.7,0c1,0,1.6,0,1.8-0.1c0.2-0.1,0.3-0.3,0.3-0.8c0-0.3-0.1-0.4-0.3-0.5c-0.2-0.1-0.3-0.1-0.3-0.2
			c0-0.1-0.2-0.1-0.6-0.1c-0.4,0-0.7-0.1-0.9-0.3c-0.2-0.2-0.2-0.3-0.1-0.4c0.1-0.1,0.2-0.2,0.2-0.6c0-0.3,0-0.5-0.1-0.5
			c-0.1-0.1-0.1-0.9-0.1-2.6c0-1.7,0.1-2.5,0.2-2.5c0.1,0,0.3,0.1,0.4,0.2c0.1,0.1,0.3,0.2,0.5,0.3c0.3,0.1,0.4,0.3,0.5,0.4
			c0,0.2,0.3,0.5,0.8,1.1c0.5,0.5,0.9,0.9,1.3,1.1c0.2,0.1,0.3,0.2,0.3,0.3c0,0.1,0.2,0.2,0.5,0.6c0.7,0.7,1.1,1.1,1.1,1.4
			c0,0.1,0.1,0.1,0.3,0.1c0.2,0,0.3,0,0.3,0.1c0,0.1,0.1,0.3,0.4,0.5c0.2,0.2,0.4,0.4,0.4,0.6c0,0.1,0.1,0.3,0.3,0.5
			c0.2,0.2,0.3,0.3,0.4,0.3c0.1,0,0.3,0.2,0.6,0.5c0.3,0.3,0.5,0.5,0.7,0.6c0.1,0.1,0.2,0.1,0.3,0.1c0.4,0,0.6-0.2,0.6-0.6
			c0-0.1,0-0.2,0-0.4c0-0.9-0.1-1.4-0.2-1.6c-0.1-0.1-0.1-0.5-0.1-1.3v-0.4c0-1,0-1.6-0.1-1.6c-0.1-0.1-0.2-0.4-0.2-1
			c0-0.5,0-0.8,0.1-0.8c0.1-0.1,0.2-0.2,0.2-0.5c0-0.3,0-0.4,0.1-0.4c0.1,0,0.1-0.1,0.1-0.4c0-0.3,0-0.4-0.1-0.4
			c-0.1,0-0.1-0.1-0.1-0.4c0-0.4,0.1-0.7,0.2-1c0.2-0.3,0.4-0.5,0.7-0.5c0.2,0,0.4-0.1,0.4-0.1c0.1,0,0.1-0.2,0.1-0.5v-0.2
			C323.3,782.3,323.2,782,323,782z"/>
		<path d="M342.5,785.5c0-0.2-0.1-0.3-0.2-0.5c-0.2-0.2-0.3-0.3-0.4-0.3c-0.1,0-0.2-0.1-0.2-0.2c0-0.1-0.1-0.3-0.3-0.6
			c-0.2-0.2-0.3-0.3-0.4-0.3c-0.1,0-0.2-0.1-0.2-0.2c0-0.1-0.1-0.2-0.3-0.3c-0.2-0.1-0.3-0.1-0.3-0.2c0-0.1-0.1-0.1-0.4-0.1
			c-0.2,0-0.3-0.1-0.6-0.2c-0.2-0.1-0.4-0.2-0.5-0.2c-0.2,0-0.3,0-0.3-0.1c0-0.1-0.1-0.1-0.4-0.1c-0.2,0-0.3,0-0.4-0.1
			c-0.1-0.1-0.2-0.1-0.2-0.1c-0.1,0-0.2,0-0.4,0.1c-0.3,0.1-0.6,0.2-1,0.2c-0.2,0-0.4,0-0.4-0.1c-0.1,0-0.1-0.1-0.1-0.2
			c0-0.2-0.1-0.3-0.2-0.3c-0.1,0-0.2,0-0.3,0.2c-0.1,0.1-0.1,0.1-0.2,0c-0.2-0.3-0.3-0.2-0.4,0.1c-0.1,0.2-0.2,0.3-0.4,0.2
			c-0.2-0.1-0.5-0.2-1-0.2c-0.4,0-0.7-0.1-0.8-0.2c0-0.1-0.1-0.1-0.3,0.1c-0.2,0.1-0.3,0.1-0.3,0c-0.1-0.1-0.2-0.2-0.5-0.2
			c-0.2,0-0.4,0-0.4,0.1c0,0.1-0.1,0.1-0.3,0.1c-0.1,0-0.2,0-0.2,0.1c0,0.1-0.1,0.3-0.1,0.5c0,0.3,0,0.5,0.1,0.6
			c0,0.1,0.2,0.2,0.3,0.3c0.2,0.1,0.3,0.1,0.4,0.1c0,0,0.1,0,0.1,0c0.1,0,0.1,0,0.1,0c0.1,0,0.2,0,0.3,0.1c0.2,0.1,0.4,0.4,0.4,0.8
			c0,0.4,0,0.6-0.1,0.6c-0.1,0-0.1,0.3-0.1,0.9c0,0.6,0,0.8,0.1,0.8c0.1,0,0.1,0.1,0.1,0.4c0,0.2,0,0.4-0.1,0.5
			c-0.1,0.1-0.1,1-0.2,2.8l-0.1,2.7l-0.5,0c-0.4,0-0.6,0.2-0.8,0.4c-0.2,0.2-0.3,0.4-0.3,0.5c0,0.1,0.1,0.2,0.4,0.4
			c0.3,0.2,0.5,0.2,0.7,0.2c0.1,0,0.2,0,0.2-0.1c0-0.1,0.3-0.1,0.8-0.1c0.5,0,0.8,0,0.8,0.1c0,0.1,0.9,0.2,2.6,0.2
			c1.1,0,1.7,0,1.8-0.1c0.1-0.1,0.4-0.2,0.7-0.2c0.4-0.1,0.8-0.2,1.3-0.5c0.5-0.2,0.8-0.4,1-0.4c0.2,0,0.3-0.1,0.4-0.4
			c0.1-0.3,0.3-0.6,0.7-1.1c0.4-0.4,0.6-0.7,0.6-0.8s0-0.2,0.1-0.2c0.1,0,0.1-0.1,0.1-0.3c0-0.2,0.1-0.4,0.2-0.5
			c0.1-0.1,0.1-0.8,0.1-2c0-1.4-0.1-2.1-0.2-2.2C342.6,785.8,342.5,785.7,342.5,785.5z M340.4,789.7c-0.1,0.1-0.2,0.2-0.2,0.5
			c0,0.3-0.1,0.5-0.2,0.6c-0.3,0.3-0.5,0.6-0.6,1c-0.1,0.2-0.1,0.2-0.2,0.2c-0.1,0-0.3,0.2-0.7,0.5c-0.4,0.3-0.7,0.5-0.9,0.5
			c-0.2,0-0.3,0.1-0.4,0.2c-0.1,0.1-0.1,0.1-0.2,0c-0.1-0.1-0.1-0.2-0.3-0.2s-0.2,0.1-0.3,0.2c0,0.1-0.3,0.1-0.9,0.1
			c-0.6,0-1.1,0-1.6,0c-0.2,0-0.2-0.1-0.2-0.4c0-0.2-0.1-0.4-0.2-0.4s-0.2,0-0.2-0.1c0-0.1,0.1-0.1,0.2-0.2c0.1-0.1,0.2-0.2,0.2-0.3
			c0-0.1,0.1-0.2,0.2-0.2c0.1,0,0.1-0.1,0.2-0.4c0.1-0.2,0.1-0.5,0.1-0.8c0-0.1,0-0.3-0.1-0.5c0,0,0,0,0-0.1c0,0,0-0.1,0-0.1
			c0-0.2,0.1-0.4,0.2-0.6l0.2-0.4c0,0-0.1-0.1-0.2-0.1c-0.1,0-0.2-0.3-0.2-0.8c0-0.5,0-1,0-1.5c0-1.4,0.1-2.2,0.1-2.4
			c0-0.3,0.1-0.5,0.4-0.8c0.2-0.2,0.4-0.3,0.6-0.3c0.1,0,0.2,0,0.3,0c0.1,0,0.3,0,0.7,0.1c0.4,0,0.7,0.1,1,0.1
			c0.3,0.1,0.4,0.1,0.5,0.2c0.1,0.1,0.2,0.2,0.4,0.2c0.2,0,0.4,0.1,0.4,0.3c0.1,0.2,0.2,0.3,0.3,0.3c0.2,0,0.2,0,0.2,0.1
			s0.1,0.2,0.3,0.2c0.2,0.1,0.3,0.2,0.3,0.3c0,0.1,0.1,0.3,0.2,0.4c0.1,0.1,0.2,0.4,0.3,0.9c0,0.4,0.1,0.7,0.2,0.8
			c0.1,0.1,0.1,0.5,0.1,1.3S340.5,789.7,340.4,789.7z"/>
		<path d="M352.3,788.7c0-0.1,0-0.2-0.1-0.2c-0.1,0-0.1,0-0.1,0.1l0.1,0.2C352.3,789,352.3,788.9,352.3,788.7z"/>
		<path d="M358.2,789.5c0-0.6-0.1-0.9-0.2-1.1c-0.1-0.2-0.3-0.4-0.6-0.5c-0.3-0.1-0.5-0.3-0.5-0.4c-0.1-0.1-0.3-0.3-0.9-0.6
			c-0.5-0.3-1-0.5-1.3-0.6c-0.2-0.1-0.5-0.2-0.9-0.5c-0.4-0.3-0.6-0.4-0.6-0.5c0-0.1-0.1-0.2-0.2-0.3c-0.2-0.1-0.2-0.2-0.2-0.3
			c0,0,0-0.1,0-0.1c0.1-0.1,0.1-0.2,0.1-0.3c0-0.1,0-0.3-0.1-0.6c0-0.1,0-0.2,0-0.2c0,0,0.2-0.1,0.3-0.1c0.3,0,0.4-0.1,0.4-0.2
			c0-0.1,0.1-0.2,0.4-0.4c0.3-0.2,0.4-0.3,0.4-0.3c0-0.1,0.1-0.1,0.4-0.2c0.1,0,0.1,0,0.2,0c0.4,0,0.8,0.2,1.2,0.5s0.7,0.6,0.7,0.9
			c0,0.2,0.1,0.4,0.3,0.5c0.2,0.1,0.3,0.3,0.3,0.4s0.1,0.3,0.2,0.5s0.3,0.3,0.4,0.3c0,0,0,0,0.1,0c0.1-0.1,0.1-0.7,0.2-2v-0.8
			c0-0.6-0.1-0.9-0.2-0.9c-0.1,0-0.1,0-0.1,0c-0.3,0.1-0.6,0.2-0.8,0.2c-0.3,0-0.6-0.1-1-0.3c-0.4-0.2-0.6-0.3-0.7-0.3
			c0,0-0.1,0-0.2,0.1c-0.3,0.1-0.6,0.1-0.8,0.1c-0.3,0-0.4,0-0.5,0.1c0,0.1-0.1,0.2-0.3,0.2c-0.2,0-0.4-0.1-0.5-0.2
			c-0.1-0.1-0.3-0.2-0.5-0.2h0c-0.1,0-0.1,0-0.1,0c-0.1,0-0.1,0-0.1,0c0,0,0.1,0,0.1,0c0.1,0.1,0.2,0.1,0.2,0.2
			c0,0.2-0.2,0.3-0.5,0.4c-0.3,0.1-0.4,0.2-0.4,0.4c0.1,0.2,0,0.3-0.2,0.4c-0.3,0.1-0.6,0.5-1.1,1.1c-0.1,0.2-0.2,0.4-0.2,0.6
			c0,0,0,0.3,0.1,0.8c0.1,0.7,0.3,1.1,0.4,1.3c0.1,0.2,0.4,0.4,0.7,0.7c0.4,0.3,0.6,0.4,0.8,0.4c0.1,0,0.3,0.1,0.6,0.4
			c0.4,0.3,0.9,0.6,1.7,0.8c0.5,0.1,0.8,0.3,1.1,0.6c0.2,0.2,0.3,0.4,0.5,0.7c0.1,0.3,0.2,0.5,0.2,0.7c0,0.1,0,0.1-0.1,0.2
			c-0.1,0-0.1,0.2-0.1,0.4c0.1,0.2,0,0.4-0.2,0.6c-0.1,0.1-0.2,0.3-0.2,0.4c0,0.2-0.5,0.4-1.4,0.5c-0.1,0-0.3,0-0.6,0
			c-0.9,0-1.7-0.4-2.2-1.2c-0.3-0.4-0.5-0.8-0.5-1c0,0,0-0.1,0-0.2c0-0.1,0-0.2,0-0.2c0,0-0.1-0.1-0.1-0.1c-0.1,0-0.1,0-0.1-0.1
			c0.1-0.3-0.1-0.5-0.4-0.6c-0.1,0-0.2-0.1-0.3-0.1c-0.3,0-0.4,0.2-0.5,0.5c-0.1,1.2-0.1,1.9-0.2,1.9c-0.1,0.1-0.1,0.4-0.2,0.8
			c0,0.1,0,0.3,0,0.4c0,0.2,0.1,0.4,0.3,0.6c0.1,0.1,0.2,0.2,0.3,0.2c0,0,0.1,0,0.2-0.2c0.1-0.2,0.2-0.3,0.2-0.4
			c0-0.3,0.2-0.3,0.5-0.1c0.9,0.5,1.8,0.7,2.9,0.7c0.5,0,1.1-0.1,1.6-0.2c0.6-0.1,1.1-0.3,1.4-0.6c0.3-0.3,0.5-0.5,0.5-0.5
			c0-0.1,0.1-0.2,0.2-0.3c0.2-0.1,0.3-0.4,0.3-0.9c0.1-0.5,0.1-0.7,0.2-0.7s0.1,0,0-0.1C358.3,790.6,358.2,790.2,358.2,789.5z
			 M353.8,788C353.8,788,353.7,787.9,353.8,788c-0.1-0.1-0.1-0.1,0-0.1S353.9,787.9,353.8,788C353.9,787.9,353.9,788,353.8,788z"/>
		<polygon points="51.7,808.8 44,814 41.2,799.9 38.4,814 30.7,808.8 35.9,816.5 21.8,819.3 35.9,822 30.7,829.8 38.4,824.6 
			41.2,838.6 43.9,824.6 51.7,829.8 46.5,822 60.5,819.3 46.5,816.5 		"/>
		<polygon points="468.1,816.5 473.3,808.8 465.5,814 462.8,799.9 460,814 452.3,808.8 457.5,816.5 443.4,819.3 457.5,822 
			452.3,829.8 460,824.6 462.8,838.6 465.5,824.6 473.3,829.8 468.1,822 482.1,819.3 		"/>
		<polygon points="30.7,57.5 38.4,52.3 41.2,66.4 44,52.3 51.7,57.5 46.5,49.8 60.5,47 46.5,44.3 51.7,36.5 43.9,41.7 41.2,27.7 
			38.4,41.7 30.7,36.5 35.9,44.3 21.8,47 35.9,49.8 		"/>
		<polygon points="473.3,36.5 465.5,41.7 462.8,27.7 460,41.7 452.3,36.5 457.5,44.3 443.4,47 457.5,49.8 452.3,57.5 460,52.3 
			462.8,66.4 465.5,52.3 473.3,57.5 468.1,49.8 482.1,47 468.1,44.3 		"/>
		<path d="M118.9,681.9c-0.9-0.4-1.8-0.8-2.7-1.1c-1.1-0.5-1.7-0.5-2-1.5c-0.6-1.9-1.1-3.9-1.6-5.9c0,0,0,0,0-0.1c0,0,0,0,0-0.1
			c-0.1-0.1-0.2-0.2-0.3-0.2c-0.1,0-0.3,0-0.3,0.2c0,0,0,0.1,0,0.1c0,0,0,0,0,0c0,0,0,0,0,0c0,0,0,0,0,0c-0.5,1.9-1,3.9-1.5,5.9
			c-0.5,1.5-3.3,2.1-4.7,2.7c-0.3,0.1-0.5,0.6-0.1,0.7c0.9,0.4,1.8,0.8,2.7,1.2c0.5,0.2,1.1,0.5,1.6,0.7c0.1,0.1,0.2,0.1,0.2,0.1
			c0,0,0,0,0,0.1c1,1.7,1.2,4.2,1.8,6.1c0.1,0.4,0.7,0.4,0.8,0c0.6-1.9,0.9-4.4,1.8-6.1c0,0,0,0,0-0.1c0,0,0.1,0,0.1-0.1
			c0.5-0.3,1.2-0.5,1.7-0.8c0.9-0.4,1.8-0.8,2.7-1.2C119.4,682.4,119.2,682,118.9,681.9z M115.5,683.3c-0.6,0.3-1.5,0.5-1.9,1
			c-0.6,0.8-0.7,2.4-1,3.4c-0.2,0.6-0.3,1.1-0.5,1.7c-0.2-0.6-0.3-1.1-0.5-1.7c-0.3-0.9-0.4-2.6-1-3.4c-0.4-0.6-1.2-0.7-1.9-1
			c-0.7-0.3-1.5-0.7-2.2-1c1.5-0.5,3.5-1.1,4.2-2.2c0.6-1,0.7-2.7,1-3.7c0.1-0.5,0.2-0.9,0.4-1.4c0.1,0.5,0.3,0.9,0.4,1.4
			c0.3,1.1,0.4,2.7,1,3.7c0.6,1.1,2.7,1.7,4.2,2.2C117,682.6,116.3,683,115.5,683.3z"/>
		<path d="M118.9,726.6c-0.9-0.4-1.8-0.8-2.7-1.1c-1.1-0.5-1.7-0.5-2-1.5c-0.6-1.9-1.1-3.9-1.6-5.9c0,0,0,0,0-0.1c0,0,0,0,0-0.1
			c-0.1-0.1-0.2-0.2-0.3-0.2c-0.1,0-0.3,0-0.3,0.2c0,0,0,0.1,0,0.1c0,0,0,0,0,0c0,0,0,0,0,0c0,0,0,0,0,0c-0.5,1.9-1,3.9-1.5,5.9
			c-0.5,1.5-3.3,2.1-4.7,2.7c-0.3,0.1-0.5,0.6-0.1,0.7c0.9,0.4,1.8,0.8,2.7,1.2c0.5,0.2,1.1,0.5,1.6,0.7c0.1,0.1,0.2,0.1,0.2,0.1
			c0,0,0,0,0,0.1c1,1.7,1.2,4.2,1.8,6.1c0.1,0.4,0.7,0.4,0.8,0c0.6-1.9,0.9-4.4,1.8-6.1c0,0,0,0,0-0.1c0,0,0.1,0,0.1-0.1
			c0.5-0.3,1.2-0.5,1.7-0.8c0.9-0.4,1.8-0.8,2.7-1.2C119.4,727.2,119.2,726.7,118.9,726.6z M115.5,728c-0.6,0.3-1.5,0.5-1.9,1
			c-0.6,0.8-0.7,2.4-1,3.4c-0.2,0.6-0.3,1.1-0.5,1.7c-0.2-0.6-0.3-1.1-0.5-1.7c-0.3-0.9-0.4-2.6-1-3.4c-0.4-0.6-1.2-0.7-1.9-1
			c-0.7-0.3-1.5-0.7-2.2-1c1.5-0.5,3.5-1.1,4.2-2.2c0.6-1,0.7-2.7,1-3.7c0.1-0.5,0.2-0.9,0.4-1.4c0.1,0.5,0.3,0.9,0.4,1.4
			c0.3,1.1,0.4,2.7,1,3.7c0.6,1.1,2.7,1.7,4.2,2.2C117,727.3,116.3,727.7,115.5,728z"/>
		<path d="M398.5,681.9c-1.5-0.6-4.3-1.2-4.7-2.7c-0.6-1.9-1-3.9-1.5-5.9c0,0,0,0,0,0c0,0,0,0,0,0c0,0,0,0,0,0c0,0,0-0.1,0-0.1
			c-0.1-0.1-0.2-0.2-0.3-0.2c-0.1,0-0.3,0.1-0.3,0.2c0,0,0,0,0,0.1c0,0,0,0,0,0.1c-0.5,2-1,4-1.6,5.9c-0.3,1-1,1-2,1.5
			c-0.9,0.4-1.8,0.8-2.7,1.1c-0.3,0.1-0.4,0.6-0.1,0.7c0.9,0.4,1.8,0.8,2.7,1.2c0.5,0.2,1.2,0.4,1.7,0.8c0.1,0,0.1,0.1,0.1,0.1
			c0,0,0,0,0,0.1c0.9,1.8,1.2,4.2,1.8,6.1c0.1,0.4,0.7,0.4,0.8,0c0.6-1.9,0.9-4.4,1.8-6.1c0,0,0-0.1,0-0.1c0,0,0.1,0,0.2-0.1
			c0.5-0.3,1.1-0.5,1.6-0.7c0.9-0.4,1.8-0.8,2.7-1.2C399,682.5,398.8,682,398.5,681.9z M395.1,683.3c-0.6,0.3-1.5,0.5-1.9,1
			c-0.6,0.8-0.7,2.4-1,3.4c-0.2,0.6-0.3,1.1-0.5,1.7c-0.2-0.6-0.3-1.1-0.5-1.7c-0.3-0.9-0.4-2.6-1-3.4c-0.4-0.6-1.2-0.7-1.9-1
			c-0.7-0.3-1.5-0.7-2.2-1c1.5-0.5,3.6-1.1,4.2-2.2c0.6-1,0.7-2.6,1-3.7c0.1-0.5,0.3-0.9,0.4-1.4c0.1,0.5,0.3,0.9,0.4,1.4
			c0.3,1.1,0.4,2.8,1,3.7c0.7,1.1,2.7,1.7,4.2,2.2C396.6,682.7,395.9,683,395.1,683.3z"/>
		<path d="M398.5,726.6c-1.5-0.6-4.3-1.2-4.7-2.7c-0.6-1.9-1-3.9-1.5-5.9c0,0,0,0,0,0c0,0,0,0,0,0c0,0,0,0,0,0c0,0,0-0.1,0-0.1
			c-0.1-0.1-0.2-0.2-0.3-0.2c-0.1,0-0.3,0.1-0.3,0.2c0,0,0,0,0,0.1c0,0,0,0,0,0.1c-0.5,2-1,4-1.6,5.9c-0.3,1-1,1-2,1.5
			c-0.9,0.4-1.8,0.8-2.7,1.1c-0.3,0.1-0.4,0.6-0.1,0.7c0.9,0.4,1.8,0.8,2.7,1.2c0.5,0.2,1.2,0.4,1.7,0.8c0.1,0,0.1,0.1,0.1,0.1
			c0,0,0,0,0,0.1c0.9,1.8,1.2,4.2,1.8,6.1c0.1,0.4,0.7,0.4,0.8,0c0.6-1.9,0.9-4.4,1.8-6.1c0,0,0-0.1,0-0.1c0,0,0.1,0,0.2-0.1
			c0.5-0.3,1.1-0.5,1.6-0.7c0.9-0.4,1.8-0.8,2.7-1.2C399,727.2,398.8,726.7,398.5,726.6z M395.1,728c-0.6,0.3-1.5,0.5-1.9,1
			c-0.6,0.8-0.7,2.4-1,3.4c-0.2,0.6-0.3,1.1-0.5,1.7c-0.2-0.6-0.3-1.1-0.5-1.7c-0.3-0.9-0.4-2.6-1-3.4c-0.4-0.6-1.2-0.7-1.9-1
			c-0.7-0.3-1.5-0.7-2.2-1c1.5-0.5,3.6-1.1,4.2-2.2c0.6-1,0.7-2.6,1-3.7c0.1-0.5,0.3-0.9,0.4-1.4c0.1,0.5,0.3,0.9,0.4,1.4
			c0.3,1.1,0.4,2.8,1,3.7c0.7,1.1,2.7,1.7,4.2,2.2C396.6,727.4,395.9,727.7,395.1,728z"/>
		<path d="M258.7,388.4c-0.9-0.4-1.8-0.8-2.7-1.1c-1.1-0.5-1.7-0.5-2-1.5c-0.6-1.9-1.1-3.9-1.6-5.9c0,0,0,0,0-0.1c0,0,0,0,0-0.1
			c-0.1-0.1-0.2-0.2-0.3-0.2c-0.1,0-0.3,0-0.3,0.2c0,0,0,0.1,0,0.1c0,0,0,0,0,0c0,0,0,0,0,0c0,0,0,0,0,0c-0.5,1.9-1,3.9-1.5,5.9
			c-0.5,1.5-3.3,2.1-4.7,2.7c-0.3,0.1-0.5,0.6-0.1,0.7c0.9,0.4,1.8,0.8,2.7,1.2c0.5,0.2,1.1,0.5,1.6,0.7c0.1,0.1,0.2,0.1,0.2,0.1
			c0,0,0,0,0,0.1c1,1.7,1.2,4.2,1.8,6.1c0.1,0.4,0.7,0.4,0.8,0c0.6-1.9,0.9-4.4,1.8-6.1c0,0,0,0,0-0.1c0,0,0.1,0,0.1-0.1
			c0.5-0.3,1.2-0.5,1.7-0.8c0.9-0.4,1.8-0.8,2.7-1.2C259.2,389,259,388.5,258.7,388.4z M255.3,389.8c-0.6,0.3-1.5,0.5-1.9,1
			c-0.6,0.8-0.7,2.4-1,3.4c-0.2,0.6-0.3,1.1-0.5,1.7c-0.2-0.6-0.3-1.1-0.5-1.7c-0.3-0.9-0.4-2.6-1-3.4c-0.4-0.6-1.2-0.7-1.9-1
			c-0.7-0.3-1.5-0.7-2.2-1c1.5-0.5,3.5-1.1,4.2-2.2c0.6-1,0.7-2.7,1-3.7c0.1-0.5,0.2-0.9,0.4-1.4c0.1,0.5,0.3,0.9,0.4,1.4
			c0.3,1.1,0.4,2.7,1,3.7c0.6,1.1,2.7,1.7,4.2,2.2C256.8,389.1,256.1,389.5,255.3,389.8z"/>
		<path d="M258.7,478.2c-0.9-0.4-1.8-0.8-2.7-1.1c-1.1-0.5-1.7-0.5-2-1.5c-0.6-1.9-1.1-3.9-1.6-5.9c0,0,0,0,0-0.1c0,0,0,0,0-0.1
			c-0.1-0.1-0.2-0.2-0.3-0.2c-0.1,0-0.3,0-0.3,0.2c0,0,0,0.1,0,0.1c0,0,0,0,0,0c0,0,0,0,0,0c0,0,0,0,0,0c-0.5,1.9-1,3.9-1.5,5.9
			c-0.5,1.5-3.3,2.1-4.7,2.7c-0.3,0.1-0.5,0.6-0.1,0.7c0.9,0.4,1.8,0.8,2.7,1.2c0.5,0.2,1.1,0.5,1.6,0.7c0.1,0.1,0.2,0.1,0.2,0.1
			c0,0,0,0,0,0.1c1,1.7,1.2,4.2,1.8,6.1c0.1,0.4,0.7,0.4,0.8,0c0.6-1.9,0.9-4.4,1.8-6.1c0,0,0,0,0-0.1c0,0,0.1,0,0.1-0.1
			c0.5-0.3,1.2-0.5,1.7-0.8c0.9-0.4,1.8-0.8,2.7-1.2C259.2,478.8,259,478.3,258.7,478.2z M255.3,479.6c-0.6,0.3-1.5,0.5-1.9,1
			c-0.6,0.8-0.7,2.4-1,3.4c-0.2,0.6-0.3,1.1-0.5,1.7c-0.2-0.6-0.3-1.1-0.5-1.7c-0.3-0.9-0.4-2.6-1-3.4c-0.4-0.6-1.2-0.7-1.9-1
			c-0.7-0.3-1.5-0.7-2.2-1c1.5-0.5,3.5-1.1,4.2-2.2c0.6-1,0.7-2.7,1-3.7c0.1-0.5,0.2-0.9,0.4-1.4c0.1,0.5,0.3,0.9,0.4,1.4
			c0.3,1.1,0.4,2.7,1,3.7c0.6,1.1,2.7,1.7,4.2,2.2C256.8,479,256.1,479.3,255.3,479.6z"/>
		<path d="M247.9,166.3c0.5,0.2,1.1,0.5,1.6,0.7c0.1,0.1,0.2,0.1,0.2,0.1c0,0,0,0,0,0.1c1,1.7,1.2,4.2,1.8,6.1
			c0.1,0.4,0.7,0.4,0.8,0c0.6-1.9,0.9-4.4,1.8-6.1c0,0,0,0,0-0.1c0,0,0.1,0,0.1-0.1c0.5-0.3,1.2-0.5,1.7-0.8
			c0.9-0.4,1.8-0.8,2.7-1.2c0.4-0.2,0.2-0.6-0.1-0.7c-0.9-0.4-1.8-0.8-2.7-1.1c-1.1-0.5-1.7-0.5-2-1.5c-0.6-1.9-1.1-3.9-1.6-5.9
			c0,0,0,0,0-0.1c0,0,0,0,0-0.1c-0.1-0.1-0.2-0.2-0.3-0.2c-0.1,0-0.3,0-0.3,0.2c0,0,0,0.1,0,0.1c0,0,0,0,0,0c0,0,0,0,0,0
			c0,0,0,0,0,0c-0.5,1.9-1,3.9-1.5,5.9c-0.5,1.5-3.3,2.1-4.7,2.7c-0.3,0.1-0.5,0.6-0.1,0.7C246.1,165.5,247,165.9,247.9,166.3z
			 M250.6,162.5c0.6-1,0.7-2.7,1-3.7c0.1-0.5,0.2-0.9,0.4-1.4c0.1,0.5,0.3,0.9,0.4,1.4c0.3,1.1,0.4,2.7,1,3.7
			c0.6,1.1,2.7,1.7,4.2,2.2c-0.7,0.3-1.5,0.7-2.2,1c-0.6,0.3-1.5,0.5-1.9,1c-0.6,0.8-0.7,2.4-1,3.4c-0.2,0.6-0.3,1.1-0.5,1.7
			c-0.2-0.6-0.3-1.1-0.5-1.7c-0.3-0.9-0.4-2.6-1-3.4c-0.4-0.6-1.2-0.7-1.9-1c-0.7-0.3-1.5-0.7-2.2-1
			C247.9,164.2,249.9,163.6,250.6,162.5z"/>
		<path d="M245.1,209.8c0.9,0.4,1.8,0.8,2.7,1.2c0.5,0.2,1.1,0.5,1.6,0.7c0.1,0.1,0.2,0.1,0.2,0.1c0,0,0,0,0,0.1
			c1,1.7,1.2,4.2,1.8,6.1c0.1,0.4,0.7,0.4,0.8,0c0.6-1.9,0.9-4.4,1.8-6.1c0,0,0,0,0-0.1c0,0,0.1,0,0.1-0.1c0.5-0.3,1.2-0.5,1.7-0.8
			c0.9-0.4,1.8-0.8,2.7-1.2c0.4-0.2,0.2-0.6-0.1-0.7c-0.9-0.4-1.8-0.8-2.7-1.1c-1.1-0.5-1.7-0.5-2-1.5c-0.6-1.9-1.1-3.9-1.6-5.9
			c0,0,0,0,0-0.1c0,0,0,0,0-0.1c-0.1-0.1-0.2-0.2-0.3-0.2c-0.1,0-0.3,0-0.3,0.2c0,0,0,0.1,0,0.1c0,0,0,0,0,0c0,0,0,0,0,0
			c0,0,0,0,0,0c-0.5,1.9-1,3.9-1.5,5.9c-0.5,1.5-3.3,2.1-4.7,2.7C245,209.1,244.8,209.6,245.1,209.8z M250.6,207.3
			c0.6-1,0.7-2.7,1-3.7c0.1-0.5,0.2-0.9,0.4-1.4c0.1,0.5,0.3,0.9,0.4,1.4c0.3,1.1,0.4,2.7,1,3.7c0.6,1.1,2.7,1.7,4.2,2.2
			c-0.7,0.3-1.5,0.7-2.2,1c-0.6,0.3-1.5,0.5-1.9,1c-0.6,0.8-0.7,2.4-1,3.4c-0.2,0.6-0.3,1.1-0.5,1.7c-0.2-0.6-0.3-1.1-0.5-1.7
			c-0.3-0.9-0.4-2.6-1-3.4c-0.4-0.6-1.2-0.7-1.9-1c-0.7-0.3-1.5-0.7-2.2-1C247.9,208.9,249.9,208.3,250.6,207.3z"/>
		<path d="M245.1,254.2c0.9,0.4,1.8,0.8,2.7,1.2c0.5,0.2,1.1,0.5,1.6,0.7c0.1,0.1,0.2,0.1,0.2,0.1c0,0,0,0,0,0.1
			c1,1.7,1.2,4.2,1.8,6.1c0.1,0.4,0.7,0.4,0.8,0c0.6-1.9,0.9-4.4,1.8-6.1c0,0,0,0,0-0.1c0,0,0.1,0,0.1-0.1c0.5-0.3,1.2-0.5,1.7-0.8
			c0.9-0.4,1.8-0.8,2.7-1.2c0.4-0.2,0.2-0.6-0.1-0.7c-0.9-0.4-1.8-0.8-2.7-1.1c-1.1-0.5-1.7-0.5-2-1.5c-0.6-1.9-1.1-3.9-1.6-5.9
			c0,0,0,0,0-0.1c0,0,0,0,0-0.1c-0.1-0.1-0.2-0.2-0.3-0.2c-0.1,0-0.3,0-0.3,0.2c0,0,0,0.1,0,0.1c0,0,0,0,0,0c0,0,0,0,0,0
			c0,0,0,0,0,0c-0.5,1.9-1,3.9-1.5,5.9c-0.5,1.5-3.3,2.1-4.7,2.7C245,253.6,244.8,254,245.1,254.2z M250.6,251.7
			c0.6-1,0.7-2.7,1-3.7c0.1-0.5,0.2-0.9,0.4-1.4c0.1,0.5,0.3,0.9,0.4,1.4c0.3,1.1,0.4,2.7,1,3.7c0.6,1.1,2.7,1.7,4.2,2.2
			c-0.7,0.3-1.5,0.7-2.2,1c-0.6,0.3-1.5,0.5-1.9,1c-0.6,0.8-0.7,2.4-1,3.4c-0.2,0.6-0.3,1.1-0.5,1.7c-0.2-0.6-0.3-1.1-0.5-1.7
			c-0.3-0.9-0.4-2.6-1-3.4c-0.4-0.6-1.2-0.7-1.9-1c-0.7-0.3-1.5-0.7-2.2-1C247.9,253.4,249.9,252.8,250.6,251.7z"/>
		<path d="M258.7,569.3c-0.9-0.4-1.8-0.8-2.7-1.1c-1.1-0.5-1.7-0.5-2-1.5c-0.6-1.9-1.1-3.9-1.6-5.9c0,0,0,0,0-0.1c0,0,0,0,0-0.1
			c-0.1-0.1-0.2-0.2-0.3-0.2c-0.1,0-0.3,0-0.3,0.2c0,0,0,0.1,0,0.1c0,0,0,0,0,0c0,0,0,0,0,0c0,0,0,0,0,0c-0.5,1.9-1,3.9-1.5,5.9
			c-0.5,1.5-3.3,2.1-4.7,2.7c-0.3,0.1-0.5,0.6-0.1,0.7c0.9,0.4,1.8,0.8,2.7,1.2c0.5,0.2,1.1,0.5,1.6,0.7c0.1,0.1,0.2,0.1,0.2,0.1
			c0,0,0,0,0,0.1c1,1.7,1.2,4.2,1.8,6.1c0.1,0.4,0.7,0.4,0.8,0c0.6-1.9,0.9-4.4,1.8-6.1c0,0,0,0,0-0.1c0,0,0.1,0,0.1-0.1
			c0.5-0.3,1.2-0.5,1.7-0.8c0.9-0.4,1.8-0.8,2.7-1.2C259.2,569.9,259,569.4,258.7,569.3z M255.3,570.7c-0.6,0.3-1.5,0.5-1.9,1
			c-0.6,0.8-0.7,2.4-1,3.4c-0.2,0.6-0.3,1.1-0.5,1.7c-0.2-0.6-0.3-1.1-0.5-1.7c-0.3-0.9-0.4-2.6-1-3.4c-0.4-0.6-1.2-0.7-1.9-1
			c-0.7-0.3-1.5-0.7-2.2-1c1.5-0.5,3.5-1.1,4.2-2.2c0.6-1,0.7-2.7,1-3.7c0.1-0.5,0.2-0.9,0.4-1.4c0.1,0.5,0.3,0.9,0.4,1.4
			c0.3,1.1,0.4,2.7,1,3.7c0.6,1.1,2.7,1.7,4.2,2.2C256.8,570,256.1,570.4,255.3,570.7z"/>
		<path d="M91.3,141.5c-2.3,4.1,0.1,9.7,5,11.1c-0.8,2,1,5,2,6.5c-0.5,0.9-1,1.9-0.8,2.7c0.2,0.8,1.5,3,2.3,3.1c0.6,0.1,1.5-0.7,2-1
			c0.3-0.2,0.6-0.4,0.9-0.5c0,0.1,0,0.2,0.1,0.3c13.9,20.4,27.5,41,41.4,61.4c-0.2,0.1-0.3,0.2-0.5,0.3c-0.2,0.1-0.3,0.5-0.1,0.7
			c0.9,1.2,2.5,3,4.2,3.4c0,0.1,0,0.2,0.1,0.3c6.2,9.2,12.2,18.5,18.4,27.6c0,1.4,0.8,3,1.4,4.1c0.1,0.2,0.3,0.3,0.5,0.2
			c0.1,0,0.1,0,0.2-0.1c0.2-0.2,0.5-0.3,0.7-0.5c15,22,30.2,43.9,45.2,65.9c-0.1,0.1-0.2,0.1-0.3,0.2c-0.2,0.2-0.3,0.5-0.1,0.7
			c1.5,2.3,3.1,4.5,4.6,6.8c-0.5,0.3-1,0.7-1.5,1c-0.2,0.2-0.3,0.5-0.1,0.7c1.1,1.6,2.2,3.2,3.3,4.8c0.2,0.2,0.5,0.3,0.7,0.1
			c0.2-0.2,0.5-0.3,0.7-0.5c1.3,1.6,3.7,4.6,6,3.9c0.6-0.2,1.1-0.5,1.7-0.9c0.2,2.8,3.4,4.9,6,3.1c2.6-1.8,1.9-5.5-0.7-6.7
			c0.5-0.3,1-0.7,1.4-1.1c1.7-1.9-0.2-5.3-1.3-7.2c0.2-0.2,0.5-0.3,0.7-0.5c0.2-0.2,0.3-0.5,0.1-0.7c-1.1-1.6-2.2-3.2-3.3-4.8
			c-0.1-0.1-0.2-0.2-0.3-0.2c0,0,0,0,0,0c0,0,0,0,0,0c-0.1,0-0.2,0-0.3,0.1c-0.5,0.3-1,0.7-1.5,1c-1.5-2.3-3.1-4.5-4.6-6.8
			c-0.1-0.1-0.2-0.2-0.3-0.2c0,0,0,0,0,0c0,0,0,0,0,0c-0.1,0-0.2,0-0.3,0.1c-0.1,0.1-0.2,0.1-0.3,0.2c-15-22-29.7-44.2-44.7-66.2
			c0.2-0.1,0.4-0.3,0.7-0.4c0.2-0.1,0.3-0.5,0.1-0.7c-0.8-1-1.9-2.2-3.2-2.8c0,0,0,0,0-0.1c-6.2-9.2-12.7-18.2-18.9-27.3
			c-0.1-0.1-0.2-0.2-0.4-0.2c0.2-1.7-0.9-3.8-1.6-5.1c-0.1-0.2-0.3-0.3-0.5-0.2c-0.1,0-0.2,0-0.2,0.1c-0.2,0.1-0.3,0.2-0.5,0.3
			c-14-20.5-28.1-40.8-42.1-61.3c1.3-0.9,2.5-2,1.9-3.4c-1-2.1-2.1-2.3-4.1-2.2c-0.1,0-0.2,0-0.3,0c0,0,0,0,0,0
			c-1.1-1.4-3.2-4.2-5.4-4.2c0.5-5-3.8-9.3-8.4-8.7c3.1-3.8,3.4-9.3,0.5-13.6c-0.6-0.9-1.3-1.7-2.1-2.3c1.6,4.7-0.1,10.1-4.4,13
			c-4.3,2.9-9.9,2.5-13.7-0.6c0.3,1,0.8,1.9,1.4,2.8C81.4,141.3,86.6,142.9,91.3,141.5z M234.7,346.4c-2.1,1.4-4.7-0.5-4.4-2.9
			c0,0,0-0.1,0-0.1c0.5-0.4,1.1-0.9,1.6-1.2c0.5-0.3,1.1-0.7,1.6-1c0,0,0,0,0,0C235.9,341.7,236.8,344.9,234.7,346.4z M234.8,338.9
			c-1,0.9-2.4,1.6-3.5,2.4c-1.1,0.8-2.2,1.7-3.4,2.3c-2.1,1.1-4.3-1.6-5.5-3.2c3.8-2.6,7.6-5.2,11.4-7.8
			C234.7,334.4,236.5,337.4,234.8,338.9z M231.6,327.2c0.4,0.7,0.9,1.3,1.3,2l-13.7,9.3c-0.4-0.7-0.9-1.3-1.3-2
			C222.5,333.4,227.1,330.3,231.6,327.2z M224.8,321.3c1.4,2,2.8,4.1,4.2,6.1c-3.3,2.3-6.6,4.5-9.9,6.7c-1.4-2-2.8-4.1-4.2-6.1
			C218.2,325.8,221.5,323.5,224.8,321.3z M222.4,319.1l-8.5,5.8c-1.3-1.9-2.6-3.8-3.9-5.7c3.6,1,8.2-2,8.6-5.7
			C219.8,315.3,221.1,317.2,222.4,319.1z M180.2,256.5c12.5,18.3,24.8,36.8,37.2,55.1c1.5,4.3-5.2,8.5-8.6,5.8
			c-12.5-18.3-25.1-36.5-37.6-54.8L180.2,256.5z M179.4,253.1c-3.7,2.5-7.4,5-11.1,7.6c-0.9-1.6-1.6-3.6,0-4.9
			c1-0.8,2.2-1.5,3.3-2.2c1.1-0.7,2.1-1.5,3.2-2.2C176.5,250.3,178.1,251.7,179.4,253.1z M157.7,223.5c6,8.8,12.2,17.5,18.2,26.3
			c-0.3,0-0.7,0.1-1,0.2c-1.4,0.6-2.7,1.8-3.9,2.6c-1.2,0.8-2.7,1.6-3.9,2.6c-0.3,0.2-0.5,0.5-0.6,0.8c-6-8.8-11.7-17.7-17.7-26.5
			c0.1,0,0.3-0.1,0.4-0.1c1.4-0.5,2.8-1.9,4.1-2.7c1.2-0.8,2.8-1.6,3.9-2.7C157.4,223.9,157.5,223.7,157.7,223.5z M155.8,218.4
			c0.9,1.7,1.9,4,0.2,5.3c-1,0.8-2.2,1.5-3.3,2.2c-1.1,0.7-2.1,1.6-3.3,2.2c-1.9,1.1-3.6-0.7-4.8-2.2
			C148.4,223.5,152.1,221,155.8,218.4z M118.6,166.2c11.5,16.8,23,33.4,34.5,50.2l-9.4,6.4c-11.4-16.8-22.7-33.7-34.1-50.6
			C107.9,167.3,114.8,162.9,118.6,166.2C118.6,166.2,118.6,166.2,118.6,166.2z M113.5,158.8c1.3,1.8,2.5,3.7,3.8,5.5
			c-3.9-1.3-8.7,1.9-9,5.9c-1.2-1.8-2.4-3.6-3.7-5.4L113.5,158.8z M111.4,151.7c1,0,1.1-0.1,1.8,0.6c0.6,0.6,1.1,1.1,0.7,1.8
			c-0.6,1-2.3,1.9-3.3,2.6c-1.5,1.1-3,2.1-4.5,3.1c-1.4,0.9-2.8,1.9-4.2,2.8c-0.5,0.3-1,0.6-1.5,0.9c-0.3,0.2-0.7,0.2-0.6,0.3
			c-0.5-0.3-1.3-1.9-1.4-2.3c0,0,0,0,0-0.1c0,0,0,0,0-0.1c0-0.3,0.2-0.6,0.4-0.9c1.1-2.6,2.5-5.2,4.7-6.8
			C105.9,152.2,108.7,151.8,111.4,151.7z M109.4,150.8c-2.2,0.2-4.5,0.8-6.4,1.9c-1.8,1.4-3.1,3.2-4.2,5.2c-1-1.7-2.4-4.3-0.9-5.7
			c0.9-0.9,2.2-1.5,3.2-2.2c1-0.7,2.1-1.6,3.2-2.2C106.2,146.9,108.2,149.3,109.4,150.8z M93.1,140.7c0.4-0.2,0.8-0.5,1.2-0.7
			c0.4-0.3,0.7-0.5,1.1-0.8c4.6-1.9,9.5,2.5,8.8,7.5c0,0,0,0,0,0c-1.3,0.5-2.6,1.8-3.6,2.5c-1.1,0.7-2.7,1.5-3.7,2.5
			c0,0-0.1-0.1-0.2-0.1C91.8,150.4,89.7,144.3,93.1,140.7z"/>
		<path d="M116.4,174.6c-0.2,0.8-1.4,1.7-1.2,2.1c0.2,0.3,1.6-0.4,2.4-0.2c0.8,0.2,2.3,2,2.6,1.8c0.3-0.2-0.7-2.3-0.6-3
			s1.3-1.8,1.2-2.1c-0.2-0.3-1.7,0.4-2.4,0.2c-0.7-0.1-2.3-2-2.6-1.8C115.6,171.7,116.6,173.8,116.4,174.6z"/>
		<path d="M120.9,184.9c0.2,0.3,1.6-0.4,2.4-0.2c0.8,0.2,2.3,2,2.6,1.8c0.3-0.2-0.7-2.3-0.6-3c0.2-0.7,1.3-1.8,1.2-2.1
			c-0.2-0.3-1.7,0.4-2.4,0.2c-0.7-0.1-2.3-2-2.6-1.8c-0.3,0.2,0.7,2.2,0.6,3C121.9,183.7,120.6,184.6,120.9,184.9z"/>
		<path d="M200.2,301.5c0.2,0.3,1.6-0.4,2.4-0.2c0.8,0.2,2.3,2,2.6,1.8c0.3-0.2-0.7-2.3-0.6-3c0.2-0.7,1.3-1.8,1.2-2.1
			c-0.2-0.3-1.7,0.4-2.4,0.2c-0.7-0.1-2.3-2-2.6-1.8c-0.3,0.2,0.7,2.2,0.6,3C201.2,300.3,200,301.2,200.2,301.5z"/>
		<path d="M205.8,309.8c0.2,0.3,1.6-0.4,2.4-0.2c0.8,0.2,2.3,2,2.6,1.8c0.3-0.2-0.7-2.3-0.6-3c0.2-0.7,1.3-1.8,1.2-2.1
			c-0.2-0.3-1.7,0.4-2.4,0.2c-0.7-0.1-2.3-2-2.6-1.8c-0.3,0.2,0.7,2.2,0.6,3C206.8,308.5,205.6,309.5,205.8,309.8z"/>
		<path d="M166.9,246.7c0.9-0.6,1.2-1.5,0.2-3.1c-1-1.5-9.7-10.9-9.7-10.9s5.6,11.5,6.6,13C165,247.3,166,247.3,166.9,246.7z"/>
		<polygon points="96.9,146.2 96.9,148.6 97.8,146.4 100.3,148.9 98.9,145.6 101.3,145.6 99.1,144.7 101.7,142.1 98.3,143.5 
			98.3,141.1 97.4,143.3 94.8,140.8 96.2,144.1 93.9,144.1 96.1,145 93.5,147.6 		"/>
		<path d="M91.3,237c-2.3,4.1,0.1,9.7,5,11.1c-0.8,2,1,5,2,6.5c-0.5,0.9-1,1.9-0.8,2.7c0.2,0.8,1.5,3,2.3,3.1c0.6,0.1,1.5-0.7,2-1
			c0.3-0.2,0.6-0.4,0.9-0.5c0,0.1,0,0.2,0.1,0.3c13.9,20.4,27.5,41,41.4,61.4c-0.2,0.1-0.3,0.2-0.5,0.3c-0.2,0.1-0.3,0.5-0.1,0.7
			c0.9,1.2,2.5,3,4.2,3.4c0,0.1,0,0.2,0.1,0.3c6.2,9.2,12.2,18.5,18.4,27.6c0,1.4,0.8,3,1.4,4.1c0.1,0.2,0.3,0.3,0.5,0.2
			c0.1,0,0.1,0,0.2-0.1c0.2-0.2,0.5-0.3,0.7-0.5c15,22,30.2,43.9,45.2,65.9c-0.1,0.1-0.2,0.1-0.3,0.2c-0.2,0.2-0.3,0.5-0.1,0.7
			c1.5,2.3,3.1,4.5,4.6,6.8c-0.5,0.3-1,0.7-1.5,1c-0.2,0.2-0.3,0.5-0.1,0.7c1.1,1.6,2.2,3.2,3.3,4.8c0.2,0.2,0.5,0.3,0.7,0.1
			c0.2-0.2,0.5-0.3,0.7-0.5c1.3,1.6,3.7,4.6,6,3.9c0.6-0.2,1.1-0.5,1.7-0.9c0.2,2.8,3.4,4.9,6,3.1c2.6-1.8,1.9-5.5-0.7-6.7
			c0.5-0.3,1-0.7,1.4-1.1c1.7-1.9-0.2-5.3-1.3-7.2c0.2-0.2,0.5-0.3,0.7-0.5c0.2-0.2,0.3-0.5,0.1-0.7c-1.1-1.6-2.2-3.2-3.3-4.8
			c-0.1-0.1-0.2-0.2-0.3-0.2c0,0,0,0,0,0c0,0,0,0,0,0c-0.1,0-0.2,0-0.3,0.1c-0.5,0.3-1,0.7-1.5,1c-1.5-2.3-3.1-4.5-4.6-6.8
			c-0.1-0.1-0.2-0.2-0.3-0.2c0,0,0,0,0,0c0,0,0,0,0,0c-0.1,0-0.2,0-0.3,0.1c-0.1,0.1-0.2,0.1-0.3,0.2c-15-22-29.7-44.2-44.7-66.2
			c0.2-0.1,0.4-0.3,0.7-0.4c0.2-0.1,0.3-0.5,0.1-0.7c-0.8-1-1.9-2.2-3.2-2.8c0,0,0,0,0-0.1c-6.2-9.2-12.7-18.2-18.9-27.3
			c-0.1-0.1-0.2-0.2-0.4-0.2c0.2-1.7-0.9-3.8-1.6-5.1c-0.1-0.2-0.3-0.3-0.5-0.2c-0.1,0-0.2,0-0.2,0.1c-0.2,0.1-0.3,0.2-0.5,0.3
			c-14-20.5-28.1-40.8-42.1-61.3c1.3-0.9,2.5-2,1.9-3.4c-1-2.1-2.1-2.3-4.1-2.2c-0.1,0-0.2,0-0.3,0c0,0,0,0,0,0
			c-1.1-1.4-3.2-4.2-5.4-4.2c0.5-5-3.8-9.3-8.4-8.7c3.1-3.8,3.4-9.3,0.5-13.6c-0.6-0.9-1.3-1.7-2.1-2.3c1.6,4.7-0.1,10.1-4.4,13
			c-4.3,2.9-9.9,2.5-13.7-0.6c0.3,1,0.8,1.9,1.4,2.8C81.4,236.8,86.6,238.5,91.3,237z M234.7,441.9c-2.1,1.4-4.7-0.5-4.4-2.9
			c0,0,0-0.1,0-0.1c0.5-0.4,1.1-0.9,1.6-1.2c0.5-0.3,1.1-0.7,1.6-1c0,0,0,0,0,0C235.9,437.3,236.8,440.4,234.7,441.9z M234.8,434.5
			c-1,0.9-2.4,1.6-3.5,2.4c-1.1,0.8-2.2,1.7-3.4,2.3c-2.1,1.1-4.3-1.6-5.5-3.2c3.8-2.6,7.6-5.2,11.4-7.8
			C234.7,429.9,236.5,432.9,234.8,434.5z M231.6,422.7c0.4,0.7,0.9,1.3,1.3,2l-13.7,9.3c-0.4-0.7-0.9-1.3-1.3-2
			C222.5,428.9,227.1,425.8,231.6,422.7z M224.8,416.8c1.4,2,2.8,4.1,4.2,6.1c-3.3,2.3-6.6,4.5-9.9,6.8c-1.4-2-2.8-4.1-4.2-6.1
			C218.2,421.3,221.5,419,224.8,416.8z M222.4,414.6l-8.5,5.8c-1.3-1.9-2.6-3.8-3.9-5.7c3.6,1,8.2-2,8.6-5.7
			C219.8,410.8,221.1,412.7,222.4,414.6z M180.2,352.1c12.5,18.3,24.8,36.8,37.2,55.1c1.5,4.3-5.2,8.5-8.6,5.8
			c-12.5-18.3-25.1-36.5-37.6-54.8L180.2,352.1z M179.4,348.6c-3.7,2.5-7.4,5-11.1,7.6c-0.9-1.6-1.6-3.6,0-4.9
			c1-0.8,2.2-1.5,3.3-2.2c1.1-0.7,2.1-1.5,3.2-2.2C176.5,345.8,178.1,347.2,179.4,348.6z M157.7,319.1c6,8.8,12.2,17.5,18.2,26.3
			c-0.3,0-0.7,0.1-1,0.2c-1.4,0.6-2.7,1.8-3.9,2.6c-1.2,0.8-2.7,1.6-3.9,2.6c-0.3,0.2-0.5,0.5-0.6,0.8c-6-8.8-11.7-17.7-17.7-26.5
			c0.1,0,0.3-0.1,0.4-0.1c1.4-0.5,2.8-1.9,4.1-2.7c1.2-0.8,2.8-1.6,3.9-2.7C157.4,319.5,157.5,319.3,157.7,319.1z M155.8,314
			c0.9,1.7,1.9,4,0.2,5.3c-1,0.8-2.2,1.5-3.3,2.2c-1.1,0.7-2.1,1.6-3.3,2.2c-1.9,1.1-3.6-0.7-4.8-2.2
			C148.4,319,152.1,316.5,155.8,314z M118.6,261.7c11.5,16.8,23,33.4,34.5,50.2l-9.4,6.4c-11.4-16.8-22.7-33.7-34.1-50.6
			C107.9,262.8,114.8,258.4,118.6,261.7C118.6,261.7,118.6,261.7,118.6,261.7z M113.5,254.3c1.3,1.8,2.5,3.7,3.8,5.5
			c-3.9-1.3-8.7,1.9-9,5.9c-1.2-1.8-2.4-3.6-3.7-5.4L113.5,254.3z M111.4,247.3c1,0,1.1-0.1,1.8,0.6c0.6,0.6,1.1,1.1,0.7,1.8
			c-0.6,1-2.3,1.9-3.3,2.6c-1.5,1.1-3,2.1-4.5,3.1c-1.4,0.9-2.8,1.9-4.2,2.8c-0.5,0.3-1,0.6-1.5,0.9c-0.3,0.2-0.7,0.2-0.6,0.3
			c-0.5-0.3-1.3-1.9-1.4-2.3c0,0,0,0,0-0.1c0,0,0,0,0-0.1c0-0.3,0.2-0.6,0.4-0.9c1.1-2.6,2.5-5.2,4.7-6.8
			C105.9,247.7,108.7,247.3,111.4,247.3z M109.4,246.4c-2.2,0.2-4.5,0.8-6.4,1.9c-1.8,1.4-3.1,3.2-4.2,5.2c-1-1.7-2.4-4.3-0.9-5.7
			c0.9-0.9,2.2-1.5,3.2-2.2c1-0.7,2.1-1.6,3.2-2.2C106.2,242.5,108.2,244.9,109.4,246.4z M93.1,236.3c0.4-0.2,0.8-0.5,1.2-0.7
			c0.4-0.3,0.7-0.5,1.1-0.8c4.6-1.9,9.5,2.5,8.8,7.5c0,0,0,0,0,0c-1.3,0.5-2.6,1.8-3.6,2.5c-1.1,0.7-2.7,1.5-3.7,2.5
			c0,0-0.1-0.1-0.2-0.1C91.8,245.9,89.7,239.8,93.1,236.3z"/>
		<path d="M116.4,270.1c-0.2,0.8-1.4,1.7-1.2,2.1c0.2,0.3,1.6-0.4,2.4-0.2c0.8,0.2,2.3,2,2.6,1.8c0.3-0.2-0.7-2.3-0.6-3
			c0.2-0.7,1.3-1.8,1.2-2.1c-0.2-0.3-1.7,0.4-2.4,0.2c-0.7-0.1-2.3-2-2.6-1.8C115.6,267.3,116.6,269.3,116.4,270.1z"/>
		<path d="M120.9,280.4c0.2,0.3,1.6-0.4,2.4-0.2s2.3,2,2.6,1.8c0.3-0.2-0.7-2.3-0.6-3c0.2-0.7,1.3-1.8,1.2-2.1
			c-0.2-0.3-1.7,0.4-2.4,0.2c-0.7-0.1-2.3-2-2.6-1.8c-0.3,0.2,0.7,2.2,0.6,3C121.9,279.2,120.6,280.1,120.9,280.4z"/>
		<path d="M200.2,397.1c0.2,0.3,1.6-0.4,2.4-0.2c0.8,0.2,2.3,2,2.6,1.8c0.3-0.2-0.7-2.3-0.6-3c0.2-0.7,1.3-1.8,1.2-2.1
			c-0.2-0.3-1.7,0.4-2.4,0.2c-0.7-0.1-2.3-2-2.6-1.8c-0.3,0.2,0.7,2.2,0.6,3C201.2,395.8,200,396.8,200.2,397.1z"/>
		<path d="M205.8,405.3c0.2,0.3,1.6-0.4,2.4-0.2c0.8,0.2,2.3,2,2.6,1.8c0.3-0.2-0.7-2.3-0.6-3c0.2-0.7,1.3-1.8,1.2-2.1
			s-1.7,0.4-2.4,0.2c-0.7-0.1-2.3-2-2.6-1.8c-0.3,0.2,0.7,2.2,0.6,3C206.8,404.1,205.6,405,205.8,405.3z"/>
		<path d="M166.9,342.3c0.9-0.6,1.2-1.5,0.2-3.1c-1-1.5-9.7-10.9-9.7-10.9s5.6,11.5,6.6,13C165,342.8,166,342.9,166.9,342.3z"/>
		<polygon points="96.9,241.7 96.9,244.1 97.8,241.9 100.3,244.4 98.9,241.1 101.3,241.1 99.1,240.2 101.7,237.6 98.3,239 
			98.3,236.7 97.4,238.9 94.8,236.3 96.2,239.6 93.9,239.7 96.1,240.5 93.5,243.1 		"/>
		<path d="M91.3,332.6c-2.3,4.1,0.1,9.7,5,11.1c-0.8,2,1,5,2,6.5c-0.5,0.9-1,1.9-0.8,2.7c0.2,0.8,1.5,3,2.3,3.1c0.6,0.1,1.5-0.7,2-1
			c0.3-0.2,0.6-0.4,0.9-0.5c0,0.1,0,0.2,0.1,0.3c13.9,20.4,27.5,41,41.4,61.4c-0.2,0.1-0.3,0.2-0.5,0.3c-0.2,0.1-0.3,0.5-0.1,0.7
			c0.9,1.2,2.5,3,4.2,3.4c0,0.1,0,0.2,0.1,0.3c6.2,9.2,12.2,18.5,18.4,27.6c0,1.4,0.8,3,1.4,4.1c0.1,0.2,0.3,0.3,0.5,0.2
			c0.1,0,0.1,0,0.2-0.1c0.2-0.2,0.5-0.3,0.7-0.5c15,22,30.2,43.9,45.2,65.9c-0.1,0.1-0.2,0.1-0.3,0.2c-0.2,0.2-0.3,0.5-0.1,0.7
			c1.5,2.3,3.1,4.5,4.6,6.8c-0.5,0.3-1,0.7-1.5,1c-0.2,0.2-0.3,0.5-0.1,0.7c1.1,1.6,2.2,3.2,3.3,4.8c0.2,0.2,0.5,0.3,0.7,0.1
			c0.2-0.2,0.5-0.3,0.7-0.5c1.3,1.6,3.7,4.6,6,3.9c0.6-0.2,1.1-0.5,1.7-0.9c0.2,2.8,3.4,4.9,6,3.1c2.6-1.8,1.9-5.5-0.7-6.7
			c0.5-0.3,1-0.7,1.4-1.1c1.7-1.9-0.2-5.3-1.3-7.2c0.2-0.2,0.5-0.3,0.7-0.5c0.2-0.2,0.3-0.5,0.1-0.7c-1.1-1.6-2.2-3.2-3.3-4.8
			c-0.1-0.1-0.2-0.2-0.3-0.2c0,0,0,0,0,0c0,0,0,0,0,0c-0.1,0-0.2,0-0.3,0.1c-0.5,0.3-1,0.7-1.5,1c-1.5-2.3-3.1-4.5-4.6-6.8
			c-0.1-0.1-0.2-0.2-0.3-0.2c0,0,0,0,0,0c0,0,0,0,0,0c-0.1,0-0.2,0-0.3,0.1c-0.1,0.1-0.2,0.1-0.3,0.2c-15-22-29.7-44.2-44.7-66.2
			c0.2-0.1,0.4-0.3,0.7-0.4c0.2-0.1,0.3-0.5,0.1-0.7c-0.8-1-1.9-2.2-3.2-2.8c0,0,0,0,0-0.1c-6.2-9.2-12.7-18.2-18.9-27.3
			c-0.1-0.1-0.2-0.2-0.4-0.2c0.2-1.7-0.9-3.8-1.6-5.1c-0.1-0.2-0.3-0.3-0.5-0.2c-0.1,0-0.2,0-0.2,0.1c-0.2,0.1-0.3,0.2-0.5,0.3
			c-14-20.5-28.1-40.8-42.1-61.3c1.3-0.9,2.5-2,1.9-3.4c-1-2.1-2.1-2.3-4.1-2.2c-0.1,0-0.2,0-0.3,0c0,0,0,0,0,0
			c-1.1-1.4-3.2-4.2-5.4-4.2c0.5-5-3.8-9.3-8.4-8.7c3.1-3.8,3.4-9.3,0.5-13.6c-0.6-0.9-1.3-1.7-2.1-2.3c1.6,4.7-0.1,10.1-4.4,13
			c-4.3,2.9-9.9,2.5-13.7-0.6c0.3,1,0.8,1.9,1.4,2.8C81.4,332.3,86.6,334,91.3,332.6z M234.7,537.4c-2.1,1.4-4.7-0.5-4.4-2.9
			c0,0,0-0.1,0-0.1c0.5-0.4,1.1-0.9,1.6-1.2c0.5-0.3,1.1-0.7,1.6-1c0,0,0,0,0,0C235.9,532.8,236.8,535.9,234.7,537.4z M234.8,530
			c-1,0.9-2.4,1.6-3.5,2.4c-1.1,0.8-2.2,1.7-3.4,2.3c-2.1,1.1-4.3-1.6-5.5-3.2c3.8-2.6,7.6-5.2,11.4-7.8
			C234.7,525.5,236.5,528.4,234.8,530z M231.6,518.2c0.4,0.7,0.9,1.3,1.3,2l-13.7,9.3c-0.4-0.7-0.9-1.3-1.3-2
			C222.5,524.4,227.1,521.3,231.6,518.2z M224.8,512.3c1.4,2,2.8,4.1,4.2,6.1c-3.3,2.3-6.6,4.5-9.9,6.7c-1.4-2-2.8-4.1-4.2-6.1
			C218.2,516.8,221.5,514.5,224.8,512.3z M222.4,510.1l-8.5,5.8c-1.3-1.9-2.6-3.8-3.9-5.7c3.6,1,8.2-2,8.6-5.7
			C219.8,506.4,221.1,508.2,222.4,510.1z M180.2,447.6c12.5,18.3,24.8,36.8,37.2,55.1c1.5,4.3-5.2,8.5-8.6,5.8
			c-12.5-18.3-25.1-36.5-37.6-54.8L180.2,447.6z M179.4,444.2c-3.7,2.5-7.4,5-11.1,7.6c-0.9-1.6-1.6-3.6,0-4.9
			c1-0.8,2.2-1.5,3.3-2.2c1.1-0.7,2.1-1.5,3.2-2.2C176.5,441.3,178.1,442.7,179.4,444.2z M157.7,414.6c6,8.8,12.2,17.5,18.2,26.3
			c-0.3,0-0.7,0.1-1,0.2c-1.4,0.6-2.7,1.8-3.9,2.6c-1.2,0.8-2.7,1.6-3.9,2.6c-0.3,0.2-0.5,0.5-0.6,0.8c-6-8.8-11.7-17.7-17.7-26.5
			c0.1,0,0.3-0.1,0.4-0.1c1.4-0.5,2.8-1.9,4.1-2.7c1.2-0.8,2.8-1.6,3.9-2.7C157.4,415,157.5,414.8,157.7,414.6z M155.8,409.5
			c0.9,1.7,1.9,4,0.2,5.3c-1,0.8-2.2,1.5-3.3,2.2c-1.1,0.7-2.1,1.6-3.3,2.2c-1.9,1.1-3.6-0.7-4.8-2.2
			C148.4,414.5,152.1,412,155.8,409.5z M118.6,357.2c11.5,16.8,23,33.4,34.5,50.2l-9.4,6.4c-11.4-16.8-22.7-33.7-34.1-50.6
			C107.9,358.3,114.8,353.9,118.6,357.2C118.6,357.2,118.6,357.2,118.6,357.2z M113.5,349.8c1.3,1.8,2.5,3.7,3.8,5.5
			c-3.9-1.3-8.7,1.9-9,5.9c-1.2-1.8-2.4-3.6-3.7-5.4L113.5,349.8z M111.4,342.8c1,0,1.1-0.1,1.8,0.6c0.6,0.6,1.1,1.1,0.7,1.8
			c-0.6,1-2.3,1.9-3.3,2.6c-1.5,1.1-3,2.1-4.5,3.1c-1.4,0.9-2.8,1.9-4.2,2.8c-0.5,0.3-1,0.6-1.5,0.9c-0.3,0.2-0.7,0.2-0.6,0.3
			c-0.5-0.3-1.3-1.9-1.4-2.3c0,0,0-0.1,0-0.1c0,0,0,0,0-0.1c0-0.3,0.2-0.6,0.4-0.9c1.1-2.6,2.5-5.2,4.7-6.8
			C105.9,343.2,108.7,342.8,111.4,342.8z M109.4,341.9c-2.2,0.2-4.5,0.8-6.4,1.9c-1.8,1.4-3.1,3.2-4.2,5.2c-1-1.7-2.4-4.3-0.9-5.7
			c0.9-0.9,2.2-1.5,3.2-2.2c1-0.7,2.1-1.6,3.2-2.2C106.2,338,108.2,340.4,109.4,341.9z M93.1,331.8c0.4-0.2,0.8-0.5,1.2-0.7
			c0.4-0.3,0.7-0.5,1.1-0.8c4.6-1.9,9.5,2.5,8.8,7.5c0,0,0,0,0,0c-1.3,0.5-2.6,1.8-3.6,2.5c-1.1,0.7-2.7,1.5-3.7,2.5
			c0,0-0.1-0.1-0.2-0.1C91.8,341.4,89.7,335.3,93.1,331.8z"/>
		<path d="M116.4,365.7c-0.2,0.8-1.4,1.7-1.2,2.1c0.2,0.3,1.6-0.4,2.4-0.2c0.8,0.2,2.3,2,2.6,1.8c0.3-0.2-0.7-2.3-0.6-3
			s1.3-1.8,1.2-2.1s-1.7,0.4-2.4,0.2c-0.7-0.1-2.3-2-2.6-1.8C115.6,362.8,116.6,364.8,116.4,365.7z"/>
		<path d="M120.9,375.9c0.2,0.3,1.6-0.4,2.4-0.2c0.8,0.2,2.3,2,2.6,1.8c0.3-0.2-0.7-2.3-0.6-3c0.2-0.7,1.3-1.8,1.2-2.1
			c-0.2-0.3-1.7,0.4-2.4,0.2c-0.7-0.1-2.3-2-2.6-1.8c-0.3,0.2,0.7,2.2,0.6,3C121.9,374.7,120.6,375.6,120.9,375.9z"/>
		<path d="M200.2,492.6c0.2,0.3,1.6-0.4,2.4-0.2s2.3,2,2.6,1.8c0.3-0.2-0.7-2.3-0.6-3c0.2-0.7,1.3-1.8,1.2-2.1
			c-0.2-0.3-1.7,0.4-2.4,0.2c-0.7-0.1-2.3-2-2.6-1.8c-0.3,0.2,0.7,2.2,0.6,3C201.2,491.4,200,492.3,200.2,492.6z"/>
		<path d="M205.8,500.8c0.2,0.3,1.6-0.4,2.4-0.2c0.8,0.2,2.3,2,2.6,1.8c0.3-0.2-0.7-2.3-0.6-3c0.2-0.7,1.3-1.8,1.2-2.1
			c-0.2-0.3-1.7,0.4-2.4,0.2c-0.7-0.1-2.3-2-2.6-1.8c-0.3,0.2,0.7,2.2,0.6,3S205.6,500.5,205.8,500.8z"/>
		<path d="M166.9,437.8c0.9-0.6,1.2-1.5,0.2-3.1s-9.7-10.9-9.7-10.9s5.6,11.5,6.6,13C165,438.4,166,438.4,166.9,437.8z"/>
		<polygon points="96.9,337.2 96.9,339.6 97.8,337.4 100.3,340 98.9,336.6 101.3,336.6 99.1,335.7 101.7,333.1 98.3,334.5 
			98.3,332.2 97.4,334.4 94.8,331.8 96.2,335.2 93.9,335.2 96.1,336.1 93.5,338.7 		"/>
		<path d="M91.3,428.1c-2.3,4.1,0.1,9.7,5,11.1c-0.8,2,1,5,2,6.5c-0.5,0.9-1,1.9-0.8,2.7c0.2,0.8,1.5,3,2.3,3.1c0.6,0.1,1.5-0.7,2-1
			c0.3-0.2,0.6-0.4,0.9-0.5c0,0.1,0,0.2,0.1,0.3c13.9,20.4,27.5,41,41.4,61.4c-0.2,0.1-0.3,0.2-0.5,0.3c-0.2,0.1-0.3,0.5-0.1,0.7
			c0.9,1.2,2.5,3,4.2,3.4c0,0.1,0,0.2,0.1,0.3c6.2,9.2,12.2,18.5,18.4,27.6c0,1.4,0.8,3,1.4,4.1c0.1,0.2,0.3,0.3,0.5,0.2
			c0.1,0,0.1,0,0.2-0.1c0.2-0.2,0.5-0.3,0.7-0.5c15,22,30.2,43.9,45.2,65.9c-0.1,0.1-0.2,0.1-0.3,0.2c-0.2,0.2-0.3,0.5-0.1,0.7
			c1.5,2.3,3.1,4.5,4.6,6.8c-0.5,0.3-1,0.7-1.5,1c-0.2,0.2-0.3,0.5-0.1,0.7c1.1,1.6,2.2,3.2,3.3,4.8c0.2,0.2,0.5,0.3,0.7,0.1
			c0.2-0.2,0.5-0.3,0.7-0.5c1.3,1.6,3.7,4.6,6,3.9c0.6-0.2,1.1-0.5,1.7-0.9c0.2,2.8,3.4,4.9,6,3.1c2.6-1.8,1.9-5.5-0.7-6.7
			c0.5-0.3,1-0.7,1.4-1.1c1.7-1.9-0.2-5.3-1.3-7.2c0.2-0.2,0.5-0.3,0.7-0.5c0.2-0.2,0.3-0.5,0.1-0.7c-1.1-1.6-2.2-3.2-3.3-4.8
			c-0.1-0.1-0.2-0.2-0.3-0.2c0,0,0,0,0,0c0,0,0,0,0,0c-0.1,0-0.2,0-0.3,0.1c-0.5,0.3-1,0.7-1.5,1c-1.5-2.3-3.1-4.5-4.6-6.8
			c-0.1-0.1-0.2-0.2-0.3-0.2c0,0,0,0,0,0c0,0,0,0,0,0c-0.1,0-0.2,0-0.3,0.1c-0.1,0.1-0.2,0.1-0.3,0.2c-15-22-29.7-44.2-44.7-66.2
			c0.2-0.1,0.4-0.3,0.7-0.4c0.2-0.1,0.3-0.5,0.1-0.7c-0.8-1-1.9-2.2-3.2-2.8c0,0,0,0,0-0.1c-6.2-9.2-12.7-18.2-18.9-27.3
			c-0.1-0.1-0.2-0.2-0.4-0.2c0.2-1.7-0.9-3.8-1.6-5.1c-0.1-0.2-0.3-0.3-0.5-0.2c-0.1,0-0.2,0-0.2,0.1c-0.2,0.1-0.3,0.2-0.5,0.3
			c-14-20.5-28.1-40.8-42.1-61.3c1.3-0.9,2.5-2,1.9-3.4c-1-2.1-2.1-2.3-4.1-2.2c-0.1,0-0.2,0-0.3,0c0,0,0,0,0,0
			c-1.1-1.4-3.2-4.2-5.4-4.2c0.5-5-3.8-9.3-8.4-8.7c3.1-3.8,3.4-9.3,0.5-13.6c-0.6-0.9-1.3-1.7-2.1-2.3c1.6,4.7-0.1,10.1-4.4,13
			c-4.3,2.9-9.9,2.5-13.7-0.6c0.3,1,0.8,1.9,1.4,2.8C81.4,427.9,86.6,429.5,91.3,428.1z M234.7,632.9c-2.1,1.4-4.7-0.5-4.4-2.9
			c0,0,0-0.1,0-0.1c0.5-0.4,1.1-0.9,1.6-1.2c0.5-0.3,1.1-0.7,1.6-1c0,0,0,0,0,0C235.9,628.3,236.8,631.5,234.7,632.9z M234.8,625.5
			c-1,0.9-2.4,1.6-3.5,2.4c-1.1,0.8-2.2,1.7-3.4,2.3c-2.1,1.1-4.3-1.6-5.5-3.2c3.8-2.6,7.6-5.2,11.4-7.8
			C234.7,621,236.5,624,234.8,625.5z M231.6,613.8c0.4,0.7,0.9,1.3,1.3,2l-13.7,9.3c-0.4-0.7-0.9-1.3-1.3-2
			C222.5,620,227.1,616.9,231.6,613.8z M224.8,607.8c1.4,2,2.8,4.1,4.2,6.1c-3.3,2.3-6.6,4.5-9.9,6.8c-1.4-2-2.8-4.1-4.2-6.1
			C218.2,612.3,221.5,610.1,224.8,607.8z M222.4,605.6l-8.5,5.8c-1.3-1.9-2.6-3.8-3.9-5.7c3.6,1,8.2-2,8.6-5.7
			C219.8,601.9,221.1,603.8,222.4,605.6z M180.2,543.1c12.5,18.3,24.8,36.8,37.2,55.1c1.5,4.3-5.2,8.5-8.6,5.8
			c-12.5-18.3-25.1-36.5-37.6-54.8L180.2,543.1z M179.4,539.7c-3.7,2.5-7.4,5-11.1,7.6c-0.9-1.6-1.6-3.6,0-4.9
			c1-0.8,2.2-1.5,3.3-2.2c1.1-0.7,2.1-1.5,3.2-2.2C176.5,536.9,178.1,538.2,179.4,539.7z M157.7,510.1c6,8.8,12.2,17.5,18.2,26.3
			c-0.3,0-0.7,0.1-1,0.2c-1.4,0.6-2.7,1.8-3.9,2.6c-1.2,0.8-2.7,1.6-3.9,2.6c-0.3,0.2-0.5,0.5-0.6,0.8c-6-8.8-11.7-17.7-17.7-26.5
			c0.1,0,0.3-0.1,0.4-0.1c1.4-0.5,2.8-1.9,4.1-2.7c1.2-0.8,2.8-1.6,3.9-2.7C157.4,510.5,157.5,510.3,157.7,510.1z M155.8,505
			c0.9,1.7,1.9,4,0.2,5.3c-1,0.8-2.2,1.5-3.3,2.2c-1.1,0.7-2.1,1.6-3.3,2.2c-1.9,1.1-3.6-0.7-4.8-2.2
			C148.4,510.1,152.1,507.5,155.8,505z M118.6,452.8c11.5,16.8,23,33.4,34.5,50.2l-9.4,6.4c-11.4-16.8-22.7-33.7-34.1-50.6
			C107.9,453.8,114.8,449.4,118.6,452.8C118.6,452.7,118.6,452.8,118.6,452.8z M113.5,445.3c1.3,1.8,2.5,3.7,3.8,5.5
			c-3.9-1.3-8.7,1.9-9,5.9c-1.2-1.8-2.4-3.6-3.7-5.4L113.5,445.3z M111.4,438.3c1,0,1.1-0.1,1.8,0.6c0.6,0.6,1.1,1.1,0.7,1.8
			c-0.6,1-2.3,1.9-3.3,2.6c-1.5,1.1-3,2.1-4.5,3.1c-1.4,0.9-2.8,1.9-4.2,2.8c-0.5,0.3-1,0.6-1.5,0.9c-0.3,0.2-0.7,0.2-0.6,0.3
			c-0.5-0.3-1.3-1.9-1.4-2.3c0,0,0,0,0-0.1c0,0,0,0,0-0.1c0-0.3,0.2-0.6,0.4-0.9c1.1-2.6,2.5-5.2,4.7-6.8
			C105.9,438.8,108.7,438.4,111.4,438.3z M109.4,437.4c-2.2,0.2-4.5,0.8-6.4,1.9c-1.8,1.4-3.1,3.2-4.2,5.2c-1-1.7-2.4-4.3-0.9-5.7
			c0.9-0.9,2.2-1.5,3.2-2.2c1-0.7,2.1-1.6,3.2-2.2C106.2,433.5,108.2,435.9,109.4,437.4z M93.1,427.3c0.4-0.2,0.8-0.5,1.2-0.7
			c0.4-0.3,0.7-0.5,1.1-0.8c4.6-1.9,9.5,2.5,8.8,7.5c0,0,0,0,0,0c-1.3,0.5-2.6,1.8-3.6,2.5c-1.1,0.7-2.7,1.5-3.7,2.5
			c0,0-0.1-0.1-0.2-0.1C91.8,437,89.7,430.9,93.1,427.3z"/>
		<path d="M116.4,461.2c-0.2,0.8-1.4,1.7-1.2,2.1c0.2,0.3,1.6-0.4,2.4-0.2c0.8,0.2,2.3,2,2.6,1.8c0.3-0.2-0.7-2.3-0.6-3
			c0.2-0.7,1.3-1.8,1.2-2.1c-0.2-0.3-1.7,0.4-2.4,0.2c-0.7-0.1-2.3-2-2.6-1.8C115.6,458.3,116.6,460.4,116.4,461.2z"/>
		<path d="M120.9,471.5c0.2,0.3,1.6-0.4,2.4-0.2c0.8,0.2,2.3,2,2.6,1.8c0.3-0.2-0.7-2.3-0.6-3c0.2-0.7,1.3-1.8,1.2-2.1
			c-0.2-0.3-1.7,0.4-2.4,0.2s-2.3-2-2.6-1.8c-0.3,0.2,0.7,2.2,0.6,3C121.9,470.2,120.6,471.1,120.9,471.5z"/>
		<path d="M200.2,588.1c0.2,0.3,1.6-0.4,2.4-0.2c0.8,0.2,2.3,2,2.6,1.8c0.3-0.2-0.7-2.3-0.6-3c0.2-0.7,1.3-1.8,1.2-2.1
			c-0.2-0.3-1.7,0.4-2.4,0.2c-0.7-0.1-2.3-2-2.6-1.8c-0.3,0.2,0.7,2.2,0.6,3C201.2,586.9,200,587.8,200.2,588.1z"/>
		<path d="M205.8,596.4c0.2,0.3,1.6-0.4,2.4-0.2c0.8,0.2,2.3,2,2.6,1.8c0.3-0.2-0.7-2.3-0.6-3c0.2-0.7,1.3-1.8,1.2-2.1
			s-1.7,0.4-2.4,0.2s-2.3-2-2.6-1.8c-0.3,0.2,0.7,2.2,0.6,3S205.6,596,205.8,596.4z"/>
		<path d="M166.9,533.3c0.9-0.6,1.2-1.5,0.2-3.1c-1-1.5-9.7-10.9-9.7-10.9s5.6,11.5,6.6,13C165,533.9,166,533.9,166.9,533.3z"/>
		<polygon points="96.9,432.8 96.9,435.1 97.8,432.9 100.3,435.5 98.9,432.1 101.3,432.1 99.1,431.2 101.7,428.6 98.3,430.1 
			98.3,427.7 97.4,429.9 94.8,427.3 96.2,430.7 93.9,430.7 96.1,431.6 93.5,434.2 		"/>
		<path d="M234.6,722.6c0.5-0.3,1-0.7,1.4-1.1c1.7-1.9-0.2-5.3-1.3-7.2c0.2-0.2,0.5-0.3,0.7-0.5c0.2-0.2,0.3-0.5,0.1-0.7
			c-1.1-1.6-2.2-3.2-3.3-4.8c-0.1-0.1-0.2-0.2-0.3-0.2c0,0,0,0,0,0c0,0,0,0,0,0c-0.1,0-0.2,0-0.3,0.1c-0.5,0.3-1,0.7-1.5,1
			c-1.5-2.3-3.1-4.5-4.6-6.8c-0.1-0.1-0.2-0.2-0.3-0.2c0,0,0,0,0,0c0,0,0,0,0,0c-0.1,0-0.2,0-0.3,0.1c-0.1,0.1-0.2,0.1-0.3,0.2
			c-15-22-29.7-44.2-44.7-66.2c0.2-0.1,0.4-0.3,0.7-0.4c0.2-0.1,0.3-0.5,0.1-0.7c-0.8-1-1.9-2.2-3.2-2.8c0,0,0,0,0-0.1
			c-6.2-9.2-12.7-18.2-18.9-27.3c-0.1-0.1-0.2-0.2-0.4-0.2c0.2-1.7-0.9-3.8-1.6-5.1c-0.1-0.2-0.3-0.3-0.5-0.2c-0.1,0-0.2,0-0.2,0.1
			c-0.2,0.1-0.3,0.2-0.5,0.3c-14-20.5-28.1-40.8-42.1-61.3c1.3-0.9,2.5-2,1.9-3.4c-1-2.1-2.1-2.3-4.1-2.2c-0.1,0-0.2,0-0.3,0
			c0,0,0,0,0,0c-1.1-1.4-3.2-4.2-5.4-4.2c0.5-5-3.8-9.3-8.4-8.7c3.1-3.8,3.4-9.3,0.5-13.6c-0.6-0.9-1.3-1.7-2.1-2.3
			c1.6,4.7-0.1,10.1-4.4,13c-4.3,2.9-9.9,2.5-13.7-0.6c0.3,1,0.8,1.9,1.4,2.8c2.9,4.2,8.1,5.9,12.8,4.4c-2.3,4.1,0.1,9.7,5,11.1
			c-0.8,2,1,5,2,6.5c-0.5,0.9-1,1.9-0.8,2.7c0.2,0.8,1.5,3,2.3,3.1c0.6,0.1,1.5-0.7,2-1c0.3-0.2,0.6-0.4,0.9-0.5
			c0,0.1,0,0.2,0.1,0.3c13.9,20.4,27.5,41,41.4,61.4c-0.2,0.1-0.3,0.2-0.5,0.3c-0.2,0.1-0.3,0.5-0.1,0.7c0.9,1.2,2.5,3,4.2,3.4
			c0,0.1,0,0.2,0.1,0.3c6.2,9.2,12.2,18.5,18.4,27.6c0,1.4,0.8,3,1.4,4.1c0.1,0.2,0.3,0.3,0.5,0.2c0.1,0,0.1,0,0.2-0.1
			c0.2-0.2,0.5-0.3,0.7-0.5c15,22,30.2,43.9,45.2,65.9c-0.1,0.1-0.2,0.1-0.3,0.2c-0.2,0.2-0.3,0.5-0.1,0.7c1.5,2.3,3.1,4.5,4.6,6.8
			c-0.5,0.3-1,0.7-1.5,1c-0.2,0.2-0.3,0.5-0.1,0.7c1.1,1.6,2.2,3.2,3.3,4.8c0.2,0.2,0.5,0.3,0.7,0.1c0.2-0.2,0.5-0.3,0.7-0.5
			c1.3,1.6,3.7,4.6,6,3.9c0.6-0.2,1.1-0.5,1.7-0.9c0.2,2.8,3.4,4.9,6,3.1C237.9,727.5,237.2,723.8,234.6,722.6z M96.7,533.7
			c-4.9-1.2-7-7.3-3.6-10.9c0.4-0.2,0.8-0.5,1.2-0.7c0.4-0.3,0.7-0.5,1.1-0.8c4.6-1.9,9.5,2.5,8.8,7.5c0,0,0,0,0,0
			c-1.3,0.5-2.6,1.8-3.6,2.5c-1.1,0.7-2.7,1.5-3.7,2.5C96.8,533.7,96.8,533.7,96.7,533.7z M97.9,534.4c0.9-0.9,2.2-1.5,3.2-2.2
			c1-0.7,2.1-1.6,3.2-2.2c1.8-0.9,3.8,1.5,5,3c-2.2,0.2-4.5,0.8-6.4,1.9c-1.8,1.4-3.1,3.2-4.2,5.2C97.8,538.5,96.4,535.8,97.9,534.4
			z M102,544.7c-0.5,0.3-1,0.6-1.5,0.9c-0.3,0.2-0.7,0.2-0.6,0.3c-0.5-0.3-1.3-1.9-1.4-2.3c0,0,0-0.1,0-0.1c0,0,0,0,0-0.1
			c0-0.3,0.2-0.6,0.4-0.9c1.1-2.6,2.5-5.2,4.7-6.8c2.3-1.4,5.2-1.8,7.9-1.9c1,0,1.1-0.1,1.8,0.6c0.6,0.6,1.1,1.1,0.7,1.8
			c-0.6,1-2.3,1.9-3.3,2.6c-1.5,1.1-3,2.1-4.5,3.1C104.8,542.8,103.4,543.8,102,544.7z M104.7,546.9l8.9-6c1.3,1.8,2.5,3.7,3.8,5.5
			c-3.9-1.3-8.7,1.9-9,5.9C107.1,550.5,105.9,548.7,104.7,546.9z M143.7,604.8c-11.4-16.8-22.7-33.7-34.1-50.6c-1.8-4.9,5.2-9.3,9-6
			c0,0,0,0,0,0c11.5,16.8,23,33.4,34.5,50.2L143.7,604.8z M144.7,608.1c3.7-2.5,7.4-5,11.1-7.6c0.9,1.7,1.9,4,0.2,5.3
			c-1,0.8-2.2,1.5-3.3,2.2c-1.1,0.7-2.1,1.6-3.3,2.2C147.6,611.4,145.9,609.6,144.7,608.1z M166.5,638.3c-6-8.8-11.7-17.7-17.7-26.5
			c0.1,0,0.3-0.1,0.4-0.1c1.4-0.5,2.8-1.9,4.1-2.7c1.2-0.8,2.8-1.6,3.9-2.7c0.2-0.2,0.3-0.4,0.4-0.6c6,8.8,12.2,17.5,18.2,26.3
			c-0.3,0-0.7,0.1-1,0.2c-1.4,0.6-2.7,1.8-3.9,2.6c-1.2,0.8-2.7,1.6-3.9,2.6C166.8,637.7,166.7,638,166.5,638.3z M168.2,642.8
			c-0.9-1.6-1.6-3.6,0-4.9c1-0.8,2.2-1.5,3.3-2.2c1.1-0.7,2.1-1.5,3.2-2.2c1.8-1.1,3.4,0.2,4.6,1.7
			C175.7,637.7,171.9,640.2,168.2,642.8z M171.2,644.7l9-6.1c12.5,18.3,24.8,36.8,37.2,55.1c1.5,4.3-5.2,8.5-8.6,5.8
			C196.3,681.3,183.6,663,171.2,644.7z M213.8,706.9c-1.3-1.9-2.6-3.8-3.9-5.7c3.6,1,8.2-2,8.6-5.7c1.3,1.9,2.5,3.7,3.8,5.6
			L213.8,706.9z M214.9,710.1c3.3-2.3,6.6-4.5,9.9-6.8c1.4,2,2.8,4.1,4.2,6.1c-3.3,2.2-6.6,4.5-9.9,6.7
			C217.7,714.2,216.3,712.1,214.9,710.1z M219.3,720.6c-0.4-0.7-0.9-1.3-1.3-2c4.6-3.1,9.1-6.2,13.7-9.3c0.4,0.7,0.9,1.3,1.3,2
			L219.3,720.6z M227.8,725.8c-2.1,1.1-4.3-1.6-5.5-3.2c3.8-2.6,7.6-5.2,11.4-7.8c1,1.7,2.7,4.6,1,6.2c-1,0.9-2.4,1.6-3.5,2.4
			C230.1,724.2,229,725.1,227.8,725.8z M230.3,725.6C230.3,725.5,230.3,725.5,230.3,725.6c0.5-0.5,1.1-1,1.6-1.3
			c0.5-0.3,1.1-0.7,1.6-1c0,0,0,0,0,0c2.4,0.5,3.3,3.7,1.1,5.2C232.5,729.9,229.9,728,230.3,725.6z"/>
		<path d="M120.8,555.2c-0.2-0.3-1.7,0.4-2.4,0.2c-0.7-0.1-2.3-2-2.6-1.8c-0.3,0.2,0.7,2.2,0.6,3c-0.2,0.8-1.4,1.7-1.2,2.1
			c0.2,0.3,1.6-0.4,2.4-0.2c0.8,0.2,2.3,2,2.6,1.8c0.3-0.2-0.7-2.3-0.6-3S120.9,555.4,120.8,555.2z"/>
		<path d="M126.4,563.4c-0.2-0.3-1.7,0.4-2.4,0.2c-0.7-0.1-2.3-2-2.6-1.8c-0.3,0.2,0.7,2.2,0.6,3c-0.2,0.8-1.4,1.7-1.2,2.1
			c0.2,0.3,1.6-0.4,2.4-0.2c0.8,0.2,2.3,2,2.6,1.8c0.3-0.2-0.7-2.3-0.6-3C125.3,564.7,126.5,563.7,126.4,563.4z"/>
		<path d="M205.7,680.1c-0.2-0.3-1.7,0.4-2.4,0.2c-0.7-0.1-2.3-2-2.6-1.8c-0.3,0.2,0.7,2.2,0.6,3c-0.2,0.8-1.4,1.7-1.2,2.1
			c0.2,0.3,1.6-0.4,2.4-0.2c0.8,0.2,2.3,2,2.6,1.8c0.3-0.2-0.7-2.3-0.6-3C204.7,681.4,205.9,680.3,205.7,680.1z"/>
		<path d="M211.3,688.3c-0.2-0.3-1.7,0.4-2.4,0.2c-0.7-0.1-2.3-2-2.6-1.8c-0.3,0.2,0.7,2.2,0.6,3c-0.2,0.8-1.4,1.7-1.2,2.1
			c0.2,0.3,1.6-0.4,2.4-0.2c0.8,0.2,2.3,2,2.6,1.8c0.3-0.2-0.7-2.3-0.6-3C210.3,689.6,211.5,688.6,211.3,688.3z"/>
		<path d="M157.4,614.9c0,0,5.6,11.5,6.6,13c1,1.5,2.1,1.5,2.9,1c0.9-0.6,1.2-1.5,0.2-3.1S157.4,614.9,157.4,614.9z"/>
		<polygon points="101.3,527.6 99.1,526.8 101.7,524.2 98.3,525.6 98.3,523.2 97.4,525.4 94.8,522.9 96.2,526.2 93.9,526.2 
			96.1,527.1 93.5,529.7 96.9,528.3 96.9,530.7 97.8,528.4 100.3,531 98.9,527.7 		"/>
		<path d="M413.1,134.9c-4.3-2.9-6-8.3-4.4-13c-0.8,0.7-1.5,1.4-2.1,2.3c-2.9,4.2-2.5,9.8,0.5,13.6c-4.6-0.6-9,3.7-8.4,8.7
			c-2.2,0-4.3,2.8-5.4,4.2c0,0,0,0,0,0c-0.1,0-0.2,0-0.3,0c-2-0.1-3.1,0.1-4.1,2.2c-0.6,1.3,0.6,2.4,1.9,3.4
			c-14,20.5-28.1,40.8-42.1,61.3c-0.2-0.1-0.3-0.2-0.5-0.3c-0.1-0.1-0.2-0.1-0.2-0.1c-0.2,0-0.4,0-0.5,0.2c-0.8,1.3-1.9,3.4-1.6,5.1
			c-0.1,0-0.3,0.1-0.4,0.2c-6.2,9.2-12.7,18.2-18.9,27.3c0,0,0,0,0,0.1c-1.3,0.6-2.4,1.8-3.2,2.8c-0.2,0.2-0.1,0.6,0.1,0.7
			c0.2,0.1,0.4,0.3,0.7,0.4c-15,22-29.7,44.2-44.7,66.2c-0.1-0.1-0.2-0.1-0.3-0.2c-0.1-0.1-0.2-0.1-0.3-0.1c0,0,0,0,0,0c0,0,0,0,0,0
			c-0.1,0-0.2,0.1-0.3,0.2c-1.5,2.3-3.1,4.5-4.6,6.8c-0.5-0.3-1-0.7-1.5-1c-0.1-0.1-0.2-0.1-0.3-0.1c0,0,0,0,0,0c0,0,0,0,0,0
			c-0.1,0-0.2,0.1-0.3,0.2c-1.1,1.6-2.2,3.2-3.3,4.8c-0.2,0.2-0.1,0.6,0.1,0.7c0.2,0.2,0.5,0.3,0.7,0.5c-1.1,1.8-3,5.3-1.3,7.2
			c0.4,0.4,0.8,0.8,1.4,1.1c-2.6,1.2-3.3,4.9-0.7,6.7c2.6,1.8,5.8-0.2,6-3.1c0.6,0.4,1.1,0.7,1.7,0.9c2.3,0.7,4.8-2.3,6-3.9
			c0.2,0.2,0.5,0.3,0.7,0.5c0.2,0.2,0.6,0.1,0.7-0.1c1.1-1.6,2.2-3.2,3.3-4.8c0.2-0.2,0.1-0.6-0.1-0.7c-0.5-0.3-1-0.7-1.5-1
			c1.5-2.3,3.1-4.5,4.6-6.8c0.2-0.2,0.1-0.6-0.1-0.7c-0.1-0.1-0.2-0.1-0.3-0.2c15-22,30.2-43.9,45.2-65.9c0.2,0.2,0.5,0.3,0.7,0.5
			c0.1,0.1,0.1,0.1,0.2,0.1c0.2,0,0.4,0,0.5-0.2c0.6-1.1,1.4-2.7,1.4-4.1c6.2-9.1,12.2-18.5,18.4-27.6c0.1-0.1,0.1-0.2,0.1-0.3
			c1.7-0.4,3.3-2.2,4.2-3.4c0.2-0.2,0.1-0.6-0.1-0.7c-0.2-0.1-0.3-0.2-0.5-0.3c13.9-20.4,27.6-41,41.4-61.4c0.1-0.1,0.1-0.2,0.1-0.3
			c0.3,0.2,0.6,0.4,0.9,0.5c0.5,0.3,1.3,1,2,1c0.9-0.1,2.2-2.3,2.3-3.1c0.2-0.9-0.4-1.9-0.8-2.7c0.9-1.5,2.8-4.5,2-6.5
			c4.9-1.4,7.3-7,5-11.1c4.6,1.4,9.9-0.2,12.8-4.4c0.6-0.9,1.1-1.8,1.4-2.8C423,137.4,417.4,137.8,413.1,134.9z M269.2,346.4
			c-2.2-1.5-1.3-4.6,1.1-5.2c0,0,0,0,0,0c0.6,0.3,1.1,0.7,1.6,1c0.5,0.3,1,0.8,1.6,1.2c0,0,0,0.1,0,0.1
			C273.9,345.9,271.4,347.8,269.2,346.4z M276.1,343.7c-1.2-0.6-2.3-1.6-3.4-2.3c-1.1-0.8-2.5-1.5-3.5-2.4c-1.7-1.5,0-4.5,1-6.2
			c3.8,2.6,7.6,5.2,11.4,7.8C280.3,342.1,278.2,344.8,276.1,343.7z M286,336.5c-0.4,0.7-0.9,1.3-1.3,2l-13.7-9.3
			c0.4-0.7,0.9-1.3,1.3-2C276.8,330.3,281.4,333.4,286,336.5z M284.8,334.1c-3.3-2.2-6.6-4.5-9.9-6.7c1.4-2,2.8-4.1,4.2-6.1
			c3.3,2.2,6.6,4.5,9.9,6.7C287.6,330,286.2,332.1,284.8,334.1z M290,324.8l-8.5-5.8c1.3-1.9,2.5-3.7,3.8-5.6c0.4,3.7,5,6.7,8.6,5.7
			C292.6,321.1,291.3,323,290,324.8z M295.1,317.4c-3.4,2.8-10-1.5-8.6-5.8c12.4-18.4,24.7-36.8,37.2-55.1l9,6.1
			C320.2,281,307.6,299.2,295.1,317.4z M335.6,260.7c-3.7-2.5-7.4-5-11.1-7.6c1.2-1.4,2.8-2.8,4.6-1.7c1.1,0.7,2.1,1.4,3.2,2.2
			c1.1,0.7,2.2,1.4,3.3,2.2C337.2,257,336.5,259.1,335.6,260.7z M337.4,256.2c-0.1-0.3-0.3-0.6-0.6-0.8c-1.1-1-2.6-1.8-3.9-2.6
			c-1.2-0.8-2.5-2-3.9-2.6c-0.3-0.1-0.7-0.2-1-0.2c6-8.8,12.2-17.5,18.2-26.3c0.1,0.2,0.2,0.4,0.4,0.6c1.1,1.1,2.7,1.8,3.9,2.7
			c1.3,0.9,2.6,2.2,4.1,2.7c0.1,0.1,0.3,0.1,0.4,0.1C349.1,238.5,343.4,247.4,337.4,256.2z M354.4,228.2c-1.1-0.7-2.2-1.5-3.3-2.2
			c-1.1-0.7-2.2-1.4-3.3-2.2c-1.7-1.3-0.7-3.6,0.2-5.3c3.7,2.5,7.4,5,11.1,7.6C358,227.5,356.3,229.3,354.4,228.2z M394.3,172.2
			c-11.4,16.9-22.7,33.8-34.1,50.6l-9.4-6.4c11.4-16.8,23-33.5,34.5-50.2c0,0,0,0,0,0C389.1,162.9,396,167.3,394.3,172.2z
			 M395.6,170.2c-0.3-4.1-5.1-7.2-9-5.9c1.3-1.8,2.5-3.7,3.8-5.5l8.9,6C398,166.6,396.8,168.4,395.6,170.2z M405.4,161.5
			c-0.1,0.4-1,2-1.4,2.3c0.1-0.1-0.3-0.1-0.6-0.3c-0.5-0.3-1-0.6-1.5-0.9c-1.4-0.9-2.8-1.8-4.2-2.8c-1.5-1-3-2.1-4.5-3.1
			c-0.9-0.7-2.7-1.6-3.3-2.6c-0.4-0.7,0.1-1.1,0.7-1.8c0.7-0.7,0.8-0.6,1.8-0.6c2.7,0.1,5.5,0.5,7.9,1.9c2.2,1.7,3.7,4.3,4.8,6.8
			c0.1,0.3,0.3,0.6,0.4,0.9C405.4,161.4,405.4,161.4,405.4,161.5C405.4,161.5,405.4,161.5,405.4,161.5z M405.1,158
			c-1-2-2.3-3.9-4.2-5.2c-1.9-1.2-4.1-1.7-6.4-1.9c1.2-1.5,3.2-3.9,5-3c1.1,0.6,2.2,1.5,3.2,2.2c1,0.7,2.3,1.4,3.2,2.2
			C407.5,153.7,406.1,156.4,405.1,158z M407.2,151.6c-0.1,0-0.1,0-0.2,0.1c-0.9-1-2.6-1.7-3.7-2.5c-1-0.7-2.3-2-3.6-2.5c0,0,0,0,0,0
			c-0.8-5,4.1-9.4,8.8-7.5c0.3,0.3,0.7,0.6,1.1,0.8c0.4,0.3,0.8,0.5,1.2,0.7C414.2,144.3,412.1,150.4,407.2,151.6z"/>
		<path d="M388,171.6c-0.3-0.2-1.9,1.6-2.6,1.8c-0.7,0.1-2.2-0.5-2.4-0.2c-0.2,0.3,1,1.3,1.2,2.1c0.2,0.7-0.9,2.9-0.6,3
			c0.3,0.2,1.8-1.6,2.6-1.8c0.8-0.2,2.1,0.6,2.4,0.2c0.2-0.3-1-1.2-1.2-2.1C387.3,173.8,388.3,171.7,388,171.6z"/>
		<path d="M382.4,179.8c-0.3-0.2-1.9,1.6-2.6,1.8c-0.7,0.1-2.2-0.5-2.4-0.2c-0.2,0.3,1,1.3,1.2,2.1c0.2,0.7-0.9,2.9-0.6,3
			c0.3,0.2,1.8-1.6,2.6-1.8c0.8-0.2,2.1,0.6,2.4,0.2c0.2-0.3-1-1.2-1.2-2.1C381.7,182,382.7,180,382.4,179.8z"/>
		<path d="M303.1,296.4c-0.3-0.2-1.9,1.6-2.6,1.8c-0.7,0.1-2.2-0.5-2.4-0.2c-0.2,0.3,1,1.3,1.2,2.1s-0.9,2.9-0.6,3
			c0.3,0.2,1.8-1.6,2.6-1.8c0.8-0.2,2.1,0.6,2.4,0.2c0.2-0.3-1-1.2-1.2-2.1C302.3,298.7,303.4,296.6,303.1,296.4z"/>
		<path d="M297.5,304.7c-0.3-0.2-1.9,1.6-2.6,1.8c-0.7,0.1-2.2-0.5-2.4-0.2c-0.2,0.3,1,1.3,1.2,2.1c0.2,0.7-0.9,2.9-0.6,3
			c0.3,0.2,1.8-1.6,2.6-1.8c0.8-0.2,2.1,0.6,2.4,0.2c0.2-0.3-1-1.2-1.2-2.1C296.7,306.9,297.8,304.9,297.5,304.7z"/>
		<path d="M337,246.7c0.9,0.6,1.9,0.6,2.9-1c1-1.5,6.6-13,6.6-13s-8.7,9.4-9.7,10.9C335.8,245.2,336.1,246.2,337,246.7z"/>
		<polygon points="410,144.1 407.7,144.1 409.1,140.8 406.5,143.3 405.6,141.1 405.6,143.5 402.2,142.1 404.8,144.7 402.6,145.6 
			405,145.6 403.5,148.9 406.1,146.4 407,148.6 407,146.2 410.4,147.6 407.8,145 		"/>
		<path d="M413.1,230.4c-4.3-2.9-6-8.3-4.4-13c-0.8,0.7-1.5,1.4-2.1,2.3c-2.9,4.2-2.5,9.8,0.5,13.6c-4.6-0.6-9,3.7-8.4,8.7
			c-2.2,0-4.3,2.8-5.4,4.2c0,0,0,0,0,0c-0.1,0-0.2,0-0.3,0c-2-0.1-3.1,0.1-4.1,2.2c-0.6,1.3,0.6,2.5,1.9,3.4
			c-14,20.5-28.1,40.8-42.1,61.3c-0.2-0.1-0.3-0.2-0.5-0.3c-0.1-0.1-0.2-0.1-0.2-0.1c-0.2,0-0.4,0-0.5,0.2c-0.8,1.3-1.9,3.4-1.6,5.1
			c-0.1,0-0.3,0.1-0.4,0.2c-6.2,9.2-12.7,18.2-18.9,27.3c0,0,0,0,0,0.1c-1.3,0.6-2.4,1.8-3.2,2.8c-0.2,0.2-0.1,0.6,0.1,0.7
			c0.2,0.1,0.4,0.3,0.7,0.4c-15,22-29.7,44.2-44.7,66.2c-0.1-0.1-0.2-0.1-0.3-0.2c-0.1-0.1-0.2-0.1-0.3-0.1c0,0,0,0,0,0c0,0,0,0,0,0
			c-0.1,0-0.2,0.1-0.3,0.2c-1.5,2.3-3.1,4.5-4.6,6.8c-0.5-0.3-1-0.7-1.5-1c-0.1-0.1-0.2-0.1-0.3-0.1c0,0,0,0,0,0c0,0,0,0,0,0
			c-0.1,0-0.2,0.1-0.3,0.2c-1.1,1.6-2.2,3.2-3.3,4.8c-0.2,0.2-0.1,0.6,0.1,0.7c0.2,0.2,0.5,0.3,0.7,0.5c-1.1,1.8-3,5.3-1.3,7.2
			c0.4,0.4,0.8,0.8,1.4,1.1c-2.6,1.2-3.3,4.9-0.7,6.7c2.6,1.8,5.8-0.2,6-3.1c0.6,0.4,1.1,0.7,1.7,0.9c2.3,0.7,4.8-2.3,6-3.9
			c0.2,0.2,0.5,0.3,0.7,0.5c0.2,0.2,0.6,0.1,0.7-0.1c1.1-1.6,2.2-3.2,3.3-4.8c0.2-0.2,0.1-0.6-0.1-0.7c-0.5-0.3-1-0.7-1.5-1
			c1.5-2.3,3.1-4.5,4.6-6.8c0.2-0.2,0.1-0.6-0.1-0.7c-0.1-0.1-0.2-0.1-0.3-0.2c15-22,30.2-43.9,45.2-65.9c0.2,0.2,0.5,0.3,0.7,0.5
			c0.1,0.1,0.1,0.1,0.2,0.1c0.2,0,0.4,0,0.5-0.2c0.6-1.1,1.4-2.7,1.4-4.1c6.2-9.1,12.2-18.5,18.4-27.6c0.1-0.1,0.1-0.2,0.1-0.3
			c1.7-0.4,3.3-2.2,4.2-3.4c0.2-0.2,0.1-0.6-0.1-0.7c-0.2-0.1-0.3-0.2-0.5-0.3c13.9-20.4,27.6-41,41.4-61.4c0.1-0.1,0.1-0.2,0.1-0.3
			c0.3,0.2,0.6,0.4,0.9,0.5c0.5,0.3,1.3,1,2,1c0.9-0.1,2.2-2.3,2.3-3.1c0.2-0.9-0.4-1.9-0.8-2.7c0.9-1.5,2.8-4.5,2-6.5
			c4.9-1.4,7.3-7,5-11.1c4.6,1.4,9.9-0.2,12.8-4.4c0.6-0.9,1.1-1.8,1.4-2.8C423,232.9,417.4,233.4,413.1,230.4z M269.2,441.9
			c-2.2-1.5-1.3-4.6,1.1-5.2c0,0,0,0,0,0c0.6,0.3,1.1,0.7,1.6,1c0.5,0.3,1,0.8,1.6,1.2c0,0,0,0.1,0,0.1
			C273.9,441.4,271.4,443.3,269.2,441.9z M276.1,439.2c-1.2-0.6-2.3-1.6-3.4-2.3c-1.1-0.8-2.5-1.5-3.5-2.4c-1.7-1.5,0-4.5,1-6.2
			c3.8,2.6,7.6,5.2,11.4,7.8C280.3,437.6,278.2,440.3,276.1,439.2z M286,432c-0.4,0.7-0.9,1.3-1.3,2l-13.7-9.3
			c0.4-0.7,0.9-1.3,1.3-2C276.8,425.8,281.4,428.9,286,432z M284.8,429.6c-3.3-2.3-6.6-4.5-9.9-6.8c1.4-2,2.8-4.1,4.2-6.1
			c3.3,2.3,6.6,4.5,9.9,6.7C287.6,425.6,286.2,427.6,284.8,429.6z M290,420.4l-8.5-5.8c1.3-1.9,2.5-3.7,3.8-5.6
			c0.4,3.7,5,6.7,8.6,5.7C292.6,416.6,291.3,418.5,290,420.4z M295.1,413c-3.4,2.8-10-1.5-8.6-5.8c12.4-18.4,24.7-36.8,37.2-55.1
			l9,6.1C320.2,376.5,307.6,394.7,295.1,413z M335.6,356.2c-3.7-2.5-7.4-5-11.1-7.6c1.2-1.4,2.8-2.8,4.6-1.7
			c1.1,0.7,2.1,1.4,3.2,2.2c1.1,0.7,2.2,1.4,3.3,2.2C337.2,352.6,336.5,354.6,335.6,356.2z M337.4,351.7c-0.1-0.3-0.3-0.6-0.6-0.8
			c-1.1-1-2.6-1.8-3.9-2.6c-1.2-0.8-2.5-2-3.9-2.6c-0.3-0.1-0.7-0.2-1-0.2c6-8.8,12.2-17.5,18.2-26.3c0.1,0.2,0.2,0.4,0.4,0.6
			c1.1,1.1,2.7,1.8,3.9,2.7c1.3,0.9,2.6,2.2,4.1,2.7c0.1,0.1,0.3,0.1,0.4,0.1C349.1,334,343.4,342.9,337.4,351.7z M354.4,323.7
			c-1.1-0.7-2.2-1.5-3.3-2.2c-1.1-0.7-2.2-1.4-3.3-2.2c-1.7-1.3-0.7-3.6,0.2-5.3c3.7,2.5,7.4,5,11.1,7.6
			C358,323,356.3,324.8,354.4,323.7z M394.3,267.7c-11.4,16.9-22.7,33.8-34.1,50.6l-9.4-6.4c11.4-16.8,23-33.5,34.5-50.2
			c0,0,0,0,0,0C389.1,258.4,396,262.8,394.3,267.7z M395.6,265.7c-0.3-4.1-5.1-7.2-9-5.9c1.3-1.8,2.5-3.7,3.8-5.5l8.9,6
			C398,262.1,396.8,263.9,395.6,265.7z M405.4,257c-0.1,0.4-1,2-1.4,2.3c0.1-0.1-0.3-0.1-0.6-0.3c-0.5-0.3-1-0.6-1.5-0.9
			c-1.4-0.9-2.8-1.8-4.2-2.8c-1.5-1-3-2.1-4.5-3.1c-0.9-0.7-2.7-1.6-3.3-2.6c-0.4-0.7,0.1-1.1,0.7-1.8c0.7-0.7,0.8-0.6,1.8-0.6
			c2.7,0.1,5.5,0.5,7.9,1.9c2.2,1.7,3.7,4.3,4.8,6.8c0.1,0.3,0.3,0.6,0.4,0.9C405.4,256.9,405.4,257,405.4,257
			C405.4,257,405.4,257,405.4,257z M405.1,253.5c-1-2-2.3-3.9-4.2-5.2c-1.9-1.2-4.1-1.7-6.4-1.9c1.2-1.5,3.2-3.9,5-3
			c1.1,0.6,2.2,1.5,3.2,2.2c1,0.7,2.3,1.4,3.2,2.2C407.5,249.2,406.1,251.9,405.1,253.5z M407.2,247.1c-0.1,0-0.1,0-0.2,0.1
			c-0.9-1-2.6-1.7-3.7-2.5c-1-0.7-2.3-2-3.6-2.5c0,0,0,0,0,0c-0.8-5,4.1-9.4,8.8-7.5c0.3,0.3,0.7,0.6,1.1,0.8
			c0.4,0.3,0.8,0.5,1.2,0.7C414.2,239.8,412.1,245.9,407.2,247.1z"/>
		<path d="M388,267.1c-0.3-0.2-1.9,1.6-2.6,1.8c-0.7,0.1-2.2-0.5-2.4-0.2c-0.2,0.3,1,1.3,1.2,2.1c0.2,0.7-0.9,2.9-0.6,3
			c0.3,0.2,1.8-1.6,2.6-1.8c0.8-0.2,2.1,0.6,2.4,0.2c0.2-0.3-1-1.2-1.2-2.1C387.3,269.3,388.3,267.3,388,267.1z"/>
		<path d="M382.4,275.3c-0.3-0.2-1.9,1.6-2.6,1.8c-0.7,0.1-2.2-0.5-2.4-0.2c-0.2,0.3,1,1.3,1.2,2.1s-0.9,2.9-0.6,3
			c0.3,0.2,1.8-1.6,2.6-1.8c0.8-0.2,2.1,0.6,2.4,0.2c0.2-0.3-1-1.2-1.2-2.1C381.7,277.5,382.7,275.5,382.4,275.3z"/>
		<path d="M303.1,392c-0.3-0.2-1.9,1.6-2.6,1.8c-0.7,0.1-2.2-0.5-2.4-0.2c-0.2,0.3,1,1.3,1.2,2.1c0.2,0.7-0.9,2.9-0.6,3
			c0.3,0.2,1.8-1.6,2.6-1.8c0.8-0.2,2.1,0.6,2.4,0.2c0.2-0.3-1-1.2-1.2-2.1C302.3,394.2,303.4,392.2,303.1,392z"/>
		<path d="M297.5,400.2c-0.3-0.2-1.9,1.6-2.6,1.8c-0.7,0.1-2.2-0.5-2.4-0.2c-0.2,0.3,1,1.3,1.2,2.1c0.2,0.7-0.9,2.9-0.6,3
			c0.3,0.2,1.8-1.6,2.6-1.8c0.8-0.2,2.1,0.6,2.4,0.2c0.2-0.3-1-1.2-1.2-2.1C296.7,402.4,297.8,400.4,297.5,400.2z"/>
		<path d="M337,342.3c0.9,0.6,1.9,0.6,2.9-1c1-1.5,6.6-13,6.6-13s-8.7,9.4-9.7,10.9C335.8,340.7,336.1,341.7,337,342.3z"/>
		<polygon points="410,239.7 407.7,239.6 409.1,236.3 406.5,238.9 405.6,236.7 405.6,239 402.2,237.6 404.8,240.2 402.6,241.1 
			405,241.1 403.5,244.4 406.1,241.9 407,244.1 407,241.7 410.4,243.1 407.8,240.5 		"/>
		<path d="M413.1,325.9c-4.3-2.9-6-8.3-4.4-13c-0.8,0.7-1.5,1.4-2.1,2.3c-2.9,4.3-2.5,9.8,0.5,13.6c-4.6-0.6-9,3.7-8.4,8.7
			c-2.2,0-4.3,2.8-5.4,4.2c0,0,0,0,0,0c-0.1,0-0.2,0-0.3,0c-2-0.1-3.1,0.1-4.1,2.2c-0.6,1.3,0.6,2.5,1.9,3.4
			c-14,20.5-28.1,40.8-42.1,61.3c-0.2-0.1-0.3-0.2-0.5-0.3c-0.1-0.1-0.2-0.1-0.2-0.1c-0.2,0-0.4,0-0.5,0.2c-0.8,1.3-1.9,3.4-1.6,5.1
			c-0.1,0-0.3,0.1-0.4,0.2c-6.2,9.2-12.7,18.2-18.9,27.3c0,0,0,0,0,0.1c-1.3,0.6-2.4,1.8-3.2,2.8c-0.2,0.2-0.1,0.6,0.1,0.7
			c0.2,0.1,0.4,0.3,0.7,0.4c-15,22-29.7,44.2-44.7,66.2c-0.1-0.1-0.2-0.1-0.3-0.2c-0.1-0.1-0.2-0.1-0.3-0.1c0,0,0,0,0,0c0,0,0,0,0,0
			c-0.1,0-0.2,0.1-0.3,0.2c-1.5,2.3-3.1,4.5-4.6,6.8c-0.5-0.3-1-0.7-1.5-1c-0.1-0.1-0.2-0.1-0.3-0.1c0,0,0,0,0,0c0,0,0,0,0,0
			c-0.1,0-0.2,0.1-0.3,0.2c-1.1,1.6-2.2,3.2-3.3,4.8c-0.2,0.2-0.1,0.6,0.1,0.7c0.2,0.2,0.5,0.3,0.7,0.5c-1.1,1.8-3,5.3-1.3,7.2
			c0.4,0.4,0.8,0.8,1.4,1.1c-2.6,1.2-3.3,4.9-0.7,6.7c2.6,1.8,5.8-0.2,6-3.1c0.6,0.4,1.1,0.7,1.7,0.9c2.3,0.7,4.8-2.3,6-3.9
			c0.2,0.2,0.5,0.3,0.7,0.5c0.2,0.2,0.6,0.1,0.7-0.1c1.1-1.6,2.2-3.2,3.3-4.8c0.2-0.2,0.1-0.6-0.1-0.7c-0.5-0.3-1-0.7-1.5-1
			c1.5-2.3,3.1-4.5,4.6-6.8c0.2-0.2,0.1-0.6-0.1-0.7c-0.1-0.1-0.2-0.1-0.3-0.2c15-22,30.2-43.9,45.2-65.9c0.2,0.2,0.5,0.3,0.7,0.5
			c0.1,0.1,0.1,0.1,0.2,0.1c0.2,0,0.4,0,0.5-0.2c0.6-1.1,1.4-2.7,1.4-4.1c6.2-9.1,12.2-18.5,18.4-27.6c0.1-0.1,0.1-0.2,0.1-0.3
			c1.7-0.4,3.3-2.2,4.2-3.4c0.2-0.2,0.1-0.6-0.1-0.7c-0.2-0.1-0.3-0.2-0.5-0.3c13.9-20.4,27.6-41,41.4-61.4c0.1-0.1,0.1-0.2,0.1-0.3
			c0.3,0.2,0.6,0.4,0.9,0.5c0.5,0.3,1.3,1,2,1c0.9-0.1,2.2-2.3,2.3-3.1c0.2-0.9-0.4-1.9-0.8-2.7c0.9-1.5,2.8-4.5,2-6.5
			c4.9-1.4,7.3-7,5-11.1c4.6,1.4,9.9-0.2,12.8-4.4c0.6-0.9,1.1-1.8,1.4-2.8C423,328.5,417.4,328.9,413.1,325.9z M269.2,537.4
			c-2.2-1.5-1.3-4.6,1.1-5.2c0,0,0,0,0,0c0.6,0.3,1.1,0.7,1.6,1c0.5,0.3,1,0.8,1.6,1.2c0,0,0,0.1,0,0.1
			C273.9,536.9,271.4,538.9,269.2,537.4z M276.1,534.7c-1.2-0.6-2.3-1.6-3.4-2.3c-1.1-0.8-2.5-1.5-3.5-2.4c-1.7-1.5,0-4.5,1-6.2
			c3.8,2.6,7.6,5.2,11.4,7.8C280.3,533.1,278.2,535.8,276.1,534.7z M286,527.5c-0.4,0.7-0.9,1.3-1.3,2l-13.7-9.3
			c0.4-0.7,0.9-1.3,1.3-2C276.8,521.3,281.4,524.4,286,527.5z M284.8,525.2c-3.3-2.3-6.6-4.5-9.9-6.7c1.4-2,2.8-4.1,4.2-6.1
			c3.3,2.3,6.6,4.5,9.9,6.8C287.6,521.1,286.2,523.1,284.8,525.2z M290,515.9l-8.5-5.8c1.3-1.9,2.5-3.7,3.8-5.6
			c0.4,3.7,5,6.7,8.6,5.7C292.6,512.1,291.3,514,290,515.9z M295.1,508.5c-3.4,2.8-10-1.5-8.6-5.8c12.4-18.4,24.7-36.8,37.2-55.1
			l9,6.1C320.2,472,307.6,490.2,295.1,508.5z M335.6,451.7c-3.7-2.5-7.4-5-11.1-7.6c1.2-1.4,2.8-2.8,4.6-1.7
			c1.1,0.7,2.1,1.4,3.2,2.2c1.1,0.7,2.2,1.4,3.3,2.2C337.2,448.1,336.5,450.1,335.6,451.7z M337.4,447.2c-0.1-0.3-0.3-0.6-0.6-0.8
			c-1.1-1-2.6-1.8-3.9-2.6c-1.2-0.8-2.5-2-3.9-2.6c-0.3-0.1-0.7-0.2-1-0.2c6-8.8,12.2-17.5,18.2-26.3c0.1,0.2,0.2,0.4,0.4,0.6
			c1.1,1.1,2.7,1.8,3.9,2.7c1.3,0.9,2.6,2.2,4.1,2.7c0.1,0.1,0.3,0.1,0.4,0.1C349.1,429.5,343.4,438.4,337.4,447.2z M354.4,419.2
			c-1.1-0.7-2.2-1.5-3.3-2.2c-1.1-0.7-2.2-1.4-3.3-2.2c-1.7-1.3-0.7-3.6,0.2-5.3c3.7,2.5,7.4,5,11.1,7.6
			C358,418.5,356.3,420.3,354.4,419.2z M394.3,363.2c-11.4,16.9-22.7,33.8-34.1,50.6l-9.4-6.4c11.4-16.8,23-33.5,34.5-50.2
			c0,0,0,0,0,0C389.1,353.9,396,358.3,394.3,363.2z M395.6,361.3c-0.3-4.1-5.1-7.2-9-5.9c1.3-1.8,2.5-3.7,3.8-5.5l8.9,6
			C398,357.7,396.8,359.5,395.6,361.3z M405.4,352.6c-0.1,0.4-1,2-1.4,2.3c0.1-0.1-0.3-0.1-0.6-0.3c-0.5-0.3-1-0.6-1.5-0.9
			c-1.4-0.9-2.8-1.8-4.2-2.8c-1.5-1-3-2.1-4.5-3.1c-0.9-0.7-2.7-1.6-3.3-2.6c-0.4-0.7,0.1-1.1,0.7-1.8c0.7-0.7,0.8-0.6,1.8-0.6
			c2.7,0.1,5.5,0.5,7.9,1.9c2.2,1.7,3.7,4.3,4.8,6.8c0.1,0.3,0.3,0.6,0.4,0.9C405.4,352.5,405.4,352.5,405.4,352.6
			C405.4,352.5,405.4,352.5,405.4,352.6z M405.1,349.1c-1-2-2.3-3.9-4.2-5.2c-1.9-1.2-4.1-1.7-6.4-1.9c1.2-1.5,3.2-3.9,5-3
			c1.1,0.6,2.2,1.5,3.2,2.2c1,0.7,2.3,1.4,3.2,2.2C407.5,344.7,406.1,347.4,405.1,349.1z M407.2,342.7c-0.1,0-0.1,0-0.2,0.1
			c-0.9-1-2.6-1.7-3.7-2.5c-1-0.7-2.3-2-3.6-2.5c0,0,0,0,0,0c-0.8-5,4.1-9.4,8.8-7.5c0.3,0.3,0.7,0.6,1.1,0.8
			c0.4,0.3,0.8,0.5,1.2,0.7C414.2,335.3,412.1,341.4,407.2,342.7z"/>
		<path d="M388,362.6c-0.3-0.2-1.9,1.6-2.6,1.8c-0.7,0.1-2.2-0.5-2.4-0.2c-0.2,0.3,1,1.3,1.2,2.1c0.2,0.7-0.9,2.9-0.6,3
			c0.3,0.2,1.8-1.6,2.6-1.8s2.1,0.6,2.4,0.2c0.2-0.3-1-1.2-1.2-2.1C387.3,364.8,388.3,362.8,388,362.6z"/>
		<path d="M382.4,370.8c-0.3-0.2-1.9,1.6-2.6,1.8c-0.7,0.1-2.2-0.5-2.4-0.2c-0.2,0.3,1,1.3,1.2,2.1c0.2,0.7-0.9,2.9-0.6,3
			c0.3,0.2,1.8-1.6,2.6-1.8c0.8-0.2,2.1,0.6,2.4,0.2c0.2-0.3-1-1.2-1.2-2.1C381.7,373.1,382.7,371,382.4,370.8z"/>
		<path d="M303.1,487.5c-0.3-0.2-1.9,1.6-2.6,1.8c-0.7,0.1-2.2-0.5-2.4-0.2c-0.2,0.3,1,1.3,1.2,2.1s-0.9,2.9-0.6,3
			c0.3,0.2,1.8-1.6,2.6-1.8c0.8-0.2,2.1,0.6,2.4,0.2c0.2-0.3-1-1.2-1.2-2.1C302.3,489.7,303.4,487.7,303.1,487.5z"/>
		<path d="M297.5,495.7c-0.3-0.2-1.9,1.6-2.6,1.8c-0.7,0.1-2.2-0.5-2.4-0.2c-0.2,0.3,1,1.3,1.2,2.1c0.2,0.7-0.9,2.9-0.6,3
			c0.3,0.2,1.8-1.6,2.6-1.8c0.8-0.2,2.1,0.6,2.4,0.2c0.2-0.3-1-1.2-1.2-2.1C296.7,498,297.8,495.9,297.5,495.7z"/>
		<path d="M337,437.8c0.9,0.6,1.9,0.6,2.9-1c1-1.5,6.6-13,6.6-13s-8.7,9.4-9.7,10.9C335.8,436.3,336.1,437.2,337,437.8z"/>
		<polygon points="410,335.2 407.7,335.2 409.1,331.8 406.5,334.4 405.6,332.2 405.6,334.5 402.2,333.1 404.8,335.7 402.6,336.6 
			405,336.6 403.5,340 406.1,337.4 407,339.6 407,337.2 410.4,338.7 407.8,336.1 		"/>
		<path d="M413.1,421.5c-4.3-2.9-6-8.3-4.4-13c-0.8,0.7-1.5,1.4-2.1,2.3c-2.9,4.2-2.5,9.8,0.5,13.6c-4.6-0.6-9,3.7-8.4,8.7
			c-2.2,0-4.3,2.8-5.4,4.2c0,0,0,0,0,0c-0.1,0-0.2,0-0.3,0c-2-0.1-3.1,0.1-4.1,2.2c-0.6,1.3,0.6,2.4,1.9,3.4
			c-14,20.5-28.1,40.8-42.1,61.3c-0.2-0.1-0.3-0.2-0.5-0.3c-0.1-0.1-0.2-0.1-0.2-0.1c-0.2,0-0.4,0-0.5,0.2c-0.8,1.3-1.9,3.4-1.6,5.1
			c-0.1,0-0.3,0.1-0.4,0.2c-6.2,9.2-12.7,18.2-18.9,27.3c0,0,0,0,0,0.1c-1.3,0.6-2.4,1.8-3.2,2.8c-0.2,0.2-0.1,0.6,0.1,0.7
			c0.2,0.1,0.4,0.3,0.7,0.4c-15,22-29.7,44.2-44.7,66.2c-0.1-0.1-0.2-0.1-0.3-0.2c-0.1-0.1-0.2-0.1-0.3-0.1c0,0,0,0,0,0c0,0,0,0,0,0
			c-0.1,0-0.2,0.1-0.3,0.2c-1.5,2.3-3.1,4.5-4.6,6.8c-0.5-0.3-1-0.7-1.5-1c-0.1-0.1-0.2-0.1-0.3-0.1c0,0,0,0,0,0c0,0,0,0,0,0
			c-0.1,0-0.2,0.1-0.3,0.2c-1.1,1.6-2.2,3.2-3.3,4.8c-0.2,0.2-0.1,0.6,0.1,0.7c0.2,0.2,0.5,0.3,0.7,0.5c-1.1,1.8-3,5.3-1.3,7.2
			c0.4,0.4,0.8,0.8,1.4,1.1c-2.6,1.2-3.3,4.9-0.7,6.7c2.6,1.8,5.8-0.2,6-3.1c0.6,0.4,1.1,0.7,1.7,0.9c2.3,0.7,4.8-2.3,6-3.9
			c0.2,0.2,0.5,0.3,0.7,0.5c0.2,0.2,0.6,0.1,0.7-0.1c1.1-1.6,2.2-3.2,3.3-4.8c0.2-0.2,0.1-0.6-0.1-0.7c-0.5-0.3-1-0.7-1.5-1
			c1.5-2.3,3.1-4.5,4.6-6.8c0.2-0.2,0.1-0.6-0.1-0.7c-0.1-0.1-0.2-0.1-0.3-0.2c15-22,30.2-43.9,45.2-65.9c0.2,0.2,0.5,0.3,0.7,0.5
			c0.1,0.1,0.1,0.1,0.2,0.1c0.2,0,0.4,0,0.5-0.2c0.6-1.1,1.4-2.7,1.4-4.1c6.2-9.1,12.2-18.5,18.4-27.6c0.1-0.1,0.1-0.2,0.1-0.3
			c1.7-0.4,3.3-2.2,4.2-3.4c0.2-0.2,0.1-0.6-0.1-0.7c-0.2-0.1-0.3-0.2-0.5-0.3c13.9-20.4,27.6-41,41.4-61.4c0.1-0.1,0.1-0.2,0.1-0.3
			c0.3,0.2,0.6,0.4,0.9,0.5c0.5,0.3,1.3,1,2,1c0.9-0.1,2.2-2.3,2.3-3.1c0.2-0.9-0.4-1.9-0.8-2.7c0.9-1.5,2.8-4.5,2-6.5
			c4.9-1.4,7.3-7,5-11.1c4.6,1.4,9.9-0.2,12.8-4.4c0.6-0.9,1.1-1.8,1.4-2.8C423,424,417.4,424.4,413.1,421.5z M269.2,632.9
			c-2.2-1.5-1.3-4.6,1.1-5.2c0,0,0,0,0,0c0.6,0.3,1.1,0.7,1.6,1c0.5,0.3,1,0.8,1.6,1.2c0,0,0,0.1,0,0.1
			C273.9,632.5,271.4,634.4,269.2,632.9z M276.1,630.2c-1.2-0.6-2.3-1.6-3.4-2.3c-1.1-0.8-2.5-1.5-3.5-2.4c-1.7-1.5,0-4.5,1-6.2
			c3.8,2.6,7.6,5.2,11.4,7.8C280.3,628.7,278.2,631.4,276.1,630.2z M286,623.1c-0.4,0.7-0.9,1.3-1.3,2l-13.7-9.3
			c0.4-0.7,0.9-1.3,1.3-2C276.8,616.9,281.4,620,286,623.1z M284.8,620.7c-3.3-2.3-6.6-4.5-9.9-6.8c1.4-2,2.8-4.1,4.2-6.1
			c3.3,2.3,6.6,4.5,9.9,6.7C287.6,616.6,286.2,618.6,284.8,620.7z M290,611.4l-8.5-5.8c1.3-1.9,2.5-3.7,3.8-5.6
			c0.4,3.7,5,6.7,8.6,5.7C292.6,607.6,291.3,609.5,290,611.4z M295.1,604c-3.4,2.8-10-1.5-8.6-5.8c12.4-18.4,24.7-36.8,37.2-55.1
			l9,6.1C320.2,567.5,307.6,585.7,295.1,604z M335.6,547.2c-3.7-2.5-7.4-5-11.1-7.6c1.2-1.4,2.8-2.8,4.6-1.7
			c1.1,0.7,2.1,1.4,3.2,2.2c1.1,0.7,2.2,1.4,3.3,2.2C337.2,543.6,336.5,545.6,335.6,547.2z M337.4,542.8c-0.1-0.3-0.3-0.6-0.6-0.8
			c-1.1-1-2.6-1.8-3.9-2.6c-1.2-0.8-2.5-2-3.9-2.6c-0.3-0.1-0.7-0.2-1-0.2c6-8.8,12.2-17.5,18.2-26.3c0.1,0.2,0.2,0.4,0.4,0.6
			c1.1,1.1,2.7,1.8,3.9,2.7c1.3,0.9,2.6,2.2,4.1,2.7c0.1,0.1,0.3,0.1,0.4,0.1C349.1,525,343.4,534,337.4,542.8z M354.4,514.7
			c-1.1-0.7-2.2-1.5-3.3-2.2c-1.1-0.7-2.2-1.4-3.3-2.2c-1.7-1.3-0.7-3.6,0.2-5.3c3.7,2.5,7.4,5,11.1,7.6
			C358,514.1,356.3,515.8,354.4,514.7z M394.3,458.7c-11.4,16.9-22.7,33.8-34.1,50.6l-9.4-6.4c11.4-16.8,23-33.5,34.5-50.2
			c0,0,0,0,0,0C389.1,449.4,396,453.8,394.3,458.7z M395.6,456.8c-0.3-4.1-5.1-7.2-9-5.9c1.3-1.8,2.5-3.7,3.8-5.5l8.9,6
			C398,453.2,396.8,455,395.6,456.8z M405.4,448.1c-0.1,0.4-1,2-1.4,2.3c0.1-0.1-0.3-0.1-0.6-0.3c-0.5-0.3-1-0.6-1.5-0.9
			c-1.4-0.9-2.8-1.8-4.2-2.8c-1.5-1-3-2.1-4.5-3.1c-0.9-0.7-2.7-1.6-3.3-2.6c-0.4-0.7,0.1-1.1,0.7-1.8c0.7-0.7,0.8-0.6,1.8-0.6
			c2.7,0.1,5.5,0.5,7.9,1.9c2.2,1.7,3.7,4.3,4.8,6.8c0.1,0.3,0.3,0.6,0.4,0.9C405.4,448,405.4,448,405.4,448.1
			C405.4,448,405.4,448.1,405.4,448.1z M405.1,444.6c-1-2-2.3-3.9-4.2-5.2c-1.9-1.2-4.1-1.7-6.4-1.9c1.2-1.5,3.2-3.9,5-3
			c1.1,0.6,2.2,1.5,3.2,2.2c1,0.7,2.3,1.4,3.2,2.2C407.5,440.2,406.1,442.9,405.1,444.6z M407.2,438.2c-0.1,0-0.1,0-0.2,0.1
			c-0.9-1-2.6-1.7-3.7-2.5c-1-0.7-2.3-2-3.6-2.5c0,0,0,0,0,0c-0.8-5,4.1-9.4,8.8-7.5c0.3,0.3,0.7,0.6,1.1,0.8
			c0.4,0.3,0.8,0.5,1.2,0.7C414.2,430.9,412.1,437,407.2,438.2z"/>
		<path d="M388,458.1c-0.3-0.2-1.9,1.6-2.6,1.8c-0.7,0.1-2.2-0.5-2.4-0.2c-0.2,0.3,1,1.3,1.2,2.1c0.2,0.7-0.9,2.9-0.6,3
			c0.3,0.2,1.8-1.6,2.6-1.8c0.8-0.2,2.1,0.6,2.4,0.2c0.2-0.3-1-1.2-1.2-2.1C387.3,460.4,388.3,458.3,388,458.1z"/>
		<path d="M382.4,466.4c-0.3-0.2-1.9,1.6-2.6,1.8c-0.7,0.1-2.2-0.5-2.4-0.2c-0.2,0.3,1,1.3,1.2,2.1s-0.9,2.9-0.6,3
			c0.3,0.2,1.8-1.6,2.6-1.8c0.8-0.2,2.1,0.6,2.4,0.2c0.2-0.3-1-1.2-1.2-2.1C381.7,468.6,382.7,466.6,382.4,466.4z"/>
		<path d="M303.1,583c-0.3-0.2-1.9,1.6-2.6,1.8c-0.7,0.1-2.2-0.5-2.4-0.2c-0.2,0.3,1,1.3,1.2,2.1c0.2,0.7-0.9,2.9-0.6,3
			c0.3,0.2,1.8-1.6,2.6-1.8c0.8-0.2,2.1,0.6,2.4,0.2c0.2-0.3-1-1.2-1.2-2.1C302.3,585.3,303.4,583.2,303.1,583z"/>
		<path d="M297.5,591.3c-0.3-0.2-1.9,1.6-2.6,1.8c-0.7,0.1-2.2-0.5-2.4-0.2c-0.2,0.3,1,1.3,1.2,2.1c0.2,0.7-0.9,2.9-0.6,3
			c0.3,0.2,1.8-1.6,2.6-1.8c0.8-0.2,2.1,0.6,2.4,0.2c0.2-0.3-1-1.2-1.2-2.1C296.7,593.5,297.8,591.4,297.5,591.3z"/>
		<path d="M337,533.3c0.9,0.6,1.9,0.6,2.9-1c1-1.5,6.6-13,6.6-13s-8.7,9.4-9.7,10.9C335.8,531.8,336.1,532.7,337,533.3z"/>
		<polygon points="410,430.7 407.7,430.7 409.1,427.3 406.5,429.9 405.6,427.7 405.6,430.1 402.2,428.6 404.8,431.2 402.6,432.1 
			405,432.1 403.5,435.5 406.1,432.9 407,435.1 407,432.8 410.4,434.2 407.8,431.6 		"/>
		<path d="M413.1,517c-4.3-2.9-6-8.3-4.4-13c-0.8,0.7-1.5,1.4-2.1,2.3c-2.9,4.3-2.5,9.8,0.5,13.6c-4.6-0.6-9,3.7-8.4,8.7
			c-2.2,0-4.3,2.8-5.4,4.2c0,0,0,0,0,0c-0.1,0-0.2,0-0.3,0c-2-0.1-3.1,0.1-4.1,2.2c-0.6,1.3,0.6,2.4,1.9,3.4
			c-14,20.5-28.1,40.8-42.1,61.3c-0.2-0.1-0.3-0.2-0.5-0.3c-0.1-0.1-0.2-0.1-0.2-0.1c-0.2,0-0.4,0-0.5,0.2c-0.8,1.3-1.9,3.4-1.6,5.1
			c-0.1,0-0.3,0.1-0.4,0.2c-6.2,9.2-12.7,18.2-18.9,27.3c0,0,0,0,0,0.1c-1.3,0.6-2.4,1.8-3.2,2.8c-0.2,0.2-0.1,0.6,0.1,0.7
			c0.2,0.1,0.4,0.3,0.7,0.4c-15,22-29.7,44.2-44.7,66.2c-0.1-0.1-0.2-0.1-0.3-0.2c-0.1-0.1-0.2-0.1-0.3-0.1c0,0,0,0,0,0c0,0,0,0,0,0
			c-0.1,0-0.2,0.1-0.3,0.2c-1.5,2.3-3.1,4.5-4.6,6.8c-0.5-0.3-1-0.7-1.5-1c-0.1-0.1-0.2-0.1-0.3-0.1c0,0,0,0,0,0c0,0,0,0,0,0
			c-0.1,0-0.2,0.1-0.3,0.2c-1.1,1.6-2.2,3.2-3.3,4.8c-0.2,0.2-0.1,0.6,0.1,0.7c0.2,0.2,0.5,0.3,0.7,0.5c-1.1,1.8-3,5.3-1.3,7.2
			c0.4,0.4,0.8,0.8,1.4,1.1c-2.6,1.2-3.3,4.9-0.7,6.7c2.6,1.8,5.8-0.2,6-3.1c0.6,0.4,1.1,0.7,1.7,0.9c2.3,0.7,4.8-2.3,6-3.9
			c0.2,0.2,0.5,0.3,0.7,0.5c0.2,0.2,0.6,0.1,0.7-0.1c1.1-1.6,2.2-3.2,3.3-4.8c0.2-0.2,0.1-0.6-0.1-0.7c-0.5-0.3-1-0.7-1.5-1
			c1.5-2.3,3.1-4.5,4.6-6.8c0.2-0.2,0.1-0.6-0.1-0.7c-0.1-0.1-0.2-0.1-0.3-0.2c15-22,30.2-43.9,45.2-65.9c0.2,0.2,0.5,0.3,0.7,0.5
			c0.1,0.1,0.1,0.1,0.2,0.1c0.2,0,0.4,0,0.5-0.2c0.6-1.1,1.4-2.7,1.4-4.1c6.2-9.1,12.2-18.5,18.4-27.6c0.1-0.1,0.1-0.2,0.1-0.3
			c1.7-0.4,3.3-2.2,4.2-3.4c0.2-0.2,0.1-0.6-0.1-0.7c-0.2-0.1-0.3-0.2-0.5-0.3c13.9-20.4,27.6-41,41.4-61.4c0.1-0.1,0.1-0.2,0.1-0.3
			c0.3,0.2,0.6,0.4,0.9,0.5c0.5,0.3,1.3,1,2,1c0.9-0.1,2.2-2.3,2.3-3.1c0.2-0.9-0.4-1.9-0.8-2.7c0.9-1.5,2.8-4.5,2-6.5
			c4.9-1.4,7.3-7,5-11.1c4.6,1.4,9.9-0.2,12.8-4.4c0.6-0.9,1.1-1.8,1.4-2.8C423,519.5,417.4,519.9,413.1,517z M269.2,728.5
			c-2.2-1.5-1.3-4.6,1.1-5.2c0,0,0,0,0,0c0.6,0.3,1.1,0.7,1.6,1c0.5,0.3,1,0.8,1.6,1.2c0,0,0,0.1,0,0.1
			C273.9,728,271.4,729.9,269.2,728.5z M276.1,725.8c-1.2-0.6-2.3-1.6-3.4-2.3c-1.1-0.8-2.5-1.5-3.5-2.4c-1.7-1.5,0-4.5,1-6.2
			c3.8,2.6,7.6,5.2,11.4,7.8C280.3,724.2,278.2,726.9,276.1,725.8z M286,718.6c-0.4,0.7-0.9,1.3-1.3,2l-13.7-9.3
			c0.4-0.7,0.9-1.3,1.3-2C276.8,712.4,281.4,715.5,286,718.6z M284.8,716.2c-3.3-2.3-6.6-4.5-9.9-6.7c1.4-2,2.8-4.1,4.2-6.1
			c3.3,2.3,6.6,4.5,9.9,6.8C287.6,712.1,286.2,714.2,284.8,716.2z M290,706.9l-8.5-5.8c1.3-1.9,2.5-3.7,3.8-5.6
			c0.4,3.7,5,6.7,8.6,5.7C292.6,703.1,291.3,705,290,706.9z M295.1,699.5c-3.4,2.8-10-1.5-8.6-5.8c12.4-18.4,24.7-36.8,37.2-55.1
			l9,6.1C320.2,663,307.6,681.3,295.1,699.5z M335.6,642.8c-3.7-2.5-7.4-5-11.1-7.6c1.2-1.4,2.8-2.8,4.6-1.7
			c1.1,0.7,2.1,1.4,3.2,2.2c1.1,0.7,2.2,1.4,3.3,2.2C337.2,639.1,336.5,641.2,335.6,642.8z M337.4,638.3c-0.1-0.3-0.3-0.6-0.6-0.8
			c-1.1-1-2.6-1.8-3.9-2.6c-1.2-0.8-2.5-2-3.9-2.6c-0.3-0.1-0.7-0.2-1-0.2c6-8.8,12.2-17.5,18.2-26.3c0.1,0.2,0.2,0.4,0.4,0.6
			c1.1,1.1,2.7,1.8,3.9,2.7c1.3,0.9,2.6,2.2,4.1,2.7c0.1,0.1,0.3,0.1,0.4,0.1C349.1,620.5,343.4,629.5,337.4,638.3z M354.4,610.3
			c-1.1-0.7-2.2-1.5-3.3-2.2c-1.1-0.7-2.2-1.4-3.3-2.2c-1.7-1.3-0.7-3.6,0.2-5.3c3.7,2.5,7.4,5,11.1,7.6
			C358,609.6,356.3,611.4,354.4,610.3z M394.3,554.2c-11.4,16.9-22.7,33.8-34.1,50.6l-9.4-6.4c11.4-16.8,23-33.5,34.5-50.2
			c0,0,0,0,0,0C389.1,545,396,549.4,394.3,554.2z M395.6,552.3c-0.3-4.1-5.1-7.2-9-5.9c1.3-1.8,2.5-3.7,3.8-5.5l8.9,6
			C398,548.7,396.8,550.5,395.6,552.3z M405.4,543.6c-0.1,0.4-1,2-1.4,2.3c0.1-0.1-0.3-0.1-0.6-0.3c-0.5-0.3-1-0.6-1.5-0.9
			c-1.4-0.9-2.8-1.8-4.2-2.8c-1.5-1-3-2.1-4.5-3.1c-0.9-0.7-2.7-1.6-3.3-2.6c-0.4-0.7,0.1-1.1,0.7-1.8c0.7-0.7,0.8-0.6,1.8-0.6
			c2.7,0.1,5.5,0.5,7.9,1.9c2.2,1.7,3.7,4.3,4.8,6.8c0.1,0.3,0.3,0.6,0.4,0.9C405.4,543.5,405.4,543.5,405.4,543.6
			C405.4,543.6,405.4,543.6,405.4,543.6z M405.1,540.1c-1-2-2.3-3.9-4.2-5.2c-1.9-1.2-4.1-1.7-6.4-1.9c1.2-1.5,3.2-3.9,5-3
			c1.1,0.6,2.2,1.5,3.2,2.2c1,0.7,2.3,1.4,3.2,2.2C407.5,535.8,406.1,538.5,405.1,540.1z M407.2,533.7c-0.1,0-0.1,0-0.2,0.1
			c-0.9-1-2.6-1.7-3.7-2.5c-1-0.7-2.3-2-3.6-2.5c0,0,0,0,0,0c-0.8-5,4.1-9.4,8.8-7.5c0.3,0.3,0.7,0.6,1.1,0.8
			c0.4,0.3,0.8,0.5,1.2,0.7C414.2,526.4,412.1,532.5,407.2,533.7z"/>
		<path d="M388,553.7c-0.3-0.2-1.9,1.6-2.6,1.8c-0.7,0.1-2.2-0.5-2.4-0.2c-0.2,0.3,1,1.3,1.2,2.1c0.2,0.7-0.9,2.9-0.6,3
			c0.3,0.2,1.8-1.6,2.6-1.8c0.8-0.2,2.1,0.6,2.4,0.2c0.2-0.3-1-1.2-1.2-2.1C387.3,555.9,388.3,553.8,388,553.7z"/>
		<path d="M382.4,561.9c-0.3-0.2-1.9,1.6-2.6,1.8c-0.7,0.1-2.2-0.5-2.4-0.2c-0.2,0.3,1,1.3,1.2,2.1s-0.9,2.9-0.6,3
			c0.3,0.2,1.8-1.6,2.6-1.8c0.8-0.2,2.1,0.6,2.4,0.2c0.2-0.3-1-1.2-1.2-2.1C381.7,564.1,382.7,562.1,382.4,561.9z"/>
		<path d="M303.1,678.5c-0.3-0.2-1.9,1.6-2.6,1.8c-0.7,0.1-2.2-0.5-2.4-0.2c-0.2,0.3,1,1.3,1.2,2.1s-0.9,2.9-0.6,3
			c0.3,0.2,1.8-1.6,2.6-1.8c0.8-0.2,2.1,0.6,2.4,0.2s-1-1.2-1.2-2.1C302.3,680.8,303.4,678.7,303.1,678.5z"/>
		<path d="M297.5,686.8c-0.3-0.2-1.9,1.6-2.6,1.8c-0.7,0.1-2.2-0.5-2.4-0.2c-0.2,0.3,1,1.3,1.2,2.1c0.2,0.7-0.9,2.9-0.6,3
			c0.3,0.2,1.8-1.6,2.6-1.8c0.8-0.2,2.1,0.6,2.4,0.2c0.2-0.3-1-1.2-1.2-2.1C296.7,689,297.8,687,297.5,686.8z"/>
		<path d="M337,628.8c0.9,0.6,1.9,0.6,2.9-1c1-1.5,6.6-13,6.6-13s-8.7,9.4-9.7,10.9C335.8,627.3,336.1,628.3,337,628.8z"/>
		<polygon points="410,526.2 407.7,526.2 409.1,522.9 406.5,525.4 405.6,523.2 405.6,525.6 402.2,524.2 404.8,526.8 402.6,527.6 
			405,527.7 403.5,531 406.1,528.4 407,530.7 407,528.3 410.4,529.7 407.8,527.1 		"/>
	</g>
</g>
</svg>
