<?xml version="1.0" encoding="utf-8"?>
<!-- Generator: Adobe Illustrator 21.1.0, SVG Export Plug-In . SVG Version: 6.00 Build 0)  -->
<svg version="1.1" xmlns="http://www.w3.org/2000/svg" xmlns:xlink="http://www.w3.org/1999/xlink" x="0px" y="0px"
	 viewBox="0 0 504 864" style="enable-background:new 0 0 504 864;" xml:space="preserve">
<style type="text/css">
	.st0{fill:#040404;}
</style>
<g id="Слой_1">
</g>
<g id="Слой_2">
	<g>
		<path d="M503.8,18.2c-1.6-17.9-18.7-16.3-31.6-16.3c-45.9,0-91.8,0-137.6,0c-63.2,0-126.3,0-189.5,0c-40.6,0-81.2,0-121.8,0
			c-2.6,0-5.3-0.2-8,0.2c-9.5,1.2-15,9.2-15.2,18.2c-0.2,7.3,0,14.5,0,21.8c0,37.4,0,74.9,0,112.3c0,57,0,114.1,0,171.1
			c0,64.3,0,128.6,0,192.9c0,58.4,0,116.7,0,175.1c0,40.1,0,80.2,0,120.3c0,9.1,0,18.2,0,27.3c0,11.7,6.7,20.5,19.2,20.7
			c35.9,0.6,71.9,0,107.9,0c62.4,0,124.9,0,187.3,0c49.7,0,99.5,0,149.2,0c7.6,0,15.2,0,22.9,0c0.4,0,0.8-0.1,1.2-0.2
			c14.4-1.8,16.1-13.8,16.1-25.5c0-11.4,0-22.8,0-34.3c0-43.4,0-86.9,0-130.3c0-59.9,0-119.8,0-179.8c0-63.9,0-127.7,0-191.6
			c0-55.3,0-110.6,0-165.9c0-33.7,0-67.3,0-101C503.9,28.3,504.2,23.2,503.8,18.2z M486.6,852.8c-28.3,0-56.6,0-84.9,0
			c-59.9,0-119.8,0-179.7,0c-54,0-108,0-162,0c-13.1,0-26.1,0-39.2,0c-5.6,0-11-1.3-11.7-8.3c-0.2-1.5,0-3,0-4.5c0-26.5,0-53,0-79.5
			c0-50,0-100,0-149.9c0-61.8,0-123.6,0-185.4c0-61.4,0-122.7,0-184.1c0-48.9,0-97.7,0-146.6c0-24.2-0.8-48.6,0-72.8
			c0.2-5.3,1.6-10.1,8.3-10.8c2.2-0.2,4.5,0,6.7,0c14.8,0,29.6,0,44.5,0c55.6,0,111.3,0,166.9,0c58.9,0,117.8,0,176.7,0
			c18.9,0,37.9,0,56.8,0c8.1,0,24.7-3.1,25.9,8.4c0.5,5.2,0,10.8,0,16.1c0,13.5,0,27.1,0,40.6c0,45.5,0,91.1,0,136.6
			c0,60.1,0,120.2,0,180.3c0,62.6,0,125.2,0,187.7c0,52.8,0,105.6,0,158.4c0,31.4,0,62.7,0,94.1C494.8,840.3,496.9,852,486.6,852.8z
			"/>
		<path d="M460,790.9c1.2,0.1,2.4-0.7,2.4-2.2c0-23.7,0-47.4,0-71.1c0-56.4,0-112.8,0-169.2c0-68.7,0-137.4,0-206
			c0-59,0-117.9,0-176.9c0-19.6,0-39.2,0-58.8c0-8.9,1.3-19,0-27.9c-0.1-0.4,0-0.8,0-1.2c0-0.8-0.3-1.3-0.8-1.7
			c0.1-1.2-0.6-2.5-2.2-2.6c-13.1-0.5-25.3-13.8-25.8-26.7c0-0.5-0.2-0.8-0.4-1.1c-0.3-0.6-1-1.1-1.9-1.1c-40.5,0-80.9,0-121.4,0
			c-64.5,0-129,0-193.6,0c-14.9,0-29.7,0-44.6,0c-0.9,0-1.6,0.5-1.9,1.1c-0.2,0.3-0.3,0.7-0.4,1.2C69.1,59.5,57,72.8,43.9,73.3
			c-1.8,0.1-2.5,1.9-2,3.2c-0.2,0.3-0.2,0.6-0.2,1c0,23.7,0,47.4,0,71.1c0,56.4,0,112.8,0,169.2c0,68.7,0,137.4,0,206
			c0,59,0,117.9,0,176.9c0,19.6,0,39.2,0,58.8c0,8.9-1.3,19,0,27.9c0.1,0.4,0,0.8,0,1.2c0,0.9,0.5,1.6,1.1,1.9
			c0.3,0.2,0.7,0.3,1.2,0.4c13,0.5,25.3,13.3,25.8,26.2c0,0.5,0.2,0.8,0.4,1.1c0.3,0.6,1,1.1,1.9,1.1c40.5,0,80.9,0,121.4,0
			c64.5,0,129,0,193.6,0c14.9,0,29.7,0,44.6,0c0.9,0,1.6-0.5,1.9-1.1c0.2-0.3,0.3-0.7,0.4-1.2c0.5-12.9,12.7-25.7,25.8-26.2
			C459.6,791,459.8,790.9,460,790.9z M429.3,814.9c-39.8,0-79.6,0-119.3,0c-64.5,0-129,0-193.6,0c-14.2,0-28.3,0-42.5,0
			c-1.7-13.9-13.9-26.5-27.8-28.3c0-23,0-46,0-69.1c0-56.4,0-112.8,0-169.2c0-68.7,0-137.4,0-206c0-59,0-117.9,0-176.9
			c0-19.6,0-39.2,0-58.8c0-8.9,1.3-19,0-27.9c-0.1-0.4,0-0.8,0-1.2c14-1.8,26.1-14.9,27.8-28.7c39.8,0,79.5,0,119.3,0
			c64.5,0,129,0,193.6,0c14.2,0,28.3,0,42.5,0c1.7,14.1,14.3,27.4,28.5,28.8c0,23.7,0,47.3,0,71c0,56.4,0,112.8,0,169.2
			c0,68.7,0,137.4,0,206c0,59,0,117.9,0,176.9c0,19.6,0,39.2,0,58.8c0,8.6-1.2,18.4-0.1,27C443.6,788.1,431.1,800.9,429.3,814.9z"/>
		<path d="M240.4,103.7c0.1,0,0.3-0.1,0.4-0.4c0.1-0.2,1.2-0.4,3.4-0.4c1.4,0,2.3,0,2.7,0.1c0.4,0.1,0.6,0.2,0.6,0.4
			c0,0.3,0.1,0.4,0.3,0.1c0.2-0.2,0.4-0.3,0.5-0.2c0,0,0.1,0.1,0.2,0.1c0.2,0,0.4-0.1,0.7-0.4c0.3-0.2,0.4-0.5,0.5-0.8
			c0.1-0.3,0.1-0.5-0.1-0.6c-0.1-0.1-0.4-0.2-0.9-0.2c-1.2-0.2-1.8-0.6-1.8-1.2c0-0.2,0.1-0.3,0.4-0.3c0.3,0,0.4-0.2,0.4-0.7
			c0-0.5,0.1-0.7,0.4-0.7c0.3,0,0.4-0.1,0.4-0.4c0-0.2,0.2-0.5,0.7-1c0.5-0.4,0.7-0.7,0.6-0.8v-0.3c0-0.5,0.1-1,0.4-1.5
			c0.3-0.5,0.6-0.7,0.9-0.7c0.1,0,0.2,0,0.2,0.1c0.3,0.1,0.5,0.3,0.5,0.6c0,0.2,0.3,0.6,0.8,1.3c0.5,0.7,0.8,1.1,0.8,1.2
			c0,0.2,0.1,0.3,0.4,0.4c0.2,0.1,0.4,0.4,0.5,0.9c0.1,0.3,0.2,0.5,0.3,0.7c0.2,0.1,0.4,0.2,0.8,0.3l0.9,0.3l-0.9,0.1
			c-0.6,0.1-0.9,0.3-0.9,0.6c0,0.8-0.5,1.2-1.4,1.2c-0.3,0-0.5,0-0.6,0.1c-0.1,0.1-0.2,0.3-0.2,0.6v0.7h3.6c2.4,0,3.6,0.1,3.7,0.4
			c0.1,0.3,0.3,0.3,0.6-0.1c0.3-0.3,0.8-0.4,1.5-0.3l1.1,0.2v-0.9c0-0.5-0.1-0.8-0.2-0.9c-0.1-0.2-0.4-0.3-0.9-0.5
			c-0.7-0.3-1.1-0.5-1.1-0.6c0-0.1-0.3-0.3-0.8-0.6c-0.5-0.3-0.8-0.5-0.8-0.7c0-0.4-0.1-0.7-0.4-1.2c-0.3-0.4-0.5-0.6-0.7-0.6
			c-0.1,0-0.3-0.3-0.5-0.8c-0.2-0.6-0.4-0.8-0.6-0.8c-0.2,0-0.4-0.2-0.5-0.5c-0.1-0.4-0.6-0.9-1.4-1.8c-0.8-0.8-1.3-1.3-1.5-1.3
			c-0.1,0-0.2-0.1-0.2-0.4c0-0.8,0.4-1.7,1.2-2.6c0.6-0.6,0.9-1.1,0.9-1.4c0-0.2,0.3-0.6,0.8-1.1c0.5-0.5,0.9-0.8,1.1-0.8
			c0.2,0,0.3-0.2,0.3-0.5c0-0.9,0.3-1.4,0.8-1.4c0.4,0,0.5-0.1,0.5-0.3c0-0.2,0.2-0.4,0.5-0.7c0.3-0.2,0.6-0.4,0.9-0.4
			c0.4,0,0.6-0.2,0.9-0.6l0.5-0.6l0.2,0.6c0.1,0.4,0.3,0.6,0.6,0.6c0.2,0,0.4-0.2,0.5-0.5c0.1-0.4,0.4-0.6,0.7-0.6
			c0.2,0,0.4-0.1,0.5-0.2c0.1-0.1,0.1-0.4,0.1-0.9c0-1-0.1-1.6-0.4-1.7c-0.2-0.2-1.1-0.2-2.4-0.2c-1.6,0-2.4,0.1-2.4,0.4
			s-0.7,0.4-2,0.6c-2,0.1-2.9,0.6-2.9,1.4c0,0.3,0.1,0.7,0.3,1.1c0.2,0.4,0.4,0.6,0.6,0.6c0.2,0,0.4,0.2,0.7,0.6
			c0.3,0.4,0.2,0.8-0.1,1.1c-0.4,0.4-0.4,0.5-0.3,0.5c0.1,0,0.1,0.2-0.3,0.7c-0.3,0.4-0.4,0.8-0.4,1.2c0,0.2-0.2,0.6-0.7,1.1
			c-0.5,0.5-0.7,0.9-0.7,1c0,0.3-0.3,0.4-0.9,0.4c-0.4,0-0.7,0-0.8-0.1c-0.1-0.1-0.2-0.4-0.3-0.8c-0.1-0.7-0.4-1.1-0.7-1.4
			c-0.4-0.2-0.6-0.6-0.6-1.1c0-0.5-0.1-0.8-0.4-1c-0.2-0.1-0.4-0.5-0.6-1.2c-0.1-0.7-0.2-1.2-0.2-1.5s0.1-0.5,0.2-0.5
			c0.1-0.1,0.4-0.1,0.7-0.2c0.5-0.1,0.8-0.1,1-0.2c0.2-0.1,0.3-0.3,0.3-0.6c0-0.2,0-0.5-0.1-0.6l-0.2-0.9l-2.4,0.2
			c-1.6,0.1-2.4,0.2-2.5,0.4c-0.1,0.2-0.4,0.3-0.8,0.3c-0.4,0-0.6-0.1-0.6-0.3c0-0.2-0.2-0.3-0.5-0.5c-0.4-0.2-0.7-0.2-1.1-0.2
			c-0.6,0-0.9,0.2-0.9,0.6c0,0.2-0.2,0.4-0.7,0.4c-0.2,0-0.4,0.1-0.4,0.2c0.2,0.1,0.4,0.3,0.4,0.6c0,0.4,0.1,0.5,0.4,0.5
			c0.2,0,0.4,0.1,0.6,0.4c0.1,0.3,0.5,0.5,1.1,0.6c0.7,0.1,1.1,0.4,1.3,0.8c0.2,0.4,0.4,0.6,0.7,0.6c0.2,0,0.3,0.3,0.3,0.8
			s0.1,0.8,0.4,0.8c0.3,0,0.4,0.2,0.4,0.5c0,0.4,0.2,0.7,0.6,0.9c0.2,0.2,0.4,0.4,0.3,0.6c0,0.2,0.1,0.4,0.3,0.5
			c0.3,0.1,0.6,0.4,0.7,0.9c0.3,0.6,0.5,0.8,0.6,0.8c0.1,0,0.2,0.2,0.2,0.5c0,0.3,0.2,0.5,0.6,0.7c0.3,0.1,0.4,0.3,0.4,0.6
			c0,0.1,0,0.3-0.1,0.5s-0.1,0.4-0.1,0.6c0,0.2-0.2,0.4-0.5,0.5c-0.4,0.1-0.6,0.4-0.7,1c-0.1,0.6-0.3,0.8-0.4,0.8
			c-0.2,0-0.6,0.3-1.1,0.9c-0.5,0.6-0.8,1.1-0.8,1.3c0,0.3-0.1,0.5-0.4,0.5c-0.3,0-0.4,0.1-0.4,0.4s-0.2,0.5-0.7,0.7
			c-0.5,0.2-0.7,0.6-0.7,1.2c0,0.3,0,0.5-0.1,0.6c-0.1,0.1-0.2,0.2-0.4,0.2c-0.2,0-0.6,0.1-1.2,0.1c-0.9,0.1-1.5,0.2-1.8,0.4
			c-0.2,0.2-0.4,0.7-0.4,1.5C240,103.4,240.1,103.7,240.4,103.7z M251.8,93c0.2,0,0.3,0.1,0.3,0.3c0,0.2-0.1,0.3-0.3,0.3
			c-0.2,0-0.3-0.1-0.3-0.3C251.6,93.1,251.7,93,251.8,93z M247.5,81c0,0-0.1-0.1-0.1-0.3c0-0.1,0-0.2,0-0.3c0-0.1,0-0.1,0.1-0.1
			l0.1,0.2C247.7,80.8,247.6,81,247.5,81z M248.1,85.6c-0.1,0-0.1-0.1-0.1-0.2c0-0.1,0-0.1,0.1-0.1c0.1,0,0.2,0,0.2,0.1
			C248.3,85.5,248.2,85.6,248.1,85.6z M248.6,87.4l-0.1-0.3c0-0.1,0-0.2,0-0.3c0-0.1,0-0.1,0.1-0.1C248.8,87,248.7,87.2,248.6,87.4z
			"/>
		<path d="M243.3,86.7c0-0.2,0-0.4-0.1-0.6c-0.1-0.4-0.3-0.4-0.6-0.1c-0.1,0.1,0,0.4,0.3,0.8l0.4,0.7L243.3,86.7z"/>
		<path d="M123.3,785.3c0.1,0,0.2-0.2,0.2-0.5c0-0.2,0-0.4-0.1-0.4c-0.1,0-0.1-0.1-0.1-0.3c0-0.2,0.1-0.4,0.2-0.6
			c0.1-0.3,0.1-0.5-0.2-0.6c-0.2-0.2-0.5-0.3-0.9-0.3c-0.5,0-0.8,0.1-1.1,0.4c-0.3,0.2-0.4,0.3-0.5,0.2c-0.1-0.1-0.4-0.1-0.8,0
			c-0.5,0.1-1.4,0.2-2.6,0.2c-0.9,0-1.4,0-1.5-0.1c-0.1-0.1-0.2,0-0.4,0.2c-0.1,0.1-0.3,0.2-0.4,0.2c-0.2,0-0.4,0-0.7-0.1
			c-0.7-0.2-1.1-0.2-1.3-0.2c-0.1,0-0.2,0-0.2,0c-0.1,0-0.3,0.1-0.4,0.3c-0.1,0.2-0.2,0.4-0.2,0.5c0,0.1,0,0.1,0.1,0.2
			c0,0,0.1,0.2,0.1,0.5c0,0.1,0,0.2-0.1,0.3c-0.1,0-0.2,0.1-0.3,0.1c-0.3,0-0.5,0.1-0.5,0.3c0,0,0,0.1,0.1,0.2
			c0.1,0.1,0.1,0.3,0.1,0.6c0,0.3-0.1,0.4-0.1,0.5c0,0.5,0.2,0.8,0.6,0.8c0.3,0,0.4-0.1,0.4-0.2c0-0.1,0.1-0.2,0.2-0.2
			c0.1,0,0.1,0,0.2-0.1c0,0,0-0.1,0-0.2c0-0.1-0.1-0.2-0.2-0.2c-0.1-0.1-0.1-0.1-0.1-0.2c0,0,0-0.1,0-0.1c0,0,0-0.1,0.1-0.1
			c0,0,0.1,0,0.2-0.1c0.2-0.1,0.2-0.2,0.2-0.3c0,0,0-0.1,0-0.2c0-0.1,0-0.1,0-0.2c0-0.1,0-0.2,0.1-0.2c0.1-0.1,0.1-0.3,0-0.6
			c-0.1-0.3-0.1-0.4,0-0.4c0.1,0,0.1,0.1,0.1,0.2c0,0.1,0.2,0.2,0.5,0.4c0.4,0.1,0.7,0.2,1.1,0.2c0.4,0,0.7,0.1,0.8,0.3
			c0.2,0.2,0.3,0.2,0.5,0.2c0.1,0,0.1,0,0.1,0c0.1,0,0.1,0,0,0.1c-0.3,0.3-0.4,2.2-0.5,5.8c0,0.8-0.1,1.2-0.3,1.4
			c-0.2,0.1-0.3,0.3-0.3,0.4c0,0.1-0.3,0.2-0.8,0.2l-0.7,0.1l-0.1,0.5c0,0,0,0.1,0,0.1c0,0,0,0.1,0,0.1c0,0.2,0.1,0.4,0.4,0.7
			c0.3,0.3,0.5,0.4,0.7,0.4c0.1,0,0.1,0,0.1-0.1c0-0.1,0-0.1-0.1-0.1c-0.1,0-0.1,0-0.1-0.1c0-0.1,0.2-0.1,0.5-0.1c0.1,0,0.4,0,0.8,0
			c0.4,0,0.7,0,0.9,0c0.6,0,0.9-0.1,1.1-0.2c0.1-0.1,0.3-0.2,0.6-0.1c0.2,0.1,0.3,0,0.4-0.1c0.1-0.1,0.2-0.1,0.3-0.1
			c0.1,0,0.3-0.1,0.5-0.2c0.1-0.1,0.2-0.2,0.2-0.3c0-0.1-0.1-0.2-0.2-0.5c-0.2-0.3-0.3-0.4-0.5-0.4c-0.1,0-0.2-0.1-0.2-0.2
			c0-0.1-0.1-0.2-0.3-0.1c0,0-0.1,0-0.1,0c-0.1,0-0.1,0-0.1,0c-0.1,0-0.2,0-0.3-0.1c0-0.1-0.1-0.3-0.1-0.5v-0.4c0-0.5,0-0.8,0-0.9
			c0-0.1,0.1-0.2,0.2-0.2c0.2,0,0.2-0.1,0.2-0.4c0-0.3-0.1-0.5-0.2-0.5s-0.2-0.4-0.2-1.1c0-0.8,0.1-1.2,0.2-1.4
			c0.1-0.1,0.2-0.5,0.2-1.2c0-0.7,0.1-1,0.1-1.1c0.1-0.2,0.5-0.2,1.2-0.2c1,0,1.5,0.1,1.6,0.4c0,0.1,0.1,0.2,0.4,0.5
			c0.2,0.2,0.3,0.4,0.3,0.8c0,0.3,0.1,0.5,0.1,0.5c0,0.1,0.2,0.1,0.4,0.1c0.2,0,0.4,0,0.4-0.1c0-0.1,0.1-0.2,0.3-0.2
			c0.2-0.1,0.3-0.2,0.3-0.4c0-0.2-0.1-0.4-0.2-0.5C123.2,785.4,123.2,785.3,123.3,785.3z"/>
		<path d="M140.8,790.2c-0.1,0-0.3,0.2-0.5,0.5c-0.3,0.3-0.4,0.6-0.4,0.7c0,0.1-0.1,0.2-0.4,0.2c-0.1,0-0.2,0-0.3,0.1
			c0,0-0.1,0.1-0.1,0.1c0,0,0,0.1,0,0.3c0,0.2-0.1,0.3-0.4,0.3c0,0-0.1,0-0.1,0c-0.1,0-0.1,0-0.2,0c-0.2,0-0.4,0.1-0.6,0.3
			c-0.2,0.2-0.4,0.3-0.6,0.3c-0.1,0-0.2-0.1-0.2-0.2c0-0.1-0.1-0.1-0.4,0c-0.2,0.1-0.6,0.2-1.2,0.2c-0.5,0-0.7,0-0.7-0.1
			c0-0.1-0.1-0.1-0.2-0.1c-0.1,0-0.1-0.1-0.2-0.2c-0.1-0.2-0.1-0.3-0.1-0.4c0-0.1,0-0.2,0-0.3s0-0.4,0-0.6c0-0.3,0-0.5,0-0.8
			c0-0.3,0-0.5,0-0.8c0-0.3,0-0.5,0-0.6v-0.2c0-0.1,0.4-0.1,1.3-0.1c0.7,0,1.2,0.1,1.4,0.2c0.2,0.1,0.4,0.4,0.4,0.8
			c0,0.2,0,0.3,0.1,0.3c0,0,0.1,0,0.2,0c0.1-0.1,0.3-0.1,0.5-0.1c0.1,0,0.2,0,0.3-0.1c0-0.1,0.1-0.2,0.1-0.5c0-0.1,0-0.2,0-0.3
			c0-0.2,0-0.3,0-0.4v-0.2c0-0.3,0-0.6,0.1-0.7c0.1-0.1,0.1-0.3,0-0.4c-0.1-0.1-0.1-0.3,0.1-0.4c0.1-0.1,0.2-0.2,0.2-0.4
			c0-0.3-0.3-0.4-1-0.4c-0.4,0-0.6,0.2-0.6,0.5c0,0.1,0,0.2,0.1,0.3c0,0.2,0,0.4,0,0.5c-0.1,0.1-0.3,0.2-0.9,0.3
			c-0.5,0.1-1,0.1-1.5,0.1h-0.6v-0.6c0-0.4,0.1-0.6,0.2-0.6c0.1,0,0.2-0.1,0.2-0.4c0-0.3-0.1-0.5-0.2-0.9c-0.1-0.2-0.2-0.4-0.1-0.4
			c0-0.1,0.1-0.1,0.2-0.3c0.2-0.1,0.3-0.3,0.2-0.5c0,0,0-0.1,0-0.2c0-0.1,0.1-0.3,0.4-0.3c0.3-0.1,0.7-0.1,1.5-0.2
			c0.7,0,1.1-0.1,1.1-0.1c0.3,0,0.5,0.1,0.6,0.2c0.1,0.2,0.3,0.3,0.5,0.4c0.2,0.1,0.3,0.2,0.3,0.3c0,0.1,0.1,0.2,0.3,0.3
			c0.2,0.1,0.3,0.2,0.3,0.3c0,0.2,0.1,0.3,0.3,0.5c0.2,0.2,0.4,0.2,0.6,0.2h0c0.3,0,0.4-0.2,0.4-0.6c0-0.2-0.1-0.3-0.2-0.5
			c-0.1-0.1-0.2-0.3-0.2-0.5c0-0.3-0.1-0.5-0.2-0.5c-0.1,0-0.1-0.1,0-0.4c0.1-0.1,0.1-0.2,0.1-0.3c0,0-0.1-0.1-0.1-0.1
			c-0.1-0.1-0.2-0.2-0.2-0.3c0-0.1-0.1-0.3-0.3-0.5c-0.2-0.2-0.4-0.3-0.6-0.1c-0.3,0.1-1.8,0.3-4.7,0.4h-0.7c-1.5,0-2.2-0.1-2.3-0.3
			c0-0.1-0.1-0.1-0.2-0.1c-0.1,0-0.2,0-0.2,0.1l0,0.1c0,0.1,0,0.1,0,0.1c0,0,0,0.1,0,0.2c0,0.1,0,0.2,0,0.2c0,0.2-0.1,0.3-0.3,0.3
			c-0.2,0.1-0.3,0.2-0.2,0.5c0.1,0.2,0.1,0.4,0.2,0.5s0.2,0.1,0.3,0.1c0.1,0,0.3,0,0.4,0c0.1,0,0.2,0,0.4,0c0.3,0,0.5,0.1,0.6,0.4
			c0.1,0.2,0.1,0.7,0.1,1.4c0,0.9-0.1,1.4-0.2,1.4c-0.1,0-0.1,0.2,0,0.4c0.1,0.2,0.1,0.4,0,0.6c-0.1,0.2-0.2,0.3-0.3,0.3
			c-0.1,0-0.1,0.1,0.1,0.2c0.1,0.1,0.1,0.3,0.1,0.6c0,0.5-0.1,1.5-0.2,2.8l-0.1,0.9h-0.6c-0.4,0-0.6,0.1-0.6,0.3
			c0,0.2-0.1,0.3-0.3,0.3c-0.1,0-0.2,0.1-0.2,0.3c0,0.3,0.1,0.5,0.3,0.6c0.2,0.1,0.3,0.2,0.3,0.4c0,0.1,0.2,0.1,0.7,0.1
			c0.5,0,0.8-0.1,0.9-0.3c0.1-0.1,0.5-0.2,1.2-0.2c0.5,0,0.9,0,1.3,0c0.7,0,1.1,0.1,1.2,0.2c0,0.1,0.2,0.1,0.4,0
			c0.2-0.1,0.7-0.2,1.5-0.2c0.8,0,1.3,0,1.5-0.1c0.2,0,0.3-0.1,0.5-0.3c0.2-0.2,0.3-0.3,0.2-0.5c0-0.2,0-0.3,0.1-0.4
			c0.1-0.1,0.2-0.3,0.2-0.8c0-0.3,0-0.5,0-0.6c0-0.1,0.1-0.1,0.2-0.1c0.2,0,0.3-0.2,0.3-0.5c0-0.2-0.1-0.4-0.2-0.6
			C141.1,790.3,141,790.2,140.8,790.2z"/>
		<path d="M130.5,791.9c0,0.1,0,0.2,0.1,0.2c0,0,0.1,0,0.1-0.1c0.1-0.2,0.1-0.3,0-0.3C130.6,791.7,130.5,791.8,130.5,791.9z"/>
		<path d="M161.4,782c-0.1,0-0.2,0-0.3,0.1c-0.2,0.1-0.3,0.1-0.3,0.1c-0.1,0-0.1-0.1-0.2-0.2c-0.1-0.2-0.3-0.3-0.4-0.3
			c-0.1,0-0.2-0.1-0.2-0.3c0-0.2-0.1-0.3-0.3-0.3c-0.2,0-0.3,0.1-0.3,0.3c0,0.2,0.1,0.3,0.2,0.3s0.2,0.1,0.2,0.3
			c0,0.2-0.1,0.3-0.2,0.3c-0.2,0-0.3-0.1-0.3-0.4c-0.1-0.2-0.2-0.4-0.3-0.4c-0.1,0-0.1,0-0.2,0.1c-0.2,0.2-0.2,0.3,0,0.3
			c0.1,0,0.2,0.1,0.2,0.1c0,0.1-0.1,0.2-0.4,0.2c-0.2,0-0.4,0-0.4-0.1c0-0.1-0.1-0.1-0.4-0.1c-0.4,0-0.8,0.1-1.1,0.2
			c-0.4,0.2-0.6,0.4-0.6,0.7c0,0.3,0.3,0.5,0.8,0.6c0.4,0.1,0.6,0.1,0.6,0.2c0,0.1,0.1,0.1,0.3,0.1c0.3,0,0.5,0.2,0.6,0.6
			c0.1,0.4,0.2,1.2,0.2,2.4c0,1.4,0.1,2.2,0.1,2.4c0.1,0.1,0,0.3,0,0.6l-0.1,0.4l-0.5-0.5c-0.4-0.3-0.5-0.5-0.5-0.6
			c0-0.1-0.1-0.2-0.2-0.3s-0.3-0.2-0.4-0.4c-0.2-0.1-0.3-0.2-0.3-0.2c-0.1-0.1-0.3-0.2-0.3-0.2c-0.1,0-0.2-0.1-0.2-0.2
			c0-0.1-0.1-0.2-0.2-0.3c-0.1-0.1-0.3-0.2-0.4-0.2s-0.1-0.1-0.1-0.2c0-0.1-0.1-0.2-0.2-0.2c-0.1,0-0.1,0-0.1-0.1
			c0-0.1-0.1-0.2-0.4-0.5c-0.2-0.3-0.4-0.4-0.4-0.5c0-0.1-0.1-0.2-0.3-0.2c-0.2,0-0.3-0.1-0.5-0.2c-0.2-0.1-0.2-0.3-0.2-0.4
			c0-0.1-0.2-0.3-0.5-0.7c-0.3-0.4-0.5-0.6-0.5-0.7c0-0.1-0.1-0.2-0.3-0.4c-0.2-0.2-0.3-0.4-0.3-0.4c0-0.3-0.6-0.5-1.8-0.6
			c-0.6,0-0.9-0.1-0.9-0.1c-0.3,0-0.4,0.1-0.4,0.2c0,0.1,0,0.2,0,0.4c0,0.2,0,0.4,0.1,0.6c0.1,0.2,0.1,0.3,0.2,0.3
			c0.1,0,0.2,0.2,0.3,0.6c0.1,0.4,0.2,0.6,0.2,0.6c0.1,0,0.1,0.3,0.1,0.8c0,0.5,0,0.8-0.1,0.8c-0.1,0-0.1,0.1-0.1,0.4
			c0,0.2,0.1,0.6,0.2,1c0.1,0.2,0.1,0.6,0.1,1.1c0,0.7-0.1,1.1-0.2,1.1c-0.1,0-0.1,0.2-0.1,0.7c0,0.5,0,1.1-0.1,1.5
			c0,0.4-0.1,0.6-0.1,0.7c-0.1,0.1-0.2,0.2-0.4,0.2c-0.3,0.1-0.4,0.2-0.4,0.4c0,0.2,0.1,0.4,0.4,0.6c0.2,0.2,0.3,0.3,0.5,0.3
			c0.2,0,0.8,0,1.7,0c1,0,1.6,0,1.8-0.1c0.2-0.1,0.3-0.3,0.3-0.8c0-0.3-0.1-0.4-0.3-0.5c-0.2-0.1-0.3-0.1-0.3-0.2
			c0-0.1-0.2-0.1-0.6-0.1c-0.4,0-0.7-0.1-0.9-0.3c-0.2-0.2-0.2-0.3-0.1-0.4c0.1-0.1,0.2-0.2,0.2-0.6c0-0.3,0-0.5-0.1-0.5
			c-0.1-0.1-0.1-0.9-0.1-2.6c0-1.7,0.1-2.5,0.2-2.5c0.1,0,0.3,0.1,0.4,0.2c0.1,0.1,0.3,0.2,0.5,0.3c0.3,0.1,0.4,0.3,0.5,0.4
			c0,0.2,0.3,0.5,0.8,1.1c0.5,0.5,0.9,0.9,1.3,1.1c0.2,0.1,0.3,0.2,0.3,0.3c0,0.1,0.2,0.2,0.5,0.6c0.7,0.7,1.1,1.1,1.1,1.4
			c0,0.1,0.1,0.1,0.3,0.1c0.2,0,0.3,0,0.3,0.1c0,0.1,0.1,0.3,0.4,0.5c0.2,0.2,0.4,0.4,0.4,0.6c0,0.1,0.1,0.3,0.3,0.5
			c0.2,0.2,0.3,0.3,0.4,0.3c0.1,0,0.3,0.2,0.6,0.5c0.3,0.3,0.5,0.5,0.7,0.6c0.1,0.1,0.2,0.1,0.3,0.1c0.4,0,0.6-0.2,0.6-0.6
			c0-0.1,0-0.2,0-0.4c0-0.9-0.1-1.4-0.2-1.6c-0.1-0.1-0.1-0.5-0.1-1.3v-0.4c0-1,0-1.6-0.1-1.6c-0.1-0.1-0.2-0.4-0.2-1
			c0-0.5,0-0.8,0.1-0.8c0.1-0.1,0.2-0.2,0.2-0.5c0-0.3,0-0.4,0.1-0.4c0.1,0,0.1-0.1,0.1-0.4c0-0.3,0-0.4-0.1-0.4
			c-0.1,0-0.1-0.1-0.1-0.4c0-0.4,0.1-0.7,0.2-1c0.2-0.3,0.4-0.5,0.7-0.5c0.2,0,0.4-0.1,0.4-0.1c0.1,0,0.1-0.2,0.1-0.5v-0.2
			C161.8,782.3,161.7,782,161.4,782z"/>
		<path d="M193.1,785.7c-0.2-0.1-0.2-0.2-0.2-0.5c0-0.3,0-0.5-0.1-0.5c-0.1,0-0.1-0.1-0.1-0.4c0-0.3-0.1-0.4-0.2-0.4
			c-0.1,0-0.2-0.1-0.3-0.3c-0.1-0.2-0.2-0.3-0.3-0.4c-0.1-0.1-0.2-0.2-0.2-0.4c0-0.2-0.1-0.3-0.4-0.3c-0.7,0-1-0.1-1-0.4
			c0-0.1-0.1-0.2-0.2-0.2c-0.1,0-0.2,0-0.2-0.1c0-0.1-0.1-0.1-0.3-0.1c-0.2,0-0.3-0.1-0.4-0.2c0-0.1-0.5-0.2-1.5-0.2
			c-0.9,0-1.5,0.1-1.6,0.2c-0.1,0.1-0.2,0.2-0.4,0.2c-0.2,0-0.3,0.1-0.4,0.3c-0.1,0.2-0.3,0.4-0.6,0.4c-0.3,0-0.6,0.1-1.1,0.2
			c-0.5,0.1-0.7,0.3-0.8,0.5c0,0.2-0.2,0.4-0.5,0.7c-0.3,0.3-0.4,0.5-0.4,0.5c0,0.1-0.1,0.1-0.2,0.1c-0.1,0-0.2,0.1-0.3,0.4
			c-0.1,0.2-0.2,0.5-0.3,0.7c-0.2,0.3-0.2,0.8-0.2,1.8c0,1.2,0.1,2.1,0.4,2.9c0.5,1.4,0.9,2.2,1.2,2.3c0.2,0,0.3,0.1,0.3,0.3
			c0,0.2,0.2,0.2,0.4,0.2c0.2,0,0.4,0,0.4,0.1s0.1,0.1,0.3,0.1c0.2,0,0.3,0.1,0.3,0.4c0,0.2,0,0.3,0.1,0.4c0.1,0.1,0.2,0,0.4-0.1
			c0.1-0.1,0.2-0.1,0.3,0c0.2,0.1,0.9,0.2,2.2,0.2c1.1,0,1.7-0.1,1.7-0.2c0-0.1,0.3-0.2,0.7-0.2c0.4,0,0.6-0.1,0.6-0.2
			c0-0.2,0.1-0.3,0.2-0.3c0,0,0.2-0.1,0.4-0.3c0.3-0.2,0.4-0.3,0.5-0.3c0.1,0,0.2-0.1,0.2-0.3c0.1-0.2,0.2-0.3,0.3-0.3
			c0.1,0,0.2-0.1,0.3-0.3c0-0.2,0.2-0.3,0.4-0.3c0.2-0.1,0.3-0.1,0.3-0.2c0-0.1,0.1-0.1,0.2-0.1c0.1,0,0.2-0.2,0.2-0.6
			c0-0.3,0-0.5-0.1-0.5c-0.1,0-0.1-0.1,0-0.2c0.1-0.1,0.2-0.8,0.2-2.1c0-0.3,0-0.7,0-1.1C193.3,786,193.2,785.7,193.1,785.7z
			 M190.9,788.8c-0.1,0-0.2,0.2-0.2,0.4c0,0.3-0.1,0.4-0.2,0.5c-0.1,0.1-0.2,0.4-0.3,0.8c-0.1,0.4-0.1,0.6-0.3,0.6
			c-0.1,0-0.2,0-0.2,0.1c0,0.1-0.1,0.2-0.4,0.2c-0.3,0.1-0.4,0.2-0.4,0.3c0,0.1,0,0.2-0.1,0.2c-0.1,0.1-0.2,0.1-0.4,0.2
			c-0.1,0.1-0.2,0.1-0.3,0.1c0,0.1-0.2,0.1-0.4,0.1c-0.2,0-0.3,0.1-0.5,0.2c-0.1,0.1-0.2,0.1-0.4,0.1c-0.2,0-0.4,0-0.7-0.1
			c-0.5-0.1-1-0.3-1.3-0.6c-0.3-0.3-0.7-0.8-1-1.5c-0.3-0.5-0.4-0.9-0.5-1.1c0-0.2-0.1-0.7-0.1-1.4c0-0.7,0-1.1,0.1-1.4
			c0-0.2,0.1-0.5,0.3-0.8c0.3-0.5,0.6-0.9,1-1.3c0.4-0.4,0.8-0.6,1-0.7c0.3,0,0.5-0.1,0.5-0.3c0-0.1,0.1-0.2,0.2-0.2
			c0.1,0,0.2,0,0.2-0.1c0-0.1,0.1-0.1,0.3-0.1c0.2,0,0.3,0,0.3,0.1c0,0.1,0.3,0.1,0.9,0.1c0.5,0,0.8,0.1,0.8,0.2
			c0,0.1,0.1,0.2,0.3,0.3c0.2,0.1,0.3,0.2,0.3,0.3c0,0.1,0.1,0.2,0.3,0.3c0.3,0.1,0.5,0.4,0.5,0.8c0,0.2,0.1,0.5,0.3,0.8
			c0.2,0.3,0.3,0.7,0.3,1.1c0,0.5,0,0.7,0.1,0.8c0.1,0.1,0.1,0.2,0.1,0.4C191.1,788.6,191,788.7,190.9,788.8z"/>
		<path d="M210.9,783.9c0-0.3-0.1-0.5-0.2-0.6c-0.1-0.1-0.1-0.2,0-0.4c0.1-0.1,0.1-0.2,0.1-0.2c0-0.1-0.1-0.2-0.2-0.2
			c-0.1-0.1-0.2-0.2-0.2-0.3c0-0.2-0.1-0.3-0.3-0.5c-0.2-0.2-0.4-0.3-0.5-0.3c-0.1,0-0.2,0-0.2,0.1c0,0.1-0.3,0.1-0.9,0.2
			c-0.5,0.1-1.1,0.1-1.7,0.1c-0.6,0-0.9,0-1,0.1c-0.1,0-0.5,0.1-1.4,0.1c-0.9,0.1-1.8,0.2-2.7,0.3c-0.9,0.1-1.4,0.2-1.4,0.2
			c0,0,0,0.1,0,0.2c0,0.1,0,0.2,0.1,0.3c0.1,0.2,0.1,0.3,0.2,0.4c0.1,0,0.3,0.1,0.6,0.1c0.5,0,0.9,0.1,1,0.3
			c0.1,0.2,0.2,0.7,0.2,1.6c0,0.9-0.1,1.4-0.2,1.5c-0.1,0.1-0.1,0.2,0,0.4c0.1,0.3,0.2,0.5,0,0.7c-0.1,0.2-0.2,0.3-0.3,0.3
			c-0.1,0,0,0.1,0.1,0.2c0.1,0.1,0.1,0.3,0.1,0.6c0,0.1,0,0.4-0.1,0.8c-0.1,1.4-0.2,2.3-0.2,2.6s-0.1,0.5-0.3,0.6
			c-0.2,0.1-0.5,0.3-0.8,0.6l-0.5,0.6h5v-0.5c0-0.2,0-0.4-0.1-0.4c0-0.1-0.1-0.1-0.3-0.1c-0.2,0-0.4,0-0.4-0.1
			c0-0.1-0.1-0.1-0.2-0.1s-0.2-0.1-0.3-0.3c0-0.1,0-0.4,0-1.2c0-1.2,0-2.1,0.1-2.8c0-0.1,0.5-0.1,1.4-0.1c0.8,0,1.3,0.1,1.5,0.2
			c0.3,0.1,0.4,0.4,0.4,0.9c0,0.3,0,0.5,0.1,0.5c0.1,0,0.1-0.1,0.3-0.2c0.1-0.1,0.3-0.2,0.5-0.1c0.2,0.1,0.3,0,0.3-0.2
			c0-0.2,0-0.3,0.1-0.4c0.1-0.1,0.1-0.2,0-0.2c-0.1-0.1-0.2-0.3-0.2-0.6c0-0.4,0.1-0.7,0.2-0.8c0.1-0.1,0.1-0.1,0.1-0.2
			c0-0.1,0-0.1-0.1-0.2c-0.1-0.1-0.1-0.2-0.1-0.2c0-0.1,0-0.1,0.1-0.2c0.2-0.1,0.2-0.2,0.2-0.4c0-0.3-0.4-0.4-1.1-0.4
			c-0.4,0-0.6,0.2-0.6,0.5c0,0.1,0,0.2,0.1,0.3c0.1,0.2,0,0.4,0,0.5c-0.1,0.1-0.4,0.2-1,0.3c-0.6,0.1-1.1,0.2-1.6,0.2h-0.5v-0.6
			c0-0.4,0.1-0.6,0.2-0.7c0.1-0.1,0.2-0.2,0.2-0.4c0-0.3-0.1-0.5-0.2-0.8c-0.1-0.2-0.2-0.4-0.2-0.4s0.1-0.1,0.2-0.3
			c0.2-0.2,0.3-0.4,0.2-0.6c0-0.1,0-0.1,0-0.2c0-0.1,0.1-0.2,0.4-0.3c0.3-0.1,0.8-0.1,1.6-0.1c0.7,0,1.1-0.1,1.1-0.1
			c0.3,0,0.5,0.1,0.7,0.2c0.2,0.2,0.3,0.3,0.5,0.4c0.2,0.1,0.3,0.2,0.3,0.3c0,0.1,0.1,0.3,0.3,0.4c0.2,0.1,0.4,0.3,0.5,0.6
			c0.1,0.4,0.4,0.5,0.8,0.5c0.1,0,0.2,0,0.3-0.1c0.1-0.1,0.2-0.2,0.2-0.6c0-0.3-0.1-0.5-0.2-0.5
			C210.9,784.4,210.9,784.2,210.9,783.9z"/>
		<path d="M232.4,779.6c0-0.1-0.1-0.1-0.3-0.1s-0.3,0-0.3,0.1c0,0.1,0.1,0.2,0.3,0.2S232.4,779.7,232.4,779.6z"/>
		<path d="M240,782.4c-0.1,0-0.2,0-0.2-0.1c0-0.1-0.1-0.2-0.4-0.3c-0.3-0.1-0.4-0.3-0.5-0.5l-0.2-0.3c-0.1-0.1-0.2-0.1-0.2,0.1
			c0,0.1-0.3,0.1-0.8,0.1c-0.6,0-0.9,0-0.9-0.1c0-0.1-0.1-0.1-0.3-0.1c-0.5,0-0.8-0.1-0.8-0.4c0-0.1-0.1-0.2-0.3-0.2
			s-0.3,0.1-0.2,0.3c0,0,0,0,0,0.1c0,0,0,0,0,0.1c0,0.1-0.6,0.2-1.8,0.2h-1.8l-0.5,0.5c-0.3,0.3-0.5,0.5-0.5,0.7
			c0,0.2,0.2,0.4,0.7,0.4c0.2,0,0.3,0,0.3,0.1c0,0.1,0,0.1,0.1,0.1c0.2,0,0.4,0.2,0.6,0.5c0.2,0.3,0.3,0.7,0.3,1.2
			c0,0.4,0.1,0.6,0.1,0.6c0,0.2-0.1,0.4-0.2,0.5c-0.2,0.1-0.2,0.2-0.1,0.3c0.1,0.1,0.2,0.3,0.2,0.7c0,0.3-0.1,0.5-0.2,0.5
			c-0.2,0-0.2,0,0,0.1c0.1,0.1,0.1,0.3,0,0.6c-0.1,0.3-0.1,0.5,0.1,0.6c0.1,0.1,0.1,0.2,0.1,0.3c0,0.2-0.1,0.4-0.2,0.5
			c-0.1,0.1-0.1,0.6-0.2,1.6l0,1.5l-0.4,0.2c-0.2,0.1-0.5,0.2-1.1,0.2c-0.3,0-0.5,0.1-0.5,0.1s-0.1,0.2-0.1,0.4
			c0,0.2,0.2,0.5,0.6,0.8c0.2,0.1,0.3,0.2,0.5,0.2c0.2,0,0.3-0.1,0.3-0.2c0.1-0.1,0.8-0.2,2.1-0.2c1.4-0.1,2.1-0.1,2.2-0.3
			c0.1-0.1,0.2-0.2,0.3-0.2c0.1,0,0.2-0.1,0.2-0.2c0-0.1-0.1-0.2-0.4-0.2c-0.3,0-0.4-0.1-0.5-0.3c0-0.2-0.2-0.3-0.5-0.4
			c-0.4-0.1-0.5-0.2-0.5-0.4c0-0.1,0-0.2,0.1-0.3c0.2-0.2,0.2-0.3,0.1-0.4c-0.1,0-0.2-0.6-0.2-1.6c0-0.3,0-0.6,0-1
			c0-0.3,0-0.4,0.1-0.5c0-0.1,0.1-0.1,0.2-0.1c0.2,0,0.5,0,0.8,0.1c0.3,0.1,0.5,0.2,0.6,0.3c0.1,0.1,0.7,0.2,1.7,0.2
			c0.8,0,1.2,0,1.2-0.1c0.1-0.1,0-0.2-0.2-0.3c-0.2-0.1-0.4-0.2-0.5-0.4c-0.1-0.1-0.2-0.2-0.2-0.2c0,0,0.1-0.1,0.3-0.1
			c0.3-0.1,0.4-0.1,0.4-0.2c0-0.1,0.1-0.2,0.4-0.3c0.3-0.1,0.4-0.2,0.4-0.4c0-0.5,0.1-0.7,0.3-0.7c0.1,0,0.2-0.1,0.4-0.2
			c0.2-0.2,0.2-0.7,0.2-1.5c0-1-0.1-1.5-0.3-1.7C240.3,782.5,240.2,782.4,240,782.4z M238.5,786.1c0,0-0.1,0.1-0.4,0.1h-0.1
			c0,0-0.1,0-0.1,0c-0.1,0-0.1,0,0,0.1c0.1,0.1,0.2,0.1,0.2,0.2c0,0.1-0.1,0.3-0.3,0.5c-0.2,0.2-0.5,0.3-0.7,0.3
			c-0.3,0-0.6,0.1-1.1,0.2c-0.1,0-0.2,0-0.3,0c-0.2,0-0.4-0.1-0.7-0.3c-0.2-0.2-0.3-0.3-0.4-0.3c0-0.1,0-0.1,0.1-0.2
			c0.1-0.1,0.2-0.7,0.2-1.6v-1.2c0-0.3,0.1-0.5,0.2-0.7c0.1-0.2,0.3-0.4,0.4-0.4h0.1l0.4,0.1c0.3,0,0.5,0.1,0.8,0.1
			c0.2,0.1,0.4,0.1,0.4,0.1c0,0.1,0.1,0.1,0.4,0.2c0.3,0.1,0.4,0.2,0.4,0.3c0,0.1,0.1,0.3,0.2,0.4c0.1,0.1,0.2,0.2,0.1,0.3
			c-0.1,0.1-0.1,0.3,0.1,0.6c0.1,0.2,0.2,0.4,0.2,0.6C238.6,785.3,238.5,785.6,238.5,786.1z"/>
		<path d="M236.8,780.6C236.8,780.6,236.9,780.5,236.8,780.6c0.1-0.1,0-0.1-0.2-0.1c-0.2,0-0.3,0.1-0.3,0.2
			C236.4,780.7,236.5,780.7,236.8,780.6C236.7,780.6,236.8,780.6,236.8,780.6z"/>
		<path d="M257.9,790.2c-0.1,0-0.3,0.2-0.5,0.5c-0.3,0.3-0.4,0.6-0.4,0.7c0,0.1-0.1,0.2-0.4,0.2c-0.1,0-0.2,0-0.3,0.1
			c0,0-0.1,0.1-0.1,0.1c0,0,0,0.1,0,0.3c0,0.2-0.1,0.3-0.4,0.3c0,0-0.1,0-0.1,0c-0.1,0-0.1,0-0.2,0c-0.2,0-0.4,0.1-0.6,0.3
			c-0.2,0.2-0.4,0.3-0.6,0.3c-0.1,0-0.2-0.1-0.2-0.2c0-0.1-0.1-0.1-0.4,0c-0.2,0.1-0.6,0.2-1.2,0.2c-0.5,0-0.7,0-0.7-0.1
			c0-0.1-0.1-0.1-0.2-0.1c-0.1,0-0.1-0.1-0.2-0.2c-0.1-0.2-0.1-0.3-0.1-0.4c0-0.1,0-0.2,0-0.3c0-0.2,0-0.4,0-0.6c0-0.3,0-0.5,0-0.8
			c0-0.3,0-0.5,0-0.8c0-0.3,0-0.5,0-0.6v-0.2c0-0.1,0.4-0.1,1.3-0.1c0.7,0,1.2,0.1,1.4,0.2c0.2,0.1,0.4,0.4,0.4,0.8
			c0,0.2,0,0.3,0.1,0.3c0,0,0.1,0,0.2,0c0.1-0.1,0.3-0.1,0.5-0.1c0.1,0,0.2,0,0.3-0.1c0-0.1,0.1-0.2,0.1-0.5c0-0.1,0-0.2,0-0.3
			c0-0.2,0-0.3,0-0.4v-0.2c0-0.3,0-0.6,0.1-0.7c0.1-0.1,0.1-0.3,0-0.4c-0.1-0.1-0.1-0.3,0.1-0.4c0.1-0.1,0.2-0.2,0.2-0.4
			c0-0.3-0.3-0.4-1-0.4c-0.4,0-0.6,0.2-0.6,0.5c0,0.1,0,0.2,0.1,0.3c0,0.2,0,0.4,0,0.5c-0.1,0.1-0.3,0.2-0.9,0.3
			c-0.5,0.1-1,0.1-1.5,0.1h-0.6v-0.6c0-0.4,0.1-0.6,0.2-0.6c0.1,0,0.2-0.1,0.2-0.4c0-0.3-0.1-0.5-0.2-0.9c-0.1-0.2-0.2-0.4-0.1-0.4
			c0-0.1,0.1-0.1,0.2-0.3c0.2-0.1,0.3-0.3,0.2-0.5c0,0,0-0.1,0-0.2c0-0.1,0.1-0.3,0.4-0.3c0.3-0.1,0.7-0.1,1.5-0.2
			c0.7,0,1.1-0.1,1.1-0.1c0.3,0,0.5,0.1,0.6,0.2c0.1,0.2,0.3,0.3,0.5,0.4c0.2,0.1,0.3,0.2,0.3,0.3c0,0.1,0.1,0.2,0.3,0.3
			c0.2,0.1,0.3,0.2,0.3,0.3c0,0.2,0.1,0.3,0.3,0.5c0.2,0.2,0.4,0.2,0.6,0.2h0c0.3,0,0.4-0.2,0.4-0.6c0-0.2-0.1-0.3-0.2-0.5
			c-0.1-0.1-0.2-0.3-0.2-0.5c0-0.3-0.1-0.5-0.2-0.5c-0.1,0-0.1-0.1,0-0.4c0.1-0.1,0.1-0.2,0.1-0.3c0,0-0.1-0.1-0.1-0.1
			c-0.1-0.1-0.2-0.2-0.2-0.3c0-0.1-0.1-0.3-0.3-0.5c-0.2-0.2-0.4-0.3-0.6-0.1c-0.3,0.1-1.8,0.3-4.7,0.4h-0.7c-1.5,0-2.2-0.1-2.3-0.3
			c0-0.1-0.1-0.1-0.2-0.1c-0.1,0-0.2,0-0.2,0.1l0,0.1c0,0.1,0,0.1,0,0.1c0,0,0,0.1,0,0.2c0,0.1,0,0.2,0,0.2c0,0.2-0.1,0.3-0.3,0.3
			c-0.2,0.1-0.3,0.2-0.2,0.5c0.1,0.2,0.1,0.4,0.2,0.5s0.2,0.1,0.3,0.1c0.1,0,0.3,0,0.4,0c0.1,0,0.2,0,0.4,0c0.3,0,0.5,0.1,0.6,0.4
			c0.1,0.2,0.1,0.7,0.1,1.4c0,0.9-0.1,1.4-0.2,1.4c-0.1,0-0.1,0.2,0,0.4c0.1,0.2,0.1,0.4,0,0.6c-0.1,0.2-0.2,0.3-0.3,0.3
			c-0.1,0-0.1,0.1,0.1,0.2c0.1,0.1,0.1,0.3,0.1,0.6c0,0.5-0.1,1.5-0.2,2.8l-0.1,0.9h-0.6c-0.4,0-0.6,0.1-0.6,0.3
			c0,0.2-0.1,0.3-0.3,0.3c-0.1,0-0.2,0.1-0.2,0.3c0,0.3,0.1,0.5,0.3,0.6c0.2,0.1,0.3,0.2,0.3,0.4c0,0.1,0.2,0.1,0.7,0.1
			c0.5,0,0.8-0.1,0.9-0.3c0.1-0.1,0.5-0.2,1.2-0.2c0.5,0,0.9,0,1.3,0c0.7,0,1.1,0.1,1.2,0.2c0,0.1,0.2,0.1,0.4,0
			c0.2-0.1,0.7-0.2,1.5-0.2c0.8,0,1.3,0,1.5-0.1c0.2,0,0.3-0.1,0.5-0.3c0.2-0.2,0.3-0.3,0.2-0.5c0-0.2,0-0.3,0.1-0.4
			c0.1-0.1,0.2-0.3,0.2-0.8c0-0.3,0-0.5,0-0.6c0-0.1,0.1-0.1,0.2-0.1c0.2,0,0.3-0.2,0.3-0.5c0-0.2-0.1-0.4-0.2-0.6
			C258.2,790.3,258,790.2,257.9,790.2z"/>
		<path d="M247.8,792c0.1-0.2,0.1-0.3,0-0.3c-0.1,0-0.2,0.1-0.2,0.2c0,0.1,0,0.2,0.1,0.2C247.8,792.1,247.8,792.1,247.8,792z"/>
		<path d="M278.5,782c-0.1,0-0.2,0-0.3,0.1c-0.2,0.1-0.3,0.1-0.3,0.1c-0.1,0-0.1-0.1-0.2-0.2c-0.1-0.2-0.3-0.3-0.4-0.3
			c-0.1,0-0.2-0.1-0.2-0.3c0-0.2-0.1-0.3-0.3-0.3c-0.2,0-0.3,0.1-0.3,0.3c0,0.2,0.1,0.3,0.2,0.3c0.1,0,0.2,0.1,0.2,0.3
			c0,0.2-0.1,0.3-0.2,0.3c-0.2,0-0.3-0.1-0.3-0.4c-0.1-0.2-0.2-0.4-0.3-0.4c-0.1,0-0.1,0-0.2,0.1c-0.2,0.2-0.2,0.3,0,0.3
			c0.1,0,0.2,0.1,0.2,0.1c0,0.1-0.1,0.2-0.4,0.2c-0.2,0-0.4,0-0.4-0.1c0-0.1-0.1-0.1-0.4-0.1c-0.4,0-0.8,0.1-1.1,0.2
			c-0.4,0.2-0.6,0.4-0.6,0.7c0,0.3,0.3,0.5,0.8,0.6c0.4,0.1,0.6,0.1,0.6,0.2c0,0.1,0.1,0.1,0.3,0.1c0.3,0,0.5,0.2,0.6,0.6
			c0.1,0.4,0.2,1.2,0.2,2.4c0,1.4,0.1,2.2,0.1,2.4c0.1,0.1,0,0.3,0,0.6l-0.1,0.4l-0.5-0.5c-0.4-0.3-0.5-0.5-0.5-0.6
			c0-0.1-0.1-0.2-0.2-0.3c-0.1-0.1-0.3-0.2-0.4-0.4c-0.2-0.1-0.3-0.2-0.3-0.2c-0.1-0.1-0.3-0.2-0.3-0.2c-0.1,0-0.2-0.1-0.2-0.2
			c0-0.1-0.1-0.2-0.2-0.3c-0.1-0.1-0.3-0.2-0.4-0.2c-0.1,0-0.1-0.1-0.1-0.2c0-0.1-0.1-0.2-0.2-0.2c-0.1,0-0.1,0-0.1-0.1
			c0-0.1-0.1-0.2-0.4-0.5c-0.2-0.3-0.4-0.4-0.4-0.5c0-0.1-0.1-0.2-0.3-0.2c-0.2,0-0.3-0.1-0.5-0.2c-0.2-0.1-0.2-0.3-0.2-0.4
			c0-0.1-0.2-0.3-0.5-0.7c-0.3-0.4-0.5-0.6-0.5-0.7c0-0.1-0.1-0.2-0.3-0.4c-0.2-0.2-0.3-0.4-0.3-0.4c0-0.3-0.6-0.5-1.8-0.6
			c-0.6,0-0.9-0.1-0.9-0.1c-0.3,0-0.4,0.1-0.4,0.2c0,0.1,0,0.2,0,0.4c0,0.2,0,0.4,0.1,0.6c0.1,0.2,0.1,0.3,0.2,0.3
			c0.1,0,0.2,0.2,0.3,0.6c0.1,0.4,0.2,0.6,0.2,0.6c0.1,0,0.1,0.3,0.1,0.8c0,0.5,0,0.8-0.1,0.8c-0.1,0-0.1,0.1-0.1,0.4
			c0,0.2,0.1,0.6,0.2,1c0.1,0.2,0.1,0.6,0.1,1.1c0,0.7-0.1,1.1-0.2,1.1c-0.1,0-0.1,0.2-0.1,0.7c0,0.5,0,1.1-0.1,1.5
			c0,0.4-0.1,0.6-0.1,0.7c-0.1,0.1-0.2,0.2-0.4,0.2c-0.3,0.1-0.4,0.2-0.4,0.4c0,0.2,0.1,0.4,0.4,0.6c0.2,0.2,0.3,0.3,0.5,0.3
			c0.2,0,0.8,0,1.7,0c1,0,1.6,0,1.8-0.1c0.2-0.1,0.3-0.3,0.3-0.8c0-0.3-0.1-0.4-0.3-0.5c-0.2-0.1-0.3-0.1-0.3-0.2
			c0-0.1-0.2-0.1-0.6-0.1c-0.4,0-0.7-0.1-0.9-0.3c-0.2-0.2-0.2-0.3-0.1-0.4c0.1-0.1,0.2-0.2,0.2-0.6c0-0.3,0-0.5-0.1-0.5
			c-0.1-0.1-0.1-0.9-0.1-2.6c0-1.7,0.1-2.5,0.2-2.5c0.1,0,0.3,0.1,0.4,0.2c0.1,0.1,0.3,0.2,0.5,0.3c0.3,0.1,0.4,0.3,0.5,0.4
			c0,0.2,0.3,0.5,0.8,1.1c0.5,0.5,0.9,0.9,1.3,1.1c0.2,0.1,0.3,0.2,0.3,0.3c0,0.1,0.2,0.2,0.5,0.6c0.7,0.7,1.1,1.1,1.1,1.4
			c0,0.1,0.1,0.1,0.3,0.1c0.2,0,0.3,0,0.3,0.1c0,0.1,0.1,0.3,0.4,0.5c0.2,0.2,0.4,0.4,0.4,0.6c0,0.1,0.1,0.3,0.3,0.5
			c0.2,0.2,0.3,0.3,0.4,0.3c0.1,0,0.3,0.2,0.6,0.5c0.3,0.3,0.5,0.5,0.7,0.6c0.1,0.1,0.2,0.1,0.3,0.1c0.4,0,0.6-0.2,0.6-0.6
			c0-0.1,0-0.2,0-0.4c0-0.9-0.1-1.4-0.2-1.6c-0.1-0.1-0.1-0.5-0.1-1.3v-0.4c0-1,0-1.6-0.1-1.6c-0.1-0.1-0.2-0.4-0.2-1
			c0-0.5,0-0.8,0.1-0.8c0.1-0.1,0.2-0.2,0.2-0.5c0-0.3,0-0.4,0.1-0.4c0.1,0,0.1-0.1,0.1-0.4c0-0.3,0-0.4-0.1-0.4
			c-0.1,0-0.1-0.1-0.1-0.4c0-0.4,0.1-0.7,0.2-1c0.2-0.3,0.4-0.5,0.7-0.5c0.2,0,0.4-0.1,0.4-0.1c0.1,0,0.1-0.2,0.1-0.5v-0.2
			C278.8,782.3,278.7,782,278.5,782z"/>
		<path d="M298.2,784.1c0.1,0,0.2-0.2,0.2-0.5c0-0.3-0.1-0.4-0.2-0.4c-0.1,0-0.1-0.1-0.1-0.3c0-0.2,0.1-0.4,0.2-0.7
			c0.1-0.3,0-0.5-0.2-0.7c-0.2-0.2-0.5-0.3-0.9-0.3c-0.4,0-0.8,0.1-1.1,0.4c-0.3,0.2-0.5,0.3-0.6,0.2c-0.1-0.1-0.1-0.1-0.3-0.1
			c-0.1,0-0.2,0-0.6,0.1c-0.4,0.1-1.3,0.2-2.7,0.2c-1,0-1.5,0-1.6-0.1c-0.1-0.1-0.2,0-0.4,0.2c-0.1,0.1-0.3,0.2-0.4,0.2
			c-0.1,0-0.3,0-0.8-0.1c-0.8-0.2-1.2-0.3-1.3-0.3c0,0-0.1,0-0.3,0.1c-0.1,0-0.3,0.1-0.4,0.3c-0.1,0.2-0.2,0.4-0.2,0.5
			c0,0,0,0.1,0.1,0.2c0.1,0.1,0.1,0.2,0.2,0.5c0,0.1,0,0.2-0.1,0.3c-0.1,0-0.2,0.1-0.4,0.1c-0.1,0-0.3,0-0.4,0.1
			c-0.1,0.1-0.2,0.2-0.2,0.2c0,0.1,0,0.1,0.1,0.2c0.1,0.1,0.1,0.3,0.1,0.7c0,0.3-0.1,0.5-0.1,0.5c0,0.5,0.2,0.8,0.6,0.8
			c0.3,0,0.4-0.1,0.4-0.2c0-0.1,0.1-0.2,0.2-0.2c0.3,0,0.3-0.2,0-0.5c-0.1-0.1-0.2-0.2-0.2-0.3c0,0,0.1-0.1,0.3-0.1
			c0.2-0.1,0.3-0.2,0.2-0.4c-0.1-0.2,0-0.4,0-0.6c0.1-0.1,0.1-0.3,0-0.6c-0.1-0.3-0.1-0.4,0-0.4c0.1,0,0.1,0.1,0.1,0.2
			s0.2,0.3,0.6,0.4c0.4,0.1,0.8,0.2,1.1,0.2c0.4,0,0.7,0.1,0.9,0.3c0.2,0.2,0.4,0.2,0.5,0.2c0.1,0,0.2,0,0.2,0c0,0,0,0.1-0.1,0.1
			c-0.3,0.4-0.4,2.4-0.5,6.1c0,0.8-0.1,1.2-0.3,1.4c-0.2,0.2-0.3,0.3-0.3,0.5c0,0.1-0.3,0.2-0.8,0.2l-0.8,0.1l-0.1,0.6
			c0,0,0,0.1,0,0.1c0,0.1,0,0.1,0,0.1c0,0.2,0.2,0.5,0.5,0.8c0.3,0.3,0.6,0.4,0.7,0.4c0.1,0,0.2,0,0.2-0.1c0-0.1-0.1-0.1-0.2-0.1
			c-0.1,0-0.1,0-0.1-0.1c0-0.1,0.2-0.1,0.5-0.1c0.1,0,0.4,0,0.9,0c0.4,0,0.8,0,1,0c0.5,0,0.9,0,1-0.1c0.1-0.1,0.3-0.2,0.6-0.1
			c0.2,0,0.3,0,0.4-0.1c0.1-0.1,0.2-0.1,0.3-0.1c0.1,0,0.3-0.1,0.5-0.3c0.1-0.1,0.2-0.2,0.2-0.3c0-0.1-0.1-0.2-0.2-0.5
			c-0.2-0.3-0.3-0.5-0.5-0.5c-0.1,0-0.2-0.1-0.2-0.2c0-0.1-0.1-0.2-0.3-0.1c0,0-0.1,0-0.1,0c-0.1,0-0.1,0-0.1,0
			c-0.1,0-0.2,0-0.3-0.1c0-0.1-0.1-0.3-0.1-0.5v-0.5c0-0.5,0-0.8,0-0.9c0-0.1,0.1-0.2,0.2-0.2c0.2,0,0.2-0.1,0.2-0.4
			c0-0.3-0.1-0.5-0.2-0.5c-0.1,0-0.2-0.4-0.2-1.1c0-0.8,0.1-1.3,0.2-1.4c0.1-0.1,0.2-0.6,0.2-1.2c0-0.7,0.1-1.1,0.1-1.2
			c0.1-0.2,0.5-0.2,1.2-0.2c1.1,0,1.7,0.1,1.8,0.4c0,0.1,0.1,0.2,0.4,0.5c0.2,0.2,0.3,0.5,0.4,0.8c0,0.3,0.1,0.5,0.1,0.5
			c0.1,0.1,0.2,0.1,0.4,0.1c0.3,0,0.4,0,0.4-0.1c0-0.1,0.1-0.2,0.3-0.3c0.2-0.1,0.3-0.2,0.3-0.4s-0.1-0.4-0.3-0.6
			C298,784.2,298,784.1,298.2,784.1z"/>
		<path d="M318.9,792.9c-0.1,0-0.1-0.1-0.2-0.4c-0.1-0.2-0.1-0.3-0.2-0.3c0,0-0.3,0.1-0.8,0.2c0,0-0.1,0-0.2,0c-0.4,0-0.7-0.6-1-1.7
			c-0.2-0.8-0.4-1.3-0.4-1.4c-0.1-0.1-0.2-0.3-0.2-0.5c-0.1-0.4-0.3-1.3-0.8-2.8c-0.5-1.5-0.7-2.4-0.8-2.7c-0.2-1-0.4-1.5-0.5-1.7
			c-0.1-0.2-0.2-0.3-0.4-0.3c-0.3-0.1-0.4,0-0.5,0.1c-0.1,0.1-0.2,0.2-0.4,0.2c-0.2,0-0.4,0.1-0.4,0.2c0,0.1-0.1,0.1-0.2,0.1
			c-0.1,0-0.2,0.2-0.4,0.6c-0.2,0.4-0.3,0.8-0.5,1.2c-0.1,0.4-0.2,0.6-0.3,0.7c-0.1,0.1-0.1,0.2-0.1,0.4c0,0.2-0.1,0.6-0.4,1.2
			c-0.3,0.6-0.5,1.1-0.5,1.5c-0.1,0.4-0.2,0.6-0.2,0.7c-0.1,0.1-0.2,0.3-0.4,0.8s-0.3,0.7-0.3,0.8c-0.1,0.2-0.2,0.4-0.2,0.5
			c0,0.2,0,0.2-0.1,0.2c-0.1,0-0.2,0.1-0.3,0.4c-0.1,0.2-0.2,0.4-0.2,0.6c0,0.1-0.2,0.3-0.5,0.6c-0.3,0.3-0.5,0.4-0.7,0.4
			c-0.2,0-0.3,0.1-0.5,0.4c-0.2,0.2-0.4,0.4-0.5,0.4c-0.1,0-0.2,0.1-0.4,0.4c-0.1,0.2-0.1,0.3-0.1,0.4c0,0.1,0.1,0.3,0.4,0.5
			l0.5,0.4l2-0.1c1.1,0,1.8-0.1,2.1-0.1s0.5-0.1,0.5-0.2c0,0,0-0.1-0.1-0.2c-0.1-0.2-0.1-0.3,0.1-0.3c0.1,0,0.2-0.1,0.2-0.2
			c0-0.1-0.1-0.2-0.2-0.2c-0.1,0-0.3-0.1-0.4-0.2c-0.1-0.1-0.4-0.2-0.7-0.3c-0.5-0.1-0.7-0.3-0.7-0.5c0-0.1,0-0.2,0.1-0.3
			c0.1-0.2,0.2-0.3,0.2-0.5c0-0.1,0-0.2,0.1-0.2c0.1,0,0.1-0.2,0.1-0.7v-0.7h0.6c0.4,0,0.7-0.1,0.7-0.2c0.1-0.2,0.6-0.2,1.5-0.2h0.4
			c0.7,0,1,0,1.1,0.1c0.1,0.1,0.2,0.4,0.2,0.8c0,0.5,0.1,0.8,0.3,0.9c0.2,0.2,0.3,0.4,0.3,0.6c0,0,0,0,0,0.1c0,0,0,0.1,0,0.1
			c0,0.3-0.1,0.4-0.1,0.5c-0.1,0.1-0.3,0.1-0.6,0.2c-0.5,0.1-0.7,0.2-0.8,0.3c0,0.1-0.1,0.1-0.3,0.1c-0.2,0-0.3,0.1-0.3,0.3
			c0,0.3,0,0.4,0.1,0.5c0.1,0.1,0.3,0.1,0.6,0.1c0.3,0,0.7,0,1.3-0.1c0.6-0.1,1.3-0.1,2-0.1c0.4,0,0.7,0,0.8,0c0.2,0,0.4,0,0.6,0
			c0.3,0,0.5-0.1,0.5-0.3c0.1-0.2,0.1-0.3,0.2-0.3c0.1,0,0.1-0.2,0.1-0.5S319,792.9,318.9,792.9z M312.8,788.4c0,0-0.1,0-0.2,0
			c-0.1,0-0.1,0-0.1,0c-0.3,0-0.5,0.1-0.6,0.2c-0.1,0.1-0.3,0.2-0.4,0.2c-0.2,0-0.3-0.1-0.4-0.2c-0.1-0.1-0.2-0.2-0.3-0.2
			c-0.1,0-0.2-0.1-0.2-0.2c0-0.1,0-0.2,0.1-0.2c0.1,0,0.2-0.1,0.3-0.4c0.1-0.3,0.2-0.5,0.2-0.7c0-0.2,0.1-0.3,0.2-0.4
			c0.1,0,0.2-0.3,0.2-0.8c0.1-0.6,0.3-0.9,0.6-0.9c0.2,0,0.3,0.1,0.5,0.2c0.1,0.1,0.2,0.2,0.4,0.5c0.1,0.3,0.2,0.4,0.2,0.5
			c0,0-0.1,0.1-0.3,0.1c-0.2,0-0.3,0.1-0.4,0.2c-0.1,0.1,0,0.2,0.1,0.2c0.1,0,0.2,0.1,0.2,0.2c0.1,0.1,0.2,0.3,0.2,0.4
			c0.1,0.2,0.1,0.2,0.2,0.3c0.1,0.1,0.1,0.3,0.2,0.6l0.1,0.5L312.8,788.4z"/>
		<path d="M336.3,783.3h-0.9c-0.5,0-0.8,0-1-0.1c-0.2-0.1-0.3-0.2-0.3-0.5c0-0.1,0-0.2-0.1-0.3c-0.1,0-0.1,0-0.2,0.1
			c-0.1,0.1-0.4,0.2-0.7,0.2c-0.1,0-0.2,0-0.2-0.1c0-0.1-0.2-0.1-0.7-0.1c-0.4,0-0.7,0.1-0.8,0.2c-0.1,0.1-0.2,0.2-0.4,0.2
			c-0.2,0-0.3,0-0.4,0c-0.1,0-0.1,0-0.2,0c-0.1,0-0.1,0-0.2,0c-0.3,0-0.5,0.1-0.7,0.4c-0.3,0.3-0.5,0.4-0.7,0.5
			c-0.1,0-0.3,0.2-0.5,0.5c-0.2,0.3-0.4,0.4-0.5,0.4c-0.4,0.1-0.7,0.4-0.7,0.9c0,0.2-0.1,0.4-0.2,0.6c-0.1,0.2-0.2,0.4-0.2,0.6
			c0,0.3,0,0.4-0.1,0.5c-0.1,0.1-0.2,0.2-0.2,0.4c0,0.2-0.1,0.3-0.2,0.4c-0.1,0.1-0.2,0.5-0.2,1.4c0,1,0.1,1.5,0.2,1.6
			c0.1,0,0.1,0.1,0.1,0.2c0,0.1,0,0.2-0.1,0.2c-0.1,0,0,0.2,0.2,0.4c0.3,0.2,0.4,0.4,0.5,0.4c0.1,0,0.1,0.1,0.2,0.3
			c0.1,0.2,0.2,0.4,0.6,0.7c0.3,0.3,0.6,0.5,0.8,0.6c0.2,0.1,0.2,0.1,0.2,0.2c0,0.1,0.3,0.2,0.9,0.3c0.6,0.1,1.3,0.1,2,0.1
			c1.1,0,1.7-0.1,1.9-0.3c0.1-0.1,0.4-0.3,0.8-0.3c0.3-0.1,0.6-0.2,0.8-0.5c0.3-0.4,0.5-0.7,0.7-0.8c0.3-0.3,0.4-0.5,0.4-0.6
			c0-0.1-0.1-0.2-0.3-0.3c-0.4-0.2-0.6-0.3-0.8-0.3c-0.1,0-0.2,0.1-0.3,0.3c-0.1,0.2-0.2,0.4-0.4,0.4c-0.2,0-0.4,0.1-0.6,0.4
			c-0.2,0.2-0.4,0.3-0.5,0.2c-0.1-0.1-0.2-0.1-0.4,0.1c-0.1,0.1-0.4,0.2-0.7,0.2c-0.1,0-0.4,0-0.8-0.1c-0.6,0-1.1-0.1-1.2-0.2
			c-0.2-0.1-0.3-0.3-0.3-0.5c0-0.2-0.2-0.5-0.6-0.9c-0.3-0.3-0.5-0.5-0.6-0.7c-0.1-0.2-0.2-0.5-0.3-0.9c-0.1-0.7-0.2-1-0.3-1
			c-0.1,0-0.1-0.1-0.1-0.2c0-0.1,0-0.2,0.1-0.2c0.2,0,0.3-0.7,0.3-1.9c0-0.2,0.1-0.2,0.3-0.2c0.2,0,0.3-0.1,0.2-0.3
			c0-0.1,0-0.2,0-0.3s0.2-0.1,0.4-0.2c0.3-0.1,0.5-0.3,0.5-0.4c0-0.1,0.1-0.3,0.3-0.4c0.2-0.1,0.4-0.2,0.7-0.2
			c0.2,0,0.3-0.1,0.3-0.2c0-0.1,0.2-0.2,0.7-0.2c0.1,0,0.2,0,0.4,0c0.5,0,0.9,0.2,1.1,0.5c0.2,0.2,0.4,0.3,0.6,0.4
			c0.3,0.1,0.4,0.2,0.4,0.4c-0.1,0.2,0,0.3,0.1,0.4c0.1,0.1,0.3,0.4,0.4,0.9c0.1,0.4,0.1,0.6,0.2,0.7c0.1,0.1,0.2,0.2,0.4,0.3
			c0.3,0.1,0.4,0.2,0.4,0.4c0,0.1,0.1,0.2,0.2,0.1c0.1-0.1,0.2-0.6,0.2-1.5c0-1,0.1-1.5,0.2-1.5c0.1-0.1,0.1-0.3,0-0.8L336.3,783.3z
			"/>
		<path d="M340.9,799.7c-0.1,0-0.1,0.1-0.1,0.3c0,0.2,0,0.3,0.1,0.3c0.1,0,0.1-0.1,0.1-0.3C341,799.8,341,799.7,340.9,799.7z"/>
		<path d="M358.4,790.7c0,0-0.1,0-0.1,0c-0.1,0-0.1,0-0.1,0.1c-0.2,0-0.3,0.1-0.3,0.3c0,0.1,0.1,0.2,0.3,0.2c0.2,0,0.3-0.1,0.3-0.3
			C358.5,790.7,358.4,790.6,358.4,790.7L358.4,790.7z"/>
		<path d="M357.5,790.1c-0.1,0-0.2-0.1-0.2-0.3c-0.1-0.2-0.2-0.3-0.4-0.3c-0.2,0-0.4-0.1-0.4-0.4c0-0.1-0.1-0.2-0.2-0.3
			c-0.2-0.1-0.3-0.1-0.3,0.1c0,0.1-0.1,0.2-0.4,0.3c-0.2,0.1-0.3,0.2-0.1,0.3c0.1,0.1,0.2,0.3,0.2,0.6c0,0.3,0,0.4-0.1,0.4
			c-0.1,0-0.3,0.2-0.6,0.5c-0.6,0.6-1.1,0.9-1.5,0.9c-0.2,0-0.4,0.1-0.7,0.2c-0.3,0.1-0.7,0.2-1.2,0.2c-0.6,0-0.9-0.1-0.9-0.4
			c0-0.1,0-0.1,0-0.2c0.1-0.2,0.1-0.3,0-0.4c-0.1,0-0.1-0.2-0.1-0.4c0-0.4,0-0.7,0.1-1c0-0.1,0.1-0.2,0.1-0.4c0-0.1,0-0.4-0.1-0.6
			c0-0.1,0-0.3,0-0.5s0-0.3,0.1-0.4c0.2-0.1,0.2-0.3,0.2-0.8c0-0.2,0-0.3-0.1-0.4c-0.1-0.1-0.1-0.2,0-0.4c0.1-0.1,0.1-0.5,0.1-1.2
			V785l-0.1-1.3h0.9c0.6,0,1-0.1,1.1-0.2c0.1-0.2,0.1-0.4,0.1-0.6c0-0.3-0.1-0.5-0.2-0.6c-0.1-0.1-1.1-0.1-2.9-0.1h-0.9
			c-1.2,0-1.8,0.1-1.8,0.2c-0.1,0.1-0.1,0.3-0.1,0.4c0,0.3,0.1,0.6,0.2,0.7c0.1,0.1,0.4,0.2,0.7,0.2c0.5,0,0.8,0.1,0.8,0.4
			c0,0.1,0,0.1-0.1,0.2c-0.1,0.1-0.1,0.4-0.1,0.7c0,0.3,0,0.6,0.1,0.8c0.1,0.3,0.1,0.4,0,0.5c-0.1,0.1-0.1,0.3-0.1,0.7
			c0,0.2,0,0.3,0,0.4c0,0.8,0.1,1.3,0.1,1.6c0,1.3-0.1,1.9-0.3,1.9c-0.1,0-0.2,0.2-0.2,0.7c0,0.2,0,0.3,0.1,0.4l0.1,0.1
			c0,0.2-0.3,0.2-0.9,0.2c-0.3,0-0.5,0.1-0.6,0.2c-0.1,0.1-0.2,0.4-0.2,0.8v0.2c0,0.5,0.2,0.8,0.6,0.8c0.1,0,0.3,0,0.4-0.1
			c0.3-0.1,0.4-0.2,0.4-0.3s0.3-0.1,1-0.1c0.7,0,1,0,1,0.1c0,0.1,0.7,0.1,2.1,0.1c1.4,0,2.1-0.1,2.1-0.1c0-0.1,0.3-0.1,0.8-0.1
			c0.6,0,0.9,0,0.9,0.1c0,0.1,0.1,0.2,0.4,0.2c0.2,0,0.4-0.1,0.4-0.3c0-0.1,0.1-0.3,0.3-0.4c0.2-0.1,0.3-0.2,0.3-0.4
			c0-0.2,0-0.4,0.1-0.5c0.1-0.1,0.1-0.3,0-0.4c0,0-0.1-0.1-0.1-0.2c0-0.2,0-0.5,0.1-0.8c0.1-0.3,0.2-0.4,0.2-0.4
			c0.1,0,0.1-0.1,0.1-0.3C357.6,790.2,357.6,790.1,357.5,790.1z"/>
		<path d="M365.7,792c0.1-0.2,0.1-0.3-0.1-0.3c-0.1,0-0.2,0.1-0.2,0.2c0,0.1,0,0.2,0.1,0.2C365.6,792.2,365.6,792.1,365.7,792z"/>
		<path d="M376.2,790.2c-0.1,0-0.3,0.2-0.5,0.5c-0.3,0.4-0.4,0.6-0.4,0.7c0,0.1-0.1,0.2-0.4,0.2c-0.2,0-0.3,0.1-0.3,0.1
			c0,0,0,0.1,0,0.3v0.2c0,0.2-0.1,0.3-0.4,0.3c0,0-0.1,0-0.2,0c-0.1,0-0.1,0-0.2,0c-0.2,0-0.4,0.1-0.7,0.4c-0.2,0.2-0.4,0.3-0.6,0.3
			c-0.1,0-0.2-0.1-0.2-0.2s-0.2-0.1-0.4,0c-0.2,0.1-0.6,0.2-1.2,0.2c-0.5,0-0.7,0-0.7-0.1s-0.1-0.1-0.2-0.1c-0.1,0-0.1-0.1-0.2-0.2
			c-0.1-0.2-0.1-0.3-0.1-0.5c0,0,0-0.6,0.1-1.8c0-1.2,0.1-1.8,0.1-1.8c0-0.1,0.5-0.1,1.4-0.1c0.8,0,1.3,0.1,1.5,0.2
			c0.3,0.1,0.4,0.4,0.4,0.8c0,0.2,0,0.3,0.1,0.3c0,0,0.1,0,0.2,0c0.2-0.1,0.4-0.1,0.6-0.1h0.1c0.2,0,0.3-0.2,0.3-0.6
			c0-0.1,0-0.2,0-0.3c0-0.2,0-0.3,0-0.4v-0.3c0-0.4,0-0.6,0.1-0.6c0.1-0.1,0.1-0.3,0-0.4c-0.1-0.1-0.1-0.3,0.1-0.4
			c0.2-0.1,0.2-0.2,0.2-0.4c0-0.3-0.4-0.4-1.1-0.4c-0.4,0-0.6,0.2-0.6,0.5c0,0.1,0,0.2,0.1,0.3c0.1,0.2,0,0.3-0.1,0.5
			c-0.1,0.1-0.4,0.2-0.9,0.3c-0.6,0.1-1.1,0.2-1.6,0.2h-0.6V787c0-0.4,0.1-0.6,0.2-0.6c0.1,0,0.2-0.1,0.2-0.4c0-0.3-0.1-0.6-0.2-0.9
			c-0.1-0.2-0.2-0.4-0.2-0.4c0-0.1,0.1-0.1,0.2-0.3c0.2-0.2,0.3-0.3,0.2-0.5c0,0,0-0.1,0-0.2c0-0.2,0.1-0.3,0.4-0.4
			c0.3-0.1,0.8-0.1,1.5-0.2c0.6,0,1-0.1,1.1-0.1c0.4,0,0.6,0.1,0.7,0.2c0.2,0.2,0.3,0.3,0.5,0.4c0.2,0.1,0.3,0.2,0.3,0.3
			c0,0.1,0.1,0.2,0.4,0.4c0.2,0.1,0.4,0.3,0.4,0.3c0,0.2,0.1,0.3,0.3,0.5c0.2,0.2,0.4,0.3,0.6,0.3h0.1c0.3,0,0.4-0.2,0.4-0.7
			c0-0.2-0.1-0.4-0.2-0.5c-0.1-0.2-0.2-0.4-0.2-0.6c0-0.3-0.1-0.5-0.2-0.5c-0.1-0.1-0.1-0.2,0-0.4c0.1-0.1,0.1-0.2,0.1-0.3
			c0-0.1-0.1-0.1-0.2-0.2c-0.1-0.1-0.2-0.2-0.2-0.3c0-0.1-0.1-0.3-0.3-0.5c-0.1-0.1-0.2-0.2-0.3-0.2c-0.1,0-0.2,0-0.3,0.1
			c-0.2,0.1-1.9,0.3-5,0.4h-0.7c-1.5,0-2.3-0.1-2.4-0.3c0-0.1-0.1-0.1-0.3-0.1c-0.1,0-0.2,0-0.2,0.1c0,0.1-0.1,0.2-0.1,0.3
			c0,0.2,0,0.3,0,0.3c0,0.2-0.1,0.3-0.3,0.4c-0.2,0-0.3,0.2-0.2,0.5c0.1,0.2,0.1,0.4,0.2,0.5c0.1,0.1,0.2,0.1,0.3,0.1s0.3,0,0.4,0
			c0.1,0,0.1,0,0.2,0c0.1,0,0.1,0,0.2,0c0.4,0,0.6,0.1,0.7,0.4c0.1,0.2,0.1,0.8,0.1,1.5c0,0.9-0.1,1.4-0.2,1.5c-0.1,0-0.1,0.2,0,0.4
			c0.1,0.3,0.1,0.5,0,0.7c-0.1,0.2-0.2,0.3-0.3,0.3c-0.1,0-0.1,0.1,0.1,0.2c0.1,0.1,0.1,0.3,0.1,0.6c0,0.3-0.1,1.3-0.2,3l-0.1,1
			h-0.6c-0.4,0-0.6,0.1-0.7,0.3c-0.1,0.2-0.2,0.3-0.3,0.3c-0.2,0-0.2,0.1-0.2,0.4c0,0.3,0.1,0.5,0.3,0.6c0.2,0.1,0.3,0.3,0.3,0.4
			c0,0.1,0.1,0.2,0.3,0.2c0.2,0,0.5,0,0.8-0.1c0.3-0.1,0.5-0.2,0.6-0.2c0.2-0.1,0.6-0.2,1.2-0.2c0.1,0,0.6,0,1.5,0.1
			c0.8,0,1.2,0.1,1.2,0.2c0.1,0.1,0.2,0.1,0.4,0c0.3-0.1,0.8-0.2,1.6-0.2c0.9,0,1.4,0,1.6-0.1c0.2,0,0.3-0.1,0.5-0.2
			c0.2-0.2,0.3-0.4,0.2-0.6c-0.1-0.2,0-0.4,0.2-0.4c0.1-0.1,0.2-0.4,0.2-0.8c0-0.3,0-0.5,0.1-0.6c0-0.1,0.1-0.1,0.2-0.1
			c0.2,0,0.3-0.2,0.3-0.5c0-0.3-0.1-0.5-0.2-0.7C376.5,790.3,376.4,790.2,376.2,790.2z"/>
		<path d="M386.4,788.7c0-0.1,0-0.2-0.1-0.2c-0.1,0-0.1,0-0.1,0.1l0.1,0.2C386.4,789,386.4,788.9,386.4,788.7z"/>
		<path d="M392.3,789.5c0-0.6-0.1-0.9-0.2-1.1c-0.1-0.2-0.3-0.4-0.6-0.5c-0.3-0.1-0.5-0.3-0.5-0.4c-0.1-0.1-0.3-0.3-0.9-0.6
			c-0.5-0.3-1-0.5-1.3-0.6c-0.2-0.1-0.5-0.2-0.9-0.5c-0.4-0.3-0.6-0.4-0.6-0.5c0-0.1-0.1-0.2-0.2-0.3c-0.2-0.1-0.2-0.2-0.2-0.3
			c0,0,0-0.1,0-0.1c0.1-0.1,0.1-0.2,0.1-0.3c0-0.1,0-0.3-0.1-0.6c0-0.1,0-0.2,0-0.2c0,0,0.2-0.1,0.3-0.1c0.3,0,0.4-0.1,0.4-0.2
			c0-0.1,0.1-0.2,0.4-0.4c0.3-0.2,0.4-0.3,0.4-0.3c0-0.1,0.1-0.1,0.4-0.2c0.1,0,0.1,0,0.2,0c0.4,0,0.8,0.2,1.2,0.5
			c0.5,0.3,0.7,0.6,0.7,0.9c0,0.2,0.1,0.4,0.3,0.5c0.2,0.1,0.3,0.3,0.3,0.4c0,0.1,0.1,0.3,0.2,0.5c0.2,0.2,0.3,0.3,0.4,0.3
			c0,0,0,0,0.1,0c0.1-0.1,0.1-0.7,0.2-2v-0.8c0-0.6-0.1-0.9-0.2-0.9c-0.1,0-0.1,0-0.1,0c-0.3,0.1-0.6,0.2-0.8,0.2
			c-0.3,0-0.6-0.1-1-0.3c-0.4-0.2-0.6-0.3-0.7-0.3c0,0-0.1,0-0.2,0.1c-0.3,0.1-0.6,0.1-0.8,0.1c-0.3,0-0.4,0-0.5,0.1
			c0,0.1-0.1,0.2-0.3,0.2c-0.2,0-0.4-0.1-0.5-0.2c-0.1-0.1-0.3-0.2-0.5-0.2h0c-0.1,0-0.1,0-0.1,0c-0.1,0-0.1,0-0.1,0
			c0,0,0.1,0,0.1,0c0.1,0.1,0.2,0.1,0.2,0.2c0,0.2-0.2,0.3-0.5,0.4c-0.3,0.1-0.4,0.2-0.4,0.4c0.1,0.2,0,0.3-0.2,0.4
			c-0.3,0.1-0.6,0.5-1.1,1.1c-0.1,0.2-0.2,0.4-0.2,0.6c0,0,0,0.3,0.1,0.8c0.1,0.7,0.3,1.1,0.4,1.3c0.1,0.2,0.4,0.4,0.7,0.7
			c0.4,0.3,0.6,0.4,0.8,0.4c0.1,0,0.3,0.1,0.6,0.4c0.4,0.3,0.9,0.6,1.7,0.8c0.5,0.1,0.8,0.3,1.1,0.6c0.2,0.2,0.3,0.4,0.5,0.7
			c0.1,0.3,0.2,0.5,0.2,0.7c0,0.1,0,0.1-0.1,0.2c-0.1,0-0.1,0.2-0.1,0.4c0.1,0.2,0,0.4-0.2,0.6c-0.1,0.1-0.2,0.3-0.2,0.4
			c0,0.2-0.5,0.4-1.4,0.5c-0.1,0-0.3,0-0.6,0c-0.9,0-1.7-0.4-2.2-1.2c-0.3-0.4-0.5-0.8-0.5-1c0,0,0-0.1,0-0.2c0-0.1,0-0.2,0-0.2
			c0,0-0.1-0.1-0.1-0.1c-0.1,0-0.1,0-0.1-0.1c0.1-0.3-0.1-0.5-0.4-0.6c-0.1,0-0.2-0.1-0.3-0.1c-0.3,0-0.4,0.2-0.5,0.5
			c-0.1,1.2-0.1,1.9-0.2,1.9c-0.1,0.1-0.1,0.4-0.2,0.8c0,0.1,0,0.3,0,0.4c0,0.2,0.1,0.4,0.3,0.6c0.1,0.1,0.2,0.2,0.3,0.2
			c0,0,0.1,0,0.2-0.2c0.1-0.2,0.2-0.3,0.2-0.4c0-0.3,0.2-0.3,0.5-0.1c0.9,0.5,1.8,0.7,2.9,0.7c0.5,0,1.1-0.1,1.6-0.2
			c0.6-0.1,1.1-0.3,1.4-0.6c0.3-0.3,0.5-0.5,0.5-0.5c0-0.1,0.1-0.2,0.2-0.3c0.2-0.1,0.3-0.4,0.3-0.9c0.1-0.5,0.1-0.7,0.2-0.7
			c0.1,0,0.1,0,0-0.1C392.4,790.6,392.3,790.2,392.3,789.5z M387.9,788C387.8,788,387.8,787.9,387.9,788c-0.1-0.1-0.1-0.1,0-0.1
			S388,787.9,387.9,788C388,787.9,388,788,387.9,788z"/>
		<polygon points="51.7,808.8 44,814 41.2,799.9 38.4,814 30.7,808.8 35.9,816.5 21.8,819.3 35.9,822 30.7,829.8 38.4,824.6 
			41.2,838.6 43.9,824.6 51.7,829.8 46.5,822 60.5,819.3 46.5,816.5 		"/>
		<polygon points="468.1,816.5 473.3,808.8 465.5,814 462.8,799.9 460,814 452.3,808.8 457.5,816.5 443.4,819.3 457.5,822 
			452.3,829.8 460,824.6 462.8,838.6 465.5,824.6 473.3,829.8 468.1,822 482.1,819.3 		"/>
		<polygon points="30.7,57.5 38.4,52.3 41.2,66.4 44,52.3 51.7,57.5 46.5,49.8 60.5,47 46.5,44.3 51.7,36.5 43.9,41.7 41.2,27.7 
			38.4,41.7 30.7,36.5 35.9,44.3 21.8,47 35.9,49.8 		"/>
		<polygon points="473.3,36.5 465.5,41.7 462.8,27.7 460,41.7 452.3,36.5 457.5,44.3 443.4,47 457.5,49.8 452.3,57.5 460,52.3 
			462.8,66.4 465.5,52.3 473.3,57.5 468.1,49.8 482.1,47 468.1,44.3 		"/>
		<path d="M150.4,701.7c0.6-1.9,0.9-4.4,1.8-6.1c0,0,0,0,0-0.1c0,0,0.1,0,0.1-0.1c0.5-0.3,1.2-0.5,1.7-0.8c0.9-0.4,1.8-0.8,2.7-1.2
			c0.4-0.2,0.2-0.6-0.1-0.7c-0.9-0.4-1.8-0.8-2.7-1.1c-1.1-0.5-1.7-0.5-2-1.5c-0.6-1.9-1.1-3.9-1.6-5.9c0,0,0,0,0-0.1c0,0,0,0,0-0.1
			c-0.1-0.1-0.2-0.2-0.3-0.2c-0.1,0-0.3,0-0.3,0.2c0,0,0,0.1,0,0.1c0,0,0,0,0,0c0,0,0,0,0,0c0,0,0,0,0,0c-0.5,1.9-1,3.9-1.5,5.9
			c-0.5,1.5-3.3,2.1-4.7,2.7c-0.3,0.1-0.5,0.6-0.1,0.7c0.9,0.4,1.8,0.8,2.7,1.2c0.5,0.2,1.1,0.5,1.6,0.7c0.1,0.1,0.2,0.1,0.2,0.1
			c0,0,0,0,0,0.1c1,1.7,1.2,4.2,1.8,6.1C149.7,702.1,150.3,702.1,150.4,701.7z M148.5,695.2c-0.4-0.6-1.2-0.7-1.9-1
			c-0.7-0.3-1.5-0.7-2.2-1c1.5-0.5,3.5-1.1,4.2-2.2c0.6-1,0.7-2.7,1-3.7c0.1-0.5,0.2-0.9,0.4-1.4c0.1,0.5,0.3,0.9,0.4,1.4
			c0.3,1.1,0.4,2.7,1,3.7c0.6,1.1,2.7,1.7,4.2,2.2c-0.7,0.3-1.5,0.7-2.2,1c-0.6,0.3-1.5,0.5-1.9,1c-0.6,0.8-0.7,2.4-1,3.4
			c-0.2,0.6-0.3,1.1-0.5,1.7c-0.2-0.6-0.3-1.1-0.5-1.7C149.2,697.6,149.1,696,148.5,695.2z"/>
		<path d="M361.5,692.7c-0.9-0.4-1.8-0.8-2.7-1.1c-1.1-0.5-1.7-0.5-2-1.5c-0.6-1.9-1.1-3.9-1.6-5.9c0,0,0,0,0-0.1c0,0,0,0,0-0.1
			c-0.1-0.1-0.2-0.2-0.3-0.2c-0.1,0-0.3,0-0.3,0.2c0,0,0,0.1,0,0.1c0,0,0,0,0,0c0,0,0,0,0,0c0,0,0,0,0,0c-0.5,1.9-1,3.9-1.5,5.9
			c-0.5,1.5-3.3,2.1-4.7,2.7c-0.3,0.1-0.5,0.6-0.1,0.7c0.9,0.4,1.8,0.8,2.7,1.2c0.5,0.2,1.1,0.5,1.6,0.7c0.1,0.1,0.2,0.1,0.2,0.1
			c0,0,0,0,0,0.1c1,1.7,1.2,4.2,1.8,6.1c0.1,0.4,0.7,0.4,0.8,0c0.6-1.9,0.9-4.4,1.8-6.1c0,0,0,0,0-0.1c0,0,0.1,0,0.1-0.1
			c0.5-0.3,1.2-0.5,1.7-0.8c0.9-0.4,1.8-0.8,2.7-1.2C362,693.3,361.8,692.8,361.5,692.7z M358.1,694.1c-0.6,0.3-1.5,0.5-1.9,1
			c-0.6,0.8-0.7,2.4-1,3.4c-0.2,0.6-0.3,1.1-0.5,1.7c-0.2-0.6-0.3-1.1-0.5-1.7c-0.3-0.9-0.4-2.6-1-3.4c-0.4-0.6-1.2-0.7-1.9-1
			c-0.7-0.3-1.5-0.7-2.2-1c1.5-0.5,3.5-1.1,4.2-2.2c0.6-1,0.7-2.7,1-3.7c0.1-0.5,0.2-0.9,0.4-1.4c0.1,0.5,0.3,0.9,0.4,1.4
			c0.3,1.1,0.4,2.7,1,3.7c0.6,1.1,2.7,1.7,4.2,2.2C359.6,693.4,358.9,693.8,358.1,694.1z"/>
		<path d="M106.3,607.7c-0.9-0.4-1.8-0.8-2.7-1.1c-1.1-0.5-1.7-0.5-2-1.5c-0.6-1.9-1.1-3.9-1.6-5.9c0,0,0,0,0-0.1c0,0,0,0,0-0.1
			c-0.1-0.1-0.2-0.2-0.3-0.2c-0.1,0-0.3,0-0.3,0.2c0,0,0,0.1,0,0.1c0,0,0,0,0,0c0,0,0,0,0,0c0,0,0,0,0,0c-0.5,1.9-0.9,3.9-1.5,5.9
			c-0.5,1.5-3.3,2.1-4.7,2.7c-0.3,0.1-0.5,0.6-0.1,0.7c0.9,0.4,1.8,0.8,2.7,1.2c0.5,0.2,1.1,0.5,1.6,0.7c0.1,0.1,0.2,0.1,0.2,0.1
			c0,0,0,0,0,0.1c1,1.7,1.2,4.2,1.8,6.1c0.1,0.4,0.7,0.4,0.8,0c0.6-1.9,0.9-4.4,1.8-6.1c0,0,0,0,0-0.1c0,0,0.1,0,0.1-0.1
			c0.5-0.3,1.2-0.5,1.7-0.8c0.9-0.4,1.8-0.8,2.7-1.2C106.8,608.3,106.6,607.8,106.3,607.7z M102.9,609.1c-0.6,0.3-1.5,0.5-1.9,1
			c-0.6,0.8-0.7,2.4-1,3.4c-0.2,0.6-0.3,1.1-0.5,1.7c-0.2-0.6-0.3-1.1-0.5-1.7c-0.3-0.9-0.4-2.6-1-3.4c-0.4-0.6-1.2-0.7-1.9-1
			c-0.7-0.3-1.5-0.7-2.2-1c1.5-0.5,3.5-1.1,4.2-2.2c0.6-1,0.7-2.7,1-3.7c0.1-0.5,0.3-0.9,0.4-1.4c0.1,0.5,0.3,0.9,0.4,1.4
			c0.3,1.1,0.4,2.7,1,3.7c0.6,1.1,2.7,1.7,4.2,2.2C104.4,608.5,103.7,608.8,102.9,609.1z"/>
		<path d="M106.3,652.4c-0.9-0.4-1.8-0.8-2.7-1.1c-1.1-0.5-1.7-0.5-2-1.5c-0.6-1.9-1.1-3.9-1.6-5.9c0,0,0,0,0-0.1c0,0,0,0,0-0.1
			c-0.1-0.1-0.2-0.2-0.3-0.2c-0.1,0-0.3,0-0.3,0.2c0,0,0,0.1,0,0.1c0,0,0,0,0,0c0,0,0,0,0,0c0,0,0,0,0,0c-0.5,1.9-0.9,3.9-1.5,5.9
			c-0.5,1.5-3.3,2.1-4.7,2.7c-0.3,0.1-0.5,0.6-0.1,0.7c0.9,0.4,1.8,0.8,2.7,1.2c0.5,0.2,1.1,0.5,1.6,0.7c0.1,0.1,0.2,0.1,0.2,0.1
			c0,0,0,0,0,0.1c1,1.7,1.2,4.2,1.8,6.1c0.1,0.4,0.7,0.4,0.8,0c0.6-1.9,0.9-4.4,1.8-6.1c0,0,0,0,0-0.1c0,0,0.1,0,0.1-0.1
			c0.5-0.3,1.2-0.5,1.7-0.8c0.9-0.4,1.8-0.8,2.7-1.2C106.8,653,106.6,652.5,106.3,652.4z M102.9,653.8c-0.6,0.3-1.5,0.5-1.9,1
			c-0.6,0.8-0.7,2.4-1,3.4c-0.2,0.6-0.3,1.1-0.5,1.7c-0.2-0.6-0.3-1.1-0.5-1.7c-0.3-0.9-0.4-2.6-1-3.4c-0.4-0.6-1.2-0.7-1.9-1
			c-0.7-0.3-1.5-0.7-2.2-1c1.5-0.5,3.5-1.1,4.2-2.2c0.6-1,0.7-2.7,1-3.7c0.1-0.5,0.3-0.9,0.4-1.4c0.1,0.5,0.3,0.9,0.4,1.4
			c0.3,1.1,0.4,2.7,1,3.7c0.6,1.1,2.7,1.7,4.2,2.2C104.4,653.2,103.7,653.5,102.9,653.8z"/>
		<path d="M150.4,599.2C150.4,599.2,150.4,599.2,150.4,599.2C150.4,599.1,150.4,599.1,150.4,599.2c0-0.1,0-0.1-0.1-0.1
			c-0.1-0.1-0.2-0.2-0.3-0.2c-0.1,0-0.2,0.1-0.3,0.2c0,0,0,0,0,0.1c0,0,0,0,0,0.1c-0.5,2-1,4-1.6,5.9c-0.3,1-1,1-2,1.5
			c-0.9,0.4-1.8,0.8-2.7,1.1c-0.3,0.1-0.4,0.6-0.1,0.7c0.9,0.4,1.8,0.8,2.7,1.2c0.5,0.2,1.2,0.4,1.7,0.8c0.1,0,0.1,0.1,0.1,0.1
			c0,0,0,0,0,0.1c0.9,1.8,1.2,4.2,1.8,6.1c0.1,0.4,0.7,0.4,0.8,0c0.6-1.9,0.9-4.4,1.8-6.1c0,0,0-0.1,0-0.1c0,0,0.1,0,0.2-0.1
			c0.5-0.3,1.1-0.5,1.6-0.7c0.9-0.4,1.8-0.8,2.7-1.2c0.4-0.2,0.2-0.6-0.1-0.7c-1.5-0.6-4.3-1.2-4.7-2.7
			C151.4,603.1,150.9,601.1,150.4,599.2C150.4,599.2,150.4,599.2,150.4,599.2z M155.5,608.2c-0.7,0.3-1.5,0.7-2.2,1
			c-0.6,0.3-1.5,0.5-1.9,1c-0.6,0.8-0.7,2.4-1,3.4c-0.2,0.6-0.3,1.1-0.5,1.7c-0.2-0.6-0.3-1.1-0.5-1.7c-0.3-0.9-0.4-2.6-1-3.4
			c-0.4-0.6-1.2-0.7-1.9-1c-0.7-0.3-1.5-0.7-2.2-1c1.5-0.5,3.6-1.1,4.2-2.2c0.6-1,0.7-2.6,1-3.7c0.1-0.5,0.3-0.9,0.4-1.4
			c0.1,0.5,0.3,0.9,0.4,1.4c0.3,1.1,0.4,2.8,1,3.7C152,607.1,154,607.7,155.5,608.2z"/>
		<path d="M143.2,653.1c0.9,0.4,1.8,0.8,2.7,1.2c0.5,0.2,1.2,0.4,1.7,0.8c0.1,0,0.1,0.1,0.1,0.1c0,0,0,0,0,0.1
			c0.9,1.8,1.2,4.2,1.8,6.1c0.1,0.4,0.7,0.4,0.8,0c0.6-1.9,0.9-4.4,1.8-6.1c0,0,0-0.1,0-0.1c0,0,0.1,0,0.2-0.1
			c0.5-0.3,1.1-0.5,1.6-0.7c0.9-0.4,1.8-0.8,2.7-1.2c0.4-0.2,0.2-0.6-0.1-0.7c-1.5-0.6-4.3-1.2-4.7-2.7c-0.6-1.9-1-3.9-1.5-5.9
			c0,0,0,0,0,0c0,0,0,0,0,0c0,0,0,0,0,0c0,0,0-0.1,0-0.1c-0.1-0.1-0.2-0.2-0.3-0.2c-0.1,0-0.2,0.1-0.3,0.2c0,0,0,0,0,0.1
			c0,0,0,0,0,0.1c-0.5,2-1,4-1.6,5.9c-0.3,1-1,1-2,1.5c-0.9,0.4-1.8,0.8-2.7,1.1C143,652.5,142.8,653,143.2,653.1z M148.6,650.7
			c0.6-1,0.7-2.6,1-3.7c0.1-0.5,0.3-0.9,0.4-1.4c0.1,0.5,0.3,0.9,0.4,1.4c0.3,1.1,0.4,2.8,1,3.7c0.7,1.1,2.7,1.7,4.2,2.2
			c-0.7,0.3-1.5,0.7-2.2,1c-0.6,0.3-1.5,0.5-1.9,1c-0.6,0.8-0.7,2.4-1,3.4c-0.2,0.6-0.3,1.1-0.5,1.7c-0.2-0.6-0.3-1.1-0.5-1.7
			c-0.3-0.9-0.4-2.6-1-3.4c-0.4-0.6-1.2-0.7-1.9-1c-0.7-0.3-1.5-0.7-2.2-1C145.9,652.3,148,651.7,148.6,650.7z"/>
		<path d="M360.7,607.7c-0.9-0.4-1.8-0.8-2.7-1.1c-1.1-0.5-1.7-0.5-2-1.5c-0.6-1.9-1.1-3.9-1.6-5.9c0,0,0,0,0-0.1c0,0,0,0,0-0.1
			c-0.1-0.1-0.2-0.2-0.3-0.2c-0.1,0-0.3,0-0.3,0.2c0,0,0,0.1,0,0.1c0,0,0,0,0,0c0,0,0,0,0,0c0,0,0,0,0,0c-0.5,1.9-1,3.9-1.5,5.9
			c-0.5,1.5-3.3,2.1-4.7,2.7c-0.3,0.1-0.5,0.6-0.1,0.7c0.9,0.4,1.8,0.8,2.7,1.2c0.5,0.2,1.1,0.5,1.6,0.7c0.1,0.1,0.2,0.1,0.2,0.1
			c0,0,0,0,0,0.1c1,1.7,1.2,4.2,1.8,6.1c0.1,0.4,0.7,0.4,0.8,0c0.6-1.9,0.9-4.4,1.8-6.1c0,0,0,0,0-0.1c0,0,0.1,0,0.1-0.1
			c0.5-0.3,1.2-0.5,1.7-0.8c0.9-0.4,1.8-0.8,2.7-1.2C361.2,608.3,361,607.8,360.7,607.7z M357.3,609.1c-0.6,0.3-1.5,0.5-1.9,1
			c-0.6,0.8-0.7,2.4-1,3.4c-0.2,0.6-0.3,1.1-0.5,1.7c-0.2-0.6-0.3-1.1-0.5-1.7c-0.3-0.9-0.4-2.6-1-3.4c-0.4-0.6-1.2-0.7-1.9-1
			c-0.7-0.3-1.5-0.7-2.2-1c1.5-0.5,3.5-1.1,4.2-2.2c0.6-1,0.7-2.7,1-3.7c0.1-0.5,0.2-0.9,0.4-1.4c0.1,0.5,0.3,0.9,0.4,1.4
			c0.3,1.1,0.4,2.7,1,3.7c0.6,1.1,2.7,1.7,4.2,2.2C358.8,608.5,358.1,608.8,357.3,609.1z"/>
		<path d="M360.7,652.4c-0.9-0.4-1.8-0.8-2.7-1.1c-1.1-0.5-1.7-0.5-2-1.5c-0.6-1.9-1.1-3.9-1.6-5.9c0,0,0,0,0-0.1c0,0,0,0,0-0.1
			c-0.1-0.1-0.2-0.2-0.3-0.2c-0.1,0-0.3,0-0.3,0.2c0,0,0,0.1,0,0.1c0,0,0,0,0,0c0,0,0,0,0,0c0,0,0,0,0,0c-0.5,1.9-1,3.9-1.5,5.9
			c-0.5,1.5-3.3,2.1-4.7,2.7c-0.3,0.1-0.5,0.6-0.1,0.7c0.9,0.4,1.8,0.8,2.7,1.2c0.5,0.2,1.1,0.5,1.6,0.7c0.1,0.1,0.2,0.1,0.2,0.1
			c0,0,0,0,0,0.1c1,1.7,1.2,4.2,1.8,6.1c0.1,0.4,0.7,0.4,0.8,0c0.6-1.9,0.9-4.4,1.8-6.1c0,0,0,0,0-0.1c0,0,0.1,0,0.1-0.1
			c0.5-0.3,1.2-0.5,1.7-0.8c0.9-0.4,1.8-0.8,2.7-1.2C361.2,653,361,652.5,360.7,652.4z M357.3,653.8c-0.6,0.3-1.5,0.5-1.9,1
			c-0.6,0.8-0.7,2.4-1,3.4c-0.2,0.6-0.3,1.1-0.5,1.7c-0.2-0.6-0.3-1.1-0.5-1.7c-0.3-0.9-0.4-2.6-1-3.4c-0.4-0.6-1.2-0.7-1.9-1
			c-0.7-0.3-1.5-0.7-2.2-1c1.5-0.5,3.5-1.1,4.2-2.2c0.6-1,0.7-2.7,1-3.7c0.1-0.5,0.2-0.9,0.4-1.4c0.1,0.5,0.3,0.9,0.4,1.4
			c0.3,1.1,0.4,2.7,1,3.7c0.6,1.1,2.7,1.7,4.2,2.2C358.8,653.2,358.1,653.5,357.3,653.8z"/>
		<path d="M411.1,607.7c-1.5-0.6-4.3-1.2-4.7-2.7c-0.6-1.9-1-3.9-1.5-5.9c0,0,0,0,0,0c0,0,0,0,0,0c0,0,0,0,0,0c0,0,0-0.1,0-0.1
			c-0.1-0.1-0.2-0.2-0.3-0.2c-0.1,0-0.2,0.1-0.3,0.2c0,0,0,0,0,0.1c0,0,0,0,0,0.1c-0.5,2-1,4-1.6,5.9c-0.3,1-1,1-2,1.5
			c-0.9,0.4-1.8,0.8-2.7,1.1c-0.3,0.1-0.4,0.6-0.1,0.7c0.9,0.4,1.8,0.8,2.7,1.2c0.5,0.2,1.2,0.4,1.7,0.8c0.1,0,0.1,0.1,0.1,0.1
			c0,0,0,0,0,0.1c0.9,1.8,1.2,4.2,1.8,6.1c0.1,0.4,0.7,0.4,0.8,0c0.6-1.9,0.9-4.4,1.8-6.1c0,0,0-0.1,0-0.1c0,0,0.1,0,0.2-0.1
			c0.5-0.3,1.1-0.5,1.6-0.7c0.9-0.4,1.8-0.8,2.7-1.2C411.6,608.3,411.4,607.9,411.1,607.7z M407.7,609.1c-0.6,0.3-1.5,0.5-1.9,1
			c-0.6,0.8-0.7,2.4-1,3.4c-0.2,0.6-0.3,1.1-0.5,1.7c-0.2-0.6-0.3-1.1-0.5-1.7c-0.3-0.9-0.4-2.6-1-3.4c-0.4-0.6-1.2-0.7-1.9-1
			c-0.7-0.3-1.5-0.7-2.2-1c1.5-0.5,3.6-1.1,4.2-2.2c0.6-1,0.7-2.6,1-3.7c0.1-0.5,0.3-0.9,0.4-1.4c0.1,0.5,0.3,0.9,0.4,1.4
			c0.3,1.1,0.4,2.8,1,3.7c0.7,1.1,2.7,1.7,4.2,2.2C409.2,608.5,408.5,608.8,407.7,609.1z"/>
		<path d="M411.1,652.5c-1.5-0.6-4.3-1.2-4.7-2.7c-0.6-1.9-1-3.9-1.5-5.9c0,0,0,0,0,0c0,0,0,0,0,0c0,0,0,0,0,0c0,0,0-0.1,0-0.1
			c-0.1-0.1-0.2-0.2-0.3-0.2c-0.1,0-0.2,0.1-0.3,0.2c0,0,0,0,0,0.1c0,0,0,0,0,0.1c-0.5,2-1,4-1.6,5.9c-0.3,1-1,1-2,1.5
			c-0.9,0.4-1.8,0.8-2.7,1.1c-0.3,0.1-0.4,0.6-0.1,0.7c0.9,0.4,1.8,0.8,2.7,1.2c0.5,0.2,1.2,0.4,1.7,0.8c0.1,0,0.1,0.1,0.1,0.1
			c0,0,0,0,0,0.1c0.9,1.8,1.2,4.2,1.8,6.1c0.1,0.4,0.7,0.4,0.8,0c0.6-1.9,0.9-4.4,1.8-6.1c0,0,0-0.1,0-0.1c0,0,0.1,0,0.2-0.1
			c0.5-0.3,1.1-0.5,1.6-0.7c0.9-0.4,1.8-0.8,2.7-1.2C411.6,653,411.4,652.6,411.1,652.5z M407.7,653.9c-0.6,0.3-1.5,0.5-1.9,1
			c-0.6,0.8-0.7,2.4-1,3.4c-0.2,0.6-0.3,1.1-0.5,1.7c-0.2-0.6-0.3-1.1-0.5-1.7c-0.3-0.9-0.4-2.6-1-3.4c-0.4-0.6-1.2-0.7-1.9-1
			c-0.7-0.3-1.5-0.7-2.2-1c1.5-0.5,3.6-1.1,4.2-2.2c0.6-1,0.7-2.6,1-3.7c0.1-0.5,0.3-0.9,0.4-1.4c0.1,0.5,0.3,0.9,0.4,1.4
			c0.3,1.1,0.4,2.8,1,3.7c0.7,1.1,2.7,1.7,4.2,2.2C409.2,653.2,408.5,653.5,407.7,653.9z"/>
		<path d="M108.2,247.7c5.2,3.8,29.1,21.5,35.4,26.2c3.1,2.3,6.3,4.6,9.4,7c0.5,0.4,1.2-0.2,1-0.8c-3.5-10.8-7-21.6-10.5-32.3
			l-1.2,0.8c2.2,6.9,4.5,14,6.8,20.9l2.9,9c-8.8-6.5-38-28.1-43.4-32.1L108.2,247.7z"/>
		<path d="M77.1,224.7c9.4,6.9,18.5,13.7,27.8,20.5l0.5-1.3c-6-4.4-12.1-8.9-18.2-13.4c-2.6-1.9-5.1-3.8-7.7-5.7h53.7
			c0-0.1-0.4-1-0.5-1.4H77.5C76.8,223.4,76.6,224.3,77.1,224.7z"/>
		<path d="M95.9,280.8c9.2-6.8,18.3-13.5,27.5-20.3c0,0-1-0.9-1-0.9c-5.9,4.4-11.8,8.7-17.7,13.1l-7.8,5.7c3.4-10.5,14.9-46,17-52.5
			l-1.4,0c-2,6.2-11.4,35.4-13.9,43.1l-3.6,11C94.7,280.6,95.4,281.2,95.9,280.8z"/>
		<path d="M124.8,190.2c-0.1,0-0.1-0.1-0.2-0.1c0,0,0,0,0,0c0,0,0,0-0.1,0c0,0-0.1,0-0.1,0c0,0,0,0,0,0c-0.1,0-0.2,0-0.2,0.1
			c-0.2,0.1-0.4,0.3-0.4,0.5c-3.4,10.4-6.7,20.9-10.1,31.3c0,0,0,0,0,0c0.5,0,0.9,0,1.4,0c2.2-6.7,4.3-13.4,6.5-20
			c1-3,1.9-6,2.9-8.9c3.3,10.1,14.4,44.7,16.5,51.1l1.2-0.9c-2-6.2-13.5-41.7-13.5-41.7c-1.2-3.6-2.3-7.3-3.5-10.9
			C125.2,190.5,125,190.3,124.8,190.2z"/>
		<path d="M171.8,224.7c0.5-0.4,0.4-1.3-0.3-1.3h-34.1c0.2,0.5,0.3,0.9,0.5,1.4h31.6c-8.9,6.6-38.6,28.5-43.8,32.4l1.1,0.8
			c5.1-3.7,35.7-26.4,35.7-26.4C165.5,229.3,168.7,227,171.8,224.7z"/>
		<path d="M78.9,212.4c8.8-14.6,24.2-23.9,40.7-25.5c-0.1-0.4-0.1-0.9-0.1-1.3c-14.3,1.4-28,8.3-37.3,19.8c-3.2,4-5.8,8.3-7.7,12.9
			c0.4,0.1,0.9,0.2,1.2,0.4C76.6,216.5,77.7,214.4,78.9,212.4z"/>
		<path d="M71.7,226.8c-3.4,13.9-1.4,28.9,6.3,41.4c3.2,5.2,7.2,9.7,11.7,13.4c0.3-0.4,0.6-0.7,1-0.9c-2.5-2.1-4.9-4.4-7-6.9
			C72.8,260.8,69,243.1,73,227C72.5,227,72.1,226.9,71.7,226.8z"/>
		<path d="M151.5,287c-0.3-0.4-0.5-0.7-0.6-1.2c-2.7,1.6-5.6,2.9-8.7,4c-15.2,5.4-31.9,3.3-45.3-4.7c-0.1,0.4-0.3,0.9-0.5,1.3
			c11.4,6.8,25.2,9.5,38.6,6.9C141,292.1,146.5,290,151.5,287z"/>
		<path d="M176,227.2C176,227.2,176,227.2,176,227.2c1,4.1,1.6,8.3,1.6,12.5c-0.1,15.9-7.4,30.9-19.3,40.9c0.4,0.3,0.7,0.6,1,0.9
			c12-10.2,19.5-25.4,19.6-41.7c0-4.4-0.6-8.7-1.6-12.9C176.9,227,176.5,227.1,176,227.2z"/>
		<path d="M135.1,187.7c17.3,3.5,31.2,15.5,37.9,31c0,0,0,0,0,0c0.3-0.1,0.5-0.1,0.8,0c0.1-0.1,0.1-0.1,0.2-0.2
			c0.1-0.1,0.2-0.2,0.3-0.3c-5.8-13.4-16.8-24.3-31-29.6c-4.4-1.6-9-2.6-13.7-3.1c0.1,0.4,0.2,0.9,0.2,1.4
			C131.7,187.1,133.4,187.4,135.1,187.7z"/>
		<path d="M123.6,186.8c0.4,0.4,0.6,2.2,0.9,2.2c0.3,0,0.5-1.8,1-2.2c0.4-0.4,1.6-0.6,1.6-0.8s-1.2-0.5-1.6-0.9
			c-0.4-0.4-0.6-2.2-0.9-2.2c-0.3,0-0.5,1.7-1,2.2c-0.5,0.4-1.6,0.5-1.6,0.8C122,186.2,123.1,186.3,123.6,186.8z"/>
		<path d="M71.9,223.2c0.3,0.6,0,1.7,0.3,1.8c0.3,0.1,0.8-1,1.3-1.3c0.6-0.3,2.3,0.1,2.4-0.1c0.1-0.3-1.5-1.1-1.8-1.6
			c-0.2-0.5,0-1.7-0.3-1.8c-0.2-0.1-0.8,1-1.3,1.3c-0.5,0.2-2.3-0.1-2.4,0.1C70,221.9,71.6,222.6,71.9,223.2z"/>
		<path d="M90.9,286.5c0.2,0.2,1.4-1.1,2.1-1.2c0.6-0.1,1.6,0.5,1.8,0.3c0.2-0.2-0.7-1-0.8-1.6c-0.1-0.6,0.8-2.1,0.6-2.3
			c-0.2-0.2-1.5,1.1-2.1,1.2c-0.6,0.1-1.6-0.5-1.8-0.3c-0.1,0.2,0.7,1.1,0.8,1.6C91.6,284.7,90.7,286.3,90.9,286.5z"/>
		<path d="M158.1,282.7c-0.2-0.2-1.2,0.4-1.8,0.2c-0.6-0.1-1.8-1.4-2-1.3c-0.2,0.2,0.6,1.8,0.5,2.3c-0.1,0.6-1,1.4-0.9,1.6
			c0.1,0.2,1.3-0.3,1.8-0.2c0.5,0.1,1.8,1.4,2,1.3c0.2-0.2-0.6-1.7-0.5-2.3C157.3,283.7,158.2,283,158.1,282.7z"/>
		<path d="M173,223.4c0.1,0.3,1.9,0,2.4,0.2c0.5,0.3,1,1.4,1.3,1.3c0.2-0.1,0.1-1.3,0.3-1.8c0.3-0.5,1.9-1.3,1.8-1.5
			c-0.1-0.3-1.8,0.1-2.4-0.2c-0.6-0.3-1-1.4-1.3-1.3c-0.3,0.1,0,1.2-0.3,1.8S172.9,223.1,173,223.4z"/>
		<path d="M109.1,217.2c-0.1-1.4-1.1-2.5-2.5-2.5c-1.4,0-2.5,1.1-2.5,2.5c0,1.3,1.1,2.4,2.4,2.5C107.9,219.7,109,218.6,109.1,217.2z
			 M105.4,217.2c0-1.5,2.2-1.5,2.3,0C107.6,218.6,105.4,218.6,105.4,217.2z"/>
		<path d="M143.8,217.2c-0.1-1.4-1.1-2.5-2.5-2.5c-1.4,0-2.5,1.1-2.5,2.5c0,1.3,1.1,2.4,2.4,2.5
			C142.6,219.7,143.7,218.6,143.8,217.2z M140.1,217.2c0-1.5,2.2-1.5,2.3,0C142.3,218.6,140.1,218.6,140.1,217.2z"/>
		<path d="M124.4,271c1.5,0.1,2.5-1.1,2.6-2.5c-0.1-1.4-1.1-2.5-2.5-2.5c-1.4,0-2.5,1.1-2.5,2.5C122,269.8,123.1,270.9,124.4,271z
			 M125.6,268.5c-0.1,1.5-2.3,1.5-2.3,0C123.3,267,125.5,267,125.6,268.5z"/>
		<path d="M102.1,248.1c-0.1-1.4-1.1-2.5-2.5-2.5c-1.4,0-2.5,1.1-2.5,2.5c0,1.3,1.1,2.4,2.4,2.5C100.9,250.6,102,249.5,102.1,248.1z
			 M98.5,248.1c0-1.5,2.2-1.5,2.3,0C100.7,249.5,98.5,249.6,98.5,248.1z"/>
		<path d="M152.1,248.1c-0.1-1.4-1.1-2.5-2.5-2.5c-1.4,0-2.5,1.1-2.5,2.5c0,1.3,1.1,2.4,2.4,2.5C151,250.6,152,249.5,152.1,248.1z
			 M148.5,248.1c0-1.5,2.2-1.5,2.3,0C150.7,249.5,148.5,249.6,148.5,248.1z"/>
		<polygon points="128.2,239.2 131.8,233.5 126.1,237.1 124.6,227.6 123.1,237.1 117.4,233.5 121,239.2 111.5,240.7 121,242.2 
			117.4,247.9 123.1,244.3 124.6,253.8 126.1,244.3 131.8,247.9 128.2,242.2 137.7,240.7 		"/>
		<path d="M108.2,376.5c5.2,3.8,29.1,21.5,35.4,26.2c3.1,2.3,6.3,4.6,9.4,7c0.5,0.4,1.2-0.2,1-0.8c-3.5-10.8-7-21.5-10.5-32.3
			l-1.2,0.8c2.2,6.9,4.5,14,6.8,20.9l2.9,9c-8.8-6.5-38-28.1-43.4-32.1L108.2,376.5z"/>
		<path d="M104.9,374.1l0.5-1.3c-6-4.4-12.1-8.9-18.2-13.4c-2.6-1.9-5.1-3.8-7.7-5.7h53.7c0-0.1-0.4-1-0.5-1.4H77.5
			c-0.7,0-0.9,0.9-0.3,1.3C86.5,360.5,95.7,367.3,104.9,374.1z"/>
		<path d="M95.9,409.7c9.2-6.8,18.3-13.5,27.5-20.3c0,0-1-0.9-1-0.9c-5.9,4.4-11.8,8.7-17.7,13.1l-7.8,5.7c3.4-10.5,14.9-46,17-52.5
			l-1.4,0c-2,6.2-11.4,35.4-13.9,43.1l-3.6,11C94.7,409.5,95.4,410.1,95.9,409.7z"/>
		<path d="M113.7,350.9c0.5,0,0.9,0,1.4,0c2.2-6.7,4.3-13.4,6.5-20c1-3,1.9-6,2.9-8.9c3.3,10.1,14.4,44.7,16.5,51.1l1.2-0.9
			c-2-6.2-13.5-41.7-13.5-41.7c-1.2-3.6-2.3-7.3-3.5-10.9c0-0.2-0.2-0.4-0.4-0.5c-0.1,0-0.1-0.1-0.2-0.1c0,0,0,0,0,0c0,0,0,0-0.1,0
			c0,0-0.1,0-0.1,0c0,0,0,0,0,0c-0.1,0-0.2,0-0.2,0.1c-0.2,0.1-0.4,0.3-0.4,0.5C120.4,330,117,340.5,113.7,350.9
			C113.7,350.9,113.7,350.9,113.7,350.9z"/>
		<path d="M171.8,353.6c0.5-0.4,0.4-1.3-0.3-1.3h-34.1c0.2,0.5,0.3,0.9,0.5,1.4h31.6c-8.9,6.6-38.6,28.5-43.8,32.4l1.1,0.8
			c5.1-3.7,35.7-26.4,35.7-26.4C165.5,358.2,168.7,355.9,171.8,353.6z"/>
		<path d="M78.9,341.3c8.8-14.6,24.2-23.9,40.7-25.5c-0.1-0.4-0.1-0.9-0.1-1.3c-14.3,1.4-28,8.3-37.3,19.8c-3.2,4-5.8,8.3-7.7,12.9
			c0.4,0.1,0.9,0.2,1.2,0.4C76.6,345.4,77.7,343.3,78.9,341.3z"/>
		<path d="M71.7,355.7c-3.4,13.9-1.4,28.9,6.3,41.4c3.2,5.2,7.2,9.7,11.7,13.4c0.3-0.4,0.6-0.7,1-0.9c-2.5-2.1-4.9-4.4-7-6.9
			C72.8,389.7,69,372,73,355.9C72.5,355.9,72.1,355.8,71.7,355.7z"/>
		<path d="M151.5,415.9c-0.3-0.4-0.5-0.7-0.6-1.2c-2.7,1.6-5.6,2.9-8.7,4c-15.2,5.4-31.9,3.3-45.3-4.7c-0.1,0.4-0.3,0.9-0.5,1.3
			c11.4,6.8,25.2,9.5,38.6,6.9C141,421,146.5,418.8,151.5,415.9z"/>
		<path d="M176,356.1C176,356.1,176,356.1,176,356.1c1,4.1,1.6,8.3,1.6,12.5c-0.1,15.9-7.4,30.9-19.3,40.9c0.4,0.3,0.7,0.6,1,0.9
			c12-10.2,19.5-25.4,19.6-41.7c0-4.4-0.6-8.7-1.6-12.9C176.9,355.9,176.5,355.9,176,356.1z"/>
		<path d="M143.4,317.5c-4.4-1.6-9-2.6-13.7-3.1c0.1,0.4,0.2,0.9,0.2,1.4c1.7,0.2,3.5,0.4,5.2,0.8c17.3,3.5,31.2,15.5,37.9,31
			c0,0,0,0,0,0c0.3-0.1,0.5-0.1,0.8,0c0.1-0.1,0.1-0.1,0.2-0.2c0.1-0.1,0.2-0.2,0.3-0.3C168.6,333.7,157.6,322.8,143.4,317.5z"/>
		<path d="M124.4,317.9c0.3,0,0.5-1.8,1-2.2c0.4-0.4,1.6-0.6,1.6-0.8s-1.2-0.5-1.6-0.9c-0.4-0.4-0.6-2.2-0.9-2.2
			c-0.3,0-0.5,1.7-1,2.2c-0.5,0.4-1.6,0.5-1.6,0.8c0,0.3,1.2,0.4,1.6,0.9C124,316.1,124.2,317.9,124.4,317.9z"/>
		<path d="M71.9,352c0.3,0.6,0,1.7,0.3,1.8c0.3,0.1,0.8-1,1.3-1.3c0.6-0.3,2.3,0.1,2.4-0.1c0.1-0.3-1.5-1.1-1.8-1.6
			c-0.2-0.5,0-1.7-0.3-1.8c-0.2-0.1-0.8,1-1.3,1.3s-2.3-0.1-2.4,0.1C70,350.7,71.6,351.5,71.9,352z"/>
		<path d="M90.9,415.3c0.2,0.2,1.4-1.1,2.1-1.2c0.6-0.1,1.6,0.5,1.8,0.3c0.2-0.2-0.7-1-0.8-1.6c-0.1-0.6,0.8-2.1,0.6-2.3
			c-0.2-0.2-1.5,1.1-2.1,1.2c-0.6,0.1-1.6-0.5-1.8-0.3c-0.1,0.2,0.7,1.1,0.8,1.6C91.6,413.6,90.7,415.2,90.9,415.3z"/>
		<path d="M158.1,411.6c-0.2-0.2-1.2,0.4-1.8,0.2c-0.6-0.1-1.8-1.4-2-1.3c-0.2,0.2,0.6,1.8,0.5,2.3c-0.1,0.6-1,1.4-0.9,1.6
			c0.1,0.2,1.3-0.3,1.8-0.2c0.5,0.1,1.8,1.4,2,1.3c0.2-0.2-0.6-1.7-0.5-2.3C157.3,412.6,158.2,411.8,158.1,411.6z"/>
		<path d="M173,352.2c0.1,0.3,1.9,0,2.4,0.2c0.5,0.3,1,1.4,1.3,1.3c0.2-0.1,0.1-1.3,0.3-1.8c0.3-0.5,1.9-1.3,1.8-1.5
			c-0.1-0.3-1.8,0.1-2.4-0.2c-0.6-0.3-1-1.4-1.3-1.3c-0.3,0.1,0,1.2-0.3,1.8C174.5,351.3,172.9,352,173,352.2z"/>
		<path d="M104,346c0,1.3,1.1,2.4,2.4,2.5c1.5,0.1,2.5-1.1,2.6-2.5c-0.1-1.4-1.1-2.5-2.5-2.5C105.2,343.5,104,344.7,104,346z
			 M107.7,346c-0.1,1.5-2.3,1.5-2.3,0C105.4,344.6,107.6,344.6,107.7,346z"/>
		<path d="M143.8,346c-0.1-1.4-1.1-2.5-2.5-2.5c-1.4,0-2.5,1.1-2.5,2.5c0,1.3,1.1,2.4,2.4,2.5C142.6,348.6,143.7,347.4,143.8,346z
			 M140.1,346c0-1.5,2.2-1.5,2.3,0C142.3,347.5,140.1,347.5,140.1,346z"/>
		<path d="M124.4,399.8c1.5,0.1,2.5-1.1,2.6-2.5c-0.1-1.4-1.1-2.5-2.5-2.5c-1.4,0-2.5,1.1-2.5,2.5
			C122,398.7,123.1,399.8,124.4,399.8z M125.6,397.3c-0.1,1.5-2.3,1.5-2.3,0C123.3,395.9,125.5,395.9,125.6,397.3z"/>
		<path d="M102.1,376.9c-0.1-1.4-1.1-2.5-2.5-2.5c-1.4,0-2.5,1.1-2.5,2.5c0,1.3,1.1,2.4,2.4,2.5C100.9,379.5,102,378.3,102.1,376.9z
			 M98.5,376.9c0-1.5,2.2-1.5,2.3,0C100.7,378.4,98.5,378.4,98.5,376.9z"/>
		<path d="M152.1,376.9c-0.1-1.4-1.1-2.5-2.5-2.5c-1.4,0-2.5,1.1-2.5,2.5c0,1.3,1.1,2.4,2.4,2.5C151,379.5,152,378.3,152.1,376.9z
			 M148.5,376.9c0-1.5,2.2-1.5,2.3,0C150.7,378.4,148.5,378.4,148.5,376.9z"/>
		<polygon points="128.2,368.1 131.8,362.4 126.1,366 124.6,356.5 123.1,366 117.4,362.4 121,368.1 111.5,369.6 121,371 
			117.4,376.7 123.1,373.1 124.6,382.6 126.1,373.1 131.8,376.7 128.2,371 137.7,369.6 		"/>
		<path d="M153.1,538.6c0.5,0.4,1.2-0.2,1-0.8c-3.5-10.8-7-21.5-10.5-32.3l-1.2,0.8c2.2,6.9,4.5,14,6.8,20.9l2.9,9
			c-8.8-6.5-38-28.1-43.4-32.1l-0.5,1.3c5.2,3.8,29.1,21.5,35.4,26.2C146.8,533.9,149.9,536.3,153.1,538.6z"/>
		<path d="M104.9,502.9l0.5-1.3c-6-4.4-12.1-8.9-18.2-13.4c-2.6-1.9-5.1-3.8-7.7-5.7h53.7c0-0.1-0.4-1-0.5-1.4H77.5
			c-0.7,0-0.9,0.9-0.3,1.3C86.5,489.4,95.7,496.1,104.9,502.9z"/>
		<path d="M95.9,538.6c9.2-6.8,18.3-13.5,27.5-20.3c0,0-1-0.9-1-0.9c-5.9,4.4-11.8,8.7-17.7,13.1l-7.8,5.7c3.4-10.5,14.9-46,17-52.5
			l-1.4,0c-2,6.2-11.4,35.4-13.9,43.1l-3.6,11C94.7,538.3,95.4,538.9,95.9,538.6z"/>
		<path d="M113.7,479.7c0.5,0,0.9,0,1.4,0c2.2-6.7,4.3-13.4,6.5-20c1-3,1.9-6,2.9-8.9c3.3,10.1,14.4,44.7,16.5,51.1l1.2-0.9
			c-2-6.2-13.5-41.7-13.5-41.7c-1.2-3.6-2.3-7.3-3.5-10.9c0-0.2-0.2-0.4-0.4-0.5c-0.1,0-0.1-0.1-0.2-0.1c0,0,0,0,0,0c0,0,0,0-0.1,0
			c0,0-0.1,0-0.1,0c0,0,0,0,0,0c-0.1,0-0.2,0-0.2,0.1c-0.2,0.1-0.4,0.3-0.4,0.5C120.4,458.9,117,469.3,113.7,479.7
			C113.7,479.7,113.7,479.7,113.7,479.7z"/>
		<path d="M171.8,482.4c0.5-0.4,0.4-1.3-0.3-1.3h-34.1c0.2,0.5,0.3,0.9,0.5,1.4h31.6c-8.9,6.6-38.6,28.5-43.8,32.4l1.1,0.8
			c5.1-3.7,35.7-26.4,35.7-26.4C165.5,487.1,168.7,484.8,171.8,482.4z"/>
		<path d="M78.9,470.1c8.8-14.6,24.2-23.9,40.7-25.5c-0.1-0.4-0.1-0.9-0.1-1.3c-14.3,1.4-28,8.3-37.3,19.8c-3.2,4-5.8,8.3-7.7,12.9
			c0.4,0.1,0.9,0.2,1.2,0.4C76.6,474.3,77.7,472.2,78.9,470.1z"/>
		<path d="M83.7,531.6c-10.9-13-14.7-30.7-10.7-46.8c-0.4,0-0.9-0.1-1.3-0.2c-3.4,13.9-1.4,28.9,6.3,41.4c3.2,5.2,7.2,9.7,11.7,13.4
			c0.3-0.4,0.6-0.7,1-0.9C88.2,536.4,85.8,534.1,83.7,531.6z"/>
		<path d="M151.5,544.8c-0.3-0.4-0.5-0.7-0.6-1.2c-2.7,1.6-5.6,2.9-8.7,4c-15.2,5.4-31.9,3.3-45.3-4.7c-0.1,0.4-0.3,0.9-0.5,1.3
			c11.4,6.8,25.2,9.5,38.6,6.9C141,549.8,146.5,547.7,151.5,544.8z"/>
		<path d="M176,485C176,485,176,485,176,485c1,4.1,1.6,8.3,1.6,12.5c-0.1,15.9-7.4,30.9-19.3,40.9c0.4,0.3,0.7,0.6,1,0.9
			c12-10.2,19.5-25.4,19.6-41.7c0-4.4-0.6-8.7-1.6-12.9C176.9,484.7,176.5,484.8,176,485z"/>
		<path d="M143.4,446.4c-4.4-1.6-9-2.6-13.7-3.1c0.1,0.4,0.2,0.9,0.2,1.4c1.7,0.2,3.5,0.4,5.2,0.8c17.3,3.5,31.2,15.5,37.9,31
			c0,0,0,0,0,0c0.3-0.1,0.5-0.1,0.8,0c0.1-0.1,0.1-0.1,0.2-0.2c0.1-0.1,0.2-0.2,0.3-0.3C168.6,462.6,157.6,451.6,143.4,446.4z"/>
		<path d="M124.4,446.7c0.3,0,0.5-1.8,1-2.2c0.4-0.4,1.6-0.6,1.6-0.8c0-0.2-1.2-0.5-1.6-0.9c-0.4-0.4-0.6-2.2-0.9-2.2
			c-0.3,0-0.5,1.7-1,2.2c-0.5,0.4-1.6,0.5-1.6,0.8c0,0.3,1.2,0.4,1.6,0.9C124,444.9,124.2,446.7,124.4,446.7z"/>
		<path d="M71.9,480.9c0.3,0.6,0,1.7,0.3,1.8c0.3,0.1,0.8-1,1.3-1.3c0.6-0.3,2.3,0.1,2.4-0.1c0.1-0.3-1.5-1.1-1.8-1.6
			c-0.2-0.5,0-1.7-0.3-1.8c-0.2-0.1-0.8,1-1.3,1.3s-2.3-0.1-2.4,0.1C70,479.6,71.6,480.3,71.9,480.9z"/>
		<path d="M94.8,543.3c0.2-0.2-0.7-1-0.8-1.6c-0.1-0.6,0.8-2.1,0.6-2.3c-0.2-0.2-1.5,1.1-2.1,1.2c-0.6,0.1-1.6-0.5-1.8-0.3
			s0.7,1.1,0.8,1.6c0.1,0.5-0.8,2.1-0.6,2.3c0.2,0.2,1.4-1.1,2.1-1.2C93.6,542.9,94.6,543.5,94.8,543.3z"/>
		<path d="M158.1,540.5c-0.2-0.2-1.2,0.4-1.8,0.2c-0.6-0.1-1.8-1.4-2-1.3c-0.2,0.2,0.6,1.8,0.5,2.3c-0.1,0.6-1,1.4-0.9,1.6
			c0.1,0.2,1.3-0.3,1.8-0.2c0.5,0.1,1.8,1.4,2,1.3c0.2-0.2-0.6-1.7-0.5-2.3C157.3,541.4,158.2,540.7,158.1,540.5z"/>
		<path d="M173,481.1c0.1,0.3,1.9,0,2.4,0.2c0.5,0.3,1,1.4,1.3,1.3c0.2-0.1,0.1-1.3,0.3-1.8c0.3-0.5,1.9-1.3,1.8-1.5
			c-0.1-0.3-1.8,0.1-2.4-0.2c-0.6-0.3-1-1.4-1.3-1.3c-0.3,0.1,0,1.2-0.3,1.8C174.5,480.1,172.9,480.8,173,481.1z"/>
		<path d="M104,474.9c0,1.3,1.1,2.4,2.4,2.5c1.5,0.1,2.5-1.1,2.6-2.5c-0.1-1.4-1.1-2.5-2.5-2.5C105.2,472.4,104,473.5,104,474.9z
			 M107.7,474.9c-0.1,1.5-2.3,1.5-2.3,0C105.4,473.4,107.6,473.4,107.7,474.9z"/>
		<path d="M143.8,474.9c-0.1-1.4-1.1-2.5-2.5-2.5c-1.4,0-2.5,1.1-2.5,2.5c0,1.3,1.1,2.4,2.4,2.5
			C142.6,477.5,143.7,476.3,143.8,474.9z M140.1,474.9c0-1.5,2.2-1.5,2.3,0C142.3,476.4,140.1,476.4,140.1,474.9z"/>
		<path d="M124.4,528.7c1.5,0.1,2.5-1.1,2.6-2.5c-0.1-1.4-1.1-2.5-2.5-2.5c-1.4,0-2.5,1.1-2.5,2.5
			C122,527.5,123.1,528.7,124.4,528.7z M125.6,526.2c-0.1,1.5-2.3,1.5-2.3,0C123.3,524.7,125.5,524.8,125.6,526.2z"/>
		<path d="M97.1,505.8c0,1.3,1.1,2.4,2.4,2.5c1.5,0.1,2.5-1.1,2.6-2.5c-0.1-1.4-1.1-2.5-2.5-2.5C98.2,503.3,97.1,504.5,97.1,505.8z
			 M100.7,505.8c-0.1,1.5-2.3,1.5-2.3,0C98.5,504.3,100.7,504.4,100.7,505.8z"/>
		<path d="M152.1,505.8c-0.1-1.4-1.1-2.5-2.5-2.5c-1.4,0-2.5,1.1-2.5,2.5c0,1.3,1.1,2.4,2.4,2.5C151,508.4,152,507.2,152.1,505.8z
			 M148.5,505.8c0-1.5,2.2-1.5,2.3,0C150.7,507.3,148.5,507.3,148.5,505.8z"/>
		<polygon points="128.2,496.9 131.8,491.3 126.1,494.8 124.6,485.4 123.1,494.8 117.4,491.3 121,496.9 111.5,498.4 121,499.9 
			117.4,505.6 123.1,502 124.6,511.5 126.1,502 131.8,505.6 128.2,499.9 137.7,498.4 		"/>
		<path d="M235.7,247.7c5.2,3.8,29.1,21.5,35.4,26.2c3.1,2.3,6.3,4.6,9.4,7c0.5,0.4,1.2-0.2,1-0.8c-3.5-10.8-7-21.6-10.5-32.3
			l-1.2,0.8c2.2,6.9,4.5,14,6.8,20.9l2.9,9c-8.8-6.5-38-28.1-43.4-32.1L235.7,247.7z"/>
		<path d="M204.6,224.7c9.4,6.9,18.5,13.7,27.8,20.5l0.5-1.3c-6-4.4-12.1-8.9-18.2-13.4c-2.6-1.9-5.1-3.8-7.7-5.7h53.7
			c0-0.1-0.4-1-0.5-1.4h-55.3C204.2,223.4,204.1,224.3,204.6,224.7z"/>
		<path d="M223.3,280.8c9.2-6.8,18.3-13.5,27.5-20.3c0,0-1-0.9-1.1-0.9c-5.9,4.4-11.8,8.7-17.7,13.1l-7.8,5.7
			c3.4-10.5,14.9-46,17-52.5l-1.4,0c-2,6.2-11.4,35.4-13.9,43.1l-3.6,11C222.2,280.6,222.9,281.2,223.3,280.8z"/>
		<path d="M241.2,222c0.5,0,0.9,0,1.4,0c2.2-6.7,4.3-13.4,6.5-20c1-3,1.9-6,2.9-8.9c3.3,10.1,14.4,44.7,16.5,51.1l1.2-0.9
			c-2-6.2-13.5-41.7-13.5-41.7c-1.2-3.6-2.3-7.3-3.5-10.9c0-0.2-0.2-0.4-0.4-0.5c-0.1,0-0.1-0.1-0.2-0.1c0,0,0,0,0,0c0,0,0,0-0.1,0
			c0,0-0.1,0-0.1,0c0,0,0,0,0,0c-0.1,0-0.2,0-0.2,0.1c-0.2,0.1-0.4,0.3-0.4,0.5C247.9,201.2,244.5,211.6,241.2,222
			C241.1,222,241.1,222,241.2,222z"/>
		<path d="M265.3,224.8h31.6c-8.9,6.6-38.6,28.5-43.8,32.4l1.1,0.8c5.1-3.7,35.7-26.4,35.7-26.4c3.1-2.3,6.3-4.6,9.4-7
			c0.5-0.4,0.4-1.3-0.3-1.3h-34.1C265,223.9,265.1,224.3,265.3,224.8z"/>
		<path d="M206.4,212.4c8.8-14.6,24.2-23.9,40.7-25.5c-0.1-0.4-0.1-0.9-0.1-1.3c-14.3,1.4-28,8.3-37.3,19.8c-3.2,4-5.8,8.3-7.7,12.9
			c0.4,0.1,0.9,0.2,1.2,0.4C204.1,216.5,205.1,214.4,206.4,212.4z"/>
		<path d="M199.1,226.8c-3.4,13.9-1.4,28.9,6.3,41.4c3.2,5.2,7.2,9.7,11.7,13.4c0.3-0.4,0.6-0.7,1-0.9c-2.5-2.1-4.9-4.4-7-6.9
			c-10.9-13-14.7-30.7-10.7-46.8C200,227,199.5,226.9,199.1,226.8z"/>
		<path d="M262.5,293.3c5.9-1.2,11.4-3.3,16.4-6.2c-0.3-0.4-0.5-0.7-0.6-1.2c-2.7,1.6-5.6,2.9-8.7,4c-15.2,5.4-31.9,3.3-45.3-4.7
			c-0.1,0.4-0.3,0.9-0.5,1.3C235.3,293.2,249.1,295.9,262.5,293.3z"/>
		<path d="M304.8,226.9c-0.4,0.1-0.9,0.2-1.3,0.3c0,0,0,0,0,0c1,4.1,1.6,8.3,1.6,12.5c-0.1,15.9-7.4,30.9-19.3,40.9
			c0.4,0.3,0.7,0.6,1,0.9c12-10.2,19.5-25.4,19.6-41.7C306.4,235.4,305.8,231.1,304.8,226.9z"/>
		<path d="M257.4,186.9c1.7,0.2,3.5,0.4,5.2,0.8c17.3,3.5,31.2,15.5,37.9,31c0,0,0,0,0,0c0.3-0.1,0.5-0.1,0.8,0
			c0.1-0.1,0.1-0.1,0.2-0.2c0.1-0.1,0.2-0.2,0.3-0.3c-5.8-13.4-16.8-24.3-31-29.6c-4.4-1.6-9-2.6-13.7-3.1
			C257.3,186,257.3,186.5,257.4,186.9z"/>
		<path d="M251.9,189c0.3,0,0.5-1.8,1-2.2c0.4-0.4,1.6-0.6,1.6-0.8s-1.2-0.5-1.6-0.9c-0.4-0.4-0.6-2.2-0.9-2.2c-0.3,0-0.5,1.7-1,2.2
			c-0.5,0.4-1.6,0.5-1.6,0.8c0,0.3,1.2,0.4,1.6,0.9C251.4,187.2,251.6,189,251.9,189z"/>
		<path d="M199.3,223.2c0.3,0.6,0,1.7,0.3,1.8c0.3,0.1,0.8-1,1.3-1.3c0.6-0.3,2.3,0.1,2.4-0.1s-1.5-1.1-1.8-1.6
			c-0.2-0.5,0-1.7-0.3-1.8c-0.2-0.1-0.8,1-1.3,1.3c-0.5,0.2-2.3-0.1-2.4,0.1C197.4,221.9,199,222.6,199.3,223.2z"/>
		<path d="M218.4,286.5c0.2,0.2,1.4-1.1,2.1-1.2c0.6-0.1,1.6,0.5,1.8,0.3c0.2-0.2-0.7-1-0.8-1.6c-0.1-0.6,0.8-2.1,0.6-2.3
			c-0.2-0.2-1.5,1.1-2.1,1.2c-0.6,0.1-1.6-0.5-1.8-0.3c-0.1,0.2,0.7,1.1,0.8,1.6C219,284.7,218.2,286.3,218.4,286.5z"/>
		<path d="M285.5,282.7c-0.2-0.2-1.2,0.4-1.8,0.2c-0.6-0.1-1.8-1.4-2-1.3c-0.2,0.2,0.6,1.8,0.5,2.3c-0.1,0.6-1,1.4-0.9,1.6
			c0.1,0.2,1.3-0.3,1.8-0.2c0.5,0.1,1.8,1.4,2,1.3s-0.6-1.7-0.5-2.3C284.8,283.7,285.7,283,285.5,282.7z"/>
		<path d="M300.4,223.4c0.1,0.3,1.9,0,2.4,0.2c0.5,0.3,1,1.4,1.3,1.3c0.2-0.1,0.1-1.3,0.3-1.8c0.3-0.5,1.9-1.3,1.8-1.5
			c-0.1-0.3-1.8,0.1-2.4-0.2c-0.6-0.3-1-1.4-1.3-1.3c-0.3,0.1,0,1.2-0.3,1.8C302,222.4,300.3,223.1,300.4,223.4z"/>
		<path d="M236.5,217.2c-0.1-1.4-1.1-2.5-2.5-2.5c-1.4,0-2.5,1.1-2.5,2.5c0,1.3,1.1,2.4,2.4,2.5
			C235.3,219.7,236.4,218.6,236.5,217.2z M232.9,217.2c0-1.5,2.2-1.5,2.3,0C235.1,218.6,232.9,218.6,232.9,217.2z"/>
		<path d="M271.2,217.2c-0.1-1.4-1.1-2.5-2.5-2.5c-1.4,0-2.5,1.1-2.5,2.5c0,1.3,1.1,2.4,2.4,2.5
			C270.1,219.7,271.1,218.6,271.2,217.2z M267.6,217.2c0-1.5,2.2-1.5,2.3,0C269.8,218.6,267.6,218.6,267.6,217.2z"/>
		<path d="M249.4,268.5c0,1.3,1.1,2.4,2.4,2.5c1.5,0.1,2.5-1.1,2.6-2.5c-0.1-1.4-1.1-2.5-2.5-2.5C250.6,266,249.4,267.1,249.4,268.5
			z M253.1,268.5c-0.1,1.5-2.3,1.5-2.3,0C250.8,267,253,267,253.1,268.5z"/>
		<path d="M229.5,248.1c-0.1-1.4-1.1-2.5-2.5-2.5c-1.4,0-2.5,1.1-2.5,2.5c0,1.3,1.1,2.4,2.4,2.5
			C228.4,250.6,229.5,249.5,229.5,248.1z M225.9,248.1c0-1.5,2.2-1.5,2.3,0C228.1,249.5,225.9,249.6,225.9,248.1z"/>
		<path d="M279.5,248.1c-0.1-1.4-1.1-2.5-2.5-2.5c-1.4,0-2.5,1.1-2.5,2.5c0,1.3,1.1,2.4,2.4,2.5
			C278.4,250.6,279.5,249.5,279.5,248.1z M275.9,248.1c0-1.5,2.2-1.5,2.3,0C278.1,249.5,275.9,249.6,275.9,248.1z"/>
		<polygon points="248.5,242.2 244.9,247.9 250.6,244.3 252,253.8 253.5,244.3 259.2,247.9 255.6,242.2 265.1,240.7 255.6,239.2 
			259.2,233.5 253.5,237.1 252,227.6 250.6,237.1 244.9,233.5 248.5,239.2 239,240.7 		"/>
		<path d="M235.7,376.5c5.2,3.8,29.1,21.5,35.4,26.2c3.1,2.3,6.3,4.6,9.4,7c0.5,0.4,1.2-0.2,1-0.8c-3.5-10.8-7-21.5-10.5-32.3
			l-1.2,0.8c2.2,6.9,4.5,14,6.8,20.9l2.9,9c-8.8-6.5-38-28.1-43.4-32.1L235.7,376.5z"/>
		<path d="M232.3,374.1l0.5-1.3c-6-4.4-12.1-8.9-18.2-13.4c-2.6-1.9-5.1-3.8-7.7-5.7h53.7c0-0.1-0.4-1-0.5-1.4h-55.3
			c-0.7,0-0.9,0.9-0.3,1.3C214,360.5,223.1,367.3,232.3,374.1z"/>
		<path d="M223.3,409.7c9.2-6.8,18.3-13.5,27.5-20.3c0,0-1-0.9-1.1-0.9c-5.9,4.4-11.8,8.7-17.7,13.1l-7.8,5.7
			c3.4-10.5,14.9-46,17-52.5l-1.4,0c-2,6.2-11.4,35.4-13.9,43.1l-3.6,11C222.2,409.5,222.9,410.1,223.3,409.7z"/>
		<path d="M241.2,350.9c0.5,0,0.9,0,1.4,0c2.2-6.7,4.3-13.4,6.5-20c1-3,1.9-6,2.9-8.9c3.3,10.1,14.4,44.7,16.5,51.1l1.2-0.9
			c-2-6.2-13.5-41.7-13.5-41.7c-1.2-3.6-2.3-7.3-3.5-10.9c0-0.2-0.2-0.4-0.4-0.5c-0.1,0-0.1-0.1-0.2-0.1c0,0,0,0,0,0c0,0,0,0-0.1,0
			c0,0-0.1,0-0.1,0c0,0,0,0,0,0c-0.1,0-0.2,0-0.2,0.1c-0.2,0.1-0.4,0.3-0.4,0.5C247.9,330,244.5,340.5,241.2,350.9
			C241.1,350.9,241.1,350.9,241.2,350.9z"/>
		<path d="M299.3,353.6c0.5-0.4,0.4-1.3-0.3-1.3h-34.1c0.2,0.5,0.3,0.9,0.5,1.4h31.6c-8.9,6.6-38.6,28.5-43.8,32.4l1.1,0.8
			c5.1-3.7,35.7-26.4,35.7-26.4C293,358.2,296.1,355.9,299.3,353.6z"/>
		<path d="M206.4,341.3c8.8-14.6,24.2-23.9,40.7-25.5c-0.1-0.4-0.1-0.9-0.1-1.3c-14.3,1.4-28,8.3-37.3,19.8c-3.2,4-5.8,8.3-7.7,12.9
			c0.4,0.1,0.9,0.2,1.2,0.4C204.1,345.4,205.1,343.3,206.4,341.3z"/>
		<path d="M199.1,355.7c-3.4,13.9-1.4,28.9,6.3,41.4c3.2,5.2,7.2,9.7,11.7,13.4c0.3-0.4,0.6-0.7,1-0.9c-2.5-2.1-4.9-4.4-7-6.9
			c-10.9-13-14.7-30.7-10.7-46.8C200,355.9,199.5,355.8,199.1,355.7z"/>
		<path d="M262.5,422.1c5.9-1.2,11.4-3.3,16.4-6.2c-0.3-0.4-0.5-0.7-0.6-1.2c-2.7,1.6-5.6,2.9-8.7,4c-15.2,5.4-31.9,3.3-45.3-4.7
			c-0.1,0.4-0.3,0.9-0.5,1.3C235.3,422.1,249.1,424.8,262.5,422.1z"/>
		<path d="M304.8,355.8c-0.4,0.1-0.9,0.2-1.3,0.3c0,0,0,0,0,0c1,4.1,1.6,8.3,1.6,12.5c-0.1,15.9-7.4,30.9-19.3,40.9
			c0.4,0.3,0.7,0.6,1,0.9c12-10.2,19.5-25.4,19.6-41.7C306.4,364.3,305.8,359.9,304.8,355.8z"/>
		<path d="M270.8,317.5c-4.4-1.6-9-2.6-13.7-3.1c0.1,0.4,0.2,0.9,0.2,1.4c1.7,0.2,3.5,0.4,5.2,0.8c17.3,3.5,31.2,15.5,37.9,31
			c0,0,0,0,0,0c0.3-0.1,0.5-0.1,0.8,0c0.1-0.1,0.1-0.1,0.2-0.2c0.1-0.1,0.2-0.2,0.3-0.3C296,333.7,285,322.8,270.8,317.5z"/>
		<path d="M251,315.6c0.4,0.4,0.6,2.2,0.9,2.2c0.3,0,0.5-1.8,1-2.2c0.4-0.4,1.6-0.6,1.6-0.8s-1.2-0.5-1.6-0.9
			c-0.4-0.4-0.6-2.2-0.9-2.2c-0.3,0-0.5,1.7-1,2.2c-0.5,0.4-1.6,0.5-1.6,0.8C249.4,315.1,250.6,315.2,251,315.6z"/>
		<path d="M199.3,352c0.3,0.6,0,1.7,0.3,1.8c0.3,0.1,0.8-1,1.3-1.3c0.6-0.3,2.3,0.1,2.4-0.1s-1.5-1.1-1.8-1.6
			c-0.2-0.5,0-1.7-0.3-1.8c-0.2-0.1-0.8,1-1.3,1.3s-2.3-0.1-2.4,0.1C197.4,350.7,199,351.5,199.3,352z"/>
		<path d="M218.4,415.3c0.2,0.2,1.4-1.1,2.1-1.2c0.6-0.1,1.6,0.5,1.8,0.3c0.2-0.2-0.7-1-0.8-1.6c-0.1-0.6,0.8-2.1,0.6-2.3
			c-0.2-0.2-1.5,1.1-2.1,1.2c-0.6,0.1-1.6-0.5-1.8-0.3c-0.1,0.2,0.7,1.1,0.8,1.6C219,413.6,218.2,415.2,218.4,415.3z"/>
		<path d="M285.5,411.6c-0.2-0.2-1.2,0.4-1.8,0.2c-0.6-0.1-1.8-1.4-2-1.3c-0.2,0.2,0.6,1.8,0.5,2.3c-0.1,0.6-1,1.4-0.9,1.6
			c0.1,0.2,1.3-0.3,1.8-0.2c0.5,0.1,1.8,1.4,2,1.3s-0.6-1.7-0.5-2.3C284.8,412.6,285.7,411.8,285.5,411.6z"/>
		<path d="M300.4,352.2c0.1,0.3,1.9,0,2.4,0.2c0.5,0.3,1,1.4,1.3,1.3c0.2-0.1,0.1-1.3,0.3-1.8c0.3-0.5,1.9-1.3,1.8-1.5
			c-0.1-0.3-1.8,0.1-2.4-0.2c-0.6-0.3-1-1.4-1.3-1.3c-0.3,0.1,0,1.2-0.3,1.8C302,351.3,300.3,352,300.4,352.2z"/>
		<path d="M231.5,346c0,1.3,1.1,2.4,2.4,2.5c1.5,0.1,2.5-1.1,2.6-2.5c-0.1-1.4-1.1-2.5-2.5-2.5C232.6,343.5,231.5,344.7,231.5,346z
			 M235.1,346c-0.1,1.5-2.3,1.5-2.3,0C232.9,344.6,235.1,344.6,235.1,346z"/>
		<path d="M271.2,346c-0.1-1.4-1.1-2.5-2.5-2.5c-1.4,0-2.5,1.1-2.5,2.5c0,1.3,1.1,2.4,2.4,2.5C270.1,348.6,271.1,347.4,271.2,346z
			 M267.6,346c0-1.5,2.2-1.5,2.3,0C269.8,347.5,267.6,347.5,267.6,346z"/>
		<path d="M249.4,397.3c0,1.3,1.1,2.4,2.4,2.5c1.5,0.1,2.5-1.1,2.6-2.5c-0.1-1.4-1.1-2.5-2.5-2.5C250.6,394.8,249.4,396,249.4,397.3
			z M253.1,397.3c-0.1,1.5-2.3,1.5-2.3,0C250.8,395.9,253,395.9,253.1,397.3z"/>
		<path d="M229.5,376.9c-0.1-1.4-1.1-2.5-2.5-2.5c-1.4,0-2.5,1.1-2.5,2.5c0,1.3,1.1,2.4,2.4,2.5
			C228.4,379.5,229.5,378.3,229.5,376.9z M225.9,376.9c0-1.5,2.2-1.5,2.3,0C228.1,378.4,225.9,378.4,225.9,376.9z"/>
		<path d="M279.5,376.9c-0.1-1.4-1.1-2.5-2.5-2.5c-1.4,0-2.5,1.1-2.5,2.5c0,1.3,1.1,2.4,2.4,2.5
			C278.4,379.5,279.5,378.3,279.5,376.9z M275.9,376.9c0-1.5,2.2-1.5,2.3,0C278.1,378.4,275.9,378.4,275.9,376.9z"/>
		<polygon points="248.5,371 244.9,376.7 250.6,373.1 252,382.6 253.5,373.1 259.2,376.7 255.6,371 265.1,369.6 255.6,368.1 
			259.2,362.4 253.5,366 252,356.5 250.6,366 244.9,362.4 248.5,368.1 239,369.6 		"/>
		<path d="M235.7,505.4c5.2,3.8,29.1,21.5,35.4,26.2c3.1,2.3,6.3,4.6,9.4,7c0.5,0.4,1.2-0.2,1-0.8c-3.5-10.8-7-21.5-10.5-32.3
			l-1.2,0.8c2.2,6.9,4.5,14,6.8,20.9l2.9,9c-8.8-6.5-38-28.1-43.4-32.1L235.7,505.4z"/>
		<path d="M232.3,502.9l0.5-1.3c-6-4.4-12.1-8.9-18.2-13.4c-2.6-1.9-5.1-3.8-7.7-5.7h53.7c0-0.1-0.4-1-0.5-1.4h-55.3
			c-0.7,0-0.9,0.9-0.3,1.3C214,489.4,223.1,496.1,232.3,502.9z"/>
		<path d="M223.3,538.6c9.2-6.8,18.3-13.5,27.5-20.3c0,0-1-0.9-1.1-0.9c-5.9,4.4-11.8,8.7-17.7,13.1l-7.8,5.7
			c3.4-10.5,14.9-46,17-52.5l-1.4,0c-2,6.2-11.4,35.4-13.9,43.1l-3.6,11C222.2,538.3,222.9,538.9,223.3,538.6z"/>
		<path d="M241.2,479.7c0.5,0,0.9,0,1.4,0c2.2-6.7,4.3-13.4,6.5-20c1-3,1.9-6,2.9-8.9c3.3,10.1,14.4,44.7,16.5,51.1l1.2-0.9
			c-2-6.2-13.5-41.7-13.5-41.7c-1.2-3.6-2.3-7.3-3.5-10.9c0-0.2-0.2-0.4-0.4-0.5c-0.1,0-0.1-0.1-0.2-0.1c0,0,0,0,0,0c0,0,0,0-0.1,0
			c0,0-0.1,0-0.1,0c0,0,0,0,0,0c-0.1,0-0.2,0-0.2,0.1c-0.2,0.1-0.4,0.3-0.4,0.5C247.9,458.9,244.5,469.3,241.2,479.7
			C241.1,479.7,241.1,479.7,241.2,479.7z"/>
		<path d="M299.3,482.4c0.5-0.4,0.4-1.3-0.3-1.3h-34.1c0.2,0.5,0.3,0.9,0.5,1.4h31.6c-8.9,6.6-38.6,28.5-43.8,32.4l1.1,0.8
			c5.1-3.7,35.7-26.4,35.7-26.4C293,487.1,296.1,484.8,299.3,482.4z"/>
		<path d="M206.4,470.1c8.8-14.6,24.2-23.9,40.7-25.5c-0.1-0.4-0.1-0.9-0.1-1.3c-14.3,1.4-28,8.3-37.3,19.8c-3.2,4-5.8,8.3-7.7,12.9
			c0.4,0.1,0.9,0.2,1.2,0.4C204.1,474.3,205.1,472.2,206.4,470.1z"/>
		<path d="M199.1,484.5c-3.4,13.9-1.4,28.9,6.3,41.4c3.2,5.2,7.2,9.7,11.7,13.4c0.3-0.4,0.6-0.7,1-0.9c-2.5-2.1-4.9-4.4-7-6.9
			c-10.9-13-14.7-30.7-10.7-46.8C200,484.7,199.5,484.7,199.1,484.5z"/>
		<path d="M262.5,551c5.9-1.2,11.4-3.3,16.4-6.2c-0.3-0.4-0.5-0.7-0.6-1.2c-2.7,1.6-5.6,2.9-8.7,4c-15.2,5.4-31.9,3.3-45.3-4.7
			c-0.1,0.4-0.3,0.9-0.5,1.3C235.3,550.9,249.1,553.6,262.5,551z"/>
		<path d="M304.8,484.6c-0.4,0.1-0.9,0.2-1.3,0.3c0,0,0,0,0,0c1,4.1,1.6,8.3,1.6,12.5c-0.1,15.9-7.4,30.9-19.3,40.9
			c0.4,0.3,0.7,0.6,1,0.9c12-10.2,19.5-25.4,19.6-41.7C306.4,493.1,305.8,488.8,304.8,484.6z"/>
		<path d="M270.8,446.4c-4.4-1.6-9-2.6-13.7-3.1c0.1,0.4,0.2,0.9,0.2,1.4c1.7,0.2,3.5,0.4,5.2,0.8c17.3,3.5,31.2,15.5,37.9,31
			c0,0,0,0,0,0c0.3-0.1,0.5-0.1,0.8,0c0.1-0.1,0.1-0.1,0.2-0.2c0.1-0.1,0.2-0.2,0.3-0.3C296,462.6,285,451.6,270.8,446.4z"/>
		<path d="M251,444.5c0.4,0.4,0.6,2.2,0.9,2.2c0.3,0,0.5-1.8,1-2.2c0.4-0.4,1.6-0.6,1.6-0.8c0-0.2-1.2-0.5-1.6-0.9
			c-0.4-0.4-0.6-2.2-0.9-2.2c-0.3,0-0.5,1.7-1,2.2c-0.5,0.4-1.6,0.5-1.6,0.8C249.4,443.9,250.6,444.1,251,444.5z"/>
		<path d="M199.3,480.9c0.3,0.6,0,1.7,0.3,1.8c0.3,0.1,0.8-1,1.3-1.3c0.6-0.3,2.3,0.1,2.4-0.1c0.1-0.3-1.5-1.1-1.8-1.6
			c-0.2-0.5,0-1.7-0.3-1.8c-0.2-0.1-0.8,1-1.3,1.3s-2.3-0.1-2.4,0.1C197.4,479.6,199,480.3,199.3,480.9z"/>
		<path d="M218.4,544.2c0.2,0.2,1.4-1.1,2.1-1.2c0.6-0.1,1.6,0.5,1.8,0.3c0.2-0.2-0.7-1-0.8-1.6c-0.1-0.6,0.8-2.1,0.6-2.3
			c-0.2-0.2-1.5,1.1-2.1,1.2c-0.6,0.1-1.6-0.5-1.8-0.3c-0.1,0.2,0.7,1.1,0.8,1.6C219,542.4,218.2,544,218.4,544.2z"/>
		<path d="M285.5,540.5c-0.2-0.2-1.2,0.4-1.8,0.2c-0.6-0.1-1.8-1.4-2-1.3c-0.2,0.2,0.6,1.8,0.5,2.3c-0.1,0.6-1,1.4-0.9,1.6
			c0.1,0.2,1.3-0.3,1.8-0.2c0.5,0.1,1.8,1.4,2,1.3s-0.6-1.7-0.5-2.3C284.8,541.4,285.7,540.7,285.5,540.5z"/>
		<path d="M300.4,481.1c0.1,0.3,1.9,0,2.4,0.2c0.5,0.3,1,1.4,1.3,1.3c0.2-0.1,0.1-1.3,0.3-1.8c0.3-0.5,1.9-1.3,1.8-1.5
			c-0.1-0.3-1.8,0.1-2.4-0.2c-0.6-0.3-1-1.4-1.3-1.3c-0.3,0.1,0,1.2-0.3,1.8C302,480.1,300.3,480.8,300.4,481.1z"/>
		<path d="M231.5,474.9c0,1.3,1.1,2.4,2.4,2.5c1.5,0.1,2.5-1.1,2.6-2.5c-0.1-1.4-1.1-2.5-2.5-2.5
			C232.6,472.4,231.5,473.5,231.5,474.9z M235.1,474.9c-0.1,1.5-2.3,1.5-2.3,0C232.9,473.4,235.1,473.4,235.1,474.9z"/>
		<path d="M271.2,474.9c-0.1-1.4-1.1-2.5-2.5-2.5c-1.4,0-2.5,1.1-2.5,2.5c0,1.3,1.1,2.4,2.4,2.5
			C270.1,477.5,271.1,476.3,271.2,474.9z M267.6,474.9c0-1.5,2.2-1.5,2.3,0C269.8,476.4,267.6,476.4,267.6,474.9z"/>
		<path d="M249.4,526.2c0,1.3,1.1,2.4,2.4,2.5c1.5,0.1,2.5-1.1,2.6-2.5c-0.1-1.4-1.1-2.5-2.5-2.5
			C250.6,523.7,249.4,524.9,249.4,526.2z M253.1,526.2c-0.1,1.5-2.3,1.5-2.3,0C250.8,524.7,253,524.8,253.1,526.2z"/>
		<path d="M229.5,505.8c-0.1-1.4-1.1-2.5-2.5-2.5c-1.4,0-2.5,1.1-2.5,2.5c0,1.3,1.1,2.4,2.4,2.5
			C228.4,508.4,229.5,507.2,229.5,505.8z M225.9,505.8c0-1.5,2.2-1.5,2.3,0C228.1,507.3,225.9,507.3,225.9,505.8z"/>
		<path d="M279.5,505.8c-0.1-1.4-1.1-2.5-2.5-2.5c-1.4,0-2.5,1.1-2.5,2.5c0,1.3,1.1,2.4,2.4,2.5
			C278.4,508.4,279.5,507.2,279.5,505.8z M275.9,505.8c0-1.5,2.2-1.5,2.3,0C278.1,507.3,275.9,507.3,275.9,505.8z"/>
		<polygon points="248.5,499.9 244.9,505.6 250.6,502 252,511.5 253.5,502 259.2,505.6 255.6,499.9 265.1,498.4 255.6,496.9 
			259.2,491.3 253.5,494.8 252,485.4 250.6,494.8 244.9,491.3 248.5,496.9 239,498.4 		"/>
		<path d="M281.5,666.7c-3.5-10.8-7-21.5-10.5-32.3l-1.2,0.8c2.2,6.9,4.5,14,6.8,20.9l2.9,9c-8.8-6.5-38-28.1-43.4-32.1l-0.5,1.3
			c5.2,3.8,29.1,21.5,35.4,26.2c3.1,2.3,6.3,4.6,9.4,7C281,667.8,281.7,667.2,281.5,666.7z"/>
		<path d="M260.2,610h-55.3c-0.7,0-0.9,0.9-0.3,1.3c9.4,6.9,18.5,13.7,27.8,20.5l0.5-1.3c-6-4.4-12.1-8.9-18.2-13.4
			c-2.6-1.9-5.1-3.8-7.7-5.7h53.7C260.6,611.3,260.3,610.4,260.2,610z"/>
		<path d="M249.8,646.2c-5.9,4.4-11.8,8.7-17.7,13.1l-7.8,5.7c3.4-10.5,14.9-46,17-52.5l-1.4,0c-2,6.2-11.4,35.4-13.9,43.1l-3.6,11
			c-0.2,0.5,0.5,1.1,1,0.8c9.2-6.8,18.3-13.5,27.5-20.3C250.8,647.1,249.8,646.2,249.8,646.2z"/>
		<path d="M241.2,608.6c0.5,0,0.9,0,1.4,0c2.2-6.7,4.3-13.4,6.5-20c1-3,1.9-6,2.9-8.9c3.3,10.1,14.4,44.7,16.5,51.1l1.2-0.9
			c-2-6.2-13.5-41.7-13.5-41.7c-1.2-3.6-2.3-7.3-3.5-10.9c0-0.2-0.2-0.4-0.4-0.5c-0.1,0-0.1-0.1-0.2-0.1c0,0,0,0,0,0c0,0,0,0-0.1,0
			c0,0-0.1,0-0.1,0c0,0,0,0,0,0c-0.1,0-0.2,0-0.2,0.1c-0.2,0.1-0.4,0.3-0.4,0.5C247.9,587.8,244.5,598.2,241.2,608.6
			C241.1,608.6,241.1,608.6,241.2,608.6z"/>
		<path d="M299.3,611.3c0.5-0.4,0.4-1.3-0.3-1.3h-34.1c0.2,0.5,0.3,0.9,0.5,1.4h31.6c-8.9,6.6-38.6,28.5-43.8,32.4l1.1,0.8
			c5.1-3.7,35.7-26.4,35.7-26.4C293,615.9,296.1,613.6,299.3,611.3z"/>
		<path d="M206.4,599c8.8-14.6,24.2-23.9,40.7-25.5c-0.1-0.4-0.1-0.9-0.1-1.3c-14.3,1.4-28,8.3-37.3,19.8c-3.2,4-5.8,8.3-7.7,12.9
			c0.4,0.1,0.9,0.2,1.2,0.4C204.1,603.1,205.1,601,206.4,599z"/>
		<path d="M211.1,660.4c-10.9-13-14.7-30.7-10.7-46.8c-0.4,0-0.9-0.1-1.3-0.2c-3.4,13.9-1.4,28.9,6.3,41.4
			c3.2,5.2,7.2,9.7,11.7,13.4c0.3-0.4,0.6-0.7,1-0.9C215.6,665.3,213.3,663,211.1,660.4z"/>
		<path d="M269.7,676.5c-15.2,5.4-31.9,3.3-45.3-4.7c-0.1,0.4-0.3,0.9-0.5,1.3c11.4,6.8,25.2,9.5,38.6,6.9
			c5.9-1.2,11.4-3.3,16.4-6.2c-0.3-0.4-0.5-0.7-0.6-1.2C275.6,674.1,272.7,675.4,269.7,676.5z"/>
		<path d="M306.4,626.4c0-4.4-0.6-8.7-1.6-12.9c-0.4,0.1-0.9,0.2-1.3,0.3c0,0,0,0,0,0c1,4.1,1.6,8.3,1.6,12.5
			c-0.1,15.9-7.4,30.9-19.3,40.9c0.4,0.3,0.7,0.6,1,0.9C298.8,657.9,306.3,642.8,306.4,626.4z"/>
		<path d="M270.8,575.2c-4.4-1.6-9-2.6-13.7-3.1c0.1,0.4,0.2,0.9,0.2,1.4c1.7,0.2,3.5,0.4,5.2,0.8c17.3,3.5,31.2,15.5,37.9,31
			c0,0,0,0,0,0c0.3-0.1,0.5-0.1,0.8,0c0.1-0.1,0.1-0.1,0.2-0.2c0.1-0.1,0.2-0.2,0.3-0.3C296,591.4,285,580.5,270.8,575.2z"/>
		<path d="M251,573.4c0.4,0.4,0.6,2.2,0.9,2.2c0.3,0,0.5-1.8,1-2.2c0.4-0.4,1.6-0.6,1.6-0.8c0-0.2-1.2-0.5-1.6-0.9
			c-0.4-0.4-0.6-2.2-0.9-2.2c-0.3,0-0.5,1.7-1,2.2c-0.5,0.4-1.6,0.5-1.6,0.8C249.4,572.8,250.6,572.9,251,573.4z"/>
		<path d="M199.3,609.8c0.3,0.6,0,1.7,0.3,1.8c0.3,0.1,0.8-1,1.3-1.3c0.6-0.3,2.3,0.1,2.4-0.1c0.1-0.3-1.5-1.1-1.8-1.6
			c-0.2-0.5,0-1.7-0.3-1.8c-0.2-0.1-0.8,1-1.3,1.3c-0.5,0.2-2.3-0.1-2.4,0.1C197.4,608.4,199,609.2,199.3,609.8z"/>
		<path d="M222,668.2c-0.2-0.2-1.5,1.1-2.1,1.2c-0.6,0.1-1.6-0.5-1.8-0.3c-0.1,0.2,0.7,1.1,0.8,1.6c0.1,0.5-0.8,2.1-0.6,2.3
			c0.2,0.2,1.4-1.1,2.1-1.2c0.6-0.1,1.6,0.5,1.8,0.3c0.2-0.2-0.7-1-0.8-1.6C221.3,669.9,222.2,668.4,222,668.2z"/>
		<path d="M285.5,669.3c-0.2-0.2-1.2,0.4-1.8,0.2c-0.6-0.1-1.8-1.4-2-1.3c-0.2,0.2,0.6,1.8,0.5,2.3c-0.1,0.6-1,1.4-0.9,1.6
			c0.1,0.2,1.3-0.3,1.8-0.2c0.5,0.1,1.8,1.4,2,1.3c0.2-0.2-0.6-1.7-0.5-2.3C284.8,670.3,285.7,669.6,285.5,669.3z"/>
		<path d="M300.4,610c0.1,0.3,1.9,0,2.4,0.2c0.5,0.3,1,1.4,1.3,1.3s0.1-1.3,0.3-1.8c0.3-0.5,1.9-1.3,1.8-1.5
			c-0.1-0.3-1.8,0.1-2.4-0.2c-0.6-0.3-1-1.4-1.3-1.3c-0.3,0.1,0,1.2-0.3,1.8C302,609,300.3,609.7,300.4,610z"/>
		<path d="M231.5,603.8c0,1.3,1.1,2.4,2.4,2.5c1.5,0.1,2.5-1.1,2.6-2.5c-0.1-1.4-1.1-2.5-2.5-2.5
			C232.6,601.3,231.5,602.4,231.5,603.8z M235.1,603.8c-0.1,1.5-2.3,1.5-2.3,0C232.9,602.3,235.1,602.3,235.1,603.8z"/>
		<path d="M266.2,603.8c0,1.3,1.1,2.4,2.4,2.5c1.5,0.1,2.5-1.1,2.6-2.5c-0.1-1.4-1.1-2.5-2.5-2.5
			C267.3,601.3,266.2,602.4,266.2,603.8z M269.8,603.8c-0.1,1.5-2.3,1.5-2.3,0C267.6,602.3,269.8,602.3,269.8,603.8z"/>
		<path d="M251.8,657.6c1.5,0.1,2.5-1.1,2.6-2.5c-0.1-1.4-1.1-2.5-2.5-2.5c-1.4,0-2.5,1.1-2.5,2.5
			C249.4,656.4,250.5,657.5,251.8,657.6z M253.1,655.1c-0.1,1.5-2.3,1.5-2.3,0C250.8,653.6,253,653.6,253.1,655.1z"/>
		<path d="M224.5,634.7c0,1.3,1.1,2.4,2.4,2.5c1.5,0.1,2.5-1.1,2.6-2.5c-0.1-1.4-1.1-2.5-2.5-2.5
			C225.7,632.2,224.5,633.3,224.5,634.7z M228.2,634.7c-0.1,1.5-2.3,1.5-2.3,0C225.9,633.2,228.1,633.2,228.2,634.7z"/>
		<path d="M274.5,634.7c0,1.3,1.1,2.4,2.4,2.5c1.5,0.1,2.5-1.1,2.6-2.5c-0.1-1.4-1.1-2.5-2.5-2.5
			C275.7,632.2,274.5,633.3,274.5,634.7z M278.2,634.7c-0.1,1.5-2.3,1.5-2.3,0C275.9,633.2,278.1,633.2,278.2,634.7z"/>
		<polygon points="250.6,630.9 252,640.4 253.5,630.9 259.2,634.5 255.6,628.8 265.1,627.3 255.6,625.8 259.2,620.1 253.5,623.7 
			252,614.2 250.6,623.7 244.9,620.1 248.5,625.8 239,627.3 248.5,628.8 244.9,634.5 		"/>
		<path d="M363.1,247.7c5.2,3.8,29.1,21.5,35.4,26.2c3.1,2.3,6.3,4.6,9.4,7c0.5,0.4,1.2-0.2,1-0.8c-3.5-10.8-7-21.6-10.5-32.3
			l-1.2,0.8c2.2,6.9,4.5,14,6.8,20.9l2.9,9c-8.8-6.5-38-28.1-43.4-32.1L363.1,247.7z"/>
		<path d="M332,224.7c9.4,6.9,18.5,13.7,27.8,20.5l0.5-1.3c-6-4.4-12.1-8.9-18.2-13.4c-2.6-1.9-5.1-3.8-7.7-5.7h53.7
			c0-0.1-0.4-1-0.5-1.4h-55.3C331.6,223.4,331.5,224.3,332,224.7z"/>
		<path d="M350.8,280.8c9.2-6.8,18.3-13.5,27.5-20.3c0,0-1-0.9-1.1-0.9c-5.9,4.4-11.8,8.7-17.7,13.1l-7.8,5.7
			c3.4-10.5,14.9-46,17-52.5l-1.4,0c-2,6.2-11.4,35.4-13.9,43.1l-3.6,11C349.6,280.6,350.3,281.2,350.8,280.8z"/>
		<path d="M379.7,190.2c-0.1,0-0.1-0.1-0.2-0.1c0,0,0,0,0,0c0,0,0,0-0.1,0c0,0-0.1,0-0.1,0c0,0,0,0,0,0c-0.1,0-0.2,0-0.2,0.1
			c-0.2,0.1-0.4,0.3-0.4,0.5c-3.4,10.4-6.7,20.9-10.1,31.3c0,0,0,0,0,0c0.5,0,0.9,0,1.4,0c2.2-6.7,4.3-13.4,6.5-20
			c1-3,1.9-6,2.9-8.9c3.3,10.1,14.4,44.7,16.5,51.1l1.2-0.9c-2-6.2-13.5-41.7-13.5-41.7c-1.2-3.6-2.3-7.3-3.5-10.9
			C380,190.5,379.9,190.3,379.7,190.2z"/>
		<path d="M426.7,224.7c0.5-0.4,0.4-1.3-0.3-1.3h-34.1c0.2,0.5,0.3,0.9,0.5,1.4h31.6c-8.9,6.6-38.6,28.5-43.8,32.4l1.1,0.8
			c5.1-3.7,35.7-26.4,35.7-26.4C420.4,229.3,423.6,227,426.7,224.7z"/>
		<path d="M333.8,212.4c8.8-14.6,24.2-23.9,40.7-25.5c-0.1-0.4-0.1-0.9-0.1-1.3c-14.3,1.4-28,8.3-37.3,19.8c-3.2,4-5.8,8.3-7.7,12.9
			c0.4,0.1,0.9,0.2,1.2,0.4C331.5,216.5,332.6,214.4,333.8,212.4z"/>
		<path d="M326.5,226.8c-3.4,13.9-1.4,28.9,6.3,41.4c3.2,5.2,7.2,9.7,11.7,13.4c0.3-0.4,0.6-0.7,1-0.9c-2.5-2.1-4.9-4.4-7-6.9
			c-10.9-13-14.7-30.7-10.7-46.8C327.4,227,327,226.9,326.5,226.8z"/>
		<path d="M406.4,287c-0.3-0.4-0.5-0.7-0.6-1.2c-2.7,1.6-5.6,2.9-8.7,4c-15.2,5.4-31.9,3.3-45.3-4.7c-0.1,0.4-0.3,0.9-0.5,1.3
			c11.4,6.8,25.2,9.5,38.6,6.9C395.9,292.1,401.4,290,406.4,287z"/>
		<path d="M430.9,227.2C430.9,227.2,430.9,227.2,430.9,227.2c1,4.1,1.6,8.3,1.6,12.5c-0.1,15.9-7.4,30.9-19.3,40.9
			c0.4,0.3,0.7,0.6,1,0.9c12-10.2,19.5-25.4,19.6-41.7c0-4.4-0.6-8.7-1.6-12.9C431.8,227,431.3,227.1,430.9,227.2z"/>
		<path d="M390,187.7c17.3,3.5,31.2,15.5,37.9,31c0,0,0,0,0,0c0.3-0.1,0.5-0.1,0.8,0c0.1-0.1,0.1-0.1,0.2-0.2
			c0.1-0.1,0.2-0.2,0.3-0.3c-5.8-13.4-16.8-24.3-31-29.6c-4.4-1.6-9-2.6-13.7-3.1c0.1,0.4,0.2,0.9,0.2,1.4
			C386.5,187.1,388.3,187.4,390,187.7z"/>
		<path d="M378.4,186.8c0.4,0.4,0.6,2.2,0.9,2.2c0.3,0,0.5-1.8,1-2.2c0.4-0.4,1.6-0.6,1.6-0.8c0-0.2-1.2-0.5-1.6-0.9
			c-0.4-0.4-0.6-2.2-0.9-2.2s-0.5,1.7-1,2.2c-0.5,0.4-1.6,0.5-1.6,0.8C376.8,186.2,378,186.3,378.4,186.8z"/>
		<path d="M326.7,223.2c0.3,0.6,0,1.7,0.3,1.8c0.3,0.1,0.8-1,1.3-1.3c0.6-0.3,2.3,0.1,2.4-0.1c0.1-0.3-1.5-1.1-1.8-1.6
			c-0.2-0.5,0-1.7-0.3-1.8c-0.2-0.1-0.8,1-1.3,1.3c-0.5,0.2-2.3-0.1-2.4,0.1C324.9,221.9,326.5,222.6,326.7,223.2z"/>
		<path d="M345.8,286.5c0.2,0.2,1.4-1.1,2.1-1.2c0.6-0.1,1.6,0.5,1.8,0.3c0.2-0.2-0.7-1-0.8-1.6c-0.1-0.6,0.8-2.1,0.6-2.3
			c-0.2-0.2-1.5,1.1-2.1,1.2c-0.6,0.1-1.6-0.5-1.8-0.3c-0.1,0.2,0.7,1.1,0.8,1.6C346.5,284.7,345.6,286.3,345.8,286.5z"/>
		<path d="M413,282.7c-0.2-0.2-1.2,0.4-1.8,0.2c-0.6-0.1-1.8-1.4-2-1.3c-0.2,0.2,0.6,1.8,0.5,2.3c-0.1,0.6-1,1.4-0.9,1.6
			c0.1,0.2,1.3-0.3,1.8-0.2c0.5,0.1,1.8,1.4,2,1.3c0.2-0.2-0.6-1.7-0.5-2.3C412.2,283.7,413.1,283,413,282.7z"/>
		<path d="M427.9,223.4c0.1,0.3,1.9,0,2.4,0.2c0.5,0.3,1,1.4,1.3,1.3c0.2-0.1,0.1-1.3,0.3-1.8c0.3-0.5,1.9-1.3,1.8-1.5
			c-0.1-0.3-1.8,0.1-2.4-0.2c-0.6-0.3-1-1.4-1.3-1.3c-0.3,0.1,0,1.2-0.3,1.8C429.4,222.4,427.8,223.1,427.9,223.4z"/>
		<path d="M363.9,217.2c-0.1-1.4-1.1-2.5-2.5-2.5c-1.4,0-2.5,1.1-2.5,2.5c0,1.3,1.1,2.4,2.4,2.5
			C362.8,219.7,363.9,218.6,363.9,217.2z M360.3,217.2c0-1.5,2.2-1.5,2.3,0C362.5,218.6,360.3,218.6,360.3,217.2z"/>
		<path d="M398.6,217.2c-0.1-1.4-1.1-2.5-2.5-2.5c-1.4,0-2.5,1.1-2.5,2.5c0,1.3,1.1,2.4,2.4,2.5
			C397.5,219.7,398.6,218.6,398.6,217.2z M395,217.2c0-1.5,2.2-1.5,2.3,0C397.2,218.6,395,218.6,395,217.2z"/>
		<path d="M379.3,271c1.5,0.1,2.5-1.1,2.6-2.5c-0.1-1.4-1.1-2.5-2.5-2.5c-1.4,0-2.5,1.1-2.5,2.5C376.9,269.8,377.9,270.9,379.3,271z
			 M380.5,268.5c-0.1,1.5-2.3,1.5-2.3,0C378.2,267,380.4,267,380.5,268.5z"/>
		<path d="M357,248.1c-0.1-1.4-1.1-2.5-2.5-2.5c-1.4,0-2.5,1.1-2.5,2.5c0,1.3,1.1,2.4,2.4,2.5C355.8,250.6,356.9,249.5,357,248.1z
			 M353.3,248.1c0-1.5,2.2-1.5,2.3,0C355.5,249.5,353.3,249.6,353.3,248.1z"/>
		<path d="M407,248.1c-0.1-1.4-1.1-2.5-2.5-2.5c-1.4,0-2.5,1.1-2.5,2.5c0,1.3,1.1,2.4,2.4,2.5C405.8,250.6,406.9,249.5,407,248.1z
			 M403.3,248.1c0-1.5,2.2-1.5,2.3,0C405.5,249.5,403.3,249.6,403.3,248.1z"/>
		<polygon points="383.1,239.2 386.6,233.5 381,237.1 379.5,227.6 378,237.1 372.3,233.5 375.9,239.2 366.4,240.7 375.9,242.2 
			372.3,247.9 378,244.3 379.5,253.8 381,244.3 386.6,247.9 383.1,242.2 392.5,240.7 		"/>
		<path d="M363.1,376.5c5.2,3.8,29.1,21.5,35.4,26.2c3.1,2.3,6.3,4.6,9.4,7c0.5,0.4,1.2-0.2,1-0.8c-3.5-10.8-7-21.5-10.5-32.3
			l-1.2,0.8c2.2,6.9,4.5,14,6.8,20.9l2.9,9c-8.8-6.5-38-28.1-43.4-32.1L363.1,376.5z"/>
		<path d="M359.8,374.1l0.5-1.3c-6-4.4-12.1-8.9-18.2-13.4c-2.6-1.9-5.1-3.8-7.7-5.7h53.7c0-0.1-0.4-1-0.5-1.4h-55.3
			c-0.7,0-0.9,0.9-0.3,1.3C341.4,360.5,350.5,367.3,359.8,374.1z"/>
		<path d="M350.8,409.7c9.2-6.8,18.3-13.5,27.5-20.3c0,0-1-0.9-1.1-0.9c-5.9,4.4-11.8,8.7-17.7,13.1l-7.8,5.7
			c3.4-10.5,14.9-46,17-52.5l-1.4,0c-2,6.2-11.4,35.4-13.9,43.1l-3.6,11C349.6,409.5,350.3,410.1,350.8,409.7z"/>
		<path d="M368.6,350.9c0.5,0,0.9,0,1.4,0c2.2-6.7,4.3-13.4,6.5-20c1-3,1.9-6,2.9-8.9c3.3,10.1,14.4,44.7,16.5,51.1l1.2-0.9
			c-2-6.2-13.5-41.7-13.5-41.7c-1.2-3.6-2.3-7.3-3.5-10.9c0-0.2-0.2-0.4-0.4-0.5c-0.1,0-0.1-0.1-0.2-0.1c0,0,0,0,0,0c0,0,0,0-0.1,0
			c0,0-0.1,0-0.1,0c0,0,0,0,0,0c-0.1,0-0.2,0-0.2,0.1c-0.2,0.1-0.4,0.3-0.4,0.5C375.3,330,371.9,340.5,368.6,350.9
			C368.6,350.9,368.6,350.9,368.6,350.9z"/>
		<path d="M426.7,353.6c0.5-0.4,0.4-1.3-0.3-1.3h-34.1c0.2,0.5,0.3,0.9,0.5,1.4h31.6c-8.9,6.6-38.6,28.5-43.8,32.4l1.1,0.8
			c5.1-3.7,35.7-26.4,35.7-26.4C420.4,358.2,423.6,355.9,426.7,353.6z"/>
		<path d="M333.8,341.3c8.8-14.6,24.2-23.9,40.7-25.5c-0.1-0.4-0.1-0.9-0.1-1.3c-14.3,1.4-28,8.3-37.3,19.8c-3.2,4-5.8,8.3-7.7,12.9
			c0.4,0.1,0.9,0.2,1.2,0.4C331.5,345.4,332.6,343.3,333.8,341.3z"/>
		<path d="M326.5,355.7c-3.4,13.9-1.4,28.9,6.3,41.4c3.2,5.2,7.2,9.7,11.7,13.4c0.3-0.4,0.6-0.7,1-0.9c-2.5-2.1-4.9-4.4-7-6.9
			c-10.9-13-14.7-30.7-10.7-46.8C327.4,355.9,327,355.8,326.5,355.7z"/>
		<path d="M406.4,415.9c-0.3-0.4-0.5-0.7-0.6-1.2c-2.7,1.6-5.6,2.9-8.7,4c-15.2,5.4-31.9,3.3-45.3-4.7c-0.1,0.4-0.3,0.9-0.5,1.3
			c11.4,6.8,25.2,9.5,38.6,6.9C395.9,421,401.4,418.8,406.4,415.9z"/>
		<path d="M430.9,356.1C430.9,356.1,430.9,356.1,430.9,356.1c1,4.1,1.6,8.3,1.6,12.5c-0.1,15.9-7.4,30.9-19.3,40.9
			c0.4,0.3,0.7,0.6,1,0.9c12-10.2,19.5-25.4,19.6-41.7c0-4.4-0.6-8.7-1.6-12.9C431.8,355.9,431.3,355.9,430.9,356.1z"/>
		<path d="M398.2,317.5c-4.4-1.6-9-2.6-13.7-3.1c0.1,0.4,0.2,0.9,0.2,1.4c1.7,0.2,3.5,0.4,5.2,0.8c17.3,3.5,31.2,15.5,37.9,31
			c0,0,0,0,0,0c0.3-0.1,0.5-0.1,0.8,0c0.1-0.1,0.1-0.1,0.2-0.2c0.1-0.1,0.2-0.2,0.3-0.3C423.5,333.7,412.4,322.8,398.2,317.5z"/>
		<path d="M379.3,317.9c0.3,0,0.5-1.8,1-2.2c0.4-0.4,1.6-0.6,1.6-0.8c0-0.2-1.2-0.5-1.6-0.9c-0.4-0.4-0.6-2.2-0.9-2.2
			c-0.3,0-0.5,1.7-1,2.2s-1.6,0.5-1.6,0.8c0,0.3,1.2,0.4,1.6,0.9C378.9,316.1,379,317.9,379.3,317.9z"/>
		<path d="M326.7,352c0.3,0.6,0,1.7,0.3,1.8c0.3,0.1,0.8-1,1.3-1.3c0.6-0.3,2.3,0.1,2.4-0.1c0.1-0.3-1.5-1.1-1.8-1.6
			c-0.2-0.5,0-1.7-0.3-1.8c-0.2-0.1-0.8,1-1.3,1.3c-0.5,0.2-2.3-0.1-2.4,0.1C324.9,350.7,326.5,351.5,326.7,352z"/>
		<path d="M345.8,415.3c0.2,0.2,1.4-1.1,2.1-1.2c0.6-0.1,1.6,0.5,1.8,0.3c0.2-0.2-0.7-1-0.8-1.6c-0.1-0.6,0.8-2.1,0.6-2.3
			c-0.2-0.2-1.5,1.1-2.1,1.2c-0.6,0.1-1.6-0.5-1.8-0.3c-0.1,0.2,0.7,1.1,0.8,1.6C346.5,413.6,345.6,415.2,345.8,415.3z"/>
		<path d="M413,411.6c-0.2-0.2-1.2,0.4-1.8,0.2s-1.8-1.4-2-1.3c-0.2,0.2,0.6,1.8,0.5,2.3c-0.1,0.6-1,1.4-0.9,1.6
			c0.1,0.2,1.3-0.3,1.8-0.2c0.5,0.1,1.8,1.4,2,1.3c0.2-0.2-0.6-1.7-0.5-2.3C412.2,412.6,413.1,411.8,413,411.6z"/>
		<path d="M427.9,352.2c0.1,0.3,1.9,0,2.4,0.2c0.5,0.3,1,1.4,1.3,1.3c0.2-0.1,0.1-1.3,0.3-1.8c0.3-0.5,1.9-1.3,1.8-1.5
			c-0.1-0.3-1.8,0.1-2.4-0.2c-0.6-0.3-1-1.4-1.3-1.3c-0.3,0.1,0,1.2-0.3,1.8C429.4,351.3,427.8,352,427.9,352.2z"/>
		<path d="M358.9,346c0,1.3,1.1,2.4,2.4,2.5c1.5,0.1,2.5-1.1,2.6-2.5c-0.1-1.4-1.1-2.5-2.5-2.5C360.1,343.5,358.9,344.7,358.9,346z
			 M362.6,346c-0.1,1.5-2.3,1.5-2.3,0C360.3,344.6,362.5,344.6,362.6,346z"/>
		<path d="M398.6,346c-0.1-1.4-1.1-2.5-2.5-2.5c-1.4,0-2.5,1.1-2.5,2.5c0,1.3,1.1,2.4,2.4,2.5C397.5,348.6,398.6,347.4,398.6,346z
			 M395,346c0-1.5,2.2-1.5,2.3,0C397.2,347.5,395,347.5,395,346z"/>
		<path d="M379.3,399.8c1.5,0.1,2.5-1.1,2.6-2.5c-0.1-1.4-1.1-2.5-2.5-2.5c-1.4,0-2.5,1.1-2.5,2.5
			C376.9,398.7,377.9,399.8,379.3,399.8z M380.5,397.3c-0.1,1.5-2.3,1.5-2.3,0C378.2,395.9,380.4,395.9,380.5,397.3z"/>
		<path d="M357,376.9c-0.1-1.4-1.1-2.5-2.5-2.5c-1.4,0-2.5,1.1-2.5,2.5c0,1.3,1.1,2.4,2.4,2.5C355.8,379.5,356.9,378.3,357,376.9z
			 M353.3,376.9c0-1.5,2.2-1.5,2.3,0C355.5,378.4,353.3,378.4,353.3,376.9z"/>
		<path d="M407,376.9c-0.1-1.4-1.1-2.5-2.5-2.5c-1.4,0-2.5,1.1-2.5,2.5c0,1.3,1.1,2.4,2.4,2.5C405.8,379.5,406.9,378.3,407,376.9z
			 M403.3,376.9c0-1.5,2.2-1.5,2.3,0C405.5,378.4,403.3,378.4,403.3,376.9z"/>
		<polygon points="383.1,368.1 386.6,362.4 381,366 379.5,356.5 378,366 372.3,362.4 375.9,368.1 366.4,369.6 375.9,371 
			372.3,376.7 378,373.1 379.5,382.6 381,373.1 386.6,376.7 383.1,371 392.5,369.6 		"/>
		<path d="M407.9,538.6c0.5,0.4,1.2-0.2,1-0.8c-3.5-10.8-7-21.5-10.5-32.3l-1.2,0.8c2.2,6.9,4.5,14,6.8,20.9l2.9,9
			c-8.8-6.5-38-28.1-43.4-32.1l-0.5,1.3c5.2,3.8,29.1,21.5,35.4,26.2C401.7,533.9,404.8,536.3,407.9,538.6z"/>
		<path d="M359.8,502.9l0.5-1.3c-6-4.4-12.1-8.9-18.2-13.4c-2.6-1.9-5.1-3.8-7.7-5.7h53.7c0-0.1-0.4-1-0.5-1.4h-55.3
			c-0.7,0-0.9,0.9-0.3,1.3C341.4,489.4,350.5,496.1,359.8,502.9z"/>
		<path d="M377.2,517.3c-5.9,4.4-11.8,8.7-17.7,13.1l-7.8,5.7c3.4-10.5,14.9-46,17-52.5l-1.4,0c-2,6.2-11.4,35.4-13.9,43.1l-3.6,11
			c-0.2,0.5,0.5,1.1,1,0.8c9.2-6.8,18.3-13.5,27.5-20.3C378.2,518.2,377.2,517.4,377.2,517.3z"/>
		<path d="M368.6,479.7c0.5,0,0.9,0,1.4,0c2.2-6.7,4.3-13.4,6.5-20c1-3,1.9-6,2.9-8.9c3.3,10.1,14.4,44.7,16.5,51.1l1.2-0.9
			c-2-6.2-13.5-41.7-13.5-41.7c-1.2-3.6-2.3-7.3-3.5-10.9c0-0.2-0.2-0.4-0.4-0.5c-0.1,0-0.1-0.1-0.2-0.1c0,0,0,0,0,0c0,0,0,0-0.1,0
			c0,0-0.1,0-0.1,0c0,0,0,0,0,0c-0.1,0-0.2,0-0.2,0.1c-0.2,0.1-0.4,0.3-0.4,0.5C375.3,458.9,371.9,469.3,368.6,479.7
			C368.6,479.7,368.6,479.7,368.6,479.7z"/>
		<path d="M426.7,482.4c0.5-0.4,0.4-1.3-0.3-1.3h-34.1c0.2,0.5,0.3,0.9,0.5,1.4h31.6c-8.9,6.6-38.6,28.5-43.8,32.4l1.1,0.8
			c5.1-3.7,35.7-26.4,35.7-26.4C420.4,487.1,423.6,484.8,426.7,482.4z"/>
		<path d="M333.8,470.1c8.8-14.6,24.2-23.9,40.7-25.5c-0.1-0.4-0.1-0.9-0.1-1.3c-14.3,1.4-28,8.3-37.3,19.8c-3.2,4-5.8,8.3-7.7,12.9
			c0.4,0.1,0.9,0.2,1.2,0.4C331.5,474.3,332.6,472.2,333.8,470.1z"/>
		<path d="M338.6,531.6c-10.9-13-14.7-30.7-10.7-46.8c-0.4,0-0.9-0.1-1.3-0.2c-3.4,13.9-1.4,28.9,6.3,41.4
			c3.2,5.2,7.2,9.7,11.7,13.4c0.3-0.4,0.6-0.7,1-0.9C343.1,536.4,340.7,534.1,338.6,531.6z"/>
		<path d="M406.4,544.8c-0.3-0.4-0.5-0.7-0.6-1.2c-2.7,1.6-5.6,2.9-8.7,4c-15.2,5.4-31.9,3.3-45.3-4.7c-0.1,0.4-0.3,0.9-0.5,1.3
			c11.4,6.8,25.2,9.5,38.6,6.9C395.9,549.8,401.4,547.7,406.4,544.8z"/>
		<path d="M430.9,485C430.9,485,430.9,485,430.9,485c1,4.1,1.6,8.3,1.6,12.5c-0.1,15.9-7.4,30.9-19.3,40.9c0.4,0.3,0.7,0.6,1,0.9
			c12-10.2,19.5-25.4,19.6-41.7c0-4.4-0.6-8.7-1.6-12.9C431.8,484.7,431.3,484.8,430.9,485z"/>
		<path d="M398.2,446.4c-4.4-1.6-9-2.6-13.7-3.1c0.1,0.4,0.2,0.9,0.2,1.4c1.7,0.2,3.5,0.4,5.2,0.8c17.3,3.5,31.2,15.5,37.9,31
			c0,0,0,0,0,0c0.3-0.1,0.5-0.1,0.8,0c0.1-0.1,0.1-0.1,0.2-0.2c0.1-0.1,0.2-0.2,0.3-0.3C423.5,462.6,412.4,451.6,398.2,446.4z"/>
		<path d="M379.3,446.7c0.3,0,0.5-1.8,1-2.2c0.4-0.4,1.6-0.6,1.6-0.8c0-0.2-1.2-0.5-1.6-0.9c-0.4-0.4-0.6-2.2-0.9-2.2
			c-0.3,0-0.5,1.7-1,2.2c-0.5,0.4-1.6,0.5-1.6,0.8c0,0.3,1.2,0.4,1.6,0.9C378.9,444.9,379,446.7,379.3,446.7z"/>
		<path d="M326.7,480.9c0.3,0.6,0,1.7,0.3,1.8c0.3,0.1,0.8-1,1.3-1.3c0.6-0.3,2.3,0.1,2.4-0.1c0.1-0.3-1.5-1.1-1.8-1.6
			c-0.2-0.5,0-1.7-0.3-1.8c-0.2-0.1-0.8,1-1.3,1.3c-0.5,0.2-2.3-0.1-2.4,0.1C324.9,479.6,326.5,480.3,326.7,480.9z"/>
		<path d="M349.6,543.3c0.2-0.2-0.7-1-0.8-1.6c-0.1-0.6,0.8-2.1,0.6-2.3c-0.2-0.2-1.5,1.1-2.1,1.2c-0.6,0.1-1.6-0.5-1.8-0.3
			s0.7,1.1,0.8,1.6c0.1,0.5-0.8,2.1-0.6,2.3c0.2,0.2,1.4-1.1,2.1-1.2C348.5,542.9,349.5,543.5,349.6,543.3z"/>
		<path d="M413,540.5c-0.2-0.2-1.2,0.4-1.8,0.2s-1.8-1.4-2-1.3c-0.2,0.2,0.6,1.8,0.5,2.3c-0.1,0.6-1,1.4-0.9,1.6
			c0.1,0.2,1.3-0.3,1.8-0.2c0.5,0.1,1.8,1.4,2,1.3c0.2-0.2-0.6-1.7-0.5-2.3C412.2,541.4,413.1,540.7,413,540.5z"/>
		<path d="M427.9,481.1c0.1,0.3,1.9,0,2.4,0.2c0.5,0.3,1,1.4,1.3,1.3c0.2-0.1,0.1-1.3,0.3-1.8c0.3-0.5,1.9-1.3,1.8-1.5
			c-0.1-0.3-1.8,0.1-2.4-0.2c-0.6-0.3-1-1.4-1.3-1.3c-0.3,0.1,0,1.2-0.3,1.8C429.4,480.1,427.8,480.8,427.9,481.1z"/>
		<path d="M358.9,474.9c0,1.3,1.1,2.4,2.4,2.5c1.5,0.1,2.5-1.1,2.6-2.5c-0.1-1.4-1.1-2.5-2.5-2.5
			C360.1,472.4,358.9,473.5,358.9,474.9z M362.6,474.9c-0.1,1.5-2.3,1.5-2.3,0C360.3,473.4,362.5,473.4,362.6,474.9z"/>
		<path d="M398.6,474.9c-0.1-1.4-1.1-2.5-2.5-2.5c-1.4,0-2.5,1.1-2.5,2.5c0,1.3,1.1,2.4,2.4,2.5
			C397.5,477.5,398.6,476.3,398.6,474.9z M395,474.9c0-1.5,2.2-1.5,2.3,0C397.2,476.4,395,476.4,395,474.9z"/>
		<path d="M379.3,528.7c1.5,0.1,2.5-1.1,2.6-2.5c-0.1-1.4-1.1-2.5-2.5-2.5c-1.4,0-2.5,1.1-2.5,2.5
			C376.9,527.5,377.9,528.7,379.3,528.7z M380.5,526.2c-0.1,1.5-2.3,1.5-2.3,0C378.2,524.7,380.4,524.8,380.5,526.2z"/>
		<path d="M352,505.8c0,1.3,1.1,2.4,2.4,2.5c1.5,0.1,2.5-1.1,2.6-2.5c-0.1-1.4-1.1-2.5-2.5-2.5C353.1,503.3,352,504.5,352,505.8z
			 M355.6,505.8c-0.1,1.5-2.3,1.5-2.3,0C353.3,504.3,355.5,504.4,355.6,505.8z"/>
		<path d="M407,505.8c-0.1-1.4-1.1-2.5-2.5-2.5c-1.4,0-2.5,1.1-2.5,2.5c0,1.3,1.1,2.4,2.4,2.5C405.8,508.4,406.9,507.2,407,505.8z
			 M403.3,505.8c0-1.5,2.2-1.5,2.3,0C405.5,507.3,403.3,507.3,403.3,505.8z"/>
		<polygon points="383.1,496.9 386.6,491.3 381,494.8 379.5,485.4 378,494.8 372.3,491.3 375.9,496.9 366.4,498.4 375.9,499.9 
			372.3,505.6 378,502 379.5,511.5 381,502 386.6,505.6 383.1,499.9 392.5,498.4 		"/>
	</g>
</g>
</svg>
