<?xml version="1.0" encoding="utf-8"?>
<!-- Generator: Adobe Illustrator 21.1.0, SVG Export Plug-In . SVG Version: 6.00 Build 0)  -->
<svg version="1.1" id="Слой_1" xmlns="http://www.w3.org/2000/svg" xmlns:xlink="http://www.w3.org/1999/xlink" x="0px" y="0px"
	 viewBox="0 0 504 864" style="enable-background:new 0 0 504 864;" xml:space="preserve">
<style type="text/css">
	.st0{fill:#040404;}
	.st1{fill:#FFFFFF;}
</style>
<g>
	<g>
		<path d="M51.9,53.6c6.7-7.6,6.7-19,0.2-26.4c0.8,7.2-1.3,14.8-6.5,20.6c-5.2,5.8-12.3,8.7-19.5,8.6C34,62.2,45.2,61.1,51.9,53.6z"
			/>
		<path d="M458.4,47.7c-5.2-5.8-7.3-13.3-6.5-20.6c-6.5,7.5-6.6,18.9,0.2,26.4c6.7,7.6,17.9,8.6,25.9,2.8
			C470.7,56.4,463.6,53.5,458.4,47.7z"/>
		<path d="M26.1,807.4c7.2-0.1,14.3,2.8,19.5,8.6c5.2,5.8,7.3,13.3,6.5,20.6c6.5-7.5,6.6-18.9-0.2-26.4
			C45.2,802.6,34,801.6,26.1,807.4z"/>
		<path d="M452,810.2c-6.7,7.6-6.7,19-0.2,26.4c-0.8-7.2,1.3-14.8,6.5-20.6c5.2-5.8,12.3-8.7,19.5-8.6
			C470,801.6,458.8,802.6,452,810.2z"/>
		<path d="M503.8,18.2c-1.6-17.9-18.7-16.3-31.6-16.3c-45.9,0-91.8,0-137.6,0c-63.2,0-126.3,0-189.5,0c-40.6,0-81.2,0-121.8,0
			c-2.6,0-5.3-0.2-8,0.2c-9.5,1.2-15,9.2-15.2,18.2c-0.2,7.3,0,14.5,0,21.8c0,37.4,0,74.9,0,112.3c0,57,0,114.1,0,171.1
			c0,64.3,0,128.6,0,192.9c0,58.4,0,116.7,0,175.1c0,40.1,0,80.2,0,120.3c0,9.1,0,18.2,0,27.3c0,11.7,6.7,20.5,19.2,20.7
			c35.9,0.6,71.9,0,107.9,0c62.4,0,124.9,0,187.3,0c49.7,0,99.5,0,149.2,0c7.6,0,15.2,0,22.9,0c0.4,0,0.8-0.1,1.2-0.2
			c14.4-1.8,16.1-13.8,16.1-25.5c0-11.4,0-22.8,0-34.3c0-43.4,0-86.9,0-130.3c0-59.9,0-119.8,0-179.8c0-63.9,0-127.7,0-191.6
			c0-55.3,0-110.6,0-165.9c0-33.7,0-67.3,0-101C503.9,28.3,504.2,23.2,503.8,18.2z M486.6,852.8c-28.3,0-56.6,0-84.9,0
			c-59.9,0-119.8,0-179.7,0c-54,0-108,0-162,0c-13.1,0-26.1,0-39.2,0c-5.6,0-11-1.3-11.7-8.3c-0.2-1.5,0-3,0-4.5c0-26.5,0-53,0-79.5
			c0-50,0-100,0-149.9c0-61.8,0-123.6,0-185.4c0-61.4,0-122.7,0-184.1c0-48.9,0-97.7,0-146.6c0-24.2-0.8-48.6,0-72.7
			c0.2-5.3,1.6-10.1,8.3-10.8c2.2-0.2,4.5,0,6.7,0c14.8,0,29.6,0,44.5,0c55.6,0,111.3,0,166.9,0c58.9,0,117.8,0,176.7,0
			c18.9,0,37.9,0,56.8,0c8.1,0,24.7-3.1,25.9,8.4c0.5,5.2,0,10.8,0,16.1c0,13.5,0,27.1,0,40.6c0,45.5,0,91.1,0,136.6
			c0,60.1,0,120.2,0,180.3c0,62.6,0,125.2,0,187.7c0,52.8,0,105.6,0,158.4c0,31.4,0,62.7,0,94.1C494.8,840.3,496.9,852,486.6,852.8z
			"/>
		<path d="M460,790.9c1.2,0.1,2.4-0.7,2.4-2.2c0-23.7,0-47.4,0-71.1c0-56.4,0-112.8,0-169.2c0-68.7,0-137.4,0-206
			c0-59,0-117.9,0-176.9c0-19.6,0-39.2,0-58.8c0-8.9,1.3-19,0-27.9c-0.1-0.4,0-0.8,0-1.2c0-0.8-0.3-1.3-0.8-1.7
			c0.1-1.2-0.6-2.5-2.2-2.6c-13.1-0.5-25.3-13.8-25.8-26.7c0-0.5-0.2-0.8-0.4-1.1c-0.3-0.6-1-1.1-1.9-1.1c-40.5,0-80.9,0-121.4,0
			c-64.5,0-129,0-193.6,0c-14.9,0-29.7,0-44.6,0c-0.9,0-1.6,0.5-1.9,1.1c-0.2,0.3-0.3,0.7-0.4,1.2C69.1,59.5,57,72.8,43.9,73.3
			c-1.8,0.1-2.5,1.9-2,3.2c-0.2,0.3-0.2,0.6-0.2,1c0,23.7,0,47.4,0,71.1c0,56.4,0,112.8,0,169.2c0,68.7,0,137.4,0,206
			c0,59,0,117.9,0,176.9c0,19.6,0,39.2,0,58.8c0,8.9-1.3,19,0,27.9c0.1,0.4,0,0.8,0,1.2c0,0.9,0.5,1.6,1.1,1.9
			c0.3,0.2,0.7,0.3,1.2,0.4c13,0.5,25.3,13.3,25.8,26.2c0,0.5,0.2,0.8,0.4,1.1c0.3,0.6,1,1.1,1.9,1.1c40.5,0,80.9,0,121.4,0
			c64.5,0,129,0,193.6,0c14.9,0,29.7,0,44.6,0c0.9,0,1.6-0.5,1.9-1.1c0.2-0.3,0.3-0.7,0.4-1.2c0.5-12.9,12.7-25.7,25.8-26.2
			C459.6,791,459.8,790.9,460,790.9z M429.3,814.9c-39.8,0-79.6,0-119.3,0c-64.5,0-129,0-193.6,0c-14.2,0-28.3,0-42.5,0
			c-1.7-13.9-13.9-26.5-27.8-28.3c0-23,0-46,0-69.1c0-56.4,0-112.8,0-169.2c0-68.7,0-137.4,0-206c0-59,0-117.9,0-176.9
			c0-19.6,0-39.2,0-58.8c0-8.9,1.3-19,0-27.9c-0.1-0.4,0-0.8,0-1.2c14-1.8,26.1-14.9,27.8-28.7c39.8,0,79.6,0,119.3,0
			c64.5,0,129,0,193.6,0c14.2,0,28.3,0,42.5,0c1.7,14.1,14.3,27.4,28.5,28.8c0,23.7,0,47.3,0,71c0,56.4,0,112.8,0,169.2
			c0,68.7,0,137.4,0,206c0,59,0,117.9,0,176.9c0,19.6,0,39.2,0,58.8c0,8.6-1.2,18.4-0.1,27C443.6,788.1,431.1,800.9,429.3,814.9z"/>
		<path d="M238.2,98.6c0.2-0.1,0.3-0.6,0.3-1.5c0-0.9,0.2-1.6,0.6-1.9c0.5-0.5,0.8-0.7,1.1-0.8c0.3-0.1,0.4-0.5,0.4-1.3
			c0-0.8,0.1-1.2,0.4-1.4c0.2-0.1,0.4-0.6,0.6-1.5c0.2-0.9,0.3-1.4,0.4-1.5c0.3-0.2,0.4-0.5,0.4-0.9c0-0.4,0.2-0.6,0.7-0.7
			c0.4,0,0.6-0.3,0.6-0.7c0-0.2-0.1-0.6-0.1-1c0-1,0.2-1.5,0.6-1.5c0.4,0,0.5-0.3,0.5-0.8c0-0.5,0.2-0.9,0.6-1.4
			c0.4-0.4,0.9-0.7,1.6-0.8c0.8-0.2,1.2-0.6,1.2-1.4c0-0.1,0-0.4-0.1-0.7l-0.1-0.6h-3.7c-2.5,0-3.7,0.1-3.7,0.3
			c0,0.2-0.1,0.3-0.3,0.3c-0.3,0-0.6,0.2-0.9,0.6c-0.4,0.5-0.4,0.7-0.2,0.7c0.3,0,0.5,0.1,0.5,0.4c0.1,0.3,0.5,0.4,1.1,0.4
			c0.6,0,1,0.2,1.1,0.7c0.1,0.5,0.1,0.7-0.1,0.8c-0.2,0.1-0.3,0.5-0.3,1.3c0,0.7-0.1,1.2-0.4,1.3c-0.2,0.1-0.3,0.3-0.3,0.7
			c0,0.1,0.1,0.2,0.1,0.4c0,0.5-0.1,0.9-0.3,1.4c-0.2,0.5-0.4,0.8-0.7,0.8c-0.4,0.1-0.5,0.4-0.5,0.9c0,0.5-0.1,0.9-0.3,1.1
			c-0.2,0.2-0.4,0.8-0.4,1.7c-0.1,1-0.3,1.5-0.6,1.5c-0.4,0-0.5,0.2-0.4,0.5c0,0.2,0,0.4,0,0.4c-0.1,0.1-0.2,0.1-0.4,0.1
			c-0.4,0-0.7-0.1-0.9-0.2c-0.5-0.3-0.7-1.2-0.8-2.9c0-0.7-0.1-1.2-0.4-1.4c-0.2-0.2-0.3-0.7-0.3-1.6c0-1.3-0.3-2.2-0.9-2.6
			c-0.2-0.1-0.2-0.3,0.1-0.4c0.1,0,0.2-0.2,0.3-0.4c0.1-0.2,0.1-0.5,0.1-0.7c0-0.2-0.1-0.3-0.2-0.3c-0.1,0-0.3-0.3-0.4-0.8
			c-0.1-0.6-0.4-0.9-0.7-0.9c-0.3-0.1-0.4-0.2-0.4-0.3c0-0.4,0.5-0.5,1.4-0.5c1.3,0,1.9-0.2,1.9-0.7c0-0.2,0.1-0.4,0.3-0.4
			c0.2,0,0.1-0.3-0.3-0.8c-0.4-0.5-0.9-0.8-1.6-0.8c-0.7,0-1.1-0.1-1.2-0.3c-0.1-0.1-0.3-0.1-0.7,0.1c-0.4,0.2-0.6,0.2-0.7-0.1
			c-0.2-0.2-0.3-0.3-0.4-0.1c-0.1,0.2-0.5,0.3-1.1,0.3c-0.4,0-0.6,0-0.8-0.1c-0.1-0.1-0.2-0.3-0.3-0.7c-0.1-0.5-0.3-0.8-0.7-0.8
			c-0.2,0-0.5,0.2-0.8,0.5c-0.4,0.4-0.7,0.5-1.2,0.5c-0.4,0-0.6,0.1-0.6,0.4c0,0.3-0.1,0.4-0.3,0.4s-0.3,0.2-0.3,0.6
			c0,0.5,0.1,0.7,0.3,0.7s0.3,0.1,0.3,0.4c0,0.2,0.3,0.4,1,0.5c0.6,0.1,1.1,0.4,1.5,0.9c0.4,0.5,0.7,1.1,0.7,1.6
			c0,0.5,0.1,1,0.3,1.6c0.2,0.6,0.4,0.9,0.5,0.9c0.1,0,0.2,0.3,0.2,0.8c0,0.6,0.2,1.1,0.5,1.4c0.3,0.3,0.5,0.9,0.8,1.8
			c0.2,0.9,0.3,1.7,0.3,2.5c0,0.9,0.1,1.4,0.4,1.4c0.1,0.1,0.2,0.3,0.2,0.7c0,0.4,0.1,0.6,0.2,0.6c0.2,0.1,0.3,0.6,0.3,1.6
			c0,0.9,0.1,1.4,0.4,1.4c0.2,0,0.4,0.3,0.6,1c0.2,0.7,0.4,1,0.5,1c0.2,0,0.4,0.3,0.4,0.8c0.1,0.7,0.5,1,1.3,1c0.1,0,0.4,0,0.6-0.1
			c0.5-0.1,0.7-0.4,0.7-1.1c0-0.6,0.1-0.9,0.3-0.9c0.2,0,0.3-0.3,0.3-0.9C237.9,99,238,98.6,238.2,98.6z"/>
		<path d="M260.4,103.2c0,0.2,0.2,0.3,0.5,0.3c0.4,0,0.6-0.1,0.6-0.2s0.2-0.3,0.6-0.5c0.4-0.2,0.6-0.4,0.6-0.6
			c0-0.9-0.7-1.4-1.9-1.5l-1.3-0.1l0.1-6.7c0.1-4.5,0.2-6.8,0.3-7c0.1-0.1,0.2-0.8,0.3-1.9c0.1-2.1,0.4-3.2,0.7-3.2
			c0.2,0,0.4-0.1,0.4-0.3c0-0.2,0.2-0.3,0.7-0.3c0.4,0,0.8-0.1,1-0.3c0.3-0.2,0.4-0.5,0.4-0.7c0-0.3-0.2-0.6-0.5-0.8
			c-0.3-0.2-1.4-0.3-3.4-0.3c-2,0-2.9,0.1-2.9,0.3c0,0.1-0.3,0.2-0.9,0.2c-0.6,0-0.9,0.1-0.9,0.4s-0.1,0.4-0.3,0.4s-0.3,0.2-0.3,0.6
			c0,0.5,0.1,0.8,0.4,0.9c0.3,0.1,0.4,0.9,0.4,2.5c0,1.6,0.1,2.4,0.3,2.5c0.2,0.1,0.3,0.8,0.3,2.2c0,1.3-0.1,2-0.3,2.1
			c-0.2,0.1-0.4,1.5-0.4,4.3c-0.1,2.4-0.2,3.9-0.4,4.3c-0.2,0.5-0.8,0.8-1.8,0.9c-0.6,0-0.9,0.1-1,0.2c-0.1,0.1-0.2,0.4-0.2,0.8
			c0,0.6,0.1,0.9,0.4,0.9c0.3,0,0.6,0.1,0.9,0.4c0.3,0.3,0.5,0.4,0.6,0.2c0.1-0.2,1.5-0.4,4-0.4C259.3,102.9,260.4,103,260.4,103.2z
			 M256.1,96.6c-0.3,0-0.4-0.1-0.4-0.3c0-0.2,0.1-0.3,0.4-0.3c0.2,0,0.4,0.1,0.4,0.3C256.5,96.5,256.4,96.6,256.1,96.6z M257.8,89.2
			c-0.3,0-0.4-0.2-0.4-0.5c0-0.4,0.1-0.6,0.4-0.6c0.3,0,0.4,0.2,0.4,0.6C258.2,89,258,89.2,257.8,89.2z"/>
		<path d="M277.9,79.3c-0.3-0.2-1.4-0.3-3.4-0.3c-2,0-2.9,0.1-2.9,0.3c0,0.1-0.3,0.2-0.9,0.2c-0.6,0-0.9,0.1-0.9,0.4
			s-0.1,0.4-0.3,0.4s-0.3,0.2-0.3,0.6c0,0.5,0.1,0.8,0.4,0.9c0.3,0.1,0.4,0.9,0.4,2.5c0,1.6,0.1,2.4,0.3,2.5
			c0.2,0.1,0.3,0.8,0.3,2.2c0,1.3-0.1,2-0.3,2.1c-0.2,0.1-0.4,1.5-0.4,4.3c-0.1,2.4-0.2,3.9-0.4,4.3c-0.2,0.5-0.8,0.8-1.8,0.9
			c-0.6,0-0.9,0.1-1,0.2c-0.1,0.1-0.2,0.4-0.2,0.8c0,0.6,0.1,0.9,0.4,0.9c0.3,0,0.6,0.1,0.9,0.4c0.3,0.3,0.5,0.4,0.6,0.2
			c0.1-0.2,1.5-0.4,4-0.4c2.1,0,3.2,0.1,3.2,0.3c0,0.2,0.2,0.3,0.5,0.3c0.4,0,0.6-0.1,0.6-0.2s0.2-0.3,0.6-0.5
			c0.4-0.2,0.6-0.4,0.6-0.6c0-0.9-0.7-1.4-1.9-1.5l-1.3-0.1l0.1-6.7c0.1-4.5,0.2-6.8,0.3-7c0.1-0.1,0.2-0.8,0.3-1.9
			c0.1-2.1,0.4-3.2,0.7-3.2c0.2,0,0.4-0.1,0.4-0.3c0-0.2,0.2-0.3,0.7-0.3c0.4,0,0.8-0.1,1-0.3c0.3-0.2,0.4-0.5,0.4-0.7
			C278.4,79.8,278.2,79.5,277.9,79.3z M271.1,96.6c-0.3,0-0.4-0.1-0.4-0.3c0-0.2,0.1-0.3,0.4-0.3c0.2,0,0.4,0.1,0.4,0.3
			C271.5,96.5,271.4,96.6,271.1,96.6z M272.8,89.2c-0.3,0-0.4-0.2-0.4-0.5c0-0.4,0.1-0.6,0.4-0.6c0.3,0,0.4,0.2,0.4,0.6
			C273.2,89,273.1,89.2,272.8,89.2z"/>
		<path d="M162.8,785.3c0.1,0,0.2-0.2,0.2-0.5c0-0.2,0-0.4-0.1-0.4c-0.1,0-0.1-0.1-0.1-0.3c0-0.2,0.1-0.4,0.2-0.6
			c0.1-0.3,0.1-0.5-0.2-0.6c-0.2-0.2-0.5-0.3-0.9-0.3c-0.5,0-0.8,0.1-1.1,0.4c-0.3,0.2-0.4,0.3-0.5,0.2c-0.1-0.1-0.4-0.1-0.8,0
			c-0.5,0.1-1.4,0.2-2.6,0.2c-0.9,0-1.4,0-1.5-0.1c-0.1-0.1-0.2,0-0.4,0.2c-0.1,0.1-0.3,0.2-0.4,0.2c-0.2,0-0.4,0-0.7-0.1
			c-0.7-0.2-1.1-0.2-1.3-0.2c-0.1,0-0.2,0-0.2,0c-0.1,0-0.3,0.1-0.4,0.3c-0.1,0.2-0.2,0.4-0.2,0.5c0,0.1,0,0.1,0.1,0.2
			c0,0,0.1,0.2,0.1,0.5c0,0.1,0,0.2-0.1,0.3c-0.1,0-0.2,0.1-0.3,0.1c-0.3,0-0.5,0.1-0.5,0.3c0,0,0,0.1,0.1,0.2
			c0.1,0.1,0.1,0.3,0.1,0.6c0,0.3-0.1,0.4-0.1,0.5c0,0.5,0.2,0.8,0.6,0.8c0.3,0,0.4-0.1,0.4-0.2c0-0.1,0.1-0.2,0.2-0.2
			c0.1,0,0.1,0,0.2-0.1c0,0,0-0.1,0-0.2c0-0.1-0.1-0.2-0.2-0.2c-0.1-0.1-0.1-0.1-0.1-0.2c0,0,0-0.1,0-0.1s0-0.1,0.1-0.1
			c0,0,0.1,0,0.2-0.1c0.2-0.1,0.2-0.2,0.2-0.3c0,0,0-0.1,0-0.2c0-0.1,0-0.1,0-0.2c0-0.1,0-0.2,0.1-0.2c0.1-0.1,0.1-0.3,0-0.6
			c-0.1-0.3-0.1-0.4,0-0.4c0.1,0,0.1,0.1,0.1,0.2c0,0.1,0.2,0.2,0.5,0.4c0.4,0.1,0.7,0.2,1.1,0.2c0.4,0,0.7,0.1,0.8,0.3
			c0.2,0.2,0.3,0.2,0.5,0.2c0.1,0,0.1,0,0.1,0c0.1,0,0.1,0,0,0.1c-0.3,0.3-0.4,2.2-0.5,5.8c0,0.8-0.1,1.2-0.3,1.4
			c-0.2,0.1-0.3,0.3-0.3,0.4c0,0.1-0.3,0.2-0.8,0.2l-0.7,0.1l-0.1,0.5c0,0,0,0.1,0,0.1c0,0,0,0.1,0,0.1c0,0.2,0.1,0.4,0.4,0.7
			c0.3,0.3,0.5,0.4,0.7,0.4c0.1,0,0.1,0,0.1-0.1c0-0.1,0-0.1-0.1-0.1c-0.1,0-0.1,0-0.1-0.1c0-0.1,0.2-0.1,0.5-0.1c0.1,0,0.4,0,0.8,0
			c0.4,0,0.7,0,0.9,0c0.6,0,0.9-0.1,1.1-0.2c0.1-0.1,0.3-0.2,0.6-0.1c0.2,0.1,0.3,0,0.4-0.1c0.1-0.1,0.2-0.1,0.3-0.1
			c0.1,0,0.3-0.1,0.5-0.2c0.1-0.1,0.2-0.2,0.2-0.3c0-0.1-0.1-0.2-0.2-0.5c-0.2-0.3-0.3-0.4-0.5-0.4c-0.1,0-0.2-0.1-0.2-0.2
			c0-0.1-0.1-0.2-0.3-0.1c0,0-0.1,0-0.1,0c-0.1,0-0.1,0-0.1,0c-0.1,0-0.2,0-0.3-0.1c0-0.1-0.1-0.3-0.1-0.5v-0.4c0-0.5,0-0.8,0-0.9
			c0-0.1,0.1-0.2,0.2-0.2c0.2,0,0.2-0.1,0.2-0.4c0-0.3-0.1-0.5-0.2-0.5c-0.1,0-0.2-0.4-0.2-1.1c0-0.8,0.1-1.2,0.2-1.4
			c0.1-0.1,0.2-0.5,0.2-1.2c0-0.7,0.1-1,0.1-1.1c0.1-0.2,0.5-0.2,1.2-0.2c1,0,1.5,0.1,1.6,0.4c0,0.1,0.1,0.2,0.4,0.5
			c0.2,0.2,0.3,0.4,0.3,0.8c0,0.3,0.1,0.5,0.1,0.5c0,0.1,0.2,0.1,0.4,0.1c0.2,0,0.4,0,0.4-0.1c0-0.1,0.1-0.2,0.3-0.2
			c0.2-0.1,0.3-0.2,0.3-0.4c0-0.2-0.1-0.4-0.2-0.5C162.7,785.4,162.6,785.3,162.8,785.3z"/>
		<path d="M183.4,781.9c-0.2-0.1-0.5-0.1-0.8-0.1c-0.1,0-0.2,0-0.5,0.1c-0.3,0.1-0.5,0.1-0.7,0.1h-0.1h-0.2c-0.2,0-0.5,0-1,0.1
			c-0.4,0-0.7,0.1-0.8,0.1c-0.1,0-0.2,0.1-0.2,0.2c0,0.2,0,0.3-0.1,0.3c-0.1,0-0.1,0-0.1,0.1c0,0.1,0,0.2,0,0.3
			c0,0.1,0.1,0.2,0.2,0.2c0.1,0.1,0.2,0.5,0.2,1.3c0,0.8,0.1,1.2,0.2,1.2c0.1,0,0.1,0.3,0.1,0.8v0.8h-1.3c-0.8,0-1.7,0-2.7-0.1
			l-1.4-0.1v-0.7c0-0.4,0-0.7,0.1-0.7c0.1,0,0.1-0.3,0.2-0.9c0-1.1,0.1-1.6,0.4-1.6c0.1,0,0.2,0,0.2-0.1c0-0.1,0.1-0.2,0.4-0.2
			c0.2,0,0.4-0.1,0.5-0.2c0.1-0.1,0.2-0.2,0.2-0.4c0-0.2-0.1-0.3-0.2-0.4c-0.2-0.1-0.5-0.2-1-0.2c-0.3,0-0.4,0-0.5,0.1
			c0,0-0.5,0.1-1.3,0.1c-0.9,0.1-1.7,0.2-2.4,0.5c-0.1,0-0.2,0.1-0.2,0.2c0,0.1,0.2,0.2,0.6,0.4l0.6,0.3l0,0.8v0.9v0.3
			c0,0.2,0,0.4,0.1,0.4c0.1,0.1,0.2,0.5,0.2,1.1c0,0.6-0.1,1.1-0.2,1.4c-0.1,0.3-0.2,0.6-0.2,0.8c0,0,0,0,0,0.1c0,0,0,0.1,0,0.1
			c0,0.2,0.1,0.4,0.1,0.6c0,0.5,0,1.1-0.1,1.8c-0.1,0.6-0.2,1-0.2,1.2c-0.1,0.2-0.4,0.3-0.8,0.3c-0.3,0-0.5,0.1-0.6,0.1
			c-0.1,0.1-0.1,0.2-0.1,0.4v0.5l0.7-0.1c0.3-0.1,1-0.1,2.2-0.1h0.7h0.7c1,0,1.6,0,1.6-0.1c0-0.1-0.1-0.3-0.2-0.5
			c-0.2-0.2-0.3-0.3-0.4-0.3h-0.1c-0.2,0.1-0.4,0.1-0.6-0.1c-0.1-0.1-0.2-0.1-0.3-0.2c0-0.1-0.1-0.2-0.1-0.4c0-0.3,0-0.5,0-0.8
			c0-0.9,0.1-1.6,0.1-2.1v-0.8h4.9l0.1,0.4c0,0.2,0.1,0.5,0.1,0.7c0,0.5,0,1.1-0.1,1.7c-0.1,0.6-0.2,1-0.3,1
			c-0.1,0.1-0.4,0.2-0.8,0.3c-0.3,0-0.5,0.1-0.5,0.1c-0.1,0.1-0.1,0.2-0.1,0.4c0,0.3,0.1,0.5,0.3,0.5c0.3,0.1,1.3,0.1,3.1,0.1
			c1.3,0,2,0,2.1-0.1c0.2-0.1,0.3-0.2,0.3-0.4c0-0.2-0.1-0.3-0.2-0.5c-0.1-0.1-0.3-0.2-0.4-0.2c0,0,0,0-0.1,0c0,0,0,0-0.1,0
			c-0.1,0.1-0.3,0.1-0.5,0l-0.4-0.1l0.1-3.5c0-2.3,0.1-3.5,0.2-3.6c0.1,0,0.1-0.3,0.1-0.9c0.1-1.1,0.2-1.6,0.4-1.6
			c0.1,0,0.2,0,0.2-0.1c0-0.1,0.1-0.2,0.4-0.2c0.2,0,0.4-0.1,0.5-0.2c0.2-0.1,0.2-0.3,0.2-0.4C183.7,782.1,183.6,782,183.4,781.9z
			 M172.5,790.8c-0.2-0.1-0.3-0.1-0.3-0.2c0-0.1,0-0.1,0.1-0.1c0.2,0,0.3,0.1,0.4,0.2c0,0,0,0,0,0.1
			C172.8,790.8,172.7,790.8,172.5,790.8z M173.2,790.7c-0.1,0-0.1-0.1-0.1-0.2c0-0.1,0-0.2,0.1-0.2c0.1,0,0.2,0.1,0.2,0.2
			C173.4,790.7,173.3,790.7,173.2,790.7z M173.3,787c-0.1,0-0.2-0.1-0.2-0.3c0-0.3,0.1-0.4,0.2-0.4c0.2,0,0.2,0.1,0.2,0.3
			C173.4,786.9,173.4,787,173.3,787z M180.4,790.8c-0.1,0.1-0.2,0.1-0.4,0c-0.2-0.1-0.3-0.1-0.3-0.2c0-0.1,0.1-0.1,0.2-0.1
			c0.3,0,0.5,0.1,0.5,0.2C180.4,790.7,180.4,790.8,180.4,790.8z M180.7,790.7c-0.1,0-0.2-0.1-0.2-0.2c0-0.1,0.1-0.2,0.2-0.2
			c0.1,0,0.1,0.1,0.1,0.2C180.9,790.7,180.8,790.7,180.7,790.7z M180.7,787c-0.1,0-0.2-0.1-0.2-0.3c0-0.3,0.1-0.4,0.2-0.4
			c0.1,0,0.2,0.1,0.2,0.3C180.9,786.9,180.8,787,180.7,787z"/>
		<path d="M190.8,792.1c0,0,0.1,0,0.1-0.1c0.1-0.2,0.1-0.3,0-0.3c-0.1,0-0.2,0.1-0.2,0.2C190.6,792,190.7,792.1,190.8,792.1z"/>
		<path d="M200.9,790.2c-0.1,0-0.3,0.2-0.5,0.5c-0.3,0.3-0.4,0.6-0.4,0.7c0,0.1-0.1,0.2-0.4,0.2c-0.1,0-0.2,0-0.3,0.1
			c0,0-0.1,0.1-0.1,0.1c0,0,0,0.1,0,0.3c0,0.2-0.1,0.3-0.4,0.3c0,0-0.1,0-0.1,0c-0.1,0-0.1,0-0.2,0c-0.2,0-0.4,0.1-0.6,0.3
			c-0.2,0.2-0.4,0.3-0.6,0.3c-0.1,0-0.2-0.1-0.2-0.2c0-0.1-0.1-0.1-0.4,0c-0.2,0.1-0.6,0.2-1.2,0.2c-0.5,0-0.7,0-0.7-0.1
			c0-0.1-0.1-0.1-0.2-0.1c-0.1,0-0.1-0.1-0.2-0.2c-0.1-0.2-0.1-0.3-0.1-0.4c0-0.1,0-0.2,0-0.3c0-0.2,0-0.4,0-0.6c0-0.3,0-0.5,0-0.8
			c0-0.3,0-0.5,0-0.8c0-0.3,0-0.5,0-0.6v-0.2c0-0.1,0.4-0.1,1.3-0.1c0.7,0,1.2,0.1,1.4,0.2c0.2,0.1,0.4,0.4,0.4,0.8
			c0,0.2,0,0.3,0.1,0.3c0,0,0.1,0,0.2,0c0.1-0.1,0.3-0.1,0.5-0.1c0.1,0,0.2,0,0.3-0.1c0-0.1,0.1-0.2,0.1-0.5c0-0.1,0-0.2,0-0.3
			c0-0.2,0-0.3,0-0.4v-0.2c0-0.3,0-0.6,0.1-0.7c0.1-0.1,0.1-0.3,0-0.4c-0.1-0.1-0.1-0.3,0.1-0.4c0.1-0.1,0.2-0.2,0.2-0.4
			c0-0.3-0.3-0.4-1-0.4c-0.4,0-0.6,0.2-0.6,0.5c0,0.1,0,0.2,0.1,0.3c0,0.2,0,0.4,0,0.5c-0.1,0.1-0.3,0.2-0.9,0.3
			c-0.5,0.1-1,0.1-1.5,0.1h-0.6v-0.6c0-0.4,0.1-0.6,0.2-0.6c0.1,0,0.2-0.1,0.2-0.4c0-0.3-0.1-0.5-0.2-0.9c-0.1-0.2-0.2-0.4-0.1-0.4
			c0-0.1,0.1-0.1,0.2-0.3c0.2-0.1,0.3-0.3,0.2-0.5c0,0,0-0.1,0-0.2c0-0.1,0.1-0.3,0.4-0.3c0.3-0.1,0.7-0.1,1.5-0.2
			c0.7,0,1.1-0.1,1.1-0.1c0.3,0,0.5,0.1,0.6,0.2c0.1,0.2,0.3,0.3,0.5,0.4c0.2,0.1,0.3,0.2,0.3,0.3c0,0.1,0.1,0.2,0.3,0.3
			c0.2,0.1,0.3,0.2,0.3,0.3c0,0.2,0.1,0.3,0.3,0.5c0.2,0.2,0.4,0.2,0.6,0.2h0c0.3,0,0.4-0.2,0.4-0.6c0-0.2-0.1-0.3-0.2-0.5
			c-0.1-0.1-0.2-0.3-0.2-0.5c0-0.3-0.1-0.5-0.2-0.5c-0.1,0-0.1-0.1,0-0.4c0.1-0.1,0.1-0.2,0.1-0.3c0,0-0.1-0.1-0.1-0.1
			c-0.1-0.1-0.2-0.2-0.2-0.3s-0.1-0.3-0.3-0.5c-0.2-0.2-0.4-0.3-0.6-0.1c-0.3,0.1-1.8,0.3-4.7,0.4h-0.7c-1.5,0-2.2-0.1-2.3-0.3
			c0-0.1-0.1-0.1-0.2-0.1c-0.1,0-0.2,0-0.2,0.1l0,0.1c0,0.1,0,0.1,0,0.1c0,0,0,0.1,0,0.2c0,0.1,0,0.2,0,0.2c0,0.2-0.1,0.3-0.3,0.3
			c-0.2,0.1-0.3,0.2-0.2,0.5c0.1,0.2,0.1,0.4,0.2,0.5c0.1,0.1,0.2,0.1,0.3,0.1c0.1,0,0.3,0,0.4,0c0.1,0,0.2,0,0.4,0
			c0.3,0,0.5,0.1,0.6,0.4c0.1,0.2,0.1,0.7,0.1,1.4c0,0.9-0.1,1.4-0.2,1.4c-0.1,0-0.1,0.2,0,0.4c0.1,0.2,0.1,0.4,0,0.6
			c-0.1,0.2-0.2,0.3-0.3,0.3c-0.1,0-0.1,0.1,0.1,0.2c0.1,0.1,0.1,0.3,0.1,0.6c0,0.5-0.1,1.5-0.2,2.8l-0.1,0.9h-0.6
			c-0.4,0-0.6,0.1-0.6,0.3c0,0.2-0.1,0.3-0.3,0.3c-0.1,0-0.2,0.1-0.2,0.3c0,0.3,0.1,0.5,0.3,0.6c0.2,0.1,0.3,0.2,0.3,0.4
			c0,0.1,0.2,0.1,0.7,0.1c0.5,0,0.8-0.1,0.9-0.3c0.1-0.1,0.5-0.2,1.2-0.2c0.5,0,0.9,0,1.3,0c0.7,0,1.1,0.1,1.2,0.2
			c0,0.1,0.2,0.1,0.4,0c0.2-0.1,0.7-0.2,1.5-0.2c0.8,0,1.3,0,1.5-0.1c0.2,0,0.3-0.1,0.5-0.3c0.2-0.2,0.3-0.3,0.2-0.5
			c0-0.2,0-0.3,0.1-0.4c0.1-0.1,0.2-0.3,0.2-0.8c0-0.3,0-0.5,0-0.6c0-0.1,0.1-0.1,0.2-0.1c0.2,0,0.3-0.2,0.3-0.5
			c0-0.2-0.1-0.4-0.2-0.6C201.2,790.3,201.1,790.2,200.9,790.2z"/>
		<path d="M230.9,782.2h-1c-0.5,0-0.9,0-1.1-0.1c-0.2-0.1-0.3-0.3-0.3-0.5c0-0.1,0-0.2-0.1-0.2c-0.1,0-0.2,0-0.2,0.1
			c-0.1,0.1-0.3,0.2-0.7,0.2c-0.2,0-0.2,0-0.2-0.1c0-0.1-0.2-0.1-0.7-0.1c-0.5,0-0.8,0.1-0.8,0.2c-0.1,0.1-0.2,0.2-0.4,0.2
			c-0.2,0-0.3,0-0.4,0c-0.1,0-0.1,0-0.2,0c-0.1,0-0.2,0-0.2,0c-0.3,0-0.5,0.1-0.8,0.4c-0.3,0.3-0.5,0.5-0.7,0.5
			c-0.2,0.1-0.4,0.2-0.5,0.5c-0.1,0.3-0.3,0.4-0.6,0.4c-0.5,0.1-0.7,0.4-0.8,1c0,0.2-0.1,0.4-0.2,0.6c-0.1,0.2-0.2,0.5-0.2,0.6
			c0,0.3-0.1,0.4-0.2,0.5c-0.1,0.1-0.1,0.2-0.1,0.4c0,0.2-0.1,0.4-0.2,0.5c-0.1,0.1-0.2,0.6-0.2,1.5c0,1,0.1,1.6,0.2,1.6
			c0.1,0,0.1,0.1,0.1,0.3c0,0.1,0,0.2-0.1,0.2c-0.1,0,0,0.1,0.2,0.4c0.2,0.2,0.4,0.4,0.5,0.4c0.1,0,0.1,0.1,0.2,0.4
			c0.1,0.2,0.3,0.4,0.6,0.8c0.4,0.3,0.6,0.5,0.9,0.6c0.2,0.1,0.2,0.1,0.2,0.2c0,0.1,0.3,0.2,1,0.3s1.4,0.1,2.1,0.1
			c1.1,0,1.8-0.1,2-0.3c0.2-0.2,0.5-0.3,0.8-0.4c0.4-0.1,0.7-0.2,0.8-0.5c0.2-0.3,0.4-0.6,0.7-0.9c0.3-0.3,0.5-0.5,0.5-0.6
			c0-0.1-0.1-0.2-0.3-0.3c-0.4-0.2-0.6-0.3-0.8-0.3c-0.1,0-0.2,0.1-0.3,0.3c-0.1,0.3-0.2,0.4-0.4,0.4c-0.2,0-0.4,0.1-0.7,0.4
			c-0.2,0.3-0.4,0.3-0.5,0.2c-0.1-0.1-0.2-0.1-0.4,0.1c-0.1,0.1-0.4,0.2-0.7,0.2c-0.1,0-0.4,0-0.9-0.1c-0.7,0-1.1-0.1-1.3-0.2
			c-0.2-0.1-0.3-0.3-0.3-0.6c0-0.2-0.2-0.5-0.6-0.9c-0.3-0.3-0.5-0.5-0.6-0.7c-0.1-0.2-0.2-0.5-0.3-1c-0.1-0.7-0.2-1.1-0.3-1.1
			c-0.1,0-0.1-0.1-0.1-0.2c0-0.1,0-0.2,0.1-0.3c0.2,0,0.3-0.7,0.3-1.9c0-0.2,0.1-0.3,0.3-0.3c0.2,0,0.3-0.1,0.2-0.3
			c-0.1-0.3,0.1-0.4,0.4-0.6c0.3-0.1,0.5-0.3,0.5-0.4c0-0.1,0.1-0.3,0.3-0.4c0.2-0.1,0.5-0.2,0.7-0.2c0.2,0,0.3-0.1,0.3-0.2
			c0-0.1,0.2-0.2,0.7-0.3c0.1,0,0.1,0,0.2,0c0.1,0,0.1,0,0.2,0c0.6,0,1,0.2,1.2,0.5c0.1,0.2,0.3,0.3,0.6,0.4c0.2,0,0.3,0.1,0.3,0.1
			c0,0.1,0.1,0.1,0,0.3c-0.1,0.2,0,0.3,0.1,0.4c0.1,0.1,0.3,0.4,0.4,1c0.1,0.4,0.1,0.7,0.2,0.8s0.2,0.2,0.4,0.3
			c0.3,0.1,0.4,0.2,0.4,0.4c0,0.1,0,0.1,0,0.1c0,0,0.1,0,0.1,0c0.1-0.1,0.2-0.6,0.2-1.6c0-1,0.1-1.6,0.2-1.6c0.1-0.1,0.1-0.3,0-0.8
			L230.9,782.2z"/>
		<path d="M251.5,782.6c-0.2-0.1-0.5-0.1-0.8-0.1c-0.1,0-0.2,0-0.5,0.1c-0.3,0.1-0.5,0.1-0.7,0.1h-0.1h-0.2c-0.2,0-0.5,0-1,0.1
			c-0.4,0-0.7,0.1-0.8,0.1c-0.1,0-0.2,0.1-0.2,0.2c0,0.2,0,0.3-0.1,0.3c-0.1,0-0.1,0-0.1,0.1c0,0.1,0,0.2,0,0.3
			c0,0.1,0.1,0.2,0.2,0.2c0.1,0.1,0.2,0.5,0.2,1.3c0,0.8,0.1,1.2,0.2,1.2c0.1,0,0.1,0.3,0.1,0.8v0.8h-1.3c-0.8,0-1.7,0-2.7-0.1
			l-1.4-0.1v-0.7c0-0.4,0-0.7,0.1-0.7c0.1,0,0.1-0.3,0.2-0.9c0-1.1,0.1-1.6,0.4-1.6c0.1,0,0.2,0,0.2-0.1c0-0.1,0.1-0.2,0.4-0.2
			c0.2,0,0.4-0.1,0.5-0.2c0.1-0.1,0.2-0.2,0.2-0.4c0-0.2-0.1-0.3-0.2-0.4c-0.2-0.1-0.5-0.2-1-0.2c-0.3,0-0.4,0-0.5,0.1
			c0,0-0.5,0.1-1.3,0.1c-0.9,0.1-1.7,0.2-2.4,0.5c-0.1,0-0.2,0.1-0.2,0.2c0,0.1,0.2,0.2,0.6,0.4l0.6,0.3l0,0.8v0.9v0.3
			c0,0.2,0,0.4,0.1,0.4c0.1,0.1,0.2,0.5,0.2,1.1c0,0.6-0.1,1.1-0.2,1.4c-0.1,0.3-0.2,0.6-0.2,0.8c0,0,0,0,0,0.1c0,0,0,0.1,0,0.1
			c0,0.2,0.1,0.4,0.1,0.6c0,0.5,0,1.1-0.1,1.8c-0.1,0.6-0.2,1-0.2,1.2c-0.1,0.2-0.4,0.3-0.8,0.3c-0.3,0-0.5,0.1-0.6,0.1
			c-0.1,0.1-0.1,0.2-0.1,0.4v0.5l0.7-0.1c0.3-0.1,1-0.1,2.2-0.1h0.7h0.7c1,0,1.6,0,1.6-0.1c0-0.1-0.1-0.3-0.2-0.5
			c-0.2-0.2-0.3-0.3-0.4-0.3h-0.1c-0.2,0.1-0.4,0.1-0.6-0.1c-0.1-0.1-0.2-0.1-0.3-0.2c0-0.1-0.1-0.2-0.1-0.4c0-0.3,0-0.5,0-0.8
			c0-0.9,0.1-1.6,0.1-2.1v-0.8h4.9l0.1,0.4c0,0.2,0.1,0.5,0.1,0.7c0,0.5,0,1.1-0.1,1.7c-0.1,0.6-0.2,1-0.3,1
			c-0.1,0.1-0.4,0.2-0.8,0.3c-0.3,0-0.5,0.1-0.5,0.1c-0.1,0.1-0.1,0.2-0.1,0.4c0,0.3,0.1,0.5,0.3,0.5c0.3,0.1,1.3,0.1,3.1,0.1
			c1.3,0,2,0,2.1-0.1c0.2-0.1,0.3-0.2,0.3-0.4c0-0.2-0.1-0.3-0.2-0.5c-0.1-0.2-0.3-0.2-0.4-0.2c0,0-0.1,0-0.1,0
			c-0.1,0.1-0.3,0.1-0.5,0l-0.4-0.1l0.1-3.5c0-2.3,0.1-3.5,0.2-3.6c0.1,0,0.1-0.3,0.1-0.9c0.1-1.1,0.2-1.6,0.4-1.6
			c0.1,0,0.2,0,0.2-0.1c0-0.1,0.1-0.2,0.4-0.2c0.2,0,0.4-0.1,0.5-0.2c0.2-0.1,0.2-0.3,0.2-0.4C251.8,782.8,251.7,782.7,251.5,782.6z
			 M240.6,791.5c-0.2-0.1-0.3-0.1-0.3-0.2c0-0.1,0-0.1,0.1-0.1c0.2,0,0.3,0.1,0.4,0.2c0,0,0,0,0,0.1
			C240.9,791.6,240.8,791.6,240.6,791.5z M241.3,791.5c-0.1,0-0.1-0.1-0.1-0.2c0-0.1,0-0.2,0.1-0.2c0.1,0,0.2,0.1,0.2,0.2
			C241.5,791.4,241.4,791.5,241.3,791.5z M241.3,787.8c-0.1,0-0.2-0.1-0.2-0.3c0-0.3,0.1-0.4,0.2-0.4c0.2,0,0.2,0.1,0.2,0.3
			C241.5,787.7,241.4,787.8,241.3,787.8z M248.4,791.5c-0.1,0.1-0.2,0.1-0.4,0c-0.2-0.1-0.3-0.1-0.3-0.2c0-0.1,0.1-0.1,0.2-0.1
			c0.3,0,0.5,0.1,0.5,0.2C248.5,791.5,248.5,791.5,248.4,791.5z M248.8,791.5c-0.1,0-0.2-0.1-0.2-0.2c0-0.1,0.1-0.2,0.2-0.2
			c0.1,0,0.1,0.1,0.1,0.2C249,791.4,248.9,791.5,248.8,791.5z M248.8,787.8c-0.1,0-0.2-0.1-0.2-0.3c0-0.3,0.1-0.4,0.2-0.4
			c0.1,0,0.2,0.1,0.2,0.3C249,787.7,248.9,787.8,248.8,787.8z"/>
		<path d="M272.2,792.9c-0.1,0-0.1-0.1-0.2-0.4c-0.1-0.2-0.1-0.3-0.2-0.3c0,0-0.3,0.1-0.8,0.2c0,0-0.1,0-0.2,0c-0.4,0-0.7-0.6-1-1.7
			c-0.2-0.8-0.4-1.3-0.4-1.4c-0.1-0.1-0.2-0.3-0.2-0.5c-0.1-0.4-0.3-1.3-0.8-2.8c-0.5-1.5-0.7-2.4-0.8-2.7c-0.2-1-0.4-1.5-0.5-1.7
			c-0.1-0.2-0.2-0.3-0.4-0.3c-0.3-0.1-0.4,0-0.5,0.1c-0.1,0.1-0.2,0.2-0.4,0.2c-0.2,0-0.4,0.1-0.4,0.2c0,0.1-0.1,0.1-0.2,0.1
			c-0.1,0-0.2,0.2-0.4,0.6c-0.2,0.4-0.3,0.8-0.5,1.2c-0.1,0.4-0.2,0.6-0.3,0.7c-0.1,0.1-0.1,0.2-0.1,0.4c0,0.2-0.1,0.6-0.4,1.2
			c-0.3,0.6-0.5,1.1-0.5,1.5c-0.1,0.4-0.2,0.6-0.2,0.7c-0.1,0.1-0.2,0.3-0.4,0.8c-0.2,0.5-0.3,0.7-0.3,0.8c-0.1,0.2-0.2,0.4-0.2,0.5
			c0,0.2,0,0.2-0.1,0.2s-0.2,0.1-0.3,0.4c-0.1,0.2-0.2,0.4-0.2,0.6c0,0.1-0.2,0.3-0.5,0.6c-0.3,0.3-0.5,0.4-0.7,0.4
			c-0.2,0-0.3,0.1-0.5,0.4c-0.2,0.2-0.4,0.4-0.5,0.4c-0.1,0-0.2,0.1-0.4,0.4c-0.1,0.2-0.1,0.3-0.1,0.4c0,0.1,0.1,0.3,0.4,0.5
			l0.5,0.4l2-0.1c1.1,0,1.8-0.1,2.1-0.1s0.5-0.1,0.5-0.2c0,0,0-0.1-0.1-0.2c-0.1-0.2-0.1-0.3,0.1-0.3c0.1,0,0.2-0.1,0.2-0.2
			c0-0.1-0.1-0.2-0.2-0.2c-0.1,0-0.3-0.1-0.4-0.2c-0.1-0.1-0.4-0.2-0.7-0.3c-0.5-0.1-0.7-0.3-0.7-0.5c0-0.1,0-0.2,0.1-0.3
			c0.1-0.2,0.2-0.3,0.2-0.5c0-0.1,0-0.2,0.1-0.2c0.1,0,0.1-0.2,0.1-0.7v-0.7h0.6c0.4,0,0.7-0.1,0.7-0.2c0.1-0.2,0.6-0.2,1.5-0.2h0.4
			c0.7,0,1,0,1.1,0.1c0.1,0.1,0.2,0.4,0.2,0.8c0,0.5,0.1,0.8,0.3,0.9c0.2,0.2,0.3,0.4,0.3,0.6c0,0,0,0,0,0.1c0,0,0,0.1,0,0.1
			c0,0.3-0.1,0.4-0.1,0.5c-0.1,0.1-0.3,0.1-0.6,0.2c-0.5,0.1-0.7,0.2-0.8,0.3c0,0.1-0.1,0.1-0.3,0.1c-0.2,0-0.3,0.1-0.3,0.3
			c0,0.3,0,0.4,0.1,0.5c0.1,0.1,0.3,0.1,0.6,0.1c0.3,0,0.7,0,1.3-0.1c0.6-0.1,1.3-0.1,2-0.1c0.4,0,0.7,0,0.8,0c0.2,0,0.4,0,0.6,0
			c0.3,0,0.5-0.1,0.5-0.3c0.1-0.2,0.1-0.3,0.2-0.3c0.1,0,0.1-0.2,0.1-0.5C272.4,793.1,272.4,792.9,272.2,792.9z M266.1,788.4
			c0,0-0.1,0-0.2,0c-0.1,0-0.1,0-0.1,0c-0.3,0-0.5,0.1-0.6,0.2c-0.1,0.1-0.3,0.2-0.4,0.2c-0.2,0-0.3-0.1-0.4-0.2
			c-0.1-0.1-0.2-0.2-0.3-0.2c-0.1,0-0.2-0.1-0.2-0.2c0-0.1,0-0.2,0.1-0.2c0.1,0,0.2-0.1,0.3-0.4c0.1-0.3,0.2-0.5,0.2-0.7
			c0-0.2,0.1-0.3,0.2-0.4c0.1,0,0.2-0.3,0.2-0.8c0.1-0.6,0.3-0.9,0.6-0.9c0.2,0,0.3,0.1,0.5,0.2c0.1,0.1,0.2,0.2,0.4,0.5
			c0.1,0.3,0.2,0.4,0.2,0.5c0,0-0.1,0.1-0.3,0.1c-0.2,0-0.3,0.1-0.4,0.2c-0.1,0.1,0,0.2,0.1,0.2c0.1,0,0.2,0.1,0.2,0.2
			c0.1,0.1,0.2,0.3,0.2,0.4c0.1,0.2,0.1,0.2,0.2,0.3c0.1,0.1,0.1,0.3,0.2,0.6l0.1,0.5L266.1,788.4z"/>
		<path d="M285.7,781.6C285.8,781.6,285.8,781.6,285.7,781.6c0.1-0.1,0.2-0.1,0.1-0.1c0,0-0.1,0-0.3,0c-0.2,0-0.3,0.1-0.3,0.2
			C285.4,781.7,285.6,781.7,285.7,781.6z"/>
		<path d="M292.7,793.9c-0.1,0-0.2-0.1-0.3-0.4c-0.1-0.2-0.3-0.4-0.5-0.4c-0.2,0-0.4-0.1-0.6-0.2c-0.2-0.1-0.4-0.2-0.4-0.4
			c-0.1-0.1-0.1-0.2-0.3-0.2c-0.1,0-0.3-0.1-0.6-0.4s-0.4-0.6-0.6-0.9c-0.1-0.3-0.4-0.6-0.8-1.1c-0.4-0.5-0.7-0.7-0.8-0.7
			c-0.1,0-0.2-0.1-0.4-0.3c-0.1-0.1-0.2-0.2-0.1-0.3c0,0,0.1-0.1,0.3-0.2c0.8-0.3,1.2-0.6,1.2-0.9c0-0.5,0.1-0.7,0.3-0.7
			c0.1,0,0.2-0.1,0.4-0.2c0.2-0.2,0.2-0.7,0.2-1.5c0-1-0.1-1.5-0.3-1.7c-0.1-0.1-0.2-0.2-0.4-0.2c-0.1,0-0.2,0-0.2-0.1
			s-0.1-0.2-0.4-0.3c-0.3-0.1-0.4-0.3-0.5-0.5l-0.2-0.3c-0.1-0.1-0.2-0.1-0.2,0.1c0,0.1-0.3,0.1-0.8,0.1c-0.6,0-0.9,0-0.9-0.1
			c0-0.1-0.1-0.1-0.4-0.1c-0.3,0-0.5-0.1-0.6-0.3c-0.2-0.2-0.3-0.3-0.4-0.3c-0.1,0-0.2,0.1-0.1,0.3c0,0,0,0,0,0.1v0
			c0,0.1-0.6,0.2-1.8,0.2h-1.9l-0.5,0.5c-0.3,0.3-0.5,0.6-0.5,0.7c0,0.1,0.2,0.2,0.5,0.3c0.3,0.1,0.5,0.1,0.5,0.2
			c0,0.1,0,0.1,0.1,0.1c0.2,0,0.4,0.2,0.6,0.5c0.2,0.3,0.3,0.7,0.3,1.2c0,0.4,0.1,0.6,0.1,0.6c0,0.2-0.1,0.4-0.2,0.5
			c-0.2,0.1-0.2,0.2-0.1,0.3c0.1,0.1,0.2,0.3,0.2,0.7c0,0.3-0.1,0.5-0.2,0.5c-0.2,0-0.2,0,0,0.1c0.1,0.1,0.2,0.2,0.2,0.4
			s-0.1,0.4-0.2,0.5c-0.1,0.1-0.1,0.3,0.1,0.4c0.1,0.1,0.2,0.3,0.2,0.4c0,0.1-0.1,0.3-0.2,0.4c-0.2,0.2-0.3,0.7-0.3,1.6
			c0,0.7,0,1.1-0.1,1.2c0,0.1-0.1,0.2-0.3,0.3c-0.2,0.1-0.3,0.1-0.3,0.2c0,0.1-0.3,0.1-0.8,0.1c-0.4,0-0.6,0.1-0.7,0.1
			c-0.1,0.1-0.1,0.2-0.1,0.5c0,0.2,0.2,0.5,0.6,0.8c0.2,0.1,0.3,0.2,0.5,0.2c0.2,0,0.3-0.1,0.3-0.2c0.1-0.1,0.8-0.2,2.1-0.2
			c1.3,0,2.1-0.1,2.2-0.3c0.1-0.1,0.2-0.2,0.3-0.2c0.1,0,0.2-0.1,0.2-0.2c0-0.1-0.1-0.2-0.4-0.2c-0.3,0-0.4-0.1-0.5-0.3
			c0-0.2-0.2-0.3-0.5-0.4c-0.4-0.1-0.5-0.2-0.5-0.4c0-0.1,0-0.2,0.1-0.3c0.2-0.2,0.2-0.3,0.1-0.4c-0.1,0-0.2-0.6-0.2-1.6
			c0-0.3,0-0.6,0-1c0-0.3,0-0.4,0.1-0.5c0-0.1,0.1-0.1,0.2-0.1c0.5,0,1,0.2,1.5,0.5c0.5,0.4,0.8,0.7,0.8,1c0,0.2,0.1,0.3,0.2,0.3
			c0.1,0,0.2,0.1,0.2,0.4c0,0.5,0.3,0.8,0.8,1c0.2,0.1,0.4,0.3,0.5,0.7c0.1,0.4,0.3,0.8,0.7,1.2l0.6,0.7l0.9-0.1
			c0.1,0,0.3,0,0.6-0.1c0.3,0,0.6,0,0.8-0.1c0.2,0,0.4-0.1,0.7-0.1c0.3-0.1,0.4-0.1,0.6-0.2c0.1-0.1,0.2-0.2,0.2-0.3
			C292.8,794,292.8,793.9,292.7,793.9z M287.1,787.1c-0.1,0-0.2,0-0.2,0.1c-0.1,0-0.1,0,0,0.1c0.2,0,0.2,0.1,0.2,0.2
			c0,0.1-0.1,0.3-0.4,0.4c-0.2,0.2-0.5,0.3-0.7,0.3c-0.3,0-0.6,0.1-1.1,0.2c-0.1,0-0.2,0-0.3,0c-0.2,0-0.4-0.1-0.7-0.3
			c-0.2-0.2-0.3-0.3-0.4-0.3c0-0.1,0-0.1,0.1-0.2c0.1-0.1,0.2-0.7,0.2-1.6v-1.2c0-0.3,0.1-0.5,0.2-0.7c0.1-0.2,0.3-0.4,0.4-0.4h0.1
			l0.4,0.1c0.3,0,0.5,0.1,0.8,0.1c0.2,0.1,0.4,0.1,0.4,0.1c0,0.1,0.1,0.1,0.4,0.2c0.3,0.1,0.4,0.2,0.4,0.3c0,0.1,0.1,0.3,0.2,0.4
			c0.1,0.1,0.2,0.2,0.1,0.3c-0.1,0.1-0.1,0.3,0.1,0.6c0.1,0.2,0.2,0.4,0.2,0.8v0.1c0,0.2-0.1,0.4-0.1,0.4
			C287.4,787,287.3,787.1,287.1,787.1z"/>
		<path d="M304,781.9c-1,0-1.5,0-1.5,0.1c0,0.1-0.2,0.1-0.5,0.1c-0.3,0-0.5,0.1-0.5,0.2c0,0.1,0,0.2-0.1,0.2c-0.1,0-0.1,0.1-0.1,0.3
			c0,0.3,0.1,0.4,0.2,0.5c0.1,0.1,0.2,0.5,0.2,1.3c0,0.8,0,1.2,0.1,1.3c0.1,0,0.1,0.4,0.1,1.1c0,0.7,0,1-0.1,1.1
			c-0.1,0-0.2,0.8-0.2,2.2c0,1.2-0.1,2-0.2,2.2c-0.1,0.2-0.4,0.4-0.9,0.5c-0.3,0-0.5,0.1-0.5,0.1c-0.1,0.1-0.1,0.2-0.1,0.4
			c0,0.3,0.1,0.5,0.2,0.5c0.2,0,0.3,0.1,0.5,0.2c0.2,0.2,0.3,0.2,0.3,0.1c0.1-0.1,0.8-0.2,2.1-0.2c1.1,0,1.6,0.1,1.6,0.2
			c0,0.1,0.1,0.1,0.3,0.1c0.2,0,0.3,0,0.3-0.1c0-0.1,0.1-0.2,0.3-0.3c0.2-0.1,0.3-0.2,0.3-0.3c0-0.5-0.4-0.7-1-0.8l-0.6-0.1l0.1-3.5
			c0-2.3,0.1-3.5,0.2-3.6c0.1-0.1,0.1-0.4,0.1-1c0.1-1.1,0.2-1.6,0.4-1.6c0.1,0,0.2,0,0.2-0.1c0-0.1,0.1-0.2,0.4-0.2
			c0.2,0,0.4-0.1,0.5-0.2c0.1-0.1,0.2-0.2,0.2-0.4c0-0.2-0.1-0.3-0.2-0.4C305.6,782,305,781.9,304,781.9z M302.3,790.9
			c-0.1,0-0.2,0-0.2-0.1c0-0.1,0.1-0.1,0.2-0.1c0.1,0,0.2,0,0.2,0.1C302.4,790.9,302.4,790.9,302.3,790.9z M303.1,787.1
			c-0.1,0-0.2-0.1-0.2-0.3c0-0.2,0.1-0.3,0.2-0.3c0.1,0,0.2,0.1,0.2,0.3C303.3,787,303.2,787.1,303.1,787.1z"/>
		<path d="M325.5,785.2c0-0.3,0-0.5-0.1-0.5c-0.1,0-0.1-0.1-0.1-0.4c0-0.3-0.1-0.4-0.2-0.4c-0.2,0-0.3-0.1-0.4-0.4
			c-0.1-0.2-0.2-0.3-0.4-0.4c-0.1-0.1-0.2-0.2-0.2-0.4s-0.1-0.3-0.4-0.3c-0.7,0-1-0.1-1-0.4c0-0.1-0.1-0.2-0.2-0.2
			c-0.1,0-0.2-0.1-0.2-0.2c0-0.1-0.1-0.1-0.4-0.1c-0.2,0-0.3-0.1-0.4-0.2c-0.1-0.1-0.6-0.2-1.5-0.2c-1,0-1.6,0.1-1.7,0.2
			c-0.1,0.1-0.3,0.2-0.4,0.2c-0.2,0-0.3,0.1-0.4,0.4c-0.1,0.2-0.3,0.4-0.6,0.4c-0.4,0-0.8,0.1-1.2,0.2c-0.5,0.1-0.7,0.3-0.8,0.5
			c-0.1,0.3-0.3,0.5-0.5,0.8c-0.3,0.3-0.4,0.5-0.4,0.6c0,0.1-0.1,0.1-0.2,0.1c-0.1,0-0.2,0.1-0.3,0.4c-0.1,0.3-0.2,0.6-0.3,0.8
			c-0.2,0.3-0.2,0.9-0.2,1.9c0,1.3,0.1,2.3,0.4,3c0.2,0.6,0.4,1.2,0.7,1.6s0.5,0.7,0.6,0.7c0.1,0.1,0.2,0.2,0.3,0.4
			c0.1,0.2,0.2,0.3,0.4,0.3c0.3,0,0.4,0,0.4,0.1c0,0.1,0.1,0.1,0.3,0.1c0.2,0,0.3,0.1,0.3,0.4c0,0.3,0.1,0.4,0.2,0.4
			c0.1,0,0.2-0.1,0.3-0.2c0.1-0.1,0.2-0.1,0.4,0c0.2,0.1,0.9,0.2,2.3,0.2c1.2,0,1.8-0.1,1.8-0.2c0-0.1,0.3-0.2,0.8-0.2
			c0.5,0,0.7-0.1,0.7-0.2c0-0.1,0.1-0.2,0.2-0.3c0.2-0.1,0.4-0.2,0.5-0.4c0.2-0.2,0.4-0.3,0.5-0.3c0.1,0,0.2-0.1,0.3-0.4
			c0.1-0.2,0.2-0.4,0.3-0.4c0.1,0,0.2-0.1,0.3-0.3c0.1-0.2,0.2-0.3,0.4-0.4c0.2-0.1,0.3-0.1,0.3-0.2c0-0.1,0.1-0.2,0.2-0.2
			s0.2-0.2,0.2-0.7c0-0.3,0-0.5-0.1-0.5c-0.1-0.1-0.1-0.2,0-0.3c0.1-0.1,0.2-0.9,0.2-2.2c0-0.4,0-0.8,0-1.3c0-0.5-0.1-0.7-0.2-0.8
			C325.6,785.7,325.5,785.5,325.5,785.2z M323.5,789c-0.1,0.1-0.2,0.2-0.2,0.5c0,0.3-0.1,0.4-0.2,0.5c-0.1,0.1-0.2,0.4-0.3,0.8
			c-0.1,0.4-0.1,0.6-0.3,0.6c-0.1,0-0.2,0-0.2,0.1c0,0.1-0.1,0.1-0.4,0.2c-0.3,0.1-0.4,0.2-0.4,0.3c0,0.1-0.1,0.2-0.4,0.4
			c-0.2,0.1-0.4,0.2-0.4,0.3c-0.1,0.1-0.2,0.2-0.4,0.2c-0.2,0-0.4,0.1-0.5,0.2c-0.1,0.1-0.2,0.1-0.3,0.1c-0.2,0-0.5,0-0.8-0.1
			c-0.6-0.1-1-0.3-1.4-0.7c-0.4-0.3-0.7-0.8-1.1-1.6c-0.3-0.6-0.4-1-0.5-1.2c-0.1-0.2-0.1-0.7-0.1-1.5c0-0.7,0-1.2,0.1-1.4
			c0-0.2,0.2-0.5,0.3-0.9c0.3-0.5,0.6-1,1.1-1.4c0.4-0.4,0.8-0.7,1.1-0.7c0.3-0.1,0.5-0.2,0.5-0.3s0.1-0.2,0.2-0.2
			c0.1,0,0.2,0,0.2-0.1c0-0.1,0.1-0.2,0.3-0.2c0.2,0,0.3,0.1,0.4,0.2c0.1,0.1,0.4,0.1,0.9,0.1c0.5,0,0.8,0.1,0.8,0.2
			c0,0.1,0.1,0.2,0.3,0.3c0.2,0.1,0.3,0.2,0.3,0.3c0,0.1,0.1,0.2,0.3,0.3c0.2,0.1,0.4,0.2,0.4,0.3c0.1,0.1,0.1,0.3,0.1,0.5
			c0,0.3,0.1,0.6,0.3,0.9c0.2,0.3,0.3,0.7,0.3,1.2c0,0.5,0,0.8,0.1,0.8c0.1,0.1,0.1,0.2,0.1,0.4C323.7,788.7,323.6,788.9,323.5,789z
			"/>
		<path d="M327.3,791.9c-0.4,0-0.7,0-0.7,0.1c0,0-0.1,0.1-0.1,0.1c0,0.2,0.3,0.2,0.8,0.2c0.4,0,0.6-0.1,0.6-0.2
			C327.9,792,327.7,791.9,327.3,791.9z"/>
		<path d="M347.3,784.1c0.1,0,0.2-0.2,0.2-0.5c0-0.3-0.1-0.4-0.2-0.4c-0.1,0-0.1-0.1-0.1-0.3c0-0.2,0.1-0.4,0.2-0.7
			c0.1-0.3,0-0.5-0.2-0.7c-0.2-0.2-0.5-0.3-0.9-0.3c-0.4,0-0.8,0.1-1.1,0.4c-0.3,0.2-0.5,0.3-0.6,0.2c-0.1-0.1-0.1-0.1-0.3-0.1
			c-0.1,0-0.2,0-0.6,0.1c-0.4,0.1-1.3,0.2-2.7,0.2c-1,0-1.5,0-1.6-0.1c-0.1-0.1-0.2,0-0.4,0.2c-0.1,0.1-0.3,0.2-0.4,0.2
			c-0.1,0-0.3,0-0.8-0.1c-0.8-0.2-1.2-0.3-1.3-0.3c0,0-0.1,0-0.3,0.1c-0.1,0-0.3,0.1-0.4,0.3c-0.1,0.2-0.2,0.4-0.2,0.5
			c0,0,0,0.1,0.1,0.2c0.1,0.1,0.1,0.2,0.2,0.5c0,0.1,0,0.2-0.1,0.3c-0.1,0-0.2,0.1-0.4,0.1c-0.1,0-0.3,0-0.4,0.1
			c-0.1,0.1-0.2,0.2-0.2,0.2c0,0.1,0,0.1,0.1,0.2c0.1,0.1,0.1,0.3,0.1,0.7c0,0.3-0.1,0.5-0.1,0.5c0,0.5,0.2,0.8,0.6,0.8
			c0.3,0,0.4-0.1,0.4-0.2c0-0.1,0.1-0.2,0.2-0.2c0.3,0,0.3-0.2,0-0.5c-0.1-0.1-0.2-0.2-0.2-0.3c0,0,0.1-0.1,0.3-0.1
			c0.2-0.1,0.3-0.2,0.2-0.4c-0.1-0.2,0-0.4,0-0.6c0.1-0.1,0.1-0.3,0-0.6c-0.1-0.3-0.1-0.4,0-0.4c0.1,0,0.1,0.1,0.1,0.2
			c0,0.1,0.2,0.3,0.6,0.4c0.4,0.1,0.8,0.2,1.1,0.2c0.4,0,0.7,0.1,0.9,0.3c0.2,0.2,0.4,0.2,0.5,0.2c0.1,0,0.2,0,0.2,0
			c0,0,0,0.1-0.1,0.1c-0.3,0.4-0.4,2.4-0.5,6.1c0,0.8-0.1,1.2-0.3,1.4c-0.2,0.2-0.3,0.3-0.3,0.5c0,0.1-0.3,0.2-0.8,0.2l-0.8,0.1
			l-0.1,0.6c0,0,0,0.1,0,0.1c0,0.1,0,0.1,0,0.1c0,0.2,0.2,0.5,0.5,0.8c0.3,0.3,0.6,0.4,0.7,0.4c0.1,0,0.2,0,0.2-0.1
			c0-0.1-0.1-0.1-0.2-0.1c-0.1,0-0.1,0-0.1-0.1c0-0.1,0.2-0.1,0.5-0.1c0.1,0,0.4,0,0.9,0c0.4,0,0.8,0,1,0c0.5,0,0.9,0,1-0.1
			c0.1-0.1,0.3-0.2,0.6-0.1c0.2,0,0.3,0,0.4-0.1c0.1-0.1,0.2-0.1,0.3-0.1c0.1,0,0.3-0.1,0.5-0.3c0.1-0.1,0.2-0.2,0.2-0.3
			c0-0.1-0.1-0.2-0.2-0.5c-0.2-0.3-0.3-0.5-0.5-0.5c-0.1,0-0.2-0.1-0.2-0.2c0-0.1-0.1-0.2-0.3-0.1c0,0-0.1,0-0.1,0
			c-0.1,0-0.1,0-0.1,0c-0.1,0-0.2,0-0.3-0.1c0-0.1-0.1-0.3-0.1-0.5v-0.5c0-0.5,0-0.8,0-0.9c0-0.1,0.1-0.2,0.2-0.2
			c0.2,0,0.2-0.1,0.2-0.4c0-0.3-0.1-0.5-0.2-0.5c-0.1,0-0.2-0.4-0.2-1.1c0-0.8,0.1-1.3,0.2-1.4c0.1-0.1,0.2-0.6,0.2-1.2
			c0-0.7,0.1-1.1,0.1-1.2c0.1-0.2,0.5-0.2,1.2-0.2c1.1,0,1.7,0.1,1.8,0.4c0,0.1,0.1,0.2,0.4,0.5c0.2,0.2,0.3,0.5,0.4,0.8
			c0,0.3,0.1,0.5,0.1,0.5c0.1,0.1,0.2,0.1,0.4,0.1c0.3,0,0.4,0,0.4-0.1c0-0.1,0.1-0.2,0.3-0.3c0.2-0.1,0.3-0.2,0.3-0.4
			s-0.1-0.4-0.3-0.6C347.2,784.2,347.1,784.1,347.3,784.1z"/>
	</g>
	<g>
		<g>
			<circle cx="252" cy="431.9" r="50.2"/>
		</g>
		<g>
			<path d="M162.8,388c-8-5-17.5-7.9-27.6-7.9c-28.7,0-51.9,23.2-51.9,51.9c0,28.7,23.2,51.9,51.9,51.9c10.1,0,19.6-2.9,27.6-7.9
				c-14.6-9.2-24.3-25.4-24.3-43.9C138.5,413.4,148.2,397.1,162.8,388z M115.2,424.3c0.6-0.5,1.2-1,1.7-1.6c1-1.6,1.7-3,3.3-3.9
				c0.9-0.6,1.9-0.7,2.9-1c0.9-0.3,1.7-0.7,2.6-1c-0.6,0.8-1,1.8-1.6,2.6c-0.6,0.9-1.5,1.6-2.4,2.2c-0.9,0.6-1.3,0.8-2.3,1.2
				c-0.5,0.2-1.3,0-2,0.2c-0.1,0-0.3,0.3-0.3,0.3c-0.1,0.1-0.3,0.2-0.4,0.4c-0.3,0.2-0.5,0.4-0.8,0.6c-0.5,0.4-1.1,0.9-1.7,1.1
				c-0.1,0-0.2,0.1-0.3,0.1c-0.4,0.2-0.7,0.6-1,1c-0.3,0.4-0.6,0.8-0.8,1.2c-0.6,1-1,2.1-1.4,3.2c-0.3,0.8-0.7,1.6-0.9,2.4
				c0.3,1,0.7,1.9,1.3,2.7c0.3,0.4,0.6,0.7,0.9,1.1c0-0.2-0.1-0.4-0.1-0.6c-0.1-0.3-0.3-0.6-0.4-0.9c-0.4-1.4,0.3-3.3,1.4-4.3
				c0.3,1,0.6,2.6,0.3,3.7c-0.2,0.8-0.5,1.7-0.9,2.4c0.4,0.4,0.7,0.8,1,1.2c0.5,0.7,1,1.9,1.4,3c1-0.6,2-1.1,2.9-1.7
				c0.9-0.6,1.6-1.6,2.1-2.6c0.1-0.2,0.3-0.5,0.4-0.7c-0.5-0.4-1-0.9-1.4-1.5c-0.6-0.8-0.9-2.1-1-3.1c1,0.3,1.7,1.1,2.2,1.9
				c0.3,0.4,0.6,1,0.7,1.6c0.3-0.7,0.6-1.5,0.8-2.2c0,0,0-0.1,0-0.1c0-0.7,0-1.4,0.2-2.1c0.3-1,0.8-2,1.5-2.8c0.5-0.5,1-0.9,1.4-1.5
				c0.5-0.7,0.7-1.7,1.4-2.2c0,0.7,0.4,1.5,0.5,2.2c0.3,1.2,0.5,2.5-0.1,3.6c-0.3,0.6-0.8,1-1.3,1.4c-1,0.7-2.1,1.4-3.2,2
				c-0.4,1.2-0.9,2.4-1.4,3.5c0,0.1-0.1,0.2-0.1,0.3c0.4-0.3,0.8-0.6,1.2-0.9c0.2-0.2,0.4-0.3,0.6-0.5c1.2-0.9,2.9-1.4,4.3-1.4
				c0.2,1.4-1.8,3.4-2.8,4c-0.3,0.2-0.6,0.3-1,0.4c-0.6,0.1-1.2,0-1.8-0.3c-0.4-0.2-0.7-0.5-1-0.5c-0.4,0.6-1,1.2-1.5,1.7
				c-0.9,0.8-2.2,1.3-3.2,2c-0.1,0-0.1,0-0.2,0c0.4,1.3,0.7,2.5,0.7,2.5c0,0.2,0.8,5.9,1.1,8.7c1.5,1,2.8,2.4,4.2,3.6
				c1.4,1.3,2.7,2.8,4.3,4c1.5,1.2,3,2.4,4.2,3.8c0-0.1,0-0.1,0-0.2c-0.1-0.9-0.1-1.9-0.2-2.8c0,0,0,0,0-0.1
				c-0.3-0.8-0.6-1.5-0.9-2.3c-0.3-0.7-0.8-1.5-1.4-1.9c-0.2,0-0.5-0.1-0.8-0.2c-0.6-0.2-1.1-0.5-1.7-0.6c-1.3-0.3-1.8-1-2.9-1.9
				c-1-0.7-1.5-0.8-2.2-1.8c-0.9-1.3-1.5-2.6-1.5-4.1c0-0.9-0.5-3.2,0-3.9c0.6,0.6,0.8,1,1.5,1.3c0.6,0.3,1.3,0.7,1.7,1.1
				c1.1,1,1.9,2.5,2.4,3.8c0.7,1.6,1.5,3,2.5,4.4c0.6,0.9,0.7,0.9,1,1.2c0,0,0.1,0,0.1,0c0.9,0.6,1.5,1.6,2,2.6
				c-0.1-0.6-0.2-1.2-0.3-1.8c-0.3-1.2-0.5-2.4-0.9-3.6c-0.4-1.1-0.9-2.1-1.1-3.2c-0.2-0.3-0.3-0.7-0.5-1c-0.4-0.9-0.7-2-1-3
				c-0.3-1.3-0.3-2.5,0.2-3.7c0.4-1,1-2.8,1.4-3.8c0.1,0.6,0.6,1.9,1,2.4c0.4,0.6,0.7,1.2,0.9,2c0.3,1.3,0.2,2.6-0.1,3.9
				c-0.4,1.5-1.1,2.1-1.3,3.1c0.2,0.9,0.6,1.8,0.9,2.7c0.3,0.8,0.6,1.7,0.8,2.6c0.2-1.7,1.2-3.7,2.8-4.2c0,1.2-0.2,2-0.8,3
				c-0.4,0.8-1.3,1.3-1.8,2c0.2,1,0.4,2,0.6,3c0.2,1.1,0.1,2.2,0.2,3.3c0.1,1.1,0.3,2.2,0.6,3.2c0.3,0.8,0.5,1.7,1,2.4
				c0.1,0.1,0.2,0.3,0.3,0.4c0.6,0.9,1.5,1.8,2.2,2.5c0.9,0.9,1.7,1.9,2.3,3c-0.1,0.2-0.2,0.4-0.4,0.6c0,0,0,0,0,0
				c0.5-0.9,0.2-0.5,0-0.1c-0.6-1.1-1.4-2-2.2-2.9c-0.8-0.8-1.6-1.7-2.3-2.7c-1.5-1.1-3.3-1.5-4.9-2.5c-0.2-0.2-0.5-0.3-0.7-0.5
				c0,0-0.4-0.3-0.3-0.2c-0.4-0.3-0.8-0.7-1.1-1.1c-0.7-0.7-1.3-1.4-1.9-2.2c-0.5-0.2-1-0.3-1.3-0.5c-0.7-0.4-1.1-0.6-1.7-1.1
				c-0.6-0.6-1.3-1.1-1.6-1.9c-0.3-0.7-0.6-1.5-1-2.2c0.6,0.3,1.2,0.7,1.9,1c0.8,0.4,1.5,0.6,2.2,1.1c1.2,0.9,1.6,2.1,2.2,3.4
				c0.4,0.5,0.8,1,1.2,1.4l0.8,0.8c0.6,0.6,1.3,1.2,2,1.7c1.1,0.7,2.4,1.1,3.6,1.7c-0.2-0.3-0.3-0.7-0.4-1c-0.2-0.6-0.4-1.1-0.6-1.7
				c-1.1-1.4-2.5-2.6-3.8-3.6c-1.1-0.9-2.7-2-3.8-3.2c-0.3-0.4-1.1-1-1.5-1.4c-0.6-0.6-1.2-1-1.8-1.6c-0.6-0.6-1-1.2-1.6-1.7
				c-2.1-1.6-4.8-2-7-3.5c-0.2-0.2-0.5-0.3-0.7-0.5c-1.1,1.4-3.1,2.1-4.9,2c-1.9-0.2-3.8-1.2-5.2-2.5c0.8,0.2,1.7-0.1,2.5-0.2
				c1.9-0.4,3.9-0.3,5.8,0c0.5,0.1,1,0.3,1.4,0.4c-1.8-1.4-3.3-3.2-5.1-4.4c-1.3-0.3-2.2,0.3-4.1,0.1c-1.5-0.1-2.9-0.6-4.3-1.5
				c-0.7-0.5-1.3-1-1.8-1.8c-0.4-0.6-1.6-1.7-2.2-2c1.2-0.1,3.4,0.1,4.7,0c1.5-0.1,2.8,0.4,4.1,1.3c1,0.7,2,1.4,2.9,2.3
				c0.3,0.4,0.7,0.7,1.1,1.1c2,1.3,3.5,3.1,5.4,4.6c0.9,0.7,2,1.3,3,1.7c-1.1-1-2-2.1-2.3-3.6c-0.3-0.6-0.2-0.7-1-1.7
				c-0.7-0.9-1.2-1.4-2.2-2c-1.3-0.8-2.6-1.6-3.4-2.9c-0.4-0.7-0.5-1.3-0.8-2c-0.4-0.9-0.9-1.5-1.1-2.5c1.5,0.6,2.9,1.2,4.4,1.8
				c1.3,0.6,3.1,1.6,4.1,2.7c1.3,1.6,1.1,3.9,0.9,5.8c0,0.4-0.1,0.7-0.1,1c0.5,2,2.4,3.4,4,4.3c0,0,0,0,0.1,0
				c0.3,0.1,0.6,0.3,0.8,0.4c-0.2-1.6-0.3-3.3-0.5-4.9c-0.1,0-0.1-0.7-0.1-0.7c-0.1-0.9-0.5-5.3-3.5-9.6c-0.6-0.9-1.4-1.7-2-2.6
				c-0.6-1.1-0.9-2.3-1.1-3.5c-0.1-0.6-0.1-1.1-0.1-1.7c0,0,0-0.1,0-0.1c-0.2-2-0.8-4.4-2.4-5.7c-0.4-0.1-0.7-0.2-1.1-0.3
				c-0.7-0.2-1.3-0.6-2.1-0.8c-2.9-0.7-5.7-2.1-6.7-5.1c-0.5-1.5-0.6-3.2-0.7-4.8c0-1.3-0.4-3.2,0-4.4c0.1,0,0.2,0,0.2,0.1
				c0.7,0.3,0.9,1.3,1.4,1.7c1.5,1.4,3.7,1.6,5.1,3.2c1.2,1.3,1.5,3.2,1.7,4.9c0.2,1.2,0.3,2,1,3c0.7,1.2,0.9,1.1,1.3,1.7
				c1.3,0.9,2,2.2,2.5,3.7c0-1.2,0-2.5-0.3-3.6c-0.6-2.4-1.7-4.6-2.1-7.1c-0.2-0.5-0.4-1-0.6-1.5c-0.5-1.2-0.7-2.4-1-3.7
				c-0.3-1.6-0.2-3.1,0.6-4.5c0.6-1.2,1.4-3.4,2-4.6c0.1,0.7,0.7,2.4,1,2.9c0.5,0.8,0.8,1.5,0.9,2.5c0.2,1.6,0.1,3.2-0.5,4.7
				c-0.7,1.9-1.6,2.6-1.9,4c0.1,0.6,0.8,3,0.8,3c0.4,1.3,0.9,2.5,1.2,3.8c0.1-0.5,0.1-1,0.2-1.6c0.5-2,1.3-4,2.5-5.7
				c0.5-0.7,1.1-1.5,1.3-2.4c0.7,2,0.8,4.2,0.2,6.1c-0.7,1.9-2.2,3.5-4.1,4c0.1,0.3,0.1,0.6,0.2,0.9c0.4,2.7-0.3,5.4,0.3,8.1
				c0-0.1,0.1-0.2,0.1-0.3c0.3-0.7,0.5-1.5,0.8-2.2c0.1-0.4,0.2-0.7,0.3-1c0.1-0.3,0.3-0.6,0.5-0.9c0.7-1,1.3-2.2,2.1-3.2
				c0.7-0.9,1.5-1.9,1.8-3c0.9-2.7,0.9-5.6,1.8-8.2c0.1-0.3,0.3-0.7,0.4-1c-2.1-1.1-3.5-3.4-3.8-5.7c-0.3-2.4,0.4-4.9,1.6-7
				c0,1.1,0.5,2.1,1,3.1c1,2.3,1.5,4.7,1.6,7.2c0,0.7-0.1,1.3-0.1,1.9c1.2-2.5,3-4.7,4-7.4c0-1.6-1-2.7-1.3-5.1
				c-0.3-1.9-0.1-3.8,0.6-5.6c0.4-1,0.9-1.9,1.7-2.6c0.6-0.6,1.6-2.4,1.9-3.1c0.4,1.5,0.8,4.3,1.3,5.8c0.5,1.9,0.3,3.6-0.4,5.4
				c-0.6,1.4-1.2,2.8-2,4c-0.3,0.5-0.7,1-1.1,1.6c-1.1,2.7-2.9,5-4.2,7.7c-0.6,1.3-1,2.7-1.3,4.1c0.9-1.6,2.1-2.9,3.8-3.6
				c0.6-0.5,0.8-0.4,1.9-1.6c1-1,1.3-1.8,1.8-3.2c0.7-2,1.5-4,3.2-5.3c1.1-0.8,2.4-1.1,3.7-1.4c0.9-0.2,2.2-0.5,3.2-0.3
				c0.3,0.1,2.4,0.9,2.5,0.7c-1.9,2.2-3.2,4.9-5.1,7c-1.9,2.1-4.5,3.6-7.3,4.4c-0.9,0.2-1.7,0.4-2.6,0.5c-0.5,0-0.9,0.1-1.3,0.1
				c-1,0.5-1.9,1.3-2.5,2.2c-0.6,0.9-1.3,1.9-1.6,3c-0.3,1.1-0.6,2.3-1,3.3c-0.1,0.2-0.2,0.5-0.3,0.7c-0.3,0.5-0.6,0.9-0.9,1.4
				C114.7,424.7,114.9,424.5,115.2,424.3z"/>
		</g>
		<g>
			<path d="M341.2,475.8c8,5,17.5,7.9,27.6,7.9c28.7,0,51.9-23.2,51.9-51.9c0-28.7-23.2-51.9-51.9-51.9c-10.1,0-19.6,2.9-27.6,7.9
				c14.6,9.2,24.3,25.4,24.3,43.9C365.5,450.4,355.8,466.6,341.2,475.8z M369.4,401.5c0.9-0.3,2.2,0.1,3.2,0.3
				c1.3,0.3,2.6,0.6,3.7,1.4c1.7,1.2,2.5,3.3,3.2,5.3c0.5,1.4,0.9,2.2,1.8,3.2c1.1,1.2,1.3,1.1,1.9,1.6c1.7,0.7,2.9,2,3.8,3.6
				c-0.2-1.4-0.6-2.8-1.3-4.1c-1.3-2.6-3.1-4.9-4.2-7.7c-0.3-0.5-0.7-1.1-1.1-1.6c-0.8-1.2-1.4-2.6-2-4c-0.7-1.8-0.9-3.5-0.4-5.4
				c0.4-1.6,0.8-4.3,1.3-5.8c0.3,0.8,1.3,2.6,1.9,3.1c0.8,0.7,1.3,1.6,1.7,2.6c0.7,1.8,0.9,3.7,0.6,5.6c-0.3,2.4-1.3,3.4-1.3,5.1
				c1,2.6,2.8,4.9,4,7.4c0-0.6-0.1-1.2-0.1-1.9c0.1-2.5,0.6-4.9,1.6-7.2c0.4-1,0.9-2,1-3.1c1.2,2.1,2,4.6,1.6,7
				c-0.3,2.3-1.7,4.6-3.8,5.7c0.1,0.3,0.3,0.7,0.4,1c1,2.7,0.9,5.5,1.8,8.2c0.4,1.1,1.1,2.1,1.8,3c0.8,1,1.4,2.1,2.1,3.2
				c0.2,0.3,0.4,0.6,0.5,0.9c0.1,0.3,0.2,0.7,0.3,1c0.2,0.7,0.5,1.5,0.8,2.2c0,0.1,0.1,0.2,0.1,0.3c0.6-2.7-0.1-5.4,0.3-8.1
				c0-0.3,0.1-0.6,0.2-0.9c-1.9-0.5-3.4-2.1-4.1-4c-0.7-2-0.5-4.2,0.2-6.1c0.2,0.9,0.8,1.6,1.3,2.4c1.2,1.7,2,3.6,2.5,5.7
				c0.1,0.6,0.1,1.1,0.2,1.6c0.3-1.3,0.8-2.5,1.2-3.8c0,0,0.7-2.4,0.8-3c-0.3-1.4-1.2-2-1.9-4c-0.5-1.5-0.7-3.1-0.5-4.7
				c0.1-0.9,0.4-1.7,0.9-2.5c0.4-0.6,0.9-2.3,1-2.9c0.6,1.2,1.4,3.4,2,4.6c0.7,1.5,0.9,2.9,0.6,4.5c-0.2,1.3-0.5,2.5-1,3.7
				c-0.2,0.5-0.4,1-0.6,1.5c-0.4,2.4-1.5,4.7-2.1,7.1c-0.3,1.2-0.4,2.4-0.3,3.6c0.4-1.5,1.2-2.8,2.5-3.7c0.4-0.6,0.5-0.5,1.3-1.7
				c0.6-1,0.8-1.8,1-3c0.3-1.8,0.6-3.6,1.7-4.9c1.4-1.6,3.6-1.8,5.1-3.2c0.5-0.5,0.8-1.5,1.4-1.7c0.1,0,0.2-0.1,0.2-0.1
				c0.4,1.2,0,3.1,0,4.4c-0.1,1.6-0.1,3.3-0.7,4.8c-1,3-3.9,4.3-6.7,5.1c-0.8,0.2-1.4,0.6-2.1,0.8c-0.4,0.1-0.7,0.2-1.1,0.3
				c-1.7,1.3-2.3,3.7-2.4,5.7c0,0,0,0.1,0,0.1c0,0.6,0,1.1-0.1,1.7c-0.2,1.2-0.5,2.4-1.1,3.5c-0.5,1-1.3,1.7-2,2.6
				c-3,4.3-3.4,8.7-3.5,9.6c0,0,0,0.7-0.1,0.7c-0.2,1.6-0.4,3.3-0.5,4.9c0.3-0.1,0.5-0.3,0.8-0.4c0,0,0,0,0.1,0
				c1.7-0.9,3.5-2.4,4-4.3c-0.1-0.3-0.1-0.7-0.1-1c-0.1-2-0.4-4.2,0.9-5.8c0.9-1.1,2.7-2.2,4.1-2.7c1.5-0.6,2.9-1.2,4.4-1.8
				c-0.2,1-0.8,1.6-1.1,2.5c-0.3,0.7-0.4,1.4-0.8,2c-0.8,1.3-2.1,2.1-3.4,2.9c-1,0.6-1.6,1.1-2.2,2c-0.7,1.1-0.7,1.2-1,1.7
				c-0.3,1.4-1.2,2.6-2.3,3.6c1.1-0.4,2.1-1,3-1.7c1.9-1.5,3.4-3.3,5.4-4.6c0.4-0.4,0.7-0.8,1.1-1.1c0.8-0.9,1.8-1.6,2.9-2.3
				c1.3-0.9,2.6-1.3,4.1-1.3c1.3,0.1,3.5-0.1,4.7,0c-0.5,0.4-1.8,1.5-2.2,2c-0.5,0.7-1,1.3-1.8,1.8c-1.3,0.9-2.7,1.3-4.3,1.5
				c-1.9,0.2-2.8-0.4-4.1-0.1c-1.9,1.3-3.4,3-5.1,4.4c0.5-0.1,0.9-0.3,1.4-0.4c1.9-0.4,3.9-0.4,5.8,0c0.8,0.2,1.7,0.4,2.5,0.2
				c-1.5,1.3-3.3,2.4-5.2,2.5c-1.9,0.2-3.8-0.5-4.9-2c-0.2,0.2-0.5,0.3-0.7,0.5c-2.2,1.4-4.9,1.8-7,3.5c-0.6,0.5-1,1.1-1.6,1.7
				c-0.6,0.6-1.2,1-1.8,1.6c-0.4,0.4-1.2,1-1.5,1.4c-1.1,1.3-2.7,2.4-3.8,3.2c-1.3,1-2.7,2.3-3.8,3.6c-0.2,0.6-0.4,1.1-0.6,1.7
				c-0.1,0.3-0.3,0.7-0.4,1c1.2-0.6,2.4-1,3.6-1.7c0.8-0.5,1.4-1,2-1.7l0.8-0.8c0.4-0.5,0.8-0.9,1.2-1.4c0.6-1.3,1-2.5,2.2-3.4
				c0.7-0.5,1.4-0.8,2.2-1.1c0.7-0.3,1.3-0.7,1.9-1c-0.4,0.7-0.6,1.5-1,2.2c-0.4,0.8-1,1.4-1.6,1.9c-0.6,0.5-1,0.8-1.7,1.1
				c-0.3,0.2-0.8,0.3-1.3,0.5c-0.6,0.8-1.2,1.5-1.9,2.2c-0.4,0.4-0.7,0.8-1.1,1.1c0.1,0-0.3,0.3-0.3,0.2c-0.2,0.2-0.5,0.3-0.7,0.5
				c-1.6,1-3.4,1.4-4.9,2.5c-0.7,0.9-1.6,1.8-2.3,2.7c-0.9,0.9-1.6,1.9-2.2,2.9c-0.3-0.4-0.5-0.8,0,0.1c0,0,0,0,0,0
				c-0.1-0.2-0.2-0.4-0.4-0.6c0.7-1.1,1.5-2,2.3-3c0.7-0.8,1.6-1.7,2.2-2.5c0.1-0.1,0.2-0.3,0.3-0.4c0.5-0.7,0.7-1.6,1-2.4
				c0.4-1.1,0.6-2.1,0.6-3.2c0.1-1.1,0-2.2,0.2-3.3c0.1-1,0.3-2,0.6-3c-0.5-0.7-1.4-1.3-1.8-2c-0.6-1-0.8-1.8-0.8-3
				c1.6,0.5,2.6,2.5,2.8,4.2c0.2-0.9,0.5-1.7,0.8-2.6c0.3-0.9,0.7-1.8,0.9-2.7c-0.2-1-0.9-1.6-1.3-3.1c-0.4-1.3-0.4-2.5-0.1-3.9
				c0.2-0.7,0.4-1.4,0.9-2c0.3-0.5,0.8-1.8,1-2.4c0.4,1,1,2.8,1.4,3.8c0.5,1.2,0.6,2.4,0.2,3.7c-0.2,1-0.5,2.1-1,3
				c-0.1,0.3-0.3,0.7-0.5,1c-0.2,1.1-0.7,2.1-1.1,3.2c-0.4,1.2-0.7,2.4-0.9,3.6c-0.1,0.6-0.2,1.2-0.3,1.8c0.5-1,1-2,2-2.6
				c0,0,0.1,0,0.1,0c0.3-0.4,0.4-0.4,1-1.2c1-1.4,1.8-2.8,2.5-4.4c0.6-1.4,1.3-2.8,2.4-3.8c0.5-0.5,1.1-0.8,1.7-1.1
				c0.7-0.3,1-0.7,1.5-1.3c0.6,0.7,0,3,0,3.9c0,1.5-0.6,2.8-1.5,4.1c-0.7,1-1.2,1.1-2.2,1.8c-1.1,0.8-1.6,1.6-2.9,1.9
				c-0.6,0.1-1.1,0.4-1.7,0.6c-0.3,0.1-0.5,0.1-0.8,0.2c-0.6,0.5-1.1,1.2-1.4,1.9c-0.4,0.7-0.7,1.5-0.9,2.3c0,0,0,0,0,0.1
				c0,0.9,0,1.9-0.2,2.8c0,0.1,0,0.1,0,0.2c1.2-1.4,2.7-2.7,4.2-3.8c1.6-1.2,2.9-2.7,4.3-4c1.3-1.2,2.6-2.6,4.2-3.6
				c0.3-2.8,1.1-8.6,1.1-8.7c0,0,0.2-1.2,0.7-2.5c-0.1,0-0.1,0-0.2,0c-1.1-0.7-2.3-1.1-3.2-2c-0.6-0.5-1.1-1.1-1.5-1.7
				c-0.3,0-0.6,0.3-1,0.5c-0.6,0.3-1.2,0.4-1.8,0.3c-0.3-0.1-0.7-0.2-1-0.4c-1.1-0.6-3-2.6-2.8-4c1.4,0,3.2,0.5,4.3,1.4
				c0.2,0.1,0.4,0.3,0.6,0.5c0.3,0.3,0.8,0.6,1.2,0.9c0-0.1-0.1-0.2-0.1-0.3c-0.6-1.1-1.1-2.3-1.4-3.5c-1.1-0.6-2.2-1.2-3.2-2
				c-0.5-0.4-1-0.8-1.3-1.4c-0.6-1.1-0.3-2.4-0.1-3.6c0.1-0.7,0.5-1.5,0.5-2.2c0.7,0.5,0.9,1.5,1.4,2.2c0.4,0.6,0.9,1,1.4,1.5
				c0.7,0.8,1.2,1.8,1.5,2.8c0.2,0.7,0.1,1.4,0.2,2.1c0,0,0,0,0,0.1c0.2,0.7,0.5,1.5,0.8,2.2c0.1-0.6,0.4-1.2,0.7-1.6
				c0.5-0.8,1.3-1.6,2.2-1.9c-0.1,0.9-0.4,2.3-1,3.1c-0.4,0.5-0.9,1-1.4,1.5c0.1,0.3,0.3,0.5,0.4,0.7c0.5,0.9,1.2,1.9,2.1,2.6
				c0.9,0.7,2,1.1,2.9,1.7c0.4-1.1,0.9-2.3,1.4-3c0.3-0.4,0.6-0.8,1-1.2c-0.4-0.8-0.7-1.6-0.9-2.4c-0.3-1,0-2.7,0.3-3.7
				c1.1,1,1.8,2.9,1.4,4.3c-0.1,0.3-0.3,0.6-0.4,0.9c-0.1,0.2-0.1,0.4-0.1,0.6c0.3-0.3,0.6-0.7,0.9-1.1c0.6-0.8,1-1.7,1.3-2.7
				c-0.2-0.8-0.6-1.6-0.9-2.4c-0.4-1.1-0.8-2.2-1.4-3.2c-0.3-0.4-0.5-0.8-0.8-1.2c-0.3-0.3-0.6-0.8-1-1c-0.1,0-0.2-0.1-0.3-0.1
				c-0.6-0.2-1.2-0.7-1.7-1.1c-0.3-0.2-0.6-0.4-0.8-0.6c-0.1-0.1-0.3-0.2-0.4-0.4c-0.1-0.1-0.2-0.3-0.3-0.3c-0.7-0.2-1.5,0-2-0.2
				c-1-0.4-1.4-0.6-2.3-1.2c-0.9-0.6-1.8-1.2-2.4-2.2c-0.5-0.9-1-1.8-1.6-2.6c0.8,0.3,1.7,0.7,2.6,1c1,0.3,2,0.5,2.9,1
				c1.7,1,2.4,2.4,3.3,3.9c0.5,0.6,1.1,1.1,1.7,1.6c0.3,0.2,0.5,0.4,0.9,0.5c-0.3-0.4-0.7-0.9-0.9-1.4c-0.1-0.2-0.2-0.5-0.3-0.7
				c-0.5-1-0.7-2.2-1-3.3c-0.3-1.1-0.9-2.1-1.6-3c-0.6-0.9-1.5-1.8-2.5-2.2c-0.4,0-0.9,0-1.3-0.1c-0.9-0.1-1.8-0.3-2.6-0.5
				c-2.8-0.8-5.3-2.2-7.3-4.4c-2-2.1-3.3-4.8-5.1-7C367.1,402.5,369.1,401.6,369.4,401.5z"/>
		</g>
		<g>
			<path d="M92.3,346.1c2.8,0.5,5.7,0.7,8.7,0.7c29.1,0,52.8-23.6,52.8-52.8c0-29.1-23.6-52.8-52.8-52.8c-3,0-5.9,0.3-8.7,0.7
				c25,4.2,44.1,25.9,44.1,52.1C136.4,320.2,117.3,341.9,92.3,346.1z"/>
		</g>
		<g>
			<path d="M215,342.4c6.5,2.9,13.7,4.5,21.2,4.5c29.1,0,52.8-23.6,52.8-52.8s-23.6-52.8-52.8-52.8c-7.6,0-14.7,1.6-21.2,4.5
				c22.9,4.2,40.3,24.2,40.3,48.3S237.9,338.2,215,342.4z M243.9,336.4c1.3-2.4,4.4-7.5,4.5-7.6c0-0.1,2.6-3.6,4.4-4.7
				c0.4-0.3,0.9-0.5,1.4-0.7c-0.1-0.9,0-1.8,0.1-2.6c0.2-1.1,1-2.4,1.7-3.2c0.7,1.3,0.5,3.3-0.4,4.5c-0.2,0.2-0.5,0.4-0.7,0.6
				c-0.1,0.2-0.2,0.4-0.3,0.5c0.4-0.2,0.8-0.4,1.2-0.6c1.1-0.6,2-1.5,2.7-2.5c1.7-2.2,2.1-5,3.5-7.4c0.2-0.3,0.3-0.5,0.5-0.8
				c-1.5-1.2-2.3-3.3-2.2-5.3c0.1-2.1,1.2-4,2.5-5.5c-0.2,0.9,0.1,1.8,0.3,2.7c0.4,2,0.4,4.1,0.1,6.2c-0.1,0.6-0.3,1-0.4,1.5
				c0.8-1,1.7-2,2.6-3c0,0,0-0.1,0-0.1c0.3-1.8,0.2-3.4,0-5.2c-0.2-1.2-0.4-2.5-0.4-3.7c-0.6-1.8-2-3.3-2.8-5.1
				c-0.1-0.3-0.2-0.6-0.3-0.9c0,0-0.2-0.5-0.1-0.4c-0.1-0.5-0.2-1.1-0.3-1.6c-0.2-1-0.3-2-0.3-3c-0.3-0.5-0.7-0.9-0.9-1.2
				c-0.4-0.8-0.6-1.2-0.8-2c-0.2-0.9-0.4-1.8-0.3-2.7c0.2-0.8,0.4-1.6,0.5-2.5c0.3,0.7,0.6,1.4,1,2c0.5,0.8,0.9,1.4,1.2,2.3
				c0.5,1.5,0.1,2.8-0.1,4.3c0,0.7,0.1,1.3,0.2,1.9l0.2,1.2c0.2,0.9,0.4,1.8,0.8,2.7c0.6,1.3,1.5,2.4,2.1,3.6
				c0.1-0.4,0.2-0.8,0.3-1.2c0.1-0.6,0.3-1.2,0.5-1.8c-0.1-1.8-0.6-3.7-1.1-5.4c-0.4-1.4-1.1-3.3-1.3-5.1c-0.1-0.6-0.4-1.6-0.5-2.1
				c-0.1-0.9-0.4-1.7-0.6-2.5c-0.2-0.8-0.1-1.6-0.4-2.4c-0.8-2.7-2.9-4.7-4-7.2c-0.1-0.3-0.2-0.6-0.3-0.9c-1.9,0.6-4,0-5.5-1.3
				c-1.6-1.3-2.6-3.3-3-5.4c0.6,0.7,1.5,1,2.3,1.3c1.9,0.8,3.6,2.1,5,3.6c0.4,0.4,0.7,0.8,1,1.2c-0.7-2.3-0.9-4.7-1.8-7
				c-0.9-1-2.1-1.1-3.6-2.4c-1.2-1-2.2-2.3-2.8-3.8c-0.4-0.9-0.5-1.7-0.5-2.6c0-0.7-0.4-2.4-0.7-3.1c1.1,0.7,2.9,2.2,4.1,2.9
				c1.4,0.9,2.2,2,2.8,3.6c0.5,1.2,0.9,2.4,1.1,3.7c0.1,0.5,0.1,1.1,0.2,1.6c0.9,2.3,1.1,4.9,1.9,7.2c0.4,1.2,0.9,2.3,1.6,3.3
				c-0.4-1.5-0.4-3.1,0.2-4.5c0,0,0,0,0,0c0-0.7,0.2-0.7,0.2-2.1c0-1.2-0.3-1.9-0.7-3.1c-0.7-1.6-1.4-3.4-1.1-5.2
				c0.2-1.1,0.8-2.1,1.4-3.1c0.4-0.7,1-1.7,1.7-2.1c0.2-0.1,1.9-0.8,1.9-1.1c0.1,2.5,0.9,4.9,1,7.4c0.1,2.5-0.6,4.9-1.8,7
				c-0.4,0.7-0.8,1.3-1.3,1.9c-0.2,0.3-0.5,0.6-0.8,0.8c-0.7,2,0,4.4,0.9,6.2c0,0,0,0.1,0,0.1c0.3,0.5,0.6,1,0.8,1.5
				c0.8,1.8,1.1,3.9,1.5,5.8c0.4,2,0.7,4.1,1.3,6.1c0.6,1.9,1.1,3.9,1.3,5.9c0-0.1,0.1-0.1,0.1-0.2c0.4-0.9,1-1.7,1.5-2.5
				c0,0,0,0,0-0.1c0.2-0.8,0.4-1.7,0.5-2.5c0.1-0.8,0.2-1.7-0.1-2.5c-0.2-0.2-0.4-0.4-0.5-0.6c-0.4-0.5-0.7-1.1-1.1-1.6
				c-1-1.1-0.9-2-1.4-3.4c-0.4-1.2-0.8-1.6-0.8-2.9c0-1.7,0.2-3.2,1.2-4.5c0.6-0.8,1.5-3.1,2.4-3.4c0.1,0.8,0.1,1.3,0.5,2.1
				c0.3,0.6,0.7,1.3,0.8,2c0.3,1.6,0.1,3.3-0.2,4.8c-0.4,1.8-0.5,3.5-0.5,5.3c0,1.1,0.1,1.2,0.1,1.7c0,0,0,0.1,0.1,0.1
				c0.4,1.1,0.3,2.3,0.1,3.5c0.3-0.6,0.5-1.2,0.8-1.8c0.5-1.2,1-2.4,1.3-3.7c0.3-1.2,0.5-2.4,1-3.5c0.1-0.4,0.1-0.8,0.2-1.2
				c0.2-1.1,0.6-2.1,1-3.2c0.5-1.3,1.3-2.3,2.5-3.1c1-0.6,2.5-1.9,3.5-2.4c-0.2,0.6-0.6,2.1-0.6,2.7c0,0.8-0.1,1.5-0.4,2.3
				c-0.6,1.3-1.4,2.4-2.5,3.3c-1.3,1.1-2.3,1.1-3.1,1.9c-0.4,0.9-0.6,1.9-0.8,2.9c-0.2,0.9-0.5,1.8-0.9,2.7c1.2-1.4,3.3-2.4,5-1.9
				c-0.7,1-1.4,1.6-2.5,2.1c-0.8,0.4-2,0.4-2.8,0.7c-0.4,1-0.8,2-1.3,2.9c-0.5,1-1.2,2-1.8,3c-0.6,1-1.1,2.1-1.4,3.2
				c-0.2,0.8-0.5,1.8-0.6,2.6c0,0.2,0,0.3,0,0.5c0,1.1,0.3,2.4,0.4,3.6c0.2,1.6,0.4,3.1,0.2,4.7c0.4-0.5,0.8-1,1.2-1.6
				c0.3-1.4-0.3-2.4-0.2-4.4c0.1-1.6,0.6-3.1,1.4-4.5c0.5-0.8,1.1-1.4,1.8-1.9c0.6-0.4,1.7-1.7,2.1-2.3c0.1,1.3,0,3.7,0.1,5
				c0.1,1.6-0.3,3-1.3,4.4c-0.7,1.1-1.4,2.1-2.3,3c-0.4,0.4-0.8,0.7-1.1,1.1c-1.3,2.1-3.2,3.7-4.7,5.7c-0.7,1-1.3,2.1-1.7,3.2
				c1-1.2,2.2-2.1,3.7-2.4c0,0,0,0,0,0c0.6-0.3,0.7-0.2,1.8-1c1-0.7,1.4-1.3,2.1-2.4c0.9-1.5,1.9-3.1,3.5-3.9c1.9-0.9,4-0.3,5.9-1
				c0.8-0.3,1.2-0.9,2-1.2c0.6-0.3,2.6-0.1,3-0.4c-2.8,2.6-3.4,6.8-6.7,9c-1.2,0.8-2.5,1.3-3.9,1.7c-1.6,0.5-2.8,0.3-4.4,0
				c-0.8-0.1-1.5,0-2.2-0.1c-0.4,0-0.7-0.1-1.1-0.2c-2,0.5-3.5,2.5-4.5,4.2c0,0,0,0-0.1,0.1c-0.2,0.5-0.5,1-0.8,1.5
				c-0.6,1-1.4,2-2.4,2.8c-0.8,0.7-1.8,1.2-2.8,1.6c-2.1,1-3.7,2.5-5,4.4c1.5-0.2,3,0.4,4.5,0.3c1.1,0,2.3-0.4,3.2-0.8
				c0.3-0.1,0.5-0.2,0.8-0.4c-0.1-0.7-0.3-1.4-0.3-2c0-0.9,0.5-2.3,1.1-3.1c0.6,0.8,0.7,1.9,0.6,2.9c0,0.5-0.1,1.2-0.4,1.7
				c0.7-0.4,1.3-0.8,1.9-1.3c0,0,0,0,0.1,0c0.4-0.5,0.8-1.2,1.4-1.6c0.8-0.7,1.8-1.1,2.9-1.3c0.7-0.1,1.4-0.2,2-0.4
				c0.8-0.3,1.6-0.9,2.4-0.9c-0.4,0.5-0.6,1.4-0.9,2.1c-0.5,1.1-1.1,2.3-2.2,2.8c-0.6,0.3-1.2,0.3-1.8,0.4c-1.2,0-2.5-0.1-3.7-0.3
				c-1,0.8-2.1,1.4-3.2,1.9c-0.1,0-0.2,0.1-0.3,0.1c0.5,0,1,0,1.5,0c0.2,0,0.5,0,0.7,0c1.5,0,3.1,0.6,4.3,1.5
				c-0.7,1.2-3.4,1.6-4.7,1.5c-0.3,0-0.7-0.1-1-0.3c-0.6-0.3-1-0.8-1.3-1.3c-0.2-0.4-0.2-0.8-0.5-1c-0.7,0.3-1.5,0.4-2.3,0.5
				c-1.8,0.2-3.6-0.7-5.4-0.2c-0.5,0.7-1,1.5-1.4,2.3c0,0,0.1,0,0.1,0c0.6,0,1.2,0.1,1.8,0.2c1.2,0.2,2.7,1.2,3.6,2
				c0,0-1.3,0.4-1.4,0.4c-0.6,0.1-1.1,0-1.7-0.1c-0.5-0.1-1-0.3-1.5-0.6c-0.5-0.3-0.8-0.7-1.1-1.2c0,0,0-0.1-0.1-0.1
				c0,0-0.1-0.1-0.1-0.1c-0.9,1.5-1.8,3.1-2.6,4.6C244.3,337,243.7,336.7,243.9,336.4z"/>
		</g>
		<g>
			<path d="M344.4,341.4c6.5,2.9,13.6,4.5,21.1,4.5c28.7,0,51.9-23.2,51.9-51.9c0-28.7-23.2-51.9-51.9-51.9
				c-7.5,0-14.7,1.6-21.1,4.5c18.1,8.1,30.8,26.3,30.8,47.4C375.2,315.2,362.5,333.3,344.4,341.4z M366.7,335.4
				c1.7-2.4,5.5-7.3,5.6-7.5c0-0.1,3.2-3.5,5.2-4.4c0.5-0.2,1-0.4,1.6-0.6c0-0.9,0.2-1.9,0.4-2.7c0.3-1.1,1.4-2.5,2.2-3.2
				c0.5,1.5,0.2,3.6-1,4.7c-0.2,0.2-0.6,0.4-0.8,0.6c-0.2,0.2-0.3,0.3-0.4,0.5c0.5-0.2,0.9-0.3,1.4-0.5c1.2-0.5,2.3-1.3,3.2-2.3
				c0.8-0.9,1.9-2.2,2.4-3.7c-0.2-0.1-0.4-0.3-0.6-0.4c-0.3-0.2-0.5-0.5-0.6-0.8c0-0.2,0-0.4,0-0.6c0.1-0.7,0.2-1.4,0.4-2.1
				c0.4,0.6,0.8,1.2,0.9,1.8c0.2,0.6,0.1,1.3-0.1,2c0.4-1.2,1.1-2.3,1.9-3.3c-0.3-0.2-0.2-1.2-0.2-1.5c-0.1-0.5-0.2-1-0.3-1.5
				c-0.1-0.4-0.3-0.8-0.4-1.2c-0.1-0.4-0.2-0.8-0.5-1.2c-0.4-0.7-0.9-1.5-1.5-2c-0.6-0.5-1.1-1.2-1.7-1.6c-0.6-0.3-1-0.7-1.6-1.1
				c-0.4-0.3-0.9-0.7-1.2-1.1c-1.1-1.3-0.8-2.6-1.1-4.1c-0.4-1.8-0.6-3.7-0.4-5.5c0.8,1,2,1.3,2.9,2.1c0.6,0.1,1.3,1.8,1.6,2.2
				c0.6,0.9,0.9,2.1,1.2,3.1c0.1,0.3,0.2,0.6,0.2,0.9c0,0.3,0,0.5-0.1,0.8c-0.1,0.5-0.3,1-0.3,1.5c0,0.4,0,0.7,0,1.1
				c0,0.1,0,0.2,0,0.3c0,0.1,0.1,0.1,0.1,0.2c0.5,0.5,1.2,1.2,1.6,1.8c0.5,0.7,0.9,1.4,1.2,2.2c0.1,0.1,0.1,0.3,0.2,0.4
				c0-0.2,0-0.4,0-0.6c-0.1-0.4-0.2-0.9-0.2-1.3c-0.2-1-0.2-2.1-0.1-3.1c0-1.3,0.4-2.5,1.2-3.5c0.7-0.8,1.6-2.5,2.3-3.3
				c0,0.6,0.1,2,0.3,2.5c0.3,0.7,0.4,1.4,0.3,2.1c-0.1,1.4-0.5,2.6-1.1,3.7c-0.8,1.4-1.7,1.8-2.1,2.8c-0.2,0.6-0.3,1.3-0.2,1.9
				c0.1,0.5,0.2,1.1,0.2,1.6c0,0.4,0,0.7,0,1.1c0,0,0,0.1,0,0.1c1.2-1.4,2.7-2.7,4.1-3.9c0,0,0-0.1,0-0.1c0.4-1.2,0.6-2.5,0.6-3.7
				c0-1-0.3-2-0.2-3c0.2-1.4,0.4-2.7,0.6-4.1c0.1-1.1-0.1-2.2-0.4-3.2c-0.2-1-0.5-2-1.1-2.8c-0.3-0.1-0.6-0.3-0.9-0.5
				c-3.1-1.9-7-3.4-8.5-7c-0.4-0.9-0.6-2-0.8-3c-0.4-2.1-1-4.1-1.8-6c1,0.9,2.2,1.6,3.4,2.2c0.8,0.4,1.7,0.7,2.4,1.2
				c1.6,0.9,3.7,3,4.2,4.8c0.2,0.8,0.2,1.7,0.4,2.5c0.3,1.1,0.6,2.1,1,3.2c0.4,1.2,0.6,1.3,0.9,1.8c0,0,0.1,0,0.1,0.1
				c0.9,1,1.3,2.4,1.6,3.8c0.1-0.8,0.1-1.5,0.1-2.3c0-1.1,0.1-2.3,0-3.4c-0.7-0.5-1.1-2.9-1.3-3.5c-0.3-1.3-0.6-2.6-1.1-3.8
				c-0.9-1.8-2.3-3.4-3.9-4.7c-0.9-0.7-1.8-1.5-2.5-2.4c0-0.1-0.1-0.1-0.1-0.2c-0.7-1-1.3-2.1-1.7-3.3c0-0.1-0.1-0.2-0.1-0.4
				c-1.1,0.3-2.4-0.2-3.4-0.6c-0.5-0.2-1.1-0.5-1.6-0.9c-0.1-0.1-0.8-0.9-0.9-0.9c1.3,0.1,2.6-0.4,3.8,0.2c0.5,0.2,1,0.5,1.4,0.9
				c0.2,0.2,0.4,0.4,0.6,0.7c-0.1-0.3-0.1-0.5-0.2-0.8c0,0,0-0.1,0-0.1c-0.6-2.1-1.6-4.4-3.6-5.4c-0.7,0-1.2-0.8-2-0.8
				c-0.1,0-0.3,0-0.4,0c-0.1,0-0.2,0-0.3,0.1c-0.7,0.4-1.8,0.1-2.6,0c-1-0.1-1.9-0.4-2.7-0.9c-1.4-0.8-2.6-1.5-3.7-2.7
				c-1.7-1.8-2.2-4.3-3.3-6.5c1.6,1,3.5,1.3,5.3,1.7c1.5,0.4,3.1,0.9,4.3,1.9c1.3,1,2.5,2.2,3.4,3.5c0.4,0.6,0.4,1.3,0.8,1.8
				c0.3,0.4,0.9,0.7,1.3,1.1c0,0,0,0,0,0c0.7,0.3,1.4,0.9,1.9,1.4c0.3,0.3,0.6,0.5,0.8,0.8c0.3,0.3,0.5,0.7,0.7,1.1
				c0.2,0.4,0.4,0.8,0.6,1.2c0.2,0.6,0.2,1.2,0.3,1.8c0.2,0.9,0.5,1.7,0.9,2.5c0.5,1.2,1.3,2.3,2.2,3.2c-0.5-1.6-1.1-3.3-1-5
				c0-1.5,1-4.3,0.4-5.7c-0.5-1.1-1.4-1.4-2.4-2.8c-0.7-1.1-1.2-2.4-1.3-3.8c-0.1-0.8,0-1.5,0.2-2.2c0.2-0.5,0.2-2,0.2-2.6
				c0.7,0.8,1.8,2.5,2.6,3.3c0.9,1,1.3,2.2,1.4,3.6c0.1,1.1,0.1,2.2,0,3.3c-0.1,0.4-0.1,0.9-0.2,1.4c0.2,2.1-0.2,4.2-0.2,6.3
				c0,1,0.2,2.1,0.5,3.1c0.1-1.3,0.4-2.6,1.2-3.6c0,0,0,0,0,0c0.2-0.5,0.3-0.5,0.7-1.6c0.3-1,0.3-1.6,0.1-2.7
				c-0.2-1.5-0.3-3.1,0.3-4.4c0.4-0.9,1.2-1.5,1.9-2.1c0.5-0.4,1.2-1.1,1.9-1.2c0.2,0,1.7-0.2,1.8-0.4c-0.5,2-0.5,4.2-1,6.2
				c-0.6,2-1.7,3.8-3.2,5.2c-0.5,0.4-1,0.8-1.5,1.2c-0.3,0.2-0.5,0.3-0.8,0.5c-1,1.4-1,3.4-0.8,5c0.7,0.5,1.3,1,1.9,1.6
				c1.6,1.6,3.5,5.8,3.4,5.9c-0.1,0.5,0.6,1.7,0.7,2.2c0,0.1,0,0.1,0.1,0.2c-0.1-0.8-0.2-1.6-0.1-2.4c-0.1-0.5-0.2-0.9-0.3-1.3
				c-0.2-1.3-0.3-2.6-0.2-3.9c0-1.7,0.4-3.1,1.4-4.4c0.8-1.1,2-3.1,2.9-4.2c0,0.7,0.2,2.5,0.5,3.2c0.4,0.9,0.5,1.7,0.5,2.7
				c-0.1,1.7-0.5,3.2-1.3,4.7c-1,1.7-2,2.2-2.6,3.4c0,1.2,0.1,2.4,0.3,3.5c0.1,1.1,0.2,2.2,0.2,3.3c0.7-2,2.6-4.1,4.7-4.2
				c-0.4,1.5-0.9,2.4-1.9,3.4c-0.8,0.8-2,1.2-2.8,1.9c0,1.3-0.1,2.5-0.2,3.8c-0.1,1.4-0.5,2.7-0.8,4.1c-0.1,0.3-0.1,1.5-0.2,2.2
				c0,0.3,0,0.6,0,0.9c0,1.7,0,3.3-0.4,5c0.5-0.5,1-1,1.4-1.5c0.5-1.4-0.1-2.5,0.3-4.7c0.5-2.8,2.1-4.9,4-6.9
				c1.1-1.2,2.2-2.4,3.3-3.6c0.9-1.1,2.2-2.2,2.9-3.4c-1.4,2.3-0.2,5.3-0.5,7.9c-0.2,1.6-0.8,3.1-1.5,4.5c-0.5,1.1-1,2.2-1.9,3.1
				c-0.8,0.8-1.9,1.3-2.9,1.7c-0.9,0.4-2,0.7-2.8,1.3c-0.7,0.5-1.2,1.4-1.8,2c-1.4,1.3-2.9,2.5-4.3,3.9c-0.9,0.9-1.6,2-2.2,3.2
				c0.7-1.4,2.4-1.7,3.8-1.9c0.6-0.1,1.4-0.1,2-0.4c0.9-0.4,1.6-1.3,2.5-1.8c0.6-0.3,1.2-0.6,1.8-0.9c0.4-0.2,0.9-0.4,1.4-0.6
				c0.7-0.2,1.5-0.1,2.2,0.1c0.3,0.1,0.6,0.3,0.9,0.5c0.8,0.7,1.7,1,2.7,1.4c0.7,0.3,1.6,0.4,2.3,0.7c0.7,0.3,1.2,0.8,2,0.9
				c-1.3,0.4-2.8,0.3-4.1,0.7c-1.4,0.4-2.7,1.1-4.1,1.6c-1.8,0.6-3.8,0.6-5.6,0.1c-1.3-0.4-3-1.9-4.4-1.7c-2,0.3-3.6,2.3-4.7,3.8
				c0,0,0,0-0.1,0.1c-0.3,0.5-0.6,1-1,1.5c-0.8,1-1.8,1.9-2.9,2.6c-1,0.6-2.1,1-3.2,1.4c-2.4,0.8-4.2,2.2-5.8,4
				c1.6,0,3.1,0.7,4.7,0.9c1.1,0.1,2.4-0.1,3.5-0.5c0.3-0.1,0.6-0.2,0.8-0.3c-0.1-0.7-0.1-1.5-0.1-2.2c0.1-1,0.9-2.3,1.5-3.1
				c0.5,0.9,0.5,2.1,0.3,3.1c-0.1,0.5-0.3,1.2-0.7,1.7c0.8-0.3,1.5-0.7,2.2-1.1c0,0,0.1,0,0.1,0c0.5-0.5,1-1.1,1.7-1.5
				c1-0.6,2.1-0.9,3.2-1c0.7-0.1,1.5,0,2.2-0.2c0.9-0.2,1.8-0.8,2.7-0.7c-0.5,0.5-0.8,1.4-1.2,2.1c-0.7,1.1-1.4,2.3-2.7,2.7
				c-0.6,0.2-1.3,0.2-2,0.2c-1.3-0.1-2.6-0.4-3.9-0.7c-1.1,0.7-2.4,1.2-3.6,1.7c-0.1,0-0.2,0.1-0.3,0.1c0.5,0.1,1.1,0.2,1.6,0.2
				c0.3,0,0.5,0,0.8,0.1c1.5,0.2,3.2,1,4.4,2.1c-0.9,1.2-3.8,1.3-5.1,1c-0.4-0.1-0.7-0.2-1-0.4c-0.6-0.4-0.9-0.9-1.2-1.6
				c-0.2-0.4-0.2-0.8-0.4-1.1c-0.8,0.2-1.6,0.3-2.4,0.2c-1.9,0-3.7-1.2-5.7-0.9c-0.4,0.1-1.5,1.8-1.8,2.2c0.1,0,0.1,0,0.2,0.1
				c-0.2,0.1-0.3,0.3-0.5,0.4c0.3-0.2,0.7-0.4,1.1-0.4c0.5,0,1,0.1,1.5,0.2c0.4,0.1,0.8,0.3,1.2,0.4c-0.3,0.2-0.6,0.3-0.9,0.4
				c-0.5,0.1-1.1,0.2-1.7,0.2c-0.2,0-0.3,0-0.5,0c-0.4,0-0.8-0.3-1.1-0.5c-0.4,0.4-0.7,0.9-1,1.3c-0.7,1-1.4,2.1-2.1,3.1
				C367,336.1,366.4,335.7,366.7,335.4z"/>
		</g>
		<g>
			<path d="M411.7,517.7c-2.8-0.5-5.7-0.7-8.7-0.7c-29.1,0-52.8,23.6-52.8,52.8s23.6,52.8,52.8,52.8c3,0,5.9-0.3,8.7-0.7
				c-25-4.2-44.1-25.9-44.1-52.1S386.7,521.8,411.7,517.7z"/>
		</g>
		<g>
			<path d="M289,521.4c-6.5-2.9-13.7-4.5-21.2-4.5c-29.1,0-52.8,23.6-52.8,52.8s23.6,52.8,52.8,52.8c7.6,0,14.7-1.6,21.2-4.5
				c-22.9-4.2-40.3-24.2-40.3-48.3C248.7,545.6,266.1,525.6,289,521.4z M254.7,531.4c-0.6,1.6-1.6,2.8-2.8,3.8
				c-1.6,1.3-2.7,1.4-3.6,2.4c-0.9,2.2-1.1,4.7-1.8,7c0.3-0.4,0.6-0.8,1-1.2c1.4-1.5,3.1-2.7,5-3.6c0.8-0.4,1.7-0.7,2.3-1.3
				c-0.5,2.1-1.4,4-3,5.4c-1.5,1.3-3.6,1.8-5.5,1.3c-0.1,0.3-0.2,0.6-0.3,0.9c-1.1,2.6-3.1,4.5-4,7.2c-0.3,0.8-0.2,1.6-0.4,2.4
				c-0.2,0.8-0.5,1.7-0.6,2.5c-0.1,0.6-0.4,1.6-0.5,2.1c-0.2,1.8-0.9,3.7-1.3,5.1c-0.5,1.7-1,3.6-1.1,5.4c0.2,0.6,0.4,1.2,0.5,1.8
				c0.1,0.4,0.2,0.8,0.3,1.2c0.7-1.2,1.5-2.3,2.1-3.6c0.4-0.9,0.6-1.7,0.8-2.7l0.2-1.2c0.1-0.6,0.2-1.3,0.2-1.9
				c-0.3-1.5-0.6-2.8-0.1-4.3c0.3-0.9,0.8-1.5,1.2-2.3c0.4-0.7,0.7-1.4,1-2c0.1,0.9,0.3,1.7,0.5,2.5c0.2,0.9,0,1.8-0.3,2.7
				c-0.2,0.8-0.4,1.2-0.8,2c-0.2,0.4-0.5,0.7-0.9,1.2c0,1-0.1,2-0.3,3c-0.1,0.6-0.2,1.1-0.3,1.6c0.1-0.1-0.1,0.4-0.1,0.4
				c-0.1,0.3-0.2,0.6-0.3,0.9c-0.7,1.8-2.1,3.2-2.8,5.1c-0.1,1.2-0.3,2.5-0.4,3.7c-0.3,1.8-0.4,3.4,0,5.2c0,0,0,0.1,0,0.1
				c0.9,1,1.8,1.9,2.6,3c-0.1-0.5-0.3-0.9-0.4-1.5c-0.4-2-0.3-4.1,0.1-6.2c0.2-0.9,0.4-1.8,0.3-2.7c1.4,1.5,2.4,3.5,2.5,5.5
				c0.1,2-0.6,4-2.2,5.3c0.2,0.2,0.3,0.5,0.5,0.8c1.4,2.3,1.8,5.2,3.5,7.4c0.8,1,1.7,1.8,2.7,2.5c0.4,0.2,0.8,0.4,1.2,0.6
				c-0.1-0.2-0.2-0.4-0.3-0.5c-0.2-0.2-0.5-0.4-0.7-0.6c-1-1.1-1.1-3.2-0.4-4.5c0.7,0.8,1.6,2.2,1.7,3.2c0.1,0.8,0.2,1.8,0.1,2.6
				c0.5,0.2,1,0.5,1.4,0.7c1.8,1.1,4.4,4.6,4.4,4.7c0.1,0.1,3.1,5.2,4.5,7.6c0.2,0.4-0.4,0.6-0.6,0.2c-0.9-1.5-1.7-3.1-2.6-4.6
				c0,0-0.1,0.1-0.1,0.1c0,0,0,0.1-0.1,0.1c-0.3,0.4-0.6,0.9-1.1,1.2c-0.4,0.3-0.9,0.5-1.5,0.6c-0.5,0.1-1.1,0.1-1.7,0.1
				c-0.1,0-1.4-0.4-1.4-0.4c0.9-0.8,2.4-1.8,3.6-2c0.6-0.1,1.2-0.2,1.8-0.2c0,0,0.1,0,0.1,0c-0.5-0.8-0.9-1.5-1.4-2.3
				c-1.8-0.5-3.6,0.4-5.4,0.2c-0.8-0.1-1.5-0.2-2.3-0.5c-0.3,0.2-0.3,0.6-0.5,1c-0.3,0.6-0.7,1.1-1.3,1.3c-0.3,0.1-0.7,0.2-1,0.3
				c-1.2,0.1-4-0.3-4.7-1.5c1.2-0.8,2.9-1.4,4.3-1.5c0.2,0,0.5,0,0.7,0c0.4,0,1,0,1.5,0c-0.1,0-0.2-0.1-0.3-0.1
				c-1.1-0.6-2.2-1.2-3.2-1.9c-1.2,0.2-2.5,0.3-3.7,0.3c-0.6,0-1.3-0.1-1.8-0.4c-1.1-0.5-1.7-1.7-2.2-2.8c-0.3-0.6-0.5-1.5-0.9-2.1
				c0.9,0,1.6,0.7,2.4,0.9c0.6,0.2,1.3,0.3,2,0.4c1.1,0.2,2,0.7,2.9,1.3c0.6,0.4,1,1.1,1.4,1.6c0,0,0,0,0.1,0
				c0.6,0.5,1.3,0.9,1.9,1.3c-0.3-0.5-0.4-1.2-0.4-1.7c0-1,0.1-2,0.6-2.9c0.5,0.8,1.1,2.1,1.1,3.1c0,0.7-0.1,1.4-0.3,2
				c0.3,0.1,0.5,0.3,0.8,0.4c1,0.4,2.1,0.8,3.2,0.8c1.5,0,3-0.5,4.5-0.3c-1.3-1.9-2.9-3.4-5-4.4c-1-0.5-2-1-2.8-1.6
				c-0.9-0.8-1.8-1.7-2.4-2.8c-0.3-0.5-0.5-1-0.8-1.5c0,0,0,0-0.1-0.1c-1-1.8-2.4-3.7-4.5-4.2c-0.4,0.1-0.7,0.1-1.1,0.2
				c-0.8,0.1-1.5-0.1-2.2,0.1c-1.7,0.3-2.8,0.5-4.4,0c-1.4-0.4-2.7-0.9-3.9-1.7c-3.2-2.2-3.9-6.4-6.7-9c0.3,0.3,2.4,0.1,3,0.4
				c0.7,0.3,1.2,0.9,2,1.2c1.9,0.7,4,0.1,5.9,1c1.6,0.8,2.6,2.3,3.5,3.9c0.6,1.1,1.1,1.7,2.1,2.4c1.1,0.8,1.2,0.7,1.8,1c0,0,0,0,0,0
				c1.5,0.3,2.7,1.2,3.7,2.4c-0.4-1.1-1-2.2-1.7-3.2c-1.5-2-3.4-3.6-4.7-5.7c-0.4-0.4-0.8-0.8-1.1-1.1c-0.9-0.9-1.6-1.9-2.3-3
				c-0.9-1.4-1.4-2.7-1.3-4.4c0.1-1.3-0.1-3.7,0.1-5c0.4,0.6,1.5,1.9,2.1,2.3c0.8,0.5,1.3,1.1,1.8,1.9c0.9,1.4,1.3,2.9,1.4,4.5
				c0.1,2-0.5,3-0.2,4.4c0.3,0.5,0.7,1.1,1.2,1.6c-0.2-1.6,0-3.1,0.2-4.7c0.2-1.1,0.4-2.4,0.4-3.6c0-0.2,0-0.3,0-0.5
				c0-0.9-0.3-1.8-0.6-2.6c-0.3-1.2-0.8-2.2-1.4-3.2c-0.6-1-1.3-1.9-1.8-3c-0.5-1-0.9-1.9-1.3-2.9c-0.9-0.3-2-0.3-2.8-0.7
				c-1.1-0.5-1.8-1.1-2.5-2.1c1.7-0.5,3.8,0.5,5,1.9c-0.3-0.9-0.6-1.8-0.9-2.7c-0.2-1-0.4-2-0.8-2.9c-0.8-0.8-1.8-0.9-3.1-1.9
				c-1.1-0.9-1.9-2-2.5-3.3c-0.3-0.7-0.5-1.5-0.4-2.3c0-0.6-0.4-2.1-0.6-2.7c1,0.6,2.5,1.8,3.5,2.4c1.2,0.7,1.9,1.7,2.5,3.1
				c0.4,1.1,0.8,2.1,1,3.2c0.1,0.4,0.1,0.8,0.2,1.2c0.5,1.1,0.7,2.3,1,3.5c0.3,1.3,0.8,2.5,1.3,3.7c0.3,0.6,0.5,1.2,0.8,1.8
				c-0.2-1.2-0.3-2.4,0.1-3.5c0,0,0-0.1,0.1-0.1c0-0.5,0.1-0.6,0.1-1.7c0-1.8-0.2-3.5-0.5-5.3c-0.3-1.5-0.5-3.2-0.2-4.8
				c0.1-0.7,0.5-1.4,0.8-2c0.4-0.7,0.4-1.2,0.5-2.1c0.9,0.3,1.8,2.6,2.4,3.4c0.9,1.3,1.2,2.8,1.2,4.5c0,1.3-0.4,1.7-0.8,2.9
				c-0.5,1.4-0.4,2.3-1.4,3.4c-0.5,0.5-0.7,1.1-1.1,1.6c-0.2,0.2-0.4,0.4-0.5,0.6c-0.3,0.8-0.2,1.7-0.1,2.5c0.1,0.9,0.3,1.7,0.5,2.5
				c0,0,0,0.1,0,0.1c0.5,0.8,1.1,1.6,1.5,2.5c0,0.1,0.1,0.1,0.1,0.2c0.2-2,0.7-4,1.3-5.9c0.6-2,0.9-4.1,1.3-6.1
				c0.4-1.9,0.7-4,1.5-5.8c0.2-0.5,0.5-1,0.8-1.5c0,0,0-0.1,0-0.1c0.9-1.8,1.6-4.2,0.9-6.2c-0.3-0.3-0.5-0.5-0.8-0.8
				c-0.5-0.6-0.9-1.2-1.3-1.9c-1.2-2.1-1.9-4.6-1.8-7c0.1-2.5,0.8-4.9,1-7.4c0,0.3,1.7,1,1.9,1.1c0.7,0.4,1.3,1.4,1.7,2.1
				c0.6,0.9,1.2,1.9,1.4,3.1c0.3,1.8-0.4,3.5-1.1,5.2c-0.5,1.2-0.7,1.9-0.7,3.1c0,1.4,0.1,1.4,0.2,2.1c0,0,0,0,0,0
				c0.6,1.4,0.6,3,0.2,4.5c0.7-1,1.2-2.1,1.6-3.3c0.7-2.4,1-4.9,1.9-7.2c0.1-0.5,0.2-1.1,0.2-1.6c0.2-1.3,0.6-2.5,1.1-3.7
				c0.6-1.6,1.4-2.7,2.8-3.6c1.1-0.7,2.9-2.2,4.1-2.9c-0.2,0.7-0.7,2.4-0.7,3.1C255.2,529.7,255.1,530.5,254.7,531.4z"/>
		</g>
		<g>
			<path d="M159.5,522.3c-6.5-2.9-13.6-4.5-21.1-4.5c-28.7,0-51.9,23.2-51.9,51.9c0,28.7,23.2,51.9,51.9,51.9
				c7.5,0,14.7-1.6,21.1-4.5c-18.1-8.1-30.8-26.3-30.8-47.4C128.8,548.6,141.4,530.4,159.5,522.3z M136,535.5
				c-1.1,1.2-2.3,1.9-3.7,2.7c-0.9,0.5-1.8,0.8-2.7,0.9c-0.8,0.1-1.9,0.4-2.6,0c-0.1,0-0.2-0.1-0.3-0.1c-0.1,0-0.3,0-0.4,0
				c-0.8,0-1.3,0.8-2,0.8c-2,1-3.1,3.4-3.6,5.4c0,0,0,0.1,0,0.1c0,0.3-0.1,0.5-0.2,0.8c0.2-0.3,0.3-0.5,0.6-0.7
				c0.4-0.4,0.9-0.6,1.4-0.9c1.2-0.6,2.5-0.1,3.8-0.2c-0.1,0-0.8,0.8-0.9,0.9c-0.5,0.3-1,0.6-1.6,0.9c-1,0.4-2.3,0.9-3.4,0.6
				c0,0.1-0.1,0.2-0.1,0.4c-0.4,1.2-1,2.3-1.7,3.3c0,0.1-0.1,0.1-0.1,0.2c-0.7,0.9-1.6,1.7-2.5,2.4c-1.6,1.2-3,2.9-3.9,4.7
				c-0.6,1.2-0.8,2.5-1.1,3.8c-0.1,0.6-0.6,3-1.3,3.5c-0.1,1.1,0,2.3,0,3.4c0,0.8,0.1,1.5,0.1,2.3c0.2-1.4,0.6-2.8,1.6-3.8
				c0,0,0.1-0.1,0.1-0.1c0.3-0.5,0.4-0.6,0.9-1.8c0.4-1,0.7-2.1,1-3.2c0.2-0.8,0.2-1.7,0.4-2.5c0.5-1.8,2.7-3.8,4.2-4.8
				c0.8-0.5,1.6-0.8,2.4-1.2c1.2-0.6,2.3-1.3,3.4-2.2c-0.8,1.9-1.3,4-1.8,6c-0.2,1-0.4,2-0.8,3c-1.5,3.6-5.4,5.1-8.5,7
				c-0.3,0.2-0.6,0.3-0.9,0.5c-0.6,0.8-0.9,1.8-1.1,2.8c-0.2,1-0.5,2.2-0.4,3.2c0.2,1.4,0.4,2.7,0.6,4.1c0.1,1-0.2,2-0.2,3
				c0,1.3,0.2,2.5,0.6,3.7c0,0,0,0.1,0,0.1c1.4,1.2,2.8,2.4,4.1,3.9c0,0,0-0.1,0-0.1c0-0.4,0-0.7,0-1.1c0-0.5,0.2-1.1,0.2-1.6
				c0.1-0.6,0.1-1.3-0.2-1.9c-0.4-1-1.3-1.4-2.1-2.8c-0.7-1.1-1-2.3-1.1-3.7c0-0.8,0.1-1.4,0.3-2.1c0.2-0.5,0.3-2,0.3-2.5
				c0.7,0.8,1.7,2.4,2.3,3.3c0.8,1,1.1,2.1,1.2,3.5c0,1.1,0,2.1-0.1,3.1c-0.1,0.4-0.2,0.9-0.2,1.3c0,0.2,0,0.4,0,0.6
				c0.1-0.1,0.1-0.3,0.2-0.4c0.3-0.8,0.8-1.5,1.2-2.2c0.4-0.6,1.1-1.3,1.6-1.8c0.1-0.1,0.1-0.1,0.1-0.2c0-0.1,0-0.2,0-0.3
				c-0.1-0.4,0-0.7,0-1.1c0-0.5-0.2-1-0.3-1.5c0-0.3-0.1-0.5-0.1-0.8c0-0.3,0.1-0.6,0.2-0.9c0.4-1,0.7-2.1,1.2-3.1
				c0.3-0.4,1-2.1,1.6-2.2c0.9-0.8,2.2-1.2,2.9-2.1c0.2,1.9-0.1,3.7-0.4,5.5c-0.3,1.5,0,2.9-1.1,4.1c-0.4,0.4-0.8,0.8-1.2,1.1
				c-0.5,0.4-1,0.8-1.6,1.1c-0.7,0.3-1.2,1.1-1.7,1.6c-0.6,0.5-1,1.3-1.5,2c-0.2,0.4-0.3,0.8-0.5,1.2c-0.1,0.4-0.3,0.8-0.4,1.2
				c-0.1,0.5-0.3,1-0.3,1.5c0,0.3,0.1,1.3-0.2,1.5c0.8,1,1.5,2.1,1.9,3.3c-0.2-0.7-0.3-1.4-0.1-2c0.2-0.7,0.6-1.3,0.9-1.8
				c0.1,0.7,0.2,1.4,0.4,2.1c0,0.2,0.1,0.4,0,0.6c-0.1,0.3-0.3,0.6-0.6,0.8c-0.2,0.2-0.4,0.3-0.6,0.4c0.5,1.4,1.6,2.8,2.4,3.7
				c0.9,1,2,1.7,3.2,2.3c0.5,0.2,0.9,0.4,1.4,0.5c-0.1-0.2-0.3-0.4-0.4-0.5c-0.2-0.2-0.5-0.4-0.8-0.6c-1.2-1.1-1.5-3.2-1-4.7
				c0.8,0.7,1.9,2.1,2.2,3.2c0.2,0.9,0.4,1.8,0.4,2.7c0.5,0.2,1.1,0.4,1.6,0.6c2,0.9,5.2,4.3,5.2,4.4c0.1,0.1,3.9,5.1,5.6,7.5
				c0.3,0.4-0.3,0.7-0.6,0.3c-0.7-1-1.4-2.1-2.1-3.1c-0.3-0.4-0.6-0.9-1-1.3c-0.4,0.2-0.7,0.4-1.1,0.5c-0.2,0-0.3,0-0.5,0
				c-0.6,0-1.1-0.1-1.7-0.2c-0.3-0.1-0.6-0.2-0.9-0.4c0.4-0.2,0.8-0.3,1.2-0.4c0.5-0.2,1-0.3,1.5-0.2c0.4,0,0.8,0.2,1.1,0.4
				c-0.2-0.1-0.3-0.3-0.5-0.4c0.1,0,0.1,0,0.2-0.1c-0.3-0.4-1.3-2.1-1.8-2.2c-1.9-0.3-3.8,0.9-5.7,0.9c-0.8,0-1.6-0.1-2.4-0.2
				c-0.3,0.3-0.3,0.7-0.4,1.1c-0.2,0.6-0.6,1.2-1.2,1.6c-0.3,0.2-0.7,0.3-1,0.4c-1.3,0.3-4.2,0.2-5.1-1c1.2-1,2.9-1.9,4.4-2.1
				c0.3,0,0.5,0,0.8-0.1c0.5,0,1-0.1,1.6-0.2c-0.1,0-0.2-0.1-0.3-0.1c-1.2-0.5-2.5-1-3.6-1.7c-1.3,0.3-2.6,0.6-3.9,0.7
				c-0.7,0.1-1.3,0.1-2-0.2c-1.2-0.4-2-1.6-2.7-2.7c-0.4-0.6-0.7-1.6-1.2-2.1c0.9-0.1,1.8,0.5,2.7,0.7c0.7,0.2,1.4,0.1,2.2,0.2
				c1.1,0.1,2.2,0.5,3.2,1c0.7,0.4,1.1,1,1.7,1.5c0,0,0.1,0,0.1,0c0.7,0.4,1.4,0.8,2.2,1.1c-0.4-0.5-0.6-1.2-0.7-1.7
				c-0.2-1-0.2-2.2,0.3-3.1c0.6,0.8,1.4,2.1,1.5,3.1c0.1,0.7,0,1.5-0.1,2.2c0.3,0.1,0.6,0.2,0.8,0.3c1.1,0.4,2.4,0.6,3.5,0.5
				c1.6-0.2,3.1-0.9,4.7-0.9c-1.6-1.8-3.5-3.2-5.8-4c-1.1-0.4-2.2-0.8-3.2-1.4c-1.1-0.7-2.1-1.6-2.9-2.6c-0.4-0.5-0.7-1-1-1.5
				c0,0,0,0-0.1-0.1c-1.1-1.5-2.7-3.5-4.7-3.8c-1.3-0.2-3,1.3-4.4,1.7c-1.8,0.5-3.8,0.5-5.6-0.1c-1.4-0.4-2.7-1.2-4.1-1.6
				c-1.3-0.4-2.8-0.3-4.1-0.7c0.8,0,1.3-0.6,2-0.9c0.7-0.3,1.6-0.4,2.3-0.7c0.9-0.4,1.9-0.7,2.7-1.4c0.3-0.2,0.6-0.4,0.9-0.5
				c0.7-0.2,1.5-0.3,2.2-0.1c0.5,0.1,0.9,0.3,1.4,0.6c0.6,0.3,1.2,0.6,1.8,0.9c0.9,0.5,1.7,1.3,2.5,1.8c0.6,0.3,1.4,0.3,2,0.4
				c1.4,0.2,3.1,0.6,3.8,1.9c-0.6-1.1-1.3-2.2-2.2-3.2c-1.3-1.4-2.9-2.6-4.3-3.9c-0.6-0.6-1.1-1.4-1.8-2c-0.8-0.6-1.9-0.9-2.8-1.3
				c-1-0.5-2.1-0.9-2.9-1.7c-0.9-0.8-1.4-2-1.9-3.1c-0.7-1.5-1.3-2.9-1.5-4.5c-0.3-2.7,0.9-5.6-0.5-7.9c0.7,1.2,2,2.3,2.9,3.4
				c1.1,1.2,2.2,2.4,3.3,3.6c1.9,2,3.5,4.1,4,6.9c0.4,2.1-0.1,3.3,0.3,4.7c0.4,0.5,0.9,1,1.4,1.5c-0.4-1.6-0.4-3.3-0.4-5
				c0-0.3,0-0.6,0-0.9c-0.1-0.7-0.2-1.9-0.2-2.2c-0.3-1.4-0.6-2.7-0.8-4.1c-0.1-1.3-0.2-2.5-0.2-3.8c-0.8-0.7-2.1-1.2-2.8-1.9
				c-1-1.1-1.5-2-1.9-3.4c2.1,0.1,4,2.2,4.7,4.2c0-1.1,0-2.2,0.2-3.3c0.1-1.2,0.3-2.4,0.3-3.5c-0.5-1.2-1.6-1.7-2.6-3.4
				c-0.8-1.4-1.3-2.9-1.3-4.7c0-1,0.1-1.8,0.5-2.7c0.3-0.6,0.5-2.5,0.5-3.2c0.8,1,2,3.1,2.9,4.2c1,1.3,1.4,2.7,1.4,4.4
				c0,1.3,0,2.6-0.2,3.9c-0.1,0.4-0.2,0.9-0.3,1.3c0,0.8,0,1.6-0.1,2.4c0-0.1,0.1-0.2,0.1-0.2c0.2-0.5,0.8-1.7,0.7-2.2
				c0-0.1,1.9-4.3,3.4-5.9c0.6-0.6,1.3-1.1,1.9-1.6c0.2-1.7,0.2-3.6-0.8-5c-0.3-0.1-0.5-0.3-0.8-0.5c-0.5-0.4-1-0.8-1.5-1.2
				c-1.5-1.4-2.6-3.2-3.2-5.2c-0.6-2-0.5-4.2-1-6.2c0.1,0.2,1.6,0.4,1.8,0.4c0.7,0.1,1.3,0.8,1.9,1.2c0.7,0.6,1.5,1.3,1.9,2.1
				c0.7,1.4,0.5,2.9,0.3,4.4c-0.1,1-0.1,1.7,0.1,2.7c0.3,1.1,0.4,1.1,0.7,1.6c0,0,0,0,0,0c0.8,1,1.2,2.3,1.2,3.6
				c0.3-1,0.5-2,0.5-3.1c0-2.1-0.4-4.2-0.2-6.3c0-0.5-0.1-0.9-0.2-1.4c-0.1-1.1-0.1-2.2,0-3.3c0.1-1.4,0.5-2.5,1.4-3.6
				c0.7-0.8,1.8-2.5,2.6-3.3c0,0.6,0,2.1,0.2,2.6c0.3,0.7,0.3,1.4,0.2,2.2c-0.1,1.4-0.6,2.6-1.3,3.8c-0.9,1.4-1.9,1.8-2.4,2.8
				c-0.6,1.3,0.3,4.2,0.4,5.7c0,1.7-0.5,3.4-1,5c1-0.9,1.7-2,2.2-3.2c0.4-0.8,0.7-1.7,0.9-2.5c0.1-0.6,0.2-1.2,0.3-1.8
				c0.1-0.4,0.4-0.8,0.6-1.2c0.2-0.4,0.4-0.8,0.7-1.1c0.2-0.3,0.6-0.5,0.8-0.8c0.6-0.6,1.2-1.1,1.9-1.4c0,0,0,0,0,0
				c0.4-0.4,1-0.7,1.3-1.1c0.4-0.5,0.4-1.2,0.8-1.8c0.9-1.4,2.1-2.5,3.4-3.5c1.2-1,2.8-1.5,4.3-1.9c1.8-0.4,3.7-0.8,5.3-1.7
				C138.2,531.2,137.7,533.7,136,535.5z"/>
		</g>
	</g>
</g>
</svg>
