<?xml version="1.0" encoding="utf-8"?>
<!-- Generator: Adobe Illustrator 21.1.0, SVG Export Plug-In . SVG Version: 6.00 Build 0)  -->
<svg version="1.1" id="Слой_1" xmlns="http://www.w3.org/2000/svg" xmlns:xlink="http://www.w3.org/1999/xlink" x="0px" y="0px"
	 viewBox="0 0 504 864" style="enable-background:new 0 0 504 864;" xml:space="preserve">
<style type="text/css">
	.st0{fill:#040404;}
	.st1{fill:#FFFFFF;}
</style>
<g>
	<g>
		<path d="M51.9,53.6c6.7-7.6,6.7-19,0.1-26.4c0.8,7.2-1.3,14.8-6.5,20.6c-5.2,5.8-12.3,8.7-19.5,8.6C34,62.2,45.2,61.1,51.9,53.6z"
			/>
		<path d="M458.4,47.7c-5.2-5.8-7.3-13.3-6.5-20.6c-6.5,7.5-6.6,18.9,0.2,26.4c6.7,7.6,17.9,8.6,25.9,2.8
			C470.7,56.4,463.6,53.5,458.4,47.7z"/>
		<path d="M26.1,807.4c7.2-0.1,14.3,2.8,19.5,8.6c5.2,5.8,7.3,13.3,6.5,20.6c6.5-7.5,6.6-18.9-0.1-26.4
			C45.2,802.6,34,801.6,26.1,807.4z"/>
		<path d="M452,810.2c-6.7,7.6-6.7,19-0.2,26.4c-0.8-7.2,1.3-14.8,6.5-20.6c5.2-5.8,12.3-8.7,19.5-8.6
			C470,801.6,458.8,802.6,452,810.2z"/>
		<path d="M503.8,18.2c-1.6-17.9-18.7-16.3-31.6-16.3c-45.9,0-91.8,0-137.6,0c-63.2,0-126.3,0-189.5,0c-40.6,0-81.2,0-121.8,0
			c-2.6,0-5.3-0.2-8,0.2c-9.5,1.2-15,9.2-15.2,18.2c-0.2,7.3,0,14.5,0,21.8c0,37.4,0,74.9,0,112.3c0,57,0,114.1,0,171.1
			c0,64.3,0,128.6,0,192.9c0,58.4,0,116.7,0,175.1c0,40.1,0,80.2,0,120.3c0,9.1,0,18.2,0,27.3c0,11.7,6.7,20.5,19.2,20.7
			c35.9,0.6,71.9,0,107.9,0c62.4,0,124.9,0,187.3,0c49.7,0,99.5,0,149.2,0c7.6,0,15.2,0,22.9,0c0.4,0,0.8-0.1,1.2-0.2
			c14.4-1.8,16.1-13.8,16.1-25.5c0-11.4,0-22.8,0-34.3c0-43.4,0-86.9,0-130.3c0-59.9,0-119.8,0-179.8c0-63.9,0-127.7,0-191.6
			c0-55.3,0-110.6,0-165.9c0-33.7,0-67.3,0-101C503.9,28.3,504.2,23.2,503.8,18.2z M486.6,852.8c-28.3,0-56.6,0-84.9,0
			c-59.9,0-119.8,0-179.7,0c-54,0-108,0-162,0c-13.1,0-26.1,0-39.2,0c-5.6,0-11-1.3-11.7-8.3c-0.2-1.5,0-3,0-4.5c0-26.5,0-53,0-79.5
			c0-50,0-100,0-149.9c0-61.8,0-123.6,0-185.4c0-61.4,0-122.7,0-184.1c0-48.9,0-97.7,0-146.6c0-24.2-0.8-48.6,0-72.7
			c0.2-5.3,1.6-10.1,8.3-10.8c2.2-0.2,4.5,0,6.7,0c14.8,0,29.6,0,44.5,0c55.6,0,111.3,0,166.9,0c58.9,0,117.8,0,176.7,0
			c18.9,0,37.9,0,56.8,0c8.1,0,24.7-3.1,25.9,8.4c0.5,5.2,0,10.8,0,16.1c0,13.5,0,27.1,0,40.6c0,45.5,0,91.1,0,136.6
			c0,60.1,0,120.2,0,180.3c0,62.6,0,125.2,0,187.7c0,52.8,0,105.6,0,158.4c0,31.4,0,62.7,0,94.1C494.8,840.3,496.9,852,486.6,852.8z
			"/>
		<path d="M460,790.9c1.2,0.1,2.4-0.7,2.4-2.2c0-23.7,0-47.4,0-71.1c0-56.4,0-112.8,0-169.2c0-68.7,0-137.4,0-206
			c0-59,0-117.9,0-176.9c0-19.6,0-39.2,0-58.8c0-8.9,1.3-19,0-27.9c-0.1-0.4,0-0.8,0-1.2c0-0.8-0.3-1.3-0.8-1.7
			c0.1-1.2-0.6-2.5-2.2-2.6c-13.1-0.5-25.3-13.8-25.8-26.7c0-0.5-0.2-0.8-0.4-1.1c-0.3-0.6-1-1.1-1.9-1.1c-40.5,0-80.9,0-121.4,0
			c-64.5,0-129,0-193.6,0c-14.9,0-29.7,0-44.6,0c-0.9,0-1.6,0.5-1.9,1.1c-0.2,0.3-0.3,0.7-0.4,1.2C69.1,59.5,57,72.8,43.9,73.3
			c-1.8,0.1-2.5,1.9-2,3.2c-0.2,0.3-0.2,0.6-0.2,1c0,23.7,0,47.4,0,71.1c0,56.4,0,112.8,0,169.2c0,68.7,0,137.4,0,206
			c0,59,0,117.9,0,176.9c0,19.6,0,39.2,0,58.8c0,8.9-1.3,19,0,27.9c0.1,0.4,0,0.8,0,1.2c0,0.9,0.5,1.6,1.1,1.9
			c0.3,0.2,0.7,0.3,1.2,0.4c13,0.5,25.3,13.3,25.8,26.2c0,0.5,0.2,0.8,0.4,1.1c0.3,0.6,1,1.1,1.9,1.1c40.5,0,80.9,0,121.4,0
			c64.5,0,129,0,193.6,0c14.9,0,29.7,0,44.6,0c0.9,0,1.6-0.5,1.9-1.1c0.2-0.3,0.3-0.7,0.4-1.2c0.5-12.9,12.7-25.7,25.8-26.2
			C459.6,791,459.8,790.9,460,790.9z M429.3,814.9c-39.8,0-79.6,0-119.3,0c-64.5,0-129,0-193.6,0c-14.2,0-28.3,0-42.5,0
			c-1.7-13.9-13.9-26.5-27.8-28.3c0-23,0-46,0-69.1c0-56.4,0-112.8,0-169.2c0-68.7,0-137.4,0-206c0-59,0-117.9,0-176.9
			c0-19.6,0-39.2,0-58.8c0-8.9,1.3-19,0-27.9c-0.1-0.4,0-0.8,0-1.2c14-1.8,26.1-14.9,27.8-28.7c39.8,0,79.5,0,119.3,0
			c64.5,0,129,0,193.6,0c14.2,0,28.3,0,42.5,0c1.7,14.1,14.3,27.4,28.5,28.8c0,23.7,0,47.3,0,71c0,56.4,0,112.8,0,169.2
			c0,68.7,0,137.4,0,206c0,59,0,117.9,0,176.9c0,19.6,0,39.2,0,58.8c0,8.6-1.2,18.4-0.1,27C443.6,788.1,431.1,800.9,429.3,814.9z"/>
		<path d="M241.3,99.7c0,0.7-0.4,1.1-1.3,1.1c-0.5,0-0.7,0.2-0.7,0.7v0.6h3.4c2.3,0,3.5,0.1,3.6,0.4c0.1,0.2,0.3,0.2,0.6-0.1
			c0.2-0.3,0.7-0.4,1.4-0.3l1,0.2v-0.9c0-0.4-0.1-0.7-0.2-0.9c-0.1-0.2-0.4-0.3-0.9-0.5c-0.7-0.2-1.1-0.4-1.1-0.6
			c0-0.1-0.3-0.3-0.8-0.6c-0.5-0.3-0.8-0.5-0.8-0.7c0-0.3-0.1-0.7-0.3-1.1c-0.2-0.4-0.4-0.6-0.6-0.6c-0.1,0-0.3-0.3-0.5-0.8
			c-0.2-0.5-0.4-0.8-0.5-0.8c-0.2,0-0.4-0.2-0.5-0.5c-0.1-0.3-0.5-0.9-1.3-1.7c-0.8-0.8-1.2-1.2-1.4-1.2c-0.1,0-0.2-0.1-0.2-0.4
			c0-0.8,0.4-1.6,1.1-2.4c0.6-0.7,0.9-1.1,0.9-1.4c0-0.2,0.3-0.5,0.8-1.1c0.5-0.5,0.9-0.8,1.1-0.8c0.1,0,0.2-0.2,0.2-0.5
			c0-0.9,0.3-1.4,0.8-1.4c0.3,0,0.5-0.1,0.5-0.3c0-0.2,0.2-0.4,0.5-0.7c0.3-0.3,0.6-0.4,0.8-0.4c0.3,0,0.6-0.2,0.8-0.6l0.4-0.6
			l0.2,0.6c0.1,0.2,0.2,0.4,0.3,0.5c0.1,0.1,0.3,0.1,0.4,0c0.1-0.1,0.2-0.2,0.3-0.4c0.1-0.4,0.3-0.5,0.7-0.5c0.2,0,0.4-0.1,0.4-0.2
			c0.1-0.1,0.1-0.4,0.1-0.8c0-0.9-0.1-1.4-0.3-1.6c-0.2-0.2-1-0.2-2.3-0.2c-1.5,0-2.3,0.1-2.3,0.4c0,0.2-0.6,0.4-1.9,0.5
			c-1.9,0.1-2.8,0.6-2.8,1.4c0,0.3,0.1,0.6,0.3,1c0.2,0.4,0.4,0.6,0.5,0.6c0.2,0,0.5,0.2,0.6,0.6c0.2,0.4,0.2,0.7-0.1,1.1
			c-0.2,0.3-0.3,0.5-0.2,0.5c0,0,0,0.1,0,0.2c-0.1,0.1-0.1,0.3-0.2,0.5c-0.3,0.4-0.4,0.8-0.4,1.1c0,0.4-0.2,0.7-0.6,1.1
			c-0.4,0.4-0.6,0.7-0.6,0.9c0,0.3-0.3,0.4-0.9,0.4c-0.4,0-0.6-0.1-0.8-0.2c-0.1-0.1-0.2-0.4-0.3-0.8c-0.1-0.6-0.4-1.1-0.7-1.3
			c-0.4-0.2-0.5-0.5-0.5-1c0-0.4-0.1-0.7-0.4-1.1c-0.3-0.3-0.5-0.6-0.5-1c-0.1-0.9-0.2-1.4-0.2-1.4c0-0.4,0.3-0.6,0.9-0.6
			c0.4,0,0.6-0.1,0.8-0.1c0.2-0.1,0.3-0.1,0.3-0.2c0.1-0.1,0.1-0.2,0.1-0.4c0-0.2,0-0.4-0.1-0.6l-0.2-0.8l-2.3,0.1
			c-1.5,0.1-2.3,0.2-2.4,0.4c0,0.1-0.2,0.2-0.4,0.3c-0.2,0.1-0.4,0.1-0.6,0s-0.3-0.1-0.3-0.2c0-0.1-0.2-0.3-0.5-0.4
			c-0.4-0.2-0.7-0.2-1.1-0.2c-0.5,0-0.8,0.2-0.8,0.6c0,0.2-0.2,0.4-0.7,0.4c-0.2,0-0.3,0.1-0.4,0.2c0.2,0.1,0.3,0.3,0.3,0.6
			c0,0.3,0.1,0.5,0.4,0.5c0.3,0,0.5,0.1,0.6,0.4c0.1,0.2,0.4,0.4,1.1,0.6c0.7,0.1,1.1,0.4,1.2,0.8c0.2,0.4,0.4,0.6,0.6,0.6
			c0.2,0,0.3,0.3,0.3,0.8c0,0.5,0.1,0.8,0.4,0.8c0.2,0,0.4,0.2,0.4,0.5c0,0.4,0.2,0.7,0.6,0.9c0.4,0.2,0.5,0.5,0.4,0.6
			c-0.1,0.2,0,0.4,0.2,0.5c0.2,0.1,0.5,0.4,0.7,0.9c0.2,0.5,0.4,0.8,0.6,0.8c0.1,0,0.2,0.2,0.2,0.5c0,0.4,0.2,0.6,0.6,0.7
			c0.2,0.1,0.4,0.2,0.4,0.5c0,0.1,0,0.3-0.1,0.5c-0.1,0.2-0.1,0.4-0.1,0.5c0,0.2-0.2,0.4-0.5,0.5c-0.3,0.1-0.5,0.4-0.7,0.9
			c-0.1,0.5-0.3,0.8-0.4,0.8c-0.2,0-0.5,0.3-1.1,0.9c-0.5,0.6-0.8,1-0.8,1.3c0,0.3-0.1,0.5-0.4,0.5c-0.3,0-0.4,0.1-0.4,0.3
			c0,0.3-0.2,0.5-0.6,0.7c-0.4,0.2-0.6,0.5-0.6,1.1c0,0.2,0,0.4,0,0.4c0,0.1-0.1,0.2-0.2,0.2c-0.1,0.1-0.3,0.1-0.4,0.1
			c-0.2,0-0.5,0-0.9,0.1c-0.9,0-1.4,0.2-1.7,0.4c-0.2,0.2-0.4,0.7-0.4,1.4l0.2,0.8c0.2,0.4,0.4,0.3,0.5-0.2c0.1-0.2,1.2-0.4,3.3-0.4
			c1.4,0,2.3,0,2.6,0.1c0.3,0,0.5,0.2,0.5,0.4c0,0.1,0.1,0.2,0.2,0.2c0.2-0.2,0.4-0.3,0.5-0.3c0,0,0.1,0.1,0.2,0.1
			c0.2,0,0.4-0.1,0.6-0.3c0.2-0.2,0.4-0.5,0.5-0.8c0.1-0.2,0.1-0.4-0.1-0.5c-0.1-0.1-0.4-0.2-0.9-0.2c-1.2-0.2-1.8-0.6-1.8-1.2
			c0-0.2,0.1-0.3,0.4-0.3c0.2,0,0.4-0.2,0.4-0.6s0.1-0.6,0.4-0.6c0.2,0,0.4-0.1,0.4-0.4c0-0.1,0.2-0.4,0.6-0.8
			c0.4-0.5,0.6-0.8,0.6-0.9c0-0.5,0.1-1,0.3-1.5c0.3-0.5,0.6-0.7,0.9-0.7l0.1,0.1c0,0,0.1,0,0.1,0c0.3,0.1,0.4,0.2,0.4,0.5
			c0,0.1,0.3,0.5,0.8,1.2c0.5,0.7,0.8,1.1,0.8,1.2c0,0.2,0.1,0.3,0.4,0.4c0.2,0.1,0.4,0.4,0.5,0.9c0.1,0.5,0.4,0.8,1,0.9l0.9,0.2
			l-0.8,0.1C241.6,99.2,241.3,99.4,241.3,99.7z M235,81.1c0,0.1,0,0.1-0.1,0.1l-0.1-0.3c0-0.1,0-0.2,0.1-0.3c0-0.1,0.1-0.1,0.1,0.1
			C235.1,80.9,235.1,81,235,81.1z M235.5,85.6c-0.1,0-0.2,0-0.2-0.1c0-0.1,0.1-0.2,0.2-0.2c0.1,0,0.1,0.1,0.1,0.2
			C235.6,85.5,235.6,85.6,235.5,85.6z M236.1,87.2c0,0.1,0,0.1-0.1,0.1l-0.1-0.3c0-0.2,0.1-0.3,0.2-0.2
			C236.1,87,236.1,87.1,236.1,87.2z M239,93.1c-0.2,0-0.3-0.1-0.3-0.3c0-0.2,0.1-0.3,0.3-0.3c0.2,0,0.3,0.1,0.3,0.3
			C239.3,93.1,239.2,93.1,239,93.1z"/>
		<path d="M230.9,86.7c0-0.2,0-0.3-0.1-0.5c-0.1-0.5-0.3-0.5-0.6-0.2c-0.1,0.1,0,0.4,0.3,0.8l0.3,0.6L230.9,86.7z"/>
		<path d="M276,78.2h-3.7c-2.5,0-3.7,0.1-3.7,0.3c0,0.2-0.1,0.3-0.3,0.3c-0.3,0-0.6,0.2-0.9,0.6c-0.4,0.5-0.4,0.7-0.2,0.7
			c0.3,0,0.5,0.1,0.5,0.4c0.1,0.3,0.5,0.4,1.1,0.4c0.6,0,1,0.2,1.1,0.7c0.1,0.5,0.1,0.7-0.1,0.8c-0.2,0.1-0.3,0.5-0.3,1.3
			c0,0.7-0.1,1.2-0.4,1.3c-0.2,0.1-0.3,0.3-0.3,0.7c0,0.1,0.1,0.2,0.1,0.4c0,0.5-0.1,0.9-0.3,1.4c-0.2,0.5-0.4,0.8-0.7,0.8
			c-0.4,0.1-0.5,0.4-0.5,0.9c0,0.5-0.1,0.9-0.3,1.1c-0.2,0.2-0.4,0.8-0.4,1.7c-0.1,1-0.3,1.5-0.6,1.5c-0.4,0-0.5,0.2-0.4,0.5
			c0,0.2,0,0.4,0,0.4c-0.1,0.1-0.2,0.1-0.4,0.1c-0.4,0-0.7-0.1-0.9-0.2c-0.5-0.3-0.7-1.2-0.8-2.9c0-0.7-0.1-1.2-0.4-1.4
			c-0.2-0.2-0.3-0.7-0.3-1.6c0-1.3-0.3-2.2-0.9-2.6c-0.2-0.1-0.2-0.3,0.1-0.4c0.1,0,0.2-0.2,0.3-0.4c0.1-0.2,0.1-0.5,0.1-0.7
			c0-0.2-0.1-0.3-0.2-0.3c-0.1,0-0.3-0.3-0.4-0.8c-0.1-0.6-0.4-0.9-0.7-0.9c-0.3-0.1-0.4-0.2-0.4-0.3c0-0.4,0.5-0.5,1.4-0.5
			c1.3,0,1.9-0.2,1.9-0.7c0-0.2,0.1-0.4,0.3-0.4c0.2,0,0.1-0.3-0.3-0.8c-0.4-0.5-0.9-0.8-1.6-0.8c-0.7,0-1.1-0.1-1.2-0.3
			c-0.1-0.1-0.3-0.1-0.7,0.1c-0.4,0.2-0.6,0.2-0.7-0.1c-0.2-0.2-0.3-0.3-0.4-0.1c-0.1,0.2-0.5,0.3-1.1,0.3c-0.4,0-0.6,0-0.8-0.1
			c-0.1-0.1-0.2-0.3-0.3-0.7c-0.1-0.5-0.3-0.8-0.7-0.8c-0.2,0-0.5,0.2-0.8,0.5c-0.4,0.4-0.7,0.5-1.2,0.5c-0.4,0-0.6,0.1-0.6,0.4
			c0,0.3-0.1,0.4-0.3,0.4s-0.3,0.2-0.3,0.6c0,0.5,0.1,0.7,0.3,0.7s0.3,0.1,0.3,0.4c0,0.2,0.3,0.4,1,0.5c0.6,0.1,1.1,0.4,1.5,0.9
			c0.4,0.5,0.7,1.1,0.7,1.6c0,0.5,0.1,1,0.3,1.6c0.2,0.6,0.4,0.9,0.5,0.9c0.1,0,0.2,0.3,0.2,0.8c0,0.6,0.2,1.1,0.5,1.4
			c0.3,0.3,0.5,0.9,0.8,1.8c0.2,0.9,0.3,1.7,0.3,2.5c0,0.9,0.1,1.4,0.4,1.4c0.1,0.1,0.2,0.3,0.2,0.7c0,0.4,0.1,0.6,0.2,0.6
			c0.2,0.1,0.3,0.6,0.3,1.6c0,0.9,0.1,1.4,0.4,1.4c0.2,0,0.4,0.3,0.6,1c0.2,0.7,0.4,1,0.5,1c0.2,0,0.4,0.3,0.4,0.8
			c0.1,0.7,0.5,1,1.3,1c0.1,0,0.4,0,0.6-0.1c0.5-0.1,0.7-0.4,0.7-1.1c0-0.6,0.1-0.9,0.3-0.9c0.2,0,0.3-0.3,0.3-0.9
			c0-0.6,0.1-0.9,0.3-0.9c0.2-0.1,0.3-0.6,0.3-1.5c0-0.9,0.2-1.6,0.6-1.9c0.5-0.5,0.8-0.7,1.1-0.8c0.3-0.1,0.4-0.5,0.4-1.3
			c0-0.8,0.1-1.2,0.4-1.4c0.2-0.1,0.4-0.6,0.6-1.5c0.2-0.9,0.3-1.4,0.4-1.5c0.3-0.2,0.4-0.5,0.4-0.9c0-0.4,0.2-0.6,0.7-0.7
			c0.4,0,0.6-0.3,0.6-0.7c0-0.2-0.1-0.6-0.1-1c0-1,0.2-1.5,0.6-1.5c0.4,0,0.5-0.3,0.5-0.8c0-0.5,0.2-0.9,0.6-1.4
			c0.4-0.4,0.9-0.7,1.6-0.8c0.8-0.2,1.2-0.6,1.2-1.4c0-0.1,0-0.4-0.1-0.7L276,78.2z"/>
		<path d="M182.9,785.3c0.1,0,0.2-0.2,0.2-0.5c0-0.2,0-0.4-0.1-0.4c-0.1,0-0.1-0.1-0.1-0.3c0-0.2,0.1-0.4,0.2-0.6
			c0.1-0.3,0.1-0.5-0.2-0.6c-0.2-0.2-0.5-0.3-0.9-0.3c-0.5,0-0.8,0.1-1.1,0.4c-0.3,0.2-0.4,0.3-0.5,0.2c-0.1-0.1-0.4-0.1-0.8,0
			c-0.5,0.1-1.4,0.2-2.6,0.2c-0.9,0-1.4,0-1.5-0.1c-0.1-0.1-0.2,0-0.4,0.2c-0.1,0.1-0.3,0.2-0.4,0.2c-0.2,0-0.4,0-0.7-0.1
			c-0.7-0.2-1.1-0.2-1.3-0.2c-0.1,0-0.2,0-0.2,0c-0.1,0-0.3,0.1-0.4,0.3c-0.1,0.2-0.2,0.4-0.2,0.5c0,0.1,0,0.1,0.1,0.2
			c0,0,0.1,0.2,0.1,0.5c0,0.1,0,0.2-0.1,0.3c-0.1,0-0.2,0.1-0.3,0.1c-0.3,0-0.5,0.1-0.5,0.3c0,0,0,0.1,0.1,0.2
			c0.1,0.1,0.1,0.3,0.1,0.6c0,0.3-0.1,0.4-0.1,0.5c0,0.5,0.2,0.8,0.6,0.8c0.3,0,0.4-0.1,0.4-0.2c0-0.1,0.1-0.2,0.2-0.2
			c0.1,0,0.1,0,0.2-0.1c0,0,0-0.1,0-0.2c0-0.1-0.1-0.2-0.2-0.2c-0.1-0.1-0.1-0.1-0.1-0.2c0,0,0-0.1,0-0.1c0,0,0-0.1,0.1-0.1
			c0,0,0.1,0,0.2-0.1c0.2-0.1,0.2-0.2,0.2-0.3c0,0,0-0.1,0-0.2c0-0.1,0-0.1,0-0.2c0-0.1,0-0.2,0.1-0.2c0.1-0.1,0.1-0.3,0-0.6
			c-0.1-0.3-0.1-0.4,0-0.4c0.1,0,0.1,0.1,0.1,0.2c0,0.1,0.2,0.2,0.5,0.4c0.4,0.1,0.7,0.2,1.1,0.2c0.4,0,0.7,0.1,0.8,0.3
			c0.2,0.2,0.3,0.2,0.5,0.2c0.1,0,0.1,0,0.1,0c0.1,0,0.1,0,0,0.1c-0.3,0.3-0.4,2.2-0.5,5.8c0,0.8-0.1,1.2-0.3,1.4
			c-0.2,0.1-0.3,0.3-0.3,0.4c0,0.1-0.3,0.2-0.8,0.2l-0.7,0.1l-0.1,0.5c0,0,0,0.1,0,0.1c0,0,0,0.1,0,0.1c0,0.2,0.1,0.4,0.4,0.7
			c0.3,0.3,0.5,0.4,0.7,0.4c0.1,0,0.1,0,0.1-0.1c0-0.1,0-0.1-0.1-0.1c-0.1,0-0.1,0-0.1-0.1c0-0.1,0.2-0.1,0.5-0.1c0.1,0,0.4,0,0.8,0
			c0.4,0,0.7,0,0.9,0c0.6,0,0.9-0.1,1.1-0.2c0.1-0.1,0.3-0.2,0.6-0.1c0.2,0.1,0.3,0,0.4-0.1c0.1-0.1,0.2-0.1,0.3-0.1
			c0.1,0,0.3-0.1,0.5-0.2c0.1-0.1,0.2-0.2,0.2-0.3c0-0.1-0.1-0.2-0.2-0.5c-0.2-0.3-0.3-0.4-0.5-0.4c-0.1,0-0.2-0.1-0.2-0.2
			c0-0.1-0.1-0.2-0.3-0.1c0,0-0.1,0-0.1,0c-0.1,0-0.1,0-0.1,0c-0.1,0-0.2,0-0.3-0.1c0-0.1-0.1-0.3-0.1-0.5v-0.4c0-0.5,0-0.8,0-0.9
			c0-0.1,0.1-0.2,0.2-0.2c0.2,0,0.2-0.1,0.2-0.4c0-0.3-0.1-0.5-0.2-0.5c-0.1,0-0.2-0.4-0.2-1.1c0-0.8,0.1-1.2,0.2-1.4
			c0.1-0.1,0.2-0.5,0.2-1.2c0-0.7,0.1-1,0.1-1.1c0.1-0.2,0.5-0.2,1.2-0.2c1,0,1.5,0.1,1.6,0.4c0,0.1,0.1,0.2,0.4,0.5
			c0.2,0.2,0.3,0.4,0.3,0.8c0,0.3,0.1,0.5,0.1,0.5c0,0.1,0.2,0.1,0.4,0.1c0.2,0,0.4,0,0.4-0.1c0-0.1,0.1-0.2,0.3-0.2
			c0.2-0.1,0.3-0.2,0.3-0.4c0-0.2-0.1-0.4-0.2-0.5C182.8,785.4,182.8,785.3,182.9,785.3z"/>
		<path d="M203.5,781.9c-0.2-0.1-0.5-0.1-0.8-0.1c-0.1,0-0.2,0-0.5,0.1c-0.3,0.1-0.5,0.1-0.7,0.1h-0.1h-0.2c-0.2,0-0.5,0-1,0.1
			c-0.4,0-0.7,0.1-0.8,0.1c-0.1,0-0.2,0.1-0.2,0.2c0,0.2,0,0.3-0.1,0.3c-0.1,0-0.1,0-0.1,0.1c0,0.1,0,0.2,0,0.3
			c0,0.1,0.1,0.2,0.2,0.2c0.1,0.1,0.2,0.5,0.2,1.3c0,0.8,0.1,1.2,0.2,1.2c0.1,0,0.1,0.3,0.1,0.8v0.8h-1.3c-0.8,0-1.7,0-2.7-0.1
			l-1.4-0.1v-0.7c0-0.4,0-0.7,0.1-0.7c0.1,0,0.1-0.3,0.2-0.9c0-1.1,0.1-1.6,0.4-1.6c0.1,0,0.2,0,0.2-0.1c0-0.1,0.1-0.2,0.4-0.2
			c0.2,0,0.4-0.1,0.5-0.2c0.1-0.1,0.2-0.2,0.2-0.4c0-0.2-0.1-0.3-0.2-0.4c-0.2-0.1-0.5-0.2-1-0.2c-0.3,0-0.4,0-0.5,0.1
			c0,0-0.5,0.1-1.3,0.1c-0.9,0.1-1.7,0.2-2.4,0.5c-0.1,0-0.2,0.1-0.2,0.2c0,0.1,0.2,0.2,0.6,0.4l0.6,0.3l0,0.8v0.9v0.3
			c0,0.2,0,0.4,0.1,0.4c0.1,0.1,0.2,0.5,0.2,1.1c0,0.6-0.1,1.1-0.2,1.4c-0.1,0.3-0.2,0.5-0.2,0.8c0,0,0,0,0,0.1c0,0,0,0.1,0,0.1
			c0,0.2,0.1,0.4,0.1,0.6c0,0.5,0,1.1-0.1,1.8c-0.1,0.6-0.2,1-0.2,1.2c-0.1,0.2-0.4,0.3-0.8,0.3c-0.3,0-0.5,0.1-0.6,0.1
			c-0.1,0.1-0.1,0.2-0.1,0.4v0.5l0.7-0.1c0.3-0.1,1-0.1,2.2-0.1h0.7h0.7c1,0,1.6,0,1.6-0.1c0-0.1-0.1-0.3-0.2-0.5
			c-0.2-0.2-0.3-0.3-0.4-0.3h-0.1c-0.2,0.1-0.4,0.1-0.6-0.1c-0.1-0.1-0.2-0.1-0.3-0.2c0-0.1-0.1-0.2-0.1-0.4c0-0.3,0-0.5,0-0.8
			c0-0.9,0.1-1.6,0.1-2.1v-0.8h4.9l0.1,0.4c0,0.2,0.1,0.5,0.1,0.7c0,0.5,0,1.1-0.1,1.7c-0.1,0.6-0.2,1-0.3,1
			c-0.1,0.1-0.4,0.2-0.8,0.3c-0.3,0-0.5,0.1-0.5,0.1c-0.1,0.1-0.1,0.2-0.1,0.4c0,0.3,0.1,0.5,0.3,0.5c0.3,0.1,1.3,0.1,3.1,0.1
			c1.3,0,2,0,2.1-0.1c0.2-0.1,0.3-0.2,0.3-0.4c0-0.2-0.1-0.3-0.2-0.5c-0.1-0.1-0.3-0.2-0.4-0.2c0,0,0,0-0.1,0c0,0,0,0-0.1,0
			c-0.1,0.1-0.3,0.1-0.5,0l-0.4-0.1l0.1-3.5c0-2.3,0.1-3.5,0.2-3.6c0.1,0,0.1-0.3,0.1-0.9c0.1-1.1,0.2-1.6,0.4-1.6
			c0.1,0,0.2,0,0.2-0.1c0-0.1,0.1-0.2,0.4-0.2c0.2,0,0.4-0.1,0.5-0.2c0.2-0.1,0.2-0.3,0.2-0.4C203.9,782.1,203.8,782,203.5,781.9z
			 M192.7,790.8c-0.2-0.1-0.3-0.1-0.3-0.2c0-0.1,0-0.1,0.1-0.1c0.2,0,0.3,0.1,0.4,0.2c0,0,0,0,0,0.1
			C192.9,790.8,192.8,790.8,192.7,790.8z M193.4,790.7c-0.1,0-0.1-0.1-0.1-0.2c0-0.1,0-0.2,0.1-0.2c0.1,0,0.2,0.1,0.2,0.2
			C193.5,790.7,193.5,790.7,193.4,790.7z M193.4,787c-0.1,0-0.2-0.1-0.2-0.3c0-0.3,0.1-0.4,0.2-0.4c0.2,0,0.2,0.1,0.2,0.3
			C193.6,786.9,193.5,787,193.4,787z M200.5,790.8c-0.1,0.1-0.2,0.1-0.4,0c-0.2-0.1-0.3-0.1-0.3-0.2c0-0.1,0.1-0.1,0.2-0.1
			c0.3,0,0.5,0.1,0.5,0.2C200.6,790.7,200.5,790.8,200.5,790.8z M200.9,790.7c-0.1,0-0.2-0.1-0.2-0.2c0-0.1,0.1-0.2,0.2-0.2
			c0.1,0,0.1,0.1,0.1,0.2C201,790.7,201,790.7,200.9,790.7z M200.9,787c-0.1,0-0.2-0.1-0.2-0.3c0-0.3,0.1-0.4,0.2-0.4
			c0.1,0,0.2,0.1,0.2,0.3C201.1,786.9,201,787,200.9,787z"/>
		<path d="M210.9,792.1c0,0,0.1,0,0.1-0.1c0.1-0.2,0.1-0.3,0-0.3c-0.1,0-0.2,0.1-0.2,0.2C210.8,792,210.8,792.1,210.9,792.1z"/>
		<path d="M221.1,790.2c-0.1,0-0.3,0.2-0.5,0.5c-0.3,0.3-0.4,0.6-0.4,0.7c0,0.1-0.1,0.2-0.4,0.2c-0.1,0-0.2,0-0.3,0.1
			c0,0-0.1,0.1-0.1,0.1c0,0,0,0.1,0,0.3c0,0.2-0.1,0.3-0.4,0.3c0,0-0.1,0-0.1,0c-0.1,0-0.1,0-0.2,0c-0.2,0-0.4,0.1-0.6,0.3
			c-0.2,0.2-0.4,0.3-0.6,0.3c-0.1,0-0.2-0.1-0.2-0.2c0-0.1-0.1-0.1-0.4,0c-0.2,0.1-0.6,0.2-1.2,0.2c-0.5,0-0.7,0-0.7-0.1
			c0-0.1-0.1-0.1-0.2-0.1c-0.1,0-0.1-0.1-0.2-0.2c-0.1-0.2-0.1-0.3-0.1-0.4c0-0.1,0-0.2,0-0.3c0-0.2,0-0.4,0-0.6c0-0.3,0-0.5,0-0.8
			c0-0.3,0-0.5,0-0.8c0-0.3,0-0.5,0-0.6v-0.2c0-0.1,0.4-0.1,1.3-0.1c0.7,0,1.2,0.1,1.4,0.2c0.2,0.1,0.4,0.4,0.4,0.8
			c0,0.2,0,0.3,0.1,0.3c0,0,0.1,0,0.2,0c0.1-0.1,0.3-0.1,0.5-0.1c0.1,0,0.2,0,0.3-0.1c0-0.1,0.1-0.2,0.1-0.5c0-0.1,0-0.2,0-0.3
			c0-0.2,0-0.3,0-0.4v-0.2c0-0.3,0-0.6,0.1-0.7c0.1-0.1,0.1-0.3,0-0.4c-0.1-0.1-0.1-0.3,0.1-0.4c0.1-0.1,0.2-0.2,0.2-0.4
			c0-0.3-0.3-0.4-1-0.4c-0.4,0-0.6,0.2-0.6,0.5c0,0.1,0,0.2,0.1,0.3c0,0.2,0,0.4,0,0.5s-0.3,0.2-0.9,0.3c-0.5,0.1-1,0.1-1.5,0.1
			h-0.6v-0.6c0-0.4,0.1-0.6,0.2-0.6c0.1,0,0.2-0.1,0.2-0.4c0-0.3-0.1-0.5-0.2-0.9c-0.1-0.2-0.2-0.4-0.1-0.4c0-0.1,0.1-0.1,0.2-0.3
			c0.2-0.1,0.3-0.3,0.2-0.5c0,0,0-0.1,0-0.2c0-0.1,0.1-0.3,0.4-0.3c0.3-0.1,0.7-0.1,1.5-0.2c0.7,0,1.1-0.1,1.1-0.1
			c0.3,0,0.5,0.1,0.6,0.2c0.1,0.2,0.3,0.3,0.5,0.4c0.2,0.1,0.3,0.2,0.3,0.3c0,0.1,0.1,0.2,0.3,0.3c0.2,0.1,0.3,0.2,0.3,0.3
			c0,0.2,0.1,0.3,0.3,0.5c0.2,0.2,0.4,0.2,0.6,0.2h0c0.3,0,0.4-0.2,0.4-0.6c0-0.2-0.1-0.3-0.2-0.5c-0.1-0.1-0.2-0.3-0.2-0.5
			c0-0.3-0.1-0.5-0.2-0.5c-0.1,0-0.1-0.1,0-0.4c0.1-0.1,0.1-0.2,0.1-0.3c0,0-0.1-0.1-0.1-0.1c-0.1-0.1-0.2-0.2-0.2-0.3
			s-0.1-0.3-0.3-0.5c-0.2-0.2-0.4-0.3-0.6-0.1c-0.3,0.1-1.8,0.3-4.7,0.4h-0.7c-1.5,0-2.2-0.1-2.3-0.3c0-0.1-0.1-0.1-0.2-0.1
			s-0.2,0-0.2,0.1l0,0.1c0,0.1,0,0.1,0,0.1c0,0,0,0.1,0,0.2c0,0.1,0,0.2,0,0.2c0,0.2-0.1,0.3-0.3,0.3c-0.2,0.1-0.3,0.2-0.2,0.5
			c0.1,0.2,0.1,0.4,0.2,0.5c0.1,0.1,0.2,0.1,0.3,0.1c0.1,0,0.3,0,0.4,0c0.1,0,0.2,0,0.4,0c0.3,0,0.5,0.1,0.6,0.4
			c0.1,0.2,0.1,0.7,0.1,1.4c0,0.9-0.1,1.4-0.2,1.4c-0.1,0-0.1,0.2,0,0.4c0.1,0.2,0.1,0.4,0,0.6c-0.1,0.2-0.2,0.3-0.3,0.3
			c-0.1,0-0.1,0.1,0.1,0.2c0.1,0.1,0.1,0.3,0.1,0.6c0,0.5-0.1,1.5-0.2,2.8l-0.1,0.9h-0.6c-0.4,0-0.6,0.1-0.6,0.3
			c0,0.2-0.1,0.3-0.3,0.3c-0.1,0-0.2,0.1-0.2,0.3c0,0.3,0.1,0.5,0.3,0.6c0.2,0.1,0.3,0.2,0.3,0.4c0,0.1,0.2,0.1,0.7,0.1
			c0.5,0,0.8-0.1,0.9-0.3c0.1-0.1,0.5-0.2,1.2-0.2c0.5,0,0.9,0,1.3,0c0.7,0,1.1,0.1,1.2,0.2c0,0.1,0.2,0.1,0.4,0
			c0.2-0.1,0.7-0.2,1.5-0.2c0.8,0,1.3,0,1.5-0.1c0.2,0,0.3-0.1,0.5-0.3c0.2-0.2,0.3-0.3,0.2-0.5c0-0.2,0-0.3,0.1-0.4
			c0.1-0.1,0.2-0.3,0.2-0.8c0-0.3,0-0.5,0-0.6s0.1-0.1,0.2-0.1c0.2,0,0.3-0.2,0.3-0.5c0-0.2-0.1-0.4-0.2-0.6
			C221.4,790.3,221.2,790.2,221.1,790.2z"/>
		<path d="M252.5,785.5c0-0.2-0.1-0.3-0.2-0.5c-0.2-0.2-0.3-0.3-0.4-0.3c-0.1,0-0.2-0.1-0.2-0.2c0-0.1-0.1-0.3-0.3-0.6
			c-0.2-0.2-0.3-0.3-0.4-0.3c-0.1,0-0.2-0.1-0.2-0.2c0-0.1-0.1-0.2-0.3-0.3c-0.2-0.1-0.3-0.1-0.3-0.2c0-0.1-0.1-0.1-0.4-0.1
			c-0.2,0-0.3-0.1-0.6-0.2c-0.2-0.1-0.4-0.2-0.5-0.2c-0.2,0-0.3,0-0.3-0.1c0-0.1-0.1-0.1-0.4-0.1c-0.2,0-0.3,0-0.4-0.1
			c-0.1-0.1-0.2-0.1-0.2-0.1c-0.1,0-0.2,0-0.4,0.1c-0.3,0.1-0.6,0.2-1,0.2c-0.2,0-0.4,0-0.4-0.1c-0.1,0-0.1-0.1-0.1-0.2
			c0-0.2-0.1-0.3-0.2-0.3c-0.1,0-0.2,0-0.3,0.2c-0.1,0.1-0.1,0.1-0.2,0c-0.2-0.3-0.3-0.2-0.4,0.1c-0.1,0.2-0.2,0.3-0.4,0.2
			c-0.2-0.1-0.5-0.2-1-0.2c-0.4,0-0.7-0.1-0.8-0.2c0-0.1-0.1-0.1-0.3,0.1s-0.3,0.1-0.3,0c-0.1-0.1-0.2-0.2-0.5-0.2
			c-0.2,0-0.4,0-0.4,0.1c0,0.1-0.1,0.1-0.3,0.1c-0.1,0-0.2,0-0.2,0.1c0,0.1-0.1,0.3-0.1,0.5s0,0.5,0.1,0.6c0,0.1,0.2,0.2,0.3,0.3
			c0.2,0.1,0.3,0.1,0.4,0.1c0,0,0.1,0,0.1,0c0.1,0,0.1,0,0.1,0c0.1,0,0.2,0,0.3,0.1c0.2,0.1,0.4,0.4,0.4,0.8c0,0.4,0,0.6-0.1,0.6
			c-0.1,0-0.1,0.3-0.1,0.9c0,0.6,0,0.8,0.1,0.8c0.1,0,0.1,0.1,0.1,0.4c0,0.2,0,0.4-0.1,0.5c-0.1,0.1-0.1,1-0.2,2.8l-0.1,2.7l-0.5,0
			c-0.4,0-0.6,0.2-0.8,0.4c-0.2,0.2-0.3,0.4-0.3,0.5c0,0.1,0.1,0.2,0.4,0.4c0.3,0.2,0.5,0.2,0.7,0.2c0.1,0,0.2,0,0.2-0.1
			c0-0.1,0.3-0.1,0.8-0.1s0.8,0,0.8,0.1c0,0.1,0.9,0.2,2.6,0.2c1.1,0,1.7,0,1.8-0.1c0.1-0.1,0.4-0.2,0.7-0.2
			c0.4-0.1,0.8-0.2,1.3-0.5c0.5-0.2,0.8-0.4,1-0.4c0.2,0,0.3-0.1,0.4-0.4c0.1-0.3,0.3-0.6,0.7-1.1c0.4-0.4,0.6-0.7,0.6-0.8
			c0-0.1,0-0.2,0.1-0.2c0.1,0,0.1-0.1,0.1-0.3c0-0.2,0.1-0.4,0.2-0.5c0.1-0.1,0.1-0.8,0.1-2c0-1.4-0.1-2.1-0.2-2.2
			C252.5,785.8,252.5,785.7,252.5,785.5z M250.4,789.7c-0.1,0.1-0.2,0.2-0.2,0.5s-0.1,0.4-0.2,0.6c-0.3,0.3-0.5,0.6-0.6,1
			c-0.1,0.2-0.1,0.2-0.2,0.2s-0.3,0.2-0.7,0.5c-0.4,0.3-0.7,0.5-0.9,0.5c-0.2,0-0.3,0.1-0.4,0.2c-0.1,0.1-0.1,0.1-0.2,0
			c-0.1-0.1-0.1-0.2-0.3-0.2c-0.1,0-0.2,0.1-0.3,0.2c0,0.1-0.3,0.1-0.9,0.1c-0.6,0-1.1,0-1.6,0c-0.2,0-0.2-0.1-0.2-0.4
			c0-0.2-0.1-0.4-0.2-0.4s-0.2,0-0.2-0.1c0-0.1,0.1-0.1,0.2-0.2c0.1-0.1,0.2-0.2,0.2-0.3c0-0.1,0.1-0.2,0.2-0.2
			c0.1,0,0.1-0.1,0.2-0.4s0.1-0.5,0.1-0.8c0-0.1,0-0.3-0.1-0.5c0,0,0,0,0-0.1c0,0,0-0.1,0-0.1c0-0.2,0.1-0.4,0.2-0.6l0.2-0.4
			c0,0-0.1-0.1-0.2-0.1c-0.1,0-0.2-0.3-0.2-0.8c0-0.5,0-1,0-1.5c0-1.4,0.1-2.2,0.1-2.4c0-0.3,0.1-0.5,0.4-0.8
			c0.2-0.2,0.4-0.3,0.6-0.3c0.1,0,0.2,0,0.3,0c0.1,0,0.3,0,0.7,0.1c0.4,0,0.7,0.1,1,0.1c0.3,0.1,0.4,0.1,0.5,0.2
			c0.1,0.1,0.2,0.2,0.4,0.2c0.2,0,0.4,0.1,0.4,0.3c0.1,0.2,0.2,0.3,0.3,0.3c0.2,0,0.2,0,0.2,0.1c0,0.1,0.1,0.2,0.3,0.2
			c0.2,0.1,0.3,0.2,0.3,0.3c0,0.1,0.1,0.3,0.2,0.4c0.1,0.1,0.2,0.4,0.3,0.9c0,0.4,0.1,0.7,0.2,0.8c0.1,0.1,0.1,0.5,0.1,1.3
			S250.5,789.7,250.4,789.7z"/>
		<path d="M270.5,790.2c-0.1,0-0.3,0.2-0.5,0.5s-0.4,0.6-0.4,0.7c0,0.1-0.1,0.2-0.4,0.2c-0.2,0-0.3,0.1-0.3,0.1c0,0,0,0.1,0,0.3v0.2
			c0,0.2-0.1,0.3-0.4,0.3c0,0-0.1,0-0.2,0c-0.1,0-0.1,0-0.2,0c-0.2,0-0.4,0.1-0.7,0.4c-0.2,0.2-0.4,0.3-0.6,0.3
			c-0.1,0-0.2-0.1-0.2-0.2s-0.2-0.1-0.4,0c-0.2,0.1-0.6,0.2-1.2,0.2c-0.5,0-0.7,0-0.7-0.1c0-0.1-0.1-0.1-0.2-0.1
			c-0.1,0-0.1-0.1-0.2-0.2c-0.1-0.2-0.1-0.3-0.1-0.5c0,0,0-0.6,0.1-1.8c0-1.2,0.1-1.8,0.1-1.8c0-0.1,0.5-0.1,1.4-0.1
			c0.8,0,1.3,0.1,1.5,0.2c0.3,0.1,0.4,0.4,0.4,0.8c0,0.2,0,0.3,0.1,0.3c0,0,0.1,0,0.2,0c0.2-0.1,0.4-0.1,0.6-0.1h0.1
			c0.2,0,0.3-0.2,0.3-0.6c0-0.1,0-0.2,0-0.3c0-0.2,0-0.3,0-0.4v-0.3c0-0.4,0-0.6,0.1-0.6c0.1-0.1,0.1-0.3,0-0.4
			c-0.1-0.1-0.1-0.3,0.1-0.4c0.2-0.1,0.2-0.2,0.2-0.4c0-0.3-0.4-0.4-1.1-0.4c-0.4,0-0.6,0.2-0.6,0.5c0,0.1,0,0.2,0.1,0.3
			c0.1,0.2,0,0.3-0.1,0.5c-0.1,0.1-0.4,0.2-0.9,0.3c-0.6,0.1-1.1,0.2-1.6,0.2h-0.6V787c0-0.4,0.1-0.6,0.2-0.6c0.1,0,0.2-0.1,0.2-0.4
			c0-0.3-0.1-0.6-0.2-0.9c-0.1-0.2-0.2-0.4-0.2-0.4c0-0.1,0.1-0.1,0.2-0.3c0.2-0.2,0.3-0.3,0.2-0.5c0,0,0-0.1,0-0.2
			c0-0.2,0.1-0.3,0.4-0.4c0.3-0.1,0.8-0.1,1.5-0.2c0.6,0,1-0.1,1.1-0.1c0.4,0,0.6,0.1,0.7,0.2c0.2,0.2,0.3,0.3,0.5,0.4
			c0.2,0.1,0.3,0.2,0.3,0.3c0,0.1,0.1,0.2,0.4,0.3c0.2,0.1,0.4,0.3,0.4,0.3c0,0.2,0.1,0.3,0.3,0.5c0.2,0.2,0.4,0.3,0.6,0.3h0.1
			c0.3,0,0.4-0.2,0.4-0.7c0-0.2-0.1-0.4-0.2-0.5c-0.1-0.2-0.2-0.4-0.2-0.6c0-0.3-0.1-0.5-0.2-0.5c-0.1-0.1-0.1-0.2,0-0.4
			c0.1-0.1,0.1-0.2,0.1-0.3c0-0.1-0.1-0.1-0.2-0.2c-0.1-0.1-0.2-0.2-0.2-0.3c0-0.1-0.1-0.3-0.3-0.5c-0.1-0.1-0.2-0.2-0.3-0.2
			c-0.1,0-0.2,0-0.3,0.1c-0.2,0.1-1.9,0.3-5,0.3h-0.7c-1.5,0-2.3-0.1-2.4-0.3c0-0.1-0.1-0.1-0.3-0.1c-0.1,0-0.2,0-0.2,0.1
			c0,0.1-0.1,0.2-0.1,0.3c0,0.2,0,0.3,0,0.3c0,0.2-0.1,0.3-0.3,0.4c-0.2,0-0.3,0.2-0.2,0.5c0.1,0.2,0.1,0.4,0.2,0.5
			c0.1,0.1,0.2,0.1,0.3,0.1s0.3,0,0.4,0c0.1,0,0.1,0,0.2,0c0.1,0,0.1,0,0.2,0c0.4,0,0.6,0.1,0.7,0.4c0.1,0.2,0.1,0.8,0.1,1.5
			c0,0.9-0.1,1.4-0.2,1.5c-0.1,0-0.1,0.2,0,0.4c0.1,0.3,0.1,0.5,0,0.7c-0.1,0.2-0.2,0.3-0.3,0.3c-0.1,0-0.1,0.1,0.1,0.2
			c0.1,0.1,0.1,0.3,0.1,0.6c0,0.3-0.1,1.3-0.2,3l-0.1,1h-0.6c-0.4,0-0.6,0.1-0.7,0.3c-0.1,0.2-0.2,0.3-0.3,0.3
			c-0.2,0-0.2,0.1-0.2,0.4c0,0.3,0.1,0.5,0.3,0.6c0.2,0.1,0.3,0.3,0.3,0.4c0,0.1,0.1,0.2,0.3,0.2c0.2,0,0.5,0,0.8-0.1
			c0.3-0.1,0.5-0.2,0.6-0.2c0.2-0.1,0.6-0.2,1.2-0.2c0.1,0,0.6,0,1.5,0.1c0.8,0,1.2,0.1,1.2,0.2c0.1,0.1,0.2,0.1,0.4,0
			c0.3-0.1,0.8-0.2,1.6-0.2c0.9,0,1.4,0,1.6-0.1c0.2,0,0.3-0.1,0.5-0.2c0.2-0.2,0.3-0.4,0.2-0.6c-0.1-0.2,0-0.4,0.2-0.4
			c0.1-0.1,0.2-0.4,0.2-0.8c0-0.3,0-0.5,0.1-0.6c0-0.1,0.1-0.1,0.2-0.1c0.2,0,0.3-0.2,0.3-0.5c0-0.3-0.1-0.5-0.2-0.7
			C270.8,790.3,270.7,790.2,270.5,790.2z"/>
		<path d="M260,792c0.1-0.2,0.1-0.3-0.1-0.3c-0.1,0-0.2,0.1-0.2,0.2c0,0.1,0,0.2,0.1,0.2C259.9,792.2,259.9,792.1,260,792z"/>
		<path d="M289.6,781.5h-1.9c-1.3,0-1.9,0-1.9,0.1c0,0.1-0.1,0.1-0.2,0.1c-0.1,0-0.3,0.1-0.5,0.3c-0.2,0.2-0.2,0.4-0.1,0.4
			c0.1,0,0.2,0.1,0.3,0.2c0.1,0.1,0.3,0.2,0.5,0.2c0.3,0,0.5,0.1,0.5,0.4c0.1,0.2,0,0.4-0.1,0.4c-0.1,0-0.2,0.3-0.2,0.6
			c0,0.4-0.1,0.6-0.2,0.6c-0.1,0.1-0.2,0.2-0.1,0.4c0,0,0,0.1,0,0.2c0,0.2,0,0.5-0.1,0.7c-0.1,0.3-0.2,0.4-0.3,0.4
			c-0.2,0.1-0.3,0.2-0.3,0.5c0,0.3,0,0.5-0.1,0.5c-0.1,0.1-0.2,0.4-0.2,0.9c-0.1,0.5-0.2,0.8-0.3,0.8c-0.2,0-0.2,0.1-0.2,0.3
			c0,0.1,0,0.2,0,0.2c0,0-0.1,0.1-0.2,0.1c-0.2,0-0.4,0-0.5-0.1c-0.2-0.1-0.4-0.6-0.4-1.5c0-0.4-0.1-0.6-0.2-0.7
			c-0.1-0.1-0.1-0.4-0.1-0.8c0-0.7-0.2-1.1-0.5-1.3c-0.1-0.1-0.1-0.1,0-0.2c0.1,0,0.1-0.1,0.1-0.2c0-0.1,0-0.2,0-0.4
			c0-0.1-0.1-0.2-0.1-0.2c-0.1,0-0.1-0.1-0.2-0.4c-0.1-0.3-0.2-0.4-0.4-0.5c-0.1,0-0.2-0.1-0.2-0.2c0-0.2,0.2-0.3,0.7-0.3
			c0.7,0,1-0.1,1-0.3c0-0.1,0-0.2,0.1-0.2c0.1,0,0.1-0.1-0.1-0.4c-0.2-0.3-0.4-0.4-0.8-0.4c-0.4,0-0.6,0-0.6-0.1
			c-0.1-0.1-0.2-0.1-0.4,0c-0.2,0.1-0.3,0.1-0.4,0c-0.1-0.1-0.2-0.1-0.2,0c-0.1,0.1-0.3,0.2-0.5,0.2c-0.2,0-0.3,0-0.4-0.1
			c-0.1,0-0.1-0.2-0.1-0.3c-0.1-0.3-0.2-0.4-0.4-0.4c-0.1,0-0.3,0.1-0.4,0.3c-0.2,0.2-0.4,0.3-0.6,0.3c-0.2,0-0.3,0.1-0.3,0.2
			c0,0.1,0,0.2-0.1,0.2c-0.1,0-0.1,0.1-0.1,0.3c0,0.2,0,0.4,0.1,0.4c0.1,0,0.1,0.1,0.1,0.2c0,0.1,0.2,0.2,0.5,0.3
			c0.3,0,0.5,0.2,0.8,0.5c0.2,0.3,0.3,0.6,0.3,0.8c0,0.2,0,0.5,0.1,0.8c0.1,0.3,0.2,0.5,0.3,0.5c0.1,0,0.1,0.1,0.1,0.4
			c0,0.3,0.1,0.6,0.2,0.7c0.1,0.2,0.3,0.5,0.4,0.9c0.1,0.4,0.2,0.9,0.2,1.3c0,0.4,0.1,0.7,0.2,0.7c0.1,0,0.1,0.2,0.1,0.4
			c0,0.2,0,0.3,0.1,0.3c0.1,0.1,0.1,0.3,0.1,0.8c0,0.5,0.1,0.7,0.2,0.7c0.1,0,0.2,0.2,0.3,0.5c0.1,0.4,0.2,0.5,0.3,0.5
			c0.1,0,0.2,0.1,0.2,0.4c0.1,0.3,0.3,0.5,0.6,0.5c0.1,0,0.2,0,0.3-0.1c0.2,0,0.4-0.2,0.4-0.5c0-0.3,0-0.5,0.1-0.5
			c0.1,0,0.1-0.2,0.1-0.5c0-0.3,0.1-0.5,0.2-0.5c0.1,0,0.2-0.3,0.2-0.8c0-0.5,0.1-0.8,0.3-1c0.2-0.2,0.4-0.4,0.5-0.4
			c0.1,0,0.2-0.3,0.2-0.6s0.1-0.6,0.2-0.7c0.1-0.1,0.2-0.3,0.3-0.8c0.1-0.5,0.2-0.7,0.2-0.8c0.1-0.1,0.2-0.3,0.2-0.5
			c0-0.2,0.1-0.3,0.4-0.4c0.2,0,0.3-0.1,0.3-0.4c0-0.1,0-0.3,0-0.5c0-0.5,0.1-0.8,0.3-0.8c0.2,0,0.3-0.1,0.3-0.4
			c0-0.3,0.1-0.5,0.3-0.7c0.2-0.2,0.5-0.4,0.8-0.4c0.4-0.1,0.6-0.3,0.6-0.7c0-0.1,0-0.2-0.1-0.4L289.6,781.5z"/>
		<path d="M302.6,782c-0.1-0.1-0.7-0.1-1.8-0.1c-1,0-1.5,0-1.5,0.1c0,0.1-0.2,0.1-0.5,0.1c-0.3,0-0.5,0.1-0.5,0.2
			c0,0.1,0,0.2-0.1,0.2c-0.1,0-0.1,0.1-0.1,0.3c0,0.3,0.1,0.4,0.2,0.5c0.1,0.1,0.2,0.5,0.2,1.3c0,0.8,0,1.2,0.1,1.3
			c0.1,0,0.1,0.4,0.1,1.1c0,0.7,0,1-0.1,1.1c-0.1,0-0.2,0.8-0.2,2.2c0,1.2-0.1,2-0.2,2.2c-0.1,0.2-0.4,0.4-0.9,0.5
			c-0.3,0-0.5,0.1-0.5,0.1c-0.1,0.1-0.1,0.2-0.1,0.4c0,0.3,0.1,0.5,0.2,0.5c0.2,0,0.3,0.1,0.5,0.2c0.2,0.2,0.3,0.2,0.3,0.1
			c0.1-0.1,0.8-0.2,2.1-0.2c1.1,0,1.6,0.1,1.6,0.2c0,0.1,0.1,0.1,0.3,0.1c0.2,0,0.3,0,0.3-0.1c0-0.1,0.1-0.2,0.3-0.3
			c0.2-0.1,0.3-0.2,0.3-0.3c0-0.5-0.4-0.7-1-0.8l-0.6-0.1l0.1-3.5c0-2.3,0.1-3.5,0.2-3.6c0.1-0.1,0.1-0.4,0.1-1
			c0.1-1.1,0.2-1.6,0.4-1.6c0.1,0,0.2,0,0.2-0.1c0-0.1,0.1-0.2,0.4-0.2c0.2,0,0.4-0.1,0.5-0.2c0.1-0.1,0.2-0.2,0.2-0.4
			C302.8,782.3,302.8,782.1,302.6,782z M299.1,790.9c-0.1,0-0.2,0-0.2-0.1c0-0.1,0.1-0.1,0.2-0.1c0.1,0,0.2,0,0.2,0.1
			C299.3,790.9,299.3,790.9,299.1,790.9z M300,787.1c-0.1,0-0.2-0.1-0.2-0.3c0-0.2,0.1-0.3,0.2-0.3c0.1,0,0.2,0.1,0.2,0.3
			C300.2,787,300.1,787.1,300,787.1z"/>
		<path d="M327.4,790.7c0,0-0.1,0-0.1,0c-0.1,0-0.1,0-0.1,0.1c-0.2,0-0.3,0.1-0.3,0.3c0,0.1,0.1,0.2,0.3,0.2c0.2,0,0.3-0.1,0.3-0.3
			C327.5,790.7,327.4,790.6,327.4,790.7L327.4,790.7z"/>
		<path d="M309.9,799.7c-0.1,0-0.1,0.1-0.1,0.3c0,0.2,0,0.3,0.1,0.3c0.1,0,0.1-0.1,0.1-0.3C310,799.8,310,799.7,309.9,799.7z"/>
		<path d="M326.5,790.1c-0.1,0-0.2-0.1-0.2-0.3c-0.1-0.2-0.2-0.3-0.4-0.3c-0.2,0-0.4-0.1-0.4-0.4c0-0.1-0.1-0.2-0.2-0.3
			c-0.2-0.1-0.3-0.1-0.3,0.1c0,0.1-0.1,0.2-0.4,0.3c-0.2,0.1-0.3,0.2-0.1,0.3c0.1,0.1,0.2,0.3,0.2,0.6c0,0.3,0,0.4-0.1,0.4
			c-0.1,0-0.3,0.2-0.6,0.5c-0.6,0.6-1.1,0.9-1.5,0.9c-0.2,0-0.4,0.1-0.7,0.2c-0.3,0.1-0.7,0.2-1.2,0.2c-0.6,0-0.9-0.1-0.9-0.4
			c0-0.1,0-0.1,0-0.2c0.1-0.2,0.1-0.3,0-0.4c-0.1,0-0.1-0.2-0.1-0.4c0-0.4,0-0.7,0.1-1c0-0.1,0.1-0.2,0.1-0.4c0-0.1,0-0.4-0.1-0.6
			c0-0.1,0-0.3,0-0.5c0-0.2,0-0.3,0.1-0.4c0.2-0.1,0.2-0.3,0.2-0.8c0-0.2,0-0.3-0.1-0.4c-0.1-0.1-0.1-0.2,0-0.4
			c0.1-0.1,0.1-0.5,0.1-1.2V785l-0.1-1.3h0.9c0.6,0,1-0.1,1.1-0.2c0.1-0.2,0.1-0.4,0.1-0.6c0-0.3-0.1-0.5-0.2-0.6
			c-0.1-0.1-1.1-0.1-2.9-0.1h-0.9c-1.2,0-1.8,0.1-1.8,0.2c-0.1,0.1-0.1,0.3-0.1,0.4c0,0.3,0.1,0.6,0.2,0.7c0.1,0.1,0.4,0.2,0.7,0.2
			c0.5,0,0.8,0.1,0.8,0.4c0,0.1,0,0.1-0.1,0.2c-0.1,0.1-0.1,0.4-0.1,0.7c0,0.3,0,0.6,0.1,0.8c0.1,0.3,0.1,0.4,0,0.5
			c-0.1,0.1-0.1,0.3-0.1,0.7c0,0.2,0,0.3,0,0.4c0,0.8,0.1,1.3,0.1,1.6c0,1.3-0.1,1.9-0.3,1.9c-0.1,0-0.2,0.2-0.2,0.7
			c0,0.2,0,0.3,0.1,0.4l0.1,0.1c0,0.2-0.3,0.2-0.9,0.2c-0.3,0-0.5,0.1-0.6,0.2c-0.1,0.1-0.2,0.4-0.2,0.8v0.2c0,0.5,0.2,0.8,0.6,0.8
			c0.1,0,0.3,0,0.4-0.1c0.3-0.1,0.4-0.2,0.4-0.3c0-0.1,0.3-0.1,1-0.1c0.7,0,1,0,1,0.1c0,0.1,0.7,0.1,2.1,0.1c1.4,0,2.1-0.1,2.1-0.1
			c0-0.1,0.3-0.1,0.8-0.1c0.6,0,0.9,0,0.9,0.1c0,0.1,0.1,0.2,0.4,0.2c0.2,0,0.4-0.1,0.4-0.3c0-0.1,0.1-0.3,0.3-0.4
			c0.2-0.1,0.3-0.2,0.3-0.4c0-0.2,0-0.4,0.1-0.5c0.1-0.1,0.1-0.3,0-0.4c0,0-0.1-0.1-0.1-0.2c0-0.2,0-0.5,0.1-0.8
			c0.1-0.3,0.2-0.4,0.2-0.4c0.1,0,0.1-0.1,0.1-0.3C326.6,790.2,326.6,790.1,326.5,790.1z"/>
	</g>
	<g>
		<g>
			<path d="M253.1,404.9c-5.6-1-11.2-1.5-16.8-1.5c-30.1-0.3-59.5,12.3-81.1,32.9c2.1,1,4.2,2.3,6,3.6c4.6,3.1,8.9,6.7,13.1,10.4
				c7.2,6.3,13.8,13,19.6,20.6c4.5,5.9,8.4,11.8,11.5,18.6c3.1,6.8,5.5,14,7.7,21.1c2.4,7.5,4.5,15,5.7,22.8
				c0.9,5.7,1,11.4,1.1,17.1c0.1,5.5,0.1,11-0.1,16.4c-0.1,5-0.3,10.1-1.3,15c-0.3,1.8-3.1,1-2.8-0.8c1-5.5,1.1-11.2,1.3-16.7
				c0.1-5.6,0.1-11.2,0-16.8c-0.1-6.4-0.6-12.6-1.9-18.9c-0.9-4.2-2-8.4-3.2-12.5c-0.1,0.8-0.3,1.5-0.4,2.3
				c-1.3,7-3.7,13.7-6.7,20.1c-3.5,7.3-7.7,14.8-13.8,20.2c-1.4,1.2-3.4-0.8-2-2c3.6-3.2,6.4-7.1,8.9-11.3
				c3.2-5.3,5.9-10.9,7.9-16.8c1.3-3.8,2.4-7.7,3.1-11.7c0.6-3.3,1-7,0-10.2c-0.1-0.2-0.1-0.4-0.1-0.6c-2.2-6.7-4.6-13.3-7.8-19.6
				c-3.2-6.4-7.5-12-11.9-17.6c-5.4-6.9-12.1-12.9-18.7-18.6c-3.6-3-7.2-6-11.1-8.5c-1.8-1.2-4-2.7-6.2-3.5
				c-7.1,7.1-13.3,15.2-18.3,23.9c-13.7,23.9-19.1,53.2-13,80.3c6.1,27.1,24.2,51.3,48.6,62c29.6,13.1,48.7,6.2,80.9,4.4
				c8.6-0.5,3.3,30.4,18.4,33.7c7.6,1.6,14.1-15.4,14.1-15.4c1.3,6.5,8.8,13.9,15.1,12.6c6.2-1.3,11.3-9.5,10.1-16
				c0.9,6.9,7.2,13,13.8,13.5c7.7,0.6,15.2-13.5,12.7-19.9c0.2,0.5,5.9,16.2,14.1,15c8.7-1.3,2.1-34.3,11.5-70.3
				c9.8-37.8,6.1-78.7-13.2-107.9C328.3,425.3,286.5,410.7,253.1,404.9z M186.3,434.5c-1,1-0.9,6.1-1.6,6.1c-0.7,0-0.5-5.1-1.6-6.1
				c-1.1-1.1-4.7-0.6-4.7-1.4c0-0.7,3.6-0.2,4.7-1.4s0.9-6.1,1.6-6.1c0.7,0,0.6,5.2,1.6,6.1c0.9,0.9,4.7,0.8,4.7,1.4
				C191,433.8,187.3,433.5,186.3,434.5z M176.9,497.2c1-1,0.8-5.4,1.4-5.4c0.6,0,0.5,4.6,1.4,5.4s4.1,0.7,4.1,1.2
				c0,0.5-3.2,0.3-4.1,1.2c-0.9,0.9-0.8,5.4-1.4,5.4c-0.6,0-0.4-4.5-1.4-5.4s-4.1-0.6-4.1-1.2S175.9,498.2,176.9,497.2z
				 M178.7,570.8l0.8,2.4l-1.2,0.4l-0.8-2.4L178.7,570.8z M176.6,568.4l-0.8-2.4l1.2-0.4l0.8,2.4L176.6,568.4z M131.2,514.2
				c0.1-0.2,3.6-4.4,4.6-5.4c0,0-5.7-3.8-5.9-4c0.3-0.1,7-0.4,7-0.4c-0.1-1.7,0.4-6.5,0.5-6.8c0.3,0.2,3.6,5.8,3.6,5.8
				c1.3-1,5-3.3,5.3-3.4c0,0.4-1.5,7.7-1.5,7.7c1.5,0.9,5.8,4,6,4.4c0.1,0.1-5.1-0.3-6.9-0.1l1.3,1.4l-0.9,0.9l-1.2-1.2
				c-0.3,2.2-0.9,5.7-1,5.9c-0.2-0.2-3.6-6.5-3.6-6.5C136.8,513,131.4,514.2,131.2,514.2z M151,519.2l1.8,1.8l-0.9,0.9l-1.8-1.8
				L151,519.2z M149,517.1l-0.9,0.9l-1.8-1.8l0.9-0.9L149,517.1z M151.3,566c-1.4,1.4-1.2,8.5-2.1,8.5c-0.9,0-0.6-7-2.1-8.5
				c-1.5-1.5-6.5-0.9-6.5-1.9c0-1,4.9-0.3,6.5-1.9c1.5-1.5,1.2-8.5,2.1-8.5c0.9,0,0.9,7.2,2.1,8.5c1.3,1.3,6.5,1.1,6.5,1.9
				C157.8,564.9,152.7,564.6,151.3,566z M153.9,523.9l0.9-0.9l1.8,1.8l-0.9,0.9L153.9,523.9z M159.5,529.6l-1.8-1.8l0.9-0.9l1.8,1.8
				L159.5,529.6z M157.8,488.9c-1.2,0-0.8-9-2.8-10.9c-1.9-1.9-8.3-1.1-8.3-2.4s6.3-0.4,8.3-2.4c2-2,1.6-10.9,2.8-10.9
				s1.1,9.3,2.8,10.9s8.3,1.4,8.3,2.4c0,1.1-6.5,0.6-8.3,2.4S159,488.9,157.8,488.9z M162.5,530.8l1.8,1.8l-0.9,0.9l-1.8-1.8
				L162.5,530.8z M169,543c0,0-0.2-0.3-0.3-0.6l-0.3,0.1l-0.5-1.5c-0.4-0.7-0.7-1.3-0.7-1.3c-0.9,0.3-3.7,1-3.8,0.9
				c0-0.1,1.8-2.3,2.4-2.8c0,0-3-2-3.1-2.1c0.1,0,1.7-0.1,2.7-0.2l0.9-0.9l0,0c0-1.1,0.2-2.5,0.2-2.7c0.2,0.1,1.8,3,1.8,3
				c0.7-0.5,2.6-1.7,2.8-1.8c0,0.2-0.8,4-0.8,4c0.8,0.5,3,2.1,3.1,2.3c0,0.1-3.9-0.3-3.9,0.1c0,0.5-0.1,1.2-0.2,1.8l0.2,0.8
				l-0.4,0.1C169.1,542.7,169,543,169,543z M170,547.7l-0.8-2.4l1.2-0.4l0.8,2.4L170,547.7z M170.9,550.4l1.2-0.4l0.8,2.4l-1.2,0.4
				L170.9,550.4z M172.5,555.6l1.2-0.4l0.8,2.4l-1.2,0.4L172.5,555.6z M175.4,560.4l0.8,2.4l-1.2,0.4l-0.8-2.4L175.4,560.4z
				 M183.5,583.5c0.4,1,1.4,4,1.4,4.2c0,0.1-3.5-2.9-3.8-2.6c-0.8,0.9-2.7,2.9-2.9,2.9c0-0.2,0.5-4.4,0.5-4.4
				c-1.1-0.3-4.1-1.5-4.2-1.6c0.1-0.1,3.3-0.9,4.1-1c0,0-1.5-3.8-1.5-4c0.1,0,1.6,1,2.6,1.6l-0.7-2.3l1.2-0.4l0.8,2.4l-1.1,0.3
				c0.4,0.3,0.7,0.5,0.7,0.5c0.5-0.9,2.4-3,2.6-3.2c0.1,0.2-0.3,4.1-0.3,4.1c1-0.1,3.6,0.1,3.8,0.2
				C186.8,580.5,183.5,583.5,183.5,583.5z M328.6,477c0.5,0,0.5,4.1,1.2,4.8c0.7,0.7,3.6,0.6,3.6,1.1c0,0.5-2.9,0.3-3.6,1.1
				c-0.8,0.8-0.7,4.8-1.2,4.8c-0.5,0-0.4-3.9-1.2-4.8c-0.8-0.8-3.6-0.5-3.6-1.1c0-0.6,2.8-0.2,3.6-1.1
				C328.3,480.9,328.1,477,328.6,477z M312.3,449.4l0.2-0.7l2.5,0.5l0,0c0.2,0,0.3,0,0.5,0c0,0,0.1-4.4,0.2-4.6
				c0.2,0.1,2.7,3.9,2.7,3.9c0.6-0.7,3.4-3.1,3.5-3.1c0,0.1-0.7,3.7-1.1,4.8c0,0,4.2,2.2,4.3,2.3c-0.1,0.1-3.1,0.7-4.4,0.8
				c-0.4,0,0.1,5.1,0,5c-0.3-0.2-2.4-3-3-3.9c0,0-4.7,1.1-5,1.1c0.1-0.2,1.5-2.7,2.2-3.6c0,0-3.7-2.1-3.9-2.3
				C311.1,449.6,311.6,449.5,312.3,449.4z M307.1,447.5l2.5,0.5l-0.3,1.3l-2.5-0.5L307.1,447.5z M301.8,446.5l2.5,0.5l-0.3,1.3
				l-2.5-0.5L301.8,446.5z M296.5,445.4l2.5,0.5l-0.3,1.3l-2.5-0.5L296.5,445.4z M291.2,444.3l2.5,0.5l-0.3,1.3l-2.5-0.5
				L291.2,444.3z M282.2,441.1l-1.5-1.3l0.8-1l2,1.7l-0.2,0.3c0.4,0.3,0.8,0.5,0.8,0.5c0.2-0.5,1-2.4,1.1-2.4
				c0.1,0.1,0.5,2.1,0.6,2.8c0,0,2.7,0.1,2.8,0.2c0,0.1-1.4,1.1-2.1,1.5c0,0,0,0,0,0.1l2,0.4l-0.3,1.3l-1.1-0.2
				c0.3,0.6,0.6,1.1,0.6,1.1c-0.2,0-1.9-1-2.5-1.3c0,0-2.2,1.7-2.4,1.8c0-0.1,0-0.5,0.1-1l-1.4,1l-0.8-1l1.9-1.4
				c-0.7-0.1-2-0.2-2.1-0.2c0.1-0.1,1.6-1,2.2-1.3C282.7,442.3,282.4,441.7,282.2,441.1z M277.3,435.3l2,1.7l-0.8,1l-2-1.7
				L277.3,435.3z M278.4,447l0.8,1l-2,1.5l-0.8-1L278.4,447z M273.2,431.8l2,1.7l-0.8,1l-2-1.7L273.2,431.8z M274,450.3l0.8,1
				l-2,1.5l-0.8-1L274,450.3z M271,430l-0.8,1l-2-1.7l0.8-1L271,430z M270.5,454.6l-2,1.5l-0.8-1l2-1.5L270.5,454.6z M256.4,425.3
				l0.1,0.3c0.7-0.4,2.4-1.5,3.2-1.8c0,0-1.5-3.6-1.5-3.8c0.2,0.1,3.6,2.1,3.6,2.1c0.2-0.8,1.6-3.7,1.7-3.8c0.1,0.1,0.8,3.2,0.9,4.3
				c0,0,4.2,0.2,4.3,0.2c-0.1,0.1-2.2,1.7-3.2,2.3c0,0,0,0,0,0l1.5,1.2l-0.7,0.8c0.5,1,1.1,2,1,2c-0.3,0-3-1.5-3.8-2.1
				c0,0-3.4,2.6-3.6,2.7c0-0.2,0.2-2.7,0.5-3.7c0,0-2.7-0.2-3.6-0.4l0.1,0.7l-2.5,0.5l-0.3-1.3L256.4,425.3z M266.1,457.9l-2,1.5
				l-0.8-1l2-1.5L266.1,457.9z M261.8,461.1l-2,1.5l-0.8-1l2-1.5L261.8,461.1z M257.5,464.4l-2,1.5l-0.8-1l2-1.5L257.5,464.4z
				 M253.1,467.7l-2,1.5l-0.8-1l2-1.5L253.1,467.7z M251.1,426.4l0.3,1.3l-2.5,0.5l-0.3-1.3L251.1,426.4z M248.8,471l-2,1.5l-0.8-1
				l2-1.5L248.8,471z M245.8,427.5l0.3,1.3l-2.5,0.5l-0.3-1.3L245.8,427.5z M243.7,473.2l0.8,1l-2,1.5l-0.8-1L243.7,473.2z
				 M240.4,428.6l0.3,1.3l-2.5,0.5l-0.3-1.3L240.4,428.6z M239.3,476.5l0.8,1l-2,1.5l-0.8-1L239.3,476.5z M235.1,429.7l0.3,1.3
				l-2.5,0.5l-0.3-1.3L235.1,429.7z M229.8,430.8l0.3,1.3l-2.5,0.5l-0.3-1.3L229.8,430.8z M226.9,477.3l-1.2,0.5l-1-2.4l1.2-0.5
				L226.9,477.3z M224.5,431.9l0.3,1.3l-2.5,0.5l-0.3-1.3L224.5,431.9z M209.8,440.8c-1,1.4-2.3,3.4-2.5,3.5c-0.1-0.3-0.3-6-0.3-6
				c-1.1,0.3-5.7,0.9-5.8,0.9c0.1-0.2,3.3-3.4,4.5-4.4c0,0-3-5.2-3-5.4c0.2,0,3.7,1.4,5.3,2.2c0.5,0.2,3.4-5.5,3.5-5.3
				c0.2,0.4,0.5,4.8,0.5,6.2c0,0,3.2,1.1,5,1.8l-0.2-0.8l2.5-0.5l0.3,1.3l-1.8,0.4c0.2,0.1,0.3,0.1,0.3,0.1
				c-0.2,0.2-3.5,1.8-4.8,2.3c0,0,2.5,4.7,2.6,5.1c-0.3-0.1-3.9-1.8-5-2.6c0,0-0.3,0.4-0.6,0.9l0.8-0.4l1,2.4l-1.2,0.5L209.8,440.8z
				 M212.8,447.9l-1-2.4l1.2-0.5l1,2.4L212.8,447.9z M214,450.5l1.2-0.5l1,2.4l-1.2,0.5L214,450.5z M216.1,455.5l1.2-0.5l1,2.4
				l-1.2,0.5L216.1,455.5z M219.3,462.9l-1-2.4l1.2-0.5l1,2.4L219.3,462.9z M220.4,465.5l1.2-0.5l1,2.4l-1.2,0.5L220.4,465.5z
				 M223.8,470l1,2.4l-1.2,0.5l-1-2.4L223.8,470z M223.3,486.7c0.1-0.2,2.5-2.2,3.3-2.8c0,0-1.1-4.2-1.1-4.4c0.1,0,0.8,0.4,1.6,0.8
				l1-0.4l0.6,1.3c0,0,0.1,0,0.1,0.1c0,0,1.7-3.3,1.9-3.5c0.1,0.2,0.5,2.9,0.5,3.9c0,0,1.1,0,2.2,0l-0.3-0.4l2-1.5l0.8,1l-1.3,1
				c0.4,0,0.7,0,0.7,0c-0.1,0.1-3.3,2.6-3.3,2.6c0.6,0.5,2.8,2.9,2.9,3c-0.1,0-3.3-0.5-4.3-0.8c0,0-1.8,3.8-1.9,3.9
				c-0.1-0.1-0.7-2.7-0.9-3.9C227.7,486.2,223.3,486.8,223.3,486.7z M228.6,518.4l0.1-2.6l1.3,0l-0.1,2.6L228.6,518.4z M229.8,521.4
				l-0.1,2.6l-1.3,0l0.1-2.6L229.8,521.4z M228.8,513l0.1-2.6l1.3,0l-0.1,2.6L228.8,513z M229,507.6l0.1-2.6l1.3,0l-0.1,2.6
				L229,507.6z M229.2,502.1l0.1-2.6l1.3,0l-0.1,2.6L229.2,502.1z M229.3,496.7l0.1-2.6l1.3,0l-0.1,2.6L229.3,496.7z M229.5,491.3
				l0.1-2.6l1.3,0l-0.1,2.6L229.5,491.3z M224.9,533.1c0-0.2,1.3-2.3,1.7-3c0,0-2-2.7-2.1-2.9c0.2,0,2.2,0.2,2.9,0.4
				c0,0,0.3-3,0.4-3.1c0.1,0.1,0.9,1.4,1.3,2.3l0.5,0l0,0.4c0.7-0.3,2.6-1,2.7-1c0,0.1-1.7,2.8-1.7,2.8c0.6,0.2,2.9,1.3,3,1.4
				c-0.1,0.1-2.6,0.6-3.4,0.6c0,0-0.2,3.3-0.3,3.4c-0.1-0.1-1.3-1.8-1.7-2.6C228,531.5,224.9,533.2,224.9,533.1z M241.8,588.9
				c-1.6,1.6-1.4,9.7-2.4,9.7c-1,0-0.7-8-2.4-9.7c-1.7-1.7-7.4-1-7.4-2.1c0-1.1,5.6-0.4,7.4-2.1c1.8-1.8,1.4-9.7,2.4-9.7
				s1,8.2,2.4,9.7c1.5,1.5,7.4,1.2,7.4,2.1C249.2,587.7,243.4,587.4,241.8,588.9z M260.7,599.5c-0.8,0.8-0.7,5.1-1.3,5.1
				c-0.5,0-0.4-4.2-1.3-5.1c-0.9-0.9-3.9-0.5-3.9-1.1c0-0.6,2.9-0.2,3.9-1.1c0.9-0.9,0.7-5.1,1.3-5.1s0.5,4.3,1.3,5.1
				c0.8,0.8,3.9,0.6,3.9,1.1C264.6,598.9,261.5,598.7,260.7,599.5z M268.9,567.5c-0.2,1-0.5,2-0.8,3c-2.4,0.5-5,0.4-7.5,0.4
				c-7-0.2-13-4.9-15.6-11c-3.7-8.4-2.6-20.2-1.6-26.6c1.1-6.4,6.1-14.7,12.9-16c0.9-0.2,1.7-0.3,2.6-0.3c0.5,0.5,1,1,1.4,1.6
				c3.4,4,5.8,8.8,7.5,13.8C271.4,543.7,271.7,556,268.9,567.5z M281.7,551.9c-0.1,3.8-0.3,7.8-2.6,10.9c-2,2.8-4.5,5-7.6,6.5
				c1.4-5.3,2-11,2.1-16.3c0.2-12.4-2.8-25.7-10.6-35.6c6,1.3,11.4,5.7,14.4,10.9C281.4,535.5,281.9,543.9,281.7,551.9z
				 M293.7,499.2c-12.6,3.4-25.6-3.3-30.3-15.2c7.8,5.1,17.7,7,27.4,4.4c9.7-2.7,17.3-9.3,21.4-17.7
				C314.1,483.3,306.3,495.7,293.7,499.2z M319.8,590.8c-0.2,1.1-0.4,2.2-1.2,3c-0.7,0.7-1.8,0.9-2.8,0.9c-3.1,0.1-6.2-1.5-7.9-4.2
				c-1.6-2.5-1.9-5.6-1.4-8.4c0.4-2.7,1.7-5.1,2.3-7.7c0.4-2,0-3.6,1.5-5.5c5.6-7.3,10,4.4,10.4,8.8
				C321.1,582.1,320.4,586.5,319.8,590.8z M346.3,552.2c-0.1,0.3-0.1,0.6-0.2,1c-0.3,0.1-0.5,0.3-0.8,0.4c-3.3,1.7-7.1,1.6-10.9,1.5
				c-7-0.2-13-4.9-15.6-11c-3.7-8.4-2.6-20.2-1.6-26.6c1.1-6.4,6.1-14.7,12.9-16c1.1-0.2,2.2-0.3,3.2-0.3c0.9,0.9,1.8,1.9,2.6,2.9
				c3.5,4.3,6.2,9.3,8.1,14.5C347.8,529.3,348.4,541.2,346.3,552.2z M355.6,536.1c-0.1,3.8-0.3,7.8-2.6,10.9c-1,1.5-2.2,2.8-3.6,3.9
				c0.5-3.4,0.8-6.9,0.8-10.4c0.2-12.9-3-26.1-10.8-36.5c-0.5-0.7-1.1-1.4-1.7-2.1c5.6,1.6,10.6,5.7,13.4,10.6
				C355.3,519.7,355.8,528.1,355.6,536.1z M348.5,469.4c0,0.7-4.1,0.4-5.3,1.5c-1.1,1.1-1,6.9-1.7,6.9s-0.5-5.7-1.7-6.9
				c-1.2-1.2-5.3-0.7-5.3-1.5c0-0.8,4-0.3,5.3-1.5c1.3-1.3,1-6.9,1.7-6.9s0.7,5.9,1.7,6.9S348.5,468.8,348.5,469.4z"/>
		</g>
		<g>
			<path d="M276,388.8c0,0-0.1,0-0.2,0l0.1,0.2C275.9,388.9,275.9,388.8,276,388.8z"/>
		</g>
		<g>
			<polygon points="262.3,252.5 328.2,244.1 264,241.3 264,241.3 284,210.3 256.3,234.1 250.6,173.8 247.7,234.1 217.6,210.3 
				239.3,241.3 175.9,249.7 240,252.5 214.7,280.7 246.4,259.6 246.4,259.6 251,320 255.3,259.8 284,283.5 			"/>
		</g>
		<g>
			<path class="st0" d="M61.9,411.3c0,0,27.8,0.4,34-6.6c6.9-7.7,6.6-36.5,6.6-36.5s-0.4,28.8,6.6,36.5c6.3,7,34,6.6,34,6.6
				s-27.8-0.4-34,6.6c-6.9,7.7-6.6,36.5-6.6,36.5s0.4-28.8-6.6-36.5C89.7,410.9,61.9,411.3,61.9,411.3z"/>
		</g>
		<g>
			<path class="st0" d="M129.3,657c0,0,21.3,0.3,26.1-5c5.3-5.9,5-28,5-28s-0.3,22.1,5,28c4.8,5.3,26.1,5,26.1,5s-21.3-0.3-26.1,5
				c-5.3,5.9-5,28-5,28s0.3-22.1-5-28C150.6,656.7,129.3,657,129.3,657z"/>
		</g>
		<g>
			<path class="st0" d="M375.7,579c0,0,22.7,0.3,27.8-5.6c5.7-6.6,5.4-31.4,5.4-31.4s-0.3,24.8,5.4,31.4c5.1,6,27.8,5.6,27.8,5.6
				s-22.7-0.3-27.8,5.6c-5.7,6.6-5.4,31.4-5.4,31.4s0.3-24.8-5.4-31.4C398.4,578.7,375.7,579,375.7,579z"/>
		</g>
		<g>
			<path class="st0" d="M350.5,387.6c0,0,17.2,0.3,21.1-4.1c4.3-4.8,4.1-22.7,4.1-22.7s-0.2,17.9,4.1,22.7
				c3.9,4.3,21.1,4.1,21.1,4.1s-17.2-0.3-21.1,4.1c-4.3,4.8-4.1,22.7-4.1,22.7s0.2-17.9-4.1-22.7
				C367.7,387.3,350.5,387.6,350.5,387.6z"/>
		</g>
		<g>
			<path class="st0" d="M93.9,263.3c0,0,17.2,0.3,21.1-4.1c4.3-4.8,4.1-22.7,4.1-22.7s-0.2,17.9,4.1,22.7c3.9,4.3,21.1,4.1,21.1,4.1
				s-17.2-0.3-21.1,4.1c-4.3,4.8-4.1,22.7-4.1,22.7s0.2-17.9-4.1-22.7C111.1,263,93.9,263.3,93.9,263.3z"/>
		</g>
		<g>
			<path class="st0" d="M407.4,460c0,0,7.3,0.1,8.9-1.7c1.8-2,1.7-9.6,1.7-9.6s-0.1,7.6,1.7,9.6c1.7,1.8,8.9,1.7,8.9,1.7
				s-7.3-0.1-8.9,1.7c-1.8,2-1.7,9.6-1.7,9.6s0.1-7.6-1.7-9.6C414.7,459.9,407.4,460,407.4,460z"/>
		</g>
		<g>
			<path class="st0" d="M391.9,271.6c0,0,11.6,0.2,14.2-2.7c2.9-3.2,2.7-15.2,2.7-15.2s-0.1,12,2.7,15.2c2.6,2.9,14.2,2.7,14.2,2.7
				s-11.6-0.2-14.2,2.7c-2.9,3.2-2.7,15.2-2.7,15.2s0.1-12-2.7-15.2C403.5,271.4,391.9,271.6,391.9,271.6z"/>
		</g>
		<g>
			<path class="st0" d="M130,362.9c0,0,8.9,0.1,11-2.1c2.2-2.5,2.1-11.8,2.1-11.8s-0.1,9.3,2.1,11.8c2,2.2,11,2.1,11,2.1
				s-8.9-0.1-11,2.1c-2.2,2.5-2.1,11.8-2.1,11.8s0.1-9.3-2.1-11.8C139,362.8,130,362.9,130,362.9z"/>
		</g>
		<g>
			<path class="st0" d="M111.6,619.4c0,0,7.3,0.1,8.9-1.7c1.8-2,1.7-9.6,1.7-9.6s-0.1,7.6,1.7,9.6c1.7,1.8,8.9,1.7,8.9,1.7
				s-7.3-0.1-8.9,1.7c-1.8,2-1.7,9.6-1.7,9.6s0.1-7.6-1.7-9.6C118.8,619.3,111.6,619.4,111.6,619.4z"/>
		</g>
		<g>
			<g>
				<g>
					<path d="M322.1,312.2c-0.2-6.5-1.1-12.8-2.7-19.1c-0.4-1.6-2.8-1.6-3.3,0c-8.4,28.3-34.1,48.6-63.9,48.7
						c-29.8,0.1-55.7-19.9-64.3-48.1c-0.5-1.6-2.8-1.7-3.3,0c-10.6,41,16.7,83.5,59.5,88.4C285.6,386.8,321.6,353.5,322.1,312.2
						c0-2.2-3.4-2.2-3.4,0c-0.4,38.6-33.6,70.2-72.6,66.7c-41.5-3.7-68.5-44.6-58.3-84.3c-1.1,0-2.2,0-3.3,0
						c9,29.7,36.3,50.7,67.6,50.6c31.3-0.1,58.4-21.5,67.2-51.2c-1.1,0-2.2,0-3.3,0c1.6,6,2.5,12,2.6,18.2
						C318.7,314.3,322.1,314.4,322.1,312.2z"/>
				</g>
			</g>
		</g>
	</g>
</g>
</svg>
