<?xml version="1.0" encoding="utf-8"?>
<!-- Generator: Adobe Illustrator 21.1.0, SVG Export Plug-In . SVG Version: 6.00 Build 0)  -->
<svg version="1.1" id="Слой_1" xmlns="http://www.w3.org/2000/svg" xmlns:xlink="http://www.w3.org/1999/xlink" x="0px" y="0px"
	 viewBox="0 0 504 864" style="enable-background:new 0 0 504 864;" xml:space="preserve">
<style type="text/css">
	.st0{fill:#040404;}
	.st1{fill:#FFFFFF;}
</style>
<g>
	<g>
		<path d="M51.9,53.6c6.7-7.6,6.7-19,0.2-26.4c0.8,7.2-1.3,14.8-6.5,20.6c-5.2,5.8-12.3,8.7-19.5,8.6C34,62.2,45.2,61.1,51.9,53.6z"
			/>
		<path d="M458.4,47.7c-5.2-5.8-7.3-13.3-6.5-20.6c-6.5,7.5-6.6,18.9,0.1,26.4c6.7,7.6,17.9,8.6,25.9,2.8
			C470.7,56.4,463.6,53.5,458.4,47.7z"/>
		<path d="M26.1,807.4c7.2-0.1,14.3,2.8,19.5,8.6c5.2,5.8,7.3,13.3,6.5,20.6c6.5-7.5,6.6-18.9-0.2-26.4
			C45.2,802.6,34,801.6,26.1,807.4z"/>
		<path d="M452,810.2c-6.7,7.6-6.7,19-0.1,26.4c-0.8-7.2,1.3-14.8,6.5-20.6c5.2-5.8,12.3-8.7,19.5-8.6
			C470,801.6,458.8,802.6,452,810.2z"/>
		<path d="M503.8,18.2c-1.6-17.9-18.7-16.3-31.6-16.3c-45.9,0-91.8,0-137.6,0c-63.2,0-126.3,0-189.5,0c-40.6,0-81.2,0-121.8,0
			c-2.6,0-5.3-0.2-8,0.2c-9.5,1.2-15,9.2-15.2,18.2c-0.2,7.3,0,14.5,0,21.8c0,37.4,0,74.9,0,112.3c0,57,0,114.1,0,171.1
			c0,64.3,0,128.6,0,192.9c0,58.4,0,116.7,0,175.1c0,40.1,0,80.2,0,120.3c0,9.1,0,18.2,0,27.3c0,11.7,6.7,20.5,19.2,20.7
			c35.9,0.6,71.9,0,107.9,0c62.4,0,124.9,0,187.3,0c49.7,0,99.5,0,149.2,0c7.6,0,15.2,0,22.9,0c0.4,0,0.8-0.1,1.2-0.2
			c14.4-1.8,16.1-13.8,16.1-25.5c0-11.4,0-22.8,0-34.3c0-43.4,0-86.9,0-130.3c0-59.9,0-119.8,0-179.8c0-63.9,0-127.7,0-191.6
			c0-55.3,0-110.6,0-165.9c0-33.7,0-67.3,0-101C503.9,28.3,504.2,23.2,503.8,18.2z M486.6,852.8c-28.3,0-56.6,0-84.9,0
			c-59.9,0-119.8,0-179.7,0c-54,0-108,0-162,0c-13.1,0-26.1,0-39.2,0c-5.6,0-11-1.3-11.7-8.3c-0.2-1.5,0-3,0-4.5c0-26.5,0-53,0-79.5
			c0-50,0-100,0-149.9c0-61.8,0-123.6,0-185.4c0-61.4,0-122.7,0-184.1c0-48.9,0-97.7,0-146.6c0-24.2-0.8-48.6,0-72.7
			c0.2-5.3,1.6-10.1,8.3-10.8c2.2-0.2,4.5,0,6.7,0c14.8,0,29.6,0,44.5,0c55.6,0,111.3,0,166.9,0c58.9,0,117.8,0,176.7,0
			c18.9,0,37.9,0,56.8,0c8.1,0,24.7-3.1,25.9,8.4c0.5,5.2,0,10.8,0,16.1c0,13.5,0,27.1,0,40.6c0,45.5,0,91.1,0,136.6
			c0,60.1,0,120.2,0,180.3c0,62.6,0,125.2,0,187.7c0,52.8,0,105.6,0,158.4c0,31.4,0,62.7,0,94.1C494.8,840.3,496.9,852,486.6,852.8z
			"/>
		<path d="M460,790.9c1.2,0.1,2.4-0.7,2.4-2.2c0-23.7,0-47.4,0-71.1c0-56.4,0-112.8,0-169.2c0-68.7,0-137.4,0-206
			c0-59,0-117.9,0-176.9c0-19.6,0-39.2,0-58.8c0-8.9,1.3-19,0-27.9c-0.1-0.4,0-0.8,0-1.2c0-0.8-0.3-1.3-0.8-1.7
			c0.1-1.2-0.6-2.5-2.2-2.6c-13.1-0.5-25.3-13.8-25.8-26.7c0-0.5-0.2-0.8-0.4-1.1c-0.3-0.6-1-1.1-1.9-1.1c-40.5,0-80.9,0-121.4,0
			c-64.5,0-129,0-193.6,0c-14.9,0-29.7,0-44.6,0c-0.9,0-1.6,0.5-1.9,1.1c-0.2,0.3-0.3,0.7-0.4,1.2C69.1,59.5,57,72.8,43.9,73.3
			c-1.8,0.1-2.5,1.9-2,3.2c-0.2,0.3-0.2,0.6-0.2,1c0,23.7,0,47.4,0,71.1c0,56.4,0,112.8,0,169.2c0,68.7,0,137.4,0,206
			c0,59,0,117.9,0,176.9c0,19.6,0,39.2,0,58.8c0,8.9-1.3,19,0,27.9c0.1,0.4,0,0.8,0,1.2c0,0.9,0.5,1.6,1.1,1.9
			c0.3,0.2,0.7,0.3,1.2,0.4c13,0.5,25.3,13.3,25.8,26.2c0,0.5,0.2,0.8,0.4,1.1c0.3,0.6,1,1.1,1.9,1.1c40.5,0,80.9,0,121.4,0
			c64.5,0,129,0,193.6,0c14.9,0,29.7,0,44.6,0c0.9,0,1.6-0.5,1.9-1.1c0.2-0.3,0.3-0.7,0.4-1.2c0.5-12.9,12.7-25.7,25.8-26.2
			C459.6,791,459.8,790.9,460,790.9z M429.3,814.9c-39.8,0-79.6,0-119.3,0c-64.5,0-129,0-193.6,0c-14.2,0-28.3,0-42.5,0
			c-1.7-13.9-13.9-26.5-27.8-28.3c0-23,0-46,0-69.1c0-56.4,0-112.8,0-169.2c0-68.7,0-137.4,0-206c0-59,0-117.9,0-176.9
			c0-19.6,0-39.2,0-58.8c0-8.9,1.3-19,0-27.9c-0.1-0.4,0-0.8,0-1.2c14-1.8,26.1-14.9,27.8-28.7c39.8,0,79.5,0,119.3,0
			c64.5,0,129,0,193.6,0c14.2,0,28.3,0,42.5,0c1.7,14.1,14.3,27.4,28.5,28.8c0,23.7,0,47.3,0,71c0,56.4,0,112.8,0,169.2
			c0,68.7,0,137.4,0,206c0,59,0,117.9,0,176.9c0,19.6,0,39.2,0,58.8c0,8.6-1.2,18.4-0.1,27C443.6,788.1,431.1,800.9,429.3,814.9z"/>
		<path d="M242.3,102.2c0-0.9-0.7-1.4-1.9-1.5l-1.3-0.1l0.1-6.7c0.1-4.5,0.2-6.8,0.3-7c0.1-0.1,0.2-0.8,0.3-1.9
			c0.1-2.1,0.4-3.2,0.7-3.2c0.2,0,0.4-0.1,0.4-0.3c0-0.2,0.2-0.3,0.7-0.3c0.4,0,0.8-0.1,1-0.3c0.3-0.2,0.4-0.5,0.4-0.7
			c0-0.3-0.2-0.6-0.5-0.8c-0.3-0.2-1.4-0.3-3.4-0.3c-2,0-2.9,0.1-2.9,0.3c0,0.1-0.3,0.2-0.9,0.2c-0.6,0-0.9,0.1-0.9,0.4
			s-0.1,0.4-0.3,0.4c-0.2,0-0.3,0.2-0.3,0.6c0,0.5,0.1,0.8,0.4,0.9c0.3,0.1,0.4,0.9,0.4,2.5c0,1.6,0.1,2.4,0.3,2.5
			c0.2,0.1,0.3,0.8,0.3,2.2c0,1.3-0.1,2-0.3,2.1c-0.2,0.1-0.4,1.5-0.4,4.3c-0.1,2.4-0.2,3.9-0.4,4.3c-0.2,0.5-0.8,0.8-1.8,0.9
			c-0.6,0-0.9,0.1-1,0.2c-0.1,0.1-0.2,0.4-0.2,0.8c0,0.6,0.1,0.9,0.4,0.9c0.3,0,0.6,0.1,0.9,0.4c0.3,0.3,0.5,0.4,0.6,0.2
			c0.1-0.2,1.5-0.4,4-0.4c2.1,0,3.2,0.1,3.2,0.3c0,0.2,0.2,0.3,0.5,0.3c0.4,0,0.6-0.1,0.6-0.2s0.2-0.3,0.6-0.5
			C242.1,102.6,242.3,102.4,242.3,102.2z M235.8,96.6c-0.3,0-0.4-0.1-0.4-0.3c0-0.2,0.1-0.3,0.4-0.3c0.2,0,0.4,0.1,0.4,0.3
			C236.2,96.5,236,96.6,235.8,96.6z M237.4,89.2c-0.3,0-0.4-0.2-0.4-0.5c0-0.4,0.1-0.6,0.4-0.6c0.3,0,0.4,0.2,0.4,0.6
			C237.8,89,237.7,89.2,237.4,89.2z"/>
		<path d="M257.5,79.3c-0.3-0.2-1.4-0.3-3.4-0.3c-2,0-2.9,0.1-2.9,0.3c0,0.1-0.3,0.2-0.9,0.2c-0.6,0-0.9,0.1-0.9,0.4
			s-0.1,0.4-0.3,0.4c-0.2,0-0.3,0.2-0.3,0.6c0,0.5,0.1,0.8,0.4,0.9c0.3,0.1,0.4,0.9,0.4,2.5c0,1.6,0.1,2.4,0.3,2.5
			c0.2,0.1,0.3,0.8,0.3,2.2c0,1.3-0.1,2-0.3,2.1c-0.2,0.1-0.4,1.5-0.4,4.3c-0.1,2.4-0.2,3.9-0.4,4.3c-0.2,0.5-0.8,0.8-1.8,0.9
			c-0.6,0-0.9,0.1-1,0.2c-0.1,0.1-0.2,0.4-0.2,0.8c0,0.6,0.1,0.9,0.4,0.9c0.3,0,0.6,0.1,0.9,0.4c0.3,0.3,0.5,0.4,0.6,0.2
			c0.1-0.2,1.5-0.4,4-0.4c2.1,0,3.2,0.1,3.2,0.3c0,0.2,0.2,0.3,0.5,0.3c0.4,0,0.6-0.1,0.6-0.2s0.2-0.3,0.6-0.5
			c0.4-0.2,0.6-0.4,0.6-0.6c0-0.9-0.7-1.4-1.9-1.5l-1.3-0.1l0.1-6.7c0.1-4.5,0.2-6.8,0.3-7c0.1-0.1,0.2-0.8,0.3-1.9
			c0.1-2.1,0.4-3.2,0.7-3.2c0.2,0,0.4-0.1,0.4-0.3c0-0.2,0.2-0.3,0.7-0.3c0.4,0,0.8-0.1,1-0.3c0.3-0.2,0.4-0.5,0.4-0.7
			C258,79.8,257.8,79.5,257.5,79.3z M250.8,96.6c-0.3,0-0.4-0.1-0.4-0.3c0-0.2,0.1-0.3,0.4-0.3c0.2,0,0.4,0.1,0.4,0.3
			C251.2,96.5,251,96.6,250.8,96.6z M252.4,89.2c-0.3,0-0.4-0.2-0.4-0.5c0-0.4,0.1-0.6,0.4-0.6c0.3,0,0.4,0.2,0.4,0.6
			C252.8,89,252.7,89.2,252.4,89.2z"/>
		<path d="M270.1,103.2c0,0.2,0.2,0.3,0.5,0.3c0.4,0,0.6-0.1,0.6-0.2s0.2-0.3,0.6-0.5c0.4-0.2,0.6-0.4,0.6-0.6
			c0-0.9-0.7-1.4-1.9-1.5l-1.3-0.1l0.1-6.7c0.1-4.5,0.2-6.8,0.3-7c0.1-0.1,0.2-0.8,0.3-1.9c0.1-2.1,0.4-3.2,0.7-3.2
			c0.2,0,0.4-0.1,0.4-0.3c0-0.2,0.2-0.3,0.7-0.3c0.4,0,0.8-0.1,1-0.3c0.3-0.2,0.4-0.5,0.4-0.7c0-0.3-0.2-0.6-0.5-0.8
			c-0.3-0.2-1.4-0.3-3.4-0.3c-2,0-2.9,0.1-2.9,0.3c0,0.1-0.3,0.2-0.9,0.2c-0.6,0-0.9,0.1-0.9,0.4s-0.1,0.4-0.3,0.4
			c-0.2,0-0.3,0.2-0.3,0.6c0,0.5,0.1,0.8,0.4,0.9c0.3,0.1,0.4,0.9,0.4,2.5c0,1.6,0.1,2.4,0.3,2.5c0.2,0.1,0.3,0.8,0.3,2.2
			c0,1.3-0.1,2-0.3,2.1c-0.2,0.1-0.4,1.5-0.4,4.3c-0.1,2.4-0.2,3.9-0.4,4.3c-0.2,0.5-0.8,0.8-1.8,0.9c-0.6,0-0.9,0.1-1,0.2
			c-0.1,0.1-0.2,0.4-0.2,0.8c0,0.6,0.1,0.9,0.4,0.9c0.3,0,0.6,0.1,0.9,0.4c0.3,0.3,0.5,0.4,0.6,0.2c0.1-0.2,1.5-0.4,4-0.4
			C269,102.9,270.1,103,270.1,103.2z M267.4,88c0.3,0,0.4,0.2,0.4,0.6c0,0.4-0.1,0.5-0.4,0.5c-0.3,0-0.4-0.2-0.4-0.5
			C267,88.2,267.1,88,267.4,88z M265.8,96.6c-0.3,0-0.4-0.1-0.4-0.3c0-0.2,0.1-0.3,0.4-0.3c0.2,0,0.4,0.1,0.4,0.3
			C266.2,96.5,266,96.6,265.8,96.6z"/>
		<path d="M167,785.3c0.1,0,0.2-0.2,0.2-0.5c0-0.2,0-0.4-0.1-0.4c-0.1,0-0.1-0.1-0.1-0.3c0-0.2,0.1-0.4,0.2-0.6
			c0.1-0.3,0.1-0.5-0.2-0.6c-0.2-0.2-0.5-0.3-0.9-0.3c-0.5,0-0.8,0.1-1.1,0.4c-0.3,0.2-0.4,0.3-0.5,0.2c-0.1-0.1-0.4-0.1-0.8,0
			c-0.5,0.1-1.4,0.2-2.6,0.2c-0.9,0-1.4,0-1.5-0.1c-0.1-0.1-0.2,0-0.4,0.2c-0.1,0.1-0.3,0.2-0.4,0.2c-0.2,0-0.4,0-0.7-0.1
			c-0.7-0.2-1.1-0.2-1.3-0.2c-0.1,0-0.2,0-0.2,0c-0.1,0-0.3,0.1-0.4,0.3s-0.2,0.4-0.2,0.5c0,0.1,0,0.1,0.1,0.2c0,0,0.1,0.2,0.1,0.5
			c0,0.1,0,0.2-0.1,0.3c-0.1,0-0.2,0.1-0.3,0.1c-0.3,0-0.5,0.1-0.5,0.3c0,0,0,0.1,0.1,0.2c0.1,0.1,0.1,0.3,0.1,0.6
			c0,0.3-0.1,0.4-0.1,0.5c0,0.5,0.2,0.8,0.6,0.8c0.3,0,0.4-0.1,0.4-0.2c0-0.1,0.1-0.2,0.2-0.2c0.1,0,0.1,0,0.2-0.1c0,0,0-0.1,0-0.2
			c0-0.1-0.1-0.2-0.2-0.2c-0.1-0.1-0.1-0.1-0.1-0.2c0,0,0-0.1,0-0.1c0,0,0-0.1,0.1-0.1c0,0,0.1,0,0.2-0.1c0.2-0.1,0.2-0.2,0.2-0.3
			c0,0,0-0.1,0-0.2c0-0.1,0-0.1,0-0.2c0-0.1,0-0.2,0.1-0.2c0.1-0.1,0.1-0.3,0-0.6c-0.1-0.3-0.1-0.4,0-0.4c0.1,0,0.1,0.1,0.1,0.2
			c0,0.1,0.2,0.2,0.5,0.4c0.4,0.1,0.7,0.2,1.1,0.2c0.4,0,0.7,0.1,0.8,0.3c0.2,0.2,0.3,0.2,0.5,0.2c0.1,0,0.1,0,0.1,0
			c0.1,0,0.1,0,0,0.1c-0.3,0.3-0.4,2.2-0.5,5.8c0,0.8-0.1,1.2-0.3,1.4c-0.2,0.1-0.3,0.3-0.3,0.4c0,0.1-0.3,0.2-0.8,0.2l-0.7,0.1
			l-0.1,0.5c0,0,0,0.1,0,0.1c0,0,0,0.1,0,0.1c0,0.2,0.1,0.4,0.4,0.7c0.3,0.3,0.5,0.4,0.7,0.4c0.1,0,0.1,0,0.1-0.1s0-0.1-0.1-0.1
			c-0.1,0-0.1,0-0.1-0.1c0-0.1,0.2-0.1,0.5-0.1c0.1,0,0.4,0,0.8,0c0.4,0,0.7,0,0.9,0c0.6,0,0.9-0.1,1.1-0.2c0.1-0.1,0.3-0.2,0.6-0.1
			c0.2,0.1,0.3,0,0.4-0.1c0.1-0.1,0.2-0.1,0.3-0.1c0.1,0,0.3-0.1,0.5-0.2c0.1-0.1,0.2-0.2,0.2-0.3c0-0.1-0.1-0.2-0.2-0.5
			c-0.2-0.3-0.3-0.4-0.5-0.4c-0.1,0-0.2-0.1-0.2-0.2c0-0.1-0.1-0.2-0.3-0.1c0,0-0.1,0-0.1,0c-0.1,0-0.1,0-0.1,0
			c-0.1,0-0.2,0-0.3-0.1c0-0.1-0.1-0.3-0.1-0.5v-0.4c0-0.5,0-0.8,0-0.9c0-0.1,0.1-0.2,0.2-0.2c0.2,0,0.2-0.1,0.2-0.4
			c0-0.3-0.1-0.5-0.2-0.5c-0.1,0-0.2-0.4-0.2-1.1c0-0.8,0.1-1.2,0.2-1.4c0.1-0.1,0.2-0.5,0.2-1.2c0-0.7,0.1-1,0.1-1.1
			c0.1-0.2,0.5-0.2,1.2-0.2c1,0,1.5,0.1,1.6,0.4c0,0.1,0.1,0.2,0.4,0.5c0.2,0.2,0.3,0.4,0.3,0.8c0,0.3,0.1,0.5,0.1,0.5
			c0,0.1,0.2,0.1,0.4,0.1c0.2,0,0.4,0,0.4-0.1c0-0.1,0.1-0.2,0.3-0.2c0.2-0.1,0.3-0.2,0.3-0.4c0-0.2-0.1-0.4-0.2-0.5
			C166.9,785.4,166.9,785.3,167,785.3z"/>
		<path d="M187.6,781.9c-0.2-0.1-0.5-0.1-0.8-0.1c-0.1,0-0.2,0-0.5,0.1c-0.3,0.1-0.5,0.1-0.7,0.1h-0.1h-0.2c-0.2,0-0.5,0-1,0.1
			c-0.4,0-0.7,0.1-0.8,0.1c-0.1,0-0.2,0.1-0.2,0.2c0,0.2,0,0.3-0.1,0.3c-0.1,0-0.1,0-0.1,0.1c0,0.1,0,0.2,0,0.3
			c0,0.1,0.1,0.2,0.2,0.2c0.1,0.1,0.2,0.5,0.2,1.3c0,0.8,0.1,1.2,0.2,1.2c0.1,0,0.1,0.3,0.1,0.8v0.8h-1.3c-0.8,0-1.7,0-2.7-0.1
			l-1.4-0.1v-0.7c0-0.5,0-0.7,0.1-0.7c0.1,0,0.1-0.3,0.2-0.9c0-1.1,0.1-1.6,0.4-1.6c0.1,0,0.2,0,0.2-0.1c0-0.1,0.1-0.2,0.4-0.2
			c0.2,0,0.4-0.1,0.5-0.2c0.1-0.1,0.2-0.2,0.2-0.4c0-0.2-0.1-0.3-0.2-0.4c-0.2-0.1-0.5-0.2-1-0.2c-0.3,0-0.4,0-0.5,0.1
			c0,0-0.5,0.1-1.3,0.1c-0.9,0.1-1.7,0.2-2.4,0.5c-0.1,0-0.2,0.1-0.2,0.2c0,0.1,0.2,0.2,0.6,0.4l0.6,0.3l0,0.8v0.9v0.3
			c0,0.2,0,0.4,0.1,0.4c0.1,0.1,0.2,0.5,0.2,1.1c0,0.6-0.1,1.1-0.2,1.4c-0.1,0.3-0.2,0.6-0.2,0.8c0,0,0,0,0,0.1c0,0,0,0.1,0,0.1
			c0,0.2,0.1,0.4,0.1,0.6c0,0.5,0,1.1-0.1,1.8c-0.1,0.6-0.2,1-0.2,1.2c-0.1,0.2-0.4,0.3-0.8,0.3c-0.3,0-0.5,0.1-0.6,0.1
			c-0.1,0.1-0.1,0.2-0.1,0.4v0.5l0.7-0.1c0.3-0.1,1-0.1,2.2-0.1h0.7h0.7c1,0,1.6,0,1.6-0.1c0-0.1-0.1-0.3-0.2-0.5
			c-0.2-0.2-0.3-0.3-0.4-0.3h-0.1c-0.2,0.1-0.4,0.1-0.6-0.1c-0.1-0.1-0.2-0.1-0.3-0.2c0-0.1-0.1-0.2-0.1-0.4c0-0.3,0-0.5,0-0.8
			c0-0.9,0.1-1.6,0.1-2.1v-0.8h4.9l0.1,0.4c0,0.2,0.1,0.5,0.1,0.7c0,0.5,0,1.1-0.1,1.7c-0.1,0.6-0.2,1-0.3,1
			c-0.1,0.1-0.4,0.2-0.8,0.3c-0.3,0-0.5,0.1-0.5,0.1c-0.1,0.1-0.1,0.2-0.1,0.4c0,0.3,0.1,0.5,0.3,0.5c0.3,0.1,1.3,0.1,3.1,0.1
			c1.3,0,2,0,2.1-0.1c0.2-0.1,0.3-0.2,0.3-0.4c0-0.2-0.1-0.3-0.2-0.5c-0.1-0.1-0.3-0.2-0.4-0.2c0,0,0,0-0.1,0c0,0,0,0-0.1,0
			c-0.1,0.1-0.3,0.1-0.5,0l-0.4-0.1l0.1-3.5c0-2.3,0.1-3.5,0.2-3.6c0.1,0,0.1-0.3,0.1-0.9c0.1-1.1,0.2-1.6,0.4-1.6
			c0.1,0,0.2,0,0.2-0.1c0-0.1,0.1-0.2,0.4-0.2c0.2,0,0.4-0.1,0.5-0.2c0.2-0.1,0.2-0.3,0.2-0.4C187.9,782.1,187.8,782,187.6,781.9z
			 M176.8,790.8c-0.2-0.1-0.3-0.1-0.3-0.2c0-0.1,0-0.1,0.1-0.1c0.2,0,0.3,0.1,0.4,0.2c0,0,0,0,0,0.1
			C177,790.8,176.9,790.8,176.8,790.8z M177.4,790.7c-0.1,0-0.1-0.1-0.1-0.2c0-0.1,0-0.2,0.1-0.2c0.1,0,0.2,0.1,0.2,0.2
			C177.6,790.7,177.6,790.7,177.4,790.7z M177.5,787c-0.1,0-0.2-0.1-0.2-0.3c0-0.3,0.1-0.4,0.2-0.4c0.2,0,0.2,0.1,0.2,0.3
			C177.7,786.9,177.6,787,177.5,787z M184.6,790.8c-0.1,0.1-0.2,0.1-0.4,0c-0.2-0.1-0.3-0.1-0.3-0.2c0-0.1,0.1-0.1,0.2-0.1
			c0.3,0,0.5,0.1,0.5,0.2C184.6,790.7,184.6,790.8,184.6,790.8z M185,790.7c-0.1,0-0.2-0.1-0.2-0.2c0-0.1,0.1-0.2,0.2-0.2
			c0.1,0,0.1,0.1,0.1,0.2C185.1,790.7,185.1,790.7,185,790.7z M185,787c-0.1,0-0.2-0.1-0.2-0.3c0-0.3,0.1-0.4,0.2-0.4
			c0.1,0,0.2,0.1,0.2,0.3C185.1,786.9,185.1,787,185,787z"/>
		<path d="M195,792.1c0,0,0.1,0,0.1-0.1c0.1-0.2,0.1-0.3,0-0.3c-0.1,0-0.2,0.1-0.2,0.2C194.9,792,194.9,792.1,195,792.1z"/>
		<path d="M205.2,790.2c-0.1,0-0.3,0.2-0.5,0.5c-0.3,0.3-0.4,0.6-0.4,0.7c0,0.1-0.1,0.2-0.4,0.2c-0.1,0-0.2,0-0.3,0.1
			c0,0-0.1,0.1-0.1,0.1c0,0,0,0.1,0,0.3c0,0.2-0.1,0.3-0.4,0.3c0,0-0.1,0-0.1,0c-0.1,0-0.1,0-0.2,0c-0.2,0-0.4,0.1-0.6,0.3
			c-0.2,0.2-0.4,0.3-0.6,0.3c-0.1,0-0.2-0.1-0.2-0.2c0-0.1-0.1-0.1-0.4,0c-0.2,0.1-0.6,0.2-1.2,0.2c-0.5,0-0.7,0-0.7-0.1
			c0-0.1-0.1-0.1-0.2-0.1c-0.1,0-0.1-0.1-0.2-0.2c-0.1-0.2-0.1-0.3-0.1-0.4c0-0.1,0-0.2,0-0.3c0-0.2,0-0.4,0-0.6c0-0.3,0-0.5,0-0.8
			c0-0.3,0-0.5,0-0.8c0-0.3,0-0.5,0-0.6v-0.2c0-0.1,0.4-0.1,1.3-0.1c0.7,0,1.2,0.1,1.4,0.2c0.2,0.1,0.4,0.4,0.4,0.8
			c0,0.2,0,0.3,0.1,0.3c0,0,0.1,0,0.2,0c0.1-0.1,0.3-0.1,0.5-0.1c0.1,0,0.2,0,0.3-0.1c0-0.1,0.1-0.2,0.1-0.5c0-0.1,0-0.2,0-0.3
			c0-0.2,0-0.3,0-0.4v-0.2c0-0.3,0-0.6,0.1-0.7c0.1-0.1,0.1-0.3,0-0.4c-0.1-0.1-0.1-0.3,0.1-0.4c0.1-0.1,0.2-0.2,0.2-0.4
			c0-0.3-0.3-0.4-1-0.4c-0.4,0-0.6,0.2-0.6,0.5c0,0.1,0,0.2,0.1,0.3c0,0.2,0,0.4,0,0.5c-0.1,0.1-0.3,0.2-0.9,0.3
			c-0.5,0.1-1,0.1-1.5,0.1h-0.6v-0.6c0-0.4,0.1-0.6,0.2-0.6c0.1,0,0.2-0.1,0.2-0.4c0-0.3-0.1-0.5-0.2-0.9c-0.1-0.2-0.2-0.4-0.1-0.4
			c0-0.1,0.1-0.1,0.2-0.3c0.2-0.1,0.3-0.3,0.2-0.5c0,0,0-0.1,0-0.2c0-0.1,0.1-0.3,0.4-0.3c0.3-0.1,0.7-0.1,1.5-0.2
			c0.7,0,1.1-0.1,1.1-0.1c0.3,0,0.5,0.1,0.6,0.2c0.1,0.2,0.3,0.3,0.5,0.4c0.2,0.1,0.3,0.2,0.3,0.3c0,0.1,0.1,0.2,0.3,0.3
			c0.2,0.1,0.3,0.2,0.3,0.3c0,0.2,0.1,0.3,0.3,0.5c0.2,0.2,0.4,0.2,0.6,0.2h0c0.3,0,0.4-0.2,0.4-0.6c0-0.2-0.1-0.3-0.2-0.5
			c-0.1-0.1-0.2-0.3-0.2-0.5c0-0.3-0.1-0.5-0.2-0.5c-0.1,0-0.1-0.1,0-0.4c0.1-0.1,0.1-0.2,0.1-0.3c0,0-0.1-0.1-0.1-0.1
			c-0.1-0.1-0.2-0.2-0.2-0.3c0-0.1-0.1-0.3-0.3-0.5c-0.2-0.2-0.4-0.3-0.6-0.1c-0.3,0.1-1.8,0.3-4.7,0.4h-0.7c-1.5,0-2.2-0.1-2.3-0.3
			c0-0.1-0.1-0.1-0.2-0.1c-0.1,0-0.2,0-0.2,0.1l0,0.1c0,0.1,0,0.1,0,0.1c0,0,0,0.1,0,0.2c0,0.1,0,0.2,0,0.2c0,0.2-0.1,0.3-0.3,0.3
			c-0.2,0.1-0.3,0.2-0.2,0.5c0.1,0.2,0.1,0.4,0.2,0.5c0.1,0.1,0.2,0.1,0.3,0.1c0.1,0,0.3,0,0.4,0c0.1,0,0.2,0,0.4,0
			c0.3,0,0.5,0.1,0.6,0.4c0.1,0.2,0.1,0.7,0.1,1.4c0,0.9-0.1,1.4-0.2,1.4c-0.1,0-0.1,0.2,0,0.4c0.1,0.2,0.1,0.4,0,0.6
			c-0.1,0.2-0.2,0.3-0.3,0.3c-0.1,0-0.1,0.1,0.1,0.2c0.1,0.1,0.1,0.3,0.1,0.6c0,0.5-0.1,1.5-0.2,2.8l-0.1,0.9H196
			c-0.4,0-0.6,0.1-0.6,0.3c0,0.2-0.1,0.3-0.3,0.3c-0.1,0-0.2,0.1-0.2,0.3c0,0.3,0.1,0.5,0.3,0.6c0.2,0.1,0.3,0.2,0.3,0.4
			c0,0.1,0.2,0.1,0.7,0.1c0.5,0,0.8-0.1,0.9-0.3c0.1-0.1,0.5-0.2,1.2-0.2c0.5,0,0.9,0,1.3,0c0.7,0,1.1,0.1,1.2,0.2
			c0,0.1,0.2,0.1,0.4,0c0.2-0.1,0.7-0.2,1.5-0.2c0.8,0,1.3,0,1.5-0.1c0.2,0,0.3-0.1,0.5-0.3c0.2-0.2,0.3-0.3,0.2-0.5
			c0-0.2,0-0.3,0.1-0.4c0.1-0.1,0.2-0.3,0.2-0.8c0-0.3,0-0.5,0-0.6c0-0.1,0.1-0.1,0.2-0.1c0.2,0,0.3-0.2,0.3-0.5
			c0-0.2-0.1-0.4-0.2-0.6C205.4,790.3,205.3,790.2,205.2,790.2z"/>
		<path d="M234.6,790.2c-0.1,0-0.3,0.2-0.5,0.5c-0.3,0.3-0.4,0.6-0.4,0.7c0,0.1-0.1,0.2-0.4,0.2c-0.1,0-0.2,0-0.3,0.1
			c0,0-0.1,0.1-0.1,0.1c0,0,0,0.1,0,0.3c0,0.2-0.1,0.3-0.4,0.3c0,0-0.1,0-0.1,0c-0.1,0-0.1,0-0.2,0c-0.2,0-0.4,0.1-0.6,0.3
			c-0.2,0.2-0.4,0.3-0.6,0.3c-0.1,0-0.2-0.1-0.2-0.2c0-0.1-0.1-0.1-0.4,0c-0.2,0.1-0.6,0.2-1.2,0.2c-0.5,0-0.7,0-0.7-0.1
			c0-0.1-0.1-0.1-0.2-0.1c-0.1,0-0.1-0.1-0.2-0.2c-0.1-0.2-0.1-0.3-0.1-0.4c0-0.1,0-0.2,0-0.3c0-0.2,0-0.4,0-0.6c0-0.3,0-0.5,0-0.8
			c0-0.3,0-0.5,0-0.8c0-0.3,0-0.5,0-0.6v-0.2c0-0.1,0.4-0.1,1.3-0.1c0.7,0,1.2,0.1,1.4,0.2c0.2,0.1,0.4,0.4,0.4,0.8
			c0,0.2,0,0.3,0.1,0.3c0,0,0.1,0,0.2,0c0.1-0.1,0.3-0.1,0.5-0.1c0.1,0,0.2,0,0.3-0.1c0-0.1,0.1-0.2,0.1-0.5c0-0.1,0-0.2,0-0.3
			c0-0.2,0-0.3,0-0.4v-0.2c0-0.3,0-0.6,0.1-0.7c0.1-0.1,0.1-0.3,0-0.4c-0.1-0.1-0.1-0.3,0.1-0.4c0.1-0.1,0.2-0.2,0.2-0.4
			c0-0.3-0.3-0.4-1-0.4c-0.4,0-0.6,0.2-0.6,0.5c0,0.1,0,0.2,0.1,0.3c0,0.2,0,0.4,0,0.5c-0.1,0.1-0.3,0.2-0.9,0.3
			c-0.5,0.1-1,0.1-1.5,0.1h-0.6v-0.6c0-0.4,0.1-0.6,0.2-0.6c0.1,0,0.2-0.1,0.2-0.4c0-0.3-0.1-0.5-0.2-0.9c-0.1-0.2-0.2-0.4-0.1-0.4
			c0-0.1,0.1-0.1,0.2-0.3c0.2-0.1,0.3-0.3,0.2-0.5c0,0,0-0.1,0-0.2c0-0.1,0.1-0.3,0.4-0.3c0.3-0.1,0.7-0.1,1.5-0.2
			c0.7,0,1.1-0.1,1.1-0.1c0.3,0,0.5,0.1,0.6,0.2c0.1,0.2,0.3,0.3,0.5,0.4c0.2,0.1,0.3,0.2,0.3,0.3c0,0.1,0.1,0.2,0.3,0.3
			c0.2,0.1,0.3,0.2,0.3,0.3c0,0.2,0.1,0.3,0.3,0.5s0.4,0.2,0.6,0.2h0c0.3,0,0.4-0.2,0.4-0.6c0-0.2-0.1-0.3-0.2-0.5
			c-0.1-0.1-0.2-0.3-0.2-0.5c0-0.3-0.1-0.5-0.2-0.5c-0.1,0-0.1-0.1,0-0.4c0.1-0.1,0.1-0.2,0.1-0.3c0,0-0.1-0.1-0.1-0.1
			c-0.1-0.1-0.2-0.2-0.2-0.3c0-0.1-0.1-0.3-0.3-0.5c-0.2-0.2-0.4-0.3-0.6-0.1c-0.3,0.1-1.8,0.3-4.7,0.4H228c-1.5,0-2.2-0.1-2.3-0.3
			c0-0.1-0.1-0.1-0.2-0.1c-0.1,0-0.2,0-0.2,0.1l0,0.1c0,0.1,0,0.1,0,0.1c0,0,0,0.1,0,0.2c0,0.1,0,0.2,0,0.2c0,0.2-0.1,0.3-0.3,0.3
			c-0.2,0.1-0.3,0.2-0.2,0.5c0.1,0.2,0.1,0.4,0.2,0.5c0.1,0.1,0.2,0.1,0.3,0.1c0.1,0,0.3,0,0.4,0c0.1,0,0.2,0,0.4,0
			c0.3,0,0.5,0.1,0.6,0.4c0.1,0.2,0.1,0.7,0.1,1.4c0,0.9-0.1,1.4-0.2,1.4c-0.1,0-0.1,0.2,0,0.4c0.1,0.2,0.1,0.4,0,0.6
			c-0.1,0.2-0.2,0.3-0.3,0.3c-0.1,0-0.1,0.1,0.1,0.2c0.1,0.1,0.1,0.3,0.1,0.6c0,0.5-0.1,1.5-0.2,2.8l-0.1,0.9h-0.6
			c-0.4,0-0.6,0.1-0.6,0.3c0,0.2-0.1,0.3-0.3,0.3c-0.1,0-0.2,0.1-0.2,0.3c0,0.3,0.1,0.5,0.3,0.6c0.2,0.1,0.3,0.2,0.3,0.4
			c0,0.1,0.2,0.1,0.7,0.1c0.5,0,0.8-0.1,0.9-0.3c0.1-0.1,0.5-0.2,1.2-0.2c0.5,0,0.9,0,1.3,0c0.7,0,1.1,0.1,1.2,0.2
			c0,0.1,0.2,0.1,0.4,0c0.2-0.1,0.7-0.2,1.5-0.2c0.8,0,1.3,0,1.5-0.1c0.2,0,0.3-0.1,0.5-0.3c0.2-0.2,0.3-0.3,0.2-0.5
			c0-0.2,0-0.3,0.1-0.4c0.1-0.1,0.2-0.3,0.2-0.8c0-0.3,0-0.5,0-0.6c0-0.1,0.1-0.1,0.2-0.1c0.2,0,0.3-0.2,0.3-0.5
			c0-0.2-0.1-0.4-0.2-0.6C234.9,790.3,234.7,790.2,234.6,790.2z"/>
		<path d="M224.4,792.1c0,0,0.1,0,0.1-0.1c0.1-0.2,0.1-0.3,0-0.3c-0.1,0-0.2,0.1-0.2,0.2C224.3,792,224.3,792.1,224.4,792.1z"/>
		<path d="M247.2,800.6c-0.1,0-0.2,0.1-0.2,0.2c0,0.1,0.1,0.2,0.2,0.2s0.2-0.1,0.2-0.2C247.4,800.7,247.3,800.6,247.2,800.6z"/>
		<path d="M255.1,782.6c-0.3,0-0.5,0-0.7,0c-0.4,0-0.7,0.1-0.7,0.1c-0.1,0-0.2,0-0.2,0c-0.1,0-0.1-0.1-0.1-0.1c0,0,0-0.1-0.1-0.2
			c0-0.1,0-0.2,0-0.2c0-0.1,0-0.1,0,0c0,0,0,0.1,0,0.2c0,0.2-0.2,0.4-0.4,0.4c-0.2,0.1-0.4,0.2-0.4,0.4c0,0.1-0.1,0.3-0.2,0.4
			c-0.1,0.1-0.2,0.3-0.2,0.4c0,0.2-0.1,0.4-0.2,0.6c-0.1,0.2-0.2,0.4-0.2,0.6c0,0.2,0,0.3-0.1,0.3c-0.1,0-0.2,0.1-0.2,0.4
			c0,0.2-0.1,0.4-0.2,0.5c-0.1,0.1-0.2,0.2-0.3,0.5c-0.1,0.3-0.1,0.4-0.2,0.4c-0.1,0-0.1,0.1-0.1,0.3c0,0.2,0,0.4-0.2,0.5
			c-0.2,0.2-0.3,0.5-0.3,0.9c-0.1,0.4-0.2,0.6-0.4,0.6c-0.2,0-0.3,0.1-0.3,0.2c0,0.1,0,0.2-0.1,0.2s-0.1,0.1-0.1,0.3
			c0,0.2-0.1,0.3-0.3,0.3c-0.2,0-0.3-0.2-0.3-0.5c0-0.3-0.1-0.5-0.2-0.5s-0.2-0.1-0.2-0.3c0-0.2,0-0.3-0.1-0.3
			c-0.1,0-0.2-0.2-0.2-0.6c0-0.4-0.1-0.6-0.2-0.6c-0.1-0.1-0.2-0.2-0.2-0.4c0-0.2,0-0.3-0.1-0.3c-0.1,0-0.2-0.2-0.2-0.5
			s-0.1-0.6-0.3-0.7c-0.2-0.2-0.3-0.5-0.3-0.9c0-0.5,0-0.7-0.1-0.7c-0.1,0-0.2-0.3-0.2-0.8c-0.1-0.6-0.2-0.9-0.4-0.9
			c-0.2,0-0.4-0.1-0.5-0.3c-0.1-0.2-0.3-0.3-0.4-0.3c-0.2,0-0.3-0.1-0.4-0.3l-0.1-0.2l0,0.2c0,0.2-0.1,0.3-0.4,0.3
			c-0.3,0-0.4,0-0.4,0.1c0,0.1-0.1,0.1-0.2,0.1c-0.1,0-0.2,0.1-0.3,0.2c-0.1,0.1-0.2,0.2-0.4,0.1c-0.3-0.1-0.4,0-0.4,0.1
			c0,0.1,0.1,0.3,0.3,0.4c0.2,0.2,0.4,0.3,0.5,0.3c0.3,0.1,0.4,0.7,0.4,1.8c0,0.6,0,1,0,1.4c0,0.3,0,0.7,0,1.1
			c0,0.6,0.1,0.9,0.2,1.1c0.1,0.1,0.1,0.2,0,0.2c-0.2,0-0.2,0.1-0.2,0.2c0,0.1,0,0.2-0.1,0.5c-0.1,0.8-0.2,1.3-0.2,1.5
			c0,0.2,0,0.3,0.1,0.3c0.1,0,0.1,0.1,0.1,0.2c0,0.1,0,0.2-0.1,0.2c-0.1,0-0.1,0.1-0.2,0.3c-0.1,0.2-0.3,0.3-0.6,0.4
			c-0.3,0.1-0.5,0.2-0.5,0.5c0,0.1,0,0.2,0.1,0.4c0,0.2,0.1,0.3,0.2,0.3c0.1,0,0.4,0,0.8,0c0.6,0,0.9,0,0.9-0.1s0.3-0.1,0.8-0.1
			c0.6,0,1-0.1,1-0.4c0-0.1,0-0.2,0-0.2c-0.1-0.2-0.3-0.3-0.6-0.3c-0.4,0-0.6-0.1-0.6-0.2c0-0.1-0.1-1.3-0.2-3.7c0-0.7,0-1.5,0-2.4
			c0-0.8,0.1-1.2,0.2-1.2c0.1,0,0.2,0.1,0.2,0.2c0,0.1,0.1,0.2,0.2,0.2c0.1,0,0.1,0.1,0.1,0.4c0,0.3,0,0.4,0.1,0.4
			c0.1,0,0.1,0.1,0.2,0.4c0.1,0.2,0.2,0.5,0.3,0.9c0.2,0.4,0.3,0.6,0.4,0.6c0,0,0.1,0.1,0.1,0.4c0.1,0.2,0.1,0.5,0.2,0.7
			c0.1,0.2,0.1,0.4,0.1,0.4c0.1,0,0.1,0.2,0.2,0.5c0.1,0.3,0.2,0.5,0.2,0.5s0.1,0.2,0.2,0.5c0,0.2,0.1,0.5,0.3,0.9s0.3,0.7,0.3,0.9
			c0,0.3,0.1,0.4,0.4,0.5h0.1c0.4,0,0.7-0.3,0.8-1c0.1-0.3,0.1-0.5,0.2-0.6c0.1-0.1,0.1-0.2,0.1-0.4c0-0.2,0.1-0.3,0.4-0.4
			c0.2-0.1,0.4-0.3,0.4-0.6c0-0.2,0.1-0.4,0.2-0.6c0.1-0.2,0.2-0.4,0.2-0.7c0-0.2,0-0.3,0-0.4c0-0.1,0.1-0.1,0.1,0
			c0.1,0,0.1,0,0.1,0c0,0,0-0.1,0-0.2c0-0.2,0.1-0.3,0.2-0.4c0.1-0.1,0.2-0.3,0.3-0.6c0.1-0.3,0.2-0.5,0.2-0.5
			c0.1,0,0.1-0.1,0.1-0.4c0-0.2,0.1-0.4,0.2-0.4c0.1-0.1,0.2-0.2,0.2-0.3c0-0.1,0.1-0.3,0.2-0.4c0.1-0.1,0.2-0.2,0.3-0.2
			c0.2,0,0.2,0.1,0.2,0.4c0,0.1,0,0.2,0,0.2c0,0.3-0.1,0.7-0.1,1.4v0.7c0,0.2,0,0.5,0,0.9c0,0.5,0,0.8-0.1,0.8
			c-0.1,0-0.2,0.5-0.2,1.4l0,1.4l-0.8,0.1c-0.5,0-0.7,0.1-0.8,0.3c0,0.1-0.1,0.2-0.1,0.2c0,0.2,0.2,0.3,0.6,0.3c0.3,0,0.5,0,0.5,0.1
			s0.7,0.1,2.2,0.1c0.9,0,1.3,0,1.3-0.1s0.1-0.1,0.2-0.1c0.1,0,0.2-0.1,0.2-0.4c0-0.3-0.1-0.5-0.3-0.6c-0.1,0-0.1,0-0.2,0
			c-0.1,0-0.1,0-0.2,0c-0.1,0-0.1,0-0.2,0c-0.1,0-0.2,0-0.2,0c-0.1,0-0.2-0.1-0.2-0.2c0-0.1-0.1-0.3-0.1-0.6c0-0.5,0.1-0.8,0.2-0.9
			c0.1,0,0.1-0.3,0.1-0.6c0-0.4,0-0.5-0.1-0.5c-0.1,0-0.2-0.1-0.2-0.4c0-0.3,0.1-0.5,0.2-0.6c0.1-0.1,0.1-0.1,0-0.2
			c-0.1-0.1-0.2-0.7-0.2-1.9c0-1.1,0.1-1.7,0.2-1.7c0.1,0,0.1-0.2,0.1-0.5c0-0.3,0.1-0.4,0.2-0.5c0.1-0.1,0.3-0.1,0.7-0.1
			c0.2,0,0.3,0,0.4-0.1c0-0.1,0.1-0.2,0.1-0.5c0-0.3-0.1-0.5-0.2-0.6S255.5,782.6,255.1,782.6z M247.6,789.4c-0.1,0-0.1,0-0.1-0.1
			c0-0.1,0-0.2,0.1-0.2c0.1,0,0.1,0.1,0.1,0.2C247.8,789.4,247.7,789.4,247.6,789.4z M253.2,786.6c-0.1,0-0.1-0.1-0.1-0.2
			c0-0.1,0.1-0.1,0.1-0.1c0.1,0,0.2,0.1,0.2,0.2C253.3,786.6,253.2,786.6,253.2,786.6z"/>
		<path d="M269,781.6c0.1,0.1,0.3,0.1,0.4,0c0,0,0,0,0.1,0c0.1-0.1,0.1-0.1,0.1-0.1c0,0-0.1,0-0.3,0
			C269.1,781.5,269,781.5,269,781.6z"/>
		<path d="M272.8,783.4c-0.1,0-0.2,0-0.2-0.1c0-0.1-0.1-0.2-0.4-0.3c-0.3-0.1-0.4-0.3-0.5-0.5l-0.2-0.3c-0.1-0.1-0.2-0.1-0.2,0.1
			c0,0.1-0.3,0.1-0.8,0.1c-0.6,0-0.9,0-0.9-0.1s-0.1-0.1-0.3-0.1c-0.5,0-0.8-0.1-0.8-0.4c0-0.1-0.1-0.2-0.3-0.2s-0.3,0.1-0.2,0.3
			c0,0,0,0,0,0.1c0,0,0,0,0,0.1c0,0.1-0.6,0.2-1.8,0.2h-1.8l-0.5,0.5c-0.3,0.3-0.5,0.5-0.5,0.7c0,0.2,0.2,0.4,0.7,0.4
			c0.2,0,0.3,0,0.3,0.1c0,0.1,0,0.1,0.1,0.1c0.2,0,0.4,0.2,0.6,0.5c0.2,0.3,0.3,0.7,0.3,1.2c0,0.4,0.1,0.6,0.1,0.6
			c0,0.2-0.1,0.4-0.2,0.5c-0.2,0.1-0.2,0.2-0.1,0.3c0.1,0.1,0.2,0.3,0.2,0.7c0,0.3-0.1,0.5-0.2,0.5c-0.2,0-0.2,0,0,0.1
			c0.1,0.1,0.1,0.3,0,0.6c-0.1,0.3-0.1,0.5,0.1,0.6c0.1,0.1,0.1,0.2,0.1,0.3c0,0.2-0.1,0.4-0.2,0.5c-0.1,0.1-0.1,0.6-0.2,1.6l0,1.5
			l-0.4,0.2c-0.2,0.1-0.5,0.2-1.1,0.2c-0.3,0-0.5,0.1-0.5,0.1c-0.1,0.1-0.1,0.2-0.1,0.4c0,0.2,0.2,0.5,0.6,0.8
			c0.2,0.1,0.3,0.2,0.5,0.2c0.2,0,0.3-0.1,0.3-0.2c0.1-0.1,0.8-0.2,2.1-0.2c1.4-0.1,2.1-0.1,2.2-0.3c0.1-0.1,0.2-0.2,0.3-0.2
			c0.1,0,0.2-0.1,0.2-0.2c0-0.1-0.1-0.2-0.4-0.2c-0.3,0-0.4-0.1-0.5-0.3c0-0.2-0.2-0.3-0.5-0.4c-0.4-0.1-0.5-0.2-0.5-0.4
			c0-0.1,0-0.2,0.1-0.3c0.2-0.2,0.2-0.3,0.1-0.4c-0.1,0-0.2-0.6-0.2-1.6c0-0.3,0-0.6,0-1c0-0.3,0-0.4,0.1-0.5c0-0.1,0.1-0.1,0.2-0.1
			c0.2,0,0.5,0,0.8,0.1c0.3,0.1,0.5,0.2,0.6,0.3c0.1,0.1,0.7,0.2,1.7,0.2c0.8,0,1.2,0,1.2-0.1c0.1-0.1,0-0.2-0.2-0.3
			c-0.2-0.1-0.4-0.2-0.5-0.4c-0.1-0.1-0.2-0.2-0.2-0.2c0,0,0.1-0.1,0.3-0.1c0.3-0.1,0.4-0.1,0.4-0.2c0-0.1,0.1-0.2,0.4-0.3
			c0.3-0.1,0.4-0.2,0.4-0.4c0-0.5,0.1-0.7,0.3-0.7c0.1,0,0.2-0.1,0.4-0.2c0.2-0.2,0.2-0.7,0.2-1.5c0-1-0.1-1.5-0.3-1.7
			C273,783.5,272.9,783.4,272.8,783.4z M271.2,787.1c0,0-0.1,0.1-0.4,0.1h-0.1c0,0-0.1,0-0.1,0c-0.1,0-0.1,0,0,0.1
			c0.1,0.1,0.2,0.1,0.2,0.2c0,0.1-0.1,0.3-0.3,0.5c-0.2,0.2-0.5,0.3-0.7,0.3c-0.3,0-0.6,0.1-1.1,0.2c-0.1,0-0.2,0-0.3,0
			c-0.2,0-0.4-0.1-0.7-0.3c-0.2-0.2-0.3-0.3-0.4-0.3c0-0.1,0-0.1,0.1-0.2c0.1-0.1,0.2-0.7,0.2-1.6v-1.2c0-0.3,0.1-0.5,0.2-0.7
			c0.1-0.2,0.3-0.4,0.4-0.4h0.1l0.4,0.1c0.3,0,0.5,0.1,0.8,0.1c0.2,0.1,0.4,0.1,0.4,0.1c0,0.1,0.1,0.1,0.4,0.2
			c0.3,0.1,0.4,0.2,0.4,0.3c0,0.1,0.1,0.3,0.2,0.4c0.1,0.1,0.2,0.2,0.1,0.3c-0.1,0.1-0.1,0.3,0.1,0.6c0.1,0.2,0.2,0.4,0.2,0.6
			C271.3,786.2,271.3,786.5,271.2,787.1z"/>
		<path d="M264.6,780.6c0,0.1,0.1,0.2,0.3,0.2s0.3-0.1,0.3-0.2c0-0.1-0.1-0.1-0.3-0.1S264.6,780.5,264.6,780.6z"/>
		<path d="M293.7,792.7c-0.1,0-0.2-0.1-0.3-0.4c-0.1-0.2-0.3-0.4-0.5-0.4c-0.2,0-0.4-0.1-0.6-0.2c-0.2-0.1-0.4-0.2-0.4-0.4
			c-0.1-0.1-0.1-0.2-0.3-0.2c-0.1,0-0.3-0.1-0.6-0.4c-0.2-0.3-0.4-0.6-0.6-0.9c-0.1-0.3-0.4-0.6-0.8-1.1c-0.4-0.5-0.7-0.7-0.8-0.7
			c-0.1,0-0.2-0.1-0.4-0.3c-0.1-0.1-0.2-0.2-0.1-0.3c0,0,0.1-0.1,0.3-0.2c0.8-0.3,1.2-0.6,1.2-0.9c0-0.5,0.1-0.7,0.3-0.7
			c0.1,0,0.2-0.1,0.4-0.2c0.2-0.2,0.2-0.7,0.2-1.5c0-1-0.1-1.5-0.3-1.7c-0.1-0.1-0.2-0.2-0.4-0.2c-0.1,0-0.2,0-0.2-0.1
			c0-0.1-0.1-0.2-0.4-0.3c-0.3-0.1-0.4-0.3-0.5-0.5l-0.2-0.3c-0.1-0.1-0.2-0.1-0.2,0.1c0,0.1-0.3,0.1-0.8,0.1c-0.6,0-0.9,0-0.9-0.1
			c0-0.1-0.1-0.1-0.4-0.1s-0.5-0.1-0.6-0.3c-0.2-0.2-0.3-0.3-0.4-0.3c-0.1,0-0.2,0.1-0.1,0.3c0,0,0,0,0,0.1v0.1
			c0,0.1-0.6,0.2-1.8,0.2h-1.9l-0.5,0.5c-0.3,0.3-0.5,0.6-0.5,0.7c0,0.1,0.2,0.2,0.5,0.3c0.3,0.1,0.5,0.1,0.5,0.2
			c0,0.1,0,0.1,0.1,0.1c0.2,0,0.4,0.2,0.6,0.5c0.2,0.3,0.3,0.7,0.3,1.2c0,0.4,0.1,0.6,0.1,0.6c0,0.2-0.1,0.4-0.2,0.5
			c-0.2,0.1-0.2,0.2-0.1,0.3c0.1,0.1,0.2,0.3,0.2,0.7c0,0.3-0.1,0.5-0.2,0.5c-0.1,0-0.2,0,0,0.1c0.1,0.1,0.2,0.2,0.2,0.4
			c0,0.2-0.1,0.4-0.2,0.5c-0.1,0.1-0.1,0.3,0.1,0.4c0.1,0.1,0.2,0.3,0.2,0.4c0,0.1-0.1,0.3-0.2,0.4c-0.2,0.2-0.3,0.7-0.3,1.6
			c0,0.7,0,1.1-0.1,1.2c0,0.1-0.1,0.2-0.3,0.3c-0.2,0.1-0.3,0.1-0.3,0.2c0,0.1-0.3,0.1-0.8,0.1c-0.4,0-0.6,0.1-0.7,0.1
			c-0.1,0.1-0.1,0.2-0.1,0.5c0,0.2,0.2,0.5,0.6,0.8c0.2,0.1,0.3,0.2,0.5,0.2c0.2,0,0.3-0.1,0.3-0.2c0.1-0.1,0.8-0.2,2.1-0.2
			c1.3,0,2.1-0.1,2.2-0.3c0.1-0.1,0.2-0.2,0.3-0.2c0.1,0,0.2-0.1,0.2-0.2c0-0.1-0.1-0.2-0.4-0.2c-0.3,0-0.4-0.1-0.5-0.3
			c0-0.2-0.2-0.3-0.5-0.4c-0.4-0.1-0.5-0.2-0.5-0.4c0-0.1,0-0.2,0.1-0.3c0.2-0.2,0.2-0.3,0.1-0.4c-0.1,0-0.2-0.6-0.2-1.6
			c0-0.3,0-0.6,0-1c0-0.3,0-0.4,0.1-0.5c0-0.1,0.1-0.1,0.2-0.1c0.5,0,1,0.2,1.5,0.5c0.5,0.4,0.8,0.7,0.8,1c0,0.2,0.1,0.3,0.2,0.3
			s0.2,0.1,0.2,0.4c0,0.5,0.3,0.8,0.8,1c0.2,0.1,0.4,0.3,0.5,0.7c0.1,0.4,0.3,0.8,0.7,1.2l0.6,0.7l0.9-0.1c0.1,0,0.3,0,0.6-0.1
			c0.3,0,0.6,0,0.8-0.1c0.2,0,0.4-0.1,0.7-0.1c0.3-0.1,0.4-0.1,0.6-0.2c0.1-0.1,0.2-0.2,0.2-0.3
			C293.8,792.8,293.8,792.7,293.7,792.7z M288,785.9c-0.1,0-0.2,0-0.2,0.1c-0.1,0-0.1,0,0,0.1c0.2,0,0.2,0.1,0.2,0.2
			c0,0.1-0.1,0.3-0.4,0.4c-0.2,0.2-0.5,0.3-0.7,0.3c-0.3,0-0.6,0.1-1.1,0.2c-0.1,0-0.2,0-0.3,0c-0.2,0-0.4-0.1-0.7-0.3
			c-0.2-0.2-0.3-0.3-0.4-0.3c0-0.1,0-0.1,0.1-0.2c0.1-0.1,0.2-0.7,0.2-1.6v-1.2c0-0.3,0.1-0.5,0.2-0.7s0.3-0.4,0.4-0.4h0.1l0.4,0.1
			c0.3,0,0.5,0.1,0.8,0.1c0.2,0.1,0.4,0.1,0.4,0.1c0,0.1,0.1,0.1,0.4,0.2c0.3,0.1,0.4,0.2,0.4,0.3c0,0.1,0.1,0.3,0.2,0.4
			c0.1,0.1,0.2,0.2,0.1,0.3c-0.1,0.1-0.1,0.3,0.1,0.6c0.1,0.2,0.2,0.5,0.2,0.8v0.1c0,0.2-0.1,0.4-0.1,0.4S288.2,785.9,288,785.9z"/>
		<path d="M286.7,780.4C286.7,780.4,286.7,780.4,286.7,780.4c0.1-0.1,0.2-0.1,0.1-0.1c0,0-0.1,0-0.3,0c-0.2,0-0.3,0.1-0.3,0.2
			C286.4,780.5,286.5,780.5,286.7,780.4z"/>
		<path d="M282.1,779.5c0.2,0,0.3-0.1,0.3-0.2c0-0.1-0.1-0.1-0.3-0.1s-0.3,0-0.3,0.1C281.8,779.5,281.9,779.5,282.1,779.5z"/>
		<path d="M311.6,790.2c-0.1,0-0.3,0.2-0.5,0.5c-0.3,0.4-0.4,0.6-0.4,0.7c0,0.1-0.1,0.2-0.4,0.2c-0.2,0-0.3,0.1-0.3,0.1
			c0,0,0,0.1,0,0.3v0.2c0,0.2-0.1,0.3-0.4,0.3c0,0-0.1,0-0.2,0c-0.1,0-0.1,0-0.2,0c-0.2,0-0.4,0.1-0.7,0.4c-0.2,0.2-0.4,0.3-0.6,0.3
			c-0.1,0-0.2-0.1-0.2-0.2c-0.1-0.1-0.2-0.1-0.4,0c-0.2,0.1-0.6,0.2-1.2,0.2c-0.5,0-0.7,0-0.7-0.1c0-0.1-0.1-0.1-0.2-0.1
			c-0.1,0-0.1-0.1-0.2-0.2c-0.1-0.2-0.1-0.3-0.1-0.5c0,0,0-0.6,0.1-1.8c0-1.2,0.1-1.8,0.1-1.8c0-0.1,0.5-0.1,1.4-0.1
			c0.8,0,1.3,0.1,1.5,0.2c0.3,0.1,0.4,0.4,0.4,0.8c0,0.2,0,0.3,0.1,0.3c0,0,0.1,0,0.2,0c0.2-0.1,0.4-0.1,0.6-0.1h0.1
			c0.2,0,0.3-0.2,0.3-0.6c0-0.1,0-0.2,0-0.3c0-0.2,0-0.3,0-0.4v-0.3c0-0.4,0-0.6,0.1-0.6c0.1-0.1,0.1-0.3,0-0.4
			c-0.1-0.1-0.1-0.3,0.1-0.4c0.2-0.1,0.2-0.2,0.2-0.4c0-0.3-0.4-0.4-1.1-0.4c-0.4,0-0.6,0.2-0.6,0.5c0,0.1,0,0.2,0.1,0.3
			c0.1,0.2,0,0.3-0.1,0.5c-0.1,0.1-0.4,0.2-0.9,0.3c-0.6,0.1-1.1,0.2-1.6,0.2h-0.6V787c0-0.4,0.1-0.6,0.2-0.6c0.1,0,0.2-0.1,0.2-0.4
			c0-0.3-0.1-0.6-0.2-0.9c-0.1-0.2-0.2-0.4-0.2-0.4c0-0.1,0.1-0.1,0.2-0.3c0.2-0.2,0.3-0.3,0.2-0.5c0,0,0-0.1,0-0.2
			c0-0.2,0.1-0.3,0.4-0.4c0.3-0.1,0.8-0.1,1.5-0.2c0.6,0,1-0.1,1.1-0.1c0.4,0,0.6,0.1,0.7,0.2c0.2,0.2,0.3,0.3,0.5,0.4
			c0.2,0.1,0.3,0.2,0.3,0.3c0,0.1,0.1,0.2,0.4,0.4c0.2,0.1,0.4,0.3,0.4,0.3c0,0.2,0.1,0.3,0.3,0.5c0.2,0.2,0.4,0.3,0.6,0.3h0.1
			c0.3,0,0.4-0.2,0.4-0.7c0-0.2-0.1-0.4-0.2-0.5c-0.1-0.2-0.2-0.4-0.2-0.6c0-0.3-0.1-0.5-0.2-0.5c-0.1-0.1-0.1-0.2,0-0.4
			c0.1-0.1,0.1-0.2,0.1-0.3c0-0.1-0.1-0.1-0.2-0.2c-0.1-0.1-0.2-0.2-0.2-0.3c0-0.1-0.1-0.3-0.3-0.5c-0.1-0.1-0.2-0.2-0.3-0.2
			c-0.1,0-0.2,0-0.3,0.1c-0.2,0.1-1.9,0.3-5,0.4h-0.7c-1.5,0-2.3-0.1-2.4-0.3c0-0.1-0.1-0.1-0.3-0.1c-0.1,0-0.2,0-0.2,0.1
			c0,0.1-0.1,0.2-0.1,0.3c0,0.2,0,0.3,0,0.3c0,0.2-0.1,0.3-0.3,0.4c-0.2,0-0.3,0.2-0.2,0.5c0.1,0.2,0.1,0.4,0.2,0.5
			c0.1,0.1,0.2,0.1,0.3,0.1s0.3,0,0.4,0c0.1,0,0.1,0,0.2,0c0.1,0,0.1,0,0.2,0c0.4,0,0.6,0.1,0.7,0.4c0.1,0.2,0.1,0.8,0.1,1.5
			c0,0.9-0.1,1.4-0.2,1.5c-0.1,0-0.1,0.2,0,0.4c0.1,0.3,0.1,0.5,0,0.7c-0.1,0.2-0.2,0.3-0.3,0.3c-0.1,0-0.1,0.1,0.1,0.2
			c0.1,0.1,0.1,0.3,0.1,0.6c0,0.3-0.1,1.3-0.2,3l-0.1,1H302c-0.4,0-0.6,0.1-0.7,0.3c-0.1,0.2-0.2,0.3-0.3,0.3
			c-0.2,0-0.2,0.1-0.2,0.4c0,0.3,0.1,0.5,0.3,0.6c0.2,0.1,0.3,0.3,0.3,0.4c0,0.1,0.1,0.2,0.3,0.2c0.2,0,0.5,0,0.8-0.1
			c0.3-0.1,0.5-0.2,0.6-0.2c0.2-0.1,0.6-0.2,1.2-0.2c0.1,0,0.6,0,1.5,0.1c0.8,0,1.2,0.1,1.2,0.2c0.1,0.1,0.2,0.1,0.4,0
			c0.3-0.1,0.8-0.2,1.6-0.2c0.9,0,1.4,0,1.6-0.1c0.2,0,0.3-0.1,0.5-0.2c0.2-0.2,0.3-0.4,0.2-0.6c-0.1-0.2,0-0.4,0.2-0.4
			c0.1-0.1,0.2-0.4,0.2-0.8c0-0.3,0-0.5,0.1-0.6c0-0.1,0.1-0.1,0.2-0.1c0.2,0,0.3-0.2,0.3-0.5c0-0.3-0.1-0.5-0.2-0.7
			C311.9,790.3,311.7,790.2,311.6,790.2z"/>
		<path d="M300.9,792.2c0.1,0,0.1-0.1,0.2-0.1c0.1-0.2,0.1-0.3-0.1-0.3c-0.1,0-0.2,0.1-0.2,0.2C300.7,792.1,300.8,792.2,300.9,792.2
			z"/>
		<path d="M321.8,789.7c0-0.1,0-0.2-0.1-0.2c-0.1,0-0.1,0-0.1,0.1l0.1,0.2C321.7,789.9,321.8,789.9,321.8,789.7z"/>
		<path d="M327.6,790.5c0-0.6-0.1-0.9-0.2-1.1c-0.1-0.2-0.3-0.4-0.6-0.5c-0.3-0.1-0.5-0.3-0.5-0.4c-0.1-0.1-0.3-0.3-0.9-0.6
			c-0.5-0.3-1-0.5-1.3-0.6c-0.2-0.1-0.5-0.2-0.9-0.5c-0.4-0.3-0.6-0.4-0.6-0.5c0-0.1-0.1-0.2-0.2-0.3c-0.2-0.1-0.2-0.2-0.2-0.3
			c0,0,0-0.1,0-0.1c0.1-0.1,0.1-0.2,0.1-0.3s0-0.3-0.1-0.6c0-0.1,0-0.2,0-0.2c0,0,0.2-0.1,0.3-0.1c0.3,0,0.4-0.1,0.4-0.2
			c0-0.1,0.1-0.2,0.4-0.4c0.3-0.2,0.4-0.3,0.4-0.3c0-0.1,0.1-0.1,0.4-0.2c0.1,0,0.1,0,0.2,0c0.4,0,0.8,0.2,1.2,0.5
			c0.5,0.3,0.7,0.6,0.7,0.9c0,0.2,0.1,0.4,0.3,0.5c0.2,0.1,0.3,0.3,0.3,0.4c0,0.1,0.1,0.3,0.2,0.5c0.2,0.2,0.3,0.3,0.4,0.3
			c0,0,0,0,0.1,0c0.1-0.1,0.1-0.7,0.2-2v-0.8c0-0.6-0.1-0.9-0.2-0.9c-0.1,0-0.1,0-0.1,0c-0.3,0.1-0.6,0.2-0.8,0.2
			c-0.3,0-0.6-0.1-1-0.3c-0.4-0.2-0.6-0.3-0.7-0.3c0,0-0.1,0-0.2,0.1c-0.3,0.1-0.6,0.1-0.8,0.1c-0.3,0-0.4,0-0.5,0.1
			c0,0.1-0.1,0.2-0.3,0.2c-0.2,0-0.4-0.1-0.5-0.2c-0.1-0.1-0.3-0.2-0.5-0.2h0c-0.1,0-0.1,0-0.1,0c-0.1,0-0.1,0-0.1,0
			c0,0,0.1,0,0.1,0c0.1,0.1,0.2,0.1,0.2,0.2c0,0.2-0.2,0.3-0.5,0.4c-0.3,0.1-0.4,0.2-0.4,0.4c0.1,0.2,0,0.3-0.2,0.4
			c-0.3,0.1-0.6,0.5-1.1,1.1c-0.1,0.2-0.2,0.4-0.2,0.6c0,0,0,0.3,0.1,0.8c0.1,0.7,0.3,1.1,0.4,1.3c0.1,0.2,0.4,0.4,0.7,0.7
			c0.4,0.3,0.6,0.4,0.8,0.4c0.1,0,0.3,0.1,0.6,0.4c0.4,0.3,0.9,0.6,1.7,0.8c0.5,0.1,0.8,0.3,1.1,0.6c0.2,0.2,0.3,0.4,0.5,0.7
			c0.1,0.3,0.2,0.5,0.2,0.7c0,0.1,0,0.1-0.1,0.2c-0.1,0-0.1,0.2-0.1,0.4c0.1,0.2,0,0.4-0.2,0.6c-0.1,0.1-0.2,0.3-0.2,0.4
			c0,0.2-0.5,0.4-1.4,0.5c-0.1,0-0.3,0-0.6,0c-0.9,0-1.7-0.4-2.2-1.2c-0.3-0.4-0.5-0.8-0.5-1c0,0,0-0.1,0-0.2c0-0.1,0-0.2,0-0.2
			c0,0-0.1-0.1-0.1-0.1c-0.1,0-0.1,0-0.1-0.1c0.1-0.3-0.1-0.5-0.4-0.6c-0.1,0-0.2-0.1-0.3-0.1c-0.3,0-0.4,0.2-0.5,0.5
			c-0.1,1.2-0.1,1.9-0.2,1.9c-0.1,0.1-0.1,0.4-0.2,0.8c0,0.1,0,0.3,0,0.4c0,0.2,0.1,0.4,0.3,0.6c0.1,0.1,0.2,0.2,0.3,0.2
			c0,0,0.1,0,0.2-0.2c0.1-0.2,0.2-0.3,0.2-0.4c0-0.3,0.2-0.3,0.5-0.1c0.9,0.5,1.8,0.7,2.9,0.7c0.5,0,1.1-0.1,1.6-0.2
			c0.6-0.1,1.1-0.3,1.4-0.6c0.3-0.3,0.5-0.5,0.5-0.5c0-0.1,0.1-0.2,0.2-0.3c0.2-0.1,0.3-0.4,0.3-0.9c0.1-0.5,0.1-0.7,0.2-0.7
			c0.1,0,0.1,0,0-0.1S327.7,791.2,327.6,790.5z M323.3,788.9C323.2,788.9,323.2,788.9,323.3,788.9c-0.1-0.1-0.1-0.1,0-0.1
			S323.3,788.8,323.3,788.9C323.3,788.9,323.3,788.9,323.3,788.9z"/>
		<path d="M337.4,788.7c0-0.1,0-0.2-0.1-0.2c-0.1,0-0.1,0-0.1,0.1l0.1,0.2C337.3,789,337.4,788.9,337.4,788.7z"/>
		<path d="M343.2,789.5c0-0.6-0.1-0.9-0.2-1.1c-0.1-0.2-0.3-0.4-0.6-0.5c-0.3-0.1-0.5-0.3-0.5-0.4c-0.1-0.1-0.3-0.3-0.9-0.6
			c-0.5-0.3-1-0.5-1.3-0.6c-0.2-0.1-0.5-0.2-0.9-0.5c-0.4-0.3-0.6-0.4-0.6-0.5c0-0.1-0.1-0.2-0.2-0.3c-0.2-0.1-0.2-0.2-0.2-0.3
			c0,0,0-0.1,0-0.1c0.1-0.1,0.1-0.2,0.1-0.3c0-0.1,0-0.3-0.1-0.6c0-0.1,0-0.2,0-0.2c0,0,0.2-0.1,0.3-0.1c0.3,0,0.4-0.1,0.4-0.2
			c0-0.1,0.1-0.2,0.4-0.4c0.3-0.2,0.4-0.3,0.4-0.3c0-0.1,0.1-0.1,0.4-0.2c0.1,0,0.1,0,0.2,0c0.4,0,0.8,0.2,1.2,0.5
			c0.5,0.3,0.7,0.6,0.7,0.9c0,0.2,0.1,0.4,0.3,0.5c0.2,0.1,0.3,0.3,0.3,0.4s0.1,0.3,0.2,0.5s0.3,0.3,0.4,0.3c0,0,0,0,0.1,0
			c0.1-0.1,0.1-0.7,0.2-2v-0.8c0-0.6-0.1-0.9-0.2-0.9c-0.1,0-0.1,0-0.1,0c-0.3,0.1-0.6,0.2-0.8,0.2c-0.3,0-0.6-0.1-1-0.3
			c-0.4-0.2-0.6-0.3-0.7-0.3c0,0-0.1,0-0.2,0.1c-0.3,0.1-0.6,0.1-0.8,0.1c-0.3,0-0.4,0-0.5,0.1c0,0.1-0.1,0.2-0.3,0.2
			c-0.2,0-0.4-0.1-0.5-0.2c-0.1-0.1-0.3-0.2-0.5-0.2h0c-0.1,0-0.1,0-0.1,0c-0.1,0-0.1,0-0.1,0c0,0,0.1,0,0.1,0
			c0.1,0.1,0.2,0.1,0.2,0.2c0,0.2-0.2,0.3-0.5,0.4c-0.3,0.1-0.4,0.2-0.4,0.4c0.1,0.2,0,0.3-0.2,0.4c-0.3,0.1-0.6,0.5-1.1,1.1
			c-0.1,0.2-0.2,0.4-0.2,0.6c0,0,0,0.3,0.1,0.8c0.1,0.7,0.3,1.1,0.4,1.3c0.1,0.2,0.4,0.4,0.7,0.7c0.4,0.3,0.6,0.4,0.8,0.4
			c0.1,0,0.3,0.1,0.6,0.4c0.4,0.3,0.9,0.6,1.7,0.8c0.5,0.1,0.8,0.3,1.1,0.6c0.2,0.2,0.3,0.4,0.5,0.7c0.1,0.3,0.2,0.5,0.2,0.7
			c0,0.1,0,0.1-0.1,0.2c-0.1,0-0.1,0.2-0.1,0.4c0.1,0.2,0,0.4-0.2,0.6c-0.1,0.1-0.2,0.3-0.2,0.4c0,0.2-0.5,0.4-1.4,0.5
			c-0.1,0-0.3,0-0.6,0c-0.9,0-1.7-0.4-2.2-1.2c-0.3-0.4-0.5-0.8-0.5-1c0,0,0-0.1,0-0.2c0-0.1,0-0.2,0-0.2c0,0-0.1-0.1-0.1-0.1
			c-0.1,0-0.1,0-0.1-0.1c0.1-0.3-0.1-0.5-0.4-0.6c-0.1,0-0.2-0.1-0.3-0.1c-0.3,0-0.4,0.2-0.5,0.5c-0.1,1.2-0.1,1.9-0.2,1.9
			c-0.1,0.1-0.1,0.4-0.2,0.8c0,0.1,0,0.3,0,0.4c0,0.2,0.1,0.4,0.3,0.6c0.1,0.1,0.2,0.2,0.3,0.2c0,0,0.1,0,0.2-0.2
			c0.1-0.2,0.2-0.3,0.2-0.4c0-0.3,0.2-0.3,0.5-0.1c0.9,0.5,1.8,0.7,2.9,0.7c0.5,0,1.1-0.1,1.6-0.2c0.6-0.1,1.1-0.3,1.4-0.6
			c0.3-0.3,0.5-0.5,0.5-0.5c0-0.1,0.1-0.2,0.2-0.3c0.2-0.1,0.3-0.4,0.3-0.9c0.1-0.5,0.1-0.7,0.2-0.7c0.1,0,0.1,0,0-0.1
			C343.3,790.6,343.3,790.2,343.2,789.5z M338.9,788C338.8,788,338.8,787.9,338.9,788c-0.1-0.1-0.1-0.1,0-0.1S338.9,787.9,338.9,788
			C338.9,787.9,338.9,788,338.9,788z"/>
	</g>
	<g>
		<g>
			<g>
				<g>
					<path d="M320.7,407c3.6-13.1,5.8-26.2,7.9-39.5c1.7-10.7,2.6-21.1-4.3-30.1c-1.3-1.7-4.3,0-2.9,1.7c7.8,10.1,4.7,22,3.1,33.7
						c-1.6,11.3-4,22.3-7,33.3C316.9,408.2,320.1,409.1,320.7,407L320.7,407z"/>
				</g>
			</g>
			<g>
				<g>
					<path d="M304.7,406.6c5.5-18.9,12.6-36.9,16.6-56.2c1.6-7.7,4.4-16.1,3.1-24c-1.3-7.8-7.8-14.4-13.6-19.4c-1.6-1.4-4,1-2.4,2.4
						c6.9,6.1,13.1,12.9,12.8,22.5c-0.3,8.5-3,17.5-4.7,25.8c-3.5,16.4-10.4,32-15,48C300.8,407.8,304,408.7,304.7,406.6
						L304.7,406.6z"/>
				</g>
			</g>
			<g>
				<g>
					<path d="M291.1,294.9c-7.2-5.2-15.4-9.2-23.1-13.5c-2.5-1.4-8.1-6.6-10.9-3.7c-2.9,3-0.1,10.9,1,13.9
						c4.2,11.8,12.8,21.5,22.1,29.7c1.6,1.4,4-0.9,2.4-2.4c-8.4-7.5-16.4-16.2-20.7-26.9c-1-2.4-1.8-4.9-2.2-7.4
						c-0.3-1.8,0.6-5.2-1-4.7c0.9-0.2,4.4,2.5,5.1,3c3,1.7,5.9,3.3,8.9,5c5.6,3.1,11.5,6.1,16.7,9.9
						C291.2,299.1,292.9,296.2,291.1,294.9L291.1,294.9z"/>
				</g>
			</g>
			<g>
				<g>
					<path d="M275.5,403.3c3.6-10.9,9.6-20.9,14.1-31.4c5.8-13.2,11.7-26.4,15.8-40.2c7.2-24.1,11.8-54.1-0.9-77.1
						c-0.6-1-1.8-1-2.7-0.3c-9.1,7.4-9.9,21.5-11.7,32.1c-3.1,18.4-11,35-19.6,51.4c-8,15.2-17.4,29.7-25,45.2
						c-5.5,11.2-10.1,22.8-15.4,34.1c1,0.1,2.1,0.3,3.1,0.4c-3.1-21.4,4.3-42.7,5.3-64c0.7-14.9,0.7-33.7-9.7-45.6
						c-0.6-0.7-1.8-0.6-2.4,0c-6,6.1-5.7,17.6-7.6,25.5c-2.5,10.3-7.8,19.5-10.7,29.6c-6,21.1-8.9,43.4-10.4,65.3
						c-3.3,48.6,7.6,97,1.9,145.4c-0.1,0.5,0.4,1.3,0.8,1.5c19.1,8.3,41,10.1,61.5,8.1c14.9-1.4,29.6-4,42.9-11.2
						c0.7-0.4,0.9-1.2,0.8-1.9c-2.7-11.3-0.7-24.6,0-36c1-15,2.5-29.9,4.4-44.8c3.2-25.2,9.9-49.6,16.8-74c3.2-11.3,7-22.6,7.2-34.5
						c0.2-7.5,0.9-19.7-3.5-26.2c-1.2-1.8-4.1-0.1-2.9,1.7c2.8,4.2,2.3,10.2,2.7,15.1c0.5,6.6,0.5,13.1-0.6,19.7
						c-2.1,11.9-6.2,23.7-9.5,35.3c-3.7,13.3-7.2,26.6-9.9,40.2c-5.7,29.4-8.9,60.1-9.1,90.1c0,2.8,0,5.7,0.2,8.5
						c0.1,1.1,0.2,2.2,0.3,3.3c0,0.3,0.2,0.9,0.2,1.2c-0.2,1.7,0.9-0.9,0,0c-3.2,3.3-10.9,4.9-15.2,6c-23.2,6.3-48.5,6.8-71.8,0.7
						c-2.8-0.7-8-1.4-10.4-3.2c-2.3-1.7-1.3,0.5-1.4-2.9c-0.1-2.6,0.5-5.3,0.7-7.8c0.9-12.4,1.1-24.9,0.4-37.3
						c-1.2-24.6-4.2-48.8-4.1-73.5c0.1-25,2.5-50.1,7.7-74.6c2.2-10.4,5.4-19.8,9.5-29.5c2.7-6.5,4.6-13.2,5.8-20.1
						c0.9-5.2,1.5-13.1,5.4-17.1c-0.8,0-1.6,0-2.4,0c11,12.6,9.7,34.3,8.3,49.9c-1.7,19.4-7.5,38.6-4.7,58.2
						c0.2,1.4,2.5,1.7,3.1,0.4c5.1-10.9,9.6-22,14.8-32.8c7.3-15.1,16.6-29.3,24.4-44.1c7.5-14.2,15-28.7,19-44.4
						c3.2-12.4,2.1-32,12.9-40.8c-0.9-0.1-1.8-0.2-2.7-0.3c13.3,24,6.9,56.5-1.6,81.2c-4.7,13.7-10.6,27.1-16.7,40.2
						c-3.8,8.2-8.2,16-11.1,24.6C271.6,404.5,274.8,405.4,275.5,403.3L275.5,403.3z"/>
				</g>
			</g>
			<g>
				<path d="M217.3,348.9c0,0,7,3.7,10-3c3-6.7,8.5-22,6-26.9s-5.6-8.3-5.6-8.3l-3.4,7L217.3,348.9z"/>
			</g>
			<g>
				<path d="M310.7,288.6c0,0-6.2,1.3-7.8-3.2c-1.6-4.5-5.9-22.6-2.9-26.3c3-3.6,3-3.6,3-3.6S311.9,271.9,310.7,288.6z"/>
			</g>
			<g>
				<path d="M286.4,294.3c0,0-1.5,4.2-5.2,3.1c-8.1-2.5-24.2-15.4-23.6-18.6C257.9,276.8,286.4,294.3,286.4,294.3z"/>
			</g>
			<g>
				<g>
					<path d="M199.8,572.8c-6,10-18.4,22.3-29.6,26c-0.7,0.2-1.3,0.9-1.2,1.6c0.2,12.7,16.7,19.4,25.8,10.3c-1-0.4-1.9-0.8-2.9-1.2
						c-2,18,21.8,22.8,31.8,10.4c-0.9-0.1-1.8-0.2-2.7-0.3c3.7,7.3,10.2,12.8,18.9,12c6.4-0.6,12.1-5.7,16-10.4
						c-0.9-0.1-1.8-0.2-2.7-0.3c3.2,5.3,9.3,8.5,15.3,9.2c10.8,1.1,16.4-5.4,19.6-15.1c-0.9,0.2-1.9,0.5-2.8,0.7
						c9.6,10.5,22.5,6.2,26.5-6.9c-0.8,0.3-1.7,0.7-2.5,1c9.7,6,21,0.6,23.7-10.1c0.2-0.8-0.1-1.5-0.8-1.9
						c-10.5-7.1-20.2-17.4-26.9-28.1c-1.2-1.8-4.1-0.1-2.9,1.7c5.4,8.5,12.4,16.1,19.9,22.8c3.3,2.9,8.6,4.6,5.7,9.3
						c-3.7,5.9-11.3,6.9-16.9,3.4c-1-0.6-2.2,0-2.5,1c-3.3,10.5-13.1,13.9-20.9,5.4c-0.9-1-2.4-0.4-2.8,0.7
						c-3.1,9.3-9.3,15.1-19.6,11.9c-3.6-1.1-7.2-3.5-9.1-6.8c-0.5-0.9-1.9-1.2-2.7-0.3c-2.7,3.2-6.1,6.5-10,8.2
						c-8.4,3.7-15.9-1.6-19.7-9.1c-0.5-0.9-2-1.2-2.7-0.3c-8.1,10-27.8,7.3-26.1-8.1c0.2-1.5-1.9-2.2-2.9-1.2
						c-5.2,5.2-15.2,3.7-18.8-2.7c-1.7-3-1.3-3.4,0.8-4.9c2.2-1.5,4.6-2.7,6.8-4.3c8.1-5.9,16.4-13.3,21.6-22
						C203.9,572.6,200.9,570.9,199.8,572.8L199.8,572.8z"/>
				</g>
			</g>
			<g>
				<g>
					<path d="M179.6,611.5c-4.6,4.4-9.6,9.7-15.9,11.6c-0.7,0.2-1.3,0.9-1.2,1.6c0.4,13.1,18.9,17.4,27.7,9.8
						c-1-0.4-1.9-0.8-2.9-1.2c-2.2,18.3,24.5,20.2,34.3,10c-0.9-0.1-1.8-0.2-2.7-0.3c9,15.3,26.4,13.2,37.6,1.7
						c-0.9-0.1-1.8-0.2-2.7-0.3c3.5,5,9.8,7.8,15.8,8.6c11,1.4,17.8-3.7,21.7-13.8c-0.9,0.2-1.9,0.5-2.8,0.7
						c9.9,9.2,23.7,6.9,28.4-6.2c-0.8,0.3-1.7,0.7-2.5,1c9.6,5.1,22.2,1.8,25.4-9.2c0.2-0.7-0.1-1.5-0.8-1.9
						c-5.5-3.4-9.8-8.5-14-13.4c-1.4-1.7-3.8,0.7-2.4,2.4c2.7,3.1,5.4,6.2,8.4,9c1.9,1.7,5,3.2,4.5,5.8c-1.5,7.7-14.6,6.9-19.4,4.3
						c-1-0.5-2.1,0-2.5,1c-3.9,10.8-14.9,12-22.8,4.7c-1-0.9-2.4-0.4-2.8,0.7c-3.7,9.8-11.5,13.6-21.7,10.6c-3.5-1-7.4-3.1-9.6-6.2
						c-0.6-0.9-1.8-1.2-2.7-0.3c-9.6,9.8-24.5,12.2-32.3-1c-0.5-0.9-1.9-1.1-2.7-0.3c-7.6,8-30.4,8-28.5-7.6c0.2-1.6-1.9-2-2.9-1.2
						c-5,4.3-19.2,4-21.3-3.9c-0.9-3.6,2.3-3.5,5.1-5.5c3.7-2.6,7-5.7,10.3-8.9C183.6,612.4,181.2,610,179.6,611.5L179.6,611.5z"/>
				</g>
			</g>
			<g>
				<g>
					<path d="M279.7,390.1c7.2,3.6,22.5,5.2,29.6,0.7c1.8-1.2,0.1-4.1-1.7-2.9c-6,3.8-20.1,2.4-26.2-0.7
						C279.5,386.2,277.8,389.1,279.7,390.1L279.7,390.1z"/>
				</g>
			</g>
		</g>
		<g>
			<path d="M204.2,549.1c-1.1-0.2-2.5-0.5-4-1c-3.9-1-9-4-12.5-7.5c0.4-0.7,0.8-1.4,1.2-2.1c0.5-1.1,0.8-2.2,0.5-3.3
				c-0.2-0.7-0.6-1.3-1-1.9c-1.4-1.9-2.7-3.8-4.1-5.8c-0.3,2.3-0.6,4.6-0.2,6.9c0.4,2.1,1.6,4.1,3.2,5.8c-3-3.1-6.5-5.5-10.4-7.3
				c0.7-1.1-1.2-3.9-1.5-4.9c-0.5-1.7-0.9-3.4-1.2-5.1c-0.2-1.4-0.2-2.8-0.3-4.2c-0.1-1.4-0.5-2.8-0.3-4.3c0.4-2.6,0.4-5.7,1.6-8.1
				c1.1-2.2,1.5-5.3,3-7.2c1.3-1.7,2.1-3.6,3.1-5.6c0.8-1.7,1.6-3.3,2.1-5.1c1.5-5.4-1.2-9.1-2.5-14.1c-1.5-6-3.4-12-6.6-17.3
				c-0.9,4-4.3,6.9-5.8,10.6c-1.5,1.1-1.4,7.1-1.6,8.8c-0.4,3.5,0.3,7.4,0.6,11c0.1,1,0.1,2,0.5,2.9c0.3,0.9,0.8,1.6,1.3,2.4
				c0.9,1.4,2.3,2.6,3,4c0.6,1.2,0.9,2.2,1.7,3.3c0.2,0.2,0.3,0.5,0.4,0.8c0,0.2-0.1,0.5-0.1,0.7c-0.8,2.4-1.9,5.2-2.2,7.8
				c-0.4,2.8-0.6,5.6-0.5,8.4c0,0.5,0,1,0,1.5c-0.3-0.6-0.6-1.2-0.9-1.8c-0.4-1.4-0.7-2.9-1.1-4.2c-0.9-3.3-2.4-6.4-4-9.6
				c-2-4-4.6-6.9-8.5-8.8c-3.2-1.6-8.4-5-11.6-6.5c0.8,1.7,2.5,6.2,2.6,8c0.2,2.5,0.8,4.7,2,6.9c2.2,3.9,5,7,8.6,9.4
				c4.5,3,7.6,2.9,10.4,5.4c1.5,1.4,2.6,3.5,3.2,5.4c0.5,1.7,0.9,3.5,1.6,5.2c0.4,1.1,1,2.2,1.6,3.3c0,0.1,0.1,0.2,0.1,0.2
				c-5.7-2.6-12-4.2-17.8-5.8c0-0.1-0.1-0.2-0.2-0.2c-2.9-3.1-5.2-6.6-7.1-10.4c-1.6-3-2-6.5-3.8-9.3c-2.4-3.9-5.2-7.5-7.6-11.4
				c-1.9-3-2.7-6.8-3.5-10.3c-0.7-3.2-1.4-6.7-0.6-9.9c0.7-0.8,1.3-1.6,2-2.6c6.7-10,16.2-20.2,15.7-33.2c-0.1-3.4-1-6.7-1.7-10.1
				c-1.6-6.8-3-13.7-3.3-20.7c-1.9,4-4.3,7.9-7.1,11.4c-1.9,2.3-3.9,4.5-5.6,7.1c-3.3,5-6.9,14.2-5.9,20.4c0.5,2.8,1.9,5.4,2.4,8.2
				c0.7,3.6,1.1,7.3,1.5,11c0.4,4.4,0,4.8,0,6.7c-0.1,0.1-0.2,0.2-0.2,0.4c-1.4,4.3-0.6,9.1,0.7,13.7c-1.3-2.2-2.4-4.4-3.6-6.6
				c-1.7-3.3-3.4-6.7-4.9-10.1c1.3-2.5-0.8-10.3-1.2-12.3c-0.8-4.3-1.9-8.6-1.9-13c0.1-6.7,2-13.6,5-19.6c1.7-3.4,3.4-6.9,4.2-10.7
				c0.1-0.2,0.1-0.5,0.2-0.7c0.8-4,0.9-8.2,0.5-12.3c0-0.4-0.1-0.8-0.2-1.3c3.7-0.7,7-4.1,9.3-6.8c1.3-1.5,2.5-3.1,3.5-4.8
				c0.3-0.5,1.2-3.8,1.5-3.9c-3.7,2.1-8.4,2.5-11.1,6c-1.1,1.4-2.2,2.9-2.9,4.6c-0.4,0.9-0.6,1.9-0.7,2.9c-0.2-0.9-0.4-1.8-0.6-2.6
				c0-0.1,0-0.2,0-0.3c-1.2-7-1.3-15.6,3.2-21.5c2.2-1.1,2.4-4.2,5-5.4c0.4-0.2,0.9-0.3,1.4-0.5c0.3-0.1,0.7-0.2,1-0.2
				c2.6,0.1,5.5-2.3,7.8-3.8c2.7-1.8,5.1-3.9,7-6.5c3.1-4.3,5.6-8.2,7.2-13.3c2.6-7.9,0.5-16.1,0.7-24.2c-3.4,5.1-8.6,8.8-13.4,12.7
				c-4.1,3.3-8.1,7-10.4,11.7c-2.4,4.9-4.4,10-5.2,15.5c-0.3,2.2,0.5,4.5,0.1,6.5c-0.4,1.8-1.6,3.4-2.3,5.1c0,0,0,0,0,0
				c-1.8,2.1-2.8,4.6-3.8,7.1c-0.5,1.2-1.1,2.3-1.4,3.6c-0.3,1.4-0.4,2.8-0.4,4.2c0,1.5-0.2,3,0.1,4.5c0.4,2,1.1,3.9,1.5,5.9
				c0.6,2.9,1,5.9,1,8.8c0.1,4.4-0.6,8.7-2.2,12.8c-0.8-5.6-1.5-11.4-4-16.4c-2.3-4.5-9.2-11.6-9.2-16.6c0-3.9,2.3-6.2,3.1-11.8
				c0.6-4.5,0.2-8.8-1.3-13.2c-0.9-2.5-2.1-4.5-3.9-6.4c-1.3-1.4-3.6-5.8-4.4-7.6c-1.1,3.5-2,10-3.1,13.6c-1.2,4.4-0.8,8.4,0.9,12.8
				c1.3,3.4,2.7,6.8,4.6,9.8c0.8,1.2,1.7,2.5,2.5,3.8c2.4,6.5,6.7,12.2,9.6,18.6c1.5,3.2,2.3,6.5,2.8,9.9c-2-3.8-4.8-7.2-8.7-9
				c0,0,0,0,0,0c-1.4-1.3-1.7-1.1-4.3-4c-2.3-2.6-3.1-4.5-4.2-7.8c-1.6-4.7-3.4-9.7-7.3-12.8c-2.5-2-5.7-3-8.7-3.8
				c-2.2-0.6-5.2-1.6-7.4-1.1c-0.7,0.2-5.5,1.9-6,1.3c4.4,5.5,7.3,11.9,11.9,17.2c4.5,5.3,10.4,9.1,16.9,11.2c2,0.7,4,1.2,6.1,1.5
				c1.1,0.2,2.1,0.2,3.1,0.3c5.1,2.7,7.9,8.6,9.5,13.9c-1.2,2.5-2.6,5-3.5,7.7c-2.5,6.9-2.2,22.3-2,22.6c1,1.4,0.7,5.9,0.9,7.5
				c0,0.2,0,0.5,0.1,0.8c-0.8-2.5-1.7-4.9-2.9-7.3c-0.4-1.5-0.7-3-1.1-4.5c-1.1-4.2-2.9-8.2-4.8-12.2c-2.5-5.1-5.7-8.8-10.5-11.3
				c-4-2.1-10.5-6.5-14.5-8.5c1,2.2,3,7.9,3.1,10.2c0.1,3.1,0.9,5.9,2.4,8.7c2.6,5,6.2,9,10.6,12.1c5.4,3.8,9.2,3.8,12.6,6.6
				c1.8,3.5,2.9,7.3,4.1,11.1c1.2,3.5,2.6,6.9,4.2,10.3c-5.1-5.1-13.6-8.6-20.1-6c3.2,3.9,5.9,5.9,10.5,7.6
				c3.4,1.3,7.8,0.8,11.3,1.8c1.9,3.8,3.8,7.5,6,11.1c2.4,3.9,5.4,7.4,8.1,11.1c0.6,0.9,2.4,4.5,3.8,6.4c0.4,0.9,0.8,1.9,1.2,2.7
				c2.3,5.2,4.7,10,8.1,14.4c-2.2-0.7-4.3-1.5-6.4-2.5c-3.4-3.5-3.4-7.7-7.6-13.5c-5.5-7.7-13.3-11.7-21.8-15.2c-5-2-10-4.1-15-6.2
				c-4.3-1.8-9.8-3.4-13.6-6c7.4,5.1,8.1,15.5,12.8,23.2c2.8,4.6,6.9,8.1,11,11.5c3.1,2.6,6.3,5.3,10.1,6.6
				c3.6,1.2,7.5,1.2,11.2,1.1c3.2-0.1,7.2-0.8,10.3-0.1c2.8,0.7,5.5,2.5,8.2,3.4c6.1,2.1,12.4,3.4,18.4,5.7
				c4.1,1.6,7.7,3.8,11.2,6.4c-4.2-3.1-9.7-1.7-14.2-0.4c-2.1,0.6-4.4,1.8-6.6,1.7c-3.2-0.1-6.6-1.6-10.1-1.7
				c-2.3-0.1-4.5-0.1-6.8-0.2c-1.6,0-3.3-0.1-4.9,0.2c-2.4,0.5-4.7,1.8-6.5,3.6c-0.8,0.8-1.5,1.7-2,2.8c-1.4,3.2-3.8,5.4-6.1,7.9
				c-1.8,2-4.2,3.4-6,5.4c-1.6,1.9-2.4,4.2-4.7,5.4c4.6-0.8,8.9-3,13.4-3.7c4.8-0.8,9.7-0.4,14.5-1c6.3-0.8,12.3-3.6,17.1-7.8
				c3.4-2.9,6.4-10,10.7-11.2c6.4-1.8,14.1,1.8,19.5,4.9c0.1,0.1,0.2,0.1,0.3,0.1c1.6,1.1,3.3,2.2,5.1,3.1c1.5,0.8,5,1.8,8.7,2.6
				L204.2,549.1z"/>
			<path d="M112.8,565l2.1-1.1c1.4-0.8,2.3-2,3.2-3.4c0.4-0.7,0.9-1.3,1.4-2c0.9-1.1,2-2,3.1-2.9c1-0.8,2-1.6,2.8-2.6
				c0.5-0.6,1-1.1,1.5-1.6c1.8-1.9,3.5-3.7,4.5-6.2c0.4-1,1.1-1.9,2.1-2.9c1.9-1.9,4.2-3.2,6.7-3.7c1.6-0.3,3.3-0.3,5-0.2l6.8,0.2
				c1.8,0,3.6,0.5,5.4,0.9c1.6,0.4,3.2,0.8,4.7,0.8c1.4,0.1,3-0.5,4.5-1c0.7-0.2,1.3-0.5,1.9-0.6c3.2-0.9,7.2-2,10.8-1.2
				c-2.7-1.8-5.3-3.1-7.9-4.1c-3.4-1.3-6.9-2.3-10.4-3.2c-2.7-0.7-5.4-1.5-8.1-2.4c-1.2-0.4-2.4-1-3.5-1.5c-1.5-0.7-3.1-1.5-4.6-1.8
				c-2.1-0.5-4.7-0.3-7.1-0.1c-1.1,0.1-2.1,0.2-3.1,0.2c-3.6,0.1-7.7,0.2-11.4-1.1c-3.9-1.3-7.3-4.2-10.2-6.6
				c-4.1-3.4-8.2-6.9-11.1-11.6c-1.7-2.8-2.9-6-4.1-9.1c-2.1-5.5-4-10.8-8.6-13.9c0,0,0,0,0,0l0,0l0.4-0.6c2.6,1.8,6,3.1,9.3,4.3
				c1.5,0.6,2.9,1.1,4.2,1.7c4.9,2.1,10,4.2,15,6.2c8,3.2,16.2,7.3,21.9,15.3c2.1,2.9,3.1,5.4,4.1,7.5c1,2.2,1.8,4.2,3.4,5.9
				c1.5,0.7,3.2,1.4,5.1,2.1c-3-4-5.1-8.3-7.4-13.5l-1.2-2.7c-0.8-1.1-1.8-2.8-2.6-4.3c-0.5-0.9-1-1.8-1.2-2.1
				c-0.8-1.2-1.7-2.3-2.6-3.4c-1.9-2.5-3.9-5-5.5-7.7c-2.3-3.8-4.3-7.7-5.9-11c-1.5-0.4-3.2-0.6-4.9-0.7c-2.1-0.2-4.3-0.4-6.2-1.1
				c-4.6-1.7-7.4-3.8-10.7-7.7l-0.3-0.4l0.5-0.2c6.1-2.4,13.9,0.4,19.1,4.8c-1.4-3.2-2.5-5.9-3.4-8.6l-0.5-1.6
				c-1-3.1-2.1-6.4-3.6-9.4c-1.6-1.3-3.3-2-5.2-2.8c-2.1-0.8-4.5-1.8-7.2-3.7c-4.6-3.2-8.1-7.2-10.8-12.2c-1.5-2.9-2.3-5.7-2.5-8.9
				c-0.1-2.3-2.1-7.9-3.1-10.1l-0.4-1l0.9,0.5c2.1,1,5,2.8,7.7,4.5c2.4,1.5,4.9,3,6.8,4c4.7,2.4,8,6,10.7,11.5
				c1.8,3.6,3.7,7.8,4.9,12.2c0.2,0.7,0.3,1.4,0.5,2.1c0.2,0.8,0.4,1.6,0.6,2.4c0.8,1.5,1.4,3.1,2,4.6c0,0,0-0.1,0-0.1
				c0-1.9-0.1-4.4-0.8-5.3c-0.4-0.5-0.5-16.2,1.9-22.9c0.7-2,1.7-4,2.7-5.9c0.3-0.6,0.6-1.1,0.8-1.7c-2.1-6.7-5.2-11.3-9.2-13.5
				c-0.9,0-1.9-0.1-3-0.3c-2.1-0.3-4.2-0.8-6.2-1.5c-6.7-2.2-12.6-6.2-17.1-11.3c-2.4-2.9-4.5-6.1-6.4-9.2c-1.7-2.7-3.4-5.5-5.5-8.1
				l0,0l0,0l0.6-0.5c0.4,0.2,3.5-0.8,4.6-1.1c0.5-0.2,0.9-0.3,1-0.3c2-0.5,4.6,0.3,6.7,0.8l0.8,0.2c3,0.8,6.2,1.8,8.8,3.8
				c4.1,3.3,6,8.7,7.5,13c1.2,3.3,1.9,5.2,4.2,7.7c1.6,1.8,2.3,2.4,3,2.9c0.4,0.3,0.7,0.6,1.2,1c3,1.4,5.7,3.8,7.8,7.2
				c-0.6-2.9-1.4-5.4-2.4-7.6c-1.2-2.7-2.7-5.2-4.2-7.8c-2-3.4-4-7-5.4-10.8c-0.4-0.7-1-1.5-1.5-2.2c-0.3-0.5-0.7-1-1-1.5
				c-2-3.2-3.5-6.7-4.6-9.8c-1.8-4.7-2.1-8.7-0.9-13c0.5-1.7,1-4.1,1.4-6.4c0.5-2.6,1.1-5.3,1.6-7.2l0.3-1l0.4,1
				c0.8,1.8,3,6.2,4.3,7.5c1.8,1.9,3.1,3.9,4,6.5c1.5,4.4,2,8.8,1.3,13.4c-0.4,2.8-1.2,4.8-1.8,6.5c-0.7,1.8-1.3,3.3-1.3,5.2
				c0,3.1,3,7.3,5.6,11.1c1.4,1.9,2.7,3.8,3.5,5.3c2.3,4.5,3,9.6,3.7,14.6c0,0.2,0.1,0.3,0.1,0.5c1.2-3.5,1.7-7.3,1.7-11.3
				c0-3-0.4-6-1-8.7c-0.2-0.9-0.4-1.7-0.7-2.6c-0.3-1.1-0.6-2.2-0.8-3.4c-0.2-1.1-0.2-2.2-0.1-3.2c0-0.5,0-0.9,0-1.4
				c0-1.4,0.1-2.9,0.4-4.3c0.2-0.9,0.5-1.6,0.9-2.4c0.2-0.4,0.4-0.8,0.5-1.2c0.9-2.5,2-5.1,3.8-7.2c0.3-0.7,0.6-1.3,1-2
				c0.5-1,1.1-2,1.3-3c0.2-1,0.1-2-0.1-3.1c-0.1-1.1-0.3-2.2-0.1-3.3c0.7-4.8,2.3-9.6,5.2-15.6c2.4-4.9,6.5-8.6,10.5-11.9
				c0.7-0.6,1.5-1.2,2.2-1.7c4.1-3.2,8.3-6.5,11.1-10.8l0.7-1.1l0,1.3c-0.1,2.7,0.1,5.5,0.3,8.2c0.3,5.3,0.7,10.8-1,16.2
				c-1.6,5.1-4.1,9-7.3,13.4c-1.9,2.6-4.3,4.8-7.1,6.6c-0.4,0.2-0.8,0.5-1.2,0.8c-2.1,1.4-4.4,3-6.6,3c-0.1,0-0.1,0-0.2,0
				c-0.3,0-0.6,0.1-0.9,0.2c-0.4,0.1-0.9,0.3-1.3,0.5c-1.2,0.6-1.9,1.6-2.5,2.7c-0.6,1-1.2,2-2.3,2.6c-4.5,6-4.2,14.8-3.1,21.2
				c0,0.1,0,0.2,0,0.3c0.1,0.2,0.1,0.5,0.2,0.7c0.1-0.4,0.2-0.8,0.4-1.2c0.7-1.8,1.9-3.2,3-4.7c1.8-2.3,4.5-3.4,7.2-4.4
				c1.4-0.5,2.8-1,4-1.7l0.4,0.7c-0.1,0.1-0.5,1.3-0.7,2.1c-0.3,0.9-0.5,1.5-0.6,1.7c-0.9,1.6-2.1,3.2-3.5,4.9
				c-3.3,3.9-6.4,6.2-9.2,6.8c0,0.3,0.1,0.6,0.1,0.9c0.5,4.2,0.3,8.5-0.5,12.4c0,0.2-0.1,0.5-0.2,0.7c-0.9,3.9-2.6,7.5-4.3,10.8
				c-3.2,6.3-4.9,13.2-5,19.4c0,3.6,0.7,7.2,1.4,10.6c0.2,0.8,0.3,1.5,0.5,2.3c0.1,0.3,0.1,0.7,0.3,1.2c0.7,3.1,2,8.9,1,11.2
				c1.5,3.5,3.2,6.8,4.8,10c0.7,1.4,1.4,2.8,2.2,4.2c-0.7-3.3-1.1-7.4,0-11.1c0-0.1,0.1-0.3,0.2-0.4c0-0.6,0-1,0.1-1.5
				c0.1-1.1,0.2-2.1-0.1-5.1c-0.4-4-0.8-7.6-1.5-11c-0.2-1.4-0.7-2.7-1.2-4c-0.5-1.4-1-2.8-1.2-4.2c-1-6,2.3-15.1,5.9-20.6
				c1.1-1.7,2.5-3.3,3.8-4.9c0.6-0.7,1.2-1.4,1.8-2.2c2.8-3.5,5.1-7.3,7-11.3l0.6-1.4l0.1,1.5c0.3,7.2,1.8,14.1,3.3,20.6l0.1,0.6
				c0.7,3.1,1.5,6.3,1.6,9.5c0.4,10.8-5.9,19.5-11.9,27.9c-1.3,1.8-2.6,3.7-3.8,5.5c-0.7,1-1.3,1.8-1.9,2.5
				c-0.8,3.1-0.1,6.6,0.6,9.6l0.1,0.3c0.7,3.3,1.6,7,3.4,9.8c1.2,2,2.6,3.9,3.9,5.8c1.2,1.8,2.5,3.7,3.7,5.6c1,1.6,1.6,3.4,2.1,5.1
				c0.5,1.4,1,2.9,1.7,4.2c2.1,4.1,4.4,7.5,7.1,10.3c0.1,0.1,0.1,0.1,0.1,0.2c0.8,0.2,1.7,0.5,2.5,0.7c4.7,1.3,9.6,2.7,14.1,4.7
				c-0.5-0.9-0.9-1.8-1.2-2.6c-0.5-1.1-0.8-2.3-1.1-3.5c-0.2-0.6-0.3-1.2-0.5-1.7c-0.7-2.1-1.8-4.1-3.1-5.3
				c-1.4-1.2-2.8-1.8-4.5-2.5c-1.7-0.6-3.6-1.4-5.8-2.9c-3.7-2.5-6.6-5.6-8.7-9.6c-1.3-2.3-1.9-4.5-2.1-7c-0.1-1.8-1.8-6.2-2.6-7.9
				l-0.5-1l1,0.4c1.7,0.8,4,2.1,6.2,3.4c2,1.2,4,2.3,5.5,3.1c3.8,1.9,6.5,4.6,8.7,9c1.5,2.8,3.1,6.2,4,9.6c0.1,0.5,0.3,1.1,0.4,1.7
				c0.2,0.8,0.4,1.7,0.7,2.5c0,0.1,0.1,0.2,0.1,0.2c-0.1-2.5,0.1-5.1,0.5-8.3c0.3-2.3,1.2-4.9,2-7.2l0.2-0.7
				c0.1-0.2,0.1-0.4,0.1-0.6c0-0.2-0.1-0.4-0.3-0.6c-0.5-0.8-0.9-1.5-1.2-2.3c-0.2-0.4-0.3-0.7-0.5-1.1c-0.4-0.9-1.1-1.6-1.7-2.4
				c-0.4-0.5-0.9-1.1-1.3-1.6c-0.5-0.8-1.1-1.6-1.4-2.5c-0.4-1-0.4-2-0.5-3c-0.1-1-0.2-2.1-0.3-3.2c-0.3-2.6-0.6-5.3-0.3-7.9
				c0-0.4,0.1-1,0.1-1.7c0.1-3.3,0.4-6.4,1.5-7.4c0.7-1.6,1.7-3.1,2.7-4.5c1.3-1.9,2.6-3.8,3.1-6l0.2-0.9l0.5,0.8
				c2.7,4.6,4.8,10,6.6,17.4c0.4,1.4,0.8,2.7,1.3,4c1.2,3.2,2.3,6.3,1.2,10.2c-0.5,1.8-1.3,3.5-2.1,5.2l-0.4,0.8
				c-0.8,1.6-1.6,3.3-2.7,4.8c-0.9,1.1-1.4,2.7-1.9,4.2c-0.3,1-0.7,2-1.1,2.9c-0.9,1.8-1.1,4-1.3,6.2c-0.1,0.6-0.1,1.3-0.2,1.9
				c-0.1,1,0,1.9,0.1,2.9c0.1,0.4,0.1,0.8,0.1,1.2c0.1,0.5,0.1,1.1,0.1,1.6c0,0.8,0.1,1.7,0.2,2.6c0.3,1.7,0.7,3.4,1.2,5.1
				c0.1,0.2,0.3,0.7,0.5,1.1c0.6,1.2,1.4,2.7,1.1,3.7c2.8,1.4,5.2,2.9,7.3,4.6c-0.5-0.9-0.8-1.9-1-2.9c-0.4-2.4-0.1-4.8,0.2-7
				l0.1-0.9l4.6,6.6c0.4,0.6,0.9,1.2,1.1,2c0.4,1.3-0.1,2.7-0.5,3.6c-0.3,0.6-0.6,1.2-1,1.9c3.4,3.3,8.3,6.3,12.1,7.2
				c1.5,0.4,2.8,0.7,4,1l0.3,0.1l0.1,2.9l-0.5-0.1c-3.5-0.7-7.1-1.8-8.8-2.6c-1.6-0.8-3.3-1.8-5.1-3.1c-0.1,0-0.2-0.1-0.3-0.1
				c-7.9-4.5-14.3-6.2-19.2-4.8c-2.6,0.7-4.7,3.6-6.7,6.5c-1.3,1.8-2.5,3.5-3.8,4.6c-4.9,4.2-11,7-17.3,7.9
				c-2.3,0.3-4.6,0.4-6.8,0.4c-2.5,0.1-5.2,0.1-7.7,0.6c-2.3,0.4-4.5,1.1-6.7,1.9c-2.2,0.7-4.4,1.5-6.8,1.9L112.8,565z M143.5,539.2
				c-1.1,0-2.1,0.1-3.2,0.3c-2.3,0.5-4.4,1.6-6.3,3.5c-0.9,0.9-1.5,1.8-1.9,2.6c-1.1,2.6-2.9,4.4-4.7,6.4c-0.5,0.5-1,1.1-1.5,1.6
				c-0.9,1-1.9,1.9-2.9,2.7c-1,0.9-2.1,1.7-3,2.8c-0.5,0.6-0.9,1.3-1.4,1.9c-0.6,0.9-1.2,1.8-2,2.6c1.7-0.4,3.3-1,4.9-1.5
				c2.2-0.7,4.5-1.5,6.8-1.9c2.6-0.4,5.2-0.5,7.8-0.6c2.2-0.1,4.5-0.1,6.7-0.4c6.1-0.8,12.1-3.6,16.9-7.7c1.3-1.1,2.5-2.7,3.7-4.5
				c2.1-2.9,4.3-6,7.1-6.8c5-1.4,11.7,0.3,19.7,4.9c0.1,0,0.1,0.1,0.2,0.1l0.1,0.1c1.8,1.3,3.5,2.3,5.1,3.1c1.5,0.7,4.8,1.7,8.1,2.4
				l-0.1-1.3c-1.2-0.2-2.4-0.6-3.8-0.9c-3.9-1-9.1-4.2-12.6-7.6l-0.2-0.2l0.2-0.3c0.5-0.7,0.9-1.4,1.1-2.1c0.6-1.3,0.7-2.2,0.5-3.1
				c-0.2-0.6-0.6-1.2-1-1.8l-3.5-5c-0.2,1.9-0.4,3.9-0.1,5.8c0.3,1.9,1.4,3.8,3.1,5.6l0,0l-0.5,0.5c0,0,0,0,0,0
				c-2.7-2.8-6-5.2-10.3-7.2l-0.4-0.2l0,0l-0.9-0.4c-4.8-2.2-10-3.6-15.1-5.1c-0.9-0.3-1.8-0.5-2.6-0.8l-0.1,0l-0.1-0.1
				c0-0.1-0.1-0.1-0.1-0.2c-2.7-2.9-5-6.3-7.2-10.4c-0.7-1.4-1.2-2.9-1.7-4.4c-0.6-1.8-1.1-3.4-2.1-4.9c-1.2-1.9-2.5-3.7-3.7-5.5
				c-1.3-1.9-2.7-3.9-3.9-5.8c-1.8-3-2.7-6.7-3.5-10l-0.1-0.3c-0.7-3.1-1.4-6.7-0.6-10.1l0.1-0.1c0.6-0.7,1.3-1.6,1.9-2.6
				c1.2-1.8,2.6-3.7,3.8-5.5c6-8.3,12.2-17,11.8-27.5c-0.1-3.2-0.9-6.3-1.6-9.4l-0.1-0.6c-1.4-6.1-2.8-12.6-3.2-19.3
				c-1.8,3.6-4,7-6.5,10.1c-0.6,0.7-1.2,1.5-1.8,2.2c-1.3,1.5-2.6,3.1-3.7,4.8c-3.5,5.4-6.8,14.3-5.8,20.1c0.2,1.4,0.7,2.7,1.2,4.1
				c0.5,1.3,0.9,2.7,1.2,4.1c0.6,3.4,1.1,7.1,1.5,11c0.3,3,0.2,4.2,0.1,5.2c0,0.5-0.1,0.9-0.1,1.5v0.1l-0.1,0.1
				c-0.1,0.1-0.1,0.2-0.2,0.3c-1.5,4.7-0.3,9.9,0.7,13.4l0.8,2.9l-1.5-2.6c-1.3-2.2-2.5-4.5-3.6-6.7c-1.7-3.2-3.4-6.6-4.9-10.2
				l-0.1-0.2l0.1-0.2c1-2-0.4-8.2-1-10.9c-0.1-0.5-0.2-0.9-0.3-1.2c-0.1-0.8-0.3-1.5-0.5-2.3c-0.7-3.5-1.5-7.1-1.5-10.8
				c0.1-6.3,1.9-13.3,5.1-19.7c1.7-3.3,3.4-6.9,4.2-10.6c0.1-0.2,0.1-0.5,0.1-0.7c0.8-3.8,0.9-8,0.4-12.1c0-0.4-0.1-0.8-0.2-1.2
				l-0.1-0.4l0,0l-0.3-1.6c-0.2-0.8-0.4-1.7-0.6-2.6l0-0.1l0-0.1c0-0.1,0-0.1,0-0.2c-1.6-9.3-0.5-16.9,3.3-21.8l0.1-0.1
				c0.9-0.5,1.5-1.4,2.1-2.4c0.7-1.2,1.4-2.4,2.9-3c0.5-0.2,1-0.4,1.4-0.5c0.3-0.1,0.7-0.2,1.1-0.2c0.1,0,0.1,0,0.2,0
				c2,0,4.2-1.5,6.2-2.9c0.4-0.3,0.8-0.6,1.2-0.8c2.8-1.8,5.1-4,6.9-6.5c3.2-4.3,5.6-8.2,7.2-13.2c1.7-5.2,1.3-10.6,1-15.9
				c-0.1-2.3-0.3-4.7-0.3-7c-2.9,3.9-6.8,7-10.6,10c-0.7,0.6-1.5,1.2-2.2,1.7c-4,3.2-8,6.9-10.3,11.6c-2.9,5.9-4.4,10.6-5.1,15.4
				c-0.2,1,0,2.1,0.1,3.1c0.1,1.1,0.3,2.3,0,3.4c-0.2,1.1-0.8,2.2-1.3,3.2c-0.4,0.7-0.7,1.3-0.9,2l-0.1,0.1c-1.8,2-2.8,4.6-3.7,7
				c-0.2,0.4-0.4,0.9-0.5,1.3c-0.3,0.8-0.7,1.5-0.8,2.3c-0.3,1.4-0.4,2.7-0.4,4.1c0,0.5,0,0.9,0,1.4c0,1-0.1,2,0.1,3
				c0.2,1.1,0.5,2.2,0.8,3.3c0.2,0.9,0.5,1.7,0.7,2.6c0.6,2.8,1,5.8,1,8.9c0.1,4.7-0.7,9-2.2,13l-0.5,1.3l-0.2-1.4
				c-0.1-0.7-0.2-1.3-0.3-2c-0.7-4.9-1.5-10-3.7-14.3c-0.8-1.5-2.1-3.3-3.4-5.2c-2.7-3.8-5.8-8.1-5.8-11.5c0-2.1,0.6-3.7,1.3-5.5
				c0.7-1.7,1.4-3.6,1.8-6.3c0.6-4.5,0.2-8.8-1.3-13.1c-0.9-2.5-2.1-4.4-3.8-6.2c-1.2-1.2-3-4.6-4-6.8c-0.5,1.7-0.9,4-1.3,6.1
				c-0.5,2.4-1,4.7-1.4,6.5c-1.2,4.1-0.9,7.9,0.9,12.5c1.2,3.1,2.6,6.6,4.6,9.7c0.3,0.5,0.6,1,1,1.5c0.5,0.8,1,1.5,1.5,2.3
				c1.4,3.8,3.5,7.4,5.4,10.8c1.4,2.5,2.9,5.1,4.2,7.8c1.3,2.9,2.2,6.1,2.9,10l0.4,2.3l-1.1-2.1c-2.2-4.3-5.1-7.3-8.5-8.8l-0.1-0.1
				c-0.5-0.5-0.8-0.7-1.2-1c-0.7-0.5-1.4-1.1-3.1-3c-2.4-2.7-3.2-4.8-4.3-7.9c-1.5-4.2-3.3-9.5-7.2-12.7c-2.4-2-5.5-2.9-8.5-3.7
				l-0.9-0.2c-2-0.6-4.5-1.3-6.3-0.8c-0.2,0-0.5,0.1-1,0.3c-2.1,0.7-3.4,1-4.2,1.1c1.8,2.4,3.4,4.9,5,7.4c1.9,3.1,3.9,6.3,6.3,9.1
				c4.4,5.1,10.1,8.9,16.7,11.1c2,0.7,4,1.2,6.1,1.5c1.1,0.2,2.1,0.2,3,0.3l0.2,0c4.3,2.3,7.6,7.1,9.7,14.2l0,0.1l-0.1,0.1
				c-0.3,0.6-0.6,1.2-0.9,1.8c-0.9,1.9-1.9,3.8-2.6,5.8c-2.4,6.6-2.2,21.1-2,22.3c0.7,1.1,0.8,3.6,0.9,5.6c0,0.8,0,1.5,0.1,2
				c0,0.2,0,0.5,0.1,0.8l0.3,3.3l-1-3.1c-0.8-2.3-1.7-4.8-2.9-7.2c-0.2-0.9-0.4-1.7-0.6-2.5c-0.2-0.7-0.3-1.4-0.5-2.1
				c-1.1-4.3-3.1-8.5-4.8-12.1c-2.6-5.3-5.8-8.8-10.4-11.1c-1.9-1-4.3-2.5-6.9-4c-2.3-1.4-4.8-2.9-6.7-4c1.1,2.6,2.6,7.3,2.7,9.4
				c0.1,3,0.9,5.8,2.4,8.6c2.6,4.9,6,8.8,10.5,11.9c2.7,1.9,5,2.8,7.1,3.7c2,0.8,3.8,1.5,5.5,3l0.1,0.1c1.6,3.1,2.6,6.3,3.7,9.5
				l0.5,1.6c1,3.1,2.4,6.4,4.2,10.2l0.9,1.9l-1.5-1.5c-4.8-4.7-12.8-8.3-19.2-6.1c3,3.6,5.7,5.5,10,7.1c1.8,0.7,3.9,0.9,6,1
				c1.8,0.1,3.6,0.3,5.2,0.8l0.2,0l0.1,0.1c1.7,3.3,3.7,7.3,6,11.1c1.6,2.7,3.6,5.2,5.5,7.6c0.9,1.1,1.8,2.3,2.6,3.4
				c0.3,0.4,0.7,1.2,1.3,2.2c0.8,1.4,1.7,3.1,2.6,4.2l1.2,2.8c2.5,5.6,4.8,10.1,8.1,14.3l0.8,1l-1.2-0.4c-2.4-0.8-4.5-1.6-6.4-2.5
				l-0.1-0.1c-1.8-1.9-2.6-3.9-3.6-6.2c-0.9-2.2-2-4.6-4-7.4c-5.6-7.8-13.7-11.8-21.6-15c-5-2-10-4.1-15-6.2
				c-1.3-0.6-2.7-1.1-4.2-1.6c-2.1-0.8-4.3-1.6-6.3-2.6c2.9,3.3,4.5,7.6,6.1,11.8c1.1,3.1,2.3,6.3,4,9c2.8,4.5,6.9,8,10.9,11.4
				c2.9,2.4,6.2,5.2,10,6.5c3.6,1.2,7.4,1.1,11.1,1.1c1,0,2-0.1,3-0.2c2.5-0.2,5.1-0.4,7.3,0.1c1.6,0.4,3.2,1.2,4.8,1.9
				c1.1,0.5,2.3,1.1,3.5,1.5c2.6,0.9,5.4,1.7,8,2.4c3.4,1,7,2,10.4,3.3c3.7,1.4,7.3,3.5,11.3,6.5c0,0,0,0,0,0l0,0l0,0l-0.4,0.6
				c-4.1-3.1-9.8-1.5-13.9-0.3c-0.6,0.2-1.2,0.4-1.9,0.6c-1.6,0.6-3.2,1.1-4.8,1.1c-1.6-0.1-3.2-0.5-4.9-0.8
				c-1.7-0.4-3.5-0.8-5.2-0.9l-6.8-0.2C144.6,539.2,144,539.2,143.5,539.2z M146.1,489.2c0.9,2.1,2.1,5.6,2.2,7.2
				c0.2,2.4,0.8,4.5,2,6.7c2.1,3.8,4.9,6.9,8.5,9.3c2.2,1.5,4,2.2,5.7,2.8c1.8,0.7,3.3,1.3,4.8,2.6c1.4,1.3,2.6,3.3,3.3,5.6
				c0.2,0.6,0.3,1.2,0.5,1.7c0.3,1.1,0.6,2.3,1.1,3.4c0.4,1,0.9,2.1,1.6,3.2l0.6,1l0.2-0.2c0.4-0.6-0.5-2.3-1-3.4
				c-0.3-0.5-0.5-0.9-0.6-1.2c-0.5-1.7-0.9-3.4-1.2-5.2c-0.2-0.9-0.2-1.8-0.2-2.6c0-0.5-0.1-1-0.1-1.6c0-0.4-0.1-0.8-0.1-1.2
				c-0.1-1-0.3-2.1-0.1-3.2c0.1-0.6,0.2-1.2,0.2-1.9c0.2-2.2,0.5-4.5,1.4-6.4c0.4-0.8,0.7-1.8,1.1-2.8c0.5-1.6,1.1-3.2,2-4.5
				c1.1-1.4,1.8-3,2.6-4.7l0.4-0.8c0.8-1.6,1.6-3.3,2.1-5c1-3.7,0-6.7-1.1-9.8c-0.5-1.3-1-2.6-1.3-4.1c-1.7-6.9-3.6-12.1-6.1-16.4
				c-0.6,2-1.8,3.7-3,5.4c-1,1.4-2,2.9-2.6,4.5l0,0.1l-0.1,0.1c-1,0.7-1.2,4.7-1.3,6.9c0,0.7-0.1,1.3-0.1,1.7
				c-0.3,2.5,0,5.1,0.3,7.7c0.1,1.1,0.2,2.1,0.3,3.2c0.1,1,0.1,1.9,0.5,2.8c0.3,0.8,0.8,1.6,1.3,2.3c0.4,0.5,0.8,1.1,1.2,1.6
				c0.7,0.8,1.3,1.6,1.8,2.5c0.2,0.4,0.4,0.8,0.5,1.2c0.3,0.7,0.6,1.4,1.1,2.1c0.2,0.2,0.4,0.6,0.4,1c0,0.3-0.1,0.6-0.2,0.9
				l-0.2,0.7c-0.8,2.2-1.6,4.8-1.9,7c-0.4,3.3-0.6,5.9-0.5,8.4c0,0.3,0,0.7,0,1l0,2.3l-0.7-1.6c-0.3-0.6-0.6-1.2-0.9-1.8
				c-0.3-0.9-0.5-1.8-0.7-2.6c-0.1-0.6-0.3-1.1-0.4-1.6c-0.9-3.4-2.5-6.7-4-9.5c-2.1-4.2-4.7-6.9-8.4-8.6c-1.5-0.8-3.5-1.9-5.5-3.1
				C149.5,491.1,147.7,490,146.1,489.2z M145.2,386c-1,0.5-2.1,0.9-3.1,1.3c-2.6,1-5.2,1.9-6.8,4.1c-1.1,1.4-2.2,2.8-2.9,4.5
				c-0.3,0.9-0.6,1.8-0.6,2.8l-0.1,1.6l0,0c2.8-0.5,5.7-2.7,9.1-6.7c1.4-1.7,2.5-3.2,3.4-4.7c0.1-0.2,0.4-0.9,0.6-1.6
				C144.9,386.8,145.1,386.3,145.2,386z"/>
		</g>
		<g>
			<path d="M354.8,462.9c0.3-0.1,7.2-12.8,8.2-19.5c0.4-2.6,0.3-5.3,0.4-7.9c3.6-3.7,8.5-7.3,13.9-7.4c0.9,0.4,1.7,0.8,2.7,1.1
				c1.9,0.6,3.8,1.1,5.7,1.4c6.3,1,12.8,0.4,18.9-1.9c6.1-2.4,11.3-6.5,17.3-9.1c-0.6,0.3-3.9-3.2-4.4-3.7c-1.6-1.4-4.5-1.8-6.6-2.3
				c-2.8-0.6-5.9-1.2-8.8-0.6c-4.6,0.9-8.3,4.2-11.6,7.4c-2.4,2.2-3.9,3.5-6.9,4.6c-3.4,1.3-3.6,1-5.3,1.5c0,0,0,0,0,0
				c-4.1-0.2-7.8,1.4-11.1,3.7c1.9-2.6,4.1-5,6.7-6.9c5.2-4,11.1-6.8,16-11.2c1.2-0.7,2.5-1.4,3.7-2.1c2.9-1.6,5.5-3.8,8.1-6.1
				c3.3-2.9,5.4-6,6.3-10.2c0.7-3.4,2.7-9.2,3.4-12.6c-1.4,1.2-5.2,3.9-7,4.4c-2.3,0.7-4.2,1.9-6,3.6c-3.2,3-5.4,6.4-6.8,10.4
				c-1.8,5-0.9,7.9-2.6,11.1c-2.2,4.1-11,7-14.8,9.7c-4.3,3-7.3,7.6-10.4,11.9c0.4-4.1,1.8-8,3.7-11.6c1.3-2.4,2.9-4.8,4.7-6.9
				c1.2-1.5,2.7-2.7,3.8-4.2c0.9-1.1,1.4-2.4,2-3.7c0.6-1.2,1.1-2.4,1.5-3.7c0.3-1.2,0.3-2.4,0.4-3.6c0.3-2.5,0.5-5,0-7.5
				c0,0,0,0,0,0c0.2-1.7-0.1-3.6,0.4-5.2c0.5-1.8,2.2-3.4,2.9-5.3c1.7-4.9,2.3-9.9,2.4-15c0.2-5-1.6-9.8-3.5-14.2
				c-2.3-5.3-5-10.5-5.6-16.3c-3.3,6.8-8.6,12.7-9.9,20.4c-0.8,4.9-0.5,9.3,0.2,14.1c0.4,3,1.5,5.8,2.9,8.4c1.2,2.2,2.6,5.5,4.8,6.5
				c0.3,0.1,0.5,0.4,0.8,0.6c0.3,0.3,0.7,0.6,0.9,1c1.6,2.1,0.4,4.7,1.8,6.6c1.2,6.9-2.7,13.9-6.7,19.2c-0.1,0.1-0.1,0.2-0.1,0.2
				c-0.6,0.6-1.1,1.2-1.7,1.9c0.4-0.9,0.6-1.8,0.7-2.7c0.2-1.7-0.1-3.4-0.4-5.1c-0.7-4-4.4-6.5-6.5-9.8c0.2,0.3-0.5,3.4-0.4,3.9
				c0.1,1.8,0.4,3.7,0.8,5.5c0.7,3.2,2,7.5,4.8,9.7c-0.2,0.3-0.5,0.6-0.7,1c-2.1,3.1-3.9,6.7-4.9,10.3c-0.1,0.2-0.1,0.4-0.2,0.6
				c-0.9,3.5-1.1,7.1-1.1,10.7c-0.1,6.2-1.5,12.8-4.3,18.3c-1.9,3.7-4.6,6.7-7.2,9.9c-1.2,1.5-6.3,7.1-6.3,9.7
				c-2.7,2.2-5.6,4.3-8.4,6.3c-1.9,1.3-3.9,2.7-5.9,3.9c3-3.2,5.7-6.8,6.5-11c0-0.2,0-0.3,0-0.4c0.8-1.6,0.7-2.1,2.9-5.6
				c1.9-2.9,3.9-5.7,6-8.5c1.7-2.1,4-3.7,5.5-5.8c3.5-4.7,4.5-13.8,4-19.4c-0.3-2.8-1-5.5-1.5-8.2c-0.8-4.1-1.1-8.3-0.9-12.5
				c-3.3,5.6-7.4,10.7-11.7,15.7c-2.1,2.4-4.2,4.8-5.8,7.6c-6,10.5-2.6,23-1.4,34.2c0.1,1.1,0.3,2,0.5,3c-0.7,3-2.8,5.6-4.7,7.9
				c-2.1,2.5-4.5,5.3-7.3,7c-3.7,2.2-7.5,4-11.2,6.1c-1.3,0.8-2.5,1.8-3.6,2.9l-0.6,3.6c1.1-0.8,2.2-1.6,3.3-2.5
				c0.7-0.6,1.4-1.1,2.2-1.7c2-1,5-3.2,6-3.6c3.9-1.9,7.8-3.4,11.5-5.7c3.4-2,6.6-4.3,9.8-6.6c3.3,0.7,6.7,3,10.1,3.4
				c4.5,0.5,7.7,0.1,12-1.7c-4.3-5-12.8-5.7-19.2-3.8c2.8-2.1,5.4-4.3,7.9-6.7c2.7-2.6,5.2-5.2,8.2-7.4c4-0.9,7.1,0.8,13.2,0
				c5-0.6,9.7-2.4,14-5.4c2.4-1.7,4.3-3.6,5.8-6.2c1.1-1.9,5.2-5.7,7-7.1c-4.2-0.1-11.5,0.7-15.7,0.7c-5.1,0-9.4,1.6-13.6,4.8
				c-3.3,2.5-6.6,5-9.3,8c-0.9,1-1.8,2.1-2.8,3.2c-2,1.4-3.8,3-5.6,4.7c0.2-0.3,0.3-0.5,0.4-0.6
				C351.6,467.5,353.3,463.6,354.8,462.9z"/>
			<path d="M304.9,503.7l0.8-4.6l0.1-0.1c1.1-1.1,2.3-2.2,3.7-3c1.8-1,3.7-2,5.5-3c1.9-1,3.9-2,5.7-3.1c2.7-1.6,5-4.3,7-6.6l0.2-0.3
				c1.9-2.2,3.9-4.8,4.6-7.7c-0.2-0.8-0.4-1.8-0.5-2.9c-0.2-2-0.5-4.1-0.8-6.2c-1.3-9.6-2.7-19.6,2.3-28.3c1.5-2.6,3.5-4.9,5.4-7.1
				l0.4-0.5c4.1-4.7,8.3-9.8,11.7-15.6l0.8-1.3l-0.1,1.5c-0.2,4.1,0.1,8.3,0.9,12.4c0.2,0.9,0.4,1.7,0.5,2.6c0.4,1.9,0.8,3.8,1,5.7
				c0.6,6.1-0.6,15.1-4,19.6c-0.8,1.1-1.8,2-2.8,3c-0.9,0.9-1.9,1.8-2.7,2.8c-2,2.6-4,5.3-6,8.4c-1.5,2.3-1.9,3.3-2.3,4.2
				c-0.2,0.4-0.3,0.8-0.6,1.2c0,0.1,0,0.3,0,0.4c-0.6,3.6-2.7,6.7-4.7,9.1c1.2-0.8,2.4-1.6,3.5-2.4c2.7-1.9,5.6-3.9,8.3-6.1
				c0.2-2.4,3.8-6.6,5.7-8.9c0.3-0.4,0.6-0.7,0.7-0.9c0.5-0.6,0.9-1.1,1.4-1.7c2.1-2.5,4.3-5.2,5.8-8.2c2.6-5.1,4.2-11.6,4.3-18.2
				c0.1-3.5,0.2-7.2,1.2-10.8c0.1-0.2,0.1-0.4,0.2-0.6c1-3.5,2.7-7.1,5-10.4c0.2-0.2,0.3-0.5,0.5-0.7c-2-1.8-3.5-5-4.6-9.6
				c-0.5-2-0.7-3.8-0.8-5.5c0-0.3,0.1-0.8,0.2-1.7c0.1-0.7,0.3-1.9,0.3-2.1l0.4-0.1l0.3-0.2c0,0,0,0,0,0c0.7,1.1,1.7,2.2,2.6,3.2
				c1.7,2,3.6,4,4,6.7c0.3,1.7,0.6,3.4,0.4,5.2c0,0.3-0.1,0.7-0.2,1c0.1-0.2,0.3-0.3,0.4-0.5c0-0.1,0.1-0.2,0.2-0.3
				c3.7-4.8,7.8-11.9,6.7-18.8c-0.6-1-0.7-2.1-0.8-3.2c-0.1-1.2-0.2-2.3-0.9-3.3c-0.3-0.3-0.6-0.6-0.9-0.9c-0.2-0.2-0.4-0.4-0.7-0.5
				c-1.9-0.9-3.2-3.3-4.3-5.5c-0.2-0.4-0.4-0.8-0.6-1.2c-1.5-2.8-2.5-5.6-3-8.6c-0.7-5-1.1-9.4-0.2-14.3c0.9-5.2,3.6-9.6,6.2-13.8
				c1.3-2.1,2.7-4.4,3.8-6.6l0.6-1.2l0.1,1.3c0.5,4.8,2.5,9.4,4.5,13.8c0.4,0.8,0.7,1.6,1.1,2.4c1.9,4.5,3.7,9.3,3.6,14.4
				c-0.2,6.2-1,10.9-2.5,15.2c-0.3,1-0.9,1.9-1.5,2.7c-0.6,0.9-1.1,1.7-1.4,2.6c-0.3,0.9-0.3,2-0.3,3.1c0,0.7,0,1.4-0.1,2.1
				c0.6,2.6,0.3,5.2,0,7.6c-0.1,0.4-0.1,0.8-0.1,1.3c0,0.8-0.1,1.6-0.3,2.4c-0.4,1.3-0.9,2.6-1.5,3.7c-0.2,0.4-0.4,0.8-0.6,1.1
				c-0.4,0.9-0.9,1.8-1.5,2.6c-0.7,0.9-1.4,1.7-2.2,2.4c-0.6,0.6-1.1,1.2-1.7,1.8c-1.7,2-3.3,4.3-4.6,6.8c-1.8,3.3-3,6.6-3.5,10
				c0.1-0.1,0.2-0.2,0.2-0.3c2.8-3.8,5.6-7.7,9.4-10.4c1.3-0.9,3.2-1.9,5.2-2.9c3.8-1.9,8.1-4.1,9.5-6.7c0.8-1.6,1-3.1,1.2-4.9
				c0.2-1.7,0.4-3.7,1.3-6.2c1.5-4.1,3.7-7.5,6.9-10.5c1.9-1.7,3.8-2.9,6.1-3.7c1.6-0.5,5.4-3.2,6.8-4.3l0.8-0.7l-0.2,1
				c-0.3,1.8-1.1,4.3-1.8,6.7c-0.6,2.1-1.3,4.3-1.6,5.9c-0.9,4-2.8,7.2-6.4,10.4c-2.3,2.1-5.1,4.4-8.1,6.1c-0.5,0.3-1,0.5-1.5,0.8
				c-0.7,0.4-1.5,0.8-2.2,1.3c-2.8,2.5-6,4.6-9.1,6.5c-2.3,1.4-4.6,2.9-6.8,4.6c-1.8,1.4-3.5,3.1-5.2,5.2c3.2-1.8,6.4-2.7,9.5-2.5
				c0.6-0.2,1-0.2,1.4-0.3c0.8-0.1,1.6-0.3,3.8-1.1c2.9-1.1,4.4-2.3,6.8-4.5c3.1-2.9,7-6.6,11.8-7.5c3-0.6,6.1,0,8.9,0.6l0.8,0.2
				c2,0.4,4.4,1,5.9,2.2c0.1,0.1,0.4,0.4,0.7,0.7c0.7,0.7,2.8,2.8,3.3,2.9l0.1,0.4l0.2,0.3l0,0l0,0c-2.8,1.2-5.4,2.8-8,4.3
				c-3,1.7-6,3.5-9.3,4.8c-5.9,2.4-12.5,3-19.1,2c-2-0.3-3.9-0.8-5.8-1.4c-1-0.3-1.9-0.7-2.6-1.1c-4.3,0.1-8.9,2.5-13.5,7.2
				c0,0.6,0,1.2,0,1.8c0,2-0.1,4-0.4,6c-0.9,6.6-7.8,19.6-8.4,19.8l0,0c-0.9,0.4-2,2.5-2.9,4c1.1-1,2.3-2,3.6-2.9
				c0.4-0.5,0.9-1.1,1.4-1.6c0.4-0.5,0.9-1,1.3-1.5c2.8-3.2,6.3-5.8,9.3-8c4.6-3.4,8.9-4.9,13.9-4.8c2,0,4.7-0.2,7.4-0.4
				c3-0.2,6.1-0.4,8.3-0.4l1.1,0l-0.8,0.6c-1.8,1.4-5.8,5.2-6.9,7c-1.5,2.5-3.4,4.5-5.9,6.3c-4.3,3-9,4.8-14.2,5.4
				c-3.1,0.4-5.5,0.2-7.6-0.1c-2-0.2-3.7-0.4-5.5,0c-2.5,1.8-4.8,4-7,6.2l-1.1,1.1c-1.9,1.8-4,3.6-6.5,5.6
				c6.2-1.3,13.8-0.3,17.8,4.4l0.3,0.4l-0.5,0.2c-4.4,1.9-7.6,2.3-12.2,1.8c-1.9-0.2-3.8-1-5.6-1.8c-1.5-0.6-2.9-1.3-4.4-1.6
				c-2.8,2-6.1,4.4-9.7,6.5c-2.6,1.5-5.3,2.8-7.9,4c-1.2,0.6-2.4,1.1-3.6,1.7c-0.4,0.2-1.1,0.6-1.9,1.2c-1.3,0.8-2.8,1.8-4,2.4
				l-2.1,1.7c-1.1,0.8-2.1,1.7-3.3,2.5L304.9,503.7z M306.4,499.5L306,502c0.9-0.6,1.7-1.3,2.5-1.9l2.2-1.7c1.2-0.6,2.8-1.6,4-2.4
				c0.9-0.6,1.6-1,2-1.2c1.2-0.6,2.4-1.1,3.6-1.7c2.6-1.2,5.3-2.4,7.8-3.9c3.6-2.1,6.9-4.5,9.8-6.5l0.1-0.1l0.2,0
				c1.5,0.3,3.1,1,4.7,1.6c1.8,0.8,3.6,1.5,5.4,1.8c4.2,0.5,7.3,0.1,11.3-1.5c-4.3-4.5-12.5-5.1-18.5-3.3l-2,0.6l1.7-1.3
				c3.2-2.4,5.7-4.5,7.9-6.7l1.1-1.1c2.2-2.2,4.6-4.5,7.2-6.3l0.1-0.1c2-0.4,3.8-0.3,5.8-0.1c2.1,0.2,4.4,0.4,7.4,0.1
				c5.1-0.6,9.6-2.4,13.9-5.3c2.4-1.7,4.2-3.6,5.7-6c1-1.7,4.2-4.8,6.3-6.5c-2.1,0-4.7,0.2-7.2,0.4c-2.8,0.2-5.5,0.4-7.5,0.4
				c-0.1,0-0.1,0-0.2,0c-4.7,0-8.8,1.5-13.2,4.7c-3,2.2-6.4,4.8-9.2,7.9c-0.4,0.5-0.9,1-1.3,1.5c-0.5,0.6-1,1.1-1.5,1.7
				c-2.1,1.5-3.9,3.2-5.6,4.8l-2.3,2.3l1.8-2.7c0.2-0.3,0.3-0.5,0.4-0.6c0.2-0.4,0.6-0.9,0.9-1.6c0.9-1.7,2.1-3.7,3.2-4.3
				c0.7-0.9,7.1-12.8,8-19.3c0.3-2,0.3-4,0.3-5.9c0-0.6,0-1.3,0-1.9l0-0.1l0.1-0.1c4.8-4.9,9.6-7.4,14.2-7.5l0.1,0l0.1,0
				c0.8,0.3,1.6,0.7,2.6,1.1c1.8,0.6,3.7,1.1,5.7,1.4c6.4,1.1,12.8,0.4,18.7-1.9c3.2-1.3,6.3-3.1,9.2-4.8c2.4-1.4,4.8-2.8,7.3-4
				c-0.6-0.4-1.6-1.3-3-2.7c-0.3-0.3-0.6-0.6-0.7-0.7c-1.3-1.1-3.7-1.6-5.6-2.1l-0.8-0.2c-2.8-0.6-5.8-1.2-8.6-0.6
				c-4.6,0.9-8.4,4.5-11.5,7.3c-2.3,2.1-3.9,3.5-7,4.7c-2.2,0.8-3.1,1-3.9,1.1c-0.4,0.1-0.8,0.2-1.4,0.3l-0.1,0l-0.1,0
				c-3.5-0.2-7.2,1-10.9,3.6l-1.9,1.3l1.4-1.9c2.2-3,4.4-5.2,6.7-7c2.2-1.7,4.6-3.2,6.9-4.6c3.1-2,6.3-4,9.1-6.5
				c0.8-0.5,1.6-0.9,2.3-1.3c0.5-0.3,1-0.5,1.4-0.8c3-1.7,5.7-4,8-6c3.4-3,5.3-6.1,6.1-10c0.3-1.6,1-3.7,1.6-6
				c0.6-1.9,1.2-3.9,1.5-5.6c-1.8,1.4-4.8,3.3-6.2,3.8c-2.2,0.7-4.1,1.8-5.8,3.5c-3.1,2.9-5.3,6.3-6.7,10.2c-0.9,2.4-1.1,4.3-1.3,6
				c-0.2,1.8-0.4,3.4-1.3,5.1c-1.5,2.8-5.9,5-9.8,7c-2,1-3.8,1.9-5.1,2.8c-3.7,2.6-6.5,6.5-9.2,10.2c-0.4,0.5-0.7,1-1.1,1.5
				l-0.8,1.1l0.2-1.4c0.4-3.9,1.7-7.9,3.8-11.7c1.4-2.5,3-4.9,4.7-6.9c0.5-0.6,1.1-1.3,1.7-1.9c0.7-0.8,1.5-1.5,2.1-2.4
				c0.6-0.8,1-1.6,1.4-2.5c0.2-0.4,0.4-0.8,0.6-1.2c0.6-1.1,1.1-2.4,1.4-3.6c0.2-0.7,0.2-1.4,0.3-2.2c0-0.4,0.1-0.9,0.1-1.3
				c0.3-2.4,0.5-4.9,0-7.4l0-0.2c0.1-0.6,0.1-1.3,0.1-2c0-1.1,0-2.2,0.3-3.3c0.3-1,0.9-1.9,1.5-2.8c0.5-0.8,1.1-1.6,1.4-2.5
				c1.5-4.2,2.2-8.8,2.4-14.9c0.2-4.9-1.6-9.7-3.5-14.1c-0.3-0.8-0.7-1.6-1.1-2.4c-1.8-4.1-3.7-8.3-4.4-12.8c-1,1.9-2.1,3.8-3.2,5.6
				c-2.6,4.2-5.2,8.5-6.1,13.6c-0.8,4.8-0.5,9.1,0.2,14c0.4,2.8,1.4,5.6,2.9,8.3c0.2,0.4,0.4,0.8,0.6,1.2c1.1,2,2.3,4.3,4,5.1
				c0.3,0.2,0.6,0.4,0.9,0.6c0.3,0.3,0.7,0.7,1,1c0.9,1.2,1,2.5,1.1,3.8c0.1,1.1,0.1,2.1,0.7,2.9l0.1,0.2c1,5.7-1.4,12.5-6.8,19.5
				c0,0-0.1,0.1-0.1,0.2l-0.1,0.1c-0.6,0.6-1.1,1.3-1.6,1.9l-1,1.2l0,0l-0.2,0.3c-0.2,0.3-0.5,0.6-0.7,1c-2.2,3.2-3.9,6.8-4.9,10.2
				c-0.1,0.2-0.1,0.4-0.2,0.6c-0.9,3.5-1.1,7.2-1.1,10.6c-0.1,6.7-1.7,13.3-4.4,18.5c-1.6,3-3.8,5.7-5.9,8.3
				c-0.5,0.6-0.9,1.1-1.4,1.7c-0.2,0.2-0.4,0.5-0.7,0.9c-1.6,1.9-5.5,6.5-5.5,8.6l0,0.2l-0.1,0.1c-2.8,2.3-5.7,4.4-8.4,6.3
				c-1.8,1.2-3.8,2.6-5.9,3.9l-2.5,1.6l2-2.2c2.3-2.5,5.6-6.3,6.4-10.8c0-0.1,0-0.2,0-0.3l0-0.1l0.1-0.1c0.3-0.5,0.4-0.9,0.6-1.3
				c0.4-0.9,0.8-1.9,2.4-4.3c2-3.1,4-5.9,6-8.5c0.8-1.1,1.8-2,2.8-2.9c1-0.9,2-1.8,2.8-2.9c3.3-4.4,4.5-13.1,3.9-19.1
				c-0.2-1.9-0.6-3.8-1-5.6c-0.2-0.9-0.4-1.7-0.5-2.6c-0.7-3.7-1-7.4-1-11.1c-3.3,5.3-7.2,10.1-11,14.5l-0.4,0.5
				c-1.9,2.2-3.9,4.5-5.3,7c-4.9,8.5-3.5,18.3-2.2,27.8c0.3,2,0.6,4.2,0.8,6.2c0.1,1.1,0.3,2.1,0.5,2.9l0,0.1l0,0.1
				c-0.7,3.1-2.9,5.8-4.8,8.1l-0.2,0.3c-2.1,2.4-4.4,5.2-7.2,6.8c-1.9,1.1-3.9,2.1-5.8,3.1c-1.8,0.9-3.7,1.9-5.5,3
				C308.6,497.4,307.5,498.4,306.4,499.5z M363.3,397.5c0,0.3-0.1,0.7-0.2,1.2c-0.1,0.7-0.2,1.4-0.2,1.6c0.1,1.7,0.3,3.4,0.8,5.4
				c1.1,4.7,2.6,7.8,4.6,9.4l0,0l0.6-1.3c0.4-0.9,0.6-1.7,0.7-2.6c0.2-1.6-0.1-3.3-0.4-5c-0.5-2.5-2.1-4.4-3.9-6.4
				C364.6,399.1,363.9,398.3,363.3,397.5z"/>
		</g>
		<g>
			<path d="M389.7,539.3c-4.1-4.1-3.9-27.1-6.8-27.1c-2.9,0-1.9,22.1-6.8,27.1c-4.9,4.9-20.6,2.8-20.6,6s15.9,1.2,20.6,6
				c4.8,4.8,3.9,27.1,6.8,27.1s2.4-22.7,6.8-27.1s20.6-3.4,20.6-6S393.8,543.4,389.7,539.3z"/>
		</g>
		<g>
			<path d="M159.1,246.4c-5-5-4.8-32.9-8.3-32.9c-3.5,0-2.3,26.9-8.3,32.9c-6,6-25.1,3.4-25.1,7.3c0,3.8,19.3,1.5,25.1,7.3
				c5.8,5.8,4.8,32.9,8.3,32.9c3.5,0,3-27.5,8.3-32.9s25.1-4.1,25.1-7.3C184.2,250.5,164.1,251.4,159.1,246.4z"/>
		</g>
		<g>
			<path d="M398.6,662.4c-2.4-2.4-2.3-15.7-4-15.7s-1.1,12.8-4,15.7s-12,1.6-12,3.5s9.2,0.7,12,3.5s2.3,15.7,4,15.7s1.4-13.1,4-15.7
				c2.5-2.5,12-1.9,12-3.5C410.5,664.3,401,664.7,398.6,662.4z"/>
		</g>
		<g>
			<path d="M203.8,208.7c-2.4-2.4-2.3-15.7-4-15.7c-1.7,0-1.1,12.8-4,15.7c-2.9,2.9-12,1.6-12,3.5c0,1.8,9.2,0.7,12,3.5
				c2.8,2.8,2.3,15.7,4,15.7s1.4-13.1,4-15.7c2.5-2.5,12-1.9,12-3.5C215.8,210.6,206.2,211,203.8,208.7z"/>
		</g>
		<g>
			<path d="M431.1,576c-1.2-1.2-1.1-7.8-2-7.8c-0.8,0-0.5,6.4-2,7.8s-6,0.8-6,1.7c0,0.9,4.6,0.4,6,1.7c1.4,1.4,1.1,7.8,2,7.8
				c0.8,0,0.7-6.6,2-7.8s6-1,6-1.7S432.2,577.2,431.1,576z"/>
		</g>
		<g>
			<path d="M97,598.8c-2.4-2.4-2.3-15.6-3.9-15.6s-1.1,12.7-3.9,15.6c-2.8,2.8-11.9,1.6-11.9,3.4c0,1.8,9.1,0.7,11.9,3.4
				c2.7,2.7,2.3,15.6,3.9,15.6s1.4-13,3.9-15.6s11.9-1.9,11.9-3.4C108.9,600.7,99.4,601.1,97,598.8z"/>
		</g>
		<g>
			<path d="M407.8,296.8c-1.7-1.7-1.6-11.1-2.8-11.1s-0.8,9.1-2.8,11.1s-8.5,1.2-8.5,2.5s6.5,0.5,8.5,2.5c2,2,1.6,11.1,2.8,11.1
				c1.2,0,1-9.3,2.8-11.1c1.8-1.8,8.5-1.4,8.5-2.5S409.5,298.5,407.8,296.8z"/>
		</g>
	</g>
</g>
</svg>
