<?xml version="1.0" encoding="utf-8"?>
<!-- Generator: Adobe Illustrator 21.1.0, SVG Export Plug-In . SVG Version: 6.00 Build 0)  -->
<svg version="1.1" id="Слой_1" xmlns="http://www.w3.org/2000/svg" xmlns:xlink="http://www.w3.org/1999/xlink" x="0px" y="0px"
	 viewBox="0 0 504 864" style="enable-background:new 0 0 504 864;" xml:space="preserve">
<style type="text/css">
	.st0{fill:#040404;}
	.st1{fill:#FFFFFF;}
</style>
<g>
	<g>
		<path d="M51.9,53.6c6.7-7.6,6.7-19,0.2-26.4c0.8,7.2-1.3,14.8-6.5,20.6c-5.2,5.8-12.3,8.7-19.5,8.6C34,62.2,45.2,61.1,51.9,53.6z"
			/>
		<path d="M458.4,47.7c-5.2-5.8-7.3-13.3-6.5-20.6c-6.5,7.5-6.6,18.9,0.1,26.4c6.7,7.6,17.9,8.6,25.9,2.8
			C470.7,56.4,463.6,53.5,458.4,47.7z"/>
		<path d="M26.1,807.4c7.2-0.1,14.3,2.8,19.5,8.6c5.2,5.8,7.3,13.3,6.5,20.6c6.5-7.5,6.6-18.9-0.2-26.4
			C45.2,802.6,34,801.6,26.1,807.4z"/>
		<path d="M452,810.2c-6.7,7.6-6.7,19-0.1,26.4c-0.8-7.2,1.3-14.8,6.5-20.6c5.2-5.8,12.3-8.7,19.5-8.6
			C469.9,801.6,458.8,802.6,452,810.2z"/>
		<path d="M503.8,18.2c-1.6-17.9-18.7-16.3-31.6-16.3c-45.9,0-91.8,0-137.6,0c-63.2,0-126.3,0-189.5,0c-40.6,0-81.2,0-121.8,0
			c-2.6,0-5.3-0.2-8,0.2c-9.5,1.2-15,9.2-15.2,18.2c-0.2,7.3,0,14.5,0,21.8c0,37.4,0,74.9,0,112.3c0,57,0,114.1,0,171.1
			c0,64.3,0,128.6,0,192.9c0,58.4,0,116.7,0,175.1c0,40.1,0,80.2,0,120.3c0,9.1,0,18.2,0,27.3c0,11.7,6.7,20.5,19.2,20.7
			c35.9,0.6,71.9,0,107.9,0c62.4,0,124.9,0,187.3,0c49.7,0,99.5,0,149.2,0c7.6,0,15.2,0,22.9,0c0.4,0,0.8-0.1,1.2-0.2
			c14.4-1.8,16.1-13.8,16.1-25.5c0-11.4,0-22.8,0-34.3c0-43.4,0-86.9,0-130.3c0-59.9,0-119.8,0-179.8c0-63.9,0-127.7,0-191.6
			c0-55.3,0-110.6,0-165.9c0-33.7,0-67.3,0-101C503.9,28.3,504.2,23.2,503.8,18.2z M486.6,852.8c-28.3,0-56.6,0-84.9,0
			c-59.9,0-119.8,0-179.7,0c-54,0-108,0-162,0c-13.1,0-26.1,0-39.2,0c-5.6,0-11-1.3-11.7-8.3c-0.2-1.5,0-3,0-4.5c0-26.5,0-53,0-79.5
			c0-50,0-100,0-149.9c0-61.8,0-123.6,0-185.4c0-61.4,0-122.7,0-184.1c0-48.9,0-97.7,0-146.6c0-24.2-0.8-48.6,0-72.7
			c0.2-5.3,1.6-10.1,8.3-10.8c2.2-0.2,4.5,0,6.7,0c14.8,0,29.6,0,44.5,0c55.6,0,111.3,0,166.9,0c58.9,0,117.8,0,176.7,0
			c18.9,0,37.9,0,56.8,0c8.1,0,24.7-3.1,25.9,8.4c0.5,5.2,0,10.8,0,16.1c0,13.5,0,27.1,0,40.6c0,45.5,0,91.1,0,136.6
			c0,60.1,0,120.2,0,180.3c0,62.6,0,125.2,0,187.7c0,52.8,0,105.6,0,158.4c0,31.4,0,62.7,0,94.1C494.8,840.3,496.9,852,486.6,852.8z
			"/>
		<path d="M460,790.9c1.2,0.1,2.4-0.7,2.4-2.2c0-23.7,0-47.4,0-71.1c0-56.4,0-112.8,0-169.2c0-68.7,0-137.4,0-206
			c0-59,0-117.9,0-176.9c0-19.6,0-39.2,0-58.8c0-8.9,1.3-19,0-27.9c-0.1-0.4,0-0.8,0-1.2c0-0.8-0.3-1.3-0.8-1.7
			c0.1-1.2-0.6-2.5-2.2-2.6c-13.1-0.5-25.3-13.8-25.8-26.7c0-0.5-0.2-0.8-0.4-1.1c-0.3-0.6-1-1.1-1.9-1.1c-40.5,0-80.9,0-121.4,0
			c-64.5,0-129,0-193.6,0c-14.9,0-29.7,0-44.6,0c-0.9,0-1.6,0.5-1.9,1.1c-0.2,0.3-0.3,0.7-0.4,1.2C69.1,59.5,57,72.8,43.9,73.3
			c-1.8,0.1-2.5,1.9-2,3.2c-0.2,0.3-0.2,0.6-0.2,1c0,23.7,0,47.4,0,71.1c0,56.4,0,112.8,0,169.2c0,68.7,0,137.4,0,206
			c0,59,0,117.9,0,176.9c0,19.6,0,39.2,0,58.8c0,8.9-1.3,19,0,27.9c0.1,0.4,0,0.8,0,1.2c0,0.9,0.5,1.6,1.1,1.9
			c0.3,0.2,0.7,0.3,1.2,0.4c13,0.5,25.3,13.3,25.8,26.2c0,0.5,0.2,0.8,0.4,1.1c0.3,0.6,1,1.1,1.9,1.1c40.5,0,80.9,0,121.4,0
			c64.5,0,129,0,193.6,0c14.9,0,29.7,0,44.6,0c0.9,0,1.6-0.5,1.9-1.1c0.2-0.3,0.3-0.7,0.4-1.2c0.5-12.9,12.7-25.7,25.8-26.2
			C459.6,791,459.8,790.9,460,790.9z M429.3,814.9c-39.8,0-79.6,0-119.3,0c-64.5,0-129,0-193.6,0c-14.2,0-28.3,0-42.5,0
			c-1.7-13.9-13.9-26.5-27.8-28.3c0-23,0-46,0-69.1c0-56.4,0-112.8,0-169.2c0-68.7,0-137.4,0-206c0-59,0-117.9,0-176.9
			c0-19.6,0-39.2,0-58.8c0-8.9,1.3-19,0-27.9c-0.1-0.4,0-0.8,0-1.2c14-1.8,26.1-14.9,27.8-28.7c39.8,0,79.5,0,119.3,0
			c64.5,0,129,0,193.6,0c14.2,0,28.3,0,42.5,0c1.7,14.1,14.3,27.4,28.5,28.8c0,23.7,0,47.3,0,71c0,56.4,0,112.8,0,169.2
			c0,68.7,0,137.4,0,206c0,59,0,117.9,0,176.9c0,19.6,0,39.2,0,58.8c0,8.6-1.2,18.4-0.1,27C443.6,788.1,431.1,800.9,429.3,814.9z"/>
		<path d="M242.2,103.2c0,0.2,0.2,0.3,0.5,0.3c0.4,0,0.6-0.1,0.6-0.2s0.2-0.3,0.6-0.5c0.4-0.2,0.6-0.4,0.6-0.6
			c0-0.9-0.7-1.4-1.9-1.5l-1.3-0.1l0.1-6.7c0.1-4.5,0.2-6.8,0.3-7c0.1-0.1,0.2-0.8,0.3-1.9c0.1-2.1,0.3-3.2,0.7-3.2
			c0.2,0,0.4-0.1,0.4-0.3c0-0.2,0.2-0.3,0.7-0.3c0.4,0,0.8-0.1,1-0.3c0.3-0.2,0.4-0.5,0.4-0.7c0-0.3-0.2-0.6-0.5-0.8
			c-0.3-0.2-1.4-0.3-3.4-0.3c-2,0-2.9,0.1-2.9,0.3c0,0.1-0.3,0.2-0.9,0.2s-0.9,0.1-0.9,0.4s-0.1,0.4-0.3,0.4c-0.2,0-0.3,0.2-0.3,0.6
			c0,0.5,0.1,0.8,0.4,0.9c0.3,0.1,0.4,0.9,0.4,2.5c0,1.6,0.1,2.4,0.3,2.5c0.2,0.1,0.3,0.8,0.3,2.2c0,1.3-0.1,2-0.3,2.1
			c-0.2,0.1-0.4,1.5-0.4,4.3c-0.1,2.4-0.2,3.9-0.4,4.3c-0.2,0.5-0.8,0.8-1.8,0.9c-0.6,0-0.9,0.1-1,0.2c-0.1,0.1-0.2,0.4-0.2,0.8
			c0,0.6,0.1,0.9,0.4,0.9c0.3,0,0.6,0.1,0.9,0.4c0.3,0.3,0.5,0.4,0.6,0.2c0.1-0.2,1.5-0.4,4-0.4C241.1,102.9,242.2,103,242.2,103.2z
			 M239.6,88c0.3,0,0.4,0.2,0.4,0.6c0,0.4-0.1,0.5-0.4,0.5c-0.3,0-0.4-0.2-0.4-0.5C239.2,88.2,239.3,88,239.6,88z M237.9,96.6
			c-0.3,0-0.4-0.1-0.4-0.3c0-0.2,0.1-0.3,0.4-0.3c0.2,0,0.4,0.1,0.4,0.3C238.3,96.5,238.2,96.6,237.9,96.6z"/>
		<path d="M270.6,78.2H267c-2.5,0-3.7,0.1-3.7,0.3c0,0.2-0.1,0.3-0.3,0.3c-0.3,0-0.6,0.2-0.9,0.6c-0.4,0.5-0.4,0.7-0.2,0.7
			c0.3,0,0.5,0.1,0.5,0.4c0.1,0.3,0.5,0.4,1.1,0.4c0.6,0,1,0.2,1.1,0.7c0.1,0.5,0.1,0.7-0.1,0.8c-0.2,0.1-0.3,0.5-0.3,1.3
			c0,0.7-0.1,1.2-0.4,1.3c-0.2,0.1-0.3,0.3-0.3,0.7c0,0.1,0.1,0.2,0.1,0.4c0,0.5-0.1,0.9-0.3,1.4c-0.2,0.5-0.4,0.8-0.7,0.8
			c-0.4,0.1-0.5,0.4-0.5,0.9c0,0.5-0.1,0.9-0.3,1.1c-0.2,0.2-0.4,0.8-0.4,1.7c-0.1,1-0.3,1.5-0.6,1.5c-0.4,0-0.5,0.2-0.4,0.5
			c0,0.2,0,0.4,0,0.4c-0.1,0.1-0.2,0.1-0.4,0.1c-0.4,0-0.7-0.1-0.9-0.2c-0.5-0.3-0.7-1.2-0.8-2.9c0-0.7-0.1-1.2-0.4-1.4
			c-0.2-0.2-0.3-0.7-0.3-1.6c0-1.3-0.3-2.2-0.9-2.6c-0.2-0.1-0.2-0.3,0.1-0.4c0.1,0,0.2-0.2,0.3-0.4c0.1-0.2,0.1-0.5,0.1-0.7
			c0-0.2-0.1-0.3-0.2-0.3c-0.1,0-0.3-0.3-0.4-0.8c-0.1-0.6-0.4-0.9-0.7-0.9c-0.3-0.1-0.4-0.2-0.4-0.3c0-0.4,0.5-0.5,1.4-0.5
			c1.3,0,1.9-0.2,1.9-0.7c0-0.2,0.1-0.4,0.3-0.4c0.2,0,0.1-0.3-0.3-0.8c-0.4-0.5-0.9-0.8-1.6-0.8s-1.1-0.1-1.2-0.3
			c-0.1-0.1-0.3-0.1-0.7,0.1c-0.4,0.2-0.6,0.2-0.7-0.1c-0.2-0.2-0.3-0.3-0.4-0.1c-0.1,0.2-0.5,0.3-1.1,0.3c-0.4,0-0.6,0-0.8-0.1
			c-0.1-0.1-0.2-0.3-0.3-0.7c-0.1-0.5-0.3-0.8-0.7-0.8c-0.2,0-0.5,0.2-0.8,0.5c-0.4,0.4-0.7,0.5-1.2,0.5c-0.4,0-0.6,0.1-0.6,0.4
			c0,0.3-0.1,0.4-0.3,0.4c-0.2,0-0.3,0.2-0.3,0.6c0,0.5,0.1,0.7,0.3,0.7c0.2,0,0.3,0.1,0.3,0.4c0,0.2,0.3,0.4,1,0.5
			c0.6,0.1,1.1,0.4,1.5,0.9c0.4,0.5,0.7,1.1,0.7,1.6c0,0.5,0.1,1,0.3,1.6c0.2,0.6,0.4,0.9,0.5,0.9c0.1,0,0.2,0.3,0.2,0.8
			c0,0.6,0.2,1.1,0.5,1.4c0.3,0.3,0.5,0.9,0.8,1.8c0.2,0.9,0.3,1.7,0.3,2.5c0,0.9,0.1,1.4,0.4,1.4c0.1,0.1,0.2,0.3,0.2,0.7
			c0,0.4,0.1,0.6,0.2,0.6c0.2,0.1,0.3,0.6,0.3,1.6c0,0.9,0.1,1.4,0.4,1.4c0.2,0,0.4,0.3,0.6,1c0.2,0.7,0.4,1,0.5,1
			c0.2,0,0.3,0.3,0.4,0.8c0.1,0.7,0.5,1,1.3,1c0.1,0,0.4,0,0.6-0.1c0.5-0.1,0.7-0.4,0.7-1.1c0-0.6,0.1-0.9,0.3-0.9
			c0.2,0,0.3-0.3,0.3-0.9c0-0.6,0.1-0.9,0.3-0.9c0.2-0.1,0.3-0.6,0.3-1.5c0-0.9,0.2-1.6,0.6-1.9c0.5-0.5,0.8-0.7,1.1-0.8
			c0.3-0.1,0.4-0.5,0.4-1.3c0-0.8,0.1-1.2,0.4-1.4c0.2-0.1,0.4-0.6,0.6-1.5c0.2-0.9,0.3-1.4,0.4-1.5c0.3-0.2,0.4-0.5,0.4-0.9
			c0-0.4,0.2-0.6,0.7-0.7c0.4,0,0.6-0.3,0.6-0.7c0-0.2-0.1-0.6-0.1-1c0-1,0.2-1.5,0.6-1.5c0.4,0,0.5-0.3,0.5-0.8
			c0-0.5,0.2-0.9,0.6-1.4c0.4-0.4,0.9-0.7,1.6-0.8c0.8-0.2,1.2-0.6,1.2-1.4c0-0.1,0-0.4-0.1-0.7L270.6,78.2z"/>
		<path d="M161.6,785.3c0.1,0,0.2-0.2,0.2-0.5c0-0.2,0-0.4-0.1-0.4c-0.1,0-0.1-0.1-0.1-0.3c0-0.2,0.1-0.4,0.2-0.6
			c0.1-0.3,0.1-0.5-0.2-0.6c-0.2-0.2-0.5-0.3-0.9-0.3c-0.5,0-0.8,0.1-1.1,0.4c-0.3,0.2-0.4,0.3-0.5,0.2c-0.1-0.1-0.4-0.1-0.8,0
			c-0.5,0.1-1.4,0.2-2.6,0.2c-0.9,0-1.4,0-1.5-0.1c-0.1-0.1-0.2,0-0.4,0.2c-0.1,0.1-0.3,0.2-0.4,0.2c-0.2,0-0.4,0-0.7-0.1
			c-0.7-0.2-1.1-0.2-1.3-0.2c-0.1,0-0.2,0-0.2,0c-0.1,0-0.3,0.1-0.4,0.3c-0.1,0.2-0.2,0.4-0.2,0.5c0,0.1,0,0.1,0.1,0.2
			c0,0,0.1,0.2,0.1,0.5c0,0.1,0,0.2-0.1,0.3c-0.1,0-0.2,0.1-0.3,0.1c-0.3,0-0.5,0.1-0.5,0.3c0,0,0,0.1,0.1,0.2
			c0.1,0.1,0.1,0.3,0.1,0.6c0,0.3-0.1,0.4-0.1,0.5c0,0.5,0.2,0.8,0.6,0.8c0.3,0,0.4-0.1,0.4-0.2c0-0.1,0.1-0.2,0.2-0.2
			c0.1,0,0.1,0,0.2-0.1c0,0,0-0.1,0-0.2c0-0.1-0.1-0.2-0.2-0.2c-0.1-0.1-0.1-0.1-0.1-0.2c0,0,0-0.1,0-0.1c0,0,0-0.1,0.1-0.1
			c0,0,0.1,0,0.2-0.1c0.2-0.1,0.2-0.2,0.2-0.3c0,0,0-0.1,0-0.2c0-0.1,0-0.1,0-0.2c0-0.1,0-0.2,0.1-0.2c0.1-0.1,0.1-0.3,0-0.6
			c-0.1-0.3-0.1-0.4,0-0.4c0.1,0,0.1,0.1,0.1,0.2c0,0.1,0.2,0.2,0.5,0.4c0.4,0.1,0.7,0.2,1.1,0.2c0.4,0,0.7,0.1,0.8,0.3
			c0.2,0.2,0.3,0.2,0.5,0.2c0.1,0,0.1,0,0.1,0c0.1,0,0.1,0,0,0.1c-0.3,0.3-0.4,2.2-0.5,5.8c0,0.8-0.1,1.2-0.3,1.4
			c-0.2,0.1-0.3,0.3-0.3,0.4c0,0.1-0.3,0.2-0.8,0.2l-0.7,0.1l-0.1,0.5c0,0,0,0.1,0,0.1c0,0,0,0.1,0,0.1c0,0.2,0.1,0.4,0.4,0.7
			c0.3,0.3,0.5,0.4,0.7,0.4c0.1,0,0.1,0,0.1-0.1s0-0.1-0.1-0.1c-0.1,0-0.1,0-0.1-0.1c0-0.1,0.2-0.1,0.5-0.1c0.1,0,0.4,0,0.8,0
			c0.4,0,0.7,0,0.9,0c0.6,0,0.9-0.1,1.1-0.2c0.1-0.1,0.3-0.2,0.6-0.1c0.2,0.1,0.3,0,0.4-0.1c0.1-0.1,0.2-0.1,0.3-0.1
			c0.1,0,0.3-0.1,0.5-0.2c0.1-0.1,0.2-0.2,0.2-0.3c0-0.1-0.1-0.2-0.2-0.5c-0.2-0.3-0.3-0.4-0.5-0.4c-0.1,0-0.2-0.1-0.2-0.2
			c0-0.1-0.1-0.2-0.3-0.1c0,0-0.1,0-0.1,0c-0.1,0-0.1,0-0.1,0c-0.1,0-0.2,0-0.3-0.1c0-0.1-0.1-0.3-0.1-0.5v-0.4c0-0.5,0-0.8,0-0.9
			c0-0.1,0.1-0.2,0.2-0.2c0.2,0,0.2-0.1,0.2-0.4c0-0.3-0.1-0.5-0.2-0.5c-0.1,0-0.2-0.4-0.2-1.1c0-0.8,0.1-1.2,0.2-1.4
			c0.1-0.1,0.2-0.5,0.2-1.2c0-0.7,0.1-1,0.1-1.1c0.1-0.2,0.5-0.2,1.2-0.2c1,0,1.5,0.1,1.6,0.4c0,0.1,0.1,0.2,0.4,0.5
			c0.2,0.2,0.3,0.4,0.3,0.8c0,0.3,0.1,0.5,0.1,0.5c0,0.1,0.2,0.1,0.4,0.1c0.2,0,0.4,0,0.4-0.1c0-0.1,0.1-0.2,0.3-0.2
			c0.2-0.1,0.3-0.2,0.3-0.4c0-0.2-0.1-0.4-0.2-0.5C161.5,785.4,161.5,785.3,161.6,785.3z"/>
		<path d="M182.3,781.9c-0.2-0.1-0.5-0.1-0.8-0.1c-0.1,0-0.2,0-0.5,0.1c-0.3,0.1-0.5,0.1-0.7,0.1h-0.1H180c-0.2,0-0.5,0-1,0.1
			c-0.4,0-0.7,0.1-0.8,0.1c-0.1,0-0.2,0.1-0.2,0.2c0,0.2,0,0.3-0.1,0.3c-0.1,0-0.1,0-0.1,0.1c0,0.1,0,0.2,0,0.3
			c0,0.1,0.1,0.2,0.2,0.2c0.1,0.1,0.2,0.5,0.2,1.3c0,0.8,0.1,1.2,0.2,1.2c0.1,0,0.1,0.3,0.1,0.8v0.8h-1.3c-0.8,0-1.7,0-2.7-0.1
			l-1.4-0.1v-0.7c0-0.5,0-0.7,0.1-0.7c0.1,0,0.1-0.3,0.2-0.9c0-1.1,0.1-1.6,0.4-1.6c0.1,0,0.2,0,0.2-0.1c0-0.1,0.1-0.2,0.4-0.2
			c0.2,0,0.4-0.1,0.5-0.2c0.1-0.1,0.2-0.2,0.2-0.4c0-0.2-0.1-0.3-0.2-0.4c-0.2-0.1-0.5-0.2-1-0.2c-0.3,0-0.4,0-0.5,0.1
			c0,0-0.5,0.1-1.3,0.1c-0.9,0.1-1.7,0.2-2.4,0.5c-0.1,0-0.2,0.1-0.2,0.2c0,0.1,0.2,0.2,0.6,0.4l0.6,0.3l0,0.8v0.9v0.3
			c0,0.2,0,0.4,0.1,0.4c0.1,0.1,0.2,0.5,0.2,1.1s-0.1,1.1-0.2,1.4c-0.1,0.3-0.2,0.6-0.2,0.8c0,0,0,0,0,0.1c0,0,0,0.1,0,0.1
			c0,0.2,0.1,0.4,0.1,0.6c0,0.5,0,1.1-0.1,1.8c-0.1,0.6-0.2,1-0.2,1.2c-0.1,0.2-0.4,0.3-0.8,0.3c-0.3,0-0.5,0.1-0.6,0.1
			c-0.1,0.1-0.1,0.2-0.1,0.4v0.5l0.7-0.1c0.3-0.1,1-0.1,2.2-0.1h0.7h0.7c1,0,1.6,0,1.6-0.1c0-0.1-0.1-0.3-0.2-0.5
			c-0.2-0.2-0.3-0.3-0.4-0.3h-0.1c-0.2,0.1-0.4,0.1-0.6-0.1c-0.1-0.1-0.2-0.1-0.3-0.2c0-0.1-0.1-0.2-0.1-0.4c0-0.3,0-0.5,0-0.8
			c0-0.9,0.1-1.6,0.1-2.1v-0.8h4.9l0.1,0.4c0,0.2,0.1,0.5,0.1,0.7c0,0.5,0,1.1-0.1,1.7c-0.1,0.6-0.2,1-0.3,1
			c-0.1,0.1-0.4,0.2-0.8,0.3c-0.3,0-0.5,0.1-0.5,0.1c-0.1,0.1-0.1,0.2-0.1,0.4c0,0.3,0.1,0.5,0.3,0.5c0.3,0.1,1.3,0.1,3.1,0.1
			c1.3,0,2,0,2.1-0.1c0.2-0.1,0.3-0.2,0.3-0.4c0-0.2-0.1-0.3-0.2-0.5c-0.1-0.1-0.3-0.2-0.4-0.2c0,0,0,0-0.1,0c0,0,0,0-0.1,0
			c-0.1,0.1-0.3,0.1-0.5,0l-0.4-0.1l0.1-3.5c0-2.3,0.1-3.5,0.2-3.6c0.1,0,0.1-0.3,0.1-0.9c0.1-1.1,0.2-1.6,0.4-1.6
			c0.1,0,0.2,0,0.2-0.1c0-0.1,0.1-0.2,0.4-0.2c0.2,0,0.4-0.1,0.5-0.2c0.2-0.1,0.2-0.3,0.2-0.4C182.6,782.1,182.5,782,182.3,781.9z
			 M171.4,790.8c-0.2-0.1-0.3-0.1-0.3-0.2c0-0.1,0-0.1,0.1-0.1c0.2,0,0.3,0.1,0.4,0.2c0,0,0,0,0,0.1
			C171.6,790.8,171.6,790.8,171.4,790.8z M172.1,790.7c-0.1,0-0.1-0.1-0.1-0.2c0-0.1,0-0.2,0.1-0.2c0.1,0,0.2,0.1,0.2,0.2
			C172.3,790.7,172.2,790.7,172.1,790.7z M172.1,787c-0.1,0-0.2-0.1-0.2-0.3c0-0.3,0.1-0.4,0.2-0.4c0.2,0,0.2,0.1,0.2,0.3
			C172.3,786.9,172.2,787,172.1,787z M179.2,790.8c-0.1,0.1-0.2,0.1-0.4,0c-0.2-0.1-0.3-0.1-0.3-0.2c0-0.1,0.1-0.1,0.2-0.1
			c0.3,0,0.5,0.1,0.5,0.2C179.3,790.7,179.3,790.8,179.2,790.8z M179.6,790.7c-0.1,0-0.2-0.1-0.2-0.2c0-0.1,0.1-0.2,0.2-0.2
			c0.1,0,0.1,0.1,0.1,0.2C179.7,790.7,179.7,790.7,179.6,790.7z M179.6,787c-0.1,0-0.2-0.1-0.2-0.3c0-0.3,0.1-0.4,0.2-0.4
			c0.1,0,0.2,0.1,0.2,0.3C179.8,786.9,179.7,787,179.6,787z"/>
		<path d="M189.6,792.1c0,0,0.1,0,0.1-0.1c0.1-0.2,0.1-0.3,0-0.3c-0.1,0-0.2,0.1-0.2,0.2C189.5,792,189.5,792.1,189.6,792.1z"/>
		<path d="M199.8,790.2c-0.1,0-0.3,0.2-0.5,0.5c-0.3,0.3-0.4,0.6-0.4,0.7c0,0.1-0.1,0.2-0.4,0.2c-0.1,0-0.2,0-0.3,0.1
			c0,0-0.1,0.1-0.1,0.1c0,0,0,0.1,0,0.3c0,0.2-0.1,0.3-0.4,0.3c0,0-0.1,0-0.1,0c-0.1,0-0.1,0-0.2,0c-0.2,0-0.4,0.1-0.6,0.3
			c-0.2,0.2-0.4,0.3-0.6,0.3c-0.1,0-0.2-0.1-0.2-0.2c0-0.1-0.1-0.1-0.4,0c-0.2,0.1-0.6,0.2-1.2,0.2c-0.5,0-0.7,0-0.7-0.1
			c0-0.1-0.1-0.1-0.2-0.1c-0.1,0-0.1-0.1-0.2-0.2c-0.1-0.2-0.1-0.3-0.1-0.4c0-0.1,0-0.2,0-0.3c0-0.2,0-0.4,0-0.6c0-0.3,0-0.5,0-0.8
			c0-0.3,0-0.5,0-0.8c0-0.3,0-0.5,0-0.6v-0.2c0-0.1,0.4-0.1,1.3-0.1c0.7,0,1.2,0.1,1.4,0.2c0.2,0.1,0.4,0.4,0.4,0.8
			c0,0.2,0,0.3,0.1,0.3c0,0,0.1,0,0.2,0c0.1-0.1,0.3-0.1,0.5-0.1c0.1,0,0.2,0,0.3-0.1c0-0.1,0.1-0.2,0.1-0.5c0-0.1,0-0.2,0-0.3
			c0-0.2,0-0.3,0-0.4v-0.2c0-0.3,0-0.6,0.1-0.7c0.1-0.1,0.1-0.3,0-0.4c-0.1-0.1-0.1-0.3,0.1-0.4c0.1-0.1,0.2-0.2,0.2-0.4
			c0-0.3-0.3-0.4-1-0.4c-0.4,0-0.6,0.2-0.6,0.5c0,0.1,0,0.2,0.1,0.3c0,0.2,0,0.4,0,0.5c-0.1,0.1-0.3,0.2-0.9,0.3
			c-0.5,0.1-1,0.1-1.5,0.1h-0.6v-0.6c0-0.4,0.1-0.6,0.2-0.6c0.1,0,0.2-0.1,0.2-0.4c0-0.3-0.1-0.5-0.2-0.9c-0.1-0.2-0.2-0.4-0.1-0.4
			c0-0.1,0.1-0.1,0.2-0.3c0.2-0.1,0.3-0.3,0.2-0.5c0,0,0-0.1,0-0.2c0-0.1,0.1-0.3,0.4-0.3c0.3-0.1,0.7-0.1,1.5-0.2
			c0.7,0,1.1-0.1,1.1-0.1c0.3,0,0.5,0.1,0.6,0.2c0.1,0.2,0.3,0.3,0.5,0.4c0.2,0.1,0.3,0.2,0.3,0.3c0,0.1,0.1,0.2,0.3,0.3
			c0.2,0.1,0.3,0.2,0.3,0.3c0,0.2,0.1,0.3,0.3,0.5c0.2,0.2,0.4,0.2,0.6,0.2h0c0.3,0,0.4-0.2,0.4-0.6c0-0.2-0.1-0.3-0.2-0.5
			c-0.1-0.1-0.2-0.3-0.2-0.5c0-0.3-0.1-0.5-0.2-0.5c-0.1,0-0.1-0.1,0-0.4c0.1-0.1,0.1-0.2,0.1-0.3c0,0-0.1-0.1-0.1-0.1
			c-0.1-0.1-0.2-0.2-0.2-0.3c0-0.1-0.1-0.3-0.3-0.5c-0.2-0.2-0.4-0.3-0.6-0.1c-0.3,0.1-1.8,0.3-4.7,0.4h-0.7c-1.5,0-2.2-0.1-2.3-0.3
			c0-0.1-0.1-0.1-0.2-0.1c-0.1,0-0.2,0-0.2,0.1l0,0.1c0,0.1,0,0.1,0,0.1c0,0,0,0.1,0,0.2c0,0.1,0,0.2,0,0.2c0,0.2-0.1,0.3-0.3,0.3
			c-0.2,0.1-0.3,0.2-0.2,0.5c0.1,0.2,0.1,0.4,0.2,0.5c0.1,0.1,0.2,0.1,0.3,0.1c0.1,0,0.3,0,0.4,0c0.1,0,0.2,0,0.4,0
			c0.3,0,0.5,0.1,0.6,0.4c0.1,0.2,0.1,0.7,0.1,1.4c0,0.9-0.1,1.4-0.2,1.4c-0.1,0-0.1,0.2,0,0.4c0.1,0.2,0.1,0.4,0,0.6
			c-0.1,0.2-0.2,0.3-0.3,0.3c-0.1,0-0.1,0.1,0.1,0.2c0.1,0.1,0.1,0.3,0.1,0.6c0,0.5-0.1,1.5-0.2,2.8l-0.1,0.9h-0.6
			c-0.4,0-0.6,0.1-0.6,0.3c0,0.2-0.1,0.3-0.3,0.3c-0.1,0-0.2,0.1-0.2,0.3c0,0.3,0.1,0.5,0.3,0.6c0.2,0.1,0.3,0.2,0.3,0.4
			c0,0.1,0.2,0.1,0.7,0.1c0.5,0,0.8-0.1,0.9-0.3c0.1-0.1,0.5-0.2,1.2-0.2c0.5,0,0.9,0,1.3,0c0.7,0,1.1,0.1,1.2,0.2
			c0,0.1,0.2,0.1,0.4,0c0.2-0.1,0.7-0.2,1.5-0.2c0.8,0,1.3,0,1.5-0.1c0.2,0,0.3-0.1,0.5-0.3c0.2-0.2,0.3-0.3,0.2-0.5
			c0-0.2,0-0.3,0.1-0.4c0.1-0.1,0.2-0.3,0.2-0.8c0-0.3,0-0.5,0-0.6c0-0.1,0.1-0.1,0.2-0.1c0.2,0,0.3-0.2,0.3-0.5
			c0-0.2-0.1-0.4-0.2-0.6C200.1,790.3,199.9,790.2,199.8,790.2z"/>
		<path d="M229.3,790.2c-0.1,0-0.3,0.2-0.5,0.5c-0.3,0.3-0.4,0.6-0.4,0.7c0,0.1-0.1,0.2-0.4,0.2c-0.1,0-0.2,0-0.3,0.1
			c0,0-0.1,0.1-0.1,0.1c0,0,0,0.1,0,0.3c0,0.2-0.1,0.3-0.4,0.3c0,0-0.1,0-0.1,0c-0.1,0-0.1,0-0.2,0c-0.2,0-0.4,0.1-0.6,0.3
			c-0.2,0.2-0.4,0.3-0.6,0.3c-0.1,0-0.2-0.1-0.2-0.2c0-0.1-0.1-0.1-0.4,0c-0.2,0.1-0.6,0.2-1.2,0.2c-0.5,0-0.7,0-0.7-0.1
			c0-0.1-0.1-0.1-0.2-0.1c-0.1,0-0.1-0.1-0.2-0.2c-0.1-0.2-0.1-0.3-0.1-0.4c0-0.1,0-0.2,0-0.3c0-0.2,0-0.4,0-0.6c0-0.3,0-0.5,0-0.8
			c0-0.3,0-0.5,0-0.8c0-0.3,0-0.5,0-0.6v-0.2c0-0.1,0.4-0.1,1.3-0.1c0.7,0,1.2,0.1,1.4,0.2c0.2,0.1,0.4,0.4,0.4,0.8
			c0,0.2,0,0.3,0.1,0.3c0,0,0.1,0,0.2,0c0.1-0.1,0.3-0.1,0.5-0.1c0.1,0,0.2,0,0.3-0.1c0-0.1,0.1-0.2,0.1-0.5c0-0.1,0-0.2,0-0.3
			c0-0.2,0-0.3,0-0.4v-0.2c0-0.3,0-0.6,0.1-0.7c0.1-0.1,0.1-0.3,0-0.4c-0.1-0.1-0.1-0.3,0.1-0.4c0.1-0.1,0.2-0.2,0.2-0.4
			c0-0.3-0.3-0.4-1-0.4c-0.4,0-0.6,0.2-0.6,0.5c0,0.1,0,0.2,0.1,0.3c0,0.2,0,0.4,0,0.5c-0.1,0.1-0.3,0.2-0.9,0.3
			c-0.5,0.1-1,0.1-1.5,0.1h-0.6v-0.6c0-0.4,0.1-0.6,0.2-0.6c0.1,0,0.2-0.1,0.2-0.4c0-0.3-0.1-0.5-0.2-0.9c-0.1-0.2-0.2-0.4-0.1-0.4
			c0-0.1,0.1-0.1,0.2-0.3c0.2-0.1,0.3-0.3,0.2-0.5c0,0,0-0.1,0-0.2c0-0.1,0.1-0.3,0.4-0.3c0.3-0.1,0.7-0.1,1.5-0.2
			c0.7,0,1.1-0.1,1.1-0.1c0.3,0,0.5,0.1,0.6,0.2c0.1,0.2,0.3,0.3,0.5,0.4c0.2,0.1,0.3,0.2,0.3,0.3c0,0.1,0.1,0.2,0.3,0.3
			c0.2,0.1,0.3,0.2,0.3,0.3c0,0.2,0.1,0.3,0.3,0.5c0.2,0.2,0.4,0.2,0.6,0.2h0c0.3,0,0.4-0.2,0.4-0.6c0-0.2-0.1-0.3-0.2-0.5
			c-0.1-0.1-0.2-0.3-0.2-0.5c0-0.3-0.1-0.5-0.2-0.5c-0.1,0-0.1-0.1,0-0.4c0.1-0.1,0.1-0.2,0.1-0.3c0,0-0.1-0.1-0.1-0.1
			c-0.1-0.1-0.2-0.2-0.2-0.3c0-0.1-0.1-0.3-0.3-0.5c-0.2-0.2-0.4-0.3-0.6-0.1c-0.3,0.1-1.8,0.3-4.7,0.4h-0.7c-1.5,0-2.2-0.1-2.3-0.3
			c0-0.1-0.1-0.1-0.2-0.1c-0.1,0-0.2,0-0.2,0.1l0,0.1c0,0.1,0,0.1,0,0.1c0,0,0,0.1,0,0.2c0,0.1,0,0.2,0,0.2c0,0.2-0.1,0.3-0.3,0.3
			c-0.2,0.1-0.3,0.2-0.2,0.5c0.1,0.2,0.1,0.4,0.2,0.5s0.2,0.1,0.3,0.1c0.1,0,0.3,0,0.4,0c0.1,0,0.2,0,0.4,0c0.3,0,0.5,0.1,0.6,0.4
			c0.1,0.2,0.1,0.7,0.1,1.4c0,0.9-0.1,1.4-0.2,1.4c-0.1,0-0.1,0.2,0,0.4c0.1,0.2,0.1,0.4,0,0.6c-0.1,0.2-0.2,0.3-0.3,0.3
			c-0.1,0-0.1,0.1,0.1,0.2c0.1,0.1,0.1,0.3,0.1,0.6c0,0.5-0.1,1.5-0.2,2.8l-0.1,0.9h-0.6c-0.4,0-0.6,0.1-0.6,0.3
			c0,0.2-0.1,0.3-0.3,0.3c-0.1,0-0.2,0.1-0.2,0.3c0,0.3,0.1,0.5,0.3,0.6c0.2,0.1,0.3,0.2,0.3,0.4c0,0.1,0.2,0.1,0.7,0.1
			c0.5,0,0.8-0.1,0.9-0.3c0.1-0.1,0.5-0.2,1.2-0.2c0.5,0,0.9,0,1.3,0c0.7,0,1.1,0.1,1.2,0.2c0,0.1,0.2,0.1,0.4,0
			c0.2-0.1,0.7-0.2,1.5-0.2c0.8,0,1.3,0,1.5-0.1c0.2,0,0.3-0.1,0.5-0.3c0.2-0.2,0.3-0.3,0.2-0.5c0-0.2,0-0.3,0.1-0.4
			c0.1-0.1,0.2-0.3,0.2-0.8c0-0.3,0-0.5,0-0.6c0-0.1,0.1-0.1,0.2-0.1c0.2,0,0.3-0.2,0.3-0.5c0-0.2-0.1-0.4-0.2-0.6
			C229.5,790.3,229.4,790.2,229.3,790.2z"/>
		<path d="M219.1,792.1c0,0,0.1,0,0.1-0.1c0.1-0.2,0.1-0.3,0-0.3c-0.1,0-0.2,0.1-0.2,0.2C218.9,792,219,792.1,219.1,792.1z"/>
		<path d="M241.8,800.6c-0.1,0-0.2,0.1-0.2,0.2c0,0.1,0.1,0.2,0.2,0.2s0.2-0.1,0.2-0.2C242,800.7,241.9,800.6,241.8,800.6z"/>
		<path d="M249.8,782.6c-0.3,0-0.5,0-0.7,0c-0.4,0-0.7,0.1-0.7,0.1c-0.1,0-0.2,0-0.2,0s-0.1-0.1-0.1-0.1c0,0,0-0.1-0.1-0.2
			c0-0.1,0-0.2,0-0.2c0-0.1,0-0.1,0,0c0,0,0,0.1,0,0.2c0,0.2-0.2,0.4-0.4,0.4c-0.2,0.1-0.4,0.2-0.4,0.4c0,0.1-0.1,0.3-0.2,0.4
			c-0.1,0.1-0.2,0.3-0.2,0.4c0,0.2-0.1,0.4-0.2,0.6c-0.1,0.2-0.2,0.4-0.2,0.6c0,0.2,0,0.3-0.1,0.3c-0.1,0-0.2,0.1-0.2,0.4
			c0,0.2-0.1,0.4-0.2,0.5c-0.1,0.1-0.2,0.2-0.3,0.5c-0.1,0.3-0.1,0.4-0.2,0.4c-0.1,0-0.1,0.1-0.1,0.3c0,0.2,0,0.4-0.2,0.5
			c-0.2,0.2-0.3,0.5-0.3,0.9c-0.1,0.4-0.2,0.6-0.4,0.6c-0.2,0-0.3,0.1-0.3,0.2c0,0.1,0,0.2-0.1,0.2c-0.1,0-0.1,0.1-0.1,0.3
			c0,0.2-0.1,0.3-0.3,0.3c-0.2,0-0.3-0.2-0.3-0.5c0-0.3-0.1-0.5-0.2-0.5s-0.2-0.1-0.2-0.3c0-0.2,0-0.3-0.1-0.3
			c-0.1,0-0.2-0.2-0.2-0.6c0-0.4-0.1-0.6-0.2-0.6c-0.1-0.1-0.2-0.2-0.2-0.4c0-0.2,0-0.3-0.1-0.3c-0.1,0-0.2-0.2-0.2-0.5
			s-0.1-0.6-0.3-0.7c-0.2-0.2-0.3-0.5-0.3-0.9c0-0.5,0-0.7-0.1-0.7s-0.2-0.3-0.2-0.8c-0.1-0.6-0.2-0.9-0.4-0.9
			c-0.2,0-0.4-0.1-0.5-0.3c-0.1-0.2-0.3-0.3-0.4-0.3c-0.2,0-0.3-0.1-0.4-0.3l-0.1-0.2l0,0.2c0,0.2-0.1,0.3-0.4,0.3
			c-0.3,0-0.4,0-0.4,0.1c0,0.1-0.1,0.1-0.2,0.1c-0.1,0-0.2,0.1-0.3,0.2c-0.1,0.1-0.2,0.2-0.4,0.1c-0.3-0.1-0.4,0-0.4,0.1
			c0,0.1,0.1,0.3,0.3,0.4c0.2,0.2,0.4,0.3,0.5,0.3c0.3,0.1,0.4,0.7,0.4,1.8c0,0.6,0,1,0,1.4c0,0.3,0,0.7,0,1.1
			c0,0.6,0.1,0.9,0.2,1.1c0.1,0.1,0.1,0.2,0,0.2c-0.2,0-0.2,0.1-0.2,0.2c0,0.1,0,0.2-0.1,0.5c-0.1,0.8-0.2,1.3-0.2,1.5
			c0,0.2,0,0.3,0.1,0.3c0.1,0,0.1,0.1,0.1,0.2c0,0.1,0,0.2-0.1,0.2c-0.1,0-0.1,0.1-0.2,0.3c-0.1,0.2-0.3,0.3-0.6,0.4
			c-0.3,0.1-0.5,0.2-0.5,0.5c0,0.1,0,0.2,0.1,0.4c0,0.2,0.1,0.3,0.2,0.3c0.1,0,0.4,0,0.8,0c0.6,0,0.9,0,0.9-0.1s0.3-0.1,0.8-0.1
			c0.6,0,1-0.1,1-0.4c0-0.1,0-0.2,0-0.2c-0.1-0.2-0.3-0.3-0.6-0.3c-0.4,0-0.6-0.1-0.6-0.2c0-0.1-0.1-1.3-0.2-3.7c0-0.7,0-1.5,0-2.4
			c0-0.8,0.1-1.2,0.2-1.2c0.1,0,0.2,0.1,0.2,0.2c0,0.1,0.1,0.2,0.2,0.2c0.1,0,0.1,0.1,0.1,0.4c0,0.3,0,0.4,0.1,0.4
			c0.1,0,0.1,0.1,0.2,0.4c0.1,0.2,0.2,0.5,0.3,0.9c0.2,0.4,0.3,0.6,0.4,0.6c0,0,0.1,0.1,0.1,0.4s0.1,0.5,0.2,0.7
			c0.1,0.2,0.1,0.4,0.1,0.4c0.1,0,0.1,0.2,0.2,0.5c0.1,0.3,0.2,0.5,0.2,0.5s0.1,0.2,0.2,0.5c0,0.2,0.1,0.5,0.3,0.9
			c0.2,0.4,0.3,0.7,0.3,0.9c0,0.3,0.1,0.4,0.4,0.5h0.1c0.4,0,0.7-0.3,0.8-1c0.1-0.3,0.1-0.5,0.2-0.6c0.1-0.1,0.1-0.2,0.1-0.4
			c0-0.2,0.1-0.3,0.4-0.4c0.2-0.1,0.4-0.3,0.4-0.6c0-0.2,0.1-0.4,0.2-0.6c0.1-0.2,0.2-0.4,0.2-0.7c0-0.2,0-0.3,0-0.4
			c0-0.1,0.1-0.1,0.1,0c0.1,0,0.1,0,0.1,0c0,0,0-0.1,0-0.2c0-0.2,0.1-0.3,0.2-0.4c0.1-0.1,0.2-0.3,0.3-0.6c0.1-0.3,0.2-0.5,0.2-0.5
			c0.1,0,0.1-0.1,0.1-0.4c0-0.2,0.1-0.4,0.2-0.4c0.1-0.1,0.2-0.2,0.2-0.3c0-0.1,0.1-0.3,0.2-0.4c0.1-0.1,0.2-0.2,0.3-0.2
			c0.2,0,0.2,0.1,0.2,0.4c0,0.1,0,0.2,0,0.2c0,0.3-0.1,0.7-0.1,1.4v0.7c0,0.2,0,0.5,0,0.9c0,0.5,0,0.8-0.1,0.8
			c-0.1,0-0.2,0.5-0.2,1.4l0,1.4l-0.8,0.1c-0.5,0-0.7,0.1-0.8,0.3c0,0.1-0.1,0.2-0.1,0.2c0,0.2,0.2,0.3,0.6,0.3c0.3,0,0.5,0,0.5,0.1
			s0.7,0.1,2.2,0.1c0.9,0,1.3,0,1.3-0.1s0.1-0.1,0.2-0.1s0.2-0.1,0.2-0.4c0-0.3-0.1-0.5-0.3-0.6c-0.1,0-0.1,0-0.2,0
			c-0.1,0-0.1,0-0.2,0c-0.1,0-0.1,0-0.2,0c-0.1,0-0.2,0-0.2,0c-0.1,0-0.2-0.1-0.2-0.2c0-0.1-0.1-0.3-0.1-0.6c0-0.5,0.1-0.8,0.2-0.9
			c0.1,0,0.1-0.3,0.1-0.6c0-0.4,0-0.5-0.1-0.5c-0.1,0-0.2-0.1-0.2-0.4c0-0.3,0.1-0.5,0.2-0.6c0.1-0.1,0.1-0.1,0-0.2
			c-0.1-0.1-0.2-0.7-0.2-1.9c0-1.1,0.1-1.7,0.2-1.7c0.1,0,0.1-0.2,0.1-0.5c0-0.3,0.1-0.4,0.2-0.5c0.1-0.1,0.3-0.1,0.7-0.1
			c0.2,0,0.3,0,0.4-0.1c0-0.1,0.1-0.2,0.1-0.5c0-0.3-0.1-0.5-0.2-0.6C250.4,782.6,250.2,782.6,249.8,782.6z M242.3,789.4
			c-0.1,0-0.1,0-0.1-0.1c0-0.1,0-0.2,0.1-0.2c0.1,0,0.1,0.1,0.1,0.2C242.4,789.4,242.4,789.4,242.3,789.4z M247.8,786.6
			c-0.1,0-0.1-0.1-0.1-0.2c0-0.1,0.1-0.1,0.1-0.1c0.1,0,0.2,0.1,0.2,0.2C247.9,786.6,247.9,786.6,247.8,786.6z"/>
		<path d="M267.4,782.4c-0.1,0-0.2,0-0.2-0.1s-0.1-0.2-0.4-0.3c-0.3-0.1-0.4-0.3-0.5-0.5l-0.2-0.3c-0.1-0.1-0.2-0.1-0.2,0.1
			c0,0.1-0.3,0.1-0.8,0.1c-0.6,0-0.9,0-0.9-0.1c0-0.1-0.1-0.1-0.3-0.1c-0.5,0-0.8-0.1-0.8-0.4c0-0.1-0.1-0.2-0.3-0.2
			s-0.3,0.1-0.2,0.3c0,0,0,0,0,0.1c0,0,0,0,0,0.1c0,0.1-0.6,0.2-1.8,0.2h-1.8l-0.5,0.5c-0.3,0.3-0.5,0.5-0.5,0.7
			c0,0.2,0.2,0.4,0.7,0.4c0.2,0,0.3,0,0.3,0.1s0,0.1,0.1,0.1c0.2,0,0.4,0.2,0.6,0.5c0.2,0.3,0.3,0.7,0.3,1.2c0,0.4,0.1,0.6,0.1,0.6
			c0,0.2-0.1,0.4-0.2,0.5c-0.2,0.1-0.2,0.2-0.1,0.3c0.1,0.1,0.2,0.3,0.2,0.7c0,0.3-0.1,0.5-0.2,0.5c-0.2,0-0.2,0,0,0.1
			c0.1,0.1,0.1,0.3,0,0.6c-0.1,0.3-0.1,0.5,0.1,0.6c0.1,0.1,0.1,0.2,0.1,0.3c0,0.2-0.1,0.4-0.2,0.5c-0.1,0.1-0.1,0.6-0.2,1.6l0,1.5
			l-0.4,0.2c-0.2,0.1-0.5,0.2-1.1,0.2c-0.3,0-0.5,0.1-0.5,0.1c-0.1,0.1-0.1,0.2-0.1,0.4c0,0.2,0.2,0.5,0.6,0.8
			c0.2,0.1,0.3,0.2,0.5,0.2c0.2,0,0.3-0.1,0.3-0.2c0.1-0.1,0.8-0.2,2.1-0.2c1.4-0.1,2.1-0.1,2.2-0.3c0.1-0.1,0.2-0.2,0.3-0.2
			c0.1,0,0.2-0.1,0.2-0.2c0-0.1-0.1-0.2-0.4-0.2c-0.3,0-0.4-0.1-0.5-0.3c0-0.2-0.2-0.3-0.5-0.4c-0.4-0.1-0.5-0.2-0.5-0.4
			c0-0.1,0-0.2,0.1-0.3c0.2-0.2,0.2-0.3,0.1-0.4c-0.1,0-0.2-0.6-0.2-1.6c0-0.3,0-0.6,0-1c0-0.3,0-0.4,0.1-0.5c0-0.1,0.1-0.1,0.2-0.1
			c0.2,0,0.5,0,0.8,0.1c0.3,0.1,0.5,0.2,0.6,0.3c0.1,0.1,0.7,0.2,1.7,0.2c0.8,0,1.2,0,1.2-0.1c0.1-0.1,0-0.2-0.2-0.3
			c-0.2-0.1-0.4-0.2-0.5-0.4c-0.1-0.1-0.2-0.2-0.2-0.2c0,0,0.1-0.1,0.3-0.1c0.3-0.1,0.4-0.1,0.4-0.2s0.1-0.2,0.4-0.3
			c0.3-0.1,0.4-0.2,0.4-0.4c0-0.5,0.1-0.7,0.3-0.7c0.1,0,0.2-0.1,0.4-0.2c0.2-0.2,0.2-0.7,0.2-1.5c0-1-0.1-1.5-0.3-1.7
			C267.7,782.5,267.6,782.4,267.4,782.4z M265.8,786.1c0,0-0.1,0.1-0.4,0.1h-0.1c0,0-0.1,0-0.1,0c-0.1,0-0.1,0,0,0.1
			c0.1,0.1,0.2,0.1,0.2,0.2c0,0.1-0.1,0.3-0.3,0.5c-0.2,0.2-0.5,0.3-0.7,0.3c-0.3,0-0.6,0.1-1.1,0.2c-0.1,0-0.2,0-0.3,0
			c-0.2,0-0.4-0.1-0.7-0.3c-0.2-0.2-0.3-0.3-0.4-0.3c0-0.1,0-0.1,0.1-0.2c0.1-0.1,0.2-0.7,0.2-1.6v-1.2c0-0.3,0.1-0.5,0.2-0.7
			c0.1-0.2,0.3-0.4,0.4-0.4h0.1l0.4,0.1c0.3,0,0.5,0.1,0.8,0.1c0.2,0.1,0.4,0.1,0.4,0.1c0,0.1,0.1,0.1,0.4,0.2
			c0.3,0.1,0.4,0.2,0.4,0.3c0,0.1,0.1,0.3,0.2,0.4c0.1,0.1,0.2,0.2,0.1,0.3c-0.1,0.1-0.1,0.3,0.1,0.6c0.1,0.2,0.2,0.4,0.2,0.6
			C265.9,785.3,265.9,785.6,265.8,786.1z"/>
		<path d="M259.8,779.6c0-0.1-0.1-0.1-0.3-0.1s-0.3,0-0.3,0.1c0,0.1,0.1,0.2,0.3,0.2S259.8,779.7,259.8,779.6z"/>
		<path d="M264.2,780.6C264.2,780.6,264.3,780.5,264.2,780.6c0.1-0.1,0-0.1-0.2-0.1c-0.2,0-0.3,0.1-0.3,0.2
			C263.8,780.7,263.9,780.7,264.2,780.6C264.1,780.6,264.1,780.6,264.2,780.6z"/>
		<path d="M275.1,792.1c0,0,0.1,0,0.1-0.1c0.1-0.2,0.1-0.3,0-0.3c-0.1,0-0.2,0.1-0.2,0.2C275,792,275,792.1,275.1,792.1z"/>
		<path d="M285.3,790.2c-0.1,0-0.3,0.2-0.5,0.5c-0.3,0.3-0.4,0.6-0.4,0.7c0,0.1-0.1,0.2-0.4,0.2c-0.1,0-0.2,0-0.3,0.1
			c0,0-0.1,0.1-0.1,0.1c0,0,0,0.1,0,0.3c0,0.2-0.1,0.3-0.4,0.3c0,0-0.1,0-0.1,0c-0.1,0-0.1,0-0.2,0c-0.2,0-0.4,0.1-0.6,0.3
			c-0.2,0.2-0.4,0.3-0.6,0.3c-0.1,0-0.2-0.1-0.2-0.2c0-0.1-0.1-0.1-0.4,0c-0.2,0.1-0.6,0.2-1.2,0.2c-0.5,0-0.7,0-0.7-0.1
			c0-0.1-0.1-0.1-0.2-0.1c-0.1,0-0.1-0.1-0.2-0.2c-0.1-0.2-0.1-0.3-0.1-0.4c0-0.1,0-0.2,0-0.3c0-0.2,0-0.4,0-0.6c0-0.3,0-0.5,0-0.8
			c0-0.3,0-0.5,0-0.8c0-0.3,0-0.5,0-0.6v-0.2c0-0.1,0.4-0.1,1.3-0.1c0.7,0,1.2,0.1,1.4,0.2c0.2,0.1,0.4,0.4,0.4,0.8
			c0,0.2,0,0.3,0.1,0.3c0,0,0.1,0,0.2,0c0.1-0.1,0.3-0.1,0.5-0.1c0.1,0,0.2,0,0.3-0.1c0-0.1,0.1-0.2,0.1-0.5c0-0.1,0-0.2,0-0.3
			c0-0.2,0-0.3,0-0.4v-0.2c0-0.3,0-0.6,0.1-0.7c0.1-0.1,0.1-0.3,0-0.4c-0.1-0.1-0.1-0.3,0.1-0.4c0.1-0.1,0.2-0.2,0.2-0.4
			c0-0.3-0.3-0.4-1-0.4c-0.4,0-0.6,0.2-0.6,0.5c0,0.1,0,0.2,0.1,0.3c0,0.2,0,0.4,0,0.5c-0.1,0.1-0.3,0.2-0.9,0.3
			c-0.5,0.1-1,0.1-1.5,0.1h-0.6v-0.6c0-0.4,0.1-0.6,0.2-0.6c0.1,0,0.2-0.1,0.2-0.4c0-0.3-0.1-0.5-0.2-0.9c-0.1-0.2-0.2-0.4-0.1-0.4
			c0-0.1,0.1-0.1,0.2-0.3c0.2-0.1,0.3-0.3,0.2-0.5c0,0,0-0.1,0-0.2c0-0.1,0.1-0.3,0.4-0.3c0.3-0.1,0.7-0.1,1.5-0.2
			c0.7,0,1.1-0.1,1.1-0.1c0.3,0,0.5,0.1,0.6,0.2c0.1,0.2,0.3,0.3,0.5,0.4c0.2,0.1,0.3,0.2,0.3,0.3c0,0.1,0.1,0.2,0.3,0.3
			c0.2,0.1,0.3,0.2,0.3,0.3c0,0.2,0.1,0.3,0.3,0.5c0.2,0.2,0.4,0.2,0.6,0.2h0c0.3,0,0.4-0.2,0.4-0.6c0-0.2-0.1-0.3-0.2-0.5
			c-0.1-0.1-0.2-0.3-0.2-0.5c0-0.3-0.1-0.5-0.2-0.5c-0.1,0-0.1-0.1,0-0.4c0.1-0.1,0.1-0.2,0.1-0.3c0,0-0.1-0.1-0.1-0.1
			c-0.1-0.1-0.2-0.2-0.2-0.3c0-0.1-0.1-0.3-0.3-0.5c-0.2-0.2-0.4-0.3-0.6-0.1c-0.3,0.1-1.8,0.3-4.7,0.4h-0.7c-1.5,0-2.2-0.1-2.3-0.3
			c0-0.1-0.1-0.1-0.2-0.1c-0.1,0-0.2,0-0.2,0.1l0,0.1c0,0.1,0,0.1,0,0.1c0,0,0,0.1,0,0.2c0,0.1,0,0.2,0,0.2c0,0.2-0.1,0.3-0.3,0.3
			c-0.2,0.1-0.3,0.2-0.2,0.5c0.1,0.2,0.1,0.4,0.2,0.5s0.2,0.1,0.3,0.1c0.1,0,0.3,0,0.4,0c0.1,0,0.2,0,0.4,0c0.3,0,0.5,0.1,0.6,0.4
			c0.1,0.2,0.1,0.7,0.1,1.4c0,0.9-0.1,1.4-0.2,1.4c-0.1,0-0.1,0.2,0,0.4c0.1,0.2,0.1,0.4,0,0.6c-0.1,0.2-0.2,0.3-0.3,0.3
			c-0.1,0-0.1,0.1,0.1,0.2c0.1,0.1,0.1,0.3,0.1,0.6c0,0.5-0.1,1.5-0.2,2.8l-0.1,0.9h-0.6c-0.4,0-0.6,0.1-0.6,0.3
			c0,0.2-0.1,0.3-0.3,0.3c-0.1,0-0.2,0.1-0.2,0.3c0,0.3,0.1,0.5,0.3,0.6c0.2,0.1,0.3,0.2,0.3,0.4c0,0.1,0.2,0.1,0.7,0.1
			c0.5,0,0.8-0.1,0.9-0.3c0.1-0.1,0.5-0.2,1.2-0.2c0.5,0,0.9,0,1.3,0c0.7,0,1.1,0.1,1.2,0.2c0,0.1,0.2,0.1,0.4,0
			c0.2-0.1,0.7-0.2,1.5-0.2c0.8,0,1.3,0,1.5-0.1c0.2,0,0.3-0.1,0.5-0.3c0.2-0.2,0.3-0.3,0.2-0.5c0-0.2,0-0.3,0.1-0.4
			c0.1-0.1,0.2-0.3,0.2-0.8c0-0.3,0-0.5,0-0.6c0-0.1,0.1-0.1,0.2-0.1c0.2,0,0.3-0.2,0.3-0.5c0-0.2-0.1-0.4-0.2-0.6
			C285.6,790.3,285.4,790.2,285.3,790.2z"/>
		<path d="M294.6,779.5c0.2,0,0.3-0.1,0.3-0.2c0-0.1-0.1-0.1-0.3-0.1c-0.2,0-0.3,0-0.3,0.1C294.3,779.5,294.4,779.5,294.6,779.5z"/>
		<path d="M299.2,780.4C299.2,780.4,299.2,780.4,299.2,780.4c0.1-0.1,0.2-0.1,0.1-0.1c0,0-0.1,0-0.3,0c-0.2,0-0.3,0.1-0.3,0.2
			C298.9,780.5,299,780.5,299.2,780.4z"/>
		<path d="M306.2,792.7c-0.1,0-0.2-0.1-0.3-0.4c-0.1-0.2-0.3-0.4-0.5-0.4c-0.2,0-0.4-0.1-0.6-0.2c-0.2-0.1-0.4-0.2-0.4-0.4
			c-0.1-0.1-0.1-0.2-0.3-0.2c-0.1,0-0.3-0.1-0.6-0.4c-0.2-0.3-0.4-0.6-0.6-0.9c-0.1-0.3-0.4-0.6-0.8-1.1c-0.4-0.5-0.7-0.7-0.8-0.7
			c-0.1,0-0.2-0.1-0.4-0.3c-0.1-0.1-0.2-0.2-0.1-0.3c0,0,0.1-0.1,0.3-0.2c0.8-0.3,1.2-0.6,1.2-0.9c0-0.5,0.1-0.7,0.3-0.7
			c0.1,0,0.2-0.1,0.4-0.2c0.2-0.2,0.2-0.7,0.2-1.5c0-1-0.1-1.5-0.3-1.7c-0.1-0.1-0.2-0.2-0.4-0.2c-0.1,0-0.2,0-0.2-0.1
			c0-0.1-0.1-0.2-0.4-0.3c-0.3-0.1-0.4-0.3-0.5-0.5l-0.2-0.3c-0.1-0.1-0.2-0.1-0.2,0.1c0,0.1-0.3,0.1-0.8,0.1c-0.6,0-0.9,0-0.9-0.1
			c0-0.1-0.1-0.1-0.4-0.1s-0.5-0.1-0.6-0.3c-0.2-0.2-0.3-0.3-0.4-0.3c-0.1,0-0.2,0.1-0.1,0.3c0,0,0,0,0,0.1v0.1
			c0,0.1-0.6,0.2-1.8,0.2h-1.9l-0.5,0.5c-0.3,0.3-0.5,0.6-0.5,0.7c0,0.1,0.2,0.2,0.5,0.3c0.3,0.1,0.5,0.1,0.5,0.2
			c0,0.1,0,0.1,0.1,0.1c0.2,0,0.4,0.2,0.6,0.5c0.2,0.3,0.3,0.7,0.3,1.2c0,0.4,0.1,0.6,0.1,0.6c0,0.2-0.1,0.4-0.2,0.5
			c-0.2,0.1-0.2,0.2-0.1,0.3c0.1,0.1,0.2,0.3,0.2,0.7c0,0.3-0.1,0.5-0.2,0.5c-0.1,0-0.2,0,0,0.1c0.1,0.1,0.2,0.2,0.2,0.4
			c0,0.2-0.1,0.4-0.2,0.5c-0.1,0.1-0.1,0.3,0.1,0.4c0.1,0.1,0.2,0.3,0.2,0.4c0,0.1-0.1,0.3-0.2,0.4c-0.2,0.2-0.3,0.7-0.3,1.6
			c0,0.7,0,1.1-0.1,1.2c0,0.1-0.1,0.2-0.3,0.3c-0.2,0.1-0.3,0.1-0.3,0.2c0,0.1-0.3,0.1-0.8,0.1c-0.4,0-0.6,0.1-0.7,0.1
			c-0.1,0.1-0.1,0.2-0.1,0.5c0,0.2,0.2,0.5,0.6,0.8c0.2,0.1,0.3,0.2,0.5,0.2c0.2,0,0.3-0.1,0.3-0.2c0.1-0.1,0.8-0.2,2.1-0.2
			c1.3,0,2.1-0.1,2.2-0.3c0.1-0.1,0.2-0.2,0.3-0.2c0.1,0,0.2-0.1,0.2-0.2c0-0.1-0.1-0.2-0.4-0.2c-0.3,0-0.4-0.1-0.5-0.3
			c0-0.2-0.2-0.3-0.5-0.4c-0.4-0.1-0.5-0.2-0.5-0.4c0-0.1,0-0.2,0.1-0.3c0.2-0.2,0.2-0.3,0.1-0.4c-0.1,0-0.2-0.6-0.2-1.6
			c0-0.3,0-0.6,0-1c0-0.3,0-0.4,0.1-0.5c0-0.1,0.1-0.1,0.2-0.1c0.5,0,1,0.2,1.5,0.5c0.5,0.4,0.8,0.7,0.8,1c0,0.2,0.1,0.3,0.2,0.3
			s0.2,0.1,0.2,0.4c0,0.5,0.3,0.8,0.8,1c0.2,0.1,0.4,0.3,0.5,0.7c0.1,0.4,0.3,0.8,0.7,1.2l0.6,0.7l0.9-0.1c0.1,0,0.3,0,0.6-0.1
			c0.3,0,0.6,0,0.8-0.1c0.2,0,0.4-0.1,0.7-0.1c0.3-0.1,0.4-0.1,0.6-0.2c0.1-0.1,0.2-0.2,0.2-0.3
			C306.3,792.8,306.3,792.7,306.2,792.7z M300.5,785.9c-0.1,0-0.2,0-0.2,0.1c-0.1,0-0.1,0,0,0.1c0.2,0,0.2,0.1,0.2,0.2
			c0,0.1-0.1,0.3-0.4,0.4c-0.2,0.2-0.5,0.3-0.7,0.3c-0.3,0-0.6,0.1-1.1,0.2c-0.1,0-0.2,0-0.3,0c-0.2,0-0.4-0.1-0.7-0.3
			c-0.2-0.2-0.3-0.3-0.4-0.3c0-0.1,0-0.1,0.1-0.2c0.1-0.1,0.2-0.7,0.2-1.6v-1.2c0-0.3,0.1-0.5,0.2-0.7c0.1-0.2,0.3-0.4,0.4-0.4h0.1
			l0.4,0.1c0.3,0,0.5,0.1,0.8,0.1c0.2,0.1,0.4,0.1,0.4,0.1c0,0.1,0.1,0.1,0.4,0.2c0.3,0.1,0.4,0.2,0.4,0.3c0,0.1,0.1,0.3,0.2,0.4
			c0.1,0.1,0.2,0.2,0.1,0.3c-0.1,0.1-0.1,0.3,0.1,0.6c0.1,0.2,0.2,0.5,0.2,0.8v0.1c0,0.2-0.1,0.4-0.1,0.4
			C300.9,785.8,300.7,785.9,300.5,785.9z"/>
		<path d="M327.7,791.9c-0.4,0-0.7,0-0.7,0.1c0,0-0.1,0.1-0.1,0.1c0,0.2,0.3,0.2,0.8,0.2c0.4,0,0.6-0.1,0.6-0.2
			C328.3,792,328.1,791.9,327.7,791.9z"/>
		<path d="M325.9,785.2c0-0.3,0-0.5-0.1-0.5c-0.1,0-0.1-0.1-0.1-0.4c0-0.3-0.1-0.4-0.2-0.4c-0.2,0-0.3-0.1-0.4-0.4
			c-0.1-0.2-0.2-0.3-0.4-0.4c-0.1-0.1-0.2-0.2-0.2-0.4s-0.1-0.3-0.4-0.3c-0.7,0-1-0.1-1-0.4c0-0.1-0.1-0.2-0.2-0.2
			c-0.1,0-0.2-0.1-0.2-0.2c0-0.1-0.1-0.1-0.4-0.1c-0.2,0-0.3-0.1-0.4-0.2c-0.1-0.1-0.6-0.2-1.5-0.2c-1,0-1.6,0.1-1.7,0.2
			c-0.1,0.1-0.3,0.2-0.4,0.2c-0.2,0-0.3,0.1-0.4,0.4c-0.1,0.2-0.3,0.4-0.6,0.4c-0.4,0-0.8,0.1-1.2,0.2c-0.5,0.1-0.7,0.3-0.8,0.5
			c-0.1,0.3-0.3,0.5-0.5,0.8c-0.3,0.3-0.4,0.5-0.4,0.6c0,0.1-0.1,0.1-0.2,0.1c-0.1,0-0.2,0.1-0.3,0.4c-0.1,0.3-0.2,0.6-0.3,0.8
			c-0.2,0.3-0.2,0.9-0.2,1.9c0,1.3,0.1,2.3,0.4,3c0.2,0.6,0.4,1.2,0.7,1.6s0.5,0.7,0.6,0.7c0.1,0.1,0.2,0.2,0.3,0.4
			c0.1,0.2,0.2,0.3,0.4,0.3c0.3,0,0.4,0,0.4,0.1c0,0.1,0.1,0.1,0.3,0.1c0.2,0,0.3,0.1,0.3,0.4c0,0.3,0.1,0.4,0.2,0.4
			c0.1,0,0.2-0.1,0.3-0.2c0.1-0.1,0.2-0.1,0.4,0c0.2,0.1,0.9,0.2,2.3,0.2c1.2,0,1.8-0.1,1.8-0.2c0-0.1,0.3-0.2,0.8-0.2
			c0.5,0,0.7-0.1,0.7-0.2c0-0.1,0.1-0.2,0.2-0.3c0.2-0.1,0.4-0.2,0.5-0.4c0.2-0.2,0.4-0.3,0.5-0.3c0.1,0,0.2-0.1,0.3-0.4
			c0.1-0.2,0.2-0.4,0.3-0.4c0.1,0,0.2-0.1,0.3-0.3c0.1-0.2,0.2-0.3,0.4-0.4c0.2-0.1,0.3-0.1,0.3-0.2c0-0.1,0.1-0.2,0.2-0.2
			s0.2-0.2,0.2-0.7c0-0.3,0-0.5-0.1-0.5c-0.1-0.1-0.1-0.2,0-0.3c0.1-0.1,0.2-0.9,0.2-2.2c0-0.4,0-0.8,0-1.3c0-0.5-0.1-0.7-0.2-0.8
			C326,785.7,325.9,785.5,325.9,785.2z M323.8,789c-0.1,0.1-0.2,0.2-0.2,0.5c0,0.3-0.1,0.4-0.2,0.5c-0.1,0.1-0.2,0.4-0.3,0.8
			c-0.1,0.4-0.1,0.6-0.3,0.6c-0.1,0-0.2,0-0.2,0.1c0,0.1-0.1,0.1-0.4,0.2c-0.3,0.1-0.4,0.2-0.4,0.3c0,0.1-0.1,0.2-0.4,0.4
			c-0.2,0.1-0.4,0.2-0.4,0.3c-0.1,0.1-0.2,0.2-0.4,0.2c-0.2,0-0.4,0.1-0.5,0.2c-0.1,0.1-0.2,0.1-0.3,0.1c-0.2,0-0.5,0-0.8-0.1
			c-0.6-0.1-1-0.3-1.4-0.7c-0.4-0.3-0.7-0.8-1.1-1.6c-0.3-0.6-0.4-1-0.5-1.2c-0.1-0.2-0.1-0.7-0.1-1.5c0-0.7,0-1.2,0.1-1.4
			c0-0.2,0.2-0.5,0.3-0.9c0.3-0.5,0.6-1,1.1-1.4c0.4-0.4,0.8-0.7,1.1-0.7c0.3-0.1,0.5-0.2,0.5-0.3s0.1-0.2,0.2-0.2
			c0.1,0,0.2,0,0.2-0.1c0-0.1,0.1-0.2,0.3-0.2c0.2,0,0.3,0.1,0.4,0.2c0.1,0.1,0.4,0.1,0.9,0.1c0.5,0,0.8,0.1,0.8,0.2
			c0,0.1,0.1,0.2,0.3,0.3c0.2,0.1,0.3,0.2,0.3,0.3c0,0.1,0.1,0.2,0.3,0.3c0.2,0.1,0.4,0.2,0.4,0.3c0.1,0.1,0.1,0.3,0.1,0.5
			c0,0.3,0.1,0.6,0.3,0.9c0.2,0.3,0.3,0.7,0.3,1.2c0,0.5,0,0.8,0.1,0.8c0.1,0.1,0.1,0.2,0.1,0.4C324,788.7,324,788.9,323.8,789z"/>
		<path d="M348.6,793.9c-0.1,0-0.2-0.1-0.3-0.4c-0.1-0.2-0.3-0.4-0.5-0.4c-0.2,0-0.4-0.1-0.6-0.2c-0.2-0.1-0.4-0.2-0.4-0.4
			c-0.1-0.1-0.1-0.2-0.3-0.2c-0.1,0-0.3-0.1-0.6-0.4c-0.2-0.3-0.4-0.6-0.6-0.9c-0.1-0.3-0.4-0.6-0.8-1.1c-0.4-0.5-0.7-0.7-0.8-0.7
			c-0.1,0-0.2-0.1-0.4-0.3c-0.1-0.1-0.2-0.2-0.1-0.3c0,0,0.1-0.1,0.3-0.2c0.8-0.3,1.2-0.6,1.2-0.9c0-0.5,0.1-0.7,0.3-0.7
			c0.1,0,0.2-0.1,0.4-0.2c0.2-0.2,0.2-0.7,0.2-1.5c0-1-0.1-1.5-0.3-1.7c-0.1-0.1-0.2-0.2-0.4-0.2c-0.1,0-0.2,0-0.2-0.1
			c0-0.1-0.1-0.2-0.4-0.3c-0.3-0.1-0.4-0.3-0.5-0.5l-0.2-0.3c-0.1-0.1-0.2-0.1-0.2,0.1c0,0.1-0.3,0.1-0.8,0.1c-0.6,0-0.9,0-0.9-0.1
			s-0.1-0.1-0.4-0.1c-0.3,0-0.5-0.1-0.6-0.3c-0.2-0.2-0.3-0.3-0.4-0.3c-0.1,0-0.2,0.1-0.1,0.3c0,0,0,0,0,0.1v0
			c0,0.1-0.6,0.2-1.8,0.2h-1.9l-0.5,0.5c-0.3,0.3-0.5,0.6-0.5,0.7c0,0.1,0.2,0.2,0.5,0.3c0.3,0.1,0.5,0.1,0.5,0.2
			c0,0.1,0,0.1,0.1,0.1c0.2,0,0.4,0.2,0.6,0.5c0.2,0.3,0.3,0.7,0.3,1.2c0,0.4,0.1,0.6,0.1,0.6c0,0.2-0.1,0.4-0.2,0.5
			c-0.2,0.1-0.2,0.2-0.1,0.3c0.1,0.1,0.2,0.3,0.2,0.7c0,0.3-0.1,0.5-0.2,0.5c-0.2,0-0.2,0,0,0.1c0.1,0.1,0.2,0.2,0.2,0.4
			s-0.1,0.4-0.2,0.5c-0.1,0.1-0.1,0.3,0.1,0.4c0.1,0.1,0.2,0.3,0.2,0.4c0,0.1-0.1,0.3-0.2,0.4c-0.2,0.2-0.3,0.7-0.3,1.6
			c0,0.7,0,1.1-0.1,1.2c0,0.1-0.1,0.2-0.3,0.3c-0.2,0.1-0.3,0.1-0.3,0.2c0,0.1-0.3,0.1-0.8,0.1c-0.4,0-0.6,0.1-0.7,0.1
			c-0.1,0.1-0.1,0.2-0.1,0.5c0,0.2,0.2,0.5,0.6,0.8c0.2,0.1,0.3,0.2,0.5,0.2c0.2,0,0.3-0.1,0.3-0.2c0.1-0.1,0.8-0.2,2.1-0.2
			c1.3,0,2.1-0.1,2.2-0.3c0.1-0.1,0.2-0.2,0.3-0.2c0.1,0,0.2-0.1,0.2-0.2c0-0.1-0.1-0.2-0.4-0.2c-0.3,0-0.4-0.1-0.5-0.3
			c0-0.2-0.2-0.3-0.5-0.4c-0.4-0.1-0.5-0.2-0.5-0.4c0-0.1,0-0.2,0.1-0.3c0.2-0.2,0.2-0.3,0.1-0.4c-0.1,0-0.2-0.6-0.2-1.6
			c0-0.3,0-0.6,0-1c0-0.3,0-0.4,0.1-0.5c0-0.1,0.1-0.1,0.2-0.1c0.5,0,1,0.2,1.5,0.5c0.5,0.4,0.8,0.7,0.8,1c0,0.2,0.1,0.3,0.2,0.3
			s0.2,0.1,0.2,0.4c0,0.5,0.3,0.8,0.8,1c0.2,0.1,0.4,0.3,0.5,0.7c0.1,0.4,0.3,0.8,0.7,1.2l0.6,0.7l0.9-0.1c0.1,0,0.3,0,0.6-0.1
			c0.3,0,0.6,0,0.8-0.1c0.2,0,0.4-0.1,0.7-0.1c0.3-0.1,0.4-0.1,0.6-0.2c0.1-0.1,0.2-0.2,0.2-0.3C348.7,794,348.7,793.9,348.6,793.9z
			 M342.9,787.1c-0.1,0-0.2,0-0.2,0.1c-0.1,0-0.1,0,0,0.1c0.2,0,0.2,0.1,0.2,0.2c0,0.1-0.1,0.3-0.4,0.4c-0.2,0.2-0.5,0.3-0.7,0.3
			c-0.3,0-0.6,0.1-1.1,0.2c-0.1,0-0.2,0-0.3,0c-0.2,0-0.4-0.1-0.7-0.3c-0.2-0.2-0.3-0.3-0.4-0.3c0-0.1,0-0.1,0.1-0.2
			c0.1-0.1,0.2-0.7,0.2-1.6v-1.2c0-0.3,0.1-0.5,0.2-0.7c0.1-0.2,0.3-0.4,0.4-0.4h0.1l0.4,0.1c0.3,0,0.5,0.1,0.8,0.1
			c0.2,0.1,0.4,0.1,0.4,0.1c0,0.1,0.1,0.1,0.4,0.2c0.3,0.1,0.4,0.2,0.4,0.3c0,0.1,0.1,0.3,0.2,0.4c0.1,0.1,0.2,0.2,0.1,0.3
			c-0.1,0.1-0.1,0.3,0.1,0.6c0.1,0.2,0.2,0.4,0.2,0.8v0.1c0,0.2-0.1,0.4-0.1,0.4C343.3,787,343.2,787.1,342.9,787.1z"/>
		<path d="M341.6,781.6C341.6,781.6,341.7,781.6,341.6,781.6c0.1-0.1,0.2-0.1,0.1-0.1c0,0-0.1,0-0.3,0c-0.2,0-0.3,0.1-0.3,0.2
			C341.3,781.7,341.4,781.7,341.6,781.6z"/>
	</g>
	<g>
		<g>
			<path class="st0" d="M73.8,613.4c0,0,24,0.4,29.5-6c6-7,5.7-33.2,5.7-33.2s-0.3,26.3,5.7,33.2c5.4,6.3,29.5,6,29.5,6
				s-24-0.4-29.5,6c-6,7-5.7,33.2-5.7,33.2s0.3-26.3-5.7-33.2C97.8,613,73.8,613.4,73.8,613.4z"/>
		</g>
		<g>
			<path class="st0" d="M368.6,297.2c0,0,7.1,0.1,8.7-1.7c1.8-2,1.7-9.3,1.7-9.3s-0.1,7.4,1.7,9.3c1.6,1.8,8.7,1.7,8.7,1.7
				s-7.1-0.1-8.7,1.7c-1.8,2-1.7,9.3-1.7,9.3s0.1-7.4-1.7-9.3C375.7,297.1,368.6,297.2,368.6,297.2z"/>
		</g>
		<g>
			<path class="st0" d="M387.1,338c0,0,12.4,0.2,15.2-2.9c3.1-3.4,2.9-16.3,2.9-16.3s-0.2,12.9,2.9,16.3c2.8,3.1,15.2,2.9,15.2,2.9
				s-12.4-0.2-15.2,2.9c-3.1,3.4-2.9,16.3-2.9,16.3s0.2-12.9-2.9-16.3C399.5,337.8,387.1,338,387.1,338z"/>
		</g>
		<g>
			<path class="st0" d="M79.2,295c0,0,7.7,0.1,9.5-1.8c1.9-2.1,1.8-10.2,1.8-10.2s-0.1,8,1.8,10.2c1.7,1.9,9.5,1.8,9.5,1.8
				s-7.7-0.1-9.5,1.8c-1.9,2.1-1.8,10.2-1.8,10.2s0.1-8-1.8-10.2C86.9,294.9,79.2,295,79.2,295z"/>
		</g>
		<g>
			<path class="st0" d="M137.9,225.1c0,0,12.4,0.2,15.2-2.9c3.1-3.4,2.9-16.3,2.9-16.3s-0.2,12.9,2.9,16.3
				c2.8,3.1,15.2,2.9,15.2,2.9s-12.4-0.2-15.2,2.9c-3.1,3.4-2.9,16.3-2.9,16.3s0.2-12.9-2.9-16.3
				C150.4,224.9,137.9,225.1,137.9,225.1z"/>
		</g>
		<g>
			<path class="st0" d="M81.7,189.6c0,0,21.9,0.3,26.8-5.2c5.4-6,5.2-28.7,5.2-28.7s-0.3,22.7,5.2,28.7c5,5.5,26.8,5.2,26.8,5.2
				s-21.9-0.3-26.8,5.2c-5.4,6-5.2,28.7-5.2,28.7s0.3-22.7-5.2-28.7C103.5,189.3,81.7,189.6,81.7,189.6z"/>
		</g>
		<g>
			<g>
				<path class="st0" d="M318,317.8c-12.1-6.9-32.9-8.3-51.5-5.9c-7.9,1-20.5,2.2-29.2,2.2c-10.1-0.1-18,2-28.2,4.5
					c-5.8,1.4-36.2,16.7-35.2,31.8c0.5,6.8,25.3,10.7,51.9,2.8c8.1-2.4,9.6-4.5,17.4-7.4c10.4-3.9,23.5-7.3,35.8-7.1
					c4.8,0.1,24.8,3.7,30.3,16.1c8.4,18.9-10.9,31.2-25.9,35.6c-1,6.8-0.7,13.9-1.7,20.7c-0.6,4-1.3,8-2,12c10.6-1.7,21.5-4.4,30-8
					c15.9-6.6,27.9-16.9,33.1-32.3C352.6,354.5,340.9,330.9,318,317.8z"/>
			</g>
			<g>
				<path class="st0" d="M273.1,633.2c-11.8-13.3-22-29.7-22.4-44.7c-0.6-0.6-1-1.4-1-2.5v-6c-1.7-4.9-2.2-10.2-2.1-15.5
					c-0.8-5.9-0.9-12-0.3-18c-0.3-1.3-0.5-2.5-0.8-3.8c-8.7,7.6-14.6,18-16.3,32.8c-2.5,20.7,5,34.9,22,53.8
					c14,15.6,47.1,27.5,51.3,55.3C311.4,665.5,281,642.1,273.1,633.2z"/>
			</g>
			<g>
				<path class="st0" d="M362.6,482.3c-6.1-12.5-18.9-25.2-34.9-29.7c-30.2-8.6-55.8,15.2-74.6,32.6c-14.3,13.3-30.2,15.1-44.9,7.2
					c-7.4-4-27.1-22.3-22.1-44c4.7-20.2,27.4-22.8,49.5-23.1c-0.7-4.8-0.5-9.7-0.4-14.8c0-0.2,0-0.5,0.1-0.7c-1.1-5.7-2-11.4-2-17.1
					c-4.6,0-9-0.1-12.9,0c-12.4,0.2-31.4,3.5-42,9.4c-25.5,14.1-31.7,46-24.7,70c3.4,11.5,11.7,26.1,20.7,34.9
					c10.8,10.6,29.5,19.4,44.7,20.8c38.9,3.4,61.4-21.2,72.1-30c10.2-8.4,22.7-16.7,35.7-5.5c5.8,5,7.7,12.6,2.3,18.8
					c-8.7,10.1-38.5,13.8-56.8,18.6c0.2,2.8-0.2,5.7-0.5,8.5c0,3.1-0.2,6.2-0.5,9.3c0.1,3.8,0.1,7.6-0.1,11.4
					c13.9-6.3,33.6-9.5,49.6-13.8c17.5-4.7,29.9-9.5,40.5-25.8C367.4,509.8,367.8,492.9,362.6,482.3z"/>
			</g>
			<g>
				<g>
					<g>
						<path d="M252,188.6c-3.7,9.3-4.5,20.2-5.1,30.1c-0.8,13.8-0.2,28,4.5,41.1c0.7,2,4,1.2,3.3-0.9c-4.6-12.8-5.1-26.7-4.3-40.2
							c0.6-9.6,1.4-20.1,5-29.2C256.1,187.5,252.8,186.6,252,188.6L252,188.6z"/>
					</g>
				</g>
				<g>
					<g>
						<path d="M262.4,189.5c3.6,9,4.4,19.6,5,29.2c0.8,13.5,0.2,27.4-4.3,40.2c-0.7,2.1,2.5,2.9,3.3,0.9c4.6-13.1,5.3-27.4,4.5-41.1
							c-0.6-9.8-1.4-20.8-5.1-30.1C264.8,186.6,261.6,187.5,262.4,189.5L262.4,189.5z"/>
					</g>
				</g>
				<g>
					<g>
						<path d="M254.7,274.6c-2.8-4.2-5.3-9.1-0.5-13c-0.7,0.1-1.4,0.2-2.1,0.3c4,1.7,8.8,2.3,12.7,0c1.9-1.1,0.2-4-1.7-2.9
							c-2.8,1.7-7.1,0.9-9.2,0c-0.8-0.3-1.4-0.3-2.1,0.3c-2.8,2.3-4.1,5.2-3.7,8.8c0.4,3.4,1.8,5.5,3.6,8.3
							C253,278.1,255.9,276.4,254.7,274.6L254.7,274.6z"/>
					</g>
				</g>
				<g>
					<g>
						<path d="M252.8,273.6c-10.1-9.5-23.1-6.5-35.4-2.8c-8,2.4-13.4,3.5-21.5,1.6c-5.3-1.2-10.9-3-16.4-3.1
							c-7-0.1-10.4,4.4-6.1,10.5c4.2,6.1,13.7,13.1,21.4,13.2c-0.6-0.6-1.1-1.1-1.7-1.7c-0.5,4.5-2.6,11.1,1,15
							c3.1,3.4,8,2.5,11.4,0.1c2.7-1.9,4.6-4.7,7-6.8c3.8-3.2,8.7-5,13.5-6c9.2-1.9,24.5-0.3,26.7,11c0.4,2.1,3.7,1.2,3.3-0.9
							c-2.4-12.4-18.1-15.4-28.7-13.8c-6.1,1-12.4,3.1-17.2,7.2c-3.2,2.8-10.3,13-14.4,4.9c-1.4-2.8,0.5-7.7,0.8-10.8
							c0.1-0.9-0.9-1.7-1.7-1.7c-5.8-0.1-16.3-6.7-18.8-12c-2.8-5.9,4.7-5,8.6-4.3c3.8,0.7,7.5,1.7,11.3,2.5
							c7.7,1.7,12.5,1.3,20.1-1c11.3-3.5,24.8-7.9,34.4,1.2C252,277.5,254.4,275.1,252.8,273.6L252.8,273.6z"/>
					</g>
				</g>
				<g>
					<g>
						<path d="M255.6,303.2c-4.6-3.7-8.2,1.3-9.3,5.8c-0.7,3.1-0.7,6.5,0.7,9.4c0.7,1.4,2,2.4,2.8,3.7c1.6,2.9,1,6.7,0.3,9.8
							c-0.5,2.1,2.8,3,3.3,0.9c0.8-3.8,1.5-8.3-0.3-11.8c-1.2-2.2-3-3.6-3.5-6.3c-0.2-0.9,0.5-11.7,3.8-9.1
							C254.9,307,257.3,304.6,255.6,303.2L255.6,303.2z"/>
					</g>
				</g>
				<g>
					<g>
						<path d="M263.8,332.8c1.5,7.7,12.7,9.9,17.6,14.8c3.4,3.4,3.4,7.8,3.2,12.2c-0.4,6.8-0.9,13.6-1.4,20.3
							c-2,27.1-4.1,54.2-6.2,81.3c-5.3,67.6-10.6,135.2-16,202.8c-1.3,15.9-2.5,31.9-3.8,47.8c1.1,0,2.3,0,3.4,0
							c-3.4-43.2-6.9-86.5-10.3-129.7c-5.1-65-10.3-130-15.2-195c-0.7-8.7-1.3-17.4-1.9-26.1c-0.2-3.6-0.7-7.3,0.9-10.6
							c3.8-7.9,18-8.7,19.8-17.9c0.4-2.1-2.8-3-3.3-0.9c-1.5,7.7-15.2,9.6-19.1,16.5c-2,3.5-2,6.9-1.8,10.8
							c0.3,6.5,0.9,12.9,1.4,19.3c2,27.2,4.1,54.3,6.2,81.5c5.3,67.9,10.7,135.8,16,203.7c1.3,16.1,2.6,32.3,3.8,48.4
							c0.2,2.2,3.2,2.2,3.4,0c3.5-43.7,6.9-87.5,10.4-131.2C276,515.9,281.1,451,286,386c0.6-8.4,1.3-16.8,1.8-25.3
							c0.2-3.3,0.6-6.8-0.5-10c-1.2-3.5-3.6-5.8-6.5-7.8c-3.9-2.7-12.8-6.1-13.8-11.2C266.6,329.7,263.3,330.6,263.8,332.8
							L263.8,332.8z"/>
					</g>
				</g>
				<g>
					<g>
						<path d="M263.8,261.8c4.8,3.1,1.3,9.3-1,12.7c-1.2,1.8,1.7,3.5,2.9,1.7c2-2.9,3.5-5.3,3.7-8.9c0.2-3.4-1-6.5-3.9-8.4
							C263.7,257.7,262,260.6,263.8,261.8L263.8,261.8z"/>
					</g>
				</g>
				<g>
					<g>
						<path d="M267,276c9.6-9,23.1-4.7,34.4-1.2c7.7,2.4,12.4,2.8,20.1,1c3.8-0.9,7.5-1.9,11.3-2.5c3.9-0.7,11.3-1.6,8.6,4.3
							c-2.5,5.3-12.9,11.9-18.8,12c-0.8,0-1.8,0.8-1.7,1.7c0.3,3,2.2,8,0.8,10.8c-1.7,1-3.4,2-5.1,3c-2-0.9-3.8-2.1-5.2-3.7
							c-1.2-1.1-2.2-2.4-3.4-3.5c-4.9-4.5-11.3-6.8-17.8-7.9c-10.7-1.7-26.7,1.6-29.2,14.1c-0.4,2.1,2.8,3,3.3,0.9
							c2.3-11.4,17.8-13.2,27.2-11.3c4.3,0.9,8.7,2.4,12.3,5.1c3,2.3,5.2,5.5,8.3,7.7c3.4,2.4,8.2,3.3,11.4-0.1
							c3.5-3.9,1.5-10.5,1-15c-0.6,0.6-1.1,1.1-1.7,1.7c7.6-0.1,16.6-6.8,21-12.7c4.6-6.1,1.7-11.2-5.8-11c-5.5,0.1-11,1.8-16.4,3.1
							c-7.7,1.8-12.8,1.1-20.3-1.2c-12.5-3.9-26.1-7.4-36.5,2.4C263,275.1,265.4,277.5,267,276L267,276z"/>
					</g>
				</g>
				<g>
					<g>
						<path d="M264.2,305.6c2.7-2.2,4,7,3.9,8c-0.2,3.2-2.4,4.8-3.7,7.4c-1.8,3.6-1.2,8.1-0.3,11.8c0.5,2.1,3.7,1.2,3.3-0.9
							c-0.6-2.7-1-5.5-0.2-8.2c0.7-2.1,2.1-3.2,3.1-5.1c1.5-2.9,1.6-6.5,0.8-9.6c-1.1-4.5-4.7-9.5-9.3-5.8
							C260.1,304.6,262.5,307,264.2,305.6L264.2,305.6z"/>
					</g>
				</g>
				<g>
					<g>
						<path d="M254.9,187.9c-3.8-3.1-1.9-9.7,2.9-10.4c3-0.4,5.5,1.1,6.5,3.9c0.7,1.9,0.7,4.9-1.1,6.2c-1.8,1.2-0.1,4.2,1.7,2.9
							c3.1-2.1,3.8-6.1,2.8-9.5c-1.2-4.2-4.8-7-9.2-6.9c-4.1,0.1-7.6,2.6-8.6,6.6c-0.8,3.2-0.1,7.4,2.6,9.6
							C254.2,191.6,256.6,189.3,254.9,187.9L254.9,187.9z"/>
					</g>
				</g>
				<g>
					<g>
						<path d="M231.9,356.4c10-3.6,23.1,2.2,25,12.9c0.4,2.1,3.6,1.2,3.3-0.9c-2.2-12.5-17.5-19.4-29.2-15.3
							C228.9,353.8,229.8,357.1,231.9,356.4L231.9,356.4z"/>
					</g>
				</g>
				<g>
					<g>
						<path d="M285.3,353.1c-11.6-4.1-26.2,3-28.4,15.3c-0.4,2.1,2.9,3,3.3,0.9c1.9-10.6,14.2-16.5,24.2-12.9
							C286.4,357.1,287.3,353.9,285.3,353.1L285.3,353.1z"/>
					</g>
				</g>
				<g>
					<g>
						<path d="M251.9,276.8c4.5,1.6,9.9,2.1,14.2-0.2c1.9-1,0.2-3.9-1.7-2.9c-3.5,1.8-8.1,1.1-11.6-0.2
							C250.7,272.8,249.8,276,251.9,276.8L251.9,276.8z"/>
					</g>
				</g>
				<g>
					<g>
						<path d="M251.8,332.7c4.3,2.8,10.1,3.6,13.9-0.3c1.5-1.5-0.8-3.9-2.4-2.4c-2.8,2.7-6.9,1.7-9.8-0.3
							C251.7,328.6,250,331.5,251.8,332.7L251.8,332.7z"/>
					</g>
				</g>
				<g>
					<g>
						<path d="M252.7,304.7c1.3,1.2,2.9,2.1,4.5,2.6c3,0.8,5.5-0.5,7.2-3c1.2-1.8-1.7-3.5-2.9-1.7c-1.7,2.5-4.6,1.4-6.4-0.3
							C253.5,300.8,251.1,303.2,252.7,304.7L252.7,304.7z"/>
					</g>
				</g>
				<g>
					<g>
						<path d="M239.7,344.9c12.4,2.1,25.9,3,38.2,0c2.1-0.5,1.2-3.8-0.9-3.3c-11.7,2.9-24.6,1.9-36.4,0
							C238.4,341.3,237.5,344.5,239.7,344.9L239.7,344.9z"/>
					</g>
				</g>
				<g>
					<g>
						<path d="M252,192.8c3.6,4.1,8.6,5.9,13.9,6.1c2.2,0.1,2.2-3.3,0-3.4c-4.5-0.2-8.5-1.7-11.5-5.1
							C253,188.8,250.6,191.2,252,192.8L252,192.8z"/>
					</g>
				</g>
				<g>
					<g>
						<path d="M250.3,201.9c4.5,4.6,10.5,6.5,16.9,6.7c2.2,0.1,2.2-3.3,0-3.4c-5.5-0.2-10.6-1.7-14.5-5.7
							C251.2,198,248.8,200.3,250.3,201.9L250.3,201.9z"/>
					</g>
				</g>
				<g>
					<g>
						<path d="M248.2,211.6c5.7,4.8,12.8,6.5,20.1,6.7c2.2,0.1,2.2-3.3,0-3.4c-6.4-0.2-12.7-1.5-17.7-5.7
							C248.9,207.8,246.5,210.2,248.2,211.6L248.2,211.6z"/>
					</g>
				</g>
				<g>
					<g>
						<path d="M248.2,221.3c6.1,4.9,13.5,6.5,21.1,6.7c2.2,0.1,2.2-3.3,0-3.4c-6.6-0.2-13.4-1.4-18.7-5.7
							C248.9,217.5,246.5,219.9,248.2,221.3L248.2,221.3z"/>
					</g>
				</g>
				<g>
					<g>
						<path d="M247.6,231c6.2,4.9,13.8,6.5,21.6,6.7c2.2,0.1,2.2-3.3,0-3.4c-6.8-0.2-13.7-1.4-19.2-5.7
							C248.3,227.2,245.9,229.6,247.6,231L247.6,231z"/>
					</g>
				</g>
				<g>
					<g>
						<path d="M247.9,240.6c5.7,4.8,12.9,6.5,20.2,6.7c2.2,0.1,2.2-3.3,0-3.4c-6.4-0.2-12.8-1.5-17.8-5.7
							C248.7,236.9,246.3,239.2,247.9,240.6L247.9,240.6z"/>
					</g>
				</g>
				<g>
					<g>
						<path d="M249.2,250.3c4.5,4.6,10.4,6.5,16.7,6.7c2.2,0.1,2.2-3.3,0-3.4c-5.4-0.2-10.5-1.7-14.3-5.7
							C250.1,246.4,247.7,248.8,249.2,250.3L249.2,250.3z"/>
					</g>
				</g>
				<g>
					<g>
						<path d="M312.1,293.8c0.2-2.7,4.5-2.8,4.5,0C316.7,296.6,312.3,296.6,312.1,293.8c-0.1-2.2-3.5-2.2-3.4,0
							c0.2,3,2.5,5.5,5.7,5.5c3,0,5.6-2.5,5.7-5.5c0-3-2.5-5.4-5.4-5.5c-3.2-0.1-5.7,2.4-5.9,5.5C308.6,296,312,296,312.1,293.8z"/>
					</g>
				</g>
				<g>
					<g>
						<path d="M208.2,293.8c-0.2-3-2.5-5.5-5.7-5.5c-3,0-5.6,2.5-5.7,5.5c0,3,2.5,5.4,5.4,5.5C205.5,299.5,208,296.9,208.2,293.8
							c0.1-2.2-3.3-2.2-3.4,0c-0.2,2.7-4.5,2.8-4.5,0c0-2.8,4.4-2.7,4.5,0C204.9,296,208.3,296,208.2,293.8z"/>
					</g>
				</g>
				<g>
					<g>
						<path d="M256.9,367.2c0,36.7,0,73.4,0,110.2c0,58.8,0,117.6,0,176.4c0,13.4,0,26.8,0,40.3c0,2.2,3.4,2.2,3.4,0
							c0-36.7,0-73.4,0-110.2c0-58.8,0-117.6,0-176.4c0-13.4,0-26.8,0-40.3C260.3,365,256.9,365,256.9,367.2L256.9,367.2z"/>
					</g>
				</g>
				<g>
					<g>
						<path d="M254.8,305.6c-2.6,4-2,12.7,4.3,12.2c5.6-0.4,5.4-8.9,3.1-12.4c-1.2-1.8-4.1-0.1-2.9,1.7c1,1.4,2.2,6.6-0.3,7.3
							c-3.4,1-2.1-5.8-1.3-7.1C258.9,305.5,256,303.8,254.8,305.6L254.8,305.6z"/>
					</g>
				</g>
				<g>
					<g>
						<path d="M215.5,272.3c-3.9,5.5-3.5,13-13.2,11.5c-4.7-0.7-7.8-4.3-12.2-5.5c-4.2-1.2-10.9-0.4-11.9,4.7
							c-0.4,2.1,2.9,3,3.3,0.9c1.2-6.6,19.8,4.2,24.9,3.5c8-1.1,8.2-8,12.1-13.4C219.7,272.2,216.7,270.5,215.5,272.3L215.5,272.3z"
							/>
					</g>
				</g>
				<g>
					<g>
						<path d="M299.5,274c3.9,5.4,4.1,12.2,12.1,13.4c5.2,0.8,23.6-10,24.9-3.5c0.4,2.1,3.7,1.2,3.3-0.9c-1-5.1-7.7-5.9-11.9-4.7
							c-4.4,1.2-7.5,4.9-12.2,5.5c-9.8,1.2-9.2-5.9-13.2-11.5C301.1,270.5,298.2,272.2,299.5,274L299.5,274z"/>
					</g>
				</g>
			</g>
		</g>
		<g>
			<path class="st0" d="M359.3,575.6c0,0,31.5,0.5,38.6-7.4c7.8-8.7,7.4-41.4,7.4-41.4s-0.4,32.7,7.4,41.4
				c7.1,7.9,38.6,7.4,38.6,7.4s-31.5-0.5-38.6,7.4c-7.8,8.7-7.4,41.4-7.4,41.4s0.4-32.7-7.4-41.4
				C390.7,575.1,359.3,575.6,359.3,575.6z"/>
		</g>
		<g>
			<path class="st0" d="M322.5,631c0,0,10.9,0.2,13.4-2.6c2.7-3,2.6-14.4,2.6-14.4s-0.1,11.4,2.6,14.4c2.5,2.7,13.4,2.6,13.4,2.6
				s-10.9-0.2-13.4,2.6c-2.7,3-2.6,14.4-2.6,14.4s0.1-11.4-2.6-14.4C333.4,630.8,322.5,631,322.5,631z"/>
		</g>
		<g>
			<path class="st0" d="M149.4,575.6c0,0,10.9,0.2,13.4-2.6c2.7-3,2.6-14.4,2.6-14.4S165.3,570,168,573c2.5,2.7,13.4,2.6,13.4,2.6
				s-10.9-0.2-13.4,2.6c-2.7,3-2.6,14.4-2.6,14.4s0.1-11.4-2.6-14.4C160.3,575.4,149.4,575.6,149.4,575.6z"/>
		</g>
		<g>
			<path class="st0" d="M348.9,661.8c0,0,7.1,0.1,8.7-1.7c1.8-2,1.7-9.3,1.7-9.3s-0.1,7.4,1.7,9.3c1.6,1.8,8.7,1.7,8.7,1.7
				s-7.1-0.1-8.7,1.7c-1.8,2-1.7,9.3-1.7,9.3s0.1-7.4-1.7-9.3C356,661.7,348.9,661.8,348.9,661.8z"/>
		</g>
	</g>
</g>
</svg>
