<?xml version="1.0" encoding="utf-8"?>
<!-- Generator: Adobe Illustrator 21.1.0, SVG Export Plug-In . SVG Version: 6.00 Build 0)  -->
<svg version="1.1" id="Слой_1" xmlns="http://www.w3.org/2000/svg" xmlns:xlink="http://www.w3.org/1999/xlink" x="0px" y="0px"
	 viewBox="0 0 504 864" style="enable-background:new 0 0 504 864;" xml:space="preserve">
<style type="text/css">
	.st0{fill:#040404;}
	.st1{fill:#FFFFFF;}
</style>
<g>
	<g>
		<g>
			<g>
				<path d="M234.3,448.2c0-82.5,59.4-151,137.8-165.3c-22.2-9.8-46.8-15.3-72.6-15.3c-99.7,0-180.5,80.8-180.5,180.5
					s80.8,180.5,180.5,180.5c25.9,0,50.4-5.5,72.6-15.3C293.7,599.2,234.3,530.6,234.3,448.2z M237,510.6c0,1.8-1.5,3.2-3.2,3.2
					c-1.8,0-3.2-1.5-3.2-3.2c0-1.8,1.5-3.2,3.2-3.2C235.5,507.3,237,508.8,237,510.6z M284.6,277.1c0.5,6.1,1.6,15,10.3,15.4
					c-6.7,1.4-10.1,10.4-10.1,16.8c0-0.6-0.1-1.2-0.2-1.7c-0.1,0.6-0.1,1.1-0.2,1.7c0-6.3-3.4-15.3-10.1-16.8
					C283,292.2,284.1,283.2,284.6,277.1z M268.7,318.5c1.6,0,2.9,1.3,2.9,2.9s-1.3,2.9-2.9,2.9c-1.6,0-2.9-1.3-2.9-2.9
					S267.1,318.5,268.7,318.5z M195.6,350.5c1.6,0,3,1.3,3,3s-1.3,3-3,3s-3-1.3-3-3S194,350.5,195.6,350.5z M175.5,336.9
					c0.3,3.6,0.9,8.8,6,9c-3.9,0.8-5.9,6.1-5.9,9.8c0-0.4-0.1-0.7-0.1-1c0,0.3-0.1,0.7-0.1,1c0-3.7-2-9-5.9-9.8
					C174.5,345.7,175.2,340.4,175.5,336.9z M125.6,441.4l18.7-3.2l-7.3-10.4l10.4,7.3l3.2-21.9l3.2,21.9l10.4-7.3l-7.3,10.4
					l18.7,3.2l-18.7,3.2l7.3,10.4l-10.4-7.3l-3.2,21.9l-3.2-21.9l-10.4,7.3l7.3-10.4L125.6,441.4z M164.6,540.5
					c0-0.3-0.1-0.6-0.1-0.9c0,0.3-0.1,0.6-0.1,0.9c0-3.2-1.7-7.7-5.1-8.4c4.4-0.2,4.9-4.6,5.1-7.7c0.2,3,0.8,7.5,5.1,7.7
					C166.3,532.8,164.6,537.3,164.6,540.5z M229.7,589.2c-1.4,0-2.5-1.1-2.5-2.5c0-1.4,1.1-2.5,2.5-2.5s2.5,1.1,2.5,2.5
					C232.2,588.1,231.1,589.2,229.7,589.2z M269.8,590.1c-2.8-5.1-5.6-10.2-8.6-15.3c-0.1,0.1-0.2,0.3-0.3,0.4
					c-0.1,0.1-0.1,0.2-0.2,0.3c-1.1,1.4-2.1,2.9-3.6,3.8c-1.5,0.9-3.1,1.5-4.8,1.9c-1.8,0.4-3.7,0.5-5.5,0.3c-0.5,0-4.7-1.3-4.7-1.2
					c2.9-2.7,7.9-6,11.8-6.7c2-0.3,3.9-0.6,5.9-0.6c0.1,0,0.2,0,0.3,0c-1.5-2.5-3.1-5.1-4.8-7.5c-5.8-1.7-11.9,1.3-17.8,0.7
					c-2.5-0.3-5-0.8-7.4-1.6c-0.9,0.7-1,1.9-1.7,3.2c-0.9,1.8-2.3,3.5-4.2,4.4c-1,0.5-2.2,0.7-3.3,0.9c-4,0.4-13.1-1-15.4-4.9
					c3.9-2.7,9.5-4.8,14.3-4.8c0.8,0,1.6,0,2.4,0.1c1.4,0.1,3.2,0,4.8,0c-0.3-0.1-0.6-0.3-0.9-0.4c-3.7-1.9-7.3-3.9-10.6-6.4
					c-4,0.5-8.2,1-12.3,0.9c-2.1,0-4.2-0.3-6-1.2c-3.6-1.8-5.5-5.7-7.2-9.3c-0.9-2.1-1.6-5-3-6.8c2.9,0.1,5.4,2.2,8,3.1
					c2.1,0.7,4.4,0.8,6.6,1.3c3.5,0.7,6.7,2.2,9.5,4.3c1.9,1.5,3.2,3.5,4.6,5.3c0.1,0,0.2,0.1,0.2,0.1c2,1.6,4.1,3,6.3,4.3
					c-1-1.7-1.4-3.9-1.5-5.6c-0.1-3.2,0.2-6.7,2.1-9.4c1.7,2.6,3.5,6.9,3.5,10c0,2.2-0.5,4.5-1,6.7c0.8,0.4,1.7,0.8,2.5,1.2
					c3.2,1.5,7.1,2.6,10.6,2.7c5,0,9.9-1.7,14.9-1.1c-4.4-6.2-9.5-11.2-16.5-14.5c-3.2-1.5-6.5-3.2-9.3-5.4
					c-3.1-2.5-5.8-5.7-7.9-9.2c-1-1.6-1.8-3.3-2.5-5c-0.1-0.1-0.1-0.1-0.2-0.2c-3.1-5.8-8-12.2-14.7-14c-1.2,0.2-2.3,0.4-3.6,0.5
					c-2.5,0.2-4.9-0.2-7.4,0.2c-5.5,0.8-9.2,1.5-14.6,0c-4.7-1.3-8.8-2.8-12.9-5.6c-10.7-7.2-12.7-21.1-22-29.6c1,1,7.8,0.4,9.7,1.3
					c2.4,1.1,4,3,6.5,3.9c6.2,2.2,13.2,0.2,19.4,3.1c5.2,2.5,8.6,7.7,11.6,12.7c2.1,3.5,3.5,5.5,6.8,7.8c3.6,2.6,4,2.3,5.9,3.4
					c0,0,0,0,0,0c5,1,9,4.1,12.2,7.9c-1.5-3.8-3.2-7.3-5.7-10.6c-4.9-6.5-11.2-11.8-15.5-18.6c-1.2-1.3-2.6-2.5-3.8-3.7
					c-2.9-2.9-5.4-6.4-7.7-9.9c-3-4.6-4.5-9-4.1-14.4c0.3-4.4-0.2-12.1,0.2-16.5c1.3,1.9,5,6.3,6.9,7.5c2.5,1.6,4.4,3.6,6,6.2
					c2.9,4.7,4.4,9.6,4.7,14.9c0.5,6.7-1.6,10-0.7,14.4c1.1,1.8,2.4,3.5,3.8,5.1c-0.6-5.2-0.1-10.2,0.6-15.4c0.5-3.7,1.2-8,1.3-11.7
					c0-0.6,0-1.1,0-1.7c-0.1-2.9-1.1-6-1.9-8.7c-1.1-3.8-2.6-7.2-4.7-10.5c-2-3.3-4.3-6.4-6-9.8c-1.6-3.1-3-6.4-4.3-9.7
					c-2.8-1.1-6.6-0.9-9.3-2.2c-3.7-1.8-5.9-3.6-8.3-7.1c5.6-1.7,12.5,1.8,16.4,6.3c-1.1-2.9-2.1-5.8-2.8-8.9
					c-0.8-3.2-1.5-6.5-2.7-9.5c-2.6-2.6-5.8-2.8-10.1-6.3c-3.5-2.9-6.2-6.4-8.1-10.8c-1-2.4-1.5-4.8-1.4-7.4c0.1-2-1.2-6.9-1.9-8.7
					c3.2,1.9,8.4,6.1,11.6,8.1c3.9,2.4,6.3,5.7,8.1,10.1c1.4,3.5,2.6,6.9,3.2,10.5c0.2,1.2,0.4,2.5,0.6,3.8
					c1.5,3.7,2.2,7.6,3.2,11.4c1.1,4.1,2.7,8.1,4.4,12c0.8,1.9,1.7,3.9,2.6,5.8c-0.8-3.9-1.1-7.9,0.3-11.5c0.1-0.1,0.1-0.2,0.2-0.3
					c0.1-1.6,0.5-1.9,0.4-5.6c-0.1-6-0.6-11.7-1.7-17.5c-1-5-1.7-10.7-0.6-15.8c0.5-2.3,1.6-4.6,2.8-6.7c1.4-2.4,1.4-4.1,1.8-6.8
					c3,0.9,6.1,8.4,7.9,11.1c3,4.4,3.9,9.3,3.8,14.8c0,4.3-1.3,5.5-2.6,9.6c-1.5,4.7-1.4,7.7-4.7,11.3c-1.5,1.6-2.4,3.5-3.7,5.2
					c-0.6,0.8-1.2,1.4-1.8,2c-0.9,2.6-0.6,5.6-0.2,8.3c0.4,2.8,1.1,5.6,1.8,8.3c0,0.1,0,0.2,0,0.2c1.8,2.7,3.6,5.4,5.1,8.3
					c0.1,0.2,0.2,0.5,0.3,0.7c0.7-6.6,2.4-13.1,4.4-19.4c2.1-6.6,2.9-13.4,4.4-20.1c1.3-6.3,2.3-13.1,4.8-19c0.7-1.8,1.6-3.4,2.6-5
					c0-0.1,0-0.2,0.1-0.3c2.9-6,5.3-13.8,2.9-20.4c-0.8-0.8-1.7-1.7-2.5-2.7c-1.6-1.9-3-4-4.2-6.1c-4-7-6.2-15-6-23.2
					c0.2-8.2,2.7-16.3,3.2-24.5c0,0.9,5.5,3.2,6.3,3.6c2.3,1.3,4.2,4.5,5.6,6.8c2,3.1,4,6.4,4.6,10.1c1,5.8-1.4,11.6-3.7,17.1
					c-1.6,3.8-2.4,6.1-2.4,10.2c0,4.5,0.5,4.7,0.6,6.9c0,0,0,0,0,0c2,4.7,1.8,9.9,0.6,14.8c2.2-3.4,4.1-7,5.3-10.9
					c2.4-7.9,3.2-16.2,6.2-23.8c0.3-1.8,0.5-3.6,0.8-5.3c0.7-4.2,2.1-8.2,3.6-12.2c2-5.2,4.7-9,9.3-11.9c3.7-2.4,9.7-7.3,13.4-9.5
					c-0.8,2.2-2.3,7.9-2.2,10.2c0.1,3-0.4,5.8-1.6,8.7c-2.1,5.1-5.2,9.3-9.3,12.7c-5.1,4.3-9,4.5-12,7.9c-2.9,7.4-3.7,15.4-5.9,22.9
					c1.1-1.2,1.9-2.7,3.2-4c4.7-4.9,10.4-8.9,16.5-11.7c2.7-1.2,5.6-2.2,7.6-4.4c-1.5,6.8-4.7,13.3-10,17.7c-5,4.2-11.9,6.1-18,4.2
					c-0.3,1-0.7,1.9-1.1,2.8c-3.5,8.5-10.3,14.9-13.1,23.8c-0.8,2.7-0.8,5.2-1.3,8c-0.5,2.8-1.5,5.5-2,8.3c-0.3,1.8-1.3,5.2-1.5,7
					c-0.6,5.8-2.9,12.1-4.4,16.8c-1.7,5.7-3.3,11.9-3.6,17.9c0.7,2,1.2,4,1.7,6c0.3,1.3,0.6,2.5,0.9,3.8c2.1-4.1,5-7.6,6.9-11.9
					c1.3-2.8,2-5.7,2.5-8.8l0.6-3.8c0.3-2.1,0.5-4.3,0.6-6.4c-0.9-4.9-2.1-9.1-0.5-14.1c0.9-2.8,2.5-4.9,4-7.5
					c1.3-2.2,2.2-4.5,3.3-6.7c0.3,2.8,1.1,5.5,1.6,8.2c0.6,3-0.1,5.9-0.9,8.8c-0.7,2.8-1.2,4.1-2.6,6.6c-0.6,1.2-1.8,2.4-2.9,4
					c0,3.4-0.5,6.7-1,10c-0.3,1.8-0.6,3.6-1.1,5.4c0.3-0.3-0.2,1.3-0.4,1.3c-0.3,1-0.6,1.9-1,2.8c-2.5,6-6.9,10.6-9.1,16.7
					c-0.2,4-0.9,8.3-1.4,12.3c-0.8,5.8-1.2,11.3-0.1,17.1c0,0.1,0,0.2,0,0.3c2.9,3.2,6,6.3,8.6,9.8c-0.4-1.6-1-3.1-1.4-5
					c-1.2-6.7-1.1-13.7,0.2-20.4c0.6-2.9,1.5-5.9,0.9-8.8c4.6,5.1,7.9,11.4,8.4,18.2c0.4,6.5-2.1,13.3-7.1,17.3
					c0.6,0.8,1.1,1.6,1.7,2.5c4.8,7.7,6,17,11.5,24.3c2.5,3.3,5.5,6.1,9,8.1c1.3,0.8,2.7,1.4,4.1,2.1c-0.4-0.6-0.7-1.2-1.1-1.8
					c-0.6-0.8-1.5-1.4-2.2-2.1c-3.2-3.8-3.5-10.4-1.4-14.8c2.3,2.6,5.1,7.2,5.6,10.7c0.4,2.8,0.5,5.8,0.3,8.6
					c1.6,0.7,3.1,1.5,4.6,2.4c5.8,3.6,14.4,15.1,14.4,15.4c0.3,0.5,10.3,17,14.7,25C272.4,590.5,270.4,591.3,269.8,590.1z
					 M204.2,530.8c0-1.2,1-2.2,2.2-2.2c1.2,0,2.2,1,2.2,2.2s-1,2.2-2.2,2.2C205.2,533,204.2,532,204.2,530.8z M227.9,389.6
					c0,1.2-1,2.2-2.2,2.2c-1.2,0-2.2-1-2.2-2.2s1-2.2,2.2-2.2C227,387.3,227.9,388.3,227.9,389.6z M293.8,592.5
					c0.4,4.5,1.2,11.2,7.6,11.4c-5,1.1-7.5,7.7-7.5,12.4c0-0.4-0.1-0.9-0.1-1.3c0,0.4-0.1,0.8-0.1,1.3c0-4.7-2.5-11.4-7.5-12.4
					C292.7,603.7,293.5,597.1,293.8,592.5z"/>
			</g>
		</g>
		<g>
			<path class="st0" d="M277.3,482c0,0,47.7,0.7,58.5-11.3c11.9-13.2,11.3-62.8,11.3-62.8s-0.6,49.6,11.3,62.8
				c10.8,12,58.5,11.3,58.5,11.3s-47.7-0.7-58.5,11.3c-11.9,13.2-11.3,62.8-11.3,62.8s0.6-49.6-11.3-62.8
				C325,481.3,277.3,482,277.3,482z"/>
		</g>
		<g>
			<path class="st0" d="M371.6,328.9c0,0,20.8,0.3,25.5-4.9c5.2-5.7,4.9-27.3,4.9-27.3s-0.3,21.6,4.9,27.3
				c4.7,5.2,25.5,4.9,25.5,4.9s-20.8-0.3-25.5,4.9c-5.2,5.7-4.9,27.3-4.9,27.3s0.3-21.6-4.9-27.3
				C392.3,328.6,371.6,328.9,371.6,328.9z"/>
		</g>
		<g>
			<path class="st0" d="M63.9,600.4c0,0,20.8,0.3,25.5-4.9c5.2-5.7,4.9-27.3,4.9-27.3s-0.3,21.6,4.9,27.3c4.7,5.2,25.5,4.9,25.5,4.9
				s-20.8-0.3-25.5,4.9c-5.2,5.7-4.9,27.3-4.9,27.3s0.3-21.6-4.9-27.3C84.7,600.1,63.9,600.4,63.9,600.4z"/>
		</g>
		<g>
			<path class="st0" d="M402.5,437.5c0,0,10.8,0.2,13.3-2.6c2.7-3,2.6-14.2,2.6-14.2s-0.1,11.2,2.6,14.2c2.5,2.7,13.3,2.6,13.3,2.6
				s-10.8-0.2-13.3,2.6c-2.7,3-2.6,14.2-2.6,14.2s0.1-11.2-2.6-14.2C413.3,437.4,402.5,437.5,402.5,437.5z"/>
		</g>
		<g>
			<path class="st0" d="M117.5,294c0,0,8,0.1,9.8-1.9c2-2.2,1.9-10.5,1.9-10.5s-0.1,8.3,1.9,10.5c1.8,2,9.8,1.9,9.8,1.9
				s-8-0.1-9.8,1.9c-2,2.2-1.9,10.5-1.9,10.5s0.1-8.3-1.9-10.5C125.5,293.9,117.5,294,117.5,294z"/>
		</g>
		<g>
			<path class="st0" d="M172.3,228.8c0,0,10.8,0.2,13.3-2.6c2.7-3,2.6-14.2,2.6-14.2s-0.1,11.2,2.6,14.2c2.5,2.7,13.3,2.6,13.3,2.6
				s-10.8-0.2-13.3,2.6c-2.7,3-2.6,14.2-2.6,14.2s0.1-11.2-2.6-14.2C183.1,228.7,172.3,228.8,172.3,228.8z"/>
		</g>
		<g>
			<path class="st0" d="M76.1,208.3c0,0,22.2,0.3,27.2-5.2c5.5-6.1,5.2-29.2,5.2-29.2s-0.3,23,5.2,29.2c5,5.6,27.2,5.2,27.2,5.2
				s-22.2-0.3-27.2,5.2c-5.5,6.1-5.2,29.2-5.2,29.2s0.3-23-5.2-29.2C98.3,207.9,76.1,208.3,76.1,208.3z"/>
		</g>
	</g>
	<g>
		<path d="M51.9,53.6c6.7-7.6,6.7-19,0.2-26.4c0.8,7.2-1.3,14.8-6.5,20.6c-5.2,5.8-12.3,8.7-19.5,8.6C34,62.2,45.2,61.1,51.9,53.6z"
			/>
		<path d="M458.4,47.7c-5.2-5.8-7.3-13.3-6.5-20.6c-6.5,7.5-6.6,18.9,0.2,26.4c6.7,7.6,17.9,8.6,25.9,2.8
			C470.7,56.4,463.6,53.5,458.4,47.7z"/>
		<path d="M26.1,807.4c7.2-0.1,14.3,2.8,19.5,8.6c5.2,5.8,7.3,13.3,6.5,20.6c6.5-7.5,6.6-18.9-0.2-26.4
			C45.2,802.6,34,801.6,26.1,807.4z"/>
		<path d="M452,810.2c-6.7,7.6-6.7,19-0.2,26.4c-0.8-7.2,1.3-14.8,6.5-20.6c5.2-5.8,12.3-8.7,19.5-8.6
			C470,801.6,458.8,802.6,452,810.2z"/>
		<path d="M503.8,18.2c-1.6-17.9-18.7-16.3-31.6-16.3c-45.9,0-91.8,0-137.6,0c-63.2,0-126.3,0-189.5,0c-40.6,0-81.2,0-121.8,0
			c-2.6,0-5.3-0.2-8,0.2c-9.5,1.2-15,9.2-15.2,18.2c-0.2,7.3,0,14.5,0,21.8c0,37.4,0,74.9,0,112.3c0,57,0,114.1,0,171.1
			c0,64.3,0,128.6,0,192.9c0,58.4,0,116.7,0,175.1c0,40.1,0,80.2,0,120.3c0,9.1,0,18.2,0,27.3c0,11.7,6.7,20.5,19.2,20.7
			c35.9,0.6,71.9,0,107.9,0c62.4,0,124.9,0,187.3,0c49.7,0,99.5,0,149.2,0c7.6,0,15.2,0,22.9,0c0.4,0,0.8-0.1,1.2-0.2
			c14.4-1.8,16.1-13.8,16.1-25.5c0-11.4,0-22.8,0-34.3c0-43.4,0-86.9,0-130.3c0-59.9,0-119.8,0-179.8c0-63.9,0-127.7,0-191.6
			c0-55.3,0-110.6,0-165.9c0-33.7,0-67.3,0-101C503.9,28.3,504.2,23.2,503.8,18.2z M486.6,852.8c-28.3,0-56.6,0-84.9,0
			c-59.9,0-119.8,0-179.7,0c-54,0-108,0-162,0c-13.1,0-26.1,0-39.2,0c-5.6,0-11-1.3-11.7-8.3c-0.2-1.5,0-3,0-4.5c0-26.5,0-53,0-79.5
			c0-50,0-100,0-149.9c0-61.8,0-123.6,0-185.4c0-61.4,0-122.7,0-184.1c0-48.9,0-97.7,0-146.6c0-24.2-0.8-48.6,0-72.7
			c0.2-5.3,1.6-10.1,8.3-10.8c2.2-0.2,4.5,0,6.7,0c14.8,0,29.6,0,44.5,0c55.6,0,111.3,0,166.9,0c58.9,0,117.8,0,176.7,0
			c18.9,0,37.9,0,56.8,0c8.1,0,24.7-3.1,25.9,8.4c0.5,5.2,0,10.8,0,16.1c0,13.5,0,27.1,0,40.6c0,45.5,0,91.1,0,136.6
			c0,60.1,0,120.2,0,180.3c0,62.6,0,125.2,0,187.7c0,52.8,0,105.6,0,158.4c0,31.4,0,62.7,0,94.1C494.8,840.3,496.9,852,486.6,852.8z
			"/>
		<path d="M460,790.9c1.2,0.1,2.4-0.7,2.4-2.2c0-23.7,0-47.4,0-71.1c0-56.4,0-112.8,0-169.2c0-68.7,0-137.4,0-206
			c0-59,0-117.9,0-176.9c0-19.6,0-39.2,0-58.8c0-8.9,1.3-19,0-27.9c-0.1-0.4,0-0.8,0-1.2c0-0.8-0.3-1.3-0.8-1.7
			c0.1-1.2-0.6-2.5-2.2-2.6c-13.1-0.5-25.3-13.8-25.8-26.7c0-0.5-0.2-0.8-0.4-1.1c-0.3-0.6-1-1.1-1.9-1.1c-40.5,0-80.9,0-121.4,0
			c-64.5,0-129,0-193.6,0c-14.9,0-29.7,0-44.6,0c-0.9,0-1.6,0.5-1.9,1.1c-0.2,0.3-0.3,0.7-0.4,1.2C69.1,59.5,57,72.8,43.9,73.3
			c-1.8,0.1-2.5,1.9-2,3.2c-0.2,0.3-0.2,0.6-0.2,1c0,23.7,0,47.4,0,71.1c0,56.4,0,112.8,0,169.2c0,68.7,0,137.4,0,206
			c0,59,0,117.9,0,176.9c0,19.6,0,39.2,0,58.8c0,8.9-1.3,19,0,27.9c0.1,0.4,0,0.8,0,1.2c0,0.9,0.5,1.6,1.1,1.9
			c0.3,0.2,0.7,0.3,1.2,0.4c13,0.5,25.3,13.3,25.8,26.2c0,0.5,0.2,0.8,0.4,1.1c0.3,0.6,1,1.1,1.9,1.1c40.5,0,80.9,0,121.4,0
			c64.5,0,129,0,193.6,0c14.9,0,29.7,0,44.6,0c0.9,0,1.6-0.5,1.9-1.1c0.2-0.3,0.3-0.7,0.4-1.2c0.5-12.9,12.7-25.7,25.8-26.2
			C459.6,791,459.8,790.9,460,790.9z M429.3,814.9c-39.8,0-79.6,0-119.3,0c-64.5,0-129,0-193.6,0c-14.2,0-28.3,0-42.5,0
			c-1.7-13.9-13.9-26.5-27.8-28.3c0-23,0-46,0-69.1c0-56.4,0-112.8,0-169.2c0-68.7,0-137.4,0-206c0-59,0-117.9,0-176.9
			c0-19.6,0-39.2,0-58.8c0-8.9,1.3-19,0-27.9c-0.1-0.4,0-0.8,0-1.2c14-1.8,26.1-14.9,27.8-28.7c39.8,0,79.6,0,119.3,0
			c64.5,0,129,0,193.6,0c14.2,0,28.3,0,42.5,0c1.7,14.1,14.3,27.4,28.5,28.8c0,23.7,0,47.3,0,71c0,56.4,0,112.8,0,169.2
			c0,68.7,0,137.4,0,206c0,59,0,117.9,0,176.9c0,19.6,0,39.2,0,58.8c0,8.6-1.2,18.4-0.1,27C443.6,788.1,431.1,800.9,429.3,814.9z"/>
		<path d="M266.6,98.9c0-0.3-0.4-0.4-1.2-0.4c-0.8,0-1.3,0.1-1.4,0.2c-0.1,0.1-0.1,0.1-0.1,0.2c0,0.3,0.5,0.5,1.5,0.5
			C266.2,99.4,266.6,99.2,266.6,98.9z"/>
		<path d="M262.5,86.5c-0.4-0.1-0.5-0.5-0.5-1.1c0-0.6-0.1-0.9-0.3-0.9c-0.2,0-0.3-0.3-0.3-0.8c0-0.5-0.1-0.8-0.4-0.8
			c-0.3,0-0.5-0.2-0.7-0.7c-0.2-0.4-0.4-0.6-0.7-0.8c-0.3-0.1-0.4-0.3-0.4-0.7c0-0.4-0.2-0.6-0.7-0.6c-1.3,0-2-0.2-2-0.7
			c0-0.2-0.1-0.4-0.4-0.4c-0.3,0-0.4-0.1-0.4-0.3c0-0.2-0.2-0.3-0.7-0.3c-0.4,0-0.6-0.1-0.8-0.4c-0.1-0.3-1.1-0.4-3-0.4
			c-1.9,0-3,0.1-3.3,0.4c-0.3,0.3-0.5,0.4-0.8,0.4c-0.3,0-0.6,0.2-0.8,0.7c-0.2,0.5-0.6,0.7-1.2,0.7c-0.8,0-1.6,0.1-2.4,0.3
			c-0.9,0.2-1.4,0.5-1.6,1c-0.2,0.5-0.5,1-0.9,1.5c-0.6,0.6-0.8,0.9-0.8,1.1c0,0.1-0.1,0.2-0.4,0.2c-0.2,0-0.4,0.2-0.6,0.7
			c-0.1,0.6-0.4,1.1-0.6,1.5c-0.3,0.5-0.5,1.8-0.5,3.7c0,2.6,0.2,4.5,0.7,5.9c0.4,1.2,0.8,2.3,1.3,3.2c0.5,0.9,0.9,1.4,1.3,1.4
			c0.3,0.1,0.5,0.3,0.6,0.7c0.1,0.4,0.4,0.5,0.8,0.5c0.5,0,0.7,0.1,0.7,0.3c0,0.2,0.2,0.3,0.5,0.3c0.4,0,0.6,0.3,0.6,0.8
			c0,0.5,0.2,0.8,0.5,0.8c0.2,0,0.4-0.1,0.6-0.3c0.2-0.2,0.4-0.2,0.7,0.1c0.3,0.2,1.8,0.4,4.5,0.4c2.3,0,3.5-0.1,3.6-0.3
			c0.1-0.2,0.6-0.3,1.5-0.3c0.9,0,1.4-0.1,1.4-0.4c0-0.2,0.2-0.4,0.5-0.6c0.4-0.1,0.7-0.4,1-0.7c0.4-0.4,0.7-0.5,0.9-0.5
			c0.1,0,0.3-0.2,0.5-0.7c0.2-0.5,0.4-0.7,0.6-0.7c0.2,0,0.4-0.2,0.5-0.5c0.1-0.3,0.4-0.5,0.8-0.7c0.4-0.1,0.6-0.2,0.6-0.4
			c0-0.2,0.1-0.3,0.4-0.3c0.3,0,0.4-0.4,0.4-1.3c0-0.6-0.1-0.9-0.3-1c-0.2-0.1-0.2-0.3,0-0.6c0.2-0.2,0.3-1.7,0.4-4.3
			c0-0.8,0.1-1.6,0.1-2.5C263,87.1,262.8,86.6,262.5,86.5z M258,92.8c-0.3,0.1-0.4,0.4-0.4,0.9c0,0.5-0.1,0.8-0.4,1.1
			c-0.2,0.1-0.4,0.7-0.6,1.6c-0.1,0.8-0.3,1.3-0.5,1.3s-0.4,0.1-0.4,0.3c0,0.1-0.3,0.2-0.8,0.4c-0.6,0.1-0.8,0.4-0.8,0.6
			c0,0.2-0.2,0.4-0.7,0.7c-0.5,0.3-0.7,0.4-0.8,0.5c-0.1,0.2-0.4,0.3-0.7,0.3c-0.4,0-0.8,0.1-1.1,0.3c-0.1,0.1-0.4,0.2-0.6,0.2
			c-0.4,0-1-0.1-1.6-0.2c-1.1-0.2-2-0.7-2.7-1.3c-0.7-0.6-1.4-1.6-2.1-3c-0.5-1.1-0.8-1.9-0.9-2.3c-0.1-0.5-0.2-1.4-0.2-2.9
			c0-1.4,0-2.3,0.1-2.8c0.1-0.4,0.3-1,0.7-1.7c0.6-1,1.3-1.9,2.1-2.7c0.8-0.8,1.5-1.3,2.1-1.4c0.6-0.1,0.9-0.3,0.9-0.6
			s0.1-0.4,0.4-0.4c0.2,0,0.4-0.1,0.4-0.3c0-0.2,0.2-0.3,0.5-0.3c0.4,0,0.6,0.1,0.7,0.3c0.1,0.2,0.7,0.3,1.8,0.3
			c1.1,0,1.6,0.1,1.6,0.4c0,0.2,0.2,0.4,0.6,0.6c0.4,0.2,0.6,0.4,0.6,0.6c0,0.3,0.2,0.5,0.6,0.6c0.4,0.1,0.7,0.3,0.8,0.5
			c0.1,0.2,0.2,0.6,0.2,1.1c0,0.6,0.2,1.2,0.5,1.7c0.4,0.6,0.6,1.3,0.6,2.3s0.1,1.5,0.3,1.6c0.2,0.1,0.3,0.4,0.3,0.8
			C258.4,92.4,258.2,92.7,258,92.8z"/>
		<path d="M191.2,785.3c0.1,0,0.2-0.2,0.2-0.5c0-0.2,0-0.4-0.1-0.4c-0.1,0-0.1-0.1-0.1-0.3c0-0.2,0.1-0.4,0.2-0.6
			c0.1-0.3,0.1-0.5-0.2-0.6c-0.2-0.2-0.5-0.3-0.9-0.3c-0.5,0-0.8,0.1-1.1,0.4c-0.3,0.2-0.4,0.3-0.5,0.2c-0.1-0.1-0.4-0.1-0.8,0
			c-0.5,0.1-1.4,0.2-2.6,0.2c-0.9,0-1.4,0-1.5-0.1c-0.1-0.1-0.2,0-0.4,0.2c-0.1,0.1-0.3,0.2-0.4,0.2c-0.2,0-0.4,0-0.7-0.1
			c-0.7-0.2-1.1-0.2-1.3-0.2c-0.1,0-0.2,0-0.2,0c-0.1,0-0.3,0.1-0.4,0.3s-0.2,0.4-0.2,0.5c0,0.1,0,0.1,0.1,0.2c0,0,0.1,0.2,0.1,0.5
			c0,0.1,0,0.2-0.1,0.3c-0.1,0-0.2,0.1-0.3,0.1c-0.3,0-0.5,0.1-0.5,0.3c0,0,0,0.1,0.1,0.2c0.1,0.1,0.1,0.3,0.1,0.6
			c0,0.3-0.1,0.4-0.1,0.5c0,0.5,0.2,0.8,0.6,0.8c0.3,0,0.4-0.1,0.4-0.2c0-0.1,0.1-0.2,0.2-0.2c0.1,0,0.1,0,0.2-0.1c0,0,0-0.1,0-0.2
			c0-0.1-0.1-0.2-0.2-0.2c-0.1-0.1-0.1-0.1-0.1-0.2c0,0,0-0.1,0-0.1c0,0,0-0.1,0.1-0.1c0,0,0.1,0,0.2-0.1c0.2-0.1,0.2-0.2,0.2-0.3
			c0,0,0-0.1,0-0.2c0-0.1,0-0.1,0-0.2c0-0.1,0-0.2,0.1-0.2c0.1-0.1,0.1-0.3,0-0.6c-0.1-0.3-0.1-0.4,0-0.4c0.1,0,0.1,0.1,0.1,0.2
			c0,0.1,0.2,0.2,0.5,0.4c0.4,0.1,0.7,0.2,1.1,0.2c0.4,0,0.7,0.1,0.8,0.3c0.2,0.2,0.3,0.2,0.5,0.2c0.1,0,0.1,0,0.1,0
			c0.1,0,0.1,0,0,0.1c-0.3,0.3-0.4,2.2-0.5,5.8c0,0.8-0.1,1.2-0.3,1.4c-0.2,0.1-0.3,0.3-0.3,0.4c0,0.1-0.3,0.2-0.8,0.2l-0.7,0.1
			l-0.1,0.5c0,0,0,0.1,0,0.1c0,0,0,0.1,0,0.1c0,0.2,0.1,0.4,0.4,0.7c0.3,0.3,0.5,0.4,0.7,0.4c0.1,0,0.1,0,0.1-0.1s0-0.1-0.1-0.1
			c-0.1,0-0.1,0-0.1-0.1c0-0.1,0.2-0.1,0.5-0.1c0.1,0,0.4,0,0.8,0c0.4,0,0.7,0,0.9,0c0.6,0,0.9-0.1,1.1-0.2c0.1-0.1,0.3-0.2,0.6-0.1
			c0.2,0.1,0.3,0,0.4-0.1c0.1-0.1,0.2-0.1,0.3-0.1c0.1,0,0.3-0.1,0.5-0.2c0.1-0.1,0.2-0.2,0.2-0.3c0-0.1-0.1-0.2-0.2-0.5
			c-0.2-0.3-0.3-0.4-0.5-0.4c-0.1,0-0.2-0.1-0.2-0.2c0-0.1-0.1-0.2-0.3-0.1c0,0-0.1,0-0.1,0c-0.1,0-0.1,0-0.1,0
			c-0.1,0-0.2,0-0.3-0.1c0-0.1-0.1-0.3-0.1-0.5v-0.4c0-0.5,0-0.8,0-0.9c0-0.1,0.1-0.2,0.2-0.2c0.2,0,0.2-0.1,0.2-0.4
			c0-0.3-0.1-0.5-0.2-0.5c-0.1,0-0.2-0.4-0.2-1.1c0-0.8,0.1-1.2,0.2-1.4c0.1-0.1,0.2-0.5,0.2-1.2c0-0.7,0.1-1,0.1-1.1
			c0.1-0.2,0.5-0.2,1.2-0.2c1,0,1.5,0.1,1.6,0.4c0,0.1,0.1,0.2,0.4,0.5c0.2,0.2,0.3,0.4,0.3,0.8c0,0.3,0.1,0.5,0.1,0.5
			c0,0.1,0.2,0.1,0.4,0.1c0.2,0,0.4,0,0.4-0.1c0-0.1,0.1-0.2,0.3-0.2c0.2-0.1,0.3-0.2,0.3-0.4c0-0.2-0.1-0.4-0.2-0.5
			C191.1,785.4,191.1,785.3,191.2,785.3z"/>
		<path d="M211.9,781.9c-0.2-0.1-0.5-0.1-0.8-0.1c-0.1,0-0.2,0-0.5,0.1c-0.3,0.1-0.5,0.1-0.7,0.1h-0.1h-0.2c-0.2,0-0.5,0-1,0.1
			c-0.4,0-0.7,0.1-0.8,0.1c-0.1,0-0.2,0.1-0.2,0.2c0,0.2,0,0.3-0.1,0.3c-0.1,0-0.1,0-0.1,0.1c0,0.1,0,0.2,0,0.3
			c0,0.1,0.1,0.2,0.2,0.2c0.1,0.1,0.2,0.5,0.2,1.3c0,0.8,0.1,1.2,0.2,1.2c0.1,0,0.1,0.3,0.1,0.8v0.8h-1.3c-0.8,0-1.7,0-2.7-0.1
			l-1.4-0.1v-0.7c0-0.5,0-0.7,0.1-0.7c0.1,0,0.1-0.3,0.2-0.9c0-1.1,0.1-1.6,0.4-1.6c0.1,0,0.2,0,0.2-0.1c0-0.1,0.1-0.2,0.4-0.2
			c0.2,0,0.4-0.1,0.5-0.2c0.1-0.1,0.2-0.2,0.2-0.4c0-0.2-0.1-0.3-0.2-0.4c-0.2-0.1-0.5-0.2-1-0.2c-0.3,0-0.4,0-0.5,0.1
			c0,0-0.5,0.1-1.3,0.1c-0.9,0.1-1.7,0.2-2.4,0.5c-0.1,0-0.2,0.1-0.2,0.2c0,0.1,0.2,0.2,0.6,0.4l0.6,0.3l0,0.8v0.9v0.3
			c0,0.2,0,0.4,0.1,0.4c0.1,0.1,0.2,0.5,0.2,1.1c0,0.6-0.1,1.1-0.2,1.4c-0.1,0.3-0.2,0.6-0.2,0.8c0,0,0,0,0,0.1c0,0,0,0.1,0,0.1
			c0,0.2,0.1,0.4,0.1,0.6c0,0.5,0,1.1-0.1,1.8c-0.1,0.6-0.2,1-0.2,1.2c-0.1,0.2-0.4,0.3-0.8,0.3c-0.3,0-0.5,0.1-0.6,0.1
			c-0.1,0.1-0.1,0.2-0.1,0.4v0.5l0.7-0.1c0.3-0.1,1-0.1,2.2-0.1h0.7h0.7c1,0,1.6,0,1.6-0.1c0-0.1-0.1-0.3-0.2-0.5
			c-0.2-0.2-0.3-0.3-0.4-0.3h-0.1c-0.2,0.1-0.4,0.1-0.6-0.1c-0.1-0.1-0.2-0.1-0.3-0.2c0-0.1-0.1-0.2-0.1-0.4c0-0.3,0-0.5,0-0.8
			c0-0.9,0.1-1.6,0.1-2.1v-0.8h4.9l0.1,0.4c0,0.2,0.1,0.5,0.1,0.7c0,0.5,0,1.1-0.1,1.7c-0.1,0.6-0.2,1-0.3,1
			c-0.1,0.1-0.4,0.2-0.8,0.3c-0.3,0-0.5,0.1-0.5,0.1c-0.1,0.1-0.1,0.2-0.1,0.4c0,0.3,0.1,0.5,0.3,0.5c0.3,0.1,1.3,0.1,3.1,0.1
			c1.3,0,2,0,2.1-0.1c0.2-0.1,0.3-0.2,0.3-0.4c0-0.2-0.1-0.3-0.2-0.5c-0.1-0.1-0.3-0.2-0.4-0.2c0,0,0,0-0.1,0c0,0,0,0-0.1,0
			c-0.1,0.1-0.3,0.1-0.5,0l-0.4-0.1l0.1-3.5c0-2.3,0.1-3.5,0.2-3.6c0.1,0,0.1-0.3,0.1-0.9c0.1-1.1,0.2-1.6,0.4-1.6
			c0.1,0,0.2,0,0.2-0.1c0-0.1,0.1-0.2,0.4-0.2c0.2,0,0.4-0.1,0.5-0.2c0.2-0.1,0.2-0.3,0.2-0.4C212.2,782.1,212.1,782,211.9,781.9z
			 M201,790.8c-0.2-0.1-0.3-0.1-0.3-0.2c0-0.1,0-0.1,0.1-0.1c0.2,0,0.3,0.1,0.4,0.2c0,0,0,0,0,0.1
			C201.2,790.8,201.2,790.8,201,790.8z M201.7,790.7c-0.1,0-0.1-0.1-0.1-0.2c0-0.1,0-0.2,0.1-0.2c0.1,0,0.2,0.1,0.2,0.2
			C201.9,790.7,201.8,790.7,201.7,790.7z M201.7,787c-0.1,0-0.2-0.1-0.2-0.3c0-0.3,0.1-0.4,0.2-0.4c0.2,0,0.2,0.1,0.2,0.3
			C201.9,786.9,201.8,787,201.7,787z M208.8,790.8c-0.1,0.1-0.2,0.1-0.4,0c-0.2-0.1-0.3-0.1-0.3-0.2c0-0.1,0.1-0.1,0.2-0.1
			c0.3,0,0.5,0.1,0.5,0.2C208.9,790.7,208.9,790.8,208.8,790.8z M209.2,790.7c-0.1,0-0.2-0.1-0.2-0.2c0-0.1,0.1-0.2,0.2-0.2
			c0.1,0,0.1,0.1,0.1,0.2C209.3,790.7,209.3,790.7,209.2,790.7z M209.2,787c-0.1,0-0.2-0.1-0.2-0.3c0-0.3,0.1-0.4,0.2-0.4
			c0.1,0,0.2,0.1,0.2,0.3C209.4,786.9,209.3,787,209.2,787z"/>
		<path d="M229.4,790.2c-0.1,0-0.3,0.2-0.5,0.5c-0.3,0.3-0.4,0.6-0.4,0.7c0,0.1-0.1,0.2-0.4,0.2c-0.1,0-0.2,0-0.3,0.1
			c0,0-0.1,0.1-0.1,0.1c0,0,0,0.1,0,0.3c0,0.2-0.1,0.3-0.4,0.3c0,0-0.1,0-0.1,0c-0.1,0-0.1,0-0.2,0c-0.2,0-0.4,0.1-0.6,0.3
			c-0.2,0.2-0.4,0.3-0.6,0.3c-0.1,0-0.2-0.1-0.2-0.2c0-0.1-0.1-0.1-0.4,0c-0.2,0.1-0.6,0.2-1.2,0.2c-0.5,0-0.7,0-0.7-0.1
			c0-0.1-0.1-0.1-0.2-0.1c-0.1,0-0.1-0.1-0.2-0.2c-0.1-0.2-0.1-0.3-0.1-0.4c0-0.1,0-0.2,0-0.3c0-0.2,0-0.4,0-0.6c0-0.3,0-0.5,0-0.8
			c0-0.3,0-0.5,0-0.8c0-0.3,0-0.5,0-0.6v-0.2c0-0.1,0.4-0.1,1.3-0.1c0.7,0,1.2,0.1,1.4,0.2c0.2,0.1,0.4,0.4,0.4,0.8
			c0,0.2,0,0.3,0.1,0.3c0,0,0.1,0,0.2,0c0.1-0.1,0.3-0.1,0.5-0.1c0.1,0,0.2,0,0.3-0.1c0-0.1,0.1-0.2,0.1-0.5c0-0.1,0-0.2,0-0.3
			c0-0.2,0-0.3,0-0.4v-0.2c0-0.3,0-0.6,0.1-0.7c0.1-0.1,0.1-0.3,0-0.4c-0.1-0.1-0.1-0.3,0.1-0.4c0.1-0.1,0.2-0.2,0.2-0.4
			c0-0.3-0.3-0.4-1-0.4c-0.4,0-0.6,0.2-0.6,0.5c0,0.1,0,0.2,0.1,0.3c0,0.2,0,0.4,0,0.5c-0.1,0.1-0.3,0.2-0.9,0.3
			c-0.5,0.1-1,0.1-1.5,0.1H223v-0.6c0-0.4,0.1-0.6,0.2-0.6c0.1,0,0.2-0.1,0.2-0.4c0-0.3-0.1-0.5-0.2-0.9c-0.1-0.2-0.2-0.4-0.1-0.4
			c0-0.1,0.1-0.1,0.2-0.3c0.2-0.1,0.3-0.3,0.2-0.5c0,0,0-0.1,0-0.2c0-0.1,0.1-0.3,0.4-0.3c0.3-0.1,0.7-0.1,1.5-0.2
			c0.7,0,1.1-0.1,1.1-0.1c0.3,0,0.5,0.1,0.6,0.2c0.1,0.2,0.3,0.3,0.5,0.4c0.2,0.1,0.3,0.2,0.3,0.3c0,0.1,0.1,0.2,0.3,0.3
			c0.2,0.1,0.3,0.2,0.3,0.3c0,0.2,0.1,0.3,0.3,0.5c0.2,0.2,0.4,0.2,0.6,0.2h0c0.3,0,0.4-0.2,0.4-0.6c0-0.2-0.1-0.3-0.2-0.5
			c-0.1-0.1-0.2-0.3-0.2-0.5c0-0.3-0.1-0.5-0.2-0.5c-0.1,0-0.1-0.1,0-0.4c0.1-0.1,0.1-0.2,0.1-0.3c0,0-0.1-0.1-0.1-0.1
			c-0.1-0.1-0.2-0.2-0.2-0.3c0-0.1-0.1-0.3-0.3-0.5c-0.2-0.2-0.4-0.3-0.6-0.1c-0.3,0.1-1.8,0.3-4.7,0.4h-0.7c-1.5,0-2.2-0.1-2.3-0.3
			c0-0.1-0.1-0.1-0.2-0.1c-0.1,0-0.2,0-0.2,0.1l0,0.1c0,0.1,0,0.1,0,0.1c0,0,0,0.1,0,0.2c0,0.1,0,0.2,0,0.2c0,0.2-0.1,0.3-0.3,0.3
			c-0.2,0.1-0.3,0.2-0.2,0.5c0.1,0.2,0.1,0.4,0.2,0.5c0.1,0.1,0.2,0.1,0.3,0.1c0.1,0,0.3,0,0.4,0c0.1,0,0.2,0,0.4,0
			c0.3,0,0.5,0.1,0.6,0.4c0.1,0.2,0.1,0.7,0.1,1.4c0,0.9-0.1,1.4-0.2,1.4c-0.1,0-0.1,0.2,0,0.4c0.1,0.2,0.1,0.4,0,0.6
			c-0.1,0.2-0.2,0.3-0.3,0.3c-0.1,0-0.1,0.1,0.1,0.2c0.1,0.1,0.1,0.3,0.1,0.6c0,0.5-0.1,1.5-0.2,2.8l-0.1,0.9h-0.6
			c-0.4,0-0.6,0.1-0.6,0.3c0,0.2-0.1,0.3-0.3,0.3c-0.1,0-0.2,0.1-0.2,0.3c0,0.3,0.1,0.5,0.3,0.6c0.2,0.1,0.3,0.2,0.3,0.4
			c0,0.1,0.2,0.1,0.7,0.1c0.5,0,0.8-0.1,0.9-0.3c0.1-0.1,0.5-0.2,1.2-0.2c0.5,0,0.9,0,1.3,0c0.7,0,1.1,0.1,1.2,0.2
			c0,0.1,0.2,0.1,0.4,0c0.2-0.1,0.7-0.2,1.5-0.2c0.8,0,1.3,0,1.5-0.1c0.2,0,0.3-0.1,0.5-0.3c0.2-0.2,0.3-0.3,0.2-0.5
			c0-0.2,0-0.3,0.1-0.4c0.1-0.1,0.2-0.3,0.2-0.8c0-0.3,0-0.5,0-0.6c0-0.1,0.1-0.1,0.2-0.1c0.2,0,0.3-0.2,0.3-0.5
			c0-0.2-0.1-0.4-0.2-0.6C229.7,790.3,229.6,790.2,229.4,790.2z"/>
		<path d="M219.2,792.1c0,0,0.1,0,0.1-0.1c0.1-0.2,0.1-0.3,0-0.3c-0.1,0-0.2,0.1-0.2,0.2C219.1,792,219.2,792.1,219.2,792.1z"/>
		<path d="M259.2,783.9c0-0.3-0.1-0.5-0.2-0.6c-0.1-0.1-0.1-0.2,0-0.4c0.1-0.1,0.1-0.2,0.1-0.2c0-0.1-0.1-0.2-0.2-0.2
			c-0.1-0.1-0.2-0.2-0.2-0.3c0-0.2-0.1-0.3-0.3-0.5c-0.2-0.2-0.4-0.3-0.5-0.3c-0.1,0-0.2,0-0.2,0.1c0,0.1-0.3,0.1-0.9,0.2
			c-0.5,0.1-1.1,0.1-1.7,0.1c-0.6,0-0.9,0-1,0.1c-0.1,0-0.5,0.1-1.4,0.1c-0.9,0.1-1.8,0.2-2.7,0.3c-0.9,0.1-1.4,0.2-1.4,0.2
			c0,0,0,0.1,0,0.2c0,0.1,0,0.2,0.1,0.3c0.1,0.2,0.1,0.3,0.2,0.4c0.1,0,0.3,0.1,0.6,0.1c0.5,0,0.9,0.1,1,0.3
			c0.1,0.2,0.2,0.7,0.2,1.6c0,0.9-0.1,1.4-0.2,1.5c-0.1,0.1-0.1,0.2,0,0.4c0.1,0.3,0.2,0.5,0,0.7c-0.1,0.2-0.2,0.3-0.3,0.3
			c-0.1,0,0,0.1,0.1,0.2c0.1,0.1,0.1,0.3,0.1,0.6c0,0.1,0,0.4-0.1,0.8c-0.1,1.4-0.2,2.3-0.2,2.6c-0.1,0.4-0.1,0.5-0.3,0.6
			c-0.2,0.1-0.5,0.3-0.8,0.6l-0.5,0.6h5v-0.5c0-0.2,0-0.4-0.1-0.4c0-0.1-0.1-0.1-0.3-0.1c-0.2,0-0.4,0-0.4-0.1s-0.1-0.1-0.2-0.1
			c-0.1,0-0.2-0.1-0.3-0.3c0-0.1,0-0.4,0-1.2c0-1.2,0-2.1,0.1-2.8c0-0.1,0.5-0.1,1.4-0.1c0.8,0,1.3,0.1,1.5,0.2
			c0.3,0.1,0.4,0.4,0.4,0.9c0,0.3,0,0.5,0.1,0.5c0.1,0,0.1-0.1,0.3-0.2c0.1-0.1,0.3-0.2,0.5-0.1c0.2,0.1,0.3,0,0.3-0.2
			c0-0.2,0-0.3,0.1-0.4c0.1-0.1,0.1-0.2,0-0.2c-0.1-0.1-0.2-0.3-0.2-0.6c0-0.4,0.1-0.7,0.2-0.8c0.1-0.1,0.1-0.1,0.1-0.2
			c0-0.1,0-0.1-0.1-0.2c-0.1-0.1-0.1-0.2-0.1-0.2c0-0.1,0-0.1,0.1-0.2c0.2-0.1,0.2-0.2,0.2-0.4c0-0.3-0.4-0.4-1.1-0.4
			c-0.4,0-0.6,0.2-0.6,0.5c0,0.1,0,0.2,0.1,0.3c0.1,0.2,0,0.4,0,0.5c-0.1,0.1-0.4,0.2-1,0.3c-0.6,0.1-1.1,0.2-1.6,0.2h-0.5v-0.6
			c0-0.4,0.1-0.6,0.2-0.7c0.1-0.1,0.2-0.2,0.2-0.4c0-0.3-0.1-0.5-0.2-0.8c-0.1-0.2-0.2-0.4-0.2-0.4c0-0.1,0.1-0.1,0.2-0.3
			c0.2-0.2,0.3-0.4,0.2-0.6c0-0.1,0-0.1,0-0.2c0-0.1,0.1-0.2,0.4-0.3c0.3-0.1,0.8-0.1,1.6-0.1c0.7,0,1.1-0.1,1.1-0.1
			c0.3,0,0.5,0.1,0.7,0.2c0.2,0.2,0.3,0.3,0.5,0.4c0.2,0.1,0.3,0.2,0.3,0.3c0,0.1,0.1,0.3,0.3,0.4c0.2,0.1,0.4,0.3,0.5,0.6
			c0.1,0.4,0.4,0.5,0.8,0.5c0.1,0,0.2,0,0.3-0.1c0.1-0.1,0.2-0.2,0.2-0.6c0-0.3-0.1-0.5-0.2-0.5
			C259.3,784.4,259.2,784.2,259.2,783.9z"/>
		<path d="M278.8,785.7c-0.2-0.1-0.2-0.2-0.2-0.5c0-0.3,0-0.5-0.1-0.5c-0.1,0-0.1-0.1-0.1-0.4s-0.1-0.4-0.2-0.4
			c-0.1,0-0.2-0.1-0.3-0.3c-0.1-0.2-0.2-0.3-0.3-0.4c-0.1-0.1-0.2-0.2-0.2-0.4c0-0.2-0.1-0.3-0.4-0.3c-0.7,0-1-0.1-1-0.4
			c0-0.1-0.1-0.2-0.2-0.2c-0.1,0-0.2,0-0.2-0.1s-0.1-0.1-0.3-0.1c-0.2,0-0.3-0.1-0.4-0.2c0-0.1-0.5-0.2-1.5-0.2
			c-0.9,0-1.5,0.1-1.6,0.2c-0.1,0.1-0.2,0.2-0.4,0.2c-0.2,0-0.3,0.1-0.4,0.3c-0.1,0.2-0.3,0.4-0.6,0.4c-0.3,0-0.6,0.1-1.1,0.2
			c-0.5,0.1-0.7,0.3-0.8,0.5c0,0.2-0.2,0.4-0.5,0.7c-0.3,0.3-0.4,0.5-0.4,0.5c0,0.1-0.1,0.1-0.2,0.1c-0.1,0-0.2,0.1-0.3,0.4
			c-0.1,0.2-0.2,0.5-0.3,0.7c-0.2,0.3-0.2,0.8-0.2,1.8c0,1.2,0.1,2.1,0.4,2.9c0.5,1.4,0.9,2.2,1.2,2.3c0.2,0,0.3,0.1,0.3,0.3
			c0,0.2,0.2,0.2,0.4,0.2c0.2,0,0.4,0,0.4,0.1c0,0.1,0.1,0.1,0.3,0.1c0.2,0,0.3,0.1,0.3,0.4c0,0.2,0,0.3,0.1,0.4
			c0.1,0.1,0.2,0,0.4-0.1c0.1-0.1,0.2-0.1,0.3,0c0.2,0.1,0.9,0.2,2.2,0.2c1.1,0,1.7-0.1,1.7-0.2c0-0.1,0.3-0.2,0.7-0.2
			c0.4,0,0.6-0.1,0.6-0.2c0-0.2,0.1-0.3,0.2-0.3c0,0,0.2-0.1,0.4-0.3c0.3-0.2,0.4-0.3,0.5-0.3c0.1,0,0.2-0.1,0.2-0.3
			c0.1-0.2,0.2-0.3,0.3-0.3c0.1,0,0.2-0.1,0.3-0.3c0-0.2,0.2-0.3,0.4-0.3c0.2-0.1,0.3-0.1,0.3-0.2c0-0.1,0.1-0.1,0.2-0.1
			c0.1,0,0.2-0.2,0.2-0.6c0-0.3,0-0.5-0.1-0.5c-0.1,0-0.1-0.1,0-0.2c0.1-0.1,0.2-0.8,0.2-2.1c0-0.3,0-0.7,0-1.1
			C279.1,786,279,785.7,278.8,785.7z M276.6,788.8c-0.1,0-0.2,0.2-0.2,0.4c0,0.3-0.1,0.4-0.2,0.5c-0.1,0.1-0.2,0.4-0.3,0.8
			c-0.1,0.4-0.1,0.6-0.3,0.6c-0.1,0-0.2,0-0.2,0.1c0,0.1-0.1,0.2-0.4,0.2c-0.3,0.1-0.4,0.2-0.4,0.3c0,0.1,0,0.2-0.1,0.2
			c-0.1,0.1-0.2,0.1-0.4,0.2c-0.1,0.1-0.2,0.1-0.3,0.1c0,0.1-0.2,0.1-0.4,0.1c-0.2,0-0.3,0.1-0.5,0.2c-0.1,0.1-0.2,0.1-0.4,0.1
			c-0.2,0-0.4,0-0.7-0.1c-0.5-0.1-1-0.3-1.3-0.6c-0.3-0.3-0.7-0.8-1-1.5c-0.3-0.5-0.4-0.9-0.5-1.1c0-0.2-0.1-0.7-0.1-1.4
			c0-0.7,0-1.1,0.1-1.4c0-0.2,0.1-0.5,0.3-0.8c0.3-0.5,0.6-0.9,1-1.3c0.4-0.4,0.8-0.6,1-0.7c0.3,0,0.5-0.1,0.5-0.3
			c0-0.1,0.1-0.2,0.2-0.2c0.1,0,0.2,0,0.2-0.1c0-0.1,0.1-0.1,0.3-0.1c0.2,0,0.3,0,0.3,0.1c0,0.1,0.3,0.1,0.9,0.1
			c0.5,0,0.8,0.1,0.8,0.2c0,0.1,0.1,0.2,0.3,0.3c0.2,0.1,0.3,0.2,0.3,0.3c0,0.1,0.1,0.2,0.3,0.3c0.3,0.1,0.5,0.4,0.5,0.8
			c0,0.2,0.1,0.5,0.3,0.8c0.2,0.3,0.3,0.7,0.3,1.1c0,0.5,0,0.7,0.1,0.8c0.1,0.1,0.1,0.2,0.1,0.4
			C276.8,788.6,276.8,788.7,276.6,788.8z"/>
		<path d="M298.6,785.2c0-0.3,0-0.5-0.1-0.5c-0.1,0-0.1-0.1-0.1-0.4c0-0.3-0.1-0.4-0.2-0.4c-0.2,0-0.3-0.1-0.4-0.4
			c-0.1-0.2-0.2-0.3-0.4-0.4c-0.1-0.1-0.2-0.2-0.2-0.4s-0.1-0.3-0.4-0.3c-0.7,0-1-0.1-1-0.4c0-0.1-0.1-0.2-0.2-0.2
			c-0.1,0-0.2-0.1-0.2-0.2c0-0.1-0.1-0.1-0.4-0.1c-0.2,0-0.3-0.1-0.4-0.2c-0.1-0.1-0.6-0.2-1.5-0.2c-1,0-1.6,0.1-1.7,0.2
			c-0.1,0.1-0.3,0.2-0.4,0.2c-0.2,0-0.3,0.1-0.4,0.4c-0.1,0.2-0.3,0.4-0.6,0.4c-0.4,0-0.8,0.1-1.2,0.2c-0.5,0.1-0.7,0.3-0.8,0.5
			c-0.1,0.3-0.3,0.5-0.5,0.8c-0.3,0.3-0.4,0.5-0.4,0.6c0,0.1-0.1,0.1-0.2,0.1c-0.1,0-0.2,0.1-0.3,0.4c-0.1,0.3-0.2,0.6-0.3,0.8
			c-0.2,0.3-0.2,0.9-0.2,1.9c0,1.3,0.1,2.3,0.4,3c0.2,0.6,0.4,1.2,0.7,1.6s0.5,0.7,0.6,0.7c0.1,0.1,0.2,0.2,0.3,0.4
			c0.1,0.2,0.2,0.3,0.4,0.3c0.3,0,0.4,0,0.4,0.1c0,0.1,0.1,0.1,0.3,0.1c0.2,0,0.3,0.1,0.3,0.4c0,0.3,0.1,0.4,0.2,0.4
			c0.1,0,0.2-0.1,0.3-0.2c0.1-0.1,0.2-0.1,0.4,0c0.2,0.1,0.9,0.2,2.3,0.2c1.2,0,1.8-0.1,1.8-0.2c0-0.1,0.3-0.2,0.8-0.2
			c0.5,0,0.7-0.1,0.7-0.2c0-0.1,0.1-0.2,0.2-0.3c0.2-0.1,0.4-0.2,0.5-0.4c0.2-0.2,0.4-0.3,0.5-0.3c0.1,0,0.2-0.1,0.3-0.4
			c0.1-0.2,0.2-0.4,0.3-0.4c0.1,0,0.2-0.1,0.3-0.3c0.1-0.2,0.2-0.3,0.4-0.4c0.2-0.1,0.3-0.1,0.3-0.2c0-0.1,0.1-0.2,0.2-0.2
			s0.2-0.2,0.2-0.7c0-0.3,0-0.5-0.1-0.5c-0.1-0.1-0.1-0.2,0-0.3c0.1-0.1,0.2-0.9,0.2-2.2c0-0.4,0-0.8,0-1.3c0-0.5-0.1-0.7-0.2-0.8
			C298.7,785.7,298.6,785.5,298.6,785.2z M296.6,789c-0.1,0.1-0.2,0.2-0.2,0.5c0,0.3-0.1,0.4-0.2,0.5c-0.1,0.1-0.2,0.4-0.3,0.8
			c-0.1,0.4-0.1,0.6-0.3,0.6c-0.1,0-0.2,0-0.2,0.1c0,0.1-0.1,0.1-0.4,0.2c-0.3,0.1-0.4,0.2-0.4,0.3c0,0.1-0.1,0.2-0.4,0.4
			c-0.2,0.1-0.4,0.2-0.4,0.3c-0.1,0.1-0.2,0.2-0.4,0.2c-0.2,0-0.4,0.1-0.5,0.2c-0.1,0.1-0.2,0.1-0.3,0.1c-0.2,0-0.5,0-0.8-0.1
			c-0.6-0.1-1-0.3-1.4-0.7c-0.4-0.3-0.7-0.8-1.1-1.6c-0.3-0.6-0.4-1-0.5-1.2s-0.1-0.7-0.1-1.5c0-0.7,0-1.2,0.1-1.4
			c0-0.2,0.2-0.5,0.3-0.9c0.3-0.5,0.6-1,1.1-1.4c0.4-0.4,0.8-0.7,1.1-0.7c0.3-0.1,0.5-0.2,0.5-0.3s0.1-0.2,0.2-0.2
			c0.1,0,0.2,0,0.2-0.1c0-0.1,0.1-0.2,0.3-0.2c0.2,0,0.3,0.1,0.4,0.2c0.1,0.1,0.4,0.1,0.9,0.1c0.5,0,0.8,0.1,0.8,0.2
			c0,0.1,0.1,0.2,0.3,0.3c0.2,0.1,0.3,0.2,0.3,0.3c0,0.1,0.1,0.2,0.3,0.3c0.2,0.1,0.4,0.2,0.4,0.3c0.1,0.1,0.1,0.3,0.1,0.5
			c0,0.3,0.1,0.6,0.3,0.9c0.2,0.3,0.3,0.7,0.3,1.2c0,0.5,0,0.8,0.1,0.8c0.1,0.1,0.1,0.2,0.1,0.4C296.8,788.7,296.7,788.9,296.6,789z
			"/>
		<path d="M300.4,791.9c-0.4,0-0.7,0-0.7,0.1c0,0-0.1,0.1-0.1,0.1c0,0.2,0.3,0.2,0.8,0.2c0.4,0,0.6-0.1,0.6-0.2
			C301,792,300.8,791.9,300.4,791.9z"/>
		<path d="M320.2,790.7c0,0-0.1,0-0.1,0c-0.1,0-0.1,0-0.1,0.1c-0.2,0-0.3,0.1-0.3,0.3c0,0.1,0.1,0.2,0.3,0.2c0.2,0,0.3-0.1,0.3-0.3
			C320.2,790.7,320.2,790.6,320.2,790.7L320.2,790.7z"/>
		<path d="M319.2,790.1c-0.1,0-0.2-0.1-0.2-0.3c-0.1-0.2-0.2-0.3-0.4-0.3c-0.2,0-0.4-0.1-0.4-0.4c0-0.1-0.1-0.2-0.2-0.3
			c-0.2-0.1-0.3-0.1-0.3,0.1c0,0.1-0.1,0.2-0.4,0.3c-0.2,0.1-0.3,0.2-0.1,0.3c0.1,0.1,0.2,0.3,0.2,0.6c0,0.3,0,0.4-0.1,0.4
			c-0.1,0-0.3,0.2-0.6,0.5c-0.6,0.6-1.1,0.9-1.5,0.9c-0.2,0-0.4,0.1-0.7,0.2c-0.3,0.1-0.7,0.2-1.2,0.2c-0.6,0-0.9-0.1-0.9-0.4
			c0-0.1,0-0.1,0-0.2c0.1-0.2,0.1-0.3,0-0.4c-0.1,0-0.1-0.2-0.1-0.4c0-0.4,0-0.7,0.1-1c0-0.1,0.1-0.2,0.1-0.4c0-0.1,0-0.4-0.1-0.6
			c0-0.1,0-0.3,0-0.5c0-0.2,0-0.3,0.1-0.4c0.2-0.1,0.2-0.3,0.2-0.8c0-0.2,0-0.3-0.1-0.4c-0.1-0.1-0.1-0.2,0-0.4
			c0.1-0.1,0.1-0.5,0.1-1.2V785l-0.1-1.3h0.9c0.6,0,1-0.1,1.1-0.2c0.1-0.2,0.1-0.4,0.1-0.6c0-0.3-0.1-0.5-0.2-0.6
			c-0.1-0.1-1.1-0.1-2.9-0.1h-0.9c-1.2,0-1.8,0.1-1.8,0.2c-0.1,0.1-0.1,0.3-0.1,0.4c0,0.3,0.1,0.6,0.2,0.7c0.1,0.1,0.4,0.2,0.7,0.2
			c0.5,0,0.8,0.1,0.8,0.4c0,0.1,0,0.1-0.1,0.2c-0.1,0.1-0.1,0.4-0.1,0.7c0,0.3,0,0.6,0.1,0.8c0.1,0.3,0.1,0.4,0,0.5
			c-0.1,0.1-0.1,0.3-0.1,0.7c0,0.2,0,0.3,0,0.4c0,0.8,0.1,1.3,0.1,1.6c0,1.3-0.1,1.9-0.3,1.9c-0.1,0-0.2,0.2-0.2,0.7
			c0,0.2,0,0.3,0.1,0.4l0.1,0.1c0,0.2-0.3,0.2-0.9,0.2c-0.3,0-0.5,0.1-0.6,0.2c-0.1,0.1-0.2,0.4-0.2,0.8v0.2c0,0.5,0.2,0.8,0.6,0.8
			c0.1,0,0.3,0,0.4-0.1c0.3-0.1,0.4-0.2,0.4-0.3c0-0.1,0.3-0.1,1-0.1c0.7,0,1,0,1,0.1c0,0.1,0.7,0.1,2.1,0.1c1.4,0,2.1-0.1,2.1-0.1
			c0-0.1,0.3-0.1,0.8-0.1c0.6,0,0.9,0,0.9,0.1c0,0.1,0.1,0.2,0.4,0.2c0.2,0,0.4-0.1,0.4-0.3c0-0.1,0.1-0.3,0.3-0.4
			c0.2-0.1,0.3-0.2,0.3-0.4c0-0.2,0-0.4,0.1-0.5c0.1-0.1,0.1-0.3,0-0.4c0,0-0.1-0.1-0.1-0.2c0-0.2,0-0.5,0.1-0.8
			c0.1-0.3,0.2-0.4,0.2-0.4c0.1,0,0.1-0.1,0.1-0.3C319.4,790.2,319.3,790.1,319.2,790.1z"/>
		<path d="M302.7,799.7c-0.1,0-0.1,0.1-0.1,0.3c0,0.2,0,0.3,0.1,0.3c0.1,0,0.1-0.1,0.1-0.3C302.8,799.8,302.8,799.7,302.7,799.7z"/>
	</g>
</g>
</svg>
