<?xml version="1.0" encoding="utf-8"?>
<!-- Generator: Adobe Illustrator 21.1.0, SVG Export Plug-In . SVG Version: 6.00 Build 0)  -->
<svg version="1.1" id="Слой_1" xmlns="http://www.w3.org/2000/svg" xmlns:xlink="http://www.w3.org/1999/xlink" x="0px" y="0px"
	 viewBox="0 0 504 864" style="enable-background:new 0 0 504 864;" xml:space="preserve">
<style type="text/css">
	.st0{fill:#040404;}
	.st1{fill:#FFFFFF;}
</style>
<g>
	<g>
		<path d="M51.9,53.6c6.7-7.6,6.7-19,0.1-26.4c0.8,7.2-1.3,14.8-6.5,20.6c-5.2,5.8-12.3,8.7-19.5,8.6C34,62.2,45.2,61.1,51.9,53.6z"
			/>
		<path d="M458.4,47.7c-5.2-5.8-7.3-13.3-6.5-20.6c-6.5,7.5-6.6,18.9,0.2,26.4c6.7,7.6,17.9,8.6,25.9,2.8
			C470.7,56.4,463.6,53.5,458.4,47.7z"/>
		<path d="M26.1,807.4c7.2-0.1,14.3,2.8,19.5,8.6c5.2,5.8,7.3,13.3,6.5,20.6c6.5-7.5,6.6-18.9-0.1-26.4
			C45.2,802.6,34,801.6,26.1,807.4z"/>
		<path d="M452,810.2c-6.7,7.6-6.7,19-0.2,26.4c-0.8-7.2,1.3-14.8,6.5-20.6c5.2-5.8,12.3-8.7,19.5-8.6
			C470,801.6,458.8,802.6,452,810.2z"/>
		<path d="M503.8,18.2c-1.6-17.9-18.7-16.3-31.6-16.3c-45.9,0-91.8,0-137.6,0c-63.2,0-126.3,0-189.5,0c-40.6,0-81.2,0-121.8,0
			c-2.6,0-5.3-0.2-8,0.2c-9.5,1.2-15,9.2-15.2,18.2c-0.2,7.3,0,14.5,0,21.8c0,37.4,0,74.9,0,112.3c0,57,0,114.1,0,171.1
			c0,64.3,0,128.6,0,192.9c0,58.4,0,116.7,0,175.1c0,40.1,0,80.2,0,120.3c0,9.1,0,18.2,0,27.3c0,11.7,6.7,20.5,19.2,20.7
			c35.9,0.6,71.9,0,107.9,0c62.4,0,124.9,0,187.3,0c49.7,0,99.5,0,149.2,0c7.6,0,15.2,0,22.9,0c0.4,0,0.8-0.1,1.2-0.2
			c14.4-1.8,16.1-13.8,16.1-25.5c0-11.4,0-22.8,0-34.3c0-43.4,0-86.9,0-130.3c0-59.9,0-119.8,0-179.8c0-63.9,0-127.7,0-191.6
			c0-55.3,0-110.6,0-165.9c0-33.7,0-67.3,0-101C503.9,28.3,504.2,23.2,503.8,18.2z M486.6,852.8c-28.3,0-56.6,0-84.9,0
			c-59.9,0-119.8,0-179.7,0c-54,0-108,0-162,0c-13.1,0-26.1,0-39.2,0c-5.6,0-11-1.3-11.7-8.3c-0.2-1.5,0-3,0-4.5c0-26.5,0-53,0-79.5
			c0-50,0-100,0-149.9c0-61.8,0-123.6,0-185.4c0-61.4,0-122.7,0-184.1c0-48.9,0-97.7,0-146.6c0-24.2-0.8-48.6,0-72.7
			c0.2-5.3,1.6-10.1,8.3-10.8c2.2-0.2,4.5,0,6.7,0c14.8,0,29.6,0,44.5,0c55.6,0,111.3,0,166.9,0c58.9,0,117.8,0,176.7,0
			c18.9,0,37.9,0,56.8,0c8.1,0,24.7-3.1,25.9,8.4c0.5,5.2,0,10.8,0,16.1c0,13.5,0,27.1,0,40.6c0,45.5,0,91.1,0,136.6
			c0,60.1,0,120.2,0,180.3c0,62.6,0,125.2,0,187.7c0,52.8,0,105.6,0,158.4c0,31.4,0,62.7,0,94.1C494.8,840.3,496.9,852,486.6,852.8z
			"/>
		<path d="M460,790.9c1.2,0.1,2.4-0.7,2.4-2.2c0-23.7,0-47.4,0-71.1c0-56.4,0-112.8,0-169.2c0-68.7,0-137.4,0-206
			c0-59,0-117.9,0-176.9c0-19.6,0-39.2,0-58.8c0-8.9,1.3-19,0-27.9c-0.1-0.4,0-0.8,0-1.2c0-0.8-0.3-1.3-0.8-1.7
			c0.1-1.2-0.6-2.5-2.2-2.6c-13.1-0.5-25.3-13.8-25.8-26.7c0-0.5-0.2-0.8-0.4-1.1c-0.3-0.6-1-1.1-1.9-1.1c-40.5,0-80.9,0-121.4,0
			c-64.5,0-129,0-193.6,0c-14.9,0-29.7,0-44.6,0c-0.9,0-1.6,0.5-1.9,1.1c-0.2,0.3-0.3,0.7-0.4,1.2C69.1,59.5,57,72.8,43.9,73.3
			c-1.8,0.1-2.5,1.9-2,3.2c-0.2,0.3-0.2,0.6-0.2,1c0,23.7,0,47.4,0,71.1c0,56.4,0,112.8,0,169.2c0,68.7,0,137.4,0,206
			c0,59,0,117.9,0,176.9c0,19.6,0,39.2,0,58.8c0,8.9-1.3,19,0,27.9c0.1,0.4,0,0.8,0,1.2c0,0.9,0.5,1.6,1.1,1.9
			c0.3,0.2,0.7,0.3,1.2,0.4c13,0.5,25.3,13.3,25.8,26.2c0,0.5,0.2,0.8,0.4,1.1c0.3,0.6,1,1.1,1.9,1.1c40.5,0,80.9,0,121.4,0
			c64.5,0,129,0,193.6,0c14.9,0,29.7,0,44.6,0c0.9,0,1.6-0.5,1.9-1.1c0.2-0.3,0.3-0.7,0.4-1.2c0.5-12.9,12.7-25.7,25.8-26.2
			C459.6,791,459.8,790.9,460,790.9z M429.3,814.9c-39.8,0-79.6,0-119.3,0c-64.5,0-129,0-193.6,0c-14.2,0-28.3,0-42.5,0
			c-1.7-13.9-13.9-26.5-27.8-28.3c0-23,0-46,0-69.1c0-56.4,0-112.8,0-169.2c0-68.7,0-137.4,0-206c0-59,0-117.9,0-176.9
			c0-19.6,0-39.2,0-58.8c0-8.9,1.3-19,0-27.9c-0.1-0.4,0-0.8,0-1.2c14-1.8,26.1-14.9,27.8-28.7c39.8,0,79.6,0,119.3,0
			c64.5,0,129,0,193.6,0c14.2,0,28.3,0,42.5,0c1.7,14.1,14.3,27.4,28.5,28.8c0,23.7,0,47.3,0,71c0,56.4,0,112.8,0,169.2
			c0,68.7,0,137.4,0,206c0,59,0,117.9,0,176.9c0,19.6,0,39.2,0,58.8c0,8.6-1.2,18.4-0.1,27C443.6,788.1,431.1,800.9,429.3,814.9z"/>
		<path d="M263.1,78.2h-3.7c-2.5,0-3.7,0.1-3.7,0.3c0,0.2-0.1,0.3-0.3,0.3c-0.3,0-0.6,0.2-0.9,0.6c-0.4,0.5-0.4,0.7-0.2,0.7
			c0.3,0,0.5,0.1,0.5,0.4c0.1,0.3,0.5,0.4,1.1,0.4c0.6,0,1,0.2,1.1,0.7c0.1,0.5,0.1,0.7-0.1,0.8c-0.2,0.1-0.3,0.5-0.3,1.3
			c0,0.7-0.1,1.2-0.4,1.3c-0.2,0.1-0.3,0.3-0.3,0.7c0,0.1,0.1,0.2,0.1,0.4c0,0.5-0.1,0.9-0.3,1.4c-0.2,0.5-0.4,0.8-0.7,0.8
			c-0.4,0.1-0.5,0.4-0.5,0.9c0,0.5-0.1,0.9-0.3,1.1c-0.2,0.2-0.4,0.8-0.4,1.7c-0.1,1-0.3,1.5-0.6,1.5c-0.4,0-0.5,0.2-0.4,0.5
			c0,0.2,0,0.4,0,0.4c-0.1,0.1-0.2,0.1-0.4,0.1c-0.4,0-0.7-0.1-0.9-0.2c-0.5-0.3-0.7-1.2-0.8-2.9c0-0.7-0.1-1.2-0.4-1.4
			c-0.2-0.2-0.3-0.7-0.3-1.6c0-1.3-0.3-2.2-0.9-2.6c-0.2-0.1-0.2-0.3,0.1-0.4c0.1,0,0.2-0.2,0.3-0.4c0.1-0.2,0.1-0.5,0.1-0.7
			c0-0.2-0.1-0.3-0.2-0.3c-0.1,0-0.3-0.3-0.4-0.8c-0.1-0.6-0.4-0.9-0.7-0.9c-0.3-0.1-0.4-0.2-0.4-0.3c0-0.4,0.5-0.5,1.4-0.5
			c1.3,0,1.9-0.2,1.9-0.7c0-0.2,0.1-0.4,0.3-0.4c0.2,0,0.1-0.3-0.3-0.8c-0.4-0.5-0.9-0.8-1.6-0.8c-0.7,0-1.1-0.1-1.2-0.3
			c-0.1-0.1-0.3-0.1-0.7,0.1c-0.4,0.2-0.6,0.2-0.7-0.1c-0.2-0.2-0.3-0.3-0.4-0.1c-0.1,0.2-0.5,0.3-1.1,0.3c-0.4,0-0.6,0-0.8-0.1
			c-0.1-0.1-0.2-0.3-0.3-0.7c-0.1-0.5-0.3-0.8-0.7-0.8c-0.2,0-0.5,0.2-0.8,0.5c-0.4,0.4-0.7,0.5-1.2,0.5c-0.4,0-0.6,0.1-0.6,0.4
			c0,0.3-0.1,0.4-0.3,0.4c-0.2,0-0.3,0.2-0.3,0.6c0,0.5,0.1,0.7,0.3,0.7c0.2,0,0.3,0.1,0.3,0.4c0,0.2,0.3,0.4,1,0.5
			c0.6,0.1,1.1,0.4,1.5,0.9c0.4,0.5,0.7,1.1,0.7,1.6c0,0.5,0.1,1,0.3,1.6c0.2,0.6,0.4,0.9,0.5,0.9c0.1,0,0.2,0.3,0.2,0.8
			c0,0.6,0.2,1.1,0.5,1.4c0.3,0.3,0.5,0.9,0.8,1.8c0.2,0.9,0.3,1.7,0.3,2.5c0,0.9,0.1,1.4,0.4,1.4c0.1,0.1,0.2,0.3,0.2,0.7
			c0,0.4,0.1,0.6,0.2,0.6c0.2,0.1,0.3,0.6,0.3,1.6c0,0.9,0.1,1.4,0.4,1.4c0.2,0,0.4,0.3,0.6,1c0.2,0.7,0.4,1,0.5,1
			c0.2,0,0.3,0.3,0.4,0.8c0.1,0.7,0.5,1,1.3,1c0.1,0,0.4,0,0.6-0.1c0.5-0.1,0.7-0.4,0.7-1.1c0-0.6,0.1-0.9,0.3-0.9
			c0.2,0,0.3-0.3,0.3-0.9c0-0.6,0.1-0.9,0.3-0.9c0.2-0.1,0.3-0.6,0.3-1.5c0-0.9,0.2-1.6,0.6-1.9c0.5-0.5,0.8-0.7,1.1-0.8
			c0.3-0.1,0.4-0.5,0.4-1.3c0-0.8,0.1-1.2,0.4-1.4c0.2-0.1,0.4-0.6,0.6-1.5c0.2-0.9,0.3-1.4,0.4-1.5c0.3-0.2,0.4-0.5,0.4-0.9
			c0-0.4,0.2-0.6,0.7-0.7c0.4,0,0.6-0.3,0.6-0.7c0-0.2-0.1-0.6-0.1-1c0-1,0.2-1.5,0.6-1.5c0.4,0,0.5-0.3,0.5-0.8
			c0-0.5,0.2-0.9,0.6-1.4c0.4-0.4,0.9-0.7,1.6-0.8c0.8-0.2,1.2-0.6,1.2-1.4c0-0.1,0-0.4-0.1-0.7L263.1,78.2z"/>
		<path d="M135,785.3c0.1,0,0.2-0.2,0.2-0.5c0-0.2,0-0.4-0.1-0.4c-0.1,0-0.1-0.1-0.1-0.3c0-0.2,0.1-0.4,0.2-0.6
			c0.1-0.3,0.1-0.5-0.2-0.6c-0.2-0.2-0.5-0.3-0.9-0.3c-0.5,0-0.8,0.1-1.1,0.4c-0.3,0.2-0.4,0.3-0.5,0.2c-0.1-0.1-0.4-0.1-0.8,0
			c-0.5,0.1-1.4,0.2-2.6,0.2c-0.9,0-1.4,0-1.5-0.1c-0.1-0.1-0.2,0-0.4,0.2c-0.1,0.1-0.3,0.2-0.4,0.2c-0.2,0-0.4,0-0.7-0.1
			c-0.7-0.2-1.1-0.2-1.3-0.2c-0.1,0-0.2,0-0.2,0c-0.1,0-0.3,0.1-0.4,0.3c-0.1,0.2-0.2,0.4-0.2,0.5c0,0.1,0,0.1,0.1,0.2
			c0,0,0.1,0.2,0.1,0.5c0,0.1,0,0.2-0.1,0.3c-0.1,0-0.2,0.1-0.3,0.1c-0.3,0-0.5,0.1-0.5,0.3c0,0,0,0.1,0.1,0.2
			c0.1,0.1,0.1,0.3,0.1,0.6c0,0.3-0.1,0.4-0.1,0.5c0,0.5,0.2,0.8,0.6,0.8c0.3,0,0.4-0.1,0.4-0.2c0-0.1,0.1-0.2,0.2-0.2
			c0.1,0,0.1,0,0.2-0.1c0,0,0-0.1,0-0.2c0-0.1-0.1-0.2-0.2-0.2c-0.1-0.1-0.1-0.1-0.1-0.2c0,0,0-0.1,0-0.1c0,0,0-0.1,0.1-0.1
			c0,0,0.1,0,0.2-0.1c0.2-0.1,0.2-0.2,0.2-0.3c0,0,0-0.1,0-0.2c0-0.1,0-0.1,0-0.2c0-0.1,0-0.2,0.1-0.2c0.1-0.1,0.1-0.3,0-0.6
			c-0.1-0.3-0.1-0.4,0-0.4c0.1,0,0.1,0.1,0.1,0.2c0,0.1,0.2,0.2,0.5,0.4c0.4,0.1,0.7,0.2,1.1,0.2c0.4,0,0.7,0.1,0.8,0.3
			c0.2,0.2,0.3,0.2,0.5,0.2c0.1,0,0.1,0,0.1,0c0.1,0,0.1,0,0,0.1c-0.3,0.3-0.4,2.2-0.5,5.8c0,0.8-0.1,1.2-0.3,1.4
			c-0.2,0.1-0.3,0.3-0.3,0.4c0,0.1-0.3,0.2-0.8,0.2l-0.7,0.1l-0.1,0.5c0,0,0,0.1,0,0.1s0,0.1,0,0.1c0,0.2,0.1,0.4,0.4,0.7
			c0.3,0.3,0.5,0.4,0.7,0.4c0.1,0,0.1,0,0.1-0.1c0-0.1,0-0.1-0.1-0.1c-0.1,0-0.1,0-0.1-0.1c0-0.1,0.2-0.1,0.5-0.1c0.1,0,0.4,0,0.8,0
			c0.4,0,0.7,0,0.9,0c0.6,0,0.9-0.1,1.1-0.2c0.1-0.1,0.3-0.2,0.6-0.1c0.2,0.1,0.3,0,0.4-0.1s0.2-0.1,0.3-0.1c0.1,0,0.3-0.1,0.5-0.2
			c0.1-0.1,0.2-0.2,0.2-0.3c0-0.1-0.1-0.2-0.2-0.5c-0.2-0.3-0.3-0.4-0.5-0.4c-0.1,0-0.2-0.1-0.2-0.2c0-0.1-0.1-0.2-0.3-0.1
			c0,0-0.1,0-0.1,0c-0.1,0-0.1,0-0.1,0c-0.1,0-0.2,0-0.3-0.1c0-0.1-0.1-0.3-0.1-0.5v-0.4c0-0.5,0-0.8,0-0.9c0-0.1,0.1-0.2,0.2-0.2
			c0.2,0,0.2-0.1,0.2-0.4c0-0.3-0.1-0.5-0.2-0.5c-0.1,0-0.2-0.4-0.2-1.1c0-0.8,0.1-1.2,0.2-1.4c0.1-0.1,0.2-0.5,0.2-1.2
			c0-0.7,0.1-1,0.1-1.1c0.1-0.2,0.5-0.2,1.2-0.2c1,0,1.5,0.1,1.6,0.4c0,0.1,0.1,0.2,0.4,0.5c0.2,0.2,0.3,0.4,0.3,0.8
			c0,0.3,0.1,0.5,0.1,0.5c0,0.1,0.2,0.1,0.4,0.1c0.2,0,0.4,0,0.4-0.1c0-0.1,0.1-0.2,0.3-0.2c0.2-0.1,0.3-0.2,0.3-0.4
			c0-0.2-0.1-0.4-0.2-0.5C134.9,785.4,134.9,785.3,135,785.3z"/>
		<path d="M155.6,781.9c-0.2-0.1-0.5-0.1-0.8-0.1c-0.1,0-0.2,0-0.5,0.1c-0.3,0.1-0.5,0.1-0.7,0.1h-0.1h-0.2c-0.2,0-0.5,0-1,0.1
			c-0.4,0-0.7,0.1-0.8,0.1c-0.1,0-0.2,0.1-0.2,0.2c0,0.2,0,0.3-0.1,0.3c-0.1,0-0.1,0-0.1,0.1c0,0.1,0,0.2,0,0.3
			c0,0.1,0.1,0.2,0.2,0.2c0.1,0.1,0.2,0.5,0.2,1.3c0,0.8,0.1,1.2,0.2,1.2c0.1,0,0.1,0.3,0.1,0.8v0.8h-1.3c-0.8,0-1.7,0-2.7-0.1
			l-1.4-0.1v-0.7c0-0.5,0-0.7,0.1-0.7c0.1,0,0.1-0.3,0.2-0.9c0-1.1,0.1-1.6,0.4-1.6c0.1,0,0.2,0,0.2-0.1c0-0.1,0.1-0.2,0.4-0.2
			c0.2,0,0.4-0.1,0.5-0.2c0.1-0.1,0.2-0.2,0.2-0.4c0-0.2-0.1-0.3-0.2-0.4c-0.2-0.1-0.5-0.2-1-0.2c-0.3,0-0.4,0-0.5,0.1
			c0,0-0.5,0.1-1.3,0.1c-0.9,0.1-1.7,0.2-2.4,0.5c-0.1,0-0.2,0.1-0.2,0.2c0,0.1,0.2,0.2,0.6,0.4l0.6,0.3l0,0.8v0.9v0.3
			c0,0.2,0,0.4,0.1,0.4c0.1,0.1,0.2,0.5,0.2,1.1c0,0.6-0.1,1.1-0.2,1.4c-0.1,0.3-0.2,0.6-0.2,0.8c0,0,0,0,0,0.1c0,0,0,0.1,0,0.1
			c0,0.2,0.1,0.4,0.1,0.6c0,0.5,0,1.1-0.1,1.8c-0.1,0.6-0.2,1-0.2,1.2c-0.1,0.2-0.4,0.3-0.8,0.3c-0.3,0-0.5,0.1-0.6,0.1
			c-0.1,0.1-0.1,0.2-0.1,0.4v0.5l0.7-0.1c0.3-0.1,1-0.1,2.2-0.1h0.7h0.7c1,0,1.6,0,1.6-0.1c0-0.1-0.1-0.3-0.2-0.5
			c-0.2-0.2-0.3-0.3-0.4-0.3h-0.1c-0.2,0.1-0.4,0.1-0.6-0.1c-0.1-0.1-0.2-0.1-0.3-0.2c0-0.1-0.1-0.2-0.1-0.4c0-0.3,0-0.5,0-0.8
			c0-0.9,0.1-1.6,0.1-2.1v-0.8h4.9l0.1,0.4c0,0.2,0.1,0.5,0.1,0.7c0,0.5,0,1.1-0.1,1.7c-0.1,0.6-0.2,1-0.3,1
			c-0.1,0.1-0.4,0.2-0.8,0.3c-0.3,0-0.5,0.1-0.5,0.1c-0.1,0.1-0.1,0.2-0.1,0.4c0,0.3,0.1,0.5,0.3,0.5c0.3,0.1,1.3,0.1,3.1,0.1
			c1.3,0,2,0,2.1-0.1c0.2-0.1,0.3-0.2,0.3-0.4c0-0.2-0.1-0.3-0.2-0.5c-0.1-0.1-0.3-0.2-0.4-0.2c0,0,0,0-0.1,0c0,0,0,0-0.1,0
			c-0.1,0.1-0.3,0.1-0.5,0l-0.4-0.1l0.1-3.5c0-2.3,0.1-3.5,0.2-3.6c0.1,0,0.1-0.3,0.1-0.9c0.1-1.1,0.2-1.6,0.4-1.6
			c0.1,0,0.2,0,0.2-0.1c0-0.1,0.1-0.2,0.4-0.2c0.2,0,0.4-0.1,0.5-0.2c0.2-0.1,0.2-0.3,0.2-0.4C156,782.1,155.9,782,155.6,781.9z
			 M144.8,790.8c-0.2-0.1-0.3-0.1-0.3-0.2c0-0.1,0-0.1,0.1-0.1c0.2,0,0.3,0.1,0.4,0.2c0,0,0,0,0,0.1
			C145,790.8,144.9,790.8,144.8,790.8z M145.5,790.7c-0.1,0-0.1-0.1-0.1-0.2c0-0.1,0-0.2,0.1-0.2c0.1,0,0.2,0.1,0.2,0.2
			C145.6,790.7,145.6,790.7,145.5,790.7z M145.5,787c-0.1,0-0.2-0.1-0.2-0.3c0-0.3,0.1-0.4,0.2-0.4c0.2,0,0.2,0.1,0.2,0.3
			C145.7,786.9,145.6,787,145.5,787z M152.6,790.8c-0.1,0.1-0.2,0.1-0.4,0c-0.2-0.1-0.3-0.1-0.3-0.2c0-0.1,0.1-0.1,0.2-0.1
			c0.3,0,0.5,0.1,0.5,0.2C152.7,790.7,152.6,790.8,152.6,790.8z M153,790.7c-0.1,0-0.2-0.1-0.2-0.2c0-0.1,0.1-0.2,0.2-0.2
			c0.1,0,0.1,0.1,0.1,0.2C153.1,790.7,153.1,790.7,153,790.7z M153,787c-0.1,0-0.2-0.1-0.2-0.3c0-0.3,0.1-0.4,0.2-0.4
			c0.1,0,0.2,0.1,0.2,0.3C153.2,786.9,153.1,787,153,787z"/>
		<path d="M163,792.1c0,0,0.1,0,0.1-0.1c0.1-0.2,0.1-0.3,0-0.3c-0.1,0-0.2,0.1-0.2,0.2C162.9,792,162.9,792.1,163,792.1z"/>
		<path d="M173.2,790.2c-0.1,0-0.3,0.2-0.5,0.5c-0.3,0.3-0.4,0.6-0.4,0.7c0,0.1-0.1,0.2-0.4,0.2c-0.1,0-0.2,0-0.3,0.1
			c0,0-0.1,0.1-0.1,0.1c0,0,0,0.1,0,0.3c0,0.2-0.1,0.3-0.4,0.3c0,0-0.1,0-0.1,0c-0.1,0-0.1,0-0.2,0c-0.2,0-0.4,0.1-0.6,0.3
			c-0.2,0.2-0.4,0.3-0.6,0.3c-0.1,0-0.2-0.1-0.2-0.2c0-0.1-0.1-0.1-0.4,0c-0.2,0.1-0.6,0.2-1.2,0.2c-0.5,0-0.7,0-0.7-0.1
			c0-0.1-0.1-0.1-0.2-0.1c-0.1,0-0.1-0.1-0.2-0.2c-0.1-0.2-0.1-0.3-0.1-0.4c0-0.1,0-0.2,0-0.3c0-0.2,0-0.4,0-0.6c0-0.3,0-0.5,0-0.8
			c0-0.3,0-0.5,0-0.8c0-0.3,0-0.5,0-0.6v-0.2c0-0.1,0.4-0.1,1.3-0.1c0.7,0,1.2,0.1,1.4,0.2c0.2,0.1,0.4,0.4,0.4,0.8
			c0,0.2,0,0.3,0.1,0.3c0,0,0.1,0,0.2,0c0.1-0.1,0.3-0.1,0.5-0.1c0.1,0,0.2,0,0.3-0.1c0-0.1,0.1-0.2,0.1-0.5c0-0.1,0-0.2,0-0.3
			c0-0.2,0-0.3,0-0.4v-0.2c0-0.3,0-0.6,0.1-0.7c0.1-0.1,0.1-0.3,0-0.4c-0.1-0.1-0.1-0.3,0.1-0.4c0.1-0.1,0.2-0.2,0.2-0.4
			c0-0.3-0.3-0.4-1-0.4c-0.4,0-0.6,0.2-0.6,0.5c0,0.1,0,0.2,0.1,0.3c0,0.2,0,0.4,0,0.5c-0.1,0.1-0.3,0.2-0.9,0.3
			c-0.5,0.1-1,0.1-1.5,0.1h-0.6v-0.6c0-0.4,0.1-0.6,0.2-0.6c0.1,0,0.2-0.1,0.2-0.4c0-0.3-0.1-0.5-0.2-0.9c-0.1-0.2-0.2-0.4-0.1-0.4
			c0-0.1,0.1-0.1,0.2-0.3c0.2-0.1,0.3-0.3,0.2-0.5c0,0,0-0.1,0-0.2c0-0.1,0.1-0.3,0.4-0.3c0.3-0.1,0.7-0.1,1.5-0.2
			c0.7,0,1.1-0.1,1.1-0.1c0.3,0,0.5,0.1,0.6,0.2c0.1,0.2,0.3,0.3,0.5,0.4c0.2,0.1,0.3,0.2,0.3,0.3c0,0.1,0.1,0.2,0.3,0.3
			c0.2,0.1,0.3,0.2,0.3,0.3c0,0.2,0.1,0.3,0.3,0.5c0.2,0.2,0.4,0.2,0.6,0.2h0c0.3,0,0.4-0.2,0.4-0.6c0-0.2-0.1-0.3-0.2-0.5
			c-0.1-0.1-0.2-0.3-0.2-0.5c0-0.3-0.1-0.5-0.2-0.5c-0.1,0-0.1-0.1,0-0.4c0.1-0.1,0.1-0.2,0.1-0.3c0,0-0.1-0.1-0.1-0.1
			c-0.1-0.1-0.2-0.2-0.2-0.3c0-0.1-0.1-0.3-0.3-0.5c-0.2-0.2-0.4-0.3-0.6-0.1c-0.3,0.1-1.8,0.3-4.7,0.4h-0.7c-1.5,0-2.2-0.1-2.3-0.3
			c0-0.1-0.1-0.1-0.2-0.1c-0.1,0-0.2,0-0.2,0.1l0,0.1c0,0.1,0,0.1,0,0.1c0,0,0,0.1,0,0.2c0,0.1,0,0.2,0,0.2c0,0.2-0.1,0.3-0.3,0.3
			c-0.2,0.1-0.3,0.2-0.2,0.5c0.1,0.2,0.1,0.4,0.2,0.5c0.1,0.1,0.2,0.1,0.3,0.1c0.1,0,0.3,0,0.4,0c0.1,0,0.2,0,0.4,0
			c0.3,0,0.5,0.1,0.6,0.4c0.1,0.2,0.1,0.7,0.1,1.4c0,0.9-0.1,1.4-0.2,1.4c-0.1,0-0.1,0.2,0,0.4c0.1,0.2,0.1,0.4,0,0.6
			c-0.1,0.2-0.2,0.3-0.3,0.3c-0.1,0-0.1,0.1,0.1,0.2c0.1,0.1,0.1,0.3,0.1,0.6c0,0.5-0.1,1.5-0.2,2.8l-0.1,0.9H164
			c-0.4,0-0.6,0.1-0.6,0.3c0,0.2-0.1,0.3-0.3,0.3c-0.1,0-0.2,0.1-0.2,0.3c0,0.3,0.1,0.5,0.3,0.6c0.2,0.1,0.3,0.2,0.3,0.4
			c0,0.1,0.2,0.1,0.7,0.1c0.5,0,0.8-0.1,0.9-0.3c0.1-0.1,0.5-0.2,1.2-0.2c0.5,0,0.9,0,1.3,0c0.7,0,1.1,0.1,1.2,0.2
			c0,0.1,0.2,0.1,0.4,0c0.2-0.1,0.7-0.2,1.5-0.2c0.8,0,1.3,0,1.5-0.1c0.2,0,0.3-0.1,0.5-0.3c0.2-0.2,0.3-0.3,0.2-0.5
			c0-0.2,0-0.3,0.1-0.4c0.1-0.1,0.2-0.3,0.2-0.8c0-0.3,0-0.5,0-0.6c0-0.1,0.1-0.1,0.2-0.1c0.2,0,0.3-0.2,0.3-0.5
			c0-0.2-0.1-0.4-0.2-0.6C173.5,790.3,173.3,790.2,173.2,790.2z"/>
		<path d="M205.7,782.6c-0.2-0.1-0.5-0.1-0.8-0.1c-0.1,0-0.2,0-0.5,0.1c-0.3,0.1-0.5,0.1-0.7,0.1h-0.1h-0.2c-0.2,0-0.5,0-1,0.1
			c-0.4,0-0.7,0.1-0.8,0.1c-0.1,0-0.2,0.1-0.2,0.2c0,0.2,0,0.3-0.1,0.3c-0.1,0-0.1,0-0.1,0.1c0,0.1,0,0.2,0,0.3
			c0,0.1,0.1,0.2,0.2,0.2c0.1,0.1,0.2,0.5,0.2,1.3c0,0.8,0.1,1.2,0.2,1.2c0.1,0,0.1,0.3,0.1,0.8v0.8h-1.3c-0.8,0-1.7,0-2.7-0.1
			l-1.4-0.1v-0.7c0-0.5,0-0.7,0.1-0.7c0.1,0,0.1-0.3,0.2-0.9c0-1.1,0.1-1.6,0.4-1.6c0.1,0,0.2,0,0.2-0.1c0-0.1,0.1-0.2,0.4-0.2
			c0.2,0,0.4-0.1,0.5-0.2c0.1-0.1,0.2-0.2,0.2-0.4c0-0.2-0.1-0.3-0.2-0.4c-0.2-0.1-0.5-0.2-1-0.2c-0.3,0-0.4,0-0.5,0.1
			c0,0-0.5,0.1-1.3,0.1c-0.9,0.1-1.7,0.2-2.4,0.5c-0.1,0-0.2,0.1-0.2,0.2c0,0.1,0.2,0.2,0.6,0.4l0.6,0.3l0,0.8v0.9v0.3
			c0,0.2,0,0.4,0.1,0.4c0.1,0.1,0.2,0.5,0.2,1.1c0,0.6-0.1,1.1-0.2,1.4c-0.1,0.3-0.2,0.6-0.2,0.8c0,0,0,0,0,0.1c0,0,0,0.1,0,0.1
			c0,0.2,0.1,0.4,0.1,0.6c0,0.5,0,1.1-0.1,1.8c-0.1,0.6-0.2,1-0.2,1.2c-0.1,0.2-0.4,0.3-0.8,0.3c-0.3,0-0.5,0.1-0.6,0.1
			c-0.1,0.1-0.1,0.2-0.1,0.4v0.5l0.7-0.1c0.3-0.1,1-0.1,2.2-0.1h0.7h0.7c1,0,1.6,0,1.6-0.1c0-0.1-0.1-0.3-0.2-0.5
			c-0.2-0.2-0.3-0.3-0.4-0.3h-0.1c-0.2,0.1-0.4,0.1-0.6-0.1c-0.1-0.1-0.2-0.1-0.3-0.2c0-0.1-0.1-0.2-0.1-0.4c0-0.3,0-0.5,0-0.8
			c0-0.9,0.1-1.6,0.1-2.1v-0.8h4.9l0.1,0.4c0,0.2,0.1,0.5,0.1,0.7c0,0.5,0,1.1-0.1,1.7c-0.1,0.6-0.2,1-0.3,1
			c-0.1,0.1-0.4,0.2-0.8,0.3c-0.3,0-0.5,0.1-0.5,0.1c-0.1,0.1-0.1,0.2-0.1,0.4c0,0.3,0.1,0.5,0.3,0.5c0.3,0.1,1.3,0.1,3.1,0.1
			c1.3,0,2,0,2.1-0.1c0.2-0.1,0.3-0.2,0.3-0.4c0-0.2-0.1-0.3-0.2-0.5c-0.1-0.2-0.3-0.2-0.4-0.2c0,0-0.1,0-0.1,0
			c-0.1,0.1-0.3,0.1-0.5,0l-0.4-0.1l0.1-3.5c0-2.3,0.1-3.5,0.2-3.6c0.1,0,0.1-0.3,0.1-0.9c0.1-1.1,0.2-1.6,0.4-1.6
			c0.1,0,0.2,0,0.2-0.1c0-0.1,0.1-0.2,0.4-0.2c0.2,0,0.4-0.1,0.5-0.2c0.2-0.1,0.2-0.3,0.2-0.4C206.1,782.8,206,782.7,205.7,782.6z
			 M194.9,791.5c-0.2-0.1-0.3-0.1-0.3-0.2c0-0.1,0-0.1,0.1-0.1c0.2,0,0.3,0.1,0.4,0.2c0,0,0,0,0,0.1
			C195.1,791.6,195,791.6,194.9,791.5z M195.6,791.5c-0.1,0-0.1-0.1-0.1-0.2c0-0.1,0-0.2,0.1-0.2c0.1,0,0.2,0.1,0.2,0.2
			C195.7,791.4,195.7,791.5,195.6,791.5z M195.6,787.8c-0.1,0-0.2-0.1-0.2-0.3c0-0.3,0.1-0.4,0.2-0.4c0.2,0,0.2,0.1,0.2,0.3
			C195.8,787.7,195.7,787.8,195.6,787.8z M202.7,791.5c-0.1,0.1-0.2,0.1-0.4,0c-0.2-0.1-0.3-0.1-0.3-0.2c0-0.1,0.1-0.1,0.2-0.1
			c0.3,0,0.5,0.1,0.5,0.2C202.8,791.5,202.7,791.5,202.7,791.5z M203.1,791.5c-0.1,0-0.2-0.1-0.2-0.2c0-0.1,0.1-0.2,0.2-0.2
			c0.1,0,0.1,0.1,0.1,0.2C203.2,791.4,203.2,791.5,203.1,791.5z M203.1,787.8c-0.1,0-0.2-0.1-0.2-0.3c0-0.3,0.1-0.4,0.2-0.4
			c0.1,0,0.2,0.1,0.2,0.3C203.3,787.7,203.2,787.8,203.1,787.8z"/>
		<path d="M218.9,782c-0.1-0.1-0.7-0.1-1.8-0.1c-1,0-1.5,0-1.5,0.1c0,0.1-0.2,0.1-0.5,0.1c-0.3,0-0.5,0.1-0.5,0.2
			c0,0.1,0,0.2-0.1,0.2c-0.1,0-0.1,0.1-0.1,0.3c0,0.3,0.1,0.4,0.2,0.5c0.1,0.1,0.2,0.5,0.2,1.3c0,0.8,0,1.2,0.1,1.3
			c0.1,0,0.1,0.4,0.1,1.1c0,0.7,0,1-0.1,1.1c-0.1,0-0.2,0.8-0.2,2.2c0,1.2-0.1,2-0.2,2.2c-0.1,0.2-0.4,0.4-0.9,0.5
			c-0.3,0-0.5,0.1-0.5,0.1c-0.1,0.1-0.1,0.2-0.1,0.4c0,0.3,0.1,0.5,0.2,0.5c0.2,0,0.3,0.1,0.5,0.2c0.2,0.2,0.3,0.2,0.3,0.1
			c0.1-0.1,0.8-0.2,2.1-0.2c1.1,0,1.6,0.1,1.6,0.2c0,0.1,0.1,0.1,0.3,0.1c0.2,0,0.3,0,0.3-0.1c0-0.1,0.1-0.2,0.3-0.3
			c0.2-0.1,0.3-0.2,0.3-0.3c0-0.5-0.4-0.7-1-0.8l-0.6-0.1l0.1-3.5c0-2.3,0.1-3.5,0.2-3.6c0.1-0.1,0.1-0.4,0.1-1
			c0.1-1.1,0.2-1.6,0.4-1.6c0.1,0,0.2,0,0.2-0.1c0-0.1,0.1-0.2,0.4-0.2c0.2,0,0.4-0.1,0.5-0.2c0.1-0.1,0.2-0.2,0.2-0.4
			C219.2,782.3,219.1,782.1,218.9,782z M215.5,790.9c-0.1,0-0.2,0-0.2-0.1s0.1-0.1,0.2-0.1c0.1,0,0.2,0,0.2,0.1
			S215.6,790.9,215.5,790.9z M216.3,787.1c-0.1,0-0.2-0.1-0.2-0.3c0-0.2,0.1-0.3,0.2-0.3c0.1,0,0.2,0.1,0.2,0.3
			C216.5,787,216.5,787.1,216.3,787.1z"/>
		<path d="M226.2,792.1c0,0,0.1,0,0.1-0.1c0.1-0.2,0.1-0.3,0-0.3c-0.1,0-0.2,0.1-0.2,0.2C226.1,792,226.1,792.1,226.2,792.1z"/>
		<path d="M236.4,790.2c-0.1,0-0.3,0.2-0.5,0.5c-0.3,0.3-0.4,0.6-0.4,0.7c0,0.1-0.1,0.2-0.4,0.2c-0.1,0-0.2,0-0.3,0.1
			c0,0-0.1,0.1-0.1,0.1c0,0,0,0.1,0,0.3c0,0.2-0.1,0.3-0.4,0.3c0,0-0.1,0-0.1,0c-0.1,0-0.1,0-0.2,0c-0.2,0-0.4,0.1-0.6,0.3
			c-0.2,0.2-0.4,0.3-0.6,0.3c-0.1,0-0.2-0.1-0.2-0.2c0-0.1-0.1-0.1-0.4,0c-0.2,0.1-0.6,0.2-1.2,0.2c-0.5,0-0.7,0-0.7-0.1
			c0-0.1-0.1-0.1-0.2-0.1c-0.1,0-0.1-0.1-0.2-0.2c-0.1-0.2-0.1-0.3-0.1-0.4c0-0.1,0-0.2,0-0.3c0-0.2,0-0.4,0-0.6c0-0.3,0-0.5,0-0.8
			c0-0.3,0-0.5,0-0.8s0-0.5,0-0.6v-0.2c0-0.1,0.4-0.1,1.3-0.1c0.7,0,1.2,0.1,1.4,0.2c0.2,0.1,0.4,0.4,0.4,0.8c0,0.2,0,0.3,0.1,0.3
			c0,0,0.1,0,0.2,0c0.1-0.1,0.3-0.1,0.5-0.1c0.1,0,0.2,0,0.3-0.1c0-0.1,0.1-0.2,0.1-0.5c0-0.1,0-0.2,0-0.3c0-0.2,0-0.3,0-0.4v-0.2
			c0-0.3,0-0.6,0.1-0.7c0.1-0.1,0.1-0.3,0-0.4c-0.1-0.1-0.1-0.3,0.1-0.4c0.1-0.1,0.2-0.2,0.2-0.4c0-0.3-0.3-0.4-1-0.4
			c-0.4,0-0.6,0.2-0.6,0.5c0,0.1,0,0.2,0.1,0.3c0,0.2,0,0.4,0,0.5c-0.1,0.1-0.3,0.2-0.9,0.3c-0.5,0.1-1,0.1-1.5,0.1H230v-0.6
			c0-0.4,0.1-0.6,0.2-0.6c0.1,0,0.2-0.1,0.2-0.4c0-0.3-0.1-0.5-0.2-0.9c-0.1-0.2-0.2-0.4-0.1-0.4c0-0.1,0.1-0.1,0.2-0.3
			c0.2-0.1,0.3-0.3,0.2-0.5c0,0,0-0.1,0-0.2c0-0.1,0.1-0.3,0.4-0.3c0.3-0.1,0.7-0.1,1.5-0.2c0.7,0,1.1-0.1,1.1-0.1
			c0.3,0,0.5,0.1,0.6,0.2c0.1,0.2,0.3,0.3,0.5,0.4c0.2,0.1,0.3,0.2,0.3,0.3c0,0.1,0.1,0.2,0.3,0.3c0.2,0.1,0.3,0.2,0.3,0.3
			c0,0.2,0.1,0.3,0.3,0.5c0.2,0.2,0.4,0.2,0.6,0.2h0c0.3,0,0.4-0.2,0.4-0.6c0-0.2-0.1-0.3-0.2-0.5c-0.1-0.1-0.2-0.3-0.2-0.5
			c0-0.3-0.1-0.5-0.2-0.5c-0.1,0-0.1-0.1,0-0.4c0.1-0.1,0.1-0.2,0.1-0.3c0,0-0.1-0.1-0.1-0.1c-0.1-0.1-0.2-0.2-0.2-0.3
			c0-0.1-0.1-0.3-0.3-0.5c-0.2-0.2-0.4-0.3-0.6-0.1c-0.3,0.1-1.8,0.3-4.7,0.4h-0.7c-1.5,0-2.2-0.1-2.3-0.3c0-0.1-0.1-0.1-0.2-0.1
			c-0.1,0-0.2,0-0.2,0.1l0,0.1c0,0.1,0,0.1,0,0.1c0,0,0,0.1,0,0.2c0,0.1,0,0.2,0,0.2c0,0.2-0.1,0.3-0.3,0.3
			c-0.2,0.1-0.3,0.2-0.2,0.5c0.1,0.2,0.1,0.4,0.2,0.5c0.1,0.1,0.2,0.1,0.3,0.1c0.1,0,0.3,0,0.4,0c0.1,0,0.2,0,0.4,0
			c0.3,0,0.5,0.1,0.6,0.4c0.1,0.2,0.1,0.7,0.1,1.4c0,0.9-0.1,1.4-0.2,1.4c-0.1,0-0.1,0.2,0,0.4c0.1,0.2,0.1,0.4,0,0.6
			c-0.1,0.2-0.2,0.3-0.3,0.3c-0.1,0-0.1,0.1,0.1,0.2c0.1,0.1,0.1,0.3,0.1,0.6c0,0.5-0.1,1.5-0.2,2.8l-0.1,0.9h-0.6
			c-0.4,0-0.6,0.1-0.6,0.3c0,0.2-0.1,0.3-0.3,0.3c-0.1,0-0.2,0.1-0.2,0.3c0,0.3,0.1,0.5,0.3,0.6c0.2,0.1,0.3,0.2,0.3,0.4
			c0,0.1,0.2,0.1,0.7,0.1c0.5,0,0.8-0.1,0.9-0.3c0.1-0.1,0.5-0.2,1.2-0.2c0.5,0,0.9,0,1.3,0c0.7,0,1.1,0.1,1.2,0.2
			c0,0.1,0.2,0.1,0.4,0c0.2-0.1,0.7-0.2,1.5-0.2c0.8,0,1.3,0,1.5-0.1c0.2,0,0.3-0.1,0.5-0.3c0.2-0.2,0.3-0.3,0.2-0.5
			c0-0.2,0-0.3,0.1-0.4c0.1-0.1,0.2-0.3,0.2-0.8c0-0.3,0-0.5,0-0.6c0-0.1,0.1-0.1,0.2-0.1c0.2,0,0.3-0.2,0.3-0.5
			c0-0.2-0.1-0.4-0.2-0.6C236.7,790.3,236.5,790.2,236.4,790.2z"/>
		<path d="M250.4,780.4C250.5,780.3,250.5,780.3,250.4,780.4c0.1-0.1,0-0.1-0.2-0.1c-0.2,0-0.3,0.1-0.3,0.2
			C250,780.5,250.1,780.5,250.4,780.4C250.3,780.4,250.4,780.4,250.4,780.4z"/>
		<path d="M257.3,792.7c-0.1,0-0.2-0.1-0.3-0.4c-0.1-0.2-0.3-0.4-0.5-0.4c-0.2,0-0.4-0.1-0.6-0.2c-0.2-0.1-0.4-0.2-0.4-0.4
			c-0.1-0.1-0.1-0.2-0.3-0.2s-0.3-0.1-0.6-0.4c-0.2-0.3-0.4-0.6-0.6-0.9c-0.1-0.3-0.4-0.6-0.8-1.1c-0.4-0.5-0.7-0.7-0.8-0.7
			c-0.1,0-0.2-0.1-0.4-0.3c-0.1-0.1-0.2-0.2-0.1-0.3c0,0,0.1-0.1,0.3-0.2c0.8-0.3,1.2-0.6,1.2-0.9c0-0.5,0.1-0.7,0.3-0.7
			c0.1,0,0.2-0.1,0.4-0.2c0.2-0.2,0.2-0.7,0.2-1.5c0-1-0.1-1.5-0.3-1.7c-0.1-0.1-0.2-0.2-0.4-0.2c-0.1,0-0.2,0-0.2-0.1
			c0-0.1-0.1-0.2-0.4-0.3c-0.3-0.1-0.4-0.3-0.5-0.5l-0.2-0.3c-0.1-0.1-0.2-0.1-0.2,0.1c0,0.1-0.3,0.1-0.8,0.1c-0.6,0-0.9,0-0.9-0.1
			c0-0.1-0.1-0.1-0.4-0.1c-0.3,0-0.5-0.1-0.6-0.3c-0.2-0.2-0.3-0.3-0.4-0.3s-0.2,0.1-0.1,0.3c0,0,0,0,0,0.1v0.1
			c0,0.1-0.6,0.2-1.8,0.2h-1.9l-0.5,0.5c-0.3,0.3-0.5,0.6-0.5,0.7c0,0.1,0.2,0.2,0.5,0.3c0.3,0.1,0.5,0.1,0.5,0.2
			c0,0.1,0,0.1,0.1,0.1c0.2,0,0.4,0.2,0.6,0.5c0.2,0.3,0.3,0.7,0.3,1.2c0,0.4,0.1,0.6,0.1,0.6c0,0.2-0.1,0.4-0.2,0.5
			c-0.2,0.1-0.2,0.2-0.1,0.3c0.1,0.1,0.2,0.3,0.2,0.7c0,0.3-0.1,0.5-0.2,0.5c-0.1,0-0.2,0,0,0.1c0.1,0.1,0.2,0.2,0.2,0.4
			c0,0.2-0.1,0.4-0.2,0.5c-0.1,0.1-0.1,0.3,0.1,0.4c0.1,0.1,0.2,0.3,0.2,0.4c0,0.1-0.1,0.3-0.2,0.4c-0.2,0.2-0.3,0.7-0.3,1.6
			c0,0.7,0,1.1-0.1,1.2c0,0.1-0.1,0.2-0.3,0.3c-0.2,0.1-0.3,0.1-0.3,0.2c0,0.1-0.3,0.1-0.8,0.1c-0.4,0-0.6,0.1-0.7,0.1
			c-0.1,0.1-0.1,0.2-0.1,0.5c0,0.2,0.2,0.5,0.6,0.8c0.2,0.1,0.3,0.2,0.5,0.2c0.2,0,0.3-0.1,0.3-0.2c0.1-0.1,0.8-0.2,2.1-0.2
			c1.3,0,2.1-0.1,2.2-0.3c0.1-0.1,0.2-0.2,0.3-0.2c0.1,0,0.2-0.1,0.2-0.2c0-0.1-0.1-0.2-0.4-0.2c-0.3,0-0.4-0.1-0.5-0.3
			c0-0.2-0.2-0.3-0.5-0.4c-0.4-0.1-0.5-0.2-0.5-0.4c0-0.1,0-0.2,0.1-0.3c0.2-0.2,0.2-0.3,0.1-0.4c-0.1,0-0.2-0.6-0.2-1.6
			c0-0.3,0-0.6,0-1c0-0.3,0-0.4,0.1-0.5c0-0.1,0.1-0.1,0.2-0.1c0.5,0,1,0.2,1.5,0.5c0.5,0.4,0.8,0.7,0.8,1c0,0.2,0.1,0.3,0.2,0.3
			s0.2,0.1,0.2,0.4c0,0.5,0.3,0.8,0.8,1c0.2,0.1,0.4,0.3,0.5,0.7c0.1,0.4,0.3,0.8,0.7,1.2l0.6,0.7l0.9-0.1c0.1,0,0.3,0,0.6-0.1
			c0.3,0,0.6,0,0.8-0.1c0.2,0,0.4-0.1,0.7-0.1c0.3-0.1,0.4-0.1,0.6-0.2c0.1-0.1,0.2-0.2,0.2-0.3
			C257.4,792.8,257.4,792.7,257.3,792.7z M251.7,785.9c-0.1,0-0.2,0-0.2,0.1c-0.1,0-0.1,0,0,0.1c0.2,0,0.2,0.1,0.2,0.2
			c0,0.1-0.1,0.3-0.4,0.4c-0.2,0.2-0.5,0.3-0.7,0.3c-0.3,0-0.6,0.1-1.1,0.2c-0.1,0-0.2,0-0.3,0c-0.2,0-0.4-0.1-0.7-0.3
			c-0.2-0.2-0.3-0.3-0.4-0.3c0-0.1,0-0.1,0.1-0.2c0.1-0.1,0.2-0.7,0.2-1.6v-1.2c0-0.3,0.1-0.5,0.2-0.7c0.1-0.2,0.3-0.4,0.4-0.4h0.1
			l0.4,0.1c0.3,0,0.5,0.1,0.8,0.1c0.2,0.1,0.4,0.1,0.4,0.1c0,0.1,0.1,0.1,0.4,0.2c0.3,0.1,0.4,0.2,0.4,0.3c0,0.1,0.1,0.3,0.2,0.4
			c0.1,0.1,0.2,0.2,0.1,0.3c-0.1,0.1-0.1,0.3,0.1,0.6c0.1,0.2,0.2,0.5,0.2,0.8v0.1c0,0.2-0.1,0.4-0.1,0.4S251.9,785.9,251.7,785.9z"
			/>
		<path d="M246,779.4c0-0.1-0.1-0.1-0.3-0.1c-0.2,0-0.3,0-0.3,0.1c0,0.1,0.1,0.2,0.3,0.2C245.9,779.5,246,779.5,246,779.4z"/>
		<path d="M276.6,785.7c-0.2-0.1-0.2-0.2-0.2-0.5c0-0.3,0-0.5-0.1-0.5c-0.1,0-0.1-0.1-0.1-0.4c0-0.3-0.1-0.4-0.2-0.4
			c-0.1,0-0.2-0.1-0.3-0.3c-0.1-0.2-0.2-0.3-0.3-0.4c-0.1-0.1-0.2-0.2-0.2-0.4c0-0.2-0.1-0.3-0.4-0.3c-0.7,0-1-0.1-1-0.4
			c0-0.1-0.1-0.2-0.2-0.2c-0.1,0-0.2,0-0.2-0.1s-0.1-0.1-0.3-0.1c-0.2,0-0.3-0.1-0.4-0.2c0-0.1-0.5-0.2-1.5-0.2
			c-0.9,0-1.5,0.1-1.6,0.2c-0.1,0.1-0.2,0.2-0.4,0.2c-0.2,0-0.3,0.1-0.4,0.3c-0.1,0.2-0.3,0.4-0.6,0.4c-0.3,0-0.6,0.1-1.1,0.2
			c-0.5,0.1-0.7,0.3-0.8,0.5c0,0.2-0.2,0.4-0.5,0.7c-0.3,0.3-0.4,0.5-0.4,0.5c0,0.1-0.1,0.1-0.2,0.1c-0.1,0-0.2,0.1-0.3,0.4
			c-0.1,0.2-0.2,0.5-0.3,0.7c-0.2,0.3-0.2,0.8-0.2,1.8c0,1.2,0.1,2.1,0.4,2.9c0.5,1.4,0.9,2.2,1.2,2.3c0.2,0,0.3,0.1,0.3,0.3
			c0,0.2,0.2,0.2,0.4,0.2c0.2,0,0.4,0,0.4,0.1c0,0.1,0.1,0.1,0.3,0.1c0.2,0,0.3,0.1,0.3,0.4c0,0.2,0,0.3,0.1,0.4
			c0.1,0.1,0.2,0,0.4-0.1c0.1-0.1,0.2-0.1,0.3,0c0.2,0.1,0.9,0.2,2.2,0.2c1.1,0,1.7-0.1,1.7-0.2c0-0.1,0.3-0.2,0.7-0.2
			c0.4,0,0.6-0.1,0.6-0.2c0-0.2,0.1-0.3,0.2-0.3c0,0,0.2-0.1,0.4-0.3c0.3-0.2,0.4-0.3,0.5-0.3c0.1,0,0.2-0.1,0.2-0.3
			c0.1-0.2,0.2-0.3,0.3-0.3c0.1,0,0.2-0.1,0.3-0.3c0-0.2,0.2-0.3,0.4-0.3c0.2-0.1,0.3-0.1,0.3-0.2c0-0.1,0.1-0.1,0.2-0.1
			c0.1,0,0.2-0.2,0.2-0.6c0-0.3,0-0.5-0.1-0.5c-0.1,0-0.1-0.1,0-0.2c0.1-0.1,0.2-0.8,0.2-2.1c0-0.3,0-0.7,0-1.1
			C276.9,786,276.8,785.7,276.6,785.7z M274.4,788.8c-0.1,0-0.2,0.2-0.2,0.4c0,0.3-0.1,0.4-0.2,0.5c-0.1,0.1-0.2,0.4-0.3,0.8
			c-0.1,0.4-0.1,0.6-0.3,0.6c-0.1,0-0.2,0-0.2,0.1c0,0.1-0.1,0.2-0.4,0.2c-0.3,0.1-0.4,0.2-0.4,0.3c0,0.1,0,0.2-0.1,0.2
			c-0.1,0.1-0.2,0.1-0.4,0.2c-0.1,0.1-0.2,0.1-0.3,0.1c0,0.1-0.2,0.1-0.4,0.1c-0.2,0-0.3,0.1-0.5,0.2c-0.1,0.1-0.2,0.1-0.4,0.1
			c-0.2,0-0.4,0-0.7-0.1c-0.5-0.1-1-0.3-1.3-0.6c-0.3-0.3-0.7-0.8-1-1.5c-0.3-0.5-0.4-0.9-0.5-1.1c0-0.2-0.1-0.7-0.1-1.4
			c0-0.7,0-1.1,0.1-1.4c0-0.2,0.1-0.5,0.3-0.8c0.3-0.5,0.6-0.9,1-1.3c0.4-0.4,0.8-0.6,1-0.7c0.3,0,0.5-0.1,0.5-0.3
			c0-0.1,0.1-0.2,0.2-0.2c0.1,0,0.2,0,0.2-0.1c0-0.1,0.1-0.1,0.3-0.1c0.2,0,0.3,0,0.3,0.1c0,0.1,0.3,0.1,0.9,0.1
			c0.5,0,0.8,0.1,0.8,0.2c0,0.1,0.1,0.2,0.3,0.3c0.2,0.1,0.3,0.2,0.3,0.3c0,0.1,0.1,0.2,0.3,0.3c0.3,0.1,0.5,0.4,0.5,0.8
			c0,0.2,0.1,0.5,0.3,0.8c0.2,0.3,0.3,0.7,0.3,1.1c0,0.5,0,0.7,0.1,0.8c0.1,0.1,0.1,0.2,0.1,0.4
			C274.6,788.6,274.6,788.7,274.4,788.8z"/>
		<path d="M285.5,779.8c0.2,0,0.3-0.1,0.3-0.2c0-0.1-0.1-0.1-0.3-0.1s-0.3,0-0.3,0.1C285.3,779.7,285.4,779.8,285.5,779.8z"/>
		<path d="M293.5,782.4c-0.1,0-0.2,0-0.2-0.1c0-0.1-0.1-0.2-0.4-0.3c-0.3-0.1-0.4-0.3-0.5-0.5l-0.2-0.3c-0.1-0.1-0.2-0.1-0.2,0.1
			c0,0.1-0.3,0.1-0.8,0.1c-0.6,0-0.9,0-0.9-0.1s-0.1-0.1-0.3-0.1c-0.5,0-0.8-0.1-0.8-0.4c0-0.1-0.1-0.2-0.3-0.2s-0.3,0.1-0.2,0.3
			c0,0,0,0,0,0.1c0,0,0,0,0,0.1c0,0.1-0.6,0.2-1.8,0.2h-1.8l-0.5,0.5c-0.3,0.3-0.5,0.5-0.5,0.7c0,0.2,0.2,0.4,0.7,0.4
			c0.2,0,0.3,0,0.3,0.1s0,0.1,0.1,0.1c0.2,0,0.4,0.2,0.6,0.5c0.2,0.3,0.3,0.7,0.3,1.2c0,0.4,0.1,0.6,0.1,0.6c0,0.2-0.1,0.4-0.2,0.5
			c-0.2,0.1-0.2,0.2-0.1,0.3c0.1,0.1,0.2,0.3,0.2,0.7c0,0.3-0.1,0.5-0.2,0.5c-0.2,0-0.2,0,0,0.1c0.1,0.1,0.1,0.3,0,0.6
			c-0.1,0.3-0.1,0.5,0.1,0.6c0.1,0.1,0.1,0.2,0.1,0.3c0,0.2-0.1,0.4-0.2,0.5c-0.1,0.1-0.1,0.6-0.2,1.6l0,1.5l-0.4,0.2
			c-0.2,0.1-0.5,0.2-1.1,0.2c-0.3,0-0.5,0.1-0.5,0.1c-0.1,0.1-0.1,0.2-0.1,0.4c0,0.2,0.2,0.5,0.6,0.8c0.2,0.1,0.3,0.2,0.5,0.2
			c0.2,0,0.3-0.1,0.3-0.2c0.1-0.1,0.8-0.2,2.1-0.2c1.4-0.1,2.1-0.1,2.2-0.3c0.1-0.1,0.2-0.2,0.3-0.2c0.1,0,0.2-0.1,0.2-0.2
			c0-0.1-0.1-0.2-0.4-0.2c-0.3,0-0.4-0.1-0.5-0.3c0-0.2-0.2-0.3-0.5-0.4c-0.4-0.1-0.5-0.2-0.5-0.4c0-0.1,0-0.2,0.1-0.3
			c0.2-0.2,0.2-0.3,0.1-0.4c-0.1,0-0.2-0.6-0.2-1.6c0-0.3,0-0.6,0-1c0-0.3,0-0.4,0.1-0.5c0-0.1,0.1-0.1,0.2-0.1c0.2,0,0.5,0,0.8,0.1
			c0.3,0.1,0.5,0.2,0.6,0.3c0.1,0.1,0.7,0.2,1.7,0.2c0.8,0,1.2,0,1.2-0.1c0.1-0.1,0-0.2-0.2-0.3c-0.2-0.1-0.4-0.2-0.5-0.4
			c-0.1-0.1-0.2-0.2-0.2-0.2c0,0,0.1-0.1,0.3-0.1c0.3-0.1,0.4-0.1,0.4-0.2c0-0.1,0.1-0.2,0.4-0.3c0.3-0.1,0.4-0.2,0.4-0.4
			c0-0.5,0.1-0.7,0.3-0.7c0.1,0,0.2-0.1,0.4-0.2c0.2-0.2,0.2-0.7,0.2-1.5c0-1-0.1-1.5-0.3-1.7C293.7,782.5,293.6,782.4,293.5,782.4z
			 M291.9,786.1c0,0-0.1,0.1-0.4,0.1h-0.1c0,0-0.1,0-0.1,0c-0.1,0-0.1,0,0,0.1c0.1,0.1,0.2,0.1,0.2,0.2c0,0.1-0.1,0.3-0.3,0.5
			c-0.2,0.2-0.5,0.3-0.7,0.3c-0.3,0-0.6,0.1-1.1,0.2c-0.1,0-0.2,0-0.3,0c-0.2,0-0.4-0.1-0.7-0.3c-0.2-0.2-0.3-0.3-0.4-0.3
			c0-0.1,0-0.1,0.1-0.2c0.1-0.1,0.2-0.7,0.2-1.6v-1.2c0-0.3,0.1-0.5,0.2-0.7c0.1-0.2,0.3-0.4,0.4-0.4h0.1l0.4,0.1
			c0.3,0,0.5,0.1,0.8,0.1c0.2,0.1,0.4,0.1,0.4,0.1c0,0.1,0.1,0.1,0.4,0.2c0.3,0.1,0.4,0.2,0.4,0.3c0,0.1,0.1,0.3,0.2,0.4
			c0.1,0.1,0.2,0.2,0.1,0.3c-0.1,0.1-0.1,0.3,0.1,0.6c0.1,0.2,0.2,0.4,0.2,0.6C292,785.3,292,785.6,291.9,786.1z"/>
		<path d="M290.2,780.6C290.2,780.6,290.2,780.6,290.2,780.6c0.1-0.1,0.2-0.1,0.1-0.1c0,0-0.1,0-0.3,0c-0.2,0-0.3,0.1-0.3,0.2
			C289.8,780.7,290,780.7,290.2,780.6z"/>
		<path d="M314.4,782.6c-0.2-0.1-0.5-0.1-0.8-0.1c-0.1,0-0.2,0-0.5,0.1c-0.3,0.1-0.5,0.1-0.7,0.1h-0.1h-0.2c-0.2,0-0.5,0-1,0.1
			c-0.4,0-0.7,0.1-0.8,0.1c-0.1,0-0.2,0.1-0.2,0.2c0,0.2,0,0.3-0.1,0.3c-0.1,0-0.1,0-0.1,0.1c0,0.1,0,0.2,0,0.3
			c0,0.1,0.1,0.2,0.2,0.2c0.1,0.1,0.2,0.5,0.2,1.3c0,0.8,0.1,1.2,0.2,1.2c0.1,0,0.1,0.3,0.1,0.8v0.8h-1.3c-0.8,0-1.7,0-2.7-0.1
			l-1.4-0.1v-0.7c0-0.5,0-0.7,0.1-0.7c0.1,0,0.1-0.3,0.2-0.9c0-1.1,0.1-1.6,0.4-1.6c0.1,0,0.2,0,0.2-0.1c0-0.1,0.1-0.2,0.4-0.2
			c0.2,0,0.4-0.1,0.5-0.2c0.1-0.1,0.2-0.2,0.2-0.4c0-0.2-0.1-0.3-0.2-0.4c-0.2-0.1-0.5-0.2-1-0.2c-0.3,0-0.4,0-0.5,0.1
			c0,0-0.5,0.1-1.3,0.1c-0.9,0.1-1.7,0.2-2.4,0.5c-0.1,0-0.2,0.1-0.2,0.2c0,0.1,0.2,0.2,0.6,0.4l0.6,0.3l0,0.8v0.9v0.3
			c0,0.2,0,0.4,0.1,0.4c0.1,0.1,0.2,0.5,0.2,1.1c0,0.6-0.1,1.1-0.2,1.4c-0.1,0.3-0.2,0.6-0.2,0.8c0,0,0,0,0,0.1c0,0,0,0.1,0,0.1
			c0,0.2,0.1,0.4,0.1,0.6c0,0.5,0,1.1-0.1,1.8c-0.1,0.6-0.2,1-0.2,1.2c-0.1,0.2-0.4,0.3-0.8,0.3c-0.3,0-0.5,0.1-0.6,0.1
			c-0.1,0.1-0.1,0.2-0.1,0.4v0.5l0.7-0.1c0.3-0.1,1-0.1,2.2-0.1h0.7h0.7c1,0,1.6,0,1.6-0.1c0-0.1-0.1-0.3-0.2-0.5
			c-0.2-0.2-0.3-0.3-0.4-0.3h-0.1c-0.2,0.1-0.4,0.1-0.6-0.1c-0.1-0.1-0.2-0.1-0.3-0.2c0-0.1-0.1-0.2-0.1-0.4c0-0.3,0-0.5,0-0.8
			c0-0.9,0.1-1.6,0.1-2.1v-0.8h4.9l0.1,0.4c0,0.2,0.1,0.5,0.1,0.7c0,0.5,0,1.1-0.1,1.7c-0.1,0.6-0.2,1-0.3,1
			c-0.1,0.1-0.4,0.2-0.8,0.3c-0.3,0-0.5,0.1-0.5,0.1c-0.1,0.1-0.1,0.2-0.1,0.4c0,0.3,0.1,0.5,0.3,0.5c0.3,0.1,1.3,0.1,3.1,0.1
			c1.3,0,2,0,2.1-0.1c0.2-0.1,0.3-0.2,0.3-0.4c0-0.2-0.1-0.3-0.2-0.5c-0.1-0.2-0.3-0.2-0.4-0.2c0,0-0.1,0-0.1,0
			c-0.1,0.1-0.3,0.1-0.5,0l-0.4-0.1l0.1-3.5c0-2.3,0.1-3.5,0.2-3.6c0.1,0,0.1-0.3,0.1-0.9c0.1-1.1,0.2-1.6,0.4-1.6
			c0.1,0,0.2,0,0.2-0.1c0-0.1,0.1-0.2,0.4-0.2c0.2,0,0.4-0.1,0.5-0.2c0.2-0.1,0.2-0.3,0.2-0.4C314.8,782.8,314.7,782.7,314.4,782.6z
			 M303.6,791.5c-0.2-0.1-0.3-0.1-0.3-0.2c0-0.1,0-0.1,0.1-0.1c0.2,0,0.3,0.1,0.4,0.2c0,0,0,0,0,0.1
			C303.8,791.6,303.7,791.6,303.6,791.5z M304.3,791.5c-0.1,0-0.1-0.1-0.1-0.2c0-0.1,0-0.2,0.1-0.2c0.1,0,0.2,0.1,0.2,0.2
			C304.4,791.4,304.4,791.5,304.3,791.5z M304.3,787.8c-0.1,0-0.2-0.1-0.2-0.3c0-0.3,0.1-0.4,0.2-0.4c0.2,0,0.2,0.1,0.2,0.3
			C304.5,787.7,304.4,787.8,304.3,787.8z M311.4,791.5c-0.1,0.1-0.2,0.1-0.4,0c-0.2-0.1-0.3-0.1-0.3-0.2c0-0.1,0.1-0.1,0.2-0.1
			c0.3,0,0.5,0.1,0.5,0.2C311.5,791.5,311.4,791.5,311.4,791.5z M311.8,791.5c-0.1,0-0.2-0.1-0.2-0.2c0-0.1,0.1-0.2,0.2-0.2
			c0.1,0,0.1,0.1,0.1,0.2C311.9,791.4,311.9,791.5,311.8,791.5z M311.8,787.8c-0.1,0-0.2-0.1-0.2-0.3c0-0.3,0.1-0.4,0.2-0.4
			c0.1,0,0.2,0.1,0.2,0.3C312,787.7,311.9,787.8,311.8,787.8z"/>
		<path d="M335.2,792.9c-0.1,0-0.1-0.1-0.2-0.4c-0.1-0.2-0.1-0.3-0.2-0.3c0,0-0.3,0.1-0.8,0.2c0,0-0.1,0-0.2,0c-0.4,0-0.7-0.6-1-1.7
			c-0.2-0.8-0.4-1.3-0.4-1.4c-0.1-0.1-0.2-0.3-0.2-0.5c-0.1-0.4-0.3-1.3-0.8-2.8c-0.5-1.5-0.7-2.4-0.8-2.7c-0.2-1-0.4-1.5-0.5-1.7
			c-0.1-0.2-0.2-0.3-0.4-0.3c-0.3-0.1-0.4,0-0.5,0.1c-0.1,0.1-0.2,0.2-0.4,0.2c-0.2,0-0.4,0.1-0.4,0.2c0,0.1-0.1,0.1-0.2,0.1
			c-0.1,0-0.2,0.2-0.4,0.6c-0.2,0.4-0.3,0.8-0.5,1.2c-0.1,0.4-0.2,0.6-0.3,0.7c-0.1,0.1-0.1,0.2-0.1,0.4c0,0.2-0.1,0.6-0.4,1.2
			c-0.3,0.6-0.5,1.1-0.5,1.5c-0.1,0.4-0.2,0.6-0.2,0.7c-0.1,0.1-0.2,0.3-0.4,0.8c-0.2,0.5-0.3,0.7-0.3,0.8c-0.1,0.2-0.2,0.4-0.2,0.5
			c0,0.2,0,0.2-0.1,0.2c-0.1,0-0.2,0.1-0.3,0.4c-0.1,0.2-0.2,0.4-0.2,0.6c0,0.1-0.2,0.3-0.5,0.6s-0.5,0.4-0.7,0.4
			c-0.2,0-0.3,0.1-0.5,0.4s-0.4,0.4-0.5,0.4c-0.1,0-0.2,0.1-0.4,0.4c-0.1,0.2-0.1,0.3-0.1,0.4c0,0.1,0.1,0.3,0.4,0.5l0.5,0.4l2-0.1
			c1.1,0,1.8-0.1,2.1-0.1c0.3,0,0.5-0.1,0.5-0.2c0,0,0-0.1-0.1-0.2c-0.1-0.2-0.1-0.3,0.1-0.3c0.1,0,0.2-0.1,0.2-0.2
			c0-0.1-0.1-0.2-0.2-0.2c-0.1,0-0.3-0.1-0.4-0.2c-0.1-0.1-0.4-0.2-0.7-0.3c-0.5-0.1-0.7-0.3-0.7-0.5c0-0.1,0-0.2,0.1-0.3
			c0.1-0.2,0.2-0.3,0.2-0.5c0-0.1,0-0.2,0.1-0.2c0.1,0,0.1-0.2,0.1-0.7v-0.7h0.6c0.4,0,0.7-0.1,0.7-0.2c0.1-0.2,0.6-0.2,1.5-0.2h0.4
			c0.7,0,1,0,1.1,0.1c0.1,0.1,0.2,0.4,0.2,0.8c0,0.5,0.1,0.8,0.3,0.9c0.2,0.2,0.3,0.4,0.3,0.6c0,0,0,0,0,0.1c0,0,0,0.1,0,0.1
			c0,0.3-0.1,0.4-0.1,0.5c-0.1,0.1-0.3,0.1-0.6,0.2c-0.5,0.1-0.7,0.2-0.8,0.3c0,0.1-0.1,0.1-0.3,0.1c-0.2,0-0.3,0.1-0.3,0.3
			c0,0.3,0,0.4,0.1,0.5c0.1,0.1,0.3,0.1,0.6,0.1c0.3,0,0.7,0,1.3-0.1c0.6-0.1,1.3-0.1,2-0.1c0.4,0,0.7,0,0.8,0c0.2,0,0.4,0,0.6,0
			c0.3,0,0.5-0.1,0.5-0.3c0.1-0.2,0.1-0.3,0.2-0.3c0.1,0,0.1-0.2,0.1-0.5C335.4,793.1,335.3,792.9,335.2,792.9z M329,788.4
			c0,0-0.1,0-0.2,0c-0.1,0-0.1,0-0.1,0c-0.3,0-0.5,0.1-0.6,0.2c-0.1,0.1-0.3,0.2-0.4,0.2c-0.2,0-0.3-0.1-0.4-0.2
			c-0.1-0.1-0.2-0.2-0.3-0.2c-0.1,0-0.2-0.1-0.2-0.2c0-0.1,0-0.2,0.1-0.2c0.1,0,0.2-0.1,0.3-0.4c0.1-0.3,0.2-0.5,0.2-0.7
			c0-0.2,0.1-0.3,0.2-0.4c0.1,0,0.2-0.3,0.2-0.8c0.1-0.6,0.3-0.9,0.6-0.9c0.2,0,0.3,0.1,0.5,0.2c0.1,0.1,0.2,0.2,0.4,0.5
			c0.1,0.3,0.2,0.4,0.2,0.5c0,0-0.1,0.1-0.3,0.1c-0.2,0-0.3,0.1-0.4,0.2c-0.1,0.1,0,0.2,0.1,0.2c0.1,0,0.2,0.1,0.2,0.2
			c0.1,0.1,0.2,0.3,0.2,0.4c0.1,0.2,0.1,0.2,0.2,0.3c0.1,0.1,0.1,0.3,0.2,0.6l0.1,0.5L329,788.4z"/>
		<path d="M355.4,781.6c-0.1,0-0.2,0-0.3,0.1c-0.2,0.1-0.3,0.1-0.3,0.1c-0.1,0-0.1-0.1-0.2-0.2c-0.1-0.2-0.3-0.3-0.4-0.3
			c-0.1,0-0.2-0.1-0.2-0.3c0-0.2-0.1-0.3-0.3-0.3c-0.2,0-0.3,0.1-0.3,0.3c0,0.2,0.1,0.3,0.2,0.3s0.2,0.1,0.2,0.3
			c0,0.2-0.1,0.3-0.2,0.3c-0.2,0-0.3-0.1-0.3-0.4c-0.1-0.2-0.2-0.4-0.3-0.4c-0.1,0-0.1,0-0.2,0.1c-0.2,0.2-0.2,0.3,0,0.3
			c0.1,0,0.2,0.1,0.2,0.1c0,0.1-0.1,0.2-0.4,0.2c-0.2,0-0.4,0-0.4-0.1c0-0.1-0.1-0.1-0.4-0.1c-0.4,0-0.8,0.1-1.1,0.2
			c-0.4,0.2-0.6,0.4-0.6,0.7c0,0.3,0.3,0.5,0.8,0.6c0.4,0.1,0.6,0.1,0.6,0.2c0,0.1,0.1,0.1,0.3,0.1c0.3,0,0.5,0.2,0.6,0.6
			c0.1,0.4,0.2,1.2,0.2,2.4c0,1.4,0.1,2.2,0.1,2.4c0.1,0.1,0,0.3,0,0.6l-0.1,0.4l-0.5-0.5c-0.4-0.3-0.5-0.5-0.5-0.6
			c0-0.1-0.1-0.2-0.2-0.3c-0.1-0.1-0.3-0.2-0.4-0.4c-0.2-0.1-0.3-0.2-0.3-0.2c-0.1-0.1-0.3-0.2-0.3-0.2c-0.1,0-0.2-0.1-0.2-0.2
			c0-0.1-0.1-0.2-0.2-0.3c-0.1-0.1-0.3-0.2-0.4-0.2s-0.1-0.1-0.1-0.2c0-0.1-0.1-0.2-0.2-0.2c-0.1,0-0.1,0-0.1-0.1
			c0-0.1-0.1-0.2-0.4-0.5c-0.2-0.3-0.4-0.4-0.4-0.5c0-0.1-0.1-0.2-0.3-0.2c-0.2,0-0.3-0.1-0.5-0.2c-0.2-0.1-0.2-0.3-0.2-0.4
			c0-0.1-0.2-0.3-0.5-0.7c-0.3-0.4-0.5-0.6-0.5-0.7c0-0.1-0.1-0.2-0.3-0.4c-0.2-0.2-0.3-0.4-0.3-0.4c0-0.3-0.6-0.5-1.8-0.6
			c-0.6,0-0.9-0.1-0.9-0.1c-0.3,0-0.4,0.1-0.4,0.2c0,0.1,0,0.2,0,0.4c0,0.2,0,0.4,0.1,0.6c0.1,0.2,0.1,0.3,0.2,0.3
			c0.1,0,0.2,0.2,0.3,0.6c0.1,0.4,0.2,0.6,0.2,0.6c0.1,0,0.1,0.3,0.1,0.8c0,0.5,0,0.8-0.1,0.8c-0.1,0-0.1,0.1-0.1,0.4s0.1,0.6,0.2,1
			c0.1,0.2,0.1,0.6,0.1,1.1c0,0.7-0.1,1.1-0.2,1.1c-0.1,0-0.1,0.2-0.1,0.7c0,0.5,0,1.1-0.1,1.5c0,0.4-0.1,0.6-0.1,0.7
			c-0.1,0.1-0.2,0.2-0.4,0.2c-0.3,0.1-0.4,0.2-0.4,0.4c0,0.2,0.1,0.4,0.4,0.6c0.2,0.2,0.3,0.3,0.5,0.3c0.2,0,0.8,0,1.7,0
			c1,0,1.6,0,1.8-0.1c0.2-0.1,0.3-0.3,0.3-0.8c0-0.3-0.1-0.4-0.3-0.5c-0.2-0.1-0.3-0.1-0.3-0.2c0-0.1-0.2-0.1-0.6-0.1
			c-0.4,0-0.7-0.1-0.9-0.3c-0.2-0.2-0.2-0.3-0.1-0.4c0.1-0.1,0.2-0.2,0.2-0.6c0-0.3,0-0.5-0.1-0.5c-0.1-0.1-0.1-0.9-0.1-2.6
			s0.1-2.5,0.2-2.5c0.1,0,0.3,0.1,0.4,0.2c0.1,0.1,0.3,0.2,0.5,0.3c0.3,0.1,0.4,0.3,0.5,0.4c0,0.2,0.3,0.5,0.8,1.1
			c0.5,0.5,0.9,0.9,1.3,1.1c0.2,0.1,0.3,0.2,0.3,0.3c0,0.1,0.2,0.2,0.5,0.6c0.7,0.7,1.1,1.1,1.1,1.4c0,0.1,0.1,0.1,0.3,0.1
			c0.2,0,0.3,0,0.3,0.1c0,0.1,0.1,0.3,0.4,0.5c0.2,0.2,0.4,0.4,0.4,0.6c0,0.1,0.1,0.3,0.3,0.5c0.2,0.2,0.3,0.3,0.4,0.3
			c0.1,0,0.3,0.2,0.6,0.5c0.3,0.3,0.5,0.5,0.7,0.6c0.1,0.1,0.2,0.1,0.3,0.1c0.4,0,0.6-0.2,0.6-0.6c0-0.1,0-0.2,0-0.4
			c0-0.9-0.1-1.4-0.2-1.6c-0.1-0.1-0.1-0.5-0.1-1.3v-0.4c0-1,0-1.6-0.1-1.6c-0.1-0.1-0.2-0.4-0.2-1c0-0.5,0-0.8,0.1-0.8
			c0.1-0.1,0.2-0.2,0.2-0.5s0-0.4,0.1-0.4c0.1,0,0.1-0.1,0.1-0.4c0-0.3,0-0.4-0.1-0.4c-0.1,0-0.1-0.1-0.1-0.4c0-0.4,0.1-0.7,0.2-1
			c0.2-0.3,0.4-0.5,0.7-0.5c0.2,0,0.4-0.1,0.4-0.1c0.1,0,0.1-0.2,0.1-0.5v-0.2C355.7,781.8,355.6,781.6,355.4,781.6z"/>
		<path d="M375,784.1c0.1,0,0.2-0.2,0.2-0.5c0-0.3-0.1-0.4-0.2-0.4c-0.1,0-0.1-0.1-0.1-0.3c0-0.2,0.1-0.4,0.2-0.7
			c0.1-0.3,0-0.5-0.2-0.7c-0.2-0.2-0.5-0.3-0.9-0.3c-0.4,0-0.8,0.1-1.1,0.4c-0.3,0.2-0.5,0.3-0.6,0.2c-0.1-0.1-0.1-0.1-0.3-0.1
			c-0.1,0-0.2,0-0.6,0.1c-0.4,0.1-1.3,0.2-2.7,0.2c-1,0-1.5,0-1.6-0.1c-0.1-0.1-0.2,0-0.4,0.2c-0.1,0.1-0.3,0.2-0.4,0.2
			c-0.1,0-0.3,0-0.8-0.1c-0.8-0.2-1.2-0.3-1.3-0.3c0,0-0.1,0-0.3,0.1c-0.1,0-0.3,0.1-0.4,0.3c-0.1,0.2-0.2,0.4-0.2,0.5
			c0,0,0,0.1,0.1,0.2c0.1,0.1,0.1,0.2,0.2,0.5c0,0.1,0,0.2-0.1,0.3c-0.1,0-0.2,0.1-0.4,0.1c-0.1,0-0.3,0-0.4,0.1
			c-0.1,0.1-0.2,0.2-0.2,0.2c0,0.1,0,0.1,0.1,0.2c0.1,0.1,0.1,0.3,0.1,0.7c0,0.3-0.1,0.5-0.1,0.5c0,0.5,0.2,0.8,0.6,0.8
			c0.3,0,0.4-0.1,0.4-0.2c0-0.1,0.1-0.2,0.2-0.2c0.3,0,0.3-0.2,0-0.5c-0.1-0.1-0.2-0.2-0.2-0.3c0,0,0.1-0.1,0.3-0.1
			c0.2-0.1,0.3-0.2,0.2-0.4c-0.1-0.2,0-0.4,0-0.6c0.1-0.1,0.1-0.3,0-0.6c-0.1-0.3-0.1-0.4,0-0.4c0.1,0,0.1,0.1,0.1,0.2
			c0,0.1,0.2,0.3,0.6,0.4c0.4,0.1,0.8,0.2,1.1,0.2c0.4,0,0.7,0.1,0.9,0.3c0.2,0.2,0.4,0.2,0.5,0.2c0.1,0,0.2,0,0.2,0
			c0,0,0,0.1-0.1,0.1c-0.3,0.4-0.4,2.4-0.5,6.1c0,0.8-0.1,1.2-0.3,1.4c-0.2,0.2-0.3,0.3-0.3,0.5c0,0.1-0.3,0.2-0.8,0.2l-0.8,0.1
			L365,793c0,0,0,0.1,0,0.1c0,0.1,0,0.1,0,0.1c0,0.2,0.2,0.5,0.5,0.8c0.3,0.3,0.6,0.4,0.7,0.4c0.1,0,0.2,0,0.2-0.1s-0.1-0.1-0.2-0.1
			c-0.1,0-0.1,0-0.1-0.1c0-0.1,0.2-0.1,0.5-0.1c0.1,0,0.4,0,0.9,0c0.4,0,0.8,0,1,0c0.5,0,0.9,0,1-0.1c0.1-0.1,0.3-0.2,0.6-0.1
			c0.2,0,0.3,0,0.4-0.1c0.1-0.1,0.2-0.1,0.3-0.1c0.1,0,0.3-0.1,0.5-0.3c0.1-0.1,0.2-0.2,0.2-0.3c0-0.1-0.1-0.2-0.2-0.5
			c-0.2-0.3-0.3-0.5-0.5-0.5c-0.1,0-0.2-0.1-0.2-0.2c0-0.1-0.1-0.2-0.3-0.1c0,0-0.1,0-0.1,0c-0.1,0-0.1,0-0.1,0
			c-0.1,0-0.2,0-0.3-0.1c0-0.1-0.1-0.3-0.1-0.5v-0.5c0-0.5,0-0.8,0-0.9c0-0.1,0.1-0.2,0.2-0.2c0.2,0,0.2-0.1,0.2-0.4
			c0-0.3-0.1-0.5-0.2-0.5c-0.1,0-0.2-0.4-0.2-1.1c0-0.8,0.1-1.3,0.2-1.4c0.1-0.1,0.2-0.6,0.2-1.2c0-0.7,0.1-1.1,0.1-1.2
			c0.1-0.2,0.5-0.2,1.2-0.2c1.1,0,1.7,0.1,1.8,0.4c0,0.1,0.1,0.2,0.4,0.5c0.2,0.2,0.3,0.5,0.4,0.8c0,0.3,0.1,0.5,0.1,0.5
			c0.1,0.1,0.2,0.1,0.4,0.1c0.3,0,0.4,0,0.4-0.1c0-0.1,0.1-0.2,0.3-0.3c0.2-0.1,0.3-0.2,0.3-0.4s-0.1-0.4-0.3-0.6
			C374.9,784.2,374.9,784.1,375,784.1z"/>
	</g>
	<g>
		<g>
			<g>
				<g>
					<g>
						<g>
							<path d="M281.4,580.5c13.6,0,27.2,0,40.8,0c0.7,0,1.5-0.5,1.6-1.2c5.6-35.9,11.1-71.8,16.7-107.7c1.3-8.7,2.7-17.4,4-26.1
								c0.5-2.9,2.1-7.5,1.6-10.4c-0.7-4.1-7.2-8.4-10-11.2c-7.9-7.9-15.8-15.8-23.6-23.7c-6.6-6.6-13.2-13.3-19.9-19.9
								c-4.4-4.4-8.5-3.9-14.9-4.8c-2.5-0.3-7.3-1.9-9.8-1.1c-1.5,0.5-3,2.7-4,3.8c-7.1,7.3-14.1,14.7-21.2,22
								c-7.1,7.3-14.1,14.7-21.2,22c-2.2,2.3-2.7,3.3-3.1,6.4c-2.1,17.8-4.2,35.7-6.3,53.5c-2.7,23.3-5.5,46.7-8.2,70
								c-0.4,3.5-1.7,7.8-0.8,11.3c1.2,4.7,5.1,9.7,7.3,14c2,3.9,4.1,7.8,6.1,11.7c0.3,0.5,0.9,0.8,1.5,0.8c21.1,0,42.2,0,63.4,0
								c0.9,0,1.7-0.8,1.7-1.7c0-3.1,0-6.3,0-9.4c0-2.2-3.4-2.2-3.4,0c0,3.1,0,6.3,0,9.4c0.6-0.6,1.1-1.1,1.7-1.7
								c-8.8,0-17.7,0-26.5,0c-6.7,0-13.5,0-20.2,0c-4.7,0-9.9-0.7-14.5,0c-0.8,0.1-2.8-0.5-1.4,0.4c1.3,0.8-1.2-3.2-1.7-4.1
								c-2.9-5.6-5.9-11.3-8.8-16.9c-0.7-1.3-2-3-2.3-4.5c0.3,1.3,0.3,0.3,0.3-0.4c0-2.6,0.6-5.2,0.9-7.7
								c2.9-24.5,5.7-48.9,8.6-73.4c1.4-12.2,2.9-24.5,4.3-36.7c0.6-5.4,0.3-12.2,2-17.4c-0.1,0.2-0.9,1.5,0.2,0.3
								c1.1-1.2,2.3-2.4,3.4-3.6c3.9-4,7.7-8,11.6-12c9-9.3,18-18.7,27-28c1.2-1.3,2.7-2.5,3.7-3.9c0.9-1.2,2.1-1.2,0.3-0.9
								c4.8-0.9,11.8,1.5,16.6,2.1c1.4,0.2,4,1.1,2.3,0c0.8,0.5,1.4,1.4,2.1,2.1c3.3,3.3,6.6,6.6,9.9,9.9
								c9.4,9.4,18.7,18.8,28.1,28.2c3.8,3.9,7.7,7.7,11.5,11.6c0.9,1,1.9,2.3,3,3c1.4,0.9,0.9,1.9,0.8-0.4
								c0.4,4.9-1.7,10.9-2.4,15.7c-1.8,11.7-3.6,23.4-5.4,35.1c-4,25.5-7.9,51-11.9,76.6c-0.8,5.2-2.7,11.3-2.6,16.6
								c-0.1-2.2,2.8-0.5-0.4-1.1c-2.2-0.4-4.8,0-7,0c-6.9,0-13.8,0-20.7,0c-3.7,0-7.3,0-11,0C279.2,577.1,279.2,580.5,281.4,580.5z
								"/>
						</g>
					</g>
					<g>
						<g>
							<path d="M205.3,566c-3.7-1.8-7.4-3.6-11.1-5.4c-4.5-2.2-9.9-6.3-14.8-7.3c-1.8-0.4-1.3-1.2-0.8,0.5c-0.1-0.4-0.2-1.1-0.1-1.4
								c0.2-2-0.4-4.4-0.6-6.4c-2-20.4-4-40.8-5.9-61.2c-2.4-25.1-4.9-50.1-7.3-75.2c-0.9-8.8-1.7-17.6-2.6-26.4
								c-0.2-2.3-0.3-4.6-0.7-6.9c-0.2-1.5,0-2.3-0.2-1.6c1.2-3.5,4.3-7.2,6.1-10.4c3.5-5.9,7-11.8,10.4-17.6
								c5.1-8.6,10.2-17.2,15.3-25.8c-0.8,0.2-1.5,0.4-2.3,0.6c18.7,8.3,37.4,16.5,56,24.8c3.2,1.4,6.9,3.8,10.4,4.6
								c1.8,0.4,0.7,0.9,0.4-0.6c0.2,1.5,0,3.2,0,4.7c0,10.1,0,20.3,0,30.4c0,2.2,3.4,2.2,3.4,0c0-11.8,0-23.6,0-35.4
								c0-0.5-0.3-1.2-0.8-1.5c-22.6-10-45.1-19.9-67.7-29.9c-0.8-0.4-1.8-0.3-2.3,0.6c-10.2,17.3-20.6,34.4-30.7,51.8
								c-1.8,3-1.6,4.2-1.2,7.7c0.7,7.6,1.5,15.2,2.2,22.8c4.6,47.2,9.2,94.5,13.7,141.7c0.3,3.2-0.4,9.7,1.9,12.3
								c2.5,2.9,9.7,4.8,13.1,6.4c4.8,2.4,9.6,4.7,14.4,7.1C205.5,569.9,207.2,567,205.3,566L205.3,566z"/>
						</g>
					</g>
					<g>
						<g>
							<path d="M159,375.8c8.6,3.4,17.1,6.8,25.7,10.2c1.1,0.4,2-0.7,2.1-1.6c2.1-21.4,4.3-42.9,6.4-64.3c-1.1,0.3-2.1,0.6-3.2,0.9
								c10.3,18.1,20.6,36.1,30.9,54.2c0.4,0.8,1.6,1.1,2.3,0.6c12.3-8.1,24.5-16.2,36.8-24.3c1.8-1.2,0.1-4.1-1.7-2.9
								c-12.3,8.1-24.5,16.2-36.8,24.3c0.8,0.2,1.5,0.4,2.3,0.6c-10.3-18.1-20.6-36.1-30.9-54.2c-0.9-1.6-3-0.7-3.2,0.9
								c-2.1,21.4-4.3,42.9-6.4,64.3c0.7-0.5,1.4-1.1,2.1-1.6c-8.6-3.4-17.1-6.8-25.7-10.2C157.9,371.8,157,375.1,159,375.8
								L159,375.8z"/>
						</g>
					</g>
					<g>
						<g>
							<path d="M198.9,559c-1.9-26.9-3.7-53.7-5.6-80.6c-1.4-19.8-2.7-39.6-4.1-59.4c-0.5-7-1-14-1.4-21c-0.2-3.2,0.6-9.4-0.8-12.3
								c-0.1-0.3,0-0.9-0.1-1.2c0.4,2.2-2.2,0.8-0.2,1.2c2.7,0.5,8.6-2.3,11.2-3.1c8.3-2.3,16.7-4.5,25-6.8
								c-0.7-0.4-1.4-0.8-2.1-1.2c3,13.3,6,26.6,9,39.9c0.5,2.1,3.7,1.2,3.3-0.9c-3-13.3-6-26.6-9-39.9c-0.2-0.9-1.2-1.4-2.1-1.2
								c-12.4,3.4-24.9,6.8-37.3,10.2c-0.7,0.2-1.3,0.9-1.2,1.6c3.5,51,7,102,10.5,153c0.5,7.2,1,14.4,1.5,21.6
								C195.7,561.2,199,561.2,198.9,559L198.9,559z"/>
						</g>
					</g>
					<g>
						<g>
							<path d="M266.7,375.5c-6.4,29-12.7,57.9-19,86.9c0.9-0.2,1.9-0.5,2.8-0.7c-9.6-12.4-19.2-24.8-28.9-37.2
								c-1.3-1.7-3.7,0.7-2.4,2.4c9.6,12.4,19.2,24.8,28.9,37.2c0.8,1,2.6,0.4,2.8-0.7c6.3-29,12.7-57.9,19-86.9
								C270.5,374.2,267.2,373.3,266.7,375.5L266.7,375.5z"/>
						</g>
					</g>
					<g>
						<g>
							<path d="M309.1,472.5c4.1-2.5,8.2-5.1,12.3-7.6c3.5-2.2,8.1-4.1,11.1-6.9c2.6-2.5,4.2-6.7,6-9.7c2.5-4.3,5-8.5,7.5-12.8
								c1.1-1.9-1.8-3.6-2.9-1.7c-2.3,3.9-4.5,7.7-6.8,11.6c-1.5,2.5-3,5.1-4.5,7.6c-0.5,0.8-2.1,3.1-1.2,2.3
								c-3.2,3.1-8.3,5.2-12.1,7.5c-3.7,2.3-7.4,4.6-11.1,6.9C305.5,470.7,307.2,473.6,309.1,472.5L309.1,472.5z"/>
						</g>
					</g>
					<g>
						<g>
							<path d="M333,455.6c-14.4-25.1-27.9-50.8-43-75.5c-1-1.7-3.5-0.6-3.1,1.3c0.7,3.5,0.8,9.9,3,13c0.7,1,2.9,1.2,3.1-0.4
								c0.6-4-1.3-10.3-3-13.9c-0.9-1.8-3.4-0.5-3.1,1.3c6,30.5,13.7,60.7,18.6,91.4c0.7-0.7,1.4-1.4,2.1-2.1
								c-0.7-0.1-9.4-2-6.7,0.9c1,1.1,3.8-0.6,4.8,1.6c0.5-0.8,1-1.7,1.5-2.5c-19.2-2.4-38.2-6.8-57.3-9.5c-1.2-0.2-2,0.4-2.1,1.6
								c-0.2,1.9-1.7,7.2,0.6,8.6c0.8,0.5,1.8,0.1,2.3-0.6c1.6-2.1,2.2-7.9-0.4-9.5c-1.2-0.7-2.4,0.3-2.5,1.5
								c-5,39.6-6.7,79.6-14,118.9c-0.4,2.1,2.9,3,3.3,0.9c7.4-39.6,9.1-79.9,14.2-119.8c-0.8,0.5-1.7,1-2.5,1.5
								c0.5,0.3-0.5,4.3-0.9,4.8c0.8-0.2,1.5-0.4,2.3-0.6c0.9,0.5,1-5.1,1.1-5.7c-0.7,0.5-1.4,1.1-2.1,1.6
								c19.5,2.8,38.7,7.3,58.2,9.7c1.4,0.2,1.9-1.5,1.5-2.5c-1.2-2.7-8.7-5.2-10.6-2.1c-0.4,0.7-0.2,1.5,0.3,2.1
								c1.8,2,6.1,2.1,8.4,2.5c1.3,0.2,2.3-0.8,2.1-2.1c-4.9-30.7-12.6-60.9-18.6-91.4c-1,0.4-2.1,0.9-3.1,1.3
								c1.2,2.5,3.1,8.7,2.7,11.3c1-0.1,2.1-0.3,3.1-0.4c-1.8-2.5-2.1-9.2-2.7-12.2c-1,0.4-2.1,0.9-3.1,1.3
								c15.1,24.7,28.6,50.4,43,75.5C331.2,459.2,334.1,457.5,333,455.6L333,455.6z"/>
						</g>
					</g>
					<g>
						<g>
							<path d="M329.9,456.5c-4.5,38.5-6.4,77.3-10.2,116c-0.2,2.2,3.2,2.2,3.4,0c3.8-38.6,5.7-77.4,10.2-116
								C333.5,454.3,330.1,454.4,329.9,456.5L329.9,456.5z"/>
						</g>
					</g>
					<g>
						<g>
							<path d="M305.4,472.4c-2.9,33.4-8.4,66.6-11.9,99.9c-0.2,2.2,3.2,2.1,3.4,0c3.5-33.4,9-66.5,11.9-99.9
								C309,470.2,305.6,470.3,305.4,472.4L305.4,472.4z"/>
						</g>
					</g>
				</g>
				<g>
					<g>
						<path d="M287.3,379.8c-8.8,7.5-17.5,15.1-26.3,22.6c-1.7,1.4,0.7,3.8,2.4,2.4c8.8-7.5,17.5-15.1,26.3-22.6
							C291.4,380.8,289,378.4,287.3,379.8L287.3,379.8z"/>
					</g>
				</g>
			</g>
			<g>
				<g>
					<path d="M393.8,449.5c-13.7,65.8-72,115.2-141.8,115.2s-128.1-49.4-141.8-115.2c-8.4,19.1-13.1,40.2-13.1,62.3
						c0,85.5,69.3,154.9,154.9,154.9s154.9-69.3,154.9-154.9C406.9,489.7,402.2,468.6,393.8,449.5z M115.8,559.6
						c-1.1-1.5-1.9-3.1-2.5-4.8c0.4,0.3,0.8,0.6,1.2,0.9c6.1,7.7,17.2,9.3,25.3,3.6c8.2-5.9,10.2-17.2,4.5-25.5
						c-0.1-0.3-0.2-0.5-0.3-0.8c1.4,1.1,2.6,2.4,3.7,3.9c6.3,8.8,4.2,21-4.6,27.3C134.3,570.4,122.1,568.4,115.8,559.6z
						 M175.6,588.2c-6.5,8.7-18.7,10.5-27.4,4c-1.5-1.1-2.8-2.4-3.8-3.8c8,3,17.3,0.6,22.7-6.6c5.3-7.2,5-16.8-0.2-23.6
						c1.7,0.6,3.2,1.5,4.7,2.6C180.3,567.2,182.1,579.5,175.6,588.2z M217.2,614.7c-5.8,10.6-19.1,14.4-29.6,8.6
						c-2.9-1.6-5.3-3.7-7.1-6.3c8.2,0.5,16.3-3.6,20.6-11.3c4.2-7.7,3.3-16.8-1.5-23.4c3.1,0.2,6.2,1.1,9.1,2.7
						C219.1,590.9,223,604.2,217.2,614.7z M256,644.6c-11.1,2.2-21.9-4.9-24.1-16c-2.2-11.1,4.9-21.9,16-24.1
						c11.1-2.2,21.9,4.9,24.1,16C274.3,631.6,267.1,642.3,256,644.6z M316.4,623.3c-10.6,5.8-23.8,1.9-29.6-8.6
						c-5.8-10.6-1.9-23.8,8.6-29.6c2.9-1.6,6-2.5,9.1-2.7c-4.8,6.6-5.7,15.7-1.5,23.4c4.2,7.7,12.4,11.8,20.6,11.3
						C321.7,619.6,319.3,621.8,316.4,623.3z M355.7,592.2c-8.7,6.5-20.9,4.7-27.4-4c-6.5-8.7-4.7-20.9,4-27.4c1.5-1.1,3.1-2,4.7-2.6
						c-5.2,6.8-5.5,16.4-0.2,23.6c5.3,7.2,14.7,9.7,22.7,6.6C358.5,589.8,357.2,591.1,355.7,592.2z M388.2,559.6
						c-6.3,8.8-18.5,10.8-27.3,4.6c-8.8-6.3-10.8-18.5-4.6-27.3c1.1-1.5,2.3-2.8,3.7-3.9c-0.1,0.3-0.2,0.5-0.3,0.8
						c-5.7,8.3-3.7,19.7,4.5,25.5c8.1,5.8,19.2,4.1,25.3-3.6c0.4-0.3,0.8-0.6,1.2-0.9C390.1,556.4,389.2,558,388.2,559.6z"/>
				</g>
			</g>
		</g>
		<g>
			<g>
				<path class="st0" d="M248.2,233.1c9.5,0.1,19-0.4,28.4-1.5c10.1-1.2,24.4-2.5,31.7-10.7c7.7-8.8,8.8-23.6,10-34.6
					c1-9.6,1.5-19.3,1.4-28.9c0-2.2-3.4-2.2-3.4,0c-0.1,9.6,0.4,19.3,1.4,28.9c1.2,11,2.3,25.9,10,34.6c7.2,8.2,21.5,9.5,31.7,10.7
					c9.4,1.1,18.9,1.6,28.4,1.5c2.2,0,2.2-3.4,0-3.4c-9.5-0.1-19,0.4-28.4,1.5c-10.1,1.2-24.4,2.5-31.7,10.7
					c-7.7,8.8-8.8,23.6-10,34.6c-1,9.6-1.5,19.3-1.4,28.9c0,2.2,3.4,2.2,3.4,0c0.1-9.6-0.4-19.3-1.4-28.9c-1.2-11-2.3-25.9-10-34.6
					c-7.2-8.2-21.5-9.5-31.7-10.7c-9.4-1.1-18.9-1.6-28.4-1.5C246,229.7,246,233.1,248.2,233.1c7.9-0.1,15.8,0.3,23.6,1
					c10.3,0.9,27.1,1.7,34.2,10.5c7.6,9.3,8.3,25.5,9.3,36.9c0.7,8,1,16,1,24c1.1,0,2.3,0,3.4,0c-0.1-8,0.3-16,1-24
					c1-11.4,1.7-27.6,9.3-36.9c7.2-8.7,24-9.5,34.2-10.5c7.8-0.7,15.7-1.1,23.6-1c0-1.1,0-2.3,0-3.4c-7.9,0.1-15.8-0.3-23.6-1
					c-10.3-0.9-27.1-1.7-34.2-10.5c-7.6-9.3-8.3-25.5-9.3-36.9c-0.7-8-1-16-1-24c-1.1,0-2.3,0-3.4,0c0.1,8-0.3,16-1,24
					c-1,11.4-1.7,27.6-9.3,36.9c-7.2,8.7-24,9.5-34.2,10.5c-7.8,0.7-15.7,1.1-23.6,1C246,229.7,246,233.1,248.2,233.1z"/>
			</g>
		</g>
		<g>
			<g>
				<path class="st0" d="M88.5,281.9c7.7,0.1,21.3,0.7,27-5.6c6-6.6,5.4-20.2,5.3-28.5c0-2.2-3.4-2.2-3.4,0
					c-0.1,8.2-0.7,22,5.3,28.5c5.7,6.3,19.2,5.7,27,5.6c2.2,0,2.2-3.4,0-3.4c-7.7-0.1-21.3-0.7-27,5.6c-6,6.6-5.4,20.2-5.3,28.5
					c0,2.2,3.4,2.2,3.4,0c0.1-8.2,0.7-22-5.3-28.5c-5.7-6.3-19.2-5.7-27-5.6C86.4,278.5,86.3,281.9,88.5,281.9
					c7.2-0.1,20.5-0.9,25.1,5.4c4.5,6.1,3.8,17.9,3.8,25.3c1.1,0,2.3,0,3.4,0c-0.1-7.5-0.7-19,3.8-25.3c4.5-6.3,18.1-5.5,25.1-5.4
					c0-1.1,0-2.3,0-3.4c-7.2,0.1-20.5,0.9-25.1-5.4c-4.5-6.1-3.8-17.9-3.8-25.3c-1.1,0-2.3,0-3.4,0c0.1,7.5,0.7,19-3.8,25.3
					c-4.5,6.3-18.1,5.5-25.1,5.4C86.4,278.5,86.4,281.9,88.5,281.9z"/>
			</g>
		</g>
		<g>
			<g>
				<path class="st0" d="M347,380.1c9.3,0.1,25.7,0.9,32.4-6.9c6.9-8,6.2-23.9,6.1-33.8c0-2.2-3.4-2.2-3.4,0
					c-0.1,9.9-0.8,25.9,6.1,33.8c6.6,7.7,23.1,7,32.4,6.9c2.2,0,2.2-3.4,0-3.4c-9.3-0.1-25.7-0.9-32.4,6.9c-6.9,8-6.2,23.9-6.1,33.8
					c0,2.2,3.4,2.2,3.4,0c0.1-9.9,0.8-25.9-6.1-33.8c-6.6-7.7-23.1-7-32.4-6.9C344.8,376.7,344.8,380.1,347,380.1
					c8.4-0.1,24.6-1.1,30.1,6.2c5.8,7.6,5,21.9,4.9,31.1c1.1,0,2.3,0,3.4,0c-0.1-9.1-0.9-23.5,4.9-31.1c5.6-7.3,21.8-6.3,30.1-6.2
					c0-1.1,0-2.3,0-3.4c-8.4,0.1-24.6,1.1-30.1-6.2c-5.8-7.6-5-21.9-4.9-31.1c-1.1,0-2.3,0-3.4,0c0.1,9.1,0.9,23.5-4.9,31.1
					c-5.6,7.3-21.8,6.3-30.1,6.2C344.8,376.7,344.8,380,347,380.1z"/>
			</g>
		</g>
	</g>
</g>
</svg>
