<?xml version="1.0" encoding="utf-8"?>
<!-- Generator: Adobe Illustrator 21.1.0, SVG Export Plug-In . SVG Version: 6.00 Build 0)  -->
<svg version="1.1" id="Слой_1" xmlns="http://www.w3.org/2000/svg" xmlns:xlink="http://www.w3.org/1999/xlink" x="0px" y="0px"
	 viewBox="0 0 504 864" style="enable-background:new 0 0 504 864;" xml:space="preserve">
<style type="text/css">
	.st0{fill:#040404;}
	.st1{fill:#FFFFFF;}
</style>
<g>
	<g>
		<path d="M51.9,53.6c6.7-7.6,6.7-19,0.1-26.4c0.8,7.2-1.3,14.8-6.5,20.6c-5.2,5.8-12.3,8.7-19.5,8.6C34,62.2,45.2,61.1,51.9,53.6z"
			/>
		<path d="M458.4,47.7c-5.2-5.8-7.3-13.3-6.5-20.6c-6.5,7.5-6.6,18.9,0.2,26.4c6.7,7.6,17.9,8.6,25.9,2.8
			C470.7,56.4,463.6,53.5,458.4,47.7z"/>
		<path d="M26.1,807.4c7.2-0.1,14.3,2.8,19.5,8.6c5.2,5.8,7.3,13.3,6.5,20.6c6.5-7.5,6.6-18.9-0.1-26.4
			C45.2,802.6,34,801.6,26.1,807.4z"/>
		<path d="M452,810.2c-6.7,7.6-6.7,19-0.2,26.4c-0.8-7.2,1.3-14.8,6.5-20.6c5.2-5.8,12.3-8.7,19.5-8.6
			C470,801.6,458.8,802.6,452,810.2z"/>
		<path d="M503.8,18.2c-1.6-17.9-18.7-16.3-31.6-16.3c-45.9,0-91.8,0-137.6,0c-63.2,0-126.3,0-189.5,0c-40.6,0-81.2,0-121.8,0
			c-2.6,0-5.3-0.2-8,0.2c-9.5,1.2-15,9.2-15.2,18.2c-0.2,7.3,0,14.5,0,21.8c0,37.4,0,74.9,0,112.3c0,57,0,114.1,0,171.1
			c0,64.3,0,128.6,0,192.9c0,58.4,0,116.7,0,175.1c0,40.1,0,80.2,0,120.3c0,9.1,0,18.2,0,27.3c0,11.7,6.7,20.5,19.2,20.7
			c35.9,0.6,71.9,0,107.9,0c62.4,0,124.9,0,187.3,0c49.7,0,99.5,0,149.2,0c7.6,0,15.2,0,22.9,0c0.4,0,0.8-0.1,1.2-0.2
			c14.4-1.8,16.1-13.8,16.1-25.5c0-11.4,0-22.8,0-34.3c0-43.4,0-86.9,0-130.3c0-59.9,0-119.8,0-179.8c0-63.9,0-127.7,0-191.6
			c0-55.3,0-110.6,0-165.9c0-33.7,0-67.3,0-101C503.9,28.3,504.2,23.2,503.8,18.2z M486.6,852.8c-28.3,0-56.6,0-84.9,0
			c-59.9,0-119.8,0-179.7,0c-54,0-108,0-162,0c-13.1,0-26.1,0-39.2,0c-5.6,0-11-1.3-11.7-8.3c-0.2-1.5,0-3,0-4.5c0-26.5,0-53,0-79.5
			c0-50,0-100,0-149.9c0-61.8,0-123.6,0-185.4c0-61.4,0-122.7,0-184.1c0-48.9,0-97.7,0-146.6c0-24.2-0.8-48.6,0-72.7
			c0.2-5.3,1.6-10.1,8.3-10.8c2.2-0.2,4.5,0,6.7,0c14.8,0,29.6,0,44.5,0c55.6,0,111.3,0,166.9,0c58.9,0,117.8,0,176.7,0
			c18.9,0,37.9,0,56.8,0c8.1,0,24.7-3.1,25.9,8.4c0.5,5.2,0,10.8,0,16.1c0,13.5,0,27.1,0,40.6c0,45.5,0,91.1,0,136.6
			c0,60.1,0,120.2,0,180.3c0,62.6,0,125.2,0,187.7c0,52.8,0,105.6,0,158.4c0,31.4,0,62.7,0,94.1C494.8,840.3,496.9,852,486.6,852.8z
			"/>
		<path d="M460,790.9c1.2,0.1,2.4-0.7,2.4-2.2c0-23.7,0-47.4,0-71.1c0-56.4,0-112.8,0-169.2c0-68.7,0-137.4,0-206
			c0-59,0-117.9,0-176.9c0-19.6,0-39.2,0-58.8c0-8.9,1.3-19,0-27.9c-0.1-0.4,0-0.8,0-1.2c0-0.8-0.3-1.3-0.8-1.7
			c0.1-1.2-0.6-2.5-2.2-2.6c-13.1-0.5-25.3-13.8-25.8-26.7c0-0.5-0.2-0.8-0.4-1.1c-0.3-0.6-1-1.1-1.9-1.1c-40.5,0-80.9,0-121.4,0
			c-64.5,0-129,0-193.6,0c-14.9,0-29.7,0-44.6,0c-0.9,0-1.6,0.5-1.9,1.1c-0.2,0.3-0.3,0.7-0.4,1.2C69.1,59.5,57,72.8,43.9,73.3
			c-1.8,0.1-2.5,1.9-2,3.2c-0.2,0.3-0.2,0.6-0.2,1c0,23.7,0,47.4,0,71.1c0,56.4,0,112.8,0,169.2c0,68.7,0,137.4,0,206
			c0,59,0,117.9,0,176.9c0,19.6,0,39.2,0,58.8c0,8.9-1.3,19,0,27.9c0.1,0.4,0,0.8,0,1.2c0,0.9,0.5,1.6,1.1,1.9
			c0.3,0.2,0.7,0.3,1.2,0.4c13,0.5,25.3,13.3,25.8,26.2c0,0.5,0.2,0.8,0.4,1.1c0.3,0.6,1,1.1,1.9,1.1c40.5,0,80.9,0,121.4,0
			c64.5,0,129,0,193.6,0c14.9,0,29.7,0,44.6,0c0.9,0,1.6-0.5,1.9-1.1c0.2-0.3,0.3-0.7,0.4-1.2c0.5-12.9,12.7-25.7,25.8-26.2
			C459.6,791,459.8,790.9,460,790.9z M429.3,814.9c-39.8,0-79.6,0-119.3,0c-64.5,0-129,0-193.6,0c-14.2,0-28.3,0-42.5,0
			c-1.7-13.9-13.9-26.5-27.8-28.3c0-23,0-46,0-69.1c0-56.4,0-112.8,0-169.2c0-68.7,0-137.4,0-206c0-59,0-117.9,0-176.9
			c0-19.6,0-39.2,0-58.8c0-8.9,1.3-19,0-27.9c-0.1-0.4,0-0.8,0-1.2c14-1.8,26.1-14.9,27.8-28.7c39.8,0,79.6,0,119.3,0
			c64.5,0,129,0,193.6,0c14.2,0,28.3,0,42.5,0c1.7,14.1,14.3,27.4,28.5,28.8c0,23.7,0,47.3,0,71c0,56.4,0,112.8,0,169.2
			c0,68.7,0,137.4,0,206c0,59,0,117.9,0,176.9c0,19.6,0,39.2,0,58.8c0,8.6-1.2,18.4-0.1,27C443.6,788.1,431.1,800.9,429.3,814.9z"/>
		<path d="M255.8,79.6c0-0.1,0-0.4-0.1-0.7l-0.1-0.6h-3.7c-2.5,0-3.7,0.1-3.7,0.3c0,0.2-0.1,0.3-0.3,0.3c-0.3,0-0.6,0.2-0.9,0.6
			c-0.4,0.5-0.4,0.7-0.2,0.7c0.3,0,0.5,0.1,0.5,0.4c0.1,0.3,0.5,0.4,1.1,0.4c0.6,0,1,0.2,1.1,0.7c0.1,0.5,0.1,0.7-0.1,0.8
			c-0.2,0.1-0.3,0.5-0.3,1.3c0,0.7-0.1,1.2-0.4,1.3c-0.2,0.1-0.3,0.3-0.3,0.7c0,0.1,0.1,0.2,0.1,0.4c0,0.5-0.1,0.9-0.3,1.4
			c-0.2,0.5-0.4,0.8-0.7,0.8c-0.4,0.1-0.5,0.4-0.5,0.9c0,0.5-0.1,0.9-0.3,1.1c-0.2,0.2-0.4,0.8-0.4,1.7c-0.1,1-0.3,1.5-0.6,1.5
			c-0.4,0-0.5,0.2-0.4,0.5c0,0.2,0,0.4,0,0.4c-0.1,0.1-0.2,0.1-0.4,0.1c-0.4,0-0.7-0.1-0.9-0.2c-0.5-0.3-0.7-1.2-0.8-2.9
			c0-0.7-0.1-1.2-0.4-1.4c-0.2-0.2-0.3-0.7-0.3-1.6c0-1.3-0.3-2.2-0.9-2.6c-0.2-0.1-0.2-0.3,0.1-0.4c0.1,0,0.2-0.2,0.3-0.4
			c0.1-0.2,0.1-0.5,0.1-0.7c0-0.2-0.1-0.3-0.2-0.3c-0.1,0-0.3-0.3-0.4-0.8c-0.1-0.6-0.4-0.9-0.7-0.9c-0.3-0.1-0.4-0.2-0.4-0.3
			c0-0.4,0.5-0.5,1.4-0.5c1.3,0,1.9-0.2,1.9-0.7c0-0.2,0.1-0.4,0.3-0.4c0.2,0,0.1-0.3-0.3-0.8c-0.4-0.5-0.9-0.8-1.6-0.8
			c-0.7,0-1.1-0.1-1.2-0.3c-0.1-0.1-0.3-0.1-0.7,0.1c-0.4,0.2-0.6,0.2-0.7-0.1c-0.2-0.2-0.3-0.3-0.4-0.1c-0.1,0.2-0.5,0.3-1.1,0.3
			c-0.4,0-0.6,0-0.8-0.1c-0.1-0.1-0.2-0.3-0.3-0.7c-0.1-0.5-0.3-0.8-0.7-0.8c-0.2,0-0.5,0.2-0.8,0.5c-0.4,0.4-0.7,0.5-1.2,0.5
			c-0.4,0-0.6,0.1-0.6,0.4c0,0.3-0.1,0.4-0.3,0.4c-0.2,0-0.3,0.2-0.3,0.6c0,0.5,0.1,0.7,0.3,0.7c0.2,0,0.3,0.1,0.3,0.4
			c0,0.2,0.3,0.4,1,0.5c0.6,0.1,1.1,0.4,1.5,0.9c0.4,0.5,0.7,1.1,0.7,1.6c0,0.5,0.1,1,0.3,1.6c0.2,0.6,0.4,0.9,0.5,0.9
			c0.1,0,0.2,0.3,0.2,0.8c0,0.6,0.2,1.1,0.5,1.4c0.3,0.3,0.5,0.9,0.8,1.8c0.2,0.9,0.3,1.7,0.3,2.5c0,0.9,0.1,1.4,0.4,1.4
			c0.1,0.1,0.2,0.3,0.2,0.7c0,0.4,0.1,0.6,0.2,0.6c0.2,0.1,0.3,0.6,0.3,1.6c0,0.9,0.1,1.4,0.4,1.4c0.2,0,0.4,0.3,0.6,1
			c0.2,0.7,0.4,1,0.5,1c0.2,0,0.4,0.3,0.4,0.8c0.1,0.7,0.5,1,1.3,1c0.1,0,0.3,0,0.6-0.1c0.5-0.1,0.7-0.4,0.7-1.1
			c0-0.6,0.1-0.9,0.3-0.9c0.2,0,0.3-0.3,0.3-0.9c0-0.6,0.1-0.9,0.3-0.9c0.2-0.1,0.3-0.6,0.3-1.5c0-0.9,0.2-1.6,0.6-1.9
			c0.5-0.5,0.8-0.7,1.1-0.8c0.3-0.1,0.4-0.5,0.4-1.3c0-0.8,0.1-1.2,0.4-1.4c0.2-0.1,0.4-0.6,0.6-1.5c0.2-0.9,0.3-1.4,0.4-1.5
			c0.3-0.2,0.4-0.5,0.4-0.9c0-0.4,0.2-0.6,0.7-0.7c0.4,0,0.6-0.3,0.6-0.7c0-0.2-0.1-0.6-0.1-1c0-1,0.2-1.5,0.6-1.5
			c0.3,0,0.5-0.3,0.5-0.8c0-0.5,0.2-0.9,0.6-1.4c0.4-0.4,0.9-0.7,1.6-0.8C255.4,80.8,255.8,80.3,255.8,79.6z"/>
		<path d="M270.4,79.3c-0.3-0.2-1.4-0.3-3.4-0.3c-2,0-2.9,0.1-2.9,0.3c0,0.1-0.3,0.2-0.9,0.2c-0.6,0-0.9,0.1-0.9,0.4
			s-0.1,0.4-0.3,0.4c-0.2,0-0.3,0.2-0.3,0.6c0,0.5,0.1,0.8,0.4,0.9c0.3,0.1,0.4,0.9,0.4,2.5c0,1.6,0.1,2.4,0.3,2.5
			c0.2,0.1,0.3,0.8,0.3,2.2c0,1.3-0.1,2-0.3,2.1c-0.2,0.1-0.4,1.5-0.4,4.3c-0.1,2.4-0.2,3.9-0.4,4.3c-0.2,0.5-0.8,0.8-1.8,0.9
			c-0.6,0-0.9,0.1-1,0.2c-0.1,0.1-0.2,0.4-0.2,0.8c0,0.6,0.1,0.9,0.4,0.9c0.3,0,0.6,0.1,0.9,0.4c0.3,0.3,0.5,0.4,0.6,0.2
			c0.1-0.2,1.5-0.4,4-0.4c2.1,0,3.2,0.1,3.2,0.3c0,0.2,0.2,0.3,0.5,0.3c0.4,0,0.6-0.1,0.6-0.2c0-0.1,0.2-0.3,0.6-0.5
			c0.4-0.2,0.6-0.4,0.6-0.6c0-0.9-0.7-1.4-1.9-1.5l-1.3-0.1l0.1-6.7c0.1-4.5,0.2-6.8,0.3-7c0.1-0.1,0.2-0.8,0.3-1.9
			c0.1-2.1,0.3-3.2,0.7-3.2c0.2,0,0.4-0.1,0.4-0.3c0-0.2,0.2-0.3,0.7-0.3c0.4,0,0.8-0.1,1-0.3c0.3-0.2,0.4-0.5,0.4-0.7
			C270.9,79.8,270.7,79.5,270.4,79.3z M263.6,96.6c-0.3,0-0.4-0.1-0.4-0.3c0-0.2,0.1-0.3,0.4-0.3c0.2,0,0.4,0.1,0.4,0.3
			C264,96.5,263.9,96.6,263.6,96.6z M265.3,89.2c-0.3,0-0.4-0.2-0.4-0.5c0-0.4,0.1-0.6,0.4-0.6c0.3,0,0.4,0.2,0.4,0.6
			C265.7,89,265.6,89.2,265.3,89.2z"/>
		<path d="M171.2,785.3c0.1,0,0.2-0.2,0.2-0.5c0-0.2,0-0.4-0.1-0.4c-0.1,0-0.1-0.1-0.1-0.3c0-0.2,0.1-0.4,0.2-0.6
			c0.1-0.3,0.1-0.5-0.2-0.6c-0.2-0.2-0.5-0.3-0.9-0.3c-0.5,0-0.8,0.1-1.1,0.4c-0.3,0.2-0.4,0.3-0.5,0.2c-0.1-0.1-0.4-0.1-0.8,0
			c-0.5,0.1-1.4,0.2-2.6,0.2c-0.9,0-1.4,0-1.5-0.1c-0.1-0.1-0.2,0-0.4,0.2c-0.1,0.1-0.3,0.2-0.4,0.2c-0.2,0-0.4,0-0.7-0.1
			c-0.7-0.2-1.1-0.2-1.3-0.2c-0.1,0-0.2,0-0.2,0c-0.1,0-0.3,0.1-0.4,0.3s-0.2,0.4-0.2,0.5c0,0.1,0,0.1,0.1,0.2c0,0,0.1,0.2,0.1,0.5
			c0,0.1,0,0.2-0.1,0.3c-0.1,0-0.2,0.1-0.3,0.1c-0.3,0-0.5,0.1-0.5,0.3c0,0,0,0.1,0.1,0.2c0.1,0.1,0.1,0.3,0.1,0.6
			c0,0.3-0.1,0.4-0.1,0.5c0,0.5,0.2,0.8,0.6,0.8c0.3,0,0.4-0.1,0.4-0.2c0-0.1,0.1-0.2,0.2-0.2c0.1,0,0.1,0,0.2-0.1c0,0,0-0.1,0-0.2
			c0-0.1-0.1-0.2-0.2-0.2c-0.1-0.1-0.1-0.1-0.1-0.2c0,0,0-0.1,0-0.1c0,0,0-0.1,0.1-0.1c0,0,0.1,0,0.2-0.1c0.2-0.1,0.2-0.2,0.2-0.3
			c0,0,0-0.1,0-0.2c0-0.1,0-0.1,0-0.2c0-0.1,0-0.2,0.1-0.2c0.1-0.1,0.1-0.3,0-0.6c-0.1-0.3-0.1-0.4,0-0.4c0.1,0,0.1,0.1,0.1,0.2
			c0,0.1,0.2,0.2,0.5,0.4c0.4,0.1,0.7,0.2,1.1,0.2c0.4,0,0.7,0.1,0.8,0.3c0.2,0.2,0.3,0.2,0.5,0.2c0.1,0,0.1,0,0.1,0
			c0.1,0,0.1,0,0,0.1c-0.3,0.3-0.4,2.2-0.5,5.8c0,0.8-0.1,1.2-0.3,1.4c-0.2,0.1-0.3,0.3-0.3,0.4c0,0.1-0.3,0.2-0.8,0.2l-0.7,0.1
			l-0.1,0.5c0,0,0,0.1,0,0.1c0,0,0,0.1,0,0.1c0,0.2,0.1,0.4,0.4,0.7c0.3,0.3,0.5,0.4,0.7,0.4c0.1,0,0.1,0,0.1-0.1s0-0.1-0.1-0.1
			c-0.1,0-0.1,0-0.1-0.1c0-0.1,0.2-0.1,0.5-0.1c0.1,0,0.4,0,0.8,0c0.4,0,0.7,0,0.9,0c0.6,0,0.9-0.1,1.1-0.2c0.1-0.1,0.3-0.2,0.6-0.1
			c0.2,0.1,0.3,0,0.4-0.1c0.1-0.1,0.2-0.1,0.3-0.1c0.1,0,0.3-0.1,0.5-0.2c0.1-0.1,0.2-0.2,0.2-0.3c0-0.1-0.1-0.2-0.2-0.5
			c-0.2-0.3-0.3-0.4-0.5-0.4c-0.1,0-0.2-0.1-0.2-0.2c0-0.1-0.1-0.2-0.3-0.1c0,0-0.1,0-0.1,0c-0.1,0-0.1,0-0.1,0
			c-0.1,0-0.2,0-0.3-0.1c0-0.1-0.1-0.3-0.1-0.5v-0.4c0-0.5,0-0.8,0-0.9c0-0.1,0.1-0.2,0.2-0.2c0.2,0,0.2-0.1,0.2-0.4
			c0-0.3-0.1-0.5-0.2-0.5c-0.1,0-0.2-0.4-0.2-1.1c0-0.8,0.1-1.2,0.2-1.4c0.1-0.1,0.2-0.5,0.2-1.2c0-0.7,0.1-1,0.1-1.1
			c0.1-0.2,0.5-0.2,1.2-0.2c1,0,1.5,0.1,1.6,0.4c0,0.1,0.1,0.2,0.4,0.5c0.2,0.2,0.3,0.4,0.3,0.8c0,0.3,0.1,0.5,0.1,0.5
			c0,0.1,0.2,0.1,0.4,0.1c0.2,0,0.4,0,0.4-0.1c0-0.1,0.1-0.2,0.3-0.2c0.2-0.1,0.3-0.2,0.3-0.4c0-0.2-0.1-0.4-0.2-0.5
			C171.1,785.4,171.1,785.3,171.2,785.3z"/>
		<path d="M191.8,781.9c-0.2-0.1-0.5-0.1-0.8-0.1c-0.1,0-0.2,0-0.5,0.1c-0.3,0.1-0.5,0.1-0.7,0.1h-0.1h-0.2c-0.2,0-0.5,0-1,0.1
			c-0.4,0-0.7,0.1-0.8,0.1c-0.1,0-0.2,0.1-0.2,0.2c0,0.2,0,0.3-0.1,0.3c-0.1,0-0.1,0-0.1,0.1c0,0.1,0,0.2,0,0.3
			c0,0.1,0.1,0.2,0.2,0.2c0.1,0.1,0.2,0.5,0.2,1.3c0,0.8,0.1,1.2,0.2,1.2c0.1,0,0.1,0.3,0.1,0.8v0.8h-1.3c-0.8,0-1.7,0-2.7-0.1
			l-1.4-0.1v-0.7c0-0.5,0-0.7,0.1-0.7c0.1,0,0.1-0.3,0.2-0.9c0-1.1,0.1-1.6,0.4-1.6c0.1,0,0.2,0,0.2-0.1c0-0.1,0.1-0.2,0.4-0.2
			c0.2,0,0.4-0.1,0.5-0.2c0.1-0.1,0.2-0.2,0.2-0.4c0-0.2-0.1-0.3-0.2-0.4c-0.2-0.1-0.5-0.2-1-0.2c-0.3,0-0.4,0-0.5,0.1
			c0,0-0.5,0.1-1.3,0.1c-0.9,0.1-1.7,0.2-2.4,0.5c-0.1,0-0.2,0.1-0.2,0.2c0,0.1,0.2,0.2,0.6,0.4l0.6,0.3l0,0.8v0.9v0.3
			c0,0.2,0,0.4,0.1,0.4c0.1,0.1,0.2,0.5,0.2,1.1c0,0.6-0.1,1.1-0.2,1.4c-0.1,0.3-0.2,0.6-0.2,0.8c0,0,0,0,0,0.1c0,0,0,0.1,0,0.1
			c0,0.2,0.1,0.4,0.1,0.6c0,0.5,0,1.1-0.1,1.8c-0.1,0.6-0.2,1-0.2,1.2c-0.1,0.2-0.4,0.3-0.8,0.3c-0.3,0-0.5,0.1-0.6,0.1
			c-0.1,0.1-0.1,0.2-0.1,0.4v0.5l0.7-0.1c0.3-0.1,1-0.1,2.2-0.1h0.7h0.7c1,0,1.6,0,1.6-0.1c0-0.1-0.1-0.3-0.2-0.5
			c-0.2-0.2-0.3-0.3-0.4-0.3h-0.1c-0.2,0.1-0.4,0.1-0.6-0.1c-0.1-0.1-0.2-0.1-0.3-0.2c0-0.1-0.1-0.2-0.1-0.4c0-0.3,0-0.5,0-0.8
			c0-0.9,0.1-1.6,0.1-2.1v-0.8h4.9l0.1,0.4c0,0.2,0.1,0.5,0.1,0.7c0,0.5,0,1.1-0.1,1.7c-0.1,0.6-0.2,1-0.3,1
			c-0.1,0.1-0.4,0.2-0.8,0.3c-0.3,0-0.5,0.1-0.5,0.1c-0.1,0.1-0.1,0.2-0.1,0.4c0,0.3,0.1,0.5,0.3,0.5c0.3,0.1,1.3,0.1,3.1,0.1
			c1.3,0,2,0,2.1-0.1c0.2-0.1,0.3-0.2,0.3-0.4c0-0.2-0.1-0.3-0.2-0.5c-0.1-0.1-0.3-0.2-0.4-0.2c0,0,0,0-0.1,0c0,0,0,0-0.1,0
			c-0.1,0.1-0.3,0.1-0.5,0l-0.4-0.1l0.1-3.5c0-2.3,0.1-3.5,0.2-3.6c0.1,0,0.1-0.3,0.1-0.9c0.1-1.1,0.2-1.6,0.4-1.6
			c0.1,0,0.2,0,0.2-0.1c0-0.1,0.1-0.2,0.4-0.2c0.2,0,0.4-0.1,0.5-0.2c0.2-0.1,0.2-0.3,0.2-0.4C192.2,782.1,192.1,782,191.8,781.9z
			 M181,790.8c-0.2-0.1-0.3-0.1-0.3-0.2c0-0.1,0-0.1,0.1-0.1c0.2,0,0.3,0.1,0.4,0.2c0,0,0,0,0,0.1
			C181.2,790.8,181.1,790.8,181,790.8z M181.7,790.7c-0.1,0-0.1-0.1-0.1-0.2c0-0.1,0-0.2,0.1-0.2c0.1,0,0.2,0.1,0.2,0.2
			C181.8,790.7,181.8,790.7,181.7,790.7z M181.7,787c-0.1,0-0.2-0.1-0.2-0.3c0-0.3,0.1-0.4,0.2-0.4c0.2,0,0.2,0.1,0.2,0.3
			C181.9,786.9,181.8,787,181.7,787z M188.8,790.8c-0.1,0.1-0.2,0.1-0.4,0c-0.2-0.1-0.3-0.1-0.3-0.2c0-0.1,0.1-0.1,0.2-0.1
			c0.3,0,0.5,0.1,0.5,0.2C188.9,790.7,188.8,790.8,188.8,790.8z M189.2,790.7c-0.1,0-0.2-0.1-0.2-0.2c0-0.1,0.1-0.2,0.2-0.2
			c0.1,0,0.1,0.1,0.1,0.2C189.3,790.7,189.3,790.7,189.2,790.7z M189.2,787c-0.1,0-0.2-0.1-0.2-0.3c0-0.3,0.1-0.4,0.2-0.4
			c0.1,0,0.2,0.1,0.2,0.3C189.4,786.9,189.3,787,189.2,787z"/>
		<path d="M209.4,790.2c-0.1,0-0.3,0.2-0.5,0.5c-0.3,0.3-0.4,0.6-0.4,0.7c0,0.1-0.1,0.2-0.4,0.2c-0.1,0-0.2,0-0.3,0.1
			c0,0-0.1,0.1-0.1,0.1c0,0,0,0.1,0,0.3c0,0.2-0.1,0.3-0.4,0.3c0,0-0.1,0-0.1,0c-0.1,0-0.1,0-0.2,0c-0.2,0-0.4,0.1-0.6,0.3
			c-0.2,0.2-0.4,0.3-0.6,0.3c-0.1,0-0.2-0.1-0.2-0.2c0-0.1-0.1-0.1-0.4,0c-0.2,0.1-0.6,0.2-1.2,0.2c-0.5,0-0.7,0-0.7-0.1
			c0-0.1-0.1-0.1-0.2-0.1c-0.1,0-0.1-0.1-0.2-0.2c-0.1-0.2-0.1-0.3-0.1-0.4c0-0.1,0-0.2,0-0.3c0-0.2,0-0.4,0-0.6c0-0.3,0-0.5,0-0.8
			c0-0.3,0-0.5,0-0.8c0-0.3,0-0.5,0-0.6v-0.2c0-0.1,0.4-0.1,1.3-0.1c0.7,0,1.2,0.1,1.4,0.2c0.2,0.1,0.4,0.4,0.4,0.8
			c0,0.2,0,0.3,0.1,0.3c0,0,0.1,0,0.2,0c0.1-0.1,0.3-0.1,0.5-0.1c0.1,0,0.2,0,0.3-0.1c0-0.1,0.1-0.2,0.1-0.5c0-0.1,0-0.2,0-0.3
			c0-0.2,0-0.3,0-0.4v-0.2c0-0.3,0-0.6,0.1-0.7c0.1-0.1,0.1-0.3,0-0.4c-0.1-0.1-0.1-0.3,0.1-0.4c0.1-0.1,0.2-0.2,0.2-0.4
			c0-0.3-0.3-0.4-1-0.4c-0.4,0-0.6,0.2-0.6,0.5c0,0.1,0,0.2,0.1,0.3c0,0.2,0,0.4,0,0.5c-0.1,0.1-0.3,0.2-0.9,0.3
			c-0.5,0.1-1,0.1-1.5,0.1H203v-0.6c0-0.4,0.1-0.6,0.2-0.6c0.1,0,0.2-0.1,0.2-0.4c0-0.3-0.1-0.5-0.2-0.9c-0.1-0.2-0.2-0.4-0.1-0.4
			c0-0.1,0.1-0.1,0.2-0.3c0.2-0.1,0.3-0.3,0.2-0.5c0,0,0-0.1,0-0.2c0-0.1,0.1-0.3,0.4-0.3c0.3-0.1,0.7-0.1,1.5-0.2
			c0.7,0,1.1-0.1,1.1-0.1c0.3,0,0.5,0.1,0.6,0.2c0.1,0.2,0.3,0.3,0.5,0.4c0.2,0.1,0.3,0.2,0.3,0.3c0,0.1,0.1,0.2,0.3,0.3
			c0.2,0.1,0.3,0.2,0.3,0.3c0,0.2,0.1,0.3,0.3,0.5c0.2,0.2,0.4,0.2,0.6,0.2h0c0.3,0,0.4-0.2,0.4-0.6c0-0.2-0.1-0.3-0.2-0.5
			c-0.1-0.1-0.2-0.3-0.2-0.5c0-0.3-0.1-0.5-0.2-0.5c-0.1,0-0.1-0.1,0-0.4c0.1-0.1,0.1-0.2,0.1-0.3c0,0-0.1-0.1-0.1-0.1
			c-0.1-0.1-0.2-0.2-0.2-0.3c0-0.1-0.1-0.3-0.3-0.5c-0.2-0.2-0.4-0.3-0.6-0.1c-0.3,0.1-1.8,0.3-4.7,0.4h-0.7c-1.5,0-2.2-0.1-2.3-0.3
			c0-0.1-0.1-0.1-0.2-0.1c-0.1,0-0.2,0-0.2,0.1l0,0.1c0,0.1,0,0.1,0,0.1c0,0,0,0.1,0,0.2c0,0.1,0,0.2,0,0.2c0,0.2-0.1,0.3-0.3,0.3
			c-0.2,0.1-0.3,0.2-0.2,0.5c0.1,0.2,0.1,0.4,0.2,0.5c0.1,0.1,0.2,0.1,0.3,0.1c0.1,0,0.3,0,0.4,0c0.1,0,0.2,0,0.4,0
			c0.3,0,0.5,0.1,0.6,0.4c0.1,0.2,0.1,0.7,0.1,1.4c0,0.9-0.1,1.4-0.2,1.4c-0.1,0-0.1,0.2,0,0.4c0.1,0.2,0.1,0.4,0,0.6
			c-0.1,0.2-0.2,0.3-0.3,0.3c-0.1,0-0.1,0.1,0.1,0.2c0.1,0.1,0.1,0.3,0.1,0.6c0,0.5-0.1,1.5-0.2,2.8l-0.1,0.9h-0.6
			c-0.4,0-0.6,0.1-0.6,0.3c0,0.2-0.1,0.3-0.3,0.3c-0.1,0-0.2,0.1-0.2,0.3c0,0.3,0.1,0.5,0.3,0.6c0.2,0.1,0.3,0.2,0.3,0.4
			c0,0.1,0.2,0.1,0.7,0.1c0.5,0,0.8-0.1,0.9-0.3c0.1-0.1,0.5-0.2,1.2-0.2c0.5,0,0.9,0,1.3,0c0.7,0,1.1,0.1,1.2,0.2
			c0,0.1,0.2,0.1,0.4,0c0.2-0.1,0.7-0.2,1.5-0.2c0.8,0,1.3,0,1.5-0.1c0.2,0,0.3-0.1,0.5-0.3c0.2-0.2,0.3-0.3,0.2-0.5
			c0-0.2,0-0.3,0.1-0.4c0.1-0.1,0.2-0.3,0.2-0.8c0-0.3,0-0.5,0-0.6c0-0.1,0.1-0.1,0.2-0.1c0.2,0,0.3-0.2,0.3-0.5
			c0-0.2-0.1-0.4-0.2-0.6C209.7,790.3,209.5,790.2,209.4,790.2z"/>
		<path d="M199.2,792.1c0,0,0.1,0,0.1-0.1c0.1-0.2,0.1-0.3,0-0.3c-0.1,0-0.2,0.1-0.2,0.2C199.1,792,199.1,792.1,199.2,792.1z"/>
		<path d="M246.6,790.7c0,0-0.1,0-0.1,0c-0.1,0-0.1,0-0.1,0.1c-0.2,0-0.3,0.1-0.3,0.3c0,0.1,0.1,0.2,0.3,0.2c0.2,0,0.3-0.1,0.3-0.3
			C246.7,790.7,246.7,790.6,246.6,790.7L246.6,790.7z"/>
		<path d="M229.2,799.7c-0.1,0-0.1,0.1-0.1,0.3c0,0.2,0,0.3,0.1,0.3c0.1,0,0.1-0.1,0.1-0.3C229.3,799.8,229.2,799.7,229.2,799.7z"/>
		<path d="M245.7,790.1c-0.1,0-0.2-0.1-0.2-0.3c-0.1-0.2-0.2-0.3-0.4-0.3c-0.2,0-0.4-0.1-0.4-0.4c0-0.1-0.1-0.2-0.2-0.3
			c-0.2-0.1-0.3-0.1-0.3,0.1c0,0.1-0.1,0.2-0.4,0.3c-0.2,0.1-0.3,0.2-0.1,0.3c0.1,0.1,0.2,0.3,0.2,0.6c0,0.3,0,0.4-0.1,0.4
			c-0.1,0-0.3,0.2-0.6,0.5c-0.6,0.6-1.1,0.9-1.5,0.9c-0.2,0-0.4,0.1-0.7,0.2c-0.3,0.1-0.7,0.2-1.2,0.2c-0.6,0-0.9-0.1-0.9-0.4
			c0-0.1,0-0.1,0-0.2c0.1-0.2,0.1-0.3,0-0.4c-0.1,0-0.1-0.2-0.1-0.4c0-0.4,0-0.7,0.1-1c0-0.1,0.1-0.2,0.1-0.4c0-0.1,0-0.4-0.1-0.6
			c0-0.1,0-0.3,0-0.5c0-0.2,0-0.3,0.1-0.4c0.2-0.1,0.2-0.3,0.2-0.8c0-0.2,0-0.3-0.1-0.4c-0.1-0.1-0.1-0.2,0-0.4
			c0.1-0.1,0.1-0.5,0.1-1.2V785l-0.1-1.3h0.9c0.6,0,1-0.1,1.1-0.2c0.1-0.2,0.1-0.4,0.1-0.6c0-0.3-0.1-0.5-0.2-0.6
			c-0.1-0.1-1.1-0.1-2.9-0.1h-0.9c-1.2,0-1.8,0.1-1.8,0.2c-0.1,0.1-0.1,0.3-0.1,0.4c0,0.3,0.1,0.6,0.2,0.7c0.1,0.1,0.4,0.2,0.7,0.2
			c0.5,0,0.8,0.1,0.8,0.4c0,0.1,0,0.1-0.1,0.2c-0.1,0.1-0.1,0.4-0.1,0.7c0,0.3,0,0.6,0.1,0.8c0.1,0.3,0.1,0.4,0,0.5
			c-0.1,0.1-0.1,0.3-0.1,0.7c0,0.2,0,0.3,0,0.4c0,0.8,0.1,1.3,0.1,1.6c0,1.3-0.1,1.9-0.3,1.9c-0.1,0-0.2,0.2-0.2,0.7
			c0,0.2,0,0.3,0.1,0.4l0.1,0.1c0,0.2-0.3,0.2-0.9,0.2c-0.3,0-0.5,0.1-0.6,0.2c-0.1,0.1-0.2,0.4-0.2,0.8v0.2c0,0.5,0.2,0.8,0.6,0.8
			c0.1,0,0.3,0,0.4-0.1c0.3-0.1,0.4-0.2,0.4-0.3c0-0.1,0.3-0.1,1-0.1c0.7,0,1,0,1,0.1c0,0.1,0.7,0.1,2.1,0.1c1.4,0,2.1-0.1,2.1-0.1
			c0-0.1,0.3-0.1,0.8-0.1c0.6,0,0.9,0,0.9,0.1c0,0.1,0.1,0.2,0.4,0.2c0.2,0,0.4-0.1,0.4-0.3c0-0.1,0.1-0.3,0.3-0.4
			c0.2-0.1,0.3-0.2,0.3-0.4c0-0.2,0-0.4,0.1-0.5c0.1-0.1,0.1-0.3,0-0.4c0,0-0.1-0.1-0.1-0.2c0-0.2,0-0.5,0.1-0.8
			c0.1-0.3,0.2-0.4,0.2-0.4c0.1,0,0.1-0.1,0.1-0.3C245.9,790.2,245.8,790.1,245.7,790.1z"/>
		<path d="M265.9,785.7c-0.2-0.1-0.2-0.2-0.2-0.5c0-0.3,0-0.5-0.1-0.5c-0.1,0-0.1-0.1-0.1-0.4s-0.1-0.4-0.2-0.4
			c-0.1,0-0.2-0.1-0.3-0.3c-0.1-0.2-0.2-0.3-0.3-0.4c-0.1-0.1-0.2-0.2-0.2-0.4c0-0.2-0.1-0.3-0.4-0.3c-0.7,0-1-0.1-1-0.4
			c0-0.1-0.1-0.2-0.2-0.2c-0.1,0-0.2,0-0.2-0.1s-0.1-0.1-0.3-0.1c-0.2,0-0.3-0.1-0.4-0.2c0-0.1-0.5-0.2-1.5-0.2
			c-0.9,0-1.5,0.1-1.6,0.2c-0.1,0.1-0.2,0.2-0.4,0.2c-0.2,0-0.3,0.1-0.4,0.3c-0.1,0.2-0.3,0.4-0.6,0.4c-0.3,0-0.6,0.1-1.1,0.2
			c-0.5,0.1-0.7,0.3-0.8,0.5c0,0.2-0.2,0.4-0.5,0.7s-0.4,0.5-0.4,0.5c0,0.1-0.1,0.1-0.2,0.1c-0.1,0-0.2,0.1-0.3,0.4
			c-0.1,0.2-0.2,0.5-0.3,0.7c-0.2,0.3-0.2,0.8-0.2,1.8c0,1.2,0.1,2.1,0.4,2.9c0.5,1.4,0.9,2.2,1.2,2.3c0.2,0,0.3,0.1,0.3,0.3
			c0,0.2,0.2,0.2,0.4,0.2c0.2,0,0.4,0,0.4,0.1c0,0.1,0.1,0.1,0.3,0.1c0.2,0,0.3,0.1,0.3,0.4c0,0.2,0,0.3,0.1,0.4
			c0.1,0.1,0.2,0,0.4-0.1c0.1-0.1,0.2-0.1,0.3,0c0.2,0.1,0.9,0.2,2.2,0.2c1.1,0,1.7-0.1,1.7-0.2c0-0.1,0.3-0.2,0.7-0.2
			c0.4,0,0.6-0.1,0.6-0.2c0-0.2,0.1-0.3,0.2-0.3c0,0,0.2-0.1,0.4-0.3c0.3-0.2,0.4-0.3,0.5-0.3c0.1,0,0.2-0.1,0.2-0.3
			c0.1-0.2,0.2-0.3,0.3-0.3c0.1,0,0.2-0.1,0.3-0.3c0-0.2,0.2-0.3,0.4-0.3c0.2-0.1,0.3-0.1,0.3-0.2c0-0.1,0.1-0.1,0.2-0.1
			c0.1,0,0.2-0.2,0.2-0.6c0-0.3,0-0.5-0.1-0.5c-0.1,0-0.1-0.1,0-0.2c0.1-0.1,0.2-0.8,0.2-2.1c0-0.3,0-0.7,0-1.1
			C266.1,786,266.1,785.7,265.9,785.7z M263.7,788.8c-0.1,0-0.2,0.2-0.2,0.4c0,0.3-0.1,0.4-0.2,0.5c-0.1,0.1-0.2,0.4-0.3,0.8
			c-0.1,0.4-0.1,0.6-0.3,0.6c-0.1,0-0.2,0-0.2,0.1c0,0.1-0.1,0.2-0.4,0.2c-0.3,0.1-0.4,0.2-0.4,0.3c0,0.1,0,0.2-0.1,0.2
			c-0.1,0.1-0.2,0.1-0.4,0.2c-0.1,0.1-0.2,0.1-0.3,0.1c0,0.1-0.2,0.1-0.4,0.1c-0.2,0-0.3,0.1-0.5,0.2c-0.1,0.1-0.2,0.1-0.4,0.1
			c-0.2,0-0.4,0-0.7-0.1c-0.5-0.1-1-0.3-1.3-0.6c-0.3-0.3-0.7-0.8-1-1.5c-0.3-0.5-0.4-0.9-0.5-1.1c0-0.2-0.1-0.7-0.1-1.4
			c0-0.7,0-1.1,0.1-1.4c0-0.2,0.1-0.5,0.3-0.8c0.3-0.5,0.6-0.9,1-1.3c0.4-0.4,0.8-0.6,1-0.7c0.3,0,0.5-0.1,0.5-0.3
			c0-0.1,0.1-0.2,0.2-0.2c0.1,0,0.2,0,0.2-0.1c0-0.1,0.1-0.1,0.3-0.1c0.2,0,0.3,0,0.3,0.1c0,0.1,0.3,0.1,0.9,0.1
			c0.5,0,0.8,0.1,0.8,0.2c0,0.1,0.1,0.2,0.3,0.3c0.2,0.1,0.3,0.2,0.3,0.3c0,0.1,0.1,0.2,0.3,0.3c0.3,0.1,0.5,0.4,0.5,0.8
			c0,0.2,0.1,0.5,0.3,0.8c0.2,0.3,0.3,0.7,0.3,1.1c0,0.5,0,0.7,0.1,0.8c0.1,0.1,0.1,0.2,0.1,0.4
			C263.9,788.6,263.8,788.7,263.7,788.8z"/>
		<path d="M285.2,781h-2c-1.3,0-2,0-2,0.1c0,0.1-0.1,0.2-0.2,0.2c-0.1,0-0.3,0.1-0.5,0.4c-0.2,0.2-0.2,0.4-0.1,0.4
			c0.1,0,0.2,0.1,0.3,0.2c0.1,0.1,0.2,0.2,0.6,0.2c0.2,0,0.3,0,0.4,0.1c0.1,0.1,0.1,0.2,0.2,0.3c0.1,0.2,0,0.4-0.1,0.4
			c-0.1,0-0.2,0.3-0.2,0.6c0,0.4-0.1,0.6-0.2,0.7c-0.2,0.1-0.2,0.2-0.2,0.4c0,0,0,0.1,0,0.2c0,0.3-0.1,0.5-0.2,0.8
			c-0.1,0.3-0.2,0.4-0.4,0.5c-0.2,0.1-0.3,0.2-0.3,0.5c0,0.3,0,0.5-0.1,0.6c-0.1,0.1-0.2,0.4-0.2,0.9c-0.1,0.5-0.2,0.8-0.3,0.8
			c-0.1,0-0.2,0.1-0.2,0.2v0.2c0,0.1-0.1,0.2-0.2,0.2c-0.2,0-0.4,0-0.5-0.1c-0.2-0.2-0.4-0.7-0.4-1.5c0-0.3-0.1-0.5-0.2-0.8
			c-0.1-0.2-0.2-0.5-0.2-0.9c0-0.8-0.2-1.2-0.5-1.4c-0.1-0.1-0.1-0.1,0-0.2c0.1-0.1,0.2-0.2,0.2-0.5c0-0.2,0-0.3-0.1-0.3
			c-0.1,0-0.1-0.1-0.2-0.4c-0.1-0.3-0.2-0.4-0.4-0.5c-0.2-0.1-0.2-0.1-0.2-0.2c0-0.2,0.2-0.3,0.7-0.3c0.7,0,1.1-0.1,1.1-0.4
			c0-0.1,0.1-0.2,0.2-0.2s0.1-0.1-0.2-0.4c-0.2-0.3-0.5-0.4-0.8-0.4c-0.4,0-0.6-0.1-0.6-0.2c-0.1-0.1-0.2-0.1-0.4,0.1
			c-0.2,0.1-0.3,0.1-0.4,0c-0.1-0.1-0.2-0.2-0.2,0c-0.1,0.1-0.3,0.2-0.6,0.2c-0.2,0-0.3,0-0.4-0.1c-0.1-0.1-0.1-0.2-0.2-0.4
			c-0.1-0.3-0.2-0.4-0.4-0.4c-0.1,0-0.3,0.1-0.5,0.3c-0.2,0.2-0.4,0.3-0.6,0.3c-0.2,0-0.3,0.1-0.3,0.2c0,0.1,0,0.2-0.1,0.2
			c-0.1,0-0.1,0.1-0.1,0.4c0,0.2,0,0.4,0.1,0.4c0.1,0,0.1,0.1,0.1,0.2c0,0.1,0.2,0.2,0.5,0.3c0.3,0.1,0.6,0.2,0.8,0.5
			c0.2,0.3,0.4,0.6,0.4,0.9c0,0.3,0.1,0.5,0.2,0.9c0.1,0.3,0.2,0.5,0.3,0.5c0.1,0,0.1,0.2,0.1,0.5c0,0.3,0.1,0.5,0.3,0.7
			c0.2,0.2,0.3,0.5,0.4,1c0.1,0.5,0.2,0.9,0.2,1.4c0,0.5,0.1,0.7,0.2,0.8c0.1,0,0.2,0.1,0.1,0.3c0,0.2,0,0.3,0.1,0.4
			c0.1,0.1,0.2,0.4,0.2,0.9c0,0.5,0.1,0.8,0.2,0.8c0.1,0,0.2,0.2,0.3,0.6c0.1,0.4,0.2,0.6,0.3,0.6c0.1,0,0.2,0.1,0.3,0.4
			c0.1,0.4,0.3,0.6,0.7,0.6c0.1,0,0.2,0,0.3-0.1c0.2,0,0.3-0.1,0.3-0.1c0-0.1,0.1-0.2,0.1-0.4c0-0.3,0.1-0.5,0.2-0.5
			c0.1,0,0.1-0.2,0.1-0.5c0-0.3,0.1-0.5,0.2-0.5c0.1-0.1,0.2-0.3,0.2-0.8c0-0.5,0.1-0.8,0.4-1.1c0.1-0.1,0.2-0.2,0.4-0.3
			c0.2-0.1,0.3-0.2,0.3-0.3c0.1-0.1,0.1-0.3,0.1-0.6c0-0.4,0.1-0.6,0.2-0.8c0.1-0.1,0.2-0.3,0.3-0.8c0.1-0.5,0.2-0.7,0.3-0.8
			c0.1-0.1,0.2-0.3,0.2-0.5c0-0.2,0.1-0.4,0.4-0.4c0.1,0,0.1,0,0.2,0c0.1,0,0.1,0,0.1-0.1c0,0,0-0.1,0.1-0.1c0,0,0-0.1,0-0.1
			c0-0.1,0-0.3,0-0.5c0-0.6,0.1-0.8,0.3-0.8c0.2,0,0.3-0.1,0.3-0.4c0-0.3,0.1-0.5,0.4-0.7c0.2-0.2,0.5-0.4,0.8-0.4
			c0.4-0.1,0.7-0.3,0.7-0.8c0-0.1,0-0.2-0.1-0.4L285.2,781z"/>
		<path d="M302.5,790.2c-0.1,0-0.3,0.2-0.5,0.5c-0.3,0.3-0.4,0.6-0.4,0.7c0,0.1-0.1,0.2-0.4,0.2c-0.1,0-0.2,0-0.3,0.1
			c0,0-0.1,0.1-0.1,0.1c0,0,0,0.1,0,0.3c0,0.2-0.1,0.3-0.4,0.3c0,0-0.1,0-0.1,0c-0.1,0-0.1,0-0.2,0c-0.2,0-0.4,0.1-0.6,0.3
			c-0.2,0.2-0.4,0.3-0.6,0.3c-0.1,0-0.2-0.1-0.2-0.2c0-0.1-0.1-0.1-0.4,0c-0.2,0.1-0.6,0.2-1.2,0.2c-0.5,0-0.7,0-0.7-0.1
			c0-0.1-0.1-0.1-0.2-0.1c-0.1,0-0.1-0.1-0.2-0.2c-0.1-0.2-0.1-0.3-0.1-0.4c0-0.1,0-0.2,0-0.3c0-0.2,0-0.4,0-0.6c0-0.3,0-0.5,0-0.8
			c0-0.3,0-0.5,0-0.8c0-0.3,0-0.5,0-0.6v-0.2c0-0.1,0.4-0.1,1.3-0.1c0.7,0,1.2,0.1,1.4,0.2c0.2,0.1,0.4,0.4,0.4,0.8
			c0,0.2,0,0.3,0.1,0.3c0,0,0.1,0,0.2,0c0.1-0.1,0.3-0.1,0.5-0.1c0.1,0,0.2,0,0.3-0.1c0-0.1,0.1-0.2,0.1-0.5c0-0.1,0-0.2,0-0.3
			c0-0.2,0-0.3,0-0.4v-0.2c0-0.3,0-0.6,0.1-0.7c0.1-0.1,0.1-0.3,0-0.4c-0.1-0.1-0.1-0.3,0.1-0.4c0.1-0.1,0.2-0.2,0.2-0.4
			c0-0.3-0.3-0.4-1-0.4c-0.4,0-0.6,0.2-0.6,0.5c0,0.1,0,0.2,0.1,0.3c0,0.2,0,0.4,0,0.5c-0.1,0.1-0.3,0.2-0.9,0.3
			c-0.5,0.1-1,0.1-1.5,0.1h-0.6v-0.6c0-0.4,0.1-0.6,0.2-0.6c0.1,0,0.2-0.1,0.2-0.4c0-0.3-0.1-0.5-0.2-0.9c-0.1-0.2-0.2-0.4-0.1-0.4
			c0-0.1,0.1-0.1,0.2-0.3c0.2-0.1,0.3-0.3,0.2-0.5c0,0,0-0.1,0-0.2c0-0.1,0.1-0.3,0.4-0.3c0.3-0.1,0.7-0.1,1.5-0.2
			c0.7,0,1.1-0.1,1.1-0.1c0.3,0,0.5,0.1,0.6,0.2c0.1,0.2,0.3,0.3,0.5,0.4c0.2,0.1,0.3,0.2,0.3,0.3c0,0.1,0.1,0.2,0.3,0.3
			c0.2,0.1,0.3,0.2,0.3,0.3c0,0.2,0.1,0.3,0.3,0.5c0.2,0.2,0.4,0.2,0.6,0.2h0c0.3,0,0.4-0.2,0.4-0.6c0-0.2-0.1-0.3-0.2-0.5
			c-0.1-0.1-0.2-0.3-0.2-0.5c0-0.3-0.1-0.5-0.2-0.5c-0.1,0-0.1-0.1,0-0.4c0.1-0.1,0.1-0.2,0.1-0.3c0,0-0.1-0.1-0.1-0.1
			c-0.1-0.1-0.2-0.2-0.2-0.3c0-0.1-0.1-0.3-0.3-0.5c-0.2-0.2-0.4-0.3-0.6-0.1c-0.3,0.1-1.8,0.3-4.7,0.4h-0.7c-1.5,0-2.2-0.1-2.3-0.3
			c0-0.1-0.1-0.1-0.2-0.1c-0.1,0-0.2,0-0.2,0.1l0,0.1c0,0.1,0,0.1,0,0.1c0,0,0,0.1,0,0.2c0,0.1,0,0.2,0,0.2c0,0.2-0.1,0.3-0.3,0.3
			c-0.2,0.1-0.3,0.2-0.2,0.5c0.1,0.2,0.1,0.4,0.2,0.5c0.1,0.1,0.2,0.1,0.3,0.1c0.1,0,0.3,0,0.4,0c0.1,0,0.2,0,0.4,0
			c0.3,0,0.5,0.1,0.6,0.4c0.1,0.2,0.1,0.7,0.1,1.4c0,0.9-0.1,1.4-0.2,1.4c-0.1,0-0.1,0.2,0,0.4c0.1,0.2,0.1,0.4,0,0.6
			c-0.1,0.2-0.2,0.3-0.3,0.3c-0.1,0-0.1,0.1,0.1,0.2c0.1,0.1,0.1,0.3,0.1,0.6c0,0.5-0.1,1.5-0.2,2.8l-0.1,0.9h-0.6
			c-0.4,0-0.6,0.1-0.6,0.3c0,0.2-0.1,0.3-0.3,0.3c-0.1,0-0.2,0.1-0.2,0.3c0,0.3,0.1,0.5,0.3,0.6c0.2,0.1,0.3,0.2,0.3,0.4
			c0,0.1,0.2,0.1,0.7,0.1c0.5,0,0.8-0.1,0.9-0.3c0.1-0.1,0.5-0.2,1.2-0.2c0.5,0,0.9,0,1.3,0c0.7,0,1.1,0.1,1.2,0.2
			c0,0.1,0.2,0.1,0.4,0c0.2-0.1,0.7-0.2,1.5-0.2c0.8,0,1.3,0,1.5-0.1c0.2,0,0.3-0.1,0.5-0.3c0.2-0.2,0.3-0.3,0.2-0.5
			c0-0.2,0-0.3,0.1-0.4c0.1-0.1,0.2-0.3,0.2-0.8c0-0.3,0-0.5,0-0.6c0-0.1,0.1-0.1,0.2-0.1c0.2,0,0.3-0.2,0.3-0.5
			c0-0.2-0.1-0.4-0.2-0.6C302.8,790.3,302.7,790.2,302.5,790.2z"/>
		<path d="M292.4,792.1c0,0,0.1,0,0.1-0.1c0.1-0.2,0.1-0.3,0-0.3c-0.1,0-0.2,0.1-0.2,0.2C292.2,792,292.3,792.1,292.4,792.1z"/>
		<path d="M311.8,779.5c0.2,0,0.3-0.1,0.3-0.2c0-0.1-0.1-0.1-0.3-0.1c-0.2,0-0.3,0-0.3,0.1C311.6,779.5,311.7,779.5,311.8,779.5z"/>
		<path d="M316.5,780.4C316.5,780.4,316.5,780.4,316.5,780.4c0.1-0.1,0.2-0.1,0.1-0.1c0,0-0.1,0-0.3,0c-0.2,0-0.3,0.1-0.3,0.2
			C316.1,780.5,316.3,780.5,316.5,780.4z"/>
		<path d="M323.5,792.7c-0.1,0-0.2-0.1-0.3-0.4c-0.1-0.2-0.3-0.4-0.5-0.4c-0.2,0-0.4-0.1-0.6-0.2c-0.2-0.1-0.4-0.2-0.4-0.4
			c-0.1-0.1-0.1-0.2-0.3-0.2c-0.1,0-0.3-0.1-0.6-0.4c-0.2-0.3-0.4-0.6-0.6-0.9c-0.1-0.3-0.4-0.6-0.8-1.1c-0.4-0.5-0.7-0.7-0.8-0.7
			c-0.1,0-0.2-0.1-0.4-0.3c-0.1-0.1-0.2-0.2-0.1-0.3c0,0,0.1-0.1,0.3-0.2c0.8-0.3,1.2-0.6,1.2-0.9c0-0.5,0.1-0.7,0.3-0.7
			c0.1,0,0.2-0.1,0.4-0.2c0.2-0.2,0.2-0.7,0.2-1.5c0-1-0.1-1.5-0.3-1.7c-0.1-0.1-0.2-0.2-0.4-0.2c-0.1,0-0.2,0-0.2-0.1
			c0-0.1-0.1-0.2-0.4-0.3c-0.3-0.1-0.4-0.3-0.5-0.5l-0.2-0.3c-0.1-0.1-0.2-0.1-0.2,0.1c0,0.1-0.3,0.1-0.8,0.1c-0.6,0-0.9,0-0.9-0.1
			c0-0.1-0.1-0.1-0.4-0.1c-0.3,0-0.5-0.1-0.6-0.3c-0.2-0.2-0.3-0.3-0.4-0.3c-0.1,0-0.2,0.1-0.1,0.3c0,0,0,0,0,0.1v0.1
			c0,0.1-0.6,0.2-1.8,0.2h-1.9l-0.5,0.5c-0.3,0.3-0.5,0.6-0.5,0.7c0,0.1,0.2,0.2,0.5,0.3c0.3,0.1,0.5,0.1,0.5,0.2
			c0,0.1,0,0.1,0.1,0.1c0.2,0,0.4,0.2,0.6,0.5c0.2,0.3,0.3,0.7,0.3,1.2c0,0.4,0.1,0.6,0.1,0.6c0,0.2-0.1,0.4-0.2,0.5
			c-0.2,0.1-0.2,0.2-0.1,0.3c0.1,0.1,0.2,0.3,0.2,0.7c0,0.3-0.1,0.5-0.2,0.5c-0.1,0-0.2,0,0,0.1c0.1,0.1,0.2,0.2,0.2,0.4
			c0,0.2-0.1,0.4-0.2,0.5c-0.1,0.1-0.1,0.3,0.1,0.4c0.1,0.1,0.2,0.3,0.2,0.4c0,0.1-0.1,0.3-0.2,0.4c-0.2,0.2-0.3,0.7-0.3,1.6
			c0,0.7,0,1.1-0.1,1.2c0,0.1-0.1,0.2-0.3,0.3c-0.2,0.1-0.3,0.1-0.3,0.2c0,0.1-0.3,0.1-0.8,0.1c-0.4,0-0.6,0.1-0.7,0.1
			c-0.1,0.1-0.1,0.2-0.1,0.5c0,0.2,0.2,0.5,0.6,0.8c0.2,0.1,0.3,0.2,0.5,0.2c0.2,0,0.3-0.1,0.3-0.2c0.1-0.1,0.8-0.2,2.1-0.2
			c1.3,0,2.1-0.1,2.2-0.3c0.1-0.1,0.2-0.2,0.3-0.2c0.1,0,0.2-0.1,0.2-0.2c0-0.1-0.1-0.2-0.4-0.2c-0.3,0-0.4-0.1-0.5-0.3
			c0-0.2-0.2-0.3-0.5-0.4c-0.4-0.1-0.5-0.2-0.5-0.4c0-0.1,0-0.2,0.1-0.3c0.2-0.2,0.2-0.3,0.1-0.4c-0.1,0-0.2-0.6-0.2-1.6
			c0-0.3,0-0.6,0-1c0-0.3,0-0.4,0.1-0.5c0-0.1,0.1-0.1,0.2-0.1c0.5,0,1,0.2,1.5,0.5c0.5,0.4,0.8,0.7,0.8,1c0,0.2,0.1,0.3,0.2,0.3
			s0.2,0.1,0.2,0.4c0,0.5,0.3,0.8,0.8,1c0.2,0.1,0.4,0.3,0.5,0.7c0.1,0.4,0.3,0.8,0.7,1.2l0.6,0.7l0.9-0.1c0.1,0,0.3,0,0.6-0.1
			c0.3,0,0.6,0,0.8-0.1c0.2,0,0.4-0.1,0.7-0.1c0.3-0.1,0.4-0.1,0.6-0.2c0.1-0.1,0.2-0.2,0.2-0.3
			C323.6,792.8,323.5,792.7,323.5,792.7z M317.8,785.9c-0.1,0-0.2,0-0.2,0.1c-0.1,0-0.1,0,0,0.1c0.2,0,0.2,0.1,0.2,0.2
			c0,0.1-0.1,0.3-0.4,0.4c-0.2,0.2-0.5,0.3-0.7,0.3c-0.3,0-0.6,0.1-1.1,0.2c-0.1,0-0.2,0-0.3,0c-0.2,0-0.4-0.1-0.7-0.3
			c-0.2-0.2-0.3-0.3-0.4-0.3c0-0.1,0-0.1,0.1-0.2c0.1-0.1,0.2-0.7,0.2-1.6v-1.2c0-0.3,0.1-0.5,0.2-0.7s0.3-0.4,0.4-0.4h0.1l0.4,0.1
			c0.3,0,0.5,0.1,0.8,0.1c0.2,0.1,0.4,0.1,0.4,0.1c0,0.1,0.1,0.1,0.4,0.2c0.3,0.1,0.4,0.2,0.4,0.3c0,0.1,0.1,0.3,0.2,0.4
			c0.1,0.1,0.2,0.2,0.1,0.3c-0.1,0.1-0.1,0.3,0.1,0.6c0.1,0.2,0.2,0.5,0.2,0.8v0.1c0,0.2-0.1,0.4-0.1,0.4S318,785.9,317.8,785.9z"/>
		<path d="M339,789.5c0-0.6-0.1-0.9-0.2-1.1c-0.1-0.2-0.3-0.4-0.6-0.5c-0.3-0.1-0.5-0.3-0.5-0.4c-0.1-0.1-0.3-0.3-0.9-0.6
			c-0.5-0.3-1-0.5-1.3-0.6c-0.2-0.1-0.5-0.2-0.9-0.5c-0.4-0.3-0.6-0.4-0.6-0.5c0-0.1-0.1-0.2-0.2-0.3c-0.2-0.1-0.2-0.2-0.2-0.3
			c0,0,0-0.1,0-0.1c0.1-0.1,0.1-0.2,0.1-0.3c0-0.1,0-0.3-0.1-0.6c0-0.1,0-0.2,0-0.2c0,0,0.2-0.1,0.3-0.1c0.3,0,0.4-0.1,0.4-0.2
			c0-0.1,0.1-0.2,0.4-0.4c0.3-0.2,0.4-0.3,0.4-0.3c0-0.1,0.1-0.1,0.4-0.2c0.1,0,0.1,0,0.2,0c0.4,0,0.8,0.2,1.2,0.5
			c0.5,0.3,0.7,0.6,0.7,0.9c0,0.2,0.1,0.4,0.3,0.5c0.2,0.1,0.3,0.3,0.3,0.4s0.1,0.3,0.2,0.5c0.2,0.2,0.3,0.3,0.4,0.3c0,0,0,0,0.1,0
			c0.1-0.1,0.1-0.7,0.2-2v-0.8c0-0.6-0.1-0.9-0.2-0.9c-0.1,0-0.1,0-0.1,0c-0.3,0.1-0.6,0.2-0.8,0.2c-0.3,0-0.6-0.1-1-0.3
			c-0.4-0.2-0.6-0.3-0.7-0.3c0,0-0.1,0-0.2,0.1c-0.3,0.1-0.6,0.1-0.8,0.1c-0.3,0-0.4,0-0.5,0.1c0,0.1-0.1,0.2-0.3,0.2
			c-0.2,0-0.4-0.1-0.5-0.2c-0.1-0.1-0.3-0.2-0.5-0.2h0c-0.1,0-0.1,0-0.1,0c-0.1,0-0.1,0-0.1,0c0,0,0.1,0,0.1,0
			c0.1,0.1,0.2,0.1,0.2,0.2c0,0.2-0.2,0.3-0.5,0.4c-0.3,0.1-0.4,0.2-0.4,0.4c0.1,0.2,0,0.3-0.2,0.4c-0.3,0.1-0.6,0.5-1.1,1.1
			c-0.1,0.2-0.2,0.4-0.2,0.6c0,0,0,0.3,0.1,0.8c0.1,0.7,0.3,1.1,0.4,1.3c0.1,0.2,0.4,0.4,0.7,0.7c0.4,0.3,0.6,0.4,0.8,0.4
			c0.1,0,0.3,0.1,0.6,0.4c0.4,0.3,0.9,0.6,1.7,0.8c0.5,0.1,0.8,0.3,1.1,0.6c0.2,0.2,0.3,0.4,0.5,0.7c0.1,0.3,0.2,0.5,0.2,0.7
			c0,0.1,0,0.1-0.1,0.2c-0.1,0-0.1,0.2-0.1,0.4c0.1,0.2,0,0.4-0.2,0.6c-0.1,0.1-0.2,0.3-0.2,0.4c0,0.2-0.5,0.4-1.4,0.5
			c-0.1,0-0.3,0-0.6,0c-0.9,0-1.7-0.4-2.2-1.2c-0.3-0.4-0.5-0.8-0.5-1c0,0,0-0.1,0-0.2c0-0.1,0-0.2,0-0.2c0,0-0.1-0.1-0.1-0.1
			c-0.1,0-0.1,0-0.1-0.1c0.1-0.3-0.1-0.5-0.4-0.6c-0.1,0-0.2-0.1-0.3-0.1c-0.3,0-0.4,0.2-0.5,0.5c-0.1,1.2-0.1,1.9-0.2,1.9
			c-0.1,0.1-0.1,0.4-0.2,0.8c0,0.1,0,0.3,0,0.4c0,0.2,0.1,0.4,0.3,0.6c0.1,0.1,0.2,0.2,0.3,0.2c0,0,0.1,0,0.2-0.2
			c0.1-0.2,0.2-0.3,0.2-0.4c0-0.3,0.2-0.3,0.5-0.1c0.9,0.5,1.8,0.7,2.9,0.7c0.5,0,1.1-0.1,1.6-0.2c0.6-0.1,1.1-0.3,1.4-0.6
			c0.3-0.3,0.5-0.5,0.5-0.5c0-0.1,0.1-0.2,0.2-0.3c0.2-0.1,0.3-0.4,0.3-0.9c0.1-0.5,0.1-0.7,0.2-0.7c0.1,0,0.1,0,0-0.1
			S339,790.2,339,789.5z M334.6,788C334.6,788,334.6,787.9,334.6,788c-0.1-0.1-0.1-0.1,0-0.1S334.7,787.9,334.6,788
			C334.7,787.9,334.7,788,334.6,788z"/>
		<path d="M333.1,788.7c0-0.1,0-0.2-0.1-0.2c-0.1,0-0.1,0-0.1,0.1l0.1,0.2C333.1,789,333.1,788.9,333.1,788.7z"/>
	</g>
	<g>
		<g>
			<path d="M212.7,334.1c0,2.4,0.1,4.7,0.4,7c5.5-19.5,23-33.7,43.6-33.5c20.4,0.2,37.5,14.3,42.9,33.6c0.3-2,0.4-4.1,0.4-6.3
				c0.2-25.7-19.2-46.8-43.3-47C232.6,287.7,212.9,308.4,212.7,334.1z"/>
		</g>
		<g>
			<path d="M159.4,193.2c3.5,3.5,2.9,19.7,5,19.7c2.1,0,1.8-16.5,5-19.7c3.2-3.2,15-2.4,15-4.4c0-1.9-12-1.4-15-4.4
				s-2.9-19.7-5-19.7c-2.1,0-1.4,16.1-5,19.7c-3.6,3.6-15,2.1-15,4.4C144.4,191.1,155.9,189.7,159.4,193.2z"/>
		</g>
		<g>
			<path d="M400.5,429.6c-3.5-3.5-3.3-22.9-5.8-22.9c-2.5,0-1.6,18.7-5.8,22.9c-4.2,4.2-17.4,2.4-17.4,5.1c0,2.7,13.4,1,17.4,5.1
				c4,4,3.3,22.9,5.8,22.9c2.5,0,2.1-19.1,5.8-22.9c3.7-3.7,17.4-2.8,17.4-5.1C417.9,432.4,403.9,433,400.5,429.6z"/>
		</g>
		<g>
			<path d="M86,254.5c0,1.6,8.2,0.6,10.7,3.1c2.5,2.5,2,14,3.5,14c1.5,0,1.3-11.7,3.5-14c2.3-2.3,10.7-1.7,10.7-3.1
				c0-1.4-8.6-1-10.7-3.1c-2.1-2.1-2-14-3.5-14c-1.5,0-1,11.4-3.5,14C94.2,253.9,86,252.9,86,254.5z"/>
		</g>
		<g>
			<path d="M361.8,608.6c-2.7-2.7-2.6-18.1-4.6-18.1s-1.3,14.8-4.6,18.1c-3.3,3.3-13.8,1.9-13.8,4c0,2.1,10.6,0.8,13.8,4
				c3.2,3.2,2.6,18.1,4.6,18.1s1.6-15.2,4.6-18.1c2.9-2.9,13.8-2.3,13.8-4S364.6,611.4,361.8,608.6z"/>
		</g>
		<g>
			<path d="M106.6,200.4c0,1.2,5.9,0.5,7.7,2.2c1.8,1.8,1.5,10.1,2.5,10.1c1.1,0,0.9-8.4,2.5-10.1c1.6-1.6,7.7-1.3,7.7-2.2
				c0-1-6.1-0.7-7.7-2.2c-1.5-1.5-1.5-10.1-2.5-10.1c-1.1,0-0.7,8.2-2.5,10.1S106.6,199.2,106.6,200.4z"/>
		</g>
		<g>
			<path d="M103.4,473.3c1.4,0,1.1-10.7,3.2-12.8c2.1-2.1,9.7-1.6,9.7-2.8c0-1.2-7.8-0.9-9.7-2.8c-1.9-1.9-1.9-12.8-3.2-12.8
				s-0.9,10.4-3.2,12.8c-2.3,2.3-9.7,1.3-9.7,2.8c0,1.5,7.5,0.6,9.7,2.8C102.5,462.8,102.1,473.3,103.4,473.3z"/>
		</g>
		<g>
			<path d="M136.5,615.9c-2.8-2.8-2.7-18.8-4.7-18.8c-2,0-1.3,15.4-4.7,18.8c-3.4,3.4-14.3,2-14.3,4.2c0,2.2,11,0.9,14.3,4.2
				c3.3,3.3,2.7,18.8,4.7,18.8s1.7-15.7,4.7-18.8c3.1-3.1,14.3-2.3,14.3-4.2C150.8,618.2,139.3,618.7,136.5,615.9z"/>
		</g>
		<g>
			<path d="M379.2,231.2c1.8,1.8,1.5,10.1,2.5,10.1c1.1,0,0.9-8.4,2.5-10.1c1.6-1.6,7.7-1.3,7.7-2.2c0-1-6.1-0.7-7.7-2.2
				c-1.5-1.5-1.5-10.1-2.5-10.1c-1.1,0-0.7,8.2-2.5,10.1c-1.8,1.8-7.7,1.1-7.7,2.2C371.5,230.2,377.4,229.4,379.2,231.2z"/>
		</g>
		<g>
			<path d="M198.7,590.1c-1.5-1.5-1.5-10.1-2.5-10.1c-1.1,0-0.7,8.2-2.5,10.1c-1.8,1.8-7.7,1.1-7.7,2.2c0,1.2,5.9,0.5,7.7,2.2
				c1.8,1.8,1.5,10.1,2.5,10.1c1.1,0,0.9-8.4,2.5-10.1c1.6-1.6,7.7-1.3,7.7-2.2C206.4,591.4,200.2,591.6,198.7,590.1z"/>
		</g>
		<g>
			<path d="M380.7,589c1,0,0.8-7.7,2.3-9.1c1.5-1.5,7-1.1,7-2c0-0.9-5.6-0.6-7-2c-1.4-1.4-1.3-9.1-2.3-9.1c-1,0-0.6,7.5-2.3,9.1
				c-1.7,1.7-7,1-7,2c0,1.1,5.4,0.4,7,2C380,581.5,379.7,589,380.7,589z"/>
		</g>
		<g>
			<path d="M273.4,487.6c6.4,3.5,15.9,3.4,22.7,1.2c7.5-2.3,15.6-7.6,18.5-15c0-0.1,0-0.1,0.1-0.2c0.4-0.7,0.4-1.7-0.6-2.1
				c-7.5-3.6-15-4.6-22.7-1.2c-7.4,3.3-14,8.4-18.6,15.1C272.3,486.1,272.7,487.2,273.4,487.6z M303.7,481.5c-2.8,1.7-5.9,3.5-9,4.4
				c-4.2,1.2-9.6,1.6-14.4,0.7c2.5-0.6,5-1.3,7.3-2.3c3.5-1.4,6.7-3.4,10.2-4.6c3.2-1.1,6.2-2.9,9.4-3.9c0.9-0.3,2.1-0.5,3.2-0.7
				C308.8,477.7,306.4,479.8,303.7,481.5z M291.5,473.9c3.3-1.6,6.5-2.8,10.3-2.6c1.9,0.1,3.8,0.5,5.6,1c-0.9,0.3-1.8,0.6-2.7,1
				c-3.1,1.2-6,2.6-9.1,3.8c-2.9,1.1-5.5,2.7-8.3,3.9c-2.9,1.2-5.9,2.2-8.9,2.7C282,479.6,286.6,476.3,291.5,473.9z"/>
		</g>
		<g>
			<path d="M339.2,304c-1.9,0.6-2.5,3.3-1.1,4.7c1.6,1.6,4.4,0.8,5-1.3c0.3-1.1,0-2.4-0.8-3.2C341.6,303.4,340.2,303.4,339.2,304z"
				/>
		</g>
		<g>
			<path d="M347.5,350.3c0.4,1.5,2.2,2.3,3.7,1.6c0.8-0.4,1.3-1.3,1.3-2.1c0,0,0,0,0-0.1c0.1-1.2-0.7-2.4-2-2.6
				C348.7,346.9,347,348.5,347.5,350.3z"/>
		</g>
		<g>
			<path d="M354.4,400.3c1.6,0.9,3.9-0.3,3.7-2.3c-0.1-1-0.7-2-1.8-2.3c-0.4-0.1-0.8-0.1-1.2,0c-0.3,0-0.5,0.1-0.8,0.3
				C352.7,396.9,352.7,399.4,354.4,400.3z"/>
		</g>
		<g>
			<path d="M341.4,396.9c0.5,0,1.1-0.3,1.3-0.8c1-0.9,0.8-2.7-0.4-3.4c-1.3-0.7-2.8,0-3.2,1.4C338.8,395.5,340,396.9,341.4,396.9z"
				/>
		</g>
		<g>
			<path d="M276,412c0.1-0.1,0.2-0.3,0.3-0.4c0.4-0.4,0.6-0.9,0.6-1.4c0.1-1.6-1.6-2.7-3.1-2.3c-1.5,0.4-2.3,2-1.6,3.4
				C272.9,412.7,274.9,413.1,276,412z"/>
		</g>
		<g>
			<path d="M183.5,484.2c0.5,0.2,1.1,0.1,1.7-0.2c0.9-0.5,1.4-1.5,1.3-2.4c0.1-0.9-0.2-1.7-0.9-2.3c-0.9-0.9-2.3-1-3.4-0.4
				c-0.3,0.2-0.5,0.4-0.6,0.8c-0.1,0-0.1,0.1-0.2,0.1c-0.9,0.9-0.8,2.4-0.1,3.3C181.9,483.8,182.7,484.2,183.5,484.2z"/>
		</g>
		<g>
			<path d="M324.3,478c0.1,0.1,0.3,0.1,0.4,0.2c1.9,0.5,3.5-1.6,2.9-3.3c-0.6-1.6-2.6-2.6-4.1-1.6c-1.3,0.9-1.7,3.1-0.4,4.2
				C323.5,477.8,323.9,477.9,324.3,478z"/>
		</g>
		<g>
			<path d="M264.6,497.2c0.2,0.2,0.5,0.3,0.7,0.5c0.7,0.5,1.6,0.1,2.1-0.5c0.7-1,0.8-2.5-0.1-3.4c-1-1-2.6-0.9-3.4,0.3
				c-0.4,0.7-0.4,1.7,0.1,2.3C264.1,496.8,264.3,497,264.6,497.2z"/>
		</g>
		<g>
			<path d="M338.2,534.8c-1.1,0.4-1.9,1.4-1.9,2.6c0,1.1,0.8,2.2,1.9,2.5c0.7,0.2,1.4,0.1,2-0.3c0.5-0.1,1-0.5,1.3-0.9
				C343,536.5,340.5,534,338.2,534.8z"/>
		</g>
		<g>
			<path d="M339.3,546.5c-0.1-0.1-0.3-0.1-0.4-0.2c-0.2-0.1-0.3-0.1-0.5-0.1c-0.8-0.2-1.6,0.3-1.8,1.1c0,0,0,0,0,0.1
				c-0.1,0.1-0.1,0.3-0.2,0.4c-0.3,1.1,0.2,2.3,1.4,2.6c1.1,0.3,2.3-0.5,2.5-1.6c0.1-0.5,0.1-1.1-0.2-1.6
				C339.8,546.9,339.6,546.6,339.3,546.5z"/>
		</g>
		<g>
			<path d="M266,583.3c-1.3,0-2.3,1.1-2.3,2.3c0,0.1,0,0.2,0,0.3c0,0.1,0,0.2,0.1,0.3c0,0.1,0.1,0.2,0.2,0.4l0,0c0,0,0,0,0,0.1
				c0,0,0,0,0,0c0,0.1,0.1,0.2,0.2,0.2c0.5,0.7,1.5,1.1,2.4,0.9c1.1-0.2,1.8-1.3,1.7-2.3C268.2,584.3,267.3,583.3,266,583.3z"/>
		</g>
		<g>
			<path d="M264.1,575.4c1-1.6-0.3-3.8-2.2-3.9c-2,0-3.5,2.4-2.1,4c0.1,0.2,0.3,0.3,0.5,0.4C261.4,577,263.3,576.8,264.1,575.4z"/>
		</g>
		<g>
			<path d="M243.1,637.2c-1.2,0-2.3,1.1-2.3,2.3c0,0.6,0.2,1.2,0.7,1.6c0.6,0.5,1.2,0.6,1.9,0.7c0.4,0,0.8-0.2,1.1-0.4
				c0.3-0.3,0.4-0.7,0.4-1c0.1-0.1,0.1-0.3,0.2-0.4C245.4,638.6,244.5,637.2,243.1,637.2z"/>
		</g>
		<g>
			<path d="M345.1,406.5c0.2,0.3,0.4,0.5,0.6,0.7c0.6,0.4,1.3,0.3,1.9,0c0.6-0.4,0.9-1,0.9-1.7c0-1.3-1.3-2.2-2.5-2
				c-0.5,0.1-1,0.3-1.3,0.8c-0.2,0.3-0.3,0.6-0.2,1c0,0.4,0.1,0.8,0.4,1.1C344.9,406.4,345,406.5,345.1,406.5z"/>
		</g>
		<g>
			<path d="M330,543c-0.3-0.1-0.6-0.1-0.8-0.1c-0.2,0-0.5,0-0.7,0.1c-1.4,0.4-1.9,2-1.2,3.1c0.7,1.2,2.4,1.5,3.4,0.6
				c0.5-0.4,0.7-1,0.7-1.6c0.1-0.6-0.2-1.2-0.6-1.7C330.6,543.2,330.3,543.1,330,543z"/>
		</g>
		<g>
			<path d="M347.2,293c0.4-0.3,0.6-0.7,0.8-1.1c0-0.1,0.1-0.1,0.1-0.2c0-0.1,0-0.1,0.1-0.2c0.2-0.5,0.2-1,0.2-1.4
				c-0.1-0.6-0.3-1.1-0.7-1.6c-1.9-2.1-5.4-1.4-5.6,1.6C341.7,292.9,345,295,347.2,293z"/>
		</g>
		<g>
			<path d="M335.6,293c-0.7,0-1.4,0.3-1.8,0.8c-0.2,0.4-0.3,0.8-0.2,1.3c0,0.7,0.3,1.5,1,1.8c1.2,0.7,2.7,0,3-1.3
				C338,294.3,336.9,293.1,335.6,293z"/>
		</g>
		<g>
			<path d="M350.9,540.7c2.6-9.4,4.5-19.3,3.7-29.1c-1.2-14.7-7.9-29.7-18.2-40.4c1.7-2.5,3.2-4.9,4.4-7.3
				c6.2-12.5,9.8-31.2,9.4-44.8c0-0.5,0-1-0.1-1.5v0c3-2,5.9-4.2,8.6-6.6c13.2-11.9,21.6-29.2,23.4-46.8c1.7-16.4-2.8-34.1-8.1-49.6
				c-4.7-13.8-13.4-25.8-22.1-37.3c-2.8-3.8-7.1-7.7-9-12.2c-1.8-4.2-1.8-8.9-2.1-13.4c-0.2-3.4-1.2-6.7-2.8-9.7
				c-3.6-6.7-9.5-12-15.4-16.7c-10.9-8.7-23-16.8-37.4-17.4c-3.6-0.2-8.1,0.2-10.2,3.5c-0.1,0.1-0.2,0.3-0.3,0.4
				c-0.1,0.1-0.1,0.3-0.2,0.4c-4.3,9.7-2.9,21.3-0.1,31.3c3.4,12.2,9.6,23.8,18.1,33.1c4,4.4,8.6,8.3,13.9,11
				c3.3,1.7,7.3,3.3,10,5.9c2.6,2.6,4.5,6.8,6.3,10c4.2,7.5,7.6,15.4,10.3,23.5c4.7,13.9,8.9,30.3,4.9,44.8c-0.4,1.6-1,3-1.6,4.5
				c-8.2-12.3-20-21.9-35.2-25.3c-12.8-2.9-33.3-0.2-46.1,3.7c-9.9,3-21.1,7.9-32.2,12.1c-4.1,1.5-8.1,3-12.1,4.2
				c-2.4,0.7-4.7,1.4-7,2c-2.7,0.7-6.1,1-9.8,0.9c-2.9-0.1-6-0.4-9.1-1c-14.9-2.9-27.2-11.2-29.3-31.7c-1-9.7,2.4-23.5,12.3-31.8
				c10.5-8.8,22.1-13.6,33.7-20.1c8.7-4.9,20.7-12.9,27.4-20.6c23-26.7,25.5-42.6,19-48.5c-9.9-9.1-45.4,4.8-51.4,8.6
				c-6.7,4.4-14.7,10.9-21.7,20.8c-8.8,12.5-18.4,17.9-25.6,24.2c-8.4,7.4-16.5,15.4-22.8,24.5c-6.3,9-10.2,18.3-12.3,27.1
				c-4.9,20.6,0,41.7,12.3,59.1c6.7,9.6,15.9,16.2,26.6,21c-0.9,1.9-1.6,3.8-2.3,5.7c-5.4,14.9-5.6,32.1-1.7,47.4
				c0.9,3.7,2.2,7.2,3.8,10.5c-6.8,9.3-13.5,14.9-15.8,29.4c-2.1,13.1,1.1,26.9,11.6,39.7c13.3,16.2,37.9,21.5,59,21.4
				c22.3-0.1,50.5-12,66.4-2.7c0.6,0.4,1.2,0.7,1.8,1.1c-3.9,0.9-7.9,1.9-11.7,3.3c-7.2,2.7-14.1,6.4-19.9,11.6
				c-13.9,12.3-16.4,32.2-15.4,49.8c1,17.9,6.5,35.5,6.6,53.5c0,6.3-0.1,14-3.9,19.4c-0.8,1.2,0.1,2.5,1.2,3c5.5,2.2,9.8-5,12-8.8
				c3.6-6.4,5.9-13.3,7.1-20.6c2.9-16.8,0.5-34.5,5.8-51c2.7-8.6,7.8-16.5,15.2-21.7c5.7-4,12.3-6.4,18.9-8.3
				c0.9,14.4-3.5,30.9-9.6,45.6c-5.1,12.3-9.5,30.3-3.9,40c4.7-25.9,14.8-29.5,23.9-51.1c6.7-15.9,9.8-28.1,9.2-40.1
				c2.7-0.9,5.3-1.9,7.8-3.2c7.8-3.9,15-9.4,20.6-16C345.6,556.7,348.6,549.1,350.9,540.7z M188.3,261.2c3.2-3.3,8.4-3.4,11.7-0.2
				c3.3,3.2,3.4,8.4,0.2,11.7c-0.3,0.3-0.5,0.5-0.8,0.7c2.4-3.3,2.1-8-0.9-10.9c-3-2.9-7.7-3.1-10.9-0.6
				C187.8,261.8,188.1,261.5,188.3,261.2z M170.2,272.7c3.5-3,8.7-2.5,11.7,0.9c3,3.5,2.5,8.7-0.9,11.7c-0.6,0.5-1.3,0.9-2,1.3
				c2-3,1.8-7.1-0.6-9.9c-2.4-2.9-6.4-3.7-9.7-2.2C169.1,273.9,169.6,273.3,170.2,272.7z M338.6,451.3c-1.2,4.4-5.8,7-10.2,5.7
				c-4.4-1.2-7-5.8-5.7-10.2c0.1-0.4,0.2-0.7,0.4-1c-0.6,4,1.9,8,6,9.1c4,1.1,8.2-0.9,9.9-4.7C338.8,450.5,338.7,450.9,338.6,451.3z
				 M334.5,437.4c-4.6,0.3-8.5-3.2-8.8-7.8c-0.1-0.8,0-1.6,0.2-2.4c1.2,3.4,4.6,5.7,8.3,5.4c3.8-0.2,6.8-2.9,7.6-6.4
				c0.3,0.7,0.4,1.5,0.5,2.3C342.5,433.2,339,437.1,334.5,437.4z M368.4,392.8c0-1.4-0.1-2.8-0.2-4.2c0-1.2-0.1-2.5-0.2-3.8
				c-0.2-2.6-0.4-5.2-0.8-7.9c0,0,0.1,0,0.1,0c3.8-2.1,7.3-4.4,9.9-7.4C375.7,377.7,372.7,385.6,368.4,392.8z M378.3,361.1
				c-1.4,4.7-4.5,7.8-8.4,10.4c1.3-2.6,2.8-5.2,4.1-7.8c1.3-2.6,2.5-5.2,3.6-7.9c0.2-0.5,0.4-1.1,0.7-1.6
				C378.4,356.5,378.4,358.8,378.3,361.1z M377.7,347.4c-1.2,2.1-1.9,4.5-2.9,6.8c-1.3,2.9-2.6,5.8-4,8.7c-1.4,2.7-2.9,5.3-4.2,8.1
				c-0.8-5.2,0.2-11.1,1.6-16c1.4-4.8,4.6-9.7,8.7-12.8C377.3,343.9,377.5,345.7,377.7,347.4z M310.3,284.9
				c-0.6-0.3-1.2-0.5-1.8-0.8c-1.8-8.3-1.1-18.2,2.6-26.2c1.3,9.7,2.9,19.3,3.4,29.1C313.2,286.2,311.8,285.5,310.3,284.9z
				 M324.5,286.7c-0.2,2.9-0.9,5.7-1.6,8.6c-1.2-1.9-2.8-4-5.2-6c-0.2-10.3-2-20.4-3.3-30.6c3.4,4.8,6,10.4,8,15.9
				C323.8,278.4,324.8,282.4,324.5,286.7z M330.2,308.7c-1-2.1-3.5-6.8-5-9.5c1-4.1,2.2-8.2,2.5-12.5c0.3-4.5-0.7-8.8-2.2-13.1
				c-2.9-7.9-6.7-15.7-12.6-21.8c-0.8-0.8-2-0.5-2.6,0.3c-5.4,8.3-7.1,19.8-5.7,29.8c-1.6-1.1-3.2-2.3-4.7-3.6
				c-4.7-4.1-8.7-9-12-14.3c-6.7-10.6-11.6-23.2-12.2-35.9c-0.2-5,0.3-10.2,2.4-14.8c0.8-1.5,3.3-1.7,4.8-1.8
				c3.2-0.2,6.4,0.4,9.5,1.1c7.2,1.7,13.8,5,19.8,9.4c6,4.4,12.1,8.9,17.1,14.4c2.4,2.6,4.6,5.5,6.1,8.7c1.7,3.9,1.7,8.3,2.2,12.5
				c0.3,2.6,0.5,5,1.6,8.1c3.5,9.5,13.7,19.4,16.8,23.9c3.5,5.1,6.8,10.3,9.7,15.8c3.5,6.8,5.8,14.1,7.8,21.4
				c1,3.8,1.9,7.7,2.7,11.6c-5.1,3.3-9.2,9.1-11,14.7c-0.5,1.4-0.9,3-1.2,4.6c-0.5-2.7-1-5.4-1.4-8.2c0.1-0.1,0.2-0.3,0.3-0.5
				c1.6-4.6,3.6-8.7,4.2-13.6c0.7-5.4,0.4-10.8-0.1-16.2c-0.5-5.1-1.6-9.7-3.3-14.4c-1.7-4.5-4.1-8.2-6.8-12.1
				c-0.6-0.9-2.3-1.2-2.8,0c-2.3,5.2-4.2,10.4-5,16c-0.9,5.8-0.9,11.7-0.3,17.6c0.5,5.2,1.6,10.2,4.1,14.8c1.7,3.1,4.3,5.7,6.5,8.4
				c1.1,6.4,2.3,12.9,3.4,19.3c0.1,0.4,0.1,0.7,0.2,1.1c-0.1-0.3-0.3-0.5-0.4-0.8c-3.7-6.4-10.9-12.4-18.3-13.7c-0.2,0-0.4,0-0.6,0
				c0-0.7-0.1-1.3-0.2-2C342,338,337,322.6,330.2,308.7z M357.1,372.1c-2.7-4.2-5.7-8.2-9.1-11.9c5,2.3,9.4,6.6,12,11.2
				c2,3.6,3.7,8,4.5,12.4C361.9,380,359.6,375.9,357.1,372.1z M364.1,388.6c-11.5-3.3-17.6-15-18.6-26.5c3.7,4.1,6.9,8.6,9.9,13.2
				C358.2,379.8,360.9,384.4,364.1,388.6z M357.3,299.3c1.4,2.3,2.6,4.6,3.6,7.4c1.6,4.5,2.6,8.9,3,13.7c0.4,4.7,0.6,9.5,0.1,14.2
				c-0.3,3.1-1.3,5.9-2.3,8.6c-0.2-1.4-0.4-2.8-0.5-4.3c-1-8.8-0.9-17.8-2-26.6C358.5,308.1,357.6,303.7,357.3,299.3z M358.4,343.6
				c-0.9-1-1.7-2.1-2.4-3.2c-2.8-4.6-3.7-9.8-4.2-15c-0.7-8.3,0-16.1,2.3-23.8c0.4,3.6,1.1,7.3,1.6,10.8c1.1,8.8,1.1,17.7,2,26.6
				C358,340.5,358.2,342.1,358.4,343.6z M320.8,381.3c3.8-2.5,9-1.4,11.5,2.4c0,0,0,0.1,0.1,0.1c-0.4,0.4-0.8,0.9-1.3,1.3
				c-3.7,3.6-8.1,5.9-12.9,7.4C315.9,388.7,317,383.8,320.8,381.3z M304.8,371.1c2.3-4,7.4-5.3,11.3-3.1c1.4,0.8,2.5,2,3.2,3.3
				c-2.7,0.1-5.4,1.6-6.8,4.2c-1.5,2.6-1.4,5.6-0.2,8c-1.5,0.1-3.1-0.3-4.5-1.1C303.9,380.1,302.5,375,304.8,371.1z M279.9,367
				c0.9-4.5,5.2-7.4,9.7-6.6c0.8,0.2,1.6,0.4,2.2,0.8c-3.6,0.3-6.6,3-7.4,6.7c-0.7,3.7,1.1,7.3,4.3,9c-0.8,0.1-1.6,0-2.4-0.1
				C281.9,375.9,279,371.5,279.9,367z M299.3,392.4c-5.7-1-11.3-3-16.7-5.3C288.6,387,294.3,388.5,299.3,392.4z M262.2,363.5
				c0.4-0.1,0.7-0.1,1.1-0.1c-3.9,1.3-6.3,5.3-5.5,9.4c0.8,4.1,4.5,6.9,8.6,6.7c-0.3,0.1-0.7,0.2-1.1,0.3c-4.5,0.9-8.9-2.1-9.7-6.6
				C254.7,368.8,257.7,364.4,262.2,363.5z M275,387.8c8.3,4.1,16.9,7.7,26.4,8.9c0.9,0.1,1.8,0.2,2.8,0.3c10.5,0.8,21.5-1.5,29.2-9
				c2.4-2.3,4.3-4.9,5.8-7.7c-0.1-0.1-0.1-0.2-0.1-0.2c0,0.1,0.1,0.1,0.1,0.2c1.8-3.3,3.2-8,4-12c2.6,11.3,10,21.6,22,23.9
				c0.1,1.8,0.1,3.5,0.1,5.3c-1.2,1.6-2.4,3.2-3.7,4.7c-3.5,4.1-7.5,7.6-11.8,10.6v0c-9.4,6.6-20.5,10.7-31.9,12.8
				c-1.3,0.3-2.7,0.5-4,0.6c-2.6,0.3-5.1,0.6-7.7,0.7c1.8-1.7,3.2-3.9,4.5-6c3-4.9,6-10,6.1-15.9c0-0.8-0.8-1.7-1.6-1.6
				c-8.2,0.6-16.6,2.7-24.1,6c-5.8,2.6-11.6,7.1-13.9,13.2c-4-1.3-7.9-3-11.7-4.9c-8.2-4.1-18-9.8-28.1-14.1
				C248.9,397.8,262.4,390.2,275,387.8z M313.1,408.2c-0.8,3.8-2.9,7.2-4.9,10.6c-2,3.2-4.3,7-8.1,8.2c-2.6-0.1-5.2-0.3-7.8-0.7
				C299.9,421,305.9,413.8,313.1,408.2z M288.4,425c-0.2,0.1-0.4,0.3-0.5,0.5c-2.6-0.5-5.2-1.1-7.7-1.9c2.2-5.7,8-9.6,13.4-11.8
				c4.9-2,10-3.5,15.3-4.4C302.1,413.4,296.1,420.2,288.4,425z M224.9,381.9c0.5-0.8,1.4-1.3,2.3-1.2c1,0.1,1.9,0.6,2.3,1.5
				c0.8,1.9-1.1,3.8-3,3.4c-1.1-0.3-1.7-1.2-1.7-2.2C224.7,382.9,224.6,382.3,224.9,381.9z M206.1,387.4c1.1,0,2.2,0.5,2.7,1.5
				c0,0,0.1,0.1,0.1,0.1c0,0,0,0,0,0.1c0,0,0,0,0,0.1c0.4,0.7,0.5,1.6,0.3,2.4c-0.8,2.6-4.3,3.2-5.8,0.9
				C202,390.2,203.5,387.5,206.1,387.4z M191.8,414.4c11.3,0.2,23.1-1.4,32.3-4.7c2.6-0.9,5.3-2.1,8.2-3.5
				c10.3,3.7,19.9,9.4,29.6,14.3c15.7,7.9,32.6,12,50.2,10.1c0.5-0.1,0.9-0.1,1.4-0.2c-1.5,10.9-6.2,20.5-9.9,25.9
				c-15.7-0.6-32.4,5.2-47.5,11.4c-1-0.4-2-0.9-3.1-1.4c-18.8-9.5-43.9-23.1-66.2-20.1c-2-8.3-1.9-17,1.1-24.5
				C188.8,419.2,190.2,416.7,191.8,414.4z M235.8,474.1h-0.2c-1.9,0-1.9-3,0-3h0.2C237.8,471.1,237.8,474.1,235.8,474.1z M220.2,467
				c0.1,2.1-2.3,3.6-4.1,2.5c-0.5-0.3-0.8-0.7-1-1.1c-0.2-0.2-0.3-0.5-0.4-0.8c-0.3-1.1,0.1-2.2,1-2.9
				C217.5,463.5,220,464.9,220.2,467z M198.6,463.8c-0.6,0.6-1.6,0.6-2.1,0l-0.3-0.3c-0.6-0.6-0.6-1.5,0-2.1c0.6-0.6,1.6-0.6,2.1,0
				c0.1,0.1,0.2,0.2,0.3,0.3C199.2,462.3,199.1,463.2,198.6,463.8z M178.6,391.4c0.1-0.5,0.4-0.9,0.8-1.1c0.4-0.4,0.9-0.7,1.4-0.9
				c0.6-0.2,1.4,0.2,1.7,0.7c0.3,0.6,0.5,1.2,0.4,1.8c0,0,0,0,0,0c0.1,0.5,0,1-0.3,1.4c-0.6,1-1.8,1.2-2.8,0.7
				c-0.2-0.1-0.3-0.3-0.5-0.4C178.7,393.1,178.4,392.3,178.6,391.4z M126.2,332.6c0.1-1.6,0.6-3.1,1.5-4.4c1.4,2.4,3.9,4,6.8,4.2
				c2.9,0.1,5.6-1.3,7.2-3.5c0.8,1.3,1.2,2.9,1.1,4.5c-0.2,4.6-4.1,8.1-8.7,7.9C129.6,341.1,126,337.2,126.2,332.6z M138.7,363.3
				c-4.4,1.3-9-1.2-10.3-5.6c-0.2-0.8-0.3-1.6-0.3-2.3c1.9,3,5.7,4.5,9.3,3.5c3.6-1.1,6-4.4,6-8c0.4,0.7,0.8,1.4,1,2.2
				C145.7,357.4,143.1,362,138.7,363.3z M147.3,314.5c-2.3,4-7.3,5.4-11.3,3.1c-4-2.3-5.4-7.3-3.1-11.3c2.3-4,7.3-5.4,11.3-3.1
				C148.2,305.4,149.6,310.5,147.3,314.5z M148.4,292.8c0.3-1.5,1-2.9,2.1-4.2c3.1-3.4,8.4-3.6,11.7-0.5c3.4,3.1,3.6,8.4,0.5,11.7
				c-1.1,1.2-2.5,2-4,2.4c0.5-2.7-0.4-5.6-2.5-7.6C154,292.7,151.1,292.1,148.4,292.8z M151.9,448.6c-0.2-4.3,0.7-8.3,2.5-12.2
				c2.2-4.7,5.4-10,9.7-13.6c-0.7,1.7-1.3,3.5-1.9,5.3c-1.4,4.1-2.7,8.2-4.1,12.4c-1.6,5-3.7,10.1-4.9,15.3
				C152.8,453.5,152,451.1,151.9,448.6z M167.6,464.7c-2,0.4-4.1,0.9-6.2,1c-1,0-2-0.1-3-0.2c0.7-0.4,1.4-0.8,2.3-1
				c2.2-0.6,4.6-0.7,6.9-0.7c1.4,0,2.8,0,4.2,0C170.4,464,169,464.4,167.6,464.7z M176.8,465.9C176.8,465.9,176.7,465.9,176.8,465.9
				c-1.7,1.3-3.5,2.4-5.5,3.1c-4,1.5-8.3,1.6-12.4,0.7c-0.5-0.1-0.9,0-1.2,0.2c-0.2-0.4-0.5-0.9-0.7-1.3c1.5,0.1,2.9,0.4,4.4,0.3
				c1.7-0.1,3.5-0.4,5.2-0.7C170,467.5,173.3,466.5,176.8,465.9z M155.8,460.8c0.5-6.7,3.4-13.2,5.5-19.4c1.2-3.6,2.4-7.3,3.6-10.9
				c1.1-3.3,2.1-6.7,4-9.7c1.4,2.6,1.6,6,1.8,8.7c0.2,3.5,0.2,7.2-0.4,10.7c-0.7,4.2-2.3,8-4.8,11.4
				C162.8,455,159.6,458.7,155.8,460.8z M150.7,493.6c-0.3-4.6,3.2-8.5,7.8-8.8c4.6-0.3,8.5,3.2,8.8,7.8c0.1,1.6-0.3,3.2-1,4.5
				c-1.6-2.2-4.3-3.6-7.2-3.4c-2.9,0.2-5.4,1.9-6.8,4.3C151.3,496.7,150.8,495.2,150.7,493.6z M163.8,528.6
				c-4.1,2.1-9.1,0.5-11.2-3.5c-2.1-4.1-0.5-9.1,3.5-11.2c4.1-2.1,9.1-0.5,11.2,3.5C169.4,521.5,167.8,526.5,163.8,528.6z
				 M168.5,484.5c-3.4-3.5-6.5-7.2-9-11.3c5,0.8,10,0.3,14.6-1.8c2.4-1.1,10.2-5.2,8.4-8.9c-0.8-1.7-2.8-1.9-4.5-2
				c-3-0.1-5.9,0-8.9,0c-2.7,0-5.4,0-8,0.5c2.3-2,4.3-4.3,6.2-6.6c3.1-3.9,5.2-8.3,6-13.3c0.7-4.1,0.8-8.4,0.5-12.6
				c-0.3-4-1-8.5-3.8-11.5c-0.4-0.4-1.1-0.6-1.6-0.4c-7.6,3-12.9,10.4-16.4,17.4c-0.5,0.9-0.9,1.8-1.3,2.8c0-0.3,0-0.6,0-0.8
				c0.1-10,2.4-19.8,6.4-28.6c4.9,1.9,10.1,3.5,15.5,4.8c4.5,1.1,9.4,1.8,14.5,2.1c-5.8,9.6-7,21.5-4.4,32.7
				c3.1,13.2,11.4,25.2,23.6,31c6.9,3.3,14.4,4.4,22,3.5c8.3-1,15.8-4.4,23.4-7.7c3.2-1.4,6.4-2.7,9.7-4c12-4.8,24.5-8.9,37.3-9.4
				c0.5,0,1,0,1.5,0c7.5-0.1,15.1,1.2,21.8,4.7c4.5,2.4,8.5,5.6,12,9.3c2.4,2.6,4.6,5.5,6.5,8.5c4.5,7.1,7.7,15,9.3,23.2
				c0.2,1,0.4,2.1,0.5,3.1c-1.3-1.7-2.9-3.3-4-5c-2.9-4.4-5.8-8.7-9.8-12.2c-3.6-3.1-7.8-5.4-12.4-6.5c-4.3-1-9-2.4-13.4-1.2
				c-0.9,0.3-1.3,1.1-1.1,2c0.6,3.9,3.2,7.2,5.5,10.2c2.7,3.4,5.2,7.1,8.8,9.7c3.8,2.8,8.6,4.3,13.2,4.8c3,0.4,6.7,0.9,9.7,0.1
				c1,1.8,2,3.6,2.9,5.5c-2.6-2.7-6.2-4.3-10.3-4.8c-3.4-0.4-6.9,0-10.2,0.8c-3,0.8-6.6,1.9-9.3,3.7c-0.8-6.2-3.5-12.5-8.2-16.8
				c-1.3-1.2-2.8-2.2-4.2-2.9c-9.6-5-22.1-1.2-31.7,2.5c-5.3,2-10.3,4.5-15.5,6.4c-1.9,0.7-3.8,1.3-5.7,1.8
				c-12.8,3.3-26.3,2.5-39.2,0.2c-9-1.7-18.4-3.5-26.6-7.8c-2.3-1.2-4.6-2.6-6.8-4.1C176.9,492.4,172.5,488.6,168.5,484.5z
				 M331.6,498c-3.4-2.4-6.4-5.3-9.9-7.7c-1.3-0.9-2.6-1.9-4-2.9c2.2,0.4,4.3,1,6.3,1.5c4.4,1.1,8.2,3.6,11.4,6.6
				c2.9,2.8,5.1,6,7.3,9.3C338.9,502.7,335.1,500.6,331.6,498z M342.3,508.3c-1.5-0.1-3-0.2-4.3-0.4c-4.5-0.4-9.3-1.9-12.8-4.8
				c-2.9-2.3-5.1-5.4-7.3-8.4c-1.5-1.9-3-3.9-4.1-6.1c1.1,0.6,2.1,1.4,3,2c1.7,1.2,3.5,2.4,5.3,3.7c3.1,2.2,5.7,4.9,8.8,7
				C334.5,503.9,338.4,506.1,342.3,508.3z M346.9,521c-2.6-0.6-5.3-1.2-7.9-1.8c-4.6-1.1-9.3-1.1-14-1.6c8-3.4,19.9-4.4,24.2,4.1
				C348.5,521.4,347.7,521.2,346.9,521z M347.7,524.5c-4.1,2.1-10.2,1.6-14.3,0.8c-3.3-0.6-6.3-2-9.1-3.8c-0.5-0.3-1-0.7-1.5-1.1
				c4.4,0.5,9,0.4,13.4,1.4c2.6,0.6,5.2,1.3,7.8,1.8C345,523.9,346.5,524.1,347.7,524.5z M189.9,542.5c-2.1,4.1-7.1,5.6-11.2,3.5
				c-1.5-0.8-2.6-1.9-3.3-3.2c2.7-0.2,5.3-1.8,6.7-4.4c1.4-2.6,1.2-5.6-0.2-8c1.5-0.1,3.1,0.2,4.5,0.9
				C190.5,533.5,192,538.5,189.9,542.5z M218.5,543c-0.3,4.6-4.2,8-8.8,7.7c-0.8-0.1-1.6-0.2-2.3-0.5c3.5-0.8,6.2-3.8,6.5-7.6
				c0.2-3.8-2.1-7.1-5.4-8.3c0.8-0.2,1.6-0.2,2.4-0.2C215.4,534.4,218.8,538.4,218.5,543z M238.7,547c-0.4,0-0.7,0-1.1,0
				c4-0.9,6.8-4.7,6.3-8.9c-0.4-4.2-3.9-7.3-7.9-7.5c0.4-0.1,0.7-0.1,1.1-0.2c4.6-0.4,8.6,2.9,9.1,7.5
				C246.6,542.5,243.2,546.5,238.7,547z M275.6,541.4c0,0.8-0.7,1.5-1.5,1.5c-0.8,0-1.5-0.7-1.5-1.5v-0.3c0-0.8,0.7-1.5,1.5-1.5
				c0.8,0,1.5,0.7,1.5,1.5V541.4z M250.3,589c-2.3,2.9-4.2,6.1-6.3,9c-2.9,4-5.1,8.3-7.7,12.4c-0.9,1.4-1.9,2.8-2.8,4.3
				c1.4-12.4,8.9-24.3,20.2-29.6C252.6,586.5,251.3,587.7,250.3,589z M254.2,589.3c0.8-1,1.7-2,2.5-3.1c0,2.7-0.7,5.7-1.4,7.8
				c-1.3,4.2-3.2,8.6-5.6,12.3c-3.5,5.4-9.4,8.5-14.7,12.1c1.6-2.8,3.7-5.5,5.2-8.2c2.5-4.1,4.8-8.1,7.6-12.1
				C249.9,595.3,251.8,592.2,254.2,589.3z M233.1,625.2c0.1,0,0.2,0,0.2-0.1c2.7-1.3,4.9-3.4,8-4c1.3-0.3,2.6-0.3,4-0.2
				c-4.3,1.3-8.4,3.1-12.1,5.8C233.2,626.2,233.2,625.7,233.1,625.2z M233.6,630.4c0.1-0.1,0.2-0.1,0.3-0.2c4-3.3,8.7-5.3,13.6-6.6
				c-3.3,4.3-8.4,7.7-13.8,8.1C233.7,631.3,233.7,630.9,233.6,630.4z M271.7,592.5c-13.6,9-19.3,24.5-21,40.1
				c-1.8,16.4,0,33.8-6.6,49.3c-0.9,2.2-3.8,9.2-6.9,11.9c1.9-4.7,2.2-10.2,2.4-15c0.2-6.9-0.7-13.6-1.8-20.3
				c-1.2-7.8-2.6-15.6-3.6-23.5c3.9-0.4,7.6-2,10.8-4.3c2.8-2,6.8-5.6,7.4-9.2c0.8-4.3-5-3.9-7.8-3.9c-1.1,0-2.1,0-3.2,0.2
				c4.8-3.3,9.4-6.7,12.4-12.1c2.2-4,4.4-8.8,5.3-13.3c0.7-3.4,1.2-7.3,0-10.7c0-0.4-0.2-0.7-0.5-0.9c-0.4-0.4-1.1-0.6-1.6-0.4
				c-10.3,3.1-18.3,10.8-22.8,20.3c0.3-1.6,0.7-3.2,1.1-4.8c2.4-8.9,6.8-16.2,14.1-21.9c6.7-5.2,14.7-8.6,22.8-10.8
				c2.6-0.7,5.2-1.3,7.9-1.9c6.7,6,10.2,14,11.4,23.1C284.6,586.2,277.8,588.5,271.7,592.5z M289.9,554.8
				C289.9,554.8,289.8,554.8,289.9,554.8c-0.2-0.1-0.4-0.2-0.5-0.2c-1.7-0.9-1.3-3.4,0.2-4.3c1.7-1.1,4,0.3,4.1,2.2
				C293.7,554.4,291.5,555.7,289.9,554.8z M302.1,576.1c-0.2,0.4-0.5,0.7-1,0.9c-0.6,0.2-1.5,0.2-2.1-0.2c-0.8-0.4-1-1.6-0.8-2.4
				c0.2-0.8,1-1.3,1.8-1.3c0.5,0,0.9,0.2,1.2,0.5c0.2,0.2,0.3,0.4,0.4,0.6c0.1,0.2,0.2,0.4,0.3,0.5
				C302.3,575.2,302.3,575.7,302.1,576.1z M300.8,549.7c-10.4-18.1-24.6-26.7-42.8-28.6c-18-1.9-59.6,8-74-1.5
				c-7.3-4.8-8.1-13.3-4.3-20.5c13.3,8.9,29.3,12.3,45,14c11.5,1.2,23.3,0.8,34.4-2.8c4.4-1.4,8.5-3.3,12.7-5.1
				c7.6-0.7,16.3-2.2,26.4-4.9c1.3-0.3,2.6-0.8,4-1.3c7.7,2.1,12.1,9.4,13.3,16.9c1.5,8.8-1.2,18.2-6.2,25.4
				C306.9,544.8,304,547.5,300.8,549.7z M316.3,576.4c-1.7,0.8-3.5,1.5-5.2,2.2c-0.8-6.5-2.8-13-5.9-20.1c-0.8-1.8-1.6-3.6-2.5-5.2
				c4.2-2.8,7.7-6.4,10.5-10.7c3.5-5.4,5.9-13.1,6.5-20c0,0,0,0,0,0c3.6,2.8,10.2,5.2,11.9,5.6c5.4,1.3,13,1.7,18.2-1.2
				c-0.4,2.6-0.9,5.2-1.5,7.8c-2.2,9.1-4.9,18-10.9,25.4C331.7,567.1,324.3,572.6,316.3,576.4z"/>
		</g>
	</g>
</g>
</svg>
