<?xml version="1.0" encoding="utf-8"?>
<!-- Generator: Adobe Illustrator 21.1.0, SVG Export Plug-In . SVG Version: 6.00 Build 0)  -->
<svg version="1.1" id="Слой_1" xmlns="http://www.w3.org/2000/svg" xmlns:xlink="http://www.w3.org/1999/xlink" x="0px" y="0px"
	 viewBox="0 0 504 864" style="enable-background:new 0 0 504 864;" xml:space="preserve">
<style type="text/css">
	.st0{fill:#040404;}
	.st1{fill:#FFFFFF;}
</style>
<g>
	<g>
		<path d="M51.9,53.6c6.7-7.6,6.7-19,0.2-26.4c0.8,7.2-1.3,14.8-6.5,20.6c-5.2,5.8-12.3,8.7-19.5,8.6C34,62.2,45.2,61.1,51.9,53.6z"
			/>
		<path d="M458.4,47.7c-5.2-5.8-7.3-13.3-6.5-20.6c-6.5,7.5-6.6,18.9,0.1,26.4c6.7,7.6,17.9,8.6,25.9,2.8
			C470.7,56.4,463.6,53.5,458.4,47.7z"/>
		<path d="M26.1,807.4c7.2-0.1,14.3,2.8,19.5,8.6c5.2,5.8,7.3,13.3,6.5,20.6c6.5-7.5,6.6-18.9-0.2-26.4
			C45.2,802.6,34,801.6,26.1,807.4z"/>
		<path d="M452,810.2c-6.7,7.6-6.7,19-0.1,26.4c-0.8-7.2,1.3-14.8,6.5-20.6c5.2-5.8,12.3-8.7,19.5-8.6
			C469.9,801.6,458.8,802.6,452,810.2z"/>
		<path d="M503.8,18.2c-1.6-17.9-18.7-16.3-31.6-16.3c-45.9,0-91.8,0-137.6,0c-63.2,0-126.3,0-189.5,0c-40.6,0-81.2,0-121.8,0
			c-2.6,0-5.3-0.2-8,0.2c-9.5,1.2-15,9.2-15.2,18.2c-0.2,7.3,0,14.5,0,21.8c0,37.4,0,74.9,0,112.3c0,57,0,114.1,0,171.1
			c0,64.3,0,128.6,0,192.9c0,58.4,0,116.7,0,175.1c0,40.1,0,80.2,0,120.3c0,9.1,0,18.2,0,27.3c0,11.7,6.7,20.5,19.2,20.7
			c35.9,0.6,71.9,0,107.9,0c62.4,0,124.9,0,187.3,0c49.7,0,99.5,0,149.2,0c7.6,0,15.2,0,22.9,0c0.4,0,0.8-0.1,1.2-0.2
			c14.4-1.8,16.1-13.8,16.1-25.5c0-11.4,0-22.8,0-34.3c0-43.4,0-86.9,0-130.3c0-59.9,0-119.8,0-179.8c0-63.9,0-127.7,0-191.6
			c0-55.3,0-110.6,0-165.9c0-33.7,0-67.3,0-101C503.9,28.3,504.2,23.2,503.8,18.2z M486.6,852.8c-28.3,0-56.6,0-84.9,0
			c-59.9,0-119.8,0-179.7,0c-54,0-108,0-162,0c-13.1,0-26.1,0-39.2,0c-5.6,0-11-1.3-11.7-8.3c-0.2-1.5,0-3,0-4.5c0-26.5,0-53,0-79.5
			c0-50,0-100,0-149.9c0-61.8,0-123.6,0-185.4c0-61.4,0-122.7,0-184.1c0-48.9,0-97.7,0-146.6c0-24.2-0.8-48.6,0-72.7
			c0.2-5.3,1.6-10.1,8.3-10.8c2.2-0.2,4.5,0,6.7,0c14.8,0,29.6,0,44.5,0c55.6,0,111.3,0,166.9,0c58.9,0,117.8,0,176.7,0
			c18.9,0,37.9,0,56.8,0c8.1,0,24.7-3.1,25.9,8.4c0.5,5.2,0,10.8,0,16.1c0,13.5,0,27.1,0,40.6c0,45.5,0,91.1,0,136.6
			c0,60.1,0,120.2,0,180.3c0,62.6,0,125.2,0,187.7c0,52.8,0,105.6,0,158.4c0,31.4,0,62.7,0,94.1C494.8,840.3,496.9,852,486.6,852.8z
			"/>
		<path d="M460,790.9c1.2,0.1,2.4-0.7,2.4-2.2c0-23.7,0-47.4,0-71.1c0-56.4,0-112.8,0-169.2c0-68.7,0-137.4,0-206
			c0-59,0-117.9,0-176.9c0-19.6,0-39.2,0-58.8c0-8.9,1.3-19,0-27.9c-0.1-0.4,0-0.8,0-1.2c0-0.8-0.3-1.3-0.8-1.7
			c0.1-1.2-0.6-2.5-2.2-2.6c-13.1-0.5-25.3-13.8-25.8-26.7c0-0.5-0.2-0.8-0.4-1.1c-0.3-0.6-1-1.1-1.9-1.1c-40.5,0-80.9,0-121.4,0
			c-64.5,0-129,0-193.6,0c-14.9,0-29.7,0-44.6,0c-0.9,0-1.6,0.5-1.9,1.1c-0.2,0.3-0.3,0.7-0.4,1.2C69.1,59.5,57,72.8,43.9,73.3
			c-1.8,0.1-2.5,1.9-2,3.2c-0.2,0.3-0.2,0.6-0.2,1c0,23.7,0,47.4,0,71.1c0,56.4,0,112.8,0,169.2c0,68.7,0,137.4,0,206
			c0,59,0,117.9,0,176.9c0,19.6,0,39.2,0,58.8c0,8.9-1.3,19,0,27.9c0.1,0.4,0,0.8,0,1.2c0,0.9,0.5,1.6,1.1,1.9
			c0.3,0.2,0.7,0.3,1.2,0.4c13,0.5,25.3,13.3,25.8,26.2c0,0.5,0.2,0.8,0.4,1.1c0.3,0.6,1,1.1,1.9,1.1c40.5,0,80.9,0,121.4,0
			c64.5,0,129,0,193.6,0c14.9,0,29.7,0,44.6,0c0.9,0,1.6-0.5,1.9-1.1c0.2-0.3,0.3-0.7,0.4-1.2c0.5-12.9,12.7-25.7,25.8-26.2
			C459.6,791,459.8,790.9,460,790.9z M429.3,814.9c-39.8,0-79.6,0-119.3,0c-64.5,0-129,0-193.6,0c-14.2,0-28.3,0-42.5,0
			c-1.7-13.9-13.9-26.5-27.8-28.3c0-23,0-46,0-69.1c0-56.4,0-112.8,0-169.2c0-68.7,0-137.4,0-206c0-59,0-117.9,0-176.9
			c0-19.6,0-39.2,0-58.8c0-8.9,1.3-19,0-27.9c-0.1-0.4,0-0.8,0-1.2c14-1.8,26.1-14.9,27.8-28.7c39.8,0,79.5,0,119.3,0
			c64.5,0,129,0,193.6,0c14.2,0,28.3,0,42.5,0c1.7,14.1,14.3,27.4,28.5,28.8c0,23.7,0,47.3,0,71c0,56.4,0,112.8,0,169.2
			c0,68.7,0,137.4,0,206c0,59,0,117.9,0,176.9c0,19.6,0,39.2,0,58.8c0,8.6-1.2,18.4-0.1,27C443.6,788.1,431.1,800.9,429.3,814.9z"/>
		<path d="M208.4,86.7c0-0.2,0-0.3-0.1-0.5c-0.1-0.5-0.3-0.5-0.6-0.2c-0.1,0.1,0,0.4,0.3,0.8l0.3,0.6L208.4,86.7z"/>
		<path d="M225.4,78.5c-1.5,0-2.3,0.1-2.3,0.4c0,0.2-0.6,0.4-1.9,0.5c-1.9,0.1-2.8,0.6-2.8,1.4c0,0.3,0.1,0.6,0.3,1
			c0.2,0.4,0.4,0.6,0.5,0.6c0.2,0,0.5,0.2,0.6,0.6c0.2,0.4,0.2,0.7-0.1,1.1c-0.2,0.3-0.3,0.5-0.2,0.5c0,0,0,0.1,0,0.2
			c-0.1,0.1-0.1,0.3-0.2,0.5c-0.3,0.4-0.4,0.8-0.4,1.1c0,0.4-0.2,0.7-0.6,1.1c-0.4,0.4-0.6,0.7-0.6,0.9c0,0.3-0.3,0.4-0.9,0.4
			c-0.4,0-0.6-0.1-0.8-0.2c-0.1-0.1-0.2-0.4-0.3-0.8c-0.1-0.6-0.4-1.1-0.7-1.3c-0.4-0.2-0.5-0.5-0.5-1c0-0.4-0.1-0.7-0.4-1.1
			s-0.5-0.6-0.5-1c-0.1-0.9-0.2-1.4-0.2-1.4c0-0.4,0.3-0.6,0.9-0.6c0.3,0,0.6-0.1,0.8-0.1c0.2-0.1,0.3-0.1,0.3-0.2
			c0.1-0.1,0.1-0.2,0.1-0.4c0-0.2,0-0.4-0.1-0.6l-0.2-0.8l-2.3,0.1c-1.5,0.1-2.3,0.2-2.4,0.4c0,0.1-0.2,0.2-0.4,0.3
			c-0.2,0.1-0.4,0.1-0.6,0c-0.2-0.1-0.3-0.1-0.3-0.2c0-0.1-0.2-0.3-0.5-0.4c-0.4-0.2-0.7-0.2-1.1-0.2c-0.5,0-0.8,0.2-0.8,0.6
			c0,0.2-0.2,0.4-0.7,0.4c-0.2,0-0.3,0.1-0.4,0.2c0.2,0.1,0.3,0.3,0.3,0.6c0,0.3,0.1,0.5,0.4,0.5c0.3,0,0.5,0.1,0.6,0.4
			c0.1,0.2,0.4,0.4,1.1,0.6c0.7,0.1,1.1,0.4,1.2,0.8c0.2,0.4,0.4,0.6,0.6,0.6c0.2,0,0.3,0.3,0.3,0.8c0,0.5,0.1,0.8,0.4,0.8
			c0.2,0,0.4,0.2,0.4,0.5c0,0.4,0.2,0.7,0.6,0.9c0.3,0.2,0.5,0.5,0.4,0.6c-0.1,0.2,0,0.4,0.2,0.5c0.2,0.1,0.5,0.4,0.7,0.9
			c0.2,0.5,0.4,0.8,0.6,0.8c0.1,0,0.2,0.2,0.2,0.5c0,0.4,0.2,0.6,0.6,0.7c0.2,0.1,0.4,0.2,0.4,0.5c0,0.1,0,0.3-0.1,0.5
			s-0.1,0.4-0.1,0.5c0,0.2-0.2,0.4-0.5,0.5c-0.3,0.1-0.5,0.4-0.7,0.9c-0.1,0.5-0.3,0.8-0.4,0.8c-0.2,0-0.5,0.3-1.1,0.9
			c-0.5,0.6-0.8,1-0.8,1.3c0,0.3-0.1,0.5-0.4,0.5c-0.3,0-0.4,0.1-0.4,0.3c0,0.3-0.2,0.5-0.6,0.7c-0.4,0.2-0.6,0.5-0.6,1.1
			c0,0.2,0,0.4,0,0.4c0,0.1-0.1,0.2-0.2,0.2c-0.1,0.1-0.3,0.1-0.4,0.1c-0.2,0-0.5,0-0.9,0.1c-0.9,0-1.4,0.2-1.7,0.4
			c-0.2,0.2-0.4,0.7-0.4,1.4l0.2,0.8c0.2,0.4,0.4,0.3,0.5-0.2c0.1-0.2,1.2-0.4,3.3-0.4c1.4,0,2.3,0,2.6,0.1c0.3,0,0.5,0.2,0.5,0.4
			c0,0.1,0.1,0.2,0.2,0.2c0.2-0.2,0.4-0.3,0.5-0.3c0,0,0.1,0.1,0.2,0.1c0.2,0,0.4-0.1,0.6-0.3c0.2-0.2,0.4-0.5,0.5-0.8
			c0.1-0.2,0.1-0.4-0.1-0.5c-0.1-0.1-0.4-0.2-0.9-0.2c-1.2-0.2-1.8-0.6-1.8-1.2c0-0.2,0.1-0.3,0.4-0.3c0.2,0,0.4-0.2,0.4-0.6
			s0.1-0.6,0.4-0.6c0.2,0,0.4-0.1,0.4-0.4c0-0.1,0.2-0.4,0.6-0.8c0.4-0.5,0.6-0.8,0.6-0.9c0-0.5,0.1-1,0.3-1.5
			c0.3-0.5,0.6-0.7,0.9-0.7l0.1,0.1c0,0,0.1,0,0.1,0c0.3,0.1,0.4,0.2,0.4,0.5c0,0.1,0.3,0.5,0.8,1.2c0.5,0.7,0.8,1.1,0.8,1.2
			c0,0.2,0.1,0.3,0.4,0.4c0.2,0.1,0.4,0.4,0.5,0.9c0.1,0.5,0.4,0.8,1,0.9l0.9,0.2l-0.8,0.1c-0.6,0.1-0.9,0.3-0.9,0.6
			c0,0.7-0.4,1.1-1.3,1.1c-0.5,0-0.7,0.2-0.7,0.7v0.6h3.4c2.3,0,3.5,0.1,3.6,0.4c0.1,0.2,0.3,0.2,0.6-0.1c0.2-0.3,0.7-0.4,1.4-0.3
			l1,0.2v-0.9c0-0.4-0.1-0.7-0.2-0.9c-0.1-0.2-0.4-0.3-0.9-0.5c-0.7-0.2-1.1-0.4-1.1-0.6c0-0.1-0.3-0.3-0.8-0.6
			c-0.5-0.3-0.8-0.5-0.8-0.7c0-0.3-0.1-0.7-0.3-1.1c-0.2-0.4-0.4-0.6-0.6-0.6c-0.1,0-0.3-0.3-0.5-0.8c-0.2-0.5-0.4-0.8-0.5-0.8
			c-0.2,0-0.4-0.2-0.5-0.5c-0.1-0.3-0.5-0.9-1.3-1.7c-0.8-0.8-1.2-1.2-1.4-1.2c-0.1,0-0.2-0.1-0.2-0.4c0-0.8,0.4-1.6,1.1-2.4
			c0.6-0.7,0.9-1.1,0.9-1.4c0-0.2,0.3-0.5,0.8-1.1c0.5-0.5,0.9-0.8,1.1-0.8c0.1,0,0.2-0.2,0.2-0.5c0-0.9,0.3-1.4,0.8-1.4
			c0.3,0,0.5-0.1,0.5-0.3c0-0.2,0.2-0.4,0.5-0.7c0.3-0.3,0.6-0.4,0.8-0.4c0.3,0,0.6-0.2,0.8-0.6l0.4-0.6l0.2,0.6
			c0.1,0.2,0.2,0.4,0.3,0.5c0.1,0.1,0.3,0.1,0.4,0c0.1-0.1,0.2-0.2,0.3-0.4c0.1-0.4,0.3-0.5,0.7-0.5c0.2,0,0.4-0.1,0.4-0.2
			c0.1-0.1,0.1-0.4,0.1-0.8c0-0.9-0.1-1.4-0.3-1.6C227.4,78.6,226.7,78.5,225.4,78.5z M212.5,81.1c0,0.1,0,0.1-0.1,0.1l-0.1-0.3
			c0-0.1,0-0.2,0.1-0.3c0-0.1,0.1-0.1,0.1,0.1C212.6,80.9,212.6,81,212.5,81.1z M213,85.6c-0.1,0-0.2,0-0.2-0.1
			c0-0.1,0.1-0.2,0.2-0.2c0.1,0,0.1,0.1,0.1,0.2C213.1,85.5,213.1,85.6,213,85.6z M213.6,87.2c0,0.1,0,0.1-0.1,0.1l-0.1-0.3
			c0-0.2,0.1-0.3,0.2-0.2C213.6,87,213.6,87.1,213.6,87.2z M216.5,93.1c-0.2,0-0.3-0.1-0.3-0.3c0-0.2,0.1-0.3,0.3-0.3
			c0.2,0,0.3,0.1,0.3,0.3C216.8,93.1,216.7,93.1,216.5,93.1z"/>
		<path d="M246,93.1c0-0.8,0.1-1.2,0.4-1.4c0.2-0.1,0.4-0.6,0.6-1.5c0.2-0.9,0.3-1.4,0.4-1.5c0.3-0.2,0.4-0.5,0.4-0.9
			c0-0.4,0.2-0.6,0.7-0.7c0.4,0,0.6-0.3,0.6-0.7c0-0.2-0.1-0.6-0.1-1c0-1,0.2-1.5,0.6-1.5c0.4,0,0.5-0.3,0.5-0.8
			c0-0.5,0.2-0.9,0.6-1.4c0.4-0.4,0.9-0.7,1.6-0.8c0.8-0.2,1.2-0.6,1.2-1.4c0-0.1,0-0.4-0.1-0.7l-0.1-0.6h-3.7
			c-2.5,0-3.7,0.1-3.7,0.3c0,0.2-0.1,0.3-0.3,0.3c-0.3,0-0.6,0.2-0.9,0.6c-0.4,0.5-0.4,0.7-0.2,0.7c0.3,0,0.5,0.1,0.5,0.4
			c0.1,0.3,0.5,0.4,1.1,0.4c0.6,0,1,0.2,1.1,0.7c0.1,0.5,0.1,0.7-0.1,0.8c-0.2,0.1-0.3,0.5-0.3,1.3c0,0.7-0.1,1.2-0.4,1.3
			c-0.2,0.1-0.3,0.3-0.3,0.7c0,0.1,0.1,0.2,0.1,0.4c0,0.5-0.1,0.9-0.3,1.4c-0.2,0.5-0.4,0.8-0.7,0.8c-0.4,0.1-0.5,0.4-0.5,0.9
			c0,0.5-0.1,0.9-0.3,1.1c-0.2,0.2-0.4,0.8-0.4,1.7c-0.1,1-0.3,1.5-0.6,1.5c-0.4,0-0.5,0.2-0.4,0.5c0,0.2,0,0.4,0,0.4
			c-0.1,0.1-0.2,0.1-0.4,0.1c-0.4,0-0.7-0.1-0.9-0.2c-0.5-0.3-0.7-1.2-0.8-2.9c0-0.7-0.1-1.2-0.4-1.4c-0.2-0.2-0.3-0.7-0.3-1.6
			c0-1.3-0.3-2.2-0.9-2.6c-0.2-0.1-0.2-0.3,0.1-0.4c0.1,0,0.2-0.2,0.3-0.4c0.1-0.2,0.1-0.5,0.1-0.7c0-0.2-0.1-0.3-0.2-0.3
			c-0.1,0-0.3-0.3-0.4-0.8c-0.1-0.6-0.4-0.9-0.7-0.9c-0.3-0.1-0.4-0.2-0.4-0.3c0-0.4,0.5-0.5,1.4-0.5c1.3,0,1.9-0.2,1.9-0.7
			c0-0.2,0.1-0.4,0.3-0.4c0.2,0,0.1-0.3-0.3-0.8c-0.4-0.5-0.9-0.8-1.6-0.8c-0.7,0-1.1-0.1-1.2-0.3c-0.1-0.1-0.3-0.1-0.7,0.1
			c-0.4,0.2-0.6,0.2-0.7-0.1c-0.2-0.2-0.3-0.3-0.4-0.1c-0.1,0.2-0.5,0.3-1.1,0.3c-0.4,0-0.6,0-0.8-0.1c-0.1-0.1-0.2-0.3-0.3-0.7
			c-0.1-0.5-0.3-0.8-0.7-0.8c-0.2,0-0.5,0.2-0.8,0.5c-0.4,0.4-0.7,0.5-1.2,0.5c-0.4,0-0.6,0.1-0.6,0.4c0,0.3-0.1,0.4-0.3,0.4
			c-0.2,0-0.3,0.2-0.3,0.6c0,0.5,0.1,0.7,0.3,0.7c0.2,0,0.3,0.1,0.3,0.4c0,0.2,0.3,0.4,1,0.5c0.6,0.1,1.1,0.4,1.5,0.9
			c0.4,0.5,0.7,1.1,0.7,1.6c0,0.5,0.1,1,0.3,1.6c0.2,0.6,0.4,0.9,0.5,0.9c0.1,0,0.2,0.3,0.2,0.8c0,0.6,0.2,1.1,0.5,1.4
			c0.3,0.3,0.5,0.9,0.8,1.8c0.2,0.9,0.3,1.7,0.3,2.5c0,0.9,0.1,1.4,0.4,1.4c0.1,0.1,0.2,0.3,0.2,0.7c0,0.4,0.1,0.6,0.2,0.6
			c0.2,0.1,0.3,0.6,0.3,1.6c0,0.9,0.1,1.4,0.4,1.4c0.2,0,0.4,0.3,0.6,1c0.2,0.7,0.4,1,0.5,1c0.2,0,0.3,0.3,0.4,0.8
			c0.1,0.7,0.5,1,1.3,1c0.1,0,0.4,0,0.6-0.1c0.5-0.1,0.7-0.4,0.7-1.1c0-0.6,0.1-0.9,0.3-0.9c0.2,0,0.3-0.3,0.3-0.9
			c0-0.6,0.1-0.9,0.3-0.9c0.2-0.1,0.3-0.6,0.3-1.5c0-0.9,0.2-1.6,0.6-1.9c0.5-0.5,0.8-0.7,1.1-0.8C245.9,94.3,246,93.9,246,93.1z"/>
		<path d="M266.3,103.5c0.4,0,0.6-0.1,0.6-0.2s0.2-0.3,0.6-0.5c0.4-0.2,0.6-0.4,0.6-0.6c0-0.9-0.7-1.4-1.9-1.5l-1.3-0.1l0.1-6.7
			c0.1-4.5,0.2-6.8,0.3-7c0.1-0.1,0.2-0.8,0.3-1.9c0.1-2.1,0.4-3.2,0.7-3.2c0.2,0,0.4-0.1,0.4-0.3c0-0.2,0.2-0.3,0.7-0.3
			c0.4,0,0.8-0.1,1-0.3c0.3-0.2,0.4-0.5,0.4-0.7c0-0.3-0.2-0.6-0.5-0.8c-0.3-0.2-1.4-0.3-3.4-0.3c-2,0-2.9,0.1-2.9,0.3
			c0,0.1-0.3,0.2-0.9,0.2s-0.9,0.1-0.9,0.4s-0.1,0.4-0.3,0.4c-0.2,0-0.3,0.2-0.3,0.6c0,0.5,0.1,0.8,0.4,0.9c0.3,0.1,0.4,0.9,0.4,2.5
			c0,1.6,0.1,2.4,0.3,2.5c0.2,0.1,0.3,0.8,0.3,2.2c0,1.3-0.1,2-0.3,2.1c-0.2,0.1-0.4,1.5-0.4,4.3c-0.1,2.4-0.2,3.9-0.4,4.3
			c-0.2,0.5-0.8,0.8-1.8,0.9c-0.6,0-0.9,0.1-1,0.2c-0.1,0.1-0.2,0.4-0.2,0.8c0,0.6,0.1,0.9,0.4,0.9c0.3,0,0.6,0.1,0.9,0.4
			c0.3,0.3,0.5,0.4,0.6,0.2c0.1-0.2,1.5-0.4,4-0.4c2.1,0,3.2,0.1,3.2,0.3C265.7,103.4,265.9,103.5,266.3,103.5z M261.5,96.6
			c-0.3,0-0.4-0.1-0.4-0.3c0-0.2,0.1-0.3,0.4-0.3c0.2,0,0.4,0.1,0.4,0.3C261.8,96.5,261.7,96.6,261.5,96.6z M263.1,89.2
			c-0.3,0-0.4-0.2-0.4-0.5c0-0.4,0.1-0.6,0.4-0.6c0.3,0,0.4,0.2,0.4,0.6C263.5,89,263.4,89.2,263.1,89.2z"/>
		<path d="M283.2,79.3c-0.3-0.2-1.4-0.3-3.4-0.3c-2,0-2.9,0.1-2.9,0.3c0,0.1-0.3,0.2-0.9,0.2s-0.9,0.1-0.9,0.4s-0.1,0.4-0.3,0.4
			c-0.2,0-0.3,0.2-0.3,0.6c0,0.5,0.1,0.8,0.4,0.9c0.3,0.1,0.4,0.9,0.4,2.5c0,1.6,0.1,2.4,0.3,2.5c0.2,0.1,0.3,0.8,0.3,2.2
			c0,1.3-0.1,2-0.3,2.1c-0.2,0.1-0.4,1.5-0.4,4.3c-0.1,2.4-0.2,3.9-0.4,4.3c-0.2,0.5-0.8,0.8-1.8,0.9c-0.6,0-0.9,0.1-1,0.2
			c-0.1,0.1-0.2,0.4-0.2,0.8c0,0.6,0.1,0.9,0.4,0.9c0.3,0,0.6,0.1,0.9,0.4c0.3,0.3,0.5,0.4,0.6,0.2c0.1-0.2,1.5-0.4,4-0.4
			c2.1,0,3.2,0.1,3.2,0.3c0,0.2,0.2,0.3,0.5,0.3c0.4,0,0.6-0.1,0.6-0.2s0.2-0.3,0.6-0.5c0.4-0.2,0.6-0.4,0.6-0.6
			c0-0.9-0.7-1.4-1.9-1.5l-1.3-0.1l0.1-6.7c0.1-4.5,0.2-6.8,0.3-7c0.1-0.1,0.2-0.8,0.3-1.9c0.1-2.1,0.4-3.2,0.7-3.2
			c0.2,0,0.4-0.1,0.4-0.3c0-0.2,0.2-0.3,0.7-0.3c0.4,0,0.8-0.1,1-0.3c0.3-0.2,0.4-0.5,0.4-0.7C283.7,79.8,283.5,79.5,283.2,79.3z
			 M276.5,96.6c-0.3,0-0.4-0.1-0.4-0.3c0-0.2,0.1-0.3,0.4-0.3c0.2,0,0.4,0.1,0.4,0.3C276.9,96.5,276.7,96.6,276.5,96.6z M278.1,89.2
			c-0.3,0-0.4-0.2-0.4-0.5c0-0.4,0.1-0.6,0.4-0.6c0.3,0,0.4,0.2,0.4,0.6C278.5,89,278.4,89.2,278.1,89.2z"/>
		<path d="M288.5,103.3c0.1-0.2,1.5-0.4,4-0.4c2.1,0,3.2,0.1,3.2,0.3c0,0.2,0.2,0.3,0.5,0.3c0.4,0,0.6-0.1,0.6-0.2s0.2-0.3,0.6-0.5
			c0.4-0.2,0.6-0.4,0.6-0.6c0-0.9-0.7-1.4-1.9-1.5l-1.3-0.1l0.1-6.7c0.1-4.5,0.2-6.8,0.3-7c0.1-0.1,0.2-0.8,0.3-1.9
			c0.1-2.1,0.4-3.2,0.7-3.2c0.2,0,0.4-0.1,0.4-0.3c0-0.2,0.2-0.3,0.7-0.3c0.4,0,0.8-0.1,1-0.3c0.3-0.2,0.4-0.5,0.4-0.7
			c0-0.3-0.2-0.6-0.5-0.8c-0.3-0.2-1.4-0.3-3.4-0.3c-2,0-2.9,0.1-2.9,0.3c0,0.1-0.3,0.2-0.9,0.2s-0.9,0.1-0.9,0.4s-0.1,0.4-0.3,0.4
			c-0.2,0-0.3,0.2-0.3,0.6c0,0.5,0.1,0.8,0.4,0.9c0.3,0.1,0.4,0.9,0.4,2.5c0,1.6,0.1,2.4,0.3,2.5c0.2,0.1,0.3,0.8,0.3,2.2
			c0,1.3-0.1,2-0.3,2.1c-0.2,0.1-0.4,1.5-0.4,4.3c-0.1,2.4-0.2,3.9-0.4,4.3c-0.2,0.5-0.8,0.8-1.8,0.9c-0.6,0-0.9,0.1-1,0.2
			c-0.1,0.1-0.2,0.4-0.2,0.8c0,0.6,0.1,0.9,0.4,0.9c0.3,0,0.6,0.1,0.9,0.4C288.2,103.4,288.4,103.5,288.5,103.3z M293.1,88
			c0.3,0,0.4,0.2,0.4,0.6c0,0.4-0.1,0.5-0.4,0.5c-0.3,0-0.4-0.2-0.4-0.5C292.7,88.2,292.8,88,293.1,88z M291.5,96
			c0.2,0,0.4,0.1,0.4,0.3c0,0.2-0.1,0.3-0.4,0.3c-0.3,0-0.4-0.1-0.4-0.3C291.1,96.1,291.2,96,291.5,96z"/>
		<path d="M187.1,785.3c0.1,0,0.2-0.2,0.2-0.5c0-0.2,0-0.4-0.1-0.4c-0.1,0-0.1-0.1-0.1-0.3c0-0.2,0.1-0.4,0.2-0.6
			c0.1-0.3,0.1-0.5-0.2-0.6c-0.2-0.2-0.5-0.3-0.9-0.3c-0.5,0-0.8,0.1-1.1,0.4c-0.3,0.2-0.4,0.3-0.5,0.2c-0.1-0.1-0.4-0.1-0.8,0
			c-0.5,0.1-1.4,0.2-2.6,0.2c-0.9,0-1.4,0-1.5-0.1c-0.1-0.1-0.2,0-0.4,0.2c-0.1,0.1-0.3,0.2-0.4,0.2c-0.2,0-0.4,0-0.7-0.1
			c-0.7-0.2-1.1-0.2-1.3-0.2c-0.1,0-0.2,0-0.2,0c-0.1,0-0.3,0.1-0.4,0.3c-0.1,0.2-0.2,0.4-0.2,0.5c0,0.1,0,0.1,0.1,0.2
			c0,0,0.1,0.2,0.1,0.5c0,0.1,0,0.2-0.1,0.3c-0.1,0-0.2,0.1-0.3,0.1c-0.3,0-0.5,0.1-0.5,0.3c0,0,0,0.1,0.1,0.2
			c0.1,0.1,0.1,0.3,0.1,0.6c0,0.3-0.1,0.4-0.1,0.5c0,0.5,0.2,0.8,0.6,0.8c0.3,0,0.4-0.1,0.4-0.2c0-0.1,0.1-0.2,0.2-0.2
			c0.1,0,0.1,0,0.2-0.1c0,0,0-0.1,0-0.2c0-0.1-0.1-0.2-0.2-0.2c-0.1-0.1-0.1-0.1-0.1-0.2c0,0,0-0.1,0-0.1c0,0,0-0.1,0.1-0.1
			c0,0,0.1,0,0.2-0.1c0.2-0.1,0.2-0.2,0.2-0.3c0,0,0-0.1,0-0.2c0-0.1,0-0.1,0-0.2c0-0.1,0-0.2,0.1-0.2c0.1-0.1,0.1-0.3,0-0.6
			c-0.1-0.3-0.1-0.4,0-0.4c0.1,0,0.1,0.1,0.1,0.2c0,0.1,0.2,0.2,0.5,0.4c0.4,0.1,0.7,0.2,1.1,0.2c0.4,0,0.7,0.1,0.8,0.3
			c0.2,0.2,0.3,0.2,0.5,0.2c0.1,0,0.1,0,0.1,0c0.1,0,0.1,0,0,0.1c-0.3,0.3-0.4,2.2-0.5,5.8c0,0.8-0.1,1.2-0.3,1.4
			c-0.2,0.1-0.3,0.3-0.3,0.4c0,0.1-0.3,0.2-0.8,0.2l-0.7,0.1l-0.1,0.5c0,0,0,0.1,0,0.1s0,0.1,0,0.1c0,0.2,0.1,0.4,0.4,0.7
			c0.3,0.3,0.5,0.4,0.7,0.4c0.1,0,0.1,0,0.1-0.1c0-0.1,0-0.1-0.1-0.1c-0.1,0-0.1,0-0.1-0.1c0-0.1,0.2-0.1,0.5-0.1c0.1,0,0.4,0,0.8,0
			c0.4,0,0.7,0,0.9,0c0.6,0,0.9-0.1,1.1-0.2c0.1-0.1,0.3-0.2,0.6-0.1c0.2,0.1,0.3,0,0.4-0.1c0.1-0.1,0.2-0.1,0.3-0.1
			c0.1,0,0.3-0.1,0.5-0.2c0.1-0.1,0.2-0.2,0.2-0.3c0-0.1-0.1-0.2-0.2-0.5c-0.2-0.3-0.3-0.4-0.5-0.4c-0.1,0-0.2-0.1-0.2-0.2
			c0-0.1-0.1-0.2-0.3-0.1c0,0-0.1,0-0.1,0c-0.1,0-0.1,0-0.1,0c-0.1,0-0.2,0-0.3-0.1c0-0.1-0.1-0.3-0.1-0.5v-0.4c0-0.5,0-0.8,0-0.9
			c0-0.1,0.1-0.2,0.2-0.2c0.2,0,0.2-0.1,0.2-0.4c0-0.3-0.1-0.5-0.2-0.5s-0.2-0.4-0.2-1.1c0-0.8,0.1-1.2,0.2-1.4
			c0.1-0.1,0.2-0.5,0.2-1.2c0-0.7,0.1-1,0.1-1.1c0.1-0.2,0.5-0.2,1.2-0.2c1,0,1.5,0.1,1.6,0.4c0,0.1,0.1,0.2,0.4,0.5
			c0.2,0.2,0.3,0.4,0.3,0.8c0,0.3,0.1,0.5,0.1,0.5c0,0.1,0.2,0.1,0.4,0.1c0.2,0,0.4,0,0.4-0.1c0-0.1,0.1-0.2,0.3-0.2
			c0.2-0.1,0.3-0.2,0.3-0.4c0-0.2-0.1-0.4-0.2-0.5C187,785.4,187,785.3,187.1,785.3z"/>
		<path d="M207.8,781.9c-0.2-0.1-0.5-0.1-0.8-0.1c-0.1,0-0.2,0-0.5,0.1c-0.3,0.1-0.5,0.1-0.7,0.1h-0.1h-0.2c-0.2,0-0.5,0-1,0.1
			c-0.4,0-0.7,0.1-0.8,0.1c-0.1,0-0.2,0.1-0.2,0.2c0,0.2,0,0.3-0.1,0.3c-0.1,0-0.1,0-0.1,0.1c0,0.1,0,0.2,0,0.3
			c0,0.1,0.1,0.2,0.2,0.2c0.1,0.1,0.2,0.5,0.2,1.3c0,0.8,0.1,1.2,0.2,1.2c0.1,0,0.1,0.3,0.1,0.8v0.8h-1.3c-0.8,0-1.7,0-2.7-0.1
			l-1.4-0.1v-0.7c0-0.4,0-0.7,0.1-0.7c0.1,0,0.1-0.3,0.2-0.9c0-1.1,0.1-1.6,0.4-1.6c0.1,0,0.2,0,0.2-0.1c0-0.1,0.1-0.2,0.4-0.2
			c0.2,0,0.4-0.1,0.5-0.2c0.1-0.1,0.2-0.2,0.2-0.4c0-0.2-0.1-0.3-0.2-0.4c-0.2-0.1-0.5-0.2-1-0.2c-0.3,0-0.4,0-0.5,0.1
			c0,0-0.5,0.1-1.3,0.1c-0.9,0.1-1.7,0.2-2.4,0.5c-0.1,0-0.2,0.1-0.2,0.2c0,0.1,0.2,0.2,0.6,0.4l0.6,0.3l0,0.8v0.9v0.3
			c0,0.2,0,0.4,0.1,0.4c0.1,0.1,0.2,0.5,0.2,1.1c0,0.6-0.1,1.1-0.2,1.4c-0.1,0.3-0.2,0.5-0.2,0.8c0,0,0,0,0,0.1c0,0,0,0.1,0,0.1
			c0,0.2,0.1,0.4,0.1,0.6c0,0.5,0,1.1-0.1,1.8c-0.1,0.6-0.2,1-0.2,1.2c-0.1,0.2-0.4,0.3-0.8,0.3c-0.3,0-0.5,0.1-0.6,0.1
			c-0.1,0.1-0.1,0.2-0.1,0.4v0.5l0.7-0.1c0.3-0.1,1-0.1,2.2-0.1h0.7h0.7c1,0,1.6,0,1.6-0.1c0-0.1-0.1-0.3-0.2-0.5
			c-0.2-0.2-0.3-0.3-0.4-0.3h-0.1c-0.2,0.1-0.4,0.1-0.6-0.1c-0.1-0.1-0.2-0.1-0.3-0.2c0-0.1-0.1-0.2-0.1-0.4c0-0.3,0-0.5,0-0.8
			c0-0.9,0.1-1.6,0.1-2.1v-0.8h4.9l0.1,0.4c0,0.2,0.1,0.5,0.1,0.7c0,0.5,0,1.1-0.1,1.7c-0.1,0.6-0.2,1-0.3,1
			c-0.1,0.1-0.4,0.2-0.8,0.3c-0.3,0-0.5,0.1-0.5,0.1c-0.1,0.1-0.1,0.2-0.1,0.4c0,0.3,0.1,0.5,0.3,0.5c0.3,0.1,1.3,0.1,3.1,0.1
			c1.3,0,2,0,2.1-0.1c0.2-0.1,0.3-0.2,0.3-0.4c0-0.2-0.1-0.3-0.2-0.5c-0.1-0.1-0.3-0.2-0.4-0.2c0,0,0,0-0.1,0c0,0,0,0-0.1,0
			c-0.1,0.1-0.3,0.1-0.5,0l-0.4-0.1l0.1-3.5c0-2.3,0.1-3.5,0.2-3.6c0.1,0,0.1-0.3,0.1-0.9c0.1-1.1,0.2-1.6,0.4-1.6
			c0.1,0,0.2,0,0.2-0.1c0-0.1,0.1-0.2,0.4-0.2c0.2,0,0.4-0.1,0.5-0.2c0.2-0.1,0.2-0.3,0.2-0.4C208.1,782.1,208,782,207.8,781.9z
			 M196.9,790.8c-0.2-0.1-0.3-0.1-0.3-0.2c0-0.1,0-0.1,0.1-0.1c0.2,0,0.3,0.1,0.4,0.2c0,0,0,0,0,0.1
			C197.1,790.8,197.1,790.8,196.9,790.8z M197.6,790.7c-0.1,0-0.1-0.1-0.1-0.2c0-0.1,0-0.2,0.1-0.2c0.1,0,0.2,0.1,0.2,0.2
			C197.8,790.7,197.7,790.7,197.6,790.7z M197.6,787c-0.1,0-0.2-0.1-0.2-0.3c0-0.3,0.1-0.4,0.2-0.4c0.2,0,0.2,0.1,0.2,0.3
			C197.8,786.9,197.7,787,197.6,787z M204.7,790.8c-0.1,0.1-0.2,0.1-0.4,0c-0.2-0.1-0.3-0.1-0.3-0.2c0-0.1,0.1-0.1,0.2-0.1
			c0.3,0,0.5,0.1,0.5,0.2C204.8,790.7,204.8,790.8,204.7,790.8z M205.1,790.7c-0.1,0-0.2-0.1-0.2-0.2c0-0.1,0.1-0.2,0.2-0.2
			c0.1,0,0.1,0.1,0.1,0.2C205.2,790.7,205.2,790.7,205.1,790.7z M205.1,787c-0.1,0-0.2-0.1-0.2-0.3c0-0.3,0.1-0.4,0.2-0.4
			c0.1,0,0.2,0.1,0.2,0.3C205.3,786.9,205.2,787,205.1,787z"/>
		<path d="M215.2,792c0.1-0.2,0.1-0.3,0-0.3c-0.1,0-0.2,0.1-0.2,0.2c0,0.1,0,0.2,0.1,0.2C215.2,792.1,215.2,792.1,215.2,792z"/>
		<path d="M225.3,790.2c-0.1,0-0.3,0.2-0.5,0.5s-0.4,0.6-0.4,0.7c0,0.1-0.1,0.2-0.4,0.2c-0.1,0-0.2,0-0.3,0.1c0,0-0.1,0.1-0.1,0.1
			c0,0,0,0.1,0,0.3c0,0.2-0.1,0.3-0.4,0.3c0,0-0.1,0-0.1,0s-0.1,0-0.2,0c-0.2,0-0.4,0.1-0.6,0.3c-0.2,0.2-0.4,0.3-0.6,0.3
			c-0.1,0-0.2-0.1-0.2-0.2c0-0.1-0.1-0.1-0.4,0c-0.2,0.1-0.6,0.2-1.2,0.2c-0.5,0-0.7,0-0.7-0.1c0-0.1-0.1-0.1-0.2-0.1
			c-0.1,0-0.1-0.1-0.2-0.2c-0.1-0.2-0.1-0.3-0.1-0.4c0-0.1,0-0.2,0-0.3c0-0.2,0-0.4,0-0.6c0-0.3,0-0.5,0-0.8c0-0.3,0-0.5,0-0.8
			c0-0.3,0-0.5,0-0.6v-0.2c0-0.1,0.4-0.1,1.3-0.1c0.7,0,1.2,0.1,1.4,0.2c0.2,0.1,0.4,0.4,0.4,0.8c0,0.2,0,0.3,0.1,0.3
			c0,0,0.1,0,0.2,0c0.1-0.1,0.3-0.1,0.5-0.1c0.1,0,0.2,0,0.3-0.1c0-0.1,0.1-0.2,0.1-0.5c0-0.1,0-0.2,0-0.3c0-0.2,0-0.3,0-0.4v-0.2
			c0-0.3,0-0.6,0.1-0.7c0.1-0.1,0.1-0.3,0-0.4c-0.1-0.1-0.1-0.3,0.1-0.4c0.1-0.1,0.2-0.2,0.2-0.4c0-0.3-0.3-0.4-1-0.4
			c-0.4,0-0.6,0.2-0.6,0.5c0,0.1,0,0.2,0.1,0.3c0,0.2,0,0.4,0,0.5s-0.3,0.2-0.9,0.3c-0.5,0.1-1,0.1-1.5,0.1h-0.6v-0.6
			c0-0.4,0.1-0.6,0.2-0.6c0.1,0,0.2-0.1,0.2-0.4c0-0.3-0.1-0.5-0.2-0.9c-0.1-0.2-0.2-0.4-0.1-0.4c0-0.1,0.1-0.1,0.2-0.3
			c0.2-0.1,0.3-0.3,0.2-0.5c0,0,0-0.1,0-0.2c0-0.1,0.1-0.3,0.4-0.3c0.3-0.1,0.7-0.1,1.5-0.2c0.7,0,1.1-0.1,1.1-0.1
			c0.3,0,0.5,0.1,0.6,0.2c0.1,0.2,0.3,0.3,0.5,0.4c0.2,0.1,0.3,0.2,0.3,0.3c0,0.1,0.1,0.2,0.3,0.3c0.2,0.1,0.3,0.2,0.3,0.3
			c0,0.2,0.1,0.3,0.3,0.5c0.2,0.2,0.4,0.2,0.6,0.2h0c0.3,0,0.4-0.2,0.4-0.6c0-0.2-0.1-0.3-0.2-0.5c-0.1-0.1-0.2-0.3-0.2-0.5
			c0-0.3-0.1-0.5-0.2-0.5c-0.1,0-0.1-0.1,0-0.4c0.1-0.1,0.1-0.2,0.1-0.3c0,0-0.1-0.1-0.1-0.1c-0.1-0.1-0.2-0.2-0.2-0.3
			c0-0.1-0.1-0.3-0.3-0.5c-0.2-0.2-0.4-0.3-0.6-0.1c-0.3,0.1-1.8,0.3-4.7,0.4h-0.7c-1.5,0-2.2-0.1-2.3-0.3c0-0.1-0.1-0.1-0.2-0.1
			s-0.2,0-0.2,0.1l0,0.1c0,0.1,0,0.1,0,0.1c0,0,0,0.1,0,0.2c0,0.1,0,0.2,0,0.2c0,0.2-0.1,0.3-0.3,0.3c-0.2,0.1-0.3,0.2-0.2,0.5
			c0.1,0.2,0.1,0.4,0.2,0.5s0.2,0.1,0.3,0.1c0.1,0,0.3,0,0.4,0c0.1,0,0.2,0,0.4,0c0.3,0,0.5,0.1,0.6,0.4c0.1,0.2,0.1,0.7,0.1,1.4
			c0,0.9-0.1,1.4-0.2,1.4c-0.1,0-0.1,0.2,0,0.4c0.1,0.2,0.1,0.4,0,0.6c-0.1,0.2-0.2,0.3-0.3,0.3c-0.1,0-0.1,0.1,0.1,0.2
			c0.1,0.1,0.1,0.3,0.1,0.6c0,0.5-0.1,1.5-0.2,2.8l-0.1,0.9h-0.6c-0.4,0-0.6,0.1-0.6,0.3c0,0.2-0.1,0.3-0.3,0.3
			c-0.1,0-0.2,0.1-0.2,0.3c0,0.3,0.1,0.5,0.3,0.6c0.2,0.1,0.3,0.2,0.3,0.4c0,0.1,0.2,0.1,0.7,0.1c0.5,0,0.8-0.1,0.9-0.3
			c0.1-0.1,0.5-0.2,1.2-0.2c0.5,0,0.9,0,1.3,0c0.7,0,1.1,0.1,1.2,0.2c0,0.1,0.2,0.1,0.4,0c0.2-0.1,0.7-0.2,1.5-0.2
			c0.8,0,1.3,0,1.5-0.1c0.2,0,0.3-0.1,0.5-0.3c0.2-0.2,0.3-0.3,0.2-0.5c0-0.2,0-0.3,0.1-0.4c0.1-0.1,0.2-0.3,0.2-0.8
			c0-0.3,0-0.5,0-0.6s0.1-0.1,0.2-0.1c0.2,0,0.3-0.2,0.3-0.5c0-0.2-0.1-0.4-0.2-0.6C225.6,790.3,225.4,790.2,225.3,790.2z"/>
		<path d="M257.9,783.1c-0.3,0-0.5,0-0.7,0c-0.4,0-0.7,0.1-0.7,0.1c-0.1,0-0.2,0-0.2,0s-0.1-0.1-0.1-0.1c0,0,0-0.1-0.1-0.2
			s0-0.2,0-0.2c0-0.1,0-0.1,0,0c0,0,0,0.1,0,0.2c0,0.2-0.2,0.4-0.4,0.4c-0.2,0.1-0.4,0.2-0.4,0.4c0,0.1-0.1,0.3-0.2,0.4
			c-0.1,0.1-0.2,0.3-0.2,0.4c0,0.2-0.1,0.4-0.2,0.6c-0.1,0.2-0.2,0.4-0.2,0.6c0,0.2,0,0.3-0.1,0.3c-0.1,0-0.2,0.1-0.2,0.4
			c0,0.2-0.1,0.4-0.2,0.5c-0.1,0.1-0.2,0.2-0.3,0.5c-0.1,0.3-0.1,0.4-0.2,0.4c-0.1,0-0.1,0.1-0.1,0.3c0,0.2,0,0.4-0.2,0.5
			c-0.2,0.2-0.3,0.5-0.3,0.9c-0.1,0.4-0.2,0.6-0.4,0.6c-0.2,0-0.3,0.1-0.3,0.2c0,0.1,0,0.2-0.1,0.2c-0.1,0-0.1,0.1-0.1,0.3
			c0,0.2-0.1,0.3-0.3,0.3c-0.2,0-0.3-0.2-0.3-0.5c0-0.3-0.1-0.5-0.2-0.5s-0.2-0.1-0.2-0.3c0-0.2,0-0.3-0.1-0.3
			c-0.1,0-0.2-0.2-0.2-0.6c0-0.4-0.1-0.6-0.2-0.6c-0.1-0.1-0.2-0.2-0.2-0.4c0-0.2,0-0.3-0.1-0.3c-0.1,0-0.2-0.2-0.2-0.5
			c0-0.3-0.1-0.6-0.3-0.7c-0.2-0.2-0.3-0.5-0.3-0.9c0-0.5,0-0.7-0.1-0.7s-0.2-0.3-0.2-0.8c-0.1-0.6-0.2-0.9-0.4-0.9
			c-0.2,0-0.4-0.1-0.5-0.3c-0.1-0.2-0.3-0.3-0.4-0.3c-0.2,0-0.3-0.1-0.4-0.3l-0.1-0.2l0,0.2c0,0.2-0.1,0.3-0.4,0.3
			c-0.3,0-0.4,0-0.4,0.1s-0.1,0.1-0.2,0.1c-0.1,0-0.2,0.1-0.3,0.2c-0.1,0.1-0.2,0.2-0.4,0.1c-0.3-0.1-0.4,0-0.4,0.1
			c0,0.1,0.1,0.3,0.3,0.4c0.2,0.2,0.4,0.3,0.5,0.3c0.3,0.1,0.4,0.7,0.4,1.8c0,0.6,0,1,0,1.4c0,0.3,0,0.7,0,1.1
			c0,0.6,0.1,0.9,0.2,1.1c0.1,0.1,0.1,0.2,0,0.2c-0.2,0-0.2,0.1-0.2,0.2c0,0.1,0,0.2-0.1,0.5c-0.1,0.8-0.2,1.3-0.2,1.5
			c0,0.2,0,0.3,0.1,0.3c0.1,0,0.1,0.1,0.1,0.2c0,0.1,0,0.2-0.1,0.2c-0.1,0-0.1,0.1-0.2,0.3c-0.1,0.2-0.3,0.3-0.6,0.4
			c-0.3,0.1-0.5,0.2-0.5,0.5c0,0.1,0,0.2,0.1,0.4c0,0.2,0.1,0.3,0.2,0.3c0.1,0,0.4,0,0.8,0c0.6,0,0.9,0,0.9-0.1s0.3-0.1,0.8-0.1
			c0.6,0,1-0.1,1-0.4c0-0.1,0-0.2,0-0.2c-0.1-0.2-0.3-0.3-0.6-0.3c-0.4,0-0.6-0.1-0.6-0.2c0-0.1-0.1-1.3-0.2-3.7c0-0.7,0-1.5,0-2.4
			c0-0.8,0.1-1.2,0.2-1.2c0.1,0,0.2,0.1,0.2,0.2c0,0.1,0.1,0.2,0.2,0.2c0.1,0,0.1,0.1,0.1,0.4c0,0.3,0,0.4,0.1,0.4
			c0.1,0,0.1,0.1,0.2,0.4c0.1,0.2,0.2,0.5,0.3,0.9c0.2,0.4,0.3,0.6,0.4,0.6c0,0,0.1,0.1,0.1,0.4c0.1,0.2,0.1,0.5,0.2,0.7
			c0.1,0.2,0.1,0.4,0.1,0.4c0.1,0,0.1,0.2,0.2,0.5c0.1,0.3,0.2,0.5,0.2,0.5s0.1,0.2,0.2,0.5c0,0.2,0.1,0.5,0.3,0.9
			c0.2,0.4,0.3,0.7,0.3,0.9c0,0.3,0.1,0.4,0.4,0.5h0.1c0.4,0,0.7-0.3,0.8-1c0.1-0.3,0.1-0.5,0.2-0.6c0.1-0.1,0.1-0.2,0.1-0.4
			c0-0.2,0.1-0.3,0.4-0.4c0.2-0.1,0.4-0.3,0.4-0.6c0-0.2,0.1-0.4,0.2-0.6c0.1-0.2,0.2-0.4,0.2-0.7c0-0.2,0-0.3,0-0.4
			c0-0.1,0.1-0.1,0.1,0c0.1,0,0.1,0,0.1,0c0,0,0-0.1,0-0.2c0-0.2,0.1-0.3,0.2-0.4c0.1-0.1,0.2-0.3,0.3-0.6c0.1-0.3,0.2-0.5,0.2-0.5
			c0.1,0,0.1-0.1,0.1-0.4c0-0.2,0.1-0.4,0.2-0.4c0.1-0.1,0.2-0.2,0.2-0.3c0-0.1,0.1-0.3,0.2-0.4s0.2-0.2,0.3-0.2
			c0.2,0,0.2,0.1,0.2,0.4c0,0.1,0,0.2,0,0.2c0,0.3-0.1,0.7-0.1,1.4v0.7c0,0.2,0,0.5,0,0.9c0,0.5,0,0.8-0.1,0.8
			c-0.1,0-0.2,0.5-0.2,1.4l0,1.4l-0.8,0.1c-0.5,0-0.7,0.1-0.8,0.3c0,0.1-0.1,0.2-0.1,0.2c0,0.2,0.2,0.3,0.6,0.3c0.3,0,0.5,0,0.5,0.1
			s0.7,0.1,2.2,0.1c0.9,0,1.3,0,1.3-0.1s0.1-0.1,0.2-0.1s0.2-0.1,0.2-0.4c0-0.3-0.1-0.5-0.3-0.6c-0.1,0-0.1,0-0.2,0
			c-0.1,0-0.1,0-0.2,0c-0.1,0-0.1,0-0.2,0c-0.1,0-0.2,0-0.2,0c-0.1,0-0.2-0.1-0.2-0.2c0-0.1-0.1-0.3-0.1-0.6c0-0.5,0.1-0.8,0.2-0.9
			c0.1,0,0.1-0.3,0.1-0.6c0-0.4,0-0.5-0.1-0.5c-0.1,0-0.2-0.1-0.2-0.4c0-0.3,0.1-0.5,0.2-0.6c0.1-0.1,0.1-0.1,0-0.2
			c-0.1-0.1-0.2-0.7-0.2-1.9c0-1.1,0.1-1.7,0.2-1.7c0.1,0,0.1-0.2,0.1-0.5c0-0.3,0.1-0.4,0.2-0.5c0.1-0.1,0.3-0.1,0.7-0.1
			c0.2,0,0.3,0,0.4-0.1c0-0.1,0.1-0.2,0.1-0.5c0-0.3-0.1-0.5-0.2-0.6C258.6,783.1,258.3,783.1,257.9,783.1z M250.5,789.9
			c-0.1,0-0.1,0-0.1-0.1c0-0.1,0-0.2,0.1-0.2c0.1,0,0.1,0.1,0.1,0.2C250.6,789.9,250.5,789.9,250.5,789.9z M256,787.1
			c-0.1,0-0.1-0.1-0.1-0.2c0-0.1,0.1-0.1,0.1-0.1c0.1,0,0.2,0.1,0.2,0.2C256.1,787.1,256.1,787.1,256,787.1z"/>
		<path d="M250,801.1c-0.1,0-0.2,0.1-0.2,0.2c0,0.1,0.1,0.2,0.2,0.2s0.2-0.1,0.2-0.2C250.2,801.2,250.1,801.1,250,801.1z"/>
		<path d="M278.5,785.2c0-0.3,0-0.5-0.1-0.5c-0.1,0-0.1-0.1-0.1-0.4c0-0.3-0.1-0.4-0.2-0.4c-0.2,0-0.3-0.1-0.4-0.4
			c-0.1-0.2-0.2-0.3-0.4-0.4c-0.1-0.1-0.2-0.2-0.2-0.4s-0.1-0.3-0.4-0.3c-0.7,0-1-0.1-1-0.4c0-0.1-0.1-0.2-0.2-0.2
			c-0.1,0-0.2-0.1-0.2-0.2c0-0.1-0.1-0.1-0.4-0.1c-0.2,0-0.3-0.1-0.4-0.2c-0.1-0.1-0.6-0.2-1.5-0.2c-1,0-1.6,0.1-1.7,0.2
			c-0.1,0.1-0.3,0.2-0.4,0.2c-0.2,0-0.3,0.1-0.4,0.4c-0.1,0.2-0.3,0.4-0.6,0.4c-0.4,0-0.8,0.1-1.2,0.2c-0.5,0.1-0.7,0.3-0.8,0.5
			c-0.1,0.3-0.3,0.5-0.5,0.8c-0.3,0.3-0.4,0.5-0.4,0.6c0,0.1-0.1,0.1-0.2,0.1c-0.1,0-0.2,0.1-0.3,0.4c-0.1,0.3-0.2,0.6-0.3,0.8
			c-0.2,0.3-0.2,0.9-0.2,1.9c0,1.3,0.1,2.3,0.4,3c0.2,0.6,0.4,1.2,0.7,1.6c0.3,0.5,0.5,0.7,0.6,0.7c0.1,0.1,0.2,0.2,0.3,0.4
			c0.1,0.2,0.2,0.3,0.4,0.3c0.3,0,0.4,0,0.4,0.1s0.1,0.1,0.3,0.1c0.2,0,0.3,0.1,0.3,0.4c0,0.3,0.1,0.4,0.2,0.4
			c0.1,0,0.2-0.1,0.3-0.2c0.1-0.1,0.2-0.1,0.4,0c0.2,0.1,0.9,0.2,2.3,0.2c1.2,0,1.8-0.1,1.8-0.2c0-0.1,0.3-0.2,0.8-0.2
			s0.7-0.1,0.7-0.2c0-0.1,0.1-0.2,0.2-0.3c0.2-0.1,0.4-0.2,0.5-0.4c0.2-0.2,0.4-0.3,0.5-0.3c0.1,0,0.2-0.1,0.3-0.3
			c0.1-0.2,0.2-0.4,0.3-0.4c0.1,0,0.2-0.1,0.3-0.3c0.1-0.2,0.2-0.3,0.4-0.4c0.2-0.1,0.3-0.1,0.3-0.2c0-0.1,0.1-0.2,0.2-0.2
			s0.2-0.2,0.2-0.7c0-0.3,0-0.5-0.1-0.5c-0.1-0.1-0.1-0.2,0-0.3c0.1-0.1,0.2-0.9,0.2-2.2c0-0.4,0-0.8,0-1.3c0-0.5-0.1-0.7-0.2-0.8
			C278.6,785.7,278.5,785.5,278.5,785.2z M276.5,789c-0.1,0.1-0.2,0.2-0.2,0.5c0,0.3-0.1,0.4-0.2,0.5c-0.1,0.1-0.2,0.4-0.3,0.8
			c-0.1,0.4-0.1,0.6-0.3,0.6c-0.1,0-0.2,0-0.2,0.1c0,0.1-0.1,0.1-0.4,0.2c-0.3,0.1-0.4,0.2-0.4,0.3c0,0.1-0.1,0.2-0.4,0.4
			c-0.2,0.1-0.4,0.2-0.4,0.3c-0.1,0.1-0.2,0.2-0.4,0.2c-0.2,0-0.4,0.1-0.5,0.2c-0.1,0.1-0.2,0.1-0.3,0.1c-0.2,0-0.5,0-0.8-0.1
			c-0.6-0.1-1-0.3-1.4-0.7c-0.4-0.3-0.7-0.8-1.1-1.6c-0.3-0.6-0.4-1-0.5-1.2c-0.1-0.2-0.1-0.7-0.1-1.5c0-0.7,0-1.2,0.1-1.4
			c0-0.2,0.2-0.5,0.3-0.9c0.3-0.5,0.6-1,1.1-1.4c0.4-0.4,0.8-0.7,1.1-0.7c0.3-0.1,0.5-0.2,0.5-0.3c0-0.1,0.1-0.2,0.2-0.2
			c0.1,0,0.2,0,0.2-0.1c0-0.1,0.1-0.2,0.3-0.2c0.2,0,0.3,0.1,0.4,0.2c0.1,0.1,0.4,0.1,0.9,0.1c0.5,0,0.8,0.1,0.8,0.2
			c0,0.1,0.1,0.2,0.3,0.3c0.2,0.1,0.3,0.2,0.3,0.3c0,0.1,0.1,0.2,0.3,0.3c0.2,0.1,0.4,0.2,0.4,0.3c0.1,0.1,0.1,0.3,0.1,0.5
			c0,0.3,0.1,0.6,0.3,0.9c0.2,0.3,0.3,0.7,0.3,1.2c0,0.5,0,0.8,0.1,0.8c0.1,0.1,0.1,0.2,0.1,0.4C276.7,788.7,276.6,788.9,276.5,789z
			"/>
		<path d="M280.3,791.9c-0.4,0-0.7,0-0.7,0.1c0,0-0.1,0.1-0.1,0.1c0,0.2,0.3,0.2,0.8,0.2c0.4,0,0.6-0.1,0.6-0.2
			C280.9,792,280.7,791.9,280.3,791.9z"/>
		<path d="M302.3,791.9c-0.4,0-0.7,0-0.7,0.1c0,0-0.1,0.1-0.1,0.1c0,0.2,0.3,0.2,0.8,0.2c0.4,0,0.6-0.1,0.6-0.2
			C302.9,792,302.7,791.9,302.3,791.9z"/>
		<path d="M300.5,785.2c0-0.3,0-0.5-0.1-0.5c-0.1,0-0.1-0.1-0.1-0.4c0-0.3-0.1-0.4-0.2-0.4c-0.2,0-0.3-0.1-0.4-0.4
			c-0.1-0.2-0.2-0.3-0.4-0.4c-0.1-0.1-0.2-0.2-0.2-0.4s-0.1-0.3-0.4-0.3c-0.7,0-1-0.1-1-0.4c0-0.1-0.1-0.2-0.2-0.2
			c-0.1,0-0.2-0.1-0.2-0.2c0-0.1-0.1-0.1-0.4-0.1c-0.2,0-0.3-0.1-0.4-0.2c-0.1-0.1-0.6-0.2-1.5-0.2c-1,0-1.6,0.1-1.7,0.2
			c-0.1,0.1-0.3,0.2-0.4,0.2c-0.2,0-0.3,0.1-0.4,0.4c-0.1,0.2-0.3,0.4-0.6,0.4c-0.4,0-0.8,0.1-1.2,0.2c-0.5,0.1-0.7,0.3-0.8,0.5
			c-0.1,0.3-0.3,0.5-0.5,0.8c-0.3,0.3-0.4,0.5-0.4,0.6c0,0.1-0.1,0.1-0.2,0.1c-0.1,0-0.2,0.1-0.3,0.4c-0.1,0.3-0.2,0.6-0.3,0.8
			c-0.2,0.3-0.2,0.9-0.2,1.9c0,1.3,0.1,2.3,0.4,3c0.2,0.6,0.4,1.2,0.7,1.6c0.3,0.5,0.5,0.7,0.6,0.7c0.1,0.1,0.2,0.2,0.3,0.4
			c0.1,0.2,0.2,0.3,0.4,0.3c0.3,0,0.4,0,0.4,0.1s0.1,0.1,0.3,0.1c0.2,0,0.3,0.1,0.3,0.4c0,0.3,0.1,0.4,0.2,0.4
			c0.1,0,0.2-0.1,0.3-0.2c0.1-0.1,0.2-0.1,0.4,0c0.2,0.1,0.9,0.2,2.3,0.2c1.2,0,1.8-0.1,1.8-0.2c0-0.1,0.3-0.2,0.8-0.2
			c0.5,0,0.7-0.1,0.7-0.2c0-0.1,0.1-0.2,0.2-0.3c0.2-0.1,0.4-0.2,0.5-0.4c0.2-0.2,0.4-0.3,0.5-0.3c0.1,0,0.2-0.1,0.3-0.3
			c0.1-0.2,0.2-0.4,0.3-0.4c0.1,0,0.2-0.1,0.3-0.3c0.1-0.2,0.2-0.3,0.4-0.4c0.2-0.1,0.3-0.1,0.3-0.2c0-0.1,0.1-0.2,0.2-0.2
			c0.1,0,0.2-0.2,0.2-0.7c0-0.3,0-0.5-0.1-0.5c-0.1-0.1-0.1-0.2,0-0.3c0.1-0.1,0.2-0.9,0.2-2.2c0-0.4,0-0.8,0-1.3
			c0-0.5-0.1-0.7-0.2-0.8C300.6,785.7,300.5,785.5,300.5,785.2z M298.4,789c-0.1,0.1-0.2,0.2-0.2,0.5c0,0.3-0.1,0.4-0.2,0.5
			c-0.1,0.1-0.2,0.4-0.3,0.8c-0.1,0.4-0.1,0.6-0.3,0.6c-0.1,0-0.2,0-0.2,0.1c0,0.1-0.1,0.1-0.4,0.2c-0.3,0.1-0.4,0.2-0.4,0.3
			c0,0.1-0.1,0.2-0.4,0.4c-0.2,0.1-0.4,0.2-0.4,0.3c-0.1,0.1-0.2,0.2-0.4,0.2c-0.2,0-0.4,0.1-0.5,0.2c-0.1,0.1-0.2,0.1-0.3,0.1
			c-0.2,0-0.5,0-0.8-0.1c-0.6-0.1-1-0.3-1.4-0.7c-0.4-0.3-0.7-0.8-1.1-1.6c-0.3-0.6-0.4-1-0.5-1.2c-0.1-0.2-0.1-0.7-0.1-1.5
			c0-0.7,0-1.2,0.1-1.4c0-0.2,0.2-0.5,0.3-0.9c0.3-0.5,0.6-1,1.1-1.4c0.4-0.4,0.8-0.7,1.1-0.7c0.3-0.1,0.5-0.2,0.5-0.3
			c0-0.1,0.1-0.2,0.2-0.2c0.1,0,0.2,0,0.2-0.1c0-0.1,0.1-0.2,0.3-0.2c0.2,0,0.3,0.1,0.4,0.2c0.1,0.1,0.4,0.1,0.9,0.1
			c0.5,0,0.8,0.1,0.8,0.2c0,0.1,0.1,0.2,0.3,0.3c0.2,0.1,0.3,0.2,0.3,0.3c0,0.1,0.1,0.2,0.3,0.3c0.2,0.1,0.4,0.2,0.4,0.3
			c0.1,0.1,0.1,0.3,0.1,0.5c0,0.3,0.1,0.6,0.3,0.9c0.2,0.3,0.3,0.7,0.3,1.2c0,0.5,0,0.8,0.1,0.8c0.1,0.1,0.1,0.2,0.1,0.4
			C298.7,788.7,298.6,788.9,298.4,789z"/>
		<path d="M322.9,781.6c-0.1,0-0.2,0-0.3,0.1c-0.2,0.1-0.3,0.1-0.3,0.1c-0.1,0-0.1-0.1-0.2-0.2c-0.1-0.2-0.3-0.3-0.4-0.3
			c-0.1,0-0.2-0.1-0.2-0.3c0-0.2-0.1-0.3-0.3-0.3c-0.2,0-0.3,0.1-0.3,0.3c0,0.2,0.1,0.3,0.2,0.3s0.2,0.1,0.2,0.3
			c0,0.2-0.1,0.3-0.2,0.3c-0.2,0-0.3-0.1-0.3-0.4c-0.1-0.2-0.2-0.4-0.3-0.4c-0.1,0-0.1,0-0.2,0.1c-0.2,0.2-0.2,0.3,0,0.3
			c0.1,0,0.2,0.1,0.2,0.1c0,0.1-0.1,0.2-0.4,0.2c-0.2,0-0.4,0-0.4-0.1s-0.1-0.1-0.4-0.1c-0.4,0-0.8,0.1-1.1,0.2
			c-0.4,0.2-0.6,0.4-0.6,0.7c0,0.3,0.3,0.5,0.8,0.6c0.4,0.1,0.6,0.1,0.6,0.2c0,0.1,0.1,0.1,0.3,0.1c0.3,0,0.5,0.2,0.6,0.6
			c0.1,0.4,0.2,1.2,0.2,2.4c0,1.4,0.1,2.2,0.1,2.4c0.1,0.1,0,0.3,0,0.6l-0.1,0.4l-0.5-0.5c-0.4-0.3-0.5-0.5-0.5-0.6
			c0-0.1-0.1-0.2-0.2-0.3c-0.1-0.1-0.3-0.2-0.4-0.4c-0.2-0.1-0.3-0.2-0.3-0.2c-0.1-0.1-0.3-0.2-0.3-0.2c-0.1,0-0.2-0.1-0.2-0.2
			c0-0.1-0.1-0.2-0.2-0.3c-0.1-0.1-0.3-0.2-0.4-0.2s-0.1-0.1-0.1-0.2c0-0.1-0.1-0.2-0.2-0.2c-0.1,0-0.1,0-0.1-0.1
			c0-0.1-0.1-0.2-0.4-0.5c-0.2-0.3-0.4-0.4-0.4-0.5c0-0.1-0.1-0.2-0.3-0.2c-0.2,0-0.3-0.1-0.5-0.2c-0.2-0.1-0.2-0.3-0.2-0.4
			c0-0.1-0.2-0.3-0.5-0.7c-0.3-0.4-0.5-0.6-0.5-0.7c0-0.1-0.1-0.2-0.3-0.4c-0.2-0.2-0.3-0.4-0.3-0.4c0-0.3-0.6-0.5-1.8-0.6
			c-0.6,0-0.9-0.1-0.9-0.1c-0.3,0-0.4,0.1-0.4,0.2c0,0.1,0,0.2,0,0.4c0,0.2,0,0.4,0.1,0.6c0.1,0.2,0.1,0.3,0.2,0.3
			c0.1,0,0.2,0.2,0.3,0.6c0.1,0.4,0.2,0.6,0.2,0.6c0.1,0,0.1,0.3,0.1,0.8c0,0.5,0,0.8-0.1,0.8c-0.1,0-0.1,0.1-0.1,0.4
			c0,0.2,0.1,0.6,0.2,1c0.1,0.2,0.1,0.6,0.1,1.1c0,0.7-0.1,1.1-0.2,1.1c-0.1,0-0.1,0.2-0.1,0.7c0,0.5,0,1.1-0.1,1.5
			c0,0.4-0.1,0.6-0.1,0.7c-0.1,0.1-0.2,0.2-0.4,0.2c-0.3,0.1-0.4,0.2-0.4,0.4c0,0.2,0.1,0.4,0.4,0.6c0.2,0.2,0.3,0.3,0.5,0.3
			c0.2,0,0.8,0,1.7,0c1,0,1.6,0,1.8-0.1c0.2-0.1,0.3-0.3,0.3-0.8c0-0.3-0.1-0.4-0.3-0.5c-0.2-0.1-0.3-0.1-0.3-0.2
			c0-0.1-0.2-0.1-0.6-0.1c-0.4,0-0.7-0.1-0.9-0.3c-0.2-0.2-0.2-0.3-0.1-0.4c0.1-0.1,0.2-0.2,0.2-0.6c0-0.3,0-0.5-0.1-0.5
			c-0.1-0.1-0.1-0.9-0.1-2.6s0.1-2.5,0.2-2.5c0.1,0,0.3,0.1,0.4,0.2c0.1,0.1,0.3,0.2,0.5,0.3c0.3,0.1,0.4,0.3,0.5,0.4
			c0,0.2,0.3,0.5,0.8,1.1c0.5,0.5,0.9,0.9,1.3,1.1c0.2,0.1,0.3,0.2,0.3,0.3c0,0.1,0.2,0.2,0.5,0.6c0.7,0.7,1.1,1.1,1.1,1.4
			c0,0.1,0.1,0.1,0.3,0.1c0.2,0,0.3,0,0.3,0.1c0,0.1,0.1,0.3,0.4,0.5c0.2,0.2,0.4,0.4,0.4,0.6c0,0.1,0.1,0.3,0.3,0.5
			c0.2,0.2,0.3,0.3,0.4,0.3c0.1,0,0.3,0.2,0.6,0.5c0.3,0.3,0.5,0.5,0.7,0.6c0.1,0.1,0.2,0.1,0.3,0.1c0.4,0,0.6-0.2,0.6-0.6
			c0-0.1,0-0.2,0-0.4c0-0.9-0.1-1.4-0.2-1.6c-0.1-0.1-0.1-0.5-0.1-1.3v-0.4c0-1,0-1.6-0.1-1.6c-0.1-0.1-0.2-0.4-0.2-1
			c0-0.5,0-0.8,0.1-0.8c0.1-0.1,0.2-0.2,0.2-0.5c0-0.3,0-0.4,0.1-0.4c0.1,0,0.1-0.1,0.1-0.4c0-0.3,0-0.4-0.1-0.4
			c-0.1,0-0.1-0.1-0.1-0.4c0-0.4,0.1-0.7,0.2-1c0.2-0.3,0.4-0.5,0.7-0.5c0.2,0,0.4-0.1,0.4-0.1c0.1,0,0.1-0.2,0.1-0.5v-0.2
			C323.2,781.8,323.1,781.6,322.9,781.6z"/>
	</g>
	<g>
		<g>
			<path d="M399.4,383.3c-3.6-3.6-3.4-23.8-6-23.8s-1.7,19.4-6,23.8c-4.3,4.3-18.1,2.5-18.1,5.3c0,2.8,14,1.1,18.1,5.3
				c4.2,4.2,3.4,23.8,6,23.8s2.1-19.9,6-23.8s18.1-3,18.1-5.3C417.5,386.3,403,386.9,399.4,383.3z"/>
		</g>
		<g>
			<path d="M364,445.9c-3,3-12.6,1.7-12.6,3.7s9.7,0.7,12.6,3.7s2.4,16.5,4.2,16.5c1.8,0,1.5-13.8,4.2-16.5
				c2.7-2.7,12.6-2.1,12.6-3.7c0-1.6-10.1-1.2-12.6-3.7s-2.4-16.5-4.2-16.5C366.4,429.4,367,442.9,364,445.9z"/>
		</g>
		<g>
			<path d="M128,227c3.2,3.2,2.6,17.9,4.5,17.9c1.9,0,1.6-15,4.5-17.9s13.7-2.2,13.7-4s-11-1.3-13.7-4c-2.7-2.7-2.6-17.9-4.5-17.9
				c-1.9,0-1.3,14.7-4.5,17.9c-3.3,3.3-13.7,1.9-13.7,4C114.4,225.2,124.9,223.9,128,227z"/>
		</g>
		<g>
			<path d="M105.1,532.8c-2.7-2.7-2.6-18.1-4.6-18.1s-1.3,14.8-4.6,18.1c-3.3,3.3-13.8,1.9-13.8,4s10.6,0.8,13.8,4
				c3.2,3.2,2.6,18.1,4.6,18.1c1.9,0,1.6-15.2,4.6-18.1c2.9-2.9,13.8-2.3,13.8-4S107.9,535.5,105.1,532.8z"/>
		</g>
		<g>
			<path d="M329.1,423.9c1.7,1.7,1.4,9.4,2.4,9.4c1,0,0.8-7.9,2.4-9.4c1.5-1.5,7.2-1.2,7.2-2.1s-5.8-0.7-7.2-2.1s-1.4-9.4-2.4-9.4
				c-1,0-0.7,7.7-2.4,9.4c-1.7,1.7-7.2,1-7.2,2.1C321.9,422.9,327.4,422.2,329.1,423.9z"/>
		</g>
		<g>
			<path d="M105.1,251.1c1.7,1.7,1.4,9.4,2.4,9.4c1,0,0.8-7.9,2.4-9.4c1.5-1.5,7.2-1.2,7.2-2.1s-5.8-0.7-7.2-2.1
				c-1.4-1.4-1.4-9.4-2.4-9.4c-1,0-0.7,7.7-2.4,9.4c-1.7,1.7-7.2,1-7.2,2.1C97.9,250.1,103.5,249.4,105.1,251.1z"/>
		</g>
		<g>
			<path d="M182.2,574.9c0-1-6.3-0.7-7.8-2.3c-1.6-1.6-1.5-10.2-2.6-10.2c-1.1,0-0.7,8.4-2.6,10.2c-1.9,1.9-7.8,1.1-7.8,2.3
				c0,1.2,6,0.5,7.8,2.3s1.5,10.2,2.6,10.2c1.1,0,0.9-8.6,2.6-10.2C176.1,575.5,182.2,575.9,182.2,574.9z"/>
		</g>
		<g>
			<polygon points="365.2,241.3 349,260.6 369.3,246.1 372.2,287.3 375.1,246.3 393.4,262.4 379.5,241.3 421.8,235.6 380.6,233.7 
				393.4,212.5 375.7,228.8 372,187.6 370.1,228.8 350.9,212.5 364.8,233.7 324.1,239.4 			"/>
		</g>
		<g>
			<path d="M369.4,512.4c15.4-6.8,30.2-15.1,43.3-25.4c-16.3,5-33.7,7.8-51.8,8.1c-12.1,0.2-24.2-1.9-35.9-4.4
				c-6-1.3-12-2.7-17.9-4.4c-2.8-0.8-6-2.8-8.6-2.4c0.7-5.4-0.4-11.2-0.5-16.8c-0.1-4.7,0.3-9.3-0.4-14c-0.6-4.2-2.3-7.6-5-11
				c-5.5-6.9-13.7-12.8-22.2-15.4c-3.7-1.1-7.3-1.1-10.6,1c-2.9,1.8-5.1,4.5-8.3,5.9c-4-5.1-8.8-9.7-13.7-14.1
				c-0.9-0.8-1.9-0.8-2.9-0.4c-4.4,1.9-8.7,4.3-12.7,7.2c-1.4-1-3-1.9-4.6-2.7c-2.2-3.2-4.5-8.3-5.5-10.4c-1.4-2.8-2.7-5.7-3.9-8.6
				c-2.4-5.7-4.4-11.5-6.1-17.5c-3.5-12.4-5.4-25.3-5.6-38.2c-1.3-69.5,44.3-129,107.7-148.1c-5.7-0.5-11.5-0.7-17.4-0.6
				c-90.6,1.7-162.7,76.6-160.9,167.3c0.3,13,2,26,5.3,38.6c2,7.5,4.1,15,7.1,22.2c1.7,4.2,5.3,11.4,7.1,15.1
				c-1.6,0.9-2.9,2.1-3.8,3.7c-1.5,2.7-1.7,6.1-2,9.1c-0.4,4.1-1.6,7.9-2.2,11.9c-1,6.6,0.7,11.8,3.6,17.5c1.8,3.6,4.2,8.6,7.6,11.6
				c-0.6,0.6-1.1,1.2-1.7,1.9c-4.1,4.5-11.5,9.4-10.2,16.4c0.6,3.4,3.4,5.4,6,7.2c3.1,2.1,6.2,4.6,9.5,6.3c7.5,3.7,16,3.3,24.2,3.4
				c-0.2,0.4-0.2,0.9-0.1,1.4c1.8,7,8.8,11.5,14.7,14.8c7.9,4.4,16.5,2.9,25.1,3.2c4.7,0.1,9.4,0.1,14.1,0.1
				c-8.8,2.1-16.8,6.5-23.1,13.9c-8,9.4-12.6,21.5-14.6,33.6c-0.5,2.7-0.9,5.4-1,8.1c0,0.3-0.1,0.5,0,0.7c0.1,1.3,1.3,2,2.5,2.1
				c0,0,0.1,0,0.1,0c0.1,0,0.3,0,0.4,0c0,0,0,0,0,0c0,0,0.1,0,0.1,0c3.2-0.6,6.4-1.4,9.5-2.3c0.2,0.2,0.4,0.3,0.7,0.5
				c0.3,0.1,0.6,0.2,0.8,0.2c0.8,0,1.6-0.5,1.9-1.3l0-0.1c0.1-0.1,0.1-0.3,0.1-0.4c11.5-4,22.1-10.3,30.4-19.3
				c3.8-4.1,7.2-8.7,10-13.7c-0.3,2.3-0.5,4.5-0.8,6.8c-0.2,1.4-0.3,2.7-0.5,4.1c-10.9,14.2-17.7,31.1-17.2,49.2
				c0.3,12.1,3.6,24.1,9.2,34.9c1.1,2.2,2.4,4.4,3.8,6.4c1.1,1.6,3,1.5,4.2,0c11.2-14.5,17.7-31.9,17.2-50.3
				c-0.3-12.1-3.3-24.1-8.5-35.1c-1-2.2-2.1-4.4-3.5-6.4c0-0.1-0.1-0.1-0.2-0.2c0.9-7.4,1.9-14.7,3-22.1c0.4-2.5,0.8-4.9,1.3-7.3
				c0.5,13.7,5.3,27.7,12.4,38.9c5.3,8.4,12.1,15.7,19.8,21.9c1.5,1.2,3.4,0.7,4-1.1c7-18.6,5.8-42.5-7.2-58.1
				c-6.2-7.5-14.7-12.5-23.8-15.9c0.5-1.1,1-2.2,1.5-3.3c4.5-2.4,9-5.2,11.1-9.9c4.1,8.5,9.7,16.1,14.4,24.2
				c4.9,8.4,9,17.2,14.4,25.4c1,1.5,2.1,3,3.2,4.5c-1.2,17,6.1,32,19.9,42c11,7.9,24.5,12.4,37.7,14.8c3.1,0.6,6.2,1.1,9.3,1.3
				c1.5,0.1,2.8-1.6,2.3-3.1c-9.8-27.5-29.6-56.1-61-59.1c-1.7-0.2-3.6-0.3-5.3-0.1c-0.3-0.4-0.5-0.8-0.8-1.1
				c-5.4-7.8-9.5-16-14-24.3c-2-3.7-4.2-7.2-6.4-10.7c0.9,0.9,1.9,1.7,2.8,2.4c10.4,8.6,23.7,12.5,37,13.8c12.8,1.3,25.7,0,38.3-2.2
				c2-0.3,2.1-2.8,1.1-4c-4.9-5.9-11-11.1-17.2-15.7c-4.7-3.5-9.8-6.6-15.2-9.1c3.5-0.7,7.1-2.3,10.5-3.3
				C353.2,519.1,361.4,515.9,369.4,512.4z M323.2,582.8c12.5,3.7,23,12.1,30.9,22.3c5.9,7.6,10.5,16.2,14.1,25.1
				c-15.2-10-29.7-21-42.4-34c-4.8-4.9-9.2-10-13.4-15.4C316.1,580.9,319.7,581.7,323.2,582.8z M342.1,617.3
				c6.4,5.1,13.1,9.9,19.8,14.5c-3.8-0.8-7.5-1.8-11.2-3c-13.2-4.1-26.7-11.2-34.2-23.2c-3.7-5.9-5.5-12.5-5.8-19.3
				C319.9,597.8,330.6,608.1,342.1,617.3z M297.2,520.2c0,0.1,0.1,0.2,0.1,0.3c-0.1,0-0.2,0.1-0.4,0.1
				C297,520.5,297.1,520.3,297.2,520.2z M294.8,492.8C294.8,492.8,294.8,492.7,294.8,492.8c0.1,0.2,0.2,0.4,0.2,0.6
				C294.9,493.2,294.8,493,294.8,492.8C294.7,492.8,294.8,492.8,294.8,492.8z M260.1,433.5c2.7-2.2,4.9-3.3,8.4-2.4
				c7.5,2,14.6,7.2,19.6,13c2.5,2.9,4.2,5.9,4.8,9.7c0.6,4.1,0.2,8.2,0.3,12.3c0,7,3,15.9-1.1,22.2c-0.7-1.1-1.4-2.2-2.2-3.2
				c-5.8-8.2-13.7-16.6-22.6-21.5c-0.1-0.1-0.3-0.1-0.4-0.2c0.8-2.5,1.5-5,2.2-7.5c0.3-1.1-0.4-2.8-1.7-3c-2-0.3-4-0.2-6,0.1
				c0-0.2,0-0.4-0.1-0.6c-1.4-5.6-3.8-10.6-6.8-15.1C256.5,436.5,258.3,435.1,260.1,433.5z M218.2,490.2c-1.3-3.7,0.9-9.5,1.9-13.2
				c1.3-4.8,3-10.3,7.1-13.4c2.5,2.7,4.7,5.8,6.4,9.3c0.2,0.3,0.4,0.6,0.6,0.8c-5.3,6.3-10.5,13.4-14.1,21c-0.6-1.1-1.2-2.3-1.9-3.4
				C218.3,491,218.3,490.6,218.2,490.2z M218.1,467.9c-5.8-4.3-13.3-6.9-20.2-8.5c-7.2-1.7-7.9,8-9.8,12.8
				c-3.4-0.4-6.9-0.3-10.4-0.1c-1.2-7.8,2.6-16.3,5-23.6c0.5-1.5,1-3.4,2.1-4.7c0.8-1,1.1-0.7,2.6-0.3c2.9,0.8,5.6,2.1,8.5,3
				c9.9,3.2,20,7.2,27.9,13.8C221.2,462.3,219.4,465,218.1,467.9z M216.3,472.5c-0.3,0.9-0.5,1.7-0.8,2.6c-0.7,2.7-1.8,6.1-2.4,9.4
				c-4.4-4.8-9.8-8.6-16.5-10.6c-1.3-0.4-2.5-0.7-3.8-1c0.8-2.1,1.4-4.2,2.1-6.4c0.9-2.7,0.9-2.8,3.4-1.9c6.1,2,12.6,3.7,17.6,7.9
				C216.2,472.5,216.2,472.5,216.3,472.5z M194.1,478.1c11.5,3.1,19.2,11.9,23.6,22.6c-0.1,0.4-0.2,0.7-0.4,1.1
				c-10.2,0.5-20.5-3.7-29.4-8.2c-8.2-4.1-16.1-9.1-23.6-14.5C174.1,476.8,184.4,475.5,194.1,478.1z M187.1,498.6
				c9.8,4.7,21,9.1,32.1,8c0.5-0.1,1.1-0.2,1.5-0.5c3.2,2.4,7.7,2.1,11.5,1.1c5.8-1.5,11.4-4.4,16.1-8.1
				c-3.8,14.4-14.6,27.6-30.5,27.7c-16.4,0.1-26.7-13.8-30.9-28.3C187,498.5,187.1,498.6,187.1,498.6z M246.8,494
				c-3.2,3.3-7.9,5.6-12.1,7.3c-2.6,1-9.4,3.7-11.6,0.6c0,0,0,0,0,0c0-0.3,0-0.5-0.2-0.8c0-0.1-0.1-0.2-0.1-0.3
				c3.5-9.3,10.1-18.1,16.4-25.5c4-4.7,8.4-9.2,13.5-12.8c3.1-2.1,6.9-4.4,10.8-4.8c-1.8,6.5-4.1,12.9-6.9,19
				C254.2,482.5,251.3,489.4,246.8,494z M235.7,424.1c9.2,8.3,17.9,17.4,21,29.9c0.1,0.2,0.1,0.4,0.2,0.6c-7.6,3-14.3,9.7-19.4,15.4
				c-5.7-11.2-16.2-18.6-27.5-23.5c0,0,0,0,0,0C215.7,436.3,225.3,428.9,235.7,424.1z M180.7,427.5c3.5-3.5,10-3.9,14.7-4.8
				c2.9-0.5,5.9-0.8,8.8,0.1c1.7,0.6,3.4,1.4,5.1,2.1c2.9,1.3,6.1,2.7,8.9,4.4c-4.9,4.1-9.2,9-12.4,14.5c-0.1,0.2-0.2,0.5-0.3,0.7
				c-0.4-0.2-0.8-0.3-1.2-0.5c-2.8-1-5.8-1.8-8.6-2.8c-2.7-1-5.4-2.2-8.3-2.8c-4.2-0.9-6.5,1.7-8.1,5.1c-2.5-0.7-5.1-1.4-7.6-2.1
				C173.8,436.4,176.9,431.3,180.7,427.5z M167.8,438.4c-0.3,0.7-0.6,1.4-0.9,2.2c0,0-0.1,0-0.1,0c-0.7-0.1-1.5-0.2-2.2-0.2
				C165.8,439.7,166.9,439,167.8,438.4z M148.3,488.9c-1.7-2.7-3.1-5.4-4.4-8.3c-1.2-2.7-2.1-5.2-2.1-8.2c0-4.5,1.8-8.6,2.3-13.1
				c0.4-3.1-0.1-7.8,1.9-10.4c1.8-2.4,5.8-3,8.5-3.4c3.1-0.5,6.3-0.6,9.5-0.5c4.7,0.2,9.2,1.8,13.7,3.1c-0.1,0.2-0.1,0.4-0.2,0.6
				c-2.4,7.7-5.5,15.6-4.6,23.8c-5,0.7-10,1.9-14.7,3.2c-2.2,0.6-2.2,3.2-0.6,4.4c1.7,1.3,3.5,2.6,5.3,3.9c-4.2,2.5-7.8,6-11.3,9.7
				C150.3,492.5,149.1,490.2,148.3,488.9z M160,526.6c-4.6-1-7.8-3.3-11.6-5.9c-2.6-1.8-7.9-3.9-6.9-7.8c1-3.6,4.7-6.3,7.2-8.7
				c6-5.9,11.1-13.1,18.7-17c4.5,3,9.1,5.8,13.8,8.4c0,0,0,0,0,0.1c2.5,12.2,8.8,24.4,19.4,31.1c-2.5,1.4-5.7,1.8-8.6,1.8
				c-5,0.1-10-0.9-15-0.9C171.3,527.5,165.6,527.8,160,526.6z M223.5,559c7.2-3.5,15.3-4.4,23.2-3.8c-8.3,5.1-16.7,10.1-24.7,15.6
				c-4.1,2.8-7.4,6.5-10.7,10.3c-4.7,5.5-9.6,11.1-14,17.1C200.3,582.4,208.9,566.1,223.5,559z M221.2,595
				c-6.9,4.3-14.4,7.2-22.2,9.2c4.7-6.9,10.4-13.5,15.8-19.7c3.2-3.7,6.5-7.4,10.6-10.1c7.9-5.2,15.9-10.1,24-15
				C244.9,573.9,233.8,587.1,221.2,595z M242.5,640.9c-0.3,5.5-0.6,11.1-0.9,16.6c-0.1,1.8-0.3,3.7-0.4,5.6
				c-7-14.7-8.6-32.6-4.7-47.9c1.9-7.5,5.2-14.5,9.3-21C244.3,609.8,243.4,625.4,242.5,640.9z M257,643.8
				c-2.1,8.4-5.8,16.2-10.5,23.3c-0.6-1.9-0.4-3.7-0.2-6c0.2-3.2,0.4-6.3,0.5-9.5c0.3-5.9,0.6-11.9,1-17.8
				c0.7-12.1,1.5-24.2,2.5-36.2c0.2-2.2,0.4-4.3,0.6-6.5C259.2,606.9,261.3,626.9,257,643.8z M251.8,550.9c-2.5-0.3-5-0.5-7.5-0.5
				c2-1.6,3.8-3.9,5.3-5.5c2-2.1,4-3.7,6.3-5.2C254.4,543.3,252.9,547.1,251.8,550.9z M289.8,574.5c2.5,9.5,2.2,19.7,0.1,29.3
				c-0.9-4.7-0.9-9.5-2.2-14.2c-1.7-5.7-4-11.1-6.6-16.4c-4.5-9.2-8.9-18.6-15.1-26.7C277.4,552.3,286.4,561.6,289.8,574.5z
				 M277,575.7c2.5,5.1,4.7,10.3,6.2,15.7c1.3,4.5,1.2,9.3,2.1,13.8c-15.4-15-24.9-35.2-24.1-57C267.9,556.4,272.3,566.3,277,575.7z
				 M261,531.8c-0.7-0.1-1.4,0.2-1.9,0.9c-2.4,1.1-4.8,2.2-6.6,3.4c-3.7,2.3-6.4,5.6-9.5,8.6c-1,1-2,2.4-3.4,2.7
				c-1.8,0.4-4.3-0.3-6.1-0.3c-5.8-0.1-11.7,0.1-17.5-0.1c-4.6-0.1-9.2,0.3-13.8,0c-4.9-0.4-8.9-2.3-12.9-5
				c-3.5-2.3-7.3-5.2-8.4-9.4c0,0,0,0,0,0c0,0,0,0,0,0c7.7,0.3,18.3,2.8,24.4-3.3c0.3,0.1,0.7,0.3,1.1,0.4c11.9,4.5,24.5,1,33.5-7
				c8.2,4.4,17.4,4.1,26.4,3c0.9-0.1,1.7-0.2,2.6-0.3C267.3,528.2,264.3,530.1,261,531.8z M273.5,520.1c-10,0.7-20.5,3.4-29.9-1.1
				c0.6-0.7,1.3-1.5,1.9-2.3c5.3-7.2,8.2-15.8,9-24.7c2.1-3.4,3.8-7.1,5.4-10.5c2.1-4.3,3.9-8.8,5.5-13.3c4.6,2.6,8.4,6.3,12.1,10
				c3.4,3.5,6.6,7,9.4,11.1c4.7,6.9,9.3,15.2,7.9,23.9c-0.5,3.2-2.1,6.5-5.6,7.2c-2.6,0.5-5.3,0-7.9-0.2
				C278.6,519.9,276.1,519.9,273.5,520.1z M281.6,527.3c-0.5,0.3-0.8,0.7-1,1.1c-0.7-1.2-1.3-2.4-1.9-3.6c1,0,2,0.1,3,0.2
				c1.1,0.1,2.3,0.2,3.4,0.3C284,525.9,282.8,526.6,281.6,527.3z M308.4,547c-6.5-2.4-13.1-6.3-18-11.3c4.6,0.4,9.2,0.8,13.7,1.6
				c6.3,1.2,12.5,3,18.8,4.2c11.2,2.1,22.2,5.7,33.2,9C340.2,552.7,323.5,552.6,308.4,547z M355.5,545.3
				c-10.7-3.2-21.4-6.5-32.3-8.6c-6.3-1.2-12.5-3.1-18.9-4.2c-5.9-1.1-12-1.4-18-1.9c-0.1-0.1-0.1-0.2-0.2-0.3
				c13.4-7.6,28.4-8.1,42.7-2.4C338.7,531.8,347.6,538.1,355.5,545.3z"/>
		</g>
		<g>
			<path d="M293.9,371.4c5,0,9.1-3,9.1-12.4c0-9.4-9.1-73.7-9.1-73.7s-9.1,64.3-9.1,73.7C284.8,368.4,288.9,371.4,293.9,371.4z"/>
		</g>
		<g>
			<path d="M175,640.8c-0.1,0-0.2,0-0.2,0c-1.2-0.1-2.2,0.8-2.2,2c-0.1,1.2,0.8,2.2,2,2.2c0.1,0,0.2,0,0.4,0c0,0,0,0,0.1,0
				c1.1,0,2.1-0.9,2.1-2.1C177.1,641.8,176.2,640.8,175,640.8z"/>
		</g>
		<g>
			<path d="M189.4,631l-0.2,0.2c-0.7,0.9-0.6,2.2,0.4,3c0.4,0.3,0.8,0.5,1.3,0.5c0.6,0,1.2-0.3,1.7-0.8l0.2-0.2
				c0.7-0.9,0.5-2.3-0.4-3C191.4,629.9,190.1,630.1,189.4,631z"/>
		</g>
		<g>
			<path d="M182.8,637.8l-0.2,0.2c-0.9,0.7-1.1,2-0.4,3c0.4,0.6,1.1,0.9,1.7,0.9c0.4,0,0.9-0.1,1.3-0.4l0.3-0.2c0.9-0.7,1.1-2,0.4-3
				C185.1,637.2,183.7,637,182.8,637.8z"/>
		</g>
		<g>
			<path d="M167.5,637c-0.8-0.8-2.2-0.8-3,0c-0.8,0.8-0.8,2.2,0,3l0.2,0.2c0.4,0.4,0.9,0.6,1.5,0.6c0.6,0,1.1-0.2,1.5-0.6
				c0.8-0.8,0.8-2.2,0-3L167.5,637z"/>
		</g>
		<g>
			<path d="M152.9,602l-0.1-0.3c-0.2-1.1-1.4-1.9-2.5-1.6c-1.1,0.2-1.9,1.4-1.6,2.5l0.1,0.3c0.2,1,1.1,1.7,2.1,1.7
				c0.1,0,0.3,0,0.4,0C152.5,604.2,153.2,603.1,152.9,602z"/>
		</g>
		<g>
			<path d="M155.3,611.5l-0.1-0.3c-0.3-1.1-1.5-1.8-2.6-1.5c-1.1,0.3-1.8,1.5-1.5,2.6l0.1,0.3c0.3,0.9,1.1,1.5,2,1.5
				c0.2,0,0.4,0,0.6-0.1C154.9,613.8,155.6,612.6,155.3,611.5z"/>
		</g>
		<g>
			<path d="M162.1,629.4c-0.6-1-1.8-1.4-2.9-0.9c-1,0.6-1.4,1.8-0.9,2.9l0.2,0.3c0.4,0.7,1.1,1.1,1.9,1.1c0.3,0,0.7-0.1,1-0.3
				c1-0.6,1.4-1.8,0.8-2.9L162.1,629.4z"/>
		</g>
		<g>
			<path d="M158.3,620.9l-0.1-0.3c-0.4-1.1-1.6-1.7-2.7-1.2c-1.1,0.4-1.7,1.6-1.2,2.7l0.1,0.3c0.3,0.8,1.1,1.4,2,1.4
				c0.2,0,0.5,0,0.7-0.1C158.1,623.2,158.7,621.9,158.3,620.9z"/>
		</g>
		<g>
			<path d="M145.9,564.9c0,0,0.1,0,0.1,0c1.2-0.1,2.1-1.1,2-2.2l0-0.3c-0.1-1.2-1.1-2.1-2.2-2c-1.2,0.1-2.1,1.1-2,2.2l0,0.3
				C143.9,564,144.8,564.9,145.9,564.9z"/>
		</g>
		<g>
			<path d="M145.6,554.9C145.6,554.9,145.6,554.9,145.6,554.9c1.2,0,2.1-1,2.1-2.2l0-0.3c0-1.2-1-2.1-2.1-2.1c0,0,0,0,0,0
				c-1.2,0-2.1,1-2.1,2.1l0,0.3C143.5,554,144.4,554.9,145.6,554.9z"/>
		</g>
		<g>
			<path d="M143.5,542.8c0,1.2,0.9,2.1,2.1,2.2c0,0,0,0,0,0c1.1,0,2.1-0.9,2.1-2.1l0-0.3c0-1.2-0.9-2.1-2.1-2.2
				c-1.2,0-2.1,0.9-2.2,2.1L143.5,542.8z"/>
		</g>
		<g>
			<path d="M197.7,622.2c-1-0.6-2.3-0.3-2.9,0.7l-0.1,0.2c-0.6,1-0.3,2.3,0.7,2.9c0.3,0.2,0.7,0.3,1.1,0.3c0.7,0,1.4-0.4,1.8-1
				l0.2-0.3C199,624.1,198.7,622.8,197.7,622.2z"/>
		</g>
		<g>
			<path d="M149.4,594.7c1.2-0.2,1.9-1.3,1.7-2.4l0-0.3c-0.2-1.2-1.3-1.9-2.4-1.7c-1.2,0.2-1.9,1.3-1.7,2.4l0,0.3
				c0.2,1,1.1,1.8,2.1,1.8C149.1,594.7,149.3,594.7,149.4,594.7z"/>
		</g>
		<g>
			<path d="M145.9,535c0,0,0.1,0,0.1,0c1.1,0,2-0.9,2.1-2l0-0.3c0.1-1.2-0.8-2.2-2-2.2c-1.2-0.1-2.2,0.8-2.2,2l0,0.3
				C143.8,533.9,144.7,534.9,145.9,535z"/>
		</g>
		<g>
			<path d="M146.8,574.9c1.2-0.1,2-1.1,1.9-2.3l0-0.3c-0.1-1.2-1.1-2-2.3-1.9c-1.2,0.1-2,1.1-1.9,2.3l0,0.3c0.1,1.1,1,1.9,2.1,1.9
				C146.6,574.9,146.7,574.9,146.8,574.9z"/>
		</g>
		<g>
			<path d="M202.3,613.4c-1-0.5-2.3-0.1-2.8,0.9l-0.1,0.3c-0.5,1-0.1,2.3,0.9,2.8c0.3,0.2,0.6,0.2,0.9,0.2c0.8,0,1.5-0.4,1.9-1.2
				l0.1-0.3C203.8,615.1,203.3,613.9,202.3,613.4z"/>
		</g>
		<g>
			<path d="M147.9,584.8c1.2-0.1,2-1.2,1.8-2.4l0-0.3c-0.1-1.2-1.2-2-2.4-1.8c-1.2,0.1-2,1.2-1.8,2.4l0,0.3c0.1,1.1,1,1.9,2.1,1.9
				C147.7,584.8,147.8,584.8,147.9,584.8z"/>
		</g>
		<g>
			<path d="M293.9,218.2c1.2,0,2.1-0.9,2.1-2.1v-0.3c0-1.2-0.9-2.1-2.1-2.1s-2.1,0.9-2.1,2.1v0.3
				C291.8,217.3,292.7,218.2,293.9,218.2z"/>
		</g>
		<g>
			<path d="M291.8,236.1c0,1.2,0.9,2.1,2.1,2.1s2.1-0.9,2.1-2.1v-0.3c0-1.2-0.9-2.1-2.1-2.1s-2.1,0.9-2.1,2.1V236.1z"/>
		</g>
		<g>
			<path d="M291.8,246c0,1.2,0.9,2.1,2.1,2.1s2.1-0.9,2.1-2.1v-0.3c0-1.2-0.9-2.1-2.1-2.1s-2.1,0.9-2.1,2.1V246z"/>
		</g>
		<g>
			<path d="M291.8,226.1c0,1.2,0.9,2.1,2.1,2.1s2.1-0.9,2.1-2.1v-0.3c0-1.2-0.9-2.1-2.1-2.1s-2.1,0.9-2.1,2.1V226.1z"/>
		</g>
		<g>
			<path d="M291.8,275.9c0,1.2,0.9,2.1,2.1,2.1s2.1-0.9,2.1-2.1v-0.3c0-1.2-0.9-2.1-2.1-2.1s-2.1,0.9-2.1,2.1V275.9z"/>
		</g>
		<g>
			<path d="M291.8,266c0,1.2,0.9,2.1,2.1,2.1s2.1-0.9,2.1-2.1v-0.3c0-1.2-0.9-2.1-2.1-2.1s-2.1,0.9-2.1,2.1V266z"/>
		</g>
		<g>
			<path d="M291.8,256c0,1.2,0.9,2.1,2.1,2.1s2.1-0.9,2.1-2.1v-0.3c0-1.2-0.9-2.1-2.1-2.1s-2.1,0.9-2.1,2.1V256z"/>
		</g>
	</g>
</g>
</svg>
