<?xml version="1.0" encoding="utf-8"?>
<!-- Generator: Adobe Illustrator 21.1.0, SVG Export Plug-In . SVG Version: 6.00 Build 0)  -->
<svg version="1.1" id="Слой_1" xmlns="http://www.w3.org/2000/svg" xmlns:xlink="http://www.w3.org/1999/xlink" x="0px" y="0px"
	 viewBox="0 0 504 864" style="enable-background:new 0 0 504 864;" xml:space="preserve">
<style type="text/css">
	.st0{fill:#040404;}
	.st1{fill:#FFFFFF;}
</style>
<g>
	<g>
		<g>
			<path d="M167.2,495c0.6,1.1,2.9-0.5,3.7-1.3c1.5-1.4,2.1-3.5,2.5-5.6c0.9-5.2-0.7-8.4-3.8-12.3c-3.6-4.6-5.6-8.8-1.2-13.3
				c3-3,7.4-7.4,8.1-11.7c0.8-4.6-1.5-7.5-5.2-9.5c-8.2,5.7-13.6,15.8-14.5,25.8s2.9,20.2,10,27.3C166.8,494,167,495.4,167.2,495z"
				/>
		</g>
		<g>
			<path d="M331.9,407.6c-0.6,0.4-1.3,0.4-2.2,0c-2.7-1.2-4.1-5.3-4.5-8c-0.7-4.8-0.5-6.4-4.6-9.6c-3.5-2.6-6.4-5.9-5.9-10.6
				c0.4-3.3,3.8-6.5,3.2-9.8c4.3,3.8,7.9,8.4,10.1,13.7c1.2,2.8,2.1,4.2,3.8,6.6c1.5,2.1,2.2,4.7,2.4,7.2
				C334.3,399.4,334.3,406.1,331.9,407.6z"/>
		</g>
		<g>
			<path d="M211.5,303.5c-1.9,3.6-4.1,6.4-8.1,8.6c-3.7,2-7.9,1.5-12,1.9c-2.5,0.2-4.4,0.1-6.6,1.6c-2.2,1.5-3.2,3.9-6,4.8
				c-4,1.3-7.6-0.2-11.1-1.9c3.3-5.2,10.2-7.7,16.1-9.6c5-1.6,10-3,15-4.3C202.5,303.5,207.8,303,211.5,303.5z"/>
		</g>
		<g>
			<path d="M283.4,628.2c-0.6-5.3-10.5-41.1-10.5-41.1s-1.6,37.1-1,42.4c0.6,5.3,3.4,6.7,6.5,6.4
				C281.7,635.5,284.1,633.5,283.4,628.2z"/>
		</g>
		<g>
			<g>
				<g>
					<path d="M287.8,564.4c7.7,8,13.6,16.6,15.4,27.7c2.2,13.1,1.8,27,2.8,40.2c0.8,10.7,0.1,22.7,2.7,33.2
						c1.3,5.2,5.4,12.3,12.1,11.5c5.8-0.7,5.2-16.3,5.6-20.3c1.7-18,2.6-36.1,3.3-54.2c0.4-9.2,2-18.5-1.8-27
						c-5.3-11.8-13.3-22-18.6-33.8c-0.9-2-3.8-0.3-2.9,1.7c5.5,12.1,14.6,22.6,19.1,35.2c3.1,8.8,0.9,20.6,0.5,29.9
						c-0.8,18.8-1.5,37.9-4,56.6c-0.3,2.2-0.3,5.9-1.4,7.9c-1,1.6,0.8,0.3-0.6,0.4c-3.7,0.3-6.5-4.1-7.5-6.7
						c-2.4-6-1.6-13.9-2.1-20.3c-0.6-7.5-1.1-14.9-1.6-22.4c-0.8-12.1-0.2-25.2-3.2-37.1c-2.5-9.9-8.5-17.8-15.4-25
						C288.6,560.4,286.3,562.8,287.8,564.4L287.8,564.4z"/>
				</g>
			</g>
			<g>
				<g>
					<path d="M204,509.1c0.1,23.2,2.8,47.6,11.3,69.4c2.1,5.5,4.5,11,6.1,16.7c1.8,6.1,2.2,12.5,3.3,18.7c1.1,6.3,2.1,12.6,2.9,19
						c0.4,3.1,0.6,7.3,2.7,9.8c11.3,13.1,19.7-24.7,20.2-29.3c1.1-12.8-1.1-25.7-1.8-38.4c-0.4-6.9-0.7-14,0.4-20.8
						c0.4-2.6,0.9-6.7,2.9-8.7c4.7-4.7,9.7-0.4,13.6,1.9c1.9,1.1,3.6-1.8,1.7-2.9c-5.1-3-11.2-8.2-16.5-3
						c-5.8,5.7-5.7,16.4-5.8,23.8c-0.1,12,1.7,23.8,2.2,35.8c0.2,6.3,0.1,12.4-1.1,18.6c-0.8,4.5-2.4,13.6-6,17
						c-0.6,2-2.1,2.6-4.5,1.8c-2.7,1.3-4,0.8-4-1.4c-1.2-2.3-0.9-6.2-1.2-8.7c-0.7-5.1-1.7-10.2-2.5-15.2c-2-11.7-4.1-22-8.5-33.1
						c-8.8-22.4-11.9-46.8-12.1-70.8C207.4,506.9,204,506.9,204,509.1L204,509.1z"/>
				</g>
			</g>
			<g>
				<g>
					<path d="M202.8,400.1c2.7,16.7,5.6,33.1,5.3,50.1c-0.2,10.6-1.6,21.3-2.4,31.8c-0.2,2.2,3.2,2.2,3.4,0
						c0.9-11.5,2.3-23.1,2.5-34.6c0.3-16.3-2.9-32.2-5.5-48.2C205.7,397,202.5,397.9,202.8,400.1L202.8,400.1z"/>
				</g>
			</g>
			<g>
				<g>
					<path d="M191.3,332.4c2.4,12.8,4.7,25.6,6.9,38.4c0.4,2.1,3.6,1.2,3.3-0.9c-2.2-12.8-4.5-25.6-6.9-38.4
						C194.1,329.4,190.9,330.3,191.3,332.4L191.3,332.4z"/>
				</g>
			</g>
			<g>
				<g>
					<path d="M320.7,540c4.1,9.8,9.6,18.8,14.1,28.3c5.2,10.8,3.4,24.2,3.4,35.8c0,12.6,0.1,25.3-0.5,37.9
						c-0.2,4.1-0.3,12.2-2.5,15.9c-1.4,2.3-0.3,2.9-3.5,0.4c-2.2-1.7-3.7-4.3-4.8-6.7c-0.9-2-3.8-0.3-2.9,1.7
						c1.5,3.3,8.5,13.9,13.2,9.7c2.7-2.5,3-10.8,3.5-14.3c1.1-7.5,0.9-15.3,1-22.8c0.2-15.6,1.7-32.3-0.4-47.8
						c-1.8-13.9-11.9-26.3-17.2-39.1C323.2,537.1,319.9,538,320.7,540L320.7,540z"/>
				</g>
			</g>
			<g>
				<g>
					<path d="M280,386.5c0.6,13,1.7,26.3,6.5,38.5c4.8,12.2,12.2,23.3,19.9,33.8c17,22.8,32.9,46.3,47.5,70.7
						c3.8,6.4,7.8,13.1,10.2,20.1c2.6,7.6,1.8,15.3,1.5,23.1c-0.3,8-0.6,16-2,23.9c-0.6,3.3-1,7.7-2.6,10.7c-3.3,6.2-3.5,0.7-4-3.9
						c-1.2-12.4,0.2-24.8-2.5-37.1c-2.9-12.8-10.9-22.7-17.3-33.8c-1.1-1.9-4-0.2-2.9,1.7c6.3,10.9,14.2,20.5,17,33
						c2.5,11.4,1.9,23.3,2.4,34.9c0.1,3.2,0.6,14.9,6.8,13.2c1.9-0.5,2.4-3,3-4.6c2.2-6.1,3.5-12.5,4.3-18.9
						c1.4-11.2,2.7-24,1.5-35.2c-1.2-10.8-7.7-21-13.1-30.1c-12.5-20.9-25.8-41.5-40.3-61.1c-8.3-11.2-16.8-22.1-23-34.7
						c-6.9-14-8.7-28.9-9.4-44.3C283.3,384.4,279.9,384.4,280,386.5L280,386.5z"/>
				</g>
			</g>
			<g>
				<g>
					<path d="M271.8,309.1c2.6,15.7,2.9,31.6,4.7,47.4c0.2,2.1,3.6,2.2,3.4,0c-1.8-16.1-2.2-32.3-4.8-48.3
						C274.8,306,271.5,306.9,271.8,309.1L271.8,309.1z"/>
				</g>
			</g>
			<g>
				<g>
					<path d="M353.2,585.1c-0.5,7.9-1.8,15.7-2.3,23.6c-0.3,5.2-0.8,10.3-1.7,15.5c-0.5,2.6-1,5.2-1.8,7.8
						c-0.5,1.8-3.3,11.2-5.7,4.2c-0.7-2-4-1.2-3.3,0.9c0.9,2.5,2.3,6,5.6,5.8c4.3-0.3,5.7-6.9,6.6-10c2.2-7.9,3.1-16,3.6-24.1
						c0.5-7.9,1.8-15.7,2.3-23.6C356.7,583,353.3,583,353.2,585.1L353.2,585.1z"/>
				</g>
			</g>
			<g>
				<g>
					<path d="M296.7,442.4c8.4-1.7,16.7-2.9,23.3-8.8c6.4-5.7,12-12.8,13.8-21.3c3.5-16.4-1.8-34.2-15.2-44.6
						c-16-12.4-36.7-13.9-56.1-10.9c-10.9,1.7-21.5,4.7-32.1,7.5c-10.8,2.9-23,7.2-34.2,5.7c-10.7-1.4-20-9.5-16.1-21
						c3.8-11.3,15.4-17.7,26.2-20.6c15.7-4.2,31.9-5.9,47.6-10.3c12.3-3.5,25.9-8.6,33.7-19.5c7-9.8,7.3-23.9,1.9-34.5
						c-8.3-16.1-27.7-19.5-43.5-23.9c-10.8-3-21.6-9.4-25.2-20.6c-2.9-9-1.3-22.1,3.1-30.4c0.7-1.3-0.4-2.9-1.9-2.5
						c-11.9,3.3-21.4,18.3-21.3,30.5c0.1,14.9,9.9,31.7,22.4,39.4c10.6,6.6,39.8,6.5,33.6,25.4c-2.3,6.9-10.8,9.6-17.1,11.7
						c-7.7,2.5-15.6,4.2-23.5,5.8c-15.6,3.1-30.9,5.1-44.7,13.8c-12.6,8-24.3,20.3-25.6,35.8c-1.3,15.4,4.3,32.6,17.5,41.5
						c14.6,9.9,33.9,9.7,50.7,7.5c10.3-1.3,20.4-3.5,30.4-5.9c8-1.9,16-4.4,24.2-4.7c7.4-0.3,16.2,0.2,22.8,4.1
						c4.1,2.5,6.1,6.2,5.1,10.9c-1.4,6.7-5.9,9.2-12,11c-2.1,0.6-1.2,3.9,0.9,3.3c6.5-1.9,10.9-3.9,13.4-10.4
						c1.8-4.6,2.1-9.6-1-13.7c-6.6-8.8-21.9-9.1-31.8-8.4c-15.9,1.2-31.4,7.2-47.2,9.7c-19.1,3-44.8,4.7-59.3-11
						c-13.1-14.1-14.2-37.8-2.4-52.8c12.2-15.5,30-22.1,48.7-25.5c14.5-2.6,30-4.8,43.4-11.3c9-4.4,16-15.4,8.9-24.8
						c-4-5.3-11.2-7.3-17.3-9c-10.7-3-19.6-6.4-26.6-15.6c-5.9-7.7-11.7-19.9-10-29.8c1.7-9.8,8.5-21.4,18.5-24.2
						c-0.6-0.8-1.3-1.7-1.9-2.5c-6.1,11.4-7.4,29.1-0.1,40.1c9.6,14.6,26.9,15.4,41.9,20.7c15.8,5.5,28,16.3,26.9,34.2
						c-1.1,17.4-17.1,26.1-31.9,30.9c-14.4,4.6-29.4,7-44.2,9.9c-15,2.9-33.2,9.8-37.3,26.6c-3.2,13,7.7,22.1,19.6,23.6
						c9.8,1.2,19.9-1.9,29.3-4.3c10.6-2.7,21.2-5.8,31.9-7.9c24.5-4.8,58-3.2,70.3,22.8c5.2,10.9,5.7,26.3-0.8,36.7
						c-3.1,5-8.1,10.4-13.2,13.4c-5.3,3.1-11.9,3.8-17.8,5C293.7,439.6,294.6,442.9,296.7,442.4L296.7,442.4z"/>
				</g>
			</g>
			<g>
				<g>
					<path d="M207.8,421.9c-24.4,4.2-51,20-52.9,47.3c-1.6,24,18.8,37.6,40.3,40.2c14.8,1.8,31.1,1.5,45.2-3.9
						c7.9-3,39-21.2,43.8-6.8c3.1,9.3-5.6,22.8-10.3,30.3c-6.1,9.9-10.6,18.9-12.9,30.6c-2.2,11.2-1.5,22.1-2.1,33.4
						c-0.7,12.4-3.9,22.9,0.3,35.3c2.1,6.1,18.5,44.3,27.9,29.1c4.8-7.7,4.3-18.2,7.2-26.5c5.5-15.7-3.6-27.5-7.7-42.3
						c-5.1-18,5.1-31.8,14.8-45.6c6.7-9.6,12.3-20.6,14.7-32.2c2.7-12.8,1.5-29.2-8.9-38.6c-9.4-8.4-25.5-7-37-5.6
						c-9.7,1.2-19.4,3.6-28.8,6.2c-10.4,2.8-20.9,6.8-31.8,7.4c-8.2,0.5-23.2-1.8-23.2-13c0-10.2,16.2-15.4,23.7-17.5
						c2.1-0.6,1.2-3.8-0.9-3.3c-9.2,2.5-23.2,7.5-25.8,18.2c-2.1,8.8,6.6,16.1,14.3,18c13.9,3.6,28.5-2.2,41.7-5.8
						c16.3-4.5,32.6-8.1,49.7-7.4c17.4,0.7,25.6,15.1,24.9,31.6c-0.5,13.2-6.2,25.9-13.2,36.8c-6.3,9.7-14,18-17.3,29.4
						c-2,6.8-2.3,14-0.5,20.9c2.2,8.4,6.9,15.9,8.9,24.5c2.6,10.9-2.1,23.6-4.9,34.5c-1.2,4.8-2,12.5-8.6,8.7
						c-4.1-2.4-6.9-9.4-9-13.5c-5.9-11.8-10.5-22.9-9.1-36.4c0.5-4.3,1.7-8.6,1.9-12.9c0.2-5-0.4-9.9-0.1-14.9
						c0.6-13.3,2.8-28,9.6-39.7c4.4-7.6,9.4-14.5,12.7-22.8c2.4-6,5.8-15.4,1.1-21.2c-6.4-8-21.4-2.8-28.9,0.2
						c-7.6,3-14.7,7.1-22.6,9.4c-8.6,2.5-17.9,3-26.8,2.8c-15.8-0.3-33.8-3-43.5-16.9c-7.8-11.3-7-25.9-0.3-37.5
						c9.4-16.2,27.3-24.2,45.1-27.3C210.8,424.8,209.9,421.5,207.8,421.9L207.8,421.9z"/>
				</g>
			</g>
			<g>
				<g>
					<path d="M252.5,484c-2.3,0.8-4.6,1.6-6.9,2.2c-2.1,0.6-1.2,3.8,0.9,3.3c2.3-0.6,4.6-1.4,6.9-2.2
						C255.4,486.5,254.6,483.3,252.5,484L252.5,484z"/>
				</g>
			</g>
			<g>
				<g>
					<path d="M270.2,477.8c-4.1,1.1-8.1,2.6-12.1,4.1c-2,0.8-1.1,4,0.9,3.3c4-1.5,7.9-3,12.1-4.1
						C273.2,480.5,272.4,477.2,270.2,477.8L270.2,477.8z"/>
				</g>
			</g>
			<g>
				<g>
					<path d="M301.9,506.1c0.6-7.6,0.5-16.4-4.6-22.6c-4.3-5.2-10.9-7-17.5-7.1c-2.2,0-2.2,3.3,0,3.4c6,0.1,12.3,1.8,15.7,7
						c3.7,5.6,3.5,12.9,3,19.3C298.4,508.3,301.7,508.3,301.9,506.1L301.9,506.1z"/>
				</g>
			</g>
			<g>
				<g>
					<path d="M292.6,531.3c2.7-5.6,5.3-11.1,7.3-17c0.7-2.1-2.6-3-3.3-0.9c-1.9,5.6-4.4,10.9-7,16.2
						C288.8,531.6,291.7,533.3,292.6,531.3L292.6,531.3z"/>
				</g>
			</g>
			<g>
				<g>
					<path d="M284.3,545.6c1.8-2.3,3.4-4.8,4.9-7.4c1.1-1.9-1.9-3.6-2.9-1.7c-1.3,2.3-2.7,4.6-4.3,6.7
						C280.6,544.9,283,547.3,284.3,545.6L284.3,545.6z"/>
				</g>
			</g>
			<g>
				<g>
					<path d="M250.4,378.9c1.7-0.6,3.4-1.3,5-2.1c0.8-0.4,1-1.6,0.6-2.3c-0.5-0.9-1.5-1-2.3-0.6c-1.4,0.6-2.8,1.2-4.2,1.8
						c-0.9,0.3-1.4,1.1-1.2,2.1C248.5,378.5,249.5,379.2,250.4,378.9L250.4,378.9z"/>
				</g>
			</g>
			<g>
				<g>
					<path d="M239,382.2c1.2-0.3,2.4-0.6,3.6-0.9c2.1-0.5,1.2-3.8-0.9-3.3c-1.2,0.3-2.4,0.6-3.6,0.9c-0.9,0.2-1.4,1.2-1.2,2.1
						C237.2,381.9,238.1,382.4,239,382.2L239,382.2z"/>
				</g>
			</g>
			<g>
				<g>
					<path d="M217,385.8c3-0.4,6-0.8,8.9-1.3c2.1-0.3,1.2-3.6-0.9-3.3c-3,0.4-6,0.8-8.9,1.3C213.9,382.8,214.8,386.1,217,385.8
						L217,385.8z"/>
				</g>
			</g>
			<g>
				<g>
					<path d="M166.7,371.2c8.7,11.6,22.7,16.2,36.8,16.2c2.2,0,2.2-3.4,0-3.4c-12.8,0.1-25.9-3.8-33.9-14.5
						C168.4,367.8,165.4,369.5,166.7,371.2L166.7,371.2z"/>
				</g>
			</g>
			<g>
				<g>
					<path d="M161.6,356.7c0.3,2.7,0.8,5.3,1.7,7.8c0.7,2,4,1.2,3.3-0.9c-0.8-2.2-1.4-4.6-1.6-6.9
						C164.7,354.6,161.3,354.6,161.6,356.7L161.6,356.7z"/>
				</g>
			</g>
			<g>
				<g>
					<path d="M166.2,335c-2.2,4.3-3.8,8.8-4.5,13.5c-0.3,2.1,3,3.1,3.3,0.9c0.6-4.5,2-8.7,4.1-12.7C170.1,334.7,167.2,333,166.2,335
						L166.2,335z"/>
				</g>
			</g>
			<g>
				<g>
					<path d="M270.8,262c-3.1-2.7-6.7-4.7-10.1-7c-1.8-1.2-3.5,1.7-1.7,2.9c3.2,2.1,6.5,3.9,9.4,6.4
						C270.1,265.8,272.5,263.4,270.8,262L270.8,262z"/>
				</g>
			</g>
			<g>
				<g>
					<path d="M265.9,297.8c7.1-7.2,11.1-16.5,10.3-26.7c-0.2-2.2-3.6-2.2-3.4,0c0.7,9.4-2.7,17.7-9.3,24.3
						C262,297,264.4,299.4,265.9,297.8L265.9,297.8z"/>
				</g>
			</g>
			<g>
				<g>
					<path d="M244.5,308.2c5-0.7,9.7-2.4,14.2-4.9c1.9-1.1,0.2-4-1.7-2.9c-4.2,2.4-8.6,3.9-13.4,4.5
						C241.5,305.2,242.4,308.5,244.5,308.2L244.5,308.2z"/>
				</g>
			</g>
			<g>
				<g>
					<path d="M234.6,310.4c1.4-0.3,2.8-0.6,4.2-0.9c2.1-0.5,1.2-3.7-0.9-3.3c-1.4,0.3-2.8,0.6-4.2,0.9
						C231.6,307.6,232.5,310.9,234.6,310.4L234.6,310.4z"/>
				</g>
			</g>
		</g>
		<g>
			<g>
				<path d="M265,386.6c-6.5,1.6-13.7,1.3-20.2,3.1c5.2,6.9,8.4,15.5,8.4,24.9c0.1,19-12.7,35.1-30.1,40.1c3.6,1,7.4,1.6,11.4,1.6
					c23-0.1,41.5-18.7,41.5-41.7C275.8,403.7,271.7,393.9,265,386.6z"/>
			</g>
		</g>
		<g>
			<path d="M236.2,617.3c0.4,4.6,0.8,11,0.7,15.7c-0.2,4.9-1.2,8-3.2,8.5c-2.9,0.8-3.5-6.3-3.9-8.2c-1.2-5-1.9-10.4-2.6-15.5
				c-0.4-2.8-1.1-5.6-1.5-8.4c-0.4-2.6-1.5-6.2,2-5.5C234.9,605.4,235.8,612.2,236.2,617.3z"/>
		</g>
		<g>
			<path d="M332,656.4c-0.1,1.3-0.7,3.6,0.3,4.7c0.9,0.9,2.5,0.7,3.3-0.2c1.2-1.3,1.6-4.3,1.7-6.1c0.2-2.1,0.6-4.2,1-6.2
				c0.7-3.1,0.7-6.4,1-9.6c0.2-1.9,1.6-5.8,0.2-7.5c-1.3-1.6-3.3,0-4.1,1.3C333.5,636,332.2,652.2,332,656.4z"/>
		</g>
		<g>
			<path d="M350.9,614.1c-4.6,2.4-5.7,7.7-6.3,12.4c-0.3,2.6-2.1,10.1-2.1,11c0.1,1.3,1.7,3,3,2.2c1-0.6,2.1-3.9,2.4-5
				c1.4-4.5,2.7-9.6,3.1-14.3c0.2-2.1,0.5-4.1-0.7-5.6"/>
		</g>
		<g>
			<path d="M359.3,597.7c-0.5,2-0.8,4.1-1.1,6.1c-0.4,2.4-1.1,4.5-0.4,6.9c0.6,1.8,1.8,2.3,2.8,0.6c1.1-1.9,1.5-3.8,2.1-5.8
				c0.8-2.8,2.3-5.6,2.6-8.5c0.2-2,1.9-8.3-2.4-6.1C360.5,592.1,359.8,595.5,359.3,597.7z"/>
		</g>
		<g>
			<path d="M390.1,236.8c-4.3-4.3-4.1-28.5-7.2-28.5c-3.1,0-2,23.3-7.2,28.5c-5.2,5.2-21.7,3-21.7,6.3s16.7,1.3,21.7,6.3
				c5,5,4.1,28.5,7.2,28.5c3.1,0,2.6-23.9,7.2-28.5c4.6-4.6,21.7-3.5,21.7-6.3S394.4,241.1,390.1,236.8z"/>
		</g>
		<g>
			<path d="M142.6,610.3c-5-5-4.7-32.7-8.3-32.7c-3.5,0-2.3,26.8-8.3,32.7s-25,3.4-25,7.2c0,3.8,19.2,1.5,25,7.2
				c5.8,5.8,4.7,32.7,8.3,32.7c3.5,0,2.9-27.4,8.3-32.7s25-4.1,25-7.2S147.6,615.2,142.6,610.3z"/>
		</g>
		<g>
			<path d="M116.7,534.6c-2.9-2.9-2.8-19.3-4.9-19.3s-1.4,15.8-4.9,19.3c-3.5,3.5-14.8,2-14.8,4.3c0,2.3,11.3,0.9,14.8,4.3
				s2.8,19.3,4.9,19.3s1.7-16.2,4.9-19.3c3.1-3.1,14.8-2.4,14.8-4.3C131.4,537,119.6,537.6,116.7,534.6z"/>
		</g>
		<g>
			<path d="M337.9,286.6c-2.2-2.2-2.1-14.5-3.7-14.5s-1,11.8-3.7,14.5s-11,1.5-11,3.2s8.5,0.7,11,3.2c2.5,2.5,2.1,14.5,3.7,14.5
				s1.3-12.1,3.7-14.5c2.4-2.4,11-1.8,11-3.2C349,288.4,340.1,288.8,337.9,286.6z"/>
		</g>
		<g>
			<path d="M144.2,245.9c-2.1-2.1-2-13.7-3.5-13.7s-1,11.2-3.5,13.7c-2.5,2.5-10.5,1.4-10.5,3c0,1.6,8.1,0.6,10.5,3s2,13.7,3.5,13.7
				c1.5,0,1.2-11.5,3.5-13.7s10.5-1.7,10.5-3C154.6,247.6,146.2,247.9,144.2,245.9z"/>
		</g>
		<g>
			<path d="M371.8,307.7c-1.1-1.1-1-7.2-1.8-7.2c-0.8,0-0.5,5.9-1.8,7.2s-5.5,0.8-5.5,1.6s4.2,0.3,5.5,1.6c1.3,1.3,1,7.2,1.8,7.2
				s0.6-6.1,1.8-7.2c1.2-1.2,5.5-0.9,5.5-1.6S372.9,308.8,371.8,307.7z"/>
		</g>
		<g>
			<path d="M372.5,460.2c-1-1-1-6.9-1.7-6.9s-0.5,5.6-1.7,6.9s-5.2,0.7-5.2,1.5s4,0.3,5.2,1.5c1.2,1.2,1,6.9,1.7,6.9
				s0.6-5.7,1.7-6.9s5.2-0.9,5.2-1.5S373.5,461.3,372.5,460.2z"/>
		</g>
		<g>
			<path d="M116.9,284.1c-1-1-1-6.9-1.7-6.9s-0.5,5.6-1.7,6.9c-1.3,1.3-5.2,0.7-5.2,1.5c0,0.8,4,0.3,5.2,1.5s1,6.9,1.7,6.9
				c0.7,0,0.6-5.7,1.7-6.9s5.2-0.9,5.2-1.5S117.9,285.1,116.9,284.1z"/>
		</g>
		<g>
			<path d="M178.7,563.2c-1.3-1.3-1.2-8.3-2.1-8.3s-0.6,6.8-2.1,8.3c-1.5,1.5-6.3,0.9-6.3,1.8s4.9,0.4,6.3,1.8
				c1.5,1.5,1.2,8.3,2.1,8.3s0.7-7,2.1-8.3c1.4-1.4,6.3-1,6.3-1.8S179.9,564.5,178.7,563.2z"/>
		</g>
	</g>
	<g>
		<path d="M51.9,53.6c6.7-7.6,6.7-19,0.1-26.4c0.8,7.2-1.3,14.8-6.5,20.6c-5.2,5.8-12.3,8.7-19.5,8.6C34,62.2,45.2,61.1,51.9,53.6z"
			/>
		<path d="M458.4,47.7c-5.2-5.8-7.3-13.3-6.5-20.6c-6.5,7.5-6.6,18.9,0.2,26.4c6.7,7.6,17.9,8.6,25.9,2.8
			C470.7,56.4,463.6,53.5,458.4,47.7z"/>
		<path d="M26.1,807.4c7.2-0.1,14.3,2.8,19.5,8.6c5.2,5.8,7.3,13.3,6.5,20.6c6.5-7.5,6.6-18.9-0.1-26.4
			C45.2,802.6,34,801.6,26.1,807.4z"/>
		<path d="M452,810.2c-6.7,7.6-6.7,19-0.2,26.4c-0.8-7.2,1.3-14.8,6.5-20.6c5.2-5.8,12.3-8.7,19.5-8.6
			C470,801.6,458.8,802.6,452,810.2z"/>
		<path d="M503.8,18.2c-1.6-17.9-18.7-16.3-31.6-16.3c-45.9,0-91.8,0-137.6,0c-63.2,0-126.3,0-189.5,0c-40.6,0-81.2,0-121.8,0
			c-2.6,0-5.3-0.2-8,0.2c-9.5,1.2-15,9.2-15.2,18.2c-0.2,7.3,0,14.5,0,21.8c0,37.4,0,74.9,0,112.3c0,57,0,114.1,0,171.1
			c0,64.3,0,128.6,0,192.9c0,58.4,0,116.7,0,175.1c0,40.1,0,80.2,0,120.3c0,9.1,0,18.2,0,27.3c0,11.7,6.7,20.5,19.2,20.7
			c35.9,0.6,71.9,0,107.9,0c62.4,0,124.9,0,187.3,0c49.7,0,99.5,0,149.2,0c7.6,0,15.2,0,22.9,0c0.4,0,0.8-0.1,1.2-0.2
			c14.4-1.8,16.1-13.8,16.1-25.5c0-11.4,0-22.8,0-34.3c0-43.4,0-86.9,0-130.3c0-59.9,0-119.8,0-179.8c0-63.9,0-127.7,0-191.6
			c0-55.3,0-110.6,0-165.9c0-33.7,0-67.3,0-101C503.9,28.3,504.2,23.2,503.8,18.2z M486.6,852.8c-28.3,0-56.6,0-84.9,0
			c-59.9,0-119.8,0-179.7,0c-54,0-108,0-162,0c-13.1,0-26.1,0-39.2,0c-5.6,0-11-1.3-11.7-8.3c-0.2-1.5,0-3,0-4.5c0-26.5,0-53,0-79.5
			c0-50,0-100,0-149.9c0-61.8,0-123.6,0-185.4c0-61.4,0-122.7,0-184.1c0-48.9,0-97.7,0-146.6c0-24.2-0.8-48.6,0-72.7
			c0.2-5.3,1.6-10.1,8.3-10.8c2.2-0.2,4.5,0,6.7,0c14.8,0,29.6,0,44.5,0c55.6,0,111.3,0,166.9,0c58.9,0,117.8,0,176.7,0
			c18.9,0,37.9,0,56.8,0c8.1,0,24.7-3.1,25.9,8.4c0.5,5.2,0,10.8,0,16.1c0,13.5,0,27.1,0,40.6c0,45.5,0,91.1,0,136.6
			c0,60.1,0,120.2,0,180.3c0,62.6,0,125.2,0,187.7c0,52.8,0,105.6,0,158.4c0,31.4,0,62.7,0,94.1C494.8,840.3,496.9,852,486.6,852.8z
			"/>
		<path d="M460,790.9c1.2,0.1,2.4-0.7,2.4-2.2c0-23.7,0-47.4,0-71.1c0-56.4,0-112.8,0-169.2c0-68.7,0-137.4,0-206
			c0-59,0-117.9,0-176.9c0-19.6,0-39.2,0-58.8c0-8.9,1.3-19,0-27.9c-0.1-0.4,0-0.8,0-1.2c0-0.8-0.3-1.3-0.8-1.7
			c0.1-1.2-0.6-2.5-2.2-2.6c-13.1-0.5-25.3-13.8-25.8-26.7c0-0.5-0.2-0.8-0.4-1.1c-0.3-0.6-1-1.1-1.9-1.1c-40.5,0-80.9,0-121.4,0
			c-64.5,0-129,0-193.6,0c-14.9,0-29.7,0-44.6,0c-0.9,0-1.6,0.5-1.9,1.1c-0.2,0.3-0.3,0.7-0.4,1.2C69.1,59.5,57,72.8,43.9,73.3
			c-1.8,0.1-2.5,1.9-2,3.2c-0.2,0.3-0.2,0.6-0.2,1c0,23.7,0,47.4,0,71.1c0,56.4,0,112.8,0,169.2c0,68.7,0,137.4,0,206
			c0,59,0,117.9,0,176.9c0,19.6,0,39.2,0,58.8c0,8.9-1.3,19,0,27.9c0.1,0.4,0,0.8,0,1.2c0,0.9,0.5,1.6,1.1,1.9
			c0.3,0.2,0.7,0.3,1.2,0.4c13,0.5,25.3,13.3,25.8,26.2c0,0.5,0.2,0.8,0.4,1.1c0.3,0.6,1,1.1,1.9,1.1c40.5,0,80.9,0,121.4,0
			c64.5,0,129,0,193.6,0c14.9,0,29.7,0,44.6,0c0.9,0,1.6-0.5,1.9-1.1c0.2-0.3,0.3-0.7,0.4-1.2c0.5-12.9,12.7-25.7,25.8-26.2
			C459.6,791,459.8,790.9,460,790.9z M429.3,814.9c-39.8,0-79.6,0-119.3,0c-64.5,0-129,0-193.6,0c-14.2,0-28.3,0-42.5,0
			c-1.7-13.9-13.9-26.5-27.8-28.3c0-23,0-46,0-69.1c0-56.4,0-112.8,0-169.2c0-68.7,0-137.4,0-206c0-59,0-117.9,0-176.9
			c0-19.6,0-39.2,0-58.8c0-8.9,1.3-19,0-27.9c-0.1-0.4,0-0.8,0-1.2c14-1.8,26.1-14.9,27.8-28.7c39.8,0,79.5,0,119.3,0
			c64.5,0,129,0,193.6,0c14.2,0,28.3,0,42.5,0c1.7,14.1,14.3,27.4,28.5,28.8c0,23.7,0,47.3,0,71c0,56.4,0,112.8,0,169.2
			c0,68.7,0,137.4,0,206c0,59,0,117.9,0,176.9c0,19.6,0,39.2,0,58.8c0,8.6-1.2,18.4-0.1,27C443.6,788.1,431.1,800.9,429.3,814.9z"/>
		<path d="M256.2,103.3c0-0.1,0.2-0.3,0.6-0.5c0.4-0.2,0.6-0.4,0.6-0.6c0-0.9-0.7-1.4-1.9-1.5l-1.3-0.1l0.1-6.7
			c0.1-4.5,0.2-6.8,0.3-7c0.1-0.1,0.2-0.8,0.3-1.9c0.1-2.1,0.4-3.2,0.7-3.2c0.2,0,0.4-0.1,0.4-0.3c0-0.2,0.2-0.3,0.7-0.3
			c0.4,0,0.8-0.1,1-0.3c0.3-0.2,0.4-0.5,0.4-0.7c0-0.3-0.2-0.6-0.5-0.8c-0.3-0.2-1.4-0.3-3.4-0.3c-2,0-2.9,0.1-2.9,0.3
			c0,0.1-0.3,0.2-0.9,0.2c-0.6,0-0.9,0.1-0.9,0.4s-0.1,0.4-0.3,0.4c-0.2,0-0.3,0.2-0.3,0.6c0,0.5,0.1,0.8,0.4,0.9
			c0.3,0.1,0.4,0.9,0.4,2.5c0,1.6,0.1,2.4,0.3,2.5c0.2,0.1,0.3,0.8,0.3,2.2c0,1.3-0.1,2-0.3,2.1c-0.2,0.1-0.4,1.5-0.4,4.3
			c-0.1,2.4-0.2,3.9-0.4,4.3c-0.2,0.5-0.8,0.8-1.8,0.9c-0.6,0-0.9,0.1-1,0.2c-0.1,0.1-0.2,0.4-0.2,0.8c0,0.6,0.1,0.9,0.4,0.9
			c0.3,0,0.6,0.1,0.9,0.4c0.3,0.3,0.5,0.4,0.6,0.2c0.1-0.2,1.5-0.4,4-0.4c2.1,0,3.2,0.1,3.2,0.3c0,0.2,0.2,0.3,0.5,0.3
			C256,103.5,256.2,103.4,256.2,103.3z M250.8,96.6c-0.3,0-0.4-0.1-0.4-0.3c0-0.2,0.1-0.3,0.4-0.3c0.2,0,0.4,0.1,0.4,0.3
			C251.2,96.5,251,96.6,250.8,96.6z M252.4,89.2c-0.3,0-0.4-0.2-0.4-0.5c0-0.4,0.1-0.6,0.4-0.6c0.3,0,0.4,0.2,0.4,0.6
			C252.8,89,252.7,89.2,252.4,89.2z"/>
		<path d="M156.6,785.3c0.1,0,0.2-0.2,0.2-0.5c0-0.2,0-0.4-0.1-0.4c-0.1,0-0.1-0.1-0.1-0.3c0-0.2,0.1-0.4,0.2-0.6
			c0.1-0.3,0.1-0.5-0.2-0.6c-0.2-0.2-0.5-0.3-0.9-0.3c-0.5,0-0.8,0.1-1.1,0.4c-0.3,0.2-0.4,0.3-0.5,0.2c-0.1-0.1-0.4-0.1-0.8,0
			c-0.5,0.1-1.4,0.2-2.6,0.2c-0.9,0-1.4,0-1.5-0.1c-0.1-0.1-0.2,0-0.4,0.2c-0.1,0.1-0.3,0.2-0.4,0.2c-0.2,0-0.4,0-0.7-0.1
			c-0.7-0.2-1.1-0.2-1.3-0.2c-0.1,0-0.2,0-0.2,0c-0.1,0-0.3,0.1-0.4,0.3c-0.1,0.2-0.2,0.4-0.2,0.5c0,0.1,0,0.1,0.1,0.2
			c0,0,0.1,0.2,0.1,0.5c0,0.1,0,0.2-0.1,0.3c-0.1,0-0.2,0.1-0.3,0.1c-0.3,0-0.5,0.1-0.5,0.3c0,0,0,0.1,0.1,0.2
			c0.1,0.1,0.1,0.3,0.1,0.6c0,0.3-0.1,0.4-0.1,0.5c0,0.5,0.2,0.8,0.6,0.8c0.3,0,0.4-0.1,0.4-0.2c0-0.1,0.1-0.2,0.2-0.2
			c0.1,0,0.1,0,0.2-0.1c0,0,0-0.1,0-0.2c0-0.1-0.1-0.2-0.2-0.2c-0.1-0.1-0.1-0.1-0.1-0.2c0,0,0-0.1,0-0.1c0,0,0-0.1,0.1-0.1
			c0,0,0.1,0,0.2-0.1c0.2-0.1,0.2-0.2,0.2-0.3c0,0,0-0.1,0-0.2c0-0.1,0-0.1,0-0.2c0-0.1,0-0.2,0.1-0.2c0.1-0.1,0.1-0.3,0-0.6
			c-0.1-0.3-0.1-0.4,0-0.4c0.1,0,0.1,0.1,0.1,0.2c0,0.1,0.2,0.2,0.5,0.4c0.4,0.1,0.7,0.2,1.1,0.2c0.4,0,0.7,0.1,0.8,0.3
			c0.2,0.2,0.3,0.2,0.5,0.2c0.1,0,0.1,0,0.1,0c0.1,0,0.1,0,0,0.1c-0.3,0.3-0.4,2.2-0.5,5.8c0,0.8-0.1,1.2-0.3,1.4
			c-0.2,0.1-0.3,0.3-0.3,0.4c0,0.1-0.3,0.2-0.8,0.2l-0.7,0.1l-0.1,0.5c0,0,0,0.1,0,0.1c0,0,0,0.1,0,0.1c0,0.2,0.1,0.4,0.4,0.7
			c0.3,0.3,0.5,0.4,0.7,0.4c0.1,0,0.1,0,0.1-0.1s0-0.1-0.1-0.1c-0.1,0-0.1,0-0.1-0.1c0-0.1,0.2-0.1,0.5-0.1c0.1,0,0.4,0,0.8,0
			c0.4,0,0.7,0,0.9,0c0.6,0,0.9-0.1,1.1-0.2c0.1-0.1,0.3-0.2,0.6-0.1c0.2,0.1,0.3,0,0.4-0.1c0.1-0.1,0.2-0.1,0.3-0.1
			c0.1,0,0.3-0.1,0.5-0.2c0.1-0.1,0.2-0.2,0.2-0.3c0-0.1-0.1-0.2-0.2-0.5c-0.2-0.3-0.3-0.4-0.5-0.4c-0.1,0-0.2-0.1-0.2-0.2
			c0-0.1-0.1-0.2-0.3-0.1c0,0-0.1,0-0.1,0c-0.1,0-0.1,0-0.1,0c-0.1,0-0.2,0-0.3-0.1c0-0.1-0.1-0.3-0.1-0.5v-0.4c0-0.5,0-0.8,0-0.9
			c0-0.1,0.1-0.2,0.2-0.2c0.2,0,0.2-0.1,0.2-0.4c0-0.3-0.1-0.5-0.2-0.5c-0.1,0-0.2-0.4-0.2-1.1c0-0.8,0.1-1.2,0.2-1.4
			c0.1-0.1,0.2-0.5,0.2-1.2c0-0.7,0.1-1,0.1-1.1c0.1-0.2,0.5-0.2,1.2-0.2c1,0,1.5,0.1,1.6,0.4c0,0.1,0.1,0.2,0.4,0.5
			c0.2,0.2,0.3,0.4,0.3,0.8c0,0.3,0.1,0.5,0.1,0.5c0,0.1,0.2,0.1,0.4,0.1c0.2,0,0.4,0,0.4-0.1c0-0.1,0.1-0.2,0.3-0.2
			c0.2-0.1,0.3-0.2,0.3-0.4c0-0.2-0.1-0.4-0.2-0.5C156.5,785.4,156.5,785.3,156.6,785.3z"/>
		<path d="M177.3,781.9c-0.2-0.1-0.5-0.1-0.8-0.1c-0.1,0-0.2,0-0.5,0.1c-0.3,0.1-0.5,0.1-0.7,0.1h-0.1H175c-0.2,0-0.5,0-1,0.1
			c-0.4,0-0.7,0.1-0.8,0.1c-0.1,0-0.2,0.1-0.2,0.2c0,0.2,0,0.3-0.1,0.3c-0.1,0-0.1,0-0.1,0.1c0,0.1,0,0.2,0,0.3
			c0,0.1,0.1,0.2,0.2,0.2c0.1,0.1,0.2,0.5,0.2,1.3c0,0.8,0.1,1.2,0.2,1.2c0.1,0,0.1,0.3,0.1,0.8v0.8h-1.3c-0.8,0-1.7,0-2.7-0.1
			l-1.4-0.1v-0.7c0-0.5,0-0.7,0.1-0.7c0.1,0,0.1-0.3,0.2-0.9c0-1.1,0.1-1.6,0.4-1.6c0.1,0,0.2,0,0.2-0.1c0-0.1,0.1-0.2,0.4-0.2
			c0.2,0,0.4-0.1,0.5-0.2c0.1-0.1,0.2-0.2,0.2-0.4c0-0.2-0.1-0.3-0.2-0.4c-0.2-0.1-0.5-0.2-1-0.2c-0.3,0-0.4,0-0.5,0.1
			c0,0-0.5,0.1-1.3,0.1c-0.9,0.1-1.7,0.2-2.4,0.5c-0.1,0-0.2,0.1-0.2,0.2c0,0.1,0.2,0.2,0.6,0.4l0.6,0.3l0,0.8v0.9v0.3
			c0,0.2,0,0.4,0.1,0.4c0.1,0.1,0.2,0.5,0.2,1.1s-0.1,1.1-0.2,1.4c-0.1,0.3-0.2,0.6-0.2,0.8c0,0,0,0,0,0.1c0,0,0,0.1,0,0.1
			c0,0.2,0.1,0.4,0.1,0.6c0,0.5,0,1.1-0.1,1.8c-0.1,0.6-0.2,1-0.2,1.2c-0.1,0.2-0.4,0.3-0.8,0.3c-0.3,0-0.5,0.1-0.6,0.1
			c-0.1,0.1-0.1,0.2-0.1,0.4v0.5l0.7-0.1c0.3-0.1,1-0.1,2.2-0.1h0.7h0.7c1,0,1.6,0,1.6-0.1c0-0.1-0.1-0.3-0.2-0.5
			c-0.2-0.2-0.3-0.3-0.4-0.3h-0.1c-0.2,0.1-0.4,0.1-0.6-0.1c-0.1-0.1-0.2-0.1-0.3-0.2c0-0.1-0.1-0.2-0.1-0.4c0-0.3,0-0.5,0-0.8
			c0-0.9,0.1-1.6,0.1-2.1v-0.8h4.9l0.1,0.4c0,0.2,0.1,0.5,0.1,0.7c0,0.5,0,1.1-0.1,1.7c-0.1,0.6-0.2,1-0.3,1
			c-0.1,0.1-0.4,0.2-0.8,0.3c-0.3,0-0.5,0.1-0.5,0.1c-0.1,0.1-0.1,0.2-0.1,0.4c0,0.3,0.1,0.5,0.3,0.5c0.3,0.1,1.3,0.1,3.1,0.1
			c1.3,0,2,0,2.1-0.1c0.2-0.1,0.3-0.2,0.3-0.4c0-0.2-0.1-0.3-0.2-0.5c-0.1-0.1-0.3-0.2-0.4-0.2c0,0,0,0-0.1,0c0,0,0,0-0.1,0
			c-0.1,0.1-0.3,0.1-0.5,0l-0.4-0.1l0.1-3.5c0-2.3,0.1-3.5,0.2-3.6c0.1,0,0.1-0.3,0.1-0.9c0.1-1.1,0.2-1.6,0.4-1.6
			c0.1,0,0.2,0,0.2-0.1c0-0.1,0.1-0.2,0.4-0.2c0.2,0,0.4-0.1,0.5-0.2c0.2-0.1,0.2-0.3,0.2-0.4C177.6,782.1,177.5,782,177.3,781.9z
			 M166.4,790.8c-0.2-0.1-0.3-0.1-0.3-0.2c0-0.1,0-0.1,0.1-0.1c0.2,0,0.3,0.1,0.4,0.2c0,0,0,0,0,0.1
			C166.6,790.8,166.6,790.8,166.4,790.8z M167.1,790.7c-0.1,0-0.1-0.1-0.1-0.2c0-0.1,0-0.2,0.1-0.2c0.1,0,0.2,0.1,0.2,0.2
			C167.3,790.7,167.2,790.7,167.1,790.7z M167.1,787c-0.1,0-0.2-0.1-0.2-0.3c0-0.3,0.1-0.4,0.2-0.4c0.2,0,0.2,0.1,0.2,0.3
			C167.3,786.9,167.2,787,167.1,787z M174.2,790.8c-0.1,0.1-0.2,0.1-0.4,0c-0.2-0.1-0.3-0.1-0.3-0.2c0-0.1,0.1-0.1,0.2-0.1
			c0.3,0,0.5,0.1,0.5,0.2C174.3,790.7,174.3,790.8,174.2,790.8z M174.6,790.7c-0.1,0-0.2-0.1-0.2-0.2c0-0.1,0.1-0.2,0.2-0.2
			c0.1,0,0.1,0.1,0.1,0.2C174.7,790.7,174.7,790.7,174.6,790.7z M174.6,787c-0.1,0-0.2-0.1-0.2-0.3c0-0.3,0.1-0.4,0.2-0.4
			c0.1,0,0.2,0.1,0.2,0.3C174.8,786.9,174.7,787,174.6,787z"/>
		<path d="M194.8,790.2c-0.1,0-0.3,0.2-0.5,0.5c-0.3,0.3-0.4,0.6-0.4,0.7c0,0.1-0.1,0.2-0.4,0.2c-0.1,0-0.2,0-0.3,0.1
			c0,0-0.1,0.1-0.1,0.1c0,0,0,0.1,0,0.3c0,0.2-0.1,0.3-0.4,0.3c0,0-0.1,0-0.1,0c-0.1,0-0.1,0-0.2,0c-0.2,0-0.4,0.1-0.6,0.3
			c-0.2,0.2-0.4,0.3-0.6,0.3c-0.1,0-0.2-0.1-0.2-0.2c0-0.1-0.1-0.1-0.4,0c-0.2,0.1-0.6,0.2-1.2,0.2c-0.5,0-0.7,0-0.7-0.1
			c0-0.1-0.1-0.1-0.2-0.1c-0.1,0-0.1-0.1-0.2-0.2c-0.1-0.2-0.1-0.3-0.1-0.4c0-0.1,0-0.2,0-0.3c0-0.2,0-0.4,0-0.6c0-0.3,0-0.5,0-0.8
			c0-0.3,0-0.5,0-0.8c0-0.3,0-0.5,0-0.6v-0.2c0-0.1,0.4-0.1,1.3-0.1c0.7,0,1.2,0.1,1.4,0.2c0.2,0.1,0.4,0.4,0.4,0.8
			c0,0.2,0,0.3,0.1,0.3c0,0,0.1,0,0.2,0c0.1-0.1,0.3-0.1,0.5-0.1c0.1,0,0.2,0,0.3-0.1c0-0.1,0.1-0.2,0.1-0.5c0-0.1,0-0.2,0-0.3
			c0-0.2,0-0.3,0-0.4v-0.2c0-0.3,0-0.6,0.1-0.7c0.1-0.1,0.1-0.3,0-0.4c-0.1-0.1-0.1-0.3,0.1-0.4c0.1-0.1,0.2-0.2,0.2-0.4
			c0-0.3-0.3-0.4-1-0.4c-0.4,0-0.6,0.2-0.6,0.5c0,0.1,0,0.2,0.1,0.3c0,0.2,0,0.4,0,0.5c-0.1,0.1-0.3,0.2-0.9,0.3
			c-0.5,0.1-1,0.1-1.5,0.1h-0.6v-0.6c0-0.4,0.1-0.6,0.2-0.6c0.1,0,0.2-0.1,0.2-0.4c0-0.3-0.1-0.5-0.2-0.9c-0.1-0.2-0.2-0.4-0.1-0.4
			c0-0.1,0.1-0.1,0.2-0.3c0.2-0.1,0.3-0.3,0.2-0.5c0,0,0-0.1,0-0.2c0-0.1,0.1-0.3,0.4-0.3c0.3-0.1,0.7-0.1,1.5-0.2
			c0.7,0,1.1-0.1,1.1-0.1c0.3,0,0.5,0.1,0.6,0.2c0.1,0.2,0.3,0.3,0.5,0.4c0.2,0.1,0.3,0.2,0.3,0.3c0,0.1,0.1,0.2,0.3,0.3
			c0.2,0.1,0.3,0.2,0.3,0.3c0,0.2,0.1,0.3,0.3,0.5c0.2,0.2,0.4,0.2,0.6,0.2h0c0.3,0,0.4-0.2,0.4-0.6c0-0.2-0.1-0.3-0.2-0.5
			c-0.1-0.1-0.2-0.3-0.2-0.5c0-0.3-0.1-0.5-0.2-0.5c-0.1,0-0.1-0.1,0-0.4c0.1-0.1,0.1-0.2,0.1-0.3c0,0-0.1-0.1-0.1-0.1
			c-0.1-0.1-0.2-0.2-0.2-0.3c0-0.1-0.1-0.3-0.3-0.5c-0.2-0.2-0.4-0.3-0.6-0.1c-0.3,0.1-1.8,0.3-4.7,0.4h-0.7c-1.5,0-2.2-0.1-2.3-0.3
			c0-0.1-0.1-0.1-0.2-0.1c-0.1,0-0.2,0-0.2,0.1l0,0.1c0,0.1,0,0.1,0,0.1c0,0,0,0.1,0,0.2c0,0.1,0,0.2,0,0.2c0,0.2-0.1,0.3-0.3,0.3
			c-0.2,0.1-0.3,0.2-0.2,0.5c0.1,0.2,0.1,0.4,0.2,0.5s0.2,0.1,0.3,0.1c0.1,0,0.3,0,0.4,0c0.1,0,0.2,0,0.4,0c0.3,0,0.5,0.1,0.6,0.4
			c0.1,0.2,0.1,0.7,0.1,1.4c0,0.9-0.1,1.4-0.2,1.4c-0.1,0-0.1,0.2,0,0.4c0.1,0.2,0.1,0.4,0,0.6c-0.1,0.2-0.2,0.3-0.3,0.3
			c-0.1,0-0.1,0.1,0.1,0.2c0.1,0.1,0.1,0.3,0.1,0.6c0,0.5-0.1,1.5-0.2,2.8l-0.1,0.9h-0.6c-0.4,0-0.6,0.1-0.6,0.3
			c0,0.2-0.1,0.3-0.3,0.3c-0.1,0-0.2,0.1-0.2,0.3c0,0.3,0.1,0.5,0.3,0.6c0.2,0.1,0.3,0.2,0.3,0.4c0,0.1,0.2,0.1,0.7,0.1
			c0.5,0,0.8-0.1,0.9-0.3c0.1-0.1,0.5-0.2,1.2-0.2c0.5,0,0.9,0,1.3,0c0.7,0,1.1,0.1,1.2,0.2c0,0.1,0.2,0.1,0.4,0
			c0.2-0.1,0.7-0.2,1.5-0.2c0.8,0,1.3,0,1.5-0.1c0.2,0,0.3-0.1,0.5-0.3c0.2-0.2,0.3-0.3,0.2-0.5c0-0.2,0-0.3,0.1-0.4
			c0.1-0.1,0.2-0.3,0.2-0.8c0-0.3,0-0.5,0-0.6s0.1-0.1,0.2-0.1c0.2,0,0.3-0.2,0.3-0.5c0-0.2-0.1-0.4-0.2-0.6
			C195.1,790.3,194.9,790.2,194.8,790.2z"/>
		<path d="M184.6,792.1c0,0,0.1,0,0.1-0.1c0.1-0.2,0.1-0.3,0-0.3c-0.1,0-0.2,0.1-0.2,0.2C184.5,792,184.5,792.1,184.6,792.1z"/>
		<path d="M219.5,801.1c-0.1,0-0.2,0.1-0.2,0.2c0,0.1,0.1,0.2,0.2,0.2s0.2-0.1,0.2-0.2C219.7,801.2,219.6,801.1,219.5,801.1z"/>
		<path d="M227.4,783.1c-0.3,0-0.5,0-0.7,0c-0.4,0-0.7,0.1-0.7,0.1c-0.1,0-0.2,0-0.2,0s-0.1-0.1-0.1-0.1c0,0,0-0.1-0.1-0.2
			c0-0.1,0-0.2,0-0.2c0-0.1,0-0.1,0,0c0,0,0,0.1,0,0.2c0,0.2-0.2,0.4-0.4,0.4c-0.2,0.1-0.4,0.2-0.4,0.4c0,0.1-0.1,0.3-0.2,0.4
			c-0.1,0.1-0.2,0.3-0.2,0.4c0,0.2-0.1,0.4-0.2,0.6c-0.1,0.2-0.2,0.4-0.2,0.6c0,0.2,0,0.3-0.1,0.3c-0.1,0-0.2,0.1-0.2,0.4
			c0,0.2-0.1,0.4-0.2,0.5c-0.1,0.1-0.2,0.2-0.3,0.5c-0.1,0.3-0.1,0.4-0.2,0.4c-0.1,0-0.1,0.1-0.1,0.3c0,0.2,0,0.4-0.2,0.5
			c-0.2,0.2-0.3,0.5-0.3,0.9c-0.1,0.4-0.2,0.6-0.4,0.6c-0.2,0-0.3,0.1-0.3,0.2c0,0.1,0,0.2-0.1,0.2s-0.1,0.1-0.1,0.3
			c0,0.2-0.1,0.3-0.3,0.3c-0.2,0-0.3-0.2-0.3-0.5c0-0.3-0.1-0.5-0.2-0.5s-0.2-0.1-0.2-0.3c0-0.2,0-0.3-0.1-0.3
			c-0.1,0-0.2-0.2-0.2-0.6c0-0.4-0.1-0.6-0.2-0.6c-0.1-0.1-0.2-0.2-0.2-0.4c0-0.2,0-0.3-0.1-0.3c-0.1,0-0.2-0.2-0.2-0.5
			c0-0.3-0.1-0.6-0.3-0.7c-0.2-0.2-0.3-0.5-0.3-0.9c0-0.5,0-0.7-0.1-0.7s-0.2-0.3-0.2-0.8c-0.1-0.6-0.2-0.9-0.4-0.9
			c-0.2,0-0.4-0.1-0.5-0.3c-0.1-0.2-0.3-0.3-0.4-0.3c-0.2,0-0.3-0.1-0.4-0.3l-0.1-0.2l0,0.2c0,0.2-0.1,0.3-0.4,0.3
			c-0.3,0-0.4,0-0.4,0.1s-0.1,0.1-0.2,0.1c-0.1,0-0.2,0.1-0.3,0.2c-0.1,0.1-0.2,0.2-0.4,0.1c-0.3-0.1-0.4,0-0.4,0.1
			c0,0.1,0.1,0.3,0.3,0.4c0.2,0.2,0.4,0.3,0.5,0.3c0.3,0.1,0.4,0.7,0.4,1.8c0,0.6,0,1,0,1.4c0,0.3,0,0.7,0,1.1
			c0,0.6,0.1,0.9,0.2,1.1c0.1,0.1,0.1,0.2,0,0.2c-0.2,0-0.2,0.1-0.2,0.2c0,0.1,0,0.2-0.1,0.5c-0.1,0.8-0.2,1.3-0.2,1.5
			c0,0.2,0,0.3,0.1,0.3c0.1,0,0.1,0.1,0.1,0.2c0,0.1,0,0.2-0.1,0.2c-0.1,0-0.1,0.1-0.2,0.3c-0.1,0.2-0.3,0.3-0.6,0.4
			c-0.3,0.1-0.5,0.2-0.5,0.5c0,0.1,0,0.2,0.1,0.4c0,0.2,0.1,0.3,0.2,0.3c0.1,0,0.4,0,0.8,0c0.6,0,0.9,0,0.9-0.1s0.3-0.1,0.8-0.1
			c0.6,0,1-0.1,1-0.4c0-0.1,0-0.2,0-0.2c-0.1-0.2-0.3-0.3-0.6-0.3c-0.4,0-0.6-0.1-0.6-0.2c0-0.1-0.1-1.3-0.2-3.7c0-0.7,0-1.5,0-2.4
			c0-0.8,0.1-1.2,0.2-1.2c0.1,0,0.2,0.1,0.2,0.2c0,0.1,0.1,0.2,0.2,0.2c0.1,0,0.1,0.1,0.1,0.4c0,0.3,0,0.4,0.1,0.4
			c0.1,0,0.1,0.1,0.2,0.4c0.1,0.2,0.2,0.5,0.3,0.9c0.2,0.4,0.3,0.6,0.4,0.6c0,0,0.1,0.1,0.1,0.4c0.1,0.2,0.1,0.5,0.2,0.7
			c0.1,0.2,0.1,0.4,0.1,0.4c0.1,0,0.1,0.2,0.2,0.5c0.1,0.3,0.2,0.5,0.2,0.5s0.1,0.2,0.2,0.5c0,0.2,0.1,0.5,0.3,0.9
			c0.2,0.4,0.3,0.7,0.3,0.9c0,0.3,0.1,0.4,0.4,0.5h0.1c0.4,0,0.7-0.3,0.8-1c0.1-0.3,0.1-0.5,0.2-0.6c0.1-0.1,0.1-0.2,0.1-0.4
			c0-0.2,0.1-0.3,0.4-0.4c0.2-0.1,0.4-0.3,0.4-0.6c0-0.2,0.1-0.4,0.2-0.6c0.1-0.2,0.2-0.4,0.2-0.7c0-0.2,0-0.3,0-0.4
			c0-0.1,0.1-0.1,0.1,0c0.1,0,0.1,0,0.1,0c0,0,0-0.1,0-0.2c0-0.2,0.1-0.3,0.2-0.4c0.1-0.1,0.2-0.3,0.3-0.6c0.1-0.3,0.2-0.5,0.2-0.5
			c0.1,0,0.1-0.1,0.1-0.4c0-0.2,0.1-0.4,0.2-0.4c0.1-0.1,0.2-0.2,0.2-0.3c0-0.1,0.1-0.3,0.2-0.4c0.1-0.1,0.2-0.2,0.3-0.2
			c0.2,0,0.2,0.1,0.2,0.4c0,0.1,0,0.2,0,0.2c0,0.3-0.1,0.7-0.1,1.4v0.7c0,0.2,0,0.5,0,0.9c0,0.5,0,0.8-0.1,0.8
			c-0.1,0-0.2,0.5-0.2,1.4l0,1.4l-0.8,0.1c-0.5,0-0.7,0.1-0.8,0.3c0,0.1-0.1,0.2-0.1,0.2c0,0.2,0.2,0.3,0.6,0.3c0.3,0,0.5,0,0.5,0.1
			s0.7,0.1,2.2,0.1c0.9,0,1.3,0,1.3-0.1s0.1-0.1,0.2-0.1c0.1,0,0.2-0.1,0.2-0.4c0-0.3-0.1-0.5-0.3-0.6c-0.1,0-0.1,0-0.2,0
			c-0.1,0-0.1,0-0.2,0c-0.1,0-0.1,0-0.2,0c-0.1,0-0.2,0-0.2,0c-0.1,0-0.2-0.1-0.2-0.2c0-0.1-0.1-0.3-0.1-0.6c0-0.5,0.1-0.8,0.2-0.9
			c0.1,0,0.1-0.3,0.1-0.6c0-0.4,0-0.5-0.1-0.5c-0.1,0-0.2-0.1-0.2-0.4c0-0.3,0.1-0.5,0.2-0.6c0.1-0.1,0.1-0.1,0-0.2
			c-0.1-0.1-0.2-0.7-0.2-1.9c0-1.1,0.1-1.7,0.2-1.7c0.1,0,0.1-0.2,0.1-0.5c0-0.3,0.1-0.4,0.2-0.5c0.1-0.1,0.3-0.1,0.7-0.1
			c0.2,0,0.3,0,0.4-0.1c0-0.1,0.1-0.2,0.1-0.5c0-0.3-0.1-0.5-0.2-0.6C228.1,783.1,227.8,783.1,227.4,783.1z M220,789.9
			c-0.1,0-0.1,0-0.1-0.1c0-0.1,0-0.2,0.1-0.2c0.1,0,0.1,0.1,0.1,0.2C220.1,789.9,220,789.9,220,789.9z M225.5,787.1
			c-0.1,0-0.1-0.1-0.1-0.2c0-0.1,0.1-0.1,0.1-0.1c0.1,0,0.2,0.1,0.2,0.2C225.6,787.1,225.6,787.1,225.5,787.1z"/>
		<path d="M248.9,792.9c-0.1,0-0.1-0.1-0.2-0.4c-0.1-0.2-0.1-0.3-0.2-0.3c0,0-0.3,0.1-0.8,0.2c0,0-0.1,0-0.2,0c-0.4,0-0.7-0.6-1-1.7
			c-0.2-0.8-0.4-1.3-0.4-1.4c-0.1-0.1-0.2-0.3-0.2-0.5c-0.1-0.4-0.3-1.3-0.8-2.8c-0.5-1.5-0.7-2.4-0.8-2.7c-0.2-1-0.4-1.5-0.5-1.7
			c-0.1-0.2-0.2-0.3-0.4-0.3c-0.3-0.1-0.4,0-0.5,0.1c-0.1,0.1-0.2,0.2-0.4,0.2c-0.2,0-0.4,0.1-0.4,0.2c0,0.1-0.1,0.1-0.2,0.1
			c-0.1,0-0.2,0.2-0.4,0.6c-0.2,0.4-0.3,0.8-0.5,1.2c-0.1,0.4-0.2,0.6-0.3,0.7c-0.1,0.1-0.1,0.2-0.1,0.4c0,0.2-0.1,0.6-0.4,1.2
			c-0.3,0.6-0.5,1.1-0.5,1.5c-0.1,0.4-0.2,0.6-0.2,0.7c-0.1,0.1-0.2,0.3-0.4,0.8c-0.2,0.5-0.3,0.7-0.3,0.8c-0.1,0.2-0.2,0.4-0.2,0.5
			c0,0.2,0,0.2-0.1,0.2s-0.2,0.1-0.3,0.4c-0.1,0.2-0.2,0.4-0.2,0.6c0,0.1-0.2,0.3-0.5,0.6c-0.3,0.3-0.5,0.4-0.7,0.4
			c-0.2,0-0.3,0.1-0.5,0.4c-0.2,0.2-0.4,0.4-0.5,0.4c-0.1,0-0.2,0.1-0.4,0.4c-0.1,0.2-0.1,0.3-0.1,0.4c0,0.1,0.1,0.3,0.4,0.5
			l0.5,0.4l2-0.1c1.1,0,1.8-0.1,2.1-0.1c0.3,0,0.5-0.1,0.5-0.2c0,0,0-0.1-0.1-0.2c-0.1-0.2-0.1-0.3,0.1-0.3c0.1,0,0.2-0.1,0.2-0.2
			c0-0.1-0.1-0.2-0.2-0.2c-0.1,0-0.3-0.1-0.4-0.2c-0.1-0.1-0.4-0.2-0.7-0.3c-0.5-0.1-0.7-0.3-0.7-0.5c0-0.1,0-0.2,0.1-0.3
			c0.1-0.2,0.2-0.3,0.2-0.5c0-0.1,0-0.2,0.1-0.2c0.1,0,0.1-0.2,0.1-0.7v-0.7h0.6c0.4,0,0.7-0.1,0.7-0.2c0.1-0.2,0.6-0.2,1.5-0.2h0.4
			c0.7,0,1,0,1.1,0.1c0.1,0.1,0.2,0.4,0.2,0.8c0,0.5,0.1,0.8,0.3,0.9c0.2,0.2,0.3,0.4,0.3,0.6c0,0,0,0,0,0.1c0,0,0,0.1,0,0.1
			c0,0.3-0.1,0.4-0.1,0.5c-0.1,0.1-0.3,0.1-0.6,0.2c-0.5,0.1-0.7,0.2-0.8,0.3c0,0.1-0.1,0.1-0.3,0.1c-0.2,0-0.3,0.1-0.3,0.3
			c0,0.3,0,0.4,0.1,0.5c0.1,0.1,0.3,0.1,0.6,0.1c0.3,0,0.7,0,1.3-0.1c0.6-0.1,1.3-0.1,2-0.1c0.4,0,0.7,0,0.8,0c0.2,0,0.4,0,0.6,0
			c0.3,0,0.5-0.1,0.5-0.3c0.1-0.2,0.1-0.3,0.2-0.3c0.1,0,0.1-0.2,0.1-0.5S249,792.9,248.9,792.9z M242.7,788.4c0,0-0.1,0-0.2,0
			c-0.1,0-0.1,0-0.1,0c-0.3,0-0.5,0.1-0.6,0.2c-0.1,0.1-0.3,0.2-0.4,0.2s-0.3-0.1-0.4-0.2c-0.1-0.1-0.2-0.2-0.3-0.2
			s-0.2-0.1-0.2-0.2c0-0.1,0-0.2,0.1-0.2s0.2-0.1,0.3-0.4c0.1-0.3,0.2-0.5,0.2-0.7c0-0.2,0.1-0.3,0.2-0.4c0.1,0,0.2-0.3,0.2-0.8
			c0.1-0.6,0.3-0.9,0.6-0.9c0.2,0,0.3,0.1,0.5,0.2c0.1,0.1,0.2,0.2,0.4,0.5c0.1,0.3,0.2,0.4,0.2,0.5c0,0-0.1,0.1-0.3,0.1
			c-0.2,0-0.3,0.1-0.4,0.2c-0.1,0.1,0,0.2,0.1,0.2c0.1,0,0.2,0.1,0.2,0.2c0.1,0.1,0.2,0.3,0.2,0.4c0.1,0.2,0.1,0.2,0.2,0.3
			c0.1,0.1,0.1,0.3,0.2,0.6l0.1,0.5L242.7,788.4z"/>
		<path d="M265.8,788.6c-0.3,0-0.5,0-0.6,0c-0.7,0-1.2,0-1.4,0.1c-0.2,0.1-0.4,0.2-0.4,0.3c0,0.1-0.1,0.2-0.1,0.3
			c0,0.3,0.4,0.5,1.2,0.6c0.7,0.1,1.1,0.2,1.1,0.3c0,0-0.1,0.2-0.2,0.6c-0.1,0.3-0.3,0.5-0.5,0.5c-0.2,0-0.4,0.1-0.6,0.4
			c-0.2,0.3-0.3,0.3-0.4,0.2c-0.1-0.1-0.2-0.1-0.4,0.1c-0.2,0.2-0.5,0.2-0.8,0.2c-0.1,0-0.4,0-0.8-0.1c-0.7,0-1.1-0.1-1.3-0.2
			c-0.2-0.1-0.3-0.3-0.3-0.6c0-0.2-0.1-0.4-0.3-0.5c-0.2-0.1-0.3-0.2-0.3-0.4c0-0.2,0-0.2-0.1-0.2c-0.3,0-0.6-0.5-0.8-1.5
			c-0.1-0.7-0.2-1.1-0.3-1.1c-0.1,0-0.1-0.1-0.1-0.2c0-0.2,0-0.2,0.1-0.3c0.2,0,0.3-0.7,0.3-1.9c0-0.2,0.1-0.2,0.3-0.2
			c0.2,0,0.3-0.1,0.3-0.2c0-0.1,0-0.3-0.2-0.4c-0.1-0.1-0.1-0.2,0.1-0.2c0.2,0,0.4-0.1,0.7-0.2c0.2-0.1,0.4-0.3,0.4-0.4
			c0-0.1,0.1-0.3,0.3-0.4c0.2-0.1,0.5-0.2,0.7-0.2c0.2,0,0.3-0.1,0.3-0.2c0-0.1,0.2-0.2,0.7-0.3c0.1,0,0.1,0,0.2,0
			c0.1,0,0.1,0,0.2,0c0.6,0,1,0.2,1.2,0.5c0.1,0.2,0.3,0.3,0.6,0.4c0.3,0.1,0.4,0.2,0.4,0.3c0,0,0,0,0,0.1c0,0,0,0.1,0,0.1
			c0,0.1,0,0.2,0.1,0.3c0.1,0.1,0.2,0.2,0.3,0.5c0.1,0.2,0.1,0.3,0.2,0.4c0.1,0.1,0.3,0.1,0.5,0.2c0.1,0,0.2,0,0.4,0
			c0.1,0,0.2,0,0.2,0c0,0,0.1-0.1,0.1-0.1c0-0.1,0-0.1,0.1-0.2c0.1-0.3,0.1-0.6,0.1-0.9c0-0.3,0-0.5,0.1-0.5c0.1,0,0.1-0.1,0.1-0.3
			c0-0.2,0-0.5-0.1-0.9c-0.1-0.1-0.1-0.2-0.3-0.3c-0.1,0-0.4-0.1-0.9-0.1c-0.7,0-1,0-1.1-0.1c-0.1-0.1-0.9-0.2-2.2-0.2
			c-0.6,0-1,0-1.2,0.1c-0.6,0.1-1,0.2-1.3,0.3c-0.2,0.1-0.8,0.5-1.6,1.3c-0.9,0.8-1.3,1.3-1.3,1.4c0,0.1-0.1,0.2-0.2,0.4
			c-0.1,0.2-0.2,0.4-0.2,0.7s-0.1,0.4-0.2,0.5c-0.1,0.1-0.1,0.2-0.1,0.4c0,0.2-0.1,0.4-0.2,0.5c-0.1,0.1-0.2,0.6-0.2,1.5
			c0,1,0.1,1.6,0.2,1.6c0.1,0,0.1,0.1,0.1,0.3c0,0.1,0,0.2-0.1,0.2c-0.1,0,0,0.1,0.2,0.4c0.2,0.2,0.4,0.4,0.5,0.4
			c0.1,0,0.2,0.1,0.2,0.3c0.1,0.2,0.3,0.4,0.6,0.8c0.4,0.3,0.6,0.6,0.8,0.6c0.2,0.1,0.2,0.1,0.2,0.2c0,0.1,0.4,0.2,1.1,0.3
			c0.7,0.1,1.4,0.1,2.2,0.1c1.1,0,1.7-0.1,1.9-0.3c0.1-0.1,0.3-0.2,0.6-0.3c0.4-0.1,0.6-0.2,0.8-0.2c0,0,0.1,0,0.1,0
			c0,0-0.1,0.2-0.2,0.5c-0.1,0.2-0.2,0.4-0.2,0.6c0,0.2,0.2,0.3,0.6,0.3c0.3,0,0.5,0,0.6,0c1-0.1,1.6-0.2,1.6-0.4
			c0-0.1-0.1-0.3-0.4-0.5c-0.2-0.1-0.3-0.3-0.3-0.5c0-0.2-0.1-0.6-0.1-1.2l-0.1-1.4l0.6,0.1c0.3,0.1,0.5,0,0.6-0.2
			c0.1-0.2,0.3-0.3,0.6-0.3c0.3,0,0.4-0.1,0.5-0.1c0,0,0.1-0.2,0.1-0.5v-0.6l-2.5-0.1C266.4,788.6,266.2,788.6,265.8,788.6z"/>
		<path d="M282,782c-0.1-0.1-0.7-0.1-1.8-0.1c-1,0-1.5,0-1.5,0.1c0,0.1-0.2,0.1-0.5,0.1c-0.3,0-0.5,0.1-0.5,0.2c0,0.1,0,0.2-0.1,0.2
			c-0.1,0-0.1,0.1-0.1,0.3c0,0.3,0.1,0.4,0.2,0.5c0.1,0.1,0.2,0.5,0.2,1.3c0,0.8,0,1.2,0.1,1.3c0.1,0,0.1,0.4,0.1,1.1
			c0,0.7,0,1-0.1,1.1c-0.1,0-0.2,0.8-0.2,2.2c0,1.2-0.1,2-0.2,2.2c-0.1,0.2-0.4,0.4-0.9,0.5c-0.3,0-0.5,0.1-0.5,0.1
			c-0.1,0.1-0.1,0.2-0.1,0.4c0,0.3,0.1,0.5,0.2,0.5c0.2,0,0.3,0.1,0.5,0.2c0.2,0.2,0.3,0.2,0.3,0.1c0.1-0.1,0.8-0.2,2.1-0.2
			c1.1,0,1.6,0.1,1.6,0.2c0,0.1,0.1,0.1,0.3,0.1c0.2,0,0.3,0,0.3-0.1c0-0.1,0.1-0.2,0.3-0.3c0.2-0.1,0.3-0.2,0.3-0.3
			c0-0.5-0.4-0.7-1-0.8l-0.6-0.1l0.1-3.5c0-2.3,0.1-3.5,0.2-3.6c0.1-0.1,0.1-0.4,0.1-1c0.1-1.1,0.2-1.6,0.4-1.6c0.1,0,0.2,0,0.2-0.1
			c0-0.1,0.1-0.2,0.4-0.2c0.2,0,0.4-0.1,0.5-0.2c0.1-0.1,0.2-0.2,0.2-0.4C282.2,782.3,282.1,782.1,282,782z M278.5,790.9
			c-0.1,0-0.2,0-0.2-0.1s0.1-0.1,0.2-0.1c0.1,0,0.2,0,0.2,0.1S278.6,790.9,278.5,790.9z M279.4,787.1c-0.1,0-0.2-0.1-0.2-0.3
			c0-0.2,0.1-0.3,0.2-0.3c0.1,0,0.2,0.1,0.2,0.3C279.6,787,279.5,787.1,279.4,787.1z"/>
		<path d="M299.5,783.3h-0.9c-0.5,0-0.8,0-1-0.1c-0.2-0.1-0.3-0.2-0.3-0.5c0-0.1,0-0.2-0.1-0.3c-0.1,0-0.1,0-0.2,0.1
			c-0.1,0.1-0.4,0.2-0.7,0.2c-0.1,0-0.2,0-0.2-0.1c0-0.1-0.2-0.1-0.7-0.1c-0.4,0-0.7,0.1-0.8,0.2c-0.1,0.1-0.2,0.2-0.4,0.2
			c-0.2,0-0.3,0-0.4,0c-0.1,0-0.1,0-0.2,0c-0.1,0-0.1,0-0.2,0c-0.3,0-0.5,0.1-0.7,0.4c-0.3,0.3-0.5,0.4-0.7,0.5
			c-0.1,0-0.3,0.2-0.5,0.5c-0.2,0.3-0.4,0.4-0.5,0.4c-0.4,0.1-0.7,0.4-0.7,0.9c0,0.2-0.1,0.4-0.2,0.6c-0.1,0.2-0.2,0.4-0.2,0.6
			c0,0.3,0,0.4-0.1,0.5c-0.1,0.1-0.2,0.2-0.2,0.4c0,0.2-0.1,0.3-0.2,0.4c-0.1,0.1-0.2,0.5-0.2,1.4c0,1,0.1,1.5,0.2,1.6
			c0.1,0,0.1,0.1,0.1,0.2c0,0.1,0,0.2-0.1,0.2c-0.1,0,0,0.2,0.2,0.4c0.3,0.2,0.4,0.4,0.5,0.4c0.1,0,0.1,0.1,0.2,0.3
			c0.1,0.2,0.2,0.4,0.6,0.7c0.3,0.3,0.6,0.5,0.8,0.6c0.2,0.1,0.2,0.1,0.2,0.2c0,0.1,0.3,0.2,0.9,0.3c0.6,0.1,1.3,0.1,2,0.1
			c1.1,0,1.7-0.1,1.9-0.3c0.1-0.1,0.4-0.3,0.8-0.3c0.3-0.1,0.6-0.2,0.8-0.5c0.3-0.4,0.5-0.7,0.7-0.8c0.3-0.3,0.4-0.5,0.4-0.6
			c0-0.1-0.1-0.2-0.3-0.3c-0.4-0.2-0.6-0.3-0.8-0.3c-0.1,0-0.2,0.1-0.3,0.3c-0.1,0.2-0.2,0.4-0.4,0.4c-0.2,0-0.4,0.1-0.6,0.4
			c-0.2,0.2-0.4,0.3-0.5,0.2c-0.1-0.1-0.2-0.1-0.4,0.1c-0.1,0.1-0.4,0.2-0.7,0.2c-0.1,0-0.4,0-0.8-0.1c-0.6,0-1.1-0.1-1.2-0.2
			c-0.2-0.1-0.3-0.3-0.3-0.5c0-0.2-0.2-0.5-0.6-0.9c-0.3-0.3-0.5-0.5-0.6-0.7c-0.1-0.2-0.2-0.5-0.3-0.9c-0.1-0.7-0.2-1-0.3-1
			c-0.1,0-0.1-0.1-0.1-0.2c0-0.1,0-0.2,0.1-0.2c0.2,0,0.3-0.7,0.3-1.9c0-0.2,0.1-0.2,0.3-0.2c0.2,0,0.3-0.1,0.2-0.3
			c0-0.1,0-0.2,0-0.3c0.1-0.1,0.2-0.1,0.4-0.2c0.3-0.1,0.5-0.3,0.5-0.4c0-0.1,0.1-0.3,0.3-0.4c0.2-0.1,0.4-0.2,0.7-0.2
			c0.2,0,0.3-0.1,0.3-0.2c0-0.1,0.2-0.2,0.7-0.2c0.1,0,0.2,0,0.4,0c0.5,0,0.9,0.2,1.1,0.5c0.2,0.2,0.4,0.3,0.6,0.4
			c0.3,0.1,0.4,0.2,0.4,0.4c-0.1,0.2,0,0.3,0.1,0.4c0.1,0.1,0.3,0.4,0.4,0.9c0.1,0.4,0.1,0.6,0.2,0.7c0.1,0.1,0.2,0.2,0.4,0.3
			c0.3,0.1,0.4,0.2,0.4,0.4c0,0.1,0.1,0.2,0.2,0.1c0.1-0.1,0.2-0.6,0.2-1.5c0-1,0.1-1.5,0.2-1.5c0.1-0.1,0.1-0.3,0-0.8L299.5,783.3z
			"/>
		<path d="M312.6,782c-0.1-0.1-0.7-0.1-1.8-0.1c-1,0-1.5,0-1.5,0.1c0,0.1-0.2,0.1-0.5,0.1c-0.3,0-0.5,0.1-0.5,0.2
			c0,0.1,0,0.2-0.1,0.2c-0.1,0-0.1,0.1-0.1,0.3c0,0.3,0.1,0.4,0.2,0.5c0.1,0.1,0.2,0.5,0.2,1.3c0,0.8,0,1.2,0.1,1.3
			c0.1,0,0.1,0.4,0.1,1.1c0,0.7,0,1-0.1,1.1c-0.1,0-0.2,0.8-0.2,2.2c0,1.2-0.1,2-0.2,2.2c-0.1,0.2-0.4,0.4-0.9,0.5
			c-0.3,0-0.5,0.1-0.5,0.1c-0.1,0.1-0.1,0.2-0.1,0.4c0,0.3,0.1,0.5,0.2,0.5c0.2,0,0.3,0.1,0.5,0.2c0.2,0.2,0.3,0.2,0.3,0.1
			c0.1-0.1,0.8-0.2,2.1-0.2c1.1,0,1.6,0.1,1.6,0.2c0,0.1,0.1,0.1,0.3,0.1c0.2,0,0.3,0,0.3-0.1c0-0.1,0.1-0.2,0.3-0.3
			c0.2-0.1,0.3-0.2,0.3-0.3c0-0.5-0.4-0.7-1-0.8l-0.6-0.1l0.1-3.5c0-2.3,0.1-3.5,0.2-3.6c0.1-0.1,0.1-0.4,0.1-1
			c0.1-1.1,0.2-1.6,0.4-1.6c0.1,0,0.2,0,0.2-0.1c0-0.1,0.1-0.2,0.4-0.2c0.2,0,0.4-0.1,0.5-0.2s0.2-0.2,0.2-0.4
			C312.8,782.3,312.7,782.1,312.6,782z M309.1,790.9c-0.1,0-0.2,0-0.2-0.1s0.1-0.1,0.2-0.1c0.1,0,0.2,0,0.2,0.1
			S309.2,790.9,309.1,790.9z M309.9,787.1c-0.1,0-0.2-0.1-0.2-0.3c0-0.2,0.1-0.3,0.2-0.3c0.1,0,0.2,0.1,0.2,0.3
			C310.2,787,310.1,787.1,309.9,787.1z"/>
		<path d="M333.2,792.9c-0.1,0-0.1-0.1-0.2-0.4c-0.1-0.2-0.1-0.3-0.2-0.3c0,0-0.3,0.1-0.8,0.2c0,0-0.1,0-0.2,0c-0.4,0-0.7-0.6-1-1.7
			c-0.2-0.8-0.4-1.3-0.4-1.4c-0.1-0.1-0.2-0.3-0.2-0.5c-0.1-0.4-0.3-1.3-0.8-2.8c-0.5-1.5-0.7-2.4-0.8-2.7c-0.2-1-0.4-1.5-0.5-1.7
			s-0.2-0.3-0.4-0.3c-0.3-0.1-0.4,0-0.5,0.1c-0.1,0.1-0.2,0.2-0.4,0.2c-0.2,0-0.4,0.1-0.4,0.2c0,0.1-0.1,0.1-0.2,0.1
			c-0.1,0-0.2,0.2-0.4,0.6c-0.2,0.4-0.3,0.8-0.5,1.2c-0.1,0.4-0.2,0.6-0.3,0.7c-0.1,0.1-0.1,0.2-0.1,0.4c0,0.2-0.1,0.6-0.4,1.2
			c-0.3,0.6-0.5,1.1-0.5,1.5c-0.1,0.4-0.2,0.6-0.2,0.7c-0.1,0.1-0.2,0.3-0.4,0.8c-0.2,0.5-0.3,0.7-0.3,0.8c-0.1,0.2-0.2,0.4-0.2,0.5
			c0,0.2,0,0.2-0.1,0.2c-0.1,0-0.2,0.1-0.3,0.4c-0.1,0.2-0.2,0.4-0.2,0.6c0,0.1-0.2,0.3-0.5,0.6c-0.3,0.3-0.5,0.4-0.7,0.4
			c-0.2,0-0.3,0.1-0.5,0.4c-0.2,0.2-0.4,0.4-0.5,0.4c-0.1,0-0.2,0.1-0.4,0.4c-0.1,0.2-0.1,0.3-0.1,0.4c0,0.1,0.1,0.3,0.4,0.5
			l0.5,0.4l2-0.1c1.1,0,1.8-0.1,2.1-0.1c0.3,0,0.5-0.1,0.5-0.2c0,0,0-0.1-0.1-0.2c-0.1-0.2-0.1-0.3,0.1-0.3c0.1,0,0.2-0.1,0.2-0.2
			c0-0.1-0.1-0.2-0.2-0.2c-0.1,0-0.3-0.1-0.4-0.2c-0.1-0.1-0.4-0.2-0.7-0.3c-0.5-0.1-0.7-0.3-0.7-0.5c0-0.1,0-0.2,0.1-0.3
			c0.1-0.2,0.2-0.3,0.2-0.5c0-0.1,0-0.2,0.1-0.2c0.1,0,0.1-0.2,0.1-0.7v-0.7h0.6c0.4,0,0.7-0.1,0.7-0.2c0.1-0.2,0.6-0.2,1.5-0.2h0.4
			c0.7,0,1,0,1.1,0.1c0.1,0.1,0.2,0.4,0.2,0.8c0,0.5,0.1,0.8,0.3,0.9c0.2,0.2,0.3,0.4,0.3,0.6c0,0,0,0,0,0.1c0,0,0,0.1,0,0.1
			c0,0.3-0.1,0.4-0.1,0.5c-0.1,0.1-0.3,0.1-0.6,0.2c-0.5,0.1-0.7,0.2-0.8,0.3c0,0.1-0.1,0.1-0.3,0.1c-0.2,0-0.3,0.1-0.3,0.3
			c0,0.3,0,0.4,0.1,0.5s0.3,0.1,0.6,0.1c0.3,0,0.7,0,1.3-0.1c0.6-0.1,1.3-0.1,2-0.1c0.4,0,0.7,0,0.8,0c0.2,0,0.4,0,0.6,0
			c0.3,0,0.5-0.1,0.5-0.3c0.1-0.2,0.1-0.3,0.2-0.3c0.1,0,0.1-0.2,0.1-0.5S333.4,792.9,333.2,792.9z M327.1,788.4c0,0-0.1,0-0.2,0
			c-0.1,0-0.1,0-0.1,0c-0.3,0-0.5,0.1-0.6,0.2c-0.1,0.1-0.3,0.2-0.4,0.2c-0.2,0-0.3-0.1-0.4-0.2c-0.1-0.1-0.2-0.2-0.3-0.2
			c-0.1,0-0.2-0.1-0.2-0.2c0-0.1,0-0.2,0.1-0.2c0.1,0,0.2-0.1,0.3-0.4c0.1-0.3,0.2-0.5,0.2-0.7c0-0.2,0.1-0.3,0.2-0.4
			c0.1,0,0.2-0.3,0.2-0.8c0.1-0.6,0.3-0.9,0.6-0.9c0.2,0,0.3,0.1,0.5,0.2c0.1,0.1,0.2,0.2,0.4,0.5c0.1,0.3,0.2,0.4,0.2,0.5
			c0,0-0.1,0.1-0.3,0.1c-0.2,0-0.3,0.1-0.4,0.2c-0.1,0.1,0,0.2,0.1,0.2c0.1,0,0.2,0.1,0.2,0.2c0.1,0.1,0.2,0.3,0.2,0.4
			c0.1,0.2,0.1,0.2,0.2,0.3c0.1,0.1,0.1,0.3,0.2,0.6l0.1,0.5L327.1,788.4z"/>
		<path d="M353.4,781.6c-0.1,0-0.2,0-0.3,0.1c-0.2,0.1-0.3,0.1-0.3,0.1c-0.1,0-0.1-0.1-0.2-0.2c-0.1-0.2-0.3-0.3-0.4-0.3
			c-0.1,0-0.2-0.1-0.2-0.3c0-0.2-0.1-0.3-0.3-0.3c-0.2,0-0.3,0.1-0.3,0.3c0,0.2,0.1,0.3,0.2,0.3s0.2,0.1,0.2,0.3
			c0,0.2-0.1,0.3-0.2,0.3c-0.2,0-0.3-0.1-0.3-0.4c-0.1-0.2-0.2-0.4-0.3-0.4c-0.1,0-0.1,0-0.2,0.1c-0.2,0.2-0.2,0.3,0,0.3
			c0.1,0,0.2,0.1,0.2,0.1c0,0.1-0.1,0.2-0.4,0.2c-0.2,0-0.4,0-0.4-0.1c0-0.1-0.1-0.1-0.4-0.1c-0.4,0-0.8,0.1-1.1,0.2
			c-0.4,0.2-0.6,0.4-0.6,0.7c0,0.3,0.3,0.5,0.8,0.6c0.4,0.1,0.6,0.1,0.6,0.2c0,0.1,0.1,0.1,0.3,0.1c0.3,0,0.5,0.2,0.6,0.6
			c0.1,0.4,0.2,1.2,0.2,2.4c0,1.4,0.1,2.2,0.1,2.4c0.1,0.1,0,0.3,0,0.6l-0.1,0.4l-0.5-0.5c-0.4-0.3-0.5-0.5-0.5-0.6
			c0-0.1-0.1-0.2-0.2-0.3c-0.1-0.1-0.3-0.2-0.4-0.4c-0.2-0.1-0.3-0.2-0.3-0.2c-0.1-0.1-0.3-0.2-0.3-0.2c-0.1,0-0.2-0.1-0.2-0.2
			c0-0.1-0.1-0.2-0.2-0.3c-0.1-0.1-0.3-0.2-0.4-0.2s-0.1-0.1-0.1-0.2c0-0.1-0.1-0.2-0.2-0.2c-0.1,0-0.1,0-0.1-0.1
			c0-0.1-0.1-0.2-0.4-0.5c-0.2-0.3-0.4-0.4-0.4-0.5c0-0.1-0.1-0.2-0.3-0.2c-0.2,0-0.3-0.1-0.5-0.2c-0.2-0.1-0.2-0.3-0.2-0.4
			c0-0.1-0.2-0.3-0.5-0.7c-0.3-0.4-0.5-0.6-0.5-0.7c0-0.1-0.1-0.2-0.3-0.4c-0.2-0.2-0.3-0.4-0.3-0.4c0-0.3-0.6-0.5-1.8-0.6
			c-0.6,0-0.9-0.1-0.9-0.1c-0.3,0-0.4,0.1-0.4,0.2c0,0.1,0,0.2,0,0.4c0,0.2,0,0.4,0.1,0.6c0.1,0.2,0.1,0.3,0.2,0.3
			c0.1,0,0.2,0.2,0.3,0.6c0.1,0.4,0.2,0.6,0.2,0.6c0.1,0,0.1,0.3,0.1,0.8c0,0.5,0,0.8-0.1,0.8c-0.1,0-0.1,0.1-0.1,0.4
			c0,0.2,0.1,0.6,0.2,1c0.1,0.2,0.1,0.6,0.1,1.1c0,0.7-0.1,1.1-0.2,1.1c-0.1,0-0.1,0.2-0.1,0.7c0,0.5,0,1.1-0.1,1.5
			c0,0.4-0.1,0.6-0.1,0.7c-0.1,0.1-0.2,0.2-0.4,0.2c-0.3,0.1-0.4,0.2-0.4,0.4c0,0.2,0.1,0.4,0.4,0.6c0.2,0.2,0.3,0.3,0.5,0.3
			c0.2,0,0.8,0,1.7,0c1,0,1.6,0,1.8-0.1c0.2-0.1,0.3-0.3,0.3-0.8c0-0.3-0.1-0.4-0.3-0.5c-0.2-0.1-0.3-0.1-0.3-0.2
			c0-0.1-0.2-0.1-0.6-0.1c-0.4,0-0.7-0.1-0.9-0.3c-0.2-0.2-0.2-0.3-0.1-0.4c0.1-0.1,0.2-0.2,0.2-0.6c0-0.3,0-0.5-0.1-0.5
			c-0.1-0.1-0.1-0.9-0.1-2.6s0.1-2.5,0.2-2.5c0.1,0,0.3,0.1,0.4,0.2c0.1,0.1,0.3,0.2,0.5,0.3c0.3,0.1,0.4,0.3,0.5,0.4
			c0,0.2,0.3,0.5,0.8,1.1c0.5,0.5,0.9,0.9,1.3,1.1c0.2,0.1,0.3,0.2,0.3,0.3c0,0.1,0.2,0.2,0.5,0.6c0.7,0.7,1.1,1.1,1.1,1.4
			c0,0.1,0.1,0.1,0.3,0.1c0.2,0,0.3,0,0.3,0.1c0,0.1,0.1,0.3,0.4,0.5c0.2,0.2,0.4,0.4,0.4,0.6c0,0.1,0.1,0.3,0.3,0.5
			c0.2,0.2,0.3,0.3,0.4,0.3c0.1,0,0.3,0.2,0.6,0.5c0.3,0.3,0.5,0.5,0.7,0.6c0.1,0.1,0.2,0.1,0.3,0.1c0.4,0,0.6-0.2,0.6-0.6
			c0-0.1,0-0.2,0-0.4c0-0.9-0.1-1.4-0.2-1.6c-0.1-0.1-0.1-0.5-0.1-1.3v-0.4c0-1,0-1.6-0.1-1.6c-0.1-0.1-0.2-0.4-0.2-1
			c0-0.5,0-0.8,0.1-0.8c0.1-0.1,0.2-0.2,0.2-0.5c0-0.3,0-0.4,0.1-0.4c0.1,0,0.1-0.1,0.1-0.4c0-0.3,0-0.4-0.1-0.4
			c-0.1,0-0.1-0.1-0.1-0.4c0-0.4,0.1-0.7,0.2-1c0.2-0.3,0.4-0.5,0.7-0.5c0.2,0,0.4-0.1,0.4-0.1c0.1,0,0.1-0.2,0.1-0.5v-0.2
			C353.7,781.8,353.6,781.6,353.4,781.6z"/>
	</g>
</g>
</svg>
