<?xml version="1.0" encoding="utf-8"?>
<!-- Generator: Adobe Illustrator 21.1.0, SVG Export Plug-In . SVG Version: 6.00 Build 0)  -->
<svg version="1.1" id="Слой_1" xmlns="http://www.w3.org/2000/svg" xmlns:xlink="http://www.w3.org/1999/xlink" x="0px" y="0px"
	 viewBox="0 0 504 864" style="enable-background:new 0 0 504 864;" xml:space="preserve">
<style type="text/css">
	.st0{fill:#040404;}
	.st1{fill:#FFFFFF;}
</style>
<g>
	<g>
		<path d="M51.9,53.6c6.7-7.6,6.7-19,0.2-26.4c0.8,7.2-1.3,14.8-6.5,20.6c-5.2,5.8-12.3,8.7-19.5,8.6C34,62.2,45.2,61.1,51.9,53.6z"
			/>
		<path d="M458.4,47.7c-5.2-5.8-7.3-13.3-6.5-20.6c-6.5,7.5-6.6,18.9,0.1,26.4c6.7,7.6,17.9,8.6,25.9,2.8
			C470.7,56.4,463.6,53.5,458.4,47.7z"/>
		<path d="M26.1,807.4c7.2-0.1,14.3,2.8,19.5,8.6c5.2,5.8,7.3,13.3,6.5,20.6c6.5-7.5,6.6-18.9-0.2-26.4
			C45.2,802.6,34,801.6,26.1,807.4z"/>
		<path d="M452,810.2c-6.7,7.6-6.7,19-0.1,26.4c-0.8-7.2,1.3-14.8,6.5-20.6c5.2-5.8,12.3-8.7,19.5-8.6
			C470,801.6,458.8,802.6,452,810.2z"/>
		<path d="M503.8,18.2c-1.6-17.9-18.7-16.3-31.6-16.3c-45.9,0-91.8,0-137.6,0c-63.2,0-126.3,0-189.5,0c-40.6,0-81.2,0-121.8,0
			c-2.6,0-5.3-0.2-8,0.2c-9.5,1.2-15,9.2-15.2,18.2c-0.2,7.3,0,14.5,0,21.8c0,37.4,0,74.9,0,112.3c0,57,0,114.1,0,171.1
			c0,64.3,0,128.6,0,192.9c0,58.4,0,116.7,0,175.1c0,40.1,0,80.2,0,120.3c0,9.1,0,18.2,0,27.3c0,11.7,6.7,20.5,19.2,20.7
			c35.9,0.6,71.9,0,107.9,0c62.4,0,124.9,0,187.3,0c49.7,0,99.5,0,149.2,0c7.6,0,15.2,0,22.9,0c0.4,0,0.8-0.1,1.2-0.2
			c14.4-1.8,16.1-13.8,16.1-25.5c0-11.4,0-22.8,0-34.3c0-43.4,0-86.9,0-130.3c0-59.9,0-119.8,0-179.8c0-63.9,0-127.7,0-191.6
			c0-55.3,0-110.6,0-165.9c0-33.7,0-67.3,0-101C503.9,28.3,504.2,23.2,503.8,18.2z M486.6,852.8c-28.3,0-56.6,0-84.9,0
			c-59.9,0-119.8,0-179.7,0c-54,0-108,0-162,0c-13.1,0-26.1,0-39.2,0c-5.6,0-11-1.3-11.7-8.3c-0.2-1.5,0-3,0-4.5c0-26.5,0-53,0-79.5
			c0-50,0-100,0-149.9c0-61.8,0-123.6,0-185.4c0-61.4,0-122.7,0-184.1c0-48.9,0-97.7,0-146.6c0-24.2-0.8-48.6,0-72.7
			c0.2-5.3,1.6-10.1,8.3-10.8c2.2-0.2,4.5,0,6.7,0c14.8,0,29.6,0,44.5,0c55.6,0,111.3,0,166.9,0c58.9,0,117.8,0,176.7,0
			c18.9,0,37.9,0,56.8,0c8.1,0,24.7-3.1,25.9,8.4c0.5,5.2,0,10.8,0,16.1c0,13.5,0,27.1,0,40.6c0,45.5,0,91.1,0,136.6
			c0,60.1,0,120.2,0,180.3c0,62.6,0,125.2,0,187.7c0,52.8,0,105.6,0,158.4c0,31.4,0,62.7,0,94.1C494.8,840.3,496.9,852,486.6,852.8z
			"/>
		<path d="M460,790.9c1.2,0.1,2.4-0.7,2.4-2.2c0-23.7,0-47.4,0-71.1c0-56.4,0-112.8,0-169.2c0-68.7,0-137.4,0-206
			c0-59,0-117.9,0-176.9c0-19.6,0-39.2,0-58.8c0-8.9,1.3-19,0-27.9c-0.1-0.4,0-0.8,0-1.2c0-0.8-0.3-1.3-0.8-1.7
			c0.1-1.2-0.6-2.5-2.2-2.6c-13.1-0.5-25.3-13.8-25.8-26.7c0-0.5-0.2-0.8-0.4-1.1c-0.3-0.6-1-1.1-1.9-1.1c-40.5,0-80.9,0-121.4,0
			c-64.5,0-129,0-193.6,0c-14.9,0-29.7,0-44.6,0c-0.9,0-1.6,0.5-1.9,1.1c-0.2,0.3-0.3,0.7-0.4,1.2C69.1,59.5,57,72.8,43.9,73.3
			c-1.8,0.1-2.5,1.9-2,3.2c-0.2,0.3-0.2,0.6-0.2,1c0,23.7,0,47.4,0,71.1c0,56.4,0,112.8,0,169.2c0,68.7,0,137.4,0,206
			c0,59,0,117.9,0,176.9c0,19.6,0,39.2,0,58.8c0,8.9-1.3,19,0,27.9c0.1,0.4,0,0.8,0,1.2c0,0.9,0.5,1.6,1.1,1.9
			c0.3,0.2,0.7,0.3,1.1,0.4c13,0.5,25.3,13.3,25.8,26.2c0,0.5,0.2,0.8,0.4,1.1c0.3,0.6,1,1.1,1.9,1.1c40.5,0,80.9,0,121.4,0
			c64.5,0,129,0,193.6,0c14.9,0,29.7,0,44.6,0c0.9,0,1.6-0.5,1.9-1.1c0.2-0.3,0.3-0.7,0.4-1.2c0.5-12.9,12.7-25.7,25.8-26.2
			C459.6,791,459.8,790.9,460,790.9z M429.3,814.9c-39.8,0-79.6,0-119.3,0c-64.5,0-129,0-193.6,0c-14.2,0-28.3,0-42.5,0
			c-1.7-13.9-13.9-26.5-27.8-28.3c0-23,0-46,0-69.1c0-56.4,0-112.8,0-169.2c0-68.7,0-137.4,0-206c0-59,0-117.9,0-176.9
			c0-19.6,0-39.2,0-58.8c0-8.9,1.3-19,0-27.9c-0.1-0.4,0-0.8,0-1.2c14-1.8,26.1-14.9,27.8-28.7c39.8,0,79.5,0,119.3,0
			c64.5,0,129,0,193.6,0c14.2,0,28.3,0,42.5,0c1.7,14.1,14.3,27.4,28.5,28.8c0,23.7,0,47.3,0,71c0,56.4,0,112.8,0,169.2
			c0,68.7,0,137.4,0,206c0,59,0,117.9,0,176.9c0,19.6,0,39.2,0,58.8c0,8.6-1.2,18.4-0.1,27C443.6,788.1,431.1,800.9,429.3,814.9z"/>
		<path d="M215.9,86.7c0-0.2,0-0.3-0.1-0.5c-0.1-0.5-0.3-0.5-0.6-0.2c-0.1,0.1,0,0.4,0.3,0.8l0.3,0.6L215.9,86.7z"/>
		<path d="M232.9,78.5c-1.5,0-2.3,0.1-2.3,0.4c0,0.2-0.6,0.4-1.9,0.5c-1.9,0.1-2.8,0.6-2.8,1.4c0,0.3,0.1,0.6,0.3,1
			c0.2,0.4,0.4,0.6,0.5,0.6c0.2,0,0.5,0.2,0.6,0.6c0.2,0.4,0.2,0.7-0.1,1.1c-0.2,0.3-0.3,0.5-0.2,0.5c0,0,0,0.1,0,0.2
			c-0.1,0.1-0.1,0.3-0.2,0.5c-0.3,0.4-0.4,0.8-0.4,1.1c0,0.4-0.2,0.7-0.6,1.1c-0.4,0.4-0.6,0.7-0.6,0.9c0,0.3-0.3,0.4-0.9,0.4
			c-0.4,0-0.6-0.1-0.8-0.2c-0.1-0.1-0.2-0.4-0.3-0.8c-0.1-0.6-0.4-1.1-0.7-1.3c-0.4-0.2-0.5-0.5-0.5-1c0-0.4-0.1-0.7-0.4-1.1
			c-0.3-0.3-0.5-0.6-0.5-1c-0.1-0.9-0.2-1.4-0.2-1.4c0-0.4,0.3-0.6,0.9-0.6c0.3,0,0.6-0.1,0.8-0.1c0.2-0.1,0.3-0.1,0.3-0.2
			c0.1-0.1,0.1-0.2,0.1-0.4c0-0.2,0-0.4-0.1-0.6l-0.2-0.8l-2.3,0.1c-1.5,0.1-2.3,0.2-2.4,0.4c0,0.1-0.2,0.2-0.4,0.3
			c-0.2,0.1-0.4,0.1-0.6,0c-0.2-0.1-0.3-0.1-0.3-0.2c0-0.1-0.2-0.3-0.5-0.4c-0.4-0.2-0.7-0.2-1.1-0.2c-0.5,0-0.8,0.2-0.8,0.6
			c0,0.2-0.2,0.4-0.7,0.4c-0.2,0-0.3,0.1-0.4,0.2c0.2,0.1,0.3,0.3,0.3,0.6c0,0.3,0.1,0.5,0.4,0.5c0.3,0,0.5,0.1,0.6,0.4
			c0.1,0.2,0.4,0.4,1.1,0.6c0.7,0.1,1.1,0.4,1.2,0.8c0.2,0.4,0.4,0.6,0.6,0.6c0.2,0,0.3,0.3,0.3,0.8c0,0.5,0.1,0.8,0.4,0.8
			c0.2,0,0.4,0.2,0.4,0.5c0,0.4,0.2,0.7,0.6,0.9c0.3,0.2,0.5,0.5,0.4,0.6c-0.1,0.2,0,0.4,0.2,0.5c0.2,0.1,0.5,0.4,0.7,0.9
			c0.2,0.5,0.4,0.8,0.6,0.8c0.1,0,0.2,0.2,0.2,0.5c0,0.4,0.2,0.6,0.6,0.7c0.2,0.1,0.4,0.2,0.4,0.5c0,0.1,0,0.3-0.1,0.5
			c-0.1,0.2-0.1,0.4-0.1,0.5c0,0.2-0.2,0.4-0.5,0.5c-0.3,0.1-0.5,0.4-0.7,0.9c-0.1,0.5-0.3,0.8-0.4,0.8c-0.2,0-0.5,0.3-1.1,0.9
			c-0.5,0.6-0.8,1-0.8,1.3c0,0.3-0.1,0.5-0.4,0.5c-0.3,0-0.4,0.1-0.4,0.3c0,0.3-0.2,0.5-0.6,0.7c-0.4,0.2-0.6,0.5-0.6,1.1
			c0,0.2,0,0.4,0,0.4c0,0.1-0.1,0.2-0.2,0.2s-0.3,0.1-0.4,0.1c-0.2,0-0.5,0-0.9,0.1c-0.9,0-1.4,0.2-1.7,0.4
			c-0.2,0.2-0.4,0.7-0.4,1.4l0.2,0.8c0.2,0.4,0.3,0.3,0.5-0.2c0.1-0.2,1.2-0.4,3.3-0.4c1.4,0,2.3,0,2.6,0.1c0.3,0,0.5,0.2,0.5,0.4
			c0,0.1,0.1,0.2,0.2,0.2c0.2-0.2,0.4-0.3,0.5-0.3c0,0,0.1,0.1,0.2,0.1c0.2,0,0.4-0.1,0.6-0.3c0.2-0.2,0.4-0.5,0.5-0.8
			c0.1-0.2,0.1-0.4-0.1-0.5c-0.1-0.1-0.4-0.2-0.9-0.2c-1.2-0.2-1.8-0.6-1.8-1.2c0-0.2,0.1-0.3,0.4-0.3c0.2,0,0.4-0.2,0.4-0.6
			c0-0.4,0.1-0.6,0.4-0.6c0.2,0,0.4-0.1,0.4-0.4c0-0.1,0.2-0.4,0.6-0.8c0.4-0.5,0.6-0.8,0.6-0.9c0-0.5,0.1-1,0.3-1.5
			c0.3-0.5,0.6-0.7,0.9-0.7l0.1,0.1c0,0,0.1,0,0.1,0c0.3,0.1,0.4,0.2,0.4,0.5c0,0.1,0.3,0.5,0.8,1.2c0.5,0.7,0.8,1.1,0.8,1.2
			c0,0.2,0.1,0.3,0.4,0.4c0.2,0.1,0.4,0.4,0.5,0.9c0.1,0.5,0.4,0.8,1,0.9l0.9,0.2l-0.8,0.1c-0.6,0.1-0.9,0.3-0.9,0.6
			c0,0.7-0.4,1.1-1.3,1.1c-0.5,0-0.7,0.2-0.7,0.7v0.6h3.4c2.3,0,3.5,0.1,3.6,0.4c0.1,0.2,0.3,0.2,0.6-0.1c0.2-0.3,0.7-0.4,1.4-0.3
			l1,0.2v-0.9c0-0.4-0.1-0.7-0.2-0.9c-0.1-0.2-0.4-0.3-0.9-0.5c-0.7-0.2-1.1-0.4-1.1-0.6c0-0.1-0.3-0.3-0.8-0.6
			c-0.5-0.3-0.8-0.5-0.8-0.7c0-0.3-0.1-0.7-0.3-1.1c-0.2-0.4-0.4-0.6-0.6-0.6c-0.1,0-0.3-0.3-0.5-0.8c-0.2-0.5-0.4-0.8-0.5-0.8
			c-0.2,0-0.4-0.2-0.5-0.5c-0.1-0.3-0.5-0.9-1.3-1.7c-0.8-0.8-1.2-1.2-1.4-1.2c-0.1,0-0.2-0.1-0.2-0.4c0-0.8,0.4-1.6,1.1-2.4
			c0.6-0.7,0.9-1.1,0.9-1.4c0-0.2,0.3-0.5,0.8-1.1c0.5-0.5,0.9-0.8,1.1-0.8c0.1,0,0.2-0.2,0.2-0.5c0-0.9,0.3-1.4,0.8-1.4
			c0.3,0,0.5-0.1,0.5-0.3c0-0.2,0.2-0.4,0.5-0.7c0.3-0.3,0.6-0.4,0.8-0.4c0.3,0,0.6-0.2,0.8-0.6l0.4-0.6l0.2,0.6
			c0.1,0.2,0.2,0.4,0.3,0.5c0.1,0.1,0.3,0.1,0.4,0c0.1-0.1,0.2-0.2,0.3-0.4c0.1-0.4,0.3-0.5,0.7-0.5c0.2,0,0.4-0.1,0.4-0.2
			c0.1-0.1,0.1-0.4,0.1-0.8c0-0.9-0.1-1.4-0.3-1.6C234.9,78.6,234.2,78.5,232.9,78.5z M220,81.1c0,0.1,0,0.1-0.1,0.1l-0.1-0.3
			c0-0.1,0-0.2,0.1-0.3c0-0.1,0.1-0.1,0.1,0.1C220.1,80.9,220.1,81,220,81.1z M220.5,85.6c-0.1,0-0.2,0-0.2-0.1
			c0-0.1,0.1-0.2,0.2-0.2c0.1,0,0.1,0.1,0.1,0.2C220.6,85.5,220.6,85.6,220.5,85.6z M221.1,87.2c0,0.1,0,0.1-0.1,0.1l-0.1-0.3
			c0-0.2,0.1-0.3,0.2-0.2C221.1,87,221.1,87.1,221.1,87.2z M224,93.1c-0.2,0-0.3-0.1-0.3-0.3c0-0.2,0.1-0.3,0.3-0.3s0.3,0.1,0.3,0.3
			C224.3,93.1,224.2,93.1,224,93.1z"/>
		<path d="M261,78.2h-3.7c-2.5,0-3.7,0.1-3.7,0.3c0,0.2-0.1,0.3-0.3,0.3c-0.3,0-0.6,0.2-0.9,0.6c-0.4,0.5-0.4,0.7-0.2,0.7
			c0.3,0,0.5,0.1,0.5,0.4c0.1,0.3,0.5,0.4,1.1,0.4c0.6,0,1,0.2,1.1,0.7c0.1,0.5,0.1,0.7-0.1,0.8c-0.2,0.1-0.3,0.5-0.3,1.3
			c0,0.7-0.1,1.2-0.4,1.3c-0.2,0.1-0.3,0.3-0.3,0.7c0,0.1,0.1,0.2,0.1,0.4c0,0.5-0.1,0.9-0.3,1.4c-0.2,0.5-0.4,0.8-0.7,0.8
			c-0.4,0.1-0.5,0.4-0.5,0.9c0,0.5-0.1,0.9-0.3,1.1c-0.2,0.2-0.3,0.8-0.4,1.7c-0.1,1-0.3,1.5-0.6,1.5c-0.4,0-0.5,0.2-0.4,0.5
			c0,0.2,0,0.4,0,0.4c-0.1,0.1-0.2,0.1-0.4,0.1c-0.4,0-0.7-0.1-0.9-0.2c-0.5-0.3-0.7-1.2-0.8-2.9c0-0.7-0.1-1.2-0.4-1.4
			c-0.2-0.2-0.3-0.7-0.3-1.6c0-1.3-0.3-2.2-0.9-2.6c-0.2-0.1-0.2-0.3,0.1-0.4c0.1,0,0.2-0.2,0.3-0.4c0.1-0.2,0.1-0.5,0.1-0.7
			c0-0.2-0.1-0.3-0.2-0.3c-0.1,0-0.3-0.3-0.4-0.8c-0.1-0.6-0.4-0.9-0.7-0.9c-0.3-0.1-0.4-0.2-0.4-0.3c0-0.4,0.5-0.5,1.4-0.5
			c1.3,0,1.9-0.2,1.9-0.7c0-0.2,0.1-0.4,0.3-0.4c0.2,0,0.1-0.3-0.3-0.8c-0.4-0.5-0.9-0.8-1.6-0.8c-0.7,0-1.1-0.1-1.2-0.3
			c-0.1-0.1-0.3-0.1-0.7,0.1c-0.4,0.2-0.6,0.2-0.7-0.1c-0.2-0.2-0.3-0.3-0.4-0.1c-0.1,0.2-0.5,0.3-1.1,0.3c-0.4,0-0.6,0-0.8-0.1
			c-0.1-0.1-0.2-0.3-0.3-0.7c-0.1-0.5-0.3-0.8-0.7-0.8c-0.2,0-0.5,0.2-0.8,0.5c-0.4,0.4-0.7,0.5-1.2,0.5c-0.4,0-0.6,0.1-0.6,0.4
			c0,0.3-0.1,0.4-0.3,0.4s-0.3,0.2-0.3,0.6c0,0.5,0.1,0.7,0.3,0.7s0.3,0.1,0.3,0.4c0,0.2,0.3,0.4,1,0.5c0.6,0.1,1.1,0.4,1.5,0.9
			s0.7,1.1,0.7,1.6c0,0.5,0.1,1,0.3,1.6c0.2,0.6,0.4,0.9,0.5,0.9c0.1,0,0.2,0.3,0.2,0.8c0,0.6,0.2,1.1,0.5,1.4
			c0.3,0.3,0.5,0.9,0.8,1.8c0.2,0.9,0.3,1.7,0.3,2.5c0,0.9,0.1,1.4,0.4,1.4c0.1,0.1,0.2,0.3,0.2,0.7c0,0.4,0.1,0.6,0.2,0.6
			c0.2,0.1,0.3,0.6,0.3,1.6c0,0.9,0.1,1.4,0.4,1.4c0.2,0,0.4,0.3,0.6,1c0.2,0.7,0.4,1,0.5,1c0.2,0,0.3,0.3,0.4,0.8
			c0.1,0.7,0.5,1,1.3,1c0.1,0,0.3,0,0.6-0.1c0.5-0.1,0.7-0.4,0.7-1.1c0-0.6,0.1-0.9,0.3-0.9c0.2,0,0.3-0.3,0.3-0.9
			c0-0.6,0.1-0.9,0.3-0.9c0.2-0.1,0.3-0.6,0.3-1.5c0-0.9,0.2-1.6,0.6-1.9c0.5-0.5,0.8-0.7,1.1-0.8c0.3-0.1,0.4-0.5,0.4-1.3
			c0-0.8,0.1-1.2,0.4-1.4c0.2-0.1,0.4-0.6,0.6-1.5c0.2-0.9,0.3-1.4,0.4-1.5c0.3-0.2,0.4-0.5,0.4-0.9c0-0.4,0.2-0.6,0.7-0.7
			c0.4,0,0.6-0.3,0.6-0.7c0-0.2-0.1-0.6-0.1-1c0-1,0.2-1.5,0.6-1.5c0.4,0,0.5-0.3,0.5-0.8c0-0.5,0.2-0.9,0.6-1.4
			c0.4-0.4,0.9-0.7,1.6-0.8c0.8-0.2,1.2-0.6,1.2-1.4c0-0.1,0-0.4-0.1-0.7L261,78.2z"/>
		<path d="M266,103.3c0.1-0.2,1.5-0.4,4-0.4c2.1,0,3.2,0.1,3.2,0.3c0,0.2,0.2,0.3,0.5,0.3c0.4,0,0.6-0.1,0.6-0.2
			c0-0.1,0.2-0.3,0.6-0.5c0.4-0.2,0.6-0.4,0.6-0.6c0-0.9-0.7-1.4-1.9-1.5l-1.3-0.1l0.1-6.7c0.1-4.5,0.2-6.8,0.3-7
			c0.1-0.1,0.2-0.8,0.3-1.9c0.1-2.1,0.4-3.2,0.7-3.2c0.2,0,0.4-0.1,0.4-0.3c0-0.2,0.2-0.3,0.7-0.3c0.4,0,0.8-0.1,1-0.3
			c0.3-0.2,0.4-0.5,0.4-0.7c0-0.3-0.2-0.6-0.5-0.8c-0.3-0.2-1.4-0.3-3.4-0.3c-2,0-2.9,0.1-2.9,0.3c0,0.1-0.3,0.2-0.9,0.2
			c-0.6,0-0.9,0.1-0.9,0.4c0,0.3-0.1,0.4-0.3,0.4s-0.3,0.2-0.3,0.6c0,0.5,0.1,0.8,0.4,0.9c0.3,0.1,0.4,0.9,0.4,2.5
			c0,1.6,0.1,2.4,0.3,2.5c0.2,0.1,0.3,0.8,0.3,2.2c0,1.3-0.1,2-0.3,2.1c-0.2,0.1-0.4,1.5-0.4,4.3c-0.1,2.4-0.2,3.9-0.4,4.3
			c-0.2,0.5-0.8,0.8-1.8,0.9c-0.6,0-0.9,0.1-1,0.2c-0.1,0.1-0.2,0.4-0.2,0.8c0,0.6,0.1,0.9,0.4,0.9c0.3,0,0.6,0.1,0.9,0.4
			C265.7,103.4,265.9,103.5,266,103.3z M270.6,88c0.3,0,0.4,0.2,0.4,0.6c0,0.4-0.1,0.5-0.4,0.5c-0.3,0-0.4-0.2-0.4-0.5
			C270.2,88.2,270.3,88,270.6,88z M269,96c0.2,0,0.4,0.1,0.4,0.3c0,0.2-0.1,0.3-0.4,0.3c-0.3,0-0.4-0.1-0.4-0.3
			C268.6,96.1,268.7,96,269,96z"/>
		<path d="M288.2,103.2c0,0.2,0.2,0.3,0.5,0.3c0.4,0,0.6-0.1,0.6-0.2c0-0.1,0.2-0.3,0.6-0.5c0.4-0.2,0.6-0.4,0.6-0.6
			c0-0.9-0.7-1.4-1.9-1.5l-1.3-0.1l0.1-6.7c0.1-4.5,0.2-6.8,0.3-7c0.1-0.1,0.2-0.8,0.3-1.9c0.1-2.1,0.4-3.2,0.7-3.2
			c0.2,0,0.4-0.1,0.4-0.3c0-0.2,0.2-0.3,0.7-0.3c0.4,0,0.8-0.1,1-0.3c0.3-0.2,0.4-0.5,0.4-0.7c0-0.3-0.2-0.6-0.5-0.8
			c-0.3-0.2-1.4-0.3-3.4-0.3c-2,0-2.9,0.1-2.9,0.3c0,0.1-0.3,0.2-0.9,0.2s-0.9,0.1-0.9,0.4c0,0.3-0.1,0.4-0.3,0.4s-0.3,0.2-0.3,0.6
			c0,0.5,0.1,0.8,0.4,0.9c0.3,0.1,0.4,0.9,0.4,2.5c0,1.6,0.1,2.4,0.3,2.5c0.2,0.1,0.3,0.8,0.3,2.2c0,1.3-0.1,2-0.3,2.1
			c-0.2,0.1-0.4,1.5-0.4,4.3c-0.1,2.4-0.2,3.9-0.4,4.3c-0.2,0.5-0.8,0.8-1.8,0.9c-0.6,0-0.9,0.1-1,0.2c-0.1,0.1-0.2,0.4-0.2,0.8
			c0,0.6,0.1,0.9,0.4,0.9c0.3,0,0.6,0.1,0.9,0.4c0.3,0.3,0.5,0.4,0.6,0.2c0.1-0.2,1.5-0.4,4-0.4C287.2,102.9,288.2,103,288.2,103.2z
			 M285.6,88c0.3,0,0.4,0.2,0.4,0.6c0,0.4-0.1,0.5-0.4,0.5c-0.3,0-0.4-0.2-0.4-0.5C285.2,88.2,285.3,88,285.6,88z M284,96.6
			c-0.3,0-0.4-0.1-0.4-0.3c0-0.2,0.1-0.3,0.4-0.3c0.2,0,0.4,0.1,0.4,0.3C284.4,96.5,284.2,96.6,284,96.6z"/>
		<path d="M191.7,785.3c0.1,0,0.2-0.2,0.2-0.5c0-0.2,0-0.4-0.1-0.4c-0.1,0-0.1-0.1-0.1-0.3c0-0.2,0.1-0.4,0.2-0.6
			c0.1-0.3,0.1-0.5-0.2-0.6c-0.2-0.2-0.5-0.3-0.9-0.3c-0.5,0-0.8,0.1-1.1,0.4c-0.3,0.2-0.4,0.3-0.5,0.2c-0.1-0.1-0.4-0.1-0.8,0
			c-0.5,0.1-1.4,0.2-2.6,0.2c-0.9,0-1.4,0-1.5-0.1c-0.1-0.1-0.2,0-0.4,0.2c-0.1,0.1-0.3,0.2-0.4,0.2c-0.2,0-0.4,0-0.7-0.1
			c-0.7-0.2-1.1-0.2-1.3-0.2c-0.1,0-0.2,0-0.2,0c-0.1,0-0.3,0.1-0.4,0.3c-0.1,0.2-0.2,0.4-0.2,0.5c0,0.1,0,0.1,0.1,0.2
			c0,0,0.1,0.2,0.1,0.5c0,0.1,0,0.2-0.1,0.3c-0.1,0-0.2,0.1-0.3,0.1c-0.3,0-0.5,0.1-0.5,0.3c0,0,0,0.1,0.1,0.2
			c0.1,0.1,0.1,0.3,0.1,0.6c0,0.3-0.1,0.4-0.1,0.5c0,0.5,0.2,0.8,0.6,0.8c0.3,0,0.4-0.1,0.4-0.2c0-0.1,0.1-0.2,0.2-0.2
			c0.1,0,0.1,0,0.2-0.1c0,0,0-0.1,0-0.2c0-0.1-0.1-0.2-0.2-0.2c-0.1-0.1-0.1-0.1-0.1-0.2c0,0,0-0.1,0-0.1c0,0,0-0.1,0.1-0.1
			c0,0,0.1,0,0.2-0.1c0.2-0.1,0.2-0.2,0.2-0.3c0,0,0-0.1,0-0.2c0-0.1,0-0.1,0-0.2c0-0.1,0-0.2,0.1-0.2c0.1-0.1,0.1-0.3,0-0.6
			c-0.1-0.3-0.1-0.4,0-0.4c0.1,0,0.1,0.1,0.1,0.2c0,0.1,0.2,0.2,0.5,0.4c0.4,0.1,0.7,0.2,1.1,0.2c0.4,0,0.7,0.1,0.8,0.3
			c0.2,0.2,0.3,0.2,0.5,0.2c0.1,0,0.1,0,0.1,0c0.1,0,0.1,0,0,0.1c-0.3,0.3-0.4,2.2-0.5,5.8c0,0.8-0.1,1.2-0.3,1.4
			c-0.2,0.1-0.3,0.3-0.3,0.4c0,0.1-0.3,0.2-0.8,0.2l-0.7,0.1l-0.1,0.5c0,0,0,0.1,0,0.1s0,0.1,0,0.1c0,0.2,0.1,0.4,0.4,0.7
			c0.3,0.3,0.5,0.4,0.7,0.4c0.1,0,0.1,0,0.1-0.1c0-0.1,0-0.1-0.1-0.1c-0.1,0-0.1,0-0.1-0.1c0-0.1,0.2-0.1,0.5-0.1c0.1,0,0.4,0,0.8,0
			c0.4,0,0.7,0,0.9,0c0.6,0,0.9-0.1,1.1-0.2c0.1-0.1,0.3-0.2,0.6-0.1c0.2,0.1,0.3,0,0.4-0.1c0.1-0.1,0.2-0.1,0.3-0.1
			c0.1,0,0.3-0.1,0.5-0.2c0.1-0.1,0.2-0.2,0.2-0.3c0-0.1-0.1-0.2-0.2-0.5c-0.2-0.3-0.3-0.4-0.5-0.4c-0.1,0-0.2-0.1-0.2-0.2
			c0-0.1-0.1-0.2-0.3-0.1c0,0-0.1,0-0.1,0c-0.1,0-0.1,0-0.1,0c-0.1,0-0.2,0-0.3-0.1c0-0.1-0.1-0.3-0.1-0.5v-0.4c0-0.5,0-0.8,0-0.9
			c0-0.1,0.1-0.2,0.2-0.2c0.2,0,0.2-0.1,0.2-0.4c0-0.3-0.1-0.5-0.2-0.5c-0.1,0-0.2-0.4-0.2-1.1c0-0.8,0.1-1.2,0.2-1.4
			c0.1-0.1,0.2-0.5,0.2-1.2c0-0.7,0.1-1,0.1-1.1c0.1-0.2,0.5-0.2,1.2-0.2c1,0,1.5,0.1,1.6,0.4c0,0.1,0.1,0.2,0.4,0.5
			c0.2,0.2,0.3,0.4,0.3,0.8c0,0.3,0.1,0.5,0.1,0.5c0,0.1,0.2,0.1,0.4,0.1c0.2,0,0.4,0,0.4-0.1c0-0.1,0.1-0.2,0.3-0.2
			c0.2-0.1,0.3-0.2,0.3-0.4c0-0.2-0.1-0.4-0.2-0.5C191.6,785.4,191.5,785.3,191.7,785.3z"/>
		<path d="M212.3,781.9c-0.2-0.1-0.5-0.1-0.8-0.1c-0.1,0-0.2,0-0.5,0.1c-0.3,0.1-0.5,0.1-0.7,0.1h-0.1h-0.2c-0.2,0-0.5,0-1,0.1
			c-0.4,0-0.7,0.1-0.8,0.1c-0.1,0-0.2,0.1-0.2,0.2c0,0.2,0,0.3-0.1,0.3c-0.1,0-0.1,0-0.1,0.1c0,0.1,0,0.2,0,0.3
			c0,0.1,0.1,0.2,0.2,0.2c0.1,0.1,0.2,0.5,0.2,1.3c0,0.8,0.1,1.2,0.2,1.2c0.1,0,0.1,0.3,0.1,0.8v0.8h-1.3c-0.8,0-1.7,0-2.7-0.1
			l-1.4-0.1v-0.7c0-0.4,0-0.7,0.1-0.7c0.1,0,0.1-0.3,0.2-0.9c0-1.1,0.1-1.6,0.4-1.6c0.1,0,0.2,0,0.2-0.1c0-0.1,0.1-0.2,0.4-0.2
			c0.2,0,0.4-0.1,0.5-0.2c0.1-0.1,0.2-0.2,0.2-0.4c0-0.2-0.1-0.3-0.2-0.4c-0.2-0.1-0.5-0.2-1-0.2c-0.3,0-0.4,0-0.5,0.1
			c0,0-0.5,0.1-1.3,0.1c-0.9,0.1-1.7,0.2-2.4,0.5c-0.1,0-0.2,0.1-0.2,0.2c0,0.1,0.2,0.2,0.6,0.4l0.6,0.3l0,0.8v0.9v0.3
			c0,0.2,0,0.4,0.1,0.4c0.1,0.1,0.2,0.5,0.2,1.1c0,0.6-0.1,1.1-0.2,1.4c-0.1,0.3-0.2,0.5-0.2,0.8c0,0,0,0,0,0.1c0,0,0,0.1,0,0.1
			c0,0.2,0.1,0.4,0.1,0.6c0,0.5,0,1.1-0.1,1.8c-0.1,0.6-0.2,1-0.2,1.2c-0.1,0.2-0.4,0.3-0.8,0.3c-0.3,0-0.5,0.1-0.6,0.1
			c-0.1,0.1-0.1,0.2-0.1,0.4v0.5l0.7-0.1c0.3-0.1,1-0.1,2.2-0.1h0.7h0.7c1,0,1.6,0,1.6-0.1c0-0.1-0.1-0.3-0.2-0.5
			c-0.2-0.2-0.3-0.3-0.4-0.3H204c-0.2,0.1-0.4,0.1-0.6-0.1c-0.1-0.1-0.2-0.1-0.3-0.2c0-0.1-0.1-0.2-0.1-0.4c0-0.3,0-0.5,0-0.8
			c0-0.9,0.1-1.6,0.1-2.1v-0.8h4.9l0.1,0.4c0,0.2,0.1,0.5,0.1,0.7c0,0.5,0,1.1-0.1,1.7c-0.1,0.6-0.2,1-0.3,1
			c-0.1,0.1-0.4,0.2-0.8,0.3c-0.3,0-0.5,0.1-0.5,0.1c-0.1,0.1-0.1,0.2-0.1,0.4c0,0.3,0.1,0.5,0.3,0.5c0.3,0.1,1.3,0.1,3.1,0.1
			c1.3,0,2,0,2.1-0.1c0.2-0.1,0.3-0.2,0.3-0.4c0-0.2-0.1-0.3-0.2-0.5c-0.1-0.1-0.3-0.2-0.4-0.2c0,0,0,0-0.1,0c0,0,0,0-0.1,0
			c-0.1,0.1-0.3,0.1-0.5,0l-0.4-0.1l0.1-3.5c0-2.3,0.1-3.5,0.2-3.6c0.1,0,0.1-0.3,0.1-0.9c0.1-1.1,0.2-1.6,0.4-1.6
			c0.1,0,0.2,0,0.2-0.1c0-0.1,0.1-0.2,0.4-0.2c0.2,0,0.4-0.1,0.5-0.2c0.2-0.1,0.2-0.3,0.2-0.4C212.6,782.1,212.5,782,212.3,781.9z
			 M201.5,790.8c-0.2-0.1-0.3-0.1-0.3-0.2c0-0.1,0-0.1,0.1-0.1c0.2,0,0.3,0.1,0.4,0.2c0,0,0,0,0,0.1
			C201.7,790.8,201.6,790.8,201.5,790.8z M202.1,790.7c-0.1,0-0.1-0.1-0.1-0.2c0-0.1,0-0.2,0.1-0.2c0.1,0,0.2,0.1,0.2,0.2
			C202.3,790.7,202.2,790.7,202.1,790.7z M202.2,787c-0.1,0-0.2-0.1-0.2-0.3c0-0.3,0.1-0.4,0.2-0.4c0.2,0,0.2,0.1,0.2,0.3
			C202.3,786.9,202.3,787,202.2,787z M209.3,790.8c-0.1,0.1-0.2,0.1-0.4,0c-0.2-0.1-0.3-0.1-0.3-0.2c0-0.1,0.1-0.1,0.2-0.1
			c0.3,0,0.5,0.1,0.5,0.2C209.3,790.7,209.3,790.8,209.3,790.8z M209.6,790.7c-0.1,0-0.2-0.1-0.2-0.2c0-0.1,0.1-0.2,0.2-0.2
			c0.1,0,0.1,0.1,0.1,0.2C209.8,790.7,209.7,790.7,209.6,790.7z M209.6,787c-0.1,0-0.2-0.1-0.2-0.3c0-0.3,0.1-0.4,0.2-0.4
			c0.1,0,0.2,0.1,0.2,0.3C209.8,786.9,209.8,787,209.6,787z"/>
		<path d="M219.8,792c0.1-0.2,0.1-0.3,0-0.3c-0.1,0-0.2,0.1-0.2,0.2c0,0.1,0,0.2,0.1,0.2C219.7,792.1,219.7,792.1,219.8,792z"/>
		<path d="M229.8,790.2c-0.1,0-0.3,0.2-0.5,0.5c-0.3,0.3-0.4,0.6-0.4,0.7c0,0.1-0.1,0.2-0.4,0.2c-0.1,0-0.2,0-0.3,0.1
			c0,0-0.1,0.1-0.1,0.1c0,0,0,0.1,0,0.3c0,0.2-0.1,0.3-0.4,0.3c0,0-0.1,0-0.1,0c-0.1,0-0.1,0-0.2,0c-0.2,0-0.4,0.1-0.6,0.3
			c-0.2,0.2-0.4,0.3-0.6,0.3c-0.1,0-0.2-0.1-0.2-0.2c0-0.1-0.1-0.1-0.4,0c-0.2,0.1-0.6,0.2-1.2,0.2c-0.5,0-0.7,0-0.7-0.1
			c0-0.1-0.1-0.1-0.2-0.1c-0.1,0-0.1-0.1-0.2-0.2c-0.1-0.2-0.1-0.3-0.1-0.4c0-0.1,0-0.2,0-0.3c0-0.2,0-0.4,0-0.6c0-0.3,0-0.5,0-0.8
			c0-0.3,0-0.5,0-0.8c0-0.3,0-0.5,0-0.6v-0.2c0-0.1,0.4-0.1,1.3-0.1c0.7,0,1.2,0.1,1.4,0.2c0.2,0.1,0.4,0.4,0.4,0.8
			c0,0.2,0,0.3,0.1,0.3c0,0,0.1,0,0.2,0c0.1-0.1,0.3-0.1,0.5-0.1c0.1,0,0.2,0,0.3-0.1c0-0.1,0.1-0.2,0.1-0.5c0-0.1,0-0.2,0-0.3
			c0-0.2,0-0.3,0-0.4v-0.2c0-0.3,0-0.6,0.1-0.7c0.1-0.1,0.1-0.3,0-0.4c-0.1-0.1-0.1-0.3,0.1-0.4c0.1-0.1,0.2-0.2,0.2-0.4
			c0-0.3-0.3-0.4-1-0.4c-0.4,0-0.6,0.2-0.6,0.5c0,0.1,0,0.2,0.1,0.3c0,0.2,0,0.4,0,0.5c-0.1,0.1-0.3,0.2-0.9,0.3
			c-0.5,0.1-1,0.1-1.5,0.1h-0.6v-0.6c0-0.4,0.1-0.6,0.2-0.6c0.1,0,0.2-0.1,0.2-0.4c0-0.3-0.1-0.5-0.2-0.9c-0.1-0.2-0.2-0.4-0.1-0.4
			c0-0.1,0.1-0.1,0.2-0.3c0.2-0.1,0.3-0.3,0.2-0.5c0,0,0-0.1,0-0.2c0-0.1,0.1-0.3,0.4-0.3c0.3-0.1,0.7-0.1,1.5-0.2
			c0.7,0,1.1-0.1,1.1-0.1c0.3,0,0.5,0.1,0.6,0.2c0.1,0.2,0.3,0.3,0.5,0.4c0.2,0.1,0.3,0.2,0.3,0.3c0,0.1,0.1,0.2,0.3,0.3
			c0.2,0.1,0.3,0.2,0.3,0.3c0,0.2,0.1,0.3,0.3,0.5c0.2,0.2,0.4,0.2,0.6,0.2h0c0.3,0,0.4-0.2,0.4-0.6c0-0.2-0.1-0.3-0.2-0.5
			c-0.1-0.1-0.2-0.3-0.2-0.5c0-0.3-0.1-0.5-0.2-0.5c-0.1,0-0.1-0.1,0-0.4c0.1-0.1,0.1-0.2,0.1-0.3c0,0-0.1-0.1-0.1-0.1
			c-0.1-0.1-0.2-0.2-0.2-0.3c0-0.1-0.1-0.3-0.3-0.5c-0.2-0.2-0.4-0.3-0.6-0.1c-0.3,0.1-1.8,0.3-4.7,0.4h-0.7c-1.5,0-2.2-0.1-2.3-0.3
			c0-0.1-0.1-0.1-0.2-0.1s-0.2,0-0.2,0.1l0,0.1c0,0.1,0,0.1,0,0.1c0,0,0,0.1,0,0.2c0,0.1,0,0.2,0,0.2c0,0.2-0.1,0.3-0.3,0.3
			c-0.2,0.1-0.3,0.2-0.2,0.5c0.1,0.2,0.1,0.4,0.2,0.5s0.2,0.1,0.3,0.1c0.1,0,0.3,0,0.4,0c0.1,0,0.2,0,0.4,0c0.3,0,0.5,0.1,0.6,0.4
			c0.1,0.2,0.1,0.7,0.1,1.4c0,0.9-0.1,1.4-0.2,1.4c-0.1,0-0.1,0.2,0,0.4c0.1,0.2,0.1,0.4,0,0.6c-0.1,0.2-0.2,0.3-0.3,0.3
			c-0.1,0-0.1,0.1,0.1,0.2c0.1,0.1,0.1,0.3,0.1,0.6c0,0.5-0.1,1.5-0.2,2.8l-0.1,0.9h-0.6c-0.4,0-0.6,0.1-0.6,0.3
			c0,0.2-0.1,0.3-0.3,0.3c-0.1,0-0.2,0.1-0.2,0.3c0,0.3,0.1,0.5,0.3,0.6c0.2,0.1,0.3,0.2,0.3,0.4c0,0.1,0.2,0.1,0.7,0.1
			c0.5,0,0.8-0.1,0.9-0.3c0.1-0.1,0.5-0.2,1.2-0.2c0.5,0,0.9,0,1.3,0c0.7,0,1.1,0.1,1.2,0.2c0,0.1,0.2,0.1,0.4,0
			c0.2-0.1,0.7-0.2,1.5-0.2c0.8,0,1.3,0,1.5-0.1c0.2,0,0.3-0.1,0.5-0.3c0.2-0.2,0.3-0.3,0.2-0.5c0-0.2,0-0.3,0.1-0.4
			c0.1-0.1,0.2-0.3,0.2-0.8c0-0.3,0-0.5,0-0.6c0-0.1,0.1-0.1,0.2-0.1c0.2,0,0.3-0.2,0.3-0.5c0-0.2-0.1-0.4-0.2-0.6
			C230.1,790.3,230,790.2,229.8,790.2z"/>
		<path d="M258.5,789.5c0-0.6-0.1-0.9-0.2-1.1c-0.1-0.2-0.3-0.4-0.6-0.5c-0.3-0.1-0.5-0.3-0.5-0.4c-0.1-0.1-0.3-0.3-0.9-0.6
			c-0.5-0.3-1-0.5-1.3-0.6c-0.2-0.1-0.5-0.2-0.9-0.5c-0.4-0.3-0.6-0.4-0.6-0.5c0-0.1-0.1-0.2-0.2-0.3c-0.2-0.1-0.2-0.2-0.2-0.3
			c0,0,0-0.1,0-0.1c0.1-0.1,0.1-0.2,0.1-0.3c0-0.1,0-0.3-0.1-0.6c0-0.1,0-0.2,0-0.2c0,0,0.2-0.1,0.3-0.1c0.3,0,0.4-0.1,0.4-0.2
			c0-0.1,0.1-0.2,0.4-0.4c0.3-0.2,0.4-0.3,0.4-0.3c0-0.1,0.1-0.1,0.4-0.2c0.1,0,0.1,0,0.2,0c0.4,0,0.8,0.2,1.2,0.5
			c0.5,0.3,0.7,0.6,0.7,0.9c0,0.2,0.1,0.4,0.3,0.5c0.2,0.1,0.3,0.3,0.3,0.4c0,0.1,0.1,0.3,0.2,0.5c0.2,0.2,0.3,0.3,0.4,0.3
			c0,0,0,0,0.1,0c0.1-0.1,0.1-0.7,0.2-2v-0.8c0-0.6-0.1-0.9-0.2-0.9c-0.1,0-0.1,0-0.1,0c-0.3,0.1-0.6,0.2-0.8,0.2
			c-0.3,0-0.6-0.1-1-0.3c-0.4-0.2-0.6-0.3-0.7-0.3c0,0-0.1,0-0.2,0.1c-0.3,0.1-0.6,0.1-0.8,0.1c-0.3,0-0.4,0-0.5,0.1
			c0,0.1-0.1,0.2-0.3,0.2c-0.2,0-0.4-0.1-0.5-0.2c-0.1-0.1-0.3-0.2-0.5-0.2h0c-0.1,0-0.1,0-0.1,0c-0.1,0-0.1,0-0.1,0
			c0,0,0.1,0,0.1,0c0.1,0.1,0.2,0.1,0.2,0.2c0,0.2-0.2,0.3-0.5,0.4c-0.3,0.1-0.4,0.2-0.4,0.4c0.1,0.2,0,0.3-0.2,0.4
			c-0.3,0.1-0.6,0.5-1.1,1.1c-0.1,0.2-0.2,0.4-0.2,0.6c0,0,0,0.3,0.1,0.8c0.1,0.7,0.3,1.1,0.4,1.3c0.1,0.2,0.4,0.4,0.7,0.7
			c0.4,0.3,0.6,0.4,0.8,0.4c0.1,0,0.3,0.1,0.6,0.4c0.4,0.3,0.9,0.6,1.7,0.8c0.5,0.1,0.8,0.3,1.1,0.6c0.2,0.2,0.3,0.4,0.5,0.7
			c0.1,0.3,0.2,0.5,0.2,0.7c0,0.1,0,0.1-0.1,0.2c-0.1,0-0.1,0.2-0.1,0.4c0.1,0.2,0,0.4-0.2,0.6c-0.1,0.1-0.2,0.3-0.2,0.4
			c0,0.2-0.5,0.4-1.4,0.5c-0.1,0-0.3,0-0.6,0c-0.9,0-1.7-0.4-2.2-1.2c-0.3-0.4-0.5-0.8-0.5-1c0,0,0-0.1,0-0.2c0-0.1,0-0.2,0-0.2
			s-0.1-0.1-0.1-0.1c-0.1,0-0.1,0-0.1-0.1c0.1-0.3-0.1-0.5-0.4-0.6c-0.1,0-0.2-0.1-0.3-0.1c-0.3,0-0.4,0.2-0.5,0.5
			c-0.1,1.2-0.1,1.9-0.2,1.9c-0.1,0.1-0.1,0.4-0.2,0.8c0,0.1,0,0.3,0,0.4c0,0.2,0.1,0.4,0.3,0.6c0.1,0.1,0.2,0.2,0.3,0.2
			c0,0,0.1,0,0.2-0.2c0.1-0.2,0.2-0.3,0.2-0.4c0-0.3,0.2-0.3,0.5-0.1c0.9,0.5,1.8,0.7,2.9,0.7c0.5,0,1.1-0.1,1.6-0.2
			c0.6-0.1,1.1-0.3,1.4-0.6c0.3-0.3,0.5-0.5,0.5-0.5c0-0.1,0.1-0.2,0.2-0.3c0.2-0.1,0.3-0.4,0.3-0.9c0.1-0.5,0.1-0.7,0.2-0.7
			c0.1,0,0.1,0,0-0.1C258.6,790.6,258.5,790.2,258.5,789.5z M254.1,788C254,788,254,787.9,254.1,788c-0.1-0.1-0.1-0.1,0-0.1
			S254.2,787.9,254.1,788C254.2,787.9,254.2,788,254.1,788z"/>
		<path d="M252.6,788.7c0-0.1,0-0.2-0.1-0.2c-0.1,0-0.1,0-0.1,0.1l0.1,0.2C252.6,789,252.6,788.9,252.6,788.7z"/>
		<path d="M277.4,785.3c0.1,0,0.2-0.2,0.2-0.5c0-0.2,0-0.4-0.1-0.4c-0.1,0-0.1-0.1-0.1-0.3c0-0.2,0.1-0.4,0.2-0.6
			c0.1-0.3,0.1-0.5-0.2-0.6c-0.2-0.2-0.5-0.3-0.9-0.3c-0.5,0-0.8,0.1-1.1,0.4c-0.3,0.2-0.4,0.3-0.5,0.2c-0.1-0.1-0.4-0.1-0.8,0
			c-0.5,0.1-1.4,0.2-2.6,0.2c-0.9,0-1.4,0-1.5-0.1c-0.1-0.1-0.2,0-0.4,0.2c-0.1,0.1-0.3,0.2-0.4,0.2c-0.2,0-0.4,0-0.7-0.1
			c-0.7-0.2-1.1-0.2-1.3-0.2c-0.1,0-0.2,0-0.2,0c-0.1,0-0.3,0.1-0.4,0.3c-0.1,0.2-0.2,0.4-0.2,0.5c0,0.1,0,0.1,0.1,0.2
			c0,0,0.1,0.2,0.1,0.5c0,0.1,0,0.2-0.1,0.3c-0.1,0-0.2,0.1-0.3,0.1c-0.3,0-0.5,0.1-0.5,0.3c0,0,0,0.1,0.1,0.2
			c0.1,0.1,0.1,0.3,0.1,0.6c0,0.3-0.1,0.4-0.1,0.5c0,0.5,0.2,0.8,0.6,0.8c0.3,0,0.4-0.1,0.4-0.2c0-0.1,0.1-0.2,0.2-0.2
			c0.1,0,0.1,0,0.2-0.1c0,0,0-0.1,0-0.2c0-0.1-0.1-0.2-0.2-0.2c-0.1-0.1-0.1-0.1-0.1-0.2c0,0,0-0.1,0-0.1c0,0,0-0.1,0.1-0.1
			c0,0,0.1,0,0.2-0.1c0.2-0.1,0.2-0.2,0.2-0.3c0,0,0-0.1,0-0.2c0-0.1,0-0.1,0-0.2c0-0.1,0-0.2,0.1-0.2c0.1-0.1,0.1-0.3,0-0.6
			c-0.1-0.3-0.1-0.4,0-0.4c0.1,0,0.1,0.1,0.1,0.2c0,0.1,0.2,0.2,0.5,0.4c0.4,0.1,0.7,0.2,1.1,0.2c0.4,0,0.7,0.1,0.8,0.3
			c0.2,0.2,0.3,0.2,0.5,0.2c0.1,0,0.1,0,0.1,0c0.1,0,0.1,0,0,0.1c-0.3,0.3-0.4,2.2-0.5,5.8c0,0.8-0.1,1.2-0.3,1.4
			c-0.2,0.1-0.3,0.3-0.3,0.4c0,0.1-0.3,0.2-0.8,0.2l-0.7,0.1l-0.1,0.5c0,0,0,0.1,0,0.1s0,0.1,0,0.1c0,0.2,0.1,0.4,0.4,0.7
			c0.3,0.3,0.5,0.4,0.7,0.4c0.1,0,0.1,0,0.1-0.1c0-0.1,0-0.1-0.1-0.1c-0.1,0-0.1,0-0.1-0.1c0-0.1,0.2-0.1,0.5-0.1c0.1,0,0.4,0,0.8,0
			c0.4,0,0.7,0,0.9,0c0.6,0,0.9-0.1,1.1-0.2c0.1-0.1,0.3-0.2,0.6-0.1c0.2,0.1,0.3,0,0.4-0.1c0.1-0.1,0.2-0.1,0.3-0.1
			c0.1,0,0.3-0.1,0.5-0.2c0.1-0.1,0.2-0.2,0.2-0.3c0-0.1-0.1-0.2-0.2-0.5c-0.2-0.3-0.3-0.4-0.5-0.4c-0.1,0-0.2-0.1-0.2-0.2
			c0-0.1-0.1-0.2-0.3-0.1c0,0-0.1,0-0.1,0c-0.1,0-0.1,0-0.1,0c-0.1,0-0.2,0-0.3-0.1c0-0.1-0.1-0.3-0.1-0.5v-0.4c0-0.5,0-0.8,0-0.9
			c0-0.1,0.1-0.2,0.2-0.2c0.2,0,0.2-0.1,0.2-0.4c0-0.3-0.1-0.5-0.2-0.5c-0.1,0-0.2-0.4-0.2-1.1c0-0.8,0.1-1.2,0.2-1.4
			c0.1-0.1,0.2-0.5,0.2-1.2c0-0.7,0.1-1,0.1-1.1c0.1-0.2,0.5-0.2,1.2-0.2c1,0,1.5,0.1,1.6,0.4c0,0.1,0.1,0.2,0.4,0.5
			c0.2,0.2,0.3,0.4,0.3,0.8c0,0.3,0.1,0.5,0.1,0.5c0,0.1,0.2,0.1,0.4,0.1c0.2,0,0.4,0,0.4-0.1c0-0.1,0.1-0.2,0.3-0.2
			c0.2-0.1,0.3-0.2,0.3-0.4c0-0.2-0.1-0.4-0.2-0.5C277.2,785.4,277.2,785.3,277.4,785.3z"/>
		<path d="M298.1,792.9c-0.1,0-0.1-0.1-0.2-0.4c-0.1-0.2-0.1-0.3-0.2-0.3c0,0-0.3,0.1-0.8,0.2c0,0-0.1,0-0.2,0c-0.4,0-0.7-0.6-1-1.7
			c-0.2-0.8-0.4-1.3-0.4-1.4c-0.1-0.1-0.2-0.3-0.2-0.5c-0.1-0.4-0.3-1.3-0.8-2.8c-0.5-1.5-0.7-2.4-0.8-2.7c-0.2-1-0.4-1.5-0.5-1.7
			c-0.1-0.2-0.2-0.3-0.4-0.3c-0.3-0.1-0.4,0-0.5,0.1c-0.1,0.1-0.2,0.2-0.4,0.2c-0.2,0-0.4,0.1-0.4,0.2c0,0.1-0.1,0.1-0.2,0.1
			c-0.1,0-0.2,0.2-0.4,0.6c-0.2,0.4-0.3,0.8-0.5,1.2c-0.1,0.4-0.2,0.6-0.3,0.7c-0.1,0.1-0.1,0.2-0.1,0.4c0,0.2-0.1,0.6-0.4,1.2
			c-0.3,0.6-0.5,1.1-0.5,1.5c-0.1,0.4-0.2,0.6-0.2,0.7c-0.1,0.1-0.2,0.3-0.4,0.8c-0.2,0.5-0.3,0.7-0.3,0.8c-0.1,0.2-0.2,0.4-0.2,0.5
			c0,0.2,0,0.2-0.1,0.2c-0.1,0-0.2,0.1-0.3,0.4c-0.1,0.2-0.2,0.4-0.2,0.6c0,0.1-0.2,0.3-0.5,0.6c-0.3,0.3-0.5,0.4-0.7,0.4
			c-0.2,0-0.3,0.1-0.5,0.4c-0.2,0.2-0.4,0.3-0.5,0.3c-0.1,0-0.2,0.1-0.4,0.4c-0.1,0.2-0.1,0.3-0.1,0.4c0,0.1,0.1,0.3,0.4,0.5
			l0.5,0.4l2-0.1c1.1,0,1.8-0.1,2.1-0.1c0.3,0,0.5-0.1,0.5-0.2c0,0,0-0.1-0.1-0.2c-0.1-0.2-0.1-0.3,0.1-0.3c0.1,0,0.2-0.1,0.2-0.2
			c0-0.1-0.1-0.2-0.2-0.2s-0.3-0.1-0.4-0.2c-0.1-0.1-0.4-0.2-0.7-0.3c-0.5-0.1-0.7-0.3-0.7-0.5c0-0.1,0-0.2,0.1-0.3
			c0.1-0.2,0.2-0.3,0.2-0.5c0-0.1,0-0.2,0.1-0.2c0.1,0,0.1-0.2,0.1-0.7v-0.7h0.6c0.4,0,0.7-0.1,0.7-0.2c0.1-0.2,0.6-0.2,1.5-0.2h0.4
			c0.7,0,1,0,1.1,0.1c0.1,0.1,0.2,0.4,0.2,0.8c0,0.5,0.1,0.8,0.3,0.9c0.2,0.2,0.3,0.3,0.3,0.6c0,0,0,0,0,0.1c0,0,0,0.1,0,0.1
			c0,0.3-0.1,0.4-0.1,0.5c-0.1,0.1-0.3,0.1-0.6,0.2c-0.5,0.1-0.7,0.2-0.8,0.3c0,0.1-0.1,0.1-0.3,0.1c-0.2,0-0.3,0.1-0.3,0.3
			c0,0.3,0,0.4,0.1,0.5c0.1,0.1,0.3,0.1,0.6,0.1c0.3,0,0.7,0,1.3-0.1c0.6-0.1,1.3-0.1,2-0.1c0.4,0,0.7,0,0.8,0c0.2,0,0.4,0,0.6,0
			c0.3,0,0.5-0.1,0.5-0.3c0.1-0.2,0.1-0.3,0.2-0.3c0.1,0,0.1-0.2,0.1-0.5C298.3,793.1,298.2,792.9,298.1,792.9z M291.9,788.4
			c0,0-0.1,0-0.2,0c-0.1,0-0.1,0-0.1,0c-0.3,0-0.5,0.1-0.6,0.2c-0.1,0.1-0.3,0.2-0.4,0.2c-0.2,0-0.3-0.1-0.4-0.2
			c-0.1-0.1-0.2-0.2-0.3-0.2c-0.1,0-0.2-0.1-0.2-0.2c0-0.1,0-0.2,0.1-0.2c0.1,0,0.2-0.1,0.3-0.4c0.1-0.3,0.2-0.5,0.2-0.7
			c0-0.2,0.1-0.3,0.2-0.4c0.1,0,0.2-0.3,0.2-0.8c0.1-0.6,0.3-0.9,0.6-0.9c0.2,0,0.3,0.1,0.5,0.2c0.1,0.1,0.2,0.2,0.4,0.5
			c0.1,0.3,0.2,0.4,0.2,0.5c0,0-0.1,0.1-0.3,0.1c-0.2,0-0.3,0.1-0.4,0.2c-0.1,0.1,0,0.2,0.1,0.2c0.1,0,0.2,0.1,0.2,0.2
			c0.1,0.1,0.2,0.3,0.2,0.4c0.1,0.2,0.1,0.2,0.2,0.3c0.1,0.1,0.1,0.3,0.2,0.6l0.1,0.5L291.9,788.4z"/>
		<path d="M311.6,781.6C311.6,781.6,311.6,781.6,311.6,781.6c0.1-0.1,0.2-0.1,0.1-0.1c0,0-0.1,0-0.3,0c-0.2,0-0.3,0.1-0.3,0.2
			C311.3,781.7,311.4,781.7,311.6,781.6z"/>
		<path d="M318.6,793.9c-0.1,0-0.2-0.1-0.3-0.4c-0.1-0.2-0.3-0.4-0.5-0.4c-0.2,0-0.4-0.1-0.6-0.2c-0.2-0.1-0.4-0.2-0.4-0.4
			c-0.1-0.1-0.1-0.2-0.3-0.2c-0.1,0-0.3-0.1-0.6-0.4c-0.2-0.3-0.4-0.6-0.6-0.9c-0.1-0.3-0.4-0.6-0.8-1.1c-0.4-0.5-0.7-0.7-0.8-0.7
			c-0.1,0-0.2-0.1-0.4-0.3c-0.1-0.1-0.2-0.2-0.1-0.3c0,0,0.1-0.1,0.3-0.2c0.8-0.3,1.2-0.6,1.2-0.9c0-0.5,0.1-0.7,0.3-0.7
			c0.1,0,0.2-0.1,0.4-0.2c0.2-0.2,0.2-0.7,0.2-1.5c0-1-0.1-1.5-0.3-1.7c-0.1-0.1-0.2-0.2-0.4-0.2c-0.1,0-0.2,0-0.2-0.1
			c0-0.1-0.1-0.2-0.4-0.3c-0.3-0.1-0.4-0.3-0.5-0.5l-0.2-0.3c-0.1-0.1-0.2-0.1-0.2,0.1c0,0.1-0.3,0.1-0.8,0.1c-0.6,0-0.9,0-0.9-0.1
			c0-0.1-0.1-0.1-0.4-0.1s-0.5-0.1-0.6-0.3c-0.2-0.2-0.3-0.3-0.4-0.3c-0.1,0-0.2,0.1-0.1,0.3c0,0,0,0,0,0.1v0c0,0.1-0.6,0.2-1.8,0.2
			h-1.9l-0.5,0.5c-0.3,0.3-0.5,0.6-0.5,0.7c0,0.1,0.2,0.2,0.5,0.3c0.3,0.1,0.5,0.1,0.5,0.2c0,0.1,0,0.1,0.1,0.1
			c0.2,0,0.4,0.2,0.6,0.5c0.2,0.3,0.3,0.7,0.3,1.2c0,0.4,0.1,0.6,0.1,0.6c0,0.2-0.1,0.4-0.2,0.5c-0.2,0.1-0.2,0.2-0.1,0.3
			c0.1,0.1,0.2,0.3,0.2,0.7c0,0.3-0.1,0.5-0.2,0.5c-0.2,0-0.2,0,0,0.1c0.1,0.1,0.2,0.2,0.2,0.4c0,0.2-0.1,0.3-0.2,0.5
			c-0.1,0.1-0.1,0.3,0.1,0.4c0.1,0.1,0.2,0.3,0.2,0.4c0,0.1-0.1,0.3-0.2,0.4c-0.2,0.2-0.3,0.7-0.3,1.6c0,0.7,0,1.1-0.1,1.2
			c0,0.1-0.1,0.2-0.3,0.3c-0.2,0.1-0.3,0.1-0.3,0.2c0,0.1-0.3,0.1-0.8,0.1c-0.4,0-0.6,0.1-0.7,0.1c-0.1,0.1-0.1,0.2-0.1,0.5
			c0,0.2,0.2,0.5,0.6,0.8c0.2,0.1,0.3,0.2,0.5,0.2c0.2,0,0.3-0.1,0.3-0.2c0.1-0.1,0.8-0.2,2.1-0.2c1.3,0,2.1-0.1,2.2-0.3
			c0.1-0.1,0.2-0.2,0.3-0.2c0.1,0,0.2-0.1,0.2-0.2c0-0.1-0.1-0.2-0.4-0.2c-0.3,0-0.4-0.1-0.5-0.3c0-0.2-0.2-0.3-0.5-0.4
			c-0.4-0.1-0.5-0.2-0.5-0.4c0-0.1,0-0.2,0.1-0.3c0.2-0.2,0.2-0.3,0.1-0.4c-0.1,0-0.2-0.6-0.2-1.6c0-0.3,0-0.6,0-1
			c0-0.3,0-0.4,0.1-0.5c0-0.1,0.1-0.1,0.2-0.1c0.5,0,1,0.2,1.5,0.5c0.5,0.4,0.8,0.7,0.8,1c0,0.2,0.1,0.3,0.2,0.3s0.2,0.1,0.2,0.4
			c0,0.5,0.3,0.8,0.8,1c0.2,0.1,0.4,0.3,0.5,0.7c0.1,0.4,0.3,0.8,0.7,1.2l0.6,0.7l0.9-0.1c0.1,0,0.3,0,0.6-0.1c0.3,0,0.6,0,0.8-0.1
			c0.2,0,0.4-0.1,0.7-0.1c0.3-0.1,0.4-0.1,0.6-0.2c0.1-0.1,0.2-0.2,0.2-0.3C318.7,794,318.7,793.9,318.6,793.9z M312.9,787.1
			c-0.1,0-0.2,0-0.2,0.1c-0.1,0-0.1,0,0,0.1c0.2,0,0.2,0.1,0.2,0.2c0,0.1-0.1,0.3-0.4,0.4c-0.2,0.2-0.5,0.3-0.7,0.3
			c-0.3,0-0.6,0.1-1.1,0.2c-0.1,0-0.2,0-0.3,0c-0.2,0-0.4-0.1-0.7-0.3c-0.2-0.2-0.3-0.3-0.4-0.3c0-0.1,0-0.1,0.1-0.2
			c0.1-0.1,0.2-0.7,0.2-1.6v-1.2c0-0.3,0.1-0.5,0.2-0.7c0.1-0.2,0.3-0.4,0.4-0.4h0.1l0.4,0.1c0.3,0,0.5,0.1,0.8,0.1
			c0.2,0.1,0.4,0.1,0.4,0.1c0,0.1,0.1,0.1,0.4,0.2c0.3,0.1,0.4,0.2,0.4,0.3c0,0.1,0.1,0.3,0.2,0.3c0.1,0.1,0.2,0.2,0.1,0.3
			c-0.1,0.1-0.1,0.3,0.1,0.6c0.1,0.2,0.2,0.4,0.2,0.8v0.1c0,0.2-0.1,0.4-0.1,0.4C313.3,787,313.1,787.1,312.9,787.1z"/>
	</g>
	<g>
		<g>
			<g>
				<g>
					<g>
						<path class="st0" d="M167.3,312.3c3.1,0,6.1,0,9.2-0.1c2.2,0,2.2-3.4,0-3.4c-3.1,0-6.1,0-9.2,0.1
							C165.1,309,165.1,312.4,167.3,312.3L167.3,312.3z"/>
					</g>
				</g>
				<g>
					<g>
						<path class="st0" d="M121.1,312.6c1.2,0,2.3,0,3.5,0c2.2,0,2.2-3.4,0-3.4c-1.2,0-2.3,0-3.5,0
							C118.9,309.3,118.9,312.6,121.1,312.6L121.1,312.6z"/>
					</g>
				</g>
				<g>
					<g>
						<path class="st0" d="M134.9,312.5c7,0,13.9-0.1,20.9-0.1c2.2,0,2.2-3.4,0-3.4c-7,0-13.9,0.1-20.9,0.1
							C132.8,309.2,132.8,312.6,134.9,312.5L134.9,312.5z"/>
					</g>
				</g>
			</g>
			<g>
				<g>
					<g>
						<path class="st0" d="M318.7,292.7c-3.1,0.8-6.1,1.7-9.2,2.5c-2.1,0.6-1.2,3.8,0.9,3.3c3.1-0.8,6.1-1.7,9.2-2.5
							C321.7,295.4,320.8,292.1,318.7,292.7L318.7,292.7z"/>
					</g>
				</g>
				<g>
					<g>
						<path class="st0" d="M352.2,283.6c-8.3,2.2-16.5,4.4-24.8,6.7c-2.1,0.6-1.2,3.8,0.9,3.3c8.3-2.2,16.5-4.4,24.8-6.7
							C355.2,286.3,354.4,283.1,352.2,283.6L352.2,283.6z"/>
					</g>
				</g>
			</g>
			<g>
				<g>
					<g>
						<path class="st0" d="M299.9,262.1c-1.7,1.7-3.5,3.5-5.2,5.2c-1.5,1.5,0.8,3.9,2.4,2.4c1.7-1.7,3.5-3.5,5.2-5.2
							C303.8,263,301.4,260.6,299.9,262.1L299.9,262.1z"/>
					</g>
				</g>
				<g>
					<g>
						<path class="st0" d="M324.3,237.9c-6,6-12,12-18,17.9c-1.5,1.5,0.8,3.9,2.4,2.4c6-6,12-12,18-17.9
							C328.2,238.7,325.8,236.3,324.3,237.9L324.3,237.9z"/>
					</g>
				</g>
			</g>
			<g>
				<g>
					<g>
						<path class="st0" d="M281.3,195.2c-1.7,6.4-3.4,12.7-5.1,19.1c-0.6,2.1,2.7,3,3.3,0.9c1.7-6.4,3.4-12.7,5.1-19.1
							C285.2,194,281.9,193.1,281.3,195.2L281.3,195.2z"/>
					</g>
				</g>
			</g>
			<g>
				<g>
					<g>
						<path class="st0" d="M216.9,194.2c1.8,6.3,3.5,12.7,5.3,19c0.6,2.1,3.9,1.2,3.3-0.9c-1.8-6.3-3.5-12.7-5.3-19
							C219.5,191.2,216.3,192.1,216.9,194.2L216.9,194.2z"/>
					</g>
				</g>
			</g>
			<g>
				<g>
					<g>
						<path class="st0" d="M226.8,226.3c1.1,3.7,2.2,7.3,3.4,11c0.6,2.1,3.9,1.2,3.3-0.9c-1.1-3.7-2.2-7.3-3.4-11
							C229.4,223.3,226.1,224.2,226.8,226.3L226.8,226.3z"/>
					</g>
				</g>
			</g>
			<g>
				<g>
					<g>
						<path class="st0" d="M270.9,227.7c-1.1,3.7-2.3,7.3-3.4,11c-0.6,2.1,2.6,3,3.3,0.9c1.1-3.7,2.3-7.3,3.4-11
							C274.8,226.5,271.5,225.6,270.9,227.7L270.9,227.7z"/>
					</g>
				</g>
			</g>
			<g>
				<g>
					<g>
						<path class="st0" d="M200.5,264.3c1.8,1.7,3.5,3.4,5.3,5.1c1.6,1.5,4-0.9,2.4-2.4c-1.8-1.7-3.5-3.4-5.3-5.1
							C201.3,260.4,198.9,262.8,200.5,264.3L200.5,264.3z"/>
					</g>
				</g>
				<g>
					<g>
						<path class="st0" d="M175.7,240.3c6.1,5.9,12.2,11.8,18.3,17.7c1.6,1.5,4-0.9,2.4-2.4c-6.1-5.9-12.2-11.8-18.3-17.7
							C176.6,236.4,174.2,238.8,175.7,240.3L175.7,240.3z"/>
					</g>
				</g>
			</g>
			<g>
				<g>
					<g>
						<path class="st0" d="M183,295.6c3.1,0.8,6.2,1.6,9.2,2.4c2.1,0.5,3-2.7,0.9-3.3c-3.1-0.8-6.2-1.6-9.2-2.4
							C181.8,291.8,180.9,295,183,295.6L183,295.6z"/>
					</g>
				</g>
				<g>
					<g>
						<path class="st0" d="M149.3,287c8.3,2.1,16.6,4.2,24.8,6.4c2.1,0.5,3-2.7,0.9-3.3c-8.3-2.1-16.6-4.2-24.8-6.4
							C148.1,283.2,147.2,286.4,149.3,287L149.3,287z"/>
					</g>
				</g>
			</g>
			<g>
				<g>
					<g>
						<path class="st0" d="M336.6,310.2c-3.1,0-6.1,0-9.2,0.1c-2.2,0-2.2,3.4,0,3.4c3.1,0,6.1,0,9.2-0.1
							C338.8,313.6,338.8,310.2,336.6,310.2L336.6,310.2z"/>
					</g>
				</g>
				<g>
					<g>
						<path class="st0" d="M382.8,309.9c-1.2,0-2.3,0-3.5,0c-2.2,0-2.2,3.4,0,3.4c1.2,0,2.3,0,3.5,0
							C385,313.3,385,309.9,382.8,309.9L382.8,309.9z"/>
					</g>
				</g>
				<g>
					<g>
						<path class="st0" d="M369,310c-7,0-13.9,0.1-20.9,0.1c-2.2,0-2.2,3.4,0,3.4c7,0,13.9-0.1,20.9-0.1
							C371.2,313.4,371.2,310,369,310L369,310z"/>
					</g>
				</g>
			</g>
			<g>
				<g>
					<g>
						<path class="st0" d="M326.4,267.8c-2.6,1.5-5.2,3-7.7,4.5c-1.9,1.1-0.2,4,1.7,2.9c2.6-1.5,5.2-3,7.7-4.5
							C330,269.7,328.3,266.8,326.4,267.8L326.4,267.8z"/>
					</g>
				</g>
				<g>
					<g>
						<path class="st0" d="M365.2,245.5c-1,0.6-1.9,1.1-2.9,1.7c-1.9,1.1-0.2,4,1.7,2.9c1-0.6,1.9-1.1,2.9-1.7
							C368.8,247.3,367.1,244.4,365.2,245.5L365.2,245.5z"/>
					</g>
				</g>
				<g>
					<g>
						<path class="st0" d="M353.6,252.2c-5.8,3.4-11.7,6.7-17.5,10.1c-1.9,1.1-0.2,4,1.7,2.9c5.8-3.4,11.7-6.7,17.5-10.1
							C357.2,254,355.5,251.1,353.6,252.2L353.6,252.2z"/>
					</g>
				</g>
			</g>
			<g>
				<g>
					<g>
						<path class="st0" d="M291,243.4c-3.4,5.9-6.8,11.8-10.2,17.7c-1.1,1.9,1.8,3.6,2.9,1.7c3.4-5.9,6.8-11.8,10.2-17.7
							C295,243.3,292.1,241.5,291,243.4L291,243.4z"/>
					</g>
				</g>
				<g>
					<g>
						<path class="st0" d="M299.7,228.3c-1.4,2.4-2.8,4.9-4.2,7.3c-1.1,1.9,1.8,3.6,2.9,1.7c1.4-2.4,2.8-4.9,4.2-7.3
							C303.7,228.2,300.8,226.4,299.7,228.3L299.7,228.3z"/>
					</g>
				</g>
				<g>
					<g>
						<path class="st0" d="M320.7,191.8c-0.5,0.9-1.1,1.8-1.6,2.7c-1.1,1.9,1.8,3.6,2.9,1.7c0.5-0.9,1.1-1.8,1.6-2.7
							C324.7,191.6,321.8,189.9,320.7,191.8L320.7,191.8z"/>
					</g>
				</g>
				<g>
					<g>
						<path class="st0" d="M314.4,202.7c-3.2,5.5-6.3,11-9.5,16.5c-1.1,1.9,1.8,3.6,2.9,1.7c3.2-5.5,6.3-11,9.5-16.5
							C318.4,202.5,315.5,200.8,314.4,202.7L314.4,202.7z"/>
					</g>
				</g>
			</g>
			<g>
				<g>
					<g>
						<path class="st0" d="M254.1,223.8c0-14,0-28,0-42.1c0-2.2-3.4-2.2-3.4,0c0,14,0,28,0,42.1C250.7,225.9,254.1,226,254.1,223.8
							L254.1,223.8z"/>
					</g>
				</g>
			</g>
			<g>
				<g>
					<g>
						<path class="st0" d="M211.6,244.9c3.5,5.9,7,11.8,10.5,17.8c1.1,1.9,4,0.2,2.9-1.7c-3.5-5.9-7-11.8-10.5-17.8
							C213.4,241.3,210.5,243,211.6,244.9L211.6,244.9z"/>
					</g>
				</g>
				<g>
					<g>
						<path class="st0" d="M202.6,229.8c1.4,2.4,2.9,4.9,4.3,7.3c1.1,1.9,4,0.2,2.9-1.7c-1.4-2.4-2.9-4.9-4.3-7.3
							C204.4,226.2,201.5,227.9,202.6,229.8L202.6,229.8z"/>
					</g>
				</g>
				<g>
					<g>
						<path class="st0" d="M180.9,193.1c0.5,0.9,1.1,1.8,1.6,2.7c1.1,1.9,4,0.2,2.9-1.7c-0.5-0.9-1.1-1.8-1.6-2.7
							C182.7,189.6,179.8,191.3,180.9,193.1L180.9,193.1z"/>
					</g>
				</g>
				<g>
					<g>
						<path class="st0" d="M187.4,204.1c3.3,5.5,6.5,11,9.8,16.5c1.1,1.9,4,0.2,2.9-1.7c-3.3-5.5-6.5-11-9.8-16.5
							C189.2,200.5,186.3,202.2,187.4,204.1L187.4,204.1z"/>
					</g>
				</g>
			</g>
			<g>
				<g>
					<g>
						<path class="st0" d="M176.8,269.8c2.6,1.4,5.1,2.9,7.7,4.3c1.9,1.1,3.6-1.9,1.7-2.9c-2.6-1.4-5.1-2.9-7.7-4.3
							C176.6,265.8,174.9,268.7,176.8,269.8L176.8,269.8z"/>
					</g>
				</g>
				<g>
					<g>
						<path class="st0" d="M138.1,248.1c1,0.5,1.9,1.1,2.9,1.6c1.9,1.1,3.6-1.9,1.7-2.9c-1-0.5-1.9-1.1-2.9-1.6
							C137.9,244.1,136.2,247,138.1,248.1L138.1,248.1z"/>
					</g>
				</g>
				<g>
					<g>
						<path class="st0" d="M149.7,254.6c5.8,3.3,11.7,6.5,17.5,9.8c1.9,1.1,3.6-1.9,1.7-2.9c-5.8-3.3-11.7-6.5-17.5-9.8
							C149.5,250.6,147.8,253.5,149.7,254.6L149.7,254.6z"/>
					</g>
				</g>
			</g>
		</g>
		<g>
			<path d="M280.1,403.9c-2.9,0.8-4.8,3.9-6.3,6.4c-2.1,3.5-3.8,7.2-5.3,10.9c-3.1,7.5-3.8,15.5-4.1,23.6c-0.3,9.8,0.2,19.6,0,29.5
				c-0.1,4.1-0.2,8.3-0.8,12.4c-0.4,3.1-1.1,6.3-2.8,9c-0.7,1.1-1.5,2-2.5,2.8c-0.2,0.1-0.4,0.3-0.6,0.4c-0.1,0-0.3,0-0.4-0.1
				c-0.6-0.1-1.2-0.4-1.8-0.6c-3.3-1.5-6.2-4-8.9-6.4c-5.8-5.1-10.9-10.9-15.9-16.9C224,466.4,217,458,215,447.1
				c-2.1-11.5-2-23.2-3.1-34.9c-0.6-6-1.9-11.9-2.8-17.8c-0.3-2.4-0.7-4.7-1.3-7c-0.7-2.6-1.5-5.2-2.3-7.8
				c-1.1-3.7-2.5-9.1-6.1-11.2c-0.5-0.3-1-0.3-1.6,0c-2.3,1.5-3.4,4.5-4.1,7.1c-0.9,3.5-1.4,7.1-1.7,10.8c-0.1,1.4-0.2,2.9-0.4,4.3
				c-2.7-4.3-7.1-9.1-10.2-4.6c-1.8,2.6-2.4,6.2-2.9,9.3c-0.5,3-0.7,6.1-0.8,9.1c-1-1.1-2.2-1.7-3.8-1.5c-4,0.6-4.7,6-5.3,9.2
				c-1,5-1.8,10-2.4,15c-0.4,3.1-0.6,6.1-0.8,9.2c-0.2-1.8-0.5-3.6-1.3-5.1c-1.3-2.4-4.2-3.1-5.9-0.7c-1.6,2.2-2.2,5.1-2.8,7.7
				c-1.7,6.9-2.8,14.1-3.5,21.2c-0.5,5.1-0.8,10.2-0.7,15.3c0.1,3.7,0.4,7.1,1.4,10.6c2.1,7.4,5.9,14.2,9.7,20.8
				c4.4,7.5,9.2,14.7,13.8,22c5.1,7.9,9.7,16.2,14.4,24.3c2.7,4.6,5.4,9.2,8.3,13.6c2.8,4.2,6,8.2,8.6,12.5c1.9,3.1,3.1,6.5,4.4,9.8
				c1.5,3.8,3.4,7.3,5.7,10.7c2.3,3.3,2.6,8.2,3,12.2c1.2,13.5,0.3,27.2,0.1,40.8c-0.1,5.8-0.3,11.6,0.1,17.3
				c0.1,1.3-0.1,3.6,0.9,4.4c0.5,0.4,1.1,0.7,1.7,1c6.6,3.5,14,5.6,21.4,6.7c13.5,1.9,27.4-0.3,40.2-5.5c4.1-1.7,8-3.7,11.8-5.9
				c0.6-0.3,0.8-0.8,0.8-1.4c-0.3-8.1-0.5-16.2-0.7-24.4c-0.4-14.2-0.7-28.4-0.9-42.6c-0.1-4.6-0.1-9.2,0-13.8
				c0.4-11.2,1.3-22.4,2.1-33.6c1.6-23.3,3.8-46.6,0.6-69.7c-1.5-10.9-4.1-21.6-7.2-32.1c-1.7-5.6-2.4-11.5-2.9-17.4
				c-0.3-2.9-0.6-5.7-0.9-8.6c-0.3-2.3-0.8-4.6-1.1-6.9C286.1,415.7,287.4,402,280.1,403.9z M257.9,498.7
				C257.9,498.7,257.9,498.7,257.9,498.7C258,498.7,258.2,498.7,257.9,498.7z M285.6,434.2c0.1,1.2,0.3,2.3,0.4,3.5
				c0.6,5.7,1.5,11.3,3.2,16.7c1.6,5.4,3,10.9,4.2,16.4c2.3,10.5,3.7,21.2,4.1,32c0.5,12-0.4,24-1.2,36c-0.8,12-1.7,23.9-2.4,35.9
				c-0.4,6.5-0.8,13.1-0.8,19.6c0,13.4,0.4,26.8,0.7,40.2c0.3,10.9,0.6,21.8,0.9,32.7c0,0.3,0,0.6,0,0.8
				c-12.8,7.3-27.2,11.7-41.9,11.4c-8.8-0.2-17.7-2.1-25.7-5.7c-1.1-0.5-2.2-1-3.2-1.6c-0.1,0-0.1-0.1-0.1-0.1c0,0-0.1,0-0.1-0.1
				c-0.1,0-0.2-0.1-0.2-0.1c-1.1-7.8-0.5-15.9-0.3-23.7c0.2-10.2,0.6-20.4,0.2-30.6c-0.2-7-0.3-14.9-4.3-20.9
				c-1.7-2.6-3.2-5.3-4.4-8.2c-0.9-2.2-1.6-4.4-2.6-6.5c-2.7-6.3-7.3-11.5-11-17.2c-7.9-12.1-14.5-25-22.2-37.2
				c-6.7-10.6-13.9-20.9-19.4-32.2c-2.3-4.6-4.4-9.4-5.3-14.5c-0.5-2.9-0.5-5.8-0.5-8.7c0-3.8,0.2-7.6,0.6-11.4
				c0.3-3.6,0.9-7.2,1.4-10.8c0.2-1.4,1-7.2,1.4-8.6c0.5-1.8,1-3.7,1.4-5.5c0.2-0.7,0.4-1.4,0.7-2.1c0.5-0.8,1.5-1.8,2.5-1.2
				c1.1,0.7,1.6,2.6,1.8,3.8c0.2,1.4,0.1,2.9,0.1,4.3c0.1,1.8-0.3,9.2-0.4,10c-0.1,1.3-0.2,2.5-0.2,3.8c0,3.8-0.4,7.4,0,11.2
				c1.1,12.2,7.2,23.3,13.4,33.5c1.4,2.3,2.8,4.5,4.3,6.7c1,1.4,3.1-0.2,2.1-1.6c-4.7-6.8-8.8-14.1-12.2-21.6
				c-1.5-3.3-3-6.7-3.8-10.3c-0.9-3.8-1.3-7.7-1.4-11.6c0,0,0,0,0,0c0.3-4.7,0.9-9.4,1.5-14.1c0.6-4.6,0.9-9.1,1.3-13.7
				c0-0.3,0-0.6,0.1-0.9c0.2-2.1,0.4-4.1,0.7-6.2c0.1-1,0.3-1.9,0.3-2.9c0-1.1,0.5-7.4,0.7-8.4c0.3-1.5,0.5-3,0.9-4.4
				s1.1-2.9,2.2-3.9c0.3-0.3,0.8-0.6,1.2-0.6c0.3,0,0.6,0.1,0.9,0.2c0.3,0.1,0.6,0.1,0.8,0.2c0.5,0.4,0.7,1.1,0.9,1.7
				c0.3,0.7,0.4,1.4,0.5,2.2c0,0.1-0.3,20.1-0.4,30c-0.1,9.3-0.8,19,1.5,28.1c1.4,5.4,3.8,10.3,6.3,15.2c2.8,5.4,5.8,10.7,8.8,15.9
				c0.8,1.4,3.3,0.4,2.4-1c-4.8-8.4-10-16.9-13.5-25.9c-3-7.9-3.1-16.2-3-24.6c0.1-10.3,0.1-20.6,0.3-30.9c0.1-2.2,0.1-4.5,0.1-6.8
				c0-0.1,0-0.1,0-0.2c0.1-6.1,0.3-12,1.9-18c0.2-0.7,0.4-1.4,0.7-2.1c0.2-0.5,0.3-1.3,0.6-1.7c0.3-0.5,1-0.6,1.6-0.5
				c0.6,0.1,1.1,0.4,1.5,0.8c1.4,1.1,2.8,2.4,3.7,3.9c1.1,1.8,1.2,3.4,1,5.5c-0.4,4.8-0.8,9.6-1.1,14.4c-0.3,4.9-0.5,9.8-1,14.7
				c-0.4,4.3-0.9,8.6-1.3,12.9c-0.7,8.3-0.7,16.9,2.1,24.8c1.9,5.5,5.1,10.5,7.8,15.6c3,5.6,6.1,11.2,9,16.9c0.8,1.5,3.2,0.5,2.4-1
				c-4.9-9.6-10.4-18.9-15.2-28.6c-3.6-7.4-4.2-15.8-3.8-24c0.5-8.6,1.7-17.1,2.2-25.7c0.4-7.4,1.2-14.7,1.8-22.1c0-0.1,0-0.1,0-0.2
				c0-1.2,0.3-2.5,0.3-3.7c0-1.5,0-3.1,0.1-4.6c0.1-0.9,0.2-1.8,0.3-2.8c0.1-0.8,0.2-1.6,0.3-2.3c0.3-2.5,0.6-5.1,1.7-7.4
				c0.2-0.5,0.4-0.9,0.8-1.3c0.3-0.4,0.8-0.6,1.3-0.6c0.4,0,0.8,0.2,1.2,0.4c1.5,1.1,1.8,3.5,2.4,5.2c0.5,1.5,1,3.1,1.4,4.6
				c0.8,2.6,1.6,5.1,2.1,7.7c0.5,2.5,0.7,5,1.2,7.5c1.2,6,2.1,12,2.6,18.2c0.5,5.8,0.7,11.6,1.1,17.3c0.4,5.7,1,11.5,2.4,17.1
				c1.3,5.1,3.7,9.7,6.6,14c2.9,4.3,6.3,8.3,9.6,12.3c2.2,2.7,4.4,5.4,6.8,7.9c2.9,3.1,5.8,6,9,8.8c2.8,2.5,5.7,4.9,9.1,6.6
				c1.1,0.5,2.4,1.1,3.6,1.1c1.4,0,2.7-1.2,3.6-2.2c2-2.1,3.2-4.8,3.9-7.6c2.2-8,1.9-16.6,1.8-24.7c-0.1-9.8-0.5-19.6,0.4-29.4
				c0.3-3.8,0.7-7.8,2-11.4c1.2-3.5,2.7-7,4.3-10.3c1.5-2.9,3.1-6.5,5.7-8.7c0.9-0.8,1.6-0.8,2.2-0.5
				C283.9,407.7,282.9,420.2,285.6,434.2z"/>
			<path d="M254.4,682.6c-3.3,0-6.6-0.2-9.8-0.7c-8.1-1.1-15.4-3.4-21.5-6.7l-0.4-0.2c-0.5-0.2-0.9-0.5-1.3-0.8
				c-1-0.8-1.1-2.6-1.1-4.1c0-0.3,0-0.5,0-0.8c-0.4-5.5-0.3-11.1-0.2-16.5l0-0.9c0.1-3,0.1-6,0.2-9c0.3-10.4,0.6-21.2-0.3-31.7
				l0-0.4c-0.3-4-0.7-8.4-2.8-11.5c-2.4-3.6-4.3-7.1-5.8-10.8l-0.4-0.9c-1.2-3.1-2.3-6-4-8.8c-1.5-2.4-3.2-4.8-4.8-7
				c-1.3-1.8-2.6-3.6-3.8-5.5c-3.2-4.9-6.1-9.9-8.3-13.7c-1.1-1.9-2.2-3.8-3.3-5.7c-3.5-6.1-7.2-12.5-11.1-18.6
				c-1.2-1.8-2.3-3.6-3.5-5.4c-3.5-5.4-7.1-11-10.4-16.6c-3.8-6.4-7.6-13.4-9.8-20.9c-0.9-3.2-1.3-6.5-1.4-10.7
				c-0.1-5.1,0.1-10.2,0.7-15.4c0.8-7.5,2-14.7,3.5-21.2l0.1-0.5c0.6-2.5,1.3-5.3,2.8-7.4c0.8-1.2,2-1.8,3.3-1.7
				c1.4,0.1,2.8,1,3.6,2.5c0.2,0.4,0.4,0.8,0.6,1.2c0.1-1.7,0.3-3.4,0.5-5.1c0.6-5.1,1.4-10.2,2.4-15.1l0.2-1
				c0.6-3.2,1.6-8.1,5.6-8.7c1.2-0.2,2.4,0.1,3.4,0.8c0.1-2.6,0.3-5.3,0.8-8c0.5-3.2,1.1-6.8,3-9.5c0.9-1.4,2-2,3.3-2c0,0,0,0,0.1,0
				c2.6,0,5.2,2.9,6.8,5.3l0.2-2.7c0.3-3.5,0.7-7.2,1.7-10.9c0.7-2.8,1.8-5.8,4.3-7.4c0.7-0.5,1.4-0.5,2.2,0c3.5,2,4.9,6.8,6.1,10.6
				l0.9,2.8c0.6,1.9,1.2,4,1.8,6c0.6,2.2,0.9,4.4,1.2,6.6l0.1,0.5c0.3,2.3,0.8,4.7,1.2,7c0.6,3.5,1.3,7.2,1.6,10.9
				c0.4,4.1,0.7,8.4,0.9,12.5c0.4,7.4,0.9,15,2.3,22.4c2,10.7,8.9,19,15.5,27.1l0.3,0.4c4,4.9,9.4,11.2,15.8,16.8
				c2.4,2.1,5.4,4.8,8.8,6.3c0.5,0.2,1.1,0.5,1.6,0.6c0.1,0,0.1,0,0.2,0c0.1-0.1,0.2-0.1,0.3-0.2c0.9-0.7,1.7-1.5,2.4-2.6
				c1.6-2.6,2.3-5.9,2.7-8.8c0.6-4.2,0.7-8.4,0.8-12.4c0.1-4.2,0-8.4-0.1-12.5c-0.1-5.6-0.2-11.3,0-17c0.3-7.8,1-16,4.1-23.8
				c1.7-4.2,3.5-7.8,5.4-11c1.5-2.5,3.5-5.8,6.6-6.6l0,0c1.5-0.4,2.8-0.2,3.9,0.6c2.9,2.3,3,8.7,3.1,13c0,1.1,0,2,0.1,2.7
				c0.1,1.3,0.4,2.6,0.6,3.9c0.2,1,0.3,1.9,0.5,2.9c0.3,2.4,0.6,4.9,0.8,7.3l0.1,1.3c0.6,5.9,1.3,11.6,2.9,17.3
				c3.5,11.9,5.9,22.4,7.2,32.2c2.9,21,1.4,42.4-0.1,63.1c-0.2,2.2-0.3,4.5-0.5,6.7c-0.2,2.6-0.4,5.3-0.6,7.9
				c-0.6,8.4-1.3,17.1-1.5,25.6c-0.1,4.1-0.1,8.2,0,12.2l0,1.6c0.2,14.1,0.5,28.2,0.9,42.6c0.2,8.1,0.4,16.2,0.7,24.4
				c0,0.8-0.3,1.5-1.1,1.9c-4,2.3-8,4.3-11.9,5.9C275,680.5,264.5,682.6,254.4,682.6z M160.7,429.5c-0.8,0-1.6,0.4-2.2,1.2
				c-1.4,2-2,4.6-2.6,7l-0.1,0.5c-1.6,6.5-2.8,13.6-3.5,21.1c-0.5,5.1-0.7,10.2-0.7,15.2c0.1,4.1,0.5,7.4,1.4,10.5
				c2.1,7.4,5.9,14.3,9.6,20.7c3.3,5.6,6.9,11.2,10.3,16.6c1.2,1.8,2.3,3.6,3.5,5.4c3.9,6.1,7.6,12.5,11.1,18.6
				c1.1,1.9,2.2,3.8,3.3,5.7c2.2,3.8,5.2,8.8,8.3,13.6c1.2,1.8,2.5,3.7,3.8,5.4c1.6,2.3,3.4,4.6,4.8,7.1c1.7,2.8,2.9,6,4.1,9
				l0.4,0.9c1.4,3.6,3.2,7.1,5.6,10.6c2.3,3.3,2.7,8.2,3,12l0,0.4c0.9,10.6,0.6,21.4,0.3,31.9c-0.1,3-0.2,6-0.2,9l0,0.9
				c-0.1,5.4-0.2,11,0.1,16.4c0,0.2,0,0.5,0,0.8c0,1.1,0.1,2.7,0.7,3.2c0.3,0.3,0.7,0.5,1.1,0.7c0.2,0.1,0.3,0.2,0.5,0.2
				c6.1,3.3,13.2,5.5,21.2,6.6c13,1.8,26.8-0.1,39.9-5.5c3.9-1.6,7.8-3.5,11.8-5.8c0.4-0.2,0.5-0.5,0.5-0.9
				c-0.3-8.1-0.5-16.2-0.7-24.4c-0.4-14.4-0.7-28.5-0.9-42.6l0-1.6c-0.1-4-0.1-8.2,0-12.3c0.3-8.6,0.9-17.2,1.5-25.6
				c0.2-2.6,0.4-5.3,0.6-7.9c0.2-2.2,0.3-4.5,0.5-6.7c1.5-20.7,3-42.1,0.1-62.9c-1.4-9.7-3.7-20.2-7.2-32c-1.7-5.7-2.4-11.5-3-17.5
				l-0.1-1.3c-0.2-2.4-0.5-4.8-0.8-7.2c-0.1-1-0.3-1.9-0.5-2.9c-0.2-1.3-0.5-2.7-0.6-4c-0.1-0.7-0.1-1.6-0.1-2.8
				c0-3.8-0.1-10.2-2.6-12.1c-0.8-0.6-1.7-0.7-2.9-0.4c-2.7,0.7-4.5,3.7-5.9,6.1c-1.9,3.2-3.6,6.7-5.3,10.9
				c-3.1,7.6-3.8,15.7-4,23.4c-0.2,5.6-0.1,11.4,0,16.9c0.1,4.1,0.1,8.4,0.1,12.5c-0.1,4-0.2,8.2-0.8,12.5c-0.4,3-1.1,6.4-2.8,9.2
				c-0.7,1.2-1.6,2.2-2.6,2.9c0,0-0.1,0.1-0.1,0.1l0,0c-0.1,0.3-0.4,0.3-0.6,0.3l0,0l-0.2,0c-0.2,0-0.3,0-0.5-0.1c0,0,0,0-0.1,0
				l-1.9-0.3l0.5-0.2c-0.1-0.1-0.3-0.1-0.4-0.2c-3.5-1.6-6.6-4.3-9-6.5c-6.4-5.6-11.9-12-15.9-16.9l-0.3-0.4
				c-6.7-8.2-13.7-16.6-15.7-27.6c-1.4-7.4-1.8-15.1-2.3-22.5c-0.2-4.1-0.5-8.3-0.9-12.4c-0.4-3.6-1-7.3-1.6-10.8
				c-0.4-2.3-0.8-4.7-1.2-7l-0.1-0.5c-0.3-2.1-0.6-4.3-1.2-6.4c-0.5-2-1.1-4-1.7-5.9l-0.9-2.8c-1.1-3.6-2.4-8.1-5.6-9.9
				c-0.4-0.2-0.7-0.2-1,0c-2.2,1.4-3.1,4.2-3.8,6.8c-1,3.6-1.4,7.2-1.6,10.7l-0.5,6l-0.9-1.4c-2.4-3.9-4.9-6.1-6.8-6.1
				c-0.9,0-1.7,0.5-2.4,1.5c-1.7,2.5-2.3,6-2.8,9c-0.5,3.1-0.7,6.2-0.8,9.1l-0.1,1.4l-0.9-1c-0.9-1-2-1.5-3.3-1.3
				c-3.2,0.5-4.1,4.7-4.7,7.8l-0.2,1c-1,4.8-1.8,9.9-2.4,15c-0.3,2.6-0.5,5.3-0.7,7.8l-0.1,1.3l-1.1,0c-0.1-1.6-0.4-3.4-1.2-4.9
				c-0.6-1.1-1.6-1.8-2.7-1.9C160.9,429.5,160.8,429.5,160.7,429.5z M254.5,680c-0.6,0-1.1,0-1.7,0c-9.2-0.2-18.1-2.2-25.9-5.7
				c-1.1-0.5-2.2-1.1-3.3-1.6l-0.6-0.4l-0.2-0.3c-0.9-6.4-0.7-13-0.5-19.4c0-1.5,0.1-2.9,0.1-4.4l0.1-4.4c0.2-8.6,0.4-17.5,0.1-26.2
				l0-1.1c-0.2-6.6-0.5-14-4.2-19.5c-1.8-2.6-3.3-5.4-4.5-8.3c-0.4-0.9-0.7-1.9-1.1-2.8c-0.5-1.2-0.9-2.5-1.5-3.7
				c-1.9-4.3-4.6-8.2-7.3-11.9c-1.2-1.7-2.5-3.4-3.6-5.2c-4.3-6.5-8.2-13.3-12-19.9c-3.3-5.7-6.7-11.6-10.2-17.2
				c-1.5-2.4-3-4.7-4.5-7.1c-5.2-8.1-10.6-16.4-14.9-25.2c-2.1-4.2-4.4-9.3-5.3-14.6c-0.5-3-0.5-6.1-0.5-8.8c0-3.7,0.2-7.5,0.6-11.5
				c0.3-3.2,0.8-6.7,1.4-10.8c0.1-0.4,0.2-1.1,0.3-2c0.3-2.4,0.8-5.6,1.1-6.7l1.4-5.5c0.2-0.7,0.4-1.5,0.8-2.2
				c0.3-0.6,1.1-1.4,1.9-1.6c0.5-0.1,0.9-0.1,1.3,0.2c1.5,0.9,2,3.5,2.1,4.3c0.1,1,0.1,1.9,0.1,2.9c0,0.5,0,1,0,1.5
				c0.1,1.8-0.3,9.2-0.4,10.1c-0.1,1.3-0.2,2.6-0.2,3.8c0,1.3,0,2.6-0.1,3.9c-0.1,2.5-0.2,4.8,0.1,7.2c1.1,12.1,7.1,23,13.3,33.3
				c1.5,2.5,2.9,4.7,4.3,6.7c0.3,0.5,0.7,0.2,0.9,0.1c0.2-0.2,0.6-0.6,0.3-1.1c-4.6-6.6-8.7-13.9-12.3-21.7c-1.4-3.1-3-6.6-3.9-10.4
				c-0.8-3.4-1.3-7.1-1.4-11.8c0.2-4.3,0.8-8.5,1.3-12.6l0.2-1.6c0.6-4.6,0.9-9.1,1.3-13.7l0.1-0.9c0.2-2,0.4-4.1,0.7-6.2l0.1-0.7
				c0.1-0.7,0.2-1.4,0.2-2.1c0-1.1,0.5-7.5,0.7-8.6c0.1-0.5,0.2-1.1,0.3-1.6c0.2-0.9,0.4-1.9,0.6-2.8c0.5-1.8,1.3-3.2,2.4-4.1
				c0.5-0.5,1.1-0.7,1.6-0.7c0.4,0,0.7,0.1,1,0.2l0.1,0c0.1,0,0.1,0,0.2,0c0.2,0,0.5,0.1,0.7,0.3c0.6,0.4,0.8,1.1,1,1.7l0.1,0.3
				c0.2,0.7,0.4,1.4,0.6,2.3c0,0.1,0,0.1-0.1,4.2c-0.1,6.6-0.3,18.8-0.3,25.9c0,1.7,0,3.4-0.1,5.1c-0.1,7.6-0.3,15.4,1.6,22.8
				c1.3,5.3,3.7,10.2,6.3,15.1c2.5,4.8,5.2,9.6,7.8,14.2l0.9,1.7c0.3,0.5,0.9,0.5,1.2,0.3c0.3-0.2,0.4-0.4,0.2-0.8
				c-0.8-1.5-1.7-2.9-2.5-4.4c-4-6.9-8.1-14.1-11-21.6c-2.9-7.7-3.1-15.8-3.1-24.8l0-7.4c0-7.7,0.1-15.7,0.3-23.5
				c0-1.3,0.1-2.5,0.1-3.8l0.1-2.9l0,0l0-0.2c0.1-5.6,0.3-11.9,1.9-18.2c0.2-0.7,0.4-1.3,0.8-2.1c0.1-0.2,0.1-0.4,0.2-0.6
				c0.1-0.4,0.2-0.8,0.5-1.2c0.4-0.6,1.3-0.9,2.1-0.8c0.7,0.1,1.3,0.5,1.7,0.9c1.7,1.2,2.9,2.6,3.8,4.1c1.2,2.1,1.3,4,1.1,5.8
				c-0.4,4.2-0.8,9.2-1.1,14.4c-0.1,1.7-0.2,3.4-0.3,5.1c-0.2,3.1-0.4,6.4-0.7,9.6c-0.2,1.6-0.3,3.1-0.5,4.7
				c-0.3,2.7-0.6,5.5-0.8,8.2c-0.6,7.5-0.8,16.4,2.1,24.6c1.4,4.1,3.6,8,5.8,11.8c0.7,1.2,1.4,2.5,2,3.7l0.2,0.4
				c2.9,5.4,5.9,11,8.8,16.5c0.3,0.5,0.8,0.5,1.1,0.3c0.2-0.1,0.5-0.4,0.3-0.8c-2.1-4.2-4.4-8.4-6.7-12.4
				c-2.9-5.3-5.8-10.7-8.5-16.2c-3.2-6.4-4.4-14.1-3.9-24.2c0.2-4.5,0.7-9,1.1-13.3c0.4-4.1,0.8-8.3,1.1-12.4
				c0.3-4.8,0.7-9.7,1.1-14.4c0.2-2.6,0.5-5.1,0.7-7.7l0.6-0.1l-0.6,0c0-0.6,0.1-1.1,0.1-1.7c0.1-0.7,0.1-1.4,0.1-2
				c0-1.5,0-3.1,0.1-4.7c0.1-0.9,0.2-1.8,0.3-2.7l0.3-2.5c0.3-2.5,0.6-5.1,1.7-7.6c0.2-0.5,0.5-1,0.9-1.4c0.9-0.9,2.1-1.1,3.2-0.3
				c1.3,1,1.8,2.7,2.2,4.2c0.1,0.4,0.2,0.9,0.4,1.3c0.5,1.5,0.9,3,1.4,4.4l0.1,0.2c0.2,0.6,0.4,1.2,0.6,1.9c0.6,1.9,1.2,3.9,1.6,5.9
				c0.2,1.2,0.4,2.4,0.6,3.6c0.2,1.3,0.4,2.6,0.6,3.9c1.3,6.8,2.1,12.6,2.6,18.2c0.2,3,0.4,6,0.6,8.9c0.2,2.8,0.3,5.6,0.5,8.4
				c0.4,5.2,0.9,11.3,2.4,17c1.1,4.5,3.2,8.8,6.5,13.8c2.6,3.8,5.6,7.5,8.5,11l1.1,1.3c2.1,2.6,4.4,5.3,6.8,7.9
				c3.2,3.4,6.1,6.3,8.9,8.8c2.7,2.4,5.7,4.8,9,6.5c1,0.5,2.2,1,3.4,1.1c1.3,0,2.6-1.4,3.2-2c1.7-1.7,2.9-4.1,3.8-7.3
				c2-7.3,1.9-15,1.8-22.6l0-2c0-1.7,0-3.3-0.1-5c-0.1-8-0.2-16.3,0.5-24.5c0.3-3.4,0.7-7.7,2-11.6c1.1-3.2,2.5-6.6,4.4-10.4
				l0.3-0.6c1.4-2.9,3-6.2,5.5-8.2c1.3-1.1,2.3-0.9,2.8-0.6c1.4,0.7,1.7,3.7,2.2,10.4c0.4,4.9,0.8,11.1,2.1,17.6l0,0
				c0.1,1.2,0.3,2.3,0.4,3.5c0.7,6.4,1.7,11.7,3.1,16.6c1.7,5.8,3.1,11.1,4.2,16.4c2.3,10.7,3.7,21.5,4.1,32.1
				c0.4,11.4-0.3,22.9-1,34l-0.1,2c-0.3,5.2-0.7,10.4-1.1,15.6c-0.5,6.8-0.9,13.5-1.4,20.3c-0.4,6-0.8,12.9-0.8,19.6
				c0,12.5,0.3,25.2,0.6,37.5l0.1,2.7c0.3,10.9,0.6,21.8,0.9,32.7l0,1.2l-0.3,0.2C281.8,676.1,267.8,680,254.5,680z M224.1,671.6
				c1.1,0.6,2.2,1.2,3.3,1.7c7.6,3.5,16.5,5.4,25.5,5.6c13.5,0.4,27.8-3.5,41.3-11.1l0-0.5c-0.3-10.9-0.6-21.8-0.9-32.7l-0.1-2.7
				c-0.3-12.3-0.6-25-0.6-37.5c0-6.7,0.4-13.6,0.8-19.6c0.4-6.8,0.9-13.6,1.4-20.3c0.4-5.2,0.7-10.4,1.1-15.6l0.1-2
				c0.7-11.1,1.5-22.6,1-33.9c-0.4-10.6-1.8-21.3-4.1-31.9c-1.1-5.3-2.5-10.6-4.2-16.4c-1.5-5-2.5-10.3-3.2-16.8
				c-0.1-1.2-0.3-2.3-0.4-3.5c-1.3-6.6-1.8-12.8-2.1-17.7c-0.3-4.6-0.7-9-1.6-9.4c-0.4-0.2-0.9-0.1-1.6,0.4
				c-2.3,1.9-3.9,5.1-5.2,7.9l-0.3,0.7c-1.8,3.7-3.2,7-4.3,10.2c-1.2,3.7-1.6,7.9-1.9,11.3c-0.7,8.1-0.6,16.4-0.5,24.4
				c0,1.7,0,3.3,0.1,5l0,2c0.1,7.6,0.2,15.5-1.8,22.9c-0.9,3.4-2.2,6-4,7.8c-1.2,1.2-2.5,2.4-4.1,2.3c-1.4-0.1-2.8-0.7-3.9-1.2
				c-3.4-1.7-6.4-4.2-9.2-6.6c-2.9-2.6-5.8-5.5-9-8.9c-2.4-2.6-4.7-5.4-6.8-7.9l-1.1-1.3c-2.9-3.5-5.9-7.2-8.5-11.1
				c-3.4-5-5.6-9.7-6.7-14.2c-1.4-5.8-2-11.9-2.4-17.2c-0.2-2.8-0.4-5.6-0.5-8.4c-0.2-2.9-0.3-5.9-0.6-8.9
				c-0.4-5.6-1.3-11.3-2.6-18.1c-0.3-1.3-0.4-2.6-0.6-3.9c-0.2-1.2-0.3-2.4-0.6-3.6c-0.4-2-1-3.9-1.5-5.8c-0.2-0.6-0.4-1.3-0.6-1.9
				l-0.1-0.2c-0.4-1.4-0.9-2.9-1.4-4.4c-0.1-0.4-0.3-0.9-0.4-1.4c-0.4-1.4-0.7-2.8-1.8-3.5c-0.7-0.5-1.2-0.4-1.7,0.1
				c-0.3,0.3-0.5,0.7-0.7,1.1c-1,2.3-1.3,4.8-1.6,7.3l-0.3,2.3c-0.1,1-0.2,1.9-0.3,2.7c-0.1,1.5-0.2,3-0.1,4.5
				c0,0.7-0.1,1.4-0.1,2.2c-0.1,0.5-0.1,1.1-0.1,1.6c0,0.1,0,0.2,0,0.3c-0.2,2.5-0.4,5.1-0.7,7.6c-0.4,4.7-0.8,9.6-1.1,14.4
				c-0.2,4.2-0.7,8.4-1.1,12.5c-0.4,4.3-0.9,8.8-1.1,13.3c-0.5,9.9,0.7,17.4,3.7,23.7c2.7,5.4,5.6,10.9,8.5,16.1
				c2.2,4.1,4.5,8.3,6.7,12.5c0.5,0.9,0.1,1.9-0.8,2.3c-0.9,0.4-2.1,0.3-2.7-0.8c-2.8-5.5-5.8-11.1-8.7-16.5l-0.2-0.4
				c-0.7-1.2-1.3-2.4-2-3.7c-2.2-3.8-4.4-7.8-5.9-12c-3-8.4-2.7-17.4-2.1-25.1c0.2-2.8,0.5-5.5,0.8-8.2c0.2-1.6,0.3-3.1,0.5-4.7
				c0.3-3.2,0.5-6.4,0.7-9.5c0.1-1.7,0.2-3.4,0.3-5.1c0.4-5.2,0.8-10.2,1.1-14.4c0.2-1.9,0.1-3.4-1-5.2c-0.8-1.3-2-2.6-3.5-3.8
				c-0.4-0.3-0.8-0.6-1.3-0.7c-0.3-0.1-0.8,0-1,0.3c-0.1,0.2-0.2,0.5-0.3,0.9c-0.1,0.3-0.1,0.6-0.3,0.8c-0.3,0.8-0.5,1.4-0.7,2
				c-1.6,6.2-1.7,12.4-1.9,17.9c0,0,0,0.1,0,0.2l-0.1,2.9c0,1.3,0,2.6-0.1,3.8c-0.2,7.8-0.2,15.8-0.3,23.5l0,7.4
				c-0.1,8.9,0.1,16.9,3,24.4c2.8,7.5,6.9,14.6,10.9,21.5c0.8,1.5,1.7,2.9,2.5,4.4c0.5,0.9,0.2,1.8-0.7,2.3
				c-0.9,0.5-2.2,0.4-2.8-0.7l-0.9-1.7c-2.6-4.6-5.4-9.4-7.8-14.3c-2.6-5-5-9.9-6.4-15.4c-1.9-7.5-1.7-15.4-1.6-23.1
				c0-1.7,0.1-3.4,0.1-5.1c0-7.1,0.2-19.4,0.3-25.9c0-2.4,0.1-3.9,0.1-4.1c-0.1-0.7-0.3-1.4-0.5-2l-0.1-0.3
				c-0.1-0.4-0.3-0.9-0.6-1.1c0,0-0.2-0.1-0.3-0.1c-0.1,0-0.2,0-0.3-0.1l-0.2-0.1c-0.2-0.1-0.4-0.1-0.6-0.1c-0.2,0-0.5,0.2-0.9,0.5
				c-0.9,0.8-1.6,2-2.1,3.6c-0.3,0.9-0.4,1.8-0.6,2.7c-0.1,0.6-0.2,1.1-0.3,1.7c-0.2,1-0.7,7.3-0.7,8.3c0,0.8-0.1,1.6-0.2,2.3
				l-0.1,0.7c-0.3,2.1-0.5,4.2-0.7,6.2l-0.1,0.9c-0.3,4.6-0.7,9.2-1.3,13.8l-0.2,1.6c-0.5,4.1-1.1,8.3-1.3,12.5
				c0.1,4.5,0.5,8.2,1.3,11.5c0.9,3.7,2.4,7.2,3.8,10.2c3.5,7.8,7.6,15,12.2,21.5c0.7,1,0.2,2.1-0.5,2.7c-0.7,0.5-1.8,0.5-2.5-0.4
				c-1.4-2-2.8-4.2-4.3-6.7c-6.2-10.3-12.4-21.4-13.4-33.7c-0.2-2.5-0.1-5-0.1-7.4c0-1.3,0.1-2.6,0.1-3.9c0-1.2,0.1-2.5,0.2-3.9
				c0.1-0.9,0.5-8.2,0.4-10c0-0.5,0-1.1,0-1.6c0-0.9,0-1.8-0.1-2.7c-0.2-1.3-0.7-2.9-1.5-3.4c-0.1-0.1-0.3-0.1-0.5-0.1
				c-0.5,0.1-1,0.6-1.2,1.1c-0.3,0.6-0.5,1.3-0.7,1.9l-1.4,5.5c-0.3,1-0.8,4.4-1.1,6.6c-0.1,0.9-0.2,1.6-0.3,2
				c-0.7,4.1-1.1,7.6-1.4,10.7c-0.4,3.9-0.5,7.7-0.5,11.4c0,2.7,0,5.7,0.5,8.6c0.9,5.2,3.2,10.1,5.2,14.3c4.3,8.7,9.7,17,14.9,25
				c1.5,2.4,3,4.7,4.5,7.1c3.6,5.7,7,11.6,10.3,17.3c3.8,6.6,7.7,13.4,12,19.9c1.1,1.7,2.4,3.5,3.6,5.2c2.7,3.8,5.5,7.7,7.4,12.1
				c0.5,1.2,1,2.5,1.5,3.7c0.4,0.9,0.7,1.9,1.1,2.8c1.1,2.8,2.6,5.5,4.3,8.1c3.9,5.8,4.2,13.4,4.4,20.1l0,1.1
				c0.3,8.7,0.1,17.6-0.1,26.2l-0.1,4.4c0,1.5-0.1,2.9-0.1,4.4C223.4,658.9,223.2,665.4,224.1,671.6L224.1,671.6z M223.8,671.8
				l-0.1,0.2l0.2-0.2L223.8,671.8z"/>
		</g>
		<g>
			<polygon class="st0" points="326.9,324.5 270.9,314.8 293,283.5 261.7,305.5 252,239.8 242.3,305.5 211,283.5 233,314.8 
				177,324.5 233,334.2 211,365.5 242.3,343.5 252,409.2 261.7,343.5 293,365.5 270.9,334.2 			"/>
		</g>
		<g>
			<path d="M396.4,503.8c-3.8-3.8-3.7-25.3-6.4-25.3s-1.8,20.7-6.4,25.3s-19.3,2.6-19.3,5.6s14.9,1.1,19.3,5.6
				c4.5,4.5,3.7,25.3,6.4,25.3c2.7,0,2.3-21.2,6.4-25.3c4.1-4.1,19.3-3.1,19.3-5.6S400.2,507.7,396.4,503.8z"/>
		</g>
		<g>
			<path d="M119.5,374.8c-2.4-2.4-2.3-15.5-3.9-15.5c-1.7,0-1.1,12.7-3.9,15.5c-2.8,2.8-11.9,1.6-11.9,3.4s9.1,0.7,11.9,3.4
				c2.7,2.7,2.3,15.5,3.9,15.5c1.7,0,1.4-13,3.9-15.5c2.5-2.5,11.9-1.9,11.9-3.4C131.4,376.7,121.9,377.1,119.5,374.8z"/>
		</g>
		<g>
			<path d="M349.8,481.5c-1.5-1.5-1.5-10.2-2.6-10.2c-1.1,0-0.7,8.3-2.6,10.2c-1.9,1.9-7.7,1.1-7.7,2.2c0,1.2,6,0.5,7.7,2.2
				c1.8,1.8,1.5,10.2,2.6,10.2s0.9-8.5,2.6-10.2c1.6-1.6,7.7-1.3,7.7-2.2C357.6,482.8,351.4,483,349.8,481.5z"/>
		</g>
		<g>
			<path d="M386.5,422.1c-3.2-3.2-3.1-21.3-5.4-21.3s-1.5,17.4-5.4,21.3c-3.9,3.9-16.3,2.2-16.3,4.7s12.5,1,16.3,4.7
				s3.1,21.3,5.4,21.3s1.9-17.9,5.4-21.3c3.5-3.5,16.3-2.7,16.3-4.7S389.7,425.4,386.5,422.1z"/>
		</g>
		<g>
			<g>
				<g>
					<g>
						<path d="M139.2,631.7c0.1-30.3-21.2-56.5-48.4-67.4c-1.1-0.4-2.1,0.6-2.1,1.6c-0.8,30.8,15.9,62.4,48.4,67.4
							c2.1,0.3,3-2.9,0.9-3.3c-31-4.8-46.6-34.7-45.9-64.1c-0.7,0.5-1.4,1.1-2.1,1.6c25.8,10.3,46,35.5,45.9,64.1
							C135.8,633.9,139.2,633.9,139.2,631.7z"/>
					</g>
				</g>
				<g>
					<g>
						<path d="M155.2,651.3c-18.9-16.3-47.2-18.2-69.9-10.4c-1.3,0.4-1.6,1.8-0.7,2.8c6.3,7.4,14.9,13.6,23.7,17.4
							c16.6,7.2,33.1,3.7,47-7.4c1.7-1.4-0.7-3.7-2.4-2.4c-14.5,11.6-31.8,13.4-48.1,4.3c-6.6-3.7-12.9-8.5-17.8-14.3
							c-0.2,0.9-0.5,1.9-0.7,2.8c21.5-7.4,48.6-6,66.6,9.5C154.5,655.1,156.9,652.7,155.2,651.3z"/>
					</g>
				</g>
				<g>
					<g>
						<path d="M162.4,654.1c-14.9-16-16.7-40.7-10.2-60.6c-0.9,0.2-1.9,0.5-2.8,0.7c5.4,4.3,10.2,9.9,13.7,15.8
							c8.9,14.8,7.5,30.6-3.1,44.1c-1.3,1.7,1,4.1,2.4,2.4c10-12.7,13.3-27.7,6.5-42.7c-3.8-8.3-9.9-16.3-17.1-22
							c-1-0.8-2.4-0.6-2.8,0.7c-7,21.1-4.7,47,11,63.9C161.5,658,163.9,655.6,162.4,654.1z"/>
					</g>
				</g>
				<g>
					<g>
						<path d="M91,568.1c2.2,7.5,8.7,14.6,13.1,20.9c7.6,10.8,15.4,21.5,23.3,32.2c5.2,7.1,10.5,14.3,15.7,21.4
							c9.2,12.3,20.7,22,33.9,29.9c1.9,1.1,3.6-1.8,1.7-2.9c-13.4-8-24.9-17.9-34.1-30.5c-5.1-7-10.2-13.9-15.3-20.8
							c-7.4-10-14.7-20-21.9-30.2c-4.3-6.1-11-13.4-13.2-20.7C93.7,565.1,90.4,566,91,568.1L91,568.1z"/>
					</g>
				</g>
				<g>
					<g>
						<path d="M87,644.4c7.8,3.7,17.4,5,25.8,6.7c12.7,2.5,25.6,2.4,38.5,2.7c2.2,0,2.2-3.3,0-3.4c-12.6-0.3-25.2-0.1-37.6-2.5
							c-8.1-1.6-17.5-2.7-25-6.3C86.7,640.5,85,643.4,87,644.4L87,644.4z"/>
					</g>
				</g>
				<g>
					<g>
						<path d="M150.1,597.9c2.8,8.6,6.7,15.8,7.9,25c1.2,9.3,2.4,18.7,1.3,28c-0.3,2.2,3.1,2.1,3.4,0c1.2-10-0.2-20.3-1.6-30.2
							c-1.3-8.9-5-15.4-7.8-23.7C152.7,594.9,149.5,595.8,150.1,597.9L150.1,597.9z"/>
					</g>
				</g>
			</g>
			<g>
				<g>
					<g>
						<path d="M368.1,631.7c-0.1-28.6,20.1-53.8,45.9-64.1c-0.7-0.5-1.4-1.1-2.1-1.6c0.8,29.4-14.9,59.3-45.9,64.1
							c-2.1,0.3-1.2,3.6,0.9,3.3c32.5-5,49.2-36.6,48.4-67.4c0-1-1.1-2.1-2.1-1.6c-27.2,10.9-48.5,37.1-48.4,67.4
							C364.7,633.9,368.1,633.9,368.1,631.7z"/>
					</g>
				</g>
				<g>
					<g>
						<path d="M351.1,653.7c18-15.5,45.1-16.9,66.6-9.5c-0.2-0.9-0.5-1.9-0.7-2.8c-4.9,5.8-11.2,10.7-17.8,14.3
							c-16.3,9-33.5,7.3-48.1-4.3c-1.7-1.4-4.1,1-2.4,2.4c13.9,11.1,30.4,14.6,47,7.4c8.9-3.8,17.4-10,23.7-17.4
							c0.8-1,0.5-2.4-0.7-2.8c-22.8-7.8-51-5.9-69.9,10.4C347.1,652.7,349.5,655.1,351.1,653.7z"/>
					</g>
				</g>
				<g>
					<g>
						<path d="M344,656.4c15.7-16.9,18-42.8,11-63.9c-0.4-1.3-1.8-1.5-2.8-0.7c-7.2,5.7-13.4,13.6-17.1,22
							c-6.8,15.1-3.5,30,6.5,42.7c1.3,1.7,3.7-0.7,2.4-2.4c-10.6-13.5-12-29.4-3.1-44.1c3.6-5.9,8.3-11.5,13.7-15.8
							c-0.9-0.2-1.9-0.5-2.8-0.7c6.6,19.9,4.7,44.6-10.2,60.6C340.1,655.6,342.5,658,344,656.4z"/>
					</g>
				</g>
				<g>
					<g>
						<path d="M409.6,567.2c-2.1,7.1-8.5,14.1-12.7,20.1c-7.3,10.4-14.8,20.7-22.3,30.9c-5,6.8-10.1,13.5-15,20.4
							c-9.3,12.8-20.7,22.8-34.4,30.9c-1.9,1.1-0.2,4,1.7,2.9c13.2-7.8,24.8-17.5,33.9-29.9c5.3-7.1,10.5-14.2,15.7-21.4
							c7.9-10.6,15.7-21.3,23.3-32.2c4.4-6.3,10.8-13.4,13.1-20.9C413.5,566,410.3,565.1,409.6,567.2L409.6,567.2z"/>
					</g>
				</g>
				<g>
					<g>
						<path d="M415.3,641.5c-7.5,3.6-16.9,4.7-25,6.3c-12.4,2.4-25,2.3-37.6,2.5c-2.2,0-2.2,3.4,0,3.4c12.9-0.3,25.8-0.2,38.5-2.7
							c8.4-1.7,18-2.9,25.8-6.7C419,643.4,417.2,640.5,415.3,641.5L415.3,641.5z"/>
					</g>
				</g>
				<g>
					<g>
						<path d="M350.5,597c-2.7,8.3-6.5,14.9-7.8,23.7c-1.4,9.9-2.7,20.2-1.6,30.2c0.2,2.1,3.6,2.2,3.4,0c-1.1-9.3,0.1-18.7,1.3-28
							c1.2-9.2,5.1-16.4,7.9-25C354.5,595.8,351.2,594.9,350.5,597L350.5,597z"/>
					</g>
				</g>
			</g>
		</g>
	</g>
</g>
</svg>
