<?xml version="1.0" encoding="utf-8"?>
<!-- Generator: Adobe Illustrator 21.1.0, SVG Export Plug-In . SVG Version: 6.00 Build 0)  -->
<svg version="1.1" id="Слой_1" xmlns="http://www.w3.org/2000/svg" xmlns:xlink="http://www.w3.org/1999/xlink" x="0px" y="0px"
	 viewBox="0 0 504 864" style="enable-background:new 0 0 504 864;" xml:space="preserve">
<style type="text/css">
	.st0{fill:#040404;}
	.st1{fill:#FFFFFF;}
</style>
<g>
	<g>
		<path d="M51.9,53.6c6.7-7.6,6.7-19,0.1-26.4c0.8,7.2-1.3,14.8-6.5,20.6c-5.2,5.8-12.3,8.7-19.5,8.6C34,62.2,45.2,61.1,51.9,53.6z"
			/>
		<path d="M458.4,47.7c-5.2-5.8-7.3-13.3-6.5-20.6c-6.5,7.5-6.6,18.9,0.2,26.4c6.7,7.6,17.9,8.6,25.9,2.8
			C470.7,56.4,463.6,53.5,458.4,47.7z"/>
		<path d="M26.1,807.4c7.2-0.1,14.3,2.8,19.5,8.6c5.2,5.8,7.3,13.3,6.5,20.6c6.5-7.5,6.6-18.9-0.1-26.4
			C45.2,802.6,34,801.6,26.1,807.4z"/>
		<path d="M452,810.2c-6.7,7.6-6.7,19-0.2,26.4c-0.8-7.2,1.3-14.8,6.5-20.6c5.2-5.8,12.3-8.7,19.5-8.6
			C470,801.6,458.8,802.6,452,810.2z"/>
		<path d="M503.8,18.2c-1.6-17.9-18.7-16.3-31.6-16.3c-45.9,0-91.8,0-137.6,0c-63.2,0-126.3,0-189.5,0c-40.6,0-81.2,0-121.8,0
			c-2.6,0-5.3-0.2-8,0.2c-9.5,1.2-15,9.2-15.2,18.2c-0.2,7.3,0,14.5,0,21.8c0,37.4,0,74.9,0,112.3c0,57,0,114.1,0,171.1
			c0,64.3,0,128.6,0,192.9c0,58.4,0,116.7,0,175.1c0,40.1,0,80.2,0,120.3c0,9.1,0,18.2,0,27.3c0,11.7,6.7,20.5,19.2,20.7
			c35.9,0.6,71.9,0,107.9,0c62.4,0,124.9,0,187.3,0c49.7,0,99.5,0,149.2,0c7.6,0,15.2,0,22.9,0c0.4,0,0.8-0.1,1.2-0.2
			c14.4-1.8,16.1-13.8,16.1-25.5c0-11.4,0-22.8,0-34.3c0-43.4,0-86.9,0-130.3c0-59.9,0-119.8,0-179.8c0-63.9,0-127.7,0-191.6
			c0-55.3,0-110.6,0-165.9c0-33.7,0-67.3,0-101C503.9,28.3,504.2,23.2,503.8,18.2z M486.6,852.8c-28.3,0-56.6,0-84.9,0
			c-59.9,0-119.8,0-179.7,0c-54,0-108,0-162,0c-13.1,0-26.1,0-39.2,0c-5.6,0-11-1.3-11.7-8.3c-0.2-1.5,0-3,0-4.5c0-26.5,0-53,0-79.5
			c0-50,0-100,0-149.9c0-61.8,0-123.6,0-185.4c0-61.4,0-122.7,0-184.1c0-48.9,0-97.7,0-146.6c0-24.2-0.8-48.6,0-72.7
			c0.2-5.3,1.6-10.1,8.3-10.8c2.2-0.2,4.5,0,6.7,0c14.8,0,29.6,0,44.5,0c55.6,0,111.3,0,166.9,0c58.9,0,117.8,0,176.7,0
			c18.9,0,37.9,0,56.8,0c8.1,0,24.7-3.1,25.9,8.4c0.5,5.2,0,10.8,0,16.1c0,13.5,0,27.1,0,40.6c0,45.5,0,91.1,0,136.6
			c0,60.1,0,120.2,0,180.3c0,62.6,0,125.2,0,187.7c0,52.8,0,105.6,0,158.4c0,31.4,0,62.7,0,94.1C494.8,840.3,496.9,852,486.6,852.8z
			"/>
		<path d="M460,790.9c1.2,0.1,2.4-0.7,2.4-2.2c0-23.7,0-47.4,0-71.1c0-56.4,0-112.8,0-169.2c0-68.7,0-137.4,0-206
			c0-59,0-117.9,0-176.9c0-19.6,0-39.2,0-58.8c0-8.9,1.3-19,0-27.9c-0.1-0.4,0-0.8,0-1.2c0-0.8-0.3-1.3-0.8-1.7
			c0.1-1.2-0.6-2.5-2.2-2.6c-13.1-0.5-25.3-13.8-25.8-26.7c0-0.5-0.2-0.8-0.4-1.1c-0.3-0.6-1-1.1-1.9-1.1c-40.5,0-80.9,0-121.4,0
			c-64.5,0-129,0-193.6,0c-14.9,0-29.7,0-44.6,0c-0.9,0-1.6,0.5-1.9,1.1c-0.2,0.3-0.3,0.7-0.4,1.2C69.1,59.5,57,72.8,43.9,73.3
			c-1.8,0.1-2.5,1.9-2,3.2c-0.2,0.3-0.2,0.6-0.2,1c0,23.7,0,47.4,0,71.1c0,56.4,0,112.8,0,169.2c0,68.7,0,137.4,0,206
			c0,59,0,117.9,0,176.9c0,19.6,0,39.2,0,58.8c0,8.9-1.3,19,0,27.9c0.1,0.4,0,0.8,0,1.2c0,0.9,0.5,1.6,1.1,1.9
			c0.3,0.2,0.7,0.3,1.2,0.4c13,0.5,25.3,13.3,25.8,26.2c0,0.5,0.2,0.8,0.4,1.1c0.3,0.6,1,1.1,1.9,1.1c40.5,0,80.9,0,121.4,0
			c64.5,0,129,0,193.6,0c14.9,0,29.7,0,44.6,0c0.9,0,1.6-0.5,1.9-1.1c0.2-0.3,0.3-0.7,0.4-1.2c0.5-12.9,12.7-25.7,25.8-26.2
			C459.6,791,459.8,790.9,460,790.9z M429.3,814.9c-39.8,0-79.6,0-119.3,0c-64.5,0-129,0-193.6,0c-14.2,0-28.3,0-42.5,0
			c-1.7-13.9-13.9-26.5-27.8-28.3c0-23,0-46,0-69.1c0-56.4,0-112.8,0-169.2c0-68.7,0-137.4,0-206c0-59,0-117.9,0-176.9
			c0-19.6,0-39.2,0-58.8c0-8.9,1.3-19,0-27.9c-0.1-0.4,0-0.8,0-1.2c14-1.8,26.1-14.9,27.8-28.7c39.8,0,79.6,0,119.3,0
			c64.5,0,129,0,193.6,0c14.2,0,28.3,0,42.5,0c1.7,14.1,14.3,27.4,28.5,28.8c0,23.7,0,47.3,0,71c0,56.4,0,112.8,0,169.2
			c0,68.7,0,137.4,0,206c0,59,0,117.9,0,176.9c0,19.6,0,39.2,0,58.8c0,8.6-1.2,18.4-0.1,27C443.6,788.1,431.1,800.9,429.3,814.9z"/>
		<path d="M222.4,86.7c0-0.2,0-0.4-0.1-0.6c-0.1-0.4-0.3-0.4-0.6-0.1c-0.1,0.1,0,0.4,0.3,0.8l0.4,0.7L222.4,86.7z"/>
		<path d="M240.2,78.1c-1.6,0-2.4,0.1-2.4,0.4s-0.7,0.4-2,0.6c-2,0.1-2.9,0.6-2.9,1.4c0,0.3,0.1,0.7,0.3,1.1
			c0.2,0.4,0.4,0.6,0.6,0.6c0.2,0,0.4,0.2,0.7,0.6c0.3,0.4,0.2,0.8-0.1,1.1c-0.4,0.4-0.4,0.5-0.3,0.5c0.1,0,0.1,0.2-0.3,0.7
			c-0.3,0.4-0.4,0.8-0.4,1.2c0,0.2-0.2,0.6-0.7,1.1c-0.5,0.5-0.7,0.9-0.7,1c0,0.3-0.3,0.4-0.9,0.4c-0.4,0-0.7,0-0.8-0.1
			c-0.1-0.1-0.2-0.4-0.3-0.8c-0.1-0.7-0.4-1.1-0.7-1.4c-0.4-0.2-0.6-0.6-0.6-1.1c0-0.5-0.1-0.8-0.4-1c-0.2-0.1-0.4-0.5-0.6-1.2
			c-0.1-0.7-0.2-1.2-0.2-1.5s0.1-0.5,0.2-0.5c0.1-0.1,0.4-0.1,0.7-0.2c0.5-0.1,0.8-0.1,1-0.2c0.2-0.1,0.3-0.3,0.3-0.6
			c0-0.2,0-0.5-0.1-0.6l-0.2-0.9l-2.4,0.2c-1.6,0.1-2.4,0.2-2.5,0.4c-0.1,0.2-0.4,0.3-0.8,0.3c-0.4,0-0.6-0.1-0.6-0.3
			c0-0.2-0.2-0.3-0.5-0.5c-0.4-0.2-0.7-0.2-1.1-0.2c-0.6,0-0.9,0.2-0.9,0.6c0,0.2-0.2,0.4-0.7,0.4c-0.2,0-0.4,0.1-0.4,0.2
			c0.2,0.1,0.4,0.3,0.4,0.6c0,0.4,0.1,0.5,0.4,0.5c0.2,0,0.4,0.1,0.6,0.4c0.1,0.3,0.5,0.5,1.1,0.6c0.7,0.1,1.1,0.4,1.3,0.8
			c0.2,0.4,0.4,0.6,0.7,0.6c0.2,0,0.3,0.3,0.3,0.8c0,0.6,0.1,0.8,0.4,0.8c0.3,0,0.4,0.2,0.4,0.5c0,0.4,0.2,0.7,0.6,0.9
			c0.2,0.2,0.4,0.4,0.3,0.6s0.1,0.4,0.3,0.5c0.3,0.1,0.6,0.4,0.7,0.9c0.3,0.6,0.5,0.8,0.6,0.8c0.1,0,0.2,0.2,0.2,0.5
			c0,0.3,0.2,0.5,0.6,0.7c0.3,0.1,0.4,0.3,0.4,0.6c0,0.1,0,0.3-0.1,0.5c-0.1,0.2-0.1,0.4-0.1,0.6c0,0.2-0.2,0.4-0.5,0.5
			c-0.4,0.1-0.6,0.4-0.7,1c-0.1,0.6-0.3,0.8-0.4,0.8c-0.2,0-0.6,0.3-1.1,0.9c-0.5,0.6-0.8,1.1-0.8,1.3c0,0.3-0.1,0.5-0.4,0.5
			c-0.3,0-0.4,0.1-0.4,0.4s-0.2,0.5-0.7,0.7c-0.5,0.2-0.7,0.6-0.7,1.2c0,0.3,0,0.5-0.1,0.6c-0.1,0.1-0.2,0.2-0.4,0.2
			c-0.2,0-0.6,0.1-1.2,0.1c-0.9,0.1-1.5,0.2-1.8,0.4c-0.2,0.2-0.4,0.7-0.4,1.5c0,0.7,0.1,1,0.4,1c0.1,0,0.3-0.1,0.4-0.4
			c0.1-0.2,1.2-0.4,3.4-0.4c1.4,0,2.3,0,2.7,0.1c0.4,0.1,0.6,0.2,0.6,0.4c0,0.3,0.1,0.4,0.3,0.1c0.2-0.2,0.4-0.3,0.5-0.2
			c0,0,0.1,0.1,0.2,0.1c0.2,0,0.4-0.1,0.7-0.4c0.3-0.2,0.4-0.5,0.5-0.8s0.1-0.5-0.1-0.6c-0.1-0.1-0.4-0.2-0.9-0.2
			c-1.2-0.2-1.8-0.6-1.8-1.2c0-0.2,0.1-0.3,0.4-0.3c0.3,0,0.4-0.2,0.4-0.7c0-0.5,0.1-0.7,0.4-0.7s0.4-0.1,0.4-0.4
			c0-0.2,0.2-0.5,0.7-1c0.5-0.4,0.7-0.7,0.6-0.8v-0.3c0-0.5,0.1-1,0.4-1.5c0.3-0.5,0.6-0.7,0.9-0.7c0.1,0,0.2,0,0.2,0.1
			c0.3,0.1,0.5,0.3,0.5,0.6c0,0.2,0.3,0.6,0.8,1.3c0.5,0.7,0.8,1.1,0.8,1.2c0,0.2,0.1,0.3,0.4,0.4c0.2,0.1,0.4,0.4,0.5,0.9
			c0.1,0.3,0.2,0.5,0.3,0.7c0.2,0.1,0.4,0.2,0.8,0.3l0.9,0.3l-0.9,0.1c-0.6,0.1-0.9,0.3-0.9,0.6c0,0.8-0.5,1.2-1.4,1.2
			c-0.3,0-0.5,0-0.6,0.1c-0.1,0.1-0.2,0.3-0.2,0.6v0.7h3.6c2.4,0,3.6,0.1,3.7,0.4c0.1,0.3,0.3,0.3,0.6-0.1c0.3-0.3,0.8-0.4,1.5-0.3
			l1.1,0.2v-0.9c0-0.5-0.1-0.8-0.2-0.9c-0.1-0.2-0.4-0.3-0.9-0.5c-0.7-0.3-1.1-0.5-1.1-0.6c0-0.1-0.3-0.3-0.8-0.6
			c-0.5-0.3-0.8-0.5-0.8-0.7c0-0.4-0.1-0.7-0.4-1.2c-0.3-0.4-0.5-0.6-0.7-0.6c-0.1,0-0.3-0.3-0.5-0.8c-0.2-0.6-0.4-0.8-0.6-0.8
			c-0.2,0-0.4-0.2-0.5-0.5c-0.1-0.4-0.6-0.9-1.4-1.8c-0.8-0.8-1.3-1.3-1.5-1.3c-0.1,0-0.2-0.1-0.2-0.4c0-0.8,0.4-1.7,1.2-2.6
			c0.6-0.6,0.9-1.1,0.9-1.4c0-0.2,0.3-0.6,0.8-1.1c0.5-0.5,0.9-0.8,1.1-0.8c0.2,0,0.3-0.2,0.3-0.5c0-0.9,0.3-1.4,0.8-1.4
			c0.3,0,0.5-0.1,0.5-0.3c0-0.2,0.2-0.4,0.5-0.7c0.3-0.2,0.6-0.4,0.9-0.4c0.4,0,0.6-0.2,0.9-0.6l0.5-0.6l0.2,0.6
			c0.1,0.4,0.3,0.6,0.6,0.6c0.2,0,0.4-0.2,0.5-0.5c0.1-0.4,0.4-0.6,0.7-0.6c0.2,0,0.4-0.1,0.5-0.2c0.1-0.1,0.1-0.4,0.1-0.9
			c0-1-0.1-1.6-0.4-1.7C242.4,78.2,241.6,78.1,240.2,78.1z M226.6,81c0,0-0.1-0.1-0.1-0.3c0-0.1,0-0.2,0-0.3c0-0.1,0-0.1,0.1-0.1
			l0.1,0.2C226.7,80.8,226.7,81,226.6,81z M227.2,85.6c-0.1,0-0.1-0.1-0.1-0.2c0-0.1,0-0.1,0.1-0.1c0.1,0,0.2,0,0.2,0.1
			C227.3,85.5,227.3,85.6,227.2,85.6z M227.7,87.4l-0.1-0.3c0-0.1,0-0.2,0-0.3c0-0.1,0-0.1,0.1-0.1C227.8,87,227.8,87.2,227.7,87.4z
			 M230.9,93.6c-0.2,0-0.3-0.1-0.3-0.3c0-0.2,0.1-0.3,0.3-0.3s0.3,0.1,0.3,0.3C231.2,93.5,231.1,93.6,230.9,93.6z"/>
		<path d="M257.5,79.3c-0.3-0.2-1.4-0.3-3.4-0.3c-2,0-2.9,0.1-2.9,0.3c0,0.1-0.3,0.2-0.9,0.2c-0.6,0-0.9,0.1-0.9,0.4
			c0,0.3-0.1,0.4-0.3,0.4c-0.2,0-0.3,0.2-0.3,0.6c0,0.5,0.1,0.8,0.4,0.9c0.3,0.1,0.4,0.9,0.4,2.5c0,1.6,0.1,2.4,0.3,2.5
			c0.2,0.1,0.3,0.8,0.3,2.2c0,1.3-0.1,2-0.3,2.1c-0.2,0.1-0.4,1.5-0.4,4.3c-0.1,2.4-0.2,3.9-0.4,4.3c-0.2,0.5-0.8,0.8-1.8,0.9
			c-0.6,0-0.9,0.1-1,0.2c-0.1,0.1-0.2,0.4-0.2,0.8c0,0.6,0.1,0.9,0.4,0.9c0.3,0,0.6,0.1,0.9,0.4c0.3,0.3,0.5,0.4,0.6,0.2
			c0.1-0.2,1.5-0.4,4-0.4c2.1,0,3.2,0.1,3.2,0.3c0,0.2,0.2,0.3,0.5,0.3c0.4,0,0.6-0.1,0.6-0.2c0-0.1,0.2-0.3,0.6-0.5
			c0.4-0.2,0.6-0.4,0.6-0.6c0-0.9-0.7-1.4-1.9-1.5l-1.3-0.1l0.1-6.7c0.1-4.5,0.2-6.8,0.3-7c0.1-0.1,0.2-0.8,0.3-1.9
			c0.1-2.1,0.4-3.2,0.7-3.2c0.2,0,0.4-0.1,0.4-0.3c0-0.2,0.2-0.3,0.7-0.3c0.4,0,0.8-0.1,1-0.3c0.3-0.2,0.4-0.5,0.4-0.7
			C258,79.8,257.8,79.5,257.5,79.3z M250.8,96.6c-0.3,0-0.4-0.1-0.4-0.3c0-0.2,0.1-0.3,0.4-0.3c0.2,0,0.4,0.1,0.4,0.3
			C251.2,96.5,251,96.6,250.8,96.6z M252.4,89.2c-0.3,0-0.4-0.2-0.4-0.5c0-0.4,0.1-0.6,0.4-0.6s0.4,0.2,0.4,0.6
			C252.8,89,252.7,89.2,252.4,89.2z"/>
		<path d="M264.3,86.7c0-0.2,0-0.4-0.1-0.6c-0.1-0.4-0.3-0.4-0.6-0.1c-0.1,0.1,0,0.4,0.3,0.8l0.4,0.7L264.3,86.7z"/>
		<path d="M275.3,100.4c0,0.8-0.5,1.2-1.4,1.2c-0.3,0-0.5,0-0.6,0.1c-0.1,0.1-0.2,0.3-0.2,0.6v0.7h3.6c2.4,0,3.6,0.1,3.7,0.4
			c0.1,0.3,0.3,0.3,0.6-0.1c0.3-0.3,0.8-0.4,1.5-0.3l1.1,0.2v-0.9c0-0.5-0.1-0.8-0.2-0.9c-0.1-0.2-0.4-0.3-0.9-0.5
			c-0.7-0.3-1.1-0.5-1.1-0.6c0-0.1-0.3-0.3-0.8-0.6c-0.5-0.3-0.8-0.5-0.8-0.7c0-0.4-0.1-0.7-0.4-1.2c-0.3-0.4-0.5-0.6-0.7-0.6
			c-0.1,0-0.3-0.3-0.5-0.8c-0.2-0.6-0.4-0.8-0.6-0.8c-0.2,0-0.4-0.2-0.5-0.5c-0.1-0.4-0.6-0.9-1.4-1.8c-0.8-0.8-1.3-1.3-1.5-1.3
			c-0.1,0-0.2-0.1-0.2-0.4c0-0.8,0.4-1.7,1.2-2.6c0.6-0.6,0.9-1.1,0.9-1.4c0-0.2,0.3-0.6,0.8-1.1c0.5-0.5,0.9-0.8,1.1-0.8
			c0.2,0,0.3-0.2,0.3-0.5c0-0.9,0.3-1.4,0.8-1.4c0.4,0,0.5-0.1,0.5-0.3c0-0.2,0.2-0.4,0.5-0.7c0.3-0.2,0.6-0.4,0.9-0.4
			c0.3,0,0.6-0.2,0.9-0.6l0.5-0.6l0.2,0.6c0.1,0.4,0.3,0.6,0.6,0.6c0.2,0,0.4-0.2,0.5-0.5c0.1-0.4,0.4-0.6,0.7-0.6
			c0.2,0,0.4-0.1,0.5-0.2c0.1-0.1,0.1-0.4,0.1-0.9c0-1-0.1-1.6-0.4-1.7c-0.2-0.2-1.1-0.2-2.4-0.2c-1.6,0-2.4,0.1-2.4,0.4
			s-0.7,0.4-2,0.6c-2,0.1-2.9,0.6-2.9,1.4c0,0.3,0.1,0.7,0.3,1.1c0.2,0.4,0.4,0.6,0.6,0.6c0.2,0,0.4,0.2,0.7,0.6
			c0.3,0.4,0.2,0.8-0.1,1.1c-0.4,0.4-0.4,0.5-0.3,0.5c0.1,0,0.1,0.2-0.3,0.7c-0.3,0.4-0.4,0.8-0.4,1.2c0,0.2-0.2,0.6-0.7,1.1
			c-0.5,0.5-0.7,0.9-0.7,1c0,0.3-0.3,0.4-0.9,0.4c-0.4,0-0.7,0-0.8-0.1c-0.1-0.1-0.2-0.4-0.3-0.8c-0.1-0.7-0.4-1.1-0.7-1.4
			c-0.4-0.2-0.6-0.6-0.6-1.1c0-0.5-0.1-0.8-0.4-1c-0.2-0.1-0.4-0.5-0.6-1.2c-0.1-0.7-0.2-1.2-0.2-1.5s0.1-0.5,0.2-0.5
			c0.1-0.1,0.4-0.1,0.7-0.2c0.5-0.1,0.8-0.1,1-0.2c0.2-0.1,0.3-0.3,0.3-0.6c0-0.2,0-0.5-0.1-0.6l-0.2-0.9L269,79
			c-1.6,0.1-2.4,0.2-2.5,0.4c-0.1,0.2-0.4,0.3-0.8,0.3c-0.4,0-0.6-0.1-0.6-0.3c0-0.2-0.2-0.3-0.5-0.5c-0.4-0.2-0.7-0.2-1.1-0.2
			c-0.6,0-0.9,0.2-0.9,0.6c0,0.2-0.2,0.4-0.7,0.4c-0.2,0-0.4,0.1-0.4,0.2c0.2,0.1,0.4,0.3,0.4,0.6c0,0.4,0.1,0.5,0.4,0.5
			c0.2,0,0.4,0.1,0.6,0.4c0.1,0.3,0.5,0.5,1.1,0.6c0.7,0.1,1.1,0.4,1.3,0.8c0.2,0.4,0.4,0.6,0.7,0.6c0.2,0,0.3,0.3,0.3,0.8
			c0,0.6,0.1,0.8,0.4,0.8c0.3,0,0.4,0.2,0.4,0.5c0,0.4,0.2,0.7,0.6,0.9c0.2,0.2,0.4,0.4,0.3,0.6c0,0.2,0.1,0.4,0.3,0.5
			c0.3,0.1,0.6,0.4,0.7,0.9c0.3,0.6,0.5,0.8,0.6,0.8c0.1,0,0.2,0.2,0.2,0.5c0,0.3,0.2,0.5,0.6,0.7c0.3,0.1,0.4,0.3,0.4,0.6
			c0,0.1,0,0.3-0.1,0.5c-0.1,0.2-0.1,0.4-0.1,0.6c0,0.2-0.2,0.4-0.5,0.5c-0.4,0.1-0.6,0.4-0.7,1c-0.1,0.6-0.3,0.8-0.4,0.8
			c-0.2,0-0.6,0.3-1.1,0.9c-0.5,0.6-0.8,1.1-0.8,1.3c0,0.3-0.1,0.5-0.4,0.5c-0.3,0-0.4,0.1-0.4,0.4s-0.2,0.5-0.7,0.7
			c-0.5,0.2-0.7,0.6-0.7,1.2c0,0.3,0,0.5-0.1,0.6c-0.1,0.1-0.2,0.2-0.4,0.2c-0.2,0-0.6,0.1-1.2,0.1c-0.9,0.1-1.5,0.2-1.8,0.4
			c-0.2,0.2-0.4,0.7-0.4,1.5c0,0.7,0.1,1,0.4,1c0.1,0,0.3-0.1,0.4-0.4c0.1-0.2,1.2-0.4,3.4-0.4c1.4,0,2.3,0,2.7,0.1
			c0.4,0.1,0.6,0.2,0.6,0.4c0,0.3,0.1,0.4,0.3,0.1c0.2-0.2,0.4-0.3,0.5-0.2c0,0,0.1,0.1,0.2,0.1c0.2,0,0.4-0.1,0.7-0.4
			c0.3-0.2,0.4-0.5,0.5-0.8c0.1-0.3,0.1-0.5-0.1-0.6s-0.4-0.2-0.9-0.2c-1.2-0.2-1.8-0.6-1.8-1.2c0-0.2,0.1-0.3,0.4-0.3
			c0.3,0,0.4-0.2,0.4-0.7c0-0.5,0.1-0.7,0.4-0.7c0.3,0,0.4-0.1,0.4-0.4c0-0.2,0.2-0.5,0.7-1c0.5-0.4,0.7-0.7,0.6-0.8v-0.3
			c0-0.5,0.1-1,0.4-1.5c0.3-0.5,0.6-0.7,0.9-0.7c0.1,0,0.2,0,0.2,0.1c0.3,0.1,0.5,0.3,0.5,0.6c0,0.2,0.3,0.6,0.8,1.3
			c0.5,0.7,0.8,1.1,0.8,1.2c0,0.2,0.1,0.3,0.4,0.4c0.2,0.1,0.4,0.4,0.5,0.9c0.1,0.3,0.2,0.5,0.3,0.7c0.2,0.1,0.4,0.2,0.8,0.3
			l0.9,0.3l-0.9,0.1C275.6,99.9,275.3,100.1,275.3,100.4z M268.5,81c0,0-0.1-0.1-0.1-0.3c0-0.1,0-0.2,0-0.3c0-0.1,0-0.1,0.1-0.1
			l0.1,0.2C268.6,80.8,268.6,81,268.5,81z M269.1,85.6c-0.1,0-0.1-0.1-0.1-0.2c0-0.1,0-0.1,0.1-0.1c0.1,0,0.2,0,0.2,0.1
			C269.2,85.5,269.2,85.6,269.1,85.6z M269.6,87.4l-0.1-0.3c0-0.1,0-0.2,0-0.3c0-0.1,0-0.1,0.1-0.1C269.7,87,269.7,87.2,269.6,87.4z
			 M272.8,93.6c-0.2,0-0.3-0.1-0.3-0.3c0-0.2,0.1-0.3,0.3-0.3c0.2,0,0.3,0.1,0.3,0.3C273.1,93.5,273,93.6,272.8,93.6z"/>
		<path d="M201.6,785.3c0.1,0,0.2-0.2,0.2-0.5c0-0.2,0-0.4-0.1-0.4c-0.1,0-0.1-0.1-0.1-0.3c0-0.2,0.1-0.4,0.2-0.6
			c0.1-0.3,0.1-0.5-0.2-0.6c-0.2-0.2-0.5-0.3-0.9-0.3c-0.5,0-0.8,0.1-1.1,0.4c-0.3,0.2-0.4,0.3-0.5,0.2c-0.1-0.1-0.4-0.1-0.8,0
			c-0.5,0.1-1.4,0.2-2.6,0.2c-0.9,0-1.4,0-1.5-0.1c-0.1-0.1-0.2,0-0.4,0.2c-0.1,0.1-0.3,0.2-0.4,0.2c-0.2,0-0.4,0-0.7-0.1
			c-0.7-0.2-1.1-0.2-1.3-0.2c-0.1,0-0.2,0-0.2,0c-0.1,0-0.3,0.1-0.4,0.3s-0.2,0.4-0.2,0.5c0,0.1,0,0.1,0.1,0.2c0,0,0.1,0.2,0.1,0.5
			c0,0.1,0,0.2-0.1,0.3s-0.2,0.1-0.3,0.1c-0.3,0-0.5,0.1-0.5,0.3c0,0,0,0.1,0.1,0.2c0.1,0.1,0.1,0.3,0.1,0.6c0,0.3-0.1,0.4-0.1,0.5
			c0,0.5,0.2,0.8,0.6,0.8c0.3,0,0.4-0.1,0.4-0.2c0-0.1,0.1-0.2,0.2-0.2c0.1,0,0.1,0,0.2-0.1c0,0,0-0.1,0-0.2c0-0.1-0.1-0.2-0.2-0.2
			c-0.1-0.1-0.1-0.1-0.1-0.2c0,0,0-0.1,0-0.1c0,0,0-0.1,0.1-0.1c0,0,0.1,0,0.2-0.1c0.2-0.1,0.2-0.2,0.2-0.3c0,0,0-0.1,0-0.2
			c0-0.1,0-0.1,0-0.2c0-0.1,0-0.2,0.1-0.2c0.1-0.1,0.1-0.3,0-0.6c-0.1-0.3-0.1-0.4,0-0.4c0.1,0,0.1,0.1,0.1,0.2
			c0,0.1,0.2,0.2,0.5,0.4c0.4,0.1,0.7,0.2,1.1,0.2c0.4,0,0.7,0.1,0.8,0.3c0.2,0.2,0.3,0.2,0.5,0.2c0.1,0,0.1,0,0.1,0
			c0.1,0,0.1,0,0,0.1c-0.3,0.3-0.4,2.2-0.5,5.8c0,0.8-0.1,1.2-0.3,1.4c-0.2,0.1-0.3,0.3-0.3,0.4c0,0.1-0.3,0.2-0.8,0.2l-0.7,0.1
			l-0.1,0.5c0,0,0,0.1,0,0.1c0,0,0,0.1,0,0.1c0,0.2,0.1,0.4,0.4,0.7c0.3,0.3,0.5,0.4,0.7,0.4c0.1,0,0.1,0,0.1-0.1
			c0-0.1,0-0.1-0.1-0.1c-0.1,0-0.1,0-0.1-0.1c0-0.1,0.2-0.1,0.5-0.1c0.1,0,0.4,0,0.8,0c0.4,0,0.7,0,0.9,0c0.6,0,0.9-0.1,1.1-0.2
			c0.1-0.1,0.3-0.2,0.6-0.1c0.2,0.1,0.3,0,0.4-0.1c0.1-0.1,0.2-0.1,0.3-0.1c0.1,0,0.3-0.1,0.5-0.2c0.1-0.1,0.2-0.2,0.2-0.3
			c0-0.1-0.1-0.2-0.2-0.5c-0.2-0.3-0.3-0.4-0.5-0.4c-0.1,0-0.2-0.1-0.2-0.2c0-0.1-0.1-0.2-0.3-0.1c0,0-0.1,0-0.1,0
			c-0.1,0-0.1,0-0.1,0c-0.1,0-0.2,0-0.3-0.1c0-0.1-0.1-0.3-0.1-0.5v-0.4c0-0.5,0-0.8,0-0.9c0-0.1,0.1-0.2,0.2-0.2
			c0.2,0,0.2-0.1,0.2-0.4c0-0.3-0.1-0.5-0.2-0.5c-0.1,0-0.2-0.4-0.2-1.1c0-0.8,0.1-1.2,0.2-1.4c0.1-0.1,0.2-0.5,0.2-1.2
			c0-0.7,0.1-1,0.1-1.1c0.1-0.2,0.5-0.2,1.2-0.2c1,0,1.5,0.1,1.6,0.4c0,0.1,0.1,0.2,0.4,0.5c0.2,0.2,0.3,0.4,0.3,0.8
			c0,0.3,0.1,0.5,0.1,0.5c0,0.1,0.2,0.1,0.4,0.1c0.2,0,0.4,0,0.4-0.1c0-0.1,0.1-0.2,0.3-0.2c0.2-0.1,0.3-0.2,0.3-0.4
			c0-0.2-0.1-0.4-0.2-0.5C201.5,785.4,201.5,785.3,201.6,785.3z"/>
		<path d="M222.2,781.9c-0.2-0.1-0.5-0.1-0.8-0.1c-0.1,0-0.2,0-0.5,0.1c-0.3,0.1-0.5,0.1-0.7,0.1h-0.1H220c-0.2,0-0.5,0-1,0.1
			c-0.4,0-0.7,0.1-0.8,0.1c-0.1,0-0.2,0.1-0.2,0.2c0,0.2,0,0.3-0.1,0.3c-0.1,0-0.1,0-0.1,0.1c0,0.1,0,0.2,0,0.3
			c0,0.1,0.1,0.2,0.2,0.2c0.1,0.1,0.2,0.5,0.2,1.3c0,0.8,0.1,1.2,0.2,1.2c0.1,0,0.1,0.3,0.1,0.8v0.8h-1.3c-0.8,0-1.7,0-2.7-0.1
			l-1.4-0.1v-0.7c0-0.4,0-0.7,0.1-0.7c0.1,0,0.1-0.3,0.2-0.9c0-1.1,0.1-1.6,0.4-1.6c0.1,0,0.2,0,0.2-0.1c0-0.1,0.1-0.2,0.4-0.2
			c0.2,0,0.4-0.1,0.5-0.2c0.1-0.1,0.2-0.2,0.2-0.4c0-0.2-0.1-0.3-0.2-0.4c-0.2-0.1-0.5-0.2-1-0.2c-0.3,0-0.4,0-0.5,0.1
			c0,0-0.5,0.1-1.3,0.1c-0.9,0.1-1.7,0.2-2.4,0.5c-0.1,0-0.2,0.1-0.2,0.2c0,0.1,0.2,0.2,0.6,0.4l0.6,0.3l0,0.8v0.9v0.3
			c0,0.2,0,0.4,0.1,0.4c0.1,0.1,0.2,0.5,0.2,1.1c0,0.6-0.1,1.1-0.2,1.4c-0.1,0.3-0.2,0.5-0.2,0.8c0,0,0,0,0,0.1c0,0,0,0.1,0,0.1
			c0,0.2,0.1,0.4,0.1,0.6c0,0.5,0,1.1-0.1,1.8c-0.1,0.6-0.2,1-0.2,1.2c-0.1,0.2-0.4,0.3-0.8,0.3c-0.3,0-0.5,0.1-0.6,0.1
			c-0.1,0.1-0.1,0.2-0.1,0.4v0.5l0.7-0.1c0.3-0.1,1-0.1,2.2-0.1h0.7h0.7c1,0,1.6,0,1.6-0.1c0-0.1-0.1-0.3-0.2-0.5
			c-0.2-0.2-0.3-0.3-0.4-0.3h-0.1c-0.2,0.1-0.4,0.1-0.6-0.1c-0.1-0.1-0.2-0.1-0.3-0.2c0-0.1-0.1-0.2-0.1-0.4c0-0.3,0-0.5,0-0.8
			c0-0.9,0.1-1.6,0.1-2.1v-0.8h4.9l0.1,0.4c0,0.2,0.1,0.5,0.1,0.7c0,0.5,0,1.1-0.1,1.7c-0.1,0.6-0.2,1-0.3,1
			c-0.1,0.1-0.4,0.2-0.8,0.3c-0.3,0-0.5,0.1-0.5,0.1c-0.1,0.1-0.1,0.2-0.1,0.4c0,0.3,0.1,0.5,0.3,0.5c0.3,0.1,1.3,0.1,3.1,0.1
			c1.3,0,2,0,2.1-0.1c0.2-0.1,0.3-0.2,0.3-0.4c0-0.2-0.1-0.3-0.2-0.5c-0.1-0.1-0.3-0.2-0.4-0.2c0,0,0,0-0.1,0c0,0,0,0-0.1,0
			c-0.1,0.1-0.3,0.1-0.5,0l-0.4-0.1l0.1-3.5c0-2.3,0.1-3.5,0.2-3.6c0.1,0,0.1-0.3,0.1-0.9c0.1-1.1,0.2-1.6,0.4-1.6
			c0.1,0,0.2,0,0.2-0.1c0-0.1,0.1-0.2,0.4-0.2c0.2,0,0.4-0.1,0.5-0.2c0.2-0.1,0.2-0.3,0.2-0.4C222.6,782.1,222.5,782,222.2,781.9z
			 M211.4,790.8c-0.2-0.1-0.3-0.1-0.3-0.2c0-0.1,0-0.1,0.1-0.1c0.2,0,0.3,0.1,0.4,0.2c0,0,0,0,0,0.1
			C211.6,790.8,211.5,790.8,211.4,790.8z M212.1,790.7c-0.1,0-0.1-0.1-0.1-0.2c0-0.1,0-0.2,0.1-0.2c0.1,0,0.2,0.1,0.2,0.2
			C212.2,790.7,212.2,790.7,212.1,790.7z M212.1,787c-0.1,0-0.2-0.1-0.2-0.3c0-0.3,0.1-0.4,0.2-0.4c0.2,0,0.2,0.1,0.2,0.3
			C212.3,786.9,212.2,787,212.1,787z M219.2,790.8c-0.1,0.1-0.2,0.1-0.4,0c-0.2-0.1-0.3-0.1-0.3-0.2c0-0.1,0.1-0.1,0.2-0.1
			c0.3,0,0.5,0.1,0.5,0.2C219.3,790.7,219.3,790.8,219.2,790.8z M219.6,790.7c-0.1,0-0.2-0.1-0.2-0.2c0-0.1,0.1-0.2,0.2-0.2
			c0.1,0,0.1,0.1,0.1,0.2C219.7,790.7,219.7,790.7,219.6,790.7z M219.6,787c-0.1,0-0.2-0.1-0.2-0.3c0-0.3,0.1-0.4,0.2-0.4
			c0.1,0,0.2,0.1,0.2,0.3C219.8,786.9,219.7,787,219.6,787z"/>
		<path d="M239.8,790.2c-0.1,0-0.3,0.2-0.5,0.5c-0.3,0.3-0.4,0.6-0.4,0.7c0,0.1-0.1,0.2-0.4,0.2c-0.1,0-0.2,0-0.3,0.1
			c0,0-0.1,0.1-0.1,0.1c0,0,0,0.1,0,0.3c0,0.2-0.1,0.3-0.4,0.3c0,0-0.1,0-0.1,0c-0.1,0-0.1,0-0.2,0c-0.2,0-0.4,0.1-0.6,0.3
			c-0.2,0.2-0.4,0.3-0.6,0.3c-0.1,0-0.2-0.1-0.2-0.2c0-0.1-0.1-0.1-0.4,0c-0.2,0.1-0.6,0.2-1.2,0.2c-0.5,0-0.7,0-0.7-0.1
			c0-0.1-0.1-0.1-0.2-0.1c-0.1,0-0.1-0.1-0.2-0.2c-0.1-0.2-0.1-0.3-0.1-0.4c0-0.1,0-0.2,0-0.3c0-0.2,0-0.4,0-0.6c0-0.3,0-0.5,0-0.8
			c0-0.3,0-0.5,0-0.8c0-0.3,0-0.5,0-0.6v-0.2c0-0.1,0.4-0.1,1.3-0.1c0.7,0,1.2,0.1,1.4,0.2c0.2,0.1,0.4,0.4,0.4,0.8
			c0,0.2,0,0.3,0.1,0.3c0,0,0.1,0,0.2,0c0.1-0.1,0.3-0.1,0.5-0.1c0.1,0,0.2,0,0.3-0.1c0-0.1,0.1-0.2,0.1-0.5c0-0.1,0-0.2,0-0.3
			c0-0.2,0-0.3,0-0.4v-0.2c0-0.3,0-0.6,0.1-0.7c0.1-0.1,0.1-0.3,0-0.4c-0.1-0.1-0.1-0.3,0.1-0.4c0.1-0.1,0.2-0.2,0.2-0.4
			c0-0.3-0.3-0.4-1-0.4c-0.4,0-0.6,0.2-0.6,0.5c0,0.1,0,0.2,0.1,0.3c0,0.2,0,0.4,0,0.5s-0.3,0.2-0.9,0.3c-0.5,0.1-1,0.1-1.5,0.1
			h-0.6v-0.6c0-0.4,0.1-0.6,0.2-0.6c0.1,0,0.2-0.1,0.2-0.4c0-0.3-0.1-0.5-0.2-0.9c-0.1-0.2-0.2-0.4-0.1-0.4c0-0.1,0.1-0.1,0.2-0.3
			c0.2-0.1,0.3-0.3,0.2-0.5c0,0,0-0.1,0-0.2c0-0.1,0.1-0.3,0.4-0.3c0.3-0.1,0.7-0.1,1.5-0.2c0.7,0,1.1-0.1,1.1-0.1
			c0.3,0,0.5,0.1,0.6,0.2c0.1,0.2,0.3,0.3,0.5,0.4c0.2,0.1,0.3,0.2,0.3,0.3c0,0.1,0.1,0.2,0.3,0.3c0.2,0.1,0.3,0.2,0.3,0.3
			c0,0.2,0.1,0.3,0.3,0.5c0.2,0.2,0.4,0.2,0.6,0.2h0c0.3,0,0.4-0.2,0.4-0.6c0-0.2-0.1-0.3-0.2-0.5c-0.1-0.1-0.2-0.3-0.2-0.5
			c0-0.3-0.1-0.5-0.2-0.5c-0.1,0-0.1-0.1,0-0.4c0.1-0.1,0.1-0.2,0.1-0.3c0,0-0.1-0.1-0.1-0.1c-0.1-0.1-0.2-0.2-0.2-0.3
			s-0.1-0.3-0.3-0.5c-0.2-0.2-0.4-0.3-0.6-0.1c-0.3,0.1-1.8,0.3-4.7,0.4h-0.7c-1.5,0-2.2-0.1-2.3-0.3c0-0.1-0.1-0.1-0.2-0.1
			c-0.1,0-0.2,0-0.2,0.1l0,0.1c0,0.1,0,0.1,0,0.1c0,0,0,0.1,0,0.2c0,0.1,0,0.2,0,0.2c0,0.2-0.1,0.3-0.3,0.3
			c-0.2,0.1-0.3,0.2-0.2,0.5c0.1,0.2,0.1,0.4,0.2,0.5c0.1,0.1,0.2,0.1,0.3,0.1c0.1,0,0.3,0,0.4,0c0.1,0,0.2,0,0.4,0
			c0.3,0,0.5,0.1,0.6,0.4c0.1,0.2,0.1,0.7,0.1,1.4c0,0.9-0.1,1.4-0.2,1.4c-0.1,0-0.1,0.2,0,0.4c0.1,0.2,0.1,0.4,0,0.6
			c-0.1,0.2-0.2,0.3-0.3,0.3c-0.1,0-0.1,0.1,0.1,0.2c0.1,0.1,0.1,0.3,0.1,0.6c0,0.5-0.1,1.5-0.2,2.8l-0.1,0.9h-0.6
			c-0.4,0-0.6,0.1-0.6,0.3c0,0.2-0.1,0.3-0.3,0.3c-0.1,0-0.2,0.1-0.2,0.3c0,0.3,0.1,0.5,0.3,0.6c0.2,0.1,0.3,0.2,0.3,0.4
			c0,0.1,0.2,0.1,0.7,0.1c0.5,0,0.8-0.1,0.9-0.3c0.1-0.1,0.5-0.2,1.2-0.2c0.5,0,0.9,0,1.3,0c0.7,0,1.1,0.1,1.2,0.2
			c0,0.1,0.2,0.1,0.4,0c0.2-0.1,0.7-0.2,1.5-0.2c0.8,0,1.3,0,1.5-0.1c0.2,0,0.3-0.1,0.5-0.3c0.2-0.2,0.3-0.3,0.2-0.5
			c0-0.2,0-0.3,0.1-0.4c0.1-0.1,0.2-0.3,0.2-0.8c0-0.3,0-0.5,0-0.6c0-0.1,0.1-0.1,0.2-0.1c0.2,0,0.3-0.2,0.3-0.5
			c0-0.2-0.1-0.4-0.2-0.6C240.1,790.3,239.9,790.2,239.8,790.2z"/>
		<path d="M229.7,792c0.1-0.2,0.1-0.3,0-0.3c-0.1,0-0.2,0.1-0.2,0.2c0,0.1,0,0.2,0.1,0.2C229.7,792.1,229.7,792.1,229.7,792z"/>
		<path d="M268.4,790.5c0-0.6-0.1-0.9-0.2-1.1c-0.1-0.2-0.3-0.4-0.6-0.5c-0.3-0.1-0.5-0.3-0.5-0.4c-0.1-0.1-0.3-0.3-0.9-0.6
			c-0.5-0.3-1-0.5-1.3-0.6c-0.2-0.1-0.5-0.2-0.9-0.5c-0.4-0.3-0.6-0.4-0.6-0.5c0-0.1-0.1-0.2-0.2-0.3c-0.2-0.1-0.2-0.2-0.2-0.3
			c0,0,0-0.1,0-0.1c0.1-0.1,0.1-0.2,0.1-0.3s0-0.3-0.1-0.6c0-0.1,0-0.2,0-0.2c0,0,0.2-0.1,0.3-0.1c0.3,0,0.4-0.1,0.4-0.2
			c0-0.1,0.1-0.2,0.4-0.4c0.3-0.2,0.4-0.3,0.4-0.3c0-0.1,0.1-0.1,0.4-0.2c0.1,0,0.1,0,0.2,0c0.4,0,0.8,0.2,1.2,0.5
			c0.5,0.3,0.7,0.6,0.7,0.9c0,0.2,0.1,0.4,0.3,0.5c0.2,0.1,0.3,0.3,0.3,0.4c0,0.1,0.1,0.3,0.2,0.5s0.3,0.3,0.4,0.3c0,0,0,0,0.1,0
			c0.1-0.1,0.1-0.7,0.2-2v-0.8c0-0.6-0.1-0.9-0.2-0.9c-0.1,0-0.1,0-0.1,0c-0.3,0.1-0.6,0.2-0.8,0.2c-0.3,0-0.6-0.1-1-0.3
			c-0.4-0.2-0.6-0.3-0.7-0.3c0,0-0.1,0-0.2,0.1c-0.3,0.1-0.6,0.1-0.8,0.1c-0.3,0-0.4,0-0.5,0.1c0,0.1-0.1,0.2-0.3,0.2
			c-0.2,0-0.4-0.1-0.5-0.2c-0.1-0.1-0.3-0.2-0.5-0.2h0c-0.1,0-0.1,0-0.1,0c-0.1,0-0.1,0-0.1,0c0,0,0.1,0,0.1,0
			c0.1,0.1,0.2,0.1,0.2,0.2c0,0.2-0.2,0.3-0.5,0.4c-0.3,0.1-0.4,0.2-0.4,0.4c0.1,0.2,0,0.3-0.2,0.4c-0.3,0.1-0.6,0.5-1.1,1.1
			c-0.1,0.2-0.2,0.4-0.2,0.6c0,0,0,0.3,0.1,0.8c0.1,0.7,0.3,1.1,0.4,1.3c0.1,0.2,0.4,0.4,0.7,0.7c0.4,0.3,0.6,0.4,0.8,0.4
			c0.1,0,0.3,0.1,0.6,0.4c0.4,0.3,0.9,0.6,1.7,0.8c0.5,0.1,0.8,0.3,1.1,0.6c0.2,0.2,0.3,0.4,0.5,0.7c0.1,0.3,0.2,0.5,0.2,0.7
			c0,0.1,0,0.1-0.1,0.2c-0.1,0-0.1,0.2-0.1,0.4c0.1,0.2,0,0.4-0.2,0.6c-0.1,0.1-0.2,0.3-0.2,0.4c0,0.2-0.5,0.4-1.4,0.5
			c-0.1,0-0.3,0-0.6,0c-0.9,0-1.7-0.4-2.2-1.2c-0.3-0.4-0.5-0.8-0.5-1c0,0,0-0.1,0-0.2c0-0.1,0-0.2,0-0.2c0,0-0.1-0.1-0.1-0.1
			c-0.1,0-0.1,0-0.1-0.1c0.1-0.3-0.1-0.5-0.4-0.6c-0.1,0-0.2-0.1-0.3-0.1c-0.3,0-0.4,0.2-0.5,0.5c-0.1,1.2-0.1,1.9-0.2,1.9
			c-0.1,0.1-0.1,0.4-0.2,0.8c0,0.1,0,0.3,0,0.4c0,0.2,0.1,0.4,0.3,0.6c0.1,0.1,0.2,0.2,0.3,0.2c0,0,0.1,0,0.2-0.2
			c0.1-0.2,0.2-0.3,0.2-0.4c0-0.3,0.2-0.3,0.5-0.1c0.9,0.4,1.8,0.7,2.9,0.7c0.5,0,1.1-0.1,1.6-0.2c0.6-0.1,1.1-0.3,1.4-0.6
			c0.3-0.3,0.5-0.5,0.5-0.5c0-0.1,0.1-0.2,0.2-0.3c0.2-0.1,0.3-0.4,0.3-0.9c0.1-0.5,0.1-0.7,0.2-0.7c0.1,0,0.1,0,0-0.1
			C268.5,791.5,268.5,791.2,268.4,790.5z M264,788.9C264,788.9,264,788.9,264,788.9c-0.1-0.1-0.1-0.1,0-0.1S264.1,788.8,264,788.9
			C264.1,788.9,264.1,788.9,264,788.9z"/>
		<path d="M262.6,789.7c0-0.1,0-0.2-0.1-0.2c-0.1,0-0.1,0-0.1,0.1l0.1,0.2C262.5,789.9,262.6,789.9,262.6,789.7z"/>
		<path d="M287.2,781.9h-0.2c-0.4,0-0.8-0.1-1.1-0.3c-0.3-0.2-0.4-0.2-0.4,0c0,0.1-0.1,0.2-0.2,0.2c-0.1,0-0.4,0-0.8,0.1
			c-0.7,0-1,0-1.1,0.1c-0.1,0.1-0.1,0.3-0.1,0.7l0,0.6c0.2,0,0.5,0,0.8,0.1c0.4,0,0.7,0.1,0.8,0.1v2.4c0,1.6,0.1,2.4,0.2,2.5
			c0,0,0.1,0,0.1,0.1c0,0,0,0.1,0,0.1c0,0-0.1,0.1-0.1,0.1c-0.1,0.2-0.2,0.4-0.2,0.5v0.2c0,0.3,0,0.6-0.1,0.9
			c-0.1,0.3-0.2,0.5-0.3,0.6c-0.1,0.1-0.2,0.1-0.2,0.3c0,0.1-0.1,0.3-0.3,0.5c-0.2,0.2-0.4,0.2-0.6,0.2c-0.3,0-0.4,0.1-0.6,0.2
			c-0.1,0.1-0.2,0.2-0.5,0.2c0,0-0.2,0-0.5-0.1c-0.5-0.1-0.7-0.2-0.8-0.2c0-0.1-0.2-0.1-0.4-0.1c-0.2,0-0.5-0.1-0.8-0.2
			c-0.2-0.1-0.3-0.2-0.4-0.2c0-0.1-0.1-0.2-0.1-0.5v-0.4v-0.2c0-0.4-0.1-0.7-0.2-0.8c-0.1,0-0.2-0.1-0.2-0.3c0-0.2,0.1-0.3,0.2-0.4
			c0.1-0.1,0.1-0.1,0-0.2c-0.1,0-0.1-0.1-0.2-0.2c0-0.1,0-0.2,0-0.3c0-0.1,0.1-0.1,0.1-0.1c0.1,0,0.1-0.3,0.1-0.9
			c0-1-0.1-1.5-0.2-1.6c-0.1-0.1-0.1-0.2,0-0.3c0.1-0.1,0.2-0.4,0.2-0.9c0-0.1,0-0.2-0.1-0.3c0-0.1-0.1-0.2-0.1-0.3l0-0.1
			c0,0,0.1,0,0.3-0.1c0.2,0,0.4,0,0.6-0.1c0.2,0,0.5,0,0.6,0c0.1,0,0.1,0,0.2,0c0.1,0,0.1,0,0.1,0h0c0.1,0,0.1-0.1,0.1-0.2
			c0-0.1,0-0.4-0.1-0.6c0-0.2-0.1-0.4-0.3-0.5c-0.2-0.1-0.5-0.1-1-0.1c-0.2,0-0.7,0-1.6,0.1c-1.4,0.1-2.2,0.2-2.4,0.4
			c-0.2,0.2-0.3,0.4-0.3,0.6c0,0.4,0.4,0.6,1.1,0.7c0.5,0.1,0.8,0.2,0.8,0.4c0,0.1-0.1,0.2-0.2,0.3c-0.1,0.1-0.2,0.2-0.2,0.3
			c0,0.1,0,0.2,0.1,0.5c0.1,0.4,0.1,0.6,0,0.7c-0.1,0.1-0.2,0.1-0.3,0.1c-0.1,0-0.1,0.1-0.1,0.1c0,0.2,0.1,0.4,0.4,0.5
			c0.3,0.1,0.4,0.2,0.4,0.4c0,0.1-0.1,0.2-0.2,0.3c-0.2,0.1-0.2,0.4-0.2,1v0.4c0,0.8,0.1,1.3,0.2,1.4c0.1,0.1,0.1,0.3,0.1,0.5
			c0,0.2,0,0.3-0.1,0.3c-0.1,0-0.1,0.1-0.2,0.4c-0.1,0.3,0,0.4,0.2,0.5c0.2,0.1,0.3,0.3,0.5,0.7c0.1,0.3,0.2,0.5,0.3,0.5
			c0.1,0,0.1,0.1,0.2,0.4c0.1,0.3,0.2,0.4,0.4,0.4c0.2,0,0.4,0.1,0.5,0.2c0.1,0.1,1,0.2,2.7,0.2c1.4,0,2-0.1,2-0.2
			c0-0.1,0-0.2,0.1-0.2c0.1,0,0.2-0.1,0.3-0.2c0.1-0.2,0.2-0.2,0.4-0.2c0.2,0,0.3-0.1,0.3-0.3c0-0.2,0.2-0.3,0.5-0.3h0.2h0.1
			c0.3,0,0.5,0,0.5-0.1c0,0-0.1-0.1-0.2-0.2c-0.1-0.1-0.2-0.1-0.2-0.3c0-0.1,0.1-0.3,0.2-0.5c0.1-0.2,0.2-0.4,0.2-0.5
			c0,0,0-0.1-0.1-0.1c-0.1,0-0.2-0.1-0.2-0.3s0.1-0.2,0.2-0.3c0.1,0,0.2-0.2,0.2-0.4c0-0.3,0.1-0.6,0.1-1c0-0.4,0-0.6,0-0.7
			c0.1-0.4,0.1-1.1,0.1-2.2c0-1,0.1-1.5,0.2-1.6c0.1-0.1,0.2-0.2,0-0.2c-0.1-0.1-0.2-0.1-0.2-0.2c0-0.1,0.1-0.3,0.3-0.4
			c0.2-0.1,0.4-0.2,0.6-0.2c0.1,0,0.2,0,0.2,0c0,0,0.1,0,0.2,0c0.3,0,0.4-0.1,0.4-0.3c0-0.1,0-0.1-0.1-0.2c-0.1-0.1-0.1-0.2,0-0.2
			c0.1,0,0.2-0.1,0.2-0.2C288.4,782,288,781.9,287.2,781.9z"/>
		<path d="M308.4,782c-0.1,0-0.2,0-0.3,0.1c-0.2,0.1-0.3,0.1-0.3,0.1c-0.1,0-0.1-0.1-0.2-0.2c-0.1-0.2-0.3-0.3-0.4-0.3
			c-0.1,0-0.2-0.1-0.2-0.3c0-0.2-0.1-0.3-0.3-0.3c-0.2,0-0.3,0.1-0.3,0.3c0,0.2,0.1,0.3,0.2,0.3s0.2,0.1,0.2,0.3
			c0,0.2-0.1,0.3-0.2,0.3c-0.2,0-0.3-0.1-0.3-0.4c-0.1-0.2-0.2-0.4-0.3-0.4c-0.1,0-0.1,0-0.2,0.1c-0.2,0.2-0.2,0.3,0,0.3
			c0.1,0,0.2,0.1,0.2,0.1c0,0.1-0.1,0.2-0.4,0.2c-0.2,0-0.4,0-0.4-0.1c0-0.1-0.1-0.1-0.4-0.1c-0.4,0-0.8,0.1-1.1,0.2
			c-0.4,0.2-0.6,0.4-0.6,0.7c0,0.3,0.3,0.5,0.8,0.6c0.4,0.1,0.6,0.1,0.6,0.2c0,0.1,0.1,0.1,0.3,0.1c0.3,0,0.5,0.2,0.6,0.6
			c0.1,0.4,0.2,1.2,0.2,2.4c0,1.4,0.1,2.2,0.1,2.4c0.1,0.1,0,0.3,0,0.6l-0.1,0.4l-0.5-0.5c-0.4-0.3-0.5-0.5-0.5-0.6
			c0-0.1-0.1-0.2-0.2-0.3c-0.1-0.1-0.3-0.2-0.4-0.4c-0.2-0.1-0.3-0.2-0.3-0.2c-0.1-0.1-0.3-0.2-0.3-0.2c-0.1,0-0.2-0.1-0.2-0.2
			c0-0.1-0.1-0.2-0.2-0.3c-0.1-0.1-0.3-0.2-0.4-0.2s-0.1-0.1-0.1-0.2c0-0.1-0.1-0.2-0.2-0.2c-0.1,0-0.1,0-0.1-0.1
			c0-0.1-0.1-0.2-0.4-0.5c-0.2-0.3-0.4-0.4-0.4-0.5c0-0.1-0.1-0.2-0.3-0.2c-0.2,0-0.3-0.1-0.5-0.2c-0.2-0.1-0.2-0.3-0.2-0.4
			c0-0.1-0.2-0.3-0.5-0.7c-0.3-0.4-0.5-0.6-0.5-0.7c0-0.1-0.1-0.2-0.3-0.4c-0.2-0.2-0.3-0.4-0.3-0.4c0-0.3-0.6-0.5-1.8-0.6
			c-0.6,0-0.9-0.1-0.9-0.1c-0.3,0-0.4,0.1-0.4,0.2c0,0.1,0,0.2,0,0.4c0,0.2,0,0.4,0.1,0.6c0.1,0.2,0.1,0.3,0.2,0.3
			c0.1,0,0.2,0.2,0.3,0.6c0.1,0.4,0.2,0.6,0.2,0.6c0.1,0,0.1,0.3,0.1,0.8c0,0.5,0,0.8-0.1,0.8c-0.1,0-0.1,0.1-0.1,0.4s0.1,0.6,0.2,1
			c0.1,0.2,0.1,0.6,0.1,1.1c0,0.7-0.1,1.1-0.2,1.1c-0.1,0-0.1,0.2-0.1,0.7c0,0.5,0,1.1-0.1,1.5c0,0.4-0.1,0.6-0.1,0.7
			c-0.1,0.1-0.2,0.2-0.4,0.2c-0.3,0.1-0.4,0.2-0.4,0.4c0,0.2,0.1,0.4,0.4,0.6c0.2,0.2,0.3,0.3,0.5,0.3c0.2,0,0.8,0,1.7,0
			c1,0,1.6,0,1.8-0.1c0.2-0.1,0.3-0.3,0.3-0.8c0-0.3-0.1-0.4-0.3-0.5c-0.2-0.1-0.3-0.1-0.3-0.2c0-0.1-0.2-0.1-0.6-0.1
			c-0.4,0-0.7-0.1-0.9-0.3c-0.2-0.2-0.2-0.3-0.1-0.4c0.1-0.1,0.2-0.2,0.2-0.6c0-0.3,0-0.5-0.1-0.5c-0.1-0.1-0.1-0.9-0.1-2.6
			c0-1.7,0.1-2.5,0.2-2.5c0.1,0,0.3,0.1,0.4,0.2c0.1,0.1,0.3,0.2,0.5,0.3c0.3,0.1,0.4,0.3,0.5,0.4c0,0.2,0.3,0.5,0.8,1.1
			c0.5,0.5,0.9,0.9,1.3,1.1c0.2,0.1,0.3,0.2,0.3,0.3c0,0.1,0.2,0.2,0.5,0.6c0.7,0.7,1.1,1.1,1.1,1.4c0,0.1,0.1,0.1,0.3,0.1
			c0.2,0,0.3,0,0.3,0.1c0,0.1,0.1,0.3,0.4,0.5c0.2,0.2,0.4,0.4,0.4,0.6c0,0.1,0.1,0.3,0.3,0.5c0.2,0.2,0.3,0.3,0.4,0.3
			c0.1,0,0.3,0.2,0.6,0.5c0.3,0.3,0.5,0.5,0.7,0.6c0.1,0.1,0.2,0.1,0.3,0.1c0.4,0,0.6-0.2,0.6-0.6c0-0.1,0-0.2,0-0.4
			c0-0.9-0.1-1.4-0.2-1.6c-0.1-0.1-0.1-0.5-0.1-1.3v-0.4c0-1,0-1.6-0.1-1.6c-0.1-0.1-0.2-0.4-0.2-1c0-0.5,0-0.8,0.1-0.8
			c0.1-0.1,0.2-0.2,0.2-0.5s0-0.4,0.1-0.4c0.1,0,0.1-0.1,0.1-0.4s0-0.4-0.1-0.4c-0.1,0-0.1-0.1-0.1-0.4c0-0.4,0.1-0.7,0.2-1
			c0.2-0.3,0.4-0.5,0.7-0.5c0.2,0,0.4-0.1,0.4-0.1c0.1,0,0.1-0.2,0.1-0.5v-0.2C308.7,782.3,308.6,782,308.4,782z"/>
	</g>
	<g>
		<g>
			<path d="M438.3,623.8c-0.5-0.4-1.1-0.7-1.6-0.9c-2.5-0.9-4.5,1.2-6.7,1.2c-2,0-4.2-0.8-6.2-0.2c-3.9,1.2-7.5,3.1-11.5,4.2
				c-2.4,0.7-5.1,0.8-7.3,1.9c-1.5,0.7-2.7,1.9-3.9,3c-2.3,2.3-10.3,7.5-10.8,12.3c-3.8,1.8-7,4.5-9.7,7.7c0.8-1.9,1.4-4.1,1.7-5.1
				c0.3-0.8,0.6-1.6,0.7-2.4c0.1-1.2-0.2-2.5-0.2-3.7c-0.1-2,0.2-4.1,0.1-6.1c0-0.8-0.4-2.7-1.2-3.1c-1.7,1.9-3.1,3.9-4.9,5.8
				c-2.7,2.9-4.7,7.2-3.3,10.9c0.3,0.9,0.8,1.8,1.3,2.6c0.7,1.2,1.4,2.4,2.2,3.6l0.8,0.6c0.2,0,0.4-0.1,0.6-0.1
				c-1.3,1.9-2.5,3.8-3.5,5.8c-1.9,3.6-3.3,7.5-6.2,10.5c-3.5,3.7-8.9,4.8-13.7,6c-4.3,1.2-8.3,2.7-12.2,4.8c-4.3,2.3-8.4,5-13,6.6
				c-10.2,3.5-21.9,2.6-32.4,1c-1.8-0.3-2.6,2.5-0.8,2.7c8.8,1.4,17.8,2,26.6,0.7c0.1,0,0.3,0.1,0.5,0.1c3,0.1,6,0.5,9,0.8l-0.1,0.3
				c-0.1,2-0.2,4-0.4,6c-0.1,1.4-0.2,2.8,0,4.2c0.8,5.7,6.2,9.8,11.6,11.7c1.9,0.7,3.6,1.8,5.5,2.4c1.1,0.4,5.3,0.4,5.8,1.8
				c-0.7-2.3-1.2-4.7-2.3-6.8c-1-2-2.7-3.6-3.7-5.7c-0.8-1.6-1.2-3.4-2.2-4.8c-0.7-1-1.6-1.8-2.5-2.6c-1.2-1.1-3.7-4-6.3-5.8
				c1.1,0.1,2.3,0.2,3.4,0.2c5.4,0.2,10.7-1,16.1-0.8c1.7,1.6,2.8,4.6,3.9,6.3c2.2,3.3,3.6,6.9,5.7,10.2c1.9,3.2,5.6,3.4,9.1,4.4
				c2.3,0.7,4.7,1.1,6.9,2.1c2,0.9,3.8,1.8,6.1,1.6c1.6-0.2,3-0.7,4.7-0.7c1.2,0,2.8-0.2,3.6,0.8c0.6,0.7,0.3,1.7,1.2,2.1
				c-0.3-1.5-0.5-3.2-1.3-4.6c-0.6-1-1.9-1.5-2.7-2.3c-2.2-2.1-3.9-4.8-5.5-7.4c-2.3-3.6-4.6-7.3-7.9-9.9c-3.7-2.9-8.5-4.7-13.1-5.4
				c-2.6-0.4-5.2-0.2-7.9,0.1c-5.9-0.7-11.7,0.7-17.6,0.6c-3.8,0-7.5-0.5-11.2-0.9c7.8-2.9,14.7-8.3,22.8-10.6
				c3.3-0.9,6.7-1.7,9.9-3c0.6,1,1.2,1.9,1.8,2.9c0.4,0.7,0.9,1.5,1.5,2.1c2.4,2.5,6.4,2.7,9.7,1.8c2.2-0.6,4.3-0.9,6.4-1.5
				c-0.1-0.7-1.3-1.8-1.9-2.1c-1.6-0.8-3.3-1.4-4.8-2.3c-0.9-0.5-1.8-1.3-2.8-1.6c-0.7-0.3-1.4-0.4-2.1-0.4
				c-0.8-0.1-2.5-0.5-4.1-0.7c2.8-1.9,4.7-4.6,6.3-7.6c0.3-0.5,0.6-1,0.8-1.5c2.8-1.1,5.9-1.2,8.8-2.1c0.6,0.5,1.2,1,1.7,1.3
				c2.2,1.4,4.1,3.2,6.2,4.7c2,1.4,4.3,0.6,6.7,0.3c1.6-0.2,3.1-0.6,4.7-0.5c1.5,0,2.8,0.1,4.1-0.6c0.9-0.5,1.6-1.2,2.6-1.6
				c0.9-0.4,1.8-0.9,2.7-0.3c0.2,0.2,0.5,0.3,0.6,0.6c0.2,0.3,0.3,0.8,0.5,1.1c0.2,0.4,0.6,0.7,1,0.5c0.2-0.1,0.3-0.4,0.3-0.7
				c0-0.3-0.1-0.5-0.2-0.7c-0.1-0.3-0.2-0.7-0.4-1c-1.8-3.4-6.5-6.7-9.8-8.5c-2-1.1-4.2-1.9-6.4-2.4c-1-0.2-2-0.4-3-0.4
				c-1.7,0-3.3,0.5-4.9,1.1c-4.1,1.4-7.2,3.3-11,5.2l0.3,0.1c-0.9,0.2-1.9,0.3-2.8,0.5c3.5-6.4,7.3-12.4,14.1-15.7l1.5,1
				c3.1,0.8,6.2,1.5,9.3,2.3c2.2,0.5,4.4,1.1,6.5,1.2c8.7,0.4,14.5-6.4,17-14c1.5-4.5,2.8-9.8,6.7-12.7c1.5-1.1,3.7-1.5,5.8-0.6
				c0.4,0.2,0.9,0.4,1.2,0.1C439.5,625,438.9,624.2,438.3,623.8z"/>
		</g>
		<g>
			<g>
				<path d="M122.1,645.5c0.1,0.8,0.4,1.6,0.7,2.4c0.7,1.9,2,8.1,4.6,8.1l0.8-0.6c0.7-1.2,1.4-2.4,2.2-3.6c0.5-0.8,1-1.7,1.3-2.6
					c1.3-3.8-0.6-8-3.3-10.9c-1.8-1.9-3.2-3.9-4.9-5.8c-0.7,0.4-1.2,2.3-1.2,3.1c0,2,0.2,4.1,0.1,6.1
					C122.3,643,122,644.3,122.1,645.5z"/>
			</g>
			<g>
				<path d="M210.2,690.2c-10.5,2.5-21.5,3.2-32-0.1c-4.8-1.5-9.4-3.7-13.9-6c-3.9-2-7.8-4.5-12-5.7c-4.7-1.3-9.2-1.6-13.4-4.3
					c-4.3-2.7-5.9-7.5-8.4-11.7c-3.9-6.9-8.7-13.1-15.7-17.1c-0.5-4.8-8.4-10.1-10.8-12.3c-1.2-1.1-2.4-2.2-3.9-3
					c-2.2-1.1-4.9-1.2-7.3-1.9c-4-1.1-7.6-3-11.5-4.2c-1.9-0.6-4.1,0.2-6.2,0.2c-2.3,0-4.2-2.1-6.7-1.2c-0.6,0.2-1.1,0.6-1.6,0.9
					c-0.6,0.4-1.2,1.1-0.8,1.5c0.3,0.3,0.8,0,1.2-0.1c2.1-0.9,4.3-0.5,5.8,0.6c3.9,2.9,5.2,8.1,6.7,12.7c2.5,7.6,8.3,14.4,17,14
					c2.1-0.1,4.3-0.6,6.5-1.2c3.1-0.8,6.2-1.5,9.3-2.3l1.4-0.9c6.3,3.8,10.5,9.5,14.1,15.7c-0.9-0.2-1.8-0.3-2.8-0.5l0.3-0.1
					c-3.7-2-6.9-3.8-11-5.2c-1.6-0.5-3.2-1.1-4.9-1.1c-1,0-2,0.2-3,0.4c-2.2,0.5-4.4,1.4-6.4,2.4c-3.3,1.8-8,5.2-9.8,8.5
					c-0.2,0.3-0.2,0.7-0.4,1c-0.1,0.2-0.2,0.5-0.2,0.7c0,0.3,0.1,0.5,0.3,0.7c0.4,0.2,0.8-0.1,1-0.5c0.2-0.4,0.3-0.8,0.5-1.1
					c0.2-0.2,0.4-0.4,0.6-0.6c0.9-0.7,1.8-0.1,2.7,0.3c1,0.4,1.7,1.1,2.6,1.6c1.3,0.7,2.6,0.7,4.1,0.6c1.6-0.1,3.1,0.3,4.7,0.5
					c2.3,0.3,4.6,1.1,6.7-0.3c2.1-1.5,4-3.3,6.2-4.7c0.5-0.3,1.1-0.8,1.7-1.3c2.9,0.9,6,1,8.8,2.1c0.4,0.8,0.8,1.5,1.2,2.3
					c1.6,3,3.4,5,5.9,6.8c-1.7,0.2-3.4,0.6-4.2,0.7c-0.7,0.1-1.5,0.2-2.1,0.4c-1,0.4-1.8,1.1-2.8,1.6c-1.5,0.9-3.2,1.5-4.8,2.3
					c-0.6,0.3-1.9,1.4-1.9,2.1c2.2,0.6,4.3,0.9,6.4,1.5c3.3,0.9,7.4,0.8,9.7-1.8c0.6-0.6,1-1.3,1.5-2.1c0.6-0.9,1.2-1.9,1.7-2.8
					c3.9,1.7,8,1.8,12.1,3.2c4.9,1.7,9.5,4.8,14.2,7.1c2.5,1.2,5,2.3,7.5,3.2c-4.1,0.4-8.2,1-12.3,1c-5.9,0.1-11.7-1.3-17.6-0.6
					c-2.6-0.3-5.2-0.5-7.9-0.1c-4.6,0.7-9.4,2.5-13.1,5.4c-3.3,2.6-5.7,6.3-7.9,9.9c-1.6,2.6-3.3,5.2-5.5,7.4
					c-0.9,0.8-2.1,1.3-2.7,2.3c-0.8,1.4-0.9,3-1.3,4.6c1-0.4,0.6-1.4,1.2-2.1c0.9-1,2.4-0.8,3.6-0.8c1.7,0,3.1,0.5,4.7,0.7
					c2.3,0.2,4-0.6,6.1-1.6c2.2-1,4.6-1.4,6.9-2.1c3.4-1,7.1-1.2,9.1-4.4c2-3.4,3.5-6.9,5.7-10.2c1.1-1.7,2.2-4.7,3.9-6.3
					c5.4-0.2,10.7,1,16.1,0.8c1.1,0,2.3-0.1,3.4-0.2c-2.5,1.9-5,4.7-6.3,5.8c-0.9,0.8-1.8,1.6-2.5,2.6c-1,1.5-1.5,3.2-2.2,4.8
					c-1,2.1-2.6,3.7-3.7,5.7c-1.1,2.1-1.6,4.5-2.3,6.8c0.4-1.4,4.7-1.4,5.8-1.8c1.9-0.6,3.6-1.7,5.5-2.4c5.4-1.9,10.8-6,11.6-11.7
					c0.2-1.4,0.1-2.8,0-4.2c-0.1-2-0.2-4-0.4-6l-0.1-0.3c3-0.3,6-0.7,9-0.8c0.2,0,0.3,0,0.4-0.1c9.6,2.1,19.7,1.2,29.2-1.1
					C212.8,692.5,212,689.8,210.2,690.2z"/>
			</g>
		</g>
		<g>
			<path d="M297.5,173.1c10.4-1.6,22.2-2.5,32.4,1c4.6,1.6,8.7,4.3,13,6.6c3.9,2.1,7.9,3.6,12.2,4.8c4.8,1.3,10.1,2.4,13.7,6
				c2.8,2.9,4.3,7,6.2,10.5c1.1,2,2.2,3.9,3.5,5.8c-0.2-0.1-0.4-0.1-0.6-0.1l-0.8,0.6c-0.7,1.2-1.4,2.4-2.2,3.6
				c-0.5,0.8-1,1.7-1.3,2.6c-1.3,3.8,0.6,8,3.3,10.9c1.8,1.9,3.2,3.9,4.9,5.8c0.7-0.4,1.2-2.3,1.2-3.1c0-2-0.2-4.1-0.1-6.1
				c0.1-1.2,0.4-2.5,0.2-3.7c-0.1-0.8-0.4-1.6-0.7-2.4c-0.4-1-0.9-3.2-1.7-5.1c2.7,3.2,5.9,5.9,9.7,7.7c0.5,4.8,8.4,10,10.8,12.3
				c1.2,1.1,2.4,2.2,3.9,3c2.2,1.1,4.9,1.2,7.3,1.9c4,1.1,7.6,3,11.5,4.2c1.9,0.6,4.1-0.2,6.2-0.2c2.3,0,4.2,2.1,6.7,1.2
				c0.6-0.2,1.1-0.6,1.6-0.9c0.6-0.4,1.2-1.1,0.8-1.5c-0.3-0.3-0.8,0-1.2,0.1c-2.1,0.9-4.3,0.5-5.8-0.6c-3.9-2.9-5.2-8.1-6.7-12.7
				c-2.5-7.6-8.3-14.4-17-14c-2.1,0.1-4.3,0.6-6.5,1.2c-3.1,0.8-6.2,1.5-9.3,2.3l-1.5,1c-6.7-3.3-10.7-9.4-14.1-15.8
				c0.9,0.2,1.9,0.3,2.9,0.5l-0.3,0.1c3.7,2,6.9,3.8,11,5.2c1.6,0.5,3.2,1.1,4.9,1.1c1,0,2-0.2,3-0.4c2.2-0.5,4.4-1.4,6.4-2.4
				c3.3-1.8,8-5.2,9.8-8.5c0.2-0.3,0.2-0.7,0.4-1c0.1-0.2,0.2-0.5,0.2-0.7c0-0.3-0.1-0.5-0.3-0.7c-0.4-0.2-0.8,0.1-1,0.5
				c-0.2,0.4-0.3,0.8-0.5,1.1c-0.2,0.2-0.4,0.4-0.6,0.6c-0.9,0.7-1.8,0.1-2.7-0.3c-1-0.4-1.7-1.1-2.6-1.6c-1.3-0.7-2.6-0.7-4.1-0.6
				c-1.6,0.1-3.1-0.3-4.7-0.5c-2.3-0.3-4.6-1.1-6.7,0.3c-2.1,1.5-4,3.3-6.2,4.7c-0.5,0.3-1.1,0.8-1.7,1.3c-2.9-0.9-5.9-1-8.8-2.1
				c-0.2-0.4-0.4-0.7-0.6-1.1c-1.6-3.1-3.6-6.1-6.6-8c1.6-0.2,3.3-0.6,4.1-0.7c0.7-0.1,1.5-0.2,2.1-0.4c1-0.4,1.8-1.1,2.8-1.6
				c1.5-0.9,3.2-1.5,4.8-2.3c0.6-0.3,1.9-1.4,1.9-2.1c-2.2-0.6-4.3-0.9-6.4-1.5c-3.3-0.9-7.4-0.8-9.7,1.8c-0.6,0.6-1,1.3-1.5,2.1
				c-0.6,1-1.2,1.9-1.8,2.9c-3.2-1.3-6.7-2.1-9.9-3c-8.2-2.3-15-7.7-22.8-10.6c3.7-0.4,7.5-0.9,11.2-0.9c5.9-0.1,11.7,1.3,17.6,0.6
				c2.6,0.3,5.2,0.5,7.9,0.1c4.6-0.7,9.4-2.5,13.1-5.4c3.3-2.6,5.7-6.3,7.9-9.9c1.6-2.6,3.3-5.2,5.5-7.4c0.9-0.8,2.1-1.3,2.7-2.3
				c0.8-1.4,0.9-3,1.3-4.6c-1,0.4-0.6,1.4-1.2,2.1c-0.9,1-2.4,0.8-3.6,0.8c-1.7,0-3.1-0.5-4.7-0.7c-2.3-0.2-4,0.6-6.1,1.6
				c-2.2,1-4.6,1.4-6.9,2.1c-3.4,1-7.1,1.2-9.1,4.4c-2,3.4-3.5,6.9-5.7,10.2c-1.1,1.7-2.2,4.7-3.9,6.3c-5.4,0.2-10.7-1-16.1-0.8
				c-1.1,0-2.3,0.1-3.4,0.2c2.5-1.9,5-4.7,6.3-5.8c0.9-0.8,1.8-1.6,2.5-2.6c1-1.5,1.5-3.2,2.2-4.8c1-2.1,2.6-3.7,3.7-5.7
				c1.1-2.1,1.6-4.5,2.3-6.8c-0.4,1.4-4.7,1.4-5.8,1.8c-1.9,0.6-3.6,1.7-5.5,2.4c-5.4,1.9-10.8,6-11.6,11.7c-0.2,1.4-0.1,2.8,0,4.2
				c0.1,2,0.2,4,0.4,6l0.1,0.3c-3,0.3-6,0.7-9,0.8c-0.1,0-0.3,0-0.4,0.1c-8.8-1.4-18-0.6-26.7,0.7
				C294.9,170.7,295.7,173.4,297.5,173.1z"/>
		</g>
		<g>
			<g>
				<path d="M130.3,211.8c-0.7-1.2-1.4-2.4-2.2-3.6l-0.8-0.6c-2.6,0-3.9,6.3-4.6,8.1c-0.3,0.8-0.6,1.6-0.7,2.4
					c-0.1,1.2,0.2,2.5,0.2,3.7c0.1,2-0.2,4.1-0.1,6.1c0,0.8,0.4,2.7,1.2,3.1c1.7-1.9,3.1-3.9,4.9-5.8c2.7-2.9,4.7-7.2,3.3-10.9
					C131.3,213.5,130.8,212.7,130.3,211.8z"/>
			</g>
			<g>
				<path d="M211,170.8c-9.5-2.3-19.6-3.2-29.2-1.1c-0.1-0.1-0.3-0.1-0.5-0.1c-3-0.1-6-0.5-9-0.8l0.1-0.3c0.1-2,0.2-4,0.4-6
					c0.1-1.4,0.2-2.8,0-4.2c-0.8-5.7-6.2-9.8-11.6-11.7c-1.9-0.7-3.6-1.8-5.5-2.4c-1.1-0.4-5.3-0.4-5.8-1.8c0.7,2.3,1.2,4.7,2.3,6.8
					c1,2,2.7,3.6,3.7,5.7c0.8,1.6,1.2,3.4,2.2,4.8c0.7,1,1.6,1.8,2.5,2.6c1.2,1.1,3.7,4,6.3,5.8c-1.1-0.1-2.3-0.2-3.4-0.2
					c-5.4-0.2-10.7,1-16.1,0.8c-1.7-1.6-2.8-4.6-3.9-6.3c-2.2-3.3-3.6-6.9-5.7-10.2c-1.9-3.2-5.6-3.4-9.1-4.4
					c-2.3-0.7-4.7-1.1-6.9-2.1c-2-0.9-3.8-1.8-6.1-1.6c-1.6,0.2-3,0.7-4.7,0.7c-1.2,0-2.8,0.2-3.6-0.8c-0.6-0.7-0.3-1.7-1.2-2.1
					c0.3,1.5,0.5,3.2,1.3,4.6c0.6,1,1.9,1.5,2.7,2.3c2.2,2.1,3.9,4.8,5.5,7.4c2.3,3.6,4.6,7.3,7.9,9.9c3.7,2.9,8.5,4.7,13.1,5.4
					c2.6,0.4,5.2,0.2,7.9-0.1c5.9,0.7,11.7-0.7,17.6-0.6c4.1,0.1,8.2,0.6,12.3,1c-2.4,0.9-4.7,1.9-7,2.9c-4.9,2.3-9.7,5.5-14.8,7.3
					c-4,1.4-8.2,1.4-12.1,3.2c-0.6-0.9-1.1-1.9-1.7-2.8c-0.4-0.7-0.9-1.5-1.5-2.1c-2.4-2.5-6.4-2.7-9.7-1.8
					c-2.2,0.6-4.3,0.9-6.4,1.5c0.1,0.7,1.3,1.8,1.9,2.1c1.6,0.8,3.3,1.4,4.8,2.3c0.9,0.5,1.8,1.3,2.8,1.6c0.7,0.3,1.4,0.4,2.1,0.4
					c0.8,0.1,2.6,0.5,4.2,0.7c-2.3,1.6-4.2,3.5-5.7,6.2c-0.5,0.9-1,1.9-1.5,2.8c-2.9,1.1-5.9,1.2-8.8,2.1c-0.6-0.5-1.2-1-1.7-1.3
					c-2.2-1.4-4.1-3.2-6.2-4.7c-2-1.4-4.3-0.6-6.7-0.3c-1.6,0.2-3.1,0.6-4.7,0.5c-1.5,0-2.8-0.1-4.1,0.6c-0.9,0.5-1.6,1.2-2.6,1.6
					c-0.9,0.4-1.8,0.9-2.7,0.3c-0.2-0.2-0.5-0.3-0.6-0.6c-0.2-0.3-0.3-0.8-0.5-1.1c-0.2-0.4-0.6-0.7-1-0.5c-0.2,0.1-0.3,0.4-0.3,0.7
					c0,0.3,0.1,0.5,0.2,0.7c0.1,0.3,0.2,0.7,0.4,1c1.8,3.4,6.5,6.7,9.8,8.5c2,1.1,4.2,1.9,6.4,2.4c1,0.2,2,0.4,3,0.4
					c1.7,0,3.3-0.5,4.9-1.1c4.1-1.4,7.2-3.3,11-5.2l-0.3-0.1c0.9-0.2,1.8-0.3,2.8-0.5c-3.6,6.2-7.8,11.9-14.1,15.7l-1.4-0.9
					c-3.1-0.8-6.2-1.5-9.3-2.3c-2.2-0.5-4.4-1.1-6.5-1.2c-8.7-0.4-14.5,6.4-17,14c-1.5,4.5-2.8,9.8-6.7,12.7
					c-1.5,1.1-3.7,1.5-5.8,0.6c-0.4-0.2-0.9-0.4-1.2-0.1c-0.4,0.4,0.3,1.1,0.8,1.5c0.5,0.4,1.1,0.7,1.6,0.9c2.5,0.9,4.5-1.2,6.7-1.2
					c2,0,4.2,0.8,6.2,0.2c3.9-1.2,7.5-3.1,11.5-4.2c2.4-0.7,5.1-0.8,7.3-1.9c1.5-0.7,2.7-1.9,3.9-3c2.4-2.3,10.3-7.5,10.8-12.3
					c7-4,11.7-10.2,15.7-17.1c2.4-4.3,4.1-9,8.4-11.7c4.2-2.8,8.7-3.1,13.4-4.3c4.3-1.1,8.1-3.7,12-5.7c4.5-2.3,9.1-4.4,13.9-6
					c10.4-3.3,21.4-2.6,32-0.1C212,174,212.8,171.2,211,170.8z"/>
			</g>
		</g>
		<g>
			<g>
				<path d="M459.2,345.5v-4.3c-27.5,17.3-56.2,14.3-84.1,20.7c-12.3,1.7-24.4,5.3-36.4,9.6l92.5-120L312.7,343
					c2.1-16.7,4.6-33.1,9.8-46.8c9.2-34,32.6-54,31.3-100.7c-4.6,45.2-35.1,62.7-56,89.9c-10.3,11.3-18.7,24.5-26.3,38.4
					l-18.9-146.2L233.4,326c-10.3-12.7-20.1-25.5-26.2-38.4c-18.3-30.1-16.5-60.9-51.3-92.2c29.5,34.5,21.2,68.7,26.3,102.6
					c1,14.7,4.5,29.4,9.1,44L73.9,251.6l87.9,113.9c-18.2,1.6-36.3,2.9-52,0.4c-23.3-1.3-41.9-10-65-12.5v7
					c22.1,7.5,39.2,22.2,59.5,31.9c13.8,8.2,29.3,13.8,45.2,18.5L44.7,424.5v11.6l106.7,13.8c-10.7,9.9-21.5,19.2-32.6,25.5
					c-24.1,17.1-49.5,20.2-74,42.5v3.7c28.2-18.9,57.7-15.6,86.2-22.1c11.5-1.6,22.9-4.8,34.2-8.8L73.9,609l118.3-91.2
					c-1.9,13.4-4.3,26.2-8.6,37.3c-9.2,34-32.6,54-31.3,100.7c4.6-45.2,35.1-62.7,56-89.9c9.5-10.4,17.4-22.5,24.6-35.2L252.6,683
					l19.7-152.1c8.6,10.8,16.5,21.8,21.7,32.8c18.3,30.1,16.5,60.9,51.3,92.2c-29.5-34.5-21.2-68.7-26.3-102.6
					c-0.8-12.1-3.3-24.1-6.7-36.1L431.3,609l-90.8-117.8c19.5-1.8,39.1-3.5,56-0.8c22.6,1.3,40.7,9.4,62.8,12.2v-7.5
					c-21.1-7.7-37.7-21.7-57.3-31.2c-11.1-6.6-23.3-11.5-35.9-15.6l93.2-12.1v-11.9l-103.9-13.4c10.5-9.7,21.1-18.7,32-24.9
					C410.7,369.4,435.4,366,459.2,345.5z M269.1,508c-43.4,11.2-87.6-14.9-98.8-58.2c-11.2-43.4,14.9-87.6,58.2-98.8
					c11.3-2.9,22.6-3.3,33.3-1.5c-31.6,15.6-49,51.6-39.8,87c9.2,35.4,41.9,58.5,77,56.8C290.4,499.9,280.3,505.1,269.1,508z
					 M337.1,416.9c-7,0.1-29.6,0.8-35.5,7.2c-6.6,7.3-7.2,32-7.2,38.6c0,1,0,1.7,0,1.7s0-0.6,0-1.7c0-6.6-0.6-31.3-7.2-38.6
					c-5.8-6.5-28.5-7.2-35.5-7.2c-1.3,0-2,0-2,0s0.7,0,2,0c7-0.1,29.6-0.8,35.5-7.2c6.6-7.3,7.2-32,7.2-38.6c0-1,0-1.7,0-1.7
					s0,0.6,0,1.7c0,6.6,0.6,31.3,7.2,38.6C307.5,416.1,330.2,416.8,337.1,416.9c1.3,0,2,0,2,0S338.4,416.9,337.1,416.9z"/>
			</g>
			<g>
				<path d="M192.1,425.3c6.1,1.6,12.3-2.1,13.9-8.3c0.4-1.7,0.5-3.4,0.2-5c-2.7,3.3-7.2,5-11.7,3.8c-4.4-1.1-7.6-4.7-8.4-8.9
					c-1,1.3-1.8,2.7-2.2,4.4C182.3,417.5,186,423.7,192.1,425.3z"/>
			</g>
			<g>
				<path d="M234.5,476.6c-4.4-3.6-10.9-2.9-14.4,1.5c-3.6,4.4-2.9,10.9,1.5,14.4c0.8,0.6,1.6,1.1,2.4,1.5
					c-2.6-3.7-2.6-8.7,0.4-12.4c2.9-3.7,7.9-4.8,12-3C235.9,477.9,235.3,477.2,234.5,476.6z"/>
			</g>
			<g>
				<path d="M208,381.1c4.3,3.6,10.8,3.1,14.5-1.3c0.6-0.7,1.1-1.6,1.5-2.4c-0.1,0.1-0.3,0.2-0.4,0.2c-3.5,4-9.5,4.5-13.5,1.1
					c-4-3.3-4.6-9.2-1.5-13.3c0.1-0.2,0.2-0.5,0.3-0.7c-0.8,0.5-1.5,1.2-2.1,1.9C203.1,371,203.7,377.4,208,381.1z"/>
			</g>
			<g>
				<path d="M236.6,491.5c-2,5.3,0.6,11.2,5.9,13.3c0.9,0.3,1.8,0.6,2.8,0.6c-0.2-0.2-0.4-0.3-0.6-0.5c-4.7-2.1-7-7.5-5.1-12.3
					c1.9-4.9,7.4-7.4,12.4-5.6c0.1,0,0.3,0,0.4,0c-0.7-0.6-1.6-1-2.5-1.4C244.5,483.6,238.6,486.2,236.6,491.5z"/>
			</g>
			<g>
				<path d="M200.1,400.7c5.2,2.1,11.2-0.4,13.4-5.6c0.4-0.9,0.6-1.8,0.7-2.7c-2.8,3.5-7.6,5-12,3.2c-4.3-1.8-6.8-6.2-6.3-10.6
					c-0.6,0.7-1.1,1.5-1.4,2.4C192.3,392.6,194.8,398.6,200.1,400.7z"/>
			</g>
			<g>
				<path d="M217.4,461c-4.3-4.6-11.6-4.8-16.2-0.5c-4.6,4.3-4.8,11.6-0.5,16.2c1.2,1.3,2.6,2.2,4.1,2.8c-1.3-4.1-0.3-8.8,3-11.9
					c3.3-3.1,8.1-3.9,12.1-2.3C219.4,463.8,218.5,462.3,217.4,461z"/>
			</g>
			<g>
				<ellipse transform="matrix(0.8993 -0.4374 0.4374 0.8993 -174.9875 128.573)" cx="191.7" cy="444.2" rx="10.7" ry="10.7"/>
			</g>
		</g>
	</g>
</g>
</svg>
