<?xml version="1.0" encoding="utf-8"?>
<!-- Generator: Adobe Illustrator 21.1.0, SVG Export Plug-In . SVG Version: 6.00 Build 0)  -->
<svg version="1.1" id="Слой_1" xmlns="http://www.w3.org/2000/svg" xmlns:xlink="http://www.w3.org/1999/xlink" x="0px" y="0px"
	 viewBox="0 0 504 864" style="enable-background:new 0 0 504 864;" xml:space="preserve">
<style type="text/css">
	.st0{fill:#040404;}
	.st1{fill:#FFFFFF;}
</style>
<g>
	<g>
		<path d="M51.9,53.6c6.7-7.6,6.7-19,0.2-26.4c0.8,7.2-1.3,14.8-6.5,20.6c-5.2,5.8-12.3,8.7-19.5,8.6C34,62.2,45.2,61.1,51.9,53.6z"
			/>
		<path d="M458.4,47.7c-5.2-5.8-7.3-13.3-6.5-20.6c-6.5,7.5-6.6,18.9,0.1,26.4c6.7,7.6,17.9,8.6,25.9,2.8
			C470.7,56.4,463.6,53.5,458.4,47.7z"/>
		<path d="M26.1,807.4c7.2-0.1,14.3,2.8,19.5,8.6c5.2,5.8,7.3,13.3,6.5,20.6c6.5-7.5,6.6-18.9-0.2-26.4
			C45.2,802.6,34,801.6,26.1,807.4z"/>
		<path d="M452,810.2c-6.7,7.6-6.7,19-0.1,26.4c-0.8-7.2,1.3-14.8,6.5-20.6c5.2-5.8,12.3-8.7,19.5-8.6
			C469.9,801.6,458.8,802.6,452,810.2z"/>
		<path d="M503.8,18.2c-1.6-17.9-18.7-16.3-31.6-16.3c-45.9,0-91.8,0-137.6,0c-63.2,0-126.3,0-189.5,0c-40.6,0-81.2,0-121.8,0
			c-2.6,0-5.3-0.2-8,0.2c-9.5,1.2-15,9.2-15.2,18.2c-0.2,7.3,0,14.5,0,21.8c0,37.4,0,74.9,0,112.3c0,57,0,114.1,0,171.1
			c0,64.3,0,128.6,0,192.9c0,58.4,0,116.7,0,175.1c0,40.1,0,80.2,0,120.3c0,9.1,0,18.2,0,27.3c0,11.7,6.7,20.5,19.2,20.7
			c35.9,0.6,71.9,0,107.9,0c62.4,0,124.9,0,187.3,0c49.7,0,99.5,0,149.2,0c7.6,0,15.2,0,22.9,0c0.4,0,0.8-0.1,1.2-0.2
			c14.4-1.8,16.1-13.8,16.1-25.5c0-11.4,0-22.8,0-34.3c0-43.4,0-86.9,0-130.3c0-59.9,0-119.8,0-179.8c0-63.9,0-127.7,0-191.6
			c0-55.3,0-110.6,0-165.9c0-33.7,0-67.3,0-101C503.9,28.3,504.2,23.2,503.8,18.2z M486.6,852.8c-28.3,0-56.6,0-84.9,0
			c-59.9,0-119.8,0-179.7,0c-54,0-108,0-162,0c-13.1,0-26.1,0-39.2,0c-5.6,0-11-1.3-11.7-8.3c-0.2-1.5,0-3,0-4.5c0-26.5,0-53,0-79.5
			c0-50,0-100,0-149.9c0-61.8,0-123.6,0-185.4c0-61.4,0-122.7,0-184.1c0-48.9,0-97.7,0-146.6c0-24.2-0.8-48.6,0-72.7
			c0.2-5.3,1.6-10.1,8.3-10.8c2.2-0.2,4.5,0,6.7,0c14.8,0,29.6,0,44.5,0c55.6,0,111.3,0,166.9,0c58.9,0,117.8,0,176.7,0
			c18.9,0,37.9,0,56.8,0c8.1,0,24.7-3.1,25.9,8.4c0.5,5.2,0,10.8,0,16.1c0,13.5,0,27.1,0,40.6c0,45.5,0,91.1,0,136.6
			c0,60.1,0,120.2,0,180.3c0,62.6,0,125.2,0,187.7c0,52.8,0,105.6,0,158.4c0,31.4,0,62.7,0,94.1C494.8,840.3,496.9,852,486.6,852.8z
			"/>
		<path d="M460,790.9c1.2,0.1,2.4-0.7,2.4-2.2c0-23.7,0-47.4,0-71.1c0-56.4,0-112.8,0-169.2c0-68.7,0-137.4,0-206
			c0-59,0-117.9,0-176.9c0-19.6,0-39.2,0-58.8c0-8.9,1.3-19,0-27.9c-0.1-0.4,0-0.8,0-1.2c0-0.8-0.3-1.3-0.8-1.7
			c0.1-1.2-0.6-2.5-2.2-2.6c-13.1-0.5-25.3-13.8-25.8-26.7c0-0.5-0.2-0.8-0.4-1.1c-0.3-0.6-1-1.1-1.9-1.1c-40.5,0-80.9,0-121.4,0
			c-64.5,0-129,0-193.6,0c-14.9,0-29.7,0-44.6,0c-0.9,0-1.6,0.5-1.9,1.1c-0.2,0.3-0.3,0.7-0.4,1.2C69.1,59.5,57,72.8,43.9,73.3
			c-1.8,0.1-2.5,1.9-2,3.2c-0.2,0.3-0.2,0.6-0.2,1c0,23.7,0,47.4,0,71.1c0,56.4,0,112.8,0,169.2c0,68.7,0,137.4,0,206
			c0,59,0,117.9,0,176.9c0,19.6,0,39.2,0,58.8c0,8.9-1.3,19,0,27.9c0.1,0.4,0,0.8,0,1.2c0,0.9,0.5,1.6,1.1,1.9
			c0.3,0.2,0.7,0.3,1.2,0.4c13,0.5,25.3,13.3,25.8,26.2c0,0.5,0.2,0.8,0.4,1.1c0.3,0.6,1,1.1,1.9,1.1c40.5,0,80.9,0,121.4,0
			c64.5,0,129,0,193.6,0c14.9,0,29.7,0,44.6,0c0.9,0,1.6-0.5,1.9-1.1c0.2-0.3,0.3-0.7,0.4-1.2c0.5-12.9,12.7-25.7,25.8-26.2
			C459.6,791,459.8,790.9,460,790.9z M429.3,814.9c-39.8,0-79.6,0-119.3,0c-64.5,0-129,0-193.6,0c-14.2,0-28.3,0-42.5,0
			c-1.7-13.9-13.9-26.5-27.8-28.3c0-23,0-46,0-69.1c0-56.4,0-112.8,0-169.2c0-68.7,0-137.4,0-206c0-59,0-117.9,0-176.9
			c0-19.6,0-39.2,0-58.8c0-8.9,1.3-19,0-27.9c-0.1-0.4,0-0.8,0-1.2c14-1.8,26.1-14.9,27.8-28.7c39.8,0,79.5,0,119.3,0
			c64.5,0,129,0,193.6,0c14.2,0,28.3,0,42.5,0c1.7,14.1,14.3,27.4,28.5,28.8c0,23.7,0,47.3,0,71c0,56.4,0,112.8,0,169.2
			c0,68.7,0,137.4,0,206c0,59,0,117.9,0,176.9c0,19.6,0,39.2,0,58.8c0,8.6-1.2,18.4-0.1,27C443.6,788.1,431.1,800.9,429.3,814.9z"/>
		<path d="M223.4,86.7c0-0.2,0-0.3-0.1-0.5c-0.1-0.5-0.3-0.5-0.6-0.2c-0.1,0.1,0,0.4,0.3,0.8l0.3,0.6L223.4,86.7z"/>
		<path d="M238.7,102.5c0.1,0.2,0.3,0.2,0.6-0.1c0.2-0.3,0.7-0.4,1.4-0.3l1,0.2v-0.9c0-0.4-0.1-0.7-0.2-0.9
			c-0.1-0.2-0.4-0.3-0.9-0.5c-0.7-0.2-1.1-0.4-1.1-0.6c0-0.1-0.3-0.3-0.8-0.6c-0.5-0.3-0.8-0.5-0.8-0.7c0-0.3-0.1-0.7-0.3-1.1
			c-0.2-0.4-0.4-0.6-0.6-0.6c-0.1,0-0.3-0.3-0.5-0.8c-0.2-0.5-0.4-0.8-0.5-0.8c-0.2,0-0.4-0.2-0.5-0.5c-0.1-0.3-0.5-0.9-1.3-1.7
			c-0.8-0.8-1.2-1.2-1.4-1.2c-0.1,0-0.2-0.1-0.2-0.4c0-0.8,0.4-1.6,1.1-2.4c0.6-0.7,0.9-1.1,0.9-1.4c0-0.2,0.3-0.5,0.8-1.1
			c0.5-0.5,0.9-0.8,1.1-0.8c0.1,0,0.2-0.2,0.2-0.5c0-0.9,0.3-1.4,0.8-1.4c0.3,0,0.5-0.1,0.5-0.3c0-0.2,0.2-0.4,0.5-0.7
			c0.3-0.3,0.6-0.4,0.8-0.4c0.3,0,0.6-0.2,0.8-0.6l0.4-0.6l0.2,0.6c0.1,0.2,0.2,0.4,0.3,0.5c0.1,0.1,0.3,0.1,0.4,0
			c0.1-0.1,0.2-0.2,0.3-0.4c0.1-0.4,0.3-0.5,0.7-0.5c0.2,0,0.4-0.1,0.4-0.2c0.1-0.1,0.1-0.4,0.1-0.8c0-0.9-0.1-1.4-0.3-1.6
			c-0.2-0.2-1-0.2-2.3-0.2c-1.5,0-2.3,0.1-2.3,0.4c0,0.2-0.6,0.4-1.9,0.5c-1.9,0.1-2.8,0.6-2.8,1.4c0,0.3,0.1,0.6,0.3,1
			c0.2,0.4,0.4,0.6,0.5,0.6c0.2,0,0.5,0.2,0.6,0.6c0.2,0.4,0.2,0.7-0.1,1.1c-0.2,0.3-0.3,0.5-0.2,0.5c0,0,0,0.1,0,0.2
			c-0.1,0.1-0.1,0.3-0.2,0.5c-0.3,0.4-0.4,0.8-0.4,1.1c0,0.4-0.2,0.7-0.6,1.1c-0.4,0.4-0.6,0.7-0.6,0.9c0,0.3-0.3,0.4-0.9,0.4
			c-0.4,0-0.6-0.1-0.8-0.2c-0.1-0.1-0.2-0.4-0.3-0.8c-0.1-0.6-0.4-1.1-0.7-1.3c-0.4-0.2-0.5-0.5-0.5-1c0-0.4-0.1-0.7-0.4-1.1
			c-0.3-0.3-0.5-0.6-0.5-1c-0.1-0.9-0.2-1.4-0.2-1.4c0-0.4,0.3-0.6,0.9-0.6c0.4,0,0.6-0.1,0.8-0.1c0.2-0.1,0.3-0.1,0.3-0.2
			c0.1-0.1,0.1-0.2,0.1-0.4c0-0.2,0-0.4-0.1-0.6l-0.2-0.8l-2.3,0.1c-1.5,0.1-2.3,0.2-2.4,0.4c0,0.1-0.2,0.2-0.4,0.3
			c-0.2,0.1-0.4,0.1-0.6,0c-0.2-0.1-0.3-0.1-0.3-0.2c0-0.1-0.2-0.3-0.5-0.4c-0.4-0.2-0.7-0.2-1.1-0.2c-0.5,0-0.8,0.2-0.8,0.6
			c0,0.2-0.2,0.4-0.7,0.4c-0.2,0-0.3,0.1-0.4,0.2c0.2,0.1,0.3,0.3,0.3,0.6c0,0.3,0.1,0.5,0.4,0.5c0.3,0,0.5,0.1,0.6,0.4
			c0.1,0.2,0.4,0.4,1.1,0.6c0.7,0.1,1.1,0.4,1.2,0.8c0.2,0.4,0.4,0.6,0.6,0.6c0.2,0,0.3,0.3,0.3,0.8c0,0.5,0.1,0.8,0.4,0.8
			c0.2,0,0.4,0.2,0.4,0.5c0,0.4,0.2,0.7,0.6,0.9c0.4,0.2,0.5,0.5,0.4,0.6c-0.1,0.2,0,0.4,0.2,0.5c0.2,0.1,0.5,0.4,0.7,0.9
			c0.2,0.5,0.4,0.8,0.6,0.8c0.1,0,0.2,0.2,0.2,0.5c0,0.4,0.2,0.6,0.6,0.7c0.2,0.1,0.4,0.2,0.4,0.5c0,0.1,0,0.3-0.1,0.5
			s-0.1,0.4-0.1,0.5c0,0.2-0.2,0.4-0.5,0.5c-0.3,0.1-0.5,0.4-0.7,0.9c-0.1,0.5-0.3,0.8-0.4,0.8c-0.2,0-0.5,0.3-1.1,0.9
			c-0.5,0.6-0.8,1-0.8,1.3c0,0.3-0.1,0.5-0.4,0.5c-0.3,0-0.4,0.1-0.4,0.3c0,0.3-0.2,0.5-0.6,0.7c-0.4,0.2-0.6,0.5-0.6,1.1
			c0,0.2,0,0.4,0,0.4c0,0.1-0.1,0.2-0.2,0.2c-0.1,0.1-0.3,0.1-0.4,0.1c-0.2,0-0.5,0-0.9,0.1c-0.9,0-1.4,0.2-1.7,0.4
			c-0.2,0.2-0.4,0.7-0.4,1.4l0.2,0.8c0.2,0.4,0.4,0.3,0.5-0.2c0.1-0.2,1.2-0.4,3.3-0.4c1.4,0,2.3,0,2.6,0.1c0.3,0,0.5,0.2,0.5,0.4
			c0,0.1,0.1,0.2,0.2,0.2c0.2-0.2,0.4-0.3,0.5-0.3c0,0,0.1,0.1,0.2,0.1c0.2,0,0.4-0.1,0.6-0.3c0.2-0.2,0.4-0.5,0.5-0.8
			c0.1-0.2,0.1-0.4-0.1-0.5c-0.1-0.1-0.4-0.2-0.9-0.2c-1.2-0.2-1.8-0.6-1.8-1.2c0-0.2,0.1-0.3,0.4-0.3c0.2,0,0.4-0.2,0.4-0.6
			s0.1-0.6,0.4-0.6c0.2,0,0.4-0.1,0.4-0.4c0-0.1,0.2-0.4,0.6-0.8c0.4-0.5,0.6-0.8,0.6-0.9c0-0.5,0.1-1,0.3-1.5
			c0.3-0.5,0.6-0.7,0.9-0.7l0.1,0.1c0,0,0.1,0,0.1,0c0.3,0.1,0.4,0.2,0.4,0.5c0,0.1,0.3,0.5,0.8,1.2c0.5,0.7,0.8,1.1,0.8,1.2
			c0,0.2,0.1,0.3,0.4,0.4c0.2,0.1,0.4,0.4,0.5,0.9c0.1,0.5,0.4,0.8,1,0.9l0.9,0.2l-0.8,0.1c-0.6,0.1-0.9,0.3-0.9,0.6
			c0,0.7-0.4,1.1-1.3,1.1c-0.5,0-0.7,0.2-0.7,0.7v0.6h3.4C237.4,102,238.6,102.2,238.7,102.5z M227.5,81.1c0,0.1,0,0.1-0.1,0.1
			l-0.1-0.3c0-0.1,0-0.2,0.1-0.3c0-0.1,0.1-0.1,0.1,0.1C227.6,80.9,227.6,81,227.5,81.1z M228,85.6c-0.1,0-0.2,0-0.2-0.1
			c0-0.1,0.1-0.2,0.2-0.2c0.1,0,0.1,0.1,0.1,0.2C228.1,85.5,228.1,85.6,228,85.6z M228.6,87.2c0,0.1,0,0.1-0.1,0.1l-0.1-0.3
			c0-0.2,0.1-0.3,0.2-0.2C228.6,87,228.6,87.1,228.6,87.2z M231.5,93.1c-0.2,0-0.3-0.1-0.3-0.3c0-0.2,0.1-0.3,0.3-0.3
			c0.2,0,0.3,0.1,0.3,0.3C231.8,93.1,231.7,93.1,231.5,93.1z"/>
		<path d="M257.7,101.3c0-0.6,0.1-0.9,0.3-0.9c0.2,0,0.3-0.3,0.3-0.9c0-0.6,0.1-0.9,0.3-0.9c0.2-0.1,0.3-0.6,0.3-1.5
			c0-0.9,0.2-1.6,0.6-1.9c0.5-0.5,0.8-0.7,1.1-0.8c0.3-0.1,0.4-0.5,0.4-1.3c0-0.8,0.1-1.2,0.4-1.4c0.2-0.1,0.4-0.6,0.6-1.5
			c0.2-0.9,0.3-1.4,0.4-1.5c0.3-0.2,0.4-0.5,0.4-0.9c0-0.4,0.2-0.6,0.7-0.7c0.4,0,0.6-0.3,0.6-0.7c0-0.2-0.1-0.6-0.1-1
			c0-1,0.2-1.5,0.6-1.5c0.4,0,0.5-0.3,0.5-0.8c0-0.5,0.2-0.9,0.6-1.4c0.4-0.4,0.9-0.7,1.6-0.8c0.8-0.2,1.2-0.6,1.2-1.4
			c0-0.1,0-0.4-0.1-0.7l-0.1-0.6h-3.7c-2.5,0-3.7,0.1-3.7,0.3c0,0.2-0.1,0.3-0.3,0.3c-0.3,0-0.6,0.2-0.9,0.6
			c-0.4,0.5-0.4,0.7-0.2,0.7c0.3,0,0.5,0.1,0.5,0.4c0.1,0.3,0.5,0.4,1.1,0.4c0.6,0,1,0.2,1.1,0.7c0.1,0.5,0.1,0.7-0.1,0.8
			c-0.2,0.1-0.3,0.5-0.3,1.3c0,0.7-0.1,1.2-0.4,1.3c-0.2,0.1-0.3,0.3-0.3,0.7c0,0.1,0.1,0.2,0.1,0.4c0,0.5-0.1,0.9-0.3,1.4
			c-0.2,0.5-0.4,0.8-0.7,0.8c-0.4,0.1-0.5,0.4-0.5,0.9c0,0.5-0.1,0.9-0.3,1.1c-0.2,0.2-0.4,0.8-0.4,1.7c-0.1,1-0.3,1.5-0.6,1.5
			c-0.4,0-0.5,0.2-0.4,0.5c0,0.2,0,0.4,0,0.4c-0.1,0.1-0.2,0.1-0.4,0.1c-0.4,0-0.7-0.1-0.9-0.2c-0.5-0.3-0.7-1.2-0.8-2.9
			c0-0.7-0.1-1.2-0.4-1.4c-0.2-0.2-0.3-0.7-0.3-1.6c0-1.3-0.3-2.2-0.9-2.6c-0.2-0.1-0.2-0.3,0.1-0.4c0.1,0,0.2-0.2,0.3-0.4
			c0.1-0.2,0.1-0.5,0.1-0.7c0-0.2-0.1-0.3-0.2-0.3c-0.1,0-0.3-0.3-0.4-0.8c-0.1-0.6-0.4-0.9-0.7-0.9c-0.3-0.1-0.4-0.2-0.4-0.3
			c0-0.4,0.5-0.5,1.4-0.5c1.3,0,1.9-0.2,1.9-0.7c0-0.2,0.1-0.4,0.3-0.4c0.2,0,0.1-0.3-0.3-0.8c-0.4-0.5-0.9-0.8-1.6-0.8
			c-0.7,0-1.1-0.1-1.2-0.3c-0.1-0.1-0.3-0.1-0.7,0.1c-0.4,0.2-0.6,0.2-0.7-0.1c-0.2-0.2-0.3-0.3-0.4-0.1c-0.1,0.2-0.5,0.3-1.1,0.3
			c-0.4,0-0.6,0-0.8-0.1c-0.1-0.1-0.2-0.3-0.3-0.7c-0.1-0.5-0.3-0.8-0.7-0.8c-0.2,0-0.5,0.2-0.8,0.5c-0.4,0.4-0.7,0.5-1.2,0.5
			c-0.4,0-0.6,0.1-0.6,0.4c0,0.3-0.1,0.4-0.3,0.4s-0.3,0.2-0.3,0.6c0,0.5,0.1,0.7,0.3,0.7s0.3,0.1,0.3,0.4c0,0.2,0.3,0.4,1,0.5
			c0.6,0.1,1.1,0.4,1.5,0.9c0.4,0.5,0.7,1.1,0.7,1.6c0,0.5,0.1,1,0.3,1.6c0.2,0.6,0.4,0.9,0.5,0.9c0.1,0,0.2,0.3,0.2,0.8
			c0,0.6,0.2,1.1,0.5,1.4c0.3,0.3,0.5,0.9,0.8,1.8c0.2,0.9,0.3,1.7,0.3,2.5c0,0.9,0.1,1.4,0.4,1.4c0.1,0.1,0.2,0.3,0.2,0.7
			c0,0.4,0.1,0.6,0.2,0.6c0.2,0.1,0.3,0.6,0.3,1.6c0,0.9,0.1,1.4,0.4,1.4c0.2,0,0.4,0.3,0.6,1c0.2,0.7,0.4,1,0.5,1
			c0.2,0,0.4,0.3,0.4,0.8c0.1,0.7,0.5,1,1.3,1c0.1,0,0.4,0,0.6-0.1C257.5,102.3,257.7,101.9,257.7,101.3z"/>
		<path d="M280.7,103.2c0,0.2,0.2,0.3,0.5,0.3c0.4,0,0.6-0.1,0.6-0.2c0-0.1,0.2-0.3,0.6-0.5c0.4-0.2,0.6-0.4,0.6-0.6
			c0-0.9-0.7-1.4-1.9-1.5l-1.3-0.1l0.1-6.7c0.1-4.5,0.2-6.8,0.3-7c0.1-0.1,0.2-0.8,0.3-1.9c0.1-2.1,0.4-3.2,0.7-3.2
			c0.2,0,0.4-0.1,0.4-0.3c0-0.2,0.2-0.3,0.7-0.3c0.4,0,0.8-0.1,1-0.3c0.3-0.2,0.4-0.5,0.4-0.7c0-0.3-0.2-0.6-0.5-0.8
			c-0.3-0.2-1.4-0.3-3.4-0.3c-2,0-2.9,0.1-2.9,0.3c0,0.1-0.3,0.2-0.9,0.2s-0.9,0.1-0.9,0.4s-0.1,0.4-0.3,0.4s-0.3,0.2-0.3,0.6
			c0,0.5,0.1,0.8,0.4,0.9c0.3,0.1,0.4,0.9,0.4,2.5c0,1.6,0.1,2.4,0.3,2.5c0.2,0.1,0.3,0.8,0.3,2.2c0,1.3-0.1,2-0.3,2.1
			c-0.2,0.1-0.4,1.5-0.4,4.3c-0.1,2.4-0.2,3.9-0.4,4.3c-0.2,0.5-0.8,0.8-1.8,0.9c-0.6,0-0.9,0.1-1,0.2c-0.1,0.1-0.2,0.4-0.2,0.8
			c0,0.6,0.1,0.9,0.4,0.9c0.3,0,0.6,0.1,0.9,0.4c0.3,0.3,0.5,0.4,0.6,0.2c0.1-0.2,1.5-0.4,4-0.4C279.7,102.9,280.7,103,280.7,103.2z
			 M278.1,88c0.3,0,0.4,0.2,0.4,0.6c0,0.4-0.1,0.5-0.4,0.5c-0.3,0-0.4-0.2-0.4-0.5C277.7,88.2,277.8,88,278.1,88z M276.5,96.6
			c-0.3,0-0.4-0.1-0.4-0.3c0-0.2,0.1-0.3,0.4-0.3c0.2,0,0.4,0.1,0.4,0.3C276.9,96.5,276.7,96.6,276.5,96.6z"/>
		<path d="M179,785.3c0.1,0,0.2-0.2,0.2-0.5c0-0.2,0-0.4-0.1-0.4c-0.1,0-0.1-0.1-0.1-0.3c0-0.2,0.1-0.4,0.2-0.6
			c0.1-0.3,0.1-0.5-0.2-0.6c-0.2-0.2-0.5-0.3-0.9-0.3c-0.5,0-0.8,0.1-1.1,0.4c-0.3,0.2-0.4,0.3-0.5,0.2c-0.1-0.1-0.4-0.1-0.8,0
			c-0.5,0.1-1.4,0.2-2.6,0.2c-0.9,0-1.4,0-1.5-0.1c-0.1-0.1-0.2,0-0.4,0.2c-0.1,0.1-0.3,0.2-0.4,0.2c-0.2,0-0.4,0-0.7-0.1
			c-0.7-0.2-1.1-0.2-1.3-0.2c-0.1,0-0.2,0-0.2,0c-0.1,0-0.3,0.1-0.4,0.3c-0.1,0.2-0.2,0.4-0.2,0.5c0,0.1,0,0.1,0.1,0.2
			c0,0,0.1,0.2,0.1,0.5c0,0.1,0,0.2-0.1,0.3c-0.1,0-0.2,0.1-0.3,0.1c-0.3,0-0.5,0.1-0.5,0.3c0,0,0,0.1,0.1,0.2
			c0.1,0.1,0.1,0.3,0.1,0.6c0,0.3-0.1,0.4-0.1,0.5c0,0.5,0.2,0.8,0.6,0.8c0.3,0,0.4-0.1,0.4-0.2c0-0.1,0.1-0.2,0.2-0.2
			c0.1,0,0.1,0,0.2-0.1c0,0,0-0.1,0-0.2c0-0.1-0.1-0.2-0.2-0.2c-0.1-0.1-0.1-0.1-0.1-0.2c0,0,0-0.1,0-0.1c0,0,0-0.1,0.1-0.1
			c0,0,0.1,0,0.2-0.1c0.2-0.1,0.2-0.2,0.2-0.3c0,0,0-0.1,0-0.2c0-0.1,0-0.1,0-0.2c0-0.1,0-0.2,0.1-0.2c0.1-0.1,0.1-0.3,0-0.6
			c-0.1-0.3-0.1-0.4,0-0.4c0.1,0,0.1,0.1,0.1,0.2c0,0.1,0.2,0.2,0.5,0.4c0.4,0.1,0.7,0.2,1.1,0.2c0.4,0,0.7,0.1,0.8,0.3
			c0.2,0.2,0.3,0.2,0.5,0.2c0.1,0,0.1,0,0.1,0c0.1,0,0.1,0,0,0.1c-0.3,0.3-0.4,2.2-0.5,5.8c0,0.8-0.1,1.2-0.3,1.4
			c-0.2,0.1-0.3,0.3-0.3,0.4c0,0.1-0.3,0.2-0.8,0.2l-0.7,0.1l-0.1,0.5c0,0,0,0.1,0,0.1s0,0.1,0,0.1c0,0.2,0.1,0.4,0.4,0.7
			c0.3,0.3,0.5,0.4,0.7,0.4c0.1,0,0.1,0,0.1-0.1c0-0.1,0-0.1-0.1-0.1c-0.1,0-0.1,0-0.1-0.1c0-0.1,0.2-0.1,0.5-0.1c0.1,0,0.4,0,0.8,0
			c0.4,0,0.7,0,0.9,0c0.6,0,0.9-0.1,1.1-0.2c0.1-0.1,0.3-0.2,0.6-0.1c0.2,0.1,0.3,0,0.4-0.1c0.1-0.1,0.2-0.1,0.3-0.1
			c0.1,0,0.3-0.1,0.5-0.2c0.1-0.1,0.2-0.2,0.2-0.3c0-0.1-0.1-0.2-0.2-0.5c-0.2-0.3-0.3-0.4-0.5-0.4c-0.1,0-0.2-0.1-0.2-0.2
			c0-0.1-0.1-0.2-0.3-0.1c0,0-0.1,0-0.1,0c-0.1,0-0.1,0-0.1,0c-0.1,0-0.2,0-0.3-0.1c0-0.1-0.1-0.3-0.1-0.5v-0.4c0-0.5,0-0.8,0-0.9
			c0-0.1,0.1-0.2,0.2-0.2c0.2,0,0.2-0.1,0.2-0.4c0-0.3-0.1-0.5-0.2-0.5s-0.2-0.4-0.2-1.1c0-0.8,0.1-1.2,0.2-1.4
			c0.1-0.1,0.2-0.5,0.2-1.2c0-0.7,0.1-1,0.1-1.1c0.1-0.2,0.5-0.2,1.2-0.2c1,0,1.5,0.1,1.6,0.4c0,0.1,0.1,0.2,0.4,0.5
			c0.2,0.2,0.3,0.4,0.3,0.8c0,0.3,0.1,0.5,0.1,0.5c0,0.1,0.2,0.1,0.4,0.1c0.2,0,0.4,0,0.4-0.1c0-0.1,0.1-0.2,0.3-0.2
			c0.2-0.1,0.3-0.2,0.3-0.4c0-0.2-0.1-0.4-0.2-0.5C178.9,785.4,178.9,785.3,179,785.3z"/>
		<path d="M199.7,781.9c-0.2-0.1-0.5-0.1-0.8-0.1c-0.1,0-0.2,0-0.5,0.1c-0.3,0.1-0.5,0.1-0.7,0.1h-0.1h-0.2c-0.2,0-0.5,0-1,0.1
			c-0.4,0-0.7,0.1-0.8,0.1c-0.1,0-0.2,0.1-0.2,0.2c0,0.2,0,0.3-0.1,0.3c-0.1,0-0.1,0-0.1,0.1c0,0.1,0,0.2,0,0.3
			c0,0.1,0.1,0.2,0.2,0.2c0.1,0.1,0.2,0.5,0.2,1.3c0,0.8,0.1,1.2,0.2,1.2c0.1,0,0.1,0.3,0.1,0.8v0.8h-1.3c-0.8,0-1.7,0-2.7-0.1
			l-1.4-0.1v-0.7c0-0.4,0-0.7,0.1-0.7c0.1,0,0.1-0.3,0.2-0.9c0-1.1,0.1-1.6,0.4-1.6c0.1,0,0.2,0,0.2-0.1c0-0.1,0.1-0.2,0.4-0.2
			c0.2,0,0.4-0.1,0.5-0.2c0.1-0.1,0.2-0.2,0.2-0.4c0-0.2-0.1-0.3-0.2-0.4c-0.2-0.1-0.5-0.2-1-0.2c-0.3,0-0.4,0-0.5,0.1
			c0,0-0.5,0.1-1.3,0.1c-0.9,0.1-1.7,0.2-2.4,0.5c-0.1,0-0.2,0.1-0.2,0.2c0,0.1,0.2,0.2,0.6,0.4l0.6,0.3l0,0.8v0.9v0.3
			c0,0.2,0,0.4,0.1,0.4c0.1,0.1,0.2,0.5,0.2,1.1c0,0.6-0.1,1.1-0.2,1.4c-0.1,0.3-0.2,0.5-0.2,0.8c0,0,0,0,0,0.1c0,0,0,0.1,0,0.1
			c0,0.2,0.1,0.4,0.1,0.6c0,0.5,0,1.1-0.1,1.8c-0.1,0.6-0.2,1-0.2,1.2c-0.1,0.2-0.4,0.3-0.8,0.3c-0.3,0-0.5,0.1-0.6,0.1
			c-0.1,0.1-0.1,0.2-0.1,0.4v0.5l0.7-0.1c0.3-0.1,1-0.1,2.2-0.1h0.7h0.7c1,0,1.6,0,1.6-0.1c0-0.1-0.1-0.3-0.2-0.5
			c-0.2-0.2-0.3-0.3-0.4-0.3h-0.1c-0.2,0.1-0.4,0.1-0.6-0.1c-0.1-0.1-0.2-0.1-0.3-0.2c0-0.1-0.1-0.2-0.1-0.4c0-0.3,0-0.5,0-0.8
			c0-0.9,0.1-1.6,0.1-2.1v-0.8h4.9l0.1,0.4c0,0.2,0.1,0.5,0.1,0.7c0,0.5,0,1.1-0.1,1.7c-0.1,0.6-0.2,1-0.3,1
			c-0.1,0.1-0.4,0.2-0.8,0.3c-0.3,0-0.5,0.1-0.5,0.1c-0.1,0.1-0.1,0.2-0.1,0.4c0,0.3,0.1,0.5,0.3,0.5c0.3,0.1,1.3,0.1,3.1,0.1
			c1.3,0,2,0,2.1-0.1c0.2-0.1,0.3-0.2,0.3-0.4c0-0.2-0.1-0.3-0.2-0.5c-0.1-0.1-0.3-0.2-0.4-0.2c0,0,0,0-0.1,0c0,0,0,0-0.1,0
			c-0.1,0.1-0.3,0.1-0.5,0l-0.4-0.1l0.1-3.5c0-2.3,0.1-3.5,0.2-3.6c0.1,0,0.1-0.3,0.1-0.9c0.1-1.1,0.2-1.6,0.4-1.6
			c0.1,0,0.2,0,0.2-0.1c0-0.1,0.1-0.2,0.4-0.2c0.2,0,0.4-0.1,0.5-0.2c0.2-0.1,0.2-0.3,0.2-0.4C200,782.1,199.9,782,199.7,781.9z
			 M188.8,790.8c-0.2-0.1-0.3-0.1-0.3-0.2c0-0.1,0-0.1,0.1-0.1c0.2,0,0.3,0.1,0.4,0.2c0,0,0,0,0,0.1
			C189.1,790.8,189,790.8,188.8,790.8z M189.5,790.7c-0.1,0-0.1-0.1-0.1-0.2c0-0.1,0-0.2,0.1-0.2c0.1,0,0.2,0.1,0.2,0.2
			C189.7,790.7,189.6,790.7,189.5,790.7z M189.5,787c-0.1,0-0.2-0.1-0.2-0.3c0-0.3,0.1-0.4,0.2-0.4c0.2,0,0.2,0.1,0.2,0.3
			C189.7,786.9,189.6,787,189.5,787z M196.6,790.8c-0.1,0.1-0.2,0.1-0.4,0c-0.2-0.1-0.3-0.1-0.3-0.2c0-0.1,0.1-0.1,0.2-0.1
			c0.3,0,0.5,0.1,0.5,0.2C196.7,790.7,196.7,790.8,196.6,790.8z M197,790.7c-0.1,0-0.2-0.1-0.2-0.2c0-0.1,0.1-0.2,0.2-0.2
			c0.1,0,0.1,0.1,0.1,0.2C197.2,790.7,197.1,790.7,197,790.7z M197,787c-0.1,0-0.2-0.1-0.2-0.3c0-0.3,0.1-0.4,0.2-0.4
			c0.1,0,0.2,0.1,0.2,0.3C197.2,786.9,197.1,787,197,787z"/>
		<path d="M217.2,790.2c-0.1,0-0.3,0.2-0.5,0.5s-0.4,0.6-0.4,0.7c0,0.1-0.1,0.2-0.4,0.2c-0.1,0-0.2,0-0.3,0.1c0,0-0.1,0.1-0.1,0.1
			c0,0,0,0.1,0,0.3c0,0.2-0.1,0.3-0.4,0.3c0,0-0.1,0-0.1,0c-0.1,0-0.1,0-0.2,0c-0.2,0-0.4,0.1-0.6,0.3c-0.2,0.2-0.4,0.3-0.6,0.3
			c-0.1,0-0.2-0.1-0.2-0.2c0-0.1-0.1-0.1-0.4,0c-0.2,0.1-0.6,0.2-1.2,0.2c-0.5,0-0.7,0-0.7-0.1c0-0.1-0.1-0.1-0.2-0.1
			c-0.1,0-0.1-0.1-0.2-0.2c-0.1-0.2-0.1-0.3-0.1-0.4c0-0.1,0-0.2,0-0.3c0-0.2,0-0.4,0-0.6c0-0.3,0-0.5,0-0.8c0-0.3,0-0.5,0-0.8
			c0-0.3,0-0.5,0-0.6v-0.2c0-0.1,0.4-0.1,1.3-0.1c0.7,0,1.2,0.1,1.4,0.2c0.2,0.1,0.4,0.4,0.4,0.8c0,0.2,0,0.3,0.1,0.3
			c0,0,0.1,0,0.2,0c0.1-0.1,0.3-0.1,0.5-0.1c0.1,0,0.2,0,0.3-0.1c0-0.1,0.1-0.2,0.1-0.5c0-0.1,0-0.2,0-0.3c0-0.2,0-0.3,0-0.4v-0.2
			c0-0.3,0-0.6,0.1-0.7c0.1-0.1,0.1-0.3,0-0.4c-0.1-0.1-0.1-0.3,0.1-0.4c0.1-0.1,0.2-0.2,0.2-0.4c0-0.3-0.3-0.4-1-0.4
			c-0.4,0-0.6,0.2-0.6,0.5c0,0.1,0,0.2,0.1,0.3c0,0.2,0,0.4,0,0.5s-0.3,0.2-0.9,0.3c-0.5,0.1-1,0.1-1.5,0.1h-0.6v-0.6
			c0-0.4,0.1-0.6,0.2-0.6c0.1,0,0.2-0.1,0.2-0.4c0-0.3-0.1-0.5-0.2-0.9c-0.1-0.2-0.2-0.4-0.1-0.4c0-0.1,0.1-0.1,0.2-0.3
			c0.2-0.1,0.3-0.3,0.2-0.5c0,0,0-0.1,0-0.2c0-0.1,0.1-0.3,0.4-0.3c0.3-0.1,0.7-0.1,1.5-0.2c0.7,0,1.1-0.1,1.1-0.1
			c0.3,0,0.5,0.1,0.6,0.2c0.1,0.2,0.3,0.3,0.5,0.4c0.2,0.1,0.3,0.2,0.3,0.3c0,0.1,0.1,0.2,0.3,0.3c0.2,0.1,0.3,0.2,0.3,0.3
			c0,0.2,0.1,0.3,0.3,0.5c0.2,0.2,0.4,0.2,0.6,0.2h0c0.3,0,0.4-0.2,0.4-0.6c0-0.2-0.1-0.3-0.2-0.5c-0.1-0.1-0.2-0.3-0.2-0.5
			c0-0.3-0.1-0.5-0.2-0.5c-0.1,0-0.1-0.1,0-0.4c0.1-0.1,0.1-0.2,0.1-0.3c0,0-0.1-0.1-0.1-0.1c-0.1-0.1-0.2-0.2-0.2-0.3
			s-0.1-0.3-0.3-0.5c-0.2-0.2-0.4-0.3-0.6-0.1c-0.3,0.1-1.8,0.3-4.7,0.4h-0.7c-1.5,0-2.2-0.1-2.3-0.3c0-0.1-0.1-0.1-0.2-0.1
			s-0.2,0-0.2,0.1l0,0.1c0,0.1,0,0.1,0,0.1c0,0,0,0.1,0,0.2c0,0.1,0,0.2,0,0.2c0,0.2-0.1,0.3-0.3,0.3c-0.2,0.1-0.3,0.2-0.2,0.5
			c0.1,0.2,0.1,0.4,0.2,0.5c0.1,0.1,0.2,0.1,0.3,0.1c0.1,0,0.3,0,0.4,0c0.1,0,0.2,0,0.4,0c0.3,0,0.5,0.1,0.6,0.4
			c0.1,0.2,0.1,0.7,0.1,1.4c0,0.9-0.1,1.4-0.2,1.4c-0.1,0-0.1,0.2,0,0.4c0.1,0.2,0.1,0.4,0,0.6c-0.1,0.2-0.2,0.3-0.3,0.3
			c-0.1,0-0.1,0.1,0.1,0.2c0.1,0.1,0.1,0.3,0.1,0.6c0,0.5-0.1,1.5-0.2,2.8l-0.1,0.9h-0.6c-0.4,0-0.6,0.1-0.6,0.3
			c0,0.2-0.1,0.3-0.3,0.3c-0.1,0-0.2,0.1-0.2,0.3c0,0.3,0.1,0.5,0.3,0.6c0.2,0.1,0.3,0.2,0.3,0.4c0,0.1,0.2,0.1,0.7,0.1
			c0.5,0,0.8-0.1,0.9-0.3c0.1-0.1,0.5-0.2,1.2-0.2c0.5,0,0.9,0,1.3,0c0.7,0,1.1,0.1,1.2,0.2c0,0.1,0.2,0.1,0.4,0
			c0.2-0.1,0.7-0.2,1.5-0.2c0.8,0,1.3,0,1.5-0.1c0.2,0,0.3-0.1,0.5-0.3c0.2-0.2,0.3-0.3,0.2-0.5c0-0.2,0-0.3,0.1-0.4
			c0.1-0.1,0.2-0.3,0.2-0.8c0-0.3,0-0.5,0-0.6c0-0.1,0.1-0.1,0.2-0.1c0.2,0,0.3-0.2,0.3-0.5c0-0.2-0.1-0.4-0.2-0.6
			C217.5,790.3,217.4,790.2,217.2,790.2z"/>
		<path d="M207.1,792.1c0,0,0.1,0,0.1-0.1c0.1-0.2,0.1-0.3,0-0.3c-0.1,0-0.2,0.1-0.2,0.2C206.9,792,207,792.1,207.1,792.1z"/>
		<path d="M249.7,784.1c0.1,0,0.2-0.2,0.2-0.5c0-0.3-0.1-0.4-0.2-0.4c-0.1,0-0.1-0.1-0.1-0.3c0-0.2,0.1-0.4,0.2-0.7
			c0.1-0.3,0-0.5-0.2-0.7c-0.2-0.2-0.5-0.3-0.9-0.3c-0.4,0-0.8,0.1-1.1,0.4c-0.3,0.2-0.5,0.3-0.6,0.2c-0.1-0.1-0.1-0.1-0.3-0.1
			c-0.1,0-0.2,0-0.6,0.1c-0.4,0.1-1.3,0.2-2.7,0.2c-1,0-1.5,0-1.6-0.1c-0.1-0.1-0.2,0-0.4,0.2c-0.1,0.1-0.3,0.2-0.4,0.2
			c-0.1,0-0.3,0-0.8-0.1c-0.8-0.2-1.2-0.3-1.3-0.3c0,0-0.1,0-0.3,0.1c-0.1,0-0.3,0.1-0.4,0.3c-0.1,0.2-0.2,0.4-0.2,0.5
			c0,0,0,0.1,0.1,0.2c0.1,0.1,0.1,0.2,0.2,0.5c0,0.1,0,0.2-0.1,0.3c-0.1,0-0.2,0.1-0.4,0.1c-0.1,0-0.3,0-0.4,0.1
			c-0.1,0.1-0.2,0.2-0.2,0.2c0,0.1,0,0.1,0.1,0.2c0.1,0.1,0.1,0.3,0.1,0.7c0,0.3-0.1,0.5-0.1,0.5c0,0.5,0.2,0.8,0.6,0.8
			c0.3,0,0.4-0.1,0.4-0.2c0-0.1,0.1-0.2,0.2-0.2c0.3,0,0.3-0.2,0-0.5c-0.1-0.1-0.2-0.2-0.2-0.3c0,0,0.1-0.1,0.3-0.1
			c0.2-0.1,0.3-0.2,0.2-0.4c-0.1-0.2,0-0.4,0-0.6c0.1-0.1,0.1-0.3,0-0.6c-0.1-0.3-0.1-0.4,0-0.4c0.1,0,0.1,0.1,0.1,0.2
			c0,0.1,0.2,0.3,0.6,0.4c0.4,0.1,0.8,0.2,1.1,0.2c0.4,0,0.7,0.1,0.9,0.3c0.2,0.2,0.4,0.2,0.5,0.2c0.1,0,0.2,0,0.2,0
			c0,0,0,0.1-0.1,0.1c-0.3,0.4-0.4,2.4-0.5,6.1c0,0.8-0.1,1.2-0.3,1.4c-0.2,0.2-0.3,0.3-0.3,0.5c0,0.1-0.3,0.2-0.8,0.2l-0.8,0.1
			l-0.1,0.6c0,0,0,0.1,0,0.1c0,0.1,0,0.1,0,0.1c0,0.2,0.2,0.5,0.5,0.8c0.3,0.3,0.6,0.4,0.7,0.4c0.1,0,0.2,0,0.2-0.1
			c0-0.1-0.1-0.1-0.2-0.1c-0.1,0-0.1,0-0.1-0.1c0-0.1,0.2-0.1,0.5-0.1c0.1,0,0.4,0,0.9,0c0.4,0,0.8,0,1,0c0.5,0,0.9,0,1-0.1
			c0.1-0.1,0.3-0.2,0.6-0.1c0.2,0,0.3,0,0.4-0.1c0.1-0.1,0.2-0.1,0.3-0.1c0.1,0,0.3-0.1,0.5-0.3c0.1-0.1,0.2-0.2,0.2-0.3
			c0-0.1-0.1-0.2-0.2-0.5c-0.2-0.3-0.3-0.5-0.5-0.5c-0.1,0-0.2-0.1-0.2-0.2c0-0.1-0.1-0.2-0.3-0.1c0,0-0.1,0-0.1,0
			c-0.1,0-0.1,0-0.1,0c-0.1,0-0.2,0-0.3-0.1c0-0.1-0.1-0.3-0.1-0.5v-0.5c0-0.5,0-0.8,0-0.9c0-0.1,0.1-0.2,0.2-0.2
			c0.2,0,0.2-0.1,0.2-0.4c0-0.3-0.1-0.5-0.2-0.5c-0.1,0-0.2-0.4-0.2-1.1c0-0.8,0.1-1.3,0.2-1.4c0.1-0.1,0.2-0.6,0.2-1.2
			c0-0.7,0.1-1.1,0.1-1.2c0.1-0.2,0.5-0.2,1.2-0.2c1.1,0,1.7,0.1,1.8,0.4c0,0.1,0.1,0.2,0.4,0.5c0.2,0.2,0.3,0.5,0.4,0.8
			c0,0.3,0.1,0.5,0.1,0.5c0.1,0.1,0.2,0.1,0.4,0.1c0.3,0,0.4,0,0.4-0.1c0-0.1,0.1-0.2,0.3-0.3c0.2-0.1,0.3-0.2,0.3-0.4
			s-0.1-0.4-0.3-0.6C249.6,784.2,249.6,784.1,249.7,784.1z"/>
		<path d="M269.3,785.7c-0.2-0.1-0.2-0.2-0.2-0.5c0-0.3,0-0.5-0.1-0.5c-0.1,0-0.1-0.1-0.1-0.4c0-0.3-0.1-0.4-0.2-0.4
			c-0.1,0-0.2-0.1-0.3-0.3c-0.1-0.2-0.2-0.3-0.3-0.4c-0.1-0.1-0.2-0.2-0.2-0.4c0-0.2-0.1-0.3-0.4-0.3c-0.7,0-1-0.1-1-0.4
			c0-0.1-0.1-0.2-0.2-0.2c-0.1,0-0.2,0-0.2-0.1s-0.1-0.1-0.3-0.1c-0.2,0-0.3-0.1-0.4-0.2c0-0.1-0.5-0.2-1.5-0.2
			c-0.9,0-1.5,0.1-1.6,0.2c-0.1,0.1-0.2,0.2-0.4,0.2c-0.2,0-0.3,0.1-0.4,0.3c-0.1,0.2-0.3,0.4-0.6,0.4c-0.3,0-0.6,0.1-1.1,0.2
			c-0.5,0.1-0.7,0.3-0.8,0.5c0,0.2-0.2,0.4-0.5,0.7c-0.3,0.3-0.4,0.5-0.4,0.5c0,0.1-0.1,0.1-0.2,0.1c-0.1,0-0.2,0.1-0.3,0.4
			c-0.1,0.2-0.2,0.5-0.3,0.7c-0.2,0.3-0.2,0.8-0.2,1.8c0,1.2,0.1,2.1,0.4,2.9c0.5,1.4,0.9,2.2,1.2,2.3c0.2,0,0.3,0.1,0.3,0.3
			c0,0.2,0.2,0.2,0.4,0.2c0.2,0,0.4,0,0.4,0.1c0,0.1,0.1,0.1,0.3,0.1c0.2,0,0.3,0.1,0.3,0.4c0,0.2,0,0.3,0.1,0.4
			c0.1,0.1,0.2,0,0.4-0.1c0.1-0.1,0.2-0.1,0.3,0c0.2,0.1,0.9,0.2,2.2,0.2c1.1,0,1.7-0.1,1.7-0.2c0-0.1,0.3-0.2,0.7-0.2
			c0.4,0,0.6-0.1,0.6-0.2c0-0.2,0.1-0.3,0.2-0.3c0,0,0.2-0.1,0.4-0.3c0.3-0.2,0.4-0.3,0.5-0.3c0.1,0,0.2-0.1,0.2-0.3
			c0.1-0.2,0.2-0.3,0.3-0.3c0.1,0,0.2-0.1,0.3-0.3c0-0.2,0.2-0.3,0.4-0.3c0.2-0.1,0.3-0.1,0.3-0.2c0-0.1,0.1-0.1,0.2-0.1
			c0.1,0,0.2-0.2,0.2-0.6c0-0.3,0-0.5-0.1-0.5c-0.1,0-0.1-0.1,0-0.2c0.1-0.1,0.2-0.8,0.2-2.1c0-0.3,0-0.7,0-1.1
			C269.5,786,269.4,785.7,269.3,785.7z M267.1,788.8c-0.1,0-0.2,0.2-0.2,0.4c0,0.3-0.1,0.4-0.2,0.5c-0.1,0.1-0.2,0.4-0.3,0.8
			c-0.1,0.4-0.1,0.6-0.3,0.6c-0.1,0-0.2,0-0.2,0.1c0,0.1-0.1,0.2-0.4,0.2c-0.3,0.1-0.4,0.2-0.4,0.3c0,0.1,0,0.2-0.1,0.2
			c-0.1,0.1-0.2,0.1-0.4,0.2c-0.1,0.1-0.2,0.1-0.3,0.1c0,0.1-0.2,0.1-0.4,0.1c-0.2,0-0.3,0.1-0.5,0.2c-0.1,0.1-0.2,0.1-0.4,0.1
			c-0.2,0-0.4,0-0.7-0.1c-0.5-0.1-1-0.3-1.3-0.6c-0.3-0.3-0.7-0.8-1-1.5c-0.3-0.5-0.4-0.9-0.5-1.1c0-0.2-0.1-0.7-0.1-1.4
			c0-0.7,0-1.1,0.1-1.4c0-0.2,0.1-0.5,0.3-0.8c0.3-0.5,0.6-0.9,1-1.3c0.4-0.4,0.8-0.6,1-0.7c0.3,0,0.5-0.1,0.5-0.3
			c0-0.1,0.1-0.2,0.2-0.2c0.1,0,0.2,0,0.2-0.1c0-0.1,0.1-0.1,0.3-0.1c0.2,0,0.3,0,0.3,0.1c0,0.1,0.3,0.1,0.9,0.1
			c0.5,0,0.8,0.1,0.8,0.2c0,0.1,0.1,0.2,0.3,0.3c0.2,0.1,0.3,0.2,0.3,0.3s0.1,0.2,0.3,0.3c0.3,0.1,0.5,0.4,0.5,0.8
			c0,0.2,0.1,0.5,0.3,0.8c0.2,0.3,0.3,0.7,0.3,1.1c0,0.5,0,0.7,0.1,0.8c0.1,0.1,0.1,0.2,0.1,0.4
			C267.3,788.6,267.2,788.7,267.1,788.8z"/>
		<path d="M291.3,783.4c-0.1,0-0.3,0-0.5,0c-0.2,0-0.3,0-0.4,0c-0.3,0-0.6,0-0.7,0.1c-0.1,0-0.2,0.1-0.4,0.3
			c-0.2,0.2-0.3,0.3-0.3,0.4c0,0.1,0,0.1,0.2,0.2c0.2,0.1,0.4,0.2,0.6,0.2c0.3,0,0.4,0.1,0.5,0.3c0.1,0.2,0,0.3-0.1,0.4
			c-0.1,0-0.1,0.2-0.1,0.6s-0.1,0.6-0.2,0.6c-0.2,0.1-0.2,0.2-0.2,0.3c0,0.1,0,0.1,0,0.2c0,0.1,0,0.1,0,0.2c0,0.5-0.1,0.8-0.3,0.9
			c-0.1,0-0.2,0.1-0.3,0.3c0,0.2-0.1,0.6-0.3,1.5c-0.1,0.4-0.2,0.6-0.4,0.6c-0.1,0-0.2,0.1-0.2,0.2c0,0.1,0,0.2-0.2,0.2
			c-0.2,0-0.4-0.1-0.5-0.2c-0.1-0.2-0.2-0.5-0.3-0.9c-0.1-0.3-0.1-0.9-0.2-1.6c-0.1-0.5-0.2-0.8-0.2-0.9c-0.1-0.1-0.1-0.4-0.1-0.6
			c0-0.3,0-0.5-0.1-0.5c-0.1,0-0.1-0.1-0.1-0.4c0-0.2-0.1-0.4-0.2-0.4c-0.1-0.1-0.2-0.1-0.2-0.2c0-0.1,0.2-0.2,0.6-0.2
			s0.7-0.1,0.8-0.2c0.2-0.2,0.2-0.4,0-0.6c-0.1-0.2-0.3-0.4-0.6-0.4c-0.3-0.1-0.8-0.1-1.5-0.1c-0.4,0-0.7,0-0.8,0
			c-0.1,0-0.2-0.1-0.2-0.2c-0.1-0.2-0.1-0.3-0.2-0.3c-0.1,0-0.2,0.1-0.4,0.3c-0.2,0.2-0.4,0.3-0.5,0.3c-0.3,0-0.5,0.2-0.6,0.6v0.1
			l0,0.1c0,0.3,0.3,0.5,0.9,0.6c0.3,0.1,0.5,0.2,0.5,0.4c0,0.1-0.1,0.1-0.2,0.1c-0.1,0-0.1,0.2-0.1,0.6s0,0.6-0.1,0.6
			s-0.1,0.2-0.1,0.5c0,0.7-0.1,1-0.4,1.1c-0.1,0-0.2,0.1-0.3,0.3c0,0.2-0.1,0.7-0.3,1.5c-0.1,0.4-0.2,0.6-0.4,0.6
			c-0.1,0-0.2,0.1-0.2,0.2c0,0.1,0,0.2-0.2,0.2c-0.3,0-0.4-0.1-0.5-0.2c-0.1-0.2-0.2-0.4-0.2-0.9c0-0.6-0.1-0.9-0.2-0.9
			c-0.1-0.1-0.1-0.3-0.1-0.6c0-0.4-0.1-0.7-0.2-0.9c-0.1-0.2-0.2-0.5-0.1-0.8c0-0.3,0-0.5-0.1-0.5c-0.1,0-0.2-0.1-0.2-0.4
			c0-0.2-0.1-0.4-0.2-0.4c-0.1-0.1-0.2-0.1-0.2-0.2c0-0.1,0.2-0.2,0.6-0.2c0.4,0,0.7-0.1,0.8-0.2c0.1-0.1,0.2-0.2,0.1-0.3
			c0-0.1-0.1-0.2-0.1-0.4c-0.1-0.2-0.2-0.3-0.4-0.4c-0.1-0.1-0.4-0.1-0.8-0.1c-0.1,0-0.2,0-0.4,0c-0.2,0-0.4,0-0.5,0h-0.4
			c-0.2,0-0.4,0-0.4-0.1c-0.1,0-0.1-0.1-0.1-0.3c-0.1-0.2-0.1-0.3-0.2-0.3c-0.1,0-0.2,0.1-0.5,0.3c-0.2,0.2-0.4,0.3-0.4,0.3
			c-0.1,0-0.3,0.1-0.4,0.2c-0.1,0.1-0.2,0.3-0.2,0.4c0,0.3,0.3,0.6,0.8,0.7c0.5,0.1,0.8,0.6,0.9,1.5c0.1,0.4,0.2,0.6,0.3,0.7
			c0.1,0.1,0.2,0.4,0.2,0.6c0,0.3,0.1,0.5,0.2,0.6c0.3,0.4,0.5,1,0.5,1.8c0,0.4,0,0.6,0.1,0.6c0.1,0.1,0.1,0.2,0.1,0.4
			c0,0.2,0,0.3,0.1,0.4c0.1,0.1,0.2,0.3,0.2,0.7c0,0.4,0.1,0.6,0.2,0.6c0.1,0,0.2,0.2,0.2,0.5c0,0.3,0.1,0.5,0.2,0.5
			c0.1,0,0.2,0.1,0.3,0.4c0.1,0.3,0.3,0.5,0.6,0.5c0.3,0,0.5-0.2,0.5-0.6c0-0.3,0-0.4,0.1-0.4c0.1,0,0.1-0.1,0.1-0.4
			c0-0.3,0.1-0.4,0.2-0.4c0.1,0,0.1-0.2,0.1-0.5c0-0.3,0.1-0.6,0.3-0.9c0.2-0.3,0.4-0.5,0.6-0.6c0.2-0.1,0.3-0.3,0.3-0.6
			c0-0.4,0.1-0.6,0.2-0.6c0.1,0,0.2-0.2,0.2-0.5c0-0.3,0.1-0.5,0.2-0.7c0.1-0.1,0.1-0.3,0.1-0.6c0-0.1,0.1-0.2,0.4-0.3
			c0.3-0.1,0.4-0.2,0.4-0.2c0.1,0,0.1,0.1,0.1,0.4c0,0.3,0.1,0.6,0.2,0.7c0.3,0.4,0.5,1,0.5,1.8c0,0.4,0.1,0.6,0.2,0.6
			c0.1,0,0.1,0.1,0.1,0.3c-0.1,0.2-0.1,0.4,0.1,0.4s0.2,0.3,0.2,0.7c0,0.4,0.1,0.6,0.2,0.6c0.1,0,0.2,0.2,0.2,0.5
			c0,0.3,0.1,0.5,0.2,0.5c0.1,0,0.2,0.1,0.3,0.4c0.1,0.3,0.3,0.5,0.5,0.5c0.3,0,0.5-0.2,0.5-0.6c0-0.3,0.1-0.4,0.2-0.4
			c0.1,0,0.1-0.1,0.1-0.4c0-0.3,0-0.4,0.1-0.4c0.1,0,0.1-0.2,0.1-0.5c0-0.3,0.1-0.6,0.3-1c0.2-0.4,0.4-0.5,0.5-0.5
			c0.1,0,0.2-0.2,0.2-0.6c0-0.4,0.1-0.6,0.2-0.6s0.2-0.2,0.2-0.5c0-0.3,0.1-0.6,0.2-0.7c0.2-0.2,0.2-0.4,0.2-0.5
			c-0.1-0.2,0.1-0.3,0.3-0.4c0.1,0,0.3-0.1,0.3-0.1c0.1-0.1,0.1-0.1,0.1-0.2c0,0,0-0.1,0-0.2c0-0.1,0-0.1,0-0.2
			c0-0.6,0.1-0.8,0.3-0.8c0.1,0,0.1-0.1,0.2-0.4c0-0.3,0.1-0.4,0.2-0.4c0.1,0,0.2-0.1,0.2-0.2c0-0.1,0.1-0.2,0.3-0.2
			c0.3,0,0.5-0.1,0.6-0.2c0.1-0.1,0.2-0.3,0.2-0.6l0-0.4L291.3,783.4z"/>
		<path d="M310.3,790.2c-0.1,0-0.3,0.2-0.5,0.5s-0.4,0.6-0.4,0.7c0,0.1-0.1,0.2-0.4,0.2c-0.1,0-0.2,0-0.3,0.1c0,0-0.1,0.1-0.1,0.1
			c0,0,0,0.1,0,0.3c0,0.2-0.1,0.3-0.4,0.3c0,0-0.1,0-0.1,0c-0.1,0-0.1,0-0.2,0c-0.2,0-0.4,0.1-0.6,0.3c-0.2,0.2-0.4,0.3-0.6,0.3
			c-0.1,0-0.2-0.1-0.2-0.2c0-0.1-0.1-0.1-0.4,0c-0.2,0.1-0.6,0.2-1.2,0.2c-0.5,0-0.7,0-0.7-0.1c0-0.1-0.1-0.1-0.2-0.1
			c-0.1,0-0.1-0.1-0.2-0.2c-0.1-0.2-0.1-0.3-0.1-0.4c0-0.1,0-0.2,0-0.3c0-0.2,0-0.4,0-0.6c0-0.3,0-0.5,0-0.8c0-0.3,0-0.5,0-0.8
			s0-0.5,0-0.6v-0.2c0-0.1,0.4-0.1,1.3-0.1c0.7,0,1.2,0.1,1.4,0.2c0.2,0.1,0.4,0.4,0.4,0.8c0,0.2,0,0.3,0.1,0.3c0,0,0.1,0,0.2,0
			c0.1-0.1,0.3-0.1,0.5-0.1c0.1,0,0.2,0,0.3-0.1c0-0.1,0.1-0.2,0.1-0.5c0-0.1,0-0.2,0-0.3c0-0.2,0-0.3,0-0.4v-0.2
			c0-0.3,0-0.6,0.1-0.7c0.1-0.1,0.1-0.3,0-0.4c-0.1-0.1-0.1-0.3,0.1-0.4c0.1-0.1,0.2-0.2,0.2-0.4c0-0.3-0.3-0.4-1-0.4
			c-0.4,0-0.6,0.2-0.6,0.5c0,0.1,0,0.2,0.1,0.3c0,0.2,0,0.4,0,0.5s-0.3,0.2-0.9,0.3c-0.5,0.1-1,0.1-1.5,0.1h-0.6v-0.6
			c0-0.4,0.1-0.6,0.2-0.6c0.1,0,0.2-0.1,0.2-0.4c0-0.3-0.1-0.5-0.2-0.9c-0.1-0.2-0.2-0.4-0.1-0.4c0-0.1,0.1-0.1,0.2-0.3
			c0.2-0.1,0.3-0.3,0.2-0.5c0,0,0-0.1,0-0.2c0-0.1,0.1-0.3,0.4-0.3c0.3-0.1,0.7-0.1,1.5-0.2c0.7,0,1.1-0.1,1.1-0.1
			c0.3,0,0.5,0.1,0.6,0.2c0.1,0.2,0.3,0.3,0.5,0.4c0.2,0.1,0.3,0.2,0.3,0.3c0,0.1,0.1,0.2,0.3,0.3c0.2,0.1,0.3,0.2,0.3,0.3
			c0,0.2,0.1,0.3,0.3,0.5c0.2,0.2,0.4,0.2,0.6,0.2h0c0.3,0,0.4-0.2,0.4-0.6c0-0.2-0.1-0.3-0.2-0.5c-0.1-0.1-0.2-0.3-0.2-0.5
			c0-0.3-0.1-0.5-0.2-0.5c-0.1,0-0.1-0.1,0-0.4c0.1-0.1,0.1-0.2,0.1-0.3c0,0-0.1-0.1-0.1-0.1c-0.1-0.1-0.2-0.2-0.2-0.3
			s-0.1-0.3-0.3-0.5c-0.2-0.2-0.4-0.3-0.6-0.1c-0.3,0.1-1.8,0.3-4.7,0.4h-0.7c-1.5,0-2.2-0.1-2.3-0.3c0-0.1-0.1-0.1-0.2-0.1
			c-0.1,0-0.2,0-0.2,0.1l0,0.1c0,0.1,0,0.1,0,0.1c0,0,0,0.1,0,0.2c0,0.1,0,0.2,0,0.2c0,0.2-0.1,0.3-0.3,0.3
			c-0.2,0.1-0.3,0.2-0.2,0.5c0.1,0.2,0.1,0.4,0.2,0.5c0.1,0.1,0.2,0.1,0.3,0.1c0.1,0,0.3,0,0.4,0c0.1,0,0.2,0,0.4,0
			c0.3,0,0.5,0.1,0.6,0.4c0.1,0.2,0.1,0.7,0.1,1.4c0,0.9-0.1,1.4-0.2,1.4c-0.1,0-0.1,0.2,0,0.4c0.1,0.2,0.1,0.4,0,0.6
			c-0.1,0.2-0.2,0.3-0.3,0.3c-0.1,0-0.1,0.1,0.1,0.2c0.1,0.1,0.1,0.3,0.1,0.6c0,0.5-0.1,1.5-0.2,2.8l-0.1,0.9h-0.6
			c-0.4,0-0.6,0.1-0.6,0.3c0,0.2-0.1,0.3-0.3,0.3c-0.1,0-0.2,0.1-0.2,0.3c0,0.3,0.1,0.5,0.3,0.6c0.2,0.1,0.3,0.2,0.3,0.4
			c0,0.1,0.2,0.1,0.7,0.1c0.5,0,0.8-0.1,0.9-0.3c0.1-0.1,0.5-0.2,1.2-0.2c0.5,0,0.9,0,1.3,0c0.7,0,1.1,0.1,1.2,0.2
			c0,0.1,0.2,0.1,0.4,0c0.2-0.1,0.7-0.2,1.5-0.2c0.8,0,1.3,0,1.5-0.1c0.2,0,0.3-0.1,0.5-0.3c0.2-0.2,0.3-0.3,0.2-0.5
			c0-0.2,0-0.3,0.1-0.4c0.1-0.1,0.2-0.3,0.2-0.8c0-0.3,0-0.5,0-0.6c0-0.1,0.1-0.1,0.2-0.1c0.2,0,0.3-0.2,0.3-0.5
			c0-0.2-0.1-0.4-0.2-0.6C310.6,790.3,310.4,790.2,310.3,790.2z"/>
		<path d="M300.1,792.1c0,0,0.1,0,0.1-0.1c0.1-0.2,0.1-0.3,0-0.3c-0.1,0-0.2,0.1-0.2,0.2C300,792,300,792.1,300.1,792.1z"/>
		<path d="M331.2,792.7c-0.1,0-0.2-0.1-0.3-0.4c-0.1-0.2-0.3-0.4-0.5-0.4c-0.2,0-0.4-0.1-0.6-0.2c-0.2-0.1-0.4-0.2-0.4-0.4
			c-0.1-0.1-0.1-0.2-0.3-0.2c-0.1,0-0.3-0.1-0.6-0.4c-0.2-0.3-0.4-0.6-0.6-0.9c-0.1-0.3-0.4-0.6-0.8-1.1c-0.4-0.5-0.7-0.7-0.8-0.7
			c-0.1,0-0.2-0.1-0.4-0.3c-0.1-0.1-0.2-0.2-0.1-0.3c0,0,0.1-0.1,0.3-0.2c0.8-0.3,1.2-0.6,1.2-0.9c0-0.5,0.1-0.7,0.3-0.7
			c0.1,0,0.2-0.1,0.4-0.2c0.2-0.2,0.2-0.7,0.2-1.5c0-1-0.1-1.5-0.3-1.7c-0.1-0.1-0.2-0.2-0.4-0.2c-0.1,0-0.2,0-0.2-0.1
			c0-0.1-0.1-0.2-0.4-0.3c-0.3-0.1-0.4-0.3-0.5-0.5l-0.2-0.3c-0.1-0.1-0.2-0.1-0.2,0.1c0,0.1-0.3,0.1-0.8,0.1c-0.6,0-0.9,0-0.9-0.1
			c0-0.1-0.1-0.1-0.4-0.1s-0.5-0.1-0.6-0.3c-0.2-0.2-0.3-0.3-0.4-0.3c-0.1,0-0.2,0.1-0.1,0.3c0,0,0,0,0,0.1v0.1
			c0,0.1-0.6,0.2-1.8,0.2h-1.9l-0.5,0.5c-0.3,0.3-0.5,0.6-0.5,0.7c0,0.1,0.2,0.2,0.5,0.3c0.3,0.1,0.5,0.1,0.5,0.2
			c0,0.1,0,0.1,0.1,0.1c0.2,0,0.4,0.2,0.6,0.5c0.2,0.3,0.3,0.7,0.3,1.2c0,0.4,0.1,0.6,0.1,0.6c0,0.2-0.1,0.4-0.2,0.5
			c-0.2,0.1-0.2,0.2-0.1,0.3c0.1,0.1,0.2,0.3,0.2,0.7c0,0.3-0.1,0.5-0.2,0.5c-0.1,0-0.2,0,0,0.1c0.1,0.1,0.2,0.2,0.2,0.4
			s-0.1,0.4-0.2,0.5c-0.1,0.1-0.1,0.3,0.1,0.4c0.1,0.1,0.2,0.3,0.2,0.4c0,0.1-0.1,0.3-0.2,0.4c-0.2,0.2-0.3,0.7-0.3,1.6
			c0,0.7,0,1.1-0.1,1.2c0,0.1-0.1,0.2-0.3,0.3c-0.2,0.1-0.3,0.1-0.3,0.2c0,0.1-0.3,0.1-0.8,0.1c-0.4,0-0.6,0.1-0.7,0.1
			c-0.1,0.1-0.1,0.2-0.1,0.5c0,0.2,0.2,0.5,0.6,0.8c0.2,0.1,0.3,0.2,0.5,0.2c0.2,0,0.3-0.1,0.3-0.2c0.1-0.1,0.8-0.2,2.1-0.2
			c1.3,0,2.1-0.1,2.2-0.3c0.1-0.1,0.2-0.2,0.3-0.2c0.1,0,0.2-0.1,0.2-0.2c0-0.1-0.1-0.2-0.4-0.2c-0.3,0-0.4-0.1-0.5-0.3
			c0-0.2-0.2-0.3-0.5-0.4c-0.4-0.1-0.5-0.2-0.5-0.4c0-0.1,0-0.2,0.1-0.3c0.2-0.2,0.2-0.3,0.1-0.4c-0.1,0-0.2-0.6-0.2-1.7
			c0-0.3,0-0.6,0-1c0-0.3,0-0.4,0.1-0.5c0-0.1,0.1-0.1,0.2-0.1c0.5,0,1,0.2,1.5,0.5c0.5,0.4,0.8,0.7,0.8,1c0,0.2,0.1,0.3,0.2,0.3
			s0.2,0.1,0.2,0.4c0,0.5,0.3,0.8,0.8,1c0.2,0.1,0.4,0.3,0.5,0.7c0.1,0.4,0.3,0.8,0.7,1.2l0.6,0.7l0.9-0.1c0.1,0,0.3,0,0.6-0.1
			c0.3,0,0.6,0,0.8-0.1c0.2,0,0.4-0.1,0.7-0.1c0.3-0.1,0.4-0.1,0.6-0.2c0.1-0.1,0.2-0.2,0.2-0.3
			C331.3,792.8,331.3,792.7,331.2,792.7z M325.5,785.9c-0.1,0-0.2,0-0.2,0.1c-0.1,0-0.1,0,0,0.1c0.2,0,0.2,0.1,0.2,0.2
			c0,0.1-0.1,0.3-0.4,0.4c-0.2,0.2-0.5,0.3-0.7,0.3c-0.3,0-0.6,0.1-1.1,0.2c-0.1,0-0.2,0-0.3,0c-0.2,0-0.4-0.1-0.7-0.3
			c-0.2-0.2-0.3-0.3-0.4-0.3c0-0.1,0-0.1,0.1-0.2c0.1-0.1,0.2-0.7,0.2-1.6v-1.2c0-0.3,0.1-0.5,0.2-0.7c0.1-0.2,0.3-0.4,0.4-0.4h0.1
			l0.4,0.1c0.3,0,0.5,0.1,0.8,0.1c0.2,0.1,0.4,0.1,0.4,0.1c0,0.1,0.1,0.1,0.4,0.2c0.3,0.1,0.4,0.2,0.4,0.3c0,0.1,0.1,0.3,0.2,0.4
			c0.1,0.1,0.2,0.2,0.1,0.3c-0.1,0.1-0.1,0.3,0.1,0.6c0.1,0.2,0.2,0.5,0.2,0.8v0.1c0,0.2-0.1,0.4-0.1,0.4S325.8,785.9,325.5,785.9z"
			/>
		<path d="M324.2,780.4C324.2,780.4,324.2,780.4,324.2,780.4c0.1-0.1,0.2-0.1,0.1-0.1c0,0-0.1,0-0.3,0c-0.2,0-0.3,0.1-0.3,0.2
			C323.9,780.5,324,780.5,324.2,780.4z"/>
		<path d="M319.6,779.5c0.2,0,0.3-0.1,0.3-0.2c0-0.1-0.1-0.1-0.3-0.1c-0.2,0-0.3,0-0.3,0.1C319.3,779.5,319.4,779.5,319.6,779.5z"/>
	</g>
	<g>
		<g>
			<g>
				<g>
					<path d="M356.6,260.6c9.4-11.6,25.5-11.8,35.2-0.3c0.7-1.3,1.5-2.5,2.2-3.8c-24.5-8.1-44.9,19.2-30.2,40.4c1-1,2.1-2.1,3.1-3.1
						c-13.7-5.9-18.4-21.3-10-33.7c1.6-2.4-2.3-4.7-3.9-2.3c-9.7,14.3-4.3,33.1,11.6,39.9c1.8,0.8,4.5-1,3.1-3.1
						c-12.5-18,4.2-40.7,25.1-33.8c2.3,0.8,3.5-2.2,2.2-3.8c-11.1-13.2-30.7-13.1-41.6,0.3C351.6,259.7,354.8,262.9,356.6,260.6z"/>
				</g>
			</g>
			<g>
				<g>
					<path d="M305.9,238.4c9.4-15.7,30.2-16.7,41.6-2.5c0.5-1.3,1.1-2.6,1.6-3.9c-24.3-0.6-38.8,25.7-25.3,46
						c0.6-1.1,1.3-2.3,1.9-3.4C307.8,272.7,297.9,254.4,305.9,238.4c1.3-2.6-2.6-4.9-3.9-2.3c-9.6,19.2,2.4,40.8,23.7,43
						c1.7,0.2,2.8-2.1,1.9-3.4c-11.6-17.4,0.5-39.7,21.4-39.2c2.1,0.1,2.7-2.4,1.6-3.9c-13.2-16.5-37.9-14.6-48.7,3.4
						C300.5,238.6,304.4,240.9,305.9,238.4z"/>
				</g>
			</g>
			<g>
				<g>
					<path d="M247.4,213.6c12.3-2,24.4,5.5,26.8,18.1c2.4,12.2-5.8,24.5-18.1,26.8c-12.2,2.4-24.5-5.8-26.8-18.1
						C226.9,227.8,235.3,216.5,247.4,213.6c2.8-0.7,1.6-5-1.2-4.4c-14.5,3.5-24.3,17.4-21.2,32.4c3,14.6,17.8,24.3,32.4,21.2
						c14.6-3,24.3-17.8,21.2-32.4c-3.2-15.1-17.7-23.6-32.4-21.2C243.4,209.7,244.6,214,247.4,213.6z"/>
				</g>
			</g>
			<g>
				<g>
					<path d="M164.4,228.6c13.5-6.8,30.3-0.8,35.1,14c5,15.3-6.1,30.4-21.6,32c0.6,1.1,1.3,2.3,1.9,3.4c13.5-20.3-1-46.5-25.3-46
						c0.5,1.3,1.1,2.6,1.6,3.9C158.5,233,161.1,230.6,164.4,228.6c2.5-1.5,0.2-5.4-2.3-3.9c-3.6,2.2-6.5,4.7-9.2,8
						c-1.1,1.4-0.5,3.9,1.6,3.9c20.9-0.5,33,21.7,21.4,39.2c-0.9,1.3,0.3,3.6,1.9,3.4c18.4-2,31.8-19.4,25.9-37.7
						c-5.7-17.7-25.6-24.8-41.7-16.7C159.5,226,161.8,229.9,164.4,228.6z"/>
				</g>
			</g>
			<g>
				<g>
					<path d="M116.1,256c10.8-7.3,25.6-5.2,32.2,6.7c6.8,12.1,0.5,25.9-11.6,31.1c1,1,2.1,2.1,3.1,3.1c14.8-21.2-5.6-48.5-30.2-40.4
						c0.7,1.3,1.5,2.5,2.2,3.8c1.5-1.8,2.9-3.2,4.7-4.7c2.2-1.8-1-5-3.2-3.2c-1.8,1.5-3.2,2.9-4.7,4.7c-1.3,1.6-0.1,4.5,2.2,3.8
						c20.8-6.9,37.6,15.8,25.1,33.8c-1.4,2.1,1.3,3.9,3.1,3.1c14.4-6.2,21.1-23.3,13.2-37.3c-7.8-13.9-25.6-17.1-38.4-8.4
						C111.4,253.7,113.7,257.7,116.1,256z"/>
				</g>
			</g>
		</g>
		<g>
			<polygon points="318.6,355.5 261.9,351.7 300.6,309 257.9,347.6 254,282.5 250.1,347.6 207.4,309 246.1,351.7 189.3,355.5 
				246.1,359.4 207.4,402.1 250.1,363.5 254,428.6 257.9,363.5 300.6,402.1 261.4,359.4 			"/>
		</g>
		<g>
			<g>
				<g>
					<g>
						<path d="M312.7,493.2c9.5,4.1,18.9,8.1,28.4,12.2c0.3-7.9,0.6-15.8,0.9-23.7c-1.1-0.5-2.2-0.9-3.3-1.4
							c-9.2-4-18.5-7.9-27.7-11.9c0,0.1,0,0.3,0,0.4c0.4,6.3,0.9,12.7,1.3,19C312.4,489.6,312.6,491.4,312.7,493.2z"/>
					</g>
					<g>
						<path d="M342.6,563.3c0,0,0.1,0.1,0.1,0.1C342.6,563.3,342.6,563.3,342.6,563.3z"/>
					</g>
					<g>
						<path d="M307,465.4c-0.2-2.2-0.3-4.5-0.5-6.7c-0.8,0.8-1.7,1.5-2.6,2.1c-3.3,2.4-6.5,5-9.9,7.2c-0.1,1.7-0.1,3.4-0.2,5.2
							c-0.5,12.4-0.9,24.7-1.4,37.1c5.5-5.5,10.9-11,16.4-16.5c-0.1-1.3-0.2-2.6-0.3-3.9c-0.6-8.1-1.1-16.1-1.7-24.2
							C307,465.7,307,465.6,307,465.4z"/>
					</g>
					<g>
						<path d="M244.2,650.7c0.9-2.7,1.8-5.3,2.7-8c5.5-16.9,11-33.8,16.5-50.7c5.8-17.7,11.5-35.4,17.3-53.1
							c2.6-8.1,5.3-16.2,7.9-24.3c0.1-2,0.1-3.9,0.2-5.9c0.5-13.4,1-26.7,1.5-40.1c-1.5-0.3-3.1-0.9-4.3-1.2
							c-7.1-1.7-14.1-3.4-21.2-5.1c-2.4,8.3-4.9,16.5-7.3,24.8c-5.2,17.7-10.4,35.4-15.6,53.1c-6,20.5-12,40.9-18.1,61.4
							c-4.8,16.4-9.6,32.8-14.5,49.1H244.2z"/>
					</g>
					<g>
						<path d="M298.5,460c1.4-1,2.9-2.1,4.3-3.1c0.3-0.2,0.6-0.5,0.9-0.7c2.5-2.6,4.9-5.5,7.4-8.3c4.8-5.4,9.6-10.8,14.5-16.2
							c5.4-6.1,10.9-12.2,16.3-18.3c-12.8,2.8-25.6,5.7-38.5,8.5c-1.4,1.5-2.8,2.9-4.3,4.4c-10.6,10.9-21.1,21.7-31.7,32.6
							c8.2,2,16.3,3.9,24.5,5.9C294.1,463.1,296.3,461.5,298.5,460z"/>
					</g>
					<g>
						<path d="M314.2,450.2c-1.4,1.6-2.8,3.2-4.2,4.8c0,0,0,0.1,0,0.1c0.2,2.9,0.4,5.8,0.6,8.7c1.1,0.5,2.3,1,3.4,1.5
							c9.4,4,18.7,8,28.1,12c0.1-2,0.2-4.1,0.3-6.1c0.9-18.6,1.8-37.2,2.8-55.8c-3.5,3.9-6.9,7.8-10.4,11.7
							C328,434.8,321.1,442.5,314.2,450.2z"/>
					</g>
					<g>
						<path d="M384.3,506.8c-5.6-13.9-11.2-27.7-16.8-41.6c-5.1-12.6-10.2-25.2-15.2-37.8c-1.1-2.8-2.3-5.7-3.4-8.5
							c0,0.1,0,0.2,0,0.3c-1,20.5-2,41-3,61.5c-0.3,8.4-0.6,16.7-0.9,25.1c-0.5,13-1,26.1-1.5,39.1c-0.2,4.7-0.3,9.4-0.5,14.1
							c-0.1,1.4-0.1,2.8-0.2,4.2c0,0.1,0,0.3,0,0.4c0.3,0.6,0.6,2.4,0.7,2.6c0.6,2,1.2,4,1.8,6.1c1.8,6,3.6,12,5.4,17.9
							c2.2,7.3,4.4,14.6,6.6,21.9c0.7-1.1,1.5-2.1,2.2-3.2c9.8-14.5,19.7-29,29.5-43.5c1.6-5.7,3.1-11.5,4.7-17.2
							c0.7-2.4,1.3-4.8,2-7.2c0.2-0.9,0.4-2.6,0.9-3.5c-0.4-0.9-0.7-1.8-1.1-2.7C391.7,525.3,388,516.1,384.3,506.8z"/>
					</g>
					<g>
						<path d="M361.2,650.7c1.7-4.7,3.5-9.5,5.2-14.2c3.7-10.1,7.5-20.3,11.2-30.4c0.3-0.8,0.6-1.7,0.9-2.6c0-0.1,0.1-0.1,0.1-0.1
							c0-0.2,0.1-0.4,0.1-0.5c1.2-4.4,2.4-8.7,3.6-13.1c1.2-4.3,2.4-8.7,3.5-13c-9.2,13.5-18.4,27.1-27.6,40.6
							c-1.3,4.1-2.7,8.3-4,12.4c-2.3,7-4.5,14-6.8,21H361.2z"/>
					</g>
					<g>
						<path d="M343.6,650.7c0.1-0.4,0.3-0.8,0.4-1.2c3.6-11.1,7.1-22.1,10.7-33.2c-3-10-6-20-9.1-30c-1.7-5.5-3.3-11-5-16.4
							c-0.6-2-1.7-4.3-1.7-6.5c-0.1-7.7,0.6-15.6,0.9-23.3c0.4-10.2,0.8-20.4,1.1-30.6c-9.9-4.2-19.8-8.5-29.6-12.7
							c-6.4,6.5-12.8,12.9-19.2,19.3c0,0.1,0,0.1-0.1,0.2c-3.1,9.9-6.5,19.8-9.7,29.7c-5.9,18.1-11.8,36.1-17.7,54.2
							c-5.2,16.1-10.5,32.2-15.7,48.2l-0.7,2.1H343.6z"/>
					</g>
					<g>
						<path d="M342.7,563.6c0,0.2,0,0.3,0,0.4C342.6,564.6,342.7,564,342.7,563.6z"/>
					</g>
				</g>
				<g>
					<g>
						<path class="st0" d="M231,497.5c-0.1-0.1-0.3-0.1-0.3,0C230.7,497.5,230.9,497.5,231,497.5C231,497.5,231,497.5,231,497.5
							C231,497.5,231,497.5,231,497.5z"/>
					</g>
					<g>
						<path class="st0" d="M231.1,497.5C231.1,497.5,231.1,497.5,231.1,497.5C231.6,498,231.3,497.7,231.1,497.5z"/>
					</g>
					<g>
						<path class="st0" d="M220.7,454.8c-0.2-0.4-0.4-0.8-0.6-1.2c-2.8,3.1-5.5,6.2-8.3,9.4c1.5,7.7,3.1,15.4,4.6,23.1
							c2,1.6,4.1,3.2,6.1,4.8c2.8,2.2,5.9,4.2,8.5,6.6c0,0,0,0,0,0c0.3,0,0.6,0.1,0.7,0.1c1.8,0.2,3.6,0.3,5.4,0.5
							c1.8,0.2,3.6,0.3,5.4,0.5c-7.2-14.4-14.4-28.8-21.6-43.2C220.9,455.1,220.8,454.9,220.7,454.8z"/>
					</g>
					<g>
						<path class="st0" d="M199.5,597.7c2.3-5,4.5-10,6.8-15c0.1-0.1,0.2-0.6,0.4-0.9c-0.2-0.8-0.1-1.8-0.2-2.5
							c-1.1-11.6-2.1-23.2-3.2-34.8c-1.4-15.3-2.8-30.6-4.2-45.9c-0.7-7.6-1.4-15.2-2.1-22.7c-5-8.2-10-16.4-15.1-24.5c0,0,0,0,0,0
							c-0.4,0.1-0.7,0.3-0.9,0.7c-0.3,0.2-0.5,0.4-0.7,0.7c-3.2,3.8-6.3,7.5-9.5,11.3c-2.3,2.7-4.9,5.4-7.1,8.3
							c0.2,5.3,0.3,10.6,0.5,15.9c0.7,25.4,1.5,50.8,2.2,76.2c0.5,15.8,0.9,31.6,1.4,47.4c5.5,6.3,11.1,12.5,16.6,18.8
							c1.7-4,3.7-8,5.5-11.9C193.2,611.6,196.3,604.6,199.5,597.7z"/>
					</g>
					<g>
						<path class="st0" d="M181.7,650.7c0.5-5.5,1.1-10.9,1.6-16.4c-5.8-6.6-11.6-13.1-17.3-19.7c-7.9,4.7-15.7,9.5-23.6,14.2
							c3.4,7.3,6.8,14.5,10.3,21.8H181.7z"/>
					</g>
					<g>
						<path class="st0" d="M141.4,625.3c7.7-4.6,15.4-9.3,23.1-13.9c-0.2-5.4-0.3-10.8-0.5-16.2c-0.7-25.4-1.5-50.8-2.2-76.2
							c-0.4-13.9-0.8-27.7-1.2-41.6c-2,3.8-4,7.7-6,11.5c-1.1,2.2-2.3,4.4-3.4,6.6c-0.3,0.6-0.6,1.1-0.9,1.7c0,0,0,0,0,0
							c-0.2,1.5-0.2,3-0.3,4.5c-1.5,21.2-2.9,42.4-4.4,63.6C144.2,585.3,142.8,605.3,141.4,625.3z"/>
					</g>
					<g>
						<path class="st0" d="M209,466.1c-2.8,3.2-5.7,6.4-8.5,9.7c1.2,9.1,1.7,18.4,2.5,27.5c1.4,15.6,2.8,31.2,4.3,46.8
							c0.9,10.2,1.9,20.4,2.8,30.6c0,0.3,0,0.5,0,0.7c2.2,5.1,4.5,10.3,6.7,15.4c1.1,2.6,2.3,5.2,3.5,7.9c-0.1-2-0.2-3.9-0.4-5.9
							c-1.4-22.7-2.7-45.5-4.1-68.2c-0.9-14.4-1.7-28.7-2.6-43.1c-1.2-3.9-1.6-8.3-2.5-12.4C210.2,472.1,209.6,469.1,209,466.1z"/>
					</g>
					<g>
						<path class="st0" d="M239.7,617.6c0.1-2.1,0.2-4.2,0.2-6.3c0.4-9.6,0.8-19.1,1.1-28.7c0.9-22.8,1.8-45.7,2.7-68.5
							c0-0.5,0.4-8.2,0.5-11.9c-4.3-0.4-8.6-0.8-12.9-1.2c-1.1-0.1-1.8-0.4-2.8-1.1c-1.9-1.5-3.8-3-5.7-4.5c-2-1.6-4-3.1-6-4.7
							c0.2,3.9,0.5,7.9,0.7,11.8c1.4,22.7,2.7,45.5,4.1,68.2c0.8,14,1.7,28,2.5,42C229.3,614.5,234.5,616,239.7,617.6z"/>
					</g>
					<g>
						<path class="st0" d="M199.2,650.7c-2.7-8.8-5.4-17.7-8-26.5c-1.5,3.4-3,6.7-4.6,10.1c-0.2,1.6-0.3,3.3-0.5,4.9
							c-0.4,3.9-0.8,7.7-1.1,11.6H199.2z"/>
					</g>
					<g>
						<path class="st0" d="M217,650.7c3.1-4.5,6.2-9,9.3-13.5c3.5-5,7-9.9,10.5-14.9c0.3-0.5,0.7-1,1.2-1.5
							c-4.9-1.5-9.8-2.9-14.8-4.4c-1.1,1.8-2.2,3.5-3.4,5.3c-5.8,9.2-11.7,18.5-17.5,27.7c0.1,0.4,0.3,0.9,0.4,1.3H217z"/>
					</g>
					<g>
						<path class="st0" d="M201,645.1c0.3-0.5,0.6-0.9,0.9-1.4c6.2-9.8,12.4-19.7,18.7-29.5c-4.1-9.3-8.1-18.6-12.2-27.9
							c0,0,0,0,0,0c-2.7,5.9-5.3,11.8-8,17.7c-2.4,5.2-4.7,10.4-7.1,15.6c0.5,1.8,1.1,3.6,1.6,5.4C197,631.6,199,638.3,201,645.1z"
							/>
					</g>
					<g>
						<path class="st0" d="M213.4,440.2c-0.4-0.9-1.3-1.3-2.2-0.9c-8.2,3.4-16.4,6.8-24.7,10.2c-0.4,0.2-0.9,0.3-1.3,0.5
							c4.6,7.5,9.2,14.9,13.8,22.4c3.2-3.6,6.3-7.2,9.5-10.8c0.1-0.2,0.3-0.4,0.4-0.5c3.2-3.6,6.3-7.2,9.5-10.8
							c-1.4-2.8-2.8-5.5-4.1-8.3C214,441.4,213.7,440.8,213.4,440.2z"/>
					</g>
				</g>
			</g>
			<g>
				<g>
					<path d="M104.2,655.9c33.2,0,66.4,0,99.6,0c53,0,105.9,0,158.9,0c12.2,0,24.5,0,36.7,0c3.9,0,3.9-6,0-6c-33.2,0-66.4,0-99.6,0
						c-53,0-105.9,0-158.9,0c-12.2,0-24.5,0-36.7,0C100.3,649.9,100.3,655.9,104.2,655.9L104.2,655.9z"/>
				</g>
			</g>
		</g>
		<g>
			<path class="st0" d="M83.6,426c0,0,30.4,0.4,37.2-7.2c7.6-8.4,7.2-39.9,7.2-39.9s-0.4,31.5,7.2,39.9c6.9,7.6,37.2,7.2,37.2,7.2
				s-30.4-0.4-37.2,7.2c-7.6,8.4-7.2,39.9-7.2,39.9s0.4-31.5-7.2-39.9C113.9,425.5,83.6,426,83.6,426z"/>
		</g>
		<g>
			<path class="st0" d="M66.8,511.2c0,0,13.4,0.2,16.5-3.2c3.4-3.7,3.2-17.7,3.2-17.7s-0.2,14,3.2,17.7c3,3.4,16.5,3.2,16.5,3.2
				s-13.4-0.2-16.5,3.2c-3.4,3.7-3.2,17.7-3.2,17.7s0.2-14-3.2-17.7C80.2,511,66.8,511.2,66.8,511.2z"/>
		</g>
		<g>
			<path class="st0" d="M360.6,390.5c0,0,17.1,0.2,20.9-4c4.3-4.7,4-22.4,4-22.4s-0.2,17.7,4,22.4c3.9,4.3,20.9,4,20.9,4
				s-17.1-0.2-20.9,4c-4.3,4.7-4,22.4-4,22.4s0.2-17.7-4-22.4C377.7,390.3,360.6,390.5,360.6,390.5z"/>
		</g>
		<g>
			<path class="st0" d="M388.2,617.3c0,0,11,0.2,13.5-2.6c2.8-3.1,2.6-14.5,2.6-14.5s-0.1,11.5,2.6,14.5c2.5,2.8,13.5,2.6,13.5,2.6
				s-11-0.2-13.5,2.6c-2.8,3.1-2.6,14.5-2.6,14.5s0.1-11.5-2.6-14.5C399.2,617.1,388.2,617.3,388.2,617.3z"/>
		</g>
		<g>
			<path class="st0" d="M410.9,419.3c0,0,9,0.1,11-2.1c2.2-2.5,2.1-11.8,2.1-11.8s-0.1,9.3,2.1,11.8c2,2.3,11,2.1,11,2.1
				s-9-0.1-11,2.1c-2.2,2.5-2.1,11.8-2.1,11.8s0.1-9.3-2.1-11.8C419.8,419.1,410.9,419.3,410.9,419.3z"/>
		</g>
	</g>
</g>
</svg>
