<?xml version="1.0" encoding="utf-8"?>
<!-- Generator: Adobe Illustrator 21.1.0, SVG Export Plug-In . SVG Version: 6.00 Build 0)  -->
<svg version="1.1" xmlns="http://www.w3.org/2000/svg" xmlns:xlink="http://www.w3.org/1999/xlink" x="0px" y="0px"
	 viewBox="0 0 504 864" style="enable-background:new 0 0 504 864;" xml:space="preserve">
<g id="Слой_1">
</g>
<g id="Слой_2">
	<g>
		<path d="M503.8,18.2c-1.6-17.9-18.7-16.3-31.6-16.3c-45.9,0-91.8,0-137.6,0c-63.2,0-126.3,0-189.5,0c-40.6,0-81.2,0-121.8,0
			c-2.6,0-5.3-0.2-8,0.2c-9.5,1.2-15,9.2-15.2,18.2c-0.2,7.3,0,14.5,0,21.8c0,37.4,0,74.9,0,112.3c0,57,0,114.1,0,171.1
			c0,64.3,0,128.6,0,192.9c0,58.4,0,116.7,0,175.1c0,40.1,0,80.2,0,120.3c0,9.1,0,18.2,0,27.3c0,11.7,6.7,20.5,19.2,20.7
			c35.9,0.6,71.9,0,107.9,0c62.4,0,124.9,0,187.3,0c49.7,0,99.5,0,149.2,0c7.6,0,15.2,0,22.9,0c0.4,0,0.8-0.1,1.2-0.2
			c14.4-1.8,16.1-13.8,16.1-25.5c0-11.4,0-22.8,0-34.3c0-43.4,0-86.9,0-130.3c0-59.9,0-119.8,0-179.8c0-63.9,0-127.7,0-191.6
			c0-55.3,0-110.6,0-165.9c0-33.7,0-67.3,0-101C503.9,28.3,504.2,23.2,503.8,18.2z M486.6,852.8c-28.3,0-56.6,0-84.9,0
			c-59.9,0-119.8,0-179.7,0c-54,0-108,0-162,0c-13.1,0-26.1,0-39.2,0c-5.6,0-11-1.3-11.7-8.3c-0.2-1.5,0-3,0-4.5c0-26.5,0-53,0-79.5
			c0-50,0-100,0-149.9c0-61.8,0-123.6,0-185.4c0-61.4,0-122.7,0-184.1c0-48.9,0-97.7,0-146.6c0-24.2-0.8-48.6,0-72.7
			c0.2-5.3,1.6-10.1,8.3-10.8c2.2-0.2,4.5,0,6.7,0c14.8,0,29.6,0,44.5,0c55.6,0,111.3,0,166.9,0c58.9,0,117.8,0,176.7,0
			c18.9,0,37.9,0,56.8,0c8.1,0,24.7-3.1,25.9,8.4c0.5,5.2,0,10.8,0,16.1c0,13.5,0,27.1,0,40.6c0,45.5,0,91.1,0,136.6
			c0,60.1,0,120.2,0,180.3c0,62.6,0,125.1,0,187.7c0,52.8,0,105.6,0,158.4c0,31.4,0,62.7,0,94.1C494.8,840.3,496.9,852,486.6,852.8z
			"/>
		<path d="M460,790.9c1.2,0.1,2.4-0.7,2.4-2.2c0-23.7,0-47.4,0-71.1c0-56.4,0-112.8,0-169.2c0-68.7,0-137.4,0-206
			c0-59,0-117.9,0-176.9c0-19.6,0-39.2,0-58.8c0-8.9,1.3-19,0-27.9c-0.1-0.4,0-0.8,0-1.2c0-0.8-0.3-1.3-0.8-1.7
			c0.1-1.2-0.6-2.5-2.2-2.6c-13.1-0.5-25.3-13.8-25.8-26.7c0-0.5-0.2-0.8-0.4-1.1c-0.3-0.6-1-1.1-1.9-1.1c-40.5,0-80.9,0-121.4,0
			c-64.5,0-129,0-193.6,0c-14.9,0-29.7,0-44.6,0c-0.9,0-1.6,0.5-1.9,1.1c-0.2,0.3-0.3,0.7-0.4,1.2C69.1,59.5,57,72.8,43.9,73.3
			c-1.8,0.1-2.5,1.9-2,3.2c-0.2,0.3-0.2,0.6-0.2,1c0,23.7,0,47.4,0,71.1c0,56.4,0,112.8,0,169.2c0,68.7,0,137.4,0,206
			c0,59,0,117.9,0,176.9c0,19.6,0,39.2,0,58.8c0,8.9-1.3,19,0,27.9c0.1,0.4,0,0.8,0,1.2c0,0.9,0.5,1.6,1.1,1.9
			c0.3,0.2,0.7,0.3,1.2,0.4c13,0.5,25.3,13.3,25.8,26.2c0,0.5,0.2,0.8,0.4,1.1c0.3,0.6,1,1.1,1.9,1.1c40.5,0,80.9,0,121.4,0
			c64.5,0,129,0,193.6,0c14.9,0,29.7,0,44.6,0c0.9,0,1.6-0.5,1.9-1.1c0.2-0.3,0.3-0.7,0.4-1.2c0.5-12.9,12.7-25.7,25.8-26.2
			C459.6,791,459.8,790.9,460,790.9z M457.8,148.7c0,56.4,0,112.8,0,169.2c0,68.7,0,137.4,0,206c0,59,0,117.9,0,176.9
			c0,19.6,0,39.2,0,58.8c0,8.6-1.2,18.4-0.1,27c-14.1,1.5-26.7,14.3-28.4,28.3c-39.8,0-79.6,0-119.3,0c-64.5,0-129,0-193.6,0
			c-14.2,0-28.3,0-42.5,0c-1.7-13.9-13.9-26.5-27.8-28.3c0-23,0-46,0-69.1c0-56.4,0-112.8,0-169.2c0-68.7,0-137.4,0-206
			c0-59,0-117.9,0-176.9c0-19.6,0-39.2,0-58.8c0-8.9,1.3-19,0-27.9c-0.1-0.4,0-0.8,0-1.2c14-1.8,26.1-14.9,27.8-28.7
			c39.8,0,79.6,0,119.3,0c64.5,0,129,0,193.6,0c14.2,0,28.3,0,42.5,0c1.7,14.1,14.3,27.4,28.5,28.8
			C457.8,101.3,457.8,125,457.8,148.7z"/>
		<path d="M231.3,102.7c0.3,0,0.6,0.1,0.9,0.4c0.3,0.3,0.5,0.4,0.6,0.2c0.1-0.2,1.5-0.4,4-0.4c2.1,0,3.2,0.1,3.2,0.3
			c0,0.2,0.2,0.3,0.5,0.3c0.4,0,0.6-0.1,0.6-0.2s0.2-0.3,0.6-0.5c0.4-0.2,0.6-0.4,0.6-0.6c0-0.9-0.7-1.4-1.9-1.5l-1.3-0.1l0.1-6.7
			c0.1-4.5,0.2-6.8,0.3-7c0.1-0.1,0.2-0.8,0.3-1.9c0.1-2.1,0.4-3.2,0.7-3.2c0.2,0,0.4-0.1,0.4-0.3c0-0.2,0.2-0.3,0.7-0.3
			c0.4,0,0.8-0.1,1-0.3c0.3-0.2,0.4-0.5,0.4-0.7c0-0.3-0.2-0.6-0.5-0.8c-0.3-0.2-1.4-0.3-3.4-0.3c-2,0-2.9,0.1-2.9,0.3
			c0,0.1-0.3,0.2-0.9,0.2c-0.6,0-0.9,0.1-0.9,0.4s-0.1,0.4-0.3,0.4s-0.3,0.2-0.3,0.6c0,0.5,0.1,0.8,0.4,0.9c0.3,0.1,0.4,0.9,0.4,2.5
			c0,1.6,0.1,2.4,0.3,2.5c0.2,0.1,0.3,0.8,0.3,2.2c0,1.3-0.1,2-0.3,2.1c-0.2,0.1-0.4,1.5-0.4,4.3c-0.1,2.4-0.2,3.9-0.4,4.3
			c-0.2,0.5-0.8,0.8-1.8,0.9c-0.6,0-0.9,0.1-1,0.2c-0.1,0.1-0.2,0.4-0.2,0.8C230.9,102.4,231.1,102.7,231.3,102.7z M237.4,88
			c0.3,0,0.4,0.2,0.4,0.6c0,0.4-0.1,0.5-0.4,0.5c-0.3,0-0.4-0.2-0.4-0.5C237,88.2,237.1,88,237.4,88z M235.8,96
			c0.2,0,0.4,0.1,0.4,0.3c0,0.2-0.1,0.3-0.4,0.3c-0.3,0-0.4-0.1-0.4-0.3C235.4,96.1,235.5,96,235.8,96z"/>
		<path d="M246.3,102.7c0.3,0,0.6,0.1,0.9,0.4c0.3,0.3,0.5,0.4,0.6,0.2c0.1-0.2,1.5-0.4,4-0.4c2.1,0,3.2,0.1,3.2,0.3
			c0,0.2,0.2,0.3,0.5,0.3c0.4,0,0.6-0.1,0.6-0.2s0.2-0.3,0.6-0.5c0.4-0.2,0.6-0.4,0.6-0.6c0-0.9-0.7-1.4-1.9-1.5l-1.3-0.1l0.1-6.7
			c0.1-4.5,0.2-6.8,0.3-7c0.1-0.1,0.2-0.8,0.3-1.9c0.1-2.1,0.4-3.2,0.7-3.2c0.2,0,0.4-0.1,0.4-0.3c0-0.2,0.2-0.3,0.7-0.3
			c0.4,0,0.8-0.1,1-0.3c0.3-0.2,0.4-0.5,0.4-0.7c0-0.3-0.2-0.6-0.5-0.8c-0.3-0.2-1.4-0.3-3.4-0.3c-2,0-2.9,0.1-2.9,0.3
			c0,0.1-0.3,0.2-0.9,0.2c-0.6,0-0.9,0.1-0.9,0.4s-0.1,0.4-0.3,0.4c-0.2,0-0.3,0.2-0.3,0.6c0,0.5,0.1,0.8,0.4,0.9
			c0.3,0.1,0.4,0.9,0.4,2.5c0,1.6,0.1,2.4,0.3,2.5c0.2,0.1,0.3,0.8,0.3,2.2c0,1.3-0.1,2-0.3,2.1c-0.2,0.1-0.4,1.5-0.4,4.3
			c-0.1,2.4-0.2,3.9-0.4,4.3c-0.2,0.5-0.8,0.8-1.8,0.9c-0.6,0-0.9,0.1-1,0.2c-0.1,0.1-0.2,0.4-0.2,0.8
			C245.9,102.4,246.1,102.7,246.3,102.7z M252.4,88c0.3,0,0.4,0.2,0.4,0.6c0,0.4-0.1,0.5-0.4,0.5c-0.3,0-0.4-0.2-0.4-0.5
			C252,88.2,252.1,88,252.4,88z M250.8,96c0.2,0,0.4,0.1,0.4,0.3c0,0.2-0.1,0.3-0.4,0.3c-0.3,0-0.4-0.1-0.4-0.3
			C250.4,96.1,250.5,96,250.8,96z"/>
		<path d="M261.3,102.7c0.3,0,0.6,0.1,0.9,0.4c0.3,0.3,0.5,0.4,0.6,0.2c0.1-0.2,1.5-0.4,4-0.4c2.1,0,3.2,0.1,3.2,0.3
			c0,0.2,0.2,0.3,0.5,0.3c0.4,0,0.6-0.1,0.6-0.2s0.2-0.3,0.6-0.5c0.4-0.2,0.6-0.4,0.6-0.6c0-0.9-0.7-1.4-1.9-1.5l-1.3-0.1l0.1-6.7
			c0.1-4.5,0.2-6.8,0.3-7c0.1-0.1,0.2-0.8,0.3-1.9c0.1-2.1,0.4-3.2,0.7-3.2c0.2,0,0.4-0.1,0.4-0.3c0-0.2,0.2-0.3,0.7-0.3
			c0.4,0,0.8-0.1,1-0.3c0.3-0.2,0.4-0.5,0.4-0.7c0-0.3-0.2-0.6-0.5-0.8c-0.3-0.2-1.4-0.3-3.4-0.3c-2,0-2.9,0.1-2.9,0.3
			c0,0.1-0.3,0.2-0.9,0.2c-0.6,0-0.9,0.1-0.9,0.4s-0.1,0.4-0.3,0.4s-0.3,0.2-0.3,0.6c0,0.5,0.1,0.8,0.4,0.9c0.3,0.1,0.4,0.9,0.4,2.5
			c0,1.6,0.1,2.4,0.3,2.5c0.2,0.1,0.3,0.8,0.3,2.2c0,1.3-0.1,2-0.3,2.1c-0.2,0.1-0.4,1.5-0.4,4.3c-0.1,2.4-0.2,3.9-0.4,4.3
			c-0.2,0.5-0.8,0.8-1.8,0.9c-0.6,0-0.9,0.1-1,0.2c-0.1,0.1-0.2,0.4-0.2,0.8C261,102.4,261.1,102.7,261.3,102.7z M267.4,88
			c0.3,0,0.4,0.2,0.4,0.6c0,0.4-0.1,0.5-0.4,0.5c-0.3,0-0.4-0.2-0.4-0.5C267,88.2,267.1,88,267.4,88z M265.8,96
			c0.2,0,0.4,0.1,0.4,0.3c0,0.2-0.1,0.3-0.4,0.3c-0.3,0-0.4-0.1-0.4-0.3C265.4,96.1,265.5,96,265.8,96z"/>
		<path d="M130.2,785.3c0.1,0,0.2-0.2,0.2-0.5c0-0.2,0-0.4-0.1-0.4c-0.1,0-0.1-0.1-0.1-0.3c0-0.2,0.1-0.4,0.2-0.6
			c0.1-0.3,0.1-0.5-0.2-0.6c-0.2-0.2-0.5-0.3-0.9-0.3c-0.5,0-0.8,0.1-1.1,0.4c-0.3,0.2-0.4,0.3-0.5,0.2c-0.1-0.1-0.4-0.1-0.8,0
			c-0.5,0.1-1.4,0.2-2.6,0.2c-0.9,0-1.4,0-1.5-0.1c-0.1-0.1-0.2,0-0.4,0.2c-0.1,0.1-0.3,0.2-0.4,0.2c-0.2,0-0.4,0-0.7-0.1
			c-0.7-0.2-1.1-0.2-1.3-0.2c-0.1,0-0.2,0-0.2,0c-0.1,0-0.3,0.1-0.4,0.3c-0.1,0.2-0.2,0.4-0.2,0.5c0,0.1,0,0.1,0.1,0.2
			c0,0,0.1,0.2,0.1,0.5c0,0.1,0,0.2-0.1,0.3c-0.1,0-0.2,0.1-0.3,0.1c-0.3,0-0.5,0.1-0.5,0.3c0,0,0,0.1,0.1,0.2
			c0.1,0.1,0.1,0.3,0.1,0.6c0,0.3-0.1,0.4-0.1,0.5c0,0.5,0.2,0.8,0.6,0.8c0.3,0,0.4-0.1,0.4-0.2c0-0.1,0.1-0.2,0.2-0.2
			c0.1,0,0.1,0,0.2-0.1c0,0,0-0.1,0-0.2c0-0.1-0.1-0.2-0.2-0.2c-0.1-0.1-0.1-0.1-0.1-0.2c0,0,0-0.1,0-0.1c0,0,0-0.1,0.1-0.1
			c0,0,0.1,0,0.2-0.1c0.2-0.1,0.2-0.2,0.2-0.3c0,0,0-0.1,0-0.2c0-0.1,0-0.1,0-0.2c0-0.1,0-0.2,0.1-0.2c0.1-0.1,0.1-0.3,0-0.6
			c-0.1-0.3-0.1-0.4,0-0.4c0.1,0,0.1,0.1,0.1,0.2c0,0.1,0.2,0.2,0.5,0.4c0.4,0.1,0.7,0.2,1.1,0.2c0.4,0,0.7,0.1,0.8,0.3
			c0.2,0.2,0.3,0.2,0.5,0.2c0.1,0,0.1,0,0.1,0c0.1,0,0.1,0,0,0.1c-0.3,0.3-0.4,2.2-0.5,5.8c0,0.8-0.1,1.2-0.3,1.4
			c-0.2,0.1-0.3,0.3-0.3,0.4c0,0.1-0.3,0.2-0.8,0.2l-0.7,0.1l-0.1,0.5c0,0,0,0.1,0,0.1s0,0.1,0,0.1c0,0.2,0.1,0.4,0.4,0.7
			c0.3,0.3,0.5,0.4,0.7,0.4c0.1,0,0.1,0,0.1-0.1s0-0.1-0.1-0.1c-0.1,0-0.1,0-0.1-0.1c0-0.1,0.2-0.1,0.5-0.1c0.1,0,0.4,0,0.8,0
			c0.4,0,0.7,0,0.9,0c0.6,0,0.9-0.1,1.1-0.2c0.1-0.1,0.3-0.2,0.6-0.1c0.2,0.1,0.3,0,0.4-0.1c0.1-0.1,0.2-0.1,0.3-0.1
			c0.1,0,0.3-0.1,0.5-0.2c0.1-0.1,0.2-0.2,0.2-0.3c0-0.1-0.1-0.2-0.2-0.5c-0.2-0.3-0.3-0.4-0.5-0.4c-0.1,0-0.2-0.1-0.2-0.2
			c0-0.1-0.1-0.2-0.3-0.1c0,0-0.1,0-0.1,0c-0.1,0-0.1,0-0.1,0c-0.1,0-0.2,0-0.3-0.1c0-0.1-0.1-0.3-0.1-0.5v-0.4c0-0.5,0-0.8,0-0.9
			c0-0.1,0.1-0.2,0.2-0.2c0.2,0,0.2-0.1,0.2-0.4c0-0.3-0.1-0.5-0.2-0.5c-0.1,0-0.2-0.4-0.2-1.1c0-0.8,0.1-1.2,0.2-1.4
			c0.1-0.1,0.2-0.5,0.2-1.2c0-0.7,0.1-1,0.1-1.1c0.1-0.2,0.5-0.2,1.2-0.2c1,0,1.5,0.1,1.6,0.4c0,0.1,0.1,0.2,0.4,0.5
			c0.2,0.2,0.3,0.4,0.3,0.8c0,0.3,0.1,0.5,0.1,0.5c0,0.1,0.2,0.1,0.4,0.1c0.2,0,0.4,0,0.4-0.1c0-0.1,0.1-0.2,0.3-0.2
			c0.2-0.1,0.3-0.2,0.3-0.4c0-0.2-0.1-0.4-0.2-0.5C130.1,785.4,130.1,785.3,130.2,785.3z"/>
		<path d="M150.9,782.6c-0.2-0.1-0.5-0.1-0.8-0.1c-0.1,0-0.2,0-0.5,0.1c-0.3,0.1-0.5,0.1-0.7,0.1h-0.1h-0.2c-0.2,0-0.5,0-1,0.1
			c-0.4,0-0.7,0.1-0.8,0.1c-0.1,0-0.2,0.1-0.2,0.2c0,0.2,0,0.3-0.1,0.3c-0.1,0-0.1,0-0.1,0.1c0,0.1,0,0.2,0,0.3
			c0,0.1,0.1,0.2,0.2,0.2c0.1,0.1,0.2,0.5,0.2,1.3c0,0.8,0.1,1.2,0.2,1.2c0.1,0,0.1,0.3,0.1,0.8v0.8h-1.3c-0.8,0-1.7,0-2.7-0.1
			l-1.4-0.1v-0.7c0-0.5,0-0.7,0.1-0.7c0.1,0,0.1-0.3,0.2-0.9c0-1.1,0.1-1.6,0.4-1.6c0.1,0,0.2,0,0.2-0.1c0-0.1,0.1-0.2,0.4-0.2
			c0.2,0,0.4-0.1,0.5-0.2c0.1-0.1,0.2-0.2,0.2-0.4c0-0.2-0.1-0.3-0.2-0.4c-0.2-0.1-0.5-0.2-1-0.2c-0.3,0-0.4,0-0.5,0.1
			c0,0-0.5,0.1-1.3,0.1c-0.9,0.1-1.7,0.2-2.4,0.5c-0.1,0-0.2,0.1-0.2,0.2c0,0.1,0.2,0.2,0.6,0.4l0.6,0.3l0,0.8v0.9v0.3
			c0,0.2,0,0.4,0.1,0.4c0.1,0.1,0.2,0.5,0.2,1.1c0,0.6-0.1,1.1-0.2,1.4c-0.1,0.3-0.2,0.6-0.2,0.8c0,0,0,0,0,0.1c0,0,0,0.1,0,0.1
			c0,0.2,0.1,0.4,0.1,0.6c0,0.5,0,1.1-0.1,1.8c-0.1,0.6-0.2,1-0.2,1.2c-0.1,0.2-0.4,0.3-0.8,0.3c-0.3,0-0.5,0.1-0.6,0.1
			c-0.1,0.1-0.1,0.2-0.1,0.4v0.5l0.7-0.1c0.3-0.1,1-0.1,2.2-0.1h0.7h0.7c1,0,1.6,0,1.6-0.1c0-0.1-0.1-0.3-0.2-0.5
			c-0.2-0.2-0.3-0.3-0.4-0.3h-0.1c-0.2,0.1-0.4,0.1-0.6-0.1c-0.1-0.1-0.2-0.1-0.3-0.2c0-0.1-0.1-0.2-0.1-0.4c0-0.3,0-0.5,0-0.8
			c0-0.9,0.1-1.6,0.1-2.1v-0.8h4.9l0.1,0.4c0,0.2,0.1,0.5,0.1,0.7c0,0.5,0,1.1-0.1,1.7c-0.1,0.6-0.2,1-0.3,1
			c-0.1,0.1-0.4,0.2-0.8,0.3c-0.3,0-0.5,0.1-0.5,0.1c-0.1,0.1-0.1,0.2-0.1,0.4c0,0.3,0.1,0.5,0.3,0.5c0.3,0.1,1.3,0.1,3.1,0.1
			c1.3,0,2,0,2.1-0.1c0.2-0.1,0.3-0.2,0.3-0.4c0-0.2-0.1-0.3-0.2-0.5c-0.1-0.2-0.3-0.2-0.4-0.2c0,0-0.1,0-0.1,0
			c-0.1,0.1-0.3,0.1-0.5,0l-0.4-0.1l0.1-3.5c0-2.3,0.1-3.5,0.2-3.6c0.1,0,0.1-0.3,0.1-0.9c0.1-1.1,0.2-1.6,0.4-1.6
			c0.1,0,0.2,0,0.2-0.1c0-0.1,0.1-0.2,0.4-0.2c0.2,0,0.4-0.1,0.5-0.2c0.2-0.1,0.2-0.3,0.2-0.4C151.2,782.8,151.1,782.7,150.9,782.6z
			 M140,791.5c-0.2-0.1-0.3-0.1-0.3-0.2c0-0.1,0-0.1,0.1-0.1c0.2,0,0.3,0.1,0.4,0.2c0,0,0,0,0,0.1
			C140.3,791.6,140.2,791.6,140,791.5z M140.7,791.5c-0.1,0-0.1-0.1-0.1-0.2c0-0.1,0-0.2,0.1-0.2c0.1,0,0.2,0.1,0.2,0.2
			C140.9,791.4,140.8,791.5,140.7,791.5z M140.7,787.8c-0.1,0-0.2-0.1-0.2-0.3c0-0.3,0.1-0.4,0.2-0.4c0.2,0,0.2,0.1,0.2,0.3
			C140.9,787.7,140.8,787.8,140.7,787.8z M147.8,791.5c-0.1,0.1-0.2,0.1-0.4,0c-0.2-0.1-0.3-0.1-0.3-0.2c0-0.1,0.1-0.1,0.2-0.1
			c0.3,0,0.5,0.1,0.5,0.2C147.9,791.5,147.9,791.5,147.8,791.5z M148.2,791.5c-0.1,0-0.2-0.1-0.2-0.2c0-0.1,0.1-0.2,0.2-0.2
			c0.1,0,0.1,0.1,0.1,0.2C148.4,791.4,148.3,791.5,148.2,791.5z M148.2,787.8c-0.1,0-0.2-0.1-0.2-0.3c0-0.3,0.1-0.4,0.2-0.4
			c0.1,0,0.2,0.1,0.2,0.3C148.4,787.7,148.3,787.8,148.2,787.8z"/>
		<path d="M160.2,779.4c0-0.1-0.1-0.1-0.3-0.1s-0.3,0-0.3,0.1c0,0.1,0.1,0.2,0.3,0.2S160.2,779.5,160.2,779.4z"/>
		<path d="M171.5,792.7c-0.1,0-0.2-0.1-0.3-0.4c-0.1-0.2-0.3-0.4-0.5-0.4c-0.2,0-0.4-0.1-0.6-0.2c-0.2-0.1-0.4-0.2-0.4-0.4
			c-0.1-0.1-0.1-0.2-0.3-0.2c-0.1,0-0.3-0.1-0.6-0.4c-0.2-0.3-0.4-0.6-0.6-0.9c-0.1-0.3-0.4-0.6-0.8-1.1c-0.4-0.5-0.7-0.7-0.8-0.7
			c-0.1,0-0.2-0.1-0.4-0.3c-0.1-0.1-0.2-0.2-0.1-0.3c0,0,0.1-0.1,0.3-0.2c0.8-0.3,1.2-0.6,1.2-0.9c0-0.5,0.1-0.7,0.3-0.7
			c0.1,0,0.2-0.1,0.4-0.2c0.2-0.2,0.2-0.7,0.2-1.5c0-1-0.1-1.5-0.3-1.7c-0.1-0.1-0.2-0.2-0.4-0.2c-0.1,0-0.2,0-0.2-0.1
			c0-0.1-0.1-0.2-0.4-0.3c-0.3-0.1-0.4-0.3-0.5-0.5l-0.2-0.3c-0.1-0.1-0.2-0.1-0.2,0.1c0,0.1-0.3,0.1-0.8,0.1c-0.6,0-0.9,0-0.9-0.1
			c0-0.1-0.1-0.1-0.4-0.1s-0.5-0.1-0.6-0.3c-0.2-0.2-0.3-0.3-0.4-0.3s-0.2,0.1-0.1,0.3c0,0,0,0,0,0.1v0.1c0,0.1-0.6,0.2-1.8,0.2
			h-1.9l-0.5,0.5c-0.3,0.3-0.5,0.6-0.5,0.7c0,0.1,0.2,0.2,0.5,0.3c0.3,0.1,0.5,0.1,0.5,0.2c0,0.1,0,0.1,0.1,0.1
			c0.2,0,0.4,0.2,0.6,0.5c0.2,0.3,0.3,0.7,0.3,1.2c0,0.4,0.1,0.6,0.1,0.6c0,0.2-0.1,0.4-0.2,0.5c-0.2,0.1-0.2,0.2-0.1,0.3
			c0.1,0.1,0.2,0.3,0.2,0.7c0,0.3-0.1,0.5-0.2,0.5c-0.1,0-0.2,0,0,0.1c0.1,0.1,0.2,0.2,0.2,0.4c0,0.2-0.1,0.4-0.2,0.5
			c-0.1,0.1-0.1,0.3,0.1,0.4c0.1,0.1,0.2,0.3,0.2,0.4c0,0.1-0.1,0.3-0.2,0.4c-0.2,0.2-0.3,0.7-0.3,1.6c0,0.7,0,1.1-0.1,1.2
			c0,0.1-0.1,0.2-0.3,0.3c-0.2,0.1-0.3,0.1-0.3,0.2c0,0.1-0.3,0.1-0.8,0.1c-0.4,0-0.6,0.1-0.7,0.1c-0.1,0.1-0.1,0.2-0.1,0.5
			c0,0.2,0.2,0.5,0.6,0.8c0.2,0.1,0.3,0.2,0.5,0.2c0.2,0,0.3-0.1,0.3-0.2c0.1-0.1,0.8-0.2,2.1-0.2c1.3,0,2.1-0.1,2.2-0.3
			c0.1-0.1,0.2-0.2,0.3-0.2c0.1,0,0.2-0.1,0.2-0.2c0-0.1-0.1-0.2-0.4-0.2c-0.3,0-0.4-0.1-0.5-0.3c0-0.2-0.2-0.3-0.5-0.4
			c-0.4-0.1-0.5-0.2-0.5-0.4c0-0.1,0-0.2,0.1-0.3c0.2-0.2,0.2-0.3,0.1-0.4c-0.1,0-0.2-0.6-0.2-1.6c0-0.3,0-0.6,0-1
			c0-0.3,0-0.4,0.1-0.5c0-0.1,0.1-0.1,0.2-0.1c0.5,0,1,0.2,1.5,0.5c0.5,0.4,0.8,0.7,0.8,1c0,0.2,0.1,0.3,0.2,0.3s0.2,0.1,0.2,0.4
			c0,0.5,0.3,0.8,0.8,1c0.2,0.1,0.4,0.3,0.5,0.7c0.1,0.4,0.3,0.8,0.7,1.2l0.6,0.7l0.9-0.1c0.1,0,0.3,0,0.6-0.1c0.3,0,0.6,0,0.8-0.1
			c0.2,0,0.4-0.1,0.7-0.1c0.3-0.1,0.4-0.1,0.6-0.2c0.1-0.1,0.2-0.2,0.2-0.3C171.6,792.8,171.6,792.7,171.5,792.7z M165.8,785.9
			c-0.1,0-0.2,0-0.2,0.1c-0.1,0-0.1,0,0,0.1c0.2,0,0.2,0.1,0.2,0.2c0,0.1-0.1,0.3-0.4,0.4c-0.2,0.2-0.5,0.3-0.7,0.3
			c-0.3,0-0.6,0.1-1.1,0.2c-0.1,0-0.2,0-0.3,0c-0.2,0-0.4-0.1-0.7-0.3c-0.2-0.2-0.3-0.3-0.4-0.3c0-0.1,0-0.1,0.1-0.2
			c0.1-0.1,0.2-0.7,0.2-1.6v-1.2c0-0.3,0.1-0.5,0.2-0.7c0.1-0.2,0.3-0.4,0.4-0.4h0.1l0.4,0.1c0.3,0,0.5,0.1,0.8,0.1
			c0.2,0.1,0.4,0.1,0.4,0.1c0,0.1,0.1,0.1,0.4,0.2c0.3,0.1,0.4,0.2,0.4,0.3c0,0.1,0.1,0.3,0.2,0.4c0.1,0.1,0.2,0.2,0.1,0.3
			c-0.1,0.1-0.1,0.3,0.1,0.6c0.1,0.2,0.2,0.5,0.2,0.8v0.1c0,0.2-0.1,0.4-0.1,0.4S166.1,785.9,165.8,785.9z"/>
		<path d="M164.6,780.4C164.7,780.3,164.7,780.3,164.6,780.4c0.1-0.1,0-0.1-0.2-0.1c-0.2,0-0.3,0.1-0.3,0.2
			C164.2,780.5,164.3,780.5,164.6,780.4C164.5,780.4,164.6,780.4,164.6,780.4z"/>
		<path d="M178.7,792.2c0.1,0,0.1-0.1,0.2-0.1c0.1-0.2,0.1-0.3-0.1-0.3c-0.1,0-0.2,0.1-0.2,0.2C178.6,792.1,178.6,792.2,178.7,792.2
			z"/>
		<path d="M189.4,790.2c-0.1,0-0.3,0.2-0.5,0.5c-0.3,0.4-0.4,0.6-0.4,0.7c0,0.1-0.1,0.2-0.4,0.2c-0.2,0-0.3,0.1-0.3,0.1
			c0,0,0,0.1,0,0.3v0.2c0,0.2-0.1,0.3-0.4,0.3c0,0-0.1,0-0.2,0c-0.1,0-0.1,0-0.2,0c-0.2,0-0.4,0.1-0.7,0.4c-0.2,0.2-0.4,0.3-0.6,0.3
			c-0.1,0-0.2-0.1-0.2-0.2c-0.1-0.1-0.2-0.1-0.4,0c-0.2,0.1-0.6,0.2-1.2,0.2c-0.5,0-0.7,0-0.7-0.1c0-0.1-0.1-0.1-0.2-0.1
			c-0.1,0-0.1-0.1-0.2-0.2c-0.1-0.2-0.1-0.3-0.1-0.5c0,0,0-0.6,0.1-1.8c0-1.2,0.1-1.8,0.1-1.8c0-0.1,0.5-0.1,1.4-0.1
			c0.8,0,1.3,0.1,1.5,0.2c0.3,0.1,0.4,0.4,0.4,0.8c0,0.2,0,0.3,0.1,0.3c0,0,0.1,0,0.2,0c0.2-0.1,0.4-0.1,0.6-0.1h0.1
			c0.2,0,0.3-0.2,0.3-0.6c0-0.1,0-0.2,0-0.3s0-0.3,0-0.4v-0.3c0-0.4,0-0.6,0.1-0.6c0.1-0.1,0.1-0.3,0-0.4c-0.1-0.1-0.1-0.3,0.1-0.4
			c0.2-0.1,0.2-0.2,0.2-0.4c0-0.3-0.4-0.4-1.1-0.4c-0.4,0-0.6,0.2-0.6,0.5c0,0.1,0,0.2,0.1,0.3c0.1,0.2,0,0.3-0.1,0.5
			c-0.1,0.1-0.4,0.2-0.9,0.3c-0.6,0.1-1.1,0.2-1.6,0.2h-0.6V787c0-0.4,0.1-0.6,0.2-0.6c0.1,0,0.2-0.1,0.2-0.4c0-0.3-0.1-0.6-0.2-0.9
			c-0.1-0.2-0.2-0.4-0.2-0.4c0-0.1,0.1-0.1,0.2-0.3c0.2-0.2,0.3-0.3,0.2-0.5c0,0,0-0.1,0-0.2c0-0.2,0.1-0.3,0.4-0.4
			c0.3-0.1,0.8-0.1,1.5-0.2c0.6,0,1-0.1,1.1-0.1c0.4,0,0.6,0.1,0.7,0.2c0.2,0.2,0.3,0.3,0.5,0.4c0.2,0.1,0.3,0.2,0.3,0.3
			c0,0.1,0.1,0.2,0.4,0.4c0.2,0.1,0.4,0.3,0.4,0.3c0,0.2,0.1,0.3,0.3,0.5c0.2,0.2,0.4,0.3,0.6,0.3h0.1c0.3,0,0.4-0.2,0.4-0.7
			c0-0.2-0.1-0.4-0.2-0.5c-0.1-0.2-0.2-0.4-0.2-0.6c0-0.3-0.1-0.5-0.2-0.5c-0.1-0.1-0.1-0.2,0-0.4c0.1-0.1,0.1-0.2,0.1-0.3
			c0-0.1-0.1-0.1-0.2-0.2c-0.1-0.1-0.2-0.2-0.2-0.3c0-0.1-0.1-0.3-0.3-0.5c-0.1-0.1-0.2-0.2-0.3-0.2c-0.1,0-0.2,0-0.3,0.1
			c-0.2,0.1-1.9,0.3-5,0.4h-0.7c-1.5,0-2.3-0.1-2.4-0.3c0-0.1-0.1-0.1-0.3-0.1c-0.1,0-0.2,0-0.2,0.1c0,0.1-0.1,0.2-0.1,0.3
			c0,0.2,0,0.3,0,0.3c0,0.2-0.1,0.3-0.3,0.4c-0.2,0-0.3,0.2-0.2,0.5c0.1,0.2,0.1,0.4,0.2,0.5c0.1,0.1,0.2,0.1,0.3,0.1
			c0.1,0,0.3,0,0.4,0c0.1,0,0.1,0,0.2,0c0.1,0,0.1,0,0.2,0c0.4,0,0.6,0.1,0.7,0.4c0.1,0.2,0.1,0.8,0.1,1.5c0,0.9-0.1,1.4-0.2,1.5
			c-0.1,0-0.1,0.2,0,0.4c0.1,0.3,0.1,0.5,0,0.7c-0.1,0.2-0.2,0.3-0.3,0.3c-0.1,0-0.1,0.1,0.1,0.2c0.1,0.1,0.1,0.3,0.1,0.6
			c0,0.3-0.1,1.3-0.2,3l-0.1,1h-0.6c-0.4,0-0.6,0.1-0.7,0.3c-0.1,0.2-0.2,0.3-0.3,0.3c-0.2,0-0.2,0.1-0.2,0.4c0,0.3,0.1,0.5,0.3,0.6
			c0.2,0.1,0.3,0.3,0.3,0.4c0,0.1,0.1,0.2,0.3,0.2s0.5,0,0.8-0.1s0.5-0.2,0.6-0.2c0.2-0.1,0.6-0.2,1.2-0.2c0.1,0,0.6,0,1.5,0.1
			c0.8,0,1.2,0.1,1.2,0.2c0.1,0.1,0.2,0.1,0.4,0c0.3-0.1,0.8-0.2,1.6-0.2c0.9,0,1.4,0,1.6-0.1c0.2,0,0.3-0.1,0.5-0.2
			c0.2-0.2,0.3-0.4,0.2-0.6c-0.1-0.2,0-0.4,0.2-0.4c0.1-0.1,0.2-0.4,0.2-0.8c0-0.3,0-0.5,0.1-0.6c0-0.1,0.1-0.1,0.2-0.1
			c0.2,0,0.3-0.2,0.3-0.5c0-0.3-0.1-0.5-0.2-0.7C189.7,790.3,189.6,790.2,189.4,790.2z"/>
		<path d="M207.2,790.2c-0.1,0-0.3,0.2-0.5,0.5c-0.3,0.3-0.4,0.6-0.4,0.7c0,0.1-0.1,0.2-0.4,0.2c-0.1,0-0.2,0-0.3,0.1
			c0,0-0.1,0.1-0.1,0.1c0,0,0,0.1,0,0.3c0,0.2-0.1,0.3-0.4,0.3c0,0-0.1,0-0.1,0c-0.1,0-0.1,0-0.2,0c-0.2,0-0.4,0.1-0.6,0.3
			c-0.2,0.2-0.4,0.3-0.6,0.3c-0.1,0-0.2-0.1-0.2-0.2c0-0.1-0.1-0.1-0.4,0c-0.2,0.1-0.6,0.2-1.2,0.2c-0.5,0-0.7,0-0.7-0.1
			c0-0.1-0.1-0.1-0.2-0.1c-0.1,0-0.1-0.1-0.2-0.2c-0.1-0.2-0.1-0.3-0.1-0.4c0-0.1,0-0.2,0-0.3c0-0.2,0-0.4,0-0.6c0-0.3,0-0.5,0-0.8
			c0-0.3,0-0.5,0-0.8c0-0.3,0-0.5,0-0.6v-0.2c0-0.1,0.4-0.1,1.3-0.1c0.7,0,1.2,0.1,1.4,0.2c0.2,0.1,0.4,0.4,0.4,0.8
			c0,0.2,0,0.3,0.1,0.3c0,0,0.1,0,0.2,0c0.1-0.1,0.3-0.1,0.5-0.1c0.1,0,0.2,0,0.3-0.1c0-0.1,0.1-0.2,0.1-0.5c0-0.1,0-0.2,0-0.3
			c0-0.2,0-0.3,0-0.4v-0.2c0-0.3,0-0.6,0.1-0.7c0.1-0.1,0.1-0.3,0-0.4c-0.1-0.1-0.1-0.3,0.1-0.4c0.1-0.1,0.2-0.2,0.2-0.4
			c0-0.3-0.3-0.4-1-0.4c-0.4,0-0.6,0.2-0.6,0.5c0,0.1,0,0.2,0.1,0.3c0,0.2,0,0.4,0,0.5c-0.1,0.1-0.3,0.2-0.9,0.3
			c-0.5,0.1-1,0.1-1.5,0.1h-0.6v-0.6c0-0.4,0.1-0.6,0.2-0.6c0.1,0,0.2-0.1,0.2-0.4c0-0.3-0.1-0.5-0.2-0.9c-0.1-0.2-0.2-0.4-0.1-0.4
			c0-0.1,0.1-0.1,0.2-0.3c0.2-0.1,0.3-0.3,0.2-0.5c0,0,0-0.1,0-0.2c0-0.1,0.1-0.3,0.4-0.3c0.3-0.1,0.7-0.1,1.5-0.2
			c0.7,0,1.1-0.1,1.1-0.1c0.3,0,0.5,0.1,0.6,0.2c0.1,0.2,0.3,0.3,0.5,0.4c0.2,0.1,0.3,0.2,0.3,0.3c0,0.1,0.1,0.2,0.3,0.3
			c0.2,0.1,0.3,0.2,0.3,0.3c0,0.2,0.1,0.3,0.3,0.5c0.2,0.2,0.4,0.2,0.6,0.2h0c0.3,0,0.4-0.2,0.4-0.6c0-0.2-0.1-0.3-0.2-0.5
			c-0.1-0.1-0.2-0.3-0.2-0.5c0-0.3-0.1-0.5-0.2-0.5c-0.1,0-0.1-0.1,0-0.4c0.1-0.1,0.1-0.2,0.1-0.3c0,0-0.1-0.1-0.1-0.1
			c-0.1-0.1-0.2-0.2-0.2-0.3c0-0.1-0.1-0.3-0.3-0.5c-0.2-0.2-0.4-0.3-0.6-0.1c-0.3,0.1-1.8,0.3-4.7,0.4h-0.7c-1.5,0-2.2-0.1-2.3-0.3
			c0-0.1-0.1-0.1-0.2-0.1c-0.1,0-0.2,0-0.2,0.1l0,0.1c0,0.1,0,0.1,0,0.1c0,0,0,0.1,0,0.2c0,0.1,0,0.2,0,0.2c0,0.2-0.1,0.3-0.3,0.3
			c-0.2,0.1-0.3,0.2-0.2,0.5c0.1,0.2,0.1,0.4,0.2,0.5c0.1,0.1,0.2,0.1,0.3,0.1c0.1,0,0.3,0,0.4,0c0.1,0,0.2,0,0.4,0
			c0.3,0,0.5,0.1,0.6,0.4c0.1,0.2,0.1,0.7,0.1,1.4c0,0.9-0.1,1.4-0.2,1.4c-0.1,0-0.1,0.2,0,0.4c0.1,0.2,0.1,0.4,0,0.6
			c-0.1,0.2-0.2,0.3-0.3,0.3c-0.1,0-0.1,0.1,0.1,0.2c0.1,0.1,0.1,0.3,0.1,0.6c0,0.5-0.1,1.5-0.2,2.8l-0.1,0.9h-0.6
			c-0.4,0-0.6,0.1-0.6,0.3c0,0.2-0.1,0.3-0.3,0.3c-0.1,0-0.2,0.1-0.2,0.3c0,0.3,0.1,0.5,0.3,0.6c0.2,0.1,0.3,0.2,0.3,0.4
			c0,0.1,0.2,0.1,0.7,0.1c0.5,0,0.8-0.1,0.9-0.3c0.1-0.1,0.5-0.2,1.2-0.2c0.5,0,0.9,0,1.3,0c0.7,0,1.1,0.1,1.2,0.2
			c0,0.1,0.2,0.1,0.4,0c0.2-0.1,0.7-0.2,1.5-0.2c0.8,0,1.3,0,1.5-0.1c0.2,0,0.3-0.1,0.5-0.3c0.2-0.2,0.3-0.3,0.2-0.5
			c0-0.2,0-0.3,0.1-0.4c0.1-0.1,0.2-0.3,0.2-0.8c0-0.3,0-0.5,0-0.6c0-0.1,0.1-0.1,0.2-0.1c0.2,0,0.3-0.2,0.3-0.5
			c0-0.2-0.1-0.4-0.2-0.6C207.5,790.3,207.4,790.2,207.2,790.2z"/>
		<path d="M196.9,791.9c0,0.1,0,0.2,0.1,0.2c0,0,0.1,0,0.1-0.1c0.1-0.2,0.1-0.3,0-0.3C197,791.7,196.9,791.8,196.9,791.9z"/>
		<path d="M239.1,785.7c-0.2-0.1-0.2-0.2-0.2-0.5c0-0.3,0-0.5-0.1-0.5c-0.1,0-0.1-0.1-0.1-0.4c0-0.3-0.1-0.4-0.2-0.4
			c-0.1,0-0.2-0.1-0.3-0.3c-0.1-0.2-0.2-0.3-0.3-0.4c-0.1-0.1-0.2-0.2-0.2-0.4c0-0.2-0.1-0.3-0.4-0.3c-0.7,0-1-0.1-1-0.4
			c0-0.1-0.1-0.2-0.2-0.2c-0.1,0-0.2,0-0.2-0.1s-0.1-0.1-0.3-0.1c-0.2,0-0.3-0.1-0.4-0.2c0-0.1-0.5-0.2-1.5-0.2
			c-0.9,0-1.5,0.1-1.6,0.2c-0.1,0.1-0.2,0.2-0.4,0.2c-0.2,0-0.3,0.1-0.4,0.3c-0.1,0.2-0.3,0.4-0.6,0.4c-0.3,0-0.6,0.1-1.1,0.2
			c-0.5,0.1-0.7,0.3-0.8,0.5c0,0.2-0.2,0.4-0.5,0.7s-0.4,0.5-0.4,0.5c0,0.1-0.1,0.1-0.2,0.1c-0.1,0-0.2,0.1-0.3,0.4
			c-0.1,0.2-0.2,0.5-0.3,0.7c-0.2,0.3-0.2,0.8-0.2,1.8c0,1.2,0.1,2.1,0.4,2.9c0.5,1.4,0.9,2.2,1.2,2.3c0.2,0,0.3,0.1,0.3,0.3
			c0,0.2,0.2,0.2,0.4,0.2c0.2,0,0.4,0,0.4,0.1c0,0.1,0.1,0.1,0.3,0.1s0.3,0.1,0.3,0.4c0,0.2,0,0.3,0.1,0.4c0.1,0.1,0.2,0,0.4-0.1
			c0.1-0.1,0.2-0.1,0.3,0c0.2,0.1,0.9,0.2,2.2,0.2c1.1,0,1.7-0.1,1.7-0.2c0-0.1,0.3-0.2,0.7-0.2c0.4,0,0.6-0.1,0.6-0.2
			c0-0.2,0.1-0.3,0.2-0.3c0,0,0.2-0.1,0.4-0.3c0.3-0.2,0.4-0.3,0.5-0.3c0.1,0,0.2-0.1,0.2-0.3c0.1-0.2,0.2-0.3,0.3-0.3
			c0.1,0,0.2-0.1,0.3-0.3c0-0.2,0.2-0.3,0.4-0.3c0.2-0.1,0.3-0.1,0.3-0.2c0-0.1,0.1-0.1,0.2-0.1c0.1,0,0.2-0.2,0.2-0.6
			c0-0.3,0-0.5-0.1-0.5c-0.1,0-0.1-0.1,0-0.2c0.1-0.1,0.2-0.8,0.2-2.1c0-0.3,0-0.7,0-1.1C239.4,786,239.3,785.7,239.1,785.7z
			 M237,788.8c-0.1,0-0.2,0.2-0.2,0.4c0,0.3-0.1,0.4-0.2,0.5c-0.1,0.1-0.2,0.4-0.3,0.8c-0.1,0.4-0.1,0.6-0.3,0.6
			c-0.1,0-0.2,0-0.2,0.1c0,0.1-0.1,0.2-0.4,0.2c-0.3,0.1-0.4,0.2-0.4,0.3c0,0.1,0,0.2-0.1,0.2c-0.1,0.1-0.2,0.1-0.4,0.2
			c-0.1,0.1-0.2,0.1-0.3,0.1c0,0.1-0.2,0.1-0.4,0.1c-0.2,0-0.3,0.1-0.5,0.2c-0.1,0.1-0.2,0.1-0.4,0.1c-0.2,0-0.4,0-0.7-0.1
			c-0.5-0.1-1-0.3-1.3-0.6c-0.3-0.3-0.7-0.8-1-1.5c-0.3-0.5-0.4-0.9-0.5-1.1c0-0.2-0.1-0.7-0.1-1.4c0-0.7,0-1.1,0.1-1.4
			c0-0.2,0.1-0.5,0.3-0.8c0.3-0.5,0.6-0.9,1-1.3c0.4-0.4,0.8-0.6,1-0.7c0.3,0,0.5-0.1,0.5-0.3c0-0.1,0.1-0.2,0.2-0.2
			c0.1,0,0.2,0,0.2-0.1c0-0.1,0.1-0.1,0.3-0.1c0.2,0,0.3,0,0.3,0.1c0,0.1,0.3,0.1,0.9,0.1c0.5,0,0.8,0.1,0.8,0.2
			c0,0.1,0.1,0.2,0.3,0.3c0.2,0.1,0.3,0.2,0.3,0.3c0,0.1,0.1,0.2,0.3,0.3c0.3,0.1,0.5,0.4,0.5,0.8c0,0.2,0.1,0.5,0.3,0.8
			c0.2,0.3,0.3,0.7,0.3,1.1c0,0.5,0,0.7,0.1,0.8c0.1,0.1,0.1,0.2,0.1,0.4C237.1,788.6,237.1,788.7,237,788.8z"/>
		<path d="M256.9,783.9c0-0.3-0.1-0.5-0.2-0.6c-0.1-0.1-0.1-0.2,0-0.4c0.1-0.1,0.1-0.2,0.1-0.2c0-0.1-0.1-0.2-0.2-0.2
			c-0.1-0.1-0.2-0.2-0.2-0.3c0-0.2-0.1-0.3-0.3-0.5c-0.2-0.2-0.4-0.3-0.5-0.3c-0.1,0-0.2,0-0.2,0.1c0,0.1-0.3,0.1-0.9,0.2
			c-0.5,0.1-1.1,0.1-1.7,0.1c-0.6,0-0.9,0-1,0.1c-0.1,0-0.5,0.1-1.4,0.1c-0.9,0.1-1.8,0.2-2.7,0.3c-0.9,0.1-1.4,0.2-1.4,0.2
			c0,0,0,0.1,0,0.2c0,0.1,0,0.2,0.1,0.3c0.1,0.2,0.1,0.3,0.2,0.4c0.1,0,0.3,0.1,0.6,0.1c0.5,0,0.9,0.1,1,0.3
			c0.1,0.2,0.2,0.7,0.2,1.6c0,0.9-0.1,1.4-0.2,1.5c-0.1,0.1-0.1,0.2,0,0.4c0.1,0.3,0.2,0.5,0,0.7c-0.1,0.2-0.2,0.3-0.3,0.3
			c-0.1,0,0,0.1,0.1,0.2c0.1,0.1,0.1,0.3,0.1,0.6c0,0.1,0,0.4-0.1,0.8c-0.1,1.4-0.2,2.3-0.2,2.6c-0.1,0.4-0.1,0.5-0.3,0.6
			c-0.2,0.1-0.5,0.3-0.8,0.6l-0.5,0.6h5v-0.5c0-0.2,0-0.4-0.1-0.4c0-0.1-0.1-0.1-0.3-0.1c-0.2,0-0.4,0-0.4-0.1s-0.1-0.1-0.2-0.1
			s-0.2-0.1-0.3-0.3c0-0.1,0-0.4,0-1.2c0-1.2,0-2.1,0.1-2.8c0-0.1,0.5-0.1,1.4-0.1c0.8,0,1.3,0.1,1.5,0.2c0.3,0.1,0.4,0.4,0.4,0.9
			c0,0.3,0,0.5,0.1,0.5c0.1,0,0.1-0.1,0.3-0.2c0.1-0.1,0.3-0.2,0.5-0.1c0.2,0.1,0.3,0,0.3-0.2c0-0.2,0-0.3,0.1-0.4
			c0.1-0.1,0.1-0.2,0-0.2c-0.1-0.1-0.2-0.3-0.2-0.6c0-0.4,0.1-0.7,0.2-0.8c0.1-0.1,0.1-0.1,0.1-0.2c0-0.1,0-0.1-0.1-0.2
			c-0.1-0.1-0.1-0.2-0.1-0.2c0-0.1,0-0.1,0.1-0.2c0.2-0.1,0.2-0.2,0.2-0.4c0-0.3-0.4-0.4-1.1-0.4c-0.4,0-0.6,0.2-0.6,0.5
			c0,0.1,0,0.2,0.1,0.3c0.1,0.2,0,0.4,0,0.5c-0.1,0.1-0.4,0.2-1,0.3c-0.6,0.1-1.1,0.2-1.6,0.2h-0.5v-0.6c0-0.4,0.1-0.6,0.2-0.7
			c0.1-0.1,0.2-0.2,0.2-0.4c0-0.3-0.1-0.5-0.2-0.8c-0.1-0.2-0.2-0.4-0.2-0.4c0-0.1,0.1-0.1,0.2-0.3c0.2-0.2,0.3-0.4,0.2-0.6
			c0-0.1,0-0.1,0-0.2c0-0.1,0.1-0.2,0.4-0.3c0.3-0.1,0.8-0.1,1.6-0.1c0.7,0,1.1-0.1,1.1-0.1c0.3,0,0.5,0.1,0.7,0.2
			c0.2,0.2,0.3,0.3,0.5,0.4c0.2,0.1,0.3,0.2,0.3,0.3c0,0.1,0.1,0.3,0.3,0.4c0.2,0.1,0.4,0.3,0.5,0.6c0.1,0.4,0.4,0.5,0.8,0.5
			c0.1,0,0.2,0,0.3-0.1c0.1-0.1,0.2-0.2,0.2-0.6c0-0.3-0.1-0.5-0.2-0.5C257,784.4,256.9,784.2,256.9,783.9z"/>
		<path d="M279.5,789.7c0-0.1,0-0.2-0.1-0.2c-0.1,0-0.1,0-0.1,0.1l0.1,0.2C279.5,789.9,279.5,789.9,279.5,789.7z"/>
		<path d="M285.4,790.5c0-0.6-0.1-0.9-0.2-1.1c-0.1-0.2-0.3-0.4-0.6-0.5c-0.3-0.1-0.5-0.3-0.5-0.4c-0.1-0.1-0.3-0.3-0.9-0.6
			c-0.5-0.3-1-0.5-1.3-0.6c-0.2-0.1-0.5-0.2-0.9-0.5c-0.4-0.3-0.6-0.4-0.6-0.5c0-0.1-0.1-0.2-0.2-0.3c-0.2-0.1-0.2-0.2-0.2-0.3
			c0,0,0-0.1,0-0.1c0.1-0.1,0.1-0.2,0.1-0.3s0-0.3-0.1-0.6c0-0.1,0-0.2,0-0.2c0,0,0.2-0.1,0.3-0.1c0.3,0,0.4-0.1,0.4-0.2
			c0-0.1,0.1-0.2,0.4-0.4c0.3-0.2,0.4-0.3,0.4-0.3c0-0.1,0.1-0.1,0.4-0.2c0.1,0,0.1,0,0.2,0c0.4,0,0.8,0.2,1.2,0.5
			c0.5,0.3,0.7,0.6,0.7,0.9c0,0.2,0.1,0.4,0.3,0.5c0.2,0.1,0.3,0.3,0.3,0.4c0,0.1,0.1,0.3,0.2,0.5c0.2,0.2,0.3,0.3,0.4,0.3
			c0,0,0,0,0.1,0c0.1-0.1,0.1-0.7,0.2-2v-0.8c0-0.6-0.1-0.9-0.2-0.9c-0.1,0-0.1,0-0.1,0c-0.3,0.1-0.6,0.2-0.8,0.2
			c-0.3,0-0.6-0.1-1-0.3c-0.4-0.2-0.6-0.3-0.7-0.3c0,0-0.1,0-0.2,0.1c-0.3,0.1-0.6,0.1-0.8,0.1c-0.3,0-0.4,0-0.5,0.1
			c0,0.1-0.1,0.2-0.3,0.2c-0.2,0-0.4-0.1-0.5-0.2c-0.1-0.1-0.3-0.2-0.5-0.2h0c-0.1,0-0.1,0-0.1,0c-0.1,0-0.1,0-0.1,0
			c0,0,0.1,0,0.1,0c0.1,0.1,0.2,0.1,0.2,0.2c0,0.2-0.2,0.3-0.5,0.4c-0.3,0.1-0.4,0.2-0.4,0.4c0.1,0.2,0,0.3-0.2,0.4
			c-0.3,0.1-0.6,0.5-1.1,1.1c-0.1,0.2-0.2,0.4-0.2,0.6c0,0,0,0.3,0.1,0.8c0.1,0.7,0.3,1.1,0.4,1.3c0.1,0.2,0.4,0.4,0.7,0.7
			c0.4,0.3,0.6,0.4,0.8,0.4c0.1,0,0.3,0.1,0.6,0.4c0.4,0.3,0.9,0.6,1.7,0.8c0.5,0.1,0.8,0.3,1.1,0.6c0.2,0.2,0.3,0.4,0.5,0.7
			c0.1,0.3,0.2,0.5,0.2,0.7c0,0.1,0,0.1-0.1,0.2c-0.1,0-0.1,0.2-0.1,0.4c0.1,0.2,0,0.4-0.2,0.6c-0.1,0.1-0.2,0.3-0.2,0.4
			c0,0.2-0.5,0.4-1.4,0.5c-0.1,0-0.3,0-0.6,0c-0.9,0-1.7-0.4-2.2-1.2c-0.3-0.4-0.5-0.8-0.5-1c0,0,0-0.1,0-0.2c0-0.1,0-0.2,0-0.2
			c0,0-0.1-0.1-0.1-0.1c-0.1,0-0.1,0-0.1-0.1c0.1-0.3-0.1-0.5-0.4-0.6c-0.1,0-0.2-0.1-0.3-0.1c-0.3,0-0.4,0.2-0.5,0.5
			c-0.1,1.2-0.1,1.9-0.2,1.9c-0.1,0.1-0.1,0.4-0.2,0.8c0,0.1,0,0.3,0,0.4c0,0.2,0.1,0.4,0.3,0.6c0.1,0.1,0.2,0.2,0.3,0.2
			c0,0,0.1,0,0.2-0.2c0.1-0.2,0.2-0.3,0.2-0.4c0-0.3,0.2-0.3,0.5-0.1c0.9,0.5,1.8,0.7,2.9,0.7c0.5,0,1.1-0.1,1.6-0.2
			c0.6-0.1,1.1-0.3,1.4-0.6c0.3-0.3,0.5-0.5,0.5-0.5c0-0.1,0.1-0.2,0.2-0.3c0.2-0.1,0.3-0.4,0.3-0.9c0.1-0.5,0.1-0.7,0.2-0.7
			c0.1,0,0.1,0,0-0.1S285.4,791.2,285.4,790.5z M281,788.9C281,788.9,280.9,788.9,281,788.9c-0.1-0.1-0.1-0.1,0-0.1
			S281.1,788.8,281,788.9C281.1,788.9,281.1,788.9,281,788.9z"/>
		<path d="M308.2,782.4c-0.1,0-0.3,0-0.5,0c-0.2,0-0.4,0-0.4,0c-0.4,0-0.6,0-0.7,0.1c-0.1,0-0.3,0.1-0.4,0.3
			c-0.2,0.2-0.3,0.3-0.3,0.4c0,0.1,0,0.1,0.2,0.2c0.3,0.2,0.5,0.2,0.7,0.2c0.3,0,0.4,0.1,0.5,0.3c0.1,0.2,0,0.3-0.1,0.4
			c-0.1,0-0.2,0.2-0.2,0.6c0,0.4-0.1,0.6-0.2,0.6c-0.2,0.1-0.2,0.2-0.2,0.4v0.4c0,0.6-0.1,0.9-0.3,0.9c-0.1,0-0.2,0.1-0.3,0.3
			c0,0.2-0.1,0.7-0.3,1.5c-0.1,0.4-0.2,0.6-0.4,0.6c-0.1,0-0.2,0.1-0.2,0.2c0,0.1,0,0.2-0.2,0.2c-0.3,0-0.4-0.1-0.5-0.2
			c-0.1-0.2-0.2-0.5-0.3-0.9c-0.1-0.4-0.2-1-0.2-1.7c-0.1-0.5-0.2-0.8-0.3-0.9c-0.1-0.1-0.1-0.4-0.1-0.7c0-0.3,0-0.5-0.1-0.5
			c-0.1,0-0.1-0.1-0.1-0.4c0-0.2-0.1-0.4-0.2-0.5c-0.1-0.1-0.2-0.1-0.2-0.2c0-0.1,0.2-0.2,0.6-0.2c0.4,0,0.7-0.1,0.9-0.3
			c0.1-0.1,0.2-0.2,0.2-0.3c0-0.1,0-0.2-0.1-0.4c-0.1-0.2-0.3-0.4-0.6-0.5c-0.3-0.1-0.8-0.1-1.6-0.1c-0.6,0-1-0.1-1-0.3
			c-0.1-0.2-0.1-0.3-0.2-0.3c-0.1,0-0.2,0.1-0.5,0.3c-0.3,0.2-0.4,0.3-0.5,0.3c-0.3,0-0.5,0.2-0.6,0.6v0.1l0,0.1
			c0,0.3,0.3,0.6,0.9,0.7c0.1,0,0.3,0.1,0.4,0.1c0.1,0.1,0.1,0.2,0.1,0.2s-0.1,0.1-0.2,0.1c-0.1,0-0.1,0.2-0.1,0.6
			c0,0.4-0.1,0.6-0.2,0.6c-0.1,0-0.1,0.2-0.1,0.5c0,0.7-0.2,1.1-0.5,1.2c-0.1,0-0.2,0.1-0.3,0.3c-0.1,0.2-0.1,0.7-0.3,1.5
			c-0.1,0.4-0.2,0.6-0.4,0.6c-0.2,0-0.2,0.1-0.2,0.2c0,0.1,0,0.2-0.2,0.2c-0.3,0-0.5-0.1-0.6-0.2c-0.1-0.2-0.2-0.5-0.2-0.9
			c0-0.6-0.1-0.9-0.2-1c-0.1-0.1-0.1-0.3-0.1-0.6c0-0.4-0.1-0.7-0.2-0.9c-0.1-0.3-0.2-0.5-0.1-0.8c0-0.3,0-0.5-0.1-0.5
			c-0.1,0-0.2-0.1-0.2-0.4c0-0.2-0.1-0.4-0.2-0.5c-0.1-0.1-0.2-0.1-0.2-0.2c0-0.1,0.2-0.2,0.6-0.2c0.4,0,0.7-0.1,0.9-0.3
			c0.1-0.1,0.2-0.2,0.2-0.3c0-0.1-0.1-0.2-0.2-0.4c-0.1-0.2-0.2-0.3-0.4-0.4c-0.2-0.1-0.5-0.1-0.9-0.1c-0.1,0-0.2,0-0.4,0
			c-0.2,0-0.4,0-0.5,0H295c-0.3,0-0.4,0-0.5-0.1c-0.1,0-0.1-0.1-0.2-0.3c-0.1-0.2-0.1-0.4-0.3-0.4c-0.1,0-0.2,0.1-0.5,0.3
			c-0.2,0.2-0.4,0.3-0.5,0.3c-0.1,0-0.3,0.1-0.4,0.2c-0.1,0.1-0.2,0.3-0.2,0.4c0,0.4,0.3,0.7,0.9,0.8c0.5,0.1,0.9,0.6,1,1.6
			c0.1,0.4,0.2,0.6,0.3,0.8c0.1,0.1,0.2,0.4,0.2,0.7c0,0.3,0.1,0.5,0.2,0.6c0.4,0.4,0.5,1.1,0.5,1.9c0,0.4,0,0.6,0.1,0.7
			c0.1,0.1,0.1,0.2,0.1,0.4c0,0.2,0,0.3,0.1,0.4c0.1,0.1,0.2,0.3,0.2,0.8c0,0.4,0.1,0.6,0.2,0.6c0.1,0,0.2,0.2,0.2,0.5
			c0,0.3,0.1,0.5,0.2,0.5c0.1,0,0.2,0.1,0.3,0.4c0.1,0.3,0.3,0.5,0.6,0.5c0.1,0,0.3-0.1,0.4-0.2c0.1-0.1,0.2-0.3,0.2-0.4
			c0-0.3,0-0.4,0.1-0.4c0.1,0,0.2-0.1,0.2-0.4c0-0.3,0-0.5,0.1-0.5c0.1,0,0.2-0.2,0.2-0.5c0-0.3,0.1-0.6,0.3-0.9
			c0.2-0.3,0.4-0.5,0.6-0.6c0.2-0.1,0.3-0.3,0.3-0.6c0-0.4,0.1-0.6,0.2-0.6c0.1,0,0.2-0.2,0.2-0.5c0-0.3,0.1-0.6,0.2-0.8
			c0.1-0.2,0.2-0.4,0.1-0.5c-0.1-0.2,0.1-0.3,0.4-0.4c0.3-0.1,0.4-0.2,0.5-0.3c0.1,0,0.1,0.1,0.1,0.4c0,0.4,0.1,0.6,0.2,0.8
			c0.4,0.5,0.6,1.1,0.6,1.9c0,0.4,0,0.6,0.1,0.6c0.1,0,0.1,0.1,0.1,0.4c-0.1,0.2,0,0.4,0.1,0.5c0.1,0.1,0.2,0.3,0.2,0.8
			c0,0.4,0.1,0.6,0.2,0.6c0.2,0,0.2,0.2,0.2,0.5c0,0.3,0.1,0.5,0.2,0.5c0.1,0,0.2,0.1,0.3,0.4c0.1,0.3,0.3,0.5,0.6,0.5
			c0.1,0,0.3-0.1,0.4-0.2c0.1-0.1,0.2-0.3,0.2-0.4c0-0.3,0.1-0.4,0.2-0.4c0.1,0,0.1-0.1,0.1-0.4c0-0.3,0-0.5,0.1-0.5
			c0.1,0,0.2-0.2,0.2-0.5c0-0.3,0.1-0.6,0.3-1c0.2-0.4,0.4-0.6,0.5-0.6c0.1,0,0.2-0.2,0.2-0.6c0-0.5,0.1-0.7,0.2-0.7
			c0.1,0,0.2-0.2,0.2-0.5c0-0.3,0.1-0.6,0.2-0.8c0.1-0.2,0.2-0.4,0.2-0.6c0-0.1,0.1-0.2,0.4-0.3c0.3-0.1,0.4-0.2,0.4-0.3
			c0-0.1,0-0.1,0-0.2c0-0.1,0-0.1,0-0.2c0-0.6,0.1-0.9,0.3-0.9c0.1,0,0.1-0.1,0.2-0.4c0-0.3,0.1-0.4,0.2-0.4c0.1,0,0.2-0.1,0.2-0.2
			c0-0.1,0.1-0.2,0.4-0.2c0.3,0,0.5-0.1,0.6-0.2c0.1-0.1,0.2-0.3,0.2-0.6l0-0.4L308.2,782.4z"/>
		<path d="M329.2,785.7c-0.2-0.1-0.2-0.2-0.2-0.5c0-0.3,0-0.5-0.1-0.5c-0.1,0-0.1-0.1-0.1-0.4c0-0.3-0.1-0.4-0.2-0.4
			c-0.1,0-0.2-0.1-0.3-0.3c-0.1-0.2-0.2-0.3-0.3-0.4c-0.1-0.1-0.2-0.2-0.2-0.4c0-0.2-0.1-0.3-0.4-0.3c-0.7,0-1-0.1-1-0.4
			c0-0.1-0.1-0.2-0.2-0.2c-0.1,0-0.2,0-0.2-0.1s-0.1-0.1-0.3-0.1c-0.2,0-0.3-0.1-0.4-0.2c0-0.1-0.5-0.2-1.5-0.2
			c-0.9,0-1.5,0.1-1.6,0.2c-0.1,0.1-0.2,0.2-0.4,0.2c-0.2,0-0.3,0.1-0.4,0.3c-0.1,0.2-0.3,0.4-0.6,0.4c-0.3,0-0.6,0.1-1.1,0.2
			c-0.5,0.1-0.7,0.3-0.8,0.5c0,0.2-0.2,0.4-0.5,0.7c-0.3,0.3-0.4,0.5-0.4,0.5c0,0.1-0.1,0.1-0.2,0.1c-0.1,0-0.2,0.1-0.3,0.4
			c-0.1,0.2-0.2,0.5-0.3,0.7c-0.2,0.3-0.2,0.8-0.2,1.8c0,1.2,0.1,2.1,0.4,2.9c0.5,1.4,0.9,2.2,1.2,2.3c0.2,0,0.3,0.1,0.3,0.3
			c0,0.2,0.2,0.2,0.4,0.2c0.2,0,0.4,0,0.4,0.1c0,0.1,0.1,0.1,0.3,0.1c0.2,0,0.3,0.1,0.3,0.4c0,0.2,0,0.3,0.1,0.4
			c0.1,0.1,0.2,0,0.4-0.1c0.1-0.1,0.2-0.1,0.3,0c0.2,0.1,0.9,0.2,2.2,0.2c1.1,0,1.7-0.1,1.7-0.2c0-0.1,0.3-0.2,0.7-0.2
			c0.4,0,0.6-0.1,0.6-0.2c0-0.2,0.1-0.3,0.2-0.3c0,0,0.2-0.1,0.4-0.3c0.3-0.2,0.4-0.3,0.5-0.3c0.1,0,0.2-0.1,0.2-0.3
			c0.1-0.2,0.2-0.3,0.3-0.3c0.1,0,0.2-0.1,0.3-0.3c0-0.2,0.2-0.3,0.4-0.3c0.2-0.1,0.3-0.1,0.3-0.2c0-0.1,0.1-0.1,0.2-0.1
			c0.1,0,0.2-0.2,0.2-0.6c0-0.3,0-0.5-0.1-0.5c-0.1,0-0.1-0.1,0-0.2c0.1-0.1,0.2-0.8,0.2-2.1c0-0.3,0-0.7,0-1.1
			C329.4,786,329.3,785.7,329.2,785.7z M327,788.8c-0.1,0-0.2,0.2-0.2,0.4c0,0.3-0.1,0.4-0.2,0.5c-0.1,0.1-0.2,0.4-0.3,0.8
			c-0.1,0.4-0.1,0.6-0.3,0.6c-0.1,0-0.2,0-0.2,0.1c0,0.1-0.1,0.2-0.4,0.2c-0.3,0.1-0.4,0.2-0.4,0.3c0,0.1,0,0.2-0.1,0.2
			c-0.1,0.1-0.2,0.1-0.4,0.2c-0.1,0.1-0.2,0.1-0.3,0.1c0,0.1-0.2,0.1-0.4,0.1c-0.2,0-0.3,0.1-0.5,0.2c-0.1,0.1-0.2,0.1-0.4,0.1
			c-0.2,0-0.4,0-0.7-0.1c-0.5-0.1-1-0.3-1.3-0.6c-0.3-0.3-0.7-0.8-1-1.5c-0.3-0.5-0.4-0.9-0.5-1.1c0-0.2-0.1-0.7-0.1-1.4
			c0-0.7,0-1.1,0.1-1.4c0-0.2,0.1-0.5,0.3-0.8c0.3-0.5,0.6-0.9,1-1.3c0.4-0.4,0.8-0.6,1-0.7c0.3,0,0.5-0.1,0.5-0.3
			c0-0.1,0.1-0.2,0.2-0.2c0.1,0,0.2,0,0.2-0.1c0-0.1,0.1-0.1,0.3-0.1c0.2,0,0.3,0,0.3,0.1c0,0.1,0.3,0.1,0.9,0.1
			c0.5,0,0.8,0.1,0.8,0.2c0,0.1,0.1,0.2,0.3,0.3c0.2,0.1,0.3,0.2,0.3,0.3c0,0.1,0.1,0.2,0.3,0.3c0.3,0.1,0.5,0.4,0.5,0.8
			c0,0.2,0.1,0.5,0.3,0.8c0.2,0.3,0.3,0.7,0.3,1.1c0,0.5,0,0.7,0.1,0.8c0.1,0.1,0.1,0.2,0.1,0.4C327.2,788.6,327.1,788.7,327,788.8z
			"/>
		<path d="M338.3,779.4c0-0.1-0.1-0.1-0.3-0.1c-0.2,0-0.3,0-0.3,0.1c0,0.1,0.1,0.2,0.3,0.2C338.2,779.5,338.3,779.5,338.3,779.4z"/>
		<path d="M349.7,792.7c-0.1,0-0.2-0.1-0.3-0.4c-0.1-0.2-0.3-0.4-0.5-0.4c-0.2,0-0.4-0.1-0.6-0.2c-0.2-0.1-0.4-0.2-0.4-0.4
			c-0.1-0.1-0.1-0.2-0.3-0.2c-0.1,0-0.3-0.1-0.6-0.4c-0.2-0.3-0.4-0.6-0.6-0.9c-0.1-0.3-0.4-0.6-0.8-1.1c-0.4-0.5-0.7-0.7-0.8-0.7
			c-0.1,0-0.2-0.1-0.4-0.3c-0.1-0.1-0.2-0.2-0.1-0.3c0,0,0.1-0.1,0.3-0.2c0.8-0.3,1.2-0.6,1.2-0.9c0-0.5,0.1-0.7,0.3-0.7
			c0.1,0,0.2-0.1,0.4-0.2c0.2-0.2,0.2-0.7,0.2-1.5c0-1-0.1-1.5-0.3-1.7c-0.1-0.1-0.2-0.2-0.4-0.2c-0.1,0-0.2,0-0.2-0.1
			c0-0.1-0.1-0.2-0.4-0.3c-0.3-0.1-0.4-0.3-0.5-0.5l-0.2-0.3c-0.1-0.1-0.2-0.1-0.2,0.1c0,0.1-0.3,0.1-0.8,0.1c-0.6,0-0.9,0-0.9-0.1
			c0-0.1-0.1-0.1-0.4-0.1s-0.5-0.1-0.6-0.3c-0.2-0.2-0.3-0.3-0.4-0.3c-0.1,0-0.2,0.1-0.1,0.3c0,0,0,0,0,0.1v0.1
			c0,0.1-0.6,0.2-1.8,0.2h-1.9l-0.5,0.5c-0.3,0.3-0.5,0.6-0.5,0.7c0,0.1,0.2,0.2,0.5,0.3c0.3,0.1,0.5,0.1,0.5,0.2
			c0,0.1,0,0.1,0.1,0.1c0.2,0,0.4,0.2,0.6,0.5c0.2,0.3,0.3,0.7,0.3,1.2c0,0.4,0.1,0.6,0.1,0.6c0,0.2-0.1,0.4-0.2,0.5
			c-0.2,0.1-0.2,0.2-0.1,0.3c0.1,0.1,0.2,0.3,0.2,0.7c0,0.3-0.1,0.5-0.2,0.5c-0.1,0-0.2,0,0,0.1c0.1,0.1,0.2,0.2,0.2,0.4
			c0,0.2-0.1,0.4-0.2,0.5c-0.1,0.1-0.1,0.3,0.1,0.4c0.1,0.1,0.2,0.3,0.2,0.4c0,0.1-0.1,0.3-0.2,0.4c-0.2,0.2-0.3,0.7-0.3,1.6
			c0,0.7,0,1.1-0.1,1.2c0,0.1-0.1,0.2-0.3,0.3c-0.2,0.1-0.3,0.1-0.3,0.2c0,0.1-0.3,0.1-0.8,0.1c-0.4,0-0.6,0.1-0.7,0.1
			c-0.1,0.1-0.1,0.2-0.1,0.5c0,0.2,0.2,0.5,0.6,0.8c0.2,0.1,0.3,0.2,0.5,0.2c0.2,0,0.3-0.1,0.3-0.2c0.1-0.1,0.8-0.2,2.1-0.2
			c1.3,0,2.1-0.1,2.2-0.3c0.1-0.1,0.2-0.2,0.3-0.2c0.1,0,0.2-0.1,0.2-0.2c0-0.1-0.1-0.2-0.4-0.2c-0.3,0-0.4-0.1-0.5-0.3
			c0-0.2-0.2-0.3-0.5-0.4c-0.4-0.1-0.5-0.2-0.5-0.4c0-0.1,0-0.2,0.1-0.3c0.2-0.2,0.2-0.3,0.1-0.4c-0.1,0-0.2-0.6-0.2-1.6
			c0-0.3,0-0.6,0-1c0-0.3,0-0.4,0.1-0.5c0-0.1,0.1-0.1,0.2-0.1c0.5,0,1,0.2,1.5,0.5c0.5,0.4,0.8,0.7,0.8,1c0,0.2,0.1,0.3,0.2,0.3
			s0.2,0.1,0.2,0.4c0,0.5,0.3,0.8,0.8,1c0.2,0.1,0.4,0.3,0.5,0.7c0.1,0.4,0.3,0.8,0.7,1.2l0.6,0.7l0.9-0.1c0.1,0,0.3,0,0.6-0.1
			c0.3,0,0.6,0,0.8-0.1c0.2,0,0.4-0.1,0.7-0.1c0.3-0.1,0.4-0.1,0.6-0.2c0.1-0.1,0.2-0.2,0.2-0.3
			C349.8,792.8,349.8,792.7,349.7,792.7z M344,785.9c-0.1,0-0.2,0-0.2,0.1c-0.1,0-0.1,0,0,0.1c0.2,0,0.2,0.1,0.2,0.2
			c0,0.1-0.1,0.3-0.4,0.4c-0.2,0.2-0.5,0.3-0.7,0.3c-0.3,0-0.6,0.1-1.1,0.2c-0.1,0-0.2,0-0.3,0c-0.2,0-0.4-0.1-0.7-0.3
			c-0.2-0.2-0.3-0.3-0.4-0.3c0-0.1,0-0.1,0.1-0.2c0.1-0.1,0.2-0.7,0.2-1.6v-1.2c0-0.3,0.1-0.5,0.2-0.7c0.1-0.2,0.3-0.4,0.4-0.4h0.1
			l0.4,0.1c0.3,0,0.5,0.1,0.8,0.1c0.2,0.1,0.4,0.1,0.4,0.1c0,0.1,0.1,0.1,0.4,0.2c0.3,0.1,0.4,0.2,0.4,0.3c0,0.1,0.1,0.3,0.2,0.4
			c0.1,0.1,0.2,0.2,0.1,0.3c-0.1,0.1-0.1,0.3,0.1,0.6c0.1,0.2,0.2,0.5,0.2,0.8v0.1c0,0.2-0.1,0.4-0.1,0.4S344.2,785.9,344,785.9z"/>
		<path d="M342.7,780.4C342.8,780.3,342.8,780.3,342.7,780.4c0.1-0.1,0-0.1-0.2-0.1c-0.2,0-0.3,0.1-0.3,0.2
			C342.4,780.5,342.5,780.5,342.7,780.4C342.7,780.4,342.7,780.4,342.7,780.4z"/>
		<path d="M369,785.5c0-0.2-0.1-0.3-0.2-0.5c-0.2-0.2-0.3-0.3-0.4-0.3c-0.1,0-0.2-0.1-0.2-0.2c0-0.1-0.1-0.3-0.3-0.6
			c-0.2-0.2-0.3-0.3-0.4-0.3c-0.1,0-0.2-0.1-0.2-0.2c0-0.1-0.1-0.2-0.3-0.3c-0.2-0.1-0.3-0.1-0.3-0.2c0-0.1-0.1-0.1-0.4-0.1
			c-0.2,0-0.3-0.1-0.6-0.2c-0.2-0.1-0.4-0.2-0.5-0.2c-0.2,0-0.3,0-0.3-0.1s-0.1-0.1-0.4-0.1c-0.2,0-0.3,0-0.4-0.1
			c-0.1-0.1-0.2-0.1-0.2-0.1c-0.1,0-0.2,0-0.4,0.1c-0.3,0.1-0.6,0.2-1,0.2c-0.2,0-0.4,0-0.4-0.1c-0.1,0-0.1-0.1-0.1-0.2
			c0-0.2-0.1-0.3-0.2-0.3c-0.1,0-0.2,0-0.3,0.2c-0.1,0.1-0.1,0.1-0.2,0c-0.2-0.3-0.3-0.2-0.4,0.1c-0.1,0.2-0.2,0.3-0.4,0.2
			c-0.2-0.1-0.5-0.2-1-0.2c-0.4,0-0.7-0.1-0.8-0.2c0-0.1-0.1-0.1-0.3,0.1c-0.2,0.1-0.3,0.1-0.3,0c-0.1-0.1-0.2-0.2-0.5-0.2
			c-0.2,0-0.4,0-0.4,0.1s-0.1,0.1-0.3,0.1c-0.1,0-0.2,0-0.2,0.1c0,0.1-0.1,0.3-0.1,0.5c0,0.3,0,0.5,0.1,0.6c0,0.1,0.2,0.2,0.3,0.3
			c0.2,0.1,0.3,0.1,0.4,0.1c0,0,0.1,0,0.1,0c0.1,0,0.1,0,0.1,0c0.1,0,0.2,0,0.3,0.1c0.2,0.1,0.4,0.4,0.4,0.8c0,0.4,0,0.6-0.1,0.6
			c-0.1,0-0.1,0.3-0.1,0.9c0,0.6,0,0.8,0.1,0.8c0.1,0,0.1,0.1,0.1,0.4c0,0.2,0,0.4-0.1,0.5c-0.1,0.1-0.1,1-0.2,2.8l-0.1,2.7l-0.5,0
			c-0.4,0-0.6,0.2-0.8,0.4c-0.2,0.2-0.3,0.4-0.3,0.5c0,0.1,0.1,0.2,0.4,0.4c0.3,0.2,0.5,0.2,0.7,0.2c0.1,0,0.2,0,0.2-0.1
			c0-0.1,0.3-0.1,0.8-0.1c0.5,0,0.8,0,0.8,0.1c0,0.1,0.9,0.2,2.6,0.2c1.1,0,1.7,0,1.8-0.1c0.1-0.1,0.4-0.2,0.7-0.2
			c0.4-0.1,0.8-0.2,1.3-0.5c0.5-0.2,0.8-0.4,1-0.4c0.2,0,0.3-0.1,0.4-0.4c0.1-0.3,0.3-0.6,0.7-1.1c0.4-0.4,0.6-0.7,0.6-0.8
			c0-0.1,0-0.2,0.1-0.2c0.1,0,0.1-0.1,0.1-0.3c0-0.2,0.1-0.4,0.2-0.5c0.1-0.1,0.1-0.8,0.1-2c0-1.4-0.1-2.1-0.2-2.2
			C369,785.8,369,785.7,369,785.5z M366.9,789.7c-0.1,0.1-0.2,0.2-0.2,0.5c0,0.3-0.1,0.5-0.2,0.6c-0.3,0.3-0.5,0.6-0.6,1
			c-0.1,0.2-0.1,0.2-0.2,0.2c-0.1,0-0.3,0.2-0.7,0.5c-0.4,0.3-0.7,0.5-0.9,0.5c-0.2,0-0.3,0.1-0.4,0.2c-0.1,0.1-0.1,0.1-0.2,0
			c-0.1-0.1-0.1-0.2-0.3-0.2c-0.1,0-0.2,0.1-0.3,0.2c0,0.1-0.3,0.1-0.9,0.1c-0.6,0-1.1,0-1.6,0c-0.2,0-0.2-0.1-0.2-0.4
			s-0.1-0.4-0.2-0.4s-0.2,0-0.2-0.1c0-0.1,0.1-0.1,0.2-0.2c0.1-0.1,0.2-0.2,0.2-0.3c0-0.1,0.1-0.2,0.2-0.2c0.1,0,0.1-0.1,0.2-0.4
			c0.1-0.2,0.1-0.5,0.1-0.8c0-0.1,0-0.3-0.1-0.5c0,0,0,0,0-0.1c0,0,0-0.1,0-0.1c0-0.2,0.1-0.4,0.2-0.6l0.2-0.4c0,0-0.1-0.1-0.2-0.1
			c-0.1,0-0.2-0.3-0.2-0.8c0-0.5,0-1,0-1.5c0-1.4,0.1-2.2,0.1-2.4c0-0.3,0.1-0.5,0.4-0.8c0.2-0.2,0.4-0.3,0.6-0.3c0.1,0,0.2,0,0.3,0
			c0.1,0,0.3,0,0.7,0.1c0.4,0,0.7,0.1,1,0.1c0.3,0.1,0.4,0.1,0.5,0.2c0.1,0.1,0.2,0.2,0.4,0.2c0.2,0,0.4,0.1,0.4,0.3
			c0.1,0.2,0.2,0.3,0.3,0.3c0.2,0,0.2,0,0.2,0.1s0.1,0.2,0.3,0.2c0.2,0.1,0.3,0.2,0.3,0.3c0,0.1,0.1,0.3,0.2,0.4
			c0.1,0.1,0.2,0.4,0.3,0.9c0,0.4,0.1,0.7,0.2,0.8c0.1,0.1,0.1,0.5,0.1,1.3S367,789.7,366.9,789.7z"/>
		<path d="M384.7,789.5c0-0.6-0.1-0.9-0.2-1.1c-0.1-0.2-0.3-0.4-0.6-0.5c-0.3-0.1-0.5-0.3-0.5-0.4c-0.1-0.1-0.3-0.3-0.9-0.6
			c-0.5-0.3-1-0.5-1.3-0.6c-0.2-0.1-0.5-0.2-0.9-0.5c-0.4-0.3-0.6-0.4-0.6-0.5c0-0.1-0.1-0.2-0.2-0.3c-0.2-0.1-0.2-0.2-0.2-0.3
			c0,0,0-0.1,0-0.1c0.1-0.1,0.1-0.2,0.1-0.3c0-0.1,0-0.3-0.1-0.6c0-0.1,0-0.2,0-0.2c0,0,0.2-0.1,0.3-0.1c0.3,0,0.4-0.1,0.4-0.2
			c0-0.1,0.1-0.2,0.4-0.4c0.3-0.2,0.4-0.3,0.4-0.3c0-0.1,0.1-0.1,0.4-0.2c0.1,0,0.1,0,0.2,0c0.4,0,0.8,0.2,1.2,0.5
			c0.5,0.3,0.7,0.6,0.7,0.9c0,0.2,0.1,0.4,0.3,0.5c0.2,0.1,0.3,0.3,0.3,0.4s0.1,0.3,0.2,0.5s0.3,0.3,0.4,0.3c0,0,0,0,0.1,0
			c0.1-0.1,0.1-0.7,0.2-2v-0.8c0-0.6-0.1-0.9-0.2-0.9c-0.1,0-0.1,0-0.1,0c-0.3,0.1-0.6,0.2-0.8,0.2c-0.3,0-0.6-0.1-1-0.3
			c-0.4-0.2-0.6-0.3-0.7-0.3c0,0-0.1,0-0.2,0.1c-0.3,0.1-0.6,0.1-0.8,0.1c-0.3,0-0.4,0-0.5,0.1c0,0.1-0.1,0.2-0.3,0.2
			c-0.2,0-0.4-0.1-0.5-0.2c-0.1-0.1-0.3-0.2-0.5-0.2h0c-0.1,0-0.1,0-0.1,0c-0.1,0-0.1,0-0.1,0c0,0,0.1,0,0.1,0
			c0.1,0.1,0.2,0.1,0.2,0.2c0,0.2-0.2,0.3-0.5,0.4c-0.3,0.1-0.4,0.2-0.4,0.4c0.1,0.2,0,0.3-0.2,0.4c-0.3,0.1-0.6,0.5-1.1,1.1
			c-0.1,0.2-0.2,0.4-0.2,0.6c0,0,0,0.3,0.1,0.8c0.1,0.7,0.3,1.1,0.4,1.3c0.1,0.2,0.4,0.4,0.7,0.7c0.4,0.3,0.6,0.4,0.8,0.4
			c0.1,0,0.3,0.1,0.6,0.4c0.4,0.3,0.9,0.6,1.7,0.8c0.5,0.1,0.8,0.3,1.1,0.6c0.2,0.2,0.3,0.4,0.5,0.7c0.1,0.3,0.2,0.5,0.2,0.7
			c0,0.1,0,0.1-0.1,0.2c-0.1,0-0.1,0.2-0.1,0.4c0.1,0.2,0,0.4-0.2,0.6c-0.1,0.1-0.2,0.3-0.2,0.4c0,0.2-0.5,0.4-1.4,0.5
			c-0.1,0-0.3,0-0.6,0c-0.9,0-1.7-0.4-2.2-1.2c-0.3-0.4-0.5-0.8-0.5-1c0,0,0-0.1,0-0.2c0-0.1,0-0.2,0-0.2c0,0-0.1-0.1-0.1-0.1
			c-0.1,0-0.1,0-0.1-0.1c0.1-0.3-0.1-0.5-0.4-0.6c-0.1,0-0.2-0.1-0.3-0.1c-0.3,0-0.4,0.2-0.5,0.5c-0.1,1.2-0.1,1.9-0.2,1.9
			c-0.1,0.1-0.1,0.4-0.2,0.8c0,0.1,0,0.3,0,0.4c0,0.2,0.1,0.4,0.3,0.6c0.1,0.1,0.2,0.2,0.3,0.2c0,0,0.1,0,0.2-0.2
			c0.1-0.2,0.2-0.3,0.2-0.4c0-0.3,0.2-0.3,0.5-0.1c0.9,0.5,1.8,0.7,2.9,0.7c0.5,0,1.1-0.1,1.6-0.2c0.6-0.1,1.1-0.3,1.4-0.6
			c0.3-0.3,0.5-0.5,0.5-0.5c0-0.1,0.1-0.2,0.2-0.3c0.2-0.1,0.3-0.4,0.3-0.9c0.1-0.5,0.1-0.7,0.2-0.7c0.1,0,0.1,0,0-0.1
			S384.7,790.2,384.7,789.5z M380.3,788C380.2,788,380.2,787.9,380.3,788c-0.1-0.1-0.1-0.1,0-0.1S380.4,787.9,380.3,788
			C380.4,787.9,380.3,788,380.3,788z"/>
		<path d="M378.8,788.7c0-0.1,0-0.2-0.1-0.2c-0.1,0-0.1,0-0.1,0.1l0.1,0.2C378.8,789,378.8,788.9,378.8,788.7z"/>
		<polygon points="51.7,808.8 44,814 41.2,799.9 38.4,814 30.7,808.8 35.9,816.5 21.8,819.3 35.9,822 30.7,829.8 38.4,824.6 
			41.2,838.6 43.9,824.6 51.7,829.8 46.5,822 60.5,819.3 46.5,816.5 		"/>
		<polygon points="468.1,816.5 473.3,808.8 465.5,814 462.8,799.9 460,814 452.3,808.8 457.5,816.5 443.4,819.3 457.5,822 
			452.3,829.8 460,824.6 462.8,838.6 465.5,824.6 473.3,829.8 468.1,822 482.1,819.3 		"/>
		<polygon points="30.7,57.5 38.4,52.3 41.2,66.4 44,52.3 51.7,57.5 46.5,49.8 60.5,47 46.5,44.3 51.7,36.5 43.9,41.7 41.2,27.7 
			38.4,41.7 30.7,36.5 35.9,44.3 21.8,47 35.9,49.8 		"/>
		<polygon points="473.3,36.5 465.5,41.7 462.8,27.7 460,41.7 452.3,36.5 457.5,44.3 443.4,47 457.5,49.8 452.3,57.5 460,52.3 
			462.8,66.4 465.5,52.3 473.3,57.5 468.1,49.8 482.1,47 468.1,44.3 		"/>
		<ellipse transform="matrix(3.022891e-03 -1 1 3.022891e-03 -70.8631 468.0624)" cx="199.3" cy="269.6" rx="1.6" ry="1.6"/>
		<path d="M237.9,277.9c1.8,0.1,3.7,0,5.4,0.4c3,0.6,4.1,1.7,4.2,4.5c-0.7,0.4-1.4,1-1.8,1.6c-0.7,1.2-1,2.7-0.3,4
			c0.3,0.6,0.9,1.1,1.4,1.5c0.9,0.6,1.5,0.7,1.5,2.2c0,0.4-0.1,0.9-0.3,1.3c-0.5,0-0.9,0-1.4,0c-0.4,0-0.8,0.4-0.8,0.8
			c0,1.3,0,2.7,0,4c0,0,0,0-0.1,0c-3.3,0.2-5,1.9-5,5.3c0,2.4,0.9,4,2.6,4.8c0,0,0,0,0,0c0,1.5,0,3,0,4.4c0,0.4,0.4,0.8,0.8,0.8
			c0.1,0,0.2,0,0.3,0c-0.1,26.5-0.2,53-0.2,79.5c-0.1,33-0.2,66-0.3,99c0,3.2,0.4,5.3,1.3,8.5c2.4,8.5,4.7,16.9,7.1,25.4
			c0,0,0,0,0,0.1c0,0.1,0,0.1,0.1,0.1c0,0,0.1,0.1,0.1,0.1c0,0,0.1,0.1,0.1,0.1c0.3,0.2,0.7,0.2,1,0c0,0,0.1-0.1,0.1-0.1
			c0,0,0.1-0.1,0.1-0.1c0,0,0.1-0.1,0.1-0.1c0,0,0,0,0-0.1c2.2-7.5,4.3-15,6.5-22.5c0.9-3,2.1-6,2.1-9.2c0-11.5,0.1-23,0.1-34.5
			c0.1-38.8,0.2-77.7,0.4-116.5c0-9.9,0.1-19.7,0.1-29.6c0.1,0,0.2,0,0.3,0c0.2,0,0.4-0.1,0.5-0.2c0,0,0,0,0,0c0,0,0,0,0.1-0.1
			c0.1-0.1,0.2-0.3,0.2-0.5c0-1.5,0-3,0-4.4c0-0.1,0-0.1,0-0.2c4.2-2.3,3.4-9.5-2.4-9.9c0-1.3,0-2.7,0-4c0-0.4-0.4-0.8-0.8-0.8
			c-0.6,0-1.2,0-1.8,0c-0.3-0.9-0.4-2,0.2-2.7c0.5-0.6,1.5-0.9,2-1.5c0.9-1,1.1-2.2,0.7-3.4c-0.4-1.3-1.3-2.2-2.4-2.7
			c-0.1-2.6,1-3.5,3.7-4.3c1.7-0.5,3.4-0.5,5.2-0.6c3.5-0.1,7-0.1,10.5-0.1c6.4,0.1,12.7,0.4,19.1,0.7c2.6,0.1,5.4,0.5,7.9,0.1
			c2.1-0.4,2.2-1.1,3.1-2.7c0.4-0.8-0.2-0.2,0.4-0.8c0.2-0.2,0.9-0.3,1.2-0.4c0.9-0.4,1.6-0.9,2.2-1.6c1.8-2.1,2-5,2.1-7.7
			c0-0.4-0.4-0.8-0.8-0.8c-8.8,0.6-17.6,1-26.4,1.3c-6.3,0.2-12.5,0.4-18.8,0.3c-2.4,0-4.8-0.1-7.2-0.3c-2.1-0.2-3.6-0.1-3.6-2.2
			c2.9-0.2,4.4-2.3,4.5-5.2c0.2-3.1-0.6-5.5-3.6-6.7c-0.2-0.1-0.4-0.1-0.5,0c0,0,0,0-0.1,0c0.6-1,1-2.1,1.1-3.5
			c0.1-1.7-0.4-3.3-1.7-4.4c0.9-2.5,1.5-5,2-7.6c0-0.1,0.1-0.2,0.1-0.3c0.3-1.7,0.5-3.4,0.6-5.2c0.1-0.1,0.1-0.3,0-0.5
			c0.2-3.2,0.2-6.5,0-9.6c-0.3-5.4-0.7-11.4-2.7-16.5c1.2-1.2,1.5-3.1,1-4.8c-0.6-2.3-2.5-3.8-4.9-3.8c-2.3,0-4.3,1.3-5,3.5
			c-0.5,1.7-0.2,3.8,1,5.1c-2,5.1-2.5,11.1-2.8,16.5c-0.5,7.8-0.2,15.8,2.5,23.2c-1.4,1.2-2.1,2.8-1.9,4.7c0.1,1.3,0.6,2.3,1.1,3.2
			c-1.6-0.2-3.2,1-3.9,2.5c-0.8,1.7-0.5,4.4,0,6.1c0.6,2.1,2.1,3,4.2,3c-0.1,2.3-1.1,2.2-3.6,2.4c-2.4,0.2-4.8,0.3-7.2,0.3
			c-6.3,0-12.5-0.2-18.8-0.4c-8.8-0.4-17.6-0.9-26.4-1.5c-0.4,0-0.8,0.4-0.8,0.8c0.1,2.5,0.2,5.4,1.9,7.4c1,1.3,3.5,1.9,4,2.6
			c0.4,0.7,0.1,1.5,0.8,2.2c0.5,0.6,1.2,0.8,2,0.9c2.5,0.5,5.4,0.1,8,0c6.1-0.2,12.2-0.5,18.3-0.6
			C231.1,277.8,234.5,277.8,237.9,277.9z M252.8,384.6c-0.1,38.2-0.2,76.4-0.4,114.6c0,6.8,0,13.7-0.1,20.5
			c-1.5-5.5-3.1-11.1-4.6-16.6c-1-3.5-2.1-6.2-2.1-9.4c0-11.6,0.1-23.2,0.1-34.8c0.1-38.8,0.2-77.6,0.4-116.4c0-9.7,0.1-19.3,0.1-29
			c2.3,0,4.6,0,6.8,0C252.9,337.2,252.9,360.9,252.8,384.6z M261.2,392.3c-0.1,33.2-0.2,66.3-0.3,99.5c0,3.5-0.3,4.7-1.3,8.2
			c-1.9,6.6-3.8,13.1-5.6,19.7c0.1-22,0.1-44,0.2-66c0.1-38.2,0.2-76.4,0.4-114.6c0-8.5,0.1-17.1,0.1-25.6c2.3,0,4.6,0,6.8,0
			C261.4,339.8,261.3,366,261.2,392.3z M262.6,311.9c-5.8-0.1-11.7-0.1-17.5-0.1c0-0.9,0-1.9,0-2.8c5.8,0,11.7,0.1,17.5,0.1
			C262.6,310,262.6,311,262.6,311.9z M261.7,299.8c2.7,0.3,4.1,2.4,3.4,5.1c-0.5,1.8-2.1,2.2-3.8,2.3c-1.5,0.2-3.2,0-4.7,0
			c-3.6,0-7.2,0-10.8,0c-2.9-0.2-3.6-2.2-3.3-4.5c0.3-2,1.9-2.6,3.7-2.9c1.6-0.2,3.4,0,5.1,0C254.7,299.8,258.4,299.4,261.7,299.8z
			 M260.2,295c0,0.9,0,1.9,0,2.8c-4.2-0.1-8.4-0.1-12.5,0c0-0.9,0-1.9,0-2.8C251.8,295,256,295,260.2,295z M260.6,286.4
			c0.3,1.8-1.4,2.1-2.4,3c-1.1,1-1.1,2.5-0.8,3.9c-2.5,0-5,0-7.6,0c0.3-1,0.3-2.1-0.2-3.1c-0.8-1.7-3.6-2-2.9-4.3
			c0.3-0.8,0.9-1.5,1.7-1.7c0.1,0,0.2,0,0.2-0.1c0.3-0.1,0.7-0.1,1,0c0.7,0.1,1.2,0.5,1.8,0.8c-1,2.3-0.6,6.6,2.7,6.2
			c2.7-0.4,2.7-4.4,1.7-6.5c0.2-0.1,0.4-0.2,0.5-0.2C258.1,283.7,260.3,284.5,260.6,286.4z M253.1,285.4c0.5,0,0.9,0,1.3-0.1
			c0.5,1.1,1,3.7-0.3,4.2c-0.9,0.4-1.4-0.9-1.4-1.5C252.6,287,252.7,286.1,253.1,285.4z M285.8,276.5c0.4-0.9,1.4-1.1,2.4-1.2
			c1.2,0,2.2,0.4,2.7,1.4C289.1,276.7,287.5,276.6,285.8,276.5z M313.5,266.5c-0.2,3.6-1.3,6.7-5.2,7.4c-2.7-2.9-9.4-2.1-10.3-6.5
			C303.1,267.1,308.3,266.8,313.5,266.5z M283.6,267.9c4.3-0.1,8.5-0.3,12.8-0.5c0.4,2.1,1.9,3.5,3.9,4.5c2.1,1.1,6,1.4,7.2,3.5
			c-0.5,1.8-3.8,2-6.8,1.9c-2.7-3.7-6.1-6.2-10.9-6.5c-3-0.2-5.8,0.6-8.8,1c-3.6,0.5-9.7-0.1-12-3.7
			C273.8,268.2,278.7,268.1,283.6,267.9z M253.8,197.5c1.7-0.1,3.2,0.8,3.7,2.5c0.3,1.1,0.3,2.8-0.8,3.5c0,0,0,0-0.1,0.1
			c-0.3,0.2-0.5,0.5-0.3,0.9c0.5,1.1,0.8,2.3,1.1,3.5c-2.2-0.2-4.2-1-5.8-2.7c0.1-0.2,0.2-0.5,0.3-0.7c0.1-0.2,0.1-0.3,0.1-0.5
			c0-0.2-0.2-0.3-0.3-0.4C249.4,201.6,250.9,197.7,253.8,197.5z M251.1,206.9c1.9,1.7,4.2,2.5,6.7,2.7c0.3,1.3,0.5,2.6,0.6,3.9
			c-3-0.2-5.8-1.1-8-3.3c-0.1-0.1-0.1-0.1-0.2-0.1C250.6,209,250.8,208,251.1,206.9z M250,211.9c2.4,2.1,5.5,3,8.7,3.2
			c0.1,1.3,0.2,2.6,0.3,3.8c-3.4-0.2-6.8-0.9-9.5-3.1C249.6,214.5,249.8,213.2,250,211.9z M249.1,220.9c0.1-1.1,0.1-2.1,0.2-3.2
			c2.9,2,6.3,2.7,9.8,2.9c0,0.1,0,0.3,0,0.4c0.1,1.1,0.1,2.3,0.1,3.4c-3.6-0.2-7.1-1-10-3.3C249.2,221.1,249.2,221.1,249.1,220.9
			C249.1,221,249.1,221,249.1,220.9z M249,222.9c3,2.1,6.6,2.9,10.3,3.1c0,1.3,0,2.6-0.1,3.8c-3.6-0.2-7.3-1-10.3-3.3c0,0,0,0,0,0
			C248.9,225.4,248.9,224.2,249,222.9z M248.9,228.6c3,1.9,6.5,2.7,10.2,2.9c-0.1,1.3-0.2,2.6-0.4,3.9c-3.4-0.2-6.8-1-9.5-3.2
			C249,231,249,229.8,248.9,228.6z M249.9,237.6c-0.2-1.1-0.4-2.2-0.5-3.3c2.7,1.7,5.8,2.5,9,2.7c-0.2,1.3-0.5,2.6-0.9,3.9
			C254.6,240.6,252,239.7,249.9,237.6z M257,242.4c-0.1,0.5-0.3,0.9-0.5,1.3c0,0,0,0.1,0,0.1c-1.5,0.9-3.6,0.6-5,0.1
			c0-0.1,0-0.1,0-0.2c-0.4-1.2-0.8-2.4-1.1-3.6C252.4,241.5,254.6,242.2,257,242.4z M250.9,245.5c2,0.7,4.3,0.9,6.2-0.1
			c2.5,1.8,0.7,5.1-0.6,7.1c-1.8,0.3-3.4,0.1-5.2-0.1C249.9,250.1,248.7,247.6,250.9,245.5z M194.5,266.1c5.2,0.4,10.4,0.7,15.5,1
			c-1,4.4-7.7,3.5-10.4,6.4C195.7,272.8,194.7,269.8,194.5,266.1z M207.3,277c-3.1,0.1-6.3-0.1-6.8-1.9c1.2-2.1,5.2-2.5,7.3-3.5
			c2-1,3.4-2.3,3.9-4.4c4.3,0.2,8.5,0.4,12.8,0.6c4.9,0.2,9.8,0.4,14.7,0.3c-2.2,3.2-7.6,4-10.9,3.7c-3.3-0.3-6.5-1.3-9.9-1.1
			C213.5,270.9,210.1,273.3,207.3,277z M217.1,276.5c0.5-1,1.5-1.4,2.7-1.3c1,0,1.9,0.3,2.4,1.2
			C220.4,276.4,218.7,276.4,217.1,276.5z M223.8,276.3C223.8,276.3,223.8,276.2,223.8,276.3c-0.5-1.9-2.3-2.7-4.1-2.8
			c-2.1-0.1-3.9,0.9-4.5,3c-1,0-1.9,0.1-2.9,0.1c-0.7,0-1.7,0.1-3,0.2c2.3-2.7,5.1-4.5,8.8-4.7c3.7-0.2,7.3,1.1,11,1.3
			c4.1,0.2,9.7-1.5,11.7-5.5c0.9,0,1.9-0.1,2.8-0.1c1.7-0.1,3.7-0.1,5.4-0.6c2.2-0.7,2.2-2.2,2.1-4.4c0-0.6-0.6-0.9-1-0.8
			c-0.1,0-0.2-0.1-0.3-0.1c-2.9,0-3.1-2.4-3.2-4.7c-0.1-1.7,0.7-3.6,2.4-3.6c1.3-0.1,2.8,0.5,4.1,0.6c2,0.1,3.9,0,5.7-0.7
			c0,0,0,0,0.1,0c0,0,0,0,0.1,0c2.1,0.9,2.4,2.7,2.4,4.8c0,2.1-0.8,3.9-3.1,4c-0.1,0-0.1,0-0.2,0c-0.5-0.2-1.1,0.1-1.2,0.7
			c-0.6,4.9,3.6,4.6,7.4,4.8c0.9,0.1,1.9,0.1,2.8,0.1c2,4,7.5,5.7,11.7,5.6c3.5-0.1,6.9-1.3,10.4-1.2c3.9,0.1,6.9,1.9,9.3,4.8
			c-1.2-0.1-2.3-0.2-3-0.2c-1,0-1.9-0.1-2.9-0.1c-0.5-2.1-2.3-3.1-4.5-3.1c-1.8,0-3.5,0.8-4.1,2.7c0,0,0,0.1,0,0.1
			c-1.3,0-2.6-0.1-3.9-0.1c-4.9-0.1-9.9-0.4-14.8,0.2c-1.8,0.2-4.9,0.9-6.3,2.2c-1,1-1.1,2.3-1,3.7c-0.8-0.1-1.6,0.1-2.4,0.4
			c-0.9,0.4-1.7,1-2.8,0.7c-0.6-0.1-1.1-0.5-1.6-0.8c-0.7-0.3-1.3-0.6-2.1-0.6c0,0-0.1,0-0.1,0c-0.3-3.7-2.5-5.2-6.6-5.8
			c-5-0.7-10.3-0.4-15.3-0.3C226.1,276.2,225,276.3,223.8,276.3z"/>
		<ellipse transform="matrix(3.255607e-03 -1 1 3.255607e-03 37.7158 577.6566)" cx="308.6" cy="269.9" rx="1.6" ry="1.6"/>
		<path d="M252.1,274.2c1.3,1.3,1.1,7.5,1.9,7.5c0.8,0,0.7-6.3,1.9-7.5c1.2-1.2,5.8-0.9,5.8-1.7c0-0.7-4.6-0.5-5.7-1.7
			c-1.1-1.1-1.1-7.5-1.9-7.5c-0.8,0-0.5,6.2-1.9,7.5c-1.4,1.4-5.8,0.8-5.8,1.7C246.3,273.4,250.7,272.9,252.1,274.2z"/>
		<ellipse transform="matrix(3.022891e-03 -1 1 3.022891e-03 -147.5443 975.3064)" cx="415.4" cy="561.6" rx="1.6" ry="1.6"/>
		<path d="M416,555.9c-0.4-0.7-0.1-1.5-0.8-2.2c-0.5-0.6-1.2-0.8-2-0.9c-2.5-0.5-5.4-0.1-8,0c-6.1,0.2-12.2,0.5-18.3,0.6
			c-3.4,0-6.8,0-10.1-0.1c-1.8-0.1-3.7,0-5.4-0.4c-3-0.6-4.1-1.7-4.2-4.5c0.7-0.4,1.4-1,1.8-1.6c0.7-1.2,1-2.7,0.3-4
			c-0.3-0.6-0.9-1.1-1.4-1.5c-0.9-0.6-1.5-0.7-1.5-2.2c0-0.4,0.1-0.9,0.3-1.3c0.5,0,0.9,0,1.4,0c0.4,0,0.8-0.4,0.8-0.8
			c0-1.3,0-2.7,0-4c0,0,0,0,0.1,0c3.3-0.2,5-1.9,5-5.3c0-2.4-0.9-4-2.6-4.8c0,0,0,0,0,0c0-1.5,0-3,0-4.4c0-0.4-0.4-0.8-0.8-0.8
			c-0.1,0-0.2,0-0.3,0c0.1-26.5,0.2-53,0.2-79.5c0.1-33,0.2-66,0.3-99c0-3.2-0.4-5.3-1.3-8.5c-2.4-8.5-4.7-16.9-7.1-25.4
			c0,0,0,0,0-0.1c0-0.1,0-0.1-0.1-0.1c0,0-0.1-0.1-0.1-0.1c0,0-0.1-0.1-0.1-0.1c-0.3-0.2-0.7-0.2-1,0c0,0-0.1,0.1-0.1,0.1
			c0,0-0.1,0.1-0.1,0.1c0,0-0.1,0.1-0.1,0.1c0,0,0,0,0,0.1c-2.2,7.5-4.3,15-6.5,22.5c-0.9,3-2.1,6-2.1,9.2c0,11.5-0.1,23-0.1,34.5
			c-0.1,38.8-0.2,77.7-0.4,116.5c0,9.9-0.1,19.7-0.1,29.6c-0.1,0-0.2,0-0.3,0c-0.2,0-0.4,0.1-0.5,0.2c0,0,0,0,0,0c0,0,0,0-0.1,0.1
			c-0.1,0.1-0.2,0.3-0.2,0.5c0,1.5,0,3,0,4.4c0,0.1,0,0.1,0,0.2c-4.2,2.3-3.4,9.5,2.4,9.9c0,1.3,0,2.7,0,4c0,0.4,0.4,0.8,0.8,0.8
			c0.6,0,1.2,0,1.8,0c0.3,0.9,0.4,2-0.2,2.7c-0.5,0.6-1.5,0.9-2,1.5c-0.9,1-1.1,2.2-0.7,3.4c0.4,1.3,1.3,2.2,2.4,2.7
			c0.1,2.6-1,3.5-3.7,4.3c-1.7,0.5-3.4,0.5-5.2,0.6c-3.5,0.1-7,0.1-10.5,0.1c-6.4-0.1-12.7-0.4-19.1-0.7c-2.6-0.1-5.3-0.5-7.9-0.1
			c-2.1,0.4-2.2,1.1-3.1,2.7c-0.4,0.8,0.2,0.2-0.4,0.8c-0.2,0.2-0.9,0.3-1.2,0.4c-0.9,0.4-1.6,0.9-2.2,1.6c-1.8,2.1-2,5-2.1,7.7
			c0,0.4,0.4,0.8,0.8,0.8c8.8-0.6,17.6-1,26.4-1.3c6.3-0.2,12.5-0.4,18.8-0.3c2.4,0,4.8,0.1,7.2,0.3c2.1,0.2,3.6,0.1,3.6,2.2
			c-2.9,0.2-4.4,2.3-4.5,5.2c-0.2,3.1,0.6,5.5,3.6,6.7c0.2,0.1,0.4,0.1,0.5,0c0,0,0,0,0.1,0c-0.6,1-1,2.1-1.1,3.5
			c-0.1,1.7,0.4,3.3,1.7,4.4c-0.9,2.5-1.5,5-2,7.6c0,0.1-0.1,0.2-0.1,0.3c-0.3,1.7-0.5,3.4-0.6,5.2c-0.1,0.1-0.1,0.3,0,0.5
			c-0.2,3.2-0.2,6.5,0,9.6c0.3,5.4,0.7,11.4,2.7,16.5c-1.2,1.2-1.5,3.1-1,4.8c0.6,2.3,2.5,3.8,4.9,3.8c2.3,0,4.3-1.3,5-3.5
			c0.5-1.7,0.2-3.8-1-5.1c2-5.1,2.5-11.1,2.8-16.5c0.5-7.8,0.2-15.8-2.5-23.2c1.4-1.2,2.1-2.8,1.9-4.7c-0.1-1.3-0.6-2.3-1.1-3.2
			c1.6,0.2,3.2-1,3.9-2.5c0.8-1.7,0.5-4.4,0-6.1c-0.6-2.1-2.1-3-4.2-3c0.1-2.3,1.1-2.2,3.6-2.4c2.4-0.2,4.8-0.3,7.2-0.3
			c6.3,0,12.5,0.2,18.8,0.4c8.8,0.4,17.6,0.9,26.4,1.5c0.4,0,0.8-0.4,0.8-0.8c-0.1-2.5-0.2-5.4-1.9-7.4
			C419,557.3,416.5,556.7,416,555.9z M397.6,554.7c-0.5,1-1.5,1.4-2.7,1.3c-1,0-1.9-0.3-2.4-1.2
			C394.2,554.8,395.9,554.8,397.6,554.7z M361.9,446.7c0.1-38.2,0.2-76.4,0.4-114.6c0-6.8,0-13.7,0.1-20.5
			c1.5,5.5,3.1,11.1,4.6,16.6c1,3.5,2.1,6.2,2.1,9.4c0,11.6-0.1,23.2-0.1,34.8c-0.1,38.8-0.2,77.6-0.4,116.4c0,9.7-0.1,19.3-0.1,29
			c-2.3,0-4.6,0-6.8,0C361.7,494.1,361.8,470.4,361.9,446.7z M353.4,439c0.1-33.2,0.2-66.3,0.3-99.5c0-3.5,0.3-4.7,1.3-8.2
			c1.9-6.6,3.8-13.1,5.6-19.7c-0.1,22-0.1,44-0.2,66c-0.1,38.2-0.2,76.4-0.4,114.6c0,8.5-0.1,17.1-0.1,25.6c-2.3,0-4.6,0-6.8,0
			C353.3,491.5,353.3,465.2,353.4,439z M352.1,519.3c5.8,0.1,11.7,0.1,17.5,0.1c0,0.9,0,1.9,0,2.8c-5.8,0-11.7-0.1-17.5-0.1
			C352.1,521.2,352.1,520.3,352.1,519.3z M352.9,531.4c-2.7-0.3-4.1-2.4-3.4-5.1c0.5-1.8,2.1-2.2,3.8-2.3c1.5-0.2,3.2,0,4.7,0
			c3.6,0,7.2,0,10.8,0c2.9,0.2,3.6,2.2,3.3,4.5c-0.3,2-1.9,2.6-3.7,2.9c-1.6,0.2-3.4,0-5.1,0C360,531.4,356.3,531.8,352.9,531.4z
			 M354.5,536.3c0-0.9,0-1.9,0-2.8c4.2,0.1,8.4,0.1,12.5,0c0,0.9,0,1.9,0,2.8C362.9,536.3,358.7,536.2,354.5,536.3z M354,544.8
			c-0.3-1.8,1.4-2.1,2.4-3c1.1-1,1.1-2.5,0.8-3.9c2.5,0,5,0,7.6,0c-0.3,1-0.3,2.1,0.2,3.1c0.8,1.7,3.6,2,2.9,4.3
			c-0.3,0.8-0.9,1.5-1.7,1.7c-0.1,0-0.2,0-0.2,0.1c-0.3,0.1-0.7,0.1-1,0c-0.7-0.1-1.2-0.5-1.8-0.8c1-2.3,0.6-6.6-2.7-6.2
			c-2.7,0.4-2.7,4.4-1.7,6.5c-0.2,0.1-0.4,0.2-0.5,0.2C356.5,547.6,354.3,546.7,354,544.8z M361.5,545.8c-0.5,0-0.9,0-1.3,0.1
			c-0.5-1.1-1-3.7,0.3-4.2c0.9-0.4,1.4,0.9,1.4,1.5C362.1,544.2,361.9,545.1,361.5,545.8z M328.9,554.7c-0.4,0.9-1.4,1.1-2.4,1.2
			c-1.2,0-2.2-0.4-2.7-1.4C325.5,554.6,327.2,554.6,328.9,554.7z M301.2,564.7c0.2-3.6,1.3-6.7,5.2-7.4c2.7,2.9,9.4,2.1,10.3,6.5
			C311.5,564.1,306.4,564.4,301.2,564.7z M331.1,563.3c-4.3,0.1-8.5,0.3-12.8,0.5c-0.4-2.1-1.9-3.5-3.9-4.5c-2.1-1.1-6-1.4-7.2-3.5
			c0.5-1.8,3.8-2,6.8-1.9c2.7,3.7,6.1,6.2,10.9,6.5c3,0.2,5.8-0.6,8.8-1c3.6-0.5,9.7,0.1,12,3.7C340.9,563,336,563.1,331.1,563.3z
			 M360.9,633.7c-1.7,0.1-3.2-0.8-3.7-2.5c-0.3-1.1-0.3-2.8,0.8-3.5c0,0,0,0,0.1-0.1c0.3-0.2,0.5-0.5,0.3-0.9
			c-0.5-1.1-0.8-2.3-1.1-3.5c2.2,0.2,4.2,1,5.8,2.7c-0.1,0.2-0.2,0.5-0.3,0.7c-0.1,0.2-0.1,0.3-0.1,0.5c0,0.2,0.2,0.3,0.3,0.4
			C365.3,629.6,363.8,633.5,360.9,633.7z M363.5,624.3c-1.9-1.7-4.2-2.5-6.7-2.7c-0.3-1.3-0.5-2.6-0.6-3.9c3,0.2,5.8,1.1,8,3.3
			c0.1,0.1,0.1,0.1,0.2,0.1C364.1,622.2,363.8,623.3,363.5,624.3z M364.7,619.3c-2.4-2.1-5.5-3-8.7-3.2c-0.1-1.3-0.2-2.6-0.3-3.8
			c3.4,0.2,6.8,0.9,9.5,3.1C365,616.7,364.9,618,364.7,619.3z M365.6,610.3c-0.1,1.1-0.1,2.1-0.2,3.2c-2.9-2-6.3-2.7-9.8-2.9
			c0-0.1,0-0.3,0-0.4c-0.1-1.1-0.1-2.3-0.1-3.4c3.6,0.2,7.1,1,10,3.3C365.4,610.1,365.5,610.2,365.6,610.3
			C365.6,610.2,365.6,610.3,365.6,610.3z M365.7,608.3c-3-2.1-6.6-2.9-10.3-3.1c0-1.3,0-2.6,0.1-3.8c3.6,0.2,7.3,1,10.3,3.3
			c0,0,0,0,0,0C365.7,605.8,365.7,607.1,365.7,608.3z M365.7,602.6c-3-1.9-6.5-2.7-10.2-2.9c0.1-1.3,0.2-2.6,0.4-3.9
			c3.4,0.2,6.8,1,9.5,3.2C365.6,600.3,365.7,601.4,365.7,602.6z M364.8,593.6c0.2,1.1,0.4,2.2,0.5,3.3c-2.7-1.7-5.8-2.5-9-2.7
			c0.2-1.3,0.5-2.6,0.9-3.9C360,590.6,362.7,591.5,364.8,593.6z M357.6,588.8c0.1-0.5,0.3-0.9,0.5-1.3c0,0,0-0.1,0-0.1
			c1.5-0.9,3.6-0.6,5-0.1c0,0.1,0,0.1,0,0.2c0.4,1.2,0.8,2.4,1.1,3.6C362.3,589.7,360,589,357.6,588.8z M363.8,585.7
			c-2-0.7-4.3-0.9-6.2,0.1c-2.5-1.8-0.7-5.1,0.6-7.1c1.8-0.3,3.4-0.1,5.2,0.1C364.8,581.1,366,583.7,363.8,585.7z M373.8,563.2
			c-0.9,0-1.9,0.1-2.8,0.1c-1.7,0.1-3.7,0.1-5.4,0.6c-2.2,0.7-2.2,2.2-2.1,4.4c0,0.6,0.6,0.9,1,0.8c0.1,0,0.2,0.1,0.3,0.1
			c2.9,0,3.1,2.4,3.2,4.7c0.1,1.7-0.7,3.6-2.4,3.6c-1.3,0.1-2.8-0.5-4.1-0.6c-2-0.1-3.9,0-5.7,0.7c0,0,0,0-0.1,0c0,0,0,0-0.1,0
			c-2.1-0.9-2.4-2.7-2.4-4.8c0-2.1,0.8-3.9,3.1-4c0.1,0,0.1,0,0.2,0c0.5,0.2,1.1-0.1,1.2-0.7c0.6-4.9-3.6-4.6-7.4-4.8
			c-0.9-0.1-1.9-0.1-2.8-0.1c-2-4-7.5-5.7-11.7-5.6c-3.5,0.1-6.9,1.3-10.4,1.2c-3.9-0.1-6.9-1.9-9.3-4.8c1.2,0.1,2.3,0.2,3,0.2
			c1,0,1.9,0.1,2.9,0.1c0.5,2.1,2.3,3.1,4.5,3.1c1.8,0,3.5-0.8,4.1-2.7c0,0,0-0.1,0-0.1c1.3,0,2.6,0.1,3.9,0.1
			c4.9,0.1,9.9,0.4,14.8-0.2c1.8-0.2,4.9-0.9,6.3-2.2c1-1,1.1-2.3,1-3.7c0.8,0.1,1.6-0.1,2.4-0.4c0.9-0.4,1.7-1,2.8-0.7
			c0.6,0.1,1.1,0.5,1.6,0.8c0.7,0.3,1.3,0.6,2.1,0.6c0,0,0.1,0,0.1,0c0.3,3.7,2.5,5.2,6.6,5.8c5,0.7,10.3,0.4,15.3,0.3
			c1.1,0,2.3-0.1,3.4-0.1c0,0,0,0.1,0,0.1c0.5,1.8,2.2,2.6,4,2.7c2.1,0.1,3.9-0.9,4.5-3c1,0,1.9-0.1,2.9-0.1c0.7,0,1.7-0.1,3-0.2
			c-2.3,2.7-5.1,4.5-8.8,4.7c-3.7,0.2-7.3-1.1-11-1.3C381.3,557.6,375.8,559.3,373.8,563.2z M403,564.1c-4.3-0.2-8.5-0.4-12.8-0.6
			c-4.9-0.2-9.8-0.4-14.7-0.3c2.2-3.2,7.6-4,10.9-3.7c3.3,0.3,6.5,1.3,9.9,1.1c4.8-0.3,8.2-2.7,10.9-6.5c3.1-0.1,6.3,0.1,6.8,1.9
			c-1.2,2.1-5.2,2.5-7.3,3.5C405,560.6,403.5,561.9,403,564.1z M404.7,564.1c1-4.4,7.7-3.5,10.4-6.4c4,0.7,5,3.7,5.2,7.4
			C415,564.7,409.8,564.4,404.7,564.1z"/>
		<ellipse transform="matrix(3.255607e-03 -1 1 3.255607e-03 -256.2656 865.5184)" cx="306" cy="561.3" rx="1.6" ry="1.6"/>
		<path d="M362.6,557c-1.3-1.3-1.1-7.5-1.9-7.5c-0.8,0-0.7,6.3-1.9,7.5c-1.2,1.2-5.8,0.9-5.8,1.7s4.6,0.5,5.7,1.7
			c1.1,1.1,1.1,7.5,1.9,7.5c0.8,0,0.5-6.2,1.9-7.5c1.4-1.4,5.8-0.8,5.8-1.7C368.4,557.8,363.9,558.3,362.6,557z"/>
		<ellipse transform="matrix(3.022891e-03 -1 1 3.022891e-03 -364.3031 757.8914)" cx="197.9" cy="561.6" rx="1.6" ry="1.6"/>
		<path d="M204.4,566c-0.1-2.5-0.2-5.4-1.9-7.4c-1-1.3-3.5-1.9-4-2.6c-0.4-0.7-0.1-1.5-0.8-2.2c-0.5-0.6-1.2-0.8-2-0.9
			c-2.5-0.5-5.4-0.1-8,0c-6.1,0.2-12.2,0.5-18.3,0.6c-3.4,0-6.8,0-10.1-0.1c-1.8-0.1-3.7,0-5.4-0.4c-3-0.6-4.1-1.7-4.2-4.5
			c0.7-0.4,1.4-1,1.8-1.6c0.7-1.2,1-2.7,0.3-4c-0.3-0.6-0.9-1.1-1.4-1.5c-0.9-0.6-1.5-0.7-1.5-2.2c0-0.4,0.1-0.9,0.3-1.3
			c0.5,0,0.9,0,1.4,0c0.4,0,0.8-0.4,0.8-0.8c0-1.3,0-2.7,0-4c0,0,0,0,0.1,0c3.3-0.2,5-1.9,5-5.3c0-2.4-0.9-4-2.6-4.8c0,0,0,0,0,0
			c0-1.5,0-3,0-4.4c0-0.4-0.4-0.8-0.8-0.8c-0.1,0-0.2,0-0.3,0c0.1-26.5,0.2-53,0.2-79.5c0.1-33,0.2-66,0.3-99c0-3.2-0.4-5.3-1.3-8.5
			c-2.4-8.5-4.7-16.9-7.1-25.4c0,0,0,0,0-0.1c0-0.1,0-0.1-0.1-0.1c0,0-0.1-0.1-0.1-0.1c0,0-0.1-0.1-0.1-0.1c-0.3-0.2-0.7-0.2-1,0
			c0,0-0.1,0.1-0.1,0.1c0,0-0.1,0.1-0.1,0.1c0,0-0.1,0.1-0.1,0.1c0,0,0,0,0,0.1c-2.2,7.5-4.3,15-6.5,22.5c-0.9,3-2.1,6-2.1,9.2
			c0,11.5-0.1,23-0.1,34.5c-0.1,38.8-0.2,77.7-0.4,116.5c0,9.9-0.1,19.7-0.1,29.6c-0.1,0-0.2,0-0.3,0c-0.2,0-0.4,0.1-0.5,0.2
			c0,0,0,0,0,0c0,0,0,0-0.1,0.1c-0.1,0.1-0.2,0.3-0.2,0.5c0,1.5,0,3,0,4.4c0,0.1,0,0.1,0,0.2c-4.2,2.3-3.4,9.5,2.4,9.9
			c0,1.3,0,2.7,0,4c0,0.4,0.4,0.8,0.8,0.8c0.6,0,1.2,0,1.8,0c0.3,0.9,0.4,2-0.2,2.7c-0.5,0.6-1.5,0.9-2,1.5c-0.9,1-1.1,2.2-0.7,3.4
			c0.4,1.3,1.3,2.2,2.4,2.7c0.1,2.6-1,3.5-3.7,4.3c-1.7,0.5-3.4,0.5-5.2,0.6c-3.5,0.1-7,0.1-10.5,0.1c-6.4-0.1-12.7-0.4-19.1-0.7
			c-2.6-0.1-5.3-0.5-7.9-0.1c-2.1,0.4-2.2,1.1-3.1,2.7c-0.4,0.8,0.2,0.2-0.4,0.8c-0.2,0.2-0.9,0.3-1.2,0.4c-0.9,0.4-1.6,0.9-2.2,1.6
			c-1.8,2.1-2,5-2.1,7.7c0,0.4,0.4,0.8,0.8,0.8c8.8-0.6,17.6-1,26.4-1.3c6.3-0.2,12.5-0.4,18.8-0.3c2.4,0,4.8,0.1,7.2,0.3
			c2.1,0.2,3.6,0.1,3.6,2.2c-2.9,0.2-4.4,2.3-4.5,5.2c-0.2,3.1,0.6,5.5,3.6,6.7c0.2,0.1,0.4,0.1,0.5,0c0,0,0,0,0.1,0
			c-0.6,1-1,2.1-1.1,3.5c-0.1,1.7,0.4,3.3,1.7,4.4c-0.9,2.5-1.5,5-2,7.6c0,0.1-0.1,0.2-0.1,0.3c-0.3,1.7-0.5,3.4-0.6,5.2
			c-0.1,0.1-0.1,0.3,0,0.5c-0.2,3.2-0.2,6.5,0,9.6c0.3,5.4,0.7,11.4,2.7,16.5c-1.2,1.2-1.5,3.1-1,4.8c0.6,2.3,2.5,3.8,4.9,3.8
			c2.3,0,4.3-1.3,5-3.5c0.5-1.7,0.2-3.8-1-5.1c2-5.1,2.5-11.1,2.8-16.5c0.5-7.8,0.2-15.8-2.5-23.2c1.4-1.2,2.1-2.8,1.9-4.7
			c-0.1-1.3-0.6-2.3-1.1-3.2c1.6,0.2,3.2-1,3.9-2.5c0.8-1.7,0.5-4.4,0-6.1c-0.6-2.1-2.1-3-4.2-3c0.1-2.3,1.1-2.2,3.6-2.4
			c2.4-0.2,4.8-0.3,7.2-0.3c6.3,0,12.5,0.2,18.8,0.4c8.8,0.4,17.6,0.9,26.4,1.5C204.1,566.8,204.5,566.4,204.4,566z M180.2,554.7
			c-0.5,1-1.5,1.4-2.7,1.3c-1,0-1.9-0.3-2.4-1.2C176.8,554.8,178.5,554.8,180.2,554.7z M144.5,446.7c0.1-38.2,0.2-76.4,0.4-114.6
			c0-6.8,0-13.7,0.1-20.5c1.5,5.5,3.1,11.1,4.6,16.6c1,3.5,2.1,6.2,2.1,9.4c0,11.6-0.1,23.2-0.1,34.8c-0.1,38.8-0.2,77.6-0.4,116.4
			c0,9.7-0.1,19.3-0.1,29c-2.3,0-4.6,0-6.8,0C144.3,494.1,144.4,470.4,144.5,446.7z M136,439c0.1-33.2,0.2-66.3,0.3-99.5
			c0-3.5,0.3-4.7,1.3-8.2c1.9-6.6,3.8-13.1,5.6-19.7c-0.1,22-0.1,44-0.2,66c-0.1,38.2-0.2,76.4-0.4,114.6c0,8.5-0.1,17.1-0.1,25.6
			c-2.3,0-4.6,0-6.8,0C135.8,491.5,135.9,465.2,136,439z M134.7,519.3c5.8,0.1,11.7,0.1,17.5,0.1c0,0.9,0,1.9,0,2.8
			c-5.8,0-11.7-0.1-17.5-0.1C134.7,521.2,134.7,520.3,134.7,519.3z M135.5,531.4c-2.7-0.3-4.1-2.4-3.4-5.1c0.5-1.8,2.1-2.2,3.8-2.3
			c1.5-0.2,3.2,0,4.7,0c3.6,0,7.2,0,10.8,0c2.9,0.2,3.6,2.2,3.3,4.5c-0.3,2-1.9,2.6-3.7,2.9c-1.6,0.2-3.4,0-5.1,0
			C142.5,531.4,138.9,531.8,135.5,531.4z M137.1,536.3c0-0.9,0-1.9,0-2.8c4.2,0.1,8.4,0.1,12.5,0c0,0.9,0,1.9,0,2.8
			C145.4,536.3,141.3,536.2,137.1,536.3z M136.6,544.8c-0.3-1.8,1.4-2.1,2.4-3c1.1-1,1.1-2.5,0.8-3.9c2.5,0,5,0,7.6,0
			c-0.3,1-0.3,2.1,0.2,3.1c0.8,1.7,3.6,2,2.9,4.3c-0.3,0.8-0.9,1.5-1.7,1.7c-0.1,0-0.2,0-0.2,0.1c-0.3,0.1-0.7,0.1-1,0
			c-0.7-0.1-1.2-0.5-1.8-0.8c1-2.3,0.6-6.6-2.7-6.2c-2.7,0.4-2.7,4.4-1.7,6.5c-0.2,0.1-0.4,0.2-0.5,0.2
			C139.1,547.6,136.9,546.7,136.6,544.8z M144.1,545.8c-0.5,0-0.9,0-1.3,0.1c-0.5-1.1-1-3.7,0.3-4.2c0.9-0.4,1.4,0.9,1.4,1.5
			C144.6,544.2,144.5,545.1,144.1,545.8z M111.5,554.7c-0.4,0.9-1.4,1.1-2.4,1.2c-1.2,0-2.2-0.4-2.7-1.4
			C108.1,554.6,109.8,554.6,111.5,554.7z M83.8,564.7c0.2-3.6,1.3-6.7,5.2-7.4c2.7,2.9,9.4,2.1,10.3,6.5
			C94.1,564.1,88.9,564.4,83.8,564.7z M113.7,563.3c-4.3,0.1-8.5,0.3-12.8,0.5c-0.4-2.1-1.9-3.5-3.9-4.5c-2.1-1.1-6-1.4-7.2-3.5
			c0.5-1.8,3.8-2,6.8-1.9c2.7,3.7,6.1,6.2,10.9,6.5c3,0.2,5.8-0.6,8.8-1c3.6-0.5,9.7,0.1,12,3.7C123.5,563,118.6,563.1,113.7,563.3z
			 M143.4,633.7c-1.7,0.1-3.2-0.8-3.7-2.5c-0.3-1.1-0.3-2.8,0.8-3.5c0,0,0,0,0.1-0.1c0.3-0.2,0.5-0.5,0.3-0.9
			c-0.5-1.1-0.8-2.3-1.1-3.5c2.2,0.2,4.2,1,5.8,2.7c-0.1,0.2-0.2,0.5-0.3,0.7c-0.1,0.2-0.1,0.3-0.1,0.5c0,0.2,0.1,0.3,0.3,0.4
			C147.8,629.6,146.4,633.5,143.4,633.7z M146.1,624.3c-1.9-1.7-4.2-2.5-6.7-2.7c-0.3-1.3-0.5-2.6-0.6-3.9c3,0.2,5.8,1.1,8,3.3
			c0.1,0.1,0.1,0.1,0.2,0.1C146.7,622.2,146.4,623.3,146.1,624.3z M147.2,619.3c-2.4-2.1-5.5-3-8.7-3.2c-0.1-1.3-0.2-2.6-0.3-3.8
			c3.4,0.2,6.8,0.9,9.5,3.1C147.6,616.7,147.5,618,147.2,619.3z M148.1,610.3c-0.1,1.1-0.1,2.1-0.2,3.2c-2.9-2-6.3-2.7-9.8-2.9
			c0-0.1,0-0.3,0-0.4c-0.1-1.1-0.1-2.3-0.1-3.4c3.6,0.2,7.1,1,10,3.3C148,610.1,148.1,610.2,148.1,610.3
			C148.1,610.2,148.1,610.3,148.1,610.3z M148.2,608.3c-3-2.1-6.6-2.9-10.3-3.1c0-1.3,0-2.6,0.1-3.8c3.6,0.2,7.3,1,10.3,3.3
			c0,0,0,0,0,0C148.3,605.8,148.3,607.1,148.2,608.3z M148.3,602.6c-3-1.9-6.5-2.7-10.2-2.9c0.1-1.3,0.2-2.6,0.4-3.9
			c3.4,0.2,6.8,1,9.5,3.2C148.2,600.3,148.3,601.4,148.3,602.6z M147.4,593.6c0.2,1.1,0.4,2.2,0.5,3.3c-2.7-1.7-5.8-2.5-9-2.7
			c0.2-1.3,0.5-2.6,0.9-3.9C142.6,590.6,145.3,591.5,147.4,593.6z M140.2,588.8c0.1-0.5,0.3-0.9,0.5-1.3c0,0,0-0.1,0-0.1
			c1.5-0.9,3.6-0.6,5-0.1c0,0.1,0,0.1,0,0.2c0.4,1.2,0.8,2.4,1.1,3.6C144.9,589.7,142.6,589,140.2,588.8z M146.3,585.7
			c-2-0.7-4.3-0.9-6.2,0.1c-2.5-1.8-0.7-5.1,0.6-7.1c1.8-0.3,3.4-0.1,5.2,0.1C147.4,581.1,148.5,583.7,146.3,585.7z M156.3,563.2
			c-0.9,0-1.9,0.1-2.8,0.1c-1.7,0.1-3.7,0.1-5.4,0.6c-2.2,0.7-2.2,2.2-2.1,4.4c0,0.6,0.6,0.9,1,0.8c0.1,0,0.2,0.1,0.3,0.1
			c2.9,0,3.1,2.4,3.2,4.7c0.1,1.7-0.7,3.6-2.4,3.6c-1.3,0.1-2.8-0.5-4.1-0.6c-2-0.1-3.9,0-5.7,0.7c0,0,0,0-0.1,0c0,0,0,0-0.1,0
			c-2.1-0.9-2.4-2.7-2.4-4.8c0-2.1,0.8-3.9,3.1-4c0.1,0,0.1,0,0.2,0c0.5,0.2,1.1-0.1,1.2-0.7c0.6-4.9-3.6-4.6-7.4-4.8
			c-0.9-0.1-1.9-0.1-2.8-0.1c-2-4-7.5-5.7-11.7-5.6c-3.5,0.1-6.9,1.3-10.4,1.2c-3.9-0.1-6.9-1.9-9.3-4.8c1.2,0.1,2.3,0.2,3,0.2
			c1,0,1.9,0.1,2.9,0.1c0.5,2.1,2.3,3.1,4.5,3.1c1.8,0,3.5-0.8,4.1-2.7c0,0,0-0.1,0-0.1c1.3,0,2.6,0.1,3.9,0.1
			c4.9,0.1,9.9,0.4,14.8-0.2c1.8-0.2,4.9-0.9,6.3-2.2c1-1,1.1-2.3,1-3.7c0.8,0.1,1.6-0.1,2.4-0.4c0.9-0.4,1.7-1,2.8-0.7
			c0.6,0.1,1.1,0.5,1.6,0.8c0.7,0.3,1.3,0.6,2.1,0.6c0,0,0.1,0,0.1,0c0.3,3.7,2.5,5.2,6.6,5.8c5,0.7,10.3,0.4,15.3,0.3
			c1.1,0,2.3-0.1,3.4-0.1c0,0,0,0.1,0,0.1c0.5,1.8,2.2,2.6,4,2.7c2.1,0.1,3.9-0.9,4.5-3c1,0,1.9-0.1,2.9-0.1c0.7,0,1.7-0.1,3-0.2
			c-2.3,2.7-5.1,4.5-8.8,4.7c-3.7,0.2-7.3-1.1-11-1.3C163.9,557.6,158.3,559.3,156.3,563.2z M185.6,564.1c-4.3-0.2-8.5-0.4-12.8-0.6
			c-4.9-0.2-9.8-0.4-14.7-0.3c2.2-3.2,7.6-4,10.9-3.7c3.3,0.3,6.5,1.3,9.9,1.1c4.8-0.3,8.2-2.7,10.9-6.5c3.1-0.1,6.3,0.1,6.8,1.9
			c-1.2,2.1-5.2,2.5-7.3,3.5C187.5,560.6,186.1,561.9,185.6,564.1z M187.2,564.1c1-4.4,7.7-3.5,10.4-6.4c4,0.7,5,3.7,5.2,7.4
			C197.6,564.7,192.4,564.4,187.2,564.1z"/>
		<ellipse transform="matrix(3.023066e-03 -1 1 3.023066e-03 -472.9538 648.2339)" cx="88.6" cy="561.3" rx="1.6" ry="1.6"/>
		<path d="M145.2,557c-1.3-1.3-1.1-7.5-1.9-7.5c-0.8,0-0.7,6.3-1.9,7.5c-1.2,1.2-5.8,0.9-5.8,1.7c0,0.7,4.6,0.5,5.7,1.7
			c1.1,1.1,1.1,7.5,1.9,7.5c0.8,0,0.5-6.2,1.9-7.5s5.8-0.8,5.8-1.7C150.9,557.8,146.5,558.3,145.2,557z"/>
		<path d="M276.1,597.3c-1.7-0.3-3.4-0.4-5.1-0.4c-21.2-0.3-38.7,16.6-39,37.8c-0.3,21.2,16.6,38.7,37.8,39c1.7,0,3.5-0.1,5.2-0.3
			c-18.7-2.8-32.9-19.1-32.6-38.6C242.6,615.4,257.3,599.5,276.1,597.3z"/>
		<path d="M136.4,266c0.9,0.4,1.8,0.8,2.7,1.2c0.5,0.2,1.1,0.5,1.6,0.7c0.1,0.1,0.2,0.1,0.2,0.1c0,0,0,0,0,0.1
			c1,1.7,1.2,4.2,1.8,6.1c0.1,0.4,0.7,0.4,0.8,0c0.6-1.9,0.9-4.4,1.8-6.1c0,0,0,0,0-0.1c0,0,0.1,0,0.1-0.1c0.5-0.3,1.2-0.5,1.7-0.8
			c0.9-0.4,1.8-0.8,2.7-1.2c0.4-0.2,0.2-0.6-0.1-0.7c-0.9-0.4-1.8-0.8-2.7-1.1c-1.1-0.5-1.7-0.5-2-1.5c-0.6-1.9-1.1-3.9-1.6-5.9
			c0,0,0,0,0-0.1c0,0,0,0,0-0.1c-0.1-0.1-0.2-0.2-0.3-0.2c-0.1,0-0.3,0-0.3,0.2c0,0,0,0.1,0,0.1c0,0,0,0,0,0c0,0,0,0,0,0
			c0,0,0,0,0,0c-0.5,1.9-1,3.9-1.5,5.9c-0.5,1.5-3.3,2.1-4.7,2.7C136.3,265.4,136.1,265.8,136.4,266z M141.9,263.5
			c0.6-1,0.7-2.7,1-3.7c0.1-0.5,0.2-0.9,0.4-1.4c0.1,0.5,0.3,0.9,0.4,1.4c0.3,1.1,0.4,2.7,1,3.7c0.6,1.1,2.7,1.7,4.2,2.2
			c-0.7,0.3-1.5,0.7-2.2,1c-0.6,0.3-1.5,0.5-1.9,1c-0.6,0.8-0.7,2.4-1,3.4c-0.2,0.6-0.3,1.1-0.5,1.7c-0.2-0.6-0.3-1.1-0.5-1.7
			c-0.3-0.9-0.4-2.6-1-3.4c-0.4-0.6-1.2-0.7-1.9-1c-0.7-0.3-1.5-0.7-2.2-1C139.2,265.2,141.2,264.6,141.9,263.5z"/>
		<path d="M353.9,266c0.9,0.4,1.8,0.8,2.7,1.2c0.5,0.2,1.1,0.5,1.6,0.7c0.1,0.1,0.2,0.1,0.2,0.1c0,0,0,0,0,0.1
			c1,1.7,1.2,4.2,1.8,6.1c0.1,0.4,0.7,0.4,0.8,0c0.6-1.9,0.9-4.4,1.8-6.1c0,0,0,0,0-0.1c0,0,0.1,0,0.1-0.1c0.5-0.3,1.2-0.5,1.7-0.8
			c0.9-0.4,1.8-0.8,2.7-1.2c0.4-0.2,0.2-0.6-0.1-0.7c-0.9-0.4-1.8-0.8-2.7-1.1c-1.1-0.5-1.7-0.5-2-1.5c-0.6-1.9-1.1-3.9-1.6-5.9
			c0,0,0,0,0-0.1c0,0,0,0,0-0.1c-0.1-0.1-0.2-0.2-0.3-0.2c-0.1,0-0.3,0-0.3,0.2c0,0,0,0.1,0,0.1c0,0,0,0,0,0c0,0,0,0,0,0
			c0,0,0,0,0,0c-0.5,1.9-1,3.9-1.5,5.9c-0.5,1.5-3.3,2.1-4.7,2.7C353.7,265.4,353.5,265.8,353.9,266z M359.3,263.5
			c0.6-1,0.7-2.7,1-3.7c0.1-0.5,0.2-0.9,0.4-1.4c0.1,0.5,0.3,0.9,0.4,1.4c0.3,1.1,0.4,2.7,1,3.7c0.6,1.1,2.7,1.7,4.2,2.2
			c-0.7,0.3-1.5,0.7-2.2,1c-0.6,0.3-1.5,0.5-1.9,1c-0.6,0.8-0.7,2.4-1,3.4c-0.2,0.6-0.3,1.1-0.5,1.7c-0.2-0.6-0.3-1.1-0.5-1.7
			c-0.3-0.9-0.4-2.6-1-3.4c-0.4-0.6-1.2-0.7-1.9-1c-0.7-0.3-1.5-0.7-2.2-1C356.6,265.2,358.6,264.6,359.3,263.5z"/>
		<path d="M258,552.9c-1.1-0.5-1.7-0.5-2-1.5c-0.6-1.9-1.1-3.9-1.6-5.9c0,0,0,0,0-0.1c0,0,0,0,0-0.1c-0.1-0.1-0.2-0.2-0.3-0.2
			c-0.1,0-0.3,0-0.3,0.2c0,0,0,0.1,0,0.1c0,0,0,0,0,0c0,0,0,0,0,0c0,0,0,0,0,0c-0.5,1.9-1,3.9-1.5,5.9c-0.5,1.5-3.3,2.1-4.7,2.7
			c-0.3,0.1-0.5,0.6-0.1,0.7c0.9,0.4,1.8,0.8,2.7,1.2c0.5,0.2,1.1,0.5,1.6,0.7c0.1,0.1,0.2,0.1,0.2,0.1c0,0,0,0,0,0.1
			c1,1.7,1.2,4.2,1.8,6.1c0.1,0.4,0.7,0.4,0.8,0c0.6-1.9,0.9-4.4,1.8-6.1c0,0,0,0,0-0.1c0,0,0.1,0,0.1-0.1c0.5-0.3,1.2-0.5,1.7-0.8
			c0.9-0.4,1.8-0.8,2.7-1.2c0.4-0.2,0.2-0.6-0.1-0.7C259.8,553.7,258.9,553.3,258,552.9z M257.3,555.5c-0.6,0.3-1.5,0.5-1.9,1
			c-0.6,0.8-0.7,2.4-1,3.4c-0.2,0.6-0.3,1.1-0.5,1.7c-0.2-0.6-0.3-1.1-0.5-1.7c-0.3-0.9-0.4-2.6-1-3.4c-0.4-0.6-1.2-0.7-1.9-1
			c-0.7-0.3-1.5-0.7-2.2-1c1.5-0.5,3.5-1.1,4.2-2.2c0.6-1,0.7-2.7,1-3.7c0.1-0.5,0.2-0.9,0.4-1.4c0.1,0.5,0.3,0.9,0.4,1.4
			c0.3,1.1,0.4,2.7,1,3.7c0.6,1.1,2.7,1.7,4.2,2.2C258.8,554.8,258.1,555.2,257.3,555.5z"/>
	</g>
</g>
</svg>
