<?xml version="1.0" encoding="utf-8"?>
<!-- Generator: Adobe Illustrator 21.1.0, SVG Export Plug-In . SVG Version: 6.00 Build 0)  -->
<svg version="1.1" xmlns="http://www.w3.org/2000/svg" xmlns:xlink="http://www.w3.org/1999/xlink" x="0px" y="0px"
	 viewBox="0 0 504 864" style="enable-background:new 0 0 504 864;" xml:space="preserve">
<g id="Слой_1">
</g>
<g id="Слой_2">
	<g>
		<path d="M236,102.7c0.3,0,0.6,0.1,0.9,0.4c0.3,0.3,0.5,0.4,0.6,0.2c0.1-0.2,1.5-0.4,4-0.4c2.1,0,3.2,0.1,3.2,0.3
			c0,0.2,0.2,0.3,0.5,0.3c0.4,0,0.6-0.1,0.6-0.2c0-0.1,0.2-0.3,0.6-0.5c0.4-0.2,0.6-0.4,0.6-0.6c0-0.9-0.7-1.4-1.9-1.5l-1.3-0.1
			l0.1-6.7c0.1-4.5,0.2-6.8,0.3-7c0.1-0.1,0.2-0.8,0.3-1.9c0.1-2.1,0.4-3.2,0.7-3.2c0.2,0,0.4-0.1,0.4-0.3c0-0.2,0.2-0.3,0.7-0.3
			c0.4,0,0.8-0.1,1-0.3c0.3-0.2,0.4-0.5,0.4-0.7c0-0.3-0.2-0.6-0.5-0.8c-0.3-0.2-1.4-0.3-3.4-0.3c-2,0-2.9,0.1-2.9,0.3
			c0,0.1-0.3,0.2-0.9,0.2c-0.6,0-0.9,0.1-0.9,0.4c0,0.3-0.1,0.4-0.3,0.4s-0.3,0.2-0.3,0.6c0,0.5,0.1,0.8,0.4,0.9
			c0.3,0.1,0.4,0.9,0.4,2.5c0,1.6,0.1,2.4,0.3,2.5c0.2,0.1,0.3,0.8,0.3,2.2c0,1.3-0.1,2-0.3,2.1c-0.2,0.1-0.4,1.5-0.4,4.3
			c-0.1,2.4-0.2,3.9-0.4,4.3c-0.2,0.5-0.8,0.8-1.8,0.9c-0.6,0-0.9,0.1-1,0.2c-0.1,0.1-0.2,0.4-0.2,0.8
			C235.7,102.4,235.8,102.7,236,102.7z M242.2,88c0.3,0,0.4,0.2,0.4,0.6c0,0.4-0.1,0.5-0.4,0.5c-0.3,0-0.4-0.2-0.4-0.5
			C241.7,88.2,241.9,88,242.2,88z M240.5,96c0.2,0,0.4,0.1,0.4,0.3c0,0.2-0.1,0.3-0.4,0.3c-0.3,0-0.4-0.1-0.4-0.3
			C240.1,96.1,240.2,96,240.5,96z"/>
		<path d="M251.1,102.7c0.3,0,0.6,0.1,0.9,0.4c0.3,0.3,0.5,0.4,0.6,0.2c0.1-0.2,1.5-0.4,4-0.4c2.1,0,3.2,0.1,3.2,0.3
			c0,0.2,0.2,0.3,0.5,0.3c0.4,0,0.6-0.1,0.6-0.2c0-0.1,0.2-0.3,0.6-0.5c0.4-0.2,0.6-0.4,0.6-0.6c0-0.9-0.7-1.4-1.9-1.5l-1.3-0.1
			l0.1-6.7c0.1-4.5,0.2-6.8,0.3-7c0.1-0.1,0.2-0.8,0.3-1.9c0.1-2.1,0.4-3.2,0.7-3.2c0.2,0,0.4-0.1,0.4-0.3c0-0.2,0.2-0.3,0.7-0.3
			c0.4,0,0.8-0.1,1-0.3c0.3-0.2,0.4-0.5,0.4-0.7c0-0.3-0.2-0.6-0.5-0.8c-0.3-0.2-1.4-0.3-3.4-0.3c-2,0-2.9,0.1-2.9,0.3
			c0,0.1-0.3,0.2-0.9,0.2s-0.9,0.1-0.9,0.4c0,0.3-0.1,0.4-0.3,0.4s-0.3,0.2-0.3,0.6c0,0.5,0.1,0.8,0.4,0.9c0.3,0.1,0.4,0.9,0.4,2.5
			c0,1.6,0.1,2.4,0.3,2.5c0.2,0.1,0.3,0.8,0.3,2.2c0,1.3-0.1,2-0.3,2.1c-0.2,0.1-0.4,1.5-0.4,4.3c-0.1,2.4-0.2,3.9-0.4,4.3
			c-0.2,0.5-0.8,0.8-1.8,0.9c-0.6,0-0.9,0.1-1,0.2c-0.1,0.1-0.2,0.4-0.2,0.8C250.7,102.4,250.8,102.7,251.1,102.7z M257.2,88
			c0.3,0,0.4,0.2,0.4,0.6c0,0.4-0.1,0.5-0.4,0.5c-0.3,0-0.4-0.2-0.4-0.5C256.7,88.2,256.9,88,257.2,88z M255.5,96
			c0.2,0,0.4,0.1,0.4,0.3c0,0.2-0.1,0.3-0.4,0.3c-0.3,0-0.4-0.1-0.4-0.3C255.1,96.1,255.2,96,255.5,96z"/>
		<path d="M266.1,102.7c0.3,0,0.6,0.1,0.9,0.4c0.3,0.3,0.5,0.4,0.6,0.2c0.1-0.2,1.5-0.4,4-0.4c2.1,0,3.2,0.1,3.2,0.3
			c0,0.2,0.2,0.3,0.5,0.3c0.4,0,0.6-0.1,0.6-0.2c0-0.1,0.2-0.3,0.6-0.5c0.4-0.2,0.6-0.4,0.6-0.6c0-0.9-0.7-1.4-1.9-1.5l-1.3-0.1
			l0.1-6.7c0.1-4.5,0.2-6.8,0.3-7c0.1-0.1,0.2-0.8,0.3-1.9c0.1-2.1,0.4-3.2,0.7-3.2c0.2,0,0.4-0.1,0.4-0.3c0-0.2,0.2-0.3,0.7-0.3
			c0.4,0,0.8-0.1,1-0.3c0.3-0.2,0.4-0.5,0.4-0.7c0-0.3-0.2-0.6-0.5-0.8c-0.3-0.2-1.4-0.3-3.4-0.3c-2,0-2.9,0.1-2.9,0.3
			c0,0.1-0.3,0.2-0.9,0.2c-0.6,0-0.9,0.1-0.9,0.4c0,0.3-0.1,0.4-0.3,0.4c-0.2,0-0.3,0.2-0.3,0.6c0,0.5,0.1,0.8,0.4,0.9
			c0.3,0.1,0.4,0.9,0.4,2.5c0,1.6,0.1,2.4,0.3,2.5c0.2,0.1,0.3,0.8,0.3,2.2c0,1.3-0.1,2-0.3,2.1c-0.2,0.1-0.4,1.5-0.4,4.3
			c-0.1,2.4-0.2,3.9-0.4,4.3c-0.2,0.5-0.8,0.8-1.8,0.9c-0.6,0-0.9,0.1-1,0.2c-0.1,0.1-0.2,0.4-0.2,0.8
			C265.7,102.4,265.8,102.7,266.1,102.7z M272.2,88c0.3,0,0.4,0.2,0.4,0.6c0,0.4-0.1,0.5-0.4,0.5c-0.3,0-0.4-0.2-0.4-0.5
			C271.7,88.2,271.9,88,272.2,88z M270.5,96c0.2,0,0.4,0.1,0.4,0.3c0,0.2-0.1,0.3-0.4,0.3c-0.3,0-0.4-0.1-0.4-0.3
			C270.1,96.1,270.2,96,270.5,96z"/>
		<path d="M503.8,18.2c-1.6-17.9-18.7-16.3-31.6-16.3c-45.9,0-91.8,0-137.6,0c-63.2,0-126.3,0-189.5,0c-40.6,0-81.2,0-121.8,0
			c-2.6,0-5.3-0.2-8,0.2c-9.5,1.2-15,9.2-15.2,18.2c-0.2,7.3,0,14.5,0,21.8c0,37.4,0,74.9,0,112.3c0,57,0,114.1,0,171.1
			c0,64.3,0,128.6,0,192.9c0,58.4,0,116.7,0,175.1c0,40.1,0,80.2,0,120.3c0,9.1,0,18.2,0,27.3c0,11.7,6.7,20.5,19.2,20.7
			c35.9,0.6,71.9,0,107.9,0c62.4,0,124.9,0,187.3,0c49.7,0,99.5,0,149.2,0c7.6,0,15.2,0,22.9,0c0.4,0,0.8-0.1,1.2-0.2
			c14.4-1.8,16.1-13.8,16.1-25.5c0-11.4,0-22.8,0-34.3c0-43.4,0-86.9,0-130.3c0-59.9,0-119.8,0-179.8c0-63.9,0-127.7,0-191.6
			c0-55.3,0-110.6,0-165.9c0-33.7,0-67.3,0-101C503.9,28.3,504.2,23.2,503.8,18.2z M486.6,852.8c-28.3,0-56.6,0-84.9,0
			c-59.9,0-119.8,0-179.7,0c-54,0-108,0-162,0c-13.1,0-26.1,0-39.2,0c-5.6,0-11-1.3-11.7-8.3c-0.2-1.5,0-3,0-4.5c0-26.5,0-53,0-79.5
			c0-50,0-100,0-149.9c0-61.8,0-123.6,0-185.4c0-61.4,0-122.7,0-184.1c0-48.9,0-97.7,0-146.6c0-24.2-0.8-48.6,0-72.7
			c0.2-5.3,1.6-10.1,8.3-10.8c2.2-0.2,4.5,0,6.7,0c14.8,0,29.6,0,44.5,0c55.6,0,111.3,0,166.9,0c58.9,0,117.8,0,176.7,0
			c18.9,0,37.9,0,56.8,0c8.1,0,24.7-3.1,25.9,8.4c0.5,5.2,0,10.8,0,16.1c0,13.5,0,27.1,0,40.6c0,45.5,0,91.1,0,136.6
			c0,60.1,0,120.2,0,180.3c0,62.6,0,125.1,0,187.7c0,52.8,0,105.6,0,158.4c0,31.4,0,62.7,0,94.1C494.8,840.3,496.9,852,486.6,852.8z
			"/>
		<path d="M460,790.9c1.2,0.1,2.4-0.7,2.4-2.2c0-23.7,0-47.4,0-71.1c0-56.4,0-112.8,0-169.2c0-68.7,0-137.4,0-206
			c0-59,0-117.9,0-176.9c0-19.6,0-39.2,0-58.8c0-8.9,1.3-19,0-27.9c-0.1-0.4,0-0.8,0-1.2c0-0.8-0.3-1.3-0.8-1.7
			c0.1-1.2-0.6-2.5-2.2-2.6c-13.1-0.5-25.3-13.8-25.8-26.7c0-0.5-0.2-0.8-0.4-1.1c-0.3-0.6-1-1.1-1.9-1.1c-40.5,0-80.9,0-121.4,0
			c-64.5,0-129,0-193.6,0c-14.9,0-29.7,0-44.6,0c-0.9,0-1.6,0.5-1.9,1.1c-0.2,0.3-0.3,0.7-0.4,1.2C69.1,59.5,57,72.8,43.9,73.3
			c-1.8,0.1-2.5,1.9-2,3.2c-0.2,0.3-0.2,0.6-0.2,1c0,23.7,0,47.4,0,71.1c0,56.4,0,112.8,0,169.2c0,68.7,0,137.4,0,206
			c0,59,0,117.9,0,176.9c0,19.6,0,39.2,0,58.8c0,8.9-1.3,19,0,27.9c0.1,0.4,0,0.8,0,1.2c0,0.9,0.5,1.6,1.1,1.9
			c0.3,0.2,0.7,0.3,1.2,0.4c13,0.5,25.3,13.3,25.8,26.2c0,0.5,0.2,0.8,0.4,1.1c0.3,0.6,1,1.1,1.9,1.1c40.5,0,80.9,0,121.4,0
			c64.5,0,129,0,193.6,0c14.9,0,29.7,0,44.6,0c0.9,0,1.6-0.5,1.9-1.1c0.2-0.3,0.3-0.7,0.4-1.2c0.5-12.9,12.7-25.7,25.8-26.2
			C459.6,791,459.8,790.9,460,790.9z M429.3,814.9c-39.8,0-79.6,0-119.3,0c-64.5,0-129,0-193.6,0c-14.2,0-28.3,0-42.5,0
			c-1.7-13.9-13.9-26.5-27.8-28.3c0-23,0-46,0-69.1c0-56.4,0-112.8,0-169.2c0-68.7,0-137.4,0-206c0-59,0-117.9,0-176.9
			c0-19.6,0-39.2,0-58.8c0-8.9,1.3-19,0-27.9c-0.1-0.4,0-0.8,0-1.2c14-1.8,26.1-14.9,27.8-28.7c39.8,0,79.5,0,119.3,0
			c64.5,0,129,0,193.6,0c14.2,0,28.3,0,42.5,0c1.7,14.1,14.3,27.4,28.5,28.8c0,23.7,0,47.3,0,71c0,56.4,0,112.8,0,169.2
			c0,68.7,0,137.4,0,206c0,59,0,117.9,0,176.9c0,19.6,0,39.2,0,58.8c0,8.6-1.2,18.4-0.1,27C443.6,788.1,431.1,800.9,429.3,814.9z"/>
		<path d="M153.5,785.3c0.1,0,0.2-0.2,0.2-0.5c0-0.2,0-0.4-0.1-0.4c-0.1,0-0.1-0.1-0.1-0.3c0-0.2,0.1-0.4,0.2-0.6
			c0.1-0.3,0.1-0.5-0.2-0.6c-0.2-0.2-0.5-0.3-0.9-0.3c-0.5,0-0.8,0.1-1.1,0.4c-0.3,0.2-0.4,0.3-0.5,0.2c-0.1-0.1-0.4-0.1-0.8,0
			c-0.5,0.1-1.4,0.2-2.6,0.2c-0.9,0-1.4,0-1.5-0.1c-0.1-0.1-0.2,0-0.4,0.2c-0.1,0.1-0.3,0.2-0.4,0.2c-0.2,0-0.4,0-0.7-0.1
			c-0.7-0.2-1.1-0.2-1.3-0.2c-0.1,0-0.2,0-0.2,0c-0.1,0-0.3,0.1-0.4,0.3c-0.1,0.2-0.2,0.4-0.2,0.5c0,0.1,0,0.1,0.1,0.2
			c0,0,0.1,0.2,0.1,0.5c0,0.1,0,0.2-0.1,0.3c-0.1,0-0.2,0.1-0.3,0.1c-0.3,0-0.5,0.1-0.5,0.3c0,0,0,0.1,0.1,0.2
			c0.1,0.1,0.1,0.3,0.1,0.6c0,0.3-0.1,0.4-0.1,0.5c0,0.5,0.2,0.8,0.6,0.8c0.3,0,0.4-0.1,0.4-0.2c0-0.1,0.1-0.2,0.2-0.2
			c0.1,0,0.1,0,0.2-0.1c0,0,0-0.1,0-0.2c0-0.1-0.1-0.2-0.2-0.2c-0.1-0.1-0.1-0.1-0.1-0.2c0,0,0-0.1,0-0.1c0,0,0-0.1,0.1-0.1
			c0,0,0.1,0,0.2-0.1c0.2-0.1,0.2-0.2,0.2-0.3c0,0,0-0.1,0-0.2c0-0.1,0-0.1,0-0.2c0-0.1,0-0.2,0.1-0.2c0.1-0.1,0.1-0.3,0-0.6
			c-0.1-0.3-0.1-0.4,0-0.4c0.1,0,0.1,0.1,0.1,0.2c0,0.1,0.2,0.2,0.5,0.4c0.4,0.1,0.7,0.2,1.1,0.2c0.4,0,0.7,0.1,0.8,0.3
			c0.2,0.2,0.3,0.2,0.5,0.2c0.1,0,0.1,0,0.1,0c0.1,0,0.1,0,0,0.1c-0.3,0.3-0.4,2.2-0.5,5.8c0,0.8-0.1,1.2-0.3,1.4
			c-0.2,0.1-0.3,0.3-0.3,0.4c0,0.1-0.3,0.2-0.8,0.2l-0.7,0.1l-0.1,0.5c0,0,0,0.1,0,0.1c0,0,0,0.1,0,0.1c0,0.2,0.1,0.4,0.4,0.7
			c0.3,0.3,0.5,0.4,0.7,0.4c0.1,0,0.1,0,0.1-0.1c0-0.1,0-0.1-0.1-0.1c-0.1,0-0.1,0-0.1-0.1c0-0.1,0.2-0.1,0.5-0.1c0.1,0,0.4,0,0.8,0
			c0.4,0,0.7,0,0.9,0c0.6,0,0.9-0.1,1.1-0.2c0.1-0.1,0.3-0.2,0.6-0.1c0.2,0.1,0.3,0,0.4-0.1c0.1-0.1,0.2-0.1,0.3-0.1
			c0.1,0,0.3-0.1,0.5-0.2c0.1-0.1,0.2-0.2,0.2-0.3c0-0.1-0.1-0.2-0.2-0.5c-0.2-0.3-0.3-0.4-0.5-0.4c-0.1,0-0.2-0.1-0.2-0.2
			c0-0.1-0.1-0.2-0.3-0.1c0,0-0.1,0-0.1,0c-0.1,0-0.1,0-0.1,0c-0.1,0-0.2,0-0.3-0.1c0-0.1-0.1-0.3-0.1-0.5v-0.4c0-0.5,0-0.8,0-0.9
			c0-0.1,0.1-0.2,0.2-0.2c0.2,0,0.2-0.1,0.2-0.4c0-0.3-0.1-0.5-0.2-0.5s-0.2-0.4-0.2-1.1c0-0.8,0.1-1.2,0.2-1.4
			c0.1-0.1,0.2-0.5,0.2-1.2c0-0.7,0.1-1,0.1-1.1c0.1-0.2,0.5-0.2,1.2-0.2c1,0,1.5,0.1,1.6,0.4c0,0.1,0.1,0.2,0.4,0.5
			c0.2,0.2,0.3,0.4,0.3,0.8c0,0.3,0.1,0.5,0.1,0.5c0,0.1,0.2,0.1,0.4,0.1c0.2,0,0.4,0,0.4-0.1c0-0.1,0.1-0.2,0.3-0.2
			c0.2-0.1,0.3-0.2,0.3-0.4c0-0.2-0.1-0.4-0.2-0.5C153.4,785.4,153.4,785.3,153.5,785.3z"/>
		<path d="M174.1,782.6c-0.2-0.1-0.5-0.1-0.8-0.1c-0.1,0-0.2,0-0.5,0.1c-0.3,0.1-0.5,0.1-0.7,0.1H172h-0.2c-0.2,0-0.5,0-1,0.1
			c-0.4,0-0.7,0.1-0.8,0.1c-0.1,0-0.2,0.1-0.2,0.2c0,0.2,0,0.3-0.1,0.3c-0.1,0-0.1,0-0.1,0.1c0,0.1,0,0.2,0,0.3
			c0,0.1,0.1,0.2,0.2,0.2c0.1,0.1,0.2,0.5,0.2,1.3c0,0.8,0.1,1.2,0.2,1.2c0.1,0,0.1,0.3,0.1,0.8v0.8H169c-0.8,0-1.7,0-2.7-0.1
			l-1.4-0.1v-0.7c0-0.5,0-0.7,0.1-0.7c0.1,0,0.1-0.3,0.2-0.9c0-1.1,0.1-1.6,0.4-1.6c0.1,0,0.2,0,0.2-0.1c0-0.1,0.1-0.2,0.4-0.2
			c0.2,0,0.4-0.1,0.5-0.2c0.1-0.1,0.2-0.2,0.2-0.4c0-0.2-0.1-0.3-0.2-0.4c-0.2-0.1-0.5-0.2-1-0.2c-0.3,0-0.4,0-0.5,0.1
			c0,0-0.5,0.1-1.3,0.1c-0.9,0.1-1.7,0.2-2.4,0.5c-0.1,0-0.2,0.1-0.2,0.2c0,0.1,0.2,0.2,0.6,0.4l0.6,0.3l0,0.8v0.9v0.3
			c0,0.2,0,0.4,0.1,0.4c0.1,0.1,0.2,0.5,0.2,1.1c0,0.6-0.1,1.1-0.2,1.4c-0.1,0.3-0.2,0.6-0.2,0.8c0,0,0,0,0,0.1c0,0,0,0.1,0,0.1
			c0,0.2,0.1,0.4,0.1,0.6c0,0.5,0,1.1-0.1,1.8c-0.1,0.6-0.2,1-0.2,1.2c-0.1,0.2-0.4,0.3-0.8,0.3c-0.3,0-0.5,0.1-0.6,0.1
			c-0.1,0.1-0.1,0.2-0.1,0.4v0.5l0.7-0.1c0.3-0.1,1-0.1,2.2-0.1h0.7h0.7c1,0,1.6,0,1.6-0.1c0-0.1-0.1-0.3-0.2-0.5
			c-0.2-0.2-0.3-0.3-0.4-0.3h-0.1c-0.2,0.1-0.4,0.1-0.6-0.1c-0.1-0.1-0.2-0.1-0.3-0.2c0-0.1-0.1-0.2-0.1-0.4c0-0.3,0-0.5,0-0.8
			c0-0.9,0.1-1.6,0.1-2.1v-0.8h4.9l0.1,0.4c0,0.2,0.1,0.5,0.1,0.7c0,0.5,0,1.1-0.1,1.7c-0.1,0.6-0.2,1-0.3,1
			c-0.1,0.1-0.4,0.2-0.8,0.3c-0.3,0-0.5,0.1-0.5,0.1c-0.1,0.1-0.1,0.2-0.1,0.4c0,0.3,0.1,0.5,0.3,0.5c0.3,0.1,1.3,0.1,3.1,0.1
			c1.3,0,2,0,2.1-0.1c0.2-0.1,0.3-0.2,0.3-0.4c0-0.2-0.1-0.3-0.2-0.5c-0.1-0.2-0.3-0.2-0.4-0.2c0,0-0.1,0-0.1,0
			c-0.1,0.1-0.3,0.1-0.5,0l-0.4-0.1l0.1-3.5c0-2.3,0.1-3.5,0.2-3.6c0.1,0,0.1-0.3,0.1-0.9c0.1-1.1,0.2-1.6,0.4-1.6
			c0.1,0,0.2,0,0.2-0.1c0-0.1,0.1-0.2,0.4-0.2c0.2,0,0.4-0.1,0.5-0.2c0.2-0.1,0.2-0.3,0.2-0.4C174.4,782.8,174.3,782.7,174.1,782.6z
			 M163.3,791.5c-0.2-0.1-0.3-0.1-0.3-0.2c0-0.1,0-0.1,0.1-0.1c0.2,0,0.3,0.1,0.4,0.2c0,0,0,0,0,0.1
			C163.5,791.6,163.4,791.6,163.3,791.5z M163.9,791.5c-0.1,0-0.1-0.1-0.1-0.2c0-0.1,0-0.2,0.1-0.2c0.1,0,0.2,0.1,0.2,0.2
			C164.1,791.4,164.1,791.5,163.9,791.5z M164,787.8c-0.1,0-0.2-0.1-0.2-0.3c0-0.3,0.1-0.4,0.2-0.4c0.2,0,0.2,0.1,0.2,0.3
			C164.2,787.7,164.1,787.8,164,787.8z M171.1,791.5c-0.1,0.1-0.2,0.1-0.4,0c-0.2-0.1-0.3-0.1-0.3-0.2c0-0.1,0.1-0.1,0.2-0.1
			c0.3,0,0.5,0.1,0.5,0.2C171.1,791.5,171.1,791.5,171.1,791.5z M171.5,791.5c-0.1,0-0.2-0.1-0.2-0.2c0-0.1,0.1-0.2,0.2-0.2
			c0.1,0,0.1,0.1,0.1,0.2C171.6,791.4,171.6,791.5,171.5,791.5z M171.5,787.8c-0.1,0-0.2-0.1-0.2-0.3c0-0.3,0.1-0.4,0.2-0.4
			c0.1,0,0.2,0.1,0.2,0.3C171.7,787.7,171.6,787.8,171.5,787.8z"/>
		<path d="M194.8,792.7c-0.1,0-0.2-0.1-0.3-0.4c-0.1-0.2-0.3-0.4-0.5-0.4c-0.2,0-0.4-0.1-0.6-0.2c-0.2-0.1-0.4-0.2-0.4-0.4
			c-0.1-0.1-0.1-0.2-0.3-0.2s-0.3-0.1-0.6-0.4c-0.2-0.3-0.4-0.6-0.6-0.9c-0.1-0.3-0.4-0.6-0.8-1.1c-0.4-0.5-0.7-0.7-0.8-0.7
			c-0.1,0-0.2-0.1-0.4-0.3c-0.1-0.1-0.2-0.2-0.1-0.3c0,0,0.1-0.1,0.3-0.2c0.8-0.3,1.2-0.6,1.2-0.9c0-0.5,0.1-0.7,0.3-0.7
			c0.1,0,0.2-0.1,0.4-0.2c0.2-0.2,0.2-0.7,0.2-1.5c0-1-0.1-1.5-0.3-1.7c-0.1-0.1-0.2-0.2-0.4-0.2c-0.1,0-0.2,0-0.2-0.1
			c0-0.1-0.1-0.2-0.4-0.3c-0.3-0.1-0.4-0.3-0.5-0.5L190,781c-0.1-0.1-0.2-0.1-0.2,0.1c0,0.1-0.3,0.1-0.8,0.1c-0.6,0-0.9,0-0.9-0.1
			c0-0.1-0.1-0.1-0.4-0.1s-0.5-0.1-0.6-0.3c-0.2-0.2-0.3-0.3-0.4-0.3s-0.2,0.1-0.1,0.3c0,0,0,0,0,0.1v0.1c0,0.1-0.6,0.2-1.8,0.2
			h-1.9l-0.5,0.5c-0.3,0.3-0.5,0.6-0.5,0.7c0,0.1,0.2,0.2,0.5,0.3c0.3,0.1,0.5,0.1,0.5,0.2c0,0.1,0,0.1,0.1,0.1
			c0.2,0,0.4,0.2,0.6,0.5c0.2,0.3,0.3,0.7,0.3,1.2c0,0.4,0.1,0.6,0.1,0.6c0,0.2-0.1,0.4-0.2,0.5c-0.2,0.1-0.2,0.2-0.1,0.3
			c0.1,0.1,0.2,0.3,0.2,0.7c0,0.3-0.1,0.5-0.2,0.5c-0.1,0-0.2,0,0,0.1c0.1,0.1,0.2,0.2,0.2,0.4c0,0.2-0.1,0.4-0.2,0.5
			c-0.1,0.1-0.1,0.3,0.1,0.4c0.1,0.1,0.2,0.3,0.2,0.4c0,0.1-0.1,0.3-0.2,0.4c-0.2,0.2-0.3,0.7-0.3,1.6c0,0.7,0,1.1-0.1,1.2
			c0,0.1-0.1,0.2-0.3,0.3c-0.2,0.1-0.3,0.1-0.3,0.2c0,0.1-0.3,0.1-0.8,0.1c-0.4,0-0.6,0.1-0.7,0.1c-0.1,0.1-0.1,0.2-0.1,0.5
			c0,0.2,0.2,0.5,0.6,0.8c0.2,0.1,0.3,0.2,0.5,0.2c0.2,0,0.3-0.1,0.3-0.2c0.1-0.1,0.8-0.2,2.1-0.2c1.3,0,2.1-0.1,2.2-0.3
			c0.1-0.1,0.2-0.2,0.3-0.2c0.1,0,0.2-0.1,0.2-0.2c0-0.1-0.1-0.2-0.4-0.2c-0.3,0-0.4-0.1-0.5-0.3c0-0.2-0.2-0.3-0.5-0.4
			c-0.4-0.1-0.5-0.2-0.5-0.4c0-0.1,0-0.2,0.1-0.3c0.2-0.2,0.2-0.3,0.1-0.4c-0.1,0-0.2-0.6-0.2-1.6c0-0.3,0-0.6,0-1
			c0-0.3,0-0.4,0.1-0.5c0-0.1,0.1-0.1,0.2-0.1c0.5,0,1,0.2,1.5,0.5c0.5,0.4,0.8,0.7,0.8,1c0,0.2,0.1,0.3,0.2,0.3s0.2,0.1,0.2,0.4
			c0,0.5,0.3,0.8,0.8,1c0.2,0.1,0.4,0.3,0.5,0.7c0.1,0.4,0.3,0.8,0.7,1.2l0.6,0.7l0.9-0.1c0.1,0,0.3,0,0.6-0.1c0.3,0,0.6,0,0.8-0.1
			c0.2,0,0.4-0.1,0.7-0.1c0.3-0.1,0.4-0.1,0.6-0.2c0.1-0.1,0.2-0.2,0.2-0.3C194.9,792.8,194.8,792.7,194.8,792.7z M189.1,785.9
			c-0.1,0-0.2,0-0.2,0.1c-0.1,0-0.1,0,0,0.1c0.2,0,0.2,0.1,0.2,0.2c0,0.1-0.1,0.3-0.4,0.4c-0.2,0.2-0.5,0.3-0.7,0.3
			c-0.3,0-0.6,0.1-1.1,0.2c-0.1,0-0.2,0-0.3,0c-0.2,0-0.4-0.1-0.7-0.3c-0.2-0.2-0.3-0.3-0.4-0.3c0-0.1,0-0.1,0.1-0.2
			c0.1-0.1,0.2-0.7,0.2-1.6v-1.2c0-0.3,0.1-0.5,0.2-0.7c0.1-0.2,0.3-0.4,0.4-0.4h0.1l0.4,0.1c0.3,0,0.5,0.1,0.8,0.1
			c0.2,0.1,0.4,0.1,0.4,0.1c0,0.1,0.1,0.1,0.4,0.2c0.3,0.1,0.4,0.2,0.4,0.3c0,0.1,0.1,0.3,0.2,0.4c0.1,0.1,0.2,0.2,0.1,0.3
			c-0.1,0.1-0.1,0.3,0.1,0.6c0.1,0.2,0.2,0.5,0.2,0.8v0.1c0,0.2-0.1,0.4-0.1,0.4S189.3,785.9,189.1,785.9z"/>
		<path d="M187.3,780.4c0.1,0.1,0.3,0.1,0.4,0c0,0,0,0,0.1,0c0.1-0.1,0.1-0.1,0.1-0.1c0,0-0.1,0-0.3,0
			C187.4,780.2,187.4,780.3,187.3,780.4z"/>
		<path d="M182.9,779.4c0,0.1,0.1,0.2,0.3,0.2c0.2,0,0.3-0.1,0.3-0.2c0-0.1-0.1-0.1-0.3-0.1C183,779.2,182.9,779.3,182.9,779.4z"/>
		<path d="M212.6,790.2c-0.1,0-0.3,0.2-0.5,0.5c-0.3,0.4-0.4,0.6-0.4,0.7c0,0.1-0.1,0.2-0.4,0.2c-0.2,0-0.3,0.1-0.3,0.1
			c0,0,0,0.1,0,0.3v0.2c0,0.2-0.1,0.3-0.4,0.3c0,0-0.1,0-0.2,0c-0.1,0-0.1,0-0.2,0c-0.2,0-0.4,0.1-0.7,0.4c-0.2,0.2-0.4,0.3-0.6,0.3
			c-0.1,0-0.2-0.1-0.2-0.2c-0.1-0.1-0.2-0.1-0.4,0c-0.2,0.1-0.6,0.2-1.2,0.2c-0.5,0-0.7,0-0.7-0.1c0-0.1-0.1-0.1-0.2-0.1
			c-0.1,0-0.1-0.1-0.2-0.2c-0.1-0.2-0.1-0.3-0.1-0.5c0,0,0-0.6,0.1-1.8c0-1.2,0.1-1.8,0.1-1.8c0-0.1,0.5-0.1,1.4-0.1
			c0.8,0,1.3,0.1,1.5,0.2c0.3,0.1,0.4,0.4,0.4,0.8c0,0.2,0,0.3,0.1,0.3c0,0,0.1,0,0.2,0c0.2-0.1,0.4-0.1,0.6-0.1h0.1
			c0.2,0,0.3-0.2,0.3-0.6c0-0.1,0-0.2,0-0.3c0-0.2,0-0.3,0-0.4v-0.3c0-0.4,0-0.6,0.1-0.6c0.1-0.1,0.1-0.3,0-0.4
			c-0.1-0.1-0.1-0.3,0.1-0.4c0.2-0.1,0.2-0.2,0.2-0.4c0-0.3-0.4-0.4-1.1-0.4c-0.4,0-0.6,0.2-0.6,0.5c0,0.1,0,0.2,0.1,0.3
			c0.1,0.2,0,0.3-0.1,0.5c-0.1,0.1-0.4,0.2-0.9,0.3c-0.6,0.1-1.1,0.2-1.6,0.2h-0.6V787c0-0.4,0.1-0.6,0.2-0.6c0.1,0,0.2-0.1,0.2-0.4
			c0-0.3-0.1-0.6-0.2-0.9c-0.1-0.2-0.2-0.4-0.2-0.4c0-0.1,0.1-0.1,0.2-0.3c0.2-0.2,0.3-0.3,0.2-0.5c0,0,0-0.1,0-0.2
			c0-0.2,0.1-0.3,0.4-0.4c0.3-0.1,0.8-0.1,1.5-0.2c0.6,0,1-0.1,1.1-0.1c0.4,0,0.6,0.1,0.7,0.2c0.2,0.2,0.3,0.3,0.5,0.4
			c0.2,0.1,0.3,0.2,0.3,0.3c0,0.1,0.1,0.2,0.4,0.4c0.2,0.1,0.4,0.3,0.4,0.3c0,0.2,0.1,0.3,0.3,0.5c0.2,0.2,0.4,0.3,0.6,0.3h0.1
			c0.3,0,0.4-0.2,0.4-0.7c0-0.2-0.1-0.4-0.2-0.5c-0.1-0.2-0.2-0.4-0.2-0.6c0-0.3-0.1-0.5-0.2-0.5c-0.1-0.1-0.1-0.2,0-0.4
			c0.1-0.1,0.1-0.2,0.1-0.3c0-0.1-0.1-0.1-0.2-0.2c-0.1-0.1-0.2-0.2-0.2-0.3c0-0.1-0.1-0.3-0.3-0.5c-0.1-0.1-0.2-0.2-0.3-0.2
			c-0.1,0-0.2,0-0.3,0.1c-0.2,0.1-1.9,0.3-5,0.4h-0.7c-1.5,0-2.3-0.1-2.4-0.3c0-0.1-0.1-0.1-0.3-0.1c-0.1,0-0.2,0-0.2,0.1
			c0,0.1-0.1,0.2-0.1,0.3c0,0.2,0,0.3,0,0.3c0,0.2-0.1,0.3-0.3,0.4c-0.2,0-0.3,0.2-0.2,0.5c0.1,0.2,0.1,0.4,0.2,0.5
			c0.1,0.1,0.2,0.1,0.3,0.1s0.3,0,0.4,0c0.1,0,0.1,0,0.2,0c0.1,0,0.1,0,0.2,0c0.4,0,0.6,0.1,0.7,0.4c0.1,0.2,0.1,0.8,0.1,1.5
			c0,0.9-0.1,1.4-0.2,1.5c-0.1,0-0.1,0.2,0,0.4c0.1,0.3,0.1,0.5,0,0.7c-0.1,0.2-0.2,0.3-0.3,0.3c-0.1,0-0.1,0.1,0.1,0.2
			c0.1,0.1,0.1,0.3,0.1,0.6c0,0.3-0.1,1.3-0.2,3l-0.1,1H203c-0.4,0-0.6,0.1-0.7,0.3c-0.1,0.2-0.2,0.3-0.3,0.3
			c-0.2,0-0.2,0.1-0.2,0.4c0,0.3,0.1,0.5,0.3,0.6c0.2,0.1,0.3,0.3,0.3,0.4c0,0.1,0.1,0.2,0.3,0.2c0.2,0,0.5,0,0.8-0.1
			c0.3-0.1,0.5-0.2,0.6-0.2c0.2-0.1,0.6-0.2,1.2-0.2c0.1,0,0.6,0,1.5,0.1c0.8,0,1.2,0.1,1.2,0.2c0.1,0.1,0.2,0.1,0.4,0
			c0.3-0.1,0.8-0.2,1.6-0.2c0.9,0,1.4,0,1.6-0.1c0.2,0,0.3-0.1,0.5-0.2c0.2-0.2,0.3-0.4,0.2-0.6c-0.1-0.2,0-0.4,0.2-0.4
			c0.1-0.1,0.2-0.4,0.2-0.8c0-0.3,0-0.5,0.1-0.6c0-0.1,0.1-0.1,0.2-0.1c0.2,0,0.3-0.2,0.3-0.5c0-0.3-0.1-0.5-0.2-0.7
			C212.9,790.3,212.8,790.2,212.6,790.2z"/>
		<path d="M201.8,792c0,0.1,0,0.2,0.1,0.2c0.1,0,0.1-0.1,0.2-0.1c0.1-0.2,0.1-0.3-0.1-0.3C201.9,791.8,201.8,791.8,201.8,792z"/>
		<path d="M230.5,790.2c-0.1,0-0.3,0.2-0.5,0.5c-0.3,0.3-0.4,0.6-0.4,0.7c0,0.1-0.1,0.2-0.4,0.2c-0.1,0-0.2,0-0.3,0.1
			c0,0-0.1,0.1-0.1,0.1c0,0,0,0.1,0,0.3c0,0.2-0.1,0.3-0.4,0.3c0,0-0.1,0-0.1,0c-0.1,0-0.1,0-0.2,0c-0.2,0-0.4,0.1-0.6,0.3
			c-0.2,0.2-0.4,0.3-0.6,0.3c-0.1,0-0.2-0.1-0.2-0.2c0-0.1-0.1-0.1-0.4,0c-0.2,0.1-0.6,0.2-1.2,0.2c-0.5,0-0.7,0-0.7-0.1
			c0-0.1-0.1-0.1-0.2-0.1c-0.1,0-0.1-0.1-0.2-0.2c-0.1-0.2-0.1-0.3-0.1-0.4c0-0.1,0-0.2,0-0.3c0-0.2,0-0.4,0-0.6c0-0.3,0-0.5,0-0.8
			c0-0.3,0-0.5,0-0.8c0-0.3,0-0.5,0-0.6v-0.2c0-0.1,0.4-0.1,1.3-0.1c0.7,0,1.2,0.1,1.4,0.2c0.2,0.1,0.4,0.4,0.4,0.8
			c0,0.2,0,0.3,0.1,0.3c0,0,0.1,0,0.2,0c0.1-0.1,0.3-0.1,0.5-0.1c0.1,0,0.2,0,0.3-0.1c0-0.1,0.1-0.2,0.1-0.5c0-0.1,0-0.2,0-0.3
			c0-0.2,0-0.3,0-0.4v-0.2c0-0.3,0-0.6,0.1-0.7c0.1-0.1,0.1-0.3,0-0.4c-0.1-0.1-0.1-0.3,0.1-0.4c0.1-0.1,0.2-0.2,0.2-0.4
			c0-0.3-0.3-0.4-1-0.4c-0.4,0-0.6,0.2-0.6,0.5c0,0.1,0,0.2,0.1,0.3c0,0.2,0,0.4,0,0.5c-0.1,0.1-0.3,0.2-0.9,0.3
			c-0.5,0.1-1,0.1-1.5,0.1h-0.6v-0.6c0-0.4,0.1-0.6,0.2-0.6c0.1,0,0.2-0.1,0.2-0.4c0-0.3-0.1-0.5-0.2-0.9c-0.1-0.2-0.2-0.4-0.1-0.4
			c0-0.1,0.1-0.1,0.2-0.3c0.2-0.1,0.3-0.3,0.2-0.5c0,0,0-0.1,0-0.2c0-0.1,0.1-0.3,0.4-0.3c0.3-0.1,0.7-0.1,1.5-0.2
			c0.7,0,1.1-0.1,1.1-0.1c0.3,0,0.5,0.1,0.6,0.2c0.1,0.2,0.3,0.3,0.5,0.4c0.2,0.1,0.3,0.2,0.3,0.3c0,0.1,0.1,0.2,0.3,0.3
			c0.2,0.1,0.3,0.2,0.3,0.3c0,0.2,0.1,0.3,0.3,0.5c0.2,0.2,0.4,0.2,0.6,0.2h0c0.3,0,0.4-0.2,0.4-0.6c0-0.2-0.1-0.3-0.2-0.5
			c-0.1-0.1-0.2-0.3-0.2-0.5c0-0.3-0.1-0.5-0.2-0.5c-0.1,0-0.1-0.1,0-0.4c0.1-0.1,0.1-0.2,0.1-0.3c0,0-0.1-0.1-0.1-0.1
			c-0.1-0.1-0.2-0.2-0.2-0.3c0-0.1-0.1-0.3-0.3-0.5c-0.2-0.2-0.4-0.3-0.6-0.1c-0.3,0.1-1.8,0.3-4.7,0.4h-0.7c-1.5,0-2.2-0.1-2.3-0.3
			c0-0.1-0.1-0.1-0.2-0.1c-0.1,0-0.2,0-0.2,0.1l0,0.1c0,0.1,0,0.1,0,0.1c0,0,0,0.1,0,0.2c0,0.1,0,0.2,0,0.2c0,0.2-0.1,0.3-0.3,0.3
			c-0.2,0.1-0.3,0.2-0.2,0.5c0.1,0.2,0.1,0.4,0.2,0.5c0.1,0.1,0.2,0.1,0.3,0.1c0.1,0,0.3,0,0.4,0c0.1,0,0.2,0,0.4,0
			c0.3,0,0.5,0.1,0.6,0.4c0.1,0.2,0.1,0.7,0.1,1.4c0,0.9-0.1,1.4-0.2,1.4c-0.1,0-0.1,0.2,0,0.4c0.1,0.2,0.1,0.4,0,0.6
			c-0.1,0.2-0.2,0.3-0.3,0.3c-0.1,0-0.1,0.1,0.1,0.2c0.1,0.1,0.1,0.3,0.1,0.6c0,0.5-0.1,1.5-0.2,2.8l-0.1,0.9h-0.6
			c-0.4,0-0.6,0.1-0.6,0.3c0,0.2-0.1,0.3-0.3,0.3c-0.1,0-0.2,0.1-0.2,0.3c0,0.3,0.1,0.5,0.3,0.6c0.2,0.1,0.3,0.2,0.3,0.4
			c0,0.1,0.2,0.1,0.7,0.1c0.5,0,0.8-0.1,0.9-0.3c0.1-0.1,0.5-0.2,1.2-0.2c0.5,0,0.9,0,1.3,0c0.7,0,1.1,0.1,1.2,0.2
			c0,0.1,0.2,0.1,0.4,0c0.2-0.1,0.7-0.2,1.5-0.2c0.8,0,1.3,0,1.5-0.1c0.2,0,0.3-0.1,0.5-0.3c0.2-0.2,0.3-0.3,0.2-0.5
			c0-0.2,0-0.3,0.1-0.4c0.1-0.1,0.2-0.3,0.2-0.8c0-0.3,0-0.5,0-0.6c0-0.1,0.1-0.1,0.2-0.1c0.2,0,0.3-0.2,0.3-0.5
			c0-0.2-0.1-0.4-0.2-0.6C230.8,790.3,230.6,790.2,230.5,790.2z"/>
		<path d="M220.4,792c0.1-0.2,0.1-0.3,0-0.3c-0.1,0-0.2,0.1-0.2,0.2c0,0.1,0,0.2,0.1,0.2C220.4,792.1,220.4,792.1,220.4,792z"/>
		<path d="M262.4,785.7c-0.2-0.1-0.2-0.2-0.2-0.5c0-0.3,0-0.5-0.1-0.5c-0.1,0-0.1-0.1-0.1-0.4c0-0.3-0.1-0.4-0.2-0.4
			c-0.1,0-0.2-0.1-0.3-0.3c-0.1-0.2-0.2-0.3-0.3-0.4c-0.1-0.1-0.2-0.2-0.2-0.4c0-0.2-0.1-0.3-0.4-0.3c-0.7,0-1-0.1-1-0.4
			c0-0.1-0.1-0.2-0.2-0.2c-0.1,0-0.2,0-0.2-0.1s-0.1-0.1-0.3-0.1c-0.2,0-0.3-0.1-0.4-0.2c0-0.1-0.5-0.2-1.5-0.2
			c-0.9,0-1.5,0.1-1.6,0.2c-0.1,0.1-0.2,0.2-0.4,0.2c-0.2,0-0.3,0.1-0.4,0.3c-0.1,0.2-0.3,0.4-0.6,0.4c-0.3,0-0.6,0.1-1.1,0.2
			c-0.5,0.1-0.7,0.3-0.8,0.5c0,0.2-0.2,0.4-0.5,0.7s-0.4,0.5-0.4,0.5c0,0.1-0.1,0.1-0.2,0.1c-0.1,0-0.2,0.1-0.3,0.4
			c-0.1,0.2-0.2,0.5-0.3,0.7c-0.2,0.3-0.2,0.8-0.2,1.8c0,1.2,0.1,2.1,0.4,2.9c0.5,1.4,0.9,2.2,1.2,2.3c0.2,0,0.3,0.1,0.3,0.3
			c0,0.2,0.2,0.2,0.4,0.2c0.2,0,0.4,0,0.4,0.1c0,0.1,0.1,0.1,0.3,0.1c0.2,0,0.3,0.1,0.3,0.4c0,0.2,0,0.3,0.1,0.4
			c0.1,0.1,0.2,0,0.4-0.1c0.1-0.1,0.2-0.1,0.3,0c0.2,0.1,0.9,0.2,2.2,0.2c1.1,0,1.7-0.1,1.7-0.2c0-0.1,0.3-0.2,0.7-0.2
			c0.4,0,0.6-0.1,0.6-0.2c0-0.2,0.1-0.3,0.2-0.3c0,0,0.2-0.1,0.4-0.3c0.3-0.2,0.4-0.3,0.5-0.3c0.1,0,0.2-0.1,0.2-0.3
			c0.1-0.2,0.2-0.3,0.3-0.3c0.1,0,0.2-0.1,0.3-0.3c0-0.2,0.2-0.3,0.4-0.3c0.2-0.1,0.3-0.1,0.3-0.2c0-0.1,0.1-0.1,0.2-0.1
			c0.1,0,0.2-0.2,0.2-0.6c0-0.3,0-0.5-0.1-0.5c-0.1,0-0.1-0.1,0-0.2c0.1-0.1,0.2-0.8,0.2-2.1c0-0.3,0-0.7,0-1.1
			C262.6,786,262.6,785.7,262.4,785.7z M260.2,788.8c-0.1,0-0.2,0.2-0.2,0.4c0,0.3-0.1,0.4-0.2,0.5c-0.1,0.1-0.2,0.4-0.3,0.8
			c-0.1,0.4-0.1,0.6-0.3,0.6c-0.1,0-0.2,0-0.2,0.1c0,0.1-0.1,0.2-0.4,0.2c-0.3,0.1-0.4,0.2-0.4,0.3c0,0.1,0,0.2-0.1,0.2
			c-0.1,0.1-0.2,0.1-0.4,0.2c-0.1,0.1-0.2,0.1-0.3,0.1c0,0.1-0.2,0.1-0.4,0.1c-0.2,0-0.3,0.1-0.5,0.2c-0.1,0.1-0.2,0.1-0.4,0.1
			c-0.2,0-0.4,0-0.7-0.1c-0.5-0.1-1-0.3-1.3-0.6c-0.3-0.3-0.7-0.8-1-1.5c-0.3-0.5-0.4-0.9-0.5-1.1c0-0.2-0.1-0.7-0.1-1.4
			c0-0.7,0-1.1,0.1-1.4c0-0.2,0.1-0.5,0.3-0.8c0.3-0.5,0.6-0.9,1-1.3c0.4-0.4,0.8-0.6,1-0.7c0.3,0,0.5-0.1,0.5-0.3
			c0-0.1,0.1-0.2,0.2-0.2c0.1,0,0.2,0,0.2-0.1c0-0.1,0.1-0.1,0.3-0.1c0.2,0,0.3,0,0.3,0.1c0,0.1,0.3,0.1,0.9,0.1
			c0.5,0,0.8,0.1,0.8,0.2c0,0.1,0.1,0.2,0.3,0.3c0.2,0.1,0.3,0.2,0.3,0.3c0,0.1,0.1,0.2,0.3,0.3c0.3,0.1,0.5,0.4,0.5,0.8
			c0,0.2,0.1,0.5,0.3,0.8c0.2,0.3,0.3,0.7,0.3,1.1c0,0.5,0,0.7,0.1,0.8c0.1,0.1,0.1,0.2,0.1,0.4
			C260.4,788.6,260.3,788.7,260.2,788.8z"/>
		<path d="M280.2,783.9c0-0.3-0.1-0.5-0.2-0.6c-0.1-0.1-0.1-0.2,0-0.4c0.1-0.1,0.1-0.2,0.1-0.2c0-0.1-0.1-0.2-0.2-0.2
			c-0.1-0.1-0.2-0.2-0.2-0.3c0-0.2-0.1-0.3-0.3-0.5c-0.2-0.2-0.4-0.3-0.5-0.3c-0.1,0-0.2,0-0.2,0.1c0,0.1-0.3,0.1-0.9,0.2
			c-0.5,0.1-1.1,0.1-1.7,0.1c-0.6,0-0.9,0-1,0.1c-0.1,0-0.5,0.1-1.4,0.1c-0.9,0.1-1.8,0.2-2.7,0.3c-0.9,0.1-1.4,0.2-1.4,0.2
			c0,0,0,0.1,0,0.2c0,0.1,0,0.2,0.1,0.3c0.1,0.2,0.1,0.3,0.2,0.4c0.1,0,0.3,0.1,0.6,0.1c0.5,0,0.9,0.1,1,0.3
			c0.1,0.2,0.2,0.7,0.2,1.6c0,0.9-0.1,1.4-0.2,1.5c-0.1,0.1-0.1,0.2,0,0.4c0.1,0.3,0.2,0.5,0,0.7c-0.1,0.2-0.2,0.3-0.3,0.3
			c-0.1,0,0,0.1,0.1,0.2c0.1,0.1,0.1,0.3,0.1,0.6c0,0.1,0,0.4-0.1,0.8c-0.1,1.4-0.2,2.3-0.2,2.6c-0.1,0.4-0.1,0.5-0.3,0.6
			c-0.2,0.1-0.5,0.3-0.8,0.6l-0.5,0.6h5v-0.5c0-0.2,0-0.4-0.1-0.4c0-0.1-0.1-0.1-0.3-0.1c-0.2,0-0.4,0-0.4-0.1
			c0-0.1-0.1-0.1-0.2-0.1c-0.1,0-0.2-0.1-0.3-0.3c0-0.1,0-0.4,0-1.2c0-1.2,0-2.1,0.1-2.8c0-0.1,0.5-0.1,1.4-0.1
			c0.8,0,1.3,0.1,1.5,0.2c0.3,0.1,0.4,0.4,0.4,0.9c0,0.3,0,0.5,0.1,0.5c0.1,0,0.1-0.1,0.3-0.2c0.1-0.1,0.3-0.2,0.5-0.1
			c0.2,0.1,0.3,0,0.3-0.2c0-0.2,0-0.3,0.1-0.4c0.1-0.1,0.1-0.2,0-0.2c-0.1-0.1-0.2-0.3-0.2-0.6c0-0.4,0.1-0.7,0.2-0.8
			c0.1-0.1,0.1-0.1,0.1-0.2c0-0.1,0-0.1-0.1-0.2c-0.1-0.1-0.1-0.2-0.1-0.2c0-0.1,0-0.1,0.1-0.2c0.2-0.1,0.2-0.2,0.2-0.4
			c0-0.3-0.4-0.4-1.1-0.4c-0.4,0-0.6,0.2-0.6,0.5c0,0.1,0,0.2,0.1,0.3c0.1,0.2,0,0.4,0,0.5c-0.1,0.1-0.4,0.2-1,0.3
			c-0.6,0.1-1.1,0.2-1.6,0.2h-0.5v-0.6c0-0.4,0.1-0.6,0.2-0.7c0.1-0.1,0.2-0.2,0.2-0.4c0-0.3-0.1-0.5-0.2-0.8
			c-0.1-0.2-0.2-0.4-0.2-0.4c0-0.1,0.1-0.1,0.2-0.3c0.2-0.2,0.3-0.4,0.2-0.6c0-0.1,0-0.1,0-0.2c0-0.1,0.1-0.2,0.4-0.3
			c0.3-0.1,0.8-0.1,1.6-0.1c0.7,0,1.1-0.1,1.1-0.1c0.3,0,0.5,0.1,0.7,0.2c0.2,0.2,0.3,0.3,0.5,0.4c0.2,0.1,0.3,0.2,0.3,0.3
			c0,0.1,0.1,0.3,0.3,0.4c0.2,0.1,0.4,0.3,0.5,0.6c0.1,0.4,0.4,0.5,0.8,0.5c0.1,0,0.2,0,0.3-0.1c0.1-0.1,0.2-0.2,0.2-0.6
			c0-0.3-0.1-0.5-0.2-0.5C280.2,784.4,280.2,784.2,280.2,783.9z"/>
		<path d="M310,782.2h-1c-0.5,0-0.9,0-1.1-0.1c-0.2-0.1-0.3-0.3-0.3-0.5c0-0.1,0-0.2-0.1-0.2c-0.1,0-0.2,0-0.2,0.1
			c-0.1,0.1-0.3,0.2-0.7,0.2c-0.2,0-0.2,0-0.2-0.1c0-0.1-0.2-0.1-0.7-0.1c-0.5,0-0.8,0.1-0.8,0.2c-0.1,0.1-0.2,0.2-0.4,0.2
			c-0.2,0-0.3,0-0.4,0c-0.1,0-0.1,0-0.2,0c-0.1,0-0.2,0-0.2,0c-0.3,0-0.5,0.1-0.8,0.4c-0.3,0.3-0.5,0.5-0.7,0.5s-0.4,0.2-0.5,0.5
			c-0.1,0.3-0.3,0.4-0.6,0.4c-0.5,0.1-0.7,0.4-0.8,1c0,0.2-0.1,0.4-0.2,0.6c-0.1,0.2-0.2,0.5-0.2,0.6c0,0.3-0.1,0.4-0.2,0.5
			c-0.1,0.1-0.1,0.2-0.1,0.4c0,0.2-0.1,0.4-0.2,0.5c-0.1,0.1-0.2,0.6-0.2,1.5c0,1,0.1,1.6,0.2,1.6c0.1,0,0.1,0.1,0.1,0.3
			c0,0.1,0,0.2-0.1,0.2c-0.1,0,0,0.1,0.2,0.4c0.2,0.2,0.4,0.4,0.5,0.4c0.1,0,0.1,0.1,0.2,0.4c0.1,0.2,0.3,0.4,0.6,0.8
			c0.4,0.3,0.6,0.5,0.9,0.6c0.2,0.1,0.2,0.1,0.2,0.2c0,0.1,0.3,0.2,1,0.3c0.6,0.1,1.4,0.1,2.1,0.1c1.1,0,1.8-0.1,2-0.3
			c0.2-0.2,0.5-0.3,0.8-0.4c0.4-0.1,0.7-0.2,0.8-0.5c0.2-0.3,0.4-0.6,0.7-0.9c0.3-0.3,0.5-0.5,0.5-0.6c0-0.1-0.1-0.2-0.3-0.3
			c-0.4-0.2-0.6-0.3-0.8-0.3c-0.1,0-0.2,0.1-0.3,0.3c-0.1,0.3-0.2,0.4-0.4,0.4c-0.2,0-0.4,0.1-0.7,0.4c-0.2,0.3-0.4,0.3-0.5,0.2
			c-0.1-0.1-0.2-0.1-0.4,0.1c-0.1,0.1-0.4,0.2-0.7,0.2c-0.1,0-0.4,0-0.9-0.1c-0.7,0-1.1-0.1-1.3-0.2c-0.2-0.1-0.3-0.3-0.3-0.6
			c0-0.2-0.2-0.5-0.6-0.9c-0.3-0.3-0.5-0.5-0.6-0.7c-0.1-0.2-0.2-0.5-0.3-1c-0.1-0.7-0.2-1.1-0.3-1.1c-0.1,0-0.1-0.1-0.1-0.2
			c0-0.1,0-0.2,0.1-0.3c0.2,0,0.3-0.7,0.3-1.9c0-0.2,0.1-0.3,0.3-0.3c0.2,0,0.3-0.1,0.2-0.3c-0.1-0.3,0.1-0.4,0.4-0.6
			c0.3-0.1,0.5-0.3,0.5-0.4c0-0.1,0.1-0.3,0.3-0.4c0.2-0.1,0.5-0.2,0.7-0.2c0.2,0,0.3-0.1,0.3-0.2c0-0.1,0.2-0.2,0.7-0.3
			c0.1,0,0.1,0,0.2,0c0.1,0,0.1,0,0.2,0c0.6,0,1,0.2,1.2,0.5c0.1,0.2,0.3,0.3,0.6,0.4c0.2,0,0.3,0.1,0.3,0.1c0,0.1,0.1,0.1,0,0.3
			c-0.1,0.2,0,0.3,0.1,0.4c0.1,0.1,0.3,0.4,0.4,1c0.1,0.4,0.1,0.7,0.2,0.8c0.1,0.1,0.2,0.2,0.4,0.3c0.3,0.1,0.4,0.2,0.4,0.4
			c0,0.1,0,0.1,0,0.1c0,0,0.1,0,0.1,0c0.1-0.1,0.2-0.6,0.2-1.6c0-1,0.1-1.6,0.2-1.6c0.1-0.1,0.1-0.3,0-0.8L310,782.2z"/>
		<path d="M328.3,783h-0.2c-0.4,0-0.8-0.1-1-0.3c-0.2-0.1-0.3-0.2-0.4-0.2c0,0-0.1,0.1-0.1,0.2c0,0.1,0,0.2-0.1,0.2
			c-0.1,0-0.4,0-0.8,0.1c-0.6,0-1,0-1,0.1c-0.1,0.1-0.1,0.3-0.1,0.7l0,0.6l0.8,0.1l0.8,0v2.3c0,1.5,0,2.3,0.1,2.4
			c0.1,0,0.1,0.1-0.1,0.3c-0.1,0.2-0.2,0.4-0.2,0.5v0.2c0,0.3,0,0.6-0.1,0.9c-0.1,0.3-0.2,0.5-0.3,0.5c-0.1,0.1-0.2,0.1-0.2,0.3
			c0,0.1-0.1,0.3-0.3,0.4c-0.2,0.2-0.4,0.2-0.6,0.2c-0.3,0-0.4,0.1-0.5,0.2c-0.1,0.1-0.2,0.2-0.4,0.2c-0.1,0-0.2,0-0.5-0.1
			c-0.5-0.1-0.7-0.1-0.8-0.2c0-0.1-0.2-0.1-0.4-0.1c-0.2,0-0.4-0.1-0.8-0.2c-0.2-0.1-0.3-0.2-0.4-0.3c-0.1-0.1-0.1-0.2-0.1-0.5V791
			v-0.3c0-0.4,0-0.6-0.1-0.6c-0.1,0-0.2-0.1-0.1-0.3c0-0.2,0.1-0.3,0.2-0.3c0.1-0.1,0.1-0.1,0-0.2c-0.1,0-0.1-0.1-0.1-0.2
			c0-0.1,0-0.2,0-0.3c0-0.1,0.1-0.1,0.1-0.1c0.1,0,0.1-0.3,0.1-0.9c0-0.9-0.1-1.4-0.2-1.5c-0.1-0.1-0.1-0.2,0-0.3
			c0.1-0.1,0.2-0.4,0.2-0.8c0-0.1,0-0.2,0-0.3c0-0.1-0.1-0.2-0.1-0.3c0-0.1,0-0.1,0-0.1c0-0.1,0.5-0.1,1.4-0.1c0.1,0,0.1,0,0.2,0
			c0.1,0,0.1,0,0.2,0h0c0,0,0.1-0.1,0.1-0.2c0-0.1,0-0.3-0.1-0.6c0-0.2-0.1-0.4-0.3-0.5c-0.2-0.1-0.5-0.1-1-0.1
			c-0.1,0-0.6,0-1.5,0.1c-1.4,0.1-2.1,0.2-2.3,0.4c-0.2,0.2-0.2,0.4-0.2,0.5c0,0.4,0.3,0.6,1,0.7c0.5,0.1,0.7,0.2,0.7,0.4
			c0,0.1-0.1,0.2-0.2,0.3c-0.2,0.1-0.2,0.4-0.1,0.7c0.1,0.3,0.1,0.6,0,0.6c-0.1,0.1-0.2,0.1-0.3,0.1c-0.1,0-0.1,0-0.1,0.1
			c0,0.2,0.1,0.4,0.4,0.5c0.2,0.1,0.4,0.2,0.4,0.4c0,0.1-0.1,0.2-0.2,0.3c-0.1,0.1-0.2,0.4-0.2,0.9v0.4c0,0.8,0.1,1.3,0.2,1.3
			c0.1,0.1,0.1,0.2,0.1,0.5c0,0.2,0,0.3-0.1,0.3c-0.1,0-0.1,0.1-0.2,0.4c-0.1,0.3,0,0.4,0.2,0.5c0.1,0.1,0.3,0.3,0.4,0.6
			c0.1,0.3,0.2,0.5,0.3,0.5s0.1,0.1,0.2,0.4c0.1,0.3,0.2,0.4,0.4,0.4c0.2,0,0.4,0,0.5,0.1c0.1,0.1,1,0.2,2.5,0.2
			c1.3,0,1.9-0.1,1.9-0.2s0.1-0.2,0.2-0.2c0.1,0,0.2-0.1,0.3-0.2c0.1-0.1,0.2-0.2,0.4-0.2c0.2,0,0.3-0.1,0.3-0.3
			c0-0.1,0.1-0.2,0.1-0.3c0.1,0,0.2,0,0.5,0h0.1c0.3,0,0.5,0,0.5-0.1c0-0.1-0.1-0.1-0.2-0.2c-0.1-0.1-0.2-0.2-0.2-0.3
			c0-0.2,0.1-0.4,0.2-0.6c0.2-0.2,0.2-0.4,0.1-0.4c-0.1,0-0.2-0.1-0.2-0.2c0-0.1,0-0.2,0.1-0.2c0.1,0,0.2-0.2,0.2-0.4
			c0-0.2,0.1-0.6,0.1-0.9c0-0.4,0-0.6,0-0.6c0-0.1,0-0.5,0.1-1.1c0-0.6,0-1.2,0.1-1.7c0-0.5,0.1-0.8,0.2-0.9c0.1-0.1,0.2-0.2,0-0.2
			c-0.1-0.1-0.2-0.1-0.2-0.2c0-0.1,0.1-0.3,0.3-0.4c0.2-0.1,0.4-0.2,0.6-0.2c0.1,0,0.2,0,0.2,0c0,0,0.1,0,0.2,0
			c0.3,0,0.4-0.1,0.4-0.3c0-0.1,0-0.1-0.1-0.2c-0.1-0.1-0.1-0.2,0-0.2c0.1,0,0.1-0.1,0.1-0.2C329.4,783.1,329,783,328.3,783z"/>
		<path d="M346.1,782.4c-0.1,0-0.2,0-0.2-0.1s-0.1-0.2-0.4-0.3c-0.3-0.1-0.4-0.3-0.5-0.5l-0.2-0.3c-0.1-0.1-0.2-0.1-0.2,0.1
			c0,0.1-0.3,0.1-0.8,0.1c-0.6,0-0.9,0-0.9-0.1s-0.1-0.1-0.3-0.1c-0.5,0-0.8-0.1-0.8-0.4c0-0.1-0.1-0.2-0.3-0.2s-0.3,0.1-0.2,0.3
			c0,0,0,0,0,0.1c0,0,0,0,0,0.1c0,0.1-0.6,0.2-1.8,0.2h-1.8l-0.5,0.5c-0.3,0.3-0.5,0.5-0.5,0.7c0,0.2,0.2,0.4,0.7,0.4
			c0.2,0,0.3,0,0.3,0.1s0,0.1,0.1,0.1c0.2,0,0.4,0.2,0.6,0.5c0.2,0.3,0.3,0.7,0.3,1.2c0,0.4,0.1,0.6,0.1,0.6c0,0.2-0.1,0.4-0.2,0.5
			c-0.2,0.1-0.2,0.2-0.1,0.3c0.1,0.1,0.2,0.3,0.2,0.7c0,0.3-0.1,0.5-0.2,0.5c-0.2,0-0.2,0,0,0.1c0.1,0.1,0.1,0.3,0,0.6
			c-0.1,0.3-0.1,0.5,0.1,0.6c0.1,0.1,0.1,0.2,0.1,0.3c0,0.2-0.1,0.4-0.2,0.5c-0.1,0.1-0.1,0.6-0.2,1.6l0,1.5l-0.4,0.2
			c-0.2,0.1-0.5,0.2-1.1,0.2c-0.3,0-0.5,0.1-0.5,0.1c-0.1,0.1-0.1,0.2-0.1,0.4c0,0.2,0.2,0.5,0.6,0.8c0.2,0.1,0.3,0.2,0.5,0.2
			c0.2,0,0.3-0.1,0.3-0.2c0.1-0.1,0.8-0.2,2.1-0.2c1.4-0.1,2.1-0.1,2.2-0.3c0.1-0.1,0.2-0.2,0.3-0.2c0.1,0,0.2-0.1,0.2-0.2
			c0-0.1-0.1-0.2-0.4-0.2c-0.3,0-0.4-0.1-0.5-0.3c0-0.2-0.2-0.3-0.5-0.4c-0.4-0.1-0.5-0.2-0.5-0.4c0-0.1,0-0.2,0.1-0.3
			c0.2-0.2,0.2-0.3,0.1-0.4c-0.1,0-0.2-0.6-0.2-1.6c0-0.3,0-0.6,0-1c0-0.3,0-0.4,0.1-0.5c0-0.1,0.1-0.1,0.2-0.1c0.2,0,0.5,0,0.8,0.1
			c0.3,0.1,0.5,0.2,0.6,0.3c0.1,0.1,0.7,0.2,1.7,0.2c0.8,0,1.2,0,1.2-0.1c0.1-0.1,0-0.2-0.2-0.3c-0.2-0.1-0.4-0.2-0.5-0.4
			c-0.1-0.1-0.2-0.2-0.2-0.2c0,0,0.1-0.1,0.3-0.1c0.3-0.1,0.4-0.1,0.4-0.2c0-0.1,0.1-0.2,0.4-0.3c0.3-0.1,0.4-0.2,0.4-0.4
			c0-0.5,0.1-0.7,0.3-0.7c0.1,0,0.2-0.1,0.4-0.2c0.2-0.2,0.2-0.7,0.2-1.5c0-1-0.1-1.5-0.3-1.7C346.3,782.5,346.2,782.4,346.1,782.4z
			 M344.5,786.1c0,0-0.1,0.1-0.4,0.1h-0.1c0,0-0.1,0-0.1,0c-0.1,0-0.1,0,0,0.1c0.1,0.1,0.2,0.1,0.2,0.2c0,0.1-0.1,0.3-0.3,0.5
			c-0.2,0.2-0.5,0.3-0.7,0.3c-0.3,0-0.6,0.1-1.1,0.2c-0.1,0-0.2,0-0.3,0c-0.2,0-0.4-0.1-0.7-0.3c-0.2-0.2-0.3-0.3-0.4-0.3
			c0-0.1,0-0.1,0.1-0.2c0.1-0.1,0.2-0.7,0.2-1.6v-1.2c0-0.3,0.1-0.5,0.2-0.7c0.1-0.2,0.3-0.4,0.4-0.4h0.1l0.4,0.1
			c0.3,0,0.5,0.1,0.8,0.1c0.2,0.1,0.4,0.1,0.4,0.1c0,0.1,0.1,0.1,0.4,0.2c0.3,0.1,0.4,0.2,0.4,0.3c0,0.1,0.1,0.3,0.2,0.4
			c0.1,0.1,0.2,0.2,0.1,0.3c-0.1,0.1-0.1,0.3,0.1,0.6c0.1,0.2,0.2,0.4,0.2,0.6C344.6,785.3,344.5,785.6,344.5,786.1z"/>
		<path d="M338.4,779.6c0-0.1-0.1-0.1-0.3-0.1c-0.2,0-0.3,0-0.3,0.1c0,0.1,0.1,0.2,0.3,0.2C338.3,779.8,338.4,779.7,338.4,779.6z"/>
		<path d="M342.8,780.6C342.9,780.6,342.9,780.5,342.8,780.6c0.1-0.1,0-0.1-0.2-0.1c-0.2,0-0.3,0.1-0.3,0.2
			C342.4,780.7,342.5,780.7,342.8,780.6C342.7,780.6,342.8,780.6,342.8,780.6z"/>
		<path d="M362.1,789.5c0-0.6-0.1-0.9-0.2-1.1c-0.1-0.2-0.3-0.4-0.6-0.5c-0.3-0.1-0.5-0.3-0.5-0.4c-0.1-0.1-0.3-0.3-0.9-0.6
			c-0.5-0.3-1-0.5-1.3-0.6c-0.2-0.1-0.5-0.2-0.9-0.5c-0.4-0.3-0.6-0.4-0.6-0.5c0-0.1-0.1-0.2-0.2-0.3c-0.2-0.1-0.2-0.2-0.2-0.3
			c0,0,0-0.1,0-0.1c0.1-0.1,0.1-0.2,0.1-0.3c0-0.1,0-0.3-0.1-0.6c0-0.1,0-0.2,0-0.2c0,0,0.2-0.1,0.3-0.1c0.3,0,0.4-0.1,0.4-0.2
			c0-0.1,0.1-0.2,0.4-0.4c0.3-0.2,0.4-0.3,0.4-0.3c0-0.1,0.1-0.1,0.4-0.2c0.1,0,0.1,0,0.2,0c0.4,0,0.8,0.2,1.2,0.5
			c0.5,0.3,0.7,0.6,0.7,0.9c0,0.2,0.1,0.4,0.3,0.5c0.2,0.1,0.3,0.3,0.3,0.4c0,0.1,0.1,0.3,0.2,0.5s0.3,0.3,0.4,0.3c0,0,0,0,0.1,0
			c0.1-0.1,0.1-0.7,0.2-2v-0.8c0-0.6-0.1-0.9-0.2-0.9c-0.1,0-0.1,0-0.1,0c-0.3,0.1-0.6,0.2-0.8,0.2c-0.3,0-0.6-0.1-1-0.3
			c-0.4-0.2-0.6-0.3-0.7-0.3c0,0-0.1,0-0.2,0.1c-0.3,0.1-0.6,0.1-0.8,0.1c-0.3,0-0.4,0-0.5,0.1c0,0.1-0.1,0.2-0.3,0.2
			c-0.2,0-0.4-0.1-0.5-0.2c-0.1-0.1-0.3-0.2-0.5-0.2h0c-0.1,0-0.1,0-0.1,0c-0.1,0-0.1,0-0.1,0c0,0,0.1,0,0.1,0
			c0.1,0.1,0.2,0.1,0.2,0.2c0,0.2-0.2,0.3-0.5,0.4c-0.3,0.1-0.4,0.2-0.4,0.4c0.1,0.2,0,0.3-0.2,0.4c-0.3,0.1-0.6,0.5-1.1,1.1
			c-0.1,0.2-0.2,0.4-0.2,0.6c0,0,0,0.3,0.1,0.8c0.1,0.7,0.3,1.1,0.4,1.3c0.1,0.2,0.4,0.4,0.7,0.7c0.4,0.3,0.6,0.4,0.8,0.4
			c0.1,0,0.3,0.1,0.6,0.4c0.4,0.3,0.9,0.6,1.7,0.8c0.5,0.1,0.8,0.3,1.1,0.6c0.2,0.2,0.3,0.4,0.5,0.7c0.1,0.3,0.2,0.5,0.2,0.7
			c0,0.1,0,0.1-0.1,0.2c-0.1,0-0.1,0.2-0.1,0.4c0.1,0.2,0,0.4-0.2,0.6c-0.1,0.1-0.2,0.3-0.2,0.4c0,0.2-0.5,0.4-1.4,0.5
			c-0.1,0-0.3,0-0.6,0c-0.9,0-1.7-0.4-2.2-1.2c-0.3-0.4-0.5-0.8-0.5-1c0,0,0-0.1,0-0.2c0-0.1,0-0.2,0-0.2c0,0-0.1-0.1-0.1-0.1
			c-0.1,0-0.1,0-0.1-0.1c0.1-0.3-0.1-0.5-0.4-0.6c-0.1,0-0.2-0.1-0.3-0.1c-0.3,0-0.4,0.2-0.5,0.5c-0.1,1.2-0.1,1.9-0.2,1.9
			c-0.1,0.1-0.1,0.4-0.2,0.8c0,0.1,0,0.3,0,0.4c0,0.2,0.1,0.4,0.3,0.6c0.1,0.1,0.2,0.2,0.3,0.2c0,0,0.1,0,0.2-0.2
			c0.1-0.2,0.2-0.3,0.2-0.4c0-0.3,0.2-0.3,0.5-0.1c0.9,0.5,1.8,0.7,2.9,0.7c0.5,0,1.1-0.1,1.6-0.2c0.6-0.1,1.1-0.3,1.4-0.6
			c0.3-0.3,0.5-0.5,0.5-0.5c0-0.1,0.1-0.2,0.2-0.3c0.2-0.1,0.3-0.4,0.3-0.9c0.1-0.5,0.1-0.7,0.2-0.7c0.1,0,0.1,0,0-0.1
			C362.2,790.6,362.2,790.2,362.1,789.5z M357.7,788C357.7,788,357.7,787.9,357.7,788c-0.1-0.1-0.1-0.1,0-0.1
			C357.8,787.8,357.8,787.9,357.7,788C357.8,787.9,357.8,788,357.7,788z"/>
		<path d="M356.2,788.7c0-0.1,0-0.2-0.1-0.2c-0.1,0-0.1,0-0.1,0.1l0.1,0.2C356.2,789,356.2,788.9,356.2,788.7z"/>
		<polygon points="51.7,808.8 44,814 41.2,799.9 38.4,814 30.7,808.8 35.9,816.5 21.8,819.3 35.9,822 30.7,829.8 38.4,824.6 
			41.2,838.6 43.9,824.6 51.7,829.8 46.5,822 60.5,819.3 46.5,816.5 		"/>
		<polygon points="468.1,816.5 473.3,808.8 465.5,814 462.8,799.9 460,814 452.3,808.8 457.5,816.5 443.4,819.3 457.5,822 
			452.3,829.8 460,824.6 462.8,838.6 465.5,824.6 473.3,829.8 468.1,822 482.1,819.3 		"/>
		<polygon points="30.7,57.5 38.4,52.3 41.2,66.4 44,52.3 51.7,57.5 46.5,49.8 60.5,47 46.5,44.3 51.7,36.5 43.9,41.7 41.2,27.7 
			38.4,41.7 30.7,36.5 35.9,44.3 21.8,47 35.9,49.8 		"/>
		<polygon points="473.3,36.5 465.5,41.7 462.8,27.7 460,41.7 452.3,36.5 457.5,44.3 443.4,47 457.5,49.8 452.3,57.5 460,52.3 
			462.8,66.4 465.5,52.3 473.3,57.5 468.1,49.8 482.1,47 468.1,44.3 		"/>
		<path d="M256.2,376.5c0-3.9-4.2-30.8-4.2-30.8s-4.2,26.9-4.2,30.8c0,3.9,1.9,5.2,4.2,5.2C254.3,381.7,256.2,380.4,256.2,376.5z"/>
		<polygon points="246.7,226.7 221.2,254.9 249.4,229.3 252,272.3 254.5,229.3 282.7,254.9 256.8,226.7 294.6,224.1 257.2,221.6 
			282.7,193.4 254.5,218.9 252,175.9 249.4,218.9 221.2,193.4 246.7,221.6 209.3,224.1 		"/>
		<path d="M139.9,238.6c0.9,0.4,1.8,0.8,2.7,1.2c0.5,0.2,1.1,0.5,1.6,0.7c0.1,0.1,0.2,0.1,0.2,0.1c0,0,0,0,0,0.1
			c1,1.7,1.2,4.2,1.8,6.1c0.1,0.4,0.7,0.4,0.8,0c0.6-1.9,0.9-4.4,1.8-6.1c0,0,0,0,0-0.1c0,0,0.1,0,0.1-0.1c0.5-0.3,1.2-0.5,1.7-0.8
			c0.9-0.4,1.8-0.8,2.7-1.2c0.4-0.2,0.2-0.6-0.1-0.7c-0.9-0.4-1.8-0.8-2.7-1.1c-1.1-0.5-1.7-0.5-2-1.5c-0.6-1.9-1.1-3.9-1.6-5.9
			c0,0,0,0,0-0.1c0,0,0,0,0-0.1c-0.1-0.1-0.2-0.2-0.3-0.2c-0.1,0-0.3,0-0.3,0.2c0,0,0,0.1,0,0.1c0,0,0,0,0,0c0,0,0,0,0,0
			c0,0,0,0,0,0c-0.5,1.9-1,3.9-1.5,5.9c-0.5,1.5-3.3,2.1-4.7,2.7C139.7,237.9,139.6,238.4,139.9,238.6z M145.4,236
			c0.6-1,0.7-2.7,1-3.7c0.1-0.5,0.3-0.9,0.4-1.4c0.1,0.5,0.3,0.9,0.4,1.4c0.3,1.1,0.4,2.7,1,3.7c0.6,1.1,2.7,1.7,4.2,2.2
			c-0.7,0.3-1.5,0.7-2.2,1c-0.6,0.3-1.5,0.5-1.9,1c-0.6,0.8-0.7,2.4-1,3.4c-0.2,0.6-0.3,1.1-0.5,1.7c-0.2-0.6-0.3-1.1-0.5-1.7
			c-0.3-0.9-0.4-2.6-1-3.4c-0.4-0.6-1.2-0.7-1.9-1c-0.7-0.3-1.5-0.7-2.2-1C142.7,237.7,144.7,237.1,145.4,236z"/>
		<path d="M245.1,459.9c0.9,0.4,1.8,0.8,2.7,1.2c0.5,0.2,1.1,0.5,1.6,0.7c0.1,0.1,0.2,0.1,0.2,0.1c0,0,0,0,0,0.1
			c1,1.7,1.2,4.2,1.8,6.1c0.1,0.4,0.7,0.4,0.8,0c0.6-1.9,0.9-4.4,1.8-6.1c0,0,0,0,0-0.1c0,0,0.1,0,0.1-0.1c0.5-0.3,1.2-0.5,1.7-0.8
			c0.9-0.4,1.8-0.8,2.7-1.2c0.4-0.2,0.2-0.6-0.1-0.7c-0.9-0.4-1.8-0.8-2.7-1.1c-1.1-0.5-1.7-0.5-2-1.5c-0.6-1.9-1.1-3.9-1.6-5.9
			c0,0,0,0,0-0.1c0,0,0,0,0-0.1c-0.1-0.1-0.2-0.2-0.3-0.2c-0.1,0-0.3,0-0.3,0.2c0,0,0,0.1,0,0.1c0,0,0,0,0,0c0,0,0,0,0,0
			c0,0,0,0,0,0c-0.5,1.9-0.9,3.9-1.5,5.9c-0.5,1.5-3.3,2.1-4.7,2.7C245,459.3,244.8,459.8,245.1,459.9z M250.6,457.4
			c0.6-1,0.7-2.7,1-3.7c0.1-0.5,0.3-0.9,0.4-1.4c0.1,0.5,0.3,0.9,0.4,1.4c0.3,1.1,0.4,2.7,1,3.7c0.6,1.1,2.7,1.7,4.2,2.2
			c-0.7,0.3-1.5,0.7-2.2,1c-0.6,0.3-1.5,0.5-1.9,1c-0.6,0.8-0.7,2.4-1,3.4c-0.2,0.6-0.3,1.1-0.5,1.7c-0.2-0.6-0.3-1.1-0.5-1.7
			c-0.3-0.9-0.4-2.6-1-3.4c-0.4-0.6-1.2-0.7-1.9-1c-0.7-0.3-1.5-0.7-2.2-1C247.9,459.1,249.9,458.5,250.6,457.4z"/>
		<path d="M350.4,238.6c0.9,0.4,1.8,0.8,2.7,1.2c0.5,0.2,1.1,0.5,1.6,0.7c0.1,0.1,0.2,0.1,0.2,0.1c0,0,0,0,0,0.1
			c1,1.7,1.2,4.2,1.8,6.1c0.1,0.4,0.7,0.4,0.8,0c0.6-1.9,0.9-4.4,1.8-6.1c0,0,0,0,0-0.1c0,0,0.1,0,0.1-0.1c0.5-0.3,1.2-0.5,1.7-0.8
			c0.9-0.4,1.8-0.8,2.7-1.2c0.4-0.2,0.2-0.6-0.1-0.7c-0.9-0.4-1.8-0.8-2.7-1.1c-1.1-0.5-1.7-0.5-2-1.5c-0.6-1.9-1.1-3.9-1.6-5.9
			c0,0,0,0,0-0.1c0,0,0,0,0-0.1c-0.1-0.1-0.2-0.2-0.3-0.2c-0.1,0-0.3,0-0.3,0.2c0,0,0,0.1,0,0.1c0,0,0,0,0,0c0,0,0,0,0,0
			c0,0,0,0,0,0c-0.5,1.9-1,3.9-1.5,5.9c-0.5,1.5-3.3,2.1-4.7,2.7C350.2,237.9,350,238.4,350.4,238.6z M355.8,236
			c0.6-1,0.7-2.7,1-3.7c0.1-0.5,0.3-0.9,0.4-1.4c0.1,0.5,0.3,0.9,0.4,1.4c0.3,1.1,0.4,2.7,1,3.7c0.6,1.1,2.7,1.7,4.2,2.2
			c-0.7,0.3-1.5,0.7-2.2,1c-0.6,0.3-1.5,0.5-1.9,1c-0.6,0.8-0.7,2.4-1,3.4c-0.2,0.6-0.3,1.1-0.5,1.7c-0.2-0.6-0.3-1.1-0.5-1.7
			c-0.3-0.9-0.4-2.6-1-3.4c-0.4-0.6-1.2-0.7-1.9-1c-0.7-0.3-1.5-0.7-2.2-1C353.2,237.7,355.2,237.1,355.8,236z"/>
		<path d="M197.4,304.3c-0.7,0-1.2,0.6-1.2,1.2l0,0.3c0,0.7,0.6,1.2,1.2,1.2c0,0,0,0,0,0c0.7,0,1.2-0.6,1.2-1.2l0-0.3
			C198.7,304.8,198.1,304.3,197.4,304.3z"/>
		<path d="M197.2,371.5c-0.7,0-1.2,0.5-1.3,1.2l0,0.6c0,0.7,0.5,1.2,1.2,1.3c0,0,0,0,0.1,0c0.7,0,1.2-0.5,1.2-1.2l0-0.6
			C198.4,372.1,197.8,371.6,197.2,371.5z"/>
		<path d="M196.4,319.3c0,0.7,0.6,1.2,1.2,1.2c0,0,0,0,0,0c0.7,0,1.2-0.6,1.2-1.2l0-0.6l-0.8,0l-1.6,0L196.4,319.3z"/>
		<polygon points="197.6,318.7 198,318.7 198.8,318.7 		"/>
		<path d="M197.5,310.7c-0.7,0-1.2,0.6-1.2,1.2l0,0.6c0,0.7,0.6,1.2,1.2,1.2c0,0,0,0,0,0c0.7,0,1.2-0.6,1.2-1.2l0-0.6
			C198.7,311.3,198.2,310.7,197.5,310.7z"/>
		<path d="M196.4,332.2l0,0.6c0,0.7,0.5,1.2,1.2,1.2c0,0,0,0,0,0c0.7,0,1.2-0.6,1.2-1.2l0-0.6c0-0.7-0.5-1.2-1.2-1.2
			C197,331,196.4,331.6,196.4,332.2z"/>
		<path d="M197.6,324.3c-0.7,0-1.2,0.6-1.2,1.2l0,0.6c0,0.7,0.6,1.2,1.2,1.2c0,0,0,0,0,0c0.7,0,1.2-0.6,1.2-1.2l0-0.6
			C198.8,324.8,198.3,324.2,197.6,324.3z"/>
		<path d="M198.6,366.1c0-0.7-0.5-1.2-1.2-1.3c-0.7,0-1.2,0.5-1.3,1.2l0,0.6c0,0.7,0.5,1.2,1.2,1.3c0,0,0,0,0,0
			c0.7,0,1.2-0.5,1.2-1.2L198.6,366.1z"/>
		<path d="M192,414.7c0.5,0,1-0.3,1.2-0.9l0.2-0.6c0.2-0.7-0.2-1.3-0.9-1.5c-0.7-0.2-1.3,0.2-1.5,0.9l-0.2,0.6
			c-0.2,0.6,0.2,1.3,0.8,1.5C191.8,414.7,191.9,414.7,192,414.7z"/>
		<path d="M195,398.5c-0.7-0.1-1.3,0.4-1.4,1l-0.1,0.6c-0.1,0.7,0.4,1.3,1,1.4c0.1,0,0.1,0,0.2,0c0.6,0,1.1-0.4,1.2-1l0.1-0.6
			C196.2,399.2,195.7,398.6,195,398.5z"/>
		<path d="M190.5,418.2c-0.6-0.3-1.3,0.1-1.6,0.7c-0.1,0.2-0.2,0.4-0.2,0.6c-0.3,0.6,0,1.3,0.7,1.6c0.2,0.1,0.3,0.1,0.5,0.1
			c0.5,0,0.9-0.3,1.1-0.8c0.1-0.2,0.2-0.4,0.2-0.6C191.5,419.1,191.2,418.4,190.5,418.2z"/>
		<path d="M196.9,378.3c-0.7,0-1.3,0.5-1.3,1.2l0,0.6c0,0.7,0.5,1.3,1.1,1.3c0,0,0,0,0.1,0c0.6,0,1.2-0.5,1.2-1.2l0-0.6
			C198,378.9,197.5,378.3,196.9,378.3z"/>
		<path d="M196.4,385c-0.7-0.1-1.3,0.4-1.3,1.1l0,0.6c-0.1,0.7,0.4,1.3,1.1,1.3c0,0,0.1,0,0.1,0c0.6,0,1.2-0.5,1.2-1.1l0-0.6
			C197.6,385.7,197.1,385.1,196.4,385z"/>
		<path d="M195.8,391.8c-0.7-0.1-1.3,0.4-1.3,1.1l-0.1,0.6c-0.1,0.7,0.4,1.3,1.1,1.3c0,0,0.1,0,0.1,0c0.6,0,1.1-0.5,1.2-1.1l0.1-0.6
			C197,392.4,196.5,391.8,195.8,391.8z"/>
		<path d="M194,405.1c-0.7-0.1-1.3,0.3-1.4,1l-0.1,0.6c-0.1,0.7,0.3,1.3,1,1.4c0.1,0,0.2,0,0.2,0c0.6,0,1.1-0.4,1.2-1l0.1-0.6
			C195.1,405.9,194.6,405.3,194,405.1z"/>
		<path d="M176.6,432.8c-0.2,0.1-0.4,0.1-0.5,0.2c-0.6,0.2-1,0.9-0.8,1.5c0.2,0.5,0.6,0.8,1.2,0.8c0.1,0,0.2,0,0.4-0.1
			c0.2-0.1,0.4-0.1,0.6-0.2c0.6-0.2,1-0.9,0.7-1.6C177.9,432.9,177.2,432.5,176.6,432.8z"/>
		<path d="M198.7,359.3c0-0.7-0.5-1.2-1.2-1.2c-0.7,0-1.2,0.5-1.2,1.2l0,0.6c0,0.7,0.5,1.2,1.2,1.2c0,0,0,0,0,0
			c0.7,0,1.2-0.5,1.2-1.2L198.7,359.3z"/>
		<path d="M186,424.7c-0.1,0.2-0.2,0.3-0.3,0.5c-0.4,0.6-0.2,1.3,0.3,1.7c0.2,0.1,0.4,0.2,0.7,0.2c0.4,0,0.8-0.2,1-0.5
			c0.1-0.2,0.2-0.4,0.3-0.5c0.4-0.6,0.2-1.3-0.4-1.7C187.1,423.9,186.4,424.1,186,424.7z"/>
		<path d="M170.1,433.8l-0.3,0c-0.7,0-1.2,0.5-1.2,1.2c0,0.7,0.5,1.2,1.2,1.2l0.3,0l0.3,0c0.7,0,1.2-0.6,1.2-1.2
			c0-0.7-0.6-1.2-1.2-1.2L170.1,433.8z"/>
		<path d="M181.9,429.6c-0.1,0.1-0.3,0.3-0.4,0.4c-0.5,0.4-0.6,1.2-0.2,1.7c0.2,0.3,0.6,0.4,0.9,0.4c0.3,0,0.5-0.1,0.8-0.3
			c0.2-0.1,0.3-0.3,0.5-0.4c0.5-0.4,0.6-1.2,0.1-1.7C183.2,429.2,182.5,429.1,181.9,429.6z"/>
		<path d="M198.9,345.8c0-0.7-0.5-1.2-1.2-1.2c0,0,0,0,0,0c-0.7,0-1.2,0.5-1.2,1.2l0,0.6c0,0.7,0.5,1.2,1.2,1.2c0,0,0,0,0,0
			c0.7,0,1.2-0.5,1.2-1.2L198.9,345.8z"/>
		<path d="M198.9,339c0-0.7-0.5-1.2-1.2-1.2s-1.2,0.5-1.2,1.2v0.6c0,0.7,0.5,1.2,1.2,1.2c0,0,0,0,0,0c0.7,0,1.2-0.5,1.2-1.2V339z"/>
		<path d="M198.8,352.5c0-0.7-0.5-1.2-1.2-1.2c-0.7,0-1.2,0.5-1.2,1.2l0,0.6c0,0.7,0.5,1.2,1.2,1.2c0,0,0,0,0,0
			c0.7,0,1.2-0.5,1.2-1.2L198.8,352.5z"/>
		<path d="M163.9,433.1l-0.3-0.1c-0.7-0.1-1.3,0.3-1.5,0.9c-0.1,0.7,0.3,1.3,0.9,1.5l0.3,0.1c0.1,0,0.2,0,0.3,0c0.6,0,1.1-0.4,1.2-1
			C164.9,433.9,164.5,433.3,163.9,433.1z"/>
		<path d="M96.4,307C96.4,307,96.4,307,96.4,307c0.7,0,1.2-0.6,1.2-1.2l0-0.3c0-0.7-0.6-1.2-1.2-1.2c-0.7,0-1.2,0.6-1.2,1.2l0,0.3
			C95.2,306.5,95.7,307,96.4,307z"/>
		<path d="M94.2,339.3c0,0.7,0.5,1.2,1.2,1.3c0,0,0,0,0,0c0.7,0,1.2-0.5,1.2-1.2l0-0.6c0-0.7-0.5-1.2-1.2-1.3
			c-0.7,0-1.2,0.5-1.3,1.2L94.2,339.3z"/>
		<path d="M94,346c0,0.7,0.5,1.2,1.2,1.3c0,0,0,0,0,0c0.7,0,1.2-0.5,1.2-1.2l0-0.6c0-0.7-0.5-1.2-1.2-1.3c-0.7,0-1.2,0.5-1.3,1.2
			L94,346z"/>
		<path d="M94,352.8c0,0.7,0.5,1.2,1.2,1.2c0,0,0,0,0,0c0.7,0,1.2-0.5,1.2-1.2l0-0.6c0-0.7-0.5-1.2-1.2-1.2c0,0,0,0,0,0
			c-0.7,0-1.2,0.5-1.2,1.2L94,352.8z"/>
		<path d="M95.3,360.7C95.3,360.7,95.3,360.7,95.3,360.7c0.7,0,1.2-0.6,1.2-1.3l0-0.6c0-0.7-0.6-1.2-1.3-1.2c-0.7,0-1.2,0.6-1.2,1.3
			l0,0.6C94.1,360.2,94.6,360.7,95.3,360.7z"/>
		<path d="M96.3,313.8C96.4,313.8,96.4,313.8,96.3,313.8c0.7,0,1.2-0.5,1.2-1.2l0-0.6c0-0.7-0.5-1.2-1.2-1.2c0,0,0,0,0,0
			c-0.7,0-1.2,0.5-1.2,1.2l0,0.6C95.1,313.2,95.7,313.7,96.3,313.8z"/>
		<path d="M95.8,367.4c0.7-0.1,1.2-0.7,1.1-1.3l0-0.6c-0.1-0.7-0.6-1.2-1.3-1.1c-0.7,0.1-1.2,0.6-1.1,1.3l0.1,0.6
			c0.1,0.6,0.6,1.1,1.2,1.1C95.7,367.4,95.7,367.4,95.8,367.4z"/>
		<path d="M95,319.2c0,0.7,0.5,1.2,1.2,1.3c0,0,0,0,0,0c0.7,0,1.2-0.5,1.2-1.2l0-0.6c0-0.7-0.5-1.2-1.2-1.3c-0.7,0-1.2,0.5-1.3,1.2
			L95,319.2z"/>
		<path d="M94.8,325.9c0,0.7,0.5,1.2,1.2,1.3c0,0,0,0,0,0c0.7,0,1.2-0.5,1.2-1.2l0-0.6c0-0.7-0.5-1.2-1.2-1.3
			c-0.7,0-1.2,0.5-1.3,1.2L94.8,325.9z"/>
		<path d="M94.5,332.6c0,0.7,0.5,1.2,1.2,1.3c0,0,0,0,0.1,0c0.7,0,1.2-0.5,1.2-1.2l0-0.6c0-0.7-0.5-1.2-1.2-1.3
			c-0.7,0-1.2,0.5-1.3,1.2L94.5,332.6z"/>
		<path d="M109.6,395.6c0.1,0.1,0.3,0.1,0.4,0.1c0.5,0,1-0.3,1.1-0.8c0.2-0.6-0.1-1.3-0.7-1.6c-0.2-0.1-0.4-0.1-0.5-0.2
			c-0.6-0.3-1.3,0-1.6,0.6c-0.3,0.6,0,1.3,0.6,1.6C109.2,395.4,109.4,395.5,109.6,395.6z"/>
		<path d="M116.5,397C116.6,397,116.6,397,116.5,397c0.7,0,1.3-0.5,1.3-1.2c0-0.7-0.5-1.2-1.2-1.3c-0.2,0-0.4,0-0.6,0
			c-0.7,0-1.3,0.5-1.3,1.1c-0.1,0.7,0.5,1.3,1.1,1.3C116.1,397,116.3,397,116.5,397z"/>
		<path d="M97.7,372.6l-0.1-0.6c-0.1-0.7-0.7-1.1-1.4-1c-0.7,0.1-1.1,0.7-1,1.4l0.1,0.6c0.1,0.6,0.6,1,1.2,1c0.1,0,0.1,0,0.2,0
			C97.4,373.9,97.8,373.3,97.7,372.6z"/>
		<path d="M122.9,396.7c0.2,0,0.4-0.1,0.6-0.1c0.7-0.1,1.1-0.7,1-1.4c-0.1-0.7-0.7-1.1-1.4-1c-0.2,0-0.4,0.1-0.6,0.1
			c-0.7,0.1-1.1,0.7-1.1,1.4c0.1,0.6,0.6,1.1,1.2,1.1C122.7,396.7,122.8,396.7,122.9,396.7z"/>
		<path d="M99.1,379c-0.1-0.2-0.1-0.4-0.2-0.6c-0.2-0.6-0.9-1-1.5-0.8c-0.6,0.2-1,0.9-0.8,1.5c0.1,0.2,0.1,0.4,0.2,0.6
			c0.2,0.5,0.6,0.9,1.2,0.9c0.1,0,0.2,0,0.3-0.1C99,380.3,99.3,379.7,99.1,379z"/>
		<path d="M101.3,384.5c-0.3-0.6-1-0.8-1.6-0.5c-0.6,0.3-0.8,1-0.5,1.6c0.1,0.2,0.2,0.4,0.3,0.6c0.2,0.4,0.6,0.6,1.1,0.6
			c0.2,0,0.4,0,0.6-0.1c0.6-0.3,0.8-1.1,0.5-1.7C101.4,384.8,101.4,384.7,101.3,384.5z"/>
		<path d="M105.3,390c-0.1-0.1-0.3-0.3-0.4-0.4c-0.5-0.5-1.2-0.5-1.7,0c-0.5,0.5-0.5,1.2,0,1.7c0.2,0.2,0.3,0.3,0.5,0.5
			c0.2,0.2,0.5,0.3,0.8,0.3c0.3,0,0.6-0.1,0.9-0.4C105.8,391.3,105.8,390.5,105.3,390z"/>
		<path d="M129.3,395.4c0.1,0,0.2,0,0.3,0l0.3-0.1c0.7-0.2,1-0.9,0.8-1.5c-0.2-0.6-0.9-1-1.5-0.8L129,393c-0.7,0.2-1,0.8-0.9,1.5
			C128.3,395,128.8,395.4,129.3,395.4z"/>
		<path d="M188.5,482.8v-5.8c0-0.2-0.1-0.3-0.3-0.3c0,0-0.6,0-6.5,0c-3.9,0-9.8-5.2-18.6-8.7c-0.6-3-2.5-5.4-4.8-6
			c0.2-8.6,0.6-20.6,1-29.6h0.7c1.1,0,2-0.9,2-2v-2.5c0-1.1-0.9-2-2-2h-0.3c0.3-3.6,0.6-6.1,0.9-6.6c1.4-2.2,4-2.6,4-6.1s-2-4-4-6.1
			c-0.8-0.9-0.9-7.3-0.8-14.6h0.1c3.1,0,5.6-2.5,5.6-5.6v-0.9c0-0.3,0-0.6-0.1-0.8c15.4-6.9,26.2-22.1,26.2-39.6
			c0,0-2.9-42.5,0-42.5s6.3,0,6.3,0c1.4,0,2.5-1.1,2.5-2.4v-2.7c0-1.3-1.1-2.4-2.5-2.4H95.5c-1.4,0-2.5,1.1-2.5,2.4v2.7
			c0,1.3,1.1,2.4,2.5,2.4c0,0,3.6,0,6.3,0c2.7,0,0,42.5,0,42.5c0,17.5,10.8,32.7,26.2,39.6c0,0.3-0.1,0.6-0.1,0.8v0.9
			c0,3.1,2.5,5.6,5.5,5.6c0.1,7.3,0,13.7-0.6,14.6c-1.4,2.2-4,2.7-4,6.1c0,3.4,2,4,4,6.1c0.5,0.5,0.8,3,1.1,6.6h-0.5
			c-1.1,0-2,0.9-2,2v2.5c0,1.1,0.9,2,2,2h0.9c0.4,9.1,0.6,21,0.8,29.6c-2.3,0.6-4.2,2.9-4.8,6c-8.7,3.6-14.5,8.7-18.6,8.7
			c-6.3,0-6.5,0-6.5,0c-0.2,0-0.3,0.1-0.3,0.3v5.8c0,0.2,0.1,0.3,0.3,0.3h82.9C188.4,483.1,188.5,482.9,188.5,482.8z M122.5,323.4
			l11.7-15.3c-4.3,2.8-7.5,1.8-9.2,1.9c-1.9,0.1-4.1,1.3-5.7,2.2c-3.1,1.7-6.4,4.7-11,2.8c4.2,1,7.1-3,9.6-6
			c1.3-1.5,2.7-2.8,4.2-3.6c2.6-1.4,5.9-1.8,8.7-3h30.8c0,0,0,0.1,0,0.1c4.9,1.3,6.3,4.3,7.5,5.4c1.4,1.3,3.8,2.2,5.4,2.7
			c3.3,1.1,7.8,1.5,9.4,6.2c-2.1-3.8-7-3.2-11-3c-2,0.1-3.9-0.1-5.5-0.7c-2.7-1-5.1-3-7.8-4.2l11.2,14.5l-15.3-11.8
			c1.2,2.9,3.5,5.5,4.5,8.4c0.6,1.7,0.8,3.6,0.7,5.5c-0.1,4-0.8,8.9,3,11c-4.7-1.7-5.1-6.1-6.2-9.4c-0.5-1.7-1.4-4.1-2.7-5.4
			c-1.1-1.2-3.9-2.6-5.3-7.1l-3,30.7l-3-30.7c-1.3,4.5-4.2,5.9-5.3,7.1c-1.3,1.4-2.2,3.8-2.7,5.4c-1.1,3.3-1.5,7.8-6.2,9.4
			c3.8-2.1,3.2-7,3-11c-0.1-2,0.1-3.9,0.7-5.5c1-2.9,3.3-5.5,4.5-8.4L122.5,323.4z M128.7,359c0-0.8,0.1-1.6,0.2-2.4
			c1.1,8.8,8.6,15.7,17.8,15.7c9.1,0.1,16.7-6.7,18-15.5c0.1,0.8,0.2,1.6,0.2,2.4c-0.1,10-8.2,18-18.2,17.9
			C136.6,377.1,128.6,368.9,128.7,359z"/>
		<path d="M407.9,304.3c-0.7,0-1.2,0.6-1.2,1.2l0,0.3c0,0.7,0.6,1.2,1.2,1.2c0,0,0,0,0,0c0.7,0,1.2-0.6,1.2-1.2l0-0.3
			C409.1,304.8,408.6,304.3,407.9,304.3z"/>
		<path d="M407.6,371.5c-0.7,0-1.2,0.5-1.3,1.2l0,0.6c0,0.7,0.5,1.2,1.2,1.3c0,0,0,0,0.1,0c0.7,0,1.2-0.5,1.2-1.2l0-0.6
			C408.8,372.1,408.3,371.6,407.6,371.5z"/>
		<path d="M406.8,319.3c0,0.7,0.6,1.2,1.2,1.2c0,0,0,0,0,0c0.7,0,1.2-0.6,1.2-1.2l0-0.6l-0.8,0l-1.6,0L406.8,319.3z"/>
		<polygon points="408,318.7 408.4,318.7 409.3,318.7 		"/>
		<path d="M408,310.7c-0.7,0-1.2,0.6-1.2,1.2l0,0.6c0,0.7,0.6,1.2,1.2,1.2c0,0,0,0,0,0c0.7,0,1.2-0.6,1.2-1.2l0-0.6
			C409.2,311.3,408.6,310.7,408,310.7z"/>
		<path d="M406.9,332.2l0,0.6c0,0.7,0.5,1.2,1.2,1.2c0,0,0,0,0,0c0.7,0,1.2-0.6,1.2-1.2l0-0.6c0-0.7-0.5-1.2-1.2-1.2
			C407.4,331,406.9,331.6,406.9,332.2z"/>
		<path d="M408.1,324.3c-0.7,0-1.2,0.6-1.2,1.2l0,0.6c0,0.7,0.6,1.2,1.2,1.2c0,0,0,0,0,0c0.7,0,1.2-0.6,1.2-1.2l0-0.6
			C409.3,324.8,408.7,324.2,408.1,324.3z"/>
		<path d="M407.8,364.8c-0.7,0-1.2,0.5-1.3,1.2l0,0.6c0,0.7,0.5,1.2,1.2,1.3c0,0,0,0,0,0c0.7,0,1.2-0.5,1.2-1.2l0-0.6
			C409,365.4,408.5,364.8,407.8,364.8z"/>
		<path d="M403,411.7c-0.7-0.2-1.3,0.2-1.5,0.9l-0.2,0.6c-0.2,0.6,0.2,1.3,0.8,1.5c0.1,0,0.2,0,0.3,0c0.5,0,1-0.3,1.2-0.9l0.2-0.6
			C404,412.6,403.6,411.9,403,411.7z"/>
		<path d="M405.5,398.5c-0.7-0.1-1.3,0.4-1.4,1l-0.1,0.6c-0.1,0.7,0.4,1.3,1,1.4c0.1,0,0.1,0,0.2,0c0.6,0,1.1-0.4,1.2-1l0.1-0.6
			C406.6,399.2,406.2,398.6,405.5,398.5z"/>
		<path d="M401,418.2c-0.6-0.3-1.3,0.1-1.6,0.7c-0.1,0.2-0.2,0.4-0.2,0.6c-0.3,0.6,0,1.3,0.7,1.6c0.2,0.1,0.3,0.1,0.5,0.1
			c0.5,0,0.9-0.3,1.1-0.8c0.1-0.2,0.2-0.4,0.2-0.6C401.9,419.1,401.6,418.4,401,418.2z"/>
		<path d="M407.3,378.3c-0.7,0-1.3,0.5-1.3,1.2l0,0.6c0,0.7,0.5,1.3,1.1,1.3c0,0,0,0,0.1,0c0.6,0,1.2-0.5,1.2-1.2l0-0.6
			C408.5,378.9,408,378.3,407.3,378.3z"/>
		<path d="M406.9,385c-0.7-0.1-1.3,0.4-1.3,1.1l0,0.6c-0.1,0.7,0.4,1.3,1.1,1.3c0,0,0.1,0,0.1,0c0.6,0,1.2-0.5,1.2-1.1l0-0.6
			C408.1,385.7,407.6,385.1,406.9,385z"/>
		<path d="M406.3,391.8c-0.7-0.1-1.3,0.4-1.3,1.1l-0.1,0.6c-0.1,0.7,0.4,1.3,1.1,1.3c0,0,0.1,0,0.1,0c0.6,0,1.1-0.5,1.2-1.1l0.1-0.6
			C407.5,392.4,407,391.8,406.3,391.8z"/>
		<path d="M404.4,405.1c-0.7-0.1-1.3,0.3-1.4,1l-0.1,0.6c-0.1,0.7,0.3,1.3,1,1.4c0.1,0,0.2,0,0.2,0c0.6,0,1.1-0.4,1.2-1l0.1-0.6
			C405.5,405.9,405.1,405.3,404.4,405.1z"/>
		<path d="M387.1,432.8c-0.2,0.1-0.4,0.1-0.5,0.2c-0.6,0.2-1,0.9-0.8,1.5c0.2,0.5,0.6,0.8,1.2,0.8c0.1,0,0.2,0,0.4-0.1
			c0.2-0.1,0.4-0.1,0.6-0.2c0.6-0.2,1-0.9,0.7-1.6C388.4,432.9,387.7,432.5,387.1,432.8z"/>
		<path d="M408,358c-0.7,0-1.2,0.5-1.2,1.2l0,0.6c0,0.7,0.5,1.2,1.2,1.2c0,0,0,0,0,0c0.7,0,1.2-0.5,1.2-1.2l0-0.6
			C409.2,358.6,408.7,358.1,408,358z"/>
		<path d="M396.5,424.7c-0.1,0.2-0.2,0.3-0.3,0.5c-0.4,0.6-0.2,1.3,0.3,1.7c0.2,0.1,0.4,0.2,0.7,0.2c0.4,0,0.8-0.2,1-0.5
			c0.1-0.2,0.2-0.4,0.3-0.5c0.4-0.6,0.2-1.3-0.4-1.7C397.6,423.9,396.8,424.1,396.5,424.7z"/>
		<path d="M380.5,433.8l-0.3,0c-0.7,0-1.2,0.5-1.2,1.2c0,0.7,0.5,1.2,1.2,1.2l0.3,0l0.3,0c0.7,0,1.2-0.6,1.2-1.2
			c0-0.7-0.6-1.2-1.2-1.2L380.5,433.8z"/>
		<path d="M392.4,429.6c-0.1,0.1-0.3,0.3-0.4,0.4c-0.5,0.4-0.6,1.2-0.2,1.7c0.2,0.3,0.6,0.4,0.9,0.4c0.3,0,0.5-0.1,0.8-0.3
			c0.2-0.1,0.3-0.3,0.5-0.4c0.5-0.4,0.6-1.2,0.1-1.7C393.7,429.2,392.9,429.1,392.4,429.6z"/>
		<path d="M408.1,344.5C408.1,344.5,408.1,344.5,408.1,344.5c-0.7,0-1.2,0.5-1.2,1.2l0,0.6c0,0.7,0.5,1.2,1.2,1.2c0,0,0,0,0,0
			c0.7,0,1.2-0.5,1.2-1.2l0-0.6C409.3,345.1,408.8,344.5,408.1,344.5z"/>
		<path d="M408.1,337.8c-0.7,0-1.2,0.5-1.2,1.2v0.6c0,0.7,0.5,1.2,1.2,1.2h0c0.7,0,1.2-0.5,1.2-1.2V339
			C409.3,338.3,408.8,337.8,408.1,337.8z"/>
		<path d="M408.1,351.3c-0.7,0-1.2,0.5-1.2,1.2l0,0.6c0,0.7,0.5,1.2,1.2,1.2c0,0,0,0,0,0c0.7,0,1.2-0.5,1.2-1.2l0-0.6
			C409.3,351.8,408.7,351.3,408.1,351.3z"/>
		<path d="M374.3,433.1l-0.3-0.1c-0.7-0.1-1.3,0.3-1.5,0.9c-0.1,0.7,0.3,1.3,0.9,1.5l0.3,0.1c0.1,0,0.2,0,0.3,0c0.6,0,1.1-0.4,1.2-1
			C375.4,433.9,375,433.3,374.3,433.1z"/>
		<path d="M306.8,307C306.8,307,306.8,307,306.8,307c0.7,0,1.2-0.6,1.2-1.2l0-0.3c0-0.7-0.6-1.2-1.2-1.2c-0.7,0-1.2,0.6-1.2,1.2
			l0,0.3C305.6,306.5,306.2,307,306.8,307z"/>
		<path d="M304.7,339.3c0,0.7,0.5,1.2,1.2,1.3c0,0,0,0,0,0c0.7,0,1.2-0.5,1.2-1.2l0-0.6c0-0.7-0.5-1.2-1.2-1.3
			c-0.7,0-1.2,0.5-1.3,1.2L304.7,339.3z"/>
		<path d="M304.5,346c0,0.7,0.5,1.2,1.2,1.3c0,0,0,0,0,0c0.7,0,1.2-0.5,1.2-1.2l0-0.6c0-0.7-0.5-1.2-1.2-1.3c-0.7,0-1.2,0.5-1.3,1.2
			L304.5,346z"/>
		<path d="M304.4,352.8c0,0.7,0.5,1.2,1.2,1.2l0,0c0.7,0,1.2-0.5,1.2-1.2l0-0.6c0-0.7-0.5-1.2-1.2-1.2c0,0,0,0,0,0
			c-0.7,0-1.2,0.5-1.2,1.2L304.4,352.8z"/>
		<path d="M305.8,360.7c0.7,0,1.2-0.6,1.2-1.3l0-0.6c0-0.7-0.6-1.2-1.3-1.2c-0.7,0-1.2,0.6-1.2,1.3l0,0.6
			C304.5,360.2,305.1,360.7,305.8,360.7C305.8,360.7,305.8,360.7,305.8,360.7z"/>
		<path d="M306.8,313.8C306.8,313.8,306.8,313.8,306.8,313.8c0.7,0,1.2-0.5,1.2-1.2l0-0.6c0-0.7-0.5-1.2-1.2-1.2c0,0,0,0,0,0
			c-0.7,0-1.2,0.5-1.2,1.2l0,0.6C305.6,313.2,306.1,313.7,306.8,313.8z"/>
		<path d="M306.1,367.4c0,0,0.1,0,0.1,0c0.7-0.1,1.2-0.7,1.1-1.3l0-0.6c-0.1-0.7-0.6-1.2-1.3-1.1c-0.7,0.1-1.2,0.6-1.1,1.3l0.1,0.6
			C305,366.9,305.5,367.4,306.1,367.4z"/>
		<path d="M305.5,319.2c0,0.7,0.5,1.2,1.2,1.3c0,0,0,0,0,0c0.7,0,1.2-0.5,1.2-1.2l0-0.6c0-0.7-0.5-1.2-1.2-1.3
			c-0.7,0-1.2,0.5-1.3,1.2L305.5,319.2z"/>
		<path d="M305.2,325.9c0,0.7,0.5,1.2,1.2,1.3c0,0,0,0,0,0c0.7,0,1.2-0.5,1.2-1.2l0-0.6c0-0.7-0.5-1.2-1.2-1.3
			c-0.7,0-1.2,0.5-1.3,1.2L305.2,325.9z"/>
		<path d="M305,332.6c0,0.7,0.5,1.2,1.2,1.3c0,0,0,0,0.1,0c0.7,0,1.2-0.5,1.2-1.2l0-0.6c0-0.7-0.5-1.2-1.2-1.3
			c-0.7,0-1.2,0.5-1.3,1.2L305,332.6z"/>
		<path d="M320.1,395.6c0.1,0.1,0.3,0.1,0.4,0.1c0.5,0,1-0.3,1.1-0.8c0.2-0.6-0.1-1.3-0.7-1.6c-0.2-0.1-0.4-0.1-0.5-0.2
			c-0.6-0.3-1.3,0-1.6,0.6c-0.3,0.6,0,1.3,0.6,1.6C319.7,395.4,319.9,395.5,320.1,395.6z"/>
		<path d="M327,397C327,397,327,397,327,397c0.7,0,1.3-0.5,1.3-1.2c0-0.7-0.5-1.2-1.2-1.3c-0.2,0-0.4,0-0.6,0
			c-0.7,0-1.3,0.5-1.3,1.1c-0.1,0.7,0.5,1.3,1.1,1.3C326.6,397,326.8,397,327,397z"/>
		<path d="M306.7,371c-0.7,0.1-1.1,0.7-1,1.4l0.1,0.6c0.1,0.6,0.6,1,1.2,1c0.1,0,0.1,0,0.2,0c0.7-0.1,1.1-0.7,1-1.4l-0.1-0.6
			C308,371.4,307.3,370.9,306.7,371z"/>
		<path d="M333.3,396.7c0.2,0,0.4-0.1,0.6-0.1c0.7-0.1,1.1-0.7,1-1.4c-0.1-0.7-0.7-1.1-1.4-1c-0.2,0-0.4,0.1-0.6,0.1
			c-0.7,0.1-1.1,0.7-1.1,1.4c0.1,0.6,0.6,1.1,1.2,1.1C333.2,396.7,333.3,396.7,333.3,396.7z"/>
		<path d="M307.1,379.1c0.1,0.2,0.1,0.4,0.2,0.6c0.2,0.5,0.6,0.9,1.2,0.9c0.1,0,0.2,0,0.3-0.1c0.6-0.2,1-0.9,0.8-1.5
			c-0.1-0.2-0.1-0.4-0.2-0.6c-0.2-0.6-0.9-1-1.5-0.8C307.3,377.8,306.9,378.5,307.1,379.1z"/>
		<path d="M311.7,384.5c-0.3-0.6-1-0.8-1.6-0.5c-0.6,0.3-0.8,1-0.5,1.6c0.1,0.2,0.2,0.4,0.3,0.6c0.2,0.4,0.6,0.6,1.1,0.6
			c0.2,0,0.4,0,0.6-0.1c0.6-0.3,0.8-1.1,0.5-1.7C311.9,384.8,311.8,384.7,311.7,384.5z"/>
		<path d="M315.8,390c-0.1-0.1-0.3-0.3-0.4-0.4c-0.5-0.5-1.2-0.5-1.7,0c-0.5,0.5-0.5,1.2,0,1.7c0.2,0.2,0.3,0.3,0.5,0.5
			c0.2,0.2,0.5,0.3,0.8,0.3c0.3,0,0.6-0.1,0.9-0.4C316.3,391.3,316.2,390.5,315.8,390z"/>
		<path d="M339.8,395.4c0.1,0,0.2,0,0.3,0l0.3-0.1c0.7-0.2,1-0.9,0.8-1.5c-0.2-0.6-0.9-1-1.5-0.8l-0.3,0.1c-0.7,0.2-1,0.8-0.9,1.5
			C338.7,395,339.2,395.4,339.8,395.4z"/>
		<path d="M408.5,295.3H305.9c-1.4,0-2.5,1.1-2.5,2.4v2.7c0,1.3,1.1,2.4,2.5,2.4c0,0,3.6,0,6.3,0s0,42.5,0,42.5
			c0,17.5,10.8,32.7,26.2,39.6c0,0.3-0.1,0.6-0.1,0.8v0.9c0,3.1,2.5,5.6,5.5,5.6c0.1,7.3,0,13.7-0.6,14.6c-1.4,2.2-4,2.7-4,6.1
			c0,3.4,2,4,4,6.1c0.5,0.5,0.8,3,1.1,6.6h-0.5c-1.1,0-2,0.9-2,2v2.5c0,1.1,0.9,2,2,2h0.9c0.4,9.1,0.6,21,0.8,29.6
			c-2.3,0.6-4.2,2.9-4.8,6c-8.7,3.6-14.5,8.7-18.6,8.7c-6.3,0-6.5,0-6.5,0c-0.2,0-0.3,0.1-0.3,0.3v5.8c0,0.2,0.1,0.3,0.3,0.3h82.9
			c0.2,0,0.3-0.1,0.3-0.3v-5.8c0-0.2-0.1-0.3-0.3-0.3c0,0-0.6,0-6.5,0c-3.9,0-9.8-5.2-18.6-8.7c-0.6-3-2.5-5.4-4.8-6
			c0.2-8.6,0.6-20.6,1-29.6h0.7c1.1,0,2-0.9,2-2v-2.5c0-1.1-0.9-2-2-2h-0.3c0.3-3.6,0.6-6.1,0.9-6.6c1.4-2.2,4-2.6,4-6.1s-2-4-4-6.1
			c-0.8-0.9-0.9-7.3-0.8-14.6h0.1c3.1,0,5.6-2.5,5.6-5.6v-0.9c0-0.3,0-0.6-0.1-0.8c15.4-6.9,26.2-22.1,26.2-39.6
			c0,0-2.9-42.5,0-42.5c2.9,0,6.3,0,6.3,0c1.4,0,2.5-1.1,2.5-2.4v-2.7C411,296.4,409.8,295.3,408.5,295.3z M357.1,377.1
			c-10-0.1-18-8.2-17.9-18.2c0-0.8,0.1-1.6,0.2-2.4c1.1,8.8,8.6,15.7,17.8,15.7c9.1,0.1,16.7-6.7,18-15.5c0.1,0.8,0.2,1.6,0.2,2.4
			C375.2,369.2,367,377.2,357.1,377.1z M383.7,313.8c-2,0.1-3.9-0.1-5.5-0.7c-2.7-1-5.1-3-7.8-4.2l11.2,14.5l-15.3-11.8
			c1.2,2.9,3.5,5.5,4.5,8.4c0.6,1.7,0.8,3.6,0.7,5.5c-0.1,4-0.8,8.9,3,11c-4.7-1.7-5.1-6.1-6.2-9.4c-0.5-1.7-1.4-4.1-2.7-5.4
			c-1.1-1.2-3.9-2.6-5.3-7.1l-3,30.7l-3-30.7c-1.3,4.5-4.2,5.9-5.3,7.1c-1.3,1.4-2.2,3.8-2.7,5.4c-1.1,3.3-1.5,7.8-6.2,9.4
			c3.8-2.1,3.2-7,3-11c-0.1-2,0.1-3.9,0.7-5.5c1-2.9,3.3-5.5,4.5-8.4L333,323.4l11.7-15.3c-4.3,2.8-7.5,1.8-9.2,1.9
			c-1.9,0.1-4.1,1.3-5.7,2.2c-3.1,1.7-6.4,4.7-11,2.8c4.2,1,7.1-3,9.6-6c1.3-1.5,2.7-2.8,4.2-3.6c2.6-1.4,5.9-1.8,8.7-3h30.8
			c0,0,0,0.1,0,0.1c4.9,1.3,6.3,4.3,7.5,5.4c1.4,1.3,3.8,2.2,5.4,2.7c3.3,1.1,7.8,1.5,9.4,6.2C392.6,313.1,387.7,313.7,383.7,313.8z
			"/>
		<path d="M302.7,509.1c-0.7,0-1.2,0.6-1.2,1.2l0,0.3c0,0.7,0.6,1.2,1.2,1.2c0,0,0,0,0,0c0.7,0,1.2-0.6,1.2-1.2l0-0.3
			C303.9,509.6,303.4,509.1,302.7,509.1z"/>
		<path d="M303.6,577.6c0-0.7-0.5-1.2-1.2-1.3c-0.7,0-1.2,0.5-1.3,1.2l0,0.6c0,0.7,0.5,1.2,1.2,1.3c0,0,0,0,0.1,0
			c0.7,0,1.2-0.5,1.2-1.2L303.6,577.6z"/>
		<path d="M301.6,524.1c0,0.7,0.6,1.2,1.2,1.2c0,0,0,0,0,0c0.7,0,1.2-0.6,1.2-1.2l0-0.6l-0.8,0l-1.6,0L301.6,524.1z"/>
		<polygon points="302.8,523.5 303.2,523.5 304,523.5 		"/>
		<path d="M302.7,515.5c-0.7,0-1.2,0.6-1.2,1.2l0,0.6c0,0.7,0.6,1.2,1.2,1.2c0,0,0,0,0,0c0.7,0,1.2-0.6,1.2-1.2l0-0.6
			C304,516.1,303.4,515.5,302.7,515.5z"/>
		<path d="M301.7,537l0,0.6c0,0.7,0.5,1.2,1.2,1.2c0,0,0,0,0,0c0.7,0,1.2-0.6,1.2-1.2l0-0.6c0-0.7-0.5-1.2-1.2-1.2
			C302.2,535.8,301.7,536.3,301.7,537z"/>
		<path d="M302.8,529c-0.7,0-1.2,0.6-1.2,1.2l0,0.6c0,0.7,0.6,1.2,1.2,1.2c0,0,0,0,0,0c0.7,0,1.2-0.6,1.2-1.2l0-0.6
			C304.1,529.6,303.5,529,302.8,529z"/>
		<path d="M303.8,570.8c0-0.7-0.5-1.2-1.2-1.3c-0.7,0-1.2,0.5-1.3,1.2l0,0.6c0,0.7,0.5,1.2,1.2,1.3c0,0,0,0,0,0
			c0.7,0,1.2-0.5,1.2-1.2L303.8,570.8z"/>
		<path d="M297.8,616.5c-0.7-0.2-1.3,0.2-1.5,0.9l-0.2,0.6c-0.2,0.6,0.2,1.3,0.8,1.5c0.1,0,0.2,0,0.3,0c0.5,0,1-0.4,1.2-0.9l0.2-0.6
			C298.8,617.4,298.4,616.7,297.8,616.5z"/>
		<path d="M298.9,604.3l-0.1,0.6c-0.1,0.7,0.4,1.3,1,1.4c0.1,0,0.1,0,0.2,0c0.6,0,1.1-0.4,1.2-1l0.1-0.6c0.1-0.7-0.4-1.3-1-1.4
			C299.6,603.2,299,603.6,298.9,604.3z"/>
		<path d="M295.8,623c-0.6-0.3-1.3,0.1-1.6,0.7c-0.1,0.2-0.1,0.4-0.2,0.6c-0.3,0.6,0,1.3,0.7,1.6c0.2,0.1,0.3,0.1,0.5,0.1
			c0.5,0,0.9-0.3,1.1-0.8c0.1-0.2,0.2-0.4,0.2-0.6C296.7,623.9,296.4,623.2,295.8,623z"/>
		<path d="M303.2,585l0-0.6c0-0.7-0.5-1.3-1.1-1.3c-0.7,0-1.3,0.5-1.3,1.2l0,0.6c0,0.7,0.5,1.3,1.1,1.3c0,0,0,0,0.1,0
			C302.6,586.1,303.2,585.6,303.2,585z"/>
		<path d="M302.7,591.7l0-0.6c0.1-0.7-0.4-1.3-1.1-1.3c-0.7-0.1-1.3,0.4-1.3,1.1l0,0.6c-0.1,0.7,0.4,1.3,1.1,1.3c0,0,0.1,0,0.1,0
			C302.1,592.9,302.7,592.4,302.7,591.7z"/>
		<path d="M302.1,598.5l0.1-0.6c0.1-0.7-0.4-1.3-1.1-1.3c-0.7-0.1-1.3,0.4-1.3,1.1l-0.1,0.6c-0.1,0.7,0.4,1.3,1.1,1.3
			c0,0,0.1,0,0.1,0C301.5,599.6,302,599.1,302.1,598.5z"/>
		<path d="M300.1,612l0.1-0.6c0.1-0.7-0.3-1.3-1-1.4c-0.7-0.1-1.3,0.3-1.4,1l-0.1,0.6c-0.1,0.7,0.3,1.3,1,1.4c0.1,0,0.2,0,0.2,0
			C299.4,612.9,299.9,612.5,300.1,612z"/>
		<path d="M281.8,637.5c-0.2,0.1-0.4,0.1-0.5,0.2c-0.6,0.2-1,0.9-0.8,1.5c0.2,0.5,0.6,0.8,1.2,0.8c0.1,0,0.2,0,0.4-0.1
			c0.2-0.1,0.4-0.1,0.6-0.2c0.6-0.2,1-0.9,0.7-1.6C283.2,637.6,282.5,637.3,281.8,637.5z"/>
		<path d="M304,564.1c0-0.7-0.5-1.2-1.2-1.2c-0.7,0-1.2,0.5-1.2,1.2l0,0.6c0,0.7,0.5,1.2,1.2,1.2c0,0,0,0,0,0c0.7,0,1.2-0.5,1.2-1.2
			L304,564.1z"/>
		<path d="M291.2,629.5c-0.1,0.2-0.2,0.3-0.3,0.5c-0.4,0.6-0.2,1.3,0.3,1.7c0.2,0.1,0.4,0.2,0.7,0.2c0.4,0,0.8-0.2,1-0.5
			c0.1-0.2,0.2-0.4,0.3-0.5c0.4-0.6,0.2-1.3-0.4-1.7C292.4,628.7,291.6,628.9,291.2,629.5z"/>
		<path d="M275.3,638.6l-0.3,0c-0.7,0-1.2,0.5-1.2,1.2c0,0.7,0.5,1.2,1.2,1.2l0.3,0l0.3,0c0.7,0,1.2-0.6,1.2-1.2
			c0-0.7-0.6-1.2-1.2-1.2L275.3,638.6z"/>
		<path d="M287.2,634.4c-0.1,0.1-0.3,0.3-0.4,0.4c-0.5,0.4-0.6,1.2-0.2,1.7c0.2,0.3,0.6,0.4,0.9,0.4c0.3,0,0.5-0.1,0.8-0.3
			c0.2-0.1,0.3-0.3,0.5-0.4c0.5-0.4,0.6-1.2,0.1-1.7C288.5,634,287.7,633.9,287.2,634.4z"/>
		<path d="M304.1,550.5c0-0.7-0.5-1.2-1.2-1.2c0,0,0,0,0,0c-0.7,0-1.2,0.5-1.2,1.2l0,0.6c0,0.7,0.5,1.2,1.2,1.2c0,0,0,0,0,0
			c0.7,0,1.2-0.5,1.2-1.2L304.1,550.5z"/>
		<path d="M304.1,543.8c0-0.7-0.5-1.2-1.2-1.2s-1.2,0.5-1.2,1.2v0.6c0,0.7,0.5,1.2,1.2,1.2h0c0.7,0,1.2-0.5,1.2-1.2V543.8z"/>
		<path d="M304.1,557.3c0-0.7-0.5-1.2-1.2-1.2c-0.7,0-1.2,0.5-1.2,1.2l0,0.6c0,0.7,0.5,1.2,1.2,1.2c0,0,0,0,0,0
			c0.7,0,1.2-0.5,1.2-1.2L304.1,557.3z"/>
		<path d="M269.1,637.9l-0.3-0.1c-0.7-0.1-1.3,0.3-1.5,0.9c-0.1,0.7,0.3,1.3,0.9,1.5l0.3,0.1c0.1,0,0.2,0,0.3,0c0.6,0,1.1-0.4,1.2-1
			C270.2,638.7,269.8,638,269.1,637.9z"/>
		<path d="M201.6,511.8C201.6,511.8,201.6,511.8,201.6,511.8c0.7,0,1.2-0.6,1.2-1.2l0-0.3c0-0.7-0.6-1.2-1.2-1.2
			c-0.7,0-1.2,0.6-1.2,1.2l0,0.3C200.4,511.3,200.9,511.8,201.6,511.8z"/>
		<path d="M199.5,544.1c0,0.7,0.5,1.2,1.2,1.3c0,0,0,0,0,0c0.7,0,1.2-0.5,1.2-1.2l0-0.6c0-0.7-0.5-1.2-1.2-1.3
			c-0.7,0-1.2,0.5-1.3,1.2L199.5,544.1z"/>
		<path d="M199.3,550.8c0,0.7,0.5,1.2,1.2,1.3c0,0,0,0,0,0c0.7,0,1.2-0.5,1.2-1.2l0-0.6c0-0.7-0.5-1.2-1.2-1.3
			c-0.7,0-1.2,0.5-1.3,1.2L199.3,550.8z"/>
		<path d="M199.2,557.5c0,0.7,0.5,1.2,1.2,1.2h0c0.7,0,1.2-0.5,1.2-1.2l0-0.6c0-0.7-0.5-1.2-1.2-1.2c0,0,0,0,0,0
			c-0.7,0-1.2,0.5-1.2,1.2L199.2,557.5z"/>
		<path d="M200.5,565.5C200.5,565.5,200.5,565.5,200.5,565.5c0.7,0,1.2-0.6,1.2-1.3l0-0.6c0-0.7-0.6-1.2-1.3-1.2
			c-0.7,0-1.2,0.6-1.2,1.3l0,0.6C199.3,565,199.9,565.5,200.5,565.5z"/>
		<path d="M201.6,518.5C201.6,518.5,201.6,518.5,201.6,518.5c0.7,0,1.2-0.5,1.2-1.2l0-0.6c0-0.7-0.5-1.2-1.2-1.2c0,0,0,0,0,0
			c-0.7,0-1.2,0.5-1.2,1.2l0,0.6C200.4,518,200.9,518.5,201.6,518.5z"/>
		<path d="M201,572.2c0.7-0.1,1.2-0.7,1.1-1.3l0-0.6c-0.1-0.7-0.6-1.2-1.3-1.1c-0.7,0.1-1.2,0.6-1.1,1.3l0.1,0.6
			c0.1,0.6,0.6,1.1,1.2,1.1C200.9,572.2,201,572.2,201,572.2z"/>
		<path d="M200.2,524c0,0.7,0.5,1.2,1.2,1.3c0,0,0,0,0,0c0.7,0,1.2-0.5,1.2-1.2l0-0.6c0-0.7-0.5-1.2-1.2-1.3c-0.7,0-1.2,0.5-1.3,1.2
			L200.2,524z"/>
		<path d="M200,530.7c0,0.7,0.5,1.2,1.2,1.3c0,0,0,0,0,0c0.7,0,1.2-0.5,1.2-1.2l0-0.6c0-0.7-0.5-1.2-1.2-1.3c-0.7,0-1.2,0.5-1.3,1.2
			L200,530.7z"/>
		<path d="M199.7,537.4c0,0.7,0.5,1.2,1.2,1.3c0,0,0,0,0.1,0c0.7,0,1.2-0.5,1.2-1.2l0-0.6c0-0.7-0.5-1.2-1.2-1.3
			c-0.7,0-1.2,0.5-1.3,1.2L199.7,537.4z"/>
		<path d="M214.9,600.4c0.1,0.1,0.3,0.1,0.4,0.1c0.5,0,1-0.3,1.1-0.8c0.2-0.6-0.1-1.3-0.7-1.6c-0.2-0.1-0.4-0.1-0.5-0.2
			c-0.6-0.3-1.3,0-1.6,0.6c-0.3,0.6,0,1.3,0.6,1.6C214.5,600.2,214.7,600.3,214.9,600.4z"/>
		<path d="M221.8,601.8C221.8,601.8,221.8,601.8,221.8,601.8c0.7,0,1.3-0.5,1.3-1.2c0-0.7-0.5-1.2-1.2-1.3c-0.2,0-0.4,0-0.6,0
			c-0.7,0-1.3,0.5-1.3,1.1c-0.1,0.7,0.5,1.3,1.1,1.3C221.3,601.8,221.6,601.8,221.8,601.8z"/>
		<path d="M202.9,577.4l-0.1-0.6c-0.1-0.7-0.7-1.1-1.4-1c-0.7,0.1-1.1,0.7-1,1.4l0.1,0.6c0.1,0.6,0.6,1,1.2,1c0.1,0,0.1,0,0.2,0
			C202.6,578.7,203,578.1,202.9,577.4z"/>
		<path d="M228.1,601.5c0.2,0,0.4-0.1,0.6-0.1c0.7-0.1,1.1-0.7,1-1.4c-0.1-0.7-0.7-1.1-1.4-1c-0.2,0-0.4,0.1-0.6,0.1
			c-0.7,0.1-1.1,0.7-1.1,1.4c0.1,0.6,0.6,1.1,1.2,1.1C228,601.5,228,601.5,228.1,601.5z"/>
		<path d="M204.2,583.2c-0.2-0.6-0.9-1-1.5-0.8c-0.6,0.2-1,0.9-0.8,1.5c0.1,0.2,0.1,0.4,0.2,0.6c0.2,0.5,0.6,0.9,1.2,0.9
			c0.1,0,0.2,0,0.3-0.1c0.6-0.2,1-0.9,0.8-1.5C204.3,583.6,204.3,583.4,204.2,583.2z"/>
		<path d="M204.6,590.9c0.2,0.4,0.6,0.6,1.1,0.6c0.2,0,0.4,0,0.6-0.1c0.6-0.3,0.8-1.1,0.5-1.7c-0.1-0.2-0.2-0.3-0.3-0.5
			c-0.3-0.6-1-0.8-1.6-0.5c-0.6,0.3-0.8,1-0.5,1.6C204.4,590.6,204.5,590.7,204.6,590.9z"/>
		<path d="M209.7,596.9c0.3,0,0.6-0.1,0.9-0.4c0.5-0.5,0.4-1.3,0-1.7c-0.1-0.1-0.3-0.3-0.4-0.4c-0.5-0.5-1.2-0.5-1.7,0
			c-0.5,0.5-0.5,1.2,0,1.7c0.2,0.2,0.3,0.3,0.5,0.5C209.1,596.8,209.4,596.9,209.7,596.9z"/>
		<path d="M234.5,600.1c0.1,0,0.2,0,0.3,0l0.3-0.1c0.7-0.2,1-0.9,0.8-1.5c-0.2-0.7-0.9-1-1.5-0.8l-0.3,0.1c-0.7,0.2-1,0.8-0.9,1.5
			C233.5,599.8,234,600.1,234.5,600.1z"/>
		<path d="M293.4,681.4c0,0-0.6,0-6.5,0c-3.9,0-9.8-5.2-18.6-8.7c-0.6-3-2.5-5.4-4.8-6c0.2-8.6,0.6-20.6,1-29.6h0.7c1.1,0,2-0.9,2-2
			v-2.5c0-1.1-0.9-2-2-2H265c0.3-3.6,0.6-6.1,0.9-6.6c1.4-2.2,4-2.6,4-6.1c0-3.5-2-4-4-6.1c-0.8-0.9-0.9-7.3-0.8-14.6h0.1
			c3.1,0,5.6-2.5,5.6-5.6v-0.9c0-0.3,0-0.6-0.1-0.8c15.4-6.9,26.2-22.1,26.2-39.6c0,0-2.9-42.5,0-42.5c2.9,0,6.3,0,6.3,0
			c1.4,0,2.5-1.1,2.5-2.4v-2.7c0-1.3-1.1-2.4-2.5-2.4H200.7c-1.4,0-2.5,1.1-2.5,2.4v2.7c0,1.3,1.1,2.4,2.5,2.4c0,0,3.6,0,6.3,0
			c2.7,0,0,42.5,0,42.5c0,17.5,10.8,32.7,26.2,39.6c0,0.3-0.1,0.6-0.1,0.8v0.9c0,3.1,2.5,5.6,5.5,5.6c0.1,7.3,0,13.7-0.6,14.6
			c-1.4,2.2-4,2.7-4,6.1c0,3.4,2,4,4,6.1c0.5,0.5,0.8,3,1.1,6.6h-0.5c-1.1,0-2,0.9-2,2v2.5c0,1.1,0.9,2,2,2h0.9
			c0.4,9.1,0.6,21,0.8,29.6c-2.3,0.6-4.2,2.9-4.8,6c-8.7,3.6-14.5,8.7-18.6,8.7c-6.3,0-6.5,0-6.5,0c-0.2,0-0.3,0.1-0.3,0.3v5.8
			c0,0.2,0.1,0.3,0.3,0.3h82.9c0.2,0,0.3-0.1,0.3-0.3v-5.8C293.7,681.5,293.6,681.4,293.4,681.4z M227.7,528.2l11.7-15.3
			c-4.3,2.8-7.5,1.8-9.2,1.9c-1.9,0.1-4.1,1.3-5.7,2.2c-3.1,1.7-6.4,4.7-11,2.8c4.2,1,7.1-3,9.6-6c1.3-1.5,2.7-2.8,4.2-3.6
			c2.6-1.4,5.9-1.8,8.7-3H267c0,0,0,0.1,0,0.1c4.9,1.3,6.3,4.3,7.5,5.4c1.4,1.3,3.8,2.2,5.4,2.7c3.3,1.1,7.8,1.5,9.4,6.2
			c-2.1-3.8-7-3.2-11-3c-2,0.1-3.9-0.1-5.5-0.7c-2.7-1-5.1-3-7.8-4.2l11.2,14.5L261,516.4c1.2,2.9,3.5,5.5,4.5,8.4
			c0.6,1.7,0.8,3.6,0.7,5.5c-0.1,4-0.8,8.9,3,11c-4.7-1.7-5.1-6.1-6.2-9.4c-0.5-1.7-1.4-4.1-2.7-5.4c-1.1-1.2-3.9-2.6-5.3-7.1
			l-3,30.7l-3-30.7c-1.3,4.5-4.2,5.9-5.3,7.1c-1.3,1.4-2.2,3.8-2.7,5.4c-1.1,3.3-1.5,7.8-6.2,9.4c3.8-2.1,3.2-7,3-11
			c-0.1-2,0.1-3.9,0.7-5.5c1-2.9,3.3-5.5,4.5-8.4L227.7,528.2z M233.9,563.7c0-0.8,0.1-1.6,0.2-2.4c1.1,8.8,8.6,15.7,17.8,15.7
			c9.1,0.1,16.7-6.7,18-15.5c0.1,0.8,0.2,1.6,0.2,2.4c-0.1,10-8.2,18-18.2,17.9C241.9,581.8,233.9,573.7,233.9,563.7z"/>
	</g>
</g>
</svg>
