<?xml version="1.0" encoding="utf-8"?>
<!-- Generator: Adobe Illustrator 21.1.0, SVG Export Plug-In . SVG Version: 6.00 Build 0)  -->
<svg version="1.1" xmlns="http://www.w3.org/2000/svg" xmlns:xlink="http://www.w3.org/1999/xlink" x="0px" y="0px"
	 viewBox="0 0 504 864" style="enable-background:new 0 0 504 864;" xml:space="preserve">
<g id="Слой_1">
</g>
<g id="Слой_2">
	<g>
		<path d="M234.1,105.2c0.3,0,0.6,0.1,0.9,0.4c0.3,0.3,0.5,0.4,0.6,0.2c0.1-0.2,1.5-0.4,4-0.4c2.1,0,3.2,0.1,3.2,0.3
			c0,0.2,0.2,0.3,0.5,0.3c0.4,0,0.6-0.1,0.6-0.2c0-0.1,0.2-0.3,0.6-0.5c0.4-0.2,0.6-0.4,0.6-0.6c0-0.9-0.7-1.4-1.9-1.5l-1.3-0.1
			l0.1-6.7c0.1-4.5,0.2-6.8,0.3-7c0.1-0.1,0.2-0.8,0.3-1.9c0.1-2.1,0.3-3.2,0.7-3.2c0.2,0,0.4-0.1,0.4-0.3c0-0.2,0.2-0.3,0.7-0.3
			c0.4,0,0.8-0.1,1-0.3c0.3-0.2,0.4-0.5,0.4-0.7c0-0.3-0.2-0.6-0.5-0.8c-0.3-0.2-1.4-0.3-3.4-0.3c-2,0-2.9,0.1-2.9,0.3
			c0,0.1-0.3,0.2-0.9,0.2s-0.9,0.1-0.9,0.4s-0.1,0.4-0.3,0.4c-0.2,0-0.3,0.2-0.3,0.6c0,0.5,0.1,0.8,0.4,0.9c0.3,0.1,0.4,0.9,0.4,2.5
			c0,1.6,0.1,2.4,0.3,2.5c0.2,0.1,0.3,0.8,0.3,2.2c0,1.3-0.1,2-0.3,2.1c-0.2,0.1-0.4,1.5-0.4,4.3c-0.1,2.4-0.2,3.9-0.4,4.3
			c-0.2,0.5-0.8,0.8-1.8,0.9c-0.6,0-0.9,0.1-1,0.2c-0.1,0.1-0.2,0.4-0.2,0.8C233.8,104.9,233.9,105.2,234.1,105.2z M240.2,90.5
			c0.3,0,0.4,0.2,0.4,0.6c0,0.4-0.1,0.5-0.4,0.5c-0.3,0-0.4-0.2-0.4-0.5C239.8,90.7,240,90.5,240.2,90.5z M238.6,98.5
			c0.2,0,0.4,0.1,0.4,0.3c0,0.2-0.1,0.3-0.4,0.3c-0.3,0-0.4-0.1-0.4-0.3C238.2,98.6,238.3,98.5,238.6,98.5z"/>
		<path d="M249.1,105.2c0.3,0,0.6,0.1,0.9,0.4c0.3,0.3,0.5,0.4,0.6,0.2c0.1-0.2,1.5-0.4,4-0.4c2.1,0,3.2,0.1,3.2,0.3
			c0,0.2,0.2,0.3,0.5,0.3c0.4,0,0.6-0.1,0.6-0.2c0-0.1,0.2-0.3,0.6-0.5c0.4-0.2,0.6-0.4,0.6-0.6c0-0.9-0.7-1.4-1.9-1.5l-1.3-0.1
			l0.1-6.7c0.1-4.5,0.2-6.8,0.3-7c0.1-0.1,0.2-0.8,0.3-1.9c0.1-2.1,0.3-3.2,0.7-3.2c0.2,0,0.4-0.1,0.4-0.3c0-0.2,0.2-0.3,0.7-0.3
			c0.4,0,0.8-0.1,1-0.3s0.4-0.5,0.4-0.7c0-0.3-0.2-0.6-0.5-0.8c-0.3-0.2-1.4-0.3-3.4-0.3c-2,0-2.9,0.1-2.9,0.3
			c0,0.1-0.3,0.2-0.9,0.2s-0.9,0.1-0.9,0.4s-0.1,0.4-0.3,0.4c-0.2,0-0.3,0.2-0.3,0.6c0,0.5,0.1,0.8,0.4,0.9c0.3,0.1,0.4,0.9,0.4,2.5
			c0,1.6,0.1,2.4,0.3,2.5c0.2,0.1,0.3,0.8,0.3,2.2c0,1.3-0.1,2-0.3,2.1c-0.2,0.1-0.4,1.5-0.4,4.3c-0.1,2.4-0.2,3.9-0.4,4.3
			c-0.2,0.5-0.8,0.8-1.8,0.9c-0.6,0-0.9,0.1-1,0.2c-0.1,0.1-0.2,0.4-0.2,0.8C248.8,104.9,248.9,105.2,249.1,105.2z M255.3,90.5
			c0.3,0,0.4,0.2,0.4,0.6c0,0.4-0.1,0.5-0.4,0.5c-0.3,0-0.4-0.2-0.4-0.5C254.8,90.7,255,90.5,255.3,90.5z M253.6,98.5
			c0.2,0,0.4,0.1,0.4,0.3c0,0.2-0.1,0.3-0.4,0.3c-0.3,0-0.4-0.1-0.4-0.3C253.2,98.6,253.3,98.5,253.6,98.5z"/>
		<path d="M275.4,81.8c-0.3-0.2-1.4-0.3-3.4-0.3c-2,0-2.9,0.1-2.9,0.3c0,0.1-0.3,0.2-0.9,0.2s-0.9,0.1-0.9,0.4s-0.1,0.4-0.3,0.4
			c-0.2,0-0.3,0.2-0.3,0.6c0,0.5,0.1,0.8,0.4,0.9c0.3,0.1,0.4,0.9,0.4,2.5c0,1.6,0.1,2.4,0.3,2.5c0.2,0.1,0.3,0.8,0.3,2.2
			c0,1.3-0.1,2-0.3,2.1c-0.2,0.1-0.4,1.5-0.4,4.3c-0.1,2.4-0.2,3.9-0.4,4.3c-0.2,0.5-0.8,0.8-1.8,0.9c-0.6,0-0.9,0.1-1,0.2
			c-0.1,0.1-0.2,0.4-0.2,0.8c0,0.6,0.1,0.9,0.4,0.9c0.3,0,0.6,0.1,0.9,0.4c0.3,0.3,0.5,0.4,0.6,0.2c0.1-0.2,1.5-0.4,4-0.4
			c2.1,0,3.2,0.1,3.2,0.3c0,0.2,0.2,0.3,0.5,0.3c0.4,0,0.6-0.1,0.6-0.2c0-0.1,0.2-0.3,0.6-0.5c0.4-0.2,0.6-0.4,0.6-0.6
			c0-0.9-0.7-1.4-1.9-1.5l-1.3-0.1l0.1-6.7c0.1-4.5,0.2-6.8,0.3-7c0.1-0.1,0.2-0.8,0.3-1.9c0.1-2.1,0.3-3.2,0.7-3.2
			c0.2,0,0.4-0.1,0.4-0.3c0-0.2,0.2-0.3,0.7-0.3c0.4,0,0.8-0.1,1-0.3s0.4-0.5,0.4-0.7C275.8,82.3,275.7,82,275.4,81.8z M268.6,99.1
			c-0.3,0-0.4-0.1-0.4-0.3c0-0.2,0.1-0.3,0.4-0.3c0.2,0,0.4,0.1,0.4,0.3C269,99,268.9,99.1,268.6,99.1z M270.3,91.6
			c-0.3,0-0.4-0.2-0.4-0.5c0-0.4,0.1-0.6,0.4-0.6c0.3,0,0.4,0.2,0.4,0.6C270.7,91.5,270.5,91.6,270.3,91.6z"/>
		<path d="M503.8,18.2c-1.6-17.9-18.7-16.3-31.6-16.3c-45.9,0-91.8,0-137.6,0c-63.2,0-126.3,0-189.5,0c-40.6,0-81.2,0-121.8,0
			c-2.6,0-5.3-0.2-8,0.2c-9.5,1.2-15,9.2-15.2,18.2c-0.2,7.3,0,14.5,0,21.8c0,37.4,0,74.9,0,112.3c0,57,0,114.1,0,171.1
			c0,64.3,0,128.6,0,192.9c0,58.4,0,116.7,0,175.1c0,40.1,0,80.2,0,120.3c0,9.1,0,18.2,0,27.3c0,11.7,6.7,20.5,19.2,20.7
			c35.9,0.6,71.9,0,107.9,0c62.4,0,124.9,0,187.3,0c49.7,0,99.5,0,149.2,0c7.6,0,15.2,0,22.9,0c0.4,0,0.8-0.1,1.2-0.2
			c14.4-1.8,16.1-13.8,16.1-25.5c0-11.4,0-22.8,0-34.3c0-43.4,0-86.9,0-130.3c0-59.9,0-119.8,0-179.8c0-63.9,0-127.7,0-191.6
			c0-55.3,0-110.6,0-165.9c0-33.7,0-67.3,0-101C503.9,28.3,504.2,23.2,503.8,18.2z M486.6,852.8c-28.3,0-56.6,0-84.9,0
			c-59.9,0-119.8,0-179.7,0c-54,0-108,0-162,0c-13.1,0-26.1,0-39.2,0c-5.6,0-11-1.3-11.7-8.3c-0.2-1.5,0-3,0-4.5c0-26.5,0-53,0-79.5
			c0-50,0-100,0-149.9c0-61.8,0-123.6,0-185.4c0-61.4,0-122.7,0-184.1c0-48.9,0-97.7,0-146.6c0-24.2-0.8-48.6,0-72.7
			c0.2-5.3,1.6-10.1,8.3-10.8c2.2-0.2,4.5,0,6.7,0c14.8,0,29.6,0,44.5,0c55.6,0,111.3,0,166.9,0c58.9,0,117.8,0,176.7,0
			c18.9,0,37.9,0,56.8,0c8.1,0,24.7-3.1,25.9,8.4c0.5,5.2,0,10.8,0,16.1c0,13.5,0,27.1,0,40.6c0,45.5,0,91.1,0,136.6
			c0,60.1,0,120.2,0,180.3c0,62.6,0,125.2,0,187.7c0,52.8,0,105.6,0,158.4c0,31.4,0,62.7,0,94.1C494.8,840.3,496.9,852,486.6,852.8z
			"/>
		<path d="M460,790.9c1.2,0.1,2.4-0.7,2.4-2.2c0-23.7,0-47.4,0-71.1c0-56.4,0-112.8,0-169.2c0-68.7,0-137.4,0-206
			c0-59,0-117.9,0-176.9c0-19.6,0-39.2,0-58.8c0-8.9,1.3-19,0-27.9c-0.1-0.4,0-0.8,0-1.2c0-0.8-0.3-1.3-0.8-1.7
			c0.1-1.2-0.6-2.5-2.2-2.6c-13.1-0.5-25.3-13.8-25.8-26.7c0-0.5-0.2-0.8-0.4-1.1c-0.3-0.6-1-1.1-1.9-1.1c-40.5,0-80.9,0-121.4,0
			c-64.5,0-129,0-193.6,0c-14.9,0-29.7,0-44.6,0c-0.9,0-1.6,0.5-1.9,1.1c-0.2,0.3-0.3,0.7-0.4,1.2C69.1,59.5,57,72.8,43.9,73.3
			c-1.8,0.1-2.5,1.9-2,3.2c-0.2,0.3-0.2,0.6-0.2,1c0,23.7,0,47.4,0,71.1c0,56.4,0,112.8,0,169.2c0,68.7,0,137.4,0,206
			c0,59,0,117.9,0,176.9c0,19.6,0,39.2,0,58.8c0,8.9-1.3,19,0,27.9c0.1,0.4,0,0.8,0,1.2c0,0.9,0.5,1.6,1.1,1.9
			c0.3,0.2,0.7,0.3,1.2,0.4c13,0.5,25.3,13.3,25.8,26.2c0,0.5,0.2,0.8,0.4,1.1c0.3,0.6,1,1.1,1.9,1.1c40.5,0,80.9,0,121.4,0
			c64.5,0,129,0,193.6,0c14.9,0,29.7,0,44.6,0c0.9,0,1.6-0.5,1.9-1.1c0.2-0.3,0.3-0.7,0.4-1.2c0.5-12.9,12.7-25.7,25.8-26.2
			C459.6,791,459.8,790.9,460,790.9z M429.3,814.9c-39.8,0-79.6,0-119.3,0c-64.5,0-129,0-193.6,0c-14.2,0-28.3,0-42.5,0
			c-1.7-13.9-13.9-26.5-27.8-28.3c0-23,0-46,0-69.1c0-56.4,0-112.8,0-169.2c0-68.7,0-137.4,0-206c0-59,0-117.9,0-176.9
			c0-19.6,0-39.2,0-58.8c0-8.9,1.3-19,0-27.9c-0.1-0.4,0-0.8,0-1.2c14-1.8,26.1-14.9,27.8-28.7c39.8,0,79.5,0,119.3,0
			c64.5,0,129,0,193.6,0c14.2,0,28.3,0,42.5,0c1.7,14.1,14.3,27.4,28.5,28.8c0,23.7,0,47.3,0,71c0,56.4,0,112.8,0,169.2
			c0,68.7,0,137.4,0,206c0,59,0,117.9,0,176.9c0,19.6,0,39.2,0,58.8c0,8.6-1.2,18.4-0.1,27C443.6,788.1,431.1,800.9,429.3,814.9z"/>
		<path d="M137.8,785.3c0.1,0,0.2-0.2,0.2-0.5c0-0.2,0-0.4-0.1-0.4c-0.1,0-0.1-0.1-0.1-0.3c0-0.2,0.1-0.4,0.2-0.6
			c0.1-0.3,0.1-0.5-0.2-0.6c-0.2-0.2-0.5-0.3-0.9-0.3c-0.5,0-0.8,0.1-1.1,0.4c-0.3,0.2-0.4,0.3-0.5,0.2c-0.1-0.1-0.4-0.1-0.8,0
			c-0.5,0.1-1.4,0.2-2.6,0.2c-0.9,0-1.4,0-1.5-0.1c-0.1-0.1-0.2,0-0.4,0.2c-0.1,0.1-0.3,0.2-0.4,0.2c-0.2,0-0.4,0-0.7-0.1
			c-0.7-0.2-1.1-0.2-1.3-0.2c-0.1,0-0.2,0-0.2,0c-0.1,0-0.3,0.1-0.4,0.3s-0.2,0.4-0.2,0.5c0,0.1,0,0.1,0.1,0.2c0,0,0.1,0.2,0.1,0.5
			c0,0.1,0,0.2-0.1,0.3c-0.1,0-0.2,0.1-0.3,0.1c-0.3,0-0.5,0.1-0.5,0.3c0,0,0,0.1,0.1,0.2c0.1,0.1,0.1,0.3,0.1,0.6
			c0,0.3-0.1,0.4-0.1,0.5c0,0.5,0.2,0.8,0.6,0.8c0.3,0,0.4-0.1,0.4-0.2c0-0.1,0.1-0.2,0.2-0.2c0.1,0,0.1,0,0.2-0.1c0,0,0-0.1,0-0.2
			c0-0.1-0.1-0.2-0.2-0.2c-0.1-0.1-0.1-0.1-0.1-0.2c0,0,0-0.1,0-0.1c0,0,0-0.1,0.1-0.1c0,0,0.1,0,0.2-0.1c0.2-0.1,0.2-0.2,0.2-0.3
			c0,0,0-0.1,0-0.2c0-0.1,0-0.1,0-0.2c0-0.1,0-0.2,0.1-0.2c0.1-0.1,0.1-0.3,0-0.6c-0.1-0.3-0.1-0.4,0-0.4c0.1,0,0.1,0.1,0.1,0.2
			s0.2,0.2,0.5,0.4c0.4,0.1,0.7,0.2,1.1,0.2c0.4,0,0.7,0.1,0.8,0.3c0.2,0.2,0.3,0.2,0.5,0.2c0.1,0,0.1,0,0.1,0c0.1,0,0.1,0,0,0.1
			c-0.3,0.3-0.4,2.2-0.5,5.8c0,0.8-0.1,1.2-0.3,1.4c-0.2,0.1-0.3,0.3-0.3,0.4c0,0.1-0.3,0.2-0.8,0.2l-0.7,0.1l-0.1,0.5
			c0,0,0,0.1,0,0.1c0,0,0,0.1,0,0.1c0,0.2,0.1,0.4,0.4,0.7c0.3,0.3,0.5,0.4,0.7,0.4c0.1,0,0.1,0,0.1-0.1c0-0.1,0-0.1-0.1-0.1
			c-0.1,0-0.1,0-0.1-0.1c0-0.1,0.2-0.1,0.5-0.1c0.1,0,0.4,0,0.8,0c0.4,0,0.7,0,0.9,0c0.6,0,0.9-0.1,1.1-0.2c0.1-0.1,0.3-0.2,0.6-0.1
			c0.2,0.1,0.3,0,0.4-0.1c0.1-0.1,0.2-0.1,0.3-0.1c0.1,0,0.3-0.1,0.5-0.2c0.1-0.1,0.2-0.2,0.2-0.3c0-0.1-0.1-0.2-0.2-0.5
			c-0.2-0.3-0.3-0.4-0.5-0.4c-0.1,0-0.2-0.1-0.2-0.2c0-0.1-0.1-0.2-0.3-0.1c0,0-0.1,0-0.1,0c-0.1,0-0.1,0-0.1,0
			c-0.1,0-0.2,0-0.3-0.1c0-0.1-0.1-0.3-0.1-0.5v-0.4c0-0.5,0-0.8,0-0.9c0-0.1,0.1-0.2,0.2-0.2c0.2,0,0.2-0.1,0.2-0.4
			c0-0.3-0.1-0.5-0.2-0.5c-0.1,0-0.2-0.4-0.2-1.1c0-0.8,0.1-1.2,0.2-1.4c0.1-0.1,0.2-0.5,0.2-1.2c0-0.7,0.1-1,0.1-1.1
			c0.1-0.2,0.5-0.2,1.2-0.2c1,0,1.5,0.1,1.6,0.4c0,0.1,0.1,0.2,0.4,0.5c0.2,0.2,0.3,0.4,0.3,0.8c0,0.3,0.1,0.5,0.1,0.5
			c0,0.1,0.2,0.1,0.4,0.1c0.2,0,0.4,0,0.4-0.1c0-0.1,0.1-0.2,0.3-0.2c0.2-0.1,0.3-0.2,0.3-0.4c0-0.2-0.1-0.4-0.2-0.5
			C137.7,785.4,137.7,785.3,137.8,785.3z"/>
		<path d="M158.5,782.6c-0.2-0.1-0.5-0.1-0.8-0.1c-0.1,0-0.2,0-0.5,0.1c-0.3,0.1-0.5,0.1-0.7,0.1h-0.1h-0.2c-0.2,0-0.5,0-1,0.1
			c-0.4,0-0.7,0.1-0.8,0.1c-0.1,0-0.2,0.1-0.2,0.2c0,0.2,0,0.3-0.1,0.3c-0.1,0-0.1,0-0.1,0.1c0,0.1,0,0.2,0,0.3
			c0,0.1,0.1,0.2,0.2,0.2c0.1,0.1,0.2,0.5,0.2,1.3c0,0.8,0.1,1.2,0.2,1.2c0.1,0,0.1,0.3,0.1,0.8v0.8h-1.3c-0.8,0-1.7,0-2.7-0.1
			l-1.4-0.1v-0.7c0-0.5,0-0.7,0.1-0.7c0.1,0,0.1-0.3,0.2-0.9c0-1.1,0.1-1.6,0.4-1.6c0.1,0,0.2,0,0.2-0.1c0-0.1,0.1-0.2,0.4-0.2
			c0.2,0,0.4-0.1,0.5-0.2c0.1-0.1,0.2-0.2,0.2-0.4c0-0.2-0.1-0.3-0.2-0.4c-0.2-0.1-0.5-0.2-1-0.2c-0.3,0-0.4,0-0.5,0.1
			c0,0-0.5,0.1-1.3,0.1c-0.9,0.1-1.7,0.2-2.4,0.5c-0.1,0-0.2,0.1-0.2,0.2s0.2,0.2,0.6,0.4l0.6,0.3l0,0.8v0.9v0.3
			c0,0.2,0,0.4,0.1,0.4c0.1,0.1,0.2,0.5,0.2,1.1c0,0.6-0.1,1.1-0.2,1.4c-0.1,0.3-0.2,0.5-0.2,0.8c0,0,0,0,0,0.1c0,0,0,0.1,0,0.1
			c0,0.2,0.1,0.4,0.1,0.6c0,0.5,0,1.1-0.1,1.8c-0.1,0.6-0.2,1-0.2,1.2c-0.1,0.2-0.4,0.3-0.8,0.3c-0.3,0-0.5,0.1-0.6,0.1
			c-0.1,0.1-0.1,0.2-0.1,0.4v0.5l0.7-0.1c0.3-0.1,1-0.1,2.2-0.1h0.7h0.7c1,0,1.6,0,1.6-0.1c0-0.1-0.1-0.3-0.2-0.5
			c-0.2-0.2-0.3-0.3-0.4-0.3h-0.1c-0.2,0.1-0.4,0.1-0.6-0.1c-0.1-0.1-0.2-0.1-0.3-0.2c0-0.1-0.1-0.2-0.1-0.4c0-0.3,0-0.5,0-0.8
			c0-0.9,0.1-1.6,0.1-2.1v-0.8h4.9l0.1,0.4c0,0.2,0.1,0.5,0.1,0.7c0,0.5,0,1.1-0.1,1.7c-0.1,0.6-0.2,1-0.3,1
			c-0.1,0.1-0.4,0.2-0.8,0.3c-0.3,0-0.5,0.1-0.5,0.1c-0.1,0.1-0.1,0.2-0.1,0.4c0,0.3,0.1,0.5,0.3,0.5c0.3,0.1,1.3,0.1,3.1,0.1
			c1.3,0,2,0,2.1-0.1c0.2-0.1,0.3-0.2,0.3-0.4c0-0.2-0.1-0.3-0.2-0.5c-0.1-0.2-0.3-0.2-0.4-0.2c0,0-0.1,0-0.1,0
			c-0.1,0.1-0.3,0.1-0.5,0l-0.4-0.1l0.1-3.5c0-2.3,0.1-3.5,0.2-3.6c0.1,0,0.1-0.3,0.1-0.9c0.1-1.1,0.2-1.6,0.4-1.6
			c0.1,0,0.2,0,0.2-0.1c0-0.1,0.1-0.2,0.4-0.2c0.2,0,0.4-0.1,0.5-0.2c0.2-0.1,0.2-0.3,0.2-0.4C158.8,782.8,158.7,782.7,158.5,782.6z
			 M147.6,791.5c-0.2-0.1-0.3-0.1-0.3-0.2c0-0.1,0-0.1,0.1-0.1c0.2,0,0.3,0.1,0.4,0.2c0,0,0,0,0,0.1
			C147.8,791.6,147.8,791.6,147.6,791.5z M148.3,791.5c-0.1,0-0.1-0.1-0.1-0.2c0-0.1,0-0.2,0.1-0.2c0.1,0,0.2,0.1,0.2,0.2
			C148.5,791.4,148.4,791.5,148.3,791.5z M148.3,787.8c-0.1,0-0.2-0.1-0.2-0.3c0-0.3,0.1-0.4,0.2-0.4c0.2,0,0.2,0.1,0.2,0.3
			C148.5,787.7,148.4,787.8,148.3,787.8z M155.4,791.5c-0.1,0.1-0.2,0.1-0.4,0c-0.2-0.1-0.3-0.1-0.3-0.2c0-0.1,0.1-0.1,0.2-0.1
			c0.3,0,0.5,0.1,0.5,0.2C155.5,791.5,155.5,791.5,155.4,791.5z M155.8,791.5c-0.1,0-0.2-0.1-0.2-0.2c0-0.1,0.1-0.2,0.2-0.2
			c0.1,0,0.1,0.1,0.1,0.2C155.9,791.4,155.9,791.5,155.8,791.5z M155.8,787.8c-0.1,0-0.2-0.1-0.2-0.3c0-0.3,0.1-0.4,0.2-0.4
			c0.1,0,0.2,0.1,0.2,0.3C156,787.7,155.9,787.8,155.8,787.8z"/>
		<path d="M172.1,780.4C172.1,780.4,172.1,780.4,172.1,780.4c0.1-0.1,0.2-0.1,0.1-0.1c0,0-0.1,0-0.3,0c-0.2,0-0.3,0.1-0.3,0.2
			C171.8,780.5,171.9,780.5,172.1,780.4z"/>
		<path d="M167.2,779.4c0,0.1,0.1,0.2,0.3,0.2c0.2,0,0.3-0.1,0.3-0.2c0-0.1-0.1-0.1-0.3-0.1C167.3,779.2,167.2,779.3,167.2,779.4z"
			/>
		<path d="M179.1,792.7c-0.1,0-0.2-0.1-0.3-0.4c-0.1-0.2-0.3-0.4-0.5-0.4c-0.2,0-0.4-0.1-0.6-0.2c-0.2-0.1-0.4-0.2-0.4-0.4
			c-0.1-0.1-0.1-0.2-0.3-0.2s-0.3-0.1-0.6-0.4c-0.2-0.3-0.4-0.6-0.6-0.9c-0.1-0.3-0.4-0.6-0.8-1.1c-0.4-0.5-0.7-0.7-0.8-0.7
			c-0.1,0-0.2-0.1-0.4-0.3c-0.1-0.1-0.2-0.2-0.1-0.3c0,0,0.1-0.1,0.3-0.2c0.8-0.3,1.2-0.6,1.2-0.9c0-0.5,0.1-0.7,0.3-0.7
			c0.1,0,0.2-0.1,0.4-0.2c0.2-0.2,0.2-0.7,0.2-1.5c0-1-0.1-1.5-0.3-1.7c-0.1-0.1-0.2-0.2-0.4-0.2c-0.1,0-0.2,0-0.2-0.1
			c0-0.1-0.1-0.2-0.4-0.3c-0.3-0.1-0.4-0.3-0.5-0.5l-0.2-0.3c-0.1-0.1-0.2-0.1-0.2,0.1c0,0.1-0.3,0.1-0.8,0.1c-0.6,0-0.9,0-0.9-0.1
			s-0.1-0.1-0.4-0.1c-0.3,0-0.5-0.1-0.6-0.3c-0.2-0.2-0.3-0.3-0.4-0.3s-0.2,0.1-0.1,0.3c0,0,0,0,0,0.1v0.1c0,0.1-0.6,0.2-1.8,0.2
			h-1.9l-0.5,0.5c-0.3,0.3-0.5,0.6-0.5,0.7c0,0.1,0.2,0.2,0.5,0.3c0.3,0.1,0.5,0.1,0.5,0.2c0,0.1,0,0.1,0.1,0.1
			c0.2,0,0.4,0.2,0.6,0.5c0.2,0.3,0.3,0.7,0.3,1.2c0,0.4,0.1,0.6,0.1,0.6c0,0.2-0.1,0.4-0.2,0.5c-0.2,0.1-0.2,0.2-0.1,0.3
			c0.1,0.1,0.2,0.3,0.2,0.7c0,0.3-0.1,0.5-0.2,0.5c-0.1,0-0.2,0,0,0.1c0.1,0.1,0.2,0.2,0.2,0.4s-0.1,0.4-0.2,0.5
			c-0.1,0.1-0.1,0.3,0.1,0.4c0.1,0.1,0.2,0.3,0.2,0.4c0,0.1-0.1,0.3-0.2,0.4c-0.2,0.2-0.3,0.7-0.3,1.6c0,0.7,0,1.1-0.1,1.2
			c0,0.1-0.1,0.2-0.3,0.3c-0.2,0.1-0.3,0.1-0.3,0.2c0,0.1-0.3,0.1-0.8,0.1c-0.4,0-0.6,0.1-0.7,0.1c-0.1,0.1-0.1,0.2-0.1,0.5
			c0,0.2,0.2,0.5,0.6,0.8c0.2,0.1,0.3,0.2,0.5,0.2c0.2,0,0.3-0.1,0.3-0.2c0.1-0.1,0.8-0.2,2.1-0.2c1.3,0,2.1-0.1,2.2-0.3
			c0.1-0.1,0.2-0.2,0.3-0.2c0.1,0,0.2-0.1,0.2-0.2c0-0.1-0.1-0.2-0.4-0.2c-0.3,0-0.4-0.1-0.5-0.3c0-0.2-0.2-0.3-0.5-0.4
			c-0.4-0.1-0.5-0.2-0.5-0.4c0-0.1,0-0.2,0.1-0.3c0.2-0.2,0.2-0.3,0.1-0.4c-0.1,0-0.2-0.6-0.2-1.6c0-0.3,0-0.6,0-1
			c0-0.3,0-0.4,0.1-0.5c0-0.1,0.1-0.1,0.2-0.1c0.5,0,1,0.2,1.5,0.5c0.5,0.4,0.8,0.7,0.8,1c0,0.2,0.1,0.3,0.2,0.3
			c0.1,0,0.2,0.1,0.2,0.4c0,0.5,0.3,0.8,0.8,1c0.2,0.1,0.4,0.3,0.5,0.7c0.1,0.4,0.3,0.8,0.7,1.2l0.6,0.7l0.9-0.1
			c0.1,0,0.3,0,0.6-0.1c0.3,0,0.6,0,0.8-0.1c0.2,0,0.4-0.1,0.7-0.1c0.3-0.1,0.4-0.1,0.6-0.2c0.1-0.1,0.2-0.2,0.2-0.3
			C179.2,792.8,179.2,792.7,179.1,792.7z M173.4,785.9c-0.1,0-0.2,0-0.2,0.1c-0.1,0-0.1,0,0,0.1c0.2,0,0.2,0.1,0.2,0.2
			c0,0.1-0.1,0.3-0.4,0.4c-0.2,0.2-0.5,0.3-0.7,0.3c-0.3,0-0.6,0.1-1.1,0.2c-0.1,0-0.2,0-0.3,0c-0.2,0-0.4-0.1-0.7-0.3
			c-0.2-0.2-0.3-0.3-0.4-0.3c0-0.1,0-0.1,0.1-0.2c0.1-0.1,0.2-0.7,0.2-1.6v-1.2c0-0.3,0.1-0.5,0.2-0.7c0.1-0.2,0.3-0.4,0.4-0.4h0.1
			l0.4,0.1c0.3,0,0.5,0.1,0.8,0.1c0.2,0.1,0.4,0.1,0.4,0.1c0,0.1,0.1,0.1,0.4,0.2c0.3,0.1,0.4,0.2,0.4,0.3c0,0.1,0.1,0.3,0.2,0.4
			c0.1,0.1,0.2,0.2,0.1,0.3c-0.1,0.1-0.1,0.3,0.1,0.6c0.1,0.2,0.2,0.5,0.2,0.8v0.1c0,0.2-0.1,0.4-0.1,0.4
			C173.8,785.8,173.7,785.9,173.4,785.9z"/>
		<path d="M186.3,792.2c0.1,0,0.1-0.1,0.2-0.1c0.1-0.2,0.1-0.3-0.1-0.3c-0.1,0-0.2,0.1-0.2,0.2C186.1,792.1,186.2,792.2,186.3,792.2
			z"/>
		<path d="M197,790.2c-0.1,0-0.3,0.2-0.5,0.5c-0.3,0.4-0.4,0.6-0.4,0.7c0,0.1-0.1,0.2-0.4,0.2c-0.2,0-0.3,0.1-0.3,0.1
			c0,0,0,0.1,0,0.3v0.2c0,0.2-0.1,0.3-0.4,0.3c0,0-0.1,0-0.2,0c-0.1,0-0.1,0-0.2,0c-0.2,0-0.4,0.1-0.7,0.4c-0.2,0.2-0.4,0.3-0.6,0.3
			c-0.1,0-0.2-0.1-0.2-0.2c-0.1-0.1-0.2-0.1-0.4,0c-0.2,0.1-0.6,0.2-1.2,0.2c-0.5,0-0.7,0-0.7-0.1c0-0.1-0.1-0.1-0.2-0.1
			c-0.1,0-0.1-0.1-0.2-0.2c-0.1-0.2-0.1-0.3-0.1-0.5c0,0,0-0.6,0.1-1.8c0-1.2,0.1-1.8,0.1-1.8c0-0.1,0.5-0.1,1.4-0.1
			c0.8,0,1.3,0.1,1.5,0.2c0.3,0.1,0.4,0.4,0.4,0.8c0,0.2,0,0.3,0.1,0.3c0,0,0.1,0,0.2,0c0.2-0.1,0.4-0.1,0.6-0.1h0.1
			c0.2,0,0.3-0.2,0.3-0.6c0-0.1,0-0.2,0-0.3c0-0.2,0-0.3,0-0.4v-0.3c0-0.4,0-0.6,0.1-0.6c0.1-0.1,0.1-0.3,0-0.4
			c-0.1-0.1-0.1-0.3,0.1-0.4c0.2-0.1,0.2-0.2,0.2-0.4c0-0.3-0.4-0.4-1.1-0.4c-0.4,0-0.6,0.2-0.6,0.5c0,0.1,0,0.2,0.1,0.3
			c0.1,0.2,0,0.3-0.1,0.5c-0.1,0.1-0.4,0.2-0.9,0.3c-0.6,0.1-1.1,0.2-1.6,0.2h-0.6V787c0-0.4,0.1-0.6,0.2-0.6c0.1,0,0.2-0.1,0.2-0.4
			c0-0.3-0.1-0.6-0.2-0.9c-0.1-0.2-0.2-0.4-0.2-0.4c0-0.1,0.1-0.1,0.2-0.3c0.2-0.2,0.3-0.3,0.2-0.5c0,0,0-0.1,0-0.2
			c0-0.2,0.1-0.3,0.4-0.4c0.3-0.1,0.8-0.1,1.5-0.2c0.6,0,1-0.1,1.1-0.1c0.4,0,0.6,0.1,0.7,0.2c0.2,0.2,0.3,0.3,0.5,0.4
			c0.2,0.1,0.3,0.2,0.3,0.3c0,0.1,0.1,0.2,0.4,0.4c0.2,0.1,0.4,0.3,0.4,0.3c0,0.2,0.1,0.3,0.3,0.5c0.2,0.2,0.4,0.3,0.6,0.3h0.1
			c0.3,0,0.4-0.2,0.4-0.7c0-0.2-0.1-0.4-0.2-0.5c-0.1-0.2-0.2-0.4-0.2-0.6c0-0.3-0.1-0.5-0.2-0.5c-0.1-0.1-0.1-0.2,0-0.4
			c0.1-0.1,0.1-0.2,0.1-0.3c0-0.1-0.1-0.1-0.2-0.2s-0.2-0.2-0.2-0.3c0-0.1-0.1-0.3-0.3-0.5c-0.1-0.1-0.2-0.2-0.3-0.2
			c-0.1,0-0.2,0-0.3,0.1c-0.2,0.1-1.9,0.3-5,0.4H190c-1.5,0-2.3-0.1-2.4-0.3c0-0.1-0.1-0.1-0.3-0.1c-0.1,0-0.2,0-0.2,0.1
			c0,0.1-0.1,0.2-0.1,0.3c0,0.2,0,0.3,0,0.3c0,0.2-0.1,0.3-0.3,0.4c-0.2,0-0.3,0.2-0.2,0.5c0.1,0.2,0.1,0.4,0.2,0.5
			c0.1,0.1,0.2,0.1,0.3,0.1s0.3,0,0.4,0c0.1,0,0.1,0,0.2,0c0.1,0,0.1,0,0.2,0c0.4,0,0.6,0.1,0.7,0.4c0.1,0.2,0.1,0.8,0.1,1.5
			c0,0.9-0.1,1.4-0.2,1.5c-0.1,0-0.1,0.2,0,0.4c0.1,0.3,0.1,0.5,0,0.7c-0.1,0.2-0.2,0.3-0.3,0.3c-0.1,0-0.1,0.1,0.1,0.2
			c0.1,0.1,0.1,0.3,0.1,0.6c0,0.3-0.1,1.3-0.2,3l-0.1,1h-0.6c-0.4,0-0.6,0.1-0.7,0.3c-0.1,0.2-0.2,0.3-0.3,0.3
			c-0.2,0-0.2,0.1-0.2,0.4c0,0.3,0.1,0.5,0.3,0.6c0.2,0.1,0.3,0.3,0.3,0.4c0,0.1,0.1,0.2,0.3,0.2s0.5,0,0.8-0.1
			c0.3-0.1,0.5-0.2,0.6-0.2c0.2-0.1,0.6-0.2,1.2-0.2c0.1,0,0.6,0,1.5,0.1c0.8,0,1.2,0.1,1.2,0.2c0.1,0.1,0.2,0.1,0.4,0
			c0.3-0.1,0.8-0.2,1.6-0.2c0.9,0,1.4,0,1.6-0.1c0.2,0,0.3-0.1,0.5-0.2c0.2-0.2,0.3-0.4,0.2-0.6c-0.1-0.2,0-0.4,0.2-0.4
			c0.1-0.1,0.2-0.4,0.2-0.8c0-0.3,0-0.5,0.1-0.6c0-0.1,0.1-0.1,0.2-0.1c0.2,0,0.3-0.2,0.3-0.5c0-0.3-0.1-0.5-0.2-0.7
			C197.3,790.3,197.2,790.2,197,790.2z"/>
		<path d="M204.7,792.1c0,0,0.1,0,0.1-0.1c0.1-0.2,0.1-0.3,0-0.3c-0.1,0-0.2,0.1-0.2,0.2C204.5,792,204.6,792.1,204.7,792.1z"/>
		<path d="M214.8,790.2c-0.1,0-0.3,0.2-0.5,0.5s-0.4,0.5-0.4,0.7c0,0.1-0.1,0.2-0.4,0.2c-0.1,0-0.2,0-0.3,0.1c0,0-0.1,0.1-0.1,0.1
			c0,0,0,0.1,0,0.3c0,0.2-0.1,0.3-0.4,0.3c0,0-0.1,0-0.1,0c-0.1,0-0.1,0-0.2,0c-0.2,0-0.4,0.1-0.6,0.3s-0.4,0.3-0.6,0.3
			c-0.1,0-0.2-0.1-0.2-0.2c0-0.1-0.1-0.1-0.4,0c-0.2,0.1-0.6,0.2-1.2,0.2c-0.5,0-0.7,0-0.7-0.1s-0.1-0.1-0.2-0.1
			c-0.1,0-0.1-0.1-0.2-0.2c-0.1-0.2-0.1-0.3-0.1-0.4c0-0.1,0-0.2,0-0.3c0-0.2,0-0.4,0-0.6c0-0.3,0-0.5,0-0.8c0-0.3,0-0.5,0-0.8
			s0-0.5,0-0.6v-0.2c0-0.1,0.4-0.1,1.3-0.1c0.7,0,1.2,0.1,1.4,0.2c0.2,0.1,0.4,0.4,0.4,0.8c0,0.2,0,0.3,0.1,0.3c0,0,0.1,0,0.2,0
			c0.1-0.1,0.3-0.1,0.5-0.1c0.1,0,0.2,0,0.3-0.1c0-0.1,0.1-0.2,0.1-0.5c0-0.1,0-0.2,0-0.3c0-0.2,0-0.3,0-0.4v-0.2
			c0-0.3,0-0.6,0.1-0.7c0.1-0.1,0.1-0.3,0-0.4c-0.1-0.1-0.1-0.3,0.1-0.4c0.1-0.1,0.2-0.2,0.2-0.4c0-0.3-0.3-0.4-1-0.4
			c-0.4,0-0.6,0.2-0.6,0.5c0,0.1,0,0.2,0.1,0.3c0,0.2,0,0.4,0,0.5c-0.1,0.1-0.3,0.2-0.9,0.3s-1,0.1-1.5,0.1h-0.6v-0.6
			c0-0.4,0.1-0.6,0.2-0.6c0.1,0,0.2-0.1,0.2-0.4c0-0.3-0.1-0.5-0.2-0.9c-0.1-0.2-0.2-0.4-0.1-0.4c0-0.1,0.1-0.1,0.2-0.3
			c0.2-0.1,0.3-0.3,0.2-0.5c0,0,0-0.1,0-0.2c0-0.1,0.1-0.3,0.4-0.3c0.3-0.1,0.7-0.1,1.5-0.2c0.7,0,1.1-0.1,1.1-0.1
			c0.3,0,0.5,0.1,0.6,0.2c0.1,0.2,0.3,0.3,0.5,0.4c0.2,0.1,0.3,0.2,0.3,0.3c0,0.1,0.1,0.2,0.3,0.3c0.2,0.1,0.3,0.2,0.3,0.3
			c0,0.2,0.1,0.3,0.3,0.5c0.2,0.2,0.4,0.2,0.6,0.2h0c0.3,0,0.4-0.2,0.4-0.6c0-0.2-0.1-0.3-0.2-0.5c-0.1-0.1-0.2-0.3-0.2-0.5
			c0-0.3-0.1-0.5-0.2-0.5c-0.1,0-0.1-0.1,0-0.4c0.1-0.1,0.1-0.2,0.1-0.3c0,0-0.1-0.1-0.1-0.1c-0.1-0.1-0.2-0.2-0.2-0.3
			c0-0.1-0.1-0.3-0.3-0.5c-0.2-0.2-0.4-0.3-0.6-0.1c-0.3,0.1-1.8,0.3-4.7,0.4h-0.7c-1.5,0-2.2-0.1-2.3-0.3c0-0.1-0.1-0.1-0.2-0.1
			c-0.1,0-0.2,0-0.2,0.1l0,0.1c0,0.1,0,0.1,0,0.1c0,0,0,0.1,0,0.2c0,0.1,0,0.2,0,0.2c0,0.2-0.1,0.3-0.3,0.3
			c-0.2,0.1-0.3,0.2-0.2,0.5c0.1,0.2,0.1,0.4,0.2,0.5c0.1,0.1,0.2,0.1,0.3,0.1c0.1,0,0.3,0,0.4,0c0.1,0,0.2,0,0.4,0
			c0.3,0,0.5,0.1,0.6,0.4c0.1,0.2,0.1,0.7,0.1,1.4c0,0.9-0.1,1.4-0.2,1.4c-0.1,0-0.1,0.2,0,0.4c0.1,0.2,0.1,0.4,0,0.6
			c-0.1,0.2-0.2,0.3-0.3,0.3c-0.1,0-0.1,0.1,0.1,0.2c0.1,0.1,0.1,0.3,0.1,0.6c0,0.5-0.1,1.5-0.2,2.8l-0.1,0.9h-0.6
			c-0.4,0-0.6,0.1-0.6,0.3c0,0.2-0.1,0.3-0.3,0.3c-0.1,0-0.2,0.1-0.2,0.3c0,0.3,0.1,0.5,0.3,0.6c0.2,0.1,0.3,0.2,0.3,0.4
			c0,0.1,0.2,0.1,0.7,0.1c0.5,0,0.8-0.1,0.9-0.3c0.1-0.1,0.5-0.2,1.2-0.2c0.5,0,0.9,0,1.3,0c0.7,0,1.1,0.1,1.2,0.2
			c0,0.1,0.2,0.1,0.4,0c0.2-0.1,0.7-0.2,1.5-0.2c0.8,0,1.3,0,1.5-0.1c0.2,0,0.3-0.1,0.5-0.3c0.2-0.2,0.3-0.3,0.2-0.5
			c0-0.2,0-0.3,0.1-0.4c0.1-0.1,0.2-0.3,0.2-0.8c0-0.3,0-0.5,0-0.6c0-0.1,0.1-0.1,0.2-0.1c0.2,0,0.3-0.2,0.3-0.5
			c0-0.2-0.1-0.4-0.2-0.6C215.1,790.3,215,790.2,214.8,790.2z"/>
		<path d="M246.7,785.7c-0.2-0.1-0.2-0.2-0.2-0.5c0-0.3,0-0.5-0.1-0.5c-0.1,0-0.1-0.1-0.1-0.4s-0.1-0.4-0.2-0.4
			c-0.1,0-0.2-0.1-0.3-0.3c-0.1-0.2-0.2-0.3-0.3-0.4c-0.1-0.1-0.2-0.2-0.2-0.4c0-0.2-0.1-0.3-0.4-0.3c-0.7,0-1-0.1-1-0.4
			c0-0.1-0.1-0.2-0.2-0.2c-0.1,0-0.2,0-0.2-0.1c0-0.1-0.1-0.1-0.3-0.1c-0.2,0-0.3-0.1-0.4-0.2c0-0.1-0.5-0.2-1.5-0.2
			c-0.9,0-1.5,0.1-1.6,0.2c-0.1,0.1-0.2,0.2-0.4,0.2c-0.2,0-0.3,0.1-0.4,0.3c-0.1,0.2-0.3,0.4-0.6,0.4c-0.3,0-0.6,0.1-1.1,0.2
			c-0.5,0.1-0.7,0.3-0.8,0.5c0,0.2-0.2,0.4-0.5,0.7c-0.3,0.3-0.4,0.5-0.4,0.5c0,0.1-0.1,0.1-0.2,0.1c-0.1,0-0.2,0.1-0.3,0.4
			c-0.1,0.2-0.2,0.4-0.3,0.7c-0.2,0.3-0.2,0.8-0.2,1.8c0,1.2,0.1,2.1,0.4,2.9c0.5,1.4,0.9,2.2,1.2,2.3c0.2,0,0.3,0.1,0.3,0.3
			c0,0.2,0.2,0.2,0.4,0.2c0.2,0,0.4,0,0.4,0.1c0,0.1,0.1,0.1,0.3,0.1s0.3,0.1,0.3,0.4c0,0.2,0,0.3,0.1,0.4c0.1,0.1,0.2,0,0.4-0.1
			c0.1-0.1,0.2-0.1,0.3,0c0.2,0.1,0.9,0.2,2.2,0.2c1.1,0,1.7-0.1,1.7-0.2c0-0.1,0.3-0.2,0.7-0.2c0.4,0,0.6-0.1,0.6-0.2
			c0-0.2,0.1-0.3,0.2-0.3c0,0,0.2-0.1,0.4-0.3c0.3-0.2,0.4-0.3,0.5-0.3c0.1,0,0.2-0.1,0.2-0.3c0.1-0.2,0.2-0.3,0.3-0.3
			c0.1,0,0.2-0.1,0.3-0.3c0-0.2,0.2-0.3,0.4-0.3c0.2-0.1,0.3-0.1,0.3-0.2c0-0.1,0.1-0.1,0.2-0.1c0.1,0,0.2-0.2,0.2-0.6
			c0-0.3,0-0.5-0.1-0.5c-0.1,0-0.1-0.1,0-0.2c0.1-0.1,0.2-0.8,0.2-2.1c0-0.3,0-0.7,0-1.1C247,786,246.9,785.7,246.7,785.7z
			 M244.5,788.8c-0.1,0-0.2,0.2-0.2,0.4c0,0.3-0.1,0.4-0.2,0.5c-0.1,0.1-0.2,0.4-0.3,0.8c-0.1,0.4-0.1,0.6-0.3,0.6
			c-0.1,0-0.2,0-0.2,0.1c0,0.1-0.1,0.2-0.4,0.2c-0.3,0.1-0.4,0.2-0.4,0.3c0,0.1,0,0.2-0.1,0.2c-0.1,0.1-0.2,0.1-0.4,0.2
			c-0.1,0.1-0.2,0.1-0.3,0.1c0,0.1-0.2,0.1-0.4,0.1c-0.2,0-0.3,0.1-0.5,0.2c-0.1,0.1-0.2,0.1-0.4,0.1c-0.2,0-0.4,0-0.7-0.1
			c-0.5-0.1-1-0.3-1.3-0.6c-0.3-0.3-0.7-0.8-1-1.5c-0.3-0.5-0.4-0.9-0.5-1.1c0-0.2-0.1-0.7-0.1-1.4c0-0.7,0-1.1,0.1-1.4
			c0-0.2,0.1-0.5,0.3-0.8c0.3-0.5,0.6-0.9,1-1.3c0.4-0.4,0.8-0.6,1-0.7c0.3,0,0.5-0.1,0.5-0.3c0-0.1,0.1-0.2,0.2-0.2
			c0.1,0,0.2,0,0.2-0.1c0-0.1,0.1-0.1,0.3-0.1c0.2,0,0.3,0,0.3,0.1c0,0.1,0.3,0.1,0.9,0.1c0.5,0,0.8,0.1,0.8,0.2
			c0,0.1,0.1,0.2,0.3,0.3c0.2,0.1,0.3,0.2,0.3,0.3s0.1,0.2,0.3,0.3c0.3,0.1,0.5,0.4,0.5,0.8c0,0.2,0.1,0.5,0.3,0.8
			c0.2,0.3,0.3,0.7,0.3,1.1c0,0.5,0,0.7,0.1,0.8c0.1,0.1,0.1,0.2,0.1,0.4C244.7,788.6,244.7,788.7,244.5,788.8z"/>
		<path d="M264.5,783.9c0-0.3-0.1-0.5-0.2-0.6c-0.1-0.1-0.1-0.2,0-0.4c0.1-0.1,0.1-0.2,0.1-0.2c0-0.1-0.1-0.2-0.2-0.2
			c-0.1-0.1-0.2-0.2-0.2-0.3c0-0.2-0.1-0.3-0.3-0.5s-0.4-0.3-0.5-0.3c-0.1,0-0.2,0-0.2,0.1c0,0.1-0.3,0.1-0.9,0.2
			c-0.5,0.1-1.1,0.1-1.7,0.1c-0.6,0-0.9,0-1,0.1c-0.1,0-0.5,0.1-1.4,0.1c-0.9,0.1-1.8,0.2-2.7,0.3c-0.9,0.1-1.4,0.2-1.4,0.2
			c0,0,0,0.1,0,0.2c0,0.1,0,0.2,0.1,0.3c0.1,0.2,0.1,0.3,0.2,0.4c0.1,0,0.3,0.1,0.6,0.1c0.5,0,0.9,0.1,1,0.3
			c0.1,0.2,0.2,0.7,0.2,1.6c0,0.9-0.1,1.4-0.2,1.5c-0.1,0.1-0.1,0.2,0,0.4c0.1,0.3,0.2,0.5,0,0.7c-0.1,0.2-0.2,0.3-0.3,0.3
			c-0.1,0,0,0.1,0.1,0.2c0.1,0.1,0.1,0.3,0.1,0.6c0,0.1,0,0.4-0.1,0.8c-0.1,1.4-0.2,2.3-0.2,2.6c-0.1,0.4-0.1,0.5-0.3,0.6
			c-0.2,0.1-0.5,0.3-0.8,0.6l-0.5,0.6h5v-0.5c0-0.2,0-0.4-0.1-0.4c0-0.1-0.1-0.1-0.3-0.1c-0.2,0-0.4,0-0.4-0.1
			c0-0.1-0.1-0.1-0.2-0.1c-0.1,0-0.2-0.1-0.3-0.3c0-0.1,0-0.4,0-1.2c0-1.2,0-2.1,0.1-2.8c0-0.1,0.5-0.1,1.4-0.1
			c0.8,0,1.3,0.1,1.5,0.2c0.3,0.1,0.4,0.4,0.4,0.9c0,0.3,0,0.5,0.1,0.5c0.1,0,0.1-0.1,0.3-0.2c0.1-0.1,0.3-0.2,0.5-0.1
			c0.2,0.1,0.3,0,0.3-0.2c0-0.2,0-0.3,0.1-0.4c0.1-0.1,0.1-0.2,0-0.2c-0.1-0.1-0.2-0.3-0.2-0.6c0-0.4,0.1-0.7,0.2-0.8
			c0.1-0.1,0.1-0.1,0.1-0.2c0-0.1,0-0.1-0.1-0.2c-0.1-0.1-0.1-0.2-0.1-0.2c0-0.1,0-0.1,0.1-0.2c0.2-0.1,0.2-0.2,0.2-0.4
			c0-0.3-0.4-0.4-1.1-0.4c-0.4,0-0.6,0.2-0.6,0.5c0,0.1,0,0.2,0.1,0.3c0.1,0.2,0,0.4,0,0.5c-0.1,0.1-0.4,0.2-1,0.3
			c-0.6,0.1-1.1,0.2-1.6,0.2h-0.5v-0.6c0-0.4,0.1-0.6,0.2-0.7c0.1-0.1,0.2-0.2,0.2-0.4c0-0.3-0.1-0.5-0.2-0.8
			c-0.1-0.2-0.2-0.4-0.2-0.4c0-0.1,0.1-0.1,0.2-0.3c0.2-0.2,0.3-0.4,0.2-0.6c0-0.1,0-0.1,0-0.2c0-0.1,0.1-0.2,0.4-0.3
			c0.3-0.1,0.8-0.1,1.6-0.1c0.7,0,1.1-0.1,1.1-0.1c0.3,0,0.5,0.1,0.7,0.2c0.2,0.2,0.3,0.3,0.5,0.4c0.2,0.1,0.3,0.2,0.3,0.3
			c0,0.1,0.1,0.3,0.3,0.4c0.2,0.1,0.4,0.3,0.5,0.6c0.1,0.4,0.4,0.5,0.8,0.5c0.1,0,0.2,0,0.3-0.1c0.1-0.1,0.2-0.2,0.2-0.6
			c0-0.3-0.1-0.5-0.2-0.5C264.6,784.4,264.5,784.2,264.5,783.9z"/>
		<path d="M300.2,782.4c-0.1,0-0.3,0-0.5,0c-0.2,0-0.4,0-0.4,0c-0.4,0-0.6,0-0.7,0.1c-0.1,0-0.3,0.1-0.4,0.3
			c-0.2,0.2-0.3,0.3-0.3,0.4c0,0.1,0,0.1,0.2,0.2c0.3,0.2,0.5,0.2,0.7,0.2c0.3,0,0.4,0.1,0.5,0.3c0.1,0.2,0,0.3-0.1,0.4
			c-0.1,0-0.2,0.2-0.2,0.6c0,0.4-0.1,0.6-0.2,0.6c-0.2,0.1-0.2,0.2-0.2,0.4v0.4c0,0.6-0.1,0.9-0.3,0.9c-0.1,0-0.2,0.1-0.3,0.3
			c0,0.2-0.1,0.7-0.3,1.5c-0.1,0.4-0.2,0.6-0.4,0.6c-0.1,0-0.2,0.1-0.2,0.2c0,0.1,0,0.2-0.2,0.2c-0.3,0-0.4-0.1-0.5-0.2
			c-0.1-0.2-0.2-0.5-0.3-0.9c-0.1-0.4-0.2-1-0.2-1.7c-0.1-0.5-0.2-0.8-0.3-0.9c-0.1-0.1-0.1-0.4-0.1-0.7c0-0.3,0-0.5-0.1-0.5
			c-0.1,0-0.1-0.1-0.1-0.4c0-0.2-0.1-0.4-0.2-0.5c-0.1-0.1-0.2-0.1-0.2-0.2c0-0.1,0.2-0.2,0.6-0.2c0.4,0,0.7-0.1,0.9-0.3
			c0.1-0.1,0.2-0.2,0.2-0.3c0-0.1,0-0.2-0.1-0.4c-0.1-0.2-0.3-0.4-0.6-0.5c-0.3-0.1-0.8-0.1-1.6-0.1c-0.6,0-1-0.1-1-0.3
			c-0.1-0.2-0.1-0.3-0.2-0.3c-0.1,0-0.2,0.1-0.5,0.3c-0.3,0.2-0.4,0.3-0.5,0.3c-0.3,0-0.5,0.2-0.6,0.6v0.1l0,0.1
			c0,0.3,0.3,0.6,0.9,0.7c0.1,0,0.3,0.1,0.4,0.1c0.1,0.1,0.1,0.2,0.1,0.2s-0.1,0.1-0.2,0.1c-0.1,0-0.1,0.2-0.1,0.6
			c0,0.4-0.1,0.6-0.2,0.6c-0.1,0-0.1,0.2-0.1,0.5c0,0.7-0.2,1.1-0.5,1.2c-0.1,0-0.2,0.1-0.3,0.3c-0.1,0.2-0.1,0.7-0.3,1.5
			c-0.1,0.4-0.2,0.6-0.4,0.6c-0.2,0-0.2,0.1-0.2,0.2c0,0.1,0,0.2-0.2,0.2c-0.3,0-0.5-0.1-0.6-0.2c-0.1-0.2-0.2-0.5-0.2-0.9
			c0-0.6-0.1-0.9-0.2-1c-0.1-0.1-0.1-0.3-0.1-0.6c0-0.4-0.1-0.7-0.2-0.9c-0.1-0.3-0.2-0.5-0.1-0.8c0-0.3,0-0.5-0.1-0.5
			c-0.1,0-0.2-0.1-0.2-0.4c0-0.2-0.1-0.4-0.2-0.5c-0.1-0.1-0.2-0.1-0.2-0.2c0-0.1,0.2-0.2,0.6-0.2c0.4,0,0.7-0.1,0.9-0.3
			c0.1-0.1,0.2-0.2,0.2-0.3c0-0.1-0.1-0.2-0.2-0.4c-0.1-0.2-0.2-0.3-0.4-0.4c-0.2-0.1-0.5-0.1-0.9-0.1c-0.1,0-0.2,0-0.4,0
			c-0.2,0-0.4,0-0.5,0h-0.4c-0.3,0-0.4,0-0.5-0.1c-0.1,0-0.1-0.1-0.2-0.3c-0.1-0.2-0.1-0.4-0.3-0.4c-0.1,0-0.2,0.1-0.5,0.3
			c-0.2,0.2-0.4,0.3-0.5,0.3c-0.1,0-0.3,0.1-0.4,0.2c-0.1,0.1-0.2,0.3-0.2,0.4c0,0.4,0.3,0.7,0.9,0.8c0.5,0.1,0.9,0.6,1,1.6
			c0.1,0.4,0.2,0.6,0.3,0.8c0.1,0.1,0.2,0.4,0.2,0.7c0,0.3,0.1,0.5,0.2,0.6c0.4,0.4,0.5,1.1,0.5,1.9c0,0.4,0,0.6,0.1,0.7
			c0.1,0.1,0.1,0.2,0.1,0.4c0,0.2,0,0.3,0.1,0.4c0.1,0.1,0.2,0.3,0.2,0.8c0,0.4,0.1,0.6,0.2,0.6c0.1,0,0.2,0.2,0.2,0.5
			c0,0.3,0.1,0.5,0.2,0.5c0.1,0,0.2,0.1,0.3,0.4c0.1,0.3,0.3,0.5,0.6,0.5c0.1,0,0.3-0.1,0.4-0.2c0.1-0.1,0.2-0.3,0.2-0.4
			c0-0.3,0-0.4,0.1-0.4c0.1,0,0.2-0.1,0.2-0.4c0-0.3,0-0.5,0.1-0.5c0.1,0,0.2-0.2,0.2-0.5c0-0.3,0.1-0.6,0.3-0.9
			c0.2-0.3,0.4-0.5,0.6-0.6c0.2-0.1,0.3-0.3,0.3-0.6c0-0.4,0.1-0.6,0.2-0.6c0.1,0,0.2-0.2,0.2-0.5c0-0.3,0.1-0.6,0.2-0.8
			c0.1-0.2,0.2-0.4,0.1-0.5c-0.1-0.2,0.1-0.3,0.4-0.4c0.3-0.1,0.4-0.2,0.5-0.3c0.1,0,0.1,0.1,0.1,0.4c0,0.4,0.1,0.6,0.2,0.8
			c0.4,0.5,0.6,1.1,0.6,1.9c0,0.4,0,0.6,0.1,0.6c0.1,0,0.1,0.1,0.1,0.4c-0.1,0.2,0,0.4,0.1,0.5c0.1,0.1,0.2,0.3,0.2,0.8
			c0,0.4,0.1,0.6,0.2,0.6c0.2,0,0.2,0.2,0.2,0.5c0,0.3,0.1,0.5,0.2,0.5c0.1,0,0.2,0.1,0.3,0.4c0.1,0.3,0.3,0.5,0.6,0.5
			c0.1,0,0.3-0.1,0.4-0.2c0.1-0.1,0.2-0.3,0.2-0.4c0-0.3,0.1-0.4,0.2-0.4c0.1,0,0.1-0.1,0.1-0.4c0-0.3,0-0.5,0.1-0.5
			c0.1,0,0.2-0.2,0.2-0.5c0-0.3,0.1-0.6,0.3-1c0.2-0.4,0.4-0.6,0.5-0.6c0.1,0,0.2-0.2,0.2-0.6c0-0.5,0.1-0.7,0.2-0.7
			c0.1,0,0.2-0.2,0.2-0.5c0-0.3,0.1-0.6,0.2-0.8c0.1-0.2,0.2-0.4,0.2-0.6c0-0.1,0.1-0.2,0.4-0.3c0.3-0.1,0.4-0.2,0.4-0.3
			c0-0.1,0-0.1,0-0.2c0-0.1,0-0.1,0-0.2c0-0.6,0.1-0.9,0.3-0.9c0.1,0,0.1-0.1,0.2-0.4c0-0.3,0.1-0.4,0.2-0.4c0.1,0,0.2-0.1,0.2-0.2
			c0-0.1,0.1-0.2,0.4-0.2c0.3,0,0.5-0.1,0.6-0.2c0.1-0.1,0.2-0.3,0.2-0.6l0-0.4L300.2,782.4z"/>
		<path d="M322.4,792.9c-0.1,0-0.1-0.1-0.2-0.4c-0.1-0.2-0.1-0.3-0.2-0.3c0,0-0.3,0.1-0.8,0.2c0,0-0.1,0-0.2,0c-0.4,0-0.7-0.6-1-1.7
			c-0.2-0.8-0.4-1.3-0.4-1.4c-0.1-0.1-0.2-0.3-0.2-0.5c-0.1-0.4-0.3-1.3-0.8-2.8c-0.5-1.5-0.7-2.4-0.8-2.7c-0.2-1-0.4-1.5-0.5-1.7
			c-0.1-0.2-0.2-0.3-0.4-0.3c-0.3-0.1-0.4,0-0.5,0.1c-0.1,0.1-0.2,0.2-0.4,0.2c-0.2,0-0.4,0.1-0.4,0.2c0,0.1-0.1,0.1-0.2,0.1
			c-0.1,0-0.2,0.2-0.4,0.6c-0.2,0.4-0.3,0.8-0.5,1.2s-0.2,0.6-0.3,0.7c-0.1,0.1-0.1,0.2-0.1,0.4c0,0.2-0.1,0.6-0.4,1.2
			c-0.3,0.6-0.5,1.1-0.5,1.5c-0.1,0.4-0.2,0.6-0.2,0.7c-0.1,0.1-0.2,0.3-0.4,0.8c-0.2,0.5-0.3,0.7-0.3,0.8c-0.1,0.2-0.2,0.4-0.2,0.5
			c0,0.2,0,0.2-0.1,0.2s-0.2,0.1-0.3,0.4c-0.1,0.2-0.2,0.4-0.2,0.6c0,0.1-0.2,0.3-0.5,0.6c-0.3,0.3-0.5,0.4-0.7,0.4
			c-0.2,0-0.3,0.1-0.5,0.4c-0.2,0.2-0.4,0.4-0.5,0.4c-0.1,0-0.2,0.1-0.4,0.4c-0.1,0.2-0.1,0.3-0.1,0.4c0,0.1,0.1,0.3,0.4,0.5
			l0.5,0.4l2-0.1c1.1,0,1.8-0.1,2.1-0.1c0.3,0,0.5-0.1,0.5-0.2c0,0,0-0.1-0.1-0.2c-0.1-0.2-0.1-0.3,0.1-0.3c0.1,0,0.2-0.1,0.2-0.2
			c0-0.1-0.1-0.2-0.2-0.2c-0.1,0-0.3-0.1-0.4-0.2s-0.4-0.2-0.7-0.3c-0.5-0.1-0.7-0.3-0.7-0.5c0-0.1,0-0.2,0.1-0.3
			c0.1-0.2,0.2-0.3,0.2-0.5c0-0.1,0-0.2,0.1-0.2c0.1,0,0.1-0.2,0.1-0.7v-0.7h0.6c0.4,0,0.7-0.1,0.7-0.2c0.1-0.2,0.6-0.2,1.5-0.2h0.4
			c0.7,0,1,0,1.1,0.1c0.1,0.1,0.2,0.4,0.2,0.8c0,0.5,0.1,0.8,0.3,0.9c0.2,0.2,0.3,0.4,0.3,0.6c0,0,0,0,0,0.1c0,0,0,0.1,0,0.1
			c0,0.3-0.1,0.4-0.1,0.5c-0.1,0.1-0.3,0.1-0.6,0.2c-0.5,0.1-0.7,0.2-0.8,0.3c0,0.1-0.1,0.1-0.3,0.1c-0.2,0-0.3,0.1-0.3,0.3
			c0,0.3,0,0.4,0.1,0.5c0.1,0.1,0.3,0.1,0.6,0.1c0.3,0,0.7,0,1.3-0.1c0.6-0.1,1.3-0.1,2-0.1c0.4,0,0.7,0,0.8,0c0.2,0,0.4,0,0.6,0
			c0.3,0,0.5-0.1,0.5-0.3c0.1-0.2,0.1-0.3,0.2-0.3c0.1,0,0.1-0.2,0.1-0.5C322.6,793.1,322.5,792.9,322.4,792.9z M316.2,788.4
			c0,0-0.1,0-0.2,0c-0.1,0-0.1,0-0.1,0c-0.3,0-0.5,0.1-0.6,0.2c-0.1,0.1-0.3,0.2-0.4,0.2c-0.2,0-0.3-0.1-0.4-0.2
			c-0.1-0.1-0.2-0.2-0.3-0.2c-0.1,0-0.2-0.1-0.2-0.2c0-0.1,0-0.2,0.1-0.2c0.1,0,0.2-0.1,0.3-0.4c0.1-0.3,0.2-0.5,0.2-0.7
			c0-0.2,0.1-0.3,0.2-0.4c0.1,0,0.2-0.3,0.2-0.8c0.1-0.6,0.3-0.9,0.6-0.9c0.2,0,0.3,0.1,0.5,0.2c0.1,0.1,0.2,0.2,0.4,0.5
			c0.1,0.3,0.2,0.4,0.2,0.5c0,0-0.1,0.1-0.3,0.1c-0.2,0-0.3,0.1-0.4,0.2c-0.1,0.1,0,0.2,0.1,0.2c0.1,0,0.2,0.1,0.2,0.2
			c0.1,0.1,0.2,0.3,0.2,0.4c0.1,0.2,0.1,0.2,0.2,0.3c0.1,0.1,0.1,0.3,0.2,0.6l0.1,0.5L316.2,788.4z"/>
		<path d="M342.6,782c-0.1,0-0.2,0-0.3,0.1c-0.2,0.1-0.3,0.1-0.3,0.1c-0.1,0-0.1-0.1-0.2-0.2c-0.1-0.2-0.3-0.3-0.4-0.3
			c-0.1,0-0.2-0.1-0.2-0.3c0-0.2-0.1-0.3-0.3-0.3c-0.2,0-0.3,0.1-0.3,0.3c0,0.2,0.1,0.3,0.2,0.3c0.1,0,0.2,0.1,0.2,0.3
			c0,0.2-0.1,0.3-0.2,0.3c-0.2,0-0.3-0.1-0.3-0.4c-0.1-0.2-0.2-0.4-0.3-0.4c-0.1,0-0.1,0-0.2,0.1c-0.2,0.2-0.2,0.3,0,0.3
			c0.1,0,0.2,0.1,0.2,0.1c0,0.1-0.1,0.2-0.4,0.2c-0.2,0-0.4,0-0.4-0.1c0-0.1-0.1-0.1-0.4-0.1c-0.4,0-0.8,0.1-1.1,0.2
			c-0.4,0.2-0.6,0.4-0.6,0.7c0,0.3,0.3,0.5,0.8,0.6c0.4,0.1,0.6,0.1,0.6,0.2c0,0.1,0.1,0.1,0.3,0.1c0.3,0,0.5,0.2,0.6,0.6
			c0.1,0.4,0.2,1.2,0.2,2.4c0,1.4,0.1,2.2,0.1,2.4c0.1,0.1,0,0.3,0,0.6l-0.1,0.4l-0.5-0.5c-0.4-0.3-0.5-0.5-0.5-0.6
			c0-0.1-0.1-0.2-0.2-0.3c-0.1-0.1-0.3-0.2-0.4-0.4c-0.2-0.1-0.3-0.2-0.3-0.2c-0.1-0.1-0.3-0.2-0.3-0.2c-0.1,0-0.2-0.1-0.2-0.2
			c0-0.1-0.1-0.2-0.2-0.3c-0.1-0.1-0.3-0.2-0.4-0.2c-0.1,0-0.1-0.1-0.1-0.2c0-0.1-0.1-0.2-0.2-0.2c-0.1,0-0.1,0-0.1-0.1
			c0-0.1-0.1-0.2-0.4-0.5c-0.2-0.3-0.4-0.4-0.4-0.5c0-0.1-0.1-0.2-0.3-0.2c-0.2,0-0.3-0.1-0.5-0.2c-0.2-0.1-0.2-0.3-0.2-0.4
			c0-0.1-0.2-0.3-0.5-0.7c-0.3-0.4-0.5-0.6-0.5-0.7c0-0.1-0.1-0.2-0.3-0.4c-0.2-0.2-0.3-0.4-0.3-0.4c0-0.3-0.6-0.5-1.8-0.6
			c-0.6,0-0.9-0.1-0.9-0.1c-0.3,0-0.4,0.1-0.4,0.2c0,0.1,0,0.2,0,0.4c0,0.2,0,0.4,0.1,0.6c0.1,0.2,0.1,0.3,0.2,0.3
			c0.1,0,0.2,0.2,0.3,0.6c0.1,0.4,0.2,0.6,0.2,0.6c0.1,0,0.1,0.3,0.1,0.8c0,0.5,0,0.8-0.1,0.8c-0.1,0-0.1,0.1-0.1,0.4
			c0,0.2,0.1,0.6,0.2,1c0.1,0.2,0.1,0.6,0.1,1.1c0,0.7-0.1,1.1-0.2,1.1c-0.1,0-0.1,0.2-0.1,0.7c0,0.5,0,1.1-0.1,1.5
			c0,0.4-0.1,0.6-0.1,0.7c-0.1,0.1-0.2,0.2-0.4,0.2c-0.3,0.1-0.4,0.2-0.4,0.4c0,0.2,0.1,0.4,0.4,0.6c0.2,0.2,0.3,0.3,0.5,0.3
			c0.2,0,0.8,0,1.7,0c1,0,1.6,0,1.8-0.1c0.2-0.1,0.3-0.3,0.3-0.8c0-0.3-0.1-0.4-0.3-0.5c-0.2-0.1-0.3-0.1-0.3-0.2
			c0-0.1-0.2-0.1-0.6-0.1c-0.4,0-0.7-0.1-0.9-0.3c-0.2-0.2-0.2-0.3-0.1-0.4c0.1-0.1,0.2-0.2,0.2-0.6c0-0.3,0-0.5-0.1-0.5
			c-0.1-0.1-0.1-0.9-0.1-2.6c0-1.7,0.1-2.5,0.2-2.5c0.1,0,0.3,0.1,0.4,0.2c0.1,0.1,0.3,0.2,0.5,0.3c0.3,0.1,0.4,0.3,0.5,0.4
			s0.3,0.5,0.8,1.1c0.5,0.5,0.9,0.9,1.3,1.1c0.2,0.1,0.3,0.2,0.3,0.3c0,0.1,0.2,0.2,0.5,0.6c0.7,0.7,1.1,1.1,1.1,1.4
			c0,0.1,0.1,0.1,0.3,0.1c0.2,0,0.3,0,0.3,0.1c0,0.1,0.1,0.3,0.4,0.5c0.2,0.2,0.4,0.4,0.4,0.6c0,0.1,0.1,0.3,0.3,0.5
			c0.2,0.2,0.3,0.3,0.4,0.3c0.1,0,0.3,0.2,0.6,0.5c0.3,0.3,0.5,0.5,0.7,0.6c0.1,0.1,0.2,0.1,0.3,0.1c0.4,0,0.6-0.2,0.6-0.6
			c0-0.1,0-0.2,0-0.4c0-0.9-0.1-1.4-0.2-1.6c-0.1-0.1-0.1-0.5-0.1-1.3v-0.4c0-1,0-1.6-0.1-1.6c-0.1-0.1-0.2-0.4-0.2-1
			c0-0.5,0-0.8,0.1-0.8c0.1-0.1,0.2-0.2,0.2-0.5s0-0.4,0.1-0.4c0.1,0,0.1-0.1,0.1-0.4c0-0.3,0-0.4-0.1-0.4c-0.1,0-0.1-0.1-0.1-0.4
			c0-0.4,0.1-0.7,0.2-1c0.2-0.3,0.4-0.5,0.7-0.5c0.2,0,0.4-0.1,0.4-0.1c0.1,0,0.1-0.2,0.1-0.5v-0.2C342.9,782.3,342.8,782,342.6,782
			z"/>
		<path d="M362.1,785.5c0-0.2-0.1-0.3-0.2-0.5c-0.2-0.2-0.3-0.3-0.4-0.3c-0.1,0-0.2-0.1-0.2-0.2c0-0.1-0.1-0.3-0.3-0.6
			c-0.2-0.2-0.3-0.3-0.4-0.3c-0.1,0-0.2-0.1-0.2-0.2c0-0.1-0.1-0.2-0.3-0.3c-0.2-0.1-0.3-0.1-0.3-0.2c0-0.1-0.1-0.1-0.4-0.1
			c-0.2,0-0.3-0.1-0.6-0.2c-0.2-0.1-0.4-0.2-0.5-0.2c-0.2,0-0.3,0-0.3-0.1c0-0.1-0.1-0.1-0.4-0.1c-0.2,0-0.3,0-0.4-0.1
			c-0.1-0.1-0.2-0.1-0.2-0.1c-0.1,0-0.2,0-0.4,0.1c-0.3,0.1-0.6,0.2-1,0.2c-0.2,0-0.4,0-0.4-0.1c-0.1,0-0.1-0.1-0.1-0.2
			c0-0.2-0.1-0.3-0.2-0.3c-0.1,0-0.2,0-0.3,0.2c-0.1,0.1-0.1,0.1-0.2,0c-0.2-0.3-0.3-0.2-0.4,0.1c-0.1,0.2-0.2,0.3-0.4,0.2
			c-0.2-0.1-0.5-0.2-1-0.2c-0.4,0-0.7-0.1-0.8-0.2c0-0.1-0.1-0.1-0.3,0.1c-0.2,0.1-0.3,0.1-0.3,0c-0.1-0.1-0.2-0.2-0.5-0.2
			c-0.2,0-0.4,0-0.4,0.1c0,0.1-0.1,0.1-0.3,0.1c-0.1,0-0.2,0-0.2,0.1c0,0.1-0.1,0.3-0.1,0.5c0,0.3,0,0.5,0.1,0.6
			c0,0.1,0.2,0.2,0.3,0.3c0.2,0.1,0.3,0.1,0.4,0.1c0,0,0.1,0,0.1,0c0.1,0,0.1,0,0.1,0c0.1,0,0.2,0,0.3,0.1c0.2,0.1,0.4,0.4,0.4,0.8
			c0,0.4,0,0.6-0.1,0.6c-0.1,0-0.1,0.3-0.1,0.9c0,0.6,0,0.8,0.1,0.8c0.1,0,0.1,0.1,0.1,0.4c0,0.2,0,0.4-0.1,0.5
			c-0.1,0.1-0.1,1-0.2,2.8l-0.1,2.7l-0.5,0c-0.4,0-0.6,0.2-0.8,0.4c-0.2,0.2-0.3,0.4-0.3,0.5c0,0.1,0.1,0.2,0.4,0.4
			c0.3,0.2,0.5,0.2,0.7,0.2c0.1,0,0.2,0,0.2-0.1c0-0.1,0.3-0.1,0.8-0.1c0.5,0,0.8,0,0.8,0.1c0,0.1,0.9,0.2,2.6,0.2
			c1.1,0,1.7,0,1.8-0.1c0.1-0.1,0.4-0.2,0.7-0.2c0.4-0.1,0.8-0.2,1.3-0.5c0.5-0.2,0.8-0.4,1-0.4c0.2,0,0.3-0.1,0.4-0.4
			c0.1-0.3,0.3-0.6,0.7-1.1c0.4-0.4,0.6-0.7,0.6-0.8c0-0.1,0-0.2,0.1-0.2c0.1,0,0.1-0.1,0.1-0.3c0-0.2,0.1-0.4,0.2-0.5
			c0.1-0.1,0.1-0.8,0.1-2c0-1.4-0.1-2.1-0.2-2.2C362.1,785.8,362.1,785.7,362.1,785.5z M360,789.7c-0.1,0.1-0.2,0.2-0.2,0.5
			c0,0.3-0.1,0.4-0.2,0.6c-0.3,0.3-0.5,0.6-0.6,1c-0.1,0.2-0.1,0.2-0.2,0.2c-0.1,0-0.3,0.2-0.7,0.5c-0.4,0.3-0.7,0.5-0.9,0.5
			c-0.2,0-0.3,0.1-0.4,0.2c-0.1,0.1-0.1,0.1-0.2,0c-0.1-0.1-0.1-0.2-0.3-0.2c-0.1,0-0.2,0.1-0.3,0.2c0,0.1-0.3,0.1-0.9,0.1
			c-0.6,0-1.1,0-1.6,0c-0.2,0-0.2-0.1-0.2-0.4c0-0.2-0.1-0.4-0.2-0.4s-0.2,0-0.2-0.1c0-0.1,0.1-0.1,0.2-0.2c0.1-0.1,0.2-0.2,0.2-0.3
			c0-0.1,0.1-0.2,0.2-0.2c0.1,0,0.1-0.1,0.2-0.4c0.1-0.2,0.1-0.5,0.1-0.8c0-0.1,0-0.3-0.1-0.5c0,0,0,0,0-0.1s0-0.1,0-0.1
			c0-0.2,0.1-0.4,0.2-0.6l0.2-0.4c0,0-0.1-0.1-0.2-0.1c-0.1,0-0.2-0.3-0.2-0.8c0-0.5,0-1,0-1.5c0-1.4,0.1-2.2,0.1-2.4
			c0-0.3,0.1-0.5,0.4-0.8c0.2-0.2,0.4-0.3,0.6-0.3c0.1,0,0.2,0,0.3,0c0.1,0,0.3,0,0.7,0.1c0.4,0,0.7,0.1,1,0.1
			c0.3,0.1,0.4,0.1,0.5,0.2c0.1,0.1,0.2,0.2,0.4,0.2c0.2,0,0.4,0.1,0.4,0.3c0.1,0.2,0.2,0.3,0.3,0.3c0.2,0,0.2,0,0.2,0.1
			s0.1,0.2,0.3,0.2c0.2,0.1,0.3,0.2,0.3,0.3c0,0.1,0.1,0.3,0.2,0.4c0.1,0.1,0.2,0.4,0.3,0.9c0,0.4,0.1,0.7,0.2,0.8
			c0.1,0.1,0.1,0.5,0.1,1.3S360,789.7,360,789.7z"/>
		<path d="M377.8,789.5c0-0.6-0.1-0.9-0.2-1.1c-0.1-0.2-0.3-0.4-0.6-0.5c-0.3-0.1-0.5-0.3-0.5-0.4c-0.1-0.1-0.3-0.3-0.9-0.6
			c-0.5-0.3-1-0.5-1.3-0.6c-0.2-0.1-0.5-0.2-0.9-0.5c-0.4-0.3-0.6-0.4-0.6-0.5c0-0.1-0.1-0.2-0.2-0.3c-0.2-0.1-0.2-0.2-0.2-0.3
			c0,0,0-0.1,0-0.1c0.1-0.1,0.1-0.2,0.1-0.3s0-0.3-0.1-0.6c0-0.1,0-0.2,0-0.2c0,0,0.2-0.1,0.3-0.1c0.3,0,0.4-0.1,0.4-0.2
			c0-0.1,0.1-0.2,0.4-0.4c0.3-0.2,0.4-0.3,0.4-0.3c0-0.1,0.1-0.1,0.4-0.2c0.1,0,0.1,0,0.2,0c0.4,0,0.8,0.2,1.2,0.5
			c0.5,0.3,0.7,0.6,0.7,0.9c0,0.2,0.1,0.4,0.3,0.5c0.2,0.1,0.3,0.3,0.3,0.4s0.1,0.3,0.2,0.5s0.3,0.3,0.4,0.3c0,0,0,0,0.1,0
			c0.1-0.1,0.1-0.7,0.2-2v-0.8c0-0.6-0.1-0.9-0.2-0.9c-0.1,0-0.1,0-0.1,0c-0.3,0.1-0.6,0.2-0.8,0.2c-0.3,0-0.6-0.1-1-0.3
			c-0.4-0.2-0.6-0.3-0.7-0.3c0,0-0.1,0-0.2,0.1c-0.3,0.1-0.6,0.1-0.8,0.1c-0.3,0-0.4,0-0.5,0.1c0,0.1-0.1,0.2-0.3,0.2
			c-0.2,0-0.4-0.1-0.5-0.2c-0.1-0.1-0.3-0.2-0.5-0.2h0c-0.1,0-0.1,0-0.1,0c-0.1,0-0.1,0-0.1,0c0,0,0.1,0,0.1,0
			c0.1,0.1,0.2,0.1,0.2,0.2c0,0.2-0.2,0.3-0.5,0.4c-0.3,0.1-0.4,0.2-0.4,0.4c0.1,0.2,0,0.3-0.2,0.4c-0.3,0.1-0.6,0.5-1.1,1.1
			c-0.1,0.2-0.2,0.4-0.2,0.6c0,0,0,0.3,0.1,0.8c0.1,0.7,0.3,1.1,0.4,1.3c0.1,0.2,0.4,0.4,0.7,0.7c0.4,0.3,0.6,0.4,0.8,0.4
			c0.1,0,0.3,0.1,0.6,0.4c0.4,0.3,0.9,0.6,1.7,0.8c0.5,0.1,0.8,0.3,1.1,0.6c0.2,0.2,0.3,0.4,0.5,0.7c0.1,0.3,0.2,0.5,0.2,0.7
			c0,0.1,0,0.1-0.1,0.2c-0.1,0-0.1,0.2-0.1,0.4c0.1,0.2,0,0.4-0.2,0.6c-0.1,0.1-0.2,0.3-0.2,0.4c0,0.2-0.5,0.4-1.4,0.5
			c-0.1,0-0.3,0-0.6,0c-0.9,0-1.7-0.4-2.2-1.2c-0.3-0.4-0.5-0.8-0.5-1c0,0,0-0.1,0-0.2c0-0.1,0-0.2,0-0.2c0,0-0.1-0.1-0.1-0.1
			c-0.1,0-0.1,0-0.1-0.1c0.1-0.3-0.1-0.5-0.4-0.6c-0.1,0-0.2-0.1-0.3-0.1c-0.3,0-0.4,0.2-0.5,0.5c-0.1,1.2-0.1,1.9-0.2,1.9
			c-0.1,0.1-0.1,0.4-0.2,0.8c0,0.1,0,0.3,0,0.4c0,0.2,0.1,0.4,0.3,0.6c0.1,0.1,0.2,0.2,0.3,0.2c0,0,0.1,0,0.2-0.2
			c0.1-0.2,0.2-0.3,0.2-0.4c0-0.3,0.2-0.3,0.5-0.1c0.9,0.5,1.8,0.7,2.9,0.7c0.5,0,1.1-0.1,1.6-0.2c0.6-0.1,1.1-0.3,1.4-0.6
			c0.3-0.3,0.5-0.5,0.5-0.5c0-0.1,0.1-0.2,0.2-0.3c0.2-0.1,0.3-0.4,0.3-0.9c0.1-0.5,0.1-0.7,0.2-0.7c0.1,0,0.1,0,0-0.1
			C377.9,790.6,377.8,790.2,377.8,789.5z M373.4,788C373.3,788,373.3,787.9,373.4,788c-0.1-0.1-0.1-0.1,0-0.1S373.5,787.9,373.4,788
			C373.5,787.9,373.4,788,373.4,788z"/>
		<path d="M371.9,788.7c0-0.1,0-0.2-0.1-0.2c-0.1,0-0.1,0-0.1,0.1l0.1,0.2C371.8,789,371.9,788.9,371.9,788.7z"/>
		<polygon points="51.7,808.8 44,814 41.2,799.9 38.4,814 30.7,808.8 35.9,816.5 21.8,819.3 35.9,822 30.7,829.8 38.4,824.6 
			41.2,838.6 43.9,824.6 51.7,829.8 46.5,822 60.5,819.3 46.5,816.5 		"/>
		<polygon points="468.1,816.5 473.3,808.8 465.5,814 462.8,799.9 460,814 452.3,808.8 457.5,816.5 443.4,819.3 457.5,822 
			452.3,829.8 460,824.6 462.8,838.6 465.5,824.6 473.3,829.8 468.1,822 482.1,819.3 		"/>
		<polygon points="30.7,57.5 38.4,52.3 41.2,66.4 44,52.3 51.7,57.5 46.5,49.8 60.5,47 46.5,44.3 51.7,36.5 43.9,41.7 41.2,27.7 
			38.4,41.7 30.7,36.5 35.9,44.3 21.8,47 35.9,49.8 		"/>
		<polygon points="473.3,36.5 465.5,41.7 462.8,27.7 460,41.7 452.3,36.5 457.5,44.3 443.4,47 457.5,49.8 452.3,57.5 460,52.3 
			462.8,66.4 465.5,52.3 473.3,57.5 468.1,49.8 482.1,47 468.1,44.3 		"/>
		<path d="M257.3,707.4c0-5.1-5.5-40-5.5-40s-5.5,34.9-5.5,40c0,5.1,2.5,6.7,5.5,6.7C254.9,714.2,257.3,712.5,257.3,707.4z"/>
		<path d="M146.8,193c0.9,0.4,1.8,0.8,2.7,1.2c0.5,0.2,1.1,0.5,1.6,0.7c0.1,0.1,0.2,0.1,0.2,0.1c0,0,0,0,0,0.1
			c1,1.7,1.2,4.2,1.8,6.1c0.1,0.4,0.7,0.4,0.8,0c0.6-1.9,0.9-4.4,1.8-6.1c0,0,0,0,0-0.1c0,0,0.1,0,0.1-0.1c0.5-0.3,1.2-0.5,1.7-0.8
			c0.9-0.4,1.8-0.8,2.7-1.2c0.4-0.2,0.2-0.6-0.1-0.7c-0.9-0.4-1.8-0.8-2.7-1.1c-1.1-0.5-1.7-0.5-2-1.5c-0.6-1.9-1.1-3.9-1.6-5.9
			c0,0,0,0,0-0.1c0,0,0,0,0-0.1c-0.1-0.1-0.2-0.2-0.3-0.2c-0.1,0-0.3,0-0.3,0.2c0,0,0,0.1,0,0.1c0,0,0,0,0,0c0,0,0,0,0,0
			c0,0,0,0,0,0c-0.5,1.9-1,3.9-1.5,5.9c-0.5,1.5-3.3,2.1-4.7,2.7C146.7,192.4,146.5,192.9,146.8,193z M152.3,190.5
			c0.6-1,0.7-2.7,1-3.7c0.1-0.5,0.2-0.9,0.4-1.4c0.1,0.5,0.3,0.9,0.4,1.4c0.3,1.1,0.4,2.7,1,3.7c0.6,1.1,2.7,1.7,4.2,2.2
			c-0.7,0.3-1.5,0.7-2.2,1c-0.6,0.3-1.5,0.5-1.9,1c-0.6,0.8-0.7,2.4-1,3.4c-0.2,0.6-0.3,1.1-0.5,1.7c-0.2-0.6-0.3-1.1-0.5-1.7
			c-0.3-0.9-0.4-2.6-1-3.4c-0.4-0.6-1.2-0.7-1.9-1c-0.7-0.3-1.5-0.7-2.2-1C149.6,192.2,151.6,191.6,152.3,190.5z"/>
		<path d="M243.4,193c0.9,0.4,1.8,0.8,2.7,1.2c0.5,0.2,1.1,0.5,1.6,0.7c0.1,0.1,0.2,0.1,0.2,0.1c0,0,0,0,0,0.1
			c1,1.7,1.2,4.2,1.8,6.1c0.1,0.4,0.7,0.4,0.8,0c0.6-1.9,0.9-4.4,1.8-6.1c0,0,0,0,0-0.1c0,0,0.1,0,0.1-0.1c0.5-0.3,1.2-0.5,1.7-0.8
			c0.9-0.4,1.8-0.8,2.7-1.2c0.4-0.2,0.2-0.6-0.1-0.7c-0.9-0.4-1.8-0.8-2.7-1.1c-1.1-0.5-1.7-0.5-2-1.5c-0.6-1.9-1.1-3.9-1.6-5.9
			c0,0,0,0,0-0.1c0,0,0,0,0-0.1c-0.1-0.1-0.2-0.2-0.3-0.2c-0.1,0-0.3,0-0.3,0.2c0,0,0,0.1,0,0.1c0,0,0,0,0,0c0,0,0,0,0,0
			c0,0,0,0,0,0c-0.5,1.9-0.9,3.9-1.5,5.9c-0.5,1.5-3.3,2.1-4.7,2.7C243.2,192.4,243,192.9,243.4,193z M248.8,190.5
			c0.6-1,0.7-2.7,1-3.7c0.1-0.5,0.2-0.9,0.4-1.4c0.1,0.5,0.3,0.9,0.4,1.4c0.3,1.1,0.4,2.7,1,3.7c0.6,1.1,2.7,1.7,4.2,2.2
			c-0.7,0.3-1.5,0.7-2.2,1c-0.6,0.3-1.5,0.5-1.9,1c-0.6,0.8-0.7,2.4-1,3.4c-0.2,0.6-0.3,1.1-0.5,1.7c-0.2-0.6-0.3-1.1-0.5-1.7
			c-0.3-0.9-0.4-2.6-1-3.4c-0.4-0.6-1.2-0.7-1.9-1c-0.7-0.3-1.5-0.7-2.2-1C246.2,192.2,248.2,191.6,248.8,190.5z"/>
		<path d="M339.9,193c0.9,0.4,1.8,0.8,2.7,1.2c0.5,0.2,1.1,0.5,1.6,0.7c0.1,0.1,0.2,0.1,0.2,0.1c0,0,0,0,0,0.1
			c1,1.7,1.2,4.2,1.8,6.1c0.1,0.4,0.7,0.4,0.8,0c0.6-1.9,0.9-4.4,1.8-6.1c0,0,0,0,0-0.1c0,0,0.1,0,0.1-0.1c0.5-0.3,1.2-0.5,1.7-0.8
			c0.9-0.4,1.8-0.8,2.7-1.2c0.4-0.2,0.2-0.6-0.1-0.7c-0.9-0.4-1.8-0.8-2.7-1.1c-1.1-0.5-1.7-0.5-2-1.5c-0.6-1.9-1.1-3.9-1.6-5.9
			c0,0,0,0,0-0.1c0,0,0,0,0-0.1c-0.1-0.1-0.2-0.2-0.3-0.2c-0.1,0-0.3,0-0.3,0.2c0,0,0,0.1,0,0.1c0,0,0,0,0,0c0,0,0,0,0,0
			c0,0,0,0,0,0c-0.5,1.9-0.9,3.9-1.5,5.9c-0.5,1.5-3.3,2.1-4.7,2.7C339.8,192.4,339.6,192.9,339.9,193z M345.4,190.5
			c0.6-1,0.7-2.7,1-3.7c0.1-0.5,0.3-0.9,0.4-1.4c0.1,0.5,0.3,0.9,0.4,1.4c0.3,1.1,0.4,2.7,1,3.7c0.6,1.1,2.7,1.7,4.2,2.2
			c-0.7,0.3-1.5,0.7-2.2,1c-0.6,0.3-1.5,0.5-1.9,1c-0.6,0.8-0.7,2.4-1,3.4c-0.2,0.6-0.3,1.1-0.5,1.7c-0.2-0.6-0.3-1.1-0.5-1.7
			c-0.3-0.9-0.4-2.6-1-3.4c-0.4-0.6-1.2-0.7-1.9-1c-0.7-0.3-1.5-0.7-2.2-1C342.7,192.2,344.7,191.6,345.4,190.5z"/>
		<path d="M165.9,615c0-0.4-0.4-0.8-0.8-0.8c-0.9,0-1.8,0-2.7,0c0-4.2,0-8.3,0.1-12.5c0-0.4-0.4-0.8-0.8-0.8c-0.2,0-0.4,0-0.6,0
			c0.3-40.6,0.9-81.3,1.1-121.9c0.4,0,0.9,0,1.3,0c0.1,0,0.3,0,0.4-0.1c0.3-0.1,0.5-0.3,0.4-0.7c-0.1-1.9-0.5-4.6-1.7-6.4
			c0.1-16.9-0.2-33.8-0.2-50.7c0-0.2-0.1-0.4-0.2-0.5c1.8-1.9,2.3-5.6,2.4-7.9c0-0.4-0.4-0.8-0.8-0.8c-0.3,0-0.6,0-0.9,0
			c0.2-37.7,0-75.4,0.1-113.1c0-0.2-0.1-0.4-0.2-0.5c0.5,0,1,0,1.5,0c0.9,0,2.6,0.2,3.3-0.5c1-0.9,0.8-4.8,0.3-5.9
			c-0.5-1.2-2.1-2.1-3.4-2.8c-0.1-2.7-0.4-8.1-3.1-9.9c5-5.9,3.3-15-3.1-18.3c7.1-2.1,12.3-8.7,12.4-16.5c0-1.6-0.2-3.2-0.6-4.8
			c-2.1,7.3-8.9,12.6-16.8,12.5c-8-0.1-14.6-5.5-16.6-12.8c-0.4,1.5-0.7,3.1-0.7,4.7c-0.1,7.9,5.1,14.5,12.2,16.8
			c-6.4,3.2-8.2,12.3-3.2,18.2c-2.7,1.8-3,7.2-3.2,9.9c0,0,0,0,0,0c-0.1,0.1-0.3,0.2-0.4,0.3c-2.6,1.6-3.9,2.8-3.3,6.3
			c0.4,2.2,2.9,2.6,5.3,2.6c-0.2,37.9-0.8,75.7-1.1,113.6c-0.3,0-0.6,0-0.9,0c-0.1,0-0.3,0-0.4,0.1c-0.3,0.1-0.4,0.3-0.4,0.7
			c0.2,2.4,0.5,5.9,2.3,7.9c-0.2,0.1-0.3,0.3-0.3,0.6c-0.1,16.9-0.6,33.8-0.7,50.8c0,0,0,0.1,0,0.1c-1.1,1.8-1.5,4.3-1.7,6.3
			c0,0.4,0.4,0.8,0.8,0.8c0.4,0,0.8,0,1.2,0c-0.2,40.6,0,81.3-0.2,121.9c-0.2,0-0.3,0-0.5,0c-0.2,0-0.4,0.1-0.5,0.2c0,0,0,0,0,0
			c0,0,0,0,0,0.1c-0.1,0.1-0.2,0.3-0.2,0.5c0,4.2,0,8.3-0.1,12.5c-0.9,0-1.8,0-2.7,0c-0.2,0-0.4,0.1-0.5,0.2c0,0,0,0,0,0
			c0,0,0,0,0,0.1c-0.1,0.1-0.2,0.3-0.2,0.5c0,3,0,5.9,0,8.9c0,0.4,0.4,0.8,0.8,0.8c0.4,0,0.9,0,1.3,0c0.2,3.2,0.7,9.2,4.4,10.2
			c0.8,0.2,1.8,0.3,2.7,0.3c-2.2,3.8,0,9.1,4.9,9.1c4.9,0,7.1-5.2,5-9c1,0,2.1-0.1,2.9-0.3c3.6-1.1,4.1-7,4.3-10.1
			c0.4,0,0.9,0,1.3,0c0.4,0,0.8-0.4,0.8-0.8C165.9,620.9,165.9,618,165.9,615z M151.5,261.5c0.7,0.1,1.4,0.1,2.1,0.1
			c0.7,0,1.5,0,2.2-0.1c7.3,1.6,9.9,11.1,4.7,16.8c-0.1,0.1-0.1,0.2-0.2,0.2c-2.1-0.5-4.8,0-6.8,0c-1.9,0-4.6-0.5-6.7-0.1
			c0,0,0,0,0,0C141.5,272.7,144,263,151.5,261.5z M147.5,280.1c1.9-0.2,4,0,6,0c1.9,0,4.1-0.3,6,0c3.1,0.5,3.5,5.1,3.7,8.1
			c-3-1.6-6.3-2.9-9.7-3.1c-3.4,0.1-6.7,1.3-9.7,3C143.9,285.2,144.4,280.5,147.5,280.1z M140.7,296.1c-1.1-0.5-0.8-1.5-0.6-2.8
			c0.3-1.4,0.4-1.4,1.8-2.3c3.5-2.2,7.4-4.1,11.6-4.3c4.3,0.2,8.3,2.3,11.8,4.6c0.4,0.3,0.9,0.5,1.2,0.9c0,0,0.1,0.1,0.1,0.1
			c0,0,0,0.1,0,0.1c0.2,0.6,0.5,3.4,0.1,4.1c0-0.2-0.5,0.1-1,0.1c-0.9,0-1.8,0.1-2.7,0.1c-2.6,0.1-5.1,0.1-7.7,0.1
			c-2.8,0-5.6-0.1-8.3-0.2C145.3,296.5,142.3,296.9,140.7,296.1z M161.5,408.5l-17.3-0.1c0.2-31,0.6-62,0.9-93c0,0,0,0,0,0
			c2-7.4,14.5-7.8,16.4-0.1C161.5,346.4,161.6,377.5,161.5,408.5z M145.1,311.9c0-3.4,0-6.8,0.1-10.2l16.4,0.1c0,3.3,0,6.6,0,10
			C157.8,306.9,149,307,145.1,311.9z M142.5,413.3c6.8,0,13.7,0.1,20.5,0.1c-0.3,2.9-1,6.7-4.3,6.8c-2,0.1-4,0-6,0c-2,0-4,0.1-6,0
			C143.4,420,142.8,416.2,142.5,413.3z M161.1,470.3c-0.4-0.3-0.9-0.4-1.5-0.5c-2.3-0.3-4.8,0-7.1-0.1c-2.3,0-5-0.4-7.2,0
			c-0.6,0.1-1,0.3-1.5,0.6c0.1-16.3,0.6-32.6,0.7-48.9c0.3,0.2,0.6,0.3,1,0.4c2.3,0.4,4.9,0.1,7.2,0.1c2.3,0,5.2,0.5,7.5,0
			c0.2-0.1,0.4-0.1,0.7-0.2C160.9,437.8,161.2,454,161.1,470.3z M142.2,477.3c0.3-2.9,1.2-6,4.4-6.1c1.9-0.1,3.9,0,5.8,0
			c2,0,4-0.1,6,0c3.1,0.2,3.9,3.4,4.2,6.1C155.9,477.4,149,477.3,142.2,477.3z M159.7,587.1c0,3.5-0.1,7-0.1,10.5l-15.7-0.1
			c0-3.5,0-6.9,0-10.4C147.6,591.5,156,591.3,159.7,587.1z M144,583.9c0.1-33.8,0-67.7,0.1-101.5l16.6,0.1
			c-0.2,33.8-0.6,67.6-0.9,101.4C157.8,590.3,145.8,590.5,144,583.9z M161,602.5c0,3.8,0,7.5-0.1,11.3c-6.1,0-12.2-0.1-18.3-0.1
			c0-3.8,0-7.5,0.1-11.3C148.8,602.4,154.9,602.5,161,602.5z M151.6,642.6c-4,0-5.5-4.8-2.9-7.5c0,0,0,0,0-0.1c1-0.1,2-0.1,2.9-0.1
			c0.9,0,1.9,0.1,3,0.2c0,0,0.1,0.1,0.1,0.1C157.2,637.9,155.5,642.6,151.6,642.6z M158,633.3c-2.1,0.2-4.3,0-6.3,0
			c-2.1,0-4.4,0.3-6.5,0c-3.5-0.5-3.8-5.8-4-8.7c7,0,14,0.1,21,0.1C162,627.7,161.6,633,158,633.3z M164.3,619.5l-25.3-0.1
			c0-1.2,0-2.4,0-3.6c8.4,0,16.8,0.1,25.3,0.1C164.4,617,164.4,618.2,164.3,619.5z"/>
		<path d="M155,324.2c-0.9-0.9-1.3-4.4-1.9-4.4c-0.5,0-1,3.6-1.7,4.4c-0.7,0.8-3.2,1.2-3.2,1.7c0,0.5,2.4,0.8,3.2,1.6
			c0.8,0.8,1.3,4.4,1.9,4.4c0.5,0,0.9-3.5,1.7-4.4c0.9-0.9,3.2-1.1,3.2-1.7C158.3,325.3,155.9,325.1,155,324.2z"/>
		<path d="M155,339.5c-0.9-0.9-1.3-4.4-1.9-4.4c-0.5,0-1,3.6-1.7,4.4c-0.7,0.8-3.2,1.2-3.2,1.7c0,0.5,2.4,0.8,3.2,1.6
			c0.8,0.8,1.3,4.4,1.9,4.4c0.5,0,0.9-3.5,1.7-4.4c0.9-0.9,3.2-1.1,3.2-1.7C158.2,340.5,155.9,340.3,155,339.5z"/>
		<path d="M150.3,558.2c0.8,0.8,1.3,4.4,1.9,4.4c0.5,0,0.9-3.5,1.7-4.4c0.9-0.9,3.2-1.1,3.2-1.7c0-0.6-2.3-0.7-3.2-1.6
			c-0.9-0.9-1.3-4.4-1.9-4.4c-0.5,0-1,3.6-1.7,4.4c-0.7,0.8-3.2,1.2-3.2,1.7C147,557.1,149.5,557.4,150.3,558.2z"/>
		<path d="M150.2,573.4c0.8,0.8,1.3,4.4,1.9,4.4c0.5,0,0.9-3.5,1.7-4.4c0.9-0.9,3.2-1.1,3.2-1.7s-2.3-0.7-3.2-1.6
			c-0.9-0.9-1.3-4.4-1.9-4.4c-0.5,0-1,3.6-1.7,4.4c-0.7,0.8-3.2,1.2-3.2,1.7S149.4,572.6,150.2,573.4z"/>
		<path d="M149.7,454.9c0,2.8,1.3,3.7,2.8,3.7c1.6,0,2.9-0.9,2.9-3.7c0-2.8-2.7-22.1-2.7-22.1S149.7,452.1,149.7,454.9z"/>
		<polygon points="149.4,274.5 152.5,272.6 153.5,278 154.6,272.6 157.6,274.6 155.6,271.6 161.1,270.5 155.6,269.4 157.7,266.4 
			154.6,268.4 153.6,263 152.5,268.4 149.5,266.4 151.5,269.4 146,270.4 151.5,271.5 		"/>
		<path d="M255.4,622.6c6.4-3.2,8.2-12.3,3.2-18.2c2.7-1.8,3-7.2,3.2-9.9c0,0,0,0,0,0c0.1-0.1,0.3-0.2,0.4-0.3
			c2.6-1.6,3.9-2.8,3.3-6.3c-0.4-2.2-2.9-2.6-5.3-2.6c0.2-37.9,0.8-75.7,1.1-113.6c0.3,0,0.6,0,0.9,0c0.1,0,0.3,0,0.4-0.1
			c0.3-0.1,0.4-0.3,0.4-0.7c-0.2-2.4-0.5-5.9-2.3-7.9c0.2-0.1,0.3-0.3,0.3-0.6c0.1-16.9,0.6-33.8,0.7-50.8c0,0,0-0.1,0-0.1
			c1.1-1.8,1.5-4.3,1.7-6.3c0-0.4-0.4-0.8-0.8-0.8c-0.4,0-0.8,0-1.2,0c0.2-40.6,0-81.3,0.2-121.9c0.2,0,0.3,0,0.5,0
			c0.2,0,0.4-0.1,0.5-0.2c0,0,0,0,0,0c0,0,0,0,0-0.1c0.1-0.1,0.2-0.3,0.2-0.5c0-4.2,0-8.3,0.1-12.5c0.9,0,1.8,0,2.7,0
			c0.2,0,0.4-0.1,0.5-0.2c0,0,0,0,0,0c0,0,0,0,0-0.1c0.1-0.1,0.2-0.3,0.2-0.5c0-3,0-5.9,0-8.9c0-0.4-0.4-0.8-0.8-0.8
			c-0.4,0-0.9,0-1.3,0c-0.2-3.2-0.7-9.2-4.4-10.2c-0.8-0.2-1.7-0.3-2.7-0.3c2.2-3.8,0-9.1-4.9-9.1c-4.9,0-7.1,5.2-5,9
			c-1,0-2,0.1-2.9,0.3c-3.6,1.1-4.1,7-4.3,10.1c-0.4,0-0.9,0-1.3,0c-0.4,0-0.8,0.4-0.8,0.8c0,3,0,5.9,0,8.9c0,0.4,0.4,0.8,0.8,0.8
			c0.9,0,1.8,0,2.7,0c0,4.2,0,8.3-0.1,12.5c0,0.4,0.4,0.8,0.8,0.8c0.2,0,0.4,0,0.6,0c-0.3,40.6-0.9,81.3-1.1,121.9
			c-0.4,0-0.9,0-1.3,0c-0.1,0-0.3,0-0.4,0.1c-0.3,0.1-0.5,0.3-0.4,0.7c0.1,1.9,0.5,4.6,1.7,6.4c-0.1,16.9,0.2,33.8,0.2,50.7
			c0,0.2,0.1,0.4,0.2,0.5c-1.8,1.9-2.3,5.6-2.4,7.9c0,0.4,0.4,0.8,0.8,0.8c0.3,0,0.6,0,0.9,0c-0.2,37.7,0,75.4-0.1,113.1
			c0,0.2,0.1,0.4,0.2,0.5c-0.5,0-1,0-1.5,0c-0.9,0-2.6-0.2-3.3,0.5c-1,0.9-0.8,4.8-0.3,5.9c0.5,1.2,2.1,2.1,3.4,2.8
			c0.1,2.7,0.4,8.1,3.1,9.9c-5,5.9-3.3,15,3.1,18.3c-7.1,2.1-12.3,8.7-12.4,16.5c0,1.6,0.2,3.2,0.6,4.8c2.1-7.3,8.9-12.6,16.8-12.5
			c8,0.1,14.6,5.5,16.6,12.8c0.4-1.5,0.7-3.1,0.7-4.7C267.7,631.5,262.5,624.8,255.4,622.6z M252.3,240.9c4,0,5.5,4.8,2.9,7.5
			c0,0,0,0,0,0.1c-1,0.1-2,0.1-2.9,0.1c-0.9,0-1.9-0.1-3-0.2c0,0-0.1-0.1-0.1-0.1C246.7,245.5,248.4,240.9,252.3,240.9z
			 M245.9,250.1c2.1-0.2,4.3,0,6.3,0c2.1,0,4.4-0.3,6.5,0c3.5,0.5,3.8,5.8,4,8.7c-7,0-14-0.1-21-0.1
			C241.9,255.8,242.3,250.5,245.9,250.1z M239.5,267.7c0-1.2,0-2.4,0-3.6l25.3,0.1c0,1.2,0,2.4,0,3.6
			C256.4,267.7,248,267.7,239.5,267.7z M244.2,296.4c0-3.5,0.1-7,0.1-10.5L260,286c0,3.5,0,6.9,0,10.4
			C256.3,292,247.9,292.1,244.2,296.4z M259.9,299.6c-0.1,33.8,0,67.7-0.1,101.5l-16.6-0.1c0.2-33.8,0.6-67.6,0.9-101.4
			C246.1,293.2,258.1,293,259.9,299.6z M242.9,281c0-3.8,0-7.5,0.1-11.3c6.1,0,12.2,0.1,18.3,0.1c0,3.8,0,7.5-0.1,11.3
			C255.1,281.1,249,281,242.9,281z M241.2,406.1c6.8,0,13.7,0.1,20.5,0.1c-0.3,2.9-1.2,6-4.4,6.1c-1.9,0.1-3.9,0-5.8,0
			c-2,0-4,0.1-6,0C242.3,412,241.5,408.8,241.2,406.1z M260.1,413.2c-0.1,16.3-0.6,32.6-0.7,48.9c-0.3-0.2-0.6-0.3-1-0.4
			c-2.3-0.4-4.9-0.1-7.2-0.1c-2.3,0-5.2-0.5-7.5,0c-0.2,0.1-0.4,0.1-0.7,0.2c0-16.2-0.3-32.5-0.2-48.7c0.4,0.3,0.9,0.4,1.5,0.5
			c2.3,0.3,4.8,0,7.1,0.1c2.3,0,5,0.4,7.2,0C259.2,413.7,259.7,413.5,260.1,413.2z M240.8,470.1c0.3-2.9,1-6.7,4.3-6.8
			c2-0.1,4,0,6,0c2,0,4-0.1,6,0c3.3,0.2,4,4,4.2,6.9C254.5,470.1,247.7,470.1,240.8,470.1z M242.4,568.1c0-31.1-0.1-62.1,0.1-93.2
			l17.3,0.1c-0.2,31-0.6,62-0.9,93c0,0,0,0,0,0C256.8,575.5,244.3,575.8,242.4,568.1z M258.8,571.6c0,3.4,0,6.8-0.1,10.2l-16.4-0.1
			c0-3.3,0-6.6,0-10C246.1,576.6,254.9,576.5,258.8,571.6z M238.6,592.2c-0.4-0.3-0.9-0.5-1.2-0.9c0,0-0.1-0.1-0.1-0.1
			c0,0,0-0.1,0-0.1c-0.2-0.6-0.5-3.4-0.1-4.1c0,0.2,0.5-0.1,1-0.1c0.9,0,1.8-0.1,2.7-0.1c2.6-0.1,5.1-0.1,7.7-0.1
			c2.8,0,5.6,0.1,8.3,0.2c1.7,0.1,4.7-0.3,6.3,0.5c1.1,0.5,0.8,1.5,0.6,2.8c-0.3,1.4-0.4,1.4-1.8,2.3c-3.5,2.2-7.4,4.1-11.6,4.3
			C246.2,596.5,242.1,594.5,238.6,592.2z M240.7,595.2c3,1.6,6.3,2.9,9.7,3.1c3.4-0.1,6.7-1.3,9.7-3c-0.2,2.9-0.7,7.6-3.8,8
			c-1.9,0.2-4,0-6,0c-1.9,0-4.1,0.3-6,0C241.3,602.8,240.9,598.2,240.7,595.2z M250.4,621.8c-0.7,0-1.5,0-2.2,0.1
			c-7.3-1.6-9.9-11.1-4.7-16.8c0.1-0.1,0.1-0.2,0.2-0.2c2.1,0.5,4.8,0,6.8,0c1.9,0,4.6,0.5,6.7,0.1c0,0,0,0,0,0
			c5.3,5.7,2.7,15.4-4.7,16.9C251.7,621.9,251.1,621.9,250.4,621.8z"/>
		<path d="M252.4,555.9c-0.8-0.8-1.3-4.4-1.9-4.4c-0.5,0-0.9,3.5-1.7,4.4c-0.9,0.9-3.2,1.1-3.2,1.7s2.3,0.7,3.2,1.6
			c0.9,0.9,1.3,4.4,1.9,4.4c0.5,0,1-3.6,1.7-4.4c0.7-0.8,3.2-1.2,3.2-1.7C255.6,557,253.2,556.7,252.4,555.9z"/>
		<path d="M252.5,540.7c-0.8-0.8-1.3-4.4-1.9-4.4c-0.5,0-0.9,3.5-1.7,4.4c-0.9,0.9-3.2,1.1-3.2,1.7c0,0.6,2.3,0.7,3.2,1.6
			c0.9,0.9,1.3,4.4,1.9,4.4c0.5,0,1-3.6,1.7-4.4c0.7-0.8,3.2-1.2,3.2-1.7C255.7,541.8,253.3,541.5,252.5,540.7z"/>
		<path d="M253.6,325.3c-0.8-0.8-1.3-4.4-1.9-4.4c-0.5,0-0.9,3.5-1.7,4.4c-0.9,0.9-3.2,1.1-3.2,1.7c0,0.6,2.3,0.7,3.2,1.6
			c0.9,0.9,1.3,4.4,1.9,4.4c0.5,0,1-3.6,1.7-4.4c0.7-0.8,3.2-1.2,3.2-1.7C256.9,326.4,254.4,326.1,253.6,325.3z"/>
		<path d="M253.7,310.1c-0.8-0.8-1.3-4.4-1.9-4.4c-0.5,0-0.9,3.5-1.7,4.4c-0.9,0.9-3.2,1.1-3.2,1.7c0,0.6,2.3,0.7,3.2,1.6
			c0.9,0.9,1.3,4.4,1.9,4.4c0.5,0,1-3.6,1.7-4.4s3.2-1.2,3.2-1.7C256.9,311.2,254.5,310.9,253.7,310.1z"/>
		<path d="M251.3,424.8c-1.6,0-2.9,0.9-2.9,3.7c0,2.8,2.7,22.1,2.7,22.1s3-19.3,3-22.1S252.9,424.8,251.3,424.8z"/>
		<polygon points="257.9,613 252.4,611.9 254.5,608.9 251.4,610.9 250.4,605.5 249.3,610.9 246.3,608.9 248.3,611.9 242.8,612.9 
			248.3,614 246.2,617 249.3,615 250.3,620.5 251.4,615.1 254.4,617.1 252.4,614.1 		"/>
		<path d="M346.7,252.1c-8-0.1-14.6-5.5-16.6-12.8c-0.4,1.5-0.7,3.1-0.7,4.7c-0.1,7.9,5.1,14.5,12.2,16.8
			c-6.4,3.2-8.2,12.3-3.2,18.2c-2.7,1.8-3,7.2-3.2,9.9c0,0,0,0,0,0c-0.1,0.1-0.3,0.2-0.4,0.3c-2.6,1.6-3.9,2.8-3.3,6.3
			c0.4,2.2,2.9,2.6,5.3,2.6c-0.2,37.9-0.8,75.7-1.1,113.6c-0.3,0-0.6,0-0.9,0c-0.1,0-0.3,0-0.4,0.1c-0.3,0.1-0.4,0.3-0.4,0.7
			c0.2,2.4,0.5,5.9,2.3,7.9c-0.2,0.1-0.3,0.3-0.3,0.6c-0.1,16.9-0.6,33.8-0.7,50.8c0,0,0,0.1,0,0.1c-1.1,1.8-1.5,4.3-1.7,6.3
			c0,0.4,0.4,0.8,0.8,0.8s0.8,0,1.2,0c-0.2,40.6,0,81.3-0.2,121.9c-0.2,0-0.3,0-0.5,0c-0.2,0-0.4,0.1-0.5,0.2c0,0,0,0,0,0
			c0,0,0,0,0,0.1c-0.1,0.1-0.2,0.3-0.2,0.5c0,4.2,0,8.3-0.1,12.5c-0.9,0-1.8,0-2.7,0c-0.2,0-0.4,0.1-0.5,0.2c0,0,0,0,0,0
			c0,0,0,0,0,0.1c-0.1,0.1-0.2,0.3-0.2,0.5c0,3,0,5.9,0,8.9c0,0.4,0.4,0.8,0.8,0.8c0.4,0,0.9,0,1.3,0c0.2,3.2,0.7,9.2,4.4,10.2
			c0.8,0.2,1.7,0.3,2.7,0.3c-2.2,3.8,0,9.1,4.9,9.1c4.9,0,7.1-5.2,5-9c1,0,2-0.1,2.9-0.3c3.6-1.1,4.1-7,4.3-10.1c0.4,0,0.9,0,1.3,0
			c0.4,0,0.8-0.4,0.8-0.8c0-3,0-5.9,0-8.9c0-0.4-0.4-0.8-0.8-0.8c-0.9,0-1.8,0-2.7,0c0-4.2,0-8.3,0.1-12.5c0-0.4-0.4-0.8-0.8-0.8
			c-0.2,0-0.4,0-0.6,0c0.3-40.6,0.9-81.3,1.1-121.9c0.4,0,0.9,0,1.3,0c0.1,0,0.3,0,0.4-0.1c0.3-0.1,0.5-0.3,0.4-0.7
			c-0.1-1.9-0.5-4.6-1.7-6.4c0.1-16.9-0.2-33.8-0.2-50.7c0-0.2-0.1-0.4-0.2-0.5c1.8-1.9,2.3-5.6,2.4-7.9c0-0.4-0.4-0.8-0.8-0.8
			c-0.3,0-0.6,0-0.9,0c0.2-37.7,0-75.4,0.1-113.1c0-0.2-0.1-0.4-0.2-0.5c0.5,0,1,0,1.5,0c0.9,0,2.6,0.2,3.3-0.5
			c1-0.9,0.8-4.8,0.3-5.9c-0.5-1.2-2.1-2.1-3.4-2.8c-0.1-2.7-0.4-8.1-3.1-9.9c5-5.9,3.3-15-3.1-18.3c7.1-2.1,12.3-8.7,12.4-16.5
			c0-1.6-0.2-3.2-0.6-4.8C361.4,246.9,354.7,252.2,346.7,252.1z M344.7,642.6c-4,0-5.5-4.8-2.9-7.5c0,0,0,0,0-0.1
			c1-0.1,2-0.1,2.9-0.1c0.9,0,1.9,0.1,3,0.2c0,0,0.1,0.1,0.1,0.1C350.3,637.9,348.6,642.6,344.7,642.6z M351.1,633.3
			c-2.1,0.2-4.3,0-6.3,0c-2.1,0-4.4,0.3-6.5,0c-3.5-0.5-3.8-5.8-4-8.7c7,0,14,0.1,21,0.1C355.1,627.7,354.7,633,351.1,633.3z
			 M357.5,615.8c0,1.2,0,2.4,0,3.6l-25.3-0.1c0-1.2,0-2.4,0-3.6C340.6,615.7,349,615.8,357.5,615.8z M352.8,587.1
			c0,3.5-0.1,7-0.1,10.5l-15.7-0.1c0-3.5,0-6.9,0-10.4C340.7,591.5,349.1,591.3,352.8,587.1z M337.1,583.9
			c0.1-33.8,0-67.7,0.1-101.5l16.6,0.1c-0.2,33.8-0.6,67.6-0.9,101.4C350.9,590.3,338.9,590.5,337.1,583.9z M354.1,602.5
			c0,3.8,0,7.5-0.1,11.3c-6.1,0-12.2-0.1-18.3-0.1c0-3.8,0-7.5,0.1-11.3C341.8,602.4,348,602.5,354.1,602.5z M355.8,477.4
			c-6.8,0-13.7-0.1-20.5-0.1c0.3-2.9,1.2-6,4.4-6.1c1.9-0.1,3.9,0,5.8,0c2,0,4-0.1,6,0C354.7,471.5,355.5,474.7,355.8,477.4z
			 M336.9,470.2c0.1-16.3,0.6-32.6,0.7-48.9c0.3,0.2,0.6,0.3,1,0.4c2.3,0.4,4.9,0.1,7.2,0.1c2.3,0,5.2,0.5,7.5,0
			c0.2-0.1,0.4-0.1,0.7-0.2c0,16.2,0.3,32.5,0.2,48.7c-0.4-0.3-0.9-0.4-1.5-0.5c-2.3-0.3-4.8,0-7.1-0.1c-2.3,0-5-0.4-7.2,0
			C337.8,469.8,337.3,470,336.9,470.2z M356.2,413.4c-0.3,2.9-1,6.7-4.3,6.8c-2,0.1-4,0-6,0c-2,0-4,0.1-6,0c-3.3-0.2-4-4-4.2-6.9
			C342.5,413.3,349.3,413.4,356.2,413.4z M354.6,315.3c0,31.1,0.1,62.1-0.1,93.2l-17.3-0.1c0.2-31,0.6-62,0.9-93c0,0,0,0,0,0
			C340.2,308,352.7,307.7,354.6,315.3z M338.2,311.9c0-3.4,0-6.8,0.1-10.2l16.4,0.1c0,3.3,0,6.6,0,10
			C350.8,306.9,342.1,307,338.2,311.9z M358.4,291.3c0.4,0.3,0.9,0.5,1.2,0.9c0,0,0.1,0.1,0.1,0.1c0,0,0,0.1,0,0.1
			c0.2,0.6,0.5,3.4,0.1,4.1c0-0.2-0.5,0.1-1,0.1c-0.9,0-1.8,0.1-2.7,0.1c-2.6,0.1-5.1,0.1-7.7,0.1c-2.8,0-5.6-0.1-8.3-0.2
			c-1.7-0.1-4.7,0.3-6.3-0.5c-1.1-0.5-0.8-1.5-0.6-2.8c0.3-1.4,0.4-1.4,1.8-2.3c3.5-2.2,7.4-4.1,11.6-4.3
			C350.8,286.9,354.9,289,358.4,291.3z M356.3,288.2c-3-1.6-6.3-2.9-9.7-3.1c-3.4,0.1-6.7,1.3-9.7,3c0.2-2.9,0.7-7.6,3.8-8
			c1.9-0.2,4,0,6,0c1.9,0,4.1-0.3,6,0C355.7,280.6,356.1,285.3,356.3,288.2z M353.5,278.3c-0.1,0.1-0.1,0.2-0.2,0.2
			c-2.1-0.5-4.8,0-6.8,0c-1.9,0-4.6-0.5-6.7-0.1c0,0,0,0,0,0c-5.3-5.7-2.7-15.4,4.7-16.9c0.7,0.1,1.4,0.1,2.1,0.1
			c0.7,0,1.5,0,2.2-0.1C356.1,263.1,358.6,272.6,353.5,278.3z"/>
		<path d="M344.6,327.6c0.8,0.8,1.3,4.4,1.9,4.4c0.5,0,0.9-3.5,1.7-4.4c0.9-0.9,3.2-1.1,3.2-1.7c0-0.6-2.3-0.7-3.2-1.6
			c-0.9-0.9-1.3-4.4-1.9-4.4c-0.5,0-1,3.6-1.7,4.4c-0.7,0.8-3.2,1.2-3.2,1.7C341.3,326.5,343.8,326.8,344.6,327.6z"/>
		<path d="M344.5,342.8c0.8,0.8,1.3,4.4,1.9,4.4c0.5,0,0.9-3.5,1.7-4.4c0.9-0.9,3.2-1.1,3.2-1.7c0-0.6-2.3-0.7-3.2-1.6
			c-0.9-0.9-1.3-4.4-1.9-4.4c-0.5,0-1,3.6-1.7,4.4c-0.7,0.8-3.2,1.2-3.2,1.7C341.3,341.7,343.7,342,344.5,342.8z"/>
		<path d="M343.4,558.2c0.8,0.8,1.3,4.4,1.9,4.4c0.5,0,0.9-3.5,1.7-4.4c0.9-0.9,3.2-1.1,3.2-1.7c0-0.6-2.3-0.7-3.2-1.6
			c-0.9-0.9-1.3-4.4-1.9-4.4c-0.5,0-1,3.6-1.7,4.4c-0.7,0.8-3.2,1.2-3.2,1.7C340.1,557.1,342.5,557.4,343.4,558.2z"/>
		<path d="M343.3,573.4c0.8,0.8,1.3,4.4,1.9,4.4c0.5,0,0.9-3.5,1.7-4.4c0.9-0.9,3.2-1.1,3.2-1.7s-2.3-0.7-3.2-1.6
			c-0.9-0.9-1.3-4.4-1.9-4.4c-0.5,0-1,3.6-1.7,4.4c-0.7,0.8-3.2,1.2-3.2,1.7S342.5,572.6,343.3,573.4z"/>
		<path d="M345.7,458.6c1.6,0,2.9-0.9,2.9-3.7c0-2.8-2.7-22.1-2.7-22.1s-3,19.3-3,22.1C342.8,457.7,344.1,458.6,345.7,458.6z"/>
		<polygon points="347.7,268.4 346.7,263 345.6,268.4 342.6,266.4 344.6,269.4 339.1,270.4 344.6,271.5 342.5,274.5 345.6,272.6 
			346.6,278 347.7,272.6 350.7,274.6 348.7,271.6 354.2,270.5 348.7,269.4 350.7,266.4 		"/>
	</g>
</g>
</svg>
