<?xml version="1.0" encoding="utf-8"?>
<!-- Generator: Adobe Illustrator 21.1.0, SVG Export Plug-In . SVG Version: 6.00 Build 0)  -->
<svg version="1.1" xmlns="http://www.w3.org/2000/svg" xmlns:xlink="http://www.w3.org/1999/xlink" x="0px" y="0px"
	 viewBox="0 0 504 864" style="enable-background:new 0 0 504 864;" xml:space="preserve">
<g id="Слой_1">
</g>
<g id="Слой_2">
	<g>
		<polygon points="51.7,808.8 44,814 41.2,799.9 38.4,814 30.7,808.8 35.9,816.5 21.8,819.3 35.9,822 30.7,829.8 38.4,824.6 
			41.2,838.6 43.9,824.6 51.7,829.8 46.5,822 60.5,819.3 46.5,816.5 		"/>
		<polygon points="468.1,816.5 473.3,808.8 465.5,814 462.8,799.9 460,814 452.3,808.8 457.5,816.5 443.4,819.3 457.5,822 
			452.3,829.8 460,824.6 462.8,838.6 465.5,824.6 473.3,829.8 468.1,822 482.1,819.3 		"/>
		<polygon points="30.7,57.5 38.4,52.3 41.2,66.4 44,52.3 51.7,57.5 46.5,49.8 60.5,47 46.5,44.3 51.7,36.5 43.9,41.7 41.2,27.7 
			38.4,41.7 30.7,36.5 35.9,44.3 21.8,47 35.9,49.8 		"/>
		<polygon points="473.3,36.5 465.5,41.7 462.8,27.7 460,41.7 452.3,36.5 457.5,44.3 443.4,47 457.5,49.8 452.3,57.5 460,52.3 
			462.8,66.4 465.5,52.3 473.3,57.5 468.1,49.8 482.1,47 468.1,44.3 		"/>
		<path d="M503.8,18.2c-1.6-17.9-18.7-16.3-31.6-16.3c-45.9,0-91.8,0-137.6,0c-63.2,0-126.3,0-189.5,0c-40.6,0-81.2,0-121.8,0
			c-2.6,0-5.3-0.2-8,0.2c-9.5,1.2-15,9.2-15.2,18.2c-0.2,7.3,0,14.5,0,21.8c0,37.4,0,74.9,0,112.3c0,57,0,114.1,0,171.1
			c0,64.3,0,128.6,0,192.9c0,58.4,0,116.7,0,175.1c0,40.1,0,80.2,0,120.3c0,9.1,0,18.2,0,27.3c0,11.7,6.7,20.5,19.2,20.7
			c35.9,0.6,71.9,0,107.9,0c62.4,0,124.9,0,187.3,0c49.7,0,99.5,0,149.2,0c7.6,0,15.2,0,22.9,0c0.4,0,0.8-0.1,1.2-0.2
			c14.4-1.8,16.1-13.8,16.1-25.5c0-11.4,0-22.8,0-34.3c0-43.4,0-86.9,0-130.3c0-59.9,0-119.8,0-179.8c0-63.9,0-127.7,0-191.6
			c0-55.3,0-110.6,0-165.9c0-33.7,0-67.3,0-101C503.9,28.3,504.2,23.2,503.8,18.2z M486.6,852.8c-28.3,0-56.6,0-84.9,0
			c-59.9,0-119.8,0-179.7,0c-54,0-108,0-162,0c-13.1,0-26.1,0-39.2,0c-5.6,0-11-1.3-11.7-8.3c-0.2-1.5,0-3,0-4.5c0-26.5,0-53,0-79.5
			c0-50,0-100,0-149.9c0-61.8,0-123.6,0-185.4c0-61.4,0-122.7,0-184.1c0-48.9,0-97.7,0-146.6c0-24.2-0.8-48.6,0-72.7
			c0.2-5.3,1.6-10.1,8.3-10.8c2.2-0.2,4.5,0,6.7,0c14.8,0,29.6,0,44.5,0c55.6,0,111.3,0,166.9,0c58.9,0,117.8,0,176.7,0
			c18.9,0,37.9,0,56.8,0c8.1,0,24.7-3.1,25.9,8.4c0.5,5.2,0,10.8,0,16.1c0,13.5,0,27.1,0,40.6c0,45.5,0,91.1,0,136.6
			c0,60.1,0,120.2,0,180.3c0,62.6,0,125.1,0,187.7c0,52.8,0,105.6,0,158.4c0,31.4,0,62.7,0,94.1C494.8,840.3,496.9,852,486.6,852.8z
			"/>
		<path d="M460,790.9c1.2,0.1,2.4-0.7,2.4-2.2c0-23.7,0-47.4,0-71.1c0-56.4,0-112.8,0-169.2c0-68.7,0-137.4,0-206
			c0-59,0-117.9,0-176.9c0-19.6,0-39.2,0-58.8c0-8.9,1.3-19,0-27.9c-0.1-0.4,0-0.8,0-1.2c0-0.8-0.3-1.3-0.8-1.7
			c0.1-1.2-0.6-2.5-2.2-2.6c-13.1-0.5-25.3-13.8-25.8-26.7c0-0.5-0.2-0.8-0.4-1.1c-0.3-0.6-1-1.1-1.9-1.1c-40.5,0-80.9,0-121.4,0
			c-64.5,0-129,0-193.6,0c-14.9,0-29.7,0-44.6,0c-0.9,0-1.6,0.5-1.9,1.1c-0.2,0.3-0.3,0.7-0.4,1.2C69.1,59.5,57,72.8,43.9,73.3
			c-1.8,0.1-2.5,1.9-2,3.2c-0.2,0.3-0.2,0.6-0.2,1c0,23.7,0,47.4,0,71.1c0,56.4,0,112.8,0,169.2c0,68.7,0,137.4,0,206
			c0,59,0,117.9,0,176.9c0,19.6,0,39.2,0,58.8c0,8.9-1.3,19,0,27.9c0.1,0.4,0,0.8,0,1.2c0,0.9,0.5,1.6,1.1,1.9
			c0.3,0.2,0.7,0.3,1.2,0.4c13,0.5,25.3,13.3,25.8,26.2c0,0.5,0.2,0.8,0.4,1.1c0.3,0.6,1,1.1,1.9,1.1c40.5,0,80.9,0,121.4,0
			c64.5,0,129,0,193.6,0c14.9,0,29.7,0,44.6,0c0.9,0,1.6-0.5,1.9-1.1c0.2-0.3,0.3-0.7,0.4-1.2c0.5-12.9,12.7-25.7,25.8-26.2
			C459.6,791,459.8,790.9,460,790.9z M457.8,148.7c0,56.4,0,112.8,0,169.2c0,68.7,0,137.4,0,206c0,59,0,117.9,0,176.9
			c0,19.6,0,39.2,0,58.8c0,8.6-1.2,18.4-0.1,27c-14.1,1.5-26.7,14.3-28.4,28.3c-39.8,0-79.6,0-119.3,0c-64.5,0-129,0-193.6,0
			c-14.2,0-28.3,0-42.5,0c-1.7-13.9-13.9-26.5-27.8-28.3c0-23,0-46,0-69.1c0-56.4,0-112.8,0-169.2c0-68.7,0-137.4,0-206
			c0-59,0-117.9,0-176.9c0-19.6,0-39.2,0-58.8c0-8.9,1.3-19,0-27.9c-0.1-0.4,0-0.8,0-1.2c14-1.8,26.1-14.9,27.8-28.7
			c39.8,0,79.5,0,119.3,0c64.5,0,129,0,193.6,0c14.2,0,28.3,0,42.5,0c1.7,14.1,14.3,27.4,28.5,28.8
			C457.8,101.3,457.8,125,457.8,148.7z"/>
		<path d="M238.8,102.7c0.3,0,0.6,0.1,0.9,0.4c0.3,0.3,0.5,0.4,0.6,0.2c0.1-0.2,1.5-0.4,4-0.4c2.1,0,3.2,0.1,3.2,0.3
			c0,0.2,0.2,0.3,0.5,0.3c0.4,0,0.6-0.1,0.6-0.2s0.2-0.3,0.6-0.5c0.4-0.2,0.6-0.4,0.6-0.6c0-0.9-0.7-1.4-1.9-1.5l-1.3-0.1l0.1-6.7
			c0.1-4.5,0.2-6.8,0.3-7c0.1-0.1,0.2-0.8,0.3-1.9c0.1-2.1,0.4-3.2,0.7-3.2c0.2,0,0.4-0.1,0.4-0.3c0-0.2,0.2-0.3,0.7-0.3
			c0.4,0,0.8-0.1,1-0.3c0.3-0.2,0.4-0.5,0.4-0.7c0-0.3-0.2-0.6-0.5-0.8c-0.3-0.2-1.4-0.3-3.4-0.3c-2,0-2.9,0.1-2.9,0.3
			c0,0.1-0.3,0.2-0.9,0.2c-0.6,0-0.9,0.1-0.9,0.4s-0.1,0.4-0.3,0.4c-0.2,0-0.3,0.2-0.3,0.6c0,0.5,0.1,0.8,0.4,0.9
			c0.3,0.1,0.4,0.9,0.4,2.5c0,1.6,0.1,2.4,0.3,2.5c0.2,0.1,0.3,0.8,0.3,2.2c0,1.3-0.1,2-0.3,2.1c-0.2,0.1-0.4,1.5-0.4,4.3
			c-0.1,2.4-0.2,3.9-0.4,4.3c-0.2,0.5-0.8,0.8-1.8,0.9c-0.6,0-0.9,0.1-1,0.2c-0.1,0.1-0.2,0.4-0.2,0.8
			C238.4,102.4,238.6,102.7,238.8,102.7z M244.9,88c0.3,0,0.4,0.2,0.4,0.6c0,0.4-0.1,0.5-0.4,0.5s-0.4-0.2-0.4-0.5
			C244.5,88.2,244.6,88,244.9,88z M243.3,96c0.2,0,0.4,0.1,0.4,0.3c0,0.2-0.1,0.3-0.4,0.3c-0.3,0-0.4-0.1-0.4-0.3
			C242.9,96.1,243,96,243.3,96z"/>
		<path d="M253.8,102.7c0.3,0,0.6,0.1,0.9,0.4c0.3,0.3,0.5,0.4,0.6,0.2c0.1-0.2,1.5-0.4,4-0.4c2.1,0,3.2,0.1,3.2,0.3
			c0,0.2,0.2,0.3,0.5,0.3c0.4,0,0.6-0.1,0.6-0.2s0.2-0.3,0.6-0.5c0.4-0.2,0.6-0.4,0.6-0.6c0-0.9-0.7-1.4-1.9-1.5l-1.3-0.1l0.1-6.7
			c0.1-4.5,0.2-6.8,0.3-7c0.1-0.1,0.2-0.8,0.3-1.9c0.1-2.1,0.4-3.2,0.7-3.2c0.2,0,0.4-0.1,0.4-0.3c0-0.2,0.2-0.3,0.7-0.3
			c0.4,0,0.8-0.1,1-0.3c0.3-0.2,0.4-0.5,0.4-0.7c0-0.3-0.2-0.6-0.5-0.8c-0.3-0.2-1.4-0.3-3.4-0.3c-2,0-2.9,0.1-2.9,0.3
			c0,0.1-0.3,0.2-0.9,0.2c-0.6,0-0.9,0.1-0.9,0.4s-0.1,0.4-0.3,0.4c-0.2,0-0.3,0.2-0.3,0.6c0,0.5,0.1,0.8,0.4,0.9
			c0.3,0.1,0.4,0.9,0.4,2.5c0,1.6,0.1,2.4,0.3,2.5c0.2,0.1,0.3,0.8,0.3,2.2c0,1.3-0.1,2-0.3,2.1c-0.2,0.1-0.4,1.5-0.4,4.3
			c-0.1,2.4-0.2,3.9-0.4,4.3c-0.2,0.5-0.8,0.8-1.8,0.9c-0.6,0-0.9,0.1-1,0.2c-0.1,0.1-0.2,0.4-0.2,0.8
			C253.4,102.4,253.6,102.7,253.8,102.7z M259.9,88c0.3,0,0.4,0.2,0.4,0.6c0,0.4-0.1,0.5-0.4,0.5c-0.3,0-0.4-0.2-0.4-0.5
			C259.5,88.2,259.6,88,259.9,88z M258.3,96c0.2,0,0.4,0.1,0.4,0.3c0,0.2-0.1,0.3-0.4,0.3c-0.3,0-0.4-0.1-0.4-0.3
			C257.9,96.1,258,96,258.3,96z"/>
		<path d="M147.3,785.3c0.1,0,0.2-0.2,0.2-0.5c0-0.2,0-0.4-0.1-0.4c-0.1,0-0.1-0.1-0.1-0.3c0-0.2,0.1-0.4,0.2-0.6
			c0.1-0.3,0.1-0.5-0.2-0.6c-0.2-0.2-0.5-0.3-0.9-0.3c-0.5,0-0.8,0.1-1.1,0.4c-0.3,0.2-0.4,0.3-0.5,0.2c-0.1-0.1-0.4-0.1-0.8,0
			c-0.5,0.1-1.4,0.2-2.6,0.2c-0.9,0-1.4,0-1.5-0.1c-0.1-0.1-0.2,0-0.4,0.2c-0.1,0.1-0.3,0.2-0.4,0.2c-0.2,0-0.4,0-0.7-0.1
			c-0.7-0.2-1.1-0.2-1.3-0.2c-0.1,0-0.2,0-0.2,0c-0.1,0-0.3,0.1-0.4,0.3c-0.1,0.2-0.2,0.4-0.2,0.5c0,0.1,0,0.1,0.1,0.2
			c0,0,0.1,0.2,0.1,0.5c0,0.1,0,0.2-0.1,0.3c-0.1,0-0.2,0.1-0.3,0.1c-0.3,0-0.5,0.1-0.5,0.3c0,0,0,0.1,0.1,0.2
			c0.1,0.1,0.1,0.3,0.1,0.6c0,0.3-0.1,0.4-0.1,0.5c0,0.5,0.2,0.8,0.6,0.8c0.3,0,0.4-0.1,0.4-0.2c0-0.1,0.1-0.2,0.2-0.2
			c0.1,0,0.1,0,0.2-0.1c0,0,0-0.1,0-0.2c0-0.1-0.1-0.2-0.2-0.2c-0.1-0.1-0.1-0.1-0.1-0.2c0,0,0-0.1,0-0.1c0,0,0-0.1,0.1-0.1
			c0,0,0.1,0,0.2-0.1c0.2-0.1,0.2-0.2,0.2-0.3c0,0,0-0.1,0-0.2c0-0.1,0-0.1,0-0.2c0-0.1,0-0.2,0.1-0.2c0.1-0.1,0.1-0.3,0-0.6
			c-0.1-0.3-0.1-0.4,0-0.4c0.1,0,0.1,0.1,0.1,0.2c0,0.1,0.2,0.2,0.5,0.4c0.4,0.1,0.7,0.2,1.1,0.2c0.4,0,0.7,0.1,0.8,0.3
			c0.2,0.2,0.3,0.2,0.5,0.2c0.1,0,0.1,0,0.1,0c0.1,0,0.1,0,0,0.1c-0.3,0.3-0.4,2.2-0.5,5.8c0,0.8-0.1,1.2-0.3,1.4
			c-0.2,0.1-0.3,0.3-0.3,0.4c0,0.1-0.3,0.2-0.8,0.2l-0.7,0.1l-0.1,0.5c0,0,0,0.1,0,0.1c0,0,0,0.1,0,0.1c0,0.2,0.1,0.4,0.4,0.7
			c0.3,0.3,0.5,0.4,0.7,0.4c0.1,0,0.1,0,0.1-0.1s0-0.1-0.1-0.1c-0.1,0-0.1,0-0.1-0.1c0-0.1,0.2-0.1,0.5-0.1c0.1,0,0.4,0,0.8,0
			c0.4,0,0.7,0,0.9,0c0.6,0,0.9-0.1,1.1-0.2c0.1-0.1,0.3-0.2,0.6-0.1c0.2,0.1,0.3,0,0.4-0.1c0.1-0.1,0.2-0.1,0.3-0.1
			c0.1,0,0.3-0.1,0.5-0.2c0.1-0.1,0.2-0.2,0.2-0.3c0-0.1-0.1-0.2-0.2-0.5c-0.2-0.3-0.3-0.4-0.5-0.4c-0.1,0-0.2-0.1-0.2-0.2
			c0-0.1-0.1-0.2-0.3-0.1c0,0-0.1,0-0.1,0c-0.1,0-0.1,0-0.1,0c-0.1,0-0.2,0-0.3-0.1c0-0.1-0.1-0.3-0.1-0.5v-0.4c0-0.5,0-0.8,0-0.9
			c0-0.1,0.1-0.2,0.2-0.2c0.2,0,0.2-0.1,0.2-0.4c0-0.3-0.1-0.5-0.2-0.5s-0.2-0.4-0.2-1.1c0-0.8,0.1-1.2,0.2-1.4
			c0.1-0.1,0.2-0.5,0.2-1.2c0-0.7,0.1-1,0.1-1.1c0.1-0.2,0.5-0.2,1.2-0.2c1,0,1.5,0.1,1.6,0.4c0,0.1,0.1,0.2,0.4,0.5
			c0.2,0.2,0.3,0.4,0.3,0.8c0,0.3,0.1,0.5,0.1,0.5c0,0.1,0.2,0.1,0.4,0.1c0.2,0,0.4,0,0.4-0.1c0-0.1,0.1-0.2,0.3-0.2
			c0.2-0.1,0.3-0.2,0.3-0.4c0-0.2-0.1-0.4-0.2-0.5C147.2,785.4,147.2,785.3,147.3,785.3z"/>
		<path d="M170.3,782.4c-0.1,0-0.3,0-0.5,0s-0.4,0-0.4,0c-0.4,0-0.6,0-0.7,0.1c-0.1,0-0.3,0.1-0.4,0.3c-0.2,0.2-0.3,0.3-0.3,0.4
			c0,0.1,0,0.1,0.2,0.2c0.3,0.2,0.5,0.2,0.7,0.2c0.3,0,0.4,0.1,0.5,0.3c0.1,0.2,0,0.3-0.1,0.4c-0.1,0-0.2,0.2-0.2,0.6
			c0,0.4-0.1,0.6-0.2,0.6c-0.2,0.1-0.2,0.2-0.2,0.4v0.4c0,0.6-0.1,0.9-0.3,0.9c-0.1,0-0.2,0.1-0.3,0.3c0,0.2-0.1,0.7-0.3,1.5
			c-0.1,0.4-0.2,0.6-0.4,0.6c-0.1,0-0.2,0.1-0.2,0.2c0,0.1,0,0.2-0.2,0.2c-0.3,0-0.4-0.1-0.5-0.2c-0.1-0.2-0.2-0.5-0.3-0.9
			c-0.1-0.4-0.2-1-0.2-1.7c-0.1-0.5-0.2-0.8-0.3-0.9c-0.1-0.1-0.1-0.4-0.1-0.7c0-0.3,0-0.5-0.1-0.5c-0.1,0-0.1-0.1-0.1-0.4
			c0-0.2-0.1-0.4-0.2-0.5c-0.1-0.1-0.2-0.1-0.2-0.2c0-0.1,0.2-0.2,0.6-0.2c0.4,0,0.7-0.1,0.9-0.3c0.1-0.1,0.2-0.2,0.2-0.3
			c0-0.1,0-0.2-0.1-0.4c-0.1-0.2-0.3-0.4-0.6-0.5c-0.3-0.1-0.8-0.1-1.6-0.1c-0.6,0-1-0.1-1-0.3c-0.1-0.2-0.1-0.3-0.2-0.3
			c-0.1,0-0.2,0.1-0.5,0.3c-0.3,0.2-0.4,0.3-0.5,0.3c-0.3,0-0.5,0.2-0.6,0.6v0.1l0,0.1c0,0.3,0.3,0.6,0.9,0.7c0.1,0,0.3,0.1,0.4,0.1
			c0.1,0.1,0.1,0.2,0.1,0.2c0,0.1-0.1,0.1-0.2,0.1c-0.1,0-0.1,0.2-0.1,0.6c0,0.4-0.1,0.6-0.2,0.6c-0.1,0-0.1,0.2-0.1,0.5
			c0,0.7-0.2,1.1-0.5,1.2c-0.1,0-0.2,0.1-0.3,0.3c-0.1,0.2-0.1,0.7-0.3,1.5c-0.1,0.4-0.2,0.6-0.4,0.6c-0.2,0-0.2,0.1-0.2,0.2
			c0,0.1,0,0.2-0.2,0.2c-0.3,0-0.5-0.1-0.6-0.2c-0.1-0.2-0.2-0.5-0.2-0.9c0-0.6-0.1-0.9-0.2-1c-0.1-0.1-0.1-0.3-0.1-0.6
			c0-0.4-0.1-0.7-0.2-0.9c-0.1-0.3-0.2-0.5-0.1-0.8c0-0.3,0-0.5-0.1-0.5c-0.1,0-0.2-0.1-0.2-0.4c0-0.2-0.1-0.4-0.2-0.5
			c-0.1-0.1-0.2-0.1-0.2-0.2c0-0.1,0.2-0.2,0.6-0.2c0.4,0,0.7-0.1,0.9-0.3c0.1-0.1,0.2-0.2,0.2-0.3c0-0.1-0.1-0.2-0.2-0.4
			c-0.1-0.2-0.2-0.3-0.4-0.4c-0.2-0.1-0.5-0.1-0.9-0.1c-0.1,0-0.2,0-0.4,0c-0.2,0-0.4,0-0.5,0H157c-0.3,0-0.4,0-0.5-0.1
			c-0.1,0-0.1-0.1-0.2-0.3c-0.1-0.2-0.1-0.4-0.3-0.4c-0.1,0-0.2,0.1-0.5,0.3c-0.2,0.2-0.4,0.3-0.5,0.3c-0.1,0-0.3,0.1-0.4,0.2
			c-0.1,0.1-0.2,0.3-0.2,0.4c0,0.4,0.3,0.7,0.9,0.8c0.5,0.1,0.9,0.6,1,1.6c0.1,0.4,0.2,0.6,0.3,0.8c0.1,0.1,0.2,0.4,0.2,0.7
			c0,0.3,0.1,0.5,0.2,0.6c0.4,0.4,0.5,1.1,0.5,1.9c0,0.4,0,0.6,0.1,0.7c0.1,0.1,0.1,0.2,0.1,0.4c0,0.2,0,0.3,0.1,0.4
			c0.1,0.1,0.2,0.3,0.2,0.8c0,0.4,0.1,0.6,0.2,0.6c0.1,0,0.2,0.2,0.2,0.5c0,0.3,0.1,0.5,0.2,0.5c0.1,0,0.2,0.1,0.3,0.4
			c0.1,0.3,0.3,0.5,0.6,0.5c0.1,0,0.3-0.1,0.4-0.2c0.1-0.1,0.2-0.3,0.2-0.4c0-0.3,0-0.4,0.1-0.4c0.1,0,0.2-0.1,0.2-0.4
			c0-0.3,0-0.5,0.1-0.5c0.1,0,0.2-0.2,0.2-0.5c0-0.3,0.1-0.6,0.3-0.9c0.2-0.3,0.4-0.5,0.6-0.6c0.2-0.1,0.3-0.3,0.3-0.6
			c0-0.4,0.1-0.6,0.2-0.6c0.1,0,0.2-0.2,0.2-0.5c0-0.3,0.1-0.6,0.2-0.8c0.1-0.2,0.2-0.4,0.1-0.5c-0.1-0.2,0.1-0.3,0.4-0.4
			c0.3-0.1,0.4-0.2,0.5-0.3c0.1,0,0.1,0.1,0.1,0.4c0,0.4,0.1,0.6,0.2,0.8c0.4,0.5,0.6,1.1,0.6,1.9c0,0.4,0,0.6,0.1,0.6
			c0.1,0,0.1,0.1,0.1,0.4c-0.1,0.2,0,0.4,0.1,0.5c0.1,0.1,0.2,0.3,0.2,0.8c0,0.4,0.1,0.6,0.2,0.6c0.2,0,0.2,0.2,0.2,0.5
			c0,0.3,0.1,0.5,0.2,0.5c0.1,0,0.2,0.1,0.3,0.4c0.1,0.3,0.3,0.5,0.6,0.5c0.1,0,0.3-0.1,0.4-0.2c0.1-0.1,0.2-0.3,0.2-0.4
			c0-0.3,0.1-0.4,0.2-0.4c0.1,0,0.1-0.1,0.1-0.4c0-0.3,0-0.5,0.1-0.5c0.1,0,0.2-0.2,0.2-0.5c0-0.3,0.1-0.6,0.3-1
			c0.2-0.4,0.4-0.6,0.5-0.6c0.1,0,0.2-0.2,0.2-0.6c0-0.5,0.1-0.7,0.2-0.7c0.1,0,0.2-0.2,0.2-0.5s0.1-0.6,0.2-0.8
			c0.1-0.2,0.2-0.4,0.2-0.6c0-0.1,0.1-0.2,0.4-0.3c0.3-0.1,0.4-0.2,0.4-0.3c0-0.1,0-0.1,0-0.2c0-0.1,0-0.1,0-0.2
			c0-0.6,0.1-0.9,0.3-0.9c0.1,0,0.1-0.1,0.2-0.4c0-0.3,0.1-0.4,0.2-0.4c0.1,0,0.2-0.1,0.2-0.2c0-0.1,0.1-0.2,0.4-0.2
			c0.3,0,0.5-0.1,0.6-0.2c0.1-0.1,0.2-0.3,0.2-0.6l0-0.4L170.3,782.4z"/>
		<path d="M191.2,785.7c-0.2-0.1-0.2-0.2-0.2-0.5c0-0.3,0-0.5-0.1-0.5c-0.1,0-0.1-0.1-0.1-0.4c0-0.3-0.1-0.4-0.2-0.4
			c-0.1,0-0.2-0.1-0.3-0.3c-0.1-0.2-0.2-0.3-0.3-0.4c-0.1-0.1-0.2-0.2-0.2-0.4c0-0.2-0.1-0.3-0.4-0.3c-0.7,0-1-0.1-1-0.4
			c0-0.1-0.1-0.2-0.2-0.2c-0.1,0-0.2,0-0.2-0.1c0-0.1-0.1-0.1-0.3-0.1c-0.2,0-0.3-0.1-0.4-0.2c0-0.1-0.5-0.2-1.5-0.2
			c-0.9,0-1.5,0.1-1.6,0.2c-0.1,0.1-0.2,0.2-0.4,0.2c-0.2,0-0.3,0.1-0.4,0.3c-0.1,0.2-0.3,0.4-0.6,0.4c-0.3,0-0.6,0.1-1.1,0.2
			c-0.5,0.1-0.7,0.3-0.8,0.5c0,0.2-0.2,0.4-0.5,0.7c-0.3,0.3-0.4,0.5-0.4,0.5c0,0.1-0.1,0.1-0.2,0.1c-0.1,0-0.2,0.1-0.3,0.4
			c-0.1,0.2-0.2,0.5-0.3,0.7c-0.2,0.3-0.2,0.8-0.2,1.8c0,1.2,0.1,2.1,0.4,2.9c0.5,1.4,0.9,2.2,1.2,2.3c0.2,0,0.3,0.1,0.3,0.3
			c0,0.2,0.2,0.2,0.4,0.2c0.2,0,0.4,0,0.4,0.1c0,0.1,0.1,0.1,0.3,0.1s0.3,0.1,0.3,0.4c0,0.2,0,0.3,0.1,0.4c0.1,0.1,0.2,0,0.4-0.1
			c0.1-0.1,0.2-0.1,0.3,0c0.2,0.1,0.9,0.2,2.2,0.2c1.1,0,1.7-0.1,1.7-0.2c0-0.1,0.3-0.2,0.7-0.2c0.4,0,0.6-0.1,0.6-0.2
			c0-0.2,0.1-0.3,0.2-0.3c0,0,0.2-0.1,0.4-0.3c0.3-0.2,0.4-0.3,0.5-0.3c0.1,0,0.2-0.1,0.2-0.3c0.1-0.2,0.2-0.3,0.3-0.3
			c0.1,0,0.2-0.1,0.3-0.3c0-0.2,0.2-0.3,0.4-0.3c0.2-0.1,0.3-0.1,0.3-0.2c0-0.1,0.1-0.1,0.2-0.1c0.1,0,0.2-0.2,0.2-0.6
			c0-0.3,0-0.5-0.1-0.5c-0.1,0-0.1-0.1,0-0.2c0.1-0.1,0.2-0.8,0.2-2.1c0-0.3,0-0.7,0-1.1C191.5,786,191.4,785.7,191.2,785.7z
			 M189.1,788.8c-0.1,0-0.2,0.2-0.2,0.4c0,0.3-0.1,0.4-0.2,0.5c-0.1,0.1-0.2,0.4-0.3,0.8c-0.1,0.4-0.1,0.6-0.3,0.6
			c-0.1,0-0.2,0-0.2,0.1c0,0.1-0.1,0.2-0.4,0.2c-0.3,0.1-0.4,0.2-0.4,0.3c0,0.1,0,0.2-0.1,0.2c-0.1,0.1-0.2,0.1-0.4,0.2
			c-0.1,0.1-0.2,0.1-0.3,0.1c0,0.1-0.2,0.1-0.4,0.1c-0.2,0-0.3,0.1-0.5,0.2c-0.1,0.1-0.2,0.1-0.4,0.1c-0.2,0-0.4,0-0.7-0.1
			c-0.5-0.1-1-0.3-1.3-0.6c-0.3-0.3-0.7-0.8-1-1.5c-0.3-0.5-0.4-0.9-0.5-1.1c0-0.2-0.1-0.7-0.1-1.4c0-0.7,0-1.1,0.1-1.4
			c0-0.2,0.1-0.5,0.3-0.8c0.3-0.5,0.6-0.9,1-1.3c0.4-0.4,0.8-0.6,1-0.7c0.3,0,0.5-0.1,0.5-0.3c0-0.1,0.1-0.2,0.2-0.2
			c0.1,0,0.2,0,0.2-0.1c0-0.1,0.1-0.1,0.3-0.1c0.2,0,0.3,0,0.3,0.1c0,0.1,0.3,0.1,0.9,0.1c0.5,0,0.8,0.1,0.8,0.2
			c0,0.1,0.1,0.2,0.3,0.3c0.2,0.1,0.3,0.2,0.3,0.3c0,0.1,0.1,0.2,0.3,0.3c0.3,0.1,0.5,0.4,0.5,0.8c0,0.2,0.1,0.5,0.3,0.8
			c0.2,0.3,0.3,0.7,0.3,1.1c0,0.5,0,0.7,0.1,0.8c0.1,0.1,0.1,0.2,0.1,0.4C189.2,788.6,189.2,788.7,189.1,788.8z"/>
		<path d="M222.7,785.7c-0.2-0.1-0.2-0.2-0.2-0.5c0-0.3,0-0.5-0.1-0.5c-0.1,0-0.1-0.1-0.1-0.4c0-0.3-0.1-0.4-0.2-0.4
			c-0.1,0-0.2-0.1-0.3-0.3c-0.1-0.2-0.2-0.3-0.3-0.4c-0.1-0.1-0.2-0.2-0.2-0.4c0-0.2-0.1-0.3-0.4-0.3c-0.7,0-1-0.1-1-0.4
			c0-0.1-0.1-0.2-0.2-0.2c-0.1,0-0.2,0-0.2-0.1c0-0.1-0.1-0.1-0.3-0.1c-0.2,0-0.3-0.1-0.4-0.2c0-0.1-0.5-0.2-1.5-0.2
			c-0.9,0-1.5,0.1-1.6,0.2c-0.1,0.1-0.2,0.2-0.4,0.2c-0.2,0-0.3,0.1-0.4,0.3c-0.1,0.2-0.3,0.4-0.6,0.4c-0.3,0-0.6,0.1-1.1,0.2
			c-0.5,0.1-0.7,0.3-0.8,0.5c0,0.2-0.2,0.4-0.5,0.7c-0.3,0.3-0.4,0.5-0.4,0.5c0,0.1-0.1,0.1-0.2,0.1c-0.1,0-0.2,0.1-0.3,0.4
			c-0.1,0.2-0.2,0.5-0.3,0.7c-0.2,0.3-0.2,0.8-0.2,1.8c0,1.2,0.1,2.1,0.4,2.9c0.5,1.4,0.9,2.2,1.2,2.3c0.2,0,0.3,0.1,0.3,0.3
			c0,0.2,0.2,0.2,0.4,0.2c0.2,0,0.4,0,0.4,0.1c0,0.1,0.1,0.1,0.3,0.1c0.2,0,0.3,0.1,0.3,0.4c0,0.2,0,0.3,0.1,0.4
			c0.1,0.1,0.2,0,0.4-0.1c0.1-0.1,0.2-0.1,0.3,0c0.2,0.1,0.9,0.2,2.2,0.2c1.1,0,1.7-0.1,1.7-0.2c0-0.1,0.3-0.2,0.7-0.2
			c0.4,0,0.6-0.1,0.6-0.2c0-0.2,0.1-0.3,0.2-0.3c0,0,0.2-0.1,0.4-0.3c0.3-0.2,0.4-0.3,0.5-0.3c0.1,0,0.2-0.1,0.2-0.3
			c0.1-0.2,0.2-0.3,0.3-0.3c0.1,0,0.2-0.1,0.3-0.3c0-0.2,0.2-0.3,0.4-0.3c0.2-0.1,0.3-0.1,0.3-0.2c0-0.1,0.1-0.1,0.2-0.1
			c0.1,0,0.2-0.2,0.2-0.6c0-0.3,0-0.5-0.1-0.5c-0.1,0-0.1-0.1,0-0.2c0.1-0.1,0.2-0.8,0.2-2.1c0-0.3,0-0.7,0-1.1
			C223,786,222.9,785.7,222.7,785.7z M220.6,788.8c-0.1,0-0.2,0.2-0.2,0.4c0,0.3-0.1,0.4-0.2,0.5c-0.1,0.1-0.2,0.4-0.3,0.8
			c-0.1,0.4-0.1,0.6-0.3,0.6c-0.1,0-0.2,0-0.2,0.1c0,0.1-0.1,0.2-0.4,0.2c-0.3,0.1-0.4,0.2-0.4,0.3c0,0.1,0,0.2-0.1,0.2
			c-0.1,0.1-0.2,0.1-0.4,0.2c-0.1,0.1-0.2,0.1-0.3,0.1c0,0.1-0.2,0.1-0.4,0.1c-0.2,0-0.3,0.1-0.5,0.2c-0.1,0.1-0.2,0.1-0.4,0.1
			c-0.2,0-0.4,0-0.7-0.1c-0.5-0.1-1-0.3-1.3-0.6c-0.3-0.3-0.7-0.8-1-1.5c-0.3-0.5-0.4-0.9-0.5-1.1c0-0.2-0.1-0.7-0.1-1.4
			c0-0.7,0-1.1,0.1-1.4c0-0.2,0.1-0.5,0.3-0.8c0.3-0.5,0.6-0.9,1-1.3c0.4-0.4,0.8-0.6,1-0.7c0.3,0,0.5-0.1,0.5-0.3
			c0-0.1,0.1-0.2,0.2-0.2c0.1,0,0.2,0,0.2-0.1c0-0.1,0.1-0.1,0.3-0.1c0.2,0,0.3,0,0.3,0.1c0,0.1,0.3,0.1,0.9,0.1
			c0.5,0,0.8,0.1,0.8,0.2c0,0.1,0.1,0.2,0.3,0.3c0.2,0.1,0.3,0.2,0.3,0.3c0,0.1,0.1,0.2,0.3,0.3c0.3,0.1,0.5,0.4,0.5,0.8
			c0,0.2,0.1,0.5,0.3,0.8c0.2,0.3,0.3,0.7,0.3,1.1c0,0.5,0,0.7,0.1,0.8c0.1,0.1,0.1,0.2,0.1,0.4
			C220.7,788.6,220.7,788.7,220.6,788.8z"/>
		<path d="M240.5,783.9c0-0.3-0.1-0.5-0.2-0.6c-0.1-0.1-0.1-0.2,0-0.4c0.1-0.1,0.1-0.2,0.1-0.2c0-0.1-0.1-0.2-0.2-0.2
			c-0.1-0.1-0.2-0.2-0.2-0.3c0-0.2-0.1-0.3-0.3-0.5c-0.2-0.2-0.4-0.3-0.5-0.3c-0.1,0-0.2,0-0.2,0.1c0,0.1-0.3,0.1-0.9,0.2
			c-0.5,0.1-1.1,0.1-1.7,0.1c-0.6,0-0.9,0-1,0.1c-0.1,0-0.5,0.1-1.4,0.1c-0.9,0.1-1.8,0.2-2.7,0.3c-0.9,0.1-1.4,0.2-1.4,0.2
			c0,0,0,0.1,0,0.2c0,0.1,0,0.2,0.1,0.3c0.1,0.2,0.1,0.3,0.2,0.4c0.1,0,0.3,0.1,0.6,0.1c0.5,0,0.9,0.1,1,0.3
			c0.1,0.2,0.2,0.7,0.2,1.6c0,0.9-0.1,1.4-0.2,1.5c-0.1,0.1-0.1,0.2,0,0.4c0.1,0.3,0.2,0.5,0,0.7c-0.1,0.2-0.2,0.3-0.3,0.3
			c-0.1,0,0,0.1,0.1,0.2c0.1,0.1,0.1,0.3,0.1,0.6c0,0.1,0,0.4-0.1,0.8c-0.1,1.4-0.2,2.3-0.2,2.6c-0.1,0.4-0.1,0.5-0.3,0.6
			c-0.2,0.1-0.5,0.3-0.8,0.6l-0.5,0.6h5v-0.5c0-0.2,0-0.4-0.1-0.4c0-0.1-0.1-0.1-0.3-0.1c-0.2,0-0.4,0-0.4-0.1s-0.1-0.1-0.2-0.1
			s-0.2-0.1-0.3-0.3c0-0.1,0-0.4,0-1.2c0-1.2,0-2.1,0.1-2.8c0-0.1,0.5-0.1,1.4-0.1c0.8,0,1.3,0.1,1.5,0.2c0.3,0.1,0.4,0.4,0.4,0.9
			c0,0.3,0,0.5,0.1,0.5c0.1,0,0.1-0.1,0.3-0.2c0.1-0.1,0.3-0.2,0.5-0.1c0.2,0.1,0.3,0,0.3-0.2c0-0.2,0-0.3,0.1-0.4
			c0.1-0.1,0.1-0.2,0-0.2c-0.1-0.1-0.2-0.3-0.2-0.6c0-0.4,0.1-0.7,0.2-0.8c0.1-0.1,0.1-0.1,0.1-0.2c0-0.1,0-0.1-0.1-0.2
			c-0.1-0.1-0.1-0.2-0.1-0.2c0-0.1,0-0.1,0.1-0.2c0.2-0.1,0.2-0.2,0.2-0.4c0-0.3-0.4-0.4-1.1-0.4c-0.4,0-0.6,0.2-0.6,0.5
			c0,0.1,0,0.2,0.1,0.3c0.1,0.2,0,0.4,0,0.5c-0.1,0.1-0.4,0.2-1,0.3c-0.6,0.1-1.1,0.2-1.6,0.2h-0.5v-0.6c0-0.4,0.1-0.6,0.2-0.7
			c0.1-0.1,0.2-0.2,0.2-0.4c0-0.3-0.1-0.5-0.2-0.8c-0.1-0.2-0.2-0.4-0.2-0.4c0-0.1,0.1-0.1,0.2-0.3c0.2-0.2,0.3-0.4,0.2-0.6
			c0-0.1,0-0.1,0-0.2c0-0.1,0.1-0.2,0.4-0.3c0.3-0.1,0.8-0.1,1.6-0.1c0.7,0,1.1-0.1,1.1-0.1c0.3,0,0.5,0.1,0.7,0.2
			c0.2,0.2,0.3,0.3,0.5,0.4c0.2,0.1,0.3,0.2,0.3,0.3c0,0.1,0.1,0.3,0.3,0.4c0.2,0.1,0.4,0.3,0.5,0.6c0.1,0.4,0.4,0.5,0.8,0.5
			c0.1,0,0.2,0,0.3-0.1c0.1-0.1,0.2-0.2,0.2-0.6c0-0.3-0.1-0.5-0.2-0.5C240.6,784.4,240.5,784.2,240.5,783.9z"/>
		<path d="M269,790.5c0-0.6-0.1-0.9-0.2-1.1c-0.1-0.2-0.3-0.4-0.6-0.5c-0.3-0.1-0.5-0.3-0.5-0.4c-0.1-0.1-0.3-0.3-0.9-0.6
			c-0.5-0.3-1-0.5-1.3-0.6c-0.2-0.1-0.5-0.2-0.9-0.5c-0.4-0.3-0.6-0.4-0.6-0.5c0-0.1-0.1-0.2-0.2-0.3c-0.2-0.1-0.2-0.2-0.2-0.3
			c0,0,0-0.1,0-0.1c0.1-0.1,0.1-0.2,0.1-0.3c0-0.1,0-0.3-0.1-0.6c0-0.1,0-0.2,0-0.2c0,0,0.2-0.1,0.3-0.1c0.3,0,0.4-0.1,0.4-0.2
			c0-0.1,0.1-0.2,0.4-0.4c0.3-0.2,0.4-0.3,0.4-0.3c0-0.1,0.1-0.1,0.4-0.2c0.1,0,0.1,0,0.2,0c0.4,0,0.8,0.2,1.2,0.5
			c0.5,0.3,0.7,0.6,0.7,0.9c0,0.2,0.1,0.4,0.3,0.5c0.2,0.1,0.3,0.3,0.3,0.4c0,0.1,0.1,0.3,0.2,0.5s0.3,0.3,0.4,0.3c0,0,0,0,0.1,0
			c0.1-0.1,0.1-0.7,0.2-2v-0.8c0-0.6-0.1-0.9-0.2-0.9c-0.1,0-0.1,0-0.1,0c-0.3,0.1-0.6,0.2-0.8,0.2c-0.3,0-0.6-0.1-1-0.3
			c-0.4-0.2-0.6-0.3-0.7-0.3c0,0-0.1,0-0.2,0.1c-0.3,0.1-0.6,0.1-0.8,0.1c-0.3,0-0.4,0-0.5,0.1c0,0.1-0.1,0.2-0.3,0.2
			c-0.2,0-0.4-0.1-0.5-0.2c-0.1-0.1-0.3-0.2-0.5-0.2h0c-0.1,0-0.1,0-0.1,0c-0.1,0-0.1,0-0.1,0c0,0,0.1,0,0.1,0
			c0.1,0.1,0.2,0.1,0.2,0.2c0,0.2-0.2,0.3-0.5,0.4c-0.3,0.1-0.4,0.2-0.4,0.4c0.1,0.2,0,0.3-0.2,0.4c-0.3,0.1-0.6,0.5-1.1,1.1
			c-0.1,0.2-0.2,0.4-0.2,0.6c0,0,0,0.3,0.1,0.8c0.1,0.7,0.3,1.1,0.4,1.3c0.1,0.2,0.4,0.4,0.7,0.7c0.4,0.3,0.6,0.4,0.8,0.4
			c0.1,0,0.3,0.1,0.6,0.4c0.4,0.3,0.9,0.6,1.7,0.8c0.5,0.1,0.8,0.3,1.1,0.6c0.2,0.2,0.3,0.4,0.5,0.7c0.1,0.3,0.2,0.5,0.2,0.7
			c0,0.1,0,0.1-0.1,0.2c-0.1,0-0.1,0.2-0.1,0.4c0.1,0.2,0,0.4-0.2,0.6c-0.1,0.1-0.2,0.3-0.2,0.4c0,0.2-0.5,0.4-1.4,0.5
			c-0.1,0-0.3,0-0.6,0c-0.9,0-1.7-0.4-2.2-1.2c-0.3-0.4-0.5-0.8-0.5-1c0,0,0-0.1,0-0.2c0-0.1,0-0.2,0-0.2c0,0-0.1-0.1-0.1-0.1
			c-0.1,0-0.1,0-0.1-0.1c0.1-0.3-0.1-0.5-0.4-0.6c-0.1,0-0.2-0.1-0.3-0.1c-0.3,0-0.4,0.2-0.5,0.5c-0.1,1.2-0.1,1.9-0.2,1.9
			c-0.1,0.1-0.1,0.4-0.2,0.8c0,0.1,0,0.3,0,0.4c0,0.2,0.1,0.4,0.3,0.6c0.1,0.1,0.2,0.2,0.3,0.2c0,0,0.1,0,0.2-0.2
			c0.1-0.2,0.2-0.3,0.2-0.4c0-0.3,0.2-0.3,0.5-0.1c0.9,0.5,1.8,0.7,2.9,0.7c0.5,0,1.1-0.1,1.6-0.2c0.6-0.1,1.1-0.3,1.4-0.6
			c0.3-0.3,0.5-0.5,0.5-0.5c0-0.1,0.1-0.2,0.2-0.3c0.2-0.1,0.3-0.4,0.3-0.9c0.1-0.5,0.1-0.7,0.2-0.7c0.1,0,0.1,0,0-0.1
			S269,791.2,269,790.5z M264.6,788.9C264.5,788.9,264.5,788.9,264.6,788.9c-0.1-0.1-0.1-0.1,0-0.1S264.7,788.8,264.6,788.9
			C264.7,788.9,264.7,788.9,264.6,788.9z"/>
		<path d="M263.1,789.7c0-0.1,0-0.2-0.1-0.2c-0.1,0-0.1,0-0.1,0.1l0.1,0.2C263.1,789.9,263.1,789.9,263.1,789.7z"/>
		<path d="M291.8,782.4c-0.1,0-0.3,0-0.5,0c-0.2,0-0.4,0-0.4,0c-0.4,0-0.6,0-0.7,0.1c-0.1,0-0.3,0.1-0.4,0.3
			c-0.2,0.2-0.3,0.3-0.3,0.4c0,0.1,0,0.1,0.2,0.2c0.3,0.2,0.5,0.2,0.7,0.2c0.3,0,0.4,0.1,0.5,0.3c0.1,0.2,0,0.3-0.1,0.4
			c-0.1,0-0.2,0.2-0.2,0.6c0,0.4-0.1,0.6-0.2,0.6c-0.2,0.1-0.2,0.2-0.2,0.4v0.4c0,0.6-0.1,0.9-0.3,0.9c-0.1,0-0.2,0.1-0.3,0.3
			c0,0.2-0.1,0.7-0.3,1.5c-0.1,0.4-0.2,0.6-0.4,0.6c-0.1,0-0.2,0.1-0.2,0.2c0,0.1,0,0.2-0.2,0.2c-0.3,0-0.4-0.1-0.5-0.2
			c-0.1-0.2-0.2-0.5-0.3-0.9c-0.1-0.4-0.2-1-0.2-1.7c-0.1-0.5-0.2-0.8-0.3-0.9c-0.1-0.1-0.1-0.4-0.1-0.7c0-0.3,0-0.5-0.1-0.5
			c-0.1,0-0.1-0.1-0.1-0.4c0-0.2-0.1-0.4-0.2-0.5c-0.1-0.1-0.2-0.1-0.2-0.2c0-0.1,0.2-0.2,0.6-0.2c0.4,0,0.7-0.1,0.9-0.3
			c0.1-0.1,0.2-0.2,0.2-0.3c0-0.1,0-0.2-0.1-0.4c-0.1-0.2-0.3-0.4-0.6-0.5c-0.3-0.1-0.8-0.1-1.6-0.1c-0.6,0-1-0.1-1-0.3
			c-0.1-0.2-0.1-0.3-0.2-0.3c-0.1,0-0.2,0.1-0.5,0.3c-0.3,0.2-0.4,0.3-0.5,0.3c-0.3,0-0.5,0.2-0.6,0.6v0.1l0,0.1
			c0,0.3,0.3,0.6,0.9,0.7c0.1,0,0.3,0.1,0.4,0.1c0.1,0.1,0.1,0.2,0.1,0.2c0,0.1-0.1,0.1-0.2,0.1c-0.1,0-0.1,0.2-0.1,0.6
			c0,0.4-0.1,0.6-0.2,0.6c-0.1,0-0.1,0.2-0.1,0.5c0,0.7-0.2,1.1-0.5,1.2c-0.1,0-0.2,0.1-0.3,0.3c-0.1,0.2-0.1,0.7-0.3,1.5
			c-0.1,0.4-0.2,0.6-0.4,0.6c-0.2,0-0.2,0.1-0.2,0.2c0,0.1,0,0.2-0.2,0.2c-0.3,0-0.5-0.1-0.6-0.2c-0.1-0.2-0.2-0.5-0.2-0.9
			c0-0.6-0.1-0.9-0.2-1c-0.1-0.1-0.1-0.3-0.1-0.6c0-0.4-0.1-0.7-0.2-0.9c-0.1-0.3-0.2-0.5-0.1-0.8c0-0.3,0-0.5-0.1-0.5
			c-0.1,0-0.2-0.1-0.2-0.4c0-0.2-0.1-0.4-0.2-0.5c-0.1-0.1-0.2-0.1-0.2-0.2c0-0.1,0.2-0.2,0.6-0.2c0.4,0,0.7-0.1,0.9-0.3
			c0.1-0.1,0.2-0.2,0.2-0.3c0-0.1-0.1-0.2-0.2-0.4c-0.1-0.2-0.2-0.3-0.4-0.4c-0.2-0.1-0.5-0.1-0.9-0.1c-0.1,0-0.2,0-0.4,0
			c-0.2,0-0.4,0-0.5,0h-0.4c-0.3,0-0.4,0-0.5-0.1c-0.1,0-0.1-0.1-0.2-0.3c-0.1-0.2-0.1-0.4-0.3-0.4c-0.1,0-0.2,0.1-0.5,0.3
			c-0.2,0.2-0.4,0.3-0.5,0.3c-0.1,0-0.3,0.1-0.4,0.2c-0.1,0.1-0.2,0.3-0.2,0.4c0,0.4,0.3,0.7,0.9,0.8c0.5,0.1,0.9,0.6,1,1.6
			c0.1,0.4,0.2,0.6,0.3,0.8c0.1,0.1,0.2,0.4,0.2,0.7c0,0.3,0.1,0.5,0.2,0.6c0.4,0.4,0.5,1.1,0.5,1.9c0,0.4,0,0.6,0.1,0.7
			c0.1,0.1,0.1,0.2,0.1,0.4c0,0.2,0,0.3,0.1,0.4c0.1,0.1,0.2,0.3,0.2,0.8c0,0.4,0.1,0.6,0.2,0.6c0.1,0,0.2,0.2,0.2,0.5
			c0,0.3,0.1,0.5,0.2,0.5c0.1,0,0.2,0.1,0.3,0.4c0.1,0.3,0.3,0.5,0.6,0.5c0.1,0,0.3-0.1,0.4-0.2c0.1-0.1,0.2-0.3,0.2-0.4
			c0-0.3,0-0.4,0.1-0.4c0.1,0,0.2-0.1,0.2-0.4c0-0.3,0-0.5,0.1-0.5c0.1,0,0.2-0.2,0.2-0.5c0-0.3,0.1-0.6,0.3-0.9
			c0.2-0.3,0.4-0.5,0.6-0.6c0.2-0.1,0.3-0.3,0.3-0.6c0-0.4,0.1-0.6,0.2-0.6c0.1,0,0.2-0.2,0.2-0.5c0-0.3,0.1-0.6,0.2-0.8
			c0.1-0.2,0.2-0.4,0.1-0.5c-0.1-0.2,0.1-0.3,0.4-0.4c0.3-0.1,0.4-0.2,0.5-0.3c0.1,0,0.1,0.1,0.1,0.4c0,0.4,0.1,0.6,0.2,0.8
			c0.4,0.5,0.6,1.1,0.6,1.9c0,0.4,0,0.6,0.1,0.6c0.1,0,0.1,0.1,0.1,0.4c-0.1,0.2,0,0.4,0.1,0.5c0.1,0.1,0.2,0.3,0.2,0.8
			c0,0.4,0.1,0.6,0.2,0.6c0.2,0,0.2,0.2,0.2,0.5c0,0.3,0.1,0.5,0.2,0.5c0.1,0,0.2,0.1,0.3,0.4c0.1,0.3,0.3,0.5,0.6,0.5
			c0.1,0,0.3-0.1,0.4-0.2c0.1-0.1,0.2-0.3,0.2-0.4c0-0.3,0.1-0.4,0.2-0.4c0.1,0,0.1-0.1,0.1-0.4c0-0.3,0-0.5,0.1-0.5
			c0.1,0,0.2-0.2,0.2-0.5c0-0.3,0.1-0.6,0.3-1c0.2-0.4,0.4-0.6,0.5-0.6c0.1,0,0.2-0.2,0.2-0.6c0-0.5,0.1-0.7,0.2-0.7
			c0.1,0,0.2-0.2,0.2-0.5s0.1-0.6,0.2-0.8c0.1-0.2,0.2-0.4,0.2-0.6c0-0.1,0.1-0.2,0.4-0.3c0.3-0.1,0.4-0.2,0.4-0.3
			c0-0.1,0-0.1,0-0.2c0-0.1,0-0.1,0-0.2c0-0.6,0.1-0.9,0.3-0.9c0.1,0,0.1-0.1,0.2-0.4c0-0.3,0.1-0.4,0.2-0.4c0.1,0,0.2-0.1,0.2-0.2
			c0-0.1,0.1-0.2,0.4-0.2c0.3,0,0.5-0.1,0.6-0.2c0.1-0.1,0.2-0.3,0.2-0.6l0-0.4L291.8,782.4z"/>
		<path d="M312.8,785.7c-0.2-0.1-0.2-0.2-0.2-0.5c0-0.3,0-0.5-0.1-0.5c-0.1,0-0.1-0.1-0.1-0.4c0-0.3-0.1-0.4-0.2-0.4
			c-0.1,0-0.2-0.1-0.3-0.3c-0.1-0.2-0.2-0.3-0.3-0.4c-0.1-0.1-0.2-0.2-0.2-0.4c0-0.2-0.1-0.3-0.4-0.3c-0.7,0-1-0.1-1-0.4
			c0-0.1-0.1-0.2-0.2-0.2c-0.1,0-0.2,0-0.2-0.1c0-0.1-0.1-0.1-0.3-0.1c-0.2,0-0.3-0.1-0.4-0.2c0-0.1-0.5-0.2-1.5-0.2
			c-0.9,0-1.5,0.1-1.6,0.2c-0.1,0.1-0.2,0.2-0.4,0.2c-0.2,0-0.3,0.1-0.4,0.3c-0.1,0.2-0.3,0.4-0.6,0.4c-0.3,0-0.6,0.1-1.1,0.2
			c-0.5,0.1-0.7,0.3-0.8,0.5c0,0.2-0.2,0.4-0.5,0.7c-0.3,0.3-0.4,0.5-0.4,0.5c0,0.1-0.1,0.1-0.2,0.1c-0.1,0-0.2,0.1-0.3,0.4
			c-0.1,0.2-0.2,0.5-0.3,0.7c-0.2,0.3-0.2,0.8-0.2,1.8c0,1.2,0.1,2.1,0.4,2.9c0.5,1.4,0.9,2.2,1.2,2.3c0.2,0,0.3,0.1,0.3,0.3
			c0,0.2,0.2,0.2,0.4,0.2c0.2,0,0.4,0,0.4,0.1c0,0.1,0.1,0.1,0.3,0.1c0.2,0,0.3,0.1,0.3,0.4c0,0.2,0,0.3,0.1,0.4
			c0.1,0.1,0.2,0,0.4-0.1c0.1-0.1,0.2-0.1,0.3,0c0.2,0.1,0.9,0.2,2.2,0.2c1.1,0,1.7-0.1,1.7-0.2c0-0.1,0.3-0.2,0.7-0.2
			c0.4,0,0.6-0.1,0.6-0.2c0-0.2,0.1-0.3,0.2-0.3c0,0,0.2-0.1,0.4-0.3c0.3-0.2,0.4-0.3,0.5-0.3c0.1,0,0.2-0.1,0.2-0.3
			c0.1-0.2,0.2-0.3,0.3-0.3c0.1,0,0.2-0.1,0.3-0.3c0-0.2,0.2-0.3,0.4-0.3c0.2-0.1,0.3-0.1,0.3-0.2c0-0.1,0.1-0.1,0.2-0.1
			c0.1,0,0.2-0.2,0.2-0.6c0-0.3,0-0.5-0.1-0.5c-0.1,0-0.1-0.1,0-0.2c0.1-0.1,0.2-0.8,0.2-2.1c0-0.3,0-0.7,0-1.1
			C313,786,312.9,785.7,312.8,785.7z M310.6,788.8c-0.1,0-0.2,0.2-0.2,0.4c0,0.3-0.1,0.4-0.2,0.5c-0.1,0.1-0.2,0.4-0.3,0.8
			c-0.1,0.4-0.1,0.6-0.3,0.6c-0.1,0-0.2,0-0.2,0.1c0,0.1-0.1,0.2-0.4,0.2c-0.3,0.1-0.4,0.2-0.4,0.3c0,0.1,0,0.2-0.1,0.2
			c-0.1,0.1-0.2,0.1-0.4,0.2c-0.1,0.1-0.2,0.1-0.3,0.1c0,0.1-0.2,0.1-0.4,0.1c-0.2,0-0.3,0.1-0.5,0.2c-0.1,0.1-0.2,0.1-0.4,0.1
			c-0.2,0-0.4,0-0.7-0.1c-0.5-0.1-1-0.3-1.3-0.6c-0.3-0.3-0.7-0.8-1-1.5c-0.3-0.5-0.4-0.9-0.5-1.1c0-0.2-0.1-0.7-0.1-1.4
			c0-0.7,0-1.1,0.1-1.4c0-0.2,0.1-0.5,0.3-0.8c0.3-0.5,0.6-0.9,1-1.3c0.4-0.4,0.8-0.6,1-0.7c0.3,0,0.5-0.1,0.5-0.3
			c0-0.1,0.1-0.2,0.2-0.2c0.1,0,0.2,0,0.2-0.1c0-0.1,0.1-0.1,0.3-0.1c0.2,0,0.3,0,0.3,0.1c0,0.1,0.3,0.1,0.9,0.1
			c0.5,0,0.8,0.1,0.8,0.2c0,0.1,0.1,0.2,0.3,0.3c0.2,0.1,0.3,0.2,0.3,0.3c0,0.1,0.1,0.2,0.3,0.3c0.3,0.1,0.5,0.4,0.5,0.8
			c0,0.2,0.1,0.5,0.3,0.8c0.2,0.3,0.3,0.7,0.3,1.1c0,0.5,0,0.7,0.1,0.8c0.1,0.1,0.1,0.2,0.1,0.4
			C310.8,788.6,310.7,788.7,310.6,788.8z"/>
		<path d="M326.3,780.4C326.4,780.3,326.4,780.3,326.3,780.4c0.1-0.1,0-0.1-0.2-0.1c-0.2,0-0.3,0.1-0.3,0.2
			C326,780.5,326.1,780.5,326.3,780.4C326.3,780.4,326.3,780.4,326.3,780.4z"/>
		<path d="M321.9,779.4c0-0.1-0.1-0.1-0.3-0.1s-0.3,0-0.3,0.1c0,0.1,0.1,0.2,0.3,0.2S321.9,779.5,321.9,779.4z"/>
		<path d="M333.3,792.7c-0.1,0-0.2-0.1-0.3-0.4c-0.1-0.2-0.3-0.4-0.5-0.4c-0.2,0-0.4-0.1-0.6-0.2c-0.2-0.1-0.4-0.2-0.4-0.4
			c-0.1-0.1-0.1-0.2-0.3-0.2c-0.1,0-0.3-0.1-0.6-0.4c-0.2-0.3-0.4-0.6-0.6-0.9c-0.1-0.3-0.4-0.6-0.8-1.1c-0.4-0.5-0.7-0.7-0.8-0.7
			c-0.1,0-0.2-0.1-0.4-0.3c-0.1-0.1-0.2-0.2-0.1-0.3c0,0,0.1-0.1,0.3-0.2c0.8-0.3,1.2-0.6,1.2-0.9c0-0.5,0.1-0.7,0.3-0.7
			c0.1,0,0.2-0.1,0.4-0.2c0.2-0.2,0.2-0.7,0.2-1.5c0-1-0.1-1.5-0.3-1.7c-0.1-0.1-0.2-0.2-0.4-0.2c-0.1,0-0.2,0-0.2-0.1
			c0-0.1-0.1-0.2-0.4-0.3c-0.3-0.1-0.4-0.3-0.5-0.5l-0.2-0.3c-0.1-0.1-0.2-0.1-0.2,0.1c0,0.1-0.3,0.1-0.8,0.1c-0.6,0-0.9,0-0.9-0.1
			c0-0.1-0.1-0.1-0.4-0.1s-0.5-0.1-0.6-0.3c-0.2-0.2-0.3-0.3-0.4-0.3c-0.1,0-0.2,0.1-0.1,0.3c0,0,0,0,0,0.1v0.1
			c0,0.1-0.6,0.2-1.8,0.2h-1.9l-0.5,0.5c-0.3,0.3-0.5,0.6-0.5,0.7c0,0.1,0.2,0.2,0.5,0.3c0.3,0.1,0.5,0.1,0.5,0.2
			c0,0.1,0,0.1,0.1,0.1c0.2,0,0.4,0.2,0.6,0.5c0.2,0.3,0.3,0.7,0.3,1.2c0,0.4,0.1,0.6,0.1,0.6c0,0.2-0.1,0.4-0.2,0.5
			c-0.2,0.1-0.2,0.2-0.1,0.3c0.1,0.1,0.2,0.3,0.2,0.7c0,0.3-0.1,0.5-0.2,0.5c-0.1,0-0.2,0,0,0.1c0.1,0.1,0.2,0.2,0.2,0.4
			c0,0.2-0.1,0.4-0.2,0.5c-0.1,0.1-0.1,0.3,0.1,0.4c0.1,0.1,0.2,0.3,0.2,0.4c0,0.1-0.1,0.3-0.2,0.4c-0.2,0.2-0.3,0.7-0.3,1.6
			c0,0.7,0,1.1-0.1,1.2c0,0.1-0.1,0.2-0.3,0.3c-0.2,0.1-0.3,0.1-0.3,0.2c0,0.1-0.3,0.1-0.8,0.1c-0.4,0-0.6,0.1-0.7,0.1
			c-0.1,0.1-0.1,0.2-0.1,0.5c0,0.2,0.2,0.5,0.6,0.8c0.2,0.1,0.3,0.2,0.5,0.2c0.2,0,0.3-0.1,0.3-0.2c0.1-0.1,0.8-0.2,2.1-0.2
			c1.3,0,2.1-0.1,2.2-0.3c0.1-0.1,0.2-0.2,0.3-0.2c0.1,0,0.2-0.1,0.2-0.2c0-0.1-0.1-0.2-0.4-0.2c-0.3,0-0.4-0.1-0.5-0.3
			c0-0.2-0.2-0.3-0.5-0.4c-0.4-0.1-0.5-0.2-0.5-0.4c0-0.1,0-0.2,0.1-0.3c0.2-0.2,0.2-0.3,0.1-0.4c-0.1,0-0.2-0.6-0.2-1.6
			c0-0.3,0-0.6,0-1c0-0.3,0-0.4,0.1-0.5c0-0.1,0.1-0.1,0.2-0.1c0.5,0,1,0.2,1.5,0.5c0.5,0.4,0.8,0.7,0.8,1c0,0.2,0.1,0.3,0.2,0.3
			s0.2,0.1,0.2,0.4c0,0.5,0.3,0.8,0.8,1c0.2,0.1,0.4,0.3,0.5,0.7c0.1,0.4,0.3,0.8,0.7,1.2l0.6,0.7l0.9-0.1c0.1,0,0.3,0,0.6-0.1
			c0.3,0,0.6,0,0.8-0.1c0.2,0,0.4-0.1,0.7-0.1s0.4-0.1,0.6-0.2c0.1-0.1,0.2-0.2,0.2-0.3C333.4,792.8,333.4,792.7,333.3,792.7z
			 M327.6,785.9c-0.1,0-0.2,0-0.2,0.1c-0.1,0-0.1,0,0,0.1c0.2,0,0.2,0.1,0.2,0.2c0,0.1-0.1,0.3-0.4,0.4c-0.2,0.2-0.5,0.3-0.7,0.3
			c-0.3,0-0.6,0.1-1.1,0.2c-0.1,0-0.2,0-0.3,0c-0.2,0-0.4-0.1-0.7-0.3c-0.2-0.2-0.3-0.3-0.4-0.3c0-0.1,0-0.1,0.1-0.2
			c0.1-0.1,0.2-0.7,0.2-1.6v-1.2c0-0.3,0.1-0.5,0.2-0.7c0.1-0.2,0.3-0.4,0.4-0.4h0.1l0.4,0.1c0.3,0,0.5,0.1,0.8,0.1
			c0.2,0.1,0.4,0.1,0.4,0.1c0,0.1,0.1,0.1,0.4,0.2c0.3,0.1,0.4,0.2,0.4,0.3c0,0.1,0.1,0.3,0.2,0.4c0.1,0.1,0.2,0.2,0.1,0.3
			c-0.1,0.1-0.1,0.3,0.1,0.6c0.1,0.2,0.2,0.5,0.2,0.8v0.1c0,0.2-0.1,0.4-0.1,0.4C328,785.8,327.8,785.9,327.6,785.9z"/>
		<path d="M352.6,785.5c0-0.2-0.1-0.3-0.2-0.5c-0.2-0.2-0.3-0.3-0.4-0.3c-0.1,0-0.2-0.1-0.2-0.2c0-0.1-0.1-0.3-0.3-0.6
			c-0.2-0.2-0.3-0.3-0.4-0.3c-0.1,0-0.2-0.1-0.2-0.2c0-0.1-0.1-0.2-0.3-0.3c-0.2-0.1-0.3-0.1-0.3-0.2c0-0.1-0.1-0.1-0.4-0.1
			c-0.2,0-0.3-0.1-0.6-0.2c-0.2-0.1-0.4-0.2-0.5-0.2c-0.2,0-0.3,0-0.3-0.1c0-0.1-0.1-0.1-0.4-0.1c-0.2,0-0.3,0-0.4-0.1
			c-0.1-0.1-0.2-0.1-0.2-0.1c-0.1,0-0.2,0-0.4,0.1c-0.3,0.1-0.6,0.2-1,0.2c-0.2,0-0.4,0-0.4-0.1c-0.1,0-0.1-0.1-0.1-0.2
			c0-0.2-0.1-0.3-0.2-0.3c-0.1,0-0.2,0-0.3,0.2c-0.1,0.1-0.1,0.1-0.2,0c-0.2-0.3-0.3-0.2-0.4,0.1c-0.1,0.2-0.2,0.3-0.4,0.2
			c-0.2-0.1-0.5-0.2-1-0.2c-0.4,0-0.7-0.1-0.8-0.2c0-0.1-0.1-0.1-0.3,0.1c-0.2,0.1-0.3,0.1-0.3,0c-0.1-0.1-0.2-0.2-0.5-0.2
			c-0.2,0-0.4,0-0.4,0.1s-0.1,0.1-0.3,0.1c-0.1,0-0.2,0-0.2,0.1c0,0.1-0.1,0.3-0.1,0.5c0,0.3,0,0.5,0.1,0.6c0,0.1,0.2,0.2,0.3,0.3
			c0.2,0.1,0.3,0.1,0.4,0.1c0,0,0.1,0,0.1,0c0.1,0,0.1,0,0.1,0c0.1,0,0.2,0,0.3,0.1c0.2,0.1,0.4,0.4,0.4,0.8c0,0.4,0,0.6-0.1,0.6
			c-0.1,0-0.1,0.3-0.1,0.9c0,0.6,0,0.8,0.1,0.8c0.1,0,0.1,0.1,0.1,0.4c0,0.2,0,0.4-0.1,0.5c-0.1,0.1-0.1,1-0.2,2.8l-0.1,2.7l-0.5,0
			c-0.4,0-0.6,0.2-0.8,0.4c-0.2,0.2-0.3,0.4-0.3,0.5c0,0.1,0.1,0.2,0.4,0.4c0.3,0.2,0.5,0.2,0.7,0.2c0.1,0,0.2,0,0.2-0.1
			c0-0.1,0.3-0.1,0.8-0.1c0.5,0,0.8,0,0.8,0.1c0,0.1,0.9,0.2,2.6,0.2c1.1,0,1.7,0,1.8-0.1c0.1-0.1,0.4-0.2,0.7-0.2
			c0.4-0.1,0.8-0.2,1.3-0.5c0.5-0.2,0.8-0.4,1-0.4c0.2,0,0.3-0.1,0.4-0.4c0.1-0.3,0.3-0.6,0.7-1.1c0.4-0.4,0.6-0.7,0.6-0.8
			c0-0.1,0-0.2,0.1-0.2c0.1,0,0.1-0.1,0.1-0.3c0-0.2,0.1-0.4,0.2-0.5c0.1-0.1,0.1-0.8,0.1-2c0-1.4-0.1-2.1-0.2-2.2
			C352.6,785.8,352.6,785.7,352.6,785.5z M350.5,789.7c-0.1,0.1-0.2,0.2-0.2,0.5c0,0.3-0.1,0.5-0.2,0.6c-0.3,0.3-0.5,0.6-0.6,1
			c-0.1,0.2-0.1,0.2-0.2,0.2c-0.1,0-0.3,0.2-0.7,0.5c-0.4,0.3-0.7,0.5-0.9,0.5c-0.2,0-0.3,0.1-0.4,0.2c-0.1,0.1-0.1,0.1-0.2,0
			c-0.1-0.1-0.1-0.2-0.3-0.2c-0.1,0-0.2,0.1-0.3,0.2c0,0.1-0.3,0.1-0.9,0.1c-0.6,0-1.1,0-1.6,0c-0.2,0-0.2-0.1-0.2-0.4
			c0-0.2-0.1-0.4-0.2-0.4s-0.2,0-0.2-0.1c0-0.1,0.1-0.1,0.2-0.2c0.1-0.1,0.2-0.2,0.2-0.3c0-0.1,0.1-0.2,0.2-0.2
			c0.1,0,0.1-0.1,0.2-0.4c0.1-0.2,0.1-0.5,0.1-0.8c0-0.1,0-0.3-0.1-0.5c0,0,0,0,0-0.1c0,0,0-0.1,0-0.1c0-0.2,0.1-0.4,0.2-0.6
			l0.2-0.4c0,0-0.1-0.1-0.2-0.1c-0.1,0-0.2-0.3-0.2-0.8c0-0.5,0-1,0-1.5c0-1.4,0.1-2.2,0.1-2.4c0-0.3,0.1-0.5,0.4-0.8
			c0.2-0.2,0.4-0.3,0.6-0.3c0.1,0,0.2,0,0.3,0c0.1,0,0.3,0,0.7,0.1c0.4,0,0.7,0.1,1,0.1c0.3,0.1,0.4,0.1,0.5,0.2
			c0.1,0.1,0.2,0.2,0.4,0.2c0.2,0,0.4,0.1,0.4,0.3c0.1,0.2,0.2,0.3,0.3,0.3c0.2,0,0.2,0,0.2,0.1c0,0.1,0.1,0.2,0.3,0.2
			c0.2,0.1,0.3,0.2,0.3,0.3c0,0.1,0.1,0.3,0.2,0.4c0.1,0.1,0.2,0.4,0.3,0.9c0,0.4,0.1,0.7,0.2,0.8c0.1,0.1,0.1,0.5,0.1,1.3
			S350.5,789.7,350.5,789.7z"/>
		<path d="M368.3,789.5c0-0.6-0.1-0.9-0.2-1.1c-0.1-0.2-0.3-0.4-0.6-0.5c-0.3-0.1-0.5-0.3-0.5-0.4c-0.1-0.1-0.3-0.3-0.9-0.6
			c-0.5-0.3-1-0.5-1.3-0.6c-0.2-0.1-0.5-0.2-0.9-0.5c-0.4-0.3-0.6-0.4-0.6-0.5c0-0.1-0.1-0.2-0.2-0.3c-0.2-0.1-0.2-0.2-0.2-0.3
			c0,0,0-0.1,0-0.1c0.1-0.1,0.1-0.2,0.1-0.3c0-0.1,0-0.3-0.1-0.6c0-0.1,0-0.2,0-0.2c0,0,0.2-0.1,0.3-0.1c0.3,0,0.4-0.1,0.4-0.2
			c0-0.1,0.1-0.2,0.4-0.4c0.3-0.2,0.4-0.3,0.4-0.3c0-0.1,0.1-0.1,0.4-0.2c0.1,0,0.1,0,0.2,0c0.4,0,0.8,0.2,1.2,0.5
			c0.5,0.3,0.7,0.6,0.7,0.9c0,0.2,0.1,0.4,0.3,0.5c0.2,0.1,0.3,0.3,0.3,0.4c0,0.1,0.1,0.3,0.2,0.5s0.3,0.3,0.4,0.3c0,0,0,0,0.1,0
			c0.1-0.1,0.1-0.7,0.2-2v-0.8c0-0.6-0.1-0.9-0.2-0.9c-0.1,0-0.1,0-0.1,0c-0.3,0.1-0.6,0.2-0.8,0.2c-0.3,0-0.6-0.1-1-0.3
			c-0.4-0.2-0.6-0.3-0.7-0.3c0,0-0.1,0-0.2,0.1c-0.3,0.1-0.6,0.1-0.8,0.1c-0.3,0-0.4,0-0.5,0.1c0,0.1-0.1,0.2-0.3,0.2
			c-0.2,0-0.4-0.1-0.5-0.2c-0.1-0.1-0.3-0.2-0.5-0.2h0c-0.1,0-0.1,0-0.1,0c-0.1,0-0.1,0-0.1,0c0,0,0.1,0,0.1,0
			c0.1,0.1,0.2,0.1,0.2,0.2c0,0.2-0.2,0.3-0.5,0.4c-0.3,0.1-0.4,0.2-0.4,0.4c0.1,0.2,0,0.3-0.2,0.4c-0.3,0.1-0.6,0.5-1.1,1.1
			c-0.1,0.2-0.2,0.4-0.2,0.6c0,0,0,0.3,0.1,0.8c0.1,0.7,0.3,1.1,0.4,1.3c0.1,0.2,0.4,0.4,0.7,0.7c0.4,0.3,0.6,0.4,0.8,0.4
			c0.1,0,0.3,0.1,0.6,0.4c0.4,0.3,0.9,0.6,1.7,0.8c0.5,0.1,0.8,0.3,1.1,0.6c0.2,0.2,0.3,0.4,0.5,0.7c0.1,0.3,0.2,0.5,0.2,0.7
			c0,0.1,0,0.1-0.1,0.2c-0.1,0-0.1,0.2-0.1,0.4c0.1,0.2,0,0.4-0.2,0.6c-0.1,0.1-0.2,0.3-0.2,0.4c0,0.2-0.5,0.4-1.4,0.5
			c-0.1,0-0.3,0-0.6,0c-0.9,0-1.7-0.4-2.2-1.2c-0.3-0.4-0.5-0.8-0.5-1c0,0,0-0.1,0-0.2c0-0.1,0-0.2,0-0.2c0,0-0.1-0.1-0.1-0.1
			c-0.1,0-0.1,0-0.1-0.1c0.1-0.3-0.1-0.5-0.4-0.6c-0.1,0-0.2-0.1-0.3-0.1c-0.3,0-0.4,0.2-0.5,0.5c-0.1,1.2-0.1,1.9-0.2,1.9
			c-0.1,0.1-0.1,0.4-0.2,0.8c0,0.1,0,0.3,0,0.4c0,0.2,0.1,0.4,0.3,0.6c0.1,0.1,0.2,0.2,0.3,0.2c0,0,0.1,0,0.2-0.2
			c0.1-0.2,0.2-0.3,0.2-0.4c0-0.3,0.2-0.3,0.5-0.1c0.9,0.5,1.8,0.7,2.9,0.7c0.5,0,1.1-0.1,1.6-0.2c0.6-0.1,1.1-0.3,1.4-0.6
			c0.3-0.3,0.5-0.5,0.5-0.5c0-0.1,0.1-0.2,0.2-0.3c0.2-0.1,0.3-0.4,0.3-0.9c0.1-0.5,0.1-0.7,0.2-0.7c0.1,0,0.1,0,0-0.1
			S368.3,790.2,368.3,789.5z M363.9,788C363.8,788,363.8,787.9,363.9,788c-0.1-0.1-0.1-0.1,0-0.1S364,787.9,363.9,788
			C364,787.9,363.9,788,363.9,788z"/>
		<path d="M362.4,788.7c0-0.1,0-0.2-0.1-0.2c-0.1,0-0.1,0-0.1,0.1l0.1,0.2C362.3,789,362.4,788.9,362.4,788.7z"/>
		<ellipse transform="matrix(3.030781e-03 -1 1 3.030781e-03 -28.3548 489.8157)" cx="231.5" cy="259.1" rx="1.7" ry="1.7"/>
		<path d="M346.2,269c2.2-0.4,2.4-1.2,3.3-2.9c0.5-0.9-0.3-0.2,0.5-0.8c0.2-0.2,1-0.3,1.3-0.4c0.9-0.4,1.7-1,2.4-1.7
			c2-2.2,2.2-5.4,2.3-8.2c0-0.5-0.4-0.9-0.9-0.9c-9.4,0.6-18.9,1.1-28.3,1.4c-6.7,0.2-13.5,0.4-20.2,0.4c-2.6,0-5.1-0.1-7.7-0.3
			c-2.3-0.2-3.8-0.1-3.8-2.4c3.1-0.3,4.7-2.5,4.9-5.6c0.2-3.3-0.6-5.9-3.8-7.2c-0.2-0.1-0.4-0.1-0.6,0c0,0-0.1,0-0.1,0
			c0.7-1.1,1.1-2.2,1.2-3.7c0.1-1.9-0.5-3.5-1.9-4.7c1-2.6,1.6-5.4,2.1-8.2c0-0.1,0.1-0.2,0.1-0.4c0.3-1.8,0.5-3.7,0.6-5.5
			c0.1-0.2,0.1-0.3,0-0.5c0.2-3.5,0.2-6.9,0-10.4c-0.3-5.8-0.8-12.2-2.9-17.7c1.3-1.3,1.6-3.4,1.1-5.1c-0.7-2.4-2.7-4.1-5.3-4.1
			c-2.5,0-4.7,1.3-5.3,3.8c-0.5,1.8-0.2,4,1.1,5.4c-2.1,5.5-2.6,11.9-3,17.8c-0.5,8.3-0.2,17,2.6,24.9c-1.5,1.3-2.2,3-2,5
			c0.1,1.4,0.6,2.4,1.2,3.5c-1.7-0.2-3.5,1.1-4.2,2.7c-0.9,1.8-0.5,4.7,0,6.6c0.7,2.2,2.3,3.2,4.5,3.2c-0.1,2.5-1.2,2.4-3.8,2.6
			c-2.6,0.2-5.1,0.3-7.7,0.3c-6.7,0-13.5-0.2-20.2-0.5c-9.4-0.4-18.9-0.9-28.3-1.6c-0.5,0-0.9,0.4-0.9,0.9c0.1,2.7,0.2,5.8,2,8
			c1.1,1.4,3.8,2,4.3,2.8c0.5,0.7,0.1,1.6,0.9,2.3c0.6,0.6,1.3,0.8,2.1,1c2.7,0.6,5.8,0.2,8.6,0c6.6-0.3,13.1-0.5,19.7-0.6
			c3.6,0,7.3-0.1,10.9,0.1c1.9,0.1,3.9,0,5.8,0.4c3.2,0.7,4.4,1.8,4.5,4.8c-0.8,0.4-1.5,1-1.9,1.8c-0.8,1.3-1,2.9-0.3,4.3
			c0.4,0.7,0.9,1.1,1.6,1.6c1,0.7,1.6,0.7,1.6,2.3c0,0.4-0.1,0.9-0.3,1.4c-0.5,0-1,0-1.5,0c-0.5,0-0.9,0.4-0.9,0.9
			c0,1.4,0,2.9,0,4.3c0,0,0,0-0.1,0c-3.6,0.2-5.4,2.1-5.4,5.7c0,2.6,0.9,4.3,2.8,5.1c0,0,0,0,0,0c0,1.6,0,3.2,0,4.8
			c0,0.5,0.4,0.9,0.9,0.9c0.1,0,0.2,0,0.3,0c-0.1,28.5-0.2,56.9-0.3,85.4c-0.1,35.4-0.2,70.9-0.3,106.3c0,3.4,0.4,5.7,1.4,9.1
			c2.5,9.1,5.1,18.2,7.6,27.3c0,0,0,0,0,0.1c0,0.1,0,0.1,0.1,0.2c0,0,0.1,0.1,0.1,0.1c0,0,0.1,0.1,0.1,0.1c0.3,0.3,0.8,0.3,1.1,0
			c0,0,0.1-0.1,0.1-0.1c0,0,0.1-0.1,0.1-0.1c0,0,0.1-0.1,0.1-0.2c0,0,0,0,0-0.1c2.3-8.1,4.6-16.1,6.9-24.2c0.9-3.3,2.3-6.5,2.3-9.9
			c0-12.3,0.1-24.7,0.1-37c0.1-41.7,0.3-83.4,0.4-125.1c0-10.6,0.1-21.2,0.1-31.7c0.1,0,0.2,0,0.3,0c0.3,0,0.4-0.1,0.6-0.2
			c0,0,0,0,0,0c0,0,0-0.1,0.1-0.1c0.1-0.1,0.2-0.3,0.2-0.5c0-1.6,0-3.2,0-4.8c0-0.1,0-0.1,0-0.2c4.5-2.5,3.7-10.2-2.6-10.7
			c0-1.4,0-2.9,0-4.3c0-0.5-0.4-0.9-0.9-0.9c-0.7,0-1.3,0-2,0c-0.3-1-0.4-2.1,0.2-2.9c0.5-0.7,1.6-0.9,2.2-1.6
			c0.9-1,1.2-2.4,0.8-3.7c-0.4-1.4-1.4-2.4-2.5-2.9c-0.1-2.8,1.1-3.8,4-4.6c1.8-0.5,3.7-0.6,5.6-0.6c3.7-0.1,7.5-0.1,11.2-0.1
			c6.8,0.1,13.7,0.4,20.5,0.8C340.4,269.1,343.4,269.5,346.2,269z M354.1,255.8c-0.2,3.9-1.3,7.2-5.6,7.9c-2.9-3.2-10.1-2.2-11.1-7
			C343,256.5,348.6,256.2,354.1,255.8z M290,181.7c1.9-0.1,3.4,0.9,4,2.7c0.4,1.2,0.3,3-0.8,3.8c0,0,0,0-0.1,0.1
			c-0.3,0.2-0.5,0.5-0.3,0.9c0.5,1.2,0.9,2.5,1.2,3.8c-2.4-0.2-4.5-1.1-6.2-2.9c0.1-0.3,0.2-0.5,0.3-0.8c0.1-0.2,0.1-0.4,0.1-0.6
			c0-0.2-0.2-0.3-0.3-0.4C285.3,186.1,286.9,181.9,290,181.7z M287.1,191.9c2,1.8,4.5,2.7,7.2,2.8c0.3,1.4,0.5,2.7,0.7,4.1
			c-3.2-0.2-6.2-1.1-8.6-3.5c-0.1-0.1-0.1-0.1-0.2-0.1C286.5,194.1,286.8,192.9,287.1,191.9z M285.9,197.2c2.6,2.3,5.9,3.3,9.3,3.4
			c0.1,1.4,0.3,2.8,0.3,4.1c-3.7-0.2-7.3-1-10.2-3.4C285.5,200,285.7,198.6,285.9,197.2z M285,206.9c0.1-1.1,0.2-2.3,0.2-3.5
			c3.1,2.1,6.7,2.9,10.5,3.1c0,0.1,0,0.3,0,0.4c0.1,1.2,0.1,2.5,0.1,3.7c-3.8-0.2-7.7-1.1-10.7-3.5C285.1,207.1,285,207,285,206.9
			C285,207,285,206.9,285,206.9z M284.8,209c3.3,2.2,7.1,3.1,11.1,3.3c0,1.4,0,2.8-0.1,4.1c-3.9-0.2-7.9-1-11-3.5c0,0,0,0,0,0
			C284.8,211.7,284.8,210.3,284.8,209z M284.8,215.1c3.3,2.1,7,2.9,10.9,3.1c-0.1,1.4-0.3,2.8-0.5,4.1c-3.7-0.2-7.3-1.1-10.2-3.5
			C284.9,217.6,284.8,216.4,284.8,215.1z M285.8,224.8c-0.2-1.2-0.4-2.4-0.6-3.6c2.9,1.9,6.3,2.7,9.7,2.9c-0.3,1.4-0.6,2.8-0.9,4.1
			C290.9,228.1,288,227.1,285.8,224.8z M293.5,230c-0.2,0.5-0.3,1-0.5,1.4c0,0,0,0.1,0,0.1c-1.6,0.9-3.8,0.7-5.4,0.1
			c0-0.1,0-0.2,0-0.2c-0.5-1.3-0.8-2.5-1.2-3.8C288.5,229,290.9,229.8,293.5,230z M286.9,233.2c2.2,0.8,4.6,1,6.7-0.1
			c2.6,2,0.8,5.5-0.6,7.6c-1.9,0.3-3.7,0.1-5.6-0.2C285.8,238.2,284.5,235.5,286.9,233.2z M226.3,255.4c5.6,0.4,11.1,0.7,16.7,1
			c-1,4.7-8.2,3.7-11.1,6.9C227.6,262.6,226.5,259.3,226.3,255.4z M240.1,267.2c-3.3,0.1-6.8-0.1-7.3-2.1c1.3-2.3,5.5-2.6,7.8-3.8
			c2.1-1.1,3.7-2.5,4.2-4.8c4.6,0.2,9.1,0.5,13.7,0.6c5.2,0.2,10.5,0.4,15.7,0.3c-2.3,3.4-8.1,4.3-11.7,4c-3.5-0.4-7-1.4-10.6-1.2
			C246.7,260.5,243,263.2,240.1,267.2z M250.5,266.6c0.5-1.1,1.6-1.5,2.9-1.4c1,0,2.1,0.3,2.5,1.3
			C254.2,266.5,252.4,266.5,250.5,266.6z M288.9,382.6c-0.1,41-0.3,82.1-0.4,123.1c0,7.3,0,14.7-0.1,22c-1.7-5.9-3.3-11.9-5-17.8
			c-1.1-3.8-2.3-6.7-2.3-10.1c0-12.4,0.1-24.9,0.1-37.3c0.1-41.7,0.3-83.4,0.4-125.1c0-10.4,0.1-20.8,0.1-31.2c2.4,0,4.9,0,7.3,0
			C289.1,331.7,289,357.2,288.9,382.6z M298,390.9c-0.1,35.6-0.2,71.2-0.3,106.8c0,3.8-0.3,5.1-1.4,8.9c-2,7-4,14.1-6.1,21.1
			c0.1-23.6,0.1-47.3,0.2-70.9c0.1-41,0.3-82.1,0.4-123.1c0-9.2,0.1-18.3,0.1-27.5c2.4,0,4.9,0,7.3,0.1
			C298.2,334.5,298.1,362.7,298,390.9z M299.4,304.6c-6.3-0.1-12.5-0.1-18.8-0.1c0-1,0-2,0-3c6.3,0,12.5,0.1,18.8,0.1
			C299.4,302.6,299.4,303.6,299.4,304.6z M298.5,291.6c2.9,0.4,4.4,2.6,3.6,5.4c-0.5,1.9-2.2,2.3-4,2.5c-1.7,0.2-3.4,0-5.1,0
			c-3.9,0-7.7,0-11.6,0c-3.1-0.2-3.9-2.4-3.6-4.8c0.3-2.2,2-2.8,4-3.1c1.7-0.2,3.7,0,5.5,0C291,291.6,294.9,291.2,298.5,291.6z
			 M296.8,286.4c0,1,0,2,0,3c-4.5-0.1-9-0.1-13.5,0c0-1,0-2,0-3C287.9,286.4,292.3,286.4,296.8,286.4z M297.3,277.2
			c0.3,1.9-1.5,2.2-2.6,3.2c-1.1,1.1-1.2,2.7-0.8,4.2c-2.7,0-5.4,0-8.1,0c0.3-1.1,0.3-2.3-0.2-3.3c-0.9-1.8-3.9-2.2-3.1-4.6
			c0.3-0.9,1-1.6,1.8-1.9c0.1,0,0.2,0,0.3-0.1c0.4-0.1,0.7-0.1,1.1,0c0.7,0.1,1.3,0.6,1.9,0.9c-1,2.5-0.7,7.1,2.8,6.7
			c2.9-0.4,2.9-4.7,1.9-6.9c0.2-0.1,0.4-0.2,0.6-0.3C294.7,274.3,297,275.2,297.3,277.2z M289.3,276.1c0.5,0,0.9,0,1.4-0.2
			c0.6,1.2,1.1,4-0.3,4.5c-1,0.4-1.5-1-1.5-1.7C288.7,277.9,288.9,276.9,289.3,276.1z M324.3,266.6c0.4-1,1.5-1.2,2.5-1.3
			c1.3,0,2.4,0.4,2.9,1.5C328,266.8,326.2,266.7,324.3,266.6z M334.7,267c-1,0-2-0.1-3.1-0.1c-0.6-2.3-2.5-3.4-4.8-3.3
			c-1.9,0-3.8,0.9-4.4,2.9c0,0,0,0.1,0,0.1c-1.4,0-2.8-0.1-4.2-0.1c-5.2-0.1-10.7-0.4-15.9,0.3c-1.9,0.2-5.2,0.9-6.8,2.4
			c-1.1,1.1-1.1,2.5-1,3.9c-0.9-0.1-1.8,0.1-2.6,0.5c-1,0.4-1.8,1.1-3,0.8c-0.6-0.1-1.2-0.6-1.7-0.9c-0.7-0.4-1.4-0.7-2.2-0.7
			c0,0-0.1,0-0.1,0c-0.3-3.9-2.7-5.6-7.1-6.2c-5.4-0.7-11-0.4-16.4-0.4c-1.2,0-2.5,0.1-3.7,0.1c0,0,0-0.1,0-0.1
			c-0.5-2-2.4-2.8-4.3-2.9c-2.3-0.1-4.2,1-4.8,3.3c-1,0-2,0.1-3.1,0.1c-0.7,0-1.9,0.1-3.2,0.2c2.4-2.9,5.4-4.8,9.4-5
			c4-0.2,7.8,1.2,11.8,1.4c4.5,0.2,10.4-1.6,12.6-5.9c1,0,2-0.1,3-0.1c1.9-0.1,4-0.1,5.8-0.7c2.3-0.7,2.3-2.4,2.2-4.7
			c0-0.7-0.6-0.9-1.1-0.8c-0.1,0-0.2-0.1-0.4-0.1c-3.1,0.1-3.4-2.6-3.4-5.1c-0.1-1.8,0.7-3.8,2.6-3.9c1.4-0.1,3,0.6,4.4,0.7
			c2.1,0.1,4.2-0.1,6.1-0.8c0,0,0.1,0,0.1,0c0,0,0,0,0.1,0c2.3,1,2.6,2.9,2.6,5.1c0,2.2-0.8,4.1-3.3,4.3c-0.1,0-0.1,0-0.2,0.1
			c-0.5-0.2-1.2,0.1-1.3,0.8c-0.6,5.3,3.9,5,8,5.2c1,0.1,2,0.1,3,0.1c2.1,4.3,8.1,6.1,12.5,6c3.8-0.1,7.4-1.4,11.2-1.3
			c4.2,0.2,7.4,2,10,5.1C336.6,267.2,335.5,267.1,334.7,267z M340.2,267.5c-2.9-4-6.6-6.7-11.7-7c-3.2-0.2-6.3,0.6-9.4,1
			c-3.9,0.5-10.4-0.1-12.9-3.9c5.2,0.1,10.5-0.1,15.7-0.2c4.6-0.1,9.1-0.3,13.7-0.5c0.5,2.3,2,3.7,4.1,4.8c2.3,1.1,6.4,1.5,7.8,3.8
			C347,267.4,343.6,267.6,340.2,267.5z"/>
		<ellipse transform="matrix(3.030945e-03 -1 1 3.030945e-03 88.3474 607.6001)" cx="348.9" cy="259.5" rx="1.7" ry="1.7"/>
		<path d="M292.2,260.5c-1.2-1.2-1.1-8.1-2-8.1c-0.9,0-0.6,6.6-2.1,8.1c-1.5,1.5-6.2,0.8-6.2,1.8c0,0.9,4.7,0.4,6.2,1.8
			c1.4,1.4,1.1,8.1,2,8.1c0.9,0,0.7-6.8,2.1-8.1c1.3-1.3,6.2-1,6.2-1.8C298.4,261.6,293.4,261.8,292.2,260.5z"/>
		<ellipse transform="matrix(1 -3.139107e-03 3.139107e-03 1 -1.9577 0.5036)" cx="159.5" cy="623.9" rx="1.7" ry="1.7"/>
		<path d="M283.9,628.2c-0.1-2.8-0.3-6-2.3-8.2c-0.7-0.8-1.5-1.3-2.4-1.7c-0.3-0.1-1.1-0.2-1.3-0.4c-0.7-0.6,0,0-0.5-0.8
			c-0.9-1.8-1.1-2.6-3.3-2.9c-2.7-0.5-5.7-0.1-8.5,0.1c-6.8,0.3-13.6,0.6-20.5,0.8c-3.7,0.1-7.5,0.1-11.2-0.1
			c-1.9-0.1-3.8-0.1-5.6-0.6c-2.9-0.8-4.1-1.8-4-4.6c1.2-0.5,2.1-1.5,2.5-2.9c0.4-1.3,0.1-2.7-0.8-3.7c-0.6-0.7-1.6-0.9-2.2-1.6
			c-0.7-0.8-0.6-2-0.2-2.9c0.7,0,1.3,0,2,0c0.5,0,0.9-0.4,0.9-0.9c0-1.4,0-2.9,0-4.3c6.3-0.5,7.1-8.2,2.6-10.7c0-0.1,0-0.1,0-0.2
			c0-1.6,0-3.2,0-4.8c0-0.2-0.1-0.4-0.2-0.5c0,0,0-0.1-0.1-0.1c0,0,0,0,0,0c-0.1-0.1-0.3-0.2-0.6-0.2c-0.1,0-0.2,0-0.3,0
			c0-10.6-0.1-21.2-0.1-31.7c-0.1-41.7-0.3-83.4-0.4-125.1c0-12.3-0.1-24.7-0.1-37c0-3.4-1.4-6.6-2.3-9.9
			c-2.3-8.1-4.6-16.1-6.9-24.2c0,0,0,0,0-0.1c0-0.1,0-0.1-0.1-0.2c0,0-0.1-0.1-0.1-0.1c0,0-0.1-0.1-0.1-0.1c-0.3-0.3-0.8-0.3-1.1,0
			c0,0-0.1,0.1-0.1,0.1c0,0-0.1,0.1-0.1,0.1c0,0-0.1,0.1-0.1,0.2c0,0,0,0,0,0.1c-2.5,9.1-5.1,18.2-7.6,27.3c-1,3.4-1.4,5.6-1.4,9.1
			c0.1,35.4,0.2,70.9,0.3,106.3c0.1,28.5,0.2,56.9,0.3,85.4c-0.1,0-0.2,0-0.3,0c-0.5,0-0.9,0.4-0.9,0.9c0,1.6,0,3.2,0,4.8
			c0,0,0,0,0,0c-1.9,0.8-2.8,2.5-2.8,5.1c0,3.6,1.9,5.5,5.4,5.7c0,0,0,0,0.1,0c0,1.4,0,2.9,0,4.3c0,0.5,0.4,0.9,0.9,0.9
			c0.5,0,1,0,1.5,0c0.2,0.4,0.3,0.9,0.3,1.4c0,1.6-0.7,1.6-1.6,2.3c-0.6,0.4-1.2,0.9-1.6,1.6c-0.7,1.4-0.5,3,0.3,4.3
			c0.5,0.7,1.1,1.4,1.9,1.8c-0.1,3-1.3,4.1-4.5,4.8c-1.9,0.4-3.9,0.4-5.8,0.4c-3.6,0.1-7.3,0.1-10.9,0.1c-6.6-0.1-13.1-0.4-19.7-0.6
			c-2.8-0.1-5.8-0.5-8.6,0c-0.8,0.2-1.5,0.4-2.1,1c-0.7,0.8-0.4,1.6-0.9,2.3c-0.5,0.8-3.2,1.4-4.3,2.8c-1.8,2.2-1.9,5.3-2,8
			c0,0.4,0.4,0.9,0.9,0.9c9.4-0.7,18.9-1.2,28.3-1.6c6.7-0.3,13.4-0.5,20.2-0.5c2.6,0,5.1,0,7.7,0.3c2.6,0.2,3.7,0.1,3.8,2.6
			c-2.2,0-3.8,1-4.5,3.2c-0.5,1.9-0.9,4.7,0,6.6c0.7,1.6,2.5,2.8,4.2,2.7c-0.6,1-1.1,2.1-1.2,3.5c-0.2,2.1,0.5,3.7,2,5
			c-2.8,7.9-3.2,16.6-2.6,24.9c0.4,5.8,0.9,12.3,3,17.8c-1.3,1.4-1.6,3.6-1.1,5.4c0.7,2.4,2.9,3.8,5.3,3.8c2.5,0,4.6-1.7,5.3-4.1
			c0.5-1.8,0.2-3.8-1.1-5.1c2.1-5.5,2.6-11.9,2.9-17.7c0.2-3.4,0.2-6.9,0-10.4c0-0.2,0-0.3,0-0.5c-0.1-1.9-0.3-3.7-0.6-5.5
			c0-0.1,0-0.2-0.1-0.4c-0.5-2.8-1.1-5.5-2.1-8.2c1.4-1.1,2-2.8,1.9-4.7c-0.1-1.5-0.5-2.6-1.2-3.7c0,0,0.1,0,0.1,0
			c0.2,0.1,0.3,0.1,0.6,0c3.2-1.3,4-4,3.8-7.2c-0.2-3.1-1.7-5.3-4.9-5.6c0-2.3,1.5-2.2,3.8-2.4c2.6-0.3,5.1-0.3,7.7-0.3
			c6.7-0.1,13.5,0.1,20.2,0.4c9.4,0.3,18.9,0.8,28.3,1.4C283.5,629.1,283.9,628.6,283.9,628.2z M257.8,616.2
			c-0.5,1.1-1.6,1.5-2.9,1.5c-1,0-2.1-0.3-2.5-1.3C254.2,616.3,256,616.3,257.8,616.2z M224.3,376.4c1.1,3.8,1.4,5,1.4,8.9
			c0.1,35.6,0.2,71.2,0.3,106.8c0.1,28.2,0.2,56.4,0.3,84.6c-2.4,0-4.9,0-7.3,0.1c0-9.2-0.1-18.3-0.1-27.5
			c-0.1-41-0.3-82.1-0.4-123.1c-0.1-23.6-0.1-47.3-0.2-70.9C220.2,362.3,222.3,369.4,224.3,376.4z M211.5,373.1
			c1.7-5.9,3.3-11.9,5-17.8c0,7.3,0,14.7,0.1,22c0.1,41,0.3,82.1,0.4,123.1c0.1,25.5,0.2,50.9,0.2,76.4c-2.4,0-4.9,0-7.3,0
			c0-10.4-0.1-20.8-0.1-31.2c-0.1-41.7-0.3-83.4-0.4-125.1c0-12.4-0.1-24.9-0.1-37.3C209.2,379.8,210.4,376.9,211.5,373.1z
			 M227.4,578.5c0,1,0,2,0,3c-6.3,0-12.5,0-18.8,0.1c0-1,0-2,0-3C214.9,578.5,221.2,578.5,227.4,578.5z M209.9,591.5
			c-2-0.3-3.7-0.9-4-3.1c-0.3-2.5,0.4-4.6,3.6-4.8c3.9,0,7.7,0,11.6,0c1.7,0,3.4-0.2,5.1,0c1.8,0.2,3.5,0.6,4,2.5
			c0.8,2.9-0.7,5.1-3.6,5.4c-3.6,0.4-7.5,0-11.2,0C213.6,591.5,211.6,591.7,209.9,591.5z M211.4,596.7c0-1,0-2,0-3c4.5,0,9,0,13.5,0
			c0,1,0,2,0,3C220.3,596.6,215.8,596.6,211.4,596.7z M210.5,606.3c-0.7-2.5,2.2-2.9,3.1-4.6c0.5-1,0.5-2.2,0.2-3.3
			c2.7,0,5.4,0,8.1,0c-0.4,1.5-0.3,3.1,0.8,4.2c1,1,2.9,1.4,2.6,3.3c-0.3,2.1-2.7,3-4.4,2.2c-0.2-0.1-0.4-0.2-0.6-0.3
			c1-2.2,1.1-6.5-1.9-6.9c-3.5-0.5-3.9,4.1-2.8,6.7c-0.6,0.3-1.2,0.8-1.9,0.9c-0.4,0.1-0.7,0-1.1,0c-0.1,0-0.2-0.1-0.3-0.1
			C211.5,607.9,210.8,607.2,210.5,606.3z M218.7,607.1c-0.5-0.1-0.9-0.2-1.4-0.2c-0.4-0.8-0.6-1.8-0.5-2.7c0.1-0.7,0.5-2.1,1.5-1.7
			C219.7,603.1,219.2,605.9,218.7,607.1z M184,616.6c-0.4,1-1.5,1.2-2.5,1.3c-1.3,0.1-2.4-0.4-2.9-1.5
			C180.3,616.5,182.2,616.6,184,616.6z M154.3,627.6c0.2-3.9,1.3-7.2,5.6-7.9c2.9,3.1,10.1,2.2,11.1,6.9
			C165.4,626.9,159.8,627.2,154.3,627.6z M186.4,625.9c-4.6,0.2-9.1,0.4-13.7,0.6c-0.5-2.3-2-3.7-4.2-4.8c-2.3-1.1-6.4-1.5-7.8-3.8
			c0.5-1.9,4-2.2,7.3-2.1c3,4,6.6,6.6,11.7,6.9c3.6,0.2,7-0.9,10.6-1.2c3.6-0.4,9.4,0.6,11.7,4C196.9,625.5,191.6,625.7,186.4,625.9
			z M222,698.7c-0.5,1.8-2.1,2.8-4,2.7c-3.1-0.2-4.7-4.5-2.2-6.5c0.2-0.1,0.3-0.2,0.3-0.4c0.1-0.2,0-0.4-0.1-0.6
			c-0.1-0.3-0.2-0.5-0.3-0.8c1.7-1.8,3.8-2.7,6.2-2.9c-0.3,1.3-0.7,2.6-1.2,3.8c-0.2,0.4,0,0.8,0.3,0.9c0,0,0,0,0.1,0.1
			C222.3,695.7,222.3,697.4,222,698.7z M222.4,688.3c-2.7,0.2-5.2,1-7.2,2.8c-0.3-1.1-0.6-2.2-0.8-3.3c0.1,0,0.1-0.1,0.2-0.1
			c2.3-2.4,5.3-3.3,8.6-3.5C222.9,685.6,222.6,687,222.4,688.3z M223.3,682.4c-3.5,0.2-6.7,1.1-9.3,3.4c-0.2-1.4-0.4-2.8-0.5-4.2
			c2.9-2.4,6.5-3.2,10.2-3.4C223.5,679.7,223.4,681,223.3,682.4z M223.7,676.1c0,0.1,0,0.3,0,0.4c-3.8,0.2-7.4,1-10.5,3.1
			c-0.1-1.2-0.2-2.3-0.2-3.5c0,0,0-0.1,0-0.1c0.1,0,0.1-0.1,0.2-0.1c3.1-2.4,6.9-3.3,10.7-3.5C223.8,673.6,223.8,674.9,223.7,676.1z
			 M223.9,670.7c-4,0.2-7.8,1.1-11.1,3.3c-0.1-1.3-0.1-2.6-0.1-3.9c0,0,0,0,0,0c3.2-2.5,7.1-3.3,11-3.5
			C223.9,667.9,223.9,669.3,223.9,670.7z M223.7,664.8c-3.9,0.2-7.6,1.1-10.9,3.1c0-1.3,0.1-2.5,0.2-3.8c2.9-2.4,6.6-3.3,10.2-3.5
			C223.4,662,223.6,663.4,223.7,664.8z M222.9,658.9c-3.5,0.2-6.8,1-9.7,2.9c0.1-1.2,0.3-2.4,0.6-3.6c2.2-2.3,5.1-3.2,8.2-3.5
			C222.4,656.1,222.7,657.5,222.9,658.9z M214.4,655.4c0.3-1.3,0.7-2.6,1.2-3.8c0-0.1,0-0.2,0-0.2c1.5-0.5,3.7-0.8,5.4,0.1
			c0,0,0,0.1,0,0.1c0.2,0.5,0.3,1,0.5,1.4C218.9,653.3,216.5,654,214.4,655.4z M221.6,649.9c-2.1-1.1-4.5-0.9-6.7-0.1
			c-2.4-2.3-1.1-5,0.4-7.4c1.9-0.3,3.7-0.5,5.6-0.2C222.3,644.4,224.2,647.9,221.6,649.9z M232.2,625.5c-1,0-2,0.1-3,0.1
			c-4,0.2-8.6-0.1-8,5.2c0.1,0.7,0.8,0.9,1.3,0.8c0.1,0,0.1,0,0.2,0.1c2.5,0.1,3.3,2,3.3,4.3c0,2.2-0.3,4.2-2.6,5.1c0,0,0,0-0.1,0
			c0,0,0,0-0.1,0c-2-0.7-4-0.9-6.1-0.8c-1.4,0.1-3.1,0.7-4.4,0.7c-1.9-0.1-2.6-2.1-2.6-3.9c0.1-2.5,0.3-5.1,3.4-5.1
			c0.1,0,0.3,0,0.4-0.1c0.5,0.1,1.1-0.2,1.1-0.8c0.1-2.4,0.1-4-2.2-4.7c-1.8-0.6-3.9-0.6-5.8-0.7c-1,0-2-0.1-3-0.1
			c-2.1-4.3-8.1-6.1-12.6-5.9c-4,0.2-7.8,1.6-11.8,1.4c-4-0.2-7-2.2-9.4-5c1.3,0.1,2.4,0.2,3.2,0.2c1,0,2,0.1,3.1,0.1
			c0.6,2.3,2.5,3.3,4.8,3.3c1.9-0.1,3.8-0.9,4.3-2.9c0,0,0-0.1,0-0.1c1.2,0,2.5,0.1,3.7,0.1c5.4,0.1,11,0.4,16.4-0.4
			c4.4-0.6,6.7-2.2,7.1-6.2c0,0,0.1,0,0.1,0c0.8,0,1.5-0.3,2.2-0.7c0.5-0.3,1.1-0.7,1.7-0.9c1.2-0.3,2,0.4,3,0.8
			c0.8,0.4,1.7,0.5,2.6,0.5c-0.1,1.4-0.1,2.9,1,3.9c1.5,1.5,4.8,2.2,6.8,2.4c5.2,0.6,10.6,0.4,15.9,0.3c1.4,0,2.8-0.1,4.2-0.1
			c0,0,0,0.1,0,0.1c0.6,2,2.4,2.8,4.4,2.9c2.3,0.1,4.2-1,4.8-3.3c1,0,2-0.1,3.1-0.1c0.7,0,1.9-0.2,3.2-0.3c-2.6,3.1-5.7,5-10,5.1
			c-3.8,0.1-7.4-1.2-11.2-1.3C240.3,619.4,234.3,621.2,232.2,625.5z M263.7,626.2c-4.6-0.2-9.1-0.4-13.7-0.5
			c-5.2-0.2-10.5-0.3-15.7-0.2c2.5-3.8,9-4.5,12.9-3.9c3.1,0.4,6.2,1.2,9.4,1c5.1-0.3,8.8-3,11.7-7c3.3-0.1,6.8,0.1,7.4,2
			c-1.3,2.3-5.5,2.7-7.8,3.8C265.7,622.5,264.1,623.9,263.7,626.2z M265.4,626.3c1-4.7,8.2-3.8,11.1-7c4.3,0.7,5.4,4,5.6,7.9
			C276.5,626.9,271,626.5,265.4,626.3z"/>
		<ellipse transform="matrix(1 -3.139022e-03 3.139022e-03 1 -1.9559 0.8722)" cx="276.9" cy="623.5" rx="1.7" ry="1.7"/>
		<path d="M220.2,618.9c-1.3-1.3-1.2-8.1-2.1-8.1c-0.9,0-0.6,6.7-2,8.1c-1.4,1.4-6.2,0.9-6.2,1.8c0,0.9,4.7,0.3,6.2,1.8
			s1.2,8.1,2.1,8.1c0.9,0,0.8-6.9,2-8.1s6.2-1,6.2-1.8C226.4,619.9,221.5,620.2,220.2,618.9z"/>
		<polygon points="150.8,263.9 190.6,261.2 151.2,258.5 178,228.8 148.4,255.7 145.7,210.4 143,255.7 113.3,228.8 140.1,258.5 
			100.7,261.2 140.1,263.9 113.3,293.6 143,266.7 145.7,311.9 148.4,266.7 178,293.6 		"/>
		<path d="M345.4,592.7c-1.7,0-3.4,0.1-5.1,0.3c18.4,2.8,32.4,18.8,32.1,38c-0.3,19.1-14.8,34.7-33.3,36.9c1.7,0.3,3.3,0.4,5.1,0.4
			c20.9,0.3,38.1-16.3,38.4-37.2C382.9,610.3,366.3,593.1,345.4,592.7z"/>
		<path d="M211,313.9c1,0.4,1.9,0.8,2.9,1.3c0.6,0.3,1.2,0.5,1.7,0.8c0.1,0.1,0.2,0.1,0.3,0.1c0,0,0,0,0,0.1c1,1.8,1.3,4.4,1.9,6.5
			c0.1,0.4,0.7,0.4,0.8,0c0.6-2,0.9-4.6,1.9-6.5c0,0,0,0,0-0.1c0,0,0.1,0,0.2-0.1c0.5-0.4,1.2-0.6,1.8-0.8c1-0.4,1.9-0.9,2.9-1.3
			c0.4-0.2,0.2-0.7-0.1-0.8c-1-0.4-1.9-0.8-2.9-1.2c-1.1-0.5-1.8-0.5-2.1-1.6c-0.7-2-1.1-4.1-1.7-6.2c0,0,0,0,0-0.1c0,0,0,0,0-0.1
			c-0.1-0.1-0.2-0.2-0.3-0.2c-0.1,0-0.3,0-0.4,0.2c0,0,0,0.1,0,0.1c0,0,0,0,0,0c0,0,0,0,0,0c0,0,0,0,0,0c-0.5,2-1,4.1-1.6,6.2
			c-0.5,1.6-3.4,2.2-5,2.8C210.8,313.2,210.6,313.7,211,313.9z M216.7,311.2c0.6-1,0.7-2.8,1-3.9c0.1-0.5,0.3-1,0.4-1.5
			c0.1,0.5,0.3,1,0.4,1.5c0.3,1.2,0.5,2.9,1.1,3.9c0.6,1.1,2.8,1.8,4.4,2.3c-0.8,0.3-1.5,0.7-2.3,1c-0.6,0.3-1.5,0.5-2,1.1
			c-0.6,0.8-0.7,2.6-1,3.5c-0.2,0.6-0.3,1.2-0.5,1.8c-0.2-0.6-0.3-1.2-0.5-1.8c-0.3-1-0.4-2.7-1-3.5c-0.4-0.6-1.3-0.8-2-1.1
			c-0.8-0.3-1.6-0.7-2.3-1C213.9,313,216,312.4,216.7,311.2z"/>
		<path d="M297.3,574.3c-1-0.4-1.9-0.8-2.9-1.2c-1.1-0.5-1.8-0.5-2.1-1.6c-0.7-2-1.1-4.1-1.7-6.2c0,0,0,0,0-0.1c0,0,0,0,0-0.1
			c-0.1-0.1-0.2-0.2-0.3-0.2c-0.1,0-0.3,0-0.4,0.2c0,0,0,0.1,0,0.1c0,0,0,0,0,0c0,0,0,0,0,0c0,0,0,0,0,0c-0.5,2-1,4.1-1.6,6.2
			c-0.5,1.6-3.4,2.2-5,2.8c-0.3,0.1-0.5,0.6-0.1,0.8c1,0.4,1.9,0.8,2.9,1.3c0.6,0.3,1.2,0.5,1.7,0.8c0.1,0.1,0.2,0.1,0.3,0.1
			c0,0,0,0,0,0.1c1,1.8,1.3,4.4,1.9,6.5c0.1,0.4,0.7,0.4,0.8,0c0.6-2,0.9-4.6,1.9-6.5c0,0,0,0,0-0.1c0,0,0.1,0,0.2-0.1
			c0.5-0.4,1.2-0.6,1.8-0.8c1-0.4,1.9-0.9,2.9-1.3C297.8,574.9,297.6,574.4,297.3,574.3z M293.7,575.8c-0.6,0.3-1.5,0.5-2,1.1
			c-0.6,0.8-0.7,2.6-1,3.5c-0.2,0.6-0.3,1.2-0.5,1.8c-0.2-0.6-0.3-1.2-0.5-1.8c-0.3-1-0.4-2.7-1-3.5c-0.4-0.6-1.3-0.8-2-1.1
			c-0.8-0.3-1.5-0.7-2.3-1c1.6-0.5,3.7-1.2,4.4-2.3c0.6-1,0.7-2.8,1-3.9c0.1-0.5,0.3-1,0.4-1.5c0.1,0.5,0.3,1,0.4,1.5
			c0.3,1.2,0.5,2.9,1.1,3.9c0.6,1.1,2.8,1.8,4.4,2.3C295.3,575.1,294.5,575.4,293.7,575.8z"/>
	</g>
</g>
</svg>
