<?xml version="1.0" encoding="utf-8"?>
<!-- Generator: Adobe Illustrator 21.1.0, SVG Export Plug-In . SVG Version: 6.00 Build 0)  -->
<svg version="1.1" xmlns="http://www.w3.org/2000/svg" xmlns:xlink="http://www.w3.org/1999/xlink" x="0px" y="0px"
	 viewBox="0 0 504 864" style="enable-background:new 0 0 504 864;" xml:space="preserve">
<g id="Слой_1">
</g>
<g id="Слой_2">
	<g>
		<path d="M503.8,18.2c-1.6-17.9-18.7-16.3-31.6-16.3c-45.9,0-91.8,0-137.6,0c-63.2,0-126.3,0-189.5,0c-40.6,0-81.2,0-121.8,0
			c-2.6,0-5.3-0.2-8,0.2c-9.5,1.2-15,9.2-15.2,18.2c-0.2,7.3,0,14.5,0,21.8c0,37.4,0,74.9,0,112.3c0,57,0,114.1,0,171.1
			c0,64.3,0,128.6,0,192.9c0,58.4,0,116.7,0,175.1c0,40.1,0,80.2,0,120.3c0,9.1,0,18.2,0,27.3c0,11.7,6.7,20.5,19.2,20.7
			c35.9,0.6,71.9,0,107.9,0c62.4,0,124.9,0,187.3,0c49.7,0,99.5,0,149.2,0c7.6,0,15.2,0,22.9,0c0.4,0,0.8-0.1,1.2-0.2
			c14.4-1.8,16.1-13.8,16.1-25.5c0-11.4,0-22.8,0-34.3c0-43.4,0-86.9,0-130.3c0-59.9,0-119.8,0-179.8c0-63.9,0-127.7,0-191.6
			c0-55.3,0-110.6,0-165.9c0-33.7,0-67.3,0-101C503.9,28.3,504.2,23.2,503.8,18.2z M486.6,852.8c-28.3,0-56.6,0-84.9,0
			c-59.9,0-119.8,0-179.7,0c-54,0-108,0-162,0c-13.1,0-26.1,0-39.2,0c-5.6,0-11-1.3-11.7-8.3c-0.2-1.5,0-3,0-4.5c0-26.5,0-53,0-79.5
			c0-50,0-100,0-149.9c0-61.8,0-123.6,0-185.4c0-61.4,0-122.7,0-184.1c0-48.9,0-97.7,0-146.6c0-24.2-0.8-48.6,0-72.7
			c0.2-5.3,1.6-10.1,8.3-10.8c2.2-0.2,4.5,0,6.7,0c14.8,0,29.6,0,44.5,0c55.6,0,111.3,0,166.9,0c58.9,0,117.8,0,176.7,0
			c18.9,0,37.9,0,56.8,0c8.1,0,24.7-3.1,25.9,8.4c0.5,5.2,0,10.8,0,16.1c0,13.5,0,27.1,0,40.6c0,45.5,0,91.1,0,136.6
			c0,60.1,0,120.2,0,180.3c0,62.6,0,125.2,0,187.7c0,52.8,0,105.6,0,158.4c0,31.4,0,62.7,0,94.1C494.8,840.3,496.9,852,486.6,852.8z
			"/>
		<path d="M460,790.9c1.2,0.1,2.4-0.7,2.4-2.2c0-23.7,0-47.4,0-71.1c0-56.4,0-112.8,0-169.2c0-68.7,0-137.4,0-206
			c0-59,0-117.9,0-176.9c0-19.6,0-39.2,0-58.8c0-8.9,1.3-19,0-27.9c-0.1-0.4,0-0.8,0-1.2c0-0.8-0.3-1.3-0.8-1.7
			c0.1-1.2-0.6-2.5-2.2-2.6c-13.1-0.5-25.3-13.8-25.8-26.7c0-0.5-0.2-0.8-0.4-1.1c-0.3-0.6-1-1.1-1.9-1.1c-40.5,0-80.9,0-121.4,0
			c-64.5,0-129,0-193.6,0c-14.9,0-29.7,0-44.6,0c-0.9,0-1.6,0.5-1.9,1.1c-0.2,0.3-0.3,0.7-0.4,1.2C69.1,59.5,57,72.8,43.9,73.3
			c-1.8,0.1-2.5,1.9-2,3.2c-0.1,0.3-0.2,0.6-0.2,1c0,23.7,0,47.4,0,71.1c0,56.4,0,112.8,0,169.2c0,68.7,0,137.4,0,206
			c0,59,0,117.9,0,176.9c0,19.6,0,39.2,0,58.8c0,8.9-1.3,19,0,27.9c0.1,0.4,0,0.8,0,1.2c0,0.9,0.5,1.6,1.1,1.9
			c0.3,0.2,0.7,0.3,1.2,0.4c13,0.5,25.3,13.3,25.8,26.2c0,0.5,0.2,0.8,0.4,1.1c0.3,0.6,1,1.1,1.9,1.1c40.5,0,80.9,0,121.4,0
			c64.5,0,129,0,193.6,0c14.9,0,29.7,0,44.6,0c0.9,0,1.6-0.5,1.9-1.1c0.2-0.3,0.3-0.7,0.4-1.2c0.5-12.9,12.7-25.7,25.8-26.2
			C459.6,791,459.8,790.9,460,790.9z M429.3,814.9c-39.8,0-79.6,0-119.3,0c-64.5,0-129,0-193.6,0c-14.2,0-28.3,0-42.5,0
			c-1.7-13.9-13.9-26.5-27.8-28.3c0-23,0-46,0-69.1c0-56.4,0-112.8,0-169.2c0-68.7,0-137.4,0-206c0-59,0-117.9,0-176.9
			c0-19.6,0-39.2,0-58.8c0-8.9,1.3-19,0-27.9c-0.1-0.4,0-0.8,0-1.2c14-1.8,26.1-14.9,27.8-28.7c39.8,0,79.6,0,119.3,0
			c64.5,0,129,0,193.6,0c14.2,0,28.3,0,42.5,0c1.7,14.1,14.3,27.4,28.5,28.8c0,23.7,0,47.3,0,71c0,56.4,0,112.8,0,169.2
			c0,68.7,0,137.4,0,206c0,59,0,117.9,0,176.9c0,19.6,0,39.2,0,58.8c0,8.6-1.2,18.4-0.1,27C443.6,788.1,431.1,800.9,429.3,814.9z"/>
		<path d="M238.8,102.7c0.3,0,0.6,0.1,0.9,0.4c0.3,0.3,0.5,0.4,0.6,0.2c0.1-0.2,1.5-0.4,4-0.4c2.1,0,3.2,0.1,3.2,0.3
			c0,0.2,0.2,0.3,0.5,0.3c0.4,0,0.6-0.1,0.6-0.2c0-0.1,0.2-0.3,0.6-0.5c0.4-0.2,0.6-0.4,0.6-0.6c0-0.9-0.7-1.4-1.9-1.5l-1.3-0.1
			l0.1-6.7c0.1-4.5,0.2-6.8,0.3-7c0.1-0.1,0.2-0.8,0.3-1.9c0.1-2.1,0.4-3.2,0.7-3.2c0.2,0,0.4-0.1,0.4-0.3c0-0.2,0.2-0.3,0.7-0.3
			c0.4,0,0.8-0.1,1-0.3c0.3-0.2,0.4-0.5,0.4-0.7c0-0.3-0.2-0.6-0.5-0.8c-0.3-0.2-1.4-0.3-3.4-0.3c-2,0-2.9,0.1-2.9,0.3
			c0,0.1-0.3,0.2-0.9,0.2c-0.6,0-0.9,0.1-0.9,0.4s-0.1,0.4-0.3,0.4c-0.2,0-0.3,0.2-0.3,0.6c0,0.5,0.1,0.8,0.4,0.9
			c0.3,0.1,0.4,0.9,0.4,2.5c0,1.6,0.1,2.4,0.3,2.5c0.2,0.1,0.3,0.8,0.3,2.2c0,1.3-0.1,2-0.3,2.1c-0.2,0.1-0.4,1.5-0.4,4.3
			c-0.1,2.4-0.2,3.9-0.4,4.3c-0.2,0.5-0.8,0.8-1.8,0.9c-0.6,0-0.9,0.1-1,0.2c-0.1,0.1-0.2,0.4-0.2,0.8
			C238.4,102.4,238.6,102.7,238.8,102.7z M244.9,88c0.3,0,0.4,0.2,0.4,0.6c0,0.4-0.1,0.5-0.4,0.5s-0.4-0.2-0.4-0.5
			C244.5,88.2,244.6,88,244.9,88z M243.3,96c0.2,0,0.4,0.1,0.4,0.3c0,0.2-0.1,0.3-0.4,0.3c-0.3,0-0.4-0.1-0.4-0.3
			C242.9,96.1,243,96,243.3,96z"/>
		<path d="M253.8,102.7c0.3,0,0.6,0.1,0.9,0.4c0.3,0.3,0.5,0.4,0.6,0.2c0.1-0.2,1.5-0.4,4-0.4c2.1,0,3.2,0.1,3.2,0.3
			c0,0.2,0.2,0.3,0.5,0.3c0.4,0,0.6-0.1,0.6-0.2c0-0.1,0.2-0.3,0.6-0.5c0.4-0.2,0.6-0.4,0.6-0.6c0-0.9-0.7-1.4-1.9-1.5l-1.3-0.1
			l0.1-6.7c0.1-4.5,0.2-6.8,0.3-7c0.1-0.1,0.2-0.8,0.3-1.9c0.1-2.1,0.4-3.2,0.7-3.2c0.2,0,0.4-0.1,0.4-0.3c0-0.2,0.2-0.3,0.7-0.3
			c0.4,0,0.8-0.1,1-0.3c0.3-0.2,0.4-0.5,0.4-0.7c0-0.3-0.2-0.6-0.5-0.8c-0.3-0.2-1.4-0.3-3.4-0.3c-2,0-2.9,0.1-2.9,0.3
			c0,0.1-0.3,0.2-0.9,0.2c-0.6,0-0.9,0.1-0.9,0.4s-0.1,0.4-0.3,0.4c-0.2,0-0.3,0.2-0.3,0.6c0,0.5,0.1,0.8,0.4,0.9
			c0.3,0.1,0.4,0.9,0.4,2.5c0,1.6,0.1,2.4,0.3,2.5c0.2,0.1,0.3,0.8,0.3,2.2c0,1.3-0.1,2-0.3,2.1c-0.2,0.1-0.4,1.5-0.4,4.3
			c-0.1,2.4-0.2,3.9-0.4,4.3c-0.2,0.5-0.8,0.8-1.8,0.9c-0.6,0-0.9,0.1-1,0.2c-0.1,0.1-0.2,0.4-0.2,0.8
			C253.4,102.4,253.6,102.7,253.8,102.7z M259.9,88c0.3,0,0.4,0.2,0.4,0.6c0,0.4-0.1,0.5-0.4,0.5c-0.3,0-0.4-0.2-0.4-0.5
			C259.5,88.2,259.6,88,259.9,88z M258.3,96c0.2,0,0.4,0.1,0.4,0.3c0,0.2-0.1,0.3-0.4,0.3c-0.3,0-0.4-0.1-0.4-0.3
			C257.9,96.1,258,96,258.3,96z"/>
		<path d="M154.6,785.3c0.1,0,0.2-0.2,0.2-0.5c0-0.2,0-0.4-0.1-0.4c-0.1,0-0.1-0.1-0.1-0.3c0-0.2,0.1-0.4,0.2-0.6
			c0.1-0.3,0.1-0.5-0.2-0.6c-0.2-0.2-0.5-0.3-0.9-0.3c-0.5,0-0.8,0.1-1.1,0.3c-0.3,0.2-0.4,0.3-0.5,0.2c-0.1-0.1-0.4-0.1-0.8,0
			c-0.5,0.1-1.4,0.2-2.6,0.2c-0.9,0-1.4,0-1.5-0.1c-0.1-0.1-0.2,0-0.4,0.2c-0.1,0.1-0.3,0.2-0.4,0.2c-0.2,0-0.4,0-0.7-0.1
			c-0.7-0.2-1.1-0.2-1.3-0.2c-0.1,0-0.2,0-0.2,0c-0.1,0-0.3,0.1-0.4,0.3c-0.1,0.2-0.2,0.4-0.2,0.5c0,0.1,0,0.1,0.1,0.2
			c0,0,0.1,0.2,0.1,0.5c0,0.1,0,0.2-0.1,0.3c-0.1,0-0.2,0.1-0.3,0.1c-0.3,0-0.5,0.1-0.5,0.3c0,0,0,0.1,0.1,0.2
			c0.1,0.1,0.1,0.3,0.1,0.6c0,0.3-0.1,0.4-0.1,0.5c0,0.5,0.2,0.8,0.6,0.8c0.3,0,0.4-0.1,0.4-0.2c0-0.1,0.1-0.2,0.2-0.2
			c0.1,0,0.1,0,0.2-0.1c0,0,0-0.1,0-0.2c0-0.1-0.1-0.2-0.2-0.2c-0.1-0.1-0.1-0.1-0.1-0.2c0,0,0-0.1,0-0.1c0,0,0-0.1,0.1-0.1
			c0,0,0.1,0,0.2-0.1c0.2-0.1,0.2-0.2,0.2-0.3c0,0,0-0.1,0-0.2c0-0.1,0-0.1,0-0.2c0-0.1,0-0.2,0.1-0.2c0.1-0.1,0.1-0.3,0-0.6
			c-0.1-0.3-0.1-0.4,0-0.4c0.1,0,0.1,0.1,0.1,0.2s0.2,0.2,0.5,0.4c0.4,0.1,0.7,0.2,1.1,0.2c0.4,0,0.7,0.1,0.8,0.3
			c0.2,0.2,0.3,0.2,0.5,0.2c0.1,0,0.1,0,0.1,0c0.1,0,0.1,0,0,0.1c-0.3,0.3-0.4,2.2-0.5,5.8c0,0.8-0.1,1.2-0.3,1.4
			c-0.2,0.1-0.3,0.3-0.3,0.4c0,0.1-0.3,0.2-0.8,0.2l-0.7,0.1l-0.1,0.5c0,0,0,0.1,0,0.1c0,0,0,0.1,0,0.1c0,0.2,0.1,0.4,0.4,0.7
			c0.3,0.3,0.5,0.4,0.7,0.4c0.1,0,0.1,0,0.1-0.1s0-0.1-0.1-0.1c-0.1,0-0.1,0-0.1-0.1c0-0.1,0.2-0.1,0.5-0.1c0.1,0,0.4,0,0.8,0
			c0.4,0,0.7,0,0.9,0c0.6,0,0.9-0.1,1.1-0.2c0.1-0.1,0.3-0.2,0.6-0.1c0.2,0.1,0.3,0,0.4-0.1c0.1-0.1,0.2-0.1,0.3-0.1
			c0.1,0,0.3-0.1,0.5-0.2c0.1-0.1,0.2-0.2,0.2-0.3c0-0.1-0.1-0.2-0.2-0.5c-0.2-0.3-0.3-0.4-0.5-0.4c-0.1,0-0.2-0.1-0.2-0.2
			c0-0.1-0.1-0.2-0.3-0.1c0,0-0.1,0-0.1,0c-0.1,0-0.1,0-0.1,0c-0.1,0-0.2,0-0.3-0.1c0-0.1-0.1-0.3-0.1-0.5v-0.4c0-0.5,0-0.8,0-0.9
			c0-0.1,0.1-0.2,0.2-0.2c0.2,0,0.2-0.1,0.2-0.4c0-0.3-0.1-0.5-0.2-0.5c-0.1,0-0.2-0.4-0.2-1.1c0-0.8,0.1-1.2,0.2-1.4
			c0.1-0.1,0.2-0.5,0.2-1.2c0-0.7,0.1-1,0.1-1.1c0.1-0.2,0.5-0.2,1.2-0.2c1,0,1.5,0.1,1.6,0.4c0,0.1,0.1,0.2,0.4,0.5
			c0.2,0.2,0.3,0.4,0.3,0.8c0,0.3,0.1,0.5,0.1,0.5c0,0.1,0.2,0.1,0.4,0.1c0.2,0,0.4,0,0.4-0.1c0-0.1,0.1-0.2,0.3-0.2
			c0.2-0.1,0.3-0.2,0.3-0.4c0-0.2-0.1-0.4-0.2-0.5C154.5,785.4,154.5,785.3,154.6,785.3z"/>
		<path d="M177.5,782.4c-0.1,0-0.3,0-0.5,0c-0.2,0-0.4,0-0.4,0c-0.4,0-0.6,0-0.7,0.1c-0.1,0-0.3,0.1-0.4,0.3
			c-0.2,0.2-0.3,0.3-0.3,0.4c0,0.1,0,0.1,0.2,0.2c0.3,0.2,0.5,0.2,0.7,0.2c0.3,0,0.4,0.1,0.5,0.3c0.1,0.2,0,0.3-0.1,0.4
			c-0.1,0-0.2,0.2-0.2,0.6s-0.1,0.6-0.2,0.6c-0.2,0.1-0.2,0.2-0.2,0.4v0.4c0,0.6-0.1,0.9-0.3,0.9c-0.1,0-0.2,0.1-0.3,0.3
			c0,0.2-0.1,0.7-0.3,1.5c-0.1,0.4-0.2,0.6-0.4,0.6c-0.1,0-0.2,0.1-0.2,0.2c0,0.1,0,0.2-0.2,0.2c-0.3,0-0.4-0.1-0.5-0.2
			c-0.1-0.2-0.2-0.5-0.3-0.9c-0.1-0.4-0.2-1-0.2-1.7c-0.1-0.5-0.2-0.8-0.3-0.9c-0.1-0.1-0.1-0.4-0.1-0.7c0-0.3,0-0.5-0.1-0.5
			c-0.1,0-0.1-0.1-0.1-0.4c0-0.2-0.1-0.4-0.2-0.5c-0.1-0.1-0.2-0.1-0.2-0.2c0-0.1,0.2-0.2,0.6-0.2c0.4,0,0.7-0.1,0.9-0.3
			c0.1-0.1,0.2-0.2,0.2-0.3c0-0.1,0-0.2-0.1-0.4c-0.1-0.2-0.3-0.4-0.6-0.5c-0.3-0.1-0.8-0.1-1.6-0.1c-0.6,0-1-0.1-1-0.3
			c-0.1-0.2-0.1-0.3-0.2-0.3c-0.1,0-0.2,0.1-0.5,0.3s-0.4,0.3-0.5,0.3c-0.3,0-0.5,0.2-0.6,0.6v0.1l0,0.1c0,0.3,0.3,0.6,0.9,0.7
			c0.1,0,0.3,0.1,0.4,0.1c0.1,0.1,0.1,0.2,0.1,0.2c0,0.1-0.1,0.1-0.2,0.1c-0.1,0-0.1,0.2-0.1,0.6s-0.1,0.6-0.2,0.6
			c-0.1,0-0.1,0.2-0.1,0.5c0,0.7-0.2,1.1-0.5,1.2c-0.1,0-0.2,0.1-0.3,0.3c-0.1,0.2-0.1,0.7-0.3,1.5c-0.1,0.4-0.2,0.6-0.4,0.6
			c-0.2,0-0.2,0.1-0.2,0.2c0,0.1,0,0.2-0.2,0.2c-0.3,0-0.5-0.1-0.6-0.2c-0.1-0.2-0.2-0.5-0.2-0.9c0-0.6-0.1-0.9-0.2-1
			c-0.1-0.1-0.1-0.3-0.1-0.6c0-0.4-0.1-0.7-0.2-0.9c-0.1-0.3-0.2-0.5-0.1-0.8c0-0.3,0-0.5-0.1-0.5c-0.1,0-0.2-0.1-0.2-0.4
			c0-0.2-0.1-0.4-0.2-0.5c-0.1-0.1-0.2-0.1-0.2-0.2c0-0.1,0.2-0.2,0.6-0.2c0.4,0,0.7-0.1,0.9-0.3c0.1-0.1,0.2-0.2,0.2-0.3
			c0-0.1-0.1-0.2-0.2-0.4c-0.1-0.2-0.2-0.3-0.4-0.4c-0.2-0.1-0.5-0.1-0.9-0.1c-0.1,0-0.2,0-0.4,0c-0.2,0-0.4,0-0.5,0h-0.4
			c-0.3,0-0.4,0-0.5-0.1c-0.1,0-0.1-0.1-0.2-0.3c-0.1-0.2-0.1-0.4-0.3-0.4c-0.1,0-0.2,0.1-0.5,0.3c-0.2,0.2-0.4,0.3-0.5,0.3
			c-0.1,0-0.3,0.1-0.4,0.2c-0.1,0.1-0.2,0.3-0.2,0.4c0,0.4,0.3,0.7,0.9,0.8c0.5,0.1,0.9,0.6,1,1.6c0.1,0.4,0.2,0.6,0.3,0.8
			c0.1,0.1,0.2,0.4,0.2,0.7s0.1,0.5,0.2,0.6c0.4,0.4,0.5,1.1,0.5,1.9c0,0.4,0,0.6,0.1,0.7c0.1,0.1,0.1,0.2,0.1,0.4
			c0,0.2,0,0.3,0.1,0.4c0.1,0.1,0.2,0.3,0.2,0.8c0,0.4,0.1,0.6,0.2,0.6c0.1,0,0.2,0.2,0.2,0.5c0,0.3,0.1,0.5,0.2,0.5
			c0.1,0,0.2,0.1,0.3,0.4c0.1,0.3,0.3,0.5,0.6,0.5c0.1,0,0.3-0.1,0.4-0.2c0.1-0.1,0.2-0.3,0.2-0.4c0-0.3,0-0.4,0.1-0.4
			c0.1,0,0.2-0.1,0.2-0.4c0-0.3,0-0.5,0.1-0.5c0.1,0,0.2-0.2,0.2-0.5c0-0.3,0.1-0.6,0.3-0.9c0.2-0.3,0.4-0.5,0.6-0.6
			c0.2-0.1,0.3-0.3,0.3-0.6c0-0.4,0.1-0.6,0.2-0.6c0.1,0,0.2-0.2,0.2-0.5c0-0.3,0.1-0.6,0.2-0.8c0.1-0.2,0.2-0.4,0.1-0.5
			c-0.1-0.2,0.1-0.3,0.4-0.4c0.3-0.1,0.4-0.2,0.5-0.3c0.1,0,0.1,0.1,0.1,0.4c0,0.4,0.1,0.6,0.2,0.8c0.4,0.5,0.6,1.1,0.6,1.9
			c0,0.4,0,0.6,0.1,0.6c0.1,0,0.1,0.1,0.1,0.4c-0.1,0.2,0,0.4,0.1,0.5c0.1,0.1,0.2,0.3,0.2,0.8c0,0.4,0.1,0.6,0.2,0.6
			c0.2,0,0.2,0.2,0.2,0.5c0,0.3,0.1,0.5,0.2,0.5c0.1,0,0.2,0.1,0.3,0.4c0.1,0.3,0.3,0.5,0.6,0.5c0.1,0,0.3-0.1,0.4-0.2
			c0.1-0.1,0.2-0.3,0.2-0.4c0-0.3,0.1-0.4,0.2-0.4c0.1,0,0.1-0.1,0.1-0.4c0-0.3,0-0.5,0.1-0.5c0.1,0,0.2-0.2,0.2-0.5
			c0-0.3,0.1-0.6,0.3-1c0.2-0.4,0.4-0.6,0.5-0.6c0.1,0,0.2-0.2,0.2-0.6c0-0.4,0.1-0.7,0.2-0.7c0.1,0,0.2-0.2,0.2-0.5
			c0-0.3,0.1-0.6,0.2-0.8c0.1-0.2,0.2-0.4,0.2-0.6c0-0.1,0.1-0.2,0.4-0.3c0.3-0.1,0.4-0.2,0.4-0.3c0-0.1,0-0.1,0-0.2
			c0-0.1,0-0.1,0-0.2c0-0.6,0.1-0.9,0.3-0.9c0.1,0,0.1-0.1,0.2-0.4s0.1-0.4,0.2-0.4c0.1,0,0.2-0.1,0.2-0.2c0-0.1,0.1-0.2,0.4-0.2
			c0.3,0,0.5-0.1,0.6-0.2c0.1-0.1,0.2-0.3,0.2-0.6l0-0.4L177.5,782.4z"/>
		<path d="M198.5,785.7c-0.2-0.1-0.2-0.2-0.2-0.5c0-0.3,0-0.5-0.1-0.5c-0.1,0-0.1-0.1-0.1-0.4s-0.1-0.4-0.2-0.4
			c-0.1,0-0.2-0.1-0.3-0.3c-0.1-0.2-0.2-0.3-0.3-0.4c-0.1-0.1-0.2-0.2-0.2-0.4c0-0.2-0.1-0.3-0.4-0.3c-0.7,0-1-0.1-1-0.4
			c0-0.1-0.1-0.2-0.2-0.2c-0.1,0-0.2,0-0.2-0.1c0-0.1-0.1-0.1-0.3-0.1c-0.2,0-0.3-0.1-0.4-0.2c0-0.1-0.5-0.2-1.5-0.2
			c-0.9,0-1.5,0.1-1.6,0.2c-0.1,0.1-0.2,0.2-0.4,0.2c-0.2,0-0.3,0.1-0.4,0.3c-0.1,0.2-0.3,0.4-0.6,0.4c-0.3,0-0.6,0.1-1.1,0.2
			c-0.5,0.1-0.7,0.3-0.8,0.5c0,0.2-0.2,0.4-0.5,0.7s-0.4,0.5-0.4,0.5c0,0.1-0.1,0.1-0.2,0.1c-0.1,0-0.2,0.1-0.3,0.4
			c-0.1,0.2-0.2,0.4-0.3,0.7c-0.2,0.3-0.2,0.8-0.2,1.8c0,1.2,0.1,2.1,0.4,2.9c0.5,1.4,0.9,2.2,1.2,2.3c0.2,0,0.3,0.1,0.3,0.3
			c0,0.2,0.2,0.2,0.4,0.2c0.2,0,0.4,0,0.4,0.1s0.1,0.1,0.3,0.1s0.3,0.1,0.3,0.4c0,0.2,0,0.3,0.1,0.4c0.1,0.1,0.2,0,0.4-0.1
			c0.1-0.1,0.2-0.1,0.3,0c0.2,0.1,0.9,0.2,2.2,0.2c1.1,0,1.7-0.1,1.7-0.2c0-0.1,0.3-0.2,0.7-0.2c0.4,0,0.6-0.1,0.6-0.2
			c0-0.2,0.1-0.3,0.2-0.3c0,0,0.2-0.1,0.4-0.3c0.3-0.2,0.4-0.3,0.5-0.3c0.1,0,0.2-0.1,0.2-0.3c0.1-0.2,0.2-0.3,0.3-0.3
			c0.1,0,0.2-0.1,0.3-0.3c0-0.2,0.2-0.3,0.4-0.3c0.2-0.1,0.3-0.1,0.3-0.2c0-0.1,0.1-0.1,0.2-0.1c0.1,0,0.2-0.2,0.2-0.6
			c0-0.3,0-0.5-0.1-0.5c-0.1,0-0.1-0.1,0-0.2c0.1-0.1,0.2-0.8,0.2-2.1c0-0.3,0-0.7,0-1.1C198.7,786,198.7,785.7,198.5,785.7z
			 M196.3,788.8c-0.1,0-0.2,0.2-0.2,0.4c0,0.3-0.1,0.4-0.2,0.5c-0.1,0.1-0.2,0.4-0.3,0.8c-0.1,0.4-0.1,0.6-0.3,0.6
			c-0.1,0-0.2,0-0.2,0.1c0,0.1-0.1,0.2-0.4,0.2c-0.3,0.1-0.4,0.2-0.4,0.3c0,0.1,0,0.2-0.1,0.2c-0.1,0.1-0.2,0.1-0.4,0.2
			c-0.1,0.1-0.2,0.1-0.3,0.1c0,0.1-0.2,0.1-0.4,0.1c-0.2,0-0.3,0.1-0.5,0.2c-0.1,0.1-0.2,0.1-0.4,0.1c-0.2,0-0.4,0-0.7-0.1
			c-0.5-0.1-1-0.3-1.3-0.6c-0.3-0.3-0.7-0.8-1-1.5c-0.3-0.5-0.4-0.9-0.5-1.1c0-0.2-0.1-0.7-0.1-1.4c0-0.7,0-1.1,0.1-1.4
			c0-0.2,0.1-0.5,0.3-0.8c0.3-0.5,0.6-0.9,1-1.3c0.4-0.4,0.8-0.6,1-0.7c0.3,0,0.5-0.1,0.5-0.3c0-0.1,0.1-0.2,0.2-0.2
			c0.1,0,0.2,0,0.2-0.1c0-0.1,0.1-0.1,0.3-0.1c0.2,0,0.3,0,0.3,0.1c0,0.1,0.3,0.1,0.9,0.1c0.5,0,0.8,0.1,0.8,0.2
			c0,0.1,0.1,0.2,0.3,0.3c0.2,0.1,0.3,0.2,0.3,0.3c0,0.1,0.1,0.2,0.3,0.3c0.3,0.1,0.5,0.4,0.5,0.8c0,0.2,0.1,0.5,0.3,0.8
			c0.2,0.3,0.3,0.7,0.3,1.1c0,0.5,0,0.7,0.1,0.8c0.1,0.1,0.1,0.2,0.1,0.4C196.5,788.6,196.4,788.7,196.3,788.8z"/>
		<path d="M230,785.7c-0.2-0.1-0.2-0.2-0.2-0.5c0-0.3,0-0.5-0.1-0.5c-0.1,0-0.1-0.1-0.1-0.4s-0.1-0.4-0.2-0.4
			c-0.1,0-0.2-0.1-0.3-0.3c-0.1-0.2-0.2-0.3-0.3-0.4c-0.1-0.1-0.2-0.2-0.2-0.4c0-0.2-0.1-0.3-0.4-0.3c-0.7,0-1-0.1-1-0.4
			c0-0.1-0.1-0.2-0.2-0.2c-0.1,0-0.2,0-0.2-0.1c0-0.1-0.1-0.1-0.3-0.1c-0.2,0-0.3-0.1-0.4-0.2c0-0.1-0.5-0.2-1.5-0.2
			c-0.9,0-1.5,0.1-1.6,0.2c-0.1,0.1-0.2,0.2-0.4,0.2c-0.2,0-0.3,0.1-0.4,0.3c-0.1,0.2-0.3,0.4-0.6,0.4c-0.3,0-0.6,0.1-1.1,0.2
			c-0.5,0.1-0.7,0.3-0.8,0.5c0,0.2-0.2,0.4-0.5,0.7s-0.4,0.5-0.4,0.5c0,0.1-0.1,0.1-0.2,0.1c-0.1,0-0.2,0.1-0.3,0.4
			c-0.1,0.2-0.2,0.4-0.3,0.7c-0.2,0.3-0.2,0.8-0.2,1.8c0,1.2,0.1,2.1,0.4,2.9c0.5,1.4,0.9,2.2,1.2,2.3c0.2,0,0.3,0.1,0.3,0.3
			c0,0.2,0.2,0.2,0.4,0.2c0.2,0,0.4,0,0.4,0.1s0.1,0.1,0.3,0.1s0.3,0.1,0.3,0.4c0,0.2,0,0.3,0.1,0.4c0.1,0.1,0.2,0,0.4-0.1
			c0.1-0.1,0.2-0.1,0.3,0c0.2,0.1,0.9,0.2,2.2,0.2c1.1,0,1.7-0.1,1.7-0.2c0-0.1,0.3-0.2,0.7-0.2c0.4,0,0.6-0.1,0.6-0.2
			c0-0.2,0.1-0.3,0.2-0.3c0,0,0.2-0.1,0.4-0.3c0.3-0.2,0.4-0.3,0.5-0.3c0.1,0,0.2-0.1,0.2-0.3c0.1-0.2,0.2-0.3,0.3-0.3
			c0.1,0,0.2-0.1,0.3-0.3c0-0.2,0.2-0.3,0.4-0.3c0.2-0.1,0.3-0.1,0.3-0.2c0-0.1,0.1-0.1,0.2-0.1c0.1,0,0.2-0.2,0.2-0.6
			c0-0.3,0-0.5-0.1-0.5c-0.1,0-0.1-0.1,0-0.2c0.1-0.1,0.2-0.8,0.2-2.1c0-0.3,0-0.7,0-1.1C230.2,786,230.2,785.7,230,785.7z
			 M227.8,788.8c-0.1,0-0.2,0.2-0.2,0.4c0,0.3-0.1,0.4-0.2,0.5c-0.1,0.1-0.2,0.4-0.3,0.8c-0.1,0.4-0.1,0.6-0.3,0.6
			c-0.1,0-0.2,0-0.2,0.1c0,0.1-0.1,0.2-0.4,0.2c-0.3,0.1-0.4,0.2-0.4,0.3c0,0.1,0,0.2-0.1,0.2c-0.1,0.1-0.2,0.1-0.4,0.2
			c-0.1,0.1-0.2,0.1-0.3,0.1c0,0.1-0.2,0.1-0.4,0.1c-0.2,0-0.3,0.1-0.5,0.2c-0.1,0.1-0.2,0.1-0.4,0.1c-0.2,0-0.4,0-0.7-0.1
			c-0.5-0.1-1-0.3-1.3-0.6c-0.3-0.3-0.7-0.8-1-1.5c-0.3-0.5-0.4-0.9-0.5-1.1c0-0.2-0.1-0.7-0.1-1.4c0-0.7,0-1.1,0.1-1.4
			c0-0.2,0.1-0.5,0.3-0.8c0.3-0.5,0.6-0.9,1-1.3c0.4-0.4,0.8-0.6,1-0.7c0.3,0,0.5-0.1,0.5-0.3c0-0.1,0.1-0.2,0.2-0.2
			c0.1,0,0.2,0,0.2-0.1c0-0.1,0.1-0.1,0.3-0.1c0.2,0,0.3,0,0.3,0.1c0,0.1,0.3,0.1,0.9,0.1c0.5,0,0.8,0.1,0.8,0.2
			c0,0.1,0.1,0.2,0.3,0.3c0.2,0.1,0.3,0.2,0.3,0.3c0,0.1,0.1,0.2,0.3,0.3c0.3,0.1,0.5,0.4,0.5,0.8c0,0.2,0.1,0.5,0.3,0.8
			c0.2,0.3,0.3,0.7,0.3,1.1c0,0.5,0,0.7,0.1,0.8c0.1,0.1,0.1,0.2,0.1,0.4C228,788.6,227.9,788.7,227.8,788.8z"/>
		<path d="M247.8,783.9c0-0.3-0.1-0.5-0.2-0.6c-0.1-0.1-0.1-0.2,0-0.4c0.1-0.1,0.1-0.2,0.1-0.2c0-0.1-0.1-0.2-0.2-0.2
			c-0.1-0.1-0.2-0.2-0.2-0.3c0-0.2-0.1-0.3-0.3-0.5c-0.2-0.2-0.4-0.3-0.5-0.3c-0.1,0-0.2,0-0.2,0.1c0,0.1-0.3,0.1-0.9,0.2
			c-0.5,0.1-1.1,0.1-1.7,0.1c-0.6,0-0.9,0-1,0.1c-0.1,0-0.5,0.1-1.4,0.1c-0.9,0.1-1.8,0.2-2.7,0.3c-0.9,0.1-1.4,0.2-1.4,0.2
			c0,0,0,0.1,0,0.2c0,0.1,0,0.2,0.1,0.3c0.1,0.2,0.1,0.3,0.2,0.4c0.1,0,0.3,0.1,0.6,0.1c0.5,0,0.9,0.1,1,0.3
			c0.1,0.2,0.2,0.7,0.2,1.6c0,0.9-0.1,1.4-0.2,1.5c-0.1,0.1-0.1,0.2,0,0.4c0.1,0.3,0.2,0.5,0,0.7c-0.1,0.2-0.2,0.3-0.3,0.3
			c-0.1,0,0,0.1,0.1,0.2c0.1,0.1,0.1,0.3,0.1,0.6c0,0.1,0,0.4-0.1,0.8c-0.1,1.4-0.2,2.3-0.2,2.6c-0.1,0.3-0.1,0.5-0.3,0.6
			c-0.2,0.1-0.5,0.3-0.8,0.6l-0.5,0.6h5v-0.5c0-0.2,0-0.4-0.1-0.4c0-0.1-0.1-0.1-0.3-0.1c-0.2,0-0.4,0-0.4-0.1
			c0-0.1-0.1-0.1-0.2-0.1s-0.2-0.1-0.3-0.3c0-0.1,0-0.4,0-1.2c0-1.2,0-2.1,0.1-2.8c0-0.1,0.5-0.1,1.4-0.1c0.8,0,1.3,0.1,1.5,0.2
			c0.3,0.1,0.4,0.4,0.4,0.9c0,0.3,0,0.5,0.1,0.5c0.1,0,0.1-0.1,0.3-0.2c0.1-0.1,0.3-0.2,0.5-0.1c0.2,0.1,0.3,0,0.3-0.2
			c0-0.2,0-0.3,0.1-0.4c0.1-0.1,0.1-0.2,0-0.2c-0.1-0.1-0.2-0.3-0.2-0.6c0-0.4,0.1-0.7,0.2-0.8c0.1-0.1,0.1-0.1,0.1-0.2
			c0-0.1,0-0.1-0.1-0.2c-0.1-0.1-0.1-0.2-0.1-0.2c0-0.1,0-0.1,0.1-0.2c0.2-0.1,0.2-0.2,0.2-0.4c0-0.3-0.4-0.4-1.1-0.4
			c-0.4,0-0.6,0.2-0.6,0.5c0,0.1,0,0.2,0.1,0.3c0.1,0.2,0,0.4,0,0.5c-0.1,0.1-0.4,0.2-1,0.3c-0.6,0.1-1.1,0.2-1.6,0.2H241v-0.6
			c0-0.4,0.1-0.6,0.2-0.7c0.1-0.1,0.2-0.2,0.2-0.4c0-0.3-0.1-0.5-0.2-0.8c-0.1-0.2-0.2-0.4-0.2-0.4s0.1-0.1,0.2-0.3
			c0.2-0.2,0.3-0.4,0.2-0.6c0-0.1,0-0.1,0-0.2c0-0.1,0.1-0.2,0.4-0.3c0.3-0.1,0.8-0.1,1.6-0.1c0.7,0,1.1-0.1,1.1-0.1
			c0.3,0,0.5,0.1,0.7,0.2c0.2,0.2,0.3,0.3,0.5,0.4c0.2,0.1,0.3,0.2,0.3,0.3c0,0.1,0.1,0.3,0.3,0.4c0.2,0.1,0.4,0.3,0.5,0.6
			c0.1,0.4,0.4,0.5,0.8,0.5c0.1,0,0.2,0,0.3-0.1c0.1-0.1,0.2-0.2,0.2-0.6c0-0.3-0.1-0.5-0.2-0.5
			C247.8,784.4,247.8,784.2,247.8,783.9z"/>
		<path d="M283.4,782.4c-0.1,0-0.3,0-0.5,0c-0.2,0-0.4,0-0.4,0c-0.4,0-0.6,0-0.7,0.1c-0.1,0-0.3,0.1-0.4,0.3
			c-0.2,0.2-0.3,0.3-0.3,0.4c0,0.1,0,0.1,0.2,0.2c0.3,0.2,0.5,0.2,0.7,0.2c0.3,0,0.4,0.1,0.5,0.3c0.1,0.2,0,0.3-0.1,0.4
			c-0.1,0-0.2,0.2-0.2,0.6s-0.1,0.6-0.2,0.6c-0.2,0.1-0.2,0.2-0.2,0.4v0.4c0,0.6-0.1,0.9-0.3,0.9c-0.1,0-0.2,0.1-0.3,0.3
			s-0.1,0.7-0.3,1.5c-0.1,0.4-0.2,0.6-0.4,0.6c-0.1,0-0.2,0.1-0.2,0.2c0,0.1,0,0.2-0.2,0.2c-0.3,0-0.4-0.1-0.5-0.2
			c-0.1-0.2-0.2-0.5-0.3-0.9c-0.1-0.4-0.2-1-0.2-1.7c-0.1-0.5-0.2-0.8-0.3-0.9c-0.1-0.1-0.1-0.4-0.1-0.7c0-0.3,0-0.5-0.1-0.5
			c-0.1,0-0.1-0.1-0.1-0.4c0-0.2-0.1-0.4-0.2-0.5c-0.1-0.1-0.2-0.1-0.2-0.2c0-0.1,0.2-0.2,0.6-0.2c0.4,0,0.7-0.1,0.9-0.3
			c0.1-0.1,0.2-0.2,0.2-0.3s0-0.2-0.1-0.4c-0.1-0.2-0.3-0.4-0.6-0.5c-0.3-0.1-0.8-0.1-1.6-0.1c-0.6,0-1-0.1-1-0.3
			c-0.1-0.2-0.1-0.3-0.2-0.3c-0.1,0-0.2,0.1-0.5,0.3c-0.3,0.2-0.4,0.3-0.5,0.3c-0.3,0-0.5,0.2-0.6,0.6v0.1l0,0.1
			c0,0.3,0.3,0.6,0.9,0.7c0.1,0,0.3,0.1,0.4,0.1c0.1,0.1,0.1,0.2,0.1,0.2c0,0.1-0.1,0.1-0.2,0.1c-0.1,0-0.1,0.2-0.1,0.6
			s-0.1,0.6-0.2,0.6c-0.1,0-0.1,0.2-0.1,0.5c0,0.7-0.2,1.1-0.5,1.2c-0.1,0-0.2,0.1-0.3,0.3c-0.1,0.2-0.1,0.7-0.3,1.5
			c-0.1,0.4-0.2,0.6-0.4,0.6c-0.2,0-0.2,0.1-0.2,0.2c0,0.1,0,0.2-0.2,0.2c-0.3,0-0.5-0.1-0.6-0.2c-0.1-0.2-0.2-0.5-0.2-0.9
			c0-0.6-0.1-0.9-0.2-1c-0.1-0.1-0.1-0.3-0.1-0.6c0-0.4-0.1-0.7-0.2-0.9c-0.1-0.3-0.2-0.5-0.1-0.8c0-0.3,0-0.5-0.1-0.5
			c-0.1,0-0.2-0.1-0.2-0.4c0-0.2-0.1-0.4-0.2-0.5c-0.1-0.1-0.2-0.1-0.2-0.2c0-0.1,0.2-0.2,0.6-0.2c0.4,0,0.7-0.1,0.9-0.3
			c0.1-0.1,0.2-0.2,0.2-0.3c0-0.1-0.1-0.2-0.2-0.4c-0.1-0.2-0.2-0.3-0.4-0.4c-0.2-0.1-0.5-0.1-0.9-0.1c-0.1,0-0.2,0-0.4,0
			c-0.2,0-0.4,0-0.5,0h-0.4c-0.3,0-0.4,0-0.5-0.1c-0.1,0-0.1-0.1-0.2-0.3c-0.1-0.2-0.1-0.4-0.3-0.4c-0.1,0-0.2,0.1-0.5,0.3
			c-0.2,0.2-0.4,0.3-0.5,0.3c-0.1,0-0.3,0.1-0.4,0.2c-0.1,0.1-0.2,0.3-0.2,0.4c0,0.4,0.3,0.7,0.9,0.8c0.5,0.1,0.9,0.6,1,1.6
			c0.1,0.4,0.2,0.6,0.3,0.8c0.1,0.1,0.2,0.4,0.2,0.7s0.1,0.5,0.2,0.6c0.4,0.4,0.5,1.1,0.5,1.9c0,0.4,0,0.6,0.1,0.7
			c0.1,0.1,0.1,0.2,0.1,0.4c0,0.2,0,0.3,0.1,0.4c0.1,0.1,0.2,0.3,0.2,0.8c0,0.4,0.1,0.6,0.2,0.6c0.1,0,0.2,0.2,0.2,0.5
			c0,0.3,0.1,0.5,0.2,0.5c0.1,0,0.2,0.1,0.3,0.4c0.1,0.3,0.3,0.5,0.6,0.5c0.1,0,0.3-0.1,0.4-0.2s0.2-0.3,0.2-0.4
			c0-0.3,0-0.4,0.1-0.4c0.1,0,0.2-0.1,0.2-0.4c0-0.3,0-0.5,0.1-0.5c0.1,0,0.2-0.2,0.2-0.5c0-0.3,0.1-0.6,0.3-0.9
			c0.2-0.3,0.4-0.5,0.6-0.6c0.2-0.1,0.3-0.3,0.3-0.6c0-0.4,0.1-0.6,0.2-0.6c0.1,0,0.2-0.2,0.2-0.5c0-0.3,0.1-0.6,0.2-0.8
			c0.1-0.2,0.2-0.4,0.1-0.5c-0.1-0.2,0.1-0.3,0.4-0.4c0.3-0.1,0.4-0.2,0.5-0.3c0.1,0,0.1,0.1,0.1,0.4c0,0.4,0.1,0.6,0.2,0.8
			c0.4,0.5,0.6,1.1,0.6,1.9c0,0.4,0,0.6,0.1,0.6c0.1,0,0.1,0.1,0.1,0.4c-0.1,0.2,0,0.4,0.1,0.5c0.1,0.1,0.2,0.3,0.2,0.8
			c0,0.4,0.1,0.6,0.2,0.6c0.2,0,0.2,0.2,0.2,0.5c0,0.3,0.1,0.5,0.2,0.5c0.1,0,0.2,0.1,0.3,0.4c0.1,0.3,0.3,0.5,0.6,0.5
			c0.1,0,0.3-0.1,0.4-0.2c0.1-0.1,0.2-0.3,0.2-0.4c0-0.3,0.1-0.4,0.2-0.4c0.1,0,0.1-0.1,0.1-0.4c0-0.3,0-0.5,0.1-0.5
			c0.1,0,0.2-0.2,0.2-0.5c0-0.3,0.1-0.6,0.3-1c0.2-0.4,0.4-0.6,0.5-0.6c0.1,0,0.2-0.2,0.2-0.6c0-0.4,0.1-0.7,0.2-0.7
			c0.1,0,0.2-0.2,0.2-0.5c0-0.3,0.1-0.6,0.2-0.8c0.1-0.2,0.2-0.4,0.2-0.6c0-0.1,0.1-0.2,0.4-0.3c0.3-0.1,0.4-0.2,0.4-0.3
			c0-0.1,0-0.1,0-0.2c0-0.1,0-0.1,0-0.2c0-0.6,0.1-0.9,0.3-0.9c0.1,0,0.1-0.1,0.2-0.4c0-0.3,0.1-0.4,0.2-0.4c0.1,0,0.2-0.1,0.2-0.2
			c0-0.1,0.1-0.2,0.4-0.2c0.3,0,0.5-0.1,0.6-0.2c0.1-0.1,0.2-0.3,0.2-0.6l0-0.4L283.4,782.4z"/>
		<path d="M305.6,792.9c-0.1,0-0.1-0.1-0.2-0.4c-0.1-0.2-0.1-0.3-0.2-0.3c0,0-0.3,0.1-0.8,0.2c0,0-0.1,0-0.2,0c-0.4,0-0.7-0.6-1-1.7
			c-0.2-0.8-0.4-1.3-0.4-1.4c-0.1-0.1-0.2-0.3-0.2-0.5c-0.1-0.4-0.3-1.3-0.8-2.8c-0.5-1.5-0.7-2.4-0.8-2.7c-0.2-1-0.4-1.5-0.5-1.7
			c-0.1-0.2-0.2-0.3-0.4-0.3c-0.3-0.1-0.4,0-0.5,0.1c-0.1,0.1-0.2,0.2-0.4,0.2c-0.2,0-0.4,0.1-0.4,0.2c0,0.1-0.1,0.1-0.2,0.1
			c-0.1,0-0.2,0.2-0.4,0.6c-0.2,0.4-0.3,0.8-0.5,1.2s-0.2,0.6-0.3,0.7c-0.1,0.1-0.1,0.2-0.1,0.4c0,0.2-0.1,0.6-0.4,1.2
			c-0.3,0.6-0.5,1.1-0.5,1.5c-0.1,0.4-0.2,0.6-0.2,0.7c-0.1,0.1-0.2,0.3-0.4,0.8c-0.2,0.5-0.3,0.7-0.3,0.8c-0.1,0.2-0.2,0.4-0.2,0.5
			c0,0.2,0,0.2-0.1,0.2c-0.1,0-0.2,0.1-0.3,0.4c-0.1,0.2-0.2,0.4-0.2,0.6c0,0.1-0.2,0.3-0.5,0.6c-0.3,0.3-0.5,0.4-0.7,0.4
			c-0.2,0-0.3,0.1-0.5,0.4c-0.2,0.2-0.4,0.4-0.5,0.4c-0.1,0-0.2,0.1-0.4,0.4c-0.1,0.2-0.1,0.3-0.1,0.4c0,0.1,0.1,0.3,0.4,0.5
			l0.5,0.4l2-0.1c1.1,0,1.8-0.1,2.1-0.1s0.5-0.1,0.5-0.2c0,0,0-0.1-0.1-0.2c-0.1-0.2-0.1-0.3,0.1-0.3c0.1,0,0.2-0.1,0.2-0.2
			c0-0.1-0.1-0.2-0.2-0.2c-0.1,0-0.3-0.1-0.4-0.2c-0.1-0.1-0.4-0.2-0.7-0.3c-0.5-0.1-0.7-0.3-0.7-0.5c0-0.1,0-0.2,0.1-0.3
			c0.1-0.2,0.2-0.3,0.2-0.5c0-0.1,0-0.2,0.1-0.2c0.1,0,0.1-0.2,0.1-0.7v-0.7h0.6c0.4,0,0.7-0.1,0.7-0.2c0.1-0.2,0.6-0.2,1.5-0.2h0.4
			c0.7,0,1,0,1.1,0.1c0.1,0.1,0.2,0.4,0.2,0.8c0,0.5,0.1,0.8,0.3,0.9c0.2,0.2,0.3,0.4,0.3,0.6c0,0,0,0,0,0.1s0,0.1,0,0.1
			c0,0.3-0.1,0.4-0.1,0.5c-0.1,0.1-0.3,0.1-0.6,0.2c-0.5,0.1-0.7,0.2-0.8,0.3c0,0.1-0.1,0.1-0.3,0.1c-0.2,0-0.3,0.1-0.3,0.3
			c0,0.3,0,0.4,0.1,0.5c0.1,0.1,0.3,0.1,0.6,0.1c0.3,0,0.7,0,1.3-0.1c0.6-0.1,1.3-0.1,2-0.1c0.4,0,0.7,0,0.8,0c0.2,0,0.4,0,0.6,0
			c0.3,0,0.5-0.1,0.5-0.3c0.1-0.2,0.1-0.3,0.2-0.3c0.1,0,0.1-0.2,0.1-0.5C305.8,793.1,305.8,792.9,305.6,792.9z M299.5,788.4
			c0,0-0.1,0-0.2,0c-0.1,0-0.1,0-0.1,0c-0.3,0-0.5,0.1-0.6,0.2c-0.1,0.1-0.3,0.2-0.4,0.2c-0.2,0-0.3-0.1-0.4-0.2
			c-0.1-0.1-0.2-0.2-0.3-0.2c-0.1,0-0.2-0.1-0.2-0.2c0-0.1,0-0.2,0.1-0.2c0.1,0,0.2-0.1,0.3-0.4c0.1-0.3,0.2-0.5,0.2-0.7
			c0-0.2,0.1-0.3,0.2-0.4c0.1,0,0.2-0.3,0.2-0.8c0.1-0.6,0.3-0.9,0.6-0.9c0.2,0,0.3,0.1,0.5,0.2c0.1,0.1,0.2,0.2,0.4,0.5
			c0.1,0.3,0.2,0.4,0.2,0.5c0,0-0.1,0.1-0.3,0.1c-0.2,0-0.3,0.1-0.4,0.2c-0.1,0.1,0,0.2,0.1,0.2c0.1,0,0.2,0.1,0.2,0.2
			c0.1,0.1,0.2,0.3,0.2,0.4c0.1,0.2,0.1,0.2,0.2,0.3c0.1,0.1,0.1,0.3,0.2,0.6l0.1,0.5L299.5,788.4z"/>
		<path d="M325.8,782c-0.1,0-0.2,0-0.3,0.1c-0.2,0.1-0.3,0.1-0.3,0.1c-0.1,0-0.1-0.1-0.2-0.2c-0.1-0.2-0.3-0.3-0.4-0.3
			c-0.1,0-0.2-0.1-0.2-0.3c0-0.2-0.1-0.3-0.3-0.3c-0.2,0-0.3,0.1-0.3,0.3c0,0.2,0.1,0.3,0.2,0.3s0.2,0.1,0.2,0.3
			c0,0.2-0.1,0.3-0.2,0.3c-0.2,0-0.3-0.1-0.3-0.4c-0.1-0.2-0.2-0.4-0.3-0.4c-0.1,0-0.1,0-0.2,0.1c-0.2,0.2-0.2,0.3,0,0.3
			c0.1,0,0.2,0.1,0.2,0.1c0,0.1-0.1,0.2-0.4,0.2c-0.2,0-0.4,0-0.4-0.1s-0.1-0.1-0.4-0.1c-0.4,0-0.8,0.1-1.1,0.2
			c-0.4,0.2-0.6,0.4-0.6,0.7c0,0.3,0.3,0.5,0.8,0.6c0.4,0.1,0.6,0.1,0.6,0.2c0,0.1,0.1,0.1,0.3,0.1c0.3,0,0.5,0.2,0.6,0.6
			c0.1,0.4,0.2,1.2,0.2,2.4c0,1.4,0.1,2.2,0.1,2.4c0.1,0.1,0,0.3,0,0.6l-0.1,0.4l-0.5-0.5c-0.4-0.3-0.5-0.5-0.5-0.6
			c0-0.1-0.1-0.2-0.2-0.3c-0.1-0.1-0.3-0.2-0.4-0.4c-0.2-0.1-0.3-0.2-0.3-0.2c-0.1-0.1-0.3-0.2-0.3-0.2c-0.1,0-0.2-0.1-0.2-0.2
			c0-0.1-0.1-0.2-0.2-0.3c-0.1-0.1-0.3-0.2-0.4-0.2s-0.1-0.1-0.1-0.2c0-0.1-0.1-0.2-0.2-0.2c-0.1,0-0.1,0-0.1-0.1
			c0-0.1-0.1-0.2-0.4-0.5c-0.2-0.3-0.4-0.4-0.4-0.5c0-0.1-0.1-0.2-0.3-0.2c-0.2,0-0.3-0.1-0.5-0.2c-0.2-0.1-0.2-0.3-0.2-0.4
			c0-0.1-0.2-0.3-0.5-0.7c-0.3-0.4-0.5-0.6-0.5-0.7c0-0.1-0.1-0.2-0.3-0.4c-0.2-0.2-0.3-0.4-0.3-0.4c0-0.3-0.6-0.5-1.8-0.6
			c-0.6,0-0.9-0.1-0.9-0.1c-0.3,0-0.4,0.1-0.4,0.2c0,0.1,0,0.2,0,0.4c0,0.2,0,0.4,0.1,0.6c0.1,0.2,0.1,0.3,0.2,0.3
			c0.1,0,0.2,0.2,0.3,0.6c0.1,0.4,0.2,0.6,0.2,0.6c0.1,0,0.1,0.3,0.1,0.8c0,0.5,0,0.8-0.1,0.8c-0.1,0-0.1,0.1-0.1,0.4
			c0,0.2,0.1,0.6,0.2,1c0.1,0.2,0.1,0.6,0.1,1.1c0,0.7-0.1,1.1-0.2,1.1c-0.1,0-0.1,0.2-0.1,0.7c0,0.5,0,1.1-0.1,1.5
			c0,0.4-0.1,0.6-0.1,0.7s-0.2,0.2-0.4,0.2c-0.3,0.1-0.4,0.2-0.4,0.4c0,0.2,0.1,0.4,0.4,0.6c0.2,0.2,0.3,0.3,0.5,0.3s0.8,0,1.7,0
			c1,0,1.6,0,1.8-0.1c0.2-0.1,0.3-0.3,0.3-0.8c0-0.3-0.1-0.4-0.3-0.5c-0.2-0.1-0.3-0.1-0.3-0.2c0-0.1-0.2-0.1-0.6-0.1
			c-0.4,0-0.7-0.1-0.9-0.3c-0.2-0.2-0.2-0.3-0.1-0.4c0.1-0.1,0.2-0.2,0.2-0.6c0-0.3,0-0.5-0.1-0.5c-0.1-0.1-0.1-0.9-0.1-2.6
			c0-1.7,0.1-2.5,0.2-2.5c0.1,0,0.3,0.1,0.4,0.2c0.1,0.1,0.3,0.2,0.5,0.3c0.3,0.1,0.4,0.3,0.5,0.4c0,0.2,0.3,0.5,0.8,1.1
			c0.5,0.5,0.9,0.9,1.3,1.1c0.2,0.1,0.3,0.2,0.3,0.3c0,0.1,0.2,0.2,0.5,0.6c0.7,0.7,1.1,1.1,1.1,1.4c0,0.1,0.1,0.1,0.3,0.1
			c0.2,0,0.3,0,0.3,0.1c0,0.1,0.1,0.3,0.4,0.5c0.2,0.2,0.4,0.4,0.4,0.6c0,0.1,0.1,0.3,0.3,0.5c0.2,0.2,0.3,0.3,0.4,0.3
			c0.1,0,0.3,0.2,0.6,0.5c0.3,0.3,0.5,0.5,0.7,0.6c0.1,0.1,0.2,0.1,0.3,0.1c0.4,0,0.6-0.2,0.6-0.6c0-0.1,0-0.2,0-0.4
			c0-0.9-0.1-1.4-0.2-1.6c-0.1-0.1-0.1-0.5-0.1-1.3v-0.4c0-1,0-1.6-0.1-1.6c-0.1-0.1-0.2-0.4-0.2-1c0-0.5,0-0.8,0.1-0.8
			c0.1-0.1,0.2-0.2,0.2-0.5s0-0.4,0.1-0.4c0.1,0,0.1-0.1,0.1-0.4c0-0.3,0-0.4-0.1-0.4c-0.1,0-0.1-0.1-0.1-0.4c0-0.4,0.1-0.7,0.2-1
			c0.2-0.3,0.4-0.5,0.7-0.5c0.2,0,0.4-0.1,0.4-0.1s0.1-0.2,0.1-0.5v-0.2C326.1,782.3,326,782,325.8,782z"/>
		<path d="M345.3,785.5c0-0.2-0.1-0.3-0.2-0.5c-0.2-0.2-0.3-0.3-0.4-0.3c-0.1,0-0.2-0.1-0.2-0.2c0-0.1-0.1-0.3-0.3-0.6
			c-0.2-0.2-0.3-0.3-0.4-0.3c-0.1,0-0.2-0.1-0.2-0.2c0-0.1-0.1-0.2-0.3-0.3c-0.2-0.1-0.3-0.1-0.3-0.2c0-0.1-0.1-0.1-0.4-0.1
			c-0.2,0-0.3-0.1-0.6-0.2c-0.2-0.1-0.4-0.2-0.5-0.2c-0.2,0-0.3,0-0.3-0.1s-0.1-0.1-0.4-0.1c-0.2,0-0.3,0-0.4-0.1
			c-0.1-0.1-0.2-0.1-0.2-0.1c-0.1,0-0.2,0-0.4,0.1c-0.3,0.1-0.6,0.2-1,0.2c-0.2,0-0.4,0-0.4-0.1c-0.1,0-0.1-0.1-0.1-0.2
			c0-0.2-0.1-0.3-0.2-0.3c-0.1,0-0.2,0-0.3,0.2c-0.1,0.1-0.1,0.1-0.2,0c-0.2-0.3-0.3-0.2-0.4,0.1c-0.1,0.2-0.2,0.3-0.4,0.2
			c-0.2-0.1-0.5-0.2-1-0.2c-0.4,0-0.7-0.1-0.8-0.2c0-0.1-0.1-0.1-0.3,0.1c-0.2,0.1-0.3,0.1-0.3,0c-0.1-0.1-0.2-0.2-0.5-0.2
			c-0.2,0-0.4,0-0.4,0.1c0,0.1-0.1,0.1-0.3,0.1c-0.1,0-0.2,0-0.2,0.1c0,0.1-0.1,0.3-0.1,0.5c0,0.3,0,0.5,0.1,0.6
			c0,0.1,0.2,0.2,0.3,0.3c0.2,0.1,0.3,0.1,0.4,0.1c0,0,0.1,0,0.1,0c0.1,0,0.1,0,0.1,0c0.1,0,0.2,0,0.3,0.1c0.2,0.1,0.4,0.4,0.4,0.8
			c0,0.4,0,0.6-0.1,0.6c-0.1,0-0.1,0.3-0.1,0.9c0,0.6,0,0.8,0.1,0.8c0.1,0,0.1,0.1,0.1,0.4c0,0.2,0,0.4-0.1,0.5
			c-0.1,0.1-0.1,1-0.2,2.8l-0.1,2.7l-0.5,0c-0.4,0-0.6,0.2-0.8,0.4c-0.2,0.2-0.3,0.4-0.3,0.5c0,0.1,0.1,0.2,0.4,0.4
			c0.3,0.2,0.5,0.2,0.7,0.2c0.1,0,0.2,0,0.2-0.1c0-0.1,0.3-0.1,0.8-0.1c0.5,0,0.8,0,0.8,0.1c0,0.1,0.9,0.2,2.6,0.2
			c1.1,0,1.7,0,1.8-0.1c0.1-0.1,0.4-0.2,0.7-0.2c0.4-0.1,0.8-0.2,1.3-0.5c0.5-0.2,0.8-0.4,1-0.4c0.2,0,0.3-0.1,0.4-0.4
			c0.1-0.3,0.3-0.6,0.7-1.1c0.4-0.4,0.6-0.7,0.6-0.8c0-0.1,0-0.2,0.1-0.2c0.1,0,0.1-0.1,0.1-0.3c0-0.2,0.1-0.4,0.2-0.5
			c0.1-0.1,0.1-0.8,0.1-2c0-1.4-0.1-2.1-0.2-2.2C345.4,785.8,345.3,785.7,345.3,785.5z M343.2,789.7c-0.1,0.1-0.2,0.2-0.2,0.5
			c0,0.3-0.1,0.5-0.2,0.6c-0.3,0.3-0.5,0.6-0.6,1c-0.1,0.2-0.1,0.2-0.2,0.2c-0.1,0-0.3,0.2-0.7,0.5c-0.4,0.3-0.7,0.5-0.9,0.5
			c-0.2,0-0.3,0.1-0.4,0.2c-0.1,0.1-0.1,0.1-0.2,0c-0.1-0.1-0.1-0.2-0.3-0.2s-0.2,0.1-0.3,0.2c0,0.1-0.3,0.1-0.9,0.1
			c-0.6,0-1.1,0-1.6,0c-0.2,0-0.2-0.1-0.2-0.4c0-0.2-0.1-0.4-0.2-0.4s-0.2,0-0.2-0.1c0-0.1,0.1-0.1,0.2-0.2c0.1-0.1,0.2-0.2,0.2-0.3
			c0-0.1,0.1-0.2,0.2-0.2c0.1,0,0.1-0.1,0.2-0.4c0.1-0.2,0.1-0.5,0.1-0.8c0-0.1,0-0.3-0.1-0.5c0,0,0,0,0-0.1c0,0,0-0.1,0-0.1
			c0-0.2,0.1-0.4,0.2-0.6l0.2-0.4c0,0-0.1-0.1-0.2-0.1c-0.1,0-0.2-0.3-0.2-0.8c0-0.5,0-1,0-1.5c0-1.4,0.1-2.2,0.1-2.4
			c0-0.3,0.1-0.5,0.4-0.8c0.2-0.2,0.4-0.3,0.6-0.3c0.1,0,0.2,0,0.3,0c0.1,0,0.3,0,0.7,0.1c0.4,0,0.7,0.1,1,0.1
			c0.3,0.1,0.4,0.1,0.5,0.2c0.1,0.1,0.2,0.2,0.4,0.2c0.2,0,0.4,0.1,0.4,0.3c0.1,0.2,0.2,0.3,0.3,0.3c0.2,0,0.2,0,0.2,0.1
			s0.1,0.2,0.3,0.2c0.2,0.1,0.3,0.2,0.3,0.3c0,0.1,0.1,0.3,0.2,0.4c0.1,0.1,0.2,0.4,0.3,0.9c0,0.4,0.1,0.7,0.2,0.8
			c0.1,0.1,0.1,0.5,0.1,1.3S343.3,789.7,343.2,789.7z"/>
		<path d="M361,789.5c0-0.6-0.1-0.9-0.2-1.1c-0.1-0.2-0.3-0.4-0.6-0.5c-0.3-0.1-0.5-0.3-0.5-0.4c-0.1-0.1-0.3-0.3-0.9-0.6
			c-0.5-0.3-1-0.5-1.3-0.6c-0.2-0.1-0.5-0.2-0.9-0.5c-0.4-0.3-0.6-0.4-0.6-0.5c0-0.1-0.1-0.2-0.2-0.3c-0.2-0.1-0.2-0.2-0.2-0.3
			c0,0,0-0.1,0-0.1c0.1-0.1,0.1-0.2,0.1-0.3c0-0.1,0-0.3-0.1-0.6c0-0.1,0-0.2,0-0.2c0,0,0.2-0.1,0.3-0.1c0.3,0,0.4-0.1,0.4-0.2
			c0-0.1,0.1-0.2,0.4-0.4c0.3-0.2,0.4-0.3,0.4-0.3c0-0.1,0.1-0.1,0.4-0.2c0.1,0,0.1,0,0.2,0c0.4,0,0.8,0.2,1.2,0.5
			c0.5,0.3,0.7,0.6,0.7,0.9c0,0.2,0.1,0.4,0.3,0.5c0.2,0.1,0.3,0.3,0.3,0.4s0.1,0.3,0.2,0.5s0.3,0.3,0.4,0.3c0,0,0,0,0.1,0
			c0.1-0.1,0.1-0.7,0.2-2v-0.8c0-0.6-0.1-0.9-0.2-0.9c-0.1,0-0.1,0-0.1,0c-0.3,0.1-0.6,0.2-0.8,0.2c-0.3,0-0.6-0.1-1-0.3
			c-0.4-0.2-0.6-0.3-0.7-0.3c0,0-0.1,0-0.2,0.1c-0.3,0.1-0.6,0.1-0.8,0.1c-0.3,0-0.4,0-0.5,0.1c0,0.1-0.1,0.2-0.3,0.2
			c-0.2,0-0.4-0.1-0.5-0.2c-0.1-0.1-0.3-0.2-0.5-0.2h0c-0.1,0-0.1,0-0.1,0c-0.1,0-0.1,0-0.1,0c0,0,0.1,0,0.1,0
			c0.1,0.1,0.2,0.1,0.2,0.2c0,0.2-0.2,0.3-0.5,0.4c-0.3,0.1-0.4,0.2-0.4,0.4c0.1,0.2,0,0.3-0.2,0.4c-0.3,0.1-0.6,0.5-1.1,1.1
			c-0.1,0.2-0.2,0.4-0.2,0.6c0,0,0,0.3,0.1,0.8c0.1,0.7,0.3,1.1,0.4,1.3c0.1,0.2,0.4,0.4,0.7,0.7c0.4,0.3,0.6,0.4,0.8,0.4
			c0.1,0,0.3,0.1,0.6,0.4c0.4,0.3,0.9,0.6,1.7,0.8c0.5,0.1,0.8,0.3,1.1,0.6c0.2,0.2,0.3,0.4,0.5,0.7c0.1,0.3,0.2,0.5,0.2,0.7
			c0,0.1,0,0.1-0.1,0.2c-0.1,0-0.1,0.2-0.1,0.4c0.1,0.2,0,0.4-0.2,0.6c-0.1,0.1-0.2,0.3-0.2,0.4c0,0.2-0.5,0.4-1.4,0.5
			c-0.1,0-0.3,0-0.6,0c-0.9,0-1.7-0.4-2.2-1.2c-0.3-0.4-0.5-0.8-0.5-1c0,0,0-0.1,0-0.2c0-0.1,0-0.2,0-0.2c0,0-0.1-0.1-0.1-0.1
			c-0.1,0-0.1,0-0.1-0.1c0.1-0.3-0.1-0.5-0.4-0.6c-0.1,0-0.2-0.1-0.3-0.1c-0.3,0-0.4,0.2-0.5,0.5c-0.1,1.2-0.1,1.9-0.2,1.9
			c-0.1,0.1-0.1,0.4-0.2,0.8c0,0.1,0,0.3,0,0.4c0,0.2,0.1,0.4,0.3,0.6c0.1,0.1,0.2,0.2,0.3,0.2c0,0,0.1,0,0.2-0.2
			c0.1-0.2,0.2-0.3,0.2-0.4c0-0.3,0.2-0.3,0.5-0.1c0.9,0.5,1.8,0.7,2.9,0.7c0.5,0,1.1-0.1,1.6-0.2c0.6-0.1,1.1-0.3,1.4-0.6
			c0.3-0.3,0.5-0.5,0.5-0.5c0-0.1,0.1-0.2,0.2-0.3c0.2-0.1,0.3-0.4,0.3-0.9c0.1-0.5,0.1-0.7,0.2-0.7c0.1,0,0.1,0,0-0.1
			C361.1,790.6,361.1,790.2,361,789.5z M356.6,788C356.6,788,356.6,787.9,356.6,788c-0.1-0.1-0.1-0.1,0-0.1
			C356.7,787.8,356.7,787.9,356.6,788C356.7,787.9,356.7,788,356.6,788z"/>
		<path d="M355.2,788.7c0-0.1,0-0.2-0.1-0.2c-0.1,0-0.1,0-0.1,0.1l0.1,0.2C355.1,789,355.2,788.9,355.2,788.7z"/>
		<polygon points="51.7,808.8 44,814 41.2,799.9 38.4,814 30.7,808.8 35.9,816.5 21.8,819.3 35.9,822 30.7,829.8 38.4,824.6 
			41.2,838.6 43.9,824.6 51.7,829.8 46.5,822 60.5,819.3 46.5,816.5 		"/>
		<polygon points="468.1,816.5 473.3,808.8 465.5,814 462.8,799.9 460,814 452.3,808.8 457.5,816.5 443.4,819.3 457.5,822 
			452.3,829.8 460,824.6 462.8,838.6 465.5,824.6 473.3,829.8 468.1,822 482.1,819.3 		"/>
		<polygon points="30.7,57.5 38.4,52.3 41.2,66.4 44,52.3 51.7,57.5 46.5,49.8 60.5,47 46.5,44.3 51.7,36.5 43.9,41.7 41.2,27.7 
			38.4,41.7 30.7,36.5 35.9,44.3 21.8,47 35.9,49.8 		"/>
		<polygon points="473.3,36.5 465.5,41.7 462.8,27.7 460,41.7 452.3,36.5 457.5,44.3 443.4,47 457.5,49.8 452.3,57.5 460,52.3 
			462.8,66.4 465.5,52.3 473.3,57.5 468.1,49.8 482.1,47 468.1,44.3 		"/>
		<polygon points="230.1,615.7 190.7,613 217.6,583.3 187.9,610.2 185.2,565 182.5,610.2 152.8,583.3 179.7,613 140.2,615.7 
			179.7,618.4 152.8,648.1 182.5,621.2 185.2,666.5 187.9,621.2 217.6,648.1 190.3,618.4 		"/>
		<path d="M302,305.3c1.7,0.3,3.3,0.4,5.1,0.4c20.9,0.3,38.1-16.3,38.4-37.2c0.3-20.9-16.3-38.1-37.2-38.4c-1.7,0-3.4,0.1-5.1,0.3
			c18.4,2.8,32.4,18.8,32.1,38C334.9,287.5,320.5,303.1,302,305.3z"/>
		<path d="M162.8,326.9c-1.1-0.5-1.8-0.5-2.1-1.6c-0.7-2-1.1-4.1-1.7-6.2c0,0,0,0,0-0.1c0,0,0,0,0-0.1c-0.1-0.1-0.2-0.2-0.3-0.2
			c-0.1,0-0.3,0-0.4,0.2c0,0,0,0.1,0,0.1c0,0,0,0,0,0c0,0,0,0,0,0c0,0,0,0,0,0c-0.5,2-1,4.1-1.6,6.2c-0.5,1.6-3.4,2.2-5,2.8
			c-0.3,0.1-0.5,0.6-0.1,0.8c1,0.4,1.9,0.8,2.9,1.3c0.6,0.3,1.2,0.5,1.7,0.8c0.1,0.1,0.2,0.1,0.3,0.1c0,0,0,0,0,0.1
			c1,1.8,1.3,4.4,1.9,6.5c0.1,0.4,0.7,0.4,0.8,0c0.6-2,0.9-4.6,1.9-6.5c0,0,0,0,0-0.1c0,0,0.1,0,0.2-0.1c0.5-0.4,1.2-0.6,1.8-0.8
			c1-0.4,1.9-0.9,2.9-1.3c0.4-0.2,0.2-0.7-0.1-0.8C164.7,327.7,163.7,327.3,162.8,326.9z M162.1,329.6c-0.6,0.3-1.5,0.5-2,1.1
			c-0.6,0.8-0.7,2.6-1,3.5c-0.2,0.6-0.3,1.2-0.5,1.8c-0.2-0.6-0.3-1.2-0.5-1.8c-0.3-1-0.4-2.7-1-3.5c-0.4-0.6-1.3-0.8-2-1.1
			c-0.8-0.3-1.5-0.7-2.3-1c1.6-0.5,3.7-1.2,4.4-2.3c0.6-1,0.7-2.8,1-3.9c0.1-0.5,0.3-1,0.4-1.5c0.1,0.5,0.3,1,0.4,1.5
			c0.3,1.2,0.5,2.9,1.1,3.9c0.6,1.1,2.8,1.8,4.4,2.3C163.7,328.9,162.9,329.2,162.1,329.6z"/>
		<path d="M348.5,410.6c1,0.4,1.9,0.8,2.9,1.3c0.6,0.3,1.2,0.5,1.7,0.8c0.1,0.1,0.2,0.1,0.3,0.1c0,0,0,0,0,0.1
			c1,1.8,1.3,4.4,1.9,6.5c0.1,0.4,0.7,0.4,0.8,0c0.6-2,0.9-4.6,1.9-6.5c0,0,0,0,0-0.1c0,0,0.1,0,0.2-0.1c0.5-0.4,1.2-0.6,1.8-0.8
			c1-0.4,1.9-0.9,2.9-1.3c0.4-0.2,0.2-0.7-0.1-0.8c-1-0.4-1.9-0.8-2.9-1.2c-1.1-0.5-1.8-0.5-2.1-1.6c-0.7-2-1.1-4.1-1.7-6.2
			c0,0,0,0,0-0.1c0,0,0,0,0-0.1c-0.1-0.1-0.2-0.2-0.3-0.2c-0.1,0-0.3,0-0.4,0.2c0,0,0,0.1,0,0.1c0,0,0,0,0,0c0,0,0,0,0,0
			c0,0,0,0,0,0c-0.5,2-1,4.1-1.6,6.2c-0.5,1.6-3.4,2.2-5,2.8C348.3,410,348.1,410.5,348.5,410.6z M354.2,408c0.6-1,0.7-2.8,1-3.9
			c0.1-0.5,0.3-1,0.4-1.5c0.1,0.5,0.3,1,0.4,1.5c0.3,1.2,0.5,2.9,1.1,3.9c0.6,1.1,2.8,1.8,4.4,2.3c-0.8,0.3-1.5,0.7-2.3,1
			c-0.6,0.3-1.5,0.5-2,1.1c-0.6,0.8-0.7,2.6-1,3.5c-0.2,0.6-0.3,1.2-0.5,1.8c-0.2-0.6-0.3-1.2-0.5-1.8c-0.3-1-0.4-2.7-1-3.5
			c-0.4-0.6-1.3-0.8-2-1.1c-0.8-0.3-1.5-0.7-2.3-1C351.4,409.8,353.6,409.1,354.2,408z"/>
		<path d="M160.6,216.9c-3.1,5.7,0.2,13.5,7,15.4c-1.1,2.8,1.5,6.9,2.7,9.1c-0.6,1.2-1.4,2.6-1.1,3.8c0.2,1.1,2,4.1,3.2,4.3
			c0.9,0.1,2.1-0.9,2.7-1.3c0.4-0.2,0.8-0.5,1.2-0.7c0,0.1,0,0.3,0.1,0.4c19.3,28.4,38.3,57,57.6,85.4c-0.2,0.2-0.5,0.3-0.7,0.5
			c-0.3,0.2-0.4,0.7-0.2,1c1.3,1.7,3.5,4.2,5.9,4.8c0,0.1,0,0.3,0.1,0.5c8.6,12.8,17,25.7,25.6,38.4c0,2,1.1,4.2,2,5.7
			c0.2,0.3,0.4,0.4,0.7,0.3c0.1,0,0.2,0,0.3-0.1c0.3-0.2,0.7-0.4,1-0.7c20.8,30.6,41.9,61,62.8,91.6c-0.1,0.1-0.3,0.2-0.4,0.3
			c-0.3,0.2-0.4,0.7-0.2,1c2.1,3.1,4.3,6.3,6.4,9.4c-0.7,0.5-1.3,0.9-2,1.4c-0.3,0.2-0.4,0.7-0.2,1c1.5,2.2,3,4.4,4.5,6.7
			c0.2,0.3,0.7,0.4,1,0.2c0.3-0.2,0.7-0.5,1-0.7c1.7,2.3,5.1,6.4,8.4,5.5c0.8-0.2,1.6-0.7,2.4-1.2c0.3,4,4.7,6.8,8.3,4.3
			c3.7-2.5,2.7-7.6-0.9-9.3c0.7-0.5,1.4-1,1.9-1.6c2.3-2.6-0.3-7.4-1.8-10c0.3-0.2,0.7-0.5,1-0.7c0.3-0.2,0.4-0.7,0.2-1
			c-1.5-2.2-3-4.4-4.5-6.7c-0.1-0.2-0.3-0.2-0.4-0.3c0,0,0,0-0.1,0c0,0,0,0-0.1,0c-0.2,0-0.3,0-0.5,0.1c-0.7,0.5-1.3,0.9-2,1.4
			c-2.1-3.1-4.3-6.3-6.4-9.4c-0.1-0.2-0.3-0.2-0.4-0.3c0,0,0,0-0.1,0c0,0,0,0-0.1,0c-0.2,0-0.3,0-0.5,0.1c-0.1,0.1-0.2,0.2-0.4,0.2
			c-20.8-30.6-41.3-61.4-62.1-92c0.3-0.2,0.6-0.4,0.9-0.6c0.3-0.2,0.4-0.7,0.2-1c-1.1-1.4-2.7-3.1-4.5-3.9c0,0,0-0.1,0-0.1
			c-8.7-12.7-17.7-25.3-26.3-38c-0.1-0.2-0.3-0.3-0.5-0.3c0.3-2.4-1.2-5.3-2.3-7.1c-0.2-0.3-0.4-0.4-0.7-0.3c-0.1,0-0.2,0-0.3,0.1
			c-0.2,0.2-0.5,0.3-0.7,0.5c-19.4-28.5-39.1-56.8-58.5-85.3c1.8-1.3,3.5-2.8,2.6-4.7c-1.3-2.9-2.9-3.2-5.7-3.1c-0.2,0-0.3,0-0.5,0
			c0,0,0,0,0,0c-1.5-2-4.4-5.9-7.4-5.9c0.7-7-5.3-13-11.7-12.1c4.3-5.3,4.8-13,0.7-18.9c-0.8-1.2-1.8-2.3-2.9-3.2
			c2.2,6.5-0.1,14-6.1,18.1c-6,4.1-13.8,3.5-19.1-0.9c0.5,1.4,1.1,2.7,1.9,3.9C146.9,216.6,154.2,218.9,160.6,216.9z M360,501.8
			c-3,2-6.6-0.7-6.1-4c0,0,0-0.1,0-0.1c0.8-0.6,1.5-1.2,2.2-1.6c0.7-0.5,1.5-0.9,2.3-1.4c0,0,0,0,0.1,0
			C361.7,495.3,363,499.7,360,501.8z M360.1,491.5c-1.4,1.3-3.3,2.3-4.9,3.3c-1.6,1.1-3.1,2.4-4.8,3.2c-2.9,1.6-5.9-2.2-7.6-4.4
			c5.3-3.6,10.6-7.2,15.8-10.8C360.1,485.2,362.5,489.3,360.1,491.5z M355.8,475.1c0.6,0.9,1.2,1.8,1.9,2.7l-19,12.9
			c-0.6-0.9-1.2-1.8-1.9-2.7C343.1,483.7,349.4,479.4,355.8,475.1z M346.3,466.9c1.9,2.8,3.8,5.7,5.8,8.5c-4.6,3.1-9.2,6.3-13.8,9.4
			c-1.9-2.8-3.8-5.7-5.8-8.5C337.1,473.1,341.7,470,346.3,466.9z M342.9,463.8l-11.8,8.1c-1.8-2.6-3.6-5.3-5.4-7.9
			c5,1.3,11.4-2.8,11.9-7.9C339.4,458.6,341.1,461.2,342.9,463.8z M284.2,376.9c17.3,25.5,34.4,51.1,51.7,76.7
			c2,5.9-7.2,11.9-11.9,8c-17.4-25.4-34.9-50.7-52.3-76.2L284.2,376.9z M283.1,372.1c-5.1,3.5-10.3,7-15.4,10.5
			c-1.2-2.2-2.2-5,0-6.8c1.4-1.1,3-2.1,4.5-3.1c1.5-1,2.9-2.1,4.4-3C279.1,368.2,281.4,370.1,283.1,372.1z M252.9,331
			c8.4,12.3,17,24.3,25.4,36.6c-0.5,0-0.9,0.1-1.4,0.3c-1.9,0.8-3.7,2.5-5.5,3.7c-1.7,1.2-3.8,2.2-5.4,3.7c-0.4,0.3-0.6,0.7-0.8,1.1
			c-8.3-12.2-16.3-24.7-24.6-36.9c0.2,0,0.4-0.1,0.6-0.2c2-0.8,3.9-2.6,5.7-3.8c1.7-1.2,4-2.2,5.4-3.7
			C252.6,331.5,252.8,331.3,252.9,331z M250.3,323.9c1.3,2.3,2.7,5.5,0.3,7.3c-1.4,1.1-3,2.1-4.6,3.1c-1.5,1-3,2.2-4.5,3.1
			c-2.6,1.5-5-0.9-6.7-3C240,330.9,245.1,327.4,250.3,323.9z M198.6,251.2c16,23.3,32,46.5,47.9,69.8l-13,8.8
			c-15.9-23.4-31.6-46.9-47.4-70.4C183.7,252.8,193.3,246.6,198.6,251.2C198.6,251.2,198.6,251.2,198.6,251.2z M191.6,240.9
			c1.7,2.6,3.5,5.1,5.2,7.7c-5.4-1.7-12.1,2.6-12.5,8.3c-1.7-2.5-3.4-5-5.1-7.5L191.6,240.9z M188.6,231.1c1.4,0,1.6-0.1,2.5,0.8
			c0.9,0.9,1.5,1.5,1,2.4c-0.8,1.4-3.3,2.7-4.5,3.6c-2,1.5-4.1,2.9-6.2,4.4c-1.9,1.3-3.9,2.6-5.8,3.9c-0.7,0.4-1.4,0.9-2.1,1.3
			c-0.4,0.3-0.9,0.3-0.8,0.5c-0.6-0.4-1.8-2.6-2-3.2c0,0,0-0.1,0-0.1c0,0,0-0.1,0-0.1c0.1-0.4,0.3-0.9,0.5-1.3
			c1.5-3.6,3.5-7.2,6.6-9.5C180.9,231.8,184.9,231.2,188.6,231.1z M185.8,229.9c-3.1,0.3-6.2,1.1-8.9,2.7c-2.5,1.9-4.3,4.5-5.8,7.3
			c-1.4-2.3-3.4-6-1.3-8c1.3-1.2,3.1-2.1,4.5-3.1c1.5-1,2.9-2.3,4.5-3.1C181.4,224.5,184.2,227.8,185.8,229.9z M163.2,215.9
			c0.6-0.3,1.1-0.6,1.7-1c0.5-0.4,1-0.7,1.5-1.2c6.4-2.6,13.3,3.4,12.2,10.4c0,0,0,0,0,0.1c-1.8,0.7-3.6,2.5-5,3.5
			c-1.5,1-3.8,2-5.1,3.4c-0.1,0-0.1-0.1-0.2-0.1C161.4,229.3,158.5,220.8,163.2,215.9z"/>
		<path d="M195.6,263c-0.2,1.1-1.9,2.4-1.6,2.9c0.3,0.4,2.2-0.6,3.3-0.3c1.1,0.2,3.1,2.7,3.6,2.4c0.4-0.3-1-3.2-0.8-4.2
			c0.2-1,1.9-2.5,1.6-2.9c-0.2-0.4-2.3,0.5-3.3,0.3s-3.1-2.7-3.6-2.4S195.8,261.8,195.6,263z"/>
		<path d="M201.7,277.3c0.3,0.4,2.2-0.6,3.3-0.3c1.1,0.2,3.1,2.7,3.6,2.4c0.4-0.3-1-3.2-0.8-4.2c0.2-1,1.9-2.5,1.6-2.9
			c-0.2-0.4-2.3,0.5-3.3,0.3s-3.1-2.7-3.6-2.4c-0.4,0.3,1,3.1,0.8,4.2C203.1,275.5,201.5,276.8,201.7,277.3z"/>
		<path d="M312.1,439.5c0.3,0.4,2.2-0.6,3.3-0.3c1.1,0.2,3.1,2.7,3.6,2.4c0.4-0.3-1-3.2-0.8-4.2c0.2-1,1.9-2.5,1.6-2.9
			c-0.2-0.4-2.3,0.5-3.3,0.3c-0.9-0.2-3.1-2.7-3.6-2.4c-0.4,0.3,1,3.1,0.8,4.2C313.5,437.7,311.8,439,312.1,439.5z"/>
		<path d="M319.9,450.9c0.3,0.4,2.2-0.6,3.3-0.3c1.1,0.2,3.1,2.7,3.6,2.4c0.4-0.3-1-3.2-0.8-4.2c0.2-1,1.9-2.5,1.6-2.9
			c-0.2-0.4-2.3,0.5-3.3,0.3c-0.9-0.2-3.1-2.7-3.6-2.4c-0.4,0.3,1,3.1,0.8,4.2S319.6,450.5,319.9,450.9z"/>
		<path d="M265.8,363.3c1.2-0.8,1.7-2.1,0.2-4.3c-1.4-2.1-13.5-15.2-13.5-15.2s7.7,16,9.2,18.1C263.2,364,264.6,364.1,265.8,363.3z"
			/>
		<polygon points="168.4,223.4 168.4,226.7 169.6,223.7 173.2,227.2 171.3,222.6 174.5,222.6 171.5,221.3 175,217.7 170.4,219.7 
			170.4,216.4 169.1,219.5 165.5,215.9 167.5,220.6 164.2,220.6 167.3,221.8 163.7,225.4 		"/>
		<path d="M353.6,651.1c3.1-5.7-0.2-13.5-7-15.4c1.1-2.8-1.5-6.9-2.7-9.1c0.6-1.2,1.4-2.6,1.1-3.8c-0.2-1.1-2-4.1-3.2-4.3
			c-0.9-0.1-2.1,0.9-2.7,1.3c-0.4,0.2-0.8,0.5-1.2,0.7c0-0.1,0-0.3-0.1-0.4c-19.3-28.4-38.3-57-57.6-85.4c0.2-0.2,0.5-0.3,0.7-0.5
			c0.3-0.2,0.4-0.7,0.2-1c-1.3-1.7-3.5-4.2-5.9-4.8c0-0.1,0-0.3-0.1-0.5c-8.6-12.8-17-25.7-25.6-38.4c0-2-1.1-4.2-2-5.7
			c-0.2-0.3-0.4-0.4-0.7-0.3c-0.1,0-0.2,0-0.3,0.1c-0.3,0.2-0.7,0.4-1,0.7c-20.8-30.6-41.9-61-62.8-91.6c0.1-0.1,0.3-0.2,0.4-0.3
			c0.3-0.2,0.4-0.7,0.2-1c-2.1-3.1-4.3-6.3-6.4-9.4c0.7-0.5,1.4-0.9,2-1.4c0.3-0.2,0.4-0.7,0.2-1c-1.5-2.2-3-4.4-4.5-6.7
			c-0.2-0.3-0.7-0.4-1-0.2c-0.3,0.2-0.7,0.5-1,0.7c-1.7-2.3-5.1-6.4-8.4-5.5c-0.8,0.2-1.6,0.7-2.4,1.2c-0.3-4-4.7-6.8-8.3-4.3
			c-3.7,2.5-2.7,7.6,0.9,9.3c-0.7,0.5-1.4,1-1.9,1.6c-2.3,2.6,0.3,7.4,1.8,10c-0.3,0.2-0.7,0.5-1,0.7c-0.3,0.2-0.4,0.7-0.2,1
			c1.5,2.2,3,4.4,4.5,6.7c0.1,0.2,0.3,0.2,0.4,0.3c0,0,0,0,0.1,0c0,0,0,0,0.1,0c0.2,0,0.3,0,0.5-0.1c0.7-0.5,1.3-0.9,2-1.4
			c2.1,3.1,4.3,6.3,6.4,9.4c0.1,0.2,0.3,0.2,0.4,0.3c0,0,0,0,0.1,0c0,0,0,0,0.1,0c0.2,0,0.3,0,0.5-0.1c0.1-0.1,0.2-0.2,0.4-0.2
			c20.8,30.6,41.3,61.4,62.1,92c-0.3,0.2-0.6,0.4-0.9,0.6c-0.3,0.2-0.4,0.7-0.2,1c1.1,1.4,2.7,3.1,4.5,3.9c0,0,0,0.1,0,0.1
			c8.7,12.7,17.7,25.3,26.3,38c0.1,0.2,0.3,0.3,0.5,0.3c-0.3,2.4,1.2,5.3,2.3,7.1c0.2,0.3,0.4,0.4,0.7,0.3c0.1,0,0.2,0,0.3-0.1
			c0.2-0.2,0.5-0.3,0.7-0.5c19.4,28.5,39.1,56.8,58.5,85.3c-1.8,1.3-3.5,2.8-2.6,4.7c1.3,2.9,2.9,3.2,5.7,3.1c0.2,0,0.3,0,0.5,0
			c0,0,0,0,0,0c1.5,2,4.4,5.9,7.4,5.9c-0.7,7,5.3,13,11.7,12.1c-4.3,5.3-4.8,13-0.7,18.9c0.8,1.2,1.8,2.3,2.9,3.2
			c-2.2-6.5,0.1-14,6.1-18.1c6-4.1,13.8-3.5,19.1,0.9c-0.5-1.4-1.1-2.7-1.9-3.9C367.4,651.4,360.1,649.1,353.6,651.1z M154.3,366.3
			c3-2,6.6,0.7,6.1,4c0,0,0,0.1,0,0.1c-0.8,0.6-1.5,1.2-2.2,1.6c-0.7,0.5-1.5,0.9-2.3,1.4c0,0,0,0-0.1,0
			C152.5,372.7,151.3,368.3,154.3,366.3z M154.1,376.6c1.4-1.3,3.3-2.3,4.9-3.3c1.6-1.1,3.1-2.4,4.8-3.2c2.9-1.6,5.9,2.2,7.6,4.4
			c-5.3,3.6-10.6,7.2-15.8,10.8C154.2,382.9,151.8,378.7,154.1,376.6z M158.5,393c-0.6-0.9-1.2-1.8-1.9-2.7l19-12.9
			c0.6,0.9,1.2,1.8,1.9,2.7C171.2,384.3,164.9,388.6,158.5,393z M167.9,401.2c-1.9-2.8-3.8-5.7-5.8-8.5c4.6-3.1,9.2-6.3,13.8-9.4
			c1.9,2.8,3.8,5.7,5.8,8.5C177.1,394.9,172.5,398.1,167.9,401.2z M171.4,404.2l11.8-8.1c1.8,2.6,3.6,5.3,5.4,7.9
			c-5-1.3-11.4,2.8-11.9,7.9C174.9,409.5,173.2,406.8,171.4,404.2z M230.1,491.2c-17.3-25.5-34.4-51.1-51.7-76.7
			c-2-5.9,7.2-11.9,11.9-8c17.4,25.4,34.9,50.7,52.3,76.2L230.1,491.2z M231.2,495.9c5.1-3.5,10.3-7,15.4-10.5c1.2,2.2,2.2,5,0,6.8
			c-1.4,1.1-3,2.1-4.5,3.1c-1.5,1-2.9,2.1-4.4,3C235.1,499.9,232.9,497.9,231.2,495.9z M261.4,537.1c-8.4-12.3-17-24.3-25.4-36.6
			c0.5,0,0.9-0.1,1.4-0.3c1.9-0.8,3.7-2.5,5.5-3.7c1.7-1.2,3.8-2.2,5.4-3.7c0.4-0.3,0.6-0.7,0.8-1.1c8.3,12.2,16.3,24.7,24.6,36.9
			c-0.2,0-0.4,0.1-0.6,0.2c-2,0.8-3.9,2.6-5.7,3.8c-1.7,1.2-4,2.2-5.4,3.7C261.7,536.5,261.5,536.8,261.4,537.1z M264,544.2
			c-1.3-2.3-2.7-5.5-0.3-7.3c1.4-1.1,3-2.1,4.5-3.1c1.5-1,3-2.2,4.5-3.1c2.6-1.5,5,0.9,6.7,3C274.3,537.1,269.1,540.7,264,544.2z
			 M315.7,616.8c-16-23.3-32-46.5-47.9-69.8l13-8.8c15.9,23.4,31.6,46.9,47.4,70.4C330.6,615.3,320.9,621.4,315.7,616.8
			C315.7,616.8,315.7,616.8,315.7,616.8z M322.7,627.1c-1.7-2.6-3.5-5.1-5.2-7.7c5.4,1.7,12.1-2.6,12.5-8.3c1.7,2.5,3.4,5,5.1,7.5
			L322.7,627.1z M325.6,636.9c-1.4,0-1.6,0.1-2.5-0.8c-0.9-0.9-1.5-1.5-1-2.4c0.8-1.4,3.3-2.7,4.5-3.6c2-1.5,4.1-2.9,6.2-4.4
			c1.9-1.3,3.9-2.6,5.8-3.9c0.7-0.4,1.4-0.9,2.1-1.3c0.4-0.3,0.9-0.3,0.8-0.5c0.6,0.4,1.8,2.6,2,3.2c0,0,0,0.1,0,0.1
			c0,0,0,0.1,0,0.1c-0.1,0.4-0.3,0.9-0.5,1.3c-1.5,3.6-3.5,7.2-6.6,9.5C333.4,636.3,329.4,636.8,325.6,636.9z M328.5,638.2
			c3.1-0.3,6.2-1.1,8.9-2.7c2.5-1.9,4.3-4.5,5.8-7.3c1.4,2.3,3.4,6,1.3,8c-1.3,1.2-3.1,2.1-4.5,3.1c-1.5,1-2.9,2.3-4.5,3.1
			C332.9,643.6,330.1,640.2,328.5,638.2z M351.1,652.2c-0.6,0.3-1.1,0.6-1.7,1c-0.5,0.4-1,0.7-1.5,1.2c-6.4,2.6-13.3-3.4-12.2-10.4
			c0,0,0,0,0-0.1c1.8-0.7,3.6-2.5,5-3.5c1.5-1,3.8-2,5.1-3.4c0.1,0,0.1,0.1,0.2,0.1C352.9,638.8,355.8,647.3,351.1,652.2z"/>
		<path d="M318.7,605.1c0.2-1.1,1.9-2.4,1.6-2.9c-0.3-0.4-2.2,0.6-3.3,0.3c-1.1-0.2-3.1-2.7-3.6-2.4c-0.4,0.3,1,3.2,0.8,4.2
			c-0.2,1-1.9,2.5-1.6,2.9c0.2,0.4,2.3-0.5,3.3-0.3c0.9,0.2,3.1,2.7,3.6,2.4C319.9,609.1,318.5,606.2,318.7,605.1z"/>
		<path d="M312.5,590.8c-0.3-0.4-2.2,0.6-3.3,0.3c-1.1-0.2-3.1-2.7-3.6-2.4c-0.4,0.3,1,3.2,0.8,4.2c-0.2,1-1.9,2.5-1.6,2.9
			c0.2,0.4,2.3-0.5,3.3-0.3c0.9,0.2,3.1,2.7,3.6,2.4c0.4-0.3-1-3.1-0.8-4.2S312.8,591.2,312.5,590.8z"/>
		<path d="M202.2,428.6c-0.3-0.4-2.2,0.6-3.3,0.3c-1.1-0.2-3.1-2.7-3.6-2.4c-0.4,0.3,1,3.2,0.8,4.2c-0.2,1-1.9,2.5-1.6,2.9
			c0.2,0.4,2.3-0.5,3.3-0.3c0.9,0.2,3.1,2.7,3.6,2.4c0.4-0.3-1-3.1-0.8-4.2C200.8,430.3,202.5,429,202.2,428.6z"/>
		<path d="M194.4,417.1c-0.3-0.4-2.2,0.6-3.3,0.3c-1.1-0.2-3.1-2.7-3.6-2.4c-0.4,0.3,1,3.2,0.8,4.2c-0.2,1-1.9,2.5-1.6,2.9
			c0.2,0.4,2.3-0.5,3.3-0.3s3.1,2.7,3.6,2.4c0.4-0.3-1-3.1-0.8-4.2C193,418.9,194.7,417.6,194.4,417.1z"/>
		<path d="M248.5,504.8c-1.2,0.8-1.7,2.1-0.2,4.3c1.4,2.1,13.5,15.2,13.5,15.2s-7.7-16-9.2-18.1C251.1,504,249.7,504,248.5,504.8z"
			/>
		<polygon points="345.9,644.6 345.9,641.3 344.7,644.4 341,640.8 343,645.5 339.7,645.5 342.8,646.7 339.2,650.3 343.9,648.4 
			343.9,651.7 345.1,648.6 348.8,652.2 346.8,647.5 350.1,647.5 347,646.2 350.6,642.6 		"/>
	</g>
</g>
</svg>
