<?xml version="1.0" encoding="utf-8"?>
<!-- Generator: Adobe Illustrator 21.1.0, SVG Export Plug-In . SVG Version: 6.00 Build 0)  -->
<svg version="1.1" xmlns="http://www.w3.org/2000/svg" xmlns:xlink="http://www.w3.org/1999/xlink" x="0px" y="0px"
	 viewBox="0 0 504 864" style="enable-background:new 0 0 504 864;" xml:space="preserve">
<g id="Слой_1">
</g>
<g id="Слой_2">
	<g>
		<path d="M503.8,18.2c-1.6-17.9-18.7-16.3-31.6-16.3c-45.9,0-91.8,0-137.6,0c-63.2,0-126.3,0-189.5,0c-40.6,0-81.2,0-121.8,0
			c-2.6,0-5.3-0.2-8,0.2c-9.5,1.2-15,9.2-15.2,18.2c-0.2,7.3,0,14.5,0,21.8c0,37.4,0,74.9,0,112.3c0,57,0,114.1,0,171.1
			c0,64.3,0,128.6,0,192.9c0,58.4,0,116.7,0,175.1c0,40.1,0,80.2,0,120.3c0,9.1,0,18.2,0,27.3c0,11.7,6.7,20.5,19.2,20.7
			c35.9,0.6,71.9,0,107.9,0c62.4,0,124.9,0,187.3,0c49.7,0,99.5,0,149.2,0c7.6,0,15.2,0,22.9,0c0.4,0,0.8-0.1,1.2-0.2
			c14.4-1.8,16.1-13.8,16.1-25.5c0-11.4,0-22.8,0-34.3c0-43.4,0-86.9,0-130.3c0-59.9,0-119.8,0-179.8c0-63.9,0-127.7,0-191.6
			c0-55.3,0-110.6,0-165.9c0-33.7,0-67.3,0-101C503.9,28.3,504.2,23.2,503.8,18.2z M486.6,852.8c-28.3,0-56.6,0-84.9,0
			c-59.9,0-119.8,0-179.7,0c-54,0-108,0-162,0c-13.1,0-26.1,0-39.2,0c-5.6,0-11-1.3-11.7-8.3c-0.2-1.5,0-3,0-4.5c0-26.5,0-53,0-79.5
			c0-50,0-100,0-149.9c0-61.8,0-123.6,0-185.4c0-61.4,0-122.7,0-184.1c0-48.9,0-97.7,0-146.6c0-24.2-0.8-48.6,0-72.7
			c0.2-5.3,1.6-10.1,8.3-10.8c2.2-0.2,4.5,0,6.7,0c14.8,0,29.6,0,44.5,0c55.6,0,111.3,0,166.9,0c58.9,0,117.8,0,176.7,0
			c18.9,0,37.9,0,56.8,0c8.1,0,24.7-3.1,25.9,8.4c0.5,5.2,0,10.8,0,16.1c0,13.5,0,27.1,0,40.6c0,45.5,0,91.1,0,136.6
			c0,60.1,0,120.2,0,180.3c0,62.6,0,125.2,0,187.7c0,52.8,0,105.6,0,158.4c0,31.4,0,62.7,0,94.1C494.8,840.3,496.9,852,486.6,852.8z
			"/>
		<path d="M460,790.9c1.2,0.1,2.4-0.7,2.4-2.2c0-23.7,0-47.4,0-71.1c0-56.4,0-112.8,0-169.2c0-68.7,0-137.4,0-206
			c0-59,0-117.9,0-176.9c0-19.6,0-39.2,0-58.8c0-8.9,1.3-19,0-27.9c-0.1-0.4,0-0.8,0-1.2c0-0.8-0.3-1.3-0.8-1.7
			c0.1-1.2-0.6-2.5-2.2-2.6c-13.1-0.5-25.3-13.8-25.8-26.7c0-0.5-0.2-0.8-0.4-1.1c-0.3-0.6-1-1.1-1.9-1.1c-40.5,0-80.9,0-121.4,0
			c-64.5,0-129,0-193.6,0c-14.9,0-29.7,0-44.6,0c-0.9,0-1.6,0.5-1.9,1.1c-0.2,0.3-0.3,0.7-0.4,1.2C69.1,59.5,57,72.8,43.9,73.3
			c-1.8,0.1-2.5,1.9-2,3.2c-0.2,0.3-0.2,0.6-0.2,1c0,23.7,0,47.4,0,71.1c0,56.4,0,112.8,0,169.2c0,68.7,0,137.4,0,206
			c0,59,0,117.9,0,176.9c0,19.6,0,39.2,0,58.8c0,8.9-1.3,19,0,27.9c0.1,0.4,0,0.8,0,1.2c0,0.9,0.5,1.6,1.1,1.9
			c0.3,0.2,0.7,0.3,1.2,0.4c13,0.5,25.3,13.3,25.8,26.2c0,0.5,0.2,0.8,0.4,1.1c0.3,0.6,1,1.1,1.9,1.1c40.5,0,80.9,0,121.4,0
			c64.5,0,129,0,193.6,0c14.9,0,29.7,0,44.6,0c0.9,0,1.6-0.5,1.9-1.1c0.2-0.3,0.3-0.7,0.4-1.2c0.5-12.9,12.7-25.7,25.8-26.2
			C459.6,791,459.8,790.9,460,790.9z M429.3,814.9c-39.8,0-79.6,0-119.3,0c-64.5,0-129,0-193.6,0c-14.2,0-28.3,0-42.5,0
			c-1.7-13.9-13.9-26.5-27.8-28.3c0-23,0-46,0-69.1c0-56.4,0-112.8,0-169.2c0-68.7,0-137.4,0-206c0-59,0-117.9,0-176.9
			c0-19.6,0-39.2,0-58.8c0-8.9,1.3-19,0-27.9c-0.1-0.4,0-0.8,0-1.2c14-1.8,26.1-14.9,27.8-28.7c39.8,0,79.5,0,119.3,0
			c64.5,0,129,0,193.6,0c14.2,0,28.3,0,42.5,0c1.7,14.1,14.3,27.4,28.5,28.8c0,23.7,0,47.3,0,71c0,56.4,0,112.8,0,169.2
			c0,68.7,0,137.4,0,206c0,59,0,117.9,0,176.9c0,19.6,0,39.2,0,58.8c0,8.6-1.2,18.4-0.1,27C443.6,788.1,431.1,800.9,429.3,814.9z"/>
		<path d="M250,79.3c-0.3-0.2-1.4-0.3-3.4-0.3c-2,0-2.9,0.1-2.9,0.3c0,0.1-0.3,0.2-0.9,0.2c-0.6,0-0.9,0.1-0.9,0.4
			c0,0.3-0.1,0.4-0.3,0.4c-0.2,0-0.3,0.2-0.3,0.6c0,0.5,0.1,0.8,0.4,0.9c0.3,0.1,0.4,0.9,0.4,2.5c0,1.6,0.1,2.4,0.3,2.5
			c0.2,0.1,0.3,0.8,0.3,2.2c0,1.3-0.1,2-0.3,2.1c-0.2,0.1-0.4,1.5-0.4,4.3c-0.1,2.4-0.2,3.9-0.4,4.3c-0.2,0.5-0.8,0.8-1.8,0.9
			c-0.6,0-0.9,0.1-1,0.2c-0.1,0.1-0.2,0.4-0.2,0.8c0,0.6,0.1,0.9,0.4,0.9c0.3,0,0.6,0.1,0.9,0.4c0.3,0.3,0.5,0.4,0.6,0.2
			c0.1-0.2,1.5-0.4,4-0.4c2.1,0,3.2,0.1,3.2,0.3c0,0.2,0.2,0.3,0.5,0.3c0.4,0,0.6-0.1,0.6-0.2c0-0.1,0.2-0.3,0.6-0.5
			c0.4-0.2,0.6-0.4,0.6-0.6c0-0.9-0.7-1.4-1.9-1.5l-1.3-0.1l0.1-6.7c0.1-4.5,0.2-6.8,0.3-7c0.1-0.1,0.2-0.8,0.3-1.9
			c0.1-2.1,0.4-3.2,0.7-3.2c0.2,0,0.4-0.1,0.4-0.3c0-0.2,0.2-0.3,0.7-0.3c0.4,0,0.8-0.1,1-0.3c0.3-0.2,0.4-0.5,0.4-0.7
			C250.5,79.8,250.3,79.5,250,79.3z M243.3,96.6c-0.3,0-0.4-0.1-0.4-0.3c0-0.2,0.1-0.3,0.4-0.3c0.2,0,0.4,0.1,0.4,0.3
			C243.7,96.5,243.5,96.6,243.3,96.6z M244.9,89.2c-0.3,0-0.4-0.2-0.4-0.5c0-0.4,0.1-0.6,0.4-0.6s0.4,0.2,0.4,0.6
			C245.3,89,245.2,89.2,244.9,89.2z"/>
		<path d="M262,86.8c0.1-0.1,0.2-0.8,0.3-1.9c0.1-2.1,0.4-3.2,0.7-3.2c0.2,0,0.4-0.1,0.4-0.3c0-0.2,0.2-0.3,0.7-0.3
			c0.4,0,0.8-0.1,1-0.3c0.3-0.2,0.4-0.5,0.4-0.7c0-0.3-0.2-0.6-0.5-0.8c-0.3-0.2-1.4-0.3-3.4-0.3c-2,0-2.9,0.1-2.9,0.3
			c0,0.1-0.3,0.2-0.9,0.2c-0.6,0-0.9,0.1-0.9,0.4c0,0.3-0.1,0.4-0.3,0.4c-0.2,0-0.3,0.2-0.3,0.6c0,0.5,0.1,0.8,0.4,0.9
			c0.3,0.1,0.4,0.9,0.4,2.5c0,1.6,0.1,2.4,0.3,2.5c0.2,0.1,0.3,0.8,0.3,2.2c0,1.3-0.1,2-0.3,2.1c-0.2,0.1-0.4,1.5-0.4,4.3
			c-0.1,2.4-0.2,3.9-0.4,4.3c-0.2,0.5-0.8,0.8-1.8,0.9c-0.6,0-0.9,0.1-1,0.2c-0.1,0.1-0.2,0.4-0.2,0.8c0,0.6,0.1,0.9,0.4,0.9
			c0.3,0,0.6,0.1,0.9,0.4c0.3,0.3,0.5,0.4,0.6,0.2c0.1-0.2,1.5-0.4,4-0.4c2.1,0,3.2,0.1,3.2,0.3c0,0.2,0.2,0.3,0.5,0.3
			c0.4,0,0.6-0.1,0.6-0.2c0-0.1,0.2-0.3,0.6-0.5c0.4-0.2,0.6-0.4,0.6-0.6c0-0.9-0.7-1.4-1.9-1.5l-1.3-0.1l0.1-6.7
			C261.7,89.4,261.8,87,262,86.8z M258.3,96.6c-0.3,0-0.4-0.1-0.4-0.3c0-0.2,0.1-0.3,0.4-0.3c0.2,0,0.4,0.1,0.4,0.3
			C258.7,96.5,258.5,96.6,258.3,96.6z M259.9,89.2c-0.3,0-0.4-0.2-0.4-0.5c0-0.4,0.1-0.6,0.4-0.6c0.3,0,0.4,0.2,0.4,0.6
			C260.3,89,260.2,89.2,259.9,89.2z"/>
		<path d="M170.2,785.3c0.1,0,0.2-0.2,0.2-0.5c0-0.2,0-0.4-0.1-0.4c-0.1,0-0.1-0.1-0.1-0.3c0-0.2,0.1-0.4,0.2-0.6
			c0.1-0.3,0.1-0.5-0.2-0.6c-0.2-0.2-0.5-0.3-0.9-0.3c-0.5,0-0.8,0.1-1.1,0.4c-0.3,0.2-0.4,0.3-0.5,0.2c-0.1-0.1-0.4-0.1-0.8,0
			c-0.5,0.1-1.4,0.2-2.6,0.2c-0.9,0-1.4,0-1.5-0.1c-0.1-0.1-0.2,0-0.4,0.2c-0.1,0.1-0.3,0.2-0.4,0.2c-0.2,0-0.4,0-0.7-0.1
			c-0.7-0.2-1.1-0.2-1.3-0.2c-0.1,0-0.2,0-0.2,0c-0.1,0-0.3,0.1-0.4,0.3c-0.1,0.2-0.2,0.4-0.2,0.5c0,0.1,0,0.1,0.1,0.2
			c0,0,0.1,0.2,0.1,0.5c0,0.1,0,0.2-0.1,0.3c-0.1,0-0.2,0.1-0.3,0.1c-0.3,0-0.5,0.1-0.5,0.3c0,0,0,0.1,0.1,0.2
			c0.1,0.1,0.1,0.3,0.1,0.6c0,0.3-0.1,0.4-0.1,0.5c0,0.5,0.2,0.8,0.6,0.8c0.3,0,0.4-0.1,0.4-0.2c0-0.1,0.1-0.2,0.2-0.2
			c0.1,0,0.1,0,0.2-0.1c0,0,0-0.1,0-0.2c0-0.1-0.1-0.2-0.2-0.2c-0.1-0.1-0.1-0.1-0.1-0.2c0,0,0-0.1,0-0.1c0,0,0-0.1,0.1-0.1
			c0,0,0.1,0,0.2-0.1c0.2-0.1,0.2-0.2,0.2-0.3c0,0,0-0.1,0-0.2c0-0.1,0-0.1,0-0.2c0-0.1,0-0.2,0.1-0.2c0.1-0.1,0.1-0.3,0-0.6
			c-0.1-0.3-0.1-0.4,0-0.4c0.1,0,0.1,0.1,0.1,0.2c0,0.1,0.2,0.2,0.5,0.4c0.4,0.1,0.7,0.2,1.1,0.2c0.4,0,0.7,0.1,0.8,0.3
			c0.2,0.2,0.3,0.2,0.5,0.2c0.1,0,0.1,0,0.1,0c0.1,0,0.1,0,0,0.1c-0.3,0.3-0.4,2.2-0.5,5.8c0,0.8-0.1,1.2-0.3,1.4
			c-0.2,0.1-0.3,0.3-0.3,0.4c0,0.1-0.3,0.2-0.8,0.2l-0.7,0.1l-0.1,0.5c0,0,0,0.1,0,0.1c0,0,0,0.1,0,0.1c0,0.2,0.1,0.4,0.4,0.7
			c0.3,0.3,0.5,0.4,0.7,0.4c0.1,0,0.1,0,0.1-0.1s0-0.1-0.1-0.1c-0.1,0-0.1,0-0.1-0.1c0-0.1,0.2-0.1,0.5-0.1c0.1,0,0.4,0,0.8,0
			c0.4,0,0.7,0,0.9,0c0.6,0,0.9-0.1,1.1-0.2c0.1-0.1,0.3-0.2,0.6-0.1c0.2,0.1,0.3,0,0.4-0.1c0.1-0.1,0.2-0.1,0.3-0.1
			c0.1,0,0.3-0.1,0.5-0.2c0.1-0.1,0.2-0.2,0.2-0.3c0-0.1-0.1-0.2-0.2-0.5c-0.2-0.3-0.3-0.4-0.5-0.4c-0.1,0-0.2-0.1-0.2-0.2
			c0-0.1-0.1-0.2-0.3-0.1c0,0-0.1,0-0.1,0c-0.1,0-0.1,0-0.1,0c-0.1,0-0.2,0-0.3-0.1c0-0.1-0.1-0.3-0.1-0.5v-0.4c0-0.5,0-0.8,0-0.9
			c0-0.1,0.1-0.2,0.2-0.2c0.2,0,0.2-0.1,0.2-0.4c0-0.3-0.1-0.5-0.2-0.5c-0.1,0-0.2-0.4-0.2-1.1c0-0.8,0.1-1.2,0.2-1.4
			c0.1-0.1,0.2-0.5,0.2-1.2c0-0.7,0.1-1,0.1-1.1c0.1-0.2,0.5-0.2,1.2-0.2c1,0,1.5,0.1,1.6,0.4c0,0.1,0.1,0.2,0.4,0.5
			c0.2,0.2,0.3,0.4,0.3,0.8c0,0.3,0.1,0.5,0.1,0.5c0,0.1,0.2,0.1,0.4,0.1c0.2,0,0.4,0,0.4-0.1c0-0.1,0.1-0.2,0.3-0.2
			c0.2-0.1,0.3-0.2,0.3-0.4c0-0.2-0.1-0.4-0.2-0.5C170.1,785.4,170.1,785.3,170.2,785.3z"/>
		<path d="M193.2,782.4c-0.1,0-0.3,0-0.5,0c-0.2,0-0.4,0-0.4,0c-0.4,0-0.6,0-0.7,0.1c-0.1,0-0.3,0.1-0.4,0.3
			c-0.2,0.2-0.3,0.3-0.3,0.4c0,0.1,0,0.1,0.2,0.2c0.3,0.2,0.5,0.2,0.7,0.2c0.3,0,0.4,0.1,0.5,0.3s0,0.3-0.1,0.4
			c-0.1,0-0.2,0.2-0.2,0.6c0,0.4-0.1,0.6-0.2,0.6c-0.2,0.1-0.2,0.2-0.2,0.4v0.4c0,0.6-0.1,0.9-0.3,0.9c-0.1,0-0.2,0.1-0.3,0.3
			s-0.1,0.7-0.3,1.5c-0.1,0.4-0.2,0.6-0.4,0.6c-0.1,0-0.2,0.1-0.2,0.2c0,0.1,0,0.2-0.2,0.2c-0.3,0-0.4-0.1-0.5-0.2
			c-0.1-0.2-0.2-0.5-0.3-0.9c-0.1-0.4-0.2-1-0.2-1.7c-0.1-0.5-0.2-0.8-0.3-0.9c-0.1-0.1-0.1-0.4-0.1-0.7c0-0.3,0-0.5-0.1-0.5
			c-0.1,0-0.1-0.1-0.1-0.4c0-0.2-0.1-0.4-0.2-0.5c-0.1-0.1-0.2-0.1-0.2-0.2c0-0.1,0.2-0.2,0.6-0.2c0.4,0,0.7-0.1,0.9-0.3
			c0.1-0.1,0.2-0.2,0.2-0.3c0-0.1,0-0.2-0.1-0.4c-0.1-0.2-0.3-0.4-0.6-0.5c-0.3-0.1-0.8-0.1-1.6-0.1c-0.6,0-1-0.1-1-0.3
			c-0.1-0.2-0.1-0.3-0.2-0.3c-0.1,0-0.2,0.1-0.5,0.3c-0.3,0.2-0.4,0.3-0.5,0.3c-0.3,0-0.5,0.2-0.6,0.6v0.1l0,0.1
			c0,0.3,0.3,0.6,0.9,0.7c0.1,0,0.3,0.1,0.4,0.1c0.1,0.1,0.1,0.2,0.1,0.2c0,0.1-0.1,0.1-0.2,0.1c-0.1,0-0.1,0.2-0.1,0.6
			c0,0.4-0.1,0.6-0.2,0.6c-0.1,0-0.1,0.2-0.1,0.5c0,0.7-0.2,1.1-0.5,1.2c-0.1,0-0.2,0.1-0.3,0.3c-0.1,0.2-0.1,0.7-0.3,1.5
			c-0.1,0.4-0.2,0.6-0.4,0.6c-0.2,0-0.2,0.1-0.2,0.2c0,0.1,0,0.2-0.2,0.2c-0.3,0-0.5-0.1-0.6-0.2c-0.1-0.2-0.2-0.5-0.2-0.9
			c0-0.6-0.1-0.9-0.2-1c-0.1-0.1-0.1-0.3-0.1-0.6c0-0.4-0.1-0.7-0.2-0.9c-0.1-0.3-0.2-0.5-0.1-0.8c0-0.3,0-0.5-0.1-0.5
			c-0.1,0-0.2-0.1-0.2-0.4c0-0.2-0.1-0.4-0.2-0.5c-0.1-0.1-0.2-0.1-0.2-0.2c0-0.1,0.2-0.2,0.6-0.2c0.4,0,0.7-0.1,0.9-0.3
			c0.1-0.1,0.2-0.2,0.2-0.3c0-0.1-0.1-0.2-0.2-0.4c-0.1-0.2-0.2-0.3-0.4-0.4c-0.2-0.1-0.5-0.1-0.9-0.1c-0.1,0-0.2,0-0.4,0
			c-0.2,0-0.4,0-0.5,0h-0.4c-0.3,0-0.4,0-0.5-0.1c-0.1,0-0.1-0.1-0.2-0.3c-0.1-0.2-0.1-0.4-0.3-0.4c-0.1,0-0.2,0.1-0.5,0.3
			c-0.2,0.2-0.4,0.3-0.5,0.3c-0.1,0-0.3,0.1-0.4,0.2c-0.1,0.1-0.2,0.3-0.2,0.4c0,0.4,0.3,0.7,0.9,0.8c0.5,0.1,0.9,0.6,1,1.6
			c0.1,0.4,0.2,0.6,0.3,0.8c0.1,0.1,0.2,0.4,0.2,0.7c0,0.3,0.1,0.5,0.2,0.6c0.4,0.4,0.5,1.1,0.5,1.9c0,0.4,0,0.6,0.1,0.7
			c0.1,0.1,0.1,0.2,0.1,0.4c0,0.2,0,0.3,0.1,0.4c0.1,0.1,0.2,0.3,0.2,0.8c0,0.4,0.1,0.6,0.2,0.6c0.1,0,0.2,0.2,0.2,0.5
			c0,0.3,0.1,0.5,0.2,0.5c0.1,0,0.2,0.1,0.3,0.4c0.1,0.3,0.3,0.5,0.6,0.5c0.1,0,0.3-0.1,0.4-0.2c0.1-0.1,0.2-0.3,0.2-0.4
			c0-0.3,0-0.4,0.1-0.4c0.1,0,0.2-0.1,0.2-0.4c0-0.3,0-0.5,0.1-0.5c0.1,0,0.2-0.2,0.2-0.5c0-0.3,0.1-0.6,0.3-0.9
			c0.2-0.3,0.4-0.5,0.6-0.6c0.2-0.1,0.3-0.3,0.3-0.6c0-0.4,0.1-0.6,0.2-0.6c0.1,0,0.2-0.2,0.2-0.5c0-0.3,0.1-0.6,0.2-0.8
			c0.1-0.2,0.2-0.4,0.1-0.5c-0.1-0.2,0.1-0.3,0.4-0.4c0.3-0.1,0.4-0.2,0.5-0.3c0.1,0,0.1,0.1,0.1,0.4c0,0.4,0.1,0.6,0.2,0.8
			c0.4,0.5,0.6,1.1,0.6,1.9c0,0.4,0,0.6,0.1,0.6c0.1,0,0.1,0.1,0.1,0.4c-0.1,0.2,0,0.4,0.1,0.5c0.1,0.1,0.2,0.3,0.2,0.8
			c0,0.4,0.1,0.6,0.2,0.6c0.2,0,0.2,0.2,0.2,0.5c0,0.3,0.1,0.5,0.2,0.5c0.1,0,0.2,0.1,0.3,0.4c0.1,0.3,0.3,0.5,0.6,0.5
			c0.1,0,0.3-0.1,0.4-0.2c0.1-0.1,0.2-0.3,0.2-0.4c0-0.3,0.1-0.4,0.2-0.4c0.1,0,0.1-0.1,0.1-0.4c0-0.3,0-0.5,0.1-0.5
			c0.1,0,0.2-0.2,0.2-0.5c0-0.3,0.1-0.6,0.3-1c0.2-0.4,0.4-0.6,0.5-0.6c0.1,0,0.2-0.2,0.2-0.6c0-0.5,0.1-0.7,0.2-0.7
			c0.1,0,0.2-0.2,0.2-0.5s0.1-0.6,0.2-0.8c0.1-0.2,0.2-0.4,0.2-0.6c0-0.1,0.1-0.2,0.4-0.3c0.3-0.1,0.4-0.2,0.4-0.3
			c0-0.1,0-0.1,0-0.2c0-0.1,0-0.1,0-0.2c0-0.6,0.1-0.9,0.3-0.9c0.1,0,0.1-0.1,0.2-0.4c0-0.3,0.1-0.4,0.2-0.4c0.1,0,0.2-0.1,0.2-0.2
			c0-0.1,0.1-0.2,0.4-0.2c0.3,0,0.5-0.1,0.6-0.2c0.1-0.1,0.2-0.3,0.2-0.6l0-0.4L193.2,782.4z"/>
		<path d="M214.1,785.7c-0.2-0.1-0.2-0.2-0.2-0.5c0-0.3,0-0.5-0.1-0.5c-0.1,0-0.1-0.1-0.1-0.4s-0.1-0.4-0.2-0.4
			c-0.1,0-0.2-0.1-0.3-0.3s-0.2-0.3-0.3-0.4c-0.1-0.1-0.2-0.2-0.2-0.4c0-0.2-0.1-0.3-0.4-0.3c-0.7,0-1-0.1-1-0.4
			c0-0.1-0.1-0.2-0.2-0.2c-0.1,0-0.2,0-0.2-0.1c0-0.1-0.1-0.1-0.3-0.1c-0.2,0-0.3-0.1-0.4-0.2c0-0.1-0.5-0.2-1.5-0.2
			c-0.9,0-1.5,0.1-1.6,0.2c-0.1,0.1-0.2,0.2-0.4,0.2c-0.2,0-0.3,0.1-0.4,0.3c-0.1,0.2-0.3,0.4-0.6,0.4c-0.3,0-0.6,0.1-1.1,0.2
			c-0.5,0.1-0.7,0.3-0.8,0.5c0,0.2-0.2,0.4-0.5,0.7c-0.3,0.3-0.4,0.5-0.4,0.5c0,0.1-0.1,0.1-0.2,0.1c-0.1,0-0.2,0.1-0.3,0.4
			c-0.1,0.2-0.2,0.5-0.3,0.7c-0.2,0.3-0.2,0.8-0.2,1.8c0,1.2,0.1,2.1,0.4,2.9c0.5,1.4,0.9,2.2,1.2,2.3c0.2,0,0.3,0.1,0.3,0.3
			c0,0.2,0.2,0.2,0.4,0.2c0.2,0,0.4,0,0.4,0.1c0,0.1,0.1,0.1,0.3,0.1s0.3,0.1,0.3,0.4c0,0.2,0,0.3,0.1,0.4c0.1,0.1,0.2,0,0.4-0.1
			c0.1-0.1,0.2-0.1,0.3,0c0.2,0.1,0.9,0.2,2.2,0.2c1.1,0,1.7-0.1,1.7-0.2c0-0.1,0.3-0.2,0.7-0.2c0.4,0,0.6-0.1,0.6-0.2
			c0-0.2,0.1-0.3,0.2-0.3c0,0,0.2-0.1,0.4-0.3c0.3-0.2,0.4-0.3,0.5-0.3c0.1,0,0.2-0.1,0.2-0.3c0.1-0.2,0.2-0.3,0.3-0.3
			c0.1,0,0.2-0.1,0.3-0.3c0-0.2,0.2-0.3,0.4-0.3c0.2-0.1,0.3-0.1,0.3-0.2c0-0.1,0.1-0.1,0.2-0.1c0.1,0,0.2-0.2,0.2-0.6
			c0-0.3,0-0.5-0.1-0.5c-0.1,0-0.1-0.1,0-0.2c0.1-0.1,0.2-0.8,0.2-2.1c0-0.3,0-0.7,0-1.1C214.4,786,214.3,785.7,214.1,785.7z
			 M212,788.8c-0.1,0-0.2,0.2-0.2,0.4c0,0.3-0.1,0.4-0.2,0.5c-0.1,0.1-0.2,0.4-0.3,0.8c-0.1,0.4-0.1,0.6-0.3,0.6
			c-0.1,0-0.2,0-0.2,0.1c0,0.1-0.1,0.2-0.4,0.2c-0.3,0.1-0.4,0.2-0.4,0.3c0,0.1,0,0.2-0.1,0.2c-0.1,0.1-0.2,0.1-0.4,0.2
			c-0.1,0.1-0.2,0.1-0.3,0.1c0,0.1-0.2,0.1-0.4,0.1c-0.2,0-0.3,0.1-0.5,0.2c-0.1,0.1-0.2,0.1-0.4,0.1c-0.2,0-0.4,0-0.7-0.1
			c-0.5-0.1-1-0.3-1.3-0.6c-0.3-0.3-0.7-0.8-1-1.5c-0.3-0.5-0.4-0.9-0.5-1.1c0-0.2-0.1-0.7-0.1-1.4c0-0.7,0-1.1,0.1-1.4
			c0-0.2,0.1-0.5,0.3-0.8c0.3-0.5,0.6-0.9,1-1.3c0.4-0.4,0.8-0.6,1-0.7c0.3,0,0.5-0.1,0.5-0.3c0-0.1,0.1-0.2,0.2-0.2
			c0.1,0,0.2,0,0.2-0.1c0-0.1,0.1-0.1,0.3-0.1c0.2,0,0.3,0,0.3,0.1c0,0.1,0.3,0.1,0.9,0.1c0.5,0,0.8,0.1,0.8,0.2
			c0,0.1,0.1,0.2,0.3,0.3c0.2,0.1,0.3,0.2,0.3,0.3c0,0.1,0.1,0.2,0.3,0.3c0.3,0.1,0.5,0.4,0.5,0.8c0,0.2,0.1,0.5,0.3,0.8
			c0.2,0.3,0.3,0.7,0.3,1.1c0,0.5,0,0.7,0.1,0.8c0.1,0.1,0.1,0.2,0.1,0.4C212.1,788.6,212.1,788.7,212,788.8z"/>
		<path d="M245.6,785.7c-0.2-0.1-0.2-0.2-0.2-0.5c0-0.3,0-0.5-0.1-0.5c-0.1,0-0.1-0.1-0.1-0.4s-0.1-0.4-0.2-0.4
			c-0.1,0-0.2-0.1-0.3-0.3s-0.2-0.3-0.3-0.4c-0.1-0.1-0.2-0.2-0.2-0.4c0-0.2-0.1-0.3-0.4-0.3c-0.7,0-1-0.1-1-0.4
			c0-0.1-0.1-0.2-0.2-0.2c-0.1,0-0.2,0-0.2-0.1c0-0.1-0.1-0.1-0.3-0.1c-0.2,0-0.3-0.1-0.4-0.2c0-0.1-0.5-0.2-1.5-0.2
			c-0.9,0-1.5,0.1-1.6,0.2c-0.1,0.1-0.2,0.2-0.4,0.2c-0.2,0-0.3,0.1-0.4,0.3c-0.1,0.2-0.3,0.4-0.6,0.4c-0.3,0-0.6,0.1-1.1,0.2
			c-0.5,0.1-0.7,0.3-0.8,0.5c0,0.2-0.2,0.4-0.5,0.7c-0.3,0.3-0.4,0.5-0.4,0.5c0,0.1-0.1,0.1-0.2,0.1c-0.1,0-0.2,0.1-0.3,0.4
			c-0.1,0.2-0.2,0.5-0.3,0.7c-0.2,0.3-0.2,0.8-0.2,1.8c0,1.2,0.1,2.1,0.4,2.9c0.5,1.4,0.9,2.2,1.2,2.3c0.2,0,0.3,0.1,0.3,0.3
			c0,0.2,0.2,0.2,0.4,0.2c0.2,0,0.4,0,0.4,0.1c0,0.1,0.1,0.1,0.3,0.1s0.3,0.1,0.3,0.4c0,0.2,0,0.3,0.1,0.4c0.1,0.1,0.2,0,0.4-0.1
			c0.1-0.1,0.2-0.1,0.3,0c0.2,0.1,0.9,0.2,2.2,0.2c1.1,0,1.7-0.1,1.7-0.2c0-0.1,0.3-0.2,0.7-0.2c0.4,0,0.6-0.1,0.6-0.2
			c0-0.2,0.1-0.3,0.2-0.3c0,0,0.2-0.1,0.4-0.3c0.3-0.2,0.4-0.3,0.5-0.3c0.1,0,0.2-0.1,0.2-0.3c0.1-0.2,0.2-0.3,0.3-0.3
			c0.1,0,0.2-0.1,0.3-0.3c0-0.2,0.2-0.3,0.4-0.3c0.2-0.1,0.3-0.1,0.3-0.2c0-0.1,0.1-0.1,0.2-0.1c0.1,0,0.2-0.2,0.2-0.6
			c0-0.3,0-0.5-0.1-0.5c-0.1,0-0.1-0.1,0-0.2c0.1-0.1,0.2-0.8,0.2-2.1c0-0.3,0-0.7,0-1.1C245.9,786,245.8,785.7,245.6,785.7z
			 M243.5,788.8c-0.1,0-0.2,0.2-0.2,0.4c0,0.3-0.1,0.4-0.2,0.5c-0.1,0.1-0.2,0.4-0.3,0.8c-0.1,0.4-0.1,0.6-0.3,0.6
			c-0.1,0-0.2,0-0.2,0.1c0,0.1-0.1,0.2-0.4,0.2c-0.3,0.1-0.4,0.2-0.4,0.3c0,0.1,0,0.2-0.1,0.2c-0.1,0.1-0.2,0.1-0.4,0.2
			c-0.1,0.1-0.2,0.1-0.3,0.1c0,0.1-0.2,0.1-0.4,0.1c-0.2,0-0.3,0.1-0.5,0.2c-0.1,0.1-0.2,0.1-0.4,0.1c-0.2,0-0.4,0-0.7-0.1
			c-0.5-0.1-1-0.3-1.3-0.6c-0.3-0.3-0.7-0.8-1-1.5c-0.3-0.5-0.4-0.9-0.5-1.1c0-0.2-0.1-0.7-0.1-1.4c0-0.7,0-1.1,0.1-1.4
			c0-0.2,0.1-0.5,0.3-0.8c0.3-0.5,0.6-0.9,1-1.3c0.4-0.4,0.8-0.6,1-0.7c0.3,0,0.5-0.1,0.5-0.3c0-0.1,0.1-0.2,0.2-0.2
			c0.1,0,0.2,0,0.2-0.1c0-0.1,0.1-0.1,0.3-0.1c0.2,0,0.3,0,0.3,0.1c0,0.1,0.3,0.1,0.9,0.1c0.5,0,0.8,0.1,0.8,0.2
			c0,0.1,0.1,0.2,0.3,0.3c0.2,0.1,0.3,0.2,0.3,0.3c0,0.1,0.1,0.2,0.3,0.3c0.3,0.1,0.5,0.4,0.5,0.8c0,0.2,0.1,0.5,0.3,0.8
			c0.2,0.3,0.3,0.7,0.3,1.1c0,0.5,0,0.7,0.1,0.8c0.1,0.1,0.1,0.2,0.1,0.4C243.6,788.6,243.6,788.7,243.5,788.8z"/>
		<path d="M263.4,783.9c0-0.3-0.1-0.5-0.2-0.6c-0.1-0.1-0.1-0.2,0-0.4c0.1-0.1,0.1-0.2,0.1-0.2c0-0.1-0.1-0.2-0.2-0.2
			c-0.1-0.1-0.2-0.2-0.2-0.3c0-0.2-0.1-0.3-0.3-0.5c-0.2-0.2-0.4-0.3-0.5-0.3c-0.1,0-0.2,0-0.2,0.1c0,0.1-0.3,0.1-0.9,0.2
			c-0.5,0.1-1.1,0.1-1.7,0.1c-0.6,0-0.9,0-1,0.1c-0.1,0-0.5,0.1-1.4,0.1c-0.9,0.1-1.8,0.2-2.7,0.3c-0.9,0.1-1.4,0.2-1.4,0.2
			c0,0,0,0.1,0,0.2c0,0.1,0,0.2,0.1,0.3c0.1,0.2,0.1,0.3,0.2,0.4c0.1,0,0.3,0.1,0.6,0.1c0.5,0,0.9,0.1,1,0.3
			c0.1,0.2,0.2,0.7,0.2,1.6c0,0.9-0.1,1.4-0.2,1.5c-0.1,0.1-0.1,0.2,0,0.4c0.1,0.3,0.2,0.5,0,0.7c-0.1,0.2-0.2,0.3-0.3,0.3
			c-0.1,0,0,0.1,0.1,0.2c0.1,0.1,0.1,0.3,0.1,0.6c0,0.1,0,0.4-0.1,0.8c-0.1,1.4-0.2,2.3-0.2,2.6c-0.1,0.4-0.1,0.5-0.3,0.6
			c-0.2,0.1-0.5,0.3-0.8,0.6l-0.5,0.6h5v-0.5c0-0.2,0-0.4-0.1-0.4c0-0.1-0.1-0.1-0.3-0.1c-0.2,0-0.4,0-0.4-0.1s-0.1-0.1-0.2-0.1
			c-0.1,0-0.2-0.1-0.3-0.3c0-0.1,0-0.4,0-1.2c0-1.2,0-2.1,0.1-2.8c0-0.1,0.5-0.1,1.4-0.1c0.8,0,1.3,0.1,1.5,0.2
			c0.3,0.1,0.4,0.4,0.4,0.9c0,0.3,0,0.5,0.1,0.5c0.1,0,0.1-0.1,0.3-0.2c0.1-0.1,0.3-0.2,0.5-0.1c0.2,0.1,0.3,0,0.3-0.2
			c0-0.2,0-0.3,0.1-0.4c0.1-0.1,0.1-0.2,0-0.2c-0.1-0.1-0.2-0.3-0.2-0.6c0-0.4,0.1-0.7,0.2-0.8c0.1-0.1,0.1-0.1,0.1-0.2
			c0-0.1,0-0.1-0.1-0.2c-0.1-0.1-0.1-0.2-0.1-0.2c0-0.1,0-0.1,0.1-0.2c0.2-0.1,0.2-0.2,0.2-0.4c0-0.3-0.4-0.4-1.1-0.4
			c-0.4,0-0.6,0.2-0.6,0.5c0,0.1,0,0.2,0.1,0.3c0.1,0.2,0,0.4,0,0.5c-0.1,0.1-0.4,0.2-1,0.3c-0.6,0.1-1.1,0.2-1.6,0.2h-0.5v-0.6
			c0-0.4,0.1-0.6,0.2-0.7c0.1-0.1,0.2-0.2,0.2-0.4c0-0.3-0.1-0.5-0.2-0.8c-0.1-0.2-0.2-0.4-0.2-0.4c0-0.1,0.1-0.1,0.2-0.3
			c0.2-0.2,0.3-0.4,0.2-0.6c0-0.1,0-0.1,0-0.2c0-0.1,0.1-0.2,0.4-0.3c0.3-0.1,0.8-0.1,1.6-0.1c0.7,0,1.1-0.1,1.1-0.1
			c0.3,0,0.5,0.1,0.7,0.2c0.2,0.2,0.3,0.3,0.5,0.4c0.2,0.1,0.3,0.2,0.3,0.3c0,0.1,0.1,0.3,0.3,0.4c0.2,0.1,0.4,0.3,0.5,0.6
			c0.1,0.4,0.4,0.5,0.8,0.5c0.1,0,0.2,0,0.3-0.1c0.1-0.1,0.2-0.2,0.2-0.6c0-0.3-0.1-0.5-0.2-0.5
			C263.5,784.4,263.4,784.2,263.4,783.9z"/>
		<path d="M293.2,782.2h-1c-0.5,0-0.9,0-1.1-0.1c-0.2-0.1-0.3-0.3-0.3-0.5c0-0.1,0-0.2-0.1-0.2c-0.1,0-0.2,0-0.2,0.1
			c-0.1,0.1-0.3,0.2-0.7,0.2c-0.2,0-0.2,0-0.2-0.1c0-0.1-0.2-0.1-0.7-0.1c-0.5,0-0.8,0.1-0.8,0.2c-0.1,0.1-0.2,0.2-0.4,0.2
			c-0.2,0-0.3,0-0.4,0c-0.1,0-0.1,0-0.2,0c-0.1,0-0.2,0-0.2,0c-0.3,0-0.5,0.1-0.8,0.4c-0.3,0.3-0.5,0.5-0.7,0.5
			c-0.2,0.1-0.4,0.2-0.5,0.5c-0.1,0.3-0.3,0.4-0.6,0.4c-0.5,0.1-0.7,0.4-0.8,1c0,0.2-0.1,0.4-0.2,0.6c-0.1,0.2-0.2,0.5-0.2,0.6
			c0,0.3-0.1,0.4-0.2,0.5c-0.1,0.1-0.1,0.2-0.1,0.4c0,0.2-0.1,0.4-0.2,0.5c-0.1,0.1-0.2,0.6-0.2,1.5c0,1,0.1,1.6,0.2,1.6
			c0.1,0,0.1,0.1,0.1,0.3c0,0.1,0,0.2-0.1,0.2c-0.1,0,0,0.1,0.2,0.4c0.2,0.2,0.4,0.4,0.5,0.4c0.1,0,0.1,0.1,0.2,0.4
			c0.1,0.2,0.3,0.4,0.6,0.8c0.4,0.3,0.6,0.5,0.9,0.6c0.2,0.1,0.2,0.1,0.2,0.2c0,0.1,0.3,0.2,1,0.3c0.6,0.1,1.4,0.1,2.1,0.1
			c1.1,0,1.8-0.1,2-0.3c0.2-0.2,0.5-0.3,0.8-0.4c0.4-0.1,0.7-0.2,0.8-0.5c0.2-0.3,0.4-0.6,0.7-0.9c0.3-0.3,0.5-0.5,0.5-0.6
			c0-0.1-0.1-0.2-0.3-0.3c-0.4-0.2-0.6-0.3-0.8-0.3c-0.1,0-0.2,0.1-0.3,0.3c-0.1,0.3-0.2,0.4-0.4,0.4c-0.2,0-0.4,0.1-0.7,0.4
			c-0.2,0.3-0.4,0.3-0.5,0.2c-0.1-0.1-0.2-0.1-0.4,0.1c-0.1,0.1-0.4,0.2-0.7,0.2c-0.1,0-0.4,0-0.9-0.1c-0.7,0-1.1-0.1-1.3-0.2
			c-0.2-0.1-0.3-0.3-0.3-0.6c0-0.2-0.2-0.5-0.6-0.9c-0.3-0.3-0.5-0.5-0.6-0.7c-0.1-0.2-0.2-0.5-0.3-1c-0.1-0.7-0.2-1.1-0.3-1.1
			c-0.1,0-0.1-0.1-0.1-0.2c0-0.1,0-0.2,0.1-0.3c0.2,0,0.3-0.7,0.3-1.9c0-0.2,0.1-0.3,0.3-0.3c0.2,0,0.3-0.1,0.2-0.3
			c-0.1-0.3,0.1-0.4,0.4-0.6c0.3-0.1,0.5-0.3,0.5-0.4c0-0.1,0.1-0.3,0.3-0.4c0.2-0.1,0.5-0.2,0.7-0.2c0.2,0,0.3-0.1,0.3-0.2
			c0-0.1,0.2-0.2,0.7-0.3c0.1,0,0.1,0,0.2,0c0.1,0,0.1,0,0.2,0c0.6,0,1,0.2,1.2,0.5c0.1,0.2,0.3,0.3,0.6,0.4c0.2,0,0.3,0.1,0.3,0.1
			c0,0.1,0.1,0.1,0,0.3c-0.1,0.2,0,0.3,0.1,0.4c0.1,0.1,0.3,0.4,0.4,1c0.1,0.4,0.1,0.7,0.2,0.8c0.1,0.1,0.2,0.2,0.4,0.3
			c0.3,0.1,0.4,0.2,0.4,0.4c0,0.1,0,0.1,0,0.1c0,0,0.1,0,0.1,0c0.1-0.1,0.2-0.6,0.2-1.6c0-1,0.1-1.6,0.2-1.6c0.1-0.1,0.1-0.3,0-0.8
			L293.2,782.2z"/>
		<path d="M311.5,783h-0.2c-0.4,0-0.8-0.1-1-0.3c-0.2-0.1-0.3-0.2-0.4-0.2c0,0-0.1,0.1-0.1,0.2c0,0.1,0,0.2-0.1,0.2
			c-0.1,0-0.4,0-0.8,0.1c-0.6,0-1,0-1,0.1c-0.1,0.1-0.1,0.3-0.1,0.7l0,0.6l0.8,0.1l0.8,0v2.3c0,1.5,0,2.3,0.1,2.4
			c0.1,0,0.1,0.1-0.1,0.3c-0.1,0.2-0.2,0.4-0.2,0.5v0.2c0,0.3,0,0.6-0.1,0.9c-0.1,0.3-0.2,0.5-0.3,0.5c-0.1,0.1-0.2,0.1-0.2,0.3
			c0,0.1-0.1,0.3-0.3,0.4c-0.2,0.2-0.4,0.2-0.6,0.2c-0.3,0-0.4,0.1-0.5,0.2c-0.1,0.1-0.2,0.2-0.4,0.2c-0.1,0-0.2,0-0.5-0.1
			c-0.5-0.1-0.7-0.1-0.8-0.2c0-0.1-0.2-0.1-0.4-0.1c-0.2,0-0.4-0.1-0.8-0.2c-0.2-0.1-0.3-0.2-0.4-0.3s-0.1-0.2-0.1-0.5V791v-0.3
			c0-0.4,0-0.6-0.1-0.6c-0.1,0-0.2-0.1-0.1-0.3c0-0.2,0.1-0.3,0.2-0.3c0.1-0.1,0.1-0.1,0-0.2c-0.1,0-0.1-0.1-0.1-0.2
			c0-0.1,0-0.2,0-0.3c0-0.1,0.1-0.1,0.1-0.1c0.1,0,0.1-0.3,0.1-0.9c0-0.9-0.1-1.4-0.2-1.5c-0.1-0.1-0.1-0.2,0-0.3
			c0.1-0.1,0.2-0.4,0.2-0.8c0-0.1,0-0.2,0-0.3c0-0.1-0.1-0.2-0.1-0.3c0-0.1,0-0.1,0-0.1c0-0.1,0.5-0.1,1.4-0.1c0.1,0,0.1,0,0.2,0
			c0.1,0,0.1,0,0.2,0h0c0,0,0.1-0.1,0.1-0.2c0-0.1,0-0.3-0.1-0.6c0-0.2-0.1-0.4-0.3-0.5c-0.2-0.1-0.5-0.1-1-0.1
			c-0.1,0-0.6,0-1.5,0.1c-1.4,0.1-2.1,0.2-2.3,0.4c-0.2,0.2-0.2,0.4-0.2,0.5c0,0.4,0.3,0.6,1,0.7c0.5,0.1,0.7,0.2,0.7,0.4
			c0,0.1-0.1,0.2-0.2,0.3c-0.2,0.1-0.2,0.4-0.1,0.7c0.1,0.3,0.1,0.6,0,0.6c-0.1,0.1-0.2,0.1-0.3,0.1c-0.1,0-0.1,0-0.1,0.1
			c0,0.2,0.1,0.4,0.4,0.5c0.2,0.1,0.4,0.2,0.4,0.4c0,0.1-0.1,0.2-0.2,0.3c-0.1,0.1-0.2,0.4-0.2,0.9v0.4c0,0.8,0.1,1.3,0.2,1.3
			c0.1,0.1,0.1,0.2,0.1,0.5c0,0.2,0,0.3-0.1,0.3c-0.1,0-0.1,0.1-0.2,0.4c-0.1,0.3,0,0.4,0.2,0.5c0.1,0.1,0.3,0.3,0.4,0.6
			c0.1,0.3,0.2,0.5,0.3,0.5s0.1,0.1,0.2,0.4c0.1,0.3,0.2,0.4,0.4,0.4c0.2,0,0.4,0,0.5,0.1c0.1,0.1,1,0.2,2.5,0.2
			c1.3,0,1.9-0.1,1.9-0.2s0.1-0.2,0.2-0.2c0.1,0,0.2-0.1,0.3-0.2c0.1-0.1,0.2-0.2,0.4-0.2c0.2,0,0.3-0.1,0.3-0.3
			c0-0.1,0.1-0.2,0.1-0.3c0.1,0,0.2,0,0.5,0h0.1c0.3,0,0.5,0,0.5-0.1c0-0.1-0.1-0.1-0.2-0.2c-0.1-0.1-0.2-0.2-0.2-0.3
			c0-0.2,0.1-0.4,0.2-0.6c0.2-0.2,0.2-0.4,0.1-0.4c-0.1,0-0.2-0.1-0.2-0.2c0-0.1,0-0.2,0.1-0.2c0.1,0,0.2-0.2,0.2-0.4
			c0-0.2,0.1-0.6,0.1-0.9c0-0.4,0-0.6,0-0.6c0-0.1,0-0.5,0.1-1.1c0-0.6,0-1.2,0.1-1.7c0-0.5,0.1-0.8,0.2-0.9c0.1-0.1,0.2-0.2,0-0.2
			c-0.1-0.1-0.2-0.1-0.2-0.2c0-0.1,0.1-0.3,0.3-0.4c0.2-0.1,0.4-0.2,0.6-0.2c0.1,0,0.2,0,0.2,0c0,0,0.1,0,0.2,0
			c0.3,0,0.4-0.1,0.4-0.3c0-0.1,0-0.1-0.1-0.2c-0.1-0.1-0.1-0.2,0-0.2c0.1,0,0.1-0.1,0.1-0.2C312.6,783.1,312.3,783,311.5,783z"/>
		<path d="M321.6,779.6c0-0.1-0.1-0.1-0.3-0.1c-0.2,0-0.3,0-0.3,0.1c0,0.1,0.1,0.2,0.3,0.2C321.5,779.8,321.6,779.7,321.6,779.6z"/>
		<path d="M326,780.6C326.1,780.6,326.1,780.5,326,780.6c0.1-0.1,0-0.1-0.2-0.1c-0.2,0-0.3,0.1-0.3,0.2
			C325.7,780.7,325.8,780.7,326,780.6C326,780.6,326,780.6,326,780.6z"/>
		<path d="M329.3,782.4c-0.1,0-0.2,0-0.2-0.1s-0.1-0.2-0.4-0.3c-0.3-0.1-0.4-0.3-0.5-0.5l-0.2-0.3c-0.1-0.1-0.2-0.1-0.2,0.1
			c0,0.1-0.3,0.1-0.8,0.1c-0.6,0-0.9,0-0.9-0.1c0-0.1-0.1-0.1-0.3-0.1c-0.5,0-0.8-0.1-0.8-0.4c0-0.1-0.1-0.2-0.3-0.2
			c-0.2,0-0.3,0.1-0.2,0.3c0,0,0,0,0,0.1c0,0,0,0,0,0.1c0,0.1-0.6,0.2-1.8,0.2h-1.8l-0.5,0.5c-0.3,0.3-0.5,0.5-0.5,0.7
			c0,0.2,0.2,0.4,0.7,0.4c0.2,0,0.3,0,0.3,0.1s0,0.1,0.1,0.1c0.2,0,0.4,0.2,0.6,0.5c0.2,0.3,0.3,0.7,0.3,1.2c0,0.4,0.1,0.6,0.1,0.6
			c0,0.2-0.1,0.4-0.2,0.5c-0.2,0.1-0.2,0.2-0.1,0.3c0.1,0.1,0.2,0.3,0.2,0.7c0,0.3-0.1,0.5-0.2,0.5c-0.2,0-0.2,0,0,0.1
			c0.1,0.1,0.1,0.3,0,0.6c-0.1,0.3-0.1,0.5,0.1,0.6c0.1,0.1,0.1,0.2,0.1,0.3c0,0.2-0.1,0.4-0.2,0.5c-0.1,0.1-0.1,0.6-0.2,1.6l0,1.5
			l-0.4,0.2c-0.2,0.1-0.5,0.2-1.1,0.2c-0.3,0-0.5,0.1-0.5,0.1c-0.1,0.1-0.1,0.2-0.1,0.4c0,0.2,0.2,0.5,0.6,0.8
			c0.2,0.1,0.3,0.2,0.5,0.2c0.2,0,0.3-0.1,0.3-0.2c0.1-0.1,0.8-0.2,2.1-0.2c1.4-0.1,2.1-0.1,2.2-0.3c0.1-0.1,0.2-0.2,0.3-0.2
			c0.1,0,0.2-0.1,0.2-0.2c0-0.1-0.1-0.2-0.4-0.2c-0.3,0-0.4-0.1-0.5-0.3c0-0.2-0.2-0.3-0.5-0.4c-0.4-0.1-0.5-0.2-0.5-0.4
			c0-0.1,0-0.2,0.1-0.3c0.2-0.2,0.2-0.3,0.1-0.4c-0.1,0-0.2-0.6-0.2-1.6c0-0.3,0-0.6,0-1c0-0.3,0-0.4,0.1-0.5c0-0.1,0.1-0.1,0.2-0.1
			c0.2,0,0.5,0,0.8,0.1c0.3,0.1,0.5,0.2,0.6,0.3c0.1,0.1,0.7,0.2,1.7,0.2c0.8,0,1.2,0,1.2-0.1c0.1-0.1,0-0.2-0.2-0.3
			c-0.2-0.1-0.4-0.2-0.5-0.4c-0.1-0.1-0.2-0.2-0.2-0.2c0,0,0.1-0.1,0.3-0.1c0.3-0.1,0.4-0.1,0.4-0.2s0.1-0.2,0.4-0.3
			c0.3-0.1,0.4-0.2,0.4-0.4c0-0.5,0.1-0.7,0.3-0.7c0.1,0,0.2-0.1,0.4-0.2c0.2-0.2,0.2-0.7,0.2-1.5c0-1-0.1-1.5-0.3-1.7
			C329.5,782.5,329.4,782.4,329.3,782.4z M327.7,786.1c0,0-0.1,0.1-0.4,0.1h-0.1c0,0-0.1,0-0.1,0c-0.1,0-0.1,0,0,0.1
			c0.1,0.1,0.2,0.1,0.2,0.2c0,0.1-0.1,0.3-0.3,0.5c-0.2,0.2-0.5,0.3-0.7,0.3c-0.3,0-0.6,0.1-1.1,0.2c-0.1,0-0.2,0-0.3,0
			c-0.2,0-0.4-0.1-0.7-0.3c-0.2-0.2-0.3-0.3-0.4-0.3c0-0.1,0-0.1,0.1-0.2c0.1-0.1,0.2-0.7,0.2-1.6v-1.2c0-0.3,0.1-0.5,0.2-0.7
			c0.1-0.2,0.3-0.4,0.4-0.4h0.1l0.4,0.1c0.3,0,0.5,0.1,0.8,0.1c0.2,0.1,0.4,0.1,0.4,0.1c0,0.1,0.1,0.1,0.4,0.2
			c0.3,0.1,0.4,0.2,0.4,0.3c0,0.1,0.1,0.3,0.2,0.4c0.1,0.1,0.2,0.2,0.1,0.3c-0.1,0.1-0.1,0.3,0.1,0.6c0.1,0.2,0.2,0.4,0.2,0.6
			C327.8,785.3,327.8,785.6,327.7,786.1z"/>
		<path d="M345.4,789.5c0-0.6-0.1-0.9-0.2-1.1c-0.1-0.2-0.3-0.4-0.6-0.5c-0.3-0.1-0.5-0.3-0.5-0.4c-0.1-0.1-0.3-0.3-0.9-0.6
			c-0.5-0.3-1-0.5-1.3-0.6c-0.2-0.1-0.5-0.2-0.9-0.5c-0.4-0.3-0.6-0.4-0.6-0.5c0-0.1-0.1-0.2-0.2-0.3c-0.2-0.1-0.2-0.2-0.2-0.3
			c0,0,0-0.1,0-0.1c0.1-0.1,0.1-0.2,0.1-0.3c0-0.1,0-0.3-0.1-0.6c0-0.1,0-0.2,0-0.2c0,0,0.2-0.1,0.3-0.1c0.3,0,0.4-0.1,0.4-0.2
			c0-0.1,0.1-0.2,0.4-0.4c0.3-0.2,0.4-0.3,0.4-0.3c0-0.1,0.1-0.1,0.4-0.2c0.1,0,0.1,0,0.2,0c0.4,0,0.8,0.2,1.2,0.5
			c0.5,0.3,0.7,0.6,0.7,0.9c0,0.2,0.1,0.4,0.3,0.5c0.2,0.1,0.3,0.3,0.3,0.4c0,0.1,0.1,0.3,0.2,0.5s0.3,0.3,0.4,0.3c0,0,0,0,0.1,0
			c0.1-0.1,0.1-0.7,0.2-2v-0.8c0-0.6-0.1-0.9-0.2-0.9c-0.1,0-0.1,0-0.1,0c-0.3,0.1-0.6,0.2-0.8,0.2c-0.3,0-0.6-0.1-1-0.3
			c-0.4-0.2-0.6-0.3-0.7-0.3c0,0-0.1,0-0.2,0.1c-0.3,0.1-0.6,0.1-0.8,0.1c-0.3,0-0.4,0-0.5,0.1c0,0.1-0.1,0.2-0.3,0.2
			c-0.2,0-0.4-0.1-0.5-0.2c-0.1-0.1-0.3-0.2-0.5-0.2h0c-0.1,0-0.1,0-0.1,0c-0.1,0-0.1,0-0.1,0c0,0,0.1,0,0.1,0
			c0.1,0.1,0.2,0.1,0.2,0.2c0,0.2-0.2,0.3-0.5,0.4c-0.3,0.1-0.4,0.2-0.4,0.4c0.1,0.2,0,0.3-0.2,0.4c-0.3,0.1-0.6,0.5-1.1,1.1
			c-0.1,0.2-0.2,0.4-0.2,0.6c0,0,0,0.3,0.1,0.8c0.1,0.7,0.3,1.1,0.4,1.3c0.1,0.2,0.4,0.4,0.7,0.7c0.4,0.3,0.6,0.4,0.8,0.4
			c0.1,0,0.3,0.1,0.6,0.4c0.4,0.3,0.9,0.6,1.7,0.8c0.5,0.1,0.8,0.3,1.1,0.6c0.2,0.2,0.3,0.4,0.5,0.7c0.1,0.3,0.2,0.5,0.2,0.7
			c0,0.1,0,0.1-0.1,0.2c-0.1,0-0.1,0.2-0.1,0.4c0.1,0.2,0,0.4-0.2,0.6c-0.1,0.1-0.2,0.3-0.2,0.4c0,0.2-0.5,0.4-1.4,0.5
			c-0.1,0-0.3,0-0.6,0c-0.9,0-1.7-0.4-2.2-1.2c-0.3-0.4-0.5-0.8-0.5-1c0,0,0-0.1,0-0.2c0-0.1,0-0.2,0-0.2c0,0-0.1-0.1-0.1-0.1
			c-0.1,0-0.1,0-0.1-0.1c0.1-0.3-0.1-0.5-0.4-0.6c-0.1,0-0.2-0.1-0.3-0.1c-0.3,0-0.4,0.2-0.5,0.5c-0.1,1.2-0.1,1.9-0.2,1.9
			c-0.1,0.1-0.1,0.4-0.2,0.8c0,0.1,0,0.3,0,0.4c0,0.2,0.1,0.4,0.3,0.6c0.1,0.1,0.2,0.2,0.3,0.2c0,0,0.1,0,0.2-0.2
			c0.1-0.2,0.2-0.3,0.2-0.4c0-0.3,0.2-0.3,0.5-0.1c0.9,0.5,1.8,0.7,2.9,0.7c0.5,0,1.1-0.1,1.6-0.2c0.6-0.1,1.1-0.3,1.4-0.6
			c0.3-0.3,0.5-0.5,0.5-0.5c0-0.1,0.1-0.2,0.2-0.3c0.2-0.1,0.3-0.4,0.3-0.9c0.1-0.5,0.1-0.7,0.2-0.7c0.1,0,0.1,0,0-0.1
			S345.4,790.2,345.4,789.5z M341,788C340.9,788,340.9,787.9,341,788c-0.1-0.1-0.1-0.1,0-0.1S341.1,787.9,341,788
			C341.1,787.9,341,788,341,788z"/>
		<path d="M339.5,788.7c0-0.1,0-0.2-0.1-0.2c-0.1,0-0.1,0-0.1,0.1l0.1,0.2C339.4,789,339.5,788.9,339.5,788.7z"/>
		<polygon points="51.7,808.8 44,814 41.2,799.9 38.4,814 30.7,808.8 35.9,816.5 21.8,819.3 35.9,822 30.7,829.8 38.4,824.6 
			41.2,838.6 43.9,824.6 51.7,829.8 46.5,822 60.5,819.3 46.5,816.5 		"/>
		<polygon points="468.1,816.5 473.3,808.8 465.5,814 462.8,799.9 460,814 452.3,808.8 457.5,816.5 443.4,819.3 457.5,822 
			452.3,829.8 460,824.6 462.8,838.6 465.5,824.6 473.3,829.8 468.1,822 482.1,819.3 		"/>
		<polygon points="30.7,57.5 38.4,52.3 41.2,66.4 44,52.3 51.7,57.5 46.5,49.8 60.5,47 46.5,44.3 51.7,36.5 43.9,41.7 41.2,27.7 
			38.4,41.7 30.7,36.5 35.9,44.3 21.8,47 35.9,49.8 		"/>
		<polygon points="473.3,36.5 465.5,41.7 462.8,27.7 460,41.7 452.3,36.5 457.5,44.3 443.4,47 457.5,49.8 452.3,57.5 460,52.3 
			462.8,66.4 465.5,52.3 473.3,57.5 468.1,49.8 482.1,47 468.1,44.3 		"/>
		<polygon points="213.4,550.9 183.7,577.8 181,532.6 178.3,577.8 148.6,550.9 175.5,580.6 136.1,583.3 175.5,586 148.6,615.7 
			178.3,588.8 181,634.1 183.7,588.8 213.4,615.7 186.1,586 226,583.3 186.5,580.6 		"/>
		<path d="M301.2,328.3c1.7,0.3,3.3,0.4,5.1,0.4c20.9,0.3,38.1-16.3,38.4-37.2c0.3-20.9-16.3-38.1-37.2-38.4c-1.7,0-3.4,0.1-5.1,0.3
			c18.4,2.8,32.4,18.8,32.1,38C334.2,310.5,319.7,326.1,301.2,328.3z"/>
		<path d="M173.8,238.8c1,0.4,1.9,0.8,2.9,1.3c0.6,0.3,1.2,0.5,1.7,0.8c0.1,0.1,0.2,0.1,0.3,0.1c0,0,0,0,0,0.1
			c1,1.8,1.3,4.4,1.9,6.5c0.1,0.4,0.7,0.4,0.8,0c0.6-2,0.9-4.6,1.9-6.5c0,0,0,0,0-0.1c0,0,0.1,0,0.2-0.1c0.5-0.4,1.2-0.6,1.8-0.8
			c1-0.4,1.9-0.9,2.9-1.3c0.4-0.2,0.2-0.7-0.1-0.8c-1-0.4-1.9-0.8-2.9-1.2c-1.1-0.5-1.8-0.5-2.1-1.6c-0.7-2-1.1-4.1-1.7-6.2
			c0,0,0,0,0-0.1c0,0,0,0,0-0.1c-0.1-0.1-0.2-0.2-0.3-0.2c-0.1,0-0.3,0-0.4,0.2c0,0,0,0.1,0,0.1c0,0,0,0,0,0c0,0,0,0,0,0
			c0,0,0,0,0,0c-0.5,2-1,4.1-1.6,6.2c-0.5,1.6-3.4,2.2-5,2.8C173.6,238.2,173.4,238.7,173.8,238.8z M179.6,236.2
			c0.6-1,0.7-2.8,1-3.9c0.1-0.5,0.3-1,0.4-1.5c0.1,0.5,0.3,1,0.4,1.5c0.3,1.2,0.5,2.9,1.1,3.9c0.6,1.1,2.8,1.8,4.4,2.3
			c-0.8,0.3-1.5,0.7-2.3,1c-0.7,0.3-1.5,0.5-2,1.1c-0.6,0.8-0.7,2.6-1,3.5c-0.2,0.6-0.3,1.2-0.5,1.8c-0.2-0.6-0.3-1.2-0.5-1.8
			c-0.3-1-0.4-2.7-1-3.5c-0.4-0.6-1.3-0.8-2-1.1c-0.8-0.3-1.5-0.7-2.3-1C176.8,238,178.9,237.3,179.6,236.2z"/>
		<path d="M327.1,388.3c-1.1-0.5-1.8-0.5-2.1-1.6c-0.7-2-1.1-4.1-1.7-6.2c0,0,0,0,0-0.1c0,0,0,0,0-0.1c-0.1-0.1-0.2-0.2-0.3-0.2
			c-0.1,0-0.3,0-0.4,0.2c0,0,0,0.1,0,0.1c0,0,0,0,0,0c0,0,0,0,0,0c0,0,0,0,0,0c-0.5,2-1,4.1-1.6,6.2c-0.5,1.6-3.4,2.2-5,2.8
			c-0.3,0.1-0.5,0.6-0.1,0.8c1,0.4,1.9,0.8,2.9,1.3c0.6,0.3,1.2,0.5,1.7,0.8c0.1,0.1,0.2,0.1,0.3,0.1c0,0,0,0,0,0.1
			c1,1.8,1.3,4.4,1.9,6.5c0.1,0.4,0.7,0.4,0.8,0c0.6-2,0.9-4.6,1.9-6.5c0,0,0,0,0-0.1c0,0,0.1,0,0.2-0.1c0.5-0.4,1.2-0.6,1.8-0.8
			c1-0.4,1.9-0.9,2.9-1.3c0.4-0.2,0.2-0.7-0.1-0.8C329.1,389.1,328.1,388.7,327.1,388.3z M326.5,391c-0.6,0.3-1.5,0.5-2,1.1
			c-0.6,0.8-0.7,2.6-1,3.5c-0.2,0.6-0.3,1.2-0.5,1.8c-0.2-0.6-0.3-1.2-0.5-1.8c-0.3-1-0.4-2.7-1-3.5c-0.4-0.6-1.3-0.8-2-1.1
			c-0.8-0.3-1.6-0.7-2.3-1c1.6-0.5,3.7-1.2,4.4-2.3c0.6-1,0.7-2.8,1-3.9c0.1-0.5,0.3-1,0.4-1.5c0.1,0.5,0.3,1,0.4,1.5
			c0.3,1.2,0.5,2.9,1.1,3.9c0.6,1.1,2.8,1.8,4.4,2.3C328,390.3,327.2,390.7,326.5,391z"/>
		<path d="M235.3,285.3c-0.7,0-1.3,0.6-1.3,1.3l0,0.3c0,0.7,0.6,1.3,1.3,1.3c0,0,0,0,0,0c0.7,0,1.3-0.6,1.3-1.3l0-0.3
			C236.7,285.9,236.1,285.3,235.3,285.3z"/>
		<path d="M236.3,358.7c0-0.7-0.5-1.3-1.3-1.4c-0.7,0-1.3,0.5-1.4,1.3l0,0.7c0,0.7,0.5,1.3,1.3,1.4c0,0,0,0,0.1,0
			c0.7,0,1.3-0.6,1.3-1.3L236.3,358.7z"/>
		<path d="M234.2,301.5c0,0.7,0.6,1.3,1.3,1.3c0,0,0,0,0,0c0.7,0,1.3-0.6,1.3-1.3l0-0.6l-0.9,0l-1.7,0L234.2,301.5z"/>
		<polygon points="235.5,300.8 235.9,300.8 236.8,300.8 		"/>
		<path d="M235.4,292.2c-0.7,0-1.3,0.6-1.3,1.3l0,0.7c0,0.7,0.6,1.3,1.3,1.3c0,0,0,0,0,0c0.7,0,1.3-0.6,1.3-1.3l0-0.7
			C236.7,292.8,236.1,292.2,235.4,292.2z"/>
		<path d="M234.2,315.3l0,0.7c0,0.7,0.6,1.3,1.3,1.3c0,0,0,0,0,0c0.7,0,1.3-0.6,1.3-1.3l0-0.7c0-0.7-0.6-1.3-1.3-1.3
			C234.8,314,234.2,314.6,234.2,315.3z"/>
		<path d="M235.5,306.7c-0.7,0-1.3,0.6-1.3,1.3l0,0.7c0,0.7,0.6,1.3,1.3,1.3c0,0,0,0,0,0c0.7,0,1.3-0.6,1.3-1.3l0-0.7
			C236.8,307.3,236.2,306.7,235.5,306.7z"/>
		<path d="M236.5,351.5c0-0.7-0.5-1.3-1.3-1.3c-0.7,0-1.3,0.5-1.3,1.3l0,0.7c0,0.7,0.5,1.3,1.3,1.3c0,0,0,0,0,0
			c0.7,0,1.3-0.6,1.3-1.3L236.5,351.5z"/>
		<path d="M230.1,400.4c-0.7-0.2-1.4,0.2-1.6,0.9l-0.2,0.6c-0.2,0.7,0.2,1.4,0.9,1.6c0.1,0,0.2,0.1,0.4,0.1c0.6,0,1.1-0.4,1.3-1
			l0.2-0.6C231.2,401.4,230.8,400.6,230.1,400.4z"/>
		<path d="M233.9,387.7c0.1-0.7-0.4-1.4-1.1-1.5c-0.7-0.1-1.4,0.4-1.5,1.1l-0.1,0.6c-0.1,0.7,0.4,1.4,1.1,1.5c0.1,0,0.1,0,0.2,0
			c0.6,0,1.2-0.5,1.3-1.1L233.9,387.7z"/>
		<path d="M227.9,407.3c-0.7-0.3-1.4,0.1-1.7,0.7c-0.1,0.2-0.2,0.4-0.2,0.6c-0.3,0.7,0,1.4,0.7,1.7c0.2,0.1,0.3,0.1,0.5,0.1
			c0.5,0,1-0.3,1.2-0.8c0.1-0.2,0.2-0.4,0.3-0.6C228.9,408.4,228.6,407.6,227.9,407.3z"/>
		<path d="M235.9,366.7l0-0.7c0-0.7-0.5-1.3-1.2-1.4c-0.7,0-1.3,0.5-1.4,1.2l0,0.7c0,0.7,0.5,1.3,1.2,1.4c0,0,0.1,0,0.1,0
			C235.3,367.9,235.9,367.3,235.9,366.7z"/>
		<path d="M235.4,373.9l0.1-0.7c0.1-0.7-0.5-1.4-1.2-1.4c-0.7-0.1-1.4,0.5-1.4,1.2l-0.1,0.7c-0.1,0.7,0.5,1.4,1.2,1.4
			c0,0,0.1,0,0.1,0C234.8,375.1,235.3,374.6,235.4,373.9z"/>
		<path d="M232.2,380.2l-0.1,0.7c-0.1,0.7,0.4,1.4,1.2,1.4c0,0,0.1,0,0.1,0c0.7,0,1.2-0.5,1.3-1.2l0.1-0.7c0.1-0.7-0.4-1.4-1.2-1.4
			C232.9,379,232.3,379.5,232.2,380.2z"/>
		<path d="M231.6,393.4c-0.7-0.1-1.4,0.3-1.5,1L230,395c-0.1,0.7,0.3,1.4,1,1.5c0.1,0,0.2,0,0.3,0c0.6,0,1.2-0.4,1.3-1l0.1-0.7
			C232.8,394.2,232.3,393.5,231.6,393.4z"/>
		<path d="M213,423c-0.2,0.1-0.4,0.1-0.6,0.2c-0.7,0.2-1.1,1-0.8,1.6c0.2,0.6,0.7,0.9,1.2,0.9c0.1,0,0.3,0,0.4-0.1
			c0.2-0.1,0.4-0.1,0.7-0.2c0.7-0.2,1-1,0.8-1.7C214.4,423.1,213.7,422.7,213,423z"/>
		<path d="M236.7,344.2c0-0.7-0.6-1.3-1.3-1.3c-0.7,0-1.3,0.6-1.3,1.3l0,0.7c0,0.7,0.6,1.3,1.3,1.3c0,0,0,0,0,0
			c0.7,0,1.3-0.6,1.3-1.3L236.7,344.2z"/>
		<path d="M223.1,414.3c-0.1,0.2-0.2,0.4-0.3,0.5c-0.4,0.6-0.2,1.4,0.4,1.8c0.2,0.1,0.5,0.2,0.7,0.2c0.4,0,0.8-0.2,1.1-0.6
			c0.1-0.2,0.2-0.4,0.4-0.6c0.4-0.6,0.2-1.4-0.4-1.8C224.3,413.5,223.5,413.7,223.1,414.3z"/>
		<path d="M206,424.1l-0.3,0c-0.7,0-1.3,0.6-1.3,1.3c0,0.7,0.6,1.3,1.3,1.3l0.3,0l0.4,0c0.7,0,1.3-0.6,1.3-1.3
			c0-0.7-0.6-1.3-1.3-1.3L206,424.1z"/>
		<path d="M218.7,419.5c-0.2,0.1-0.3,0.3-0.5,0.4c-0.6,0.5-0.6,1.3-0.2,1.8c0.3,0.3,0.6,0.5,1,0.5c0.3,0,0.6-0.1,0.8-0.3
			c0.2-0.1,0.4-0.3,0.5-0.5c0.5-0.5,0.6-1.3,0.1-1.8C220.1,419.1,219.3,419.1,218.7,419.5z"/>
		<path d="M236.9,329.8c0-0.7-0.6-1.3-1.3-1.3c0,0,0,0,0,0c-0.7,0-1.3,0.6-1.3,1.3l0,0.7c0,0.7,0.6,1.3,1.3,1.3c0,0,0,0,0,0
			c0.7,0,1.3-0.6,1.3-1.3L236.9,329.8z"/>
		<path d="M236.9,322.5c0-0.7-0.6-1.3-1.3-1.3c-0.7,0-1.3,0.6-1.3,1.3v0.7c0,0.7,0.6,1.3,1.3,1.3h0c0.7,0,1.3-0.6,1.3-1.3V322.5z"/>
		<path d="M236.8,337c0-0.7-0.6-1.3-1.3-1.3c-0.7,0-1.3,0.6-1.3,1.3l0,0.7c0,0.7,0.6,1.3,1.3,1.3c0,0,0,0,0,0c0.7,0,1.3-0.6,1.3-1.3
			L236.8,337z"/>
		<path d="M199.4,423.3l-0.3-0.1c-0.7-0.2-1.4,0.3-1.6,1c-0.2,0.7,0.3,1.4,1,1.6l0.3,0.1c0.1,0,0.2,0,0.3,0c0.6,0,1.1-0.4,1.3-1
			C200.5,424.2,200.1,423.5,199.4,423.3z"/>
		<path d="M127.1,288.3C127.1,288.3,127.1,288.3,127.1,288.3c0.7,0,1.3-0.6,1.3-1.3l0-0.3c0-0.7-0.6-1.3-1.3-1.3
			c-0.7,0-1.3,0.6-1.3,1.3l0,0.3C125.8,287.7,126.3,288.3,127.1,288.3z"/>
		<path d="M124.8,322.8c0,0.7,0.5,1.3,1.3,1.4c0,0,0,0,0,0c0.7,0,1.3-0.6,1.3-1.3l0-0.7c0-0.7-0.5-1.3-1.3-1.4
			c-0.7,0-1.3,0.5-1.4,1.3L124.8,322.8z"/>
		<path d="M124.6,330c0,0.7,0.6,1.3,1.3,1.3c0,0,0,0,0,0c0.7,0,1.3-0.6,1.3-1.3l0-0.7c0-0.7-0.6-1.3-1.3-1.3c-0.7,0-1.3,0.6-1.3,1.3
			L124.6,330z"/>
		<path d="M124.5,337.3c0,0.7,0.6,1.3,1.3,1.3h0c0.7,0,1.3-0.6,1.3-1.3l0-0.6c0-0.7-0.6-1.3-1.3-1.3c0,0,0,0,0,0
			c-0.7,0-1.3,0.6-1.3,1.3L124.5,337.3z"/>
		<path d="M125.9,345.8C125.9,345.8,125.9,345.8,125.9,345.8c0.8,0,1.3-0.6,1.3-1.4l0-0.6c0-0.7-0.6-1.3-1.3-1.3
			c-0.7,0-1.3,0.6-1.3,1.3l0,0.7C124.6,345.2,125.2,345.8,125.9,345.8z"/>
		<path d="M127,295.5C127,295.5,127,295.5,127,295.5c0.7,0,1.3-0.6,1.3-1.3l0-0.7c0-0.7-0.6-1.3-1.3-1.3c0,0,0,0,0,0
			c-0.7,0-1.3,0.6-1.3,1.3l0,0.6C125.7,294.9,126.3,295.5,127,295.5z"/>
		<path d="M126.4,352.9c0.7-0.1,1.3-0.7,1.2-1.4l-0.1-0.6c-0.1-0.7-0.7-1.3-1.4-1.2c-0.7,0.1-1.3,0.7-1.2,1.4l0.1,0.7
			c0.1,0.7,0.6,1.2,1.3,1.2C126.4,352.9,126.4,352.9,126.4,352.9z"/>
		<path d="M125.6,301.3c0,0.7,0.5,1.3,1.3,1.3c0,0,0,0,0,0c0.7,0,1.3-0.6,1.3-1.3l0-0.7c0-0.7-0.5-1.3-1.3-1.3
			c-0.7,0-1.3,0.5-1.3,1.3L125.6,301.3z"/>
		<path d="M125.3,308.5c0,0.7,0.5,1.3,1.3,1.4c0,0,0,0,0.1,0c0.7,0,1.3-0.6,1.3-1.3l0-0.7c0-0.7-0.5-1.3-1.3-1.4
			c-0.7,0-1.3,0.5-1.4,1.3L125.3,308.5z"/>
		<path d="M125.1,315.7c0,0.7,0.5,1.3,1.3,1.4c0,0,0,0,0.1,0c0.7,0,1.3-0.6,1.3-1.3l0-0.7c0-0.7-0.5-1.3-1.3-1.4
			c-0.7,0-1.3,0.5-1.4,1.3L125.1,315.7z"/>
		<path d="M141.3,383.2c0.2,0.1,0.3,0.1,0.5,0.1c0.5,0,1-0.3,1.2-0.8c0.3-0.7-0.1-1.4-0.8-1.7c-0.2-0.1-0.4-0.1-0.6-0.2
			c-0.7-0.3-1.4,0-1.7,0.7c-0.3,0.7,0,1.4,0.7,1.7C140.8,383,141.1,383.1,141.3,383.2z"/>
		<path d="M148.7,384.7C148.7,384.7,148.7,384.7,148.7,384.7c0.8,0,1.3-0.5,1.4-1.2c0-0.7-0.5-1.3-1.2-1.4c-0.2,0-0.4,0-0.6,0
			c-0.7-0.1-1.4,0.5-1.4,1.2c-0.1,0.7,0.5,1.4,1.2,1.4C148.2,384.6,148.4,384.6,148.7,384.7z"/>
		<path d="M128.5,358.5l-0.1-0.6c-0.1-0.7-0.8-1.2-1.5-1.1c-0.7,0.1-1.2,0.8-1.1,1.5l0.1,0.7c0.1,0.6,0.7,1.1,1.3,1.1
			c0.1,0,0.1,0,0.2,0C128.1,359.9,128.6,359.3,128.5,358.5z"/>
		<path d="M155.4,384.3c0.2,0,0.4-0.1,0.7-0.1c0.7-0.1,1.2-0.8,1.1-1.5c-0.1-0.7-0.8-1.2-1.5-1.1c-0.2,0-0.4,0.1-0.6,0.1
			c-0.7,0.1-1.2,0.8-1.1,1.5c0.1,0.7,0.7,1.1,1.3,1.1C155.3,384.4,155.4,384.4,155.4,384.3z"/>
		<path d="M130,365.4c-0.1-0.2-0.1-0.4-0.2-0.6c-0.2-0.7-0.9-1.1-1.6-0.9c-0.7,0.2-1.1,0.9-0.9,1.6c0.1,0.2,0.1,0.4,0.2,0.6
			c0.2,0.6,0.7,0.9,1.3,0.9c0.1,0,0.2,0,0.4-0.1C129.8,366.8,130.2,366.1,130,365.4z"/>
		<path d="M132.3,371.2c-0.3-0.6-1.1-0.9-1.8-0.6c-0.6,0.3-0.9,1.1-0.6,1.8c0.1,0.2,0.2,0.4,0.3,0.6c0.2,0.4,0.7,0.7,1.2,0.7
			c0.2,0,0.4,0,0.6-0.2c0.6-0.3,0.9-1.1,0.5-1.8C132.5,371.6,132.4,371.4,132.3,371.2z"/>
		<path d="M136.6,377.2c-0.1-0.1-0.3-0.3-0.4-0.4c-0.5-0.5-1.3-0.5-1.9,0c-0.5,0.5-0.5,1.3,0,1.9c0.2,0.2,0.3,0.3,0.5,0.5
			c0.3,0.2,0.6,0.4,0.9,0.4c0.3,0,0.7-0.1,1-0.4C137.2,378.5,137.1,377.7,136.6,377.2z"/>
		<path d="M162.3,382.9c0.1,0,0.2,0,0.3,0l0.3-0.1c0.7-0.2,1.1-0.9,0.9-1.6c-0.2-0.7-0.9-1.1-1.6-0.9l-0.3,0.1
			c-0.7,0.2-1.1,0.9-0.9,1.6C161.2,382.5,161.7,382.9,162.3,382.9z"/>
		<path d="M161,371.7c0,0.3-0.1,0.6-0.1,0.9v1c0,3.3,2.6,6,5.9,6c0.1,7.8,0,14.7-0.6,15.7c-1.5,2.4-4.3,2.9-4.3,6.6
			c0,3.7,2.2,4.2,4.3,6.6c0.5,0.6,0.9,3.2,1.2,7.1h-0.6c-1.2,0-2.1,0.9-2.1,2.1v2.7c0,1.2,0.9,2.1,2.1,2.1h1
			c0.5,9.7,0.7,22.5,0.9,31.7c-2.5,0.6-4.5,3.1-5.2,6.4c-9.3,3.8-15.5,9.3-19.9,9.3c-6.7,0-7,0-7,0c-0.2,0-0.3,0.2-0.3,0.3v6.3
			c0,0.2,0.2,0.3,0.3,0.3h88.8c0.2,0,0.3-0.2,0.3-0.3v-6.3c0-0.2-0.2-0.3-0.3-0.3c0,0-0.6,0-7,0c-4.2,0-10.5-5.5-19.9-9.3
			c-0.7-3.2-2.7-5.7-5.1-6.4c0.3-9.2,0.6-22,1.1-31.8h0.7c1.2,0,2.1-0.9,2.1-2.1v-2.7c0-1.2-0.9-2.1-2.1-2.1H195
			c0.3-3.9,0.6-6.5,0.9-7.1c1.5-2.4,4.3-2.8,4.3-6.6c0-3.8-2.2-4.2-4.3-6.6c-0.9-1-1-7.8-0.9-15.7h0.1c3.3,0,6-2.7,6-6v-1
			c0-0.3,0-0.6-0.1-0.9c16.5-7.4,28.1-23.7,28.1-42.4c0,0-3.1-45.5,0-45.5c3.1,0,6.7,0,6.7,0c1.5,0,2.7-1.2,2.7-2.6v-2.9
			c0-1.4-1.2-2.6-2.7-2.6H126.1c-1.5,0-2.7,1.2-2.7,2.6v2.9c0,1.4,1.2,2.6,2.7,2.6c0,0,3.9,0,6.7,0c2.9,0,0,45.5,0,45.5
			C132.8,348,144.4,364.2,161,371.7z M180.9,363.4c-10.7-0.1-19.3-8.8-19.2-19.5c0-0.9,0.1-1.7,0.2-2.6c1.2,9.5,9.2,16.8,19,16.9
			c9.8,0.1,17.9-7.1,19.3-16.6c0.1,0.8,0.2,1.7,0.2,2.6C200.3,354.9,191.6,363.5,180.9,363.4z M150.3,290.5c1.4-1.6,2.9-3,4.6-3.9
			c2.8-1.5,6.3-1.9,9.3-3.2h33c0,0,0,0.1,0,0.1c5.2,1.4,6.8,4.6,8.1,5.8c1.5,1.4,4,2.3,5.8,2.9c3.6,1.2,8.3,1.6,10.1,6.6
			c-2.2-4.1-7.5-3.4-11.7-3.3c-2.1,0.1-4.1-0.1-5.9-0.7c-2.9-1-5.5-3.2-8.3-4.5l12,15.6l-16.4-12.7c1.3,3.1,3.7,5.9,4.8,9
			c0.6,1.8,0.8,3.8,0.7,5.9c-0.1,4.2-0.8,9.5,3.3,11.7c-5-1.8-5.5-6.5-6.6-10.1c-0.6-1.8-1.5-4.4-2.9-5.8c-1.2-1.3-4.2-2.8-5.7-7.6
			l-3.2,32.9l-3.2-32.9c-1.4,4.8-4.5,6.4-5.7,7.6c-1.4,1.5-2.3,4-2.9,5.8c-1.2,3.6-1.6,8.3-6.6,10.1c4.1-2.2,3.4-7.5,3.3-11.7
			c-0.1-2.1,0.1-4.1,0.7-5.9c1.1-3.1,3.6-5.9,4.8-9l-16.4,12.7l12.6-16.3c-4.6,3-8,2-9.8,2.1c-2,0.1-4.4,1.4-6.1,2.3
			c-3.3,1.9-6.8,5-11.7,3C144.5,298,147.6,293.7,150.3,290.5z"/>
		<path d="M377.2,435c-0.7,0-1.3,0.6-1.3,1.3l0,0.3c0,0.7,0.6,1.3,1.3,1.3c0,0,0,0,0,0c0.7,0,1.3-0.6,1.3-1.3l0-0.3
			C378.6,435.6,378,435,377.2,435z"/>
		<path d="M376.9,507c-0.7,0-1.3,0.5-1.4,1.3l0,0.7c0,0.7,0.5,1.3,1.3,1.4c0,0,0,0,0.1,0c0.7,0,1.3-0.6,1.3-1.3l0-0.7
			C378.2,507.7,377.7,507.1,376.9,507z"/>
		<path d="M376.1,451.1c0,0.7,0.6,1.3,1.3,1.3c0,0,0,0,0,0c0.7,0,1.3-0.6,1.3-1.3l0-0.6l-0.9,0l-1.7,0L376.1,451.1z"/>
		<polygon points="377.4,450.5 377.8,450.5 378.7,450.4 		"/>
		<path d="M377.3,441.9c-0.7,0-1.3,0.6-1.3,1.3l0,0.7c0,0.7,0.6,1.3,1.3,1.3c0,0,0,0,0,0c0.7,0,1.3-0.6,1.3-1.3l0-0.7
			C378.6,442.5,378,441.9,377.3,441.9z"/>
		<path d="M376.1,464.9l0,0.7c0,0.7,0.6,1.3,1.3,1.3c0,0,0,0,0,0c0.7,0,1.3-0.6,1.3-1.3l0-0.7c0-0.7-0.6-1.3-1.3-1.3
			C376.7,463.6,376.1,464.2,376.1,464.9z"/>
		<path d="M377.4,456.4c-0.7,0-1.3,0.6-1.3,1.3l0,0.7c0,0.7,0.6,1.3,1.3,1.3c0,0,0,0,0,0c0.7,0,1.3-0.6,1.3-1.3l0-0.7
			C378.7,457,378.1,456.4,377.4,456.4z"/>
		<path d="M377.2,499.8c-0.7,0-1.3,0.5-1.3,1.3l0,0.7c0,0.7,0.5,1.3,1.3,1.3c0,0,0,0,0,0c0.7,0,1.3-0.6,1.3-1.3l0-0.7
			C378.5,500.4,377.9,499.8,377.2,499.8z"/>
		<path d="M372,550.1c-0.7-0.2-1.4,0.2-1.6,0.9l-0.2,0.6c-0.2,0.7,0.2,1.4,0.9,1.6c0.1,0,0.2,0.1,0.4,0.1c0.6,0,1.1-0.4,1.3-1
			l0.2-0.6C373.1,551,372.7,550.3,372,550.1z"/>
		<path d="M374.7,535.9c-0.7-0.1-1.4,0.4-1.5,1.1l-0.1,0.6c-0.1,0.7,0.4,1.4,1.1,1.5c0.1,0,0.1,0,0.2,0c0.6,0,1.2-0.5,1.3-1.1
			l0.1-0.7C375.9,536.7,375.4,536,374.7,535.9z"/>
		<path d="M369.8,557c-0.7-0.3-1.4,0.1-1.7,0.7c-0.1,0.2-0.2,0.4-0.2,0.6c-0.3,0.7,0,1.4,0.7,1.7c0.2,0.1,0.3,0.1,0.5,0.1
			c0.5,0,1-0.3,1.2-0.8c0.1-0.2,0.2-0.4,0.3-0.6C370.8,558,370.5,557.3,369.8,557z"/>
		<path d="M376.6,514.3c-0.7,0-1.3,0.5-1.4,1.2l0,0.7c0,0.7,0.5,1.3,1.2,1.4c0,0,0.1,0,0.1,0c0.7,0,1.3-0.5,1.3-1.2l0-0.7
			C377.9,514.9,377.3,514.3,376.6,514.3z"/>
		<path d="M376.1,521.5c-0.7-0.1-1.4,0.5-1.4,1.2l-0.1,0.7c-0.1,0.7,0.5,1.4,1.2,1.4c0,0,0.1,0,0.1,0c0.7,0,1.2-0.5,1.3-1.2l0.1-0.7
			C377.4,522.2,376.9,521.5,376.1,521.5z"/>
		<path d="M375.5,528.7c-0.7-0.1-1.4,0.4-1.4,1.2l-0.1,0.7c-0.1,0.7,0.4,1.4,1.2,1.4c0,0,0.1,0,0.1,0c0.7,0,1.2-0.5,1.3-1.2l0.1-0.7
			C376.8,529.4,376.2,528.8,375.5,528.7z"/>
		<path d="M373.5,543c-0.7-0.1-1.4,0.3-1.5,1l-0.1,0.6c-0.1,0.7,0.3,1.4,1,1.5c0.1,0,0.2,0,0.3,0c0.6,0,1.2-0.4,1.3-1l0.1-0.7
			C374.7,543.9,374.2,543.2,373.5,543z"/>
		<path d="M354.9,572.6c-0.2,0.1-0.4,0.1-0.6,0.2c-0.7,0.2-1.1,1-0.8,1.6c0.2,0.6,0.7,0.9,1.2,0.9c0.1,0,0.3,0,0.4-0.1
			c0.2-0.1,0.4-0.1,0.7-0.2c0.7-0.2,1-1,0.8-1.7C356.3,572.7,355.6,572.4,354.9,572.6z"/>
		<path d="M377.3,492.6c-0.7,0-1.3,0.6-1.3,1.3l0,0.7c0,0.7,0.6,1.3,1.3,1.3c0,0,0,0,0,0c0.7,0,1.3-0.6,1.3-1.3l0-0.7
			C378.6,493.2,378,492.6,377.3,492.6z"/>
		<path d="M365,564c-0.1,0.2-0.2,0.4-0.3,0.5c-0.4,0.6-0.2,1.4,0.4,1.8c0.2,0.1,0.5,0.2,0.7,0.2c0.4,0,0.8-0.2,1.1-0.6
			c0.1-0.2,0.2-0.4,0.4-0.6c0.4-0.6,0.2-1.4-0.4-1.8C366.2,563.2,365.4,563.4,365,564z"/>
		<path d="M347.9,573.8l-0.3,0c-0.7,0-1.3,0.6-1.3,1.3c0,0.7,0.6,1.3,1.3,1.3l0.3,0l0.4,0c0.7,0,1.3-0.6,1.3-1.3
			c0-0.7-0.6-1.3-1.3-1.3L347.9,573.8z"/>
		<path d="M360.6,569.2c-0.2,0.1-0.3,0.3-0.5,0.4c-0.6,0.5-0.6,1.3-0.2,1.8c0.3,0.3,0.6,0.5,1,0.5c0.3,0,0.6-0.1,0.8-0.3
			c0.2-0.1,0.4-0.3,0.5-0.5c0.5-0.5,0.6-1.3,0.1-1.8C362,568.8,361.2,568.7,360.6,569.2z"/>
		<path d="M377.5,478.1C377.5,478.1,377.5,478.1,377.5,478.1c-0.7,0-1.3,0.6-1.3,1.3l0,0.7c0,0.7,0.6,1.3,1.3,1.3c0,0,0,0,0,0
			c0.7,0,1.3-0.6,1.3-1.3l0-0.7C378.8,478.7,378.2,478.1,377.5,478.1z"/>
		<path d="M377.5,470.9c-0.7,0-1.3,0.6-1.3,1.3v0.7c0,0.7,0.6,1.3,1.3,1.3c0,0,0,0,0,0c0.7,0,1.3-0.6,1.3-1.3v-0.7
			C378.8,471.4,378.2,470.9,377.5,470.9z"/>
		<path d="M377.4,485.3c-0.7,0-1.3,0.6-1.3,1.3l0,0.7c0,0.7,0.6,1.3,1.3,1.3c0,0,0,0,0,0c0.7,0,1.3-0.6,1.3-1.3l0-0.7
			C378.7,485.9,378.1,485.3,377.4,485.3z"/>
		<path d="M341.3,573l-0.3-0.1c-0.7-0.2-1.4,0.3-1.6,1c-0.2,0.7,0.3,1.4,1,1.6l0.3,0.1c0.1,0,0.2,0,0.3,0c0.6,0,1.1-0.4,1.3-1
			C342.4,573.8,342,573.2,341.3,573z"/>
		<path d="M269,437.9C269,437.9,269,437.9,269,437.9c0.7,0,1.3-0.6,1.3-1.3l0-0.3c0-0.7-0.6-1.3-1.3-1.3c-0.7,0-1.3,0.6-1.3,1.3
			l0,0.3C267.7,437.4,268.3,437.9,269,437.9z"/>
		<path d="M266.7,472.5c0,0.7,0.5,1.3,1.3,1.4c0,0,0,0,0,0c0.7,0,1.3-0.6,1.3-1.3l0-0.7c0-0.7-0.5-1.3-1.3-1.4
			c-0.7,0-1.3,0.5-1.4,1.3L266.7,472.5z"/>
		<path d="M266.5,479.7c0,0.7,0.6,1.3,1.3,1.3c0,0,0,0,0,0c0.7,0,1.3-0.6,1.3-1.3l0-0.7c0-0.7-0.6-1.3-1.3-1.3
			c-0.7,0-1.3,0.6-1.3,1.3L266.5,479.7z"/>
		<path d="M266.4,486.9c0,0.7,0.6,1.3,1.3,1.3h0c0.7,0,1.3-0.6,1.3-1.3l0-0.6c0-0.7-0.6-1.3-1.3-1.3c0,0,0,0,0,0
			c-0.7,0-1.3,0.6-1.3,1.3L266.4,486.9z"/>
		<path d="M267.8,495.4C267.8,495.4,267.8,495.4,267.8,495.4c0.8,0,1.3-0.6,1.3-1.4l0-0.6c0-0.7-0.6-1.3-1.3-1.3
			c-0.7,0-1.3,0.6-1.3,1.3l0,0.7C266.5,494.9,267.1,495.4,267.8,495.4z"/>
		<path d="M268.9,445.1C268.9,445.1,269,445.1,268.9,445.1c0.7,0,1.3-0.6,1.3-1.3l0-0.7c0-0.7-0.6-1.3-1.3-1.3c0,0,0,0,0,0
			c-0.7,0-1.3,0.6-1.3,1.3l0,0.6C267.6,444.5,268.2,445.1,268.9,445.1z"/>
		<path d="M268.3,502.6c0.7-0.1,1.3-0.7,1.2-1.4l-0.1-0.6c-0.1-0.7-0.7-1.3-1.4-1.2c-0.7,0.1-1.3,0.7-1.2,1.4l0.1,0.7
			c0.1,0.7,0.6,1.2,1.3,1.2C268.3,502.6,268.3,502.6,268.3,502.6z"/>
		<path d="M267.5,451c0,0.7,0.5,1.3,1.3,1.3c0,0,0,0,0,0c0.7,0,1.3-0.6,1.3-1.3l0-0.7c0-0.7-0.5-1.3-1.3-1.3c-0.7,0-1.3,0.5-1.3,1.3
			L267.5,451z"/>
		<path d="M267.2,458.1c0,0.7,0.5,1.3,1.3,1.4c0,0,0,0,0.1,0c0.7,0,1.3-0.6,1.3-1.3l0-0.7c0-0.7-0.5-1.3-1.3-1.4
			c-0.7,0-1.3,0.5-1.4,1.3L267.2,458.1z"/>
		<path d="M267,465.3c0,0.7,0.5,1.3,1.3,1.4c0,0,0,0,0.1,0c0.7,0,1.3-0.6,1.3-1.3l0-0.7c0-0.7-0.5-1.3-1.3-1.4
			c-0.7,0-1.3,0.5-1.4,1.3L267,465.3z"/>
		<path d="M283.2,532.8c0.2,0.1,0.3,0.1,0.5,0.1c0.5,0,1-0.3,1.2-0.8c0.3-0.7-0.1-1.4-0.8-1.7c-0.2-0.1-0.4-0.1-0.6-0.2
			c-0.7-0.3-1.4,0-1.7,0.7c-0.3,0.7,0,1.4,0.7,1.7C282.7,532.6,283,532.7,283.2,532.8z"/>
		<path d="M290.6,534.3C290.6,534.3,290.6,534.3,290.6,534.3c0.8,0,1.3-0.5,1.4-1.2c0-0.7-0.5-1.3-1.2-1.4c-0.2,0-0.4,0-0.6,0
			c-0.7-0.1-1.4,0.5-1.4,1.2c-0.1,0.7,0.5,1.4,1.2,1.4C290.1,534.3,290.3,534.3,290.6,534.3z"/>
		<path d="M270.4,508.2l-0.1-0.6c-0.1-0.7-0.8-1.2-1.5-1.1c-0.7,0.1-1.2,0.8-1.1,1.5l0.1,0.7c0.1,0.6,0.7,1.1,1.3,1.1
			c0.1,0,0.1,0,0.2,0C270,509.6,270.5,508.9,270.4,508.2z"/>
		<path d="M297.3,534c0.2,0,0.4-0.1,0.7-0.1c0.7-0.1,1.2-0.8,1.1-1.5c-0.1-0.7-0.8-1.2-1.5-1.1c-0.2,0-0.4,0.1-0.6,0.1
			c-0.7,0.1-1.2,0.8-1.1,1.5c0.1,0.7,0.7,1.1,1.3,1.1C297.2,534,297.3,534,297.3,534z"/>
		<path d="M271.9,515c-0.1-0.2-0.1-0.4-0.2-0.6c-0.2-0.7-0.9-1.1-1.6-0.9c-0.7,0.2-1.1,0.9-0.9,1.6c0.1,0.2,0.1,0.4,0.2,0.6
			c0.2,0.6,0.7,0.9,1.3,0.9c0.1,0,0.2,0,0.4-0.1C271.7,516.5,272.1,515.7,271.9,515z"/>
		<path d="M274.2,520.9c-0.3-0.6-1.1-0.9-1.8-0.6c-0.6,0.3-0.9,1.1-0.6,1.8c0.1,0.2,0.2,0.4,0.3,0.6c0.2,0.4,0.7,0.7,1.2,0.7
			c0.2,0,0.4,0,0.6-0.2c0.6-0.3,0.9-1.1,0.5-1.8C274.4,521.3,274.3,521.1,274.2,520.9z"/>
		<path d="M278.5,526.8c-0.1-0.1-0.3-0.3-0.4-0.4c-0.5-0.5-1.3-0.5-1.9,0c-0.5,0.5-0.5,1.3,0,1.9c0.2,0.2,0.3,0.3,0.5,0.5
			c0.3,0.2,0.6,0.4,0.9,0.4c0.3,0,0.7-0.1,1-0.4C279.1,528.2,279,527.3,278.5,526.8z"/>
		<path d="M304.2,532.6c0.1,0,0.2,0,0.3,0l0.3-0.1c0.7-0.2,1.1-0.9,0.9-1.6c-0.2-0.7-0.9-1.1-1.6-0.9l-0.3,0.1
			c-0.7,0.2-1.1,0.9-0.9,1.6C303.1,532.2,303.7,532.6,304.2,532.6z"/>
		<path d="M377.8,425.4H268c-1.5,0-2.7,1.2-2.7,2.6v2.9c0,1.4,1.2,2.6,2.7,2.6c0,0,3.9,0,6.7,0c2.9,0,0,45.5,0,45.5
			c0,18.8,11.6,35,28.1,42.4c0,0.3-0.1,0.6-0.1,0.9v1c0,3.3,2.6,6,5.9,6c0.1,7.8,0,14.7-0.6,15.7c-1.5,2.4-4.3,2.9-4.3,6.6
			c0,3.7,2.2,4.2,4.3,6.6c0.5,0.6,0.9,3.2,1.2,7.1h-0.6c-1.2,0-2.1,0.9-2.1,2.1v2.7c0,1.2,0.9,2.1,2.1,2.1h1
			c0.5,9.7,0.7,22.5,0.9,31.7c-2.5,0.6-4.5,3.1-5.2,6.4c-9.3,3.8-15.5,9.3-19.9,9.3c-6.7,0-7,0-7,0c-0.2,0-0.3,0.2-0.3,0.3v6.3
			c0,0.2,0.2,0.3,0.3,0.3h88.8c0.2,0,0.3-0.2,0.3-0.3v-6.3c0-0.2-0.2-0.3-0.3-0.3c0,0-0.6,0-7,0c-4.2,0-10.5-5.5-19.9-9.3
			c-0.7-3.2-2.7-5.7-5.1-6.4c0.3-9.2,0.6-22,1.1-31.8h0.7c1.2,0,2.1-0.9,2.1-2.1v-2.7c0-1.2-0.9-2.1-2.1-2.1h-0.3
			c0.3-3.9,0.6-6.5,0.9-7.1c1.5-2.4,4.3-2.8,4.3-6.6c0-3.8-2.2-4.2-4.3-6.6c-0.9-1-1-7.8-0.9-15.7h0.1c3.3,0,6-2.7,6-6v-1
			c0-0.3,0-0.6-0.1-0.9c16.5-7.4,28.1-23.7,28.1-42.4c0,0-3.1-45.5,0-45.5c3.1,0,6.7,0,6.7,0c1.5,0,2.7-1.2,2.7-2.6V428
			C380.5,426.6,379.3,425.4,377.8,425.4z M322.8,513c-10.7-0.1-19.3-8.8-19.2-19.5c0-0.9,0.1-1.7,0.2-2.6c1.2,9.5,9.2,16.8,19,16.9
			c9.8,0.1,17.9-7.1,19.3-16.6c0.1,0.8,0.2,1.7,0.2,2.6C342.2,504.5,333.5,513.1,322.8,513z M351.3,445.2c-2.1,0.1-4.1-0.1-5.9-0.7
			c-2.9-1-5.5-3.2-8.3-4.5l12,15.6l-16.4-12.7c1.3,3.1,3.7,5.9,4.8,9c0.6,1.8,0.8,3.8,0.7,5.9c-0.1,4.2-0.8,9.5,3.3,11.7
			c-5-1.8-5.5-6.5-6.6-10.1c-0.6-1.8-1.5-4.4-2.9-5.8c-1.2-1.3-4.2-2.8-5.7-7.6l-3.2,32.9l-3.2-32.9c-1.4,4.8-4.5,6.4-5.7,7.6
			c-1.4,1.5-2.3,4-2.9,5.8c-1.2,3.6-1.6,8.3-6.6,10.1c4.1-2.2,3.4-7.5,3.3-11.7c-0.1-2.1,0.1-4.1,0.7-5.9c1.1-3.1,3.6-5.9,4.8-9
			L297,455.5l12.6-16.3c-4.6,3-8,2-9.8,2.1c-2,0.1-4.4,1.4-6.1,2.3c-3.3,1.9-6.8,5-11.7,3c4.5,1.1,7.6-3.2,10.3-6.5
			c1.4-1.6,2.9-3,4.6-3.9c2.8-1.5,6.3-1.9,9.3-3.2h33c0,0,0,0.1,0,0.1c5.2,1.4,6.8,4.6,8.1,5.8c1.5,1.4,4,2.3,5.8,2.9
			c3.6,1.2,8.3,1.6,10.1,6.6C360.9,444.4,355.6,445.1,351.3,445.2z"/>
	</g>
</g>
</svg>
