<?xml version="1.0" encoding="utf-8"?>
<!-- Generator: Adobe Illustrator 21.1.0, SVG Export Plug-In . SVG Version: 6.00 Build 0)  -->
<svg version="1.1" id="Слой_1" xmlns="http://www.w3.org/2000/svg" xmlns:xlink="http://www.w3.org/1999/xlink" x="0px" y="0px"
	 viewBox="0 0 504 864" style="enable-background:new 0 0 504 864;" xml:space="preserve">
<style type="text/css">
	.st0{fill:#040404;}
	.st1{fill:#FFFFFF;}
</style>
<g>
	<g>
		<path d="M51.9,53.6c6.7-7.6,6.7-19,0.2-26.4c0.8,7.2-1.3,14.8-6.5,20.6c-5.2,5.8-12.3,8.7-19.5,8.6C34,62.2,45.2,61.1,51.9,53.6z"
			/>
		<path d="M458.4,47.7c-5.2-5.8-7.3-13.3-6.5-20.6c-6.5,7.5-6.6,18.9,0.1,26.4c6.7,7.6,17.9,8.6,25.9,2.8
			C470.7,56.4,463.6,53.5,458.4,47.7z"/>
		<path d="M26.1,807.4c7.2-0.1,14.3,2.8,19.5,8.6c5.2,5.8,7.3,13.3,6.5,20.6c6.5-7.5,6.6-18.9-0.2-26.4
			C45.2,802.6,34,801.6,26.1,807.4z"/>
		<path d="M452,810.2c-6.7,7.6-6.7,19-0.1,26.4c-0.8-7.2,1.3-14.8,6.5-20.6c5.2-5.8,12.3-8.7,19.5-8.6
			C470,801.6,458.8,802.6,452,810.2z"/>
		<path d="M503.8,18.2c-1.6-17.9-18.7-16.3-31.6-16.3c-45.9,0-91.8,0-137.6,0c-63.2,0-126.3,0-189.5,0c-40.6,0-81.2,0-121.8,0
			c-2.6,0-5.3-0.2-8,0.2c-9.5,1.2-15,9.2-15.2,18.2c-0.2,7.3,0,14.5,0,21.8c0,37.4,0,74.9,0,112.3c0,57,0,114.1,0,171.1
			c0,64.3,0,128.6,0,192.9c0,58.4,0,116.7,0,175.1c0,40.1,0,80.2,0,120.3c0,9.1,0,18.2,0,27.3c0,11.7,6.7,20.5,19.2,20.7
			c35.9,0.6,71.9,0,107.9,0c62.4,0,124.9,0,187.3,0c49.7,0,99.5,0,149.2,0c7.6,0,15.2,0,22.9,0c0.4,0,0.8-0.1,1.2-0.2
			c14.4-1.8,16.1-13.8,16.1-25.5c0-11.4,0-22.8,0-34.3c0-43.4,0-86.9,0-130.3c0-59.9,0-119.8,0-179.8c0-63.9,0-127.7,0-191.6
			c0-55.3,0-110.6,0-165.9c0-33.7,0-67.3,0-101C503.9,28.3,504.2,23.2,503.8,18.2z M486.6,852.8c-28.3,0-56.6,0-84.9,0
			c-59.9,0-119.8,0-179.7,0c-54,0-108,0-162,0c-13.1,0-26.1,0-39.2,0c-5.6,0-11-1.3-11.7-8.3c-0.2-1.5,0-3,0-4.5c0-26.5,0-53,0-79.5
			c0-50,0-100,0-149.9c0-61.8,0-123.6,0-185.4c0-61.4,0-122.7,0-184.1c0-48.9,0-97.7,0-146.6c0-24.2-0.8-48.6,0-72.7
			c0.2-5.3,1.6-10.1,8.3-10.8c2.2-0.2,4.5,0,6.7,0c14.8,0,29.6,0,44.5,0c55.6,0,111.3,0,166.9,0c58.9,0,117.8,0,176.7,0
			c18.9,0,37.9,0,56.8,0c8.1,0,24.7-3.1,25.9,8.4c0.5,5.2,0,10.8,0,16.1c0,13.5,0,27.1,0,40.6c0,45.5,0,91.1,0,136.6
			c0,60.1,0,120.2,0,180.3c0,62.6,0,125.2,0,187.7c0,52.8,0,105.6,0,158.4c0,31.4,0,62.7,0,94.1C494.8,840.3,496.9,852,486.6,852.8z
			"/>
		<path d="M460,790.9c1.2,0.1,2.4-0.7,2.4-2.2c0-23.7,0-47.4,0-71.1c0-56.4,0-112.8,0-169.2c0-68.7,0-137.4,0-206
			c0-59,0-117.9,0-176.9c0-19.6,0-39.2,0-58.8c0-8.9,1.3-19,0-27.9c-0.1-0.4,0-0.8,0-1.2c0-0.8-0.3-1.3-0.8-1.7
			c0.1-1.2-0.6-2.5-2.2-2.6c-13.1-0.5-25.3-13.8-25.8-26.7c0-0.5-0.2-0.8-0.4-1.1c-0.3-0.6-1-1.1-1.9-1.1c-40.5,0-80.9,0-121.4,0
			c-64.5,0-129,0-193.6,0c-14.9,0-29.7,0-44.6,0c-0.9,0-1.6,0.5-1.9,1.1c-0.2,0.3-0.3,0.7-0.4,1.2C69.1,59.5,57,72.8,43.9,73.3
			c-1.8,0.1-2.5,1.9-2,3.2c-0.2,0.3-0.2,0.6-0.2,1c0,23.7,0,47.4,0,71.1c0,56.4,0,112.8,0,169.2c0,68.7,0,137.4,0,206
			c0,59,0,117.9,0,176.9c0,19.6,0,39.2,0,58.8c0,8.9-1.3,19,0,27.9c0.1,0.4,0,0.8,0,1.2c0,0.9,0.5,1.6,1.1,1.9
			c0.3,0.2,0.7,0.3,1.2,0.4c13,0.5,25.3,13.3,25.8,26.2c0,0.5,0.2,0.8,0.4,1.1c0.3,0.6,1,1.1,1.9,1.1c40.5,0,80.9,0,121.4,0
			c64.5,0,129,0,193.6,0c14.9,0,29.7,0,44.6,0c0.9,0,1.6-0.5,1.9-1.1c0.2-0.3,0.3-0.7,0.4-1.2c0.5-12.9,12.7-25.7,25.8-26.2
			C459.6,791,459.8,790.9,460,790.9z M429.3,814.9c-39.8,0-79.6,0-119.3,0c-64.5,0-129,0-193.6,0c-14.2,0-28.3,0-42.5,0
			c-1.7-13.9-13.9-26.5-27.8-28.3c0-23,0-46,0-69.1c0-56.4,0-112.8,0-169.2c0-68.7,0-137.4,0-206c0-59,0-117.9,0-176.9
			c0-19.6,0-39.2,0-58.8c0-8.9,1.3-19,0-27.9c-0.1-0.4,0-0.8,0-1.2c14-1.8,26.1-14.9,27.8-28.7c39.8,0,79.5,0,119.3,0
			c64.5,0,129,0,193.6,0c14.2,0,28.3,0,42.5,0c1.7,14.1,14.3,27.4,28.5,28.8c0,23.7,0,47.3,0,71c0,56.4,0,112.8,0,169.2
			c0,68.7,0,137.4,0,206c0,59,0,117.9,0,176.9c0,19.6,0,39.2,0,58.8c0,8.6-1.2,18.4-0.1,27C443.6,788.1,431.1,800.9,429.3,814.9z"/>
		<path d="M243.3,86.7c0-0.2,0-0.4-0.1-0.6c-0.1-0.4-0.3-0.4-0.6-0.1c-0.1,0.1,0,0.4,0.3,0.8l0.4,0.7L243.3,86.7z"/>
		<path d="M261.2,78.1c-1.6,0-2.4,0.1-2.4,0.4s-0.7,0.4-2,0.6c-2,0.1-2.9,0.6-2.9,1.4c0,0.3,0.1,0.7,0.3,1.1
			c0.2,0.4,0.4,0.6,0.6,0.6c0.2,0,0.4,0.2,0.7,0.6c0.3,0.4,0.2,0.8-0.1,1.1c-0.3,0.4-0.4,0.5-0.3,0.5c0.1,0,0.1,0.2-0.3,0.7
			c-0.3,0.4-0.4,0.8-0.4,1.2c0,0.2-0.2,0.6-0.7,1.1c-0.5,0.5-0.7,0.9-0.7,1c0,0.3-0.3,0.4-0.9,0.4c-0.4,0-0.7,0-0.8-0.1
			c-0.1-0.1-0.2-0.4-0.3-0.8c-0.1-0.7-0.4-1.1-0.7-1.4c-0.4-0.2-0.6-0.6-0.6-1.1c0-0.5-0.1-0.8-0.4-1c-0.2-0.1-0.4-0.5-0.6-1.2
			c-0.1-0.7-0.2-1.2-0.2-1.5s0.1-0.5,0.2-0.5c0.1-0.1,0.4-0.1,0.7-0.2c0.5-0.1,0.8-0.1,1-0.2c0.2-0.1,0.3-0.3,0.3-0.6
			c0-0.2,0-0.5-0.1-0.6l-0.2-0.9l-2.4,0.2c-1.6,0.1-2.4,0.2-2.5,0.4c-0.1,0.2-0.4,0.3-0.8,0.3c-0.4,0-0.6-0.1-0.6-0.3
			c0-0.2-0.2-0.3-0.5-0.5c-0.4-0.2-0.7-0.2-1.1-0.2c-0.6,0-0.9,0.2-0.9,0.6c0,0.2-0.2,0.4-0.7,0.4c-0.2,0-0.4,0.1-0.4,0.2
			c0.2,0.1,0.4,0.3,0.4,0.6c0,0.4,0.1,0.5,0.4,0.5c0.2,0,0.4,0.1,0.6,0.4c0.1,0.3,0.5,0.5,1.1,0.6c0.7,0.1,1.1,0.4,1.3,0.8
			c0.2,0.4,0.4,0.6,0.7,0.6c0.2,0,0.3,0.3,0.3,0.8s0.1,0.8,0.4,0.8c0.3,0,0.4,0.2,0.4,0.5c0,0.4,0.2,0.7,0.6,0.9
			c0.2,0.2,0.4,0.4,0.3,0.6c0,0.2,0.1,0.4,0.3,0.5c0.3,0.1,0.6,0.4,0.7,0.9c0.3,0.6,0.5,0.8,0.6,0.8c0.1,0,0.2,0.2,0.2,0.5
			c0,0.3,0.2,0.5,0.6,0.7c0.3,0.1,0.4,0.3,0.4,0.6c0,0.1,0,0.3-0.1,0.5c-0.1,0.2-0.1,0.4-0.1,0.6c0,0.2-0.2,0.4-0.5,0.5
			c-0.4,0.1-0.6,0.4-0.7,1c-0.1,0.6-0.3,0.8-0.4,0.8c-0.2,0-0.6,0.3-1.1,0.9c-0.5,0.6-0.8,1.1-0.8,1.3c0,0.3-0.1,0.5-0.4,0.5
			c-0.3,0-0.4,0.1-0.4,0.4s-0.2,0.5-0.7,0.7c-0.5,0.2-0.7,0.6-0.7,1.2c0,0.3,0,0.5-0.1,0.6c-0.1,0.1-0.2,0.2-0.4,0.2
			s-0.6,0.1-1.2,0.1c-0.9,0.1-1.5,0.2-1.8,0.4c-0.2,0.2-0.4,0.7-0.4,1.5c0,0.7,0.1,1,0.4,1c0.1,0,0.3-0.1,0.4-0.4
			c0.1-0.2,1.2-0.4,3.4-0.4c1.4,0,2.3,0,2.7,0.1c0.4,0.1,0.6,0.2,0.6,0.4c0,0.3,0.1,0.4,0.3,0.1c0.2-0.2,0.4-0.3,0.5-0.2
			c0,0,0.1,0.1,0.2,0.1c0.2,0,0.4-0.1,0.7-0.4c0.3-0.2,0.4-0.5,0.5-0.8c0.1-0.3,0.1-0.5-0.1-0.6s-0.4-0.2-0.9-0.2
			c-1.2-0.2-1.8-0.6-1.8-1.2c0-0.2,0.1-0.3,0.4-0.3c0.3,0,0.4-0.2,0.4-0.7c0-0.5,0.1-0.7,0.4-0.7s0.4-0.1,0.4-0.4
			c0-0.2,0.2-0.5,0.7-1c0.5-0.4,0.7-0.7,0.6-0.8v-0.3c0-0.5,0.1-1,0.4-1.5c0.3-0.5,0.6-0.7,0.9-0.7c0.1,0,0.2,0,0.2,0.1
			c0.3,0.1,0.5,0.3,0.5,0.6c0,0.2,0.3,0.6,0.8,1.3c0.5,0.7,0.8,1.1,0.8,1.2c0,0.2,0.1,0.3,0.4,0.4c0.2,0.1,0.4,0.4,0.5,0.9
			c0.1,0.3,0.2,0.5,0.3,0.7c0.2,0.1,0.4,0.2,0.8,0.3l0.9,0.3l-0.9,0.1c-0.6,0.1-0.9,0.3-0.9,0.6c0,0.8-0.5,1.2-1.4,1.2
			c-0.3,0-0.5,0-0.6,0.1c-0.1,0.1-0.2,0.3-0.2,0.6v0.7h3.6c2.4,0,3.6,0.1,3.7,0.4c0.1,0.3,0.3,0.3,0.6-0.1c0.3-0.3,0.8-0.4,1.5-0.3
			l1.1,0.2v-0.9c0-0.5-0.1-0.8-0.2-0.9c-0.1-0.2-0.4-0.3-0.9-0.5c-0.7-0.3-1.1-0.5-1.1-0.6c0-0.1-0.3-0.3-0.8-0.6
			c-0.5-0.3-0.8-0.5-0.8-0.7c0-0.4-0.1-0.7-0.4-1.2c-0.3-0.4-0.5-0.6-0.7-0.6c-0.1,0-0.3-0.3-0.5-0.8c-0.2-0.6-0.4-0.8-0.6-0.8
			c-0.2,0-0.4-0.2-0.5-0.5c-0.1-0.4-0.6-0.9-1.4-1.8c-0.8-0.8-1.3-1.3-1.5-1.3c-0.1,0-0.2-0.1-0.2-0.4c0-0.8,0.4-1.7,1.2-2.6
			c0.6-0.6,0.9-1.1,0.9-1.4c0-0.2,0.3-0.6,0.8-1.1c0.5-0.5,0.9-0.8,1.1-0.8c0.2,0,0.3-0.2,0.3-0.5c0-0.9,0.3-1.4,0.8-1.4
			c0.3,0,0.5-0.1,0.5-0.3c0-0.2,0.2-0.4,0.5-0.7c0.3-0.2,0.6-0.4,0.9-0.4c0.3,0,0.6-0.2,0.9-0.6l0.5-0.6l0.2,0.6
			c0.1,0.4,0.3,0.6,0.6,0.6c0.2,0,0.4-0.2,0.5-0.5c0.1-0.4,0.4-0.6,0.7-0.6c0.2,0,0.4-0.1,0.5-0.2c0.1-0.1,0.1-0.4,0.1-0.9
			c0-1-0.1-1.6-0.4-1.7C263.3,78.2,262.5,78.1,261.2,78.1z M247.5,81c0,0-0.1-0.1-0.1-0.3c0-0.1,0-0.2,0-0.3c0-0.1,0-0.1,0.1-0.1
			l0.1,0.2C247.7,80.8,247.6,81,247.5,81z M248.1,85.6c-0.1,0-0.1-0.1-0.1-0.2c0-0.1,0-0.1,0.1-0.1c0.1,0,0.2,0,0.2,0.1
			C248.3,85.5,248.2,85.6,248.1,85.6z M248.6,87.4l-0.1-0.3c0-0.1,0-0.2,0-0.3c0-0.1,0-0.1,0.1-0.1C248.8,87,248.7,87.2,248.6,87.4z
			 M251.8,93.6c-0.2,0-0.3-0.1-0.3-0.3c0-0.2,0.1-0.3,0.3-0.3c0.2,0,0.3,0.1,0.3,0.3C252.1,93.5,252,93.6,251.8,93.6z"/>
		<path d="M117.2,783.4c-0.1,0-0.3,0-0.5,0c-0.2,0-0.3,0-0.4,0c-0.3,0-0.6,0-0.7,0.1c-0.1,0-0.2,0.1-0.4,0.3
			c-0.2,0.2-0.3,0.3-0.3,0.4c0,0.1,0,0.1,0.2,0.2c0.2,0.1,0.4,0.2,0.6,0.2c0.3,0,0.4,0.1,0.5,0.3c0.1,0.2,0,0.3-0.1,0.4
			c-0.1,0-0.1,0.2-0.1,0.6c0,0.4-0.1,0.6-0.2,0.6c-0.2,0.1-0.2,0.2-0.2,0.3c0,0.1,0,0.1,0,0.2c0,0.1,0,0.1,0,0.2
			c0,0.5-0.1,0.8-0.3,0.9c-0.1,0-0.2,0.1-0.3,0.3c0,0.2-0.1,0.6-0.3,1.5c-0.1,0.4-0.2,0.6-0.4,0.6c-0.1,0-0.2,0.1-0.2,0.2
			c0,0.1,0,0.2-0.2,0.2c-0.2,0-0.4-0.1-0.5-0.2c-0.1-0.2-0.2-0.5-0.3-0.9c-0.1-0.3-0.1-0.9-0.2-1.6c-0.1-0.5-0.2-0.8-0.2-0.9
			c-0.1-0.1-0.1-0.4-0.1-0.6c0-0.3,0-0.5-0.1-0.5c-0.1,0-0.1-0.1-0.1-0.4c0-0.2-0.1-0.4-0.2-0.4c-0.1-0.1-0.2-0.1-0.2-0.2
			c0-0.1,0.2-0.2,0.6-0.2s0.7-0.1,0.8-0.2c0.2-0.2,0.2-0.4,0-0.6c-0.1-0.2-0.3-0.4-0.6-0.4c-0.3-0.1-0.8-0.1-1.5-0.1
			c-0.4,0-0.7,0-0.8,0c-0.1,0-0.2-0.1-0.2-0.2c-0.1-0.2-0.1-0.3-0.2-0.3c-0.1,0-0.2,0.1-0.4,0.3c-0.2,0.2-0.4,0.3-0.5,0.3
			c-0.3,0-0.5,0.2-0.6,0.6v0.1l0,0.1c0,0.3,0.3,0.5,0.9,0.6c0.3,0.1,0.5,0.2,0.5,0.4c0,0.1-0.1,0.1-0.2,0.1c-0.1,0-0.1,0.2-0.1,0.6
			s0,0.6-0.1,0.6c-0.1,0-0.1,0.2-0.1,0.5c0,0.7-0.1,1-0.4,1.1c-0.1,0-0.2,0.1-0.3,0.3c0,0.2-0.1,0.7-0.3,1.5
			c-0.1,0.4-0.2,0.6-0.4,0.6c-0.1,0-0.2,0.1-0.2,0.2c0,0.1,0,0.2-0.2,0.2c-0.3,0-0.4-0.1-0.5-0.2c-0.1-0.2-0.2-0.4-0.2-0.9
			c0-0.6-0.1-0.9-0.2-0.9c-0.1-0.1-0.1-0.3-0.1-0.6c0-0.4-0.1-0.7-0.2-0.9c-0.1-0.2-0.2-0.5-0.1-0.8c0-0.3,0-0.5-0.1-0.5
			c-0.1,0-0.2-0.1-0.2-0.4c0-0.2-0.1-0.4-0.2-0.4c-0.1-0.1-0.2-0.1-0.2-0.2c0-0.1,0.2-0.2,0.6-0.2c0.4,0,0.7-0.1,0.8-0.2
			c0.1-0.1,0.2-0.2,0.1-0.3c0-0.1-0.1-0.2-0.1-0.4c-0.1-0.2-0.2-0.3-0.4-0.4c-0.1-0.1-0.4-0.1-0.8-0.1c-0.1,0-0.2,0-0.4,0
			c-0.2,0-0.4,0-0.5,0h-0.4c-0.2,0-0.4,0-0.4-0.1s-0.1-0.1-0.1-0.3c-0.1-0.2-0.1-0.3-0.2-0.3c-0.1,0-0.2,0.1-0.5,0.3
			c-0.2,0.2-0.4,0.3-0.4,0.3c-0.1,0-0.3,0.1-0.4,0.2c-0.1,0.1-0.2,0.3-0.2,0.4c0,0.3,0.3,0.6,0.8,0.7c0.5,0.1,0.8,0.6,0.9,1.5
			c0.1,0.4,0.2,0.6,0.3,0.7c0.1,0.1,0.2,0.4,0.2,0.6c0,0.3,0.1,0.5,0.2,0.6c0.3,0.4,0.5,1,0.5,1.8c0,0.4,0,0.6,0.1,0.6
			c0.1,0.1,0.1,0.2,0.1,0.4c0,0.2,0,0.3,0.1,0.4c0.1,0.1,0.2,0.3,0.2,0.7s0.1,0.6,0.2,0.6c0.1,0,0.2,0.2,0.2,0.5
			c0,0.3,0.1,0.5,0.2,0.5c0.1,0,0.2,0.1,0.3,0.4c0.1,0.3,0.3,0.5,0.6,0.5c0.3,0,0.5-0.2,0.5-0.6c0-0.3,0-0.4,0.1-0.4
			c0.1,0,0.1-0.1,0.1-0.4s0.1-0.4,0.2-0.4c0.1,0,0.1-0.2,0.1-0.5c0-0.3,0.1-0.6,0.3-0.9c0.2-0.3,0.4-0.5,0.6-0.6
			c0.2-0.1,0.3-0.3,0.3-0.6c0-0.4,0.1-0.6,0.2-0.6c0.1,0,0.2-0.2,0.2-0.5c0-0.3,0.1-0.6,0.2-0.7c0.1-0.1,0.1-0.3,0.1-0.6
			c0-0.1,0.1-0.2,0.4-0.3c0.3-0.1,0.4-0.2,0.4-0.2c0.1,0,0.1,0.1,0.1,0.4c0,0.3,0.1,0.6,0.2,0.7c0.3,0.4,0.5,1,0.5,1.8
			c0,0.4,0.1,0.6,0.2,0.6c0.1,0,0.1,0.1,0.1,0.3c-0.1,0.2-0.1,0.4,0.1,0.4c0.1,0.1,0.2,0.3,0.2,0.7s0.1,0.6,0.2,0.6
			c0.1,0,0.2,0.2,0.2,0.5c0,0.3,0.1,0.5,0.2,0.5s0.2,0.1,0.3,0.4c0.1,0.3,0.3,0.5,0.5,0.5c0.3,0,0.5-0.2,0.5-0.6
			c0-0.3,0.1-0.4,0.2-0.4c0.1,0,0.1-0.1,0.1-0.4s0-0.4,0.1-0.4c0.1,0,0.1-0.2,0.1-0.5c0-0.3,0.1-0.6,0.3-1c0.2-0.4,0.4-0.5,0.5-0.5
			c0.1,0,0.2-0.2,0.2-0.6c0-0.4,0.1-0.6,0.2-0.6s0.2-0.2,0.2-0.5c0-0.3,0.1-0.6,0.2-0.7c0.2-0.2,0.2-0.4,0.2-0.5
			c-0.1-0.2,0.1-0.3,0.3-0.4c0.1,0,0.3-0.1,0.3-0.1c0.1-0.1,0.1-0.1,0.1-0.2c0,0,0-0.1,0-0.2c0-0.1,0-0.1,0-0.2
			c0-0.6,0.1-0.8,0.3-0.8c0.1,0,0.1-0.1,0.2-0.4c0-0.3,0.1-0.4,0.2-0.4c0.1,0,0.2-0.1,0.2-0.2c0-0.1,0.1-0.2,0.3-0.2
			c0.3,0,0.5-0.1,0.6-0.2c0.1-0.1,0.2-0.3,0.2-0.6l0-0.4L117.2,783.4z"/>
		<path d="M139.2,781.9c-0.2-0.1-0.5-0.1-0.8-0.1c-0.1,0-0.2,0-0.5,0.1c-0.3,0.1-0.5,0.1-0.7,0.1h-0.1H137c-0.2,0-0.5,0-1,0.1
			c-0.4,0-0.7,0.1-0.8,0.1c-0.1,0-0.2,0.1-0.2,0.2c0,0.2,0,0.3-0.1,0.3c-0.1,0-0.1,0-0.1,0.1c0,0.1,0,0.2,0,0.3
			c0,0.1,0.1,0.2,0.2,0.2c0.1,0.1,0.2,0.5,0.2,1.3c0,0.8,0.1,1.2,0.2,1.2c0.1,0,0.1,0.3,0.1,0.8v0.8h-1.3c-0.8,0-1.7,0-2.7-0.1
			l-1.4-0.1v-0.7c0-0.4,0-0.7,0.1-0.7c0.1,0,0.1-0.3,0.2-0.9c0-1.1,0.1-1.6,0.4-1.6c0.1,0,0.2,0,0.2-0.1c0-0.1,0.1-0.2,0.4-0.2
			c0.2,0,0.4-0.1,0.5-0.2c0.1-0.1,0.2-0.2,0.2-0.4c0-0.2-0.1-0.3-0.2-0.4c-0.2-0.1-0.5-0.2-1-0.2c-0.3,0-0.4,0-0.5,0.1
			c0,0-0.5,0.1-1.3,0.1c-0.9,0.1-1.7,0.2-2.4,0.5c-0.1,0-0.2,0.1-0.2,0.2c0,0.1,0.2,0.2,0.6,0.4l0.6,0.3l0,0.8v0.9v0.3
			c0,0.2,0,0.4,0.1,0.4c0.1,0.1,0.2,0.5,0.2,1.1c0,0.6-0.1,1.1-0.2,1.4c-0.1,0.3-0.2,0.6-0.2,0.8c0,0,0,0,0,0.1c0,0,0,0.1,0,0.1
			c0,0.2,0.1,0.4,0.1,0.6c0,0.5,0,1.1-0.1,1.8c-0.1,0.6-0.2,1-0.2,1.2c-0.1,0.2-0.4,0.3-0.8,0.3c-0.3,0-0.5,0.1-0.6,0.1
			c-0.1,0.1-0.1,0.2-0.1,0.4v0.5l0.7-0.1c0.3-0.1,1-0.1,2.2-0.1h0.7h0.7c1,0,1.6,0,1.6-0.1c0-0.1-0.1-0.3-0.2-0.5
			c-0.2-0.2-0.3-0.3-0.4-0.3h-0.1c-0.2,0.1-0.4,0.1-0.6-0.1c-0.1-0.1-0.2-0.1-0.3-0.2c0-0.1-0.1-0.2-0.1-0.4c0-0.3,0-0.5,0-0.8
			c0-0.9,0.1-1.6,0.1-2.1v-0.8h4.9l0.1,0.4c0,0.2,0.1,0.5,0.1,0.7c0,0.5,0,1.1-0.1,1.7c-0.1,0.6-0.2,1-0.3,1
			c-0.1,0.1-0.4,0.2-0.8,0.3c-0.3,0-0.5,0.1-0.5,0.1c-0.1,0.1-0.1,0.2-0.1,0.4c0,0.3,0.1,0.5,0.3,0.5c0.3,0.1,1.3,0.1,3.1,0.1
			c1.3,0,2,0,2.1-0.1c0.2-0.1,0.3-0.2,0.3-0.4c0-0.2-0.1-0.3-0.2-0.5c-0.1-0.1-0.3-0.2-0.4-0.2c0,0,0,0-0.1,0c0,0,0,0-0.1,0
			c-0.1,0.1-0.3,0.1-0.5,0l-0.4-0.1l0.1-3.5c0-2.3,0.1-3.5,0.2-3.6c0.1,0,0.1-0.3,0.1-0.9c0.1-1.1,0.2-1.6,0.4-1.6
			c0.1,0,0.2,0,0.2-0.1c0-0.1,0.1-0.2,0.4-0.2c0.2,0,0.4-0.1,0.5-0.2c0.2-0.1,0.2-0.3,0.2-0.4C139.5,782.1,139.4,782,139.2,781.9z
			 M128.4,790.8c-0.2-0.1-0.3-0.1-0.3-0.2c0-0.1,0-0.1,0.1-0.1c0.2,0,0.3,0.1,0.4,0.2c0,0,0,0,0,0.1
			C128.6,790.8,128.5,790.8,128.4,790.8z M129.1,790.7c-0.1,0-0.1-0.1-0.1-0.2c0-0.1,0-0.2,0.1-0.2c0.1,0,0.2,0.1,0.2,0.2
			C129.2,790.7,129.2,790.7,129.1,790.7z M129.1,787c-0.1,0-0.2-0.1-0.2-0.3c0-0.3,0.1-0.4,0.2-0.4c0.2,0,0.2,0.1,0.2,0.3
			C129.3,786.9,129.2,787,129.1,787z M136.2,790.8c-0.1,0.1-0.2,0.1-0.4,0c-0.2-0.1-0.3-0.1-0.3-0.2c0-0.1,0.1-0.1,0.2-0.1
			c0.3,0,0.5,0.1,0.5,0.2C136.3,790.7,136.2,790.8,136.2,790.8z M136.6,790.7c-0.1,0-0.2-0.1-0.2-0.2c0-0.1,0.1-0.2,0.2-0.2
			c0.1,0,0.1,0.1,0.1,0.2C136.7,790.7,136.7,790.7,136.6,790.7z M136.6,787c-0.1,0-0.2-0.1-0.2-0.3c0-0.3,0.1-0.4,0.2-0.4
			c0.1,0,0.2,0.1,0.2,0.3C136.8,786.9,136.7,787,136.6,787z"/>
		<path d="M157.3,790.2c-0.1,0-0.3,0.2-0.5,0.5c-0.3,0.4-0.4,0.6-0.4,0.7c0,0.1-0.1,0.2-0.4,0.2c-0.2,0-0.3,0.1-0.3,0.1
			c0,0,0,0.1,0,0.3v0.2c0,0.2-0.1,0.3-0.4,0.3c0,0-0.1,0-0.2,0c-0.1,0-0.1,0-0.2,0c-0.2,0-0.4,0.1-0.7,0.4c-0.2,0.2-0.4,0.3-0.6,0.3
			c-0.1,0-0.2-0.1-0.2-0.2c-0.1-0.1-0.2-0.1-0.4,0c-0.2,0.1-0.6,0.2-1.2,0.2c-0.5,0-0.7,0-0.7-0.1s-0.1-0.1-0.2-0.1
			c-0.1,0-0.1-0.1-0.2-0.2c-0.1-0.2-0.1-0.3-0.1-0.5c0,0,0-0.6,0.1-1.8c0-1.2,0.1-1.8,0.1-1.8c0-0.1,0.5-0.1,1.4-0.1
			c0.8,0,1.3,0.1,1.5,0.2c0.3,0.1,0.4,0.4,0.4,0.8c0,0.2,0,0.3,0.1,0.3c0,0,0.1,0,0.2,0c0.2-0.1,0.4-0.1,0.6-0.1h0.1
			c0.2,0,0.3-0.2,0.3-0.6c0-0.1,0-0.2,0-0.3c0-0.2,0-0.3,0-0.4v-0.3c0-0.4,0-0.6,0.1-0.6c0.1-0.1,0.1-0.3,0-0.4
			c-0.1-0.1-0.1-0.3,0.1-0.4c0.2-0.1,0.2-0.2,0.2-0.4c0-0.3-0.4-0.4-1.1-0.4c-0.4,0-0.6,0.2-0.6,0.5c0,0.1,0,0.2,0.1,0.3
			c0.1,0.2,0,0.3-0.1,0.5c-0.1,0.1-0.4,0.2-0.9,0.3c-0.6,0.1-1.1,0.2-1.6,0.2h-0.6V787c0-0.4,0.1-0.6,0.2-0.6c0.1,0,0.2-0.1,0.2-0.4
			c0-0.3-0.1-0.6-0.2-0.9c-0.1-0.2-0.2-0.4-0.2-0.4c0-0.1,0.1-0.1,0.2-0.3c0.2-0.2,0.3-0.3,0.2-0.5c0,0,0-0.1,0-0.2
			c0-0.2,0.1-0.3,0.4-0.4c0.3-0.1,0.8-0.1,1.5-0.2c0.6,0,1-0.1,1.1-0.1c0.4,0,0.6,0.1,0.7,0.2c0.2,0.2,0.3,0.3,0.5,0.4
			c0.2,0.1,0.3,0.2,0.3,0.3c0,0.1,0.1,0.2,0.4,0.4c0.2,0.1,0.4,0.3,0.4,0.3c0,0.2,0.1,0.3,0.3,0.5c0.2,0.2,0.4,0.3,0.6,0.3h0.1
			c0.3,0,0.4-0.2,0.4-0.7c0-0.2-0.1-0.4-0.2-0.5c-0.1-0.2-0.2-0.4-0.2-0.6c0-0.3-0.1-0.5-0.2-0.5c-0.1-0.1-0.1-0.2,0-0.4
			c0.1-0.1,0.1-0.2,0.1-0.3c0-0.1-0.1-0.1-0.2-0.2c-0.1-0.1-0.2-0.2-0.2-0.3c0-0.1-0.1-0.3-0.3-0.5c-0.1-0.1-0.2-0.2-0.3-0.2
			c-0.1,0-0.2,0-0.3,0.1c-0.2,0.1-1.9,0.3-5,0.4h-0.7c-1.5,0-2.3-0.1-2.4-0.3c0-0.1-0.1-0.1-0.3-0.1c-0.1,0-0.2,0-0.2,0.1
			c0,0.1-0.1,0.2-0.1,0.3c0,0.2,0,0.3,0,0.3c0,0.2-0.1,0.3-0.3,0.4c-0.2,0-0.3,0.2-0.2,0.5c0.1,0.2,0.1,0.4,0.2,0.5
			c0.1,0.1,0.2,0.1,0.3,0.1s0.3,0,0.4,0c0.1,0,0.1,0,0.2,0c0.1,0,0.1,0,0.2,0c0.4,0,0.6,0.1,0.7,0.4c0.1,0.2,0.1,0.8,0.1,1.5
			c0,0.9-0.1,1.4-0.2,1.5c-0.1,0-0.1,0.2,0,0.4c0.1,0.3,0.1,0.5,0,0.7c-0.1,0.2-0.2,0.3-0.3,0.3c-0.1,0-0.1,0.1,0.1,0.2
			c0.1,0.1,0.1,0.3,0.1,0.6c0,0.3-0.1,1.3-0.2,3l-0.1,1h-0.6c-0.4,0-0.6,0.1-0.7,0.3c-0.1,0.2-0.2,0.3-0.3,0.3
			c-0.2,0-0.2,0.1-0.2,0.4c0,0.3,0.1,0.5,0.3,0.6c0.2,0.1,0.3,0.3,0.3,0.4c0,0.1,0.1,0.2,0.3,0.2s0.5,0,0.8-0.1
			c0.3-0.1,0.5-0.2,0.6-0.2c0.2-0.1,0.6-0.2,1.2-0.2c0.1,0,0.6,0,1.5,0.1c0.8,0,1.2,0.1,1.2,0.2c0.1,0.1,0.2,0.1,0.4,0
			c0.3-0.1,0.8-0.2,1.6-0.2c0.9,0,1.4,0,1.6-0.1c0.2,0,0.3-0.1,0.5-0.2c0.2-0.2,0.3-0.4,0.2-0.6c-0.1-0.2,0-0.4,0.2-0.4
			c0.1-0.1,0.2-0.4,0.2-0.8c0-0.3,0-0.5,0.1-0.6c0-0.1,0.1-0.1,0.2-0.1c0.2,0,0.3-0.2,0.3-0.5c0-0.3-0.1-0.5-0.2-0.7
			C157.6,790.3,157.5,790.2,157.3,790.2z"/>
		<path d="M146.6,792.2c0.1,0,0.1-0.1,0.2-0.1c0.1-0.2,0.1-0.3-0.1-0.3c-0.1,0-0.2,0.1-0.2,0.2C146.5,792.1,146.5,792.2,146.6,792.2
			z"/>
		<path d="M165,792.1c0,0,0.1,0,0.1-0.1c0.1-0.2,0.1-0.3,0-0.3c-0.1,0-0.2,0.1-0.2,0.2C164.9,792,164.9,792.1,165,792.1z"/>
		<path d="M175.2,790.2c-0.1,0-0.3,0.2-0.5,0.5c-0.3,0.3-0.4,0.6-0.4,0.7c0,0.1-0.1,0.2-0.4,0.2c-0.1,0-0.2,0-0.3,0.1
			c0,0-0.1,0.1-0.1,0.1c0,0,0,0.1,0,0.3c0,0.2-0.1,0.3-0.4,0.3c0,0-0.1,0-0.1,0c-0.1,0-0.1,0-0.2,0c-0.2,0-0.4,0.1-0.6,0.3
			c-0.2,0.2-0.4,0.3-0.6,0.3c-0.1,0-0.2-0.1-0.2-0.2c0-0.1-0.1-0.1-0.4,0c-0.2,0.1-0.6,0.2-1.2,0.2c-0.5,0-0.7,0-0.7-0.1
			c0-0.1-0.1-0.1-0.2-0.1c-0.1,0-0.1-0.1-0.2-0.2c-0.1-0.2-0.1-0.3-0.1-0.4c0-0.1,0-0.2,0-0.3c0-0.2,0-0.4,0-0.6c0-0.3,0-0.5,0-0.8
			c0-0.3,0-0.5,0-0.8c0-0.3,0-0.5,0-0.6v-0.2c0-0.1,0.4-0.1,1.3-0.1c0.7,0,1.2,0.1,1.4,0.2c0.2,0.1,0.4,0.4,0.4,0.8
			c0,0.2,0,0.3,0.1,0.3c0,0,0.1,0,0.2,0c0.1-0.1,0.3-0.1,0.5-0.1c0.1,0,0.2,0,0.3-0.1c0-0.1,0.1-0.2,0.1-0.5c0-0.1,0-0.2,0-0.3
			s0-0.3,0-0.4v-0.2c0-0.3,0-0.6,0.1-0.7c0.1-0.1,0.1-0.3,0-0.4c-0.1-0.1-0.1-0.3,0.1-0.4c0.1-0.1,0.2-0.2,0.2-0.4
			c0-0.3-0.3-0.4-1-0.4c-0.4,0-0.6,0.2-0.6,0.5c0,0.1,0,0.2,0.1,0.3c0,0.2,0,0.4,0,0.5c-0.1,0.1-0.3,0.2-0.9,0.3
			c-0.5,0.1-1,0.1-1.5,0.1h-0.6v-0.6c0-0.4,0.1-0.6,0.2-0.6c0.1,0,0.2-0.1,0.2-0.4c0-0.3-0.1-0.5-0.2-0.9c-0.1-0.2-0.2-0.4-0.1-0.4
			c0-0.1,0.1-0.1,0.2-0.3c0.2-0.1,0.3-0.3,0.2-0.5c0,0,0-0.1,0-0.2c0-0.1,0.1-0.3,0.4-0.3c0.3-0.1,0.7-0.1,1.5-0.2
			c0.7,0,1.1-0.1,1.1-0.1c0.3,0,0.5,0.1,0.6,0.2c0.1,0.2,0.3,0.3,0.5,0.4c0.2,0.1,0.3,0.2,0.3,0.3c0,0.1,0.1,0.2,0.3,0.3
			c0.2,0.1,0.3,0.2,0.3,0.3c0,0.2,0.1,0.3,0.3,0.5c0.2,0.2,0.4,0.2,0.6,0.2h0c0.3,0,0.4-0.2,0.4-0.6c0-0.2-0.1-0.3-0.2-0.5
			c-0.1-0.1-0.2-0.3-0.2-0.5c0-0.3-0.1-0.5-0.2-0.5c-0.1,0-0.1-0.1,0-0.4c0.1-0.1,0.1-0.2,0.1-0.3c0,0-0.1-0.1-0.1-0.1
			c-0.1-0.1-0.2-0.2-0.2-0.3s-0.1-0.3-0.3-0.5c-0.2-0.2-0.4-0.3-0.6-0.1c-0.3,0.1-1.8,0.3-4.7,0.4h-0.7c-1.5,0-2.2-0.1-2.3-0.3
			c0-0.1-0.1-0.1-0.2-0.1c-0.1,0-0.2,0-0.2,0.1l0,0.1c0,0.1,0,0.1,0,0.1c0,0,0,0.1,0,0.2c0,0.1,0,0.2,0,0.2c0,0.2-0.1,0.3-0.3,0.3
			c-0.2,0.1-0.3,0.2-0.2,0.5c0.1,0.2,0.1,0.4,0.2,0.5c0.1,0.1,0.2,0.1,0.3,0.1c0.1,0,0.3,0,0.4,0c0.1,0,0.2,0,0.4,0
			c0.3,0,0.5,0.1,0.6,0.4c0.1,0.2,0.1,0.7,0.1,1.4c0,0.9-0.1,1.4-0.2,1.4c-0.1,0-0.1,0.2,0,0.4c0.1,0.2,0.1,0.4,0,0.6
			c-0.1,0.2-0.2,0.3-0.3,0.3c-0.1,0-0.1,0.1,0.1,0.2c0.1,0.1,0.1,0.3,0.1,0.6c0,0.5-0.1,1.5-0.2,2.8l-0.1,0.9H166
			c-0.4,0-0.6,0.1-0.6,0.3c0,0.2-0.1,0.3-0.3,0.3c-0.1,0-0.2,0.1-0.2,0.3c0,0.3,0.1,0.5,0.3,0.6c0.2,0.1,0.3,0.2,0.3,0.4
			c0,0.1,0.2,0.1,0.7,0.1c0.5,0,0.8-0.1,0.9-0.3c0.1-0.1,0.5-0.2,1.2-0.2c0.5,0,0.9,0,1.3,0c0.7,0,1.1,0.1,1.2,0.2
			c0,0.1,0.2,0.1,0.4,0c0.2-0.1,0.7-0.2,1.5-0.2c0.8,0,1.3,0,1.5-0.1c0.2,0,0.3-0.1,0.5-0.3c0.2-0.2,0.3-0.3,0.2-0.5
			c0-0.2,0-0.3,0.1-0.4c0.1-0.1,0.2-0.3,0.2-0.8c0-0.3,0-0.5,0-0.6c0-0.1,0.1-0.1,0.2-0.1c0.2,0,0.3-0.2,0.3-0.5
			c0-0.2-0.1-0.4-0.2-0.6C175.4,790.3,175.3,790.2,175.2,790.2z"/>
		<path d="M182.8,799.7c-0.1,0-0.1,0.1-0.1,0.3c0,0.2,0,0.3,0.1,0.3c0.1,0,0.1-0.1,0.1-0.3C182.9,799.8,182.9,799.7,182.8,799.7z"/>
		<path d="M200.3,790.7c0,0-0.1,0-0.1,0c-0.1,0-0.1,0-0.1,0.1c-0.2,0-0.3,0.1-0.3,0.3c0,0.1,0.1,0.2,0.3,0.2c0.2,0,0.3-0.1,0.3-0.3
			C200.4,790.7,200.4,790.6,200.3,790.7L200.3,790.7z"/>
		<path d="M199.4,790.1c-0.1,0-0.2-0.1-0.2-0.3c-0.1-0.2-0.2-0.3-0.4-0.3c-0.2,0-0.4-0.1-0.4-0.4c0-0.1-0.1-0.2-0.2-0.3
			c-0.2-0.1-0.3-0.1-0.3,0.1c0,0.1-0.1,0.2-0.4,0.3c-0.2,0.1-0.3,0.2-0.1,0.3c0.1,0.1,0.2,0.3,0.2,0.6c0,0.3,0,0.4-0.1,0.4
			c-0.1,0-0.3,0.2-0.6,0.5c-0.6,0.6-1.1,0.9-1.5,0.9c-0.2,0-0.4,0.1-0.7,0.2c-0.3,0.1-0.7,0.2-1.2,0.2c-0.6,0-0.9-0.1-0.9-0.4
			c0-0.1,0-0.1,0-0.2c0.1-0.2,0.1-0.3,0-0.4c-0.1,0-0.1-0.2-0.1-0.4c0-0.4,0-0.7,0.1-1c0-0.1,0.1-0.2,0.1-0.4c0-0.1,0-0.4-0.1-0.6
			c0-0.1,0-0.3,0-0.5c0-0.2,0-0.3,0.1-0.4c0.2-0.1,0.2-0.3,0.2-0.8c0-0.2,0-0.3-0.1-0.4c-0.1-0.1-0.1-0.2,0-0.4
			c0.1-0.1,0.1-0.5,0.1-1.2V785l-0.1-1.3h0.9c0.6,0,1-0.1,1.1-0.2c0.1-0.2,0.1-0.4,0.1-0.6c0-0.3-0.1-0.5-0.2-0.6
			c-0.1-0.1-1.1-0.1-2.9-0.1h-0.9c-1.2,0-1.8,0.1-1.8,0.2c-0.1,0.1-0.1,0.3-0.1,0.4c0,0.3,0.1,0.6,0.2,0.7c0.1,0.1,0.4,0.2,0.7,0.2
			c0.5,0,0.8,0.1,0.8,0.4c0,0.1,0,0.1-0.1,0.2c-0.1,0.1-0.1,0.4-0.1,0.7c0,0.3,0,0.6,0.1,0.8c0.1,0.3,0.1,0.4,0,0.5
			c-0.1,0.1-0.1,0.3-0.1,0.7c0,0.2,0,0.3,0,0.4c0,0.8,0.1,1.3,0.1,1.6c0,1.3-0.1,1.9-0.3,1.9c-0.1,0-0.2,0.2-0.2,0.7
			c0,0.2,0,0.3,0.1,0.4l0.1,0.1c0,0.2-0.3,0.2-0.9,0.2c-0.3,0-0.5,0.1-0.6,0.2c-0.1,0.1-0.2,0.4-0.2,0.8v0.2c0,0.5,0.2,0.8,0.6,0.8
			c0.1,0,0.3,0,0.4-0.1c0.3-0.1,0.4-0.2,0.4-0.3c0-0.1,0.3-0.1,1-0.1c0.7,0,1,0,1,0.1c0,0.1,0.7,0.1,2.1,0.1c1.4,0,2.1-0.1,2.1-0.1
			c0-0.1,0.3-0.1,0.8-0.1c0.6,0,0.9,0,0.9,0.1c0,0.1,0.1,0.2,0.4,0.2c0.2,0,0.4-0.1,0.4-0.3c0-0.1,0.1-0.3,0.3-0.4
			c0.2-0.1,0.3-0.2,0.3-0.4c0-0.2,0-0.4,0.1-0.5c0.1-0.1,0.1-0.3,0-0.4c0,0-0.1-0.1-0.1-0.2c0-0.2,0-0.5,0.1-0.8
			c0.1-0.3,0.2-0.4,0.2-0.4c0.1,0,0.1-0.1,0.1-0.3C199.5,790.2,199.5,790.1,199.4,790.1z"/>
		<path d="M231.7,785.7c-0.2-0.1-0.2-0.2-0.2-0.5c0-0.3,0-0.5-0.1-0.5c-0.1,0-0.1-0.1-0.1-0.4s-0.1-0.4-0.2-0.4
			c-0.1,0-0.2-0.1-0.3-0.3c-0.1-0.2-0.2-0.3-0.3-0.4c-0.1-0.1-0.2-0.2-0.2-0.4c0-0.2-0.1-0.3-0.4-0.3c-0.7,0-1-0.1-1-0.4
			c0-0.1-0.1-0.2-0.2-0.2c-0.1,0-0.2,0-0.2-0.1c0-0.1-0.1-0.1-0.3-0.1c-0.2,0-0.3-0.1-0.4-0.2c0-0.1-0.5-0.2-1.5-0.2
			c-0.9,0-1.5,0.1-1.6,0.2c-0.1,0.1-0.2,0.2-0.4,0.2c-0.2,0-0.3,0.1-0.4,0.3c-0.1,0.2-0.3,0.4-0.6,0.4c-0.3,0-0.6,0.1-1.1,0.2
			c-0.5,0.1-0.7,0.3-0.8,0.5c0,0.2-0.2,0.4-0.5,0.7c-0.3,0.3-0.4,0.5-0.4,0.5c0,0.1-0.1,0.1-0.2,0.1c-0.1,0-0.2,0.1-0.3,0.4
			c-0.1,0.2-0.2,0.5-0.3,0.7c-0.2,0.3-0.2,0.8-0.2,1.8c0,1.2,0.1,2.1,0.4,2.9c0.5,1.4,0.9,2.2,1.2,2.3c0.2,0,0.3,0.1,0.3,0.3
			c0,0.2,0.2,0.2,0.4,0.2c0.2,0,0.4,0,0.4,0.1s0.1,0.1,0.3,0.1s0.3,0.1,0.3,0.4c0,0.2,0,0.3,0.1,0.4c0.1,0.1,0.2,0,0.4-0.1
			c0.1-0.1,0.2-0.1,0.3,0c0.2,0.1,0.9,0.2,2.2,0.2c1.1,0,1.7-0.1,1.7-0.2c0-0.1,0.3-0.2,0.7-0.2c0.4,0,0.6-0.1,0.6-0.2
			c0-0.2,0.1-0.3,0.2-0.3c0,0,0.2-0.1,0.4-0.3c0.3-0.2,0.4-0.3,0.5-0.3c0.1,0,0.2-0.1,0.2-0.3c0.1-0.2,0.2-0.3,0.3-0.3
			c0.1,0,0.2-0.1,0.3-0.3c0-0.2,0.2-0.3,0.4-0.3c0.2-0.1,0.3-0.1,0.3-0.2c0-0.1,0.1-0.1,0.2-0.1c0.1,0,0.2-0.2,0.2-0.6
			c0-0.3,0-0.5-0.1-0.5c-0.1,0-0.1-0.1,0-0.2c0.1-0.1,0.2-0.8,0.2-2.1c0-0.3,0-0.7,0-1.1C231.9,786,231.8,785.7,231.7,785.7z
			 M229.5,788.8c-0.1,0-0.2,0.2-0.2,0.4c0,0.3-0.1,0.4-0.2,0.5c-0.1,0.1-0.2,0.4-0.3,0.8c-0.1,0.4-0.1,0.6-0.3,0.6
			c-0.1,0-0.2,0-0.2,0.1c0,0.1-0.1,0.2-0.4,0.2c-0.3,0.1-0.4,0.2-0.4,0.3c0,0.1,0,0.2-0.1,0.2c-0.1,0.1-0.2,0.1-0.4,0.2
			c-0.1,0.1-0.2,0.1-0.3,0.1c0,0.1-0.2,0.1-0.4,0.1c-0.2,0-0.3,0.1-0.5,0.2c-0.1,0.1-0.2,0.1-0.4,0.1c-0.2,0-0.4,0-0.7-0.1
			c-0.5-0.1-1-0.3-1.3-0.6c-0.3-0.3-0.7-0.8-1-1.5c-0.3-0.5-0.4-0.9-0.5-1.1c0-0.2-0.1-0.7-0.1-1.4c0-0.7,0-1.1,0.1-1.4
			c0-0.2,0.1-0.5,0.3-0.8c0.3-0.5,0.6-0.9,1-1.3c0.4-0.4,0.8-0.6,1-0.7c0.3,0,0.5-0.1,0.5-0.3c0-0.1,0.1-0.2,0.2-0.2
			c0.1,0,0.2,0,0.2-0.1c0-0.1,0.1-0.1,0.3-0.1c0.2,0,0.3,0,0.3,0.1c0,0.1,0.3,0.1,0.9,0.1c0.5,0,0.8,0.1,0.8,0.2
			c0,0.1,0.1,0.2,0.3,0.3c0.2,0.1,0.3,0.2,0.3,0.3c0,0.1,0.1,0.2,0.3,0.3c0.3,0.1,0.5,0.4,0.5,0.8c0,0.2,0.1,0.5,0.3,0.8
			c0.2,0.3,0.3,0.7,0.3,1.1c0,0.5,0,0.7,0.1,0.8c0.1,0.1,0.1,0.2,0.1,0.4C229.7,788.6,229.6,788.7,229.5,788.8z"/>
		<path d="M249.5,783.9c0-0.3-0.1-0.5-0.2-0.6c-0.1-0.1-0.1-0.2,0-0.4c0.1-0.1,0.1-0.2,0.1-0.2c0-0.1-0.1-0.2-0.2-0.2
			c-0.1-0.1-0.2-0.2-0.2-0.3c0-0.2-0.1-0.3-0.3-0.5c-0.2-0.2-0.4-0.3-0.5-0.3c-0.1,0-0.2,0-0.2,0.1c0,0.1-0.3,0.1-0.9,0.2
			c-0.5,0.1-1.1,0.1-1.7,0.1c-0.6,0-0.9,0-1,0.1c-0.1,0-0.5,0.1-1.4,0.1c-0.9,0.1-1.8,0.2-2.7,0.3c-0.9,0.1-1.4,0.2-1.4,0.2
			c0,0,0,0.1,0,0.2c0,0.1,0,0.2,0.1,0.3c0.1,0.2,0.1,0.3,0.2,0.4c0.1,0,0.3,0.1,0.6,0.1c0.5,0,0.9,0.1,1,0.3
			c0.1,0.2,0.2,0.7,0.2,1.6c0,0.9-0.1,1.4-0.2,1.5c-0.1,0.1-0.1,0.2,0,0.4c0.1,0.3,0.2,0.5,0,0.7c-0.1,0.2-0.2,0.3-0.3,0.3
			c-0.1,0,0,0.1,0.1,0.2c0.1,0.1,0.1,0.3,0.1,0.6c0,0.1,0,0.4-0.1,0.8c-0.1,1.4-0.2,2.3-0.2,2.6s-0.1,0.5-0.3,0.6
			c-0.2,0.1-0.5,0.3-0.8,0.6l-0.5,0.6h5v-0.5c0-0.2,0-0.4-0.1-0.4c0-0.1-0.1-0.1-0.3-0.1c-0.2,0-0.4,0-0.4-0.1
			c0-0.1-0.1-0.1-0.2-0.1s-0.2-0.1-0.3-0.3c0-0.1,0-0.4,0-1.2c0-1.2,0-2.1,0.1-2.8c0-0.1,0.5-0.1,1.4-0.1c0.8,0,1.3,0.1,1.5,0.2
			c0.3,0.1,0.4,0.4,0.4,0.9c0,0.3,0,0.5,0.1,0.5c0.1,0,0.1-0.1,0.3-0.2c0.1-0.1,0.3-0.2,0.5-0.1c0.2,0.1,0.3,0,0.3-0.2
			c0-0.2,0-0.3,0.1-0.4c0.1-0.1,0.1-0.2,0-0.2c-0.1-0.1-0.2-0.3-0.2-0.6c0-0.4,0.1-0.7,0.2-0.8c0.1-0.1,0.1-0.1,0.1-0.2
			c0-0.1,0-0.1-0.1-0.2c-0.1-0.1-0.1-0.2-0.1-0.2c0-0.1,0-0.1,0.1-0.2c0.2-0.1,0.2-0.2,0.2-0.4c0-0.3-0.4-0.4-1.1-0.4
			c-0.4,0-0.6,0.2-0.6,0.5c0,0.1,0,0.2,0.1,0.3c0.1,0.2,0,0.4,0,0.5c-0.1,0.1-0.4,0.2-1,0.3c-0.6,0.1-1.1,0.2-1.6,0.2h-0.5v-0.6
			c0-0.4,0.1-0.6,0.2-0.7c0.1-0.1,0.2-0.2,0.2-0.4c0-0.3-0.1-0.5-0.2-0.8c-0.1-0.2-0.2-0.4-0.2-0.4c0-0.1,0.1-0.1,0.2-0.3
			c0.2-0.2,0.3-0.4,0.2-0.6c0-0.1,0-0.1,0-0.2c0-0.1,0.1-0.2,0.4-0.3c0.3-0.1,0.8-0.1,1.6-0.1c0.7,0,1.1-0.1,1.1-0.1
			c0.3,0,0.5,0.1,0.7,0.2c0.2,0.2,0.3,0.3,0.5,0.4c0.2,0.1,0.3,0.2,0.3,0.3c0,0.1,0.1,0.3,0.3,0.4c0.2,0.1,0.4,0.3,0.5,0.6
			c0.1,0.4,0.4,0.5,0.8,0.5c0.1,0,0.2,0,0.3-0.1c0.1-0.1,0.2-0.2,0.2-0.6c0-0.3-0.1-0.5-0.2-0.5
			C249.5,784.4,249.5,784.2,249.5,783.9z"/>
		<path d="M279.1,783.9c0-0.3-0.1-0.5-0.2-0.6c-0.1-0.1-0.1-0.2,0-0.4c0.1-0.1,0.1-0.2,0.1-0.2c0-0.1-0.1-0.2-0.2-0.2
			c-0.1-0.1-0.2-0.2-0.2-0.3c0-0.2-0.1-0.3-0.3-0.5c-0.2-0.2-0.4-0.3-0.5-0.3c-0.1,0-0.2,0-0.2,0.1c0,0.1-0.3,0.1-0.9,0.2
			c-0.5,0.1-1.1,0.1-1.7,0.1c-0.6,0-0.9,0-1,0.1c-0.1,0-0.5,0.1-1.4,0.1c-0.9,0.1-1.8,0.2-2.7,0.3c-0.9,0.1-1.4,0.2-1.4,0.2
			c0,0,0,0.1,0,0.2s0,0.2,0.1,0.3c0.1,0.2,0.1,0.3,0.2,0.4c0.1,0,0.3,0.1,0.6,0.1c0.5,0,0.9,0.1,1,0.3c0.1,0.2,0.2,0.7,0.2,1.6
			c0,0.9-0.1,1.4-0.2,1.5c-0.1,0.1-0.1,0.2,0,0.4c0.1,0.3,0.2,0.5,0,0.7c-0.1,0.2-0.2,0.3-0.3,0.3c-0.1,0,0,0.1,0.1,0.2
			c0.1,0.1,0.1,0.3,0.1,0.6c0,0.1,0,0.4-0.1,0.8c-0.1,1.4-0.2,2.3-0.2,2.6c-0.1,0.4-0.1,0.5-0.3,0.6c-0.2,0.1-0.5,0.3-0.8,0.6
			l-0.5,0.6h5v-0.5c0-0.2,0-0.4-0.1-0.4c0-0.1-0.1-0.1-0.3-0.1c-0.2,0-0.4,0-0.4-0.1c0-0.1-0.1-0.1-0.2-0.1c-0.1,0-0.2-0.1-0.3-0.3
			c0-0.1,0-0.4,0-1.2c0-1.2,0-2.1,0.1-2.8c0-0.1,0.5-0.1,1.4-0.1c0.8,0,1.3,0.1,1.5,0.2c0.3,0.1,0.4,0.4,0.4,0.9
			c0,0.3,0,0.5,0.1,0.5c0.1,0,0.1-0.1,0.3-0.2c0.1-0.1,0.3-0.2,0.5-0.1c0.2,0.1,0.3,0,0.3-0.2c0-0.2,0-0.3,0.1-0.4
			c0.1-0.1,0.1-0.2,0-0.2c-0.1-0.1-0.2-0.3-0.2-0.6c0-0.4,0.1-0.7,0.2-0.8c0.1-0.1,0.1-0.1,0.1-0.2c0-0.1,0-0.1-0.1-0.2
			c-0.1-0.1-0.1-0.2-0.1-0.2c0-0.1,0-0.1,0.1-0.2c0.2-0.1,0.2-0.2,0.2-0.4c0-0.3-0.4-0.4-1.1-0.4c-0.4,0-0.6,0.2-0.6,0.5
			c0,0.1,0,0.2,0.1,0.3c0.1,0.2,0,0.4,0,0.5c-0.1,0.1-0.4,0.2-1,0.3c-0.6,0.1-1.1,0.2-1.6,0.2h-0.5v-0.6c0-0.4,0.1-0.6,0.2-0.7
			c0.1-0.1,0.2-0.2,0.2-0.4c0-0.3-0.1-0.5-0.2-0.8c-0.1-0.2-0.2-0.4-0.2-0.4c0-0.1,0.1-0.1,0.2-0.3c0.2-0.2,0.3-0.4,0.2-0.6
			c0-0.1,0-0.1,0-0.2c0-0.1,0.1-0.2,0.4-0.3c0.3-0.1,0.8-0.1,1.6-0.1c0.7,0,1.1-0.1,1.1-0.1c0.3,0,0.5,0.1,0.7,0.2
			c0.2,0.2,0.3,0.3,0.5,0.4c0.2,0.1,0.3,0.2,0.3,0.3c0,0.1,0.1,0.3,0.3,0.4c0.2,0.1,0.4,0.3,0.5,0.6c0.1,0.4,0.4,0.5,0.8,0.5
			c0.1,0,0.2,0,0.3-0.1c0.1-0.1,0.2-0.2,0.2-0.6c0-0.3-0.1-0.5-0.2-0.5C279.2,784.4,279.1,784.2,279.1,783.9z"/>
		<path d="M298.7,785.7c-0.2-0.1-0.2-0.2-0.2-0.5c0-0.3,0-0.5-0.1-0.5c-0.1,0-0.1-0.1-0.1-0.4s-0.1-0.4-0.2-0.4
			c-0.1,0-0.2-0.1-0.3-0.3c-0.1-0.2-0.2-0.3-0.3-0.4c-0.1-0.1-0.2-0.2-0.2-0.4c0-0.2-0.1-0.3-0.4-0.3c-0.7,0-1-0.1-1-0.4
			c0-0.1-0.1-0.2-0.2-0.2c-0.1,0-0.2,0-0.2-0.1c0-0.1-0.1-0.1-0.3-0.1c-0.2,0-0.3-0.1-0.4-0.2c0-0.1-0.5-0.2-1.5-0.2
			c-0.9,0-1.5,0.1-1.6,0.2c-0.1,0.1-0.2,0.2-0.4,0.2c-0.2,0-0.3,0.1-0.4,0.3c-0.1,0.2-0.3,0.4-0.6,0.4c-0.3,0-0.6,0.1-1.1,0.2
			c-0.5,0.1-0.7,0.3-0.8,0.5c0,0.2-0.2,0.4-0.5,0.7c-0.3,0.3-0.4,0.5-0.4,0.5c0,0.1-0.1,0.1-0.2,0.1c-0.1,0-0.2,0.1-0.3,0.4
			c-0.1,0.2-0.2,0.5-0.3,0.7c-0.2,0.3-0.2,0.8-0.2,1.8c0,1.2,0.1,2.1,0.4,2.9c0.5,1.4,0.9,2.2,1.2,2.3c0.2,0,0.3,0.1,0.3,0.3
			c0,0.2,0.2,0.2,0.4,0.2c0.2,0,0.4,0,0.4,0.1s0.1,0.1,0.3,0.1c0.2,0,0.3,0.1,0.3,0.4c0,0.2,0,0.3,0.1,0.4c0.1,0.1,0.2,0,0.4-0.1
			c0.1-0.1,0.2-0.1,0.3,0c0.2,0.1,0.9,0.2,2.2,0.2c1.1,0,1.7-0.1,1.7-0.2c0-0.1,0.3-0.2,0.7-0.2c0.4,0,0.6-0.1,0.6-0.2
			c0-0.2,0.1-0.3,0.2-0.3c0,0,0.2-0.1,0.4-0.3c0.3-0.2,0.4-0.3,0.5-0.3c0.1,0,0.2-0.1,0.2-0.3c0.1-0.2,0.2-0.3,0.3-0.3
			c0.1,0,0.2-0.1,0.3-0.3c0-0.2,0.2-0.3,0.4-0.3c0.2-0.1,0.3-0.1,0.3-0.2c0-0.1,0.1-0.1,0.2-0.1c0.1,0,0.2-0.2,0.2-0.6
			c0-0.3,0-0.5-0.1-0.5c-0.1,0-0.1-0.1,0-0.2c0.1-0.1,0.2-0.8,0.2-2.1c0-0.3,0-0.7,0-1.1C298.9,786,298.9,785.7,298.7,785.7z
			 M296.5,788.8c-0.1,0-0.2,0.2-0.2,0.4c0,0.3-0.1,0.4-0.2,0.5c-0.1,0.1-0.2,0.4-0.3,0.8c-0.1,0.4-0.1,0.6-0.3,0.6
			c-0.1,0-0.2,0-0.2,0.1c0,0.1-0.1,0.2-0.4,0.2c-0.3,0.1-0.4,0.2-0.4,0.3c0,0.1,0,0.2-0.1,0.2c-0.1,0.1-0.2,0.1-0.4,0.2
			c-0.1,0.1-0.2,0.1-0.3,0.1c0,0.1-0.2,0.1-0.4,0.1c-0.2,0-0.3,0.1-0.5,0.2c-0.1,0.1-0.2,0.1-0.4,0.1c-0.2,0-0.4,0-0.7-0.1
			c-0.5-0.1-1-0.3-1.3-0.6c-0.3-0.3-0.7-0.8-1-1.5c-0.3-0.5-0.4-0.9-0.5-1.1c0-0.2-0.1-0.7-0.1-1.4c0-0.7,0-1.1,0.1-1.4
			c0-0.2,0.1-0.5,0.3-0.8c0.3-0.5,0.6-0.9,1-1.3c0.4-0.4,0.8-0.6,1-0.7c0.3,0,0.5-0.1,0.5-0.3c0-0.1,0.1-0.2,0.2-0.2
			c0.1,0,0.2,0,0.2-0.1c0-0.1,0.1-0.1,0.3-0.1c0.2,0,0.3,0,0.3,0.1c0,0.1,0.3,0.1,0.9,0.1c0.5,0,0.8,0.1,0.8,0.2
			c0,0.1,0.1,0.2,0.3,0.3c0.2,0.1,0.3,0.2,0.3,0.3c0,0.1,0.1,0.2,0.3,0.3c0.3,0.1,0.5,0.4,0.5,0.8c0,0.2,0.1,0.5,0.3,0.8
			c0.2,0.3,0.3,0.7,0.3,1.1c0,0.5,0,0.7,0.1,0.8c0.1,0.1,0.1,0.2,0.1,0.4C296.7,788.6,296.6,788.7,296.5,788.8z"/>
		<path d="M319.2,793.9c-0.1,0-0.2-0.1-0.3-0.4c-0.1-0.2-0.3-0.4-0.5-0.4c-0.2,0-0.4-0.1-0.6-0.2c-0.2-0.1-0.4-0.2-0.4-0.4
			c-0.1-0.1-0.1-0.2-0.3-0.2c-0.1,0-0.3-0.1-0.6-0.4c-0.2-0.3-0.4-0.6-0.6-0.9c-0.1-0.3-0.4-0.6-0.8-1.1c-0.4-0.5-0.7-0.7-0.8-0.7
			c-0.1,0-0.2-0.1-0.4-0.3c-0.1-0.1-0.2-0.2-0.1-0.3c0,0,0.1-0.1,0.3-0.2c0.8-0.3,1.2-0.6,1.2-0.9c0-0.5,0.1-0.7,0.3-0.7
			c0.1,0,0.2-0.1,0.4-0.2c0.2-0.2,0.2-0.7,0.2-1.5c0-1-0.1-1.5-0.3-1.7c-0.1-0.1-0.2-0.2-0.4-0.2c-0.1,0-0.2,0-0.2-0.1
			c0-0.1-0.1-0.2-0.4-0.3c-0.3-0.1-0.4-0.3-0.5-0.5l-0.2-0.3c-0.1-0.1-0.2-0.1-0.2,0.1c0,0.1-0.3,0.1-0.8,0.1c-0.6,0-0.9,0-0.9-0.1
			c0-0.1-0.1-0.1-0.4-0.1s-0.5-0.1-0.6-0.3c-0.2-0.2-0.3-0.3-0.4-0.3c-0.1,0-0.2,0.1-0.1,0.3c0,0,0,0,0,0.1v0c0,0.1-0.6,0.2-1.8,0.2
			h-1.9l-0.5,0.5c-0.3,0.3-0.5,0.6-0.5,0.7c0,0.1,0.2,0.2,0.5,0.3c0.3,0.1,0.5,0.1,0.5,0.2c0,0.1,0,0.1,0.1,0.1
			c0.2,0,0.4,0.2,0.6,0.5c0.2,0.3,0.3,0.7,0.3,1.2c0,0.4,0.1,0.6,0.1,0.6c0,0.2-0.1,0.4-0.2,0.5c-0.2,0.1-0.2,0.2-0.1,0.3
			c0.1,0.1,0.2,0.3,0.2,0.7c0,0.3-0.1,0.5-0.2,0.5c-0.2,0-0.2,0,0,0.1c0.1,0.1,0.2,0.2,0.2,0.4s-0.1,0.4-0.2,0.5
			c-0.1,0.1-0.1,0.3,0.1,0.4c0.1,0.1,0.2,0.3,0.2,0.4c0,0.1-0.1,0.3-0.2,0.4c-0.2,0.2-0.3,0.7-0.3,1.6c0,0.7,0,1.1-0.1,1.2
			c0,0.1-0.1,0.2-0.3,0.3c-0.2,0.1-0.3,0.1-0.3,0.2c0,0.1-0.3,0.1-0.8,0.1c-0.4,0-0.6,0.1-0.7,0.1c-0.1,0.1-0.1,0.2-0.1,0.5
			c0,0.2,0.2,0.5,0.6,0.8c0.2,0.1,0.3,0.2,0.5,0.2c0.2,0,0.3-0.1,0.3-0.2c0.1-0.1,0.8-0.2,2.1-0.2c1.3,0,2.1-0.1,2.2-0.3
			c0.1-0.1,0.2-0.2,0.3-0.2c0.1,0,0.2-0.1,0.2-0.2c0-0.1-0.1-0.2-0.4-0.2c-0.3,0-0.4-0.1-0.5-0.3c0-0.2-0.2-0.3-0.5-0.4
			c-0.4-0.1-0.5-0.2-0.5-0.4c0-0.1,0-0.2,0.1-0.3c0.2-0.2,0.2-0.3,0.1-0.4c-0.1,0-0.2-0.6-0.2-1.6c0-0.3,0-0.6,0-1
			c0-0.3,0-0.4,0.1-0.5c0-0.1,0.1-0.1,0.2-0.1c0.5,0,1,0.2,1.5,0.5c0.5,0.4,0.8,0.7,0.8,1c0,0.2,0.1,0.3,0.2,0.3s0.2,0.1,0.2,0.4
			c0,0.5,0.3,0.8,0.8,1c0.2,0.1,0.4,0.3,0.5,0.7c0.1,0.4,0.3,0.8,0.7,1.2l0.6,0.7l0.9-0.1c0.1,0,0.3,0,0.6-0.1c0.3,0,0.6,0,0.8-0.1
			c0.2,0,0.4-0.1,0.7-0.1c0.3-0.1,0.4-0.1,0.6-0.2c0.1-0.1,0.2-0.2,0.2-0.3C319.3,794,319.3,793.9,319.2,793.9z M313.5,787.1
			c-0.1,0-0.2,0-0.2,0.1c-0.1,0-0.1,0,0,0.1c0.2,0,0.2,0.1,0.2,0.2c0,0.1-0.1,0.3-0.4,0.4c-0.2,0.2-0.5,0.3-0.7,0.3
			c-0.3,0-0.6,0.1-1.1,0.2c-0.1,0-0.2,0-0.3,0c-0.2,0-0.4-0.1-0.7-0.3c-0.2-0.2-0.3-0.3-0.4-0.3c0-0.1,0-0.1,0.1-0.2
			c0.1-0.1,0.2-0.7,0.2-1.6v-1.2c0-0.3,0.1-0.5,0.2-0.7c0.1-0.2,0.3-0.4,0.4-0.4h0.1l0.4,0.1c0.3,0,0.5,0.1,0.8,0.1
			c0.2,0.1,0.4,0.1,0.4,0.1c0,0.1,0.1,0.1,0.4,0.2c0.3,0.1,0.4,0.2,0.4,0.3c0,0.1,0.1,0.3,0.2,0.4c0.1,0.1,0.2,0.2,0.1,0.3
			c-0.1,0.1-0.1,0.3,0.1,0.6c0.1,0.2,0.2,0.4,0.2,0.8v0.1c0,0.2-0.1,0.4-0.1,0.4C313.9,787,313.8,787.1,313.5,787.1z"/>
		<path d="M312.2,781.6C312.2,781.6,312.3,781.6,312.2,781.6c0.1-0.1,0.2-0.1,0.1-0.1s-0.1,0-0.3,0c-0.2,0-0.3,0.1-0.3,0.2
			C311.9,781.7,312,781.7,312.2,781.6z"/>
		<path d="M338.1,785.3c0.1,0,0.2-0.2,0.2-0.5c0-0.2,0-0.4-0.1-0.4c-0.1,0-0.1-0.1-0.1-0.3c0-0.2,0.1-0.4,0.2-0.6
			c0.1-0.3,0.1-0.5-0.2-0.6c-0.2-0.2-0.5-0.3-0.9-0.3c-0.5,0-0.8,0.1-1.1,0.4c-0.3,0.2-0.4,0.3-0.5,0.2c-0.1-0.1-0.4-0.1-0.8,0
			c-0.5,0.1-1.4,0.2-2.6,0.2c-0.9,0-1.4,0-1.5-0.1c-0.1-0.1-0.2,0-0.4,0.2c-0.1,0.1-0.3,0.2-0.4,0.2c-0.2,0-0.4,0-0.7-0.1
			c-0.7-0.2-1.1-0.2-1.3-0.2c-0.1,0-0.2,0-0.2,0c-0.1,0-0.3,0.1-0.4,0.3c-0.1,0.2-0.2,0.4-0.2,0.5c0,0.1,0,0.1,0.1,0.2
			c0,0,0.1,0.2,0.1,0.5c0,0.1,0,0.2-0.1,0.3c-0.1,0-0.2,0.1-0.3,0.1c-0.3,0-0.5,0.1-0.5,0.3c0,0,0,0.1,0.1,0.2
			c0.1,0.1,0.1,0.3,0.1,0.6c0,0.3-0.1,0.4-0.1,0.5c0,0.5,0.2,0.8,0.6,0.8c0.3,0,0.4-0.1,0.4-0.2c0-0.1,0.1-0.2,0.2-0.2
			c0.1,0,0.1,0,0.2-0.1c0,0,0-0.1,0-0.2c0-0.1-0.1-0.2-0.2-0.2c-0.1-0.1-0.1-0.1-0.1-0.2c0,0,0-0.1,0-0.1s0-0.1,0.1-0.1
			c0,0,0.1,0,0.2-0.1c0.2-0.1,0.2-0.2,0.2-0.3c0,0,0-0.1,0-0.2c0-0.1,0-0.1,0-0.2c0-0.1,0-0.2,0.1-0.2c0.1-0.1,0.1-0.3,0-0.6
			c-0.1-0.3-0.1-0.4,0-0.4c0.1,0,0.1,0.1,0.1,0.2c0,0.1,0.2,0.2,0.5,0.4c0.4,0.1,0.7,0.2,1.1,0.2c0.4,0,0.7,0.1,0.8,0.3
			c0.2,0.2,0.3,0.2,0.5,0.2c0.1,0,0.1,0,0.1,0c0.1,0,0.1,0,0,0.1c-0.3,0.3-0.4,2.2-0.5,5.8c0,0.8-0.1,1.2-0.3,1.4
			c-0.2,0.1-0.3,0.3-0.3,0.4c0,0.1-0.3,0.2-0.8,0.2l-0.7,0.1l-0.1,0.5c0,0,0,0.1,0,0.1c0,0,0,0.1,0,0.1c0,0.2,0.1,0.4,0.4,0.7
			c0.3,0.3,0.5,0.4,0.7,0.4c0.1,0,0.1,0,0.1-0.1c0-0.1,0-0.1-0.1-0.1c-0.1,0-0.1,0-0.1-0.1c0-0.1,0.2-0.1,0.5-0.1c0.1,0,0.4,0,0.8,0
			c0.4,0,0.7,0,0.9,0c0.6,0,0.9-0.1,1.1-0.2c0.1-0.1,0.3-0.2,0.6-0.1c0.2,0.1,0.3,0,0.4-0.1c0.1-0.1,0.2-0.1,0.3-0.1
			c0.1,0,0.3-0.1,0.5-0.2c0.1-0.1,0.2-0.2,0.2-0.3c0-0.1-0.1-0.2-0.2-0.5c-0.2-0.3-0.3-0.4-0.5-0.4c-0.1,0-0.2-0.1-0.2-0.2
			c0-0.1-0.1-0.2-0.3-0.1c0,0-0.1,0-0.1,0c-0.1,0-0.1,0-0.1,0c-0.1,0-0.2,0-0.3-0.1c0-0.1-0.1-0.3-0.1-0.5v-0.4c0-0.5,0-0.8,0-0.9
			c0-0.1,0.1-0.2,0.2-0.2c0.2,0,0.2-0.1,0.2-0.4c0-0.3-0.1-0.5-0.2-0.5s-0.2-0.4-0.2-1.1c0-0.8,0.1-1.2,0.2-1.4
			c0.1-0.1,0.2-0.5,0.2-1.2c0-0.7,0.1-1,0.1-1.1c0.1-0.2,0.5-0.2,1.2-0.2c1,0,1.5,0.1,1.6,0.4c0,0.1,0.1,0.2,0.4,0.5
			c0.2,0.2,0.3,0.4,0.3,0.8c0,0.3,0.1,0.5,0.1,0.5c0,0.1,0.2,0.1,0.4,0.1c0.2,0,0.4,0,0.4-0.1c0-0.1,0.1-0.2,0.3-0.2
			c0.2-0.1,0.3-0.2,0.3-0.4c0-0.2-0.1-0.4-0.2-0.5C338,785.4,337.9,785.3,338.1,785.3z"/>
		<path d="M357,781.9h-0.2c-0.4,0-0.8-0.1-1.1-0.3c-0.3-0.2-0.4-0.2-0.4,0c0,0.1-0.1,0.2-0.2,0.2c-0.1,0-0.4,0-0.8,0.1
			c-0.7,0-1,0-1.1,0.1c-0.1,0.1-0.1,0.3-0.1,0.7l0,0.6c0.2,0,0.5,0,0.8,0.1c0.4,0,0.7,0.1,0.8,0.1v2.4c0,1.6,0.1,2.4,0.2,2.5
			c0,0,0.1,0,0.1,0.1c0,0,0,0.1,0,0.1c0,0-0.1,0.1-0.1,0.1c-0.1,0.2-0.2,0.4-0.2,0.5v0.2c0,0.3,0,0.6-0.1,0.9
			c-0.1,0.3-0.2,0.5-0.3,0.6c-0.1,0.1-0.2,0.1-0.2,0.3c0,0.1-0.1,0.3-0.3,0.5c-0.2,0.2-0.4,0.2-0.6,0.2c-0.3,0-0.4,0.1-0.6,0.2
			c-0.1,0.1-0.2,0.2-0.5,0.2c0,0-0.2,0-0.5-0.1c-0.5-0.1-0.7-0.2-0.8-0.2c0-0.1-0.2-0.1-0.4-0.1c-0.2,0-0.5-0.1-0.8-0.2
			c-0.2-0.1-0.3-0.2-0.4-0.2c0-0.1-0.1-0.2-0.1-0.5v-0.4v-0.2c0-0.4-0.1-0.7-0.2-0.8c-0.1,0-0.2-0.1-0.2-0.3c0-0.2,0.1-0.3,0.2-0.4
			c0.1-0.1,0.1-0.1,0-0.2c-0.1,0-0.1-0.1-0.2-0.2c0-0.1,0-0.2,0-0.3c0-0.1,0.1-0.1,0.1-0.1c0.1,0,0.1-0.3,0.1-0.9
			c0-1-0.1-1.5-0.2-1.6c-0.1-0.1-0.1-0.2,0-0.3c0.1-0.1,0.2-0.4,0.2-0.9c0-0.1,0-0.2-0.1-0.3c0-0.1-0.1-0.2-0.1-0.3l0-0.1
			c0,0,0.1,0,0.3-0.1c0.2,0,0.4,0,0.6-0.1c0.2,0,0.5,0,0.6,0c0.1,0,0.1,0,0.2,0c0.1,0,0.1,0,0.1,0h0c0.1,0,0.1-0.1,0.1-0.2
			c0-0.1,0-0.4-0.1-0.6c0-0.2-0.1-0.4-0.3-0.5c-0.2-0.1-0.5-0.1-1-0.1c-0.2,0-0.7,0-1.6,0.1c-1.4,0.1-2.2,0.2-2.4,0.4
			c-0.2,0.2-0.3,0.4-0.3,0.6c0,0.4,0.4,0.6,1.1,0.7c0.5,0.1,0.8,0.2,0.8,0.4c0,0.1-0.1,0.2-0.2,0.3c-0.1,0.1-0.2,0.2-0.2,0.3
			c0,0.1,0,0.2,0.1,0.5c0.1,0.4,0.1,0.6,0,0.7c-0.1,0.1-0.2,0.1-0.3,0.1c-0.1,0-0.1,0.1-0.1,0.1c0,0.2,0.1,0.4,0.4,0.5
			c0.3,0.1,0.4,0.2,0.4,0.4c0,0.1-0.1,0.2-0.2,0.3c-0.2,0.1-0.2,0.4-0.2,1v0.4c0,0.8,0.1,1.3,0.2,1.4c0.1,0.1,0.1,0.3,0.1,0.5
			c0,0.2,0,0.3-0.1,0.3c-0.1,0-0.1,0.1-0.2,0.4c-0.1,0.3,0,0.4,0.2,0.5c0.2,0.1,0.3,0.3,0.5,0.7c0.1,0.3,0.2,0.5,0.3,0.5
			c0.1,0,0.1,0.1,0.2,0.4c0.1,0.3,0.2,0.4,0.4,0.4c0.2,0,0.4,0.1,0.5,0.2c0.1,0.1,1,0.2,2.7,0.2c1.4,0,2-0.1,2-0.2
			c0-0.1,0-0.2,0.1-0.2c0.1,0,0.2-0.1,0.3-0.2c0.1-0.2,0.2-0.2,0.4-0.2c0.2,0,0.3-0.1,0.3-0.3c0-0.2,0.2-0.3,0.5-0.3h0.2h0.1
			c0.3,0,0.5,0,0.5-0.1c0,0-0.1-0.1-0.2-0.2c-0.1-0.1-0.2-0.1-0.2-0.3c0-0.1,0.1-0.3,0.2-0.5c0.1-0.2,0.2-0.4,0.2-0.5
			c0,0,0-0.1-0.1-0.1c-0.1,0-0.2-0.1-0.2-0.3c0-0.1,0.1-0.2,0.2-0.3c0.1,0,0.2-0.2,0.2-0.4c0-0.3,0.1-0.6,0.1-1c0-0.4,0-0.6,0-0.7
			c0.1-0.4,0.1-1.1,0.1-2.2c0-1,0.1-1.5,0.2-1.6c0.1-0.1,0.2-0.2,0-0.2c-0.1-0.1-0.2-0.1-0.2-0.2c0-0.1,0.1-0.3,0.3-0.4
			c0.2-0.1,0.4-0.2,0.6-0.2c0.1,0,0.2,0,0.2,0c0,0,0.1,0,0.2,0c0.3,0,0.4-0.1,0.4-0.4c0-0.1,0-0.1-0.1-0.2c-0.1-0.1-0.1-0.2,0-0.2
			c0.1,0,0.2-0.1,0.2-0.2C358.2,782,357.8,781.9,357,781.9z"/>
		<path d="M378.2,782c-0.1,0-0.2,0-0.3,0.1c-0.2,0.1-0.3,0.1-0.3,0.1c-0.1,0-0.1-0.1-0.2-0.2c-0.1-0.2-0.3-0.3-0.4-0.3
			c-0.1,0-0.2-0.1-0.2-0.3c0-0.2-0.1-0.3-0.3-0.3c-0.2,0-0.3,0.1-0.3,0.3c0,0.2,0.1,0.3,0.2,0.3s0.2,0.1,0.2,0.3
			c0,0.2-0.1,0.3-0.2,0.3c-0.2,0-0.3-0.1-0.3-0.4c-0.1-0.2-0.2-0.4-0.3-0.4c-0.1,0-0.1,0-0.2,0.1c-0.2,0.2-0.2,0.3,0,0.3
			c0.1,0,0.2,0.1,0.2,0.1c0,0.1-0.1,0.2-0.4,0.2c-0.2,0-0.4,0-0.4-0.1c0-0.1-0.1-0.1-0.4-0.1c-0.4,0-0.8,0.1-1.1,0.2
			c-0.4,0.2-0.6,0.4-0.6,0.7c0,0.3,0.3,0.5,0.8,0.6c0.4,0.1,0.6,0.1,0.6,0.2c0,0.1,0.1,0.1,0.3,0.1c0.3,0,0.5,0.2,0.6,0.6
			c0.1,0.4,0.2,1.2,0.2,2.4c0,1.4,0.1,2.2,0.1,2.4c0.1,0.1,0,0.3,0,0.6l-0.1,0.4l-0.5-0.5c-0.4-0.3-0.5-0.5-0.5-0.6
			c0-0.1-0.1-0.2-0.2-0.3c-0.1-0.1-0.3-0.2-0.4-0.4c-0.2-0.1-0.3-0.2-0.3-0.2c-0.1-0.1-0.3-0.2-0.3-0.2c-0.1,0-0.2-0.1-0.2-0.2
			c0-0.1-0.1-0.2-0.2-0.3c-0.1-0.1-0.3-0.2-0.4-0.2s-0.1-0.1-0.1-0.2c0-0.1-0.1-0.2-0.2-0.2c-0.1,0-0.1,0-0.1-0.1
			c0-0.1-0.1-0.2-0.4-0.5c-0.2-0.3-0.4-0.4-0.4-0.5c0-0.1-0.1-0.2-0.3-0.2c-0.2,0-0.3-0.1-0.5-0.2c-0.2-0.1-0.2-0.3-0.2-0.4
			c0-0.1-0.2-0.3-0.5-0.7c-0.3-0.4-0.5-0.6-0.5-0.7c0-0.1-0.1-0.2-0.3-0.4c-0.2-0.2-0.3-0.4-0.3-0.4c0-0.3-0.6-0.5-1.8-0.6
			c-0.6,0-0.9-0.1-0.9-0.1c-0.3,0-0.4,0.1-0.4,0.2c0,0.1,0,0.2,0,0.4c0,0.2,0,0.4,0.1,0.6c0.1,0.2,0.1,0.3,0.2,0.3
			c0.1,0,0.2,0.2,0.3,0.6c0.1,0.4,0.2,0.6,0.2,0.6c0.1,0,0.1,0.3,0.1,0.8c0,0.5,0,0.8-0.1,0.8c-0.1,0-0.1,0.1-0.1,0.4
			c0,0.2,0.1,0.6,0.2,1c0.1,0.2,0.1,0.6,0.1,1.1c0,0.7-0.1,1.1-0.2,1.1c-0.1,0-0.1,0.2-0.1,0.7c0,0.5,0,1.1-0.1,1.5
			c0,0.4-0.1,0.6-0.1,0.7c-0.1,0.1-0.2,0.2-0.4,0.2c-0.3,0.1-0.4,0.2-0.4,0.4c0,0.2,0.1,0.4,0.4,0.6c0.2,0.2,0.3,0.3,0.5,0.3
			c0.2,0,0.8,0,1.7,0c1,0,1.6,0,1.8-0.1c0.2-0.1,0.3-0.3,0.3-0.8c0-0.3-0.1-0.4-0.3-0.5c-0.2-0.1-0.3-0.1-0.3-0.2
			c0-0.1-0.2-0.1-0.6-0.1c-0.4,0-0.7-0.1-0.9-0.3c-0.2-0.2-0.2-0.3-0.1-0.4c0.1-0.1,0.2-0.2,0.2-0.6c0-0.3,0-0.5-0.1-0.5
			c-0.1-0.1-0.1-0.9-0.1-2.6c0-1.7,0.1-2.5,0.2-2.5c0.1,0,0.3,0.1,0.4,0.2c0.1,0.1,0.3,0.2,0.5,0.3c0.3,0.1,0.4,0.3,0.5,0.4
			c0,0.2,0.3,0.5,0.8,1.1c0.5,0.5,0.9,0.9,1.3,1.1c0.2,0.1,0.3,0.2,0.3,0.3c0,0.1,0.2,0.2,0.5,0.6c0.7,0.7,1.1,1.1,1.1,1.4
			c0,0.1,0.1,0.1,0.3,0.1c0.2,0,0.3,0,0.3,0.1c0,0.1,0.1,0.3,0.4,0.5c0.2,0.2,0.4,0.4,0.4,0.6c0,0.1,0.1,0.3,0.3,0.5
			c0.2,0.2,0.3,0.3,0.4,0.3c0.1,0,0.3,0.2,0.6,0.5c0.3,0.3,0.5,0.5,0.7,0.6c0.1,0.1,0.2,0.1,0.3,0.1c0.4,0,0.6-0.2,0.6-0.6
			c0-0.1,0-0.2,0-0.4c0-0.9-0.1-1.4-0.2-1.6c-0.1-0.1-0.1-0.5-0.1-1.3v-0.4c0-1,0-1.6-0.1-1.6c-0.1-0.1-0.2-0.4-0.2-1
			c0-0.5,0-0.8,0.1-0.8c0.1-0.1,0.2-0.2,0.2-0.5s0-0.4,0.1-0.4c0.1,0,0.1-0.1,0.1-0.4c0-0.3,0-0.4-0.1-0.4c-0.1,0-0.1-0.1-0.1-0.4
			c0-0.4,0.1-0.7,0.2-1c0.2-0.3,0.4-0.5,0.7-0.5c0.2,0,0.4-0.1,0.4-0.1c0.1,0,0.1-0.2,0.1-0.5v-0.2C378.5,782.3,378.4,782,378.2,782
			z"/>
		<path d="M385.6,792.1c0,0,0.1,0,0.1-0.1c0.1-0.2,0.1-0.3,0-0.3c-0.1,0-0.2,0.1-0.2,0.2C385.4,792,385.5,792.1,385.6,792.1z"/>
		<path d="M395.7,790.2c-0.1,0-0.3,0.2-0.5,0.5c-0.3,0.3-0.4,0.6-0.4,0.7c0,0.1-0.1,0.2-0.4,0.2c-0.1,0-0.2,0-0.3,0.1
			c0,0-0.1,0.1-0.1,0.1c0,0,0,0.1,0,0.3c0,0.2-0.1,0.3-0.4,0.3c0,0-0.1,0-0.1,0c-0.1,0-0.1,0-0.2,0c-0.2,0-0.4,0.1-0.6,0.3
			c-0.2,0.2-0.4,0.3-0.6,0.3c-0.1,0-0.2-0.1-0.2-0.2c0-0.1-0.1-0.1-0.4,0c-0.2,0.1-0.6,0.2-1.2,0.2c-0.5,0-0.7,0-0.7-0.1
			c0-0.1-0.1-0.1-0.2-0.1c-0.1,0-0.1-0.1-0.2-0.2s-0.1-0.3-0.1-0.4c0-0.1,0-0.2,0-0.3c0-0.2,0-0.4,0-0.6c0-0.3,0-0.5,0-0.8
			c0-0.3,0-0.5,0-0.8c0-0.3,0-0.5,0-0.6v-0.2c0-0.1,0.4-0.1,1.3-0.1c0.7,0,1.2,0.1,1.4,0.2c0.2,0.1,0.4,0.4,0.4,0.8
			c0,0.2,0,0.3,0.1,0.3c0,0,0.1,0,0.2,0c0.1-0.1,0.3-0.1,0.5-0.1c0.1,0,0.2,0,0.3-0.1c0-0.1,0.1-0.2,0.1-0.5c0-0.1,0-0.2,0-0.3
			s0-0.3,0-0.4v-0.2c0-0.3,0-0.6,0.1-0.7c0.1-0.1,0.1-0.3,0-0.4c-0.1-0.1-0.1-0.3,0.1-0.4c0.1-0.1,0.2-0.2,0.2-0.4
			c0-0.3-0.3-0.4-1-0.4c-0.4,0-0.6,0.2-0.6,0.5c0,0.1,0,0.2,0.1,0.3c0,0.2,0,0.4,0,0.5c-0.1,0.1-0.3,0.2-0.9,0.3
			c-0.5,0.1-1,0.1-1.5,0.1h-0.6v-0.6c0-0.4,0.1-0.6,0.2-0.6c0.1,0,0.2-0.1,0.2-0.4c0-0.3-0.1-0.5-0.2-0.9c-0.1-0.2-0.2-0.4-0.1-0.4
			c0-0.1,0.1-0.1,0.2-0.3c0.2-0.1,0.3-0.3,0.2-0.5c0,0,0-0.1,0-0.2c0-0.1,0.1-0.3,0.4-0.3c0.3-0.1,0.7-0.1,1.5-0.2
			c0.7,0,1.1-0.1,1.1-0.1c0.3,0,0.5,0.1,0.6,0.2c0.1,0.2,0.3,0.3,0.5,0.4c0.2,0.1,0.3,0.2,0.3,0.3c0,0.1,0.1,0.2,0.3,0.3
			c0.2,0.1,0.3,0.2,0.3,0.3c0,0.2,0.1,0.3,0.3,0.5c0.2,0.2,0.4,0.2,0.6,0.2h0c0.3,0,0.4-0.2,0.4-0.6c0-0.2-0.1-0.3-0.2-0.5
			c-0.1-0.1-0.2-0.3-0.2-0.5c0-0.3-0.1-0.5-0.2-0.5c-0.1,0-0.1-0.1,0-0.4c0.1-0.1,0.1-0.2,0.1-0.3c0,0-0.1-0.1-0.1-0.1
			c-0.1-0.1-0.2-0.2-0.2-0.3s-0.1-0.3-0.3-0.5c-0.2-0.2-0.4-0.3-0.6-0.1c-0.3,0.1-1.8,0.3-4.7,0.4h-0.7c-1.5,0-2.2-0.1-2.3-0.3
			c0-0.1-0.1-0.1-0.2-0.1c-0.1,0-0.2,0-0.2,0.1l0,0.1c0,0.1,0,0.1,0,0.1c0,0,0,0.1,0,0.2c0,0.1,0,0.2,0,0.2c0,0.2-0.1,0.3-0.3,0.3
			c-0.2,0.1-0.3,0.2-0.2,0.5c0.1,0.2,0.1,0.4,0.2,0.5c0.1,0.1,0.2,0.1,0.3,0.1c0.1,0,0.3,0,0.4,0c0.1,0,0.2,0,0.4,0
			c0.3,0,0.5,0.1,0.6,0.4c0.1,0.2,0.1,0.7,0.1,1.4c0,0.9-0.1,1.4-0.2,1.4c-0.1,0-0.1,0.2,0,0.4c0.1,0.2,0.1,0.4,0,0.6
			c-0.1,0.2-0.2,0.3-0.3,0.3c-0.1,0-0.1,0.1,0.1,0.2c0.1,0.1,0.1,0.3,0.1,0.6c0,0.5-0.1,1.5-0.2,2.8l-0.1,0.9h-0.6
			c-0.4,0-0.6,0.1-0.6,0.3c0,0.2-0.1,0.3-0.3,0.3c-0.1,0-0.2,0.1-0.2,0.3c0,0.3,0.1,0.5,0.3,0.6c0.2,0.1,0.3,0.2,0.3,0.4
			c0,0.1,0.2,0.1,0.7,0.1c0.5,0,0.8-0.1,0.9-0.3c0.1-0.1,0.5-0.2,1.2-0.2c0.5,0,0.9,0,1.3,0c0.7,0,1.1,0.1,1.2,0.2
			c0,0.1,0.2,0.1,0.4,0c0.2-0.1,0.7-0.2,1.5-0.2c0.8,0,1.3,0,1.5-0.1c0.2,0,0.3-0.1,0.5-0.3c0.2-0.2,0.3-0.3,0.2-0.5
			c0-0.2,0-0.3,0.1-0.4c0.1-0.1,0.2-0.3,0.2-0.8c0-0.3,0-0.5,0-0.6c0-0.1,0.1-0.1,0.2-0.1c0.2,0,0.3-0.2,0.3-0.5
			c0-0.2-0.1-0.4-0.2-0.6C396,790.3,395.9,790.2,395.7,790.2z"/>
	</g>
	<g>
		<g>
			<g>
				<path d="M307.2,363.7c-4.2-2-8.7-3.3-13.3-4.3l49-11.3l-54.1-1.6c3.4-3.8,6.9-7.4,10.5-10c9.5-8.3,20.5-9.5,29.4-23.7
					c-10.4,12.5-23,11.6-34.6,15.5c-4.3,1-8.5,2.7-12.6,4.7l28.7-46l-39,36.7c0.2-6,0.5-11.9,1.9-17c2.1-12.4,9.7-20.4,7.6-37
					c-0.1,16.3-10.3,23.6-16.8,34c-3.3,4.4-5.8,9.4-8,14.6L244,266.8l-1.6,53.6c-4.1-4.2-8.1-8.4-10.7-12.7
					c-7.6-10.1-8-21.1-21.5-31c11.7,11.3,9.9,23.7,13,35.6c0.9,5.2,2.6,10.3,4.8,15.4l-45-28.1l35.3,37.5c-6.4,1.2-12.8,2.3-18.5,2
					c-12.6,0.5-21.9-5.3-37.8,0.2c15.9-3.3,25.2,5.2,36.7,9.4c5.2,2.4,10.9,3.9,16.8,5l-52.6,12.1l54.7,1.7
					c-3.5,3.9-7,7.6-10.7,10.2c-9.5,8.3-20.5,9.5-29.4,23.7c10.4-12.5,23-11.6,34.6-15.5c4-1,8-2.5,11.9-4.3l-28.4,45.4l39-36.6
					c-0.2,4.8-0.6,9.5-1.7,13.6c-2.1,12.4-9.7,20.4-7.6,37c0.1-16.3,10.3-23.6,16.8-34c3-4,5.4-8.6,7.5-13.4l12.4,53.5l1.7-54.9
					c3.5,3.6,6.6,7.2,8.9,10.9c7.6,10.1,8,21.1,21.5,31c-11.7-11.3-9.9-23.7-13-35.6c-0.7-4.3-2-8.5-3.7-12.6l45.7,28.5l-36.5-38.8
					c6.9-1.3,13.8-2.6,19.9-2.2c12.6-0.5,21.9,5.3,37.8-0.2C328,376.4,318.7,367.9,307.2,363.7z"/>
			</g>
			<g>
				<path d="M106.4,319.9c-18.9,0-34.3,15.4-34.3,34.3s15.4,34.3,34.3,34.3c1.4,0,2.8-0.1,4.2-0.3c0.1,0,0.2,0,0.3,0
					c0.1,0,0.1,0,0.2,0c0.2,0,0.5-0.1,0.7-0.2c1.1-0.2,2.2-0.4,3.2-0.7c-8.9-8.3-14.4-20.1-14.4-33.2c0-11.4,4.2-21.8,11.1-29.7
					c0.2,0.1,0.4,0.2,0.7,0.3l0.1,0c0.1,0,0.2,0,0.3,0c0.9,0,1.7-0.7,1.8-1.6c0.1-0.5-0.1-1-0.4-1.4c0.3-0.3,0.5-0.5,0.8-0.8
					C112.3,320.2,109.4,319.9,106.4,319.9z"/>
			</g>
			<g>
				<circle cx="253.9" cy="212.2" r="32.9"/>
			</g>
			<g>
				<path d="M170.6,287.3C170.6,287.3,170.6,287.3,170.6,287.3c2.3-0.8,4.4-1.9,6.5-3.1c0.3,0,0.7-0.1,1-0.3
					c0.3-0.2,0.6-0.5,0.7-0.9c0,0,0,0,0.1-0.1c0,0,0,0,0-0.1c0.2-0.5,0.2-1.1-0.2-1.7c-0.4-0.6-1-0.9-1.7-0.9
					c-4.8-7.2-7.7-15.8-7.7-25.2c0-9.1,2.7-17.6,7.3-24.6c0.2,0.1,0.4,0.1,0.6,0.1c0.6,0,1.2-0.3,1.6-0.8c0.5-0.7,0.4-1.6-0.1-2.3
					c0,0,0.1-0.1,0.1-0.1c-5.6-4-12.4-6.3-19.7-6.3c-18.8,0-34.1,15.2-34.1,34.1c0,18.8,15.2,34.1,34.1,34.1
					C163.2,289.2,167,288.5,170.6,287.3C170.6,287.3,170.6,287.3,170.6,287.3z"/>
			</g>
			<g>
				<path d="M155.8,422.7l-0.2,0c-0.2,0-0.4,0.1-0.6,0.2c0.5-0.5,1-0.9,1.5-1.4c-17.3,1.9-30.8,16.3-31.3,34c0,0,0,0,0,0
					c0,0,0,0,0,0c0,0.3,0,0.6,0,0.9c0,18.1,13.7,33.1,31.3,35c-0.6-0.5-1.2-1.1-1.8-1.6c0.7-0.2,1.3-0.7,1.4-1.5
					c0.2-1-0.5-2-1.5-2.2c0,0-0.1,0-0.1,0c-0.9-0.1-1.8,0.4-2,1.3c-7.3-8.2-11.7-19-11.7-30.9c0-12.8,5.2-24.4,13.5-32.8
					c-0.2,0.3-0.2,0.7-0.2,1.1c0.1,1,0.9,1.7,1.9,1.7c0.1,0,0.1,0,0.2,0l-0.1-1.9l0.2,1.9c1-0.1,1.8-1,1.7-2.1
					C157.8,423.4,156.8,422.6,155.8,422.7z"/>
			</g>
			<g>
				<path d="M163.8,422.8c-1-0.1-2,0.6-2.1,1.7c-0.1,1,0.6,2,1.7,2.1c0,0,0.1,0,0.1,0c0.1,0,0.2,0,0.2,0c0.9,0,1.7-0.7,1.8-1.7
					C165.6,423.9,164.8,422.9,163.8,422.8z"/>
			</g>
			<g>
				<path d="M161.8,486.4L161.8,486.4c-1.1,0.1-1.9,1-1.8,2.1c0.1,1,1,1.7,1.9,1.7c0.1,0,0.1,0,0.2,0c1-0.1,1.8-1,1.7-2.1
					C163.8,487.1,162.8,486.3,161.8,486.4z"/>
			</g>
			<g>
				<path d="M185.1,433.7c-0.7-0.8-1.9-0.9-2.7-0.2c-0.8,0.7-0.9,1.9-0.2,2.7l0.1,0.1c0.4,0.4,0.9,0.7,1.4,0.7
					c0.4,0,0.9-0.2,1.3-0.5C185.7,435.7,185.8,434.5,185.1,433.7z"/>
			</g>
			<g>
				<path d="M189.5,440.6c-0.5-0.9-1.6-1.3-2.5-0.9c-0.9,0.5-1.3,1.6-0.9,2.5l0,0.1c0.3,0.7,1,1.1,1.7,1.1c0.3,0,0.5-0.1,0.8-0.2
					c1-0.4,1.4-1.6,0.9-2.5L189.5,440.6z"/>
			</g>
			<g>
				<path d="M187.8,470.6c-0.9-0.5-2.1-0.2-2.6,0.7l-0.1,0.1c-0.5,0.9-0.2,2,0.7,2.6c0.3,0.2,0.6,0.2,0.9,0.2c0.7,0,1.3-0.4,1.7-1
					C189.1,472.3,188.7,471.1,187.8,470.6z"/>
			</g>
			<g>
				<path d="M180.9,477.1C180.9,477.1,180.9,477.2,180.9,477.1c-0.8,0.9-0.7,2,0,2.7c0.4,0.3,0.8,0.5,1.3,0.5c0.5,0,1-0.2,1.4-0.6
					c0.7-0.8,0.7-2,0-2.7C182.9,476.3,181.7,476.3,180.9,477.1z"/>
			</g>
			<g>
				<path d="M188.4,449.1c0,0,0,0.1,0,0.1c0.2,0.9,1,1.5,1.8,1.5c0.1,0,0.3,0,0.4,0c1-0.2,1.7-1.3,1.5-2.3c-0.2-1-1.2-1.7-2.2-1.5
					C188.8,447,188.2,448,188.4,449.1z"/>
			</g>
			<g>
				<path d="M175.3,481.7l1,1.6L175.3,481.7c-0.9,0.6-1.2,1.7-0.6,2.6c0.4,0.6,1,0.9,1.6,0.9c0.3,0,0.7-0.1,1-0.3l0.1-0.1
					c0.9-0.6,1.1-1.7,0.5-2.6C177.4,481.4,176.2,481.2,175.3,481.7z"/>
			</g>
			<g>
				<path d="M168.9,484.9L168.9,484.9c-1.1,0.4-1.6,1.4-1.3,2.4c0.3,0.8,1,1.3,1.8,1.3c0.2,0,0.4,0,0.6-0.1l0.1,0
					c1-0.3,1.5-1.4,1.2-2.4C170.9,485.1,169.9,484.5,168.9,484.9z"/>
			</g>
			<g>
				<path d="M171.7,424.6c-1-0.4-2.1,0.1-2.4,1.1c-0.4,1,0.1,2.1,1.1,2.4c0,0,0.1,0,0.1,0c0.2,0.1,0.4,0.1,0.6,0.1
					c0.8,0,1.5-0.5,1.8-1.3C173.2,426,172.7,424.9,171.7,424.6z"/>
			</g>
			<g>
				<path d="M176.4,428.7c-0.6,0.9-0.4,2,0.5,2.7l0.1,0.1c0.3,0.2,0.7,0.3,1,0.3c0.6,0,1.2-0.3,1.6-0.8c0.6-0.9,0.3-2.1-0.5-2.7
					C178.1,427.6,177,427.9,176.4,428.7z"/>
			</g>
			<g>
				<path d="M190.4,463.3c-1-0.3-2.1,0.3-2.3,1.3l1.8,0.6l-1.8-0.5c-0.3,1,0.3,2.1,1.3,2.4c0.2,0.1,0.4,0.1,0.5,0.1
					c0.8,0,1.6-0.5,1.8-1.4c0,0,0-0.1,0-0.1C192,464.7,191.4,463.6,190.4,463.3z"/>
			</g>
			<g>
				<path d="M191.1,454.4c-1.1,0-1.9,0.9-1.9,1.9v0.1c0,0.4,0.1,0.8,0.4,1.1l-0.4,0l0.4,0c0,0,0,0,0,0l-0.4,0c0,1.1,0.8,1.9,1.8,1.9
					c0,0,0.1,0,0.1,0c1,0,1.9-0.8,1.9-1.9l-0.5,0c0.3-0.3,0.5-0.8,0.5-1.3C193,455.3,192.1,454.4,191.1,454.4z"/>
			</g>
			<g>
				<path d="M240.9,470.7c-1,0.4-1.5,1.5-1.1,2.4c0.3,0.8,1,1.2,1.8,1.2c0.2,0,0.4,0,0.7-0.1l0.1,0c1-0.4,1.4-1.5,1.1-2.4
					C243,470.8,241.8,470.4,240.9,470.7z"/>
			</g>
			<g>
				<path d="M241.8,530.5l-0.8,1.7L241.8,530.5c-1-0.4-2.1,0-2.5,1s0.1,2.1,1,2.5c0,0,0.1,0,0.1,0.1c0.2,0.1,0.5,0.1,0.7,0.1
					c0.8,0,1.5-0.5,1.8-1.2C243.2,531.9,242.7,530.8,241.8,530.5z"/>
			</g>
			<g>
				<path d="M233.7,474.4l-0.1,0.1c-0.9,0.6-1.1,1.8-0.5,2.7c0.4,0.5,1,0.8,1.6,0.8c0.4,0,0.8-0.1,1.1-0.3l0.1,0
					c0.9-0.6,1.1-1.8,0.5-2.6C235.8,474.1,234.6,473.8,233.7,474.4z"/>
			</g>
			<g>
				<path d="M222.7,502.2l-1.9-0.1L222.7,502.2c0-1.1-0.8-2-1.9-2c-1,0-1.9,0.8-1.9,1.9c0,0,0,0.1,0,0.1c0,1.1,0.9,1.9,1.9,1.9
					C221.8,504.1,222.7,503.3,222.7,502.2z"/>
			</g>
			<g>
				<path d="M234.2,528.5l1.1-1.5c-0.9-0.6-2-0.4-2.7,0.4c-0.6,0.9-0.4,2,0.4,2.7c0,0,0.1,0.1,0.1,0.1c0.3,0.2,0.7,0.3,1.1,0.3
					c0.6,0,1.2-0.3,1.6-0.8c0.6-0.9,0.4-2-0.5-2.6L234.2,528.5z"/>
			</g>
			<g>
				<path d="M248.9,468.8L248.9,468.8c-1.1,0.1-1.9,1.1-1.8,2.1c0.1,1,0.9,1.7,1.9,1.7c0.1,0,0.1,0,0.2,0l0.1,0
					c1-0.1,1.8-1.1,1.7-2.1C250.9,469.4,249.9,468.7,248.9,468.8z"/>
			</g>
			<g>
				<path d="M248.7,532.3l-0.3,1.9L248.7,532.3c-1.1-0.2-2.1,0.6-2.2,1.6c-0.2,1,0.6,2,1.6,2.2l0.1,0c0.1,0,0.2,0,0.2,0
					c0.9,0,1.8-0.7,1.9-1.7C250.5,533.4,249.8,532.4,248.7,532.3z"/>
			</g>
			<g>
				<path d="M223.5,509.5l0-0.1c-0.2-1-1.3-1.6-2.3-1.4c-1,0.2-1.6,1.3-1.4,2.3c0.2,0.9,1,1.5,1.9,1.5c0.1,0,0.3,0,0.4,0
					C223.1,511.5,223.7,510.5,223.5,509.5z"/>
			</g>
			<g>
				<path d="M225.9,516.1c-0.5-0.9-1.6-1.3-2.5-0.8c-0.9,0.5-1.3,1.7-0.8,2.6c0.3,0.7,1,1.1,1.7,1.1c0.3,0,0.6-0.1,0.8-0.2
					c0.9-0.5,1.3-1.6,0.9-2.6C226,516.2,226,516.1,225.9,516.1z"/>
			</g>
			<g>
				<path d="M227.6,479.8c0,0-0.1,0.1-0.1,0.1c-0.7,0.8-0.6,2,0.2,2.7c0.4,0.3,0.8,0.5,1.2,0.5c0.5,0,1.1-0.2,1.4-0.6l-1.4-1.3
					l1.4,1.3c0.7-0.8,0.7-2-0.1-2.7C229.5,479,228.3,479,227.6,479.8z"/>
			</g>
			<g>
				<path d="M221.7,496.5c0.8,0,1.6-0.6,1.8-1.4l0-0.1c0.3-1-0.4-2-1.4-2.3c-1-0.3-2.1,0.4-2.3,1.4c-0.3,1,0.4,2.1,1.4,2.3
					C221.4,496.5,221.6,496.5,221.7,496.5z"/>
			</g>
			<g>
				<path d="M225.4,485.7c-0.9-0.5-2.1-0.1-2.6,0.8c-0.5,0.9-0.2,2.1,0.8,2.6c0.3,0.2,0.6,0.2,0.9,0.2c0.7,0,1.3-0.4,1.7-1
					c0,0,0.1-0.1,0.1-0.1C226.7,487.3,226.4,486.2,225.4,485.7z"/>
			</g>
			<g>
				<path d="M228.6,523.4l1.4-1.2c-0.7-0.8-1.9-0.9-2.7-0.2c-0.8,0.7-0.9,1.9-0.2,2.7c0,0,0.1,0.1,0.1,0.1c0.4,0.4,0.9,0.6,1.4,0.6
					c0.4,0,0.9-0.2,1.3-0.5c0.8-0.7,0.9-1.9,0.2-2.7L228.6,523.4z"/>
			</g>
			<g>
				<path d="M269.4,475c-0.6,0.9-0.4,2,0.4,2.7c0,0,0.1,0.1,0.1,0.1c0.3,0.2,0.7,0.3,1,0.3c0.6,0,1.2-0.3,1.6-0.8
					c0.6-0.9,0.4-2.1-0.5-2.7C271.2,474,270,474.2,269.4,475z"/>
			</g>
			<g>
				<path d="M280.2,485.9c-0.9,0.5-1.3,1.6-0.8,2.6l0.1,0.1c0.3,0.6,1,1,1.6,1c0.3,0,0.6-0.1,0.9-0.2c0.9-0.5,1.3-1.7,0.8-2.6
					C282.3,485.7,281.1,485.4,280.2,485.9z"/>
			</g>
			<g>
				<path d="M281.8,516.1c-0.9-0.5-2.1-0.2-2.6,0.7c0,0-0.1,0.1-0.1,0.1c-0.5,0.9-0.1,2,0.8,2.5c0.3,0.2,0.6,0.2,0.9,0.2
					c0.7,0,1.3-0.4,1.7-1C283,517.8,282.7,516.7,281.8,516.1z"/>
			</g>
			<g>
				<path d="M282,495.2L282,495.2c0.2,1,1,1.5,1.8,1.5c0.2,0,0.3,0,0.5-0.1c1-0.2,1.6-1.3,1.4-2.3c-0.2-1-1.3-1.7-2.3-1.4
					C282.3,493.1,281.7,494.2,282,495.2z"/>
			</g>
			<g>
				<path d="M284.1,508.8c-1-0.3-2.1,0.4-2.3,1.4l1.8,0.5l-1.8-0.5c-0.3,1,0.3,2.1,1.3,2.3c0.2,0,0.3,0.1,0.5,0.1
					c0.8,0,1.6-0.6,1.8-1.4c0,0,0-0.1,0-0.1C285.8,510.1,285.2,509.1,284.1,508.8z"/>
			</g>
			<g>
				<path d="M275.4,479.8c-0.8,0.7-0.9,1.9-0.2,2.7l0.1,0.1c0.4,0.4,0.9,0.6,1.4,0.6c0.5,0,0.9-0.2,1.3-0.5c0.8-0.7,0.8-1.9,0.1-2.7
					C277.4,479.2,276.2,479.1,275.4,479.8z"/>
			</g>
			<g>
				<path d="M256,532.4l-0.1,0c-1,0.1-1.8,1.1-1.6,2.1c0.1,1,1,1.7,1.9,1.7c0.1,0,0.2,0,0.2,0c1-0.1,1.8-1,1.7-2.1
					S257.1,532.3,256,532.4z"/>
			</g>
			<g>
				<path d="M284.8,500.5c-1.1,0-1.9,0.9-1.9,1.9v0.1c0,0.1,0,0.2,0,0.3c0,0.1,0,0.2,0,0.3l0.1,0c0,0,0,0,0,0l-0.1,0
					c0,1.1,0.8,1.9,1.8,2c0,0,0,0,0.1,0c1,0,1.9-0.8,1.9-1.8c0,0,0-0.1,0-0.2c0-0.1,0-0.2,0-0.3c0-0.1,0-0.2,0-0.3
					C286.7,501.3,285.8,500.5,284.8,500.5z"/>
			</g>
			<g>
				<path d="M263.1,530.7l-0.2,0.1c-1,0.4-1.5,1.5-1.1,2.4c0.3,0.8,1,1.2,1.8,1.2c0.2,0,0.5,0,0.7-0.1c1-0.3,1.5-1.4,1.2-2.4
					C265.2,530.9,264.1,530.4,263.1,530.7z"/>
			</g>
			<g>
				<path d="M264.9,470.8c-1-0.4-2.1,0.1-2.5,1c-0.4,1,0.1,2.1,1,2.5l0.1,0.1c0.2,0.1,0.4,0.1,0.7,0.1c0.8,0,1.5-0.5,1.8-1.2
					C266.4,472.3,265.8,471.2,264.9,470.8z"/>
			</g>
			<g>
				<path d="M257,468.8c-1-0.2-2,0.6-2.2,1.6c-0.2,1,0.6,2,1.6,2.2l0.1,0c0.1,0,0.1,0,0.2,0c0.9,0,1.8-0.7,1.9-1.7
					C258.8,469.9,258,469,257,468.8z"/>
			</g>
			<g>
				<path d="M275,522.7L275,522.7c-0.8,0.8-0.7,2,0.1,2.7c0.4,0.3,0.8,0.5,1.3,0.5c0.5,0,1.1-0.2,1.5-0.6c0.7-0.8,0.7-2-0.1-2.7
					C276.9,521.9,275.7,522,275,522.7z"/>
			</g>
			<g>
				<path d="M269.5,527.5c0,0-0.1,0.1-0.1,0.1c-0.9,0.6-1.1,1.7-0.5,2.6c0.4,0.5,1,0.8,1.6,0.8c0.4,0,0.7-0.1,1.1-0.3
					c0.9-0.6,1.1-1.8,0.5-2.6C271.6,527.1,270.4,526.9,269.5,527.5z"/>
			</g>
			<g>
				<path d="M181.6,235.2c0.4,0.4,0.9,0.6,1.4,0.6c0.4,0,0.9-0.2,1.3-0.5c0.8-0.7,0.9-1.9,0.2-2.7l-0.1-0.1
					c-0.7-0.8-1.9-0.9-2.7-0.2C180.9,233.1,180.9,234.3,181.6,235.2L181.6,235.2z"/>
			</g>
			<g>
				<path d="M189.2,255L189.2,255c0,0.3,0,0.5,0.1,0.6c-0.1,0.2-0.1,0.4-0.1,0.5l0,0.1c0,1.1,0.8,1.9,1.8,1.9c0,0,0,0,0.1,0
					c1,0,1.9-0.9,1.9-1.9c0-0.2,0-0.4-0.1-0.6c0.1-0.2,0.1-0.4,0.1-0.6V255c0-1.1-0.9-1.9-1.9-1.9C190,253.1,189.2,253.9,189.2,255z
					"/>
			</g>
			<g>
				<path d="M182.9,279.3c0.5,0,1.1-0.2,1.4-0.6c0.7-0.8,0.7-2-0.1-2.7c-0.8-0.7-2-0.7-2.7,0.1c0,0-0.1,0.1-0.1,0.1
					c-0.7,0.8-0.6,1.9,0.1,2.6C182,279.1,182.4,279.3,182.9,279.3z"/>
			</g>
			<g>
				<path d="M186.4,272.8c0.3,0.2,0.6,0.2,0.9,0.2c0.7,0,1.3-0.4,1.7-1l0.1-0.1c0.5-0.9,0.1-2.1-0.9-2.6c-0.9-0.5-2.1-0.1-2.6,0.8
					l1.7,0.9l-1.7-0.9C185.1,271.1,185.5,272.3,186.4,272.8z"/>
			</g>
			<g>
				<path d="M188.2,263.4c0,0,0,0.1,0,0.1c-0.2,1,0.4,2,1.4,2.2c0.1,0,0.3,0.1,0.4,0.1c0.9,0,1.7-0.6,1.9-1.5c0.3-1-0.4-2.1-1.4-2.3
					C189.5,261.7,188.4,262.3,188.2,263.4z"/>
			</g>
			<g>
				<path d="M185.7,241.1c0.3,0.6,1,1,1.6,1c0.3,0,0.6-0.1,0.9-0.2c0.9-0.5,1.3-1.7,0.8-2.6c-0.5-0.9-1.6-1.3-2.6-0.8
					C185.6,238.9,185.2,240.1,185.7,241.1L185.7,241.1z"/>
			</g>
			<g>
				<path d="M188.3,247.8L188.3,247.8c0.2,0.9,1,1.5,1.9,1.5c0.1,0,0.3,0,0.4-0.1c1-0.2,1.6-1.3,1.4-2.3l0-0.1
					c-0.3-1-1.3-1.6-2.3-1.4C188.6,245.8,188,246.8,188.3,247.8z"/>
			</g>
			<g>
				<path d="M131.4,332c-0.8,0.7-0.9,1.9-0.2,2.7l0.1,0.1c0.4,0.4,0.9,0.6,1.4,0.6c0.5,0,0.9-0.2,1.3-0.5c0.8-0.7,0.8-1.9,0.1-2.7
					C133.4,331.3,132.2,331.3,131.4,332z"/>
			</g>
			<g>
				<path d="M124.5,379.9c0,0-0.1,0.1-0.1,0.1c-0.9,0.5-1.1,1.7-0.6,2.6c0.4,0.6,1,0.9,1.6,0.9c0.3,0,0.7-0.1,1-0.3
					c0.9-0.5,1.2-1.7,0.7-2.6C126.6,379.7,125.4,379.4,124.5,379.9z"/>
			</g>
			<g>
				<path d="M121.9,325.5c0.4-1-0.1-2.1-1.1-2.5c-1-0.4-2.1,0.1-2.5,1c-0.4,1,0.1,2.1,1,2.5c0,0,0.1,0,0.1,0.1
					c0.2,0.1,0.4,0.1,0.7,0.1C120.9,326.7,121.6,326.2,121.9,325.5z"/>
			</g>
			<g>
				<path d="M117.9,383l-0.1,0c-1,0.3-1.5,1.4-1.2,2.4c0.3,0.8,1,1.3,1.8,1.3c0.2,0,0.4,0,0.6-0.1c1-0.3,1.6-1.4,1.3-2.4
					C120,383.2,118.9,382.7,117.9,383z"/>
			</g>
			<g>
				<path d="M130.1,375.5c-0.8,0.7-0.8,1.9,0,2.7c0.4,0.4,0.9,0.6,1.4,0.6c0.5,0,1-0.2,1.3-0.5l0.1-0.1c0.7-0.7,0.7-1.9,0-2.7
					C132.1,374.7,130.9,374.7,130.1,375.5L130.1,375.5z"/>
			</g>
			<g>
				<path d="M141.9,346.3c-0.3-1-1.3-1.6-2.3-1.4c-1,0.3-1.6,1.3-1.4,2.3l0,0.1c0.2,0.9,1,1.4,1.8,1.4c0.2,0,0.3,0,0.5-0.1
					c1-0.3,1.6-1.3,1.4-2.3L141.9,346.3z"/>
			</g>
			<g>
				<path d="M138.8,338.7c-0.5-0.9-1.7-1.3-2.6-0.7c-0.9,0.5-1.3,1.7-0.8,2.6l0,0.1c0.3,0.6,1,1,1.7,1c0.3,0,0.6-0.1,0.9-0.2
					C139.1,340.9,139.4,339.7,138.8,338.7L138.8,338.7z"/>
			</g>
			<g>
				<path d="M134.7,369.8l-0.1,0.1c-0.6,0.9-0.3,2,0.6,2.6c0.3,0.2,0.6,0.3,1,0.3c0.7,0,1.3-0.3,1.7-0.9c0.6-0.9,0.3-2.1-0.6-2.6
					C136.4,368.6,135.3,368.9,134.7,369.8z"/>
			</g>
			<g>
				<path d="M128.5,329.5c0.6-0.9,0.4-2.1-0.5-2.7c-0.9-0.6-2-0.4-2.7,0.4c-0.6,0.9-0.4,2,0.4,2.7c0,0,0.1,0.1,0.1,0.1
					c0.3,0.2,0.7,0.3,1,0.3C127.5,330.3,128.1,330,128.5,329.5z"/>
			</g>
			<g>
				<path d="M141,352.5c-1.1,0-1.9,0.9-1.9,1.9v0.1c0,0.3,0.1,0.6,0.2,0.9c-0.1,0.2-0.2,0.5-0.3,0.8c0,0,0,0.1,0,0.1
					c-0.1,1,0.7,1.9,1.8,2c0,0,0.1,0,0.1,0c1,0,1.8-0.8,1.9-1.8c0-0.4-0.1-0.7-0.2-1c0.2-0.3,0.3-0.6,0.3-1
					C142.9,353.3,142.1,352.5,141,352.5z"/>
			</g>
			<g>
				<path d="M140.2,362c-1-0.3-2.1,0.2-2.4,1.2c0,0,0,0.1,0,0.1c-0.3,1,0.2,2,1.2,2.4c0.2,0.1,0.4,0.1,0.6,0.1
					c0.8,0,1.6-0.5,1.8-1.3C141.7,363.4,141.2,362.4,140.2,362z"/>
			</g>
			<g>
				<path d="M397.5,319.9c-3,0-5.8,0.4-8.6,1.1c0.3,0.2,0.5,0.5,0.7,0.7c-0.3,0.4-0.4,0.9-0.4,1.4c0.1,0.9,1,1.6,1.9,1.6
					c0.1,0,0.2,0,0.3,0c0,0,0.1,0,0.1,0c0.3,0,0.5-0.1,0.7-0.3c6.9,8,11.1,18.4,11.1,29.7c0,13.1-5.6,24.9-14.4,33.2
					c1.1,0.3,2.1,0.5,3.2,0.7c0.2,0.1,0.4,0.2,0.7,0.2l0.1,0c0.1,0,0.1,0,0.2,0c0.1,0,0.2,0,0.3,0c1.3,0.2,2.7,0.3,4.1,0.3
					c18.9,0,34.3-15.4,34.3-34.3S416.5,319.9,397.5,319.9z"/>
			</g>
			<g>
				<path d="M378.8,455.6L378.8,455.6c0-0.1,0-0.1,0-0.1c-0.5-17.6-14-32-31.3-33.9c0.5,0.4,1,0.9,1.5,1.4c-0.2-0.1-0.4-0.2-0.6-0.2
					l-0.1,0c-1-0.1-2,0.7-2,1.7c-0.1,1,0.7,2,1.7,2.1c0.1,0,0.2,0,0.2,0c1,0,1.8-0.7,1.9-1.7c0-0.4,0-0.7-0.2-1.1
					c8.3,8.4,13.5,20,13.5,32.8c0,11.8-4.4,22.6-11.7,30.9c-0.3-0.8-1.2-1.4-2.1-1.2c0,0-0.1,0-0.2,0c-1,0.2-1.7,1.2-1.5,2.2
					c0.1,0.8,0.7,1.3,1.4,1.5c-0.6,0.6-1.2,1.1-1.8,1.6c17.6-1.9,31.3-16.9,31.3-35C378.8,456.2,378.8,455.9,378.8,455.6
					C378.8,455.6,378.8,455.6,378.8,455.6z M349.9,489.2l-0.1-1.1L349.9,489.2C349.9,489.2,349.9,489.2,349.9,489.2z"/>
			</g>
			<g>
				<path d="M340.5,426.6L340.5,426.6c1.1-0.1,1.9-1.1,1.8-2.1c-0.1-1-1.1-1.8-2.1-1.7l-0.1,0c-1,0.1-1.8,1.1-1.7,2.1
					c0.1,1,0.9,1.7,1.9,1.7C340.4,426.6,340.5,426.6,340.5,426.6z"/>
			</g>
			<g>
				<path d="M315.3,443.2c0.3,0.1,0.5,0.2,0.8,0.2c0.7,0,1.4-0.4,1.7-1.1l0.1-0.1c0.4-1,0-2.1-0.9-2.5c-1-0.4-2.1,0-2.5,0.9l1.7,0.9
					l-1.7-0.8C313.9,441.6,314.3,442.7,315.3,443.2z"/>
			</g>
			<g>
				<path d="M313,459.6c1.1,0,1.9-0.9,1.8-2c0,0,0-0.1,0-0.2c0-0.2,0-0.4-0.1-0.5c0.1-0.2,0.1-0.4,0.1-0.6c0-1.1-0.9-1.9-1.9-1.9
					c-1.1,0-1.9,0.9-1.9,1.9v0.1c0,0.2,0,0.4,0.1,0.6c-0.1,0.2-0.1,0.4-0.1,0.6l0.5,0c0,0,0,0,0,0l-0.5,0
					C311,458.7,311.9,459.6,313,459.6C312.9,459.6,313,459.6,313,459.6z"/>
			</g>
			<g>
				<path d="M313.3,450.6c0.1,0,0.3,0,0.4,0c0.9,0,1.7-0.6,1.9-1.5c0,0,0-0.1,0-0.1c0.2-1-0.5-2-1.5-2.2c-1-0.2-2,0.5-2.2,1.5
					l1.8,0.5l-1.9-0.4C311.6,449.4,312.3,450.4,313.3,450.6z"/>
			</g>
			<g>
				<path d="M327,431.4L327,431.4c1-0.7,1.2-1.8,0.6-2.7c-0.6-0.9-1.8-1.1-2.6-0.5l-0.1,0c-0.9,0.6-1.1,1.8-0.5,2.6
					c0.4,0.5,1,0.8,1.6,0.8C326.3,431.8,326.7,431.7,327,431.4z"/>
			</g>
			<g>
				<path d="M316,464.7c0,0,0-0.1,0-0.2c-0.3-1-1.4-1.5-2.4-1.2c-1,0.3-1.6,1.4-1.3,2.4l1.8-0.5l-1.8,0.5c0.2,0.8,1,1.4,1.8,1.4
					c0.2,0,0.3,0,0.5-0.1C315.6,466.8,316.2,465.8,316,464.7z"/>
			</g>
			<g>
				<path d="M323,477.1c-0.7-0.7-1.9-0.7-2.7,0c-0.7,0.7-0.7,1.9,0,2.7c0,0,0,0,0,0c0.4,0.4,0.9,0.6,1.4,0.6c0.5,0,0.9-0.2,1.3-0.5
					C323.8,479.1,323.8,477.9,323,477.1C323.1,477.1,323,477.1,323,477.1z"/>
			</g>
			<g>
				<path d="M318.7,471.3c-0.5-0.9-1.7-1.2-2.6-0.7c-0.9,0.5-1.2,1.7-0.7,2.6l0,0.1c0.4,0.6,1,1,1.7,1c0.3,0,0.6-0.1,0.9-0.2
					c0.9-0.5,1.2-1.7,0.7-2.6L318.7,471.3z"/>
			</g>
			<g>
				<path d="M321.8,436.2c0.7-0.8,0.6-2-0.2-2.7c-0.8-0.7-2-0.6-2.7,0.2l-0.1,0.1c-0.7,0.8-0.5,2,0.3,2.6c0.3,0.3,0.8,0.4,1.2,0.4
					C320.8,436.9,321.4,436.6,321.8,436.2z"/>
			</g>
			<g>
				<path d="M333.4,428.2c0,0,0.1,0,0.1,0c1-0.4,1.5-1.5,1.1-2.4c-0.4-1-1.5-1.5-2.4-1.1l0.6,1.8l-0.6-1.8c-1,0.3-1.5,1.4-1.2,2.4
					c0.3,0.8,1,1.3,1.8,1.3C333,428.3,333.2,428.3,333.4,428.2z"/>
			</g>
			<g>
				<path d="M326,482.3c-0.6,0.9-0.4,2.1,0.5,2.6c0,0,0.1,0.1,0.1,0.1c0.3,0.2,0.6,0.3,1,0.3c0.6,0,1.2-0.3,1.6-0.9
					c0.6-0.9,0.3-2.1-0.6-2.6C327.8,481.2,326.6,481.4,326,482.3z"/>
			</g>
			<g>
				<path d="M342.2,486.4c-1-0.1-2,0.7-2.1,1.7c-0.1,1,0.7,2,1.7,2.1l0.1,0c0.1,0,0.1,0,0.2,0c1,0,1.8-0.7,1.8-1.7
					C344,487.4,343.2,486.5,342.2,486.4z"/>
			</g>
			<g>
				<path d="M335.2,484.9l-0.1,0c-1-0.3-2.1,0.2-2.4,1.2c-0.3,1,0.2,2.1,1.2,2.4l0.1,0c0.2,0.1,0.4,0.1,0.6,0.1
					c0.8,0,1.5-0.5,1.8-1.3C336.7,486.3,336.2,485.3,335.2,484.9z"/>
			</g>
			<g>
				<path d="M320.9,235.8c0.5,0,1-0.2,1.4-0.6l0.1-0.1c0.7-0.8,0.6-2-0.2-2.7c-0.8-0.7-2-0.6-2.7,0.2l1.4,1.3l-1.4-1.3
					c-0.7,0.8-0.6,2,0.1,2.7C320,235.6,320.4,235.8,320.9,235.8z"/>
			</g>
			<g>
				<path d="M311,255.1c0,0.2,0,0.4,0.1,0.6c-0.1,0.2-0.1,0.4-0.1,0.6l0,0.1c0,1,0.9,1.8,1.9,1.8c0,0,0,0,0.1,0c1.1,0,1.9-1,1.8-2
					c0-0.2,0-0.4-0.1-0.5c0.1-0.2,0.1-0.4,0.1-0.5V255c0-1.1-0.9-1.9-1.9-1.9C311.8,253.1,311,253.9,311,255.1L311,255.1z"/>
			</g>
			<g>
				<path d="M313.4,249.3c0.2,0,0.3,0.1,0.5,0.1c0.9,0,1.6-0.6,1.8-1.5c0,0,0-0.1,0-0.1c0.2-1-0.4-2-1.4-2.3c-1-0.2-2,0.4-2.3,1.4
					l1.8,0.5L312,247C311.7,248,312.3,249,313.4,249.3z"/>
			</g>
			<g>
				<path d="M313.9,265.8c0.1,0,0.3,0,0.5-0.1c1-0.2,1.6-1.3,1.4-2.3c0,0,0-0.1,0-0.1c-0.3-1-1.3-1.6-2.3-1.3
					c-1,0.3-1.6,1.3-1.3,2.3l1.9-0.4l-1.8,0.4C312.3,265.2,313.1,265.8,313.9,265.8z"/>
			</g>
			<g>
				<path d="M378.9,255.2c0-18.8-15.2-34.1-34.1-34.1c-7.4,0-14.2,2.3-19.7,6.3c0,0,0.1,0.1,0.1,0.1c-0.5,0.6-0.6,1.6-0.1,2.3
					c0.4,0.5,1,0.8,1.6,0.8c0.2,0,0.4,0,0.6-0.1c4.6,7.1,7.3,15.6,7.3,24.7c0,9.3-2.8,18-7.7,25.2c-0.7,0-1.3,0.3-1.7,0.9
					c-0.3,0.5-0.4,1.1-0.2,1.7c0,0,0,0,0,0.1c0,0,0.1,0,0.1,0.1c0.1,0.3,0.4,0.6,0.7,0.9l0.1,0.1c0.3,0.2,0.6,0.3,1,0.3l0,0
					c2,1.2,4.1,2.3,6.3,3.1c0,0,0,0,0,0l0.1,0c3.6,1.3,7.4,2,11.4,2C363.6,289.2,378.9,274,378.9,255.2z"/>
			</g>
			<g>
				<path d="M315.7,241.9c0.3,0.1,0.6,0.2,0.9,0.2c0.7,0,1.4-0.4,1.7-1c0.5-0.9,0.1-2.1-0.8-2.6c-0.9-0.5-2.1-0.1-2.6,0.8l-0.1,0.1
					C314.4,240.3,314.7,241.4,315.7,241.9z"/>
			</g>
			<g>
				<path d="M315,272c0.3,0.6,1,1,1.7,1c0.3,0,0.6-0.1,0.9-0.2c0.9-0.5,1.3-1.7,0.8-2.6c-0.5-0.9-1.6-1.3-2.5-0.9
					c-0.9,0.5-1.3,1.6-0.9,2.5L315,272z"/>
			</g>
			<g>
				<path d="M319.7,275.9c-0.8,0.7-0.8,1.9-0.1,2.7l0.1,0.1c0.4,0.4,0.9,0.6,1.4,0.6c0.5,0,0.9-0.2,1.3-0.5c0.8-0.7,0.8-2,0.1-2.7
					C321.7,275.3,320.5,275.2,319.7,275.9z"/>
			</g>
			<g>
				<path d="M371.2,335.4c0.5,0,1-0.2,1.4-0.6l0.1-0.1c0.7-0.8,0.6-2-0.2-2.7c-0.8-0.7-2-0.6-2.7,0.2l0,0c-0.7,0.8-0.7,2,0.1,2.7
					C370.3,335.2,370.7,335.4,371.2,335.4z"/>
			</g>
			<g>
				<path d="M375.4,329.5c0.4,0.5,1,0.8,1.6,0.8c0.4,0,0.7-0.1,1.1-0.3c0,0,0.1-0.1,0.1-0.1c0.9-0.6,1.1-1.8,0.4-2.7
					c-0.6-0.9-1.8-1.1-2.7-0.4l1,1.6l-1.1-1.6C375.1,327.4,374.8,328.6,375.4,329.5z"/>
			</g>
			<g>
				<path d="M371.2,378.2c0.4,0.4,0.9,0.6,1.3,0.6c0.5,0,1-0.2,1.3-0.6c0.7-0.7,0.7-1.9,0-2.7l-0.1-0.1c-0.8-0.7-2-0.7-2.7,0.1
					C370.4,376.2,370.4,377.4,371.2,378.2L371.2,378.2z"/>
			</g>
			<g>
				<path d="M362.6,364.6c0.3,0.8,1,1.2,1.8,1.2c0.2,0,0.4,0,0.6-0.1c1-0.3,1.5-1.4,1.2-2.4c-0.3-1-1.4-1.6-2.4-1.3
					c-1,0.3-1.6,1.4-1.3,2.4C362.6,364.4,362.6,364.5,362.6,364.6z"/>
			</g>
			<g>
				<path d="M366.1,371.9c0.4,0.6,0.9,0.9,1.6,0.9c0.4,0,0.7-0.1,1-0.3c0.9-0.6,1.1-1.8,0.6-2.7c-0.6-0.9-1.7-1.2-2.6-0.6
					C365.8,369.7,365.5,370.9,366.1,371.9L366.1,371.9z"/>
			</g>
			<g>
				<path d="M378.6,383.5c0.6,0,1.3-0.3,1.6-0.9c0.6-0.9,0.3-2.1-0.6-2.6l-0.1-0.1c-0.9-0.5-2-0.2-2.6,0.7c-0.5,0.9-0.2,2.1,0.7,2.6
					l1-1.6l-1,1.6C377.9,383.4,378.3,383.5,378.6,383.5z"/>
			</g>
			<g>
				<path d="M382,325.5c0.3,0.8,1,1.2,1.8,1.2c0.2,0,0.4,0,0.7-0.1c0,0,0.1-0.1,0.2-0.1c1-0.4,1.4-1.5,1-2.5c-0.4-1-1.5-1.4-2.5-1
					l0.6,1.8l-0.7-1.8C382.1,323.4,381.6,324.5,382,325.5z"/>
			</g>
			<g>
				<path d="M384.9,386.6L384.9,386.6c0.3,0.1,0.5,0.1,0.7,0.1c0.8,0,1.5-0.5,1.8-1.3c0.3-1-0.2-2.1-1.2-2.4l-0.1,0
					c-1-0.3-2.1,0.2-2.4,1.2C383.4,385.2,383.9,386.3,384.9,386.6z"/>
			</g>
			<g>
				<path d="M361.1,356.5c0.1,1,0.9,1.7,1.9,1.7c0,0,0.1,0,0.1,0c1-0.1,1.8-1,1.8-2.1c0-0.3-0.1-0.6-0.3-0.9
					c0.1-0.3,0.2-0.6,0.2-0.9c0-1.1-0.9-1.9-1.9-1.9c-1.1,0-1.9,0.9-1.9,1.9v0.1c0,0.4,0.1,0.7,0.3,1
					C361.1,355.7,361.1,356.1,361.1,356.5L361.1,356.5z"/>
			</g>
			<g>
				<path d="M365.8,341.4c0.3,0.1,0.6,0.2,0.9,0.2c0.7,0,1.4-0.4,1.7-1c0.5-0.9,0.2-2.1-0.7-2.6c-0.9-0.5-2.1-0.2-2.6,0.7l-0.1,0.1
					C364.6,339.7,364.9,340.9,365.8,341.4z"/>
			</g>
			<g>
				<path d="M363.4,348.7c0.2,0,0.3,0.1,0.5,0.1c0.8,0,1.6-0.6,1.8-1.4l0-0.2c0.2-1-0.4-2-1.4-2.3c-1-0.3-2,0.4-2.3,1.4l1.8,0.5
					l-1.8-0.5C361.8,347.4,362.4,348.4,363.4,348.7z"/>
			</g>
			<g>
				<path d="M304.8,220.5c0.9,0.9,0.7,5.1,1.3,5.1c0.5,0,0.5-4.2,1.3-5.1c0.8-0.8,3.9-0.6,3.9-1.1c0-0.5-3.1-0.4-3.9-1.1
					c-0.8-0.8-0.7-5.1-1.3-5.1c-0.5,0-0.4,4.1-1.3,5.1c-0.9,0.9-3.9,0.5-3.9,1.1C301,220,303.9,219.6,304.8,220.5z"/>
			</g>
			<g>
				<path d="M375,301.9c0,0.8,4.1,0.3,5.3,1.5c1.2,1.2,1,7,1.8,7c0.7,0,0.6-5.8,1.8-7c1.1-1.1,5.3-0.9,5.3-1.5
					c0-0.7-4.3-0.5-5.3-1.5c-1.1-1.1-1-7-1.8-7c-0.7,0-0.5,5.7-1.8,7S375,301.1,375,301.9z"/>
			</g>
			<g>
				<path d="M307.4,488.4c-0.8-0.8-0.7-5.1-1.3-5.1c-0.5,0-0.4,4.2-1.3,5.1c-0.9,0.9-3.9,0.5-3.9,1.1c0,0.6,2.9,0.2,3.9,1.1
					s0.7,5.1,1.3,5.1c0.5,0,0.5-4.3,1.3-5.1c0.8-0.8,3.9-0.6,3.9-1.1C311.2,489.1,308.2,489.2,307.4,488.4z"/>
			</g>
			<g>
				<path d="M383.9,405.5c-1.1-1.1-1-7-1.8-7c-0.7,0-0.5,5.7-1.8,7c-1.2,1.2-5.3,0.7-5.3,1.5c0,0.8,4,0.3,5.3,1.5c1.3,1.3,1,7,1.8,7
					c0.7,0,0.7-5.9,1.8-7c1.1-1.1,5.3-0.9,5.3-1.5C389.2,406.4,385,406.6,383.9,405.5z"/>
			</g>
			<g>
				<path d="M198.2,220.5c0.8,0.8,0.7,5.1,1.3,5.1s0.4-4.2,1.3-5.1c0.9-0.9,3.9-0.5,3.9-1.1c0-0.6-2.9-0.2-3.9-1.1
					c-0.9-0.9-0.7-5.1-1.3-5.1s-0.5,4.3-1.3,5.1c-0.8,0.8-3.9,0.6-3.9,1.1C194.3,219.9,197.3,219.7,198.2,220.5z"/>
			</g>
			<g>
				<path d="M121.7,303.5c1.1,1.1,1,7,1.8,7c0.7,0,0.5-5.7,1.8-7c1.2-1.2,5.3-0.7,5.3-1.5c0-0.8-4-0.3-5.3-1.5c-1.3-1.3-1-7-1.8-7
					c-0.7,0-0.7,5.9-1.8,7c-1.1,1.1-5.3,0.9-5.3,1.5C116.4,302.6,120.5,302.3,121.7,303.5z"/>
			</g>
			<g>
				<path d="M200.7,488.4c-0.9-0.9-0.7-5.1-1.3-5.1s-0.5,4.2-1.3,5.1c-0.8,0.8-3.9,0.6-3.9,1.1c0,0.5,3.1,0.4,3.9,1.1
					c0.8,0.8,0.7,5.1,1.3,5.1s0.4-4.1,1.3-5.1c0.9-0.9,3.9-0.5,3.9-1.1C204.6,489,201.6,489.3,200.7,488.4z"/>
			</g>
			<g>
				<path d="M130.5,407c0-0.8-4.1-0.3-5.3-1.5c-1.2-1.2-1-7-1.8-7c-0.7,0-0.6,5.8-1.8,7c-1.1,1.1-5.3,0.9-5.3,1.5
					c0,0.7,4.3,0.5,5.3,1.5c1.1,1.1,1,7,1.8,7c0.7,0,0.5-5.7,1.8-7C126.5,407.3,130.5,407.8,130.5,407z"/>
			</g>
		</g>
		<g>
			<path d="M398.7,558.4c-0.1,0-0.2,0-0.3,0.1c-6.2,2.7-11.9,6.6-17.9,9.7c2.1-4.2,4-8.5,5.5-12.9c0,0,0,0,0.1,0
				c2.1-1.8,3.9-4.1,5.8-6.2c2-2.2,3.5-4.8,5.5-6.9c10.6-2.6,17.1-12.3,16.9-23c0-1.1-1.1-2.1-2.3-1.7c-9.7,2.9-15.5,13.2-17.5,22.4
				c0,0.1-0.1,0.2-0.1,0.3c-1.8,2-3.2,4.4-5.1,6.4c-0.3,0.4-0.6,0.7-1,1.1c1.7-6.6,2.7-13.4,3-20.4c6.7-8.4,6.4-19.8,0.3-28.5
				c-0.8-1.2-2.3-1.1-3.1,0c-6,8-4.4,19.5-0.8,28.1c-0.4,12.3-3.2,23.7-7.9,34.3c-2.9-3.6-5.8-7.6-7.4-11.9
				c0.7-9.5-1.9-20.9-10.4-26.5c-1-0.7-2.4,0-2.7,1.1c-2.9,10.2,0.6,21.3,9.8,26.9c2,5.1,5.5,9.7,9,14
				c-6.6,13.5-16.3,25.5-27.8,35.9c-0.9,0.8-1.8,1.6-2.8,2.4c-1.5-4.4-0.6-10.9-0.5-15.3c0-0.7,0-1.4,0-2.2c3.9-8.5,5.8-19.8,0.1-28
				c-0.8-1.2-2.3-1.1-3.1,0c-6.5,8.5-7,19.9-0.6,28.5c0,0.9,0,1.8,0,2.6c-0.1,5.2-0.7,11.8,1.3,16.7c-8.7,7.3-17.9,14.1-25.6,22.4
				c-10,10.7-17.8,23.2-24.8,36c-1.1,2,2,3.9,3.1,1.8c3.1-5.7,6.4-11.4,10-16.8c0.2,0.1,0.4,0.1,0.7,0c8.3-1.1,16.1-4.1,24.3-5.5
				c0.1,0.1,0.2,0.1,0.3,0.2c10.3,4,21.4-0.2,27.8-8.8c0.7-1-0.1-2.3-1.1-2.7c-9.3-3.2-19.5,1.6-26.5,7.6c-0.1,0-0.2,0-0.3,0
				c-7.7,1.2-15,4-22.7,5.3c4.4-6.4,9.3-12.4,14.9-17.9c2.6-2.6,5.4-5,8.2-7.4c0.2,0.1,0.3,0.2,0.6,0.3c6,1.8,12.5,2.3,18.5,0.5
				c3.5,4.1,10.2,5.7,15.1,7.2c4.5,1.3,9.2,2.6,14,3.3c0,0,0,0,0.1,0.1c8.1,5.1,19.5,8.3,28.6,3.4c1-0.5,1.2-2.1,0.4-2.8
				c-7.6-7.2-18.8-9.3-28.1-4.1c-4.3-0.6-8.7-1.8-12.8-3c-4.1-1.2-9.8-2.4-13.3-5.4c5.7-2.4,10.9-5.9,16.2-9.2
				c9.3-5.9,20.4-11.8,31.6-13.9c10,5.4,21.8,2.8,29.7-5.1c0.8-0.8,0.7-2.3-0.4-2.8c-9.7-5-21.7-1.2-30.1,4.4c0,0-0.1,0.1-0.1,0.1
				c-9.2,1.8-18.2,6.1-26.2,10.5c-1.3,0.7-2.6,1.5-3.9,2.3c1.6-4.9,5.1-9.9,9.2-12.4c10.9,0.3,19.8-7.4,22.3-17.9
				c0.3-1.1-0.5-2.3-1.7-2.3c-10.2,0.3-18.4,8.8-22.7,17.2c0,0,0,0-0.1,0.1c-5.9,3.7-10.1,11.2-11.3,18c-3.5,2.2-7,4.4-10.7,6.3
				c-7,3.5-13.9,4.4-21.4,2.6c6.9-5.8,14.1-11.3,20.6-17.5c8.2-7.8,15.2-16.5,20.7-26c7.5-3.2,14.2-8,21.5-11.3
				c0.1,0,0.2,0.1,0.4,0.1c11,1.3,20.6-5.7,24.6-15.6c0.5-1.2-0.7-2.2-1.7-2.3C412.6,543.6,403.9,550.8,398.7,558.4z"/>
		</g>
		<g>
			<path d="M184.9,627.9c-7.8-8.2-16.9-15.1-25.6-22.4c2-4.9,1.3-11.5,1.3-16.7c0-0.9,0-1.7,0-2.6c6.4-8.7,5.8-20-0.6-28.5
				c-0.8-1.1-2.3-1.2-3.1,0c-5.7,8.2-3.8,19.5,0.1,28c0,0.7,0,1.5,0,2.2c0.1,4.4,0.9,10.8-0.5,15.3c-0.9-0.8-1.9-1.6-2.8-2.4
				c-11.5-10.5-21.2-22.5-27.8-35.9c3.5-4.3,7-8.9,9-14c9.2-5.7,12.7-16.8,9.8-26.9c-0.3-1.1-1.7-1.7-2.7-1.1
				c-8.5,5.6-11.1,17-10.4,26.5c-1.6,4.3-4.5,8.2-7.4,11.9c-4.7-10.6-7.5-22.1-7.9-34.3c3.6-8.6,5.2-20.1-0.8-28.1
				c-0.8-1.1-2.3-1.2-3.1,0c-6.1,8.7-6.4,20.1,0.3,28.5c0.3,7,1.3,13.8,3,20.4c-0.3-0.4-0.6-0.7-1-1.1c-1.8-2-3.2-4.4-5.1-6.4
				c0-0.1,0-0.2-0.1-0.3c-2.1-9.2-7.8-19.5-17.5-22.4c-1.2-0.3-2.3,0.6-2.3,1.7c-0.3,10.7,6.3,20.4,16.9,23c2.1,2.1,3.6,4.7,5.5,6.9
				c1.9,2.1,3.7,4.3,5.8,6.2c0,0,0,0,0.1,0c1.5,4.4,3.4,8.8,5.5,12.9c-6-3.1-11.7-7-17.9-9.7c-0.1,0-0.2-0.1-0.3-0.1
				c-5.2-7.6-13.9-14.8-23.7-14.1c-1,0.1-2.2,1.1-1.7,2.3c4,9.9,13.6,16.9,24.6,15.6c0.1,0,0.3,0,0.4-0.1c7.3,3.4,14,8.1,21.5,11.3
				c5.5,9.5,12.5,18.2,20.7,26c6.5,6.2,13.7,11.8,20.6,17.5c-7.2,1.7-13.9,1-20.7-2.3c-3.9-1.9-7.6-4.3-11.3-6.6
				c-1.2-6.8-5.4-14.3-11.3-18c0,0,0-0.1-0.1-0.1c-4.4-8.4-12.6-16.9-22.7-17.2c-1.2,0-2,1.2-1.7,2.3c2.5,10.4,11.4,18.1,22.3,17.9
				c4.1,2.5,7.6,7.5,9.2,12.4c-1.3-0.8-2.6-1.5-3.9-2.3c-8-4.4-17-8.6-26.2-10.5c0,0-0.1-0.1-0.1-0.1c-8.4-5.6-20.4-9.4-30.1-4.4
				c-1.1,0.5-1.1,2.1-0.4,2.8c7.8,7.9,19.7,10.5,29.7,5.1c11.2,2.1,22.3,8.1,31.6,13.9c5.2,3.3,10.5,6.8,16.2,9.2
				c-3.5,3-9.2,4.2-13.3,5.4c-4.2,1.2-8.5,2.4-12.8,3c-9.3-5.2-20.5-3.1-28.1,4.1c-0.8,0.8-0.6,2.3,0.4,2.8c9,4.9,20.5,1.7,28.6-3.4
				c0,0,0,0,0.1-0.1c4.7-0.7,9.4-2,14-3.3c4.9-1.4,11.6-3.1,15.1-7.2c6,1.8,12.6,1.2,18.5-0.5c0.2-0.1,0.4-0.2,0.6-0.3
				c2.8,2.4,5.6,4.9,8.2,7.4c5.6,5.4,10.5,11.5,14.9,17.9c-7.7-1.3-15-4.2-22.7-5.3c-0.1,0-0.2,0-0.3,0c-7-6-17.2-10.7-26.5-7.6
				c-1,0.3-1.8,1.7-1.1,2.7c6.4,8.6,17.4,12.8,27.8,8.8c0.1,0,0.2-0.1,0.3-0.2c8.2,1.4,16,4.4,24.3,5.5c0.3,0,0.5,0,0.7,0
				c3.6,5.5,6.8,11.1,10,16.8c1.1,2,4.2,0.2,3.1-1.8C202.7,651.1,195,638.5,184.9,627.9z"/>
		</g>
		<g>
			<path d="M244.5,635.3c0,7.9,3.8,10.4,8.5,10.4c4.7,0,8.5-2.5,8.5-10.4s-8.5-61.9-8.5-61.9S244.5,627.5,244.5,635.3z"/>
		</g>
	</g>
</g>
</svg>
